<svg width="24" height="24" viewBox="0 0 24 24" fill="none" xmlns="http://www.w3.org/2000/svg">
<path fill-rule="evenodd" clip-rule="evenodd" d="M6.2467 3.02021C2.46529 6.76971 2.16291 12.6981 5.35515 16.7962L0.383781 21.7645C-0.127927 22.2759 -0.127927 23.1052 0.383781 23.6166C0.895324 24.1278 1.72459 24.1278 2.23614 23.6166L7.20959 18.6462C11.2822 21.8023 17.1633 21.5258 20.92 17.8008C25.004 13.7513 25.0299 7.15957 20.9778 3.07804C16.9258 -1.00332 10.3306 -1.02921 6.2467 3.02021ZM19.0749 15.9415C16.0181 18.9725 11.0813 18.9532 8.04847 15.8983C5.01577 12.8436 5.03515 7.91035 8.09178 4.87952C11.1486 1.84855 16.0853 1.86791 19.1182 4.9228C22.1509 7.97752 22.1315 12.9107 19.0749 15.9415Z" fill="white"/>
</svg>
