<svg width="99" height="58" viewBox="0 0 99 58" fill="none" xmlns="http://www.w3.org/2000/svg">
<path d="M52.08 26.718C51.7798 23.4994 55.0984 21.2955 58.0377 22.0328C58.9859 22.2706 59.776 22.7542 60.3923 23.3884C60.4239 23.4122 60.4634 23.428 60.495 23.4598C60.6056 23.5549 60.7005 23.6579 60.7953 23.7531C60.8427 23.7848 60.898 23.8086 60.9454 23.8482C61.0244 23.9196 61.1034 23.9988 61.1824 24.0702C61.5538 24.4111 61.8383 24.8471 61.9805 25.3307C62.02 25.4179 62.0595 25.4971 62.0832 25.5685C62.1385 25.735 62.2175 26.1076 62.2333 26.282C62.2413 26.4247 62.2254 26.5119 62.2175 26.6863C62.1938 27.0351 62.1306 27.3601 61.9805 27.6852C61.941 27.7724 61.8936 27.8437 61.8383 27.9151C61.7988 28.0736 61.7435 28.2322 61.6802 28.3828C61.6012 28.684 61.5064 28.9774 61.3721 29.2707C61.0007 30.0714 60.2185 30.5708 59.3809 30.6897C59.3256 30.7135 59.2782 30.7373 59.2229 30.7611C56.331 31.7679 52.3882 30.0079 52.08 26.718Z" fill="#FBB03B"/>
<path d="M54.9321 38.4508C54.9243 38.4508 54.9321 38.4508 54.9321 38.4508C54.9243 38.4586 54.9243 38.4665 54.9243 38.4665C54.9243 38.4586 54.9321 38.4508 54.9321 38.4351C54.9321 38.4429 54.9321 38.4508 54.9321 38.4508Z" fill="#1E1E1E"/>
<path d="M46.4699 44.4917C48.1608 48.3683 49.6463 52.4272 50.8868 56.5495C50.9026 56.5892 50.9184 56.6288 50.9342 56.6684C51.029 57.0014 51.2661 57.3185 51.5821 57.4771C51.8745 57.6356 52.2142 57.6515 52.5461 57.5405L52.5619 57.5325L67.8669 52.0546C68.7439 51.7375 69.6525 51.4759 70.5375 51.2222C71.2091 51.0319 71.8808 50.8337 72.5445 50.6197C72.6867 50.5721 72.8368 50.5246 72.979 50.477C74.4013 49.9855 75.8393 49.3275 77.2695 48.5347C77.6725 48.3128 77.8937 47.8371 77.8463 47.3298C77.949 47.0602 77.9569 46.751 77.8621 46.4498C77.1036 44.1032 76.3371 41.7487 75.5549 39.4101C74.8754 37.3807 74.1958 35.3512 73.5005 33.3217C72.7815 31.2368 71.8807 29.1677 71.0827 27.3443C69.3918 23.4678 67.9064 19.4088 66.6659 15.2865C66.658 15.2469 66.6422 15.2072 66.6184 15.1676C66.5236 14.8346 66.2787 14.5255 65.9626 14.359C65.6703 14.2004 65.3305 14.1846 64.9987 14.3035L64.9829 14.3114L49.6779 19.7894C48.8088 20.1065 47.8922 20.3681 47.0151 20.6218C46.3435 20.812 45.6719 21.0102 45.0003 21.2243C43.4437 21.7316 41.8476 22.4372 40.2752 23.3092C39.8723 23.5312 39.6511 24.0068 39.6985 24.5142C39.5957 24.7837 39.5878 25.0929 39.6826 25.3942C40.4412 27.7487 41.2076 30.0952 41.9899 32.4338C42.6694 34.4633 43.3489 36.4928 44.0442 38.5222C44.7632 40.5992 45.6719 42.6683 46.4699 44.4917ZM62.565 41.0432C62.5176 40.9956 62.4781 40.9401 62.4307 40.8926C62.7073 39.2199 63.4263 37.6106 65.2357 37.3093C66.3893 37.119 67.6219 37.2697 68.7676 37.4441C69.937 37.6264 71.0906 37.9039 72.2205 38.2765C72.2995 38.3003 72.3864 38.3161 72.4654 38.3161C73.382 41.0511 74.3065 43.8416 75.2151 46.6559C73.6744 47.4487 72.0072 48.0829 70.1346 48.5823C69.7553 48.6854 69.3681 48.7964 68.9889 48.9153C68.981 48.6457 68.9019 48.3841 68.7281 48.1701C66.7449 45.7442 64.6905 43.366 62.565 41.0432ZM50.9658 48.7567C50.6261 47.853 50.2626 46.9492 49.8913 46.0534C49.9703 45.9107 50.0335 45.7442 50.0651 45.554C50.1915 44.6819 50.3258 43.8099 50.4522 42.9379C51.5505 43.5007 52.8938 43.6038 54.079 43.2153C55.6988 42.6842 56.8366 41.4079 57.4924 39.8937C58.8198 41.1304 60.0129 42.5732 61.1981 43.8892C62.9443 45.8235 64.6431 47.8054 66.2945 49.8269C65.8915 49.9696 65.4886 50.1203 65.0935 50.263L52.9648 54.6073C52.3327 52.5778 51.6611 50.6118 50.9658 48.7567ZM51.2424 39.7272C51.187 39.6242 51.1159 39.5449 51.0369 39.4656C51.1317 39.1802 51.2345 38.8948 51.4004 38.6491C52.2142 37.4124 53.7787 37.563 55.0271 38.11C55.0192 38.1417 55.0034 38.1655 54.9955 38.1972C54.9955 38.2051 54.956 38.3478 54.9244 38.435C54.9481 38.3716 54.9797 38.3082 54.9244 38.4429C54.9165 38.4747 54.9086 38.4984 54.9086 38.4984C54.9086 38.4984 54.9086 38.4826 54.9165 38.4588C54.8612 38.6015 54.798 38.7521 54.7347 38.8869C54.6636 39.0296 54.5846 39.1723 54.5056 39.3071C54.4582 39.3625 54.4187 39.426 54.3792 39.4815C54.2765 39.6083 54.1738 39.7272 54.0632 39.8461C54.0473 39.862 54.0474 39.862 54.0395 39.8778C53.9842 39.9175 53.9367 39.965 53.8814 40.0047C53.7392 40.1077 53.597 40.2029 53.4469 40.2901C53.439 40.2901 53.439 40.2901 53.4311 40.2901C53.3599 40.3139 53.2888 40.3456 53.2177 40.3773C53.1308 40.409 53.036 40.4328 52.9412 40.4645C52.8938 40.4803 52.87 40.4883 52.8621 40.4962C52.712 40.512 52.4908 40.512 52.4355 40.512C52.3644 40.5041 52.2696 40.4803 52.2538 40.4803C52.1984 40.4724 52.1431 40.4566 52.0878 40.4407C52.0088 40.3773 51.8429 40.3218 51.7401 40.2821C51.7401 40.2742 51.6216 40.2029 51.59 40.1791C51.5426 40.1394 51.5031 40.0998 51.4557 40.0602C51.3925 39.9492 51.3135 39.8461 51.2424 39.7272ZM46.2092 36.905C44.9134 33.0998 43.6017 29.1598 42.3138 25.1801C43.8546 24.3874 45.5218 23.7532 47.3944 23.2537C49.1169 22.7939 50.8078 22.1756 52.4434 21.5889L64.572 17.2446C65.1962 19.2582 65.8678 21.2243 66.571 23.0872C67.2269 24.8234 67.9538 26.5516 68.6649 28.2243C69.5893 30.4044 70.5454 32.6637 71.3276 34.939C71.3276 34.9469 71.3355 34.9548 71.3355 34.9707C70.4348 34.7408 69.5183 34.5664 68.5938 34.4554C67.0688 34.281 65.5122 34.1779 64.0189 34.5822C62.0988 35.0975 60.8188 36.5879 60.1077 38.3478C58.9541 37.1587 57.7057 36.0647 56.236 35.4067C53.8656 34.3444 50.6972 34.5664 49.0932 36.8416C48.3584 37.888 48.0581 39.1326 47.8606 40.3773C47.829 40.5834 47.7974 40.7895 47.7658 40.9956C47.2127 39.6479 46.6754 38.2844 46.2092 36.905Z" fill="#1E1E1E"/>
<path d="M59.752 28.1448C59.6337 28.1763 59.6573 28.1606 59.752 28.1448V28.1448Z" fill="#1E1E1E"/>
<path d="M56.2438 30.1743C57.674 31.197 59.6493 31.4824 61.2691 30.7293C63.118 29.8731 64.2953 28.0498 64.2242 25.9886C64.1531 24.086 62.8731 22.2706 61.0795 21.6363C60.5975 21.4619 60.1155 21.4778 59.7205 21.6918C59.3491 21.2162 58.6696 21.0814 58.077 21.2083C56.1727 21.6126 54.5371 23.3725 54.2606 25.3068C53.9998 27.1143 54.7268 29.0883 56.2438 30.1743ZM57.674 27.5186C57.6424 27.471 57.6029 27.4314 57.5792 27.3918C57.5476 27.3521 57.4606 27.2411 57.4053 27.1539C57.4053 27.1381 57.3975 27.1302 57.3896 27.0905C57.3659 27.0271 57.3342 26.9558 57.3105 26.8923C57.2631 26.7576 57.2236 26.6228 57.1841 26.4801C57.1841 26.4801 57.1841 26.4801 57.1841 26.4722C57.1841 26.4642 57.1841 26.4563 57.1841 26.4484C57.1762 26.377 57.1683 26.3057 57.1604 26.2343C57.1525 26.1709 57.1841 25.941 57.1604 25.8459C57.1762 25.7825 57.1841 25.719 57.192 25.6556C57.2078 25.5922 57.2236 25.5209 57.2394 25.4574C57.2473 25.4178 57.2473 25.4019 57.2473 25.394C57.2947 25.291 57.3737 25.1562 57.4053 25.1086C57.429 25.069 57.4528 25.0294 57.4765 24.9897C57.5634 24.8867 57.6424 24.7757 57.7293 24.6805C57.753 24.6568 57.7767 24.625 57.8083 24.6013C57.9347 24.5458 58.077 24.3872 58.1876 24.3159C58.2429 24.2762 58.3061 24.2445 58.3614 24.2128C58.5589 24.0939 58.2824 24.2445 58.2824 24.2524C58.2903 24.1494 58.9619 24.0225 59.0567 23.9988C59.1516 23.9829 59.2306 23.9433 59.3096 23.9036C59.4439 24.078 59.6099 24.2207 59.8153 24.2921C59.9891 24.3555 60.1551 24.4189 60.3131 24.5061C60.3605 24.5299 60.4079 24.5616 60.4553 24.5854C60.4632 24.5933 60.4553 24.5854 60.4632 24.5933C60.4948 24.625 60.5264 24.6488 60.5422 24.6647C60.6133 24.7202 60.6844 24.7836 60.7477 24.847C60.7556 24.8549 60.7634 24.8629 60.7792 24.8708C60.8108 24.9104 60.882 24.9818 60.8978 25.0056C60.9373 25.0611 60.9847 25.1245 61.0242 25.1879C61.0637 25.2434 61.0953 25.3068 61.1269 25.3623C61.1585 25.4733 61.3245 25.727 61.2928 25.8459C61.2612 25.6636 61.2533 25.6239 61.2691 25.7349C61.277 25.7904 61.2849 25.8459 61.2928 25.9014C61.3008 25.9727 61.3086 26.052 61.3086 26.1313C61.3165 26.2106 61.3086 26.2898 61.3086 26.3691C61.2691 26.5356 61.2533 26.7021 61.2059 26.8685C61.2059 26.8765 61.2059 26.8765 61.2059 26.8844C61.1822 26.9399 61.1427 27.0192 61.1348 27.043C61.1032 27.1064 61.0637 27.1698 61.0321 27.2411C61.0084 27.2966 60.9926 27.3204 60.9847 27.3363C60.9136 27.4235 60.8188 27.5265 60.7951 27.5503C60.7872 27.5582 60.7081 27.6454 60.6449 27.7089C60.6291 27.7168 60.6212 27.7247 60.5975 27.7406C60.479 27.8199 60.3605 27.9071 60.2419 27.9863C60.234 27.9943 60.234 27.9943 60.2261 27.9943C60.2103 28.0022 60.2024 28.0022 60.1866 28.0101C60.0602 28.0656 59.9338 28.1052 59.8074 28.1449C59.7916 28.1528 59.7837 28.1528 59.7679 28.1528C59.7916 28.1528 59.8153 28.1449 59.8469 28.1449C59.7837 28.1449 59.7047 28.1687 59.6493 28.1766C59.515 28.1925 59.3807 28.2004 59.2464 28.2083C59.2385 28.2083 59.191 28.2162 59.1357 28.2162C59.1278 28.2162 59.1279 28.2162 59.12 28.2083C58.9856 28.1925 58.8513 28.1687 58.717 28.137C58.6538 28.1211 58.5747 28.0894 58.4957 28.0735C58.4957 28.0735 58.4957 28.0735 58.4878 28.0735C58.3693 28.0101 58.2429 27.9546 58.1244 27.8912C58.1165 27.8833 58.1086 27.8833 58.1007 27.8833C58.0611 27.8516 58.0296 27.8199 58.0138 27.8119C57.99 27.7961 57.8241 27.6296 57.7451 27.5582C57.7925 27.6137 57.8478 27.7009 57.7214 27.5345C57.7135 27.5345 57.7056 27.5186 57.7056 27.5186C57.6661 27.5186 57.674 27.5186 57.674 27.5186Z" fill="#1E1E1E"/>
<path d="M57.713 27.5502C57.6973 27.5345 57.6974 27.5345 57.6895 27.5266C57.6895 27.5188 57.6816 27.5188 57.6816 27.5188C57.6895 27.5267 57.6973 27.5345 57.713 27.5502Z" fill="#1E1E1E"/>
<path d="M78.2575 3.87906C79.6086 3.4034 81.181 3.70465 82.2398 4.68767C83.346 5.71826 83.6462 7.09765 83.4487 8.5484C83.3697 9.14297 82.9825 9.64241 82.4768 9.99915C82.2477 10.2925 81.979 10.562 81.663 10.7919C80.5015 11.6322 78.8659 11.6798 77.6175 10.9901C76.377 10.3004 75.5947 8.94478 75.6342 7.51782C75.6817 5.86888 76.7009 4.43399 78.2575 3.87906Z" fill="#FBB03B"/>
<path d="M97.2443 11.9967L98.6349 13.5584C99.109 14.0896 98.6349 15.0726 98.0581 15.1995C97.5682 15.3104 97.0783 15.4452 96.5885 15.6038C96.8097 15.9446 97.0309 16.2855 97.268 16.6106C97.6472 17.1338 97.3391 18.204 96.6912 18.2516C96.4541 18.2674 96.2171 18.3071 95.98 18.3626C96.304 18.9254 96.5726 19.5438 96.7702 20.2176C96.944 20.8201 96.6833 21.6129 96.0907 21.6763C95.7193 21.7159 95.348 21.7793 94.9766 21.8586C95.1899 22.1282 95.4033 22.4056 95.6087 22.6989C95.9169 23.1429 95.7983 24.0942 95.2215 24.2845C94.787 24.4271 94.3603 24.5698 93.9257 24.7125C94.2102 25.1406 94.4946 25.5608 94.7791 25.9889C95.1188 26.4962 94.9371 27.289 94.3919 27.5744C94.0363 27.7567 93.7044 27.7964 93.3568 27.7805C93.5938 28.2007 93.7835 28.6763 93.9178 29.2075C94.0442 29.7228 93.6175 30.46 93.1751 30.4521C92.4719 30.4521 91.7686 30.4442 91.0654 30.4442C90.1489 30.4442 90.2121 28.5812 91.1365 28.5812C91.3894 28.5812 91.6343 28.5812 91.8871 28.5812C91.7449 28.4147 91.5948 28.2562 91.421 28.1293C91.0259 27.8439 91.0022 27.1622 91.342 26.6786C91.6896 26.1791 92.1479 25.9334 92.6299 25.862C92.6457 25.862 92.6536 25.862 92.6694 25.862C92.4639 25.5529 92.2506 25.2437 92.0452 24.9345C91.7449 24.4906 91.8555 23.5393 92.4323 23.349C92.8353 23.2142 93.2383 23.0795 93.6413 22.9447C93.3963 22.6434 93.1356 22.3581 92.8669 22.0806C92.4797 21.6842 92.7405 20.6774 93.2541 20.4951C93.8309 20.289 94.4077 20.1225 94.9845 20.0036C94.7395 19.4962 94.4551 19.0285 94.0995 18.6083C93.7123 18.1485 93.981 17.2765 94.4867 17.0228C94.7475 16.888 95.0161 16.785 95.2847 16.6898C95.0714 16.349 94.866 16.0001 94.6763 15.6355C94.4314 15.1836 94.7396 14.3908 95.1662 14.2244C95.6008 14.0579 96.0353 13.9073 96.4699 13.7725C96.3593 13.6536 96.2566 13.5267 96.146 13.4078C95.506 12.6785 96.5885 11.2595 97.2443 11.9967Z" fill="#00A99D"/>
<path d="M94.3602 6.6059C94.4867 6.0589 94.1153 5.52775 93.4279 5.28199C92.5982 4.98075 91.7686 4.6795 90.9389 4.38618C87.7626 3.24461 84.3413 2.07133 80.8094 1.18344C78.921 0.707784 77.2222 0.358971 75.5866 0.121144C74.1564 -0.0929009 72.3865 -0.164249 71.3436 1.1438C70.8932 1.70666 70.6325 2.36465 70.3796 3.00678L70.3322 3.13362C70.0636 3.80746 69.8265 4.51302 69.6211 5.29785C69.2102 6.85958 68.9652 8.46095 68.7756 9.84828C68.5307 11.6003 68.2383 13.4395 67.8433 15.3024C67.9144 15.675 68.0092 16.0397 68.1277 16.3965C68.3331 17.0307 68.6966 18.2198 69.4077 18.4655C69.4946 18.4973 69.5895 18.5052 69.6685 18.4497C69.7554 18.3942 69.787 18.2911 69.8107 18.196C70.2058 16.6501 70.5851 15.0963 70.83 13.5187C70.9485 12.7815 71.0512 12.0363 71.1539 11.2911C71.3278 10.0465 71.5016 8.75427 71.7465 7.50171C71.9599 6.41564 72.2048 5.47226 72.4972 4.61608C72.671 4.10871 72.8527 3.64891 73.0581 3.22082L73.1135 3.09398C73.2557 2.79274 73.3979 2.47563 73.635 2.30915C74.0458 2.02376 74.8439 2.16646 75.4839 2.28537L75.7684 2.33294C76.8745 2.51527 78.0281 2.74517 79.2133 3.02263C83.6855 4.06907 88.0866 5.64666 91.9898 7.05777C91.9898 7.0657 91.9898 7.07362 91.9898 7.08155C92.0135 8.57194 91.7765 10.1495 91.2234 12.179C90.5281 14.7079 89.6984 17.2447 88.8925 19.7022L88.4026 21.1847C87.9997 22.4135 87.5967 23.6343 87.1858 24.8631C86.7038 22.7623 86.2297 20.6615 85.7477 18.5686C85.1946 16.1586 84.3887 13.1303 81.3546 13.1224C80.0508 13.1144 78.8499 13.7883 77.7674 14.4383C76.5901 15.1518 75.4365 15.897 74.3066 16.6739C73.9352 16.7611 73.6034 17.0069 73.39 17.324C72.5288 17.9344 71.6833 18.5686 70.8458 19.2187C70.5613 19.4406 70.5771 20.2175 70.672 20.5188C70.8063 20.9627 71.0828 21.3908 71.5332 21.5652C71.8413 21.6841 72.189 21.6762 72.4893 21.5414C72.7737 21.4225 73.0819 21.0975 73.3189 21.4622C73.4532 21.6683 73.4453 21.9537 73.5876 22.1598C73.8246 22.4928 74.1169 22.7861 74.4488 23.016C75.1994 23.5392 76.1713 23.6819 77.0326 23.3569C77.1195 23.3251 77.2064 23.2776 77.2933 23.2379C77.9807 24.9265 80.0114 25.6717 81.6786 25.0375C82.603 24.6887 83.2904 24.0862 83.8356 23.3569L85.1235 28.9934C85.1788 29.247 85.2895 29.4452 85.4238 29.6038C85.2421 29.5879 85.0445 29.5641 84.8707 29.5404C84.7364 29.5245 84.61 29.5007 84.5073 29.4928C83.97 29.4373 83.3773 29.3422 82.6978 29.2153C81.3704 28.9617 80.0904 28.6287 79 28.3274C78.4864 28.1848 77.9728 28.0421 77.4513 27.8994C76.3767 27.5981 75.2784 27.2889 74.1644 27.0115C74.0616 26.9877 73.951 26.9639 73.8483 26.9401C73.8325 26.9401 73.8246 26.9401 73.8088 26.9401C73.7851 26.9401 73.7693 26.948 73.7456 26.948C73.6429 26.9639 73.548 26.9956 73.4532 27.0273C73.4374 27.0353 73.4295 27.0353 73.4058 27.0432C73.3663 27.067 73.3268 27.0828 73.2952 27.1066C73.2794 27.1145 73.2715 27.1225 73.2636 27.1225C73.2636 27.1304 73.2557 27.1304 73.2478 27.1462C73.2241 27.17 73.2004 27.2017 73.1688 27.2255C73.1609 27.2334 73.1609 27.2414 73.153 27.2414C73.1372 27.2731 73.1135 27.3048 73.0898 27.3524C73.0819 27.3682 73.074 27.392 73.074 27.4079C73.0582 27.4475 73.0503 27.4871 73.0424 27.5347C73.0424 27.5505 73.0424 27.5664 73.0345 27.5823C73.0345 27.6377 73.0266 27.7012 73.0266 27.7567C73.0266 27.8756 73.0344 27.9549 73.0581 28.0421C73.066 28.0975 73.0819 28.1451 73.0977 28.1927C73.1056 28.2085 73.1293 28.2799 73.1372 28.3037C73.1767 28.3909 73.2241 28.4781 73.2794 28.5573C73.2873 28.5732 73.3031 28.5891 73.311 28.6049C73.3426 28.6446 73.3821 28.6842 73.4137 28.7238C73.4532 28.7635 73.4848 28.7952 73.5243 28.8269C73.5401 28.8427 73.5559 28.8507 73.5718 28.8665C73.6508 28.922 73.7298 28.9775 73.8088 29.0251C73.951 29.1123 74.0932 29.1757 74.2433 29.247C74.5041 29.3105 74.7649 29.3818 75.0019 29.4452C75.6182 29.6117 76.2266 29.7782 76.8429 29.9526C79.4267 30.6819 82.1131 31.4271 84.8628 31.6887L85.1394 31.7204C85.8584 31.7997 86.8381 31.9107 87.4386 31.3796C87.889 30.9832 88.0628 30.349 88.2209 29.794C88.2683 29.6276 88.3078 29.4769 88.3552 29.3342C88.8688 27.8439 89.3745 26.3614 89.8723 24.8631C90.8441 21.9537 91.8002 18.9888 92.7167 16.0556L92.8274 15.7068C93.6886 12.9638 94.5815 10.1178 94.5262 7.13705C94.5341 6.95471 94.4788 6.76445 94.3602 6.6059ZM82.524 19.5437C82.2554 20.2175 81.9867 20.8993 81.5837 21.5097C81.5442 21.5652 81.5284 21.5969 81.5126 21.6207C81.4968 21.6366 81.4731 21.6524 81.4336 21.6921C81.3309 21.7951 81.244 21.8982 81.1413 21.9933C81.1018 22.033 81.0859 22.0488 81.0701 22.0647C81.0543 22.0726 81.0306 22.0805 80.9911 22.1043C80.9595 22.1202 80.7778 22.2153 80.7699 22.2311C80.7067 22.2549 80.6514 22.2787 80.5882 22.2946C80.5645 22.3025 80.5566 22.3025 80.5408 22.3025C80.5171 22.2946 80.4301 22.3025 80.3669 22.3025C80.3116 22.2866 80.2405 22.2787 80.1852 22.2629C80.1457 22.2391 80.1141 22.2232 80.0746 22.1994C80.1062 22.2153 80.0667 22.1598 80.043 22.1519C80.0035 22.0567 79.9797 21.9616 80.0272 22.1598C79.9718 21.922 79.9244 21.6921 79.8296 21.4622C79.4266 20.4395 78.439 19.9084 77.3644 20.0828C76.914 20.1541 76.5427 20.3523 76.1318 20.5426C76.1239 20.5505 76.116 20.5505 76.1002 20.5584C76.0923 20.5584 76.0923 20.5584 76.0844 20.5505C76.0686 20.5346 76.0212 20.495 75.9817 20.4554C75.9659 20.4316 75.9343 20.3761 75.9027 20.3285C75.8948 20.2968 75.8552 20.17 75.8315 20.0986C75.8394 20.1066 75.8157 19.7815 75.8236 19.726C75.8236 19.6547 75.8315 19.5833 75.8315 19.512C75.8315 19.4961 75.8315 19.4961 75.8394 19.4723C75.8552 19.3614 75.879 19.2504 75.9027 19.1473C76.6533 18.64 77.396 18.1247 78.1624 17.6411C79.0237 17.0941 80.0035 16.3013 81.0227 16.0952C81.8682 15.9208 82.1842 16.5867 82.4134 17.3002C82.603 17.8789 82.7532 18.4814 82.8796 19.076C82.7295 19.2107 82.603 19.3614 82.524 19.5437Z" fill="#1E1E1E"/>
<path d="M74.4409 9.87216C75.3496 11.204 76.9536 12.0443 78.5813 11.7986C80.2406 11.5528 81.7102 10.4747 82.129 8.79401C82.3028 8.08053 82.287 7.28777 82.0579 6.59014C81.9393 6.2334 81.7813 5.87666 81.568 5.57541C81.2677 5.14732 80.9596 4.87779 80.5408 4.56861C80.367 4.44177 80.1457 4.39421 79.9245 4.38628C79.8376 4.29907 79.7428 4.21187 79.64 4.14845C78.0756 3.18129 75.8237 3.56974 74.6938 5.02841C73.6113 6.41574 73.4217 8.3897 74.4409 9.87216ZM76.9141 8.27872C76.8746 8.2153 76.8351 8.15188 76.8035 8.08845C76.7877 8.04882 76.7718 8.00918 76.7718 7.99332C76.7481 7.9299 76.7323 7.86648 76.7165 7.80306C76.7165 7.79513 76.7165 7.79513 76.7165 7.78721C76.7165 7.73964 76.7087 7.68415 76.7087 7.68415C76.7087 7.63658 76.7086 7.59694 76.7165 7.54938C76.7402 7.40668 76.7718 7.27191 76.8193 7.12922C76.8351 7.09751 76.8509 7.05787 76.8667 7.02616C76.8904 6.98652 76.9141 6.94688 76.9378 6.89932C76.9694 6.85968 77.0247 6.80419 77.0642 6.75662C77.1116 6.72491 77.1511 6.70113 77.1985 6.66942C77.2144 6.66149 77.2302 6.64564 77.246 6.63771C77.246 6.63771 77.2459 6.63771 77.2538 6.63771C77.3407 6.606 77.4356 6.58222 77.5225 6.55843C77.562 6.55843 77.5936 6.55051 77.6331 6.55051C77.6726 6.55051 77.7042 6.55051 77.7437 6.55843C77.8386 6.57429 77.9255 6.59807 78.0203 6.62185C78.0835 6.65356 78.1467 6.67735 78.202 6.71698C78.3995 6.8359 78.6129 6.89139 78.8262 6.89932C78.8973 6.96274 78.9763 7.03409 79.0633 7.09751C78.7393 6.85968 79 7.05787 79.0869 7.153L79.0948 7.16093C79.1344 7.22435 79.1739 7.28777 79.2134 7.35119C79.245 7.43839 79.2687 7.5256 79.2924 7.6128C79.3003 7.73171 79.2924 7.85063 79.2924 7.97747C79.2766 8.04882 79.2608 8.11224 79.245 8.18359C79.2055 8.25493 79.1739 8.32628 79.1343 8.39763C79.1185 8.42141 79.1028 8.43727 79.0791 8.46105C79.0396 8.50862 78.9921 8.54825 78.9526 8.58789C78.8657 8.64338 78.7867 8.69888 78.6998 8.74644C78.7235 8.73852 78.7314 8.73852 78.763 8.73059C78.7156 8.73852 78.6682 8.7623 78.6287 8.78608C78.6129 8.79401 78.5971 8.80194 78.5813 8.80194C78.5102 8.82572 78.4311 8.84157 78.36 8.86536C78.526 8.82572 78.3996 8.88121 78.2889 8.88914C78.281 8.88914 78.2731 8.88914 78.2652 8.88914C78.2415 8.89707 78.2257 8.89707 78.202 8.90499C78.2257 8.89707 78.2415 8.89707 78.2652 8.88914C78.2099 8.89707 78.1625 8.89707 78.1072 8.89707C78.044 8.89707 77.9808 8.88914 77.9176 8.88914C77.8069 8.86536 77.6963 8.84157 77.5936 8.80986C77.5146 8.77023 77.4356 8.73852 77.3565 8.69095C77.317 8.66717 77.2776 8.63546 77.238 8.61167C77.1511 8.5324 77.0642 8.4452 76.9852 8.36592C76.9457 8.33421 76.9299 8.3025 76.9141 8.27872Z" fill="#1E1E1E"/>
<path d="M78.6836 8.74634C78.6757 8.74634 78.6757 8.75423 78.6678 8.75423C78.6441 8.76212 78.6283 8.77 78.6126 8.77789C78.6047 8.78578 78.5889 8.78578 78.581 8.79367C78.5731 8.79367 78.5731 8.79367 78.5652 8.79367C78.5179 8.80945 78.5337 8.78578 78.6836 8.74634Z" fill="#1E1E1E"/>
<path d="M78.2495 8.88097C78.2811 8.87308 78.3126 8.86519 78.3442 8.8573C78.3126 8.86519 78.2811 8.87308 78.2495 8.88097Z" fill="#1E1E1E"/>
<path d="M1.57714 29.0377C1.0331 29.2726 0.740736 29.8911 0.914306 30.4724L1.16886 31.321C1.70311 33.0764 2.25526 34.8931 2.97303 36.5951C3.22663 37.2023 3.9232 37.4801 4.52842 37.2274L4.53569 37.2242C5.13051 36.9674 5.40909 36.2771 5.15549 35.6699C4.488 34.0844 3.95373 32.329 3.43422 30.6277L3.17653 29.7718C2.9841 29.1468 2.32041 28.7858 1.6973 28.9772C1.65692 29.0032 1.61341 29.022 1.57714 29.0377ZM7.06415 40.329C6.91907 40.3917 6.78655 40.4835 6.67386 40.6012C6.22942 41.0867 6.24584 41.8223 6.72094 42.2647C6.73133 42.2689 6.76468 42.3063 6.77822 42.3177C8.36911 43.7895 10.3965 44.8569 12.7853 45.466C13.4212 45.6232 14.0654 45.2414 14.2238 44.6117C14.3791 43.9748 13.9966 43.3282 13.3679 43.1679C11.3667 42.6592 9.68674 41.7784 8.36881 40.5601C8.00518 40.2163 7.49213 40.1442 7.06415 40.329ZM24.4908 40.325C24.4763 40.3312 24.469 40.3343 24.4545 40.3406C23.4111 40.8343 22.37 41.353 21.3527 41.8873C20.4153 42.3871 19.6062 42.8056 18.8537 43.096C18.2214 43.3258 17.946 44.0233 18.1819 44.6295C18.421 45.243 19.1094 45.5416 19.7136 45.3065C20.5677 44.9723 21.4534 44.5121 22.4561 43.9841C23.4371 43.4655 24.4492 42.9593 25.4563 42.4813C26.049 42.1994 26.3036 41.4936 26.021 40.899C25.7582 40.3303 25.0711 40.0744 24.4908 40.325ZM30.3149 37.8876C29.7419 38.1351 29.458 38.7931 29.6731 39.391C29.8977 40.0107 30.5851 40.327 31.1925 40.0992C33.1329 39.3908 35.1224 38.7562 37.1206 38.2215C37.7563 38.0592 38.1253 37.399 37.9546 36.7646C37.784 36.1303 37.1316 35.7557 36.4991 35.9252C34.4397 36.4777 32.3818 37.1333 30.3761 37.8698C30.3585 37.8688 30.3367 37.8782 30.3149 37.8876Z" fill="#1E1E1E"/>
</svg>
