<svg width="386" height="406" viewBox="0 0 386 406" fill="none" xmlns="http://www.w3.org/2000/svg">
<path d="M306.507 62.0866C346.125 80.5278 383.406 112.485 384.957 148.589C386.508 184.693 352.33 224.964 335.501 269.126C318.417 313.023 318.417 360.564 296.149 384.206C273.625 407.849 228.568 407.327 186.889 402.647C145.464 397.712 107.143 388.62 74.0053 368.622C40.6028 348.624 12.1291 317.712 3.32195 282.376C-5.74053 246.784 5.13837 206.779 19.1199 169.374C33.3567 131.97 50.706 97.1564 78.6691 74.8142C106.632 52.472 144.954 42.6013 185.082 40.5227C225.21 38.188 266.9 43.3795 306.507 62.0866Z" fill="#F8F8F8"/>
<path d="M374.545 26.7013C372.221 24.7975 369.354 23.8671 366.411 23.1943C365.671 22.7792 364.811 23.0655 364.343 23.7096C363.332 25.1124 362.517 26.6297 361.793 28.1756C361.4 29.0345 361.023 29.8933 360.646 30.7665C360.299 31.5824 359.816 32.4269 360.072 33.343C360.374 34.3879 361.37 34.7601 362.321 35.1323C363.196 35.4758 364.072 35.8194 364.962 36.1486C366.773 36.8213 368.599 37.4369 370.456 37.9951C370.923 38.1382 371.603 37.9951 371.919 37.6229C373.051 36.2917 373.338 34.6027 373.655 32.9565C373.972 31.3104 374.274 29.6643 374.923 28.0897C375.119 27.6603 374.923 27.0019 374.545 26.7013ZM364.404 32.8563C364.041 32.7132 363.679 32.5701 363.317 32.4269C363.287 32.4126 363.257 32.3983 363.226 32.384C363.453 31.8973 363.634 31.3534 363.83 30.8953C364.102 30.2512 364.389 29.6213 364.69 28.9915C365.173 28.0038 365.732 27.0448 366.32 26.1001C368.207 26.5581 370.108 27.1307 371.708 28.1899C371.316 29.3494 371.074 30.5374 370.848 31.7398C370.712 32.4699 370.561 33.1999 370.395 33.9299C370.335 34.2019 370.274 34.5311 370.169 34.846C368.976 34.4595 367.769 34.0873 366.592 33.6579C365.852 33.4146 365.128 33.1426 364.404 32.8563Z" fill="#00A99D"/>
<path d="M365.367 80.1208C365.81 77.1579 365.128 74.2661 364.184 71.45C364.16 70.6099 363.466 70.0468 362.666 70.0035C360.927 69.9156 359.191 70.053 357.477 70.2813C356.53 70.4165 355.591 70.5643 354.64 70.7198C353.753 70.8696 352.772 70.9216 352.112 71.6288C351.364 72.443 351.558 73.4739 351.729 74.4671C351.886 75.3819 352.042 76.2967 352.219 77.2164C352.576 79.0886 352.99 80.9427 353.469 82.791C353.588 83.2582 354.064 83.7474 354.55 83.8113C356.29 84.0384 357.901 83.3681 359.49 82.7461C361.079 82.1241 362.661 81.4895 364.361 81.1829C364.834 81.1153 365.302 80.5972 365.367 80.1208ZM354.779 74.9783C354.715 74.5992 354.652 74.2201 354.588 73.8411C354.584 73.8082 354.581 73.7753 354.578 73.7424C355.117 73.6692 355.681 73.5273 356.18 73.4443C356.878 73.324 357.572 73.224 358.274 73.1366C359.379 73.0075 360.499 72.9568 361.622 72.9389C362.204 74.7585 362.694 76.6523 362.607 78.5565C361.4 78.8536 360.246 79.2919 359.088 79.7505C358.385 80.0302 357.675 80.2974 356.957 80.552C356.69 80.6481 356.374 80.775 356.047 80.8565C355.763 79.6543 355.459 78.4472 355.22 77.2345C355.047 76.4869 354.907 75.7364 354.779 74.9783Z" fill="#DCDCDC"/>
<path d="M309.367 14.1208C309.81 11.1579 309.128 8.26607 308.184 5.45002C308.16 4.60993 307.466 4.04678 306.666 4.00348C304.927 3.9156 303.191 4.05297 301.477 4.28125C300.53 4.41647 299.591 4.56426 298.64 4.71976C297.753 4.86961 296.772 4.92161 296.112 5.62876C295.364 6.44301 295.558 7.47391 295.729 8.46706C295.886 9.38188 296.042 10.2967 296.219 11.2164C296.576 13.0886 296.99 14.9427 297.469 16.791C297.588 17.2582 298.064 17.7474 298.55 17.8113C300.29 18.0384 301.901 17.3681 303.49 16.7461C305.079 16.1241 306.661 15.4895 308.361 15.1829C308.834 15.1153 309.302 14.5972 309.367 14.1208ZM298.779 8.97828C298.715 8.59921 298.652 8.22013 298.588 7.84105C298.584 7.80818 298.581 7.77531 298.578 7.74243C299.117 7.66917 299.681 7.52732 300.18 7.44431C300.878 7.32402 301.572 7.22402 302.274 7.13661C303.379 7.00754 304.499 6.95681 305.622 6.93894C306.204 8.75853 306.694 10.6523 306.607 12.5565C305.4 12.8536 304.246 13.2919 303.088 13.7505C302.385 14.0302 301.675 14.2974 300.957 14.552C300.69 14.6481 300.374 14.775 300.047 14.8565C299.763 13.6543 299.459 12.4472 299.22 11.2345C299.047 10.4869 298.907 9.73644 298.779 8.97828Z" fill="#FBB03B"/>
</svg>
