<svg width="397" height="359" viewBox="0 0 397 359" fill="none" xmlns="http://www.w3.org/2000/svg">
<path d="M396.025 211.622C398.819 255.232 388.629 303.266 357.682 321.925C326.734 340.584 275.011 329.878 228.185 336.264C181.469 342.299 139.739 365.076 108.318 356.857C76.7744 348.413 55.646 308.614 39.7846 269.787C24.2704 231.062 13.8917 193.069 15.5688 154.401C17.1188 115.501 30.611 75.6976 57.4079 51.0377C84.3072 26.031 124.634 16.4137 164.165 10.7658C203.818 5.3419 242.688 3.89129 275.696 17.7321C308.704 31.5729 335.728 60.4811 356.778 94.7082C378.053 128.813 393.469 167.893 396.025 211.622Z" fill="#EDEDED"/>
<path d="M81.3734 206.156C81.8163 203.184 81.1347 200.282 80.191 197.457C80.1669 196.614 79.473 196.049 78.6728 196.006C76.934 195.917 75.1979 196.055 73.484 196.284C72.537 196.42 71.5979 196.568 70.6464 196.724C69.76 196.875 68.7785 196.927 68.1185 197.636C67.3705 198.453 67.5648 199.487 67.7357 200.484C67.8922 201.402 68.0487 202.32 68.2255 203.242C68.5822 205.121 68.9963 206.981 69.4757 208.835C69.5944 209.304 70.0705 209.795 70.557 209.859C72.2964 210.087 73.9073 209.414 75.4966 208.79C77.086 208.166 78.6675 207.53 80.3671 207.222C80.8406 207.154 81.3089 206.634 81.3734 206.156ZM70.7859 200.997C70.722 200.616 70.6581 200.236 70.5942 199.856C70.5909 199.823 70.5877 199.79 70.5844 199.757C71.1231 199.683 71.6879 199.541 72.1862 199.458C72.8846 199.337 73.5786 199.237 74.2803 199.149C75.3858 199.02 76.5056 198.969 77.6286 198.951C78.2104 200.776 78.7008 202.676 78.6134 204.587C77.4062 204.885 76.2525 205.325 75.0942 205.785C74.3918 206.066 73.6816 206.334 72.9635 206.589C72.6968 206.685 72.3805 206.813 72.0531 206.895C71.7694 205.688 71.4655 204.477 71.2268 203.261C71.054 202.51 70.9137 201.757 70.7859 200.997Z" fill="#FBB03B"/>
<path d="M31.3604 17.1676C31.8032 14.1949 31.1217 11.2935 30.178 8.46809C30.1538 7.62521 29.4599 7.0602 28.6597 7.01675C26.921 6.92858 25.1849 7.06641 23.4709 7.29545C22.524 7.43111 21.5848 7.57939 20.6333 7.73541C19.747 7.88575 18.7655 7.93793 18.1054 8.64742C17.3574 9.46437 17.5517 10.4987 17.7226 11.4951C17.8791 12.413 18.0357 13.3308 18.2124 14.2536C18.5691 16.132 18.9833 17.9922 19.4626 19.8467C19.5813 20.3154 20.0574 20.8062 20.5439 20.8703C22.2833 21.0982 23.8942 20.4257 25.4836 19.8016C27.0729 19.1776 28.6545 18.5409 30.354 18.2332C30.8275 18.1654 31.2958 17.6456 31.3604 17.1676ZM20.7729 12.008C20.7089 11.6277 20.645 11.2474 20.5811 10.867C20.5779 10.8341 20.5746 10.8011 20.5713 10.7681C21.11 10.6946 21.6748 10.5523 22.1731 10.469C22.8716 10.3483 23.5655 10.248 24.2672 10.1603C25.3727 10.0308 26.4925 9.97987 27.6155 9.96195C28.1973 11.7876 28.6877 13.6877 28.6003 15.5981C27.3931 15.8962 26.2394 16.3359 25.0812 16.796C24.3788 17.0767 23.6685 17.3448 22.9505 17.6003C22.6837 17.6967 22.3674 17.824 22.04 17.9058C21.7563 16.6996 21.4524 15.4885 21.2137 14.2717C21.0409 13.5216 20.9007 12.7687 20.7729 12.008Z" fill="#EDEDED"/>
<path d="M200.552 294.451C198.228 292.547 195.36 291.617 192.417 290.944C191.678 290.529 190.818 290.815 190.35 291.459C189.339 292.862 188.524 294.379 187.799 295.925C187.407 296.784 187.03 297.643 186.652 298.516C186.305 299.332 185.822 300.176 186.079 301.093C186.381 302.137 187.377 302.51 188.328 302.882C189.203 303.225 190.078 303.569 190.969 303.898C192.78 304.571 194.606 305.186 196.462 305.745C196.93 305.888 197.609 305.745 197.926 305.372C199.058 304.041 199.345 302.352 199.662 300.706C199.979 299.06 200.28 297.414 200.929 295.839C201.126 295.41 200.929 294.751 200.552 294.451ZM190.41 300.606C190.048 300.463 189.686 300.32 189.324 300.176C189.293 300.162 189.263 300.148 189.233 300.133C189.459 299.647 189.641 299.103 189.837 298.645C190.108 298.001 190.395 297.371 190.697 296.741C191.18 295.753 191.738 294.794 192.327 293.85C194.213 294.308 196.115 294.88 197.715 295.939C197.322 297.099 197.081 298.287 196.854 299.489C196.719 300.219 196.568 300.949 196.402 301.679C196.341 301.951 196.281 302.281 196.175 302.595C194.983 302.209 193.776 301.837 192.599 301.407C191.859 301.164 191.135 300.892 190.41 300.606Z" fill="#FBB03B"/>
<path d="M14.5454 49.4493C12.2213 47.5455 9.35379 46.6151 6.41086 45.9423C5.67135 45.5272 4.81111 45.8135 4.34326 46.4577C3.33209 47.8604 2.51713 49.3777 1.79271 50.9237C1.40032 51.7825 1.02302 52.6414 0.645719 53.5145C0.298604 54.3304 -0.18434 55.175 0.0722237 56.0911C0.374063 57.136 1.37014 57.5082 2.32093 57.8803C3.19627 58.2239 4.0716 58.5674 4.96203 58.8966C6.77307 59.5694 8.5992 60.1849 10.4555 60.7432C10.9234 60.8863 11.6025 60.7432 11.9194 60.371C13.0513 59.0398 13.3381 57.3507 13.655 55.7046C13.9719 54.0585 14.2738 52.4123 14.9227 50.8378C15.1189 50.4084 14.9227 49.7499 14.5454 49.4493ZM4.40362 55.6044C4.04142 55.4612 3.67921 55.3181 3.317 55.175C3.28682 55.1606 3.25663 55.1463 3.22645 55.132C3.45283 54.6453 3.63393 54.1014 3.83013 53.6433C4.10178 52.9992 4.38853 52.3694 4.69037 51.7396C5.17332 50.7519 5.73172 49.7928 6.32031 48.8481C8.2068 49.3062 10.1084 49.8787 11.7081 50.938C11.3158 52.0974 11.0743 53.2855 10.8479 54.4879C10.7121 55.2179 10.5612 55.9479 10.3951 56.6779C10.3348 56.9499 10.2744 57.2791 10.1688 57.594C8.97649 57.2076 7.76914 56.8354 6.59196 56.406C5.85246 56.1626 5.12804 55.8907 4.40362 55.6044Z" fill="#FBB03B"/>
<path d="M176.374 274.818C176.816 271.845 176.135 268.943 175.191 266.118C175.167 265.275 174.473 264.71 173.673 264.667C171.934 264.578 170.198 264.716 168.484 264.945C167.537 265.081 166.598 265.229 165.646 265.385C164.76 265.536 163.779 265.588 163.119 266.297C162.371 267.114 162.565 268.149 162.736 269.145C162.892 270.063 163.049 270.981 163.226 271.903C163.582 273.782 163.996 275.642 164.476 277.497C164.594 277.965 165.071 278.456 165.557 278.52C167.296 278.748 168.907 278.076 170.497 277.452C172.086 276.827 173.668 276.191 175.367 275.883C175.841 275.815 176.309 275.296 176.374 274.818ZM165.786 269.658C165.722 269.278 165.658 268.897 165.594 268.517C165.591 268.484 165.588 268.451 165.585 268.418C166.123 268.344 166.688 268.202 167.186 268.119C167.885 267.998 168.579 267.898 169.28 267.81C170.386 267.681 171.506 267.63 172.629 267.612C173.21 269.437 173.701 271.338 173.614 273.248C172.406 273.546 171.253 273.986 170.094 274.446C169.392 274.727 168.682 274.995 167.964 275.25C167.697 275.347 167.381 275.474 167.053 275.556C166.77 274.349 166.466 273.138 166.227 271.922C166.054 271.172 165.914 270.419 165.786 269.658Z" fill="#F8F8F8"/>
<path d="M60.3734 347.056C60.8163 344.084 60.1347 341.182 59.191 338.357C59.1669 337.514 58.473 336.949 57.6728 336.905C55.934 336.817 54.1979 336.955 52.484 337.184C51.537 337.32 50.5979 337.468 49.6464 337.624C48.76 337.774 47.7785 337.827 47.1185 338.536C46.3705 339.353 46.5648 340.387 46.7357 341.384C46.8922 342.302 47.0487 343.22 47.2255 344.142C47.5822 346.021 47.9963 347.881 48.4757 349.735C48.5944 350.204 49.0705 350.695 49.557 350.759C51.2964 350.987 52.9073 350.314 54.4966 349.69C56.086 349.066 57.6675 348.43 59.3671 348.122C59.8406 348.054 60.3089 347.534 60.3734 347.056ZM49.7859 341.897C49.722 341.516 49.6581 341.136 49.5942 340.756C49.5909 340.723 49.5877 340.69 49.5844 340.657C50.1231 340.583 50.6879 340.441 51.1862 340.358C51.8846 340.237 52.5786 340.137 53.2803 340.049C54.3858 339.919 55.5056 339.869 56.6286 339.851C57.2104 341.676 57.7008 343.576 57.6134 345.487C56.4062 345.785 55.2525 346.225 54.0942 346.685C53.3918 346.965 52.6816 347.234 51.9635 347.489C51.6968 347.585 51.3805 347.713 51.0531 347.794C50.7694 346.588 50.4655 345.377 50.2268 344.16C50.054 343.41 49.9137 342.657 49.7859 341.897Z" fill="#00A99D"/>
<path d="M83.3604 14.1676C83.8032 11.1949 83.1217 8.29347 82.178 5.46809C82.1538 4.62521 81.4599 4.0602 80.6597 4.01675C78.921 3.92858 77.1849 4.06641 75.4709 4.29545C74.524 4.43111 73.5848 4.57939 72.6333 4.73541C71.747 4.88575 70.7655 4.93793 70.1055 5.64742C69.3574 6.46437 69.5517 7.49869 69.7226 8.49513C69.8791 9.41298 70.0357 10.3308 70.2124 11.2536C70.5691 13.132 70.9833 14.9922 71.4626 16.8467C71.5813 17.3154 72.0574 17.8062 72.5439 17.8703C74.2833 18.0982 75.8942 17.4257 77.4836 16.8016C79.0729 16.1776 80.6545 15.5409 82.354 15.2333C82.8275 15.1654 83.2958 14.6456 83.3604 14.1676ZM72.7729 9.00805C72.709 8.62771 72.645 8.24738 72.5811 7.86705C72.5779 7.83407 72.5746 7.80108 72.5713 7.7681C73.11 7.69459 73.6748 7.55228 74.1731 7.46898C74.8716 7.3483 75.5655 7.24797 76.2673 7.16027C77.3727 7.03078 78.4925 6.97987 79.6155 6.96195C80.1973 8.78756 80.6877 10.6877 80.6003 12.5981C79.3931 12.8962 78.2394 13.3359 77.0812 13.796C76.3788 14.0767 75.6685 14.3448 74.9505 14.6003C74.6837 14.6967 74.3674 14.824 74.04 14.9058C73.7563 13.6996 73.4524 12.4885 73.2137 11.2717C73.0409 10.5216 72.9007 9.76871 72.7729 9.00805Z" fill="#00A99D"/>
<path d="M272.367 147.168C272.81 144.195 272.128 141.293 271.184 138.468C271.16 137.625 270.466 137.06 269.666 137.017C267.927 136.929 266.191 137.066 264.477 137.295C263.53 137.431 262.591 137.579 261.64 137.735C260.753 137.886 259.772 137.938 259.112 138.647C258.364 139.464 258.558 140.499 258.729 141.495C258.886 142.413 259.042 143.331 259.219 144.254C259.576 146.132 259.99 147.992 260.469 149.847C260.588 150.315 261.064 150.806 261.55 150.87C263.29 151.098 264.901 150.426 266.49 149.802C268.079 149.178 269.661 148.541 271.361 148.233C271.834 148.165 272.302 147.646 272.367 147.168ZM261.779 142.008C261.715 141.628 261.652 141.247 261.588 140.867C261.584 140.834 261.581 140.801 261.578 140.768C262.117 140.695 262.681 140.552 263.18 140.469C263.878 140.348 264.572 140.248 265.274 140.16C266.379 140.031 267.499 139.98 268.622 139.962C269.204 141.788 269.694 143.688 269.607 145.598C268.4 145.896 267.246 146.336 266.088 146.796C265.385 147.077 264.675 147.345 263.957 147.6C263.69 147.697 263.374 147.824 263.047 147.906C262.763 146.7 262.459 145.488 262.22 144.272C262.047 143.522 261.907 142.769 261.779 142.008Z" fill="#00A99D"/>
</svg>
