<svg width="141" height="148" viewBox="0 0 141 148" fill="none" xmlns="http://www.w3.org/2000/svg">
<path d="M139.6 130.55C139.34 127.69 136.79 126.29 134.21 127.45C127.04 130.69 119.32 133.01 111.39 132.86C103.41 132.71 96.7 129.06 89.25 126.77C74.64 122.29 59.41 125.71 45.49 130.93C43.4 131.71 42.78 133.76 43.19 135.47C41.85 137.33 42.75 140.47 45.15 141.08C54.6 143.48 64.35 143.79 74.03 144.33C84.52 144.91 95.01 145.46 105.51 145.79C110.72 145.95 115.93 146.03 121.14 146.11C125.18 146.17 130.46 147.68 134.34 146.73C141.35 145.03 140.07 135.75 139.6 130.55Z" fill="#00A99D"/>
<path d="M61.74 39.51C61.68 39.45 61.61 39.38 61.53 39.31C61.5 39.24 61.46 39.17 61.43 39.1C61.42 39.06 61.4 39.02 61.38 38.95C61.23 38.45 61.09 37.96 60.99 37.45C60.72 36.07 59.34 35.06 58.05 34.88C56.78 34.71 55.09 35.3 54.52 36.59C53.84 38.15 52.99 39.61 51.98 40.98C50.87 42.49 51.69 45.05 53.25 45.89C54.8 46.72 56.31 46.38 57.45 45.31C57.98 45.66 58.6 45.87 59.28 45.84C61.14 45.76 62.89 44.26 62.82 42.25C62.8 41.21 62.47 40.26 61.74 39.51Z" fill="#00A99D"/>
<path d="M32.97 92.33C23.68 90.77 13.3 92.43 3.9 92.75C-0.639999 92.91 -0.659999 100.08 3.9 99.93C8.52 99.77 13.15 99.61 17.77 99.46C22.09 99.31 26.82 98.54 31.08 99.26C35.54 99.99 37.46 93.08 32.97 92.33Z" fill="#00A99D"/>
<path d="M97.21 95.1C96.38 94.98 95.58 95.09 94.8 95.18C94.39 94.58 94.03 93.94 93.67 93.34C92.65 91.65 90.35 91.12 88.76 92.06C87.69 89.99 84.83 88.93 83.05 90.94C82.14 91.97 81.28 93.1 80.77 94.4C79.95 94.26 78.05 94.42 77.59 94.41C73.03 94.3 73.04 101.48 77.59 101.59C79.75 101.64 82.85 102.27 84.84 101.09C85.01 100.99 85.14 100.87 85.29 100.75C85.72 101.1 86.22 101.38 86.8 101.55C88.19 101.95 89.35 101.71 90.33 101.11C90.65 101.42 90.99 101.7 91.36 101.91C92.1 102.32 93.07 102.52 93.91 102.49C94.12 102.48 96.38 102.18 95.33 102.02C99.78 102.67 101.7 95.76 97.21 95.1Z" fill="#00A99D"/>
<path d="M129.18 82.68C127.68 82.4 126 82.02 124.49 82.43C123.99 82.57 123.47 82.63 123.31 82.76C123.03 82.44 122.73 82.08 122.42 81.9C120.36 80.68 118.06 81.38 115.91 82.17C112.19 79.54 106.22 79.29 104.17 84C103.06 86.55 104.36 89.2 107.23 89.4C109.4 89.55 111.56 89.6 113.73 89.57C114.45 89.9 115.26 90 116.03 89.74C117.04 89.4 118.11 89.11 119.11 88.73C119.39 88.97 119.69 89.18 120.01 89.35C122.51 90.82 124.66 89.12 127.31 89.61C131.75 90.42 133.66 83.51 129.18 82.68Z" fill="#00A99D"/>
<path d="M25.31 59.13C24.52 48.18 14.15 45.66 5.09 46.07C0.55 46.27 0.53 53.45 5.09 53.25C9.91 53.03 17.02 52.8 18.18 58.93C18.75 61.96 17.91 64.58 14.79 64.88C11.83 65.16 8.85 65.21 5.88 65.17C1.32 65.1 1.32 72.28 5.88 72.35C10.4 72.42 17.35 73.15 21.22 70.29C24.47 67.88 25.58 63 25.31 59.13Z" fill="#FBB03B"/>
<path d="M15.75 120.64C12.96 117 7.98 122.11 10.75 125.71C11.98 127.32 16.45 131.58 16.27 133.71C16.2 134.56 14.57 136.77 14.15 137.52C13.21 139.21 12.26 140.91 11.32 142.6C9.08 146.63 15.19 150.25 17.43 146.22C19.49 142.53 23.69 137.53 23.52 133.11C23.33 128.49 18.39 124.09 15.75 120.64Z" fill="#FBB03B"/>
<path d="M61.82 84.13C61.54 84.19 61.28 84.27 61.03 84.37C60.03 83.96 58.88 83.93 58 84.59C53.99 87.61 52.47 93.62 56.22 97.61C57.94 99.43 60.85 100.75 63.33 100.31C65.9 99.86 68.03 98.06 69.12 95.67C71.29 90.92 67.9 82.86 61.82 84.13Z" fill="#FBB03B"/>
<path d="M128.77 38.42C126.5 33.9 120.63 31.33 115.89 30.58C110.11 29.67 106.62 33.66 104.4 38.58C102.76 42.22 107.18 45.45 109.6 43.44C111.77 43.65 114.03 43.33 116.22 43.55C119.38 43.87 122.54 43.94 125.72 43.82C128.48 43.72 130 40.8799 128.77 38.42Z" fill="#FBB03B"/>
<path d="M76.14 27.01C74.84 25.81 72.88 25.12 71.14 25.66C70.47 25.87 69.91 26.2 69.45 26.62C69.02 26.91 68.62 27.29 68.27 27.75C66.58 29.98 66.37 33.7 68.51 35.71C70.72 37.79 74.29 37.43 76.24 35.15C77.25 33.97 77.95 32.55 77.95 30.96C77.94 29.46 77.22 28.01 76.14 27.01Z" fill="#FBB03B"/>
<path d="M119.75 56.22C119.42 56.18 119.12 56.12 118.82 56.06C119.55 55.76 120.28 55.47 120.95 55.08C123.02 53.88 124.67 51.79 123.21 49.63C121.94 47.74 119.53 47.7 117.31 47.64C114.49 47.57 111.66 47.59 108.84 47.69C104.3 47.85 104.28 54.01 108.84 53.85C109.22 53.84 109.59 53.83 109.97 53.82C109.68 54.09 109.41 54.38 109.19 54.69C108.58 55.55 108.48 56.95 109.19 57.8C109.83 58.57 110.72 59.28 111.71 59.91C111.58 61.78 113.35 63.87 116.12 63.34C117.7 63.03 119.17 62.52 120.6 61.86C123.09 60.7 122.82 56.6 119.75 56.22Z" fill="#00A99D"/>
<path d="M77.56 114.84C77.53 114.82 77.5 114.81 77.46 114.79C77.46 114.79 77.45 114.79 77.45 114.78C77.55 114.84 77.58 114.85 77.56 114.84Z" fill="#1E1E1E"/>
<path d="M139.29 79.44C139.33 78.66 138.88 78.19 138.32 78.03C138.08 77.72 137.73 77.48 137.25 77.42C113.6 74.3 89.7 74.35 65.91 75.13C59.12 75.35 48.95 75.71 42.16 75.99C40.93 76.04 40.48 77.29 40.8 78.18C41.23 95.8 41.63 113.16 40.87 130.73C40.67 135.41 40.65 140.09 40.87 144.76C40.04 145.62 40.38 147.45 41.89 147.4C66.57 146.61 91.26 146.46 115.94 146.96C122.99 147.1 130.04 147.3 137.09 147.55C138.14 147.59 138.62 146.71 138.54 145.88C138.56 145.76 138.58 145.63 138.58 145.49C138.09 128.38 138.12 111.27 138.68 94.16C138.84 89.25 139.04 84.34 139.29 79.44ZM63.05 143.8C56.66 143.91 50.27 144.07 43.89 144.27C43.73 140.47 43.74 136.68 43.86 132.9C54.91 125.86 68.44 124.62 81.08 126.87C87.7 128.05 93.91 130.37 100.34 132.29C106.14 134.01 112.19 134.66 118.21 134.01C124.18 133.37 129.97 131.6 135.25 128.74C135.26 129.41 135.25 130.09 135.26 130.76C135.31 135.32 135.4 139.87 135.53 144.42C111.37 143.6 87.21 143.38 63.05 143.8ZM61.87 123.27C62.1 121.92 62.57 120.56 63.4 119.51C64.44 118.19 66.17 117.89 67.73 117.72C69.29 117.56 70.98 117.43 72.18 118.63C73.31 119.76 73.74 121.36 74.08 122.91C70.04 122.63 65.98 122.71 61.95 123.25C61.92 123.27 61.9 123.27 61.87 123.27ZM77.43 114.77C77.44 114.78 77.45 114.78 77.46 114.79C77.5 114.8 77.54 114.83 77.56 114.84C77.57 114.85 77.58 114.85 77.59 114.86C77.69 114.92 77.79 114.99 77.89 115.04C77.93 115.07 77.97 115.11 77.98 115.12C78.07 115.21 78.16 115.31 78.25 115.4C78.27 115.43 78.29 115.46 78.31 115.49C78.37 115.58 78.43 115.68 78.48 115.78C78.49 115.8 78.52 115.86 78.55 115.92C78.59 116.03 78.63 116.14 78.66 116.25C78.69 116.35 78.71 116.46 78.73 116.56C78.73 116.61 78.74 116.66 78.74 116.68C78.75 116.81 78.75 116.94 78.74 117.08C78.74 117.11 78.74 117.15 78.73 117.18C78.72 117.23 78.57 117.7 78.53 117.84C78.51 117.88 78.49 117.93 78.46 117.97C78.4 118.09 78.33 118.2 78.26 118.31C78.24 118.35 78.23 118.35 78.22 118.37C78.19 118.4 78.16 118.44 78.15 118.45C78.05 118.56 77.95 118.67 77.84 118.77C77.8 118.81 77.76 118.84 77.72 118.88C77.61 118.96 77.5 119.03 77.38 119.1C77.36 119.11 77.15 119.22 77.07 119.26C77 119.28 76.93 119.31 76.85 119.33C76.79 119.35 76.72 119.37 76.66 119.38C76.65 119.38 76.59 119.39 76.54 119.4C76.49 119.4 76.43 119.41 76.41 119.41C76.33 119.41 76.25 119.4 76.18 119.4C75.72 118.24 75.09 117.17 74.16 116.31C74.18 116.27 74.2 116.23 74.22 116.21C74.28 116.09 74.35 115.97 74.42 115.85C74.45 115.8 74.48 115.75 74.52 115.7C74.53 115.68 74.53 115.67 74.54 115.66C74.59 115.59 74.67 115.51 74.72 115.46C74.81 115.36 74.91 115.26 75.01 115.17C75.02 115.16 75.04 115.14 75.07 115.11C75.08 115.1 75.09 115.1 75.12 115.08C75.23 115.01 75.35 114.93 75.47 114.87C75.52 114.84 75.58 114.81 75.63 114.79C75.64 114.79 75.65 114.78 75.66 114.78C75.69 114.77 75.71 114.76 75.72 114.76C75.8 114.74 75.88 114.71 75.96 114.69C76.02 114.67 76.08 114.66 76.14 114.65C76.16 114.65 76.22 114.63 76.26 114.63C76.27 114.63 76.28 114.63 76.28 114.63C76.36 114.63 76.44 114.62 76.53 114.62C76.65 114.62 76.78 114.63 76.9 114.63C76.9 114.63 76.92 114.63 76.93 114.63C76.97 114.64 77.03 114.65 77.05 114.66C77.19 114.69 77.33 114.74 77.46 114.78C77.44 114.78 77.44 114.78 77.43 114.77ZM79.04 121.68C79.17 121.87 79.28 122.07 79.38 122.28C79.46 122.51 79.53 122.75 79.57 122.99C79.59 123.17 79.59 123.35 79.59 123.54C78.8 123.43 78 123.32 77.2 123.23C77.2 123.12 77.19 123 77.16 122.88C77.13 122.74 77.1 122.6 77.07 122.46C77.76 122.34 78.43 122.06 79.04 121.68ZM135.24 125.21C128.66 129.1 121.28 131.06 113.83 131.1C113.81 128.29 113.81 125.49 113.86 122.68C113.88 121.26 113.91 119.84 113.95 118.42C113.97 117.75 113.99 117.08 114.01 116.42C114.02 116.17 114.04 115.9 114.04 115.64C114.11 115.64 114.19 115.64 114.31 115.65C119.03 115.86 124.59 113.97 126.81 109.46C128.92 105.19 128.2 100.25 124.93 96.88C121.48 93.32 114.95 92.11 110.16 92.54C107.65 92.77 104.98 93.44 102.64 94.66C102.41 94.5 102.13 94.4 101.77 94.4L98.91 94.42C98.15 94.43 96.96 94.23 96.2 94.42C96.25 94.11 96.18 93.74 96.13 93.44C96 92.66 95.68 91.93 95.18 91.32C93.81 89.63 91.46 89.51 89.91 90.64C88.26 88.72 86.14 87.17 83.45 87.77C80.6 88.41 79.44 91.11 79.16 93.77C77.19 93.56 75.15 93.67 73.58 95.04C71.95 96.47 71.18 99.04 72.51 100.94C72.6 101.07 72.7 101.17 72.81 101.26C72.99 101.81 73.45 102.26 74.19 102.27L96.57 102.39C96.17 105.57 97.69 108.74 100.83 110.28C105.33 112.48 110.87 112.69 115.66 111.5C117.88 110.95 120.11 109.79 121.79 108.16C123.37 106.63 123.3 103.93 122.19 101.89C120.96 99.64 118.9 99.17 116.59 98.71C113.99 98.19 111.01 98.07 108.46 98.93C106.2 99.69 104.24 101.87 105.12 104.43C106 106.99 109.67 107.33 111.92 107.22C113.86 107.13 113.87 104.05 111.92 104.14C111.16 104.18 107.21 104.22 108.11 102.68C108.89 101.33 111.66 101.4 112.96 101.4C114.9 101.41 122.31 102.8 119.38 106.3C118.19 107.71 116.78 108.03 115.08 108.47C113.2 108.96 111.27 109.17 109.32 109.11C106.35 109.03 100.92 108.41 99.73 105.04C98.47 101.47 101.73 98.51 104.56 97.14C108.08 95.44 112.29 95.07 116.06 96.08C119.49 96.99 123.38 99.16 124.37 102.79C125.32 106.29 122.84 110.03 119.74 111.66C117.81 112.67 116.04 112.53 113.96 112.56C113.08 112.57 112.22 112.8 111.63 113.49C110.93 114.31 110.99 115.39 110.95 116.41C110.8 121.27 110.75 126.13 110.78 131C107.39 130.78 104 130.18 100.68 129.17C94.63 127.33 88.75 125.22 82.54 124.03C82.57 123.92 82.61 123.81 82.61 123.69C82.71 122.14 82.12 120.56 81.1 119.41C81.64 118.36 81.85 117.18 81.66 115.95C81.43 114.44 80.47 112.99 79.16 112.24C77.58 111.34 75.68 111.38 74.07 112.16C72.95 112.71 72.04 113.72 71.49 114.87C70.21 114.53 68.84 114.53 67.46 114.69C65.16 114.95 62.81 115.49 61.23 117.35C59.72 119.13 58.98 121.49 58.73 123.81C53.56 124.83 48.56 126.6 43.98 129.24C44.58 117.18 42.76 105.24 43.49 93.19C43.77 88.47 43.91 83.73 43.82 79C64.26 78.15 88.13 77.27 108.58 78.1C108.01 78.15 107.44 78.24 106.91 78.39C105.03 78.91 103.27 80.1 102.38 81.89C101.34 83.96 101.6 86.28 102.03 88.48C101.58 89.39 102.01 90.77 103.32 90.79L128.07 91.1C129.56 91.12 131.25 91.23 132.34 90.01C133.27 88.97 133.33 87.38 132.73 86.15C132.08 84.81 130.74 84.05 129.34 83.74C128.46 83.55 127.54 83.48 126.64 83.43C126.06 83.4 125.2 83.53 124.49 83.5C124.43 83.21 124.38 82.89 124.3 82.67C124.06 82.03 123.71 81.46 123.26 80.95C122.43 79.99 121.27 79.35 120.02 79.17C118.37 78.93 116.83 79.51 115.69 80.58C114.57 79.34 112.97 78.57 111.27 78.25C113.18 78.34 115.09 78.42 117 78.55C123.42 78.96 129.82 79.57 136.2 80.38C135.49 95.3 135.17 110.25 135.24 125.21ZM84.26 90.74C86.2 90.41 87.7 92.6 88.64 93.96C89.35 94.99 91.07 94.96 91.41 93.59C91.67 92.53 92.83 92.9 93.1 93.76C93.44 94.86 92.74 95.9 93.72 96.88C94.57 97.73 95.93 97.52 97.01 97.51C97.65 97.5 98.28 97.5 98.92 97.49C98.53 97.92 98.18 98.39 97.86 98.88C97.76 99.03 97.68 99.18 97.6 99.34C97.5 99.32 97.4 99.31 97.29 99.31C89.88 99.27 82.46 99.23 75.05 99.19C74.66 98.39 75.21 97.5 75.98 97.09C77.23 96.42 78.91 96.78 80.23 97C81.16 97.16 82.18 96.6 82.15 95.52C82.08 93.92 82.18 91.09 84.26 90.74ZM114.12 83.81C114.54 85.35 116.56 85.19 117.04 83.81C117.54 82.4 119.23 81.71 120.5 82.53C121.87 83.43 121.28 85.34 122.61 86.17C123.33 86.62 124.19 86.48 124.99 86.46C126.04 86.44 127.14 86.45 128.18 86.61C128.75 86.7 129.66 86.83 129.98 87.4C130.38 88.1 129.8 88.01 129.26 88.02C121.17 88.11 113.07 87.85 104.98 87.73C104.7 86.39 104.46 84.92 104.94 83.63C105.4 82.39 106.51 81.68 107.73 81.34C109.89 80.75 113.43 81.26 114.12 83.81Z" fill="#1E1E1E"/>
<path d="M66.82 88.9199C65.63 85.6999 62.32 83.5299 58.92 83.8699C58.55 83.9099 58.21 84.0499 57.94 84.2699C57.91 84.1799 57.88 84.0999 57.83 84.0199C57.37 83.2299 56.51 83.1399 55.75 83.4699C54.2 84.1399 53.09 85.2499 52.41 86.8099C51.75 88.3399 51.43 90.0199 51.6 91.6899C51.93 94.8799 53.84 97.6399 56.79 98.8699C59.52 99.9999 62.7 99.2899 64.87 97.3099C67.12 95.2599 67.87 91.7599 66.82 88.9199ZM63.32 94.5199C62.17 95.9999 60.17 96.6599 58.49 96.2099C56.66 95.7199 55.24 94.1799 54.76 92.2599C54.46 91.0499 54.58 89.7899 54.96 88.6199C55.13 88.1099 55.36 87.5599 55.7 87.1499C56.11 86.6499 56.71 86.3799 57.28 86.1299C57.37 86.0899 57.44 86.0399 57.51 85.9899C57.74 86.5499 58.29 87.0199 58.91 86.9599C60.76 86.7799 62.63 87.5599 63.61 89.2199C64.58 90.8299 64.45 93.0599 63.32 94.5199Z" fill="#1E1E1E"/>
<path d="M34.17 120.79C34.17 120.72 34.16 120.66 34.15 120.59C34.13 119.83 33.65 119.11 32.69 119.14C22.44 119.45 12.18 119.47 1.93 119.19C1.66 119.18 1.43 119.24 1.24 119.33C0.58 119.43 0 119.92 0 120.79C0.01 128.94 0.32 137.08 0.92 145.21C0.7 145.99 1.03 146.95 1.91 147.18C2.29 147.34 2.72 147.36 3.09 147.25L32.58 147.55C33.01 147.55 33.35 147.4 33.59 147.17C34.04 146.95 34.38 146.52 34.37 145.86C34.37 137.5 34.3 129.14 34.17 120.79ZM3.05 122.28C4.56 122.32 6.07 122.34 7.58 122.37C9.43 126.17 11.82 129.69 14.68 132.78C15.01 133.14 15.4 133.71 15.82 133.96C15.88 134.05 15.92 134.11 15.96 134.16C15.85 134.37 15.75 134.58 15.64 134.79C15.09 135.87 14.53 136.94 13.96 138C12.83 140.11 11.67 142.19 10.47 144.26L3.88 144.19C3.37 136.89 3.09 129.59 3.05 122.28ZM16.93 144.32L13.96 144.29C14.97 142.52 15.96 140.74 16.91 138.95C17.96 136.96 20.11 134.33 18.34 132.21C16.81 130.37 15.1 128.76 13.71 126.79C12.72 125.39 11.82 123.93 11.01 122.41C11.91 122.42 12.8 122.43 13.7 122.43C13.72 122.46 13.73 122.48 13.74 122.51C16.32 126.3 19.1 129.95 22.09 133.41C22.19 133.52 22.28 133.63 22.38 133.74C22.03 134.16 21.8 134.89 21.55 135.38C21.06 136.35 20.56 137.31 20.07 138.28C19.04 140.3 17.99 142.31 16.93 144.32ZM20.34 144.35C21.2 142.71 22.06 141.07 22.91 139.42C23.51 138.25 24.11 137.07 24.7 135.9C25.19 134.94 25.84 133.96 25.42 132.85C25.04 131.85 24.05 131.02 23.37 130.22C22.56 129.26 21.76 128.28 20.98 127.29C19.74 125.71 18.56 124.09 17.4 122.44C21.98 122.43 26.56 122.37 31.15 122.24C31.26 129.65 31.32 137.05 31.33 144.46L20.34 144.35Z" fill="#1E1E1E"/>
<path d="M34.17 46.7899C34.17 46.7199 34.16 46.6599 34.15 46.5899C34.13 45.8299 33.65 45.1099 32.69 45.1399C22.44 45.4499 12.18 45.4699 1.93 45.1899C1.66 45.1799 1.43 45.2399 1.24 45.3299C0.58 45.4399 0 45.9199 0 46.7899C0.01 54.9399 0.32 63.0799 0.92 71.2099C0.7 71.9899 1.03 72.9499 1.91 73.1799C2.29 73.3399 2.72 73.3599 3.09 73.2499L32.58 73.5499C33.01 73.5499 33.35 73.3999 33.59 73.1699C34.04 72.9499 34.38 72.5199 34.37 71.8599C34.37 63.4999 34.3 55.1499 34.17 46.7899ZM3.13 53.9499C5.52 53.9399 7.88 54.1899 10.21 54.7699C12.3 55.2899 14.95 55.8999 16.39 57.6599C17.46 58.9699 18.16 61.3799 17.34 62.9699C16.39 64.8199 13.62 65.3499 11.78 65.5199C9.09 65.7599 6.29 65.6699 3.58 65.4099C3.37 61.5999 3.22 57.7799 3.13 53.9499ZM15.94 70.3099L3.89 70.1899C3.85 69.6299 3.82 69.0699 3.79 68.5099C6.57 68.7699 9.47 68.8699 12.23 68.5599C15 68.2499 18.01 67.3699 19.7 64.9499C21.26 62.7199 20.82 59.4299 19.64 57.1199C18.3 54.4799 15.76 53.2799 13.1 52.4099C9.88 51.3499 6.47 50.8599 3.09 50.8899C3.08 50.0199 3.06 49.1599 3.05 48.2899C4.59 48.3299 6.13 48.3499 7.67 48.3799C7.79 48.4199 7.91 48.4499 8.05 48.4699C11.41 48.8399 15.15 48.8199 18.26 50.2999C20.75 51.4799 22.94 53.5099 23.99 56.1199C25.22 59.1799 24.76 63.1299 23.43 66.0899C22.03 69.1799 18.97 69.8199 15.94 70.3099ZM24 70.3899C24.82 69.6599 25.52 68.7599 26.05 67.6299C27.71 64.0699 28.34 59.3899 27.04 55.6199C26 52.6099 23.85 50.0899 21.19 48.4199C24.51 48.3899 27.83 48.3399 31.15 48.2499C31.26 55.6599 31.32 63.0599 31.33 70.4699L24 70.3899Z" fill="#1E1E1E"/>
<path d="M33.45 84.48C33.67 83.7 33.34 82.74 32.46 82.51C32.08 82.35 31.65 82.33 31.28 82.44L1.79 82.14C1.36 82.14 1.02 82.29 0.78 82.52C0.34 82.74 0 83.18 0 83.83C0.01 92.19 0.08 100.54 0.21 108.9C0.21 108.97 0.22 109.03 0.23 109.1C0.25 109.86 0.73 110.58 1.69 110.55C11.94 110.24 22.2 110.22 32.45 110.5C32.72 110.51 32.95 110.45 33.14 110.36C33.79 110.25 34.37 109.77 34.37 108.9C34.36 100.75 34.05 92.61 33.45 84.48ZM30.49 85.51C30.65 87.74 30.78 89.96 30.89 92.19C21.62 92.11 12.35 92.04 3.08 91.96C3.07 89.72 3.04 87.47 3.04 85.23L30.49 85.51ZM3.1 95.03C12.4 95.11 21.71 95.18 31.01 95.26C31.05 96.28 31.1 97.29 31.14 98.3C31.07 98.29 31.01 98.28 30.93 98.28C21.69 98.54 12.35 98.77 3.12 98.19C3.11 97.15 3.11 96.09 3.1 95.03ZM3.22 107.44C3.19 105.39 3.17 103.33 3.15 101.28C12.37 101.86 21.7 101.62 30.93 101.36C31.04 101.36 31.14 101.34 31.23 101.32C31.28 103.35 31.31 105.37 31.32 107.4C21.96 107.18 12.59 107.19 3.22 107.44Z" fill="#1E1E1E"/>
<path d="M83.77 63.76C83.77 61.98 83.76 60.2 83.76 58.41C83.75 55.02 83.75 51.62 83.74 48.23C83.73 41.44 83.71 34.66 83.7 27.87C83.69 24.48 83.69 35.43 83.68 32.04C83.68 30.43 83.68 22.67 83.67 21.05C83.66 19.7 83.62 18.31 82.57 17.34C81.71 16.54 80.57 16.45 79.46 16.49C77.62 16.55 75.78 16.67 73.94 16.74C70.59 16.86 67.25 16.92 63.9 16.94C57.21 16.96 53.54 16.77 46.86 16.36C45.74 16.29 44.27 15.94 43.24 16.55C41.75 17.44 42.21 19.4 42.31 20.84C42.55 24.2 42.64 24.36 42.88 27.72C43.97 42.66 42.18 52.61 43.27 67.56C42.99 68.33 43.27 69.32 44.11 69.59C44.58 69.85 45.18 69.87 45.64 69.65C51.98 69.52 58.32 69.4 64.66 69.27C68 69.2 71.34 69.14 74.68 69.07C76.35 69.04 78.02 69 79.69 68.97C80.97 68.94 82.77 69.26 83.52 67.93C84.13 66.81 83.78 64.99 83.77 63.76ZM45.31 20.33C45.3 20.13 45.32 19.74 45.3 19.43C45.8 19.49 46.5 19.4 46.86 19.43C48.53 19.53 47.17 19.62 48.84 19.7C51.93 19.84 55.03 19.93 58.12 19.98C64.31 20.07 70.51 19.98 76.69 19.71C77.44 19.68 78.19 19.64 78.95 19.6C79.31 19.58 80.05 19.39 80.38 19.58C80.78 19.81 80.63 20.63 80.64 21.06C80.64 21.91 80.64 28.91 80.64 29.76L80.66 24.83C80.68 32.86 80.69 40.9 80.71 48.93C80.08 48.32 79.42 47.74 78.73 47.19C77.46 46.19 75.96 44.91 74.32 44.69C72.39 44.42 70.98 46.04 69.66 47.22C68.95 47.85 68.17 48.48 67.51 49.2C66.47 46.84 65.4 44.49 64.25 42.17C63.31 40.26 62.33 38.36 61.31 36.48C60.52 35.01 59.65 33.33 58.01 32.68C56.32 32.01 54.82 32.9 53.85 34.31C52.63 36.08 51.6 38.02 50.52 39.89C49.16 42.24 47.83 44.6 46.53 46.98C46.82 41.59 47.05 36.2 46.65 30.82C46.22 24.58 45.77 26.56 45.31 20.33ZM60.62 44.47C60.59 44.48 60.57 44.49 60.54 44.5C60.51 44.51 60.5 44.51 60.48 44.51C60.48 44.51 60.48 44.51 60.48 44.5C60.44 44.42 60.38 44.32 60.38 44.33C60.28 44.18 60.18 44.02 60.06 43.9C59.79 43.61 59.46 43.38 59.08 43.27C58.14 43 57.42 43.6 56.77 44.19C56.32 44.6 55.88 45.06 55.4 45.42C54.98 45.74 54.71 45.87 54.32 45.74C53.85 45.58 53.43 45.26 53.11 44.94C52.79 44.62 52.61 44.27 52.59 44C52.57 43.64 52.44 43.32 52.24 43.05C52.47 42.65 52.69 42.25 52.92 41.85C53.58 40.71 54.25 39.57 54.92 38.44C55.26 37.87 55.59 37.31 55.94 36.74C56.09 36.49 56.33 35.89 56.6 35.71C57 35.45 56.97 35.47 57.35 35.84C57.68 36.16 57.91 36.58 58.14 36.98C58.73 38.01 59.27 39.07 59.82 40.12C60.4 41.23 60.96 42.34 61.51 43.46C61.26 43.85 61 44.26 60.62 44.47ZM65.67 66.17C59.19 66.3 52.72 66.43 46.24 66.56C45.94 62.41 46.01 58.25 46.18 54.1C47.54 51.51 48.94 48.93 50.36 46.38C50.86 47.12 51.55 47.73 52.34 48.2C53.23 48.72 54.22 49.01 55.25 48.82C56.16 48.66 56.91 48.13 57.6 47.54C57.88 47.31 58.14 47.06 58.41 46.81C58.8 47.16 59.29 47.42 59.75 47.51C61.05 47.78 62.09 47.27 62.94 46.45C65.94 52.82 68.55 59.37 70.77 66.07L65.67 66.17ZM80.72 65.82C80.05 65.79 79.32 65.9 78.68 65.91C77.85 65.93 77.01 65.94 76.18 65.96C75.43 65.97 74.69 65.99 73.94 66C73.93 65.93 73.92 65.87 73.9 65.8C72.42 61.29 70.75 56.84 68.92 52.46C69.01 52.33 69.09 52.19 69.14 52.03C69.3 51.57 69.84 51.2 70.17 50.88C70.68 50.4 71.19 49.93 71.71 49.46C72.26 48.97 72.81 48.46 73.38 48C73.75 47.7 73.87 47.64 74.31 47.85C75.38 48.35 76.4 49.17 77.31 49.93C78.32 50.78 79.25 51.7 80.11 52.7C80.28 52.89 80.49 53.01 80.72 53.08C80.73 56.22 80.73 59.35 80.74 62.49C80.74 63.42 80.74 64.36 80.75 65.29C80.74 65.45 80.73 65.64 80.72 65.82Z" fill="#1E1E1E"/>
<path d="M138.08 65.15C137.81 61.79 137.53 58.42 137.26 55.06C136.04 40.12 138.22 25.18 137.01 10.24C137.33 9.47003 137.01 8.48003 136.07 8.21003C135.54 7.95003 134.88 7.93003 134.36 8.15003C127.26 8.28003 120.16 8.40003 113.06 8.53003C109.32 8.60003 105.58 8.66003 101.84 8.73003C99.97 8.76003 98.1 8.80003 96.23 8.83003C94.8 8.86003 92.78 8.54003 91.94 9.87003C91.24 10.98 91.64 12.8 91.65 14.03C91.65 15.81 91.66 17.59 91.66 19.38C91.67 22.77 91.67 26.17 91.68 29.56C91.7 36.35 91.71 43.13 91.72 49.92C91.73 53.31 91.73 56.71 91.74 60.1C91.74 61.71 91.74 63.32 91.75 64.94C91.76 66.29 91.81 67.68 92.98 68.65C93.94 69.45 95.22 69.54 96.47 69.5C98.53 69.44 100.59 69.32 102.65 69.25C106.4 69.13 110.15 69.07 113.89 69.05C121.39 69.03 125.49 69.22 132.97 69.63C134.22 69.7 135.87 70.05 137.03 69.44C138.72 68.56 138.2 66.59 138.08 65.15ZM95.05 15.3C95.05 14.37 95.05 13.43 95.04 12.5C95.04 12.34 95.05 12.15 95.06 11.96C95.81 11.99 96.63 11.88 97.34 11.87C98.27 11.85 99.21 11.84 100.14 11.82C104.07 11.75 107.99 11.68 111.92 11.61C119.17 11.48 126.42 11.35 133.68 11.22C134.19 17.45 133.77 23.69 133.39 29.92C133.29 29.81 133.18 29.71 133.05 29.63C132.71 29.45 132.26 29.33 131.88 29.47C130.82 29.86 129.76 30.25 128.7 30.64C128.32 30.78 128 30.99 127.79 31.35C127.6 31.68 127.52 32.17 127.64 32.53C127.76 32.9 127.99 33.26 128.34 33.45C128.68 33.63 129.13 33.75 129.51 33.61C130.57 33.22 131.63 32.83 132.69 32.44C132.91 32.36 133.1 32.24 133.27 32.1C133.1 35.16 132.96 38.22 132.97 41.29C131.44 41.3 129.91 41.33 128.38 41.35C128.38 41.32 128.38 41.29 128.38 41.26C127.88 37.97 126.39 34.65 123.88 32.43C121.24 30.1 117.78 29.37 114.36 29.45C111.12 29.53 107.86 30.44 105.36 32.6C102.65 34.94 101.53 38.5 101.18 41.98C99.16 42.05 97.13 42.11 95.11 42.19C95.09 33.23 95.07 24.27 95.05 15.3ZM125.33 41.39C118.29 41.5 111.26 41.66 104.22 41.88C104.51 39.23 105.42 36.53 107.5 34.78C109.49 33.1 112.19 32.53 114.72 32.52C117.47 32.51 120.24 33.06 122.25 35.09C123.93 36.8 124.88 39.05 125.33 41.39ZM132.99 66.56C131.12 66.46 132.64 66.37 130.77 66.29C127.31 66.15 123.84 66.06 120.37 66.01C113.44 65.92 106.5 66.01 99.57 66.28C98.73 66.31 97.88 66.35 97.04 66.39C96.63 66.41 95.8 66.6 95.44 66.41C95 66.18 95.16 65.36 95.15 64.93C95.15 64.08 95.15 63.23 95.14 62.38L95.12 52.96C95.11 50.4 95.11 47.83 95.1 45.27C107.74 44.78 120.38 44.48 133.03 44.36C133.07 45.23 133.12 46.1 133.19 46.97C133.7 53.2 134.2 59.42 134.71 65.65C134.73 65.85 134.69 66.24 134.72 66.55C134.18 66.5 133.4 66.58 132.99 66.56Z" fill="#1E1E1E"/>
<path d="M75.13 27.21C74.29 25.92 73.08 25.08 71.65 24.56C71.02 24.33 70.3 24.12 69.63 24.13C68.72 24.14 68.07 24.52 67.52 25.22C67.28 25.23 67.05 25.29 66.86 25.44C64.92 26.93 64.17 29.4 64.39 31.81C64.61 34.21 65.82 36.69 68.36 37.22C69.65 37.49 70.97 37.32 72.25 37.06C73.7 36.77 74.41 35.7 75.04 34.45C75.65 33.25 76.15 31.96 76.14 30.59C76.13 29.41 75.78 28.19 75.13 27.21ZM73.09 30.98C73.08 31.03 73.08 31.09 73.07 31.11C73.05 31.23 73.02 31.34 72.99 31.45C72.86 31.95 72.73 32.25 72.54 32.65C72.35 33.03 72.16 33.41 71.95 33.78C71.91 33.85 71.86 33.92 71.82 33.99C71.72 34.02 71.62 34.05 71.53 34.07C70.78 34.23 70.04 34.34 69.33 34.27C69.3 34.26 69.12 34.23 69.1 34.23C69.02 34.21 68.95 34.19 68.87 34.17C68.82 34.16 68.79 34.15 68.76 34.14C68.68 34.1 68.6 34.06 68.52 34.01C68.47 33.98 68.42 33.94 68.37 33.91C68.35 33.89 68.32 33.87 68.31 33.85C68.25 33.79 68.19 33.72 68.13 33.66C68.1 33.63 68.1 33.63 68.09 33.62C68.09 33.61 68.09 33.62 68.08 33.61C67.98 33.46 67.89 33.31 67.81 33.15C67.79 33.11 67.77 33.07 67.75 33.03C67.74 33 67.73 32.98 67.72 32.96C67.66 32.78 67.6 32.61 67.56 32.43C67.54 32.34 67.52 32.25 67.5 32.16C67.5 32.14 67.48 32.03 67.46 31.96C67.45 31.91 67.44 31.83 67.44 31.8C67.43 31.68 67.42 31.57 67.42 31.45C67.41 31.24 67.41 31.03 67.42 30.82C67.43 30.61 67.44 30.4 67.47 30.19C67.47 30.17 67.48 30.16 67.48 30.13C67.5 30.01 67.53 29.89 67.55 29.77C67.6 29.55 67.67 29.35 67.73 29.13C67.74 29.11 67.75 29.07 67.77 29.03C67.81 28.94 67.85 28.85 67.9 28.77C67.95 28.69 67.99 28.6 68.04 28.52C68.07 28.47 68.13 28.4 68.14 28.37C68.19 28.32 68.23 28.26 68.28 28.21C68.32 28.17 68.63 27.9 68.4 28.07C68.59 27.92 68.75 27.75 68.88 27.55C69.19 27.53 69.47 27.4 69.73 27.19C69.76 27.19 69.78 27.19 69.79 27.19C69.82 27.2 69.86 27.2 69.89 27.21C70.11 27.26 70.33 27.32 70.54 27.39C70.62 27.42 70.7 27.44 70.78 27.47C70.81 27.48 70.96 27.54 71 27.55C71.19 27.63 71.39 27.74 71.57 27.84C71.67 27.9 71.76 27.96 71.85 28.02C71.86 28.03 71.9 28.06 71.93 28.08C72.07 28.2 72.2 28.32 72.32 28.46C72.37 28.51 72.42 28.57 72.46 28.62C72.47 28.64 72.47 28.64 72.48 28.64C72.49 28.65 72.5 28.67 72.52 28.72C72.62 28.89 72.72 29.05 72.81 29.22C72.83 29.26 72.84 29.27 72.85 29.29C72.88 29.37 72.91 29.45 72.93 29.53C72.99 29.72 73.03 29.9 73.08 30.09C73.09 30.11 73.09 30.16 73.1 30.2C73.11 30.27 73.11 30.34 73.11 30.4C73.11 30.62 73.1 30.8 73.09 30.98Z" fill="#1E1E1E"/>
<path d="M126.34 45.56C118.55 46.31 110.73 46.57 102.91 46.36C100.96 46.31 100.96 49.3799 102.91 49.4399C110.73 49.6599 118.55 49.3899 126.34 48.6399C128.27 48.4499 128.29 45.37 126.34 45.56Z" fill="#1E1E1E"/>
<path d="M121.11 50.64C117.35 50.71 113.59 50.7901 109.84 50.8601C109.02 50.8801 108.32 51.5601 108.32 52.4001C108.32 53.2201 109.01 53.95 109.84 53.94C113.6 53.87 117.36 53.7901 121.11 53.7201C121.93 53.7001 122.63 53.0201 122.63 52.1801C122.62 51.3501 121.93 50.62 121.11 50.64Z" fill="#1E1E1E"/>
<path d="M118.44 55.57C116.79 55.61 115.14 55.6 113.49 55.53C112.7 55.5 111.94 56.26 111.97 57.07C112.01 57.93 112.64 58.57 113.49 58.61C115.14 58.68 116.79 58.69 118.44 58.65C119.23 58.63 119.99 57.96 119.96 57.11C119.92 56.29 119.29 55.54 118.44 55.57Z" fill="#1E1E1E"/>
<path d="M101.87 31.39C101.75 31.01 101.52 30.67 101.17 30.47C100.14 29.89 99.15 29.23 98.22 28.5C98.09 28.37 97.94 28.27 97.77 28.22C97.59 28.12 97.39 28.08 97.19 28.09C96.82 28.09 96.37 28.26 96.12 28.54C95.85 28.83 95.66 29.22 95.68 29.63C95.7 30.01 95.82 30.47 96.12 30.72C97.24 31.61 98.4 32.43 99.65 33.14C100 33.34 100.43 33.4 100.82 33.29C101.17 33.19 101.55 32.92 101.73 32.58C101.9 32.22 101.99 31.79 101.87 31.39Z" fill="#1E1E1E"/>
<path d="M110.91 25.57C110.77 25.24 110.62 24.9 110.48 24.57C110.41 24.4 110.4 24.38 110.45 24.51C110.42 24.44 110.39 24.37 110.36 24.29C110.29 24.12 110.22 23.96 110.16 23.79C109.9 23.14 109.64 22.49 109.4 21.84C108.9 20.51 108.43 19.17 107.99 17.81C107.74 17.05 106.93 16.47 106.12 16.74C105.37 16.99 104.79 17.81 105.06 18.63C106 21.51 107.08 24.34 108.29 27.12C108.61 27.86 109.73 28.09 110.37 27.67C111.12 27.18 111.25 26.36 110.91 25.57Z" fill="#1E1E1E"/>
<path d="M124.5 17.86C123.81 17.49 122.81 17.65 122.42 18.41C121.19 20.88 119.96 23.34 118.72 25.81C118.36 26.53 118.51 27.51 119.26 27.91C119.95 28.28 120.95 28.12 121.34 27.36C122.57 24.89 123.8 22.43 125.04 19.96C125.4 19.25 125.26 18.26 124.5 17.86Z" fill="#1E1E1E"/>
</svg>
