<svg width="140" height="140" viewBox="0 0 140 140" fill="none" xmlns="http://www.w3.org/2000/svg">
<path d="M125.141 109.657C124.071 108.591 122.761 108.043 121.351 107.597C119.661 107.049 117.961 106.522 116.271 105.994C112.851 104.908 109.371 103.488 105.861 102.768C102.601 102.098 99.0809 103.447 95.9709 104.36C92.3209 105.426 88.6809 106.522 85.0409 107.597C84.4309 107.78 84.1009 108.206 84.0009 108.672C83.8409 108.672 83.6709 108.672 83.5109 108.662C81.5609 108.632 81.5609 111.726 83.5109 111.747C97.0309 111.929 110.541 112.112 124.061 112.295C125.381 112.315 126.081 110.59 125.141 109.657Z" fill="#FBB03B"/>
<path d="M95.8609 8.10679C95.5509 6.52403 94.2609 5.19493 93.0709 4.20063C90.4809 2.03956 87.1409 0.893079 83.7809 1.19746C82.0309 1.35979 80.4109 1.84679 78.8309 2.62802C77.4709 3.30779 75.9809 4.10932 74.9609 5.27609C72.9509 7.5792 72.5309 10.7954 72.9009 13.7479C73.2709 16.6192 74.3409 20.1398 76.6009 22.1994C77.3809 23.9648 78.3209 25.8519 79.5209 27.3231C80.8209 28.9058 82.9009 29.2609 84.8109 28.9768C86.8809 28.6725 88.7009 27.6274 90.3309 26.3389C91.9109 25.091 93.6409 23.7517 94.4309 21.824C94.7509 21.0428 94.0909 20.1296 93.3709 19.9267C93.0809 19.8456 92.8109 19.8557 92.5609 19.9267C92.2209 19.5006 91.8109 19.2977 91.3709 19.2064C90.6909 18.973 89.7909 19.1759 89.1009 19.3687C87.8309 19.7238 86.3609 20.1601 85.0309 20.0282C84.5009 19.9774 84.0409 19.7847 83.6409 19.5107C82.8109 18.3744 82.0809 17.1468 81.6909 15.8785C81.6409 15.5234 81.6109 15.1683 81.6209 14.8335C81.6309 13.6464 82.2809 12.6217 82.9309 11.6781C83.6009 10.7041 84.4309 9.97363 85.5909 9.70983C87.9709 9.1721 90.1609 10.6331 91.7509 12.2767C92.4209 12.9768 93.6609 12.8348 94.1309 11.9622C94.4309 11.4042 95.0109 11.0491 95.3609 10.5215C95.8609 9.82144 96.0309 8.96919 95.8609 8.10679Z" fill="#FBB03B"/>
<path d="M111.181 16.4365C110.061 15.4118 108.691 14.6001 107.191 14.3566C105.461 14.0827 103.851 14.5494 102.301 15.3204C99.3209 16.7916 96.9909 19.7542 97.6009 23.2748C97.8809 24.8981 98.9109 26.349 100.391 27.0491C100.971 27.323 101.551 27.4752 102.151 27.5665C102.771 27.8303 103.441 28.0231 104.141 28.1042C105.831 28.3173 107.611 28.0738 109.261 27.6781C110.861 27.2926 112.371 26.491 113.331 25.0909C115.281 22.2602 113.411 18.4758 111.181 16.4365ZM106.051 21.408C106.011 21.7834 105.871 22.179 105.751 22.4428C105.751 22.453 105.671 22.5747 105.611 22.6863C105.231 22.7675 104.891 23.0009 104.671 23.3255C104.511 23.2444 104.341 23.1429 104.151 22.9907C104.131 22.9704 104.101 22.94 104.051 22.8994C103.951 22.8081 103.861 22.7066 103.771 22.6052C103.751 22.5747 103.591 22.3515 103.591 22.3515C103.571 22.3109 103.391 21.9863 103.381 21.966C103.331 21.8341 103.281 21.6921 103.251 21.5602C103.251 21.55 103.211 21.3167 103.191 21.2659C103.181 21.134 103.181 21.0123 103.181 20.8804C103.181 20.8398 103.181 20.8195 103.181 20.7992C103.201 20.647 103.251 20.505 103.281 20.3629C103.291 20.3224 103.301 20.2919 103.301 20.2716C103.311 20.2513 103.331 20.231 103.361 20.1905C103.371 20.1803 103.481 20.0078 103.511 19.9571C103.601 19.8455 103.701 19.744 103.811 19.6527C103.861 19.6223 104.031 19.5107 104.041 19.5005C104.091 19.4701 104.151 19.4397 104.211 19.4194C104.221 19.4194 104.261 19.4092 104.341 19.3788C104.411 19.3686 104.471 19.3484 104.531 19.3281C104.501 19.3484 104.691 19.3281 104.821 19.3281C104.861 19.3382 104.961 19.3585 105.031 19.3788C105.011 19.3889 105.211 19.4701 105.321 19.531C105.351 19.5614 105.521 19.6933 105.531 19.7035C105.581 19.7542 105.631 19.8151 105.681 19.8759C105.691 19.8962 105.711 19.9165 105.751 19.9875C105.811 20.0991 105.871 20.2108 105.931 20.3224C105.941 20.3731 106.011 20.5862 106.011 20.5862C106.051 20.7688 106.071 21.2659 106.051 21.408Z" fill="#FBB03B"/>
<path d="M123.341 25.2229C123.311 25.0504 123.221 24.8779 123.151 24.7257C123.051 24.5228 122.891 24.33 122.721 24.1779C122.461 23.9445 122.171 23.7213 121.861 23.5488C121.551 23.3662 121.221 23.2241 120.881 23.1024C120.681 23.0415 120.481 23.0314 120.281 23.072C120.081 23.0821 119.891 23.143 119.721 23.2546C119.541 23.356 119.401 23.4879 119.291 23.6503C119.161 23.8025 119.071 23.9749 119.021 24.1779C119.001 24.3098 118.981 24.4518 118.971 24.5837C118.971 24.8373 119.031 25.0707 119.151 25.2838C119.101 25.4461 119.081 25.6186 119.081 25.8113C119.081 25.9838 119.101 26.1563 119.141 26.3186C119.151 26.3389 119.151 26.3592 119.161 26.3897C119.211 26.5216 119.261 26.6737 119.341 26.7955C119.501 27.0694 119.681 27.2216 119.931 27.4042C120.021 27.4651 120.121 27.5158 120.221 27.5564C120.511 27.7086 120.831 27.8101 121.161 27.7999C121.331 27.7898 121.491 27.7593 121.651 27.7188C121.681 27.7086 121.721 27.7086 121.751 27.6985C121.971 27.668 122.181 27.5666 122.371 27.4651C122.691 27.2825 122.911 27.039 123.111 26.7346C123.321 26.4302 123.371 26.0954 123.411 25.7403C123.411 25.72 123.421 25.6896 123.411 25.6693C123.401 25.5273 123.371 25.3649 123.341 25.2229Z" fill="#FBB03B"/>
<path d="M58.7209 53.2458C58.6409 53.2661 58.5609 53.2661 58.4809 53.2864C58.2609 52.8603 57.8309 52.5458 57.2109 52.5559C49.7109 52.6574 42.2209 53.053 34.7409 53.7227C34.4609 53.743 34.2309 53.8343 34.0309 53.9662C32.9609 54.1589 32.0209 54.6257 31.7709 55.8635C31.2709 58.3695 33.8509 58.9681 35.6609 58.8565C38.1709 58.7043 40.6809 58.5724 43.2009 58.4811C48.4009 58.2985 53.5909 58.268 58.7909 58.3898C60.1509 58.4202 60.5609 56.9389 60.0309 56.0156C61.2509 55.2344 60.4309 52.8806 58.7209 53.2458Z" fill="#FBB03B"/>
<path d="M13.3909 74.0344C13.3809 73.7909 13.3509 73.5576 13.3009 73.3242C13.2809 73.2126 13.2509 73.1111 13.2109 72.9995C13.1309 72.7865 13.0509 72.5633 12.9309 72.3705C12.8109 72.1676 12.6609 71.9748 12.5109 71.7922L12.2009 71.5487L11.8409 71.3965C11.7109 71.3762 11.5709 71.3559 11.4409 71.3458C11.2309 71.3356 11.0409 71.3863 10.8609 71.4777C10.7309 71.5182 10.6209 71.5791 10.5309 71.6806C10.5209 71.6907 10.5109 71.7009 10.5009 71.711C10.1509 71.7516 9.8009 71.8733 9.5609 72.1473L9.32091 72.4618C9.18091 72.7053 9.11091 72.9589 9.11091 73.243C9.09091 73.6184 9.12091 73.9634 9.18091 74.3388C9.22091 74.5721 9.32091 74.7852 9.41091 75.0084C9.43091 75.0591 9.4509 75.1099 9.4809 75.1505C9.5609 75.2722 9.66091 75.394 9.75091 75.5056C9.77091 75.5259 9.7909 75.5563 9.8109 75.5766C9.9309 75.6983 10.0809 75.8099 10.2109 75.9013C10.3709 76.0129 10.5509 76.094 10.7309 76.1346C10.8809 76.1752 11.0409 76.1955 11.2009 76.1955C11.2809 76.1955 11.5309 76.1549 11.6209 76.1346C11.6309 76.1346 11.6509 76.1245 11.6609 76.1245C11.7209 76.1042 11.9009 76.023 11.8609 76.0433C11.9309 76.0129 12.0009 75.9926 12.0709 75.952C12.0809 75.952 12.0809 75.9418 12.0909 75.9317C12.1809 75.8708 12.3409 75.7592 12.4109 75.678C12.4209 75.6679 12.4309 75.6578 12.4409 75.6476C12.4909 75.5867 12.5909 75.4548 12.6509 75.3737C12.7609 75.3128 12.8609 75.2418 12.9409 75.1403C13.2109 74.8258 13.4109 74.4403 13.3909 74.0344Z" fill="#FBB03B"/>
<path d="M26.0709 73.4462C26.0509 73.294 26.0409 73.1317 26.0109 72.9896C26.0009 72.9693 26.0009 72.9389 25.9909 72.9186C25.9709 72.8476 25.9309 72.7664 25.9009 72.7157C25.8709 72.6447 25.8409 72.5635 25.8109 72.4925C25.7909 72.4621 25.7809 72.4316 25.7609 72.4113C25.6709 72.2794 25.5809 72.1577 25.4709 72.0359C25.4509 72.0156 25.4209 71.9852 25.4009 71.9649C25.2809 71.8635 25.1609 71.762 25.0309 71.6707C24.9209 71.5895 24.7909 71.5185 24.6609 71.4576C24.4909 71.346 24.3009 71.2851 24.1009 71.275C23.9009 71.2243 23.7009 71.2344 23.5009 71.3054C23.3009 71.3562 23.1309 71.4475 22.9809 71.5794C22.9209 71.6199 22.8809 71.691 22.8309 71.7518C22.8209 71.7518 22.8209 71.7518 22.8109 71.7518C22.6909 71.8026 22.5709 71.8533 22.4509 71.904C22.2209 72.0461 22.0409 72.2287 21.9109 72.4621C21.8709 72.5331 21.8509 72.6041 21.8209 72.6751C21.8109 72.7056 21.7509 72.8172 21.7309 72.8882C21.7209 72.9085 21.7209 72.9389 21.7109 72.9592C21.6409 73.3549 21.6309 73.5071 21.7209 73.9028C21.7309 73.9332 21.7309 73.9535 21.7409 73.9738C21.7909 74.1158 21.8509 74.2579 21.9109 74.3898C21.9909 74.5521 22.1209 74.7043 22.2409 74.8362C22.3609 74.9681 22.5009 75.0695 22.6509 75.1609C22.6809 75.1811 22.7009 75.1913 22.7309 75.2014C22.8709 75.2725 23.0209 75.3435 23.1709 75.3841C23.3509 75.4449 23.5709 75.4551 23.7409 75.4754C23.8109 75.4855 23.8709 75.4855 23.9409 75.4855C24.0009 75.4855 24.0609 75.4855 24.1209 75.4754C24.3209 75.4652 24.5209 75.4551 24.7109 75.3942C24.7209 75.3942 24.7409 75.3841 24.7509 75.3841C24.8709 75.3435 25.0209 75.2725 25.1309 75.2217C25.2109 75.1811 25.2809 75.1203 25.3409 75.0695C25.5509 74.8971 25.6509 74.8058 25.8109 74.542C25.9909 74.2477 26.0809 73.8622 26.0809 73.5172C26.0709 73.4969 26.0709 73.4766 26.0709 73.4462Z" fill="#FBB03B"/>
<path d="M22.0009 110.509C21.5809 109.779 20.8409 109.383 20.0309 109.322C19.4309 109.281 18.7809 109.484 18.2009 109.616C17.7709 109.708 17.3509 109.809 16.9209 109.9C16.8809 109.87 16.8409 109.829 16.7909 109.799C16.4609 109.606 15.9909 109.525 15.6209 109.647C15.2509 109.768 14.9009 110.002 14.7109 110.357C14.5309 110.692 14.4009 111.179 14.5609 111.544C14.9509 112.488 15.3509 113.553 16.0709 114.283C16.5409 114.76 17.1709 115.065 17.8409 115.065C18.3809 115.065 18.8709 114.831 19.3609 114.638C19.8709 114.436 20.4009 114.243 20.9009 114.009C21.5309 113.715 21.9809 113.147 22.2109 112.488C22.4309 111.848 22.3409 111.087 22.0009 110.509Z" fill="#FBB03B"/>
<path d="M45.8909 110.195C45.5709 109.89 45.1509 109.738 44.7409 109.586C44.1709 109.373 43.5609 109.281 42.9509 109.231C42.3109 109.18 41.6609 109.251 41.0309 109.373C40.7609 109.423 40.4909 109.505 40.2309 109.606C40.2109 109.616 40.1809 109.626 40.1609 109.636C39.9709 109.423 39.7109 109.251 39.4509 109.19C38.7009 109.018 37.7409 109.423 37.5809 110.266C37.4309 111.067 37.5509 111.828 37.9709 112.528C38.3109 113.096 38.8109 113.664 39.3809 113.999C40.0009 114.354 40.7409 114.425 41.4409 114.456C42.0609 114.486 42.7009 114.425 43.3109 114.283C44.4409 114.009 45.5709 113.269 46.1409 112.224C46.4909 111.574 46.4309 110.702 45.8909 110.195Z" fill="#FBB03B"/>
<path d="M7.52091 72.8881C7.49091 72.817 7.46091 72.746 7.44091 72.6851C7.41091 72.6141 7.39091 72.5431 7.35091 72.4822C7.28091 72.3605 7.1809 72.2387 7.0909 72.1271C6.9809 71.9952 6.83091 71.8735 6.68091 71.8025C6.44091 71.6604 6.19091 71.5894 5.91091 71.5894C5.83091 71.5894 5.75091 71.5995 5.68091 71.6097C5.50091 71.5184 5.31091 71.4778 5.11091 71.4778C4.72091 71.4981 4.31091 71.63 4.04091 71.9344C3.78091 72.2184 3.56091 72.6243 3.60091 73.0301C3.64091 73.4765 3.69091 73.9229 3.80091 74.3592C3.91091 74.7955 4.08091 75.2013 4.25091 75.6071C4.33091 75.7086 4.41091 75.8202 4.49091 75.9217C4.59091 76.0028 4.69091 76.084 4.80091 76.1652L5.16091 76.3174C5.36091 76.3782 5.56092 76.3884 5.76092 76.3478C5.90092 76.3478 6.02091 76.3072 6.14091 76.2463C6.27091 76.2058 6.38091 76.1449 6.47091 76.0434C6.58091 75.9724 6.67091 75.8811 6.74091 75.7695C6.87091 75.6173 6.96092 75.4448 7.01092 75.2419C7.06092 75.0187 7.10092 74.8056 7.15092 74.5824C7.23092 74.5012 7.30091 74.4099 7.35091 74.3085C7.50091 74.0041 7.5809 73.7809 7.5909 73.4359C7.5909 73.2432 7.58091 73.0605 7.52091 72.8881Z" fill="#00A99D"/>
<path d="M20.0809 72.0256C19.8209 71.7618 19.3909 71.5589 19.0109 71.5691C18.6209 71.5894 18.2109 71.7213 17.9409 72.0256C17.8209 72.1575 17.7309 72.3097 17.6609 72.4619C17.6109 72.4315 17.5709 72.4112 17.5209 72.3807C17.3309 72.2184 17.1509 72.0459 16.9809 71.8633C16.7109 71.5792 16.2909 71.4067 15.9109 71.4067C15.5409 71.4067 15.0909 71.5792 14.8409 71.8633C14.5709 72.1575 14.3809 72.5431 14.4009 72.9591C14.4209 73.375 14.5609 73.7504 14.8409 74.0548C15.2109 74.4505 15.6009 74.8157 16.0509 75.11C16.5609 75.4448 17.2009 75.668 17.8109 75.6579C18.0909 75.6477 18.3809 75.6173 18.6509 75.526C19.0709 75.3839 19.3609 75.2013 19.7009 74.9274C20.2309 74.4911 20.5009 73.8012 20.5309 73.1214C20.5409 72.7358 20.3409 72.2894 20.0809 72.0256Z" fill="#00A99D"/>
<path d="M50.4409 79.7365C50.4209 79.6858 50.3809 79.6452 50.3509 79.5944C50.9009 79.3611 51.2909 78.8234 51.2909 78.1842C51.2909 77.3725 50.6009 76.6116 49.7709 76.642C47.7709 76.713 45.7709 76.7739 43.7709 76.8449C42.7109 76.8753 41.3309 76.713 40.6809 77.7682C40.1709 78.6001 40.3109 79.8481 40.3009 80.7917C40.2709 82.8411 40.5909 84.7891 40.9609 86.798C41.1209 87.6807 41.1709 88.5127 41.1109 89.4156C41.0309 90.623 41.8609 91.5361 43.0509 91.5564C44.0109 91.5767 45.0009 91.4245 45.9609 91.3535C46.9509 91.2825 47.9709 91.2723 48.9609 91.1201C50.2409 90.9274 50.7109 89.9432 50.8809 88.7663C51.0309 87.7314 51.1309 86.6864 51.1509 85.6414C51.1709 84.6572 51.1209 83.6731 51.0109 82.6889C50.9109 81.6946 50.8309 80.6395 50.4409 79.7365Z" fill="#00A99D"/>
<path d="M11.5609 110.377C9.55089 110.479 7.54089 110.509 5.53089 110.448C4.74089 110.428 3.9809 111.179 4.0109 111.99C4.0409 112.751 4.55089 113.36 5.27089 113.502C5.34089 114.05 5.55089 114.557 5.98089 114.933C6.30089 115.207 6.65089 115.43 7.02089 115.612C7.94089 116.049 8.92089 116.079 9.86089 115.694C11.3709 115.075 12.4909 113.898 13.0109 112.325C13.3309 111.412 12.5109 110.326 11.5609 110.377Z" fill="#00A99D"/>
<path d="M32.4809 110.195C31.9909 109.697 31.3309 109.616 30.6909 109.667C30.2509 109.708 29.8009 109.738 29.3609 109.779C29.0309 109.809 28.7209 109.89 28.4609 110.093C28.2109 109.565 27.6709 109.16 27.0909 109.19C26.2509 109.231 25.5909 109.87 25.5709 110.732C25.5509 111.696 25.9309 112.619 26.5609 113.33C27.2009 114.04 28.1709 114.435 29.1109 114.456C30.0309 114.476 30.8609 114.08 31.5809 113.522C31.8709 113.289 32.1709 113.046 32.4309 112.772C33.0809 112.061 33.2109 110.935 32.4809 110.195Z" fill="#00A99D"/>
<path d="M59.2309 111.169C59.1409 110.458 58.4909 109.768 57.7409 109.829C55.7609 109.992 53.7709 110.063 51.7809 110.073C51.5309 109.555 50.9809 109.16 50.4109 109.19C49.5509 109.231 48.9409 109.87 48.8909 110.732C48.8209 112.072 49.0809 113.502 50.2709 114.273C50.8309 114.638 51.4909 114.709 52.1409 114.73C52.7009 114.74 53.3009 114.791 53.8409 114.618C53.8609 114.638 53.8709 114.649 53.8909 114.669C55.0609 115.683 56.5609 115.298 57.4109 114.07C57.6209 113.766 57.7609 113.421 57.9609 113.106C57.9709 113.086 57.9909 113.056 58.0009 113.035C58.0409 112.985 58.1009 112.934 58.1409 112.893C58.1609 112.873 58.1609 112.863 58.1809 112.853C58.1709 112.853 58.1709 112.853 58.1609 112.863C58.1709 112.863 58.1809 112.853 58.1909 112.853C58.1909 112.853 58.1909 112.843 58.2009 112.843C58.2109 112.832 58.2309 112.832 58.2509 112.822C58.9009 112.548 59.3309 111.919 59.2309 111.169Z" fill="#00A99D"/>
<path d="M58.1709 112.852C58.4209 112.762 58.3309 112.782 58.2309 112.822C58.2109 112.822 58.2009 112.842 58.1709 112.852C58.1709 112.842 58.1709 112.852 58.1709 112.852Z" fill="#00A99D"/>
<path d="M47.7709 135.742C47.4009 134.656 46.9409 133.55 46.7509 132.414C46.7309 132.11 46.7209 131.795 46.7009 131.491C46.6509 130.882 46.5409 130.395 46.2709 129.847C45.9109 129.127 44.8509 128.863 44.1909 129.289C43.4909 129.746 43.3009 130.557 43.6209 131.298C43.6209 131.308 43.6209 131.328 43.6409 131.399C43.6509 131.43 43.6509 131.46 43.6609 131.491C43.6809 131.805 43.6909 132.13 43.7109 132.454C43.7609 132.982 43.8509 133.51 43.9909 134.027C44.2309 134.879 44.5509 135.721 44.8409 136.564C45.1009 137.325 45.8909 137.913 46.7109 137.639C47.4509 137.406 48.0509 136.564 47.7709 135.742Z" fill="#FBB03B"/>
<path d="M36.3409 135.113C36.3009 135.021 36.2609 134.93 36.2209 134.839C36.2109 134.808 36.1909 134.778 36.1809 134.747C36.1709 134.727 36.1709 134.727 36.1709 134.717C36.1609 134.697 36.1609 134.676 36.1509 134.656C36.1109 134.565 36.0809 134.473 36.0409 134.382C35.9109 134.037 35.8009 133.692 35.7009 133.347C35.5209 132.718 35.3809 132.069 35.2909 131.419C35.2509 131.095 35.2209 130.77 35.2009 130.445C35.1609 129.644 34.5309 128.863 33.6809 128.903C32.9009 128.944 32.1209 129.583 32.1609 130.445C32.2809 132.627 32.8109 134.697 33.7209 136.675C34.0609 137.405 35.1509 137.649 35.8009 137.233C36.5409 136.736 36.7109 135.894 36.3409 135.113Z" fill="#FBB03B"/>
<path d="M25.0609 135.092C25.0609 135.082 25.0509 135.062 25.0509 135.052C25.0109 134.828 24.9709 134.605 24.9409 134.382C24.9309 134.331 24.9209 134.281 24.9209 134.22C24.9109 134.128 24.9009 134.037 24.8909 133.946C24.8609 133.702 24.8409 133.459 24.8209 133.205C24.7509 132.221 24.7509 131.237 24.8209 130.253C24.8809 129.441 24.0809 128.67 23.3009 128.711C22.4309 128.751 21.8409 129.39 21.7809 130.253C21.7009 131.43 21.7109 132.607 21.8309 133.773C21.9009 134.443 21.9909 135.102 22.1109 135.762C22.2709 136.645 22.7109 137.324 23.5709 137.629C24.3209 137.893 25.2609 137.324 25.4409 136.553C25.5609 135.975 25.4109 135.458 25.0609 135.092Z" fill="#FBB03B"/>
<path d="M14.1109 130.374C14.3409 129.603 13.8409 128.66 13.0509 128.477C12.2409 128.284 11.4309 128.731 11.1809 129.553C10.7009 131.206 10.5409 132.972 10.7509 134.686C10.8009 135.113 10.8809 135.468 11.1909 135.782C11.4509 136.046 11.8809 136.249 12.2609 136.239C12.6509 136.218 13.0609 136.087 13.3309 135.782C13.5809 135.498 13.8209 135.082 13.7709 134.686C13.6509 133.743 13.6609 132.799 13.7709 131.856C13.8709 131.348 13.9709 130.851 14.1109 130.374Z" fill="#FBB03B"/>
<path d="M112.671 120.655C112.581 119.833 112.321 119.032 111.821 118.433C111.821 118.291 111.821 118.149 111.781 118.017C111.541 117.134 110.731 116.81 109.911 116.941C108.391 117.175 106.851 117.165 105.331 117.002C104.481 116.911 103.861 117.784 103.811 118.545C103.621 121.68 103.531 124.825 103.551 127.97C103.561 129.573 103.601 131.176 103.671 132.779C103.701 133.52 103.741 134.26 103.781 134.991C103.831 135.793 103.781 136.716 103.981 137.497C104.381 139.07 105.941 138.846 107.181 138.755C107.881 138.704 108.581 138.654 109.281 138.603C110.011 138.552 110.911 138.603 111.571 138.228C112.911 137.456 112.671 135.803 112.681 134.474C112.691 132.881 112.711 131.298 112.721 129.705C112.741 126.732 113.001 123.628 112.671 120.655Z" fill="#00A99D"/>
<path d="M102.561 119.579C102.551 119.295 102.481 119.062 102.371 118.859C102.481 118.017 102.001 117.073 100.921 117.053C99.8709 117.033 98.8209 117.002 97.7709 116.982C96.8209 116.962 95.8209 116.85 94.8709 116.952C93.7809 117.063 93.0809 117.814 92.9509 118.91C92.8109 120.016 92.7409 121.132 92.6509 122.248C92.3109 126.59 92.1109 130.943 92.0409 135.305C92.0409 135.458 92.0609 135.6 92.0909 135.732C92.1409 136.594 92.8109 137.091 93.6009 137.193C95.6209 137.446 97.6509 137.365 99.6509 136.979C100.611 136.787 101.391 136.29 101.641 135.275C101.891 134.25 101.941 133.124 102.061 132.079C102.521 127.919 102.681 123.749 102.561 119.579Z" fill="#00A99D"/>
<path d="M99.3745 56.7512C99.2375 54.3414 98.9711 51.9316 99.0243 49.5063C99.0472 48.4945 99.3669 47.2355 98.6209 46.4014C97.8672 45.5595 96.6416 45.7835 96.063 46.664C96.0554 46.6794 96.0478 46.6949 96.0401 46.7026C95.4159 46.6408 94.7688 47.0115 94.8145 47.8225C94.9744 50.7885 95.1647 53.8316 94.647 56.7821C94.3958 58.2264 93.9771 59.6322 93.3376 60.9529C92.6753 62.3355 91.9217 63.664 91.3583 65.1006C91.0995 65.7726 91.7694 66.6608 92.4698 66.5913C93.7335 66.46 95.0048 66.3441 96.2609 66.1974C97.3039 66.0738 98.1717 65.6876 98.6741 64.699C99.1842 63.6871 99.2679 62.4204 99.3669 61.3082C99.4583 60.2114 99.4659 59.1147 99.4278 58.0179C99.4583 57.9098 99.4887 57.8016 99.5115 57.6935C99.6029 57.3768 99.542 57.0293 99.3745 56.7512Z" fill="#00A99D"/>
<path d="M82.2313 88.1772C82.0942 85.7674 81.8278 83.3576 81.8811 80.9323C81.9039 79.9205 82.2237 78.6616 81.4776 77.8274C80.724 76.9855 79.4983 77.2095 78.9197 78.09C78.9121 78.1054 78.9045 78.1209 78.8969 78.1286C78.2727 78.0668 77.6256 78.4376 77.6713 79.2486C77.8311 82.2145 78.0214 85.2576 77.5038 88.2081C77.2526 89.6525 76.8339 91.0582 76.1944 92.379C75.5321 93.7615 74.7784 95.09 74.2151 96.5266C73.9562 97.1986 74.6262 98.0868 75.3265 98.0173C76.5902 97.886 77.8616 97.7701 79.1177 97.6234C80.1606 97.4998 81.0285 97.1136 81.5309 96.125C82.0409 95.1132 82.1247 93.8465 82.2237 92.7342C82.315 91.6375 82.3226 90.5407 82.2846 89.4439C82.315 89.3358 82.3455 89.2277 82.3683 89.1195C82.4596 88.8029 82.3988 88.4553 82.2313 88.1772Z" fill="#00A99D"/>
<path d="M131.502 57.4634C131.365 55.0535 131.099 52.6437 131.152 50.2185C131.175 49.2067 131.495 47.9477 130.749 47.1135C129.995 46.2716 128.769 46.4956 128.191 47.3761C128.183 47.3916 128.176 47.407 128.168 47.4148C127.544 47.353 126.897 47.7237 126.942 48.5347C127.102 51.5006 127.293 54.5438 126.775 57.4943C126.524 58.9386 126.105 60.3443 125.466 61.6651C124.803 63.0476 124.05 64.3761 123.486 65.8127C123.227 66.4847 123.897 67.3729 124.598 67.3034C125.861 67.1721 127.133 67.0563 128.389 66.9095C129.432 66.7859 130.3 66.3998 130.802 65.4111C131.312 64.3993 131.396 63.1326 131.495 62.0204C131.586 60.9236 131.594 59.8268 131.556 58.7301C131.586 58.6219 131.617 58.5138 131.639 58.4057C131.738 58.089 131.67 57.7414 131.502 57.4634Z" fill="#00A99D"/>
<path d="M114.978 88.1772C114.841 85.7674 114.574 83.3576 114.628 80.9323C114.651 79.9205 114.97 78.6616 114.224 77.8274C113.471 76.9855 112.245 77.2095 111.666 78.09C111.659 78.1054 111.651 78.1209 111.644 78.1286C111.019 78.0668 110.372 78.4376 110.418 79.2486C110.578 82.2145 110.768 85.2576 110.25 88.2081C109.999 89.6525 109.581 91.0582 108.941 92.379C108.279 93.7615 107.525 95.09 106.962 96.5266C106.703 97.1986 107.373 98.0868 108.073 98.0173C109.337 97.886 110.608 97.7701 111.864 97.6234C112.907 97.4998 113.775 97.1136 114.278 96.125C114.788 95.1132 114.871 93.8465 114.97 92.7342C115.062 91.6375 115.069 90.5407 115.031 89.4439C115.062 89.3358 115.092 89.2277 115.115 89.1195C115.214 88.8029 115.145 88.4553 114.978 88.1772Z" fill="#00A99D"/>
<path d="M115.813 57.4079C115.486 54.2102 115.029 51.028 114.511 47.8613C114.451 47.4983 114.207 47.2589 113.902 47.1353C113.735 46.8109 113.408 46.5714 112.928 46.5869C111.695 46.6255 111.109 47.6837 111.017 48.8268C110.888 50.4642 110.933 52.1248 110.804 53.77C110.69 55.2298 110.697 56.9367 110.05 58.2807C109.426 59.5628 108.513 60.6364 107.98 61.9803C107.576 63.0076 106.838 64.8922 107.462 65.9426C108.193 67.1707 110.119 66.6069 111.253 66.5142C111.824 66.4678 112.426 66.4524 112.92 66.1357C113.019 66.1512 113.126 66.1743 113.202 66.2207C113.727 66.5065 114.489 66.3829 114.785 65.7959C116.087 63.1698 116.102 60.2734 115.813 57.4079Z" fill="#00A99D"/>
<path d="M81.5905 58.9062C81.3169 56.233 80.935 53.5727 80.5023 50.9254C80.4513 50.6219 80.2477 50.4217 79.9931 50.3184C79.8531 50.0472 79.5794 49.8471 79.1785 49.86C78.1475 49.8923 77.6575 50.7769 77.5811 51.7325C77.4729 53.1014 77.5111 54.4896 77.4029 55.8649C77.3075 57.0853 77.3138 58.5123 76.7729 59.6358C76.251 60.7076 75.4873 61.6052 75.0418 62.7287C74.7045 63.5874 74.0872 65.1629 74.6091 66.0411C75.22 67.0677 76.8302 66.5964 77.7784 66.5189C78.2557 66.4802 78.7585 66.4672 79.1721 66.2025C79.2549 66.2154 79.344 66.2348 79.4076 66.2735C79.8468 66.5124 80.4832 66.4091 80.7314 65.9184C81.826 63.723 81.8387 61.3017 81.5905 58.9062Z" fill="#00A99D"/>
<path d="M98.8937 89.9901C98.6201 87.317 98.2382 84.6567 97.8055 82.0093C97.7546 81.7059 97.5509 81.5057 97.2963 81.4024C97.1563 81.1312 96.8827 80.931 96.4817 80.944C95.4507 80.9762 94.9607 81.8608 94.8843 82.8165C94.7761 84.1853 94.8143 85.5736 94.7061 86.9489C94.6107 88.1693 94.617 89.5963 94.0761 90.7198C93.5542 91.7916 92.7905 92.6891 92.3451 93.8127C92.0078 94.6714 91.3904 96.2469 91.9123 97.1251C92.5233 98.1517 94.1334 97.6804 95.0816 97.6029C95.5589 97.5641 96.0617 97.5512 96.4754 97.2865C96.5581 97.2994 96.6472 97.3188 96.7109 97.3575C97.15 97.5964 97.7864 97.4931 98.0346 97.0024C99.1292 94.807 99.1419 92.3857 98.8937 89.9901Z" fill="#00A99D"/>
<path d="M132.756 89.9901C132.482 87.317 132.1 84.6567 131.668 82.0093C131.617 81.7059 131.413 81.5057 131.159 81.4024C131.019 81.1312 130.745 80.931 130.344 80.944C129.313 80.9762 128.823 81.8608 128.747 82.8165C128.638 84.1853 128.677 85.5736 128.568 86.9489C128.473 88.1693 128.479 89.5963 127.938 90.7198C127.416 91.7916 126.653 92.6891 126.207 93.8127C125.87 94.6714 125.253 96.2469 125.775 97.1251C126.385 98.1517 127.996 97.6804 128.944 97.6029C129.421 97.5641 129.924 97.5512 130.338 97.2865C130.42 97.2994 130.509 97.3188 130.573 97.3575C131.012 97.5964 131.649 97.4931 131.897 97.0024C132.991 94.807 133.004 92.3857 132.756 89.9901Z" fill="#00A99D"/>
<path d="M106.911 22.4835C106.921 22.4835 106.931 22.4734 106.931 22.4734C106.941 22.4632 106.951 22.4531 106.971 22.4429C106.981 22.4328 106.991 22.4125 107.011 22.4023C106.921 22.4429 106.891 22.4734 106.911 22.4835Z" fill="#1E1E1E"/>
<path d="M110.031 20.0181C109.511 18.273 108.091 16.8729 106.211 16.9135C105.231 16.9337 104.261 17.2889 103.441 17.8164C102.551 18.3846 101.801 19.1455 101.511 20.2007C101.481 20.3022 101.471 20.4138 101.461 20.5254C101.231 20.9211 101.081 21.3168 101.061 21.8241C101.031 22.3516 101.181 22.8894 101.411 23.3662C101.811 24.1678 102.571 24.7258 103.361 25.0809C105.011 25.8215 107.041 26.1766 108.611 25.0301C109.421 24.4417 109.991 23.6199 110.161 22.6053C110.311 21.753 110.281 20.8602 110.031 20.0181ZM107.221 21.8849C107.221 21.8951 107.211 21.9154 107.211 21.9357C107.211 21.9762 107.211 22.0067 107.211 22.0067C107.201 21.9965 107.201 21.9762 107.201 21.9661C107.181 22.027 107.161 22.1183 107.141 22.1792C107.181 22.1081 107.231 22.027 107.161 22.169C107.151 22.1792 107.141 22.1995 107.131 22.2197C107.121 22.2502 107.121 22.2705 107.121 22.2705C107.111 22.2603 107.121 22.2502 107.121 22.2299C107.091 22.2705 107.071 22.3111 107.041 22.3618C107.031 22.3719 107.011 22.3922 107.001 22.4024C107.011 22.4024 107.021 22.3922 107.021 22.3922C107.021 22.3922 107.021 22.4024 107.011 22.4024C106.991 22.4227 106.971 22.4328 106.951 22.443C106.921 22.4734 106.901 22.4835 106.891 22.4835C106.821 22.5241 106.761 22.5546 106.691 22.5951C106.631 22.6154 106.571 22.6357 106.511 22.6459C106.471 22.656 106.431 22.6662 106.391 22.6763C106.281 22.6865 106.161 22.6966 106.051 22.6865C105.981 22.6865 105.921 22.6763 105.851 22.6763C105.711 22.6459 105.571 22.6256 105.431 22.585C105.251 22.5343 105.081 22.4835 104.911 22.4125C104.851 22.3922 104.801 22.3719 104.741 22.3516C104.621 22.2908 104.491 22.2299 104.371 22.1589C104.321 22.1284 104.261 22.0878 104.211 22.0574C104.211 22.0574 104.211 22.0574 104.201 22.0574C104.171 22.027 104.131 21.9965 104.101 21.956C104.211 21.7632 104.281 21.5603 104.301 21.3269C104.341 21.2457 104.381 21.1544 104.411 21.053C104.401 21.053 104.401 21.0428 104.431 20.9819C104.431 20.9718 104.441 20.9718 104.441 20.9617C104.451 20.9515 104.451 20.9414 104.451 20.9211L104.461 20.9109V20.9211C104.461 20.9109 104.471 20.9008 104.471 20.9008C104.541 20.8399 104.621 20.7384 104.681 20.6776C104.691 20.6674 104.731 20.637 104.761 20.6066C104.771 20.5964 104.781 20.5863 104.791 20.5863C105.001 20.4442 105.221 20.3225 105.451 20.2007C105.471 20.1906 105.471 20.1906 105.481 20.1804C105.511 20.1703 105.541 20.1601 105.541 20.1601C105.681 20.1094 105.821 20.0688 105.961 20.0282C105.991 20.0181 106.031 20.0181 106.061 20.0079C106.161 20.0079 106.261 20.0079 106.361 20.0079C106.401 20.0181 106.441 20.0282 106.481 20.0384C106.491 20.0384 106.511 20.0485 106.531 20.0587C106.541 20.0688 106.561 20.0688 106.561 20.079C106.581 20.0891 106.601 20.1094 106.631 20.1196C106.691 20.1804 106.761 20.2413 106.811 20.292C106.821 20.3022 106.821 20.3123 106.831 20.3123C106.891 20.4036 106.941 20.5051 106.991 20.6066C106.991 20.5863 106.981 20.5761 106.981 20.5457C106.981 20.5761 107.001 20.6167 107.021 20.6471C107.031 20.6573 107.031 20.6674 107.041 20.6776C107.061 20.7283 107.061 20.7486 107.061 20.7587C107.091 20.8501 107.121 20.9414 107.141 21.0428C107.151 21.0631 107.161 21.124 107.181 21.195C107.181 21.2052 107.181 21.2153 107.181 21.2255C107.181 21.3066 107.191 21.3776 107.201 21.4588C107.201 21.5704 107.211 21.6922 107.201 21.8038C107.201 21.8038 107.201 21.8139 107.201 21.8241C107.231 21.8038 107.241 21.7936 107.221 21.8849Z" fill="#1E1E1E"/>
<path d="M107.201 21.966C107.201 21.9559 107.211 21.9457 107.211 21.9356C107.211 21.895 107.221 21.8544 107.221 21.8341C107.201 21.8645 107.191 21.9153 107.201 21.966Z" fill="#1E1E1E"/>
<path d="M107.131 22.2092C107.131 22.1992 107.141 22.1892 107.141 22.1792C107.131 22.1992 107.131 22.2092 107.121 22.2192C107.131 22.2192 107.131 22.2192 107.131 22.2092Z" fill="#1E1E1E"/>
<path d="M107.081 20.7689C107.071 20.7486 107.071 20.7384 107.071 20.7182C107.071 20.708 107.061 20.6776 107.051 20.6573C107.041 20.6471 107.031 20.6268 107.031 20.6167C107.041 20.7283 107.071 20.779 107.081 20.7689Z" fill="#1E1E1E"/>
<path d="M104.481 20.9211C104.471 20.9313 104.461 20.9516 104.461 20.9617C104.451 20.9922 104.441 21.0125 104.441 21.0226C104.441 21.0327 104.431 21.0429 104.431 21.053C104.441 21.053 104.461 21.0023 104.481 20.9211Z" fill="#1E1E1E"/>
<path d="M139.981 136.837C137.651 119.508 138.071 112.244 138.731 94.8031C139.401 77.1696 140.021 80.1728 139.371 62.5292C139.001 52.5862 138.321 42.6534 137.351 32.751C137.271 31.9394 136.721 31.1784 135.831 31.2089C134.591 31.2393 133.281 31.2799 131.961 31.3103C131.941 30.4378 131.961 29.5652 132.011 28.6927C132.031 28.3376 131.841 27.9115 131.601 27.6477C131.371 27.2418 130.951 26.9578 130.341 26.9882C128.191 27.0998 126.031 27.181 123.881 27.2824C124.071 26.7548 124.191 26.2171 124.231 25.6489C124.281 24.9895 124.151 24.2792 123.821 23.7111C123.421 23.0212 122.791 22.595 122.071 22.3211C121.551 22.1283 120.991 22.0674 120.451 22.0066C120.091 21.966 119.621 22.2095 119.381 22.4631C119.281 22.5646 119.201 22.6965 119.121 22.8385C118.751 22.94 118.421 23.1733 118.191 23.5386C117.521 24.5836 117.011 25.9229 117.481 27.1607C117.541 27.3027 117.601 27.4346 117.681 27.5665C116.391 27.6172 115.101 27.668 113.811 27.7085C116.131 25.517 116.891 22.0877 115.881 18.8918C114.511 14.5392 110.301 11.6274 105.801 12.0738C104.981 12.1549 104.281 12.7231 104.281 13.6159C104.281 14.387 104.981 15.2393 105.801 15.1581C108.541 14.8943 111.151 16.122 112.491 18.6179C113.731 20.9413 113.631 24.1271 111.391 25.7707C109.031 27.4955 105.621 27.4549 102.851 27.2013C100.371 26.978 98.1409 25.7605 98.1909 22.94C98.2209 21.3572 98.9808 19.9064 99.8508 18.6483C100.671 17.4511 101.741 16.335 103.161 15.9393C105.041 15.4118 104.241 12.4289 102.351 12.9565C99.4208 13.7783 96.9509 16.6394 95.8309 19.6324C95.3909 19.3889 94.9009 19.2063 94.4509 19.0034L91.7309 17.7757C91.0009 17.4409 90.0809 17.5322 89.6509 18.3338C88.4009 20.6572 85.4509 21.3877 83.4709 19.5208C81.4509 17.6134 82.0309 13.9102 83.2809 11.6984C84.2309 10.0243 86.8309 8.57345 88.2209 10.6026C88.8709 11.5462 89.6709 12.5912 90.9809 12.1651C91.7409 11.9216 92.2909 11.1606 92.8109 10.6026L94.7109 8.5633C95.3709 7.85309 95.1909 6.9704 94.6709 6.42253C94.6509 6.20946 94.5909 5.9964 94.5109 5.78334C92.6409 1.26843 87.2009 -0.405639 82.7609 0.0813626C80.1709 0.365447 77.5709 1.33945 75.7409 3.2976C73.8909 5.28619 72.8709 8.0763 72.3709 10.7244C71.6809 14.3566 71.9109 18.2932 73.2009 21.8037C73.1909 21.7935 73.1809 21.7935 73.1809 21.7834C73.4909 22.3718 73.7909 22.9501 74.0909 23.5386C74.3909 24.1372 74.7009 24.746 75.0009 25.3446C75.2509 25.7301 75.5008 26.1055 75.7908 26.4606C76.3408 27.1505 76.9709 27.739 77.6509 28.2564C75.8309 28.2463 74.0209 28.2666 72.2009 28.2463C71.3709 28.2361 70.9009 28.784 70.7709 29.4232C70.7309 29.5551 70.7109 29.687 70.7109 29.829V32.1829C70.7109 32.4061 70.7709 32.6293 70.8609 32.8322C69.7409 32.8626 68.6309 32.8931 67.5109 32.9235C67.3509 32.9235 67.1908 32.9337 67.0408 32.9438C66.5508 32.7308 65.9709 32.7815 65.4909 33.2989C65.4809 33.3091 65.4709 33.3294 65.4509 33.3395C65.0009 33.583 64.6209 33.9483 64.3909 34.557C64.2509 34.9223 64.1708 35.3179 64.1308 35.7238C63.8308 36.7181 63.7108 37.7834 63.6608 38.8589C63.5408 41.4258 63.6909 43.9927 63.9209 46.5393C63.9909 47.2698 64.0609 48.0003 64.1409 48.7409L64.9309 71.5691C64.8609 73.4461 64.8009 75.3129 64.8009 77.1899C64.8009 81.5932 65.1809 85.9762 65.5809 90.3593L65.9709 101.611C65.6309 116.617 66.5509 122.735 66.2109 137.74C66.2009 138.025 66.2709 138.268 66.3709 138.481C66.4509 139.171 66.9308 139.8 67.8208 139.79C86.1008 139.567 104.381 139.526 122.661 139.668C127.861 139.709 133.061 139.759 138.261 139.83C139.291 139.841 139.771 138.999 139.721 138.187C139.941 137.811 140.041 137.335 139.981 136.837ZM120.351 26.0548C120.371 25.9432 120.401 25.8316 120.441 25.72C120.541 25.517 120.651 25.3243 120.771 25.1416C120.891 25.1721 121.011 25.2025 121.121 25.2431C121.141 25.2532 121.161 25.2634 121.191 25.2837C121.191 25.2938 121.201 25.304 121.201 25.3141C121.201 25.4359 121.201 25.5576 121.191 25.6895C121.161 25.862 121.121 26.0345 121.061 26.207C121.051 26.2273 121.041 26.2475 121.031 26.2678C120.981 26.2678 120.921 26.2678 120.871 26.2678C120.751 26.2374 120.631 26.207 120.511 26.1664C120.461 26.1359 120.411 26.1055 120.351 26.0751V26.0548ZM95.5109 25.1619C95.8609 26.3084 96.4909 27.3129 97.3409 28.1347C95.7209 28.1651 94.1009 28.1854 92.4809 28.2057C93.6509 27.3737 94.7009 26.3591 95.5109 25.1619ZM75.1109 12.6825C75.3509 10.5722 75.9609 8.3401 77.0809 6.53413C78.1909 4.73831 79.9709 3.73387 81.9809 3.2976C85.5609 2.52652 90.1908 3.5411 91.8208 7.19361C91.4108 7.67047 90.9809 8.14732 90.5509 8.59374C90.3409 8.29951 90.1109 8.03572 89.8409 7.79222C89.3409 7.35595 88.7508 7.03128 88.1308 6.81822C86.8008 6.3718 85.2909 6.46311 84.0009 7.00084C80.8109 8.3401 79.4509 12.0636 79.1909 15.3306C78.9209 18.8614 80.6608 22.2095 84.0708 23.3458C86.7908 24.2488 89.7309 23.1733 91.5009 21.0123C92.1209 21.2964 92.7509 21.5804 93.3709 21.8544C93.4209 21.8747 93.5509 21.9457 93.7009 22.0167C93.5409 22.3515 93.3809 22.8081 93.2509 23.0212C92.3209 24.5633 90.9009 25.8316 89.2509 26.5418C85.5209 28.155 80.6709 27.7288 78.0209 24.4213C75.4909 21.2456 74.6709 16.68 75.1109 12.6825ZM128.921 30.1334C128.911 30.5494 128.921 30.9654 128.931 31.3814C116.881 31.6756 102.491 31.9698 91.6109 32.264C85.6109 32.4264 79.6209 32.5887 73.6209 32.751C73.6909 32.5684 73.7409 32.3756 73.7409 32.1727V31.3306C92.1309 31.493 110.541 31.0871 128.921 30.1334ZM86.8909 119.721L86.2109 136.543C85.2709 136.543 84.3308 136.543 83.3808 136.553C81.7008 136.564 80.0209 136.584 78.3309 136.604C78.6209 135.001 78.2509 133.185 78.2209 131.612C78.1809 129.512 78.2409 127.402 78.3609 125.312C78.5809 121.588 78.9909 117.885 79.4309 114.182C80.2509 114.121 81.0608 114.07 81.8808 114.009C81.7208 118.818 81.4709 123.617 81.1109 128.416C81.0509 129.248 81.8508 129.959 82.6308 129.959C83.5008 129.959 84.0809 129.248 84.1509 128.416C84.5109 123.546 84.7609 118.676 84.9209 113.806C85.3909 113.776 85.8609 113.745 86.3309 113.705C86.5109 113.695 86.7909 113.715 87.0509 113.715C87.0009 114.212 87.0908 114.953 87.0708 115.288L86.8909 119.721ZM100.821 136.523C98.4508 136.523 96.0809 136.513 93.7109 136.523C93.6409 130.425 93.7609 124.328 94.0609 118.23C96.5609 118.22 99.0609 118.21 101.561 118.2C101.311 124.307 101.061 130.415 100.821 136.523ZM111.671 127.006C111.501 130.182 111.381 133.357 111.661 136.523C109.061 136.513 106.461 136.523 103.851 136.523C104.101 130.415 104.341 124.297 104.591 118.189C105.641 118.189 106.691 118.179 107.741 118.179C108.571 118.179 109.391 118.169 110.221 118.169C110.631 118.169 111.051 118.169 111.461 118.169C111.571 118.169 111.681 118.169 111.791 118.169C111.811 118.301 111.821 118.402 111.821 118.433C111.841 118.839 111.861 119.245 111.871 119.661C111.891 120.472 111.891 121.294 111.881 122.106C111.851 123.739 111.751 125.373 111.671 127.006ZM115.821 136.543C115.441 136.543 115.061 136.543 114.681 136.543C114.371 133.094 114.561 129.644 114.741 126.194C114.841 124.358 114.921 122.511 114.911 120.675C114.911 119.792 114.881 118.91 114.821 118.027C114.771 117.215 114.771 116.373 114.221 115.724C113.611 115.024 112.721 115.075 111.871 115.085C111.041 115.085 110.221 115.095 109.391 115.095C107.461 115.105 105.531 115.105 103.611 115.115C100.091 115.125 96.5709 115.135 93.0408 115.156C92.7808 115.095 92.5009 115.105 92.2409 115.176C91.2109 115.308 90.8208 116.373 91.0708 117.205C90.7308 123.638 90.6009 130.09 90.6709 136.533C90.2009 136.533 89.7209 136.533 89.2509 136.533C89.5109 130.111 89.7709 123.678 90.0309 117.256C90.0709 116.211 90.3209 114.659 90.2309 113.309C98.6909 113.269 107.161 113.309 115.621 113.461C115.631 113.898 115.661 114.314 115.661 114.699C115.701 116.921 115.771 119.133 115.841 121.355C116.001 126.408 116.121 131.47 115.821 136.543ZM116.631 110.377C105.311 110.174 94.0009 110.144 82.6809 110.276C84.9509 109.444 87.2109 108.602 89.5009 107.81C94.3809 106.126 99.3308 104.908 104.411 104.005C108.921 105.193 113.521 106.217 117.941 107.709C120.111 108.439 122.211 109.342 124.301 110.255C124.161 110.255 124.021 110.255 123.891 110.245C121.831 110.154 119.451 109.768 117.411 110.093C117.101 110.154 116.851 110.245 116.631 110.377ZM126.151 136.614C125.371 136.604 124.601 136.604 123.821 136.594C123.531 130.06 123.431 123.526 123.541 116.992C123.571 115.004 120.541 115.004 120.511 116.992C120.401 123.516 120.501 130.05 120.791 136.574C120.151 136.574 119.501 136.564 118.861 136.564C119.151 131.744 119.051 126.925 118.901 122.106C118.821 119.549 118.731 116.992 118.691 114.425C118.691 114.354 118.681 113.948 118.681 113.512C121.161 113.563 123.641 113.624 126.121 113.685C126.051 114.293 125.991 114.902 125.941 115.511C125.761 117.915 125.771 120.33 125.851 122.735C125.991 127.361 126.351 131.988 126.151 136.614ZM129.171 136.645C129.351 132.505 129.101 128.376 128.931 124.236C128.841 121.994 128.781 119.752 128.861 117.499C128.901 116.424 128.971 115.349 129.071 114.273C129.091 114.101 129.111 113.928 129.131 113.756C129.491 113.766 129.861 113.766 130.221 113.786C130.271 113.786 130.301 113.776 130.351 113.776C130.371 113.776 130.401 113.786 130.421 113.776C130.771 113.756 131.111 113.745 131.461 113.725C132.691 113.674 133.571 112.021 132.531 111.087C130.761 109.494 128.471 108.733 126.341 107.8C124.121 106.826 121.901 105.842 119.621 105.02C114.841 103.295 109.791 102.23 104.881 100.931C104.581 100.85 104.311 100.87 104.081 100.941C104.021 100.941 103.971 100.941 103.911 100.952C98.7208 101.855 93.6609 103.092 88.6809 104.817C83.8009 106.501 79.0108 108.429 74.1008 110.012C73.5508 110.194 73.2309 110.58 73.1109 111.026C72.5109 111.94 72.9009 113.502 74.3009 113.472C75.0209 113.461 75.7509 113.451 76.4709 113.441C76.0209 117.226 75.5808 121 75.3508 124.804C75.2308 126.742 75.1609 128.68 75.1709 130.628C75.1709 131.602 75.2009 132.566 75.2409 133.54C75.2909 134.504 75.5309 135.61 75.2009 136.533C75.1909 136.564 75.1909 136.594 75.1809 136.614C73.1909 136.635 71.2009 136.645 69.2209 136.675C69.4509 126.438 69.4309 117.915 69.2109 109.697C70.0209 99.9167 68.2209 90.2172 67.8609 80.467C67.6809 75.5361 68.0208 70.6255 68.1308 65.7048C68.2408 60.6927 67.9209 55.7314 67.3709 50.7498C67.2109 49.3192 67.0509 47.8785 66.9209 46.4378C66.9509 45.0783 66.9809 43.7187 67.0109 42.3592C67.0509 40.817 67.0809 39.2748 67.1209 37.7327C67.1309 37.3268 67.0709 36.7688 67.0909 36.2818C67.1309 36.1803 67.1909 36.0789 67.2409 35.9774C67.3009 35.9673 67.3809 35.9673 67.4709 35.9977C67.8909 36.1195 68.5309 35.9673 68.9809 35.9571C75.3409 35.7847 81.7009 35.6122 88.0609 35.4397C101.831 35.0643 120.661 34.6889 134.431 34.3237C136.071 51.4905 136.811 68.7486 136.601 85.9965C136.391 103.65 135.081 100.678 135.151 118.342C135.191 127.929 135.681 127.209 136.911 136.726C134.351 136.695 131.761 136.665 129.171 136.645Z" fill="#1E1E1E"/>
<path d="M83.5409 62.1132C83.6109 60.7029 83.6609 59.2926 83.7109 57.8823C83.8009 55.0618 83.8509 52.2311 83.8609 49.4105C83.8609 47.7365 83.8509 46.0726 83.8309 44.3985C83.8309 44.2767 83.8309 44.155 83.8309 44.0332C83.8309 44.0129 83.8409 44.0028 83.8409 43.9825L84.0909 41.4562C84.1709 40.6039 84.2509 39.5589 83.2309 39.1429C82.7609 38.9502 82.2309 38.94 81.7109 38.9299C79.0609 38.8791 76.4109 38.8284 73.7609 38.7675C72.9109 38.7472 71.9809 38.7574 71.2909 39.214C70.5309 39.7212 70.2709 40.6445 70.2509 41.5069C70.1909 43.6984 70.2409 45.9001 70.3009 48.0916C70.4509 53.6921 70.3709 59.3332 70.7509 64.9236C70.8309 66.0701 71.3909 66.9122 72.6109 67.2876C73.8909 67.6833 75.3509 67.8151 76.7009 67.8963C78.7709 68.0181 82.5309 68.363 83.2409 66.0295C83.6109 64.8221 83.4809 63.3611 83.5409 62.1132ZM80.7609 65.5019C80.7209 65.5323 79.6309 65.5628 79.4909 65.5729C78.5009 65.6439 77.5009 65.6338 76.5109 65.5526C75.9909 65.512 75.4709 65.4613 74.9509 65.3801C74.5609 65.3193 73.5709 65.299 73.2809 65.0352C73.3209 65.0758 73.2909 64.1728 73.2809 64.0206C73.2709 63.5032 73.2509 62.9959 73.2409 62.4784L73.1509 59.2115C73.0909 57.1011 73.0409 54.9806 72.9809 52.8703C72.9209 50.5773 72.8309 48.2032 72.8309 45.8798C72.8309 44.6724 72.8609 43.4651 72.9209 42.2577C72.9409 41.8113 72.8109 41.3142 73.2809 41.1011C73.5909 40.959 74.1309 41.1011 74.4709 41.1112C75.3909 41.1214 76.3009 41.1315 77.2209 41.1518C78.1009 41.1721 78.9809 41.1924 79.8509 41.2228C80.2909 41.233 80.7309 41.2533 81.1709 41.2634C81.2909 41.2634 81.4109 41.2736 81.5309 41.2736C81.2109 44.5507 81.3209 47.8379 81.2909 51.1252C81.2609 54.4835 81.1709 57.8316 81.0209 61.1798C80.9709 62.2045 80.9209 63.2292 80.8709 64.2539C80.8509 64.4974 80.9709 65.3193 80.7609 65.5019Z" fill="#1E1E1E"/>
<path d="M87.1509 44.3681C87.0809 45.7784 87.0309 47.1886 86.9809 48.5989C86.8909 51.4195 86.8409 54.2501 86.8309 57.0707C86.8309 58.7448 86.8409 60.4087 86.8609 62.0828C86.8609 62.2045 86.8609 62.3263 86.8609 62.448C86.8609 62.4683 86.8509 62.4784 86.8509 62.4987L86.6009 65.0251C86.5209 65.8773 86.4409 66.9223 87.4609 67.3383C87.9309 67.5311 88.4609 67.5412 88.9809 67.5514C91.6309 67.6021 94.2809 67.6528 96.9309 67.7137C97.7809 67.734 98.7109 67.7239 99.4009 67.2673C100.161 66.76 100.421 65.8367 100.441 64.9743C100.501 62.7828 100.451 60.5812 100.391 58.3897C100.241 52.7891 100.321 47.148 99.9409 41.5577C99.8609 40.4112 99.3009 39.5691 98.0809 39.1937C96.8009 38.798 95.3409 38.6661 93.9909 38.5849C91.9209 38.4632 88.1609 38.1182 87.4509 40.4518C87.0809 41.6693 87.2109 43.1201 87.1509 44.3681ZM89.9309 40.9895C89.9709 40.9591 91.0609 40.9286 91.2009 40.9185C92.1909 40.8475 93.1909 40.8576 94.1809 40.9388C94.7009 40.9794 95.2209 41.0301 95.7409 41.1113C96.1309 41.1721 97.1209 41.1924 97.4109 41.4562C97.3709 41.4156 97.4009 42.3186 97.4109 42.4708C97.4209 42.9882 97.4409 43.4955 97.4509 44.013L97.5409 47.2799C97.6009 49.3903 97.6509 51.5108 97.7109 53.6211C97.7709 55.9141 97.8609 58.2882 97.8609 60.6116C97.8609 61.819 97.8309 63.0263 97.7709 64.2337C97.7509 64.6801 97.8809 65.1772 97.4109 65.3903C97.1009 65.5323 96.5609 65.3903 96.2209 65.3802C95.3009 65.37 94.3909 65.3599 93.4709 65.3396C92.5909 65.3193 91.7109 65.299 90.8409 65.2686C90.4009 65.2584 89.9609 65.2381 89.5209 65.228C89.4009 65.228 89.2809 65.2178 89.1609 65.2178C89.4809 61.9407 89.3709 58.6535 89.4009 55.3662C89.4309 52.0079 89.5209 48.6598 89.6709 45.3116C89.7209 44.2869 89.7709 43.2622 89.8209 42.2374C89.8309 41.9939 89.7209 41.1721 89.9309 40.9895Z" fill="#1E1E1E"/>
<path d="M116.291 62.1132C116.361 60.7029 116.411 59.2926 116.461 57.8823C116.551 55.0618 116.601 52.2311 116.611 49.4105C116.611 47.7365 116.601 46.0726 116.581 44.3985C116.581 44.2767 116.581 44.155 116.581 44.0332C116.581 44.0129 116.591 44.0028 116.591 43.9825L116.841 41.4562C116.921 40.6039 117.001 39.5589 115.981 39.1429C115.511 38.9502 114.981 38.94 114.461 38.9299C111.811 38.8791 109.161 38.8284 106.511 38.7675C105.661 38.7472 104.731 38.7574 104.041 39.214C103.281 39.7212 103.021 40.6445 103.001 41.5069C102.941 43.6984 102.991 45.9001 103.051 48.0916C103.201 53.6921 103.121 59.3332 103.501 64.9236C103.581 66.0701 104.141 66.9122 105.361 67.2876C106.641 67.6833 108.101 67.8151 109.451 67.8963C111.521 68.0181 115.281 68.363 115.991 66.0295C116.361 64.8221 116.231 63.3611 116.291 62.1132ZM113.511 65.5019C113.471 65.5323 112.381 65.5628 112.241 65.5729C111.251 65.6439 110.251 65.6338 109.261 65.5526C108.741 65.512 108.221 65.4613 107.701 65.3801C107.311 65.3193 106.321 65.299 106.031 65.0352C106.071 65.0758 106.041 64.1728 106.031 64.0206C106.021 63.5032 106.001 62.9959 105.991 62.4784L105.901 59.2115C105.841 57.1011 105.791 54.9806 105.731 52.8703C105.671 50.5773 105.581 48.2032 105.581 45.8798C105.581 44.6724 105.611 43.4651 105.671 42.2577C105.691 41.8113 105.561 41.3142 106.031 41.1011C106.341 40.959 106.881 41.1011 107.221 41.1112C108.141 41.1214 109.051 41.1315 109.971 41.1518C110.851 41.1721 111.731 41.1924 112.601 41.2228C113.041 41.233 113.481 41.2533 113.921 41.2634C114.041 41.2634 114.161 41.2736 114.281 41.2736C113.961 44.5507 114.071 47.8379 114.041 51.1252C114.011 54.4835 113.921 57.8316 113.771 61.1798C113.721 62.2045 113.671 63.2292 113.621 64.2539C113.611 64.4974 113.721 65.3193 113.511 65.5019Z" fill="#1E1E1E"/>
<path d="M119.901 44.3681C119.831 45.7784 119.781 47.1886 119.731 48.5989C119.641 51.4195 119.591 54.2501 119.581 57.0707C119.581 58.7448 119.591 60.4087 119.611 62.0828C119.611 62.2045 119.611 62.3263 119.611 62.448C119.611 62.4683 119.601 62.4784 119.601 62.4987L119.351 65.0251C119.271 65.8773 119.191 66.9223 120.211 67.3383C120.681 67.5311 121.211 67.5412 121.731 67.5514C124.381 67.6021 127.031 67.6528 129.681 67.7137C130.531 67.734 131.461 67.7239 132.151 67.2673C132.911 66.76 133.171 65.8367 133.191 64.9743C133.251 62.7828 133.201 60.5812 133.141 58.3897C132.991 52.7891 133.071 47.148 132.691 41.5577C132.611 40.4112 132.051 39.5691 130.831 39.1937C129.551 38.798 128.091 38.6661 126.741 38.5849C124.671 38.4632 120.911 38.1182 120.201 40.4518C119.831 41.6693 119.961 43.1201 119.901 44.3681ZM122.681 40.9895C122.721 40.9591 123.811 40.9286 123.951 40.9185C124.941 40.8475 125.941 40.8576 126.931 40.9388C127.451 40.9794 127.971 41.0301 128.491 41.1113C128.881 41.1721 129.871 41.1924 130.161 41.4562C130.121 41.4156 130.151 42.3186 130.161 42.4708C130.171 42.9882 130.191 43.4955 130.201 44.013L130.291 47.2799C130.351 49.3903 130.401 51.5108 130.461 53.6211C130.521 55.9141 130.611 58.2882 130.611 60.6116C130.611 61.819 130.581 63.0263 130.521 64.2337C130.501 64.6801 130.631 65.1772 130.161 65.3903C129.851 65.5323 129.311 65.3903 128.971 65.3802C128.051 65.37 127.141 65.3599 126.221 65.3396C125.341 65.3193 124.461 65.299 123.591 65.2686C123.151 65.2584 122.711 65.2381 122.271 65.228C122.151 65.228 122.031 65.2178 121.911 65.2178C122.231 61.9407 122.121 58.6535 122.151 55.3662C122.181 52.0079 122.271 48.6598 122.421 45.3116C122.471 44.2869 122.521 43.2622 122.571 42.2374C122.591 41.9939 122.471 41.1721 122.681 40.9895Z" fill="#1E1E1E"/>
<path d="M83.5409 93.6466C83.6109 92.2363 83.6609 90.8261 83.7109 89.4158C83.8009 86.5952 83.8509 83.7645 83.8609 80.944C83.8609 79.2699 83.8509 77.606 83.8309 75.9319C83.8309 75.8102 83.8309 75.6884 83.8309 75.5667C83.8309 75.5464 83.8409 75.5363 83.8409 75.516L84.0909 72.9896C84.1709 72.1374 84.2509 71.0924 83.2309 70.6764C82.7609 70.4836 82.2309 70.4735 81.7109 70.4633C79.0609 70.4126 76.4109 70.3619 73.7609 70.301C72.9109 70.2807 71.9809 70.2908 71.2909 70.7474C70.5309 71.2547 70.2709 72.178 70.2509 73.0404C70.1909 75.2319 70.2409 77.4335 70.3009 79.625C70.4509 85.2255 70.3709 90.8667 70.7509 96.457C70.8309 97.6035 71.3909 98.4456 72.6109 98.821C73.8909 99.2167 75.3509 99.3486 76.7009 99.4298C78.7709 99.5515 82.5309 99.8965 83.2409 97.5629C83.6109 96.3454 83.4809 94.8844 83.5409 93.6466ZM80.7609 97.0252C80.7209 97.0556 79.6309 97.0861 79.4909 97.0962C78.5009 97.1672 77.5009 97.1571 76.5109 97.0759C75.9909 97.0353 75.4709 96.9846 74.9509 96.9034C74.5609 96.8426 73.5709 96.8223 73.2809 96.5585C73.3209 96.5991 73.2909 95.6961 73.2809 95.5439C73.2709 95.0265 73.2509 94.5192 73.2409 94.0017L73.1509 90.7348C73.0909 88.6244 73.0409 86.5039 72.9809 84.3936C72.9209 82.1006 72.8309 79.7265 72.8309 77.4031C72.8309 76.1957 72.8609 74.9884 72.9209 73.781C72.9409 73.3346 72.8109 72.8374 73.2809 72.6244C73.5909 72.4823 74.1309 72.6244 74.4709 72.6345C75.3909 72.6447 76.3009 72.6548 77.2209 72.6751C78.1009 72.6954 78.9809 72.7157 79.8509 72.7461C80.2909 72.7563 80.7309 72.7766 81.1709 72.7867C81.2909 72.7867 81.4109 72.7969 81.5309 72.7969C81.2109 76.074 81.3209 79.3612 81.2909 82.6485C81.2609 86.0068 81.1709 89.3549 81.0209 92.703C80.9709 93.7278 80.9209 94.7525 80.8709 95.7773C80.8509 96.0208 80.9709 96.8426 80.7609 97.0252Z" fill="#1E1E1E"/>
<path d="M87.1509 75.8913C87.0809 77.3015 87.0309 78.7118 86.9809 80.1221C86.8909 82.9427 86.8409 85.7733 86.8309 88.5939C86.8309 90.268 86.8409 91.9319 86.8609 93.6059C86.8609 93.7277 86.8609 93.8494 86.8609 93.9712C86.8609 93.9915 86.8509 94.0016 86.8509 94.0219L86.6009 96.5483C86.5209 97.4005 86.4409 98.4455 87.4609 98.8615C87.9309 99.0543 88.4609 99.0644 88.9809 99.0746C91.6309 99.1253 94.2809 99.176 96.9309 99.2369C97.7809 99.2572 98.7109 99.247 99.4009 98.7905C100.161 98.2832 100.421 97.3599 100.441 96.4975C100.501 94.306 100.451 92.1044 100.391 89.9129C100.241 84.3123 100.321 78.6712 99.9409 73.0809C99.8609 71.9344 99.3009 71.0923 98.0809 70.7169C96.8009 70.3212 95.3409 70.1893 93.9909 70.1081C91.9209 69.9864 88.1609 69.6414 87.4509 71.975C87.0809 73.1925 87.2109 74.6535 87.1509 75.8913ZM89.9309 72.5127C89.9709 72.4823 91.0609 72.4518 91.2009 72.4417C92.1909 72.3707 93.1909 72.3808 94.1809 72.462C94.7009 72.5026 95.2209 72.5533 95.7409 72.6345C96.1309 72.6953 97.1209 72.7156 97.4109 72.9794C97.3709 72.9388 97.4009 73.8418 97.4109 73.994C97.4209 74.5114 97.4409 75.0187 97.4509 75.5362L97.5409 78.8031C97.6009 80.9135 97.6509 83.034 97.7109 85.1443C97.7709 87.4373 97.8609 89.8114 97.8609 92.1348C97.8609 93.3422 97.8309 94.5495 97.7709 95.7569C97.7509 96.2033 97.8809 96.7004 97.4109 96.9135C97.1009 97.0555 96.5609 96.9135 96.2209 96.9034C95.3009 96.8932 94.3909 96.8831 93.4709 96.8628C92.5909 96.8425 91.7109 96.8222 90.8409 96.7918C90.4009 96.7816 89.9609 96.7613 89.5209 96.7512C89.4009 96.7512 89.2809 96.741 89.1609 96.741C89.4809 93.4639 89.3709 90.1767 89.4009 86.8894C89.4309 83.5311 89.5209 80.183 89.6709 76.8348C89.7209 75.8101 89.7709 74.7854 89.8209 73.7606C89.8309 73.5171 89.7209 72.6953 89.9309 72.5127Z" fill="#1E1E1E"/>
<path d="M116.291 93.6466C116.361 92.2363 116.411 90.8261 116.461 89.4158C116.551 86.5952 116.601 83.7645 116.611 80.944C116.611 79.2699 116.601 77.606 116.581 75.9319C116.581 75.8102 116.581 75.6884 116.581 75.5667C116.581 75.5464 116.591 75.5363 116.591 75.516L116.841 72.9896C116.921 72.1374 117.001 71.0924 115.981 70.6764C115.511 70.4836 114.981 70.4735 114.461 70.4633C111.811 70.4126 109.161 70.3619 106.511 70.301C105.661 70.2807 104.731 70.2908 104.041 70.7474C103.281 71.2547 103.021 72.178 103.001 73.0404C102.941 75.2319 102.991 77.4335 103.051 79.625C103.201 85.2255 103.121 90.8667 103.501 96.457C103.581 97.6035 104.141 98.4456 105.361 98.821C106.641 99.2167 108.101 99.3486 109.451 99.4298C111.521 99.5515 115.281 99.8965 115.991 97.5629C116.361 96.3454 116.231 94.8844 116.291 93.6466ZM113.511 97.0252C113.471 97.0556 112.381 97.0861 112.241 97.0962C111.251 97.1672 110.251 97.1571 109.261 97.0759C108.741 97.0353 108.221 96.9846 107.701 96.9034C107.311 96.8426 106.321 96.8223 106.031 96.5585C106.071 96.5991 106.041 95.6961 106.031 95.5439C106.021 95.0265 106.001 94.5192 105.991 94.0017L105.901 90.7348C105.841 88.6244 105.791 86.5039 105.731 84.3936C105.671 82.1006 105.581 79.7265 105.581 77.4031C105.581 76.1957 105.611 74.9884 105.671 73.781C105.691 73.3346 105.561 72.8374 106.031 72.6244C106.341 72.4823 106.881 72.6244 107.221 72.6345C108.141 72.6447 109.051 72.6548 109.971 72.6751C110.851 72.6954 111.731 72.7157 112.601 72.7461C113.041 72.7563 113.481 72.7766 113.921 72.7867C114.041 72.7867 114.161 72.7969 114.281 72.7969C113.961 76.074 114.071 79.3612 114.041 82.6485C114.011 86.0068 113.921 89.3549 113.771 92.703C113.721 93.7278 113.671 94.7525 113.621 95.7773C113.611 96.0208 113.721 96.8426 113.511 97.0252Z" fill="#1E1E1E"/>
<path d="M119.901 75.8913C119.831 77.3015 119.781 78.7118 119.731 80.1221C119.641 82.9427 119.591 85.7733 119.581 88.5939C119.581 90.268 119.591 91.9319 119.611 93.6059C119.611 93.7277 119.611 93.8494 119.611 93.9712C119.611 93.9915 119.601 94.0016 119.601 94.0219L119.351 96.5483C119.271 97.4005 119.191 98.4455 120.211 98.8615C120.681 99.0543 121.211 99.0644 121.731 99.0746C124.381 99.1253 127.031 99.176 129.681 99.2369C130.531 99.2572 131.461 99.247 132.151 98.7905C132.911 98.2832 133.171 97.3599 133.191 96.4975C133.251 94.306 133.201 92.1044 133.141 89.9129C132.991 84.3123 133.071 78.6712 132.691 73.0809C132.611 71.9344 132.051 71.0923 130.831 70.7169C129.551 70.3212 128.091 70.1893 126.741 70.1081C124.671 69.9864 120.911 69.6414 120.201 71.975C119.831 73.1925 119.961 74.6535 119.901 75.8913ZM122.681 72.5127C122.721 72.4823 123.811 72.4518 123.951 72.4417C124.941 72.3707 125.941 72.3808 126.931 72.462C127.451 72.5026 127.971 72.5533 128.491 72.6345C128.881 72.6953 129.871 72.7156 130.161 72.9794C130.121 72.9388 130.151 73.8418 130.161 73.994C130.171 74.5114 130.191 75.0187 130.201 75.5362L130.291 78.8031C130.351 80.9135 130.401 83.034 130.461 85.1443C130.521 87.4373 130.611 89.8114 130.611 92.1348C130.611 93.3422 130.581 94.5495 130.521 95.7569C130.501 96.2033 130.631 96.7004 130.161 96.9135C129.851 97.0555 129.311 96.9135 128.971 96.9034C128.051 96.8932 127.141 96.8831 126.221 96.8628C125.341 96.8425 124.461 96.8222 123.591 96.7918C123.151 96.7816 122.711 96.7613 122.271 96.7512C122.151 96.7512 122.031 96.741 121.911 96.741C122.231 93.4639 122.121 90.1767 122.151 86.8894C122.181 83.5311 122.271 80.183 122.421 76.8348C122.471 75.8101 122.521 74.7854 122.571 73.7606C122.591 73.5171 122.471 72.6953 122.681 72.5127Z" fill="#1E1E1E"/>
<path d="M107.891 126.083C107.931 125.707 107.691 125.241 107.451 124.987C107.191 124.723 106.761 124.52 106.381 124.53C105.991 124.551 105.581 124.683 105.311 124.987L105.071 125.301C104.931 125.545 104.861 125.799 104.861 126.083C104.751 127.189 104.721 128.295 104.761 129.411C104.781 129.816 104.921 130.212 105.201 130.506C105.461 130.77 105.891 130.973 106.271 130.963C106.661 130.943 107.071 130.811 107.341 130.506C107.611 130.212 107.801 129.827 107.781 129.411C107.751 128.295 107.781 127.178 107.891 126.083Z" fill="#1E1E1E"/>
<path d="M100.601 125.677C100.661 125.251 100.671 124.875 100.451 124.49C100.271 124.165 99.9109 123.861 99.5409 123.78C99.1509 123.688 98.7209 123.709 98.3709 123.932C98.0609 124.135 97.7309 124.47 97.6709 124.855C97.4509 126.326 97.3509 127.808 97.4509 129.299C97.4809 129.715 97.6009 130.09 97.8909 130.395C98.1509 130.659 98.5809 130.862 98.9609 130.851C99.3509 130.831 99.7609 130.699 100.031 130.395C100.291 130.101 100.501 129.705 100.471 129.299C100.391 128.102 100.421 126.915 100.571 125.728C100.591 125.707 100.591 125.697 100.601 125.677Z" fill="#1E1E1E"/>
<path d="M62.3209 97.4106C62.3609 96.6091 61.8709 95.7873 60.8609 95.7975C45.4209 95.9902 29.9909 96.183 14.5509 96.3758C14.2609 96.3047 13.9509 96.3048 13.6709 96.3859C10.2309 96.4265 6.78088 96.4671 3.34088 96.5178C2.46088 96.1931 1.24088 96.6497 1.20088 97.9078C0.800885 111.067 0.400888 124.226 0.00088777 137.385C-0.0191122 138.045 0.300888 138.481 0.750888 138.704C0.990888 139.019 1.37089 139.232 1.91089 139.191C21.2509 137.71 40.5809 140.987 59.9209 139.688C60.8709 139.628 61.3609 138.846 61.3809 138.085C61.8009 137.862 62.0909 137.436 62.0109 136.787C60.6009 124.084 60.7509 111.209 62.5809 98.5571C62.6409 98.1107 62.5309 97.7252 62.3209 97.4106ZM49.9709 113.056C49.6609 112.284 49.6109 111.432 49.6209 110.6C51.9509 110.692 54.2909 110.803 56.6209 110.935C56.2409 112.376 55.4409 113.756 54.1109 114.395C52.5909 115.115 50.6409 114.75 49.9709 113.056ZM37.6709 106.704C37.6709 105.517 37.7209 104.33 37.8209 103.143C38.0409 101.824 38.2009 100.505 38.3109 99.176C41.5409 99.1354 44.7609 99.0949 47.9909 99.0543C47.3209 101.469 47.0309 103.975 46.8309 106.481C46.7009 106.704 46.6209 106.968 46.6309 107.293C46.6309 107.333 46.6209 107.364 46.6209 107.404C43.6409 107.303 40.6509 107.232 37.6709 107.171C37.6709 107.009 37.6709 106.856 37.6709 106.704ZM45.6609 110.468C45.6209 110.55 45.5709 110.641 45.5309 110.722C45.0309 111.615 44.4709 112.487 43.7009 113.167C42.2909 114.405 40.0909 114.415 38.8909 112.863C38.3209 112.132 38.0209 111.219 37.8609 110.276C40.4609 110.316 43.0609 110.377 45.6609 110.468ZM25.6409 105.568C26.0009 103.62 26.3109 101.662 26.6109 99.7138C26.6409 99.5819 26.6709 99.45 26.7109 99.3181C29.5609 99.2775 32.4109 99.2471 35.2609 99.2065C35.0909 100.323 34.9609 101.449 34.8609 102.585C34.6009 104.117 34.2609 105.619 33.8309 107.11C31.0809 107.08 28.3309 107.07 25.5809 107.08C25.5709 106.572 25.6009 106.075 25.6409 105.568ZM32.7909 110.194C32.0709 111.889 31.0009 113.522 29.1609 113.766C27.1009 114.05 26.1309 112.031 25.7509 110.164C28.0909 110.164 30.4409 110.174 32.7909 110.194ZM15.7609 99.45C18.3609 99.4195 20.9609 99.3891 23.5609 99.3485C23.0709 101.307 22.7509 103.295 22.6009 105.314C22.4909 105.913 22.3609 106.511 22.2309 107.11C19.8509 107.13 17.4809 107.181 15.1009 107.232C15.5609 104.665 15.7809 102.057 15.7609 99.45ZM21.4809 110.215C21.2809 110.884 21.0509 111.544 20.7409 112.163C20.2809 113.106 19.5909 114.232 18.4709 114.405C17.2109 114.598 16.0209 113.603 15.3909 112.589C14.9609 111.889 14.7009 111.128 14.5309 110.336C16.8609 110.276 19.1709 110.235 21.4809 110.215ZM4.74089 103.955C4.80089 103.133 4.8809 102.544 5.0409 101.743C5.1909 101.023 5.3509 100.312 5.4009 99.5819L12.3209 99.4905C11.7909 102.007 11.4209 104.584 11.3209 107.151C11.3209 107.212 11.3209 107.262 11.3209 107.323C9.10089 107.384 6.88089 107.455 4.66089 107.546C4.64089 106.349 4.64089 105.152 4.74089 103.955ZM7.92089 135.803C6.31089 135.853 4.69089 135.914 3.08089 136.026C3.29089 129.035 3.50089 122.045 3.72089 115.044C3.78089 115.125 3.8309 115.217 3.9009 115.298C4.7409 116.353 5.81089 117.094 6.96089 117.418C6.74089 118.646 6.75089 119.904 6.63089 121.142C6.62089 121.203 6.62089 121.253 6.61089 121.314C6.61089 121.335 6.60089 121.355 6.60089 121.395C6.57089 121.558 6.54089 121.73 6.50089 121.893C6.43089 122.217 6.3409 122.542 6.2609 122.877C6.1209 123.475 6.0509 124.044 6.0709 124.622C5.9109 124.733 5.77089 124.875 5.63089 125.068C5.31089 125.525 5.1409 126.073 5.1509 126.631C5.1709 128.132 6.29089 129.319 7.66089 129.715C7.85089 129.766 8.03088 129.817 8.23088 129.847C8.06088 131.836 7.96089 133.814 7.92089 135.803ZM6.16089 113.279C5.57089 112.508 5.20088 111.595 4.98088 110.641C7.11088 110.56 9.2409 110.479 11.3709 110.418C11.1009 111.331 10.7709 112.213 10.3309 113.005C9.92089 113.745 9.25088 114.557 8.34088 114.608C7.48088 114.648 6.65089 113.908 6.16089 113.279ZM13.2309 135.732C12.4709 135.732 11.7109 135.732 10.9509 135.742C10.9909 133.834 11.0909 131.927 11.2409 130.019C11.7109 130.009 12.1809 130.009 12.6409 130.019C13.0009 130.03 13.3609 130.03 13.7209 130.04C13.3209 131.907 13.1509 133.824 13.2309 135.732ZM19.0509 133.621C18.9809 134.331 18.9409 135.082 19.0009 135.823C18.0909 135.803 17.1809 135.772 16.2709 135.752C16.2309 134.798 16.2409 133.844 16.3209 132.891C16.3409 132.647 16.3709 132.404 16.4009 132.16C16.4009 132.15 16.4009 132.15 16.4009 132.15C16.4009 132.14 16.4009 132.14 16.4009 132.13C16.4209 132.018 16.4309 131.907 16.4509 131.795C16.5309 131.308 16.6209 130.831 16.7309 130.354C16.7509 130.273 16.7609 130.182 16.7609 130.101C17.2309 130.111 17.7009 130.121 18.1609 130.131C18.6809 130.141 19.2009 130.151 19.7209 130.161C19.3909 131.288 19.1709 132.444 19.0509 133.621ZM22.0509 135.904C22.0409 135.843 22.0209 135.772 22.0209 135.711C22.0209 135.681 22.0209 135.65 22.0209 135.63C22.0109 135.519 22.0109 135.397 22.0109 135.285C22.0009 134.737 22.0309 134.179 22.0909 133.631C22.0909 133.591 22.1009 133.489 22.1109 133.408C22.1209 133.307 22.1409 133.215 22.1509 133.114C22.1909 132.85 22.2409 132.576 22.3009 132.312C22.4209 131.765 22.5709 131.217 22.7409 130.689C22.7909 130.537 22.8009 130.375 22.7909 130.212C23.4909 130.222 24.1909 130.222 24.8909 130.233C24.3609 132.13 24.6409 134.129 25.0009 136.036C24.0209 135.985 23.0409 135.945 22.0509 135.904ZM28.0309 136.158C28.0409 135.995 28.0509 135.823 28.0109 135.65C27.9209 135.163 27.8209 134.676 27.7509 134.189C27.7409 134.098 27.6809 133.956 27.7009 133.875C27.7309 134.108 27.7309 134.139 27.7109 133.966C27.7109 133.936 27.7009 133.895 27.7009 133.865C27.6709 133.621 27.6509 133.378 27.6409 133.124C27.6109 132.678 27.6109 132.221 27.6609 131.775C27.6609 131.754 27.6709 131.724 27.6709 131.704C27.6909 131.592 27.7109 131.48 27.7309 131.369C27.7809 131.136 27.8509 130.902 27.9309 130.669C27.9709 130.537 27.9909 130.405 27.9909 130.263C28.6409 130.273 29.2909 130.273 29.9509 130.273C29.9309 131.156 29.9209 132.049 30.0109 132.931C30.1209 134.108 30.3609 135.204 30.7909 136.29C29.8609 136.249 28.9509 136.198 28.0309 136.158ZM33.5709 136.421C33.6009 136.35 33.6309 136.269 33.6509 136.188C33.7509 135.752 33.6709 135.397 33.5009 135.001C33.6709 135.407 33.4909 134.96 33.4609 134.869C33.4209 134.768 33.3909 134.666 33.3609 134.565C33.2909 134.331 33.2309 134.088 33.1709 133.844C33.1309 133.642 33.0109 133.307 33.0409 133.104C33.0509 133.175 33.0609 133.236 33.0709 133.307C33.0609 133.236 33.0509 133.165 33.0509 133.094C33.0409 132.972 33.0309 132.84 33.0209 132.718C32.9609 131.917 32.9609 131.105 32.9809 130.304C33.6809 130.304 34.3809 130.304 35.0809 130.304C35.1609 132.414 35.5009 134.524 36.1009 136.543C35.2509 136.503 34.4109 136.462 33.5709 136.421ZM39.3409 136.675C39.0309 135.782 38.7509 134.869 38.5609 133.946C38.4909 133.631 38.4309 133.327 38.3809 133.012C38.3509 132.84 38.3209 132.678 38.3009 132.505C38.3009 132.495 38.2809 132.353 38.2709 132.272C38.1909 131.612 38.1409 130.953 38.1109 130.293C39.0209 130.293 39.9309 130.304 40.8409 130.293C40.9909 130.293 41.1309 130.293 41.2809 130.293C41.1009 132.414 41.3109 134.575 41.9009 136.614C41.9209 136.665 41.9409 136.716 41.9609 136.766C41.0909 136.726 40.2209 136.706 39.3409 136.675ZM44.7309 136.837C44.8809 136.523 44.9409 136.158 44.8309 135.782C44.6909 135.305 44.5809 134.829 44.4809 134.342C44.4309 134.088 44.3509 133.804 44.3509 133.55C44.3509 133.53 44.3509 133.51 44.3509 133.499C44.3409 133.368 44.3209 133.236 44.3109 133.104C44.2309 132.16 44.2409 131.207 44.3209 130.263C45.0409 130.263 45.7709 130.253 46.4909 130.243C46.5409 131.359 46.6209 132.465 46.8409 133.56C46.9609 134.169 47.1509 134.758 47.3309 135.356C47.4209 135.661 47.5109 135.965 47.5909 136.279C47.6209 136.411 47.6509 136.543 47.6809 136.675C47.6909 136.706 47.7009 136.807 47.7109 136.898C46.7209 136.878 45.7209 136.858 44.7309 136.837ZM44.5009 124.449C40.8109 124.561 37.1309 124.622 33.4409 124.652C25.3209 124.723 17.2009 124.632 9.08089 124.531C9.07089 124.48 9.0709 124.429 9.0709 124.409C9.0709 124.348 9.11089 124.084 9.10089 124.074C9.15089 123.83 9.2009 123.587 9.2609 123.343C9.4409 122.613 9.5809 121.893 9.6509 121.152C9.7109 120.513 9.7309 119.874 9.7609 119.234C9.7809 118.94 9.80089 118.656 9.83089 118.362C9.84089 118.291 9.8709 118.149 9.8709 118.108C9.9109 117.915 9.95089 117.723 10.0009 117.54C10.0209 117.449 10.0409 117.357 10.0409 117.266C10.5309 117.063 11.0009 116.779 11.4509 116.404C12.0809 115.866 12.5809 115.196 12.9909 114.456C13.1909 114.76 13.4009 115.054 13.6409 115.338C15.5009 117.459 18.7409 118.281 21.1009 116.525C22.2009 115.704 22.9709 114.557 23.5509 113.289C23.8809 113.959 24.3009 114.577 24.8409 115.125C26.8309 117.144 29.8209 117.378 32.1509 115.815C33.5409 114.882 34.4809 113.573 35.1909 112.112C35.6209 113.583 36.3509 114.922 37.6209 115.896C40.0509 117.763 43.3309 117.459 45.6109 115.521C46.1509 115.064 46.6209 114.527 47.0409 113.959C47.3109 114.75 47.7109 115.501 48.3309 116.15C49.2609 117.124 50.5009 117.652 51.7909 117.794C51.4709 118.727 51.2109 119.681 51.0809 120.685C50.9309 121.862 50.9509 123.039 51.0109 124.216C50.8309 124.226 50.6509 124.236 50.4809 124.246C48.5209 124.317 46.5109 124.388 44.5009 124.449ZM49.8209 133.012C49.7509 132.718 49.7009 132.414 49.6509 132.11V132.099C49.6409 132.008 49.6309 131.917 49.6209 131.815C49.6109 131.673 49.5909 131.531 49.5809 131.389C49.5509 130.983 49.5409 130.567 49.5209 130.151C50.0309 130.131 50.5309 130.101 51.0409 130.07C51.3609 131.267 51.6509 132.475 51.8909 133.682C52.1009 134.768 52.2709 135.833 52.4109 136.858C51.8609 136.868 51.3109 136.878 50.7509 136.888C50.6009 135.549 50.1309 134.321 49.8209 133.012ZM55.4509 136.807C55.1409 134.413 54.6909 132.049 54.0909 129.715C54.6809 129.522 55.2309 129.208 55.6309 128.68C56.5409 127.483 56.2109 125.88 55.1209 124.947C54.8109 124.683 54.4609 124.5 54.0909 124.368C54.0209 123.212 53.9809 122.035 54.1309 120.888C54.1409 120.827 54.1809 120.584 54.1809 120.594C54.2109 120.411 54.2509 120.229 54.3009 120.036C54.3809 119.701 54.4809 119.366 54.5809 119.031C54.7809 118.413 55.0209 117.814 55.2509 117.215C55.4409 117.124 55.6409 117.053 55.8309 116.941C56.7909 116.394 57.5509 115.633 58.1509 114.75C57.8909 122.055 58.1409 129.36 58.9509 136.645C57.7909 136.726 56.6209 136.766 55.4509 136.807ZM58.5309 107.942C55.6109 107.77 52.7009 107.638 49.7809 107.516C49.8109 107.09 49.8409 106.664 49.8809 106.248C50.0809 103.792 50.4409 101.357 51.1909 99.0137C53.9609 98.9833 56.7309 98.9427 59.5009 98.9122C59.0909 101.915 58.7709 104.919 58.5309 107.942Z" fill="#1E1E1E"/>
<path d="M8.95867 128.172C6.62364 127.782 7.14313 126.427 9.97647 126.303C12.3037 126.165 17.9018 126.548 21.4647 126.548H35.5963H52.4102C53.2108 126.548 53.9314 127.104 53.7713 127.431C53.6112 127.759 53.7713 128.175 50.7688 128.354C48.3668 128.497 29.1377 128.413 19.8233 128.354C17.2156 128.371 11.2937 128.563 8.95867 128.172Z" fill="white"/>
<path d="M21.3309 120.168C18.6509 120.209 15.9709 120.239 13.2909 120.28C12.4409 120.29 11.6309 120.98 11.6709 121.822C11.7109 122.644 12.3809 123.374 13.2909 123.364C15.9709 123.323 18.6509 123.293 21.3309 123.252C22.1809 123.242 22.9909 122.552 22.9509 121.71C22.9109 120.888 22.2409 120.158 21.3309 120.168Z" fill="#1E1E1E"/>
<path d="M34.0909 120.269H26.1209C25.2709 120.269 24.4609 120.979 24.5009 121.811C24.5409 122.643 25.2109 123.354 26.1209 123.354H34.0909C34.9409 123.354 35.7509 122.643 35.7109 121.811C35.6809 120.979 35.0009 120.269 34.0909 120.269Z" fill="#1E1E1E"/>
<path d="M47.0409 120.269H39.0709C38.2209 120.269 37.4109 120.979 37.4509 121.811C37.4909 122.643 38.1609 123.354 39.0709 123.354H47.0409C47.8909 123.354 48.7009 122.643 48.6609 121.811C48.6209 120.979 47.9509 120.269 47.0409 120.269Z" fill="#1E1E1E"/>
<path d="M61.7209 90.4708C61.6809 79.8988 61.6409 69.3268 61.5909 58.7447C61.5909 58.4911 61.5209 58.278 61.4309 58.0852C61.6609 56.2488 61.7209 54.4023 61.5609 52.5557C61.5309 52.2311 61.4109 51.9064 61.2309 51.6426C61.0409 51.1049 60.5909 50.6686 59.8609 50.6483C50.9709 50.4454 42.0909 50.6585 33.2209 51.2976C33.1309 51.3078 33.0409 51.3281 32.9509 51.3484C32.6809 51.2774 32.4209 51.2774 32.1509 51.3484C32.0609 51.3788 31.9609 51.3991 31.8609 51.4194C31.6909 51.4295 31.5309 51.4397 31.3609 51.4194C31.1509 51.4092 30.9609 51.46 30.7809 51.5513C30.5909 51.6122 30.4309 51.7238 30.2909 51.8658C30.1609 51.9876 30.0709 52.1398 30.0109 52.3021C29.8709 52.5354 29.7609 52.7992 29.7409 53.1036C29.6309 54.6762 29.6809 56.2488 29.8509 57.8113C21.0209 61.3928 12.3209 65.2888 3.76092 69.5095C3.73092 69.5196 3.71091 69.5399 3.68091 69.5602C2.61091 69.5602 2.19091 70.5646 2.39091 71.427C2.06091 71.6705 1.82092 72.0561 1.79092 72.5837C1.67092 74.9375 2.31092 78.0523 5.15092 78.2755C6.42092 78.377 7.35091 77.7682 8.05091 76.8855C9.00091 78.0219 10.2509 78.7929 11.8709 78.5596C13.0009 78.3972 13.7809 77.7581 14.3009 76.916C15.3809 77.7073 16.7109 78.103 18.1709 77.8595C19.0409 77.7175 19.9909 77.2812 20.7609 76.6522C21.5109 77.3725 22.4809 77.8392 23.5909 77.8392C25.1009 77.8392 26.4109 76.9667 27.1609 75.7289C27.4909 76.0941 27.9009 76.3782 28.4509 76.6116C28.9809 76.8348 29.5309 76.5304 29.9309 76.2159C30.0909 76.084 30.2209 75.9318 30.3609 75.7796C30.3609 81.299 30.3809 86.8082 30.4209 92.3275C30.4309 93.3421 31.2309 93.8393 32.0009 93.819C32.1609 93.8798 32.3409 93.9204 32.5409 93.9204C41.8809 94.0219 51.2109 93.7276 60.5209 93.058C61.9609 92.9566 62.3509 91.3231 61.7209 90.4708ZM6.50091 73.3649C6.37091 73.791 6.02091 75.1709 5.46091 75.2216C4.66091 75.3028 4.81091 73.2837 4.85091 72.7054C5.51091 72.746 6.18091 72.7663 6.85091 72.8069C6.69091 72.9692 6.57091 73.1518 6.50091 73.3649ZM33.2309 54.4023C41.6709 53.7935 50.1409 53.5805 58.6009 53.7428C58.6309 54.382 58.6409 55.0313 58.6209 55.6807C58.6109 56.0256 58.5809 56.3706 58.5509 56.7155C49.9809 56.6952 41.4209 56.9387 32.8609 57.4359C32.8209 57.0301 32.7809 56.6344 32.7609 56.2285C32.7309 55.6198 32.7309 55.011 32.7409 54.3921C32.7709 54.382 32.8009 54.382 32.8309 54.3718C32.9609 54.4023 33.0909 54.4124 33.2309 54.4023ZM58.6009 67.9876C58.1709 68.018 57.7409 68.0485 57.3009 68.0688C57.1409 68.0586 56.9809 68.0992 56.8409 68.1601C55.6709 68.2412 54.4909 68.3021 53.3209 68.3528C53.1309 65.512 53.1809 62.661 53.4709 59.8303C55.1709 59.81 56.8609 59.7897 58.5609 59.7897C58.5809 62.5291 58.5909 65.2584 58.6009 67.9876ZM50.3009 68.4746C49.0009 68.505 47.7009 68.5456 46.4109 68.5456C46.4609 65.6845 46.5309 62.8335 46.6509 59.9724C47.9209 59.9419 49.1809 59.9216 50.4509 59.8912C50.1509 62.7422 50.1009 65.6135 50.3009 68.4746ZM41.2709 60.1245C42.0509 60.0941 42.8209 60.084 43.6009 60.0535C43.4909 62.8741 43.4109 65.6845 43.3709 68.505C42.6709 68.4949 41.9809 68.4847 41.2809 68.4644C41.2809 68.4442 41.2909 68.4137 41.2909 68.3934C41.1709 65.6337 41.1709 62.8842 41.2709 60.1245ZM38.2509 68.3224C36.6409 68.2311 35.0409 68.1195 33.4309 67.9774C33.4409 65.4816 33.4309 62.9857 33.4509 60.4898C35.0509 60.3985 36.6409 60.3275 38.2409 60.2564C38.1409 62.9451 38.1409 65.6337 38.2509 68.3224ZM12.1809 73.8012C12.1409 74.4708 12.0509 75.597 11.1909 75.5057C10.1909 75.4042 9.62091 73.7606 9.27091 72.9895C9.26091 72.9591 9.24091 72.9489 9.22091 72.9185C10.2909 72.9591 11.3509 72.9895 12.4209 73.0199C12.3009 73.2432 12.2009 73.4866 12.1809 73.8012ZM19.2609 73.8925C19.0809 74.0447 18.9409 74.2476 18.7509 74.3896C18.3209 74.7042 17.7709 74.8868 17.2409 74.8563C16.3709 74.8158 15.5009 74.2171 15.1609 73.3852C15.1109 73.2634 15.0409 73.1721 14.9709 73.0707C16.4309 73.091 17.8809 73.1011 19.3409 73.1011C19.3309 73.1518 19.3109 73.1924 19.3109 73.2431C19.3109 73.4258 19.3409 73.5983 19.3609 73.7809C19.3409 73.8215 19.3109 73.8519 19.2609 73.8925ZM24.8509 73.233C24.8909 74.9477 22.8309 75.1506 22.4209 73.7606C22.4209 73.5475 22.4009 73.3243 22.3509 73.1011C23.1909 73.091 24.0409 73.0707 24.8809 73.0504C24.8709 73.1113 24.8509 73.162 24.8509 73.233ZM30.3909 69.7733C23.6309 70.0878 16.8709 70.1284 10.1109 69.8747C16.7909 66.6991 23.5609 63.706 30.4109 60.9159C30.4009 63.8684 30.4009 66.8208 30.3909 69.7733ZM42.0309 90.7853C42.1109 88.3402 42.1809 85.895 42.2609 83.4499C42.3009 82.1918 42.3409 80.9337 42.3809 79.6756C42.4009 79.0466 42.4209 78.4175 42.4409 77.7885L42.4609 77.0276C43.8209 76.9768 45.1809 77.0073 46.5309 76.9768C47.4009 76.9565 48.2709 76.9464 49.1509 76.9261C49.5609 76.916 49.9709 76.9058 50.3809 76.9058C50.5109 76.9058 50.6309 76.9058 50.7609 76.8957C50.7409 77.7986 50.6209 78.7321 50.6009 79.6148C50.5809 80.9337 50.6009 82.2527 50.6609 83.5716C50.7709 85.895 51.0109 88.1981 51.3509 90.4911C48.2509 90.6332 45.1409 90.7245 42.0309 90.7853ZM54.3809 90.3389C53.9409 87.4981 53.6909 84.6268 53.6409 81.7454C53.6109 80.2235 53.6409 78.7016 53.7209 77.1797C53.7609 76.4594 53.8809 75.7086 53.5509 75.039C53.2109 74.349 52.6309 73.9635 51.8809 73.8519C50.4609 73.6388 48.8909 73.8519 47.4509 73.8823L42.8309 73.9736C42.1309 73.9838 41.3509 73.9128 40.6809 74.1461C39.9209 74.4201 39.5309 75.1201 39.4609 75.9014C39.3309 77.4131 39.3609 78.9553 39.3109 80.467C39.2009 83.9267 39.0909 87.3763 38.9809 90.8361C37.1409 90.8564 35.3009 90.8564 33.4609 90.8462C33.4109 84.637 33.4009 78.4277 33.4009 72.2286C33.6409 71.914 33.7609 71.5082 33.7409 71.1024C41.5109 71.7923 49.3109 71.8329 57.0909 71.2343C57.2309 71.2241 57.3609 71.1937 57.4809 71.1531C57.8509 71.1328 58.2209 71.1024 58.5909 71.0821C58.6209 77.4232 58.6409 83.7543 58.6709 90.0954C57.2509 90.1867 55.8209 90.2578 54.3809 90.3389Z" fill="#1E1E1E"/>
<path d="M45.9109 81.4004C45.6509 81.1366 45.2209 80.9337 44.8409 80.9438C44.0209 80.9844 43.3209 81.6236 43.3209 82.486V86.1081C43.3209 86.5038 43.4909 86.9198 43.7609 87.2038C44.0209 87.4676 44.4509 87.6706 44.8309 87.6604C45.6509 87.6198 46.3509 86.9806 46.3509 86.1182V82.4962C46.3609 82.1005 46.1909 81.6845 45.9109 81.4004Z" fill="#1E1E1E"/>
<path d="M26.9009 90.9478C26.9009 90.7449 26.9109 90.542 26.9009 90.3391C26.8909 90.1057 26.8709 89.8825 26.8409 89.6492C26.8109 89.426 26.7909 89.2027 26.7509 88.9795C26.7309 88.8273 26.6809 88.7157 26.6209 88.5636C26.4809 88.2186 26.2409 87.8939 25.9109 87.7012C25.5809 87.5084 25.3709 87.4678 25.0009 87.4272C24.8009 87.4069 24.6009 87.4171 24.4009 87.4171C23.9609 87.4171 23.5209 87.4171 23.0809 87.4171C22.6909 87.4171 22.2809 87.5896 22.0109 87.8736C21.7509 88.1374 21.5509 88.5838 21.5709 88.9694C21.5909 89.3651 21.7209 89.7811 22.0109 90.0651C22.3109 90.3391 22.6709 90.5217 23.0809 90.5217C23.3409 90.5217 23.6109 90.5217 23.8709 90.5217C23.8809 90.6739 23.8709 90.8159 23.8709 90.9681C21.6809 90.9986 19.4909 91.0391 17.2909 91.0696C17.2909 90.8971 17.2709 90.7348 17.2409 90.5217C17.2209 90.3695 17.1309 90.2072 17.0309 90.0651C17.0509 89.8927 17.0409 89.7303 16.9809 89.568C16.7409 88.9491 16.5309 88.3201 16.4209 87.6606C16.4109 87.549 16.4109 87.4374 16.4109 87.3258C18.0009 87.3359 19.5909 87.3359 21.1809 87.3156C23.1309 87.2852 23.1409 84.2008 21.1809 84.2313C17.3509 84.282 13.5309 84.2414 9.7109 84.1095C8.8909 84.0791 8.1909 84.84 8.1909 85.6517C8.1909 86.5141 8.8809 87.1634 9.7109 87.1939C10.8809 87.2344 12.0409 87.2547 13.2109 87.275C13.1709 88.1983 13.2009 89.1216 13.3109 90.0347C13.3509 90.3797 13.3809 90.7551 13.4409 91.1305L6.6009 91.2421C6.6109 91.1102 6.6209 90.9681 6.6409 90.8362C6.7209 90.8362 6.8009 90.8362 6.8809 90.8362C7.3609 90.8261 7.8509 90.8058 8.3309 90.7855C8.7309 90.7754 9.1209 90.6232 9.40091 90.3289C9.6609 90.0651 9.86089 89.6187 9.84089 89.2332C9.82089 88.8375 9.69091 88.4215 9.40091 88.1374C9.11091 87.8635 8.7309 87.6707 8.3309 87.6809L6.6809 87.7316C6.4109 87.7417 6.1309 87.7519 5.8609 87.762C5.2809 87.7823 4.69091 87.8331 4.26091 88.2795C4.03091 88.523 3.8809 88.7868 3.78089 89.1114C3.7209 89.3245 3.72089 89.5883 3.70089 89.8115C3.67089 90.1057 3.65091 90.4 3.62091 90.6942C3.60091 90.9174 3.58089 91.1406 3.56089 91.3537C2.11089 91.8407 2.2609 94.3873 4.0409 94.3568C11.5809 94.2351 19.1209 94.1235 26.6609 94.0017C28.5009 93.9815 28.5909 91.1812 26.9009 90.9478Z" fill="#1E1E1E"/>
</svg>
