<svg width="16" height="1070" viewBox="0 0 16 1070" fill="none" xmlns="http://www.w3.org/2000/svg">
<path d="M7.06092 8.00798C7.06092 8.00798 7.07114 8.00778 7.08136 8.00758C7.08136 8.00758 7.07114 8.00778 7.06092 8.00798Z" fill="#00A99D"/>
<path d="M2.69774 1061.2C2.99608 1060.85 3.31614 1060.55 3.76081 1060.32C4.25596 1060.07 4.72386 1059.97 5.26419 1059.89C4.30379 1051.86 4.60084 1043.8 5.06125 1035.73C5.54818 1027.07 5.96355 1018.4 6.2458 1009.73C6.80201 992.462 6.90776 930.598 6.55368 913.334C6.34887 903.547 5.99093 893.773 5.50008 884.001L5.49622 883.84C4.49236 875.701 -3.02885 482.208 5.26554 117.869C5.75248 109.202 6.16784 100.536 6.4501 91.863C7.00631 74.5985 7.10205 57.3251 6.74776 40.0515C6.55603 30.8087 6.22096 21.5598 5.77344 12.3131C5.24863 12.1807 4.73254 11.9857 4.23625 11.7636C3.10906 11.2506 2.14179 10.5829 1.36383 9.70644C0.58587 8.82998 0.202325 7.76748 0.0432587 6.68275C-0.253569 4.54856 1.00696 2.5266 2.90954 1.25893C3.76521 0.689377 4.8207 0.347753 5.87046 0.19349C7.23565 -0.0293529 8.6147 -0.100884 9.96187 0.202707C11.4221 0.530838 12.6567 1.25571 13.5512 2.29931C13.9304 2.75557 14.2093 3.29403 14.3555 3.84401C14.6042 4.82889 14.451 5.68789 13.9926 6.61526C13.7588 7.10132 13.0428 7.52548 12.494 7.66995C12.3822 7.69889 12.2497 7.71931 12.1272 7.73062C12.2732 7.84368 12.3993 7.98389 12.4947 8.12469C12.8241 8.63542 12.9926 9.2652 12.7917 9.8398C12.5911 10.4322 12.2014 10.8143 11.648 11.1907C11.3662 11.3835 11.0636 11.5588 10.7503 11.7165C12.4481 45.7181 11.5023 79.7602 10.5166 113.79C1.5186 424.434 9.22504 874.307 10.5058 883.751C10.5297 883.893 10.5331 884.036 10.5159 884.17L10.5167 884.206C12.2414 918.474 12.1879 997.386 10.3125 1031.66C9.82245 1040.62 9.11918 1049.65 10.1323 1058.6C10.2448 1058.6 10.367 1058.58 10.4797 1058.59C11.8711 1058.6 13.2505 1058.97 14.2834 1059.82C15.41 1060.73 15.7791 1062.04 15.9529 1063.31C16.1135 1064.46 15.8551 1065.62 15.3075 1066.67C14.3006 1068.61 11.9073 1069.88 9.50636 1069.99C8.22932 1070.05 7.0142 1069.71 5.83846 1069.31C4.59052 1068.88 3.4697 1068.2 2.82035 1067.15C2.501 1066.63 2.27302 1066.08 2.1364 1065.5C1.98848 1064.88 1.81969 1064.24 1.81469 1063.61C1.83435 1062.72 2.10108 1061.91 2.69774 1061.2ZM6.8749 7.93134C6.93688 7.95688 6.99893 7.98244 7.06092 8.00798C7.05069 8.00818 7.02996 7.99964 7.01974 7.99984C7.02996 7.99964 7.05062 8.00815 7.07107 8.00775C7.10217 8.02498 7.14349 8.042 7.17437 8.05032C7.4534 8.1697 7.22556 8.04935 7.08136 8.00758C7.18402 8.02341 7.39993 8.07266 7.54412 8.11443C7.63549 8.08589 7.73751 8.07498 7.82887 8.04645C7.85933 8.03693 7.87956 8.02762 7.89979 8.01831C8.27333 7.81484 8.63707 7.6294 8.9793 7.3998C9.2308 7.22547 9.59669 7.12915 9.97431 7.09503C9.28478 6.49325 9.10148 5.6765 9.35777 4.85116C9.29515 4.79889 9.2223 4.74681 9.15967 4.69453C9.14923 4.68582 9.11814 4.6686 9.10791 4.6688C9.08725 4.66028 9.01462 4.61712 8.9422 4.58287C8.83932 4.55813 8.73645 4.53339 8.62335 4.50885C8.58224 4.50074 8.47958 4.48491 8.37692 4.46908C8.26425 4.46237 8.01847 4.44934 7.96735 4.45033C7.62977 4.44801 7.30349 4.49006 6.96655 4.51447C6.91565 4.52438 6.85453 4.5345 6.79362 4.55352C6.61046 4.59277 6.43752 4.63181 6.26502 4.68868C6.24478 4.69799 6.23456 4.69819 6.21433 4.70751C6.08314 4.7814 5.92107 4.84699 5.80011 4.92068C5.70003 5.0118 5.5895 5.09421 5.49985 5.19405C5.47004 5.2303 5.43001 5.26675 5.40019 5.303C5.341 5.39332 5.29224 5.49235 5.27244 5.51949C5.27265 5.5284 5.25264 5.54663 5.24284 5.56465C5.20431 5.66349 5.16578 5.76232 5.13768 5.86987C5.11852 5.92375 5.12002 5.98614 5.10108 6.04892C5.10322 6.13805 5.11559 6.22697 5.11666 6.27153C5.11688 6.28045 5.11752 6.30718 5.11816 6.33392C5.15162 6.44918 5.18529 6.57336 5.22897 6.68842C5.2392 6.68822 5.25006 6.71476 5.26093 6.7413C5.32484 6.84705 5.38897 6.96171 5.46289 7.05835C5.48376 7.07577 5.49463 7.10231 5.51551 7.11974C5.61988 7.20686 5.72469 7.31182 5.83929 7.39874C5.85995 7.40726 5.87039 7.41597 5.89105 7.42448C6.03589 7.49298 6.18159 7.59714 6.32642 7.66564C6.50258 7.76028 6.68874 7.84581 6.8749 7.93134ZM7.77529 1065.21C8.21832 1065.35 8.66092 1065.46 9.12289 1065.53C9.23534 1065.53 9.3478 1065.53 9.47047 1065.53C9.56205 1065.51 9.65385 1065.5 9.74521 1065.47C9.78589 1065.46 9.82635 1065.44 9.86703 1065.43C10.0087 1065.36 10.1401 1065.3 10.271 1065.22C10.3113 1065.19 10.3515 1065.16 10.3613 1065.14C10.4214 1065.09 10.4814 1065.03 10.5415 1064.98C10.5515 1064.97 10.5715 1064.95 10.5913 1064.93C10.6013 1064.92 10.6113 1064.91 10.6111 1064.9C10.6505 1064.83 10.7001 1064.77 10.7393 1064.7C10.7391 1064.69 10.7491 1064.68 10.7489 1064.67C10.7682 1064.63 10.7874 1064.57 10.787 1064.56C10.8253 1064.45 10.8327 1064.33 10.8608 1064.22C10.8755 1063.98 10.8595 1063.74 10.8435 1063.5C10.8091 1063.35 10.7748 1063.2 10.7303 1063.05C10.7098 1063.05 10.6994 1063.04 10.679 1063.04C10.4436 1063.04 10.2085 1063.04 9.97377 1063.06C9.41364 1063.16 8.85394 1063.28 8.28338 1063.37C8.03888 1063.41 7.80396 1063.43 7.57926 1063.44C7.51943 1063.5 7.47003 1063.58 7.39975 1063.63C7.26942 1063.74 7.13867 1063.83 6.99747 1063.92C7.05524 1064.19 7.113 1064.47 7.21166 1064.74C7.23361 1064.8 7.25534 1064.86 7.27707 1064.91C7.3086 1064.94 7.32969 1064.97 7.35121 1065.02C7.40297 1065.04 7.46516 1065.08 7.51692 1065.1C7.59957 1065.14 7.69243 1065.17 7.77529 1065.21Z" fill="#00A99D"/>
</svg>
