<svg width="16" height="503" viewBox="0 0 16 503" fill="none" xmlns="http://www.w3.org/2000/svg">
<path d="M7.06092 8.01964C7.06092 8.01964 7.07114 8.01944 7.08136 8.01924C7.08136 8.01924 7.07114 8.01944 7.06092 8.01964Z" fill="#00A99D"/>
<path d="M2.69774 494.188C2.99608 493.834 3.31614 493.533 3.76081 493.31C4.25596 493.059 4.72386 492.951 5.26419 492.878C4.30379 484.834 4.60084 476.764 5.06125 468.683C5.54818 460.003 5.96355 451.324 6.2458 442.639C6.80201 425.349 6.90776 363.395 6.55368 346.105C6.34887 336.305 5.99093 326.516 5.50008 316.73L5.49622 316.569C4.49236 308.418 0.0432587 250.111 5.26554 118.041C5.75248 109.361 6.16784 100.682 6.4501 91.9968C7.00631 74.7071 7.10205 57.4085 6.74776 40.1099C6.55603 30.8536 6.22096 21.5912 5.77344 12.331C5.24863 12.1984 4.73254 12.0031 4.23625 11.7807C3.10906 11.267 2.14179 10.5983 1.36383 9.72057C0.58587 8.84283 0.202325 7.77879 0.0432587 6.69248C-0.253569 4.55518 1.00696 2.53028 2.90954 1.26076C3.76521 0.69038 4.8207 0.348259 5.87046 0.193772C7.23565 -0.0293957 8.6147 -0.101031 9.96187 0.203002C11.4221 0.531611 12.6567 1.25754 13.5512 2.30266C13.9304 2.75958 14.2093 3.29883 14.3555 3.84961C14.6042 4.83593 14.451 5.69617 13.9926 6.62489C13.7588 7.11166 13.0428 7.53644 12.494 7.68112C12.3822 7.7101 12.2497 7.73055 12.1272 7.74188C12.2732 7.85511 12.3993 7.99551 12.4947 8.13652C12.8241 8.64799 12.9926 9.2787 12.7917 9.85412C12.5911 10.4474 12.2014 10.8301 11.648 11.207C11.3662 11.4001 11.0636 11.5756 10.7503 11.7336C12.4481 45.7847 12.3782 79.9062 10.5166 113.956C5.06125 213.737 9.22504 307.022 10.5058 316.48C10.5297 316.622 10.5331 316.765 10.5159 316.9L10.5167 316.935C12.2414 351.254 12.1879 430.28 10.3125 464.607C9.82245 473.582 9.11918 482.623 10.1323 491.587C10.2448 491.584 10.367 491.564 10.4797 491.571C11.8711 491.588 13.2505 491.954 14.2834 492.8C15.41 493.716 15.7791 495.03 15.9529 496.304C16.1135 497.452 15.8551 498.618 15.3075 499.665C14.3006 501.604 11.9073 502.884 9.50636 502.993C8.22932 503.054 7.0142 502.711 5.83846 502.306C4.59052 501.875 3.4697 501.2 2.82035 500.141C2.501 499.621 2.27302 499.072 2.1364 498.494C1.98848 497.872 1.81969 497.232 1.81469 496.598C1.83435 495.714 2.10108 494.896 2.69774 494.188ZM6.8749 7.94289C6.93688 7.96846 6.99893 7.99407 7.06092 8.01964C7.05069 8.01984 7.02996 8.01129 7.01974 8.01149C7.02996 8.01129 7.05062 8.01981 7.07107 8.01941C7.10217 8.03666 7.14349 8.05372 7.17437 8.06204C7.4534 8.18159 7.22556 8.06107 7.08136 8.01924C7.18402 8.03509 7.39993 8.08442 7.54412 8.12624C7.63549 8.09767 7.73751 8.08674 7.82887 8.05816C7.85933 8.04864 7.87956 8.03931 7.89979 8.02999C8.27333 7.82622 8.63707 7.64051 8.9793 7.41058C9.2308 7.23599 9.59669 7.13954 9.97431 7.10536C9.28478 6.50271 9.10148 5.68477 9.35777 4.85823C9.29515 4.80588 9.2223 4.75372 9.15967 4.70137C9.14923 4.69265 9.11814 4.6754 9.10791 4.67559C9.08725 4.66707 9.01462 4.62384 8.9422 4.58954C8.83932 4.56477 8.73645 4.53999 8.62335 4.51541C8.58224 4.50729 8.47958 4.49144 8.37692 4.47559C8.26425 4.46886 8.01847 4.45581 7.96735 4.45681C7.62977 4.45449 7.30349 4.49659 6.96655 4.52105C6.91565 4.53097 6.85453 4.5411 6.79362 4.56015C6.61046 4.59945 6.43752 4.63856 6.26502 4.69551C6.24478 4.70483 6.23456 4.70504 6.21433 4.71436C6.08314 4.78836 5.92107 4.85404 5.80011 4.92785C5.70003 5.0191 5.5895 5.10163 5.49985 5.20161C5.47004 5.23791 5.43001 5.27442 5.40019 5.31072C5.341 5.40117 5.29224 5.50035 5.27244 5.52753C5.27265 5.53645 5.25264 5.55471 5.24284 5.57276C5.20431 5.67174 5.16578 5.77072 5.13768 5.87842C5.11852 5.93237 5.12002 5.99485 5.10108 6.05773C5.10322 6.14698 5.11559 6.23604 5.11666 6.28067C5.11688 6.28959 5.11752 6.31637 5.11816 6.34314C5.15162 6.45857 5.18529 6.58293 5.22897 6.69816C5.2392 6.69796 5.25006 6.72454 5.26093 6.75111C5.32484 6.85702 5.38897 6.97185 5.46289 7.06863C5.48376 7.08608 5.49463 7.11265 5.51551 7.1301C5.61988 7.21736 5.72469 7.32246 5.83929 7.40952C5.85995 7.41804 5.87039 7.42677 5.89105 7.43529C6.03589 7.50389 6.18159 7.6082 6.32642 7.6768C6.50258 7.77158 6.68874 7.85723 6.8749 7.94289ZM7.77529 498.205C8.21832 498.339 8.66092 498.455 9.12289 498.527C9.23534 498.525 9.3478 498.522 9.47047 498.52C9.56205 498.5 9.65385 498.49 9.74521 498.461C9.78589 498.451 9.82635 498.433 9.86703 498.423C10.0087 498.358 10.1401 498.293 10.271 498.21C10.3113 498.182 10.3515 498.154 10.3613 498.136C10.4214 498.082 10.4814 498.027 10.5415 497.972C10.5515 497.963 10.5715 497.945 10.5913 497.918C10.6013 497.908 10.6113 497.899 10.6111 497.89C10.6505 497.827 10.7001 497.764 10.7393 497.691C10.7391 497.682 10.7491 497.673 10.7489 497.665C10.7682 497.619 10.7874 497.565 10.787 497.548C10.8253 497.44 10.8327 497.324 10.8608 497.216C10.8755 496.974 10.8595 496.734 10.8435 496.493C10.8091 496.342 10.7748 496.191 10.7303 496.04C10.7098 496.04 10.6994 496.031 10.679 496.032C10.4436 496.027 10.2085 496.032 9.97377 496.054C9.41364 496.155 8.85394 496.273 8.28338 496.364C8.03888 496.405 7.80396 496.418 7.57926 496.432C7.51943 496.495 7.47003 496.568 7.39975 496.623C7.26942 496.732 7.13867 496.824 6.99747 496.907C7.05524 497.183 7.113 497.459 7.21166 497.734C7.23361 497.796 7.25534 497.849 7.27707 497.902C7.3086 497.937 7.32969 497.964 7.35121 498.008C7.40297 498.034 7.46516 498.068 7.51692 498.094C7.59957 498.128 7.69243 498.162 7.77529 498.205Z" fill="#00A99D"/>
</svg>
