<svg width="16" height="458" viewBox="0 0 16 458" fill="none" xmlns="http://www.w3.org/2000/svg">
<path d="M7.06092 8.01964C7.06092 8.01964 7.07114 8.01944 7.08136 8.01924C7.08136 8.01924 7.07114 8.01944 7.06092 8.01964Z" fill="#00A99D"/>
<path d="M2.69774 449.188C2.99607 448.834 3.31614 448.533 3.76081 448.31C4.25596 448.059 4.72386 447.952 5.26419 447.878C4.30379 439.834 4.60084 431.764 5.06125 423.683C5.54818 415.003 5.96355 361.678 6.2458 352.993C6.80201 335.703 6.90776 363.395 6.55368 346.105C6.34887 336.305 5.99093 326.516 5.50008 316.73L5.49622 316.569C4.49236 308.418 0.0432587 250.111 5.26554 118.041C5.75248 109.361 6.16784 100.682 6.4501 91.9968C7.00631 74.7071 7.10205 57.4085 6.74776 40.1099C6.55603 30.8536 6.22096 21.5912 5.77344 12.331C5.24863 12.1984 4.73254 12.0031 4.23625 11.7807C3.10906 11.267 2.14179 10.5983 1.36383 9.72057C0.58587 8.84283 0.202324 7.77879 0.0432587 6.69248C-0.253569 4.55518 1.00696 2.53028 2.90954 1.26076C3.76521 0.69038 4.82069 0.348259 5.87046 0.193772C7.23565 -0.0293957 8.6147 -0.101031 9.96187 0.203002C11.4221 0.531611 12.6567 1.25754 13.5512 2.30266C13.9304 2.75958 14.2093 3.29883 14.3555 3.84961C14.6042 4.83593 14.451 5.69617 13.9926 6.62489C13.7588 7.11166 13.0428 7.53644 12.494 7.68112C12.3822 7.7101 12.2497 7.73055 12.1272 7.74188C12.2732 7.85511 12.3993 7.99551 12.4947 8.13652C12.8241 8.64799 12.9926 9.2787 12.7917 9.85412C12.5911 10.4474 12.2014 10.8301 11.648 11.207C11.3662 11.4001 11.0636 11.5756 10.7503 11.7336C12.4481 45.7847 12.3782 79.9062 10.5166 113.956C5.06125 213.737 9.22504 307.022 10.5058 316.48C10.5297 316.622 10.5331 316.765 10.5159 316.9L10.5167 316.935C12.2414 351.254 12.1879 385.28 10.3125 419.607C9.82245 428.582 9.11918 437.623 10.1323 446.587C10.2448 446.584 10.367 446.564 10.4797 446.571C11.8711 446.588 13.2505 446.954 14.2834 447.8C15.41 448.716 15.7791 450.03 15.9529 451.304C16.1135 452.452 15.8551 453.618 15.3075 454.665C14.3006 456.604 11.9073 457.884 9.50636 457.993C8.22932 458.054 7.0142 457.711 5.83846 457.306C4.59052 456.875 3.4697 456.2 2.82035 455.141C2.501 454.621 2.27301 454.072 2.1364 453.494C1.98848 452.872 1.81969 452.232 1.81469 451.598C1.83435 450.714 2.10108 449.896 2.69774 449.188ZM6.8749 7.94289C6.93688 7.96846 6.99894 7.99407 7.06092 8.01964C7.05069 8.01984 7.02996 8.01129 7.01974 8.01149C7.02996 8.01129 7.05062 8.01981 7.07107 8.01941C7.10217 8.03666 7.14349 8.05372 7.17437 8.06204C7.4534 8.1816 7.22556 8.06107 7.08136 8.01924C7.18402 8.03509 7.39993 8.08442 7.54412 8.12624C7.63549 8.09767 7.73751 8.08674 7.82887 8.05816C7.85933 8.04864 7.87956 8.03931 7.89979 8.02999C8.27333 7.82622 8.63707 7.64051 8.9793 7.41058C9.2308 7.23599 9.59669 7.13953 9.97431 7.10536C9.28478 6.50271 9.10148 5.68477 9.35777 4.85823C9.29515 4.80587 9.2223 4.75372 9.15967 4.70137C9.14923 4.69265 9.11814 4.67539 9.10791 4.67559C9.08725 4.66707 9.01462 4.62384 8.9422 4.58954C8.83932 4.56477 8.73645 4.53999 8.62335 4.51541C8.58224 4.50729 8.47958 4.49144 8.37692 4.47559C8.26425 4.46886 8.01847 4.45581 7.96735 4.45681C7.62977 4.45449 7.30349 4.49659 6.96655 4.52105C6.91565 4.53097 6.85453 4.5411 6.79362 4.56015C6.61046 4.59945 6.43752 4.63856 6.26502 4.69551C6.24478 4.70483 6.23456 4.70504 6.21433 4.71436C6.08314 4.78836 5.92107 4.85404 5.80011 4.92785C5.70003 5.0191 5.5895 5.10163 5.49985 5.20161C5.47004 5.23791 5.43001 5.27442 5.40019 5.31072C5.341 5.40117 5.29224 5.50035 5.27244 5.52753C5.27265 5.53645 5.25264 5.55471 5.24284 5.57276C5.20431 5.67174 5.16578 5.77072 5.13768 5.87842C5.11852 5.93237 5.12002 5.99485 5.10108 6.05773C5.10322 6.14698 5.11559 6.23604 5.11666 6.28067C5.11688 6.28959 5.11752 6.31637 5.11816 6.34314C5.15162 6.45857 5.18529 6.58293 5.22897 6.69816C5.2392 6.69796 5.25006 6.72454 5.26093 6.75111C5.32484 6.85702 5.38897 6.97185 5.46289 7.06863C5.48376 7.08608 5.49463 7.11265 5.51551 7.1301C5.61988 7.21736 5.72469 7.32246 5.83929 7.40952C5.85995 7.41804 5.87039 7.42677 5.89105 7.43529C6.03589 7.50389 6.18158 7.6082 6.32642 7.6768C6.50258 7.77158 6.68874 7.85723 6.8749 7.94289ZM7.77529 453.205C8.21832 453.339 8.66092 453.455 9.12289 453.527C9.23534 453.525 9.3478 453.522 9.47047 453.52C9.56205 453.5 9.65385 453.49 9.74521 453.461C9.78589 453.451 9.82635 453.433 9.86703 453.423C10.0087 453.358 10.1401 453.293 10.271 453.21C10.3113 453.182 10.3515 453.154 10.3613 453.136C10.4214 453.082 10.4814 453.027 10.5415 452.972C10.5515 452.963 10.5715 452.945 10.5913 452.918C10.6013 452.908 10.6113 452.899 10.6111 452.89C10.6505 452.827 10.7001 452.764 10.7393 452.691C10.7391 452.683 10.7491 452.673 10.7489 452.665C10.7682 452.62 10.7874 452.565 10.787 452.548C10.8253 452.44 10.8327 452.324 10.8608 452.216C10.8755 451.974 10.8595 451.734 10.8435 451.493C10.8091 451.342 10.7748 451.191 10.7303 451.04C10.7098 451.04 10.6994 451.031 10.679 451.032C10.4436 451.027 10.2085 451.032 9.97377 451.054C9.41364 451.155 8.85394 451.273 8.28338 451.364C8.03888 451.405 7.80396 451.418 7.57926 451.432C7.51943 451.495 7.47003 451.568 7.39975 451.623C7.26942 451.732 7.13867 451.824 6.99747 451.907C7.05524 452.183 7.113 452.459 7.21166 452.734C7.23361 452.796 7.25534 452.849 7.27707 452.902C7.3086 452.937 7.32969 452.964 7.35121 453.008C7.40297 453.034 7.46516 453.068 7.51692 453.094C7.59957 453.128 7.69243 453.162 7.77529 453.205Z" fill="#00A99D"/>
</svg>
