<svg width="396" height="284" viewBox="0 0 396 284" fill="none" xmlns="http://www.w3.org/2000/svg">
<path d="M315.258 22.6189C356.007 41.5041 394.352 74.2303 395.948 111.204C397.543 148.177 362.389 189.418 345.08 234.643C327.508 279.597 327.508 328.282 304.604 352.494C281.437 376.706 235.094 376.171 192.224 371.379C149.617 366.325 110.202 357.014 76.1181 336.535C41.762 316.055 12.4754 284.399 3.41679 248.212C-5.90442 211.763 5.28507 170.795 19.6658 132.49C34.309 94.1849 52.1537 58.533 80.9151 35.6529C109.676 12.7728 149.092 2.66437 190.366 0.535753C231.64 -1.85516 274.519 3.46134 315.258 22.6189Z" fill="#FBA43B"/>
<path d="M277.856 227.042C288.958 248.775 294.386 275.656 282.66 292.087C270.934 308.518 242.047 314.507 219.461 328.17C196.853 341.629 180.513 362.563 162.585 365.322C144.544 367.994 124.889 352.282 108.149 335.901C91.6103 319.494 77.866 302.323 70.1518 282.131C62.3209 261.849 60.4112 238.453 68.679 219.868C76.9225 201.082 95.4611 187.204 114.472 175.538C133.595 163.959 153.197 154.591 173.186 154.361C193.174 154.131 213.436 162.952 231.815 175.825C250.283 188.585 266.85 205.195 277.856 227.042Z" fill="#FBB03B"/>
</svg>
