<svg width="207" height="53" viewBox="0 0 207 53" fill="none" xmlns="http://www.w3.org/2000/svg">
<path d="M171.099 51.6438L170.689 51.2532L171.913 49.9163C173.152 48.5633 174.702 47.2506 176.055 46.409C176.976 45.8331 176.932 45.8774 176.731 45.7446C176.453 45.5593 174.899 45.056 174.251 44.9392L173.643 44.8305L173.084 45.3499C171.921 46.4291 170.87 46.7432 168.386 46.7432C166.064 46.7432 164.313 46.409 161.914 45.5029C160.899 45.1204 160.895 45.1164 161.233 44.9714C161.688 44.7781 163.959 44.2506 165.343 44.0171C166.853 43.7634 170.922 43.6667 172.436 43.8479C174.082 44.0453 175.547 44.3755 176.932 44.8627L178.116 45.2775L179.223 44.8748C180.515 44.4077 182.105 44.0453 183.775 43.8479C185.293 43.6667 189.338 43.7714 190.88 44.0292C192.281 44.2627 194.511 44.7781 194.965 44.9754C195.304 45.1204 195.3 45.1204 194.285 45.507C191.898 46.409 190.147 46.7432 187.813 46.7472C185.337 46.7513 184.383 46.4694 183.095 45.362L182.471 44.8265L181.903 44.9432C181.195 45.0922 179.689 45.5996 179.464 45.7687C179.355 45.8493 179.339 45.9137 179.42 45.9499C179.734 46.0868 181.871 47.6291 182.555 48.213C183.509 49.0264 185.373 51.0518 185.373 51.2733C185.373 51.5109 184.633 52.0706 184.379 52.0263C184.262 52.0062 183.767 51.519 183.28 50.9431C181.98 49.4129 179.999 47.6532 178.53 46.719L178.104 46.4492L177.508 46.8318C175.974 47.8143 173.752 49.8478 172.597 51.3176C171.921 52.1632 171.691 52.2116 171.099 51.6438ZM7.39448 46.9969C4.295 46.2761 1.92007 44.0855 0.817136 40.9326C0.0563542 38.75 0.0885566 39.3621 0.0442783 26.9758L0 15.737H2.78148H5.56297L5.5992 26.3838L5.63542 37.0306L5.93732 38.1863C6.81886 41.5487 8.64635 43.0184 11.931 43.0184C14.0523 43.0184 15.7993 42.3017 17.176 40.8722C18.0776 39.9339 18.6251 38.8346 19.0316 37.1595C19.6274 34.7112 19.6556 34.0991 19.6556 24.5677V15.737H22.437H25.2185V31.0388V46.3405H22.5497H19.885V44.0855C19.885 42.8453 19.8407 41.8305 19.7884 41.8305C19.7361 41.8305 19.4945 42.1325 19.249 42.507C17.9005 44.5567 15.7349 46.0828 13.1829 46.7835C12.2772 47.0331 11.7861 47.0855 10.1156 47.1217C8.6705 47.158 7.92985 47.1217 7.39448 46.9969ZM82.1846 46.9808C77.6441 46.2721 74.7821 44.1781 72.9747 40.2359C71.9804 38.0695 71.5014 35.9192 71.3565 32.9555C70.958 24.8818 73.4859 19.0229 78.4934 16.3934C80.4255 15.3786 82.1443 14.984 84.6843 14.98C87.5785 14.9719 89.5388 15.5639 91.6441 17.0779C93.9183 18.7168 95.4922 21.6443 95.7217 24.6684L95.7901 25.5865H93.0489H90.3076V25.2241C90.3076 23.8953 89.4865 21.7691 88.5929 20.7826C86.9304 18.9464 83.7826 18.5356 81.2628 19.8323C80.3611 20.2953 79.2099 21.455 78.6906 22.4255C77.5032 24.6443 76.9074 28.1798 77.0523 32.1139C77.2133 36.4347 78.0909 39.2937 79.7976 41.0695C81.0454 42.3701 82.4261 42.9379 84.3421 42.9379C87.4497 42.9379 89.5589 41.154 90.3076 37.8923C90.4324 37.3528 90.5331 36.7407 90.5331 36.5273V36.1407H93.2944H96.0558L95.9632 36.934C95.4761 41.1742 92.9643 44.6251 89.2651 46.1472C87.7154 46.7835 86.7694 46.9566 84.5676 46.9969C83.4445 47.017 82.3698 47.009 82.1846 46.9808ZM108.647 46.8237C103.229 45.809 99.9241 41.9594 98.8775 35.428C98.6239 33.8575 98.5354 30.4428 98.7004 28.7757C99.1351 24.4429 100.52 21.0483 102.842 18.6323C103.917 17.5169 104.839 16.8363 106.167 16.188C110.096 14.2632 115.792 14.6136 119.471 17.0014C120.63 17.7544 122.027 19.2282 122.76 20.4725C124.261 23.0215 124.825 25.5704 124.829 29.7623V32.1059L114.58 32.1381L104.332 32.1663L104.296 33.0562C104.275 33.5475 104.32 34.4535 104.392 35.0736C105.032 40.4856 108.12 43.3728 112.765 42.9057C115.949 42.5835 117.672 41.146 118.465 38.1501C118.593 37.6668 118.698 37.1514 118.698 37.0024V36.7326H121.596H124.491V37.0065C124.491 37.1554 124.382 37.7232 124.253 38.2628C123.267 42.3419 120.594 45.1889 116.621 46.3888C114.375 47.0694 110.961 47.2546 108.647 46.8237ZM119.064 27.0039C118.996 24.6201 118.223 22.4859 116.939 21.145C114.496 18.592 110.088 18.3585 107.343 20.6336C105.692 22.0027 104.573 24.455 104.424 27.0362L104.356 28.1959L111.726 28.1637L119.097 28.1314L119.064 27.0039ZM30.9022 31.0388V15.737H33.571H36.2398V17.992C36.2398 19.2323 36.2841 20.247 36.3364 20.247C36.3887 20.247 36.6182 19.9329 36.8436 19.5504C38.0069 17.5773 39.9551 16.1035 42.4508 15.3021C43.3686 15.0082 43.6021 14.98 45.4376 14.976C46.9592 14.9719 47.6515 15.0243 48.3922 15.1894C52.82 16.1961 55.4928 18.8537 56.1731 22.9409C56.314 23.7906 56.3422 25.7637 56.3422 35.1501V46.3445H53.617H50.8919V36.2897C50.8919 25.4053 50.8637 24.7892 50.276 23.1664C49.3623 20.6296 47.2852 19.2967 44.2461 19.2967C41.9356 19.2967 40.3335 19.9933 38.6711 21.7208C37.7855 22.6429 37.5883 22.9208 37.2904 23.6859C36.4491 25.8201 36.3606 27.2093 36.3565 37.8319L36.3525 46.3445H33.6274H30.9022V31.0388ZM61.567 30.9784V15.737H64.3485H67.13V30.9824V46.2278H64.3485H61.567V30.9784ZM131.164 33.028L131.136 19.8323L128.665 19.8L126.193 19.7678V17.8148V15.8619L128.665 15.8296L131.136 15.7974L131.201 11.6458C131.273 7.04724 131.305 6.81369 132.062 5.1909C132.549 4.14796 133.757 2.80705 134.719 2.23927C135.065 2.03391 135.806 1.70774 136.365 1.51445C138.575 0.745337 140.914 0.721176 143.888 1.44197C144.142 1.50237 144.142 1.51445 144.142 3.8822V6.25799L143.603 6.1694C143.305 6.12108 142.323 6.08081 141.417 6.07679C139.364 6.07276 138.398 6.33048 137.609 7.09154C136.711 7.95729 136.647 8.29554 136.647 12.3586V15.8538H139.996H143.345V17.8108V19.7678H139.996H136.647V32.9958V46.2237H133.922H131.197L131.164 33.028ZM161.177 43.4896C160.11 43.3647 159.527 43.1795 158.561 42.656C156.987 41.8064 155.96 40.7554 154.564 38.5769C153.831 37.4373 153.811 37.385 154.072 37.3487C154.511 37.2883 156.27 37.9648 157.901 38.8185C160.642 40.252 162.739 41.6775 163.681 42.7486L164.176 43.3084L163.781 43.3889C163.065 43.5339 161.926 43.5781 161.177 43.4896ZM193.601 43.5339C193.416 43.5097 192.993 43.4614 192.663 43.4251L192.067 43.3567L192.265 43.0104C192.53 42.5433 193.609 41.6453 195.038 40.699C196.394 39.801 199.901 37.9447 200.806 37.6427C201.619 37.3729 202.292 37.2642 202.292 37.4051C202.292 37.5984 200.975 39.5997 200.343 40.3728C199.124 41.8587 197.284 43.0667 195.819 43.3527C195.03 43.5097 194.048 43.5862 193.601 43.5339ZM166.909 42.8896C165.235 42.6359 163.769 41.4399 162.932 39.64C162.276 38.2266 161.616 35.428 161.938 35.428C161.998 35.428 162.401 35.7058 162.832 36.0441C165.339 38.0131 168.427 41.1218 168.934 42.1889L169.244 42.8413L168.986 42.9178C168.632 43.0265 167.73 43.0104 166.909 42.8896ZM187.209 42.9379C186.903 42.8775 186.939 42.648 187.386 41.895C188.179 40.554 193.991 35.1461 194.297 35.4642C194.41 35.581 194.108 37.2118 193.762 38.3393C193.162 40.3124 192.164 41.6574 190.763 42.3782C189.745 42.8976 188.215 43.1392 187.209 42.9379ZM175.024 40.8279C167.094 39.4869 160.823 33.3662 159.028 25.2241C158.645 23.4845 158.524 22.0148 158.601 19.8967C158.714 16.6914 159.241 14.529 160.614 11.6378C161.048 10.7237 161.749 9.47136 162.171 8.85124C163.117 7.462 165.118 5.33586 166.402 4.3493C171.043 0.793658 176.771 -0.454642 182.411 0.862114C184.125 1.26479 185.007 1.59901 186.786 2.51712C192.152 5.29559 195.887 10.3814 197.196 16.6833C197.425 17.7826 197.453 18.2618 197.453 20.7181C197.453 23.7785 197.32 24.7771 196.6 27.0643C196.129 28.5583 194.821 31.2441 193.911 32.581C192.925 34.0307 190.827 36.2172 189.451 37.232C187.281 38.8346 184.604 40.0628 182.012 40.6507C180.547 40.9889 176.55 41.0856 175.024 40.8279ZM171.112 36.4669C171.55 36.3018 172.444 35.9474 173.1 35.6816C174.73 35.0253 176.103 34.6226 177.198 34.4817C178.305 34.3367 178.635 34.1837 178.973 33.6562C179.279 33.181 179.303 32.6777 179.053 31.9126C178.953 31.6065 178.808 30.7327 178.727 29.9717C178.647 29.2106 178.494 28.3892 178.385 28.1556C178.172 27.6885 177.52 27.0201 176.417 26.1382C175.463 25.3771 175.233 24.9785 175.29 24.1812C175.326 23.6899 175.407 23.4805 175.664 23.1986C175.914 22.9288 176.006 22.6913 176.051 22.2242C176.103 21.6765 176.143 21.6 176.393 21.5638C176.852 21.4953 176.96 21.3222 176.96 20.6416C176.96 20.0497 176.98 20.0054 177.23 20.0054C177.661 20.0054 177.83 19.7074 177.649 19.2524C177.246 18.2256 177.387 17.8672 178.192 17.8672C178.909 17.8632 180.136 17.5813 180.664 17.2954C180.905 17.1665 181.638 16.5061 182.294 15.8337C184.029 14.0498 185.216 13.4861 187.241 13.482C188.432 13.482 189.278 13.6834 190.276 14.2068C192.901 15.588 194.72 17.8229 195.368 20.4524C195.674 21.6966 195.67 23.7825 195.36 25.059C194.961 26.71 194.446 27.6321 193.214 28.9046C191.488 30.6884 190.079 31.3972 188.159 31.4535C186.895 31.4898 186.802 31.5824 186.871 32.7018C186.947 33.9179 187.656 35.0615 188.859 35.9273C189.455 36.3541 189.427 36.3702 190.908 34.8964C195.09 30.7408 197.244 24.914 196.741 19.1115C196.499 16.3249 195.662 13.4941 194.366 11.0861C194.092 10.5787 193.83 10.1398 193.778 10.1076C193.726 10.0754 193.436 10.2123 193.13 10.4177C192.824 10.619 192.116 11.0539 191.552 11.376C190.988 11.7022 190.518 11.98 190.501 11.9921C190.485 12.0082 190.598 12.3183 190.751 12.6807L191.033 13.3451L190.554 13.1236C190.292 13.0028 189.998 12.7693 189.902 12.6082C189.769 12.3827 189.684 12.3384 189.535 12.427C189.411 12.4995 189.076 12.4834 188.573 12.3787C187.937 12.2458 187.857 12.2015 188.106 12.1371C188.271 12.0928 188.646 11.9519 188.936 11.819L189.467 11.5814L189.097 10.9009C188.626 10.0271 187.442 8.20293 187.225 8.01367C187.088 7.89689 186.871 7.96132 186.066 8.35594C185.522 8.62574 184.769 8.95996 184.395 9.1009C184.021 9.24183 183.695 9.37472 183.675 9.39485C183.654 9.41498 183.876 10.1841 184.17 11.1062C184.463 12.0284 184.681 12.8055 184.657 12.8337C184.629 12.8619 184.459 12.9143 184.274 12.9545L183.94 13.023L183.421 11.3841C182.817 9.48747 183.055 9.63243 181.102 9.9586C180.478 10.0633 179.621 10.1801 179.198 10.2244L178.434 10.2968V12.2498V14.2028L179.315 14.1303C179.798 14.0901 180.668 14.0095 181.243 13.9491C181.819 13.8887 182.403 13.8404 182.539 13.8404H182.789L182.515 14.1464C182.064 14.6498 181.859 14.7102 180.14 14.8431L178.494 14.9679L178.462 15.6484L178.43 16.329H178.039H177.649V13.321V10.313L177.053 10.2364C176.727 10.1962 176.296 10.1599 176.099 10.1599C175.813 10.1599 175.696 10.0794 175.507 9.74518L175.274 9.33042L176.461 9.40693L177.649 9.48344V7.80025C177.649 6.55597 177.612 6.10498 177.508 6.07679C177.431 6.05263 177.009 5.97612 176.57 5.89961C176.131 5.8231 175.64 5.73451 175.475 5.69424C175.193 5.62982 175.137 5.69424 174.597 6.73315C174.279 7.34522 174.006 7.89286 173.982 7.95327C173.945 8.06602 173.346 7.67139 173.338 7.53045C173.334 7.49019 173.587 6.98281 173.897 6.40296C174.3 5.64995 174.42 5.32378 174.324 5.25935C174.247 5.207 173.841 4.95332 173.414 4.68755L172.641 4.20836L171.574 5.11439C170.512 6.01639 170.504 6.02041 170.029 5.91974L169.55 5.81907L170.761 4.75601C171.43 4.17212 171.961 3.6567 171.945 3.61643C171.929 3.57616 171.719 3.31442 171.482 3.0406L171.047 2.54128L170.459 2.79899C168.262 3.76945 165.637 5.77881 163.991 7.7479C161.471 10.768 159.748 14.8028 159.426 18.4591C159.39 18.8819 159.334 19.4296 159.305 19.6752C159.273 19.9289 159.301 20.1182 159.366 20.1182C159.43 20.1182 159.849 19.8202 160.3 19.4578C160.75 19.0954 161.479 18.5799 161.918 18.3142C163.637 17.2793 163.773 16.937 163.343 14.7787C163.093 13.5142 163.053 12.1371 163.242 11.1948C163.629 9.28613 165.001 7.72374 166.877 7.06335C167.489 6.84993 167.791 6.81369 168.793 6.85798C169.783 6.89825 170.133 6.96671 170.854 7.26871C172.617 8.00159 174.312 9.45525 175.04 10.8687C175.411 11.5854 175.439 11.7102 175.439 12.7049C175.439 13.8968 175.233 14.5089 174.42 15.741C174.002 16.3773 173.998 16.3934 174.07 17.239L174.143 18.0927L173.796 18.2779C173.531 18.4229 173.45 18.5437 173.45 18.8095C173.45 18.9987 173.378 19.2 173.289 19.2524C173.201 19.3047 173.112 19.4819 173.092 19.643C173.064 19.8443 172.971 19.9531 172.798 19.9772C172.657 19.9974 172.412 20.1947 172.251 20.4121C171.731 21.1248 171.124 21.2134 169.505 20.8067C168.507 20.5571 168.435 20.553 168.06 20.7423C167.521 21.0121 167.477 21.3101 167.754 22.7557C168.044 24.2657 168.455 27.31 168.455 27.9422C168.455 29.114 168.97 29.4401 171.18 29.6737L172.77 29.8388L173.422 29.3636C173.986 28.9529 174.143 28.8925 174.585 28.9207C175.044 28.9529 175.097 28.9851 175.064 29.2227C175.028 29.4804 175.052 29.4885 175.636 29.416C176.119 29.3556 176.276 29.3797 176.397 29.5328C176.63 29.8227 176.497 30.8898 176.139 31.6589C175.624 32.7582 174.831 33.0884 173.535 32.7502C172.85 32.573 172.706 32.5689 171.901 32.734C170.049 33.1085 169.276 33.2092 168.217 33.2092C167.271 33.2092 167.046 33.1689 166.535 32.9032L165.947 32.5971L165.77 32.879C165.488 33.33 165.291 34.0065 165.283 34.5461C165.279 35.0293 165.303 35.0655 166.249 35.8508C166.784 36.2937 167.332 36.6964 167.469 36.7407C167.606 36.785 168.306 36.8091 169.026 36.789C170.073 36.7769 170.468 36.7165 171.112 36.4669ZM192.671 9.76531L193.331 9.3264L192.82 8.64587C192.538 8.27138 191.818 7.45797 191.222 6.84188C190.405 5.99223 190.099 5.74659 189.982 5.83518C189.081 6.52376 188.118 7.2365 187.998 7.30898C187.881 7.37744 188.022 7.67139 188.577 8.51701C188.98 9.12908 189.503 9.99484 189.737 10.4378L190.163 11.2431L191.089 10.7277C191.596 10.4378 192.309 10.0069 192.671 9.76531ZM181.292 9.14116C181.815 9.03647 182.31 8.91566 182.39 8.86734C182.503 8.80292 182.366 8.42843 181.847 7.36938C181.002 5.6419 180.978 5.61371 180.607 5.7184C180.446 5.7627 179.907 5.86337 179.408 5.93988L178.498 6.08081L178.466 7.78414L178.434 9.48747L179.388 9.41096C179.911 9.36666 180.768 9.24586 181.292 9.14116ZM184.202 8.31568C185.43 7.83649 186.504 7.28885 186.504 7.14791C186.504 6.98281 184.93 5.40029 184.085 4.72379L183.445 4.20836L183.127 4.44192C182.954 4.57077 182.58 4.79627 182.298 4.94124C182.016 5.09023 181.767 5.22714 181.742 5.2513C181.678 5.3117 183.248 8.59755 183.348 8.60963C183.393 8.61366 183.775 8.48077 184.202 8.31568ZM188.368 6.03652C188.863 5.66203 189.29 5.29157 189.314 5.21103C189.374 5.01775 187.329 3.62851 186.094 3.02449L185.104 2.54128L184.604 3.10905L184.105 3.67683L184.48 3.98286C185.289 4.64326 186.597 5.89961 186.891 6.29826C187.06 6.52779 187.257 6.71705 187.334 6.71705C187.406 6.71705 187.873 6.41101 188.368 6.03652ZM177.645 3.75334C177.645 2.90369 177.604 2.21108 177.552 2.21108C177.5 2.21108 177.335 2.38423 177.186 2.59765C176.348 3.7775 175.712 4.7399 175.712 4.82446C175.712 4.90902 175.982 4.98553 177.133 5.21908C177.657 5.32781 177.645 5.36808 177.645 3.75334ZM179.83 5.03788C180.128 4.96942 180.37 4.8607 180.37 4.79627C180.37 4.63923 179.323 3.06476 178.836 2.48893L178.45 2.02988L178.446 3.66475L178.442 5.29962L178.868 5.22714C179.098 5.19492 179.532 5.10634 179.83 5.03788ZM175.403 3.78153C175.688 3.34261 176.083 2.7547 176.28 2.47685C176.481 2.199 176.586 1.9735 176.518 1.9735C176.135 1.9735 173.406 3.59629 173.507 3.76542C173.575 3.88219 174.698 4.58285 174.819 4.58285C174.855 4.58285 175.117 4.22447 175.403 3.78153ZM181.972 4.21239C182.338 4.00703 182.64 3.79361 182.64 3.7332C182.64 3.49965 179.758 1.86075 179.613 2.00974C179.581 2.04599 179.895 2.56947 180.313 3.18154C180.732 3.78958 181.098 4.35333 181.131 4.43789C181.207 4.6352 181.211 4.6352 181.972 4.21239ZM173.249 2.82315C173.511 2.63792 174.131 2.2594 174.634 1.98558C175.741 1.37754 175.898 1.2366 175.37 1.32922C174.449 1.49029 173.225 1.78425 172.549 1.99766L171.824 2.23122L172.259 2.69832C172.496 2.95604 172.714 3.1614 172.734 3.1614C172.758 3.1614 172.991 3.00839 173.249 2.82315ZM184.001 2.60571C184.202 2.33591 184.214 2.27149 184.077 2.19095C183.65 1.94129 180.37 1.18023 180.37 1.33325C180.37 1.34935 180.865 1.63928 181.465 1.9735C182.068 2.31175 182.741 2.71443 182.958 2.86745C183.409 3.18556 183.602 3.13724 184.001 2.60571ZM160.75 39.044C159.825 38.3957 158.959 37.385 158.472 36.3904C157.82 35.0575 157.711 34.534 157.711 32.6414C157.711 31.2844 157.76 30.7811 157.981 29.8831C158.13 29.2791 158.283 28.7838 158.323 28.7838C158.363 28.7838 158.565 29.0495 158.77 29.3757C159.893 31.1676 161.415 36.3904 161.423 38.4803C161.423 38.9635 161.407 39.3782 161.382 39.4064C161.354 39.4346 161.068 39.2695 160.75 39.044ZM194.752 38.9917C194.491 37.2722 196.318 30.8535 197.562 29.1502L197.856 28.7475L197.98 29.0898C198.484 30.475 198.677 33.0361 198.387 34.4776C198.093 35.9273 197.522 36.9984 196.451 38.0977C195.944 38.6212 195.368 39.1406 195.175 39.2534L194.825 39.4588L194.752 38.9917ZM156.926 37.5058C155.731 36.9622 154.93 36.3944 153.932 35.3837C152.575 34.0146 151.621 32.5689 150.876 30.7529C150.49 29.8066 150.095 28.3368 150.2 28.2241C150.313 28.1073 151.734 29.2307 152.7 30.2012C154.958 32.4723 157.24 35.6293 157.917 37.4132C158.154 38.0413 158.106 38.0454 156.926 37.5058ZM198.307 37.3165C198.878 35.738 200.907 32.9233 203.129 30.616C204.493 29.1985 205.85 28.071 206.003 28.2281C206.124 28.3529 205.468 30.4549 205.005 31.4173C204.022 33.4709 202.561 35.3434 201.08 36.4467C200.376 36.9702 198.983 37.695 198.399 37.84L198.085 37.9165L198.307 37.3165ZM155.775 32.279C155.538 31.8924 155.216 31.1998 155.055 30.7408C154.805 30.016 154.769 29.722 154.769 28.4254C154.773 27.0724 154.805 26.8429 155.139 25.816C155.481 24.761 156.311 23.0698 156.733 22.5705C156.91 22.3611 156.926 22.3772 157.071 22.8684C157.599 24.6604 157.18 31.0025 156.435 32.5247L156.21 32.9837L155.775 32.279ZM199.711 32.3877C199.164 31.0428 198.834 28.1274 198.91 25.3167C198.938 24.2335 199.031 23.1423 199.116 22.8282L199.269 22.2685L199.595 22.7678C201.092 25.0751 201.76 27.7851 201.338 29.8468C201.152 30.7569 200.565 32.1824 200.17 32.6857L199.949 32.9676L199.711 32.3877ZM152.941 29.2026C151.983 28.4576 151.134 27.3623 150.55 26.1181C149.81 24.5355 149.58 23.4161 149.508 21.0483C149.472 19.937 149.492 19.0631 149.548 19.0631C149.947 19.0712 151.991 23.0255 152.821 25.3892C153.549 27.467 154.012 29.7381 153.706 29.7341C153.662 29.7301 153.316 29.4925 152.941 29.2026ZM202.404 29.275C202.404 28.663 202.847 26.867 203.362 25.4053C204.248 22.8926 206.321 18.9343 206.647 19.1437C206.804 19.2443 206.655 22.6832 206.45 23.6537C206.083 25.3852 205.347 26.9717 204.373 28.1113C203.974 28.5784 202.634 29.7341 202.493 29.7341C202.445 29.7341 202.404 29.5287 202.404 29.275ZM153.767 25.8684C153.73 25.808 153.622 25.4335 153.521 25.0308C153.292 24.1087 153.288 22.5181 153.517 21.604C153.899 20.0578 154.946 18.2497 156.19 16.9813L156.89 16.2686L156.822 17.3357C156.693 19.3088 155.928 21.9544 154.817 24.2738C154.233 25.4899 153.867 26.0415 153.767 25.8684ZM201.897 25.2966C200.629 23.2309 199.329 19.0229 199.341 17.0216L199.345 16.2686L200.219 17.235C201.233 18.3544 202.062 19.7195 202.477 20.9678C202.964 22.4255 202.96 24.4349 202.469 25.6429L202.324 25.9972L201.897 25.2966ZM203.543 21.0322C203.439 20.392 203.415 19.4497 203.459 17.7826C203.543 14.7787 203.865 12.5841 204.433 11.2069L204.642 10.6915L204.984 11.819C205.745 14.3115 205.862 17.09 205.278 18.9947C205.045 19.7598 204.413 21.0161 204.006 21.5316L203.688 21.9342L203.543 21.0322ZM151.979 21.2819C150.82 19.647 150.337 17.3558 150.603 14.7787C150.735 13.5022 151.166 11.5854 151.452 11.0176C151.609 10.7036 151.613 10.7116 151.903 11.6619C152.466 13.5303 152.772 15.9907 152.772 18.6685C152.772 20.2148 152.595 21.7852 152.422 21.7852C152.374 21.7852 152.177 21.5597 151.979 21.2819ZM153.742 17.682C153.581 16.7961 153.911 15.2458 154.511 14.0216C155.087 12.8539 156.182 11.666 157.574 10.6995C158.122 10.321 158.597 10.0351 158.629 10.0633C158.746 10.1881 157.953 12.1975 157.301 13.4257C156.25 15.4028 155.01 17.1424 154.197 17.7907L153.819 18.0927L153.742 17.682ZM201.631 17.4081C200.323 16.0229 198.524 12.8458 197.928 10.8807C197.779 10.3854 197.671 9.96263 197.695 9.93847C197.767 9.85793 199.426 11.0982 200.066 11.7062C200.879 12.4834 201.652 13.6028 202.01 14.529C202.352 15.4068 202.589 17.1706 202.44 17.7464L202.336 18.1571L201.631 17.4081ZM153.167 13.2042C153.03 12.2659 153.163 11.0056 153.481 10.1841C153.972 8.91969 154.487 8.1546 155.759 6.78953L156.987 5.47277L156.918 6.06471C156.806 7.01503 156.315 8.83513 155.9 9.8378C155.344 11.1827 154.857 11.976 154.004 12.9304L153.251 13.776L153.167 13.2042ZM202.557 13.3854C201.241 12.2096 199.993 9.68075 199.442 7.07543C199.075 5.34392 199.083 5.33586 200.194 6.48349C201.285 7.61099 202.36 9.19351 202.746 10.2364C203.028 11.0015 203.173 12.6888 203.008 13.325L202.911 13.7035L202.557 13.3854ZM61.1162 5.47277V2.33189H64.3525H67.5888V5.4768V8.62171H64.3525H61.1162V5.47277Z" fill="#DCDCDC"/>
</svg>
