<svg width="87" height="69" viewBox="0 0 87 69" fill="none" xmlns="http://www.w3.org/2000/svg">
<path d="M65.8648 45.2379H55.1242L47.2301 29.0953C42.9255 31.3915 40.4577 36.7128 36.0829 40.2328C33.8535 42.0204 31.2455 43.6154 28.0065 44.7016C26.5342 45.1829 24.0384 45.8154 23.0989 45.9116C22.7063 45.9529 22.4259 45.9391 22.3698 45.7879C22.3277 45.6779 22.4399 45.5954 22.8465 45.4029C23.3233 45.1829 25.3003 44.3716 26.5342 43.5329C28.0766 42.4741 28.9599 41.3329 29.03 40.4529C28.6094 38.9816 25.5807 35.7366 28.6795 29.7553C29.7872 27.6102 30.7547 26.0702 31.4418 24.5165C32.227 22.7289 32.7878 20.2264 32.9841 18.3564C32.9982 18.2464 33.0122 18.2464 33.0823 18.3152C34.5826 19.8139 40.4156 25.699 39.5743 31.5565C41.5093 30.8278 44.8745 28.6002 46.4309 27.4177C48.0714 26.1665 49.137 24.8602 50.8757 24.8327C52.4321 24.8052 52.5583 25.534 53.8062 25.699C54.1147 25.7402 54.5634 25.6852 54.8017 25.5615C54.8999 25.5202 54.8719 25.4102 54.7316 25.3827C53.049 24.9977 52.6424 23.6502 50.4551 23.6502C48.492 23.6502 46.9356 25.4102 45.8139 26.139L40.3034 14.8639C37.9618 10.1613 38.6629 6.73756 43.7247 0L65.8648 45.2379Z" fill="#DCDCDC"/>
<path d="M86.7 68.4479L82.9422 64.0616C84.9192 63.6216 86.1251 62.5079 86.1251 60.5691C86.1251 58.3828 84.2322 57.2828 81.8345 57.2828H74.3329V68.4479H76.324V64.2266H80.7829L84.2182 68.4479H86.7ZM76.324 59.0154H81.8906C83.2647 59.0154 84.0779 59.6479 84.0779 60.7066C84.0779 61.7929 83.2226 62.4941 81.8906 62.4941H76.324V59.0154Z" fill="#DCDCDC"/>
<path d="M6.63741 57.2828L0.76236 68.4479H3.01984L4.26776 65.9592H10.9561L12.204 68.4479H14.5035L8.62848 57.2828H6.63741ZM5.1371 64.2266L7.6049 59.3179L10.0727 64.2266H5.1371Z" fill="#DCDCDC"/>
<path d="M25.0327 58.7543C26.9116 58.7543 28.454 59.4418 29.2392 60.6655L30.8517 59.6068C29.73 58.0668 27.7389 56.9943 25.0468 56.9943C20.686 56.9943 18.1762 59.7855 18.1762 62.8793C18.1762 65.9593 20.686 68.7506 25.0468 68.7506C27.7529 68.7506 29.73 67.6781 30.8517 66.1381L29.2392 65.0656C28.454 66.2756 26.9116 66.9769 25.0327 66.9769C22.1022 66.9769 20.2093 65.3681 20.2093 62.8656C20.2093 60.363 22.1022 58.7543 25.0327 58.7543Z" fill="#DCDCDC"/>
<path d="M43.108 58.7543C44.9729 58.7543 46.5293 59.4418 47.3145 60.6655L48.927 59.6068C47.8053 58.0668 45.8142 56.9943 43.122 56.9943C38.7613 56.9943 36.2515 59.7855 36.2515 62.8793C36.2515 65.9593 38.7613 68.7506 43.122 68.7506C45.8142 68.7506 47.8053 67.6781 48.927 66.1381L47.3145 65.0793C46.5293 66.2893 44.9869 66.9906 43.108 66.9906C40.1775 66.9906 38.2846 65.3818 38.2846 62.8793C38.2846 60.3768 40.1775 58.7543 43.108 58.7543Z" fill="#DCDCDC"/>
<path d="M61.181 56.9943C56.8203 56.9943 54.3104 59.7855 54.3104 62.8793C54.3104 65.9593 56.8203 68.7506 61.181 68.7506C65.5417 68.7506 68.0516 65.9593 68.0516 62.8793C68.0516 59.7855 65.5557 56.9943 61.181 56.9943ZM61.181 67.0043C58.2505 67.0043 56.3575 65.3818 56.3575 62.8656C56.3575 60.3493 58.2505 58.7268 61.181 58.7268C64.1115 58.7268 66.0044 60.3493 66.0044 62.8656C66.0184 65.3818 64.1255 67.0043 61.181 67.0043Z" fill="#DCDCDC"/>
</svg>
