<svg width="207" height="34" viewBox="0 0 207 34" fill="none" xmlns="http://www.w3.org/2000/svg">
<path fill-rule="evenodd" clip-rule="evenodd" d="M0 0H207V34H0V0ZM162.436 18.1148C162.167 15.653 162.941 13.2898 164.961 12.7646C169.976 11.4517 170.986 20.4124 166.846 21.5612C165.634 21.8894 164.355 21.5612 163.648 20.9047C162.908 20.2811 162.537 19.362 162.436 18.1148ZM169.068 10.7624C168.897 10.6275 168.736 10.4523 168.556 10.2568C167.992 9.64353 167.244 8.83018 165.432 8.43198C163.648 8.0381 161.696 8.4648 160.417 9.25255C154.762 12.7318 155.738 22.8413 160.585 25.4015C162.504 26.419 165.87 26.8129 167.856 25.3687C168.159 25.1389 168.394 24.9419 168.664 24.6794C168.75 24.5949 168.837 24.4971 168.925 24.3974C169.077 24.226 169.234 24.049 169.404 23.9244V25.8938H174.824V2.3269H169.101L169.068 10.7624ZM12.4109 12.9944C15.0028 12.6333 16.2145 14.6355 16.3155 16.966C16.4165 19.3949 15.7433 21.6596 13.4544 21.9551C10.7615 22.3161 9.5834 20.3139 9.48241 17.9507C9.38143 15.4561 10.122 13.3226 12.4109 12.9944ZM9.38143 10.7624V8.82585H3.86108V31.6707L9.61706 31.7035V23.9901C9.83565 24.15 9.98215 24.3044 10.1443 24.4754C10.3818 24.7257 10.6528 25.0114 11.2328 25.4015C13.3197 26.78 16.5175 26.4846 18.4698 25.3687C24.798 21.7581 23.3506 6.98777 13.2187 8.53045C11.2393 8.78781 10.2945 9.81199 9.75168 10.4005C9.60219 10.5625 9.48318 10.6915 9.38143 10.7624ZM135.979 17.885C136.08 19.7559 135.912 21.2986 134.801 22.152C133.791 22.9397 131.536 23.3008 130.492 22.3161C130.055 21.8894 129.819 21.036 130.021 20.2483C130.223 19.5262 130.795 19.2307 131.502 19.001C132.088 18.8105 132.703 18.7022 133.315 18.5942C133.864 18.4976 134.411 18.4011 134.936 18.2461C135.167 18.1898 135.365 18.112 135.555 18.0373L135.555 18.0372C135.697 17.9813 135.835 17.9272 135.979 17.885ZM125.006 14.0775H130.257C130.314 13.9376 130.365 13.7938 130.416 13.6497C130.784 12.6112 131.155 11.5613 133.993 11.8784C134.936 11.9769 135.575 12.3379 135.811 13.06C136.511 15.1609 134.41 15.3918 131.887 15.6691C131.257 15.7384 130.6 15.8106 129.954 15.9156C128.54 16.1454 126.386 16.6706 125.612 17.5896C125.484 17.7379 125.369 17.8583 125.264 17.9686L125.264 17.9686C124.927 18.3221 124.69 18.5709 124.434 19.2964C124.164 20.0513 124.063 21.0688 124.198 21.9222C124.905 26.9113 131.704 27.1739 135.138 24.942C135.252 24.8674 135.362 24.7834 135.473 24.6989C135.654 24.5603 135.837 24.4203 136.046 24.3183C136.08 24.7778 136.215 25.4671 136.417 25.861H142.139C142.139 25.7101 142.042 25.3452 141.939 24.9543L141.939 24.954C141.84 24.5796 141.734 24.1813 141.701 23.9244C141.563 22.9284 141.584 19.5037 141.596 17.5254V17.5249V17.5216C141.598 17.0895 141.6 16.7267 141.6 16.4736C141.6 16.1431 141.603 15.8276 141.605 15.5261C141.627 12.2342 141.638 10.6056 138.739 9.25255C135.979 7.97246 129.112 7.7427 126.453 10.467C125.78 11.0906 124.804 12.7646 125.006 14.0775ZM192.024 10.9593V8.82585H186.504V25.8938H192.226C192.305 25.256 192.281 21.6838 192.267 19.4919V19.489C192.263 18.8621 192.26 18.3484 192.26 18.0491C192.26 15.3905 192.327 13.1913 195.155 12.9944C198.236 12.784 198.214 14.8017 198.189 17.2093L198.189 17.2121C198.186 17.4336 198.184 17.6584 198.184 17.885C198.184 18.7567 198.18 19.6356 198.177 20.5181V20.5206C198.169 22.2958 198.162 24.0857 198.184 25.861L203.906 25.8938C203.951 24.1639 203.936 22.4194 203.921 20.6798C203.914 19.8118 203.906 18.9451 203.906 18.0819C203.906 17.7098 203.913 17.3178 203.921 16.9148C203.958 14.8299 204.001 12.45 203.098 10.9922C201.012 7.67705 195.155 7.64423 192.563 10.467C192.466 10.5477 192.404 10.6173 192.345 10.6827C192.26 10.777 192.183 10.8624 192.024 10.9593ZM83.5695 15.3905C83.5358 14.4058 84.1417 13.5195 84.6467 13.0272C85.9258 11.7799 88.6859 11.8784 89.8304 13.06C90.268 13.5195 90.8065 14.5042 90.8402 15.3576L83.5695 15.3905ZM96.1249 20.7078L90.7729 20.675C90.7334 20.6914 90.6714 20.7732 90.5797 20.894C90.1238 21.4946 88.936 23.0595 86.1614 22.3489C84.2091 21.8566 83.2329 19.8544 83.4685 18.6399H96.4279C96.7308 13.1585 93.7687 9.21973 88.9552 8.49762C76.4334 6.62671 73.7069 23.3336 84.2764 25.8938C87.8108 26.7472 92.153 26.0908 94.5092 23.4649C95.0141 22.9726 95.9903 21.594 96.1249 20.7078ZM44.7924 15.3905H37.5891C37.5217 14.4714 38.195 13.4867 38.6325 13.06C39.9453 11.7799 42.4699 11.8784 43.7826 12.9944C44.2202 13.3883 44.8261 14.4714 44.7924 15.3905ZM50.1108 20.675H44.7251C44.2875 21.3314 43.9173 21.8566 43.1094 22.2176C42.3352 22.5459 41.1234 22.6115 40.2146 22.3818C39.3394 22.152 38.6999 21.7253 38.2623 21.1017C37.8247 20.478 37.4544 19.5918 37.5554 18.6728L50.4474 18.6399C50.4811 13.1257 48.0239 9.28538 42.9748 8.49762C34.0547 7.15188 29.3085 15.6202 33.0785 22.152C36.108 27.3709 45.0281 27.3709 48.5288 23.5306C49 23.071 50.0772 21.6268 50.1108 20.675ZM123.457 19.1651H117.937C117.634 20.2811 117.499 20.7734 116.759 21.4627C116.153 22.0207 114.908 22.2833 113.83 22.0207C111.979 21.594 111.272 19.7559 111.272 17.5568C111.272 15.3576 111.844 13.4211 113.46 12.7318C114.335 12.3379 115.547 12.4036 116.389 12.8303C117.197 13.257 117.499 13.8806 117.769 14.9966H123.356C123.424 12.9616 121.943 10.9265 120.226 9.81054C118.476 8.66174 115.749 8.16939 113.225 8.49762C108.512 9.08844 105.415 12.502 105.449 17.5568C105.483 22.5459 108.781 25.861 113.628 26.222C116.22 26.419 118.779 25.861 120.462 24.6137C121.808 23.629 123.289 21.6268 123.457 19.1651ZM57.9874 11.583L57.9538 8.79303L52.4334 8.76021C52.3619 9.85281 52.3917 12.7071 52.4151 14.9559V14.956C52.4248 15.8824 52.4334 16.706 52.4334 17.2614C52.4334 17.5181 52.4286 18.0413 52.4226 18.7088C52.4006 21.1137 52.3617 25.3914 52.4671 25.8282H58.1221C58.265 25.255 58.2281 23.5561 58.1881 21.7181C58.1434 19.6614 58.0948 17.4306 58.2904 16.408C58.5596 14.9966 59.2665 14.1432 60.3773 13.618C61.5607 13.0779 62.4992 13.2172 63.5733 13.3767C63.9352 13.4304 64.3124 13.4865 64.7195 13.5195V8.56327C62.5653 7.80835 60.5456 8.53045 59.0646 10.0731C58.9327 10.2403 58.7957 10.4578 58.6555 10.6803C58.4379 11.0258 58.2126 11.3833 57.9874 11.583ZM149.713 11.6486L149.679 8.82585H144.159V25.861L149.881 25.8938C149.89 25.1078 149.874 24.2302 149.856 23.3184L149.856 23.3171C149.811 20.9546 149.762 18.3626 150.15 16.5393C150.453 15.095 151.126 14.2088 152.204 13.7165C152.843 13.4211 153.483 13.3226 154.257 13.3226C154.679 13.3226 155.141 13.4007 155.561 13.4717C155.912 13.5309 156.234 13.5852 156.478 13.5852V8.66174C154.829 7.80834 152.069 8.66174 150.824 10.1716C150.388 10.6215 150.069 11.1096 149.868 11.4182C149.804 11.5148 149.753 11.5939 149.713 11.6486ZM71.115 8.79301V11.6486C71.2891 11.46 71.4437 11.228 71.6133 10.9736C72.0337 10.3428 72.5458 9.57472 73.6732 8.98995C74.7167 8.39913 76.7027 7.97244 77.9144 8.6289V13.5523C77.39 13.5419 76.9404 13.4717 76.5137 13.4051C75.5986 13.2623 74.7889 13.1359 73.5722 13.6508C72.4614 14.1103 71.7545 15.0294 71.4516 16.4079C71.2319 17.4435 71.291 19.5959 71.3473 21.6448C71.3945 23.3627 71.4398 25.0078 71.3169 25.861H65.5946V8.79301H71.115ZM183.575 25.8938L177.853 25.861V8.82583H183.575V25.8938ZM29.8806 25.8938L24.1583 25.861V8.79301L29.9143 8.82583L29.8806 25.8938ZM183.542 6.52822H177.853V2.26123H183.575L183.542 6.52822ZM29.847 6.52822H24.1583V2.26123H29.8806L29.847 6.52822Z" fill="#DCDCDC"/>
</svg>
