<svg width="190" height="30" viewBox="0 0 190 30" fill="none" xmlns="http://www.w3.org/2000/svg">
<path d="M8.83993 13.332H3.18645L0.441101 0.485596H4.98148L6.15618 8.40187L7.34847 0.485596H12.6632L13.8555 8.60858L15.061 0.485596H19.4122L16.7108 13.332H11.1365L9.97942 5.01547" fill="#DCDCDC"/>
<path d="M139.951 29.2569H127.311L121.174 0.485596H131.324L133.95 18.2093L136.621 0.485596H148.262L150.928 18.6754L153.616 0.485596H163.582L157.545 29.2569H145.086L142.499 10.636" fill="#DCDCDC"/>
<path d="M22.4558 13.3364V0.485596H32.2185V3.78844H27.379V5.18259H31.8709V8.48543H27.379V9.99832H32.3857V13.3364" fill="#DCDCDC"/>
<path d="M65.1848 13.3364V0.485596H74.9475V3.78844H70.1124V5.18259H74.6043V8.48543H70.1124V9.99832H75.1147V13.3364" fill="#DCDCDC"/>
<path d="M35.4923 9.58492H40.3055V9.69047C40.3055 10.1347 40.4111 10.4645 40.6179 10.68C40.8246 10.8955 41.1502 11.0054 41.5858 11.0054C41.9685 11.0054 42.2633 10.9219 42.4789 10.7504C42.6945 10.5832 42.8045 10.3502 42.8045 10.0555C42.8045 9.8356 42.7649 9.65089 42.6813 9.49256L42.3205 9.14512C42.0609 9.02198 41.533 8.85926 40.7323 8.65695C39.9315 8.45465 39.3024 8.28313 38.8316 8.1424C37.7053 7.79056 36.887 7.33318 36.3723 6.76145C35.8575 6.19411 35.5979 5.46845 35.5979 4.59326C35.5979 3.29148 36.1303 2.27555 37.1994 1.55429C38.2729 0.846226 39.7731 0.485596 41.7002 0.485596C43.46 0.485596 44.8063 0.793451 45.739 1.41356C46.6673 2.03367 47.1293 2.92205 47.1293 4.0831V4.36017H42.6945C42.6549 3.96436 42.5449 3.6697 42.3513 3.48059C42.1621 3.29148 41.8805 3.19472 41.511 3.19472C41.1898 3.19472 40.9346 3.27388 40.741 3.43661C40.5475 3.59933 40.4507 3.80603 40.4507 4.06991C40.4507 4.54928 40.9918 4.91871 42.0741 5.16939C42.4657 5.25735 42.7825 5.33651 43.0156 5.40248C44.8283 5.87746 46.0514 6.40961 46.6893 6.99893C47.3316 7.58826 47.6484 8.40627 47.6484 9.44858C47.6484 10.8515 47.0941 11.9642 45.9898 12.7866C44.8855 13.6046 43.3808 14.018 41.4758 14.018C39.5444 14.018 38.0617 13.675 37.0234 12.9933C35.9851 12.3116 35.4703 11.3309 35.4703 10.0643L35.4747 9.77403L35.4923 9.58492Z" fill="#DCDCDC"/>
<path d="M61.8374 0.485596V3.91598H58.6652V13.332H53.5969V3.91598H50.4204V0.485596" fill="#DCDCDC"/>
<path d="M78.7494 13.2748V0.485596H85.428C87.3902 0.485596 88.7585 0.73188 89.5372 1.22445C90.3159 1.71702 90.7075 2.55702 90.7075 3.73567C90.7075 4.50531 90.4919 5.13861 90.0607 5.63997C89.6296 6.13694 88.9872 6.49757 88.1293 6.71746C88.9256 6.84501 89.4932 7.10448 89.8364 7.4959C90.1751 7.89171 90.4127 8.59978 90.5491 9.6289L90.7251 11.0142C90.7471 11.2473 90.7911 11.5288 90.8571 11.8674C90.9231 12.2061 91.0243 12.6723 91.1606 13.2704H86.1715C86.0571 12.8438 85.9735 12.4963 85.9207 12.2281C85.8635 11.9642 85.8239 11.7179 85.7931 11.4936L85.6699 10.5569C85.5468 9.71246 85.3796 9.17591 85.1728 8.95161C84.966 8.72732 84.6184 8.61297 84.1257 8.61297L83.8529 8.61737L83.6681 8.63936V13.2704L78.7494 13.2748ZM83.6769 5.76311L83.8133 5.77631L84.0289 5.78071C84.6052 5.78071 85.0496 5.66636 85.362 5.43767C85.67 5.20897 85.8239 4.88353 85.8239 4.46133C85.8239 4.06991 85.6963 3.77965 85.4456 3.59933C85.1904 3.41902 84.7856 3.32666 84.2313 3.32666L83.9057 3.33106L83.6769 3.34425V5.76311Z" fill="#DCDCDC"/>
<path d="M98.7276 5.39809V13.2484H94.6227V0.485596H100.694L103.501 8.1248V0.485596H107.602V13.2484H101.53" fill="#DCDCDC"/>
<path d="M98.7276 21.1735V29.081H94.6227V16.217H100.694L103.501 23.9178V16.217H107.602V29.081H101.53" fill="#DCDCDC"/>
<path d="M55.7304 21.1692V29.0767H51.6256V16.2216H57.6971L60.504 23.9135V16.2216H64.6044V29.0767H58.533" fill="#DCDCDC"/>
<path d="M35.3163 16.2216H40.2438V24.2566C40.2438 24.8107 40.345 25.2285 40.543 25.5144C40.741 25.8003 41.0314 25.9454 41.4097 25.9454C41.7793 25.9454 42.0653 25.7959 42.2676 25.4968C42.4744 25.1977 42.5756 24.7843 42.5756 24.2522V16.2216H47.5208V24.0543C47.5208 25.8882 47.028 27.2384 46.0337 28.1136C45.0438 28.9844 43.4995 29.4198 41.4097 29.4198C40.2042 29.4198 39.2099 29.2922 38.4224 29.0415C37.6349 28.7908 36.9837 28.3906 36.469 27.8453C36.0598 27.4099 35.765 26.9261 35.5847 26.394C35.4087 25.8662 35.3163 25.0834 35.3163 24.0543" fill="#DCDCDC"/>
<path d="M73.8829 16.226H68.8102V29.0679H73.8829V16.226Z" fill="#DCDCDC"/>
<path d="M84.1077 29.4286C82.0311 29.4286 80.4253 28.8392 79.2902 27.6606C78.1507 26.4863 77.5831 24.8239 77.5831 22.6865C77.5831 20.514 78.1639 18.8383 79.3254 17.6597C80.4825 16.481 82.1323 15.8917 84.2661 15.8917C86.3911 15.8917 88.0278 16.481 89.1805 17.6553C90.3332 18.8339 90.9095 20.5008 90.9095 22.6689C90.9095 24.8635 90.3288 26.5391 89.1673 27.6958C88.0058 28.848 86.3207 29.4286 84.1077 29.4286ZM84.2529 19.2957C83.725 19.2957 83.351 19.5376 83.1354 20.0214C82.9198 20.5052 82.8099 21.4023 82.8099 22.7217C82.8099 23.9531 82.9198 24.8151 83.1354 25.3033C83.351 25.7915 83.7162 26.0378 84.2309 26.0378C84.7589 26.0378 85.1328 25.7827 85.3484 25.2637C85.564 24.7492 85.674 23.8212 85.674 22.4798C85.674 21.2704 85.5684 20.4348 85.3528 19.9774C85.1416 19.5244 84.7721 19.2957 84.2529 19.2957Z" fill="#DCDCDC"/>
<path d="M119.74 29.0809H118.033L112.032 0.485596H113.739" fill="#DCDCDC"/>
<path d="M124.369 29.0809H122.662L116.66 0.485596H118.368" fill="#DCDCDC"/>
<path d="M171.835 0.485596V18.4555C171.835 19.6342 171.607 20.5578 171.149 21.2218C170.691 21.8903 170.053 22.2246 169.231 22.2246C168.382 22.2246 167.739 21.9035 167.295 21.2614C166.851 20.6193 166.631 19.6826 166.631 18.4555V0.485596H164.479L158.878 27.0799C159.908 27.9771 161.14 28.6587 162.574 29.1205C164.325 29.6835 166.547 29.9649 169.235 29.9649C173.894 29.9649 177.33 28.993 179.543 27.0491C181.756 25.1052 182.861 22.0926 182.861 18.007V0.485596" fill="#DCDCDC"/>
<path d="M155.654 0.485596V18.0026C155.654 20.2939 155.852 22.0311 156.252 23.2141C156.635 24.362 157.268 25.4087 158.139 26.3586L163.582 0.485596" fill="#DCDCDC"/>
<path d="M185.096 2.7464L185.637 2.71122L185.708 2.92232L185.958 3.04106L186.148 2.97949L186.214 2.83876L186.152 2.70242L185.862 2.58807C185.615 2.5309 185.435 2.45174 185.329 2.35058L185.166 1.97676L185.246 1.69089L185.492 1.48419C185.602 1.43142 185.752 1.40503 185.941 1.40503C186.178 1.40503 186.354 1.44901 186.477 1.54576C186.601 1.63812 186.675 1.78325 186.697 1.98556L186.161 2.02074L186.073 1.83163L185.884 1.77006L185.734 1.81404L185.686 1.92399L185.725 2.00755L185.914 2.07791C186.161 2.13509 186.341 2.19226 186.447 2.24943L186.68 2.46493L186.755 2.7508L186.658 3.09384L186.385 3.33572L185.941 3.41488C185.628 3.41488 185.413 3.35331 185.29 3.22577C185.18 3.10263 185.109 2.93991 185.096 2.7464Z" fill="#DCDCDC"/>
<path d="M187.041 1.44434H187.789L188.075 2.62738L188.361 1.44434H189.108V3.38822H188.642V1.90612L188.286 3.38822H187.863L187.507 1.90612V3.38822H187.041" fill="#DCDCDC"/>
</svg>
