<svg width="601" height="412" viewBox="0 0 601 412" fill="none" xmlns="http://www.w3.org/2000/svg">
<path d="M21.1143 241.143C20.4857 240.435 19.8465 239.674 19.0384 239.17C17.8462 238.458 16.5248 238.636 15.3425 239.339C13.531 240.424 11.941 241.786 10.4058 243.256C8.73338 244.865 7.06095 246.475 5.36951 248.099C4.47416 248.967 3.30442 249.841 2.76564 250.999C2.14866 252.37 2.43717 253.744 3.58918 254.639L3.60394 254.658C6.32281 258.448 9.0269 262.22 11.712 266.007C12.1908 266.684 13.1299 266.963 13.932 266.836C15.9162 266.552 17.7045 265.516 19.4062 264.488C21.2557 263.373 23.0651 262.168 24.8007 260.872C25.5566 260.298 26.3125 259.724 27.0537 259.131C27.8898 258.463 28.9286 257.814 29.5833 256.957C31.237 254.818 29.7395 252.594 28.514 250.788C26.1981 247.463 23.8821 244.138 21.1143 241.143ZM23.1123 256.227C22.0523 257.044 20.9586 257.858 19.8353 258.635C18.7881 259.351 17.7451 260.034 16.6578 260.661C16.0139 261.024 15.3319 261.418 14.6437 261.726C12.3741 258.575 10.1235 255.41 7.87291 252.244C8.29946 251.842 8.71125 251.422 9.1378 251.021C10.1514 250.029 11.1798 249.055 12.1934 248.063C13.1457 247.15 14.0791 246.253 15.061 245.377C15.5593 244.948 16.0534 244.553 16.5813 244.162C16.7143 244.055 16.8811 243.952 17.0289 243.864C17.1175 243.975 17.2251 244.071 17.3137 244.182C17.7946 244.705 18.2566 245.244 18.7334 245.802C19.6531 246.913 20.5391 248.021 21.4018 249.178C22.2645 250.335 23.0744 251.504 23.8991 252.692C24.2598 253.221 24.6353 253.768 25.0149 254.282C25.074 254.356 25.1288 254.464 25.2027 254.556C25.0696 254.662 24.9366 254.769 24.7846 254.89C24.2482 255.349 23.6824 255.771 23.1123 256.227Z" fill="white" fill-opacity="0.2"/>
<path d="M239.299 23.0096C240.021 18.1816 238.91 13.4694 237.372 8.88071C237.333 7.51179 236.202 6.59416 234.898 6.52359C232.065 6.3804 229.236 6.60424 226.443 6.97622C224.9 7.19655 223.37 7.43738 221.819 7.69077C220.375 7.93494 218.776 8.01968 217.7 9.17196C216.481 10.4988 216.798 12.1786 217.077 13.7969C217.332 15.2876 217.587 16.7783 217.875 18.2769C218.456 21.3277 219.131 24.3488 219.912 27.3607C220.105 28.1219 220.881 28.9191 221.674 29.0232C224.508 29.3932 227.133 28.301 229.723 27.2875C232.313 26.2739 234.89 25.2399 237.659 24.7403C238.431 24.6301 239.194 23.7859 239.299 23.0096ZM222.047 14.6299C221.943 14.0123 221.839 13.3946 221.734 12.7769C221.729 12.7233 221.724 12.6697 221.718 12.6162C222.596 12.4968 223.517 12.2656 224.328 12.1304C225.467 11.9344 226.597 11.7714 227.741 11.629C229.542 11.4187 231.367 11.336 233.197 11.3069C234.145 14.2719 234.944 17.3578 234.802 20.4606C232.834 20.9446 230.955 21.6589 229.067 22.4061C227.923 22.862 226.765 23.2974 225.595 23.7123C225.161 23.8689 224.645 24.0757 224.112 24.2084C223.649 22.2494 223.154 20.2825 222.765 18.3064C222.484 17.0882 222.255 15.8653 222.047 14.6299Z" fill="white" fill-opacity="0.2"/>
<path d="M548.299 318.01C549.021 313.182 547.91 308.469 546.372 303.881C546.333 302.512 545.202 301.594 543.898 301.524C541.065 301.38 538.236 301.604 535.443 301.976C533.9 302.197 532.37 302.437 530.819 302.691C529.375 302.935 527.776 303.02 526.7 304.172C525.481 305.499 525.798 307.179 526.077 308.797C526.332 310.288 526.587 311.778 526.875 313.277C527.456 316.328 528.131 319.349 528.912 322.361C529.105 323.122 529.881 323.919 530.674 324.023C533.508 324.393 536.133 323.301 538.723 322.287C541.313 321.274 543.89 320.24 546.659 319.74C547.431 319.63 548.194 318.786 548.299 318.01ZM531.047 309.63C530.943 309.012 530.839 308.395 530.734 307.777C530.729 307.723 530.724 307.67 530.718 307.616C531.596 307.497 532.517 307.266 533.328 307.13C534.467 306.934 535.597 306.771 536.741 306.629C538.542 306.419 540.367 306.336 542.197 306.307C543.145 309.272 543.944 312.358 543.802 315.461C541.834 315.945 539.955 316.659 538.067 317.406C536.923 317.862 535.765 318.297 534.595 318.712C534.161 318.869 533.645 319.076 533.112 319.208C532.649 317.249 532.154 315.283 531.765 313.306C531.484 312.088 531.255 310.865 531.047 309.63Z" fill="white" fill-opacity="0.2"/>
<path d="M165.299 357.01C166.021 352.182 164.91 347.469 163.372 342.881C163.333 341.512 162.202 340.594 160.898 340.524C158.065 340.38 155.236 340.604 152.443 340.976C150.9 341.197 149.37 341.437 147.819 341.691C146.375 341.935 144.776 342.02 143.7 343.172C142.481 344.499 142.798 346.179 143.077 347.797C143.332 349.288 143.587 350.778 143.875 352.277C144.456 355.328 145.131 358.349 145.912 361.361C146.105 362.122 146.881 362.919 147.674 363.023C150.508 363.393 153.133 362.301 155.723 361.287C158.313 360.274 160.89 359.24 163.659 358.74C164.431 358.63 165.194 357.786 165.299 357.01ZM148.047 348.63C147.943 348.012 147.839 347.395 147.734 346.777C147.729 346.723 147.724 346.67 147.718 346.616C148.596 346.497 149.517 346.266 150.328 346.13C151.467 345.934 152.597 345.771 153.741 345.629C155.542 345.419 157.367 345.336 159.197 345.307C160.145 348.272 160.944 351.358 160.802 354.461C158.834 354.945 156.955 355.659 155.067 356.406C153.923 356.862 152.765 357.297 151.595 357.712C151.161 357.869 150.645 358.076 150.112 358.208C149.649 356.249 149.154 354.283 148.765 352.306C148.484 351.088 148.255 349.865 148.047 348.63Z" fill="white" fill-opacity="0.2"/>
<path d="M600.273 7.14839C596.554 3.9859 591.966 2.44033 587.257 1.32276C586.074 0.633195 584.698 1.10876 583.949 2.17877C582.331 4.50902 581.027 7.0295 579.868 9.59753C579.241 11.0242 578.637 12.4509 578.033 13.9014C577.478 15.2567 576.705 16.6596 577.116 18.1814C577.599 19.9172 579.192 20.5354 580.713 21.1537C582.114 21.7243 583.515 22.295 584.939 22.8419C587.837 23.9595 590.759 24.9819 593.729 25.9093C594.477 26.1471 595.564 25.9093 596.071 25.2911C597.882 23.0797 598.341 20.2739 598.848 17.5394C599.355 14.8049 599.838 12.0704 600.876 9.45486C601.19 8.74152 600.876 7.64773 600.273 7.14839ZM584.046 17.373C583.466 17.1352 582.887 16.8974 582.307 16.6596C582.259 16.6358 582.211 16.6121 582.162 16.5883C582.525 15.7798 582.814 14.8763 583.128 14.1154C583.563 13.0453 584.022 11.9991 584.505 10.9529C585.277 9.31219 586.171 7.71906 587.112 6.14971C590.131 6.91061 593.173 7.86173 595.733 9.62131C595.105 11.5473 594.719 13.5209 594.357 15.5183C594.139 16.731 593.898 17.9436 593.632 19.1563C593.536 19.6081 593.439 20.155 593.27 20.6781C591.362 20.0361 589.431 19.4179 587.547 18.7045C586.364 18.3003 585.205 17.8485 584.046 17.373Z" fill="white" fill-opacity="0.2"/>
<path d="M355.273 393.148C351.554 389.986 346.966 388.44 342.257 387.323C341.074 386.633 339.698 387.109 338.949 388.179C337.331 390.509 336.027 393.029 334.868 395.598C334.241 397.024 333.637 398.451 333.033 399.901C332.478 401.257 331.705 402.66 332.116 404.181C332.599 405.917 334.192 406.535 335.713 407.154C337.114 407.724 338.515 408.295 339.939 408.842C342.837 409.959 345.759 410.982 348.729 411.909C349.477 412.147 350.564 411.909 351.071 411.291C352.882 409.08 353.341 406.274 353.848 403.539C354.355 400.805 354.838 398.07 355.876 395.455C356.19 394.742 355.876 393.648 355.273 393.148ZM339.046 403.373C338.466 403.135 337.887 402.897 337.307 402.66C337.259 402.636 337.211 402.612 337.162 402.588C337.525 401.78 337.814 400.876 338.128 400.115C338.563 399.045 339.022 397.999 339.505 396.953C340.277 395.312 341.171 393.719 342.112 392.15C345.131 392.911 348.173 393.862 350.733 395.621C350.105 397.547 349.719 399.521 349.357 401.518C349.139 402.731 348.898 403.944 348.632 405.156C348.536 405.608 348.439 406.155 348.27 406.678C346.362 406.036 344.431 405.418 342.547 404.705C341.364 404.3 340.205 403.849 339.046 403.373Z" fill="white" fill-opacity="0.2"/>
<path d="M207.273 320.148C203.554 316.986 198.966 315.44 194.257 314.323C193.074 313.633 191.698 314.109 190.949 315.179C189.331 317.509 188.027 320.029 186.868 322.598C186.241 324.024 185.637 325.451 185.033 326.901C184.478 328.257 183.705 329.66 184.116 331.181C184.599 332.917 186.192 333.535 187.713 334.154C189.114 334.724 190.515 335.295 191.939 335.842C194.837 336.959 197.759 337.982 200.729 338.909C201.477 339.147 202.564 338.909 203.071 338.291C204.882 336.08 205.341 333.274 205.848 330.539C206.355 327.805 206.838 325.07 207.876 322.455C208.19 321.742 207.876 320.648 207.273 320.148ZM191.046 330.373C190.466 330.135 189.887 329.897 189.307 329.66C189.259 329.636 189.211 329.612 189.162 329.588C189.525 328.78 189.814 327.876 190.128 327.115C190.563 326.045 191.022 324.999 191.505 323.953C192.277 322.312 193.171 320.719 194.112 319.15C197.131 319.911 200.173 320.862 202.733 322.621C202.105 324.547 201.719 326.521 201.357 328.518C201.139 329.731 200.898 330.944 200.632 332.156C200.536 332.608 200.439 333.155 200.27 333.678C198.362 333.036 196.431 332.418 194.547 331.705C193.364 331.3 192.205 330.849 191.046 330.373Z" fill="white" fill-opacity="0.2"/>
</svg>
