<svg width="234" height="74" viewBox="0 0 234 74" fill="none" xmlns="http://www.w3.org/2000/svg">
<path d="M28.2098 54.898C27.7798 52.898 27.2898 50.978 27.1098 48.928C26.9198 46.768 27.1898 44.368 26.6698 42.248C25.6098 37.978 21.2498 38.618 17.8298 38.658C16.4798 38.678 15.4298 39.348 14.7498 40.278C12.4198 39.528 10.0498 38.958 7.64977 38.888C5.50977 38.828 3.61977 40.768 3.64977 42.888C3.71977 47.888 3.79977 52.878 3.90977 57.878C3.97977 61.198 7.32977 62.368 9.66977 61.398C10.0898 61.578 10.5498 61.718 11.0598 61.778C15.1998 62.248 19.8098 62.078 23.9498 61.718C27.8098 61.408 28.9498 58.308 28.2098 54.898ZM19.0788 51.919C18.1758 52.702 17.0678 53.179 15.9998 53.688C14.7248 54.295 13.5198 55.032 12.3178 55.768C11.9648 55.984 11.6048 55.694 11.5658 55.336C11.3068 52.997 11.2408 50.644 11.2398 48.292C11.2398 48.088 11.3438 47.957 11.4808 47.882C11.4458 47.528 11.8158 47.14 12.2208 47.371C12.5308 47.548 12.8918 47.583 13.2318 47.678C13.6308 47.79 14.0248 47.93 14.4118 48.076C15.1598 48.358 15.8908 48.683 16.6128 49.025C17.0638 49.238 17.2668 49.334 17.7258 49.503C18.1048 49.643 18.4938 49.787 18.8398 49.997C19.1528 50.187 19.4578 50.446 19.5538 50.814C19.6678 51.261 19.3988 51.642 19.0788 51.919Z" fill="#FBB03B"/>
<path d="M51.5799 70.368C52.1599 69.498 52.6599 68.598 52.8699 67.558C53.3299 65.278 53.2799 62.838 53.2599 60.528C53.2299 58.038 53.1699 55.538 52.8399 53.068C52.6999 51.998 52.5699 50.838 52.0599 49.868C51.8599 49.488 51.5999 49.158 51.3099 48.848C50.8999 48.698 50.4699 48.608 50.0199 48.618C48.1699 48.658 46.2899 48.658 44.4099 48.678C42.1599 47.698 39.8099 48.148 37.6299 49.058C36.6899 49.168 35.7499 49.318 34.8299 49.508C33.0499 49.748 31.4099 51.008 31.3399 53.308C31.2899 55.188 31.2299 57.058 31.1799 58.938C31.1699 59.428 30.8699 61.258 30.9899 62.128C28.4399 62.148 26.5599 65.888 26.7699 67.888C27.5499 75.188 38.9099 72.658 43.7199 71.968C44.2699 71.888 44.7599 71.738 45.2199 71.558C47.1699 71.598 49.1599 71.248 50.6799 70.758C51.0099 70.648 51.3099 70.518 51.5799 70.368Z" fill="#FBB03B"/>
<path d="M27.62 45.9081C27.61 45.4481 27.61 44.9781 27.6 44.4881C27.59 43.1481 27.59 41.7681 27.33 40.5781C26.82 38.1481 25.25 37.8081 23.63 37.8081C23.22 37.8081 22.78 37.8381 22.31 37.8681H22.25C21.94 37.8881 21.64 37.9081 21.36 37.9181L2.12999 38.3981C1.17999 38.4181 0.759988 39.4281 0.679988 40.2781C0.599988 41.2081 0.869988 42.3381 1.64999 42.6581L1.85999 42.7481L2.44999 55.4781C2.49999 56.6481 2.55999 57.8181 2.60999 58.9881C2.69999 60.7181 2.84999 62.2181 3.81999 63.0581C4.39999 63.5581 5.08999 63.6481 5.79999 63.6481C6.00999 63.6481 6.22999 63.6381 6.43999 63.6281L23.67 63.2081C24.99 63.1781 26.24 63.1481 27.11 61.7781C28.25 59.9781 28.05 56.8781 27.87 54.1281C27.82 53.3581 27.78 52.7181 27.76 52.1381L27.62 45.9081ZM24.49 42.6681C24.51 42.9481 24.53 43.1981 24.53 43.4181L24.72 51.0681C24.78 53.3881 24.83 55.6981 24.89 58.0181C24.9 58.3381 24.9 58.6781 24.89 59.0081L24.9 60.1781L24.59 60.1881C24.37 60.1881 24.07 60.2381 24.01 60.2481L7.13999 60.7181C7.05999 60.7181 6.91999 60.6981 6.74999 60.6781C6.51999 60.6481 6.22999 60.6081 5.97999 60.6081H5.67999V60.1081C5.67999 59.8881 5.65999 59.6481 5.64999 59.3581C5.63999 59.1881 5.62999 59.0181 5.61999 58.8681L4.91999 41.3081L22.83 40.7781C23.22 40.7681 23.62 40.7481 24 40.7481L24.49 40.7681L24.44 41.3381C24.42 41.6881 24.46 42.2081 24.49 42.6681Z" fill="#1E1E1E"/>
<path d="M20.9897 49.0979C17.8497 47.8279 14.6797 46.6179 11.4997 45.4579C11.3697 45.4079 11.2397 45.3979 11.0997 45.3979C11.0497 45.3979 10.9997 45.3879 10.9397 45.3879C10.1697 45.4179 9.37974 46.0479 9.43974 46.8879L10.0497 55.9679C10.1197 57.0379 11.2897 57.9179 12.3097 57.2679C15.2697 55.3679 18.2797 53.5579 21.3497 51.8479C21.8697 51.5579 22.1397 50.9279 22.0697 50.3579C21.9797 49.7179 21.5597 49.3279 20.9897 49.0979ZM17.1597 50.7979C15.7197 51.6379 14.2897 52.4979 12.8797 53.3779C12.7797 51.9379 12.6897 50.4979 12.5897 49.0579C14.1097 49.6279 15.6397 50.2079 17.1597 50.7979Z" fill="#1E1E1E"/>
<path d="M51.1699 64.1281C51.1199 63.3581 51.0799 62.7181 51.0599 62.1381L50.8799 55.9081C50.8699 55.4481 50.8699 54.9781 50.8599 54.4881C50.8499 53.1481 50.8499 51.7681 50.5899 50.5781C50.0799 48.1481 48.5099 47.8081 46.8899 47.8081C46.4799 47.8081 46.0399 47.8381 45.5699 47.8681H45.5099C45.1999 47.8881 44.8999 47.9081 44.6199 47.9181C42.2999 47.9781 39.9799 48.0381 37.6599 48.0881C36.6599 48.1181 35.6599 48.1381 34.6599 48.1681C33.5899 48.1981 32.3699 48.0281 31.4199 48.6381C31.2299 48.7581 31.0499 48.9181 30.9499 49.1181C30.8499 49.3281 30.8399 49.5781 30.8399 49.8181C30.8499 50.2581 30.9299 50.7581 31.2899 51.0181C31.8999 51.4481 33.2399 51.1481 33.9399 51.1281C34.9899 51.0981 36.0499 51.0581 37.0999 51.0281C39.1799 50.9681 41.2599 50.9081 43.3399 50.8481C44.2499 50.8181 45.1599 50.7981 46.0699 50.7681C46.4599 50.7581 46.8599 50.7381 47.2399 50.7381L47.7299 50.7581L47.6799 51.3281C47.6499 51.6981 47.6899 52.2081 47.7199 52.6681C47.7399 52.9481 47.7599 53.1981 47.7599 53.4181L47.9499 61.0681C48.0099 63.3881 48.0599 65.6981 48.1199 68.0181C48.1299 68.3381 48.1299 68.6781 48.1199 69.0081L48.1299 70.1781L47.8199 70.1881C47.5999 70.1881 47.2999 70.2381 47.2399 70.2481L30.3699 70.7181C30.2899 70.7181 30.1499 70.6981 29.9799 70.6781C29.7499 70.6481 29.4599 70.6081 29.2099 70.6081H28.9099V70.1081C28.9099 69.8881 28.8899 69.6481 28.8799 69.3581C28.8699 69.1881 28.8599 69.0181 28.8499 68.8681C28.8199 67.9881 28.9299 67.0781 28.6699 66.2281C28.5499 65.8481 28.3399 65.4781 28.0199 65.2381C27.5299 64.8781 26.7999 64.8781 26.3099 65.2381C25.8199 65.6081 25.7199 66.1481 25.7699 66.7181C25.8299 67.4681 25.8299 68.2281 25.8699 68.9881C25.9599 70.7181 26.1099 72.2181 27.0799 73.0581C27.6599 73.5581 28.3499 73.6481 29.0599 73.6481C29.2699 73.6481 29.4899 73.6381 29.6999 73.6281L46.9299 73.2081C48.2499 73.1781 49.4999 73.1481 50.3699 71.7781C51.5599 69.9781 51.3499 66.8681 51.1699 64.1281Z" fill="#1E1E1E"/>
<path d="M37.0898 56.418C37.0898 55.638 36.3998 54.878 35.5898 54.918C34.7798 54.958 34.0898 55.578 34.0898 56.418C34.0998 59.468 34.1598 62.518 34.2498 65.568C34.2698 66.348 34.9198 67.108 35.7498 67.068C36.5398 67.028 37.2798 66.408 37.2498 65.568C37.1598 62.518 37.1098 59.468 37.0898 56.418Z" fill="#1E1E1E"/>
<path d="M41.98 56.418C41.98 55.638 41.29 54.878 40.48 54.918C39.67 54.958 38.98 55.578 38.98 56.418C38.99 59.468 39.05 62.518 39.14 65.568C39.16 66.348 39.81 67.108 40.64 67.068C41.43 67.028 42.17 66.408 42.14 65.568C42.05 62.518 42 59.468 41.98 56.418Z" fill="#1E1E1E"/>
<path d="M90.0648 9.41694C89.5318 4.40494 84.5888 1.30494 79.9968 1.47994C77.7918 1.56694 76.4958 3.06694 76.0718 4.81694C73.7088 7.35394 72.5948 11.6669 73.3818 14.8409C74.5938 19.7409 80.0938 21.3899 84.3338 20.0159C88.9018 18.5289 90.5618 14.0669 90.0648 9.41694Z" fill="white"/>
<path d="M77.817 63.601C76.194 59.151 75.879 54.727 77.066 50.115C78.278 45.403 71.275 43.391 70.063 48.103C68.573 53.915 68.767 59.977 70.814 65.614C72.462 70.125 79.489 68.163 77.817 63.601Z" fill="white"/>
<path d="M96.22 53.438C95.021 53.763 92.343 56.05 91.18 54.625C90.683 54.025 90.756 52.863 90.756 52.138C90.744 50.751 90.756 49.363 90.756 47.976C90.756 45.889 90.756 43.814 90.756 41.726C91.568 43.063 92.343 44.426 93.288 45.626C94.415 47.051 96.099 48.001 97.868 47.363C99.734 46.701 100.231 44.576 100.182 42.738C100.085 38.451 97.868 34.476 95.493 31.102C93.3 27.99 90.429 25.252 87.049 23.603C85.038 22.616 83.003 22.366 80.797 22.303C78.592 22.241 76.387 22.178 74.17 22.116C74.085 22.041 73.976 21.966 73.867 21.904C72.849 21.379 71.892 20.729 70.971 20.029C70.85 19.941 70.729 19.842 70.608 19.754C70.596 19.741 70.499 19.666 70.438 19.629C70.377 19.579 70.208 19.441 70.184 19.429C70.063 19.329 69.954 19.229 69.833 19.141C69.385 18.766 68.949 18.391 68.5 18.016C66.671 16.466 64.793 14.904 62.636 13.866C62.503 13.803 62.357 13.753 62.224 13.716C62.151 13.691 62.079 13.653 62.006 13.641C59.619 13.128 56.215 13.441 55.9 16.591C55.646 19.178 57.536 21.003 59.256 22.528C60.989 24.065 62.866 25.403 64.696 26.803C66.525 28.215 67.979 30.115 69.494 31.853C69.53 31.89 69.567 31.916 69.603 31.953C69.724 32.103 69.87 32.24 70.051 32.353C71.638 33.365 72.874 34.903 73.468 36.753C74.219 39.028 73.759 41.115 73.153 43.365C71.845 48.177 70.778 53.202 71.166 58.239C71.493 62.664 72.862 67.001 75.6 70.451C76.787 71.951 78.568 73.388 80.555 73.013C82.639 72.626 83.329 70.576 83.305 68.601C83.269 65.926 82.505 63.339 82.481 60.652C82.711 61.077 82.954 61.502 83.208 61.914C84.311 63.651 85.692 65.289 87.679 65.901C89.605 66.488 92.101 66.289 94.04 65.826C97.784 64.939 100.51 61.176 100.098 57.139C99.879 55.101 98.51 52.813 96.22 53.438ZM96.353 59.025C96.123 59.925 95.602 60.787 94.887 61.35C94.063 62.012 92.985 62.237 91.967 62.325C90.889 62.413 89.483 62.6 88.453 62.175C86.563 61.388 85.642 59.125 84.903 57.313C84.321 55.888 83.885 54.388 83.619 52.863C83.377 51.451 83.474 50.038 83.28 48.638C83.062 47.063 80.99 46.613 80.045 47.801C79.791 48.126 79.67 48.538 79.657 48.963C79.633 50.388 79.754 51.813 79.972 53.225C79.366 55.162 79.003 57.175 78.869 59.224C78.687 62.061 79.305 64.699 79.584 67.486C79.608 67.711 79.79 68.936 79.681 69.348C79.681 69.098 78.954 68.698 78.772 68.523C77.972 67.723 77.354 66.686 76.821 65.673C75.622 63.411 74.967 60.811 74.773 58.236C74.555 55.311 74.834 52.386 75.403 49.512C75.96 46.687 76.978 43.937 77.378 41.075C78.032 36.4 75.888 31.801 72.108 29.264C72.084 29.239 72.072 29.201 72.035 29.176C70.799 27.751 69.6 26.226 68.219 24.951C66.802 23.651 65.202 22.614 63.688 21.439C62.404 20.439 60.986 19.364 59.957 18.077C59.799 17.877 59.642 17.664 59.557 17.427C59.557 17.427 59.533 17.352 59.509 17.277C59.594 17.264 59.691 17.239 59.776 17.227C60.188 17.177 60.6 17.202 61 17.29C61.024 17.29 61.036 17.29 61.061 17.29C61.982 17.752 62.866 18.302 63.702 18.915C63.92 19.077 64.138 19.24 64.356 19.415C64.465 19.49 64.562 19.577 64.659 19.652C64.695 19.677 64.792 19.764 64.841 19.802C65.289 20.177 65.738 20.552 66.174 20.927C67.87 22.364 69.59 23.814 71.517 24.902C71.784 25.439 72.292 25.852 73.044 25.877C75.37 25.94 77.684 26.015 80.01 26.077C81.948 26.127 83.778 26.14 85.547 27.064C89.036 28.876 91.726 31.801 93.737 35.238C94.767 36.988 95.833 38.788 96.281 40.813C96.475 41.7 96.62 42.738 96.463 43.663L96.415 43.638C96.161 43.213 95.737 42.838 95.446 42.426C93.168 39.114 91.533 35.426 88.116 33.177C86.129 31.877 84.312 35.152 86.287 36.452C86.796 36.789 87.256 37.189 87.68 37.602C87.329 37.902 87.086 38.364 87.086 38.989C87.086 41.651 87.086 44.314 87.086 46.963C87.086 49.413 86.856 52 87.268 54.425C87.631 56.537 89.013 58.275 91.084 58.675C92.15 58.875 93.24 58.775 94.27 58.412C94.803 58.224 95.324 57.987 95.833 57.725C96.015 57.637 96.245 57.487 96.487 57.362C96.595 57.925 96.438 58.713 96.353 59.025Z" fill="#1E1E1E"/>
<path d="M87.3626 9.26787C86.4906 5.31787 83.1586 2.30587 79.4266 1.46887C78.6996 1.30587 77.9606 1.55587 77.5126 2.13087C77.0396 1.85587 76.4466 1.80587 75.8286 2.18087C74.2776 3.11787 72.5816 4.01787 71.3706 5.43087C70.0986 6.91787 69.4566 8.76787 69.3476 10.7429C69.2386 12.7799 69.8446 14.8179 70.7166 16.6179C71.5646 18.3679 72.7156 19.9929 74.5086 20.7429C77.5256 22.0179 81.4996 21.1549 84.0436 19.1429C86.9626 16.8299 88.1746 12.9799 87.3626 9.26787ZM82.5776 15.4669C81.0996 17.0669 78.8096 17.7669 76.7016 17.4539C75.5146 17.2789 74.9086 16.6039 74.3146 15.5669C73.6486 14.4169 73.1026 13.1169 72.9816 11.7669C72.8726 10.4799 73.1146 9.11687 73.9386 8.11687C74.9076 6.92987 76.3976 6.22987 77.6706 5.45487C77.8766 5.32987 78.0336 5.17987 78.1676 5.01687C78.2646 5.06687 78.3616 5.10487 78.4706 5.12987C80.6146 5.60487 82.5656 6.94187 83.4986 9.07987C84.3946 11.1549 84.0916 13.8179 82.5776 15.4669Z" fill="#1E1E1E"/>
<path d="M66.2338 0.842984C65.8828 0.517984 65.4338 0.267984 64.9498 0.292984C64.4408 0.317984 64.0658 0.517984 63.6658 0.842984C61.2068 2.84298 59.4008 5.52998 58.2138 8.51698C58.0438 8.94198 58.1898 9.60398 58.3958 9.97898C58.6138 10.367 59.0498 10.741 59.4858 10.854C59.9458 10.966 60.4668 10.941 60.8788 10.666C61.3028 10.379 61.5208 10.016 61.7148 9.52898C61.6538 9.66598 61.5568 9.89098 61.6788 9.61598C61.7148 9.52898 61.7518 9.44098 61.7878 9.36598C61.8608 9.21598 61.9208 9.06598 61.9938 8.91598C62.1388 8.60298 62.3088 8.29098 62.4788 7.97898C62.8058 7.37898 63.1938 6.82898 63.5688 6.26698C63.6048 6.21698 63.6418 6.16698 63.6778 6.12998C63.7748 6.00498 63.8838 5.86698 63.9928 5.74298C64.2108 5.47998 64.4408 5.21798 64.6838 4.96798C65.1688 4.45598 65.6888 3.96798 66.2468 3.53098C66.5858 3.25598 66.7798 2.61898 66.7798 2.19398C66.7668 1.71698 66.5728 1.16698 66.2338 0.842984Z" fill="#FBB03B"/>
<path d="M60.0918 30.741C59.8978 30.553 59.7038 30.353 59.5228 30.153C59.5108 30.14 59.4498 30.066 59.3778 30.003C59.3658 29.99 59.3778 29.99 59.3538 29.965C59.3058 29.902 59.2568 29.827 59.2208 29.765C58.9538 29.365 58.7358 28.94 58.5428 28.515C58.3608 28.015 58.2278 27.502 58.1308 26.978C58.0948 26.603 58.0578 26.215 58.0698 25.841C58.1058 24.854 57.2098 23.904 56.2528 23.941C55.2478 23.991 54.4718 24.778 54.4358 25.841C54.3388 28.666 55.5018 31.541 57.5128 33.44C58.2158 34.102 59.3908 34.215 60.0808 33.44C60.7338 32.703 60.8428 31.453 60.0918 30.741Z" fill="#1E1E1E"/>
<path d="M96.2069 28.153C96.0619 27.953 96.0859 28.028 96.2069 28.153V28.153Z" fill="#1E1E1E"/>
<path d="M101.296 29.615C99.6728 26.078 97.0918 23.078 93.9778 20.891C93.1898 20.341 91.9298 20.703 91.4938 21.566C91.0088 22.516 91.2998 23.566 92.1478 24.153C92.3178 24.278 92.4868 24.391 92.6568 24.528C92.7418 24.591 92.8268 24.653 92.9108 24.716C92.9228 24.729 92.9348 24.729 92.9468 24.741C92.9228 24.728 92.9108 24.716 92.8858 24.691C92.9098 24.716 92.9338 24.728 92.9588 24.754C93.0318 24.817 93.0438 24.817 93.0068 24.791C93.2858 25.041 93.5758 25.266 93.8548 25.528C94.4848 26.116 95.0908 26.753 95.6358 27.415C95.7688 27.577 95.9028 27.74 96.0358 27.915C96.0968 27.99 96.1568 28.09 96.2298 28.165C96.2178 28.152 96.2178 28.152 96.2178 28.14C96.4598 28.49 96.7028 28.84 96.9328 29.202C97.3928 29.939 97.8048 30.714 98.1808 31.514C98.5928 32.414 99.8888 32.714 100.665 32.189C101.527 31.615 101.733 30.578 101.296 29.615Z" fill="#1E1E1E"/>
<path d="M92.9487 24.7529C92.9727 24.7779 92.9847 24.7899 92.9967 24.8019C92.9847 24.7899 92.9727 24.7779 92.9487 24.7529C92.9487 24.7659 92.9487 24.7529 92.9487 24.7529Z" fill="#1E1E1E"/>
<path d="M176.822 48.5219C174.705 46.9519 172.155 46.7519 169.666 46.6319C165.645 46.4419 161.421 46.1519 157.409 46.4619C156.072 46.5719 155.08 46.9619 154.309 47.5419C152.972 46.1519 150.421 46.2119 149.943 48.7219C149.004 53.7019 146.71 62.9819 149.792 67.4319C151.138 69.3719 153.042 69.5119 155.115 69.5719C159.224 69.6919 163.351 69.6819 167.461 69.7319C172.766 69.8019 178.682 70.3519 180.188 63.4019C181.25 58.5219 180.976 51.5919 176.822 48.5219Z" fill="#FBB03B"/>
<path d="M180.604 63.2319C180.595 61.2419 180.613 59.2619 180.577 57.2719C180.55 55.6619 180.426 53.9519 179.603 52.5619C177.699 49.3519 173.616 49.4819 170.534 49.2019C166.318 48.8319 162.094 48.5319 157.869 48.3219C157.408 48.3019 157.072 48.5019 156.859 48.8019C154.273 48.4119 151.173 48.1619 149.305 50.5819C147.312 53.1619 147.95 57.1419 148.039 60.2419C148.092 62.2019 148.119 64.1719 148.207 66.1319C148.278 67.6019 148.473 69.1319 149.305 70.3419C151.227 73.1519 155.345 72.5119 158.144 72.6219C161.819 72.7619 165.495 72.8919 169.179 73.0319C170.959 73.1019 172.757 73.2419 174.537 73.2019C175.901 73.1719 177.318 72.9219 178.443 72.0219C180.958 70.0219 180.621 66.2419 180.604 63.2319ZM177.823 67.8019C177.283 70.7619 174.422 70.3219 172.27 70.2419L163.228 69.9119C160.288 69.8019 157.347 69.7119 154.407 69.5919C153.424 69.5519 152.087 69.5819 151.422 68.6219C150.713 67.5919 150.864 65.9019 150.829 64.6919C150.785 62.9819 150.731 61.2719 150.687 59.5619C150.643 57.9019 150.457 56.1619 150.643 54.5019C151.015 51.2319 153.796 51.2619 156.196 51.6319C156.71 51.7119 157.206 51.5719 157.524 51.1819C157.63 51.2219 157.745 51.2419 157.878 51.2519C160.942 51.4019 163.998 51.6019 167.053 51.8419C169.683 52.0519 172.5 52.0219 175.077 52.6819C176.113 52.9519 177.132 53.4219 177.583 54.5619C178.123 55.9219 177.928 57.6919 177.937 59.1319C177.946 60.5819 177.946 62.0319 177.955 63.4819C177.956 64.8919 178.08 66.4019 177.823 67.8019Z" fill="#1E1E1E"/>
<path d="M157.374 54.9419C157.206 53.4819 155.727 53.0019 154.894 54.2019C154.044 55.4419 153.193 56.6919 152.343 57.9319C151.909 58.5619 152.246 59.5619 152.821 59.9219C153.503 60.3519 154.211 60.0319 154.636 59.4019C154.804 59.1519 154.973 58.9019 155.141 58.6519C155.442 61.1919 155.734 63.7419 156.035 66.2819C156.124 67.0619 156.584 67.7419 157.363 67.7419C158.01 67.7419 158.78 67.0719 158.691 66.2819C158.259 62.5119 157.817 58.7219 157.374 54.9419Z" fill="#1E1E1E"/>
<path d="M167.585 64.5819L164.361 64.6019C164.113 64.6019 163.865 64.6119 163.617 64.6019C163.599 64.6019 163.582 64.6019 163.564 64.6019C163.963 63.7919 164.627 63.0519 165.158 62.3019C165.805 61.3919 166.513 60.5119 167.098 59.5519C167.683 58.5719 168.046 57.3919 167.807 56.2219C167.603 55.2319 166.957 54.3919 166.151 53.9119C164.282 52.7919 162.272 53.5919 160.572 54.6719C159.093 55.6119 160.43 58.1219 161.909 57.1819C162.6 56.7419 163.37 56.2519 164.158 56.2519C164.548 56.2519 165.017 56.4519 165.168 56.7519C165.186 56.8319 165.248 57.0419 165.239 56.9619C165.248 57.1319 165.221 57.2319 165.15 57.4419C165.026 57.7819 164.743 58.2019 164.521 58.5319C163.972 59.3319 163.379 60.1219 162.812 60.9219C162.236 61.7219 161.528 62.5119 161.138 63.4419C160.669 64.5619 160.739 65.9319 161.607 66.7919C162.378 67.5519 163.414 67.5019 164.379 67.5019L167.603 67.4819C169.294 67.4819 169.303 64.5719 167.585 64.5819Z" fill="#1E1E1E"/>
<path d="M175.219 60.7419C174.705 60.2219 174.121 59.8719 173.501 59.6019C173.66 59.4319 173.829 59.2619 173.988 59.1019C174.785 58.2819 175.972 57.4019 175.786 56.0319C175.582 54.6119 174.342 54.3719 173.253 54.3119C172.252 54.2619 171.243 54.2019 170.242 54.1519C169.525 54.1119 168.914 54.8519 168.914 55.6119C168.914 56.4319 169.525 57.0319 170.242 57.0719C170.827 57.1019 171.411 57.1319 171.995 57.1619C171.898 57.2619 171.8 57.3619 171.703 57.4719C171.101 58.0919 170.507 58.7119 169.905 59.3319C169.223 60.0319 169.498 61.5819 170.49 61.7619C171.384 61.9319 172.341 62.0719 173.12 62.6119C173.306 62.7419 173.58 63.0319 173.669 63.2019C173.704 63.2719 173.74 63.3419 173.775 63.4019C173.775 63.4219 173.828 63.5719 173.837 63.6019C173.846 63.6219 173.846 63.6419 173.855 63.6519C173.855 63.6519 173.855 63.6519 173.855 63.6619C173.855 63.6919 173.855 63.8319 173.855 63.8619C173.82 64.0119 173.74 64.2719 173.793 64.1319C173.784 64.1519 173.704 64.3119 173.678 64.3619C173.651 64.4019 173.589 64.4819 173.572 64.4919C173.563 64.5019 173.492 64.5719 173.457 64.6119C173.422 64.6319 173.342 64.6819 173.298 64.7119C173.325 64.6819 173.041 64.7619 173.103 64.7719C173.05 64.7719 172.997 64.7719 172.961 64.7719C172.917 64.7619 172.846 64.7519 172.828 64.7519C172.819 64.7519 172.739 64.7219 172.695 64.7119C172.651 64.6819 172.518 64.6119 172.5 64.6019C172.473 64.5919 172.447 64.5719 172.429 64.5519C172.376 64.5019 172.323 64.4419 172.269 64.3819C172.242 64.3419 172.216 64.3119 172.181 64.2719C172.252 64.3619 172.252 64.3619 172.208 64.2819C172.155 64.1719 172.111 64.0719 172.066 63.9619C171.783 63.2419 170.817 63.0719 170.25 63.4419C169.568 63.8819 169.488 64.7119 169.772 65.4319C170.312 66.7919 171.712 67.7019 173.049 67.6819C174.563 67.6619 175.848 66.5119 176.335 64.9719C176.796 63.4619 176.273 61.7919 175.219 60.7419Z" fill="#1E1E1E"/>
<path d="M111.471 60.2719C111.17 60.1219 110.869 60.0019 110.559 59.8819C111.985 59.1019 113.163 57.9919 114.093 56.5719C115.289 54.7419 114.465 52.6719 112.357 52.3319C111.401 52.1819 110.409 52.2319 109.443 52.2119L106.14 52.1519C105.423 51.9719 104.555 52.3619 104.581 53.3519C104.634 55.1719 104.678 56.9919 104.732 58.8119C104.519 58.8319 104.316 58.8619 104.112 58.8819C102.544 59.0519 102.474 61.3919 104.112 61.4619C104.342 61.4719 104.581 61.4819 104.812 61.4919C104.874 63.6019 104.927 65.7019 104.989 67.8119C104.697 67.3219 104.192 67.0119 103.59 67.1819C102.997 67.3519 102.465 68.1219 102.713 68.7719C103.749 71.4019 106.698 71.3719 108.992 70.7319C111.295 70.0919 113.704 68.5419 114.403 66.0519C115.111 63.5219 113.632 61.3319 111.471 60.2719ZM107.114 54.7419C108.354 54.7619 109.585 54.7819 110.825 54.8019C111.038 54.8019 111.835 54.7119 112.18 54.8719C112.083 54.8819 112.02 55.1219 111.932 55.2619C111.728 55.5719 111.489 55.8619 111.25 56.1419C110.161 57.3919 108.735 58.0219 107.22 58.3819C107.185 57.1719 107.15 55.9619 107.114 54.7419ZM109.337 67.8819C108.752 68.1419 108.124 68.3219 107.486 68.4319C107.486 68.4119 107.486 68.4019 107.486 68.3819C107.424 66.1619 107.362 63.9419 107.3 61.7219C107.902 61.8119 108.496 61.9219 109.089 62.0919C110.267 62.4419 112.038 63.1619 112.082 64.6619C112.127 66.2419 110.595 67.3319 109.337 67.8819Z" fill="#1E1E1E"/>
<path d="M123.729 59.8319C123.357 59.1819 122.64 59.0819 122.02 59.3719C120.134 60.2419 118.708 61.7319 117.663 63.5019C117.583 62.8119 117.504 62.1119 117.406 61.4219C117.309 60.7319 116.458 60.3519 115.865 60.5219C115.148 60.7219 114.891 61.4119 114.988 62.1119C115.316 64.4019 115.537 66.7619 115.67 69.1019C115.705 69.7419 116.122 70.2819 116.75 70.3719C117.326 70.4519 117.999 70.0819 118.123 69.4519C118.486 67.6519 118.991 66.0619 119.956 64.5419C120.204 64.1519 120.275 64.0519 120.558 63.7219C120.815 63.4119 121.089 63.1219 121.391 62.8519C121.453 62.7919 121.524 62.7319 121.586 62.6719C121.613 62.6519 121.692 62.5819 121.719 62.5619C121.87 62.4419 122.02 62.3319 122.171 62.2319C122.516 62.0019 122.888 61.8019 123.269 61.6219C123.897 61.3119 124.047 60.3819 123.729 59.8319Z" fill="#1E1E1E"/>
<path d="M129.698 66.892C129.556 66.652 129.353 66.502 129.131 66.402C129.042 64.722 128.874 63.042 128.608 61.382C128.457 60.452 128.183 59.482 127.492 58.832C126.677 58.072 125.455 57.832 124.499 58.432C123.923 58.792 123.702 59.592 124.047 60.192C124.375 60.772 125.145 61.002 125.721 60.672C125.721 60.672 125.73 60.672 125.73 60.682C125.765 60.712 125.854 60.782 125.792 60.702C125.845 60.782 125.898 60.862 125.943 60.952C125.925 60.862 125.934 60.902 125.978 61.052C126.182 61.662 126.244 62.332 126.332 62.962C126.376 63.312 126.403 63.672 126.438 64.032C125.163 63.622 123.675 63.652 122.524 64.162C121.098 64.802 120.257 66.302 120.54 67.902C120.859 69.632 122.515 70.172 124.021 70.112C125.854 70.032 127.617 69.532 129.246 68.682C129.848 68.342 130.025 67.472 129.698 66.892ZM123.445 67.512C123.259 67.502 123.117 67.492 123.011 67.412C123.011 67.402 123.002 67.392 123.002 67.392C123.002 67.382 123.002 67.382 122.993 67.362C122.984 67.342 122.984 67.332 122.984 67.312C122.984 67.292 122.984 67.272 122.984 67.252C122.984 67.202 122.984 67.172 122.984 67.152C122.993 67.122 122.993 67.102 123.002 67.072C123.011 67.022 123.029 66.982 123.037 66.942C123.064 66.892 123.188 66.742 123.188 66.732C123.259 66.672 123.374 66.572 123.285 66.642C123.312 66.622 123.622 66.442 123.471 66.512C123.994 66.262 124.392 66.272 124.994 66.322C125.419 66.352 125.986 66.472 126.384 66.772C126.287 66.702 126.535 66.932 126.535 66.932C126.455 66.842 126.526 66.942 126.588 67.022C125.879 67.262 125.153 67.432 124.436 67.492C124.101 67.512 123.773 67.532 123.445 67.512Z" fill="#1E1E1E"/>
<path d="M137.686 63.272C137.651 61.702 137.606 60.132 137.544 58.552C137.517 57.852 136.986 57.262 136.295 57.262C135.64 57.262 135.02 57.852 135.046 58.552C135.099 60.062 135.143 61.572 135.179 63.092C135.188 63.472 135.197 63.852 135.197 64.232C134.179 62.432 133.16 60.632 132.142 58.832C132.098 58.752 132.045 58.682 131.991 58.622C131.743 58.092 131.07 57.822 130.539 57.972C129.839 58.172 129.547 58.872 129.662 59.562C130.176 62.452 130.353 65.382 130.229 68.312C130.202 69.012 130.822 69.602 131.478 69.602C132.178 69.602 132.7 69.012 132.727 68.312C132.771 67.192 132.762 66.082 132.718 64.962C133.435 66.222 134.144 67.482 134.861 68.752C135.198 69.352 135.986 69.562 136.57 69.212C136.809 69.072 136.977 68.852 137.075 68.602C137.27 68.452 137.429 68.232 137.509 67.922C137.916 66.452 137.722 64.792 137.686 63.272Z" fill="#1E1E1E"/>
<path d="M145.595 55.4018C145.524 53.7818 145.347 52.1718 145.037 50.6218C144.878 49.8318 143.974 49.3718 143.257 49.5718C142.425 49.8118 142.141 50.6118 142.247 51.4218C142.406 52.6418 142.548 53.8718 142.681 55.0918C142.725 55.9818 142.734 56.8618 142.716 57.7418C141.706 57.3818 140.644 57.3218 139.669 58.0018C138.438 58.8618 138.225 60.6518 138.137 62.0618C138.04 63.4918 138.288 64.9718 138.916 66.2518C139.607 67.6718 141.157 68.8518 142.645 67.8318C142.973 67.6018 143.256 67.2918 143.513 66.9318C143.531 67.3518 143.548 67.7618 143.566 68.1818C143.619 70.1118 146.515 70.1118 146.462 68.1818C146.33 63.9118 146.038 59.6518 145.595 55.4018ZM141.415 64.7618C141.415 64.7518 141.406 64.7518 141.406 64.7418C141.273 64.4518 141.185 64.1418 141.123 63.8318C140.999 63.2518 140.99 62.6518 141.026 62.0618C141.044 61.7318 141.07 60.6818 141.336 60.4418C141.487 60.3118 142.239 60.7518 142.54 60.9218C142.469 61.4918 142.363 62.0618 142.212 62.6318C142.035 63.2918 141.795 64.1018 141.415 64.7618Z" fill="#1E1E1E"/>
<g clip-path="url(#clip0)">
<path d="M204.97 53.842C204.9 55.132 204.41 56.202 203.94 57.232C203.65 57.852 203.39 58.432 203.23 59.032C203.22 59.062 203.2 59.112 203.19 59.142C203.09 59.362 203 59.572 202.93 59.752L202.71 60.242L204.32 63.182C204.42 63.352 204.54 63.542 204.66 63.742C205.06 64.392 205.48 65.052 205.6 65.652C205.67 66.022 205.63 66.362 205.42 66.672C205.3 66.922 205.16 67.122 204.99 67.272C204.16 68.042 202.79 67.732 201.74 67.492C201.17 67.362 200.6 67.232 200.18 67.262C200.12 67.272 200.06 67.262 200 67.262L198.5 67.022L194.88 71.282C194.7 71.492 194.48 71.642 194.25 71.732C194.08 71.792 193.9 71.832 193.71 71.822C193.27 71.822 192.82 71.612 192.51 71.262C192.3 71.012 192.15 70.712 192.08 70.372C192.07 70.332 192.06 70.282 192.07 70.242C192.01 69.072 191.75 67.952 191.47 66.772C191.3 66.052 191.13 65.332 190.99 64.572L185.94 62.072C185.37 61.792 184.99 61.202 184.96 60.542C184.93 59.872 185.25 59.282 185.78 58.982L186.29 58.702C186.76 58.432 187.29 58.202 187.84 57.962C189.17 57.382 190.54 56.782 190.63 55.762L191.08 50.492C191.14 49.842 191.53 49.302 192.11 49.092C192.41 48.982 192.74 48.972 193.04 49.052C193.32 49.122 193.57 49.272 193.79 49.492L194.22 49.932C194.44 50.172 194.62 50.382 194.81 50.602C195.8 51.732 196.82 52.902 197.87 53.622L199.23 53.352L203.2 52.542C203.51 52.482 203.82 52.512 204.12 52.642C204.15 52.652 204.18 52.682 204.21 52.692C204.44 52.812 204.65 52.982 204.82 53.202C204.92 53.392 204.98 53.612 204.97 53.842Z" fill="#FBB03B"/>
<path d="M203.97 65.2921C203.85 65.0821 203.72 64.8821 203.63 64.7121L202.06 61.6821L202.28 61.2721C202.38 61.0921 202.49 60.8721 202.61 60.6421C202.64 60.5821 202.67 60.5221 202.68 60.4821C202.9 59.8721 203.23 59.2721 203.59 58.632C204.2 57.532 204.83 56.392 205 54.982C205.04 54.682 204.96 54.3821 204.79 54.1321C204.61 53.8721 204.36 53.6621 204.03 53.4921C204 53.4721 203.97 53.4521 203.93 53.4321C203.57 53.2721 203.16 53.222 202.76 53.292L196.76 54.292C195.68 53.522 194.64 52.3021 193.62 51.1221C193.42 50.8921 193.22 50.6621 192.98 50.3821L192.52 49.9121C192.27 49.6521 191.95 49.4621 191.59 49.3621C191.19 49.2521 190.78 49.2521 190.39 49.3721C189.63 49.6121 189.09 50.252 188.97 51.0421L188.14 56.6121C188 57.5521 186.48 58.122 185.01 58.682C184.36 58.932 183.75 59.1621 183.19 59.4421L182.6 59.7321C181.88 60.0821 181.44 60.7921 181.43 61.5821C181.43 62.3821 181.87 63.0921 182.58 63.4421L188.02 66.1521C188.12 66.9221 188.26 67.6621 188.4 68.3821C188.64 69.6321 188.86 70.8021 188.85 72.0121C188.85 72.0621 188.85 72.1221 188.86 72.1921C188.92 72.5921 189.09 72.9621 189.35 73.2621C189.73 73.7021 190.28 73.9621 190.86 73.9721C190.88 73.9721 190.9 73.9721 190.92 73.9721C191.13 73.9721 191.35 73.9421 191.55 73.8721C191.86 73.7721 192.15 73.5921 192.4 73.3521L196.67 69.0221L198.23 69.3021C198.31 69.3121 198.39 69.3221 198.49 69.3221C198.92 69.3121 199.54 69.4521 200.17 69.5921C201.36 69.8721 202.98 70.2621 204.07 69.3921C204.3 69.2121 204.49 68.9721 204.63 68.7321C204.92 68.3821 205.03 67.9521 204.96 67.4621C204.85 66.7631 204.41 66.0221 203.97 65.2921ZM199.81 60.7121C199.49 61.3121 199.48 62.0321 199.8 62.6421L201.48 65.8721C201.6 66.0921 201.74 66.3321 201.89 66.5721C201.99 66.7321 202.17 67.0421 202.32 67.3221C202.35 67.3821 202.38 67.4421 202.41 67.4921C202.04 67.5321 201.18 67.3321 200.72 67.2221C199.97 67.0421 199.2 66.8621 198.58 66.8921L196.9 66.6021C196.49 66.5321 196.06 66.5821 195.67 66.7621C195.5 66.8421 195.36 66.9221 195.24 67.0221C195.18 67.0721 195.12 67.1221 195.06 67.1821L191.26 71.0421C191.18 69.9521 190.98 68.9121 190.79 67.8921C190.65 67.1621 190.51 66.4121 190.41 65.6221C190.36 65.2921 190.23 64.9821 190.04 64.7121C189.85 64.4421 189.58 64.2121 189.28 64.0621L184.33 61.5921C184.5 61.5121 184.69 61.4321 184.89 61.3421C185.2 61.2121 185.53 61.0821 185.88 60.9521C187.75 60.2421 190.08 59.3621 190.52 57.0821C190.53 57.0421 190.54 57.002 190.55 56.962L191.28 52.1421C191.42 52.3021 191.55 52.4621 191.69 52.6221L191.76 52.7021C192.96 54.1121 194.21 55.5621 195.68 56.5121C195.77 56.5721 195.86 56.612 195.96 56.642C196.28 56.742 196.62 56.7721 196.95 56.7221L202.25 55.8421C202.04 56.3721 201.75 56.9021 201.44 57.4521V57.4621C201.06 58.1421 200.67 58.8421 200.42 59.5621L199.81 60.7121Z" fill="#1E1E1E"/>
<path d="M198.45 57.1631L198.31 57.1831C197.37 57.3531 196.54 57.4731 195.79 57.2731C195.15 57.1031 194.57 56.7231 194.15 56.2131C193.71 55.6831 192.95 55.6031 192.4 56.0431C192.15 56.2431 191.99 56.5331 191.96 56.8431C191.93 57.1531 192.02 57.4631 192.23 57.7231C192.96 58.6131 193.92 59.2531 195 59.5831C195.55 59.7531 196.09 59.8131 196.63 59.8131C197.33 59.8131 198.02 59.7131 198.68 59.5931C198.73 59.5831 198.78 59.5731 198.83 59.5531C198.98 59.5031 199.11 59.4331 199.22 59.3431C199.58 59.0531 199.75 58.6031 199.67 58.1431C199.58 57.5331 199.04 57.1331 198.45 57.1631Z" fill="#1E1E1E"/>
</g>
<path d="M227.608 41.762C226.018 38.792 223.098 36.752 219.688 36.652C218.018 36.602 216.398 37.052 214.968 37.852C214.778 37.812 214.578 37.782 214.368 37.792C206.228 38.282 206.168 50.582 210.498 55.242C213.148 58.102 217.028 58.162 220.518 57.022C223.478 56.052 227.028 54.802 228.488 51.792C229.998 48.682 229.188 44.722 227.608 41.762Z" fill="white"/>
<path d="M231.742 41.762C230.152 38.792 227.232 36.752 223.822 36.652C222.152 36.602 220.532 37.052 219.102 37.852C218.912 37.812 218.712 37.782 218.502 37.792C210.362 38.282 210.302 50.582 214.632 55.242C217.282 58.102 221.162 58.162 224.652 57.022C227.612 56.052 231.162 54.802 232.622 51.792C234.132 48.682 233.322 44.722 231.742 41.762Z" fill="#FBB03B"/>
<path d="M213.752 36.4019C213.422 36.5419 213.122 36.7519 212.892 36.9919L212.692 37.2019L212.402 37.2219C212.152 37.2419 211.942 37.3119 211.772 37.4319C209.241 39.2179 207.431 41.8789 206.692 44.8879C206.213 46.8399 206.297 48.7689 206.685 50.7319C206.932 51.9799 207.245 53.2159 207.418 54.4769C207.592 55.7489 207.713 57.0319 207.838 58.3119C208.033 60.3109 208.174 62.3149 208.261 64.3219C208.368 66.8069 208.393 69.2949 208.332 71.7809C208.312 72.4309 208.762 73.1109 209.372 73.3609C210.022 73.6209 210.612 73.5009 211.292 72.9509L216.062 69.1009C216.082 69.0809 216.182 69.0109 216.312 68.9109C216.502 68.7709 216.792 68.5609 217.032 68.3809L217.522 68.0009L219.522 69.8309L222.762 72.8209C223.242 73.2609 224.102 73.4209 224.752 73.1809C225.242 73.0109 225.522 72.6609 225.602 72.1509C225.726 71.2839 225.85 70.4169 225.974 69.5489C226.249 67.6279 226.523 65.7079 226.798 63.7869C226.798 63.0619 227.014 62.2749 227.117 61.5569C227.226 60.7939 227.335 60.0299 227.445 59.2669C227.545 58.5699 227.678 57.8749 227.76 57.1759C227.843 56.4609 227.874 55.7279 228.123 55.0449C228.289 54.5889 228.547 54.1719 228.774 53.7429C230.399 50.6739 230.578 46.7969 229.466 43.5299C229.029 42.2479 228.382 41.0439 227.542 39.9809C224.392 35.9919 218.332 34.4219 213.752 36.4019ZM222.792 68.1419L220.732 66.2419C219.522 65.1019 218.472 64.1219 217.002 64.4319C215.892 64.6619 214.892 65.5419 213.912 66.3819C213.632 66.6219 213.352 66.8719 213.082 67.0919L211.762 68.1619L211.732 66.6319C211.682 64.3719 211.542 61.9719 211.312 59.2719L211.182 57.8319L212.432 58.5619C213.622 59.2619 214.842 59.7219 216.052 59.9519C218.342 60.3819 220.712 60.1219 222.922 59.1919L224.142 58.6819L222.792 68.1419ZM226.792 48.2719C226.622 50.4419 225.682 52.6319 224.192 54.2719C223.722 54.7819 223.142 55.2419 222.452 55.6219C221.222 56.3019 219.832 56.6319 218.432 56.6319C216.492 56.6319 214.542 55.9919 213.012 54.7419C210.922 53.0419 209.642 50.3419 209.672 47.6919C209.712 43.9119 212.482 40.1619 215.852 39.3519C220.142 38.3119 224.602 40.4919 226.212 44.4119C226.692 45.6019 226.892 46.9019 226.792 48.2719Z" fill="#1E1E1E"/>
<defs>
<clipPath id="clip0">
<rect width="25" height="25" fill="white" transform="translate(181 49)"/>
</clipPath>
</defs>
</svg>
