<svg width="621" height="429" viewBox="0 0 621 429" fill="none" xmlns="http://www.w3.org/2000/svg">
<path d="M494.382 35.5C558.283 65.1407 618.415 116.505 620.918 174.536C623.42 232.566 568.292 297.294 541.148 368.276C513.592 438.831 513.592 515.245 477.674 553.245C441.344 591.246 368.67 590.407 301.442 582.886C234.627 574.953 172.816 560.339 119.367 528.197C65.4904 496.054 19.5637 446.368 5.35814 389.573C-9.2592 332.366 8.28794 268.065 30.8395 207.945C53.8028 147.824 81.7864 91.8679 126.89 55.9571C171.993 20.0464 233.804 4.18101 298.528 0.840109C363.253 -2.91247 430.496 5.43188 494.382 35.5Z" fill="#EDEDED"/>
</svg>
