<svg width="100" height="101" viewBox="0 0 100 101" fill="none" xmlns="http://www.w3.org/2000/svg">
<path d="M24.8527 17.9298C23.7897 17.6548 22.6177 17.7928 21.5547 18.3298C18.0977 20.0798 15.8617 23.7418 15.6177 27.6788C15.2997 32.5408 19.2087 36.8158 24.0097 35.8908C27.9797 35.1158 30.8137 32.1038 31.7547 28.0668C32.8667 23.2788 30.0207 17.8428 24.8527 17.9298Z" fill="white"/>
<path d="M8.32594 69.301C7.67894 74.713 6.87193 80.575 4.63694 85.55C2.65794 89.937 8.97394 93.799 10.9649 89.375C13.7989 83.063 14.8369 76.151 15.6559 69.302C16.2169 64.464 8.88794 64.514 8.32594 69.301Z" fill="white"/>
<path d="M49.334 31.3789C48.955 29.3419 47.538 27.5789 45.376 27.8789C43.251 28.1659 41.381 30.3039 39.793 31.6659C36.177 34.7659 32.598 37.5399 28.017 38.8899C25.452 39.6399 22.838 40.0149 20.187 40.2149C18.342 40.3529 16.51 40.5649 14.995 41.5769C14.36 41.5899 13.725 41.8899 13.456 42.4889C10.414 49.2389 4.03797 53.6629 1.41097 60.6749C0.689973 62.5869 0.249973 64.7999 1.34997 66.6499C2.54697 68.6749 4.94097 68.9999 6.82297 67.8119C8.52097 66.7369 9.91397 64.9369 11.099 63.3249C11.099 63.3249 11.099 63.3129 11.111 63.3129C10.781 66.7379 10.207 70.1369 9.52297 73.5119C8.44797 78.7619 6.92097 83.9489 6.07797 89.2359C5.73597 91.3979 5.78497 93.6359 7.15297 95.4349C8.42297 97.0969 10.476 97.8219 12.418 97.0349C14.507 96.1729 15.521 94.1099 16.217 92.0359C17.023 89.6109 17.658 87.1239 17.964 84.5869C18.33 81.5619 18.416 78.7249 19.271 75.7749C19.674 74.3879 20.089 72.9879 20.602 71.6379C20.626 72.7499 20.626 73.8749 20.626 74.9879C20.626 77.8749 20.589 80.7619 20.638 83.6499C20.687 86.6119 20.833 89.5739 21.212 92.5239C21.493 94.6989 22.678 97.0609 25.17 96.7859C27.369 96.5359 28.297 94.0239 29.042 92.2109C29.983 89.8989 30.655 87.4859 31.082 85.0119C31.974 79.8249 31.949 74.5629 31.766 69.3259C31.546 62.9019 31.168 56.4019 32.426 50.0529C32.487 49.7279 32.475 49.4409 32.414 49.1779C33.721 47.8029 35.969 46.9779 37.484 46.0409C39.5 44.7909 41.466 43.4659 43.384 42.0659C46.72 39.5659 50.201 36.0779 49.334 31.3789ZM45.62 33.9909C44.936 36.3779 42.713 37.9159 40.844 39.2659C38.682 40.8279 36.446 42.2909 34.162 43.6529C32.183 44.8279 30.241 45.7899 28.836 47.7279C28.335 48.4149 28.421 49.1029 28.787 49.6149C26.991 59.3889 28.677 69.2629 28.078 79.0999C27.809 83.5869 27.064 88.3869 24.939 92.3739C24.866 92.0619 24.78 91.7489 24.768 91.6489C24.597 90.2239 24.499 88.7739 24.426 87.3489C24.292 84.7739 24.267 82.1989 24.279 79.6249C24.279 76.6379 24.365 73.6379 24.255 70.6629C24.182 68.6009 23.73 66.4629 21.836 65.4009C20.895 64.8759 19.93 65.2259 19.332 66.0759C17.793 68.2509 16.962 70.8009 16.18 73.3499C15.374 75.9869 14.739 78.5869 14.555 81.3619C14.36 84.4369 13.859 87.2859 12.943 90.2239C12.638 91.2109 12.308 92.7609 11.379 93.3739C10.353 94.0489 9.70497 92.8989 9.57097 91.9489C9.37597 90.5619 9.81497 89.0989 10.108 87.7489C10.401 86.3739 10.719 85.0119 11.024 83.6489C11.671 80.8119 12.331 77.9869 12.93 75.1369C14.127 69.4119 15.031 63.5999 15.08 57.7259C15.092 56.8259 14.591 56.2639 13.968 56.0259C13.834 55.8259 13.65 55.6389 13.406 55.5009C12.636 55.0389 11.293 55.2389 10.902 56.1759C9.65597 59.1759 7.87197 62.0009 5.48997 64.1629C5.24597 64.3879 4.76897 64.9249 4.47597 64.6999C4.03597 64.3869 4.51297 63.0379 4.62297 62.6879C5.03797 61.3259 5.67397 60.0629 6.40697 58.8629C9.27797 54.1379 13.517 50.4509 16.082 45.5269C16.253 45.4399 16.424 45.3149 16.571 45.1519C18.025 43.6019 21.005 44.0149 22.911 43.7769C25.415 43.4639 27.895 43.0019 30.289 42.1649C35.029 40.5279 38.791 37.4649 42.59 34.2029C43.494 33.4279 44.398 32.6409 45.351 31.9159C45.473 31.8529 45.559 31.8039 45.644 31.7659C45.742 32.0409 45.791 32.3409 45.803 32.6279C45.828 33.0659 45.742 33.5289 45.62 33.9909Z" fill="#1E1E1E"/>
<path d="M31.3277 26.4409C30.0207 22.3539 26.6977 18.8669 22.4467 18.4539C22.3607 18.2919 22.2637 18.1289 22.1417 18.0039C21.3967 17.2289 20.3097 17.3289 19.5517 18.0039C18.1347 19.2659 16.4487 20.1539 15.1417 21.5539C13.8097 22.9659 12.7597 24.6909 12.2217 26.5909C11.0737 30.6409 12.4787 34.9899 15.9357 37.2649C19.1487 39.3899 23.3267 39.1769 26.5267 37.1399C29.9227 34.9779 32.6837 30.6789 31.3277 26.4409ZM27.5897 30.5909C27.0277 31.8159 26.0867 32.9029 25.0127 33.6529C22.9477 35.1029 20.3337 35.5149 18.0987 34.2029C15.8147 32.8529 15.0207 30.1529 15.7407 27.6039C16.1437 26.1919 16.9867 24.9669 18.0007 23.9539C18.9287 23.0419 20.0167 22.3419 21.0427 21.5669C21.3847 21.9539 21.8857 22.2039 22.4357 22.2539C24.7807 22.4789 26.5647 24.7039 27.5177 26.7789C28.1147 28.0409 28.1877 29.3039 27.5897 30.5909Z" fill="#1E1E1E"/>
<path d="M51.0071 24.38C49.2481 20.818 46.4511 17.806 43.1031 15.818C42.2721 15.318 41.0631 15.593 40.5991 16.493C40.1351 17.393 40.3671 18.555 41.2591 19.08C41.6501 19.305 42.0161 19.555 42.3951 19.805C42.5661 19.918 42.7251 20.043 42.8961 20.168C42.9821 20.231 43.0671 20.305 43.1651 20.368C43.8371 20.931 44.4841 21.53 45.0831 22.18C45.3761 22.493 45.6571 22.83 45.9261 23.167C45.9871 23.242 46.0601 23.33 46.1211 23.405C46.1581 23.455 46.1941 23.505 46.2311 23.555C46.3171 23.667 46.2801 23.618 46.1331 23.417C46.2671 23.517 46.4021 23.78 46.4871 23.917C47.0001 24.667 47.4641 25.454 47.8671 26.279C48.3071 27.167 49.5771 27.491 50.3711 26.954C51.2271 26.392 51.4721 25.33 51.0071 24.38Z" fill="#1E1E1E"/>
<path d="M48.2459 44.1779C48.1849 43.9279 48.0749 43.7148 47.9159 43.5278C47.7819 43.3278 47.6109 43.1659 47.4029 43.0409C46.9749 42.8039 46.4619 42.6909 45.9979 42.8529C45.8509 42.9159 45.7049 42.9779 45.5579 43.0409C45.2769 43.2029 45.0689 43.4408 44.8979 43.7158C44.5319 44.4908 44.2259 45.3028 43.9939 46.1408C43.9209 46.3908 43.9079 46.6408 43.9569 46.8908C43.9689 47.1408 44.0429 47.3778 44.1769 47.5908C44.2869 47.8158 44.4459 47.9908 44.6529 48.1278C44.8239 48.2898 45.0319 48.4029 45.2759 48.4648C45.4349 48.4899 45.6059 48.5148 45.7649 48.5278C46.0949 48.5278 46.3999 48.4408 46.6929 48.2658C47.0959 48.0028 47.4019 47.6159 47.5359 47.1289C47.6579 46.6789 47.8049 46.2419 47.9759 45.8169C48.0129 45.7419 48.0369 45.6788 48.0739 45.6048C48.2079 45.3928 48.2819 45.1548 48.2939 44.9048C48.3439 44.6898 48.3319 44.4279 48.2459 44.1779Z" fill="#FBB03B"/>
<path d="M98.227 97.2109C73.327 96.0859 48.403 95.7489 23.478 96.2109C16.391 96.3479 9.30297 96.5359 2.21597 96.7979C-0.134026 96.8859 -0.121026 100.673 2.22897 100.585C27.129 99.6729 52.066 99.5479 76.978 100.222C84.065 100.41 91.153 100.672 98.24 100.997C100.602 101.098 100.577 97.3109 98.227 97.2109Z" fill="#1E1E1E"/>
<path d="M83.2271 91.4989C79.3651 91.0739 75.4651 90.9489 71.5771 91.1239C70.6021 91.1609 69.6521 91.9609 69.7021 93.0239C69.7521 94.0109 70.5271 94.9609 71.5771 94.9239C75.4641 94.7489 79.3521 94.8869 83.2271 95.2989C84.2021 95.4119 85.1391 94.3489 85.1021 93.3989C85.0521 92.2869 84.2641 91.6239 83.2271 91.4989Z" fill="#1E1E1E"/>
<path d="M36.1037 73.138C35.0287 73.188 34.3687 73.975 34.2717 75.038C34.1247 76.6 33.9537 78.15 33.7587 79.7C33.7467 79.8 33.7217 79.975 33.7217 79.987C33.6977 80.175 33.6727 80.362 33.6487 80.55C33.5997 80.925 33.5387 81.3 33.4897 81.675C33.3677 82.487 33.2457 83.3 33.1107 84.1C32.9517 85.075 33.3547 86.187 34.3937 86.425C35.2857 86.638 36.4707 86.15 36.6417 85.1C37.2037 81.763 37.6307 78.401 37.9367 75.026C38.0217 74.038 37.0327 73.101 36.1037 73.138Z" fill="#1E1E1E"/>
<path d="M13.2596 19.567C13.2596 19.105 13.0646 18.542 12.7216 18.23C12.3676 17.892 11.9156 17.655 11.4266 17.68C10.9746 17.705 10.4376 17.855 10.1316 18.23C8.82463 19.88 7.70063 21.642 6.83363 23.567C6.62563 24.042 6.51563 24.504 6.65063 25.029C6.77263 25.467 7.09063 25.942 7.49363 26.166C7.92163 26.403 8.43463 26.516 8.89863 26.354C9.32663 26.204 9.79063 25.929 9.99763 25.479C10.6816 23.954 11.5366 22.504 12.5266 21.167C12.5996 21.079 12.6606 20.992 12.7346 20.904C13.0396 20.504 13.2596 20.104 13.2596 19.567Z" fill="#1E1E1E"/>
<path d="M42.0278 1.64393C43.1528 2.29393 44.2158 2.40593 45.4528 2.08093C46.5028 1.80593 47.4778 1.61893 48.5028 2.16793C48.8898 2.37993 49.2398 2.70493 49.5528 3.00493C49.6648 2.95493 49.7648 2.89293 49.8158 2.85493C50.4908 2.36793 51.3278 1.91793 52.1408 1.75493C53.1788 1.52993 54.2038 1.82993 55.0158 2.47993C55.3538 2.74193 55.5658 3.14193 55.8908 3.40493C56.3908 3.80493 56.4908 3.69193 57.1278 3.41793C58.2528 2.93093 59.1908 2.24293 60.4658 2.14293C61.5528 2.05593 62.5528 2.39293 63.5158 2.86793C64.4538 3.31793 64.8028 3.81793 65.7038 3.21793C66.5788 2.64293 67.3788 2.08093 68.4788 2.06793C69.5538 2.04293 70.4538 2.57993 71.2538 3.21793C71.5288 3.42993 71.8418 3.82993 72.1668 3.95493C72.8418 4.19193 73.5168 3.71793 74.0918 3.40493C76.2918 2.22993 78.2788 1.44293 80.6538 2.69293C81.1908 2.96793 82.1658 3.92993 82.8038 3.85493C83.5658 3.75493 84.3918 2.61793 85.0788 2.25493C86.1658 1.69293 87.3658 1.65493 88.4908 2.15493C88.9408 2.35493 89.4528 2.91693 89.9028 2.99193C90.4398 3.07893 91.1398 2.59193 91.5528 2.30493C92.5778 1.59293 93.3898 0.704931 94.7648 1.09293C96.1528 1.46793 97.4528 2.87993 98.5778 3.71793C99.4028 4.34293 99.8278 5.34293 99.2658 6.30493C98.8038 7.10493 97.4528 7.60493 96.6288 6.97993C96.0658 6.55493 95.4918 6.11793 94.9288 5.69293C94.7288 5.54293 94.4408 5.38093 94.2538 5.19293C93.4668 5.75493 91.9538 6.39293 91.5788 6.51793C90.4918 6.89293 89.3788 6.91793 88.3168 6.42993C87.3298 5.97993 87.1918 5.32993 86.2798 6.00493C84.5048 7.29193 82.8928 8.15493 80.7048 7.12993C79.9298 6.76793 79.0418 5.85493 78.1798 5.77993C77.0298 5.66793 75.6428 6.94193 74.5928 7.34193C73.5298 7.75393 72.3928 7.94193 71.2798 7.64193C70.7548 7.50493 70.3048 7.26693 69.8678 6.96693C69.5048 6.72993 69.0058 6.02993 68.5808 5.92993C68.2178 5.84193 67.0178 6.89193 66.4558 7.09193C65.4808 7.42893 64.4808 7.40393 63.5058 7.05493C62.6938 6.76793 61.8058 5.96793 60.9558 5.87993C59.9308 5.76793 58.5438 7.00493 57.5438 7.27993C56.4938 7.56693 55.3318 7.56693 54.3568 7.02993C53.9568 6.81793 53.6068 6.54293 53.2938 6.21793C53.0938 6.01793 52.9318 5.76793 52.7308 5.56793C52.7058 5.54293 52.7058 5.53093 52.6928 5.51793C51.8558 5.69293 51.0808 6.55493 50.1928 6.76793C49.1048 7.01793 47.8928 6.71793 47.0928 5.93093C47.0558 5.89293 46.8298 5.74393 46.7308 5.64393C46.5808 5.69393 46.2808 5.76893 46.2178 5.78093C45.5558 5.95593 44.8678 6.04293 44.1928 6.04293C42.7178 6.04293 41.3428 5.61793 40.0808 4.88093C37.9398 3.68093 39.8778 0.406931 42.0278 1.64393Z" fill="#FBB03B"/>
<path d="M1.39084 6.88083C2.81584 6.65583 4.22784 6.43083 5.65284 6.21883C7.01484 6.01883 8.33984 6.34383 9.62784 6.15583C10.8528 5.98083 11.6278 5.93083 12.7528 6.58083C13.7528 7.15583 13.7898 7.06783 14.8898 6.59283C15.8028 6.19283 16.7028 5.84283 17.7268 5.89283C18.3268 5.91783 18.9018 6.11783 19.4388 6.37983C19.5388 6.42983 20.1508 6.67983 20.1018 6.75483C20.4768 6.67983 21.0518 6.19283 21.3898 6.05483C21.8398 5.85483 22.2148 5.72983 22.7148 5.69283C23.3518 5.64283 23.9148 5.77983 24.4898 6.02983C24.9148 6.21683 25.3898 6.67983 25.8518 6.71683C26.9898 6.79183 28.1518 6.01683 29.3518 6.07983C30.5518 6.12983 31.4638 7.02983 32.5888 7.14183C33.6768 7.25383 34.7638 6.49183 35.8638 6.46683C37.0638 6.44183 37.9638 6.95383 39.0008 7.44183C39.9888 7.90383 40.7508 7.21683 41.8258 7.21683C42.9378 7.20483 43.8628 7.72883 44.7638 8.31683C45.0008 8.49183 45.2508 8.65383 45.5138 8.79183C45.4258 9.05383 45.5138 9.04183 45.7508 8.74183C46.1388 8.66683 46.5638 8.20483 47.0258 8.11683C48.4128 7.84183 49.5628 8.57883 50.5878 9.41683C52.4998 10.9788 49.7628 13.6418 47.8628 12.0918C48.3008 11.5668 48.3258 11.4918 47.9508 11.8538C47.7258 12.0658 47.4758 12.2288 47.1888 12.3418C46.7638 12.5418 46.2888 12.6538 45.8138 12.6668C44.7018 12.6788 43.7388 12.1668 42.8268 11.5798C42.5518 11.3918 42.2018 11.0428 41.8518 11.0048C41.4768 10.9668 40.8768 11.3298 40.4768 11.4048C39.4138 11.6168 38.4518 11.3798 37.5018 10.9298C36.1398 10.2928 35.9898 10.2678 34.5148 10.6678C33.4518 10.9548 32.4278 11.0428 31.3648 10.7178C30.3148 10.3928 29.5898 9.74283 28.4648 9.98083C27.3148 10.2308 26.3148 10.6808 25.1148 10.4558C24.6398 10.3688 24.2018 10.2058 23.7778 9.98083C23.1028 9.63083 23.2528 9.50583 22.6658 9.66883C21.8408 9.89383 21.2278 10.4938 20.3158 10.5558C19.6908 10.5938 19.1528 10.4558 18.5908 10.2188C18.2908 10.0938 17.9158 9.74383 17.6158 9.69383C16.8908 9.58183 15.9158 10.3188 15.2788 10.5558C14.4788 10.8308 13.6168 10.9808 12.7668 10.8058C12.1668 10.6808 11.7418 10.3188 11.1918 10.1058C10.2918 9.75583 11.2038 9.83083 10.1668 9.99383C8.86684 10.2058 7.66684 9.75683 6.37984 9.91883C5.05284 10.0928 3.74084 10.3308 2.41584 10.5308C-0.00916338 10.9178 -1.04716 7.26783 1.39084 6.88083Z" fill="#1E1E1E"/>
</svg>
