<svg width="99" height="89" viewBox="0 0 99 89" fill="none" xmlns="http://www.w3.org/2000/svg">
<path d="M92.1914 12.242C71.3814 11.012 50.5214 10.642 29.6914 11.132C23.7814 11.272 17.8714 11.492 11.9714 11.762C9.73136 11.872 9.05136 14.342 9.95136 15.772C9.93136 16.412 10.1214 17.052 10.5214 17.512C10.8614 18.302 11.5814 18.922 12.7114 18.912L91.2114 18.512C92.3914 18.502 93.1314 17.832 93.4514 16.982C95.3114 15.992 94.9014 12.402 92.1914 12.242Z" fill="#FBB03B"/>
<path d="M97.4816 71.162L97.1116 70.842L97.2716 70.362C97.3416 70.152 97.3716 69.952 97.3816 69.762L97.6316 19.232C97.6316 18.662 97.4316 18.222 97.0416 17.922L96.8616 17.722C96.5716 17.252 96.1216 17.012 95.5316 17.012L90.4916 16.972L89.8716 10.502C89.7816 9.59203 89.2116 8.67203 88.1116 8.67203H86.4516L86.5716 7.81203C86.8316 6.04203 86.3616 4.28203 85.2716 2.86203C84.1116 1.36203 82.3916 0.402026 80.4116 0.172026C78.3316 -0.0679738 76.1416 -0.00797378 74.0216 0.0620262C73.1516 0.0920262 72.2916 0.112026 71.4416 0.122026L23.0816 0.462026C22.6516 0.472026 22.2016 0.462026 21.7416 0.452026C19.2216 0.412026 16.6016 0.362026 14.9216 2.01203C13.5816 3.32203 13.2016 5.24203 13.7716 7.90203L13.9616 8.80203L13.0416 8.81203C11.4816 8.83203 9.70161 8.96203 8.27161 9.85203C6.56161 10.912 5.76161 12.852 5.90161 15.602L5.94161 16.392L2.03161 16.362C1.87161 16.362 1.73161 16.382 1.56161 16.422L1.44161 16.442C1.08161 16.472 -0.048392 16.682 0.00160803 18.072L2.23161 76.832C2.26161 77.702 2.89161 78.622 3.92161 78.622C5.55561 78.597 7.19061 78.571 8.82461 78.546C12.8766 78.483 16.9286 78.42 20.9796 78.357C26.1776 78.276 31.3766 78.195 36.5746 78.114C41.6486 78.035 46.7226 77.956 51.7966 77.877C59.8486 77.751 67.8826 77.561 75.9376 77.484C81.1126 77.435 86.2986 77.327 91.4616 77.243H92.4216C93.8016 77.253 95.2316 77.263 96.3916 76.703C97.5016 76.173 98.3016 75.083 98.4616 73.843C98.5416 73.222 98.5216 72.062 97.4816 71.162ZM17.1616 4.96203C17.3916 4.54203 17.7816 4.24203 18.2916 4.11203C19.0716 3.91203 19.9316 3.94203 20.7016 3.97203C20.9716 3.98203 21.2516 3.99203 21.5016 3.99203L77.0416 3.58203C77.2816 3.58203 77.5316 3.57203 77.7816 3.56203C78.7616 3.53203 79.7616 3.50203 80.7516 3.76203C81.7216 4.01203 82.5416 4.69203 82.9416 5.59203C83.3216 6.43203 83.3016 7.35203 82.8816 8.18203L82.6816 8.61203L82.1816 8.67203L17.6416 8.83203L17.4016 8.12203C17.0916 7.19203 16.6516 5.90203 17.1616 4.96203ZM9.48161 13.682C9.92161 12.552 11.0216 12.462 11.7516 12.402C13.6116 12.242 15.4216 12.282 17.1716 12.312C17.9716 12.322 18.7716 12.332 19.5616 12.342L86.5416 12.182L87.0016 16.942L9.43161 16.412L9.35161 15.762C9.27161 15.112 9.22161 14.352 9.48161 13.682ZM94.5616 72.782L94.7016 73.662L93.8116 73.652C93.5616 73.652 93.3116 73.662 93.0616 73.682C92.8316 73.702 92.6116 73.712 92.4016 73.712C84.4316 73.712 76.4666 73.854 68.4976 73.989C60.7926 73.989 53.0906 74.445 45.3826 74.445C45.3426 74.446 45.3016 74.446 45.2616 74.447C39.5976 74.536 33.9326 74.625 28.2686 74.714C23.2746 74.793 18.2806 74.871 13.2866 74.95C10.7656 74.99 8.24361 75.029 5.72261 75.069C5.66861 75.07 5.61561 75.071 5.56161 75.072L3.46161 19.882L94.2216 20.502L93.9816 69.762C93.9816 70.282 94.1416 70.702 94.4716 70.992L94.8516 71.332L94.6716 71.812C94.5516 72.142 94.5116 72.472 94.5616 72.782Z" fill="#1E1E1E"/>
<path d="M35.5016 31.352L59.5616 31.262C60.8816 31.262 61.2316 30.152 61.2316 29.492C61.2316 28.852 60.8816 27.762 59.5816 27.762H59.5716L35.5216 27.852C34.2016 27.852 33.8516 28.972 33.8516 29.622C33.8516 30.262 34.2016 31.352 35.5016 31.352Z" fill="#1E1E1E"/>
<path d="M78.0917 37.332L20.4617 38.922C19.6317 38.942 19.2217 39.392 19.0117 39.772C18.6817 40.382 18.6917 41.192 19.0417 41.752C19.3317 42.222 19.8117 42.452 20.4217 42.432L78.0617 40.842C79.2517 40.812 79.7717 39.842 79.7417 38.962C79.7117 38.182 79.2517 37.302 78.0917 37.332Z" fill="#1E1E1E"/>
<path d="M60.0516 46.552C60.0316 46.552 60.0216 46.552 60.0016 46.552L39.3816 47.302C38.3816 47.342 37.6016 48.112 37.6016 49.052C37.6016 49.512 37.8116 49.992 38.1716 50.332C38.5016 50.652 38.9016 50.802 39.3216 50.802L59.9416 50.052C60.9416 50.012 61.7216 49.242 61.7216 48.302C61.7216 47.842 61.5116 47.362 61.1516 47.022C60.8316 46.722 60.4416 46.552 60.0516 46.552Z" fill="#1E1E1E"/>
<path d="M45.5003 83.7621C43.3103 83.7221 41.1103 83.7021 38.9103 83.7021C29.1503 83.7021 19.3203 84.0821 9.62029 84.8421C8.26029 84.9521 7.86029 86.1621 7.92029 86.9521C7.95029 87.3021 8.15029 88.4521 9.51029 88.3421C21.4403 87.4121 33.5603 87.0521 45.5303 87.2621C46.3403 87.2721 46.7203 86.8821 46.9203 86.5521C47.2603 85.9821 47.2703 85.1721 46.9403 84.5721C46.7303 84.2121 46.3203 83.7821 45.5003 83.7621Z" fill="#1E1E1E"/>
<path d="M23.4913 63.702C23.4213 62.692 22.7413 62.162 22.1413 62.002C21.3913 61.812 20.6713 62.102 20.2113 62.802C19.9613 63.182 19.6813 63.492 19.4113 63.792C19.2413 63.982 19.0613 64.182 18.9013 64.392L17.9813 65.612L17.5813 64.142C17.4113 63.512 16.7713 62.942 16.0613 62.792C15.9513 62.772 15.8313 62.752 15.7113 62.752C15.3813 62.752 15.0013 62.862 14.7013 63.242L12.0013 66.532C11.4213 67.242 11.1813 68.292 11.9513 69.062C12.2813 69.392 12.8413 69.582 13.3813 69.562C13.6213 69.552 14.0813 69.472 14.3713 69.112L15.6213 67.582L16.1613 67.872C16.8213 68.222 17.5413 68.392 18.2513 68.342C19.2513 68.282 20.1713 67.872 21.0813 67.102L21.5113 66.732L21.9813 67.052C23.1913 67.862 25.1113 68.262 26.8813 66.962L27.4413 66.552L27.9213 67.072C28.4213 67.662 28.9813 68.022 29.6513 68.172C30.5313 68.372 31.3913 68.202 32.1913 67.662L32.5813 67.402L32.9813 67.632C33.3413 67.832 33.7113 67.982 34.0813 68.072C34.9413 68.282 35.8113 68.192 36.5813 67.832C36.8413 67.712 37.0813 67.552 37.3913 67.322L37.8113 67.002L38.2513 67.282C38.7913 67.632 39.4813 67.712 40.0113 67.502C40.4613 67.322 40.7513 66.952 40.8813 66.412C41.1013 65.512 40.8513 64.612 40.2013 63.952C39.5113 63.242 38.5113 62.962 37.5313 63.172C37.1213 63.262 36.7213 63.452 36.2813 63.752L36.1813 63.822C36.0313 63.922 35.7613 64.102 35.5413 64.272L34.5313 65.072L34.3313 63.802C34.2013 62.982 33.4113 62.772 33.0813 62.712C32.3913 62.602 31.5213 62.822 31.1813 63.472C31.1413 63.542 31.0913 63.632 31.0313 63.722L30.4913 64.532L29.8413 63.802C29.0913 62.962 28.0513 62.612 27.0513 62.852C26.6513 62.952 26.2313 63.142 25.8113 63.422C25.7313 63.482 25.6413 63.572 25.5413 63.662C25.2413 63.932 24.8813 64.272 24.4313 64.372C24.4113 64.372 24.3913 64.382 24.3613 64.382L24.3413 64.232L24.2413 63.632H24.2313L23.6413 63.672L23.4913 63.702Z" fill="#1E1E1E"/>
</svg>
