<svg width="103" height="75" viewBox="0 0 103 75" fill="none" xmlns="http://www.w3.org/2000/svg">
<path d="M91.6801 66.0452C82.8601 66.5062 74.0501 66.6022 65.2201 66.3242C60.0701 66.1612 60.0801 73.8462 65.2201 74.0092C74.0501 74.2882 82.8601 74.1922 91.6801 73.7302C96.8001 73.4622 96.8301 65.7762 91.6801 66.0452Z" fill="#FBB03B"/>
<path d="M102.32 46.8231C102.22 41.8571 102.12 36.9001 102.03 31.9331C101.95 28.0711 102.36 23.5181 98.53 20.9241C95.31 18.7431 90.86 18.8301 87 18.7051C87.04 16.4861 86.89 14.2861 86.56 12.0861C86.28 10.2901 86.17 7.72513 84.05 7.03313C83.2 6.75413 82.27 6.81213 81.39 6.80213C80.08 6.79213 78.78 6.78313 77.47 6.77313C75.02 6.75413 72.57 6.73513 70.12 6.71513C68.98 6.70513 67.83 6.69613 66.69 6.68613C66.5 6.68613 65.93 6.60913 65.71 6.67613C65.68 6.67613 65.65 6.67613 65.62 6.67613C65.63 6.22513 65.59 5.53313 65.59 5.44613C65.55 3.81313 65.6 1.10413 63.57 0.528131C62.65 0.269131 61.55 0.403131 60.61 0.394131C59.28 0.375131 57.96 0.356132 56.63 0.336132C54.14 0.298132 51.66 0.269131 49.17 0.230131C43.53 0.153131 37.89 0.076132 32.26 -0.000867952C31.51 -0.010868 30.67 0.671132 30.76 1.44013C31.08 4.33113 31.21 7.24213 31.13 10.1431C31.13 10.1811 31.12 10.5181 31.1 10.8251C30.99 10.8251 30.88 10.8251 30.76 10.8251C30.01 10.8151 29.26 10.8151 28.51 10.8061C26.93 10.7961 25.35 10.7871 23.77 10.7771C22.27 10.7671 20.77 10.7581 19.28 10.7481C18.04 10.7381 16.39 10.4791 15.41 11.4111C14.57 12.2081 14.66 13.3711 14.66 14.4081L14.68 18.2121C10.28 18.3181 5.88 18.4331 1.48 18.5871C0.13 18.6351 -0.27 19.9801 0.27 20.7581C0.1 20.9831 0 21.2421 0 21.5691C0.07 30.9931 0.15 34.9891 0.22 44.4131C0.26 49.1971 0.3 53.9901 0.33 58.7741C0.35 61.0891 0.36 63.4141 0.38 65.7291C0.4 67.4581 0.65 69.3031 2.48 70.2441C4.31 71.1761 6.96 70.8401 8.97 70.8971L16.94 71.0891C22.17 71.2141 27.4 71.3481 32.63 71.4731C43.17 71.7321 53.71 71.0891 64.26 71.3481C76.19 71.6361 87.8 71.0211 99.62 71.3101C100.49 71.3291 100.96 70.8011 101.05 70.1961C101.9 70.3691 102.91 69.9461 102.89 68.9281C102.71 59.1481 102.52 56.6021 102.32 46.8231ZM17.66 14.6421C17.66 14.3351 17.68 13.9981 17.66 13.6811C18.14 13.8251 19.33 13.6431 19.77 13.6431C22.93 13.6621 26.09 13.6911 29.26 13.7101C30.41 13.7201 31.93 13.9891 32.98 13.3931C34.11 12.7491 34.08 11.5101 34.12 10.3961C34.2 7.89813 34.12 5.40113 33.9 2.92213C42.47 3.03713 51.05 3.15313 59.62 3.26813C60.12 3.27813 60.61 3.27813 61.11 3.28713C61.37 3.28713 61.83 3.35413 62.1 3.29713C62.1 3.29713 62.25 3.29713 62.39 3.29713C62.38 3.55613 62.49 3.92113 62.51 4.17113C62.56 4.67113 62.59 5.16013 62.59 5.66013C62.61 7.47613 62.61 9.37813 65.01 9.54113C69.45 9.83913 74 9.62713 78.45 9.66613C79.68 9.67613 80.9 9.68513 82.13 9.69513C82.6 9.70513 82.87 9.62813 83.11 9.97413C83.35 10.3101 83.36 11.0981 83.44 11.5011C83.89 13.8451 84.05 16.2271 84.01 18.6001C79.47 18.4371 74.92 18.3021 70.37 18.1971C59.59 17.9471 48.81 17.8421 38.03 17.8801C31.24 17.9091 24.46 17.9951 17.68 18.1491C17.67 16.9861 17.67 15.8141 17.66 14.6421ZM38.87 68.9081L8.73 68.1681C7.53 68.1391 6.33 68.1391 5.14 68.0821C4.15 68.0341 3.58 67.8321 3.44 66.8911C3.13 64.8451 3.37 62.6261 3.35 60.5701C3.31 56.0071 3.28 51.4441 3.24 46.8811C3.24 46.7751 3.24 46.6791 3.24 46.5741C11.93 46.4971 20.62 46.4301 29.31 46.3531L42.55 46.2381C43.29 46.2281 44.69 45.9591 45.21 46.5361C45.7 47.0741 45.59 48.2461 45.64 48.8991C45.79 50.8871 45.95 52.8861 46.1 54.8741C46.45 59.3701 46.8 63.8751 47.15 68.3711C47.17 68.6211 47.26 68.8321 47.38 69.0151C44.54 69.0141 41.7 68.9851 38.87 68.9081ZM48.63 48.8981C48.5 47.2841 48.47 45.4491 46.99 44.3251C45.38 43.0951 42.74 43.5281 40.8 43.5471L38.67 43.5661C37.99 41.0881 38.93 38.4361 41.08 36.7551C43.33 34.9971 46.63 34.5551 49.42 35.3331C54.87 36.8511 59.16 43.5461 55.52 48.2341C54.07 50.1071 51.13 51.1251 48.74 50.2901C48.7 49.8201 48.66 49.3591 48.63 48.8981ZM99.63 68.5911C83.09 68.1881 66.56 68.9751 50.02 69.0041C50.11 68.8211 50.16 68.6201 50.14 68.3701C49.81 64.0951 49.47 59.8111 49.14 55.5361C49.08 54.7391 49.02 53.9321 48.95 53.1341C51.66 53.6051 54.54 52.7881 56.65 51.1071C59.71 48.6771 60.35 44.5751 59.29 41.1741C57.08 34.0651 47.42 29.6081 40.21 33.9601C36.74 36.0541 34.85 39.8971 35.58 43.5851C34.9 43.5951 34.22 43.5951 33.54 43.6041C28.63 43.6421 23.72 43.6901 18.8 43.7291L3.2 43.8651C3.15 35.5841 3.07 30.7521 3 21.5691C3 21.4631 2.99 21.3671 2.96 21.2711C23.26 20.5891 43.58 20.4161 63.89 20.7811C69.11 20.8771 74.33 21.0021 79.56 21.1651C82.21 21.2511 84.86 21.3381 87.51 21.4441C89.53 21.5211 91.59 21.5301 93.57 21.9241C95.28 22.2601 97.01 22.8851 97.96 24.2971C99.11 25.9971 98.94 28.2161 98.98 30.1381C99.07 34.7971 99.16 39.4661 99.26 44.1251C99.47 54.7011 99.68 58.0541 99.89 68.6301C99.81 68.6101 99.72 68.6011 99.63 68.5911Z" fill="#1E1E1E"/>
<path d="M38.2598 25.6321C35.6298 23.8931 33.0098 22.1641 30.3798 20.4251C28.8198 19.3971 26.3598 20.4831 25.9998 22.2021C25.2398 25.7561 24.4798 29.3111 23.7298 32.8751C22.5098 32.4331 21.2898 31.9911 20.0698 31.5491C18.3898 30.9341 16.0898 32.5961 16.3098 34.3351C16.5598 36.3621 16.8098 38.3791 17.0598 40.4061C15.4798 39.6471 13.8898 38.8981 12.3098 38.1391C10.0898 37.0821 7.18985 38.8791 7.92985 41.3761C9.25985 45.8721 9.69985 50.2911 9.33985 54.9501C9.04985 58.6581 15.0498 58.6291 15.3398 54.9501C15.5798 51.8761 15.4698 48.8601 15.0398 45.8722C16.4298 46.5352 17.8098 47.1981 19.1998 47.8511C20.9998 48.7061 23.9698 47.6592 23.6798 45.3442L22.8598 38.6971L25.2098 39.5522C26.6698 40.0802 28.5698 38.8992 28.8698 37.4962C29.5598 34.2592 30.2498 31.0211 30.9398 27.7751C32.3998 28.7361 33.8498 29.6961 35.3098 30.6661C38.4798 32.7501 41.4298 27.7261 38.2598 25.6321Z" fill="#FBB03B"/>
<path d="M91.8099 61.1462C91.1799 58.3032 90.5599 55.4592 89.9299 52.6252C89.6599 51.4152 89.5099 50.0122 88.4999 49.1282C87.2899 48.0712 85.7499 48.4842 84.5899 49.3682C82.2299 51.1642 79.9299 53.0382 77.6099 54.8722C76.4299 55.8042 75.0599 56.9852 75.7899 58.6092C76.3699 59.8962 78.0699 60.2322 79.3099 60.6552C82.5599 61.7692 85.8199 62.8842 89.0699 63.9882C90.1999 64.3722 91.0299 63.4792 91.0699 62.6052C91.5999 62.3662 91.9599 61.8672 91.8099 61.1462ZM79.5999 57.6982C79.5399 57.6792 79.2899 57.5832 79.0399 57.4872C79.1199 57.4202 79.1999 57.3432 79.2899 57.2762C81.2099 55.7582 83.1299 54.2502 85.0499 52.7322C85.4999 52.3772 85.9499 52.0122 86.4099 51.6562C86.4699 51.6082 86.5299 51.5602 86.5999 51.5122C86.6599 51.7142 86.7199 51.9352 86.7299 51.9632C86.8699 52.5872 87.0099 53.2212 87.1399 53.8462C87.6499 56.1612 88.1599 58.4762 88.6699 60.7912C86.8099 60.1572 84.9399 59.5132 83.0799 58.8792C81.9199 58.4852 80.7599 58.0912 79.5999 57.6982Z" fill="#1E1E1E"/>
<path d="M84.3298 32.7982C84.2998 32.7792 84.2798 32.7792 84.2498 32.7602C84.1798 32.7022 84.0898 32.6452 83.9998 32.6062C80.6798 31.0792 77.3698 29.5612 74.0498 28.0332C73.3598 27.7162 72.5298 27.8412 72.0798 28.4652C71.9698 28.5612 71.8698 28.6672 71.7798 28.7922C69.8198 31.7412 67.8698 34.6812 65.9098 37.6302C65.4898 38.2642 65.7498 39.2442 66.4498 39.5992C66.5698 39.6572 66.6898 39.6952 66.8098 39.7332C68.4998 40.5302 70.1798 41.3082 71.8398 42.1732C73.4898 43.0282 75.1798 43.8252 76.9698 44.3732C77.5098 44.5362 78.1098 44.6522 78.5898 44.3062C79.0798 43.9602 79.3198 43.3652 79.6298 42.8752C80.2198 41.9722 80.7998 41.0592 81.3898 40.1562C82.5498 38.3602 83.6998 36.5732 84.8598 34.7772C85.2998 34.1052 85.0198 33.1822 84.3298 32.7982ZM77.0698 41.2612C76.9898 41.2902 76.8998 41.2902 76.7998 41.2512C74.3498 40.2902 72.0198 38.9842 69.6498 37.8602C69.6398 37.8502 69.3998 37.7352 69.3998 37.7452C70.8698 35.5362 72.3398 33.3172 73.8098 31.1072C76.3598 32.2792 78.8998 33.4512 81.4498 34.6132C81.2098 34.5072 77.9798 39.9542 77.6698 40.4542C77.5098 40.6952 77.3498 41.1562 77.0698 41.2612Z" fill="#FBB03B"/>
<path d="M48.8398 5.68915C45.4198 5.66015 41.9898 5.67015 38.5698 5.70815C37.7598 5.71815 37.0698 6.36115 37.0698 7.14915C37.0698 7.92715 37.7598 8.60015 38.5698 8.59015C41.9898 8.55215 45.4198 8.54215 48.8398 8.57115C49.6498 8.58115 50.3398 7.90815 50.3398 7.13015C50.3398 6.34315 49.6598 5.69915 48.8398 5.68915Z" fill="#1E1E1E"/>
<path d="M90.7501 9.91614C90.4701 8.76314 90.1501 7.63014 89.7701 6.50614C89.4001 5.39214 89.0601 4.08514 88.1401 3.24914C87.2301 2.42314 85.9801 2.25014 84.7901 2.09614C83.4801 1.92314 82.1701 1.82714 80.8501 1.81714C80.0701 1.81714 79.3101 2.48014 79.3501 3.25814C79.3901 4.04614 80.0101 4.69914 80.8501 4.69914C81.9301 4.69914 83.0001 4.77614 84.0701 4.89114L84.2302 4.91014C84.1202 4.90014 84.1302 4.90014 84.2302 4.91014C84.3602 4.92914 84.5001 4.94814 84.6301 4.96814C84.8701 5.00614 85.1101 5.04514 85.3501 5.09314C85.5401 5.13114 85.7301 5.17914 85.9201 5.24714C85.9301 5.25714 85.9901 5.29514 86.0501 5.31414C86.0701 5.33314 86.0901 5.35214 86.1201 5.38114C86.1301 5.39114 86.1301 5.39114 86.1401 5.40014C86.2101 5.51514 86.2701 5.62114 86.3301 5.73614C86.3301 5.74614 86.3401 5.75514 86.3401 5.76514C86.3901 5.89914 86.4401 6.02414 86.4901 6.15914C86.6601 6.63014 86.8302 7.10014 86.9802 7.58114C87.3202 8.60914 87.6101 9.64614 87.8601 10.6931C88.0401 11.4331 88.9601 11.9321 89.7101 11.7021C90.5001 11.4441 90.9401 10.7041 90.7501 9.91614Z" fill="#FBB03B"/>
<path d="M19.2401 5.91005C17.8401 6.01605 16.4301 5.95805 15.0301 6.16005C13.8101 6.33305 12.6801 6.79405 11.7101 7.53405C10.7301 8.28305 10.1701 9.35005 9.9801 10.531C9.7701 11.866 9.6201 13.202 9.4401 14.537C9.3401 15.286 10.2001 16.007 10.9401 15.978C11.8401 15.94 12.3301 15.344 12.4401 14.537C12.5901 13.452 12.7301 12.356 12.8801 11.271C12.8701 11.329 12.9201 11.031 12.9201 11.012C12.9401 10.897 12.9601 10.781 12.9901 10.676C13.0201 10.561 13.0701 10.455 13.0901 10.349C13.0201 10.637 13.0801 10.378 13.1401 10.282C13.1801 10.205 13.2401 10.138 13.2901 10.061C13.3101 10.042 13.3301 10.013 13.3601 9.99405C13.4301 9.92705 13.4901 9.86005 13.5701 9.79205C13.6001 9.76305 13.7401 9.66705 13.7401 9.65805C13.8701 9.57205 14.0001 9.49505 14.1401 9.41805C14.2501 9.36005 14.3601 9.32205 14.4601 9.26405C14.1601 9.41805 14.4801 9.25405 14.5501 9.23505C14.7401 9.16805 14.9301 9.11005 15.1301 9.07205C15.2601 9.04305 15.3901 9.01405 15.5201 8.99505C15.5501 8.98505 15.7601 8.95705 15.8101 8.95705C16.9501 8.83205 18.1001 8.88005 19.2401 8.80305C20.0201 8.74505 20.7801 8.17905 20.7401 7.36205C20.7101 6.62105 20.0801 5.84305 19.2401 5.91005Z" fill="#FBB03B"/>
</svg>
