<svg width="101" height="101" viewBox="0 0 101 101" fill="none" xmlns="http://www.w3.org/2000/svg">
<path d="M72.8299 88.6401C65.9799 88.6501 59.1299 88.6601 52.2899 88.6701C47.7899 88.6801 47.7799 95.6801 52.2899 95.6701C59.1399 95.6601 65.9899 95.6501 72.8299 95.6401C77.3299 95.6401 77.3399 88.6401 72.8299 88.6401Z" fill="#FBB03B"/>
<path d="M50.8202 4.17994C44.4602 4.40994 38.1002 4.62994 31.7402 4.85994C27.2502 5.01994 27.2302 12.0199 31.7402 11.8599C38.1002 11.6399 44.4602 11.4099 50.8102 11.1899C55.3102 11.0299 55.3302 4.01994 50.8202 4.17994Z" fill="#FBB03B"/>
<path d="M72.8099 88.6479C65.9599 88.6579 59.1099 88.6679 52.2699 88.6779C47.7699 88.6879 47.7599 95.6879 52.2699 95.6779C59.1199 95.6679 65.9699 95.6579 72.8099 95.6479C77.3099 95.6479 77.3199 88.6479 72.8099 88.6479Z" fill="#FBB03B"/>
<path d="M50.7897 4.188C44.4297 4.408 38.0697 4.638 31.7197 4.858C27.2297 5.018 27.2097 12.018 31.7197 11.858C38.0797 11.638 44.4397 11.408 50.7897 11.188C55.2897 11.038 55.3097 4.028 50.7897 4.188Z" fill="#FBB03B"/>
<path d="M99.32 26.978C98.83 26.678 98.13 26.668 97.63 26.968C97.19 27.228 96.94 27.688 96.94 28.268L96.63 78.938L96.3 78.908C71.81 76.918 47.1 76.148 22.86 76.608C16.63 76.728 10.26 76.938 3.36 77.248L3.04 77.258L3.36 23.668L3.65 23.648C28.07 22.128 52.68 22.048 76.8 23.418C83.72 23.808 90.84 24.338 97.96 24.988C98.48 25.038 98.87 24.868 99.12 24.488C99.42 24.028 99.46 23.318 99.21 22.748C99.07 22.428 98.71 21.878 97.91 21.808C72.98 19.538 47.75 18.778 22.91 19.558C15.98 19.778 8.85 20.118 1.74 20.588C1.25 20.618 0.87 20.828 0.6 21.208C0.31 21.618 0.2 22.198 0.32 22.718L0.33 22.728L0 78.598C0 78.998 0.11 79.328 0.32 79.568L0.39 79.678C0.62 80.228 1.09 80.518 1.69 80.488C13.33 79.928 25.16 79.648 36.86 79.648C49.96 79.648 63.17 79.998 76.11 80.698C83.07 81.068 90.18 81.558 97.25 82.138C97.29 82.138 97.34 82.148 97.38 82.148C97.68 82.148 97.94 82.068 98.15 81.908L98.22 81.858L98.31 81.848C98.94 81.788 99.69 81.368 99.69 80.338L100.01 28.258C99.98 27.708 99.75 27.248 99.32 26.978Z" fill="#1E1E1E"/>
<path d="M14.8102 92.7579C14.8502 93.9079 15.8402 94.3979 16.6802 94.2379C16.8202 94.2779 16.9602 94.3079 17.1302 94.3079L79.4702 93.5179C80.2302 93.5079 80.6902 93.0079 80.8502 92.4179C81.2202 92.2279 81.5202 91.8779 81.6402 91.4379C82.7402 87.5979 83.2102 88.1279 83.0002 84.1279C82.9602 83.2779 82.3402 82.5579 81.5002 82.5579C80.7202 82.5579 79.9502 83.2779 80.0002 84.1279C80.1802 87.8079 79.7802 86.8579 78.8002 90.3979L17.7902 91.1779C17.7302 86.6479 17.7902 88.0279 18.4702 83.5579C18.6002 82.7179 18.2702 81.8679 17.4202 81.6279C16.7102 81.4279 15.7002 81.8779 15.5702 82.7279C14.7802 87.9779 14.6402 87.4079 14.8102 92.7579Z" fill="#1E1E1E"/>
<path d="M84.0601 7.53804C84.0201 6.38804 83.0301 5.89804 82.1901 6.05804C82.0501 6.01804 81.9101 5.98804 81.7401 5.98804L19.4001 6.77804C18.6401 6.78804 18.1801 7.28804 18.0201 7.87804C17.6501 8.06804 17.3501 8.41804 17.2301 8.85804C16.1301 12.698 15.6601 12.168 15.8701 16.168C15.9101 17.018 16.5301 17.738 17.3701 17.738C18.1501 17.738 18.9201 17.018 18.8701 16.168C18.6901 12.488 19.0901 13.438 20.0701 9.89804L81.0801 9.11804C81.1401 13.648 81.0801 12.268 80.4001 16.738C80.2701 17.578 80.6101 18.428 81.4501 18.668C82.1601 18.868 83.1701 18.418 83.3001 17.568C84.0801 12.308 84.2301 12.888 84.0601 7.53804Z" fill="#1E1E1E"/>
<path d="M43.8397 83.9181L24.1397 84.1681C22.2097 84.1881 22.1997 87.3281 24.1397 87.3081L43.8397 87.0581C45.7697 87.0381 45.7797 83.8981 43.8397 83.9181Z" fill="#1E1E1E"/>
<path d="M75.7001 12.878C69.8201 12.948 63.9401 13.008 58.0601 13.078C56.1301 13.098 56.1201 16.238 58.0601 16.218C63.9401 16.148 69.8201 16.088 75.7001 16.018C77.6301 15.988 77.6401 12.858 75.7001 12.878Z" fill="#1E1E1E"/>
<path d="M87.5799 86.438C86.7199 86.438 86.1299 87.158 86.0799 88.008C85.9099 90.668 85.7299 93.928 83.5899 95.748C82.6299 96.568 81.2999 96.818 80.0799 96.858C78.4199 96.918 76.7699 96.688 75.1099 96.718C73.1799 96.758 73.1699 99.898 75.1099 99.858C76.9699 99.818 78.8399 100.128 80.6999 99.958C82.5199 99.798 84.2199 99.258 85.6299 98.028C88.4399 95.588 88.8399 91.548 89.0699 88.008C89.1299 87.158 88.3499 86.438 87.5799 86.438Z" fill="#1E1E1E"/>
<path d="M28.3502 0.178083C26.1102 0.158083 23.8702 0.138083 21.6202 0.118083C19.5502 0.0980829 17.1202 -0.271917 15.1302 0.408083C13.3202 1.02808 12.1202 2.54808 11.3802 4.31808C10.6902 5.98808 10.4502 8.04808 9.32025 9.48808C8.81025 10.1381 8.71025 11.0681 9.32025 11.7081C9.85025 12.2581 10.9302 12.3681 11.4502 11.7081C12.5802 10.2681 13.1102 8.61808 13.6602 6.87808C14.1002 5.48808 14.6902 3.72808 16.2202 3.34808C17.0502 3.13808 17.9402 3.21808 18.7902 3.22808C19.8502 3.23808 20.9102 3.24808 21.9802 3.25808C24.1002 3.27808 26.2302 3.29808 28.3502 3.30808C30.2802 3.33808 30.2802 0.198083 28.3502 0.178083Z" fill="#1E1E1E"/>
</svg>
