<svg width="101" height="101" viewBox="0 0 101 101" fill="none" xmlns="http://www.w3.org/2000/svg">
<path d="M50.1103 0.00214566C38.8203 0.412146 27.5303 0.822146 16.2503 1.23215C12.4403 1.37215 12.4203 7.19215 16.2503 7.06215C27.5403 6.65215 38.8303 6.24215 50.1103 5.83215C53.9303 5.69215 53.9403 -0.127854 50.1103 0.00214566Z" fill="#FBB03B"/>
<path d="M91.4703 94.182C83.8403 94.132 76.2203 94.092 68.5903 94.042C64.7603 94.022 64.7603 99.842 68.5903 99.872C76.2203 99.922 83.8403 99.962 91.4703 100.012C95.3003 100.032 95.3103 94.202 91.4703 94.182Z" fill="#FBB03B"/>
<path d="M16.0603 67.5621C13.7003 65.8021 9.23027 66.0221 6.89027 67.7121C6.57027 67.9421 6.30027 68.2121 6.06027 68.5021C4.28027 67.7521 1.78027 68.5921 1.86027 71.0421C1.93027 73.2721 2.00027 75.5021 2.07027 77.7321C2.13027 79.6021 1.92027 81.7121 2.96027 83.3621C4.91027 86.4321 10.0603 85.5121 13.1503 85.2121C16.9303 84.8321 18.7803 82.3121 18.6303 78.7021C18.4903 75.4421 19.0103 69.7521 16.0603 67.5621Z" fill="#FBB03B"/>
<path d="M41.6202 72.602C41.1502 69.192 38.4202 65.662 34.7702 66.282C34.2702 66.132 33.7402 66.112 33.2402 66.312C31.4002 67.022 29.5602 67.7321 27.7202 68.4421C27.4602 68.5421 27.2302 68.672 27.0102 68.812C25.8102 69.062 24.7902 69.9721 24.8302 71.5421C24.8902 74.0321 24.9202 76.5321 25.0002 79.0221C25.0702 81.0121 25.2202 83.0321 27.0902 84.2321C28.9702 85.4421 31.7002 84.7521 33.7702 84.5921C35.5702 84.4521 37.7002 84.5721 39.4102 83.9321C43.7002 82.312 42.0902 76.032 41.6202 72.602Z" fill="#FBB03B"/>
<path d="M73.32 70.2021C72.4 68.7121 70.9 68.2821 69.24 68.1421C67.26 67.9721 64.89 67.6121 62.95 67.9721C62.45 68.0621 62.02 68.2121 61.66 68.4021C59.96 67.0121 56.64 67.7121 56.7 70.5221L56.84 77.4221C56.88 79.1721 56.68 81.0721 57.07 82.7821C58 86.8421 62.31 86.2621 65.6 86.2621C69.28 86.2621 72.88 86.2621 73.49 81.9321C73.8 79.7221 73.77 77.4021 73.89 75.1721C73.97 73.4921 74.25 71.7221 73.32 70.2021Z" fill="#FBB03B"/>
<path d="M95.3501 73.9121C95.4001 71.5221 94.7801 69.1521 92.6101 67.7921C90.1401 66.2421 87.3501 66.6321 84.6701 67.4021C84.6501 67.4121 84.6301 67.422 84.6101 67.422C82.7301 67.122 80.7901 67.3521 79.3601 68.7721C77.4401 70.6821 77.7201 73.3521 77.9201 75.7921C78.1201 78.232 77.9601 81.1021 80.0401 82.8421C82.1501 84.6021 85.3201 84.2621 87.8901 84.3321C90.5401 84.4121 93.1201 84.2721 94.4601 81.6921C95.5901 79.5421 95.3001 76.2721 95.3501 73.9121Z" fill="#FBB03B"/>
<path d="M99.9901 48.7721C99.8101 44.5221 99.6201 40.2621 99.4401 36.0121L98.3301 10.4921C98.1901 7.31215 98.7901 2.75215 94.7201 1.81215C92.9801 1.41215 91.1101 1.63215 89.3501 1.67215C87.1401 1.72215 84.9301 1.76215 82.7101 1.79215C65.3401 2.00215 27.1501 3.46215 9.82012 2.28215C7.84012 2.14215 5.86012 2.00215 3.89012 1.85215C3.43012 0.46215 0.980122 0.61215 1.00012 2.31215C1.09012 10.8421 1.19012 18.3922 1.28012 26.9222C1.33012 31.1822 1.37012 35.4521 1.42012 39.7122C1.44012 41.8821 1.47012 44.0521 1.49012 46.2321C1.51012 47.9121 1.39012 49.6821 1.79012 51.3321C2.14012 52.7921 3.05012 54.0521 4.49012 54.6321C6.30012 55.3722 8.57012 55.1422 10.4901 55.2122L23.5601 55.6821C32.2701 55.9921 61.6601 56.1021 70.5001 55.6521L83.5701 56.1222C85.7101 56.2022 87.8401 56.2721 89.9801 56.3521C91.8801 56.4221 93.9001 56.6721 95.7901 56.3421C99.7101 55.6521 100.13 52.0021 99.9901 48.7721ZM96.9201 51.9521C96.5201 53.4021 95.2801 53.5521 93.9301 53.5521C91.8801 53.5521 89.8201 53.4121 87.7701 53.3421C83.6601 53.1921 79.5501 52.8022 75.4401 52.9021C67.1401 53.0921 38.5201 53.2921 30.4701 53.0121C26.3601 52.8621 22.2501 52.7221 18.1401 52.5721C16.1701 52.5021 14.2001 52.4321 12.2201 52.3621C11.2301 52.3221 10.2501 52.2921 9.26012 52.2521C8.23012 52.2121 7.05012 52.3221 6.04012 52.0721C4.31012 51.6421 4.50012 49.5621 4.48012 48.1621C4.45012 46.0721 4.43012 43.9821 4.41012 41.8821C4.36012 37.3721 4.31012 32.8722 4.26012 28.3622L3.99012 4.76215C19.9801 5.99215 56.8301 4.70215 72.8701 4.75215C76.9701 4.76215 81.0601 4.73215 85.1601 4.67215C87.1301 4.64215 89.0901 4.60215 91.0601 4.55215C92.2901 4.52215 94.6701 4.10215 95.0901 5.64215C95.3001 6.41215 95.2201 7.31215 95.2501 8.09215L95.3801 10.9822C95.4601 12.9122 95.5501 14.8321 95.6301 16.7621L96.1501 28.8022C96.3201 32.8122 96.5001 36.8221 96.6701 40.8421C96.7501 42.7721 96.8401 44.6922 96.9201 46.6222C97.0001 48.2921 97.3701 50.2921 96.9201 51.9521Z" fill="#1E1E1E"/>
<path d="M18.35 67.3322C17.25 66.9222 16 67.0322 14.84 67.0322C13.35 67.0322 11.87 67.0322 10.38 67.0322C7.72005 67.0322 5.06005 67.0322 2.40005 67.0322C1.53005 66.4322 -0.00995154 66.8022 4.84619e-05 68.1622L0.0600485 75.7522C0.0800485 78.1022 -0.0799515 80.5422 0.150048 82.8822C0.380048 85.2122 2.00005 86.4522 4.30005 86.6522C6.62005 86.8522 9.04005 86.6122 11.36 86.5622C13.46 86.5222 16.04 86.8122 17.91 85.7022C19.78 84.5922 20.11 82.4422 20.18 80.4822C20.27 78.0522 20.33 75.6122 20.4 73.1822C20.49 71.0322 20.88 68.2722 18.35 67.3322ZM17.49 71.8522C17.43 73.9022 17.37 75.9422 17.3 77.9922C17.27 78.9422 17.25 79.9022 17.21 80.8522C17.18 81.5022 17.16 82.2922 16.77 82.8522C16.42 83.3522 15.78 83.4822 15.19 83.5522C14.16 83.6622 13.1 83.6222 12.06 83.6422C10 83.6822 7.93005 83.7322 5.87005 83.7722C5.19005 83.7822 4.43005 83.8622 3.77005 83.6322C3.12005 83.4122 3.12005 82.8622 3.10005 82.2522C2.99005 78.1522 3.01005 74.0522 2.99005 69.9522C6.88005 69.9522 10.78 69.9522 14.67 69.9522C15.44 69.9522 16.33 69.8322 17.09 70.0022C17.82 70.1522 17.51 71.2722 17.49 71.8522Z" fill="#1E1E1E"/>
<path d="M27.7798 86.162C28.8798 86.572 30.1298 86.462 31.2898 86.462C32.7798 86.462 34.2598 86.462 35.7498 86.462C38.4098 86.462 41.0698 86.462 43.7298 86.462C44.5998 87.062 46.1398 86.692 46.1298 85.332L46.0698 77.742C46.0498 75.392 46.2098 72.952 45.9798 70.612C45.7498 68.282 44.1298 67.042 41.8298 66.842C39.5098 66.642 37.0898 66.882 34.7698 66.932C32.6698 66.972 30.0898 66.682 28.2198 67.792C26.3498 68.902 26.0198 71.052 25.9498 73.012C25.8598 75.442 25.7998 77.882 25.7298 80.312C25.6398 82.462 25.2498 85.222 27.7798 86.162ZM28.6398 81.642C28.6998 79.592 28.7598 77.552 28.8298 75.502C28.8598 74.552 28.8798 73.592 28.9198 72.642C28.9498 71.992 28.9698 71.202 29.3598 70.642C29.7098 70.142 30.3498 70.012 30.9398 69.942C31.9698 69.832 33.0298 69.872 34.0698 69.852C36.1298 69.812 38.1998 69.762 40.2598 69.722C40.9398 69.712 41.6998 69.632 42.3598 69.862C43.0098 70.082 43.0098 70.632 43.0298 71.242C43.1398 75.342 43.1198 79.442 43.1398 83.542C39.2498 83.542 35.3498 83.542 31.4598 83.542C30.6898 83.542 29.7998 83.662 29.0398 83.492C28.3098 83.342 28.6198 82.222 28.6398 81.642Z" fill="#1E1E1E"/>
<path d="M71.2499 67.3322C70.1499 66.9222 68.8999 67.0322 67.7399 67.0322C66.2499 67.0322 64.7699 67.0322 63.2799 67.0322C60.6199 67.0322 57.9599 67.0322 55.2999 67.0322C54.4299 66.4322 52.89 66.8022 52.9 68.1622L52.9599 75.7522C52.9799 78.1022 52.8199 80.5422 53.0499 82.8822C53.2799 85.2122 54.9 86.4522 57.2 86.6522C59.5199 86.8522 61.94 86.6122 64.26 86.5622C66.36 86.5222 68.9399 86.8122 70.8099 85.7022C72.6799 84.5922 73.01 82.4422 73.08 80.4822C73.17 78.0522 73.23 75.6122 73.3 73.1822C73.39 71.0322 73.7799 68.2722 71.2499 67.3322ZM70.3899 71.8522C70.3299 73.9022 70.2699 75.9422 70.1999 77.9922C70.1699 78.9422 70.15 79.9022 70.1099 80.8522C70.0799 81.5022 70.0599 82.2922 69.6699 82.8522C69.3199 83.3522 68.6799 83.4822 68.0899 83.5522C67.0599 83.6622 65.9999 83.6222 64.9599 83.6422C62.8999 83.6822 60.8299 83.7322 58.7699 83.7722C58.09 83.7822 57.3299 83.8622 56.6699 83.6322C56.0199 83.4122 56.0199 82.8622 55.9999 82.2522C55.8899 78.1522 55.9099 74.0522 55.8899 69.9522C59.7799 69.9522 63.6799 69.9522 67.5699 69.9522C68.3399 69.9522 69.2299 69.8322 69.9899 70.0022C70.7199 70.1522 70.4099 71.2722 70.3899 71.8522Z" fill="#1E1E1E"/>
<path d="M80.7798 86.162C81.8798 86.572 83.1298 86.462 84.2898 86.462C85.7798 86.462 87.2598 86.462 88.7498 86.462C91.4098 86.462 94.0698 86.462 96.7298 86.462C97.5998 87.062 99.1398 86.692 99.1298 85.332L99.0698 77.742C99.0498 75.392 99.2098 72.952 98.9798 70.612C98.7498 68.282 97.1298 67.042 94.8298 66.842C92.5098 66.642 90.0898 66.882 87.7698 66.932C85.6698 66.972 83.0898 66.682 81.2198 67.792C79.3498 68.902 79.0198 71.052 78.9498 73.012C78.8598 75.442 78.7998 77.882 78.7298 80.312C78.6398 82.462 78.2498 85.222 80.7798 86.162ZM81.6398 81.642C81.6998 79.592 81.7598 77.552 81.8298 75.502C81.8598 74.552 81.8798 73.592 81.9198 72.642C81.9498 71.992 81.9698 71.202 82.3598 70.642C82.7098 70.142 83.3498 70.012 83.9398 69.942C84.9698 69.832 86.0298 69.872 87.0698 69.852C89.1298 69.812 91.1998 69.762 93.2598 69.722C93.9398 69.712 94.6998 69.632 95.3598 69.862C96.0098 70.082 96.0098 70.632 96.0298 71.242C96.1398 75.342 96.1198 79.442 96.1398 83.542C92.2498 83.542 88.3498 83.542 84.4598 83.542C83.6898 83.542 82.7998 83.662 82.0398 83.492C81.3098 83.342 81.6198 82.222 81.6398 81.642Z" fill="#1E1E1E"/>
<path d="M95.5901 90.6121C93.1601 89.8421 90.2201 90.2421 87.7101 90.2321C84.7501 90.2221 81.7901 90.2221 78.8301 90.2121C72.5801 90.2021 66.3401 90.1821 60.0901 90.1721L39.3801 90.1221C37.4701 90.1221 37.4601 93.0321 39.3801 93.0321C50.1501 93.0621 60.9201 93.0821 71.6801 93.1121L87.7101 93.1521C89.0301 93.1521 90.3401 93.1621 91.6601 93.1621C92.6401 93.1621 93.7001 93.0921 94.6501 93.3821C95.3801 93.6121 95.8601 94.0121 95.4301 94.7821C94.8901 95.7521 93.5601 95.8821 92.5501 95.9121C89.7301 96.0021 86.8701 95.8221 84.0501 95.7721C80.9901 95.7121 77.9201 95.6521 74.8601 95.6021C72.9501 95.5621 72.9501 98.4821 74.8601 98.5121C77.9201 98.5721 80.9901 98.6321 84.0501 98.6821C86.9401 98.7321 89.8701 98.9421 92.7601 98.8121C95.0901 98.7021 97.5801 97.8121 98.3701 95.4421C99.1201 93.2421 97.7201 91.2921 95.5901 90.6121Z" fill="#1E1E1E"/>
<path d="M97.8402 60.8522C91.2302 60.8622 84.6202 60.8722 78.0202 60.8922C77.7102 60.0122 77.1102 59.2322 76.3002 58.7122C75.0302 57.9022 73.4702 57.8222 72.0002 57.8022C67.8502 57.7622 63.7002 57.7422 59.5602 57.7122C59.1402 57.7122 58.8102 57.8522 58.5702 58.0722C58.1902 58.2122 57.8702 58.5022 57.7202 58.9822C57.5002 59.6622 57.3202 60.3722 57.2402 61.0722C57.2402 61.0722 57.2402 61.0722 57.2302 61.0722C39.3302 60.9522 21.4202 60.8222 3.52024 60.7022C1.61024 60.6922 1.60024 63.6022 3.52024 63.6122C21.4202 63.7322 39.3302 63.8622 57.2302 63.9822C57.4002 63.9822 57.5402 63.9522 57.6802 63.9122C58.4002 65.2822 59.7702 65.9122 61.3002 66.0722C63.0202 66.2622 64.7902 66.1622 66.5202 66.1822C68.3102 66.2022 70.1102 66.2222 71.9002 66.2422C73.4102 66.2622 75.0202 66.3022 76.3702 65.5422C77.1002 65.1322 77.6402 64.5022 77.9602 63.7722C84.5902 63.7622 91.2202 63.7522 97.8502 63.7322C99.7502 63.7622 99.7602 60.8422 97.8402 60.8522ZM74.9702 62.9922C74.0602 63.6622 72.2602 63.3522 71.2002 63.3422C69.3502 63.3222 67.5002 63.3022 65.6402 63.2822C64.8302 63.2722 64.0202 63.2622 63.2102 63.2522C62.5002 63.2422 61.7102 63.3122 61.0202 63.1122C59.9002 62.7822 60.0402 61.6122 60.3102 60.6322C63.6302 60.6522 66.9402 60.6822 70.2602 60.7022C71.5602 60.7122 73.5202 60.4022 74.6802 61.1522C75.2602 61.5222 75.6102 62.5222 74.9702 62.9922Z" fill="#1E1E1E"/>
</svg>
