<svg width="559" height="248" viewBox="0 0 559 248" fill="none" xmlns="http://www.w3.org/2000/svg">
<path d="M553.759 18.2323C550.262 7.68151 539.935 2.51042 529.117 0.117003C523.995 -1.01383 521.808 6.39697 526.942 7.5278C534.778 9.26248 543.257 12.4134 545.865 20.2744C547.42 24.9843 555.326 22.9752 553.759 18.2323Z" fill="#FBB03B"/>
<path d="M519.2 41.0905C518.65 40.805 518.124 40.4976 517.609 40.1682C517.516 40.0914 517.024 39.7401 517.013 39.7291C516.755 39.5205 516.51 39.3009 516.276 39.0703C516.03 38.8398 515.808 38.6092 515.574 38.3677C515.469 38.2689 515.422 38.214 515.387 38.192C515.375 38.181 515.364 38.1591 515.317 38.1042C514.872 37.5333 514.487 36.9404 514.124 36.3146C513.06 34.4921 510.393 33.9102 508.522 34.9313C506.569 36.0072 505.996 38.3567 507.049 40.1902C508.885 43.3521 511.691 45.9871 515.048 47.7218C516.919 48.6879 519.597 48.2048 520.65 46.3384C521.679 44.5488 521.199 42.1225 519.2 41.0905Z" fill="#FBB03B"/>
<path d="M459.029 44.1207C452.726 42.1445 444.82 41.3101 438.856 44.6257C433.663 47.5132 431.219 52.9587 432.622 58.4043C433.394 61.4345 436.821 61.7419 438.938 60.3476C444.715 60.8197 450.972 60.6989 456.024 63.1253C462.175 66.0786 464.83 74.225 464.596 80.3622C464.503 82.7117 463.731 84.8416 462.561 86.8179C460.059 89.3211 457.182 91.5937 454.691 94.1957C452.504 96.4903 450.481 98.9277 448.387 101.299C447.124 102.715 445.861 104.132 444.516 105.482C443.768 106.24 441.101 107.777 442.329 108.392C440.552 107.513 438.856 107.93 437.698 108.919C436.529 109.413 435.534 110.412 435.137 111.499C433.289 116.417 437.628 120.6 442.785 120.809C449.65 121.083 455.112 114.419 459.427 110.324C470.385 99.9158 482.22 89.4418 482.56 73.7968C482.864 59.9853 472.677 48.3915 459.029 44.1207Z" fill="#FBB03B"/>
<path d="M415.922 141.559C414.764 141.065 413.489 140.977 412.378 141.339C410.601 141.142 408.753 141.932 408.203 144.051C407.735 145.83 407.572 147.641 407.478 149.464C407.396 150.946 407.478 152.571 406.823 153.943C404.671 158.434 410.846 161.936 413.887 157.819C414.132 157.489 414.858 157.27 415.208 157.061C416.074 156.534 416.904 155.952 417.664 155.316C419.138 154.075 420.693 152.593 421.231 150.759C422.225 147.367 419.196 142.964 415.922 141.559Z" fill="#FBB03B"/>
<path d="M371.014 196.289C365.143 194.401 358.524 195.257 353.46 198.639C349.203 201.482 353.296 208.157 357.588 205.27C361.05 202.953 364.804 202.393 368.827 203.689C373.832 205.314 375.984 197.892 371.014 196.289Z" fill="#00A99D"/>
<path d="M302.669 158.554C301.722 157.127 300.599 155.777 299.324 154.591C297.815 153.164 295.032 153.065 293.535 154.591C292.038 156.128 291.921 158.499 293.535 160.026C293.991 160.454 294.412 160.915 294.833 161.376C294.892 161.442 294.939 161.519 294.997 161.585C295.208 161.859 295.406 162.144 295.593 162.441C296.728 164.143 299.301 164.966 301.195 163.824C303.02 162.715 303.885 160.377 302.669 158.554Z" fill="#00A99D"/>
<path d="M425.735 222.265C423.887 218.368 420.741 216.271 416.928 214.756C417.232 206.104 415.338 197.343 405.689 193.753C404.567 193.336 403.409 192.984 402.228 192.732C401.655 192.611 401.222 192.49 400.883 192.414C401.012 191.832 401.105 191.371 401.117 191.327C401.386 190.042 401.573 188.758 401.76 187.462C402.579 181.544 402.24 175.726 401.164 169.863C400.707 167.36 397.246 166.426 395.152 167.568C392.428 169.039 390.521 171.081 388.03 172.75C385.177 174.661 380.698 174.068 377.236 174.155C371.973 174.287 371.961 181.973 377.236 181.841C381.154 181.742 386.545 182.51 390.217 181.017C391.632 180.446 392.849 179.491 394.018 178.459C394.193 182.082 393.948 185.716 393.223 189.285C392.591 192.381 390.732 195.993 393.772 198.474C396.848 200.988 401.76 199.736 405.128 202.251C409.818 205.742 408.999 212.351 408.59 217.358C408.449 219.103 409.97 220.553 411.595 221.069C416.414 222.606 418.636 225.021 419.595 229.764C420.203 232.761 419.408 235.078 415.829 235.945C413.432 236.527 411.584 235.934 410.543 233.76C408.379 229.259 401.327 233.167 403.479 237.636C407.654 246.309 423.068 245.464 427.348 237.076C429.5 232.86 427.606 226.229 425.735 222.265Z" fill="#00A99D"/>
<path d="M275.618 207.63C272.063 204.534 274.367 199.484 272.893 195.586C271.373 191.568 267.046 189.504 265.549 185.398C264.169 181.588 261.69 179.667 259.702 176.231C256.684 171.005 258.357 164.714 263.315 161.134C267.432 158.159 263.362 151.484 259.187 154.503C249.562 161.442 246.826 173.683 254.743 182.917C256.895 185.431 257.386 187.879 258.895 190.668C260.392 193.424 263.304 195.301 264.613 198.079C267.046 203.25 264.766 208.64 269.841 213.065C273.677 216.424 279.489 211.001 275.618 207.63Z" fill="#00A99D"/>
<path d="M341.671 169.742C339.555 170.532 337.613 171.477 336.011 173.036C335.251 173.771 334.561 174.682 334.023 175.561C333.801 175.923 333.602 176.56 333.38 177.142C330.281 175.703 327.673 173.08 325.392 170.818C321.755 167.228 315.978 172.662 319.603 176.252C323.229 179.832 328.117 184.52 333.579 185.398C339.812 186.397 339.356 178.822 343.847 177.153C348.688 175.352 346.583 167.919 341.671 169.742Z" fill="#00A99D"/>
<path d="M340.104 218.434C339.321 221.969 339.064 228.161 335.532 230.269C331.298 232.794 326.106 229.38 322.878 226.865C318.855 223.725 313.031 229.127 317.089 232.3C322.784 236.747 329.965 240.567 337.532 237.899C345.402 235.122 346.502 227.283 347.998 220.476C349.063 215.656 341.169 213.592 340.104 218.434Z" fill="#00A99D"/>
<path d="M123.714 224.077C119.024 224.285 114.451 223.967 109.867 223.023C104.733 221.969 102.534 229.369 107.692 230.434C112.966 231.521 118.311 231.993 123.714 231.762C128.965 231.532 128.988 223.846 123.714 224.077Z" fill="#FBB03B"/>
<path d="M31.2538 231.971C28.2716 232.728 25.3596 232.992 22.2721 232.827C17.0094 232.564 17.0211 240.249 22.2721 240.512C26.0262 240.699 29.7919 240.304 33.429 239.381C38.5163 238.086 36.3528 230.675 31.2538 231.971Z" fill="#FBB03B"/>
<path d="M209.975 223.769C210.022 218.532 204.911 217.83 200.795 216.468C198.198 215.612 196.386 217.303 195.918 219.356C194.959 220.509 194.538 222.134 195.368 223.835C198.35 229.962 199.789 236.428 199.859 243.213C199.964 248.417 208.104 248.439 208.045 243.213C207.975 239.711 208.057 236.198 208.455 232.717C208.782 229.797 209.952 226.701 209.975 223.769Z" fill="#FBB03B"/>
<path d="M128.883 157.808C127.269 157.028 125.76 156.194 124.287 155.502C123.889 154.58 123.035 153.833 121.597 153.614C115.621 152.703 108.814 153.317 105.399 158.741C102.616 163.166 104.195 168.798 108.136 172.091C113.481 176.56 119.854 174.869 126.251 174.77C132.333 174.672 137.958 171.597 138.695 165.317C139.432 159.103 133.151 159.85 128.883 157.808Z" fill="#FBB03B"/>
<path d="M48.1412 162.309C47.4278 155.843 40.9021 152.099 34.5167 151.638C28.0143 151.177 20.1436 152.637 15.5242 157.259C11.2321 161.563 10.9281 168.479 16.9159 171.488C21.8277 173.947 29.1955 174.09 34.7272 172.048C35.2885 172.421 35.9785 172.684 36.8089 172.75C43.241 173.277 48.8312 168.479 48.1412 162.309Z" fill="#FBB03B"/>
<path d="M217.214 158.994C215.156 155.733 211.507 155.008 208.115 155.876C206.759 155.381 205.414 155.206 204.034 155.228C203.321 153.592 201.999 152.395 199.847 152.176C197.192 151.901 193.029 153.724 191.251 155.557C190.713 156.117 190.281 156.754 189.977 157.435C186.211 158.456 182.562 160.344 180.995 163.704C179.159 167.678 181.533 171.707 185.954 172.531C189.567 173.211 193.134 171.312 196.713 172.015C200.116 172.684 203.133 175.133 206.443 176.252C209.928 177.427 212.244 173.738 211.226 171.005C211.881 170.829 212.536 170.642 213.179 170.412C214.875 169.764 216.243 169.028 217.319 167.601C219.155 165.153 218.84 161.574 217.214 158.994Z" fill="#FBB03B"/>
<path d="M238.78 159.554C237.084 148.948 229.576 139.682 219.156 135.301C214.384 133.292 210.221 139.912 215.027 141.932C223.775 145.621 229.47 152.692 230.897 161.596C231.669 166.47 239.563 164.395 238.78 159.554Z" fill="#00A99D"/>
<path d="M185.557 193.874C183.054 189.515 175.978 193.402 178.493 197.749C180.329 200.944 181.58 204.413 182.013 208.037C182.259 210.101 183.72 211.879 186.106 211.879C188.129 211.879 190.445 210.112 190.199 208.037C189.591 203.019 188.118 198.342 185.557 193.874Z" fill="#00A99D"/>
<path d="M152.565 169.149C151.899 164.307 143.712 164.252 144.379 169.149C145.42 176.736 141.046 182.73 136.988 188.9C133.467 194.247 130.801 199.451 130.006 205.742C129.386 210.639 137.572 210.595 138.192 205.742C139.911 192.293 154.553 183.696 152.565 169.149Z" fill="#00A99D"/>
<path d="M107.224 138.199C107.224 136.333 105.341 134.082 103.131 134.357C100.277 134.708 98.5582 135.982 96.3712 137.65C94.3597 139.198 92.4067 140.812 90.5004 142.481C86.6411 145.874 92.4418 151.297 96.2894 147.916C97.646 146.719 99.026 145.555 100.441 144.424C101.096 143.897 101.774 143.381 102.441 142.865C102.768 142.624 104.347 141.888 103.119 142.042C105.318 141.768 107.224 140.461 107.224 138.199Z" fill="#00A99D"/>
<path d="M68.6777 155.019C67.2626 150.507 65.3798 146.115 61.9648 142.602C58.3394 138.869 52.9013 135.982 48.0479 133.907C43.2881 131.876 39.1247 138.496 43.9196 140.538C47.8257 142.207 52.1411 144.392 55.2871 147.18C58.2693 149.815 59.6493 153.46 60.7837 157.061C62.2806 161.804 70.1747 159.784 68.6777 155.019Z" fill="#00A99D"/>
<path d="M16.4479 192.6C14.0153 188.209 6.95161 192.095 9.38414 196.476C10.9045 199.209 11.7933 202.174 12.0155 205.248C12.3546 210.156 20.5411 210.199 20.2019 205.248C19.8862 200.768 18.6582 196.586 16.4479 192.6Z" fill="#00A99D"/>
<path d="M427.535 222.562C425.442 218.708 421.641 217.215 417.454 216.457C418.05 213.932 417.805 211.319 417.244 208.794C416.624 206.016 415.899 202.931 414.238 200.516C411.326 196.267 406.157 194.554 401.011 194.269C403.561 185.003 403.525 175.22 400.941 165.954C400.496 164.362 398.368 164.538 397.701 165.647C397.351 165.614 397.011 165.68 396.719 165.877C393.292 168.161 390.053 170.686 387.094 173.486C386.767 173.793 386.439 174.112 386.123 174.419C385.936 174.595 385.761 174.781 385.574 174.968C385.539 175.001 385.515 175.023 385.48 175.045C384.498 175.155 383.328 174.924 382.358 174.902C380.182 174.869 378.019 174.957 375.844 175.122C375.832 175.111 375.832 175.1 375.82 175.089C372.604 171.993 369.248 168.798 364.991 166.975C360.734 165.153 355.705 164.351 351.05 164.428C344.022 164.538 336.397 167.755 333.473 173.87C332.689 173.431 331.789 173.145 330.935 172.794C329.193 172.091 328.304 170.708 327.532 169.138C326.678 167.392 326.047 165.559 324.971 163.901C323.883 162.232 322.503 160.706 320.901 159.466C319.275 158.192 317.498 157.182 315.533 156.435C314.598 156.084 313.627 155.908 312.68 155.59C312.13 155.414 312.118 155.327 312.107 154.778C312.095 154.141 312.118 153.515 312.118 152.878C312.083 148.344 311.417 143.645 308.809 139.725C306.236 135.872 302.236 133.028 297.617 131.7C297.348 131.623 297.102 131.601 296.88 131.634C291.804 126.847 285.08 121.5 277.373 123.762C271.256 125.552 267.198 131.524 267.385 137.442C263.198 137.431 258.953 139.078 256.369 142.229C253.62 145.566 253.071 150.617 255.55 154.218C250.229 157.325 248.299 163.495 248.054 169.16C247.796 175.198 249.048 182.335 255.807 184.739C256.334 189.779 258.754 194.598 262.801 197.991C263.245 198.353 263.877 198.704 264.216 199.155C264.672 199.758 264.38 200.34 264.134 200.999C263.619 202.349 263.245 203.678 263.175 205.116C263.046 207.422 263.643 209.727 264.824 211.747C260.099 215.656 258.088 222.013 259.702 227.788C261.514 234.298 268.017 238.393 275.022 238.569C279.022 238.668 282.846 237.449 285.933 235.067C285.98 235.034 286.015 234.99 286.062 234.946C290.331 239.436 295.944 243.158 302.528 243.246C308.364 243.323 314.574 240.172 316.714 234.979C323.989 238.569 332.631 241.83 340.408 237.713C346.77 234.353 348.349 227.436 348.887 221.025C354.278 224.209 360.126 227.052 366.581 227.272C369.411 227.371 372.277 226.931 374.873 225.943C375.048 233.475 377.142 241.577 384.381 245.815C387.632 247.715 391.667 248.56 395.409 247.605C399.14 246.65 402.005 244.113 404.59 241.511C405.736 242.73 407.092 243.74 408.812 244.333C413.057 245.804 418.764 245.288 422.799 243.499C426.787 241.742 429.243 238.338 429.722 234.254C430.143 230.489 429.406 226.009 427.535 222.562ZM425.138 237.361C422.752 241.215 417.489 241.994 413.162 241.786C410.811 241.676 408.788 241.094 407.174 239.414C405.806 237.987 404.905 236.176 404.017 234.463C403.034 232.553 400.005 234.221 400.988 236.121C401.455 237.021 401.947 237.932 402.485 238.811C400.274 241.083 397.853 243.521 394.637 244.41C391.573 245.255 388.369 244.41 385.773 242.796C379.691 239.019 378.381 231.608 378.335 225.274C378.335 224.911 378.218 224.615 378.054 224.384C379.75 223.308 381.247 221.936 382.393 220.256C383.609 218.467 380.58 216.809 379.364 218.598C376.475 222.825 370.827 224.351 365.728 223.967C359.272 223.484 353.448 219.982 348.174 216.732C347.004 216.007 345.589 216.973 345.53 218.159C345.238 224.022 344.724 231.652 338.595 234.902C331.356 238.745 322.889 234.474 316.469 231.18C315.556 230.708 314.095 231.081 313.896 232.168C312.925 237.263 307.323 240.194 302.107 239.985C295.827 239.733 290.471 235.297 286.857 230.829C285.512 229.16 282.46 230.796 283.828 232.487C283.84 232.498 283.852 232.509 283.863 232.531C283.711 232.596 283.559 232.673 283.419 232.783C278.086 236.9 268.987 235.934 264.894 230.653C260.871 225.46 262.368 217.237 267.982 213.581C268.707 213.109 269.186 212.099 268.613 211.33C267.034 209.222 266.286 206.642 266.801 204.084C267.081 202.723 267.865 201.471 267.97 200.077C268.075 198.77 267.537 197.639 266.543 196.739C264.59 194.972 262.754 193.446 261.421 191.173C260.088 188.9 259.339 186.375 259.187 183.784C259.14 182.851 258.427 182.335 257.655 182.225C257.468 181.994 257.199 181.797 256.848 181.676C251.492 179.832 251.316 173.167 251.562 168.732C251.843 163.857 253.585 158.653 258.614 156.435C259.667 155.974 259.702 154.986 259.199 154.273C259.281 153.899 259.234 153.515 258.977 153.208C256.825 150.595 256.942 146.796 259.164 144.194C261.538 141.405 265.526 140.461 269.163 140.9C270.098 141.01 270.917 140.066 270.917 139.253C270.917 138.979 270.847 138.737 270.742 138.529C270.835 138.32 270.882 138.09 270.87 137.815C270.601 133.16 273.654 128.176 278.624 126.902C285.173 125.222 290.845 130.646 294.962 134.587C295.511 135.114 296.166 135.169 296.728 134.961C300.587 136.091 303.908 138.529 305.967 141.8C308.434 145.709 308.54 150.232 308.563 154.635C308.575 156.776 309.452 158.214 311.709 158.818C313.674 159.345 315.451 159.938 317.182 161.014C320.655 163.166 322.386 166.273 323.965 169.764C324.784 171.575 325.731 173.409 327.38 174.671C328.164 175.275 329.029 175.66 329.953 176.011C330.783 176.318 331.742 176.494 332.128 177.328C332.187 177.449 332.245 177.559 332.315 177.647C332.327 179.513 335.403 180.238 335.718 178.24C336.876 170.862 344.899 167.623 352.068 167.766C356.068 167.843 360.488 168.534 364.079 170.269C367.669 172.015 370.511 174.77 373.306 177.46C373.587 177.735 373.902 177.877 374.206 177.932C374.534 178.284 374.99 178.525 375.493 178.481C377.832 178.284 380.182 178.196 382.533 178.24C383.632 178.262 384.779 178.426 385.878 178.349C387.001 178.273 387.691 177.647 388.427 176.922C391.363 174.013 394.591 171.378 398.052 169.028C400.04 177.592 399.748 186.485 397.163 194.928C396.438 195.905 396.883 197.607 398.52 197.552C403.233 197.42 408.753 198.364 411.384 202.492C412.671 204.512 413.22 207.037 413.758 209.31C414.343 211.813 414.589 214.349 413.712 216.809C413.642 217.006 413.618 217.182 413.618 217.358C413.618 217.358 413.618 217.358 413.618 217.369C413.384 218.148 413.911 219.268 414.846 219.4C417.021 219.707 419.337 219.971 421.29 220.992C423.079 221.925 424.249 223.484 424.974 225.252C425.711 227.085 426.061 229.061 426.225 231.005C426.389 233.145 426.33 235.44 425.138 237.361Z" fill="#1E1E1E"/>
<path d="M388.369 203.063C385.305 202.086 381.633 201.877 378.639 203.14C378.253 203.305 377.902 203.491 377.551 203.689C374.744 199.912 370.78 196.827 365.775 196.223C363.131 195.905 360.371 196.3 358.056 197.596C355.588 198.979 353.846 201.153 352.208 203.316C350.899 205.05 353.939 206.697 355.237 204.973C356.477 203.327 357.81 201.614 359.658 200.527C361.436 199.484 363.599 199.177 365.669 199.506C369.669 200.143 372.721 202.811 374.897 205.885C373.891 206.983 373.049 208.223 372.253 209.442C371.061 211.253 374.101 212.9 375.282 211.1C376.51 209.233 377.855 207.081 380.066 206.115C382.311 205.138 385.165 205.511 387.422 206.225C392.135 207.729 395.515 211.868 395.971 216.512C396.181 218.609 399.69 218.62 399.479 216.512C398.883 210.353 394.673 205.072 388.369 203.063Z" fill="#1E1E1E"/>
<path d="M364.886 181.951C363.096 179.129 359.962 177.01 356.465 176.527C352.688 176 348.864 177.142 346.115 179.645C344.49 181.127 346.981 183.455 348.595 181.973C350.466 180.271 353.167 179.37 355.764 179.733C358.301 180.095 360.547 181.555 361.845 183.608C363.014 185.431 366.043 183.784 364.886 181.951Z" fill="#1E1E1E"/>
<path d="M322.479 219.674C321.485 217.907 320.947 215.941 319.871 214.218C318.667 212.285 316.807 210.913 314.691 209.925C312.504 208.904 310.235 207.993 307.814 208.915C307.253 209.123 306.75 209.398 306.294 209.716C303.499 207.455 299.534 206.521 295.955 207.521C292.318 208.531 289.441 211.363 288.436 214.778C287.839 216.82 291.219 217.698 291.815 215.656C292.494 213.35 294.423 211.385 296.891 210.693C299.312 210.013 301.978 210.595 303.896 212.11C303.534 212.582 303.195 213.076 302.867 213.57C301.674 215.382 304.715 217.028 305.896 215.228C306.715 213.987 307.639 212.428 309.206 211.912C310.726 211.407 312.632 212.56 313.895 213.241C315.427 214.075 316.492 215.14 317.275 216.633C318.082 218.17 318.597 219.817 319.45 221.332C320.503 223.22 323.532 221.552 322.479 219.674Z" fill="#1E1E1E"/>
<path d="M282.367 186.737C281.431 186.342 280.554 185.848 279.724 185.277C279.701 185.266 279.689 185.244 279.654 185.233C279.56 185.167 279.467 185.091 279.385 185.025C279.186 184.871 278.999 184.706 278.812 184.531C278.438 184.19 278.087 183.839 277.748 183.466C277.677 183.378 277.596 183.29 277.525 183.213C277.514 183.202 277.514 183.191 277.502 183.18C277.49 183.158 277.479 183.147 277.455 183.125C277.315 182.95 277.186 182.763 277.046 182.576C276.765 182.17 276.496 181.753 276.262 181.314C276.157 181.116 276.063 180.919 275.958 180.721C275.947 180.699 275.947 180.688 275.935 180.677C275.923 180.666 275.923 180.655 275.911 180.633C275.865 180.512 275.806 180.392 275.759 180.26C275.584 179.799 275.432 179.338 275.315 178.865C275.104 178.031 274.04 177.449 273.151 177.713C272.228 177.998 271.701 178.844 271.923 179.744C273.011 184.015 276.297 187.802 280.566 189.592C281.396 189.943 282.496 189.844 282.963 188.999C283.396 188.274 283.256 187.111 282.367 186.737Z" fill="#1E1E1E"/>
<path d="M301.406 161.76C299.768 157.951 296.599 154.306 292.038 153.647C288.611 153.153 285.115 154.459 283.208 157.083C278.413 155.447 273.034 157.874 271.49 162.66C270.835 164.692 274.215 165.559 274.87 163.539C275.946 160.201 279.91 158.862 283.056 160.64C284.085 161.222 285.255 160.629 285.629 159.652C286.483 157.435 289.453 156.457 291.769 156.94C294.751 157.566 296.926 160.091 298.014 162.639C298.377 163.473 299.184 164.033 300.178 163.791C301.02 163.583 301.756 162.584 301.406 161.76Z" fill="#1E1E1E"/>
<path d="M292.495 136.498C291.559 135.411 290.588 134.379 289.36 133.577C288.015 132.699 286.355 132.326 284.729 132.381C283.115 132.435 281.431 132.732 279.923 133.281C278.355 133.852 276.753 134.686 276.297 136.322C275.736 138.375 279.116 139.253 279.677 137.2C279.689 137.145 279.7 137.123 279.7 137.101C279.724 137.08 279.735 137.069 279.782 137.025C279.958 136.937 279.969 136.882 280.227 136.75C280.706 136.498 281.221 136.322 281.747 136.179C282.87 135.872 284.039 135.652 285.209 135.674C287.384 135.718 288.67 137.277 290.004 138.825C290.6 139.517 291.863 139.407 292.483 138.825C293.22 138.144 293.091 137.189 292.495 136.498Z" fill="#1E1E1E"/>
<path d="M556.565 36.3256C555.594 35.1619 554.483 34.1298 553.302 33.1527C554.542 29.0685 554.565 24.655 553.302 20.5598C551.758 15.5315 548.308 11.4693 543.935 8.3183C534.111 1.21491 519.89 -1.47494 509.645 6.44089C507.903 7.79131 510.394 10.1079 512.124 8.76843C519.89 2.76294 530.871 4.35489 538.871 9.00997C542.917 11.3595 546.589 14.4555 548.718 18.5068C550.706 22.2835 551.209 26.7739 550.285 30.891C545.782 27.7291 540.929 25.0173 536.017 22.4702C530.181 19.451 524.252 16.5964 518.288 13.8078C517.715 13.5443 517.13 13.2588 516.557 12.9844C517.715 11.7767 516.112 9.54794 514.323 10.4921C513.844 10.7446 513.388 11.0301 512.955 11.3375C510.955 10.4702 508.908 9.61381 506.733 9.21857C505.248 8.9441 503.704 8.91116 502.207 9.13074C500.582 9.3613 498.453 9.83339 497.611 11.3156C497.284 11.8865 497.202 12.5672 497.284 13.2259C497.471 14.8618 498.547 16.311 499.646 17.5406C500.862 18.924 502.301 20.1317 503.716 21.3284C504.535 22.02 505.388 22.6898 506.23 23.3485C505.692 27.3668 506.16 31.5827 507.248 35.1289C508.674 39.773 511.493 43.978 515.715 46.7996C519.574 49.3796 524.463 50.5763 529.164 50.4995C535.959 50.4007 542.344 47.6449 546.987 43.1985C550.998 44.6916 557.664 46.7996 558.869 42.2652C559.465 40.0914 557.91 37.9505 556.565 36.3256ZM507.002 19.7694C505.225 18.3421 503.54 16.805 502.102 15.1472C501.669 14.6532 501.19 14.0713 500.909 13.4894C500.78 13.2259 500.722 12.9185 500.816 12.644C500.897 12.3695 501.12 12.139 501.389 11.9962C501.856 11.7437 502.441 11.7437 502.967 11.7876C504.956 11.9304 506.92 12.3476 508.768 13.0502C509.084 13.171 509.914 13.3576 510.113 13.6102C510.277 13.8188 510.066 13.9725 509.891 14.214C509.575 14.6532 509.236 15.0923 508.943 15.5534C508.663 15.9926 508.406 16.4427 508.16 16.9148C507.914 17.3869 507.704 17.859 507.505 18.3421C507.447 18.4848 506.909 19.6925 507.002 19.7694ZM532.474 46.9423C523.948 48.3476 515.481 44.7136 511.797 37.2588C510.242 34.0969 509.294 29.848 509.458 25.7199C515.925 30.1884 523.094 33.7456 530.415 36.8307C534.707 38.6312 539.058 40.2781 543.432 41.892C540.368 44.4501 536.579 46.2616 532.474 46.9423ZM546.005 39.3448C542.882 38.225 539.795 37.0173 536.731 35.8096C528.568 32.6038 520.51 28.9697 513.224 24.2158C512.136 23.5022 511.037 22.7666 509.949 21.9871C510.534 19.407 511.668 17.0466 513.504 15.246C513.832 15.3997 514.148 15.5425 514.463 15.6852C519.106 17.8151 523.702 20.0658 528.287 22.3165C532.602 24.4354 536.894 26.6202 541.046 29.0136C543.806 30.6056 546.648 32.2744 549.232 34.1957C548.425 36.0621 547.338 37.7968 546.005 39.3448ZM555.454 41.5406C555.056 42.0457 553.291 41.5297 552.776 41.4308C551.642 41.2003 550.531 40.8819 549.431 40.5196C550.414 39.257 551.267 37.9066 551.981 36.4683C552.144 36.6221 552.332 36.7758 552.495 36.9295C553.232 37.6541 553.934 38.4116 554.518 39.246C554.811 39.6632 555.863 41.0136 555.454 41.5406Z" fill="#1E1E1E"/>
<path d="M420.296 146.917C419.431 146.697 418.273 147.191 418.098 148.069C417.501 151.133 413.876 152.143 411.104 153.01C409.256 153.592 407.549 154.306 405.935 155.173C406.344 153.295 406.508 151.352 406.543 149.42C406.59 146.675 406.145 141.866 409.841 140.834C412.04 140.22 411.104 137.036 408.894 137.661C404.531 138.88 403.128 143.063 402.999 146.851C402.859 150.847 403.046 154.876 400.976 158.532C400.006 160.256 402.228 161.694 403.783 160.531C405.373 159.323 407.046 158.203 408.894 157.347C410.601 156.545 412.449 156.117 414.238 155.491C417.501 154.349 420.881 152.373 421.548 148.948C421.723 148.069 421.29 147.169 420.296 146.917Z" fill="#1E1E1E"/>
<path d="M410.262 142.942C409.268 142.986 408.554 143.667 408.508 144.589C408.461 145.566 408.402 146.543 408.274 147.521C408.239 147.707 408.215 147.905 408.18 148.091C408.098 148.531 408.11 148.959 408.356 149.365C408.566 149.705 408.987 150.035 409.408 150.123C409.852 150.221 410.355 150.199 410.765 149.958C411.127 149.738 411.49 149.387 411.572 148.97C411.852 147.521 411.958 146.06 412.028 144.589C412.063 143.722 411.174 142.898 410.262 142.942Z" fill="#1E1E1E"/>
<path d="M44.3288 230.917C43.5686 229.588 41.4285 228.962 40.0017 228.567C39.4053 228.403 38.8088 228.282 38.2007 228.172C38.7971 228.073 39.4053 227.963 39.99 227.821C41.3232 227.48 42.6564 226.866 43.2646 225.614C43.9078 224.285 43.44 222.781 42.3758 221.793C42.2705 221.694 42.1536 221.607 42.0483 221.519C42.75 221.42 43.4283 221.288 44.0715 221.08C46.738 220.234 48.5156 217.138 46.2351 214.986C45.1475 213.954 43.5102 213.746 42.0483 213.504C40.3175 213.23 38.5632 213.054 36.809 212.988C33.3356 212.856 29.7336 213.043 26.3304 213.779C25.3012 213.998 24.237 214.317 23.2312 214.723C20.3075 213.537 18.7521 211.056 18.296 207.949C17.758 204.26 17.185 200.769 15.8518 197.244C13.3023 190.525 9.06872 184.498 4.88195 178.602C4.87026 178.437 4.83517 178.262 4.75331 178.075C1.50213 170.423 4.98721 161.475 8.91669 154.635C12.9163 147.652 19.3134 142.064 27.3011 139.341C34.9261 136.739 43.6154 137.431 50.5856 141.383C54.1174 143.381 57.1932 146.137 59.2164 149.541C61.4034 153.219 63.1108 157.577 63.4149 161.804C64.175 172.179 56.4213 181.083 52.5503 190.317C52.4334 190.459 52.3398 190.613 52.2696 190.811C50.7376 195.037 49.2056 199.264 47.6736 203.48C47.0771 205.105 46.5625 206.994 44.668 207.652C43.2412 208.146 41.6273 208.004 40.1537 207.795C36.3997 207.257 31.6749 206.082 29.8038 202.624C28.5758 200.373 29.219 197.365 30.3066 194.862C32.3416 195.916 34.7624 196.553 36.809 196.278C39.8029 195.872 41.8612 193.017 41.1361 190.251C40.411 187.495 37.2417 186.254 34.4583 186.617C32.2597 186.902 30.5873 188.154 29.336 189.746C27.3712 186.99 27.0204 183.246 26.3304 180.084C25.7106 177.219 25.079 174.353 24.4241 171.499C26.1199 170.829 27.6753 169.841 29.0787 168.699C30.2833 169.522 31.6282 170.159 32.9965 170.587C34.2712 170.983 35.6161 171.191 36.9493 171.224C37.0078 171.345 37.0546 171.466 37.1248 171.575C38.0487 173.222 39.3234 174.737 39.6742 176.615C40.0602 178.701 43.5219 178.13 43.1242 176.044C42.7617 174.09 41.5571 172.487 40.5864 170.807C42.0366 170.39 43.3815 169.654 44.5042 168.556C47.1356 165.987 48.0244 160.553 43.5453 159.136C39.1012 157.731 36.0605 162.276 35.7565 165.822C35.698 166.514 35.7448 167.195 35.85 167.865C34.4116 167.656 32.9029 167.162 31.6048 166.382C34.0841 163.923 37.1131 160.629 35.546 157.116C34.0724 153.79 29.7921 153.746 27.2426 155.996C24.7983 158.148 24.1551 161.629 25.4065 164.494C25.6989 165.175 26.0965 165.801 26.5643 166.393C25.6989 167.063 24.7165 167.722 23.6639 168.227C23.5587 167.788 23.4651 167.349 23.3599 166.92C22.6465 163.967 20.8806 160.41 16.9628 161.091C13.5011 161.683 11.6299 165.252 12.9397 168.227C14.2729 171.257 17.7112 172.596 21.0209 172.311C21.1378 172.805 21.2548 173.31 21.3601 173.804C22.2021 177.537 22.9506 181.281 23.816 185.003C24.4592 187.78 25.3714 190.712 27.4765 192.842C26.2485 195.477 25.3363 198.518 25.7573 201.372C26.2719 204.951 29.1839 207.63 32.5287 209.134C35.8032 210.606 40.0251 211.528 43.6739 211.199C45.2644 211.056 46.89 210.518 48.0946 209.519C49.6383 208.234 50.3049 206.412 50.9598 204.622C52.4217 200.615 53.8718 196.607 55.322 192.6C55.3922 192.49 55.4624 192.381 55.5091 192.249C59.2632 182.719 66.7479 174.112 66.9467 163.572C67.0403 158.829 65.4615 154.108 63.3096 149.859C61.3332 145.929 58.3744 142.558 54.6437 139.989C47.2642 134.928 37.5458 133.259 28.7395 135.51C20.0853 137.716 12.4953 143.107 7.66534 150.177C2.04009 158.423 -2.52091 169.863 1.5723 179.48C1.58399 179.502 1.59569 179.524 1.60738 179.546C1.63077 179.81 1.72433 180.084 1.91145 180.348C6.35551 186.617 10.9633 193.072 13.2672 200.362C13.8285 202.141 14.2496 203.963 14.5068 205.808C14.7641 207.707 14.8928 209.618 15.536 211.451C16.3079 213.658 17.8984 215.535 19.9216 216.82C19.4187 217.314 18.9743 217.863 18.6351 218.5C17.337 220.959 18.3194 223.704 20.4128 225.438C20.0502 226.404 19.9216 227.458 20.0619 228.556C20.1906 229.555 20.5297 230.467 21.0209 231.301C20.4946 231.718 20.0268 232.179 19.6526 232.728C17.9685 235.21 19.0562 239.239 22.5529 239.382C23.8277 240.007 25.1258 240.304 26.5643 240.359C27.8156 240.403 29.1138 240.315 30.3534 240.589C30.868 240.699 31.4644 240.908 31.9907 241.094C32.3065 241.204 32.6105 241.325 32.9146 241.446C32.938 241.457 32.9848 241.478 33.0199 241.489C33.0316 241.5 33.0316 241.5 33.0432 241.5L33.0549 241.511C33.0666 241.555 33.0783 241.61 33.0783 241.621C33.09 241.72 33.1017 241.819 33.1134 241.918C33.1134 241.94 33.1134 241.94 33.1134 241.94C33.1134 241.962 33.1134 241.973 33.1134 242.027C33.1134 242.587 33.1134 243.147 33.207 243.696C33.359 244.575 34.318 245.178 35.2419 245.036C36.1892 244.882 36.809 244.004 36.6687 243.125C36.6453 242.994 36.6336 242.873 36.6219 242.741C36.6219 242.73 36.6219 242.719 36.6219 242.719C36.6219 242.697 36.6219 242.664 36.6219 242.62C36.6219 242.335 36.6102 242.06 36.5985 241.775C36.5634 241.16 36.4815 240.578 36.1892 240.018C35.4875 238.679 33.8385 238.174 32.4351 237.724C31.0317 237.285 29.6283 237.109 28.1548 237.076C27.4765 237.065 26.7982 237.065 26.1199 237.01C25.5351 236.955 24.9855 236.878 24.5995 236.681C24.5528 236.659 24.506 236.648 24.4592 236.637C24.2136 236.296 23.7926 236.077 23.1962 236.099C22.3775 236.121 22.1202 235.539 22.4243 234.825C22.588 234.43 22.8921 234.112 23.2429 233.859C23.9563 234.452 24.7516 234.968 25.6053 235.385C30.7978 237.965 38.189 237.812 43.0307 234.496C44.1768 233.683 45.1007 232.267 44.3288 230.917ZM40.259 163.209C41.1595 162.068 43.0775 161.694 43.2295 163.517C43.4166 165.768 41.4636 167.085 39.3117 167.634C39.0661 166.163 39.3117 164.417 40.259 163.209ZM31.8153 157.731C33.2771 158.456 32.0609 160.596 31.441 161.42C30.751 162.342 29.9558 163.231 29.1138 164.077C28.9033 163.769 28.7278 163.44 28.5875 163.089C28.1548 162.024 28.1665 160.871 28.6109 159.817C28.9968 158.895 30.4821 157.061 31.8153 157.731ZM18.2843 168.809C17.1616 168.403 16.0038 167.403 15.9687 166.196C15.9336 165.252 16.9394 164.077 18.0504 164.296C19.4655 164.582 19.7695 166.953 20.0151 167.996C20.097 168.37 20.1789 168.743 20.2724 169.116C19.6058 169.127 18.9392 169.039 18.2843 168.809ZM35.0665 189.833C36.3061 189.713 38.0837 190.24 37.7329 191.733C37.3937 193.193 35.7799 193.105 34.5519 192.798C33.6397 192.567 32.7509 192.282 31.9322 191.887C32.6924 190.865 33.7099 189.976 35.0665 189.833ZM37.0078 225.01C34.8209 225.317 32.6222 225.372 30.4236 225.164C28.915 225.021 27.3244 224.801 25.8275 224.373C27.3712 223.627 29.1956 223.418 30.9031 223.275C33.1602 223.1 35.4407 223.177 37.6861 223.495C38.1305 223.561 40.1187 223.78 40.0251 224.285C39.9198 224.736 37.3587 224.955 37.0078 225.01ZM34.1309 216.249C36.7622 216.205 39.4053 216.403 42.0015 216.831C42.598 216.93 44.1885 216.984 43.4868 217.698C42.8786 218.324 41.101 218.247 40.2707 218.28C36.271 218.467 32.2948 217.907 28.5173 216.732C30.3651 216.446 32.2597 216.282 34.1309 216.249ZM23.7458 221.672C23.2429 221.947 22.7985 222.276 22.3892 222.628C21.5823 221.815 21.1846 220.75 21.9214 219.652C22.2956 219.103 22.8102 218.664 23.4067 218.302C23.5353 218.412 23.6873 218.5 23.8628 218.576C25.3948 219.224 26.9619 219.762 28.5641 220.212C26.88 220.454 25.2194 220.871 23.7458 221.672ZM24.0499 229.676C23.968 229.511 23.8745 229.358 23.8043 229.182C23.5353 228.49 23.4534 227.799 23.547 227.14C25.3714 227.81 27.3829 228.15 29.2658 228.359C29.2541 228.37 29.2307 228.37 29.2073 228.37C27.6402 228.677 25.769 229.05 24.0499 229.676ZM39.7912 232.432C36.2476 234.079 32.0024 234.32 28.3185 232.948C27.839 232.772 27.3595 232.553 26.8917 232.311C28.2483 231.916 29.6517 231.608 31.0317 231.4C33.1368 231.081 35.2653 231.005 37.3704 231.345C38.3527 231.499 39.3234 231.784 40.2473 232.146C40.0485 232.278 39.8731 232.399 39.7912 232.432Z" fill="#1E1E1E"/>
<path d="M107.411 234.485C112.252 237.801 119.632 237.954 124.836 235.374C125.678 234.957 126.473 234.43 127.199 233.848C127.549 234.112 127.842 234.419 128.017 234.814C128.321 235.528 128.064 236.11 127.245 236.088C126.637 236.066 126.228 236.296 125.982 236.626C125.935 236.648 125.889 236.648 125.842 236.67C125.456 236.867 124.906 236.944 124.322 236.999C123.643 237.054 122.965 237.054 122.287 237.065C120.813 237.087 119.41 237.263 118.006 237.713C116.603 238.152 114.954 238.668 114.252 240.007C113.96 240.567 113.878 241.16 113.843 241.764C113.831 242.049 113.82 242.324 113.82 242.609C113.82 242.653 113.82 242.675 113.82 242.708C113.82 242.719 113.82 242.719 113.82 242.73C113.808 242.862 113.796 242.983 113.773 243.114C113.621 243.993 114.241 244.86 115.2 245.025C116.123 245.178 117.082 244.564 117.234 243.685C117.328 243.136 117.34 242.565 117.328 242.016C117.328 241.962 117.328 241.951 117.328 241.929C117.328 241.918 117.328 241.929 117.328 241.907C117.34 241.808 117.351 241.709 117.363 241.61C117.363 241.599 117.375 241.544 117.387 241.5L117.398 241.489C117.41 241.489 117.41 241.478 117.422 241.478C117.457 241.457 117.503 241.446 117.527 241.435C117.831 241.314 118.147 241.193 118.451 241.083C118.977 240.897 119.562 240.688 120.088 240.578C121.316 240.304 122.614 240.403 123.877 240.348C125.316 240.293 126.614 240.007 127.889 239.371C131.385 239.228 132.473 235.199 130.789 232.717C130.426 232.179 129.959 231.707 129.421 231.29C129.9 230.445 130.251 229.533 130.38 228.545C130.52 227.447 130.391 226.393 130.029 225.427C132.122 223.682 133.104 220.948 131.806 218.489C131.467 217.852 131.023 217.303 130.52 216.809C132.543 215.524 134.134 213.647 134.905 211.44C135.549 209.607 135.666 207.707 135.935 205.797C136.192 203.952 136.601 202.13 137.174 200.351C139.478 193.061 144.086 186.606 148.53 180.337C148.717 180.073 148.811 179.799 148.834 179.535C148.846 179.513 148.857 179.491 148.869 179.469C152.962 169.841 148.401 158.412 142.776 150.166C137.946 143.096 130.356 137.705 121.702 135.499C112.896 133.248 103.166 134.917 95.7978 139.978C92.0671 142.536 89.1083 145.918 87.1319 149.848C84.9917 154.108 83.4129 158.818 83.4947 163.561C83.6936 174.112 91.1783 182.708 94.9323 192.238C94.9791 192.37 95.0493 192.49 95.1195 192.589C96.5696 196.596 98.0315 200.604 99.4817 204.611C100.125 206.39 100.803 208.212 102.347 209.508C103.551 210.518 105.177 211.045 106.768 211.188C110.416 211.517 114.638 210.595 117.913 209.123C121.258 207.619 124.17 204.951 124.684 201.361C125.093 198.507 124.181 195.466 122.965 192.831C125.07 190.701 125.982 187.769 126.625 184.992C127.491 181.27 128.239 177.515 129.081 173.793C129.198 173.299 129.315 172.794 129.421 172.3C132.73 172.575 136.169 171.235 137.502 168.216C138.812 165.23 136.94 161.672 133.479 161.08C129.561 160.399 127.795 163.956 127.082 166.909C126.976 167.349 126.883 167.788 126.778 168.216C125.725 167.711 124.743 167.052 123.877 166.382C124.345 165.79 124.743 165.164 125.035 164.483C126.275 161.618 125.631 158.137 123.199 155.985C120.649 153.735 116.369 153.79 114.896 157.105C113.328 160.629 116.357 163.912 118.837 166.371C117.539 167.151 116.03 167.645 114.591 167.854C114.685 167.184 114.743 166.503 114.685 165.811C114.381 162.265 111.352 157.72 106.896 159.125C102.417 160.542 103.306 165.976 105.937 168.545C107.06 169.643 108.405 170.368 109.855 170.796C108.884 172.487 107.68 174.09 107.317 176.033C106.931 178.13 110.381 178.701 110.767 176.604C111.118 174.726 112.393 173.211 113.317 171.564C113.387 171.455 113.422 171.323 113.492 171.213C114.825 171.18 116.17 170.972 117.445 170.576C118.813 170.159 120.158 169.511 121.363 168.688C122.766 169.83 124.322 170.818 126.017 171.488C125.362 174.342 124.731 177.208 124.111 180.073C123.421 183.235 123.07 186.979 121.105 189.735C119.842 188.143 118.182 186.891 115.983 186.606C113.2 186.243 110.03 187.484 109.305 190.24C108.58 193.017 110.639 195.861 113.632 196.267C115.679 196.542 118.1 195.905 120.135 194.851C121.222 197.354 121.866 200.362 120.638 202.613C118.767 206.071 114.042 207.246 110.288 207.784C108.814 207.993 107.2 208.135 105.774 207.641C103.879 206.983 103.364 205.105 102.768 203.469C101.236 199.242 99.7039 195.026 98.1718 190.8C98.1017 190.602 97.9964 190.448 97.8911 190.306C94.0201 181.072 86.2664 172.157 87.0266 161.793C87.3424 157.566 89.0381 153.208 91.2251 149.53C93.2483 146.137 96.324 143.37 99.8559 141.372C106.826 137.42 115.515 136.739 123.14 139.33C131.128 142.053 137.525 147.641 141.525 154.624C145.443 161.475 148.939 170.412 145.688 178.064C145.606 178.24 145.583 178.415 145.56 178.591C141.373 184.498 137.139 190.514 134.59 197.233C133.256 200.758 132.683 204.26 132.145 207.938C131.689 211.045 130.146 213.526 127.21 214.712C126.204 214.306 125.14 213.998 124.111 213.768C120.72 213.021 117.106 212.834 113.632 212.977C111.878 213.043 110.124 213.219 108.393 213.493C106.931 213.724 105.306 213.943 104.206 214.975C101.938 217.127 103.704 220.212 106.37 221.069C107.013 221.277 107.691 221.409 108.393 221.508C108.276 221.596 108.171 221.683 108.066 221.782C107.001 222.77 106.534 224.274 107.177 225.603C107.773 226.844 109.107 227.469 110.451 227.81C111.036 227.963 111.633 228.062 112.241 228.161C111.633 228.271 111.036 228.392 110.44 228.556C109.013 228.951 106.861 229.588 106.113 230.906C105.306 232.267 106.241 233.683 107.411 234.485ZM111.095 167.634C108.943 167.085 106.99 165.768 107.177 163.517C107.329 161.694 109.247 162.068 110.147 163.209C111.106 164.417 111.352 166.163 111.095 167.634ZM121.807 159.817C122.263 160.882 122.263 162.035 121.831 163.089C121.69 163.44 121.515 163.758 121.304 164.077C120.462 163.231 119.667 162.342 118.977 161.42C118.357 160.586 117.141 158.456 118.603 157.731C119.936 157.061 121.41 158.895 121.807 159.817ZM130.134 169.116C130.216 168.743 130.298 168.37 130.391 167.996C130.637 166.942 130.941 164.582 132.356 164.296C133.455 164.077 134.473 165.252 134.438 166.196C134.391 167.403 133.233 168.403 132.122 168.809C131.479 169.039 130.812 169.127 130.134 169.116ZM118.474 191.887C117.656 192.282 116.767 192.578 115.854 192.798C114.627 193.105 113.013 193.182 112.673 191.733C112.323 190.251 114.1 189.713 115.34 189.833C116.708 189.976 117.726 190.865 118.474 191.887ZM110.405 224.296C110.311 223.791 112.299 223.572 112.744 223.506C114.989 223.199 117.27 223.111 119.527 223.286C121.222 223.418 123.047 223.638 124.602 224.384C123.105 224.812 121.515 225.032 120.006 225.175C117.808 225.372 115.609 225.328 113.422 225.021C113.059 224.955 110.487 224.736 110.405 224.296ZM121.901 216.743C118.123 217.918 114.147 218.478 110.147 218.291C109.317 218.247 107.539 218.335 106.931 217.709C106.23 216.984 107.82 216.941 108.417 216.842C111.013 216.414 113.656 216.216 116.287 216.26C118.158 216.282 120.041 216.446 121.901 216.743ZM121.842 220.212C123.444 219.762 125.023 219.224 126.544 218.576C126.719 218.5 126.871 218.401 127 218.302C127.596 218.664 128.122 219.092 128.485 219.652C129.222 220.75 128.824 221.815 128.017 222.628C127.608 222.276 127.163 221.947 126.661 221.672C125.199 220.871 123.538 220.454 121.842 220.212ZM121.211 228.37C121.187 228.37 121.164 228.359 121.152 228.359C123.035 228.15 125.047 227.81 126.871 227.14C126.965 227.788 126.883 228.49 126.614 229.182C126.544 229.358 126.462 229.511 126.368 229.676C124.649 229.05 122.778 228.677 121.211 228.37ZM110.159 232.157C111.083 231.784 112.042 231.51 113.036 231.356C115.141 231.027 117.281 231.092 119.375 231.411C120.755 231.619 122.158 231.927 123.515 232.322C123.047 232.575 122.567 232.783 122.088 232.959C118.404 234.331 114.159 234.09 110.615 232.443C110.545 232.399 110.358 232.278 110.159 232.157Z" fill="#1E1E1E"/>
<path d="M212.77 230.917C212.01 229.588 209.87 228.962 208.443 228.567C207.847 228.403 207.25 228.282 206.642 228.172C207.239 228.073 207.847 227.963 208.432 227.821C209.765 227.48 211.098 226.866 211.706 225.614C212.349 224.285 211.882 222.781 210.817 221.793C210.712 221.694 210.595 221.607 210.49 221.519C211.192 221.42 211.87 221.288 212.513 221.08C215.18 220.234 216.957 217.138 214.677 214.986C213.589 213.954 211.952 213.746 210.49 213.504C208.759 213.23 207.005 213.054 205.251 212.988C201.777 212.856 198.175 213.043 194.772 213.779C193.743 213.998 192.679 214.317 191.673 214.723C188.749 213.537 187.194 211.056 186.738 207.949C186.2 204.26 185.627 200.769 184.293 197.244C181.744 190.525 177.51 184.498 173.324 178.602C173.312 178.437 173.277 178.262 173.195 178.075C169.944 170.423 173.429 161.475 177.358 154.635C181.358 147.652 187.755 142.064 195.743 139.341C203.368 136.739 212.057 137.431 219.027 141.383C222.559 143.381 225.635 146.137 227.658 149.541C229.845 153.219 231.552 157.577 231.857 161.804C232.617 172.179 224.863 181.083 220.992 190.317C220.875 190.459 220.781 190.613 220.711 190.811C219.179 195.037 217.647 199.264 216.115 203.48C215.519 205.105 215.004 206.994 213.11 207.652C211.683 208.146 210.069 208.004 208.595 207.795C204.841 207.257 200.117 206.082 198.245 202.624C197.017 200.373 197.661 197.365 198.748 194.862C200.783 195.916 203.204 196.553 205.251 196.278C208.245 195.872 210.303 193.017 209.578 190.251C208.853 187.495 205.683 186.254 202.9 186.617C200.701 186.902 199.029 188.154 197.778 189.746C195.813 186.99 195.462 183.246 194.772 180.084C194.152 177.219 193.521 174.353 192.866 171.499C194.562 170.829 196.117 169.841 197.52 168.699C198.725 169.522 200.07 170.159 201.438 170.587C202.713 170.983 204.058 171.191 205.391 171.224C205.449 171.345 205.496 171.466 205.566 171.575C206.49 173.222 207.765 174.737 208.116 176.615C208.502 178.701 211.964 178.13 211.566 176.044C211.203 174.09 209.999 172.487 209.028 170.807C210.478 170.39 211.823 169.654 212.946 168.556C215.577 165.987 216.466 160.553 211.987 159.136C207.543 157.731 204.502 162.276 204.198 165.822C204.14 166.514 204.186 167.195 204.292 167.865C202.853 167.656 201.345 167.162 200.046 166.382C202.526 163.923 205.555 160.629 203.988 157.116C202.514 153.79 198.234 153.746 195.684 155.996C193.24 158.148 192.597 161.629 193.848 164.494C194.14 165.175 194.538 165.801 195.006 166.393C194.141 167.063 193.158 167.722 192.106 168.227C192 167.788 191.907 167.349 191.802 166.92C191.088 163.967 189.322 160.41 185.404 161.091C181.943 161.683 180.072 165.252 181.381 168.227C182.715 171.257 186.153 172.596 189.463 172.311C189.579 172.805 189.696 173.31 189.802 173.804C190.644 177.537 191.392 181.281 192.258 185.003C192.901 187.78 193.813 190.712 195.918 192.842C194.69 195.477 193.778 198.518 194.199 201.372C194.714 204.951 197.626 207.63 200.97 209.134C204.245 210.606 208.467 211.528 212.116 211.199C213.706 211.056 215.332 210.518 216.536 209.519C218.08 208.234 218.747 206.412 219.401 204.622C220.863 200.615 222.313 196.607 223.764 192.6C223.834 192.49 223.904 192.381 223.951 192.249C227.705 182.719 235.19 174.112 235.388 163.572C235.482 158.829 233.903 154.108 231.751 149.859C229.775 145.929 226.816 142.558 223.085 139.989C215.706 134.928 205.987 133.259 197.181 135.51C188.527 137.716 180.937 143.107 176.107 150.177C170.482 158.423 165.921 169.863 170.014 179.48C170.026 179.502 170.037 179.524 170.049 179.546C170.072 179.81 170.166 180.084 170.353 180.348C174.797 186.617 179.405 193.072 181.709 200.362C182.27 202.141 182.691 203.963 182.948 205.808C183.206 207.707 183.334 209.618 183.978 211.451C184.75 213.658 186.34 215.535 188.363 216.82C187.86 217.314 187.416 217.863 187.077 218.5C185.779 220.959 186.761 223.704 188.854 225.438C188.492 226.404 188.363 227.458 188.504 228.556C188.632 229.555 188.971 230.467 189.463 231.301C188.936 231.718 188.468 232.179 188.094 232.728C186.41 235.21 187.498 239.239 190.995 239.382C192.269 240.007 193.567 240.304 195.006 240.359C196.257 240.403 197.555 240.315 198.795 240.589C199.31 240.699 199.906 240.908 200.432 241.094C200.748 241.204 201.052 241.325 201.356 241.446C201.38 241.457 201.426 241.478 201.462 241.489C201.473 241.5 201.473 241.5 201.485 241.5L201.497 241.511C201.508 241.555 201.52 241.61 201.52 241.621C201.532 241.72 201.543 241.819 201.555 241.918C201.555 241.94 201.555 241.94 201.555 241.94C201.555 241.962 201.555 241.973 201.555 242.027C201.555 242.587 201.555 243.147 201.649 243.696C201.801 244.575 202.76 245.178 203.684 245.036C204.631 244.882 205.251 244.004 205.11 243.125C205.087 242.994 205.075 242.873 205.064 242.741C205.064 242.73 205.064 242.719 205.064 242.719C205.064 242.697 205.064 242.664 205.064 242.62C205.064 242.335 205.052 242.06 205.04 241.775C205.005 241.16 204.923 240.578 204.631 240.018C203.929 238.679 202.28 238.174 200.877 237.724C199.473 237.285 198.07 237.109 196.596 237.076C195.918 237.065 195.24 237.065 194.562 237.01C193.977 236.955 193.427 236.878 193.041 236.681C192.994 236.659 192.948 236.648 192.901 236.637C192.655 236.296 192.234 236.077 191.638 236.099C190.819 236.121 190.562 235.539 190.866 234.825C191.03 234.43 191.334 234.112 191.685 233.859C192.398 234.452 193.193 234.968 194.047 235.385C199.239 237.965 206.631 237.812 211.472 234.496C212.607 233.683 213.542 232.267 212.77 230.917ZM208.701 163.209C209.601 162.068 211.519 161.694 211.671 163.517C211.858 165.768 209.905 167.085 207.753 167.634C207.508 166.163 207.742 164.417 208.701 163.209ZM200.245 157.731C201.707 158.456 200.491 160.596 199.871 161.42C199.181 162.342 198.386 163.231 197.544 164.077C197.333 163.769 197.158 163.44 197.017 163.089C196.585 162.024 196.596 160.871 197.041 159.817C197.438 158.895 198.912 157.061 200.245 157.731ZM186.726 168.809C185.603 168.403 184.445 167.403 184.41 166.196C184.375 165.252 185.381 164.077 186.492 164.296C187.907 164.582 188.211 166.953 188.457 167.996C188.539 168.37 188.621 168.743 188.714 169.116C188.047 169.127 187.381 169.039 186.726 168.809ZM203.508 189.833C204.748 189.713 206.525 190.24 206.175 191.733C205.835 193.193 204.221 193.105 202.994 192.798C202.081 192.567 201.193 192.282 200.374 191.887C201.122 190.865 202.14 189.976 203.508 189.833ZM205.438 225.01C203.251 225.317 201.052 225.372 198.854 225.164C197.345 225.021 195.754 224.801 194.257 224.373C195.801 223.627 197.626 223.418 199.333 223.275C201.59 223.1 203.871 223.177 206.116 223.495C206.56 223.561 208.549 223.78 208.455 224.285C208.361 224.736 205.8 224.955 205.438 225.01ZM202.561 216.249C205.192 216.205 207.835 216.403 210.431 216.831C211.028 216.93 212.618 216.984 211.917 217.698C211.309 218.324 209.531 218.247 208.701 218.28C204.701 218.467 200.725 217.907 196.947 216.732C198.807 216.446 200.69 216.282 202.561 216.249ZM192.187 221.672C191.685 221.947 191.24 222.276 190.831 222.628C190.024 221.815 189.626 220.75 190.363 219.652C190.737 219.103 191.252 218.664 191.848 218.302C191.977 218.412 192.129 218.5 192.304 218.576C193.836 219.224 195.404 219.762 197.006 220.212C195.31 220.454 193.649 220.871 192.187 221.672ZM192.492 229.676C192.41 229.511 192.316 229.358 192.246 229.182C191.977 228.49 191.895 227.799 191.989 227.14C193.813 227.81 195.825 228.15 197.707 228.359C197.684 228.359 197.661 228.37 197.649 228.37C196.07 228.677 194.211 229.05 192.492 229.676ZM208.233 232.432C204.689 234.079 200.444 234.32 196.76 232.948C196.281 232.772 195.801 232.553 195.333 232.311C196.69 231.916 198.093 231.608 199.473 231.4C201.578 231.081 203.707 231.005 205.812 231.345C206.794 231.499 207.765 231.784 208.689 232.146C208.49 232.278 208.303 232.399 208.233 232.432Z" fill="#1E1E1E"/>
<path d="M477.028 116.747C475.285 114.551 473.192 112.684 470.537 111.488C468.608 110.62 466.023 110.928 464.935 112.871C463.965 114.584 464.339 117.197 466.409 118.13C466.853 118.327 467.286 118.547 467.707 118.789C467.894 118.898 468.081 119.008 468.257 119.129C468.432 119.239 468.97 119.711 468.35 119.173C468.678 119.447 469.017 119.711 469.321 120.007C469.52 120.194 469.695 120.381 469.882 120.578C470.011 120.71 470.479 121.303 469.964 120.644C471.239 122.247 473.566 123.235 475.566 122.027C477.25 120.973 478.396 118.47 477.028 116.747Z" fill="#00A99D"/>
<path d="M499.272 85.6212H493.471C491.331 85.6212 489.284 87.3888 489.378 89.4638C489.471 91.5498 491.179 93.3064 493.471 93.3064H499.272C501.412 93.3064 503.459 91.5388 503.365 89.4638C503.271 87.3778 501.576 85.6212 499.272 85.6212Z" fill="#00A99D"/>
<path d="M493.857 48.1939C491.962 47.2607 489.319 47.6779 488.255 49.5772C488.091 49.8627 487.893 50.1262 487.705 50.3897C487.495 50.6093 487.261 50.8179 487.027 51.0155C486.863 51.1253 486.688 51.2351 486.513 51.3339C484.653 52.3439 483.846 54.8581 485.039 56.5928C486.244 58.3494 488.653 59.0521 490.641 57.9761C492.594 56.9222 494.266 55.3412 495.319 53.4638C496.325 51.6742 495.868 49.193 493.857 48.1939Z" fill="#00A99D"/>
<path d="M454.925 30.4299C454.82 30.1664 454.726 29.9029 454.656 29.6284C454.609 29.4528 454.562 29.2661 454.527 29.0795C454.516 29.0466 454.516 29.0246 454.516 28.9917C454.516 28.827 454.527 28.6294 454.527 28.5745C454.527 28.2451 454.551 27.9267 454.586 27.5973C454.808 25.5882 452.551 23.6669 450.493 23.7547C448.083 23.8535 446.633 25.4455 446.399 27.5973C446.224 29.2112 446.458 30.9349 447.043 32.461C447.768 34.3494 449.861 35.8206 452.083 35.1399C454.048 34.547 455.697 32.45 454.925 30.4299Z" fill="#00A99D"/>
<path d="M414.308 39.74C414.109 39.0923 413.758 38.5214 413.256 38.0493C412.905 37.6211 412.542 37.1929 412.191 36.7648C411.817 36.3915 411.384 36.128 410.87 35.9743C410.379 35.7327 409.852 35.6229 409.291 35.6449C408.73 35.6229 408.203 35.7327 407.712 35.9743C407.209 36.128 406.765 36.3915 406.391 36.7648C405.677 37.5003 405.139 38.4555 405.186 39.4766C405.233 39.8169 405.28 40.1573 405.338 40.4976C405.537 41.1454 405.888 41.7163 406.391 42.1884C406.741 42.6165 407.104 43.0447 407.455 43.4729C407.829 43.8462 408.262 44.1097 408.776 44.2634C409.268 44.5049 409.794 44.6147 410.355 44.5927C410.917 44.6147 411.443 44.5049 411.934 44.2634C412.437 44.1097 412.881 43.8462 413.256 43.4729C413.969 42.7373 414.507 41.7821 414.46 40.7611C414.402 40.4207 414.355 40.0804 414.308 39.74Z" fill="#00A99D"/>
<path d="M396.637 70.7337C395.772 70.4921 394.918 70.2396 394.053 69.9981C392.006 69.4162 389.503 70.6897 389.012 72.6769C388.509 74.752 389.679 76.7831 391.866 77.4089C392.731 77.6504 393.585 77.9029 394.45 78.1445C396.497 78.7263 399 77.4528 399.491 75.4656C399.994 73.3906 398.824 71.3595 396.637 70.7337Z" fill="#00A99D"/>
<path d="M403.456 109.456C402.754 107.436 400.649 106.251 398.415 106.778C395.994 107.349 394.147 109.149 393.422 111.356C393.118 112.289 393.316 113.486 393.831 114.32C394.322 115.122 395.305 115.879 396.275 116.088C398.252 116.516 400.158 115.671 401.035 114.035C401.854 113.716 402.614 113.112 403.047 112.421C403.549 111.597 403.772 110.379 403.456 109.456Z" fill="#00A99D"/>
<path d="M433.476 139.736C433.254 138.254 431.465 136.97 430.272 136.135C429.781 135.784 429.255 135.477 428.728 135.18C429.337 135.279 429.933 135.378 430.529 135.422C431.909 135.532 433.383 135.378 434.412 134.412C435.5 133.38 435.605 131.81 434.973 130.536C434.915 130.404 434.833 130.295 434.763 130.174C435.453 130.306 436.143 130.393 436.821 130.415C439.64 130.481 442.435 128.143 441.078 125.398C440.435 124.08 438.973 123.345 437.687 122.664C436.155 121.841 434.576 121.116 432.95 120.49C429.734 119.239 426.284 118.262 422.822 117.855C421.77 117.735 420.671 117.68 419.571 117.746C417.256 115.682 416.706 112.86 417.419 109.786C418.261 106.152 419.01 102.682 419.045 98.9386C419.103 91.8023 417.338 84.7868 415.56 77.892C415.607 77.7273 415.642 77.5516 415.63 77.365C415.373 69.1198 421.922 61.8517 428.109 56.6916C434.412 51.4217 442.47 48.2268 450.972 48.2488C459.088 48.2707 466.994 51.7181 472.093 57.6687C474.678 60.6879 476.56 64.2671 477.215 68.1097C477.929 72.2707 477.929 76.9148 476.677 80.9771C473.602 90.9679 463.065 96.8307 456.048 104.252C455.896 104.34 455.732 104.461 455.603 104.626C452.621 108.095 449.639 111.575 446.645 115.045C445.499 116.384 444.318 117.987 442.294 117.987C440.774 117.998 439.301 117.339 438.002 116.67C434.669 114.957 430.67 112.322 430.167 108.479C429.839 105.965 431.547 103.352 433.488 101.354C435.009 103.001 437.055 104.373 439.078 104.779C442.037 105.361 445.019 103.352 445.347 100.509C445.674 97.687 443.148 95.5022 440.4 94.9423C438.225 94.5031 436.201 95.1399 434.435 96.2268C433.593 93.01 434.634 89.376 435.149 86.1921C435.617 83.3046 436.061 80.4061 436.505 77.5077C438.342 77.4308 440.166 77.0027 441.897 76.3769C442.727 77.5406 443.745 78.5727 444.879 79.4071C445.932 80.1866 447.124 80.8124 448.364 81.2735C448.376 81.4052 448.376 81.526 448.399 81.6578C448.668 83.5022 449.311 85.3357 448.949 87.2131C448.551 89.2991 452.001 89.881 452.399 87.784C452.773 85.8298 452.223 83.9414 451.931 82.042C453.451 82.1189 454.983 81.8664 456.434 81.1966C459.848 79.6376 462.667 74.8179 458.983 72.0402C455.323 69.2954 450.797 72.5782 449.23 75.806C448.925 76.4318 448.727 77.0905 448.563 77.7492C447.288 77.1015 446.06 76.1463 445.125 74.9935C448.352 73.4784 452.399 71.3705 452.223 67.5608C452.048 63.9597 448.06 62.5434 444.832 63.8279C441.756 65.0576 439.874 68.1207 439.991 71.2168C440.014 71.9524 440.166 72.677 440.376 73.3796C439.324 73.7309 438.154 74.0274 436.985 74.1701C437.043 73.7309 437.114 73.2808 437.184 72.8416C437.593 69.8444 437.242 65.9359 433.313 65.2991C429.839 64.7392 426.775 67.4839 426.916 70.7117C427.056 73.9835 429.793 76.3549 433.009 77.1564C432.939 77.6614 432.857 78.1664 432.787 78.6715C432.213 82.4482 431.547 86.214 430.997 89.9908C430.588 92.8014 430.366 95.8535 431.57 98.5324C429.453 100.618 427.489 103.177 426.834 105.987C426.015 109.522 427.769 112.97 430.354 115.462C432.892 117.899 436.517 120.128 440.072 120.995C441.616 121.369 443.335 121.402 444.844 120.842C446.762 120.128 448.06 118.635 449.323 117.175C452.153 113.881 454.983 110.587 457.825 107.283C457.931 107.206 458.036 107.118 458.129 107.008C465.135 99.268 475.321 93.6029 479.356 83.7547C481.168 79.3302 481.414 74.3897 480.958 69.7017C480.537 65.376 479.005 61.2479 476.432 57.6358C471.356 50.5104 462.831 45.8005 453.744 45.0759C444.809 44.3622 435.71 46.9752 428.588 52.0585C420.285 57.9871 411.818 67.2534 412.145 77.6175C412.145 77.6395 412.157 77.6614 412.157 77.6834C412.087 77.9469 412.063 78.2213 412.145 78.5287C414.028 85.8407 415.993 93.4052 415.49 100.992C415.373 102.847 415.092 104.692 414.659 106.503C414.203 108.381 413.63 110.203 413.56 112.135C413.478 114.463 414.285 116.736 415.712 118.591C415.057 118.887 414.437 119.261 413.888 119.755C411.771 121.643 411.689 124.531 413.022 126.847C412.332 127.638 411.829 128.582 411.56 129.658C411.315 130.635 411.303 131.601 411.455 132.545C410.8 132.765 410.192 133.05 409.654 133.446C407.163 135.235 406.719 139.374 409.946 140.626C410.905 141.625 412.028 142.317 413.35 142.833C414.507 143.283 415.759 143.612 416.823 144.271C417.267 144.545 417.747 144.93 418.168 145.281C418.413 145.489 418.671 145.698 418.905 145.907C418.928 145.929 418.951 145.962 418.987 145.983C418.987 145.994 418.998 146.005 418.998 146.005L419.01 146.016C418.998 146.06 418.998 146.115 418.987 146.126C418.963 146.225 418.94 146.324 418.916 146.423C418.905 146.445 418.916 146.445 418.916 146.445C418.905 146.456 418.905 146.478 418.881 146.532C418.671 147.059 418.472 147.586 418.355 148.135C418.168 149.003 418.858 149.892 419.782 150.046C420.729 150.199 421.63 149.585 421.817 148.706C421.84 148.585 421.875 148.454 421.91 148.333C421.91 148.322 421.91 148.311 421.922 148.311C421.934 148.289 421.945 148.267 421.957 148.223C422.062 147.96 422.156 147.696 422.249 147.422C422.448 146.84 422.577 146.258 422.507 145.632C422.343 144.15 420.975 143.14 419.817 142.273C418.659 141.405 417.408 140.779 416.028 140.285C415.396 140.055 414.753 139.835 414.145 139.561C413.619 139.33 413.127 139.067 412.835 138.759C412.8 138.726 412.765 138.704 412.73 138.671C412.625 138.276 412.309 137.936 411.736 137.76C410.964 137.519 410.929 136.882 411.467 136.322C411.771 136.004 412.157 135.806 412.589 135.674C413.046 136.465 413.607 137.2 414.238 137.87C418.18 141.965 425.161 144.205 430.927 142.646C432.319 142.284 433.71 141.263 433.476 139.736ZM454.422 74.8288C455.697 74.0493 457.626 74.3128 457.1 76.0695C456.457 78.2433 454.141 78.8471 451.919 78.6715C452.223 77.2223 453.077 75.6632 454.422 74.8288ZM448.493 66.9569C449.604 68.1097 447.674 69.7236 446.797 70.3055C445.815 70.9533 444.739 71.5352 443.639 72.0512C443.557 71.6889 443.511 71.3266 443.511 70.9533C443.487 69.8115 443.92 68.7355 444.739 67.8901C445.429 67.1545 447.487 65.9139 448.493 66.9569ZM431.734 73.0063C430.833 72.2707 430.108 70.9533 430.518 69.8005C430.833 68.9002 432.213 68.1207 433.161 68.6916C434.389 69.4162 433.804 71.7437 433.652 72.8087C433.593 73.182 433.535 73.5663 433.488 73.9395C432.857 73.7309 432.26 73.4345 431.734 73.0063ZM439.803 98.1701C441.02 98.4556 442.482 99.5205 441.616 100.816C440.762 102.079 439.277 101.475 438.236 100.794C437.464 100.289 436.728 99.7291 436.108 99.0923C437.195 98.3677 438.47 97.8627 439.803 98.1701ZM428.752 131.832C426.588 131.425 424.507 130.756 422.507 129.855C421.138 129.241 419.723 128.516 418.472 127.638C420.191 127.44 421.992 127.824 423.641 128.241C425.828 128.801 427.945 129.614 429.933 130.635C430.331 130.833 432.108 131.689 431.839 132.128C431.594 132.512 429.103 131.897 428.752 131.832ZM429.255 122.675C431.746 123.488 434.155 124.52 436.435 125.76C436.962 126.046 438.435 126.606 437.511 127.056C436.716 127.451 435.067 126.803 434.283 126.573C430.459 125.464 426.927 123.652 423.805 121.325C425.653 121.643 427.489 122.093 429.255 122.675ZM417.525 124.421C416.952 124.52 416.414 124.684 415.899 124.882C415.443 123.85 415.455 122.73 416.554 121.94C417.104 121.544 417.759 121.303 418.449 121.16C418.53 121.303 418.636 121.435 418.776 121.566C419.969 122.664 421.255 123.685 422.6 124.618C420.904 124.278 419.197 124.146 417.525 124.421ZM414.882 132.04C414.858 131.865 414.835 131.678 414.835 131.502C414.835 130.767 415.01 130.086 415.338 129.504C416.8 130.723 418.565 131.689 420.261 132.49C420.238 132.49 420.214 132.479 420.203 132.479C418.612 132.249 416.729 131.996 414.882 132.04ZM428.658 139.704C424.729 140.11 420.659 138.968 417.7 136.487C417.314 136.168 416.94 135.806 416.601 135.422C418.028 135.488 419.454 135.652 420.823 135.905C422.916 136.278 424.939 136.904 426.799 137.892C427.664 138.353 428.471 138.935 429.208 139.572C428.962 139.638 428.74 139.693 428.658 139.704Z" fill="#1E1E1E"/>
<path d="M478.549 124.058C475.976 119.854 472.69 116.033 468.877 112.761C467.205 111.334 464.842 113.771 466.515 115.198C470.117 118.284 473.158 121.852 475.578 125.826C476.046 126.595 477.227 126.803 477.999 126.342C478.841 125.837 479.028 124.827 478.549 124.058Z" fill="#1E1E1E"/>
<path d="M499.95 90.5068C500.114 89.5955 499.553 88.7831 498.594 88.5525C494.197 87.4876 489.659 86.9716 485.121 86.9825C484.197 86.9825 483.367 87.8499 483.449 88.7062C483.543 89.6285 484.303 90.2762 485.285 90.2762C487.495 90.2762 489.413 90.375 491.495 90.6275C493.635 90.8801 495.764 91.2753 497.857 91.7803C498.758 91.9999 499.798 91.3631 499.95 90.5068Z" fill="#1E1E1E"/>
<path d="M500.231 47.8645C499.751 47.1509 498.582 46.8325 497.81 47.3485C493.366 50.3348 488.606 52.9149 483.577 54.946C482.712 55.2973 482.127 56.0988 482.431 57.01C482.689 57.7895 483.753 58.4483 484.63 58.0859C489.939 55.9341 494.98 53.2881 499.681 50.1262C500.465 49.6212 500.769 48.644 500.231 47.8645Z" fill="#1E1E1E"/>
<path d="M453.206 37.0722C453.241 32.0548 453.521 27.0374 454.059 22.042C454.153 21.1637 453.709 20.2854 452.703 20.0877C451.849 19.9231 450.715 20.461 450.621 21.3613C450.048 26.6312 449.732 31.934 449.697 37.2369C449.686 38.1262 450.621 38.8398 451.533 38.8069C452.527 38.752 453.194 37.9725 453.206 37.0722Z" fill="#1E1E1E"/>
<path d="M416.531 46.9752C413.83 41.4748 410.274 36.4574 405.854 32.0329C405.21 31.3851 403.982 31.5168 403.374 32.1426C402.696 32.8453 402.836 33.8224 403.491 34.4702C407.444 38.4336 410.754 43.0228 413.175 47.9633C413.572 48.7758 414.391 49.3357 415.373 49.0393C416.192 48.7977 416.929 47.7877 416.531 46.9752Z" fill="#1E1E1E"/>
<path d="M400.988 73.2259C393.656 71.5351 386.042 70.9972 378.522 71.623C376.277 71.8096 376.429 75.1033 378.686 74.9167C385.925 74.3128 393.188 74.8288 400.251 76.4537C402.462 76.9478 403.187 73.7309 400.988 73.2259Z" fill="#1E1E1E"/>
<path d="M408.602 104.165C410.064 102.551 407.479 100.333 406.005 101.947C402.064 106.284 397.538 110.071 392.486 113.222C390.603 114.397 392.474 117.175 394.357 116.011C399.667 112.706 404.473 108.721 408.602 104.165Z" fill="#1E1E1E"/>
<path d="M322.351 71.9523C321.708 73.1161 320.749 73.8956 319.825 74.6531C319.264 75.1033 318.749 75.5205 318.316 76.0145C318.293 76.0365 318.258 76.0694 318.223 76.1024C318.024 76.267 317.849 76.4207 317.697 76.5525L317.264 76.9148L317.533 80.2963C317.556 80.4939 317.591 80.7245 317.615 80.966C317.72 81.7346 317.837 82.525 317.673 83.1289C317.58 83.5022 317.381 83.7986 317.03 83.9962C316.796 84.1829 316.574 84.3036 316.34 84.3695C315.182 84.7318 313.978 83.8645 313.054 83.2057C312.551 82.8544 312.048 82.4921 311.627 82.3384C311.557 82.3164 311.51 82.2945 311.452 82.2615L310.083 81.4052L304.61 83.8206C304.341 83.9413 304.06 83.9853 303.791 83.9743C303.593 83.9633 303.405 83.9194 303.218 83.8315C302.786 83.6449 302.435 83.2606 302.283 82.8105C302.177 82.4921 302.177 82.1518 302.259 81.8114C302.271 81.7675 302.283 81.7236 302.306 81.6906C302.774 80.5928 303.008 79.44 303.265 78.2323C303.417 77.4967 303.581 76.7611 303.78 76.0035L299.932 71.579C299.499 71.074 299.394 70.3823 299.651 69.7565C299.92 69.1307 300.493 68.7135 301.16 68.6586L301.78 68.6147C302.365 68.5598 302.984 68.5708 303.639 68.5818C305.206 68.6037 306.82 68.6257 307.358 67.7144L310.153 63.0374C310.504 62.4665 311.124 62.1261 311.791 62.1701C312.141 62.192 312.457 62.3238 312.726 62.5214C312.96 62.708 313.147 62.9496 313.264 63.235L313.486 63.8169C313.592 64.1243 313.674 64.4098 313.767 64.6842C314.235 66.1444 314.714 67.6486 315.428 68.7574L316.89 69.0758L321.158 69.9981C321.486 70.0749 321.79 70.2286 322.012 70.4701C322.035 70.4921 322.059 70.536 322.082 70.558C322.258 70.7666 322.386 71.0081 322.456 71.2826C322.503 71.5131 322.468 71.7437 322.351 71.9523Z" fill="#FBB03B"/>
<path d="M316.457 84.5562C316.679 83.8316 316.574 82.9532 316.469 82.0969C316.434 81.8444 316.41 81.6028 316.398 81.4162L316.211 78.0676L317.124 77.4089C317.194 77.3649 317.252 77.2991 317.287 77.2771C317.755 76.816 318.352 76.4098 318.971 75.9706C320.082 75.2021 321.229 74.4006 322.059 73.1271C322.258 72.8197 322.328 72.4683 322.258 72.117C322.187 71.7657 322.024 71.4363 321.766 71.1399L321.673 71.0191C321.357 70.6897 320.948 70.4482 320.48 70.3384L314.223 68.7684C313.545 67.6266 313.077 66.1115 312.621 64.6403C312.528 64.3439 312.434 64.0475 312.317 63.6852L312.083 63.0594C311.943 62.6751 311.685 62.3348 311.358 62.0713C310.984 61.7748 310.539 61.5882 310.06 61.5333C309.124 61.4345 308.224 61.8297 307.709 62.5653L304.4 67.3521C303.908 68.0658 302.154 67.956 300.599 67.8572C299.874 67.8133 299.137 67.7693 298.447 67.7913L297.745 67.8133C296.81 67.8352 295.968 68.3512 295.582 69.1527C295.184 69.9542 295.313 70.8764 295.909 71.5681L299.967 76.2671C299.733 76.9917 299.558 77.6943 299.382 78.386C299.055 79.6266 298.763 80.8014 298.213 81.8993C298.19 81.9541 298.166 82.009 298.131 82.0969C298.002 82.5251 298.002 82.9752 298.131 83.4034C298.295 83.9084 298.634 84.3476 299.102 84.644C299.195 84.7099 299.301 84.7648 299.418 84.8197C299.663 84.9404 299.932 85.0063 300.213 85.0392C300.599 85.0832 300.996 85.0392 301.382 84.8965L307.405 82.7227L308.727 83.5681C308.809 83.623 308.902 83.6669 309.007 83.7108C309.405 83.8645 309.955 84.2597 310.481 84.644C311.557 85.4235 313.03 86.4994 314.586 86.1262C314.925 86.0493 315.241 85.8956 315.475 85.7309C315.942 85.4894 316.282 85.0941 316.457 84.5562ZM309.569 65.1344L309.662 65.4198C310.224 67.2314 310.797 69.1088 311.837 70.6348C311.908 70.7446 312.001 70.8325 312.095 70.9203C312.387 71.1728 312.75 71.3595 313.124 71.4473L318.352 72.7648C317.977 73.0612 317.568 73.3576 317.135 73.6541C316.48 74.1042 315.744 74.6202 315.182 75.1692L314.071 75.9706C313.428 76.4317 313.077 77.1563 313.112 77.9249L313.323 81.6138C313.346 81.8663 313.381 82.1518 313.416 82.4262C313.44 82.58 313.463 82.8654 313.486 83.1399C313.101 82.9313 312.574 82.536 312.329 82.3604C311.697 81.8993 310.984 81.3723 310.364 81.1527L308.844 80.1756C308.434 79.9121 307.955 79.7693 307.44 79.7803C307.218 79.7803 307.031 79.8023 306.844 79.8462C306.75 79.8682 306.668 79.8901 306.575 79.923L301.558 81.7346C301.885 80.8343 302.119 79.923 302.353 79.0338C302.54 78.3091 302.739 77.5516 302.996 76.7831C303.101 76.4317 303.113 76.0585 303.043 75.6961C302.961 75.3338 302.797 74.9825 302.54 74.6971L299.067 70.6678C299.125 70.6678 299.195 70.6678 299.254 70.6678C299.616 70.6788 299.991 70.7007 300.388 70.7227C302.599 70.8544 305.347 71.0301 306.855 69.0319L306.937 68.9441L309.569 65.1344Z" fill="#1E1E1E"/>
<path d="M378.078 32.3402C377.82 31.6266 377.201 30.9569 376.593 30.3091C376.417 30.1225 376.242 29.9358 376.113 29.7931L373.938 27.1362L374.289 26.1042C374.312 26.0273 374.335 25.9505 374.335 25.9066C374.441 25.2808 374.686 24.622 374.932 23.9304C375.376 22.7007 375.844 21.4272 375.75 19.945C375.727 19.5937 375.563 19.2533 375.294 19.0008C375.025 18.7483 374.686 18.5726 374.3 18.4519L374.148 18.397C373.692 18.2982 373.213 18.3201 372.757 18.4738L366.664 20.5159C365.412 19.934 364.102 18.9349 362.839 17.9688C362.582 17.7712 362.325 17.5735 362.009 17.343L361.436 16.9587C361.085 16.7282 360.676 16.5745 360.231 16.5415C359.74 16.4976 359.261 16.5854 358.84 16.794C358.009 17.2112 357.506 18.0127 357.53 18.902L357.705 24.6111C357.729 25.4564 356.22 26.3018 354.887 27.0594C354.267 27.4107 353.624 27.762 353.074 28.1573L352.513 28.5525C351.753 29.0685 351.378 29.9358 351.542 30.8142C351.706 31.6815 352.372 32.3842 353.273 32.6257L359.46 34.3165C359.705 35.0301 359.986 35.7108 360.255 36.3695C360.746 37.5662 361.202 38.6971 361.424 39.8828C361.436 39.9377 361.448 40.0036 361.483 40.0914C361.635 40.5196 361.904 40.8819 362.278 41.1673C362.722 41.4967 363.272 41.6724 363.822 41.6724C363.939 41.6724 364.056 41.6614 364.184 41.6504C364.465 41.6175 364.722 41.5296 364.968 41.4089C365.307 41.2442 365.611 40.9807 365.845 40.6733L369.494 35.6669L371.096 35.6559C371.201 35.6559 371.295 35.6449 371.412 35.6229C371.833 35.5351 372.523 35.5681 373.189 35.601C374.546 35.6669 376.405 35.7657 377.458 34.6239C377.68 34.3823 377.867 34.0859 377.949 33.8334C378.218 33.3723 378.265 32.8672 378.078 32.3402ZM360.652 20.0218L360.898 20.2085C362.453 21.4052 364.067 22.6348 365.857 23.3375C365.985 23.3814 366.114 23.4143 366.231 23.4363C366.628 23.4912 367.026 23.4473 367.4 23.3265L372.488 21.6138C372.371 22.053 372.195 22.5141 372.032 22.9862C371.774 23.7108 371.47 24.5232 371.342 25.2698L370.921 26.5214C370.675 27.246 370.815 28.0365 371.318 28.6403L373.716 31.5607C373.891 31.7584 374.09 31.9779 374.277 32.1865C374.382 32.3073 374.581 32.5159 374.768 32.7245C374.324 32.7574 373.645 32.7135 373.341 32.7025C372.546 32.6586 371.634 32.6147 370.991 32.7574L369.155 32.7684C368.663 32.7684 368.172 32.9111 367.751 33.1856C367.576 33.3064 367.424 33.4272 367.307 33.5589C367.248 33.6248 367.19 33.6907 367.131 33.7675L364.091 37.9395C363.81 37.0173 363.459 36.1499 363.108 35.2936C362.828 34.5909 362.524 33.8773 362.278 33.1088C362.149 32.7574 361.939 32.4391 361.658 32.1865C361.377 31.923 361.027 31.7364 360.641 31.6266L355.343 30.1664C355.401 30.1335 355.448 30.1005 355.507 30.0676C355.811 29.881 356.126 29.7053 356.477 29.5077C358.384 28.4427 360.746 27.1143 360.781 24.6659L360.793 24.5452L360.652 20.0218Z" fill="#1E1E1E"/>
<path d="M257.773 39.4546C257.328 38.9715 256.592 38.6422 255.89 38.3128C255.691 38.225 255.481 38.1262 255.328 38.0493L252.674 36.633L252.58 35.7108C252.568 35.6449 252.557 35.579 252.545 35.5351C252.416 35.0081 252.37 34.4263 252.323 33.8005C252.241 32.6916 252.159 31.5498 251.563 30.4189C251.422 30.1445 251.177 29.9359 250.873 29.8151C250.569 29.7053 250.241 29.6614 249.89 29.6943L249.75 29.7053C249.352 29.7712 248.978 29.9359 248.674 30.1994L244.593 33.7016C243.4 33.6358 242.02 33.2515 240.686 32.8892C240.417 32.8123 240.149 32.7465 239.821 32.6586L239.236 32.5269C238.885 32.45 238.5 32.461 238.149 32.5708C237.751 32.6806 237.4 32.9002 237.143 33.2076C236.64 33.7895 236.523 34.58 236.862 35.2716L239.014 39.7071C239.33 40.3659 238.441 41.5077 237.658 42.5068C237.295 42.9679 236.921 43.451 236.617 43.934L236.313 44.4171C235.892 45.0649 235.903 45.8553 236.348 46.5031C236.78 47.1399 237.552 47.4802 238.347 47.3924L243.809 46.7995C244.253 47.2826 244.71 47.7328 245.166 48.1719C245.973 48.9624 246.733 49.709 247.329 50.5763C247.364 50.6202 247.388 50.6641 247.446 50.719C247.715 51.0045 248.054 51.2131 248.452 51.3229C248.92 51.4436 249.411 51.4107 249.844 51.246C249.937 51.2131 250.031 51.1692 250.113 51.1143C250.311 50.9935 250.498 50.8508 250.651 50.6751C250.861 50.4336 251.013 50.1371 251.083 49.8188L252.183 44.7465L253.446 44.2414C253.527 44.2085 253.598 44.1646 253.679 44.1097C253.984 43.9121 254.533 43.7254 255.071 43.5388C256.159 43.1655 257.667 42.6715 258.088 41.4418C258.182 41.1783 258.217 40.8929 258.194 40.6623C258.264 40.2231 258.112 39.8169 257.773 39.4546ZM239.728 35.1838L239.985 35.2607C241.634 35.7108 243.341 36.1829 244.99 36.1829C245.107 36.1829 245.212 36.1719 245.318 36.139C245.645 36.0621 245.949 35.8974 246.195 35.6888L249.598 32.7575C249.656 33.1417 249.692 33.5589 249.727 33.9871C249.773 34.6349 249.832 35.3704 249.996 35.9962L250.101 37.1161C250.159 37.7639 250.557 38.3348 251.153 38.6641L254.077 40.2231C254.288 40.322 254.51 40.4317 254.744 40.5415C254.872 40.5964 255.095 40.7062 255.317 40.816C254.978 40.9807 254.44 41.1564 254.182 41.2442C253.539 41.4638 252.814 41.7053 252.346 42.0237L250.908 42.5946C250.522 42.7483 250.194 43.0118 249.961 43.3631C249.867 43.5168 249.785 43.6486 249.738 43.7913C249.715 43.8572 249.692 43.934 249.68 44.0109L248.756 48.2378C248.218 47.601 247.622 47.0301 247.048 46.4592C246.581 45.9981 246.09 45.526 245.622 44.999C245.4 44.7684 245.119 44.5818 244.803 44.472C244.487 44.3622 244.148 44.3183 243.809 44.3512L239.131 44.8453C239.166 44.8014 239.19 44.7575 239.225 44.7135C239.4 44.472 239.587 44.2305 239.786 43.9779C240.909 42.5507 242.3 40.7611 241.458 38.8288L241.423 38.73L239.728 35.1838Z" fill="#1E1E1E"/>
<path d="M204.385 91.1765C204.163 92.472 203.52 93.493 202.888 94.4811C202.503 95.074 202.163 95.6229 201.918 96.2158C201.906 96.2487 201.883 96.2927 201.859 96.3256C201.731 96.5452 201.614 96.7318 201.508 96.9075L201.216 97.3796L202.608 100.509C202.69 100.684 202.807 100.893 202.912 101.112C203.274 101.815 203.637 102.518 203.695 103.144C203.73 103.528 203.649 103.868 203.38 104.154C203.228 104.395 203.052 104.582 202.842 104.714C201.859 105.405 200.433 104.933 199.333 104.582C198.737 104.395 198.14 104.198 197.684 104.187C197.614 104.187 197.556 104.176 197.485 104.165L195.895 103.758L191.509 107.667C191.299 107.853 191.042 107.985 190.773 108.051C190.585 108.095 190.387 108.106 190.188 108.084C189.708 108.029 189.264 107.777 188.96 107.392C188.761 107.118 188.632 106.8 188.609 106.448C188.597 106.404 188.597 106.36 188.609 106.316C188.679 105.131 188.527 103.978 188.363 102.748C188.258 102.002 188.165 101.255 188.106 100.487L182.972 97.4235C182.387 97.0831 182.06 96.4464 182.095 95.7766C182.142 95.1069 182.551 94.536 183.159 94.2945L183.732 94.0639C184.27 93.8443 184.867 93.6687 185.486 93.482C186.983 93.0429 188.527 92.5818 188.726 91.5607L189.814 86.3018C189.954 85.654 190.433 85.149 191.077 84.9953C191.416 84.9075 191.767 84.9404 192.082 85.0612C192.375 85.16 192.632 85.3466 192.831 85.5772L193.24 86.0712C193.451 86.3347 193.614 86.5763 193.802 86.8068C194.737 88.0584 195.696 89.343 196.749 90.1774L198.234 90.0456L202.596 89.6614C202.935 89.6284 203.274 89.6943 203.567 89.859C203.602 89.8809 203.625 89.9029 203.66 89.9249C203.894 90.0786 204.105 90.2652 204.257 90.5067C204.385 90.7153 204.432 90.9459 204.385 91.1765Z" fill="#FBB03B"/>
<path d="M203.017 104.889C202.993 104.143 202.584 103.33 202.198 102.551C202.081 102.32 201.976 102.101 201.894 101.925L200.596 98.7959L201.239 97.8956C201.286 97.8297 201.333 97.7529 201.344 97.7199C201.637 97.149 202.058 96.5781 202.502 95.9853C203.297 94.9203 204.116 93.8224 204.479 92.3842C204.561 92.0328 204.514 91.6705 204.327 91.3631C204.139 91.0557 203.87 90.7922 203.531 90.5726L203.403 90.4848C202.993 90.2652 202.526 90.1664 202.046 90.1884L195.579 90.5507C194.55 89.6724 193.591 88.3659 192.667 87.1033C192.48 86.8508 192.293 86.5983 192.059 86.2908L191.626 85.7639C191.369 85.4455 191.006 85.1929 190.597 85.0392C190.141 84.8636 189.661 84.8197 189.182 84.9185C188.258 85.0941 187.544 85.7419 187.299 86.5983L185.767 92.1207C185.545 92.9441 183.837 93.3613 182.329 93.7236C181.627 93.8993 180.913 94.0749 180.259 94.2945L179.592 94.5251C178.703 94.8215 178.083 95.5571 177.978 96.4354C177.873 97.3137 178.305 98.1591 179.101 98.6312L184.527 101.892C184.551 102.649 184.621 103.374 184.679 104.077C184.796 105.35 184.901 106.558 184.749 107.766C184.773 107.799 184.773 107.864 184.773 107.952C184.784 108.402 184.936 108.831 185.217 109.193C185.545 109.621 186.012 109.94 186.55 110.082C186.667 110.115 186.784 110.137 186.901 110.148C187.182 110.181 187.451 110.17 187.732 110.126C188.106 110.049 188.48 109.885 188.796 109.643L193.79 105.8L195.333 106.218C195.438 106.24 195.532 106.262 195.649 106.273C196.082 106.295 196.725 106.514 197.368 106.723C198.655 107.151 200.409 107.722 201.754 106.909C202.046 106.734 202.303 106.503 202.455 106.273C202.853 105.921 203.04 105.449 203.017 104.889ZM189.965 88.4757L190.152 88.7282C191.298 90.2872 192.468 91.9011 193.977 93.0319C194.082 93.1088 194.199 93.1747 194.316 93.2296C194.678 93.3833 195.076 93.4491 195.474 93.4272L200.865 93.1307C200.619 93.526 200.315 93.9212 200.011 94.3274C199.543 94.9532 199.017 95.6559 198.666 96.3366L197.883 97.4235C197.427 98.0493 197.333 98.8508 197.625 99.5534L199.064 102.99C199.169 103.231 199.298 103.484 199.426 103.736C199.497 103.879 199.625 104.132 199.73 104.384C199.298 104.296 198.655 104.088 198.362 103.989C197.602 103.736 196.748 103.451 196.082 103.418L194.316 102.946C193.836 102.814 193.333 102.825 192.842 102.979C192.632 103.045 192.456 103.122 192.304 103.22C192.222 103.264 192.152 103.319 192.07 103.374L187.907 106.58C187.919 105.625 187.837 104.692 187.755 103.78C187.685 103.034 187.626 102.265 187.603 101.464C187.58 101.101 187.474 100.739 187.287 100.421C187.088 100.102 186.808 99.8169 186.48 99.6193L181.837 96.8197C181.896 96.7977 181.954 96.7867 182.024 96.7648C182.375 96.666 182.738 96.5781 183.124 96.4793C185.264 95.9523 187.93 95.3046 188.691 92.9551L188.737 92.8453L189.965 88.4757Z" fill="#1E1E1E"/>
<path d="M67.1339 62.2908C59.041 63.5205 51.568 66.1774 44.5978 70.2176C40.107 72.8197 44.9721 79.0008 49.4395 76.4208C55.17 73.0941 61.4385 70.9423 68.0812 69.9212C73.2503 69.1307 72.3498 61.4894 67.1339 62.2908Z" fill="#FBB03B"/>
<path d="M35.5582 85.4564C35.336 86.7519 34.6927 87.773 34.0612 88.7611C33.6753 89.354 33.3361 89.9029 33.0905 90.4958C33.0788 90.5287 33.0554 90.5726 33.0321 90.6056C32.9034 90.8251 32.7865 91.0118 32.6812 91.1874L32.3888 91.6595L33.7805 94.7885C33.8624 94.9642 33.9793 95.1728 34.0846 95.3924C34.4471 96.095 34.8097 96.7977 34.8682 97.4235C34.9032 97.8078 34.8214 98.1481 34.5524 98.4336C34.4004 98.6751 34.2249 98.8617 34.0144 98.9935C33.0321 99.6852 31.6053 99.2131 30.506 98.8617C29.9095 98.6751 29.3131 98.4775 28.857 98.4665C28.7868 98.4665 28.7283 98.4555 28.6582 98.4445L27.0677 98.0383L22.6821 101.947C22.4716 102.133 22.2143 102.265 21.9453 102.331C21.7582 102.375 21.5594 102.386 21.3606 102.364C20.8811 102.309 20.4367 102.057 20.1326 101.672C19.9338 101.398 19.8051 101.079 19.7817 100.728C19.7701 100.684 19.7701 100.64 19.7817 100.596C19.8519 99.4107 19.6999 98.2579 19.5362 97.0283C19.4309 96.2817 19.3373 95.5351 19.2789 94.7666L14.1448 91.7035C13.5601 91.3631 13.2326 90.7263 13.2677 90.0566C13.3145 89.3869 13.7238 88.816 14.3319 88.5744L14.905 88.3439C15.4429 88.1243 16.0394 87.9487 16.6592 87.762C18.1562 87.3228 19.6999 86.8617 19.8987 85.8407L20.9863 80.5818C21.1267 79.934 21.6062 79.429 22.2494 79.2753C22.5885 79.1874 22.9394 79.2204 23.2551 79.3411C23.5475 79.44 23.8048 79.6266 24.0036 79.8572L24.4129 80.3512C24.6234 80.6147 24.7872 80.8562 24.9743 81.0868C25.9099 82.3384 26.8688 83.6229 27.9214 84.4573L29.4066 84.3256L33.7688 83.9413C34.108 83.9084 34.4471 83.9743 34.7395 84.1389C34.7746 84.1609 34.798 84.1829 34.8331 84.2048C35.067 84.3585 35.2775 84.5452 35.4295 84.7867C35.5582 84.9843 35.6049 85.2259 35.5582 85.4564Z" fill="#00A99D"/>
<path d="M34.201 99.1582C34.1776 98.4116 33.7683 97.5992 33.3823 96.8197C33.2654 96.5891 33.1601 96.3695 33.0783 96.1939L31.7801 93.0649L32.4234 92.1646C32.4701 92.0987 32.5169 92.0219 32.5286 91.9889C32.821 91.418 33.242 90.8471 33.6864 90.2542C34.4817 89.1893 35.3003 88.0914 35.6628 86.6531C35.7447 86.3018 35.6979 85.9395 35.5108 85.6321C35.3237 85.3247 35.0547 85.0612 34.7156 84.8416L34.5869 84.7538C34.1776 84.5342 33.7098 84.4354 33.2303 84.4573L26.763 84.8197C25.7339 83.9413 24.7749 82.6348 23.851 81.3723C23.6639 81.1197 23.4768 80.8672 23.2429 80.5598L22.8102 80.0328C22.5529 79.7144 22.1903 79.4619 21.781 79.3082C21.3249 79.1326 20.8454 79.0886 20.3659 79.1875C19.442 79.3631 18.7286 80.0109 18.483 80.8672L16.951 86.3896C16.7288 87.2131 15.0214 87.6303 13.5127 87.9926C12.811 88.1682 12.0976 88.3439 11.4427 88.5635L10.7761 88.794C9.8873 89.0905 9.26747 89.8261 9.16222 90.7044C9.05697 91.5827 9.48968 92.4281 10.2849 92.9002L15.7114 96.1609C15.7347 96.9185 15.8049 97.6431 15.8634 98.3457C15.9803 99.6193 16.0856 100.827 15.9336 102.035C15.9219 102.101 15.9219 102.155 15.9219 102.243C15.9336 102.693 16.0856 103.122 16.3663 103.484C16.6937 103.912 17.1615 104.23 17.6995 104.373C17.8164 104.406 17.9334 104.428 18.0503 104.439C18.331 104.472 18.6 104.461 18.8807 104.417C19.2549 104.34 19.6291 104.176 19.9449 103.934L24.9386 100.091L26.4823 100.509C26.5876 100.531 26.6812 100.553 26.7981 100.563C27.2308 100.585 27.874 100.805 28.5173 101.014C29.8037 101.442 31.5579 102.013 32.9028 101.2C33.1952 101.025 33.4525 100.794 33.6045 100.563C34.0256 100.19 34.2127 99.7181 34.201 99.1582ZM21.1495 82.7556L21.3366 83.0081C22.4827 84.5671 23.6522 86.181 25.1608 87.3119C25.2661 87.3887 25.383 87.4546 25.5 87.5095C25.8625 87.6632 26.2601 87.7291 26.6578 87.7071L32.0491 87.4107C31.8035 87.8059 31.4995 88.2012 31.1954 88.6074C30.7276 89.2332 30.2013 89.9358 29.8505 90.6165L29.0669 91.7035C28.6108 92.3293 28.5173 93.1307 28.8096 93.8334L30.2481 97.2698C30.3534 97.5113 30.482 97.7638 30.6106 98.0164C30.6808 98.1591 30.8095 98.4116 30.9147 98.6641C30.482 98.5763 29.8388 98.3677 29.5464 98.2689C28.7862 98.0164 27.9325 97.7309 27.2659 97.698L25.5 97.2259C25.0205 97.0941 24.5176 97.1051 24.0264 97.2588C23.8159 97.3247 23.6405 97.4015 23.4885 97.5004C23.4066 97.5443 23.3364 97.5992 23.2546 97.6541L19.0912 100.86C19.1029 99.9047 19.021 98.9715 18.9391 98.0603C18.869 97.3137 18.8105 96.5452 18.7871 95.7437C18.7637 95.3814 18.6585 95.0191 18.4714 94.7007C18.2725 94.3823 17.9919 94.0969 17.6644 93.8993L13.0215 91.0996C13.08 91.0777 13.1385 91.0667 13.2087 91.0447C13.5595 90.9459 13.922 90.8581 14.308 90.7593C16.4481 90.2323 19.1146 89.5845 19.8747 87.235L19.9215 87.1252L21.1495 82.7556Z" fill="#1E1E1E"/>
<path d="M61.6608 58.7995C49.6735 61.8517 38.5166 67.1545 28.7397 74.3238C26.9621 75.6303 29.4648 77.9468 31.219 76.6513C40.5047 69.8444 51.229 64.8709 62.5847 61.9725C64.7716 61.4235 63.8477 58.2396 61.6608 58.7995Z" fill="#1E1E1E"/>
<path d="M79.2731 61.1381C65.2743 63.7291 51.7784 68.461 39.3935 75.0923C37.4288 76.1463 39.1947 78.9899 41.1594 77.9359C53.3104 71.4363 66.4906 66.8471 80.2087 64.311C82.419 63.9048 81.4834 60.7318 79.2731 61.1381Z" fill="#1E1E1E"/>
<path d="M57.3107 75.5314C51.2059 77.1344 45.3819 79.6376 40.1192 82.9532C39.3356 83.4473 38.9965 84.4024 39.4876 85.2039C39.9438 85.9395 41.1015 86.2908 41.8851 85.7968C46.9139 82.6348 52.4105 80.2414 58.2346 78.7044C60.4098 78.1334 59.4859 74.9605 57.3107 75.5314Z" fill="#1E1E1E"/>
</svg>
