<svg width="496" height="248" viewBox="0 0 496 248" fill="none" xmlns="http://www.w3.org/2000/svg">
<path d="M235.468 128.973C235.427 128.65 235.385 128.316 235.344 127.993C235.344 127.983 235.344 127.972 235.333 127.962C235.313 127.92 235.302 127.879 235.282 127.837C235.261 127.743 235.271 127.649 235.25 127.556C235.136 127.076 234.919 126.649 234.597 126.295C234.338 125.888 233.996 125.565 233.561 125.326C232.98 124.982 232.348 124.805 231.674 124.794C231.363 124.825 230.938 124.846 230.637 124.919C230.606 124.93 230.575 124.93 230.534 124.94C230.316 125.003 229.798 125.211 229.59 125.315C229.57 125.326 229.539 125.336 229.518 125.357C229.373 125.451 229.248 125.544 229.114 125.649C228.969 125.753 228.834 125.857 228.699 125.961C228.678 125.982 228.658 126.003 228.637 126.013L228.046 126.753C228.036 126.764 228.025 126.774 228.025 126.784C228.015 126.805 228.004 126.826 227.984 126.857C227.849 127.149 227.725 127.441 227.59 127.733C227.579 127.754 227.579 127.774 227.569 127.785C227.538 127.91 227.424 128.671 227.414 128.796C227.414 128.983 227.445 129.119 227.476 129.337C227.476 129.327 227.507 129.723 227.548 129.879C227.548 129.9 227.559 129.911 227.569 129.931C227.693 130.223 227.818 130.525 227.932 130.817C227.942 130.838 227.953 130.859 227.963 130.88C227.973 130.89 227.973 130.901 227.984 130.911C228.181 131.161 228.367 131.411 228.564 131.661C228.699 131.797 228.813 131.87 228.989 132.005C229.093 132.088 229.259 132.245 229.404 132.328C229.518 132.391 230.202 132.693 230.326 132.724C230.503 132.776 230.648 132.776 230.876 132.807C231.125 132.849 231.239 132.88 231.436 132.88C231.767 132.839 232.099 132.797 232.431 132.766C232.441 132.766 232.452 132.766 232.462 132.755C232.472 132.755 232.483 132.745 232.493 132.745C232.794 132.63 233.094 132.505 233.395 132.38C233.696 132.193 234.007 132.005 234.245 131.745C234.349 131.64 234.784 131.099 234.857 130.984C234.95 130.828 234.991 130.692 235.074 130.505C235.136 130.359 235.24 130.182 235.292 130.004C235.292 129.994 235.292 129.984 235.302 129.973C235.354 129.65 235.396 129.317 235.447 128.994C235.468 129.014 235.468 128.994 235.468 128.973Z" fill="#FBB03B"/>
<path d="M254.003 100.942C239.77 101.265 225.537 101.588 211.315 101.911C206.505 102.015 206.381 109.403 211.211 109.289C225.444 108.966 239.677 108.643 253.9 108.32C258.709 108.205 258.834 100.827 254.003 100.942Z" fill="#00A99D"/>
<path d="M303.222 122.533C300.257 120.511 296.681 120.199 293.167 120.001C287.496 119.688 281.557 119.23 275.886 119.553C274 119.657 272.59 120.136 271.491 120.855C269.625 119.073 266.028 119.094 265.313 122.272C263.903 128.556 260.503 140.269 264.784 145.969C266.65 148.449 269.335 148.667 272.258 148.782C278.053 149.022 283.868 149.084 289.663 149.23C297.147 149.418 305.472 150.241 307.721 141.456C309.297 135.288 309.027 126.514 303.222 122.533Z" fill="#FBB03B"/>
<path d="M316.014 163.569C315.858 158.181 315.692 152.783 315.537 147.396L314.583 115.051C314.469 111.018 315.299 105.256 310.188 103.995C308.001 103.453 305.648 103.703 303.419 103.724C300.63 103.745 297.842 103.755 295.053 103.755C273.16 103.724 225.019 104.912 203.208 103.109C200.721 102.901 198.233 102.682 195.745 102.453C195.185 100.681 192.096 100.827 192.096 102.984C192.065 113.79 192.054 123.356 192.023 134.162C192.013 139.56 191.992 144.968 191.982 150.366C191.971 153.117 191.971 155.868 191.961 158.619C191.951 160.755 191.785 162.985 192.251 165.09C192.666 166.945 193.796 168.55 195.6 169.321C197.87 170.29 200.741 170.04 203.157 170.165L219.608 170.988C230.575 171.53 267.603 172.176 278.758 171.759L295.209 172.582C297.904 172.718 300.589 172.853 303.284 172.989C305.679 173.103 308.208 173.458 310.603 173.072C315.547 172.28 316.128 167.664 316.014 163.569ZM312.085 167.549C311.567 169.373 309.991 169.55 308.291 169.519C305.71 169.477 303.118 169.269 300.537 169.144C295.364 168.883 290.191 168.32 285.008 168.372C274.549 168.477 238.485 168.227 228.336 167.726C223.163 167.466 217.991 167.216 212.808 166.955C210.32 166.83 207.842 166.705 205.354 166.58C204.11 166.518 202.866 166.455 201.633 166.393C200.337 166.33 198.844 166.445 197.58 166.111C195.413 165.538 195.683 162.902 195.683 161.13C195.683 158.483 195.693 155.826 195.703 153.179C195.714 147.469 195.734 141.769 195.745 136.059L195.807 106.162C215.938 107.996 262.389 107.007 282.593 107.34C287.755 107.423 292.918 107.465 298.08 107.444C300.558 107.434 303.035 107.423 305.513 107.392C307.057 107.371 310.074 106.881 310.561 108.841C310.81 109.82 310.696 110.956 310.717 111.946L310.82 115.603C310.893 118.042 310.965 120.48 311.038 122.929L311.484 138.184C311.629 143.27 311.784 148.355 311.929 153.44C312.002 155.878 312.075 158.317 312.147 160.766C312.251 162.912 312.686 165.455 312.085 167.549Z" fill="#1E1E1E"/>
<path d="M214.549 115.781C211.356 113.915 207.303 113.561 203.81 114.801C202.877 114.791 201.923 115.364 201.892 116.552C201.768 121.574 201.643 126.607 201.519 131.63C201.042 132.214 200.897 133.037 201.467 133.745C201.291 140.737 201.115 147.73 200.949 154.722C200.887 157.098 204.639 157.15 204.691 154.774C204.846 148.584 205.002 142.394 205.157 136.194C206.775 136.851 208.547 137.142 210.299 136.976C213.606 136.653 216.446 134.944 218.354 132.287C222.22 126.889 220.24 119.115 214.549 115.781ZM211.004 133.151C209.034 133.62 206.909 133.224 205.251 132.109C205.365 127.441 205.479 122.773 205.603 118.104C209.802 117.041 214.394 118.771 216.083 122.96C217.732 127.066 215.482 132.089 211.004 133.151Z" fill="#1E1E1E"/>
<path d="M224.864 153.502C224.718 153.044 224.449 152.731 224.076 152.44C224.096 152.45 224.107 152.471 224.128 152.481C223.661 152.117 223.246 151.689 222.873 151.241C222.542 150.783 222.272 150.303 222.034 149.793C221.878 149.366 221.754 148.917 221.671 148.469C222.282 147.896 222.79 147.209 223.132 146.364C224.418 143.176 222.427 139.195 218.965 138.476C217.39 138.153 215.762 138.372 214.404 139.154C214.321 139.143 214.238 139.122 214.145 139.122C213.191 139.112 212.186 139.945 212.248 140.946C212.517 145.385 212.787 149.834 213.056 154.274C213.119 155.264 213.844 156.128 214.902 156.139C215.855 156.149 216.861 155.316 216.799 154.315C216.726 153.054 216.643 151.804 216.571 150.543C217.141 150.491 217.69 150.387 218.24 150.251C218.862 152.377 220.271 154.242 222.075 155.545C222.448 155.816 223.091 155.858 223.516 155.753C223.951 155.639 224.428 155.316 224.646 154.92C224.884 154.492 225.009 153.982 224.864 153.502ZM217.441 146.688C217.141 146.76 216.84 146.823 216.529 146.865C216.477 146.875 216.425 146.875 216.374 146.875C216.363 146.875 216.353 146.875 216.343 146.875C216.249 145.395 216.166 143.926 216.073 142.446C216.135 142.415 216.166 142.384 216.166 142.373C216.135 142.394 216.104 142.415 216.073 142.436V142.426C216.073 142.426 216.073 142.426 216.083 142.415C216.146 142.363 216.166 142.353 216.166 142.373C216.197 142.353 216.239 142.321 216.27 142.301C216.374 142.248 216.467 142.196 216.571 142.144C216.622 142.123 216.664 142.113 216.705 142.103C216.84 142.061 216.985 142.03 217.13 141.998C217.141 141.998 217.151 141.998 217.161 141.988C217.421 141.977 217.669 141.977 217.929 141.998C217.96 141.998 217.991 142.009 218.011 142.019C218.157 142.05 218.291 142.092 218.426 142.134C218.447 142.144 218.468 142.144 218.478 142.155C218.602 142.217 218.727 142.28 218.851 142.363C218.872 142.373 218.903 142.394 218.924 142.415C218.996 142.478 219.069 142.54 219.141 142.613C219.173 142.644 219.204 142.686 219.245 142.717C219.307 142.822 219.39 142.936 219.452 143.03C219.473 143.061 219.483 143.103 219.494 143.134C219.494 143.113 219.525 143.124 219.546 143.207C219.556 143.238 219.566 143.27 219.577 143.301C219.587 143.322 219.598 143.343 219.608 143.353C219.598 143.343 219.598 143.332 219.587 143.322C219.598 143.353 219.608 143.374 219.618 143.405C219.66 143.52 219.691 143.645 219.712 143.759C219.722 143.801 219.732 143.843 219.732 143.895C219.691 144.114 219.753 144.395 219.732 144.614C219.691 144.76 219.66 144.906 219.608 145.052C219.598 145.083 219.587 145.104 219.577 145.135C219.525 145.229 219.473 145.333 219.421 145.416C219.328 145.573 219.038 145.833 219.401 145.479C219.297 145.573 219.214 145.698 219.11 145.791C219.017 145.885 218.913 145.969 218.82 146.052C218.81 146.062 218.799 146.062 218.789 146.073C218.561 146.219 218.322 146.344 218.084 146.458C218.032 146.479 217.949 146.51 217.918 146.521C217.763 146.604 217.607 146.646 217.441 146.688Z" fill="#1E1E1E"/>
<path d="M219.597 143.343C219.597 143.332 219.597 143.332 219.587 143.322C219.556 143.27 219.525 143.218 219.494 143.155C219.504 143.176 219.525 143.249 219.597 143.343Z" fill="#1E1E1E"/>
<path d="M232.39 150.97C232.151 147.073 231.913 143.165 231.674 139.268C231.529 136.913 227.787 136.84 227.932 139.216C228.285 145.01 228.803 150.814 228.979 156.618C229.031 158.431 229.083 160.745 227.746 162.172C226.118 163.913 223.661 163.027 222.78 161.078C221.806 158.911 218.551 160.734 219.525 162.891C220.8 165.715 223.931 167.247 226.989 166.632C230.026 166.017 231.934 163.391 232.473 160.515C233.043 157.389 232.587 154.128 232.39 150.97Z" fill="#1E1E1E"/>
<path d="M242.921 149.022C241.916 148.782 241.003 149.282 240.63 150.21C240.63 150.21 240.63 150.21 240.62 150.22C240.713 149.96 240.651 150.116 240.589 150.241C240.558 150.231 240.33 150.324 240.299 150.345C240.257 150.345 240.216 150.345 240.174 150.345C240.164 150.345 240.153 150.345 240.143 150.345C240.133 150.345 240.133 150.345 240.122 150.335C240.05 150.303 239.842 150.199 239.874 150.22C239.822 150.189 239.78 150.158 239.728 150.126C239.718 150.105 239.614 150.012 239.542 149.949C239.511 149.918 239.49 149.907 239.48 149.897C239.469 149.876 239.469 149.866 239.449 149.845C239.366 149.709 239.293 149.584 239.21 149.439C239.189 149.397 239.179 149.386 239.169 149.366C239.169 149.345 239.158 149.334 239.158 149.314C239.106 149.157 239.055 148.99 239.024 148.834C239.024 148.813 238.972 148.522 238.961 148.469C238.93 148.073 238.93 147.678 238.951 147.282C238.972 146.886 239.024 146.5 239.075 146.104C239.086 146.042 239.096 145.979 239.106 145.916C239.106 145.916 239.117 145.885 239.127 145.823C239.169 145.604 239.21 145.375 239.262 145.156C239.303 144.968 239.355 144.781 239.417 144.593C239.428 144.562 239.521 144.301 239.531 144.249C239.594 144.114 239.666 143.978 239.749 143.853C239.77 143.822 239.936 143.603 239.936 143.603C240.019 143.52 240.102 143.436 240.185 143.353C240.216 143.332 240.226 143.311 240.236 143.301C240.257 143.291 240.278 143.28 240.319 143.259C240.464 143.186 240.755 143.113 240.464 143.186C240.516 143.176 240.568 143.165 240.62 143.155C240.703 143.165 240.775 143.176 240.807 143.176C240.869 143.197 240.91 143.207 240.9 143.197C240.91 143.207 240.931 143.207 240.941 143.218C240.962 143.259 240.993 143.301 241.014 143.353C241.449 144.218 242.745 144.562 243.564 144.051C244.466 143.499 244.735 142.467 244.269 141.54C243.367 139.727 240.983 139.018 239.138 139.758C237.251 140.508 236.111 142.228 235.655 144.135C235.219 145.989 234.929 148.167 235.468 150.033C235.966 151.762 237.261 153.409 239.086 153.888C241.221 154.451 243.46 153.357 244.207 151.304C244.528 150.397 243.865 149.241 242.921 149.022Z" fill="#1E1E1E"/>
<path d="M253.184 147.99C253.257 149.605 251.619 149.543 250.955 148.324C250.053 146.656 250.178 144.218 250.147 142.384C250.126 141.425 250.157 140.477 250.209 139.529C250.821 139.591 251.432 139.633 252.044 139.633C253.018 139.622 253.972 138.831 253.941 137.809C253.91 136.83 253.143 135.934 252.096 135.944C251.608 135.944 251.09 135.934 250.592 135.882C250.924 133.725 251.442 131.599 252.127 129.504C252.873 127.243 249.266 126.222 248.53 128.473C247.845 130.578 247.317 132.735 246.964 134.912C246.902 134.881 246.84 134.85 246.767 134.819C246.135 134.516 245.523 134.162 244.943 133.766C244.134 133.224 242.839 133.558 242.372 134.391C241.864 135.308 242.144 136.34 243.015 136.924C244.103 137.653 245.285 138.237 246.529 138.674C246.332 141.404 246.384 144.166 246.747 146.886C247.099 149.532 248.426 152.356 251.37 152.877C254.366 153.409 257.092 151.012 256.947 148.032C256.812 145.687 253.07 145.614 253.184 147.99Z" fill="#1E1E1E"/>
<path d="M232.918 126.805C232.286 126.159 231.425 125.67 230.524 125.492C230.047 125.399 229.58 125.347 229.103 125.388C228.419 125.451 227.901 125.597 227.269 125.868C226.864 126.045 226.512 126.555 226.398 126.962C226.336 127.16 226.325 127.378 226.336 127.597C225.983 127.754 225.641 127.983 225.486 128.327C225.226 128.9 225.102 129.296 225.019 129.911C224.957 130.338 225.009 130.744 225.071 131.172C225.195 131.984 225.61 132.724 226.139 133.349C227.217 134.631 229.145 135.1 230.752 134.714C232.369 134.329 233.685 132.995 234.131 131.422C234.587 129.806 234.1 128.014 232.918 126.805ZM230.534 130.265C230.513 130.359 230.482 130.453 230.451 130.536C230.409 130.619 230.358 130.703 230.306 130.786C230.244 130.859 230.171 130.921 230.099 130.984C230.036 131.015 229.984 131.057 229.922 131.088C229.86 131.109 229.788 131.119 229.725 131.14C229.632 131.14 229.539 131.14 229.445 131.14C229.352 131.119 229.269 131.099 229.176 131.067C229.114 131.036 229.062 130.994 229 130.963C228.969 130.932 228.937 130.901 228.906 130.869C228.865 130.807 228.834 130.744 228.803 130.682C228.782 130.619 228.761 130.546 228.751 130.484C228.751 130.4 228.751 130.307 228.751 130.223C228.782 130.109 228.803 129.994 228.855 129.879C228.823 129.952 228.792 130.025 228.751 130.098V130.088C228.875 129.786 228.958 129.494 228.948 129.181C229.062 129.15 229.176 129.119 229.28 129.098C229.394 129.098 229.508 129.098 229.622 129.108C229.705 129.129 229.798 129.15 229.881 129.181C229.953 129.223 230.026 129.265 230.099 129.306C230.171 129.369 230.233 129.442 230.306 129.515C230.358 129.598 230.409 129.692 230.451 129.775C230.482 129.869 230.503 129.973 230.524 130.067C230.534 130.119 230.534 130.192 230.534 130.265Z" fill="#1E1E1E"/>
<path d="M308.302 141.248C308.322 138.737 308.374 136.215 308.374 133.704C308.374 131.661 308.219 129.494 307.078 127.722C304.456 123.617 298.692 123.7 294.349 123.294C288.409 122.741 282.459 122.283 276.498 121.939C275.845 121.897 275.378 122.147 275.067 122.523C271.429 121.981 267.065 121.606 264.38 124.627C261.519 127.847 262.358 132.912 262.431 136.84C262.472 139.331 262.472 141.821 262.566 144.301C262.638 146.167 262.887 148.105 264.038 149.657C266.691 153.252 272.517 152.533 276.467 152.711C281.65 152.95 286.833 153.2 292.016 153.44C294.525 153.555 297.054 153.773 299.563 153.753C301.481 153.732 303.481 153.45 305.088 152.335C308.685 149.855 308.27 145.052 308.302 141.248ZM304.3 146.979C303.481 150.72 299.459 150.105 296.432 149.96L283.682 149.366C279.535 149.168 275.389 149.001 271.242 148.782C269.853 148.709 267.977 148.72 267.054 147.49C266.069 146.177 266.318 144.03 266.287 142.499C266.246 140.331 266.215 138.164 266.173 136.007C266.132 133.902 265.904 131.693 266.194 129.598C266.774 125.461 270.693 125.555 274.072 126.066C274.788 126.17 275.492 126.003 275.959 125.524C276.114 125.576 276.27 125.607 276.456 125.617C280.769 125.878 285.081 126.18 289.383 126.534C293.084 126.847 297.065 126.868 300.682 127.754C302.134 128.108 303.564 128.733 304.176 130.182C304.922 131.922 304.611 134.152 304.601 135.975C304.58 137.809 304.57 139.654 304.549 141.488C304.539 143.29 304.684 145.208 304.3 146.979Z" fill="#1E1E1E"/>
<path d="M275.689 130.296C275.471 128.441 273.398 127.806 272.206 129.317C270.983 130.88 269.77 132.432 268.547 133.995C267.925 134.787 268.391 136.059 269.19 136.528C270.143 137.09 271.138 136.694 271.76 135.902C271.999 135.59 272.248 135.277 272.486 134.965C272.859 138.195 273.243 141.415 273.616 144.645C273.73 145.635 274.362 146.5 275.461 146.51C276.373 146.521 277.472 145.687 277.358 144.687C276.809 139.893 276.249 135.09 275.689 130.296Z" fill="#1E1E1E"/>
<path d="M289.922 142.707L285.371 142.665C285.019 142.665 284.667 142.665 284.314 142.655C284.293 142.655 284.262 142.655 284.242 142.655C284.822 141.634 285.765 140.706 286.532 139.779C287.465 138.643 288.481 137.538 289.311 136.33C290.161 135.1 290.689 133.62 290.358 132.13C290.078 130.88 289.186 129.796 288.056 129.171C285.444 127.712 282.593 128.691 280.168 130.025C278.063 131.182 279.908 134.402 282.013 133.235C282.998 132.693 284.096 132.089 285.195 132.099C285.745 132.109 286.408 132.37 286.605 132.755C286.626 132.86 286.709 133.12 286.698 133.026C286.709 133.245 286.678 133.36 286.564 133.631C286.387 134.058 285.983 134.589 285.651 135.006C284.853 136.007 284.013 137.007 283.195 137.997C282.365 138.997 281.36 139.987 280.79 141.165C280.105 142.582 280.178 144.312 281.401 145.416C282.469 146.396 283.941 146.354 285.299 146.365L289.85 146.406C292.286 146.417 292.338 142.728 289.922 142.707Z" fill="#1E1E1E"/>
<path d="M300.755 137.986C300.039 137.32 299.221 136.861 298.36 136.507C298.588 136.298 298.827 136.09 299.055 135.882C300.185 134.86 301.885 133.756 301.636 132.036C301.377 130.234 299.625 129.911 298.101 129.817C296.691 129.733 295.271 129.64 293.861 129.556C292.845 129.494 291.975 130.411 291.964 131.38C291.954 132.422 292.794 133.193 293.809 133.245C294.628 133.297 295.458 133.349 296.277 133.401C296.131 133.527 295.997 133.652 295.852 133.787C295.002 134.558 294.141 135.329 293.291 136.111C292.327 136.986 292.679 138.956 294.079 139.206C295.333 139.435 296.691 139.633 297.769 140.331C298.028 140.498 298.412 140.873 298.536 141.081C298.588 141.165 298.63 141.258 298.682 141.342C298.682 141.363 298.754 141.561 298.764 141.592C298.775 141.623 298.775 141.634 298.785 141.654C298.785 141.654 298.785 141.654 298.785 141.665C298.785 141.707 298.775 141.873 298.785 141.915C298.733 142.103 298.609 142.426 298.702 142.259C298.692 142.29 298.567 142.478 298.536 142.551C298.495 142.603 298.412 142.697 298.391 142.717C298.371 142.728 298.277 142.822 298.225 142.863C298.184 142.884 298.07 142.947 297.997 142.988C298.028 142.947 297.635 143.04 297.728 143.061C297.655 143.061 297.583 143.061 297.52 143.061C297.458 143.051 297.355 143.03 297.334 143.03C297.313 143.03 297.21 142.988 297.147 142.967C297.075 142.926 296.899 142.842 296.867 142.822C296.836 142.801 296.795 142.78 296.774 142.759C296.702 142.686 296.619 142.613 296.556 142.54C296.515 142.499 296.473 142.446 296.442 142.405C296.536 142.519 296.546 142.519 296.473 142.415C296.401 142.28 296.339 142.155 296.277 142.009C295.893 141.092 294.525 140.863 293.726 141.311C292.762 141.852 292.628 142.905 293.022 143.822C293.758 145.562 295.717 146.729 297.603 146.74C299.739 146.75 301.563 145.312 302.279 143.374C302.932 141.467 302.216 139.341 300.755 137.986Z" fill="#1E1E1E"/>
<path d="M52.1416 131.057C52.5355 126.826 48.1817 123.929 44.3254 124.898C43.0815 125.211 42.0448 125.847 41.2363 126.68C41.1948 126.712 41.143 126.732 41.1015 126.774C40.9564 126.899 40.832 127.035 40.7076 127.16C40.6454 127.201 40.5728 127.233 40.5106 127.285C40.407 127.378 40.3033 127.483 40.1997 127.576C39.7124 128.025 39.3393 128.598 39.1527 129.233C39.1008 129.348 39.049 129.452 39.0179 129.546C38.9453 129.765 38.8417 130.254 38.8209 130.484C38.8106 130.671 38.8313 130.786 38.8417 131.015C38.8728 131.474 38.9557 131.901 39.1527 132.328C39.2045 132.443 39.2667 132.537 39.3393 132.63C39.3911 132.839 39.4636 133.047 39.5466 133.245C39.6502 133.641 39.7746 134.027 39.9509 134.412C40.4381 135.465 41.4643 136.121 42.5632 136.278C42.6357 136.309 42.6979 136.34 42.7705 136.371C46.5645 137.695 51.7476 135.381 52.1416 131.057Z" fill="#FBB03B"/>
<path d="M48.4094 146.479C48.4094 146.489 48.4094 146.479 48.4094 146.479C48.4197 146.489 48.4197 146.5 48.4197 146.5C48.4197 146.489 48.4094 146.479 48.4094 146.458C48.399 146.469 48.399 146.479 48.4094 146.479Z" fill="#1E1E1E"/>
<path d="M62.6839 146.562C63.5961 143.905 64.498 141.227 65.3791 138.56C66.4054 135.475 67.4109 132.391 68.4061 129.306C68.5305 128.91 68.5305 128.514 68.3853 128.15C68.4475 127.483 68.1573 126.857 67.6286 126.566C65.5657 125.409 63.4718 124.492 61.4296 123.825C60.5588 123.544 59.6673 123.283 58.7862 123.033C57.6356 122.7 56.4331 122.356 55.2928 121.939L35.2134 114.738L35.1927 114.728C34.7573 114.572 34.3219 114.603 33.928 114.801C33.5133 115.02 33.192 115.426 33.0676 115.864C33.0469 115.916 33.0261 115.968 33.0054 116.02C31.3883 121.439 29.4394 126.774 27.2107 131.87C26.1637 134.266 24.9819 136.986 24.0386 139.727C23.1264 142.384 22.2245 145.062 21.3434 147.73C20.3171 150.814 19.3116 153.898 18.3164 156.983C18.192 157.379 18.192 157.785 18.3372 158.14C18.275 158.806 18.5652 159.432 19.0939 159.723C20.9702 160.766 22.8569 161.63 24.7228 162.276C24.9094 162.339 25.1063 162.412 25.2929 162.464C26.1637 162.745 27.0448 163.006 27.9259 163.256C29.087 163.589 30.2791 163.933 31.4297 164.35L51.5091 171.551L51.5299 171.561C51.9652 171.717 52.411 171.686 52.7945 171.478C53.2092 171.259 53.5305 170.853 53.6446 170.415C53.6653 170.363 53.686 170.321 53.7068 170.259C55.3239 164.84 57.2727 159.505 59.5015 154.409C60.5485 152.023 61.7406 149.303 62.6839 146.562ZM30.2894 159.255C30.0614 159.536 29.9577 159.88 29.9474 160.234C29.4498 160.078 28.9522 159.932 28.4443 159.796C25.9875 159.13 23.8002 158.306 21.7788 157.264C22.9709 153.565 24.1837 149.897 25.3862 146.302C25.4899 146.292 25.6039 146.281 25.7076 146.25C27.1899 145.771 28.693 145.395 30.2376 145.156C31.7407 144.926 33.3578 144.728 34.8713 144.979C37.2348 145.375 38.1885 147.5 38.5513 149.689C38.4891 149.751 38.4373 149.824 38.3751 149.887C35.6073 152.94 32.9017 156.066 30.2894 159.255ZM50.9908 167.706L35.0786 161.995C34.5603 161.808 34.0317 161.61 33.503 161.422C35.6695 158.775 37.8983 156.16 40.1892 153.617C41.7545 151.887 43.3094 149.991 45.051 148.365C45.9114 150.356 47.3937 152.033 49.5292 152.731C51.0841 153.242 52.8464 153.107 54.2873 152.367C54.4531 153.513 54.6294 154.659 54.7952 155.805C54.8367 156.066 54.9196 156.274 55.0233 156.462C54.5361 157.639 54.0592 158.827 53.6135 160.015C52.6909 162.464 51.8097 165.048 50.9908 167.706ZM52.95 148.594C52.8878 148.647 52.836 148.699 52.7738 148.751C52.7323 148.782 52.5768 148.886 52.5768 148.886C52.4524 148.949 52.2244 149.011 52.1207 149.095C52.0482 149.115 51.9756 149.136 51.903 149.147C51.8927 149.147 51.7579 149.178 51.6646 149.188C51.592 149.188 51.3018 149.188 51.1048 149.168C51.0841 149.157 51.0634 149.147 51.0012 149.126C50.8768 149.084 50.7628 149.053 50.6384 149.011C50.5451 148.98 50.4518 148.928 50.3585 148.897C50.3481 148.897 50.3481 148.897 50.3377 148.897C50.1408 148.782 49.9542 148.657 49.7676 148.522C49.695 148.469 49.6328 148.407 49.5603 148.355C49.5499 148.344 49.5395 148.334 49.5292 148.313C49.384 148.157 49.2493 148 49.1145 147.834C49.0523 147.761 49.0109 147.677 48.9487 147.605C48.845 147.417 48.7413 147.24 48.648 147.052C48.5547 146.865 48.4822 146.677 48.4096 146.49C48.42 146.521 48.4303 146.542 48.42 146.542C48.42 146.542 48.4096 146.51 48.3993 146.469C48.3267 146.292 48.3682 146.375 48.3993 146.458C48.3682 146.344 48.3163 146.156 48.306 146.146C48.2956 146.104 48.2749 146.073 48.2645 146.031C49.9024 145.312 51.9652 145.104 53.0226 146.74C53.2299 147.063 53.375 147.427 53.4994 147.813C53.3958 147.907 53.3025 148.021 53.2299 148.157C53.147 148.313 53.0433 148.449 52.95 148.594ZM57.8014 149.824C57.76 149.553 57.7185 149.282 57.677 149.011C57.4179 147.365 57.024 145.739 56.0599 144.364C53.9659 141.373 49.7987 141.071 46.6888 142.478C44.7607 143.343 43.1228 144.781 41.6094 146.344C40.6764 144.03 38.9971 142.071 36.4781 141.394C34.5189 140.873 32.4767 140.998 30.476 141.227C29.2632 141.363 28.0607 141.602 26.8789 141.905C26.8789 141.894 26.8893 141.884 26.8893 141.863C27.9052 138.872 29.1699 135.902 30.3827 133.037C31.3157 130.838 32.2798 128.566 33.1298 126.284C34.0524 123.836 34.9335 121.251 35.7524 118.604L51.6646 124.315C53.8104 125.096 56.0288 125.899 58.2886 126.503C60.7454 127.17 62.9327 127.993 64.9541 129.035C63.2644 134.266 61.5436 139.445 59.8436 144.447C59.232 146.26 58.5271 148.053 57.8014 149.824Z" fill="#1E1E1E"/>
<path d="M42.0862 132.933C42.2412 132.974 42.1998 132.953 42.0862 132.933V132.933Z" fill="#1E1E1E"/>
<path d="M49.2804 129.192C48.9176 126.649 46.7822 124.336 44.2735 123.804C43.4857 123.638 42.6046 123.815 42.1173 124.44C41.599 124.159 40.9667 124.138 40.3344 124.367C37.9812 125.211 36.2915 127.597 36.2086 130.088C36.1153 132.797 37.6599 135.194 40.0856 136.319C42.2106 137.309 44.8022 136.944 46.6785 135.59C48.6688 134.173 49.6225 131.578 49.2804 129.192ZM44.8126 132.109C44.8126 132.109 44.7918 132.12 44.7918 132.13C44.626 132.339 44.6882 132.234 44.7607 132.161C44.6571 132.255 44.4394 132.474 44.4083 132.495C44.3876 132.505 44.3461 132.557 44.2943 132.589C44.2839 132.589 44.2735 132.599 44.2632 132.599C44.1077 132.682 43.9418 132.755 43.7863 132.839C43.7863 132.839 43.7863 132.839 43.7759 132.839C43.6827 132.86 43.5686 132.901 43.4857 132.922C43.3095 132.964 43.1332 132.985 42.957 133.016C42.9363 133.016 42.9466 133.016 42.9363 133.026C42.8741 133.026 42.8015 133.016 42.7912 133.016C42.6149 133.016 42.4387 132.995 42.2625 132.974C42.1795 132.964 42.0759 132.933 42.0033 132.933C42.0448 132.933 42.0759 132.933 42.107 132.943C42.0862 132.943 42.0863 132.943 42.0552 132.933C41.8893 132.88 41.7131 132.828 41.5576 132.755C41.5368 132.745 41.5265 132.745 41.5057 132.735C41.4954 132.724 41.4954 132.724 41.485 132.724C41.3295 132.62 41.174 132.516 41.0185 132.401C40.9874 132.38 40.9771 132.37 40.9563 132.359C40.8734 132.276 40.7697 132.161 40.7594 132.151C40.7283 132.12 40.6039 131.984 40.5106 131.87C40.5002 131.849 40.4795 131.818 40.4484 131.745C40.4069 131.661 40.3551 131.578 40.3136 131.484C40.3033 131.453 40.2514 131.349 40.2203 131.276C40.2203 131.265 40.2203 131.265 40.2203 131.255C40.1685 131.036 40.1374 130.817 40.0856 130.598C40.0856 130.494 40.0856 130.39 40.0856 130.286C40.0959 130.182 40.0959 130.088 40.1063 129.984C40.1167 129.911 40.127 129.838 40.1374 129.765C40.1581 129.619 40.1581 129.671 40.1063 129.911C40.0648 129.754 40.2722 129.421 40.324 129.275C40.3655 129.202 40.4173 129.119 40.4588 129.046C40.5106 128.962 40.5624 128.889 40.6246 128.806C40.6453 128.775 40.7283 128.681 40.7801 128.629C40.7905 128.619 40.8112 128.598 40.8216 128.598C40.9045 128.514 40.9978 128.441 41.0911 128.358C41.1118 128.348 41.1533 128.306 41.1948 128.264C41.2051 128.264 41.1948 128.264 41.2051 128.254C41.2673 128.212 41.3295 128.181 41.3917 128.15C41.599 128.035 41.8167 127.941 42.0448 127.868C42.3143 127.774 42.532 127.587 42.7082 127.358C42.8119 127.41 42.9259 127.451 43.0399 127.483C43.1643 127.514 44.0455 127.681 44.0558 127.816C44.0558 127.806 43.6826 127.608 43.9522 127.764C44.0247 127.806 44.1077 127.858 44.1802 127.9C44.3254 127.993 44.5119 128.202 44.6778 128.275C44.7089 128.306 44.7504 128.348 44.7815 128.379C44.8955 128.514 44.9992 128.65 45.1132 128.785C45.1443 128.837 45.1754 128.889 45.2065 128.942C45.2376 129.004 45.3516 129.171 45.4138 129.317C45.4138 129.338 45.4138 129.358 45.4242 129.4C45.4449 129.483 45.4656 129.577 45.4864 129.661C45.5071 129.744 45.5175 129.827 45.5278 129.911C45.5071 130.036 45.5382 130.338 45.5278 130.421C45.5175 130.515 45.5071 130.609 45.4967 130.703C45.4967 130.723 45.4967 130.723 45.4967 130.734C45.4967 130.734 45.4967 130.734 45.4967 130.744C45.4449 130.921 45.3931 131.109 45.3309 131.286C45.2998 131.37 45.2583 131.463 45.2272 131.547C45.2065 131.588 45.2065 131.609 45.2065 131.63C45.1339 131.745 45.0199 131.891 44.9784 131.943C44.937 131.995 44.8955 132.057 44.854 132.109C44.8022 132.109 44.8126 132.109 44.8126 132.109Z" fill="#1E1E1E"/>
<path d="M44.7505 132.151C44.7712 132.13 44.7712 132.13 44.7815 132.12C44.7815 132.109 44.7918 132.109 44.7918 132.109C44.7918 132.12 44.7712 132.13 44.7505 132.151Z" fill="#1E1E1E"/>
<path d="M38.4581 211.315C36.6855 210.69 34.6226 211.086 33.2335 212.378C31.7822 213.733 31.3883 215.546 31.6475 217.453C31.7511 218.234 32.2591 218.891 32.9225 219.36C33.2231 219.745 33.5756 220.099 33.9902 220.402C35.5141 221.506 37.6599 221.569 39.2978 220.662C40.9253 219.756 41.9515 217.974 41.8997 216.098C41.8375 213.931 40.5106 212.044 38.4581 211.315Z" fill="#FBB03B"/>
<path d="M13.5585 221.986L11.7341 224.038C11.1121 224.737 11.7341 226.029 12.4908 226.195C13.1335 226.341 13.7762 226.518 14.4189 226.727C14.1287 227.175 13.8384 227.623 13.5274 228.05C13.0299 228.738 13.4342 230.145 14.2842 230.207C14.5952 230.228 14.9062 230.28 15.2171 230.353C14.7921 231.093 14.4397 231.906 14.1805 232.792C13.9525 233.583 14.2945 234.626 15.072 234.709C15.5592 234.761 16.0464 234.844 16.5337 234.949C16.2538 235.303 15.9739 235.668 15.7044 236.053C15.3001 236.637 15.4556 237.887 16.2123 238.137C16.7824 238.325 17.3422 238.512 17.9124 238.7C17.5392 239.263 17.166 239.815 16.7928 240.378C16.3471 241.045 16.5855 242.087 17.3008 242.462C17.7672 242.701 18.2026 242.753 18.6587 242.733C18.3477 243.285 18.099 243.91 17.9227 244.608C17.7569 245.286 18.3166 246.255 18.8972 246.244C19.8197 246.244 20.7423 246.234 21.6649 246.234C22.8674 246.234 22.7845 243.785 21.5716 243.785C21.2399 243.785 20.9186 243.785 20.5869 243.785C20.7734 243.566 20.9704 243.358 21.1985 243.191C21.7168 242.816 21.7479 241.92 21.3021 241.284C20.846 240.628 20.2448 240.305 19.6124 240.211C19.5917 240.211 19.5813 240.211 19.5606 240.211C19.8301 239.805 20.11 239.398 20.3795 238.992C20.7734 238.408 20.6283 237.158 19.8716 236.908C19.3429 236.73 18.8142 236.553 18.2855 236.376C18.6069 235.98 18.949 235.605 19.3014 235.24C19.8094 234.719 19.4673 233.396 18.7935 233.156C18.0368 232.885 17.28 232.667 16.5233 232.51C16.8446 231.843 17.2178 231.228 17.6843 230.676C18.1923 230.072 17.8398 228.926 17.1764 228.592C16.8343 228.415 16.4818 228.28 16.1294 228.154C16.4093 227.706 16.6788 227.248 16.9276 226.769C17.2489 226.175 16.8446 225.133 16.2849 224.914C15.7147 224.695 15.1446 224.497 14.5744 224.32C14.7196 224.163 14.8543 223.997 14.9995 223.84C15.8288 222.882 14.4086 221.016 13.5585 221.986Z" fill="#00A99D"/>
<path d="M49.7779 213.159C49.5084 212.128 49.1974 211.2 48.845 210.315L48.7828 210.148C48.4511 209.314 48.109 208.439 47.5181 207.699C46.1498 205.98 43.8277 206.074 41.9514 206.355C39.8056 206.668 37.5769 207.126 35.0994 207.751C30.4657 208.918 25.9771 210.471 21.8099 211.961C20.7214 212.357 19.6329 212.743 18.5445 213.139C17.6426 213.462 17.1554 214.17 17.3213 214.879C17.1761 215.098 17.0932 215.337 17.0932 215.598C17.031 219.516 18.192 223.246 19.322 226.862L19.4671 227.321C20.6696 231.176 21.9239 235.063 23.1989 238.898C23.852 240.857 24.5154 242.816 25.1892 244.775C25.2514 244.963 25.3136 245.171 25.3655 245.379C25.5624 246.109 25.7905 246.932 26.3917 247.463C27.1796 248.162 28.465 248.016 29.4083 247.912L29.7711 247.87C33.3889 247.536 36.9031 246.546 40.2928 245.588C41.1014 245.359 41.8996 245.14 42.7082 244.921C44.429 244.452 46.7199 243.879 49.0316 243.566L49.1249 243.556C49.8505 243.462 50.6072 243.358 51.3432 243.181C52.4628 242.91 53.5305 242.441 54.3494 241.534C55.7696 239.95 55.4275 238.033 54.9818 236.532C54.7226 235.657 54.4427 234.792 54.1732 233.917C53.8519 232.875 53.5202 231.843 53.2195 230.801C52.0481 226.8 51.4054 222.83 50.8871 219.13C50.6383 217.328 50.3274 215.212 49.7779 213.159ZM52.0689 239.013C52.0585 240.357 50.5139 240.628 48.3474 240.867C47.9017 240.919 47.487 240.961 47.1346 241.024C46.0254 241.211 44.9162 241.461 43.8277 241.732C42.3661 242.087 40.9252 242.503 39.5154 242.899C38.8416 243.087 38.1678 243.285 37.4836 243.462C36.0634 243.848 34.3737 244.296 32.6322 244.629C31.7407 244.796 30.9632 244.921 30.2583 244.994C30.1132 245.015 29.9473 245.036 29.7815 245.056C29.5534 245.088 29.3046 245.119 29.0558 245.14C29.2321 244.931 29.3772 244.671 29.4498 244.337C30.0095 241.868 30.5797 239.398 31.1395 236.928C31.8547 237.887 32.7566 238.679 33.9694 239.138C36.1567 239.961 38.8208 238.981 39.7227 236.772C39.8367 236.824 39.9404 236.876 40.0648 236.928C41.1947 237.356 42.4697 237.168 43.4545 236.48C44.3875 235.824 44.9265 234.98 45.2064 234.052C47.0102 235.417 48.7932 236.814 50.5036 238.304C50.9493 238.689 51.5091 238.898 52.0585 238.867C52.0585 238.898 52.0689 238.96 52.0689 239.013ZM41.6301 231.833C41.6301 231.864 41.6301 231.864 41.6405 231.885C41.6508 231.979 41.6508 232.073 41.6508 232.166C41.6508 232.229 41.6197 232.666 41.6405 232.656C41.6094 232.75 41.5575 232.906 41.5472 232.958C41.5057 233.021 41.4642 233.094 41.4435 233.125C41.3917 233.177 41.3295 233.229 41.3087 233.25C41.2984 233.25 41.2984 233.26 41.288 233.26C41.2776 233.25 41.2673 233.25 41.2465 233.24C40.7179 232.99 40.2203 232.729 39.6294 232.635C38.2196 232.406 36.9134 233.104 36.3951 234.448C36.2811 234.751 36.2189 235.053 36.136 235.365C36.1982 235.105 36.1671 235.23 36.1153 235.355C36.0842 235.365 36.022 235.438 36.0738 235.417C36.022 235.449 35.9805 235.48 35.9287 235.501C35.8665 235.511 35.7628 235.532 35.6902 235.553C35.6073 235.543 35.4933 235.543 35.4622 235.553C35.4414 235.553 35.4207 235.543 35.4 235.543C35.317 235.522 35.2341 235.49 35.1616 235.459C35.1408 235.438 34.9128 235.313 34.8713 235.292C34.8091 235.261 34.778 235.251 34.7676 235.24C34.7573 235.219 34.7262 235.199 34.6743 235.147C34.5396 235.022 34.4152 234.886 34.2908 234.751C34.239 234.698 34.2079 234.667 34.1871 234.657C34.1664 234.626 34.1457 234.584 34.0938 234.511C33.5652 233.709 33.2127 232.812 32.8603 231.927C32.767 231.687 32.5907 231.479 32.3834 231.322C32.5596 230.53 32.7462 229.749 32.995 228.988C33.2956 228.05 33.7207 227.175 34.8195 227.404C36.1567 227.686 37.4318 228.728 38.572 229.436C39.5776 230.072 40.5624 230.749 41.5368 231.416C41.5783 231.552 41.6094 231.697 41.6301 231.833ZM46.9998 216.056C47.3211 217.703 47.5596 219.391 47.7773 221.037C47.912 222.017 48.0468 222.996 48.2023 223.965C48.5858 226.404 49.1974 229.03 50.0786 231.989C50.203 232.406 50.3377 232.823 50.4621 233.24C48.6377 231.76 46.7614 230.343 44.8436 228.978C44.5637 228.55 44.1283 228.238 43.6411 228.123C42.1484 227.102 40.6453 226.122 39.1007 225.185C37.6805 224.32 36.1049 223.444 34.3945 223.455C30.4138 223.465 29.3461 227.456 28.6308 230.614C27.9985 233.375 27.3765 236.136 26.7442 238.887C26.2051 237.283 25.6661 235.668 25.1478 234.052L24.5051 232.104C23.4477 228.873 22.3489 225.539 21.447 222.215C20.7214 219.547 20.4104 217.484 20.4415 215.514C20.4415 215.504 20.4415 215.494 20.4415 215.483C25.5624 213.618 31.3364 211.555 37.2037 210.179C38.7483 209.814 40.2721 209.512 41.7234 209.273L42.0966 209.21C42.9362 209.064 43.9832 208.877 44.5223 209.241C44.8333 209.46 45.0302 209.867 45.2064 210.273L45.279 210.44C45.5485 211.002 45.7869 211.607 46.015 212.274C46.3986 213.399 46.7199 214.639 46.9998 216.056Z" fill="#1E1E1E"/>
<path d="M43.1538 212.826C41.6714 210.898 38.717 210.388 36.6645 211.669C36.5298 211.753 36.4054 211.867 36.2913 211.982C36.0011 211.992 35.7108 212.055 35.4828 212.222C34.9334 212.628 34.5394 212.982 34.1352 213.545C33.8553 213.951 33.6376 214.41 33.4924 214.879C33.1918 215.796 33.1607 216.848 33.3992 217.776C33.9486 219.995 35.8767 221.402 38.0536 221.725C40.189 222.038 42.283 220.944 43.4855 219.193C44.802 217.244 44.5532 214.65 43.1538 212.826ZM40.1579 217.203C40.0439 217.317 39.9402 217.421 39.8262 217.526C39.7744 217.557 39.7226 217.599 39.6707 217.63C39.5671 217.692 39.4634 217.734 39.3597 217.786C39.225 217.828 39.0798 217.859 38.9347 217.89C38.8518 217.89 38.7689 217.901 38.6859 217.901C38.6134 217.901 38.5512 217.89 38.4786 217.89C38.5097 217.901 38.5304 217.901 38.5615 217.911C38.5304 217.901 38.5097 217.901 38.4786 217.89C38.4682 217.89 38.4579 217.89 38.4475 217.89C38.3024 217.88 38.1365 217.807 38.3542 217.859C38.2609 217.838 38.1573 217.817 38.064 217.776C38.0432 217.776 38.0225 217.765 38.0018 217.755C37.9396 217.734 37.8774 217.703 37.8255 217.682C37.867 217.692 37.8774 217.692 37.9085 217.703C37.7944 217.64 37.6804 217.567 37.5767 217.494C37.5249 217.442 37.4627 217.39 37.4109 217.328C37.3902 217.296 37.3591 217.276 37.3383 217.244C37.2865 217.15 37.2347 217.057 37.1932 216.963C37.1725 216.88 37.1414 216.786 37.131 216.692C37.131 216.536 37.1206 216.379 37.131 216.213C37.1621 216.098 37.1932 215.983 37.2347 215.869C37.2865 215.785 37.3383 215.702 37.3902 215.619L37.4005 215.608C37.5145 215.494 37.8566 215.233 37.4316 215.535C37.5456 215.452 37.6493 215.369 37.7426 215.275C38.0225 215.264 38.3024 215.191 38.5615 215.035C38.6341 214.983 38.717 214.952 38.8 214.91C38.914 214.879 39.0384 214.848 39.1628 214.827C39.2146 214.827 39.2561 214.816 39.3079 214.816C39.3597 214.816 39.4012 214.827 39.453 214.827C39.5671 214.858 39.6915 214.889 39.8055 214.931H39.8159C39.8366 214.941 39.8573 214.962 39.878 214.973C39.9402 215.004 39.9921 215.046 40.0543 215.087C40.1165 215.15 40.1787 215.223 40.2201 215.275C40.2512 215.327 40.2927 215.379 40.3134 215.442C40.3342 215.483 40.3549 215.535 40.3756 215.577C40.4378 215.754 40.4793 215.942 40.5104 216.129C40.5104 216.192 40.5208 216.244 40.5208 216.306C40.5208 216.317 40.5208 216.379 40.5104 216.442C40.5104 216.452 40.5104 216.452 40.5104 216.463C40.4897 216.546 40.4689 216.629 40.4378 216.713C40.4275 216.734 40.4067 216.786 40.3964 216.838C40.3549 216.921 40.3031 217.005 40.2512 217.088C40.2098 217.13 40.1787 217.171 40.1579 217.203Z" fill="#1E1E1E"/>
<path d="M37.9087 217.713C37.919 217.713 37.919 217.724 37.9294 217.724C37.9604 217.734 37.981 217.744 38.0017 217.755C38.012 217.765 38.0327 217.765 38.043 217.775C38.0534 217.775 38.0534 217.775 38.0637 217.775C38.1257 217.796 38.105 217.765 37.9087 217.713Z" fill="#1E1E1E"/>
<path d="M38.4782 217.89C38.4369 217.88 38.3956 217.869 38.3542 217.859C38.3956 217.869 38.4369 217.88 38.4782 217.89Z" fill="#1E1E1E"/>
<path d="M491.266 158.723C489.908 155.191 487.161 152.888 483.356 152.565C479.147 152.21 474.97 154.211 471.259 155.972C466.967 158.014 462.862 160.422 458.757 162.829C449.51 168.258 439.797 173.76 428.778 173.76C428.311 173.76 427.969 173.937 427.71 174.177C426.466 173.885 424.942 175.344 425.772 176.855C426.207 177.636 426.58 178.439 426.922 179.262C426.456 179.522 426.124 180.022 426.186 180.762C426.311 182.44 426.922 183.753 428.218 184.847C428.508 185.097 428.84 185.201 429.172 185.233C429.866 185.733 430.882 185.639 431.483 184.993C432.987 183.378 435.495 183.117 437.506 182.544C439.984 181.825 442.43 180.971 444.856 180.085C449.552 178.376 454.237 176.615 458.975 175.021C468.563 171.79 478.287 168.966 488.125 166.559C489.638 166.195 491.815 166.101 492.302 164.308C492.748 162.704 491.836 160.224 491.266 158.723Z" fill="#FBB03B"/>
<path d="M452.765 143.145C452.164 142.196 451.055 141.873 449.997 142.019C449.801 142.05 449.614 142.082 449.417 142.102C449.344 142.113 449.199 142.134 449.158 142.155C449.075 142.134 449.044 142.082 448.961 141.998C448.805 141.842 448.64 141.696 448.474 141.561C447.675 140.935 446.753 140.55 445.747 140.456C443.674 140.268 441.891 141.29 440.782 143.019C440.305 143.77 439.984 144.624 439.766 145.489C439.662 145.885 439.59 146.292 439.507 146.687C439.465 146.875 439.414 147.052 439.372 147.229C439.372 147.219 439.341 147.323 439.32 147.375C439.3 147.427 439.237 147.563 439.227 147.584C439.092 147.855 439.009 147.844 438.729 148.178C438.221 148.772 438.035 149.584 438.294 150.335C438.584 151.158 439.31 151.96 439.942 152.544C440.678 153.221 441.601 153.68 442.617 153.711C443.985 153.763 444.69 152.638 444.887 151.418C444.939 151.106 444.959 150.783 445.042 150.481C445.053 150.449 445.074 150.408 445.074 150.397C445.25 150.22 445.426 150.043 445.613 149.876C446.286 149.282 447.002 148.709 447.789 148.251C448.494 147.834 449.179 147.636 449.997 147.667C450.194 147.677 450.371 147.625 450.557 147.594C450.889 147.969 451.366 148.219 451.905 148.198C452.838 148.157 453.615 147.323 453.563 146.375C453.501 145.322 453.335 144.041 452.765 143.145Z" fill="#00A99D"/>
<path d="M467.807 106.756C465.028 103.453 460.467 103.453 456.601 104.474C455.274 104.829 453.916 105.36 452.662 106.048C452.309 106.089 451.946 106.235 451.646 106.6C451.594 106.652 451.563 106.715 451.521 106.777C451.252 106.965 450.972 107.152 450.723 107.361C449.054 108.778 448.629 110.8 448.588 112.904C448.577 113.446 448.588 113.978 448.619 114.52C448.567 116.093 448.795 117.677 449.365 119.188C449.583 119.772 449.987 120.105 450.433 120.251C450.495 120.438 450.557 120.636 450.64 120.824C452.133 124.367 456.072 126.222 459.783 125.69C461.856 125.388 463.795 124.544 465.495 123.325C467.112 122.158 468.812 120.657 469.579 118.761C470.367 116.812 470.377 114.499 470.108 112.436C469.818 110.362 469.165 108.361 467.807 106.756Z" fill="#FBB03B"/>
<path d="M487.585 135.767C484.113 126.368 480.816 117.01 478.079 107.361C477.634 105.777 475.757 105.944 475.011 106.975C473.342 107.444 471.683 107.934 470.025 108.424C468.574 104.193 463.836 102.005 459.431 102.109C456.756 102.171 453.864 102.797 451.407 103.86C448.909 104.943 446.97 106.663 446.089 109.299C445.395 111.362 445.343 113.603 445.747 115.791C433.422 119.719 421.179 123.877 409.04 128.348C408.501 128.546 408.169 128.921 408.014 129.348C407.63 129.733 407.444 130.286 407.724 130.963C415.042 148.615 420.847 166.861 425.087 185.504C424.942 186.619 425.865 187.932 427.285 187.546C449.997 181.273 472.492 174.218 494.728 166.403C494.769 166.393 494.79 166.361 494.831 166.34C495.66 166.08 496.282 165.288 495.868 164.246C492.209 155.013 491.016 145.072 487.585 135.767ZM449.023 112.165C449.168 110.31 449.914 108.715 451.511 107.715C453.149 106.683 455.222 106.183 457.098 105.85C460.768 105.204 466.687 105.923 466.987 110.758C467.019 111.279 467.247 111.654 467.547 111.925C467.568 112.05 467.568 112.175 467.62 112.311C468.428 114.311 469.444 116.552 468.926 118.761C468.491 120.657 466.573 121.866 464.987 122.762C461.514 124.711 457.357 124.867 453.957 122.679C450.536 120.459 448.691 116.208 449.023 112.165ZM446.753 119.136C447.603 121.105 448.836 122.898 450.36 124.263C454.372 127.879 460.073 128.723 465.008 126.607C467.651 125.472 470.678 123.638 471.87 120.866C473.176 117.833 472.264 114.655 471.113 111.737C472.533 111.321 473.954 110.893 475.384 110.487C477.903 119.063 480.826 127.441 483.905 135.829C482.837 135.35 481.77 134.881 480.692 134.433C479.593 133.985 478.339 133.276 477.126 133.589C475.902 133.902 475.052 134.944 474.327 135.923C471.683 139.466 470.16 143.811 468.47 147.886C463.929 145.76 459.399 143.634 454.859 141.498C450.65 139.529 444.171 134.777 440.139 139.404C438.408 141.394 437.309 144.134 436.262 146.531C435.08 149.22 434.075 151.992 433.245 154.805C431.618 160.317 431.369 166.455 428.342 171.446C428.239 171.624 428.197 171.801 428.156 171.967C427.109 172.145 426.031 172.238 425.409 171.874C425.346 171.832 425.284 171.842 425.222 171.811C421.511 157.983 416.939 144.416 411.518 131.161C423.18 126.889 434.935 122.908 446.753 119.136ZM451.915 147.532C452.216 147.552 451.531 147.396 451.448 147.365C450.536 147.052 449.697 146.604 448.722 146.51C447.52 146.406 446.379 146.854 445.56 147.75C444.804 148.574 444.379 149.668 444.151 150.751C444.026 151.325 443.964 151.908 443.819 152.471C443.819 152.45 443.695 152.867 443.622 153.044C443.01 152.825 441.466 152.002 441.341 151.919C440.408 151.262 439.579 150.46 438.75 149.668C439.486 147.865 440.263 146.083 441.165 144.353C441.725 143.27 442.285 141.832 443.384 141.196C444.731 140.414 446.172 141.269 447.447 141.863C449.303 142.728 451.158 143.603 453.003 144.468C452.931 145.27 452.775 146.052 452.413 146.781C452.299 147.011 452.185 147.271 452.019 147.459C452.019 147.469 452.164 147.542 451.915 147.532ZM437.433 153.2C439.144 154.753 441.093 156.233 443.394 156.545C444.98 156.764 446.162 155.878 446.794 154.461C447.343 153.232 447.25 151.804 447.81 150.606C448.204 149.762 448.577 149.96 449.355 150.262C450.484 150.699 451.563 151.168 452.796 150.897C454.869 150.428 455.896 148.188 456.31 146.041C461.151 148.313 465.992 150.585 470.833 152.856C467.392 154.378 464.106 156.431 461.162 158.546C455.968 162.276 450.941 166.059 444.866 168.237C441.766 169.342 438.553 170.133 435.319 170.748C434.355 170.936 433.38 171.071 432.416 171.228C434.168 167.466 434.738 163.308 435.681 159.265C436.148 157.191 436.76 155.18 437.433 153.2ZM491.97 163.673C470.937 171.03 449.676 177.699 428.207 183.67C427.585 180.971 426.922 178.282 426.238 175.594C428.114 175.667 430.187 175.083 431.846 174.823C434.717 174.385 437.589 173.864 440.419 173.176C446.535 171.676 452.122 169.144 457.305 165.58C465.92 159.651 478.556 148.396 489.368 156.306C489.493 156.399 489.627 156.462 489.752 156.524C490.405 158.932 491.11 161.318 491.97 163.673ZM488.549 151.887C483.967 149.782 479.126 150.022 474.451 151.481C474.389 151.002 474.13 150.543 473.549 150.272C472.907 149.97 472.254 149.668 471.611 149.366C473.031 145.948 474.337 142.373 476.276 139.226C476.483 138.893 476.69 138.57 476.929 138.257C477.177 137.924 477.706 137.518 477.851 137.142C477.872 137.09 477.893 137.069 477.903 137.049C478.09 137.101 478.297 137.215 478.453 137.278C478.96 137.476 479.458 137.684 479.956 137.903C481.832 138.695 483.677 139.56 485.512 140.467C486.673 144.228 487.596 148.063 488.549 151.887Z" fill="#1E1E1E"/>
<path d="M462.924 108.976C461.929 108.799 461.152 109.372 460.851 110.299C460.436 111.623 460.011 112.946 459.597 114.27C459.504 114.551 459.421 114.832 459.327 115.103C459.296 115.207 459.255 115.312 459.224 115.416C459.213 115.437 459.11 115.708 459.11 115.718C459.027 115.906 458.944 116.093 458.85 116.281C458.685 116.229 458.529 116.166 458.363 116.114L457.067 115.676C456.145 115.364 455.212 115.041 454.289 114.728C453.429 114.436 452.372 115.197 452.216 116.051C452.04 117.073 452.62 117.823 453.533 118.136L457.42 119.459C458.083 119.688 458.788 120.032 459.483 120.042C460.53 120.063 461.141 119.23 461.629 118.427C462.282 117.354 462.624 116.104 462.997 114.916C463.401 113.623 463.816 112.331 464.22 111.029C464.521 110.185 463.795 109.132 462.924 108.976Z" fill="#1E1E1E"/>
<path d="M429.493 130.098C427.783 129.067 425.855 129.171 424.03 129.806C422.341 130.39 420.63 131.286 419.842 132.995C419.832 133.016 419.832 133.037 419.822 133.058C419.604 133.151 419.417 133.287 419.272 133.485C417.313 136.017 418.09 139.789 419.594 142.373C420.35 143.666 421.511 144.77 422.911 145.302C424.466 145.896 426.114 145.833 427.69 145.343C430.727 144.416 433.733 142.269 434.106 138.883C434.49 135.433 432.417 131.859 429.493 130.098ZM430.685 137.757C430.717 138.362 430.685 138.435 430.54 139.049C430.478 139.341 430.26 139.758 430.022 140.039C429.649 140.477 429.327 140.685 428.788 141.008C428.571 141.144 428.343 141.269 428.125 141.394C428.011 141.456 427.897 141.519 427.783 141.571C428.001 141.456 427.503 141.696 427.503 141.696C427.037 141.894 426.549 142.05 426.062 142.175C426.021 142.186 425.99 142.196 425.958 142.207C425.948 142.207 425.927 142.207 425.876 142.217C425.751 142.228 425.627 142.248 425.502 142.248C425.378 142.259 425.254 142.259 425.139 142.259C425.067 142.259 424.984 142.259 424.911 142.248C424.901 142.248 424.891 142.248 424.86 142.238C424.31 142.155 424.186 142.103 423.678 141.821C423.657 141.811 423.605 141.769 423.574 141.748C423.502 141.696 423.429 141.634 423.367 141.571C423.284 141.498 423.201 141.415 423.118 141.342C423.056 141.29 423.035 141.279 423.025 141.269C423.014 141.258 423.004 141.238 422.963 141.175C422.216 140.185 421.988 139.518 421.677 138.226C421.677 138.205 421.656 138.143 421.646 138.091C421.625 137.934 421.594 137.778 421.584 137.622C421.553 137.351 421.542 137.069 421.553 136.799C421.553 136.736 421.553 136.715 421.542 136.715C421.542 136.684 421.553 136.663 421.563 136.621C421.584 136.475 421.615 136.33 421.656 136.184C421.667 136.132 421.667 136.121 421.656 136.121C421.677 136.09 421.677 136.09 421.708 136.027C421.739 135.975 421.999 135.59 421.833 135.798C421.947 135.652 422.019 135.496 422.081 135.329C422.424 135.173 422.735 134.933 422.9 134.579C423.087 134.162 423.18 134.079 423.533 133.839C423.73 133.704 423.927 133.589 424.134 133.485C424.155 133.474 424.165 133.474 424.207 133.454C424.372 133.381 424.538 133.318 424.704 133.256C424.953 133.162 425.202 133.068 425.461 132.995C425.544 132.964 426.093 132.818 426.01 132.839C426.238 132.797 426.653 132.766 426.798 132.787C426.653 132.776 427.016 132.828 427.037 132.839C427.119 132.86 427.202 132.88 427.285 132.901C427.296 132.901 427.296 132.901 427.306 132.912C428.198 133.287 428.882 133.985 429.462 134.787C430.157 135.704 430.634 136.746 430.685 137.757Z" fill="#1E1E1E"/>
<path d="M38.2302 42.9417C38.7174 42.1498 38.3027 41.337 38.0125 40.5554C37.5564 39.3363 37.1417 38.1066 37.5875 36.8145C38.1576 35.1577 39.3497 33.7822 39.8991 32.0732C40.4174 30.4476 40.6559 28.7491 40.6455 27.0401C40.5937 19.3707 35.1618 13.0663 28.1127 10.6696C27.4804 10.6488 26.848 10.6488 26.2157 10.6801C24.0388 10.7739 21.8723 11.1907 19.7783 11.7534C17.477 12.3682 15.1653 13.0663 13.1335 14.3481C13.1335 14.3585 13.1232 14.3481 13.1232 14.3585C11.8896 13.7437 10.459 14.1501 9.5468 15.2025C4.35332 21.236 2.29044 31.2917 6.62353 38.3672C8.80043 41.9309 12.667 43.4836 16.6373 44.0463C18.6587 44.3381 20.7838 44.536 22.8985 44.5673C22.9814 44.6611 23.0644 44.7549 23.1369 44.8487C23.3754 45.13 23.5827 45.4322 23.8211 45.724C25.3657 47.5371 27.2005 47.7247 29.4189 47.3808C29.4603 47.3704 29.5018 47.36 29.5433 47.36C31.4818 46.4534 33.4306 45.5468 35.3795 44.6298C36.2398 44.2234 37.7015 43.7858 38.2302 42.9417ZM29.3981 16.4321C29.6988 14.9837 31.8549 15.734 31.5543 17.1616C29.9786 24.7581 30.8598 32.7818 33.9696 39.8781C34.5605 41.2223 32.5287 42.2436 31.9275 40.8993C28.5481 33.1986 27.6981 24.6643 29.3981 16.4321ZM11.4335 25.2478C11.0706 24.7476 11.0292 24.0807 11.5268 23.6327C11.9518 23.2575 12.7811 23.2263 13.1335 23.7264C13.486 24.2162 14.2116 24.8727 14.8336 24.9873C15.1653 25.0498 15.4867 24.8623 15.7562 24.6226C15.5592 24.4455 15.3623 24.2579 15.1964 24.0391C14.2531 22.8407 13.8695 20.4753 15.6007 19.7563C17.5184 18.9435 18.8764 21.4756 18.8764 23.0387C18.8764 23.1533 18.866 23.2784 18.8453 23.4034C19.0734 23.3826 19.3014 23.32 19.4984 23.2054C19.685 23.1012 19.8405 22.9553 19.9752 22.7886C19.8301 22.6844 19.6746 22.5698 19.5399 22.4447C18.8971 21.8508 18.3063 20.8921 18.4099 19.9647C18.5032 19.1102 19.1978 18.4537 20.0789 18.4954C21.5509 18.5683 22.4631 19.9855 22.629 21.361C22.8363 21.3714 23.0436 21.3714 23.2406 21.3402C23.7796 21.2568 24.0803 21.0797 24.1736 20.517C24.2876 19.8813 24.2772 19.1623 23.9455 18.5996C23.1888 17.3283 25.2413 16.3175 25.9773 17.5784C26.9413 19.1936 26.7029 22.08 24.9925 23.1116C24.1632 23.6118 23.1369 23.7577 22.1521 23.6222C21.3125 25.1124 19.5917 25.8105 17.9642 25.5813C17.5081 26.1857 16.9172 26.6858 16.2434 26.988C14.533 27.7487 12.4493 26.6754 11.4335 25.2478ZM25.1894 44.6194C24.2358 41.2536 21.8308 38.1796 19.3533 35.7725C16.8654 33.3653 13.8903 31.4897 10.6664 30.2601C9.29801 29.739 10.0236 27.5612 11.392 28.0926C14.9994 29.4681 18.2752 31.5522 21.0533 34.2511C23.8418 36.95 26.3505 40.3991 27.4182 44.1922C27.8432 45.5989 25.5937 46.0262 25.1894 44.6194Z" fill="#00A99D"/>
<path d="M42.8431 29.0617C42.6357 31.0728 42.1071 33.0319 41.2467 34.845C40.832 35.7308 40.0442 36.6061 39.7643 37.5335C39.4844 38.4609 40.0338 39.3884 40.3344 40.2324C40.5625 40.8785 40.7076 41.5245 40.7076 42.1498C41.3607 41.3578 41.8272 40.4304 41.993 39.3884C42.1278 38.5026 41.9827 37.6377 41.9827 36.752C41.9827 36.7728 41.993 36.679 42.0138 36.4602C42.0345 36.4185 42.0656 36.3456 42.0967 36.2518C42.2211 35.9705 42.3662 35.6891 42.4699 35.3973C42.8845 34.3136 42.9364 33.2299 42.7912 32.1566C43.2266 29.9891 43.2785 27.7071 43.2266 25.4458C43.123 21.0171 41.6302 16.8073 38.0953 14.0042C37.4734 13.5144 36.8203 13.0768 36.1465 12.7016C40.7387 16.7448 43.4754 22.6531 42.8431 29.0617Z" fill="#00A99D"/>
<path d="M4.64342 17.2761C4.405 17.7555 4.47756 18.2974 4.77818 18.7037C5.12027 19.1622 5.72151 19.4019 6.33311 19.3394C6.91362 19.2665 7.39047 18.9122 7.61853 18.3599C10.9254 10.5862 20.5556 8.56467 27.9778 11.0968C35.2445 13.5769 40.1581 19.9855 40.21 27.0505C40.2203 28.7699 39.9819 30.4163 39.4843 31.9377C39.2148 32.7713 38.7898 33.5216 38.3337 34.3136C37.9087 35.0638 37.4629 35.8245 37.1727 36.6686C36.6854 38.0649 37.0794 39.3258 37.5977 40.7117L37.691 40.9618C37.9916 41.7225 38.1574 42.2227 37.8465 42.702C37.5147 43.2439 36.5818 43.6294 35.8354 43.9316C35.597 44.0254 35.3793 44.1192 35.1927 44.213L29.1907 47.0161C28.9315 47.1411 28.6309 47.287 28.3199 47.4537C26.7131 48.2769 24.5155 49.4023 23.2093 48.3395C22.7429 47.9643 22.4837 47.4329 22.2142 46.8598C21.8099 46.0261 21.3538 45.0779 20.1306 44.6402C19.1769 44.3068 18.1403 44.2546 17.1347 44.2025C16.2951 44.1609 15.5072 44.1296 14.7609 43.9316C10.718 42.9 7.27644 40.3053 5.30686 36.8353C4.22877 34.9284 3.56533 32.8547 3.33727 30.6872C3.03665 27.8008 3.37874 25.675 4.35316 24.362C4.68488 23.9244 4.75745 23.4034 4.56049 22.9344C4.33243 22.403 3.80375 22.0174 3.20251 21.9341C2.63237 21.8611 2.09333 22.0904 1.74087 22.5697C-0.871417 26.0502 -0.135414 31.8231 1.29513 35.6995C2.79823 39.7947 5.86663 43.3064 9.71251 45.3488C11.5681 46.3387 13.5376 47.0056 15.5902 47.3495C16.264 47.4641 16.9274 47.4954 17.5701 47.5267C17.8915 47.5475 18.2128 47.5579 18.5342 47.5892C19.2183 47.6413 19.4568 48.0998 19.83 48.8917C19.9751 49.2148 20.1306 49.5482 20.3483 49.8608C23.0642 53.7998 28.2059 51.1738 31.606 49.444C32.1347 49.1731 32.6322 48.923 33.078 48.7146C33.6481 48.4541 34.2494 48.204 34.861 47.9435C36.5714 47.2349 38.344 46.5055 39.6813 45.3384C40.21 44.8695 40.6039 44.338 40.8423 43.744C41.0393 43.2543 41.1326 42.7333 41.1222 42.1601C41.1222 41.5141 40.9771 40.8263 40.7179 40.0969C40.6557 39.9197 40.5831 39.7426 40.5106 39.555C40.2514 38.9194 39.9819 38.2525 40.1581 37.6689C40.3136 37.1792 40.635 36.6686 40.9563 36.1684C41.1948 35.8037 41.4332 35.4285 41.6198 35.043C42.4905 33.1986 43.0503 31.2083 43.2576 29.1033C43.8796 22.8302 41.3813 16.7343 36.4056 12.3681C34.7884 10.9509 32.9847 9.78386 31.0255 8.8877C25.6765 6.44932 19.322 6.22007 14.0456 8.28332C9.68141 10.0027 6.41604 13.108 4.64342 17.2761Z" fill="#1E1E1E"/>
<path d="M44.056 47.2662C43.8798 47.0682 43.7139 46.8598 43.5584 46.6306C43.3822 46.4639 43.1956 46.318 42.9572 46.2033C41.651 45.599 40.3967 46.318 39.3912 46.9015L39.1113 47.0578C37.7948 47.8081 36.3021 48.5479 34.5709 49.3191C32.8812 50.0797 31.2019 50.7571 29.3463 51.4969L29.2427 51.5386C27.7603 52.1326 26.3608 52.6953 24.8474 52.4869C23.9973 52.3722 23.3132 52.8933 23.1888 53.7582C23.0747 54.5709 23.5205 55.4984 24.5571 55.6443C27.1383 56.009 29.761 54.8523 32.0623 53.8415C32.5184 53.6435 32.9641 53.4455 33.3995 53.2684C33.7105 53.1433 34.0111 53.0079 34.3117 52.8828L34.2184 52.9454C33.9697 53.0808 33.6898 53.2267 33.4099 53.3726C32.3007 53.9457 31.036 54.6022 30.2896 55.54C29.7921 56.1653 29.6366 56.9364 29.8854 57.6137C30.1238 58.2806 30.7043 58.76 31.4714 58.9163C33.1196 59.2601 34.8923 58.7808 36.3124 58.3848C37.7326 57.9993 39.1528 57.6033 40.5729 57.1969L41.8998 56.8218C42.4492 56.6655 42.8017 56.3112 42.9675 55.8839C43.1127 55.5192 43.123 55.1128 43.0297 54.7481C42.8017 53.9145 42.0553 53.4872 41.2364 53.7165L37.5149 54.7481C38.5412 54.175 39.5467 53.5914 40.5107 52.9454L40.6455 52.8516C41.8273 52.0492 43.1749 51.1426 43.9212 49.8609C44.3463 49.1419 44.4603 48.3187 44.2322 47.5997C44.17 47.4955 44.1182 47.3808 44.056 47.2662Z" fill="#1E1E1E"/>
<path d="M38.9766 58.5203C38.4583 58.9892 37.318 60.2396 37.7223 61.7714C37.9192 62.5321 38.6967 63.2199 39.5882 63.001C40.0236 62.8968 40.4175 62.6051 40.6455 62.2195C40.8321 61.9069 40.9047 61.5526 40.8321 61.1983C40.8529 61.167 40.8632 61.1358 40.884 61.1045C40.9358 61.042 40.998 60.9795 41.0705 60.917C41.1949 60.8023 41.3297 60.7085 41.4645 60.5939C41.7651 60.4064 42.045 60.2709 42.3041 60.1771C42.4389 60.1354 42.5633 60.0937 42.698 60.0729C43.1127 59.9895 43.4962 59.7186 43.7347 59.3435C43.7865 59.2601 43.8383 59.1663 43.8694 59.0725C43.9835 58.7912 44.0042 58.4786 43.942 58.1764C43.7036 57.3115 42.8846 56.78 42.0761 56.9468C40.9151 57.1969 39.837 57.7387 38.9766 58.5203Z" fill="#1E1E1E"/>
<path d="M11.5578 27.6654C11.0395 27.4674 10.5108 27.5403 10.1065 27.8738C9.66077 28.2385 9.43272 28.8637 9.52601 29.4577C9.61931 30.0204 9.98213 30.458 10.5212 30.656C13.7036 31.8752 16.658 33.7509 19.0629 36.0746C22.007 38.9298 23.9869 41.9205 24.7851 44.7236C24.951 45.2967 25.376 45.7135 25.9461 45.8594C26.537 46.0053 27.1693 45.8386 27.5633 45.4322C27.6877 45.3071 27.7706 45.1613 27.8328 45.005C27.9468 44.7132 27.9572 44.3797 27.8639 44.0463C26.6303 39.6593 23.6552 36.1163 21.3746 33.9072C18.5446 31.177 15.2482 29.0825 11.5578 27.6654Z" fill="#1E1E1E"/>
<path d="M34.4151 40.9201C34.5602 40.5658 34.5706 40.149 34.3736 39.7009C31.2845 32.6671 30.4345 24.6955 31.9894 17.2553C32.2071 16.2237 31.4711 15.4213 30.6418 15.2442C29.8228 15.0775 29.149 15.5255 28.9728 16.3383C27.2313 24.7476 28.1228 33.3028 31.5333 41.0764C31.9272 41.9726 32.8394 42.1393 33.5236 41.8267C33.9175 41.66 34.2492 41.3265 34.4151 40.9201Z" fill="#1E1E1E"/>
<path d="M16.4092 27.4048C17.0519 27.1131 17.6428 26.6546 18.1404 26.0606C19.8404 26.2065 21.4783 25.4354 22.3594 24.1016C23.3961 24.1849 24.3912 23.9765 25.1894 23.4972C25.8529 23.1012 26.3193 22.476 26.6096 21.7465C27.1694 20.3398 27.045 18.5475 26.3297 17.3491C26.0291 16.8385 25.5315 16.5572 24.951 16.5572C24.3394 16.5676 23.7692 16.8906 23.4894 17.3908C23.2406 17.8285 23.2613 18.3495 23.5412 18.8288C23.7692 19.2039 23.8314 19.7771 23.7174 20.444C23.6759 20.7253 23.6241 20.8191 23.1576 20.8921C23.1058 20.9025 23.0436 20.9025 22.9814 20.9129C22.6912 19.5166 21.7167 18.1202 20.0789 18.0473C19.0008 17.9952 18.0989 18.7767 17.9538 19.8709C17.8294 19.7458 17.6946 19.6416 17.5495 19.5478C16.8861 19.0997 16.1397 19.0268 15.4037 19.3394C14.6988 19.6416 14.2219 20.1939 14.025 20.9442C13.714 22.1634 14.2219 23.5388 14.8232 24.31C14.8854 24.3829 14.9476 24.4663 15.0201 24.5392C14.9787 24.5496 14.9372 24.5496 14.8957 24.5392C14.45 24.4558 13.7969 23.914 13.4756 23.4555C13.2579 23.1429 12.9054 22.9553 12.4908 22.9032C12.0243 22.8511 11.5371 22.997 11.2157 23.2888C10.5938 23.8515 10.5316 24.758 11.0602 25.4979C12.2109 27.1026 14.5226 28.2489 16.4092 27.4048Z" fill="#1E1E1E"/>
<path d="M20.9701 0.124154C20.5866 0.176256 20.2445 0.395085 20.0061 0.738959C19.7366 1.13494 19.6329 1.65596 19.7366 2.09362C19.9439 2.91683 20.7006 3.39617 21.6336 3.28154C24.9508 2.86473 28.6412 3.86509 32.9121 6.32431C33.42 6.61608 33.9901 6.6265 34.4774 6.33473C34.8194 6.13674 35.0786 5.82413 35.2237 5.46983C35.3067 5.27185 35.3481 5.05302 35.3481 4.84461C35.3481 4.30275 35.0579 3.82341 34.5603 3.54206C29.6467 0.718118 25.1996 -0.396868 20.9701 0.124154Z" fill="#1E1E1E"/>
<path d="M483.408 31.8857C483.657 33.8551 483.201 35.6057 482.776 37.2939C482.506 38.3046 482.268 39.2529 482.185 40.2012C482.175 40.2533 482.164 40.3262 482.154 40.3887C482.071 40.7534 481.988 41.0869 481.926 41.3787L481.729 42.181L484.942 46.1825C485.139 46.4117 485.378 46.6722 485.616 46.9432C486.404 47.8185 487.202 48.7042 487.544 49.5795C487.752 50.1214 487.783 50.6529 487.544 51.1739C487.43 51.5907 487.275 51.9241 487.057 52.1951C486.02 53.581 483.875 53.4872 482.237 53.4143C481.356 53.3726 480.454 53.3309 479.832 53.4872C479.738 53.5185 479.645 53.5289 479.552 53.5289L477.23 53.5706L472.928 61.0003C472.721 61.3546 472.43 61.6568 472.099 61.8548C471.86 62.0007 471.601 62.0945 471.321 62.1362C470.647 62.2508 469.932 62.0632 469.362 61.6151C468.978 61.3025 468.667 60.8857 468.481 60.396C468.45 60.3334 468.429 60.2605 468.429 60.2084C468.025 58.4578 467.32 56.8426 466.584 55.1232C466.138 54.0812 465.682 53.0391 465.278 51.9346L457.005 49.5274C456.072 49.2565 455.347 48.475 455.119 47.485C454.891 46.4847 455.202 45.4947 455.938 44.9008L456.622 44.3381C457.254 43.7962 457.99 43.3064 458.757 42.7958C460.602 41.5558 462.51 40.2845 462.354 38.711L461.608 30.6248C461.525 29.6244 461.96 28.7074 462.769 28.2281C463.194 27.9676 463.681 27.8738 464.158 27.9155C464.593 27.9467 465.018 28.103 465.402 28.374L466.159 28.9262C466.553 29.2284 466.884 29.4994 467.226 29.7703C469.02 31.2083 470.875 32.6984 472.648 33.5112L474.618 32.7297L480.371 30.4372C480.817 30.2601 481.304 30.2184 481.77 30.3434C481.822 30.3538 481.874 30.3851 481.926 30.3955C482.309 30.5206 482.672 30.7081 482.973 30.9999C483.201 31.2083 483.367 31.5314 483.408 31.8857Z" fill="#FBB03B"/>
<path d="M482.921 32.6568C482.599 32.3442 482.206 32.1253 481.781 31.9899C481.729 31.969 481.677 31.9378 481.615 31.9273C481.096 31.8023 480.547 31.8336 480.029 32.0211L473.405 34.397L471.145 35.2098C469.217 34.324 467.257 32.7089 465.34 31.1458C464.977 30.854 464.624 30.5519 464.199 30.2184L463.391 29.6349C462.976 29.3327 462.51 29.1764 462.033 29.1243C461.504 29.0722 460.955 29.1659 460.457 29.4264C459.514 29.9266 458.944 30.9061 458.975 31.9794L459.213 40.618C459.265 42.3061 457.036 43.6399 454.891 44.932C453.989 45.4739 453.128 45.9845 452.382 46.5576L451.573 47.1516C450.713 47.7768 450.288 48.8397 450.474 49.8922C450.661 50.9551 451.407 51.7991 452.434 52.1013L461.535 54.7689C461.898 55.9569 462.333 57.0718 462.758 58.1973C463.463 60.0417 464.127 61.7819 464.448 63.6471C464.459 63.7097 464.479 63.7826 464.5 63.8555C464.666 64.3766 464.977 64.8246 465.402 65.1685C466.014 65.6583 466.801 65.8667 467.568 65.7521C467.879 65.7104 468.18 65.6062 468.46 65.4603C468.854 65.2519 469.196 64.9393 469.455 64.5641L474.814 56.6863L477.437 56.6759C477.541 56.6759 477.644 56.6654 477.748 56.6342C478.443 56.4779 479.458 56.53 480.454 56.5821C482.288 56.6863 484.683 56.8113 485.948 55.3525C486.207 55.0607 486.414 54.696 486.559 54.2688C486.87 53.7165 486.87 53.1433 486.684 52.5702C486.373 51.622 485.543 50.6633 484.725 49.7254C484.476 49.4337 484.227 49.1523 484.03 48.9022L480.723 44.5882L481.003 43.7233C481.096 43.4211 481.21 43.0668 481.335 42.6812C481.356 42.6083 481.376 42.5353 481.376 42.4832C481.542 41.4725 481.884 40.4617 482.247 39.378C482.859 37.5752 483.491 35.7204 483.367 33.6155C483.346 33.2612 483.19 32.9173 482.921 32.6568ZM479.438 38.4297C479.054 39.5551 478.66 40.7118 478.474 41.8684C478.36 42.2227 478.266 42.5458 478.173 42.8167L477.872 43.7754C477.593 44.6507 477.758 45.6094 478.318 46.3388L481.708 50.7571C481.946 51.0593 482.226 51.3719 482.496 51.6845C482.682 51.9033 483.045 52.3306 483.356 52.7161C483.522 52.9245 483.678 53.1225 483.771 53.2788C483.501 53.706 482.506 53.7269 480.62 53.6227C479.479 53.5602 478.287 53.4976 477.333 53.706L474.732 53.7165C474.161 53.7165 473.612 53.904 473.145 54.2271C472.959 54.3625 472.783 54.5084 472.638 54.6751C472.565 54.7585 472.503 54.8419 472.441 54.9357L468.481 60.7607L467.268 62.5217C466.874 60.6044 466.2 58.8329 465.537 57.1031C465.132 56.0298 464.707 54.9252 464.345 53.7582C464.199 53.3309 463.961 52.9454 463.64 52.6327C463.318 52.3201 462.914 52.0805 462.489 51.9554L453.636 49.3399L454.165 48.9543C454.434 48.7563 454.735 48.5479 455.046 48.3499C455.481 48.0686 455.937 47.7872 456.435 47.4955C459.12 45.8803 462.137 44.0463 462.178 40.7639C462.178 40.6805 462.199 40.618 462.199 40.5346L461.971 32.2608L462.271 32.4796L462.427 32.5943C462.779 32.8756 463.132 33.1674 463.484 33.4592C465.651 35.241 467.9 37.075 470.326 38.0962C470.44 38.1483 470.564 38.1796 470.689 38.2004C471.134 38.263 471.591 38.2213 472.016 38.065L480.36 35.0639C480.215 36.158 479.832 37.2626 479.438 38.4297Z" fill="#1E1E1E"/>
<path d="M470.025 42.8792C471.943 43.0981 473.716 42.5249 475.374 41.9101C475.436 41.8893 475.499 41.858 475.55 41.8268C475.716 41.733 475.861 41.6184 475.975 41.4829C476.328 41.0765 476.452 40.4825 476.255 39.9407C475.975 39.18 475.177 38.8048 474.421 39.0862C473.011 39.6072 471.736 40.0344 470.492 39.9302C469.403 39.8365 468.346 39.3988 467.527 38.6902C466.895 38.1379 465.962 38.2213 465.402 38.8569L465.392 38.8674C465.132 39.1696 465.008 39.5447 465.039 39.9198C465.07 40.295 465.246 40.6493 465.547 40.9098C466.843 42.0039 468.387 42.6812 470.025 42.8792Z" fill="#1E1E1E"/>
<path d="M407.475 78.0586C405.682 78.8922 403.888 78.986 402.157 79.0902C401.11 79.1423 400.146 79.1944 399.224 79.4028C399.172 79.4132 399.099 79.4237 399.037 79.4237C398.664 79.4445 398.322 79.4758 398.031 79.4966L397.213 79.5487L394.393 83.8419C394.237 84.092 394.061 84.4046 393.875 84.7172C393.284 85.728 392.682 86.7701 391.957 87.364C391.511 87.7287 391.014 87.9163 390.443 87.8434C390.018 87.8642 389.645 87.8121 389.324 87.6871C387.696 87.1139 387.137 85.0298 386.712 83.4355C386.483 82.581 386.245 81.6953 385.913 81.1534C385.851 81.0701 385.82 80.9867 385.789 80.9034L385.053 78.6838L376.708 76.8185C376.304 76.7248 375.941 76.5372 375.651 76.2767C375.443 76.0891 375.278 75.8807 375.143 75.6202C374.832 75.0158 374.79 74.2655 375.05 73.5778C375.226 73.1089 375.537 72.6921 375.941 72.369C375.993 72.3169 376.045 72.2857 376.107 72.2544C377.641 71.3374 378.968 70.1703 380.367 68.9511C381.217 68.2008 382.078 67.4506 383 66.7316L382.772 58.0826C382.741 57.1031 383.27 56.1757 384.13 55.6547C385.011 55.1336 386.038 55.1336 386.826 55.6547L387.562 56.1444C388.266 56.5925 388.951 57.1344 389.666 57.7179C391.397 59.1142 393.18 60.5523 394.631 59.927L402.064 56.7592C402.987 56.3737 403.992 56.5195 404.697 57.1448C405.07 57.4782 405.309 57.9159 405.412 58.3848C405.505 58.812 405.495 59.2705 405.35 59.7082L405.06 60.6044C404.894 61.0733 404.728 61.4797 404.583 61.8861C403.764 64.0431 402.904 66.2626 402.686 68.2113L404.023 69.8577L407.942 74.6719C408.242 75.0471 408.429 75.4951 408.46 75.9849C408.46 76.037 408.45 76.0995 408.46 76.1516C408.46 76.558 408.387 76.954 408.211 77.3396C408.056 77.6626 407.807 77.9127 407.475 78.0586Z" fill="#00A99D"/>
<path d="M406.594 77.8397C406.801 77.4437 406.884 76.9957 406.874 76.5476C406.874 76.4851 406.884 76.4329 406.884 76.3704C406.843 75.8286 406.646 75.318 406.324 74.8803L402.064 69.2533L400.613 67.3255C400.872 65.2101 401.805 62.8447 402.707 60.5418C402.883 60.1041 403.049 59.6769 403.235 59.1767L403.546 58.2285C403.702 57.7491 403.723 57.2489 403.619 56.7696C403.505 56.2382 403.256 55.7484 402.852 55.3524C402.085 54.6021 400.986 54.3521 399.98 54.7064L391.864 57.5511C390.278 58.1138 388.339 56.384 386.463 54.7168C385.675 54.0186 384.929 53.3517 384.161 52.8098L383.353 52.2159C382.492 51.5802 381.363 51.4969 380.419 51.9866C379.476 52.4868 378.895 53.4559 378.926 54.5292L379.144 64.0535C378.128 64.7621 377.195 65.5123 376.262 66.2626C374.728 67.4922 373.277 68.6593 371.598 69.5346C371.535 69.5659 371.484 69.5971 371.411 69.6492C370.976 69.9723 370.633 70.3995 370.437 70.9101C370.157 71.6396 370.198 72.4628 370.54 73.1609C370.675 73.4423 370.862 73.7028 371.09 73.9216C371.411 74.2342 371.805 74.4635 372.24 74.5989L381.331 77.35L382.13 79.8508C382.161 79.9446 382.202 80.0384 382.264 80.1426C382.627 80.7574 382.876 81.7474 383.125 82.7165C383.581 84.4984 384.182 86.8325 385.955 87.6037C386.307 87.76 386.712 87.8537 387.168 87.8642C387.79 87.9892 388.329 87.8225 388.816 87.4682C389.614 86.8846 390.278 85.8009 390.92 84.7276C391.117 84.3942 391.314 84.0711 391.49 83.8106L394.579 79.3402H395.481C395.792 79.3402 396.166 79.3402 396.57 79.3402C396.642 79.3402 396.715 79.3298 396.777 79.3194C397.783 79.1735 398.85 79.1944 399.98 79.2152C401.867 79.2569 403.826 79.2986 405.785 78.5379C406.148 78.4233 406.428 78.1627 406.594 77.8397ZM400.074 76.2454C398.892 76.2141 397.679 76.1933 396.518 76.36C396.145 76.36 395.813 76.36 395.533 76.36H394.538C393.626 76.36 392.765 76.8081 392.237 77.5688L389.075 82.1538C388.868 82.4768 388.65 82.8311 388.432 83.1854C388.277 83.4355 387.997 83.9044 387.717 84.3212C387.572 84.54 387.427 84.7485 387.313 84.8839C386.826 84.7485 386.504 83.8106 386.027 81.9662C385.737 80.8512 385.447 79.6945 384.949 78.8401L384.151 76.3496C383.975 75.7973 383.633 75.3284 383.187 74.9845C383.011 74.849 382.814 74.724 382.606 74.6302C382.513 74.5885 382.41 74.5469 382.306 74.5156L375.589 72.4836L373.546 71.8688C375.246 70.9101 376.718 69.7222 378.159 68.5759C379.051 67.8569 379.973 67.1171 380.969 66.4189C381.321 66.148 381.622 65.8041 381.819 65.4081C382.016 65.0017 382.119 64.5537 382.109 64.0952L381.912 54.821L382.441 55.217C382.71 55.4149 382.99 55.6442 383.28 55.8839C383.674 56.2173 384.089 56.5716 384.514 56.9572C386.857 59.0413 389.51 61.3754 392.641 60.4167C392.714 60.3959 392.786 60.3959 392.859 60.3646L400.633 57.6449L400.519 57.9992L400.457 58.1764C400.291 58.6036 400.125 59.0204 399.96 59.4476C398.933 62.0632 397.866 64.7725 397.627 67.4089C397.617 67.5339 397.617 67.6589 397.638 67.7944C397.71 68.2425 397.897 68.6697 398.166 69.024L403.536 76.1099C402.458 76.2975 401.297 76.2662 400.074 76.2454Z" fill="#1E1E1E"/>
<path d="M393.004 68.576C393.367 70.4829 394.456 72.0043 395.544 73.411C395.586 73.4631 395.627 73.5152 395.669 73.5569C395.803 73.6924 395.959 73.7862 396.125 73.8591C396.622 74.078 397.223 74.0154 397.669 73.6611C398.302 73.1714 398.416 72.2856 397.918 71.6396C396.995 70.4412 396.208 69.3575 395.938 68.1279C395.7 67.0546 395.793 65.9188 396.218 64.908C396.55 64.1264 396.197 63.2615 395.42 62.9281C395.42 62.9281 395.409 62.9281 395.409 62.9177C395.047 62.7614 394.653 62.7614 394.3 62.8968C393.948 63.0427 393.668 63.3136 393.523 63.6784C392.87 65.2518 392.693 66.94 393.004 68.576Z" fill="#1E1E1E"/>
<path d="M111.665 241.576C111.011 241.576 110.4 241.149 110.182 240.492C109.923 239.669 110.369 238.794 111.188 238.523C112.069 238.241 112.784 237.731 113.261 237.064C113.831 236.262 114.121 235.188 114.121 233.896C114.121 233.771 114.121 233.646 114.111 233.521C114.08 232.656 114.743 231.927 115.604 231.895C116.474 231.843 117.19 232.531 117.221 233.396C117.231 233.563 117.231 233.729 117.231 233.896C117.231 235.866 116.744 237.543 115.801 238.888C114.93 240.107 113.665 241.013 112.141 241.513C111.986 241.555 111.82 241.576 111.665 241.576ZM104.087 239.481C103.683 239.481 103.278 239.325 102.967 239.013C101.402 237.387 100.251 235.23 99.6501 232.75C99.4738 232.041 99.3494 231.312 99.2665 230.593C99.1732 229.738 99.7848 228.967 100.645 228.863C101.495 228.78 102.262 229.384 102.366 230.249C102.428 230.843 102.532 231.437 102.677 232.01C103.143 233.917 104.035 235.626 105.196 236.835C105.797 237.45 105.777 238.439 105.165 239.044C104.875 239.325 104.481 239.481 104.087 239.481ZM59.8852 230.322C59.087 230.322 58.4028 229.707 58.3406 228.894C58.2681 228.029 58.9004 227.279 59.7608 227.206C62.3627 226.987 64.9543 226.414 67.4422 225.518C68.2508 225.226 69.1422 225.643 69.4325 226.456C69.7228 227.269 69.3081 228.165 68.4995 228.457C65.7525 229.447 62.9018 230.082 60.0303 230.322C59.9785 230.322 59.9267 230.322 59.8852 230.322ZM112.929 227.269C112.432 227.269 111.944 227.029 111.644 226.591C110.244 224.549 108.327 222.778 106.077 221.444C105.476 221.089 105.206 220.391 105.351 219.745C104.647 220.662 104.056 221.621 103.6 222.611L103.475 222.892C103.133 223.684 102.211 224.038 101.423 223.695C100.635 223.351 100.282 222.423 100.624 221.631L100.78 221.298C101.941 218.807 103.714 216.536 106.067 214.535C106.72 213.972 107.705 214.056 108.254 214.712C108.814 215.369 108.731 216.359 108.067 216.911C107.414 217.474 106.803 218.047 106.264 218.651C106.699 218.463 107.217 218.484 107.653 218.745C110.275 220.308 112.546 222.402 114.194 224.81C114.681 225.518 114.505 226.498 113.8 226.987C113.541 227.175 113.24 227.269 112.929 227.269ZM75.3931 224.862C74.8437 224.862 74.315 224.57 74.0351 224.059C73.6205 223.309 73.89 222.35 74.6467 221.933C76.9895 220.631 79.5292 219.276 82.2659 218.182C83.0641 217.87 83.966 218.255 84.2873 219.057C84.6087 219.86 84.2147 220.766 83.4165 221.089C80.8354 222.121 78.3993 223.413 76.1498 224.664C75.9114 224.799 75.6522 224.862 75.3931 224.862ZM90.818 219.026C90.0613 219.026 89.3979 218.463 89.2838 217.692C89.1594 216.838 89.7503 216.046 90.59 215.921C93.5858 215.473 96.5506 215.452 99.308 215.858C100.158 215.983 100.749 216.775 100.624 217.63C100.5 218.484 99.7019 219.068 98.8622 218.953C96.4054 218.589 93.7517 218.609 91.0565 219.016C90.9735 219.026 90.901 219.026 90.818 219.026ZM114.111 212.92C113.52 212.92 112.96 212.576 112.691 212.003C112.338 211.221 112.68 210.294 113.458 209.929C113.821 209.762 114.194 209.596 114.557 209.439C116.868 208.46 119.19 207.668 121.378 206.938C122.197 206.668 123.078 207.116 123.337 207.939C123.596 208.762 123.161 209.637 122.342 209.908C120.217 210.617 117.957 211.378 115.759 212.315C115.417 212.461 115.075 212.618 114.733 212.764C114.546 212.868 114.329 212.92 114.111 212.92ZM129.702 207.251C129.09 207.251 128.499 206.876 128.261 206.272C127.94 205.469 128.323 204.563 129.121 204.24C129.712 204 130.313 203.75 130.894 203.489C132.822 202.624 134.574 201.624 136.108 200.519C136.813 200.019 137.777 200.186 138.275 200.884C138.772 201.593 138.606 202.562 137.912 203.062C136.212 204.281 134.273 205.375 132.169 206.334C131.547 206.615 130.915 206.886 130.282 207.136C130.096 207.209 129.899 207.251 129.702 207.251ZM142.742 197.393C142.463 197.393 142.183 197.32 141.924 197.164C141.188 196.716 140.97 195.747 141.416 195.018C141.861 194.288 142.245 193.527 142.546 192.746C143.116 191.277 143.458 189.672 143.593 187.827C143.655 186.963 144.401 186.327 145.261 186.379C146.122 186.442 146.765 187.192 146.702 188.057C146.547 190.214 146.132 192.121 145.448 193.882C145.075 194.83 144.619 195.768 144.069 196.654C143.769 197.133 143.261 197.393 142.742 197.393ZM144.774 181.19C143.997 181.19 143.323 180.596 143.23 179.804L143.095 178.647C142.825 176.25 142.546 173.77 142.525 171.342C142.514 170.477 143.209 169.779 144.069 169.769H144.08C144.93 169.769 145.624 170.457 145.635 171.321C145.655 173.583 145.925 175.979 146.184 178.303L146.319 179.47C146.412 180.325 145.801 181.106 144.951 181.2C144.888 181.19 144.836 181.19 144.774 181.19ZM145.521 164.715C145.313 164.715 145.106 164.673 144.909 164.59C144.121 164.236 143.758 163.339 144.1 162.558C144.111 162.547 144.132 162.485 144.142 162.464C145.293 159.859 147.179 157.514 149.74 155.534C150.424 155.013 151.398 155.139 151.917 155.816C152.435 156.504 152.311 157.483 151.637 158.004C149.491 159.661 147.926 161.599 146.972 163.756C146.713 164.35 146.122 164.715 145.521 164.715ZM166.502 155.639C166.481 155.639 166.471 155.639 166.45 155.639C164.937 155.587 163.413 155.503 161.91 155.389C160.521 155.274 159.328 155.191 158.271 155.232C157.39 155.284 156.695 154.586 156.664 153.732C156.633 152.867 157.307 152.148 158.157 152.117C159.36 152.075 160.666 152.169 162.148 152.283C163.599 152.398 165.082 152.481 166.543 152.533C167.404 152.565 168.078 153.284 168.046 154.149C168.026 154.972 167.342 155.639 166.502 155.639ZM174.795 155.534C173.976 155.534 173.292 154.888 173.24 154.055C173.188 153.19 173.852 152.45 174.702 152.408C177.407 152.252 180.133 151.981 182.818 151.585C183.668 151.45 184.456 152.054 184.581 152.909C184.705 153.763 184.114 154.555 183.264 154.68C180.496 155.086 177.677 155.368 174.878 155.524C174.847 155.535 174.816 155.534 174.795 155.534Z" fill="#1E1E1E"/>
<path d="M170.037 123.158C167.02 123.158 164.574 123.085 162.324 122.929C161.464 122.866 160.821 122.127 160.883 121.262C160.945 120.397 161.681 119.751 162.542 119.813C164.719 119.97 167.093 120.032 170.037 120.032H170.721C170.721 120.032 170.721 120.032 170.731 120.032C171.592 120.032 172.286 120.73 172.286 121.585C172.286 122.45 171.591 123.148 170.741 123.158H170.037ZM178.993 122.731C178.236 122.731 177.573 122.168 177.459 121.397C177.334 120.543 177.925 119.751 178.775 119.626C181.688 119.198 183.969 118.334 185.741 117C186.426 116.479 187.4 116.625 187.918 117.312C188.437 118 188.291 118.98 187.607 119.501C185.41 121.147 182.663 122.199 179.231 122.71C179.148 122.721 179.066 122.731 178.993 122.731ZM154.228 121.772C154.114 121.772 154 121.762 153.876 121.731C150.786 121.022 148.122 120.042 145.717 118.74C144.961 118.334 144.681 117.385 145.085 116.625C145.489 115.864 146.433 115.583 147.189 115.989C149.346 117.156 151.761 118.031 154.57 118.688C155.41 118.875 155.928 119.719 155.742 120.563C155.576 121.282 154.933 121.772 154.228 121.772ZM140.026 113.749C139.581 113.749 139.135 113.551 138.824 113.175C137.704 111.8 136.885 110.362 136.419 108.893C136.015 107.621 135.807 106.235 135.807 104.651V104.474C135.818 103.609 136.512 102.88 137.373 102.922C138.233 102.932 138.917 103.641 138.917 104.495V104.641C138.917 105.902 139.062 106.975 139.373 107.924C139.726 109.018 140.348 110.112 141.229 111.185C141.778 111.852 141.675 112.842 141.011 113.384C140.721 113.634 140.379 113.749 140.026 113.749ZM138.471 97.8053C138.368 97.8053 138.254 97.7948 138.14 97.774C137.3 97.5969 136.771 96.7632 136.948 95.9192C137.549 93.1369 138.347 90.3755 139.332 87.7079C139.632 86.8951 140.524 86.4887 141.332 86.7909C142.141 87.0931 142.545 87.9892 142.245 88.802C141.312 91.3238 140.555 93.9497 139.985 96.5861C139.829 97.3051 139.187 97.8053 138.471 97.8053ZM144.173 82.2059C143.934 82.2059 143.696 82.1538 143.468 82.0392C142.701 81.6432 142.4 80.7053 142.784 79.9342C143.406 78.6942 144.048 77.475 144.691 76.2454C145.334 75.0158 145.987 73.7862 146.609 72.5357C147.003 71.7646 147.936 71.4624 148.703 71.848C149.47 72.2439 149.771 73.1818 149.387 73.9529C148.755 75.2033 148.102 76.4538 147.449 77.7043C146.816 78.913 146.174 80.1322 145.562 81.3514C145.282 81.8933 144.743 82.2059 144.173 82.2059ZM74.0867 81.5598C73.8276 81.5598 73.5788 81.5598 73.33 81.5494C72.4696 81.5285 71.7958 80.8095 71.8165 79.9446C71.8372 79.0797 72.5525 78.4233 73.4129 78.4233C75.8075 78.4858 77.943 78.2149 79.757 77.5896C80.1302 77.4646 80.4827 77.3187 80.8351 77.1624C81.623 76.8081 82.5352 77.1624 82.8876 77.9543C83.2401 78.7463 82.8877 79.6633 82.0998 80.0176C81.6644 80.2156 81.2187 80.3927 80.7626 80.549C78.793 81.2264 76.6057 81.5598 74.0867 81.5598ZM65.1407 80.5282C65.037 80.5282 64.923 80.5178 64.8193 80.4969C61.9375 79.8925 59.1801 79.0485 56.63 77.9856C55.8318 77.6626 55.4586 76.7456 55.78 75.9432C56.1013 75.1408 57.0135 74.7657 57.8117 75.0887C60.196 76.0682 62.7668 76.8602 65.462 77.4333C66.3017 77.6105 66.8407 78.4441 66.6645 79.2882C66.509 80.0176 65.8663 80.5282 65.1407 80.5282ZM87.9567 75.0783C87.6043 75.0783 87.2415 74.9533 86.9512 74.7032C86.2981 74.1405 86.2256 73.1505 86.775 72.494C88.2781 70.7226 89.6983 68.5447 91.1081 65.825C91.502 65.0643 92.4453 64.7621 93.2021 65.1685C93.9588 65.5644 94.2594 66.5127 93.8551 67.2734C92.3313 70.2015 90.7867 72.5774 89.1281 74.526C88.8275 74.8907 88.3921 75.0783 87.9567 75.0783ZM49.9438 74.13C49.6328 74.13 49.3218 74.0363 49.0523 73.8487C46.6058 72.1085 44.4704 70.1078 42.6874 67.8882C42.1484 67.2109 42.252 66.2314 42.9258 65.6895C43.5893 65.1476 44.5741 65.2518 45.1131 65.9292C46.7095 67.9195 48.6376 69.7326 50.8456 71.2957C51.5505 71.7959 51.7164 72.765 51.2188 73.4736C50.9182 73.9008 50.431 74.13 49.9438 74.13ZM151.367 67.2005C151.191 67.2005 151.015 67.1692 150.849 67.1067C150.04 66.8149 149.615 65.9187 149.905 65.1059C150.849 62.4383 151.46 59.8332 151.719 57.374C151.802 56.5091 152.58 55.8943 153.43 55.9777C154.28 56.061 154.902 56.8321 154.819 57.697C154.539 60.4063 153.876 63.2511 152.849 66.1584C152.601 66.8045 151.999 67.2005 151.367 67.2005ZM96.0009 60.5626C95.7832 60.5626 95.5656 60.521 95.3582 60.4272C94.5704 60.0729 94.2283 59.1455 94.5808 58.3639C95.6278 56.0298 96.8613 53.3204 98.2608 50.757C98.6754 49.9963 99.6187 49.715 100.375 50.1318C101.132 50.5486 101.402 51.4969 100.997 52.2576C99.6602 54.7168 98.4577 57.3636 97.4315 59.6456C97.162 60.2188 96.5918 60.5626 96.0009 60.5626ZM152.694 50.83C152.01 50.83 151.377 50.3715 151.191 49.6733C150.963 48.8397 150.683 48.0164 150.341 47.2453C149.677 45.7448 148.765 44.3172 147.635 43.0146C147.075 42.3581 147.138 41.3786 147.791 40.8055C148.433 40.2428 149.418 40.3053 149.988 40.9618C151.326 42.504 152.404 44.1921 153.191 45.9845C153.596 46.9015 153.938 47.8706 154.207 48.8709C154.435 49.7046 153.938 50.559 153.109 50.7883C152.963 50.8195 152.829 50.83 152.694 50.83ZM104.232 46.1512C103.879 46.1512 103.516 46.0261 103.226 45.7761C102.573 45.2133 102.49 44.2338 103.05 43.5773C104.097 42.3373 105.227 41.2015 106.388 40.2115C107.393 39.3571 108.492 38.5547 109.653 37.8253C110.379 37.3668 111.343 37.596 111.799 38.3254C112.255 39.0549 112.027 40.024 111.301 40.4721C110.265 41.1181 109.29 41.8267 108.399 42.5874C107.362 43.4731 106.357 44.4839 105.424 45.5885C105.113 45.9636 104.677 46.1512 104.232 46.1512ZM142.297 38.4713C142.058 38.4713 141.809 38.4192 141.581 38.2942C140.711 37.8461 139.809 37.4501 138.896 37.1271C137.414 36.5957 135.828 36.1997 134.19 35.9392C133.34 35.8037 132.76 35.0117 132.894 34.1573C133.029 33.3028 133.827 32.7193 134.667 32.8547C136.502 33.1361 138.285 33.5841 139.954 34.1885C141.001 34.5637 142.027 35.0117 143.012 35.5223C143.779 35.9183 144.08 36.8562 143.686 37.6273C143.406 38.1587 142.867 38.4713 142.297 38.4713ZM118.029 37.3355C117.366 37.3355 116.744 36.8978 116.547 36.2309C116.298 35.4077 116.764 34.5324 117.583 34.2823C119.138 33.803 120.776 33.4174 122.456 33.1152C123.658 32.9068 124.861 32.7401 126.022 32.6359C126.872 32.5525 127.628 33.1882 127.711 34.0531C127.794 34.918 127.162 35.6787 126.301 35.7516C125.223 35.8454 124.104 36.0017 122.995 36.1997C121.44 36.4706 119.926 36.8353 118.485 37.273C118.33 37.3147 118.185 37.3355 118.029 37.3355Z" fill="#1E1E1E"/>
<path d="M84.2146 166.038C83.3853 166.038 82.6907 165.382 82.6596 164.538C82.6285 163.673 83.292 162.943 84.1524 162.912C84.764 162.891 85.3652 162.85 85.9665 162.787C87.9257 162.589 89.9471 162.204 91.9789 161.662C92.8082 161.432 93.6582 161.933 93.8863 162.766C94.1039 163.6 93.6167 164.454 92.7874 164.684C90.5898 165.278 88.4025 165.684 86.2774 165.903C85.614 165.965 84.9402 166.017 84.2664 166.049C84.256 166.038 84.2353 166.038 84.2146 166.038ZM75.9838 165.267C75.8697 165.267 75.7453 165.257 75.6313 165.225C72.6562 164.527 69.9299 163.402 67.5146 161.901C66.7889 161.443 66.5609 160.484 67.017 159.744C67.4731 159.004 68.4268 158.786 69.1628 159.244C71.2879 160.568 73.7032 161.557 76.3466 162.183C77.1863 162.381 77.7046 163.225 77.5076 164.058C77.321 164.777 76.6887 165.267 75.9838 165.267ZM100.179 161.901C99.5877 161.901 99.0175 161.557 98.7584 160.974C98.4059 160.182 98.7584 159.265 99.5462 158.911C101.827 157.889 104.19 156.67 106.792 155.18C107.539 154.753 108.482 155.013 108.917 155.764C109.342 156.514 109.083 157.473 108.337 157.9C105.652 159.442 103.195 160.703 100.821 161.766C100.604 161.86 100.386 161.901 100.179 161.901ZM114.65 153.784C114.132 153.784 113.624 153.523 113.333 153.054C112.877 152.325 113.095 151.356 113.821 150.897L115.22 150.012C117.107 148.824 118.983 147.625 120.89 146.479C121.626 146.031 122.58 146.271 123.026 147.011C123.471 147.75 123.233 148.709 122.497 149.157C120.61 150.303 118.744 151.481 116.879 152.658L115.479 153.544C115.22 153.711 114.93 153.784 114.65 153.784ZM128.924 145.312C128.354 145.312 127.805 144.999 127.535 144.458C127.151 143.686 127.452 142.749 128.219 142.363C128.509 142.217 128.8 142.071 129.09 141.925C131.319 140.831 133.63 139.831 135.973 138.966C136.782 138.664 137.673 139.081 137.974 139.893C138.274 140.706 137.86 141.602 137.051 141.905C134.812 142.738 132.583 143.697 130.458 144.739C130.178 144.874 129.899 145.02 129.619 145.156C129.401 145.26 129.163 145.312 128.924 145.312ZM185.379 140.8C185.223 140.8 185.057 140.779 184.902 140.727C182.352 139.904 179.708 139.227 177.044 138.695C176.205 138.528 175.655 137.705 175.821 136.861C175.987 136.017 176.806 135.454 177.645 135.631C180.424 136.184 183.181 136.892 185.845 137.757C186.664 138.018 187.11 138.903 186.851 139.727C186.643 140.373 186.032 140.8 185.379 140.8ZM144.442 139.539C143.748 139.539 143.105 139.06 142.929 138.351C142.722 137.518 143.23 136.663 144.069 136.455C146.796 135.777 149.594 135.246 152.383 134.86C153.233 134.735 154.021 135.35 154.135 136.205C154.249 137.059 153.648 137.851 152.798 137.966C150.123 138.33 147.438 138.841 144.826 139.487C144.691 139.518 144.567 139.539 144.442 139.539ZM169.135 137.559C169.093 137.559 169.052 137.559 169 137.559C166.315 137.33 163.589 137.247 160.883 137.32C159.992 137.32 159.308 136.663 159.287 135.798C159.266 134.933 159.94 134.214 160.8 134.193C163.62 134.12 166.46 134.204 169.259 134.444C170.12 134.516 170.752 135.267 170.679 136.132C170.617 136.944 169.943 137.559 169.135 137.559Z" fill="#1E1E1E"/>
<path d="M361.003 168.299C360.247 168.299 359.583 167.737 359.469 166.966C359.345 166.111 359.925 165.319 360.775 165.194C363.035 164.861 365.399 164.1 368.239 162.808C369.027 162.454 369.939 162.798 370.302 163.589C370.654 164.371 370.312 165.298 369.524 165.663C366.415 167.08 363.782 167.914 361.231 168.299C361.159 168.299 361.086 168.299 361.003 168.299ZM352.824 167.643C352.669 167.643 352.503 167.622 352.337 167.57C351.892 167.424 351.446 167.257 351 167.08C348.73 166.153 346.615 164.725 344.739 162.839C344.127 162.224 344.127 161.234 344.739 160.63C345.35 160.015 346.335 160.015 346.936 160.63C348.522 162.214 350.274 163.412 352.171 164.183C352.555 164.34 352.928 164.475 353.301 164.6C354.12 164.871 354.566 165.747 354.296 166.57C354.079 167.226 353.478 167.643 352.824 167.643ZM376.263 161.985C375.703 161.985 375.174 161.683 374.894 161.162C374.49 160.401 374.77 159.453 375.527 159.046C377.942 157.744 380.523 156.389 383.166 155.357C383.965 155.045 384.866 155.441 385.177 156.253C385.488 157.056 385.095 157.962 384.286 158.275C381.798 159.244 379.321 160.547 376.988 161.808C376.76 161.922 376.511 161.985 376.263 161.985ZM391.781 156.462C390.993 156.462 390.319 155.868 390.236 155.066C390.143 154.211 390.765 153.44 391.625 153.346C393.284 153.169 395.098 153.086 397.14 153.086C398.135 153.086 399.12 153.107 400.115 153.138C400.976 153.159 401.649 153.888 401.618 154.743C401.587 155.607 400.841 156.316 400.022 156.253C399.058 156.222 398.104 156.201 397.14 156.201C395.202 156.201 393.491 156.285 391.936 156.441C391.884 156.462 391.833 156.462 391.781 156.462ZM341.183 156.441C340.592 156.441 340.033 156.097 339.763 155.524C339.587 155.149 339.431 154.763 339.276 154.378C338.643 152.804 338.156 151.2 337.804 149.574C337.721 149.584 337.648 149.605 337.565 149.616C336.726 149.762 335.917 149.188 335.772 148.344C335.627 147.49 336.197 146.688 337.037 146.542C337.171 146.521 337.296 146.5 337.42 146.469C337.586 145.875 338.084 145.416 338.726 145.333C339.245 145.27 339.742 145.468 340.074 145.843C341.65 145.385 343.091 144.801 344.397 144.093C345.153 143.686 346.097 143.968 346.501 144.728C346.905 145.489 346.625 146.437 345.869 146.844C344.335 147.667 342.655 148.355 340.82 148.876C341.131 150.345 341.577 151.794 342.147 153.211C342.282 153.555 342.427 153.888 342.583 154.221C342.935 155.003 342.593 155.93 341.816 156.295C341.619 156.399 341.401 156.441 341.183 156.441ZM329.044 150.126C329.024 150.126 328.992 150.126 328.972 150.126C326.121 150.001 323.187 149.584 320.482 148.938C319.642 148.74 319.134 147.896 319.331 147.052C319.528 146.208 320.368 145.698 321.207 145.896C323.726 146.5 326.463 146.886 329.117 147C329.977 147.042 330.641 147.771 330.599 148.636C330.558 149.47 329.874 150.126 329.044 150.126ZM351.321 141.592C351.01 141.592 350.699 141.498 350.43 141.311C349.725 140.821 349.559 139.841 350.046 139.133L350.14 138.987C350.959 137.768 351.352 136.726 351.352 135.819V135.684C351.321 134.933 350.959 134.193 350.347 133.579C349.735 132.974 349.735 131.984 350.347 131.369C350.948 130.755 351.933 130.755 352.545 131.369C353.716 132.537 354.39 134.016 354.462 135.548C354.462 135.642 354.473 135.736 354.473 135.829C354.473 137.382 353.903 138.987 352.731 140.737L352.596 140.935C352.296 141.363 351.809 141.592 351.321 141.592ZM339.317 140.175C339.193 140.175 339.068 140.164 338.944 140.133C338.115 139.925 337.596 139.081 337.804 138.237C338.301 136.225 339.089 134.496 340.157 133.089C340.934 132.068 341.919 131.182 342.997 130.525C343.733 130.077 344.687 130.317 345.133 131.057C345.578 131.797 345.34 132.755 344.604 133.203C343.858 133.662 343.174 134.277 342.624 134.985C341.816 136.048 341.204 137.393 340.82 138.987C340.654 139.695 340.012 140.175 339.317 140.175Z" fill="#1E1E1E"/>
<path d="M145.251 28.0926C143.499 27.1235 141.923 29.8224 143.686 30.7915C154.238 36.6165 160.717 48.5583 159.919 60.6252C159.784 62.6363 162.894 62.6259 163.029 60.6252C163.889 47.5058 156.695 34.4074 145.251 28.0926Z" fill="#00A99D"/>
<path d="M312.386 175.844C311.059 175.239 309.68 174.875 308.208 174.979C307.421 175.031 306.913 175.239 306.166 174.927C305.492 174.646 304.922 174.385 304.166 174.458C303.067 174.552 302.331 175.708 301.315 175.625C300.734 175.573 300.143 175.229 299.563 175.125C298.796 174.989 298.06 175.042 297.345 175.375C296.515 175.761 296.308 176.104 295.375 175.656C294.815 175.385 294.338 174.979 293.737 174.802C293.157 174.635 292.555 174.666 292.006 174.927C291.436 175.198 291.736 175.302 291.177 175.031C290.855 174.875 290.565 174.479 290.264 174.27C289.166 173.489 287.932 173.312 286.719 173.947C286.533 174.052 286.336 174.218 286.149 174.302C286.045 174.343 285.983 174.375 285.931 174.406C285.921 174.385 285.89 174.364 285.838 174.333C285.226 174.052 284.853 173.52 284.138 173.374C282.935 173.114 281.93 173.729 280.935 174.291C280.344 174.625 280.147 174.614 279.463 174.385C278.758 174.145 278.105 173.958 277.358 174.072C276.819 174.156 276.322 174.354 275.835 174.593C275.472 174.781 274.922 175.271 274.477 175.25C274.072 175.229 273.502 174.687 273.077 174.562C272.352 174.343 271.595 174.468 270.921 174.791C270.569 174.958 270.04 175.521 269.677 175.531C269.356 175.542 269.045 175.25 268.786 175.073C267.915 174.468 267.065 173.791 265.956 173.76C265.406 173.749 264.846 173.895 264.37 174.156C264.183 174.26 264.017 174.427 263.831 174.52C263.716 174.573 263.665 174.614 263.623 174.656C263.592 174.635 263.551 174.604 263.478 174.573C262.98 174.375 262.649 173.958 262.079 173.822C261.477 173.666 260.876 173.77 260.306 173.979C259.902 174.125 259.145 174.791 258.71 174.791C258.689 174.791 257.787 174.041 257.466 173.906C256.802 173.635 256.087 173.635 255.413 173.854C254.636 174.093 254.128 174.729 253.412 175.01C254.636 174.531 252.936 175.198 253.05 175.239C252.853 175.177 252.562 174.625 252.355 174.468C251.837 174.062 251.194 173.885 250.541 174.02C249.007 174.343 248.167 176.292 247.773 177.626C247.203 179.554 250.199 180.387 250.769 178.459C250.852 178.188 250.945 177.938 251.07 177.678C251.246 177.824 251.422 177.938 251.505 177.99C252.676 178.689 254.055 178.303 255.133 177.605C255.372 177.449 256.025 176.782 256.346 176.834C256.823 176.917 257.362 177.678 257.901 177.834C258.969 178.147 259.922 177.688 260.845 177.199C261.363 176.917 261.208 176.855 261.54 177.001C262.12 177.251 262.4 177.709 263.074 177.845C263.623 177.949 264.152 177.865 264.67 177.647C264.94 177.532 265.147 177.386 265.396 177.23C265.51 177.157 265.987 176.948 265.893 176.896C266.526 176.99 267.293 177.886 267.832 178.178C268.848 178.73 269.947 178.855 271.004 178.366C271.315 178.23 271.947 177.636 272.227 177.615C272.517 177.605 273.119 178.063 273.44 178.178C274.642 178.595 275.731 178.199 276.809 177.626C277.39 177.313 277.628 177.105 278.271 177.251C278.799 177.376 279.276 177.647 279.826 177.699C281.101 177.834 282.002 177.199 283.091 176.646C283.692 176.334 283.516 176.469 284.055 176.876C284.511 177.23 284.978 177.501 285.558 177.574C286.128 177.657 286.647 177.532 287.165 177.303C287.372 177.209 287.548 177.105 287.735 176.99C288.202 176.719 288.139 176.646 288.554 176.844C289.062 177.094 289.445 177.647 289.953 177.928C290.461 178.22 291.042 178.397 291.633 178.397C291.964 178.397 292.255 178.334 292.566 178.209C292.555 178.209 292.887 178.011 293.094 177.897C293.177 178.001 293.561 178.178 293.633 178.22C294.007 178.428 294.401 178.626 294.805 178.772C295.52 179.033 296.308 179.168 297.054 178.991C297.687 178.845 298.226 178.22 298.817 178.136C299.407 178.063 300.278 178.584 300.848 178.689C301.46 178.803 302.103 178.824 302.704 178.637C303.336 178.439 303.803 177.772 304.394 177.615C304.777 177.511 305.524 178.074 305.99 178.178C306.757 178.355 307.472 178.147 308.229 178.074C309.131 177.99 310.012 178.136 310.831 178.512C312.624 179.376 314.2 176.678 312.386 175.844Z" fill="#00A99D"/>
<path d="M118.755 222.58C118.237 221.923 117.107 222.027 116.557 222.58C115.904 223.236 116.029 224.122 116.557 224.789C119.367 228.342 119.615 233.198 119.512 237.533C119.46 239.544 122.57 239.544 122.622 237.533C122.746 232.25 122.134 226.862 118.755 222.58Z" fill="#FBB03B"/>
<path d="M140.389 181.2C140.348 180.356 139.705 179.637 138.835 179.637C138.026 179.637 137.238 180.356 137.28 181.2C137.549 186.202 135.393 191.339 131.402 194.424C130.738 194.934 130.386 195.768 130.842 196.56C131.226 197.216 132.304 197.643 132.967 197.122C137.829 193.371 140.732 187.4 140.389 181.2Z" fill="#00A99D"/>
<path d="M102.677 147.99C98.126 151.929 92.5593 154.524 86.6609 155.587C85.8316 155.732 85.3652 156.743 85.5725 157.514C85.8109 158.39 86.6609 158.754 87.4902 158.609C93.9277 157.441 99.9297 154.492 104.885 150.199C106.398 148.886 104.19 146.677 102.677 147.99Z" fill="#FBB03B"/>
<path d="M371.007 170.634C370.8 169.883 369.877 169.237 369.089 169.54C363.668 171.634 357.769 172.238 352.058 171.134C350.098 170.759 349.269 173.77 351.228 174.145C357.479 175.354 363.958 174.854 369.908 172.551C370.707 172.259 371.246 171.509 371.007 170.634Z" fill="#FBB03B"/>
<path d="M453.646 59.6353C441.849 68.8886 435.796 83.3834 432.862 97.7532C431.929 102.328 431.276 106.954 430.716 111.581C430.478 113.571 433.588 113.561 433.826 111.581C436.013 93.3558 440.72 73.7029 455.844 61.834C457.42 60.6044 455.212 58.4057 453.646 59.6353Z" fill="#1E1E1E"/>
<path d="M421.833 111.341C417.417 100.619 410.337 91.3238 401.183 84.2379C400.509 83.7168 399.452 84.1441 399.058 84.8006C398.581 85.6029 398.954 86.4262 399.618 86.9368C408.056 93.4704 414.763 102.286 418.837 112.175C419.583 113.999 422.6 113.196 421.833 111.341Z" fill="#1E1E1E"/>
<path d="M486.746 172.499C471.632 176.365 456.881 181.492 442.606 187.807C440.782 188.619 442.358 191.308 444.172 190.505C458.187 184.305 472.72 179.303 487.565 175.51C489.514 175.021 488.695 171.999 486.746 172.499Z" fill="#1E1E1E"/>
</svg>
