<svg width="386" height="368" viewBox="0 0 386 368" fill="none" xmlns="http://www.w3.org/2000/svg">
<path d="M306.507 22.2556C346.125 40.8378 383.406 73.039 384.957 109.419C386.508 145.799 352.33 186.379 335.501 230.879C318.417 275.111 318.417 323.015 296.149 346.839C273.625 370.662 228.568 370.136 186.889 365.421C145.464 360.448 107.143 351.286 74.0053 331.135C40.6028 310.985 12.1291 279.836 3.32195 244.23C-5.74053 208.366 5.13837 168.054 19.1199 130.364C33.3567 92.6734 50.706 57.5935 78.6691 35.0805C106.632 12.5674 144.954 2.62115 185.082 0.526678C225.21 -1.82588 266.9 3.40533 306.507 22.2556Z" fill="#F8F8F8"/>
<path d="M282.545 276.697C280.221 274.778 277.354 273.841 274.411 273.163C273.671 272.745 272.811 273.033 272.343 273.682C271.332 275.096 270.517 276.624 269.793 278.182C269.4 279.048 269.023 279.913 268.646 280.793C268.299 281.615 267.816 282.466 268.072 283.389C268.374 284.442 269.37 284.817 270.321 285.192C271.196 285.538 272.072 285.884 272.962 286.216C274.773 286.894 276.599 287.514 278.456 288.077C278.923 288.221 279.603 288.077 279.919 287.702C281.051 286.36 281.338 284.658 281.655 283C281.972 281.341 282.274 279.682 282.923 278.096C283.119 277.663 282.923 277 282.545 276.697ZM272.404 282.899C272.041 282.755 271.679 282.61 271.317 282.466C271.287 282.452 271.257 282.437 271.226 282.423C271.453 281.932 271.634 281.384 271.83 280.923C272.102 280.274 272.389 279.639 272.69 279.004C273.173 278.009 273.732 277.043 274.32 276.091C276.207 276.552 278.108 277.129 279.708 278.197C279.316 279.365 279.074 280.562 278.848 281.774C278.712 282.509 278.561 283.245 278.395 283.981C278.335 284.255 278.274 284.586 278.169 284.904C276.976 284.514 275.769 284.139 274.592 283.706C273.852 283.461 273.128 283.187 272.404 282.899Z" fill="#FBB03B"/>
<path d="M258.367 256.913C258.81 253.918 258.128 250.994 257.185 248.147C257.16 247.298 256.467 246.729 255.666 246.685C253.928 246.596 252.191 246.735 250.478 246.966C249.531 247.102 248.591 247.252 247.64 247.409C246.754 247.561 245.772 247.613 245.112 248.328C244.364 249.151 244.558 250.193 244.729 251.198C244.886 252.122 245.042 253.047 245.219 253.977C245.576 255.87 245.99 257.744 246.469 259.613C246.588 260.085 247.064 260.58 247.551 260.644C249.29 260.874 250.901 260.196 252.49 259.568C254.08 258.939 255.661 258.297 257.361 257.987C257.834 257.919 258.302 257.395 258.367 256.913ZM247.779 251.714C247.716 251.331 247.652 250.948 247.588 250.565C247.584 250.531 247.581 250.498 247.578 250.465C248.117 250.391 248.681 250.247 249.18 250.164C249.878 250.042 250.572 249.941 251.274 249.852C252.379 249.722 253.499 249.671 254.622 249.653C255.204 251.492 255.694 253.407 255.607 255.332C254.4 255.632 253.246 256.075 252.088 256.539C251.385 256.822 250.675 257.092 249.957 257.349C249.69 257.447 249.374 257.575 249.047 257.657C248.763 256.442 248.459 255.221 248.22 253.995C248.047 253.24 247.907 252.481 247.779 251.714Z" fill="#DCDCDC"/>
<path d="M355.367 22.3639C355.81 19.3684 355.128 16.4448 354.185 13.5978C354.16 12.7485 353.467 12.1791 352.666 12.1354C350.928 12.0465 349.191 12.1854 347.478 12.4162C346.531 12.5529 345.591 12.7023 344.64 12.8595C343.754 13.011 342.772 13.0636 342.112 13.7785C341.364 14.6017 341.558 15.6439 341.729 16.648C341.886 17.5729 342.042 18.4977 342.219 19.4275C342.576 21.3204 342.99 23.1948 343.469 25.0634C343.588 25.5357 344.064 26.0303 344.551 26.0949C346.29 26.3245 347.901 25.6468 349.49 25.018C351.08 24.3892 352.661 23.7476 354.361 23.4377C354.834 23.3693 355.302 22.8455 355.367 22.3639ZM344.779 17.1648C344.716 16.7816 344.652 16.3984 344.588 16.0151C344.584 15.9819 344.581 15.9486 344.578 15.9154C345.117 15.8413 345.681 15.6979 346.18 15.614C346.878 15.4924 347.572 15.3913 348.274 15.3029C349.379 15.1724 350.499 15.1211 351.622 15.1031C352.204 16.9427 352.694 18.8573 352.607 20.7824C351.4 21.0827 350.246 21.5258 349.088 21.9895C348.385 22.2723 347.675 22.5424 346.957 22.7998C346.69 22.897 346.374 23.0253 346.047 23.1076C345.763 21.8922 345.459 20.6719 345.22 19.4458C345.047 18.69 344.907 17.9313 344.779 17.1648Z" fill="#DCDCDC"/>
</svg>
