<svg width="396" height="208" viewBox="0 0 396 208" fill="none" xmlns="http://www.w3.org/2000/svg">
<path d="M315.258 22.6185C356.007 41.5037 394.352 74.23 395.948 111.203C397.543 148.177 362.389 189.417 345.08 234.643C327.508 279.596 327.508 328.282 304.604 352.494C281.437 376.706 235.094 376.171 192.224 371.379C149.617 366.325 110.202 357.013 76.1181 336.534C41.762 316.055 12.4754 284.398 3.41679 248.212C-5.90442 211.763 5.28507 170.795 19.6658 132.49C34.3091 94.1845 52.1537 58.5327 80.9151 35.6525C109.676 12.7724 149.092 2.66401 190.366 0.535387C231.64 -1.85553 274.519 3.46098 315.258 22.6185Z" fill="#FBB03B"/>
<path d="M296.857 154.042C307.958 175.775 313.386 202.656 301.66 219.087C289.934 235.518 261.048 241.507 238.461 255.17C215.853 268.629 199.513 289.563 181.585 292.322C163.544 294.993 143.889 279.282 127.15 262.9C110.611 246.494 96.8662 229.323 89.152 209.131C81.3211 188.848 79.4114 165.453 87.6793 146.867C95.9227 128.081 114.461 114.204 133.472 102.537C152.595 90.9588 172.198 81.5905 192.186 81.3607C212.175 81.1308 232.437 89.9518 250.816 102.825C269.283 115.585 285.851 132.195 296.857 154.042Z" fill="#FBA43B"/>
</svg>
