<svg width="386" height="364" viewBox="0 0 386 364" fill="none" xmlns="http://www.w3.org/2000/svg">
<path d="M306.507 22.0136C346.125 40.3939 383.406 72.2451 384.957 108.23C386.508 144.215 352.33 184.353 335.501 228.369C318.417 272.12 318.417 319.504 296.149 343.069C273.625 366.633 228.568 366.113 186.889 361.449C145.464 356.53 107.143 347.467 74.0053 327.536C40.6028 307.604 12.1291 276.794 3.32195 241.575C-5.74053 206.101 5.13837 166.228 19.1199 128.947C33.3567 91.6661 50.706 56.9675 78.6691 34.6992C106.632 12.4308 144.954 2.59266 185.082 0.520953C225.21 -1.80603 266.9 3.36832 306.507 22.0136Z" fill="#F8F8F8"/>
</svg>
