<svg width="372" height="343" viewBox="0 0 372 343" fill="none" xmlns="http://www.w3.org/2000/svg">
<path d="M371.11 233.402C367.62 276.936 350.685 322.953 317.474 336.895C284.264 350.837 234.76 332.711 187.639 332.202C140.678 331.362 96.2381 347.805 66.4105 335.097C36.4944 322.151 21.347 279.713 11.2576 239.005C1.49622 198.448 -3.30257 159.363 3.89128 121.368C10.9931 83.1244 30.0083 45.7284 59.9825 25.247C90.1076 4.43763 131.278 0.804051 171.094 0.979804C210.998 1.39497 249.561 5.62529 280.15 24.1233C310.738 42.6213 333.263 75.1477 349.131 112.063C365.238 148.891 374.852 189.785 371.11 233.402Z" fill="#F8F8F8"/>
</svg>
