<svg width="136" height="136" viewBox="0 0 136 136" fill="none" xmlns="http://www.w3.org/2000/svg">
<path d="M35.6174 99.4738C34.4746 99.0958 33.1093 99.058 31.9204 98.9219C30.6395 98.7707 29.3509 98.6572 28.0623 98.5741C26.7737 98.4909 25.4851 98.438 24.1888 98.4229C22.9769 98.4077 21.5426 98.249 20.4764 98.9294C18.3288 100.29 18.9347 103.36 18.9731 105.47C19.0191 108.086 19.0037 110.702 18.9347 113.31C18.7736 119.223 18.2981 125.128 17.5311 130.987C17.393 132.038 18.5205 132.832 19.4486 132.877C24.6337 133.134 29.8188 133.051 34.9962 132.643C36.0316 132.56 36.9137 131.834 36.9137 130.753C36.9137 129.862 36.4364 128.993 36.4859 128.104C36.7352 123.629 36.9456 119.154 37.1055 114.679C37.1975 112.04 37.2742 109.401 37.3356 106.762C37.3662 105.439 37.3893 104.124 37.4123 102.801C37.4353 101.387 37.1592 99.9879 35.6174 99.4738Z" fill="#00A99D"/>
<path d="M64.1358 101.863C64.1205 101.062 63.5529 100.222 62.7245 100.041C60.5308 99.5495 58.3448 99.0581 56.1512 98.5742C53.9651 98.0827 51.7484 97.5913 49.4934 97.7198C48.3735 97.7803 47.6986 98.544 47.5758 99.61C46.4023 110.082 45.5125 120.584 44.8913 131.101C44.8356 132.058 45.3985 132.632 46.1052 132.834C46.4386 132.929 46.7692 133.051 47.0773 133.21C48.3812 133.86 50.3755 133.475 51.7868 133.445C54.8626 133.384 57.946 133.316 61.0217 133.256C62.1339 133.233 62.8396 132.401 62.9393 131.365C63.8827 121.559 64.2816 111.715 64.1358 101.863Z" fill="#00A99D"/>
<path d="M87.3916 82.205C86.6629 81.517 85.7042 81.3809 84.7454 81.2524C82.6207 80.9575 80.4884 80.7005 78.3484 80.5114C76.2544 80.3224 74.1605 80.1939 72.0665 80.1183C71.1384 80.088 70.0799 79.9292 69.1672 80.1712C68.0703 80.4661 67.3723 81.3582 67.1806 82.4243C67.0118 83.3619 67.1806 84.3523 67.2419 85.2974C67.3186 86.4164 67.3877 87.5354 67.449 88.6544C67.5718 90.7714 67.6715 92.8885 67.7635 95.0055C68.0419 101.8 68.1432 108.595 68.0745 115.397C68.0718 115.658 68.0426 115.919 67.9916 116.175C67.675 117.767 67.4634 119.383 67.357 120.999C67.0885 125.067 67.4414 129.15 67.7942 133.203C67.8939 134.344 68.9524 135.456 70.218 135.025C70.2589 135.011 70.2991 134.996 70.3385 134.981C71.526 134.528 72.5089 133.431 73.7771 133.349C76.5584 133.169 79.4336 133.854 82.2142 133.513C83.219 133.392 84.1394 132.998 84.6763 132.099C85.2286 131.169 85.2133 129.929 85.3513 128.893C85.6274 126.791 85.8882 124.697 86.126 122.587C87.0695 114.24 87.7138 105.855 88.0436 97.4552C88.2123 93.2892 88.312 89.1156 88.312 84.9496C88.3197 83.9138 88.1893 82.9611 87.3916 82.205Z" fill="#00A99D"/>
<path d="M115.902 65.0723C110.548 66.0627 105.126 66.5391 99.6798 66.5315C98.6624 66.5315 97.5273 67.012 96.803 67.7264C96.4986 68.0265 96.2946 68.4453 96.2742 68.9812C96.0901 73.2455 95.906 77.5022 95.7219 81.7665C95.5378 85.9703 95.4304 90.1665 94.8168 94.3325C93.5896 102.68 93.6126 111.17 93.2904 119.586C93.1064 124.44 92.93 129.294 92.7459 134.148C92.6922 135.66 94.3949 136.401 95.6299 135.781C98.046 134.571 101.252 135.017 103.868 135.032C107.105 135.055 110.349 135.1 113.586 135.236C114.575 135.274 115.565 134.337 115.503 133.346C114.982 124.757 114.575 116.055 115.082 107.458C115.335 103.133 115.956 98.8388 116.478 94.5367C116.999 90.2573 117.306 85.993 117.344 81.6909C117.383 76.92 117.291 72.1038 118.257 67.4085C118.564 65.9191 117.383 64.8001 115.902 65.0723Z" fill="#00A99D"/>
<path d="M112.988 52.0449C114.061 49.7616 113.985 46.7448 111.86 45.0361C110.855 44.2271 109.636 43.7129 108.378 43.4181C106.982 43.093 105.394 42.8964 104.067 43.5466C102.901 44.1137 102.127 45.278 101.812 46.5029C101.482 47.7731 101.321 49.4214 101.689 50.6991C102.05 51.9391 102.886 53.0203 103.63 54.0637C104.382 55.1222 105.141 56.1731 105.709 57.3451C105.736 57.4001 105.773 57.45 105.798 57.5062C106.104 58.1757 106.881 58.6897 107.588 58.6606C108.731 58.6077 109.375 57.829 109.505 56.7704C109.467 57.088 109.521 56.7704 109.544 56.7175C109.574 56.6268 109.605 56.5361 109.636 56.4529C109.687 56.3524 109.744 56.254 109.801 56.1572C109.838 56.0964 109.874 56.0353 109.912 55.9766C109.966 55.8858 110.027 55.8027 110.088 55.7195C110.152 55.6411 110.214 55.5601 110.281 55.4846C110.449 55.2957 110.621 55.1069 110.794 54.918C111.385 54.2905 111.975 53.6554 112.458 52.9371C112.542 52.8383 112.616 52.7328 112.68 52.6206C112.788 52.4319 112.895 52.2417 112.988 52.0449Z" fill="#FBB03B"/>
<path d="M117.474 28.3343C117.091 27.9941 116.715 27.7446 116.178 27.7068C115.702 27.6765 115.112 27.8428 114.767 28.1755C114.084 28.8257 113.808 30.1338 114.606 30.8445C114.614 30.8531 114.66 30.8935 114.715 30.9449C114.803 31.0265 114.88 31.1204 114.928 31.2301C114.966 31.2981 114.997 31.3737 115.027 31.4493C115.077 31.6212 115.119 31.806 115.16 31.9801C115.293 32.5453 115.417 33.1577 115.403 33.7251C115.403 33.7629 115.403 33.8008 115.403 33.8234C115.411 34.02 115.411 34.2242 115.411 34.4207C115.403 34.7685 115.388 35.1163 115.357 35.4641C115.327 35.8119 115.281 36.1522 115.227 36.5C115.204 36.6285 115.181 36.7646 115.158 36.8931C115.127 37.0065 115.096 37.1426 115.081 37.1804C114.836 38.1406 115.219 39.2748 116.27 39.5848C117.19 39.8569 118.448 39.4411 118.709 38.4128C119.162 36.6134 119.315 34.8366 119.169 32.9917C119.031 31.404 118.732 29.4533 117.474 28.3343Z" fill="#00A99D"/>
<path d="M99.6333 36.6739C99.5489 36.3488 99.4722 36.0161 99.4032 35.6759C99.2344 34.6552 99.1424 33.6118 99.1424 32.5457C99.1577 32.0467 99.1884 31.5401 99.2421 31.0411C99.3648 29.9372 98.7819 28.8031 97.9381 28.7578C97.1021 28.72 96.2814 29.5138 96.1586 30.6933C95.8672 33.3698 96.0666 36.0388 96.7186 38.4961C96.987 39.5168 97.9918 40.0082 98.7435 39.4865C99.5489 38.9422 99.9247 37.7627 99.6333 36.6739Z" fill="#00A99D"/>
<path d="M135.898 132.454C135.584 131.811 134.502 131.728 133.873 131.682C133.06 131.63 123.725 131.607 122.912 131.607C122.86 131.607 122.809 131.593 122.757 131.596C122.57 131.606 122.383 131.616 122.196 131.627C120.087 131.744 118.393 129.937 118.614 127.836C120.239 112.405 120.692 96.8594 119.936 81.3653C119.699 76.534 119.346 71.7102 118.878 66.894C118.864 66.7842 118.874 66.6748 118.902 66.5677C119.067 65.9356 118.717 65.1093 117.842 65.0189C116.109 64.8374 114.398 65.0794 112.68 65.3062C110.978 65.533 109.267 65.7069 107.549 65.8279C104.097 66.0623 100.63 66.0547 97.1712 65.843C97.126 65.8402 97.0823 65.8395 97.0399 65.8409C96.0874 65.8716 94.8434 67.2568 94.8241 68.2096C94.4789 84.7828 93.7119 101.356 92.5307 117.892C92.2009 122.526 91.8327 127.161 91.4339 131.788C91.4068 132.098 91.1029 132.717 90.7921 132.72C89.416 132.731 88.0371 132.739 86.663 132.733C86.2817 132.733 85.9844 132.396 86.0226 132.016C86.0793 131.452 86.1334 130.889 86.1874 130.329C86.2641 129.528 86.3408 128.726 86.4099 127.932C87.7905 115.941 87.8979 104.6 88.1357 92.8275C88.1433 91.7917 88.1433 90.7634 88.1433 89.7276C88.1433 87.7844 88.3351 85.6977 88.0513 83.7772C87.7445 81.7207 85.8576 81.3729 84.0781 80.9873C82.0302 80.5488 79.9669 80.201 77.8883 79.9288C75.8556 79.6642 73.8 79.4827 71.7521 79.392C70.103 79.3164 68.0857 79.1576 67.4107 81.0024C67.1423 81.7358 67.2036 82.5146 67.2496 83.2707C67.311 84.3216 67.38 85.3801 67.4567 86.4311C67.5334 87.482 67.6178 88.5405 67.7022 89.5915C67.8556 90.5139 67.8633 98.2183 67.8326 99.1559C67.4951 110.671 67.1116 113.476 66.3215 124.091C66.2525 124.991 66.1912 125.891 66.1605 126.791C66.1098 128.111 66.117 129.435 66.197 130.76C66.2432 131.524 65.6309 132.179 64.8657 132.148C64.3112 132.126 63.7561 132.103 63.1997 132.082C62.9474 132.072 62.789 131.775 62.8162 131.524C63.1614 127.925 63.4145 124.318 63.5679 120.704C63.6063 119.804 63.637 118.897 63.66 117.997C64.0586 112.052 62.6504 105.379 63.2318 99.3835C63.2548 99.1462 63.2618 98.9076 63.2422 98.6699C63.1963 98.1134 63.1235 97.5556 62.9467 97.0389C62.7396 96.4113 62.3791 95.8594 61.7348 95.4738C60.4538 94.7101 58.6283 94.8009 57.1863 94.6572C52.9984 94.2489 48.8104 93.8406 44.6225 93.4248C44.2467 93.387 43.7865 93.6516 43.61 93.9767C42.2371 96.623 41.8075 99.5188 41.6925 102.452C41.5698 105.567 41.6158 108.69 41.5928 111.813C41.5511 117.737 41.5095 123.662 41.4678 129.587C41.4606 130.619 40.6183 131.449 39.5861 131.441C38.6134 131.433 37.8031 130.687 37.7227 129.718C37.3558 125.299 36.9883 120.881 36.6148 116.463C36.4 113.847 36.1776 111.238 35.9628 108.622C35.7864 106.535 35.5947 104.343 33.4393 103.292C31.5218 102.362 28.9983 102.475 26.9196 102.505C24.4498 102.543 21.9723 102.823 19.5562 103.314C18.5668 103.518 17.2858 103.655 16.4881 104.32C15.5754 105.084 15.5984 106.505 15.422 107.579C15.0155 110.111 14.6703 112.652 14.3942 115.2C13.9177 119.538 13.6307 123.889 13.5262 128.246C13.4736 130.444 11.7067 132.228 9.50818 132.195C6.50373 132.15 2.9778 132.048 1.12469 131.894C-0.363331 131.766 -0.37867 134.041 1.10168 134.162C9.7767 134.888 22.3252 134.064 30.9925 133.792C39.6906 133.52 48.3886 133.762 57.0789 134.094C65.777 134.427 74.475 134.85 83.1807 134.956C91.9017 135.062 100.63 134.866 109.344 134.51C114.852 134.284 127.803 134.064 134.272 133.759C135.087 133.72 136.204 133.384 135.96 132.605C135.944 132.556 135.924 132.505 135.898 132.454ZM34.4595 131.456C29.6069 131.532 24.745 131.854 19.8811 132.059C17.6378 132.154 15.7849 130.348 15.841 128.104C15.9177 125.036 16.0823 121.969 16.3424 118.912C16.5418 116.584 16.795 114.255 17.1018 111.934C17.2398 110.875 17.3932 109.817 17.5543 108.758C17.6387 108.214 17.7307 107.662 17.8151 107.117C17.9071 106.588 17.8458 106.142 18.352 105.923C19.2954 105.515 20.5534 105.416 21.5582 105.25C22.7777 105.046 23.9973 104.917 25.2322 104.842C27.2341 104.721 29.4585 104.6 31.4374 105.023C32.2965 105.205 33.0098 105.545 33.3089 106.399C33.6464 107.374 33.6081 108.516 33.6924 109.537C33.8842 111.843 34.0759 114.141 34.2677 116.447L35.4301 130.401C35.4774 130.969 35.0293 131.456 34.4595 131.456ZM61.2515 120.122C61.1058 123.925 60.845 127.713 60.4768 131.501C60.4577 131.728 60.2749 131.967 60.0473 131.958C55.9486 131.798 51.846 131.648 47.7455 131.552C45.5467 131.501 43.7841 129.703 43.8001 127.503C43.8362 122.53 43.8712 117.559 43.9015 112.591C43.9245 109.552 43.9092 106.513 43.9705 103.481C44.0046 101.823 44.1001 100.145 44.4386 98.5222C44.7903 96.8359 46.462 95.8882 48.1765 96.0561C50.3411 96.268 52.5058 96.4814 54.6705 96.6911C56.3426 96.8574 58.0454 96.933 59.7021 97.1825C60.3004 97.2732 60.6686 97.4093 60.822 98.0142C61.0061 98.7476 60.9677 99.5717 61.0138 100.313C61.428 106.906 61.5047 113.521 61.2515 120.122ZM85.5738 107.48C85.5048 114.406 84.6687 121.203 84.1088 127.645C84.0321 128.484 83.9477 129.331 83.871 130.17C83.7279 131.607 82.5162 132.691 81.0727 132.665C77.8558 132.607 74.6411 132.515 71.4243 132.404C69.8159 132.348 68.4804 131.114 68.4539 129.505C68.4309 128.575 68.4462 127.645 68.4846 126.715C68.6226 114.255 70.2794 101.417 70.0109 89.6368C69.9572 88.6993 69.8882 87.7618 69.7962 86.8242C69.7271 85.8943 69.6581 84.9643 69.6044 84.0343C69.5737 83.5731 69.2286 82.0912 69.6121 81.7056C69.9572 81.3502 71.4606 81.6451 71.9055 81.6678C72.9026 81.7131 73.8921 81.7812 74.8892 81.8719C76.8298 82.0458 78.7703 82.2953 80.6879 82.6355C81.6083 82.7943 82.521 82.9758 83.4338 83.1724C84.0934 83.316 85.5508 83.3614 85.7579 84.0721C85.9957 84.8887 85.8039 86.0455 85.8116 86.8923C85.8192 87.8979 85.8193 88.8959 85.8193 89.9015C85.6812 95.5116 85.6352 100.048 85.6428 105.545C85.6198 106.18 85.5968 106.83 85.5738 107.48ZM117.16 118.141C116.904 121.636 116.583 125.126 116.206 128.609C115.996 130.55 114.397 132.041 112.447 132.129C106.4 132.401 100.347 132.602 94.2904 132.689C93.9908 132.693 93.7237 132.102 93.7503 131.803C95.1692 115.283 96.174 98.7249 96.757 82.1592C96.918 77.5169 97.0484 72.867 97.1482 68.2247C97.1482 68.1854 97.1424 68.1519 97.1409 68.119C97.1405 68.1106 97.1474 68.1037 97.1558 68.1037C100.615 68.323 104.074 68.323 107.534 68.0886C109.206 67.9752 110.878 67.8088 112.542 67.5896C112.685 67.5713 112.827 67.5528 112.969 67.5343C115.015 67.2678 116.744 68.7879 116.914 70.8439C118.217 86.5789 118.314 102.399 117.16 118.141Z" fill="#1E1E1E"/>
<path d="M89.5853 48.9299C83.3341 57.5644 75.5795 65.163 66.7894 71.2872C62.379 74.3644 57.7079 77.0863 52.8373 79.3999C47.4911 81.9404 41.9072 83.8986 36.2313 85.5922C29.167 87.6941 22.026 89.5465 14.9157 91.4896C13.4891 91.8828 14.095 94.0679 15.5293 93.6747C27.8937 90.295 40.6186 87.4371 52.3234 82.1369C62.2793 77.6307 71.4606 71.4384 79.3763 63.9759C80.3533 63.057 81.3068 62.1157 82.2389 61.1547C83.3532 60.0059 85.4302 61.2033 84.9218 62.7208C84.4539 64.112 86.6783 64.7018 87.1385 63.3257C88.6572 58.8195 90.1682 54.3132 91.6869 49.807C92.1241 48.5065 90.2986 47.9395 89.5853 48.9299Z" fill="#1E1E1E"/>
<path d="M83.8479 53.3906C83.5181 52.8916 82.8124 52.6421 82.2755 52.9823C81.7846 53.2923 81.2784 53.572 80.7491 53.8215C80.6187 53.882 80.496 53.935 80.3656 53.9954C80.2344 54.0472 80.0991 54.0983 79.9666 54.1467C79.7618 54.2216 79.5536 54.29 79.3455 54.3584C78.8086 54.5247 78.264 54.6608 77.7117 54.7515C77.5737 54.7742 77.4433 54.7969 77.3052 54.8196C77.2669 54.8271 77.1211 54.8423 77.0981 54.8423C76.7913 54.8725 76.4768 54.8952 76.17 54.9027C75.5717 54.9254 74.9888 55.4093 75.0195 56.0369C75.0502 56.6342 75.5257 57.1937 76.17 57.171C78.7395 57.0727 81.2707 56.3166 83.4414 54.9481C83.9399 54.623 84.1931 53.9198 83.8479 53.3906Z" fill="#1E1E1E"/>
<path d="M52.6991 75.7328C52.492 75.3623 51.909 75.1279 51.5179 75.3925C49.2782 76.9123 46.8313 78.1144 44.2388 78.9159C43.7939 79.052 43.4871 79.4829 43.6022 79.9517C43.7096 80.3827 44.2005 80.7153 44.653 80.5792C47.3913 79.7324 49.9915 78.5 52.3462 76.8971C52.7374 76.6325 52.9445 76.1713 52.6991 75.7328Z" fill="#00A99D"/>
<path d="M109.704 13.4093C109.068 12.0182 107.334 11.1865 105.854 11.7989C105.427 11.9755 104.966 12.2107 104.626 12.5248C104.563 12.5832 104.504 12.6489 104.45 12.7213C103.66 13.8176 103.131 15.0727 103.353 16.4261C103.453 17.0461 103.745 17.6283 104.174 18.0895C104.68 18.6187 105.371 18.8909 106.092 18.9665C107.411 19.1102 108.592 18.3995 109.328 17.3636C110.134 16.2295 110.28 14.6644 109.704 13.4093ZM107.843 15.5323C107.817 15.6294 107.784 15.7248 107.756 15.8212C107.742 15.8616 107.722 15.9011 107.703 15.9392C107.684 15.9759 107.666 16.0136 107.641 16.0481C107.587 16.1388 107.534 16.222 107.48 16.3051C107.472 16.3203 107.472 16.3203 107.465 16.3278C107.442 16.3505 107.419 16.3732 107.411 16.3807C107.342 16.4563 107.273 16.5244 107.196 16.5924C107.181 16.6075 107.165 16.6219 107.146 16.6326C107.122 16.6463 107.098 16.6572 107.081 16.668C107.048 16.6899 107.015 16.7082 106.981 16.7255C106.91 16.7627 106.835 16.7942 106.759 16.8193C106.741 16.8251 106.692 16.8444 106.635 16.8598C106.6 16.8692 106.565 16.8722 106.529 16.8722C106.467 16.8722 106.406 16.8798 106.345 16.8722C106.306 16.8722 106.276 16.8722 106.237 16.8646C106.155 16.8426 106.066 16.8276 105.983 16.799C105.979 16.7974 105.974 16.7968 105.97 16.795C105.96 16.7908 105.95 16.7837 105.94 16.7786C105.938 16.7774 105.935 16.7759 105.931 16.7739C105.893 16.7517 105.848 16.7223 105.81 16.6998C105.809 16.6988 105.806 16.6984 105.804 16.6982C105.798 16.6978 105.797 16.6874 105.792 16.6832C105.762 16.6454 105.723 16.6151 105.685 16.5773C105.672 16.5649 105.656 16.5538 105.646 16.539C105.616 16.4935 105.591 16.4458 105.572 16.4134C105.571 16.4118 105.57 16.4101 105.57 16.4082C105.568 16.4 105.562 16.4056 105.567 16.4123C105.586 16.4359 105.537 16.3674 105.524 16.3278C105.495 16.2468 105.474 16.1703 105.456 16.0913C105.445 16.0426 105.44 15.9866 105.434 15.9369C105.429 15.8961 105.422 15.8611 105.421 15.8199C105.42 15.7662 105.422 15.7138 105.426 15.6604C105.429 15.6014 105.442 15.5313 105.452 15.473C105.468 15.3856 105.481 15.3089 105.506 15.2236C105.526 15.157 105.547 15.0922 105.57 15.0274C105.585 14.9896 105.601 14.9064 105.631 14.8686C105.501 15.0727 105.639 14.8535 105.662 14.8081C105.716 14.6947 105.777 14.5813 105.846 14.4679C105.929 14.3214 106.019 14.1826 106.115 14.0461C106.187 13.9429 106.302 13.8796 106.421 13.8403C106.529 13.7949 106.629 13.7723 106.736 13.7345C106.761 13.7261 106.789 13.7193 106.816 13.7193C106.832 13.7193 106.846 13.7193 106.859 13.7193C106.912 13.7193 106.966 13.7193 107.027 13.7193C107.032 13.7193 107.038 13.7197 107.043 13.7207C107.053 13.7226 107.064 13.7252 107.074 13.728C107.125 13.7413 107.175 13.7592 107.222 13.7817C107.279 13.8089 107.33 13.8332 107.242 13.7723C107.124 13.6948 107.281 13.7938 107.348 13.8385C107.364 13.8496 107.38 13.8617 107.398 13.8717C107.402 13.874 107.406 13.8764 107.41 13.8789C107.426 13.8881 107.436 13.9031 107.449 13.9159C107.474 13.9403 107.524 13.9794 107.57 14.0214C107.591 14.0406 107.61 14.0661 107.626 14.0898C107.656 14.1427 107.695 14.1957 107.725 14.2486C107.77 14.3217 107.799 14.4036 107.825 14.4851C107.842 14.5366 107.858 14.5878 107.871 14.6405C107.877 14.6614 107.878 14.677 107.883 14.6978C107.889 14.7221 107.894 14.7527 107.897 14.7775C107.899 14.7966 107.902 14.8141 107.902 14.8232C107.909 14.9517 107.902 15.0878 107.902 15.2164C107.902 15.2365 107.9 15.2566 107.897 15.2764C107.891 15.3091 107.885 15.3384 107.879 15.3676C107.87 15.4207 107.858 15.476 107.843 15.5323Z" fill="#1E1E1E"/>
<path d="M116.769 26.1038C116.723 25.9979 116.646 25.9148 116.539 25.8392C116.402 25.7462 116.328 25.5851 116.346 25.4207L116.347 25.4158C117.405 16.3579 114.406 7.38327 108.132 0.79782C107.779 0.427341 107.525 0 107.158 0H106.936H106.736C106.25 0 106.061 0.147591 105.647 0.669286C99.5568 8.34349 96.4043 17.1443 96.7648 25.4536L96.7652 25.4587C96.77 25.5297 96.7567 25.6008 96.7265 25.6653C94.6479 30.0505 93.9192 33.899 94.5175 37.4299C94.6172 38.0347 95.0467 40.061 96.32 40.87C96.8262 41.1951 97.3938 41.2632 98.0611 41.0969C99.1043 40.8247 99.4724 39.872 99.8559 38.8589L100.502 37.1667C100.581 36.9598 100.796 36.8385 101.014 36.8779C101.29 36.9233 101.582 36.9535 101.866 36.9762C102.057 36.9913 102.241 37.014 102.425 37.0367C103.108 37.1199 103.783 37.203 104.466 37.2787C107.518 37.6038 110.057 37.5886 112.466 37.2408C112.496 37.2333 112.519 37.2257 112.55 37.2182C112.762 37.1471 112.996 37.2277 113.118 37.4147C113.425 37.9364 113.624 38.5111 113.823 39.0706C114.023 39.6301 114.207 40.1518 114.483 40.613C114.752 41.059 115.181 41.3237 115.672 41.3237C116.163 41.2859 116.623 41.059 116.899 40.6054C117.352 39.8644 117.597 38.8589 117.82 37.9667L117.843 37.8759C118.786 33.9821 118.418 29.9069 116.769 26.1038ZM97.7921 38.4514C97.6507 38.82 97.1484 38.8675 96.9405 38.5319C96.9257 38.508 96.913 38.4828 96.9028 38.4565C96.7744 38.1236 96.7009 37.8113 96.6345 37.513L96.6191 37.4374C96.458 36.7116 96.3737 35.948 96.366 35.1087C96.3507 33.9595 96.4887 32.7497 96.7802 31.5022C96.8864 31.035 97.548 31.0237 97.6699 31.4871C97.9077 32.3793 98.1455 33.1656 98.4139 33.9065C98.4279 33.9614 98.4618 34.0092 98.4805 34.0626L98.529 34.2014C98.621 34.5038 98.7514 34.8365 98.9048 35.1541C98.9587 35.265 98.9642 35.3933 98.92 35.5084L97.7921 38.4514ZM111.231 35.1389C111.159 35.2751 111.023 35.3667 110.87 35.3809C110.157 35.4489 109.421 35.4792 108.631 35.4792C107.634 35.4792 106.552 35.4263 105.34 35.3204C104.228 35.2221 103.123 35.086 102.188 34.965C102.103 34.9575 102.019 34.9424 101.927 34.9197C101.789 34.897 101.643 34.8668 101.536 34.8743C101.459 34.8743 101.382 34.8743 101.306 34.8592L101.302 34.8585C101.21 34.8393 101.125 34.792 101.06 34.7231C100.83 34.4887 100.585 33.8234 100.531 33.6268C100.489 33.5024 100.432 33.3832 100.388 33.2594C99.5613 30.9045 99.0693 28.4567 98.9048 25.9299C98.8998 25.8751 98.907 25.82 98.9261 25.7684L98.9278 25.7636C99.0094 25.5225 99.0067 25.2755 98.9304 25.0541C98.9107 24.9971 98.8906 24.94 98.8776 24.881C98.8651 24.8243 98.8581 24.7667 98.8569 24.7086C98.7038 17.3553 101.418 9.61742 106.514 2.90728C106.689 2.67571 107.032 2.66162 107.227 2.87704C115.166 11.7232 116.776 24.6824 111.231 35.1389ZM116.025 36.4772C116.017 36.5226 116.002 36.5755 115.994 36.6209L115.985 36.6636C115.896 37.0982 115.31 37.1804 115.104 36.7872C114.752 36.0538 114.368 35.5094 113.892 35.0785C113.746 34.9481 113.702 34.7378 113.784 34.5598L113.785 34.5568C114.345 33.3395 114.813 32.1222 115.189 30.9276C115.333 30.4638 116.005 30.5154 116.078 30.9956C116.217 31.8802 116.286 32.6666 116.286 33.4C116.293 34.5038 116.209 35.5094 116.025 36.4772Z" fill="#1E1E1E"/>
<path d="M112.32 46.0492C112.265 45.9997 112.225 45.936 112.204 45.865L112.198 45.845C111.477 43.1761 108.715 42.231 106.529 42.231C106.499 42.231 106.476 42.231 106.445 42.231C103.99 42.2536 100.861 43.2517 99.4113 45.9736C97.9463 48.7408 99.2195 51.7424 100.5 54.0485C101.145 55.2053 101.889 56.3394 102.61 57.4282C103.484 58.7589 104.397 60.1349 105.133 61.5866C105.402 62.1083 105.847 62.1007 106.092 62.0554C106.537 61.9646 107.028 61.5715 107.059 61.0195C107.22 58.4715 108.086 56.0597 109.72 53.6478L109.827 53.489C111.285 51.3342 112.665 49.3079 112.627 46.7599C112.619 46.465 112.52 46.2231 112.32 46.0492ZM110.51 47.3194C110.341 49.1718 109.268 50.7142 108.232 52.1961C107.856 52.7329 107.503 53.2395 107.197 53.7536C106.591 54.7592 106.1 55.8631 105.732 57.035C105.615 57.4066 105.119 57.4757 104.905 57.1501L104.443 56.4452C104.09 55.916 103.745 55.3792 103.4 54.8424L103.162 54.4719C102.081 52.7858 100.731 50.6839 100.784 48.6123C100.846 46.3289 102.924 44.8697 104.965 44.4311C105.931 44.227 108.094 44.0682 109.36 44.968C109.881 45.3384 110.196 45.8526 110.265 46.465C110.288 46.6767 110.357 46.8733 110.456 47.0472L110.459 47.0508C110.507 47.1315 110.525 47.2266 110.51 47.3194Z" fill="#1E1E1E"/>
<path d="M92.7455 25.4987C92.0782 25.3475 91.5719 25.7028 91.3265 26.2926C90.4521 28.4096 90.0149 30.693 90.0149 32.9763C90.0149 33.5661 90.5441 34.1407 91.1654 34.1104C91.7867 34.0802 92.316 33.6114 92.316 32.9763C92.316 32.4168 92.339 31.8649 92.3927 31.3129C92.408 31.192 92.4157 31.0786 92.431 30.9576C92.4387 30.9047 92.4387 30.882 92.4387 30.8669C92.4387 30.8593 92.4463 30.8366 92.454 30.7837C92.5 30.5115 92.5461 30.2317 92.5998 29.9596C92.8145 28.9086 93.129 27.8803 93.5432 26.8899C93.7733 26.3455 93.2977 25.6272 92.7455 25.4987Z" fill="#1E1E1E"/>
<path d="M89.8827 24.8572C89.9577 24.5868 89.9158 24.2807 89.7697 24.0413C89.7647 24.0331 89.7596 24.025 89.7543 24.017L89.5779 23.7902C89.5086 23.7219 89.4341 23.6656 89.3544 23.6188C89.177 23.5145 88.9701 23.4731 88.7649 23.4575C88.6692 23.4575 88.5769 23.4688 88.487 23.4906C88.2749 23.5422 88.0893 23.6683 87.9199 23.8061C87.8682 23.8483 87.819 23.8927 87.7754 23.9414C87.6833 24.0397 87.6067 24.1531 87.5223 24.259C87.4993 24.2892 87.4763 24.327 87.4533 24.3648C87.4109 24.4344 87.3726 24.5069 87.3395 24.5813C87.3018 24.666 87.2682 24.7517 87.2308 24.8411C87.2001 24.9243 87.1771 24.9999 87.1618 25.0906C87.146 25.1425 87.1347 25.1944 87.128 25.2463C87.1022 25.4441 87.127 25.6514 87.2054 25.8347C87.225 25.8806 87.2488 25.925 87.2768 25.9677C87.2782 25.9703 87.2796 25.9728 87.281 25.9753C87.4196 26.2277 87.676 26.414 87.9547 26.4863C87.9589 26.4873 87.963 26.4884 87.9671 26.4894C88.0669 26.5045 88.1742 26.5196 88.2739 26.5272C88.4322 26.5272 88.5815 26.4963 88.7253 26.4379C88.8149 26.4014 88.896 26.3442 88.973 26.2854C89.0486 26.2277 89.1235 26.1704 89.1823 26.0956C89.2685 25.986 89.3304 25.865 89.3763 25.7325C89.383 25.713 89.3872 25.6927 89.3922 25.6726C89.4009 25.6377 89.4141 25.6057 89.4215 25.5741C89.4237 25.5646 89.4292 25.555 89.4339 25.5465C89.4399 25.5356 89.4449 25.5243 89.4536 25.5154C89.4859 25.4822 89.5145 25.449 89.5549 25.4158C89.5377 25.4284 89.523 25.4411 89.5079 25.4525C89.4966 25.4611 89.4834 25.4484 89.4935 25.4384C89.6082 25.3395 89.7237 25.2365 89.7937 25.1022C89.8259 25.0405 89.8511 24.9736 89.8694 24.9016C89.8742 24.8867 89.8786 24.8719 89.8827 24.8572Z" fill="#00A99D"/>
<path d="M119.261 8.92544C119.062 8.36594 118.464 7.93498 117.842 8.13156C117.282 8.31302 116.83 8.92544 117.037 9.53031C117.835 11.791 118.203 13.9609 118.188 16.3199C118.188 16.9096 118.717 17.4843 119.338 17.454C119.967 17.4238 120.489 16.955 120.489 16.3199C120.512 13.8097 120.097 11.292 119.261 8.92544Z" fill="#1E1E1E"/>
<path d="M123.941 11.1379C123.941 10.8668 123.825 10.59 123.626 10.4059C123.619 10.3987 123.611 10.3916 123.603 10.3847C123.495 10.2712 123.373 10.1956 123.234 10.1503C123.096 10.0822 122.951 10.0444 122.79 10.052C122.586 10.0828 122.376 10.105 122.199 10.2109C122.12 10.2586 122.046 10.3165 121.977 10.3847L121.8 10.6115C121.693 10.7854 121.647 10.982 121.647 11.1861V11.481C121.644 11.5273 121.646 11.5723 121.651 11.6163C121.676 11.8274 121.761 12.0363 121.899 12.1977C121.925 12.2276 121.953 12.2558 121.984 12.2824C122.092 12.3958 122.214 12.4714 122.352 12.5168C122.49 12.5848 122.636 12.6226 122.797 12.6151C123.001 12.5843 123.211 12.562 123.387 12.4561C123.467 12.4084 123.541 12.3505 123.61 12.2824L123.787 12.0556C123.894 11.8817 123.94 11.6851 123.94 11.481V11.1861C123.941 11.1699 123.941 11.1538 123.941 11.1379Z" fill="#00A99D"/>
</svg>
