<svg width="136" height="136" viewBox="0 0 136 136" fill="none" xmlns="http://www.w3.org/2000/svg">
<path d="M25.6413 61.6757C26.1765 59.2219 27.5756 56.7063 29.9227 55.68C32.6979 54.4609 35.9548 54.2448 38.9441 54.3065C41.2148 54.3528 43.5237 54.7155 45.5573 55.7341C49.617 57.2465 52.4228 62.0306 49.6705 66.0432C49.0665 66.9228 48.2638 67.6019 47.2852 68.0186C46.0772 68.5356 45.2439 68.7979 44.5482 70.0017C43.7913 71.3135 42.5986 76.0359 40.2974 74.9402C39.2347 74.4309 39.0282 72.687 38.6613 71.6916C38.4854 71.2286 38.6613 71.352 38.1567 71.3135C37.912 71.2903 37.6674 71.2672 37.4151 71.2363C36.5741 71.1437 35.7408 71.0279 34.8998 70.9045C32.438 70.5264 29.5404 70.1637 27.5603 68.4893C25.6107 66.8225 25.1138 64.1063 25.6413 61.6757Z" fill="#00A99D"/>
<path d="M45.9548 37.1915C46.5894 35.8102 47.2545 34.3596 48.409 33.3333C50.5267 31.4582 53.4243 31.1573 56.1231 31.0261C59.3724 30.8718 62.6522 30.7714 65.8709 31.327C69.0131 31.8749 71.9566 33.3024 74.556 35.1544C76.9184 36.8365 78.3022 39.2903 78.4016 42.2303C78.613 48.2554 73.9044 52.0922 68.8936 54.4094C68.41 54.6331 67.9687 54.9384 67.5957 55.3188C67.2946 55.6258 66.9885 55.9278 66.6737 56.2124C66.5293 56.3435 66.387 56.4808 66.2527 56.6221C65.6873 57.2166 64.5389 57.223 64.3342 56.197C64.3015 56.0429 64.2727 55.8889 64.2422 55.7348C64.218 55.6126 64.158 55.5014 64.0936 55.3948C64.0205 55.2738 63.9686 55.14 63.9377 54.9991C63.9085 54.8655 63.5322 54.7308 63.6691 54.7308C62.7516 54.7308 61.7577 54.4994 60.8479 54.3836C59.0819 54.1676 57.3234 53.9669 55.5574 53.7277C52.5375 53.3265 49.7546 52.4468 47.7821 49.9698C46.0084 47.7398 44.7928 44.6147 44.7545 41.7442C44.7316 40.116 45.2897 38.6422 45.9548 37.1915Z" fill="#00A99D"/>
<path d="M86.8957 46.1891C88.2489 43.9513 90.7337 43.1874 93.1267 42.655C98.272 41.5206 104.251 40.7181 108.823 44.0285C112.477 46.6829 114.969 51.822 113.662 56.3747C112.76 59.5307 109.801 60.5338 106.995 61.4444C103.991 62.4244 100.91 63.0417 97.7827 63.4275C96.9501 63.5272 96.0853 63.0949 95.2825 62.8526C94.6513 62.662 94.0526 62.3161 93.5548 61.9151C92.9075 61.3978 92.5006 60.5244 91.7291 60.222C91.0737 59.965 90.4281 59.684 89.8162 59.3378C87.6526 58.1109 86.3147 56.0506 85.9477 53.5814C85.5884 51.197 85.6113 48.3188 86.8957 46.1891Z" fill="#00A99D"/>
<path d="M86.2766 6.06395C88.2491 3.98052 91.0014 3.03912 93.7843 2.76905C95.2293 2.63015 96.6895 2.70732 98.1268 2.88479C99.7014 3.07765 101.284 3.3245 102.736 3.98001C102.737 3.98035 102.736 3.98048 102.737 3.98053C102.742 3.98079 102.75 3.98462 102.754 3.98202C103.502 3.4723 104.483 3.60488 105.176 4.21201C109.144 7.71526 111.422 14.1739 109.22 19.2513C108.112 21.8131 105.703 23.1866 103.15 23.9274C101.918 24.2835 100.626 24.5918 99.3172 24.8134C99.1629 24.8395 99.0204 24.9246 98.9449 25.0617C98.8149 25.2701 98.7079 25.4938 98.5703 25.7022C97.714 27.0448 96.529 27.338 95.0381 27.3149C92.798 27.284 90.3363 26.659 88.3026 25.6945C87.2628 25.2006 86.3836 24.3364 86.0396 23.2021C85.8905 22.6959 85.8856 22.1775 85.8278 21.6578C85.8258 21.6401 85.7612 21.2866 85.7575 21.2692C85.7573 21.268 85.7564 21.2647 85.7559 21.2636C85.7406 21.233 85.7178 21.1947 85.6803 21.1341C85.5732 20.9566 85.4509 20.7868 85.3515 20.6016C85.0944 20.1355 84.9525 19.6549 84.8888 19.1672C84.831 18.7248 84.7673 18.2813 84.6428 17.8529C84.2925 16.648 84.095 15.3735 83.9524 14.1044C83.6084 11.1645 84.2047 8.24769 86.2766 6.06395Z" fill="#FBB03B"/>
<path d="M45.626 108.46C47.9502 108.298 50.2438 107.974 52.5145 107.48C54.6934 107.01 56.9717 106.469 59.0283 105.59C60.7561 104.849 61.3066 102.781 61.9411 101.145C62.7974 98.946 63.5008 96.6928 64.0665 94.4088C64.2653 93.5908 65.0834 92.989 65.9091 92.989C66.8112 92.989 67.4381 93.6063 67.7516 94.4088C68.6079 96.5771 69.4641 98.7377 70.3128 100.906C70.9703 102.58 71.6048 104.44 72.8892 105.752C74.1584 107.056 75.9627 107.28 77.6981 107.241C80.0147 107.195 82.293 106.716 84.6172 106.925C85.8388 107.035 86.5527 107.992 86.462 109.013C86.3989 109.724 86.1363 110.454 85.7292 111.04C85.5762 111.261 85.3804 111.459 85.1523 111.624C83.6386 112.735 82.1477 113.877 80.6875 115.066C79.9382 115.675 79.2043 116.285 78.4703 116.91C78.1033 117.218 77.744 117.535 77.377 117.851C77.1935 118.013 77.0177 118.168 76.8342 118.33C76.814 118.347 76.7922 118.37 76.769 118.395C76.7096 118.461 76.6688 118.554 76.6966 118.638C76.7501 118.885 76.8036 119.132 76.8495 119.379C76.9565 119.873 77.0636 120.367 77.1706 120.861C77.3847 121.848 77.6064 122.828 77.8358 123.816C78.3098 125.845 78.8067 127.867 79.3266 129.881C79.7318 131.447 77.9581 132.998 76.5208 132.057C74.6706 130.853 72.8357 129.619 70.9703 128.446C70.0987 127.898 69.2042 127.342 68.2562 126.933C67.4305 126.578 67.2776 126.794 66.4748 127.211C62.4916 129.302 58.5084 131.393 54.5175 133.485C53.0573 134.249 51.2683 132.983 51.7117 131.309C52.2316 129.341 52.6521 127.335 52.9197 125.313C53.0573 124.287 53.1872 123.237 53.2102 122.203C53.2331 121.27 52.7362 120.706 52.1933 119.989C49.8921 116.933 47.1933 114.186 44.2575 111.755C42.8813 110.598 44.1352 108.561 45.626 108.46Z" fill="#00A99D"/>
<path d="M79.8541 136C80.1599 136 80.4657 135.946 80.7639 135.838C81.4902 135.576 82.0865 135.02 82.3924 134.31C82.5988 133.816 82.6676 133.276 82.5758 132.744C82.5682 132.69 82.5529 132.636 82.5376 132.582C81.7884 130.275 81.5131 127.952 81.215 125.49C81.0391 124.024 80.8556 122.504 80.5651 120.953C80.5575 120.907 80.5651 120.822 80.5881 120.753C80.611 120.683 80.6492 120.614 80.7027 120.56L89.1814 112.218C89.9383 111.477 90.2059 110.382 89.8771 109.363C89.5484 108.345 88.6997 107.619 87.6523 107.473L86.4367 107.295C85.3282 107.118 84.1126 107.056 82.8281 106.986C79.5407 106.817 76.1385 106.639 75.0528 104.394L70.3586 94.7868C69.8923 93.83 68.9442 93.2358 67.8892 93.2358C66.8341 93.2358 65.8861 93.83 65.4197 94.7868L64.8769 95.898C64.6246 96.4767 64.4029 97.0092 64.1812 97.5339C62.9602 100.447 61.7021 103.451 60.0187 105.627C59.971 105.689 59.9074 105.736 59.831 105.752L48.1184 107.473C47.5832 107.55 47.0939 107.781 46.6963 108.128C46.3217 108.46 46.0465 108.892 45.8936 109.371C45.8095 109.641 45.8248 109.942 45.9471 110.196C46.9639 112.45 48.6688 114.078 50.3279 115.644C51.36 116.632 52.3386 117.558 53.1414 118.615C53.1719 118.654 53.2025 118.692 53.2407 118.731C53.5924 119.086 53.9212 119.41 54.1964 119.68L55.0756 120.544C55.1827 120.652 55.2362 120.807 55.2056 120.961L54.0588 127.728C53.9823 128.129 53.8677 128.6 53.7606 129.071C53.2738 131.171 52.8066 133.173 53.7945 134.155C53.9639 134.323 54.1591 134.467 54.347 134.614C56.4981 136.3 59.1752 134.671 61.3601 133.353C62.4457 132.697 63.5619 132.018 64.5023 131.764C64.5788 131.741 64.6552 131.71 64.7317 131.671L67.6904 130.105C67.828 130.035 67.9886 130.035 68.1185 130.105L78.5926 135.661C78.9749 135.892 79.4183 136 79.8541 136ZM80.2591 133.004C80.2993 133.134 80.3373 133.272 80.2899 133.4C80.2364 133.515 80.1293 133.616 80.007 133.662C79.8847 133.708 79.7624 133.693 79.6477 133.631L69.1736 128.075C68.3708 127.651 67.4152 127.651 66.6124 128.075L64.1246 129.392C63.8877 129.517 63.6377 129.615 63.3853 129.705C62.304 130.091 61.2204 130.751 60.1674 131.386C57.8967 132.767 56.4518 133.539 55.5726 132.651C55.526 132.604 55.4901 132.545 55.4871 132.479C55.4593 131.865 55.7835 130.485 55.9854 129.619C56.1001 129.117 56.2148 128.623 56.3065 128.168L57.461 121.37C57.6139 120.467 57.3157 119.549 56.6658 118.908L55.7866 118.044C55.5876 117.849 55.36 117.621 55.1113 117.374C54.9758 117.239 54.8502 117.095 54.7316 116.945C53.8671 115.853 52.8611 114.902 51.8952 113.978C50.5335 112.686 49.2442 111.453 48.3798 109.936C48.3399 109.866 48.3675 109.784 48.4471 109.772L60.1598 108.051C60.5955 107.99 61.0237 107.812 61.383 107.55C61.4595 107.488 61.5359 107.426 61.5971 107.349C63.5925 104.903 64.9687 101.624 66.2913 98.4444C66.513 97.9197 66.7347 97.395 66.9488 96.878L67.4687 95.8208C67.5834 95.5971 67.7745 95.5585 67.8815 95.5585C67.9886 95.5585 68.1873 95.5893 68.2944 95.8208L72.9886 105.405C74.6629 108.869 78.9367 109.093 82.7058 109.294C83.9291 109.355 85.0835 109.417 86.0927 109.579L87.3236 109.757C87.5682 109.795 87.6676 109.973 87.6982 110.073C87.7288 110.173 87.7594 110.374 87.5835 110.551L79.1049 118.893C78.7838 119.209 78.5468 119.595 78.4091 120.027C78.2715 120.452 78.2409 120.907 78.3098 121.347C78.5926 122.851 78.7685 124.333 78.9367 125.76C79.2196 128.135 79.5098 130.576 80.2591 133.004Z" fill="#1E1E1E"/>
<path d="M1.15324 109.587C1.37495 109.656 1.64254 109.795 1.92542 109.942C2.40707 110.189 2.95753 110.474 3.53858 110.528C4.25724 110.59 4.99884 110.243 5.58753 109.965C5.73279 109.896 5.86276 109.834 5.99273 109.78C7.4377 109.17 8.87502 108.622 10.4347 108.576C11.4286 108.553 12.4072 108.723 13.4469 108.908C14.1579 109.039 14.8995 109.17 15.6488 109.232C16.421 109.294 17.2466 109.325 18.0647 109.108C18.6763 108.946 19.1503 108.646 19.6167 108.352C19.8155 108.229 20.0066 108.105 20.2207 107.997C21.5739 107.28 22.6978 107.488 24.1809 108.09L24.5021 108.221C25.1901 108.507 25.97 108.831 26.788 108.923C27.7437 109.031 28.6382 108.738 29.3568 108.499L29.8461 108.337C31.1153 107.905 32.3156 107.503 33.5923 107.596C35.2667 107.72 36.8492 108.499 38.4471 109.355C39.1352 109.726 38.8676 110.351 38.7682 110.536C38.5847 110.883 38.0954 111.369 37.415 111.007L37.2468 110.914C35.8171 110.142 34.1887 109.271 32.3615 109.595C31.5893 109.734 30.8706 109.98 30.1749 110.227C29.3798 110.505 28.6229 110.768 27.8354 110.852C26.3063 111.022 24.869 110.436 23.4699 109.88L23.2712 109.795C22.7589 109.579 22.1244 109.317 21.3369 109.602C20.8705 109.772 20.473 110.027 20.0907 110.274C19.7696 110.482 19.4638 110.675 19.158 110.791C18.0341 111.231 16.6885 111.331 14.9148 111.092C14.4561 111.03 13.9974 110.945 13.531 110.86C12.5983 110.69 11.6426 110.513 10.664 110.513C10.3047 110.513 9.93771 110.536 9.57074 110.598C8.51568 110.76 7.56003 111.184 6.64259 111.585C6.09212 111.832 5.5646 112.056 5.02943 112.234C4.22667 112.496 3.50036 112.542 2.8658 112.38C2.52176 112.288 2.17007 112.126 1.81074 111.956C1.45141 111.786 1.07679 111.609 0.66394 111.485C0.312256 111.377 0.0981865 111.161 0.029377 110.837C-0.0623665 110.451 0.0676117 110.004 0.335197 109.749C0.556911 109.541 0.816849 109.487 1.15324 109.587Z" fill="#1E1E1E"/>
<path d="M7.74323 119.773C7.96494 119.626 8.31663 119.502 8.76006 119.726C10.2585 120.482 11.9329 120.668 13.6225 120.266C14.1577 120.135 14.6775 119.981 15.1974 119.819C16.1913 119.518 17.1317 119.232 18.1256 119.171C19.15 119.109 20.1516 119.356 21.2143 119.61C21.7112 119.734 22.2158 119.85 22.7281 119.942C24.2495 120.22 25.5415 119.796 26.7877 119.394C27.0324 119.317 27.2847 119.232 27.537 119.155C28.9819 118.723 30.404 118.692 32.0095 119.07C32.2771 119.132 32.537 119.194 32.797 119.263C34.1425 119.595 35.5416 119.942 37.1013 119.819C37.9117 119.757 38.6609 119.518 39.3872 119.294C40.1441 119.055 40.8704 118.831 41.5814 118.831C41.6732 118.831 41.7649 118.831 41.849 118.847C43.2022 118.962 44.3108 119.819 45.5646 121.069C45.8093 121.316 45.8934 121.57 45.8169 121.848C45.7252 122.211 45.3964 122.535 45.0218 122.643C44.7007 122.728 44.4102 122.643 44.1426 122.388L43.9591 122.203C43.4622 121.702 42.8506 121.069 42.0631 120.861C41.3444 120.668 40.6716 120.93 40.1365 121.146C39.9836 121.208 39.8383 121.262 39.7007 121.308C38.1869 121.771 36.4896 121.925 34.9223 121.725C34.2725 121.64 33.6226 121.462 32.9269 121.277C31.9865 121.023 31.0079 120.752 29.9911 120.729C28.8978 120.706 27.9345 121.046 26.9865 121.37C26.5201 121.532 26.0767 121.686 25.6333 121.786C24.2571 122.111 22.9039 121.848 21.4666 121.57C19.884 121.262 18.2555 120.945 16.5124 121.432C16.2066 121.516 15.9008 121.609 15.595 121.702C14.387 122.064 13.2402 122.396 12.017 122.427C10.6026 122.466 9.13468 122.087 7.63619 121.324C7.35332 121.185 7.21571 120.992 7.20042 120.745C7.17748 120.398 7.40683 119.989 7.74323 119.773Z" fill="#00A99D"/>
<path d="M18.363 130.892C20.0679 131.339 21.467 130.815 22.8202 130.313C23.7759 129.958 24.6704 129.619 25.6414 129.642C26.4747 129.657 27.2469 129.989 28.0573 130.336C28.3249 130.452 28.5925 130.568 28.8753 130.676C30.0604 131.131 31.3906 131.316 32.9427 131.231C34.5558 131.146 36.0925 130.737 37.5681 130.344C38.4779 130.097 39.4182 129.85 40.351 129.688C41.0008 129.572 41.5742 129.518 42.0941 129.518C42.7669 129.518 43.3479 129.619 43.8908 129.812C44.5635 130.051 45.1522 130.475 45.7715 130.915C46.1691 131.2 46.5819 131.494 47.033 131.748C47.3311 131.918 47.4841 132.165 47.4917 132.466C47.4917 132.844 47.2623 133.253 46.9336 133.446C46.6584 133.608 46.3602 133.6 46.0544 133.423C45.7486 133.245 45.4428 133.014 45.1217 132.767C44.4871 132.281 43.7761 131.733 42.8969 131.532C41.7271 131.27 40.5421 131.594 39.5023 131.887L39.1659 131.98C36.8876 132.589 34.3112 133.292 31.8111 133.207C30.5191 133.168 29.3493 132.944 28.3325 132.543C28.1185 132.458 27.8967 132.358 27.6827 132.25C26.8876 131.88 25.9854 131.447 24.9304 131.679C24.2729 131.818 23.6765 132.072 23.0955 132.327C22.5603 132.559 22.0557 132.775 21.5358 132.883C20.3279 133.137 19.0817 133.106 17.8355 132.775C17.4991 132.69 17.2927 132.505 17.2162 132.211C17.1168 131.849 17.2315 131.393 17.5067 131.116C17.7208 130.876 18.0113 130.807 18.363 130.892Z" fill="#1E1E1E"/>
<path d="M46.979 35.494C48.3092 32.4383 50.8169 29.429 53.2405 27.7545C56.1075 25.7714 59.4102 25.8254 62.5907 26.0415C65.7482 26.2498 68.9057 26.8285 71.9562 27.8702C74.9914 28.9042 78.3171 30.3086 80.8019 32.801C83.0572 35.0619 84.097 38.6886 83.6536 42.2382C83.1337 46.3973 80.4578 49.0054 77.4532 50.3481C76.3905 50.8188 75.2284 51.0117 74.1428 51.4207C72.8507 51.9145 71.8492 53.0797 70.9929 54.1446C70.473 54.7927 69.9914 55.4563 69.4638 56.0968C69.2039 56.4132 68.9057 56.7064 68.6458 57.0305C68.4241 57.3083 68.2329 57.6169 67.9424 57.8407C67.1473 58.4349 66.314 57.7558 66.0158 56.961C65.7406 56.2357 65.4653 55.5026 65.1978 54.7773C64.8865 53.9291 64.1537 53.4588 63.2515 53.5073C63.1982 53.5102 63.1461 53.5118 63.0953 53.5118C62.3078 53.5118 61.5127 53.4732 60.7252 53.3884C58.9974 53.2032 57.2772 52.8482 55.6029 52.2849C52.7817 51.3281 49.5936 49.9237 47.7817 46.8834C45.9698 43.8355 45.5111 38.8661 46.979 35.494ZM47.9728 43.3339C48.4698 45.0084 49.5019 46.0732 50.7252 46.8989C53.8139 48.9977 57.5677 49.9931 61.054 50.2401C62.1014 50.3172 63.1488 50.3095 64.2039 50.2555C65.0754 50.2092 65.9546 50.1629 66.7421 50.7416C67.8383 51.5424 69.585 51.8193 70.4863 50.8042C71.4308 49.7405 72.5317 48.8894 73.8752 48.3418C76.444 47.2924 79.4639 47.0841 81.36 44.3447C82.9426 42.0684 82.7285 38.3877 81.1459 36.1962C79.1505 33.4338 75.5036 32.122 72.7437 31.1034C69.4791 29.8919 66.1152 29.1897 62.7207 28.9274C59.739 28.6959 56.3292 28.3024 53.6227 30.1697C52.3613 31.0417 51.2909 32.2146 50.2894 33.5109C49.3261 34.761 48.0875 36.2502 47.6517 37.9324C47.2236 39.576 47.4988 41.7366 47.9728 43.3339Z" fill="#1E1E1E"/>
<path d="M58.3782 41.7829C58.8904 41.806 59.1886 42.1687 59.2421 42.6548C59.2421 42.6825 59.246 42.7061 59.2511 42.7315C59.2552 42.7524 59.2584 42.7735 59.265 42.7937C59.288 42.8863 59.2956 42.9866 59.3186 43.0792C59.3568 43.2413 59.395 43.4033 59.4485 43.5576C59.4715 43.6348 59.502 43.712 59.5326 43.7891C59.5708 43.8817 59.5708 43.8894 59.5403 43.8046C59.5699 43.8793 59.6103 43.9497 59.6481 44.0206C59.7122 44.1411 59.7845 44.2545 59.8614 44.3679C59.8816 44.3951 59.8977 44.4277 59.9216 44.4518C59.9219 44.4521 59.9222 44.4524 59.9225 44.4527C59.976 44.5145 60.0296 44.5762 60.0907 44.6302C60.0912 44.6307 60.0917 44.6312 60.0923 44.6318C60.1848 44.721 60.2899 44.7977 60.3965 44.8694C60.4653 44.908 60.5265 44.9466 60.5953 44.9775C60.6106 44.9852 60.6183 44.9929 60.6259 44.9929C60.6535 44.9929 60.6772 45.0128 60.7035 45.0213C60.7613 45.0399 60.8223 45.0575 60.8782 45.0701C60.8875 45.0732 60.9159 45.0789 60.9489 45.0851C61.034 45.1011 61.1203 45.1164 61.2069 45.1164C61.218 45.1164 61.2289 45.1162 61.2396 45.1158C61.2597 45.1152 61.5551 45.0558 61.5747 45.0515C61.5926 45.0476 61.6957 45.0169 61.7118 45.0082C61.7366 44.9947 61.7613 44.9813 61.788 44.9697C61.8537 44.9366 61.9036 44.8795 61.956 44.8278C61.9904 44.7938 62.0254 44.761 62.0556 44.7305C62.0709 44.7151 62.0785 44.7151 62.0862 44.7074C62.0938 44.6997 62.0862 44.6997 62.1014 44.6765C62.1855 44.5531 62.262 44.4296 62.3232 44.2984C62.3308 44.283 62.392 44.1518 62.4073 44.1132C62.4226 44.0592 62.4608 43.9589 62.4684 43.9435C62.5755 43.6348 62.6596 43.3107 62.736 42.9943C62.843 42.5545 63.3629 42.2459 63.7987 42.3847C64.2574 42.5314 64.5174 42.9789 64.4027 43.4573C64.1963 44.3138 63.9287 45.1472 63.3706 45.8494C62.7666 46.6133 61.7803 46.9529 60.8323 46.8294C59.8461 46.6982 59.028 46.1581 58.4393 45.3556C57.8659 44.5762 57.6289 43.6194 57.5295 42.6703C57.4607 42.1996 57.9424 41.7674 58.3782 41.7829Z" fill="#1E1E1E"/>
<path d="M63.5392 36.1575C64.6478 36.1575 64.6555 37.9014 63.5392 37.9014C62.4307 37.9014 62.4307 36.1575 63.5392 36.1575Z" fill="#1E1E1E"/>
<path d="M57.9655 36.7517C59.0741 36.7517 59.0817 38.4956 57.9655 38.4956C56.8569 38.4956 56.8493 36.7517 57.9655 36.7517Z" fill="#1E1E1E"/>
<path d="M88.6767 73.7425C88.6464 73.749 88.6162 73.7596 88.5852 73.7596C88.5775 73.7596 88.5622 73.7596 88.5622 73.7596C88.5087 73.7596 88.4628 73.7673 88.4093 73.7673C88.3176 73.7673 88.2258 73.7673 88.1417 73.7596C88.1264 73.7596 88.0959 73.7519 88.0806 73.7519C88.0495 73.7519 88.0193 73.7419 87.9888 73.7361C87.9589 73.7304 87.9301 73.7235 87.9047 73.7133C87.8606 73.7006 87.8216 73.6878 87.7793 73.6751C87.7611 73.6696 87.7469 73.6663 87.7293 73.6591C87.7023 73.6481 87.6692 73.6377 87.643 73.6249C87.5936 73.6007 87.5445 73.5738 87.4974 73.5443C87.4574 73.5192 87.4181 73.4922 87.3848 73.4587C87.3493 73.43 87.3204 73.3947 87.292 73.3589C87.2906 73.3571 87.28 73.3452 87.2785 73.3436C87.2783 73.3434 87.2778 73.3428 87.2777 73.3426C87.2736 73.3345 87.2676 73.3244 87.2616 73.3143C87.2517 73.2977 87.2422 73.282 87.2346 73.2643C87.2242 73.2401 87.2119 73.2144 87.2035 73.1895C87.1777 73.1135 87.1544 73.0286 87.1478 72.9494C87.0943 72.5018 87.316 71.9771 87.6524 71.6993C87.8741 71.5218 88.1341 71.3752 88.3711 71.2132C88.5393 71.1206 88.6998 71.0357 88.8757 70.9508C90.8558 70.0326 93.2106 69.369 95.4048 69.531C97.6449 69.7008 99.6327 70.8042 101.246 72.3475C104.48 75.4263 106.139 79.8787 106.743 84.2462C107.087 86.7309 107.148 89.2387 107.072 91.7465C106.995 94.2389 106.781 96.739 106.131 99.1465C105.703 100.713 103.295 100.042 103.723 98.4752C104.388 96.0291 104.549 93.5213 104.594 90.998C104.64 88.5751 104.579 86.129 104.151 83.7369C103.478 79.979 101.926 76.09 98.914 73.6207C97.4079 72.3861 95.6418 71.8382 93.7075 72.1083C92.36 72.2944 90.8941 72.693 89.6331 73.3657C89.4374 73.4701 89.2389 73.571 89.0288 73.6423C88.9111 73.6822 88.7947 73.7169 88.6767 73.7425Z" fill="#1E1E1E"/>
<path d="M110.909 57.3316C109.51 59.6773 107.048 60.7654 104.87 61.5061C103.577 61.946 102.247 62.216 100.917 62.3626C100.305 62.4244 99.7013 62.4552 99.0896 62.4552C99.0514 62.4552 99.0121 62.454 98.972 62.4518C98.2736 62.4135 97.7158 62.7808 97.4688 63.4352C97.2548 63.9985 97.0483 64.5618 96.8343 65.1251C96.6049 65.7347 95.9551 66.2594 95.3434 65.8042C95.1141 65.6344 94.9688 65.3952 94.8006 65.1791C94.6018 64.9322 94.3725 64.7084 94.1661 64.4615C93.7609 63.9677 93.3862 63.4507 92.9887 62.9491C92.3312 62.1312 91.559 61.2283 90.5575 60.8502C89.7165 60.5339 88.822 60.3872 88.0039 60.0246C85.6798 58.9906 83.6155 56.9766 83.218 53.7666C82.8739 51.0273 83.6767 48.2262 85.4198 46.4823C87.3388 44.5609 89.9076 43.4806 92.2471 42.6781C94.6018 41.8756 97.0407 41.4281 99.4796 41.266C101.934 41.104 104.487 41.0577 106.697 42.5855C108.57 43.8819 110.504 46.1968 111.529 48.558C112.668 51.1353 112.316 54.9781 110.909 57.3316ZM111.016 50.41C110.68 49.1059 109.724 47.9561 108.983 46.9916C108.211 45.9962 107.385 45.0856 106.414 44.4143C104.327 42.9713 101.689 43.2723 99.3878 43.4498C96.7655 43.6504 94.1737 44.1983 91.6507 45.1319C89.5177 45.919 86.7042 46.9299 85.1675 49.0673C83.9443 50.7572 83.7837 53.5968 85.007 55.3562C86.4749 57.4704 88.799 57.6325 90.7868 58.4427C91.8223 58.8677 92.6695 59.5243 93.3962 60.3425C94.0953 61.1297 95.4396 60.9133 96.2915 60.2947C96.9031 59.8471 97.5759 59.8857 98.2487 59.9165C99.0591 59.9551 99.8695 59.9628 100.68 59.9011C103.371 59.7082 106.261 58.9443 108.654 57.3238C109.594 56.6834 110.397 55.8654 110.779 54.5691C111.131 53.3576 111.345 51.6909 111.016 50.41Z" fill="#1E1E1E"/>
<path d="M102.737 53.396C102.347 53.4115 102.11 53.6893 102.072 54.0674C102.072 54.0982 102.064 54.1214 102.064 54.1522C102.064 54.1522 102.062 54.1829 102.059 54.198C102.047 54.2613 102.039 54.3295 102.026 54.3914C101.995 54.5149 101.964 54.6384 101.926 54.7618C101.903 54.8236 101.888 54.8853 101.865 54.9393C101.834 55.0165 101.834 55.0165 101.857 54.9547C101.842 54.9856 101.834 55.0088 101.819 55.0396C101.758 55.1631 101.689 55.2788 101.613 55.3869C101.597 55.41 101.597 55.41 101.59 55.4177C101.582 55.4254 101.582 55.4254 101.559 55.4486C101.521 55.4949 101.475 55.5412 101.429 55.5875C101.429 55.588 101.428 55.5888 101.427 55.5898C101.353 55.6561 101.281 55.728 101.192 55.7727C101.139 55.8035 101.093 55.8267 101.039 55.8576C101.038 55.8582 101.037 55.8589 101.036 55.8594C101.022 55.8663 101.011 55.8759 100.996 55.8795C100.991 55.8807 100.983 55.8814 100.978 55.883C100.949 55.8919 100.919 55.9029 100.888 55.9134C100.842 55.9292 100.801 55.9405 100.753 55.9491C100.699 55.9588 100.637 55.9656 100.582 55.9656C100.574 55.9656 100.568 55.9656 100.565 55.9656C100.547 55.9656 100.53 55.9656 100.512 55.9653C100.491 55.9649 100.345 55.9278 100.324 55.9223C100.303 55.9168 100.17 55.8784 100.151 55.8674C100.141 55.8616 100.132 55.8557 100.122 55.8498C100.076 55.819 100.034 55.7838 99.9948 55.7446C99.9684 55.718 99.9419 55.6913 99.9155 55.6646C99.914 55.6631 99.9126 55.6617 99.9113 55.6604C99.901 55.6501 99.8926 55.645 99.8838 55.6334C99.8817 55.6305 99.8763 55.6246 99.8743 55.6216C99.8142 55.5302 99.7541 55.4315 99.7015 55.3328C99.6938 55.3174 99.6479 55.2171 99.6403 55.1939C99.6063 55.1083 99.5782 55.0186 99.5504 54.9307C99.4879 54.7332 99.438 54.5315 99.388 54.3297C99.3039 53.9902 98.9063 53.751 98.5699 53.859C98.2183 53.9748 98.0118 54.322 98.1036 54.6847C98.2641 55.3483 98.4706 55.9887 98.8987 56.5289C99.3651 57.1153 100.13 57.3854 100.856 57.2851C101.62 57.1848 102.247 56.7681 102.698 56.1508C103.142 55.5489 103.325 54.8081 103.402 54.0751C103.44 53.7124 103.073 53.3806 102.737 53.396Z" fill="#1E1E1E"/>
<path d="M98.7531 49.0518C97.8968 49.0518 97.8968 50.3944 98.7531 50.3944C99.6093 50.3944 99.6093 49.0518 98.7531 49.0518Z" fill="#1E1E1E"/>
<path d="M103.058 49.5068C102.201 49.5068 102.201 50.8495 103.058 50.8495C103.914 50.8572 103.914 49.5068 103.058 49.5068Z" fill="#1E1E1E"/>
<path d="M47.5221 80.4258C47.5525 80.432 47.5827 80.4423 47.6137 80.4423C47.6214 80.4423 47.6367 80.4423 47.6367 80.4423C47.6367 80.4423 47.6367 80.4423 47.6367 80.4423C47.6826 80.4423 47.7284 80.45 47.7743 80.45C47.8584 80.45 47.9348 80.45 48.0189 80.4423C48.0342 80.4423 48.0648 80.4346 48.0725 80.4346C48.1035 80.4346 48.1336 80.4237 48.1641 80.4177C48.1741 80.4158 48.1843 80.4138 48.1948 80.4119C48.2253 80.4062 48.2554 80.3985 48.2853 80.3906C48.307 80.3849 48.3287 80.3798 48.3504 80.3737C48.369 80.3685 48.386 80.3644 48.4043 80.3581C48.4272 80.3502 48.4511 80.3376 48.4731 80.3275C48.5201 80.3059 48.5666 80.2793 48.6109 80.2513C48.6447 80.23 48.679 80.2083 48.707 80.18C48.737 80.1497 48.767 80.1194 48.797 80.0818C48.7982 80.0804 48.7976 80.0808 48.7989 80.0795C48.8027 80.0757 48.8075 80.0694 48.8104 80.0649C48.8138 80.0594 48.8178 80.054 48.8219 80.0485C48.8327 80.0339 48.8422 80.019 48.8503 80.0027C48.8605 79.9821 48.8721 79.9607 48.8797 79.9391C48.9042 79.8692 48.9221 79.7902 48.9287 79.717C48.9746 79.3157 48.7758 78.8373 48.47 78.5904C48.2712 78.4283 48.0342 78.2972 47.8202 78.1505C47.6673 78.0734 47.522 77.9885 47.3614 77.9113C45.5648 77.078 43.4394 76.4761 41.4516 76.6304C39.4256 76.7847 37.629 77.7879 36.1687 79.1768C33.2482 81.9624 31.7421 85.9904 31.1992 89.9412C30.8858 92.1944 30.8323 94.4553 30.9011 96.7316C30.9699 98.9848 31.161 101.246 31.7573 103.429C32.1396 104.849 34.3262 104.24 33.9363 102.82C33.3323 100.613 33.1947 98.3366 33.1488 96.0526C33.1029 93.8611 33.1641 91.6465 33.5463 89.4859C34.158 86.083 35.5647 82.5643 38.2864 80.3343C39.655 79.2154 41.2452 78.7216 42.996 78.9685C44.2008 79.1382 45.5082 79.4892 46.6362 80.0809C46.8413 80.1885 47.0501 80.2913 47.2713 80.3597C47.3541 80.3854 47.4375 80.4083 47.5221 80.4258Z" fill="#1E1E1E"/>
<path d="M26.8033 57.5401C27.736 55.4027 29.4868 53.2961 31.184 52.1232C33.1871 50.7343 35.5036 50.7728 37.7284 50.9272C39.9379 51.0738 42.1474 51.475 44.2805 52.2081C46.4059 52.9334 48.7301 53.9134 50.4655 55.6573C52.0405 57.2392 52.7668 59.7779 52.461 62.2626C52.1016 65.1716 50.2285 67.0004 48.1184 67.9341C47.3768 68.2659 46.5588 68.3971 45.8019 68.6826C44.8998 69.0298 44.1964 69.8401 43.6 70.5885C43.2407 71.0438 42.8967 71.5068 42.5297 71.9543C42.3462 72.1781 42.1398 72.3787 41.9563 72.6025C41.7958 72.7954 41.6658 73.0115 41.4594 73.1735C40.9089 73.5902 40.3202 73.1118 40.1138 72.5639C39.9226 72.0547 39.7315 71.5454 39.5404 71.0361C39.3238 70.4427 38.813 70.1122 38.1822 70.1456C38.1448 70.1476 38.1082 70.1487 38.0725 70.1487C37.522 70.1487 36.9639 70.1256 36.4134 70.0638C35.2055 69.9326 33.9975 69.6857 32.8278 69.2922C30.8553 68.6286 28.6229 67.6409 27.3537 65.5112C26.0999 63.3737 25.7788 59.8936 26.8033 57.5401ZM27.499 63.0188C27.8507 64.1916 28.5693 64.9324 29.4256 65.5112C31.5892 66.9773 34.2116 67.6717 36.6505 67.8492C37.3844 67.9032 38.1183 67.8955 38.8523 67.8569C39.4639 67.8261 40.0755 67.7952 40.626 68.1965C41.3984 68.7548 42.6161 68.9517 43.2485 68.2387C43.9076 67.4955 44.6758 66.9009 45.6184 66.5143C47.4151 65.7812 49.5252 65.6346 50.8555 63.721C51.964 62.1237 51.8111 59.5541 50.7102 58.0185C49.3111 56.0817 46.7652 55.1712 44.8309 54.4536C42.5526 53.6048 40.1979 53.1109 37.8202 52.9334C35.733 52.7714 33.3477 52.4936 31.4516 53.8054C30.5724 54.415 29.8232 55.2406 29.1198 56.1435C28.447 57.0154 27.5831 58.0571 27.2773 59.2377C26.9715 60.3952 27.1703 61.9076 27.499 63.0188Z" fill="#1E1E1E"/>
<path d="M34.7771 61.9383C35.1364 61.9537 35.3428 62.2084 35.381 62.5479C35.381 62.571 35.3887 62.5942 35.3887 62.6251C35.3887 62.6251 35.3887 62.6251 35.3887 62.6251C35.3887 62.6251 35.3904 62.6558 35.3935 62.6709C35.4058 62.7313 35.4133 62.787 35.4269 62.8488C35.4499 62.9646 35.4804 63.0726 35.5187 63.1806C35.5339 63.2347 35.5569 63.2887 35.5722 63.3427C35.5737 63.3472 35.5751 63.3515 35.5765 63.3555C35.5796 63.3645 35.6128 63.4273 35.6181 63.4353C35.6716 63.5433 35.7327 63.6513 35.8015 63.7517C35.802 63.7524 35.8025 63.7531 35.8029 63.7537C35.8144 63.7711 35.8251 63.7908 35.8398 63.8057C35.878 63.8443 35.9162 63.8905 35.9544 63.9291C35.958 63.9327 35.9747 63.9479 35.9939 63.9656C36.034 64.0023 36.0882 64.0416 36.1313 64.0748C36.1576 64.0951 36.1745 64.1086 36.2033 64.1255C36.2327 64.1427 36.2621 64.1577 36.2915 64.1725C36.2961 64.1749 36.3005 64.1784 36.3049 64.1811C36.3159 64.1877 36.328 64.1942 36.3404 64.1976C36.3415 64.1979 36.3427 64.1982 36.344 64.1985C36.3492 64.1995 36.3546 64.2 36.3597 64.2014C36.3836 64.2084 36.406 64.2154 36.4285 64.2224C36.4791 64.2381 36.5315 64.2495 36.5835 64.2595C36.6088 64.2644 36.6327 64.2687 36.6425 64.2687C36.6731 64.2687 36.719 64.2687 36.7343 64.2687C36.7507 64.2687 36.7672 64.2687 36.7837 64.2683C36.8038 64.2679 36.9257 64.2348 36.9451 64.2295C36.9646 64.2241 37.0946 64.1824 37.1125 64.1731C37.1205 64.169 37.1286 64.1651 37.1371 64.1616C37.1387 64.1609 37.1402 64.1602 37.1416 64.1592C37.1473 64.1553 37.1525 64.1514 37.1575 64.1476C37.1841 64.1278 37.2128 64.1098 37.2361 64.0863C37.2653 64.0568 37.296 64.0258 37.323 63.9986C37.3328 63.9887 37.3388 63.975 37.3486 63.965C37.3488 63.9648 37.349 63.9646 37.3493 63.9643C37.3521 63.9614 37.3546 63.9583 37.3568 63.9549C37.4092 63.8717 37.4616 63.7884 37.5141 63.6976C37.5194 63.6869 37.5395 63.6426 37.5564 63.6088C37.5681 63.5853 37.5823 63.5559 37.5913 63.5312C37.6106 63.4785 37.6311 63.4311 37.6486 63.3777C37.7108 63.1869 37.7577 62.9908 37.8046 62.7948C37.8811 62.4862 38.2404 62.2701 38.5462 62.3704C38.8673 62.4707 39.0508 62.7871 38.9667 63.1189C38.8214 63.7208 38.6303 64.3072 38.248 64.7934C37.8199 65.3258 37.1318 65.565 36.4743 65.4801C35.7786 65.3875 35.2128 65.0094 34.8 64.4538C34.4024 63.906 34.2343 63.2347 34.1654 62.571C34.1425 62.2315 34.4712 61.9229 34.7771 61.9383Z" fill="#1E1E1E"/>
<path d="M38.3936 58.0029C39.1735 58.0029 39.1735 59.2221 38.3936 59.2221C37.6138 59.2221 37.6138 58.0029 38.3936 58.0029Z" fill="#1E1E1E"/>
<path d="M34.4869 58.4194C35.2667 58.4194 35.2667 59.6386 34.4869 59.6386C33.7147 59.6386 33.7147 58.4194 34.4869 58.4194Z" fill="#1E1E1E"/>
<path d="M90.6034 2.29041C96.2456 -1.32086 104.64 -0.904177 108.333 5.28437C108.837 6.12546 107.477 6.8045 106.98 5.97113C103.998 0.978624 97.3083 0.523357 92.5377 2.93859C88.1187 5.17634 85.114 9.84476 85.7792 14.9221C85.9245 16.0487 86.2379 17.1522 86.7272 18.1785C87.2471 19.2588 88.1569 20.0536 88.6844 21.0953C89.0973 21.9055 88.9367 22.762 88.7456 23.6108C88.6232 24.151 88.4245 24.7297 88.822 25.2081C89.2502 25.7174 90.2517 25.8717 90.8404 26.0492C92.2471 26.4813 93.6462 26.9134 95.053 27.3455C96.238 27.7159 98.3557 28.7268 99.4108 27.5848C100.168 26.7668 99.8772 25.5168 101.016 24.9226C102.048 24.3825 103.371 24.421 104.464 23.9735C107.026 22.9163 109.166 20.8561 110.198 18.2479C110.749 16.859 111.001 15.3697 110.955 13.8804C110.909 12.4606 110.657 10.6395 109.625 9.59784C108.937 8.90336 110.076 7.89251 110.764 8.58699C112.737 10.5855 112.737 14.382 112.178 16.9438C111.575 19.7372 109.931 22.2527 107.63 23.9272C106.529 24.7297 105.328 25.3393 104.029 25.7483C103.402 25.9412 102.767 26.026 102.133 26.1727C101.246 26.3733 101.299 27.2915 100.948 27.9937C99.4261 31.0417 95.0912 28.966 92.8129 28.2638C91.345 27.8085 89.533 27.5307 88.2257 26.6742C87.1401 25.9643 86.9336 24.83 87.1859 23.6185C87.3083 23.0321 87.5835 22.3685 87.3159 21.782C87.0483 21.1956 86.452 20.6863 86.0926 20.1461C85.3511 19.0273 84.8312 17.7772 84.5101 16.4654C83.1798 10.8633 85.8939 5.29981 90.6034 2.29041Z" fill="#1E1E1E"/>
<path d="M86.169 28.0475C86.9106 27.5691 87.7899 28.0012 88.5162 28.2867C89.5712 28.7034 90.6492 29.0506 91.7425 29.367C92.9504 29.7142 94.1661 30.0229 95.3893 30.3238C96.4444 30.5862 97.5147 30.864 98.5927 30.5553C99.5331 30.2852 99.8389 31.7822 98.9062 32.0523C97.0025 32.6002 94.8694 31.7745 93.0269 31.2961C91.926 31.0106 90.8327 30.7019 89.7547 30.347C89.2578 30.1849 88.7608 30.0074 88.2639 29.8145C88.128 29.7631 87.9921 29.7069 87.8562 29.6512C87.8085 29.6317 87.7828 29.6819 87.8281 29.7065C88.2868 30.0074 88.7685 30.2698 89.2654 30.5013C90.2516 30.9566 91.2761 31.3269 92.2853 31.7128C93.1416 32.0446 94.3342 32.3532 95.0147 33.0014C95.6569 33.6187 95.4963 34.5447 94.6554 34.8456C93.6844 35.1929 92.5529 35.054 91.559 34.9305C90.2822 34.7685 89.0131 34.591 87.7363 34.4212C86.773 34.29 86.8495 32.7622 87.8204 32.8934C88.9443 33.04 90.0758 33.1943 91.1997 33.3409C91.6507 33.4027 92.1018 33.4644 92.5529 33.503C92.5764 33.503 92.5829 33.4707 92.5612 33.4617C92.1344 33.2846 91.702 33.1199 91.2761 32.9551C90.3052 32.5847 89.3342 32.2143 88.4015 31.7591C87.5681 31.3501 86.5666 30.8794 85.9779 30.1232C85.4427 29.475 85.4198 28.5259 86.169 28.0475Z" fill="#1E1E1E"/>
<path d="M87.553 35.1084C88.2793 35.1624 88.998 35.4016 89.5943 35.8105C90.1524 36.1964 90.68 36.8214 90.5959 37.5545C90.55 37.948 90.2212 38.3184 89.8008 38.2798C89.4185 38.2412 89.0362 37.9017 89.0821 37.4773C89.0821 37.4641 89.0821 37.4453 89.0869 37.4304C89.0884 37.4256 89.0897 37.4206 89.0897 37.4156C89.0897 37.4105 89.0886 37.4054 89.0861 37.401C89.082 37.3938 89.0778 37.3881 89.0736 37.3814C89.0687 37.3736 89.0639 37.3656 89.0581 37.3583C89.0329 37.3267 89.0037 37.2912 88.9782 37.2594C88.971 37.2504 88.9692 37.2476 88.961 37.2394C88.9488 37.2271 88.9297 37.2099 88.9158 37.1995C88.871 37.1661 88.8303 37.1326 88.7839 37.0992C88.6769 37.022 88.5546 36.9603 88.4399 36.8986C88.2258 36.806 88.0041 36.7288 87.7747 36.6748C87.6754 36.6594 87.576 36.6439 87.4766 36.6362C87.079 36.6053 86.7197 36.2504 86.7579 35.8337C86.7961 35.4247 87.1249 35.0775 87.553 35.1084Z" fill="#1E1E1E"/>
<path d="M99.3268 17.8543C100.909 15.8172 102.874 14.135 105.122 12.8927C105.978 12.422 106.651 13.7878 105.802 14.2585C103.792 15.3696 102.003 16.882 100.588 18.7031C99.1739 20.5165 97.8742 22.7696 97.5531 25.0846C97.4154 26.0568 95.9017 25.9797 96.0393 24.9997C96.4063 22.4147 97.7442 19.8992 99.3268 17.8543Z" fill="#1E1E1E"/>
<path d="M92.2169 6.85825C94.0901 12.1363 94.3041 17.8618 92.7827 23.2633C92.5151 24.2124 91.0778 23.7263 91.3454 22.7772C92.7521 17.8001 92.5916 12.4218 90.8637 7.53729C90.535 6.62675 91.8882 5.93228 92.2169 6.85825Z" fill="#1E1E1E"/>
<path d="M96.0166 7.79224C95.8484 8.19349 95.9096 8.67191 96.0396 9.08088C96.1543 9.44355 96.3607 9.52843 96.7277 9.53614C96.9615 9.53614 97.1242 9.32291 97.154 9.09097C97.257 8.28915 97.723 7.52629 98.5472 7.36784C99.1206 7.25981 99.6405 7.62248 99.7781 8.17806C99.9234 8.77222 99.6329 9.4667 99.2583 9.92196C99.1328 10.0739 99.1276 10.3043 99.3042 10.3915C99.3217 10.4002 99.3395 10.4083 99.3576 10.4158C99.4251 10.4445 99.4942 10.4632 99.5643 10.4742C99.6919 10.4943 99.7781 10.3732 99.7552 10.2461C99.6099 9.21205 100.267 7.41413 101.605 7.77681C102.813 8.10089 102.767 9.69819 102.263 10.5701C102.122 10.8184 102.156 11.1914 102.441 11.1833C102.489 11.1819 102.537 11.1735 102.584 11.1566C102.982 11.0254 103.402 10.5238 103.586 10.1689C103.777 9.80622 104.327 9.74449 104.641 9.96055C105.008 10.2075 105.038 10.655 104.847 11.0254C104.304 12.0671 103.035 12.9699 101.85 12.6227C100.967 12.3744 100.007 12.1003 99.1156 11.8836C98.0927 11.6348 96.937 11.2673 95.9381 10.935C95.8742 10.9138 95.8112 10.8899 95.7491 10.8634C94.5258 10.3386 94.1053 8.45585 94.5946 7.29067C94.9539 6.411 96.3913 6.88942 96.0166 7.79224Z" fill="#1E1E1E"/>
<path d="M26.6731 51.5673L26.4743 51.4207C26.1302 51.1738 25.7556 50.9423 25.3734 50.7416C25.1975 50.649 25.0599 50.4793 25.0064 50.2709C24.9529 50.0549 24.9834 49.8388 25.0905 49.6613C25.3122 49.3141 25.7403 49.1984 26.1073 49.3913C26.9865 49.8388 27.7893 50.4253 28.4926 51.1352C28.6379 51.2818 28.722 51.4901 28.7144 51.7062C28.7067 51.9145 28.6303 52.1074 28.4774 52.2386C28.3245 52.3775 28.1333 52.447 27.9422 52.447C27.751 52.447 27.5523 52.3698 27.407 52.2232C27.2541 52.0689 27.0936 51.9222 26.933 51.7834C26.8565 51.7216 26.7725 51.6522 26.6731 51.5673Z" fill="#1E1E1E"/>
<path d="M24.8074 53.0102C24.9756 52.8481 25.1897 52.771 25.3808 52.8018C25.8243 52.8559 26.2065 52.9562 26.5582 53.1028C26.6882 53.1568 26.8564 53.2417 26.9711 53.4423C27.0781 53.6275 27.101 53.859 27.0399 54.0519C26.9787 54.2525 26.8487 54.4146 26.6805 54.5072C26.5582 54.5766 26.4283 54.6075 26.2983 54.6075C26.2142 54.6075 26.1377 54.5921 26.0613 54.5612C25.786 54.4532 25.5032 54.376 25.2126 54.3297C25.075 54.3065 24.9221 54.2525 24.7922 54.1136C24.6469 53.967 24.5628 53.751 24.5704 53.5503C24.5857 53.3343 24.6698 53.1414 24.8074 53.0102Z" fill="#1E1E1E"/>
<path d="M28.1334 48.1254C28.1334 47.9017 28.2175 47.6933 28.3704 47.5467C28.6686 47.2689 29.1044 47.2612 29.4179 47.539C29.976 48.0251 30.5264 48.5421 31.031 49.0823C31.1763 49.2366 31.2527 49.4449 31.2451 49.6533C31.2374 49.8539 31.1533 50.0391 31.0081 50.178C30.8552 50.3169 30.664 50.3863 30.4729 50.3863C30.2741 50.3863 30.0753 50.3092 29.9301 50.1549C29.4331 49.6301 28.9133 49.1286 28.3704 48.6656C28.2328 48.5421 28.1411 48.3415 28.1334 48.1254Z" fill="#1E1E1E"/>
<path d="M114.22 54.9547C114.288 54.5457 114.64 54.2911 115.045 54.3605C115.435 54.4222 115.795 54.7926 115.718 55.2865C115.298 57.8483 113.845 60.225 111.743 61.8068C111.605 61.9071 111.46 61.9612 111.307 61.9612C111.093 61.9612 110.886 61.8608 110.741 61.6602C110.504 61.3361 110.496 60.8268 110.894 60.5259C112.637 59.2064 113.853 57.177 114.22 54.9547Z" fill="#1E1E1E"/>
<path d="M48.5309 27.2606C48.7374 27.0677 49.0049 27.0059 49.2649 27.0831C49.5325 27.168 49.7542 27.3918 49.8154 27.6695C49.8765 27.9242 49.7924 28.1865 49.5936 28.3717C48.5386 29.3749 47.7052 30.6018 47.1777 31.9213C47.0477 32.2531 46.7649 32.446 46.4591 32.446C46.3902 32.446 46.3214 32.4383 46.2526 32.4151C46.0462 32.3611 45.8627 32.1991 45.7633 31.9984C45.6716 31.8133 45.6639 31.6049 45.7327 31.4274C46.3673 29.8224 47.3153 28.418 48.5309 27.2606Z" fill="#1E1E1E"/>
<path d="M57.9579 111.192C59.8769 110.929 61.5818 110.636 63.0038 109.718C64.2577 108.908 65.2439 107.696 65.7944 106.3C66.039 105.682 66.7195 105.397 67.3387 105.644C67.9198 105.875 68.1797 106.493 67.958 107.079C67.247 108.892 66.039 110.436 64.4641 111.524C62.6216 112.805 60.4503 113.183 58.3784 113.468C58.3249 113.476 58.2714 113.476 58.2179 113.476C57.6368 113.476 57.1246 113.028 57.0405 112.426C56.9487 111.809 57.3463 111.277 57.9579 111.192Z" fill="#1E1E1E"/>
<path d="M134.847 109.587C134.625 109.656 134.358 109.795 134.075 109.942C133.593 110.189 133.043 110.474 132.462 110.528C131.743 110.59 131.001 110.243 130.413 109.965C130.267 109.896 130.137 109.834 130.007 109.78C128.562 109.17 127.125 108.622 125.565 108.576C124.572 108.553 123.593 108.723 122.553 108.908C121.842 109.039 121.101 109.17 120.351 109.232C119.579 109.294 118.753 109.325 117.935 109.108C117.324 108.946 116.85 108.646 116.383 108.352C116.185 108.229 115.994 108.105 115.779 107.997C114.426 107.28 113.302 107.488 111.819 108.09L111.498 108.221C110.81 108.507 110.03 108.831 109.212 108.923C108.256 109.031 107.362 108.738 106.643 108.499L106.154 108.337C104.885 107.905 103.685 107.503 102.408 107.596C100.733 107.72 99.1509 108.499 97.553 109.355C96.8649 109.726 97.1325 110.351 97.2319 110.536C97.4154 110.883 97.9047 111.369 98.5851 111.007L98.7533 110.914C100.183 110.142 101.811 109.271 103.639 109.595C104.411 109.734 105.13 109.98 105.825 110.227C106.62 110.505 107.377 110.768 108.165 110.852C109.694 111.022 111.131 110.436 112.53 109.88L112.729 109.795C113.241 109.579 113.876 109.317 114.663 109.602C115.13 109.772 115.527 110.027 115.909 110.274C116.231 110.482 116.536 110.675 116.842 110.791C117.966 111.231 119.312 111.331 121.085 111.092C121.544 111.03 122.003 110.945 122.469 110.86C123.402 110.69 124.357 110.513 125.336 110.513C125.695 110.513 126.062 110.536 126.429 110.598C127.484 110.76 128.44 111.184 129.358 111.585C129.908 111.832 130.436 112.056 130.971 112.234C131.773 112.496 132.5 112.542 133.134 112.38C133.478 112.288 133.83 112.126 134.189 111.956C134.549 111.786 134.923 111.609 135.336 111.485C135.688 111.377 135.902 111.161 135.971 110.837C136.062 110.451 135.933 110.004 135.665 109.749C135.436 109.541 135.176 109.487 134.847 109.587Z" fill="#1E1E1E"/>
<path d="M128.249 119.773C128.027 119.626 127.675 119.502 127.232 119.726C125.734 120.482 124.059 120.668 122.37 120.266C121.834 120.135 121.315 119.981 120.795 119.819C119.801 119.518 118.86 119.232 117.866 119.171C116.842 119.109 115.84 119.356 114.778 119.61C114.281 119.734 113.776 119.85 113.264 119.942C111.743 120.22 110.451 119.796 109.204 119.394C108.96 119.317 108.707 119.232 108.455 119.155C107.01 118.723 105.588 118.692 103.983 119.07C103.715 119.132 103.455 119.194 103.195 119.263C101.85 119.595 100.45 119.942 98.8908 119.819C98.0804 119.757 97.3311 119.518 96.6048 119.294C95.8479 119.055 95.1216 118.831 94.4106 118.831C94.3189 118.831 94.2271 118.831 94.143 118.847C92.7898 118.962 91.6812 119.819 90.4274 121.069C90.1828 121.316 90.0987 121.57 90.1751 121.848C90.2669 122.211 90.5956 122.535 90.9702 122.643C91.2913 122.728 91.5819 122.643 91.8494 122.388L92.0329 122.203C92.5299 121.702 93.1415 121.069 93.929 120.861C94.6476 120.668 95.3204 120.93 95.8556 121.146C96.0085 121.208 96.1538 121.262 96.2914 121.308C97.8051 121.771 99.5024 121.925 101.07 121.725C101.72 121.64 102.369 121.462 103.065 121.277C104.005 121.023 104.984 120.752 106.001 120.729C107.094 120.706 108.058 121.046 109.006 121.37C109.472 121.532 109.915 121.686 110.359 121.786C111.735 122.111 113.088 121.848 114.525 121.57C116.108 121.262 117.736 120.945 119.48 121.432C119.785 121.516 120.091 121.609 120.397 121.702C121.605 122.064 122.752 122.396 123.975 122.427C125.389 122.466 126.857 122.087 128.356 121.324C128.639 121.185 128.776 120.992 128.792 120.745C128.815 120.398 128.585 119.989 128.249 119.773Z" fill="#00A99D"/>
<path d="M117.63 130.892C115.925 131.339 114.526 130.815 113.173 130.313C112.217 129.958 111.323 129.619 110.352 129.642C109.518 129.657 108.746 129.989 107.936 130.336C107.668 130.452 107.4 130.568 107.118 130.676C105.933 131.131 104.602 131.316 103.05 131.231C101.437 131.146 99.9004 130.737 98.4249 130.344C97.5151 130.097 96.5747 129.85 95.642 129.688C94.9921 129.572 94.4187 129.518 93.8988 129.518C93.226 129.518 92.645 129.619 92.1022 129.812C91.4294 130.051 90.8407 130.475 90.2214 130.915C89.8239 131.2 89.411 131.494 88.9599 131.748C88.6618 131.918 88.5089 132.165 88.5012 132.466C88.5012 132.844 88.7306 133.253 89.0593 133.446C89.3346 133.608 89.6327 133.6 89.9385 133.423C90.2444 133.245 90.5502 133.014 90.8713 132.767C91.5058 132.281 92.2169 131.733 93.0961 131.532C94.2658 131.27 95.4508 131.594 96.4906 131.887L96.827 131.98C99.1053 132.589 101.682 133.292 104.182 133.207C105.474 133.168 106.644 132.944 107.66 132.543C107.874 132.458 108.096 132.358 108.31 132.25C109.105 131.88 110.008 131.447 111.063 131.679C111.72 131.818 112.316 132.072 112.897 132.327C113.433 132.559 113.937 132.775 114.457 132.883C115.665 133.137 116.911 133.106 118.157 132.775C118.494 132.69 118.7 132.505 118.777 132.211C118.876 131.849 118.761 131.393 118.486 131.116C118.272 130.876 117.982 130.807 117.63 130.892Z" fill="#1E1E1E"/>
<path d="M51.819 90.7438C51.9031 93.5525 52.1325 97.2332 53.0958 100.791C53.3251 101.624 54.105 101.454 54.2579 101.416C54.4108 101.369 55.1753 101.115 54.946 100.274C53.975 96.7008 53.7762 93.105 53.7074 89.7484C53.6539 86.9473 53.6692 83.2511 54.3343 79.555C55.1294 75.1258 57.079 69.0221 61.8497 65.1099C64.128 63.2425 66.8191 62.4632 69.6326 62.849C71.4751 63.1036 74.9308 63.8444 77.4461 65.9356C81.9798 69.7012 82.3391 76.4916 82.5991 81.4455C82.9202 87.472 83.2795 94.2933 82.8284 100.922C82.7826 101.616 83.2872 101.747 83.593 101.77C83.9676 101.794 84.7015 101.632 84.7627 100.814C84.9997 97.3181 85.0303 93.4985 84.8621 88.7992L84.8086 87.2251C84.6939 83.8685 84.5792 80.3961 84.1817 77.0394C83.3024 69.57 80.596 64.8861 75.8865 62.7024C73.18 61.4446 70.4583 60.781 68.1035 60.781C67.8054 60.781 67.5149 60.7887 67.232 60.8119C64.5714 61.0125 61.9414 62.2934 59.6249 64.5003C54.7089 69.1919 52.9046 75.7817 52.2624 80.4964C51.8419 83.5521 51.6967 86.901 51.819 90.7438Z" fill="#1E1E1E"/>
</svg>
