<svg width="149" height="146" viewBox="0 0 149 146" fill="none" xmlns="http://www.w3.org/2000/svg">
<g clip-path="url(#clip0)">
<path d="M96.757 59.4751C92.5002 62.8989 87.534 65.3512 82.4741 64.9588C77.438 64.5653 72.3322 61.3261 69.4853 56.6427C66.6393 51.982 66.0753 45.8534 68.6421 42.0254C71.2089 38.1975 76.9056 36.6474 82.6968 35.0704C88.4642 33.4944 94.2802 31.9391 98.5231 33.9629C102.743 36.0104 105.391 41.6598 104.953 46.6703C104.514 51.6807 100.991 56.075 96.757 59.4751Z" fill="#00A99D"/>
<path fill-rule="evenodd" clip-rule="evenodd" d="M117.146 43.3276C117.178 43.3792 117.211 43.4309 117.25 43.4752C117.46 43.8 117.46 44.2134 117.355 44.6269C117.277 44.9812 117.015 45.3356 116.753 45.5127C116.491 45.6899 116.019 45.808 115.731 45.6604C114.447 45.0698 113.163 44.4201 111.879 43.7705C111.564 43.6229 111.381 43.239 111.276 42.8846C111.171 42.5007 111.249 42.0873 111.407 41.733C111.564 41.4081 111.879 41.1424 112.193 41.0538C112.56 40.9357 112.874 41.0243 113.215 41.2014C114.132 41.6739 115.023 42.1169 115.94 42.5598C116.032 42.6041 116.117 42.641 116.202 42.6779C116.288 42.7148 116.373 42.7517 116.464 42.796C116.674 42.8846 116.884 43.0027 117.041 43.1799C117.08 43.2242 117.113 43.2759 117.146 43.3276ZM74.3732 49.1596C90.6439 45.8237 107.268 45.5788 123.62 48.3945C124.761 48.5781 124.951 50.6593 123.946 51.2102C122.112 52.1437 120.286 53.0848 118.459 54.0259C116.632 54.967 114.806 55.9081 112.972 56.8415C111.397 57.6679 110.038 55.0358 111.614 54.2095C113.868 53.0159 116.15 51.8529 118.432 50.6899C104.035 48.7006 89.3944 49.1903 75.1066 52.1283C73.3954 52.465 72.662 49.5269 74.3732 49.1596Z" fill="#1E1E1E"/>
</g>
<g clip-path="url(#clip1)">
<path d="M32.4994 35.482C37.7068 33.1683 43.3709 32.073 48.371 33.9639C53.3467 35.8489 57.634 40.7141 59.2573 46.4195C60.8857 52.101 59.8206 58.6405 56.2104 61.8698C52.6001 65.099 46.4396 65.0419 40.1766 64.985C33.938 64.9341 27.6557 64.8475 23.9149 61.4993C20.2035 58.133 19.0387 51.4813 20.8169 46.3984C22.5951 41.3156 27.3215 37.7776 32.4994 35.482Z" fill="#00A99D"/>
<path fill-rule="evenodd" clip-rule="evenodd" d="M7.45354 54.6724C7.42079 54.6208 7.38803 54.5691 7.34873 54.5248C7.13908 54.2 7.13909 53.7866 7.24391 53.3731C7.32252 53.0188 7.58458 52.6644 7.84663 52.4873C8.10868 52.3101 8.58037 52.192 8.86863 52.3396C10.1527 52.9302 11.4367 53.5799 12.7208 54.2295C13.0352 54.3772 13.2187 54.761 13.3235 55.1154C13.4283 55.4993 13.3497 55.9127 13.1925 56.267C13.0352 56.5919 12.7208 56.8576 12.4063 56.9462C12.0395 57.0643 11.725 56.9758 11.3843 56.7986C10.4671 56.3261 9.57617 55.8832 8.65899 55.4402C8.56727 55.3959 8.48211 55.359 8.39695 55.3221C8.31178 55.2852 8.2266 55.2483 8.13488 55.204C7.92524 55.1154 7.7156 54.9973 7.55837 54.8201C7.51906 54.7758 7.4863 54.7241 7.45354 54.6724ZM50.226 48.8404C33.9553 52.1763 17.3315 52.4212 0.97927 49.6055C-0.161579 49.4219 -0.351723 47.3407 0.653313 46.7898C2.48687 45.8563 4.31363 44.9152 6.14039 43.9741C7.96707 43.033 9.79375 42.0919 11.6272 41.1584C13.2027 40.3321 14.5608 42.9641 12.9854 43.7905C10.7308 44.9841 8.44913 46.1471 6.16743 47.3101C20.5639 49.2994 35.2048 48.8098 49.4926 45.8717C51.2039 45.535 51.9373 48.4731 50.226 48.8404Z" fill="#1E1E1E"/>
</g>
<mask id="mask0" mask-type="alpha" maskUnits="userSpaceOnUse" x="95" y="76" width="24" height="16">
<path d="M118 76H96C95.4477 76 95 76.4477 95 77V91C95 91.5523 95.4477 92 96 92H118C118.552 92 119 91.5523 119 91V77C119 76.4477 118.552 76 118 76Z" fill="black"/>
</mask>
<g mask="url(#mask0)">
<path d="M119.275 75.937H94.9575V92.0628H119.275V75.937Z" fill="#B50900"/>
<path d="M119.258 90.7386H94.9575V89.6372H119.258V90.7386ZM119.258 88.2601H94.9575V87.1587H119.258V88.2601ZM119.258 85.7815H94.9575V84.6801H119.258V85.7815ZM119.258 83.3035H94.9575V82.2021H119.258V83.3035ZM119.258 80.825H94.9575V79.7236H119.258V80.825ZM119.258 78.3465H94.9575V77.2456H119.258V78.3465Z" fill="#F8F8F8"/>
<path d="M106.662 75.937H94.9575V84.6772H106.662V75.937Z" fill="#2B1D73"/>
<path d="M95.6745 76.3086L95.5628 76.6507H95.2013L95.4937 76.8624L95.382 77.2045L95.6745 76.9929L95.9669 77.2045L95.8552 76.8624L96.1476 76.6507H95.7862L95.6745 76.3086Z" fill="#F8F8F8"/>
<path d="M95.6744 78.0432L95.5627 78.3854H95.2012L95.4936 78.597L95.3819 78.9391L95.6744 78.7275L95.9668 78.9391L95.8551 78.597L96.1475 78.3854H95.786L95.6744 78.0432Z" fill="#F8F8F8"/>
<path d="M95.6744 79.7786L95.5627 80.1207H95.2012L95.4936 80.3323L95.3819 80.6745L95.6744 80.4629L95.9668 80.6745L95.8551 80.3323L96.1475 80.1207H95.786L95.6744 79.7786Z" fill="#F8F8F8"/>
<path d="M95.6744 81.5132L95.5627 81.8553H95.2012L95.4936 82.067L95.3819 82.4091L95.6744 82.1975L95.9668 82.4091L95.8551 82.067L96.1475 81.8553H95.786L95.6744 81.5132Z" fill="#F8F8F8"/>
<path d="M95.786 83.59L95.6744 83.2478L95.5627 83.59H95.2012L95.4936 83.8016L95.3819 84.1443L95.6744 83.9326L95.9668 84.1443L95.8551 83.8016L96.1475 83.59H95.786Z" fill="#F8F8F8"/>
<path d="M96.6988 77.1758L96.5871 77.5179H96.2256L96.518 77.7296L96.4063 78.0722L96.6988 77.8606L96.9912 78.0722L96.8795 77.7296L97.1719 77.5179H96.8104L96.6988 77.1758Z" fill="#F8F8F8"/>
<path d="M96.6988 78.9119L96.5871 79.254H96.2256L96.518 79.4656L96.4063 79.8078L96.6988 79.5961L96.9912 79.8078L96.8795 79.4656L97.1719 79.254H96.8104L96.6988 78.9119Z" fill="#F8F8F8"/>
<path d="M96.6988 80.6458L96.5871 80.9879H96.2256L96.518 81.1995L96.4063 81.5422L96.6988 81.3306L96.9912 81.5422L96.8795 81.1995L97.1719 80.9879H96.8104L96.6988 80.6458Z" fill="#F8F8F8"/>
<path d="M96.8104 82.7228L96.6988 82.3806L96.5871 82.7228H96.2256L96.518 82.9344L96.4063 83.2765L96.6988 83.0649L96.9912 83.2765L96.8795 82.9344L97.1719 82.7228H96.8104Z" fill="#F8F8F8"/>
<path d="M97.726 76.3088L97.6143 76.651H97.2528L97.5452 76.8626L97.4335 77.2047L97.726 76.9931L98.0184 77.2047L97.9067 76.8626L98.1992 76.651H97.8377L97.726 76.3088Z" fill="#F8F8F8"/>
<path d="M97.7261 78.0425L97.6144 78.3846H97.2529L97.5454 78.5963L97.4337 78.9384L97.7261 78.7268L98.0185 78.9384L97.9068 78.5963L98.1993 78.3846H97.8378L97.7261 78.0425Z" fill="#F8F8F8"/>
<path d="M97.7261 79.7786L97.6144 80.1207H97.2529L97.5454 80.3323L97.4337 80.6745L97.7261 80.4629L98.0185 80.6745L97.9068 80.3323L98.1993 80.1207H97.8378L97.7261 79.7786Z" fill="#F8F8F8"/>
<path d="M97.7261 81.5134L97.6144 81.8556H97.2529L97.5454 82.0672L97.4337 82.4093L97.7261 82.1977L98.0185 82.4093L97.9068 82.0672L98.1993 81.8556H97.8378L97.7261 81.5134Z" fill="#F8F8F8"/>
<path d="M97.8378 83.59L97.7261 83.2478L97.6144 83.59H97.2529L97.5454 83.8016L97.4337 84.1443L97.7261 83.9326L98.0185 84.1443L97.9068 83.8016L98.1993 83.59H97.8378Z" fill="#F8F8F8"/>
<path d="M98.751 77.175L98.6393 77.5172H98.2778L98.5703 77.7288L98.4586 78.0715L98.751 77.8599L99.0435 78.0715L98.9318 77.7288L99.2242 77.5172H98.8627L98.751 77.175Z" fill="#F8F8F8"/>
<path d="M98.751 78.9111L98.6393 79.2533H98.2778L98.5703 79.4649L98.4586 79.807L98.751 79.5954L99.0435 79.807L98.9318 79.4649L99.2242 79.2533H98.8627L98.751 78.9111Z" fill="#F8F8F8"/>
<path d="M98.751 80.6458L98.6393 80.9879H98.2778L98.5703 81.1995L98.4586 81.5422L98.751 81.3306L99.0435 81.5422L98.9318 81.1995L99.2242 80.9879H98.8627L98.751 80.6458Z" fill="#F8F8F8"/>
<path d="M98.8627 82.7228L98.751 82.3806L98.6393 82.7228H98.2778L98.5703 82.9344L98.4586 83.2765L98.751 83.0649L99.0435 83.2765L98.9318 82.9344L99.2242 82.7228H98.8627Z" fill="#F8F8F8"/>
<path d="M99.7765 76.3088L99.6648 76.651H99.3033L99.5958 76.8626L99.4841 77.2047L99.7765 76.9931L100.069 77.2047L99.9573 76.8626L100.25 76.651H99.8882L99.7765 76.3088Z" fill="#F8F8F8"/>
<path d="M99.7764 78.0425L99.6647 78.3846H99.3032L99.5957 78.5963L99.484 78.9384L99.7764 78.7268L100.069 78.9384L99.9572 78.5963L100.25 78.3846H99.8881L99.7764 78.0425Z" fill="#F8F8F8"/>
<path d="M99.7764 79.7786L99.6647 80.1207H99.3032L99.5957 80.3323L99.484 80.6745L99.7764 80.4629L100.069 80.6745L99.9572 80.3323L100.25 80.1207H99.8881L99.7764 79.7786Z" fill="#F8F8F8"/>
<path d="M99.7764 81.5132L99.6647 81.8553H99.3032L99.5957 82.067L99.484 82.4091L99.7764 82.1975L100.069 82.4091L99.9572 82.067L100.25 81.8553H99.8881L99.7764 81.5132Z" fill="#F8F8F8"/>
<path d="M99.8881 83.59L99.7764 83.2478L99.6647 83.59H99.3032L99.5957 83.8016L99.484 84.1443L99.7764 83.9326L100.069 84.1443L99.9572 83.8016L100.25 83.59H99.8881Z" fill="#F8F8F8"/>
<path d="M100.803 77.1753L100.691 77.5174H100.33L100.622 77.7291L100.51 78.0717L100.803 77.8601L101.095 78.0717L100.984 77.7291L101.276 77.5174H100.914L100.803 77.1753Z" fill="#F8F8F8"/>
<path d="M100.803 78.9111L100.691 79.2533H100.33L100.622 79.4649L100.51 79.807L100.803 79.5954L101.095 79.807L100.984 79.4649L101.276 79.2533H100.914L100.803 78.9111Z" fill="#F8F8F8"/>
<path d="M100.803 80.6458L100.691 80.9879H100.33L100.622 81.1995L100.51 81.5422L100.803 81.3306L101.095 81.5422L100.984 81.1995L101.276 80.9879H100.914L100.803 80.6458Z" fill="#F8F8F8"/>
<path d="M100.914 82.723L100.803 82.3809L100.691 82.723H100.33L100.622 82.9346L100.51 83.2768L100.803 83.0651L101.095 83.2768L100.984 82.9346L101.276 82.723H100.914Z" fill="#F8F8F8"/>
<path d="M101.828 76.3088L101.716 76.651H101.355L101.647 76.8626L101.536 77.2047L101.828 76.9931L102.121 77.2047L102.009 76.8626L102.301 76.651H101.94L101.828 76.3088Z" fill="#F8F8F8"/>
<path d="M101.828 78.0427L101.716 78.3849H101.355L101.647 78.5965L101.536 78.9386L101.828 78.727L102.121 78.9386L102.009 78.5965L102.301 78.3849H101.94L101.828 78.0427Z" fill="#F8F8F8"/>
<path d="M101.828 79.7786L101.716 80.1207H101.355L101.647 80.3323L101.536 80.6745L101.828 80.4629L102.121 80.6745L102.009 80.3323L102.301 80.1207H101.94L101.828 79.7786Z" fill="#F8F8F8"/>
<path d="M101.828 81.5134L101.716 81.8556H101.355L101.647 82.0672L101.536 82.4093L101.828 82.1977L102.121 82.4093L102.009 82.0672L102.301 81.8556H101.94L101.828 81.5134Z" fill="#F8F8F8"/>
<path d="M101.94 83.59L101.828 83.2478L101.716 83.59H101.355L101.647 83.8016L101.536 84.1443L101.828 83.9326L102.121 84.1443L102.009 83.8016L102.301 83.59H101.94Z" fill="#F8F8F8"/>
<path d="M102.855 77.1753L102.743 77.5174H102.381L102.674 77.7291L102.562 78.0717L102.855 77.8601L103.147 78.0717L103.035 77.7291L103.328 77.5174H102.966L102.855 77.1753Z" fill="#F8F8F8"/>
<path d="M102.855 78.9111L102.743 79.2533H102.381L102.674 79.4649L102.562 79.807L102.855 79.5954L103.147 79.807L103.035 79.4649L103.328 79.2533H102.966L102.855 78.9111Z" fill="#F8F8F8"/>
<path d="M102.855 80.6458L102.743 80.9879H102.381L102.674 81.1995L102.562 81.5422L102.855 81.3306L103.147 81.5422L103.035 81.1995L103.328 80.9879H102.966L102.855 80.6458Z" fill="#F8F8F8"/>
<path d="M102.966 82.723L102.855 82.3809L102.743 82.723H102.381L102.674 82.9346L102.562 83.2768L102.855 83.0651L103.147 83.2768L103.035 82.9346L103.328 82.723H102.966Z" fill="#F8F8F8"/>
<path d="M103.88 76.3088L103.768 76.651H103.407L103.7 76.8626L103.588 77.2047L103.88 76.9931L104.172 77.2047L104.061 76.8626L104.353 76.651H103.992L103.88 76.3088Z" fill="#F8F8F8"/>
<path d="M103.88 78.0427L103.768 78.3849H103.407L103.7 78.5965L103.588 78.9386L103.88 78.727L104.172 78.9386L104.061 78.5965L104.353 78.3849H103.992L103.88 78.0427Z" fill="#F8F8F8"/>
<path d="M103.88 79.7786L103.768 80.1207H103.407L103.7 80.3323L103.588 80.6745L103.88 80.4629L104.172 80.6745L104.061 80.3323L104.353 80.1207H103.992L103.88 79.7786Z" fill="#F8F8F8"/>
<path d="M103.88 81.5134L103.769 81.8556H103.407L103.7 82.0672L103.588 82.4093L103.88 82.1977L104.172 82.4093L104.061 82.0672L104.353 81.8556H103.992L103.88 81.5134Z" fill="#F8F8F8"/>
<path d="M103.992 83.59L103.88 83.2478L103.768 83.59H103.407L103.7 83.8016L103.588 84.1443L103.88 83.9326L104.172 84.1443L104.061 83.8016L104.353 83.59H103.992Z" fill="#F8F8F8"/>
<path d="M104.906 77.1753L104.794 77.5174H104.433L104.725 77.7291L104.613 78.0717L104.906 77.8601L105.198 78.0717L105.086 77.7291L105.379 77.5174H105.017L104.906 77.1753Z" fill="#F8F8F8"/>
<path d="M104.906 78.9111L104.794 79.2533H104.433L104.725 79.4649L104.613 79.807L104.906 79.5954L105.198 79.807L105.086 79.4649L105.379 79.2533H105.017L104.906 78.9111Z" fill="#F8F8F8"/>
<path d="M104.906 80.6458L104.794 80.9879H104.433L104.725 81.1995L104.613 81.5422L104.906 81.3306L105.198 81.5422L105.086 81.1995L105.379 80.9879H105.017L104.906 80.6458Z" fill="#F8F8F8"/>
<path d="M105.017 82.723L104.906 82.3809L104.794 82.723H104.433L104.725 82.9346L104.613 83.2768L104.906 83.0651L105.198 83.2768L105.086 82.9346L105.379 82.723H105.017Z" fill="#F8F8F8"/>
<path d="M105.639 77.2047L105.932 76.9931L106.224 77.2047L106.112 76.8626L106.405 76.651H106.043L105.932 76.3088L105.82 76.651H105.458L105.751 76.8626L105.639 77.2047Z" fill="#F8F8F8"/>
<path d="M105.932 78.0427L105.82 78.3849H105.458L105.751 78.5965L105.639 78.9386L105.932 78.727L106.224 78.9386L106.112 78.5965L106.405 78.3849H106.043L105.932 78.0427Z" fill="#F8F8F8"/>
<path d="M105.932 79.7786L105.82 80.1207H105.458L105.751 80.3323L105.639 80.6745L105.932 80.4629L106.224 80.6745L106.112 80.3323L106.405 80.1207H106.043L105.932 79.7786Z" fill="#F8F8F8"/>
<path d="M105.932 81.5134L105.82 81.8556H105.458L105.751 82.0672L105.639 82.4093L105.932 82.1977L106.224 82.4093L106.112 82.0672L106.405 81.8556H106.043L105.932 81.5134Z" fill="#F8F8F8"/>
<path d="M106.043 83.59L105.932 83.2478L105.82 83.59H105.458L105.751 83.8016L105.639 84.1443L105.932 83.9326L106.224 84.1443L106.112 83.8016L106.405 83.59H106.043Z" fill="#F8F8F8"/>
</g>
<path d="M80.641 4.88015C78.431 2.50015 75.721 2.23015 73.311 3.23015C73.231 3.23015 73.151 3.24015 73.081 3.25015C72.821 3.24015 72.551 3.27015 72.271 3.32015C70.401 3.55015 68.631 4.20015 67.471 5.62015C67.401 5.71015 67.341 5.80015 67.271 5.89015C65.461 7.54015 64.591 9.74015 64.401 12.6302C64.261 14.7302 64.951 17.1402 66.331 19.0702C67.121 20.6002 68.301 22.0302 70.001 22.7602C72.351 23.7702 75.021 23.3702 77.331 22.5002C79.421 21.7202 81.141 20.5902 82.181 18.7902C82.611 18.3302 82.981 17.8402 83.261 17.3302C85.481 13.2902 83.681 8.16015 80.641 4.88015Z" fill="white"/>
<path d="M83.191 9.66993C82.461 7.55993 81.201 5.70993 79.411 4.37993C77.991 3.31993 76.341 2.60993 74.641 2.14993C73.441 1.82993 72.291 1.74993 71.071 1.89993C70.201 1.99993 69.341 2.19993 68.501 2.48993C65.291 3.60993 62.541 6.11993 61.421 9.42993C60.891 10.9899 60.751 12.6499 60.951 14.2799C61.841 21.2999 68.711 26.2499 75.501 24.3699C79.111 23.3699 82.481 20.5299 82.961 16.5899C83.111 15.3399 81.181 15.3499 81.031 16.5899C80.571 20.3399 76.271 22.6699 72.921 22.8099C69.351 22.9599 65.921 21.0299 64.131 17.8799C62.531 15.0499 62.251 11.4099 63.871 8.52993C65.751 5.18993 69.391 3.63993 73.051 3.79993C74.311 3.93993 75.551 4.51993 76.681 5.06993C77.771 5.59993 78.771 6.25993 79.601 7.15993C80.401 8.03993 80.901 9.20993 81.301 10.3299C81.761 11.5899 81.981 12.8699 81.861 14.2099C81.751 15.4699 83.681 15.4599 83.791 14.2099C83.931 12.7099 83.701 11.1399 83.191 9.66993Z" fill="black"/>
<path d="M79.401 8.90002C79.401 8.89002 79.401 8.89002 79.401 8.88002C79.431 8.43002 79.201 7.89002 78.721 7.81002C78.251 7.73002 77.791 7.62002 77.341 7.48002C77.111 7.41002 76.891 7.33002 76.671 7.24002C76.611 7.22002 76.561 7.20002 76.501 7.17002C76.481 7.18002 76.471 7.18002 76.461 7.17002C76.351 7.12002 76.231 7.07002 76.121 7.01002C75.691 6.80002 75.281 6.56002 74.881 6.30002C74.781 6.23002 74.681 6.17002 74.591 6.10002C74.541 6.07002 74.491 6.03002 74.451 5.99002C74.441 5.98002 74.401 5.95002 74.381 5.93002C74.351 5.91002 74.311 5.87002 74.301 5.86002C74.251 5.82002 74.211 5.78002 74.161 5.75002C74.061 5.66002 73.961 5.57002 73.861 5.48002C73.851 5.47002 73.841 5.47002 73.841 5.47002C73.531 5.14002 73.061 5.02002 72.661 5.26002C70.881 6.32002 69.261 7.02002 67.321 7.59002C67.141 7.64002 66.991 7.76002 66.871 7.90002C66.551 8.03002 66.291 8.32002 66.291 8.77002C66.271 10.07 66.191 11.4 66.301 12.7C66.411 14.01 66.891 15.28 67.481 16.45C68.541 18.54 70.541 19.9 72.501 21.01C72.931 21.25 73.341 21.13 73.611 20.85C75.491 19.79 76.671 17.89 77.591 15.97C78.631 13.76 79.561 11.39 79.401 8.90002ZM69.141 15.45C68.661 14.51 68.251 13.45 68.201 12.39C68.151 11.39 68.181 10.38 68.201 9.37002C69.401 9.00002 70.561 8.53002 71.691 7.99002C71.431 9.52002 71.371 11.1 71.341 12.64C71.301 14.56 71.431 16.49 71.901 18.35C70.781 17.59 69.761 16.68 69.141 15.45ZM75.921 14.96C75.361 16.14 74.721 17.32 73.801 18.23C73.801 18.14 73.811 18.05 73.781 17.95C73.331 16.21 73.221 14.43 73.261 12.63C73.291 11.02 73.351 9.38002 73.691 7.80002C74.841 8.61002 76.111 9.23002 77.481 9.56002C77.441 11.47 76.731 13.26 75.921 14.96Z" fill="black"/>
<path d="M84.011 20.2C83.551 19.95 82.971 20.08 82.691 20.55C82.641 20.63 82.591 20.72 82.541 20.8C82.511 20.84 82.491 20.88 82.461 20.91C82.351 21.04 82.241 21.18 82.121 21.31C81.991 21.45 81.851 21.58 81.711 21.7C81.641 21.76 81.561 21.82 81.491 21.88C81.721 21.68 81.451 21.91 81.391 21.95C80.761 22.41 80.071 22.79 79.381 23.16C78.931 23.4 78.761 24.07 79.031 24.51C79.321 24.97 79.871 25.12 80.351 24.86C81.881 24.03 83.441 23.1 84.351 21.53C84.611 21.1 84.471 20.45 84.011 20.2Z" fill="black"/>
<path d="M64.831 1.48005C64.531 1.01005 63.991 0.870046 63.511 1.12005C62.321 1.75005 61.321 2.72005 60.611 3.87005C60.341 4.31005 60.501 4.97005 60.961 5.22005C61.431 5.48005 61.991 5.34005 62.281 4.87005C62.371 4.72005 62.471 4.58005 62.581 4.43005C62.871 4.06005 63.201 3.72005 63.571 3.42005C63.851 3.20005 64.161 3.00005 64.481 2.82005C64.931 2.59005 65.101 1.91005 64.831 1.48005Z" fill="black"/>
<path d="M48.7208 4.85976C46.6608 2.51976 44.1408 2.24976 41.9008 3.23976C41.8308 3.23976 41.7608 3.24976 41.6808 3.25976C41.4408 3.24976 41.1908 3.27976 40.9308 3.32976C39.1908 3.54976 37.5508 4.18976 36.4608 5.58976C36.3908 5.67976 36.3308 5.76976 36.2708 5.86976C34.5908 7.48976 33.7808 9.64976 33.6008 12.4898C33.4708 14.5498 34.1108 16.9198 35.4008 18.8098C36.1408 20.3098 37.2308 21.7198 38.8108 22.4398C41.0008 23.4298 43.4808 23.0298 45.6408 22.1798C47.5808 21.4098 49.1908 20.3098 50.1608 18.5398C50.5608 18.0898 50.9008 17.6098 51.1708 17.1098C53.2308 13.1198 51.5508 8.07976 48.7208 4.85976Z" fill="white"/>
<path d="M51.9308 7.11977C51.5408 6.87977 50.8808 6.98977 50.6808 7.46977C50.6208 7.60977 50.5808 7.75977 50.5308 7.89977C50.1608 6.89977 49.6808 5.94977 49.0608 5.07977C47.6608 3.10977 45.6308 1.56977 43.2908 1.16977C42.9408 1.10977 42.6008 1.20977 42.3808 1.45977C35.8208 1.10977 29.8908 6.51977 30.7808 13.7098C31.6308 20.5998 38.1608 25.4598 44.6108 23.6098C48.0508 22.6298 51.2408 19.8398 51.7008 15.9698C51.8508 14.7398 50.0108 14.7498 49.8708 15.9698C49.4308 19.6498 45.3508 21.9398 42.1608 22.0698C38.7608 22.2098 35.5108 20.3198 33.8108 17.2298C32.2908 14.4498 32.0208 10.8798 33.5708 8.04977C35.4108 4.67977 39.0208 3.14977 42.6008 3.40977C42.8908 3.42977 43.1108 3.32977 43.2608 3.15977C46.1308 3.84977 47.9708 6.23977 48.9608 9.02977C48.8308 8.94977 48.6908 8.88977 48.5208 8.88977C48.3008 8.88977 48.0308 8.99977 47.8708 9.16977C47.7108 9.34977 47.5908 9.59977 47.6008 9.84977C47.6108 10.0898 47.6808 10.3798 47.8708 10.5298C48.3808 10.9498 48.8308 11.4398 49.2308 11.9698C49.3808 12.1898 49.5308 12.4098 49.6508 12.6498C49.6508 12.6498 49.6508 12.6498 49.6508 12.6598C49.6708 12.9298 49.8208 13.1798 50.0308 13.3398C50.1908 13.5298 50.4108 13.6498 50.6808 13.6498C51.1508 13.6498 51.6308 13.2098 51.6008 12.6798C51.5108 11.2298 51.7208 9.77977 52.2808 8.44977C52.4608 7.96977 52.3908 7.39977 51.9308 7.11977Z" fill="black"/>
<path d="M43.8108 11.8897C43.7008 11.4397 43.4308 11.0997 43.0808 10.8297C42.8308 10.6397 42.5208 10.5097 42.2208 10.4597C41.9408 10.4197 41.6708 10.3897 41.4008 10.4997C41.0808 10.6197 40.8308 10.8197 40.6508 11.1297C40.5808 11.2497 40.5508 11.3997 40.5408 11.5497C40.2708 11.7097 40.0608 12.0097 40.0008 12.3297C39.9008 12.8697 40.0908 13.3697 40.4308 13.7797C40.6608 14.0597 40.9808 14.2197 41.3008 14.3497C41.5708 14.4597 41.8808 14.5097 42.1608 14.4897C42.5908 14.4597 42.9908 14.3097 43.3108 13.9997C43.5508 13.7597 43.7308 13.3997 43.8008 13.0597C43.8808 12.6797 43.9008 12.2797 43.8108 11.8897Z" fill="black"/>
<path d="M42.7308 5.12977C42.7208 4.62977 42.3208 4.13977 41.8108 4.15977C41.3208 4.17977 40.8808 4.57977 40.8908 5.12977L40.9708 8.52977C40.9808 9.02977 41.3808 9.51977 41.8908 9.49977C42.3808 9.47977 42.8208 9.07977 42.8108 8.52977L42.7308 5.12977Z" fill="black"/>
<path d="M48.2508 17.4198C47.2208 16.3398 46.0408 15.4198 44.8808 14.5098C44.7008 14.3698 44.3808 14.3498 44.1708 14.4098C43.9608 14.4698 43.7308 14.6398 43.6208 14.8498C43.5108 15.0698 43.4508 15.3498 43.5308 15.5898C43.6108 15.8398 43.7508 16.0098 43.9508 16.1698C44.2208 16.3798 44.4908 16.5898 44.7508 16.7998C44.8208 16.8598 44.8908 16.9098 44.9608 16.9698C44.9808 16.9798 45.0008 16.9998 45.0108 17.0098C45.1508 17.1198 45.2908 17.2398 45.4308 17.3598C45.9608 17.8098 46.4708 18.2798 46.9508 18.7798C47.2908 19.1398 47.9108 19.1698 48.2508 18.7798C48.5808 18.3998 48.6108 17.7998 48.2508 17.4198Z" fill="black"/>
<path d="M35.8108 0.699896C35.6508 0.169896 35.1908 -0.0801044 34.6808 0.0298956C34.1908 0.129896 33.7608 0.409896 33.3308 0.669896C32.9408 0.909896 32.5608 1.1499 32.1908 1.4299C31.4308 2.0199 30.7108 2.7299 30.3308 3.6599C30.2308 3.9099 30.1708 4.1299 30.2408 4.3999C30.3008 4.6199 30.4608 4.8699 30.6608 4.9799C31.0508 5.1999 31.7108 5.1299 31.9108 4.6299C31.9808 4.4499 32.0708 4.2699 32.1708 4.1099C32.2008 4.0599 32.2308 4.0199 32.2608 3.9699C32.2808 3.9499 32.3708 3.8299 32.2808 3.9299C32.1908 4.0399 32.3108 3.8999 32.3308 3.8699C32.3608 3.8399 32.3808 3.7999 32.4108 3.7699C32.5308 3.6199 32.6708 3.4799 32.8108 3.3499C32.8908 3.2799 32.9708 3.2099 33.0508 3.1399C33.0908 3.1099 33.1308 3.0799 33.1708 3.0499C33.5108 2.7999 33.8608 2.5699 34.2208 2.3499C34.3908 2.2399 34.5708 2.1299 34.7408 2.0299C34.7808 2.0099 34.8208 1.9899 34.8608 1.9699H34.8508C34.8508 1.9699 34.8708 1.9699 34.8708 1.9599C34.9308 1.9299 34.9408 1.9299 34.9308 1.9399C34.9408 1.9299 34.9608 1.9199 34.9708 1.9199C35.0308 1.8999 35.0908 1.8899 35.1608 1.8699C35.6408 1.7899 35.9608 1.1699 35.8108 0.699896Z" fill="black"/>
<path d="M34.8708 1.97995C34.9008 1.97995 34.9308 1.96995 34.9408 1.94995C34.9208 1.95995 34.9008 1.96995 34.8808 1.96995C34.8808 1.97995 34.8808 1.96995 34.8708 1.97995Z" fill="black"/>
<path d="M54.0908 18.1498C53.9808 17.9498 53.7608 17.7598 53.5408 17.7098C53.0208 17.5898 52.6208 17.8698 52.4308 18.3598C52.4508 18.3198 52.4508 18.2998 52.4208 18.3798C52.4208 18.3798 52.4208 18.3798 52.4208 18.3898C52.4208 18.3998 52.4208 18.3998 52.4108 18.3998C52.3908 18.4398 52.3808 18.4798 52.3608 18.5198C52.3208 18.6198 52.2708 18.7198 52.2208 18.8198C52.1308 18.9998 52.0408 19.1798 51.9308 19.3498C51.8208 19.5398 51.7008 19.7198 51.5708 19.8998C51.5508 19.9298 51.5208 19.9598 51.5008 19.9998C51.4308 20.0898 51.3608 20.1698 51.2908 20.2598C51.0208 20.5798 50.7208 20.8698 50.4108 21.1398C50.4208 21.1298 50.4208 21.1298 50.4308 21.1198C50.4208 21.1298 50.4108 21.1398 50.4008 21.1498C50.3708 21.1798 50.3508 21.1898 50.3608 21.1798C50.3408 21.1998 50.3208 21.2098 50.3008 21.2298C50.2208 21.2898 50.1408 21.3498 50.0608 21.3998C49.8808 21.5198 49.7008 21.6398 49.5108 21.7498C49.0908 21.9898 48.9208 22.6398 49.1808 23.0698C49.4608 23.5198 49.9808 23.6798 50.4308 23.4198C52.1608 22.4298 53.4508 20.8098 54.1808 18.8998C54.2608 18.6798 54.1908 18.3498 54.0908 18.1498Z" fill="black"/>
<path d="M50.4008 21.1399C50.3708 21.1599 50.3508 21.1799 50.3508 21.1799C50.3608 21.1699 50.3808 21.1599 50.4008 21.1399Z" fill="black"/>
<g clip-path="url(#clip2)">
<path d="M22.6108 8.94983C21.6708 7.15983 20.2808 5.60983 18.6808 4.39983C16.7508 2.93983 14.4308 2.62983 12.0708 2.70983C10.5108 2.75983 8.96079 3.05983 7.53079 3.66983C7.43079 3.68983 7.33079 3.70983 7.23079 3.74983C7.03079 3.83983 6.85079 3.94983 6.66079 4.05983C6.49079 4.06983 6.33079 4.09983 6.20079 4.20983C6.02079 4.34983 5.8808 4.49983 5.7208 4.64983C5.6508 4.69983 5.59079 4.75983 5.54079 4.81983C5.39079 4.97983 5.25079 5.14983 5.12079 5.32983C3.95079 6.63983 3.22079 8.36983 2.67079 10.0198C2.21079 11.4098 2.35079 12.8398 2.80079 14.2198C3.06079 15.0398 3.50079 15.7198 4.13079 16.1698C5.94079 19.6798 9.61079 21.3098 13.4208 21.5198C14.4608 21.5798 15.5708 21.5998 16.5808 21.3198C17.6208 21.0298 18.5208 20.3898 19.4008 19.7698C20.1708 19.2298 20.9008 18.6498 21.4708 17.8998C22.1508 17.0098 22.5508 15.9398 22.9508 14.8998C23.7508 12.8298 23.6508 10.9398 22.6108 8.94983Z" fill="white"/>
<path d="M23.7708 10.92C24.2008 5.88998 20.9008 1.32998 16.1308 0.54998C14.9808 0.35998 14.5308 2.21998 15.6908 2.40998C19.0508 2.95998 21.7508 5.77998 21.9808 9.38998C22.2208 13.2 19.9408 17.45 16.8108 19.49C16.0208 20 15.0608 20.2 14.1808 20.45C13.1608 20.73 12.1408 20.97 11.0908 21.07C8.9608 21.26 7.1208 20.64 5.4408 19.31C4.0808 18.23 2.4608 16.98 2.1208 15.13C1.7508 13.12 2.1208 10.94 2.7208 8.99998C3.4208 6.71998 4.9408 5.35998 7.0208 4.45998C9.0208 3.58998 11.1908 2.91998 13.3508 3.11998C14.5108 3.21998 14.4608 1.31998 13.3108 1.21998C10.9608 1.00998 8.5308 1.75998 6.3608 2.71998C4.3908 3.58998 2.5508 4.86998 1.5808 6.93998C0.560801 9.09998 0.0807998 11.77 0.2008 14.14C0.2608 15.22 0.420801 16.34 0.910801 17.29C1.4108 18.27 2.2708 19.01 3.0508 19.73C4.8308 21.38 6.8208 22.74 9.2608 22.98C11.5808 23.21 14.0608 22.58 16.2808 21.82C18.4108 21.09 20.1208 19.2 21.4208 17.33C22.6908 15.42 23.5708 13.24 23.7708 10.92Z" fill="black"/>
<path d="M21.0108 9.75001C20.2608 8.50001 18.8908 7.95001 17.5108 7.93001C16.2508 7.91001 14.5708 8.29001 14.0408 9.68001C13.6008 10.81 15.1908 11.72 15.6308 10.58C16.0708 9.44001 18.2808 9.71001 19.0108 10.27C20.1308 11.13 19.5708 12.74 18.4008 13.26C15.7508 14.44 13.4308 11.01 11.6708 9.59001C9.67081 7.97001 6.79081 7.07001 4.58081 8.94001C2.77081 10.47 2.48081 13.61 4.58081 14.97C7.01081 16.55 10.4108 14.48 11.9408 12.36C13.6208 13.95 15.4508 15.62 17.8908 15.31C20.3308 15.02 22.4708 12.18 21.0108 9.75001ZM7.74081 13.35C6.59081 13.76 5.00081 13.71 4.90081 12.12C4.82081 10.77 6.12081 9.88001 7.27081 9.80001C8.53081 9.72001 9.62081 10.35 10.5708 11.14C9.83081 12.14 8.89081 12.94 7.74081 13.35Z" fill="black"/>
<path d="M23.5508 17.1699C23.1208 16.9399 22.4908 17.0399 22.2508 17.5099C21.9908 18.0299 21.6808 18.5199 21.3408 18.9899C21.3208 19.0199 21.2908 19.0599 21.2808 19.0699C21.2508 19.1099 21.2108 19.1499 21.1808 19.1999C21.0908 19.3099 21.0008 19.4199 20.9108 19.5299C20.7208 19.7599 20.5108 19.9699 20.3108 20.1899C19.9108 20.5999 19.4908 20.9799 19.0608 21.3499C18.9508 21.4399 18.8408 21.5299 18.7308 21.6199C18.6608 21.6699 18.6008 21.7299 18.5308 21.7799C18.5208 21.7899 18.4708 21.8299 18.4308 21.8599C18.4008 21.8799 18.3108 21.9499 18.3208 21.9499C18.2608 21.9899 18.2108 22.0399 18.1508 22.0799C18.0308 22.1699 17.9008 22.2699 17.7708 22.3599C17.3708 22.6499 17.1308 23.1999 17.4308 23.6699C17.6908 24.0699 18.3008 24.3299 18.7308 24.0099C20.7808 22.5099 22.7408 20.7799 23.9108 18.4899C24.1108 18.0299 24.0208 17.4199 23.5508 17.1699Z" fill="black"/>
<path d="M6.03083 0.599911C5.74083 0.139911 5.21083 0.0199116 4.73083 0.259911C3.12083 1.06991 1.46083 1.93991 0.270828 3.33991C-0.0491715 3.71991 -0.129172 4.31991 0.270828 4.68991C0.630828 5.01991 1.27083 5.08991 1.61083 4.68991C1.89083 4.36991 2.19083 4.06991 2.52083 3.78991C2.56083 3.75991 2.59083 3.72991 2.63083 3.69991C2.64083 3.68991 2.64083 3.68991 2.64083 3.68991C2.72083 3.62991 2.80083 3.56991 2.89083 3.50991C3.06083 3.38991 3.24083 3.26991 3.42083 3.14991C4.15083 2.68991 4.92083 2.29991 5.68083 1.90991C6.14083 1.67991 6.30083 1.00991 6.03083 0.599911Z" fill="black"/>
</g>
<path d="M100.709 11.3765C100.893 11.192 100.893 10.893 100.709 10.7085C100.524 10.524 100.225 10.524 100.041 10.7085L96.0429 14.7064L92.0022 10.6655C91.8177 10.481 91.5186 10.481 91.3342 10.6655C91.1497 10.8499 91.1497 11.149 91.3342 11.3335L95.6659 15.6655C95.6731 15.6727 95.6805 15.6796 95.688 15.6862C95.6947 15.6938 95.7016 15.7012 95.7089 15.7085C95.8934 15.893 96.1924 15.893 96.3769 15.7085L100.709 11.3765Z" fill="white"/>
<path fill-rule="evenodd" clip-rule="evenodd" d="M113.728 11.4354C113.923 11.2402 113.923 10.9236 113.728 10.7283C113.533 10.533 113.216 10.533 113.021 10.7283L109.082 14.6674L105.061 10.6462C104.865 10.4509 104.549 10.4509 104.354 10.6462C104.158 10.8415 104.158 11.1581 104.354 11.3533L108.646 15.646C108.66 15.6598 108.675 15.6727 108.69 15.6847C108.702 15.6997 108.714 15.7142 108.728 15.7281C108.924 15.9233 109.24 15.9233 109.435 15.7281L113.728 11.4354Z" fill="#1E1E1E"/>
<mask id="mask1" mask-type="alpha" maskUnits="userSpaceOnUse" x="125" y="58" width="24" height="16">
<path d="M148 58H126C125.448 58 125 58.4477 125 59V73C125 73.5523 125.448 74 126 74H148C148.552 74 149 73.5523 149 73V59C149 58.4477 148.552 58 148 58Z" fill="black"/>
</mask>
<g mask="url(#mask1)">
<path d="M149 58H125V74H149V58Z" fill="#2E3192"/>
<path d="M136.221 61.1626L136.856 60.6773L137.506 61.1306L137.245 60.3786L137.874 59.8986L137.08 59.9146L136.818 59.168L136.589 59.9306L135.794 59.9466L136.45 60.4L136.221 61.1626Z" fill="white"/>
<path d="M137.08 72L136.818 71.248L136.589 72.0107L135.794 72.032L136.45 72.48L136.221 73.2427L136.856 72.7627L137.506 73.216L137.245 72.464L137.874 71.984L137.08 72Z" fill="white"/>
<path d="M130.264 67.0881L130.909 66.6294L131.549 67.1041L131.309 66.3414L131.96 65.8827L131.165 65.8721L130.931 65.1147L130.675 65.8667L129.88 65.8561L130.515 66.3307L130.264 67.0881Z" fill="white"/>
<path d="M143.629 67.1041L143.395 66.3414L144.045 65.8827L143.251 65.8721L143.011 65.1147L142.755 65.8667L141.96 65.8561L142.6 66.3307L142.344 67.0881L142.995 66.6294L143.629 67.1041Z" fill="white"/>
<path d="M138.888 61.4878L139.677 61.3972L140.008 62.1172L140.168 61.3385L140.957 61.2478L140.264 60.8585L140.424 60.0798L139.837 60.6185L139.144 60.2238L139.474 60.9492L138.888 61.4878Z" fill="white"/>
<path d="M134.69 71.0721L133.896 71.1095L133.618 70.3628L133.405 71.1308L132.61 71.1628L133.277 71.6055L133.064 72.3681L133.688 71.8721L134.349 72.3095L134.072 71.5681L134.69 71.0721Z" fill="white"/>
<path d="M131.064 64.0372L131.704 63.5626L132.349 64.0266L132.099 63.2692L132.739 62.7999L131.944 62.8052L131.688 62.0532L131.448 62.8106L130.653 62.8159L131.304 63.2799L131.064 64.0372Z" fill="white"/>
<path d="M141.688 69.4559L141.448 70.2186L142.088 69.7439L142.733 70.2026L142.482 69.4506L143.122 68.9759L142.322 68.9866L142.072 68.2292L141.832 68.9866L141.037 68.9973L141.688 69.4559Z" fill="white"/>
<path d="M141.688 62.9865L141.037 63.4452L141.832 63.4559L142.066 64.2185L142.328 63.4612L143.122 63.4772L142.482 62.9972L142.744 62.2452L142.093 62.7039L141.453 62.2239L141.688 62.9865Z" fill="white"/>
<path d="M131.944 69.2586L132.562 68.7573L131.768 68.7999L131.48 68.0586L131.277 68.8266L130.482 68.8693L131.149 69.3013L130.946 70.0693L131.565 69.5679L132.232 69.9999L131.944 69.2586Z" fill="white"/>
<path d="M133.293 61.856L133.928 61.376L134.579 61.8293L134.317 61.0773L134.952 60.5973L134.157 60.6133L133.896 59.8613L133.667 60.624L132.872 60.64L133.523 61.0933L133.293 61.856Z" fill="white"/>
<path d="M140.157 71.1041L139.901 70.3521L139.667 71.1094L138.872 71.1254L139.523 71.5841L139.293 72.3414L139.928 71.8614L140.579 72.3201L140.317 71.5681L140.952 71.0881L140.157 71.1041Z" fill="white"/>
</g>
<mask id="mask2" mask-type="alpha" maskUnits="userSpaceOnUse" x="125" y="83" width="24" height="16">
<path d="M148 83H126C125.448 83 125 83.4477 125 84V98C125 98.5523 125.448 99 126 99H148C148.552 99 149 98.5523 149 98V84C149 83.4477 148.552 83 148 83Z" fill="black"/>
</mask>
<g mask="url(#mask2)">
<path d="M125 93.6667V97.3361L130.499 93.6667H125Z" fill="#00247D"/>
<path d="M146.499 83H139.667V87.5547L146.499 83Z" fill="#00247D"/>
<path d="M127.496 99H134.333V94.4453L127.496 99Z" fill="#00247D"/>
<path d="M125 84.6641V88.3334H130.499L125 84.6641Z" fill="#00247D"/>
<path d="M134.333 83H127.496L134.333 87.5547V83Z" fill="#00247D"/>
<path d="M149 97.3361V93.6667H143.496L149 97.3361Z" fill="#00247D"/>
<path d="M149 88.3334V84.6641L143.496 88.3334H149Z" fill="#00247D"/>
<path d="M139.667 99H146.499L139.667 94.4453V99Z" fill="#00247D"/>
<path d="M134.333 88.3333V87.5547L127.496 83H125L133 88.3333H134.333Z" fill="#F5F5F5"/>
<path d="M131.331 88.3334L125 84.1094V84.664L130.499 88.3334H131.331Z" fill="#F5F5F5"/>
<path d="M139.667 93.6667V94.4454L146.499 99.0001H149L141 93.6667H139.667Z" fill="#F5F5F5"/>
<path d="M134.333 93.8853L126.664 98.9999H127.496L134.333 94.4453V93.8853Z" fill="#F5F5F5"/>
<path d="M130.499 93.6667L125 97.3361V99.0001L133 93.6667H130.499Z" fill="#F5F5F5"/>
<path d="M142.664 93.6667L149 97.8907V97.3361L143.496 93.6667H142.664Z" fill="#F5F5F5"/>
<path d="M143.496 88.3333L149 84.664V83L141 88.3333H143.496Z" fill="#F5F5F5"/>
<path d="M139.667 88.1147L147.331 83H146.499L139.667 87.5547V88.1147Z" fill="#F5F5F5"/>
<path d="M133 88.3333L125 83V84.1093L131.331 88.3333H133Z" fill="#CF142B"/>
<path d="M142.664 93.6667H141L149 99.0001V97.8907L142.664 93.6667Z" fill="#CF142B"/>
<path d="M134.333 93.6667H133L125 99.0001H126.664L134.333 93.8854V93.6667Z" fill="#CF142B"/>
<path d="M139.667 88.3333H141L149 83H147.331L139.667 88.1147V88.3333Z" fill="#CF142B"/>
<path d="M138.6 89.4H149V88.3333H143.496H141H139.667V88.1147V87.5547V83H138.6V89.4Z" fill="#F5F5F5"/>
<path d="M139.666 93.6668H141H142.664H143.496H149V92.6001H138.6V99.0001H139.666V94.4454V93.6668Z" fill="#F5F5F5"/>
<path d="M135.4 92.6001H125V93.6668H130.499H133H134.333V93.8854V94.4454V99.0001H135.4V92.6001Z" fill="#F5F5F5"/>
<path d="M135.4 89.4V83H134.333V87.5547V88.3333H133H131.331H130.499H125V89.4H135.4Z" fill="#F5F5F5"/>
<path d="M138.6 92.6H149V91V89.4H138.6V83H137H135.4V89.4H125V91V92.6H135.4V99H137H138.6V92.6Z" fill="#CF142B"/>
</g>
<path d="M125 106H149V122H125V106Z" fill="#00008B"/>
<path d="M131.368 115.173L131.709 116.24L132.76 115.84L132.136 116.779L133.101 117.349L131.986 117.445L132.141 118.555L131.368 117.744L130.594 118.555L130.749 117.445L129.629 117.349L130.594 116.779L129.976 115.84L131.021 116.24L131.368 115.173Z" fill="#F5F5F5"/>
<path d="M143.235 117.093L143.4 117.6L143.896 117.413L143.603 117.856L144.062 118.128L143.528 118.176L143.603 118.704L143.235 118.32L142.867 118.704L142.942 118.176L142.408 118.128L142.867 117.856L142.574 117.413L143.07 117.6L143.235 117.093Z" fill="#F5F5F5"/>
<path d="M140.269 112.395L140.429 112.907L140.93 112.715L140.637 113.157L141.096 113.435L140.562 113.477L140.637 114.005L140.269 113.621L139.901 114.005L139.97 113.477L139.442 113.435L139.901 113.157L139.602 112.715L140.104 112.907L140.269 112.395Z" fill="#F5F5F5"/>
<path d="M143.235 109.184L143.4 109.691L143.896 109.499L143.603 109.947L144.062 110.219L143.528 110.267L143.603 110.795L143.235 110.405L142.867 110.795L142.942 110.267L142.408 110.219L142.867 109.947L142.574 109.499L143.07 109.691L143.235 109.184Z" fill="#F5F5F5"/>
<path d="M145.869 111.605L146.035 112.112L146.536 111.925L146.237 112.368L146.696 112.64L146.168 112.688L146.237 113.216L145.869 112.827L145.507 113.216L145.576 112.688L145.048 112.64L145.507 112.368L145.208 111.925L145.709 112.112L145.869 111.605Z" fill="#F5F5F5"/>
<path d="M144.424 113.984L144.552 114.304L144.893 114.325L144.632 114.549L144.712 114.88L144.424 114.699L144.131 114.88L144.211 114.549L143.949 114.325L144.291 114.304L144.424 113.984Z" fill="#F5F5F5"/>
<path d="M125 111.333V113.168L127.752 111.333H125Z" fill="#00008B"/>
<path d="M135.752 106H132.333V108.277L135.752 106Z" fill="#00008B"/>
<path d="M126.248 114H129.667V111.723L126.248 114Z" fill="#00008B"/>
<path d="M125 106.832V108.667H127.752L125 106.832Z" fill="#00008B"/>
<path d="M129.667 106H126.248L129.667 108.277V106Z" fill="#00008B"/>
<path d="M137 113.168V111.333H134.248L137 113.168Z" fill="#00008B"/>
<path d="M137 108.667V106.832L134.248 108.667H137Z" fill="#00008B"/>
<path d="M132.333 114H135.752L132.333 111.723V114Z" fill="#00008B"/>
<path d="M129.667 108.667V108.277L126.248 106H125L129 108.667H129.667Z" fill="#F5F5F5"/>
<path d="M128.168 108.667L125 106.555V106.832L127.752 108.667H128.168Z" fill="#F5F5F5"/>
<path d="M132.333 111.333V111.723L135.752 114H137L133 111.333H132.333Z" fill="#F5F5F5"/>
<path d="M129.667 111.445L125.832 114H126.248L129.667 111.723V111.445Z" fill="#F5F5F5"/>
<path d="M127.752 111.333L125 113.168V114L129 111.333H127.752Z" fill="#F5F5F5"/>
<path d="M133.832 111.333L137 113.445V113.168L134.248 111.333H133.832Z" fill="#F5F5F5"/>
<path d="M134.248 108.667L137 106.832V106L133 108.667H134.248Z" fill="#F5F5F5"/>
<path d="M132.333 108.555L136.168 106H135.752L132.333 108.277V108.555Z" fill="#F5F5F5"/>
<path d="M129 108.667L125 106V106.555L128.168 108.667H129Z" fill="#CF142B"/>
<path d="M133.832 111.333H133L137 114V113.445L133.832 111.333Z" fill="#CF142B"/>
<path d="M129.667 111.333H129L125 114H125.832L129.667 111.445V111.333Z" fill="#CF142B"/>
<path d="M132.333 108.667H133L137 106H136.168L132.333 108.555V108.667Z" fill="#CF142B"/>
<path d="M131.8 109.2H137V108.667H134.248H133H132.333V108.555V108.277V106H131.8V109.2Z" fill="#F5F5F5"/>
<path d="M132.333 111.333H133H133.832H134.248H137V110.8H131.8V114H132.333V111.723V111.333Z" fill="#F5F5F5"/>
<path d="M130.2 110.8H125V111.333H127.752H129H129.667V111.445V111.723V114H130.2V110.8Z" fill="#F5F5F5"/>
<path d="M130.2 109.2V106H129.667V108.277V108.667H129H128.168H127.752H125V109.2H130.2Z" fill="#F5F5F5"/>
<path d="M131.8 110.8H137V110V109.2H131.8V106H131H130.2V109.2H125V110V110.8H130.2V114H131H131.8V110.8Z" fill="#CF142B"/>
<mask id="mask3" mask-type="alpha" maskUnits="userSpaceOnUse" x="125" y="130" width="24" height="16">
<path d="M148 130H126C125.448 130 125 130.448 125 131V145C125 145.552 125.448 146 126 146H148C148.552 146 149 145.552 149 145V131C149 130.448 148.552 130 148 130Z" fill="black"/>
</mask>
<g mask="url(#mask3)">
<path d="M149 130H125V146H149V130Z" fill="#FF0000"/>
<path d="M143 130H131V146H143V130Z" fill="#F5F5F5"/>
<path d="M137 132.997L136.152 134.581C136.056 134.752 135.886 134.736 135.71 134.64L135.096 134.32L135.555 136.752C135.651 137.195 135.342 137.195 135.187 137.003L134.115 135.803L133.939 136.411C133.918 136.491 133.832 136.576 133.699 136.555L132.344 136.267L132.702 137.563C132.776 137.851 132.835 137.968 132.627 138.048L132.142 138.277L134.478 140.176C134.568 140.245 134.616 140.379 134.584 140.496L134.382 141.168C135.187 141.077 135.907 140.933 136.712 140.848C136.782 140.843 136.904 140.96 136.904 141.04L136.798 143.499H137.187L137.123 141.045C137.123 140.965 137.23 140.843 137.299 140.848C138.104 140.933 138.824 141.072 139.63 141.168L139.427 140.496C139.395 140.379 139.443 140.251 139.534 140.176L141.87 138.277L141.384 138.048C141.171 137.973 141.23 137.851 141.31 137.563L141.667 136.267L140.312 136.555C140.179 136.576 140.094 136.491 140.072 136.411L139.896 135.803L138.814 137.008C138.659 137.2 138.35 137.2 138.446 136.757L138.904 134.325L138.291 134.645C138.12 134.741 137.944 134.757 137.848 134.587L137 132.997Z" fill="#FF0000"/>
</g>
<g clip-path="url(#clip3)">
<path d="M85.2085 76.2051C84.4386 75.7551 83.6487 76.0951 83.1587 76.7451C82.1989 78.0051 81.219 79.2651 80.2191 80.4951C79.7092 81.1252 79.1992 81.7552 78.6793 82.3652C78.4093 82.6952 78.1394 83.0152 77.8694 83.3352C77.8294 83.3752 77.7994 83.4252 77.7594 83.4652C77.7194 83.4352 77.6894 83.4052 77.6494 83.3652C77.2495 83.0452 76.8695 82.6952 76.5096 82.3252C75.8297 81.6252 75.3097 80.9552 74.7998 80.1251C74.3698 79.4351 73.4499 79.1651 72.74 79.5851C72.0501 79.9851 71.7802 80.9451 72.2001 81.6352C72.99 82.8952 73.9399 84.0752 75.0398 85.0752C75.5997 85.5852 76.2096 86.0652 76.8395 86.4852C77.7494 87.0952 78.7393 86.9052 79.4392 86.0952C81.6389 83.5652 83.7187 80.9251 85.7384 78.2551C86.2384 77.6051 85.8484 76.5751 85.2085 76.2051Z" fill="#00A99D"/>
</g>
<mask id="mask4" mask-type="alpha" maskUnits="userSpaceOnUse" x="125" y="18" width="24" height="16">
<path d="M148 18H126C125.448 18 125 18.4477 125 19V33C125 33.5523 125.448 34 126 34H148C148.552 34 149 33.5523 149 33V19C149 18.4477 148.552 18 148 18Z" fill="black"/>
</mask>
<g mask="url(#mask4)">
<path d="M149.274 17.937H124.957V34.0628H149.274V17.937Z" fill="#B50900"/>
<path d="M149.258 32.7386H124.957V31.6372H149.258V32.7386ZM149.258 30.2601H124.957V29.1587H149.258V30.2601ZM149.258 27.7815H124.957V26.6801H149.258V27.7815ZM149.258 25.3035H124.957V24.2021H149.258V25.3035ZM149.258 22.825H124.957V21.7236H149.258V22.825ZM149.258 20.3465H124.957V19.2456H149.258V20.3465Z" fill="white"/>
<path d="M136.662 17.937H124.957V26.6772H136.662V17.937Z" fill="#2B1D73"/>
<path d="M125.674 18.3086L125.563 18.6507H125.201L125.494 18.8624L125.382 19.2045L125.674 18.9929L125.967 19.2045L125.855 18.8624L126.148 18.6507H125.786L125.674 18.3086Z" fill="white"/>
<path d="M125.674 20.043L125.563 20.3851H125.201L125.494 20.5967L125.382 20.9389L125.674 20.7272L125.967 20.9389L125.855 20.5967L126.148 20.3851H125.786L125.674 20.043Z" fill="white"/>
<path d="M125.674 21.7788L125.563 22.1209H125.201L125.494 22.3326L125.382 22.6747L125.674 22.4631L125.967 22.6747L125.855 22.3326L126.148 22.1209H125.786L125.674 21.7788Z" fill="white"/>
<path d="M125.674 23.5132L125.563 23.8553H125.201L125.494 24.067L125.382 24.4091L125.674 24.1975L125.967 24.4091L125.855 24.067L126.148 23.8553H125.786L125.674 23.5132Z" fill="white"/>
<path d="M125.786 25.5897L125.674 25.2476L125.563 25.5897H125.201L125.494 25.8013L125.382 26.144L125.674 25.9324L125.967 26.144L125.855 25.8013L126.148 25.5897H125.786Z" fill="white"/>
<path d="M126.699 19.1758L126.587 19.5179H126.226L126.518 19.7296L126.406 20.0722L126.699 19.8606L126.991 20.0722L126.88 19.7296L127.172 19.5179H126.81L126.699 19.1758Z" fill="white"/>
<path d="M126.699 20.9121L126.587 21.2542H126.226L126.518 21.4659L126.406 21.808L126.699 21.5964L126.991 21.808L126.88 21.4659L127.172 21.2542H126.81L126.699 20.9121Z" fill="white"/>
<path d="M126.699 22.646L126.587 22.9881H126.226L126.518 23.1998L126.406 23.5424L126.699 23.3308L126.991 23.5424L126.88 23.1998L127.172 22.9881H126.81L126.699 22.646Z" fill="white"/>
<path d="M126.81 24.7225L126.699 24.3804L126.587 24.7225H126.226L126.518 24.9341L126.406 25.2763L126.699 25.0647L126.991 25.2763L126.88 24.9341L127.172 24.7225H126.81Z" fill="white"/>
<path d="M127.726 18.3087L127.614 18.6509H127.253L127.545 18.8625L127.434 19.2046L127.726 18.993L128.018 19.2046L127.907 18.8625L128.199 18.6509H127.838L127.726 18.3087Z" fill="white"/>
<path d="M127.726 20.0425L127.614 20.3846H127.253L127.545 20.5963L127.434 20.9384L127.726 20.7268L128.019 20.9384L127.907 20.5963L128.199 20.3846H127.838L127.726 20.0425Z" fill="white"/>
<path d="M127.726 21.7788L127.614 22.1209H127.253L127.545 22.3326L127.434 22.6747L127.726 22.4631L128.019 22.6747L127.907 22.3326L128.199 22.1209H127.838L127.726 21.7788Z" fill="white"/>
<path d="M127.726 23.5132L127.614 23.8553H127.253L127.545 24.067L127.434 24.4091L127.726 24.1975L128.019 24.4091L127.907 24.067L128.199 23.8553H127.838L127.726 23.5132Z" fill="white"/>
<path d="M127.838 25.5897L127.726 25.2476L127.614 25.5897H127.253L127.545 25.8013L127.434 26.144L127.726 25.9324L128.019 26.144L127.907 25.8013L128.199 25.5897H127.838Z" fill="white"/>
<path d="M128.751 19.1748L128.639 19.517H128.277L128.57 19.7286L128.458 20.0713L128.751 19.8596L129.043 20.0713L128.931 19.7286L129.224 19.517H128.862L128.751 19.1748Z" fill="white"/>
<path d="M128.751 20.9111L128.639 21.2533H128.277L128.57 21.4649L128.458 21.807L128.751 21.5954L129.043 21.807L128.931 21.4649L129.224 21.2533H128.862L128.751 20.9111Z" fill="white"/>
<path d="M128.751 22.646L128.639 22.9881H128.277L128.57 23.1998L128.458 23.5424L128.751 23.3308L129.043 23.5424L128.931 23.1998L129.224 22.9881H128.862L128.751 22.646Z" fill="white"/>
<path d="M128.862 24.7225L128.751 24.3804L128.639 24.7225H128.277L128.57 24.9341L128.458 25.2763L128.751 25.0647L129.043 25.2763L128.931 24.9341L129.224 24.7225H128.862Z" fill="white"/>
<path d="M129.777 18.3087L129.665 18.6509H129.303L129.596 18.8625L129.484 19.2046L129.777 18.993L130.069 19.2046L129.957 18.8625L130.25 18.6509H129.888L129.777 18.3087Z" fill="white"/>
<path d="M129.776 20.0425L129.664 20.3846H129.303L129.595 20.5963L129.483 20.9384L129.776 20.7268L130.068 20.9384L129.957 20.5963L130.249 20.3846H129.888L129.776 20.0425Z" fill="white"/>
<path d="M129.776 21.7788L129.664 22.1209H129.303L129.595 22.3326L129.483 22.6747L129.776 22.4631L130.068 22.6747L129.957 22.3326L130.249 22.1209H129.888L129.776 21.7788Z" fill="white"/>
<path d="M129.776 23.5132L129.664 23.8553H129.303L129.595 24.067L129.483 24.4091L129.776 24.1975L130.068 24.4091L129.957 24.067L130.249 23.8553H129.888L129.776 23.5132Z" fill="white"/>
<path d="M129.888 25.5897L129.776 25.2476L129.664 25.5897H129.303L129.595 25.8013L129.483 26.144L129.776 25.9324L130.068 26.144L129.957 25.8013L130.249 25.5897H129.888Z" fill="white"/>
<path d="M130.803 19.1753L130.692 19.5174H130.33L130.623 19.7291L130.511 20.0717L130.803 19.8601L131.096 20.0717L130.984 19.7291L131.276 19.5174H130.915L130.803 19.1753Z" fill="white"/>
<path d="M130.803 20.9111L130.692 21.2533H130.33L130.623 21.4649L130.511 21.807L130.803 21.5954L131.096 21.807L130.984 21.4649L131.276 21.2533H130.915L130.803 20.9111Z" fill="white"/>
<path d="M130.803 22.646L130.692 22.9881H130.33L130.623 23.1998L130.511 23.5424L130.803 23.3308L131.096 23.5424L130.984 23.1998L131.276 22.9881H130.915L130.803 22.646Z" fill="white"/>
<path d="M130.915 24.723L130.803 24.3809L130.692 24.723H130.33L130.623 24.9346L130.511 25.2768L130.803 25.0651L131.096 25.2768L130.984 24.9346L131.276 24.723H130.915Z" fill="white"/>
<path d="M131.828 18.3088L131.716 18.651H131.355L131.647 18.8626L131.536 19.2047L131.828 18.9931L132.121 19.2047L132.009 18.8626L132.301 18.651H131.94L131.828 18.3088Z" fill="white"/>
<path d="M131.829 20.0425L131.717 20.3846H131.355L131.648 20.5963L131.536 20.9384L131.829 20.7268L132.121 20.9384L132.009 20.5963L132.302 20.3846H131.94L131.829 20.0425Z" fill="white"/>
<path d="M131.829 21.7788L131.717 22.1209H131.355L131.648 22.3326L131.536 22.6747L131.829 22.4631L132.121 22.6747L132.009 22.3326L132.302 22.1209H131.94L131.829 21.7788Z" fill="white"/>
<path d="M131.829 23.5132L131.717 23.8553H131.355L131.648 24.067L131.536 24.4091L131.829 24.1975L132.121 24.4091L132.009 24.067L132.302 23.8553H131.94L131.829 23.5132Z" fill="white"/>
<path d="M131.94 25.5897L131.829 25.2476L131.717 25.5897H131.355L131.648 25.8013L131.536 26.144L131.829 25.9324L132.121 26.144L132.009 25.8013L132.302 25.5897H131.94Z" fill="white"/>
<path d="M132.854 19.1753L132.742 19.5174H132.381L132.673 19.7291L132.562 20.0717L132.854 19.8601L133.146 20.0717L133.035 19.7291L133.327 19.5174H132.966L132.854 19.1753Z" fill="white"/>
<path d="M132.854 20.9111L132.742 21.2533H132.381L132.673 21.4649L132.562 21.807L132.854 21.5954L133.146 21.807L133.035 21.4649L133.327 21.2533H132.966L132.854 20.9111Z" fill="white"/>
<path d="M132.854 22.646L132.742 22.9881H132.381L132.673 23.1998L132.562 23.5424L132.854 23.3308L133.146 23.5424L133.035 23.1998L133.327 22.9881H132.966L132.854 22.646Z" fill="white"/>
<path d="M132.966 24.723L132.854 24.3809L132.742 24.723H132.381L132.673 24.9346L132.562 25.2768L132.854 25.0651L133.146 25.2768L133.035 24.9346L133.327 24.723H132.966Z" fill="white"/>
<path d="M133.88 18.3088L133.768 18.651H133.407L133.7 18.8626L133.588 19.2047L133.88 18.9931L134.172 19.2047L134.061 18.8626L134.353 18.651H133.992L133.88 18.3088Z" fill="white"/>
<path d="M133.879 20.0425L133.768 20.3846H133.406L133.699 20.5963L133.588 20.9384L133.879 20.7268L134.172 20.9384L134.06 20.5963L134.353 20.3846H133.991L133.879 20.0425Z" fill="white"/>
<path d="M133.879 21.7788L133.768 22.1209H133.406L133.699 22.3326L133.588 22.6747L133.879 22.4631L134.172 22.6747L134.06 22.3326L134.353 22.1209H133.991L133.879 21.7788Z" fill="white"/>
<path d="M133.879 23.5132L133.768 23.8553H133.406L133.699 24.067L133.588 24.4091L133.879 24.1975L134.172 24.4091L134.06 24.067L134.353 23.8553H133.991L133.879 23.5132Z" fill="white"/>
<path d="M133.991 25.5897L133.879 25.2476L133.768 25.5897H133.406L133.699 25.8013L133.588 26.144L133.879 25.9324L134.172 26.144L134.06 25.8013L134.353 25.5897H133.991Z" fill="white"/>
<path d="M134.906 19.1753L134.794 19.5174H134.433L134.725 19.7291L134.613 20.0717L134.906 19.8601L135.198 20.0717L135.086 19.7291L135.379 19.5174H135.017L134.906 19.1753Z" fill="white"/>
<path d="M134.906 20.9111L134.794 21.2533H134.433L134.725 21.4649L134.613 21.807L134.906 21.5954L135.198 21.807L135.086 21.4649L135.379 21.2533H135.017L134.906 20.9111Z" fill="white"/>
<path d="M134.906 22.646L134.794 22.9881H134.433L134.725 23.1998L134.613 23.5424L134.906 23.3308L135.198 23.5424L135.086 23.1998L135.379 22.9881H135.017L134.906 22.646Z" fill="white"/>
<path d="M135.017 24.723L134.906 24.3809L134.794 24.723H134.433L134.725 24.9346L134.613 25.2768L134.906 25.0651L135.198 25.2768L135.086 24.9346L135.379 24.723H135.017Z" fill="white"/>
<path d="M135.639 19.2047L135.932 18.9931L136.224 19.2047L136.112 18.8626L136.405 18.651H136.043L135.932 18.3088L135.82 18.651H135.458L135.751 18.8626L135.639 19.2047Z" fill="white"/>
<path d="M135.932 20.0425L135.82 20.3846H135.459L135.751 20.5963L135.64 20.9384L135.932 20.7268L136.225 20.9384L136.113 20.5963L136.405 20.3846H136.044L135.932 20.0425Z" fill="white"/>
<path d="M135.932 21.7788L135.82 22.1209H135.459L135.751 22.3326L135.64 22.6747L135.932 22.4631L136.225 22.6747L136.113 22.3326L136.405 22.1209H136.044L135.932 21.7788Z" fill="white"/>
<path d="M135.932 23.5132L135.82 23.8553H135.459L135.751 24.067L135.64 24.4091L135.932 24.1975L136.225 24.4091L136.113 24.067L136.405 23.8553H136.044L135.932 23.5132Z" fill="white"/>
<path d="M136.044 25.5897L135.932 25.2476L135.82 25.5897H135.459L135.751 25.8013L135.64 26.144L135.932 25.9324L136.225 26.144L136.113 25.8013L136.405 25.5897H136.044Z" fill="white"/>
<path d="M149 18H125V34H149V18Z" fill="#00A99D"/>
<path d="M130.477 26.7839C130.477 26.2505 130.477 25.7119 130.477 25.1785C130.509 25.0132 130.531 24.8425 130.568 24.6772C131.043 22.4639 132.301 20.8745 134.371 19.9465C135.128 19.6052 135.928 19.4185 136.771 19.4452C137.123 19.4559 137.48 19.4239 137.827 19.4665C139.336 19.6532 140.643 20.2825 141.688 21.3919C143.187 22.9759 143.747 24.8745 143.437 27.0185C143.192 28.7252 142.376 30.1279 141.011 31.1839C139.395 32.4319 137.56 32.8159 135.565 32.4052C133.075 31.8932 131.085 29.8879 130.584 27.3919C130.547 27.1892 130.515 26.9865 130.477 26.7839ZM133.384 25.6852C133.448 24.6719 133.699 23.7119 134.04 22.7679C133.512 22.5332 133.005 22.2825 132.541 21.9572C131.603 23.0292 131.133 24.2719 131.064 25.6852C131.837 25.6852 132.605 25.6852 133.384 25.6852ZM139.928 22.7732C140.269 23.7225 140.52 24.6825 140.584 25.6852C141.363 25.6852 142.136 25.6852 142.909 25.6852C142.835 24.2719 142.365 23.0239 141.427 21.9625C140.957 22.2932 140.451 22.5385 139.928 22.7732ZM134.013 29.1999C133.869 28.7092 133.72 28.2345 133.597 27.7545C133.469 27.2745 133.405 26.7785 133.384 26.2772C132.605 26.2772 131.837 26.2772 131.059 26.2772C131.128 27.6905 131.603 28.9385 132.541 30.0052C133.011 29.6692 133.512 29.4239 134.013 29.1999ZM141.427 30.0052C141.923 29.4505 142.296 28.8265 142.547 28.1332C142.765 27.5359 142.883 26.9172 142.909 26.2772C142.131 26.2772 141.363 26.2772 140.584 26.2772C140.541 27.2905 140.28 28.2505 139.928 29.1945C140.451 29.4239 140.957 29.6745 141.427 30.0052ZM139.405 28.9972C139.731 28.1119 139.955 27.2159 140.003 26.2772C139.091 26.2772 138.184 26.2772 137.277 26.2772C137.277 27.0079 137.277 27.7279 137.277 28.4585C138.019 28.5119 138.717 28.7145 139.405 28.9972ZM139.395 22.9705C138.712 23.2532 138.013 23.4559 137.277 23.5092C137.277 24.2452 137.277 24.9652 137.277 25.6852C138.189 25.6852 139.096 25.6852 139.997 25.6852C139.992 24.9545 139.656 23.4239 139.395 22.9705ZM133.96 26.2772C134.008 27.2212 134.232 28.1172 134.557 29.0025C135.245 28.7199 135.944 28.5172 136.685 28.4585C136.685 27.7279 136.685 27.0025 136.685 26.2772C135.779 26.2772 134.877 26.2772 133.96 26.2772ZM133.96 25.6852C134.877 25.6852 135.779 25.6852 136.685 25.6852C136.685 24.9599 136.685 24.2345 136.685 23.5092C135.944 23.4559 135.245 23.2532 134.557 22.9705C134.227 23.8452 134.003 24.7412 133.96 25.6852ZM139.224 22.4852C139.219 22.4639 139.219 22.4532 139.213 22.4479C138.867 21.6159 138.419 20.8425 137.896 20.1119C137.88 20.0959 137.864 20.0692 137.843 20.0692C137.656 20.0425 137.464 20.0212 137.272 19.9999C137.272 20.9865 137.272 21.9412 137.272 22.9119C137.949 22.8639 138.595 22.7092 139.224 22.4852ZM137.277 29.0665C137.277 30.0265 137.277 30.9865 137.277 31.9625C137.448 31.9465 137.608 31.9252 137.768 31.9145C137.837 31.9092 137.885 31.8772 137.923 31.8239C138.44 31.1092 138.856 30.3359 139.187 29.5199C139.192 29.5039 139.197 29.4825 139.203 29.4612C138.771 29.2745 137.603 29.0345 137.277 29.0665ZM136.691 19.9945C136.515 20.0105 136.349 20.0319 136.184 20.0425C136.12 20.0479 136.077 20.0745 136.045 20.1279C135.763 20.5865 135.464 21.0399 135.192 21.5092C135.016 21.8132 134.877 22.1439 134.723 22.4639C135.075 22.6505 136.387 22.9332 136.685 22.8905C136.691 21.9359 136.691 20.9812 136.691 19.9945ZM136.685 31.9679C136.685 30.9812 136.685 30.0265 136.685 29.0559C136.019 29.0985 135.379 29.2372 134.76 29.4559C134.76 29.4719 134.755 29.4719 134.755 29.4772C135.091 30.3252 135.523 31.1252 136.067 31.8559C136.083 31.8719 136.104 31.8985 136.12 31.8985C136.307 31.9252 136.493 31.9465 136.685 31.9679ZM139.731 29.6852C139.571 30.0372 139.427 30.3839 139.251 30.7145C139.075 31.0505 138.867 31.3652 138.669 31.7012C139.565 31.4825 140.339 31.0399 141.021 30.4105C140.611 30.1119 140.184 29.8772 139.731 29.6852ZM132.947 30.4159C133.629 31.0399 134.403 31.4825 135.325 31.7065C134.861 31.0719 134.515 30.3945 134.248 29.6852C133.949 29.7759 133.176 30.2132 132.947 30.4159ZM134.232 22.2665C134.52 21.5519 134.872 20.8799 135.325 20.2345C134.408 20.4799 133.629 20.9225 132.941 21.5519C133.352 21.8452 133.779 22.0745 134.232 22.2665ZM138.637 20.2399C139.096 20.8799 139.448 21.5572 139.736 22.2719C140.195 22.0745 140.621 21.8452 141.021 21.5572C140.333 20.9225 139.555 20.4799 138.637 20.2399Z" fill="white"/>
</g>
<g clip-path="url(#clip4)">
<path d="M70.1714 99.0264C70.1714 99.0264 15.8485 81.3804 15.8485 81.5937C15.8485 81.8136 6.06817 111.708 6.06817 111.708L1.53082 127.055L40.8171 140.229L56.1043 144.314L63.4445 118.132L70.1714 99.0264Z" fill="white"/>
<path d="M3.85939 122.344C4.96075 119.458 7.20964 117.566 10.2961 117.306C13.7254 117.013 17.1285 118.658 20.1424 120.098C23.6443 121.771 26.9813 123.743 30.3184 125.709C37.8499 130.154 45.7572 134.659 54.7264 134.659C55.1089 134.659 55.3793 134.799 55.5904 134.999C56.5994 134.759 57.8458 135.958 57.1666 137.191C56.817 137.831 56.5071 138.49 56.2301 139.163C56.6126 139.377 56.8764 139.783 56.8302 140.39C56.7247 141.769 56.2301 142.835 55.1749 143.735C54.9375 143.935 54.6671 144.022 54.3967 144.055C53.8361 144.461 52.9985 144.381 52.5105 143.855C51.2904 142.535 49.246 142.322 47.6038 141.849C45.5858 141.263 43.6007 140.563 41.6222 139.837C37.7971 138.43 33.9852 136.998 30.1206 135.692C22.3121 133.046 14.3915 130.734 6.38527 128.768C5.15201 128.468 3.37796 128.395 2.98226 126.922C2.64592 125.602 3.39115 123.57 3.85939 122.344Z" fill="#01A095"/>
<path d="M35.2053 109.589C35.6933 108.816 36.5968 108.542 37.4608 108.662C37.6191 108.682 37.7773 108.716 37.9356 108.729C37.995 108.736 38.1071 108.756 38.1466 108.776C38.2126 108.762 38.239 108.716 38.3049 108.649C38.4302 108.522 38.5621 108.402 38.7072 108.296C39.3601 107.783 40.1054 107.469 40.9297 107.396C42.618 107.236 44.0689 108.076 44.9724 109.489C45.3681 110.102 45.6254 110.808 45.7968 111.508C45.876 111.835 45.9353 112.161 46.0079 112.488C46.0408 112.634 46.0804 112.787 46.12 112.934C46.12 112.927 46.1464 113.014 46.1595 113.054C46.1793 113.094 46.2255 113.207 46.2387 113.221C46.3442 113.441 46.4168 113.434 46.6476 113.7C47.0631 114.187 47.2081 114.853 46.9971 115.46C46.7663 116.133 46.1661 116.793 45.6583 117.266C45.0582 117.826 44.3064 118.199 43.482 118.225C42.3674 118.265 41.7937 117.346 41.6288 116.346C41.5892 116.093 41.5694 115.826 41.5035 115.573C41.4969 115.546 41.4837 115.506 41.4771 115.506C41.332 115.36 41.1869 115.22 41.0352 115.08C40.4879 114.587 39.9009 114.127 39.2678 113.747C38.694 113.407 38.1401 113.241 37.4674 113.274C37.3091 113.281 37.164 113.234 37.0123 113.207C36.7353 113.521 36.3528 113.72 35.9175 113.7C35.1591 113.667 34.526 112.987 34.5656 112.214C34.6117 111.375 34.7436 110.328 35.2053 109.589Z" fill="#FBB03B"/>
<path d="M22.9582 79.8083C25.2203 77.1028 28.9399 77.1095 32.0857 77.9425C33.1673 78.229 34.2752 78.6688 35.2908 79.2352C35.581 79.2752 35.8712 79.3952 36.1218 79.6817C36.1614 79.7284 36.1877 79.775 36.2273 79.8216C36.4515 79.9749 36.6758 80.1282 36.8802 80.2948C38.2454 81.4543 38.5817 83.1136 38.6213 84.8328C38.6345 85.2726 38.6213 85.7124 38.5949 86.1523C38.6345 87.4384 38.4498 88.7378 37.9882 89.9706C37.8101 90.4504 37.4804 90.717 37.1176 90.8369C37.0649 90.9968 37.0121 91.1501 36.9528 91.31C35.7393 94.2088 32.5341 95.7348 29.507 95.295C27.8187 95.0484 26.2425 94.3554 24.8576 93.3558C23.5452 92.4029 22.1537 91.1768 21.5337 89.6241C20.894 88.0248 20.8808 86.1323 21.0985 84.4463C21.3227 82.7537 21.8569 81.1211 22.9582 79.8083Z" fill="#01A095"/>
<path d="M6.85332 103.552C9.68256 95.8614 12.3667 88.1912 14.5958 80.3012C14.9585 79.0084 16.4886 79.135 17.0887 79.988C18.4473 80.3678 19.7993 80.7743 21.1512 81.1808C22.3317 77.709 26.1898 75.9164 29.7841 76.003C31.9604 76.0563 34.3148 76.5628 36.3197 77.4357C38.3509 78.322 39.9271 79.7348 40.6526 81.8872C41.2198 83.5732 41.2659 85.4124 40.9296 87.1983C50.9605 90.417 60.9387 93.8222 70.8246 97.4873C71.2665 97.6539 71.5303 97.9605 71.6556 98.307C71.9655 98.6202 72.1172 99.0733 71.893 99.6331C65.9311 114.08 61.2025 129.014 57.7534 144.274C57.8721 145.187 57.1202 146.267 55.9595 145.94C37.4606 140.809 19.1464 135.032 1.03654 128.628C1.00357 128.614 0.983782 128.588 0.950808 128.574C0.278124 128.361 -0.229689 127.715 0.106653 126.855C3.08759 119.311 4.05704 111.175 6.85332 103.552ZM38.2586 84.2329C38.1333 82.7135 37.5332 81.4141 36.234 80.5877C34.9018 79.7414 33.2135 79.3349 31.6768 79.0684C28.6827 78.5419 23.8618 79.1284 23.6243 83.0867C23.598 83.5132 23.4199 83.8197 23.1693 84.0396C23.1495 84.1463 23.1561 84.2462 23.1099 84.3595C22.4504 85.9921 21.6261 87.8314 22.0416 89.6373C22.3977 91.19 23.9541 92.1829 25.2467 92.9093C28.076 94.5019 31.4658 94.6285 34.2291 92.836C37.0188 91.0234 38.5224 87.5448 38.2586 84.2329ZM40.0986 89.9438C39.4061 91.5565 38.3971 93.0225 37.1638 94.1421C33.8927 97.1075 29.2565 97.7872 25.2335 96.0613C23.077 95.135 20.617 93.629 19.641 91.3632C18.5726 88.8843 19.3178 86.272 20.2543 83.893C19.1002 83.5465 17.9395 83.2 16.7788 82.8735C14.7277 89.8905 12.3469 96.7543 9.83424 103.618C10.6982 103.225 11.5753 102.838 12.4525 102.479C13.3494 102.105 14.365 101.532 15.3608 101.785C16.3633 102.039 17.0492 102.898 17.6427 103.698C19.7993 106.597 21.0325 110.155 22.4175 113.487C26.1107 111.748 29.8038 110.002 33.497 108.263C36.9198 106.65 42.1958 102.758 45.4801 106.55C46.8914 108.183 47.7818 110.422 48.6391 112.381C49.5954 114.58 50.4198 116.846 51.0924 119.152C52.418 123.663 52.6225 128.688 55.0824 132.779C55.1681 132.926 55.2011 133.066 55.2341 133.206C56.0914 133.352 56.962 133.426 57.4698 133.126C57.5225 133.092 57.5687 133.099 57.6215 133.072C60.642 121.744 64.3615 110.628 68.7868 99.7864C59.2966 96.2878 49.7273 93.0292 40.0986 89.9438ZM35.8976 113.181C35.6536 113.201 36.2076 113.068 36.2801 113.048C37.0253 112.788 37.7046 112.421 38.5026 112.354C39.4787 112.268 40.4086 112.641 41.0813 113.367C41.7012 114.04 42.0441 114.94 42.2288 115.826C42.3277 116.293 42.3805 116.773 42.4992 117.232C42.4926 117.219 42.6047 117.559 42.6575 117.706C43.1521 117.526 44.4183 116.853 44.5172 116.786C45.2757 116.246 45.955 115.586 46.6276 114.947C46.0341 113.474 45.3944 112.015 44.6623 110.602C44.2073 109.716 43.7456 108.536 42.8553 108.016C41.7605 107.377 40.5866 108.076 39.5446 108.563C38.0344 109.269 36.5241 109.982 35.0205 110.695C35.0732 111.348 35.2117 111.995 35.5019 112.594C35.5942 112.781 35.6866 112.994 35.8251 113.154C35.8119 113.134 35.6932 113.194 35.8976 113.181ZM47.696 117.826C46.3045 119.092 44.7151 120.304 42.8421 120.564C41.5495 120.744 40.5932 120.018 40.0722 118.858C39.6238 117.852 39.7029 116.686 39.2479 115.706C38.9247 115.02 38.6279 115.173 37.9882 115.42C37.0649 115.78 36.1878 116.166 35.1853 115.94C33.497 115.553 32.6595 113.72 32.3231 111.961C28.3793 113.82 24.4421 115.68 20.4983 117.539C23.3012 118.785 25.9788 120.471 28.3727 122.197C32.6001 125.249 36.6956 128.348 41.6418 130.127C44.1677 131.033 46.7859 131.68 49.4173 132.18C50.2021 132.326 50.9935 132.446 51.7783 132.566C50.3538 129.487 49.8922 126.082 49.1205 122.77C48.738 121.091 48.2434 119.445 47.696 117.826ZM3.28543 126.395C20.4126 132.419 37.731 137.877 55.2077 142.768C55.7155 140.556 56.2563 138.357 56.8169 136.158C55.2934 136.218 53.5985 135.738 52.2466 135.531C49.9053 135.172 47.5641 134.752 45.2625 134.179C40.2833 132.946 35.7327 130.88 31.5054 127.955C24.4883 123.103 14.1935 113.887 5.40242 120.358C5.2969 120.431 5.19138 120.491 5.08586 120.538C4.55827 122.51 3.97791 124.469 3.28543 126.395ZM6.06851 116.753C9.79468 115.033 13.7385 115.227 17.5504 116.419C17.6031 116.026 17.8142 115.653 18.2824 115.433C18.81 115.187 19.3376 114.933 19.8652 114.687C18.7045 111.888 17.6427 108.963 16.0665 106.39C15.9016 106.117 15.7302 105.857 15.5389 105.597C15.3345 105.324 14.9124 104.991 14.7871 104.684C14.7739 104.644 14.7541 104.624 14.7409 104.611C14.5892 104.651 14.4178 104.744 14.2925 104.798C13.8836 104.964 13.4747 105.131 13.0658 105.304C11.5358 105.951 10.0321 106.657 8.54163 107.396C7.59196 110.475 6.84013 113.621 6.06851 116.753Z" fill="#1E1E1E"/>
<path d="M26.9348 81.6208C27.746 81.4742 28.3791 81.9473 28.6231 82.707C28.9661 83.7932 29.3024 84.8794 29.6453 85.959C29.7179 86.1855 29.7904 86.4188 29.863 86.6453C29.8894 86.732 29.9223 86.8186 29.9487 86.9052C29.9619 86.9252 30.041 87.1451 30.041 87.1518C30.107 87.3117 30.1795 87.465 30.2521 87.6116C30.384 87.5649 30.5159 87.5249 30.6478 87.4783L31.703 87.1185C32.4548 86.8586 33.2132 86.5987 33.9651 86.3455C34.6707 86.1056 35.5281 86.732 35.6534 87.4316C35.7985 88.2646 35.3302 88.8777 34.5784 89.1376L31.4128 90.2238C30.872 90.4104 30.3048 90.6902 29.7311 90.7036C28.8803 90.7236 28.3791 90.0372 27.9834 89.3841C27.4492 88.5045 27.1722 87.485 26.8623 86.512C26.5325 85.4525 26.1962 84.393 25.8664 83.3334C25.6356 82.6137 26.2291 81.7474 26.9348 81.6208Z" fill="#1E1E1E"/>
<path d="M54.1594 98.9131C55.5509 98.0668 57.1271 98.1534 58.611 98.6799C59.9828 99.1597 61.3809 99.8927 62.0272 101.292C62.0338 101.305 62.0338 101.325 62.0404 101.339C62.2119 101.419 62.3702 101.532 62.4889 101.685C64.0848 103.758 63.4517 106.85 62.2251 108.962C61.6117 110.022 60.6621 110.921 59.5211 111.361C58.2549 111.848 56.9095 111.794 55.6301 111.394C53.157 110.635 50.7036 108.876 50.4003 106.103C50.0969 103.278 51.7786 100.359 54.1594 98.9131ZM53.1833 105.177C53.157 105.677 53.1833 105.73 53.2955 106.237C53.3482 106.477 53.5263 106.816 53.7175 107.05C54.0209 107.409 54.2847 107.576 54.72 107.849C54.898 107.963 55.0761 108.063 55.2608 108.169C55.3531 108.216 55.4454 108.269 55.5378 108.316C55.3597 108.222 55.7686 108.422 55.762 108.416C56.1445 108.576 56.5336 108.709 56.9359 108.809C56.9755 108.822 56.9952 108.822 57.0216 108.829C57.0282 108.829 57.048 108.829 57.0876 108.836C57.1865 108.849 57.2854 108.856 57.3843 108.862C57.4833 108.869 57.5822 108.876 57.6811 108.876C57.7405 108.876 57.8064 108.876 57.8658 108.869C57.879 108.869 57.879 108.869 57.9119 108.862C58.3538 108.796 58.4593 108.756 58.8682 108.522C58.8814 108.516 58.9276 108.482 58.954 108.462C59.0133 108.416 59.0727 108.369 59.1254 108.322C59.198 108.262 59.2573 108.196 59.3299 108.129C59.376 108.089 59.3958 108.076 59.409 108.069C59.4156 108.056 59.4222 108.043 59.4618 107.989C60.0685 107.176 60.2532 106.63 60.5038 105.577C60.5104 105.564 60.517 105.504 60.5236 105.47C60.5433 105.344 60.5631 105.21 60.5763 105.084C60.5961 104.857 60.6093 104.637 60.6027 104.411C60.6027 104.364 60.6027 104.344 60.6093 104.344C60.6027 104.317 60.6027 104.304 60.5961 104.264C60.5763 104.144 60.5565 104.024 60.5236 103.911C60.5104 103.864 60.517 103.858 60.517 103.858C60.5038 103.838 60.4972 103.831 60.4774 103.784C60.451 103.738 60.2466 103.431 60.3785 103.598C60.2861 103.478 60.2334 103.351 60.174 103.218C59.8904 103.091 59.6398 102.891 59.5013 102.598C59.3431 102.258 59.2771 102.192 58.9803 101.992C58.8221 101.885 58.6572 101.792 58.4857 101.699C58.4659 101.692 58.4593 101.685 58.4264 101.672C58.2945 101.619 58.156 101.559 58.0241 101.505C57.8196 101.425 57.6152 101.359 57.4107 101.292C57.3448 101.272 56.8897 101.145 56.9689 101.159C56.7842 101.119 56.4413 101.099 56.3292 101.112C56.4479 101.099 56.1511 101.145 56.1313 101.152C56.0588 101.165 55.9928 101.185 55.9269 101.205C55.9203 101.212 55.9203 101.205 55.9071 101.212C55.1816 101.519 54.6276 102.092 54.1528 102.745C53.6186 103.504 53.2295 104.357 53.1833 105.177Z" fill="#1E1E1E"/>
</g>
<defs>
<clipPath id="clip0">
<rect width="58" height="32" fill="white" transform="translate(67 33)"/>
</clipPath>
<clipPath id="clip1">
<rect width="60" height="32" fill="white" transform="translate(0 33)"/>
</clipPath>
<clipPath id="clip2">
<rect width="25" height="25" fill="white"/>
</clipPath>
<clipPath id="clip3">
<rect width="14" height="11" fill="white" transform="translate(72 76)"/>
</clipPath>
<clipPath id="clip4">
<rect width="72" height="70" fill="white" transform="translate(0 76)"/>
</clipPath>
</defs>
</svg>
