<svg width="396" height="390" viewBox="0 0 396 390" fill="none" xmlns="http://www.w3.org/2000/svg">
<path d="M315.258 38.6184C356.007 57.5036 394.352 90.2298 395.948 127.203C397.543 164.177 362.389 205.417 345.08 250.643C327.508 295.596 327.508 344.282 304.604 368.494C281.437 392.705 235.094 392.171 192.224 387.379C149.617 382.325 110.202 373.013 76.1181 352.534C41.762 332.055 12.4754 300.398 3.41679 264.212C-5.90442 227.763 5.28507 186.794 19.6658 148.489C34.3091 110.184 52.1537 74.5325 80.9151 51.6524C109.676 28.7723 149.092 18.6639 190.366 16.5353C231.64 14.1444 274.519 19.4609 315.258 38.6184Z" fill="#01A095"/>
<path d="M300.856 107.042C311.958 128.774 317.386 155.656 305.66 172.087C293.934 188.517 265.047 194.506 242.461 208.17C219.853 221.629 203.513 242.563 185.585 245.322C167.544 247.993 147.889 232.282 131.149 215.9C114.61 199.493 100.866 182.322 93.1519 162.131C85.321 141.848 83.4113 118.453 91.6791 99.8671C99.9226 81.081 118.461 67.2035 137.472 55.5373C156.595 43.9587 176.197 34.5904 196.186 34.3605C216.175 34.1307 236.436 42.9516 254.816 55.8245C273.283 68.5845 289.85 85.195 300.856 107.042Z" fill="#00A99D"/>
</svg>
