<svg width="113" height="9" viewBox="0 0 113 9" fill="none" xmlns="http://www.w3.org/2000/svg">
<path d="M1.8982 2.18686C16.0695 0.468972 30.356 0.29451 44.6091 0.509872C58.8964 0.734416 73.1829 1.34795 87.4777 1.19018C95.4653 1.10754 103.453 0.766968 111.407 0.00402045C111.979 -0.054411 112.467 0.534914 112.467 1.06581C112.467 1.68852 111.979 2.07 111.407 2.12843C97.1949 3.50574 82.8917 3.47318 68.6302 3.17435C54.3521 2.87551 40.0648 2.31958 25.7866 2.66767C17.8074 2.85882 9.83653 3.34797 1.90655 4.31125C1.33559 4.3772 0.847273 3.77119 0.847273 3.24864C0.838926 2.61842 1.32724 2.26115 1.8982 2.18686Z" fill="#1E1E1E"/>
<path d="M74.2415 6.24451H94.1407C95.5064 6.24451 95.5064 8.36973 94.1407 8.36973H74.2415C72.8759 8.36973 72.8759 6.24451 74.2415 6.24451Z" fill="#1E1E1E"/>
</svg>
