<svg width="240" height="106" viewBox="0 0 240 106" fill="none" xmlns="http://www.w3.org/2000/svg">
<path d="M16.6367 91.07L23.6367 87.57L24.6367 90.57L24.1367 94.07V96.57L17.1367 97.07L11.1367 98.57L5.13672 101.57L2.13672 103.57V100.07L5.13672 95.07L8.13672 93.07L16.6367 91.07Z" fill="white"/>
<path d="M100.444 50.537C100.553 51.237 100.71 51.919 100.915 52.572V52.582C100.915 52.582 100.915 52.582 100.921 52.588C101.535 54.568 102.544 56.352 103.693 58.141C105.697 61.265 110.57 57.981 108.572 54.863C107.639 53.412 106.54 51.87 106.274 50.121C106.11 49.033 105.512 48.096 104.579 47.674L104.573 47.669C104.172 47.482 103.715 47.4 103.208 47.44C101.74 47.544 100.206 48.993 100.444 50.537Z" fill="#FBB03B"/>
<path d="M177.614 10.117C179.146 8.59298 181.055 7.40199 183.609 7.40099C186.309 7.39999 188.375 9.09298 191.103 8.62698C193.395 8.23398 195.534 10.509 195.661 12.652C195.817 15.179 193.927 16.829 191.624 17.222C190.091 17.486 188.483 17.449 186.957 17.112C186.047 16.91 184.694 16.042 183.725 15.995C183.419 16.422 182.079 17.853 182.011 17.904C181.19 18.457 180.143 18.725 179.15 18.613C177.801 20.434 174.741 20.339 173.15 18.976C171.215 17.311 171.396 14.838 172.704 12.905C173.965 11.054 175.7 10.329 177.614 10.117Z" fill="#FBB03B"/>
<path d="M140.003 27.667L139.998 27.673C139.824 27.993 139.661 28.312 139.499 28.642C139.695 28.679 139.891 28.726 140.087 28.763C140.953 28.944 141.824 29.12 142.69 29.312C143.617 29.518 144.538 29.752 145.436 30.067C146.218 30.338 146.996 30.668 147.667 31.159C148.198 31.552 148.659 32.088 148.799 32.754C148.964 33.528 148.681 34.3 148.274 34.947C147.991 35.406 147.632 35.868 147.125 36.085C146.677 36.284 146.182 36.199 145.769 35.969C145.207 35.664 144.841 35.206 144.426 34.744C144.23 34.518 143.995 34.299 143.68 34.256C143.333 34.213 142.945 34.27 142.6 34.314C141.824 34.406 141.061 34.573 140.304 34.745C139.691 34.885 139.073 34.998 138.472 35.17C137.856 35.348 137.219 35.581 136.564 35.712C136.548 35.75 136.523 35.789 136.508 35.827C135.608 37.649 134.598 39.421 134.95 40.956C134.968 41.026 134.981 41.09 135.005 41.154C135.041 41.283 135.089 41.411 135.152 41.533C135.39 42.028 135.81 42.495 136.457 42.922C136.771 43.122 137.102 43.306 137.442 43.457C141.888 45.457 146.769 46.691 151.591 47.272C153.905 47.55 156.175 46.298 156.656 43.874C156.791 43.193 156.73 42.465 156.519 41.785C156.583 41.593 156.637 41.402 156.679 41.211C156.708 41.102 156.726 40.982 156.75 40.868C156.772 40.721 156.784 40.574 156.79 40.423C156.804 40.352 156.801 40.276 156.804 40.195C156.806 40.092 156.803 39.995 156.8 39.898C156.798 39.843 156.797 39.789 156.79 39.741C156.779 39.584 156.764 39.433 156.737 39.283C156.717 39.159 156.691 39.03 156.655 38.912C156.617 38.73 156.563 38.553 156.492 38.382C156.487 38.377 156.492 38.372 156.486 38.366C156.439 38.249 156.382 38.132 156.324 38.015C156.306 37.967 156.288 37.919 156.265 37.876C156.259 37.86 156.253 37.844 156.242 37.834C154.927 35.428 153.607 33.028 152.286 30.617C151.16 28.567 150.169 25.95 148.298 24.45C147.954 24.17 147.584 23.939 147.199 23.757C147.062 23.703 146.92 23.653 146.778 23.615C146.658 23.576 146.532 23.542 146.413 23.514C146.249 23.476 146.091 23.444 145.934 23.422C145.809 23.41 145.7 23.403 145.592 23.396C145.462 23.39 145.337 23.388 145.213 23.387C145.094 23.391 144.97 23.401 144.851 23.416C144.598 23.441 144.361 23.492 144.126 23.565C144.029 23.601 143.928 23.632 143.826 23.673C143.714 23.715 143.607 23.762 143.506 23.814C143.25 23.931 143.001 24.085 142.762 24.251L142.757 24.256C141.668 25.04 140.76 26.278 140.003 27.667Z" fill="#00A99D"/>
<path d="M29.7707 13.444C29.9937 14.335 30.4537 15.185 31.0477 15.835C34.3947 19.535 36.0797 24.206 36.8287 29.071C37.3307 32.289 37.8167 35.503 38.3677 38.703C38.3687 38.725 38.3747 38.741 38.3747 38.762C38.7457 40.925 39.1497 43.086 39.6027 45.24C40.5637 49.79 41.7027 54.306 43.0177 58.768C43.5747 60.653 44.1637 62.673 44.8807 64.645L44.8867 64.65C45.8237 67.247 46.9917 69.777 48.5827 71.854C49.1077 72.534 49.6867 73.077 50.3117 73.505L50.3177 73.51C52.6127 75.071 55.4837 75.042 58.2367 74.315C58.2417 74.309 58.2477 74.315 58.2527 74.309C58.2587 74.314 58.2637 74.309 58.2637 74.309C59.4817 73.991 60.6847 73.533 61.7937 73.019C65.8457 71.148 69.7407 68.575 73.1827 65.735C73.9527 65.103 74.6947 64.444 75.3817 63.766L75.3876 63.76C75.3927 63.755 75.3927 63.755 75.3977 63.749C75.8327 63.307 76.2627 62.859 76.6587 62.402C77.2747 61.699 77.8417 60.96 78.3577 60.185C77.5126 60.16 76.6347 60.449 75.8477 60.72C74.8367 61.063 73.8277 61.482 72.7617 61.659C71.1736 61.914 69.5677 62.099 67.9727 62.316C66.3837 62.527 64.8067 62.792 63.2087 62.89C60.1307 63.083 57.0237 63.027 53.9477 62.916C52.4857 62.869 51.0227 62.789 49.5717 62.585C48.3597 62.415 47.0507 62.092 46.0687 61.32C45.2527 60.672 44.8857 59.656 44.7297 58.661C44.5927 57.756 44.6877 56.828 44.9357 55.948C45.4617 54.101 46.5457 52.474 47.5937 50.885C48.1097 50.099 48.6307 49.307 49.0867 48.475C49.2867 48.116 49.4637 47.747 49.6197 47.369C49.8607 46.776 50.2117 46.255 50.5797 45.74C51.4757 44.492 52.2897 43.208 53.0977 41.898C53.6997 40.909 54.3167 39.903 55.0727 39.017L55.0777 39.012C55.2967 38.744 55.5377 38.487 55.7897 38.251C56.6927 37.387 57.7587 36.696 58.8477 36.058L58.8527 36.052C59.0757 35.915 59.3037 35.782 59.5327 35.65C60.8237 34.897 62.1547 34.213 63.4107 33.407C64.4927 32.721 65.7067 31.938 66.3517 30.79C66.3827 30.746 66.4026 30.702 66.4286 30.652C66.9327 29.666 67.0056 28.539 67.0787 27.454C67.1487 26.407 67.2117 25.334 67.5747 24.342C67.7787 23.767 68.0787 23.178 68.4967 22.709L68.5017 22.703C68.7317 22.436 68.9947 22.21 69.2927 22.038C70.2017 21.525 71.1137 21.791 71.9317 22.337C73.0197 23.062 73.8537 24.116 74.7027 25.098C75.4207 25.929 76.2637 26.738 76.8187 27.688C77.0647 28.107 77.2527 28.576 77.1817 29.066C77.1107 29.555 76.8157 29.993 76.5087 30.366C76.1487 30.795 75.7277 31.177 75.3187 31.559C74.8557 31.997 74.4157 32.456 73.9377 32.878C72.7117 33.975 71.4067 34.967 70.1527 36.027C68.9567 37.047 67.8847 38.193 66.8897 39.401C66.4057 39.997 65.9327 40.603 65.4757 41.214C65.1117 41.692 64.7817 42.201 64.3847 42.647C63.8007 43.327 63.1716 43.966 62.6646 44.708C62.4996 44.952 62.2347 45.313 62.2717 45.62C62.3157 45.975 62.7107 45.978 62.9857 45.952C63.4227 45.91 63.8507 45.766 64.2687 45.632C64.7297 45.487 65.1907 45.363 65.6627 45.238C67.1597 44.857 68.6567 44.454 70.1227 43.96C71.6437 43.453 73.1007 42.824 74.5507 42.147C76.0167 41.463 77.4877 40.775 78.9367 40.054C80.3527 39.345 81.7577 38.604 83.1287 37.811C83.6707 37.5 84.1957 37.174 84.7157 36.842C84.7207 36.836 84.7257 36.842 84.7317 36.836C84.7317 36.836 84.7317 36.836 84.7367 36.83C85.5427 36.327 86.3377 35.802 87.1497 35.292C88.1576 34.662 89.2217 34.106 90.3687 33.753C91.3807 33.443 92.4377 33.32 93.4917 33.311C94.6567 33.173 95.8636 33.191 97.0576 33.167C98.4586 33.135 99.8617 33.033 101.21 32.543C102.504 32.076 103.465 30.983 103.902 29.734C104.273 28.666 104.263 27.482 103.744 26.472C103.559 26.11 103.311 25.772 102.987 25.47C103.229 25.234 103.583 24.968 103.641 24.917C105.082 23.802 106.837 23 108.41 22.113C112.167 19.977 115.925 17.851 119.677 15.721C119.985 15.548 120.254 15.327 120.484 15.081C120.462 15.082 120.436 15.089 120.414 15.089C120.165 15.098 120.137 14.704 120.385 14.695C120.531 14.685 120.671 14.68 120.817 14.67C120.905 14.531 120.987 14.399 121.064 14.261C121.069 14.255 121.069 14.244 121.074 14.239C121.096 14.238 121.122 14.232 121.144 14.231L121.149 14.225C123.648 13.858 126.147 13.323 128.655 12.566C129.614 12.279 130.572 11.949 131.529 11.608C132.451 11.148 133.366 10.663 134.275 10.171C135.435 9.54698 136.584 8.92398 137.738 8.29398C138.727 7.75198 139.722 7.22498 140.769 6.80998C140.78 6.80998 140.796 6.80398 140.812 6.79798C141.041 6.69798 141.266 6.61498 141.507 6.53598C141.882 6.41498 142.257 6.30498 142.638 6.20998C142.649 6.20998 142.654 6.20398 142.665 6.20398C144.538 5.73398 146.508 5.58498 148.413 5.60598C150.259 5.63498 152.17 5.83998 153.956 6.37898C153.921 6.31498 153.887 6.26198 153.853 6.20898L153.848 6.20398C153.836 6.17198 153.819 6.14498 153.802 6.11898C153.75 6.03998 153.699 5.95998 153.643 5.88598C150.974 1.90898 146.275 0.111984 141.592 0.174984C141.392 0.175984 141.187 0.182978 140.992 0.200978C140.982 0.200978 140.982 0.200985 140.971 0.201985C136.358 0.424985 131.981 2.46398 127.648 3.86198C125.806 4.45498 123.967 4.97898 122.097 5.37798C122.092 5.38398 122.092 5.38398 122.081 5.38398C120.039 5.83298 117.961 6.14198 115.833 6.26898C111.967 6.49898 108.108 6.27398 104.262 5.96798C99.6787 5.59998 95.1786 5.27898 90.6727 5.31998C86.9947 5.34898 83.3137 5.61598 79.5917 6.30598C71.2397 7.85298 62.9897 10.084 54.4207 9.10098C46.5957 8.19598 38.9527 4.82698 31.4627 8.99598C29.6987 9.97898 29.3347 11.787 29.7707 13.444Z" fill="#FBB03B"/>
<path d="M29.5446 13.495C29.5716 13.499 29.5986 13.493 29.6256 13.497C29.6366 13.497 29.6476 13.496 29.6576 13.496C29.6896 13.473 29.7266 13.456 29.7636 13.438C30.9786 12.699 32.4646 12.296 33.8056 11.925C35.6296 11.43 37.5126 11.106 39.3946 10.927C43.1426 10.566 46.9086 10.756 50.6566 11.033C54.6856 11.333 58.7136 11.758 62.7576 11.684C66.6776 11.609 70.5886 11.063 74.4126 10.207C78.6516 9.25499 82.7926 7.96098 86.9036 6.57498C86.9826 6.52398 87.0736 6.47199 87.1796 6.42499C88.3226 5.95299 89.4796 5.58899 90.6666 5.31499C95.1126 4.25299 99.7886 4.46599 104.342 4.91099C110.295 5.50199 116.116 6.16799 122.091 5.37299C122.317 5.35399 122.543 5.32499 122.753 5.29099C125.677 4.84999 128.537 4.09699 131.33 3.12499C133.941 2.21299 136.515 1.15099 139.216 0.521989C139.802 0.387989 140.382 0.270985 140.986 0.195985C145.714 -0.486015 150.251 0.624983 154.324 3.32498C160.066 7.13698 163.686 13.138 167.095 18.961C168.794 18.464 170.397 17.814 171.857 16.958C173.647 15.917 175.244 14.569 176.59 12.819C177.717 11.357 178.727 9.77499 180.409 8.88399C181.914 8.07999 183.425 8.10999 184.997 8.73199C186.641 9.38999 188.221 10.261 190.053 10.203C191.81 10.148 193.174 9.83098 194.687 10.975C194.931 11.161 195.192 11.363 195.432 11.588C196.378 12.432 197.208 13.523 197.226 14.789C197.25 16.373 196.003 17.671 194.689 18.371C193.013 19.256 191.053 19.372 189.209 19.062C188.187 18.892 187.197 18.574 186.218 18.245C185.502 18.005 184.428 17.398 183.563 17.259C182.78 18.498 182.683 20.558 180.971 20.8C180.2 20.908 179.58 20.464 179.077 19.94C179.043 19.909 179.01 19.867 178.97 19.83C178.806 21.134 178.072 22.388 176.557 22.386C175.616 22.385 174.757 21.749 173.98 21.284C173.225 20.839 172.479 20.372 171.745 19.894C170.402 20.535 168.978 21.028 167.525 21.43C167.509 21.457 167.494 21.474 167.473 21.496C166.227 22.984 166.09 24.985 165.688 26.811C165.333 28.409 164.687 29.881 163.987 31.344C166.289 30.919 168.613 30.65 170.952 30.553C171.032 30.523 171.118 30.488 171.22 30.468C171.322 30.448 171.424 30.429 171.532 30.403C171.589 29.996 171.831 29.614 172.334 29.424C173.649 28.946 174.289 27.29 175.278 26.379C176.502 25.25 177.851 25.138 179.44 25.252C181.078 25.369 182.6 25.105 183.994 24.176C185.604 23.092 186.307 21.391 187.218 19.747C188.002 18.352 190.248 19.427 189.465 20.833C188.523 22.521 187.756 24.247 186.276 25.536C184.955 26.691 183.329 27.445 181.601 27.704C179.824 27.971 177.897 27.079 176.576 28.612C176.321 28.919 176.076 29.225 175.837 29.525C182.083 28.25 188.329 26.976 194.581 25.695C198.472 24.901 202.364 24.108 206.261 23.309C208.062 22.938 209.941 22.841 211.679 22.181C211.903 22.098 212.111 21.999 212.336 21.926C212.877 21.751 213.435 21.612 213.97 21.432C214.962 21.133 215.953 20.823 216.944 20.523C218.926 19.914 220.909 19.305 222.896 18.691C224.841 18.088 226.791 17.48 228.747 16.888C230.183 16.449 231.833 15.938 233.08 17.053C234.461 18.294 235.344 20.368 234.932 22.227C234.477 24.256 232.232 25.793 230.216 24.818C229.732 24.586 229.299 24.222 228.766 24.143C228.228 24.059 227.689 24.288 227.199 24.543C224.351 25.999 222.303 28.455 219.552 30.086C217.89 31.069 216.163 31.907 214.386 32.666C214.231 32.731 214.082 32.79 213.932 32.86C213.468 33.054 213.009 33.254 212.545 33.459C211.622 33.864 210.704 34.275 209.775 34.664C209.375 34.834 208.974 35.005 208.568 35.17C204.317 36.896 199.823 37.651 195.456 38.986C187.029 41.574 179.144 45.605 171.347 49.666L171.427 49.793C159.953 54.753 148.191 59.014 136.351 63.035C129.607 65.322 122.86 67.691 115.904 69.256C115.431 69.369 115.026 69.221 114.742 68.955C113.08 69.591 111.399 70.146 109.693 70.616C109.625 70.678 109.545 70.729 109.455 70.781C98.7446 76.656 87.5846 81.627 76.0596 85.659C70.4946 87.603 64.8996 89.634 59.1856 91.113C53.7546 92.511 48.2306 92.825 42.6976 93.572C39.6266 93.981 36.7136 94.746 33.7796 95.713C30.8986 96.655 27.9786 97.562 24.9106 97.532C24.5586 97.528 24.2786 97.402 24.0676 97.215C23.2836 97.404 22.3816 97.44 21.6166 97.531C19.2676 97.828 16.8486 97.998 14.5226 98.494C12.1046 99.01 10.0986 100.237 8.09758 101.647C7.16158 102.313 6.23058 103.005 5.26658 103.633C4.39158 104.199 3.35058 104.965 2.30758 105.163C-0.0324192 105.595 -0.288417 103.131 0.216583 101.485C1.42858 97.575 3.48958 93.641 7.55358 92.138C9.92758 91.256 12.4936 90.973 14.8966 90.139C17.0266 89.395 19.0626 88.437 21.0066 87.31C21.1336 87.052 21.3596 86.833 21.7186 86.718C21.9116 86.657 22.1096 86.591 22.3076 86.524C22.3606 86.49 22.4136 86.456 22.4666 86.421C22.7216 86.261 22.9786 86.198 23.2226 86.217C31.9176 83.343 40.6116 80.459 49.3116 77.579C49.7986 77.416 50.2966 77.253 50.7836 77.09C47.9346 75.441 46.3166 72.028 44.6716 69.282C42.4096 65.507 40.2996 61.581 38.8846 57.404C37.3816 52.987 36.9636 48.348 36.4276 43.735C35.8976 39.138 35.3466 34.542 34.9996 29.917C34.6216 24.811 33.3306 20.111 29.9926 16.189C29.7186 16.236 29.4196 16.209 29.2046 16.081C28.6866 15.795 28.3996 15.421 28.3796 14.816C28.3496 14.201 28.8566 13.459 29.5446 13.495ZM175.663 19.387C176.241 19.719 176.488 19.835 176.521 19.142C176.547 18.61 176.403 18.172 176.538 17.637C176.75 16.829 177.442 16.134 178.306 16.072C179.218 16.003 179.85 16.647 180.305 17.345C180.396 17.483 180.515 17.668 180.601 17.833L180.783 17.405C181.129 16.554 181.457 15.466 182.295 14.95C183.06 14.481 183.931 14.846 184.702 15.095C185.817 15.457 186.908 15.89 188.032 16.22C189.933 16.782 192.712 17.255 194.284 15.632C195.127 14.754 194.424 14.085 193.694 13.412C192.713 12.504 192.016 12.523 190.749 12.648C188.699 12.848 186.792 12.237 184.938 11.435C184.126 11.084 183.277 10.583 182.358 10.771C181.25 10.993 180.414 11.92 179.743 12.76C178.119 14.775 176.676 16.707 174.555 18.246C174.434 18.331 174.312 18.417 174.19 18.502C174.676 18.799 175.167 19.101 175.663 19.387ZM214.925 29.667C218.218 28.072 221.337 26.125 224.152 23.789C225.259 22.874 226.396 21.872 227.846 21.552C228.55 21.392 229.309 21.442 229.973 21.738C230.615 22.025 231.144 22.824 231.862 22.447C232.597 22.076 232.58 21.189 232.363 20.515C232.249 20.156 232.048 19.79 231.817 19.489C231.309 18.825 231.17 18.884 230.409 19.105C229.068 19.486 213.49 24.674 213.138 24.345C213.341 24.755 213.58 25.147 213.733 25.531C214.02 26.198 214.274 26.876 214.474 27.578C214.664 28.269 214.811 28.962 214.925 29.667ZM133.037 61.516C139.096 59.479 145.143 57.389 151.143 55.181C157.202 52.955 163.197 50.563 169.132 48.033C177.259 43.788 185.449 39.509 194.224 36.762C198.579 35.395 203.105 34.661 207.364 32.973C209.319 32.202 211.223 31.32 213.155 30.496C212.13 29.065 211.504 27.209 210.909 25.698C210.815 25.464 210.731 25.207 210.669 24.949C209.943 25.099 209.217 25.237 208.508 25.38C204.449 26.207 200.397 27.039 196.338 27.865C188.367 29.497 180.385 31.129 172.408 32.755C172.229 32.913 171.983 33.018 171.675 33.024C168.762 33.107 165.867 33.439 163.019 34.056C162.568 34.159 162.18 34.026 161.896 33.781C161.135 33.677 160.446 32.917 160.883 32.025C161.965 29.797 162.981 27.717 163.455 25.276C163.786 23.593 164.166 21.935 165.111 20.512C161.547 15.792 157.613 10.62 152.093 8.17999C149.13 6.86399 145.971 7.91398 143.017 8.75598C139.81 9.66698 136.699 10.845 133.594 12.05C127.165 14.538 120.655 16.898 114.413 19.823C111.385 21.236 108.263 22.761 105.545 24.726C104.899 25.192 104.193 25.768 103.739 26.466C103.527 26.781 103.37 27.128 103.295 27.498C103.127 28.326 103.411 29.085 103.896 29.728C104.331 30.292 104.908 30.759 105.471 31.108C110.533 34.283 116.879 32.935 122.487 32.699C123.941 32.633 126.102 33.219 126.745 31.514C126.94 31.004 126.976 30.44 127.008 29.893L127.116 28.179C127.163 27.29 124.829 26.364 124.177 26.1C122.9 25.575 121.543 25.27 120.175 25.122C119.556 25.046 118.933 25.008 118.337 24.818C117.621 24.599 116.782 24.054 116.75 23.227C116.729 22.746 117.012 22.277 117.444 22.073C118.019 21.804 118.425 22.153 118.94 22.341C119.86 22.688 120.736 22.668 121.686 22.771C122.63 22.869 123.543 23.167 124.404 23.543C125.606 24.06 126.73 24.714 127.931 25.219C131.72 26.815 135.967 26.826 139.992 27.667L139.997 27.661C140.514 27.768 141.027 27.891 141.534 28.031C141.534 28.031 142.049 25.681 142.165 25.39C142.32 24.99 142.513 24.605 142.751 24.25L142.756 24.245C143.014 23.846 143.338 23.489 143.707 23.184C144.967 22.161 146.634 21.991 148.039 22.792C149.4 23.573 150.235 25.005 150.901 26.373C151.868 28.379 152.781 30.409 153.722 32.433C154.553 34.228 155.421 36.016 156.236 37.828C156.247 37.838 156.253 37.854 156.259 37.87C156.282 37.913 156.299 37.961 156.317 38.009C156.375 38.126 156.433 38.243 156.48 38.36C156.485 38.366 156.48 38.371 156.486 38.376C156.538 38.488 156.585 38.606 156.637 38.718C157.366 40.386 157.896 42.245 157.483 44.072C156.576 48.047 152.606 48.432 149.266 47.519C144.606 46.24 139.771 44.923 135.444 42.751C134.889 42.472 134.495 41.663 134.861 41.083C134.892 41.038 134.912 40.994 134.943 40.95C136.025 39.236 136.986 37.45 137.831 35.608C137.39 35.688 136.948 35.757 136.501 35.821C135.203 36.012 133.893 36.149 132.581 36.232C131.01 36.335 129.28 36.551 127.742 36.149C126.918 35.934 126.159 35.527 125.34 35.296C124.516 35.069 123.607 35.068 122.752 35.065C120.799 35.062 118.872 35.377 116.927 35.476C113.719 35.64 110.441 35.645 107.348 34.669C106.697 34.458 106.051 34.21 105.425 33.918C104.722 33.585 104.027 33.165 103.389 32.662C103.31 32.724 103.224 32.77 103.123 32.812C102.813 32.941 102.504 33.071 102.199 33.195L101.996 33.278C101.991 33.294 101.986 33.311 101.976 33.322C102.185 33.937 102.457 34.842 102.511 34.997C103.059 36.59 103.618 38.173 104.198 39.744C105.329 42.827 106.518 45.881 107.772 48.911C110.263 54.945 113.005 60.878 115.97 66.695C121.764 65.333 127.4 63.414 133.037 61.516ZM146.79 37.503C145.3 37.597 144.34 36.824 143.646 35.598C143.045 34.542 141.844 34.729 140.754 34.988C140.742 35.113 140.708 35.239 140.658 35.37C139.823 37.347 138.86 39.246 137.766 41.086C141.153 42.62 144.76 43.583 148.315 44.646C149.899 45.122 152.13 46.036 153.761 45.276C155.51 44.448 155.248 42.168 154.73 40.677C154.057 38.725 153.051 36.871 152.181 35.007C151.252 33.005 150.317 31.008 149.388 29.006C148.79 27.722 148.153 25.72 146.826 24.971C144.859 23.853 144.212 27.014 143.997 28.417L146.108 28.788C147.697 29.069 149.397 29.13 150.069 30.849C151.099 33.492 150.03 37.294 146.79 37.503ZM143.546 32.452C144.228 32.629 144.862 33.002 145.307 33.555C145.741 34.087 145.846 35.014 146.635 35.008C147.436 35.002 147.817 34.227 147.925 33.541C147.979 33.182 147.966 32.771 147.9 32.406C147.75 31.605 147.604 31.593 146.847 31.452C144.731 31.075 142.615 30.71 140.498 30.333L129.541 28.404C129.534 28.848 129.57 29.302 129.539 29.703C129.491 30.413 129.411 31.114 129.276 31.817C129.141 32.498 128.962 33.169 128.75 33.831C132.312 33.893 135.878 33.57 139.353 32.775C140.717 32.468 142.145 32.095 143.546 32.452ZM103.388 52.432C103.355 52.915 103.808 53.716 103.995 54.164C104.223 54.692 104.482 55.208 104.758 55.718C105.017 56.19 105.286 56.652 105.56 57.119C105.8 57.522 105.877 57.909 106.225 57.951C106.893 58.02 107.837 57.446 108.547 56.957C107.616 54.911 106.718 52.842 105.846 50.768C105.623 50.905 105.355 50.99 105.035 50.963C104.303 50.907 103.438 51.776 103.388 52.432ZM113.275 66.847C112.005 64.326 110.772 61.788 109.587 59.231C108.287 60.028 106.575 60.817 105.258 60.402C104.357 60.114 103.935 59.279 103.483 58.51C102.958 57.619 102.448 56.722 102.007 55.785C101.537 54.8 100.988 53.688 100.915 52.582C100.909 52.577 100.909 52.577 100.909 52.577V52.566C100.868 51.95 100.979 51.351 101.318 50.788C102.12 49.451 103.418 48.6 104.914 48.511C104.832 48.319 104.755 48.122 104.674 47.93C104.638 47.844 104.608 47.753 104.573 47.668L104.568 47.663C103.229 44.343 101.965 40.989 100.77 37.605C100.455 36.701 100.145 35.792 99.8336 34.883C99.8106 34.819 99.7816 34.75 99.7566 34.675C97.6736 35.682 95.5126 36.46 93.2516 36.976C93.3956 39.995 92.1366 43.117 91.4266 45.976C90.6016 49.284 89.8356 52.762 90.5276 56.157C90.5326 56.163 90.5326 56.163 90.5326 56.174C90.7946 56.229 91.0426 56.367 91.2496 56.603C94.4746 60.367 97.9306 63.927 101.602 67.259C102.365 67.952 103.371 69.292 104.478 69.237C105.612 69.177 106.806 68.784 107.907 68.514C109.726 68.056 111.516 67.497 113.275 66.847ZM68.6576 32.225C67.8476 32.778 67.0426 33.336 66.2326 33.888C65.2956 34.532 64.3636 35.17 63.4316 35.819C64.0706 36.186 64.7046 36.57 65.3296 36.976C65.6606 37.192 65.9976 37.413 66.3296 37.64C66.9706 38.072 66.9396 38.274 67.5466 37.793C69.1676 36.52 70.6136 34.874 72.0496 33.397C72.7726 32.647 73.4896 31.881 74.1946 31.105C74.5826 30.691 74.9526 30.272 75.3296 29.848C75.4026 29.781 76.0566 29.071 76.1286 29.139C76.0986 28.68 74.4056 27.012 74.1476 26.707C73.4566 25.893 72.7436 25.089 72.0106 24.308C71.7356 24.009 71.4606 23.699 71.1756 23.412C71.2766 24.22 71.3656 25.299 71.3916 25.439C71.6466 26.999 72.3486 29.009 71.1746 30.364C70.5066 31.134 69.4786 31.661 68.6576 32.225ZM52.4926 50.992C57.4226 48.139 61.7026 44.394 65.1896 39.887C65.0236 39.762 64.8576 39.638 64.6966 39.53C63.7846 38.918 62.8526 38.349 61.8986 37.803C57.1566 39.594 53.6626 43.382 50.8886 47.498C49.5666 49.469 48.3226 51.546 47.3036 53.686C46.3706 55.655 45.6486 58.125 46.9556 60.104C48.2226 62.014 51.3866 61.808 53.4246 61.943C55.7076 62.108 58.0026 62.149 60.2896 62.086C64.9656 61.964 69.6496 61.419 74.2276 60.418C78.3326 59.519 82.3606 58.267 86.2606 56.694L87.9356 55.608C87.5856 52.752 87.9546 49.91 88.5956 47.08C89.0046 45.291 89.4836 43.516 89.9356 41.737C90.2676 40.443 90.7736 38.998 90.8156 37.6C85.7506 38.575 81.4826 41.502 76.6306 43.222C71.3076 45.109 65.6786 46.238 60.6506 48.894C60.3366 49.062 60.0236 49.083 59.7456 49.022C57.8996 50.514 55.9406 51.869 53.8796 53.065C52.4926 53.865 51.0956 51.803 52.4926 50.992ZM13.2526 93.258C11.4986 93.735 9.61658 93.935 7.94158 94.663C6.27658 95.381 5.03958 96.814 4.16958 98.369C3.76058 99.108 3.41158 99.883 3.11158 100.673C2.95158 101.1 2.79858 101.533 2.66058 101.97C2.63658 102.063 2.61858 102.172 2.58958 102.281C3.90458 101.446 6.58558 99.666 6.90358 99.449C8.42258 98.375 10.0076 97.363 11.7556 96.702C13.5096 96.047 15.3956 95.809 17.2436 95.578C18.4126 95.424 19.5926 95.281 20.7676 95.132C21.3116 95.065 21.8566 94.997 22.4056 94.924C22.6156 94.901 22.9006 94.821 23.1116 94.841C23.5516 94.885 23.4416 95.013 23.5626 94.739C23.7126 94.366 23.4736 93.459 23.4446 93.055C23.4106 92.488 23.3706 91.926 23.3316 91.365C23.2736 90.555 23.2206 89.74 23.1676 88.925C20.0786 90.817 16.7436 92.3 13.2526 93.258ZM38.3006 83.855L25.6116 88.057C25.7816 90.345 26.0666 92.667 26.0736 94.95C26.0746 94.972 26.0746 94.982 26.0696 94.999C30.8036 94.658 35.2856 92.34 39.9326 91.488C45.3816 90.495 50.9576 90.449 56.3616 89.236C62.0186 87.965 67.5156 85.958 72.9916 84.077C78.6376 82.146 84.2136 80.045 89.6956 77.687C94.1626 75.765 98.5546 73.688 102.877 71.462C102.202 71.155 101.623 70.634 101.044 70.124C96.8516 66.399 92.9376 62.378 89.2806 58.126C88.6776 58.391 88.0576 58.65 87.4436 58.904C80.0126 63.736 72.5986 68.616 65.1156 73.369C61.0266 75.971 56.7976 77.729 52.2156 79.25C47.5786 80.783 42.9426 82.316 38.3006 83.855ZM36.8946 24.864C37.7516 29.201 37.7816 33.739 38.2946 38.131C38.3166 38.32 38.3396 38.509 38.3616 38.697C38.3626 38.719 38.3686 38.735 38.3686 38.756C38.8476 43.117 39.1936 47.531 39.9896 51.843C40.8006 56.252 42.5826 60.416 44.7086 64.336C44.7606 64.437 44.8236 64.538 44.8756 64.639L44.8816 64.644C45.9896 66.667 47.1776 68.639 48.3976 70.599C48.9676 71.521 49.5646 72.594 50.3076 73.499L50.3136 73.504C50.9776 74.315 51.7676 74.991 52.7566 75.298C53.2156 75.433 53.4906 75.765 53.6106 76.129C55.1726 75.577 56.7226 74.983 58.2326 74.309C58.2376 74.303 58.2436 74.309 58.2486 74.303C58.2546 74.308 58.2596 74.303 58.2596 74.303C59.6256 73.693 60.9616 73.014 62.2616 72.218C66.4286 69.689 70.4686 66.937 74.5616 64.286C74.8316 64.109 75.1076 63.937 75.3776 63.76L75.3826 63.754C75.3876 63.749 75.3876 63.749 75.3936 63.743C76.2626 63.183 77.1266 62.618 77.9966 62.058C77.5506 62.176 77.0996 62.289 76.6546 62.396C70.9376 63.799 65.0586 64.547 59.1736 64.597C56.5346 64.623 53.8846 64.503 51.2586 64.258C48.8716 64.036 46.4756 63.745 44.9816 61.654C41.7946 57.192 45.4086 51.565 47.8336 47.678C49.8366 44.466 52.1786 41.404 55.0676 39.011L55.0726 39.006C56.1796 38.08 57.3706 37.255 58.6576 36.561C58.6786 36.382 58.7326 36.213 58.8416 36.052L58.8466 36.046C58.9346 35.919 59.0446 35.801 59.1876 35.705C60.9406 34.503 62.6926 33.301 64.4396 32.094C65.0806 31.655 65.7106 31.217 66.3456 30.784C66.5836 30.619 66.8326 30.454 67.0716 30.289C67.7226 29.839 69.1906 29.22 69.3346 28.442C69.4766 27.642 69.0256 26.391 68.8976 25.6C68.7556 24.69 68.5096 23.747 68.4856 22.822C68.4846 22.779 68.4886 22.741 68.4926 22.703L68.4976 22.697C68.5126 21.306 69.4556 19.965 71.0136 20.312C72.5556 20.654 73.7776 22.532 74.7656 23.635C75.4106 24.365 76.0566 25.105 76.6806 25.858C77.2766 26.584 78.0686 27.336 78.4266 28.216C79.1136 29.908 77.4416 31.248 76.4166 32.376C74.9526 33.984 73.4446 35.562 71.8916 37.087C71.0306 37.928 70.1536 38.764 69.2656 39.579C68.7666 40.045 68.2586 40.587 67.6046 40.761C67.5596 40.866 67.5086 40.965 67.4306 41.06C66.5216 42.265 65.5576 43.418 64.5376 44.53C68.2546 43.174 72.1016 42.181 75.8466 40.852C78.6396 39.869 81.1926 38.493 83.8576 37.222C84.1396 37.088 84.4226 36.954 84.7106 36.836C84.7166 36.83 84.7216 36.836 84.7266 36.83C84.7266 36.83 84.7266 36.83 84.7326 36.824C86.7816 35.943 88.9266 35.339 91.1346 35.014C91.2606 34.912 91.4316 34.831 91.6466 34.791C93.5016 34.419 95.3126 33.88 97.0536 33.161C97.8766 32.829 98.6866 32.455 99.4746 32.039C99.8746 31.365 100.784 31.009 101.597 30.721C100.851 29.562 100.521 28.194 100.928 26.697C101.734 23.77 104.841 22.116 107.274 20.723C111.69 18.196 116.343 16.153 121.06 14.255C121.081 14.243 121.108 14.237 121.14 14.225L121.145 14.219C123.741 13.178 126.355 12.185 128.958 11.17C132.469 9.81098 135.967 8.37599 139.549 7.20899C139.946 7.07599 140.353 6.94299 140.765 6.80499C140.776 6.80499 140.792 6.79899 140.808 6.79298C141.402 6.59399 142.012 6.39999 142.634 6.20599C142.645 6.20599 142.65 6.19998 142.661 6.19998C145.125 5.43398 147.729 4.81899 150.172 5.08199C151.437 5.21699 152.662 5.61898 153.843 6.19998L153.849 6.20499C154.063 6.31099 154.278 6.41798 154.492 6.53498C154.425 6.47198 154.359 6.42098 154.287 6.36398C154.076 6.19798 153.86 6.03799 153.638 5.88299C149.503 2.90299 144.65 1.72799 139.605 2.99399C137.05 3.63399 134.604 4.62698 132.121 5.49098C129.473 6.41998 126.763 7.12498 123.992 7.60398C118.321 8.58898 112.702 8.31099 107.012 7.69399C100.862 7.03399 94.4876 6.32198 88.5746 8.54898C88.4586 8.64998 88.3156 8.73599 88.1496 8.79099C80.8376 11.271 73.3346 13.498 65.6056 14.055C57.7566 14.617 49.9736 12.963 42.1276 13.254C40.0196 13.326 37.9056 13.529 35.8376 13.984C34.6936 14.245 33.3876 14.523 32.2176 15.001C34.5366 17.873 36.1676 21.204 36.8946 24.864Z" fill="#1E1E1E"/>
<path d="M213.139 24.345C213.341 24.755 213.581 25.147 213.734 25.531C214.02 26.198 214.274 26.876 214.475 27.578C214.664 28.269 214.811 28.962 214.925 29.667C218.218 28.072 221.337 26.125 224.152 23.789C225.259 22.874 226.396 21.872 227.847 21.552C228.55 21.392 229.309 21.442 229.973 21.738C230.615 22.025 231.144 22.824 231.862 22.447C232.597 22.076 232.58 21.189 232.364 20.515C232.25 20.156 232.049 19.79 231.817 19.489C231.309 18.825 231.17 18.884 230.409 19.105C229.069 19.486 213.49 24.674 213.139 24.345Z" fill="white"/>
<path d="M50.3125 73.504C50.9765 74.314 51.7665 74.99 52.7555 75.297C53.2145 75.433 53.4895 75.764 53.6095 76.128C55.1715 75.577 56.7215 74.983 58.2315 74.309C55.4785 75.036 52.6075 75.064 50.3125 73.504Z" fill="white"/>
<path d="M38.3687 38.756C38.8477 43.117 39.1937 47.531 39.9897 51.843C40.8007 56.252 42.5827 60.416 44.7087 64.336C44.7607 64.437 44.8237 64.538 44.8757 64.639C44.1587 62.667 43.5697 60.647 43.0117 58.762C41.6967 54.3 40.5577 49.784 39.5967 45.234C39.1447 43.08 38.7407 40.919 38.3687 38.756Z" fill="white"/>
<path d="M129.541 28.404C129.534 28.848 129.57 29.302 129.539 29.703C129.491 30.413 129.411 31.114 129.276 31.817C129.141 32.498 128.962 33.169 128.75 33.831C132.312 33.893 135.878 33.571 139.353 32.775C140.718 32.468 142.145 32.095 143.547 32.452C144.228 32.629 144.862 33.003 145.307 33.555C145.741 34.087 145.846 35.014 146.636 35.008C147.436 35.003 147.817 34.227 147.925 33.541C147.979 33.182 147.966 32.772 147.9 32.406C147.75 31.605 147.604 31.594 146.847 31.452C144.731 31.075 142.615 30.71 140.498 30.333L129.541 28.404Z" fill="white"/>
<path d="M25.6113 88.057C25.7813 90.345 26.0663 92.667 26.0733 94.95C26.0743 94.972 26.0743 94.983 26.0693 94.999C30.8033 94.658 35.2843 92.34 39.9323 91.488C45.3813 90.495 50.9573 90.45 56.3613 89.236C62.0173 87.965 67.5153 85.959 72.9903 84.077C78.6363 82.147 84.2123 80.045 89.6943 77.688C94.1613 75.765 98.5533 73.688 102.875 71.462C102.2 71.155 101.621 70.634 101.042 70.124C96.8503 66.399 92.9363 62.378 89.2793 58.127C88.6763 58.391 88.0573 58.65 87.4433 58.904C80.0113 63.736 72.5973 68.617 65.1143 73.37C61.0253 75.972 56.7963 77.729 52.2143 79.25C47.5783 80.783 42.9413 82.317 38.2993 83.856L25.6113 88.057Z" fill="white"/>
<path d="M50.8883 47.498C49.5663 49.469 48.3223 51.546 47.3033 53.686C46.3703 55.655 45.6483 58.125 46.9553 60.104C48.2223 62.014 51.3863 61.808 53.4243 61.943C55.7073 62.108 58.0023 62.149 60.2893 62.086C64.9653 61.964 69.6483 61.419 74.2263 60.418C78.3313 59.519 82.3603 58.267 86.2593 56.694L87.9343 55.608C87.5843 52.752 87.9543 49.91 88.5943 47.08C89.0033 45.291 89.4823 43.517 89.9343 41.737C90.2663 40.443 90.7723 38.998 90.8153 37.6C85.7493 38.575 81.4823 41.502 76.6293 43.222C71.3063 45.109 65.6783 46.238 60.6493 48.894C60.3353 49.062 60.0223 49.083 59.7443 49.022C57.8983 50.514 55.9393 51.869 53.8783 53.065C52.4913 53.865 51.0953 51.803 52.4923 50.992C57.4223 48.139 61.7023 44.394 65.1893 39.887C65.0233 39.762 64.8563 39.638 64.6963 39.53C63.7843 38.918 62.8523 38.349 61.8983 37.803C57.1573 39.594 53.6633 43.382 50.8883 47.498Z" fill="white"/>
<path d="M93.2525 36.977C93.3965 39.996 92.1375 43.118 91.4275 45.977C90.6025 49.284 89.8365 52.763 90.5285 56.158C90.5335 56.164 90.5335 56.164 90.5335 56.174C90.7955 56.23 91.0435 56.368 91.2505 56.604C94.4755 60.367 97.9315 63.928 101.602 67.259C102.365 67.953 103.371 69.293 104.478 69.238C105.612 69.178 106.806 68.785 107.907 68.515C109.726 68.057 111.516 67.498 113.275 66.848C112.005 64.327 110.772 61.788 109.587 59.232C108.287 60.029 106.575 60.818 105.258 60.403C104.357 60.115 103.936 59.28 103.484 58.511C102.958 57.62 102.449 56.723 102.008 55.786C101.538 54.801 100.988 53.689 100.915 52.583C100.909 52.577 100.909 52.577 100.909 52.577V52.567C100.704 51.913 100.548 51.232 100.439 50.532C100.2 48.987 101.735 47.539 103.204 47.434C103.711 47.395 104.167 47.477 104.568 47.663C103.229 44.344 101.966 40.99 100.771 37.606C100.456 36.702 100.146 35.793 99.8345 34.884C99.8115 34.82 99.7815 34.751 99.7575 34.676C97.6745 35.683 95.5135 36.461 93.2525 36.977Z" fill="white"/>
<path d="M103.739 26.466C104.258 27.476 104.269 28.661 103.897 29.729C104.331 30.293 104.909 30.76 105.472 31.109C110.534 34.284 116.88 32.935 122.488 32.7C123.941 32.633 126.102 33.219 126.746 31.515C126.941 31.005 126.977 30.441 127.009 29.893L127.117 28.18C127.164 27.291 124.83 26.365 124.178 26.1C122.901 25.576 121.544 25.271 120.176 25.123C119.557 25.047 118.933 25.009 118.338 24.818C117.622 24.599 116.782 24.055 116.751 23.228C116.73 22.747 117.013 22.277 117.444 22.073C118.02 21.805 118.426 22.153 118.941 22.341C119.861 22.688 120.736 22.669 121.686 22.772C122.631 22.869 123.544 23.168 124.405 23.544C125.606 24.06 126.731 24.714 127.932 25.219C131.72 26.815 135.968 26.826 139.992 27.668L139.998 27.662C140.754 26.273 141.662 25.035 142.751 24.251L142.757 24.245C143.014 23.847 143.339 23.489 143.708 23.185C144.968 22.162 146.634 21.991 148.039 22.793C149.401 23.574 150.236 25.006 150.901 26.373C151.868 28.38 152.782 30.41 153.723 32.434C154.553 34.229 155.422 36.017 156.236 37.828C156.248 37.839 156.253 37.855 156.259 37.871C156.282 37.913 156.3 37.961 156.318 38.01C156.381 38.121 156.439 38.238 156.481 38.361C156.486 38.366 156.481 38.372 156.486 38.377C156.539 38.489 156.586 38.606 156.638 38.718C157.367 40.387 157.897 42.246 157.484 44.073C156.577 48.048 152.607 48.433 149.267 47.52C144.606 46.241 139.771 44.924 135.445 42.751C134.89 42.473 134.496 41.664 134.862 41.083C134.893 41.039 134.913 40.995 134.944 40.951C134.592 39.415 135.602 37.644 136.502 35.822C135.204 36.013 133.894 36.15 132.582 36.233C131.011 36.335 129.281 36.551 127.743 36.15C126.919 35.935 126.159 35.528 125.34 35.296C124.516 35.07 123.607 35.069 122.753 35.066C120.799 35.062 118.873 35.377 116.928 35.477C113.72 35.641 110.441 35.645 107.348 34.669C106.698 34.459 106.052 34.211 105.426 33.918C104.723 33.585 104.028 33.165 103.39 32.663C103.31 32.725 103.225 32.771 103.124 32.812C102.814 32.942 102.504 33.072 102.2 33.196L101.997 33.278C101.992 33.295 101.987 33.311 101.977 33.322C102.186 33.937 102.458 34.842 102.511 34.998C103.06 36.591 103.618 38.173 104.198 39.744C105.329 42.827 106.519 45.881 107.773 48.911C110.264 54.945 113.005 60.878 115.971 66.696C121.765 65.334 127.401 63.414 133.037 61.516C139.097 59.48 145.144 57.389 151.144 55.182C157.203 52.955 163.197 50.564 169.133 48.034C177.26 43.789 185.45 39.509 194.224 36.763C198.58 35.396 203.106 34.662 207.364 32.973C209.32 32.203 211.223 31.321 213.156 30.497C212.131 29.066 211.504 27.21 210.91 25.699C210.816 25.464 210.732 25.207 210.67 24.95C209.944 25.099 209.218 25.238 208.509 25.381C204.45 26.208 200.397 27.039 196.339 27.866C188.368 29.497 180.385 31.129 172.409 32.756C172.23 32.913 171.984 33.019 171.676 33.024C168.762 33.108 165.868 33.44 163.02 34.057C162.569 34.159 162.181 34.026 161.897 33.782C161.136 33.678 160.447 32.917 160.884 32.026C161.965 29.797 162.981 27.717 163.456 25.277C163.786 23.594 164.167 21.936 165.112 20.513C161.548 15.793 157.613 10.62 152.093 8.17998C149.13 6.86398 145.972 7.91398 143.017 8.75698C139.811 9.66798 136.7 10.846 133.595 12.051C127.165 14.538 120.656 16.899 114.414 19.824C111.386 21.237 108.264 22.762 105.545 24.727C104.9 25.193 104.193 25.769 103.739 26.466Z" fill="white"/>
<path d="M111.11 0.642975C114.957 0.981975 118.832 0.875974 122.656 0.311974C123.178 0.234974 123.649 0.769974 123.665 1.25697C123.683 1.82997 123.24 2.19097 122.718 2.26897C118.894 2.83297 115.024 2.94398 111.172 2.59998C110.651 2.55298 110.181 2.22798 110.163 1.65498C110.148 1.17898 110.579 0.595975 111.11 0.642975Z" fill="#00A99D"/>
<path d="M126.287 69.631C130.14 68.276 133.992 66.91 137.844 65.555C139.032 65.136 139.589 67.01 138.401 67.43C134.549 68.785 130.697 70.151 126.845 71.506C125.657 71.925 125.1 70.051 126.287 69.631Z" fill="white"/>
<path d="M222.913 14.595C224.389 13.879 225.912 13.258 227.47 12.767C228.933 12.311 230.488 11.868 232.037 11.923C234.94 12.04 237.406 13.719 239.521 15.572C240.472 16.4 239.133 17.831 238.181 17.003C236.451 15.488 234.345 13.916 231.937 13.885C230.573 13.867 229.233 14.27 227.942 14.677C226.571 15.113 225.23 15.641 223.93 16.27C223.455 16.497 222.88 16.43 222.588 15.948C222.332 15.529 222.434 14.828 222.913 14.595Z" fill="white"/>
<path d="M27.4556 19.091C27.9436 18.793 28.4806 18.991 28.7966 19.413C30.2196 21.28 31.2876 23.423 31.9386 25.679C32.2556 26.804 32.4816 27.971 32.5836 29.136C32.6926 30.339 32.5496 31.485 31.7966 32.469C31.4746 32.891 30.7696 32.85 30.4136 32.516C29.9956 32.125 30.0476 31.555 30.3696 31.132C30.8476 30.499 30.6626 29.445 30.5746 28.723C30.4506 27.726 30.2196 26.733 29.9186 25.77C29.3106 23.837 28.3506 22.047 27.1256 20.439C26.8086 20.017 27.0366 19.349 27.4556 19.091Z" fill="#1E1E1E"/>
<path d="M52.3934 94.939C53.0224 94.972 53.6504 94.983 54.2764 94.951C54.5954 94.934 54.9244 94.907 55.2424 94.869C55.3934 94.853 55.5444 94.837 55.7004 94.815C55.7864 94.801 55.8674 94.793 55.9534 94.779C55.9754 94.779 55.9914 94.773 56.0184 94.766C56.0234 94.761 56.0344 94.76 56.0564 94.76C57.3154 94.543 58.5434 94.182 59.7174 93.687C60.1924 93.492 60.8154 93.866 60.9334 94.343C61.0704 94.901 60.7814 95.355 60.2744 95.562C57.8184 96.587 55.1114 97.043 52.4504 96.891C51.9414 96.865 51.4374 96.509 51.4414 95.946C51.4524 95.464 51.8464 94.909 52.3934 94.939Z" fill="#1E1E1E"/>
</svg>
