<svg width="96" height="74" viewBox="0 0 96 74" fill="none" xmlns="http://www.w3.org/2000/svg">
<path d="M15.499 41.7017C13.499 46.5017 11.6657 53.035 10.999 55.7017V57.7016H84.999C85.499 50.2016 81.999 37.7017 77.999 33.2017C73.999 28.7017 58.499 18.2017 44.499 21.7017C30.499 25.2017 17.999 35.7017 15.499 41.7017Z" fill="white"/>
<path d="M55.2426 53.7256C59.8502 50.0797 65.6219 48.3836 70.7792 45.6254C74.1581 43.8183 77.5532 42.0905 81.0776 40.6639C81.2393 40.5529 81.4171 40.4578 81.5626 40.3468C82.1123 39.9188 82.4033 39.4908 82.5003 39.0628C82.5974 38.6348 82.5004 38.2068 82.3064 37.7947C81.9183 36.9704 81.0938 36.2095 80.528 35.5755C76.955 30.3127 71.5229 27.2058 66.9476 29.4567C66.9638 29.6628 66.9153 29.8689 66.7213 30.0591C63.0513 33.8476 60.4484 38.4605 57.5707 42.8197C54.8546 46.9411 51.411 50.7297 47.6279 53.9792C47.9998 54.1378 48.4848 54.1536 49.0506 53.8524C51.3464 52.616 53.0439 53.9 55.2426 53.7256Z" fill="#00A99D"/>
<path d="M94.4481 70.4811C63.6174 70.2592 32.7545 69.847 1.92383 70.8298C-0.145555 70.8932 -0.161723 74.0636 1.92383 74.0002C32.7545 73.0173 63.6013 73.4295 94.4481 73.6514C96.5174 73.6673 96.5174 70.4969 94.4481 70.4811Z" fill="#1E1E1E"/>
<path d="M90.2123 58.0055C89.6303 57.6092 89.0806 57.6726 88.6441 57.9421C88.1106 57.9262 87.5771 57.9104 87.0436 57.8945C86.3807 49.9846 85.5724 41.2661 80.7061 34.7036C76.2601 28.7116 69.567 24.0037 62.6313 21.198C54.8872 18.0593 46.7229 18.202 38.9788 21.2772C35.1311 22.8148 31.5096 24.828 28.0499 27.0789C24.6386 29.2981 21.1789 31.6442 18.3658 34.5926C12.3193 40.9333 10.7996 49.4456 9.66792 57.736C8.43922 57.7836 7.21052 57.7994 5.98182 57.847C5.75548 57.8628 5.56146 57.9104 5.38362 57.9896C4.6076 58.0372 3.89626 58.5286 3.9286 59.4956C4.00943 61.588 3.28192 65.8204 5.70698 66.9458C6.93568 67.5165 8.52004 67.2629 9.82957 67.247C11.8343 67.247 13.839 67.2312 15.8276 67.2312C23.4261 67.1995 31.0246 67.1836 38.6393 67.1519C53.7071 67.1043 68.7909 67.0568 83.8587 67.0092C86.7687 66.9934 90.5195 67.2787 92.0069 64.2352C93.1063 62.0001 92.2655 59.4004 90.2123 58.0055ZM14.8899 47.3373C16.0701 47.8287 17.3311 48.1458 18.6245 48.2567C19.0125 48.2884 19.4975 48.0507 19.7723 47.797C20.0472 47.5276 20.2573 47.0679 20.2412 46.6716C20.225 46.2594 20.0795 45.8314 19.7723 45.5461C19.4328 45.2449 19.0771 45.1181 18.6245 45.0864C18.576 45.0864 18.5275 45.0705 18.479 45.0705C17.703 44.9596 16.9593 44.7535 16.2317 44.4682C16.1347 44.4206 16.0377 44.3572 15.9407 44.3255C16.7006 42.4233 17.6544 40.5845 18.8993 38.9042C20.7909 36.3521 23.2806 34.2914 25.8673 32.4368C26.1745 33.0867 26.5464 33.7208 26.8697 34.339C27.4194 35.3693 27.9529 36.3997 28.5026 37.4459C28.8906 38.1909 30.0061 38.4604 30.7174 38.0166C31.4935 37.5252 31.7198 36.6375 31.2995 35.8449C30.7821 34.8462 30.2486 33.8476 29.7313 32.8489C29.4726 32.3575 29.2139 31.8661 28.9552 31.3747C28.8421 31.1686 28.7451 30.9626 28.6481 30.7565C28.6319 30.7089 28.6157 30.6614 28.5996 30.6138C28.5996 30.598 28.5834 30.5821 28.5834 30.5504C31.2833 28.7433 34.0802 27.0314 37.0064 25.6047C39.5608 24.3524 42.2123 23.3855 44.9122 22.7673C44.9122 22.8782 44.896 22.9892 44.9283 23.116C45.3486 24.828 45.7852 26.5241 46.2055 28.2361C46.4157 29.0445 47.3857 29.5993 48.1941 29.3457C49.0509 29.0762 49.5359 28.2519 49.3258 27.396C48.9054 25.684 48.4689 23.9878 48.0324 22.26C51.4922 21.8637 55.0166 22.0698 58.541 23.116C61.2732 23.9244 63.9408 25.1133 66.4791 26.5717C65.9617 27.8556 65.4929 29.1713 65.1048 30.487C64.8623 31.2796 65.3959 32.2466 66.2366 32.4368C67.0934 32.627 67.9664 32.1832 68.2251 31.3272C68.5322 30.3127 68.8718 29.2981 69.2598 28.2995C71.895 30.0907 74.3201 32.1673 76.3895 34.4499C77.9415 36.1619 79.1379 38.0641 80.0917 40.0614C77.8283 40.537 75.6458 41.2503 73.5279 42.1697C72.7519 42.5026 72.5094 43.6756 72.9459 44.3414C73.4632 45.134 74.3201 45.2766 75.1608 44.912C75.3063 44.8486 75.4679 44.7852 75.6134 44.7218C75.6781 44.706 75.7266 44.6743 75.7428 44.6743C76.0338 44.5633 76.3248 44.4523 76.5997 44.3414C77.1655 44.1353 77.7313 43.9451 78.2972 43.7707C79.2834 43.4695 80.2696 43.2476 81.2881 43.0415C82.8725 47.7336 83.3898 52.8379 83.8102 57.7677C82.1611 57.7202 80.5121 57.6568 78.8469 57.6251C77.1978 57.5775 75.5488 57.5458 73.8836 57.4982C72.2345 57.4665 70.5855 57.4348 68.9203 57.4031C67.2874 57.3714 65.6546 57.3397 64.0217 57.3397C63.6983 57.3397 63.3588 57.3397 63.0355 57.3397C61.4026 57.3239 59.7859 57.3239 58.153 57.2605C58.0883 57.2605 58.0237 57.2605 57.959 57.2605C56.4555 57.1971 56.2453 56.674 55.7118 55.4217C55.5016 54.9303 54.6124 53.7731 55.0004 53.3293C57.9428 49.9846 60.9176 46.6082 64.4259 43.8341C65.8809 42.6769 67.8209 41.393 68.2251 39.4591C68.3544 38.8408 68.1281 38.1592 67.4329 37.9849C66.9317 37.858 66.3982 38.08 65.9294 38.3177C62.3726 40.109 59.2039 42.5818 56.1806 45.1181C55.1621 45.9741 54.1759 46.8459 53.2059 47.7495C52.7209 48.1933 52.2358 48.653 51.767 49.1127C51.5245 49.3505 51.2981 49.5724 51.0556 49.8102C50.9748 49.9053 50.5545 50.2699 50.5545 50.3967C50.3605 50.6186 50.1826 50.8405 49.9563 50.9991C49.4228 51.3954 48.7276 51.4588 48.1456 51.7916C47.5151 52.1562 46.9007 52.6001 46.3834 53.1073C45.7852 53.6938 45.284 54.423 45.0577 55.2315C45.0092 55.4058 44.8475 57.1654 44.7343 57.1654C34.1126 57.1812 23.4908 57.3239 12.869 57.6409C13.3702 54.2169 13.9037 50.6979 14.8899 47.3373ZM53.416 56.8642C53.3999 56.9751 53.416 57.102 53.416 57.2129C51.6053 57.1971 49.7946 57.1654 47.9839 57.1654C47.9839 57.1337 47.9839 57.102 47.9839 57.0703C48.0001 57.0068 48.0162 56.88 48.0324 56.8325C48.0647 56.7057 48.0971 56.5947 48.1294 56.4679C48.1617 56.3411 48.2103 56.2301 48.2426 56.1033C48.2588 56.0399 48.2587 56.024 48.2749 56.0082C48.2911 55.9923 48.2911 55.9923 48.3234 55.9289C48.4366 55.6912 48.5659 55.4851 48.7114 55.2632C48.7276 55.2315 48.7599 55.1998 48.7923 55.1839C48.8084 55.168 48.9216 55.0571 48.9863 54.9937C49.0509 54.962 49.148 54.8827 49.1641 54.8669C49.245 54.8193 49.3419 54.7718 49.4389 54.7242C49.4874 54.7083 49.6491 54.6608 49.6814 54.6449C49.8108 54.5974 49.9563 54.5657 50.0856 54.5498C50.1341 54.534 50.1826 54.534 50.2311 54.5181C50.3604 54.534 50.4736 54.5181 50.603 54.4706C50.894 54.4547 51.1688 54.4389 51.4598 54.4547C51.5083 54.4547 51.5245 54.4547 51.5568 54.4547C51.573 54.4547 51.5892 54.4706 51.6215 54.4706C51.7347 54.5023 51.8317 54.5181 51.9449 54.5498C51.9934 54.5657 52.0418 54.5815 52.1065 54.5974C52.1873 54.6449 52.2843 54.6766 52.3652 54.7242C52.446 54.7718 52.5107 54.8193 52.5915 54.8669C52.5592 54.851 52.7532 54.9937 52.7855 55.0254C52.8664 55.1046 52.931 55.1839 53.0118 55.2632C53.028 55.2949 53.0604 55.3266 53.0927 55.3741C53.1735 55.4851 53.2221 55.6119 53.3029 55.7387C53.3191 55.7546 53.3029 55.7387 53.319 55.7546C53.319 55.7704 53.319 55.7704 53.3352 55.8021C53.3675 55.9289 53.4161 56.0716 53.4484 56.1984C53.4646 56.2301 53.4645 56.2618 53.4807 56.2777C53.4807 56.2935 53.4807 56.2935 53.4807 56.3252C53.4807 56.4679 53.4969 56.5947 53.4969 56.7374C53.4161 56.8325 53.3675 57.2288 53.416 56.8642ZM87.6095 63.7596C85.7987 64.1559 83.6808 63.8865 81.8378 63.8865C78.1032 63.9023 74.3686 63.9182 70.634 63.9182C63.0355 63.9499 55.4369 63.9657 47.8222 63.9974C40.2237 64.0291 32.6252 64.045 25.0105 64.0767C21.2759 64.0925 17.5413 64.1084 13.8067 64.1084C11.9475 64.1084 10.0721 64.1559 8.21286 64.1242C6.90333 64.1084 7.32367 63.7913 7.27517 62.5708C7.259 62.0477 7.22668 61.5246 7.21051 61.0015C34.3551 60.0662 61.5319 60.0979 88.6765 61.1124C88.7735 61.1124 88.8543 61.0807 88.9351 61.0649C89.8566 62.1111 88.8543 63.4743 87.6095 63.7596Z" fill="#1E1E1E"/>
<path d="M82.7915 5.80622C81.1586 6.1391 79.6227 6.67806 78.1192 7.35968C77.3432 7.72427 77.1169 8.84974 77.5372 9.53136C77.7474 9.86424 77.9252 10.213 78.1192 10.5459C75.8396 9.81669 73.4954 9.35699 71.0704 9.24603C69.7447 9.18262 68.8232 11.0848 69.9225 11.9567C71.8464 13.4784 73.7703 15.0319 75.5325 16.7439C71.1512 15.4123 66.5921 14.7783 62.0492 15.9671C60.4648 16.3793 60.5618 18.5668 62.0492 19.0265C68.3543 20.9763 74.2391 23.9881 79.5096 27.9034C80.2048 28.4265 81.3041 28.0144 81.7245 27.3328C82.2257 26.5243 81.8377 25.6842 81.1425 25.1611C77.7474 22.6407 74.0775 20.4849 70.2297 18.7412C73.4793 19.2167 76.6965 20.3263 79.6874 21.5786C81.0454 22.1493 82.8562 20.897 81.9023 19.4069C80.4311 17.1084 78.5719 15.1587 76.5672 13.3358C77.9575 13.7479 79.3156 14.2552 80.6251 14.9209C81.7407 15.4916 83.5675 14.5088 83.0017 13.1297C82.4843 11.8774 81.8862 10.6885 81.2395 9.49965C82.0317 9.23018 82.84 8.9924 83.6646 8.83388C85.6854 8.43759 84.8286 5.39408 82.7915 5.80622Z" fill="#FBB03B"/>
<path d="M87.9169 1.28825C87.7391 0.670037 87.0439 0.257895 86.3972 0.448115C83.6165 1.25655 80.8196 1.98572 78.0065 2.63564C77.3598 2.77831 76.9718 3.50748 77.1496 4.1257C77.3275 4.77562 78.0227 5.12435 78.6693 4.96584C81.4986 4.31592 84.2955 3.58674 87.0601 2.77831C87.6906 2.58809 88.0948 1.92232 87.9169 1.28825Z" fill="#1E1E1E"/>
</svg>
