<svg width="43" height="42" viewBox="0 0 43 42" fill="none" xmlns="http://www.w3.org/2000/svg">
<path d="M40.362 7.67958C38.2687 8.16919 36.1592 8.53245 34.0173 8.73777C31.9727 8.9273 29.8146 9.10103 27.7537 8.9115C26.0175 8.75356 24.9627 7.14259 23.9404 5.92646C22.5774 4.29969 21.3279 2.57815 20.192 0.777652C19.7864 0.130103 18.8939 -0.154187 18.1799 0.0827212C17.3848 0.335423 17.0116 1.03035 16.9467 1.78846C16.8006 3.85746 16.6546 5.94225 16.4923 8.01125C16.3787 9.62223 16.3301 11.3753 15.5674 12.8284C14.8047 14.2814 13.2794 14.9606 11.7379 15.4186C9.67706 16.0187 7.53511 16.2241 5.55544 17.0454C4.15993 17.6139 3.98144 19.2249 5.11732 20.0778C5.32827 20.599 5.79884 20.9938 6.38301 21.1833C8.02192 21.7203 9.66084 22.2731 11.2835 22.8891C12.1111 23.205 12.9387 23.5208 13.75 23.8525C14.1557 24.0105 14.5613 24.1842 14.967 24.3579C15.178 24.4369 15.3727 24.5317 15.5836 24.6106C15.6323 24.6264 15.6972 24.6738 15.7783 24.7054C15.7946 24.7528 15.7946 24.7844 15.7946 24.8317C15.8108 25.0529 15.8433 25.274 15.8595 25.5109C15.9082 25.9531 15.9406 26.4111 15.9893 26.8534C16.0704 27.7536 16.1516 28.6539 16.2327 29.5541C16.3787 31.402 16.5086 33.2657 16.6059 35.1136C16.6871 36.5508 18.683 37.3879 19.689 36.2033C20.9872 34.6713 22.2529 33.1235 23.5672 31.6073C24.1839 30.8966 24.8167 30.1859 25.5307 29.5857C26.1635 29.0487 26.3582 29.2066 27.1696 29.333C31.2588 30.0121 35.3641 30.7071 39.4533 31.3862C40.9462 31.6389 42.1794 30.0753 41.3194 28.7644C40.3133 27.2324 39.3884 25.653 38.5771 23.9947C38.1714 23.1576 37.7657 22.3047 37.4574 21.4361C37.1815 20.6464 37.4574 20.0304 37.7333 19.2723C38.9178 16.0503 40.5243 12.9705 42.439 10.096C43.3802 8.75356 41.7088 7.3637 40.362 7.67958Z" fill="#FBB03B"/>
<path d="M38.6095 7.90073C38.0416 7.66382 37.4249 7.58485 36.8083 7.69541L26.1798 9.41694C24.2001 8.07446 22.3015 5.92649 20.4841 3.85749C20.1434 3.46265 19.7864 3.0678 19.3969 2.62557L18.6018 1.82008C17.758 0.967212 16.5086 0.651335 15.3402 1.01459C14.1719 1.37785 13.3443 2.32549 13.1658 3.51003L11.6892 12.9548C11.4133 14.8027 8.63853 15.8135 5.9611 16.8085C4.84145 17.2191 3.77049 17.614 2.81311 18.0878L1.79081 18.5774C0.687384 19.0986 0.00585938 20.1568 0.00585938 21.3413C0.00585938 22.5259 0.671163 23.5998 1.75836 24.121L11.4458 28.8118C11.6243 30.1701 11.8839 31.481 12.1273 32.7761C12.5492 34.9241 12.9386 36.9457 12.9224 39.0463C12.9224 39.1252 12.9224 39.2042 12.9386 39.2832C13.0198 39.8833 13.2794 40.4361 13.6851 40.8784C14.2692 41.5259 15.113 41.9207 16.0055 41.9365C16.3625 41.9523 16.7195 41.905 17.0603 41.7944C17.5471 41.6365 17.9852 41.368 18.3584 41.0205L25.9688 33.5026L28.9221 34.008C29.0357 34.0238 29.1493 34.0396 29.2791 34.0238C30.0904 33.9922 31.2263 34.2449 32.3297 34.4976C34.3743 34.9714 37.0355 35.5716 38.7556 34.2291C39.0963 33.9606 39.4046 33.6132 39.6642 33.1709C40.8975 31.7337 39.6805 29.7595 38.5121 27.8642C38.285 27.5009 38.0578 27.1377 37.8955 26.8376L35.0396 21.4993L35.5264 20.6148C35.6887 20.3147 35.8996 19.9357 36.1106 19.5408C36.143 19.4618 36.1755 19.3987 36.2079 19.3355C36.5974 18.2615 37.1815 17.2349 37.8144 16.1293C38.8691 14.2972 39.9401 12.3862 40.2322 10.0803C40.2809 9.66964 40.1835 9.27479 39.9401 8.92733C39.5831 8.4851 39.1288 8.12184 38.6095 7.90073ZM14.7885 28.259C14.7074 27.7694 14.5127 27.2956 14.2206 26.9008C13.9123 26.4901 13.5228 26.1585 13.0522 25.9373L3.62445 21.3413L4.30597 21.0254C5.11731 20.6306 6.10716 20.2673 7.1619 19.8725C10.5858 18.609 14.464 17.1875 15.0319 13.4286L16.4274 4.37869L16.8655 4.82092C17.2063 5.19997 17.5471 5.57903 17.8878 5.97387C19.9649 8.34296 22.123 10.791 24.6382 12.3704C24.7518 12.4494 24.8816 12.5125 25.0276 12.5599C25.5144 12.7179 26.0337 12.7494 26.5367 12.6705L36.5162 11.0437C36.143 12.2125 35.494 13.3338 34.8124 14.5342C34.1634 15.6713 33.4818 16.8559 33.0275 18.0878C32.8327 18.451 32.6543 18.7827 32.492 19.067L31.9565 20.0462C31.4697 20.9465 31.4535 22.0205 31.9403 22.9365L34.8611 28.4012C35.0721 28.7802 35.3155 29.1751 35.5589 29.5699C35.8185 29.9964 36.4513 31.0388 36.6623 31.5442C36.2728 31.9548 35.1532 31.7811 33.0437 31.3073C31.778 31.0072 30.4474 30.7071 29.3277 30.7545L26.4069 30.2491C25.4982 30.0911 24.5733 30.328 23.8593 30.8808C23.762 30.9598 23.6808 31.0388 23.5834 31.1177L16.2489 38.3671C16.184 36.2034 15.7783 34.1502 15.3889 32.1285C15.2104 30.8966 14.967 29.6015 14.7885 28.259Z" fill="#1E1E1E"/>
<path d="M29.5876 17.5353C29.6688 17.5195 29.7337 17.5037 29.7986 17.4879C30.0095 17.4247 30.188 17.33 30.3503 17.2036C30.8371 16.8246 31.0967 16.2086 30.9831 15.5768C30.8209 14.6924 29.9933 14.1396 29.0846 14.2817C27.397 14.566 25.8879 14.7871 24.5086 14.4239C23.3078 14.108 22.2044 13.4131 21.4255 12.4812C20.8251 11.7547 19.7542 11.66 19.0077 12.2443C19.0077 12.2443 19.0077 12.2443 18.9915 12.2601C18.6507 12.5286 18.4236 12.9235 18.3911 13.3341C18.3587 13.7447 18.4722 14.1712 18.7643 14.5029C19.9813 15.9401 21.5716 16.9983 23.389 17.5195C25.4822 18.1512 27.5917 17.8827 29.5876 17.5353Z" fill="#1E1E1E"/>
</svg>
