<svg width="96" height="62" viewBox="0 0 96 62" fill="none" xmlns="http://www.w3.org/2000/svg">
<path d="M15.5 29.7017C13.5 34.5017 11.6667 41.035 11 43.7017V45.7016H85C85.5 38.2016 82 25.7017 78 21.2017C74 16.7017 58.5 6.20167 44.5 9.70167C30.5 13.2017 18 23.7017 15.5 29.7017Z" fill="white"/>
<path d="M46.8527 41.6406C47.2259 41.7986 47.6316 41.7986 48.021 41.7512C48.8811 41.6564 49.6924 41.3089 50.5037 41.0247C51.2015 40.7877 52.0291 40.5035 52.3698 39.8085C52.4672 39.6032 52.5321 39.3347 52.5483 39.0662C50.9905 34.7861 49.4977 30.4743 48.3293 26.0205C47.5667 23.1144 46.9176 20.1609 46.4957 17.1443C46.1225 14.5225 45.8304 11.8692 45.1002 9.37372C43.6722 9.53166 42.2605 9.89492 40.8812 10.3214C40.7514 10.3529 40.6378 10.4003 40.508 10.4319C39.1287 10.8741 37.7819 11.3637 36.4513 11.8218C33.7414 12.7378 31.0478 13.7012 28.5813 15.1227C27.705 16.1493 26.9424 17.2865 26.5205 18.471C25.6605 20.8559 27.3318 22.0088 28.7273 23.2881C34.926 28.9739 40.8163 35.0072 46.4308 41.3405C46.5606 41.4669 46.6904 41.5774 46.8527 41.6406Z" fill="#00A99D"/>
<path d="M94.43 58.4929C63.4855 58.2718 32.5084 57.8612 1.56387 58.8404C-0.513168 58.9036 -0.529395 62.0624 1.56387 61.9992C32.5084 61.02 63.4692 61.4306 94.43 61.6517C96.5233 61.6675 96.5233 58.5087 94.43 58.4929Z" fill="#1E1E1E"/>
<path d="M90.1949 46.0629C89.6108 45.6681 89.0591 45.7312 88.6209 45.9997C88.0854 45.984 87.55 45.9682 87.0145 45.9524C86.3492 38.0712 85.5378 29.3846 80.6536 22.8459C76.1912 16.8758 69.4733 12.185 62.512 9.38952C54.7393 6.26234 46.5448 6.40448 38.7721 9.46849C34.9101 11.0005 31.2753 13.0063 27.8028 15.2491C24.3789 17.4602 20.9064 19.7977 18.0829 22.7354C12.0141 29.0529 10.4887 37.5342 9.35286 45.7944C8.11962 45.8418 6.88638 45.8576 5.65314 45.905C5.42597 45.9208 5.23124 45.9682 5.05274 46.0471C4.27386 46.0945 3.55987 46.5841 3.59233 47.5475C3.67346 49.6323 2.94326 53.8493 5.37729 54.9707C6.61053 55.5392 8.20075 55.2865 9.51512 55.2708C11.5273 55.2708 13.5394 55.255 15.5353 55.255C23.1619 55.2234 30.7885 55.2076 38.4313 55.176C53.5548 55.1286 68.6944 55.0812 83.8178 55.0338C86.7386 55.018 90.5033 55.3023 91.9961 52.2699C93.0995 50.043 92.2395 47.4528 90.1949 46.0629ZM14.5941 35.4336C15.7787 35.9232 17.0444 36.2391 18.3425 36.3497C18.732 36.3813 19.2188 36.1444 19.4946 35.8917C19.7705 35.6232 19.9814 35.1651 19.9652 34.7703C19.949 34.3597 19.8029 33.9332 19.4946 33.6489C19.1539 33.3488 18.7969 33.2225 18.3425 33.1909C18.2938 33.1909 18.2452 33.1751 18.1965 33.1751C17.4176 33.0646 16.6712 32.8592 15.9409 32.5749C15.8436 32.5276 15.7462 32.4644 15.6489 32.4328C16.4115 30.5375 17.3689 28.7054 18.6184 27.0313C20.5169 24.4885 23.0158 22.4353 25.6121 20.5874C25.9204 21.2349 26.2937 21.8667 26.6182 22.4827C27.1699 23.5093 27.7054 24.5359 28.2571 25.5783C28.6466 26.3206 29.7662 26.5891 30.4802 26.1468C31.2591 25.6572 31.4863 24.7728 31.0644 23.9831C30.5451 22.9881 30.0096 21.993 29.4904 20.998C29.2307 20.5084 28.9711 20.0188 28.7115 19.5292C28.5979 19.3239 28.5005 19.1186 28.4032 18.9132C28.3869 18.8659 28.3707 18.8185 28.3545 18.7711C28.3545 18.7553 28.3382 18.7395 28.3382 18.7079C31.0481 16.9074 33.8554 15.2017 36.7924 13.7802C39.3563 12.5325 42.0175 11.5691 44.7274 10.9531C44.7274 11.0637 44.7111 11.1742 44.7436 11.3006C45.1655 13.0063 45.6036 14.6963 46.0255 16.402C46.2365 17.2075 47.2101 17.7603 48.0214 17.5076C48.8814 17.2391 49.3682 16.4178 49.1573 15.5649C48.7354 13.8592 48.2973 12.1692 47.8754 10.4635L47.8591 10.4477C51.3317 10.0529 54.8691 10.2582 58.4066 11.3006C61.1489 12.1061 63.8263 13.2906 66.3739 14.7436C65.8547 16.023 65.3841 17.3338 64.9947 18.6447C64.7513 19.4344 65.2867 20.3979 66.1305 20.5874C66.9906 20.7769 67.8668 20.3347 68.1264 19.4818C68.4348 18.471 68.7755 17.4602 69.165 16.4652C71.8099 18.2499 74.244 20.3189 76.321 22.5932C77.8788 24.299 79.0796 26.1942 80.0369 28.1842C77.7652 28.6581 75.5746 29.3688 73.4489 30.2848C72.67 30.6165 72.4266 31.7852 72.8647 32.4486C73.3839 33.2383 74.244 33.3804 75.0878 33.0172C75.2338 32.954 75.3961 32.8908 75.5421 32.8276C75.607 32.8119 75.6557 32.7803 75.6719 32.7803C75.964 32.6697 76.2561 32.5591 76.532 32.4486C77.0999 32.2433 77.6678 32.0537 78.2358 31.88C79.2256 31.5799 80.2154 31.3588 81.2377 31.1535C82.828 35.8285 83.3472 40.9141 83.7691 45.826C74.6659 45.5259 65.5464 45.368 56.4431 45.289C56.5892 43.7412 56.1835 42.2408 55.0801 41.0563C54.4148 40.3297 53.5385 39.8717 52.5811 39.6032C52.5487 39.5085 52.5325 39.4295 52.4838 39.3347C49.7901 35.1336 47.9078 30.5217 45.7983 26.0363C44.7598 23.8409 43.7375 21.5508 42.342 19.545C41.3197 18.0604 38.691 15.9914 36.9385 17.7919C35.186 19.5924 37.4415 23.0354 38.2366 24.7728C39.3725 27.2208 40.4435 29.7005 41.4495 32.2117C42.4556 34.7071 43.3968 37.2341 44.2568 39.7612C44.5489 40.5982 44.7598 41.688 45.3927 42.3987C45.2953 42.5725 45.1655 42.7304 45.0843 42.9041C45.0843 42.9199 45.0681 42.9357 45.0681 42.9515C45.0519 42.9989 45.0357 43.0621 45.0032 43.1095C44.9708 43.22 44.9383 43.3148 44.9221 43.4253C44.9221 43.4569 44.9058 43.5043 44.9058 43.5517C44.9058 43.5675 44.9058 43.5833 44.9058 43.5991C44.9058 43.6938 44.9058 43.8044 44.9221 43.8992C44.9545 44.1045 44.8572 44.2624 44.7274 44.4046C44.6787 44.6731 44.63 44.9573 44.5975 45.2258C33.9365 45.2416 23.2755 45.3838 12.6145 45.6997C13.0526 42.2882 13.6043 38.7819 14.5941 35.4336ZM53.2627 44.9258C53.2464 45.0363 53.2627 45.1627 53.2627 45.2732C51.4453 45.2574 49.6279 45.2258 47.8105 45.2258C47.8105 45.1943 47.8105 45.1627 47.8105 45.1311C47.8267 45.0679 47.8429 44.9416 47.8591 44.8942C47.8916 44.7678 47.924 44.6573 47.9565 44.5309C47.989 44.4046 48.0376 44.294 48.0701 44.1677C48.0863 44.1045 48.0863 44.0887 48.1025 44.0729C48.1188 44.0571 48.1188 44.0571 48.1512 43.9939C48.2648 43.757 48.3946 43.5517 48.5407 43.3306C48.5569 43.299 48.5893 43.2674 48.6218 43.2516C48.638 43.2358 48.7516 43.1253 48.8165 43.0621C48.8814 43.0305 48.9788 42.9515 48.995 42.9357C49.0761 42.8883 49.1735 42.841 49.2709 42.7936C49.3195 42.7778 49.4818 42.7304 49.5143 42.7146C49.6441 42.6672 49.7901 42.6356 49.9199 42.6199C50.0335 42.6041 50.1471 42.5883 50.2445 42.5567C50.2932 42.5567 50.3418 42.5409 50.4068 42.5409C50.6988 42.5093 51.0071 42.5093 51.2992 42.5251C51.3479 42.5251 51.3641 42.5251 51.3966 42.5251C51.4128 42.5251 51.429 42.5409 51.4615 42.5409C51.5751 42.5725 51.6724 42.5883 51.786 42.6199C51.8347 42.6356 51.8834 42.6514 51.9483 42.6672C52.0294 42.7146 52.1268 42.7462 52.2079 42.7936C52.2891 42.841 52.354 42.8883 52.4351 42.9357C52.4027 42.9199 52.5974 43.0621 52.6298 43.0937C52.711 43.1726 52.7759 43.2516 52.857 43.3306C52.8732 43.3622 52.9057 43.3938 52.9381 43.4411C53.0193 43.5517 53.0679 43.678 53.1491 43.8044C53.1653 43.8202 53.1491 43.8044 53.1653 43.8202C53.1653 43.836 53.1653 43.836 53.1815 43.8676C53.214 43.9939 53.2627 44.1361 53.2951 44.2624C53.3114 44.294 53.3113 44.3256 53.3276 44.3414C53.3276 44.3572 53.3276 44.3572 53.3276 44.3888C53.3276 44.5309 53.3438 44.6573 53.3438 44.7994C53.2627 44.8942 53.1978 45.289 53.2627 44.9258ZM87.5662 51.7961C85.7488 52.1909 83.6231 51.9225 81.7732 51.9225C78.0248 51.9382 74.2764 51.954 70.528 51.954C62.9014 51.9856 55.2748 52.0014 47.632 52.033C40.0053 52.0646 32.3787 52.0804 24.7359 52.112C20.9875 52.1278 17.2391 52.1436 13.4907 52.1436C11.6246 52.1436 9.7423 52.1909 7.85999 52.1594C6.54562 52.1436 6.96751 51.8277 6.91883 50.6116C6.90261 50.0904 6.87015 49.5692 6.85392 49.048C34.0988 48.1161 61.3761 48.1477 88.6209 49.1585C88.7183 49.1585 88.7994 49.1269 88.8806 49.1111C89.838 50.1535 88.8319 51.5118 87.5662 51.7961Z" fill="#1E1E1E"/>
<path d="M91.3146 25.7838C91.0063 25.468 90.5682 25.2942 90.1625 25.1363C89.5134 24.8678 88.8481 24.6467 88.1828 24.473C88.2477 24.3782 88.3127 24.2834 88.3776 24.1887C88.4425 24.0939 88.5074 24.0149 88.5723 23.9202C88.4911 24.0307 88.5236 23.9991 88.6534 23.8254C89.0753 23.3042 89.2863 22.6724 89.0915 22.0091C88.7346 20.8088 87.4202 20.6508 86.3816 20.3665C86.3167 20.3508 86.2356 20.3192 86.1545 20.3034C86.479 20.0033 86.8036 19.7032 87.1119 19.3873C87.8745 18.6134 88.41 17.8553 87.8745 16.7813C87.3715 15.7863 86.2031 15.5494 85.1646 15.4073C84.5156 15.3283 83.899 15.3125 83.2499 15.3125C83.2174 15.3125 83.1525 15.3125 83.1038 15.3283C83.185 15.1861 83.2337 15.0756 83.2661 15.0282C83.5744 14.4438 83.8827 13.8437 84.2073 13.2593C84.6616 12.3906 84.3046 11.1745 83.2336 10.9376C82.0815 10.6849 80.9781 10.6691 79.826 10.827C79.3392 10.8902 78.8686 10.9692 78.3818 11.0482C78.609 10.4954 78.9011 9.97417 79.0958 9.42139C79.469 8.3474 79.2418 7.16286 78.1222 6.61007C76.4508 5.78879 74.601 6.92595 72.7836 7.41556C73.2704 5.91514 73.384 4.33576 71.4367 4.00408C70.3982 3.83035 69.1163 4.2094 68.094 4.39893C67.5747 4.49369 67.0393 4.62004 66.52 4.7306C66.6011 3.9567 66.7147 3.16701 66.8932 2.39311C67.2178 1.01904 65.7736 -0.0391528 64.5079 0.608396L59.153 3.32495C57.3032 4.25679 58.9421 6.98913 60.7919 6.05729C61.6195 5.63085 62.4471 5.22021 63.2746 4.79378C63.226 5.45712 63.1611 6.13626 63.1773 6.81539C63.1935 7.8262 64.1996 8.63169 65.2381 8.33161C66.2279 8.04732 67.234 7.77882 68.2563 7.5735C68.6133 7.49453 68.9865 7.43135 69.3435 7.36818C69.1812 7.79461 69.0189 8.23684 68.8729 8.66328C68.597 9.42138 69.1812 10.4638 70.0088 10.6059C71.242 10.827 72.3779 10.7797 73.5949 10.4796C74.1628 10.3374 74.7146 10.1479 75.2663 9.97417C75.2987 9.95837 75.3312 9.94258 75.3636 9.94258C75.1689 10.4006 74.9742 10.8744 74.8281 11.3482C74.5036 12.3433 74.4387 13.3699 75.4285 14.0332C76.3535 14.6492 77.5705 14.3333 78.5928 14.1753C79.1283 14.0964 79.6637 14.0016 80.1992 13.9384C80.0532 14.2069 79.9071 14.4754 79.7611 14.7597C79.2905 15.6916 78.8524 16.7182 79.5988 17.65C80.54 18.8345 82.1465 18.4871 83.6393 18.4239C83.0714 18.9135 82.4872 19.3715 82.0004 19.8296C81.2053 20.5719 81.4811 21.5353 82.1302 22.0723C82.3412 22.3566 82.617 22.5935 82.9902 22.6882C83.6718 22.8778 84.3533 23.0673 85.0348 23.241L85.1646 23.2726C85.0835 23.4148 84.9699 23.5569 84.905 23.6991C84.402 24.6467 84.1748 25.7838 85.0348 26.6367C85.6677 27.2685 86.5601 27.2527 87.3715 27.458C87.4688 27.4738 87.55 27.5212 87.6473 27.537C87.6311 27.5686 87.5987 27.5844 87.5662 27.6159C87.047 28.2477 86.5601 28.911 86.1383 29.6376C85.7164 30.3483 85.9435 31.3907 86.7224 31.8013C87.4851 32.1962 88.4911 32.0066 88.9455 31.2327C89.124 30.9169 89.3349 30.601 89.5459 30.3009C89.6595 30.143 89.7731 29.985 89.8866 29.8429C89.9191 29.8113 90.0489 29.6534 90.0651 29.6218C90.3085 29.3375 90.5682 29.069 90.8278 28.8163C91.1361 28.5162 91.4769 28.2635 91.6878 27.8686C92.0448 27.1895 91.8663 26.3524 91.3146 25.7838Z" fill="#FBB03B"/>
</svg>
