<svg width="96" height="96" viewBox="0 0 96 96" fill="none" xmlns="http://www.w3.org/2000/svg">
<path d="M15.5 64.7017C13.5 69.5017 11.6667 76.0351 11 78.7017V80.7017H85C85.5 73.2017 82 60.7017 78 56.2017C74 51.7017 58.5 41.2017 44.5 44.7017C30.5 48.2017 18 58.7017 15.5 64.7017Z" fill="white"/>
<path d="M66.6174 45.8864C62.6581 43.2894 57.2709 42.4288 52.5815 42.7308C50.7803 42.8516 47.9731 42.7912 47.4376 44.8597C46.4803 44.8748 45.4904 45.6297 45.7825 46.7923C46.9184 51.3672 47.3078 56.0327 47.5512 60.7133C47.7946 65.3033 48.184 69.999 47.3889 74.5588C47.2104 75.5705 47.8108 76.5066 48.9467 76.5368C50.2773 76.5821 51.4943 77.0501 52.7275 77.488C53.6849 77.8353 54.7234 78.3486 55.7456 77.9561C56.5894 77.6239 57.0275 76.8237 57.4819 76.114C58.2121 74.9514 58.8773 73.7586 59.5102 72.5507C61.9117 68.006 63.7778 63.2197 65.6925 58.4636C66.6661 56.0478 67.948 53.5566 68.5971 51.0351C69.1488 48.9363 68.4997 47.1094 66.6174 45.8864Z" fill="#00A99D"/>
<path d="M94.4295 92.6474C63.4854 92.436 32.5089 92.0434 1.56482 92.9796C-0.512183 93.04 -0.528409 96.0597 1.56482 95.9993C32.5089 95.0632 63.4692 95.4558 94.4295 95.6671C96.5227 95.6822 96.5227 92.6625 94.4295 92.6474Z" fill="#1E1E1E"/>
<path d="M90.1945 80.7644C89.6104 80.3869 89.0587 80.4473 88.6205 80.704C88.0851 80.6889 87.5496 80.6738 87.0141 80.6587C86.3488 73.1244 85.5375 64.8201 80.6533 58.5693C76.191 52.862 69.4732 48.3776 62.512 45.7052C54.7395 42.7156 46.545 42.8515 38.7725 45.7807C34.9106 47.2452 31.2758 49.1628 27.8034 51.3068C24.3795 53.4206 20.9071 55.6552 18.0836 58.4636C12.0149 64.5031 10.4896 72.6111 9.35375 80.5077C8.12053 80.553 6.88731 80.5681 5.65409 80.6134C5.42692 80.6285 5.23218 80.6738 5.05369 80.7493C4.27482 80.7946 3.56086 81.2626 3.59331 82.1836C3.67444 84.1767 2.94423 88.208 5.37822 89.28C6.61144 89.8236 8.20165 89.582 9.516 89.5669C11.5281 89.5669 13.5402 89.5518 15.5361 89.5518C23.1626 89.5216 30.789 89.5065 38.4318 89.4763C53.5549 89.431 68.6781 89.3857 83.8175 89.3404C86.7383 89.3253 90.5028 89.5971 91.9957 86.6981C93.0991 84.5692 92.2553 82.093 90.1945 80.7644ZM14.5949 70.6029C15.7795 71.071 17.0451 71.373 18.3433 71.4787C18.7327 71.5089 19.2195 71.2824 19.4954 71.0408C19.7712 70.7841 19.9821 70.3463 19.9659 69.9688C19.9497 69.5762 19.8037 69.1686 19.4954 68.8968C19.1546 68.6099 18.7976 68.4891 18.3433 68.4589C18.2946 68.4589 18.2459 68.4438 18.1972 68.4438C17.4183 68.3381 16.6719 68.1418 15.9417 67.8701C15.8444 67.8248 15.747 67.7644 15.6496 67.7342C16.4123 65.9223 17.3697 64.1709 18.6191 62.5704C20.5176 60.1395 23.0165 58.1767 25.6128 56.4102C25.9211 57.0292 26.2943 57.6331 26.6188 58.222C27.1705 59.2034 27.706 60.1848 28.2577 61.1813C28.6471 61.891 29.7668 62.1477 30.4807 61.7249C31.2596 61.2568 31.4868 60.4113 31.0649 59.6564C30.5456 58.7052 30.0102 57.7539 29.4909 56.8027C29.2313 56.3347 28.9717 55.8666 28.712 55.3985C28.5985 55.2023 28.5011 55.006 28.4037 54.8097C28.3875 54.7644 28.3713 54.7191 28.3551 54.6738C28.3551 54.6587 28.3388 54.6436 28.3388 54.6134C31.0487 52.8922 33.8559 51.2615 36.7929 49.9026C39.3567 48.7098 42.0178 47.7888 44.7277 47.1999C44.7277 47.3056 44.7114 47.4113 44.7439 47.5321C45.1658 49.1628 45.6039 50.7783 46.0258 52.409C46.2367 53.179 47.2103 53.7075 48.0216 53.4659C48.8817 53.2092 49.3685 52.4241 49.1575 51.6088C48.7356 49.9781 48.2975 48.3625 47.8756 46.7319L47.8594 46.7168C51.3319 46.3393 54.8693 46.5356 58.4067 47.5321C61.149 48.3021 63.8263 49.4346 66.3739 50.8236C65.8547 52.0466 65.3841 53.2998 64.9947 54.553C64.7513 55.3079 65.2867 56.229 66.1305 56.4102C66.9905 56.5913 67.8668 56.1686 68.1264 55.3532C68.4347 54.3869 68.7754 53.4206 69.1487 52.4694C71.7936 54.1755 74.2276 56.1535 76.3046 58.3277C77.8623 59.9583 79.0631 61.7702 80.0204 63.6726C77.7487 64.1256 75.5581 64.805 73.4325 65.6808C72.6536 65.9978 72.4102 67.1151 72.8483 67.7493C73.3676 68.5042 74.2276 68.6401 75.0714 68.2928C75.2174 68.2324 75.3797 68.172 75.5257 68.1116C75.5906 68.0965 75.6393 68.0664 75.6555 68.0664C75.9476 67.9607 76.2397 67.855 76.5155 67.7493C77.0835 67.553 77.6514 67.3718 78.2193 67.2057C79.2091 66.9188 80.199 66.7075 81.2212 66.5112C82.8114 70.9804 83.3307 75.8422 83.7526 80.5379C74.6495 80.251 65.5301 80.1 56.427 80.0245C56.5731 78.5448 56.1674 77.1105 55.064 75.9781C54.6746 75.5704 54.1878 75.2684 53.6847 75.0118C53.6847 73.0942 54.6745 71.2069 55.1776 69.3648C55.7131 67.3869 56.1025 65.3788 56.4108 63.3556C56.7191 61.3323 56.9625 59.3091 57.1735 57.2708C57.3357 55.7005 57.9848 53.4659 56.4757 52.3033C55.8915 51.8503 55.1938 51.7296 54.5123 52.0617C52.8572 52.8771 52.6138 54.8852 52.4028 56.4252C52.127 58.4183 52.0296 60.3962 51.6889 62.3741C51.0074 66.33 49.9039 70.1953 48.8168 74.0605C48.7519 74.2719 48.7518 74.4682 48.7843 74.6494C48.6545 74.6796 48.5084 74.7098 48.3786 74.7551C48.3624 74.74 48.3462 74.74 48.33 74.7249C48.2326 74.8004 48.119 74.891 47.9892 74.9966C47.8107 75.1174 47.6484 75.2382 47.47 75.359C47.4537 75.3741 47.2103 75.5402 47.3077 75.4798C47.2266 75.5251 47.1617 75.5855 47.0967 75.6459C46.8047 75.8724 46.5613 76.114 46.3179 76.3706C46.253 76.4461 46.253 76.4461 46.3016 76.3857C46.2692 76.431 46.2367 76.4612 46.2043 76.5065C46.1556 76.5669 46.1069 76.6273 46.0582 76.7028C46.0096 76.7783 45.9609 76.8387 45.9122 76.9142C45.6688 77.2615 45.4092 77.5936 45.182 77.9409C45.0522 78.1372 44.9386 78.3184 44.825 78.5146C44.825 78.5297 44.825 78.5146 44.825 78.5297C44.825 78.5448 44.8088 78.5599 44.8088 78.575C44.825 78.6656 44.8088 78.7562 44.7926 78.8619H44.8088C44.7277 79.2243 44.6628 79.6018 44.6303 79.9792C33.9694 79.9943 23.3086 80.1302 12.6477 80.4322C13.0696 77.1558 13.6051 73.8039 14.5949 70.6029ZM53.2629 79.6772C53.2466 79.7829 53.2629 79.9037 53.2629 80.0094C51.4455 79.9943 49.6281 79.9641 47.8107 79.9641C47.8107 79.9339 47.8107 79.9037 47.8107 79.8735C47.8269 79.8131 47.8432 79.6923 47.8594 79.647C47.8919 79.5263 47.9243 79.4206 47.9568 79.2998C47.9892 79.179 48.0379 79.0733 48.0704 78.9525C48.0866 78.8921 48.0866 78.877 48.1028 78.8619C48.1028 78.8468 48.119 78.8468 48.1515 78.7864C48.265 78.5599 48.3949 78.3637 48.5409 78.1523C48.5571 78.1221 48.5896 78.0919 48.622 78.0768C48.6383 78.0617 48.7519 77.956 48.8168 77.8956C48.8817 77.8654 48.979 77.7899 48.9953 77.7748C49.0764 77.7295 49.1737 77.6842 49.2711 77.6389C49.3198 77.6238 49.4821 77.5785 49.5145 77.5634C49.6443 77.5181 49.7904 77.4879 49.9202 77.4728C50.0338 77.4577 50.1473 77.4426 50.2447 77.4124C50.2934 77.4124 50.3421 77.3973 50.407 77.3973C50.699 77.3671 51.0073 77.3671 51.2994 77.3822C51.3481 77.3822 51.3643 77.3822 51.3968 77.3822C51.413 77.3822 51.4292 77.3973 51.4617 77.3973C51.5753 77.4275 51.6726 77.4426 51.7862 77.4728C51.8349 77.4879 51.8836 77.503 51.9485 77.5181C52.0296 77.5634 52.127 77.5936 52.2081 77.6389C52.2892 77.6842 52.3541 77.7295 52.4353 77.7748C52.4028 77.7597 52.5976 77.8956 52.63 77.9258C52.7111 78.0013 52.7761 78.0768 52.8572 78.1523C52.8734 78.1825 52.9059 78.2127 52.9383 78.258C53.0195 78.3637 53.0681 78.4845 53.1493 78.6052C53.1655 78.6203 53.1493 78.6052 53.1655 78.6203C53.1655 78.6354 53.1655 78.6354 53.1817 78.6656C53.2142 78.7864 53.2628 78.9223 53.2953 79.0431C53.3115 79.0733 53.3115 79.1035 53.3115 79.1186C53.3115 79.1337 53.3115 79.1337 53.3115 79.1639C53.3115 79.2998 53.3277 79.4206 53.3277 79.5565C53.2628 79.647 53.2142 80.0245 53.2629 79.6772ZM87.582 86.2452C85.7647 86.6226 83.639 86.366 81.7892 86.366C78.0408 86.3811 74.2925 86.3962 70.5441 86.3962C62.9176 86.4264 55.2749 86.4415 47.6484 86.4717C40.022 86.5019 32.3955 86.517 24.7528 86.5472C21.0044 86.5623 17.2561 86.5774 13.5077 86.5774C11.6417 86.5774 9.75941 86.6226 7.87712 86.5924C6.56277 86.5774 6.98466 86.2754 6.93598 85.1128C6.91975 84.6145 6.88731 84.1163 6.87108 83.618C34.1155 82.7272 61.3924 82.7574 88.6368 83.7237C88.7341 83.7237 88.8153 83.6935 88.8964 83.6784C89.8375 84.6749 88.8315 85.9734 87.582 86.2452Z" fill="#1E1E1E"/>
<path d="M51.8838 0.0169763V0.000976562H51.8998L51.8838 0.0169763Z" fill="#FBB03B"/>
<path d="M88.5557 61.5288C86.7221 57.6937 84.3368 54.1304 81.5134 50.854C80.9617 50.2198 79.7934 50.3255 79.2255 50.854C78.5439 51.4881 78.6737 52.3488 79.2255 52.9829C81.8217 56.0026 84.0447 59.4602 85.7648 63.0386C86.1217 63.7785 87.29 63.9597 87.9878 63.5822C88.7991 63.1443 88.9127 62.2837 88.5557 61.5288Z" fill="#FBB03B"/>
<path d="M89.8706 54.4018C89.5299 53.6317 89.0755 52.8919 88.5563 52.1974C88.4265 52.0313 88.2804 51.9105 88.0857 51.8199C87.9072 51.6991 87.7125 51.6387 87.5016 51.6236C87.2744 51.5934 87.0634 51.6085 86.8525 51.6689C86.6416 51.6991 86.4468 51.7897 86.2846 51.9256C85.9763 52.1672 85.7166 52.5144 85.668 52.907C85.668 53.0429 85.668 53.1788 85.668 53.3147C85.7004 53.5865 85.814 53.828 85.9925 54.0394C86.1061 54.1904 86.2197 54.3565 86.317 54.5226C86.528 54.8547 86.7065 55.202 86.8687 55.5644C87.031 55.9116 87.3555 56.2287 87.7287 56.3646C87.9234 56.4552 88.1344 56.4854 88.3453 56.4703C88.5725 56.4854 88.7835 56.4552 88.9782 56.3646C89.3514 56.1985 89.6921 55.9267 89.8382 55.5644C90.0329 55.202 90.0491 54.7792 89.8706 54.4018Z" fill="#FBB03B"/>
</svg>
