<svg width="45" height="55" viewBox="0 0 45 55" fill="none" xmlns="http://www.w3.org/2000/svg">
<path d="M36.0758 32.6214C35.9561 29.9924 36.2098 26.8404 35.0363 24.3758C34.7817 23.8322 34.4092 23.3308 33.9799 22.8933C33.5505 22.4558 32.8079 22.1761 32.4196 21.7195C31.855 21.0326 31.9007 19.6378 31.7004 18.7943C30.5246 13.7086 27.9818 8.94526 24.4027 5.07486C23.474 4.05745 21.3013 3.79223 20.5707 5.23008C18.4324 9.34413 16.3903 13.5259 16.5124 18.2889C16.5716 20.8462 17.0861 23.3294 17.7132 25.7854C16.129 26.8203 15.7687 29.4473 15.2302 31.0708C14.3482 33.7651 17.7954 35.187 19.522 33.2619C19.8268 32.9331 20.1065 32.5785 20.3556 32.2132C21.1687 32.585 22.1756 32.5048 22.9158 32.0613C23.3648 32.1027 23.8243 32.1142 24.3254 32.0564C25.384 31.9272 26.3942 31.5458 27.3839 31.1739C27.8609 30.99 28.3125 30.7803 28.8042 30.652C28.8247 30.6425 28.84 30.6479 28.8605 30.6384C29.3419 31.4638 30.296 32.0199 31.2308 31.9981C31.235 32.0836 31.2392 32.1691 31.2434 32.2545C31.3061 33.5365 32.0953 34.7061 33.5138 34.8219C34.7028 34.9068 36.1333 33.9183 36.0758 32.6214ZM24.5875 16.3268C24.3095 16.5307 23.9652 16.728 23.5972 16.7489C23.0861 16.7863 22.6182 16.6039 22.3268 16.1648C21.9448 15.5929 21.8519 14.737 22.1395 14.1165C22.4324 13.4811 22.9431 13.0069 23.6448 12.8185C23.6806 12.8144 23.7111 12.8252 23.7469 12.8211C23.8291 12.783 23.8959 12.7395 23.9881 12.7217C24.3565 12.6506 24.7839 12.8018 25.0207 13.104C25.2274 13.3452 25.3316 13.634 25.3946 13.9418C25.433 14.1738 25.4508 14.4152 25.4381 14.6459C25.3905 15.2673 25.1129 15.9081 24.5875 16.3268Z" fill="#00A99D"/>
<path d="M10.2511 23.1989C10.2422 23.0781 10.1769 22.971 10.1117 22.8639L9.95014 22.6891C9.81856 22.5753 9.68643 22.5117 9.50796 22.4822C9.42637 22.4701 9.33951 22.4729 9.25791 22.4608C9.08417 22.4665 8.94041 22.5333 8.79139 22.6149C8.68817 22.7128 8.56969 22.8053 8.48173 22.9085C8.41958 22.9873 8.35215 23.0811 8.3 23.1802C8.28946 23.2101 8.26364 23.2346 8.2531 23.2644C8.24256 23.2943 8.23202 23.3242 8.22148 23.354C8.18459 23.4586 8.1477 23.5631 8.11608 23.6528C8.095 23.7125 8.08392 23.7926 8.07811 23.8577C8.05122 23.9826 8.06012 24.1034 8.10483 24.22C8.11374 24.3408 8.179 24.4479 8.24425 24.555C8.30949 24.6621 8.40054 24.7447 8.50213 24.7975C8.59845 24.8652 8.71531 24.9234 8.83271 24.9313C8.91431 24.9434 9.00117 24.9405 9.08277 24.9526C9.25651 24.9469 9.40027 24.8802 9.54929 24.7986C9.6009 24.7496 9.67304 24.6911 9.72465 24.6422C9.83314 24.5294 9.90113 24.3855 9.92329 24.2253C9.91857 24.19 9.93436 24.1452 9.9449 24.1153C9.95017 24.1004 9.95017 24.1004 9.95544 24.0855C9.98652 24.0461 10.0123 24.0216 10.0434 23.9822C10.0176 24.0067 9.99706 24.0162 9.97125 24.0407C9.97652 24.0257 9.98179 24.0108 9.98179 24.0108C10.0334 23.9619 10.0797 23.9279 10.1161 23.8735C10.1835 23.7798 10.2409 23.6657 10.2473 23.5503C10.3047 23.4362 10.2958 23.3155 10.2511 23.1989Z" fill="#FBB03B"/>
<path d="M26.0042 12.9313C25.2064 11.5407 23.3891 10.9473 22.0337 11.6255C21.8642 11.7166 21.6741 11.8172 21.5089 11.9937C21.1962 12.1012 20.9283 12.3253 20.7514 12.632C20.0341 13.8385 19.8026 14.9821 20.0875 16.0736C20.2398 16.6648 20.5762 17.2205 21.0469 17.6391C21.5581 18.0888 22.2399 18.3471 23.0158 18.3869C23.1332 18.3949 23.2406 18.3826 23.358 18.3906C24.4314 18.3175 25.4084 17.6899 26.0062 16.6761C26.6515 15.5279 26.6513 14.0672 26.0042 12.9313ZM21.8509 14.969C21.8125 14.7371 21.8251 14.5065 21.8835 14.2922C21.974 13.9381 22.2277 13.6082 22.5814 13.4817C22.8736 13.3837 23.2052 13.4173 23.49 13.535C23.8612 13.7 24.1955 13.9695 24.4219 14.3016C24.4572 14.3477 24.5025 14.4141 24.512 14.4846C24.5262 14.5904 24.4946 14.6799 24.4578 14.7844C24.4099 14.9689 24.3978 15.1493 24.4163 15.3405C24.4305 15.4463 24.4752 15.5629 24.4537 15.6728C24.4268 15.7976 24.3542 15.9061 24.251 16.0039C23.6373 16.5756 22.6492 16.3095 22.1653 15.6848C21.9989 15.4747 21.8941 15.2361 21.8509 14.969Z" fill="#1E1E1E"/>
<path d="M32.7047 22.7843C32.6194 22.6365 32.5235 22.5186 32.3661 22.4292C32.5144 14.9412 29.3287 7.74963 23.6327 2.7083C23.2377 2.3668 22.7586 2.26417 22.3173 2.4437C21.7481 2.15801 21.1641 2.30376 20.8062 2.83189C16.3856 9.42738 14.4605 16.7896 15.3762 23.647C13.989 27.3876 13.6901 30.6237 14.4675 33.5358C14.6546 34.2235 15.2047 35.8795 16.4649 36.5444C17.0442 36.8505 17.6671 36.8865 18.3284 36.6674C19.4204 36.2986 19.7014 35.3065 19.9455 34.419L20.3112 33.1379C20.5103 33.158 20.7351 33.1537 20.9905 33.1602L21.3633 33.1748C21.9351 33.2095 22.4917 33.2388 23.0536 33.2531C25.6122 33.3537 27.7137 33.1915 29.685 32.7648C29.7003 32.7702 29.7208 32.7607 29.7414 32.7512C29.9626 33.0983 30.1528 33.4848 30.3277 33.8658C30.5326 34.3079 30.7476 34.7704 31.0399 35.1595C31.4128 35.6611 31.9515 35.9359 32.5855 35.8919C33.1842 35.8017 33.6628 35.4675 33.9233 34.972C34.2728 34.273 34.4042 33.4127 34.5304 32.5673C35.0294 29.2509 34.3999 25.8706 32.7047 22.7843ZM17.3288 33.5085C17.284 33.3919 17.2445 33.2603 17.205 33.1288C17.0316 32.5971 16.9099 32.0166 16.845 31.3722C16.7653 30.6722 16.7625 29.949 16.8418 29.1878C17.031 29.6747 17.2307 30.1317 17.4456 30.5942L17.5104 30.7515C17.6152 30.9901 17.7401 31.2695 17.8907 31.5244L17.3288 33.5085ZM27.9626 30.3407C26.7242 30.54 25.3593 30.6106 23.638 30.5716C22.7339 30.5535 21.825 30.5002 21.0641 30.4657L20.8803 30.4509C20.7324 30.4321 20.5791 30.4282 20.4717 30.4405L20.4565 30.4351C20.4565 30.4351 20.4412 30.4297 20.4206 30.4392C20.3248 30.3213 20.1594 30.0107 20.0898 29.8181C20.065 29.7422 20.0198 29.6758 20.0098 29.6554C19.1447 27.8206 18.5519 25.8472 18.2197 23.8653C18.2949 23.5057 18.2575 23.1733 18.1115 22.9537L18.0915 22.913C17.3946 17.1408 18.9608 10.8941 22.4923 5.31032C29.3328 11.8321 31.534 21.8656 27.9626 30.3407ZM30.9898 30.0867C31.2634 29.3103 31.5012 28.5381 31.688 27.7646C31.7755 28.1986 31.843 28.592 31.8799 28.9746C31.9538 29.7397 31.9672 30.433 31.9194 31.1046C31.6323 30.7006 31.3342 30.3767 30.9898 30.0867Z" fill="#1E1E1E"/>
<path d="M24.9668 36.1057C22.8295 36.2722 20.1514 37.3387 19.0833 39.832C17.9995 42.37 19.3478 44.8795 20.6361 46.7801C21.2702 47.71 21.9965 48.6222 22.6269 49.4164C23.439 50.4262 24.2712 51.4766 24.9648 52.5788C25.2313 52.9922 25.6531 53.2088 26.1081 53.1853C26.195 53.1825 26.2871 53.1647 26.3792 53.147C26.9327 52.9904 27.495 52.4675 27.4717 51.7539C27.4104 49.7842 27.9104 47.879 29.0138 45.9189L29.1023 45.7655C30.1641 43.8746 31.1686 42.0977 30.9308 39.8976C30.8887 39.53 30.7385 39.2249 30.4547 39.0068C29.5492 36.6542 26.9763 35.9611 24.9668 36.1057ZM28.1959 40.5409C28.1818 41.8962 27.4743 43.1233 26.7825 44.3056C26.5172 44.7658 26.2571 45.2111 26.0481 45.6576C25.667 46.4462 25.3464 47.3067 25.138 48.19L24.901 47.8878C24.5834 47.473 24.2606 47.0732 23.9277 46.653L23.706 46.3561C22.738 45.1064 21.5482 43.5599 21.4311 42.0406C21.3298 40.4766 22.7209 39.3572 24.1505 38.9568C24.4733 38.8696 24.8982 38.7851 25.3532 38.7615C26.0588 38.7092 26.8244 38.7789 27.3474 39.0984C27.6723 39.2975 27.8688 39.5686 27.952 39.9172C27.9652 40.1233 28.0552 40.3064 28.1959 40.5409Z" fill="#1E1E1E"/>
<path d="M13.7329 24.0617C13.4862 23.6888 13.1105 23.4382 12.7174 23.3829C11.9465 23.2779 11.2879 23.6829 11.05 24.4551C10.4897 26.2386 10.2958 28.2022 10.4754 30.1302C10.5124 30.5128 10.7232 30.8898 11.0479 31.1391C11.342 31.3776 11.6987 31.4872 12.0517 31.461C12.0723 31.4515 12.0876 31.4569 12.1081 31.4474C12.9116 31.3625 13.4911 30.6943 13.4224 29.9142C13.3859 29.4814 13.3647 29.054 13.3641 28.6171L13.3682 28.2155C13.3756 27.9997 13.3982 27.7894 13.426 27.5641C13.5059 26.7526 13.6933 25.9288 13.9418 25.1267C14.0218 24.8023 13.9543 24.4089 13.7329 24.0617Z" fill="#1E1E1E"/>
<path d="M33.4597 8.80457C33.12 8.06297 32.2707 7.69496 31.5578 7.96296C31.1782 8.11394 30.8634 8.42221 30.7166 8.78996C30.5803 9.12787 30.5919 9.4846 30.7367 9.80456C31.5362 11.5318 31.9787 13.1997 32.1537 15.0416C32.1906 15.424 32.386 15.7955 32.7104 16.0447C33.0042 16.2831 33.3607 16.3926 33.7134 16.3664C33.734 16.3569 33.7492 16.3623 33.7698 16.3528C34.5727 16.2678 35.1518 15.5998 35.0779 14.8349C34.885 12.7516 34.334 10.7094 33.4597 8.80457Z" fill="#1E1E1E"/>
<path d="M36.8402 10.2145C36.7956 10.0978 36.7251 10.0057 36.6136 9.93257C36.5226 9.84995 36.4211 9.79721 36.2938 9.76894C36.1718 9.72574 36.0597 9.70288 35.9166 9.71944C35.8397 9.74266 35.7529 9.74554 35.6761 9.76876C35.5224 9.8152 35.3887 9.90232 35.2902 10.0355L35.1554 10.2231C35.0874 10.3671 35.05 10.5219 35.0735 10.6983L35.0912 10.9399C35.1001 11.0606 35.1448 11.1773 35.2099 11.2844C35.2546 11.401 35.325 11.4932 35.4365 11.5663C35.5275 11.6489 35.629 11.7016 35.7563 11.7299C35.8784 11.7731 35.9904 11.796 36.1336 11.7794C36.2104 11.7562 36.2972 11.7533 36.3741 11.7301C36.5277 11.6836 36.6614 11.5965 36.7599 11.4633L36.8947 11.2758C36.9627 11.1318 37.0002 10.977 36.9766 10.8006L36.9589 10.559C36.95 10.4382 36.9054 10.3216 36.8402 10.2145Z" fill="#FBB03B"/>
</svg>
