<svg width="30" height="48" viewBox="0 0 30 48" fill="none" xmlns="http://www.w3.org/2000/svg">
<path d="M29.3267 24.2248C28.3405 21.7836 27.5322 18.7242 25.6083 16.7903C25.188 16.3623 24.6706 16.0136 24.121 15.7441C23.5713 15.4746 22.7791 15.4588 22.2617 15.1576C21.5019 14.6979 21.0815 13.3664 20.6127 12.6372C17.8158 8.23043 13.8387 4.58455 9.18255 2.12755C7.97002 1.47763 5.83597 1.95318 5.6258 3.5542C4.97912 8.15118 4.44559 12.7799 6.14313 17.2342C7.04849 19.6278 8.35803 21.7995 9.76457 23.9077C8.61671 25.4136 9.15022 28.0133 9.18255 29.7253C9.24722 32.5627 12.9656 32.7529 13.9518 30.3593C14.1297 29.9472 14.2752 29.5192 14.3884 29.0912C15.2775 29.1705 16.1991 28.7583 16.7487 28.0926C17.1853 27.9816 17.6218 27.8389 18.0745 27.617C19.0283 27.1415 19.8528 26.444 20.6612 25.7624C21.0492 25.4295 21.4049 25.0807 21.8252 24.7954C21.8414 24.7796 21.8576 24.7796 21.8737 24.7637C22.6012 25.3819 23.6844 25.588 24.5574 25.2551C24.5898 25.3344 24.6221 25.4136 24.6544 25.4929C25.1395 26.6818 26.2712 27.5219 27.6454 27.1573C28.7932 26.8403 29.8117 25.4295 29.3267 24.2248ZM13.095 12.6848C12.901 12.9701 12.6423 13.2713 12.3028 13.4139C11.8339 13.62 11.3328 13.6041 10.9124 13.2871C10.3627 12.875 9.9909 12.0982 10.0556 11.4166C10.1202 10.7191 10.4436 10.1009 11.0418 9.68879C11.0741 9.67294 11.1064 9.67293 11.1388 9.65708C11.2034 9.59368 11.2519 9.53027 11.3328 9.48272C11.6561 9.2925 12.1088 9.2925 12.4321 9.49857C12.707 9.65708 12.901 9.89486 13.0626 10.1643C13.1758 10.3704 13.2728 10.5923 13.3375 10.8143C13.4992 11.4166 13.4507 12.1141 13.095 12.6848Z" fill="#FBB03B"/>
<path d="M1.85923 23.9387C1.81073 23.8277 1.71371 23.7484 1.61671 23.6691L1.40655 23.5581C1.24488 23.4947 1.09937 23.4788 0.921536 23.5105C0.8407 23.5264 0.759875 23.5581 0.679039 23.574C0.517368 23.6374 0.40419 23.7484 0.29102 23.8753C0.226352 24.0021 0.145525 24.129 0.0970232 24.2559C0.0646891 24.351 0.03235 24.462 0.0161829 24.573C0.0161829 24.6047 0 24.6365 0 24.6682C0 24.6999 0 24.7316 0 24.7633C0 24.8743 0 24.9853 0 25.0805C0 25.1439 0.016174 25.2232 0.0323411 25.2866C0.0485082 25.4135 0.0970035 25.5245 0.177839 25.6196C0.22634 25.7306 0.323358 25.8099 0.42036 25.8892C0.517363 25.9685 0.630527 26.0161 0.743697 26.0319C0.856866 26.0637 0.986205 26.0795 1.09937 26.0478C1.18021 26.0319 1.26104 26.0002 1.34187 25.9844C1.50354 25.9209 1.61672 25.8099 1.72989 25.6831C1.76222 25.6196 1.81071 25.5403 1.84305 25.4769C1.90772 25.3342 1.92391 25.1756 1.89157 25.017C1.8754 24.9853 1.87539 24.9377 1.87539 24.906C1.87539 24.8902 1.87539 24.8902 1.87539 24.8743C1.89156 24.8267 1.90772 24.795 1.92389 24.7475C1.90772 24.7792 1.89156 24.795 1.87539 24.8267C1.87539 24.8109 1.87539 24.795 1.87539 24.795C1.90772 24.7316 1.94006 24.684 1.95623 24.6206C1.98856 24.5096 2.00472 24.3827 1.97239 24.2717C1.98855 24.1449 1.94007 24.0339 1.85923 23.9387Z" fill="#00A99D"/>
<path d="M13.2896 9.00638C12.0771 7.96017 10.1694 8.00772 9.1185 9.10149C8.98917 9.24415 8.84367 9.40267 8.74667 9.62459C8.48799 9.83066 8.31016 10.1318 8.24549 10.4806C7.97065 11.8597 8.13233 13.0168 8.76285 13.9521C9.10236 14.4593 9.60352 14.8715 10.1855 15.1093C10.8161 15.3629 11.5436 15.3787 12.2873 15.1568C12.4004 15.1251 12.4974 15.0776 12.6106 15.0459C13.5968 14.6179 14.3081 13.6985 14.5345 12.5413C14.7608 11.2415 14.2758 9.86237 13.2896 9.00638ZM10.0562 12.3194C9.94303 12.1133 9.87837 11.8914 9.8622 11.6695C9.82986 11.3049 9.95921 10.9086 10.2502 10.6708C10.4927 10.4806 10.8161 10.4013 11.1232 10.4172C11.5274 10.4489 11.9316 10.5915 12.2549 10.8293C12.3034 10.861 12.3681 10.9086 12.4004 10.972C12.4489 11.0671 12.4489 11.1622 12.4489 11.2732C12.4651 11.4634 12.5136 11.6378 12.5944 11.8121C12.6429 11.9072 12.7238 12.0023 12.7399 12.1133C12.7561 12.2401 12.7238 12.3669 12.6591 12.4937C12.2711 13.2388 11.2526 13.318 10.5897 12.89C10.3634 12.7474 10.1855 12.5571 10.0562 12.3194Z" fill="#1E1E1E"/>
<path d="M22.8765 16.0603C22.7472 15.9493 22.6178 15.8701 22.44 15.8383C20.0958 8.72095 14.7121 2.9985 7.67943 0.145207C7.19441 -0.0450133 6.70941 0.0183936 6.35374 0.335427C5.72322 0.256168 5.22204 0.589053 5.06037 1.20727C3.08798 8.91117 3.7185 16.5041 6.85491 22.6704C6.79025 26.665 7.58243 29.8195 9.27998 32.3082C9.68415 32.8947 10.7512 34.2738 12.1577 34.4799C12.8044 34.575 13.4026 34.4006 13.9523 33.9726C14.8576 33.2593 14.7929 32.229 14.7283 31.3096L14.6475 29.978C14.8415 29.9305 15.0516 29.8512 15.2941 29.772L15.6498 29.661C16.1995 29.5025 16.733 29.344 17.2665 29.1696C19.7078 28.4087 21.6316 27.5527 23.3453 26.4907C23.3615 26.4907 23.3777 26.4748 23.3938 26.459C23.7172 26.7126 24.0244 27.0138 24.3154 27.3149C24.6549 27.6637 25.0105 28.0283 25.4147 28.2978C25.9321 28.6465 26.5303 28.7257 27.1123 28.4721C27.6458 28.1868 27.9853 27.7112 28.0661 27.1564C28.1631 26.3797 28.0015 25.5237 27.8398 24.6836C27.2093 21.3864 25.4956 18.4063 22.8765 16.0603ZM11.9637 31.3254C11.8829 31.2303 11.802 31.1193 11.7212 31.0084C11.3817 30.5645 11.0745 30.0573 10.7997 29.4708C10.4925 28.8367 10.25 28.1551 10.0722 27.4101C10.4117 27.8063 10.7512 28.1709 11.1069 28.5355L11.22 28.6623C11.3979 28.8526 11.608 29.0745 11.8344 29.2647L11.9637 31.3254ZM20.9203 24.7787C19.8209 25.381 18.5599 25.9042 16.927 26.4431C16.0701 26.7284 15.1971 26.9821 14.4696 27.204L14.2918 27.2515C14.1463 27.2832 14.0008 27.3308 13.9038 27.3784H13.8876C13.8876 27.3784 13.8714 27.3784 13.8553 27.3942C13.7259 27.3149 13.4672 27.0772 13.3379 26.9187C13.2894 26.8552 13.2248 26.8077 13.2086 26.7918C11.7859 25.3493 10.5733 23.6849 9.60331 21.9254C9.55481 21.5608 9.40931 21.2596 9.19914 21.1011L9.16682 21.0694C6.59625 15.8542 5.99807 9.43428 7.46927 2.98265C16.0702 6.85046 21.47 15.5847 20.9203 24.7787ZM23.6849 23.5264C23.6849 22.7021 23.6525 21.8937 23.5717 21.1011C23.798 21.4815 23.992 21.8303 24.1537 22.179C24.477 22.8765 24.7195 23.5264 24.8974 24.1763C24.4932 23.891 24.1052 23.6849 23.6849 23.5264Z" fill="#1E1E1E"/>
<path d="M20.0473 31.1983C18.0911 32.0702 15.9247 33.9724 15.7469 36.683C15.5691 39.4412 17.6708 41.3592 19.5138 42.7225C20.4192 43.3882 21.4054 44.0065 22.2622 44.5454C23.3616 45.227 24.4933 45.9403 25.5118 46.7488C25.8998 47.05 26.3687 47.1134 26.789 46.939C26.8698 46.9073 26.9507 46.8597 27.0315 46.8122C27.5004 46.4793 27.856 45.7977 27.5974 45.1319C26.886 43.2931 26.7243 41.3275 27.1123 39.1083L27.1447 38.9339C27.5165 36.7939 27.8722 34.7808 26.9184 32.7835C26.7567 32.4506 26.5142 32.2128 26.1747 32.1019C24.5418 30.1838 21.8904 30.3899 20.0473 31.1983ZM24.5579 34.3052C24.9945 35.5892 24.7358 36.9842 24.4771 38.3316C24.3801 38.8547 24.2831 39.3619 24.2346 39.8533C24.1376 40.7252 24.1214 41.6446 24.2185 42.5481L23.8951 42.342C23.4586 42.0567 23.0221 41.7872 22.5694 41.5019L22.2622 41.2958C20.9365 40.4398 19.3037 39.3778 18.6893 37.9828C18.075 36.5403 19.0126 35.0186 20.2252 34.1626C20.5 33.9724 20.8719 33.7504 21.2922 33.5761C21.9389 33.2907 22.6826 33.1005 23.2808 33.2273C23.6526 33.3066 23.9274 33.4968 24.1215 33.798C24.2023 33.9882 24.3478 34.1309 24.5579 34.3052Z" fill="#1E1E1E"/>
<path d="M5.43233 23.5898C5.07666 23.3203 4.64015 23.2093 4.25214 23.2886C3.49229 23.4471 3.00727 24.0495 3.03961 24.8579C3.10428 26.7284 3.57313 28.6464 4.38148 30.406C4.54315 30.7547 4.86648 31.04 5.25449 31.1669C5.61017 31.2937 5.98203 31.2778 6.30537 31.1352C6.32153 31.1193 6.3377 31.1193 6.35387 31.1034C7.08139 30.7547 7.40472 29.9304 7.08138 29.2171C6.90354 28.8208 6.74187 28.4245 6.59636 28.0124L6.46702 27.6319C6.40236 27.4259 6.35387 27.2198 6.30537 26.9979C6.11136 26.2053 6.01436 25.3651 5.98203 24.525C5.9497 24.1921 5.75567 23.8434 5.43233 23.5898Z" fill="#1E1E1E"/>
<path d="M18.9479 2.63454C18.3821 2.04803 17.4606 1.98463 16.8786 2.47603C16.5714 2.74551 16.3774 3.1418 16.3612 3.53809C16.345 3.90268 16.4744 4.23556 16.7169 4.48919C18.0426 5.85243 19.0126 7.27908 19.7886 8.95935C19.9503 9.30809 20.2575 9.59342 20.6455 9.72023C21.0012 9.84705 21.373 9.8312 21.6964 9.68853C21.7125 9.67268 21.7287 9.67268 21.7449 9.65683C22.4724 9.30809 22.7957 8.4838 22.4724 7.78633C21.5993 5.88413 20.403 4.14045 18.9479 2.63454Z" fill="#1E1E1E"/>
<path d="M22.6017 2.83988C22.5209 2.74474 22.4239 2.68131 22.2946 2.64959C22.1814 2.60202 22.0682 2.58616 21.9389 2.60202C21.8096 2.60202 21.6964 2.61787 21.5671 2.68131C21.5024 2.72888 21.4215 2.76059 21.3569 2.80817C21.2275 2.90331 21.1305 3.03018 21.082 3.18876L21.0174 3.41076C21.0012 3.56934 21.0174 3.72792 21.0982 3.8865L21.1952 4.10851C21.2437 4.21951 21.3245 4.31466 21.4215 4.39395C21.5024 4.4891 21.5994 4.55253 21.7287 4.58424C21.8419 4.63182 21.955 4.64767 22.0844 4.63182C22.2137 4.63182 22.3269 4.61596 22.4562 4.55253C22.5209 4.50495 22.6017 4.47324 22.6664 4.42566C22.7957 4.33052 22.8927 4.20366 22.9412 4.04508L23.0059 3.82307C23.0221 3.66449 23.0059 3.50591 22.9251 3.34733L22.8281 3.12532C22.7796 3.01432 22.6987 2.91917 22.6017 2.83988Z" fill="#00A99D"/>
</svg>
