<svg width="30" height="48" viewBox="0 0 30 48" fill="none" xmlns="http://www.w3.org/2000/svg">
<path d="M29.3263 24.1948C28.3401 21.7527 27.5318 18.6922 25.608 16.7576C25.1876 16.3294 24.6703 15.9806 24.1206 15.711C23.5709 15.4414 22.7788 15.4256 22.2614 15.1243C21.5016 14.6644 21.0812 13.3324 20.6124 12.6029C17.8155 8.19453 13.8385 4.5473 9.18248 2.08938C7.96997 1.43922 5.83596 1.91495 5.62579 3.51656C4.97912 8.11524 4.4456 12.7456 6.14311 17.2016C7.04845 19.5961 8.35797 21.7686 9.76449 23.8776C8.61664 25.3841 9.15015 27.9847 9.18248 29.6973C9.24715 32.5358 12.9655 32.7261 13.9517 30.3316C14.1295 29.9193 14.275 29.4912 14.3882 29.063C15.2774 29.1423 16.1989 28.73 16.7485 28.064C17.185 27.953 17.6215 27.8103 18.0742 27.5883C19.0281 27.1126 19.8526 26.4148 20.6609 25.733C21.0489 25.3999 21.4046 25.0511 21.8249 24.7656C21.8411 24.7498 21.8573 24.7498 21.8734 24.7339C22.6009 25.3524 23.6841 25.5585 24.5571 25.2255C24.5894 25.3048 24.6218 25.3841 24.6541 25.4634C25.1391 26.6527 26.2708 27.4931 27.645 27.1284C28.7928 26.8113 29.8113 25.3999 29.3263 24.1948ZM13.0948 12.6505C12.9008 12.9359 12.6422 13.2372 12.3027 13.3799C11.8338 13.5861 11.3327 13.5702 10.9123 13.2531C10.3626 12.8408 9.99081 12.0638 10.0555 11.3819C10.1201 10.6842 10.4435 10.0657 11.0417 9.65342C11.074 9.63756 11.1063 9.63756 11.1386 9.62171C11.2033 9.55828 11.2518 9.49485 11.3327 9.44727C11.656 9.25698 12.1087 9.25698 12.432 9.46313C12.7068 9.62171 12.9008 9.85957 13.0625 10.1291C13.1757 10.3353 13.2727 10.5573 13.3373 10.7793C13.499 11.3819 13.4505 12.0796 13.0948 12.6505Z" fill="#FBB03B"/>
<path d="M1.8592 23.9093C1.8107 23.7983 1.71368 23.719 1.61668 23.6397L1.40653 23.5287C1.24486 23.4653 1.09935 23.4494 0.921519 23.4811C0.840685 23.497 0.759861 23.5287 0.679027 23.5446C0.517359 23.608 0.404183 23.719 0.291015 23.8459C0.226348 23.9727 0.145522 24.0996 0.0970215 24.2264C0.0646879 24.3216 0.0323494 24.4326 0.0161826 24.5436C0.0161826 24.5753 0 24.607 0 24.6387C0 24.6704 0 24.7022 0 24.7339C0 24.8449 0 24.9559 0 25.051C0 25.1145 0.0161737 25.1937 0.0323405 25.2572C0.0485073 25.384 0.0970018 25.495 0.177836 25.5902C0.226336 25.7012 0.323352 25.7805 0.420353 25.8598C0.517353 25.939 0.630516 25.9866 0.743684 26.0025C0.856851 26.0342 0.986188 26.05 1.09936 26.0183C1.18019 26.0025 1.26101 25.9708 1.34185 25.9549C1.50352 25.8915 1.61669 25.7805 1.72986 25.6536C1.76219 25.5902 1.81068 25.5109 1.84301 25.4475C1.90768 25.3047 1.92387 25.1462 1.89154 24.9876C1.87537 24.9559 1.87535 24.9083 1.87535 24.8766C1.87535 24.8607 1.87535 24.8607 1.87535 24.8449C1.89152 24.7973 1.90769 24.7656 1.92385 24.718C1.90769 24.7497 1.89152 24.7656 1.87535 24.7973C1.87535 24.7814 1.87535 24.7656 1.87535 24.7656C1.90769 24.7022 1.94003 24.6546 1.95619 24.5912C1.98853 24.4802 2.00469 24.3533 1.97235 24.2423C1.98852 24.1154 1.94003 24.0044 1.8592 23.9093Z" fill="#00A99D"/>
<path d="M13.289 8.97162C12.0765 7.92502 10.1688 7.9726 9.118 9.06677C8.98866 9.20948 8.84317 9.36806 8.74617 9.59007C8.4875 9.79621 8.30967 10.0975 8.245 10.4464C7.97016 11.826 8.13184 12.9836 8.76235 13.9192C9.10185 14.4266 9.60301 14.8389 10.185 15.0768C10.8155 15.3305 11.543 15.3463 12.2867 15.1243C12.3999 15.0926 12.4969 15.0451 12.61 15.0133C13.5962 14.5852 14.3075 13.6654 14.5339 12.5079C14.7602 11.2075 14.2752 9.82793 13.289 8.97162ZM10.0557 12.2858C9.94251 12.0797 9.87785 11.8577 9.86168 11.6357C9.82935 11.271 9.95869 10.8745 10.2497 10.6367C10.4922 10.4464 10.8155 10.3671 11.1227 10.3829C11.5269 10.4147 11.931 10.5574 12.2544 10.7952C12.3029 10.827 12.3675 10.8745 12.3999 10.938C12.4484 11.0331 12.4484 11.1282 12.4484 11.2392C12.4645 11.4295 12.513 11.604 12.5939 11.7784C12.6424 11.8735 12.7232 11.9687 12.7394 12.0797C12.7555 12.2066 12.7232 12.3334 12.6585 12.4603C12.2705 13.2056 11.252 13.2849 10.5892 12.8567C10.3628 12.714 10.185 12.5237 10.0557 12.2858Z" fill="#1E1E1E"/>
<path d="M22.8757 16.028C22.7463 15.917 22.617 15.8377 22.4392 15.806C20.095 8.68596 14.7114 2.96139 7.67887 0.107038C7.19387 -0.0832521 6.70888 -0.0198218 6.35321 0.297329C5.7227 0.218041 5.22153 0.551049 5.05986 1.16949C3.08751 8.87625 3.71801 16.472 6.85437 22.6406C6.78971 26.6367 7.58188 29.7923 9.27939 32.282C9.68356 32.8687 10.7506 34.2483 12.1571 34.4544C12.8038 34.5496 13.4019 34.3752 13.9516 33.947C14.8569 33.2334 14.7923 32.2027 14.7276 31.2829L14.6468 29.9509C14.8408 29.9033 15.0509 29.824 15.2934 29.7448L15.6491 29.6338C16.1988 29.4752 16.7323 29.3166 17.2658 29.1422C19.707 28.381 21.6308 27.5247 23.3445 26.4622C23.3607 26.4622 23.3768 26.4464 23.393 26.4305C23.7163 26.6843 24.0235 26.9855 24.3145 27.2868C24.654 27.6357 25.0097 28.0004 25.4139 28.27C25.9312 28.6189 26.5294 28.6982 27.1114 28.4444C27.6449 28.159 27.9844 27.6833 28.0652 27.1283C28.1622 26.3512 28.0005 25.4949 27.8389 24.6545C27.2084 21.3561 25.4947 18.3749 22.8757 16.028ZM11.9631 31.2988C11.8823 31.2036 11.8014 31.0926 11.7206 30.9816C11.3811 30.5376 11.0739 30.0302 10.7991 29.4435C10.4919 28.8092 10.2494 28.1273 10.0716 27.382C10.4111 27.7784 10.7506 28.1431 11.1062 28.5079L11.2194 28.6347C11.3972 28.825 11.6074 29.047 11.8338 29.2373L11.9631 31.2988ZM20.9195 24.7496C19.8201 25.3522 18.5591 25.8755 16.9263 26.4147C16.0694 26.7001 15.1965 26.9538 14.4689 27.1758L14.2911 27.2234C14.1456 27.2551 14.0001 27.3027 13.9031 27.3503H13.8869C13.8869 27.3503 13.8708 27.3503 13.8546 27.3661C13.7253 27.2868 13.4666 27.049 13.3373 26.8904C13.2888 26.827 13.2241 26.7794 13.2079 26.7635C11.7853 25.3205 10.5727 23.6555 9.60272 21.8953C9.55422 21.5306 9.40872 21.2293 9.19855 21.0707L9.16624 21.039C6.59572 15.8218 5.99754 9.39955 7.46872 2.94554C16.0695 6.81477 21.4692 15.5523 20.9195 24.7496ZM23.684 23.4969C23.684 22.6723 23.6517 21.8636 23.5708 21.0707C23.7972 21.4513 23.9912 21.8001 24.1528 22.149C24.4762 22.8467 24.7187 23.4969 24.8965 24.147C24.4924 23.8616 24.1044 23.6555 23.684 23.4969Z" fill="#1E1E1E"/>
<path d="M20.0463 31.1719C18.0901 32.0441 15.9237 33.947 15.7459 36.6586C15.5681 39.4178 17.6698 41.3366 19.5128 42.7003C20.4181 43.3663 21.4043 43.9848 22.2611 44.5239C23.3605 45.2058 24.4922 45.9194 25.5107 46.7281C25.8987 47.0294 26.3675 47.0928 26.7878 46.9184C26.8687 46.8867 26.9495 46.8391 27.0303 46.7915C27.4992 46.4585 27.8548 45.7767 27.5962 45.1107C26.8848 43.2712 26.7232 41.3048 27.1112 39.0848L27.1435 38.9104C27.5153 36.7696 27.871 34.7557 26.9172 32.7576C26.7555 32.4246 26.513 32.1868 26.1735 32.0758C24.5406 30.157 21.8893 30.3632 20.0463 31.1719ZM24.5568 34.28C24.9933 35.5644 24.7346 36.9599 24.476 38.3078C24.379 38.8311 24.282 39.3385 24.2335 39.8301C24.1365 40.7023 24.1203 41.622 24.2173 42.5259L23.894 42.3197C23.4575 42.0343 23.021 41.7647 22.5683 41.4793L22.2611 41.2731C20.9355 40.4168 19.3026 39.3544 18.6883 37.9589C18.0739 36.5159 19.0116 34.9935 20.2241 34.1372C20.499 33.947 20.8708 33.7249 21.2911 33.5505C21.9378 33.2651 22.6815 33.0748 23.2796 33.2016C23.6515 33.2809 23.9263 33.4712 24.1203 33.7725C24.2012 33.9628 24.3466 34.1055 24.5568 34.28Z" fill="#1E1E1E"/>
<path d="M5.4318 23.5604C5.07613 23.2908 4.63963 23.1798 4.25163 23.2591C3.49179 23.4177 3.00679 24.0202 3.03912 24.829C3.10379 26.7002 3.57263 28.6189 4.38097 30.3791C4.54264 30.728 4.86596 31.0134 5.25396 31.1403C5.60963 31.2671 5.98149 31.2513 6.30482 31.1086C6.32099 31.0927 6.33715 31.0927 6.35332 31.0768C7.08083 30.728 7.40416 29.9034 7.08082 29.1898C6.90299 28.7934 6.74131 28.3969 6.59581 27.9846L6.46647 27.604C6.40181 27.3979 6.35332 27.1917 6.30482 26.9697C6.11082 26.1769 6.01382 25.3364 5.98149 24.496C5.94916 24.163 5.75514 23.8141 5.4318 23.5604Z" fill="#1E1E1E"/>
<path d="M18.9474 2.59652C18.3816 2.00979 17.4601 1.94636 16.8781 2.43794C16.5709 2.70752 16.3769 3.10396 16.3607 3.5004C16.3446 3.86512 16.4739 4.19813 16.7164 4.45185C18.0421 5.81559 19.0121 7.24277 19.7881 8.92367C19.9497 9.27253 20.2569 9.55797 20.6449 9.68483C21.0006 9.81169 21.3724 9.79583 21.6958 9.65312C21.7119 9.63726 21.7281 9.63726 21.7443 9.6214C22.4718 9.27253 22.7951 8.44794 22.4718 7.75021C21.5988 5.84731 20.4024 4.10298 18.9474 2.59652Z" fill="#1E1E1E"/>
<path d="M22.6017 2.80277C22.5209 2.70762 22.4239 2.64419 22.2945 2.61248C22.1814 2.56491 22.0682 2.54905 21.9389 2.56491C21.8095 2.56491 21.6964 2.58076 21.567 2.64419C21.5024 2.69177 21.4215 2.72348 21.3569 2.77105C21.2275 2.8662 21.1305 2.99306 21.082 3.15164L21.0174 3.37364C21.0012 3.53222 21.0174 3.69079 21.0982 3.84937L21.1952 4.07137C21.2437 4.18237 21.3245 4.27752 21.4215 4.35681C21.5024 4.45195 21.5994 4.51538 21.7287 4.5471C21.8419 4.59467 21.955 4.61053 22.0844 4.59467C22.2137 4.59467 22.3269 4.57881 22.4562 4.51538C22.5209 4.46781 22.6017 4.43609 22.6664 4.38852C22.7957 4.29338 22.8927 4.16652 22.9412 4.00794L23.0059 3.78594C23.0221 3.62736 23.0059 3.46879 22.925 3.31021L22.8281 3.0882C22.7795 2.9772 22.6987 2.88206 22.6017 2.80277Z" fill="#00A99D"/>
</svg>
