<svg width="472" height="442" viewBox="0 0 472 442" fill="none" xmlns="http://www.w3.org/2000/svg">
<path d="M88.3127 47.1487C76.6642 39.7013 62.2613 36.7748 48.6929 39.6107C45.9675 40.2299 43.7289 42.3247 44.0333 45.3446C44.2955 47.9451 47.0162 50.6318 49.7416 50.0126C60.409 47.7292 71.3904 49.3971 80.8875 54.7773C88.9453 59.2884 100.748 69.9406 96.2276 80.4065C93.5588 86.6138 103.038 90.9787 105.79 84.7629C112.388 69.7609 100.488 54.7961 88.3127 47.1487Z" fill="#FBB03B"/>
<path d="M111.41 167.74C110.838 165.426 109.456 163.449 107.69 161.85C103.797 158.436 97.0404 158.453 93.382 162.389C91.1019 164.912 90.6463 168.773 91.8123 171.959C91.9636 172.622 92.0228 173.209 92.2577 173.863C92.938 176.42 94.6715 178.531 97.0814 179.809C99.4997 181.171 102.443 181.037 105.068 180.259C107.618 179.573 110.066 177.88 111.193 175.645C112.47 173.226 112.09 170.298 111.41 167.74Z" fill="#00A99D"/>
<path d="M102.913 86.6673C103.089 85.8865 103.264 85.1058 103.447 84.4089C104.289 80.1698 104.512 75.6555 103.538 71.0105C99.961 53.0755 82.5441 46.3136 75.1461 44.1957C65.6558 41.4462 55.5233 41.5594 46.405 44.195C45.7441 44.3479 45.0916 44.5847 44.5144 44.729C43.8619 44.9658 43.2931 45.1939 42.6406 45.4307C38.8931 46.8343 35.4388 48.6312 32.286 50.9056C19.9927 59.8005 13.0503 74.838 14.4997 89.2639C14.6767 91.0252 16.2747 90.945 16.6094 90.9105C16.9441 90.876 18.5253 90.6281 18.3483 88.8668C17.0506 75.9506 22.9234 62.8878 33.7613 54.6514C36.822 52.3019 40.1927 50.5135 43.8565 49.1186C44.509 48.8818 45.0778 48.6537 45.7387 48.5008C46.3911 48.264 46.9684 48.1197 47.6208 47.8829C50.2475 47.1034 52.8996 46.5756 55.6605 46.2907C62.4374 45.5916 69.4412 46.3096 76.1699 48.4966C88.4892 52.4795 101.181 62.6949 100.113 78.9905C99.9893 81.1218 99.6811 83.1027 99.1972 85.0169C99.0052 85.6299 98.9053 86.3181 98.7133 86.9311C98.5213 87.5441 98.3377 88.241 98.062 88.8626C94.4211 98.8987 86.7877 107.059 78.3761 115.045C72.4395 120.742 69.9169 126.764 70.6663 133.382C71.592 140.913 76.0395 147.318 80.9222 153.848C81.408 154.475 81.9352 154.675 82.6046 154.606C83.3576 154.529 84.1436 153.939 84.4946 153.225C84.695 152.696 84.636 152.109 84.1587 151.565L83.673 150.937C78.9997 144.809 73.2461 137.183 74.5534 128.32C75.4779 122.377 80.2859 118.068 84.5504 114.238C85.9469 112.993 87.3433 111.747 88.4887 110.527C92.92 105.833 99.0727 98.0798 102.112 88.7838C102.555 88.1449 102.73 87.3642 102.913 86.6673Z" fill="#1E1E1E"/>
<path d="M54.9223 54.0509C53.8184 53.9954 52.7313 54.1075 51.6442 54.2196C40.3553 55.3842 30.3255 63.1939 26.6034 74.0791C26.3447 74.868 26.2371 76.3188 27.4751 76.8686C27.9185 77.0769 28.6795 77.0831 29.248 76.8551C29.4905 76.7454 29.8918 76.5346 30.0169 76.0983C33.7889 64.8691 43.8945 57.8138 55.7363 57.9472C56.1628 57.9879 56.4636 57.6181 56.614 57.4332C57.0737 56.9624 57.2571 56.2659 57.2066 55.763C57.1386 54.2457 55.5997 54.0657 54.9223 54.0509Z" fill="#1E1E1E"/>
<path d="M112.435 82.0812C112.259 82.0146 112.008 82.0405 111.757 82.0664C111.422 82.1009 111.096 82.2193 110.862 82.413C110.619 82.5228 110.235 82.9015 110.118 83.422C107.824 93.4048 102.164 101.87 96.647 110.067C96.3545 110.521 96.405 111.024 96.4387 111.359C96.5814 111.938 96.8914 112.499 97.3351 112.708C98.4151 113.359 99.536 112.735 100.13 111.911C105.204 104.353 111.541 95.0553 113.801 84.737C113.942 83.6207 113.565 82.3884 112.435 82.0812Z" fill="#1E1E1E"/>
<path d="M106.261 166.913C105.64 165.79 104.87 164.852 104.024 164.006C103.271 163.236 102.359 162.567 101.472 162.15C101.388 162.158 101.38 162.075 101.288 161.999C100.049 161.448 98.7528 161.158 97.398 161.128C96.1268 161.089 94.8641 161.134 93.6099 161.263C92.7737 161.349 91.9301 162.198 91.8474 163.055C91.7478 163.743 91.389 164.373 90.6618 164.702C90.503 164.803 90.4194 164.812 90.3442 164.904C86.9771 167.539 85.3011 171.865 86.0247 175.689C86.8825 180.009 90.2564 183.306 94.472 184.06C94.8986 184.101 95.3251 184.141 95.7517 184.182C96.8556 184.238 97.9341 184.043 99.0794 183.671C99.7314 183.434 100.383 183.198 101.035 182.961C101.361 182.843 101.763 182.632 102.08 182.43C103.61 181.679 105.273 180.576 106.4 179.189C108.771 175.893 108.741 171.404 106.261 166.913ZM104.235 172.8L104.252 172.968C104.261 173.051 104.269 173.135 104.286 173.303C104.286 173.303 104.286 173.303 104.294 173.387C104.303 173.471 104.303 173.471 104.311 173.555C104.328 173.723 104.337 173.807 104.345 173.89C104.354 173.974 104.278 174.067 104.287 174.151C104.229 174.411 104.254 174.663 104.179 174.755C104.187 174.839 104.121 175.015 104.129 175.099C104.071 175.36 104.004 175.536 103.929 175.628C103.929 175.628 103.862 175.805 103.72 176.074C103.654 176.25 103.503 176.435 103.353 176.62L103.136 176.981C102.677 177.452 102.284 177.747 101.975 178.033C101.657 178.235 101.499 178.336 101.265 178.53L100.145 179.154C99.6599 179.373 99.1751 179.592 98.774 179.803C98.3728 180.014 97.8795 180.149 97.4699 180.276C97.3027 180.293 97.0603 180.403 96.9767 180.412C96.7258 180.438 96.5586 180.455 96.475 180.463C96.3914 180.472 96.3078 180.48 96.1405 180.498C95.9733 180.515 95.7224 180.541 95.6304 180.465C95.2874 180.416 95.1117 180.349 94.8609 180.375L94.7773 180.384C94.6016 180.317 94.4344 180.334 94.2587 180.267L93.4638 179.925C93.4638 179.925 93.4638 179.925 93.3802 179.934C93.2045 179.867 92.9368 179.725 92.8447 179.65C92.4764 179.349 92.1165 179.131 91.8403 178.906C91.8403 178.906 91.6477 178.671 91.5641 178.68C91.472 178.604 91.3715 178.445 91.2794 178.37L91.0868 178.135C90.9947 178.06 90.9027 177.985 90.8857 177.817C90.6095 177.591 90.4085 177.273 90.3746 176.937L90.1482 176.367C90.1482 176.367 90.1567 176.451 90.2487 176.526C90.1397 176.283 90.0307 176.04 89.9969 175.705L89.8785 174.53C89.8616 174.362 89.8447 174.195 89.9198 174.102C89.9696 173.758 89.9527 173.59 90.0194 173.414C90.0109 173.33 90.0692 173.07 90.1274 172.809C90.1021 172.558 90.1688 172.381 90.227 172.121C90.2937 171.945 90.3519 171.684 90.4271 171.592C90.4938 171.416 90.569 171.323 90.6357 171.147L90.8442 170.701C90.8358 170.618 90.9109 170.525 90.9109 170.525C90.9861 170.433 90.9776 170.349 91.0528 170.256L91.2031 170.071C91.345 169.802 91.5789 169.609 91.8044 169.331L91.8795 169.239C91.8795 169.239 92.105 168.961 92.1886 168.953C92.1886 168.953 92.3389 168.768 92.4225 168.759L92.6565 168.566C93.0492 168.271 93.3329 167.733 93.4409 167.129C93.4992 166.869 93.5659 166.692 93.6326 166.516C93.7744 166.247 93.9332 166.146 94.1671 165.952C94.4847 165.75 94.8022 165.548 95.2203 165.505L95.6384 165.462C95.9729 165.428 96.391 165.385 96.7254 165.35C97.152 165.391 97.4028 165.365 97.5785 165.432C97.7457 165.415 97.9214 165.481 98.0971 165.548C98.1807 165.54 98.2644 165.531 98.2728 165.615L98.7914 165.731C99.2264 165.856 99.4021 165.923 99.4942 165.998L99.7619 166.14C99.854 166.215 100.205 166.349 100.297 166.424C100.482 166.574 100.666 166.725 100.758 166.8C100.85 166.876 100.942 166.951 101.034 167.026L101.31 167.252C101.687 167.637 101.98 168.031 102.265 168.341C102.659 168.893 102.86 169.212 103.153 169.605C103.245 169.681 103.354 169.924 103.362 170.008C103.589 170.578 103.798 170.98 103.924 171.391L104.033 171.634C104.209 171.701 104.184 172.296 104.235 172.8Z" fill="#1E1E1E"/>
<path d="M23.298 96.0446C22.211 96.1563 21.1241 96.2681 20.1123 96.2874L19.7778 96.3218C19.6106 96.339 19.4434 96.3562 19.2677 96.2895C19.1841 96.2981 19.1005 96.3066 19.0084 96.2314L18.6655 96.1819C18.4062 96.1238 18.0718 96.1582 17.8125 96.1001C16.7922 96.0354 15.7635 95.8869 14.81 95.646C14.2914 95.5298 13.7728 95.4136 13.2542 95.2974C12.9113 95.2479 12.6435 95.1059 12.3843 95.0478C11.7736 94.8563 11.2381 94.5724 10.619 94.297C9.99988 94.0216 9.33848 93.3268 9.27082 92.6557C9.05093 90.4747 8.90619 88.2012 8.83661 85.8352C8.80278 85.4997 8.59327 85.0974 8.22499 84.7963C7.94033 84.4865 7.32967 84.295 6.91161 84.338C6.91161 84.338 6.91161 84.338 6.828 84.3466C5.24784 84.5938 4.95664 85.8951 4.95761 86.7426C5.06948 89.528 5.1973 91.6337 5.48389 93.6384C5.72819 95.2236 6.2562 96.2711 7.17689 97.024C7.91344 97.6264 8.96752 98.0265 10.0216 98.4267C14.4136 100.094 19.1053 100.544 23.5282 100.004C24.1135 99.9442 24.665 99.5485 25.0407 99.0861C25.2662 98.8087 25.4832 98.4473 25.3404 97.8687C25.2389 96.8621 24.3013 95.9414 23.298 96.0446Z" fill="#00A99D"/>
<path d="M354.044 392.394C353.542 392.446 352.982 392.758 352.69 393.211C347.698 399.826 340.622 405.045 332.79 407.799C331.729 408.162 331.254 409.313 331.606 410.293C331.958 411.274 333.113 411.833 334.091 411.478C342.741 408.471 350.452 402.848 355.878 395.51C356.171 395.057 356.287 394.536 356.236 394.033C356.186 393.53 355.884 393.052 355.432 392.76C355.064 392.459 354.545 392.343 354.044 392.394Z" fill="#1E1E1E"/>
<path d="M129.514 269.86C129.379 268.517 129.319 267.082 129.351 265.722C129.384 265.21 129.165 264.723 128.788 264.338C128.411 263.953 127.968 263.744 127.373 263.721C127.29 263.729 127.206 263.738 127.122 263.746C126.118 263.85 125.357 264.691 125.375 265.706C125.36 267.234 125.429 268.753 125.581 270.264C126.318 277.565 128.895 284.676 133.389 291.506C133.984 292.378 135.198 292.677 136.068 292.079C136.544 291.776 136.837 291.322 136.953 290.801C137.07 290.28 136.935 289.785 136.717 289.299C132.626 283.106 130.183 276.489 129.514 269.86Z" fill="#1E1E1E"/>
<path d="M307.047 411.188C308.018 411.596 309.239 411.132 309.647 410.157C309.847 409.628 309.88 409.116 309.662 408.63C309.444 408.144 309.067 407.759 308.624 407.55C301.395 404.563 295.324 397.982 292.245 390.076C291.91 389.263 291.098 388.753 290.178 388.848C290.011 388.865 289.844 388.882 289.685 388.983C288.707 389.338 288.148 390.498 288.592 391.554C292.031 400.525 298.755 407.717 307.047 411.188Z" fill="#1E1E1E"/>
<path d="M178.465 321.313C178.782 320.263 178.162 319.141 177.2 318.816C172.666 317.418 168.166 315.508 163.255 312.877C160.218 311.24 157.155 309.352 154.427 307.429C154.059 307.128 153.54 307.011 153.122 307.054C152.537 307.115 152.061 307.418 151.685 307.88C151.101 308.788 151.303 309.953 152.131 310.631C155.044 312.704 158.198 314.668 161.411 316.372C166.497 319.069 171.266 321.121 175.975 322.586C177.02 322.902 178.149 322.362 178.465 321.313Z" fill="#1E1E1E"/>
<path d="M306.718 317.874C306.459 317.816 306.2 317.758 305.949 317.784C305.698 317.81 305.456 317.919 305.213 318.029C304.729 318.248 304.437 318.702 304.236 319.231C304.12 319.751 304.171 320.254 304.389 320.74C304.607 321.227 305.058 321.519 305.577 321.635C314.1 324.064 322.047 327.484 329.141 331.669C330.037 332.17 331.274 331.873 331.858 330.966C332.442 330.059 332.065 328.826 331.161 328.241C323.798 323.914 315.509 320.445 306.718 317.874Z" fill="#1E1E1E"/>
<path d="M364.626 358.485L360.067 356.834C359.632 356.71 359.255 356.325 359.046 355.922C358.124 354.322 357.11 352.646 355.929 350.988C354.639 349.086 353.182 347.202 351.658 345.494C350.98 344.631 349.708 344.592 348.848 345.274C347.987 345.956 347.947 347.231 348.625 348.094C349.002 348.479 349.295 348.873 349.68 349.342C350.258 350.045 350.268 350.976 349.75 351.708C349.232 352.439 348.338 352.785 347.543 352.443C344.665 351.552 342.055 350.804 339.546 350.214C339.287 350.156 339.119 350.173 338.869 350.199C338.618 350.225 338.292 350.343 338.049 350.453C337.573 350.756 337.272 351.126 337.156 351.646C337.039 352.167 337.09 352.67 337.392 353.148C337.693 353.625 338.062 353.927 338.58 354.043C344.469 355.472 350.334 357.496 355.772 359.48C356.215 359.689 356.667 359.981 356.885 360.467C358.486 363.778 359.401 366.989 359.798 370.085C359.908 371.175 360.912 371.92 361.915 371.816L361.999 371.808C362.501 371.756 362.977 371.453 363.278 371.083C363.578 370.713 363.778 370.184 363.719 369.597C363.558 368.003 363.222 366.342 362.718 364.699C362.584 364.204 362.608 363.608 362.901 363.154C363.193 362.701 363.669 362.397 364.162 362.262C364.823 362.109 365.366 361.63 365.641 361.008C365.841 360.479 365.791 359.975 365.573 359.489C365.522 358.986 365.153 358.685 364.626 358.485Z" fill="#1E1E1E"/>
<path d="M157.463 223.917C157.128 223.104 156.325 222.678 155.489 222.764C155.321 222.781 155.071 222.807 154.912 222.908C151.845 224.325 148.97 225.977 146.288 227.863C141.551 231.146 137.492 235.292 134.086 240.049C133.794 240.503 133.678 241.023 133.728 241.527C133.779 242.03 134.081 242.507 134.533 242.8C135.353 243.394 136.682 243.172 137.275 242.349C140.305 238.054 144.222 234.177 148.558 231.104C151.006 229.412 153.722 227.861 156.546 226.554C157.432 226.124 157.907 224.973 157.463 223.917Z" fill="#1E1E1E"/>
<path d="M280.515 313.418C272.263 312.827 263.578 312.957 254.108 313.676C253.021 313.788 252.186 314.72 252.296 315.809C252.406 316.899 253.335 317.734 254.422 317.623C263.725 316.921 272.159 316.816 280.235 317.341C281.338 317.397 282.274 316.624 282.331 315.518C282.472 314.403 281.618 313.474 280.515 313.418Z" fill="#1E1E1E"/>
<path d="M171.521 256.899C163.567 254.242 155.903 250.284 148.957 245.066C148.589 244.765 148.07 244.649 147.569 244.701L147.485 244.709C146.983 244.761 146.507 245.064 146.215 245.518C145.547 246.434 145.749 247.599 146.661 248.268C153.959 253.62 161.898 257.803 170.296 260.669C171.342 260.985 172.47 260.445 172.787 259.396C172.987 258.867 172.936 258.363 172.718 257.877C172.417 257.4 172.048 257.099 171.521 256.899Z" fill="#1E1E1E"/>
<path d="M218.068 246.207C217.85 245.721 217.398 245.428 216.871 245.228C216.612 245.17 216.353 245.112 216.102 245.138C215.851 245.163 215.609 245.273 215.366 245.383C214.882 245.602 214.59 246.056 214.389 246.585C212.815 251.916 208.13 256.55 202.187 258.771C200.315 259.472 198.334 259.93 196.253 260.229C195.166 260.34 194.423 261.349 194.533 262.439C194.643 263.53 195.647 264.274 196.65 264.171C196.65 264.171 196.65 264.171 196.734 264.162C199.15 263.829 201.457 263.253 203.571 262.442C210.65 259.765 216.254 254.189 218.137 247.725C218.42 247.187 218.37 246.684 218.068 246.207Z" fill="#1E1E1E"/>
<path d="M130.515 229.722C131.376 229.04 131.592 227.831 130.913 226.968C125.727 219.956 121.828 212.303 119.25 204.344C118.99 203.438 118.094 202.937 117.174 203.031C117.007 203.049 116.923 203.057 116.764 203.158C116.271 203.294 115.886 203.672 115.594 204.126C115.385 204.572 115.269 205.092 115.495 205.663C118.207 214.116 122.307 222.088 127.695 229.419C128.365 230.198 129.654 230.404 130.515 229.722Z" fill="#1E1E1E"/>
<path d="M415.36 370.078C415.444 370.069 415.528 370.061 415.611 370.052C416.522 369.874 417.198 369.042 417.18 368.028C417.154 366.93 416.142 366.103 415.139 366.206C404.983 366.826 396.773 366.653 389.483 365.54C389.315 365.557 389.14 365.49 388.973 365.508C388.137 365.593 387.36 366.266 387.202 367.213C387.061 368.329 387.748 369.274 388.86 369.414C396.402 370.502 404.703 370.749 414.942 370.121C415.026 370.112 415.193 370.095 415.36 370.078Z" fill="#1E1E1E"/>
<path d="M467.518 356.437C467.217 355.96 466.765 355.668 466.247 355.552C466.071 355.485 465.82 355.511 465.653 355.528C465.319 355.562 465.076 355.672 464.842 355.865C459.053 359.594 451.449 362.069 440.884 363.663C440.382 363.715 439.906 364.018 439.614 364.471C439.322 364.925 439.205 365.445 439.256 365.948C439.441 366.945 440.178 367.547 441.198 367.612C441.281 367.603 441.448 367.586 441.532 367.577C441.699 367.56 441.866 367.543 442.042 367.61C452.849 365.906 460.863 363.304 467.045 359.281C467.521 358.978 467.813 358.524 467.93 358.004C467.954 357.409 467.82 356.914 467.518 356.437Z" fill="#1E1E1E"/>
<path d="M313.055 349.526C312.971 349.534 312.888 349.543 312.804 349.551C302.648 351.866 294.803 356.994 290.23 364.413C289.938 364.867 289.905 365.378 289.956 365.882C290.09 366.376 290.391 366.854 290.843 367.146C291.747 367.731 292.984 367.434 293.568 366.527C298.734 358.285 307.342 354.858 313.62 353.45C314.113 353.315 314.589 353.011 314.881 352.558C315.173 352.104 315.29 351.584 315.155 351.089C315.021 350.594 314.72 350.117 314.268 349.825C313.908 349.607 313.473 349.483 313.055 349.526Z" fill="#1E1E1E"/>
<path d="M202.633 324.87L203.135 324.819C208.651 324.252 214.209 323.258 219.524 322.374L222.098 321.94C224.255 321.549 226.411 321.159 228.576 320.852C229.077 320.8 229.553 320.497 229.845 320.044C230.137 319.591 230.254 319.071 230.203 318.569C230.152 318.066 229.851 317.589 229.399 317.297C228.947 317.005 228.513 316.88 228.011 316.932C225.771 317.331 223.607 317.638 221.45 318.029L218.96 318.454C213.569 319.431 208.17 320.324 202.821 320.873L202.236 320.933C201.149 321.045 200.398 321.968 200.508 323.057C200.618 324.146 201.547 324.982 202.633 324.87Z" fill="#1E1E1E"/>
<path d="M181.079 221.253C183.27 221.197 185.477 221.309 187.693 221.505C194.933 222.116 200.679 223.813 205.263 226.561C206.167 227.146 207.404 226.849 207.988 225.942C208.572 225.035 208.278 223.794 207.375 223.209C202.33 220.085 195.974 218.197 188.056 217.571C185.757 217.384 183.382 217.289 181.108 217.353C181.025 217.362 181.025 217.362 180.941 217.37C179.938 217.473 179.178 218.314 179.196 219.329C179.055 220.444 179.984 221.281 181.079 221.253Z" fill="#1E1E1E"/>
<path d="M275.232 357.044L275.149 357.053C274.897 357.079 274.404 357.214 274.103 357.584C272.189 360.409 271.405 363.542 270.79 367.506C270.25 371.377 269.962 375.222 270.091 379.025C270.293 386.89 272.386 394.221 276.278 400.096C276.772 400.808 277.292 400.924 277.627 400.89C278.38 400.812 279.175 400.307 279.526 399.593C279.885 398.962 279.817 398.291 279.415 397.654C276.118 392.65 274.387 386.384 274.068 379.04C273.94 376.086 274.137 373.013 274.56 369.662L274.71 368.63C275.042 366.052 275.39 362.794 277.095 360.414C277.688 359.59 277.896 358.297 276.891 357.552C276.43 357.176 275.818 356.984 275.232 357.044Z" fill="#00A99D"/>
<path d="M224.886 229.31C222.092 222.56 217.441 216.679 211.604 212.446C211.236 212.145 210.892 212.095 210.474 212.138C210.307 212.155 210.139 212.172 209.981 212.274C209.337 212.594 208.894 213.233 208.786 213.838C208.727 214.098 208.77 214.518 209.406 214.961C214.791 218.901 218.947 224.07 221.565 229.905C223.872 235.179 226.014 243.013 223.169 250.004C222.894 250.626 222.944 251.129 223.33 251.598C223.724 252.151 224.427 252.418 225.096 252.349C225.096 252.349 225.096 252.349 225.18 252.341C225.598 252.298 225.991 252.003 226.191 251.474C229.562 242.988 226.874 233.938 224.886 229.31Z" fill="#00A99D"/>
<path d="M211.952 336.794C211.901 336.291 211.591 335.73 211.131 335.354C210.947 335.204 210.495 334.911 209.994 334.963C196.137 337.403 182.284 336.54 168.704 332.516C168.612 332.441 168.444 332.458 168.361 332.467C168.11 332.493 167.868 332.602 167.709 332.703C167.149 333.015 166.707 333.653 166.674 334.164C166.408 335.715 167.905 336.324 168.516 336.515C181.921 340.472 196.275 341.283 210.141 338.927C211.144 338.824 212.071 337.967 211.952 336.794Z" fill="#FBB03B"/>
</svg>
