<svg width="386" height="400" viewBox="0 0 386 400" fill="none" xmlns="http://www.w3.org/2000/svg">
<path d="M306.507 54.4889C346.125 73.0309 383.406 105.162 384.957 141.464C386.508 177.765 352.33 218.256 335.501 262.66C318.417 306.796 318.417 354.597 296.149 378.369C273.625 402.141 228.568 401.616 186.889 396.911C145.464 391.948 107.143 382.806 74.0053 362.699C40.6028 342.592 12.1291 311.511 3.32195 275.982C-5.74053 240.196 5.13837 199.972 19.1199 162.363C33.3567 124.754 50.706 89.7503 78.6691 67.2861C106.632 44.8218 144.954 34.8971 185.082 32.8072C225.21 30.4597 266.9 35.6796 306.507 54.4889Z" fill="#F8F8F8"/>
<path d="M163.367 219.602C163.81 216.613 163.128 213.696 162.185 210.855C162.16 210.007 161.467 209.439 160.666 209.396C158.928 209.307 157.191 209.445 155.478 209.676C154.531 209.812 153.591 209.961 152.64 210.118C151.754 210.269 150.772 210.322 150.112 211.035C149.364 211.857 149.558 212.896 149.729 213.898C149.886 214.821 150.042 215.744 150.219 216.672C150.576 218.561 150.99 220.431 151.469 222.296C151.588 222.767 152.064 223.26 152.551 223.325C154.29 223.554 155.901 222.878 157.49 222.25C159.08 221.623 160.661 220.983 162.361 220.673C162.834 220.605 163.302 220.082 163.367 219.602ZM152.779 214.414C152.716 214.032 152.652 213.649 152.588 213.267C152.584 213.234 152.581 213.201 152.578 213.167C153.117 213.093 153.681 212.95 154.18 212.867C154.878 212.745 155.572 212.644 156.274 212.556C157.379 212.426 158.499 212.375 159.622 212.357C160.204 214.192 160.694 216.103 160.607 218.024C159.4 218.323 158.246 218.766 157.088 219.228C156.385 219.51 155.675 219.78 154.957 220.037C154.69 220.134 154.374 220.262 154.047 220.344C153.763 219.131 153.459 217.914 153.22 216.69C153.047 215.936 152.907 215.179 152.779 214.414Z" fill="#DCDCDC"/>
<path d="M329.367 14.245C329.81 11.2561 329.128 8.33879 328.185 5.49797C328.16 4.65048 327.467 4.08238 326.666 4.0387C324.928 3.95005 323.191 4.08863 321.478 4.31892C320.531 4.45532 319.591 4.60442 318.64 4.76129C317.754 4.91245 316.772 4.96491 316.112 5.67827C315.364 6.49969 315.558 7.53966 315.729 8.54155C315.886 9.46441 316.042 10.3873 316.219 11.3151C316.576 13.2038 316.99 15.0741 317.469 16.9387C317.588 17.41 318.064 17.9035 318.551 17.968C320.29 18.1971 321.901 17.5209 323.49 16.8934C325.08 16.266 326.661 15.6258 328.361 15.3165C328.834 15.2483 329.302 14.7256 329.367 14.245ZM318.779 9.05727C318.716 8.67486 318.652 8.29245 318.588 7.91004C318.584 7.87687 318.581 7.84371 318.578 7.81055C319.117 7.73664 319.681 7.59355 320.18 7.5098C320.878 7.38845 321.572 7.28758 322.274 7.1994C323.379 7.06919 324.499 7.01801 325.622 6.99999C326.204 8.83558 326.694 10.7461 326.607 12.667C325.4 12.9666 324.246 13.4088 323.088 13.8714C322.385 14.1537 321.675 14.4232 320.957 14.6801C320.69 14.777 320.374 14.905 320.047 14.9872C319.763 13.7744 319.459 12.5567 319.22 11.3333C319.047 10.5791 318.907 9.82209 318.779 9.05727Z" fill="#DCDCDC"/>
<path d="M282.545 308.379C280.221 306.465 277.354 305.529 274.411 304.853C273.671 304.435 272.811 304.723 272.343 305.371C271.332 306.781 270.517 308.307 269.793 309.861C269.4 310.725 269.023 311.588 268.646 312.466C268.299 313.286 267.816 314.136 268.072 315.057C268.374 316.107 269.37 316.482 270.321 316.856C271.196 317.201 272.072 317.547 272.962 317.878C274.773 318.554 276.599 319.173 278.456 319.734C278.923 319.878 279.603 319.734 279.919 319.36C281.051 318.021 281.338 316.323 281.655 314.668C281.972 313.013 282.274 311.358 282.923 309.775C283.119 309.343 282.923 308.681 282.545 308.379ZM272.404 314.567C272.041 314.423 271.679 314.279 271.317 314.136C271.287 314.121 271.257 314.107 271.226 314.092C271.453 313.603 271.634 313.056 271.83 312.596C272.102 311.948 272.389 311.315 272.69 310.681C273.173 309.688 273.732 308.724 274.32 307.774C276.207 308.235 278.108 308.81 279.708 309.875C279.316 311.041 279.074 312.236 278.848 313.445C278.712 314.179 278.561 314.913 278.395 315.647C278.335 315.92 278.274 316.251 278.169 316.568C276.976 316.179 275.769 315.805 274.592 315.373C273.852 315.129 273.128 314.855 272.404 314.567Z" fill="#FBB03B"/>
<path d="M147.545 113.68C145.221 111.766 142.354 110.831 139.411 110.154C138.671 109.737 137.811 110.025 137.343 110.672C136.332 112.083 135.517 113.609 134.793 115.163C134.4 116.026 134.023 116.89 133.646 117.768C133.299 118.588 132.816 119.437 133.072 120.359C133.374 121.409 134.37 121.783 135.321 122.158C136.196 122.503 137.072 122.848 137.962 123.179C139.773 123.856 141.599 124.475 143.456 125.036C143.923 125.18 144.603 125.036 144.919 124.662C146.051 123.323 146.338 121.625 146.655 119.97C146.972 118.315 147.274 116.66 147.923 115.077C148.119 114.645 147.923 113.983 147.545 113.68ZM137.404 119.869C137.041 119.725 136.679 119.581 136.317 119.437C136.287 119.423 136.257 119.409 136.226 119.394C136.453 118.905 136.634 118.358 136.83 117.897C137.102 117.25 137.389 116.617 137.69 115.983C138.173 114.99 138.732 114.026 139.32 113.076C141.207 113.537 143.108 114.112 144.708 115.177C144.316 116.343 144.074 117.538 143.848 118.747C143.712 119.481 143.561 120.215 143.395 120.949C143.335 121.222 143.274 121.553 143.169 121.87C141.976 121.481 140.769 121.107 139.592 120.675C138.852 120.43 138.128 120.157 137.404 119.869Z" fill="#FBB03B"/>
<path d="M258.367 288.638C258.81 285.649 258.128 282.732 257.185 279.891C257.16 279.044 256.467 278.475 255.666 278.432C253.928 278.343 252.191 278.482 250.478 278.712C249.531 278.848 248.591 278.997 247.64 279.154C246.754 279.306 245.772 279.358 245.112 280.071C244.364 280.893 244.558 281.933 244.729 282.935C244.886 283.857 245.042 284.78 245.219 285.708C245.576 287.597 245.99 289.467 246.469 291.332C246.588 291.803 247.064 292.297 247.551 292.361C249.29 292.59 250.901 291.914 252.49 291.286C254.08 290.659 255.661 290.019 257.361 289.71C257.834 289.641 258.302 289.119 258.367 288.638ZM247.779 283.45C247.716 283.068 247.652 282.685 247.588 282.303C247.584 282.27 247.581 282.237 247.578 282.204C248.117 282.13 248.681 281.987 249.18 281.903C249.878 281.782 250.572 281.681 251.274 281.592C252.379 281.462 253.499 281.411 254.622 281.393C255.204 283.229 255.694 285.139 255.607 287.06C254.4 287.36 253.246 287.802 252.088 288.264C251.385 288.547 250.675 288.816 249.957 289.073C249.69 289.17 249.374 289.298 249.047 289.38C248.763 288.167 248.459 286.95 248.22 285.726C248.047 284.972 247.907 284.215 247.779 283.45Z" fill="#DCDCDC"/>
<path d="M142.367 361.272C142.81 358.283 142.128 355.365 141.185 352.525C141.16 351.677 140.467 351.109 139.666 351.065C137.928 350.977 136.191 351.115 134.478 351.346C133.531 351.482 132.591 351.631 131.64 351.788C130.754 351.939 129.772 351.992 129.112 352.705C128.364 353.526 128.558 354.566 128.729 355.568C128.886 356.491 129.042 357.414 129.219 358.342C129.576 360.23 129.99 362.101 130.469 363.965C130.588 364.437 131.064 364.93 131.551 364.995C133.29 365.224 134.901 364.548 136.49 363.92C138.08 363.293 139.661 362.652 141.361 362.343C141.834 362.275 142.302 361.752 142.367 361.272ZM131.779 356.084C131.716 355.701 131.652 355.319 131.588 354.937C131.584 354.904 131.581 354.87 131.578 354.837C132.117 354.763 132.681 354.62 133.18 354.536C133.878 354.415 134.572 354.314 135.274 354.226C136.379 354.096 137.499 354.045 138.622 354.027C139.204 355.862 139.694 357.773 139.607 359.694C138.4 359.993 137.246 360.435 136.088 360.898C135.385 361.18 134.675 361.45 133.957 361.707C133.69 361.804 133.374 361.932 133.047 362.014C132.763 360.801 132.459 359.583 132.22 358.36C132.047 357.606 131.907 356.849 131.779 356.084Z" fill="#00A99D"/>
<path d="M355.367 54.5969C355.81 51.608 355.128 48.6907 354.185 45.8499C354.16 45.0024 353.467 44.4343 352.666 44.3906C350.928 44.302 349.191 44.4406 347.478 44.6708C346.531 44.8072 345.591 44.9563 344.64 45.1132C343.754 45.2644 342.772 45.3168 342.112 46.0302C341.364 46.8516 341.558 47.8916 341.729 48.8935C341.886 49.8163 342.042 50.7392 342.219 51.667C342.576 53.5557 342.99 55.426 343.469 57.2907C343.588 57.7619 344.064 58.2554 344.551 58.3199C346.29 58.549 347.901 57.8728 349.49 57.2453C351.08 56.6179 352.661 55.9777 354.361 55.6684C354.834 55.6002 355.302 55.0776 355.367 54.5969ZM344.779 49.4092C344.716 49.0268 344.652 48.6444 344.588 48.262C344.584 48.2288 344.581 48.1956 344.578 48.1625C345.117 48.0886 345.681 47.9455 346.18 47.8617C346.878 47.7404 347.572 47.6395 348.274 47.5513C349.379 47.4211 350.499 47.3699 351.622 47.3519C352.204 49.1875 352.694 51.098 352.607 53.0189C351.4 53.3186 350.246 53.7607 349.088 54.2233C348.385 54.5056 347.675 54.7751 346.957 55.032C346.69 55.1289 346.374 55.2569 346.047 55.3391C345.763 54.1263 345.459 52.9087 345.22 51.6853C345.048 50.9311 344.907 50.174 344.779 49.4092Z" fill="#00A99D"/>
</svg>
