<svg width="202" height="135" viewBox="0 0 202 135" fill="none" xmlns="http://www.w3.org/2000/svg">
<path d="M188.595 12.6328C188.125 11.5728 187.235 10.7628 186.275 10.1028C182.175 7.2628 174.025 5.9028 170.925 10.9028C169.805 12.7128 169.775 14.6128 169.525 16.6228C169.265 18.6428 167.985 20.3628 167.685 22.3628C166.735 28.6428 172.725 32.8628 178.495 31.7528C180.095 31.4428 181.805 30.9128 182.985 29.8928C185.345 27.8528 185.595 24.8528 186.665 22.1228C187.755 19.3128 189.975 15.7528 188.595 12.6328Z" fill="#FBB03B"/>
<path d="M145.675 48.5028C145.665 48.5128 145.665 48.5228 145.665 48.5228C145.665 48.5128 145.675 48.5028 145.675 48.4828C145.675 48.4928 145.675 48.5028 145.675 48.5028Z" fill="#1E1E1E"/>
<path d="M174.685 58.6028C173.725 55.6428 172.755 52.6728 171.765 49.7228C170.905 47.1628 170.045 44.6028 169.165 42.0428C168.255 39.4128 167.115 36.8028 166.105 34.5028C163.965 29.6128 162.085 24.4928 160.515 19.2928C160.505 19.2428 160.485 19.1928 160.455 19.1428C160.335 18.7228 160.025 18.3328 159.625 18.1228C159.255 17.9228 158.825 17.9028 158.405 18.0528L158.385 18.0628L139.015 24.9728C137.915 25.3728 136.755 25.7028 135.645 26.0228C134.795 26.2628 133.945 26.5128 133.095 26.7828C131.125 27.4228 129.105 28.3128 127.115 29.4128C126.605 29.6928 126.325 30.2928 126.385 30.9328C126.255 31.2728 126.245 31.6628 126.365 32.0428C127.325 35.0128 128.295 37.9728 129.285 40.9228C130.145 43.4828 131.005 46.0428 131.885 48.6028C132.795 51.2328 133.935 53.8428 134.945 56.1428C137.085 61.0328 138.965 66.1528 140.535 71.3528C140.555 71.4028 140.575 71.4528 140.595 71.5028C140.715 71.9228 141.015 72.3228 141.415 72.5228C141.795 72.7228 142.215 72.7428 142.635 72.6028L142.655 72.5928L162.025 65.6828C163.135 65.2828 164.285 64.9528 165.405 64.6328C166.255 64.3928 167.105 64.1428 167.945 63.8728C168.125 63.8128 168.315 63.7528 168.495 63.6928C170.295 63.0728 172.115 62.2428 173.925 61.2428C174.435 60.9628 174.715 60.3628 174.655 59.7228C174.805 59.3628 174.805 58.9828 174.685 58.6028ZM164.925 61.2928C164.615 61.3728 164.315 61.4628 164.015 61.5528C163.375 61.8128 162.725 62.0628 162.075 62.3128C161.315 62.6028 160.565 62.9328 159.775 63.1428C159.325 63.2628 158.865 63.3628 158.405 63.4428L143.185 68.8728C142.395 66.3228 141.545 63.8528 140.655 61.5028C140.345 60.6828 140.015 59.8828 139.685 59.0728C138.905 57.9628 138.505 56.5628 138.025 55.3128C137.665 54.3628 137.275 53.4328 136.875 52.4928C136.755 52.2128 136.675 51.9428 136.605 51.6628C136.605 51.6828 136.595 51.6928 136.595 51.7128C136.435 51.3228 136.285 50.9328 136.125 50.5328C136.095 50.4728 136.065 50.4128 136.055 50.3528C135.555 49.0928 135.065 47.8328 134.625 46.5528C132.985 41.7528 131.325 36.7828 129.695 31.7628C131.645 30.7628 133.755 29.9628 136.125 29.3328C138.305 28.7528 140.445 27.9728 142.515 27.2328L157.865 21.7528C158.655 24.2928 159.505 26.7728 160.395 29.1228C161.225 31.3128 162.145 33.4928 163.045 35.6028C164.215 38.3528 165.425 41.2028 166.415 44.0728C166.415 44.0828 166.425 44.0928 166.425 44.1128C166.405 44.1128 166.385 44.1028 166.375 44.1028C166.785 45.1228 167.135 46.1628 167.445 47.2128C167.735 47.7728 167.965 48.3428 168.065 48.9428C169.165 52.2028 170.265 55.5228 171.345 58.8628C169.405 59.8528 167.295 60.6528 164.925 61.2928Z" fill="#1E1E1E"/>
<path d="M199.225 15.1328L200.985 17.1028C201.585 17.7728 200.985 19.0128 200.255 19.1728C199.635 19.3128 199.015 19.4828 198.395 19.6828C198.675 20.1128 198.955 20.5428 199.255 20.9528C199.735 21.6128 199.345 22.9628 198.525 23.0228C198.225 23.0428 197.925 23.0928 197.625 23.1628C198.035 23.8728 198.375 24.6528 198.625 25.5028C198.845 26.2628 198.515 27.2628 197.765 27.3428C197.295 27.3928 196.825 27.4728 196.355 27.5728C196.625 27.9128 196.895 28.2628 197.155 28.6328C197.545 29.1928 197.395 30.3928 196.665 30.6328C196.115 30.8128 195.575 30.9928 195.025 31.1728C195.385 31.7128 195.745 32.2428 196.105 32.7828C196.535 33.4228 196.305 34.4228 195.615 34.7828C195.165 35.0128 194.745 35.0628 194.305 35.0428C194.605 35.5728 194.845 36.1728 195.015 36.8428C195.175 37.4928 194.635 38.4228 194.075 38.4128C193.185 38.4128 192.295 38.4028 191.405 38.4028C190.245 38.4028 190.325 36.0528 191.495 36.0528C191.815 36.0528 192.125 36.0528 192.445 36.0528C192.265 35.8428 192.075 35.6428 191.855 35.4828C191.355 35.1228 191.325 34.2628 191.755 33.6528C192.195 33.0228 192.775 32.7128 193.385 32.6228C193.405 32.6228 193.415 32.6228 193.435 32.6228C193.175 32.2328 192.905 31.8428 192.645 31.4528C192.265 30.8928 192.405 29.6928 193.135 29.4528C193.645 29.2828 194.155 29.1128 194.665 28.9428C194.355 28.5628 194.025 28.2028 193.685 27.8528C193.195 27.3528 193.525 26.0828 194.175 25.8528C194.905 25.5928 195.635 25.3828 196.365 25.2328C196.055 24.5928 195.695 24.0028 195.245 23.4728C194.755 22.8928 195.095 21.7928 195.735 21.4728C196.065 21.3028 196.405 21.1728 196.745 21.0528C196.475 20.6228 196.215 20.1828 195.975 19.7228C195.665 19.1528 196.055 18.1528 196.595 17.9428C197.145 17.7328 197.695 17.5428 198.245 17.3728C198.105 17.2228 197.975 17.0628 197.835 16.9128C197.035 15.9928 198.395 14.2028 199.225 15.1328Z" fill="#00A99D"/>
<path d="M195.585 8.33281C195.745 7.64281 195.275 6.97281 194.405 6.66281C193.355 6.28281 192.305 5.90281 191.255 5.53281C187.235 4.09281 182.905 2.61281 178.435 1.49281C176.045 0.892813 173.895 0.452813 171.825 0.152813C170.015 -0.117187 167.775 -0.207187 166.455 1.44281C165.885 2.15281 165.555 2.98281 165.235 3.79281L165.175 3.95281C164.835 4.80281 164.535 5.69281 164.275 6.68281C163.755 8.65281 163.445 10.6728 163.205 12.4228C162.895 14.6328 162.525 16.9528 162.025 19.3028C162.115 19.7728 162.235 20.2328 162.385 20.6828C162.645 21.4828 163.105 22.9828 164.005 23.2928C164.115 23.3328 164.235 23.3428 164.335 23.2728C164.445 23.2028 164.485 23.0728 164.515 22.9528C165.015 21.0028 165.495 19.0428 165.805 17.0528C165.955 16.1228 166.085 15.1828 166.215 14.2428C166.435 12.6728 166.655 11.0428 166.965 9.46281C167.235 8.09281 167.545 6.90281 167.915 5.82281C168.135 5.18281 168.365 4.60281 168.625 4.06281L168.695 3.90281C168.875 3.52281 169.055 3.12281 169.355 2.91281C169.875 2.55281 170.885 2.73281 171.705 2.88281L172.065 2.94281C173.465 3.17281 174.925 3.46281 176.425 3.81281C182.085 5.13281 187.655 7.12281 192.595 8.90281C192.595 8.91281 192.595 8.92281 192.595 8.93281C192.625 10.8128 192.325 12.8028 191.625 15.3628C190.745 18.5528 189.695 21.7528 188.675 24.8528L188.055 26.7228C187.645 27.9828 187.225 29.2328 186.805 30.4828C186.725 30.8128 186.635 31.1428 186.545 31.4728C186.355 32.1428 186.205 32.8428 185.955 33.4928C185.735 34.0528 185.475 34.6028 185.235 35.1528C185.125 35.4228 185.015 35.6928 184.935 35.9728C184.855 36.2528 184.835 36.3328 184.845 36.5828C184.855 37.0128 184.585 37.2528 184.275 37.3328C184.275 37.3328 184.275 37.3428 184.285 37.3428C184.275 37.3428 184.265 37.3428 184.255 37.3428C184.055 37.3828 183.845 37.3628 183.665 37.2728C183.645 37.2728 183.615 37.2628 183.595 37.2628C183.425 37.2428 183.275 37.2128 183.135 37.2028C182.455 37.1328 181.705 37.0128 180.845 36.8528C179.165 36.5328 177.545 36.1128 176.165 35.7328C175.515 35.5528 174.865 35.3728 174.205 35.1928C172.845 34.8128 171.455 34.4228 170.045 34.0728C169.915 34.0428 169.775 34.0128 169.645 33.9828C169.625 33.9828 169.615 33.9828 169.595 33.9828C169.565 33.9828 169.545 33.9928 169.515 33.9928C169.385 34.0128 169.265 34.0528 169.145 34.0928C169.125 34.1028 169.115 34.1028 169.085 34.1128C169.035 34.1428 168.985 34.1628 168.945 34.1928C168.925 34.2028 168.915 34.2128 168.905 34.2128C168.905 34.2228 168.895 34.2228 168.885 34.2428C168.855 34.2728 168.825 34.3128 168.785 34.3428C168.775 34.3528 168.775 34.3628 168.765 34.3628C168.745 34.4028 168.715 34.4428 168.685 34.5028C168.675 34.5228 168.665 34.5528 168.665 34.5728C168.645 34.6228 168.635 34.6728 168.625 34.7328C168.625 34.7528 168.625 34.7728 168.615 34.7928C168.615 34.8628 168.605 34.9428 168.605 35.0128C168.605 35.1628 168.615 35.2628 168.645 35.3728C168.655 35.4428 168.675 35.5028 168.695 35.5628C168.705 35.5828 168.735 35.6728 168.745 35.7028C168.795 35.8128 168.855 35.9228 168.925 36.0228C168.935 36.0428 168.955 36.0628 168.965 36.0828C169.005 36.1328 169.055 36.1828 169.095 36.2328C169.145 36.2828 169.185 36.3228 169.235 36.3628C169.255 36.3828 169.275 36.3928 169.295 36.4128C169.395 36.4828 169.495 36.5528 169.595 36.6128C169.775 36.7228 169.955 36.8028 170.145 36.8928C170.475 36.9728 170.805 37.0628 171.105 37.1428C171.885 37.3528 172.655 37.5628 173.435 37.7828C176.705 38.7028 180.105 39.6428 183.585 39.9728L183.935 40.0128C184.845 40.1128 186.085 40.2528 186.845 39.5828C187.415 39.0828 187.635 38.2828 187.835 37.5828C187.895 37.3728 187.945 37.1828 188.005 37.0028C188.655 35.1228 189.295 33.2528 189.925 31.3628C191.155 27.6928 192.365 23.9528 193.525 20.2528L193.665 19.8128C194.755 16.3528 195.885 12.7628 195.815 9.00281C195.795 8.77281 195.725 8.53281 195.585 8.33281Z" fill="#1E1E1E"/>
<path d="M51.4454 134.713C50.8154 134.713 50.2254 134.303 50.0154 133.673C49.7654 132.883 50.1955 132.043 50.9855 131.783C51.8355 131.513 52.5255 131.023 52.9855 130.383C53.5355 129.613 53.8155 128.583 53.8155 127.343C53.8155 127.223 53.8155 127.103 53.8055 126.983C53.7755 126.153 54.4155 125.453 55.2455 125.423C56.0855 125.373 56.7755 126.033 56.8055 126.863C56.8155 127.023 56.8155 127.183 56.8155 127.343C56.8155 129.233 56.3455 130.843 55.4355 132.133C54.5955 133.303 53.3755 134.173 51.9055 134.653C51.7555 134.683 51.5954 134.713 51.4454 134.713ZM44.1354 132.693C43.7454 132.693 43.3555 132.543 43.0555 132.243C41.5455 130.683 40.4355 128.613 39.8555 126.233C39.6855 125.553 39.5655 124.853 39.4855 124.163C39.3955 123.343 39.9855 122.603 40.8155 122.503C41.6355 122.423 42.3755 123.003 42.4755 123.833C42.5355 124.403 42.6355 124.973 42.7755 125.523C43.2255 127.353 44.0855 128.993 45.2055 130.153C45.7855 130.743 45.7655 131.693 45.1755 132.273C44.8955 132.553 44.5154 132.693 44.1354 132.693ZM1.49546 123.913C0.725459 123.913 0.0654689 123.323 0.00546887 122.543C-0.0645311 121.713 0.545464 120.993 1.37546 120.923C3.88546 120.713 6.38547 120.163 8.78547 119.303C9.56547 119.023 10.4255 119.423 10.7055 120.203C10.9855 120.983 10.5855 121.843 9.80546 122.123C7.15546 123.073 4.40547 123.683 1.63547 123.913C1.57547 123.913 1.53546 123.913 1.49546 123.913ZM52.6655 120.973C52.1855 120.973 51.7155 120.743 51.4255 120.323C50.0755 118.363 48.2255 116.663 46.0555 115.383C45.4755 115.043 45.2155 114.373 45.3555 113.753C44.6755 114.633 44.1055 115.553 43.6655 116.503L43.5455 116.773C43.2155 117.533 42.3255 117.873 41.5655 117.543C40.8055 117.213 40.4655 116.323 40.7955 115.563L40.9454 115.243C42.0654 112.853 43.7755 110.673 46.0455 108.753C46.6755 108.213 47.6255 108.293 48.1555 108.923C48.6955 109.553 48.6155 110.503 47.9755 111.033C47.3455 111.573 46.7555 112.123 46.2355 112.703C46.6555 112.523 47.1554 112.543 47.5754 112.793C50.1054 114.293 52.2954 116.303 53.8854 118.613C54.3554 119.293 54.1855 120.233 53.5055 120.703C53.2555 120.893 52.9555 120.973 52.6655 120.973ZM16.4555 118.673C15.9255 118.673 15.4155 118.393 15.1455 117.903C14.7455 117.183 15.0055 116.263 15.7355 115.863C17.9955 114.613 20.4455 113.313 23.0855 112.263C23.8555 111.963 24.7255 112.333 25.0355 113.103C25.3455 113.873 24.9655 114.743 24.1955 115.053C21.7055 116.043 19.3555 117.283 17.1855 118.483C16.9455 118.613 16.7055 118.673 16.4555 118.673ZM31.3355 113.073C30.6055 113.073 29.9655 112.533 29.8555 111.793C29.7355 110.973 30.3055 110.213 31.1155 110.093C34.0055 109.663 36.8655 109.643 39.5255 110.033C40.3455 110.153 40.9155 110.913 40.7955 111.733C40.6755 112.553 39.9055 113.113 39.0955 113.003C36.7255 112.653 34.1655 112.673 31.5655 113.063C31.4855 113.063 31.4055 113.073 31.3355 113.073ZM53.8055 107.203C53.2355 107.203 52.6955 106.873 52.4355 106.323C52.0955 105.573 52.4255 104.683 53.1755 104.333C53.5255 104.173 53.8855 104.013 54.2355 103.863C56.4655 102.923 58.7055 102.163 60.8155 101.463C61.6055 101.203 62.4555 101.633 62.7055 102.423C62.9555 103.213 62.5355 104.053 61.7455 104.313C59.6955 104.993 57.5155 105.723 55.3955 106.623C55.0655 106.763 54.7355 106.913 54.4055 107.053C54.2255 107.163 54.0155 107.203 53.8055 107.203ZM68.8455 101.763C68.2555 101.763 67.6855 101.403 67.4555 100.823C67.1455 100.053 67.5155 99.1828 68.2855 98.8728C68.8555 98.6428 69.4355 98.4028 69.9955 98.1528C71.8555 97.3228 73.5455 96.3628 75.0255 95.3028C75.7055 94.8228 76.6355 94.9828 77.1155 95.6528C77.5955 96.3328 77.4354 97.2628 76.7654 97.7428C75.1255 98.9128 73.2555 99.9628 71.2255 100.883C70.6255 101.153 70.0155 101.413 69.4055 101.653C69.2255 101.733 69.0355 101.763 68.8455 101.763ZM81.4255 92.3128C81.1555 92.3128 80.8854 92.2428 80.6354 92.0928C79.9254 91.6628 79.7155 90.7328 80.1455 90.0328C80.5755 89.3328 80.9455 88.6028 81.2355 87.8528C81.7855 86.4428 82.1155 84.9028 82.2455 83.1328C82.3055 82.3028 83.0255 81.6928 83.8555 81.7428C84.6855 81.8028 85.3055 82.5228 85.2455 83.3528C85.0955 85.4228 84.6955 87.2528 84.0355 88.9428C83.6755 89.8528 83.2355 90.7528 82.7055 91.6028C82.4155 92.0628 81.9255 92.3128 81.4255 92.3128ZM83.3854 76.7628C82.6354 76.7628 81.9855 76.1928 81.8955 75.4328L81.7654 74.3228C81.5054 72.0228 81.2355 69.6428 81.2155 67.3128C81.2055 66.4828 81.8755 65.8128 82.7055 65.8028H82.7155C83.5355 65.8028 84.2055 66.4628 84.2155 67.2928C84.2355 69.4628 84.4955 71.7628 84.7455 73.9928L84.8755 75.1128C84.9655 75.9328 84.3755 76.6828 83.5555 76.7728C83.4955 76.7628 83.4454 76.7628 83.3854 76.7628ZM84.1055 60.9428C83.9055 60.9428 83.7055 60.9028 83.5154 60.8228C82.7554 60.4828 82.4055 59.6228 82.7355 58.8728C82.7455 58.8628 82.7655 58.8028 82.7755 58.7828C83.8855 56.2828 85.7055 54.0328 88.1755 52.1328C88.8355 51.6328 89.7755 51.7528 90.2755 52.4028C90.7755 53.0628 90.6555 54.0028 90.0055 54.5028C87.9355 56.0928 86.4255 57.9528 85.5055 60.0228C85.2455 60.6028 84.6855 60.9428 84.1055 60.9428ZM104.345 52.2328C104.325 52.2328 104.315 52.2328 104.295 52.2328C102.835 52.1828 101.365 52.1028 99.9155 51.9928C98.5755 51.8828 97.4255 51.8028 96.4055 51.8428C95.5555 51.8928 94.8855 51.2228 94.8555 50.4028C94.8255 49.5728 95.4755 48.8828 96.2955 48.8528C97.4555 48.8128 98.7155 48.9028 100.145 49.0128C101.545 49.1228 102.975 49.2028 104.385 49.2528C105.215 49.2828 105.865 49.9728 105.835 50.8028C105.815 51.5928 105.155 52.2328 104.345 52.2328ZM112.345 52.1428C111.555 52.1428 110.895 51.5228 110.845 50.7228C110.795 49.8928 111.436 49.1828 112.256 49.1428C114.866 48.9928 117.495 48.7328 120.085 48.3528C120.905 48.2228 121.665 48.8028 121.785 49.6228C121.905 50.4428 121.335 51.2028 120.515 51.3228C117.845 51.7128 115.125 51.9828 112.425 52.1328C112.395 52.1428 112.365 52.1428 112.345 52.1428Z" fill="#1E1E1E"/>
<path d="M58.2855 116.483C57.7855 115.853 56.6955 115.953 56.1655 116.483C55.5355 117.113 55.6555 117.963 56.1655 118.603C58.8755 122.013 59.1155 126.673 59.0155 130.833C58.9655 132.763 61.9655 132.763 62.0155 130.833C62.1355 125.753 61.5455 120.583 58.2855 116.483Z" fill="#FBB03B"/>
<path d="M184.055 12.7829C183.415 12.2729 182.705 11.8229 181.955 11.4529C182.115 10.5029 182.245 9.54286 182.335 8.58286C182.515 6.66286 179.515 6.67286 179.335 8.58286C179.275 9.23286 179.185 9.88286 179.085 10.5229C178.445 10.4329 177.795 10.4029 177.145 10.4729C174.455 10.7629 172.795 13.0029 173.095 15.6729C173.235 16.8629 173.705 17.9729 174.515 18.8629C175.055 19.4629 175.745 19.8629 176.425 20.2729C175.825 21.9329 175.195 23.6129 174.515 25.2629C174.325 24.9829 174.225 24.6829 174.345 24.3629C174.625 23.6029 174.035 22.7229 173.295 22.5129C172.465 22.2829 171.725 22.7929 171.445 23.5629C170.785 25.3829 171.805 27.0329 173.245 28.1629C172.925 28.8629 172.595 29.5529 172.255 30.2329C171.375 31.9429 173.965 33.4629 174.845 31.7429C175.215 31.0129 175.575 30.2629 175.915 29.5129C178.515 30.2229 181.265 28.9629 182.085 26.3229C182.815 23.9629 181.915 21.4029 180.345 19.6029C180.225 19.4629 180.085 19.3529 179.955 19.2329C180.485 17.6729 180.945 16.0929 181.325 14.5029C181.565 14.6429 181.765 14.7829 181.925 14.9029C182.555 15.4029 183.425 15.5229 184.045 14.9029C184.575 14.3829 184.695 13.2929 184.055 12.7829ZM179.035 25.8929C178.655 26.6029 177.885 26.8029 177.145 26.7229C177.715 25.3429 178.265 23.9429 178.775 22.5429C179.365 23.5829 179.605 24.8329 179.035 25.8929ZM177.415 17.4029C177.355 17.3629 177.295 17.3229 177.235 17.2829C176.445 16.7129 175.965 15.8429 176.055 14.8529C176.185 13.5029 177.275 13.2529 178.515 13.4529C178.205 14.7829 177.835 16.0929 177.415 17.4029Z" fill="#1E1E1E"/>
<path d="M146.975 41.2628C147.115 41.0228 147.205 40.6028 146.895 40.4028C146.535 40.1728 145.985 40.2228 145.545 40.2728L145.425 40.2829C145.485 40.8629 145.545 41.4428 145.615 42.0228C145.985 41.9628 146.665 41.7928 146.975 41.2628Z" fill="#F7C300"/>
<path d="M139.485 34.1228C138.315 35.6328 137.965 37.6628 138.005 39.4828C138.055 41.2628 138.725 43.0228 139.855 44.3828C140.515 44.9128 141.305 45.3328 142.175 45.6228C142.495 45.7328 142.825 45.8228 143.155 45.8828C144.075 46.0628 145.015 46.0928 145.925 45.9728C146.615 45.8928 147.285 45.7228 147.995 45.4728L148.045 45.4528C148.425 45.3128 148.785 45.1828 149.125 45.0428C149.145 45.0328 149.155 45.0328 149.175 45.0228C150.565 44.4528 151.335 43.8528 151.835 42.9528C152.435 41.9028 153.195 40.3228 152.825 38.8628C152.695 38.3728 152.505 37.8628 152.245 37.3428C151.835 36.5228 151.275 35.7128 150.595 34.9528C149.845 34.1228 148.975 33.4428 147.995 32.9528C147.165 32.5328 146.285 32.2528 145.415 32.1328C145.325 32.1328 145.235 32.1328 145.145 32.1328C143.095 32.2128 140.805 32.4328 139.485 34.1228ZM146.915 36.0828C146.825 36.2928 146.625 36.4728 146.385 36.5528C146.165 36.6328 145.945 36.6228 145.755 36.5328C145.575 36.4428 145.345 36.3828 145.065 36.3628C145.085 36.5928 145.105 36.8328 145.125 37.0628C145.165 37.5828 145.205 38.1028 145.255 38.6128C145.435 38.5928 145.615 38.5728 145.785 38.5628C146.775 38.5128 147.695 38.7928 148.245 39.3028C148.645 39.6728 148.855 40.1528 148.865 40.7228C148.895 42.3728 147.425 43.4028 146.045 43.6628C145.965 43.6728 145.895 43.6828 145.815 43.6928L145.825 43.7628C145.835 43.8328 145.835 43.9028 145.845 43.9728C145.885 44.2728 145.775 44.5428 145.535 44.7128C145.495 44.7428 145.445 44.7728 145.395 44.8028C145.145 44.9228 144.835 44.9428 144.585 44.8328C144.315 44.7228 144.145 44.4928 144.115 44.1928C144.095 44.0628 144.085 43.9428 144.075 43.8128C144.065 43.7328 144.055 43.6528 144.055 43.5728C143.995 43.5628 143.945 43.5528 143.885 43.5328C143.185 43.3528 142.135 43.0828 141.995 42.1428C141.935 41.7228 142.175 41.3728 142.595 41.2528C142.975 41.1528 143.445 41.2728 143.645 41.6828L143.745 41.7228C143.785 41.7328 143.815 41.7528 143.855 41.7628L143.825 41.5128C143.775 41.1028 143.735 40.6928 143.695 40.2828C143.575 40.2628 143.465 40.2428 143.355 40.2128C142.725 40.0228 142.105 39.5928 141.605 38.9828C141.115 38.3828 140.895 37.6428 141.015 36.9428C141.125 36.2728 141.535 35.7028 142.165 35.3128C142.465 35.1328 142.805 34.9928 143.215 34.8828C143.205 34.7428 143.195 34.5928 143.175 34.4528C143.155 34.2328 143.135 34.0028 143.125 33.7828C143.105 33.4728 143.235 33.2028 143.495 33.0228C143.775 32.8328 144.165 32.8028 144.455 32.9428C144.705 33.0628 144.845 33.2828 144.875 33.5828C144.895 33.8028 144.905 34.0328 144.925 34.2528C144.935 34.3928 144.955 34.5328 144.965 34.6728C145.585 34.6728 146.085 34.7728 146.505 34.9828C146.915 35.2028 147.105 35.6628 146.915 36.0828Z" fill="#F7C300"/>
<path d="M143.325 36.6028C143.305 36.6128 143.275 36.6228 143.245 36.6428C142.955 36.7828 142.565 37.0628 142.695 37.4928C142.795 37.8228 143.095 38.1828 143.475 38.4128C143.435 38.0128 143.405 37.6128 143.375 37.2128C143.355 37.0028 143.335 36.8028 143.325 36.6028Z" fill="#F7C300"/>
<path d="M141.665 30.0028C141.595 30.0228 141.525 30.0328 141.465 30.0528C141.395 30.0928 141.325 30.1328 141.255 30.1828C141.205 30.1628 141.165 30.1528 141.115 30.1328C140.865 30.1928 140.615 30.2528 140.365 30.3028C140.205 30.3028 140.045 30.3028 139.885 30.3128C138.165 31.2728 136.565 32.3028 135.745 34.1028C135.055 35.6128 134.795 37.6828 134.985 40.2428C135.005 40.5628 135.055 40.8828 135.125 41.2128C135.135 41.2728 135.155 41.3228 135.185 41.3728C135.205 41.5128 135.225 41.6428 135.255 41.7728L135.325 41.7628C135.315 41.7828 135.315 41.7928 135.315 41.8128L135.275 41.8228C135.285 41.8528 135.285 41.8728 135.295 41.9028C135.295 41.9128 135.305 41.9328 135.305 41.9428C135.305 41.9728 135.315 42.0028 135.315 42.0328C135.405 42.4428 135.535 42.8528 135.695 43.2428C135.705 43.2628 135.725 43.2928 135.725 43.3128C135.745 43.3528 135.765 43.3828 135.775 43.4028L135.945 43.7228C135.995 43.8128 136.075 43.8928 136.165 43.9328C136.185 43.9728 136.215 44.0128 136.235 44.0428C136.315 44.1628 136.405 44.2928 136.485 44.4028C137.655 46.0928 139.445 47.3728 141.565 48.0228C142.615 48.2528 143.695 48.3128 144.735 48.3628L144.905 48.3728C146.445 48.4628 147.975 48.0228 149.375 47.5528C149.455 47.5528 149.525 47.5428 149.595 47.5128C149.725 47.4628 149.855 47.4128 149.985 47.3528L150.415 47.1728C150.515 47.1228 150.615 47.0828 150.725 47.0328C150.875 46.9628 151.025 46.8928 151.175 46.8228C151.965 46.4428 152.745 45.9628 153.365 45.2128C154.645 43.6728 155.485 41.5328 155.515 39.7628C155.535 38.1528 154.825 36.3428 153.395 34.3628C150.955 30.9828 146.995 29.1828 143.055 29.6728C143.045 29.6728 143.035 29.6728 143.025 29.6728C142.995 29.6928 142.955 29.7228 142.915 29.7328C142.545 29.9028 142.115 29.9728 141.665 30.0028ZM145.405 32.1428C146.375 32.1328 147.345 32.2228 148.235 32.4928C149.245 33.0028 150.195 33.7228 150.995 34.6128C151.715 35.4128 152.295 36.2628 152.725 37.1228C152.805 37.3928 152.855 37.6728 152.905 37.9628C153.585 38.8828 153.195 39.8728 153.195 40.9428C153.205 41.2228 153.045 41.4328 152.845 41.5628C152.825 41.6628 152.815 41.7528 152.775 41.8628C152.475 42.7628 151.855 43.5328 151.165 44.2028C150.625 44.7228 150.015 45.1628 149.355 45.5228C149.355 45.5328 149.345 45.5328 149.335 45.5328C148.965 45.6828 148.585 45.8228 148.175 45.9728C147.445 46.2328 146.725 46.4028 145.995 46.4928C145.015 46.6128 144.025 46.5828 143.055 46.3928C142.705 46.3228 142.345 46.2328 142.005 46.1128C141.165 45.6928 140.455 45.0828 139.855 44.3728C138.715 43.4628 137.935 42.2628 137.675 40.9228C137.495 39.9828 137.515 39.0128 137.595 37.8528C137.645 37.0828 137.705 36.2028 137.965 35.4428C138.485 33.9428 139.975 33.1128 141.415 32.3028C141.425 32.2928 141.445 32.2828 141.455 32.2728C141.485 32.2528 141.525 32.2228 141.565 32.2028C141.865 32.3528 142.195 32.3828 142.525 32.2928C143.455 32.0528 144.435 32.0128 145.405 32.1428Z" fill="#1E1E1E"/>
<path d="M150.595 34.9727C151.285 35.7327 151.835 36.5427 152.245 37.3627C152.505 37.8827 152.695 38.3927 152.825 38.8827C153.195 40.3427 152.435 41.9127 151.835 42.9727C151.335 43.8727 150.565 44.4627 149.175 45.0427C149.155 45.0427 149.145 45.0527 149.125 45.0627C148.785 45.2027 148.415 45.3327 148.045 45.4727L147.995 45.4927C147.295 45.7427 146.615 45.9027 145.925 45.9927C145.005 46.1027 144.075 46.0727 143.155 45.9027C142.825 45.8427 142.505 45.7527 142.175 45.6427C141.305 45.3527 140.525 44.9327 139.855 44.4027C140.445 45.1127 141.165 45.7227 142.005 46.1427C142.345 46.2627 142.695 46.3527 143.055 46.4227C144.025 46.6027 145.015 46.6427 145.995 46.5227C146.735 46.4327 147.455 46.2527 148.175 46.0027C148.575 45.8527 148.965 45.7127 149.335 45.5627C149.345 45.5627 149.355 45.5627 149.355 45.5527C150.015 45.1927 150.615 44.7527 151.165 44.2327C151.855 43.5627 152.475 42.7827 152.775 41.8927C152.805 41.7827 152.815 41.6927 152.845 41.5927C153.045 41.4627 153.205 41.2627 153.195 40.9727C153.185 39.9027 153.585 38.9127 152.905 37.9927C152.855 37.7027 152.805 37.4227 152.725 37.1527C152.295 36.2927 151.705 35.4427 150.995 34.6427C150.195 33.7527 149.255 33.0327 148.235 32.5227C147.345 32.2527 146.375 32.1627 145.405 32.1727C146.275 32.2927 147.155 32.5627 147.985 32.9927C148.965 33.4627 149.845 34.1327 150.595 34.9727Z" fill="#1E1E1E"/>
<path d="M144.885 34.2528C144.865 34.0328 144.845 33.8028 144.835 33.5828C144.815 33.2928 144.665 33.0628 144.415 32.9428C144.125 32.8028 143.735 32.8328 143.455 33.0228C143.195 33.1928 143.065 33.4728 143.085 33.7828C143.105 34.0028 143.125 34.2328 143.135 34.4528C143.145 34.5928 143.165 34.7428 143.175 34.8828C142.775 34.9828 142.435 35.1328 142.125 35.3128C141.495 35.6928 141.085 36.2728 140.975 36.9428C140.855 37.6428 141.066 38.3828 141.566 38.9828C142.066 39.5928 142.686 40.0228 143.316 40.2128C143.426 40.2428 143.535 40.2628 143.655 40.2828C143.695 40.6928 143.745 41.1028 143.785 41.5128L143.816 41.7628C143.776 41.7528 143.745 41.7328 143.705 41.7228L143.605 41.6828C143.405 41.2728 142.935 41.1528 142.555 41.2528C142.125 41.3628 141.885 41.7128 141.955 42.1428C142.095 43.0828 143.145 43.3528 143.845 43.5328C143.905 43.5428 143.955 43.5628 144.015 43.5728C144.025 43.6528 144.035 43.7328 144.035 43.8128C144.045 43.9428 144.065 44.0628 144.075 44.1928C144.115 44.4928 144.275 44.7228 144.545 44.8328C144.795 44.9428 145.105 44.9228 145.355 44.8028C145.405 44.7828 145.455 44.7528 145.495 44.7128C145.735 44.5328 145.845 44.2728 145.805 43.9728C145.795 43.9028 145.785 43.8328 145.785 43.7628L145.775 43.6928C145.855 43.6828 145.936 43.6728 146.006 43.6628C147.386 43.4028 148.865 42.3728 148.825 40.7228C148.815 40.1528 148.605 39.6728 148.205 39.3028C147.655 38.7928 146.735 38.5228 145.745 38.5628C145.575 38.5728 145.395 38.5928 145.215 38.6128C145.165 38.0928 145.125 37.5728 145.085 37.0628C145.065 36.8328 145.045 36.5928 145.025 36.3628C145.315 36.3828 145.535 36.4428 145.715 36.5328C145.905 36.6228 146.125 36.6328 146.345 36.5528C146.575 36.4728 146.775 36.2928 146.875 36.0828C147.065 35.6628 146.875 35.2028 146.425 34.9828C145.995 34.7728 145.505 34.6728 144.885 34.6728C144.915 34.5328 144.895 34.3928 144.885 34.2528ZM142.695 37.4828C142.565 37.0528 142.955 36.7728 143.245 36.6328C143.275 36.6228 143.295 36.6128 143.325 36.5928C143.345 36.7928 143.355 36.9928 143.375 37.1928C143.405 37.5928 143.435 37.9928 143.475 38.3928C143.095 38.1728 142.785 37.8128 142.695 37.4828ZM145.545 40.2728C145.985 40.2228 146.535 40.1728 146.895 40.4028C147.205 40.6028 147.115 41.0228 146.975 41.2628C146.665 41.8028 145.985 41.9628 145.615 42.0228C145.555 41.4428 145.485 40.8628 145.425 40.2828L145.545 40.2728Z" fill="#1E1E1E"/>
<path d="M160.165 54.0328C160.175 53.7628 160.065 53.3428 159.705 53.3028C159.275 53.2628 158.815 53.5628 158.435 53.8028L158.335 53.8628C158.655 54.3528 158.975 54.8328 159.295 55.3228C159.605 55.1128 160.135 54.6528 160.165 54.0328Z" fill="#F7C300"/>
<path d="M150.246 51.0928C149.896 52.9728 150.506 54.9429 151.376 56.5329C152.236 58.0929 153.636 59.3529 155.256 60.0429C156.086 60.2129 156.975 60.2329 157.885 60.0928C158.225 60.0428 158.556 59.9729 158.876 59.8729C159.776 59.6129 160.625 59.2129 161.385 58.6929C161.955 58.3029 162.486 57.8529 162.996 57.3129L163.025 57.2729C163.295 56.9728 163.566 56.6928 163.806 56.4128C163.816 56.4028 163.825 56.3829 163.835 56.3729C164.815 55.2329 165.225 54.3429 165.265 53.3229C165.315 52.1129 165.275 50.3629 164.285 49.2329C163.945 48.8629 163.545 48.4929 163.075 48.1429C162.335 47.5929 161.475 47.1329 160.515 46.7729C159.465 46.3729 158.385 46.1729 157.285 46.1729C156.345 46.1729 155.446 46.3329 154.616 46.6229C154.536 46.6629 154.456 46.7029 154.376 46.7429C152.586 47.7429 150.646 48.9828 150.246 51.0928ZM157.756 49.4529C157.766 49.6829 157.666 49.9329 157.496 50.1029C157.336 50.2729 157.136 50.3629 156.926 50.3729C156.716 50.3729 156.495 50.4329 156.225 50.5429C156.345 50.7429 156.475 50.9429 156.595 51.1429C156.865 51.5829 157.135 52.0329 157.415 52.4629C157.565 52.3629 157.716 52.2628 157.866 52.1828C158.726 51.6929 159.665 51.5229 160.385 51.7229C160.915 51.8729 161.315 52.2029 161.585 52.7029C162.365 54.1529 161.525 55.7429 160.415 56.6029C160.355 56.6529 160.285 56.6929 160.225 56.7329L160.265 56.7929C160.305 56.8529 160.345 56.9129 160.385 56.9729C160.555 57.2229 160.575 57.5128 160.445 57.7729C160.425 57.8229 160.395 57.8728 160.355 57.9128C160.185 58.1328 159.915 58.2929 159.645 58.3129C159.355 58.3329 159.106 58.2129 158.936 57.9629C158.866 57.8629 158.795 57.7529 158.725 57.6429C158.685 57.5729 158.635 57.5129 158.595 57.4429C158.535 57.4629 158.486 57.4729 158.426 57.4829C157.726 57.6429 156.655 57.8829 156.105 57.1029C155.855 56.7529 155.916 56.3329 156.236 56.0429C156.526 55.7829 156.996 55.6729 157.366 55.9429L157.475 55.9328C157.515 55.9328 157.555 55.9229 157.595 55.9229L157.455 55.7129C157.225 55.3629 156.995 55.0229 156.775 54.6729C156.665 54.7129 156.556 54.7429 156.436 54.7629C155.786 54.8829 155.036 54.7829 154.316 54.4629C153.606 54.1529 153.076 53.5928 152.866 52.9128C152.666 52.2628 152.765 51.5629 153.155 50.9429C153.335 50.6429 153.585 50.3629 153.895 50.0829C153.815 49.9629 153.745 49.8329 153.665 49.7129C153.545 49.5229 153.426 49.3329 153.316 49.1429C153.156 48.8729 153.146 48.5729 153.306 48.3029C153.466 48.0029 153.796 47.8029 154.116 47.7929C154.386 47.7829 154.625 47.9229 154.775 48.1729C154.895 48.3629 155.016 48.5529 155.126 48.7429C155.206 48.8629 155.275 48.9829 155.345 49.1029C155.895 48.8229 156.385 48.6829 156.855 48.6729C157.355 48.6629 157.736 48.9929 157.756 49.4529Z" fill="#F7C300"/>
<path d="M154.785 51.5529C154.765 51.5729 154.755 51.5929 154.735 51.6229C154.535 51.8829 154.326 52.3029 154.626 52.6229C154.866 52.8729 155.295 53.0529 155.735 53.0929C155.525 52.7529 155.305 52.4129 155.095 52.0729C154.995 51.8929 154.895 51.7229 154.785 51.5529Z" fill="#F7C300"/>
<path d="M150.315 46.4328C150.265 46.4828 150.205 46.5228 150.155 46.5728C150.105 46.6428 150.065 46.7128 150.035 46.7828C149.985 46.7828 149.935 46.7928 149.895 46.8028C149.695 46.9628 149.505 47.1328 149.315 47.2928C149.175 47.3728 149.035 47.4428 148.895 47.5128C147.805 49.1528 146.845 50.8028 146.935 52.7728C147.005 54.4328 147.725 56.3928 149.055 58.5828C149.225 58.8528 149.405 59.1128 149.615 59.3928C149.655 59.4428 149.695 59.4728 149.745 59.5128C149.825 59.6228 149.905 59.7328 149.985 59.8328L150.045 59.7928C150.045 59.8128 150.055 59.8228 150.055 59.8428L150.025 59.8728C150.045 59.8928 150.065 59.9128 150.075 59.9328C150.085 59.9428 150.095 59.9528 150.105 59.9628C150.125 59.9928 150.135 60.0128 150.155 60.0428C150.425 60.3628 150.725 60.6728 151.045 60.9428C151.055 60.9528 151.095 60.9828 151.105 60.9928C151.145 61.0128 151.175 61.0428 151.185 61.0528L151.485 61.2628C151.575 61.3228 151.675 61.3528 151.775 61.3528C151.815 61.3728 151.845 61.4028 151.885 61.4228C152.005 61.4928 152.145 61.5728 152.265 61.6328C154.085 62.6028 156.255 62.9328 158.445 62.5428C159.485 62.2728 160.475 61.8328 161.425 61.4028L161.575 61.3328C162.985 60.7028 164.145 59.6228 165.185 58.5628C165.255 58.5328 165.315 58.4828 165.365 58.4328C165.455 58.3328 165.545 58.2228 165.635 58.1228L165.935 57.7728C166.005 57.6828 166.075 57.6028 166.145 57.5128C166.245 57.3828 166.355 57.2528 166.455 57.1228C166.985 56.4228 167.455 55.6428 167.675 54.6928C168.105 52.7428 167.885 50.4528 167.105 48.8628C166.395 47.4228 164.925 46.1328 162.755 45.0128C159.045 43.1128 154.695 43.3228 151.415 45.5528C151.405 45.5628 151.405 45.5628 151.395 45.5728C151.375 45.6128 151.355 45.6428 151.325 45.6828C151.045 45.9428 150.695 46.1928 150.315 46.4328ZM154.615 46.6328C155.465 46.1828 156.375 45.8228 157.295 45.6528C158.435 45.6528 159.595 45.8528 160.715 46.2828C161.715 46.6628 162.625 47.1528 163.405 47.7228C163.595 47.9328 163.775 48.1528 163.945 48.3928C164.965 48.9028 165.065 49.9628 165.565 50.9128C165.695 51.1628 165.655 51.4128 165.535 51.6228C165.555 51.7228 165.595 51.8128 165.615 51.9128C165.755 52.8428 165.555 53.8228 165.255 54.7328C165.005 55.4428 164.665 56.1128 164.245 56.7328C164.245 56.7428 164.235 56.7428 164.225 56.7528C163.965 57.0528 163.685 57.3528 163.395 57.6728C162.865 58.2328 162.305 58.7128 161.695 59.1328C160.875 59.6828 159.985 60.1028 159.035 60.3828C158.685 60.4828 158.335 60.5628 157.975 60.6128C157.035 60.6128 156.125 60.4028 155.275 60.0428C153.855 59.7528 152.605 59.0328 151.765 57.9628C151.175 57.2028 150.745 56.3328 150.295 55.2628C149.985 54.5528 149.645 53.7528 149.525 52.9528C149.305 51.3828 150.255 49.9628 151.165 48.5928C151.175 48.5828 151.185 48.5628 151.195 48.5528C151.215 48.5128 151.235 48.4728 151.255 48.4328C151.595 48.4228 151.895 48.3028 152.155 48.0728C152.835 47.4428 153.685 46.9528 154.615 46.6328Z" fill="#1E1E1E"/>
<path d="M160.515 46.7828C161.475 47.1528 162.335 47.6128 163.075 48.1528C163.535 48.4928 163.945 48.8628 164.285 49.2428C165.285 50.3728 165.325 52.1128 165.265 53.3328C165.225 54.3628 164.815 55.2428 163.835 56.3828C163.825 56.3928 163.815 56.4028 163.805 56.4228C163.565 56.7028 163.305 56.9828 163.025 57.2828L162.995 57.3228C162.485 57.8628 161.955 58.3228 161.385 58.7028C160.625 59.2228 159.775 59.6228 158.875 59.8828C158.555 59.9728 158.225 60.0528 157.885 60.1028C156.985 60.2428 156.085 60.2228 155.255 60.0528C156.105 60.4128 157.025 60.6228 157.955 60.6228C158.315 60.5728 158.665 60.4928 159.015 60.3928C159.965 60.1128 160.865 59.6928 161.675 59.1428C162.285 58.7228 162.855 58.2428 163.375 57.6828C163.665 57.3728 163.945 57.0728 164.205 56.7628C164.215 56.7528 164.225 56.7528 164.225 56.7428C164.645 56.1228 164.985 55.4528 165.235 54.7428C165.545 53.8328 165.745 52.8528 165.595 51.9228C165.575 51.8128 165.545 51.7228 165.515 51.6328C165.635 51.4228 165.685 51.1728 165.545 50.9228C165.055 49.9728 164.955 48.9128 163.925 48.4028C163.755 48.1628 163.575 47.9428 163.385 47.7328C162.605 47.1628 161.695 46.6728 160.695 46.2928C159.575 45.8628 158.415 45.6528 157.275 45.6628C156.355 45.8328 155.455 46.1828 154.595 46.6428C155.425 46.3528 156.335 46.1928 157.265 46.1928C158.385 46.1828 159.465 46.3828 160.515 46.7828Z" fill="#1E1E1E"/>
<path d="M155.115 48.7428C154.995 48.5528 154.875 48.3628 154.765 48.1728C154.615 47.9228 154.375 47.7928 154.105 47.7928C153.785 47.8028 153.455 48.0028 153.295 48.3028C153.145 48.5728 153.145 48.8828 153.305 49.1428C153.425 49.3328 153.535 49.5228 153.655 49.7128C153.735 49.8328 153.805 49.9628 153.885 50.0828C153.575 50.3628 153.335 50.6428 153.145 50.9428C152.755 51.5728 152.655 52.2728 152.855 52.9128C153.065 53.5828 153.595 54.1528 154.305 54.4628C155.025 54.7728 155.775 54.8828 156.425 54.7628C156.545 54.7428 156.645 54.7128 156.765 54.6728C156.985 55.0228 157.215 55.3628 157.445 55.7128L157.585 55.9228C157.545 55.9328 157.505 55.9328 157.465 55.9328L157.355 55.9428C156.995 55.6728 156.515 55.7828 156.225 56.0428C155.895 56.3428 155.845 56.7528 156.095 57.1028C156.645 57.8728 157.705 57.6328 158.415 57.4828C158.475 57.4728 158.525 57.4528 158.585 57.4428C158.625 57.5128 158.675 57.5728 158.715 57.6428C158.785 57.7528 158.855 57.8528 158.925 57.9628C159.095 58.2128 159.345 58.3428 159.635 58.3128C159.915 58.2928 160.175 58.1428 160.345 57.9128C160.375 57.8728 160.405 57.8228 160.435 57.7728C160.565 57.5128 160.545 57.2228 160.375 56.9728C160.335 56.9128 160.295 56.8528 160.255 56.7928L160.225 56.7328C160.295 56.6928 160.355 56.6528 160.415 56.6028C161.525 55.7428 162.365 54.1528 161.585 52.7028C161.315 52.2028 160.915 51.8628 160.385 51.7228C159.665 51.5228 158.725 51.6928 157.865 52.1828C157.715 52.2628 157.565 52.3628 157.415 52.4628C157.135 52.0228 156.865 51.5828 156.595 51.1428C156.475 50.9428 156.345 50.7428 156.225 50.5428C156.495 50.4328 156.715 50.3828 156.925 50.3728C157.135 50.3728 157.335 50.2728 157.495 50.1028C157.665 49.9228 157.765 49.6728 157.755 49.4528C157.735 48.9928 157.355 48.6728 156.855 48.6728C156.375 48.6828 155.895 48.8128 155.345 49.1028C155.265 48.9828 155.185 48.8628 155.115 48.7428ZM154.635 52.6228C154.325 52.2928 154.545 51.8728 154.745 51.6228C154.765 51.6028 154.775 51.5728 154.795 51.5528C154.905 51.7228 155.005 51.8928 155.115 52.0628C155.325 52.4028 155.535 52.7428 155.755 53.0828C155.305 53.0528 154.865 52.8728 154.635 52.6228ZM158.435 53.8028C158.805 53.5628 159.275 53.2628 159.705 53.3028C160.075 53.3328 160.185 53.7528 160.165 54.0328C160.135 54.6528 159.605 55.1128 159.295 55.3328C158.975 54.8528 158.655 54.3628 158.335 53.8728L158.435 53.8028Z" fill="#1E1E1E"/>
</svg>
