<svg width="46" height="50" viewBox="0 0 46 50" fill="none" xmlns="http://www.w3.org/2000/svg">
<path d="M28.4215 32.5184C32.2815 32.3684 32.0515 26.3684 28.1915 26.5184C24.3315 26.6784 24.5515 32.6684 28.4215 32.5184Z" fill="#00A99D"/>
<path d="M31.5315 16.5884C32.4415 13.1984 29.2815 10.2184 25.9715 10.4684C24.9115 10.5484 23.9715 10.9184 23.1915 11.4884C23.1515 11.5084 23.1115 11.5184 23.0715 11.5484C22.9415 11.6284 22.8215 11.7184 22.7015 11.8084C22.6415 11.8384 22.5815 11.8484 22.5215 11.8884C22.4215 11.9484 22.3215 12.0184 22.2215 12.0784C21.7615 12.3684 21.3815 12.7884 21.1315 13.2784C21.0715 13.3584 21.0215 13.4484 20.9815 13.5084C20.8915 13.6784 20.7415 14.0684 20.6915 14.2484C20.6515 14.3984 20.6615 14.4984 20.6415 14.6884C20.6015 15.0684 20.6115 15.4184 20.7115 15.7984C20.7415 15.8984 20.7715 15.9784 20.8215 16.0784C20.8415 16.2584 20.8715 16.4384 20.9015 16.6084C20.9315 16.9384 20.9815 17.2784 21.0715 17.6184C21.3215 18.5484 22.0715 19.2284 22.9515 19.4984C23.0115 19.5284 23.0515 19.5684 23.1115 19.5984C26.0415 21.2184 30.6015 20.0584 31.5315 16.5884Z" fill="#FBB03B"/>
<path d="M26.3213 28.6484C26.3213 28.6584 26.3213 28.6684 26.3313 28.6684C26.3313 28.6584 26.3313 28.6484 26.3213 28.6384C26.3213 28.6384 26.3213 28.6384 26.3213 28.6484Z" fill="#1E1E1E"/>
<path d="M38.0214 30.7184C39.1414 28.6784 40.2514 26.6184 41.3514 24.5684C42.6214 22.1984 43.8814 19.8184 45.1214 17.4384C45.2814 17.1384 45.3314 16.8084 45.2714 16.4984C45.4114 15.9584 45.2614 15.4184 44.8714 15.0984C43.3414 13.8684 41.7514 12.8184 40.1714 11.9884C39.4914 11.6284 38.8014 11.2984 38.1214 10.9684C37.2214 10.5384 36.2814 10.0884 35.4114 9.58838L19.9414 0.898378L19.9314 0.888379C19.5914 0.698379 19.2314 0.668379 18.8814 0.778379C18.5114 0.898379 18.1914 1.18838 18.0314 1.52838C18.0014 1.56838 17.9814 1.60838 17.9614 1.64838C15.8714 5.84838 13.5314 9.92838 11.0014 13.7684C9.81142 15.5784 8.46142 17.6284 7.30142 19.7384C6.18142 21.7784 5.07142 23.8384 3.97142 25.8884C2.70142 28.2584 1.44142 30.6384 0.201416 33.0184C0.0414158 33.3184 -0.00858425 33.6484 0.0514157 33.9684C-0.0885843 34.5084 0.0614158 35.0484 0.451416 35.3684C1.84142 36.4884 3.27142 37.4484 4.71142 38.2384C4.86142 38.3184 5.00142 38.3984 5.15142 38.4784C5.83142 38.8284 6.51142 39.1584 7.20142 39.4984C8.10142 39.9384 9.04142 40.3784 9.92142 40.8784L25.3914 49.5684L25.4014 49.5784C25.7414 49.7684 26.1014 49.8084 26.4514 49.6884C26.8214 49.5684 27.1414 49.2784 27.3014 48.9384C27.3214 48.8984 27.3514 48.8684 27.3714 48.8184C29.4514 44.6184 31.7914 40.5484 34.3314 36.6984C35.5114 34.8684 36.8614 32.8184 38.0214 30.7184ZM9.68142 36.5384C9.45142 36.7384 9.32142 37.0084 9.26142 37.2884C8.87142 37.0984 8.48142 36.9084 8.09142 36.7284C6.17142 35.8384 4.49142 34.8584 2.98142 33.7284C4.47142 30.8784 5.98142 28.0584 7.47142 25.2884C7.56142 25.2984 7.65142 25.2984 7.74142 25.2884C9.02142 25.0984 10.3114 25.0084 11.6114 25.0384C12.8714 25.0584 14.2314 25.1284 15.4314 25.5484C17.3214 26.1984 17.8014 28.0684 17.7914 29.9084C17.7314 29.9484 17.6814 29.9984 17.6214 30.0384C14.9214 32.1284 12.2714 34.2984 9.68142 36.5384ZM25.4814 46.3284L13.2214 39.4484C12.8214 39.2184 12.4114 38.9884 12.0014 38.7584C14.1514 36.8984 16.3314 35.0784 18.5714 33.3284C20.0914 32.1384 21.6414 30.8084 23.2914 29.7184C23.7214 31.4584 24.7014 33.0484 26.3514 33.9084C27.5614 34.5384 29.0214 34.6784 30.3114 34.2784C30.2914 35.2384 30.2714 36.1984 30.2514 37.1584C30.2514 37.3784 30.2814 37.5584 30.3414 37.7284C29.7814 38.6184 29.2214 39.5284 28.6914 40.4384C27.6114 42.2884 26.5214 44.2684 25.4814 46.3284ZM29.7514 31.0084C29.7014 31.0384 29.6414 31.0784 29.5914 31.1084C29.5514 31.1284 29.4114 31.1884 29.4114 31.1984C29.3014 31.2284 29.1014 31.2484 29.0114 31.3084C28.9514 31.3184 28.8814 31.3184 28.8214 31.3184C28.8114 31.3184 28.7014 31.3184 28.6214 31.3184C28.5614 31.3084 28.3214 31.2684 28.1614 31.2284C28.1514 31.2184 28.1214 31.2084 28.0814 31.1884C27.9914 31.1384 27.8914 31.0984 27.8014 31.0484C27.7314 31.0084 27.6614 30.9584 27.5814 30.9184C27.5714 30.9184 27.5714 30.9184 27.5714 30.9084C27.4314 30.7884 27.2914 30.6584 27.1614 30.5184C27.1114 30.4684 27.0614 30.4084 27.0114 30.3584C27.0014 30.3484 27.0014 30.3384 26.9914 30.3284C26.9014 30.1784 26.8014 30.0384 26.7214 29.8784C26.6814 29.8084 26.6514 29.7384 26.6114 29.6684C26.5514 29.5084 26.4914 29.3384 26.4414 29.1784C26.3914 29.0184 26.3614 28.8484 26.3214 28.6784C26.3214 28.6984 26.3314 28.7184 26.3214 28.7184C26.3214 28.7184 26.3214 28.6884 26.3114 28.6484C26.2814 28.4984 26.2914 28.5584 26.3114 28.6384C26.3014 28.5384 26.2814 28.3784 26.2814 28.3684C26.2814 28.3384 26.2714 28.3084 26.2614 28.2684C27.7114 27.9084 29.4214 28.0284 30.0714 29.5084C30.2014 29.7984 30.2714 30.1184 30.3114 30.4484C30.2114 30.5184 30.1214 30.5884 30.0414 30.6884C29.9514 30.7984 29.8514 30.8984 29.7514 31.0084ZM33.5614 32.6884C33.5614 32.4584 33.5714 32.2384 33.5714 32.0084C33.5914 30.6284 33.4914 29.2484 32.8914 27.9884C31.5914 25.2484 28.2114 24.4284 25.4714 25.1384C23.7714 25.5784 22.2214 26.5184 20.7614 27.5884C20.3114 25.5684 19.2114 23.7284 17.2414 22.8284C15.7014 22.1284 14.0114 21.9384 12.3414 21.8484C11.3214 21.7884 10.3114 21.8184 9.30142 21.8984C9.31142 21.8884 9.31142 21.8784 9.32142 21.8684C10.5714 19.5684 12.0214 17.3284 13.4114 15.1584C14.4814 13.4984 15.5814 11.7784 16.6014 10.0384C17.6914 8.16838 18.7814 6.18838 19.8214 4.13838L32.0714 11.0184C33.7214 11.9584 35.4314 12.9184 37.2014 13.7384C39.1214 14.6184 40.8014 15.6084 42.3114 16.7384C40.2014 20.7684 38.0714 24.7584 35.9714 28.5984C35.2314 29.9784 34.4014 31.3384 33.5614 32.6884Z" fill="#1E1E1E"/>
<path d="M23.0215 16.7084C23.1415 16.7684 23.1115 16.7384 23.0215 16.7084V16.7084Z" fill="#1E1E1E"/>
<path d="M29.4513 14.6584C29.5113 12.5384 28.0813 10.3484 26.1013 9.5684C25.4813 9.3184 24.7313 9.3384 24.2413 9.7884C23.8513 9.4884 23.3413 9.3884 22.7913 9.4784C20.7413 9.8384 19.0313 11.5484 18.6113 13.5684C18.1513 15.7684 19.0913 17.9384 20.9213 19.1984C22.5313 20.2984 24.7013 20.3684 26.4313 19.5284C28.2513 18.6484 29.3913 16.6584 29.4513 14.6584ZM25.3713 16.4184L25.3513 16.4284C25.1813 16.5784 25.2513 16.4984 25.3213 16.4484C25.2213 16.5084 25.0113 16.6584 24.9813 16.6684C24.9613 16.6784 24.9213 16.7084 24.8713 16.7284C24.8613 16.7284 24.8513 16.7284 24.8413 16.7384C24.7013 16.7784 24.5613 16.8184 24.4113 16.8584C24.4113 16.8584 24.4113 16.8584 24.4013 16.8584C24.3213 16.8684 24.2213 16.8784 24.1513 16.8884C24.0013 16.8984 23.8513 16.8884 23.7113 16.8884C23.7013 16.8884 23.7013 16.8884 23.6913 16.8884C23.6413 16.8784 23.5813 16.8684 23.5713 16.8584C23.4213 16.8284 23.2813 16.7984 23.1413 16.7484C23.0713 16.7284 22.9913 16.6884 22.9313 16.6784C22.9613 16.6784 22.9913 16.6884 23.0113 16.6984C23.0013 16.6884 22.9913 16.6884 22.9713 16.6784C22.8413 16.6184 22.7113 16.5384 22.5813 16.4584C22.5613 16.4484 22.5513 16.4384 22.5413 16.4284C22.5313 16.4184 22.5313 16.4184 22.5313 16.4184C22.4113 16.3084 22.3013 16.1984 22.1913 16.0884C22.1713 16.0684 22.1613 16.0584 22.1413 16.0384C22.0813 15.9584 22.0213 15.8484 22.0113 15.8384C21.9913 15.8084 21.9113 15.6784 21.8413 15.5784C21.8313 15.5584 21.8313 15.5284 21.8113 15.4684C21.7913 15.3884 21.7613 15.3184 21.7413 15.2384C21.7313 15.2184 21.7013 15.1184 21.6913 15.0584C21.6913 15.0484 21.6913 15.0484 21.6913 15.0384C21.6813 14.8484 21.6813 14.6684 21.6713 14.4884C21.6913 14.3984 21.7013 14.3184 21.7213 14.2284C21.7413 14.1484 21.7613 14.0684 21.7813 13.9884C21.8013 13.9284 21.8213 13.8684 21.8413 13.8084C21.8813 13.6884 21.8713 13.7284 21.8013 13.9184C21.7913 13.7884 22.0113 13.5384 22.0613 13.4284C22.1113 13.3684 22.1513 13.3184 22.2013 13.2584C22.2513 13.1984 22.3113 13.1484 22.3713 13.0884C22.3913 13.0684 22.4713 12.9984 22.5213 12.9684C22.5313 12.9584 22.5513 12.9484 22.5613 12.9484C22.6413 12.8984 22.7313 12.8384 22.8113 12.7984C22.8313 12.7884 22.8713 12.7684 22.9113 12.7384C22.9213 12.7384 22.9113 12.7384 22.9213 12.7384C22.9813 12.7184 23.0313 12.6984 23.0913 12.6784C23.2813 12.6184 23.4713 12.5684 23.6713 12.5384C23.9013 12.4984 24.1113 12.3784 24.2813 12.2184C24.3613 12.2784 24.4413 12.3284 24.5413 12.3684C24.6413 12.4084 25.3313 12.6684 25.3313 12.7784C25.3313 12.7684 25.0613 12.5584 25.2513 12.7184C25.3113 12.7684 25.3613 12.8184 25.4213 12.8684C25.5313 12.9684 25.6513 13.1684 25.7713 13.2484C25.7913 13.2784 25.8213 13.3184 25.8413 13.3484C25.9213 13.4684 25.9813 13.5984 26.0613 13.7284C26.0813 13.7784 26.1013 13.8284 26.1113 13.8684C26.1313 13.9284 26.1913 14.0784 26.2213 14.1984C26.2213 14.2084 26.2213 14.2284 26.2213 14.2684C26.2313 14.3384 26.2313 14.4184 26.2413 14.4884C26.2413 14.5584 26.2413 14.6284 26.2413 14.6984C26.2013 14.7984 26.1913 15.0484 26.1713 15.1184C26.1513 15.1984 26.1313 15.2684 26.1113 15.3384C26.1113 15.3484 26.1113 15.3584 26.1013 15.3684C26.1013 15.3684 26.1013 15.3684 26.1013 15.3784C26.0313 15.5184 25.9713 15.6584 25.8913 15.7984C25.8513 15.8684 25.8113 15.9284 25.7713 15.9984C25.7513 16.0284 25.7413 16.0484 25.7413 16.0584C25.6613 16.1484 25.5513 16.2384 25.5113 16.2784C25.4713 16.3184 25.4313 16.3584 25.3813 16.3984C25.3713 16.4184 25.3713 16.4184 25.3713 16.4184Z" fill="#1E1E1E"/>
<path d="M25.3213 16.4485C25.3413 16.4385 25.3413 16.4385 25.3513 16.4285L25.3613 16.4185C25.3513 16.4185 25.3413 16.4285 25.3213 16.4485Z" fill="#1E1E1E"/>
</svg>
