<svg width="76" height="73" viewBox="0 0 76 73" fill="none" xmlns="http://www.w3.org/2000/svg">
<path d="M62.5954 12.6328C62.1254 11.5728 61.2354 10.7628 60.2754 10.1028C56.1754 7.2628 48.0254 5.9028 44.9254 10.9028C43.8054 12.7128 43.7754 14.6128 43.5254 16.6228C43.2654 18.6428 41.9854 20.3628 41.6854 22.3628C40.7354 28.6428 46.7254 32.8628 52.4954 31.7528C54.0954 31.4428 55.8054 30.9128 56.9854 29.8928C59.3454 27.8528 59.5954 24.8528 60.6654 22.1228C61.7554 19.3128 63.9754 15.7528 62.5954 12.6328Z" fill="#FBB03B"/>
<path d="M19.6755 48.5028C19.6655 48.5128 19.6655 48.5228 19.6655 48.5228C19.6655 48.5128 19.6755 48.5028 19.6755 48.4828C19.6755 48.4928 19.6755 48.5028 19.6755 48.5028Z" fill="#1E1E1E"/>
<path d="M48.6854 58.6028C47.7254 55.6428 46.7553 52.6728 45.7653 49.7228C44.9053 47.1628 44.0453 44.6028 43.1653 42.0428C42.2553 39.4128 41.1153 36.8028 40.1053 34.5028C37.9653 29.6128 36.0853 24.4928 34.5153 19.2928C34.5053 19.2428 34.4853 19.1928 34.4553 19.1428C34.3353 18.7228 34.0254 18.3328 33.6254 18.1228C33.2554 17.9228 32.8253 17.9028 32.4053 18.0528L32.3853 18.0628L13.0153 24.9728C11.9153 25.3728 10.7553 25.7028 9.64532 26.0228C8.79532 26.2628 7.94534 26.5128 7.09534 26.7828C5.12534 27.4228 3.10536 28.3128 1.11536 29.4128C0.605356 29.6928 0.325315 30.2928 0.385315 30.9328C0.255315 31.2728 0.245356 31.6628 0.365356 32.0428C1.32536 35.0128 2.29534 37.9728 3.28534 40.9228C4.14534 43.4828 5.00531 46.0428 5.88531 48.6028C6.79531 51.2328 7.93531 53.8428 8.94531 56.1428C11.0853 61.0328 12.9653 66.1528 14.5353 71.3528C14.5553 71.4028 14.5753 71.4528 14.5953 71.5028C14.7153 71.9228 15.0153 72.3228 15.4153 72.5228C15.7953 72.7228 16.2153 72.7428 16.6353 72.6028L16.6553 72.5928L36.0253 65.6828C37.1353 65.2828 38.2853 64.9528 39.4053 64.6328C40.2553 64.3928 41.1053 64.1428 41.9453 63.8728C42.1253 63.8128 42.3154 63.7528 42.4954 63.6928C44.2954 63.0728 46.1154 62.2428 47.9254 61.2428C48.4354 60.9628 48.7153 60.3628 48.6553 59.7228C48.8053 59.3628 48.8054 58.9828 48.6854 58.6028ZM38.9254 61.2928C38.6154 61.3728 38.3153 61.4628 38.0153 61.5528C37.3753 61.8128 36.7253 62.0628 36.0753 62.3128C35.3153 62.6028 34.5653 62.9328 33.7753 63.1428C33.3253 63.2628 32.8653 63.3628 32.4053 63.4428L17.1854 68.8728C16.3954 66.3228 15.5453 63.8528 14.6553 61.5028C14.3453 60.6828 14.0154 59.8828 13.6854 59.0728C12.9054 57.9628 12.5053 56.5628 12.0253 55.3128C11.6653 54.3628 11.2754 53.4328 10.8754 52.4928C10.7554 52.2128 10.6753 51.9428 10.6053 51.6628C10.6053 51.6828 10.5953 51.6928 10.5953 51.7128C10.4353 51.3228 10.2854 50.9328 10.1254 50.5328C10.0954 50.4728 10.0654 50.4128 10.0554 50.3528C9.55536 49.0928 9.06537 47.8328 8.62537 46.5528C6.98537 41.7528 5.32531 36.7828 3.69531 31.7628C5.64531 30.7628 7.75537 29.9628 10.1254 29.3328C12.3054 28.7528 14.4453 27.9728 16.5153 27.2328L31.8654 21.7528C32.6554 24.2928 33.5053 26.7728 34.3953 29.1228C35.2253 31.3128 36.1453 33.4928 37.0453 35.6028C38.2153 38.3528 39.4253 41.2028 40.4153 44.0728C40.4153 44.0828 40.4254 44.0928 40.4254 44.1128C40.4054 44.1128 40.3854 44.1028 40.3754 44.1028C40.7854 45.1228 41.1353 46.1628 41.4453 47.2128C41.7353 47.7728 41.9654 48.3428 42.0654 48.9428C43.1654 52.2028 44.2653 55.5228 45.3453 58.8628C43.4053 59.8528 41.2954 60.6528 38.9254 61.2928Z" fill="#1E1E1E"/>
<path d="M73.2256 15.1328L74.9856 17.1028C75.5856 17.7728 74.9856 19.0128 74.2556 19.1728C73.6356 19.3128 73.0156 19.4828 72.3956 19.6828C72.6756 20.1128 72.9556 20.5428 73.2556 20.9528C73.7356 21.6128 73.3456 22.9628 72.5256 23.0228C72.2256 23.0428 71.9256 23.0928 71.6256 23.1628C72.0356 23.8728 72.3756 24.6528 72.6256 25.5028C72.8456 26.2628 72.5156 27.2628 71.7656 27.3428C71.2956 27.3928 70.8256 27.4728 70.3556 27.5728C70.6256 27.9128 70.8956 28.2628 71.1556 28.6328C71.5456 29.1928 71.3956 30.3928 70.6656 30.6328C70.1156 30.8128 69.5756 30.9928 69.0256 31.1728C69.3856 31.7128 69.7456 32.2428 70.1056 32.7828C70.5356 33.4228 70.3056 34.4228 69.6156 34.7828C69.1656 35.0128 68.7456 35.0628 68.3056 35.0428C68.6056 35.5728 68.8456 36.1728 69.0156 36.8428C69.1756 37.4928 68.6356 38.4228 68.0756 38.4128C67.1856 38.4128 66.2956 38.4028 65.4056 38.4028C64.2456 38.4028 64.3256 36.0528 65.4956 36.0528C65.8156 36.0528 66.1256 36.0528 66.4456 36.0528C66.2656 35.8428 66.0756 35.6428 65.8556 35.4828C65.3556 35.1228 65.3256 34.2628 65.7556 33.6528C66.1956 33.0228 66.7756 32.7128 67.3856 32.6228C67.4056 32.6228 67.4156 32.6228 67.4356 32.6228C67.1756 32.2328 66.9056 31.8428 66.6456 31.4528C66.2656 30.8928 66.4056 29.6928 67.1356 29.4528C67.6456 29.2828 68.1556 29.1128 68.6656 28.9428C68.3556 28.5628 68.0256 28.2028 67.6856 27.8528C67.1956 27.3528 67.5256 26.0828 68.1756 25.8528C68.9056 25.5928 69.6356 25.3828 70.3656 25.2328C70.0556 24.5928 69.6956 24.0028 69.2456 23.4728C68.7556 22.8928 69.0956 21.7928 69.7356 21.4728C70.0656 21.3028 70.4056 21.1728 70.7456 21.0528C70.4756 20.6228 70.2156 20.1828 69.9756 19.7228C69.6656 19.1528 70.0556 18.1528 70.5956 17.9428C71.1456 17.7328 71.6956 17.5428 72.2456 17.3728C72.1056 17.2228 71.9756 17.0628 71.8356 16.9128C71.0356 15.9928 72.3956 14.2028 73.2256 15.1328Z" fill="#00A99D"/>
<path d="M69.5854 8.33281C69.7454 7.64281 69.2754 6.97281 68.4054 6.66281C67.3554 6.28281 66.3054 5.90281 65.2554 5.53281C61.2354 4.09281 56.9054 2.61281 52.4354 1.49281C50.0454 0.892813 47.8954 0.452813 45.8254 0.152813C44.0154 -0.117187 41.7754 -0.207187 40.4554 1.44281C39.8854 2.15281 39.5554 2.98281 39.2354 3.79281L39.1754 3.95281C38.8354 4.80281 38.5354 5.69281 38.2754 6.68281C37.7554 8.65281 37.4454 10.6728 37.2054 12.4228C36.8954 14.6328 36.5254 16.9528 36.0254 19.3028C36.1154 19.7728 36.2354 20.2328 36.3854 20.6828C36.6454 21.4828 37.1054 22.9828 38.0054 23.2928C38.1154 23.3328 38.2354 23.3428 38.3354 23.2728C38.4454 23.2028 38.4854 23.0728 38.5154 22.9528C39.0154 21.0028 39.4954 19.0428 39.8054 17.0528C39.9554 16.1228 40.0854 15.1828 40.2154 14.2428C40.4354 12.6728 40.6554 11.0428 40.9654 9.46281C41.2354 8.09281 41.5454 6.90281 41.9154 5.82281C42.1354 5.18281 42.3654 4.60281 42.6254 4.06281L42.6954 3.90281C42.8754 3.52281 43.0554 3.12281 43.3554 2.91281C43.8754 2.55281 44.8854 2.73281 45.7054 2.88281L46.0654 2.94281C47.4654 3.17281 48.9254 3.46281 50.4254 3.81281C56.0854 5.13281 61.6554 7.12281 66.5954 8.90281C66.5954 8.91281 66.5954 8.92281 66.5954 8.93281C66.6254 10.8128 66.3254 12.8028 65.6254 15.3628C64.7454 18.5528 63.6954 21.7528 62.6754 24.8528L62.0554 26.7228C61.6454 27.9828 61.2254 29.2328 60.8054 30.4828C60.7254 30.8128 60.6354 31.1428 60.5454 31.4728C60.3554 32.1428 60.2054 32.8428 59.9554 33.4928C59.7354 34.0528 59.4754 34.6028 59.2354 35.1528C59.1254 35.4228 59.0154 35.6928 58.9354 35.9728C58.8554 36.2528 58.8354 36.3328 58.8454 36.5828C58.8554 37.0128 58.5854 37.2528 58.2754 37.3328C58.2754 37.3328 58.2754 37.3428 58.2854 37.3428C58.2754 37.3428 58.2654 37.3428 58.2554 37.3428C58.0554 37.3828 57.8454 37.3628 57.6654 37.2728C57.6454 37.2728 57.6154 37.2628 57.5954 37.2628C57.4254 37.2428 57.2754 37.2128 57.1354 37.2028C56.4554 37.1328 55.7054 37.0128 54.8454 36.8528C53.1654 36.5328 51.5454 36.1128 50.1654 35.7328C49.5154 35.5528 48.8654 35.3728 48.2054 35.1928C46.8454 34.8128 45.4554 34.4228 44.0454 34.0728C43.9154 34.0428 43.7754 34.0128 43.6454 33.9828C43.6254 33.9828 43.6154 33.9828 43.5954 33.9828C43.5654 33.9828 43.5454 33.9928 43.5154 33.9928C43.3854 34.0128 43.2654 34.0528 43.1454 34.0928C43.1254 34.1028 43.1154 34.1028 43.0854 34.1128C43.0354 34.1428 42.9854 34.1628 42.9454 34.1928C42.9254 34.2028 42.9154 34.2128 42.9054 34.2128C42.9054 34.2228 42.8954 34.2228 42.8854 34.2428C42.8554 34.2728 42.8254 34.3128 42.7854 34.3428C42.7754 34.3528 42.7754 34.3628 42.7654 34.3628C42.7454 34.4028 42.7154 34.4428 42.6854 34.5028C42.6754 34.5228 42.6654 34.5528 42.6654 34.5728C42.6454 34.6228 42.6354 34.6728 42.6254 34.7328C42.6254 34.7528 42.6254 34.7728 42.6154 34.7928C42.6154 34.8628 42.6054 34.9428 42.6054 35.0128C42.6054 35.1628 42.6154 35.2628 42.6454 35.3728C42.6554 35.4428 42.6754 35.5028 42.6954 35.5628C42.7054 35.5828 42.7354 35.6728 42.7454 35.7028C42.7954 35.8128 42.8554 35.9228 42.9254 36.0228C42.9354 36.0428 42.9554 36.0628 42.9654 36.0828C43.0054 36.1328 43.0554 36.1828 43.0954 36.2328C43.1454 36.2828 43.1854 36.3228 43.2354 36.3628C43.2554 36.3828 43.2754 36.3928 43.2954 36.4128C43.3954 36.4828 43.4954 36.5528 43.5954 36.6128C43.7754 36.7228 43.9554 36.8028 44.1454 36.8928C44.4754 36.9728 44.8054 37.0628 45.1054 37.1428C45.8854 37.3528 46.6554 37.5628 47.4354 37.7828C50.7054 38.7028 54.1054 39.6428 57.5854 39.9728L57.9354 40.0128C58.8454 40.1128 60.0854 40.2528 60.8454 39.5828C61.4154 39.0828 61.6354 38.2828 61.8354 37.5828C61.8954 37.3728 61.9454 37.1828 62.0054 37.0028C62.6554 35.1228 63.2954 33.2528 63.9254 31.3628C65.1554 27.6928 66.3654 23.9528 67.5254 20.2528L67.6654 19.8128C68.7554 16.3528 69.8854 12.7628 69.8154 9.00281C69.7954 8.77281 69.7254 8.53281 69.5854 8.33281Z" fill="#1E1E1E"/>
<path d="M58.0555 12.7829C57.4155 12.2729 56.7055 11.8229 55.9555 11.4529C56.1155 10.5029 56.2455 9.54286 56.3355 8.58286C56.5155 6.66286 53.5155 6.67286 53.3355 8.58286C53.2755 9.23286 53.1855 9.88286 53.0855 10.5229C52.4455 10.4329 51.7955 10.4029 51.1455 10.4729C48.4555 10.7629 46.7955 13.0029 47.0955 15.6729C47.2355 16.8629 47.7055 17.9729 48.5155 18.8629C49.0555 19.4629 49.7455 19.8629 50.4255 20.2729C49.8255 21.9329 49.1955 23.6129 48.5155 25.2629C48.3255 24.9829 48.2255 24.6829 48.3455 24.3629C48.6255 23.6029 48.0355 22.7229 47.2955 22.5129C46.4655 22.2829 45.7255 22.7929 45.4455 23.5629C44.7855 25.3829 45.8055 27.0329 47.2455 28.1629C46.9255 28.8629 46.5955 29.5529 46.2555 30.2329C45.3755 31.9429 47.9655 33.4629 48.8455 31.7429C49.2155 31.0129 49.5755 30.2629 49.9155 29.5129C52.5155 30.2229 55.2655 28.9629 56.0855 26.3229C56.8155 23.9629 55.9155 21.4029 54.3455 19.6029C54.2255 19.4629 54.0855 19.3529 53.9555 19.2329C54.4855 17.6729 54.9455 16.0929 55.3255 14.5029C55.5655 14.6429 55.7655 14.7829 55.9255 14.9029C56.5555 15.4029 57.4255 15.5229 58.0455 14.9029C58.5755 14.3829 58.6955 13.2929 58.0555 12.7829ZM53.0355 25.8929C52.6555 26.6029 51.8855 26.8029 51.1455 26.7229C51.7155 25.3429 52.2655 23.9429 52.7755 22.5429C53.3655 23.5829 53.6055 24.8329 53.0355 25.8929ZM51.4155 17.4029C51.3555 17.3629 51.2955 17.3229 51.2355 17.2829C50.4455 16.7129 49.9655 15.8429 50.0555 14.8529C50.1855 13.5029 51.2755 13.2529 52.5155 13.4529C52.2055 14.7829 51.8355 16.0929 51.4155 17.4029Z" fill="#1E1E1E"/>
<path d="M20.9753 41.2628C21.1153 41.0228 21.2053 40.6028 20.8953 40.4028C20.5353 40.1728 19.9853 40.2228 19.5453 40.2728L19.4253 40.2829C19.4853 40.8629 19.5453 41.4428 19.6153 42.0228C19.9853 41.9628 20.6653 41.7928 20.9753 41.2628Z" fill="#FBB03B"/>
<path d="M13.485 34.1228C12.315 35.6328 11.965 37.6628 12.005 39.4828C12.055 41.2628 12.725 43.0228 13.855 44.3828C14.515 44.9128 15.305 45.3328 16.175 45.6228C16.495 45.7328 16.8249 45.8228 17.1549 45.8828C18.0749 46.0628 19.015 46.0928 19.925 45.9728C20.615 45.8928 21.285 45.7228 21.995 45.4728L22.045 45.4528C22.425 45.3128 22.785 45.1828 23.125 45.0428C23.145 45.0328 23.155 45.0328 23.175 45.0228C24.565 44.4528 25.3349 43.8528 25.8349 42.9528C26.4349 41.9028 27.1949 40.3228 26.8249 38.8628C26.6949 38.3728 26.505 37.8628 26.245 37.3428C25.835 36.5228 25.2749 35.7128 24.5949 34.9528C23.8449 34.1228 22.975 33.4428 21.995 32.9528C21.165 32.5328 20.2849 32.2528 19.4149 32.1328C19.3249 32.1328 19.2349 32.1328 19.1449 32.1328C17.0949 32.2128 14.805 32.4328 13.485 34.1228ZM20.9149 36.0828C20.8249 36.2928 20.6249 36.4728 20.3849 36.5528C20.1649 36.6328 19.945 36.6228 19.755 36.5328C19.575 36.4428 19.345 36.3828 19.065 36.3628C19.085 36.5928 19.105 36.8328 19.125 37.0628C19.165 37.5828 19.205 38.1028 19.255 38.6128C19.435 38.5928 19.6149 38.5728 19.7849 38.5628C20.7749 38.5128 21.695 38.7928 22.245 39.3028C22.645 39.6728 22.855 40.1528 22.865 40.7228C22.895 42.3728 21.425 43.4028 20.045 43.6628C19.965 43.6728 19.895 43.6828 19.815 43.6928L19.8249 43.7628C19.8349 43.8328 19.8349 43.9028 19.8449 43.9728C19.8849 44.2728 19.7749 44.5428 19.5349 44.7128C19.4949 44.7428 19.4449 44.7728 19.3949 44.8028C19.1449 44.9228 18.8349 44.9428 18.5849 44.8328C18.3149 44.7228 18.145 44.4928 18.115 44.1928C18.095 44.0628 18.0849 43.9428 18.0749 43.8128C18.0649 43.7328 18.055 43.6528 18.055 43.5728C17.995 43.5628 17.9449 43.5528 17.8849 43.5328C17.1849 43.3528 16.135 43.0828 15.995 42.1428C15.935 41.7228 16.1749 41.3728 16.5949 41.2528C16.9749 41.1528 17.4449 41.2728 17.6449 41.6828L17.745 41.7228C17.785 41.7328 17.8149 41.7528 17.8549 41.7628L17.8249 41.5128C17.7749 41.1028 17.7349 40.6928 17.6949 40.2828C17.5749 40.2628 17.465 40.2428 17.3549 40.2128C16.7249 40.0228 16.1049 39.5928 15.605 38.9828C15.115 38.3828 14.8949 37.6428 15.0149 36.9428C15.1249 36.2728 15.5349 35.7028 16.1649 35.3128C16.4649 35.1328 16.8049 34.9928 17.2149 34.8828C17.2049 34.7428 17.195 34.5928 17.175 34.4528C17.155 34.2328 17.135 34.0028 17.125 33.7828C17.105 33.4728 17.235 33.2028 17.495 33.0228C17.775 32.8328 18.1649 32.8028 18.4549 32.9428C18.7049 33.0628 18.845 33.2828 18.875 33.5828C18.895 33.8028 18.905 34.0328 18.925 34.2528C18.935 34.3928 18.9549 34.5328 18.9649 34.6728C19.5849 34.6728 20.085 34.7728 20.505 34.9828C20.915 35.2028 21.1049 35.6628 20.9149 36.0828Z" fill="#FBB03B"/>
<path d="M17.3252 36.6028C17.3052 36.6128 17.2752 36.6228 17.2452 36.6428C16.9552 36.7828 16.5652 37.0628 16.6952 37.4928C16.7952 37.8228 17.0952 38.1828 17.4752 38.4128C17.4352 38.0128 17.4052 37.6128 17.3752 37.2128C17.3552 37.0028 17.3352 36.8028 17.3252 36.6028Z" fill="#FBB03B"/>
<path d="M15.6652 30.0028C15.5952 30.0228 15.5251 30.0328 15.4651 30.0528C15.3951 30.0928 15.3252 30.1328 15.2552 30.1828C15.2052 30.1628 15.1652 30.1528 15.1152 30.1328C14.8652 30.1928 14.6152 30.2528 14.3652 30.3028C14.2052 30.3028 14.0451 30.3028 13.8851 30.3128C12.1651 31.2728 10.5652 32.3028 9.74517 34.1028C9.05517 35.6128 8.79516 37.6828 8.98516 40.2428C9.00516 40.5628 9.05517 40.8828 9.12517 41.2128C9.13517 41.2728 9.15517 41.3228 9.18517 41.3728C9.20517 41.5128 9.22518 41.6428 9.25518 41.7728L9.32513 41.7628C9.31513 41.7828 9.31518 41.7928 9.31518 41.8128L9.27514 41.8228C9.28514 41.8528 9.28516 41.8728 9.29516 41.9028C9.29516 41.9128 9.30517 41.9328 9.30517 41.9428C9.30517 41.9728 9.31518 42.0028 9.31518 42.0328C9.40518 42.4428 9.53512 42.8528 9.69512 43.2428C9.70512 43.2628 9.72515 43.2928 9.72515 43.3128C9.74515 43.3528 9.76514 43.3828 9.77514 43.4028L9.94512 43.7228C9.99512 43.8128 10.0752 43.8928 10.1652 43.9328C10.1852 43.9728 10.2152 44.0128 10.2352 44.0428C10.3152 44.1628 10.4052 44.2928 10.4852 44.4028C11.6552 46.0928 13.4452 47.3728 15.5652 48.0228C16.6152 48.2528 17.6952 48.3128 18.7352 48.3628L18.9051 48.3728C20.4451 48.4628 21.9752 48.0228 23.3752 47.5528C23.4552 47.5528 23.5251 47.5428 23.5951 47.5128C23.7251 47.4628 23.8552 47.4128 23.9852 47.3528L24.4152 47.1728C24.5152 47.1228 24.6152 47.0828 24.7252 47.0328C24.8751 46.9628 25.0252 46.8928 25.1752 46.8228C25.9652 46.4428 26.7452 45.9628 27.3652 45.2128C28.6452 43.6728 29.4851 41.5328 29.5151 39.7628C29.5351 38.1528 28.8251 36.3428 27.3951 34.3628C24.9551 30.9828 20.9952 29.1828 17.0552 29.6728C17.0452 29.6728 17.0351 29.6728 17.0251 29.6728C16.9951 29.6928 16.9552 29.7228 16.9152 29.7328C16.5452 29.9028 16.1152 29.9728 15.6652 30.0028ZM19.4051 32.1428C20.3751 32.1328 21.3452 32.2228 22.2352 32.4928C23.2452 33.0028 24.1952 33.7228 24.9952 34.6128C25.7152 35.4128 26.2951 36.2628 26.7251 37.1228C26.8051 37.3928 26.8551 37.6728 26.9051 37.9628C27.5851 38.8828 27.1951 39.8728 27.1951 40.9428C27.2051 41.2228 27.0451 41.4328 26.8451 41.5628C26.8251 41.6628 26.8151 41.7528 26.7751 41.8628C26.4751 42.7628 25.8552 43.5328 25.1652 44.2028C24.6252 44.7228 24.0152 45.1628 23.3552 45.5228C23.3552 45.5328 23.3451 45.5328 23.3351 45.5328C22.9651 45.6828 22.5852 45.8228 22.1752 45.9728C21.4452 46.2328 20.7252 46.4028 19.9952 46.4928C19.0152 46.6128 18.0252 46.5828 17.0552 46.3928C16.7052 46.3228 16.3452 46.2328 16.0052 46.1128C15.1652 45.6928 14.4552 45.0828 13.8552 44.3728C12.7152 43.4628 11.9352 42.2628 11.6752 40.9228C11.4952 39.9828 11.5151 39.0128 11.5951 37.8528C11.6451 37.0828 11.7051 36.2028 11.9651 35.4428C12.4851 33.9428 13.9752 33.1128 15.4152 32.3028C15.4252 32.2928 15.4451 32.2828 15.4551 32.2728C15.4851 32.2528 15.5252 32.2228 15.5652 32.2028C15.8652 32.3528 16.1951 32.3828 16.5251 32.2928C17.4551 32.0528 18.4351 32.0128 19.4051 32.1428Z" fill="#1E1E1E"/>
<path d="M24.595 34.9727C25.285 35.7327 25.835 36.5427 26.245 37.3627C26.505 37.8827 26.695 38.3927 26.825 38.8827C27.195 40.3427 26.435 41.9127 25.835 42.9727C25.335 43.8727 24.565 44.4627 23.175 45.0427C23.155 45.0427 23.145 45.0527 23.125 45.0627C22.785 45.2027 22.415 45.3327 22.045 45.4727L21.995 45.4927C21.295 45.7427 20.615 45.9027 19.925 45.9927C19.005 46.1027 18.075 46.0727 17.155 45.9027C16.825 45.8427 16.505 45.7527 16.175 45.6427C15.305 45.3527 14.525 44.9327 13.855 44.4027C14.445 45.1127 15.165 45.7227 16.005 46.1427C16.345 46.2627 16.695 46.3527 17.055 46.4227C18.025 46.6027 19.015 46.6427 19.995 46.5227C20.735 46.4327 21.455 46.2527 22.175 46.0027C22.575 45.8527 22.965 45.7127 23.335 45.5627C23.345 45.5627 23.355 45.5627 23.355 45.5527C24.015 45.1927 24.615 44.7527 25.165 44.2327C25.855 43.5627 26.475 42.7827 26.775 41.8927C26.805 41.7827 26.815 41.6927 26.845 41.5927C27.045 41.4627 27.2049 41.2627 27.1949 40.9727C27.1849 39.9027 27.585 38.9127 26.905 37.9927C26.855 37.7027 26.805 37.4227 26.725 37.1527C26.295 36.2927 25.705 35.4427 24.995 34.6427C24.195 33.7527 23.255 33.0327 22.235 32.5227C21.345 32.2527 20.375 32.1627 19.405 32.1727C20.275 32.2927 21.155 32.5627 21.985 32.9927C22.965 33.4627 23.845 34.1327 24.595 34.9727Z" fill="#1E1E1E"/>
<path d="M18.8853 34.2528C18.8653 34.0328 18.8453 33.8028 18.8353 33.5828C18.8153 33.2928 18.6654 33.0628 18.4154 32.9428C18.1254 32.8028 17.7353 32.8328 17.4553 33.0228C17.1953 33.1928 17.0653 33.4728 17.0853 33.7828C17.1053 34.0028 17.1253 34.2328 17.1353 34.4528C17.1453 34.5928 17.1654 34.7428 17.1754 34.8828C16.7754 34.9828 16.4354 35.1328 16.1254 35.3128C15.4954 35.6928 15.0854 36.2728 14.9754 36.9428C14.8554 37.6428 15.0654 38.3828 15.5654 38.9828C16.0654 39.5928 16.6854 40.0228 17.3154 40.2128C17.4254 40.2428 17.5353 40.2628 17.6553 40.2828C17.6953 40.6928 17.7453 41.1028 17.7853 41.5128L17.8154 41.7628C17.7754 41.7528 17.7453 41.7328 17.7053 41.7228L17.6054 41.6828C17.4054 41.2728 16.9354 41.1528 16.5554 41.2528C16.1254 41.3628 15.8853 41.7128 15.9553 42.1428C16.0953 43.0828 17.1453 43.3528 17.8453 43.5328C17.9053 43.5428 17.9553 43.5628 18.0153 43.5728C18.0253 43.6528 18.0353 43.7328 18.0353 43.8128C18.0453 43.9428 18.0653 44.0628 18.0753 44.1928C18.1153 44.4928 18.2754 44.7228 18.5454 44.8328C18.7954 44.9428 19.1054 44.9228 19.3554 44.8028C19.4054 44.7828 19.4554 44.7528 19.4954 44.7128C19.7354 44.5328 19.8454 44.2728 19.8054 43.9728C19.7954 43.9028 19.7853 43.8328 19.7853 43.7628L19.7753 43.6928C19.8553 43.6828 19.9354 43.6728 20.0054 43.6628C21.3854 43.4028 22.8653 42.3728 22.8253 40.7228C22.8153 40.1528 22.6053 39.6728 22.2053 39.3028C21.6553 38.7928 20.7354 38.5228 19.7454 38.5628C19.5754 38.5728 19.3953 38.5928 19.2153 38.6128C19.1653 38.0928 19.1253 37.5728 19.0853 37.0628C19.0653 36.8328 19.0453 36.5928 19.0253 36.3628C19.3153 36.3828 19.5353 36.4428 19.7153 36.5328C19.9053 36.6228 20.1253 36.6328 20.3453 36.5528C20.5753 36.4728 20.7754 36.2928 20.8754 36.0828C21.0654 35.6628 20.8754 35.2028 20.4254 34.9828C19.9954 34.7728 19.5053 34.6728 18.8853 34.6728C18.9153 34.5328 18.8953 34.3928 18.8853 34.2528ZM16.6953 37.4828C16.5653 37.0528 16.9554 36.7728 17.2454 36.6328C17.2754 36.6228 17.2953 36.6128 17.3253 36.5928C17.3453 36.7928 17.3554 36.9928 17.3754 37.1928C17.4054 37.5928 17.4354 37.9928 17.4754 38.3928C17.0954 38.1728 16.7853 37.8128 16.6953 37.4828ZM19.5454 40.2728C19.9854 40.2228 20.5353 40.1728 20.8953 40.4028C21.2053 40.6028 21.1154 41.0228 20.9754 41.2628C20.6654 41.8028 19.9854 41.9628 19.6154 42.0228C19.5554 41.4428 19.4854 40.8628 19.4254 40.2828L19.5454 40.2728Z" fill="#1E1E1E"/>
<path d="M34.1655 54.0328C34.1755 53.7628 34.0654 53.3428 33.7054 53.3028C33.2754 53.2628 32.8155 53.5628 32.4355 53.8028L32.3354 53.8628C32.6554 54.3528 32.9755 54.8328 33.2955 55.3228C33.6055 55.1128 34.1355 54.6528 34.1655 54.0328Z" fill="#FBB03B"/>
<path d="M24.2455 51.0928C23.8955 52.9728 24.5055 54.9429 25.3755 56.5329C26.2355 58.0929 27.6355 59.3529 29.2555 60.0429C30.0855 60.2129 30.9754 60.2329 31.8854 60.0928C32.2254 60.0428 32.5555 59.9729 32.8755 59.8729C33.7755 59.6129 34.6254 59.2129 35.3854 58.6929C35.9554 58.3029 36.4855 57.8529 36.9955 57.3129L37.0254 57.2729C37.2954 56.9728 37.5654 56.6928 37.8054 56.4128C37.8154 56.4028 37.8254 56.3829 37.8354 56.3729C38.8154 55.2329 39.2254 54.3429 39.2654 53.3229C39.3154 52.1129 39.2754 50.3629 38.2854 49.2329C37.9454 48.8629 37.5454 48.4929 37.0754 48.1429C36.3354 47.5929 35.4754 47.1329 34.5154 46.7729C33.4654 46.3729 32.3854 46.1729 31.2854 46.1729C30.3454 46.1729 29.4454 46.3329 28.6154 46.6229C28.5354 46.6629 28.4555 46.7029 28.3755 46.7429C26.5855 47.7429 24.6455 48.9828 24.2455 51.0928ZM31.7555 49.4529C31.7655 49.6829 31.6655 49.9329 31.4955 50.1029C31.3355 50.2729 31.1354 50.3629 30.9254 50.3729C30.7154 50.3729 30.4954 50.4329 30.2254 50.5429C30.3454 50.7429 30.4754 50.9429 30.5954 51.1429C30.8654 51.5829 31.1354 52.0329 31.4154 52.4629C31.5654 52.3629 31.7154 52.2628 31.8654 52.1828C32.7254 51.6929 33.6654 51.5229 34.3854 51.7229C34.9154 51.8729 35.3154 52.2029 35.5854 52.7029C36.3654 54.1529 35.5254 55.7429 34.4154 56.6029C34.3554 56.6529 34.2854 56.6929 34.2254 56.7329L34.2654 56.7929C34.3054 56.8529 34.3454 56.9129 34.3854 56.9729C34.5554 57.2229 34.5754 57.5128 34.4454 57.7729C34.4254 57.8229 34.3954 57.8728 34.3554 57.9128C34.1854 58.1328 33.9154 58.2929 33.6454 58.3129C33.3554 58.3329 33.1055 58.2129 32.9355 57.9629C32.8655 57.8629 32.7954 57.7529 32.7254 57.6429C32.6854 57.5729 32.6354 57.5129 32.5954 57.4429C32.5354 57.4629 32.4854 57.4729 32.4254 57.4829C31.7254 57.6429 30.6554 57.8829 30.1054 57.1029C29.8554 56.7529 29.9154 56.3329 30.2354 56.0429C30.5254 55.7829 30.9954 55.6729 31.3654 55.9429L31.4754 55.9328C31.5154 55.9328 31.5554 55.9229 31.5954 55.9229L31.4554 55.7129C31.2254 55.3629 30.9954 55.0229 30.7754 54.6729C30.6654 54.7129 30.5555 54.7429 30.4355 54.7629C29.7855 54.8829 29.0355 54.7829 28.3155 54.4629C27.6055 54.1529 27.0754 53.5928 26.8654 52.9128C26.6654 52.2628 26.7654 51.5629 27.1554 50.9429C27.3354 50.6429 27.5854 50.3629 27.8954 50.0829C27.8154 49.9629 27.7454 49.8329 27.6654 49.7129C27.5454 49.5229 27.4255 49.3329 27.3155 49.1429C27.1555 48.8729 27.1454 48.5729 27.3054 48.3029C27.4654 48.0029 27.7954 47.8029 28.1154 47.7929C28.3854 47.7829 28.6254 47.9229 28.7754 48.1729C28.8954 48.3629 29.0155 48.5529 29.1255 48.7429C29.2055 48.8629 29.2754 48.9829 29.3454 49.1029C29.8954 48.8229 30.3854 48.6829 30.8554 48.6729C31.3554 48.6629 31.7355 48.9929 31.7555 49.4529Z" fill="#FBB03B"/>
<path d="M28.7855 51.5529C28.7655 51.5729 28.7555 51.5929 28.7355 51.6229C28.5355 51.8829 28.3256 52.3029 28.6256 52.6229C28.8656 52.8729 29.2955 53.0529 29.7355 53.0929C29.5255 52.7529 29.3055 52.4129 29.0955 52.0729C28.9955 51.8929 28.8955 51.7229 28.7855 51.5529Z" fill="#FBB03B"/>
<path d="M24.3156 46.4328C24.2656 46.4828 24.2055 46.5228 24.1555 46.5728C24.1055 46.6428 24.0655 46.7128 24.0355 46.7828C23.9855 46.7828 23.9355 46.7928 23.8955 46.8028C23.6955 46.9628 23.5056 47.1328 23.3156 47.2928C23.1756 47.3728 23.0355 47.4428 22.8955 47.5128C21.8055 49.1528 20.8455 50.8028 20.9355 52.7728C21.0055 54.4328 21.7255 56.3928 23.0555 58.5828C23.2255 58.8528 23.4055 59.1128 23.6155 59.3928C23.6555 59.4428 23.6955 59.4728 23.7455 59.5128C23.8255 59.6228 23.9055 59.7328 23.9855 59.8328L24.0455 59.7928C24.0455 59.8128 24.0555 59.8228 24.0555 59.8428L24.0255 59.8728C24.0455 59.8928 24.0655 59.9128 24.0755 59.9328C24.0855 59.9428 24.0955 59.9528 24.1055 59.9628C24.1255 59.9928 24.1355 60.0128 24.1555 60.0428C24.4255 60.3628 24.7255 60.6728 25.0455 60.9428C25.0555 60.9528 25.0955 60.9828 25.1055 60.9928C25.1455 61.0128 25.1755 61.0428 25.1855 61.0528L25.4855 61.2628C25.5755 61.3228 25.6755 61.3528 25.7755 61.3528C25.8155 61.3728 25.8455 61.4028 25.8855 61.4228C26.0055 61.4928 26.1455 61.5728 26.2655 61.6328C28.0855 62.6028 30.2555 62.9328 32.4455 62.5428C33.4855 62.2728 34.4755 61.8328 35.4255 61.4028L35.5755 61.3328C36.9855 60.7028 38.1455 59.6228 39.1855 58.5628C39.2555 58.5328 39.3155 58.4828 39.3655 58.4328C39.4555 58.3328 39.5455 58.2228 39.6355 58.1228L39.9355 57.7728C40.0055 57.6828 40.0755 57.6028 40.1455 57.5128C40.2455 57.3828 40.3555 57.2528 40.4555 57.1228C40.9855 56.4228 41.4555 55.6428 41.6755 54.6928C42.1055 52.7428 41.8855 50.4528 41.1055 48.8628C40.3955 47.4228 38.9256 46.1328 36.7556 45.0128C33.0456 43.1128 28.6955 43.3228 25.4155 45.5528C25.4055 45.5628 25.4055 45.5628 25.3955 45.5728C25.3755 45.6128 25.3555 45.6428 25.3255 45.6828C25.0455 45.9428 24.6956 46.1928 24.3156 46.4328ZM28.6155 46.6328C29.4655 46.1828 30.3755 45.8228 31.2955 45.6528C32.4355 45.6528 33.5955 45.8528 34.7155 46.2828C35.7155 46.6628 36.6255 47.1528 37.4055 47.7228C37.5955 47.9328 37.7755 48.1528 37.9455 48.3928C38.9655 48.9028 39.0656 49.9628 39.5656 50.9128C39.6956 51.1628 39.6555 51.4128 39.5355 51.6228C39.5555 51.7228 39.5955 51.8128 39.6155 51.9128C39.7555 52.8428 39.5556 53.8228 39.2556 54.7328C39.0056 55.4428 38.6655 56.1128 38.2455 56.7328C38.2455 56.7428 38.2355 56.7428 38.2255 56.7528C37.9655 57.0528 37.6855 57.3528 37.3955 57.6728C36.8655 58.2328 36.3055 58.7128 35.6955 59.1328C34.8755 59.6828 33.9855 60.1028 33.0355 60.3828C32.6855 60.4828 32.3355 60.5628 31.9755 60.6128C31.0355 60.6128 30.1255 60.4028 29.2755 60.0428C27.8555 59.7528 26.6055 59.0328 25.7655 57.9628C25.1755 57.2028 24.7455 56.3328 24.2955 55.2628C23.9855 54.5528 23.6455 53.7528 23.5255 52.9528C23.3055 51.3828 24.2555 49.9628 25.1655 48.5928C25.1755 48.5828 25.1855 48.5628 25.1955 48.5528C25.2155 48.5128 25.2356 48.4728 25.2556 48.4328C25.5956 48.4228 25.8955 48.3028 26.1555 48.0728C26.8355 47.4428 27.6855 46.9528 28.6155 46.6328Z" fill="#1E1E1E"/>
<path d="M34.5157 46.7828C35.4757 47.1528 36.3357 47.6128 37.0757 48.1528C37.5357 48.4928 37.9457 48.8628 38.2857 49.2428C39.2857 50.3728 39.3257 52.1128 39.2657 53.3328C39.2257 54.3628 38.8157 55.2428 37.8357 56.3828C37.8257 56.3928 37.8157 56.4028 37.8057 56.4228C37.5657 56.7028 37.3057 56.9828 37.0257 57.2828L36.9957 57.3228C36.4857 57.8628 35.9557 58.3228 35.3857 58.7028C34.6257 59.2228 33.7757 59.6228 32.8757 59.8828C32.5557 59.9728 32.2257 60.0528 31.8857 60.1028C30.9857 60.2428 30.0857 60.2228 29.2557 60.0528C30.1057 60.4128 31.0257 60.6228 31.9557 60.6228C32.3157 60.5728 32.6657 60.4928 33.0157 60.3928C33.9657 60.1128 34.8657 59.6928 35.6757 59.1428C36.2857 58.7228 36.8557 58.2428 37.3757 57.6828C37.6657 57.3728 37.9457 57.0728 38.2057 56.7628C38.2157 56.7528 38.2257 56.7528 38.2257 56.7428C38.6457 56.1228 38.9857 55.4528 39.2357 54.7428C39.5457 53.8328 39.7457 52.8528 39.5957 51.9228C39.5757 51.8128 39.5457 51.7228 39.5157 51.6328C39.6357 51.4228 39.6857 51.1728 39.5457 50.9228C39.0557 49.9728 38.9557 48.9128 37.9257 48.4028C37.7557 48.1628 37.5757 47.9428 37.3857 47.7328C36.6057 47.1628 35.6957 46.6728 34.6957 46.2928C33.5757 45.8628 32.4157 45.6528 31.2757 45.6628C30.3557 45.8328 29.4557 46.1828 28.5957 46.6428C29.4257 46.3528 30.3357 46.1928 31.2657 46.1928C32.3857 46.1828 33.4657 46.3828 34.5157 46.7828Z" fill="#1E1E1E"/>
<path d="M29.1153 48.7428C28.9953 48.5528 28.8752 48.3628 28.7652 48.1728C28.6152 47.9228 28.3753 47.7928 28.1053 47.7928C27.7853 47.8028 27.4553 48.0028 27.2953 48.3028C27.1453 48.5728 27.1453 48.8828 27.3053 49.1428C27.4253 49.3328 27.5352 49.5228 27.6552 49.7128C27.7352 49.8328 27.8052 49.9628 27.8852 50.0828C27.5752 50.3628 27.3352 50.6428 27.1452 50.9428C26.7552 51.5728 26.6553 52.2728 26.8553 52.9128C27.0653 53.5828 27.5953 54.1528 28.3053 54.4628C29.0253 54.7728 29.7753 54.8828 30.4253 54.7628C30.5453 54.7428 30.6452 54.7128 30.7652 54.6728C30.9852 55.0228 31.2152 55.3628 31.4452 55.7128L31.5852 55.9228C31.5452 55.9328 31.5052 55.9328 31.4652 55.9328L31.3553 55.9428C30.9953 55.6728 30.5153 55.7828 30.2253 56.0428C29.8953 56.3428 29.8453 56.7528 30.0953 57.1028C30.6453 57.8728 31.7053 57.6328 32.4153 57.4828C32.4753 57.4728 32.5252 57.4528 32.5852 57.4428C32.6252 57.5128 32.6752 57.5728 32.7152 57.6428C32.7852 57.7528 32.8553 57.8528 32.9253 57.9628C33.0953 58.2128 33.3452 58.3428 33.6352 58.3128C33.9152 58.2928 34.1753 58.1428 34.3453 57.9128C34.3753 57.8728 34.4053 57.8228 34.4353 57.7728C34.5653 57.5128 34.5453 57.2228 34.3753 56.9728C34.3353 56.9128 34.2953 56.8528 34.2553 56.7928L34.2253 56.7328C34.2953 56.6928 34.3553 56.6528 34.4153 56.6028C35.5253 55.7428 36.3652 54.1528 35.5852 52.7028C35.3152 52.2028 34.9152 51.8628 34.3852 51.7228C33.6652 51.5228 32.7253 51.6928 31.8653 52.1828C31.7153 52.2628 31.5653 52.3628 31.4153 52.4628C31.1353 52.0228 30.8653 51.5828 30.5953 51.1428C30.4753 50.9428 30.3453 50.7428 30.2253 50.5428C30.4953 50.4328 30.7153 50.3828 30.9253 50.3728C31.1353 50.3728 31.3353 50.2728 31.4953 50.1028C31.6653 49.9228 31.7653 49.6728 31.7553 49.4528C31.7353 48.9928 31.3553 48.6728 30.8553 48.6728C30.3753 48.6828 29.8953 48.8128 29.3453 49.1028C29.2653 48.9828 29.1853 48.8628 29.1153 48.7428ZM28.6352 52.6228C28.3252 52.2928 28.5453 51.8728 28.7453 51.6228C28.7653 51.6028 28.7753 51.5728 28.7953 51.5528C28.9053 51.7228 29.0053 51.8928 29.1153 52.0628C29.3253 52.4028 29.5353 52.7428 29.7553 53.0828C29.3053 53.0528 28.8652 52.8728 28.6352 52.6228ZM32.4353 53.8028C32.8053 53.5628 33.2752 53.2628 33.7052 53.3028C34.0752 53.3328 34.1853 53.7528 34.1653 54.0328C34.1353 54.6528 33.6053 55.1128 33.2953 55.3328C32.9753 54.8528 32.6552 54.3628 32.3352 53.8728L32.4353 53.8028Z" fill="#1E1E1E"/>
</svg>
