<svg width="399" height="367" viewBox="0 0 399 367" fill="none" xmlns="http://www.w3.org/2000/svg">
<path d="M397.188 201.288C401.394 245.141 392.798 293.841 362.551 313.568C332.303 333.295 280.386 324.059 233.907 331.897C187.528 339.378 146.664 363.576 115.069 356.238C83.3452 348.677 60.9841 309.212 43.9062 270.57C27.1776 232.02 15.593 194.053 16.0062 155.045C16.2852 115.806 28.4413 75.3002 54.3552 49.6519C80.3601 23.6511 120.253 12.7526 159.482 5.87701C198.84 -0.776473 237.547 -3.40341 270.907 9.55151C304.267 22.5064 332.151 50.8211 354.253 84.6738C376.574 118.396 393.217 157.307 397.188 201.288Z" fill="#F8F8F8"/>
<path d="M186.545 340.87C184.221 338.956 181.354 338.02 178.411 337.344C177.671 336.927 176.811 337.215 176.343 337.862C175.332 339.273 174.517 340.798 173.793 342.353C173.4 343.216 173.023 344.08 172.646 344.958C172.299 345.778 171.816 346.627 172.072 347.548C172.374 348.599 173.37 348.973 174.321 349.347C175.196 349.693 176.072 350.038 176.962 350.369C178.773 351.046 180.599 351.664 182.456 352.226C182.923 352.37 183.603 352.226 183.919 351.852C185.051 350.513 185.338 348.815 185.655 347.16C185.972 345.505 186.274 343.849 186.923 342.266C187.119 341.834 186.923 341.172 186.545 340.87ZM176.404 347.059C176.041 346.915 175.679 346.771 175.317 346.627C175.287 346.613 175.257 346.598 175.226 346.584C175.453 346.095 175.634 345.548 175.83 345.087C176.102 344.44 176.389 343.806 176.69 343.173C177.173 342.18 177.732 341.216 178.32 340.266C180.207 340.726 182.108 341.302 183.708 342.367C183.316 343.533 183.074 344.727 182.848 345.936C182.712 346.67 182.561 347.404 182.395 348.138C182.335 348.412 182.274 348.743 182.169 349.059C180.976 348.671 179.769 348.297 178.592 347.865C177.852 347.62 177.128 347.347 176.404 347.059Z" fill="#FBB03B"/>
<path d="M14.5454 209.727C12.2213 207.812 9.35379 206.877 6.41086 206.2C5.67135 205.783 4.81111 206.071 4.34326 206.719C3.33209 208.129 2.51713 209.655 1.79271 211.209C1.40032 212.073 1.02302 212.936 0.645719 213.814C0.298604 214.634 -0.18434 215.484 0.0722237 216.405C0.374063 217.455 1.37014 217.83 2.32093 218.204C3.19627 218.549 4.0716 218.895 4.96203 219.226C6.77307 219.902 8.5992 220.521 10.4555 221.082C10.9234 221.226 11.6025 221.082 11.9194 220.708C13.0513 219.369 13.3381 217.671 13.655 216.016C13.9719 214.361 14.2738 212.706 14.9227 211.123C15.1189 210.691 14.9227 210.029 14.5454 209.727ZM4.40362 215.915C4.04142 215.771 3.67921 215.627 3.317 215.484C3.28682 215.469 3.25663 215.455 3.22645 215.44C3.45283 214.951 3.63393 214.404 3.83013 213.944C4.10178 213.296 4.38853 212.663 4.69037 212.029C5.17332 211.036 5.73172 210.072 6.32031 209.122C8.2068 209.583 10.1084 210.158 11.7081 211.223C11.3158 212.389 11.0743 213.584 10.8479 214.793C10.7121 215.527 10.5612 216.261 10.3951 216.995C10.3348 217.268 10.2744 217.599 10.1688 217.916C8.97649 217.527 7.76914 217.153 6.59196 216.721C5.85246 216.477 5.12804 216.203 4.40362 215.915Z" fill="#FBB03B"/>
<path d="M189.545 56.3891C187.221 54.4749 184.354 53.5394 181.411 52.863C180.671 52.4456 179.811 52.7334 179.343 53.3811C178.332 54.7915 177.517 56.3171 176.793 57.8715C176.4 58.7351 176.023 59.5986 175.646 60.4765C175.299 61.2969 174.816 62.146 175.072 63.0672C175.374 64.1178 176.37 64.492 177.321 64.8662C178.196 65.2116 179.072 65.557 179.962 65.8881C181.773 66.5645 183.599 67.1834 185.456 67.7447C185.923 67.8886 186.603 67.7447 186.919 67.3705C188.051 66.032 188.338 64.3337 188.655 62.6786C188.972 61.0234 189.274 59.3683 189.923 57.7852C190.119 57.3534 189.923 56.6913 189.545 56.3891ZM179.404 62.5778C179.041 62.4339 178.679 62.29 178.317 62.146C178.287 62.1317 178.257 62.1173 178.226 62.1029C178.453 61.6135 178.634 61.0666 178.83 60.6061C179.102 59.9584 179.389 59.3251 179.69 58.6919C180.173 57.6988 180.732 56.7345 181.32 55.7846C183.207 56.2452 185.108 56.8209 186.708 57.8859C186.316 59.0517 186.074 60.2463 185.848 61.4552C185.712 62.1892 185.561 62.9232 185.395 63.6572C185.335 63.9307 185.274 64.2617 185.169 64.5784C183.976 64.1898 182.769 63.8156 181.592 63.3838C180.852 63.1391 180.128 62.8657 179.404 62.5778Z" fill="#FBB03B"/>
<path d="M233.367 359.464C233.81 356.475 233.128 353.558 232.184 350.717C232.16 349.87 231.466 349.302 230.666 349.258C228.927 349.169 227.191 349.308 225.477 349.538C224.53 349.675 223.591 349.824 222.64 349.981C221.753 350.132 220.772 350.184 220.112 350.898C219.364 351.719 219.558 352.759 219.729 353.761C219.886 354.684 220.042 355.607 220.219 356.534C220.576 358.423 220.99 360.293 221.469 362.158C221.588 362.629 222.064 363.123 222.55 363.187C224.29 363.416 225.901 362.74 227.49 362.113C229.079 361.485 230.661 360.845 232.361 360.536C232.834 360.468 233.302 359.945 233.367 359.464ZM222.779 354.277C222.715 353.894 222.652 353.512 222.588 353.129C222.584 353.096 222.581 353.063 222.578 353.03C223.117 352.956 223.681 352.813 224.18 352.729C224.878 352.608 225.572 352.507 226.274 352.419C227.379 352.288 228.499 352.237 229.622 352.219C230.204 354.055 230.694 355.965 230.607 357.886C229.4 358.186 228.246 358.628 227.088 359.091C226.385 359.373 225.675 359.642 224.957 359.899C224.69 359.996 224.374 360.124 224.047 360.206C223.763 358.994 223.459 357.776 223.22 356.553C223.047 355.798 222.907 355.041 222.779 354.277Z" fill="#DCDCDC"/>
<path d="M91.3668 268.672C91.8097 265.684 91.1281 262.766 90.1844 259.925C90.1603 259.078 89.4664 258.51 88.6662 258.466C86.9274 258.378 85.1913 258.516 83.4774 258.746C82.5305 258.883 81.5913 259.032 80.6398 259.189C79.7535 259.34 78.7719 259.392 78.1119 260.106C77.3639 260.927 77.5582 261.967 77.7291 262.969C77.8856 263.892 78.0421 264.815 78.2189 265.743C78.5756 267.631 78.9898 269.502 79.4691 271.366C79.5878 271.837 80.0639 272.331 80.5504 272.395C82.2898 272.625 83.9007 271.948 85.49 271.321C87.0794 270.693 88.6609 270.053 90.3605 269.744C90.834 269.676 91.3023 269.153 91.3668 268.672ZM80.7793 263.485C80.7154 263.102 80.6515 262.72 80.5876 262.338C80.5843 262.304 80.5811 262.271 80.5778 262.238C81.1165 262.164 81.6813 262.021 82.1796 261.937C82.8781 261.816 83.572 261.715 84.2737 261.627C85.3792 261.497 86.499 261.445 87.622 261.427C88.2038 263.263 88.6942 265.174 88.6068 267.094C87.3996 267.394 86.2459 267.836 85.0876 268.299C84.3852 268.581 83.675 268.851 82.957 269.108C82.6902 269.204 82.3739 269.332 82.0465 269.415C81.7628 268.202 81.4589 266.984 81.2202 265.761C81.0474 265.007 80.9072 264.25 80.7793 263.485Z" fill="#00A99D"/>
<path d="M70.3668 28.5782C70.8097 25.5893 70.1281 22.672 69.1844 19.8312C69.1603 18.9837 68.4664 18.4156 67.6662 18.3719C65.9274 18.2833 64.1913 18.4219 62.4774 18.6522C61.5305 18.7886 60.5913 18.9377 59.6398 19.0945C58.7535 19.2457 57.7719 19.2982 57.1119 20.0115C56.3639 20.8329 56.5582 21.8729 56.7291 22.8748C56.8856 23.7977 57.0421 24.7205 57.2189 25.6483C57.5756 27.537 57.9898 29.4074 58.4691 31.272C58.5878 31.7432 59.0639 32.2368 59.5504 32.3012C61.2898 32.5303 62.9007 31.8541 64.49 31.2266C66.0794 30.5992 67.6609 29.959 69.3605 29.6497C69.834 29.5815 70.3023 29.0589 70.3668 28.5782ZM59.7793 23.3905C59.7154 23.0081 59.6515 22.6257 59.5876 22.2433C59.5843 22.2101 59.5811 22.177 59.5778 22.1438C60.1165 22.0699 60.6813 21.9268 61.1796 21.843C61.8781 21.7217 62.572 21.6208 63.2737 21.5326C64.3792 21.4024 65.499 21.3513 66.622 21.3332C67.2038 23.1688 67.6942 25.0793 67.6068 27.0002C66.3996 27.2999 65.2459 27.742 64.0876 28.2047C63.3852 28.4869 62.675 28.7564 61.957 29.0133C61.6902 29.1102 61.3739 29.2383 61.0465 29.3204C60.7628 28.1077 60.4589 26.89 60.2202 25.6666C60.0474 24.9124 59.9072 24.1553 59.7793 23.3905Z" fill="#DCDCDC"/>
<path d="M234.367 95.1591C234.81 92.1701 234.128 89.2529 233.184 86.412C233.16 85.5645 232.466 84.9964 231.666 84.9528C229.927 84.8641 228.191 85.0027 226.477 85.233C225.53 85.3694 224.591 85.5185 223.64 85.6754C222.753 85.8265 221.772 85.879 221.112 86.5923C220.364 87.4138 220.558 88.4537 220.729 89.4556C220.886 90.3785 221.042 91.3013 221.219 92.2291C221.576 94.1179 221.99 95.9882 222.469 97.8528C222.588 98.3241 223.064 98.8176 223.55 98.8821C225.29 99.1111 226.901 98.435 228.49 97.8075C230.079 97.18 231.661 96.5399 233.361 96.2306C233.834 96.1624 234.302 95.6397 234.367 95.1591ZM223.779 89.9713C223.715 89.5889 223.652 89.2065 223.588 88.8241C223.584 88.7909 223.581 88.7578 223.578 88.7246C224.117 88.6507 224.681 88.5076 225.18 88.4239C225.878 88.3025 226.572 88.2016 227.274 88.1135C228.379 87.9833 229.499 87.9321 230.622 87.9141C231.204 89.7497 231.694 91.6601 231.607 93.5811C230.4 93.8807 229.246 94.3229 228.088 94.7855C227.385 95.0677 226.675 95.3373 225.957 95.5941C225.69 95.6911 225.374 95.8191 225.047 95.9013C224.763 94.6885 224.459 93.4708 224.22 92.2474C224.047 91.4932 223.907 90.7362 223.779 89.9713Z" fill="#00A99D"/>
</svg>
