<svg width="180" height="96" viewBox="0 0 180 96" fill="none" xmlns="http://www.w3.org/2000/svg">
<path d="M162.001 95.8284C159.091 95.8284 156.731 95.7584 154.561 95.6084C153.731 95.5484 153.111 94.8384 153.171 94.0084C153.231 93.1784 153.941 92.5584 154.771 92.6184C156.871 92.7684 159.161 92.8284 162.001 92.8284H162.661C162.661 92.8284 162.661 92.8284 162.671 92.8284C163.501 92.8284 164.171 93.4984 164.171 94.3184C164.171 95.1484 163.501 95.8184 162.681 95.8284H162.001ZM170.651 95.4184C169.921 95.4184 169.281 94.8783 169.171 94.1384C169.051 93.3184 169.621 92.5584 170.441 92.4384C173.251 92.0284 175.451 91.1984 177.161 89.9184C177.821 89.4184 178.761 89.5583 179.261 90.2184C179.761 90.8784 179.621 91.8184 178.961 92.3184C176.841 93.8984 174.191 94.9084 170.881 95.3984C170.791 95.4084 170.721 95.4184 170.651 95.4184ZM146.751 94.4984C146.641 94.4984 146.531 94.4883 146.411 94.4584C143.431 93.7784 140.861 92.8384 138.541 91.5884C137.811 91.1984 137.541 90.2884 137.931 89.5584C138.321 88.8284 139.231 88.5584 139.961 88.9484C142.041 90.0684 144.371 90.9084 147.081 91.5384C147.891 91.7184 148.391 92.5284 148.211 93.3384C148.051 94.0284 147.441 94.4984 146.751 94.4984ZM133.061 86.8084C132.631 86.8084 132.201 86.6184 131.901 86.2584C130.821 84.9384 130.031 83.5584 129.581 82.1484C129.191 80.9284 128.991 79.5984 128.991 78.0784V77.9084C129.001 77.0784 129.671 76.3784 130.501 76.4184C131.331 76.4284 131.991 77.1084 131.991 77.9284V78.0684C131.991 79.2784 132.131 80.3083 132.431 81.2184C132.771 82.2684 133.371 83.3184 134.221 84.3484C134.751 84.9883 134.651 85.9384 134.011 86.4584C133.731 86.6884 133.391 86.8084 133.061 86.8084ZM131.561 71.5084C131.461 71.5084 131.351 71.4984 131.241 71.4784C130.431 71.3084 129.921 70.5084 130.091 69.6984C130.671 67.0284 131.441 64.3784 132.391 61.8184C132.681 61.0384 133.541 60.6484 134.321 60.9384C135.101 61.2284 135.491 62.0884 135.201 62.8684C134.301 65.2884 133.571 67.8084 133.021 70.3384C132.871 71.0284 132.251 71.5084 131.561 71.5084ZM137.051 56.5384C136.821 56.5384 136.591 56.4884 136.371 56.3784C135.631 55.9984 135.341 55.0984 135.711 54.3584C136.311 53.1684 136.931 51.9984 137.551 50.8184C138.171 49.6384 138.801 48.4584 139.401 47.2584C139.781 46.5184 140.681 46.2284 141.421 46.5984C142.161 46.9784 142.451 47.8784 142.081 48.6184C141.471 49.8184 140.841 51.0184 140.211 52.2184C139.601 53.3784 138.981 54.5484 138.391 55.7184C138.131 56.2384 137.601 56.5384 137.051 56.5384ZM69.4414 55.9084C69.1914 55.9084 68.9514 55.9084 68.7114 55.8984C67.8814 55.8784 67.2314 55.1884 67.2514 54.3584C67.2714 53.5284 67.9614 52.8984 68.7914 52.8984C71.1014 52.9584 73.1614 52.6983 74.9114 52.0984C75.2714 51.9784 75.6114 51.8384 75.9514 51.6884C76.7114 51.3484 77.5914 51.6884 77.9314 52.4484C78.2714 53.2084 77.9314 54.0884 77.1714 54.4284C76.7514 54.6184 76.3214 54.7884 75.8814 54.9384C73.9814 55.5884 71.8714 55.9084 69.4414 55.9084ZM60.8214 54.9184C60.7214 54.9184 60.6114 54.9084 60.5114 54.8884C57.7314 54.3083 55.0714 53.4984 52.6114 52.4784C51.8414 52.1684 51.4814 51.2884 51.7914 50.5184C52.1014 49.7484 52.9814 49.3884 53.7514 49.6984C56.0514 50.6384 58.5314 51.3984 61.1314 51.9484C61.9414 52.1184 62.4614 52.9184 62.2914 53.7284C62.1414 54.4284 61.5114 54.9184 60.8214 54.9184ZM82.8214 49.6884C82.4814 49.6884 82.1314 49.5684 81.8514 49.3284C81.2214 48.7884 81.1514 47.8384 81.6814 47.2084C83.1314 45.5084 84.5014 43.4184 85.8614 40.8084C86.2414 40.0784 87.1514 39.7884 87.8814 40.1784C88.6114 40.5584 88.9014 41.4684 88.5114 42.1984C87.0414 45.0084 85.5514 47.2884 83.9514 49.1584C83.6714 49.5084 83.2514 49.6884 82.8214 49.6884ZM46.1614 48.7784C45.8614 48.7784 45.5614 48.6884 45.3014 48.5084C42.9414 46.8384 40.8814 44.9184 39.1614 42.7884C38.6414 42.1384 38.7414 41.1984 39.3914 40.6784C40.0314 40.1584 40.9814 40.2584 41.5014 40.9084C43.0414 42.8184 44.9014 44.5584 47.0314 46.0584C47.7114 46.5384 47.8714 47.4684 47.3914 48.1484C47.0914 48.5584 46.6314 48.7784 46.1614 48.7784ZM143.991 42.1284C143.821 42.1284 143.651 42.0984 143.491 42.0384C142.711 41.7584 142.301 40.8984 142.581 40.1184C143.491 37.5584 144.081 35.0584 144.331 32.6984C144.411 31.8684 145.161 31.2784 145.981 31.3584C146.801 31.4384 147.401 32.1784 147.321 33.0084C147.051 35.6084 146.411 38.3384 145.421 41.1284C145.191 41.7484 144.611 42.1284 143.991 42.1284ZM90.5814 35.7584C90.3714 35.7584 90.1614 35.7184 89.9614 35.6284C89.2014 35.2884 88.8714 34.3984 89.2114 33.6484C90.2214 31.4084 91.4114 28.8084 92.7614 26.3484C93.1614 25.6184 94.0714 25.3484 94.8014 25.7484C95.5314 26.1484 95.7914 27.0584 95.4014 27.7884C94.1114 30.1484 92.9514 32.6884 91.9614 34.8784C91.7014 35.4284 91.1514 35.7584 90.5814 35.7584ZM145.281 26.4284C144.621 26.4284 144.011 25.9884 143.831 25.3184C143.611 24.5184 143.341 23.7284 143.011 22.9884C142.371 21.5484 141.491 20.1784 140.401 18.9284C139.861 18.2984 139.921 17.3584 140.551 16.8084C141.171 16.2684 142.121 16.3284 142.671 16.9584C143.961 18.4384 145.001 20.0584 145.761 21.7784C146.151 22.6584 146.481 23.5884 146.741 24.5484C146.961 25.3484 146.481 26.1684 145.681 26.3884C145.541 26.4084 145.411 26.4284 145.281 26.4284ZM98.5314 21.9384C98.1914 21.9384 97.8414 21.8184 97.5614 21.5784C96.9314 21.0384 96.8514 20.0984 97.3914 19.4684C98.4014 18.2784 99.4914 17.1884 100.611 16.2384C101.581 15.4184 102.641 14.6484 103.761 13.9484C104.461 13.5084 105.391 13.7284 105.831 14.4284C106.271 15.1284 106.051 16.0584 105.351 16.4884C104.351 17.1084 103.411 17.7884 102.551 18.5184C101.551 19.3684 100.581 20.3384 99.6814 21.3984C99.3814 21.7584 98.9514 21.9384 98.5314 21.9384ZM135.251 14.5584C135.021 14.5584 134.781 14.5084 134.561 14.3884C133.721 13.9584 132.851 13.5784 131.971 13.2684C130.541 12.7584 129.011 12.3784 127.431 12.1284C126.611 11.9984 126.051 11.2384 126.181 10.4184C126.311 9.59836 127.081 9.03836 127.891 9.16836C129.661 9.43836 131.381 9.86835 132.991 10.4484C134.001 10.8084 134.991 11.2384 135.941 11.7284C136.681 12.1084 136.971 13.0084 136.591 13.7484C136.321 14.2584 135.791 14.5584 135.251 14.5584ZM111.841 13.4784C111.201 13.4784 110.601 13.0584 110.411 12.4184C110.171 11.6284 110.621 10.7884 111.411 10.5484C112.911 10.0884 114.491 9.71835 116.111 9.42835C117.271 9.22835 118.431 9.06835 119.551 8.96835C120.371 8.88835 121.101 9.49836 121.181 10.3284C121.261 11.1584 120.651 11.8884 119.821 11.9584C118.781 12.0484 117.701 12.1984 116.631 12.3884C115.131 12.6484 113.671 12.9984 112.281 13.4184C112.131 13.4584 111.981 13.4784 111.841 13.4784Z" fill="#1E1E1E"/>
<path d="M139.651 0.198407C137.961 -0.731593 136.441 1.85841 138.141 2.78841C148.321 8.37841 154.571 19.8384 153.801 31.4184C153.671 33.3484 156.671 33.3384 156.801 31.4184C157.621 18.8384 150.691 6.26841 139.651 0.198407Z" fill="#00A99D"/>
<path d="M82.0014 61.6284C82.6714 61.1684 82.9414 60.2884 82.4914 59.5684C82.0814 58.9084 81.1014 58.6084 80.4314 59.0784C76.4714 61.8184 71.1814 62.6084 66.6414 60.8784C65.8814 60.5884 65.0314 60.7184 64.6114 61.4884C64.2614 62.1284 64.4614 63.2284 65.2214 63.5184C70.7514 65.6284 77.1014 65.0184 82.0014 61.6284Z" fill="#FBB03B"/>
<path d="M28.4214 36.5184C32.2814 36.3684 32.0514 30.3684 28.1914 30.5184C24.3314 30.6784 24.5514 36.6684 28.4214 36.5184Z" fill="#00A99D"/>
<path d="M31.5314 20.5884C32.4414 17.1984 29.2814 14.2184 25.9714 14.4684C24.9114 14.5484 23.9714 14.9184 23.1914 15.4884C23.1514 15.5084 23.1114 15.5184 23.0714 15.5484C22.9414 15.6284 22.8214 15.7184 22.7014 15.8084C22.6414 15.8384 22.5814 15.8484 22.5214 15.8884C22.4214 15.9484 22.3214 16.0184 22.2214 16.0784C21.7614 16.3684 21.3814 16.7884 21.1314 17.2784C21.0714 17.3584 21.0214 17.4484 20.9814 17.5084C20.8914 17.6784 20.7414 18.0684 20.6914 18.2484C20.6514 18.3984 20.6614 18.4984 20.6414 18.6884C20.6014 19.0684 20.6114 19.4184 20.7114 19.7984C20.7414 19.8984 20.7714 19.9784 20.8214 20.0784C20.8414 20.2584 20.8714 20.4384 20.9014 20.6084C20.9314 20.9384 20.9814 21.2784 21.0714 21.6184C21.3214 22.5484 22.0714 23.2284 22.9514 23.4984C23.0114 23.5284 23.0514 23.5684 23.1114 23.5984C26.0414 25.2184 30.6014 24.0584 31.5314 20.5884Z" fill="#FBB03B"/>
<path d="M26.3214 32.6484C26.3214 32.6584 26.3214 32.6684 26.3314 32.6684C26.3314 32.6584 26.3314 32.6484 26.3214 32.6384C26.3214 32.6384 26.3214 32.6384 26.3214 32.6484Z" fill="#1E1E1E"/>
<path d="M38.0214 34.7184C39.1414 32.6784 40.2514 30.6184 41.3514 28.5684C42.6214 26.1984 43.8814 23.8184 45.1214 21.4384C45.2814 21.1384 45.3314 20.8084 45.2714 20.4984C45.4114 19.9584 45.2614 19.4184 44.8714 19.0984C43.3414 17.8684 41.7514 16.8184 40.1714 15.9884C39.4914 15.6284 38.8014 15.2984 38.1214 14.9684C37.2214 14.5384 36.2814 14.0884 35.4114 13.5884L19.9414 4.89838L19.9314 4.88838C19.5914 4.69838 19.2314 4.66838 18.8814 4.77838C18.5114 4.89838 18.1914 5.18838 18.0314 5.52838C18.0014 5.56838 17.9814 5.60838 17.9614 5.64838C15.8714 9.84838 13.5314 13.9284 11.0014 17.7684C9.81142 19.5784 8.46142 21.6284 7.30142 23.7384C6.18142 25.7784 5.07142 27.8384 3.97142 29.8884C2.70142 32.2584 1.44142 34.6384 0.201416 37.0184C0.0414158 37.3184 -0.00858425 37.6484 0.0514157 37.9684C-0.0885843 38.5084 0.0614158 39.0484 0.451416 39.3684C1.84142 40.4884 3.27142 41.4484 4.71142 42.2384C4.86142 42.3184 5.00142 42.3984 5.15142 42.4784C5.83142 42.8284 6.51142 43.1584 7.20142 43.4984C8.10142 43.9384 9.04142 44.3784 9.92142 44.8784L25.3914 53.5684L25.4014 53.5784C25.7414 53.7684 26.1014 53.8084 26.4514 53.6884C26.8214 53.5684 27.1414 53.2784 27.3014 52.9384C27.3214 52.8984 27.3514 52.8684 27.3714 52.8184C29.4514 48.6184 31.7914 44.5484 34.3314 40.6984C35.5114 38.8684 36.8614 36.8184 38.0214 34.7184ZM9.68142 40.5384C9.45142 40.7384 9.32142 41.0084 9.26142 41.2884C8.87142 41.0984 8.48142 40.9084 8.09142 40.7284C6.17142 39.8384 4.49142 38.8584 2.98142 37.7284C4.47142 34.8784 5.98142 32.0584 7.47142 29.2884C7.56142 29.2984 7.65142 29.2984 7.74142 29.2884C9.02142 29.0984 10.3114 29.0084 11.6114 29.0384C12.8714 29.0584 14.2314 29.1284 15.4314 29.5484C17.3214 30.1984 17.8014 32.0684 17.7914 33.9084C17.7314 33.9484 17.6814 33.9984 17.6214 34.0384C14.9214 36.1284 12.2714 38.2984 9.68142 40.5384ZM25.4814 50.3284L13.2214 43.4484C12.8214 43.2184 12.4114 42.9884 12.0014 42.7584C14.1514 40.8984 16.3314 39.0784 18.5714 37.3284C20.0914 36.1384 21.6414 34.8084 23.2914 33.7184C23.7214 35.4584 24.7014 37.0484 26.3514 37.9084C27.5614 38.5384 29.0214 38.6784 30.3114 38.2784C30.2914 39.2384 30.2714 40.1984 30.2514 41.1584C30.2514 41.3784 30.2814 41.5584 30.3414 41.7284C29.7814 42.6184 29.2214 43.5284 28.6914 44.4384C27.6114 46.2884 26.5214 48.2684 25.4814 50.3284ZM29.7514 35.0084C29.7014 35.0384 29.6414 35.0784 29.5914 35.1084C29.5514 35.1284 29.4114 35.1884 29.4114 35.1984C29.3014 35.2284 29.1014 35.2484 29.0114 35.3084C28.9514 35.3184 28.8814 35.3184 28.8214 35.3184C28.8114 35.3184 28.7014 35.3184 28.6214 35.3184C28.5614 35.3084 28.3214 35.2684 28.1614 35.2284C28.1514 35.2184 28.1214 35.2084 28.0814 35.1884C27.9914 35.1384 27.8914 35.0984 27.8014 35.0484C27.7314 35.0084 27.6614 34.9584 27.5814 34.9184C27.5714 34.9184 27.5714 34.9184 27.5714 34.9084C27.4314 34.7884 27.2914 34.6584 27.1614 34.5184C27.1114 34.4684 27.0614 34.4084 27.0114 34.3584C27.0014 34.3484 27.0014 34.3384 26.9914 34.3284C26.9014 34.1784 26.8014 34.0384 26.7214 33.8784C26.6814 33.8084 26.6514 33.7384 26.6114 33.6684C26.5514 33.5084 26.4914 33.3384 26.4414 33.1784C26.3914 33.0184 26.3614 32.8484 26.3214 32.6784C26.3214 32.6984 26.3314 32.7184 26.3214 32.7184C26.3214 32.7184 26.3214 32.6884 26.3114 32.6484C26.2814 32.4984 26.2914 32.5584 26.3114 32.6384C26.3014 32.5384 26.2814 32.3784 26.2814 32.3684C26.2814 32.3384 26.2714 32.3084 26.2614 32.2684C27.7114 31.9084 29.4214 32.0284 30.0714 33.5084C30.2014 33.7984 30.2714 34.1184 30.3114 34.4484C30.2114 34.5184 30.1214 34.5884 30.0414 34.6884C29.9514 34.7984 29.8514 34.8984 29.7514 35.0084ZM33.5614 36.6884C33.5614 36.4584 33.5714 36.2384 33.5714 36.0084C33.5914 34.6284 33.4914 33.2484 32.8914 31.9884C31.5914 29.2484 28.2114 28.4284 25.4714 29.1384C23.7714 29.5784 22.2214 30.5184 20.7614 31.5884C20.3114 29.5684 19.2114 27.7284 17.2414 26.8284C15.7014 26.1284 14.0114 25.9384 12.3414 25.8484C11.3214 25.7884 10.3114 25.8184 9.30142 25.8984C9.31142 25.8884 9.31142 25.8784 9.32142 25.8684C10.5714 23.5684 12.0214 21.3284 13.4114 19.1584C14.4814 17.4984 15.5814 15.7784 16.6014 14.0384C17.6914 12.1684 18.7814 10.1884 19.8214 8.13838L32.0714 15.0184C33.7214 15.9584 35.4314 16.9184 37.2014 17.7384C39.1214 18.6184 40.8014 19.6084 42.3114 20.7384C40.2014 24.7684 38.0714 28.7584 35.9714 32.5984C35.2314 33.9784 34.4014 35.3384 33.5614 36.6884Z" fill="#1E1E1E"/>
<path d="M23.0214 20.7084C23.1414 20.7684 23.1114 20.7384 23.0214 20.7084V20.7084Z" fill="#1E1E1E"/>
<path d="M29.4514 18.6584C29.5114 16.5384 28.0814 14.3484 26.1014 13.5684C25.4814 13.3184 24.7314 13.3384 24.2414 13.7884C23.8514 13.4884 23.3414 13.3884 22.7914 13.4784C20.7414 13.8384 19.0314 15.5484 18.6114 17.5684C18.1514 19.7684 19.0914 21.9384 20.9214 23.1984C22.5314 24.2984 24.7014 24.3684 26.4314 23.5284C28.2514 22.6484 29.3914 20.6584 29.4514 18.6584ZM25.3714 20.4184L25.3514 20.4284C25.1814 20.5784 25.2514 20.4984 25.3214 20.4484C25.2214 20.5084 25.0114 20.6584 24.9814 20.6684C24.9614 20.6784 24.9214 20.7084 24.8714 20.7284C24.8614 20.7284 24.8514 20.7284 24.8414 20.7384C24.7014 20.7784 24.5614 20.8184 24.4114 20.8584C24.4114 20.8584 24.4114 20.8584 24.4014 20.8584C24.3214 20.8684 24.2214 20.8784 24.1514 20.8884C24.0014 20.8984 23.8514 20.8884 23.7114 20.8884C23.7014 20.8884 23.7014 20.8884 23.6914 20.8884C23.6414 20.8784 23.5814 20.8684 23.5714 20.8584C23.4214 20.8284 23.2814 20.7984 23.1414 20.7484C23.0714 20.7284 22.9914 20.6884 22.9314 20.6784C22.9614 20.6784 22.9914 20.6884 23.0114 20.6984C23.0014 20.6884 22.9914 20.6884 22.9714 20.6784C22.8414 20.6184 22.7114 20.5384 22.5814 20.4584C22.5614 20.4484 22.5514 20.4384 22.5414 20.4284C22.5314 20.4184 22.5314 20.4184 22.5314 20.4184C22.4114 20.3084 22.3014 20.1984 22.1914 20.0884C22.1714 20.0684 22.1614 20.0584 22.1414 20.0384C22.0814 19.9584 22.0214 19.8484 22.0114 19.8384C21.9914 19.8084 21.9114 19.6784 21.8414 19.5784C21.8314 19.5584 21.8314 19.5284 21.8114 19.4684C21.7914 19.3884 21.7614 19.3184 21.7414 19.2384C21.7314 19.2184 21.7014 19.1184 21.6914 19.0584C21.6914 19.0484 21.6914 19.0484 21.6914 19.0384C21.6814 18.8484 21.6814 18.6684 21.6714 18.4884C21.6914 18.3984 21.7014 18.3184 21.7214 18.2284C21.7414 18.1484 21.7614 18.0684 21.7814 17.9884C21.8014 17.9284 21.8214 17.8684 21.8414 17.8084C21.8814 17.6884 21.8714 17.7284 21.8014 17.9184C21.7914 17.7884 22.0114 17.5384 22.0614 17.4284C22.1114 17.3684 22.1514 17.3184 22.2014 17.2584C22.2514 17.1984 22.3114 17.1484 22.3714 17.0884C22.3914 17.0684 22.4714 16.9984 22.5214 16.9684C22.5314 16.9584 22.5514 16.9484 22.5614 16.9484C22.6414 16.8984 22.7314 16.8384 22.8114 16.7984C22.8314 16.7884 22.8714 16.7684 22.9114 16.7384C22.9214 16.7384 22.9114 16.7384 22.9214 16.7384C22.9814 16.7184 23.0314 16.6984 23.0914 16.6784C23.2814 16.6184 23.4714 16.5684 23.6714 16.5384C23.9014 16.4984 24.1114 16.3784 24.2814 16.2184C24.3614 16.2784 24.4414 16.3284 24.5414 16.3684C24.6414 16.4084 25.3314 16.6684 25.3314 16.7784C25.3314 16.7684 25.0614 16.5584 25.2514 16.7184C25.3114 16.7684 25.3614 16.8184 25.4214 16.8684C25.5314 16.9684 25.6514 17.1684 25.7714 17.2484C25.7914 17.2784 25.8214 17.3184 25.8414 17.3484C25.9214 17.4684 25.9814 17.5984 26.0614 17.7284C26.0814 17.7784 26.1014 17.8284 26.1114 17.8684C26.1314 17.9284 26.1914 18.0784 26.2214 18.1984C26.2214 18.2084 26.2214 18.2284 26.2214 18.2684C26.2314 18.3384 26.2314 18.4184 26.2414 18.4884C26.2414 18.5584 26.2414 18.6284 26.2414 18.6984C26.2014 18.7984 26.1914 19.0484 26.1714 19.1184C26.1514 19.1984 26.1314 19.2684 26.1114 19.3384C26.1114 19.3484 26.1114 19.3584 26.1014 19.3684C26.1014 19.3684 26.1014 19.3684 26.1014 19.3784C26.0314 19.5184 25.9714 19.6584 25.8914 19.7984C25.8514 19.8684 25.8114 19.9284 25.7714 19.9984C25.7514 20.0284 25.7414 20.0484 25.7414 20.0584C25.6614 20.1484 25.5514 20.2384 25.5114 20.2784C25.4714 20.3184 25.4314 20.3584 25.3814 20.3984C25.3714 20.4184 25.3714 20.4184 25.3714 20.4184Z" fill="#1E1E1E"/>
<path d="M25.3214 20.4485C25.3414 20.4385 25.3414 20.4385 25.3514 20.4285L25.3614 20.4185C25.3514 20.4185 25.3414 20.4285 25.3214 20.4485Z" fill="#1E1E1E"/>
</svg>
