<svg width="122" height="87" viewBox="0 0 122 87" fill="none" xmlns="http://www.w3.org/2000/svg">
<path d="M51.4454 86.7128C50.8154 86.7128 50.2254 86.3028 50.0154 85.6728C49.7654 84.8828 50.1955 84.0428 50.9855 83.7828C51.8355 83.5128 52.5255 83.0228 52.9855 82.3828C53.5355 81.6128 53.8155 80.5828 53.8155 79.3428C53.8155 79.2228 53.8155 79.1028 53.8055 78.9828C53.7755 78.1528 54.4155 77.4528 55.2455 77.4228C56.0855 77.3728 56.7755 78.0328 56.8055 78.8628C56.8155 79.0228 56.8155 79.1828 56.8155 79.3428C56.8155 81.2328 56.3455 82.8428 55.4355 84.1328C54.5955 85.3028 53.3755 86.1728 51.9055 86.6528C51.7555 86.6828 51.5954 86.7128 51.4454 86.7128ZM44.1354 84.6928C43.7454 84.6928 43.3555 84.5428 43.0555 84.2428C41.5455 82.6828 40.4355 80.6128 39.8555 78.2328C39.6855 77.5528 39.5655 76.8528 39.4855 76.1628C39.3955 75.3428 39.9855 74.6028 40.8155 74.5028C41.6355 74.4228 42.3755 75.0028 42.4755 75.8328C42.5355 76.4028 42.6355 76.9728 42.7755 77.5228C43.2255 79.3528 44.0855 80.9928 45.2055 82.1528C45.7855 82.7428 45.7655 83.6928 45.1755 84.2728C44.8955 84.5528 44.5154 84.6928 44.1354 84.6928ZM1.49546 75.9128C0.725459 75.9128 0.0654689 75.3228 0.00546887 74.5428C-0.0645311 73.7128 0.545464 72.9928 1.37546 72.9228C3.88546 72.7128 6.38547 72.1628 8.78547 71.3028C9.56547 71.0228 10.4255 71.4228 10.7055 72.2028C10.9855 72.9828 10.5855 73.8428 9.80546 74.1228C7.15546 75.0728 4.40547 75.6828 1.63547 75.9128C1.57547 75.9128 1.53546 75.9128 1.49546 75.9128ZM52.6655 72.9728C52.1855 72.9728 51.7155 72.7428 51.4255 72.3228C50.0755 70.3628 48.2255 68.6628 46.0555 67.3828C45.4755 67.0428 45.2155 66.3728 45.3555 65.7528C44.6755 66.6328 44.1055 67.5528 43.6655 68.5028L43.5455 68.7728C43.2155 69.5328 42.3255 69.8728 41.5655 69.5428C40.8055 69.2128 40.4655 68.3228 40.7955 67.5628L40.9454 67.2428C42.0654 64.8528 43.7755 62.6728 46.0455 60.7528C46.6755 60.2128 47.6255 60.2928 48.1555 60.9228C48.6955 61.5528 48.6155 62.5028 47.9755 63.0328C47.3455 63.5728 46.7555 64.1228 46.2355 64.7028C46.6555 64.5228 47.1554 64.5428 47.5754 64.7928C50.1054 66.2928 52.2954 68.3028 53.8854 70.6128C54.3554 71.2928 54.1855 72.2328 53.5055 72.7028C53.2555 72.8928 52.9555 72.9728 52.6655 72.9728ZM16.4555 70.6728C15.9255 70.6728 15.4155 70.3928 15.1455 69.9028C14.7455 69.1828 15.0055 68.2628 15.7355 67.8628C17.9955 66.6128 20.4455 65.3128 23.0855 64.2628C23.8555 63.9628 24.7255 64.3328 25.0355 65.1028C25.3455 65.8728 24.9655 66.7428 24.1955 67.0528C21.7055 68.0428 19.3555 69.2828 17.1855 70.4828C16.9455 70.6128 16.7055 70.6728 16.4555 70.6728ZM31.3355 65.0728C30.6055 65.0728 29.9655 64.5328 29.8555 63.7928C29.7355 62.9728 30.3055 62.2128 31.1155 62.0928C34.0055 61.6628 36.8655 61.6428 39.5255 62.0328C40.3455 62.1528 40.9155 62.9128 40.7955 63.7328C40.6755 64.5528 39.9055 65.1128 39.0955 65.0028C36.7255 64.6528 34.1655 64.6728 31.5655 65.0628C31.4855 65.0628 31.4055 65.0728 31.3355 65.0728ZM53.8055 59.2028C53.2355 59.2028 52.6955 58.8728 52.4355 58.3228C52.0955 57.5728 52.4255 56.6828 53.1755 56.3328C53.5255 56.1728 53.8855 56.0128 54.2355 55.8628C56.4655 54.9228 58.7055 54.1628 60.8155 53.4628C61.6055 53.2028 62.4555 53.6328 62.7055 54.4228C62.9555 55.2128 62.5355 56.0528 61.7455 56.3128C59.6955 56.9928 57.5155 57.7228 55.3955 58.6228C55.0655 58.7628 54.7355 58.9128 54.4055 59.0528C54.2255 59.1628 54.0155 59.2028 53.8055 59.2028ZM68.8455 53.7628C68.2555 53.7628 67.6855 53.4028 67.4555 52.8228C67.1455 52.0528 67.5155 51.1828 68.2855 50.8728C68.8555 50.6428 69.4355 50.4028 69.9955 50.1528C71.8555 49.3228 73.5455 48.3628 75.0255 47.3028C75.7055 46.8228 76.6355 46.9828 77.1155 47.6528C77.5955 48.3328 77.4354 49.2628 76.7654 49.7428C75.1255 50.9128 73.2555 51.9628 71.2255 52.8828C70.6255 53.1528 70.0155 53.4128 69.4055 53.6528C69.2255 53.7328 69.0355 53.7628 68.8455 53.7628ZM81.4255 44.3128C81.1555 44.3128 80.8854 44.2428 80.6354 44.0928C79.9254 43.6628 79.7155 42.7328 80.1455 42.0328C80.5755 41.3328 80.9455 40.6028 81.2355 39.8528C81.7855 38.4428 82.1155 36.9028 82.2455 35.1328C82.3055 34.3028 83.0255 33.6928 83.8555 33.7428C84.6855 33.8028 85.3055 34.5228 85.2455 35.3528C85.0955 37.4228 84.6955 39.2528 84.0355 40.9428C83.6755 41.8528 83.2355 42.7528 82.7055 43.6028C82.4155 44.0628 81.9255 44.3128 81.4255 44.3128ZM83.3854 28.7628C82.6354 28.7628 81.9855 28.1928 81.8955 27.4328L81.7654 26.3228C81.5054 24.0228 81.2355 21.6428 81.2155 19.3128C81.2055 18.4828 81.8755 17.8128 82.7055 17.8028H82.7155C83.5355 17.8028 84.2055 18.4628 84.2155 19.2928C84.2355 21.4628 84.4955 23.7628 84.7455 25.9928L84.8755 27.1128C84.9655 27.9328 84.3755 28.6828 83.5555 28.7728C83.4955 28.7628 83.4454 28.7628 83.3854 28.7628ZM84.1055 12.9428C83.9055 12.9428 83.7055 12.9028 83.5154 12.8228C82.7554 12.4828 82.4055 11.6228 82.7355 10.8728C82.7455 10.8628 82.7655 10.8028 82.7755 10.7828C83.8855 8.28283 85.7055 6.03282 88.1755 4.13282C88.8355 3.63282 89.7755 3.75282 90.2755 4.40282C90.7755 5.06282 90.6555 6.00282 90.0055 6.50282C87.9355 8.09282 86.4255 9.95282 85.5055 12.0228C85.2455 12.6028 84.6855 12.9428 84.1055 12.9428ZM104.345 4.23283C104.325 4.23283 104.315 4.23283 104.295 4.23283C102.835 4.18283 101.365 4.10282 99.9155 3.99282C98.5755 3.88282 97.4255 3.80282 96.4055 3.84282C95.5555 3.89282 94.8855 3.22282 94.8555 2.40282C94.8255 1.57282 95.4755 0.882825 96.2955 0.852825C97.4555 0.812825 98.7155 0.902825 100.145 1.01282C101.545 1.12282 102.975 1.20282 104.385 1.25282C105.215 1.28282 105.865 1.97283 105.835 2.80283C105.815 3.59283 105.155 4.23283 104.345 4.23283ZM112.345 4.14283C111.555 4.14283 110.895 3.52282 110.845 2.72282C110.795 1.89282 111.436 1.18283 112.256 1.14283C114.866 0.992826 117.495 0.732825 120.085 0.352825C120.905 0.222825 121.665 0.802825 121.785 1.62283C121.905 2.44283 121.335 3.20283 120.515 3.32283C117.845 3.71283 115.125 3.98282 112.425 4.13282C112.395 4.14282 112.365 4.14283 112.345 4.14283Z" fill="#1E1E1E"/>
<path d="M58.2855 68.4828C57.7855 67.8528 56.6955 67.9528 56.1655 68.4828C55.5355 69.1128 55.6555 69.9628 56.1655 70.6028C58.8755 74.0128 59.1155 78.6728 59.0155 82.8328C58.9655 84.7628 61.9655 84.7628 62.0155 82.8328C62.1355 77.7528 61.5455 72.5828 58.2855 68.4828Z" fill="#FBB03B"/>
</svg>
