<svg width="142" height="96" viewBox="0 0 142 96" fill="none" xmlns="http://www.w3.org/2000/svg">
<path d="M124.002 95.8285C121.092 95.8285 118.732 95.7585 116.562 95.6085C115.732 95.5485 115.112 94.8385 115.172 94.0085C115.232 93.1785 115.942 92.5585 116.772 92.6185C118.872 92.7685 121.162 92.8285 124.002 92.8285H124.662C124.662 92.8285 124.662 92.8285 124.672 92.8285C125.502 92.8285 126.172 93.4985 126.172 94.3185C126.172 95.1485 125.502 95.8185 124.682 95.8285H124.002ZM132.652 95.4185C131.922 95.4185 131.282 94.8785 131.172 94.1385C131.052 93.3185 131.622 92.5585 132.442 92.4385C135.252 92.0285 137.452 91.1985 139.162 89.9185C139.822 89.4185 140.762 89.5585 141.262 90.2185C141.762 90.8785 141.622 91.8185 140.962 92.3185C138.842 93.8985 136.192 94.9085 132.882 95.3985C132.792 95.4085 132.722 95.4185 132.652 95.4185ZM108.752 94.4985C108.642 94.4985 108.532 94.4885 108.412 94.4585C105.432 93.7785 102.862 92.8385 100.542 91.5885C99.8116 91.1985 99.5416 90.2885 99.9316 89.5585C100.322 88.8285 101.232 88.5585 101.962 88.9485C104.042 90.0685 106.372 90.9085 109.082 91.5385C109.892 91.7185 110.392 92.5285 110.212 93.3385C110.052 94.0285 109.442 94.4985 108.752 94.4985ZM95.0616 86.8085C94.6316 86.8085 94.2016 86.6185 93.9016 86.2585C92.8216 84.9385 92.0315 83.5585 91.5816 82.1485C91.1916 80.9285 90.9916 79.5985 90.9916 78.0785V77.9085C91.0016 77.0785 91.6715 76.3785 92.5015 76.4185C93.3316 76.4285 93.9916 77.1085 93.9916 77.9285V78.0685C93.9916 79.2785 94.1316 80.3085 94.4316 81.2185C94.7716 82.2685 95.3716 83.3185 96.2215 84.3485C96.7515 84.9885 96.6516 85.9385 96.0116 86.4585C95.7316 86.6885 95.3916 86.8085 95.0616 86.8085ZM93.5616 71.5085C93.4616 71.5085 93.3516 71.4985 93.2416 71.4785C92.4316 71.3085 91.9216 70.5085 92.0916 69.6985C92.6716 67.0285 93.4416 64.3785 94.3915 61.8185C94.6815 61.0385 95.5416 60.6485 96.3216 60.9385C97.1016 61.2285 97.4916 62.0885 97.2016 62.8685C96.3016 65.2885 95.5716 67.8085 95.0216 70.3385C94.8716 71.0285 94.2516 71.5085 93.5616 71.5085ZM99.0516 56.5385C98.8215 56.5385 98.5916 56.4885 98.3716 56.3785C97.6316 55.9985 97.3416 55.0985 97.7116 54.3585C98.3116 53.1685 98.9315 51.9985 99.5516 50.8185C100.172 49.6385 100.802 48.4585 101.402 47.2585C101.782 46.5185 102.682 46.2285 103.422 46.5985C104.162 46.9785 104.452 47.8785 104.082 48.6185C103.472 49.8185 102.842 51.0185 102.212 52.2185C101.602 53.3785 100.982 54.5485 100.392 55.7185C100.132 56.2385 99.6016 56.5385 99.0516 56.5385ZM31.4416 55.9085C31.1916 55.9085 30.9516 55.9085 30.7116 55.8985C29.8816 55.8785 29.2316 55.1885 29.2516 54.3585C29.2716 53.5285 29.9616 52.8985 30.7916 52.8985C33.1016 52.9585 35.1616 52.6985 36.9116 52.0985C37.2716 51.9785 37.6116 51.8385 37.9516 51.6885C38.7116 51.3485 39.5916 51.6885 39.9316 52.4485C40.2716 53.2085 39.9316 54.0885 39.1716 54.4285C38.7516 54.6185 38.3216 54.7885 37.8816 54.9385C35.9816 55.5885 33.8716 55.9085 31.4416 55.9085ZM22.8216 54.9185C22.7216 54.9185 22.6116 54.9085 22.5116 54.8885C19.7316 54.3085 17.0716 53.4985 14.6116 52.4785C13.8416 52.1685 13.4816 51.2885 13.7916 50.5185C14.1016 49.7485 14.9816 49.3885 15.7516 49.6985C18.0516 50.6385 20.5316 51.3985 23.1316 51.9485C23.9416 52.1185 24.4616 52.9185 24.2916 53.7285C24.1416 54.4285 23.5116 54.9185 22.8216 54.9185ZM44.8216 49.6885C44.4816 49.6885 44.1316 49.5685 43.8516 49.3285C43.2216 48.7885 43.1516 47.8385 43.6816 47.2085C45.1316 45.5085 46.5016 43.4185 47.8616 40.8085C48.2416 40.0785 49.1516 39.7885 49.8816 40.1785C50.6116 40.5585 50.9016 41.4685 50.5116 42.1985C49.0415 45.0085 47.5516 47.2885 45.9516 49.1585C45.6716 49.5085 45.2516 49.6885 44.8216 49.6885ZM8.16155 48.7785C7.86155 48.7785 7.56155 48.6885 7.30156 48.5085C4.94156 46.8385 2.88155 44.9185 1.16155 42.7885C0.641552 42.1385 0.741555 41.1985 1.39156 40.6785C2.03156 40.1585 2.98155 40.2585 3.50155 40.9085C5.04155 42.8185 6.90155 44.5585 9.03155 46.0585C9.71155 46.5385 9.87155 47.4685 9.39155 48.1485C9.09155 48.5585 8.63155 48.7785 8.16155 48.7785ZM105.992 42.1285C105.822 42.1285 105.652 42.0985 105.492 42.0385C104.712 41.7585 104.302 40.8985 104.582 40.1185C105.492 37.5585 106.082 35.0585 106.332 32.6985C106.412 31.8685 107.162 31.2785 107.982 31.3585C108.802 31.4385 109.402 32.1785 109.322 33.0085C109.052 35.6085 108.412 38.3385 107.422 41.1285C107.192 41.7485 106.612 42.1285 105.992 42.1285ZM52.5816 35.7585C52.3716 35.7585 52.1616 35.7185 51.9616 35.6285C51.2016 35.2885 50.8716 34.3985 51.2116 33.6485C52.2216 31.4085 53.4116 28.8085 54.7616 26.3485C55.1616 25.6185 56.0716 25.3485 56.8016 25.7485C57.5316 26.1485 57.7916 27.0585 57.4016 27.7885C56.1116 30.1485 54.9516 32.6885 53.9616 34.8785C53.7016 35.4285 53.1516 35.7585 52.5816 35.7585ZM107.282 26.4285C106.622 26.4285 106.012 25.9885 105.832 25.3185C105.612 24.5185 105.342 23.7285 105.012 22.9885C104.372 21.5485 103.492 20.1785 102.402 18.9285C101.862 18.2985 101.922 17.3585 102.552 16.8085C103.172 16.2685 104.122 16.3285 104.672 16.9585C105.962 18.4385 107.002 20.0585 107.762 21.7785C108.152 22.6585 108.482 23.5885 108.742 24.5485C108.962 25.3485 108.482 26.1685 107.682 26.3885C107.542 26.4085 107.412 26.4285 107.282 26.4285ZM60.5316 21.9385C60.1916 21.9385 59.8416 21.8185 59.5616 21.5785C58.9316 21.0385 58.8516 20.0985 59.3916 19.4685C60.4016 18.2785 61.4916 17.1885 62.6116 16.2385C63.5816 15.4185 64.6416 14.6485 65.7616 13.9485C66.4615 13.5085 67.3915 13.7285 67.8316 14.4285C68.2716 15.1285 68.0516 16.0585 67.3516 16.4885C66.3516 17.1085 65.4116 17.7885 64.5516 18.5185C63.5516 19.3685 62.5816 20.3385 61.6816 21.3985C61.3816 21.7585 60.9516 21.9385 60.5316 21.9385ZM97.2515 14.5585C97.0215 14.5585 96.7816 14.5085 96.5616 14.3885C95.7216 13.9585 94.8515 13.5785 93.9715 13.2685C92.5415 12.7585 91.0116 12.3785 89.4316 12.1285C88.6116 11.9985 88.0516 11.2385 88.1816 10.4185C88.3116 9.59848 89.0816 9.03848 89.8916 9.16848C91.6616 9.43848 93.3816 9.86848 94.9916 10.4485C96.0016 10.8085 96.9916 11.2385 97.9416 11.7285C98.6815 12.1085 98.9716 13.0085 98.5916 13.7485C98.3216 14.2585 97.7915 14.5585 97.2515 14.5585ZM73.8416 13.4785C73.2016 13.4785 72.6016 13.0585 72.4116 12.4185C72.1716 11.6285 72.6216 10.7885 73.4116 10.5485C74.9116 10.0885 76.4916 9.71848 78.1116 9.42848C79.2716 9.22848 80.4315 9.06848 81.5516 8.96848C82.3716 8.88848 83.1016 9.49848 83.1816 10.3285C83.2616 11.1585 82.6516 11.8885 81.8216 11.9585C80.7816 12.0485 79.7016 12.1985 78.6316 12.3885C77.1316 12.6485 75.6716 12.9985 74.2816 13.4185C74.1316 13.4585 73.9816 13.4785 73.8416 13.4785Z" fill="#1E1E1E"/>
<path d="M101.651 0.198407C99.9615 -0.731593 98.4415 1.85841 100.141 2.78841C110.321 8.37841 116.571 19.8384 115.801 31.4184C115.671 33.3484 118.671 33.3384 118.801 31.4184C119.621 18.8384 112.691 6.26841 101.651 0.198407Z" fill="#00A99D"/>
<path d="M44.0015 61.6284C44.6715 61.1684 44.9415 60.2884 44.4915 59.5684C44.0815 58.9084 43.1015 58.6084 42.4315 59.0784C38.4715 61.8184 33.1815 62.6084 28.6415 60.8784C27.8815 60.5884 27.0315 60.7184 26.6115 61.4884C26.2615 62.1284 26.4615 63.2284 27.2215 63.5184C32.7515 65.6284 39.1015 65.0184 44.0015 61.6284Z" fill="#FBB03B"/>
</svg>
