<svg width="311" height="233" viewBox="0 0 311 233" fill="none" xmlns="http://www.w3.org/2000/svg">
<path d="M16.1958 149.062C14.8637 147.324 14.2161 145.157 14.3759 142.972C14.4424 142.574 14.6612 142.218 14.9861 141.979C15.311 141.74 15.7163 141.637 16.1159 141.692L19.0558 141.922L20.5258 142.042H20.7858C20.7058 141.472 20.5158 140.862 20.4458 140.412C20.2958 139.412 20.1359 138.412 19.9859 137.412C19.9617 137.147 20.0064 136.881 20.1156 136.639C20.2249 136.396 20.3951 136.186 20.6095 136.029C20.824 135.872 21.0753 135.773 21.3393 135.742C21.6032 135.711 21.8708 135.749 22.1159 135.852C23.544 136.336 25.0135 136.687 26.5059 136.902C26.107 134.895 25.9725 132.844 26.1059 130.802C26.1859 129.512 27.7159 129.282 28.5859 129.852C29.9193 130.715 31.3448 131.426 32.8359 131.972C32.7341 130.465 32.8079 128.952 33.0558 127.462C33.1009 127.199 33.2136 126.952 33.3827 126.746C33.5519 126.54 33.7718 126.381 34.0208 126.285C34.2698 126.189 34.5396 126.16 34.8034 126.2C35.0672 126.24 35.3161 126.347 35.5258 126.512C36.4848 127.211 37.5573 127.738 38.6958 128.072C38.5158 126.182 38.1759 124.282 37.9559 122.422C37.9286 122.156 37.9713 121.888 38.0798 121.645C38.1882 121.401 38.3586 121.189 38.5739 121.032C38.7892 120.874 39.0421 120.775 39.3073 120.746C39.5725 120.716 39.8409 120.756 40.0859 120.862L45.0158 122.782C46.8458 123.492 45.5958 126.272 43.7658 125.562L41.2858 124.562C41.3558 125.192 41.4358 125.822 41.5158 126.452C41.6658 127.712 42.2759 129.602 41.3759 130.692C40.4759 131.782 38.5359 131.162 37.3759 130.792C36.8566 130.622 36.3489 130.418 35.8559 130.182C35.8116 131.438 35.9022 132.695 36.1259 133.932C36.1516 134.164 36.1236 134.399 36.0441 134.618C35.9647 134.837 35.8359 135.034 35.6676 135.196C35.4994 135.357 35.2963 135.478 35.074 135.548C34.8518 135.619 34.6163 135.637 34.3858 135.602C32.5675 135.131 30.8068 134.46 29.1358 133.602C29.2199 135.124 29.4818 136.631 29.9158 138.092C30.0027 138.34 30.0248 138.607 29.98 138.867C29.9353 139.126 29.8252 139.37 29.6601 139.575C29.495 139.78 29.2804 139.94 29.0364 140.039C28.7925 140.138 28.5272 140.174 28.2658 140.142C26.6146 140.015 24.9782 139.741 23.3759 139.322C23.4659 139.922 23.5558 140.512 23.6558 141.112C23.8358 142.292 24.1458 143.662 23.0358 144.512C22.0358 145.252 20.8158 145.012 19.6958 144.922L17.5059 144.752C17.7122 145.639 18.1078 146.472 18.6658 147.192C19.8558 148.872 17.3758 150.652 16.1958 149.062Z" fill="white"/>
<path d="M24.6058 231.822L2.50586 231.542C2.10803 231.542 1.7265 231.384 1.44519 231.103C1.16389 230.821 1.00586 230.44 1.00586 230.042C1.00586 229.644 1.16389 229.263 1.44519 228.982C1.7265 228.7 2.10803 228.542 2.50586 228.542L24.6058 228.822C25.0037 228.822 25.3852 228.98 25.6665 229.261C25.9478 229.543 26.1058 229.924 26.1058 230.322C26.1058 230.72 25.9478 231.102 25.6665 231.383C25.3852 231.664 25.0037 231.822 24.6058 231.822Z" fill="white"/>
<path d="M153.936 13.2623C152.636 11.8323 154.756 9.7124 156.066 11.1324C160.272 15.7105 163.318 21.2319 164.946 27.2322C165.039 27.6112 164.98 28.0114 164.783 28.348C164.586 28.6845 164.265 28.9311 163.889 29.0352C163.513 29.1393 163.111 29.0928 162.769 28.9056C162.427 28.7184 162.171 28.405 162.056 28.0323C160.575 22.5282 157.79 17.4619 153.936 13.2623Z" fill="white"/>
<path d="M165.086 115.062C169.986 116.961 174.719 119.265 179.236 121.952C179.579 122.154 179.829 122.483 179.929 122.869C180.029 123.254 179.972 123.663 179.771 124.007C179.569 124.35 179.239 124.6 178.854 124.7C178.469 124.801 178.059 124.744 177.716 124.542C173.43 121.976 168.938 119.772 164.286 117.952C164.091 117.904 163.907 117.818 163.747 117.698C163.586 117.578 163.45 117.427 163.349 117.254C163.247 117.081 163.182 116.889 163.156 116.689C163.13 116.49 163.144 116.289 163.197 116.095C163.251 115.902 163.343 115.721 163.467 115.563C163.592 115.406 163.747 115.276 163.923 115.179C164.099 115.083 164.293 115.023 164.493 115.003C164.692 114.983 164.894 115.003 165.086 115.062Z" fill="white"/>
<path d="M267.456 146.492C266.328 145.043 264.823 143.933 263.106 143.283C261.236 142.583 259.266 142.112 257.356 141.542C255.446 140.972 254.706 143.892 256.556 144.442C258.406 144.992 260.086 145.442 261.826 146.012C263.231 146.505 264.455 147.411 265.336 148.612C265.596 148.942 265.826 149.292 266.066 149.612C261.236 144.902 253.266 147.062 247.066 147.732C236.918 148.794 226.687 148.811 216.536 147.783C215.763 147.652 214.969 147.809 214.305 148.223C213.64 148.638 213.149 149.282 212.926 150.033C207.396 150.163 201.926 150.222 196.456 150.242C196.445 148.909 196.101 147.599 195.456 146.432C195.444 146.203 195.386 145.979 195.286 145.772C188.816 132.772 175.356 122.922 156.346 117.272C151.422 115.797 146.412 114.621 141.346 113.752C141.27 113.668 141.186 113.591 141.096 113.522C138.436 109.902 137.726 105.112 137.206 101.162C138.922 100.398 140.534 99.4198 142.006 98.2522C144.408 96.3499 146.64 94.2419 148.676 91.9522C150.806 89.7634 152.563 87.2399 153.876 84.4822C156.156 79.3522 155.326 73.9622 154.516 68.7522C154.276 67.1822 154.026 65.5522 153.866 63.9722C153.067 55.9701 153.356 47.8966 154.726 39.9722C154.726 39.9722 154.726 39.8923 154.726 39.8523C156.076 38.886 157.187 37.6242 157.976 36.1634C158.764 34.7025 159.209 33.0811 159.276 31.4224C159.506 27.5924 157.926 23.4822 154.576 19.1922C151.874 15.8448 148.645 12.9605 145.016 10.6524C141.418 8.35229 137.607 6.40327 133.636 4.83232C129.086 2.86526 124.319 1.44209 119.436 0.592332C114.071 -0.371626 108.559 -0.136048 103.296 1.28227C97.2957 3.01227 93.6258 5.73233 92.2158 9.59233C92.2113 9.64223 92.2113 9.69234 92.2158 9.74223C90.6678 8.94307 88.9575 8.50864 87.2158 8.47221C80.5158 8.29221 74.9458 12.9623 72.3458 18.8523C69.1958 25.9623 69.0758 34.5223 70.2158 42.0823C70.5441 44.5929 71.069 47.0738 71.7857 49.5022V54.0623C71.781 54.1255 71.781 54.189 71.7857 54.2522C70.2693 54.9717 68.9842 56.1009 68.0758 57.5123C66.7859 59.4173 66.1989 61.7118 66.4157 64.0022C66.037 64.0136 65.6595 64.0505 65.2857 64.1124C63.3034 64.5472 61.4589 65.4642 59.9157 66.7823C58.3028 67.9473 56.8562 69.3267 55.6158 70.8824C54.3694 72.6328 53.5477 74.6492 53.2158 76.7723C52.095 79.1724 51.6357 81.8283 51.8853 84.4654C52.135 87.1025 53.0844 89.6251 54.6357 91.7723C55.6261 93.1398 56.6911 94.4517 57.8258 95.7022C57.1988 95.3935 56.5213 95.2005 55.8258 95.1324C55.4279 95.1151 55.0395 95.2566 54.7461 95.5257C54.4526 95.7948 54.2779 96.1694 54.2607 96.5672C54.2435 96.965 54.385 97.3535 54.6541 97.647C54.9232 97.9405 55.2979 98.1151 55.6958 98.1324H55.9157L56.3158 98.2522L56.4558 98.3223C56.5759 98.3864 56.6927 98.4564 56.8057 98.5323L56.8758 98.5823C56.9743 98.6739 57.0676 98.7708 57.1557 98.8724L57.2158 98.9422V99.0022C57.2952 99.113 57.3654 99.2301 57.4257 99.3523L57.4858 99.4522C57.4858 99.6022 57.5758 99.7524 57.6158 99.9124C57.6128 99.9624 57.6128 100.012 57.6158 100.062C57.6158 100.212 57.6158 100.372 57.6158 100.532C57.6158 100.692 57.6158 100.632 57.6158 100.682C57.5864 100.838 57.5463 100.992 57.4958 101.142V101.272C57.4058 101.422 57.3358 101.572 57.2458 101.712C57.0476 102.055 56.9921 102.462 57.0913 102.846C57.1904 103.229 57.4362 103.558 57.7757 103.762C58.1213 103.956 58.5283 104.009 58.9119 103.91C59.2956 103.812 59.6265 103.569 59.8358 103.232C60.431 102.29 60.7176 101.185 60.6557 100.072C61.3931 102.095 61.8377 104.214 61.9758 106.362C60.9758 109.632 60.2958 113.532 61.6258 117.262C61.9217 118.094 62.3179 118.887 62.8057 119.622C57.4035 122.457 52.3296 125.877 47.6757 129.822C43.0257 133.752 38.6757 138.162 34.5457 142.422L34.1557 142.812C32.9057 144.102 31.6358 145.382 30.3758 146.662C27.2558 149.842 24.0257 153.122 20.9157 156.402C16.8829 160.493 13.2838 164.991 10.1757 169.822C8.49142 172.462 7.14745 175.305 6.17574 178.283C5.17574 181.703 5.63582 184.592 7.50582 186.412C7.59015 186.497 7.68404 186.57 7.78572 186.632C10.4078 189.393 13.2396 191.948 16.2558 194.272C17.4779 195.183 18.7572 196.015 20.0858 196.762C20.0858 200.382 20.0858 204.232 20.2358 208.102C20.2506 211.983 20.7511 215.846 21.7258 219.602C22.7415 223.28 24.995 226.494 28.1058 228.702C31.4778 230.9 35.3442 232.224 39.3558 232.553C43.4391 232.932 47.5473 232.962 51.6357 232.642H52.0457C56.3661 232.565 60.6651 232.015 64.8658 231.002C67.1458 230.382 69.3858 229.592 71.4958 228.832C71.7024 229.695 72.1745 230.472 72.8458 231.053C74.2025 232.055 75.8917 232.498 77.5658 232.292L78.7558 232.222C80.1958 232.152 81.6857 232.072 83.1557 232.042C87.5557 231.972 92.0358 232.142 96.3758 232.312C99.5258 232.432 102.796 232.552 106.016 232.582C110.376 232.582 114.666 232.323 118.836 232.033C120.486 231.954 122.139 231.981 123.786 232.112C126.117 232.341 128.467 232.288 130.786 231.952C131.166 232.022 131.546 232.092 131.926 232.132C136.906 232.688 141.915 232.952 146.926 232.922C153.186 232.922 159.476 232.602 165.656 232.292L168.416 232.152L174.986 231.812C184.986 231.282 195.346 230.732 205.536 230.952L211.476 231.062L215.186 231.132C225.006 231.332 234.956 231.072 244.576 230.822L247.836 230.742C250.656 230.742 253.836 230.642 255.266 227.492C255.753 226.321 256.151 225.114 256.456 223.882C256.556 223.502 256.666 223.132 256.766 222.772C257.276 221.042 257.766 219.302 258.226 217.562C259.006 214.652 259.726 211.712 260.406 208.762C261.237 208.754 262.045 208.486 262.717 207.996C263.389 207.507 263.892 206.821 264.156 206.033C267.336 197.033 267.976 187.562 268.476 178.102C268.746 172.922 269.036 167.742 269.286 162.562C269.535 160.009 269.448 157.433 269.026 154.902C269.326 155.642 269.586 156.402 269.816 157.162C270.376 159.012 273.276 158.222 272.716 156.372C271.613 152.772 269.827 149.418 267.456 146.492Z" fill="white"/>
<path d="M309.966 228.782C309.223 228.567 308.446 228.496 307.676 228.572C307.185 228.595 306.694 228.531 306.226 228.382C297.036 228.142 287.886 228.602 278.696 228.602C273.36 228.681 268.027 228.303 262.756 227.472C260.876 227.152 260.066 230.042 261.966 230.372C271.346 231.962 280.846 231.622 290.316 231.372C296.186 231.222 302.046 231.372 307.896 231.492C308.713 231.26 309.488 230.902 310.196 230.432C310.016 229.902 309.938 229.342 309.966 228.782Z" fill="white"/>
<path d="M63.0858 103.322C63.8323 101.812 64.2125 100.147 64.1958 98.4622C64.0058 96.6122 62.6858 94.9522 61.5258 93.4622C61.3409 93.2424 61.2107 92.9819 61.1458 92.7021C60.9385 92.6921 60.7335 92.6553 60.5358 92.5923C58.5583 91.7989 56.8278 90.4932 55.522 88.8096C54.2162 87.1259 53.3823 85.1249 53.1059 83.0122C52.7652 80.9394 52.7652 78.825 53.1059 76.7522C51.9851 79.1523 51.5256 81.8082 51.7753 84.4453C52.0249 87.0824 52.9745 89.605 54.5258 91.7522C55.5131 93.1189 56.5783 94.4279 57.7158 95.6724C57.8934 95.7589 58.064 95.859 58.2259 95.9722C58.9366 96.4217 59.5262 97.039 59.9429 97.7695C60.3596 98.5001 60.5907 99.3217 60.6159 100.162C61.3565 102.182 61.8044 104.296 61.9458 106.442C62.1358 105.822 62.3458 105.212 62.5458 104.632C62.7458 104.052 62.9058 103.772 63.0858 103.322Z" fill="#FBB03B"/>
<path d="M73.1959 73.3023C72.385 72.5325 71.6759 71.662 71.0859 70.7122C70.0859 69.2422 69.1459 67.8522 67.6059 67.4422C65.2659 66.8122 62.4559 68.2822 58.9859 71.9422C56.5459 74.5022 55.4958 79.1124 56.4358 83.1524C56.671 84.5363 57.2529 85.838 58.1273 86.9361C59.0016 88.0343 60.1399 88.8932 61.4358 89.4325C61.6979 89.5234 61.9326 89.6792 62.118 89.8856C62.3034 90.092 62.4334 90.3421 62.4959 90.6124C62.6088 90.5975 62.723 90.5975 62.8359 90.6124C63.0337 90.6341 63.2248 90.6968 63.397 90.7967C63.5692 90.8966 63.7187 91.0313 63.8359 91.1922C65.3384 92.8412 66.4795 94.7864 67.1859 96.9024C67.8159 99.3024 67.1859 101.612 66.3659 103.762C64.8459 107.842 63.1259 112.462 64.8359 116.692C65.9559 119.472 68.8358 121.392 72.4058 121.832C76.3058 122.302 80.2458 120.922 83.9258 119.372C87.6058 117.822 91.4259 116.203 94.3759 113.553C96.927 111.191 98.8571 108.237 99.9959 104.952C100.62 103.26 101.111 101.521 101.466 99.7523C101.656 98.8723 101.806 97.9724 101.936 97.0824C101.936 96.8924 102.006 96.6822 102.046 96.4622C102.22 95.8104 102.258 95.1293 102.156 94.4622C102.006 94.0422 101.456 93.6523 100.976 93.3023C100.752 93.1569 100.538 92.9966 100.336 92.8224C99.6666 92.2436 99.0353 91.6222 98.4459 90.9622C97.22 89.566 96.0843 88.0931 95.0458 86.5523L94.0458 85.0924C93.3758 84.0924 92.6759 83.0924 91.9659 82.0924C91.5259 81.4924 91.0958 80.9522 90.6658 80.4422C89.5758 79.6822 88.4959 78.9523 87.4459 78.2723H86.9459C86.445 78.3422 85.9368 78.3422 85.4359 78.2723C84.525 78.0974 83.6784 77.6793 82.9859 77.0623C82.2008 76.3421 81.6006 75.4433 81.2359 74.4422L80.7559 74.1825C79.5431 74.7721 78.1869 75.0024 76.8473 74.8465C75.5078 74.6906 74.2408 74.1548 73.1959 73.3023Z" fill="#FBB03B"/>
<path d="M71.7757 36.9224C71.9457 28.0724 72.6457 19.0223 79.0357 14.0723C80.6838 12.8516 82.6173 12.0738 84.6516 11.813C86.6858 11.5521 88.753 11.8169 90.6557 12.5823C95.1257 14.2523 98.3557 17.7822 100.916 21.0222C101.11 21.2589 101.237 21.5437 101.282 21.8464C101.328 22.1492 101.291 22.4586 101.176 22.7422C101.069 23.0293 100.89 23.2838 100.655 23.4802C100.419 23.6766 100.137 23.8083 99.8358 23.8623C99.5802 23.899 99.3194 23.8653 99.0815 23.7649C98.8436 23.6644 98.6377 23.501 98.4858 23.2922C95.6858 19.7522 92.4858 16.3422 88.1958 15.2922C86.6192 14.8833 84.9577 14.9428 83.4144 15.4631C81.8711 15.9835 80.5129 16.9421 79.5058 18.2222C77.5855 20.7582 76.3554 23.749 75.9358 26.9023C75.2635 31.3325 74.9758 35.8124 75.0758 40.2922V49.2021V54.0622C75.081 54.3527 75.0085 54.6393 74.8658 54.8923C75.2858 55.1723 75.6758 55.4822 76.0658 55.7922L76.8057 56.3823C77.8057 57.1123 78.6857 57.7822 79.5357 58.5122C80.7789 59.5486 81.8519 60.7736 82.7158 62.1423C83.5647 62.5278 84.5093 62.6508 85.4287 62.4958C86.348 62.3408 87.2002 61.9147 87.8758 61.2722C90.8758 58.2122 94.8758 56.3723 98.1258 53.5723C100.739 51.2117 102.951 48.4423 104.676 45.3723C108.126 39.8619 110.381 33.6888 111.296 27.2522C111.816 27.6922 112.296 28.1122 112.886 28.5222C113.128 28.4088 113.393 28.3501 113.661 28.3501C113.929 28.3501 114.193 28.4088 114.436 28.5222C114.734 28.363 115.073 28.2979 115.408 28.3354C115.744 28.3729 116.06 28.5112 116.316 28.7322C123.359 34.5447 132.094 37.9229 141.216 38.3623C143.126 38.4523 144.856 38.4821 146.476 38.4521C147.377 38.2658 148.23 37.8975 148.983 37.3696C149.736 36.8417 150.373 36.1655 150.856 35.3823C153.426 31.0723 150.526 26.1423 147.956 22.5723C143.565 16.7032 138.143 11.6815 131.956 7.75219C131.126 7.42219 130.296 7.09219 129.426 6.75219C125.266 5.14109 120.917 4.06584 116.486 3.55223C112.251 3.05249 107.959 3.3923 103.856 4.55223C99.1158 5.96223 96.3457 7.92223 95.3957 10.5522C95.316 10.7674 95.1941 10.9643 95.0371 11.1316C94.8801 11.2989 94.6912 11.4332 94.4815 11.5264C94.2719 11.6195 94.0456 11.6699 93.8162 11.6743C93.5869 11.6787 93.3588 11.6372 93.1457 11.5522C92.9603 11.5005 92.7872 11.4124 92.6362 11.293C92.4852 11.1736 92.3595 11.0254 92.2664 10.8569C92.1734 10.6884 92.1147 10.5031 92.094 10.3118C92.0732 10.1204 92.0908 9.92667 92.1457 9.74218C90.5981 8.94087 88.888 8.50307 87.1457 8.46215C80.4457 8.28215 74.8757 12.9623 72.2657 18.8523C69.1257 25.9523 69.0057 34.5223 70.1357 42.0823C70.4675 44.5931 70.9958 47.074 71.7158 49.5022V48.9722C71.7058 45.0622 71.7057 40.9424 71.7757 36.9224Z" fill="#FBB03B"/>
<path d="M116.506 130.062C116.516 128.615 115.997 127.213 115.046 126.122H114.716C112.952 125.939 111.226 125.49 109.596 124.792C109.183 124.599 108.783 124.382 108.396 124.142L108.066 124.872L107.616 125.922L107.396 126.442C107.466 126.282 107.286 126.712 107.266 126.762C106.816 127.842 106.386 128.932 105.956 130.012C108.506 131.452 111.576 131.962 114.576 132.452L115.826 132.662C115.925 132.53 116.012 132.39 116.086 132.242C116.423 131.568 116.568 130.814 116.506 130.062Z" fill="#00A99D"/>
<path d="M134.316 124.452C134.316 124.452 134.316 124.452 134.316 124.532C134.686 125.532 135.066 126.622 135.516 127.642C135.366 127.302 135.516 127.702 135.566 127.772L135.736 128.162C135.846 128.412 135.966 128.662 136.076 128.922C136.309 129.422 136.549 129.922 136.796 130.422C136.918 130.688 136.969 130.981 136.946 131.272C138.588 130.388 139.996 129.127 141.056 127.592C142.936 124.603 144.324 121.332 145.166 117.902C143.696 117.592 142.346 117.342 141.046 117.112C140.009 119.725 138.194 121.956 135.846 123.502C135.355 123.849 134.844 124.167 134.316 124.452Z" fill="#00A99D"/>
<path d="M59.0958 204.062C60.0414 203.794 60.9671 203.46 61.8658 203.062H61.9258C62.4054 202.29 62.801 201.468 63.1058 200.612C63.2795 200.103 63.4263 199.586 63.5458 199.062L63.6958 198.302V198.172C63.6958 198.072 63.6958 197.962 63.6958 197.942V197.612C63.7242 197.344 63.8095 197.085 63.9458 196.852C64.0058 195.962 64.0758 195.092 64.1658 194.242C64.016 194.323 63.8537 194.376 63.6858 194.402C59.6589 194.856 55.582 194.517 51.6858 193.402C51.3419 195.095 51.1081 196.809 50.9858 198.532C50.9158 199.532 50.8859 200.532 50.8759 201.532C50.927 202.567 50.795 203.603 50.4858 204.592C50.7058 204.592 50.9258 204.662 51.1458 204.682C53.811 204.988 56.5101 204.777 59.0958 204.062Z" fill="#00A99D"/>
<path d="M31.4058 198.142C32.4267 194.641 32.9353 191.009 32.9158 187.362C32.8999 187.226 32.8999 187.089 32.9158 186.952C31.3958 186.332 29.8891 185.702 28.3958 185.062C26.4424 184.236 24.5125 183.355 22.6058 182.422C21.8124 185.851 20.6488 189.184 19.1357 192.362C20.1033 193.039 21.1046 193.667 22.1357 194.242C24.3334 195.414 26.6166 196.416 28.9658 197.242C29.8158 197.582 30.6158 197.862 31.4058 198.142Z" fill="#00A99D"/>
<path d="M261.036 187.482C262.036 180.882 262.746 174.092 263.206 167.302V167.012C263.546 162.192 263.956 156.182 260.366 152.432C260.262 152.324 260.171 152.202 260.096 152.072C257.423 151.244 254.609 150.968 251.826 151.262C248.946 151.442 246.056 151.672 243.176 151.902C239.266 152.202 235.176 152.522 231.236 152.732C225.486 153.022 219.526 153.242 213.106 153.392C213.4 154.064 213.87 154.644 214.467 155.07C215.064 155.496 215.765 155.753 216.496 155.812C224.111 156.577 231.772 156.767 239.416 156.382C243.236 156.172 247.036 155.802 250.836 155.302C254.636 154.802 260.396 152.802 261.356 158.302C261.936 161.662 261.036 166.042 260.856 169.432C260.656 173.262 260.476 177.082 260.256 180.902C259.806 188.782 259.006 196.492 256.366 203.982C256.102 204.613 256.039 205.309 256.186 205.977C256.333 206.644 256.682 207.25 257.186 207.712C257.186 207.602 257.246 207.492 257.266 207.382C258.786 200.842 260.046 194.152 261.036 187.482Z" fill="#00A99D"/>
<path d="M241.196 148.782C242.786 148.672 244.366 148.532 245.956 148.392C247.896 148.232 249.846 148.062 251.796 147.932C255.096 147.584 258.432 147.97 261.566 149.062C261.94 149.207 262.252 149.48 262.446 149.832C262.563 149.904 262.671 149.992 262.766 150.092C264.618 152.087 265.848 154.579 266.306 157.262C266.773 160.074 266.89 162.932 266.656 165.772C266.456 169.092 266.176 172.532 265.786 176.282C265.076 183.232 264.076 190.222 262.786 197.082C262.066 201.002 261.236 204.922 260.336 208.822C261.167 208.813 261.975 208.545 262.647 208.056C263.319 207.567 263.822 206.88 264.086 206.092C267.256 197.092 267.896 187.632 268.406 178.162C268.676 172.982 268.956 167.812 269.206 162.632C269.463 160.075 269.379 157.496 268.956 154.962C268.199 153.08 267.222 151.294 266.046 149.642C261.206 144.932 253.236 147.092 247.046 147.762C236.894 148.824 226.661 148.84 216.506 147.812C215.733 147.684 214.941 147.842 214.276 148.256C213.612 148.67 213.121 149.312 212.896 150.062C215.096 150.009 217.289 149.949 219.476 149.882C227.196 149.642 234.316 149.282 241.196 148.782Z" fill="#00A99D"/>
<path d="M254.816 217.292C254.376 218.905 253.922 220.512 253.456 222.112C253.346 222.502 253.236 222.912 253.136 223.342C252.923 224.432 252.556 225.486 252.046 226.472C251.486 227.402 250.256 227.422 249.046 227.472L243.526 227.612C240.036 227.702 236.526 227.792 233.076 227.862C223.026 228.082 212.816 228.172 202.936 228.252C188.476 228.372 173.526 228.502 158.806 229.042H157.806C152.536 229.242 147.076 229.442 141.726 229.222C140.466 229.162 139.206 229.222 137.996 229.222C135.932 229.391 133.855 229.294 131.816 228.932L131.606 228.882C131.306 228.698 130.957 228.611 130.606 228.632C128.606 228.062 122.606 225.872 122.096 220.362C122.024 218.789 122.149 217.214 122.466 215.672L132.016 155.212C132.016 155.082 132.016 154.912 132.076 154.732C132.078 154.283 132.177 153.84 132.366 153.432C132.536 153.242 133.156 153.262 133.526 153.282H136.596C140.126 153.282 143.656 153.282 147.186 153.282C153.259 153.282 159.329 153.329 165.396 153.422H168.186C183.076 153.552 196.506 153.642 210.186 153.422L213.036 153.362C212.558 152.316 212.479 151.132 212.816 150.032C200.226 150.312 187.696 150.282 175.896 150.192L165.356 150.112L153.926 150.012H143.136H137.546H136.046C134.812 149.957 133.576 149.987 132.346 150.102C131.574 150.159 130.84 150.461 130.25 150.962C129.661 151.464 129.246 152.139 129.066 152.892C128.759 154.094 128.541 155.318 128.416 156.552C128.346 157.092 128.276 157.632 128.196 158.162L120.646 205.952C118.646 203.952 115.726 203.112 113.056 202.562C108.259 201.561 103.384 200.982 98.4858 200.832C93.6629 200.684 88.8387 201.083 84.1058 202.022C80.36 202.873 76.6831 204.003 73.1058 205.402L70.5758 206.312C69.3858 206.732 68.3657 207.072 67.4157 207.312C66.5257 196.432 67.6958 188.052 71.0958 180.972C71.1931 180.763 71.2481 180.536 71.2575 180.306C71.267 180.075 71.2307 179.845 71.1507 179.628C71.0708 179.411 70.9489 179.213 70.7918 179.044C70.6348 178.874 70.4458 178.738 70.2358 178.642C70.055 178.545 69.8559 178.487 69.6513 178.471C69.4467 178.455 69.241 178.481 69.0473 178.549C68.8536 178.617 68.6761 178.724 68.5261 178.864C68.376 179.004 68.2567 179.173 68.1757 179.362C66.2768 183.387 65.0086 187.681 64.4157 192.092C64.2492 191.849 64.0163 191.661 63.745 191.547C63.4736 191.434 63.1753 191.401 62.8857 191.452C58.3257 192.152 53.3957 190.792 49.0557 189.452C44.5357 188.102 40.0557 186.452 35.6857 184.752C31.364 183.143 27.1313 181.303 23.0058 179.242C21.0058 178.242 19.0057 177.162 17.1557 175.972C15.3823 174.99 13.915 173.536 12.9157 171.772V171.712C13.0057 171.572 13.0757 171.432 13.1657 171.282C16.1327 166.746 19.5465 162.518 23.3558 158.662C26.2958 155.562 29.3557 152.472 32.2857 149.472L35.8057 145.882L36.7058 144.962C40.4958 141.082 44.4157 137.072 48.5557 133.452C53.4568 129.151 58.8592 125.458 64.6457 122.452C64.7814 122.38 64.9089 122.292 65.0257 122.192C66.3962 123.31 67.9826 124.134 69.6857 124.612C73.2557 125.612 77.2658 125.322 81.9458 123.682C85.4039 122.522 88.7507 121.052 91.9458 119.292L97.4858 126.232C98.7183 127.874 100.083 129.412 101.566 130.832C105.096 134.012 109.566 134.832 113.926 135.582L116.346 136.032L118.346 136.402H118.436C119.706 136.632 120.986 136.842 122.266 137.002C125.012 137.309 127.788 137.211 130.506 136.712C134.436 136.052 139.366 134.782 142.726 130.812C145.626 127.362 147.096 123.062 148.416 118.572C154.23 119.904 159.918 121.738 165.416 124.052C172.762 127.045 179.426 131.494 185.006 137.132C187.917 140.166 190.355 143.621 192.236 147.382C192.324 147.569 192.449 147.737 192.604 147.874C192.759 148.011 192.941 148.115 193.138 148.178C193.335 148.242 193.543 148.265 193.749 148.245C193.955 148.225 194.155 148.163 194.336 148.062C194.543 147.968 194.729 147.833 194.883 147.665C195.037 147.497 195.155 147.299 195.231 147.085C195.307 146.87 195.338 146.642 195.323 146.415C195.309 146.187 195.248 145.966 195.146 145.762C188.686 132.762 175.216 122.912 156.216 117.262C151.293 115.781 146.283 114.606 141.216 113.742C141.143 113.658 141.063 113.581 140.976 113.512C138.306 109.892 137.606 105.092 137.086 101.152C138.8 100.385 140.413 99.4075 141.886 98.2421C144.288 96.3397 146.52 94.2317 148.556 91.942C150.684 89.7514 152.44 87.2283 153.756 84.4721C156.036 79.3321 155.206 73.9521 154.396 68.7421C154.156 67.1621 153.906 65.5421 153.746 63.9621C152.947 55.9599 153.236 47.8865 154.606 39.9621C154.611 39.9222 154.611 39.882 154.606 39.8422C155.957 38.8753 157.07 37.6121 157.859 36.1493C158.647 34.6865 159.091 33.0628 159.156 31.4022C159.396 27.5822 157.816 23.4623 154.456 19.1823C151.763 15.8301 148.537 12.9448 144.906 10.6422C141.302 8.34257 137.488 6.39039 133.516 4.81215C128.969 2.84636 124.206 1.42648 119.326 0.582173C113.958 -0.379602 108.444 -0.147505 103.176 1.2621C97.1757 2.9921 93.5058 5.71216 92.1058 9.57216C92.1023 9.62544 92.1023 9.6788 92.1058 9.73207C92.4758 9.92207 92.8257 10.1322 93.1757 10.3522C97.7957 0.522192 113.326 -0.277964 122.396 2.94204C125.727 4.17356 128.91 5.77351 131.886 7.71206C134.728 8.84169 137.494 10.1546 140.166 11.6422C143.513 13.4545 146.596 15.7191 149.326 18.3722C152.596 21.6022 154.606 24.7022 155.476 27.8422C156.346 30.9822 155.906 34.8423 153.106 36.9223C151.491 37.9359 149.611 38.4442 147.706 38.3822C147.286 38.3822 146.856 38.3822 146.416 38.3822C143.216 39.1822 139.306 38.4722 136.356 38.1022C127.779 37.0663 119.638 33.7435 112.786 28.4821C112.528 28.617 112.314 28.8218 112.167 29.0729C112.02 29.324 111.947 29.6115 111.956 29.9022C111.956 35.4022 109.956 41.0422 105.546 47.6522C102.546 52.1522 98.3457 57.7321 92.3957 61.0121C89.647 62.5175 86.6488 63.5134 83.5457 63.952C83.3006 63.3049 82.989 62.685 82.6158 62.1022C82.1642 61.8909 81.7569 61.5956 81.4157 61.2321C78.7957 58.3721 75.2357 56.8522 73.2757 53.3322C72.6058 52.1005 72.063 50.8037 71.6557 49.4621C71.6557 50.9821 71.6557 52.4621 71.6557 54.0221C71.6557 54.0921 71.6557 54.1521 71.6557 54.2121C70.1406 54.9382 68.8565 56.0702 67.9458 57.4821C66.665 59.3875 66.0788 61.6755 66.2857 63.9621C65.9106 63.9779 65.5367 64.0148 65.1657 64.0722C63.1812 64.5094 61.3341 65.426 59.7857 66.7421C58.1794 67.9188 56.7338 69.3006 55.4858 70.8522C54.2411 72.5988 53.4226 74.6124 53.0958 76.7321C54.5047 73.8908 56.6117 71.4538 59.2194 69.6488C61.8272 67.8439 64.8504 66.7303 68.0058 66.4123C71.0658 66.0723 72.4657 68.4122 72.2657 70.8622C75.2692 71.5129 78.1514 72.6334 80.8057 74.1823L81.1258 74.0521C81.1258 74.1921 81.2357 74.312 81.2857 74.442C82.7957 75.292 84.2157 76.1623 85.4357 76.9223L87.4958 78.2521C87.8496 78.2154 88.2072 78.253 88.5457 78.3622C89.1382 78.6797 89.6537 79.1236 90.0557 79.6623L90.2058 79.8222C90.3758 80.0122 90.5458 80.2223 90.7158 80.4223C94.651 83.0482 98.1902 86.2236 101.226 89.8522C105.146 94.9422 102.226 102.102 99.8957 107.322C94.8957 118.812 82.2457 124.472 70.0157 121.522C64.3357 120.142 62.8058 115.072 62.2558 109.842C62.1358 108.712 62.0457 107.552 61.9357 106.392C60.9357 109.672 60.2558 113.562 61.5858 117.302C61.8776 118.133 62.2741 118.922 62.7657 119.652C57.3636 122.496 52.2872 125.92 47.6258 129.862C42.9858 133.782 38.6258 138.192 34.4958 142.462L34.1158 142.852L30.3358 146.702C27.2158 149.872 23.9858 153.152 20.8658 156.442C16.8363 160.534 13.2404 165.031 10.1357 169.862C8.45138 172.502 7.10741 175.345 6.1357 178.322C5.1357 181.742 5.59578 184.632 7.46578 186.442C7.54764 186.532 7.64196 186.609 7.74581 186.672C10.3678 189.433 13.1996 191.988 16.2158 194.312C17.4362 195.218 18.7119 196.046 20.0357 196.792C20.0357 200.412 20.0358 204.262 20.1958 208.142C20.2062 212.023 20.7068 215.887 21.6857 219.642C22.7001 223.315 24.9499 226.525 28.0557 228.732C31.4262 230.935 35.293 232.261 39.3057 232.592C43.3927 232.968 47.5043 232.995 51.5958 232.672H51.9958C56.3191 232.598 60.6213 232.052 64.8258 231.042C67.1058 230.412 69.3358 229.632 71.4558 228.862C71.6598 229.729 72.1322 230.509 72.8057 231.092C74.1634 232.091 75.8529 232.532 77.5257 232.322L78.7158 232.262C80.1558 232.182 81.6458 232.112 83.1158 232.082C87.5158 232.002 91.9958 232.172 96.3258 232.342C99.4858 232.462 102.756 232.592 105.966 232.622C110.326 232.622 114.626 232.362 118.786 232.072C120.436 231.989 122.089 232.015 123.736 232.152C126.067 232.38 128.417 232.327 130.736 231.992C131.116 232.059 131.496 232.119 131.876 232.172C136.856 232.725 141.865 232.986 146.876 232.952C153.146 232.952 159.436 232.632 165.616 232.322L168.366 232.182L174.946 231.842C184.946 231.312 195.306 230.772 205.496 230.982C207.496 231.032 209.496 231.062 211.436 231.102L215.146 231.172C224.956 231.362 234.906 231.112 244.536 230.862L247.786 230.782C250.616 230.732 253.786 230.682 255.226 227.532C255.71 226.356 256.108 225.146 256.416 223.912C256.516 223.542 256.616 223.172 256.726 222.802C257.226 221.072 257.726 219.342 258.176 217.602C258.956 214.696 259.686 211.759 260.366 208.792C259.21 208.84 258.081 208.439 257.216 207.672C256.476 210.882 255.676 214.062 254.816 217.292ZM80.3857 69.3422C80.2588 69.5645 80.1873 69.8142 80.1768 70.07C80.1664 70.3258 80.2174 70.5802 80.3258 70.8122C79.3175 71.5025 78.0808 71.775 76.8758 71.5722C75.5758 71.2722 74.7158 70.1822 73.8158 68.9022L73.6158 68.6222C72.806 67.3488 71.7925 66.217 70.6158 65.2721C70.2822 65.0251 69.9235 64.8141 69.5457 64.6422C69.596 64.3779 69.596 64.1065 69.5457 63.8422C69.4457 62.9736 69.5197 62.0939 69.7635 61.2543C70.0073 60.4147 70.4161 59.6319 70.9658 58.952C71.2654 58.5866 71.6003 58.2517 71.9658 57.952C72.1564 57.7991 72.3568 57.6588 72.5658 57.5321L72.6857 57.4821C72.7287 57.5232 72.7757 57.5601 72.8258 57.5922L75.1258 59.3021C76.9806 60.5139 78.5805 62.0766 79.8358 63.9022C80.1163 64.3655 80.3443 64.8585 80.5157 65.3722C80.4302 65.6453 80.4139 65.9352 80.468 66.2162C80.5221 66.4972 80.645 66.7603 80.8258 66.9821C80.9034 67.7944 80.7508 68.6124 80.3857 69.3422ZM117.446 132.882L116.596 132.722L115.826 132.592C115.452 133.053 114.957 133.399 114.396 133.592C114.056 133.752 113.706 133.892 113.396 134.022C112.431 134.107 111.463 133.912 110.606 133.462L110.466 133.392C110.172 133.444 109.874 133.473 109.576 133.482C108.967 133.483 108.368 133.322 107.841 133.017C107.314 132.711 106.878 132.271 106.576 131.742C106.314 131.281 106.138 130.776 106.056 130.252C106.011 129.974 106.011 129.69 106.056 129.412C106.03 128.923 106.101 128.434 106.266 127.972C106.445 126.417 107.098 124.954 108.136 123.782C108.359 123.518 108.635 123.303 108.946 123.152C108.995 123.488 109.171 123.792 109.436 124.004C109.702 124.216 110.037 124.319 110.376 124.292C112.041 124.305 113.652 124.884 114.946 125.932C115.021 125.994 115.091 126.06 115.156 126.132L117.846 126.462C117.821 128.607 117.688 130.75 117.446 132.882ZM130.836 133.332C128.49 133.824 126.088 133.995 123.696 133.842C122.596 133.752 121.486 133.592 120.386 133.412C120.622 131.177 120.739 128.93 120.736 126.682C124.384 127.014 128.061 126.654 131.576 125.622C132.347 127.777 133.239 129.887 134.246 131.942C134.321 132.101 134.434 132.238 134.576 132.342C133.357 132.77 132.107 133.102 130.836 133.332ZM146.136 120.632C145.696 121.312 145.226 121.972 144.756 122.632C144.871 123.196 144.871 123.778 144.756 124.342C144.407 125.767 143.678 127.07 142.646 128.112C142.08 129.046 141.431 129.926 140.706 130.742C138.866 132.282 135.416 132.012 134.856 129.202C134.727 128.407 134.481 127.635 134.126 126.912C133.807 126.377 133.639 125.765 133.639 125.142C133.639 124.519 133.807 123.908 134.126 123.372C134.809 122.38 135.847 121.689 137.026 121.442C137.416 120.952 137.806 120.302 138.106 119.902C138.796 119.002 139.436 118.052 140.106 117.092C142.536 113.322 148.596 116.832 146.136 120.632ZM102.836 90.5221C102.124 89.9018 101.456 89.2336 100.836 88.5221C99.3799 86.8092 98.0435 84.9983 96.8358 83.1022C95.7165 81.369 94.5012 79.6998 93.1958 78.1022C91.8158 76.4722 90.1157 74.7521 87.3057 74.9821C86.861 75.0863 86.3955 75.0575 85.967 74.8993C85.5385 74.7411 85.166 74.4604 84.8957 74.0922C84.3309 73.1484 83.9889 72.088 83.8957 70.9921C83.8608 70.742 83.757 70.5066 83.5958 70.3122C84.0053 69.3265 84.216 68.2694 84.2158 67.202C90.5779 66.2164 96.4615 63.2328 101.016 58.6823C103.415 56.252 105.587 53.6075 107.506 50.7821C109.591 47.8746 111.373 44.7617 112.826 41.4921C114.141 38.497 114.965 35.3095 115.266 32.0521C121.996 37.3131 130.077 40.5617 138.576 41.4223C141.039 41.655 143.512 41.7516 145.986 41.7121C147.708 41.7619 149.432 41.6279 151.126 41.3122C150.339 46.5504 150.004 51.8466 150.126 57.1422C149.97 56.7619 149.681 56.4508 149.313 56.267C148.946 56.0831 148.524 56.0389 148.126 56.1422C147.886 56.1422 147.336 55.8623 147.006 55.6723C146.866 55.5923 146.736 55.5121 146.626 55.4621L139.796 52.0021C139.415 51.7929 138.967 51.7397 138.548 51.8534C138.128 51.9672 137.769 52.2392 137.546 52.6122C137.322 53.0219 137.268 53.503 137.396 53.952C137.454 54.1539 137.552 54.3421 137.684 54.5053C137.817 54.6684 137.98 54.8035 138.166 54.9022L144.076 57.9022L145.736 58.7521C146.5 59.1758 147.353 59.4123 148.226 59.442C148.454 59.4406 148.681 59.4207 148.906 59.3822C149.111 59.3493 149.306 59.2723 149.479 59.1566C149.652 59.041 149.797 58.8893 149.906 58.7121C150.003 58.5536 150.078 58.3818 150.126 58.202C150.126 58.712 150.126 59.2021 150.186 59.7421C150.362 63.1292 150.723 66.5042 151.266 69.8522L151.406 70.7321C151.896 73.7321 152.406 76.932 151.826 79.942C150.826 85.432 146.516 89.7521 142.226 93.7121C140.219 95.7127 137.841 97.3027 135.226 98.3922C132.636 99.3322 129.856 99.3922 126.226 98.3922C123.636 97.7422 121.016 96.952 118.496 96.192L115.266 95.192L114.366 94.9223C110.976 94.0068 107.637 92.9085 104.366 91.6322C104.309 91.6034 104.248 91.5831 104.186 91.5722C103.926 91.3222 103.636 91.1022 103.356 90.8722L102.836 90.5221ZM101.666 109.522C103.407 106.083 104.582 102.386 105.146 98.5722C105.146 98.3322 105.236 98.0822 105.276 97.8222C105.396 97.1622 105.526 96.4321 105.586 95.702C108.296 96.702 111.126 97.512 113.426 98.192L116.696 99.192C119.036 99.882 121.366 100.582 123.696 101.192C126.876 102.082 130.306 102.822 133.836 102.192H133.946C134.566 106.672 135.466 111.332 138.176 115.242C136.676 120.512 130.946 122.882 126.446 123.302C122.957 123.53 119.453 123.382 115.996 122.862C114.458 122.75 112.942 122.438 111.486 121.932C110.06 121.297 108.77 120.394 107.686 119.272C105.131 116.825 102.736 114.216 100.516 111.462C100.966 110.802 101.336 110.172 101.666 109.542V109.522ZM98.4658 114.152C100.581 116.735 102.845 119.192 105.246 121.512L105.986 122.192C105.836 122.472 105.706 122.762 105.576 123.042C105.206 123.882 104.856 124.732 104.496 125.572C104.136 126.412 103.826 127.232 103.496 128.062C102.251 126.81 101.095 125.474 100.036 124.062L94.7558 117.462C96.1063 116.501 97.35 115.398 98.4658 114.172V114.152ZM50.4658 199.312C50.2429 198.086 50.1691 196.836 50.2458 195.592C50.2662 194.67 50.6414 193.792 51.2934 193.14C51.9454 192.488 52.8239 192.112 53.7458 192.092C54.3218 192.109 54.8848 192.267 55.3857 192.552C55.7722 192.395 56.1893 192.326 56.6058 192.352C57.8517 192.443 59.0886 192.631 60.3057 192.912C61.0633 192.768 61.8457 192.827 62.573 193.083C63.3003 193.34 63.9465 193.784 64.4458 194.372C65.7658 196.032 65.3158 198.932 65.3558 200.942C65.3537 201.708 65.1016 202.453 64.6378 203.063C64.1739 203.673 63.5236 204.115 62.7857 204.322C61.2557 204.562 59.8657 205.132 58.2957 205.322C57.4357 205.422 56.5858 205.502 55.7258 205.572C55.212 205.963 54.5998 206.205 53.9572 206.27C53.3146 206.335 52.6666 206.221 52.0848 205.941C51.503 205.66 51.0101 205.224 50.6608 204.681C50.3116 204.137 50.1195 203.508 50.1058 202.862V202.252C50.0922 201.629 50.2664 201.016 50.6058 200.492C50.5858 200.062 50.5358 199.722 50.4858 199.332L50.4658 199.312ZM64.2258 208.102C63.8258 208.192 63.4257 208.262 63.0257 208.322C62.1615 208.457 61.2899 208.541 60.4157 208.572C60.3957 208.312 60.3957 208.052 60.4157 207.792C60.4599 207.554 60.5235 207.32 60.6058 207.092C60.6025 207.062 60.6025 207.032 60.6058 207.002C61.5511 206.723 62.4792 206.389 63.3857 206.002C63.5518 205.933 63.7042 205.835 63.8358 205.712L63.9958 205.622C64.1058 206.432 64.1958 207.292 64.2458 208.122L64.2258 208.102ZM35.8857 188.102C40.1457 189.772 44.4857 191.282 48.8857 192.522C48.516 194.321 48.2557 196.142 48.1058 197.972C48.0258 198.972 47.9758 199.972 47.9758 200.972C48.0369 201.896 47.9353 202.823 47.6757 203.712C47.6701 203.755 47.6701 203.799 47.6757 203.842C45.8557 203.332 44.0557 202.672 42.2957 202.012L40.2957 201.252L36.8057 200.012L34.3057 199.102C35.3355 195.532 35.8738 191.838 35.9057 188.122L35.8857 188.102ZM16.1958 190.102C14.1058 188.352 12.1958 186.462 10.7558 185.002L9.99581 184.232C9.91218 184.144 9.81812 184.067 9.71578 184.002C8.71578 182.872 8.71572 181.072 9.65572 178.362C10.1163 177.115 10.6574 175.899 11.2757 174.722C12.9557 177.002 15.4857 178.532 17.9257 179.922C18.5757 180.292 19.2357 180.652 19.9257 181.002C19.2199 184.28 18.1535 187.469 16.7458 190.512L16.1958 190.102ZM18.7158 192.302C17.8858 189.502 20.1157 184.242 22.1657 182.302C22.8478 181.712 23.7 181.355 24.5988 181.281C25.4977 181.207 26.3966 181.421 27.1657 181.892C28.6398 182.76 30.2106 183.451 31.8458 183.952C32.3339 184.113 32.7815 184.376 33.1579 184.726C33.5343 185.076 33.8305 185.503 34.0262 185.978C34.2219 186.453 34.3125 186.965 34.2917 187.478C34.2709 187.992 34.1392 188.495 33.9057 188.952C34.2807 189.883 34.455 190.883 34.4171 191.886C34.3792 192.889 34.13 193.872 33.6857 194.772C34.1029 195.477 34.2817 196.297 34.1958 197.112C34.0884 197.764 33.8213 198.379 33.4182 198.903C33.0151 199.426 32.4886 199.842 31.8857 200.112C31.2919 200.393 30.6356 200.516 29.9803 200.469C29.325 200.422 28.6929 200.206 28.1457 199.842C27.6382 199.52 27.208 199.09 26.8857 198.582L26.7957 198.322C26.6062 198.09 26.4419 197.839 26.3057 197.572C25.2357 197.082 24.2057 196.402 23.3057 195.932C21.5757 195.162 19.3458 194.382 18.7358 192.312L18.7158 192.302ZM69.9858 225.812C66.0785 227.351 61.9985 228.409 57.8358 228.962C53.9558 229.362 49.7457 229.582 45.3057 229.602H45.0058C34.8558 229.602 28.5758 226.832 25.8158 221.152C24.1558 217.732 23.8158 213.832 23.6058 209.462C23.4158 205.752 23.3857 202.042 23.3857 198.542C24.3857 199.032 25.5258 199.492 26.7058 199.952C29.4958 201.042 32.3657 202.052 35.1357 203.032L38.5457 204.252L40.7058 205.052C43.7827 206.324 46.9879 207.259 50.2657 207.842C52.5261 208.155 54.8202 208.139 57.0758 207.792C57.0558 208.058 57.0558 208.326 57.0758 208.592L54.5758 208.482C54.3668 208.464 54.1564 208.49 53.958 208.558C53.7595 208.626 53.5772 208.734 53.4229 208.876C53.2686 209.018 53.1456 209.19 53.0617 209.382C52.9778 209.575 52.935 209.783 52.9357 209.992C52.9167 210.218 52.9434 210.445 53.0142 210.66C53.0851 210.875 53.1985 211.073 53.348 211.243C53.4974 211.413 53.6796 211.551 53.8837 211.649C54.0878 211.747 54.3096 211.802 54.5357 211.812C56.9858 211.992 59.4457 211.992 61.8957 211.812C64.1101 211.586 66.2972 211.144 68.4257 210.492C70.4957 209.882 72.5357 209.122 74.5157 208.392C76.6857 207.582 78.9358 206.752 81.1958 206.122C89.3258 203.822 98.4857 203.452 108.416 205.032H108.536C110.771 205.331 112.981 205.799 115.146 206.432C117.356 207.132 118.686 208.102 119.206 209.432C119.357 209.818 119.646 210.135 120.016 210.322L119.686 212.422C119.606 212.922 119.526 213.422 119.436 213.932C119.226 215.122 119.016 216.352 118.896 217.582C114.989 216.238 110.876 215.595 106.746 215.682C102.637 215.887 98.573 216.627 94.6557 217.882C86.4157 220.232 78.1158 222.912 70.0058 225.822L69.9858 225.812ZM118.986 221.352L113.676 221.622C108.282 221.896 102.896 222.172 97.5157 222.452C95.1657 222.572 92.2558 222.742 89.2058 222.952L90.3458 222.602L92.4057 221.972C96.2271 220.649 100.169 219.704 104.176 219.152C105.286 219.042 106.386 218.982 107.486 218.982C111.091 218.986 114.67 219.591 118.076 220.772C118.348 220.871 118.642 220.891 118.926 220.832L118.986 221.352ZM120.426 228.672C118.786 228.722 117.126 228.852 115.516 228.972C113.906 229.092 111.976 229.242 110.216 229.282C105.626 229.382 100.946 229.212 96.4157 229.032C94.0357 228.942 91.6557 228.852 89.2657 228.802C87.8957 228.802 86.6157 228.752 85.3957 228.752C82.9657 228.752 80.8058 228.812 78.7558 228.932L78.0858 228.992C77.0058 229.092 75.6658 229.222 75.0058 228.562C74.8058 228.362 74.7358 228.212 74.7558 228.142C74.7758 228.072 75.3657 227.672 76.1457 227.532C78.9157 227.052 81.8158 226.842 84.6158 226.632L86.3658 226.492C89.3658 226.252 92.5957 226.052 96.8057 225.822C102.256 225.522 107.716 225.252 113.166 224.972L120.036 224.632C120.876 226.246 122.056 227.659 123.496 228.772C122.468 228.686 121.437 228.657 120.406 228.682L120.426 228.672Z" fill="#1E1E1E"/>
<path d="M70.0658 121.572C82.2958 124.522 94.8958 118.862 99.9458 107.372C102.246 102.152 105.196 94.9924 101.276 89.9024C98.2402 86.2739 94.701 83.0982 90.7658 80.4723C91.1958 80.9823 91.6258 81.5224 92.0658 82.1224C92.7758 83.1224 93.4758 84.1224 94.1458 85.1224L95.1458 86.5824C96.1842 88.1231 97.3199 89.596 98.5458 90.9923C99.1352 91.6522 99.7665 92.2736 100.436 92.8524C100.638 93.0266 100.852 93.187 101.076 93.3324C101.556 93.6824 102.076 94.0723 102.256 94.4923C102.358 95.1594 102.32 95.8404 102.146 96.4923C102.146 96.7123 102.066 96.9224 102.036 97.1124C101.906 98.0024 101.756 98.9023 101.566 99.7823C101.211 101.551 100.72 103.29 100.096 104.982C98.957 108.267 97.0269 111.221 94.4758 113.582C91.4758 116.232 87.7158 117.842 84.0258 119.402C80.3358 120.962 76.4059 122.332 72.5059 121.862C68.8859 121.422 66.0558 119.503 64.9358 116.723C63.2258 112.493 64.9358 107.872 66.4658 103.792C67.2658 101.642 67.9158 99.3325 67.2858 96.9325C66.5794 94.8164 65.4383 92.8712 63.9358 91.2223C63.8187 91.0613 63.6693 90.9266 63.4971 90.8268C63.3249 90.7269 63.1337 90.6642 62.9358 90.6424C62.823 90.6275 62.7087 90.6275 62.5958 90.6424C62.5334 90.3721 62.4033 90.122 62.2179 89.9156C62.0325 89.7093 61.7978 89.5532 61.5358 89.4623C60.2398 88.923 59.1015 88.0643 58.2272 86.9662C57.3528 85.868 56.771 84.5663 56.5358 83.1825C55.5958 79.1825 56.6458 74.5323 59.0858 71.9723C62.5558 68.3123 65.3658 66.8423 67.7058 67.4723C69.2458 67.8823 70.1858 69.2723 71.1858 70.7423C71.7758 71.6921 72.4849 72.5625 73.2958 73.3324C74.3433 74.2088 75.6223 74.763 76.9782 74.9281C78.334 75.0931 79.7086 74.8618 80.9358 74.2623C78.2814 72.7134 75.3993 71.5929 72.3958 70.9422C72.5958 68.5322 71.1957 66.1523 68.1357 66.4923C64.9803 66.8103 61.9572 67.9239 59.3495 69.7289C56.7418 71.5338 54.6348 73.9711 53.2258 76.8124C52.8852 78.8851 52.8852 80.9996 53.2258 83.0724C53.5023 85.185 54.3362 87.1861 55.642 88.8697C56.9478 90.5534 58.6783 91.859 60.6558 92.6524C60.8535 92.7154 61.0585 92.7523 61.2658 92.7623C61.3307 93.0421 61.4609 93.3025 61.6458 93.5223C62.8058 94.9823 64.1258 96.6423 64.3158 98.5223C64.3325 100.207 63.9522 101.872 63.2058 103.382C63.0258 103.832 62.8558 104.262 62.7058 104.692C62.5558 105.122 62.2958 105.882 62.1058 106.502C62.2158 107.662 62.3058 108.822 62.4258 109.952C62.8558 115.122 64.3858 120.192 70.0658 121.572Z" fill="#1E1E1E"/>
<path d="M85.5358 78.3223C86.0367 78.3922 86.5449 78.3922 87.0458 78.3223H87.5458L85.4858 76.9922C84.2658 76.2322 82.8458 75.3622 81.3358 74.5122C81.7005 75.5133 82.3007 76.412 83.0858 77.1323C83.7806 77.7421 84.6269 78.1531 85.5358 78.3223Z" fill="#1E1E1E"/>
<path d="M93.1259 11.5624C93.339 11.6474 93.5669 11.6889 93.7963 11.6844C94.0257 11.68 94.2519 11.6297 94.4616 11.5365C94.6713 11.4433 94.8601 11.309 95.0171 11.1417C95.1742 10.9744 95.2962 10.7775 95.3759 10.5624C96.3759 7.97236 99.0959 6.01236 103.836 4.56236C107.939 3.40242 112.231 3.06261 116.466 3.56236C120.897 4.07596 125.246 5.15121 129.406 6.76231C130.276 7.08231 131.106 7.41231 131.936 7.76231C128.96 5.82376 125.777 4.22382 122.446 2.99229C113.376 -0.227708 97.8459 0.572449 93.2259 10.4024C92.8759 10.1824 92.5258 9.97233 92.1558 9.78233C92.0529 10.1469 92.0968 10.5373 92.2781 10.87C92.4594 11.2026 92.7637 11.4512 93.1259 11.5624Z" fill="#1E1E1E"/>
<path d="M81.4658 61.2823C81.807 61.6458 82.2142 61.9411 82.6658 62.1524C81.8019 60.7837 80.729 59.5587 79.4858 58.5223C78.6358 57.7923 77.7459 57.1224 76.7559 56.3924L76.0157 55.8023C75.6257 55.4923 75.2358 55.1824 74.8158 54.9024C74.9585 54.6494 75.031 54.3628 75.0258 54.0723V49.2122V40.3023C74.9258 35.8225 75.2135 31.3426 75.8857 26.9124C76.3054 23.7591 77.5355 20.7683 79.4558 18.2322C80.4629 16.9522 81.8211 15.9936 83.3644 15.4732C84.9077 14.9528 86.5692 14.8934 88.1458 15.3023C92.4458 16.3023 95.6358 19.7523 98.4358 23.3023C98.5877 23.5111 98.7937 23.6745 99.0316 23.775C99.2695 23.8754 99.5302 23.9091 99.7858 23.8724C100.087 23.8184 100.369 23.6867 100.604 23.4903C100.84 23.2939 101.019 23.0394 101.126 22.7523C101.241 22.4687 101.278 22.1592 101.232 21.8565C101.187 21.5538 101.06 21.269 100.866 21.0323C98.3058 17.7923 95.0758 14.2623 90.6058 12.5923C88.7031 11.827 86.6358 11.5622 84.6016 11.8231C82.5673 12.0839 80.634 12.8617 78.9858 14.0823C72.5958 19.0323 71.8958 28.0824 71.7258 36.9324C71.6558 40.9324 71.6558 45.0422 71.6558 48.9922V49.5223C72.063 50.8639 72.6058 52.1607 73.2758 53.3924C75.2858 56.9024 78.8458 58.4223 81.4658 61.2823Z" fill="#1E1E1E"/>
<path d="M141.196 38.3424C132.074 37.903 123.339 34.5247 116.296 28.7122C116.04 28.4912 115.724 28.353 115.388 28.3155C115.053 28.278 114.714 28.3431 114.416 28.5023C114.173 28.3889 113.909 28.3302 113.641 28.3302C113.373 28.3302 113.108 28.3889 112.866 28.5023C112.866 28.5023 112.866 28.5023 112.866 28.5023C119.718 33.7637 127.859 37.0865 136.436 38.1224C139.436 38.4924 143.296 39.2024 146.496 38.4024C144.846 38.4624 143.116 38.4324 141.196 38.3424Z" fill="#1E1E1E"/>
<path d="M105.956 129.942C106.386 128.862 106.816 127.772 107.266 126.692C107.266 126.642 107.466 126.212 107.396 126.372L107.616 125.852L108.066 124.802L108.396 124.072C108.783 124.312 109.183 124.529 109.596 124.722C111.226 125.421 112.952 125.869 114.716 126.052H115.046C114.981 125.981 114.911 125.914 114.836 125.852C113.542 124.804 111.931 124.225 110.266 124.212C109.928 124.236 109.593 124.132 109.328 123.921C109.064 123.71 108.888 123.407 108.836 123.072C108.525 123.223 108.249 123.438 108.026 123.702C106.988 124.874 106.335 126.337 106.156 127.892C105.991 128.354 105.92 128.843 105.946 129.332C105.901 129.61 105.901 129.894 105.946 130.172C106.028 130.696 106.204 131.201 106.466 131.662C106.768 132.191 107.204 132.631 107.731 132.937C108.258 133.242 108.857 133.403 109.466 133.402C109.764 133.393 110.062 133.364 110.356 133.312L110.496 133.382C111.353 133.832 112.321 134.027 113.286 133.942C113.626 133.812 113.976 133.672 114.286 133.512C114.847 133.32 115.343 132.973 115.716 132.512L114.466 132.302C111.576 131.892 108.506 131.382 105.956 129.942Z" fill="#1E1E1E"/>
<path d="M137.066 121.442C135.887 121.689 134.849 122.381 134.166 123.372C133.847 123.908 133.679 124.519 133.679 125.142C133.679 125.765 133.847 126.377 134.166 126.912C134.521 127.636 134.767 128.407 134.896 129.202C135.456 132.012 138.896 132.282 140.746 130.742C141.473 129.928 142.123 129.047 142.686 128.112C143.718 127.07 144.447 125.767 144.796 124.342C144.911 123.778 144.911 123.196 144.796 122.632C145.266 121.972 145.736 121.312 146.176 120.632C148.636 116.832 142.576 113.322 140.176 117.092C139.556 118.092 138.916 119.002 138.176 119.912C137.846 120.302 137.456 120.952 137.066 121.442ZM141.066 117.112C142.366 117.342 143.716 117.592 145.186 117.902C144.344 121.332 142.956 124.603 141.076 127.592C140.016 129.127 138.608 130.388 136.966 131.272C136.989 130.981 136.938 130.688 136.816 130.422C136.569 129.922 136.329 129.422 136.096 128.922C135.986 128.662 135.866 128.412 135.756 128.162L135.586 127.772C135.586 127.702 135.386 127.302 135.536 127.642C135.086 126.642 134.706 125.573 134.336 124.533C134.336 124.533 134.336 124.482 134.336 124.452C134.879 124.152 135.404 123.818 135.906 123.452C138.238 121.916 140.046 119.704 141.086 117.112H141.066Z" fill="#1E1E1E"/>
<path d="M50.1259 202.862C50.1396 203.508 50.3316 204.138 50.6809 204.681C51.0302 205.224 51.5231 205.66 52.1049 205.941C52.6867 206.221 53.3347 206.335 53.9773 206.27C54.6199 206.205 55.232 205.963 55.7459 205.572C56.6059 205.502 57.4558 205.422 58.3158 205.332C59.8858 205.152 61.3158 204.582 62.8058 204.332C63.5437 204.125 64.194 203.684 64.6578 203.073C65.1217 202.463 65.3738 201.719 65.3759 200.952C65.3759 198.952 65.7858 196.042 64.4658 194.382C63.9665 193.794 63.3202 193.35 62.5929 193.093C61.8656 192.837 61.0833 192.778 60.3258 192.922C59.1087 192.641 57.8718 192.453 56.6259 192.362C56.2093 192.336 55.7923 192.405 55.4058 192.562C54.9048 192.277 54.3418 192.119 53.7658 192.102C52.8431 192.12 51.9633 192.495 51.3108 193.147C50.6583 193.8 50.2837 194.68 50.2658 195.602C50.189 196.847 50.263 198.095 50.4858 199.322C50.4858 199.712 50.5858 200.092 50.6158 200.482C50.2765 201.005 50.1023 201.619 50.1158 202.242L50.1259 202.862ZM50.9658 201.482C50.9658 200.482 50.9658 199.482 51.0758 198.482C51.1981 196.759 51.4319 195.045 51.7758 193.352C55.672 194.467 59.7488 194.807 63.7758 194.352C63.9437 194.327 64.1061 194.272 64.2559 194.192C64.1659 195.042 64.0958 195.912 64.0358 196.802C63.8994 197.035 63.8142 197.294 63.7858 197.562V197.892C63.7858 197.892 63.7858 198.022 63.7858 198.122V198.252L63.6357 199.012C63.5163 199.536 63.3695 200.054 63.1958 200.562C62.891 201.419 62.4954 202.24 62.0158 203.012H61.9558C58.6139 204.468 54.9481 205.019 51.3258 204.612C51.1058 204.612 50.8858 204.552 50.6658 204.522C50.9422 203.534 51.0438 202.505 50.9658 201.482Z" fill="#1E1E1E"/>
<path d="M26.8459 198.422L26.9358 198.682C27.2581 199.19 27.6883 199.62 28.1958 199.942C28.7431 200.306 29.375 200.522 30.0303 200.569C30.6856 200.616 31.3421 200.493 31.9358 200.212C32.5387 199.942 33.0652 199.526 33.4683 199.003C33.8714 198.479 34.1386 197.864 34.2459 197.212C34.3318 196.398 34.153 195.577 33.7359 194.872C34.1801 193.972 34.4293 192.989 34.4672 191.986C34.5051 190.983 34.3309 189.983 33.9559 189.053C34.1893 188.595 34.3211 188.092 34.3418 187.578C34.3626 187.065 34.2721 186.553 34.0763 186.078C33.8806 185.603 33.5843 185.176 33.2079 184.826C32.8316 184.477 32.3839 184.213 31.8958 184.053C30.2606 183.551 28.69 182.86 27.2159 181.992C26.4468 181.521 25.5477 181.307 24.6489 181.381C23.75 181.454 22.898 181.812 22.2159 182.402C20.2159 184.332 17.9358 189.592 18.7658 192.402C19.3758 194.472 21.6059 195.252 23.3459 196.122C24.2859 196.592 25.3459 197.272 26.3459 197.762C26.4904 197.998 26.6579 198.219 26.8459 198.422ZM22.2059 194.242C21.1747 193.667 20.1734 193.039 19.2059 192.362C20.7189 189.184 21.8824 185.851 22.6758 182.422C24.5825 183.355 26.5125 184.236 28.4659 185.062C29.9592 185.729 31.4659 186.359 32.9859 186.952C32.97 187.089 32.97 187.226 32.9859 187.362C33.0054 191.009 32.4968 194.641 31.4759 198.142C30.6859 197.862 29.8859 197.583 29.1059 197.283C26.7282 196.447 24.4181 195.431 22.1958 194.242H22.2059Z" fill="#1E1E1E"/>
<path d="M213.126 153.393C219.546 153.243 225.506 153.022 231.256 152.732C235.256 152.522 239.256 152.202 243.196 151.902C246.076 151.672 248.966 151.443 251.846 151.263C254.629 150.969 257.443 151.244 260.116 152.072C260.191 152.203 260.282 152.324 260.386 152.433C263.976 156.183 263.566 162.193 263.226 167.013V167.303C262.766 174.093 262.036 180.882 261.056 187.482C260.076 194.082 258.806 200.842 257.306 207.372C257.306 207.482 257.306 207.593 257.226 207.703C258.091 208.469 259.221 208.87 260.376 208.822C261.276 204.922 262.106 201.002 262.826 197.082C264.086 190.222 265.086 183.233 265.826 176.283C266.216 172.533 266.496 169.092 266.696 165.772C266.93 162.932 266.813 160.074 266.346 157.263C265.888 154.579 264.658 152.087 262.806 150.092C262.711 149.992 262.603 149.905 262.486 149.832C262.292 149.48 261.981 149.208 261.606 149.062C258.472 147.97 255.136 147.584 251.836 147.933C249.886 148.063 247.936 148.233 245.996 148.393C244.406 148.533 242.826 148.673 241.236 148.783C234.366 149.283 227.236 149.642 219.536 149.882C217.342 149.956 215.149 150.016 212.956 150.062C212.604 151.156 212.664 152.341 213.126 153.393Z" fill="#1E1E1E"/>
<path d="M108.716 58.8923C108.927 58.8896 109.135 58.8438 109.327 58.7578C109.52 58.6718 109.693 58.5475 109.836 58.3923C110.236 58.1378 110.701 58.0024 111.176 58.0022H111.506C112.531 57.8527 113.537 57.5911 114.506 57.2222C116.418 56.445 118.259 55.5015 120.006 54.4023C120.253 54.2648 120.457 54.0627 120.598 53.8179C120.739 53.5731 120.811 53.2946 120.806 53.0122C120.799 52.7029 120.713 52.4005 120.555 52.1343C120.397 51.868 120.174 51.6468 119.906 51.4922C119.665 51.3496 119.391 51.2744 119.111 51.2744C118.831 51.2744 118.557 51.3496 118.316 51.4922L118.126 51.6023C116.524 52.6374 114.818 53.5022 113.036 54.1824C112.149 54.4628 111.239 54.6635 110.316 54.7822C109.268 54.8872 108.282 55.3293 107.506 56.0422C107.352 56.1983 107.23 56.384 107.149 56.5881C107.068 56.7922 107.03 57.0105 107.035 57.23C107.041 57.4494 107.091 57.6655 107.182 57.8652C107.273 58.0649 107.404 58.2443 107.566 58.3923C107.871 58.7003 108.283 58.8793 108.716 58.8923Z" fill="#1E1E1E"/>
<path d="M118.286 63.0623C117.986 65.7223 117.366 67.5423 115.286 67.8523C114.786 67.9216 114.277 67.8883 113.79 67.7542C113.304 67.62 112.85 67.388 112.456 67.0723C112.062 66.765 111.735 66.38 111.496 65.9414C111.257 65.5028 111.111 65.0198 111.066 64.5222C111.048 64.0887 110.865 63.6785 110.555 63.3755C110.244 63.0724 109.83 62.8996 109.396 62.8923C109.16 62.8998 108.928 62.9539 108.714 63.0518C108.499 63.1496 108.306 63.2891 108.146 63.4622C108.002 63.6136 107.892 63.7931 107.821 63.9893C107.751 64.1855 107.722 64.3943 107.736 64.6023C107.817 65.5787 108.093 66.5287 108.548 67.3962C109.003 68.2638 109.628 69.0311 110.386 69.6523C111.597 70.6584 113.121 71.21 114.696 71.2122C114.963 71.2101 115.23 71.1936 115.496 71.1624C116.46 71.0698 117.39 70.7564 118.214 70.2466C119.038 69.7367 119.733 69.044 120.246 68.2222C121.051 66.6724 121.512 64.9667 121.596 63.2222C121.617 63.0191 121.595 62.814 121.529 62.6206C121.463 62.4272 121.357 62.2503 121.216 62.1023C121.055 61.9202 120.858 61.7729 120.638 61.6697C120.418 61.5665 120.179 61.5095 119.936 61.5022C119.515 61.5086 119.113 61.6724 118.807 61.9612C118.502 62.25 118.316 62.6429 118.286 63.0623Z" fill="#1E1E1E"/>
<path d="M142.516 70.2321C143.002 70.4136 143.517 70.5018 144.036 70.4921C144.5 70.4895 144.962 70.4393 145.416 70.3422C147.039 70.085 148.497 69.2018 149.476 67.8822C149.921 67.239 150.227 66.5106 150.377 65.7431C150.527 64.9755 150.516 64.1855 150.346 63.4223C150.303 63.2141 150.217 63.0173 150.093 62.8449C149.969 62.6725 149.81 62.5285 149.626 62.4223C149.338 62.2414 149.003 62.1523 148.663 62.1671C148.324 62.182 147.997 62.2999 147.727 62.5053C147.456 62.7106 147.255 62.9937 147.149 63.3165C147.044 63.6394 147.039 63.9866 147.136 64.3121C147.132 64.3421 147.132 64.3723 147.136 64.4022C147.136 64.4722 147.136 64.5522 147.136 64.6222C147.136 64.6922 147.136 64.8122 147.136 64.9122V65.0621C147.084 65.4013 146.947 65.7215 146.736 65.9921V66.0822L146.496 66.3322L146.376 66.462L146.186 66.5822C145.801 66.8105 145.377 66.9663 144.936 67.0421C144.544 67.1653 144.128 67.186 143.726 67.1022L143.546 67.0121L143.346 66.8522L143.106 66.6022C142.819 66.305 142.577 65.9682 142.386 65.6022C142.314 65.5116 142.269 65.4023 142.256 65.2872C142.244 65.1721 142.265 65.0559 142.316 64.952C142.389 64.7596 142.42 64.5539 142.406 64.3485C142.392 64.1431 142.334 63.943 142.236 63.7621C142.13 63.5459 141.98 63.3543 141.796 63.1994C141.612 63.0444 141.397 62.9295 141.166 62.8622C140.754 62.7629 140.32 62.8219 139.949 63.0275C139.579 63.2331 139.299 63.57 139.166 63.9721C138.456 65.8121 139.586 67.6522 140.666 68.8622C141.172 69.4521 141.804 69.9202 142.516 70.2321Z" fill="#1E1E1E"/>
<path d="M131.586 89.7523H132.086C133.307 89.7478 134.515 89.4966 135.638 89.0137C136.76 88.5309 137.773 87.8262 138.616 86.9422C139.444 86.081 140.071 85.047 140.451 83.9144C140.832 82.7817 140.956 81.5789 140.816 80.3924C140.79 80.1556 140.722 79.9252 140.616 79.7122C140.591 79.309 140.421 78.9288 140.136 78.6424C139.822 78.3574 139.409 78.2064 138.986 78.2222C134.216 78.3622 129.366 78.3224 124.586 78.1124C124.319 78.0859 124.05 78.1334 123.808 78.2498C123.566 78.3662 123.362 78.547 123.216 78.7723C123.054 78.9481 122.932 79.156 122.856 79.3824C122.076 81.6924 123.366 84.6523 125.006 86.5623C125.833 87.508 126.841 88.2777 127.972 88.8257C129.102 89.3737 130.331 89.6888 131.586 89.7523ZM137.516 81.6023C137.424 82.8311 136.891 83.9853 136.016 84.8523C135.471 85.3892 134.822 85.8069 134.107 86.0789C133.393 86.3509 132.629 86.4714 131.866 86.4324C131.047 86.4114 130.242 86.2232 129.499 85.8792C128.756 85.5352 128.091 85.0429 127.546 84.4324C126.797 83.602 126.273 82.593 126.026 81.5023C129.826 81.6623 133.686 81.6823 137.516 81.6023Z" fill="#1E1E1E"/>
<path d="M267.756 151.783C268.328 152.772 268.739 153.845 268.976 154.962C269.266 155.712 269.536 156.472 269.766 157.232C270.326 159.072 273.216 158.293 272.656 156.433C271.577 152.819 269.811 149.447 267.456 146.502C266.328 145.053 264.823 143.943 263.106 143.292C261.236 142.592 259.266 142.113 257.356 141.553C255.446 140.993 254.706 143.892 256.556 144.442C258.406 144.992 260.086 145.443 261.826 146.013C263.23 146.512 264.453 147.421 265.336 148.622C265.596 148.942 265.826 149.302 266.066 149.622C266.718 150.269 267.285 150.995 267.756 151.783Z" fill="#1E1E1E"/>
<path d="M267.756 151.782C267.284 151.001 266.716 150.282 266.066 149.642C267.242 151.295 268.219 153.08 268.976 154.962C268.739 153.844 268.328 152.772 267.756 151.782Z" fill="#1E1E1E"/>
<path d="M156.056 11.1423C154.746 9.71225 152.636 11.8421 153.936 13.2621C157.789 17.4647 160.571 22.5349 162.046 28.0422C162.178 28.3958 162.437 28.6873 162.774 28.8591C163.11 29.0308 163.498 29.0703 163.862 28.9699C164.226 28.8695 164.539 28.6364 164.74 28.3166C164.94 27.9968 165.014 27.6134 164.946 27.2421C163.316 21.2402 160.267 15.7184 156.056 11.1423Z" fill="#1E1E1E"/>
<path d="M57.7559 95.6724C57.1284 95.3667 56.4508 95.1769 55.7559 95.1123C55.358 95.1123 54.9765 95.2702 54.6952 95.5515C54.4139 95.8328 54.2559 96.2145 54.2559 96.6123C54.2675 96.99 54.4194 97.3498 54.6819 97.6216C54.9444 97.8934 55.2987 98.0576 55.6758 98.0823C55.6758 98.0823 55.6158 98.0823 55.6758 98.0823H55.8958L56.2958 98.2021L56.4358 98.2722C56.568 98.3394 56.695 98.4162 56.8158 98.5022L56.9558 98.6023H56.8958C57.0058 98.7023 57.1058 98.8024 57.2058 98.9124C57.2305 98.9312 57.2509 98.9549 57.2657 98.9822C57.2657 98.9222 57.2057 98.8822 57.2657 98.9822C57.343 99.0943 57.4133 99.2113 57.4758 99.3323C57.4796 99.3688 57.4796 99.4056 57.4758 99.4421C57.5284 99.5893 57.5718 99.7398 57.6058 99.8923C57.6086 99.9456 57.6086 99.9989 57.6058 100.052C57.6158 100.212 57.6158 100.372 57.6058 100.532C57.6058 100.532 57.6058 100.632 57.6058 100.682C57.6058 100.832 57.5358 100.982 57.4858 101.142C57.4884 101.186 57.4884 101.229 57.4858 101.272C57.4058 101.412 57.3358 101.562 57.2358 101.712C57.0385 102.056 56.9845 102.464 57.0856 102.848C57.1866 103.232 57.4345 103.56 57.7758 103.762C58.1211 103.954 58.5273 104.005 58.9094 103.905C59.2915 103.804 59.62 103.559 59.8258 103.222C60.4253 102.285 60.7123 101.183 60.6458 100.072C60.4404 99.5531 60.1999 99.0486 59.9258 98.5623C59.2921 97.5348 58.5658 96.5675 57.7559 95.6724Z" fill="#1E1E1E"/>
<path d="M58.2657 95.9722C58.1038 95.859 57.9334 95.7589 57.7559 95.6724C58.5748 96.6019 59.3046 97.6063 59.9358 98.6724C60.2099 99.1587 60.4504 99.6632 60.6558 100.182C60.6306 99.3417 60.3995 98.5201 59.9828 97.7896C59.5661 97.059 58.9765 96.4418 58.2657 95.9922V95.9722Z" fill="#1E1E1E"/>
<path d="M56.8358 98.6223C56.7558 98.5523 56.6258 98.4923 56.8358 98.6223V98.6223Z" fill="#1E1E1E"/>
<path d="M147.686 222.902C145.465 223.149 143.222 223.125 141.006 222.832C138.764 222.633 136.541 222.262 134.356 221.722C133.506 221.573 132.708 221.211 132.035 220.671C131.362 220.131 130.836 219.429 130.506 218.632C129.746 216.632 130.006 214.422 130.196 212.352C130.196 211.954 130.038 211.573 129.757 211.292C129.475 211.01 129.094 210.852 128.696 210.852C128.301 210.862 127.926 211.024 127.646 211.303C127.367 211.582 127.206 211.958 127.196 212.352C126.976 214.752 126.786 217.272 127.666 219.562C128.051 220.624 128.663 221.589 129.46 222.39C130.256 223.192 131.217 223.81 132.276 224.202C134.683 224.982 137.173 225.475 139.696 225.672C142.341 226.094 145.03 226.171 147.696 225.902C148.09 225.89 148.464 225.728 148.743 225.449C149.021 225.17 149.183 224.796 149.196 224.402C149.196 223.672 148.496 222.792 147.686 222.902Z" fill="#1E1E1E"/>
<path d="M163.196 116.062C163.094 116.44 163.142 116.842 163.328 117.186C163.514 117.53 163.824 117.79 164.196 117.912C168.852 119.73 173.348 121.934 177.636 124.502C177.978 124.686 178.378 124.729 178.752 124.623C179.126 124.518 179.444 124.271 179.64 123.935C179.835 123.6 179.893 123.201 179.801 122.824C179.709 122.447 179.474 122.12 179.146 121.912C174.632 119.22 169.899 116.915 164.996 115.022C164.62 114.93 164.222 114.986 163.886 115.18C163.551 115.374 163.303 115.69 163.196 116.062Z" fill="#00A99D"/>
<path d="M19.0257 141.962L16.0858 141.732C15.687 141.675 15.2816 141.777 14.9577 142.017C14.6338 142.257 14.4175 142.615 14.3558 143.013C14.2171 145.186 14.8708 147.335 16.1958 149.062C17.3958 150.612 19.8758 148.843 18.6758 147.283C18.114 146.569 17.7178 145.738 17.5157 144.853L19.7058 145.022C20.8258 145.112 22.0757 145.342 23.0457 144.612C24.0157 143.882 23.8457 142.393 23.6557 141.203C23.5657 140.613 23.4758 140.012 23.3758 139.422C24.9803 139.831 26.6158 140.105 28.2657 140.243C28.5279 140.276 28.7944 140.242 29.0398 140.144C29.2851 140.045 29.5012 139.886 29.6676 139.681C29.8339 139.475 29.945 139.231 29.9902 138.97C30.0354 138.71 30.0132 138.442 29.9258 138.192C29.4876 136.728 29.2224 135.218 29.1357 133.692C30.8083 134.547 32.5686 135.217 34.3857 135.692C34.6171 135.725 34.8531 135.705 35.0757 135.634C35.2982 135.562 35.5015 135.441 35.6701 135.279C35.8388 135.117 35.9684 134.919 36.049 134.699C36.1297 134.48 36.1593 134.245 36.1357 134.013C35.9117 132.776 35.8213 131.519 35.8658 130.263C36.3541 130.504 36.8587 130.711 37.3758 130.882C38.5458 131.252 40.3758 131.943 41.3758 130.783C42.3758 129.623 41.6558 127.782 41.5058 126.542C41.4358 125.912 41.3557 125.282 41.2757 124.652L43.7657 125.652C45.5857 126.362 46.8358 123.582 45.0058 122.862L40.0858 120.953C39.8411 120.848 39.5734 120.808 39.3089 120.838C39.0444 120.867 38.7921 120.965 38.5765 121.121C38.361 121.277 38.1896 121.486 38.0791 121.729C37.9685 121.971 37.9226 122.237 37.9458 122.502C38.1758 124.362 38.5158 126.272 38.6858 128.152C37.5524 127.818 36.4839 127.294 35.5257 126.603C35.3167 126.435 35.0677 126.325 34.8032 126.284C34.5387 126.242 34.2678 126.27 34.0174 126.365C33.767 126.46 33.5457 126.618 33.3753 126.825C33.2049 127.031 33.0913 127.279 33.0457 127.542C32.8028 129.036 32.7291 130.552 32.8258 132.062C31.3353 131.511 29.91 130.796 28.5758 129.933C27.7058 129.373 26.1858 129.602 26.1058 130.882C25.9694 132.927 26.1005 134.982 26.4958 136.993C25.0102 136.783 23.545 136.449 22.1158 135.993C21.8711 135.888 21.6035 135.848 21.339 135.878C21.0745 135.907 20.8221 136.005 20.6065 136.161C20.391 136.317 20.2197 136.526 20.1091 136.769C19.9986 137.011 19.9526 137.277 19.9758 137.542C20.1358 138.542 20.2858 139.542 20.4458 140.542C20.5158 140.982 20.6957 141.603 20.7757 142.163H20.5157L19.0257 141.962Z" fill="#00A99D"/>
<path d="M24.6058 228.832L2.49585 228.542C2.09802 228.542 1.71649 228.7 1.43518 228.982C1.15388 229.263 0.99585 229.644 0.99585 230.042C0.99585 230.44 1.15388 230.821 1.43518 231.103C1.71649 231.384 2.09802 231.542 2.49585 231.542L24.6058 231.832C25.0037 231.832 25.3852 231.674 25.6665 231.393C25.9478 231.112 26.1058 230.73 26.1058 230.332C26.1058 229.934 25.9478 229.553 25.6665 229.272C25.3852 228.99 25.0037 228.832 24.6058 228.832Z" fill="#1E1E1E"/>
<path d="M309.966 228.782C309.223 228.567 308.446 228.496 307.676 228.572C307.192 228.597 306.708 228.537 306.246 228.392C297.056 228.142 287.886 228.602 278.696 228.612C273.36 228.681 268.028 228.303 262.756 227.482C260.866 227.162 260.056 230.052 261.956 230.372C271.346 231.972 280.846 231.632 290.316 231.372C296.186 231.222 302.036 231.372 307.896 231.492C308.712 231.258 309.487 230.9 310.196 230.432C310.016 229.902 309.937 229.342 309.966 228.782Z" fill="#1E1E1E"/>
<g clip-path="url(#clip0)">
<path d="M209.716 201.619C210.45 198.713 211.298 195.789 211.918 192.883C212.582 189.78 210.263 189.369 207.216 189.288C199.524 189.082 191.741 189.226 183.869 189.72C183.135 189.752 182.425 189.987 181.814 190.401C181.203 190.815 180.717 191.392 180.407 192.067C180.143 192.389 179.946 192.76 179.826 193.16C178.991 195.958 178.315 198.802 177.8 201.679C177.572 202.986 177.385 204.29 177.229 205.59C177.073 206.89 176.706 208.271 177.617 209.199C178.527 210.126 179.978 210.003 181.425 209.993L186.846 209.958L196.917 209.887L201.566 209.859C202.975 209.859 204.571 210.032 206.008 209.388C209.096 208.004 209.155 203.906 209.716 201.619Z" fill="#FBB03B"/>
<path d="M186.808 186.297C186.92 185.948 187.102 185.626 187.345 185.353C187.587 185.08 187.883 184.862 188.214 184.713C189.073 184.279 190.024 184.067 190.983 184.094C192.922 184.094 193.804 184.663 193.628 185.802C193.504 186.593 193.362 187.482 193.192 188.476C193.022 189.471 192.846 190.518 192.645 191.639C192.444 192.76 192.226 193.898 191.987 195.086C191.748 196.274 191.506 197.437 191.264 198.6C191.021 199.764 190.783 200.856 190.544 201.921C190.305 202.986 190.066 203.963 189.831 204.845C189.713 205.294 189.501 205.712 189.208 206.069C188.915 206.426 188.548 206.713 188.134 206.911C187.029 207.42 185.822 207.66 184.61 207.614C184.092 207.659 183.574 207.517 183.149 207.213C182.994 207.068 182.887 206.878 182.841 206.669C182.795 206.46 182.813 206.242 182.893 206.043C183.567 203.506 184.129 201.132 184.579 198.92C185.029 196.709 185.403 194.738 185.7 193.009C185.998 191.28 186.229 189.843 186.393 188.698C186.49 187.891 186.629 187.09 186.808 186.297Z" fill="#1E1E1E"/>
<path d="M201.147 186.297C201.26 185.948 201.443 185.626 201.686 185.353C201.929 185.08 202.225 184.862 202.557 184.713C203.416 184.278 204.367 184.066 205.326 184.094C207.265 184.094 208.147 184.663 207.974 185.802C207.85 186.593 207.704 187.482 207.538 188.476C207.372 189.471 207.192 190.518 206.988 191.639C206.784 192.76 206.569 193.898 206.33 195.086C206.091 196.274 205.852 197.437 205.61 198.6C205.368 199.763 205.129 200.856 204.89 201.921C204.651 202.986 204.412 203.963 204.177 204.845C204.059 205.294 203.846 205.711 203.553 206.068C203.26 206.425 202.894 206.713 202.48 206.911C201.374 207.42 200.166 207.661 198.953 207.614C198.434 207.658 197.917 207.516 197.492 207.213C197.338 207.067 197.231 206.877 197.186 206.668C197.141 206.459 197.159 206.241 197.239 206.043C197.913 203.506 198.475 201.132 198.925 198.92C199.375 196.708 199.748 194.738 200.043 193.009C200.341 191.28 200.572 189.843 200.736 188.698C200.899 187.552 201.037 186.752 201.147 186.297Z" fill="#1E1E1E"/>
<path d="M192.87 179.487C192.276 179.645 191.662 179.71 191.049 179.68C190.537 179.664 190.034 179.537 189.574 179.308C189.175 179.104 188.833 178.801 188.581 178.426C188.325 178.031 188.194 177.566 188.203 177.094C188.212 176.64 188.314 176.192 188.505 175.781C188.695 175.37 188.969 175.004 189.308 174.708C190.15 173.931 191.179 173.395 192.292 173.155C192.837 173.011 193.404 172.968 193.964 173.028C194.462 173.08 194.946 173.226 195.39 173.46C195.791 173.677 196.132 173.991 196.384 174.374C196.632 174.755 196.764 175.203 196.761 175.66C196.762 176.104 196.67 176.544 196.491 176.949C196.312 177.354 196.05 177.716 195.723 178.011C194.917 178.75 193.933 179.259 192.87 179.487Z" fill="#1E1E1E"/>
<path d="M206.995 180.963C206.42 180.971 205.849 180.879 205.305 180.689C204.845 180.536 204.428 180.272 204.09 179.919C203.78 179.592 203.558 179.189 203.446 178.749C203.33 178.264 203.343 177.755 203.484 177.277C203.737 176.357 204.334 175.575 205.146 175.094C206.085 174.52 207.166 174.231 208.262 174.262C208.788 174.255 209.31 174.358 209.795 174.564C210.234 174.75 210.628 175.029 210.952 175.383C211.265 175.732 211.486 176.156 211.593 176.616C211.699 177.076 211.688 177.557 211.561 178.011C211.328 178.915 210.756 179.692 209.968 180.176C209.072 180.722 208.04 180.995 206.995 180.963Z" fill="#1E1E1E"/>
</g>
<defs>
<clipPath id="clip0">
<rect width="35" height="37" fill="white" transform="translate(177.046 173)"/>
</clipPath>
</defs>
</svg>
