<svg width="136" height="48" viewBox="0 0 136 48" fill="none" xmlns="http://www.w3.org/2000/svg">
<path d="M131.245 36.1294C131.245 36.1294 131.354 36.0185 131.464 36.0185C132.339 35.5748 133.324 35.131 134.2 34.5763C134.747 34.2435 135.513 34.4654 135.842 35.02C136.17 35.5747 135.951 36.3513 135.404 36.6841C134.419 37.2388 133.434 37.6826 132.558 38.1264C132.011 38.4592 131.245 38.1264 131.026 37.5717C130.588 37.1279 130.807 36.4623 131.245 36.1294Z" fill="#1E1E1E"/>
<path d="M119.863 40.0124C119.973 39.9015 120.191 39.7905 120.301 39.7905C122.161 39.4577 124.022 38.903 125.992 38.2374C126.648 38.0155 127.305 38.3483 127.524 39.014C127.743 39.6796 127.415 40.3452 126.758 40.5671C124.788 41.2328 122.709 41.7875 120.739 42.2312C120.082 42.3422 119.425 41.8984 119.316 41.2328C119.316 40.789 119.425 40.3452 119.863 40.0124Z" fill="#1E1E1E"/>
<path d="M85.3891 5.62092C85.9363 5.28811 86.5929 5.39904 87.0307 5.8428C87.4684 6.3975 87.359 7.06314 86.9212 7.50689C85.6079 8.72723 84.623 10.1695 84.1852 12.0554C83.9663 12.7211 83.4191 13.0539 82.7625 12.9429C82.1058 12.7211 81.7775 12.1664 81.8869 11.5007C82.3247 9.17099 83.5286 7.17408 85.3891 5.62092C85.2796 5.73186 85.3891 5.62092 85.3891 5.62092ZM90.7517 3.06931C90.8611 2.95837 91.08 2.84743 91.1895 2.84743C93.2688 2.40368 95.4577 2.51462 97.6465 2.95838C98.3031 3.06932 98.7409 3.73496 98.522 4.4006C98.4126 5.06624 97.7559 5.50998 97.0993 5.2881C95.2388 4.84434 93.3783 4.84435 91.5178 5.17717C90.8611 5.28811 90.2045 4.84434 90.095 4.17871C90.2045 3.84589 90.4234 3.40213 90.7517 3.06931ZM58.3571 30.2495C58.6854 30.0276 59.1232 29.9167 59.4515 30.1386L60.6553 30.5823C62.0781 31.137 63.6102 31.8027 65.033 32.3574C65.6896 32.5792 65.9085 33.2449 65.6896 33.9105C65.4707 34.5762 64.8141 34.798 64.1575 34.5762C62.6253 34.0215 61.0931 33.3558 59.6704 32.8011L58.4665 32.3574C57.8099 32.1355 57.591 31.3589 57.8099 30.8042C58.0287 30.5823 58.1382 30.3604 58.3571 30.2495ZM81.9964 16.8258C82.1058 16.7149 82.3247 16.604 82.4342 16.604C83.0908 16.493 83.638 16.9368 83.8569 17.6024C84.1852 19.3774 84.8419 21.1525 85.7174 22.9275C86.0457 23.4822 85.8268 24.2588 85.2796 24.5916C84.7324 24.9244 83.9663 24.7025 83.638 24.1478C82.5436 22.1509 81.7775 20.0431 81.4492 18.0462C81.4492 17.6024 81.6681 17.1586 81.9964 16.8258ZM102.352 5.73187C102.79 5.39905 103.337 5.39905 103.775 5.73187C104.979 6.61939 106.073 7.61785 106.949 8.83818L107.058 8.94911C107.496 9.61475 107.825 10.2804 108.153 10.946C108.372 11.6117 108.043 12.2773 107.387 12.4992C106.73 12.7211 106.073 12.3882 105.855 11.7226C105.636 11.2788 105.417 10.7241 105.088 10.2804L104.979 10.1695C104.322 9.171 103.447 8.28348 102.352 7.61784C101.805 7.28502 101.696 6.50844 102.024 5.95375C102.134 5.84281 102.243 5.73187 102.352 5.73187ZM69.739 34.2433C69.9578 34.0215 70.2862 34.0215 70.6145 34.0215C72.5844 34.4652 74.4449 34.5762 76.4149 34.5762C77.0715 34.5762 77.6187 35.1308 77.6187 35.7965C77.6187 36.4621 77.0715 37.0168 76.4149 37.0168C74.3355 37.0168 72.2561 36.7949 70.1767 36.3512C69.5201 36.2402 69.0823 35.5746 69.3012 34.909C69.3012 34.6871 69.5201 34.4652 69.739 34.2433ZM87.4684 27.587C87.9062 27.2541 88.6723 27.2541 89.0006 27.8088C90.2045 29.2511 91.6272 30.5823 93.1594 31.9136C93.7066 32.3574 93.7066 33.1339 93.2688 33.5777C92.8311 34.1324 92.065 34.1324 91.6272 33.6886C89.9856 32.2464 88.4534 30.8042 87.1401 29.2511C86.9212 28.8073 86.9212 28.1417 87.4684 27.587ZM105.307 16.1602C105.636 15.9383 106.183 15.8274 106.621 16.0493C107.168 16.3821 107.387 17.0477 107.058 17.7133C106.073 19.5993 104.541 21.3743 103.228 22.8166C102.79 23.2603 102.024 23.3713 101.586 22.9275C101.149 22.4837 101.039 21.7072 101.477 21.2634C102.681 19.9321 104.104 18.268 104.979 16.604C105.088 16.493 105.198 16.2711 105.307 16.1602ZM81.7775 34.2433C81.8869 34.1324 81.9964 34.1324 82.2153 34.0215C83.638 33.6886 84.9513 33.2449 86.2646 32.8011C86.7024 32.5792 87.2496 32.3574 87.6873 32.2464C88.2345 32.0245 89.0006 32.2464 89.2195 32.8011C89.4384 33.3558 89.2195 34.1324 88.6723 34.3543C88.1251 34.5762 87.6873 34.798 87.1401 35.0199C85.7174 35.5746 84.1852 36.0184 82.653 36.3512C81.9964 36.4621 81.3397 36.1293 81.2303 35.4637C81.1209 35.0199 81.3397 34.4652 81.7775 34.2433ZM97.4276 25.4791C97.8654 25.1463 98.522 25.1463 98.9598 25.59C99.3975 26.0338 99.3975 26.8104 98.8503 27.2541C97.3182 28.6964 95.6765 30.0276 94.0349 31.248C93.4877 31.5808 92.7216 31.4698 92.3933 30.9151C92.065 30.3605 92.1744 29.5839 92.7216 29.2511C94.2538 28.1417 95.786 26.9213 97.3182 25.4791H97.4276ZM96.6615 35.4637C96.9898 35.2418 97.537 35.1309 97.9748 35.4637C99.507 36.4621 100.93 37.2387 102.462 38.0153C102.681 38.1262 102.9 38.2372 103.119 38.3481C103.666 38.57 103.994 39.3466 103.775 39.9013C103.556 40.456 102.79 40.7888 102.243 40.5669C102.024 40.456 101.696 40.345 101.477 40.2341C99.9448 39.4575 98.3031 38.57 96.771 37.5715C96.2237 37.2387 96.0049 36.4621 96.4426 35.9074C96.4426 35.6856 96.5521 35.5746 96.6615 35.4637ZM107.825 40.2341C108.043 40.0122 108.372 40.0122 108.7 40.0122C110.561 40.345 112.53 40.5669 114.5 40.456C115.157 40.456 115.704 41.0107 115.704 41.6763C115.704 42.3419 115.157 42.8966 114.5 42.8966C112.312 42.8966 110.232 42.7857 108.262 42.3419C107.606 42.231 107.168 41.5653 107.277 40.8997C107.387 40.6778 107.606 40.345 107.825 40.2341Z" fill="#1E1E1E"/>
<path d="M49.6018 27.2541C49.8207 27.0322 50.2585 27.0322 50.5868 27.0322C51.5718 27.2541 52.6662 27.5869 53.7606 27.9197C54.4172 28.1416 54.7456 28.8073 54.5267 29.4729C54.3078 30.1385 53.6511 30.4713 52.9945 30.2495C52.0095 29.9166 51.0246 29.6948 50.0396 29.4729C49.3829 29.362 49.0546 28.6963 49.164 28.0307C49.164 27.5869 49.2735 27.365 49.6018 27.2541Z" fill="#1E1E1E"/>
<path d="M41.6127 33.245C41.5032 28.6965 41.2843 24.2589 40.956 19.8213C40.8466 18.7119 40.8466 17.6025 40.8466 16.4931C40.8466 15.7165 41.0655 14.94 40.5182 14.3853C39.4238 13.1649 36.5784 13.9415 35.2651 14.1634C35.0462 14.1634 34.8273 14.3853 34.7179 14.4962C34.499 14.7181 34.2801 14.94 34.2801 15.3837C33.9518 22.7057 34.8273 30.1387 35.0462 37.4607C31.5441 37.6826 27.6042 37.5716 24.4304 39.1248C24.1021 39.2357 23.8832 39.6795 23.8832 40.1233C23.9926 41.1217 24.2115 42.1202 24.4304 43.2296C24.5398 43.6733 24.9776 44.1171 25.5248 44.0061C30.0119 43.4514 34.3895 43.1186 38.8766 43.0077C39.6427 43.0077 40.7371 43.1186 41.2843 42.5639C41.8315 42.0092 41.7221 41.1217 41.7221 40.4561C41.7221 37.9045 41.7221 35.5747 41.6127 33.245Z" fill="#FBB03B"/>
<path d="M25.0869 3.51318C22.132 3.73506 19.0677 3.95693 16.1127 4.17881C13.9239 4.28975 11.8445 4.51164 9.65571 4.62258C9.32739 4.62258 8.88962 4.62258 8.5613 4.62258C8.12353 4.62258 7.57633 4.62258 7.13856 4.62258C6.37247 4.62258 6.04415 5.28821 6.15359 5.8429C5.82527 6.50854 5.82527 7.28513 5.71582 7.95077C5.60638 8.94922 5.49694 9.94768 5.3875 10.9461C5.27806 13.054 5.27806 15.1618 5.3875 17.2697C5.60638 21.7073 5.93471 26.0339 5.93471 30.4715C5.93471 30.8043 6.04415 31.1371 6.26303 31.2481C6.26303 31.8028 6.7008 32.4684 7.35744 32.3575C8.78018 32.2465 10.0935 32.1356 11.5162 32.0247C12.0634 32.0247 12.6106 31.5809 12.6106 30.9153C12.6106 30.4715 12.2823 30.0277 11.8445 29.9168C12.1729 25.812 12.0634 21.7073 11.954 17.7135C12.0634 17.6025 12.0634 17.3806 12.0634 17.1588C11.954 14.3853 11.7351 11.6118 11.4068 8.94922C11.4068 8.50546 11.4068 8.17265 11.5162 7.72889C12.8295 7.61795 14.1428 7.61794 15.4561 7.61794C18.6299 7.507 21.6943 7.39606 24.868 7.28512C25.4153 7.28512 25.7436 6.95231 25.9625 6.50855C26.0719 6.06479 26.0719 5.73197 26.0719 5.39915C26.4002 4.62258 26.1813 3.51318 25.0869 3.51318Z" fill="#FBB03B"/>
<path d="M19.2867 23.926C19.1773 23.4822 18.8489 23.0385 18.5206 22.8166C18.4112 22.7057 18.3017 22.7057 18.1923 22.7057C18.0829 22.7057 17.864 22.7057 17.7545 22.5947C17.4262 22.5947 17.2073 22.5947 16.9884 22.7057L16.879 22.8166C16.7696 22.8166 16.6601 22.9275 16.5507 23.0385C16.3318 23.2604 16.1129 23.5932 16.0035 24.0369C15.894 24.3698 15.894 24.8135 16.0035 25.1463C16.0035 25.2573 16.1129 25.4792 16.2224 25.5901C16.3318 25.701 16.3318 25.812 16.4412 25.9229C16.6601 26.1448 16.7696 26.1448 16.9884 26.2557C17.4262 26.3667 17.9734 26.3667 18.3017 26.0339C18.6301 25.812 18.8489 25.5901 19.0678 25.2573C19.2867 24.9245 19.3961 24.3698 19.2867 23.926Z" fill="#FBB03B"/>
<path d="M18.63 18.157C18.5205 17.7132 18.1922 17.2694 17.8639 17.0476C17.7544 16.9366 17.645 16.9366 17.5356 16.9366C17.4261 16.9366 17.2072 16.9366 17.0978 16.8257C16.7695 16.8257 16.5506 16.8257 16.3317 16.9366L16.2223 17.0476C16.1128 17.0476 16.0034 17.1585 15.8939 17.2694C15.6751 17.4913 15.4562 17.8241 15.3467 18.2679C15.2373 18.6007 15.2373 19.0445 15.3467 19.3773C15.3467 19.4882 15.4562 19.7101 15.5656 19.821C15.6751 19.932 15.6751 20.0429 15.7845 20.1539C16.0034 20.3758 16.1128 20.3758 16.3317 20.4867C16.7695 20.5976 17.3167 20.5976 17.645 20.2648C17.9733 20.0429 18.1922 19.821 18.4111 19.4882C18.7394 19.0445 18.8489 18.6007 18.63 18.157Z" fill="#FBB03B"/>
<path d="M17.9732 12.3884C17.8638 11.9446 17.5355 11.5009 17.2071 11.279C17.0977 11.1681 16.9883 11.1681 16.8788 11.1681C16.7694 11.1681 16.5505 11.1681 16.4411 11.0571C16.1127 11.0571 15.8938 11.0571 15.675 11.1681L15.5655 11.279C15.4561 11.279 15.3466 11.3899 15.2372 11.5009C15.0183 11.7228 14.7994 12.0556 14.69 12.4993C14.5805 12.8321 14.5805 13.2759 14.69 13.6087C14.69 13.7197 14.7994 13.9416 14.9089 14.0525C15.0183 14.1634 15.0183 14.2744 15.1278 14.3853C15.3466 14.6072 15.4561 14.6072 15.675 14.7181C16.1127 14.8291 16.6599 14.8291 16.9883 14.4962C17.3166 14.2744 17.5355 14.0525 17.7543 13.7197C18.0827 13.2759 18.1921 12.8322 17.9732 12.3884Z" fill="#FBB03B"/>
<path d="M35.484 37.0169C35.0462 27.2542 34.8273 17.4915 34.499 7.72884C34.499 7.0632 33.9518 6.61944 33.4046 6.61944C33.1857 6.39756 32.9668 6.28662 32.6385 6.28662C25.4154 6.73038 18.0828 6.95226 10.7502 7.06319C9.65582 7.06319 9.43694 8.39447 9.98414 8.94916C11.0786 18.6009 11.7352 28.3636 11.8446 38.1263C11.8446 38.4591 12.0635 38.7919 12.2824 39.0138C12.3919 39.2357 12.6107 39.4576 12.9391 39.5685C20.0527 40.7888 27.1664 39.0138 34.2801 38.7919C34.499 38.7919 34.7179 38.7919 34.9368 38.681C35.0462 38.681 35.1556 38.57 35.1556 38.57C35.7028 38.1263 35.8123 37.4606 35.484 37.0169ZM14.1429 37.3497C14.0335 27.9198 13.3768 18.6009 12.2824 9.17104C18.9583 9.0601 25.7437 8.83823 32.4196 8.50541C32.6385 17.8243 32.9668 27.1433 33.2951 36.4622C26.9475 36.795 20.4905 38.3482 14.1429 37.3497Z" fill="#1E1E1E"/>
<path d="M42.4882 14.1631C42.4882 14.0522 42.4882 13.9413 42.3787 13.8303V13.7194C42.2693 13.3865 42.0504 13.0537 41.6126 12.9428C40.1899 12.61 38.7672 12.499 37.3444 12.499C36.7972 12.499 36.25 12.9428 36.25 13.6084C36.25 14.1631 36.6878 14.7178 37.3444 14.7178C38.0011 14.7178 38.6577 14.7178 39.3144 14.7178C39.5333 14.7178 39.6427 14.7178 39.8616 14.7178C39.971 14.7178 39.971 14.7178 40.0805 14.7178C40.1899 14.7178 40.2994 14.7178 40.4088 14.8288C40.4088 15.3835 40.5182 15.9382 40.5182 16.4929C39.3144 16.7147 39.3144 18.6007 40.6277 18.7116C40.6277 19.5992 40.7371 20.4867 40.7371 21.3742C39.3144 21.3742 39.4238 23.593 40.7371 23.593C40.7371 24.4805 40.8466 25.368 40.8466 26.2555H40.7371C39.3144 26.2555 39.3144 28.4743 40.7371 28.4743H40.8466C40.8466 29.4728 40.8466 30.5822 40.8466 31.5806C40.7371 31.5806 40.7371 31.5806 40.7371 31.5806C39.3144 31.5806 39.3144 33.7994 40.7371 33.7994C40.7371 33.7994 40.7371 33.7994 40.8466 33.7994C40.8466 34.7979 40.7371 35.6854 40.7371 36.6839C39.5333 36.7948 39.5333 38.5698 40.6277 38.7917C40.6277 39.4574 40.5182 40.0121 40.5182 40.6777C40.5182 40.7886 40.5182 40.7886 40.5182 40.7886C40.5182 41.2324 40.5182 41.7871 40.4088 41.898C40.5182 42.009 40.5182 42.009 40.2994 42.009C40.0805 42.009 39.8616 42.1199 39.6427 42.1199C38.7672 42.2308 37.8916 42.3418 36.9067 42.4527C35.1556 42.6746 33.2951 42.8965 31.4346 43.0074C29.5741 43.1183 27.823 43.2293 25.9625 43.3402C25.087 43.3402 24.102 43.3402 23.2265 43.4512C22.7888 43.5621 22.8982 43.6731 22.7888 43.2293C22.6793 42.6746 22.6793 42.2308 22.5699 41.7871C22.4604 40.3449 20.2716 40.3449 20.381 41.7871C20.4905 42.7855 20.4905 44.2277 21.0377 45.0043C21.6943 45.8918 22.7888 45.7809 23.6643 45.67C26.1814 45.559 28.6986 45.4481 31.2157 45.2262C33.6234 45.0043 36.1406 44.7824 38.5483 44.4496C39.5333 44.3387 41.0654 44.4496 41.7221 43.6731C42.4882 42.8965 42.2693 41.4543 42.3787 40.4558C42.3787 40.4558 42.3787 40.4558 42.3787 40.3449C43.3637 31.6916 43.3637 22.9273 42.4882 14.1631Z" fill="#1E1E1E"/>
<path d="M25.7436 0.739602C25.087 -0.147914 23.9926 -0.0369816 23.117 0.073958C20.5999 0.184898 18.0827 0.295847 15.5656 0.517726C13.1579 0.739606 10.6407 0.961481 8.23303 1.2943C7.24806 1.40524 5.71588 1.2943 5.05924 2.07087C4.84035 2.29275 4.73091 2.51464 4.62147 2.73652C4.51203 2.9584 4.51203 3.2912 4.40259 3.62402C4.40259 5.50999 4.40259 7.39597 4.51203 9.171C4.51203 9.61476 4.51203 10.0585 4.51203 10.5023C4.51203 17.0477 4.51203 23.7041 4.40259 30.1386C4.40259 30.5824 4.51203 31.1371 4.51203 31.5808C4.51203 31.6918 4.51203 31.8027 4.62147 31.9136V32.0246C4.73091 32.3574 4.94979 32.6902 5.38756 32.8011C6.8103 33.134 8.23303 33.2449 9.65577 33.2449C10.203 33.2449 10.7502 32.8011 10.7502 32.1355C10.7502 31.5808 10.3124 31.0261 9.65577 31.0261C8.99912 31.0261 8.34247 31.0261 7.68583 31.0261C7.46694 31.0261 7.3575 31.0261 7.13862 31.0261C7.02918 29.6948 7.02918 28.4745 6.91974 27.2542C8.23303 27.1432 8.12359 25.1463 6.8103 25.0354V24.9244C6.8103 24.3697 6.8103 23.926 6.8103 23.3713C6.8103 22.9275 6.8103 22.4838 6.8103 21.9291C7.90471 21.7072 7.90471 19.9321 6.8103 19.8212C6.8103 18.6009 6.8103 17.3805 6.8103 16.493C7.90471 16.2711 7.79527 14.6071 6.8103 14.3852C6.8103 13.3867 6.8103 12.3882 6.8103 11.3898C7.90471 11.1679 7.90471 9.50383 6.8103 9.28195C6.8103 8.61631 6.8103 7.95068 6.8103 7.1741C7.79527 6.95222 7.79527 5.28812 6.8103 5.06624C6.8103 4.62248 6.8103 4.17873 6.8103 3.84591C6.48197 3.73497 6.48197 3.73497 6.70085 3.73497C6.91974 3.73497 7.13862 3.62402 7.3575 3.62402C8.23303 3.51308 9.10856 3.40216 10.0935 3.29122C11.8446 3.06934 13.7051 2.84746 15.5656 2.73652C17.4261 2.62558 19.1772 2.51464 21.0377 2.4037C21.9132 2.4037 22.8982 2.40369 23.7737 2.29275C24.2115 2.18181 24.102 2.07087 24.2115 2.51463C24.3209 3.06932 24.3209 3.51309 24.4303 3.95684C24.5398 5.39906 26.7286 5.39906 26.6192 3.95684C26.4003 3.06933 26.4003 1.62712 25.7436 0.739602Z" fill="#1E1E1E"/>
<path d="M17.7544 11.9444V11.8335C17.645 11.6116 17.5355 11.3898 17.3167 11.1679C17.2072 11.0569 17.0978 11.0569 17.0978 10.946C16.9883 10.8351 16.8789 10.8351 16.7695 10.8351C16.66 10.8351 16.4411 10.8351 16.3317 10.7241H16.2223C16.1128 10.7241 16.0034 10.7241 15.7845 10.8351C15.675 10.8351 15.5656 10.946 15.4562 10.946C15.3467 11.0569 15.1278 11.1679 15.0184 11.2788C14.909 11.3898 14.909 11.5007 14.7995 11.5007C14.7995 11.6116 14.6901 11.7226 14.6901 11.8335C14.5806 11.9445 14.5806 12.0554 14.5806 12.1663C14.5806 12.2773 14.4712 12.4992 14.4712 12.6101C14.4712 12.9429 14.5806 13.3867 14.909 13.6085C15.1278 13.8304 15.3467 13.9414 15.5656 14.0523C15.7845 14.0523 16.0034 14.0523 16.1128 14.0523C16.3317 14.0523 16.5506 14.0523 16.66 13.9414C16.7695 13.9414 16.8789 13.8304 17.0978 13.7195C17.2072 13.6085 17.3167 13.6086 17.3167 13.4976C17.5355 13.2757 17.645 13.0538 17.7544 12.832V12.721C17.7544 12.6101 17.7544 12.4991 17.7544 12.2773C17.7544 12.1663 17.7544 12.0554 17.7544 11.9444Z" fill="#1E1E1E"/>
<path d="M17.9733 17.4914C17.9733 17.3804 17.8639 17.2695 17.7544 17.1586C17.645 17.0476 17.5355 16.9367 17.5355 16.8258L17.4261 16.7148C17.3167 16.6039 17.2072 16.4929 17.0978 16.4929C16.9883 16.382 16.8789 16.382 16.66 16.382C16.5506 16.382 16.3317 16.271 16.2223 16.382H16.1128C16.1128 16.382 16.0034 16.382 16.0034 16.2711C15.675 16.1601 15.4562 16.271 15.1278 16.382C14.909 16.4929 14.6901 16.7148 14.5806 17.0476C14.4712 17.3804 14.4712 17.8242 14.4712 18.157C14.4712 18.268 14.4712 18.3789 14.4712 18.4898C14.4712 18.6008 14.4712 18.8227 14.5806 18.9336C14.5806 19.0445 14.6901 19.1555 14.6901 19.3774C14.6901 19.4883 14.7995 19.4883 14.7995 19.5992C14.909 19.7102 15.0184 19.8211 15.2373 19.9321C15.3467 19.9321 15.3467 20.043 15.4562 20.043C15.5656 20.043 15.675 20.1539 15.675 20.1539C16.0034 20.1539 16.2223 20.2649 16.5506 20.1539C16.7695 20.1539 16.8789 20.043 17.0978 19.9321C17.3167 19.7102 17.5355 19.5992 17.645 19.3774C17.645 19.2664 17.7544 19.1555 17.7544 19.1555C17.7544 19.0445 17.8639 18.9336 17.8639 18.8227C17.8639 18.6008 17.9733 18.3789 17.8639 18.157C18.0828 17.9351 18.0828 17.7133 17.9733 17.4914Z" fill="#1E1E1E"/>
<path d="M18.7395 23.9261V23.8152V23.7042C18.7395 23.7042 18.7395 23.7042 18.7395 23.5933C18.7395 23.4824 18.7395 23.2605 18.63 23.1495C18.63 23.0386 18.5206 22.8167 18.5206 22.7058C18.4112 22.5949 18.4112 22.4839 18.3017 22.373C18.0828 22.1511 17.7545 22.0401 17.4262 22.0401C17.3167 22.0401 17.2073 22.0401 16.9884 22.0401C16.879 22.0401 16.7695 21.9292 16.6601 21.9292C16.3318 21.9292 16.1129 22.0401 15.894 22.262C15.6751 22.4839 15.5657 22.5948 15.4562 22.8167C15.3468 23.0386 15.2374 23.2605 15.2374 23.4824C15.2374 23.5933 15.1279 23.8152 15.2374 23.9261C15.2374 24.0371 15.2374 24.148 15.2374 24.2589V24.3699C15.3468 24.7027 15.4562 24.9246 15.6751 25.1465C15.7846 25.2574 15.894 25.3683 16.0035 25.4793C16.1129 25.5902 16.3318 25.5902 16.4412 25.7012C16.5507 25.7012 16.5507 25.7012 16.6601 25.7012C16.7695 25.7012 16.7695 25.7012 16.879 25.7012C16.9884 25.7012 17.0979 25.7012 17.2073 25.7012H17.3167C17.4262 25.7012 17.6451 25.5902 17.7545 25.4793C17.9734 25.3683 18.0828 25.2574 18.1923 25.0355C18.4112 24.8136 18.5206 24.5918 18.5206 24.2589C18.5206 24.2589 18.5206 24.2589 18.5206 24.148C18.63 24.2589 18.63 24.148 18.7395 23.9261Z" fill="#1E1E1E"/>
<path d="M28.9175 10.835C25.9625 10.9459 23.0076 10.9459 19.9433 10.9459C18.5205 10.9459 18.5205 13.1647 19.9433 13.1647C22.8982 13.1647 25.8531 13.1647 28.9175 13.0538C29.4647 13.0538 30.0119 12.61 30.0119 11.9444C30.0119 11.3897 29.5741 10.835 28.9175 10.835Z" fill="#1E1E1E"/>
<path d="M28.9175 15.9385C27.4948 15.9385 26.0721 16.0494 24.7588 16.1604C23.4455 16.3822 22.1322 16.6041 20.8189 16.2713C20.2717 16.1604 19.615 16.4932 19.5056 17.0479C19.3961 17.6026 19.7245 18.2682 20.2717 18.3791C21.6944 18.712 23.2266 18.601 24.6493 18.3791C26.0721 18.1573 27.6042 18.0463 29.027 18.1573C30.3403 18.2682 30.3403 16.0494 28.9175 15.9385Z" fill="#1E1E1E"/>
<path d="M29.6835 22.7057C29.3552 22.151 28.6985 22.04 28.1513 22.2619C27.1663 22.7057 26.0719 22.7057 24.9775 22.5947C23.5548 22.5947 22.2415 22.4838 20.9282 22.5947C20.381 22.7057 20.0526 23.4823 20.1621 23.926C20.381 24.5917 20.9282 24.8135 21.4754 24.7026C22.7887 24.4807 24.102 24.7026 25.4153 24.7026C26.7286 24.7026 28.0419 24.5917 29.3551 24.037C29.9024 24.037 30.0118 23.1494 29.6835 22.7057Z" fill="#1E1E1E"/>
<path d="M31.544 33.5776C31.4345 33.4666 31.4345 33.4666 31.544 33.5776C31.4345 33.4666 31.4345 33.4667 31.4345 33.4667C31.4345 33.4667 31.2157 33.1338 31.3251 33.2448C31.3251 33.3557 31.2157 33.0229 31.2157 33.0229C31.2157 32.912 31.1062 32.801 31.1062 32.6901C30.7779 31.9135 29.9024 31.5807 29.2457 32.0244C29.0268 32.1354 28.808 32.3573 28.5891 32.5791C28.5891 32.4682 28.4796 32.4682 28.4796 32.3573C28.1513 31.6916 27.1663 31.6916 26.7286 32.1354C26.5097 32.3573 26.2908 32.6901 26.0719 33.0229C25.5247 32.5791 24.7586 32.5791 24.2114 33.1338C23.9925 33.3557 23.8831 33.5776 23.7737 33.9104C23.7737 34.0214 23.6642 34.0213 23.6642 34.1323C23.5548 34.2432 23.4453 34.3542 23.3359 34.4651C22.8981 34.7979 22.8981 35.6855 23.3359 36.0183C23.7737 36.462 24.4303 36.462 24.8681 36.0183C24.9775 35.9073 25.087 35.7964 25.1964 35.6855C25.3058 35.7964 25.5247 35.9073 25.7436 36.0183C26.5097 36.2402 27.2758 35.7964 27.6041 35.1308C27.6041 35.1308 27.6041 35.1307 27.6041 35.0198C27.9324 35.2417 28.2608 35.3526 28.5891 35.3526C29.0268 35.3526 29.3552 35.1308 29.6835 34.7979C29.7929 35.0198 29.9024 35.1308 30.1213 35.3526C30.4496 35.7964 31.3251 35.7964 31.6534 35.3526C31.9818 34.687 31.8723 34.0213 31.544 33.5776Z" fill="#FBB03B"/>
<path d="M46.3187 41.5654C46.2093 41.0107 45.5527 40.5669 45.0054 40.7888C44.4582 41.0107 44.1299 41.5654 44.2394 42.1201C44.2394 42.1201 44.2394 42.231 44.3488 42.342V42.4529C44.3488 42.6748 44.3488 42.7857 44.3488 43.0076C44.3488 43.3404 44.2394 43.6733 44.2394 44.0061C44.2394 44.117 44.2394 44.228 44.2394 44.228C44.2394 44.3389 44.2394 44.4498 44.1299 44.4498V44.5608C44.1299 44.6717 44.0205 44.8936 43.911 44.8936C44.0205 44.7827 44.0205 44.7827 43.911 44.8936L43.8016 45.0045C43.6921 45.0045 43.6922 45.1155 43.5827 45.1155C43.4733 45.2264 43.3638 45.2264 43.2544 45.3373H43.3638H43.2544C43.1449 45.3373 43.1449 45.3374 43.0355 45.4483C42.9261 45.4483 42.8166 45.5592 42.5977 45.5592C42.2694 45.6702 41.9411 45.6702 41.6128 45.7811C41.5033 45.7811 41.3939 45.7811 41.2844 45.7811C41.0656 45.7811 40.8467 45.7811 40.7372 45.7811C40.19 45.7811 39.6428 46.2249 39.6428 46.8905C39.6428 47.4452 40.0806 47.9999 40.7372 47.9999C42.3789 47.889 44.2394 47.6671 45.4432 46.5577C46.2093 45.8921 46.4282 45.0045 46.5376 44.0061C46.4282 43.3404 46.5376 42.342 46.3187 41.5654Z" fill="#1E1E1E"/>
<path d="M1.99491 8.39465C1.4477 8.50559 0.900494 8.94935 1.00994 9.61499C1.11938 11.0572 1.11938 12.3885 1.00994 13.8307C1.00994 14.3854 1.66658 14.9401 2.21379 14.8291C2.87044 14.7182 3.19876 14.2744 3.19876 13.6088C3.3082 12.1666 3.19876 10.8353 3.19876 9.39312C3.19876 8.83842 2.65155 8.28371 1.99491 8.39465Z" fill="#1E1E1E"/>
</svg>
