<svg width="1688" height="464" viewBox="0 0 1688 464" fill="none" xmlns="http://www.w3.org/2000/svg">
<path d="M890.871 125.518C922.794 137.553 907.628 175.142 903.526 198.284C898.434 224.431 893.722 251.237 889.192 277.566L875.893 351.699C871.493 375.885 871.449 404.21 850.962 420.936C842.851 428.096 827.166 430.051 818.01 422.745C758.153 375.948 698.966 328.812 639.626 282.186C636.021 279.357 633.063 275.79 630.949 271.725C629.704 271.221 628.568 270.483 627.603 269.55C618.182 259.383 617.773 241.269 629.202 232.997C667.367 205.683 708.72 183.122 752.345 165.814C774.388 156.665 797.354 148.361 820.142 140.554C830.095 136.699 840.373 133.539 850.144 130.161C863.582 125.863 876.067 119.565 890.871 125.518Z" fill="#F9F9F9"/>
<path d="M122.749 23.3056C151.115 4.34988 172.856 38.5596 189.288 55.3636C207.587 74.7221 226.643 94.1543 245.417 113.161L297.962 167.121C315.069 184.775 338.077 201.296 339.755 227.69C340.857 238.453 333.318 252.346 322.049 255.539C249.158 276.979 176.38 297.677 103.929 318.797C99.5302 320.081 94.9077 320.411 90.3715 319.764C89.2379 320.483 87.9765 320.977 86.656 321.219C72.9049 322.963 57.9372 312.754 57.8617 298.645C57.8618 251.713 63.5823 204.955 74.8969 159.406C80.2859 136.156 86.8989 112.648 93.8129 89.5723C96.4713 79.2356 99.883 69.0385 102.823 59.1271C107.149 45.6975 109.293 31.8797 122.749 23.3056Z" fill="#F9F9F9"/>
<path d="M787.347 136.704L790.948 138.316C792.225 138.885 793.53 139.455 794.79 140.025C795.935 140.532 797.652 141.774 798.654 140.31C799.146 139.637 798.98 138.925 798.935 138.19C798.889 137.655 798.86 137.091 798.791 136.538C798.688 135.291 798.557 134.026 798.373 132.79C798.049 130.366 797.43 127.99 796.53 125.715C796.448 125.556 796.334 125.416 796.196 125.303C796.058 125.189 795.899 125.105 795.727 125.054C795.556 125.004 795.375 124.988 795.197 125.009C795.02 125.029 794.848 125.085 794.692 125.174C794.633 125.212 794.581 125.26 794.538 125.316C794.305 125.373 794.086 125.478 793.897 125.624C790.771 128.033 787.599 130.426 784.479 132.858C784.244 133.068 784.085 133.349 784.025 133.657C783.965 133.966 784.008 134.285 784.147 134.567C784.737 135.815 786.18 136.174 787.347 136.704ZM794.555 128.557C795.037 130.058 795.396 131.596 795.626 133.155C795.792 134.208 795.9 135.251 796.003 136.305C796.043 136.698 796.078 137.097 796.141 137.507L794.996 137.006L791.996 135.667L789.105 134.362C788.658 134.151 788.2 133.964 787.754 133.753C790.027 132.015 792.276 130.278 794.555 128.557Z" fill="#DCDCDC"/>
<path d="M186.349 328.704L189.95 330.316C191.227 330.885 192.532 331.455 193.791 332.025C194.936 332.532 196.654 333.774 197.656 332.31C198.148 331.637 197.982 330.925 197.936 330.19C197.891 329.655 197.862 329.091 197.793 328.538C197.69 327.291 197.558 326.026 197.375 324.79C197.051 322.366 196.432 319.99 195.532 317.715C195.45 317.556 195.336 317.416 195.198 317.303C195.06 317.189 194.901 317.105 194.729 317.054C194.557 317.004 194.377 316.988 194.199 317.009C194.021 317.029 193.85 317.085 193.694 317.174C193.635 317.212 193.583 317.26 193.54 317.316C193.307 317.373 193.088 317.478 192.898 317.624C189.773 320.033 186.601 322.426 183.481 324.858C183.246 325.068 183.087 325.349 183.027 325.657C182.967 325.966 183.01 326.285 183.149 326.567C183.739 327.815 185.181 328.174 186.349 328.704ZM193.557 320.557C194.039 322.058 194.397 323.596 194.627 325.155C194.793 326.208 194.902 327.251 195.005 328.305C195.045 328.698 195.08 329.097 195.143 329.507L193.998 329.006L190.998 327.667L188.107 326.362C187.66 326.151 187.202 325.964 186.756 325.753C189.029 324.015 191.278 322.278 193.557 320.557Z" fill="#DCDCDC"/>
<path d="M1390.35 312.704L1393.95 314.316C1395.22 314.885 1396.53 315.455 1397.79 316.025C1398.93 316.532 1400.65 317.774 1401.65 316.31C1402.15 315.637 1401.98 314.925 1401.93 314.19C1401.89 313.655 1401.86 313.091 1401.79 312.538C1401.69 311.291 1401.56 310.026 1401.37 308.79C1401.05 306.366 1400.43 303.99 1399.53 301.715C1399.45 301.556 1399.33 301.416 1399.2 301.303C1399.06 301.189 1398.9 301.105 1398.73 301.054C1398.56 301.004 1398.37 300.988 1398.2 301.009C1398.02 301.029 1397.85 301.085 1397.69 301.174C1397.63 301.212 1397.58 301.26 1397.54 301.316C1397.3 301.373 1397.09 301.478 1396.9 301.624C1393.77 304.033 1390.6 306.426 1387.48 308.858C1387.24 309.068 1387.08 309.349 1387.02 309.657C1386.96 309.966 1387.01 310.285 1387.15 310.567C1387.74 311.815 1389.18 312.174 1390.35 312.704ZM1397.55 304.557C1398.04 306.058 1398.4 307.596 1398.63 309.155C1398.79 310.208 1398.9 311.251 1399 312.305C1399.04 312.698 1399.08 313.097 1399.14 313.507L1398 313.006L1395 311.667L1392.1 310.362C1391.66 310.151 1391.2 309.964 1390.75 309.753C1393.03 308.015 1395.28 306.278 1397.55 304.557Z" fill="#DCDCDC"/>
<path d="M887.669 362.481L888.805 366.112C889.208 367.397 889.612 368.71 889.987 370.001C890.333 371.133 890.503 373.165 892.259 372.989C893.082 372.923 893.514 372.358 894.048 371.858C894.423 371.49 894.826 371.116 895.184 370.721C896.059 369.853 896.933 368.963 897.745 368.056C899.367 366.295 900.763 364.351 901.903 362.267C901.969 362.108 902.002 361.937 901.998 361.766C901.995 361.594 901.955 361.425 901.883 361.269C901.81 361.112 901.706 360.972 901.575 360.855C901.445 360.739 901.292 360.649 901.125 360.591C901.056 360.579 900.984 360.579 900.915 360.591C900.722 360.456 900.501 360.362 900.267 360.317C896.428 359.553 892.577 358.768 888.709 358.009C888.402 357.975 888.092 358.036 887.824 358.184C887.556 358.333 887.345 358.56 887.221 358.833C886.653 360.025 887.311 361.3 887.669 362.481ZM898.489 362.602C897.668 363.897 896.737 365.124 895.706 366.271C895.019 367.057 894.298 367.793 893.571 368.529C893.298 368.804 893.003 369.078 892.753 369.386C892.634 369.007 892.52 368.628 892.401 368.249L891.475 365.227C891.174 364.244 890.907 363.283 890.589 362.3C890.458 361.844 890.305 361.393 890.174 360.937C892.946 361.487 895.712 362.03 898.489 362.602Z" fill="#FBB03B"/>
<path d="M1387.67 33.4809L1388.8 37.1119C1389.21 38.3973 1389.61 39.7101 1389.99 41.001C1390.33 42.1326 1390.5 44.1651 1392.26 43.9893C1393.08 43.9234 1393.51 43.3576 1394.05 42.8577C1394.42 42.4897 1394.83 42.1161 1395.18 41.7206C1396.06 40.8527 1396.93 39.9628 1397.75 39.0564C1399.37 37.295 1400.76 35.3511 1401.9 33.2666C1401.97 33.1075 1402 32.9372 1402 32.7657C1401.99 32.5943 1401.96 32.4252 1401.88 32.2688C1401.81 32.1124 1401.71 31.9717 1401.57 31.8553C1401.44 31.7389 1401.29 31.6491 1401.12 31.5912C1401.06 31.5786 1400.98 31.5786 1400.91 31.5912C1400.72 31.4557 1400.5 31.3621 1400.27 31.3166C1396.43 30.553 1392.58 29.7675 1388.71 29.0094C1388.4 28.9748 1388.09 29.0361 1387.82 29.1844C1387.56 29.3327 1387.34 29.5602 1387.22 29.8334C1386.65 31.0254 1387.31 32.2998 1387.67 33.4809ZM1398.49 33.6017C1397.67 34.8969 1396.74 36.1243 1395.71 37.2712C1395.02 38.0567 1394.3 38.7928 1393.57 39.5289C1393.3 39.8035 1393 40.0782 1392.75 40.3858C1392.63 40.0068 1392.52 39.6277 1392.4 39.2487L1391.47 36.2275C1391.17 35.2442 1390.91 34.2829 1390.59 33.2996C1390.46 32.8437 1390.3 32.3932 1390.17 31.9373C1392.95 32.4866 1395.71 33.0304 1398.49 33.6017Z" fill="#FBB03B"/>
<path d="M312.671 151.481L313.807 155.112C314.21 156.397 314.614 157.71 314.988 159.001C315.335 160.133 315.505 162.165 317.26 161.989C318.084 161.923 318.516 161.358 319.05 160.858C319.425 160.49 319.828 160.116 320.186 159.721C321.06 158.853 321.935 157.963 322.747 157.056C324.369 155.295 325.765 153.351 326.905 151.267C326.971 151.108 327.004 150.937 327 150.766C326.996 150.594 326.957 150.425 326.885 150.269C326.812 150.112 326.707 149.972 326.577 149.855C326.447 149.739 326.294 149.649 326.127 149.591C326.057 149.579 325.986 149.579 325.917 149.591C325.724 149.456 325.503 149.362 325.269 149.317C321.43 148.553 317.579 147.768 313.71 147.009C313.404 146.975 313.094 147.036 312.826 147.184C312.558 147.333 312.347 147.56 312.222 147.833C311.654 149.025 312.313 150.3 312.671 151.481ZM323.491 151.602C322.67 152.897 321.739 154.124 320.708 155.271C320.021 156.057 319.3 156.793 318.573 157.529C318.3 157.804 318.005 158.078 317.755 158.386C317.635 158.007 317.522 157.628 317.402 157.249L316.477 154.227C316.176 153.244 315.909 152.283 315.591 151.3C315.46 150.844 315.307 150.393 315.176 149.937C317.948 150.487 320.714 151.03 323.491 151.602Z" fill="#FBB03B"/>
<path d="M1330.64 96.6177C1339.72 63.7307 1378.53 75.4103 1401.95 77.3871C1428.45 80.0769 1455.58 82.3277 1482.21 84.4407L1557.25 90.9329C1581.73 93.1115 1609.94 90.5759 1628.46 109.454C1636.33 116.88 1639.71 132.321 1633.27 142.104C1592.12 205.974 1550.57 269.209 1509.54 332.549C1507.05 336.396 1503.77 339.667 1499.91 342.143C1499.52 343.428 1498.89 344.626 1498.05 345.672C1488.78 355.981 1470.78 358.038 1461.5 347.41C1430.83 311.891 1404.59 272.765 1383.38 230.897C1372.27 209.779 1361.91 187.665 1352.05 165.683C1347.31 156.122 1343.23 146.175 1338.97 136.752C1333.47 123.761 1326.06 111.902 1330.64 96.6177Z" fill="#F9F9F9"/>
</svg>
