<svg width="97" height="72" viewBox="0 0 97 72" fill="none" xmlns="http://www.w3.org/2000/svg">
<path d="M89.8304 58.2184C89.8304 57.188 89.8304 56.2606 89.731 55.2302C89.6317 53.2724 89.5323 51.2116 89.3335 49.2538C89.2342 47.2961 89.4329 45.3383 89.5323 43.3805C89.6317 42.041 89.8304 39.8771 89.2342 38.5376C89.1348 38.6406 89.0355 38.6406 88.9361 38.7436C88.9361 38.7436 88.9361 38.7436 88.8367 38.8467C88.8367 38.8467 88.8367 38.9497 88.7374 38.9497C88.7374 39.0528 88.7374 39.0528 88.638 39.1558C88.638 39.3619 88.638 39.568 88.638 39.7741C88.638 40.1862 88.5387 40.5984 88.638 41.0105C88.638 41.3197 88.638 41.7318 88.638 42.041C88.5387 42.8653 88.0418 43.5866 87.1475 43.3805C86.8494 43.2775 86.5513 43.1744 86.2532 43.1744C85.8557 43.1744 85.3589 43.2775 84.9614 43.3805C84.6633 43.3805 84.3652 43.0714 84.3652 42.7622C84.3652 41.7318 84.3652 40.7014 84.3652 39.671C84.3652 39.1558 84.2658 38.6406 84.0671 38.1254C83.9677 37.8163 83.6696 37.4041 83.4709 37.3011C83.3715 37.198 83.3715 37.198 83.2722 37.095C82.0797 36.9919 80.788 36.8889 79.5955 36.8889C75.7202 36.6828 71.8449 36.5798 67.8702 36.4767C65.8828 36.4767 63.9948 36.4767 62.0075 36.4767C61.2125 36.4767 60.4176 36.4767 59.5233 36.4767C58.7283 36.4767 57.4366 36.2707 56.741 36.7859C55.648 37.5072 55.9461 39.8771 55.9461 41.1136C55.8467 42.8653 56.741 43.0714 58.3309 43.0714C62.2063 43.0714 66.0815 42.9683 69.9569 42.9683C72.0436 42.9683 74.1304 43.0714 76.2171 43.2774C77.2108 43.3805 78.9 43.1744 79.5955 44.1018C80.0924 44.8231 80.0924 46.0596 80.1918 46.9869C80.2912 49.1508 79.8936 51.2116 79.3968 53.2725C78.9 55.3333 78.0057 57.3941 78.2044 59.558C78.2044 59.8671 78.3038 59.9701 78.5025 60.1762C78.5025 60.6914 78.8006 61.2066 79.4962 61.3096C81.2848 61.5157 83.2721 61.1036 85.0608 60.8975C86.0544 60.7944 86.9488 60.6914 87.9424 60.5884C88.5386 60.4853 89.2342 60.4853 89.6317 59.9701C89.8304 59.4549 89.8304 58.8367 89.8304 58.2184ZM87.1475 53.6846C86.0545 55.3333 83.6696 55.4363 82.3778 54.0968C81.7816 53.4785 81.4835 52.5512 81.4835 51.6238C81.4835 50.6964 81.881 49.563 82.8747 49.2538C82.974 49.2538 83.0734 49.2538 83.0734 49.2538C83.2721 49.0478 83.5702 48.9447 83.8683 48.8417C84.5639 48.7386 85.3589 48.9447 85.9551 49.3569C86.6507 49.8721 87.1475 50.4903 87.4456 51.3147C87.7437 52.0359 87.6444 52.9633 87.1475 53.6846Z" fill="#FBB03B"/>
<path d="M37.0663 54.818C33.9859 55.6424 30.8062 56.1576 27.6264 56.1576C26.2353 56.1576 26.2353 58.3214 27.5271 58.3214C30.9056 58.3214 34.2841 57.8062 37.5632 56.9819C38.855 56.5697 38.3581 54.4059 37.0663 54.818Z" fill="#1E1E1E"/>
<path d="M21.6643 54.8177C19.6769 54.6116 17.9877 53.7873 16.5965 52.3447C15.6029 51.3143 14.1123 52.8599 15.106 53.8903C16.8946 55.7451 19.0807 56.8785 21.5649 57.0846C22.9561 57.0846 23.0554 54.9207 21.6643 54.8177Z" fill="#1E1E1E"/>
<path d="M13.8142 40.4954C12.423 42.6592 12.0256 45.2353 12.6218 47.7082C12.9199 49.0478 15.0066 48.5326 14.7085 47.193C14.2117 45.2353 14.5098 43.2775 15.7022 41.6288C16.3978 40.4954 14.6091 39.3619 13.8142 40.4954Z" fill="#1E1E1E"/>
<path d="M24.4466 31.6338C21.9624 32.5612 19.7763 33.9007 17.7889 35.6524C16.7953 36.5798 18.1864 38.1254 19.2794 37.198C20.9687 35.6524 22.8567 34.4159 24.9434 33.6946C26.1358 33.2824 25.7383 31.2216 24.4466 31.6338Z" fill="#1E1E1E"/>
<path d="M37.3643 23.6995C35.2776 26.1724 32.4953 27.615 29.6136 28.7485C28.3219 29.2637 29.4149 31.1184 30.6073 30.7063C33.6877 29.4698 36.5694 27.9241 38.7555 25.2451C39.6498 24.3177 38.2586 22.669 37.3643 23.6995Z" fill="#1E1E1E"/>
<path d="M42.3326 11.2312C42.6307 12.8799 42.5314 14.6316 42.1339 16.2803C41.8358 17.6198 43.8231 18.238 44.1212 16.8985C44.6181 14.8377 44.7175 12.7769 44.32 10.716C44.1212 9.27346 42.1339 9.78867 42.3326 11.2312Z" fill="#1E1E1E"/>
<path d="M42.0348 4.84295C40.6437 2.57604 38.0601 0 35.2778 0C33.8867 0 33.8866 2.26691 35.1784 2.16387C37.1658 2.06083 39.1531 4.2247 40.1468 5.87336C40.9417 7.00681 42.8297 5.9764 42.0348 4.84295Z" fill="#1E1E1E"/>
<path d="M29.8124 0.309228C27.9244 0.412269 26.0364 0.927484 24.2477 1.75181C23.0553 2.37006 24.049 4.22479 25.2414 3.70959C26.6326 3.09134 28.1231 2.67917 29.713 2.57613C31.0047 2.37005 31.1041 0.206187 29.8124 0.309228Z" fill="#1E1E1E"/>
<path d="M17.7891 4.53377C16.4973 5.56418 15.0068 6.49155 13.5163 7.31588C12.3239 7.93413 13.3176 9.8919 14.51 9.27365C16.1992 8.34628 17.6898 7.31587 19.1803 6.18242C20.2733 5.25505 18.7828 3.6064 17.7891 4.53377Z" fill="#1E1E1E"/>
<path d="M9.0446 10.8191C8.7465 10.3039 8.15033 10.0978 7.65349 10.407C7.45475 10.51 7.25601 10.613 6.9579 10.7161L6.75916 10.8191C6.65979 10.8191 6.5604 10.9222 6.36166 10.9222C5.86482 11.0252 5.36799 11.1283 4.87115 11.2313C4.77178 11.2313 4.67243 11.2313 4.57306 11.2313H4.37431C4.07621 11.2313 3.87748 11.2313 3.57938 11.2313C3.08254 11.2313 2.58571 11.1282 2.08887 11.1282C1.59203 11.0252 0.99585 11.6435 0.99585 12.1587C0.99585 12.7769 1.39332 13.1891 1.98953 13.2921C4.27498 13.7043 6.56045 13.2921 8.64716 12.2617C9.144 12.0556 9.3427 11.3343 9.0446 10.8191Z" fill="#1E1E1E"/>
<path d="M79.1982 43.2773V43.1743C68.864 41.9378 58.5298 41.2165 48.1955 42.5561C47.5993 42.6591 47.3012 43.0713 47.3012 43.4834C47.1025 43.6895 46.9037 43.8956 47.0031 44.3077C47.4006 51.6237 47.2019 59.0426 46.4069 66.3586C46.3076 67.6981 48.2949 67.6981 48.3943 66.3586C49.1892 59.1457 49.3879 51.8298 48.9905 44.5138C58.7285 43.3804 68.4665 43.9986 78.2045 45.1321C78.3039 45.2351 78.4032 45.2351 78.602 45.2351C78.9995 45.2351 78.8007 45.1321 78.8007 45.7503C78.8007 46.2655 78.8008 46.7807 78.7014 47.1929C78.602 48.1203 78.602 48.9446 78.5026 49.872C78.3039 51.7267 78.1052 53.5815 77.8071 55.5392C77.4096 58.9396 77.0121 62.34 76.9127 65.7403C67.9696 65.6373 59.0266 65.6373 50.0835 65.7403C48.7917 65.7403 48.7917 67.8011 50.0835 67.8011C59.3247 67.595 68.6652 67.595 77.9064 67.8011C78.4032 67.8011 78.9001 67.2859 78.9001 66.7707C78.9001 62.1339 79.5957 57.497 80.1919 52.8602C80.49 50.5933 80.6887 48.3264 80.7881 45.9564C80.7881 44.5138 80.3906 43.5865 79.1982 43.2773Z" fill="#1E1E1E"/>
<path d="M70.5531 47.2958C70.0563 46.9866 69.46 46.9866 68.9632 47.2958C68.7645 47.3988 68.5657 47.6049 68.4664 47.811C68.367 47.914 68.367 48.0171 68.2677 48.1201C67.4727 47.3988 66.0816 46.6775 65.1872 47.6049C65.1872 47.6049 64.8891 48.017 64.9885 48.017C64.7898 48.017 64.3923 47.6049 64.293 47.5018C63.7961 47.1927 63.1999 46.8836 62.6037 46.9866C62.3056 47.0897 62.1069 47.2958 61.9081 47.5018C61.8088 47.6049 61.8087 47.7079 61.7094 47.811C61.4113 47.3988 61.1132 46.9866 60.7157 46.7806C60.2189 46.5745 59.722 46.6775 59.2252 46.9866C58.629 47.3988 58.5296 47.914 57.7347 47.3988C57.2378 47.1927 56.9397 46.6775 56.4429 46.5745C55.8467 46.4714 55.3499 46.7805 54.9524 47.1927C54.853 47.2958 54.6543 47.7079 54.4556 47.811C54.3562 47.811 54.0581 47.1927 53.9587 47.0897C53.6606 46.6775 53.2631 46.3684 52.7663 46.3684C51.3752 46.1623 50.779 47.3988 50.9777 48.5323C51.1764 49.5627 52.2695 49.4596 52.7663 48.7383C52.965 48.9444 53.1638 49.2535 53.3625 49.4596C53.76 49.7687 54.2568 49.9748 54.7536 49.8718C55.2505 49.7687 55.6479 49.4596 56.0454 49.0475C56.0454 49.0475 56.1448 48.9444 56.2442 48.7383C56.3435 48.7383 56.3435 48.8414 56.4429 48.8414C57.3372 49.4596 58.5296 49.8718 59.5233 49.2535C59.722 49.1505 59.9208 48.9444 60.1195 48.8414C60.3183 49.2535 61.0138 49.6657 61.4113 49.7687C61.9081 49.8718 62.405 49.7687 62.8025 49.4596C62.9018 49.3566 63.1005 49.2535 63.1999 49.0475C63.7961 49.7687 65.0879 50.1809 65.8828 49.6657C66.0816 49.5627 66.2803 49.3566 66.3797 49.2535C66.7771 49.4596 67.5721 49.8718 67.6714 49.9748C68.1683 50.1809 68.5658 50.1809 69.0626 49.9748C69.2613 49.8718 69.46 49.6657 69.6588 49.4596C69.7582 49.3566 69.7582 49.2535 69.8575 49.1505C70.8512 49.3566 71.5468 47.914 70.5531 47.2958Z" fill="#1E1E1E"/>
<path d="M68.2678 53.0664C68.3672 53.0664 67.3735 52.4482 67.2742 52.3451C66.8767 52.2421 66.4792 52.3451 66.1811 52.5512C65.7836 52.8603 65.7836 53.2725 65.2868 53.0664C64.8893 52.9634 64.4918 52.4482 64.1937 52.2421C63.4982 51.7269 62.6039 51.7269 61.9083 52.3451C61.7096 52.5512 61.4114 53.1695 61.2127 53.2725C60.9146 53.3755 60.4178 52.7573 60.1197 52.5512C59.5235 52.036 58.7285 51.7269 58.0329 52.4482C57.7348 52.7573 57.5361 53.2725 57.238 53.4786C56.8405 53.7877 56.7412 53.3755 56.4431 53.1694C55.7475 52.5512 54.8532 52.3451 54.0582 52.8603C53.9589 52.9634 53.6608 53.2725 53.462 53.4786L53.3627 53.3755C53.164 53.1694 52.8658 52.9634 52.6671 52.6542C52.369 52.3451 51.8722 52.2421 51.4747 52.4482C50.9779 52.8603 50.6798 53.1695 50.481 53.7877C50.1829 54.8181 51.3753 55.3333 52.0709 54.8181C52.5677 55.3333 53.1639 55.7455 53.7601 55.7455C54.1576 55.7455 54.5551 55.5394 54.8532 55.1272C55.2507 54.7151 55.0519 54.4059 55.4494 54.7151C56.145 55.3333 56.8405 55.6424 57.7348 55.3333C58.1323 55.1272 58.5298 54.8181 58.8279 54.509C58.9273 54.4059 59.0266 54.3029 59.126 54.1999C59.7222 54.8181 60.6165 55.2303 61.3121 55.1272C61.7096 55.1272 62.2064 54.9211 62.5045 54.612C62.6038 54.509 63.0013 54.0968 63.1007 53.7877C63.2001 53.8907 63.2001 53.8907 63.2995 53.9938C63.4982 54.0968 63.6969 54.3029 63.7963 54.4059C64.1938 54.7151 64.6906 54.9211 65.1874 54.9211C65.5849 54.9211 65.9824 54.9211 66.3798 54.7151C66.5786 54.612 66.7773 54.509 66.976 54.3029C66.976 54.3029 66.976 54.1999 67.0754 54.1999C67.3735 54.4059 67.5722 54.612 67.8703 54.7151C68.3672 54.8181 68.864 54.7151 69.2615 54.4059C70.3546 54.0968 69.3609 52.3451 68.2678 53.0664Z" fill="#1E1E1E"/>
<path d="M62.2063 58.6302C61.9082 58.218 61.312 57.9089 60.8152 58.218C60.5171 58.4241 60.1196 58.6302 59.7221 58.6302C59.2253 58.6302 58.8278 58.4241 58.4303 58.218C57.9335 58.012 57.3373 58.012 56.8405 58.218C56.5424 58.3211 56.3436 58.4241 56.1449 58.6302C56.0455 58.7333 55.9461 58.7332 55.9461 58.7332C55.5487 58.5272 55.2506 58.3211 54.8531 58.218C54.2569 58.012 53.6607 58.3211 53.3626 58.8363C53.3626 58.9393 53.2632 58.9393 53.2632 59.0424C52.8657 58.8363 52.5676 58.5272 52.0708 58.4241C51.5739 58.3211 50.9778 58.6302 50.8784 59.1454C50.779 59.6606 51.0771 60.2789 51.5739 60.3819C52.1701 60.4849 52.667 61.1032 53.3626 61.1032C53.7601 61.1032 54.1575 61.0002 54.4556 60.691C54.555 60.588 54.6543 60.4849 54.7537 60.3819C54.9525 60.4849 55.0518 60.588 55.2506 60.588C55.5487 60.691 55.8468 60.7941 56.2442 60.691C56.6417 60.691 56.9398 60.4849 57.2379 60.2789C57.4366 60.1758 57.536 59.9698 57.8341 59.9698C58.1322 59.9698 58.4303 60.1758 58.6291 60.2789C59.0265 60.3819 59.424 60.485 59.8215 60.485C60.5171 60.485 61.312 60.2789 61.9082 59.7637C62.3057 59.6606 62.5044 59.1454 62.2063 58.6302Z" fill="#1E1E1E"/>
<path d="M74.7266 62.34C74.6272 61.9278 74.3291 61.5157 73.5341 61.3096C73.1367 61.2065 72.7392 61.2065 72.3417 61.2065C71.0499 61.2065 69.7582 61.2065 68.367 61.2065C67.7708 61.2065 67.1746 61.2065 66.5784 61.3096C65.8828 61.5157 65.386 61.7217 65.2866 62.237C65.2866 62.443 65.1872 62.6491 65.1872 62.7522C65.1872 62.9582 65.0879 63.2674 65.1872 63.4734C65.386 63.9887 66.1809 64.0917 66.8765 63.9887C67.4727 63.8856 68.0689 63.9887 68.5658 64.0917C69.2613 64.0917 69.8575 64.1947 70.5531 64.0917C71.2487 64.0917 71.8449 64.0917 72.5405 63.9887C73.1367 63.8856 73.9316 63.8856 74.4284 63.5765C75.2233 63.3704 74.9253 62.7522 74.7266 62.34Z" fill="#FBB03B"/>
<path d="M74.7266 60.8975C72.1431 61.0005 69.5595 61.0005 66.8765 61.1035C65.5848 61.1035 65.5848 63.1644 66.8765 63.1644C69.4601 63.0613 72.0437 63.0613 74.7266 62.9583C76.0184 62.9583 76.0184 60.8975 74.7266 60.8975Z" fill="#1E1E1E"/>
<path d="M92.6129 42.041C92.6129 41.0106 92.7122 39.568 92.3148 38.6407C91.7186 36.992 88.7375 36.889 87.3464 36.6829C78.2046 35.2403 68.864 34.9312 59.6229 35.3433C59.0267 35.3433 58.6292 35.7555 58.6292 36.3737L58.5298 39.9802C58.5298 41.3197 60.5171 41.3197 60.5171 39.9802C60.5171 39.1559 60.6165 38.2285 60.6165 37.4042C67.9697 37.095 75.3229 37.4042 82.5767 38.2285C82.6761 39.2589 82.6762 40.1863 82.6762 41.2167C82.6762 41.7319 82.6761 42.3501 82.5767 42.8653C82.5767 43.3805 82.378 43.8958 82.378 44.411C82.378 45.1322 82.8749 45.7505 83.5704 45.8535C84.1666 45.8535 84.6635 45.4414 85.1603 45.1322C85.3591 45.0292 85.5578 44.8231 85.8559 44.7201L85.9553 44.617C85.9553 44.617 85.9552 44.7201 86.0546 44.7201C86.2533 44.9262 86.3527 45.2353 86.5515 45.4414C86.8496 45.8535 87.4458 46.1627 87.9426 45.8535C88.9363 45.2353 88.9363 43.7927 89.135 42.7623C89.3338 41.6288 89.4331 40.5984 89.5325 39.465C89.7312 39.465 89.93 39.568 90.1287 39.6711C90.7249 40.0832 90.5262 39.465 90.6256 40.2893C90.7249 42.5562 90.7249 44.7201 90.7249 46.987C90.7249 51.3147 90.6255 55.6425 90.5262 59.9702C87.6445 60.2793 84.6635 60.4854 81.7818 60.5884C80.49 60.5884 80.49 62.6492 81.7818 62.6492C85.061 62.5462 88.3401 62.3401 91.5198 61.928C92.0167 61.8249 92.5135 61.5158 92.5135 60.8975C92.6129 55.9516 92.8116 51.0056 92.7123 45.9566C92.6129 44.411 92.6129 43.1745 92.6129 42.041ZM85.7565 42.1441C85.3591 42.2471 84.8622 42.6593 84.5641 42.8653C84.5641 42.7623 84.5641 42.6593 84.5641 42.5562C84.5641 42.041 84.6635 41.4228 84.6635 40.9076C84.6635 40.0832 84.6635 39.1559 84.5641 38.3315C84.7628 38.3315 85.061 38.3315 85.2597 38.4346C86.0546 38.5376 86.8496 38.6407 87.6445 38.7437C87.5452 39.6711 87.4457 40.5984 87.3464 41.5258C87.3464 41.8349 87.247 42.1441 87.247 42.4532C86.7502 42.1441 86.3527 41.938 85.7565 42.1441Z" fill="#1E1E1E"/>
<path d="M87.9426 51.6235C87.6445 50.4901 86.8495 49.5627 85.8558 49.0475C84.564 48.3262 83.0735 48.3262 81.9805 49.3566C81.583 49.6658 81.583 50.4901 81.9805 50.7992C82.378 51.2114 82.9741 51.2114 83.3716 50.7992C83.2722 50.9022 83.3716 50.7992 83.471 50.7992C83.5704 50.7992 83.6697 50.6962 83.5704 50.7992C83.6697 50.7992 83.7691 50.6962 83.8684 50.6962H83.9679C84.0672 50.6962 84.1666 50.6962 84.2659 50.6962H84.3653C84.4647 50.6962 84.5641 50.7992 84.6634 50.7992H84.7628C84.9615 50.9022 85.0609 51.0053 85.2596 51.1083C85.2596 51.1083 85.2596 51.1083 85.359 51.1083C85.4583 51.2114 85.5577 51.2114 85.5577 51.3144C85.6571 51.4174 85.6571 51.4174 85.7565 51.5205C85.7565 51.6235 85.8558 51.6235 85.8558 51.7266C85.8558 51.7266 85.8558 51.8296 85.9552 51.8296V51.9327V52.0357C85.9552 52.1387 85.9552 52.2418 86.0545 52.3448V52.4479C86.0545 52.5509 86.0545 52.654 86.0545 52.757C86.0545 52.5509 86.0545 52.86 86.0545 52.86C86.0545 52.86 86.0546 52.9631 85.9552 53.0661L85.8558 53.1692C85.8558 53.1692 85.8558 53.2722 85.7565 53.2722C85.6571 53.3752 85.6571 53.3752 85.6571 53.4783L85.5577 53.5813C85.4583 53.6843 85.2596 53.7874 85.1603 53.7874H85.0609C84.9615 53.7874 84.9615 53.7874 84.8621 53.8904C84.6634 53.9935 84.564 53.9935 84.3653 53.9935C84.3653 53.9935 84.3653 53.9935 84.2659 53.9935H84.1666C84.0672 53.9935 83.8685 53.9935 83.7691 53.9935C83.6697 53.9935 83.6697 53.9935 83.5704 53.9935H83.471H83.3716C83.3716 53.9935 83.2723 53.9935 83.2723 53.8904C83.2723 53.8904 83.1729 53.8904 83.1729 53.7874L83.0735 53.6844C83.0735 53.6844 82.9742 53.5813 82.9742 53.4783C82.7754 52.9631 82.0798 52.86 81.583 53.0661C81.0862 53.3752 80.9868 53.9935 81.1856 54.5087C82.2786 56.7756 85.5577 56.4665 87.0482 54.9208C88.0419 54.0965 88.2407 52.86 87.9426 51.6235Z" fill="#1E1E1E"/>
<path d="M73.4349 38.9497C69.957 38.8467 66.4792 38.8467 62.9019 38.8467C61.6102 38.8467 61.6102 40.9075 62.9019 40.9075C66.3798 40.8045 69.8576 40.9075 73.4349 41.0105C74.7267 41.1136 74.7267 39.0528 73.4349 38.9497Z" fill="#1E1E1E"/>
<path d="M95.1962 35.3431C94.6 34.5188 93.9044 33.7975 93.0101 33.3853C92.0164 32.8701 90.824 32.7671 89.731 32.6641C89.2341 32.6641 88.7373 33.1793 88.7373 33.6945C88.7373 34.3127 89.2341 34.7249 89.731 34.7249C90.5259 34.8279 91.4203 34.8279 92.1158 35.2401C92.712 35.5492 93.2089 36.0644 93.6063 36.6827C94.6 38.1252 94.7987 39.98 94.9974 41.6286C95.0968 42.1438 95.3949 42.659 95.9911 42.659C96.488 42.659 97.0842 42.1438 96.9848 41.6286C96.7861 39.3617 96.3886 37.0948 95.1962 35.3431Z" fill="#1E1E1E"/>
<path d="M60.6163 69.8621C57.6353 69.9652 54.5548 69.9652 51.5738 69.8621C50.282 69.8621 50.282 71.923 51.5738 71.923C54.5548 72.026 57.6353 72.026 60.6163 71.923C61.8087 71.8199 61.8087 69.7591 60.6163 69.8621Z" fill="#1E1E1E"/>
</svg>
