<svg width="92" height="71" viewBox="0 0 92 71" fill="none" xmlns="http://www.w3.org/2000/svg">
<path d="M9.93396 30.452L10.9855 2.06104L52.5204 3.11255L51.4688 12.5762L78.8083 11.5247L80.3855 23.6171V38.3383L78.8083 60.9459L66.7158 62.5232V69.3581H22.5522V51.4823L10.9855 49.3793L9.93396 30.452Z" fill="white"/>
<path d="M65.6422 32.7004C65.6597 32.5701 65.6469 32.4376 65.6047 32.3129C65.5625 32.1883 65.4919 32.0747 65.3985 31.9808C65.3051 31.8869 65.1912 31.8151 65.0654 31.771C64.9397 31.7268 64.8053 31.7114 64.6726 31.7259H64.6314C54.1171 31.1844 43.5753 31.9695 33.0542 31.5228H32.8685C32.7216 31.3765 32.535 31.275 32.331 31.2305C32.127 31.1859 31.9143 31.2002 31.7183 31.2716C31.5224 31.3431 31.3515 31.4686 31.2262 31.6332C31.1009 31.7977 31.0264 31.9944 31.0118 32.1996C30.6878 37.3836 30.6878 42.5822 31.0118 47.7662C31.0238 47.9069 31.061 48.0444 31.1219 48.1723C31.1799 48.3722 31.3041 48.5474 31.4748 48.67C31.6454 48.7926 31.8528 48.8556 32.064 48.8491L64.2256 48.9033C64.3724 48.9557 64.5303 48.9711 64.6847 48.9481C64.8391 48.925 64.9852 48.8643 65.1096 48.7714C65.2341 48.6786 65.3329 48.5565 65.3971 48.4164C65.4613 48.2763 65.4888 48.1226 65.4772 47.9693C65.1065 42.8838 65.1617 37.777 65.6422 32.7004Z" fill="#00A99D"/>
<path d="M62.4723 62.8723C62.4703 62.6209 62.3946 62.3754 62.2543 62.1654C62.1141 61.9553 61.9152 61.7895 61.6816 61.6879C61.373 61.5805 61.0453 61.5367 60.7188 61.5593C60.1916 61.5593 59.6621 61.5593 59.1303 61.5593H59.0272C58.8663 61.4484 58.6734 61.3914 58.4771 61.3968C58.2046 61.4003 57.9443 61.5084 57.7516 61.6981C57.559 61.8877 57.4491 62.1439 57.4456 62.4121C57.4456 63.3934 57.4456 64.3748 57.3768 65.3562C57.3786 65.625 57.4872 65.8826 57.6794 66.0736C57.7737 66.1698 57.887 66.2458 58.0124 66.297C58.1378 66.3482 58.2726 66.3736 58.4083 66.3714C58.6164 66.3501 58.8216 66.3071 59.0203 66.2428L59.371 66.0872L59.5154 66.0465C59.7149 66.1548 59.9074 66.2766 60.0999 66.3917C60.4579 66.6099 60.8632 66.742 61.2827 66.7774C61.5104 66.7782 61.7314 66.7017 61.9085 66.5609C62.0879 66.4313 62.2166 66.2449 62.2729 66.033C62.3819 65.4679 62.4463 64.8954 62.4655 64.3206C62.493 63.8672 62.5067 63.3664 62.4723 62.8723Z" fill="#00A99D"/>
<path d="M91.6151 11.6511C90.0961 12.4849 88.6834 13.4936 87.4066 14.6561C87.1041 14.9336 86.829 15.1366 86.7671 15.5495C86.7035 15.9981 86.6691 16.4502 86.664 16.9031C86.6283 17.8062 86.6535 18.7106 86.7396 19.6104C86.7518 19.7515 86.7281 19.8933 86.6706 20.0231C86.6132 20.1529 86.5238 20.2667 86.4105 20.354C86.2972 20.4413 86.1637 20.4994 86.0218 20.5232C85.88 20.547 85.7344 20.5357 85.5981 20.4902C85.4935 20.4593 85.3939 20.4136 85.3024 20.3548L84.0646 19.4141L80.4063 16.7068C80.0831 16.4564 80.0212 16.3481 79.6293 16.4429C79.4092 16.497 79.196 16.5647 78.9897 16.6324C78.7834 16.7001 78.5153 16.8084 78.3021 16.9031C77.3737 17.2754 76.4523 17.6747 75.5171 18.0604C75.3759 18.1204 75.2196 18.1369 75.0687 18.1079C74.9177 18.079 74.7792 18.0058 74.6712 17.898C74.5264 17.7761 74.425 17.6119 74.3817 17.4293C74.3384 17.2467 74.3555 17.0552 74.4306 16.8828C74.8157 16.0368 75.2007 15.1908 75.5721 14.338C75.7509 13.9251 75.9228 13.5055 76.1016 13.0927C76.1841 12.8829 76.2735 12.673 76.356 12.47L76.4867 12.1519C76.4896 12.1317 76.4896 12.1112 76.4867 12.091L76.4248 12.003C76.3629 11.9218 76.2872 11.8406 76.2253 11.7526C76.1635 11.6646 75.9434 11.421 75.799 11.2518C75.5239 10.9201 75.2351 10.5749 74.9532 10.2704C74.3824 9.64092 73.7979 9.01826 73.1997 8.4159C73.0637 8.27649 72.9686 8.10341 72.9246 7.91507C72.9107 7.82534 72.9107 7.73405 72.9246 7.64433C72.8517 7.50356 72.8193 7.34586 72.8309 7.18828C72.8425 7.03069 72.8977 6.87926 72.9905 6.75032C73.0832 6.62137 73.2101 6.5198 73.3572 6.45669C73.5044 6.39358 73.6663 6.37131 73.8254 6.39225C74.8661 6.56395 75.8967 6.78987 76.913 7.06906C77.5137 7.21492 78.1433 7.19859 78.7353 7.02172C78.8982 6.9618 79.053 6.88225 79.196 6.78485C79.8312 6.24752 80.3523 5.59194 80.7295 4.85588C81.0321 4.38211 81.3209 3.90836 81.6166 3.43459C81.9123 2.96083 82.1323 2.60892 82.3936 2.20284C82.4671 2.08459 82.5628 1.98117 82.6756 1.89822C82.7696 1.82033 82.8802 1.76409 82.9992 1.73365C83.1181 1.7032 83.2425 1.69931 83.3632 1.72225C83.5444 1.76121 83.7083 1.85554 83.8318 1.99166C83.9553 2.12778 84.032 2.29874 84.0509 2.48027C84.1292 3.5304 84.2739 4.5747 84.4841 5.60713C84.6423 6.37869 84.7317 7.32628 85.4537 7.78651C85.6119 7.88804 85.77 7.97597 85.9419 8.07072C86.6848 8.46681 87.4518 8.8172 88.2387 9.11981C88.9788 9.40738 89.7341 9.65588 90.5011 9.86428C90.7555 9.93873 91.01 10.02 91.2713 10.0809C91.9246 10.223 92.3371 11.2179 91.6151 11.6511Z" fill="#00A99D"/>
<path d="M76.1083 33.6408L75.9433 54.0331C75.902 58.8249 83.4662 58.8249 83.5075 54.0331L83.6725 33.6408C83.7138 28.849 76.1496 28.8423 76.1083 33.6408Z" fill="#00A99D"/>
<path d="M90.3638 10.2365C90.3638 10.2365 90.3637 10.1823 90.3156 10.1553C90.1386 9.92178 89.9011 9.73943 89.6279 9.62733L85.8939 8.27371L84.6218 7.81344C84.1114 6.59972 83.7534 5.32922 83.5559 4.0301C83.5009 3.77968 83.4528 3.52254 83.3909 3.23151L83.2465 2.6968C83.1746 2.43977 83.0346 2.20618 82.8407 2.01999C82.626 1.80374 82.3507 1.6553 82.05 1.5936C81.7624 1.53302 81.4634 1.55362 81.1872 1.653C80.911 1.75239 80.669 1.92649 80.489 2.15532L77.4977 5.91842C76.92 6.64938 75.4691 6.43276 74.0594 6.22295C73.5065 6.12567 72.9487 6.05794 72.3884 6.01996H71.8245C71.531 6.00287 71.2384 6.06663 70.9797 6.20412C70.7209 6.3416 70.5063 6.54731 70.3598 6.79822C70.2142 7.04861 70.1427 7.33419 70.1537 7.62251C70.1646 7.91083 70.2575 8.19036 70.4217 8.42936L73.4267 12.7947C73.1585 13.4309 72.9454 14.0536 72.7391 14.6898C72.4314 15.6991 72.0237 16.6762 71.5219 17.6069L71.4669 17.7152C71.3561 17.9928 71.3299 18.2962 71.3913 18.5883C71.4365 18.7982 71.5243 18.997 71.6496 19.1726C71.7748 19.3483 71.9349 19.4971 72.1202 19.6103C72.274 19.6988 72.4411 19.7628 72.6153 19.7998C72.8613 19.8605 73.1188 19.8605 73.3649 19.7998L78.5154 18.3514L79.6638 19.2719C79.7063 19.311 79.7551 19.3431 79.8082 19.3666C80.2438 19.6321 80.6455 19.9479 81.0047 20.3074C81.7611 20.9842 82.7582 21.8979 83.831 21.7287C84.0753 21.6927 84.3094 21.6074 84.5186 21.4783C84.6773 21.4231 84.8214 21.3336 84.9404 21.2165C85.0594 21.0994 85.1502 20.9576 85.2063 20.8015C85.378 20.1803 85.4339 19.5336 85.3713 18.8928C85.3713 18.683 85.3713 18.4732 85.3713 18.2972L85.4745 15.2922L85.9077 15.0215L86.4234 14.6966L86.5128 14.629C86.9804 14.252 87.4797 13.9147 88.0051 13.6205C88.9822 13.1145 89.849 12.4247 90.5562 11.5901C90.6787 11.4238 90.735 11.2192 90.7145 11.0148C90.6723 10.7286 90.551 10.4594 90.3638 10.2365ZM87.0354 12.145C86.4547 12.474 85.9027 12.8498 85.3851 13.2686L84.9106 13.5663L84.4361 13.8642C84.2282 14.0036 84.0573 14.19 83.9376 14.4079C83.818 14.6257 83.7531 14.8686 83.7485 15.1162L83.6385 18.1958C83.6385 18.4056 83.6385 18.6357 83.6385 18.8726C83.6385 19.1094 83.6385 19.3395 83.6385 19.6103C83.6385 19.7592 83.6385 19.9013 83.6385 19.996C83.3634 20.084 82.9508 19.7389 82.1394 19.0282C81.7046 18.5916 81.2146 18.2117 80.6815 17.8979L79.5469 16.9775C79.2983 16.7775 78.9936 16.657 78.6735 16.6323C78.5479 16.6188 78.421 16.6188 78.2953 16.6323C78.2349 16.6419 78.1752 16.6555 78.1165 16.6729L74.2588 17.7423L73.1035 18.0739C73.5789 17.1322 73.9767 16.1545 74.2932 15.1501C74.4995 14.5545 74.7126 13.9318 74.9808 13.3024C75.0708 13.0719 75.1038 12.8237 75.0771 12.5782C75.0463 12.3353 74.9567 12.1032 74.8158 11.9014L71.907 7.65101H72.2715C72.464 7.65101 72.6703 7.68491 72.8766 7.71198L73.7843 7.83376C75.531 8.09772 77.5046 8.38876 78.6942 7.0013C78.6942 6.96746 78.7561 6.94715 78.7836 6.91331L81.6442 3.31272L81.6993 3.50894V3.61048C81.7474 3.8609 81.8024 4.10453 81.8505 4.35495C82.074 5.87447 82.5139 7.35544 83.1571 8.75421C83.192 8.81697 83.2335 8.87596 83.2809 8.93019C83.455 9.11271 83.669 9.25388 83.9066 9.34304L88.6102 11.0215C88.1246 11.4467 87.5971 11.8231 87.0354 12.145Z" fill="#1E1E1E"/>
<path d="M81.7679 8.03709C81.7276 7.81952 81.6017 7.62631 81.4176 7.49958C81.2335 7.37284 81.006 7.32282 80.7845 7.36028C80.6784 7.37587 80.5766 7.41271 80.4855 7.4686C80.3944 7.52448 80.316 7.5982 80.255 7.68514C80.1308 7.85789 80.0814 8.07211 80.1175 8.28073C80.2763 9.19151 80.7072 10.035 81.3553 10.7037C82.114 11.4007 83.0312 11.909 84.0303 12.1859H84.1334C84.2358 12.2029 84.3404 12.2029 84.4429 12.1859C84.5983 12.1619 84.7442 12.097 84.8652 11.9981C84.9863 11.8993 85.0779 11.77 85.1305 11.6241C85.1675 11.526 85.1841 11.4217 85.1795 11.3171C85.1749 11.2126 85.1491 11.11 85.1036 11.0154C85.0581 10.9208 84.9938 10.8361 84.9146 10.7663C84.8354 10.6965 84.7428 10.643 84.6423 10.6089C83.9059 10.4113 83.2212 10.0605 82.6343 9.58016C82.1918 9.16524 81.8893 8.62666 81.7679 8.03709Z" fill="#1E1E1E"/>
<path d="M38.8098 15.8678C38.7685 15.5429 38.7479 15.2519 38.7342 14.9609V14.3382L39.3668 14.2908C44.9093 13.9163 50.461 13.6614 56.0218 13.526C58.1306 13.4719 60.2417 13.4358 62.3551 13.4177H65.5184C66.6255 13.4177 67.7189 13.2756 68.826 13.2892C69.1219 13.3246 69.4218 13.2702 69.6856 13.1334C69.8252 13.0328 69.9308 12.8932 69.9885 12.7326C70.0462 12.572 70.0532 12.3979 70.0088 12.2333C69.6581 10.7985 67.4645 11.279 66.4123 11.279C65.037 11.279 63.6617 11.279 62.2451 11.279C59.4624 11.306 56.6797 11.3624 53.897 11.4482C51.2564 11.5226 48.6226 11.631 45.982 11.7663C43.3414 11.9017 40.7833 12.1453 38.184 12.2333H37.9915H37.909C37.8198 12.2065 37.7271 12.1929 37.6339 12.1927C37.476 12.1815 37.3175 12.2026 37.1684 12.2549C37.0193 12.3071 36.8828 12.3893 36.7677 12.4962C36.6526 12.6031 36.5614 12.7324 36.4998 12.8759C36.4382 13.0194 36.4076 13.174 36.4099 13.3297C36.201 15.1161 36.437 16.9256 37.0975 18.6021C37.1938 18.8866 37.3917 19.1271 37.6545 19.2789C37.938 19.4236 38.2638 19.4666 38.576 19.4007C38.7539 19.3489 38.9193 19.2624 39.0623 19.1461C39.2053 19.0297 39.3229 18.8861 39.408 18.7239C39.4555 18.6386 39.4837 18.5444 39.4909 18.4474C39.498 18.3505 39.4838 18.2532 39.4493 18.1622C39.1582 17.4205 38.944 16.6518 38.8098 15.8678Z" fill="#1E1E1E"/>
<path d="M80.5853 22.8792C80.541 22.8216 80.4875 22.7714 80.4271 22.7304C80.1863 22.6134 79.9125 22.58 79.6501 22.6356C79.5052 22.639 79.3624 22.6712 79.2306 22.7304C79.1116 22.8134 79.0111 22.9193 78.9349 23.0417C78.4398 23.7185 78.6942 24.4494 78.7286 25.2345L78.8111 27.265C78.8592 28.6186 78.8936 29.9722 78.9143 31.3597C78.9693 34.0669 78.9693 36.7967 78.9143 39.5491C78.8317 45.0041 78.559 50.4547 78.0959 55.9008C77.9928 57.1191 77.8828 58.3441 77.759 59.5624L77.7109 60.0361L72.7322 61.0107C72.1477 61.0717 71.3569 61.3965 71.4119 62.053C71.4471 62.393 71.6117 62.7073 71.8727 62.9329C71.9628 63.0187 72.0714 63.0833 72.1905 63.122C72.3096 63.1606 72.436 63.1724 72.5603 63.1562L77.4908 62.229C77.8693 62.203 78.23 62.061 78.5223 61.8229L78.6736 61.6808H78.8867C79.1775 61.6713 79.4558 61.5618 79.6731 61.3714C79.8905 61.181 80.0332 60.9217 80.0764 60.6385C80.6449 55.224 81.0253 49.7779 81.2179 44.3003C81.4104 38.8226 81.4104 33.3563 81.2179 27.9012C81.2179 27.1093 81.1629 26.3175 81.1285 25.5256C81.1848 24.7108 81.0532 23.894 80.7434 23.1364C80.7019 23.0445 80.6488 22.9581 80.5853 22.8792Z" fill="#1E1E1E"/>
<path d="M35.5709 8.21308C35.5773 8.06865 35.5524 7.92449 35.4977 7.79032C35.4429 7.65616 35.3597 7.53503 35.2536 7.43507C35.1475 7.33511 35.0209 7.25868 34.8823 7.21076C34.7437 7.16284 34.5963 7.14455 34.45 7.15722C28.5293 7.15722 22.5398 7.31967 16.6397 7.59716C16.4808 7.5948 16.3232 7.6251 16.1769 7.68614C16.0306 7.74719 15.8989 7.83764 15.7901 7.95168C15.6814 8.06572 15.598 8.20084 15.5454 8.34841C15.4927 8.49598 15.472 8.65276 15.4845 8.80868C15.4837 8.94348 15.5128 9.07678 15.5697 9.19938C15.6267 9.32198 15.7101 9.43091 15.8142 9.51854C15.9182 9.60616 16.0405 9.67037 16.1724 9.70674C16.3043 9.74311 16.4426 9.75078 16.5778 9.72913C22.5123 9.45164 28.5224 9.30272 34.4569 9.28919C34.6042 9.30001 34.7522 9.27976 34.891 9.22978C35.0297 9.17981 35.156 9.10131 35.2615 8.99944C35.3669 8.89758 35.4491 8.77467 35.5024 8.63906C35.5558 8.50346 35.5791 8.35828 35.5709 8.21308Z" fill="#1E1E1E"/>
<path d="M30.3588 13.8168C25.7721 14.0063 21.1305 14.0063 16.5576 13.8168H16.4956C16.3654 13.8226 16.2376 13.8538 16.1196 13.9084C16.0016 13.963 15.8957 14.04 15.808 14.1349C15.6975 14.2362 15.6093 14.3587 15.5489 14.4949C15.4886 14.6311 15.4574 14.7781 15.4573 14.9268C15.4573 15.6036 16.1449 15.9217 16.757 15.9487C21.2955 16.1315 25.9028 16.1315 30.4551 15.9487C30.6471 15.9544 30.8371 15.9083 31.0044 15.8152C31.1717 15.7222 31.3099 15.5857 31.404 15.4208C31.4949 15.2417 31.5381 15.0428 31.5297 14.8428C31.5213 14.6428 31.4615 14.4482 31.3559 14.277C31.2459 14.1204 31.0957 13.9952 30.9205 13.9144C30.7454 13.8335 30.5515 13.7998 30.3588 13.8168Z" fill="#1E1E1E"/>
<path d="M64.2051 28.504C64.0896 28.3627 63.9444 28.2477 63.7794 28.1671C63.6143 28.0864 63.4334 28.042 63.2493 28.0369L59.921 27.9016C49.6062 27.4617 38.9819 27.0082 28.5501 28.0302C28.3828 28.0468 28.2205 28.0965 28.0731 28.1762C27.9257 28.256 27.796 28.3642 27.6921 28.4943C27.5881 28.6245 27.5118 28.7739 27.4679 28.9337C27.4239 29.0935 27.413 29.2604 27.4361 29.4244C27.4496 29.6027 27.5075 29.775 27.6046 29.9261C27.7018 30.0772 27.8352 30.2024 27.9931 30.2908H27.8143C27.6705 30.2984 27.53 30.3357 27.4019 30.4004C27.2737 30.4651 27.1609 30.5556 27.0707 30.6661C26.9805 30.7766 26.915 30.9045 26.8784 31.0416C26.8419 31.1787 26.8351 31.3218 26.8585 31.4616C27.4323 36.5153 27.701 41.5981 27.663 46.6831C27.6693 46.9459 27.7638 47.1992 27.9318 47.4037C28.0997 47.6081 28.3316 47.7522 28.5914 47.8134C30.0293 48.0055 31.4794 48.0959 32.9305 48.084C34.2302 48.084 35.5367 48.0299 36.8157 47.9826C37.5928 47.9826 38.3698 47.9149 39.14 47.8946C42.7365 47.8066 46.3466 47.7253 49.8812 47.6576C53.4158 47.59 57.0878 47.5358 60.6224 47.4952H61.1932C62.4447 47.4952 64.1639 47.5629 64.212 45.8438C64.2175 45.3428 64.1784 44.8424 64.0951 44.3481C64.0951 44.1112 64.0332 43.8675 64.0125 43.6307C63.93 42.717 63.8613 41.8777 63.82 41.0587C63.5382 37.194 63.7554 33.3098 64.4664 29.4989C64.4996 29.3243 64.4934 29.1448 64.4482 28.9728C64.4031 28.8009 64.3201 28.6408 64.2051 28.504ZM28.6258 30.399C39.0438 29.377 49.6887 29.8305 59.976 30.2704L61.8602 30.3517C61.431 33.0058 61.2355 35.6914 61.2757 38.3786C61.2757 39.915 61.3788 41.4987 61.5301 43.2314C61.5301 43.4276 61.5301 43.6442 61.5301 43.8675C61.5364 44.2709 61.5709 44.6735 61.6333 45.0723C61.4614 45.0723 61.2894 45.0723 61.1175 45.0723C60.9456 45.0723 60.8356 45.0723 60.7118 45.0723C53.9728 45.1535 47.1444 45.2821 40.4122 45.4445L34.7871 45.6002H34.6565C33.1143 45.6757 31.5688 45.6599 30.0286 45.5528C30.0285 40.8041 29.7599 36.0591 29.224 31.3398C29.2099 31.1304 29.1386 30.9287 29.0175 30.7559C28.8965 30.5832 28.7302 30.4458 28.5364 30.3584L28.6258 30.399Z" fill="#1E1E1E"/>
<path d="M28.8182 55.434C35.798 55.5896 42.8809 55.522 49.8674 55.2581H49.9362C50.0982 55.2508 50.2601 55.2758 50.412 55.3316C50.564 55.3874 50.7029 55.4728 50.8204 55.5828C50.938 55.6928 51.0317 55.8251 51.096 55.9716C51.1603 56.1182 51.1939 56.2761 51.1946 56.4357C51.201 56.6095 51.1722 56.7827 51.1096 56.9454C51.0471 57.108 50.9522 57.2568 50.8305 57.3829C50.7088 57.5089 50.5628 57.6098 50.4009 57.6796C50.2391 57.7494 50.0647 57.7867 49.8881 57.7893C42.8877 58.0533 35.798 58.121 28.8114 57.9653C28.5743 57.9676 28.3411 57.9056 28.1373 57.7863C27.9336 57.6669 27.7671 57.4947 27.6561 57.2885C27.5429 57.0876 27.4835 56.8616 27.4835 56.6319C27.4835 56.4022 27.5429 56.1763 27.6561 55.9754C27.7859 55.7942 27.9612 55.6491 28.1648 55.5543C28.3685 55.4594 28.5935 55.4179 28.8182 55.434Z" fill="#1E1E1E"/>
<path d="M63.2972 52.3948C63.1821 52.5927 63.0144 52.7559 62.812 52.8668C62.6096 52.9778 62.3803 53.0322 62.1488 53.0243C51.1463 53.1461 39.9925 53.1935 29.0175 53.1664C28.8403 53.1792 28.6623 53.1558 28.4946 53.0978C28.3269 53.0398 28.1732 52.9484 28.0431 52.8293C27.9129 52.7103 27.8091 52.566 27.7381 52.4057C27.6671 52.2453 27.6305 52.0723 27.6305 51.8974C27.6305 51.7225 27.6671 51.5495 27.7381 51.3891C27.8091 51.2288 27.9129 51.0846 28.0431 50.9655C28.1732 50.8464 28.3269 50.755 28.4946 50.697C28.6623 50.639 28.8403 50.6156 29.0175 50.6284C40.02 50.6284 51.1394 50.6284 62.1419 50.4863C62.3658 50.4777 62.5879 50.5285 62.7851 50.6333C62.9823 50.738 63.1473 50.8929 63.2628 51.0819C63.3813 51.2799 63.4466 51.5043 63.4526 51.734C63.4587 51.9637 63.4052 52.1911 63.2972 52.3948Z" fill="#1E1E1E"/>
<path d="M31.1906 63.6235H31.1288C31.149 63.6299 31.1704 63.6299 31.1906 63.6235Z" fill="#1E1E1E"/>
<path d="M30.607 66.4511C30.1192 66.5685 29.6139 66.5582 29.1302 66.4211C28.592 66.2852 28.1127 65.9431 27.7747 65.4534C27.5156 64.9688 27.3937 64.4071 27.4253 63.8428C27.3781 63.2631 27.4985 62.6816 27.7687 62.1849C27.9472 61.8742 28.2098 61.6362 28.5178 61.5058C28.8258 61.3755 29.1629 61.3597 29.4796 61.4608L29.5699 61.5081C29.9372 61.4098 30.3183 61.396 30.6904 61.4676C31.1994 61.5735 31.6608 61.872 31.9977 62.3135C32.3614 62.8103 32.5558 63.4365 32.5459 64.0797C32.5698 64.3909 32.5276 64.704 32.4229 64.9934C32.3182 65.2828 32.1539 65.5401 31.9435 65.7444C31.5521 66.0919 31.0949 66.3338 30.607 66.4511Z" fill="#1E1E1E"/>
<path d="M31.5767 63.8611C31.5767 63.8611 31.5404 63.8254 31.5767 63.8611V63.8611Z" fill="#1E1E1E"/>
<path d="M30.5579 63.6978H30.5098C30.5347 63.7031 30.5604 63.7031 30.5854 63.6978H30.5579Z" fill="#1E1E1E"/>
<path d="M31.6238 63.948L31.5825 63.8735C31.5924 63.9002 31.6063 63.9253 31.6238 63.948Z" fill="#1E1E1E"/>
<path d="M69.1906 23.8946C69.113 23.8581 69.043 23.8076 68.9843 23.7457C68.8704 23.6322 68.7342 23.5425 68.5842 23.482C68.4341 23.4215 68.2731 23.3915 68.111 23.3938C52.942 22.8198 37.7507 23.331 22.6569 24.9234C22.3884 24.936 22.1313 25.0347 21.9252 25.2046C21.7191 25.3745 21.5751 25.6061 21.5154 25.8641C21.484 26.0059 21.4038 26.1326 21.2884 26.2229C21.1442 26.3265 21.0345 26.47 20.9733 26.635C20.9121 26.8001 20.9021 26.9794 20.9446 27.1501C22.4231 33.7896 22.3749 40.4426 22.1067 46.6489C21.983 49.4712 21.8248 52.3409 21.6736 55.1158L21.0203 66.4659C21.0071 66.5762 21.0201 66.6881 21.0583 66.7926C21.0964 66.8971 21.1588 66.9915 21.2403 67.0683C21.3906 67.1862 21.5643 67.2718 21.7502 67.3196C21.9362 67.3674 22.1302 67.3764 22.3199 67.3458C22.3995 67.3319 22.481 67.3319 22.5606 67.3458C22.6169 67.2893 22.6849 67.2454 22.76 67.2172C22.941 67.1575 23.0995 67.0455 23.2149 66.8958C23.3302 66.7461 23.3969 66.5656 23.4064 66.3779C23.5394 64.0633 23.6746 61.7486 23.8122 59.4339L24.0253 55.7859C24.0289 55.7408 24.0289 55.6956 24.0253 55.6505C24.1972 52.7335 24.3829 49.363 24.5135 46.0399C24.823 38.4934 24.5136 32.7744 23.4202 27.502C23.4047 27.414 23.407 27.3238 23.4271 27.2367C23.4471 27.1496 23.4845 27.0673 23.5371 26.9944C23.5928 26.9237 23.6622 26.8646 23.7413 26.8204C23.8204 26.7763 23.9075 26.748 23.9978 26.7372C38.133 25.3192 52.3491 24.8376 66.55 25.2956C66.6372 25.2982 66.723 25.3181 66.8022 25.3541C66.8813 25.3902 66.9523 25.4416 67.0107 25.5054C67.0704 25.5675 67.1165 25.6409 67.1461 25.7213C67.1756 25.8016 67.1881 25.8872 67.1827 25.9724C66.3781 39.7523 65.8898 53.7893 65.7317 67.691C65.7211 67.8634 65.6441 68.0252 65.5162 68.1435C65.3884 68.2618 65.2195 68.3275 65.044 68.3272H44.4143H42.09C39.4219 68.3272 36.6713 68.3272 33.9757 68.4219C33.0336 68.4625 32.0709 68.5641 31.0532 68.6791C28.5295 68.9566 25.9232 69.2408 23.4889 68.4964C23.3352 68.4508 23.1749 68.4303 23.0145 68.4355C22.9464 68.4491 22.8762 68.4491 22.8082 68.4355C22.7607 68.4834 22.7048 68.5224 22.6431 68.5505C22.4608 68.6489 22.3112 68.7971 22.2124 68.9772C22.1136 69.1573 22.0698 69.3616 22.0861 69.5657C22.1079 69.7775 22.1976 69.9769 22.3422 70.1351C22.4869 70.2933 22.679 70.4021 22.8907 70.4456C25.2837 71.1765 27.7043 70.9396 30.3242 70.6892C31.1219 70.6148 31.9471 70.5336 32.7654 70.4862C35.6673 70.317 38.6243 70.3237 41.4849 70.3305H44.3593H65.7936C65.9067 70.3293 66.0181 70.3573 66.1168 70.4117C66.3482 70.5303 66.6054 70.5923 66.8663 70.5923C67.1273 70.5923 67.3844 70.5303 67.6159 70.4117C67.7552 70.3411 67.8711 70.2331 67.9503 70.1001C68.0294 69.967 68.0685 69.8145 68.0628 69.6604C68.2004 54.7097 68.7505 39.5627 69.6101 24.6391C69.6312 24.487 69.6017 24.3324 69.5261 24.1982C69.4505 24.064 69.3328 23.9575 69.1906 23.8946Z" fill="#1E1E1E"/>
<path d="M16.8735 50.0398C16.6439 49.8581 16.3761 49.7287 16.0896 49.6609C15.8965 49.6229 15.7013 49.5958 15.5051 49.5797L13.6553 49.3834H13.5384C13.2874 49.3909 13.0373 49.3495 12.8026 49.2615C12.2662 49.0246 12.2525 48.402 12.2387 47.9485C12.2427 47.8922 12.2427 47.8357 12.2387 47.7793L12.1356 46.6085C11.998 45.1804 11.8742 43.6778 11.7505 42.0061C11.5304 38.8793 11.3654 35.7795 11.2623 32.788C11.1591 29.7965 11.1178 26.6967 11.1316 23.5495C11.1316 21.4176 11.1935 19.1097 11.2829 16.531C11.2829 16.355 11.2829 16.1791 11.2829 15.9964V15.3196C11.2829 14.9879 11.2829 14.6427 11.2829 14.3178C11.4135 11.2654 11.6061 8.16564 11.8605 5.09969C11.9155 4.5041 11.9637 3.9018 12.0187 3.30621L12.0668 2.73763H12.6445C17.6162 2.58873 22.8699 2.55495 28.715 2.62263H28.9969C36.4924 2.71738 43.7953 3.00163 50.6994 3.46186L51.3389 3.50243V4.13867C51.3389 4.42293 51.3045 4.71397 51.2632 4.99823C51.1335 5.79275 50.9168 6.57106 50.6168 7.31964C50.5813 7.41166 50.5666 7.51021 50.5737 7.6084C50.5808 7.70659 50.6096 7.80203 50.6581 7.88814C50.8344 8.21251 51.1333 8.45562 51.4902 8.56495C51.8002 8.62924 52.1232 8.58625 52.4047 8.44317C52.6701 8.29263 52.8706 8.05199 52.9686 7.76636C53.6357 6.09388 53.8719 4.28492 53.6563 2.50077C53.6455 2.19135 53.5181 1.897 53.2987 1.67508C53.0555 1.47062 52.7452 1.36001 52.4254 1.36377C52.3321 1.36343 52.2393 1.37708 52.1503 1.40434H52.0472H51.9371C44.6411 0.889962 36.9325 0.57864 29.0382 0.483887H28.8731C27.0508 0.483887 25.2698 0.483887 23.5231 0.483887C19.074 0.483887 14.8174 0.551531 10.6365 0.700429C10.4295 0.690554 10.224 0.738824 10.0438 0.839476C9.86365 0.940128 9.71623 1.08908 9.61875 1.26901C9.525 1.44823 9.47957 1.64811 9.48679 1.84957C9.49401 2.05102 9.55365 2.24728 9.66001 2.41955L9.79066 2.60908V2.8324C9.36432 7.39409 9.10299 12.0979 8.91732 17.2214C8.5661 28.098 8.96128 38.9855 10.1001 49.8098C10.1393 50.0935 10.2798 50.3542 10.4965 50.5452C10.7133 50.7362 10.992 50.845 11.2829 50.8521H11.496L11.6542 50.9942C11.9302 51.223 12.2712 51.3624 12.6307 51.3935L14.7349 51.6169L16.7085 51.8266C16.7927 51.8404 16.8787 51.8404 16.9629 51.8266C16.9629 51.8266 17.0454 51.7928 17.1486 51.6033C17.2617 51.4225 17.3299 51.218 17.3478 51.0063C17.3658 50.7947 17.3328 50.5818 17.2517 50.385C17.1506 50.246 17.022 50.1286 16.8735 50.0398Z" fill="#1E1E1E"/>
<path d="M6.5382 33.6544C6.35121 33.5562 6.15253 33.4812 5.94678 33.4311C6.18114 33.123 6.36452 32.7804 6.49006 32.4159C6.67048 31.9083 6.67522 31.3562 6.50357 30.8457C6.33193 30.3352 5.99352 29.895 5.54109 29.5936C5.21469 29.3923 4.8634 29.2331 4.49584 29.1198C4.654 28.8694 4.80527 28.5852 4.9153 28.443C5.33407 27.9668 5.79425 27.5274 6.29061 27.13C6.50476 26.9184 6.6418 26.643 6.68036 26.3467C6.71891 26.0505 6.65682 25.75 6.50378 25.4921C5.99963 24.8247 5.35446 24.2729 4.61273 23.8746L5.74738 22.257C6.33876 21.4177 7.21897 20.5108 7.5628 19.5497C8.14731 17.9186 6.96455 17.2418 5.59611 16.9034C6.13936 16.3619 6.69634 15.8408 7.28772 15.3399C7.43618 15.1933 7.54853 15.0151 7.61606 14.8191C7.6836 14.6231 7.70453 14.4145 7.6773 14.2092C7.65007 14.004 7.57538 13.8076 7.45897 13.6352C7.34255 13.4628 7.18753 13.319 7.0058 13.2148L5.14224 12.0981C4.90843 11.9559 4.61963 11.8138 4.33769 11.6649C4.49585 11.5228 4.64714 11.4009 4.72966 11.3197C5.09412 10.9678 5.4723 10.6429 5.86427 10.318C7.23958 9.20131 5.27291 7.29266 3.91823 8.40262C2.83173 9.29601 0.679364 10.8324 1.25012 12.4635C1.52518 13.2553 2.35723 13.6141 3.03801 14.0202L4.05573 14.6361C3.30246 15.3492 2.58858 16.1015 1.91713 16.8898C1.33262 17.5666 1.40139 18.9744 2.52227 19.1504L4.26206 19.4211H4.46835C4.08326 19.9761 3.65005 20.5108 3.27871 21.0387L1.21574 23.9287C0.569347 24.8491 1.46329 25.8779 2.40538 25.9591C2.69419 25.992 2.97538 26.072 3.23741 26.196C1.82084 27.624 0.356138 29.7695 2.25407 31.0825C2.57846 31.2908 2.9301 31.4548 3.29932 31.5699C3.4231 31.6105 3.58814 31.6849 3.73255 31.7188C3.54001 31.9218 3.29245 32.2399 3.09303 32.4497C2.62417 32.9194 2.26715 33.4858 2.04778 34.1079C1.96698 34.3958 1.98523 34.702 2.09966 34.9786C2.21409 35.2553 2.41826 35.4869 2.68041 35.6374C3.04867 35.8763 3.47188 36.0206 3.91135 36.0571C3.72568 36.2669 3.54687 36.4903 3.37495 36.7339C2.85985 37.4668 2.4718 38.2787 2.22658 39.1366C2.14055 39.4826 2.19235 39.8479 2.37138 40.1576C2.55041 40.4672 2.8431 40.6976 3.18932 40.8015C3.60434 40.961 3.98818 41.19 4.32392 41.4783C5.6511 42.6221 7.60406 40.7135 6.27 39.563C5.96007 39.298 5.62892 39.0581 5.27978 38.8456C5.48296 38.4554 5.73477 38.0915 6.02934 37.7626C6.64136 37.0858 7.44589 36.7001 7.63843 35.7728C7.70475 35.3507 7.63413 34.9188 7.43659 34.5384C7.23906 34.1581 6.92468 33.8487 6.5382 33.6544Z" fill="#00A99D"/>
<path d="M62.0733 61.4713C62.0734 61.3719 62.0533 61.2734 62.0143 61.1816C61.9754 61.0898 61.9183 61.0065 61.8464 60.9366C61.6988 60.805 61.509 60.7284 61.31 60.7201C60.2657 60.605 59.2117 60.605 58.1674 60.7201C58.0518 60.7319 57.9385 60.7592 57.8305 60.8013C57.7033 60.7313 57.5601 60.6946 57.4144 60.6946C57.2688 60.6946 57.1256 60.7313 56.9984 60.8013C56.8483 60.885 56.723 61.0058 56.6349 61.1518C56.5469 61.2979 56.4991 61.464 56.4964 61.6338C56.4551 62.0398 56.4964 62.4527 56.4414 62.8656C56.3933 63.7048 56.3107 64.5441 56.2007 65.3765C56.1998 65.4754 56.2189 65.5736 56.257 65.6651C56.295 65.7567 56.3512 65.8398 56.4222 65.9097C56.4933 65.9797 56.5778 66.035 56.6708 66.0724C56.7639 66.1099 56.8635 66.1287 56.964 66.1278C56.996 66.1309 57.0283 66.1309 57.0603 66.1278C57.1125 66.138 57.1662 66.138 57.2184 66.1278H57.2597C57.8993 65.8841 58.525 65.6067 59.1439 65.3089C59.4585 65.4561 59.7578 65.6329 60.0379 65.8368C60.255 66.0097 60.4595 66.1974 60.6499 66.3985C60.7575 66.5024 60.8939 66.5727 61.0419 66.6004C61.19 66.6281 61.3431 66.612 61.4819 66.5542C61.6175 66.4972 61.7336 66.4032 61.8165 66.2832C61.8994 66.1632 61.9456 66.0224 61.9495 65.8774L62.0114 64.3884C62.0148 64.3569 62.0148 64.3251 62.0114 64.2937C62.0183 63.3055 62.0252 62.4121 62.0733 61.4713ZM60.5192 64.226V64.2733C60.2677 64.1185 60.0057 63.9806 59.7353 63.8605C59.6158 63.7492 59.4636 63.6782 59.3005 63.6575C59.1373 63.6368 58.9718 63.6676 58.8276 63.7454C58.5112 63.9146 58.1812 64.0635 57.8511 64.2124C57.8511 63.9756 57.913 63.7319 57.9336 63.4882C57.9543 63.2446 57.9749 62.8791 57.9886 62.5745C57.9886 62.4595 57.9886 62.3444 57.9886 62.2294C58.0455 62.2397 58.1037 62.2397 58.1606 62.2294C58.9434 62.1415 59.7321 62.1143 60.5192 62.1481C60.5055 62.8453 60.5055 63.5356 60.5055 64.226H60.5192Z" fill="#1E1E1E"/>
</svg>
