<svg width="674" height="532" viewBox="0 0 674 532" fill="none" xmlns="http://www.w3.org/2000/svg">
<path d="M15.2901 146.567L20.1388 144.509C21.856 143.777 23.5992 143.018 25.3007 142.303C26.837 141.644 29.6122 141.092 29.0904 138.78C28.8803 137.686 28.033 137.201 27.2726 136.577C26.7073 136.135 26.1296 135.65 25.5267 135.215C24.2128 134.181 22.8561 133.16 21.4805 132.215C18.8149 130.327 15.9286 128.772 12.8851 127.583C12.6557 127.52 12.4156 127.504 12.1792 127.535C11.9428 127.567 11.7152 127.647 11.5098 127.769C11.3044 127.891 11.1254 128.053 10.9839 128.246C10.8423 128.438 10.7411 128.657 10.6861 128.89C10.6698 128.983 10.6694 129.078 10.6849 129.171C10.5288 129.451 10.433 129.76 10.4033 130.078C9.92016 135.33 9.37872 140.611 8.92309 145.877C8.91486 146.298 9.04418 146.71 9.29149 147.049C9.53879 147.388 9.89049 147.637 10.293 147.757C12.049 148.314 13.7108 147.229 15.2901 146.567ZM13.871 132.102C15.7773 132.995 17.6066 134.043 19.3404 135.236C20.5221 136.032 21.6405 136.874 22.765 137.732C23.1859 138.05 23.6071 138.379 24.0655 138.69L22.5349 139.355L18.4998 141.074L14.5969 142.717C13.985 142.963 13.3851 143.24 12.7732 143.485C13.1388 139.68 13.4835 135.898 13.871 132.102Z" fill="#F1F1F1"/>
<path d="M575.18 525.868L579.993 528.02C581.699 528.78 583.443 529.541 585.126 530.301C586.656 530.978 588.951 532.636 590.29 530.682C590.948 529.784 590.726 528.834 590.665 527.853C590.604 527.138 590.565 526.385 590.474 525.647C590.336 523.982 590.16 522.294 589.915 520.643C589.482 517.408 588.654 514.236 587.452 511.198C587.342 510.987 587.19 510.8 587.006 510.649C586.821 510.497 586.608 510.384 586.379 510.317C586.149 510.249 585.908 510.229 585.671 510.256C585.433 510.283 585.204 510.358 584.996 510.476C584.917 510.527 584.847 510.592 584.789 510.666C584.478 510.742 584.186 510.882 583.933 511.077C579.755 514.294 575.517 517.488 571.348 520.735C571.034 521.015 570.82 521.389 570.74 521.801C570.66 522.213 570.718 522.64 570.904 523.016C571.692 524.682 573.62 525.161 575.18 525.868ZM584.812 514.993C585.457 516.997 585.936 519.049 586.243 521.13C586.465 522.537 586.61 523.929 586.748 525.336C586.801 525.86 586.847 526.393 586.931 526.94L585.401 526.271L581.393 524.484L577.529 522.742C576.932 522.461 576.321 522.21 575.724 521.929C578.761 519.609 581.767 517.29 584.812 514.993Z" fill="#F1F1F1"/>
<path d="M365.142 414.651L365.814 419.874C366.054 421.725 366.314 423.608 366.543 425.439C366.763 427.097 366.544 429.917 368.912 430.039C370.021 430.132 370.718 429.447 371.524 428.883C372.102 428.458 372.725 428.032 373.307 427.569C374.658 426.583 376.008 425.553 377.29 424.483C379.827 422.426 382.105 420.067 384.071 417.457C384.194 417.253 384.275 417.026 384.308 416.79C384.341 416.554 384.327 416.313 384.265 416.083C384.203 415.852 384.095 415.636 383.947 415.448C383.8 415.259 383.616 415.103 383.407 414.987C383.322 414.946 383.231 414.92 383.137 414.91C382.91 414.685 382.638 414.509 382.34 414.394C377.413 412.512 372.475 410.566 367.526 408.707C367.123 408.585 366.692 408.599 366.299 408.745C365.905 408.892 365.571 409.163 365.347 409.518C364.335 411.059 364.932 412.952 365.142 414.651ZM379.454 417.187C378.079 418.782 376.576 420.26 374.958 421.608C373.873 422.53 372.76 423.38 371.63 424.231C371.21 424.551 370.779 424.868 370.355 425.225L370.129 423.572L369.564 419.223L369.036 415.022C368.965 414.367 368.86 413.714 368.789 413.059C372.355 414.438 375.904 415.79 379.454 417.187Z" fill="#F1F1F1"/>
<path d="M88.7508 332.303L93.5628 334.455C95.2689 335.216 97.0131 335.976 98.6962 336.737C100.226 337.414 102.521 339.071 103.86 337.117C104.518 336.22 104.296 335.269 104.235 334.288C104.174 333.573 104.136 332.82 104.044 332.083C103.906 330.417 103.73 328.729 103.485 327.079C103.052 323.843 102.225 320.671 101.022 317.634C100.912 317.423 100.76 317.236 100.576 317.084C100.392 316.933 100.178 316.82 99.9491 316.752C99.7197 316.685 99.4788 316.664 99.2412 316.691C99.0036 316.719 98.774 316.794 98.5662 316.911C98.487 316.963 98.4171 317.027 98.3596 317.101C98.0483 317.177 97.7565 317.317 97.5029 317.512C93.3258 320.729 89.0876 323.923 84.9181 327.17C84.6041 327.45 84.3907 327.825 84.3106 328.237C84.2305 328.648 84.288 329.075 84.4744 329.451C85.2624 331.117 87.1901 331.596 88.7508 332.303ZM98.3826 321.428C99.0274 323.432 99.5059 325.484 99.8133 327.565C100.035 328.972 100.18 330.364 100.318 331.771C100.372 332.296 100.418 332.828 100.502 333.375L98.9717 332.706L94.9629 330.919L91.0995 329.178C90.5027 328.896 89.8908 328.645 89.2941 328.364C92.3313 326.045 95.3378 323.725 98.3826 321.428Z" fill="#F1F1F1"/>
<path d="M658.034 234.853L662.846 237.006C664.552 237.766 666.296 238.527 667.979 239.287C669.509 239.964 671.804 241.622 673.143 239.667C673.801 238.77 673.579 237.819 673.518 236.838C673.457 236.123 673.419 235.371 673.327 234.633C673.189 232.967 673.013 231.279 672.768 229.629C672.335 226.393 671.508 223.222 670.305 220.184C670.195 219.973 670.043 219.786 669.859 219.634C669.675 219.483 669.461 219.37 669.232 219.303C669.003 219.235 668.762 219.214 668.524 219.242C668.287 219.269 668.057 219.344 667.849 219.462C667.77 219.513 667.7 219.577 667.643 219.652C667.331 219.728 667.039 219.868 666.786 220.062C662.609 223.279 658.371 226.473 654.201 229.72C653.887 230 653.674 230.375 653.594 230.787C653.513 231.199 653.571 231.625 653.757 232.002C654.545 233.667 656.473 234.146 658.034 234.853ZM667.666 223.979C668.31 225.982 668.789 228.035 669.096 230.116C669.318 231.523 669.463 232.914 669.601 234.321C669.655 234.846 669.701 235.378 669.785 235.926L668.255 235.256L664.246 233.469L660.382 231.728C659.786 231.447 659.174 231.196 658.577 230.914C661.614 228.595 664.621 226.275 667.666 223.979Z" fill="#F1F1F1"/>
<path d="M135.953 506.882L137.471 511.729C138.01 513.445 138.549 515.197 139.05 516.92C139.513 518.431 139.741 521.144 142.086 520.91C143.187 520.822 143.764 520.066 144.477 519.399C144.978 518.908 145.517 518.409 145.995 517.881C147.164 516.722 148.333 515.535 149.418 514.325C151.585 511.973 153.45 509.378 154.974 506.596C155.063 506.383 155.106 506.156 155.101 505.927C155.097 505.698 155.044 505.472 154.947 505.264C154.85 505.055 154.71 504.867 154.536 504.712C154.362 504.556 154.158 504.436 153.935 504.359C153.842 504.342 153.746 504.342 153.654 504.359C153.396 504.178 153.101 504.053 152.788 503.992C147.657 502.973 142.511 501.924 137.342 500.913C136.932 500.866 136.518 500.948 136.16 501.146C135.802 501.344 135.519 501.648 135.353 502.012C134.594 503.604 135.475 505.305 135.953 506.882ZM150.413 507.043C149.315 508.772 148.071 510.41 146.693 511.941C145.775 512.99 144.811 513.973 143.839 514.955C143.475 515.322 143.08 515.689 142.746 516.099C142.587 515.593 142.435 515.087 142.276 514.581L141.039 510.548C140.636 509.235 140.279 507.952 139.854 506.64C139.68 506.031 139.475 505.43 139.3 504.821C143.004 505.554 146.701 506.28 150.413 507.043Z" fill="#F1F1F1"/>
<path d="M331.059 215.867L332.577 220.714C333.116 222.43 333.655 224.183 334.156 225.906C334.619 227.417 334.847 230.13 337.192 229.895C338.293 229.807 338.87 229.052 339.583 228.385C340.084 227.893 340.623 227.395 341.101 226.867C342.27 225.708 343.439 224.52 344.525 223.31C346.691 220.959 348.557 218.364 350.081 215.581C350.169 215.369 350.212 215.141 350.208 214.912C350.203 214.684 350.151 214.458 350.053 214.249C349.956 214.04 349.817 213.853 349.643 213.697C349.469 213.542 349.264 213.422 349.041 213.345C348.948 213.328 348.853 213.328 348.76 213.345C348.502 213.164 348.207 213.039 347.895 212.978C342.764 211.959 337.617 210.91 332.448 209.898C332.039 209.852 331.624 209.934 331.266 210.132C330.908 210.33 330.626 210.633 330.46 210.998C329.701 212.589 330.581 214.291 331.059 215.867ZM345.519 216.028C344.421 217.757 343.177 219.396 341.8 220.927C340.881 221.976 339.917 222.958 338.946 223.941C338.581 224.307 338.187 224.674 337.853 225.085C337.693 224.579 337.541 224.073 337.382 223.567L336.145 219.534C335.743 218.221 335.386 216.938 334.961 215.625C334.786 215.017 334.581 214.415 334.407 213.807C338.111 214.54 341.807 215.266 345.519 216.028Z" fill="#F1F1F1"/>
<path d="M495.43 6.28341L496.948 11.1305C497.487 12.8464 498.025 14.599 498.526 16.3223C498.989 17.8329 499.217 20.5461 501.563 20.3114C502.663 20.2234 503.24 19.4681 503.954 18.8008C504.455 18.3095 504.994 17.8109 505.472 17.2829C506.641 16.1243 507.809 14.9363 508.895 13.7264C511.062 11.375 512.927 8.78 514.451 5.99743C514.54 5.78504 514.583 5.55761 514.578 5.32872C514.573 5.09984 514.521 4.87422 514.424 4.66539C514.327 4.45656 514.187 4.26882 514.013 4.11339C513.839 3.95797 513.634 3.83807 513.411 3.76088C513.319 3.744 513.223 3.744 513.13 3.76088C512.873 3.57999 512.578 3.45494 512.265 3.39423C507.134 2.37494 501.988 1.32632 496.819 0.314367C496.409 0.268082 495.995 0.349949 495.637 0.547931C495.279 0.745914 494.996 1.04957 494.83 1.41431C494.071 3.00557 494.951 4.70682 495.43 6.28341ZM509.889 6.44474C508.791 8.17374 507.547 9.81213 506.17 11.3432C505.252 12.3918 504.288 13.3744 503.316 14.357C502.952 14.7237 502.557 15.0903 502.223 15.501C502.064 14.995 501.912 14.489 501.752 13.983L500.515 9.9499C500.113 8.6373 499.756 7.35403 499.331 6.04143C499.157 5.4328 498.952 4.83148 498.777 4.22285C502.481 4.95614 506.178 5.68211 509.889 6.44474Z" fill="#F1F1F1"/>
<path d="M234.721 34.082L239.263 36.3651C240.871 37.1722 242.507 38.0048 244.094 38.8443C245.503 39.563 247.612 41.2873 249.075 39.4411C249.778 38.5902 249.636 37.6507 249.652 36.6745C249.648 35.9732 249.664 35.2396 249.617 34.5291C249.597 32.8843 249.556 31.2192 249.441 29.5986C249.258 26.408 248.69 23.2639 247.75 20.2344C247.658 20.0232 247.525 19.834 247.357 19.6781C247.189 19.5223 246.991 19.4029 246.773 19.3272C246.555 19.2516 246.323 19.2213 246.09 19.238C245.857 19.2547 245.629 19.3181 245.418 19.4245C245.341 19.4793 245.275 19.5477 245.222 19.626C244.913 19.6852 244.618 19.8099 244.357 19.9918C240.054 22.9644 235.719 25.9275 231.396 28.9324C231.077 29.1941 230.848 29.5484 230.741 29.943C230.634 30.3375 230.656 30.7516 230.803 31.1245C231.419 32.7763 233.255 33.3282 234.721 34.082ZM244.897 23.8189C245.377 25.8097 245.689 27.8421 245.832 29.8956C245.947 31.2842 245.983 32.6595 246.014 34.0403C246.024 34.5568 246.013 35.0951 246.076 35.6204C245.601 35.3828 245.131 35.1397 244.657 34.9021L240.896 32.9838C239.672 32.3592 238.501 31.7224 237.262 31.1142C236.703 30.816 236.128 30.5447 235.568 30.2465C238.673 28.0988 241.767 25.9516 244.897 23.8189Z" fill="#F1F1F1"/>
</svg>
