<svg width="17" height="16" viewBox="0 0 17 16" fill="none" xmlns="http://www.w3.org/2000/svg">
<path d="M1.6212 4.12131L1.40934 8.04143C1.33552 9.42959 1.25113 10.8443 1.14541 12.2277C1.07146 13.4467 0.464852 15.475 2.37284 15.9309C3.26177 16.1609 3.93303 15.7672 4.68592 15.4738C5.22114 15.2513 5.78826 15.0335 6.31623 14.7783C7.56861 14.2502 8.82934 13.7008 10.0311 13.1131C12.4114 11.9864 14.6261 10.6026 16.627 8.99167C16.7579 8.86127 16.8576 8.70788 16.9202 8.54065C16.9827 8.37342 17.0069 8.19582 16.9912 8.01847C16.9755 7.84112 16.9201 7.66767 16.8286 7.50852C16.7371 7.34937 16.6113 7.2078 16.4586 7.09227C16.3907 7.05526 16.3159 7.02981 16.2382 7.01727C16.0883 6.81729 15.893 6.64784 15.6655 6.52043C11.935 4.41156 8.20099 2.27735 4.43857 0.163671C4.13056 0.0207477 3.78183 -0.030484 3.44371 0.0175298C3.10559 0.0655435 2.79597 0.210297 2.56011 0.430451C1.50407 1.38173 1.70234 2.85039 1.6212 4.12131ZM12.9187 8.09827C11.5569 9.05895 10.1068 9.91497 8.5831 10.6575C7.55907 11.1728 6.5184 11.628 5.47178 12.0812C5.07983 12.2498 4.66409 12.4103 4.28322 12.6189C4.30461 12.2095 4.33188 11.802 4.35327 11.3926L4.54996 8.13767C4.61424 7.07845 4.70573 6.05265 4.75215 4.98735C4.79134 4.49939 4.8046 4.00864 4.84379 3.52069C7.53756 5.04124 10.2274 6.55442 12.9187 8.09827Z" fill="#FBB03B"/>
</svg>
