<svg width="81" height="77" viewBox="0 0 81 77" fill="none" xmlns="http://www.w3.org/2000/svg">
<path d="M57.8315 73.7651L55.1569 76.0524L33.7599 74.9087L6.34509 75.4806V46.3177L7.6824 22.3012H21.0555V16.583L27.742 16.0112L28.4107 10.293L71.8733 10.8648L71.2046 56.6105H64.5181L63.8494 62.3287H57.8315V73.7651Z" fill="white"/>
<path d="M63.4037 57.2689C63.3485 55.5909 63.3091 53.9064 63.2697 52.2285C63.0176 40.6637 63.099 29.0966 63.514 17.5274C60.1971 17.6529 56.8486 17.5274 53.5317 17.4349L42.3125 17.2103C36.238 17.0848 29.62 16.9527 23.3407 17.0452C23.2546 17.0572 23.1667 17.0572 23.0807 17.0452C22.7892 17.0452 22.5055 17.0452 22.2219 17.0452C22.088 18.4126 21.9855 19.78 21.8752 21.154C25.2709 21.2003 28.643 21.2664 31.8811 21.3324C36.1908 21.4183 40.5004 21.5108 44.81 21.5901C49.1197 21.6693 53.3426 21.8807 57.5813 21.6429C57.9259 21.6092 58.2732 21.6821 58.5583 21.8477C58.7891 21.8996 58.9924 22.0151 59.1353 22.1757C59.2783 22.3363 59.3525 22.5326 59.3462 22.7329C59.2043 26.6656 59.0914 30.5962 59.0074 34.5245C58.8761 41.4211 58.8419 48.3178 58.905 55.2144C58.905 57.2887 58.968 59.363 59.0074 61.4373L63.0964 61.5561C63.6322 60.1755 63.4431 58.7024 63.4037 57.2689Z" fill="#FBB03B"/>
<path d="M47.9298 53.9987C46.9765 54.2167 46.2122 54.6064 45.1565 54.5536C44.7349 54.5313 44.3214 54.4463 43.9353 54.3025C43.5802 54.1164 43.2088 53.953 42.8244 53.8137C42.5014 53.7543 42.5802 53.7212 42.1784 53.8797C41.8563 54.0211 41.5249 54.1468 41.1857 54.2563C40.5407 54.4463 39.841 54.4625 39.1845 54.3025C38.7606 54.1841 38.3694 53.9954 38.0342 53.7477C37.9948 53.7477 37.9081 53.6354 37.8215 53.5759C37.7348 53.5164 37.8215 53.5759 37.7821 53.6353C37.2325 54.0014 36.6039 54.275 35.9306 54.4412C35.1465 54.5924 34.3275 54.5558 33.567 54.3356C32.9335 54.0822 32.2743 53.8765 31.5973 53.7212C31.3293 53.7072 31.0608 53.7409 30.8094 53.8203C30.8411 53.9656 30.9152 54.1019 31.0252 54.2172C31.1352 54.3325 31.2777 54.4232 31.4397 54.4809C33.1888 55.1944 35.0167 55.736 36.8839 54.9697C37.2095 54.7788 37.5851 54.6565 37.979 54.613C38.3949 54.6491 38.8045 54.7244 39.2002 54.8376C40.093 55.0408 41.0385 55.0109 41.9105 54.7517C42.2114 54.6089 42.5438 54.519 42.8874 54.4875C43.2802 54.5569 43.6577 54.6772 44.0062 54.8442C44.8166 55.1513 45.7258 55.2234 46.5904 55.049C47.008 54.9565 47.3783 54.7914 47.8116 54.7055C48.1958 54.6603 48.5873 54.692 48.954 54.798C49.3818 54.8938 49.8313 54.8987 50.2619 54.8122C50.6924 54.7257 51.0905 54.5505 51.42 54.3025C51.6205 54.1482 51.7513 53.9405 51.7903 53.7146C51.3718 53.8289 50.9376 53.8978 50.4982 53.9194C49.641 53.8764 48.7809 53.903 47.9298 53.9987Z" fill="#FBB03B"/>
<path d="M19.1564 34.4385C19.2017 34.6824 19.3498 34.9046 19.5739 35.0646C19.798 35.2246 20.0832 35.3119 20.3776 35.3106C29.5221 35.5836 38.6666 35.5374 47.8111 35.1719C48.1325 35.1687 48.4402 35.062 48.6705 34.8738C48.9007 34.6857 49.0359 34.4305 49.048 34.1611C48.8915 34.1819 48.7336 34.1951 48.5753 34.2007C38.7847 34.5266 28.9784 34.6059 19.1564 34.4385Z" fill="#FBB03B"/>
<path d="M7.59889 71.2798C8.08108 70.8872 8.4399 70.4006 8.64335 69.8635C8.84681 69.3264 8.88858 68.7554 8.76493 68.2015C8.07949 64.4096 8.76493 60.4064 8.56009 56.5618C8.35524 52.7171 9.02493 48.9319 9.04856 45.0872C9.09156 44.5689 8.96806 44.0504 8.69094 43.5856C8.41381 43.1209 7.99318 42.727 7.47283 42.4448C7.11566 52.0543 7.15769 61.6659 7.59889 71.2798Z" fill="#FBB03B"/>
<path d="M4.99016 42.1611C4.2435 42.3378 3.5929 42.726 3.14905 43.2595C2.7052 43.7931 2.49551 44.4391 2.55564 45.0876C2.55564 53.246 1.03506 61.761 2.50837 69.8665C2.792 71.4189 3.92653 72.0927 5.14773 72.1192C5.01379 69.2984 4.89561 66.4777 4.83259 63.657C4.65925 56.4961 4.71178 49.3308 4.99016 42.1611Z" fill="#FBB03B"/>
<path d="M11.8057 30.0789C19.3061 30.0789 26.7961 30.2991 34.2756 30.7395C36.3241 30.8584 36.3162 28.586 34.2756 28.4737C26.7961 28.0554 19.3061 27.8352 11.8057 27.8131C11.6132 27.7918 11.4176 27.805 11.2318 27.8522C11.046 27.8993 10.8743 27.9792 10.7283 28.0865C10.5823 28.1938 10.4653 28.3259 10.3852 28.4741C10.305 28.6224 10.2635 28.7833 10.2635 28.946C10.2635 29.1088 10.305 29.2697 10.3852 29.4179C10.4653 29.5662 10.5823 29.6983 10.7283 29.8056C10.8743 29.9128 11.046 29.9928 11.2318 30.0399C11.4176 30.0871 11.6132 30.1003 11.8057 30.0789Z" fill="#1E1E1E"/>
<path d="M12.6014 34.3069C14.7838 34.3664 16.9741 34.3994 19.1565 34.439C19.1141 34.289 19.1143 34.1328 19.1572 33.9829C19.2 33.833 19.2842 33.6937 19.403 33.5761C19.5218 33.4585 19.6719 33.3659 19.8412 33.3058C20.0105 33.2457 20.1942 33.2198 20.3777 33.2302C29.5222 33.5032 38.6666 33.457 47.8111 33.0915C47.9815 33.076 48.1539 33.0934 48.3151 33.1422C48.4763 33.191 48.6221 33.27 48.7414 33.3732C48.8607 33.4764 48.9503 33.6011 49.0034 33.7377C49.0566 33.8743 49.0719 34.0193 49.0481 34.1616C51.6717 33.8512 51.5378 31.8297 48.5754 31.9288C36.5998 32.3296 24.6085 32.367 12.6014 32.0411C9.5051 31.9553 9.5051 34.2211 12.6014 34.3069Z" fill="#1E1E1E"/>
<path d="M47.8108 33.0909C38.6716 33.4521 29.5271 33.4983 20.3773 33.2296C20.1939 33.2193 20.0101 33.2452 19.8409 33.3053C19.6716 33.3653 19.5215 33.458 19.4027 33.5756C19.2838 33.6932 19.1996 33.8325 19.1568 33.9824C19.114 34.1323 19.1137 34.2885 19.1561 34.4385C28.9624 34.597 38.7687 34.5178 48.575 34.2007C48.7334 34.195 48.8912 34.1818 49.0478 34.1611C49.0715 34.0188 49.0563 33.8738 49.0031 33.7372C48.9499 33.6005 48.8603 33.4759 48.741 33.3727C48.6218 33.2695 48.476 33.1905 48.3148 33.1417C48.1536 33.0928 47.9812 33.0755 47.8108 33.0909Z" fill="#1E1E1E"/>
<path d="M19.1564 66.8605C19.2017 67.1044 19.3498 67.3265 19.5739 67.4865C19.798 67.6465 20.0832 67.7338 20.3776 67.7324C29.5221 68.0099 38.6666 67.9637 47.8111 67.5937C48.1325 67.5905 48.4402 67.4838 48.6705 67.2957C48.9007 67.1076 49.0359 66.8524 49.048 66.583C48.8915 66.6037 48.7336 66.617 48.5753 66.6227C38.7847 66.9486 28.9784 67.0278 19.1564 66.8605Z" fill="#FBB03B"/>
<path d="M11.8056 62.5003C19.3061 62.5003 26.7961 62.7205 34.2756 63.1609C36.324 63.2732 36.3161 61.0007 34.2756 60.8884C26.7961 60.47 19.3061 60.2498 11.8056 60.2278C11.6154 60.2106 11.423 60.2272 11.2409 60.2764C11.0588 60.3257 10.8911 60.4065 10.7487 60.5137C10.6063 60.6208 10.4924 60.752 10.4145 60.8985C10.3366 61.045 10.2963 61.2036 10.2963 61.364C10.2963 61.5244 10.3366 61.6831 10.4145 61.8296C10.4924 61.9761 10.6063 62.1072 10.7487 62.2144C10.8911 62.3216 11.0588 62.4024 11.2409 62.4517C11.423 62.5009 11.6154 62.5175 11.8056 62.5003Z" fill="#1E1E1E"/>
<path d="M48.5754 64.3502C36.5998 64.751 24.6085 64.7884 12.6014 64.4625C9.44993 64.3767 9.44993 66.6425 12.6014 66.7283C14.7838 66.7878 16.9741 66.8209 19.1564 66.8605C19.1141 66.7105 19.1143 66.5543 19.1571 66.4044C19.2 66.2545 19.2842 66.1151 19.403 65.9975C19.5218 65.8799 19.6719 65.7873 19.8412 65.7272C20.0105 65.6671 20.1942 65.6412 20.3776 65.6516C29.5221 65.9202 38.6666 65.874 47.8111 65.5129C47.9812 65.4987 48.1529 65.517 48.3133 65.5662C48.4738 65.6155 48.6189 65.6945 48.7379 65.7974C48.8568 65.9003 48.9465 66.0244 49.0002 66.1605C49.0539 66.2965 49.0703 66.4409 49.0481 66.583C51.6717 66.2725 51.5377 64.2511 48.5754 64.3502Z" fill="#1E1E1E"/>
<path d="M47.8108 65.5129C38.6716 65.8741 29.5271 65.9203 20.3773 65.6516C20.1939 65.6413 20.0101 65.6672 19.8409 65.7273C19.6716 65.7874 19.5215 65.88 19.4027 65.9976C19.2838 66.1152 19.1996 66.2546 19.1568 66.4045C19.114 66.5544 19.1137 66.7106 19.1561 66.8606C28.9624 67.0191 38.7687 66.9399 48.575 66.6228C48.7334 66.6171 48.8912 66.6038 49.0478 66.5831C49.07 66.441 49.0536 66.2966 48.9999 66.1606C48.9461 66.0245 48.8565 65.9004 48.7375 65.7975C48.6186 65.6946 48.4735 65.6156 48.313 65.5663C48.1525 65.5171 47.9809 65.4988 47.8108 65.5129Z" fill="#1E1E1E"/>
<path d="M58.0373 75.9172C58.2233 75.8066 58.3703 75.656 58.4628 75.4812C59.1014 74.0343 59.3489 72.4865 59.1876 70.9496C59.1325 69.1792 59.0852 67.4154 59.0379 65.6648C59.0379 64.8655 59.0379 64.0596 58.9985 63.2537H58.1161V61.4634H58.4076C57.9648 60.874 57.7991 60.1677 57.9428 59.4816C59.1876 52.8757 57.7694 46.0781 57.9428 39.4259C58.0216 36.0371 58.2343 32.6416 58.0373 29.2527C57.8955 26.8349 57.0289 24.3247 57.4779 21.9267C46.6999 22.1844 35.8904 22.5874 25.1203 22.1183C24.8673 22.1121 24.6161 22.0811 24.3718 22.0258H24.0803C23.6342 22.0483 23.1894 21.9659 22.7961 21.788C22.4483 21.6919 22.1306 21.5316 21.8664 21.319L21.8191 21.8607H19.6682C19.6682 21.6097 19.7076 21.3652 19.7313 21.1142C16.3198 21.1142 12.9005 21.0746 9.5678 21.1142C8.85601 21.0779 8.14185 21.0911 7.43267 21.1538C7.26864 21.145 7.10492 21.1747 6.95996 21.2397C6.80668 21.2836 6.66866 21.3585 6.55814 21.4577C6.32641 21.655 6.19628 21.9207 6.19573 22.1976C6.20089 22.3283 6.23012 22.4575 6.28239 22.5807C5.67311 29.0898 5.24503 35.6055 4.99817 42.1277C5.41299 42.0368 5.84519 42.0157 6.26981 42.0656C6.69442 42.1155 7.10304 42.2354 7.47207 42.4184C7.57449 39.6175 7.70055 36.8166 7.87388 34.0223C8.09448 30.4022 8.38599 26.7954 8.7169 23.1819C9.0478 23.1819 9.3787 23.1819 9.70961 23.1819C9.80885 23.1944 9.90976 23.1944 10.009 23.1819C17.2574 23.0762 24.876 23.2281 31.888 23.3734L44.8169 23.6311C48.6381 23.7103 52.4986 23.8821 56.3198 23.7368C55.8523 37.0676 55.7604 50.4029 56.044 63.7425C56.0834 65.6781 56.1386 67.6135 56.1937 69.5491C56.241 71.2006 56.4616 72.9049 55.7919 74.5036C45.5496 74.1336 35.3625 74.1667 25.1518 74.2658L16.2331 74.345C14.2162 74.345 12.1441 74.312 10.1114 74.4309C10.0149 74.4176 9.91643 74.4176 9.81991 74.4309C9.29362 74.4452 8.7668 74.4254 8.24417 74.3715L7.7557 74.3054C7.70055 73.3013 7.66116 72.3236 7.61389 71.2865C6.96113 71.8262 6.0804 72.1278 5.16363 72.1254C5.21878 73.2088 5.26604 74.2856 5.32907 75.369C5.34086 75.5392 5.40071 75.7046 5.50368 75.8517C5.60665 75.9987 5.7498 76.1232 5.92135 76.2148C6.09291 76.3064 6.28795 76.3626 6.49043 76.3786C6.69292 76.3946 6.89704 76.37 7.08601 76.307H7.13329C7.7355 76.4094 8.34695 76.4691 8.96114 76.4853V76.6241C9.4181 76.6241 9.84355 76.5448 10.1745 76.5184C11.2853 76.4325 12.3805 76.4656 13.4914 76.459C16.0441 76.459 19.5343 76.4061 22.087 76.3731C27.1924 76.3203 32.3293 76.274 37.4031 76.2806C43.8321 76.2806 50.2611 76.3665 56.6822 76.6109C56.9691 76.6456 57.2614 76.5954 57.5088 76.4687C57.7561 76.3421 57.9431 76.1471 58.0373 75.9172Z" fill="#1E1E1E"/>
<path d="M58.8654 55.2205C58.7919 48.3239 58.826 41.4272 58.9678 34.5306C59.0466 30.6023 59.1596 26.6717 59.3066 22.739C59.313 22.5387 59.2387 22.3424 59.0958 22.1819C58.9529 22.0213 58.7496 21.9057 58.5188 21.8538C58.2336 21.6882 57.8863 21.6154 57.5418 21.649C53.3031 21.8868 49.0171 21.682 44.7705 21.5962C40.5239 21.5103 36.1512 21.4244 31.8416 21.3385C28.6035 21.2725 25.2314 21.2064 21.8357 21.1602C21.8357 21.2196 21.8357 21.2791 21.8357 21.3385C22.0999 21.5512 22.4176 21.7114 22.7654 21.8075C23.1588 21.9854 23.6035 22.0678 24.0496 22.0454H24.3411C24.5854 22.1007 24.8366 22.1316 25.0896 22.1378C35.8597 22.5936 46.6692 22.2039 57.4473 21.9463C56.9982 24.3443 57.8648 26.8545 58.0066 29.2723C58.2036 32.6612 58.0066 36.0566 57.9121 39.4455C57.7466 46.0977 59.1648 52.8952 57.9121 59.5012C57.7685 60.1873 57.9341 60.8936 58.3769 61.483H58.9363C58.9284 59.3691 58.8812 57.2684 58.8654 55.2205Z" fill="#1E1E1E"/>
<path d="M7.46476 42.4514C7.09573 42.2684 6.6871 42.1485 6.26249 42.0986C5.83787 42.0487 5.40568 42.0698 4.99086 42.1608C4.71248 49.326 4.65996 56.4913 4.83329 63.6566C4.89632 66.4773 5.01449 69.2981 5.14843 72.1188C6.06521 72.1211 6.94593 71.8196 7.59869 71.2798C7.15749 61.6748 7.11284 52.0653 7.46476 42.4514Z" fill="#1E1E1E"/>
<path d="M21.0156 20.3413C20.8108 20.0116 20.713 19.6425 20.732 19.2711V19.1654C20.7284 18.6702 20.8864 18.1837 21.1889 17.7583L21.7089 17.1969C22.1215 16.8564 22.6315 16.6107 23.1901 16.4834L24.0725 16.3843C24.4536 16.3702 24.8335 16.4289 25.1834 16.5561C36.8438 17.0383 48.5515 16.5561 60.212 16.2985C60.6857 16.281 61.1585 16.3486 61.5986 16.4967H61.6538C62.1699 16.4785 62.6831 16.5708 63.1448 16.765C63.6066 16.9591 64.0018 17.2487 64.2931 17.6064C64.2626 16.9686 64.2995 16.3297 64.4034 15.6973C62.8277 15.7832 61.1732 15.7964 59.5502 15.7766C50.3873 16.0078 41.2007 16.2324 32.0457 15.8493C31.7961 15.8366 31.5483 15.8057 31.3051 15.7568H31.0136C30.5672 15.7735 30.1236 15.689 29.7294 15.5124C29.4707 15.4415 29.2283 15.3343 29.0124 15.1953H28.9179L28.8706 15.7634H26.7119L26.7592 15.1953C25.4828 15.1953 24.2065 15.1953 22.9538 15.2283C22.3377 15.1854 21.7184 15.1854 21.1023 15.2283C20.9603 15.2279 20.82 15.255 20.6926 15.3076C20.5606 15.3443 20.4415 15.4079 20.3459 15.4925C20.2429 15.5791 20.1618 15.6822 20.1077 15.7958C20.0535 15.9093 20.0274 16.0309 20.0308 16.1531C20.0326 16.2685 20.0593 16.3826 20.1096 16.4901C19.9599 18.0226 19.8417 19.5618 19.7235 21.1142H21.6301C21.3593 20.8981 21.1493 20.6341 21.0156 20.3413Z" fill="#1E1E1E"/>
<path d="M65.1911 55.4853H65.6166C65.326 55.1932 65.1114 54.8534 64.9863 54.4878C64.9772 56.644 64.7798 58.7967 64.3954 60.9286C63.9384 63.3728 60.7003 63.3992 58.9749 62.0185V63.2209C60.5506 63.2605 62.1893 63.3001 63.7887 63.3596C64.0397 63.3928 64.2966 63.3507 64.5142 63.2408C64.7318 63.1308 64.8962 62.96 64.9784 62.7585C65.1423 62.6625 65.2707 62.5296 65.3487 62.3753C65.9115 61.1106 66.1269 59.7558 65.979 58.4117C65.979 58.0219 65.979 57.6388 65.979 57.249H65.1911V55.4853Z" fill="#1E1E1E"/>
<path d="M64.8683 33.1567C64.955 29.7613 65.1677 26.3658 64.9629 22.9769C64.9156 22.1247 64.7738 21.266 64.632 20.394C64.5785 20.5164 64.5154 20.6355 64.4429 20.7507C64.5404 21.2139 64.4887 21.6906 64.2932 22.1314C63.6314 23.7102 64.3483 25.4872 64.5374 27.1056C64.7265 28.7241 64.7895 30.3095 64.7974 31.9082C64.7974 35.1253 64.6005 38.3424 64.5926 41.5595C64.5926 45.272 64.9156 48.945 64.9786 52.6245C66.0344 46.2035 64.7186 39.6108 64.8683 33.1567Z" fill="#1E1E1E"/>
<path d="M22.2209 17.0515C22.5045 17.0515 22.7881 17.0515 23.0796 17.0515C23.1657 17.0636 23.2536 17.0636 23.3396 17.0515C29.6426 16.959 36.237 17.0911 42.3115 17.2166L53.5307 17.4412C56.8476 17.5073 60.196 17.6592 63.5129 17.5337C63.1033 29.103 63.0218 40.67 63.2687 52.2349C63.2687 53.9128 63.3475 55.5973 63.4026 57.2752C63.442 58.7087 63.6311 60.1818 63.056 61.5691L58.967 61.4501C58.967 61.6483 58.967 61.8399 58.967 62.0381C60.6924 63.4187 63.9305 63.3593 64.3875 60.9481C64.7719 58.8161 64.9693 56.6634 64.9784 54.5073C64.8229 54.0794 64.7878 53.6272 64.876 53.1861C64.9153 52.9879 64.939 52.7963 64.9705 52.6047C64.9075 48.9252 64.5766 45.2523 64.5844 41.5398C64.5844 38.3227 64.8129 35.1056 64.7893 31.8885C64.7893 30.2898 64.7184 28.6846 64.5293 27.086C64.3402 25.4873 63.6232 23.6905 64.2851 22.1117C64.4806 21.6708 64.5323 21.1942 64.4347 20.731C64.5072 20.6157 64.5704 20.4966 64.6238 20.3743C64.4741 19.4429 64.3323 18.5114 64.2851 17.5866C63.9938 17.2289 63.5986 16.9392 63.1368 16.7451C62.675 16.5509 62.1618 16.4586 61.6457 16.4768H61.5906C61.1504 16.3287 60.6777 16.2611 60.2039 16.2786C48.5435 16.523 36.8358 17.0184 25.1754 16.5362C24.8254 16.409 24.4455 16.3503 24.0645 16.3644L23.1821 16.4635C22.6235 16.5908 22.1134 16.8366 21.7009 17.177L21.1809 17.7385C20.8784 18.1638 20.7204 18.6504 20.7239 19.1456V19.2512C20.7522 19.9474 21.07 20.6135 21.6221 21.134H21.8663C21.9845 19.7864 22.1106 18.4189 22.2209 17.0515Z" fill="#1E1E1E"/>
<path d="M42.3124 15.4196C38.0421 15.3337 33.5119 15.2412 29.0132 15.228C29.229 15.367 29.4715 15.4742 29.7301 15.5451C30.1243 15.7217 30.5679 15.8062 31.0144 15.7895H31.3059C31.5491 15.8384 31.7969 15.8693 32.0465 15.882C41.2015 16.2652 50.388 16.0406 59.5509 15.8094C57.5418 15.8094 55.5328 15.7169 53.5316 15.6839L42.3124 15.4196Z" fill="#1E1E1E"/>
<path d="M64.6555 20.3942C64.7973 21.2662 64.9391 22.1249 64.9864 22.9771C65.1912 26.366 64.9864 29.7614 64.8918 33.1569C64.7422 39.6109 66.0579 46.2037 65.0021 52.6247C65.0021 53.2852 65.0021 53.8732 65.0021 54.5008C65.1272 54.8664 65.3419 55.2061 65.6324 55.4982H65.9397C65.9397 54.9499 65.9003 54.4016 65.8924 53.8534C65.8137 50.8366 65.7611 47.8221 65.7349 44.8098C65.6823 38.8248 65.7139 32.842 65.8294 26.8614C65.9029 23.4527 66.0001 20.0419 66.1209 16.6288C66.1271 16.4595 66.0674 16.2933 65.9508 16.155C65.8343 16.0168 65.6672 15.914 65.4749 15.8625C65.2258 15.7195 64.9239 15.6563 64.624 15.6842H64.4191C64.3152 16.3166 64.2783 16.9554 64.3088 17.5932C64.6294 18.0029 64.8282 18.471 64.8885 18.9584C64.9488 19.4457 64.8689 19.9381 64.6555 20.3942Z" fill="#1E1E1E"/>
<path d="M64.2939 17.6333C64.3412 18.5581 64.483 19.4896 64.6327 20.421C64.8446 19.9672 64.9244 19.4776 64.8655 18.9928C64.8066 18.508 64.6107 18.0419 64.2939 17.6333Z" fill="#1E1E1E"/>
<path d="M64.9791 52.6445C64.9791 52.8361 64.9239 53.0277 64.8846 53.2259C64.7964 53.667 64.8315 54.1192 64.987 54.5471C64.9949 53.8732 64.987 53.2523 64.9791 52.6445Z" fill="#1E1E1E"/>
<path d="M21.8121 21.8805L21.8594 21.3388L21.7097 21.2331C21.7097 21.2331 21.6624 21.1802 21.6309 21.1538H19.7243C19.7243 21.4048 19.677 21.6493 19.6613 21.9003L21.8121 21.8805Z" fill="#1E1E1E"/>
<path d="M58.4085 61.4302H58.1169V63.2138H58.9994V62.0115C58.7735 61.8398 58.5749 61.6444 58.4085 61.4302Z" fill="#1E1E1E"/>
<path d="M58.9673 61.4438H58.408C58.5654 61.6639 58.756 61.8659 58.9752 62.045C58.9752 61.8336 58.9673 61.642 58.9673 61.4438Z" fill="#1E1E1E"/>
<path d="M21.6306 21.1538C21.6306 21.1538 21.6779 21.2134 21.7094 21.2333L21.8591 21.3392C21.8591 21.2796 21.8591 21.22 21.8591 21.1604L21.6306 21.1538Z" fill="#1E1E1E"/>
<path d="M28.9181 15.2287V15.1627C28.8235 15.1066 28.734 15.0448 28.6502 14.9777C28.3302 14.7336 28.0913 14.4241 27.9569 14.0793C27.7462 13.7512 27.6454 13.3814 27.6654 13.0091V12.9034C27.6683 12.411 27.8259 11.928 28.1224 11.503L28.6502 10.9415C29.0577 10.5988 29.566 10.3527 30.1235 10.228L31.0138 10.1223C31.3918 10.1146 31.7674 10.1731 32.1168 10.2941C43.7773 10.7829 55.485 10.2941 67.1533 10.0364C67.6268 10.0222 68.0988 10.0897 68.5399 10.2347H68.5951C71.5496 10.2347 72.4792 12.877 71.3762 14.4889C71.4817 14.9534 71.4327 15.4334 71.2344 15.8761C70.5726 17.4483 71.2896 19.2253 71.4787 20.8504C71.6677 22.4755 71.7229 24.0477 71.7387 25.6463C71.7387 28.87 71.5417 32.0805 71.5338 35.2976C71.5338 41.8045 72.558 48.2057 71.3368 54.6795C70.8799 57.1171 67.6575 57.1502 65.9321 55.7827C65.9321 56.2848 65.9321 56.7935 65.9321 57.2955C67.563 57.3352 69.1939 57.3748 70.8169 57.4408C71.069 57.4751 71.3274 57.4326 71.5456 57.3212C71.7637 57.2097 71.9272 57.0366 72.0065 56.8331C72.1723 56.7387 72.3011 56.6055 72.3768 56.4499C72.9396 55.1853 73.1551 53.8305 73.0071 52.4864C72.9599 50.9538 72.9126 49.4212 72.8811 47.8622C72.8023 44.8499 72.7498 41.8353 72.7235 38.8186C72.671 32.8336 72.7025 26.8508 72.818 20.8702C72.8916 17.4616 72.9887 14.0529 73.1095 10.6442C73.1161 10.4741 73.0567 10.3068 72.9402 10.1674C72.8237 10.028 72.6565 9.92413 72.4635 9.8713C72.2125 9.732 71.9122 9.66903 71.6126 9.69292C67.9411 9.90432 64.2145 9.69297 60.5352 9.65333L49.316 9.42867C43.1155 9.30316 36.3635 9.15783 29.9581 9.26352C29.3422 9.2173 28.7225 9.2173 28.1066 9.26352C27.9647 9.25631 27.8232 9.28141 27.6969 9.33618C27.563 9.3729 27.4433 9.43908 27.3503 9.52778C27.2461 9.61362 27.1643 9.71663 27.11 9.83033C27.0558 9.94404 27.0303 10.066 27.0351 10.1884C27.0384 10.3036 27.0651 10.4175 27.1139 10.5253C26.9642 12.0645 26.8382 13.6103 26.72 15.1495L28.9181 15.2287Z" fill="#1E1E1E"/>
<path d="M30.1154 11.1326C30.2041 11.1454 30.2947 11.1454 30.3833 11.1326C36.6862 11.0401 43.2807 11.1788 49.3551 11.2977L60.5743 11.5289C63.8913 11.5884 67.2397 11.7403 70.5566 11.6148C70.1469 23.1796 70.0655 34.7467 70.3124 46.3159C70.3124 48.0005 70.3912 49.6784 70.4463 51.3563C70.4857 52.7898 70.6748 54.2629 70.0996 55.6502L65.9239 55.5312V55.8087C67.6494 57.1761 70.8717 57.1299 71.3287 54.7055C72.5499 48.2316 71.502 41.8305 71.5257 35.3236C71.5257 32.1065 71.7542 28.896 71.7305 25.6723C71.7305 24.0737 71.6596 22.4684 71.4705 20.8764C71.2814 19.2843 70.5645 17.4743 71.2263 15.9021C71.4245 15.4593 71.4736 14.9794 71.3681 14.5148C72.4711 12.8699 71.5414 10.2606 68.5869 10.2606H68.5318C68.0906 10.1156 67.6187 10.0481 67.1451 10.0624C55.4768 10.3134 43.7691 10.8089 32.1087 10.3201C31.7593 10.1991 31.3836 10.1406 31.0057 10.1483L30.1154 10.2539C29.5578 10.3786 29.0495 10.6248 28.6421 10.9674L28.1142 11.5289C27.8178 11.954 27.6601 12.437 27.6573 12.9294V13.0351C27.6373 13.4074 27.738 13.7772 27.9488 14.1053C28.0832 14.45 28.3221 14.7596 28.6421 15.0037C28.7259 15.0707 28.8154 15.1326 28.91 15.1887C29.0203 13.841 29.1332 12.4912 29.2488 11.1392C29.5482 11.1128 29.8318 11.1194 30.1154 11.1326Z" fill="#1E1E1E"/>
<path d="M28.8708 15.7961L28.9181 15.228H26.7593L26.712 15.7961H28.8708Z" fill="#1E1E1E"/>
<path d="M65.6169 55.4985H65.1914V57.269H65.9793C65.9793 56.7669 65.9793 56.2582 65.9793 55.7562C65.851 55.6779 65.7299 55.5918 65.6169 55.4985Z" fill="#1E1E1E"/>
<path d="M65.6172 55.4985C65.7139 55.5997 65.8193 55.6949 65.9323 55.7833V55.5052L65.6172 55.4985Z" fill="#1E1E1E"/>
<path d="M12.2788 45.4179L13.3266 44.5393C13.6331 44.8249 14.0281 45.0336 14.4677 45.1421C14.9073 45.2506 15.3742 45.2546 15.8163 45.1536C16.4631 44.9081 17.0673 44.5903 17.6126 44.209L17.975 44.0438L18.2114 44.2486C19.0702 44.9092 20.2599 45.7944 21.678 45.5698C22.545 45.3581 23.3111 44.9237 23.8683 44.3279C24.8452 45.0876 26.0113 45.801 27.461 45.4972C28.1243 45.3589 28.716 45.0435 29.147 44.5987C29.1791 44.5464 29.2283 44.5029 29.2888 44.4732C29.4489 44.5755 29.6015 44.6858 29.7458 44.8035C30.707 45.4641 31.8179 46.0916 33.2596 45.8538C33.9729 45.7244 34.6282 45.4291 35.1505 45.0017L35.3633 45.1536C36.616 45.986 37.9711 45.5103 39.0899 44.8563L39.2711 44.7507C39.3814 44.8167 39.5074 44.8827 39.5705 44.929C40.0136 45.3093 40.5518 45.6026 41.1462 45.7878C41.8287 45.9688 42.567 45.9311 43.2183 45.6821C43.529 45.5682 43.8101 45.4044 44.0455 45.1999L44.2268 45.0612L44.4237 45.1272C45.1258 45.5076 45.9413 45.7149 46.7772 45.7254C47.613 45.7359 48.4355 45.5492 49.1509 45.1866C50.7267 44.3741 49.1903 42.5046 47.6225 43.3304C46.3934 43.991 45.2589 42.6698 43.754 42.8548C43.0865 42.9214 42.4705 43.1889 42.0207 43.6078C41.9104 43.5285 41.7765 43.4559 41.7056 43.4097C41.3074 43.0585 40.8093 42.7978 40.258 42.6522C39.7068 42.5066 39.1205 42.4809 38.5541 42.5773C38.0182 42.6993 37.5242 42.9257 37.1123 43.2379C36.939 43.0926 36.7263 42.9406 36.6711 42.901C36.3932 42.7174 36.0709 42.5869 35.7266 42.5184C35.3824 42.45 35.0245 42.4453 34.6778 42.5046C34.0461 42.6566 33.4921 42.9794 33.1021 43.4229C32.7003 43.7532 32.7318 43.8655 32.2512 43.5814C31.7706 43.2974 31.4633 42.9935 30.9748 42.7491C30.4878 42.4872 29.9255 42.3403 29.3473 42.324C28.7691 42.3077 28.1963 42.4227 27.6894 42.6566C27.3698 42.8618 27.0647 43.0824 26.7755 43.3172C26.7093 43.2621 26.6319 43.2174 26.547 43.1851L26.0349 42.7953L24.8452 41.8903C24.5409 41.6866 24.1631 41.5757 23.7737 41.5757C23.3844 41.5757 23.0066 41.6866 22.7022 41.8903L21.4653 42.9142L21.1108 43.2048C20.5986 42.8019 19.598 42.1017 19.4484 42.0158C19.0799 41.8237 18.6584 41.7148 18.2249 41.6997C17.7914 41.6847 17.3606 41.764 16.9745 41.9299C16.3715 42.2219 15.7901 42.5439 15.2333 42.8944C14.9102 42.6367 14.6109 42.3065 14.3745 42.1149C14.0696 41.9124 13.692 41.8021 13.303 41.8021C12.914 41.8021 12.5364 41.9124 12.2315 42.1149L10.1121 43.8919C8.88307 44.9422 11.0182 46.4749 12.2788 45.4179Z" fill="#1E1E1E"/>
<path d="M13.1371 49.3415C13.4227 49.0691 13.7676 48.8449 14.1534 48.6809C14.2007 48.7932 14.248 48.9319 14.2716 48.9847C14.4972 49.3732 14.8733 49.6859 15.3384 49.8719C15.8036 50.0579 16.3301 50.1061 16.8322 50.0087C17.3506 49.9043 17.8333 49.7008 18.2424 49.4141C18.4394 49.282 18.8176 48.8328 19.117 48.7535C19.0382 48.813 19.3691 48.9187 19.5267 49.0112C19.8799 49.2508 20.251 49.4715 20.6376 49.6718C21.0432 49.8699 21.4971 49.9882 21.9652 50.018C22.4333 50.0477 22.9033 49.9881 23.3399 49.8435C23.7085 49.708 24.0448 49.5178 24.3326 49.2821L24.4981 49.1631C25.0575 49.6916 26.5308 49.903 27.295 49.8634C27.9936 49.829 28.6732 49.6594 29.2804 49.3679C30.1047 49.8566 31.1128 50.0773 32.1168 49.9889C32.5358 49.9618 32.9462 49.8747 33.3301 49.7312C33.5034 49.6616 33.6695 49.5798 33.8264 49.4868L33.9919 49.4075C34.1999 49.5084 34.4188 49.5925 34.6458 49.6586C35.1824 49.8126 35.7502 49.8755 36.3161 49.8435C38.2464 49.7445 38.2621 47.5909 36.3161 47.69C35.5991 47.69 35.3785 47.3398 34.7404 47.1681C34.1148 47.0014 33.4376 47.0368 32.8416 47.2672C32.4477 47.4125 31.3368 48.3044 30.998 47.5513C30.8895 47.3632 30.7318 47.198 30.5366 47.0681C30.3413 46.9382 30.1136 46.8471 29.8705 46.8013C29.6273 46.7556 29.3749 46.7565 29.1323 46.804C28.8896 46.8515 28.6628 46.9443 28.4689 47.0756C28.1065 47.3002 27.4605 47.7758 26.8932 47.7362C26.5308 47.69 26.192 47.2937 25.8926 47.1417C25.4576 46.9214 24.959 46.805 24.4508 46.805C23.9426 46.805 23.4441 46.9214 23.009 47.1417C22.6663 47.3141 22.3645 47.538 22.1187 47.8023V47.8419C22.1187 47.8419 22.0557 47.842 22.04 47.8023C21.4287 47.2772 20.6576 46.9025 19.8103 46.7189C19.3445 46.6313 18.8616 46.6297 18.395 46.7141C17.9283 46.7985 17.4892 46.9669 17.1079 47.2078C17.0291 47.254 16.8243 47.3795 16.6194 47.5182L16.5958 47.3597C15.1146 45.7346 12.3492 46.6991 11.0098 47.8419C9.67045 48.9847 11.8686 50.4183 13.1371 49.3415Z" fill="#1E1E1E"/>
<path d="M48.899 51.753C48.0943 51.7404 47.2935 51.85 46.5354 52.0767C46.1692 52.2404 45.7721 52.3499 45.3615 52.4004C45.0777 52.3367 44.8105 52.2291 44.5737 52.0833C43.8922 51.7333 43.1033 51.5587 42.3046 51.5812C41.6552 51.625 41.0268 51.7946 40.4689 52.0767C40.3621 52.1403 40.2455 52.1914 40.1222 52.2286C40.0816 52.2036 40.0446 52.1748 40.0119 52.1427C39.7344 51.9215 39.4149 51.7407 39.0665 51.6077C38.4336 51.3746 37.7245 51.3303 37.0574 51.4821C36.3089 51.6407 35.8441 52.1428 35.1429 52.3343C34.5835 52.4598 34.0005 52.1229 33.4805 51.9577C32.7917 51.7044 32.0501 51.5675 31.2981 51.5548C30.4315 51.5548 29.8642 51.9181 29.0606 52.037C28.383 52.1427 27.8236 51.6473 27.1539 51.5086C26.3547 51.3603 25.5228 51.3922 24.7431 51.6011C24.0261 51.7794 22.9625 52.4532 22.1825 52.4004C21.6625 52.3607 21.2134 51.8125 20.7722 51.6077C20.4381 51.448 20.068 51.3484 19.6854 51.3154C19.3029 51.2825 18.9163 51.3167 18.5504 51.4161C17.7439 51.7181 17.0118 52.1438 16.3917 52.6712L16.1947 52.7967C15.8403 52.4707 15.4613 52.164 15.0602 51.8785C13.4845 50.4318 11.9087 51.6208 10.53 52.5391C9.15119 53.4573 11.2469 55.0031 12.673 54.0585C12.8463 53.9396 13.059 53.8206 13.2639 53.6951C13.7654 54.2017 14.3846 54.6175 15.0838 54.9172C16.7777 55.5778 18.0147 54.5341 19.1335 53.7678L19.425 53.6026C19.6538 53.7989 19.9201 53.962 20.2128 54.0849C20.9442 54.4518 21.8038 54.5964 22.6473 54.4945C23.4517 54.3916 24.2328 54.1866 24.9637 53.8867C25.3236 53.7058 25.7276 53.5952 26.1455 53.563C26.5615 53.6431 26.9584 53.7816 27.3194 53.9726C28.0406 54.237 28.8428 54.3041 29.6121 54.1642C30.0133 54.0629 30.4078 53.9438 30.7939 53.8074C30.7683 53.6059 30.8075 53.4023 30.9074 53.2177C31.0072 53.0332 31.1642 52.8744 31.3619 52.7578C31.5596 52.6413 31.7909 52.5711 32.0318 52.5547C32.2727 52.5383 32.5145 52.5763 32.732 52.6646C33.4365 53.0479 34.2559 53.2563 35.0956 53.2657C35.8835 53.1864 36.4744 52.6844 37.2465 52.5655C38.041 52.4826 38.8476 52.5457 39.6101 52.7505C40.2142 52.9049 40.8649 52.8672 41.4379 52.6448C42.1107 52.4026 42.8555 52.338 43.5731 52.4598C44.2349 52.5853 44.8809 53.0279 45.5585 53.061C46.236 53.094 46.9845 52.6712 47.6778 52.592C48.0921 52.5293 48.5163 52.5293 48.9306 52.592C49.1196 52.6272 49.3087 52.6668 49.4978 52.7108C49.552 52.6985 49.6091 52.6985 49.6633 52.7108C49.8625 52.5794 50.1027 52.499 50.3551 52.4793C50.6076 52.4596 50.8614 52.5015 51.0861 52.5999C51.3108 52.6983 51.4968 52.8489 51.6218 53.0339C51.7467 53.2188 51.8053 53.4301 51.7905 53.6423C52.2275 53.52 52.6355 53.3345 52.9959 53.094C54.4299 52.156 52.2869 50.6366 50.8529 51.5746C50.4748 51.9247 49.4584 51.753 48.899 51.753Z" fill="#1E1E1E"/>
<path d="M49.6868 52.7769C49.6327 52.7645 49.5755 52.7645 49.5214 52.7769C49.3323 52.7284 49.1432 52.6888 48.9541 52.658C48.5399 52.5954 48.1156 52.5954 47.7014 52.658C47.0081 52.7373 46.2753 53.16 45.582 53.127C44.8887 53.094 44.2584 52.6513 43.5966 52.5258C42.879 52.404 42.1342 52.4686 41.4615 52.7108C40.8884 52.9333 40.2377 52.9709 39.6336 52.8165C38.8711 52.6118 38.0646 52.5486 37.27 52.6315C36.4822 52.7505 35.8834 53.2525 35.1192 53.3318C34.2794 53.3224 33.46 53.114 32.7556 52.7307C32.538 52.6423 32.2963 52.6043 32.0553 52.6207C31.8144 52.6371 31.5831 52.7073 31.3854 52.8239C31.1877 52.9405 31.0308 53.0993 30.9309 53.2838C30.831 53.4684 30.7918 53.6719 30.8174 53.8735C31.0687 53.7941 31.3373 53.7603 31.6053 53.7744C32.2823 53.9297 32.9415 54.1353 33.575 54.3888C34.3354 54.609 35.1544 54.6456 35.9386 54.4945C36.6118 54.3283 37.2405 54.0545 37.79 53.6885C37.8294 53.6885 37.79 53.6489 37.8294 53.6291C37.8688 53.6092 38.0028 53.7744 38.0422 53.8008C38.3773 54.0486 38.7685 54.2373 39.1924 54.3557C39.8489 54.5156 40.5486 54.4995 41.1936 54.3095C41.5328 54.2 41.8643 54.0742 42.1863 53.9329C42.5881 53.7744 42.5094 53.8074 42.8324 53.8669C43.2168 54.0061 43.5882 54.1695 43.9433 54.3557C44.3294 54.4994 44.7429 54.5844 45.1645 54.6067C46.2202 54.6596 46.9844 54.2698 47.9378 54.0518C48.7912 53.9535 49.654 53.9247 50.5141 53.966C50.9535 53.9443 51.3877 53.8755 51.8062 53.7611C51.8332 53.5457 51.784 53.3283 51.6647 53.1362C51.5454 52.944 51.3612 52.7856 51.1352 52.6807C50.9092 52.5757 50.6513 52.5288 50.3937 52.5459C50.1362 52.563 49.8903 52.6433 49.6868 52.7769Z" fill="#1E1E1E"/>
<path d="M20.1252 3.56885C20.1789 3.32181 20.2716 3.0819 20.401 2.85544C20.4909 2.83477 20.5835 2.82364 20.6768 2.82238C22.4307 2.67267 24.1966 2.64837 25.9555 2.74972C28.0906 2.81578 28.0906 0.107347 25.9555 0.0346813C24.4664 -0.0115604 22.9773 -0.0115604 21.4883 0.0346813C20.1253 0.100741 18.7228 0.160204 17.8247 1.11807C17.1124 2.04168 16.6747 3.09508 16.5483 4.18986C16.4298 4.77357 16.3509 5.36239 16.312 5.9536C16.312 6.23105 16.312 6.56137 16.3592 6.88506C16.0677 6.88506 15.7762 6.94452 15.4847 6.97094L13.7593 7.14931C13.2667 7.15314 12.782 7.25371 12.3442 7.443C11.9063 7.6323 11.5275 7.90506 11.2381 8.23931C10.8399 8.92378 10.7208 9.69896 10.8993 10.4457L11.049 11.9519C11.049 12.1434 11.1357 12.4076 11.183 12.6719C10.8442 12.6719 10.4975 12.6719 10.1824 12.7247L7.60605 12.9361L2.65825 13.3457C2.22589 13.3505 1.81228 13.4944 1.50288 13.7477C1.19349 14.001 1.01198 14.3442 0.99585 14.7065C1.00616 15.0698 1.1861 15.4153 1.49697 15.6685C1.80784 15.9218 2.22482 16.0626 2.65825 16.0607L7.80302 15.638C9.37875 15.5058 11.0333 15.4662 12.6011 15.2284C14.5314 14.9377 14.5393 13.5901 14.4053 12.2822C14.3344 11.6216 14.2635 10.961 14.2005 10.3004C14.2005 10.3004 14.2005 10.0559 14.2005 9.84452H14.3502C15.1774 9.74543 16.0126 9.67275 16.8398 9.58687C17.5852 9.58786 18.3113 9.38879 18.9119 9.01877C20.0386 8.12697 19.5737 6.66049 19.6998 5.51766C19.7659 4.85804 19.9084 4.20534 20.1252 3.56885Z" fill="#1E1E1E"/>
<path d="M71.3286 70.2554C72.6286 70.2554 74.0231 70.3082 74.9134 69.3834C75.7013 68.5775 75.6068 67.4347 75.654 66.4636C75.654 65.803 75.7013 65.1027 75.7013 64.4223C76.9146 64.4223 78.1279 64.3827 79.3412 64.3101C79.7728 64.3052 80.1856 64.161 80.4937 63.9076C80.8018 63.6542 80.9816 63.3109 80.9958 62.9492C80.9794 62.5917 80.7974 62.2537 80.4884 62.007C80.1794 61.7603 79.7679 61.6243 79.3412 61.628C77.5712 61.7337 75.7985 61.7734 74.0231 61.7469C73.589 61.7468 73.172 61.8892 72.8614 62.1434C72.5507 62.3977 72.371 62.7438 72.3607 63.1077C72.3607 63.874 72.3607 64.6403 72.3607 65.4066C72.3607 66.1729 72.2268 66.8269 72.2426 67.5338H71.3129L68.6262 67.5866C67.6808 67.5866 66.7275 67.5866 66.0184 68.1944C65.3093 68.8021 65.4118 69.674 65.4118 70.4403C65.4118 71.9927 65.4118 73.5518 65.4118 75.1108C65.4118 76.8614 68.7287 76.8614 68.7287 75.1108V70.2884H69.3826L71.3286 70.2554Z" fill="#1E1E1E"/>
</svg>
