<svg width="302" height="316" viewBox="0 0 302 316" fill="none" xmlns="http://www.w3.org/2000/svg">
<path d="M293.312 257.214C281.109 284.959 248.508 269.689 228.186 264.933C205.246 259.153 181.705 253.68 158.578 248.391L93.4854 233.014C72.2518 227.944 47.139 226.538 33.293 207.554C27.3338 200.012 26.3532 186 33.2702 178.229C77.6362 127.376 122.271 77.1333 166.46 26.7309C169.142 23.6689 172.447 21.216 176.153 19.5366C176.659 18.4565 177.368 17.4842 178.242 16.6731C187.709 8.80398 203.789 9.31482 210.575 19.8547C232.961 55.0355 250.98 92.8154 264.233 132.358C271.286 152.358 277.547 173.136 283.375 193.732C286.315 202.749 288.624 212.021 291.149 220.853C294.315 232.984 299.301 244.365 293.312 257.214Z" fill="#F9F9F9"/>
<path d="M194.902 214.509L198.023 215.819C199.13 216.282 200.261 216.745 201.352 217.208C202.345 217.62 203.833 218.629 204.701 217.439C205.128 216.893 204.984 216.314 204.945 215.717C204.905 215.282 204.88 214.824 204.821 214.375C204.731 213.361 204.617 212.334 204.458 211.329C204.177 209.36 203.641 207.429 202.861 205.581C202.789 205.452 202.691 205.338 202.572 205.246C202.452 205.154 202.314 205.085 202.165 205.044C202.016 205.003 201.86 204.99 201.706 205.007C201.552 205.024 201.403 205.069 201.268 205.141C201.217 205.172 201.171 205.211 201.134 205.257C200.932 205.303 200.743 205.388 200.578 205.507C197.87 207.465 195.121 209.409 192.417 211.385C192.213 211.555 192.075 211.783 192.023 212.034C191.971 212.285 192.008 212.544 192.129 212.773C192.64 213.787 193.89 214.079 194.902 214.509ZM201.149 207.89C201.567 209.11 201.878 210.359 202.077 211.626C202.221 212.482 202.315 213.329 202.404 214.185C202.439 214.505 202.469 214.829 202.523 215.162L201.531 214.754L198.931 213.667L196.426 212.607C196.039 212.436 195.642 212.283 195.255 212.112C197.225 210.7 199.174 209.288 201.149 207.89Z" fill="#DCDCDC"/>
<path d="M214.581 234.883L215.566 238.03C215.915 239.144 216.265 240.282 216.59 241.401C216.89 242.382 217.038 244.143 218.559 243.991C219.273 243.934 219.647 243.443 220.11 243.01C220.434 242.691 220.784 242.367 221.094 242.025C221.852 241.272 222.61 240.501 223.314 239.716C224.719 238.189 225.929 236.504 226.917 234.698C226.975 234.56 227.003 234.412 227 234.264C226.997 234.115 226.963 233.969 226.9 233.833C226.837 233.697 226.746 233.576 226.633 233.475C226.521 233.374 226.388 233.296 226.243 233.246C226.183 233.235 226.121 233.235 226.061 233.246C225.894 233.128 225.702 233.047 225.5 233.008C222.172 232.346 218.834 231.665 215.482 231.008C215.216 230.978 214.948 231.031 214.716 231.16C214.484 231.288 214.3 231.486 214.193 231.722C213.7 232.755 214.271 233.86 214.581 234.883ZM223.959 234.988C223.247 236.111 222.44 237.174 221.547 238.168C220.951 238.849 220.326 239.487 219.696 240.125C219.46 240.363 219.204 240.601 218.987 240.868C218.884 240.539 218.785 240.211 218.682 239.882L217.88 237.264C217.619 236.412 217.387 235.579 217.112 234.726C216.998 234.331 216.865 233.941 216.752 233.546C219.154 234.022 221.552 234.493 223.959 234.988Z" fill="#FBB03B"/>
</svg>
