<svg width="224" height="320" viewBox="0 0 224 320" fill="none" xmlns="http://www.w3.org/2000/svg">
<path d="M190.728 282.496C186.475 279.344 180.464 280.001 175.455 279.982C168.782 279.963 124.172 280.02 117.5 280.132C117.5 280.338 117.481 280.526 117.367 280.714C117.783 283.228 116.498 285.836 115.874 288.256C115.591 289.363 115.307 290.488 114.891 291.558C114.57 292.365 113.965 293.715 112.831 293.34C112.377 293.19 112.188 292.815 112.188 292.44C111.413 292.308 110.808 291.727 110.43 291.07C109.372 289.213 109.164 286.83 108.975 284.747C108.842 283.284 108.767 281.821 108.748 280.357C106.045 280.432 103.342 280.47 100.639 280.545C100.62 282.027 100.469 283.509 100.45 285.01C100.412 287.674 100.488 290.338 100.544 293.002C100.62 296.398 101.149 300.057 100.601 303.434C100.374 304.822 99.8449 306.286 98.6352 307.13C97.1608 308.162 95.6675 307.486 94.6656 306.173C92.0571 302.815 91.9626 298.481 91.6224 294.447C91.2254 289.963 90.8285 285.46 90.4504 280.976C88.5224 281.051 86.5943 281.164 84.6663 281.258C84.6852 282.14 84.5718 283.04 84.4016 283.903C84.1937 284.991 83.8535 286.136 83.1352 287.018C82.3791 287.937 81.037 288.143 80.1297 287.299C79.2413 286.473 79.0901 285.066 78.9956 283.941C78.9389 283.134 78.9389 282.346 78.9578 281.539C74.0431 281.783 69.1474 282.065 64.2328 282.402C62.6072 282.515 60.9816 282.646 59.3749 282.759C58.9401 282.759 58.5054 282.796 58.0706 282.815C58.184 286.079 58.9212 289.194 59.545 292.421C59.7529 293.528 59.9419 294.653 60.2255 295.742C60.3011 296.079 60.3956 296.492 60.509 296.905C60.7169 297.336 60.9438 297.749 61.1706 298.181C61.2084 298.218 61.2273 298.256 61.2651 298.293C61.5297 298.518 61.5864 298.762 61.5675 299.006C61.8322 299.663 62.0212 300.319 62.0023 301.07C62.0023 301.689 61.3974 302.121 60.8114 301.97C57.6169 301.164 56.5773 296.774 55.7645 294.072C55.0462 291.67 54.4791 289.175 54.3279 286.661C54.2523 285.517 53.9877 284.203 54.1956 283.021C53.0048 283.134 51.795 283.247 50.6042 283.415C46.8237 283.959 40.3212 284.391 38.5066 288.481C38.1664 289.231 38.0719 290.057 38.2042 290.845C38.431 292.158 39.3761 293.246 38.9981 294.635C38.2987 297.186 35.0664 298.612 32.8737 299.55C28.3749 301.501 23.0066 302.552 19.4719 306.154C16.542 309.119 15.6914 314.128 19.1317 317.073C22.3262 319.794 27.0896 319.4 31.0024 319.268C36.106 319.081 41.1908 318.893 46.2944 318.687C64.384 319.587 82.4925 319.287 100.601 319.025C110.695 318.875 120.789 318.762 130.902 318.893C138.273 318.987 145.627 319.625 152.98 319.906C156.533 320.038 160.087 320.019 163.622 319.925C166.986 319.831 170.219 319.719 173.243 318.03C175.341 316.867 177.25 314.86 178.082 312.608C178.63 311.126 178.725 309.531 177.779 308.199C177.326 307.543 176.778 306.923 176.589 306.135C176.381 305.291 176.645 304.409 177.042 303.64C180.218 297.655 188.932 298.593 192.769 293.265C195.397 289.588 194.225 285.085 190.728 282.496Z" fill="#00A99D"/>
<path d="M161.75 30.361C161.448 27.9408 160.238 24.7513 157.535 24.1697C155.21 23.6632 152.318 23.5506 150.598 25.483C149.804 26.3836 149.388 27.4717 148.783 28.4848C148.197 29.4604 147.498 30.3798 146.912 31.3554C146.307 32.3497 145.74 33.4379 145.475 34.5636C145.362 35.0889 145.305 35.633 145.419 36.1395C144.795 36.8149 144.587 37.8468 145.419 38.6911C146.439 39.723 147.876 40.0231 149.294 39.798C150.522 39.6104 151.562 38.9725 152.715 38.616C153.868 38.2596 154.775 38.1845 155.966 38.1282C157.403 38.0532 158.764 37.8093 159.879 36.8525C161.713 35.3328 162.034 32.5936 161.75 30.361Z" fill="#FBB03B"/>
<path d="M157.686 81.4295C157.989 81.2982 158.329 81.2231 158.688 81.2044C158.726 81.2044 158.783 81.2044 158.82 81.2231C159.293 77.0581 159.747 72.9118 160.219 68.7467C157.686 68.2965 155.475 69.1032 153.433 70.4916C152.809 70.9231 152.299 71.6172 152.526 72.3114C153.566 75.4821 153.225 79.4033 157.176 81.073C157.384 81.1668 157.554 81.2982 157.686 81.4295Z" fill="#FBB03B"/>
<path d="M155.739 96.0255C155.399 95.9129 155.097 95.7253 154.851 95.4627C154.832 95.4439 154.813 95.4251 154.794 95.4064C154.473 95.2938 154.076 95.0874 153.566 94.7685C150.428 92.8361 147.706 93.9055 147.384 97.2075C147.177 99.29 146.515 101.204 146.061 103.211C145.4 106.119 146.42 107.526 149.483 107.695C150.466 107.751 151.486 107.808 152.45 107.695C153.887 107.526 154.378 108.314 154.605 109.477C154.851 108.539 155.229 107.601 155.342 106.644C155.739 103.174 156.117 99.7215 156.514 96.2506C156.231 96.2131 155.985 96.1381 155.739 96.0255Z" fill="#FBB03B"/>
<path d="M145.041 101.936C143.491 100.21 141.827 98.4465 139.483 97.6772C138.822 97.9211 139.143 99.1782 138.066 99.0281C137.139 102.48 136.213 105.951 135.287 109.403C135.362 109.534 135.4 109.666 135.4 109.816C135.381 110.266 135.306 110.716 135.23 111.148C135.211 111.317 135.173 111.486 135.155 111.655C135.155 111.673 135.136 111.786 135.136 111.823C135.136 111.917 135.117 112.011 135.117 112.105C135.117 112.274 135.117 112.424 135.136 112.593C135.136 112.611 135.155 112.743 135.155 112.761C135.173 112.855 135.192 112.93 135.23 113.024C135.249 113.062 135.249 113.062 135.249 113.08C135.249 113.08 135.268 113.099 135.287 113.137C135.325 113.212 135.362 113.268 135.4 113.343C135.419 113.381 135.457 113.418 135.476 113.456C135.476 113.437 135.552 113.531 135.57 113.568C135.627 113.624 135.665 113.662 135.722 113.718C135.741 113.737 135.759 113.756 135.778 113.756C135.873 113.831 135.986 113.887 136.1 113.943C136.119 113.962 136.137 113.962 136.156 113.981C136.213 114 136.27 114.018 136.308 114.037C136.459 114.075 136.591 114.112 136.742 114.15C136.799 114.169 136.875 114.169 136.931 114.187C136.95 114.187 136.969 114.187 136.988 114.187C137.139 114.206 137.272 114.206 137.423 114.225C137.725 114.244 138.047 114.244 138.349 114.225C138.368 114.225 138.387 114.244 138.425 114.244C139.2 113.887 139.616 112.912 140.598 110.754C140.806 110.304 141.052 109.853 141.336 109.422C141.752 108.69 141.827 107.827 142.205 107.058C142.545 106.364 143.094 105.801 143.604 105.219C144.077 104.675 144.473 104.094 144.795 103.456C145.041 102.949 145.23 102.424 145.041 101.936Z" fill="#FBB03B"/>
<path d="M100.96 109.234C101.3 106.945 101.584 104.544 100.658 102.274C100.034 101.936 99.2778 102.987 98.7107 102.067C95.4406 103.587 92.1894 105.107 88.9193 106.645C88.8626 106.777 88.787 106.908 88.6736 107.002C88.3144 107.283 87.9175 107.508 87.5394 107.733C87.3882 107.827 87.237 107.902 87.1047 107.996C87.0858 108.015 86.9913 108.071 86.9724 108.09C86.8967 108.146 86.8211 108.202 86.7455 108.259C86.6132 108.352 86.4998 108.465 86.3864 108.578C86.3675 108.596 86.2919 108.69 86.273 108.709C86.2163 108.784 86.1596 108.859 86.1217 108.934C86.1028 108.972 86.1028 108.972 86.0839 108.99C86.0839 108.99 86.0839 109.009 86.065 109.047C86.0461 109.122 86.0083 109.197 85.9894 109.272C85.9705 109.309 85.9705 109.366 85.9516 109.403C85.9516 109.384 85.9327 109.516 85.9327 109.534C85.9327 109.609 85.9138 109.666 85.9138 109.741C85.9138 109.778 85.9138 109.797 85.9138 109.816C85.9327 109.928 85.9516 110.06 85.9705 110.172C85.9705 110.191 85.9894 110.21 85.9894 110.247C86.0083 110.304 86.0272 110.36 86.0461 110.397C86.1028 110.529 86.1785 110.679 86.2352 110.81C86.273 110.867 86.3108 110.923 86.3297 110.979C86.3297 110.998 86.3486 110.998 86.3486 111.017C86.4242 111.129 86.5187 111.26 86.6132 111.373C86.8022 111.617 87.0102 111.861 87.2181 112.086C87.237 112.105 87.237 112.124 87.2559 112.142C88.0309 112.499 89.0516 112.18 91.3388 111.542C91.8303 111.411 92.3217 111.317 92.8321 111.242C93.6638 111.073 94.3821 110.585 95.2138 110.379C95.9699 110.21 96.7638 110.247 97.5388 110.266C98.2571 110.285 98.9565 110.191 99.6559 110.041C100.166 109.872 100.695 109.685 100.96 109.234Z" fill="#FBB03B"/>
<path d="M151.524 112.274C151.278 112.236 150.995 112.236 150.749 112.255C150.182 112.274 149.577 112.405 149.086 112.724C148.065 113.38 147.403 114.487 146.78 115.5C146.761 115.557 146.761 115.594 146.742 115.651C146.647 115.876 146.553 116.082 146.42 116.288C146.288 116.476 146.156 116.664 145.967 116.814C145.797 116.964 145.627 117.058 145.437 117.151C145.022 117.958 144.568 118.709 144.095 119.384C144.077 119.422 144.058 119.459 144.058 119.497C144.02 119.572 143.963 119.609 143.906 119.666C143.717 119.928 143.547 120.191 143.358 120.454C142.734 121.335 141.752 122.217 142.186 123.305C143.283 125.988 144.7 128.465 147.933 129.121C149.898 123.699 150.73 118.015 151.789 112.386C151.675 112.349 151.6 112.311 151.524 112.274Z" fill="#FBB03B"/>
<path d="M118.691 228.369C117.424 230.865 116.838 233.547 116.706 236.324C116.536 239.983 113.795 241.615 110.581 239.983C103.947 236.587 103.947 236.587 106.725 229.608C108.54 225.049 109.617 224.279 113.322 224.411C115.175 224.467 116.101 225.912 117.462 226.718C117.878 226.962 118.029 227.675 118.691 227.15C118.691 227.544 118.691 227.957 118.691 228.369Z" fill="#FBB03B"/>
<path d="M140.466 123.981C140.315 123.737 140.126 123.549 139.88 123.399C139.748 123.005 139.597 122.611 139.464 122.217C139.067 120.735 138.519 119.29 137.839 117.902C136.724 115.632 133.529 115.388 132.659 117.47C131.658 119.853 130.089 121.711 128.425 123.624C126.327 126.044 126.497 127.939 128.614 129.797C129.635 130.697 130.505 131.298 131.336 131.654C131.393 131.767 131.431 131.879 131.506 131.973C131.96 132.555 132.773 132.874 133.491 132.649C134.398 132.367 135.306 132.104 136.213 131.823C137.309 131.485 138.217 130.941 138.973 130.097C139.71 129.271 140.409 128.39 140.769 127.339C141.166 126.251 141.071 124.975 140.466 123.981Z" fill="#FBB03B"/>
<path d="M134.814 169.702C131.204 169.571 128.009 165.725 128.652 162.291C128.747 161.822 128.898 161.391 129.333 161.222C132.092 160.227 133.151 157.62 134.777 155.575C136.723 153.136 138.878 153.154 140.088 155.631C139.048 160.603 136.723 165.087 134.814 169.702Z" fill="#FBB03B"/>
<path d="M113.946 161.747C110.336 161.616 107.141 157.77 107.784 154.337C107.878 153.868 108.03 153.436 108.464 153.267C111.224 152.273 112.283 149.665 113.908 147.62C115.855 145.181 118.01 145.2 119.22 147.676C118.18 152.629 115.855 157.113 113.946 161.747Z" fill="#FBB03B"/>
<path d="M117.386 221.822C115.572 222.291 114.097 221.653 113.228 220.114C112.358 218.595 113.058 217.131 114.116 215.949C115.08 214.861 115.591 212.816 117.802 213.811C117.67 216.475 117.538 219.158 117.386 221.822Z" fill="#FBB03B"/>
<path d="M111.64 173.83C112.377 174.937 113.152 176.006 113.87 177.132C116.006 180.472 115.874 181.597 112.944 185.143C111.167 187.282 108.067 187.882 105.308 186.869C104.079 186.419 103.871 185.012 102.699 184.655C102.737 184.28 102.794 183.924 102.831 183.549L102.794 183.624C103.342 183.305 103.493 182.817 103.399 182.216C105.478 179.627 107.538 177.057 109.617 174.468C110.411 174.712 110.997 174.13 111.64 173.83Z" fill="#FBB03B"/>
<path d="M49.9615 227.675C50.6042 227.356 51.2279 227.018 51.8706 226.718C53.2127 226.062 54.6115 225.743 55.8779 226.793C57.1255 227.825 56.7474 229.176 56.4261 230.489C55.9725 232.309 56.1993 234.467 53.5907 235.086C52.4944 235.349 51.8895 235.105 51.3414 234.298C51.3225 233.735 51.2847 233.172 51.2657 232.609C51.7005 230.733 51.2279 229.101 49.9615 227.675Z" fill="#FBB03B"/>
<path d="M73.4005 209.214C73.7785 210.396 74.1566 211.597 74.5157 212.778C75.1017 214.711 75.6121 216.625 73.3438 217.938C70.8676 219.364 68.3346 220.564 65.5371 218.97C64.2139 218.219 63.0231 217.262 61.492 216.887C64.7621 213.81 68.9773 212.047 72.3041 209.064C72.6066 209.476 73.0224 209.27 73.4005 209.214Z" fill="#FBB03B"/>
<path d="M142.016 77.0955C142.772 76.8328 143.528 76.5514 144.284 76.3263C146.874 75.5383 149.237 77.1705 148.953 79.7971C148.689 82.3674 148.537 84.844 148.84 87.4706C149.199 90.6413 146.042 89.5531 144.398 89.7782C142.961 89.9846 141.222 89.3467 141.562 87.1516C141.846 85.313 142.319 83.4744 141.525 81.6545C141.43 80.904 141.336 80.1724 141.241 79.4219C141.355 78.5964 141.468 77.7897 141.562 76.9829C141.714 77.0204 141.752 77.4332 142.016 77.0955Z" fill="#FBB03B"/>
<path d="M144.625 58.1277C147.933 58.7468 147.781 58.7656 147.914 63.6998C147.989 66.5891 146.61 67.4521 144.114 67.5272C143.963 67.1707 143.812 66.833 143.661 66.4765C143.528 63.8312 143.283 61.1858 143.906 58.5592C144.133 58.4279 144.379 58.2778 144.625 58.1277Z" fill="#FBB03B"/>
<path d="M50.3206 249.551C51.8139 249.289 51.1712 248.069 51.0578 247.412C50.5852 244.692 52.3998 243.623 54.3846 243.078C56.4639 242.516 58.5809 243.191 59.8852 245.011C61.6809 247.487 62.8529 250.114 60.3389 252.947C58.9212 254.542 59.0346 256.999 57.2767 258.5C55.4242 260.095 53.345 259.889 51.1901 259.664C50.8876 259.626 50.5852 259.589 50.2828 259.551C50.3017 257.281 50.3017 255.011 50.3206 252.741C50.623 252.572 50.9633 253.36 51.0578 252.853C51.1523 252.347 51.6626 251.296 50.3017 251.371C50.0938 250.752 50.037 250.152 50.3206 249.551ZM51.0767 255.78L50.9255 255.761L50.9822 255.968L51.0767 255.78Z" fill="#FBB03B"/>
<path d="M78.6931 239.138C76.973 239.27 75.8389 238.669 75.3852 237C75.2529 236.493 74.7992 236.061 74.7047 235.555C74.3645 233.998 71.945 233.923 72.2474 231.784C72.8712 227.394 74.3834 223.548 78.1261 220.846C79.7895 219.664 82.1901 220.696 82.7193 222.835C83.4754 225.855 84.4206 228.801 85.9516 231.559C87.2181 233.848 86.7266 235.367 84.4206 236.662C82.587 237.712 81.037 239.42 78.6931 239.138Z" fill="#FBB03B"/>
<path d="M86.5754 218.594C84.4772 218.613 83.0028 217.169 81.6229 215.593C78.4473 211.953 78.4851 211.99 82.568 209.214C84.1936 208.107 85.6302 206.737 87.1235 205.461C89.94 203.06 92.3406 203.623 93.5692 207C93.7205 207.413 93.8717 207.844 94.0607 208.238C96.1022 212.141 95.9887 213.022 92.3217 215.63C90.6394 216.868 89.2217 218.726 86.5754 218.594Z" fill="#FBB03B"/>
<path d="M110.96 208.163C112.094 212.534 108.275 214.617 105.516 217.15C104.4 218.182 102.68 217.806 101.527 216.774C98.1248 213.773 97.8602 209.045 100.752 205.611C101.206 205.067 101.716 204.523 102.038 203.904C103.304 201.521 105.364 200.94 107.746 201.559C110.128 202.178 111.356 203.81 110.96 206.381C110.903 206.831 110.96 207.281 110.96 208.163Z" fill="#FBB03B"/>
<path d="M98.276 252.534C96.6315 251.821 94.5334 251.615 92.851 250.302C91.887 249.57 91.887 248.707 92.2462 247.675C93.3047 244.748 94.2309 241.784 95.384 238.895C96.348 236.474 99.6937 236.118 101.244 238.219C102.775 240.283 104.778 242.028 105.572 244.598C105.761 245.198 106.083 245.705 105.913 246.38C105.44 248.388 100.525 252.515 98.276 252.534Z" fill="#FBB03B"/>
<path d="M68.2968 249.42C67.4084 249.345 67.0493 249.363 66.709 249.288C65.1779 248.894 60.0743 242.722 59.9609 241.202C59.8475 239.833 60.6981 238.951 61.681 238.35C63.3822 237.319 65.0267 236.23 66.6334 235.105C68.7694 233.604 70.395 234.242 71.4913 236.662C72.2285 238.294 72.9468 239.926 74.2133 241.277C75.4041 242.534 75.3096 243.791 73.9108 244.973C72.7578 245.968 71.6993 247.074 70.6407 248.2C69.8468 249.044 68.9584 249.532 68.2968 249.42Z" fill="#FBB03B"/>
<path d="M86.5565 223.998C86.6132 223.848 86.5943 223.247 86.8778 223.022C89.4864 221.034 91.9248 218.707 95.3272 218.107C96.726 217.863 97.7656 218.313 97.9924 220.002C98.2382 221.859 98.9754 223.641 99.9961 225.199C100.998 226.718 100.393 227.75 99.2778 228.669C98.1059 229.645 96.8205 230.489 95.554 231.334C92.7565 233.21 90.6016 232.778 88.6925 229.964C87.5772 228.332 86.5187 225.518 86.5565 223.998Z" fill="#FBB03B"/>
<path d="M113.474 165.443C113.587 165.237 113.719 165.03 113.833 164.824C116.498 163.886 119.409 163.567 121.715 161.672C122.83 160.753 124.361 160.903 125.552 161.541C126.705 162.16 126.8 163.398 126.327 164.618C126.233 164.862 126.195 165.18 126.289 165.406C128.104 169.664 125.76 171.991 122.547 174.317C119.352 176.644 116.479 176.081 115.628 172.272C115.118 169.908 114.532 167.619 113.474 165.443Z" fill="#FBB03B"/>
<path d="M72.3986 155.031C72.4364 154.806 72.4742 154.562 72.512 154.337C74.7047 152.554 77.3321 151.279 78.8443 148.708C79.5815 147.47 81.0748 147.076 82.4169 147.282C83.7212 147.47 84.2315 148.596 84.1937 149.909C84.1937 150.172 84.2693 150.491 84.4205 150.66C87.5961 154.055 86.1785 157.038 83.9669 160.303C81.7553 163.567 78.8632 163.999 76.7651 160.716C75.4797 158.689 74.1376 156.72 72.3986 155.031Z" fill="#FBB03B"/>
<path d="M104.552 197.263C104.627 198.445 104.174 199.326 103.304 200.133C102.378 200.977 101.527 201.859 100.922 203.004C99.4291 205.78 96.4047 206.006 94.4577 203.492C93.3047 202.009 92.3407 200.396 91.2632 198.857C90.6016 197.901 90.6205 196.775 91.5468 196.25C94.1175 194.805 95.762 192.178 98.6541 191.128C102.056 189.889 103.474 190.64 103.89 194.148C104.003 195.199 104.325 196.212 104.552 197.263Z" fill="#FBB03B"/>
<path d="M72.9846 224.13C72.9468 228.126 70.0169 231.709 66.0852 232.741C64.97 233.041 63.9681 233.754 62.8529 234.073C61.4352 234.486 59.9419 234.561 58.9212 233.191C57.995 231.972 57.9572 230.809 58.5998 229.251C60.2633 225.274 62.5126 222.479 67.3517 222.835C68.3535 222.91 69.3931 222.16 70.4516 221.972C72.1151 221.672 73.098 222.31 72.9846 224.13Z" fill="#FBB03B"/>
<path d="M86.6321 240.733C90.3559 240.677 90.8284 241.315 89.6187 244.767C87.5583 250.695 84.6095 253.191 79.865 253.153C78.6553 253.134 77.5212 252.853 76.4815 252.365C75.5364 251.952 74.8748 251.164 75.3285 249.982C77.0864 245.48 80.8291 240.864 86.6321 240.733Z" fill="#FBB03B"/>
<path d="M113.322 201.334C110.714 201.24 106.688 196.85 106.933 194.317C106.971 193.998 107.16 193.586 107.425 193.417C110.166 191.785 112.131 189.027 115.364 188.126C116.29 187.863 117.084 187.807 117.897 188.426C119.598 189.721 120.543 193.586 119.692 196.025C118.823 198.576 115.439 201.39 113.322 201.334Z" fill="#FBB03B"/>
<path d="M126.365 188.538C123.964 189.533 118.464 187.169 117.632 184.767C117.538 184.467 117.538 183.998 117.708 183.754C119.522 181.146 120.165 177.826 122.736 175.668C123.473 175.049 124.153 174.674 125.174 174.899C127.253 175.387 129.73 178.52 129.975 181.071C130.221 183.792 128.312 187.75 126.365 188.538Z" fill="#FBB03B"/>
<path d="M96.1778 163.323C93.7772 164.317 88.2766 161.953 87.4449 159.552C87.3504 159.252 87.3504 158.783 87.5205 158.539C89.3352 155.931 89.9778 152.61 92.5486 150.453C93.2858 149.833 93.9662 149.458 94.987 149.683C97.0662 150.171 99.5425 153.304 99.7882 155.856C100.034 158.557 98.1248 162.516 96.1778 163.323Z" fill="#FBB03B"/>
<path d="M118.993 155.857C118.653 153.943 120.07 152.648 120.883 151.26C122.755 147.996 123.114 144.056 125.59 141.091C127.442 141.054 128.558 141.842 129.106 143.68C129.484 144.956 130.221 146.119 130.864 147.301C131.336 148.164 131.431 148.99 130.845 149.815C129.37 151.935 128.047 154.168 126.384 156.119C123.87 158.971 121.45 158.802 118.993 155.857Z" fill="#FBB03B"/>
<path d="M70.9053 131.091C70.5651 129.177 71.9828 127.883 72.7956 126.494C74.6669 123.23 75.0261 119.29 77.4834 116.307C79.3358 116.269 80.4511 117.057 80.9992 118.896C81.3773 120.172 82.1145 121.335 82.7572 122.517C83.2297 123.38 83.3242 124.205 82.7382 125.031C81.2639 127.151 79.9407 129.383 78.2773 131.335C75.8011 134.224 73.3627 134.036 70.9053 131.091Z" fill="#FBB03B"/>
<path d="M76.2359 256.943C76.217 259.926 74.4402 262.478 72.1152 263.191C69.5444 263.979 66.5011 262.984 64.9133 260.846C62.4749 257.562 62.4749 257.562 66.1042 255.442C66.5578 255.18 67.0115 254.861 67.3517 254.467C69.8847 251.596 72.7578 251.54 75.4798 254.298C76.3871 255.198 76.217 256.249 76.2359 256.943Z" fill="#FBB03B"/>
<path d="M105.346 254.185C107.954 254.41 108.2 256.924 108.937 258.575C109.712 260.32 108.729 262.215 107.085 263.415C105.553 264.541 103.739 264.71 102.453 263.359C101.187 262.027 99.6937 260.432 101.319 258.218C102.435 256.661 102.378 254.016 105.346 254.185Z" fill="#FBB03B"/>
<path d="M108.351 245.198C110.544 243.772 112.302 245.592 113.908 246.437C115.61 247.337 116.006 249.42 115.477 251.39C114.967 253.209 113.663 254.466 111.791 254.185C109.958 253.922 107.803 253.585 107.689 250.845C107.614 248.913 105.913 246.868 108.351 245.198Z" fill="#FBB03B"/>
<path d="M51.7761 268.65C51.7194 267.806 51.6627 266.962 51.606 266.136C51.9084 265.817 52.2865 265.554 52.4944 265.179C55.1218 260.714 56.067 260.395 60.5468 262.421C61.0761 262.665 61.3974 263.04 61.5487 263.603C62.3047 266.399 58.5999 270.245 55.7078 269.607C54.3846 269.288 53.0804 268.95 51.7761 268.65Z" fill="#FBB03B"/>
<path d="M93.1913 262.815C91.7547 262.797 89.77 260.057 89.7889 258.069C89.7889 256.455 92.7376 254.204 94.7602 254.26C96.7071 254.316 98.9376 256.849 98.862 258.913C98.7864 260.189 94.9681 262.834 93.1913 262.815Z" fill="#FBB03B"/>
<path d="M85.4413 258.293C85.5547 260.62 82.5303 263.884 80.5834 263.678C78.9956 263.509 77.6157 262.552 77.3889 260.864C77.1431 258.95 80.1108 256.361 82.3602 256.38C83.9102 256.399 85.2334 256.849 85.4413 258.293Z" fill="#FBB03B"/>
<path d="M157.497 57.1897C157.478 57.9402 157.27 59.3285 155.21 59.2722C153.471 59.2159 151.052 56.1953 151.203 53.9252C151.316 52.1053 152.791 51.7113 154.341 51.7113C156.458 51.6926 157.497 53.2873 157.497 57.1897Z" fill="#FBB03B"/>
<path d="M122.074 104.694C121.224 103.775 119.863 103.324 118.672 102.987C115.685 102.142 112.642 101.486 109.636 100.735C109.088 100.604 108.54 100.735 108.105 101.017C107.765 100.716 107.311 100.51 106.858 100.51C105.799 100.51 105.005 101.373 104.967 102.386L104.816 106.476C104.778 107.264 104.816 108.09 105.421 108.709C105.969 109.253 106.763 109.403 107.463 109.628C110.071 110.416 112.699 111.204 115.307 112.011C116.649 112.424 118.218 113.174 119.485 112.198C120.014 111.804 120.373 111.185 120.751 110.66C121.129 110.116 121.507 109.553 121.847 108.971C122.66 107.602 123.322 106.045 122.074 104.694Z" fill="#FBB03B"/>
<path d="M133.037 111.035C132.735 110.304 132.357 109.516 131.771 108.953C131.544 108.746 131.298 108.615 131.015 108.521C130.864 108.165 130.637 107.846 130.278 107.658C129.73 107.377 129.068 107.377 128.52 107.621C127.82 107.039 126.554 106.87 125.911 107.658C125.08 108.709 124.21 109.76 123.586 110.96C122.963 112.161 122.433 113.606 122.566 114.994C122.66 115.895 122.925 116.72 123.548 117.395C124.078 117.977 124.853 118.334 125.628 118.484C127.234 118.784 128.879 118.896 130.391 118.183C133 116.945 134.077 113.643 133.037 111.035Z" fill="#FBB03B"/>
<path d="M126.743 122.067C126.686 121.711 126.667 121.598 126.478 121.223C126.422 121.091 126.327 121.016 126.252 120.885C125.855 120.379 125.325 120.078 124.702 119.891C124.116 119.684 123.492 119.628 122.887 119.759C122.622 119.816 122.358 119.928 122.131 120.078C121.904 120.228 121.677 120.397 121.488 120.604C121.28 120.829 121.11 121.091 120.921 121.335C120.902 121.373 120.864 121.392 120.845 121.429C120.827 121.448 120.808 121.485 120.789 121.504C120.751 121.542 120.713 121.598 120.694 121.636C120.732 121.598 120.751 121.56 120.789 121.523C120.505 121.879 120.297 122.292 120.297 122.742C120.297 123.211 120.505 123.756 120.845 124.075C120.978 124.187 121.129 124.281 121.299 124.375C121.431 124.919 121.658 125.407 122.017 125.838C122.112 125.951 122.206 126.007 122.339 126.101C122.452 126.195 122.566 126.288 122.698 126.345C122.887 126.438 123.076 126.532 123.284 126.57C123.605 126.645 123.87 126.645 124.172 126.607C124.512 126.57 124.834 126.476 125.136 126.27C125.495 126.026 125.779 125.763 125.987 125.388C126.195 125.031 126.308 124.637 126.403 124.243C126.478 123.906 126.573 123.549 126.648 123.211C126.686 123.043 126.705 122.893 126.724 122.724C126.781 122.461 126.781 122.348 126.743 122.067Z" fill="#FBB03B"/>
<path d="M142.394 133.268C141.846 132.33 140.731 132.161 139.805 132.593C137.801 133.531 135.23 134.337 134.209 136.476C133.038 138.915 133.964 141.523 134.644 143.962C135.23 146.082 135.948 148.765 138.519 149.159C141.997 149.703 141.997 145.35 142.224 143.061C142.489 140.341 142.583 137.602 142.508 134.863C142.697 134.319 142.678 133.718 142.394 133.268Z" fill="#FBB03B"/>
<path d="M129.843 133.474C129.748 133.305 129.635 133.155 129.522 133.005C129.314 132.742 129.106 132.442 128.879 132.198C128.388 131.691 127.783 131.335 127.102 131.11C126.535 130.922 125.93 130.885 125.344 130.847C124.909 130.81 124.305 131.072 124.002 131.391C123.662 131.766 123.454 132.217 123.454 132.723C123.454 133.042 123.492 133.38 123.605 133.68C123.643 133.793 123.719 133.886 123.775 133.999C123.775 134.862 123.832 135.744 124.021 136.588C124.116 137.02 124.342 137.451 124.645 137.77C124.985 138.108 125.363 138.314 125.817 138.464C126.138 138.577 126.516 138.614 126.838 138.633C127.045 138.652 127.253 138.652 127.48 138.633C128.009 138.577 128.331 138.521 128.803 138.295C129.181 138.108 129.559 137.733 129.767 137.376C130.108 136.776 130.202 136.119 130.297 135.462C130.353 134.787 130.183 134.074 129.843 133.474Z" fill="#FBB03B"/>
<path d="M112.169 166.607C112.396 165.819 112.15 164.806 111.356 164.468C109.863 163.811 108.427 163.023 107.141 162.029C106.669 161.654 106.12 161.147 105.61 160.716C104.627 159.89 103.247 159.721 102.283 160.697C101.716 161.26 101.508 162.198 101.244 162.742C100.922 163.417 100.563 164.074 100.147 164.712C99.3723 165.894 98.4839 166.907 97.3309 167.901C97.0662 168.126 96.8772 168.277 96.7071 168.408C96.3101 168.708 95.8943 168.971 95.6297 169.421C94.9492 170.565 95.5351 171.916 96.6126 172.554C98.0303 173.417 100.015 173.642 101.622 173.961C103.436 174.336 105.308 174.674 107.179 174.58C109.069 174.487 111.073 174.186 111.905 172.291C112.566 170.734 113.492 167.976 112.169 166.607Z" fill="#FBB03B"/>
<path d="M92.3028 145.143C92.0192 144.712 91.5278 144.393 91.0174 144.262C90.9985 143.999 90.9229 143.736 90.7717 143.492C89.7132 141.916 88.7869 140.265 88.0119 138.539C87.993 138.483 87.8418 138.183 87.8229 138.108C87.7473 137.92 87.6528 137.714 87.5772 137.526C87.3882 137.057 87.2558 136.494 86.9723 136.082C85.9327 134.562 84.118 135.068 83.0028 136.175C82.1333 137.038 81.3016 138.295 81.604 139.552C81.7174 139.984 81.9254 140.415 82.0766 140.828C82.3034 141.391 82.5113 141.935 82.7571 142.479C83.1351 143.342 83.6266 144.168 84.3449 144.824C84.6095 145.068 84.893 145.275 85.1766 145.5C85.3089 145.612 85.4223 145.706 85.5546 145.819C85.6302 145.875 85.6869 145.95 85.7436 146.025C85.7436 146.025 85.7437 146.025 85.7626 146.044V146.063C85.7437 146.044 85.8571 146.269 85.876 146.307C86.0083 146.625 86.1217 146.982 86.3107 147.263C86.7266 147.901 87.3126 148.352 88.0497 148.577C89.3351 148.971 90.6016 148.445 91.6412 147.714C92.4351 147.151 92.8888 146.044 92.3028 145.143Z" fill="#FBB03B"/>
<path d="M76.3304 140.641C76.1224 139.778 75.7822 138.877 75.2529 138.145C74.8182 137.545 74.3078 137.057 73.5328 136.888C72.7389 136.72 71.9261 136.945 71.2834 137.414C70.3005 138.108 69.62 139.121 69.1663 140.228C68.7694 141.166 68.6938 142.254 68.9584 143.249C69.1096 143.849 69.4499 144.449 69.8846 144.937C69.809 145.143 69.7523 145.35 69.7523 145.556C69.7712 146.044 69.9413 146.551 70.3005 146.888C70.6407 147.207 71.1511 147.489 71.6426 147.432C72.7011 147.301 73.7974 147.132 74.7047 146.513C75.631 145.894 76.406 144.975 76.6139 143.868C76.8407 142.779 76.595 141.673 76.3304 140.641Z" fill="#FBB03B"/>
<path d="M92.6998 169.421C92.3029 168.557 91.5279 167.901 90.7529 167.376C90.4315 167.169 90.0913 167 89.77 166.813C89.5809 166.719 89.4108 166.606 89.2218 166.512C89.1273 166.456 89.0517 166.4 88.9572 166.344C88.9194 166.325 88.8248 166.25 88.787 166.212C88.7303 166.175 88.6736 166.118 88.6358 166.081C88.3901 165.893 88.1633 165.706 87.8986 165.518C87.5017 165.255 87.0291 165.03 86.5566 164.955C85.3279 164.749 84.1937 165.124 83.173 165.8C82.3413 166.344 81.9255 167.488 82.4925 168.37C82.7761 168.82 83.2675 169.12 83.7968 169.252C84.0236 169.533 84.3261 169.777 84.723 169.908C84.8553 169.965 85.0066 170.002 85.1389 170.058C85.2523 170.115 85.6681 170.34 85.2145 170.096C85.4413 170.227 85.687 170.302 85.9139 170.415C86.4242 170.659 86.9346 170.94 87.4261 171.24C88.6736 172.01 90.0724 172.554 91.5657 172.16C92.1328 172.01 92.5675 171.597 92.7943 171.072C93.0401 170.509 92.9456 169.983 92.6998 169.421Z" fill="#FBB03B"/>
<path d="M102.264 279.194C102.302 279.007 102.34 278.819 102.359 278.632C102.435 278.238 102.378 277.825 102.245 277.45C102.51 276.53 101.83 275.423 100.922 275.217C99.8827 274.973 99.0132 275.517 98.6351 276.474C98.6351 276.474 98.6351 276.455 98.6162 276.474C98.5595 276.549 98.5217 276.643 98.465 276.737C98.465 276.737 98.465 276.737 98.4461 276.737C98.3894 276.793 98.3327 276.849 98.276 276.906C98.276 276.906 98.276 276.906 98.2571 276.906C98.1626 276.962 98.0869 277.018 97.9924 277.056C97.8034 277.149 97.5955 277.225 97.4254 277.337C96.0833 278.144 95.9699 279.664 95.9699 281.071C95.9699 281.615 95.9888 282.14 96.0455 282.684C96.1022 283.266 96.1589 283.847 96.3668 284.391C96.6693 285.161 97.1418 285.742 97.8412 286.192C98.0113 286.305 98.2004 286.38 98.3705 286.474C98.465 286.511 98.5595 286.568 98.6351 286.624C98.7485 286.699 99.0321 286.924 98.654 286.605C99.1266 286.999 99.618 287.206 100.242 287.131C100.771 287.056 101.376 286.755 101.622 286.23C102.227 284.917 102.34 283.566 102.264 282.121C102.227 281.54 102.189 280.939 102.189 280.358C102.189 280.039 102.208 279.72 102.245 279.401C102.245 279.326 102.264 279.27 102.264 279.194Z" fill="#FBB03B"/>
<path d="M112.793 271.746C112.547 270.864 112.321 269.926 111.64 269.288C110.865 268.575 109.882 268.387 108.861 268.312C107.878 268.237 106.933 269.232 106.971 270.188C106.99 270.714 107.198 271.145 107.519 271.464C107.482 271.708 107.5 271.952 107.557 272.196C107.576 272.271 107.595 272.346 107.595 272.421C107.595 272.44 107.595 272.477 107.614 272.496C107.614 272.534 107.614 272.534 107.614 272.552C107.538 272.477 107.614 272.459 107.614 272.609C107.614 272.684 107.633 272.759 107.633 272.834C107.652 273.19 107.652 273.547 107.671 273.922C107.671 274.597 107.652 275.254 107.727 275.929C107.878 277.543 108.408 279.888 110.279 280.32C111.016 280.489 111.81 280.282 112.358 279.757C112.736 279.4 112.944 278.913 113.096 278.425C113.341 277.693 113.455 276.886 113.474 276.117C113.511 274.635 113.19 273.153 112.793 271.746Z" fill="#FBB03B"/>
<path d="M95.4784 268.463C94.8924 267.074 93.6449 265.967 92.1327 265.648C90.3748 265.273 88.5601 265.817 87.2748 267.074C86.5754 267.768 86.5187 269.044 87.2748 269.72C87.4827 269.907 87.7284 270.039 87.9742 270.132C87.9931 271.314 89.2595 272.084 90.3559 271.821C90.3748 271.821 90.4126 271.802 90.4315 271.783C90.4504 272.027 90.4504 272.271 90.5071 272.534C90.6772 273.303 91.0931 273.997 91.6223 274.598C92.4162 275.498 93.626 276.005 94.7601 275.404C95.7809 274.86 95.9132 273.66 95.9699 272.646C96.0833 271.258 96.0266 269.757 95.4784 268.463Z" fill="#FBB03B"/>
<path d="M78.5608 267.975C78.4663 267.843 78.3718 267.731 78.2584 267.6C78.0315 267.374 77.748 267.206 77.4267 267.112C76.7084 266.83 75.9145 266.699 75.1395 266.68C74.6858 266.661 74.2133 266.736 73.7596 266.793C73.3627 266.849 73.0224 266.98 72.6444 267.149C71.7181 267.562 70.981 268.556 70.981 269.569C70.981 270.376 71.359 271.145 72.0773 271.577C72.4364 271.783 72.8334 271.877 73.2492 271.877C73.5517 271.877 73.8163 271.783 74.0809 271.69C74.2889 271.596 74.5157 271.558 74.7425 271.502C74.8559 271.502 74.9883 271.483 75.1017 271.502C75.5742 271.539 76.1224 271.277 76.4437 270.958C76.5005 270.902 76.5194 270.826 76.5761 270.77C76.9919 270.845 77.5212 270.733 77.8614 270.545C78.2584 270.32 78.6364 269.87 78.7309 269.419C78.8633 268.932 78.8444 268.406 78.5608 267.975Z" fill="#FBB03B"/>
<path d="M65.9529 270.076C65.4425 269.757 64.8566 269.513 64.2517 269.419C63.7224 269.326 63.2121 269.269 62.6828 269.419C62.1724 269.551 61.8322 269.813 61.4352 270.132C61.0383 270.451 60.6602 270.789 60.3011 271.145C60.0175 271.427 59.7529 271.746 59.4505 272.027C59.1669 272.121 58.9023 272.196 58.6377 272.327C57.7493 272.778 57.2767 273.753 57.5035 274.729C57.7115 275.629 58.5621 276.173 59.4316 276.286C59.9797 276.361 60.5468 276.305 61.0761 276.117C61.8889 275.817 62.6261 275.385 63.4011 275.01C64.1005 274.673 64.8188 274.354 65.5181 274.053C65.9151 273.885 66.2553 273.359 66.3688 272.965C66.4633 272.871 66.5767 272.778 66.6334 272.646C67.1248 271.708 66.8602 270.639 65.9529 270.076Z" fill="#FBB03B"/>
<path d="M59.2425 287.806C59.1858 286.492 58.8078 285.254 58.2029 284.072C57.9572 283.603 57.6358 283.153 57.3712 282.702C57.2956 282.59 57.2389 282.459 57.1633 282.327C57.1444 282.308 57.1444 282.308 57.1444 282.308C57.1444 282.29 57.1444 282.308 57.1444 282.29C57.1444 282.271 57.1255 282.215 57.1066 282.158C57.1066 282.14 57.1066 282.158 57.1066 282.14C57.1066 282.083 57.1066 282.065 57.1066 282.121C57.1066 282.083 57.1066 282.065 57.1066 282.065C57.1444 281.633 57.1444 281.239 56.8986 280.826C56.6718 280.432 56.2181 280.057 55.7645 279.963C54.8194 279.757 53.6474 280.245 53.4395 281.277C53.3828 281.577 53.3639 281.858 53.3639 282.14C53.2694 283.059 53.2316 283.959 53.3261 284.898C53.4584 286.098 53.6663 287.243 54.4224 288.2C54.4035 288.894 54.4602 289.625 54.6492 290.282C54.9706 291.445 56.048 292.308 57.3145 291.952C58.959 291.445 59.3181 289.288 59.2425 287.806Z" fill="#FBB03B"/>
<path d="M179.972 44.2255C178.309 41.0173 176.343 37.9967 174.037 35.22C171.844 32.5747 169.273 30.2482 166.438 28.297C168.498 25.3515 170.181 22.1433 171.372 18.7662C171.674 17.9032 171.825 16.9651 171.579 16.0458C171.239 14.77 169.954 13.9633 168.65 14.0383C167.515 14.1134 166.362 14.3385 165.323 14.8076C164.283 15.2954 163.546 16.1396 162.865 17.0402C162.45 17.603 162.053 18.1846 161.637 18.7662L161.599 15.3704C161.58 14.3948 160.748 13.4567 159.709 13.4943C158.707 13.5318 157.8 14.3198 157.819 15.3704C157.856 17.7156 157.913 20.0795 157.97 22.4247C157.573 22.4435 157.176 22.4435 156.798 22.4622C156.647 22.4622 156.495 22.4622 156.344 22.481C156.798 20.2296 157.044 17.9407 157.062 15.6518C157.081 14.6762 156.193 13.7382 155.172 13.7757C154.133 13.8132 153.301 14.6012 153.282 15.6518C153.282 16.3835 153.244 17.1152 153.187 17.8469C153.169 18.2034 153.131 18.5786 153.093 18.9351C153.074 19.1227 153.055 19.3291 153.017 19.5542C152.62 19.0101 152.242 18.4473 151.808 17.9032C150.522 16.3085 148.991 14.5637 146.893 14.0759C145.608 13.7757 144.058 13.907 143.301 15.1265C142.734 16.0083 142.791 17.3404 142.81 18.3535C142.867 20.2859 143.264 22.1996 144.001 23.9819C144.7 25.6704 145.664 27.2464 146.893 28.616C144.473 31.13 142.678 34.2257 142.13 37.6778C141.581 41.0548 141.808 44.5632 141.695 47.9591C141.6 50.3793 141.468 52.8183 141.298 55.2385C141.128 57.6025 140.75 59.9852 140.75 62.3491C140.409 66.1202 139.994 69.8912 139.502 73.6623C139.445 74.1125 139.389 74.5628 139.313 75.0131C139.124 76.439 138.916 77.8648 138.708 79.2907C137.328 88.4275 136.251 98.7651 132.943 107.433C132.697 108.052 125.42 103.268 124.607 102.836C121.469 101.167 117.462 100.397 113.965 99.9283C106.65 98.9527 99.0699 99.8908 92.2839 102.761C81.5473 107.32 72.9656 116.645 69.3742 127.695C61.5108 151.898 78.7498 177.713 105.213 175.312C104.533 175.368 101.319 181.71 100.695 182.573C98.9942 184.955 97.104 187.225 95.1193 189.383C91.0363 193.773 86.4242 197.657 81.5662 201.184C74.9504 205.987 68.051 210.358 60.9059 214.336C57.8815 216.024 55.1596 217.9 51.8517 219.082C48.2602 220.358 44.4986 221.146 41.0584 222.853C35.9169 225.424 34.2157 230.114 33.7432 235.517C33.1005 242.909 33.4218 250.414 35.1419 257.656C35.5578 259.42 36.0493 261.146 36.6163 262.872C37.1834 264.579 39.1492 266.736 38.8657 268.594C38.5822 270.395 31.8151 278.406 36.1438 279.382C37.0889 279.588 38.2608 279.1 38.4688 278.068C38.62 277.299 38.7901 276.53 39.0169 275.78C39.0925 275.498 39.206 275.235 39.3005 274.954C39.3761 276.605 39.4328 278.237 39.4139 279.888C39.395 280.864 40.2834 281.802 41.3041 281.764C42.3438 281.727 43.1755 280.939 43.1944 279.888C43.2133 278.8 43.1944 277.731 43.1566 276.643L43.1755 276.718C43.2133 277.037 43.2511 277.374 43.27 277.693C43.3267 278.294 43.3645 278.913 43.3834 279.513C43.4212 280.489 44.234 281.427 45.2736 281.389C46.2565 281.352 47.2017 280.564 47.1639 279.513C47.0694 276.868 46.6913 274.241 46.0297 271.671C45.8596 271.033 45.3114 270.564 44.6687 270.376C45.3681 266.943 44.9523 263.547 44.3285 260.114C43.6291 256.305 42.9864 252.497 42.6273 248.65C42.3059 245.142 41.7956 241.409 42.5517 237.919C43.0242 235.724 44.8767 231.352 47.4852 231.409C46.4645 231.446 49.1864 272.402 50.1882 277.093C51.8706 284.935 50.8876 294.86 55.2541 301.82C56.237 303.378 57.6169 304.841 59.4126 305.254C67.0681 306.999 62.7016 295.929 62.0401 293.021C61.1327 289.119 60.5846 285.123 60.4334 281.108C60.2065 275.029 71.548 271.765 76.2169 273.097C76.1413 277.618 75.8766 281.821 77.0486 286.286C77.5211 288.068 78.3717 290.057 80.1675 290.545C86.6132 292.29 86.8211 279.138 86.3485 275.704C86.1028 273.903 86.5565 271.614 88.9949 271.99C89.3162 279.4 89.6943 286.793 90.1101 294.203C90.337 298.087 89.6187 302.458 91.0931 306.136C93.0778 311.107 99.618 311.239 101.716 306.248C102.491 304.391 102.567 302.327 102.624 300.32C102.794 294.916 102.945 289.494 103.115 284.091C103.209 281.295 103.285 278.481 103.38 275.686C103.436 273.903 102.85 270.676 105.364 270.395C107.179 273.753 106.196 279.457 106.48 283.247C106.706 286.417 107.311 290.263 108.899 293.059C109.769 294.579 111.205 295.892 112.944 296.154C116.214 296.642 117.575 293.228 118.199 290.639C120.259 282.027 119.484 272.421 119.787 263.622C120.165 252.853 120.014 241.671 119.881 230.752C119.806 225.067 119.749 219.383 119.768 213.717C119.787 210.114 119.825 206.812 121.545 203.623C123.567 199.908 125.703 196.287 127.65 192.535C131.884 184.336 135.362 175.95 138.784 167.413C141.959 159.552 141.865 150.922 144.171 142.836C146.534 134.487 151.033 126.72 153.717 118.39C159.406 100.66 161.996 81.9736 161.278 63.381C161.221 61.805 161.183 60.2291 161.013 58.6531C160.824 56.9646 160.578 55.2948 160.559 53.6063C160.559 52.8933 160.578 52.1804 160.748 51.505C160.843 51.1485 160.937 50.7733 161.126 50.4356C161.391 49.9478 161.448 50.0416 161.901 50.3042C163.622 51.2423 165.455 52.0303 167.326 52.6682C170.653 53.7939 175.152 55.0697 178.517 53.4749C180.086 52.7245 181.314 51.2611 181.56 49.535C181.806 47.6401 180.823 45.8765 179.972 44.2255ZM57.6169 298.218C58.2974 298.162 58.959 298.087 59.6205 297.956C59.8096 298.687 59.9986 299.419 60.1687 300.169C60.8114 303.152 58.4297 299.682 57.6169 298.218ZM82.2467 284.297C82.1144 284.841 81.9632 285.385 81.7175 285.873C81.604 286.098 81.3394 286.717 81.0748 286.811C81.1315 286.793 80.8857 286.605 80.8101 286.436C80.5833 286.042 80.5266 285.517 80.451 285.085C80.3187 284.429 80.2242 283.772 80.1297 283.115C80.3565 282.946 80.6022 282.815 80.8479 282.702C81.0748 282.627 81.3016 282.552 81.5473 282.515C81.8498 282.496 82.1522 282.477 82.4547 282.515C82.379 282.515 82.3223 282.496 82.2467 282.496C82.3412 282.515 82.4168 282.496 82.5114 282.515C82.4547 283.115 82.379 283.716 82.2467 284.297ZM82.587 278.819C81.812 278.744 81.037 278.744 80.262 278.931C80.1108 278.969 79.9595 279.025 79.8083 279.082C79.7705 276.961 79.8839 274.841 80.2053 272.74C81.0181 272.721 81.8309 272.721 82.6437 272.684C82.6437 274.729 82.6248 276.774 82.587 278.819ZM98.2193 304.766C97.8223 305.704 96.6693 307.111 95.5162 306.323C94.3065 305.516 94.1741 303.152 94.1552 301.239C95.0815 301.145 96.0077 301.051 96.9339 300.882C97.5766 300.77 98.2004 300.601 98.7863 300.338C98.7485 301.82 98.7863 303.396 98.2193 304.766ZM114.022 291.089C113.455 292.627 113.284 292.515 112.339 291.201C111.697 290.301 111.338 289.156 111.035 288.125C110.903 287.637 110.789 287.149 110.695 286.642C112.018 286.117 113.341 285.592 114.645 285.048C114.929 284.935 115.213 284.785 115.496 284.654C115.213 286.849 114.778 289.006 114.022 291.089ZM138.5 154.449C135.986 165.631 131.563 176.531 127.537 184.749C123.813 192.347 119.031 199.589 115.931 207.432C115.723 207.976 115.78 208.445 115.988 208.801C116.177 218.126 116.347 227.469 116.536 236.793C116.63 241.596 116.8 246.418 116.744 251.221C116.687 255.817 116.158 260.358 115.798 264.935C115.402 269.757 115.855 274.86 115.761 279.851C115.685 279.907 115.572 279.945 115.496 280.038C115.288 280.264 115.08 280.47 114.834 280.676C114.797 280.695 114.778 280.714 114.74 280.751C114.608 280.845 114.475 280.92 114.343 280.995C113.833 281.314 113.284 281.558 112.717 281.802C112.698 281.802 112.68 281.821 112.661 281.821C112.509 281.877 112.358 281.952 112.207 282.008C111.848 282.158 111.508 282.29 111.148 282.44C110.827 282.571 110.506 282.702 110.184 282.834C110.147 282.44 110.128 282.046 110.109 281.652C109.806 276.961 109.561 272.271 109.296 267.581C109.22 266.399 108.143 265.404 106.895 265.78C104.778 266.399 102.737 267.168 100.714 268.05C99.7125 268.481 99.5802 269.382 99.9205 270.151C99.826 270.357 99.7503 270.601 99.7503 270.883C99.5424 277.412 99.3345 283.941 99.1077 290.488C99.051 292.402 98.9753 294.297 98.9186 296.211C98.5406 296.229 98.1625 296.38 97.8601 296.605C97.6522 296.774 97.4064 296.886 97.1796 296.999C96.6693 297.168 96.1589 297.299 95.6296 297.374C95.1004 297.43 94.5711 297.505 94.0418 297.562C93.9095 294.897 93.7583 292.233 93.626 289.55C93.2857 283.209 92.9644 276.868 92.6241 270.508C93.8339 269.232 92.1327 266.755 90.1668 267.675C85.2144 270.001 79.279 268.706 74.0053 269.382C68.5047 270.095 63.2498 272.083 58.6565 275.198C58.5998 275.235 58.562 275.292 58.5053 275.329C58.1273 275.536 57.787 275.855 57.598 276.324C56.0669 279.963 56.8041 284.391 57.3334 288.162C57.6169 290.282 58.1273 292.308 58.6565 294.335C58.4864 294.372 58.3163 294.41 58.1462 294.428C57.598 294.485 57.0309 294.522 56.4827 294.522C56.3693 293.997 56.2559 293.453 56.1803 292.927C55.6321 289.25 55.5376 285.517 54.9328 281.839C54.2334 277.581 53.1559 273.416 52.3431 269.175C51.5303 264.954 51.209 260.733 51.1712 256.455C51.0956 247.525 51.2846 238.576 51.3602 229.645C51.3602 228.932 51.02 228.444 50.5663 228.163C50.3584 227.919 50.0937 227.713 49.7346 227.6C46.6346 226.606 43.2889 228.913 41.4742 231.24C38.9602 234.448 38.3932 238.557 38.4688 242.515C38.5444 246.962 39.0547 251.408 39.7352 255.799C40.1889 258.744 40.9828 261.746 41.2285 264.767C39.9999 261.84 38.7901 258.875 38.034 255.817C36.9377 251.483 37.5236 246.999 37.448 242.609C37.3724 238.35 36.7675 233.716 38.7523 229.776C40.6614 225.968 44.6309 224.898 48.5059 224.092C48.7706 224.167 49.073 224.185 49.3943 224.129C52.6645 223.529 55.4242 221.765 58.2218 220.077C61.3974 218.182 64.573 216.287 67.7486 214.392C73.8541 210.734 80.1675 207.281 85.9327 203.116C98.9943 193.698 108.786 180.377 115.798 166.081C122.055 153.305 131.374 133.718 121.734 120.472C121.715 120.453 121.696 120.435 121.677 120.397C115.099 111.298 100.166 110.003 91.301 116.251C81.1315 123.418 83.0973 139.853 90.5827 148.239C93.7394 151.785 98.7296 154.168 103.55 153.586C108.975 152.929 113.19 148.783 118.426 147.507C118.445 147.958 118.331 148.464 118.067 148.858C117.897 149.121 117.802 149.384 117.783 149.627C117.613 150.096 117.443 150.584 117.254 151.035C115.591 155.331 113.908 159.609 112.226 163.905C111.413 165.987 110.638 168.107 109.769 170.152C109.674 170.396 109.561 170.64 109.447 170.884C105.478 171.71 101.395 171.991 97.293 171.541C83.6644 170.04 73.5894 159.271 71.6614 145.969C69.7333 132.723 75.026 118.615 85.8571 110.66C95.5162 103.568 108.842 100.641 120.241 105.125C141.317 113.455 142.98 134.431 138.5 154.449ZM120.43 141.522C117.235 143.999 113.511 145.856 109.844 147.451C106.423 148.933 102.51 151.297 98.8052 149.665C95.9699 148.427 93.5315 146.175 91.8113 143.624C88.4278 138.633 87.2559 132.123 88.8626 126.307C90.8662 119.065 97.6522 116.307 104.703 116.307C112.131 116.307 118.218 119.928 120.505 127.132C121.98 131.917 121.602 136.776 120.43 141.522ZM168.139 49.0097C166.136 48.3155 164.415 47.2461 162.506 46.3831C161.297 45.839 160.181 46.1767 158.972 46.552C157.781 46.9272 156.571 47.2274 155.399 47.6776C154.7 47.9403 154.189 48.3906 154.076 49.1598C153.868 50.4919 155.002 51.7301 156.382 51.2986L157.025 51.0922C156.779 51.1673 156.722 52.9684 156.741 53.2498C156.76 54.1128 156.892 54.9946 156.968 55.8389C157.592 62.987 157.762 70.1163 157.365 77.2832C156.987 84.3563 156.117 91.3918 154.794 98.3336C153.471 105.294 151.675 112.18 149.483 118.915C148.027 123.361 146.401 127.752 144.587 132.067C144.776 130.359 144.284 128.652 143.755 127.001C142.772 124.018 141.581 121.091 140.164 118.258C139.143 116.195 136.421 113.286 136.043 111.11C135.608 108.577 137.801 103.924 138.387 101.354C139.181 97.8833 139.899 94.4124 140.561 90.904C141.959 83.512 143.094 76.0637 143.925 68.5779C144.266 65.5573 144.549 62.518 144.795 59.4786C145.173 54.8445 145.494 50.1917 145.551 45.5576C145.589 43.4751 145.494 41.3925 145.702 39.31C146.042 35.6891 147.933 32.6685 150.579 30.2295C151.203 29.6666 151.259 28.9725 151.033 28.3909C151.07 27.8468 150.919 27.3027 150.522 26.9087C149.766 26.1958 149.256 25.6142 148.783 24.9012C148.519 24.526 148.292 24.132 148.065 23.7192C147.933 23.4941 147.819 23.2502 147.706 23.0251C147.668 22.9313 147.611 22.8187 147.573 22.7249C147.555 22.7061 147.555 22.6686 147.517 22.5748C146.874 20.8863 146.609 19.573 146.609 17.9407C146.647 17.9595 146.685 17.9782 146.704 17.997C147.29 18.3722 147.989 19.1415 148.575 19.8356C149.898 21.3928 151.108 23.2502 152.11 25.1639C152.223 25.389 152.394 25.5766 152.601 25.7267C152.828 25.9706 153.093 26.177 153.433 26.252C153.755 26.3271 154.076 26.2896 154.378 26.2145C154.435 26.2145 154.473 26.252 154.53 26.252C155.418 26.2333 156.287 26.2145 157.176 26.177C157.611 26.1582 158.045 26.1582 158.48 26.1395C158.896 26.1207 159.274 26.0644 159.633 25.9706C159.728 25.9894 159.803 26.0269 159.898 26.0269C160.162 26.0081 160.427 25.9519 160.673 25.8393C161.183 25.7267 161.656 25.4265 161.977 24.9763C163.319 23.0438 164.623 21.0926 166.003 19.179C166.476 18.5036 166.816 18.1659 167.629 17.9595C167.667 17.9595 167.686 17.9407 167.723 17.9407C167.534 18.5036 167.27 19.0664 167.043 19.5917C166.74 20.2859 166.249 21.3178 165.833 22.1245C164.85 24.0194 163.697 25.8205 162.412 27.5091C162.109 27.9218 162.072 28.4471 162.223 28.9349C162.204 29.5165 162.431 30.1169 163.092 30.5109C166.438 32.5559 169.311 35.22 171.768 38.2781C173.016 39.8541 174.15 41.5239 175.171 43.2499C175.7 44.1317 176.192 45.0135 176.664 45.9141C177.08 46.702 177.628 47.5651 177.817 48.4469C178.517 52.293 169.595 49.5163 168.139 49.0097Z" fill="black"/>
<path d="M157.667 32.4245C157.346 32.1055 156.798 31.8616 156.325 31.8804C155.305 31.9179 154.435 32.7059 154.435 33.7566C154.435 34.0943 154.397 34.4507 154.359 34.7884C154.303 35.1824 154.208 35.5764 154.076 35.9516C154.057 35.9516 154.019 35.9516 154 35.9516C153.944 35.9329 153.887 35.9141 153.83 35.9141L153.811 35.8954C153.792 35.8578 153.755 35.8203 153.736 35.7828C153.66 35.5764 153.603 35.37 153.566 35.1637C153.547 34.901 153.528 34.6383 153.509 34.3757C153.49 33.8879 153.32 33.4001 152.961 33.0436C152.639 32.7247 152.091 32.4808 151.619 32.4995C150.617 32.5371 149.691 33.325 149.728 34.3757C149.766 35.3513 149.842 36.3081 150.239 37.2274C150.692 38.2968 151.505 39.0848 152.602 39.4976C153.055 39.6664 153.584 39.7227 154.057 39.7415C154.605 39.779 155.172 39.6852 155.683 39.4788C156.306 39.2161 156.798 38.8034 157.176 38.2218C157.441 37.8278 157.592 37.34 157.724 36.8897C158.026 35.8766 158.159 34.8072 158.178 33.7566C158.216 33.2688 158.008 32.7622 157.667 32.4245Z" fill="black"/>
<path d="M13.7255 107.826C12.9883 107.507 11.7975 107.845 11.5518 108.708C9.37799 116.419 6.01336 123.755 1.51459 130.378C0.32374 132.122 2.95117 134.13 4.14202 132.385C8.81092 125.518 12.3646 117.958 14.614 109.984C14.8408 109.121 14.614 108.202 13.7255 107.826Z" fill="black"/>
<path d="M63.7224 141.372C64.1005 139.29 60.8115 138.839 60.4523 140.922C59.923 143.886 60.6602 147.038 61.0572 149.984C61.473 153.042 61.9078 156.081 62.3803 159.139C62.7017 161.222 65.9718 160.809 65.6505 158.708C65.1968 155.781 64.781 152.836 64.384 149.909C64.195 148.464 64.006 147.019 63.8169 145.594C63.6279 144.168 63.4767 142.779 63.7224 141.372Z" fill="#00A99D"/>
<path d="M59.5072 162.235C58.9968 159.533 58.373 156.869 57.6358 154.205C57.4657 153.586 57.2767 152.967 57.1065 152.348C56.8986 151.635 56.7285 150.828 56.3504 150.19C55.4053 148.633 53.5718 148.97 52.0974 149.327C50.812 149.646 49.5645 150.134 48.3925 150.753C47.731 151.091 47.0505 151.466 46.6346 152.104C46.1053 152.91 46.181 153.717 46.3133 154.636C46.6913 157.188 47.3718 159.702 48.3547 162.085C48.6761 162.854 48.9596 163.642 49.5834 164.242C50.2072 164.843 51.0389 165.087 51.8895 165.255C53.3828 165.556 54.8761 165.837 56.3694 166.137C57.3901 166.344 58.562 165.856 58.8267 164.749C58.8645 164.599 58.8456 164.449 58.8456 164.299C58.9023 164.242 58.9779 164.205 59.0346 164.148C59.5261 163.623 59.6395 162.948 59.5072 162.235Z" fill="#FBB03B"/>
<path d="M49.8669 176.099C49.6401 175.18 49.3566 174.298 49.0163 173.416C48.6572 172.516 48.298 171.503 47.7121 170.696C46.8426 169.533 45.6517 168.989 44.1962 168.895C43.6859 168.857 43.1944 168.914 42.684 168.97C42.4005 169.008 42.117 169.045 41.8334 169.064C41.72 169.064 41.6066 169.083 41.4932 169.083C41.3798 169.083 40.8883 169.026 41.342 169.101C40.7938 169.008 40.3023 169.008 39.8109 169.308C39.395 169.552 38.9981 170.021 38.9036 170.49C38.7334 171.259 39.0548 172.253 39.7731 172.685C39.6597 172.929 39.584 173.191 39.6029 173.473C39.7164 174.486 39.8109 175.518 39.9243 176.531C39.981 177.019 40.0188 177.525 40.0755 178.013C40.1511 178.651 40.1511 179.308 40.5103 179.889C41.1718 180.996 42.7029 181.184 43.856 181.503C44.3853 181.653 44.9334 181.84 45.4816 181.822C46.3322 181.803 46.8993 181.371 47.4474 180.79C47.4474 180.79 47.5231 180.715 47.5798 180.658C47.5798 180.658 47.6365 180.621 47.6932 180.583C47.7121 180.583 47.7121 180.583 47.731 180.583C47.7688 180.565 47.7877 180.565 47.8066 180.565C47.8444 180.565 47.8822 180.565 47.92 180.565C48.4115 180.527 48.7517 180.452 49.1865 180.189C50.6419 179.233 50.2072 177.488 49.8669 176.099Z" fill="#FBB03B"/>
<path d="M41.8712 160.284C41.7767 158.989 41.7011 157.694 41.4743 156.419C41.2286 155.105 40.7938 153.567 39.5462 152.854C38.5822 152.31 37.2023 152.235 36.106 152.235C34.9908 152.235 33.7999 152.441 32.8359 153.06C32.1743 153.492 31.7206 154.036 31.3048 154.674C31.267 154.711 31.2292 154.768 31.1914 154.824C31.1725 154.824 31.1158 154.824 31.1158 154.824C31.0591 154.786 31.078 154.843 30.9835 154.88C30.7944 154.955 30.6054 155.012 30.3975 155.068C29.717 155.274 29.0743 155.443 28.4316 155.556C27.9591 155.556 27.5054 155.556 27.0329 155.556C25.7286 155.537 24.4432 155.499 23.4414 156.475C22.4963 157.394 22.4585 158.914 22.3829 160.152C22.2883 161.466 22.1938 163.023 23.1957 164.055C24.0463 164.918 25.1804 165.143 26.3335 165.218C28.9609 165.405 31.5883 165.462 34.2347 165.368C35.1798 165.349 35.8414 164.749 36.0871 164.017C36.2383 163.998 36.3706 163.923 36.5219 163.867C36.692 163.961 36.8621 164.055 37.0511 164.148C37.6749 164.449 38.2987 164.805 38.9603 165.03C39.9621 165.349 41.0773 165.086 41.6633 164.148C42.3438 163.117 41.9468 161.503 41.8712 160.284Z" fill="#FBB03B"/>
<path d="M17.3737 162.929C17.2792 162.872 17.2036 162.816 17.1091 162.741C17.0902 162.722 17.0713 162.704 17.0335 162.685C16.8822 162.535 16.7121 162.403 16.5609 162.253C16.3908 162.084 16.2396 161.897 16.0694 161.709C16.0505 161.69 16.0505 161.69 16.0505 161.69C15.9749 161.597 15.8993 161.484 15.8237 161.371C15.3701 160.677 15.0487 159.927 14.6329 159.195C14.1414 158.295 13.4987 157.488 12.6292 156.925C11.6085 156.268 10.3798 156.175 9.20787 156.25C8.01702 156.325 6.76946 156.418 5.61641 156.7C4.12312 157.056 3.19691 158.238 3.1591 159.758C3.1402 160.884 3.32922 162.084 3.65057 163.154C4.00971 164.355 4.48227 165.63 5.61641 166.325C6.82617 167.056 8.31946 166.568 9.64263 166.606C9.94506 166.606 10.2475 166.643 10.5688 166.662C10.5877 166.662 10.5877 166.662 10.5877 166.662C10.7768 166.681 10.9658 166.718 11.1548 166.756C11.7597 166.869 12.3457 167.056 12.9127 167.263C13.6499 167.525 14.5573 167.131 15.0109 166.55C15.0865 166.437 15.1432 166.325 15.1999 166.212C15.2566 166.249 15.3133 166.306 15.3701 166.343C16.2207 166.925 17.6194 166.531 18.092 165.63C18.6213 164.617 18.2999 163.567 17.3737 162.929Z" fill="#FBB03B"/>
<path d="M20.8895 138.558C20.5115 137.714 19.7176 137.339 18.8481 137.151C17.6761 136.907 16.4853 136.682 15.2944 136.494C13.8956 136.269 12.5725 136.213 11.5707 137.395C10.8146 138.277 10.2097 139.309 9.6048 140.284C8.45175 142.141 7.41212 144.093 6.50481 146.081C6.01334 147.151 5.08713 148.614 5.42737 149.834C5.6353 150.603 6.33469 151.278 7.03407 151.841C7.2231 152.479 7.69566 153.042 8.35724 153.192C9.49139 153.436 10.6255 153.661 11.7597 153.905C12.9883 154.168 14.3871 154.674 15.578 153.999C16.731 153.342 17.0334 151.691 17.4493 150.547C17.8273 149.477 18.2054 148.408 18.5834 147.338C19.3584 145.106 20.0956 142.873 20.8517 140.641C21.0786 139.928 21.192 139.252 20.8895 138.558Z" fill="#FBB03B"/>
<path d="M47.9767 139.289C47.7688 138.802 47.5608 138.333 47.3529 137.845C46.956 136.926 46.559 136.006 46.1621 135.087C45.2926 133.042 44.4041 131.016 43.5346 128.971C43.2889 128.37 42.9865 127.807 42.4005 127.47C41.7578 127.094 41.1151 127.113 40.4157 127.188C39.2816 127.301 38.1664 127.395 37.0322 127.507C35.9548 127.601 35.0475 128.333 35.0475 129.477C35.0475 129.871 35.2176 130.265 35.4633 130.603C35.331 130.922 35.2365 131.278 35.2176 131.672C35.1042 133.623 35.1798 135.612 35.2743 137.545C35.3121 138.464 35.3877 139.364 35.4633 140.284C35.5578 141.447 35.4822 142.873 36.4084 143.736C37.3914 144.655 38.6578 144.299 39.8298 144.111C40.8694 143.942 41.909 143.773 42.9298 143.605L45.784 143.136C46.1621 143.079 46.559 143.042 46.9371 142.929C47.8633 142.667 48.506 141.803 48.506 140.847C48.4682 140.303 48.1846 139.815 47.9767 139.289Z" fill="#FBB03B"/>
<path d="M53.1181 122.442C53.137 121.054 52.9669 119.665 52.6456 118.296C52.5322 117.827 52.2297 117.47 51.8517 117.226C51.7194 115.969 51.4925 114.712 51.1334 113.493C50.9254 112.78 50.6419 112.104 50.3584 111.429C50.0559 110.697 49.7535 109.853 49.1486 109.309C47.5797 107.827 45.5005 108.952 44.0072 109.947C43.3267 110.397 42.5895 110.885 42.1358 111.598C41.5877 112.461 41.72 113.474 41.9468 114.412C42.2871 115.782 42.8352 117.039 42.8919 118.296C42.9864 120.209 43.4968 121.842 45.2736 122.836C46.8236 123.699 48.4492 124.449 50.0181 125.237C50.9822 125.725 52.173 125.481 52.7401 124.524C52.9858 124.112 53.0425 123.605 52.948 123.117C53.0614 122.892 53.1181 122.667 53.1181 122.442Z" fill="#FBB03B"/>
<path d="M37.9017 114.318C37.0889 112.649 35.8413 111.016 33.8944 110.641C31.8151 110.247 29.5846 110.885 27.7511 111.842C25.6529 112.949 23.9328 114.731 23.8194 117.208C23.706 119.665 25.4828 121.879 27.8456 122.517C28.8474 122.78 30.0572 122.179 30.3029 121.129C30.3218 121.054 30.3029 120.997 30.3029 120.922C30.6432 120.904 30.9834 120.847 31.3237 120.791C31.3237 120.791 31.4182 120.772 31.4938 120.772C31.5505 120.772 31.6639 120.753 31.6639 120.753C31.834 120.735 32.0042 120.753 32.1932 120.753C32.2499 120.885 32.3255 121.016 32.4011 121.129C32.6846 121.673 33.1194 122.161 33.6487 122.48C35.8035 123.755 38.3743 122.423 39.1304 120.209C39.8297 118.164 38.809 116.157 37.9017 114.318Z" fill="#FBB03B"/>
<path d="M22.8176 123.117C22.7987 122.948 22.742 122.798 22.7042 122.648C22.742 122.292 22.7231 121.935 22.5908 121.579C22.3451 120.922 21.8725 120.341 21.3621 119.797C21.3054 119.703 21.2487 119.628 21.1731 119.534C21.1164 119.459 21.0408 119.44 20.9652 119.384C20.7384 119.159 20.5304 118.934 20.3225 118.727C19.8121 118.164 19.2073 117.601 18.3756 117.639C17.5249 117.677 16.8823 118.127 16.3152 118.708C15.578 119.44 14.9731 120.322 14.425 121.185C13.2152 123.155 12.289 125.35 12.5914 127.658C12.1945 127.808 11.8353 128.033 11.6274 128.446C11.1548 129.346 11.3439 130.659 12.3457 131.147C13.3475 131.635 14.1414 132.348 15.2945 132.498C16.3908 132.648 17.3926 132.348 18.1487 131.635C18.3377 131.579 18.5268 131.522 18.7347 131.447C19.3774 131.185 19.9823 130.866 20.5871 130.528C21.1542 130.209 21.7402 129.853 22.1749 129.365C22.8176 128.614 23.0633 127.714 23.0823 126.757C23.0823 125.556 23.0066 124.337 22.8176 123.117Z" fill="#FBB03B"/>
<path d="M29.7359 100.603C28.6206 99.9843 27.1273 100.022 25.9365 100.36C24.878 100.66 23.9139 101.241 23.0255 101.86C22.3261 102.348 21.7024 102.874 21.4944 103.737C21.3432 104.337 21.3054 105.012 21.2865 105.631C21.2865 105.65 21.2865 105.65 21.2865 105.669C20.8706 105.744 20.4737 105.875 20.1524 106.194C19.8121 106.532 19.5475 107.095 19.5664 107.583C19.6042 108.577 20.4548 109.665 21.5511 109.553C22.742 109.44 23.9328 109.29 25.1237 109.084C26.1444 108.915 27.1841 108.727 28.167 108.408C29.0554 108.127 29.6981 107.526 29.9627 106.626C30.1139 106.119 30.1895 105.594 30.3029 105.069L30.6243 103.549C30.6999 103.211 30.7755 102.855 30.7944 102.517C30.8511 101.785 30.3975 100.979 29.7359 100.603Z" fill="#FBB03B"/>
<path d="M48.3358 98.4272C47.712 97.4328 46.9559 96.4385 45.7651 96.082C44.6877 95.7631 43.4212 95.8569 42.306 95.8944C41.1529 95.9319 39.9999 96.0632 38.8468 96.2321C37.7883 96.3822 36.7297 96.5323 35.7657 97.0201C35.1608 97.3203 34.6883 97.7893 34.348 98.3334C33.9511 98.8024 33.7432 99.4028 33.8944 100.059C33.8944 100.078 33.8944 100.097 33.8944 100.116C33.8944 100.266 33.9322 100.397 33.9511 100.528C33.9511 100.772 33.9511 100.998 33.9322 101.241C33.9133 101.748 33.8566 102.236 33.8944 102.742C33.97 103.924 34.3291 105.069 35.2175 105.932C36.8243 107.489 39.395 107.226 41.4742 107.283C42.7029 107.32 43.8938 107.264 45.0468 106.757C45.9352 106.382 46.6913 105.707 47.2962 104.975C47.9956 104.093 48.7139 103.118 49.0163 102.011C49.3376 100.754 49.0163 99.4966 48.3358 98.4272Z" fill="#FBB03B"/>
<path d="M59.6773 174.974C59.6773 174.937 59.6773 174.899 59.6773 174.862C59.6584 174.674 59.6395 174.449 59.5827 174.262C59.5638 174.111 59.5827 173.961 59.5449 173.811C59.526 173.642 59.4504 173.53 59.3937 173.361C59.2614 173.061 59.1669 172.854 58.9023 172.611C58.6376 172.348 58.3352 172.179 57.9949 172.048C57.976 172.048 57.976 172.029 57.9571 172.029C57.5413 171.804 57.1065 171.691 56.6151 171.672C56.1047 171.654 55.6699 171.804 55.2163 172.029C54.9328 172.16 54.687 172.367 54.4602 172.573C54.2145 172.779 54.0065 173.08 53.7986 173.342C53.4962 173.736 53.2693 174.224 53.137 174.712C52.948 175.481 53.0047 176.382 53.4584 177.057C53.8931 177.676 54.5547 178.22 55.3297 178.333C55.7078 178.389 56.0669 178.389 56.426 178.352C56.7474 178.577 57.1443 178.746 57.5224 178.727C58.0328 178.708 58.562 178.539 58.9212 178.145L59.2236 177.751C59.4126 177.451 59.4882 177.113 59.4882 176.757C59.5449 176.269 59.6017 175.762 59.6017 175.256C59.6584 175.125 59.6773 175.068 59.6773 174.974Z" fill="#FBB03B"/>
<path d="M48.8085 94.994C48.6383 94.1873 48.0146 93.7745 47.353 93.6807C47.2963 93.6619 47.2396 93.6807 47.2017 93.6807C47.0694 93.6807 46.9182 93.6619 46.7859 93.6807C46.7292 93.6807 46.6914 93.6807 46.6536 93.6807C38.2609 95.5756 29.8682 97.4518 21.4756 99.3467C20.3981 99.5906 20.0012 100.604 20.1713 101.448C18.1488 109.628 14.9354 117.451 11.4573 125.125C7.77134 133.249 3.93416 141.297 0.153675 149.383C-0.0542509 149.834 -0.0353485 150.247 0.115871 150.603C0.115871 150.697 0.0780659 150.772 0.0969683 150.884C0.834162 155.95 1.81709 160.997 3.02684 165.969C2.81891 166.925 3.4805 168.201 4.80367 168.201C15.6347 168.201 26.428 167.188 37.0701 165.199L39.3762 182.028C39.4329 182.404 39.603 182.685 39.8109 182.91C40.2646 183.529 41.0207 183.698 41.7768 183.492C47.4853 181.822 53.345 180.734 59.2615 180.152C59.9042 180.471 60.7737 180.359 61.3029 179.833C62.3804 179.364 62.4182 177.882 61.6243 177.132C58.9779 149.496 54.706 122.086 48.8085 94.994ZM42.4005 179.927C41.6633 174.486 40.9072 169.064 40.1701 163.623C40.4536 162.592 39.8109 161.316 38.4499 161.578C27.8079 163.68 16.9957 164.787 6.14574 164.899C4.99269 160.115 4.06647 155.293 3.36708 150.434C3.36708 150.397 3.34818 150.378 3.32928 150.34C10.6634 134.712 19.1317 119.084 23.3469 102.255C30.8701 100.566 38.3932 98.8776 45.9164 97.1703C51.5682 123.493 55.6889 150.115 58.2597 176.907C52.8914 177.507 47.5987 178.501 42.4005 179.927Z" fill="black"/>
<path d="M38.3553 143.361C37.3157 135.331 35.9547 127.339 34.2913 119.403C34.0645 118.315 33.0438 117.94 32.1742 118.108C31.3803 117.564 30.2084 117.602 29.7736 118.746C26.1066 128.465 22.2127 138.127 18.848 147.939C18.4511 149.121 19.2828 150.341 20.5871 150.209C24.67 149.797 28.7529 149.403 32.8547 148.99C33.8755 148.896 34.8962 148.783 35.9169 148.69C36.6163 148.615 37.4102 148.596 37.9773 148.127C39.2815 147.039 38.5254 144.768 38.3553 143.361ZM32.42 145.744C31.1157 145.875 29.8114 146.007 28.5261 146.138C26.6169 146.326 24.7078 146.513 22.7987 146.701C25.5962 138.765 28.6584 130.923 31.6639 123.08C32.3444 126.514 33.0059 129.947 33.573 133.399C33.9322 135.575 34.2724 137.77 34.5748 139.947C34.7261 141.035 34.8773 142.142 35.0285 143.23C35.1041 143.868 35.1986 144.506 35.2742 145.144C35.2931 145.256 35.2931 145.369 35.312 145.481C35.0663 145.5 34.8395 145.5 34.6694 145.519C33.8944 145.594 33.1572 145.669 32.42 145.744Z" fill="black"/>
<path d="M177.383 103.418C176.778 102.892 175.549 102.836 175.058 103.568C170.559 110.191 165.02 116.1 158.65 120.997C156.968 122.273 158.82 125.012 160.503 123.718C167.119 118.652 172.884 112.611 177.553 105.744C178.025 104.994 178.101 104.056 177.383 103.418Z" fill="black"/>
<path d="M214.167 150.903C215.187 149.046 212.22 147.601 211.199 149.44C209.762 152.085 209.441 155.312 208.893 158.239C208.307 161.259 207.759 164.299 207.229 167.338C206.87 169.421 210.103 170.04 210.481 167.957C210.991 165.03 211.52 162.122 212.068 159.214C212.333 157.789 212.617 156.363 212.9 154.937C213.184 153.53 213.467 152.179 214.167 150.903Z" fill="#00A99D"/>
<path d="M203.524 169.383C203.902 166.663 204.148 163.924 204.299 161.185C204.337 160.547 204.356 159.89 204.375 159.252C204.394 158.502 204.507 157.695 204.337 156.963C203.94 155.181 202.088 154.937 200.576 154.825C199.253 154.731 197.91 154.806 196.606 155.012C195.869 155.125 195.113 155.275 194.508 155.744C193.752 156.344 193.563 157.132 193.412 158.033C192.958 160.566 192.807 163.173 192.977 165.744C193.034 166.569 193.053 167.414 193.449 168.183C193.846 168.952 194.565 169.44 195.302 169.871C196.625 170.622 197.948 171.353 199.271 172.104C200.179 172.61 201.445 172.517 202.031 171.56C202.107 171.428 202.145 171.278 202.201 171.128C202.277 171.11 202.352 171.091 202.428 171.053C203.109 170.716 203.43 170.096 203.524 169.383Z" fill="#FBB03B"/>
<path d="M189.972 179.534C190.047 178.595 190.066 177.657 190.009 176.719C189.953 175.744 189.934 174.674 189.631 173.736C189.178 172.348 188.214 171.466 186.872 170.922C186.399 170.734 185.907 170.622 185.416 170.528C185.132 170.472 184.849 170.415 184.584 170.34C184.471 170.303 184.357 170.284 184.263 170.247C184.15 170.209 183.696 170.003 184.112 170.209C183.62 169.965 183.148 169.796 182.6 169.909C182.127 170.003 181.617 170.322 181.352 170.734C180.936 171.41 180.936 172.442 181.484 173.098C181.295 173.286 181.144 173.511 181.068 173.793C180.842 174.787 180.615 175.8 180.388 176.794C180.275 177.282 180.161 177.77 180.067 178.258C179.915 178.896 179.726 179.515 179.878 180.171C180.161 181.447 181.541 182.085 182.543 182.742C182.997 183.042 183.45 183.398 183.979 183.549C184.792 183.792 185.473 183.567 186.172 183.173C186.172 183.173 186.267 183.117 186.342 183.079C186.342 183.079 186.418 183.061 186.475 183.042C186.493 183.042 186.493 183.042 186.512 183.042C186.55 183.042 186.569 183.042 186.607 183.042C186.645 183.042 186.682 183.061 186.701 183.061C187.174 183.173 187.533 183.211 188.006 183.098C189.726 182.723 189.858 180.959 189.972 179.534Z" fill="#FBB03B"/>
<path d="M187.401 162.01C187.722 160.753 188.062 159.496 188.251 158.22C188.44 156.888 188.516 155.312 187.552 154.243C186.815 153.417 185.511 152.911 184.471 152.573C183.412 152.217 182.203 152.048 181.106 152.329C180.35 152.517 179.745 152.911 179.14 153.38C179.103 153.417 179.046 153.455 178.989 153.492C178.97 153.474 178.914 153.474 178.914 153.474C178.857 153.417 178.876 153.474 178.762 153.474C178.554 153.474 178.347 153.474 178.158 153.474C177.439 153.474 176.778 153.417 176.135 153.324C175.7 153.174 175.247 153.042 174.812 152.892C173.583 152.461 172.373 152.029 171.107 152.648C169.916 153.23 169.406 154.656 168.933 155.8C168.423 157.02 167.837 158.464 168.461 159.759C168.99 160.847 170.011 161.41 171.069 161.86C173.508 162.873 175.984 163.736 178.517 164.487C179.405 164.749 180.237 164.412 180.709 163.774C180.861 163.793 181.012 163.774 181.163 163.774C181.295 163.924 181.428 164.074 181.579 164.205C182.07 164.674 182.562 165.218 183.11 165.631C183.961 166.25 185.114 166.344 185.964 165.65C186.966 164.843 187.098 163.192 187.401 162.01Z" fill="#FBB03B"/>
<path d="M163.338 156.851C163.281 156.776 163.206 156.682 163.149 156.588C163.13 156.57 163.13 156.551 163.092 156.513C162.979 156.326 162.884 156.138 162.79 155.95C162.676 155.725 162.601 155.5 162.487 155.275C162.487 155.256 162.487 155.256 162.469 155.256C162.431 155.144 162.393 155.012 162.355 154.881C162.128 154.074 162.072 153.249 161.92 152.442C161.731 151.429 161.372 150.472 160.729 149.647C159.973 148.708 158.839 148.221 157.705 147.939C156.552 147.639 155.342 147.339 154.151 147.245C152.62 147.114 151.354 147.939 150.844 149.365C150.465 150.435 150.258 151.617 150.22 152.742C150.182 153.999 150.22 155.35 151.07 156.363C151.978 157.451 153.565 157.433 154.794 157.883C155.078 157.995 155.361 158.108 155.645 158.221C155.664 158.221 155.664 158.221 155.664 158.221C155.834 158.314 156.004 158.389 156.155 158.483C156.684 158.783 157.195 159.14 157.667 159.515C158.291 160.003 159.274 159.909 159.879 159.496C159.992 159.421 160.087 159.327 160.181 159.234C160.219 159.29 160.257 159.365 160.314 159.421C160.937 160.247 162.393 160.303 163.13 159.609C163.981 158.84 164 157.733 163.338 156.851Z" fill="#FBB03B"/>
<path d="M174.415 134.825C174.339 133.905 173.697 133.286 172.94 132.855C171.901 132.254 170.842 131.673 169.784 131.129C168.517 130.491 167.289 130.022 165.965 130.81C164.964 131.41 164.056 132.198 163.168 132.93C161.467 134.337 159.879 135.857 158.386 137.47C157.573 138.333 156.231 139.44 156.174 140.697C156.136 141.485 156.571 142.348 157.062 143.099C157.044 143.774 157.308 144.449 157.894 144.787C158.896 145.369 159.898 145.95 160.9 146.532C161.977 147.17 163.149 148.089 164.491 147.808C165.795 147.545 166.608 146.082 167.364 145.106C168.064 144.205 168.763 143.305 169.462 142.404C170.899 140.528 172.317 138.633 173.753 136.757C174.15 136.194 174.472 135.575 174.415 134.825Z" fill="#FBB03B"/>
<path d="M199.876 143.999C199.839 143.474 199.782 142.968 199.744 142.442C199.669 141.448 199.574 140.454 199.498 139.459C199.309 137.245 199.139 135.031 198.95 132.836C198.894 132.198 198.799 131.561 198.345 131.054C197.854 130.51 197.23 130.322 196.55 130.153C195.453 129.91 194.338 129.647 193.242 129.403C192.202 129.159 191.087 129.572 190.728 130.66C190.595 131.035 190.652 131.467 190.765 131.861C190.539 132.123 190.331 132.424 190.18 132.799C189.442 134.6 188.894 136.514 188.365 138.39C188.119 139.272 187.892 140.153 187.665 141.054C187.401 142.198 186.872 143.512 187.476 144.619C188.119 145.801 189.423 145.857 190.614 146.044C191.654 146.213 192.694 146.382 193.714 146.532L196.569 146.983C196.947 147.039 197.344 147.133 197.722 147.151C198.686 147.189 199.574 146.57 199.858 145.669C200.028 145.125 199.914 144.562 199.876 143.999Z" fill="#FBB03B"/>
<path d="M210.122 129.609C210.575 128.296 210.859 126.926 210.991 125.538C211.029 125.069 210.859 124.637 210.575 124.262C210.84 123.024 211.048 121.767 211.067 120.491C211.086 119.759 211.048 119.028 210.991 118.277C210.934 117.489 210.916 116.589 210.519 115.876C209.498 113.981 207.173 114.394 205.434 114.863C204.64 115.088 203.789 115.313 203.147 115.838C202.353 116.495 202.145 117.489 202.069 118.465C201.956 119.872 202.088 121.223 201.748 122.461C201.237 124.318 201.2 126.007 202.58 127.527C203.77 128.84 205.075 130.041 206.322 131.298C207.078 132.048 208.288 132.217 209.139 131.485C209.498 131.166 209.725 130.697 209.781 130.21C209.914 130.041 210.046 129.853 210.122 129.609Z" fill="#FBB03B"/>
<path d="M198.27 117.152C198.024 115.313 197.381 113.362 195.642 112.405C193.79 111.392 191.484 111.279 189.442 111.636C187.098 112.03 184.906 113.193 184.017 115.501C183.129 117.808 184.112 120.454 186.153 121.805C187.023 122.367 188.365 122.18 188.913 121.26C188.951 121.204 188.951 121.129 188.988 121.073C189.329 121.148 189.669 121.204 189.99 121.279C189.99 121.279 190.085 121.298 190.16 121.317C190.217 121.335 190.331 121.354 190.331 121.354C190.501 121.392 190.671 121.467 190.822 121.504C190.841 121.654 190.86 121.786 190.898 121.936C191.011 122.536 191.238 123.155 191.654 123.606C193.279 125.482 196.171 125.05 197.57 123.174C198.874 121.411 198.534 119.178 198.27 117.152Z" fill="#FBB03B"/>
<path d="M181.144 120.772C181.163 120.603 181.182 120.453 181.182 120.284C181.333 119.966 181.428 119.609 181.409 119.234C181.39 118.521 181.125 117.827 180.804 117.151C180.766 117.058 180.747 116.945 180.709 116.851C180.672 116.776 180.615 116.72 180.558 116.645C180.426 116.363 180.275 116.082 180.161 115.819C179.859 115.125 179.462 114.393 178.649 114.187C177.817 113.962 177.08 114.187 176.343 114.562C175.417 115.031 174.566 115.669 173.772 116.326C171.995 117.808 170.427 119.609 169.973 121.898C169.557 121.917 169.141 122.029 168.801 122.348C168.064 123.042 167.837 124.356 168.612 125.144C169.406 125.932 169.935 126.851 170.975 127.358C171.958 127.845 173.016 127.864 173.942 127.433C174.15 127.433 174.339 127.451 174.547 127.433C175.247 127.376 175.908 127.282 176.589 127.132C177.231 127.001 177.893 126.851 178.46 126.513C179.311 126.007 179.821 125.237 180.142 124.318C180.634 123.174 180.955 121.992 181.144 120.772Z" fill="#FBB03B"/>
<path d="M194.867 101.579C194.017 100.641 192.58 100.21 191.332 100.153C190.217 100.116 189.14 100.36 188.081 100.66C187.268 100.904 186.512 101.204 186.04 101.973C185.718 102.499 185.454 103.118 185.227 103.699C185.227 103.718 185.227 103.718 185.227 103.737C184.792 103.662 184.395 103.681 183.979 103.868C183.545 104.093 183.11 104.544 182.978 105.013C182.713 105.97 183.148 107.264 184.244 107.508C185.416 107.789 186.588 108.015 187.779 108.183C188.8 108.333 189.839 108.484 190.879 108.502C191.805 108.521 192.618 108.146 193.147 107.377C193.45 106.945 193.695 106.457 193.96 106.007L194.754 104.675C194.924 104.375 195.132 104.075 195.245 103.756C195.548 103.043 195.396 102.142 194.867 101.579Z" fill="#FBB03B"/>
<path d="M213.221 105.332C212.938 104.187 212.541 103.005 211.52 102.311C210.613 101.673 209.365 101.354 208.307 101.054C207.192 100.735 206.057 100.491 204.923 100.285C203.884 100.097 202.806 99.9096 201.748 100.06C201.086 100.153 200.481 100.454 199.99 100.866C199.46 101.185 199.082 101.692 199.007 102.367C199.007 102.386 198.988 102.405 198.988 102.405C198.95 102.536 198.931 102.686 198.912 102.818C198.837 103.043 198.761 103.268 198.667 103.474C198.478 103.943 198.27 104.394 198.137 104.881C197.835 106.026 197.816 107.227 198.364 108.315C199.404 110.303 201.918 110.866 203.865 111.56C205.037 111.973 206.171 112.292 207.418 112.18C208.382 112.086 209.309 111.711 210.121 111.185C211.067 110.585 212.068 109.872 212.692 108.915C213.429 107.864 213.524 106.57 213.221 105.332Z" fill="#FBB03B"/>
<path d="M199.631 181.541C199.65 181.503 199.65 181.466 199.668 181.428C199.706 181.241 199.763 181.034 199.782 180.828C199.82 180.678 199.876 180.528 199.895 180.378C199.914 180.209 199.895 180.077 199.895 179.909C199.876 179.571 199.839 179.365 199.668 179.027C199.498 178.689 199.253 178.426 198.988 178.201C198.988 178.183 198.969 178.183 198.969 178.164C198.629 177.826 198.27 177.582 197.816 177.413C197.343 177.244 196.871 177.244 196.379 177.301C196.077 177.338 195.775 177.451 195.491 177.563C195.189 177.695 194.905 177.901 194.622 178.089C194.206 178.37 193.828 178.764 193.563 179.177C193.128 179.852 192.901 180.715 193.128 181.503C193.336 182.235 193.79 182.948 194.489 183.304C194.829 183.492 195.17 183.605 195.529 183.68C195.775 183.999 196.096 184.28 196.455 184.374C196.947 184.505 197.514 184.524 197.967 184.261L198.383 183.98C198.648 183.736 198.837 183.455 198.95 183.117C199.177 182.667 199.366 182.197 199.536 181.728C199.574 181.653 199.612 181.616 199.631 181.541Z" fill="#FBB03B"/>
<path d="M214.772 102.217C214.866 101.392 214.393 100.81 213.807 100.51C213.77 100.491 213.713 100.473 213.656 100.454C213.524 100.397 213.392 100.36 213.259 100.322C213.203 100.322 213.184 100.285 213.127 100.285C204.564 99.4406 196.001 98.6151 187.439 97.7709C186.323 97.6583 185.643 98.5026 185.548 99.3656C181.031 106.495 175.492 112.911 169.746 119.103C163.659 125.65 157.459 132.086 151.297 138.577C150.957 138.934 150.844 139.346 150.862 139.722C150.825 139.815 150.787 139.872 150.768 139.984C149.861 145.031 149.18 150.115 148.745 155.218C148.235 156.063 148.462 157.489 149.709 157.883C159.992 161.26 170.559 163.68 181.276 165.143L178.101 181.841C178.025 182.216 178.101 182.535 178.233 182.817C178.46 183.548 179.14 183.961 179.915 183.98C185.851 184.186 191.767 184.993 197.57 186.269C198.081 186.775 198.931 186.925 199.593 186.606C200.765 186.513 201.275 185.105 200.746 184.149C207.059 157.132 211.747 129.778 214.772 102.217ZM181.673 180.809C182.694 175.425 183.715 170.04 184.736 164.655C185.322 163.755 185.133 162.348 183.753 162.179C172.978 160.828 162.374 158.502 152.034 155.2C152.469 150.303 153.112 145.444 154 140.603C154 140.566 154 140.547 154 140.509C165.928 127.977 178.933 115.801 188.289 101.167C195.964 101.917 203.638 102.668 211.312 103.418C208.307 130.153 203.751 156.719 197.665 182.929C192.391 181.803 187.061 181.091 181.673 180.809Z" fill="black"/>
<path d="M189.461 144.843C191.03 136.889 192.278 128.896 193.223 120.848C193.355 119.741 192.504 119.065 191.635 118.971C191.049 118.221 189.915 117.883 189.14 118.821C182.581 126.889 175.814 134.844 169.5 143.099C168.744 144.093 169.16 145.5 170.426 145.782C174.434 146.682 178.441 147.564 182.448 148.464C183.45 148.69 184.452 148.915 185.454 149.14C186.153 149.29 186.89 149.534 187.59 149.252C189.178 148.633 189.178 146.251 189.461 144.843ZM183.072 145.256C181.806 144.975 180.52 144.693 179.254 144.393C177.382 143.98 175.511 143.549 173.64 143.136C178.819 136.495 184.225 130.003 189.556 123.493C189.121 126.964 188.629 130.435 188.081 133.887C187.722 136.063 187.344 138.239 186.947 140.416C186.739 141.504 186.531 142.592 186.323 143.661C186.191 144.299 186.078 144.918 185.945 145.556C185.926 145.669 185.907 145.782 185.87 145.894C185.643 145.819 185.416 145.763 185.246 145.725C184.528 145.575 183.79 145.425 183.072 145.256Z" fill="black"/>
<path d="M132.47 197.413C131.79 196.737 130.467 196.644 129.805 197.413C128.671 198.745 127.575 200.133 126.535 201.54C125.628 202.779 124.777 204.054 124.418 205.574C124.04 207.15 123.983 208.839 123.908 210.433C123.832 212.159 123.832 213.885 123.889 215.612C123.983 218.013 127.764 218.032 127.669 215.612C127.556 212.76 127.442 209.683 127.991 206.869C128.255 205.537 128.992 204.524 129.786 203.435C130.637 202.272 131.525 201.146 132.452 200.058C133.132 199.289 133.245 198.163 132.47 197.413Z" fill="black"/>
<path d="M37.2024 218.895C36.503 218.257 35.1987 218.088 34.5371 218.895C31.4939 222.572 29.2445 226.812 28.0158 231.428C27.7701 232.384 28.3371 233.51 29.339 233.735C30.3219 233.96 31.3993 233.435 31.664 232.422C32.7036 228.444 34.6506 224.636 37.2024 221.559C37.8262 220.79 38.0152 219.627 37.2024 218.895Z" fill="black"/>
<path d="M133.888 51.4861C134.077 58.0901 133.661 64.6942 132.584 71.2044C132.414 72.1988 132.886 73.2306 133.926 73.4933C134.833 73.7372 136.062 73.1556 136.232 72.1612C137.347 65.3133 137.858 58.3716 137.65 51.4298C137.593 49.0284 133.813 49.0659 133.888 51.4861Z" fill="black"/>
<path d="M145.872 1.52423C146.118 1.13024 146.383 0.755011 146.704 0.417304C146.855 0.248451 147.044 0.0795981 147.252 0.0233138C147.479 -0.0329706 147.706 0.0233138 147.914 0.0795982C149.029 0.342259 150.163 0.642442 151.241 1.05519C152.261 1.44918 153.377 1.93698 154.208 2.64992C154.473 2.87506 154.7 3.15648 154.681 3.51295C154.662 3.70056 154.605 3.88818 154.548 4.07579C154.057 5.55795 153.811 7.07762 153.471 8.57854C153.395 8.93501 153.282 9.29148 153.169 9.62918C153.055 9.98565 152.904 10.3421 152.696 10.6423C152.526 10.8862 152.299 11.1113 152.034 11.2614C151.732 11.4303 151.373 11.374 151.07 11.2802C150.541 11.1113 150.012 10.905 149.445 10.7736C149.105 10.6986 148.745 10.5297 148.424 10.4172C148.046 10.2858 147.687 10.1545 147.309 10.0232C146.553 9.76051 145.797 9.47909 145.059 9.17891C144.606 9.01005 144.152 8.82244 143.793 8.5035C142.772 7.60294 143.51 6.42097 143.925 5.42662C144.247 4.67616 144.587 3.9257 144.965 3.21276C145.249 2.64992 145.551 2.06831 145.872 1.52423ZM151.184 8.39093C151.411 7.00258 151.713 5.59547 152.091 4.22588C152.11 4.15084 152.129 4.05703 152.129 3.98198C152.11 3.83189 151.959 3.73808 151.808 3.66304C151.241 3.34409 150.617 3.10019 150.012 2.87506C149.464 2.66868 148.802 2.33097 148.216 2.38726C147.914 2.40602 147.819 2.76249 147.687 2.96886C147.441 3.38162 147.195 3.81313 146.988 4.24464C146.742 4.73244 146.496 5.239 146.288 5.74556C146.175 6.00822 146.08 6.27088 145.967 6.53354C145.891 6.72116 145.664 7.0401 145.948 7.15267C147.12 7.60294 148.311 8.03446 149.52 8.42845C149.823 8.52226 150.125 8.61606 150.428 8.72863C150.636 8.78492 150.881 8.99129 151.052 8.78492C151.127 8.69111 151.165 8.54102 151.184 8.42845C151.184 8.42845 151.184 8.40969 151.184 8.39093Z" fill="#00A99D"/>
<path d="M24.8591 265.498C25.1049 265.104 25.3695 264.729 25.6909 264.391C25.8421 264.222 26.0311 264.053 26.239 263.997C26.4659 263.941 26.6927 263.997 26.9006 264.053C28.0159 264.316 29.15 264.616 30.2274 265.029C31.2482 265.423 32.3634 265.911 33.1951 266.624C33.4597 266.849 33.6866 267.13 33.6677 267.487C33.6488 267.674 33.5921 267.862 33.5354 268.05C33.0439 269.532 32.7982 271.051 32.4579 272.552C32.3823 272.909 32.2689 273.265 32.1555 273.603C32.0421 273.96 31.8908 274.316 31.6829 274.616C31.5128 274.86 31.286 275.085 31.0213 275.235C30.7189 275.404 30.3597 275.348 30.0573 275.254C29.528 275.085 28.9988 274.879 28.4317 274.748C28.0915 274.672 27.7323 274.504 27.411 274.391C27.0329 274.26 26.6738 274.128 26.2957 273.997C25.5396 273.734 24.7835 273.453 24.0463 273.153C23.5927 272.984 23.139 272.796 22.7799 272.477C21.7592 271.577 22.4964 270.395 22.9122 269.401C23.2335 268.65 23.5738 267.9 23.9518 267.187C24.2354 266.624 24.5189 266.042 24.8591 265.498ZM30.1707 272.384C30.3976 270.995 30.7 269.588 31.078 268.219C31.0969 268.143 31.1158 268.05 31.1158 267.975C31.078 267.825 30.9457 267.731 30.7945 267.656C30.2274 267.337 29.6037 267.093 28.9988 266.868C28.4506 266.661 27.789 266.324 27.203 266.38C26.9006 266.399 26.8061 266.755 26.6738 266.962C26.428 267.374 26.1823 267.806 25.9744 268.237C25.7287 268.725 25.4829 269.232 25.275 269.738C25.1616 270.001 25.0671 270.264 24.9537 270.526C24.8781 270.714 24.6512 271.033 24.9348 271.145C26.1067 271.596 27.2976 272.027 28.5073 272.421C28.8098 272.515 29.1122 272.609 29.4146 272.721C29.6226 272.778 29.8683 272.984 30.0384 272.778C30.114 272.684 30.1518 272.534 30.1707 272.421C30.1707 272.402 30.1707 272.384 30.1707 272.384Z" fill="#00A99D"/>
<path d="M215.206 87.7894C215.452 87.3954 215.736 87.0389 216.057 86.6824C216.208 86.5136 216.397 86.3447 216.624 86.2885C216.851 86.2322 217.078 86.2884 217.286 86.3447C218.401 86.6262 219.516 86.9451 220.593 87.3766C221.614 87.7894 222.71 88.2959 223.542 89.0276C223.807 89.2528 224.034 89.5529 223.996 89.9094C223.977 90.097 223.92 90.2846 223.845 90.4723C223.334 91.9357 223.07 93.4553 222.692 94.9562C222.597 95.3127 222.503 95.6692 222.37 96.0069C222.238 96.3634 222.087 96.7011 221.879 97.02C221.709 97.2639 221.482 97.4703 221.217 97.6204C220.915 97.7705 220.556 97.7142 220.253 97.6204C219.724 97.4515 219.195 97.2264 218.646 97.0951C218.306 97.02 217.966 96.8512 217.626 96.7198C217.248 96.5885 216.889 96.4384 216.511 96.3071C215.754 96.0257 215.017 95.7255 214.261 95.4253C213.807 95.2377 213.354 95.0501 212.995 94.7311C211.993 93.8118 212.749 92.6486 213.184 91.6542C213.524 90.9038 213.864 90.1721 214.261 89.4591C214.564 88.8963 214.866 88.3334 215.206 87.7894ZM220.404 94.7499C220.669 93.3615 220.971 91.9544 221.387 90.6036C221.406 90.5285 221.444 90.4347 221.425 90.3597C221.406 90.2096 221.255 90.1158 221.123 90.022C220.556 89.703 219.951 89.4404 219.346 89.2152C218.798 89.0089 218.155 88.6524 217.55 88.6899C217.248 88.7087 217.153 89.0464 217.021 89.2715C216.756 89.6843 216.529 90.1158 216.303 90.5285C216.038 91.0163 215.792 91.5229 215.565 92.0295C215.452 92.2921 215.339 92.5548 215.225 92.8174C215.15 93.0051 214.923 93.324 215.206 93.4366C216.378 93.9056 217.569 94.3559 218.76 94.7686C219.062 94.8812 219.365 94.975 219.648 95.0688C219.856 95.1439 220.102 95.3502 220.272 95.1251C220.367 95.0313 220.386 94.9 220.404 94.7686C220.404 94.7686 220.404 94.7686 220.404 94.7499Z" fill="#00A99D"/>
<path d="M12.667 91.673C12.4969 91.2415 12.3457 90.81 12.2701 90.3597C12.2323 90.1346 12.1945 89.8907 12.289 89.6843C12.3646 89.4779 12.5536 89.3278 12.7237 89.1777C13.6122 88.446 14.5195 87.7331 15.5024 87.114C16.4286 86.5324 17.4872 85.9508 18.5646 85.7069C18.9048 85.6318 19.264 85.6131 19.5475 85.857C19.6987 85.9883 19.8121 86.1384 19.9256 86.3072C20.8329 87.583 21.9103 88.6899 22.9121 89.8531C23.1579 90.1346 23.3847 90.4348 23.5926 90.7349C23.8006 91.0351 24.0085 91.3728 24.1219 91.7293C24.2164 92.0107 24.2731 92.3109 24.2164 92.6111C24.1597 92.9488 23.914 93.1927 23.6493 93.3991C23.1957 93.718 22.7042 94.0182 22.2695 94.3934C22.0048 94.6186 21.6646 94.8062 21.381 94.9938C21.0597 95.2189 20.7195 95.4253 20.3981 95.6504C19.7176 96.082 19.0561 96.5135 18.3756 96.945C17.9597 97.2076 17.5439 97.4515 17.0713 97.5453C15.7481 97.808 15.2189 96.5322 14.6707 95.5942C14.2548 94.8812 13.8579 94.1683 13.4987 93.4366C13.1963 92.8362 12.9128 92.2734 12.667 91.673ZM21.3999 91.5604C20.417 90.5473 19.453 89.4779 18.5835 88.3522C18.5268 88.2772 18.4701 88.2209 18.3945 88.1834C18.2622 88.1083 18.092 88.1834 17.9408 88.2397C17.3359 88.5023 16.7878 88.84 16.2396 89.1965C15.7481 89.5154 15.0865 89.8344 14.7652 90.3409C14.5951 90.6036 14.8219 90.8663 14.9353 91.1102C15.1244 91.5604 15.3323 91.992 15.5402 92.4422C15.7859 92.93 16.0506 93.4178 16.3341 93.9056C16.4853 94.1495 16.6365 94.3934 16.7878 94.6373C16.9012 94.8062 17.0146 95.1814 17.2792 95.0126C18.3567 94.3371 19.4152 93.643 20.4548 92.93C20.7195 92.7424 20.9652 92.5736 21.2298 92.3859C21.3999 92.2734 21.7213 92.1796 21.6457 91.9169C21.6079 91.7856 21.5134 91.6918 21.4378 91.598C21.4189 91.5792 21.3999 91.5792 21.3999 91.5604Z" fill="#00A99D"/>
<path d="M156.476 42.9871C156.174 41.8615 155.739 40.792 155.305 39.7039C155.134 39.2724 154.454 37.1711 153.773 38.2592C153.112 39.3287 152.602 40.5106 152.299 41.7301C151.997 42.8933 151.713 44.3192 152.488 45.3698C153.131 46.2516 154.624 47.0959 155.701 46.5143C156.911 45.8576 156.779 44.0941 156.476 42.9871Z" fill="#00A99D"/>
<path d="M164.68 98.4459C164.378 97.3202 163.943 96.2508 163.508 95.1626C163.338 94.7311 162.658 92.6298 161.977 93.718C161.316 94.7874 160.805 95.9694 160.503 97.1889C160.2 98.3521 159.917 99.7779 160.692 100.829C161.334 101.71 162.828 102.555 163.905 101.973C165.115 101.316 164.983 99.534 164.68 98.4459Z" fill="#00A99D"/>
<path d="M155.494 162.441C155.191 161.315 154.756 160.246 154.322 159.158C154.152 158.726 153.471 156.625 152.791 157.713C152.129 158.783 151.619 159.964 151.316 161.184C151.014 162.347 150.73 163.773 151.505 164.824C152.148 165.705 153.641 166.55 154.719 165.968C155.928 165.312 155.796 163.548 155.494 162.441Z" fill="#00A99D"/>
<path d="M164.68 200.921C164.378 199.795 163.943 198.726 163.508 197.638C163.338 197.206 162.658 195.105 161.977 196.193C161.316 197.262 160.805 198.444 160.503 199.664C160.2 200.827 159.917 202.253 160.692 203.304C161.334 204.185 162.828 205.03 163.905 204.448C165.115 203.791 164.983 202.028 164.68 200.921Z" fill="#00A99D"/>
<path d="M164.68 273.49C164.378 272.365 163.943 271.295 163.508 270.207C163.338 269.776 162.658 267.674 161.977 268.762C161.316 269.832 160.805 271.014 160.503 272.233C160.2 273.397 159.917 274.822 160.692 275.873C161.334 276.755 162.828 277.599 163.905 277.017C165.115 276.342 164.983 274.578 164.68 273.49Z" fill="#00A99D"/>
<path d="M150.05 235.836C149.747 234.711 149.313 233.641 148.878 232.553C148.708 232.122 148.027 230.02 147.347 231.109C146.685 232.178 146.175 233.36 145.872 234.579C145.57 235.743 145.286 237.169 146.061 238.219C146.704 239.101 148.197 239.945 149.275 239.364C150.484 238.707 150.352 236.943 150.05 235.836Z" fill="#00A99D"/>
</svg>
