<svg width="80" height="80" viewBox="0 0 80 80" fill="none" xmlns="http://www.w3.org/2000/svg">
<path d="M58.0133 65.8317C58.0788 68.5951 58.0788 72.129 57.5987 75.6872C58.8097 75.6139 59.9552 74.599 59.9224 72.6303C59.7697 62.1511 58.166 51.8554 55.1005 42.1098C54.5005 40.2145 52.9513 39.6887 51.7295 40.1412C54.9041 44.7021 56.3987 50.4003 57.086 54.6922C57.6097 57.9815 57.9151 61.6253 58.0133 65.8317Z" fill="#00A99D"/>
<path d="M56.2899 64.8655C56.1917 61.7964 55.9844 57.7734 55.2099 53.775C54.4789 50.0088 53.0607 45.1666 50.3443 41.3394C50.017 41.9752 49.9188 42.8067 50.2243 43.7727C53.1371 53.0169 54.7189 62.6768 54.8608 72.6179C54.8826 73.804 55.3299 74.6477 55.9408 75.1491C56.4208 71.6275 56.399 68.1426 56.2899 64.8655Z" fill="#00A99D"/>
<path d="M74.7046 70.3801C74.6282 67.9835 74.4646 65.5624 74.0064 63.2391C73.2973 59.5708 71.8681 55.8169 69.359 53.567C68.6717 52.9434 67.9298 52.5398 67.1444 52.3687C67.0244 53.2124 67.2425 54.1172 67.9626 54.8753C72.2936 59.4363 73.5918 67.3599 72.9809 74.1218C72.8391 75.7359 73.5482 76.6896 74.4864 77.0198C74.77 74.8066 74.77 72.5933 74.7046 70.3801Z" fill="#00A99D"/>
<path d="M76.0899 63.5817C76.4826 66.015 76.6463 68.485 76.7117 70.9673C76.7554 72.8992 76.7335 74.8312 76.5263 76.751C77.3008 76.2986 77.9227 75.4059 78.0427 74.0976C78.7954 65.8561 76.7881 55.8904 71.5407 50.3757C70.5043 49.2875 69.2715 49.4342 68.377 50.1679C69.3915 50.5836 70.3297 51.2928 71.1589 52.161C73.8753 55.01 75.4135 59.302 76.0899 63.5817Z" fill="#00A99D"/>
<path d="M11.6708 69.6221C11.8017 71.6275 11.9871 73.6206 12.3472 75.5648C13.5908 75.1735 14.6381 73.7429 14.2345 71.7375C13.0781 66.0638 13.3945 60.5247 15.0418 55.0466C15.4345 53.7383 15.1181 52.6867 14.4963 52.0142C12.8381 54.7654 12.009 58.2748 11.6926 61.6496C11.4308 64.303 11.5071 66.9809 11.6708 69.6221Z" fill="#00A99D"/>
<path d="M9.4343 62.3953C9.6743 58.5191 10.5252 54.5451 12.238 51.2681C11.3653 51.427 10.5471 52.0873 10.1652 53.3712C8.22335 59.8397 8.00517 66.7484 9.35793 73.4247C9.47793 74.0361 9.70703 74.513 9.99068 74.8676C9.7834 73.4614 9.64158 72.0308 9.53248 70.6001C9.33611 67.8733 9.25975 65.1343 9.4343 62.3953Z" fill="#00A99D"/>
<path d="M78.1739 36.3748C77.1702 38.5025 75.2611 39.5907 73.5701 40.3488C72.5665 40.8013 71.5191 41.107 70.4609 41.3026C69.9809 41.3882 69.49 41.4493 69.01 41.486C68.7154 41.4983 68.3445 41.4371 68.0172 41.486C67.9081 41.7795 67.8427 42.1463 67.7663 42.4276C67.6245 42.9289 67.4827 43.4302 67.3409 43.9438C67.1881 44.4941 66.6972 44.9832 66.1845 44.6163C65.999 44.4818 65.8681 44.274 65.7154 44.1028C65.5408 43.8949 65.3553 43.7115 65.1808 43.5036C64.8317 43.0879 64.5153 42.6599 64.1662 42.2441C63.5989 41.5594 62.9444 40.8135 62.1262 40.5323C62.1044 40.52 62.0825 40.52 62.0498 40.5078C62.5189 40.7646 62.9226 41.0947 63.3044 41.7306C64.0462 42.9534 65.3335 47.4532 67.2972 46.2548C68.2027 45.7046 68.29 44.0049 68.5627 43.0145C68.6936 42.5498 68.5409 42.6843 68.9882 42.6232C69.2064 42.5865 69.4136 42.5498 69.6318 42.5009C70.3628 42.3664 71.0937 42.2075 71.8246 42.024C73.9738 41.5105 76.4938 40.9969 78.1521 39.2606C79.7885 37.5365 80.083 34.883 79.4939 32.5598C79.3303 31.9362 79.1121 31.3125 78.8503 30.7134C79.1448 32.6454 78.8939 34.8341 78.1739 36.3748Z" fill="#00A99D"/>
<path d="M65.6717 41.7798C65.9008 40.9605 66.1954 40.1902 66.6645 39.7622C67.1336 39.3342 67.6681 39.3342 68.2136 39.3342C68.8573 39.322 69.5009 39.2853 70.1446 39.1997C72.2719 38.894 74.552 38.0625 76.3738 36.5218C77.0938 35.9105 77.6939 35.1523 77.9339 33.9907C78.163 32.8902 78.2612 31.4229 77.9339 30.3224C77.6066 29.1974 76.7884 28.2437 76.1556 27.4366C76.1338 27.4122 76.1229 27.3999 76.1011 27.3755C75.8829 27.241 75.6538 27.1309 75.4247 27.0331C72.9265 26.0182 70.0464 26.006 67.4281 26.2383C65.4317 26.4217 63.4244 26.8986 61.6898 28.0113C58.7552 29.442 56.726 33.0492 57.7188 36.3751C58.9733 37.818 60.697 37.8791 62.2025 38.4416C63.6971 38.9796 64.7553 40.2268 65.6717 41.7798ZM71.541 29.9311C72.2283 29.8822 72.2828 31.0683 71.6064 31.105C70.9191 31.1661 70.8646 29.98 71.541 29.9311ZM68.8463 34.3453C68.9009 34.5532 68.9663 34.7733 69.0427 34.9811C69.0427 34.9934 69.0754 35.0545 69.0864 35.0912C69.0973 35.1156 69.1409 35.2012 69.1409 35.2135C69.1845 35.2991 69.2391 35.3847 69.2936 35.458C69.3045 35.4703 69.3045 35.4703 69.3045 35.4825C69.3045 35.4825 69.3045 35.4825 69.3264 35.4947C69.37 35.5314 69.4027 35.5681 69.4464 35.6048C69.4682 35.617 69.4791 35.6292 69.5009 35.6414C69.5336 35.6537 69.5664 35.6781 69.5991 35.6904C69.5882 35.6781 69.7736 35.7148 69.7409 35.727C69.7846 35.727 69.8173 35.727 69.8609 35.727C69.8718 35.727 69.9155 35.727 69.9373 35.7148C69.9591 35.7026 70.0464 35.6904 70.0573 35.6781C70.1009 35.6659 70.1446 35.6414 70.1882 35.6292C70.1991 35.6292 70.21 35.617 70.21 35.617C70.2209 35.617 70.2209 35.6048 70.2318 35.6048C70.2755 35.5803 70.3082 35.5558 70.3518 35.5192C70.3627 35.5069 70.4173 35.458 70.45 35.4458C70.4718 35.4213 70.5264 35.3602 70.5373 35.348C70.57 35.3113 70.6028 35.2624 70.6355 35.2257C70.6464 35.2012 70.6464 35.2012 70.6573 35.2012C70.6573 35.189 70.6573 35.189 70.6682 35.1768C70.7228 35.079 70.7773 34.9689 70.81 34.8589C70.8209 34.8344 70.8319 34.81 70.8428 34.7855C70.8209 34.8466 70.8319 34.8344 70.8428 34.7733C70.8537 34.7244 70.8755 34.6632 70.8864 34.6143C70.9082 34.5043 70.93 34.3942 70.9519 34.2842C70.9628 34.223 70.9628 34.1497 70.9737 34.0885C70.9737 34.0763 70.9737 34.0763 70.9737 34.0641C70.9737 34.0396 70.9737 34.0152 70.9737 33.9907C70.9846 33.6605 71.1591 33.4038 71.4755 33.3671C71.7373 33.3304 72.0537 33.6116 72.0428 33.9173C72.021 34.5654 71.901 35.2257 71.5846 35.7759C71.2464 36.3384 70.7664 36.7419 70.1664 36.8642C69.5882 36.9865 68.9663 36.8031 68.5736 36.3017C68.2027 35.8493 68.0063 35.2991 67.8536 34.7244C67.7663 34.4064 67.9081 34.0885 68.1809 33.9785C68.4318 33.8684 68.77 34.0518 68.8463 34.3453ZM68.0936 29.7599C68.7809 29.711 68.8354 30.8971 68.1591 30.9338C67.4718 30.9827 67.4063 29.8088 68.0936 29.7599Z" fill="#00A99D"/>
<path d="M59.2573 19.5741C57.8281 22.6188 55.1008 24.1717 52.668 25.26C51.228 25.908 49.7334 26.3482 48.2279 26.6295C47.5406 26.7517 46.8424 26.8373 46.1551 26.8863C45.7405 26.9107 45.1951 26.8129 44.7369 26.8863C44.5841 27.302 44.486 27.8278 44.3769 28.2435C44.1914 28.9161 43.995 29.6008 43.8096 30.2733C44.355 30.579 45.1078 30.4201 45.2169 29.5519C45.2387 29.344 45.2714 29.1239 45.2932 28.9161C45.446 28.696 45.5223 28.4147 45.5114 28.1335C45.6096 28.1213 45.7187 28.0968 45.7187 28.0968C46.526 28.0479 47.3878 27.7544 48.1842 27.5955C49.7225 27.2775 51.2607 26.9841 52.7989 26.6539C55.4281 26.0914 57.8281 25.0765 59.4318 22.5699C60.8719 20.3077 61.7773 17.2141 61.6573 14.4384C61.5919 12.861 61.0246 11.4671 60.37 10.1098C59.89 9.13157 59.3991 8.10444 58.7227 7.27295C58.9627 7.68869 59.1809 8.10444 59.3773 8.53241C60.8391 11.6749 60.6864 16.5171 59.2573 19.5741Z" fill="#00A99D"/>
<path d="M41.3874 27.2897C41.7147 26.1159 42.1293 25.0154 42.8057 24.404C43.4711 23.8048 44.2457 23.7926 45.0093 23.7804C45.9366 23.7682 46.853 23.7192 47.7694 23.5847C50.8131 23.1445 54.0641 21.9585 56.6715 19.7452C57.697 18.8771 58.5588 17.7888 58.897 16.138C59.2243 14.5729 59.3552 12.4697 58.897 10.8923C58.4279 9.29051 57.2606 7.921 56.3442 6.77159C55.8315 6.12352 55.3078 5.52436 54.7405 4.98634C53.5405 4.74179 52.2859 4.71733 51.0859 4.72956C48.2276 4.76624 45.3366 4.86406 42.5329 5.59773C39.7947 6.30694 37.2855 7.85986 35.1036 9.80407C33.1181 11.5649 32.0272 14.0226 32.0926 16.8717C32.1363 18.657 32.5726 20.2221 33.2927 21.5794C34.3291 21.9095 35.3982 22.1296 36.3909 22.5087C38.5619 23.3035 40.0783 25.0765 41.3874 27.2897ZM49.7767 10.3666C50.7586 10.3054 50.8459 11.9806 49.864 12.054C48.8931 12.1273 48.8058 10.4399 49.7767 10.3666ZM45.9257 16.6761C46.013 16.9818 46.1003 17.2875 46.2094 17.5809C46.2203 17.5931 46.253 17.691 46.2748 17.7399C46.2857 17.7766 46.3512 17.8988 46.3621 17.9111C46.4276 18.0333 46.5039 18.1556 46.5803 18.2657C46.5912 18.2779 46.5912 18.2779 46.5912 18.2901C46.6021 18.2901 46.6021 18.2901 46.613 18.3146C46.6676 18.3635 46.7221 18.4246 46.7767 18.4735C46.7985 18.4858 46.8312 18.5102 46.8639 18.5225C46.9076 18.5469 46.9512 18.5714 47.0058 18.5958C46.9839 18.5714 47.2458 18.6325 47.213 18.6447C47.2676 18.6447 47.333 18.6447 47.3876 18.6447C47.3985 18.6447 47.453 18.6325 47.4967 18.6325C47.5294 18.6203 47.6494 18.5958 47.6712 18.5836C47.7367 18.5591 47.7912 18.5347 47.8567 18.5102C47.8785 18.498 47.8785 18.498 47.8894 18.498C47.9003 18.498 47.9003 18.4858 47.9112 18.4858C47.9658 18.4491 48.0312 18.4124 48.0858 18.3635C48.0967 18.3513 48.184 18.2779 48.2167 18.2534C48.2385 18.2168 48.3258 18.1312 48.3367 18.1189C48.3803 18.0578 48.424 17.9967 48.4676 17.9355C48.4894 17.9111 48.4894 17.9111 48.5003 17.8988C48.5003 17.8866 48.5003 17.8866 48.5222 17.8499C48.5985 17.7032 48.6749 17.5565 48.7294 17.3975C48.7404 17.3608 48.7622 17.3241 48.7731 17.2875C48.7513 17.373 48.7513 17.3608 48.784 17.2752C48.8058 17.2019 48.8276 17.1285 48.8385 17.0429C48.8713 16.8839 48.904 16.7372 48.9258 16.5782C48.9367 16.4804 48.9476 16.3948 48.9585 16.297C48.9585 16.2726 48.9585 16.2726 48.9585 16.2726C48.9585 16.2359 48.9585 16.1992 48.9585 16.1747C48.9804 15.6978 49.2313 15.331 49.6677 15.2821C50.0495 15.2332 50.4859 15.6367 50.4749 16.0769C50.4422 17.0062 50.2786 17.9478 49.8204 18.7303C49.3404 19.5374 48.6531 20.1121 47.7912 20.2955C46.9621 20.4789 46.0785 20.1977 45.5112 19.5007C44.9875 18.8648 44.7039 18.07 44.4748 17.2508C44.3439 16.7983 44.5512 16.3459 44.9439 16.1747C45.3366 15.9913 45.8166 16.2603 45.9257 16.6761ZM44.8457 10.122C45.8276 10.0609 45.9148 11.7361 44.933 11.8094C43.962 11.8706 43.8748 10.1831 44.8457 10.122Z" fill="#00A99D"/>
<path d="M13.7325 19.2927C11.7033 19.256 9.36871 19.1093 7.6123 20.6377C6.7941 21.3469 6.11772 22.2762 5.48497 23.2789C4.88496 24.2571 4.09948 25.4188 3.88129 26.7027C3.6631 27.9621 3.93584 29.5518 4.31767 30.7256C4.72131 31.9484 5.46315 32.6943 6.325 33.2568C8.50687 34.6752 11.0924 35.2499 13.4597 35.2743C14.1688 35.2866 14.8889 35.2254 15.598 35.1398C16.1871 35.0665 16.7871 34.9931 17.3435 35.3844C17.9108 35.7879 18.3253 36.5827 18.6744 37.4509C19.4926 35.6167 20.5072 34.1005 22.0782 33.269C22.9945 32.7799 23.9982 32.4742 24.9146 31.9606C25.5582 30.8846 25.9619 29.6496 26.071 28.2801C26.2128 26.5682 26.1474 24.624 25.6237 22.9121C24.1509 21.6159 22.1872 20.9679 20.6163 20.4421C18.3581 19.7084 16.0453 19.3294 13.7325 19.2927ZM14.5834 24.6607C15.3362 24.6117 15.4125 25.9079 14.6489 25.9568C13.907 26.0057 13.8307 24.7096 14.5834 24.6607ZM10.8306 25.3576C11.5833 25.3087 11.6597 26.6049 10.896 26.6538C10.1433 26.7027 10.0778 25.4065 10.8306 25.3576ZM14.8561 31.8873C14.4743 32.4864 13.8197 32.7799 13.1761 32.731C12.4997 32.6698 11.9324 32.3152 11.496 31.7405C11.0706 31.1903 10.8742 30.4811 10.7651 29.7719C10.7106 29.4295 11.016 29.0871 11.3106 29.0871C11.6597 29.0871 11.8779 29.3317 11.9324 29.6985C11.9324 29.7229 11.9433 29.7474 11.9433 29.7719C11.9433 29.7719 11.9433 29.7718 11.9433 29.7963C11.9651 29.8697 11.9761 29.9308 11.987 30.0042C12.0197 30.1265 12.0524 30.2365 12.0961 30.3588C12.1179 30.4199 12.1397 30.4688 12.1615 30.53C12.1942 30.6033 12.1942 30.6033 12.1724 30.5422C12.1833 30.5667 12.1942 30.5911 12.2161 30.6278C12.2706 30.7378 12.347 30.8479 12.4124 30.9579C12.4233 30.9824 12.4233 30.9824 12.4343 30.9946C12.4452 30.9946 12.4452 31.0068 12.4561 31.0191C12.4997 31.0558 12.5324 31.1047 12.5761 31.1414C12.587 31.1536 12.6524 31.2147 12.6852 31.2392C12.7179 31.2514 12.7834 31.3003 12.7943 31.3125C12.8379 31.337 12.8815 31.3615 12.9361 31.3859C12.947 31.3859 12.947 31.3981 12.9579 31.3981C12.9688 31.3981 12.9688 31.3981 12.9906 31.4104C13.0452 31.4226 13.0888 31.4348 13.1434 31.4471C13.1543 31.4471 13.2525 31.4593 13.2743 31.4593C13.307 31.4593 13.3506 31.4593 13.3616 31.4593C13.4052 31.4593 13.4488 31.4471 13.4925 31.4471C13.4597 31.4471 13.667 31.3737 13.6452 31.3859C13.6779 31.3615 13.7107 31.3492 13.7434 31.3248C13.7652 31.3125 13.787 31.2881 13.7979 31.2759C13.8307 31.227 13.8743 31.178 13.907 31.1414C13.9179 31.1291 13.9179 31.1291 13.9288 31.1291C13.9288 31.1169 13.9288 31.1169 13.9397 31.1047C13.9943 31.0069 14.0379 30.909 14.0816 30.8112C14.0816 30.799 14.1252 30.7012 14.1252 30.6767C14.1361 30.64 14.1579 30.5667 14.1579 30.5544C14.2234 30.3221 14.2561 30.0775 14.2998 29.833C14.3543 29.5028 14.6925 29.2461 14.998 29.3317C15.3143 29.4172 15.5107 29.7474 15.4452 30.102C15.3471 30.7134 15.2052 31.3492 14.8561 31.8873Z" fill="#00A99D"/>
<path d="M16.0779 37.4878C15.7179 37.4756 15.3142 37.6101 14.9978 37.6346C14.4633 37.6712 13.9287 37.6835 13.3833 37.6468C12.205 37.5856 11.0159 37.4022 9.85953 37.0599C7.90674 36.4729 5.69214 35.5681 4.33937 33.3793C2.98661 31.1905 2.47387 27.4978 3.3248 24.9177C3.97937 22.949 5.20122 20.9804 6.49943 19.5986C6.15033 19.8432 5.80123 20.1 5.47395 20.4057C2.3975 23.1814 0.477451 28.3048 1.86294 32.6334C2.82297 35.6292 5.47395 36.424 7.98311 37.1455C10.6777 37.9158 13.416 38.3315 16.187 38.515C16.2852 38.5272 16.3724 38.515 16.4706 38.4905C16.4706 38.4905 16.4706 38.4905 16.4706 38.4783C16.3397 38.1726 16.2306 37.7935 16.0779 37.4878Z" fill="#00A99D"/>
<path d="M33.3691 24.6607C34.3292 25.052 35.3546 25.162 36.3365 25.5044C37.5038 25.9079 38.442 26.9717 39.2493 27.9499C39.7402 28.5491 40.1984 29.1605 40.6893 29.7474C40.9402 30.0409 41.213 30.3099 41.453 30.6034C41.6603 30.8601 41.8457 31.1536 42.1185 31.3493C42.8494 31.875 43.5476 31.1658 43.7658 30.3833C43.7767 30.3466 43.7876 30.2977 43.7985 30.261C43.6349 30.1632 43.4821 30.0287 43.373 29.8452C43.2967 29.8086 43.2203 29.7596 43.1439 29.6985C42.6639 29.2828 42.2166 28.8181 41.7694 28.3657C38.4093 27.0206 35.0383 24.893 33.3037 21.5793C31.9509 21.1513 30.6527 20.5155 29.6163 19.0726C28.1108 16.9572 28.0999 13.3989 29.3763 11.1857C30.98 8.39778 34.1219 6.91822 36.4892 5.76881C39.2929 4.41153 42.2057 3.53113 45.1731 3.07871C47.7804 2.67519 50.7587 2.10049 53.2351 3.75123C53.7697 4.10584 54.2606 4.53381 54.7406 4.98623C55.9079 5.23079 57.0207 5.68321 57.9807 6.50247C58.2425 6.72257 58.4825 6.97936 58.7007 7.24837C57.3262 4.85173 55.3406 2.65073 53.4533 1.39128C50.8242 -0.357292 47.9332 -0.112736 45.1404 0.290779C42.3803 0.682067 39.6311 1.42796 37.002 2.61405C34.3946 3.80014 31.5364 5.35307 29.4854 7.89644C27.6199 10.2197 26.8999 13.7902 27.4781 17.1895C28.1654 21.188 30.6527 23.548 33.3691 24.6607Z" fill="#1E1E1E"/>
<path d="M57.9918 6.50257C57.0318 5.67108 55.919 5.21866 54.7517 4.98633C55.3081 5.53658 55.8427 6.13574 56.3554 6.77158C57.2718 7.92099 58.4282 9.2905 58.9082 10.8923C59.3664 12.4697 59.2464 14.5729 58.9082 16.138C58.5591 17.7888 57.7082 18.8771 56.6827 19.7452C54.0753 21.9584 50.8353 23.1323 47.7806 23.5847C46.8642 23.7192 45.9369 23.7804 45.0205 23.7804C44.246 23.7926 43.4823 23.7926 42.8169 24.404C42.1405 25.0154 41.7259 26.1159 41.3986 27.2897C40.1004 25.0765 38.5731 23.3035 36.424 22.4965C35.4203 22.1174 34.3512 21.9095 33.3257 21.5672C35.0603 24.8686 38.4204 27.0085 41.7914 28.3536C42.2387 28.806 42.6968 29.2706 43.166 29.6864C43.2423 29.7475 43.3187 29.7964 43.395 29.8331C43.5041 30.0165 43.646 30.151 43.8205 30.2489C44.006 29.5763 44.2023 28.8916 44.3878 28.2191C44.5078 27.8033 44.5951 27.2897 44.7478 26.8618C45.206 26.7884 45.7406 26.8985 46.166 26.8618C46.8642 26.8129 47.5515 26.7273 48.2388 26.605C49.7443 26.3237 51.2389 25.8835 52.6789 25.2355C55.1008 24.1472 57.8391 22.5943 59.2682 19.5496C60.7083 16.4926 60.8501 11.6627 59.3773 8.49569C59.1809 8.06772 58.9518 7.65198 58.7227 7.23623C58.4936 6.97945 58.2536 6.7349 57.9918 6.50257Z" fill="#1E1E1E"/>
<path d="M44.9658 16.1504C44.5731 16.3216 44.3658 16.774 44.4967 17.2264C44.7258 18.0457 45.0095 18.8405 45.5331 19.4763C46.1113 20.1733 46.995 20.4546 47.8132 20.2711C48.675 20.0877 49.3623 19.513 49.8423 18.706C50.3005 17.9234 50.4641 16.9819 50.4969 16.0526C50.5187 15.6124 50.0714 15.2211 49.6896 15.2578C49.2423 15.3067 48.9914 15.6735 48.9805 16.1504C48.9805 16.1871 48.9805 16.2238 48.9805 16.2482C48.9805 16.2482 48.9805 16.2482 48.9805 16.2727C48.9696 16.3705 48.9587 16.4561 48.9477 16.5539C48.9259 16.7129 48.8932 16.8718 48.8605 17.0186C48.8387 17.0919 48.8168 17.1775 48.8059 17.2509C48.7732 17.3487 48.7732 17.3487 48.795 17.2631C48.7841 17.2998 48.7732 17.3365 48.7514 17.3732C48.6859 17.5321 48.6205 17.6789 48.5441 17.8256C48.5332 17.85 48.5332 17.8623 48.5223 17.8745C48.5114 17.8867 48.5114 17.8867 48.4895 17.9112C48.4459 17.9723 48.4023 18.0335 48.3586 18.0946C48.3477 18.1068 48.2605 18.2046 48.2386 18.2291C48.2059 18.2536 48.1186 18.3269 48.1077 18.3392C48.0532 18.3758 47.9986 18.4125 47.9332 18.4614C47.9223 18.4737 47.9113 18.4737 47.9113 18.4737C47.9004 18.4737 47.8895 18.4859 47.8786 18.4859C47.8132 18.5103 47.7586 18.5348 47.6932 18.5593C47.6713 18.5715 47.5513 18.5959 47.5186 18.6082C47.475 18.6082 47.4204 18.6204 47.4095 18.6204C47.355 18.6204 47.2895 18.6204 47.235 18.6204C47.2677 18.6082 47.0059 18.547 47.0277 18.5715C46.9841 18.547 46.9295 18.5226 46.8859 18.4981C46.8531 18.4859 46.8313 18.4614 46.7986 18.4492C46.744 18.4003 46.6895 18.3392 46.635 18.2902C46.6131 18.278 46.6131 18.278 46.6131 18.2658C46.6131 18.2536 46.6131 18.2536 46.6022 18.2413C46.5259 18.1313 46.4495 18.009 46.384 17.8867C46.3731 17.8745 46.3186 17.7522 46.2968 17.7155C46.2749 17.6666 46.2422 17.5688 46.2313 17.5566C46.1222 17.2631 46.0349 16.9574 45.9477 16.6517C45.8167 16.2604 45.3367 15.9914 44.9658 16.1504Z" fill="#1E1E1E"/>
<path d="M44.9441 11.8092C45.9259 11.748 45.8277 10.0606 44.8568 10.1217C43.875 10.1829 43.9622 11.8703 44.9441 11.8092Z" fill="#1E1E1E"/>
<path d="M49.8752 12.0538C50.8571 11.9927 50.7589 10.3052 49.7879 10.3664C48.8061 10.4397 48.8934 12.1272 49.8752 12.0538Z" fill="#1E1E1E"/>
<path d="M20.245 48.2724C21.5323 48.3946 22.9505 48.7737 24.1505 49.5318C24.3578 49.6052 24.5542 49.6908 24.7724 49.7275C24.7724 49.7275 24.8051 49.7275 24.816 49.7275C24.8269 49.7275 24.8378 49.7275 24.8378 49.7275C24.8815 49.7275 24.9251 49.7275 24.9687 49.7275C25.0451 49.7275 25.1324 49.7152 25.2087 49.703C25.2196 49.703 25.2524 49.6908 25.2633 49.6908C25.2742 49.6908 25.296 49.6786 25.3069 49.6786C25.3506 49.6663 25.3833 49.6541 25.4269 49.6419C25.4706 49.6296 25.5142 49.6052 25.5578 49.5807C25.5687 49.5807 25.6015 49.5563 25.6233 49.5441C25.6997 49.4951 25.7651 49.4462 25.8306 49.3729C25.8415 49.3606 25.8633 49.3362 25.8742 49.324C25.9069 49.2873 25.9288 49.2384 25.9615 49.2017C25.9615 49.2017 25.9615 49.2017 25.9615 49.1894C25.9724 49.165 25.9833 49.1528 25.9833 49.1283C25.9833 49.1161 26.0051 49.0672 26.0051 49.0549C26.0269 48.9571 26.0488 48.8471 26.0488 48.7492C26.0706 48.2601 25.8524 47.6977 25.536 47.4164C25.3287 47.233 25.0996 47.0985 24.8815 46.9395C24.7287 46.8539 24.5869 46.7684 24.4233 46.6828C22.6341 45.8146 20.5286 45.2399 18.6086 45.57C16.6449 45.9002 14.9648 47.2452 13.623 49.0305C13.0993 49.7275 12.6411 50.4734 12.2266 51.2559C13.0339 51.1092 13.8957 51.3904 14.4739 52.0141C14.8557 51.3904 15.2703 50.7913 15.7394 50.2533C17.0158 48.8226 18.5322 48.1134 20.245 48.2724Z" fill="#1E1E1E"/>
<path d="M9.99023 74.8677C10.1757 76.1394 10.4266 77.3866 10.7539 78.6216C11.2121 80.309 13.2958 79.4164 12.8376 77.729C12.6412 77.0198 12.4885 76.2983 12.3467 75.5769C11.5175 75.8337 10.6012 75.6503 9.99023 74.8677Z" fill="#1E1E1E"/>
<path d="M12.2375 51.2682C10.5138 54.5452 9.6738 58.5192 9.43379 62.3954C9.25924 65.1344 9.33561 67.8734 9.54289 70.6125C9.65198 72.0431 9.7829 73.4738 10.0011 74.8799C10.6229 75.6503 11.5284 75.8459 12.3575 75.5769C11.9975 73.6327 11.812 71.6274 11.6811 69.6342C11.5066 66.993 11.4411 64.3152 11.692 61.674C12.0084 58.2991 12.8375 54.7898 14.4958 52.0385C13.9066 51.4149 13.0448 51.1214 12.2375 51.2682Z" fill="#1E1E1E"/>
<path d="M6.49902 19.5983C10.23 17.0183 14.9974 17.4218 19.1866 18.1432C21.314 18.5101 23.5395 19.1092 24.8486 21.1879C25.1759 21.7137 25.4268 22.3007 25.6232 22.9243C25.9505 23.2055 26.2559 23.5234 26.5178 23.878C27.6741 25.4432 27.9687 28.17 26.9869 29.943C26.4414 30.9334 25.7105 31.5204 24.9141 31.9606C24.4122 32.7798 23.7686 33.5013 22.9722 34.076C22.1213 34.6874 21.1612 35.1276 20.2339 35.58C20.2449 36.0324 20.1249 36.4726 19.8194 36.7783C19.1321 37.4753 18.1721 38.0378 17.223 38.0011C17.0157 38.2334 16.7538 38.4168 16.4702 38.4657C16.6884 38.9915 16.8957 39.5173 17.1139 40.0553C17.343 40.63 17.943 41.0947 18.4557 40.6178C18.6521 40.4344 18.7612 40.2021 18.903 39.982C19.0666 39.7252 19.2521 39.5051 19.4157 39.2483C19.743 38.747 20.0485 38.2212 20.3758 37.7198C20.9103 36.8884 21.5431 35.9713 22.4049 35.5433C23.1249 35.1887 23.8995 34.9931 24.6086 34.5895C26.5941 33.4524 28.3069 31.3859 28.4924 28.2556C28.6451 25.5899 27.7942 22.9243 26.1796 21.3347C24.3904 19.5861 22.0776 18.6935 19.983 18.0576C17.8775 17.4218 15.7065 17.1283 13.5574 17.1161C11.3864 17.1039 9.15 17.2017 7.2845 18.8157C7.01176 19.0725 6.74994 19.3293 6.49902 19.5983Z" fill="#1E1E1E"/>
<path d="M19.8194 36.8028C20.1249 36.4971 20.2449 36.0447 20.234 35.6045C21.1613 35.152 22.1213 34.7118 22.9722 34.1004C23.7686 33.5257 24.4123 32.8043 24.9141 31.985C23.9977 32.4986 22.9831 32.8043 22.0777 33.2934C20.4958 34.1249 19.4812 35.6411 18.6739 37.4753C18.3248 36.6071 17.9103 35.8123 17.343 35.4088C16.7866 35.0175 16.1866 35.0909 15.5975 35.1643C14.8884 35.2499 14.1793 35.2988 13.4592 35.2988C11.081 35.2743 8.50638 34.6996 6.3245 33.2812C5.46266 32.7187 4.72082 31.9728 4.31717 30.75C3.93534 29.5762 3.66261 27.9866 3.8808 26.7271C4.10989 25.4432 4.88446 24.2816 5.48448 23.3033C6.10631 22.2884 6.78269 21.3714 7.61181 20.6621C9.36822 19.1459 11.7028 19.2804 13.732 19.3171C16.0448 19.3538 18.3576 19.7328 20.6158 20.491C22.1868 21.0168 24.1504 21.6648 25.6232 22.961C25.4268 22.3373 25.1759 21.7504 24.8486 21.2246C23.5395 19.1337 21.314 18.5467 19.1867 18.1799C14.9975 17.4585 10.2192 17.0427 6.49905 19.635C5.18992 21.029 3.97898 22.9854 3.32442 24.9541C2.46258 27.5341 2.97532 31.2269 4.33899 33.4157C5.69175 35.6045 7.90636 36.5093 9.85914 37.0962C11.0155 37.4386 12.2047 37.6343 13.3829 37.6832C13.9174 37.7076 14.4629 37.7076 14.9975 37.6709C15.3247 37.6465 15.7284 37.512 16.0775 37.5242C16.2302 37.8299 16.3393 38.2212 16.4702 38.5269C16.4702 38.5269 16.4702 38.5269 16.4702 38.5391C16.7539 38.478 17.0157 38.3068 17.223 38.0745C18.1721 38.0622 19.1321 37.4998 19.8194 36.8028Z" fill="#1E1E1E"/>
<path d="M14.998 29.2948C14.6925 29.2092 14.3543 29.466 14.2998 29.7962C14.2562 30.0407 14.2125 30.2853 14.158 30.5176C14.158 30.5298 14.1362 30.6032 14.1253 30.6399C14.1143 30.6644 14.0816 30.7622 14.0816 30.7744C14.038 30.8722 13.9943 30.97 13.9398 31.0679C13.9289 31.0801 13.9289 31.0801 13.9289 31.0923C13.9289 31.0923 13.918 31.0923 13.9071 31.1046C13.8743 31.1535 13.8307 31.2024 13.798 31.2391C13.7762 31.2513 13.7543 31.2757 13.7434 31.288C13.7107 31.3124 13.678 31.3369 13.6452 31.3491C13.6561 31.3247 13.4598 31.398 13.4925 31.4102C13.4489 31.4225 13.4052 31.4225 13.3616 31.4225C13.3507 31.4225 13.307 31.4225 13.2743 31.4225C13.2525 31.4225 13.1543 31.4102 13.1434 31.4102C13.0889 31.398 13.0452 31.3858 12.9907 31.3736C12.9798 31.3736 12.9689 31.3736 12.9579 31.3613C12.947 31.3613 12.947 31.3613 12.9361 31.3491C12.8925 31.3247 12.8379 31.3002 12.7943 31.2757C12.7834 31.2635 12.707 31.2268 12.6852 31.2024C12.6634 31.1779 12.587 31.1168 12.5761 31.1046C12.5325 31.0679 12.4998 31.019 12.4561 30.9823C12.4343 30.9578 12.4343 30.9578 12.4343 30.9578C12.4343 30.9456 12.4343 30.9456 12.4125 30.9211C12.3361 30.8111 12.2707 30.7133 12.2161 30.591C12.2052 30.5665 12.1943 30.5421 12.1725 30.5054C12.1943 30.5665 12.1943 30.5665 12.1616 30.4932C12.1397 30.432 12.1179 30.3831 12.0961 30.322C12.0525 30.2119 12.0197 30.0897 11.987 29.9674C11.9652 29.894 11.9543 29.8329 11.9434 29.7595C11.9434 29.7473 11.9434 29.7473 11.9434 29.735C11.9434 29.7106 11.9325 29.6861 11.9325 29.6617C11.8779 29.2948 11.6597 29.0503 11.3106 29.0503C11.0161 29.0503 10.7106 29.4049 10.7652 29.735C10.8743 30.4443 11.0706 31.1412 11.4961 31.7037C11.9325 32.2784 12.4998 32.633 13.1761 32.6942C13.8198 32.7431 14.4744 32.4496 14.8562 31.8504C15.2053 31.3002 15.3471 30.6644 15.4562 30.0163C15.5107 29.6984 15.3144 29.3804 14.998 29.2948Z" fill="#1E1E1E"/>
<path d="M14.6598 25.9569C15.4125 25.908 15.347 24.5996 14.5943 24.6608C13.8306 24.7097 13.907 26.0058 14.6598 25.9569Z" fill="#1E1E1E"/>
<path d="M10.8303 25.3578C10.0775 25.4067 10.143 26.7151 10.8957 26.6539C11.6594 26.605 11.583 25.3089 10.8303 25.3578Z" fill="#1E1E1E"/>
<path d="M76.3084 78.3406C76.3956 77.8148 76.4611 77.289 76.5266 76.7632C75.8829 77.1422 75.1302 77.2278 74.4865 77.0077C74.4538 77.289 74.4101 77.558 74.3665 77.827C74.1047 79.3922 76.0465 79.9057 76.3084 78.3406Z" fill="#1E1E1E"/>
<path d="M68.3773 50.1557C67.7446 49.8867 67.0791 49.74 66.3809 49.7278C64.6245 49.6911 62.7917 50.4981 61.2535 51.5252C61.1226 51.6108 60.9916 51.7209 60.8607 51.8187C60.6753 51.9899 60.4789 52.1489 60.3153 52.3445C60.0644 52.638 59.9116 53.176 59.9771 53.604C59.988 53.6896 60.0098 53.7874 60.0425 53.873C60.0534 53.8852 60.0643 53.9219 60.0753 53.9341C60.0862 53.9463 60.0971 53.9708 60.108 53.983C60.108 53.9952 60.108 53.9952 60.108 53.9952C60.1298 54.0319 60.1625 54.0686 60.1953 54.0931C60.2062 54.1053 60.228 54.1175 60.2389 54.1298C60.3044 54.1787 60.3698 54.2153 60.4353 54.252C60.4462 54.252 60.4789 54.2643 60.4898 54.2765C60.5335 54.2887 60.5662 54.3009 60.6098 54.3132C60.6425 54.3254 60.6862 54.3254 60.7189 54.3376C60.7298 54.3376 60.7407 54.3376 60.7626 54.3376C60.7735 54.3376 60.7953 54.3376 60.8062 54.3376C60.8826 54.3376 60.948 54.3376 61.0244 54.3254C61.068 54.3254 61.1007 54.3132 61.1444 54.3009C61.1444 54.3009 61.1553 54.3009 61.1662 54.3009C61.1771 54.3009 61.1989 54.2887 61.2098 54.2887C61.3953 54.2276 61.5698 54.1298 61.7553 54.0319C62.7699 53.1882 64.0135 52.6624 65.159 52.369C65.8463 52.1978 66.5118 52.1978 67.1555 52.3445C67.2755 51.4886 67.7446 50.6815 68.3773 50.1557Z" fill="#1E1E1E"/>
<path d="M76.5264 76.7511C76.7337 74.8436 76.7555 72.8994 76.7119 70.9674C76.6573 68.4851 76.4828 66.0151 76.0901 63.5818C75.4028 59.3021 73.8755 55.0102 71.159 52.1611C70.3299 51.2807 69.3917 50.5837 68.3771 50.168C67.7444 50.6815 67.2753 51.4886 67.1553 52.3567C67.9298 52.5402 68.6717 52.9437 69.3699 53.5551C71.879 55.8172 73.2973 59.5589 74.0173 63.2272C74.4755 65.5627 74.6391 67.9838 74.7155 70.3682C74.7809 72.5814 74.7809 74.7947 74.4973 76.9834C75.13 77.2157 75.8828 77.1424 76.5264 76.7511Z" fill="#1E1E1E"/>
<path d="M68.3008 22.8877C66.3698 23.1567 64.4498 23.6825 62.6061 24.514C60.7842 25.3455 58.7878 26.4215 57.3478 28.2068C56.0495 29.8331 55.5368 32.3275 55.9404 34.712C56.4095 37.4999 58.1551 39.1629 60.0533 39.9454C60.6969 40.2144 61.3951 40.3 62.0606 40.5201C61.6897 40.3245 61.286 40.1778 60.806 39.9821C59.9224 39.6397 59.1805 39.0284 58.6023 38.2091C58.1878 37.6222 57.8932 36.9986 57.6969 36.3627C57.6096 36.2649 57.5223 36.1548 57.435 36.0326C56.3768 34.553 56.3768 32.0585 57.2714 30.5178C58.3951 28.5614 60.5878 27.5343 62.2461 26.7272C64.2098 25.7735 66.2498 25.1621 68.3226 24.8442C70.1445 24.5629 72.2282 24.1594 73.9628 25.3088C74.7482 25.8346 75.4355 26.5561 76.0792 27.3631C77.2901 28.0968 78.2065 29.3318 78.8283 30.7135C78.7083 29.9676 78.5229 29.2584 78.2392 28.6348C77.3119 26.6172 75.6537 24.6974 74.1046 23.6581C72.2827 22.4353 70.2536 22.6065 68.3008 22.8877Z" fill="#1E1E1E"/>
<path d="M76.0905 27.3628C76.1123 27.3872 76.1232 27.3995 76.145 27.4239C76.7778 28.231 77.596 29.1847 77.9233 30.3097C78.2506 31.4102 78.1524 32.8775 77.9233 33.978C77.6833 35.1274 77.0833 35.8978 76.3632 36.5091C74.5414 38.0498 72.2722 38.8813 70.134 39.187C69.4903 39.2848 68.8467 39.3215 68.203 39.3215C67.6684 39.3215 67.123 39.3338 66.6539 39.7495C66.1848 40.1775 65.8902 40.9478 65.6611 41.7671C64.7447 40.2142 63.6865 38.9792 62.181 38.4167C60.6646 37.8542 58.9518 37.7931 57.6973 36.3502C57.8827 36.986 58.1773 37.5974 58.6027 38.1966C59.1809 39.0158 59.9228 39.6272 60.8064 39.9696C61.2865 40.153 61.6901 40.312 62.061 40.5076C62.0828 40.5198 62.1047 40.5198 62.1374 40.5321C62.9556 40.8133 63.6102 41.5592 64.1774 42.244C64.5156 42.6597 64.8429 43.0877 65.192 43.5034C65.3666 43.7113 65.5629 43.8947 65.7266 44.1026C65.8793 44.286 65.9993 44.4816 66.1957 44.6161C66.7084 44.983 67.1993 44.4939 67.3521 43.9436C67.4939 43.4423 67.6357 42.9409 67.7775 42.4274C67.8539 42.1339 67.9194 41.7793 68.0285 41.4858C68.3448 41.4369 68.7267 41.5103 69.0212 41.4858C69.5121 41.4614 69.9921 41.4002 70.4722 41.3024C71.5304 41.1068 72.5777 40.8011 73.5813 40.3487C75.2832 39.5905 77.1923 38.5023 78.1851 36.3746C78.9051 34.8339 79.156 32.6452 78.8506 30.7132C78.2178 29.3192 77.3014 28.0842 76.0905 27.3628Z" fill="#1E1E1E"/>
<path d="M68.1703 33.9784C67.8976 34.1007 67.7558 34.4064 67.843 34.7243C68.0067 35.299 68.2031 35.8492 68.5631 36.3017C68.9667 36.7908 69.5776 36.9864 70.1558 36.8641C70.7558 36.7296 71.2359 36.3383 71.5741 35.7759C71.9013 35.2256 72.0104 34.5653 72.0322 33.9173C72.0432 33.6116 71.7377 33.3303 71.465 33.367C71.1486 33.4037 70.985 33.6605 70.9631 33.9906C70.9631 34.0151 70.9631 34.0395 70.9631 34.064C70.9631 34.064 70.9631 34.064 70.9631 34.0884C70.9522 34.1496 70.9522 34.2229 70.9413 34.2841C70.9304 34.3941 70.9086 34.5042 70.8759 34.6142C70.8649 34.6631 70.854 34.7243 70.8322 34.7732C70.8104 34.8343 70.8104 34.8466 70.8322 34.7854C70.8213 34.8099 70.8104 34.8343 70.7995 34.8588C70.7559 34.9688 70.7122 35.0789 70.6577 35.1767C70.6468 35.2012 70.6468 35.2012 70.6468 35.2012C70.6468 35.2134 70.6358 35.2134 70.6249 35.2256C70.5922 35.2745 70.5595 35.3112 70.5268 35.3479C70.5158 35.3601 70.4613 35.4213 70.4395 35.4457C70.4177 35.4702 70.3522 35.5191 70.3413 35.5191C70.2977 35.5435 70.2649 35.5802 70.2213 35.6047C70.2104 35.6047 70.2104 35.6169 70.1995 35.6169C70.1886 35.6169 70.1886 35.6169 70.1777 35.6291C70.134 35.6414 70.0904 35.6658 70.0467 35.678C70.0358 35.678 69.9486 35.7025 69.9267 35.7147C69.894 35.7147 69.8613 35.727 69.8504 35.727C69.8067 35.727 69.774 35.727 69.7304 35.727C69.7522 35.7147 69.5667 35.678 69.5885 35.6903C69.5558 35.678 69.5231 35.6658 69.4904 35.6414C69.4685 35.6291 69.4467 35.6169 69.4358 35.6047C69.4031 35.568 69.3594 35.5313 69.3158 35.4946C69.3049 35.4824 69.3049 35.4824 69.294 35.4824C69.294 35.4824 69.294 35.4824 69.2831 35.4579C69.2285 35.3724 69.174 35.299 69.1304 35.2134C69.1194 35.2012 69.0867 35.1156 69.0758 35.0911C69.0649 35.0544 69.0322 34.9933 69.0322 34.9811C68.9558 34.7732 68.8903 34.5653 68.8358 34.3452C68.7703 34.0518 68.4322 33.8683 68.1703 33.9784Z" fill="#1E1E1E"/>
<path d="M68.1587 30.9459C68.846 30.8969 68.7806 29.7231 68.0933 29.772C67.406 29.8087 67.4714 30.9825 68.1587 30.9459Z" fill="#1E1E1E"/>
<path d="M71.6066 31.1168C72.2939 31.0678 72.2285 29.894 71.5412 29.9429C70.8648 29.9796 70.9193 31.1657 71.6066 31.1168Z" fill="#1E1E1E"/>
<path d="M78.2175 22.7043C78.5012 22.4475 78.8175 22.203 79.1557 21.9829C79.3085 21.885 79.4175 21.7138 79.4612 21.506C79.5048 21.2981 79.4612 21.0902 79.3521 20.919C79.1448 20.6011 78.7521 20.5155 78.4466 20.7112C77.6939 21.2003 77.0284 21.8117 76.4393 22.5453C76.3193 22.6921 76.2538 22.8999 76.2756 23.1078C76.2866 23.3157 76.3738 23.4869 76.5047 23.6091C76.6466 23.7314 76.8211 23.7926 76.9848 23.7803C77.1593 23.7681 77.3229 23.6825 77.4429 23.5358C77.5739 23.3768 77.7048 23.2301 77.8357 23.0833C77.9011 23.01 77.9666 22.9488 78.0539 22.8633L78.2175 22.7043Z" fill="#1E1E1E"/>
<path d="M79.9961 24.6483C79.9743 24.4404 79.887 24.257 79.7561 24.1469C79.5924 24.0002 79.407 23.939 79.2324 23.9757C78.8506 24.0613 78.5124 24.1714 78.2179 24.3303C78.1088 24.3915 77.9669 24.4893 77.8688 24.6849C77.7815 24.8684 77.7706 25.1007 77.836 25.2841C77.9015 25.4797 78.0215 25.6265 78.1742 25.6998C78.2833 25.761 78.4033 25.7854 78.5124 25.7732C78.5888 25.7732 78.6542 25.7488 78.7197 25.7121C78.9488 25.5898 79.1997 25.492 79.4506 25.4431C79.5706 25.4064 79.7015 25.3575 79.8106 25.2107C79.9525 25.0518 80.0179 24.8317 79.9961 24.6483Z" fill="#1E1E1E"/>
<path d="M73.93 21.2738C73.9409 21.4694 74.0282 21.6406 74.1591 21.7629C74.3009 21.8852 74.4754 21.9463 74.6391 21.9341C74.8136 21.9218 74.9773 21.8362 75.0973 21.6773C75.5009 21.1393 75.9373 20.6257 76.3955 20.1488C76.5264 20.0143 76.5919 19.8187 76.5809 19.6108C76.57 19.3907 76.4828 19.195 76.3409 19.0728C76.0573 18.816 75.6864 18.8404 75.4246 19.1217C74.9554 19.623 74.5082 20.161 74.0827 20.7113C73.9736 20.858 73.9081 21.0659 73.93 21.2738Z" fill="#1E1E1E"/>
<path d="M0.553716 30.7503C0.215525 30.8359 -0.079029 31.2149 0.0191555 31.6796C0.520987 34.1252 1.91739 36.3384 3.85926 37.7446C3.97926 37.8302 4.12109 37.8791 4.252 37.8668C4.43746 37.8546 4.61201 37.7446 4.73201 37.5489C4.92838 37.2188 4.90656 36.7297 4.53564 36.4607C2.93196 35.299 1.75375 33.4037 1.31737 31.2761C1.2301 30.8848 0.902816 30.6647 0.553716 30.7503Z" fill="#1E1E1E"/>
<path d="M59.0061 5.0597C59.137 5.3654 59.3988 5.54881 59.6716 5.52436C59.7261 5.52436 59.7916 5.51213 59.8461 5.48767C60.0207 5.41431 60.1734 5.25535 60.2498 5.0597C60.3261 4.87629 60.3152 4.68064 60.2498 4.50945C59.6061 2.99321 58.7006 1.69707 57.5769 0.645486C57.3915 0.474297 57.1515 0.425387 56.9224 0.510981C56.6933 0.608803 56.5078 0.84113 56.4642 1.11014C56.4206 1.36692 56.5078 1.61148 56.6933 1.78267C57.6751 2.68752 58.4715 3.8247 59.0061 5.0597Z" fill="#1E1E1E"/>
<path d="M56.4317 77.6434C56.5735 77.6801 57.2717 77.8146 57.4245 76.8853C57.4899 76.4817 57.5445 76.0782 57.599 75.6747C57.0208 75.7114 56.4317 75.5402 55.9517 75.1489C55.8971 75.5769 55.8317 76.0049 55.7662 76.4328C55.6026 77.3744 56.2899 77.6067 56.4317 77.6434Z" fill="#1E1E1E"/>
<path d="M51.7294 40.1287C51.1403 39.2728 50.4858 38.4657 49.7766 37.7076C47.6275 35.4455 45.2492 34.2349 42.9037 34.186C42.6528 34.186 42.391 34.186 42.1292 34.2105C40.0673 34.3695 37.7109 35.2743 35.3981 36.8272C31.3834 39.5173 29.2452 44.8242 28.8633 53.029C28.6888 56.7218 28.7761 60.5124 28.8524 64.1929L28.8852 65.917C28.9833 71.0649 29.2124 75.2224 29.6052 79.0252C29.6925 79.9056 30.347 80.0401 30.6852 79.9912C30.947 79.9423 31.3834 79.7589 31.307 79.013C30.5652 71.8108 30.5216 64.3274 30.4888 57.7367C30.4561 52.3076 30.4125 44.8731 34.198 40.4589C36.2926 38.0133 39.3036 36.974 40.9073 36.5704C43.3619 35.9591 45.762 36.6316 47.8675 38.5147C48.8057 39.3584 49.6239 40.3121 50.3548 41.3515C50.6494 40.7523 51.1512 40.3366 51.7294 40.1287Z" fill="#1E1E1E"/>
<path d="M57.5985 75.675C58.0785 72.1167 58.0785 68.5829 58.013 65.8194C57.9149 61.6131 57.6094 57.9692 57.0858 54.6677C56.3985 50.3758 54.9148 44.6776 51.7292 40.1167C51.151 40.3246 50.6492 40.7403 50.3438 41.3395C53.0602 45.1668 54.4784 50.0089 55.2093 53.7751C55.9839 57.7613 56.1912 61.7965 56.2894 64.8657C56.3875 68.1427 56.4094 71.6276 55.9403 75.1492C56.4312 75.5405 57.0203 75.7117 57.5985 75.675Z" fill="#1E1E1E"/>
</svg>
