<svg width="74" height="75" viewBox="0 0 74 75" fill="none" xmlns="http://www.w3.org/2000/svg">
<path d="M66.1607 69.1257L5.98072 67.1657C5.32072 67.1457 4.65072 67.1257 3.99072 67.0957C4.25072 67.7857 4.77072 68.3457 5.55072 68.4157C25.1807 70.1657 44.9207 69.9657 64.5807 70.3057C65.3807 70.3157 65.9007 69.8057 66.1607 69.1257Z" fill="#00A99D"/>
<path d="M66.2209 67.1557C65.9809 66.3957 65.4409 65.7857 64.5909 65.7757C44.9209 65.4357 25.1809 65.6257 5.5609 63.8857C4.6909 63.8057 4.1509 64.3757 3.9209 65.1257H3.9309L66.2209 67.1557Z" fill="#00A99D"/>
<path d="M26.731 10.5656C29.311 10.5956 31.901 10.6656 34.481 10.7856C35.151 10.8156 35.821 10.8556 36.501 10.8956C36.341 9.96564 35.771 9.16564 34.781 9.15564C26.751 9.06564 18.721 9.20564 10.701 9.56564C9.83103 9.60564 9.29104 10.2456 9.06104 11.0256C11.521 10.8656 13.961 10.7456 16.381 10.6656C19.821 10.5656 23.281 10.5256 26.731 10.5656Z" fill="#00A99D"/>
<path d="M34.7709 13.6857C35.4409 13.6957 35.9109 13.3257 36.2009 12.8157C35.7109 12.7857 35.2109 12.7557 34.7209 12.7357C29.6709 12.5057 24.6109 12.4557 19.5609 12.5657C16.0809 12.6357 12.6009 12.7957 9.13086 13.0257C9.40086 13.6657 9.91086 14.1357 10.6909 14.1057C18.7209 13.7357 26.7509 13.5957 34.7709 13.6857Z" fill="#00A99D"/>
<path d="M17.7706 18.2257C17.9206 18.2257 18.1506 18.2257 18.1506 17.6657C18.1506 17.1057 17.9306 17.1057 17.7706 17.1057C17.5706 17.1057 17.5206 17.1757 17.5006 17.1957C17.4506 17.2657 17.3906 17.4357 17.3906 17.6657C17.3906 18.2257 17.6106 18.2257 17.7706 18.2257Z" fill="#00A99D"/>
<path d="M12.771 17.0355C12.691 17.0055 12.621 16.9655 12.551 16.9255L12.281 16.9655C12.251 16.9755 12.231 16.9955 12.211 17.0155L12.051 17.2755C12.031 17.3355 12.021 17.4055 12.021 17.4855V17.8555C12.021 17.8855 12.021 17.9055 12.021 17.9155C12.061 18.0155 12.091 18.1055 12.121 18.2055C12.141 18.2355 12.171 18.2655 12.191 18.2955C12.261 18.3255 12.341 18.3655 12.411 18.4055L12.681 18.3655C12.711 18.3555 12.731 18.3355 12.751 18.3155L12.911 18.0555C12.931 17.9955 12.941 17.9255 12.941 17.8455V17.4755C12.941 17.4455 12.941 17.4255 12.941 17.4055C12.901 17.3155 12.871 17.2155 12.841 17.1155C12.811 17.0955 12.791 17.0655 12.771 17.0355Z" fill="#00A99D"/>
<path d="M7.18078 18.4857C7.33078 18.4857 7.56078 18.4857 7.56078 17.9257C7.56078 17.3657 7.34078 17.3657 7.18078 17.3657C7.03078 17.3657 6.80078 17.3657 6.80078 17.9257C6.80078 18.4857 7.02078 18.4857 7.18078 18.4857Z" fill="#00A99D"/>
<path d="M3.91086 65.1156C3.84086 65.1156 3.76086 65.1156 3.67086 65.1156C3.44086 65.1156 3.17086 65.1256 2.89086 65.0756C2.55086 65.0156 2.26086 64.7256 2.16086 64.3256C2.04086 63.8356 2.00086 63.3356 1.96086 62.8856C1.95086 62.7156 1.93086 62.5456 1.92086 62.3956C1.90086 62.1956 1.88086 61.9956 1.86086 61.7956L1.82086 61.4156C1.78086 61.0356 1.91086 60.6556 2.17086 60.4256L2.22086 60.3756C2.24086 60.3556 2.26086 60.3456 2.27086 60.3256C2.43086 60.1656 2.63086 60.0656 2.84086 60.0556C11.3309 59.7056 20.1509 60.1356 29.0609 61.3456C29.2109 61.3656 29.3509 61.2356 29.4209 61.1656C29.6209 60.9556 29.7609 60.6256 29.7609 60.3556C29.7609 59.5656 29.1209 59.3956 28.8509 59.3656C21.9609 58.4356 15.1509 57.9656 8.52086 57.9656C6.06086 57.9656 3.62086 58.0256 1.22086 58.1556C1.14086 58.1556 1.07086 58.1756 0.970855 58.2156C0.900855 58.2456 0.830855 58.2556 0.750855 58.2656C0.530855 58.2856 0.280855 58.4456 0.120855 58.6756C0.0708551 58.7656 -0.00914485 58.9356 0.000855145 59.1256C0.120855 60.5556 0.270855 62.0156 0.440855 63.4556L0.460855 63.5956C0.620855 64.9656 0.750855 65.8256 1.35086 66.4556C1.85086 66.9856 2.54086 67.0456 3.54086 67.0856C3.69086 67.0956 3.84086 67.0956 3.98086 67.0956C3.75086 66.4756 3.72086 65.7356 3.91086 65.1156Z" fill="#1E1E1E"/>
<path d="M66.1608 69.1257L67.3608 69.1657C67.6108 69.1157 67.8508 69.0557 68.1108 68.9757C68.4008 68.8857 68.7008 68.8057 68.9808 68.6857C69.1508 68.6157 69.3708 68.4957 69.5108 68.3357C69.6508 68.1857 69.7608 67.9857 69.8808 67.7857C69.8908 67.7357 69.8908 67.6857 69.9008 67.6357C70.2308 66.2757 70.4208 64.8257 70.4608 63.3457C70.4608 63.2457 70.4908 63.1457 70.5108 63.0457C70.4208 62.7257 70.3408 62.4057 70.2408 62.1257C70.0408 61.5757 69.7208 61.3357 69.2708 61.1757C69.0108 61.0857 68.7408 60.9957 68.4708 60.9257C59.2708 60.8157 49.9708 60.3957 40.8108 59.6557C40.3908 59.6257 40.1708 59.8757 40.1308 60.4157C40.1108 60.8157 40.2408 61.5757 40.9308 61.6357C49.7308 62.3457 58.8108 62.7757 67.9108 62.8857C68.1608 62.8857 68.4108 63.0157 68.5808 63.2457C68.7508 63.4657 68.8408 63.7657 68.8108 64.0657L68.7908 64.3157C68.7808 64.4857 68.7708 64.6557 68.7508 64.8257C68.6808 65.3657 68.6008 65.8657 68.5008 66.3557C68.4008 66.8557 68.0208 67.1857 67.5908 67.1857L66.2008 67.1357C66.4108 67.7857 66.3908 68.5257 66.1608 69.1257Z" fill="#1E1E1E"/>
<path d="M66.161 69.1257C66.391 68.5157 66.411 67.7857 66.221 67.1557L3.92099 65.1157H3.91099C3.72099 65.7357 3.75099 66.4657 3.99099 67.0957C4.65099 67.1157 5.32099 67.1357 5.98099 67.1657L66.161 69.1257Z" fill="#1E1E1E"/>
<path d="M9.05107 11.0256C6.58107 11.1856 4.09107 11.3856 1.61107 11.6156C1.01107 11.6756 0.861066 12.2656 0.821066 12.5156C0.761066 12.9056 0.841066 13.3856 1.11107 13.5356C1.41107 13.7056 1.61107 14.0456 1.63107 14.4456C2.40107 27.5256 2.48107 40.7756 1.87107 53.8156C1.85107 54.2556 2.00107 54.4256 2.11107 54.5156C2.36107 54.7056 2.75107 54.7156 3.05107 54.5356C3.32107 54.3756 3.47107 54.0856 3.49107 53.6956C4.10107 40.7256 4.01107 27.5556 3.25107 14.5556C3.21107 13.9556 3.59107 13.4356 4.10107 13.3956C5.78107 13.2556 7.46107 13.1356 9.14107 13.0256C8.89107 12.4256 8.86107 11.6756 9.05107 11.0256Z" fill="#1E1E1E"/>
<path d="M34.731 12.7355C35.221 12.7555 35.721 12.7855 36.211 12.8155C36.521 12.2655 36.611 11.5555 36.501 10.8955C35.831 10.8555 35.161 10.8155 34.481 10.7855C31.901 10.6655 29.311 10.5955 26.731 10.5655C23.271 10.5255 19.821 10.5555 16.361 10.6755C13.951 10.7555 11.501 10.8755 9.04104 11.0355C8.85104 11.6855 8.88104 12.4255 9.13104 13.0255C12.611 12.8055 16.081 12.6455 19.561 12.5655C24.621 12.4555 29.681 12.5155 34.731 12.7355Z" fill="#1E1E1E"/>
<path d="M69.4509 16.8457C69.4209 16.8157 69.3809 16.7757 69.3409 16.7457C68.9209 16.3757 68.4309 16.0957 67.9609 15.8457C67.3509 15.5257 66.7109 15.2857 66.0709 15.0457C64.1809 14.3357 62.2709 13.7957 60.3409 13.2857C58.4409 12.7857 56.5009 12.6357 54.5709 12.4257C52.5509 12.2057 50.5309 12.0157 48.5009 11.8457C46.5009 11.6757 44.4909 11.5357 42.4909 11.3657C40.5009 11.1957 38.5109 11.0257 36.5209 10.8557C36.5909 11.5257 36.4809 12.2157 36.2109 12.8057C36.2609 12.6857 37.5109 12.8857 37.6709 12.8957C38.1809 12.9257 38.6809 12.9657 39.1909 13.0057C40.1609 13.0757 41.1309 13.1557 42.0909 13.2457C44.1009 13.4257 46.1009 13.6357 48.1009 13.8857C52.1009 14.3857 56.1009 15.0157 60.0709 15.7957C61.5009 16.0757 62.9309 16.3857 64.3609 16.6857C64.7809 16.7757 65.2209 16.8157 65.6309 16.9457C66.1109 17.0957 66.5909 17.2657 67.0809 17.3557C67.1109 17.3657 67.1409 17.3657 67.1709 17.3757C67.6409 17.5057 67.9409 18.0357 67.8709 18.6057C67.1009 24.4057 67.0109 30.2657 66.9809 35.7757C66.9609 40.0257 66.9309 44.2757 66.9109 48.5257L66.8709 55.6057C66.8709 55.9657 66.9709 56.2157 67.1909 56.3757C67.4609 56.5657 67.8609 56.5657 68.1409 56.3757C68.3709 56.2157 68.4809 55.9657 68.4809 55.5957L68.5909 36.2557C68.6109 31.4357 68.6509 26.5957 69.1109 21.8057C69.2409 20.4457 69.4309 19.0957 69.6109 17.7457C69.6809 17.3257 69.6709 17.0857 69.4509 16.8457Z" fill="#1E1E1E"/>
<path d="M5.49072 17.9256C5.49072 19.0056 6.01072 20.0956 7.18072 20.0956C8.35072 20.0956 8.87072 19.0056 8.87072 17.9256C8.87072 16.8456 8.35072 15.7556 7.18072 15.7556C6.01072 15.7556 5.49072 16.8456 5.49072 17.9256ZM7.22072 19.0356C6.04072 19.0356 6.04072 16.7656 7.22072 16.7656C8.40072 16.7656 8.40072 19.0356 7.22072 19.0356Z" fill="#1E1E1E"/>
<path d="M7.22079 19.0356C8.40079 19.0356 8.40079 16.7656 7.22079 16.7656C6.04079 16.7656 6.03079 19.0356 7.22079 19.0356ZM7.18079 17.3656C7.34079 17.3656 7.56079 17.3656 7.56079 17.9256C7.56079 18.4856 7.33079 18.4856 7.18079 18.4856C7.02079 18.4856 6.80079 18.4856 6.80079 17.9256C6.80079 17.3656 7.02079 17.3656 7.18079 17.3656Z" fill="#1E1E1E"/>
<path d="M14.0607 16.5757C13.9907 16.3257 13.8807 16.1257 13.7307 15.9457L13.7007 15.9057C13.5507 15.7157 13.3907 15.5857 13.1907 15.5157C13.1607 15.5057 13.1207 15.4857 13.0907 15.4657C12.9307 15.3657 12.7607 15.3157 12.5807 15.3057H12.5307L12.0307 15.3857L11.9107 15.4157C11.6907 15.5057 11.4907 15.6457 11.3107 15.8457L10.9707 16.3457L10.9007 16.4757C10.7707 16.7957 10.7007 17.1257 10.7007 17.4857V17.8257C10.6907 18.1557 10.7307 18.4057 10.8407 18.6457C10.8507 18.6757 10.8707 18.7157 10.8807 18.7557C10.9507 19.0057 11.0607 19.2057 11.2507 19.4157C11.3907 19.6057 11.5607 19.7257 11.7607 19.8157C11.7907 19.8257 11.8207 19.8457 11.8607 19.8657C12.0207 19.9657 12.1807 20.0157 12.3607 20.0257H12.4107L12.9107 19.9457L13.0307 19.9157C13.2507 19.8257 13.4507 19.6857 13.6307 19.4957L13.9707 18.9857L14.0407 18.8557C14.1707 18.5357 14.2407 18.2057 14.2407 17.8457V17.5057C14.2507 17.1757 14.2007 16.9257 14.1007 16.6857C14.0907 16.6457 14.0807 16.6157 14.0607 16.5757ZM12.6107 18.7457C11.4307 18.7457 11.4307 16.4757 12.6107 16.4757C13.7907 16.4757 13.7907 18.7457 12.6107 18.7457Z" fill="#1E1E1E"/>
<path d="M12.6111 16.4756C11.4311 16.4756 11.4311 18.7456 12.6111 18.7456C13.7911 18.7456 13.7911 16.4756 12.6111 16.4756ZM12.9411 17.4756V17.8456C12.9411 17.9256 12.9311 17.9856 12.9111 18.0556L12.7511 18.3156C12.7311 18.3356 12.7011 18.3556 12.6811 18.3656L12.4111 18.4056C12.3411 18.3656 12.2611 18.3256 12.1911 18.2956C12.1711 18.2656 12.1411 18.2356 12.1211 18.2056C12.0911 18.1056 12.0611 18.0156 12.0211 17.9156C12.0211 17.9056 12.0211 17.8856 12.0211 17.8556V17.4856C12.0211 17.4056 12.0311 17.3456 12.0511 17.2756L12.2111 17.0156C12.2311 16.9956 12.2611 16.9756 12.2811 16.9656L12.5511 16.9256C12.6211 16.9656 12.7011 17.0056 12.7711 17.0356C12.7911 17.0656 12.8111 17.0956 12.8411 17.1156C12.8711 17.2156 12.9011 17.3156 12.9411 17.4056C12.9411 17.4256 12.9411 17.4456 12.9411 17.4756Z" fill="#1E1E1E"/>
<path d="M16.5211 16.1356C16.2411 16.5256 16.0811 17.0856 16.0811 17.6656C16.0811 18.7456 16.6011 19.8356 17.7711 19.8356C18.9411 19.8356 19.4611 18.7456 19.4611 17.6656C19.4611 16.5856 18.9411 15.4956 17.7711 15.4956C17.2511 15.4956 16.8311 15.7056 16.5211 16.1356ZM17.8811 18.7456C16.7011 18.7456 16.7011 16.4756 17.8811 16.4756C19.0711 16.4756 19.0611 18.7456 17.8811 18.7456Z" fill="#1E1E1E"/>
<path d="M17.8811 18.7456C19.0611 18.7456 19.0611 16.4756 17.8811 16.4756C16.7011 16.4756 16.7011 18.7456 17.8811 18.7456ZM17.5111 17.1956C17.5311 17.1756 17.5811 17.1056 17.7811 17.1056C17.9411 17.1056 18.1611 17.1056 18.1611 17.6656C18.1611 18.2256 17.9311 18.2256 17.7811 18.2256C17.6211 18.2256 17.4011 18.2256 17.4011 17.6656C17.3911 17.4356 17.4511 17.2656 17.5111 17.1956Z" fill="#1E1E1E"/>
<path d="M61.9607 9.90563C61.8007 10.6056 62.1507 11.0556 62.5207 11.2356C64.7607 12.3156 67.1507 13.0556 69.6307 13.4256C69.7607 13.4456 69.8907 13.4656 70.0207 13.4756L70.3407 13.5156C70.6907 13.5656 70.9507 13.9256 70.9407 14.3356L70.7307 19.6456C70.7207 19.9156 70.8207 20.2056 70.9907 20.4256C71.0607 20.5056 71.2107 20.6956 71.4307 20.6956C71.4407 20.6956 71.4607 20.6956 71.4707 20.6956C71.8807 20.6956 72.3307 20.3556 72.3507 19.7356L72.4307 17.6256C72.4707 16.6156 72.5107 15.6056 72.5507 14.5956C72.5907 13.5856 72.4907 13.0256 72.1907 12.5056C71.8907 11.9856 71.4107 11.6956 70.5907 11.5356C70.1407 11.4456 69.7307 11.3756 69.3307 11.3156C68.5407 11.1856 67.8007 11.0656 66.9507 10.8156C65.6007 10.4256 64.2507 9.90563 62.9207 9.26563C62.8707 9.24563 62.8207 9.23563 62.7607 9.22563C62.6407 9.21563 62.5107 9.25563 62.3807 9.33563C62.1707 9.47563 62.0107 9.68563 61.9607 9.90563Z" fill="#1E1E1E"/>
<path d="M5.88074 72.0057C5.45074 72.0457 5.01074 72.3958 5.01074 72.9958C5.01074 73.2558 5.13074 73.5657 5.31074 73.7657C5.39074 73.8557 5.55074 74.0057 5.75074 73.9857C8.21074 73.7857 10.6907 73.6758 13.1607 73.6758C15.7607 73.6758 18.3507 73.7857 20.9307 74.0157C21.1207 74.0257 21.2807 73.8857 21.3607 73.7957C21.5507 73.5857 21.6707 73.2857 21.6707 73.0257C21.6707 72.3957 21.2307 72.0757 20.8007 72.0357C15.8607 71.6057 10.8407 71.5957 5.88074 72.0057Z" fill="#1E1E1E"/>
<path d="M62.4208 54.9256C62.3208 55.0456 62.2108 55.1456 62.0908 55.2256C62.5708 55.1856 62.6808 55.0856 62.6808 55.0856C62.6908 55.0456 62.6808 54.7556 62.6608 54.5156C62.6108 54.6656 62.5208 54.8056 62.4208 54.9256Z" fill="#1E1E1E"/>
<path d="M63.3907 47.9457C63.1307 47.6357 62.9107 47.5857 62.7407 47.6357C62.2807 47.6957 61.9707 48.1057 61.9307 48.7157C61.8607 49.8057 61.8307 50.8857 61.8307 51.9257C61.8307 52.4357 61.8407 52.9557 61.8607 53.4657C61.8607 53.5357 61.8707 53.6057 61.8707 53.6857C61.8807 53.8357 61.8407 53.9957 61.7507 54.1057C61.6507 54.2257 61.5207 54.2957 61.4007 54.2857C61.2207 54.2657 61.0507 54.2457 60.8807 54.2257L60.3107 54.1357C59.6307 54.0357 58.8407 53.9657 58.1007 54.2457C57.8707 54.3357 57.6507 54.5557 57.5407 54.8357C57.4407 55.0657 57.4307 55.3157 57.4907 55.5357C57.5707 55.8357 57.7507 56.0957 57.9807 56.2357C58.1607 56.3457 58.3307 56.3657 58.5207 56.2957C58.6207 56.2557 58.7107 56.2257 58.8107 56.2057L58.9107 56.1757C58.9407 56.1657 58.9807 56.1657 59.0307 56.1657C59.1807 56.1557 59.4007 56.1457 59.6307 56.1657C59.8207 56.1757 60.0107 56.2057 60.2007 56.2257L60.9107 56.3357C61.2307 56.3857 61.5407 56.4257 61.8507 56.4257C61.9107 56.4257 61.9707 56.4257 62.0307 56.4157C62.6007 56.3857 63.2307 56.2757 63.4907 55.7357C63.6907 55.3257 63.6507 54.8457 63.6107 54.2957C63.6007 54.1657 63.5907 54.0457 63.5907 53.9157C63.5607 53.3557 63.5507 52.7757 63.5407 52.2057C63.5307 51.0557 63.5607 49.8557 63.6407 48.6557C63.6507 48.4057 63.5607 48.1557 63.3907 47.9457ZM63.1107 53.9257C63.1207 54.0557 63.1207 54.1857 63.1307 54.3157C63.1707 54.8357 63.1807 55.1757 63.0707 55.4157C62.9607 55.6557 62.6207 55.7757 62.0007 55.8157C61.6607 55.8357 61.3007 55.7857 60.9607 55.7357L60.2607 55.6257C60.0607 55.5957 59.8607 55.5757 59.6607 55.5557C59.5607 55.5457 59.4507 55.5457 59.3607 55.5457C59.2307 55.5457 59.1107 55.5557 59.0107 55.5557C58.9407 55.5557 58.8807 55.5657 58.8107 55.5857C58.8007 55.5857 58.7907 55.5957 58.7807 55.5957L58.7007 55.6257C58.5907 55.6557 58.4907 55.6857 58.3807 55.7257C58.3407 55.7357 58.2807 55.7557 58.1907 55.6957C58.0807 55.6257 57.9807 55.4857 57.9407 55.3357C57.8807 55.1257 58.0607 54.8557 58.2507 54.7857C58.9107 54.5357 59.6407 54.6057 60.2707 54.6957L60.8407 54.7857C61.0207 54.8157 61.2007 54.8357 61.3907 54.8557C61.6607 54.8857 61.9207 54.7357 62.1107 54.5157C62.3007 54.2857 62.3907 53.9457 62.3707 53.6357C62.3607 53.5757 62.3607 53.5057 62.3607 53.4457C62.3407 52.9357 62.3307 52.4357 62.3307 51.9257C62.3307 50.9057 62.3607 49.8357 62.4307 48.7657C62.4507 48.4157 62.5907 48.2257 62.8507 48.2157C62.9007 48.1857 62.9907 48.2557 63.0807 48.3657C63.1607 48.4657 63.1907 48.5657 63.1807 48.6057C63.1007 49.8257 63.0707 51.0357 63.0807 52.2057C63.0707 52.7757 63.0807 53.3557 63.1107 53.9257Z" fill="#1E1E1E"/>
<path d="M63.1609 48.5957C63.1609 48.5557 63.1409 48.4557 63.0609 48.3557C62.9709 48.2457 62.8809 48.1757 62.8309 48.2057C62.5709 48.2157 62.4309 48.4057 62.4109 48.7557C62.3409 49.8257 62.3109 50.8857 62.3109 51.9157C62.3109 52.4257 62.3209 52.9257 62.3409 53.4357C62.3409 53.5057 62.3509 53.5657 62.3509 53.6257C62.3709 53.9457 62.2809 54.2857 62.0909 54.5057C61.9009 54.7357 61.6409 54.8757 61.3709 54.8457C61.1909 54.8257 61.0109 54.8057 60.8209 54.7757L60.2509 54.6857C59.6209 54.5857 58.8909 54.5157 58.2309 54.7757C58.0409 54.8457 57.8609 55.1157 57.9209 55.3257C57.9609 55.4757 58.0609 55.6157 58.1709 55.6857C58.2609 55.7357 58.3209 55.7257 58.3609 55.7157C58.4709 55.6757 58.5709 55.6457 58.6809 55.6157L58.7609 55.5857C58.7709 55.5857 58.7809 55.5757 58.7909 55.5757C58.8509 55.5557 58.9209 55.5457 58.9909 55.5457C59.0909 55.5357 59.2109 55.5357 59.3409 55.5357C59.4309 55.5357 59.5409 55.5357 59.6409 55.5457C59.8409 55.5557 60.0409 55.5857 60.2409 55.6157L60.9409 55.7257C61.2809 55.7757 61.6409 55.8257 61.9809 55.8057C62.6009 55.7757 62.9409 55.6457 63.0509 55.4057C63.1609 55.1657 63.1509 54.8357 63.1109 54.3057C63.1009 54.1757 63.0909 54.0457 63.0909 53.9157C63.0609 53.3357 63.0509 52.7557 63.0409 52.1757C63.0509 51.0257 63.0809 49.8057 63.1609 48.5957ZM62.6909 55.0857C62.6909 55.0857 62.5809 55.1857 62.1009 55.2257C62.2209 55.1457 62.3309 55.0457 62.4309 54.9257C62.5309 54.8057 62.6109 54.6657 62.6809 54.5157C62.6909 54.7557 62.7009 55.0457 62.6909 55.0857Z" fill="#1E1E1E"/>
<path d="M72.2911 25.1757C71.7611 25.4757 71.2111 25.6457 70.6411 25.7457C70.1211 25.8357 69.9911 26.7657 70.3411 27.1657C70.5611 27.4257 70.7911 27.6457 71.0411 27.8457C70.7811 27.9757 70.5211 28.1057 70.2511 28.2057C69.6611 28.4257 69.6011 29.3557 70.0911 29.7557C70.4011 30.0257 70.7211 30.2857 71.0311 30.5557C71.0611 30.5857 71.0911 30.6157 71.1211 30.6457C70.5911 30.9057 70.1211 31.2857 69.7211 31.7957C69.3811 32.2157 69.5011 32.8157 69.8611 33.1257L71.2411 34.3557C70.7411 34.8557 70.2411 35.3557 69.7511 35.8457C69.5211 36.0757 69.5011 36.5757 69.6411 36.8757C69.9711 37.5857 70.4111 38.2057 70.9411 38.6857C70.5911 38.9557 70.3511 39.3857 70.3511 39.9157C70.3511 40.5357 70.6811 41.1557 70.9011 41.6857C71.0311 41.9857 71.1711 42.2857 71.3111 42.5757C70.9111 42.6657 70.5211 42.7757 70.1311 42.8957C69.7111 43.0257 69.4811 43.6857 69.7211 44.1457C69.9811 44.6357 70.2411 45.1257 70.5011 45.6157C70.5811 45.7657 70.8411 46.1457 71.0011 46.4557C70.8811 46.5057 70.7611 46.5457 70.6811 46.5757C70.4311 46.6957 70.1711 46.8157 69.9211 46.9357C69.4911 47.1357 69.2911 47.6557 69.5111 48.1857C70.0911 49.5957 70.7811 50.9057 71.5811 52.1457C72.1311 53.0057 73.1011 51.7957 72.5511 50.9457C72.0111 50.0957 71.5211 49.1957 71.1011 48.2457C71.7911 47.9657 72.5311 47.5657 72.5411 46.7257C72.5411 46.1057 72.1411 45.5757 71.8811 45.0757C71.7411 44.8057 71.5911 44.5357 71.4511 44.2557C71.8511 44.1557 72.2511 44.0657 72.6511 43.9957C73.0811 43.9157 73.2911 43.1657 73.0611 42.7457C72.7911 42.2657 72.5311 41.7657 72.3011 41.2557C72.2011 41.0357 72.1011 40.8157 72.0111 40.5857C71.9511 40.4357 71.8911 40.2857 71.8311 40.1357C71.8211 40.0957 71.8211 40.0657 71.8111 40.0357C71.8311 40.0257 71.8511 40.0157 71.8711 40.0057C71.9911 39.9357 72.1311 39.8857 72.2511 39.8057C72.5111 39.6357 72.7411 39.3957 72.8611 39.0557C72.9911 38.6757 72.9911 38.0857 72.6111 37.8957C72.0311 37.5957 71.5511 37.1657 71.1711 36.5957C71.7311 36.0357 72.3011 35.4657 72.8611 34.9057C73.2411 34.5257 73.0411 33.8557 72.7211 33.5757C72.2711 33.1757 71.8311 32.7757 71.3811 32.3757C71.5511 32.2657 71.7311 32.1757 71.9311 32.0857C72.3611 31.8957 72.7311 31.5957 72.8211 31.0057C72.9411 30.2557 72.4911 29.6657 71.9611 29.1857C72.2611 29.0057 72.5611 28.8057 72.8511 28.5857C73.3911 28.1657 73.2311 27.2957 72.6911 27.0357C72.6111 26.9957 72.5411 26.9557 72.4711 26.9057C72.6511 26.8157 72.8411 26.7257 73.0211 26.6257C73.7911 26.1957 73.0911 24.7257 72.2911 25.1757Z" fill="#00A99D"/>
<path d="M29.6608 5.55555L27.7308 1.58555C27.4708 1.04555 26.8508 0.935547 26.4808 1.38555C25.7208 2.32555 24.9408 3.21555 24.1408 4.09555C23.7008 3.12555 23.2608 2.15555 22.8308 1.18555C22.5808 0.635547 21.9308 0.545547 21.5808 0.985547C20.7008 2.09555 19.7508 3.07555 18.7108 3.93555C18.3208 2.86555 17.9308 1.80555 17.5408 0.735547C17.3408 0.195547 16.5908 0.0755468 16.2908 0.535547C15.4208 1.89555 14.4208 3.06555 13.2908 4.06555C12.8008 2.98555 12.3408 1.88555 11.9608 0.725547C11.7508 0.0955468 11.0708 -0.304453 10.6308 0.295547C9.42076 1.96555 8.11076 3.47555 6.68076 4.84555C5.87076 5.62555 7.00077 6.99555 7.80077 6.23555C8.92077 5.16555 9.96076 4.00555 10.9408 2.75555C11.3508 3.86555 11.8108 4.94555 12.3308 5.99555C12.5508 6.43555 13.0508 6.63555 13.4208 6.34555C14.6108 5.40555 15.6808 4.30555 16.6308 3.03555C16.9808 3.98555 17.3208 4.93555 17.6708 5.88555C17.8408 6.36555 18.4208 6.48555 18.7608 6.23555C19.9008 5.37555 20.9608 4.38555 21.9408 3.27555C22.3708 4.22555 22.8008 5.18555 23.2408 6.13555C23.5008 6.72555 24.1108 6.73555 24.4908 6.33555C25.3108 5.46555 26.1008 4.56555 26.8808 3.63555L28.3008 6.53555C28.8108 7.61555 30.1808 6.63555 29.6608 5.55555Z" fill="#1E1E1E"/>
<path d="M41.695 32.7558C42.4827 34.0363 42.9175 35.5023 42.9553 37.0052C42.9931 38.508 42.6327 39.9942 41.9105 41.3127C41.5745 41.9413 41.0968 42.483 40.5151 42.8949C39.9334 43.3068 39.2638 43.5775 38.5593 43.6857C36.963 43.9862 35.3163 43.8688 33.7787 43.3451C33.5242 43.2572 33.2826 43.1525 33.0336 43.0366C34.2877 44.0244 35.873 44.4934 37.4626 44.3466C38.961 44.2294 40.3816 43.6316 41.5129 42.6421C42.6443 41.6526 43.4261 40.3243 43.7418 38.8548C44.2137 36.3578 43.0555 33.5173 41.1656 31.7569C41.0341 31.6346 40.9008 31.5217 40.7619 31.4125C40.623 31.3033 40.6268 31.309 40.5592 31.2572C40.9906 31.7145 41.3714 32.217 41.695 32.7558Z" fill="#00A99D"/>
<path d="M34.3369 31.9321C34.3525 32.0394 34.3463 32.149 34.319 32.2539C34.2917 32.3589 34.2438 32.4572 34.178 32.5434C34.1121 32.6295 34.03 32.7017 33.9359 32.7556C33.8418 32.8095 33.7378 32.8441 33.6302 32.8573C33.0771 32.9921 32.5574 33.2385 32.1029 33.5813C31.6484 33.9242 31.2689 34.3563 30.9873 34.8511C30.7058 35.346 30.5283 35.8929 30.4658 36.4588C30.4033 37.0246 30.457 37.5974 30.6237 38.1418C31.2694 40.297 33.3434 41.6809 35.4103 42.0214C36.6109 42.2482 37.8495 42.1652 39.0092 41.7802C40.0424 41.3737 40.6283 40.2459 40.9666 39.2207C41.2988 38.1569 41.3686 37.0285 41.1699 35.9318C40.9713 34.8351 40.5101 33.8029 39.8258 32.9232C38.773 31.5472 37.0385 30.3886 35.3349 30.4768C34.7577 30.6805 34.1919 30.9251 33.6391 31.1529C33.8178 31.2024 33.9785 31.3022 34.1022 31.4403C34.2258 31.5784 34.3073 31.7491 34.3369 31.9321ZM34.4265 36.0157C34.6371 36.5151 34.9032 36.9892 35.22 37.4289C35.386 37.6742 35.5799 37.9006 35.7737 38.127C35.7923 38.1496 35.8086 38.1738 35.8227 38.1994L35.9008 38.1466L36.4092 37.697L37.3866 36.8C38.0246 36.2058 38.6554 35.6004 39.2783 34.9838C39.4217 34.8168 39.6253 34.7132 39.8447 34.6956C40.0642 34.6781 40.2817 34.7478 40.4499 34.8899C40.6256 35.033 40.7399 35.2379 40.7695 35.4626C40.7992 35.6872 40.7419 35.9147 40.6094 36.0984C39.3023 37.3972 37.9819 38.6888 36.5714 39.8707C36.4721 39.9645 36.3553 40.0377 36.2276 40.0862C36.0999 40.1347 35.9638 40.1574 35.8273 40.1531C35.6907 40.1489 35.5564 40.1177 35.4319 40.0614C35.3075 40.005 35.1952 39.9246 35.102 39.8247C34.7815 39.5189 34.4802 39.1936 34.1995 38.8509C33.6594 38.1732 33.2117 37.4268 32.8683 36.6312C32.8241 36.5298 32.8002 36.4208 32.7982 36.3102C32.7963 36.1996 32.8162 36.0897 32.8567 35.9867C32.8973 35.8838 32.9578 35.7898 33.0347 35.7102C33.1116 35.6307 33.2034 35.5672 33.3049 35.5232C33.5195 35.4491 33.7542 35.4586 33.9621 35.5499C34.17 35.6412 34.3359 35.8075 34.4265 36.0157Z" fill="#00A99D"/>
<path d="M30.6737 39.7414C29.813 37.2685 30.3904 34.879 31.509 32.7733C32.0578 32.0673 32.7874 31.5229 33.6206 31.1981L33.654 31.1755C33.5703 31.1541 33.4828 31.1521 33.3982 31.1698C32.0472 31.4381 30.8383 32.1848 29.9937 33.2728C29.149 34.3608 28.725 35.7171 28.8001 37.0925C28.9004 38.3776 29.3486 39.6112 30.0962 40.6613C30.8439 41.7113 31.8631 42.5381 33.0447 43.0534C31.9462 42.2063 31.1214 41.0544 30.6737 39.7414Z" fill="#1E1E1E"/>
<path d="M40.5626 31.2631C38.7856 29.3694 36.1643 28.2095 33.7529 29.0529C32.7492 29.4069 33.408 31.017 34.4117 30.6629C34.7121 30.5613 35.0253 30.5026 35.342 30.4886C36.1242 30.177 36.968 30.0512 37.8071 30.1209C38.8112 30.2484 39.7627 30.6428 40.5626 31.2631Z" fill="#1E1E1E"/>
<path d="M39.8332 32.9346C40.5175 33.8143 40.9787 34.8465 41.1773 35.9432C41.376 37.0399 41.3062 38.1683 40.974 39.2321C40.6432 40.2685 40.0498 41.3851 39.0166 41.7916C37.8569 42.1766 36.6183 42.2596 35.4177 42.0328C33.3508 41.6923 31.2545 40.3235 30.6311 38.1532C30.4644 37.6088 30.4107 37.036 30.4732 36.4702C30.5357 35.9043 30.7131 35.3572 30.9947 34.8624C31.2762 34.3676 31.6558 33.9356 32.1103 33.5927C32.5648 33.2499 33.0845 33.0035 33.6376 32.8687C33.7452 32.8555 33.8492 32.8209 33.9433 32.767C34.0374 32.713 34.1195 32.6409 34.1854 32.5548C34.2512 32.4686 34.2991 32.3703 34.3264 32.2653C34.3537 32.1604 34.3599 32.0508 34.3443 31.9435C34.3134 31.7634 34.2321 31.5958 34.11 31.4599C33.9878 31.324 33.8298 31.2254 33.654 31.1754L33.6206 31.1981C32.7875 31.5228 32.0578 32.0672 31.509 32.7732C30.3904 34.8789 29.8298 37.2571 30.6737 39.7414C31.1215 41.0568 31.9477 42.2108 33.0485 43.0589C33.2938 43.1692 33.5354 43.2739 33.7936 43.3673C35.3312 43.891 36.9779 44.0085 38.5742 43.708C39.2787 43.5998 39.9484 43.329 40.53 42.9171C41.1117 42.5052 41.5895 41.9635 41.9255 41.335C42.6477 40.0165 43.0081 38.5303 42.9703 37.0274C42.9324 35.5245 42.4976 34.0586 41.71 32.7781C41.3872 32.2413 41.0077 31.7407 40.578 31.285C39.7781 30.6647 38.8265 30.2702 37.8224 30.1427C36.9833 30.073 36.1396 30.199 35.3574 30.5105C37.0237 30.4151 38.7804 31.5586 39.8332 32.9346Z" fill="#1E1E1E"/>
<path d="M33.3274 35.5084C33.2259 35.5524 33.134 35.6159 33.0571 35.6954C32.9802 35.7749 32.9198 35.869 32.8792 35.9719C32.8386 36.0748 32.8188 36.1848 32.8207 36.2954C32.8227 36.406 32.8465 36.515 32.8907 36.6164C33.2342 37.412 33.6819 38.1584 34.222 38.8361C34.5027 39.1788 34.804 39.504 35.1245 39.8099C35.2177 39.9098 35.33 39.9902 35.4544 40.0465C35.5789 40.1029 35.7132 40.134 35.8498 40.1383C35.9863 40.1426 36.1224 40.1199 36.2501 40.0714C36.3778 40.0229 36.4946 39.9497 36.5939 39.8559C37.9893 38.6517 39.3248 37.3824 40.6318 36.0836C40.7644 35.8998 40.8216 35.6724 40.792 35.4477C40.7623 35.2231 40.6478 35.0183 40.4721 34.8752C40.3039 34.7332 40.0866 34.6632 39.8672 34.6808C39.6477 34.6984 39.4439 34.8022 39.3005 34.9692C38.6776 35.5857 38.0471 36.191 37.4091 36.7852L36.4317 37.6822L35.9233 38.1317L35.8451 38.1846C35.8311 38.1589 35.8147 38.1347 35.7962 38.1122C35.6023 37.8858 35.414 37.6556 35.2425 37.4141C34.9257 36.9744 34.6596 36.5003 34.449 36.0009C34.3584 35.7927 34.1925 35.6264 33.9846 35.5351C33.7767 35.4437 33.542 35.4342 33.3274 35.5084Z" fill="#1E1E1E"/>
</svg>
