<svg width="80" height="80" viewBox="0 0 80 80" fill="none" xmlns="http://www.w3.org/2000/svg">
<path d="M15.3507 11.3471L15.7612 11.623L16.3333 12.0603C17.2253 12.8086 18.2062 13.4439 19.254 13.9515L20.3309 13.467C20.1694 13.5006 20.0146 13.5411 19.8531 13.5613C19.1262 13.6757 18.5069 13.0632 17.982 12.6257C17.2481 12.0368 16.5558 11.3981 15.9094 10.7143C15.7911 10.5982 15.6371 10.5253 15.4723 10.507C15.3076 10.4887 15.1416 10.5261 15.0008 10.6134C14.9137 10.6725 14.8398 10.7491 14.7842 10.8384C14.7286 10.9276 14.6924 11.0275 14.6777 11.1317C14.9184 11.1358 15.1524 11.2107 15.3507 11.3471Z" fill="#00A99D"/>
<path d="M26.0446 12.5452C26.2802 11.8386 25.4526 11.3944 24.9277 11.677C24.7258 11.7914 24.5172 11.8857 24.3086 11.9933C24.5204 12.0443 24.7164 12.1459 24.8804 12.2894C25.0107 12.4201 25.0937 12.5907 25.116 12.774C25.1825 13.7783 25.0545 14.7862 24.739 15.742C24.5887 16.2691 24.4786 16.8067 24.4094 17.3504C24.4152 17.3838 24.4152 17.4179 24.4094 17.4513C24.3691 17.6532 24.322 17.8417 24.2816 17.9965L24.1738 18.4408L25.8968 20.5404L26.2533 20.9308C26.6778 21.3293 27.0268 21.8012 27.2832 22.3238C27.3988 22.2684 27.4994 22.1863 27.577 22.0841C27.6545 21.982 27.7068 21.8629 27.7291 21.7366C27.7515 21.6103 27.7436 21.4804 27.7058 21.3579C27.668 21.2353 27.6015 21.1235 27.5119 21.0317C26.9382 20.4465 26.3989 19.8286 25.8968 19.181C25.6377 18.8514 25.3971 18.5076 25.1764 18.1513C25.0259 17.8418 24.988 17.4897 25.069 17.1552C25.2243 15.5874 25.5514 14.0415 26.0446 12.5452Z" fill="#00A99D"/>
<path d="M15.2363 16.6101C15.2019 16.7624 15.1474 16.9096 15.0746 17.0477C15.1486 18.7235 13.7287 19.7396 12.4904 20.6549L11.8174 21.1329C11.9503 21.24 12.1118 21.3054 12.2817 21.3212C13.0153 21.3817 13.7487 21.4626 14.4756 21.5635L15.5928 21.7385L16.1515 21.8326L16.4272 21.8865H16.5149V21.9404L16.6158 22.2365C16.6764 22.4317 16.7435 22.6268 16.8041 22.8287C16.932 23.219 17.0533 23.6161 17.1745 24.0064C17.4302 24.8208 17.6725 25.6419 17.9014 26.463C17.9479 26.6236 18.0449 26.7647 18.1784 26.8654C18.3118 26.9661 18.4742 27.021 18.6414 27.0216L20.3913 23.9392C20.4165 23.8919 20.4457 23.8469 20.4787 23.8047C20.5463 23.712 20.6255 23.6282 20.7143 23.5556C20.8085 23.3806 20.9096 23.2056 21.0173 23.0373C21.2259 22.7345 21.3201 22.7817 21.6903 22.7547L25.6274 22.4789C25.4726 22.2904 25.2841 22.0884 25.1832 21.9807C25.0822 21.873 24.9004 21.6779 24.7793 21.5298L23.0159 19.383C22.8693 19.2056 22.7669 18.9961 22.7166 18.7716C22.6663 18.547 22.6698 18.3138 22.7268 18.0909L22.8477 17.5928C22.8813 17.4515 22.922 17.2831 22.9624 17.1014C23.0391 16.4982 23.1627 15.9019 23.3324 15.318C23.4978 14.7482 23.6125 14.1649 23.6755 13.5749L19.7252 15.3584C19.5246 15.4478 19.3045 15.4848 19.0857 15.4661C19.0259 15.4597 18.9673 15.4461 18.9109 15.4256C17.6661 14.8785 16.5073 14.1531 15.4716 13.272L14.9333 12.8616L14.8525 12.8145L15.0947 14.3287C15.2852 15.0735 15.3334 15.8475 15.2363 16.6101ZM16.4407 16.5362C16.4196 16.3433 16.4702 16.1494 16.5823 15.991C16.6341 15.9081 16.7032 15.8374 16.7851 15.784C16.8669 15.7305 16.9591 15.6955 17.0558 15.6815C17.1526 15.6674 17.2513 15.6746 17.345 15.7025C17.4387 15.7304 17.5251 15.7783 17.5984 15.843C18.0183 16.1774 18.5356 16.3664 19.0722 16.3814C19.7296 16.3465 20.3701 16.1598 20.9434 15.8362C21.0273 15.7981 21.118 15.7776 21.2102 15.7761C21.3024 15.7746 21.3941 15.792 21.4793 15.8274C21.5645 15.8627 21.6417 15.9151 21.7057 15.9815C21.7698 16.0478 21.8193 16.1268 21.8517 16.2132C21.9056 16.3425 21.9253 16.4835 21.9088 16.6226C21.8923 16.7617 21.8404 16.8942 21.7577 17.0073C21.7061 17.0827 21.6396 17.1468 21.5625 17.1957L21.4816 17.2429C20.6978 17.6809 19.8154 17.9125 18.9174 17.9159C18.1076 17.8667 17.3334 17.5654 16.7032 17.0544C16.5529 16.9214 16.4589 16.7361 16.4407 16.5362Z" fill="#00A99D"/>
<path d="M26.9935 22.4045L25.6475 22.4986C25.725 22.5837 25.7968 22.6737 25.8628 22.7679C25.7483 22.9968 25.2638 23.0371 24.3485 23.0438C23.8151 23.0197 23.281 23.0672 22.7603 23.1851L21.5086 23.266C21.2314 23.2888 20.968 23.3969 20.7548 23.5755C20.6471 23.7774 20.5531 23.9792 20.4521 24.1744C20.0685 24.9955 19.6982 25.8234 19.3213 26.6444C19.2665 26.7668 19.1763 26.8699 19.0624 26.9407C18.9485 27.0114 18.8159 27.0465 18.6819 27.0414L18.1502 27.977C17.89 27.0556 17.5594 26.1556 17.161 25.285C16.9322 24.7533 16.6967 24.2014 16.488 23.6159C16.408 23.4083 16.2812 23.2217 16.1177 23.0708C15.9533 22.9214 15.7545 22.8151 15.539 22.7612L11.1779 21.6978L11.427 21.4824C11.5482 21.3747 11.6894 21.2603 11.8375 21.1459C11.7712 21.0982 11.7142 21.0389 11.6692 20.9709C11.5386 20.9118 11.4259 20.8192 11.3426 20.7026C11.2592 20.5859 11.208 20.4493 11.1944 20.3066C11.1807 20.1639 11.2049 20.0201 11.2647 19.8898C11.3244 19.7594 11.4178 19.6473 11.5348 19.5644C12.3044 19.0633 13.0993 18.6028 13.9169 18.1847C14.3978 17.9246 14.7967 17.5354 15.0681 17.0609C15.0713 17.0228 15.0713 16.9844 15.0681 16.9464L14.7247 12.7401L14.8729 12.8479L14.6642 11.5019C14.644 11.377 14.644 11.2497 14.6642 11.1249C14.3981 11.1125 14.1346 11.1831 13.9104 11.3269C13.6917 11.4721 13.5166 11.674 13.404 11.9111C13.2913 12.1483 13.2453 12.4116 13.2709 12.6729L13.6343 17.0609C13.7084 17.9223 12.6721 18.6693 11.6626 19.3962C11.2454 19.699 10.8483 19.9883 10.4984 20.2979L10.128 20.6211C9.9288 20.796 9.7811 21.0217 9.70048 21.2742C9.61986 21.5268 9.60957 21.7965 9.67057 22.0545C9.72336 22.3081 9.84551 22.542 10.0238 22.7298C10.2022 22.9177 10.4296 23.052 10.6801 23.1179L15.1621 24.2014C15.3707 24.7936 15.613 25.3455 15.8351 25.9108C16.2455 26.7866 16.5724 27.6992 16.8111 28.6365C16.808 28.6701 16.808 28.7038 16.8111 28.7374C16.8987 29.0031 17.0623 29.2371 17.282 29.4104C17.4314 29.5247 17.604 29.605 17.7877 29.6457C17.9714 29.6864 18.1617 29.6865 18.3454 29.646C18.4957 29.6124 18.6393 29.5532 18.7696 29.471C18.9581 29.3477 19.1147 29.1817 19.227 28.9865L21.5894 24.8072L22.8612 24.7263C22.9117 24.7207 22.9615 24.7094 23.0094 24.6926C23.4386 24.6037 23.877 24.5676 24.315 24.585C25.2033 24.585 26.3341 24.5851 26.9331 23.7909C27.0584 23.6191 27.1497 23.4249 27.2022 23.2188C27.262 23.0819 27.2929 22.9341 27.2929 22.7847C27.2929 22.6353 27.262 22.4875 27.2022 22.3506C27.136 22.3796 27.0655 22.3979 26.9935 22.4045Z" fill="#1E1E1E"/>
<path d="M24.3086 11.9661L24.2278 11.9325C23.9706 11.8862 23.7055 11.9192 23.4674 12.0268L20.3311 13.44C21.043 13.2629 21.7422 13.038 22.424 12.767C23.0662 12.5344 23.6955 12.2671 24.3086 11.9661Z" fill="#1E1E1E"/>
<path d="M20.4384 23.9593L18.6885 27.0416C18.8225 27.0466 18.9548 27.0116 19.0687 26.9409C19.1826 26.8701 19.2727 26.767 19.3276 26.6446C19.7045 25.8236 20.0748 24.9956 20.4584 24.1746C20.5594 23.9794 20.6537 23.7776 20.7614 23.5757C20.6726 23.6483 20.5934 23.7321 20.5258 23.8248C20.4927 23.867 20.4635 23.912 20.4384 23.9593Z" fill="#1E1E1E"/>
<path d="M26.2331 20.9307L25.8762 20.5403L24.1536 18.4406L24.261 17.9964C24.3014 17.8416 24.3485 17.6531 24.3889 17.4512C24.3947 17.4178 24.3947 17.3837 24.3889 17.3503C24.458 16.8066 24.5684 16.269 24.7188 15.7419C25.0343 14.786 25.1623 13.7782 25.0957 12.7738C25.0734 12.5906 24.9905 12.42 24.8601 12.2893C24.6962 12.1457 24.4998 12.0442 24.288 11.9932C23.6754 12.3033 23.0465 12.5797 22.4037 12.821C21.7219 13.092 21.0224 13.3169 20.3104 13.494L19.2339 13.9785C18.1861 13.4709 17.2048 12.8356 16.3128 12.0874L15.741 11.65L15.3303 11.3741C15.132 11.2378 14.8979 11.1628 14.6573 11.1587C14.637 11.2835 14.637 11.4108 14.6573 11.5356L14.8659 12.8816L14.9468 12.9286L15.485 13.3392C16.5208 14.2202 17.6795 14.9457 18.9243 15.4928C18.9808 15.5133 19.0394 15.5269 19.0992 15.5332C19.3179 15.5519 19.5381 15.5148 19.7386 15.4254L23.6889 13.642C23.626 14.232 23.5113 14.8154 23.3458 15.3852C23.1762 15.9691 23.0525 16.5653 22.9758 17.1686C22.9354 17.3503 22.8948 17.5185 22.8611 17.6599L22.7402 18.1579C22.6832 18.3808 22.6797 18.614 22.73 18.8386C22.7803 19.0632 22.8828 19.2728 23.0294 19.4502L24.7927 21.597C24.9139 21.7451 25.0553 21.8931 25.1966 22.0479C25.3379 22.2026 25.4861 22.3574 25.6409 22.5459L26.9869 22.4517C27.0813 22.444 27.173 22.4164 27.256 22.3709C27.0066 21.8319 26.6598 21.3438 26.2331 20.9307Z" fill="#1E1E1E"/>
<path d="M15.0744 17.0474C14.8029 17.5219 14.4044 17.9111 13.9235 18.1712C13.1059 18.5893 12.3106 19.0498 11.5411 19.5509C11.4241 19.6337 11.331 19.7459 11.2713 19.8762C11.2116 20.0066 11.1873 20.1505 11.201 20.2933C11.2146 20.436 11.2655 20.5724 11.3488 20.6891C11.4322 20.8057 11.5452 20.8984 11.6758 20.9576C11.7208 21.0256 11.7778 21.0849 11.8441 21.1325L12.5171 20.6546C13.7419 19.7527 15.1484 18.6962 15.0744 17.0474Z" fill="#1E1E1E"/>
<path d="M18.9308 17.8888C19.8288 17.8854 20.7112 17.6538 21.495 17.2158L21.5758 17.1686C21.653 17.1197 21.7194 17.0556 21.771 16.9801C21.8537 16.8671 21.9057 16.7346 21.9222 16.5955C21.9387 16.4564 21.919 16.3153 21.865 16.186C21.8327 16.0997 21.7832 16.0209 21.7191 15.9545C21.655 15.8882 21.5779 15.8356 21.4927 15.8002C21.4075 15.7649 21.3158 15.7475 21.2236 15.749C21.1313 15.7505 21.0407 15.771 20.9567 15.8091C20.3835 16.1327 19.7429 16.3193 19.0856 16.3543C18.5489 16.3393 18.0317 16.1503 17.6118 15.8159C17.5385 15.7512 17.4521 15.7033 17.3584 15.6754C17.2647 15.6475 17.1659 15.6404 17.0692 15.6545C16.9725 15.6686 16.8803 15.7036 16.7984 15.757C16.7166 15.8105 16.6471 15.881 16.5954 15.9639C16.4795 16.1206 16.429 16.316 16.454 16.5092C16.4791 16.7025 16.578 16.8785 16.7301 17.0004C17.3532 17.5185 18.1226 17.8291 18.9308 17.8888Z" fill="#1E1E1E"/>
<path d="M31.7316 2.63809C31.7137 2.42061 31.624 2.21532 31.4765 2.05447C31.3291 1.89362 31.1324 1.78648 30.9172 1.74984C30.8119 1.65913 30.6881 1.59233 30.5545 1.55399C30.4208 1.51565 30.2807 1.50663 30.1434 1.5277C20.3444 2.75257 10.5834 4.29607 0.860761 6.15805C-0.182396 6.35322 -0.215809 7.69911 0.430275 8.22406C0.332778 8.34779 0.264279 8.49198 0.230477 8.64583C0.196675 8.79969 0.198422 8.95926 0.235077 9.11247C1.29842 14.5234 2.3571 19.9343 3.41147 25.3452C3.96334 28.1449 4.51067 30.9448 5.05357 33.7445C5.3968 35.4808 5.4373 37.7824 7.36209 38.3343C8.17442 38.484 9.01024 38.4449 9.80502 38.2199C11.003 37.9911 12.1944 37.7488 13.3856 37.5132L21.0578 36.0124C23.3379 35.6073 25.5867 35.0428 27.7878 34.3232C30.2981 33.4617 32.7275 32.4118 35.3792 32.109C35.605 32.0909 35.8163 31.9904 35.9727 31.8265C36.1291 31.6627 36.2198 31.4471 36.2273 31.2207C36.3434 31.0978 36.4267 30.9478 36.4702 30.7845C36.5137 30.6211 36.5157 30.4495 36.4761 30.2851C34.6949 21.1143 33.1135 11.8986 31.7316 2.63809ZM29.2952 32.0888C27.0406 32.9342 24.7257 33.6091 22.37 34.1078C17.7666 35.0567 13.1366 36.0797 8.49285 36.7998C8.1227 36.8604 7.56403 37.0287 7.23426 36.7191C6.90449 36.4095 6.97836 35.5144 6.90433 35.1307C6.6441 33.7847 6.37718 32.4209 6.10349 31.039C5.60996 28.4995 5.1142 25.9623 4.61618 23.4273C3.62462 18.3528 2.63311 13.2805 1.64155 8.21058C1.60778 8.02735 1.53168 7.85452 1.41941 7.70583C10.9895 5.91115 20.6023 4.39239 30.2577 3.14958C31.6306 12.2845 33.201 21.3835 34.9687 30.4467C33.0306 30.8162 31.1311 31.366 29.2952 32.0888Z" fill="#1E1E1E"/>
<path d="M79.5614 19.9752C79.5172 19.8143 79.4319 19.6678 79.314 19.5498C79.196 19.4319 79.0493 19.3464 78.8884 19.3022C70.3413 16.8839 61.8525 14.2547 53.422 11.4146C53.2207 11.3374 52.9989 11.3321 52.7941 11.3995C52.5893 11.467 52.4142 11.6031 52.2982 11.7848C52.0443 11.9172 51.8532 12.1446 51.7665 12.4174C48.8636 20.9062 46.1716 29.4737 43.6904 38.1196H45.3125C47.7398 29.6936 50.3577 21.3348 53.1664 13.0434C61.4982 15.8386 69.8816 18.4341 78.3166 20.83C77.7652 22.8135 77.38 24.8395 77.1655 26.887C76.8618 29.3997 76.3875 31.8889 75.7455 34.3372C74.4803 39.1223 73.269 43.9612 71.8288 48.6924C71.7076 49.0693 71.6067 49.6683 71.1962 49.8432C70.7856 50.0182 70.0656 49.5471 69.7089 49.4461L65.8927 48.3694L58.7995 46.3504L48.1188 43.3353V45.0312L59.876 48.3492L67.7033 50.5567C69.3185 51.0076 71.2837 52.0035 72.6096 50.4287C73.105 49.7206 73.4445 48.9155 73.6056 48.0664C73.9488 46.8281 74.2784 45.5965 74.6217 44.3582C75.3395 41.7155 76.062 39.0707 76.7889 36.4236C77.4667 34.0811 77.9971 31.6984 78.3771 29.2897C78.7742 26.5304 78.9826 23.7576 79.9114 21.1195C79.9871 20.9168 79.994 20.6947 79.9308 20.4879C79.8675 20.281 79.7375 20.1008 79.5614 19.9752Z" fill="#1E1E1E"/>
<path d="M68.733 28.973C68.7799 28.9266 68.8154 28.8699 68.8366 28.8074C68.8577 28.7449 68.8638 28.6782 68.8546 28.6129C68.8455 28.5475 68.8211 28.4853 68.7837 28.431C68.7462 28.3767 68.6966 28.3318 68.6387 28.3C68.1399 28.0996 67.6174 27.9639 67.0841 27.8962C67.4004 27.351 67.7237 26.8059 68.04 26.2541C68.2082 25.9647 67.9053 25.5004 67.5553 25.6484L66.3976 26.133C66.5758 25.2608 66.6168 24.3662 66.5188 23.4814C66.5149 23.3997 66.4876 23.3209 66.44 23.2545C66.3923 23.1881 66.3265 23.1368 66.2504 23.1069C66.1743 23.0771 66.0912 23.0698 66.0111 23.0861C65.931 23.1023 65.8573 23.1414 65.7988 23.1986C65.1832 23.7237 64.5382 24.2137 63.8672 24.6659L62.8173 21.7787C62.7986 21.7175 62.7665 21.6613 62.723 21.6144C62.6795 21.5674 62.6258 21.531 62.5662 21.5077C62.5067 21.4844 62.4427 21.4748 62.3789 21.4798C62.3152 21.4847 62.2534 21.5041 62.1982 21.5363C61.8182 21.8317 61.5071 22.2062 61.2863 22.6339C61.0655 23.0616 60.9403 23.5321 60.9196 24.0129L59.2167 22.4315C59.1484 22.3795 59.0661 22.3496 58.9804 22.3455C58.8947 22.3415 58.8098 22.3634 58.7369 22.4086C58.664 22.4538 58.6064 22.5202 58.5719 22.5987C58.5375 22.6773 58.5275 22.7644 58.5437 22.8486C58.7254 23.3803 58.9006 23.9188 59.0823 24.4505C59.264 24.9821 60.0581 24.7331 59.8831 24.2149V24.1544L61.0135 25.2041C61.0739 25.2605 61.1497 25.2981 61.2311 25.3121C61.3125 25.3261 61.3962 25.3162 61.472 25.2833C61.5477 25.2505 61.6123 25.1961 61.6576 25.1271C61.703 25.058 61.7269 24.9772 61.727 24.8946C61.6988 24.1078 61.8924 23.329 62.2856 22.6469L63.302 25.433C63.3207 25.4942 63.3529 25.5503 63.3963 25.5972C63.4398 25.6441 63.4932 25.6807 63.5528 25.704C63.6123 25.7273 63.6766 25.7367 63.7404 25.7317C63.8042 25.7268 63.8659 25.7076 63.9211 25.6754C64.5654 25.2624 65.1854 24.813 65.7785 24.3294C65.7864 25.1479 65.6683 25.9627 65.4285 26.7454C65.3477 27.028 65.6642 27.378 65.9536 27.2501L66.7275 26.9271C66.5054 27.3107 66.2901 27.6943 66.0545 28.0712C66.0175 28.1352 65.9983 28.2081 65.9986 28.2821C65.999 28.3561 66.0191 28.4286 66.0568 28.4923C66.0945 28.556 66.1482 28.6086 66.2129 28.6446C66.2776 28.6806 66.3505 28.6987 66.4245 28.6972C66.7958 28.6964 67.1661 28.737 67.5283 28.8183C67.2406 28.9936 66.9362 29.14 66.6197 29.2556C66.2226 29.397 65.6037 29.3969 65.3076 29.72C65.242 29.7837 65.1917 29.8613 65.16 29.9471C65.1284 30.0328 65.1161 30.1244 65.1245 30.2154C65.1329 30.3064 65.1615 30.3944 65.2083 30.4728C65.2551 30.5513 65.3189 30.6184 65.395 30.669C65.1766 30.5957 64.9403 30.5957 64.722 30.669C64.5804 30.7398 64.466 30.8553 64.3966 30.9976C64.3273 31.14 64.307 31.3012 64.3385 31.4564C64.3543 31.7068 64.3835 31.9562 64.4259 32.2035L64.1768 32.0554C63.9254 31.8658 63.6397 31.7263 63.3355 31.6448C62.6625 31.5574 62.4606 32.3583 61.9895 32.6813C61.4309 33.0851 61.2022 32.089 60.5696 32.2707C60.2196 32.3716 60.0582 32.7418 59.9505 33.1187L59.7484 32.9302C59.3446 32.5668 58.7591 33.1659 59.1562 33.536L59.8897 34.209C59.9434 34.2529 60.007 34.2829 60.075 34.2964C60.143 34.31 60.2136 34.3067 60.2801 34.2867C60.3465 34.2668 60.4069 34.231 60.4562 34.1822C60.5055 34.1335 60.542 34.0733 60.5627 34.0071C60.5627 33.9196 60.7512 33.5359 60.8252 33.2802C60.8749 33.3446 60.9341 33.4013 61.0004 33.4484C61.1682 33.5699 61.366 33.643 61.5725 33.6596C61.779 33.6762 61.9862 33.6359 62.1713 33.5428C62.3731 33.4413 62.5537 33.3018 62.703 33.1322C62.8308 32.9976 63.0326 32.5602 63.2008 32.513C63.3691 32.4659 63.7661 32.8227 63.8738 32.8832L64.7151 33.3678C64.9641 33.5158 65.3882 33.3206 65.3411 32.9976C65.294 32.6745 65.2536 32.412 65.2132 32.1159C65.1604 31.8946 65.1243 31.6696 65.1055 31.4429C65.4748 31.5005 65.8394 31.5861 66.1958 31.6987C66.5752 31.7669 66.9665 31.7127 67.3131 31.544C67.3758 31.5063 67.4276 31.4529 67.4636 31.3892C67.4996 31.3255 67.5185 31.2537 67.5185 31.1805C67.5185 31.1073 67.4996 31.0354 67.4636 30.9717C67.4276 30.908 67.3758 30.8547 67.3131 30.8171L66.6401 30.4469C66.4954 30.3501 66.3449 30.2625 66.1892 30.1845C66.3575 30.1441 66.5323 30.097 66.7006 30.0432C67.4381 29.8146 68.1272 29.4518 68.733 28.973Z" fill="#00A99D"/>
<path d="M69.9244 27.0212C69.8601 25.8775 69.505 24.7691 68.8926 23.801C68.2801 22.8329 67.4306 22.0371 66.4247 21.489C64.2643 20.2911 61.3435 19.322 59.2033 21.0449C58.1534 21.8929 57.1843 23.2927 57.3391 24.706C57.3906 25.2821 57.6648 25.8154 58.1035 26.1925C58.5421 26.5695 59.1107 26.7606 59.688 26.725C59.7508 26.8263 59.8368 26.9113 59.9388 26.9729C60.0408 27.0346 60.1557 27.0714 60.2746 27.0799C60.3935 27.0884 60.5129 27.0685 60.6226 27.0221C60.7324 26.9756 60.8296 26.9039 60.9062 26.8126C61.0885 26.6546 61.3047 26.5409 61.5381 26.4802C61.7716 26.4195 62.0161 26.4135 62.2522 26.4626C62.9303 26.459 63.603 26.5799 64.2374 26.8193C65.4353 27.3577 64.9508 28.771 64.2374 29.5113C63.7573 29.9637 63.1856 30.3072 62.5608 30.5185C61.936 30.7299 61.2728 30.8041 60.6167 30.7361C59.8024 30.7024 59.0149 30.6016 58.6716 31.5438C58.4024 32.2841 58.2681 33.1051 58.0729 33.8724C58.0693 33.9127 58.0693 33.9532 58.0729 33.9935C58.0729 34.0338 58.0257 34.0674 58.019 34.1078V34.1819L57.9181 34.3906C57.8329 34.5615 57.778 34.7459 57.7564 34.9356C57.7297 35.1203 57.7435 35.3087 57.7969 35.4875C57.8837 35.7646 58.0648 36.0027 58.3085 36.1605C58.5698 36.2947 58.8483 36.3921 59.1363 36.4499C59.3853 36.5172 59.6341 36.5778 59.8898 36.6316C59.9813 36.6451 60.0744 36.6451 60.1659 36.6316C60.245 36.6881 60.3341 36.7293 60.4284 36.7529C60.6436 36.8031 60.8698 36.7693 61.061 36.6585L61.2293 36.524C61.3341 36.4177 61.4083 36.2851 61.4445 36.1403L61.8214 35.178C66.1219 35.0703 70.2273 31.6582 69.9244 27.0212ZM61.1754 33.4955C61.0874 33.4841 60.998 33.4903 60.9125 33.5137C60.8269 33.537 60.7469 33.5771 60.6768 33.6315C60.6068 33.6859 60.5481 33.7537 60.5043 33.8308C60.4605 33.9079 60.4323 33.993 60.4215 34.081C60.3875 34.1398 60.3626 34.2032 60.3476 34.2693L60.085 34.9423L59.6072 34.828H59.5264C59.57 34.7353 59.6041 34.6384 59.6276 34.5386C59.6276 34.4983 59.6276 34.4579 59.6276 34.4175C59.6276 34.3772 59.6677 34.3434 59.6811 34.2963L60.1659 32.3649C60.4283 32.3649 60.7313 32.4388 60.9466 32.4388C61.3001 32.4378 61.653 32.4132 62.0031 32.3649C62.7947 32.2628 63.5598 32.0116 64.2578 31.6245C64.9207 31.2571 65.483 30.7321 65.8949 30.0959C66.3069 29.4598 66.5558 28.732 66.6199 27.9769C66.7208 26.2405 65.2738 25.2108 63.7192 24.9483C62.5818 24.7532 61.1888 24.5781 60.1793 25.2309C60.0852 25.1577 59.976 25.1065 59.8596 25.0809C59.7431 25.0553 59.6224 25.0559 59.5063 25.0829C59.2842 25.1233 59.0755 24.8272 59.0216 24.6455C58.9953 24.3978 59.0194 24.1473 59.0923 23.9091C59.1651 23.6709 59.2855 23.4497 59.4459 23.2591C59.8822 22.5428 60.5835 22.0276 61.3975 21.8255C62.3377 21.7492 63.2814 21.9185 64.1365 22.3168C65.0765 22.6228 65.9477 23.1099 66.7007 23.7504C69.0697 25.9444 68.585 29.8074 66.2968 31.8264C64.8678 33.0212 63.0343 33.6211 61.1754 33.5022V33.4955Z" fill="#1E1E1E"/>
<path d="M60.2736 38.8866C60.2139 38.793 60.1202 38.7261 60.0123 38.6998C59.9045 38.6735 59.7906 38.6898 59.6946 38.7453C58.9549 39.2585 58.2991 39.8828 57.7498 40.5961C57.6741 40.6761 57.6318 40.782 57.6318 40.8922C57.6318 41.0023 57.6741 41.1082 57.7498 41.1882C57.7886 41.2273 57.8347 41.2584 57.8855 41.2796C57.9363 41.3008 57.9908 41.3116 58.0459 41.3116C58.1009 41.3116 58.1554 41.3008 58.2063 41.2796C58.2571 41.2584 58.3032 41.2273 58.342 41.1882C58.6179 40.8652 58.8938 40.5153 59.1967 40.2326C59.338 40.0913 59.4928 39.9499 59.6476 39.8153L59.7215 39.7548L59.8293 39.674C59.9168 39.6067 60.0111 39.5461 60.1053 39.4855C60.1573 39.4589 60.2031 39.422 60.2401 39.3768C60.277 39.3315 60.3044 39.279 60.3202 39.2228C60.336 39.1666 60.3401 39.1078 60.3321 39.0499C60.324 38.9921 60.3041 38.9364 60.2736 38.8866Z" fill="#00A99D"/>
<path d="M61.1284 39.896C61.0876 39.365 60.877 38.8612 60.528 38.4588C60.179 38.0565 59.7099 37.777 59.1899 37.6616C59.0264 37.6391 58.8601 37.6577 58.7055 37.7155C58.3059 37.6392 57.892 37.7034 57.5343 37.8972C57.0701 38.1847 56.7242 38.6286 56.5587 39.1489C56.3935 39.5475 56.3132 39.9762 56.3231 40.4075C56.3339 40.6667 56.3993 40.9207 56.5153 41.1527C56.6313 41.3846 56.7952 41.5894 56.9961 41.7535C57.3715 42.0253 57.7935 42.2259 58.2412 42.3457C58.4814 42.4278 58.7343 42.4667 58.9881 42.4602C59.2928 42.4347 59.5886 42.3452 59.8563 42.1976C60.2641 41.9734 60.6 41.6382 60.8251 41.2309C61.0502 40.8235 61.1555 40.3607 61.1284 39.896ZM59.439 40.6499C59.3297 40.7676 59.1861 40.8476 59.0286 40.8786C58.8711 40.9122 58.7083 40.9122 58.5508 40.8786C58.4261 40.8509 58.3058 40.8056 58.1939 40.744C58.0965 40.6825 58.0102 40.6051 57.9382 40.5151V40.4816C57.8348 40.3529 57.7739 40.1953 57.7634 40.0306C57.7646 39.8727 57.8111 39.7185 57.8978 39.5865C57.9358 39.4716 57.9977 39.3661 58.0795 39.2769C58.1772 39.1789 58.3012 39.1112 58.4364 39.0817C58.5844 39.0447 58.7392 39.0447 58.8873 39.0817C59.0552 39.1301 59.2078 39.2204 59.3312 39.3441C59.4449 39.461 59.5324 39.6011 59.5872 39.7547C59.6348 39.8653 59.6599 39.9843 59.6611 40.1047C59.6583 40.3079 59.579 40.5026 59.439 40.6499Z" fill="#1E1E1E"/>
<path d="M19.8664 38.8865C19.6487 38.8905 19.4385 38.9677 19.27 39.1057C19.1015 39.2437 18.9846 39.4342 18.9377 39.6469C18.742 39.8619 18.6358 40.1438 18.6413 40.4344C18.7086 50.8884 19.079 61.3312 19.752 71.7628C19.7616 71.9781 19.8349 72.1855 19.963 72.3588C20.0911 72.532 20.2681 72.6631 20.4711 72.7354C20.6741 72.8076 20.8939 72.8176 21.1027 72.7643C21.3114 72.7109 21.4995 72.5966 21.6429 72.4358C21.7447 72.5494 21.8728 72.6364 22.0159 72.6892C22.159 72.742 22.3129 72.7589 22.4641 72.7386L38.051 71.1907L46.127 70.3899C47.7961 70.2216 49.9632 70.4369 50.6968 68.4717C50.9233 67.6297 50.976 66.7505 50.8515 65.8875C50.7708 64.6021 50.6765 63.3232 50.589 62.0378C50.4005 59.2919 50.2189 56.5461 50.0238 53.8002C49.8942 51.3604 49.6154 48.9309 49.1891 46.5252C48.6574 43.7928 47.9372 41.1411 47.944 38.2943C47.9607 38.0671 47.8952 37.8413 47.7593 37.6585C47.6234 37.4756 47.4263 37.3476 47.2039 37.2981C47.1065 37.1689 46.9767 37.0674 46.828 37.0037C46.6792 36.9399 46.5165 36.9163 46.3558 36.9348C37.5394 37.7873 28.7097 38.4378 19.8664 38.8865ZM47.2374 44.7079C47.7757 47.1815 48.1466 49.6886 48.3478 52.212C48.7247 57.1653 49.1756 62.1522 49.3708 67.1122C49.3708 67.5161 49.4786 68.115 49.1556 68.4583C48.8325 68.8015 47.998 68.5929 47.6278 68.6265L43.6973 69.0236L36.3885 69.7438L21.7711 71.1974C21.5956 71.2154 21.4271 71.2754 21.2798 71.3724C20.6337 61.1024 20.2702 50.8211 20.1894 40.5286C28.9116 40.0799 37.6246 39.4384 46.3288 38.6039C46.4636 40.649 46.7676 42.6794 47.2374 44.6744V44.7079Z" fill="#1E1E1E"/>
<path d="M42.1564 53.2013C41.9773 52.4826 41.6767 51.7998 41.2678 51.1823C40.6898 50.2014 39.9372 49.3346 39.0471 48.6248C37.9962 47.7958 36.674 47.3879 35.3386 47.4808C34.5182 47.5452 33.7102 47.7195 32.9361 47.999C31.7964 48.0648 30.6969 48.4444 29.7594 49.0959C29.226 49.4937 28.7902 50.0077 28.4847 50.5988C28.1792 51.19 28.0123 51.8429 27.9964 52.5081C27.882 53.7256 28.0239 54.9536 28.4134 56.1128C28.8029 57.272 29.4313 58.3366 30.2576 59.2381C31.0728 60.1457 32.138 60.792 33.3196 61.0956C34.6367 61.3349 35.9905 61.2797 37.2837 60.9341C38.5067 60.5922 39.6365 59.9779 40.5883 59.1372C41.0786 58.6755 41.4729 58.1215 41.7489 57.5071C42.0249 56.8928 42.177 56.23 42.1965 55.5568C42.3129 54.7748 42.2996 53.9789 42.1564 53.2013ZM38.8989 56.1289C38.8989 56.1626 38.8181 56.1827 38.7845 56.2163C38.7652 56.2575 38.7372 56.2939 38.7023 56.323C38.6674 56.352 38.6267 56.3731 38.5827 56.3846C38.4303 56.4703 38.2673 56.536 38.098 56.5798C37.8154 56.7144 37.5463 56.8691 37.2637 57.0037C36.7993 57.2325 36.3077 57.4076 35.8299 57.5893C35.1569 57.8518 34.4099 58.5248 33.6696 58.1277C32.9293 57.7306 32.6803 56.8489 32.3775 56.1826C32.0088 55.3973 31.7136 54.5795 31.4958 53.7397L31.2536 53.1743C31.0921 52.8176 30.9506 52.4004 31.415 52.2053C31.7835 52.1182 32.1703 52.1512 32.5188 52.2994C32.9832 52.434 33.4609 52.5417 33.9253 52.6763C34.6454 52.8984 35.3521 53.1676 36.0521 53.4569C36.5248 53.5724 36.9782 53.7561 37.3981 54.0021C37.8483 54.1728 38.2757 54.3989 38.6701 54.6751C38.7865 54.7507 38.8858 54.85 38.9613 54.9664C39.0368 55.0829 39.0869 55.2138 39.1085 55.3509C39.1301 55.488 39.1226 55.6282 39.0865 55.7622C39.0504 55.8962 38.9864 56.0212 38.8989 56.1289Z" fill="#00A99D"/>
<path d="M41.4699 53.942C41.3246 53.1927 41.0633 52.4706 40.6957 51.8017L40.4401 51.3441L40.3661 51.2163C40.0734 50.699 39.733 50.21 39.3497 49.7557C38.826 49.1615 38.1688 48.7002 37.4319 48.4097C35.8719 47.6815 34.1447 47.3863 32.4314 47.555C32.2709 47.5793 32.1247 47.6609 32.0196 47.7845C31.9145 47.9082 31.8574 48.0657 31.8593 48.228C31.8723 48.4014 31.9519 48.5631 32.0814 48.679C32.1414 48.7325 32.2119 48.7727 32.2884 48.797C32.365 48.8214 32.4459 48.8293 32.5257 48.8203C33.8289 48.6987 35.1423 48.8831 36.3616 49.3588C36.9202 49.5186 37.4482 49.7711 37.9232 50.1057C37.9758 50.1469 38.0251 50.192 38.0711 50.2405C38.4658 50.5883 38.8021 50.9972 39.0671 51.4517C39.8237 52.4406 40.2661 53.6338 40.3369 54.8769C40.4077 56.12 40.1038 57.3558 39.4644 58.4241C39.1513 58.9142 38.7359 59.331 38.2469 59.6458C37.7579 59.9605 37.2065 60.1659 36.6307 60.2479C35.3863 60.5383 34.0978 60.5862 32.8352 60.3892C31.6326 60.2615 30.4783 59.846 29.4702 59.1778C28.6734 58.5267 28.1401 57.6084 27.9694 56.5936C27.7277 55.3969 27.847 54.1553 28.3125 53.0266C28.5193 52.4877 28.8682 52.0148 29.322 51.6581C29.7758 51.3014 30.3177 51.0744 30.8902 51.0009H30.9776C31.1009 50.9984 31.2204 50.9575 31.3193 50.8839C31.4183 50.8103 31.4918 50.7076 31.5297 50.5903C31.5608 50.491 31.5683 50.3859 31.552 50.2832C31.5357 50.1804 31.4958 50.0828 31.4353 49.9981C31.3774 49.9174 31.3002 49.8525 31.2109 49.809C31.1216 49.7655 31.0229 49.7449 30.9237 49.749C30.2378 49.7903 29.5724 49.999 28.9858 50.3568C28.3992 50.7146 27.9092 51.2107 27.5587 51.8017L27.5051 51.9095V51.9565C26.875 53.1114 26.5767 54.4182 26.6435 55.7321C26.6058 57.0798 27.0575 58.3956 27.9149 59.4361C28.7723 60.4766 29.9774 61.1714 31.3075 61.392C32.5408 61.728 33.8203 61.8621 35.0964 61.7891C35.3253 61.7891 35.5474 61.7891 35.7694 61.7285C36.9539 61.5805 38.6634 61.244 39.8075 60.073C40.496 59.2282 41.0001 58.2487 41.2876 57.1974C41.575 56.1462 41.6394 55.0464 41.4765 53.9688L41.4699 53.942Z" fill="#1E1E1E"/>
<path d="M31.0652 53.0192C30.9172 53.0871 30.7988 53.2064 30.732 53.3549C30.6651 53.5034 30.6547 53.671 30.7021 53.8268C30.9511 54.7757 31.2203 55.7045 31.5164 56.5862C31.651 57.0102 31.8055 57.4341 31.9603 57.8581V57.912C32.0462 58.2116 32.244 58.467 32.5124 58.6254C32.6067 58.6703 32.7111 58.6888 32.8151 58.6791C32.9053 58.6736 32.9941 58.6533 33.0776 58.6187C33.3393 58.5036 33.5893 58.3638 33.8246 58.2013L34.2488 57.9456C34.6324 57.737 35.0228 57.5418 35.4131 57.3668C36.2457 56.988 37.102 56.6643 37.977 56.3977C38.101 56.3547 38.21 56.2765 38.2901 56.1724C38.3702 56.0684 38.4183 55.9431 38.4281 55.8121C38.4436 55.677 38.4175 55.5405 38.3539 55.4204C38.2902 55.3003 38.1917 55.2021 38.0713 55.1391C36.0903 54.1036 33.9908 53.3126 31.819 52.7836H31.7181C31.5983 52.7512 31.4715 52.7566 31.3547 52.7987C31.2379 52.8408 31.1367 52.9178 31.0652 53.0192ZM32.2298 54.2711C33.5276 54.6221 34.7963 55.0721 36.0253 55.6171C35.6686 55.7584 35.3523 55.8997 35.0023 56.0477C34.5178 56.2766 34.1208 56.4784 33.7506 56.6736C33.5555 56.7745 33.3737 56.8755 33.1785 56.9899L33.0977 57.0438C32.9429 56.6198 32.8084 56.1824 32.6738 55.7584L32.6333 55.6103C32.4987 55.1864 32.371 54.7623 32.2364 54.2374L32.2298 54.2711Z" fill="#1E1E1E"/>
<path d="M74.3933 14.8267C74.3055 14.5832 74.2357 14.3334 74.1847 14.0796C74.1106 13.8306 74.0768 13.5682 74.0095 13.3192C73.981 13.1029 73.8922 12.8991 73.7529 12.7312C73.6135 12.5633 73.4295 12.4382 73.2221 12.3703C72.6232 12.229 71.9974 12.7808 71.4926 13.3462C71.3208 12.9285 71.2076 12.4892 71.1561 12.0406C71.1384 11.9169 71.0918 11.7991 71.0204 11.6965C70.949 11.594 70.8546 11.5096 70.7447 11.4501C70.6348 11.3905 70.5127 11.3574 70.3878 11.3536C70.2629 11.3498 70.1387 11.3753 70.0254 11.428L68.888 12.1886L68.4438 12.4847C68.3361 11.6973 68.612 10.7417 67.6025 10.5263C67.0304 10.4052 66.5661 10.7887 66.1017 11.0983C65.9738 11.1858 65.8528 11.2867 65.7317 11.3809C65.7317 11.1521 65.7317 10.9234 65.6913 10.6744C65.6765 10.4451 65.5878 10.2267 65.4386 10.052C65.2893 9.87726 65.0877 9.75554 64.8635 9.70511C64.1905 9.56378 63.3895 10.1023 62.7367 10.6676C62.6455 10.3576 62.5826 10.0399 62.5484 9.71859C62.5317 9.59511 62.486 9.4773 62.4153 9.37469C62.3446 9.27208 62.251 9.18769 62.1416 9.12807C62.0322 9.06844 61.9102 9.0354 61.7857 9.03162C61.6611 9.02783 61.5374 9.05334 61.4245 9.10621C60.7281 9.55483 60.1285 10.1384 59.6612 10.8224C59.0488 11.704 60.3342 12.6866 60.9668 11.7982C61.061 11.6636 61.1756 11.5424 61.2832 11.4146C61.3991 11.7644 61.5476 12.1024 61.7272 12.4241C61.7756 12.5382 61.8502 12.6392 61.9451 12.719C62.0399 12.7988 62.1524 12.8551 62.273 12.8833C62.3937 12.9115 62.5194 12.9108 62.6398 12.8813C62.7601 12.8518 62.8718 12.7944 62.9657 12.7136C63.3241 12.3481 63.7038 12.0042 64.1031 11.6839C64.1031 11.7781 64.1031 11.879 64.1031 11.9732C64.1581 12.3943 64.2688 12.8063 64.4327 13.1981C64.4811 13.3122 64.5557 13.4133 64.6506 13.4931C64.7454 13.5729 64.8578 13.629 64.9785 13.6572C65.0992 13.6854 65.2249 13.6847 65.3452 13.6552C65.4656 13.6257 65.5773 13.5683 65.6712 13.4875C65.9741 13.2317 66.2903 12.9759 66.6134 12.7471L66.8625 12.5453C66.8824 12.7515 66.9161 12.956 66.9633 13.1577C67.0845 13.6288 67.2729 14.2344 67.7507 14.4229C68.2285 14.6113 68.6862 14.3018 69.0967 14.0259L69.8371 13.5346C70.0383 14.166 70.3308 14.7645 70.7053 15.3113C70.7694 15.3959 70.8502 15.4663 70.9429 15.518C71.0355 15.5697 71.1379 15.6015 71.2436 15.6116C71.3492 15.6218 71.4556 15.61 71.5564 15.5768C71.6572 15.5436 71.7502 15.4898 71.8291 15.4189C72.0916 15.1295 72.354 14.8469 72.63 14.5777C72.879 15.5939 73.3029 16.7246 74.2721 16.4823C74.4445 16.4306 74.5971 16.3278 74.7098 16.1874C74.8224 16.047 74.8895 15.8758 74.9027 15.6963C74.9158 15.5168 74.8744 15.3376 74.7834 15.1823C74.6924 15.027 74.5563 14.903 74.3933 14.8267Z" fill="#00A99D"/>
<path d="M38.4816 21.3141C37.3941 18.1816 36.806 14.8977 36.7387 11.5825C36.7387 11.3594 36.65 11.1454 36.4922 10.9877C36.3344 10.8299 36.1205 10.7412 35.8974 10.7412C35.6743 10.7412 35.4604 10.8299 35.3026 10.9877C35.1448 11.1454 35.0562 11.3594 35.0562 11.5825C35.1271 15.0561 35.7356 18.4979 36.8599 21.7853C36.9171 22.0038 37.0575 22.191 37.2513 22.3068C37.4451 22.4226 37.6769 22.4576 37.8964 22.4044C38.1137 22.3303 38.2948 22.1767 38.4034 21.9744C38.5121 21.7722 38.5399 21.5362 38.4816 21.3141Z" fill="#00A99D"/>
<path d="M10.3437 40.7036C10.317 40.5936 10.2685 40.4901 10.2014 40.3989C10.1343 40.3078 10.0497 40.2309 9.95264 40.1727C9.8556 40.1145 9.74817 40.0761 9.63618 40.0598C9.52419 40.0435 9.40995 40.0496 9.30034 40.0777C7.92267 40.555 6.47087 40.7829 5.01322 40.7507C4.97957 40.6565 4.93943 40.5689 4.91924 40.5016C4.80483 40.118 4.68367 39.7344 4.56926 39.3508L3.84237 36.9886C3.81558 36.8793 3.76736 36.7765 3.70073 36.6859C3.6341 36.5953 3.55023 36.5186 3.45394 36.4605C3.35766 36.4023 3.25101 36.3637 3.13979 36.3469C3.02856 36.3302 2.91507 36.3356 2.80591 36.3627C2.58635 36.4383 2.4034 36.594 2.2936 36.7986C2.18381 37.0032 2.15534 37.2416 2.21375 37.4664C2.48968 38.3547 2.76543 39.2498 3.03463 40.1584C3.30383 41.0669 3.47224 42.3524 4.54232 42.5139C5.41074 42.6082 6.2884 42.5743 7.14692 42.413C8.03533 42.2882 8.90966 42.0787 9.7581 41.7872C9.9721 41.7105 10.1502 41.5575 10.2583 41.3575C10.3663 41.1575 10.3968 40.9246 10.3437 40.7036Z" fill="#00A99D"/>
<path d="M78.4851 74.6971C58.8064 74.9933 39.1256 75.1818 19.4424 75.2625C13.8161 75.2894 8.19183 75.3052 2.57001 75.3097C2.44417 75.2942 2.31649 75.3055 2.19539 75.343C2.07428 75.3806 1.96241 75.4434 1.86743 75.5274C1.77244 75.6114 1.69639 75.7146 1.6443 75.8302C1.59221 75.9458 1.56543 76.0711 1.56543 76.1979C1.56543 76.3247 1.59221 76.45 1.6443 76.5656C1.69639 76.6812 1.77244 76.7845 1.86743 76.8685C1.96241 76.9525 2.07428 77.0154 2.19539 77.053C2.31649 77.0905 2.44417 77.1019 2.57001 77.0863C22.2486 77.0863 41.9319 76.9584 61.6195 76.7027C67.2414 76.6354 72.8632 76.5592 78.4851 76.474C78.6109 76.4895 78.7386 76.478 78.8597 76.4404C78.9808 76.4029 79.0923 76.3401 79.1873 76.2561C79.2823 76.1721 79.3584 76.0689 79.4105 75.9533C79.4625 75.8377 79.4896 75.7123 79.4896 75.5856C79.4896 75.4588 79.4625 75.3334 79.4105 75.2178C79.3584 75.1022 79.2823 74.999 79.1873 74.915C79.0923 74.831 78.9808 74.7682 78.8597 74.7307C78.7386 74.6931 78.6109 74.6816 78.4851 74.6971Z" fill="#1E1E1E"/>
<path d="M65.5703 77.8732L49.9703 78.2232C48.8935 78.2232 48.8868 80.0269 49.9703 80L65.5703 79.6568C66.6471 79.6298 66.6538 77.853 65.5703 77.8732Z" fill="#1E1E1E"/>
<path d="M4.26602 66.2103C4.08431 66.4054 3.88925 66.6005 3.71427 66.8024C3.29028 67.2533 2.86606 67.7178 2.47572 68.1889C1.68437 69.1118 1.00652 70.1263 0.456709 71.2106C0.422507 71.2924 0.405024 71.38 0.404788 71.4686C0.404551 71.5572 0.421629 71.645 0.455394 71.7269C0.48916 71.8088 0.538698 71.8832 0.6013 71.9459C0.663901 72.0086 0.738296 72.0584 0.820157 72.0923C0.853132 72.1018 0.888396 72.1018 0.921371 72.0923C1.01378 72.1616 1.11897 72.2119 1.23093 72.2404L6.75626 73.4853C6.90651 73.5061 7.05933 73.4757 7.19004 73.3987C7.32075 73.3218 7.42157 73.2029 7.47626 73.0614C7.74546 72.3884 7.43584 71.7557 7.26759 71.1298L6.74936 69.2253C6.56092 68.5523 6.3726 67.8793 6.19762 67.2063C6.02264 66.5333 5.95543 65.5439 5.11417 65.6314C4.73056 65.6583 4.52176 65.9545 4.26602 66.2103ZM5.03333 68.108L5.47072 69.6964C5.61205 70.2146 5.74673 70.7194 5.88806 71.2308C5.94863 71.4731 6.01579 71.7086 6.07636 71.9508C4.73035 71.6547 3.43152 71.3587 2.1057 71.0491C2.50318 70.3753 2.95325 69.7339 3.45171 69.131C3.78821 68.7272 4.12457 68.3436 4.48126 67.96C4.61586 67.8119 4.75069 67.6706 4.87856 67.5091L5.03333 68.108Z" fill="#1E1E1E"/>
<path d="M69.864 0.586337C69.6823 0.781508 69.4871 0.976607 69.3053 1.18524C68.8814 1.63615 68.464 2.09383 68.0737 2.57167C67.2818 3.49422 66.6039 4.50878 66.0547 5.59345C66.0207 5.67559 66.0032 5.76365 66.0034 5.85256C66.0036 5.94147 66.0216 6.02937 66.056 6.11134C66.0904 6.19332 66.1406 6.26779 66.2039 6.3302C66.2672 6.39262 66.3422 6.44188 66.4247 6.47512C66.458 6.48183 66.4926 6.48183 66.5259 6.47512C66.6146 6.5504 66.7212 6.60139 66.8355 6.62316L72.3608 7.86812C72.51 7.88734 72.6613 7.85608 72.7906 7.77923C72.9199 7.70238 73.0198 7.58444 73.0742 7.44421C73.3502 6.81158 73.074 6.13851 72.8721 5.51934L72.3473 3.60812C72.1656 2.93511 71.9702 2.26211 71.7953 1.58911C71.6203 0.916102 71.5598 -0.073273 70.7118 0.0142175C70.3282 0.0344076 70.1197 0.330595 69.864 0.586337ZM70.631 2.48409L71.0618 4.07245C71.2031 4.59066 71.3445 5.09544 71.4791 5.61366C71.5397 5.84921 71.6138 6.0848 71.6743 6.32708C70.3283 6.03096 69.0226 5.73478 67.6968 5.4252C68.0952 4.75413 68.5452 4.11503 69.0428 3.51381C69.3726 3.10327 69.716 2.71966 70.0727 2.33605C70.2005 2.19472 70.3349 2.04672 70.4627 1.89192C70.5233 2.0871 70.5973 2.28892 70.631 2.48409Z" fill="#1E1E1E"/>
<path d="M19.9471 53.5441C19.7573 53.0552 19.4498 52.6205 19.0519 52.2788C18.829 52.1621 18.5786 52.1081 18.3274 52.1223C18.0761 52.1366 17.8335 52.2186 17.6251 52.3596C16.6291 52.8442 15.606 53.3489 14.6436 53.8537C13.6812 54.3584 12.7592 54.816 11.8237 55.314C11.3526 55.5563 10.8816 55.8054 10.4173 56.0611C9.91623 56.2537 9.45865 56.5443 9.07124 56.9159C9.04195 56.9569 9.01491 56.9996 8.9904 57.0437C8.87512 57.083 8.76967 57.147 8.68151 57.231C8.59334 57.3151 8.52453 57.4173 8.47974 57.5305C8.43494 57.6438 8.4154 57.7655 8.42223 57.8871C8.42906 58.0087 8.46197 58.1274 8.51917 58.2349L11.5546 64.4602C12.0593 65.4966 12.5572 66.5399 13.0754 67.5696C13.1577 67.8205 13.3204 68.0375 13.5381 68.187C13.7558 68.3366 14.0164 68.4105 14.2801 68.3974C14.8322 68.2488 15.3603 68.0222 15.8483 67.7244L21.6766 64.9043L23.0226 64.2313C23.5274 63.9823 24.0926 63.7266 24.1195 63.0334C24.0603 62.4778 23.8787 61.9424 23.5878 61.4654L22.9148 59.904C21.9255 57.7773 21.0441 55.59 19.9471 53.5441ZM15.9091 58.5108C15.9516 58.6822 15.9248 58.8635 15.8348 59.0155C15.7795 59.0975 15.6991 59.1591 15.6054 59.1907C15.5118 59.2223 15.4102 59.2222 15.3166 59.1905C15.1338 59.1166 14.9737 58.9959 14.8522 58.8406L14.7984 58.7801H14.7648H14.7244H14.684L14.5762 58.7397C14.481 58.7113 14.3926 58.6638 14.3163 58.6002C14.2399 58.5365 14.1773 58.4581 14.1322 58.3695C14.0912 58.2775 14.078 58.1754 14.0948 58.076C14.1115 57.9767 14.1576 57.8845 14.2266 57.811C14.3225 57.7134 14.4399 57.6395 14.5696 57.5956C14.6365 57.5683 14.7114 57.5683 14.7783 57.5956C14.8393 57.6162 14.8899 57.6596 14.9196 57.7167C15.0779 57.7299 15.2317 57.7762 15.3708 57.8527C15.5099 57.9293 15.6315 58.0342 15.7273 58.1608C15.7963 58.269 15.8485 58.387 15.8821 58.5108H15.9091Z" fill="#00A99D"/>
<path d="M17.9151 51.9358L17.5786 51.5389L17.1274 51.7878L16.8313 51.9426C16.2323 50.4474 15.3135 49.1014 14.1393 47.9989C13.6356 47.4775 13.0224 47.0747 12.3437 46.8198C11.6651 46.5649 10.938 46.4642 10.2156 46.525C8.81403 46.6718 7.49969 47.2746 6.474 48.2411C5.96816 48.7533 5.57994 49.3699 5.337 50.0476C5.09405 50.7253 5.00201 51.4478 5.0672 52.1647C5.19507 54.0761 6.11036 55.7183 7.08621 57.2931C7.14002 57.3803 7.20574 57.4595 7.28141 57.5286L7.09969 57.6901C7.07163 57.7226 7.03993 57.7521 7.00538 57.7776C6.90001 57.8719 6.80112 57.973 6.70929 58.0805C6.6411 58.157 6.60027 58.2539 6.59296 58.3562C6.58566 58.4584 6.61226 58.5604 6.66887 58.6458C7.5707 60.6043 8.51313 62.5357 9.42168 64.3999L9.4552 64.4605C9.66383 64.8912 9.87243 65.3287 10.0878 65.7661L10.1755 65.9546C10.8485 67.3006 11.5215 68.4447 12.1272 69.5215L12.3628 69.932L12.8067 69.8446C14.2879 69.5197 15.7078 68.9609 17.013 68.189C17.8004 67.7515 18.5813 67.2737 19.335 66.8093C20.5274 66.033 21.7682 65.3338 23.05 64.7162H23.097C23.4557 64.4974 23.7187 64.1515 23.8334 63.7473C23.9482 63.3431 23.9063 62.9103 23.7161 62.5357C23.1575 61.479 22.6259 60.3283 22.1144 59.2178C20.903 56.6469 19.6783 53.9885 17.9151 51.9358ZM7.28141 49.8564C7.99812 49.0193 8.9918 48.4676 10.0812 48.3017C10.5717 48.2084 11.0772 48.2323 11.5567 48.3715C12.0362 48.5107 12.4762 48.7611 12.8406 49.1025C13.9549 50.1168 14.8167 51.3774 15.3575 52.7838C14.6037 53.1876 13.8229 53.5647 13.0624 53.9348L12.1203 54.3924C10.8537 54.9811 9.64596 55.6887 8.51306 56.5056C7.42953 54.7221 5.71331 51.9023 7.28141 49.8564ZM20.9166 59.8303C21.4349 60.961 21.9732 62.1253 22.5453 63.1954C22.5706 63.2419 22.5784 63.296 22.5673 63.3478C22.5562 63.3997 22.5266 63.4458 22.4845 63.478C21.1642 64.1151 19.8853 64.8343 18.6551 65.6315C16.7438 66.8093 14.9335 67.9266 12.9885 68.4044C12.4433 67.4555 11.8982 66.4459 11.3329 65.3355C11.0906 64.8374 10.8552 64.3462 10.6129 63.8549C9.81877 62.2262 8.92349 60.3821 8.06877 58.5583C10.0003 56.8758 12.3761 55.7115 14.6845 54.5809C15.5392 54.1569 16.4274 53.7262 17.2822 53.2349C18.7378 55.2896 19.9572 57.5021 20.9166 59.8303Z" fill="#1E1E1E"/>
<path d="M12.6049 57.946C12.5495 57.9763 12.5031 58.0211 12.4711 58.0756C12.4391 58.1301 12.4227 58.1923 12.4232 58.2555C12.4087 58.6457 12.4633 59.0352 12.5845 59.4063C12.6328 59.6352 12.698 59.8602 12.7797 60.0793C12.9167 60.4976 13.163 60.8718 13.4931 61.1629C13.7715 61.3506 14.1101 61.4273 14.4422 61.3782C14.7178 62.1414 15.0483 62.8837 15.4313 63.5991C15.6265 63.9693 15.9027 64.6289 16.3603 64.6693C16.5779 64.6482 16.7863 64.5717 16.9659 64.4471C17.2192 64.3486 17.4606 64.2221 17.6859 64.0702C17.7328 64.0234 17.7674 63.9658 17.7862 63.9023C17.805 63.8388 17.8075 63.7715 17.7937 63.7068C17.6967 63.4185 17.5656 63.1429 17.4033 62.8857L16.939 61.9975L16.1178 60.4158C16.262 60.1896 16.3456 59.9301 16.3603 59.6622C16.4303 59.2186 16.3671 58.764 16.1786 58.3564C15.9503 57.9867 15.6144 57.6956 15.2161 57.5219C14.79 57.3154 14.3107 57.2454 13.8434 57.3213C13.3762 57.3971 12.9437 57.6153 12.6049 57.946ZM15.7142 58.7535C15.8354 59.1506 15.2431 59.2784 15.1287 58.8881C15.0412 58.6054 14.6373 58.4641 14.4018 58.3968C14.0316 58.2824 14.2064 57.6768 14.5766 57.7844C14.8311 57.8403 15.0683 57.9579 15.2667 58.1269C15.465 58.2959 15.6187 58.5111 15.7142 58.7535Z" fill="#1E1E1E"/>
<path d="M69.1166 61.4861C69.0513 62.988 68.59 64.4458 67.7791 65.7118C66.9683 66.9777 65.8369 68.0066 64.4999 68.6939C63.8693 69.0263 63.1701 69.2072 62.4575 69.2224C61.745 69.2375 61.0386 69.0865 60.3945 68.7814C58.904 68.1357 57.6059 67.1157 56.6259 65.8202C56.4644 65.6048 56.323 65.3828 56.1816 65.1472C56.6668 66.6681 57.717 67.9449 59.1158 68.7142C60.4226 69.4568 61.9341 69.7577 63.4256 69.5722C64.9171 69.3866 66.309 68.7245 67.394 67.6844C69.1842 65.8808 69.8166 62.8791 69.2378 60.3621C69.1974 60.1871 69.1504 60.0188 69.0965 59.8506C69.0427 59.6823 69.0426 59.6892 69.0157 59.6084C69.1167 60.2288 69.1505 60.8584 69.1166 61.4861Z" fill="#00A99D"/>
<path d="M63.484 56.6805C63.4367 56.7781 63.3702 56.8653 63.2888 56.937C63.2074 57.0086 63.1126 57.0632 63.0098 57.0977C62.907 57.1322 62.7985 57.1458 62.6904 57.1378C62.5822 57.1297 62.4767 57.1001 62.3802 57.0507C61.8465 56.8524 61.278 56.7652 60.7095 56.7945C60.1409 56.8238 59.5844 56.969 59.074 57.2211C58.5635 57.4731 58.11 57.8267 57.7411 58.2603C57.3722 58.6939 57.0957 59.1984 56.9288 59.7427C56.2558 61.8896 57.1981 64.198 58.7191 65.6382C59.5864 66.4989 60.6588 67.1243 61.835 67.4553C62.9185 67.6976 64.0357 67.0919 64.8905 66.4323C65.7618 65.7374 66.4519 64.8419 66.9019 63.8223C67.3519 62.8027 67.5484 61.6893 67.4747 60.5772C67.3737 58.8476 66.5865 56.9161 65.1261 56.0344C64.5338 55.8796 63.9282 55.7652 63.3427 55.644C63.4629 55.7852 63.5401 55.9579 63.5652 56.1416C63.5902 56.3253 63.562 56.5123 63.484 56.6805ZM61.2698 60.1129C61.1643 60.6445 61.119 61.1863 61.135 61.728C61.135 62.0241 61.1688 62.3203 61.2024 62.6164C61.2052 62.6455 61.2052 62.6747 61.2024 62.7038H61.2967L61.9697 62.6164L63.2819 62.4212C64.1433 62.2866 65.005 62.1386 65.8664 61.9771C66.0788 61.9192 66.3055 61.9474 66.4971 62.0558C66.6887 62.1642 66.8297 62.3439 66.8894 62.5558C66.9547 62.7728 66.9346 63.0066 66.8332 63.2093C66.7319 63.4119 66.557 63.5682 66.3442 63.6461C64.5339 63.9894 62.7165 64.3192 60.886 64.5076C60.7511 64.5297 60.6134 64.5249 60.4804 64.4935C60.3475 64.4621 60.2221 64.4046 60.1114 64.3246C60.0007 64.2445 59.9068 64.1435 59.8354 64.027C59.7639 63.9106 59.716 63.7811 59.6947 63.6461C59.6007 63.2132 59.5334 62.775 59.493 62.3338C59.4254 61.4699 59.4729 60.6008 59.6343 59.7494C59.6545 59.6407 59.6958 59.537 59.7562 59.4443C59.8165 59.3516 59.8946 59.2717 59.9859 59.2092C60.0771 59.1467 60.1799 59.1026 60.2882 59.0799C60.3965 59.0571 60.5081 59.056 60.6168 59.0764C60.8361 59.1353 61.0252 59.2747 61.1462 59.4668C61.2672 59.659 61.3114 59.8897 61.2698 60.1129Z" fill="#00A99D"/>
<path d="M56.0739 61.0957C56.7469 58.5652 58.5641 56.9097 60.6706 55.7925C61.5207 55.5154 62.4301 55.4734 63.3021 55.6713H63.3425C63.2852 55.6066 63.2138 55.556 63.1339 55.5232C61.8646 54.9883 60.4449 54.9293 59.1356 55.3571C57.8263 55.7849 56.7151 56.6706 56.0065 57.8518C55.3695 58.9724 55.0493 60.2453 55.0802 61.5339C55.111 62.8226 55.4918 64.0785 56.1817 65.1674C55.7465 63.8503 55.709 62.434 56.0739 61.0957Z" fill="#1E1E1E"/>
<path d="M69.0153 59.6148C68.6048 57.0507 67.0838 54.621 64.6139 53.9682C63.5842 53.699 63.2276 55.4017 64.2573 55.6709C64.563 55.755 64.8553 55.882 65.1255 56.0479C65.948 56.2281 66.7173 56.5968 67.3733 57.1247C68.1334 57.793 68.7005 58.6529 69.0153 59.6148Z" fill="#1E1E1E"/>
<path d="M67.4745 60.5908C67.5482 61.7029 67.3517 62.8163 66.9017 63.8359C66.4517 64.8555 65.7616 65.751 64.8902 66.4459C64.0355 67.1189 62.9183 67.7112 61.8348 67.4689C60.6585 67.1379 59.5862 66.5125 58.7188 65.6518C57.1979 64.2116 56.2286 61.9032 56.9286 59.7563C57.0955 59.212 57.372 58.7075 57.7409 58.2739C58.1098 57.8403 58.5633 57.4866 59.0738 57.2345C59.5842 56.9824 60.1407 56.8374 60.7093 56.8081C61.2778 56.7788 61.8463 56.866 62.3799 57.0643C62.4765 57.1136 62.582 57.1433 62.6902 57.1513C62.7983 57.1594 62.9068 57.1457 63.0096 57.1113C63.1124 57.0768 63.2072 57.0222 63.2886 56.9506C63.37 56.8789 63.4365 56.7917 63.4838 56.6941C63.559 56.5276 63.5857 56.3432 63.5607 56.1622C63.5357 55.9812 63.4601 55.8109 63.3425 55.6711H63.302C62.43 55.4732 61.5206 55.5152 60.6705 55.7924C58.564 56.9095 56.767 58.5651 56.0738 61.0956C55.7076 62.436 55.7451 63.8548 56.1816 65.174C56.3229 65.4028 56.4644 65.6249 56.6259 65.847C57.6059 67.1424 58.9039 68.1625 60.3945 68.8082C61.0386 69.1133 61.7449 69.2643 62.4575 69.2492C63.1701 69.234 63.8693 69.0531 64.4998 68.7207C65.8369 68.0334 66.9682 67.0045 67.7791 65.7386C68.5899 64.4726 69.0513 63.0148 69.1166 61.5129C69.15 60.8874 69.1162 60.2602 69.0157 59.6419C68.7008 58.68 68.1338 57.82 67.3736 57.1517C66.7176 56.6238 65.9483 56.2553 65.1259 56.075C66.5594 56.9297 67.3735 58.8612 67.4745 60.5908Z" fill="#1E1E1E"/>
<path d="M60.6439 59.0765C60.5351 59.0561 60.4235 59.0572 60.3152 59.08C60.207 59.1028 60.1042 59.1468 60.0129 59.2093C59.9216 59.2718 59.8436 59.3517 59.7832 59.4444C59.7229 59.5371 59.6815 59.6408 59.6613 59.7495C59.5 60.6009 59.4525 61.47 59.52 62.3339C59.5604 62.7751 59.6277 63.2134 59.7218 63.6463C59.743 63.7812 59.7909 63.9107 59.8624 64.0271C59.9339 64.1436 60.0277 64.2446 60.1384 64.3247C60.2492 64.4048 60.3745 64.4622 60.5075 64.4936C60.6404 64.525 60.7782 64.5298 60.913 64.5077C62.7436 64.2924 64.5609 63.9895 66.3713 63.6463C66.5841 63.5683 66.7589 63.4121 66.8603 63.2094C66.9616 63.0067 66.9815 62.7729 66.9161 62.5559C66.8564 62.344 66.7157 62.1643 66.5241 62.0559C66.3325 61.9475 66.1055 61.9193 65.8932 61.9772C65.0317 62.1388 64.1704 62.2868 63.3089 62.4214L61.9968 62.6166L61.3238 62.704H61.2294C61.2322 62.6749 61.2322 62.6457 61.2294 62.6166C61.1958 62.3204 61.1688 62.0243 61.1621 61.7281C61.1461 61.1864 61.1914 60.6446 61.2968 60.113C61.3385 59.8898 61.2943 59.6591 61.1733 59.4669C61.0522 59.2748 60.8632 59.1354 60.6439 59.0765Z" fill="#1E1E1E"/>
</svg>
