<svg width="80" height="81" viewBox="0 0 80 81" fill="none" xmlns="http://www.w3.org/2000/svg">
<path d="M39.5285 74.214C31.7926 74.6686 24.0233 74.1203 16.3008 73.7793C15.0371 73.7259 15.0371 75.7852 16.3008 75.7852C24.0233 76.1262 31.7926 76.6811 39.5285 76.2265C40.7788 76.1797 40.819 74.1404 39.5285 74.214Z" fill="#00A99D"/>
<path d="M79.9133 14.3992C79.907 14.0575 79.8194 13.7222 79.6578 13.4211C79.4961 13.12 79.2652 12.8616 78.9839 12.6675C78.9839 13.1556 78.9839 13.6437 78.9839 14.1318C78.9839 14.7469 78.9839 15.3553 78.9839 15.9704C78.7098 18.8121 78.5828 21.6136 78.5293 24.4084C78.5293 25.8036 78.5293 27.201 78.5293 28.6006C78.5293 30.0047 78.5293 31.4088 78.5761 32.8263C78.6229 34.2437 78.6162 35.6612 78.6296 37.0987C78.6296 38.3914 78.6296 39.6952 78.6296 41.0101C78.9217 40.7456 79.1412 40.4108 79.2676 40.0375C79.394 39.6642 79.423 39.2648 79.3517 38.8773C78.6831 34.8656 79.3517 30.446 79.6525 26.4276C79.98 22.427 80.0671 18.4103 79.9133 14.3992Z" fill="#00A99D"/>
<path d="M76.9844 21.7608C76.9844 21.052 77.0378 20.35 77.0579 19.6413C77.0579 18.2305 77.1181 16.8063 77.1114 15.3688C77.1114 14.8138 77.1114 14.2656 77.1114 13.7106V12.2798C76.6204 12.356 76.1777 12.6191 75.8762 13.0142C75.5746 13.4092 75.4374 13.9055 75.4934 14.3993C75.928 22.884 73.7081 31.6697 75.0521 40.0742C75.0851 40.4969 75.2698 40.8934 75.572 41.1907C75.8743 41.488 76.2737 41.6661 76.6969 41.6922C76.6969 41.3646 76.6969 41.0236 76.6969 40.7094C77.1516 34.6651 76.1687 28.0591 76.9844 21.7608Z" fill="#00A99D"/>
<path d="M56.0572 14.4796C55.9083 14.0837 55.6465 13.7402 55.3042 13.4918C54.9619 13.2434 54.5541 13.101 54.1316 13.0822C44.6974 12.4804 35.2364 13.704 25.829 13.0354C25.3577 12.9785 24.8826 13.104 24.5009 13.3862C24.1192 13.6684 23.86 14.0859 23.7764 14.5532C34.5745 13.7375 45.259 14.1787 56.0572 14.4796Z" fill="#00A99D"/>
<path d="M24.1035 16.5256C24.2861 16.821 24.538 17.0675 24.8375 17.2434C25.137 17.4194 25.4748 17.5195 25.8218 17.5352C35.2293 18.2038 44.6902 16.9869 54.1244 17.5887C54.4855 17.6293 54.8505 17.5637 55.1748 17.3998C55.499 17.2359 55.7684 16.9808 55.9497 16.666C45.3722 16.4119 34.8682 16.0843 24.1035 16.5256Z" fill="#00A99D"/>
<path d="M50.8484 30.386C50.9293 29.9481 51.1255 29.5396 51.4167 29.2026C51.6066 28.9831 51.8435 28.8091 52.1096 28.6934C52.3758 28.5777 52.6645 28.5232 52.9545 28.534C40.1884 28.369 27.4223 28.3935 14.6561 28.6075C10.7381 28.6744 6.81775 28.7591 2.8952 28.8616C2.70446 28.7087 2.47787 28.6069 2.23687 28.566C1.99586 28.5251 1.74835 28.5462 1.51781 28.6276C1.32324 28.6932 1.15414 28.8182 1.03422 28.9848C0.914301 29.1515 0.849588 29.3516 0.849192 29.5569C0.768958 32.3183 0.849192 35.0797 0.849192 37.8411C0.849192 40.6025 0.695449 43.3371 0.555039 46.0851C0.27422 51.5277 -0.113584 56.9769 0.0468841 62.4328C0.116917 65.5255 0.391638 68.6101 0.86927 71.6664C0.928996 71.8848 1.06694 72.0736 1.25679 72.1968C1.44665 72.3201 1.6752 72.3693 1.89897 72.335C2.13208 72.3837 2.36952 72.4083 2.60766 72.4086H4.22574H6.4589C3.02221 71.7935 -0.367649 68.8649 1.81204 65.0538C1.86885 64.9513 1.93602 64.855 2.01258 64.7663C2.01258 64.5724 2.01258 64.3718 2.01258 64.1779C1.73461 63.7758 1.57861 63.302 1.56319 62.8134C1.54777 62.3248 1.6736 61.8421 1.92565 61.4232C1.8053 53.8678 2.59433 46.2657 2.73474 38.7237C2.78154 36.0492 2.73474 33.3747 2.73474 30.7003H2.86173C16.7244 30.3303 30.5892 30.1899 44.4564 30.279H47.2445C48.4468 30.2367 49.6507 30.2724 50.8484 30.386Z" fill="#1E1E1E"/>
<path d="M58.424 38.9509C58.3638 37.0654 58.2769 35.1799 58.1833 33.2944C57.9821 33.5909 57.7124 33.8345 57.3969 34.0045C57.0815 34.1744 56.7297 34.2657 56.3714 34.2706H56.3245C56.3245 34.9392 56.3245 35.6078 56.3245 36.2765H56.4182C56.8194 44.8496 56.7592 53.4381 56.2377 62.0048C56.1842 62.8807 56.1106 63.7566 56.0371 64.6258C56.5483 65.0317 56.9417 65.5667 57.1768 66.1756C57.4119 66.7845 57.4801 67.4452 57.3743 68.0892C57.3639 68.5739 57.2024 69.0432 56.9123 69.4316C56.6222 69.8199 56.218 70.108 55.7562 70.2556C53.2289 70.991 50.7617 70.7303 48.1741 70.6768C45.4423 70.6643 42.7134 70.8565 40.0104 71.2518C35.1027 71.9204 30.2352 72.3684 25.3008 72.6358L32.3613 72.6893C36.119 72.6893 39.8833 72.803 43.6342 72.6893C47.7796 72.5422 51.9585 71.6396 56.1039 72.0675C56.2651 72.0838 56.4266 72.041 56.5586 71.9472C56.7598 71.8839 56.9365 71.76 57.0646 71.5925C57.1926 71.4249 57.2658 71.2218 57.274 71.0111C58.4409 60.3669 58.8253 49.6514 58.424 38.9509Z" fill="#1E1E1E"/>
<path d="M54.9132 29.5034L54.9668 29.5502C55.0494 29.6018 55.1397 29.6402 55.2342 29.6639L55.4882 29.7107H55.6754C55.9095 29.7107 56.1368 29.7441 56.3441 29.7441C56.663 29.7521 56.9764 29.8292 57.2627 29.97C57.5489 30.1109 57.8012 30.3121 58.0022 30.5598C58.0022 30.3392 58.0022 30.1252 58.0022 29.8912C57.9935 29.637 57.8846 29.3966 57.6992 29.2225C57.5138 29.0483 57.2669 28.9546 57.0127 28.9619C56.9339 28.8388 56.8251 28.7379 56.6963 28.6689C56.5676 28.5998 56.4233 28.5649 56.2772 28.5674L53.001 28.5339C53.5828 28.5746 54.1341 28.8101 54.5656 29.2026L54.9132 29.5034Z" fill="#1E1E1E"/>
<path d="M39.268 70.7839C37.9308 70.7839 36.5534 70.7839 35.2028 70.7839L19.5104 70.6702C19.4251 70.708 19.3328 70.7275 19.2396 70.7275C19.1463 70.7275 19.054 70.708 18.9687 70.6702H16.7691C16.7026 71.0242 16.5355 71.3516 16.2877 71.613C16.1576 71.7292 15.9992 71.8093 15.8284 71.8451C15.6576 71.881 15.4805 71.8713 15.3146 71.8171C15.1487 71.763 15 71.6662 14.8833 71.5365C14.7665 71.4068 14.6859 71.2487 14.6495 71.0781C14.596 70.9443 14.5492 70.7972 14.5091 70.6568H14.148L8.13049 70.6167H5.12172H3.73772H2.80833V70.5699C2.73748 70.4427 2.63642 70.3348 2.5141 70.2557C2.26671 68.4838 2.10623 66.712 2.00594 64.9067C1.92938 64.9954 1.86221 65.0918 1.80541 65.1942C-0.374286 68.992 3.01557 71.9205 6.45226 72.549H9.79534L21.1618 72.6293L25.4343 72.6627C30.3687 72.3952 35.2362 71.9205 40.1439 71.2787C41.0331 71.165 41.9224 71.0647 42.8183 70.9711C41.6617 71.0001 40.5045 70.9487 39.3549 70.8173L39.268 70.7839Z" fill="#1E1E1E"/>
<path d="M56.0701 64.6123C55.9275 66.4309 55.7603 68.2473 55.5686 70.0615C52.366 69.8342 49.1766 70.3825 45.9873 70.6098C45.9902 70.6365 45.9902 70.6634 45.9873 70.69C46.7495 70.69 47.5051 70.6432 48.2606 70.69C50.8482 70.7435 53.3153 71.0043 55.8427 70.2688C56.3045 70.1212 56.7087 69.8332 56.9988 69.4448C57.2888 69.0564 57.4504 68.5871 57.4608 68.1025C57.5656 67.4494 57.4916 66.7801 57.2468 66.1656C57.0019 65.5511 56.5954 65.0143 56.0701 64.6123Z" fill="#1E1E1E"/>
<path d="M1.95904 64.2713C1.91223 63.3553 1.88549 62.4393 1.87211 61.5166C1.62005 61.9355 1.49415 62.4182 1.50956 62.9068C1.52498 63.3954 1.68107 63.8692 1.95904 64.2713Z" fill="#1E1E1E"/>
<path d="M58.0291 30.58C57.8281 30.3322 57.5759 30.131 57.2896 29.9902C57.0033 29.8493 56.6899 29.7723 56.371 29.7643C56.137 29.7643 55.9096 29.7643 55.7024 29.7308H55.5151L55.261 29.684C55.1665 29.6603 55.0763 29.6219 54.9936 29.5704L54.9401 29.5236L54.5857 29.2227C54.1542 28.8303 53.6031 28.5947 53.0212 28.5541C52.7312 28.5433 52.4424 28.5978 52.1763 28.7135C51.9101 28.8293 51.6733 29.0032 51.4833 29.2227C51.1922 29.5597 50.996 29.9682 50.915 30.4061H51.0621C51.1649 30.4094 51.2647 30.4419 51.3497 30.4997L56.2105 30.5466C56.2841 31.7768 56.3509 33.0004 56.411 34.2239H56.371V34.2841H56.4177C56.776 34.2792 57.1278 34.1879 57.4433 34.018C57.7587 33.848 58.0286 33.6044 58.2297 33.3079C58.1361 32.3919 58.0826 31.4625 58.0291 30.58Z" fill="#1E1E1E"/>
<path d="M64.7824 62.7871C63.8998 59.0763 64.8827 55.5126 64.4013 52.0157C64.4013 51.2803 64.3478 50.5448 64.3211 49.8093C64.1272 44.6476 63.9266 39.4524 64.642 34.05C64.642 33.3078 64.7022 32.5724 64.7289 31.8302C64.8025 29.6037 64.8626 27.3638 64.8492 25.1039C64.8492 24.4888 64.8492 23.8737 64.8492 23.2652C64.854 23.1205 64.8237 22.9768 64.7608 22.8464C64.698 22.7159 64.6044 22.6027 64.4882 22.5164C64.4256 22.3543 64.3124 22.2168 64.1655 22.1241C64.0186 22.0314 63.8458 21.9884 63.6725 22.0015C55.8898 22.1887 48.1539 21.7006 40.3846 21.3329C38.4255 21.2393 36.4731 21.1658 34.5208 21.1323C32.6374 21.0183 30.7478 21.0585 28.871 21.2527C26.9454 21.5335 24.9395 21.5402 23.0005 21.6538C21.0615 21.7675 19.0356 21.8678 17.0498 21.9146C14.5893 21.9614 12.1288 21.9146 9.69504 21.7608C8.78572 21.694 7.68925 21.7608 7.25465 22.5832C7.12366 22.9215 7.06888 23.2845 7.09419 23.6463C7.09419 24.2748 7.09419 24.9033 7.09419 25.5318C7.03815 26.0954 7.14979 26.6629 7.41511 27.1632C7.72936 27.6246 8.46482 27.8319 8.8125 27.3839C8.9902 27.0988 9.06341 26.7609 9.01973 26.4278C9.01973 25.5251 8.97963 24.6225 8.95288 23.7199C16.8626 24.0074 24.6721 23.3989 32.5484 22.9911C33.538 22.9443 34.5542 22.864 35.5237 22.864C36.1923 22.864 36.7941 22.864 37.4226 22.864C41.8221 23.4859 46.2417 23.994 50.7214 23.6731C51.3165 23.7399 51.9115 23.7934 52.5066 23.8402C55.4819 24.0542 58.4707 24.0475 61.4594 23.9873L62.9972 23.9539C62.9972 26.2539 62.937 28.5138 62.8835 30.7604C62.8835 31.5092 62.8836 32.2581 62.8301 33.0003C61.9475 42.3007 62.4355 50.9459 62.5091 59.8853C62.4956 60.68 62.5697 61.4738 62.7298 62.2523C62.8367 62.7604 63.2312 63.5895 63.0373 64.0976C62.8434 64.6058 62.1815 64.5389 61.7937 64.5055C61.0547 64.3655 60.3057 64.285 59.5538 64.2648C58.3637 64.345 58.3503 66.2706 59.5538 66.1904C60.8911 66.1035 62.1347 66.7454 63.4385 66.1904C63.7499 66.0693 64.0311 65.8815 64.2621 65.64C64.4932 65.3986 64.6684 65.1095 64.7757 64.793C64.962 64.1377 64.9643 63.4437 64.7824 62.7871Z" fill="#1E1E1E"/>
<path d="M23.7756 14.5531L22.9064 14.6133C21.7965 14.6133 20.6866 14.6133 19.5633 14.5799C18.44 14.5464 17.3502 14.4929 16.2202 14.4127C15.2574 14.3459 14.2946 14.62 14.1275 15.7499C14.0773 16.3105 14.0773 16.8743 14.1275 17.4349L14.1944 19.3538C14.1944 19.6003 14.2923 19.8367 14.4666 20.011C14.6409 20.1853 14.8772 20.2832 15.1237 20.2832C15.3702 20.2832 15.6066 20.1853 15.7809 20.011C15.9552 19.8367 16.0531 19.6003 16.0531 19.3538C16.0531 18.3576 15.9796 17.3479 15.9528 16.3584C16.0933 16.3584 16.2604 16.3584 16.3138 16.3584L17.7782 16.452C19.6904 16.5456 21.6093 16.5657 23.5349 16.5523H24.0565C23.7053 15.9482 23.6045 15.2306 23.7756 14.5531Z" fill="#1E1E1E"/>
<path d="M71.8498 55.4658C71.676 54.8409 71.5486 54.204 71.4686 53.5603C71.4285 52.7651 71.4285 51.9684 71.4686 51.1733C71.5087 49.582 71.5467 47.9862 71.5823 46.386C71.7294 39.9138 71.8274 33.4505 71.8765 26.9961C71.9121 23.3187 71.9278 19.6436 71.9233 15.9706C71.9304 15.8246 71.9011 15.6792 71.8381 15.5473C71.7751 15.4154 71.6803 15.3013 71.5622 15.2151C71.4988 15.0555 71.3862 14.9202 71.2408 14.8288C71.0953 14.7375 70.9246 14.6948 70.7532 14.7069C65.8188 14.7537 60.9246 14.6468 56.0437 14.5063C56.1886 14.8558 56.2548 15.2328 56.2374 15.6107C56.2201 15.9886 56.1197 16.3581 55.9434 16.6927C60.6905 16.7997 65.4578 16.9 70.2719 16.9C70.2719 19.9489 70.7599 22.4896 70.0111 25.4784C70.0111 26.9493 70.0111 28.4203 70.0111 29.8912C70.0111 31.3622 69.9776 32.8331 69.9575 34.3041C69.9174 37.3797 69.8662 40.4554 69.8038 43.531C69.7436 46.5465 69.6032 49.5486 69.5965 52.5774C69.5839 53.3717 69.6556 54.1651 69.8105 54.9443C69.9174 55.4591 70.3186 56.2815 70.1247 56.7964C69.9308 57.3112 69.2622 57.2376 68.8744 57.2042C68.1356 57.0621 67.3866 56.9794 66.6345 56.9568C65.4444 57.0371 65.431 58.9627 66.6345 58.8891C67.9718 58.8022 69.2154 59.4441 70.5192 58.8891C71.823 58.3342 72.1573 56.8699 71.8498 55.4658Z" fill="#1E1E1E"/>
<path d="M56.0565 14.4795C45.2584 14.1787 34.5739 13.7374 23.7757 14.5531C23.6278 15.229 23.7476 15.936 24.11 16.5255C34.8681 16.0775 45.372 16.4118 55.9562 16.6659C56.1326 16.3312 56.233 15.9618 56.2503 15.5839C56.2676 15.206 56.2015 14.829 56.0565 14.4795Z" fill="#1E1E1E"/>
<path d="M76.7037 41.6923C76.7037 41.8661 76.7037 42.04 76.7037 42.2138C76.7037 43.2167 76.6635 44.2197 76.6568 45.2293C76.6442 46.0236 76.7159 46.817 76.8708 47.5962C76.9778 48.111 77.379 48.9334 77.1851 49.4482C76.9912 49.9631 76.3226 49.8895 75.9348 49.8494C75.1958 49.7095 74.4468 49.629 73.6949 49.6087C72.5048 49.689 72.4981 51.6146 73.6949 51.541C75.0322 51.4474 76.2757 52.0893 77.5795 51.541C78.8833 50.9928 79.2377 49.5352 78.9168 48.1578C78.743 47.5329 78.6156 46.896 78.5357 46.2523C78.4822 45.4566 78.5357 44.661 78.5357 43.8653L78.5959 41.4717V41.0237C78.3417 41.2568 78.0431 41.4362 77.718 41.5511C77.3928 41.666 77.0479 41.714 76.7037 41.6923Z" fill="#1E1E1E"/>
<path d="M78.9836 12.6678C78.9836 11.3305 78.9836 9.99331 78.9836 8.61596C78.9896 8.47108 78.9598 8.32697 78.8968 8.19636C78.8338 8.06575 78.7397 7.95267 78.6226 7.86711C78.5594 7.70686 78.447 7.57074 78.3017 7.47825C78.1564 7.38577 77.9855 7.34167 77.8136 7.35227C60.4295 8.22816 43.7743 7.72001 26.6377 7.25867C25.5278 7.25867 24.4246 7.17175 23.2946 7.09151C22.3318 7.01797 21.3757 7.29879 21.2085 8.42875C21.1584 8.98927 21.1584 9.55315 21.2085 10.1137L21.2754 12.0326C21.2952 12.2663 21.402 12.4841 21.5747 12.6428C21.7475 12.8015 21.9735 12.8896 22.2081 12.8896C22.4427 12.8896 22.6686 12.8015 22.8414 12.6428C23.0141 12.4841 23.121 12.2663 23.1408 12.0326C23.1007 11.0364 23.0606 10.0267 23.0338 9.0305C23.1742 9.0305 23.3413 9.0305 23.3948 9.0305C23.8829 9.0305 24.371 9.09736 24.8591 9.11742C26.7714 9.21772 28.6903 9.24446 30.6092 9.29126C46.1947 9.7526 61.4057 10.2608 77.0848 9.29126C77.0848 10.2875 77.0848 11.2971 77.0848 12.2733C77.4116 12.2097 77.7479 12.2118 78.0739 12.2795C78.3999 12.3472 78.7092 12.4792 78.9836 12.6678Z" fill="#1E1E1E"/>
<path d="M78.5227 32.7997C78.5227 31.3823 78.4825 29.9782 78.4759 28.5741C78.4692 27.17 78.4759 25.7793 78.4759 24.3819C78.5294 21.587 78.6564 18.7855 78.9306 15.9439C78.9306 15.3288 78.9306 14.7203 78.9306 14.1052C78.9306 13.6171 78.9306 13.129 78.9306 12.6409C78.384 12.2712 77.7137 12.1319 77.0651 12.2531V13.684C77.0651 14.2389 77.0651 14.7872 77.0651 15.3421C77.0651 16.7797 77.0651 18.2038 77.0116 19.6146C77.0116 20.3233 76.9648 21.0254 76.9381 21.7341C76.1224 28.0325 77.1052 34.6384 76.684 40.6827C76.684 41.0103 76.684 41.3513 76.684 41.6656C77.0282 41.6873 77.3731 41.6392 77.6983 41.5244C78.0234 41.4095 78.322 41.2301 78.5762 40.997C78.5762 39.6597 78.5762 38.3559 78.5762 37.0856C78.5628 35.6614 78.5361 34.2373 78.5227 32.7997Z" fill="#1E1E1E"/>
<path d="M19.5104 70.6499H18.9688C19.054 70.6877 19.1463 70.7072 19.2396 70.7072C19.3328 70.7072 19.4251 70.6877 19.5104 70.6499Z" fill="#1E1E1E"/>
<path d="M14.6492 71.0377C14.6856 71.2084 14.7662 71.3665 14.8829 71.4962C14.9996 71.6259 15.1484 71.7226 15.3143 71.7768C15.4801 71.831 15.6573 71.8406 15.8281 71.8048C15.9988 71.7689 16.1572 71.6889 16.2873 71.5726C16.5352 71.3112 16.7023 70.9839 16.7687 70.6299H14.5088C14.5489 70.7569 14.5957 70.9107 14.6492 71.0377Z" fill="#1E1E1E"/>
<path d="M26.5376 78.0382C26.2997 78.0772 26.0834 78.1994 25.9273 78.3831C25.7712 78.5668 25.6855 78.8001 25.6855 79.0411C25.6855 79.2822 25.7712 79.5154 25.9273 79.6991C26.0834 79.8828 26.2997 80.0051 26.5376 80.044C28.8844 80.0975 31.2179 80.044 33.5781 79.8568C33.8413 79.8465 34.0903 79.7351 34.2733 79.5458C34.4564 79.3565 34.5594 79.1039 34.561 78.8405C34.5628 78.5762 34.4609 78.3216 34.2771 78.1316C34.0933 77.9416 33.8424 77.8312 33.5781 77.8242C31.238 78.0315 28.8844 78.0917 26.5376 78.0382Z" fill="#1E1E1E"/>
<path d="M37.3091 1.91627C37.144 1.68536 36.9291 1.49455 36.6802 1.35798C36.4314 1.2214 36.155 1.14256 35.8716 1.1273C35.1628 1.1273 34.6748 1.71569 34.2936 2.37762C34.1206 2.1532 33.9182 1.95305 33.6919 1.78255C33.3986 1.56517 33.0349 1.46463 32.6716 1.50047C32.3083 1.5363 31.9713 1.70596 31.7262 1.97645C31.5042 2.2298 31.3359 2.52548 31.2314 2.84565C31.2314 2.89245 31.1645 3.0128 31.1177 3.13984L30.877 2.89245L29.9276 1.92964C29.0249 1.02033 27.6342 2.45117 28.5369 3.36717C29.4395 4.28318 30.6898 6.14193 32.0872 5.27273C32.532 4.95069 32.8398 4.4735 32.9497 3.93549C33.1637 4.21631 33.371 4.49713 33.5783 4.78464C33.6648 4.93309 33.7887 5.05627 33.9377 5.14188C34.0867 5.22749 34.2555 5.27254 34.4273 5.27254C34.5992 5.27254 34.768 5.22749 34.917 5.14188C35.066 5.05627 35.19 4.93309 35.2765 4.78464C35.457 4.44364 35.6443 4.11602 35.8248 3.77502L35.9853 3.48084C36.1457 3.6413 36.3396 3.80845 36.4132 3.89537L37.3158 4.92505C37.4376 5.04742 37.5896 5.13533 37.7564 5.1798C37.9232 5.22426 38.0988 5.22369 38.2653 5.17815C38.4319 5.13262 38.5833 5.04374 38.7043 4.92058C38.8253 4.79742 38.9113 4.64438 38.9539 4.47707C39.0774 4.15978 39.2273 3.85337 39.4019 3.56107C39.8632 4.04247 40.3179 4.53056 40.7391 5.0454C40.8442 5.15438 40.9733 5.23723 41.1162 5.28732C41.2591 5.33741 41.4117 5.35335 41.5618 5.33385C41.712 5.31435 41.8554 5.25996 41.9808 5.17504C42.1061 5.09012 42.2098 4.97702 42.2836 4.84481L42.8252 3.94887L42.9857 3.66136C43.1729 3.80177 43.3601 3.95555 43.5473 4.08927L44.8845 5.02534C45.5531 5.49337 46.3154 4.85819 46.3555 4.14945C46.3788 4.01875 46.4432 3.89891 46.5394 3.80748C46.6356 3.71604 46.7586 3.65781 46.8904 3.6413C47.1184 3.63633 47.3445 3.68521 47.5501 3.78396C47.7557 3.8827 47.9351 4.02853 48.0738 4.20963C48.8829 5.00528 50.0262 5.39976 50.8486 4.38347C51.0722 4.04042 51.2498 3.66951 51.3768 3.28025C51.5106 2.98606 51.4638 2.98606 51.7111 3.14653C52.0439 3.42383 52.3149 3.76775 52.5068 4.15614C52.8108 4.64882 53.1976 5.08536 53.6501 5.44657C53.7808 5.524 53.9278 5.56985 54.0794 5.58048C54.2309 5.5911 54.3828 5.56621 54.5231 5.50777C54.6633 5.44934 54.788 5.35898 54.8872 5.24389C54.9863 5.1288 55.0572 4.99215 55.0943 4.84481C55.1545 4.40353 55.2214 3.96224 55.2882 3.50758C55.2882 3.45409 55.2882 3.36717 55.2882 3.27356L55.3283 3.31368C55.5891 3.55438 55.8699 3.78171 56.1508 3.9823C56.6684 4.44793 57.2727 4.80692 57.9292 5.03871C58.999 5.30616 59.7479 4.43027 60.0354 3.47415C60.1491 3.66805 60.3095 3.86195 60.4232 4.0291C60.5967 4.30279 60.8326 4.53151 61.1115 4.69653C61.3904 4.86155 61.7044 4.95819 62.0279 4.97854C63.1511 4.97854 63.8064 4.19626 64.1541 3.24682C64.3346 3.41397 64.5085 3.60118 64.6622 3.72822C65.1153 4.11986 65.6829 4.35442 66.2802 4.39684C66.5641 4.41213 66.8475 4.35943 67.1068 4.24314C67.3661 4.12685 67.594 3.95031 67.7713 3.72822C67.8961 3.57333 67.9954 3.39954 68.0655 3.21339C68.2393 3.43403 68.4065 3.66804 68.5001 3.77502C68.762 4.12485 69.0701 4.4375 69.4161 4.70441C69.5902 4.8256 69.7868 4.91091 69.9942 4.95536C70.2016 4.9998 70.4158 5.0025 70.6243 4.96329C70.8328 4.92408 71.0314 4.84375 71.2085 4.72698C71.3856 4.61021 71.5378 4.45934 71.656 4.28317C71.8536 3.98038 72.0089 3.65193 72.1173 3.30699C72.2043 3.09972 72.251 2.92588 72.378 2.89914C73.0466 2.77879 73.4612 3.87532 73.7153 4.32329C73.7884 4.45598 73.8917 4.56967 74.0168 4.65524C74.1418 4.74081 74.2851 4.79589 74.4353 4.81604C74.5855 4.83619 74.7383 4.82087 74.8815 4.77129C75.0247 4.72171 75.1542 4.63927 75.2598 4.53056C75.5866 4.1568 75.8651 3.74348 76.0889 3.30031C76.6945 3.99235 77.4026 4.58763 78.1884 5.06545C79.2849 5.73407 80.2744 3.97561 79.1846 3.31368C78.0682 2.63492 77.1611 1.66075 76.5636 0.498805C76.0688 -0.437258 74.7984 0.0642022 74.7383 1.01364C74.7135 1.33103 74.646 1.64364 74.5377 1.94301C74.2389 1.51197 73.8121 1.18579 73.3178 1.01061C72.8234 0.835425 72.2866 0.820113 71.783 0.966835C71.4247 1.11 71.105 1.33519 70.8496 1.62433C70.5941 1.91347 70.41 2.25849 70.312 2.63169L70.2653 2.73867C70.0981 2.55146 69.9376 2.35756 69.7772 2.16366C69.2089 1.49504 68.587 0.565667 67.5975 0.786311C67.2742 0.882353 66.9867 1.07209 66.7713 1.33154C66.5558 1.59099 66.4222 1.90849 66.3872 2.2439C66.3872 2.12354 66.3872 2.24389 66.3538 2.34418C66.0968 2.27054 65.8654 2.12703 65.6852 1.92964C65.1249 1.29762 64.3462 0.901081 63.5056 0.819738C63.2868 0.82204 63.0749 0.89678 62.9031 1.03227C62.7313 1.16776 62.6093 1.35637 62.5561 1.56859C62.5365 1.93361 62.4644 2.29391 62.3421 2.63838C62.2953 2.73198 62.1817 2.8189 62.1482 2.89245V2.92588C61.7003 2.47122 61.4796 1.84272 60.938 1.46161C59.7813 0.692701 58.4374 1.52847 58.1432 2.79884C57.9226 2.61832 57.5281 2.45785 57.3475 2.31744C56.8392 1.80355 56.294 1.32756 55.7162 0.893287C55.5474 0.790984 55.359 0.725239 55.1632 0.700295C54.9674 0.675352 54.7686 0.691767 54.5795 0.748481C54.3905 0.805195 54.2154 0.900946 54.0657 1.02954C53.9159 1.15814 53.7949 1.31672 53.7103 1.49504C53.6297 1.66944 53.5648 1.85069 53.5164 2.03662C53.1571 1.57601 52.6681 1.23365 52.1123 1.05375C51.8035 0.952386 51.474 0.931114 51.1548 0.991928C50.8355 1.05274 50.5369 1.19365 50.287 1.40144C49.9261 1.75585 49.6595 2.19483 49.5114 2.67849C49.3242 2.50465 49.0166 2.28401 48.9564 2.23052C48.4008 1.79657 47.7158 1.56118 47.0107 1.5619C46.6217 1.56674 46.2388 1.66018 45.8913 1.83512C45.5437 2.01005 45.2406 2.2619 45.0049 2.57152L44.2961 2.07005C43.9074 1.68916 43.4096 1.43907 42.872 1.35463C42.2033 1.35463 41.7019 1.92296 41.3141 2.56483C40.9063 2.11686 40.485 1.68225 40.0437 1.26771C39.9539 1.1749 39.8464 1.1011 39.7275 1.05069C39.6087 1.00029 39.4809 0.974313 39.3518 0.974313C39.2226 0.974313 39.0948 1.00029 38.9759 1.05069C38.857 1.1011 38.7495 1.1749 38.6597 1.26771C38.3583 1.6206 38.0877 1.99864 37.8507 2.39767L37.3091 1.91627Z" fill="#00A99D"/>
<path d="M37.9106 36.8581L35.6106 38.4026C35.0588 37.8242 34.4668 37.2858 33.8388 36.7912C33.6475 36.6097 33.3938 36.5085 33.13 36.5085C32.8663 36.5085 32.6126 36.6097 32.4212 36.7912L31.084 38.075C30.2955 37.4962 29.5534 36.8569 28.8642 36.1627C28.6737 35.9797 28.4198 35.8774 28.1556 35.8774C27.8913 35.8774 27.6373 35.9797 27.4468 36.1627C27.0786 36.4611 26.7545 36.81 26.484 37.1991L24.5851 35.5743C24.3945 35.3913 24.1406 35.2891 23.8764 35.2891C23.6122 35.2891 23.3582 35.3913 23.1676 35.5743C22.6912 36.0493 22.2614 36.5687 21.8839 37.1255C21.6026 36.7497 21.3521 36.3517 21.1351 35.9354C21.0563 35.8042 20.949 35.6925 20.821 35.6087C20.6931 35.5248 20.5478 35.4708 20.3961 35.4509C20.2444 35.431 20.0902 35.4456 19.9449 35.4936C19.7996 35.5416 19.667 35.6218 19.5571 35.7281C18.9901 36.205 18.3866 36.6365 17.7518 37.0186L16.8158 35.8953C16.6252 35.7122 16.3713 35.61 16.1071 35.61C15.8428 35.61 15.5888 35.7122 15.3983 35.8953C15.0164 36.2039 14.6587 36.5415 14.3285 36.9049L13.3256 35.7148C13.1367 35.5286 12.8821 35.4242 12.6168 35.4242C12.3516 35.4242 12.097 35.5286 11.9081 35.7148L10.611 36.9784L9.09328 35.5944C8.90355 35.4098 8.64923 35.3065 8.38451 35.3065C8.11978 35.3065 7.86555 35.4098 7.67582 35.5944L6.04435 37.6671C5.25538 38.67 6.65947 40.1009 7.46181 39.0846L8.4982 37.7474L9.92236 39.0378C10.1129 39.2208 10.3668 39.3231 10.6311 39.3231C10.8953 39.3231 11.1493 39.2208 11.3398 39.0378L12.5433 37.8677L13.6197 39.1448C13.7298 39.2503 13.8622 39.3298 14.0069 39.3776C14.1517 39.4254 14.3053 39.4403 14.4566 39.421C14.6078 39.4018 14.7529 39.349 14.8812 39.2665C15.0094 39.184 15.1176 39.0739 15.1978 38.9442C15.4399 38.6155 15.7081 38.3069 16.0001 38.0215L16.8091 38.9977C16.9669 39.1533 17.1716 39.2527 17.3915 39.2805C17.6114 39.3083 17.8344 39.263 18.026 39.1515C18.7088 38.7797 19.3656 38.362 19.9917 37.9011C20.3845 38.4821 20.8323 39.024 21.3289 39.5192C21.4372 39.627 21.5687 39.7087 21.7133 39.7579C21.858 39.8072 22.012 39.8228 22.1636 39.8034C22.3152 39.7841 22.4604 39.7303 22.588 39.6463C22.7157 39.5623 22.8224 39.4502 22.9002 39.3186C23.2012 38.729 23.5643 38.1731 23.9833 37.6604L26.1095 39.4858C26.2359 39.6047 26.3904 39.6896 26.5586 39.7324C26.7268 39.7752 26.9032 39.7745 27.071 39.7303C27.2389 39.6862 27.3927 39.6001 27.5181 39.4801C27.6435 39.3601 27.7363 39.2102 27.7878 39.0445C27.8961 38.776 28.045 38.5257 28.2291 38.3023C29.0089 39.0353 29.845 39.706 30.7297 40.3082C30.9219 40.4175 31.1443 40.4616 31.3637 40.4339C31.5831 40.4061 31.7876 40.3081 31.9466 40.1544L33.2103 38.9107C33.7705 39.3941 34.2977 39.9146 34.7882 40.4686C34.9454 40.6253 35.1502 40.7254 35.3704 40.7532C35.5906 40.7811 35.8138 40.735 36.0051 40.6224L38.947 38.6166C39.9833 37.8677 38.9804 36.1427 37.9106 36.8581Z" fill="#00A99D"/>
<path d="M30.9568 47.5092C23.0359 47.0634 15.1062 46.9988 7.16747 47.3153C5.88372 47.3621 5.87704 49.3679 7.16747 49.3211C15.0973 49.0225 23.027 49.0871 30.9568 49.515C32.2473 49.5953 32.2406 47.5894 30.9568 47.5092Z" fill="#1E1E1E"/>
<path d="M49.8389 52.8582C38.6195 52.5774 27.3979 52.466 16.1741 52.5239C12.9513 52.5239 9.72864 52.5529 6.50591 52.6108C5.21548 52.6108 5.21548 54.6167 6.50591 54.6167C17.7298 54.4696 28.9514 54.4852 40.1707 54.6635C43.3935 54.717 46.6162 54.7838 49.8389 54.8641C51.1294 54.9042 51.1294 52.8983 49.8389 52.8582Z" fill="#1E1E1E"/>
<path d="M24.5249 58.3743C18.5055 58.9614 12.4496 59.0777 6.41209 58.722C5.12166 58.6485 5.12835 60.6543 6.41209 60.7279C12.4496 61.0835 18.5055 60.9673 24.5249 60.3802C25.7953 60.2598 25.8086 58.254 24.5249 58.3743Z" fill="#1E1E1E"/>
<path d="M54.0777 58.4478C46.1836 58.3007 38.2873 58.274 30.3887 58.3676C30.1227 58.3676 29.8676 58.4733 29.6795 58.6613C29.4914 58.8494 29.3857 59.1045 29.3857 59.3705C29.3857 59.6365 29.4914 59.8916 29.6795 60.0797C29.8676 60.2678 30.1227 60.3734 30.3887 60.3734C38.2828 60.2798 46.1791 60.3066 54.0777 60.4537C54.3437 60.4537 54.5988 60.348 54.7869 60.1599C54.975 59.9718 55.0806 59.7167 55.0806 59.4507C55.0806 59.1848 54.975 58.9297 54.7869 58.7416C54.5988 58.5535 54.3437 58.4478 54.0777 58.4478Z" fill="#1E1E1E"/>
<path d="M41.2468 64.7263C29.9784 64.5124 18.7122 64.4254 7.44824 64.4656C7.18225 64.4656 6.92714 64.5712 6.73906 64.7593C6.55097 64.9474 6.44531 65.2025 6.44531 65.4685C6.44531 65.7345 6.55097 65.9896 6.73906 66.1777C6.92714 66.3657 7.18225 66.4714 7.44824 66.4714C18.7167 66.4313 29.9829 66.5182 41.2468 66.7322C42.5373 66.7589 42.5373 64.7531 41.2468 64.7263Z" fill="#1E1E1E"/>
<path d="M61.185 30.3124C60.844 28.5406 59.0454 27.3638 57.4274 26.8958C55.7302 26.4724 53.9638 26.4041 52.2389 26.6952C52.0288 26.5992 51.7904 26.5849 51.5703 26.6551C50.3138 26.8806 49.1929 27.5824 48.4412 28.6141C47.6718 29.8079 47.2803 31.206 47.3179 32.6258C47.3179 33.963 47.4115 35.3939 48.2473 36.5305C49.062 37.5798 50.1767 38.3564 51.4433 38.757C53.7634 39.5928 56.946 39.8469 59.0522 38.3157C59.9333 37.5857 60.5219 36.5626 60.7103 35.434C61.4008 33.8186 61.5668 32.0272 61.185 30.3124Z" fill="#00A99D"/>
<path d="M59.4003 29.2626C57.274 26.3207 53.3827 24.823 49.8323 25.1306C49.6809 25.1439 49.5342 25.1896 49.4019 25.2644C49.2697 25.3393 49.155 25.4416 49.0657 25.5646C48.9763 25.6875 48.9144 25.8281 48.884 25.977C48.8536 26.1259 48.8555 26.2796 48.8895 26.4277C47.8821 26.722 46.9701 27.277 46.2458 28.0365C45.5214 28.7961 45.0104 29.7334 44.7642 30.7537C44.4601 32.4166 44.695 34.1333 45.4346 35.6535C46.1743 37.1736 47.3801 38.4179 48.8762 39.205C50.5208 39.916 52.3097 40.2298 54.0981 40.121C54.9366 40.2044 55.7825 40.0725 56.5559 39.7379C57.3292 39.4033 58.0044 38.877 58.5176 38.2087C60.6706 35.775 61.3927 32.024 59.4003 29.2626ZM57.9092 35.6279C57.3877 36.584 56.4984 37.7808 55.3685 38.0349C54.0039 38.2513 52.6107 38.2059 51.2632 37.9012C50.0166 37.6299 48.8914 36.9621 48.0561 35.9979C47.2208 35.0336 46.7203 33.8247 46.6296 32.5522C46.4825 29.3563 49.2506 27.8719 52.1324 27.9588C52.3213 27.973 52.5096 27.9261 52.6698 27.825C52.8299 27.7238 52.9533 27.5738 53.0216 27.3972C54.3501 27.7147 55.5863 28.3374 56.6322 29.2158C57.5998 29.9394 58.2655 30.9953 58.5013 32.1804C58.7371 33.3654 58.5262 34.5957 57.9092 35.6346V35.6279Z" fill="#1E1E1E"/>
<path d="M51.517 30.0316C51.2814 30.151 51.1012 30.3568 51.0139 30.6061C50.9267 30.8553 50.9393 31.1286 51.049 31.3688C51.1158 31.536 51.1826 31.6965 51.2428 31.8636L51.3364 32.1177V32.1979C51.4367 32.5255 51.5236 32.8665 51.5972 33.1875C51.6707 33.5084 51.7242 33.8561 51.7643 34.2038C51.7643 34.3776 51.8044 34.5581 51.8178 34.732C51.8312 34.9058 51.8178 34.8924 51.8178 34.966C51.8178 34.6985 51.8178 35.0329 51.8178 35.0863C51.8024 35.3551 51.8884 35.6199 52.0586 35.8285C52.2289 36.0244 52.4686 36.1467 52.7272 36.1695C52.9915 36.1882 53.2526 36.1028 53.455 35.9317C53.6573 35.7606 53.7849 35.5173 53.8103 35.2535C53.7848 33.622 53.4465 32.0105 52.814 30.5063C52.6986 30.2772 52.5004 30.1006 52.2594 30.0124C52.0185 29.9243 51.753 29.9311 51.517 30.0316Z" fill="#1E1E1E"/>
<path d="M55.4084 31.8903C55.2777 31.6666 55.0676 31.5003 54.8197 31.4247C54.5718 31.3491 54.3045 31.3697 54.0712 31.4825L53.5898 31.7098L53.3424 31.8101H53.2689C52.9479 31.9238 52.6003 32.0307 52.2927 32.1177C51.9851 32.2046 51.6241 32.2781 51.2831 32.3383C51.1093 32.3383 50.9354 32.3985 50.7549 32.4185C50.6813 32.4185 50.6011 32.4185 50.5276 32.4185C50.795 32.4185 50.4607 32.4185 50.4072 32.4185C50.1376 32.4176 49.8776 32.5178 49.6784 32.6994C49.536 32.8365 49.4373 33.0126 49.3947 33.2056C49.3521 33.3987 49.3674 33.6 49.4388 33.7843C49.5103 33.9686 49.6346 34.1277 49.7962 34.2416C49.9577 34.3555 50.1494 34.4191 50.347 34.4244C51.9722 34.3122 53.5608 33.89 55.0273 33.1808C55.2372 33.0491 55.3918 32.8453 55.462 32.6076C55.5322 32.37 55.5131 32.1149 55.4084 31.8903Z" fill="#1E1E1E"/>
</svg>
