<svg width="169" height="149" viewBox="0 0 169 149" fill="none" xmlns="http://www.w3.org/2000/svg">
<path d="M28.0288 82.1551C27.6329 81.8215 27.5447 81.2929 27.792 80.8521C28.0719 80.374 28.7081 80.1961 29.2485 80.5216C29.7493 80.8137 30.2431 81.0351 30.7696 81.219C32.2372 81.7416 33.8542 81.9357 35.3642 81.78C35.942 81.7476 36.4894 82.1439 36.5449 82.7099C36.6005 83.2759 36.2484 83.7581 35.6775 83.8612C33.8459 84.0704 31.9331 83.8218 30.1299 83.2113C29.452 82.9647 28.8068 82.6807 28.2268 82.3218C28.108 82.2218 28.0684 82.1884 28.0288 82.1551ZM24.1107 76.6473C23.9127 76.4805 23.787 76.3097 23.7592 76.0267C23.564 75.1483 23.4737 74.2285 23.4278 73.0216C23.3819 71.8147 23.3805 70.3207 23.7402 68.8065C23.8687 68.2658 24.4188 67.9504 24.9779 68.097C25.5371 68.2435 25.8816 68.7934 25.7531 69.3342C25.4378 70.5613 25.4649 71.9471 25.4969 73.0125C25.5289 74.0778 25.6519 74.9602 25.7609 75.7012C25.8887 76.2632 25.504 76.7827 24.933 76.8858C24.6837 76.9354 24.3482 76.8474 24.1107 76.6473ZM40.638 80.382C40.2025 80.0151 40.1073 79.4157 40.4664 79.0043C41.5485 77.4497 42.2603 75.4533 42.6159 73.1568C42.7048 72.5827 43.2153 72.2339 43.807 72.3431C44.3988 72.4523 44.776 72.9647 44.6871 73.5389C44.2544 76.1598 43.4586 78.4099 42.2132 80.1515C42.2132 80.1515 42.1806 80.1889 42.148 80.2263C41.8285 80.6711 41.1457 80.7449 40.6776 80.4153C40.6776 80.4153 40.6776 80.4153 40.638 80.382ZM28.7146 65.4689C28.5563 65.3354 28.391 65.1313 28.3305 64.8856C28.2027 64.3236 28.5875 63.8041 29.1584 63.701C31.1928 63.3381 33.6974 63.6959 36.5931 64.7076C37.1196 64.8916 37.4315 65.4789 37.303 66.0196C37.1349 66.5271 36.5452 66.8091 35.9861 66.6625C33.4655 65.772 31.2568 65.4688 29.6488 65.7367C29.2877 65.7569 28.9522 65.669 28.7146 65.4689ZM41.933 69.5311C41.5371 69.1975 41.4093 68.6355 41.6962 68.2282C41.9761 67.7501 42.6519 67.6055 43.12 67.935L43.3902 68.0978C45.2885 69.3077 47.2847 70.4054 49.1691 71.4738C49.6699 71.7659 49.8769 72.3946 49.597 72.8727C49.3171 73.3508 48.6809 73.5287 48.1801 73.2366C46.263 72.2056 44.1876 71.0412 42.2498 69.7979L42.0192 69.6686C42.0122 69.5978 41.9726 69.5644 41.933 69.5311ZM54.2083 76.563C53.8124 76.2295 53.6846 75.6675 53.9714 75.2601C54.2513 74.782 54.9271 74.6375 55.3953 74.967L55.6259 75.0964C57.3262 76.1395 59.4342 77.2665 61.5214 78.1812C62.0549 78.436 62.2945 79.0273 62.0938 79.5721C61.8535 80.0835 61.2569 80.2948 60.6908 80.0775C58.4918 79.1334 56.3441 77.9731 54.532 76.9006L54.3014 76.7713C54.2875 76.6298 54.2479 76.5964 54.2083 76.563ZM43.202 67.2901C43.004 67.1234 42.8317 66.8484 42.804 66.5654C42.7532 65.6789 42.6629 64.7591 42.533 63.8059C42.3683 62.499 42.1315 61.1961 41.8619 59.9306C41.7341 59.3686 42.0793 58.8157 42.6502 58.7125C43.2212 58.6094 43.8012 58.9683 43.929 59.5303C44.2054 60.8665 44.4493 62.2402 44.6535 63.5805C44.7904 64.6045 44.848 65.5617 44.9384 66.4815C44.9939 67.0475 44.53 67.5004 43.9521 67.5327C43.6632 67.5489 43.3999 67.4569 43.202 67.2901ZM67.1065 82.1728C66.8294 81.9393 66.6828 81.5562 66.753 81.161C66.8815 80.6202 67.392 80.2715 67.9837 80.3807C69.9174 80.8416 71.5274 80.9649 72.7811 80.788C73.352 80.6848 73.8994 81.0811 73.9945 81.6805C74.1223 82.2425 73.7376 82.762 73.127 82.8318C71.5844 83.0248 69.7181 82.8803 67.5608 82.3608C67.3767 82.3355 67.2253 82.2729 67.1065 82.1728ZM40.1483 53.9436C40.0295 53.8436 39.9038 53.6727 39.8177 53.5353C38.9591 51.449 37.9235 49.4082 36.7899 47.4797C36.485 46.9631 36.6461 46.385 37.1239 46.0736C37.6414 45.7957 38.2401 45.9756 38.5777 46.4547C39.83 48.4833 40.9122 50.6282 41.8173 52.8186C42.05 53.3392 41.784 53.9588 41.22 54.1327C40.8332 54.261 40.4254 54.1771 40.1483 53.9436ZM35.1826 42.9453C34.6908 43.1151 34.1247 42.8977 33.8594 42.4146C32.9307 40.7235 31.4964 39.0608 29.5307 37.5345C29.0952 37.1676 28.9605 36.5349 29.3522 36.0861C29.7113 35.6747 30.3544 35.5675 30.8295 35.9678C32.9931 37.6608 34.665 39.5237 35.7264 41.4563C35.7264 41.4563 35.7333 41.5271 35.7729 41.5605C36.0056 42.081 35.8118 42.6966 35.2874 42.9038C35.2152 42.9079 35.2152 42.9079 35.1826 42.9453Z" fill="#1E1E1E"/>
<path d="M40.704 43.6439C43.2489 47.289 45.0579 51.3198 46.0615 55.5387C46.163 56.086 46.9585 56.35 47.4056 56.1786C48.0063 56 48.1607 55.4408 48.008 54.8959C46.9861 50.4771 45.061 46.3011 42.3999 42.5109C41.629 41.3926 39.8819 42.528 40.704 43.6439Z" fill="#1E1E1E"/>
<path d="M28.9854 85.2777C24.4921 82.7902 19.7676 77.5766 21.1315 72.2355C21.4795 70.971 19.3687 70.5556 19.0603 71.8535C18.3013 74.8485 19.3571 78.2043 21.0658 80.8121C22.8141 83.4533 25.3479 85.5881 28.1151 87.1406C29.3077 87.8209 30.1779 85.958 28.9854 85.2777Z" fill="#FBB03B"/>
<path d="M146.524 72.8236C146.196 72.5954 145.716 72.5491 145.364 72.7213C145.055 72.8702 144.869 73.1635 144.853 73.5511L143.155 107.396L142.93 107.358C126.177 104.642 109.237 102.73 92.5844 101.666C88.3043 101.393 83.9254 101.173 79.1799 100.99L78.9599 100.979L80.7419 65.1953L80.9415 65.1983C97.7491 65.5641 114.645 66.903 131.162 69.1832C135.901 69.8353 140.773 70.5924 145.641 71.4296C145.997 71.4924 146.269 71.4009 146.452 71.1611C146.672 70.8706 146.72 70.3984 146.565 70.0033C146.478 69.7815 146.247 69.3936 145.7 69.3015C128.653 66.374 111.357 64.4387 94.2823 63.5546C89.5122 63.3023 84.6076 63.1329 79.7132 63.0447C79.3759 63.037 79.1089 63.1559 78.9128 63.3879C78.7014 63.6522 78.6089 64.0336 78.676 64.3879L78.6826 64.3951L76.8198 101.708C76.8081 101.975 76.874 102.202 77.0111 102.374L77.0559 102.452C77.1977 102.832 77.5118 103.053 77.9246 103.067C85.9312 103.351 94.0601 103.833 102.092 104.495C111.084 105.236 120.142 106.217 129.004 107.417C133.771 108.058 138.637 108.788 143.473 109.576C143.501 109.578 143.535 109.587 143.562 109.59C143.768 109.607 143.949 109.568 144.098 109.473L144.147 109.443L144.202 109.448C144.637 109.444 145.164 109.205 145.194 108.517L146.939 73.7231C146.956 73.3422 146.812 73.0217 146.524 72.8236Z" fill="#1E1E1E"/>
<path d="M86.1189 68.1C85.8861 67.7522 85.5949 67.48 85.2098 67.3074C84.8453 67.1365 84.4245 67.1488 84.0731 67.3076C83.8762 67.3987 83.7572 67.5968 83.7273 67.809C83.6163 67.8267 83.5113 67.865 83.4116 67.9373C82.8709 68.3287 82.7874 69.1333 83.0857 69.7146C83.4035 70.3243 84.0842 70.6688 84.7492 70.7438C85.1604 70.7911 85.5504 70.6958 85.877 70.4745C86.1183 70.3133 86.2888 70.039 86.3695 69.7706C86.5308 69.2339 86.4419 68.5894 86.1189 68.1ZM84.639 68.5414C84.6321 68.5409 84.6321 68.5409 84.625 68.547C84.6459 68.542 84.6665 68.5437 84.6805 68.5382C84.6942 68.5393 84.7077 68.5471 84.7142 68.5544C84.7411 68.57 84.7677 68.5923 84.7946 68.6079C84.8406 68.6587 84.8866 68.7094 84.9326 68.7601C84.958 68.8092 84.9834 68.8582 85.0088 68.9073C85.033 68.9831 85.0504 69.0583 85.0609 69.1329C85.0654 69.1869 85.0631 69.2404 85.0539 69.2933C85.0455 69.3262 85.0375 69.3523 85.0223 69.3846L85.0151 69.3907L85.008 69.3968C85.0011 69.3963 84.994 69.4024 84.994 69.4024C84.9731 69.4074 84.9522 69.4124 84.9247 69.4101C84.8558 69.4111 84.7874 69.3988 84.7188 69.3931C84.637 69.373 84.5624 69.3467 84.4812 69.3132C84.4409 69.2897 84.4009 69.2596 84.3608 69.2295C84.3411 69.2077 84.3211 69.1927 84.3083 69.1715C84.302 69.1576 84.2891 69.1364 84.2829 69.1224C84.2766 69.1085 84.2775 69.0885 84.2712 69.0745C84.2721 69.0545 84.2726 69.0411 84.2735 69.0211C84.2738 69.0144 84.2741 69.0077 84.2813 69.0016C84.2816 68.9949 84.2884 68.9955 84.2887 68.9888C84.3165 68.9844 84.3239 68.9716 84.3379 68.966C84.4587 68.8821 84.5281 68.7134 84.5483 68.5675C84.5832 68.557 84.611 68.5526 84.639 68.5414Z" fill="#1E1E1E"/>
<path d="M91.1417 68.5609C91.0811 68.2138 90.911 67.851 90.6538 67.5884C90.3638 67.2895 89.9592 67.0885 89.5393 67.0807C89.2501 67.077 88.9783 67.1485 88.7448 67.2902C88.5657 67.2889 88.412 67.3366 88.2695 67.4455C87.715 67.8358 87.4885 68.6019 87.632 69.2576C87.7072 69.5857 87.8853 69.9224 88.144 70.1516C88.2963 70.2916 88.4432 70.3976 88.6322 70.4869C88.8278 70.5836 89.0048 70.6317 89.2164 70.6759C89.9948 70.834 90.8465 70.4213 91.0924 69.6836C91.2112 69.3312 91.2082 68.9286 91.1417 68.5609ZM89.4861 68.4513C89.4933 68.4452 89.5005 68.439 89.5076 68.4329C89.5145 68.4335 89.5285 68.4279 89.5354 68.4285C89.5491 68.4296 89.5628 68.4308 89.5765 68.4319C89.59 68.4397 89.6037 68.4408 89.6171 68.4487C89.6306 68.4565 89.6372 68.4637 89.6506 68.4715C89.6637 68.486 89.6769 68.5005 89.69 68.515C89.7157 68.5574 89.7346 68.5992 89.7534 68.641C89.7776 68.7168 89.795 68.792 89.8055 68.8666C89.8077 68.9741 89.8033 69.0744 89.7917 69.1807C89.7837 69.2069 89.7757 69.233 89.7673 69.2659C89.767 69.2726 89.7602 69.272 89.7599 69.2787C89.7456 69.2909 89.7381 69.3037 89.7241 69.3093C89.6958 69.3271 89.6609 69.3376 89.6325 69.3554C89.5976 69.3659 89.563 69.3698 89.5284 69.3736C89.4735 69.3691 89.4185 69.3646 89.3636 69.3601C89.3159 69.3494 89.2753 69.3327 89.2278 69.3153C89.1875 69.2919 89.1472 69.2684 89.1072 69.2383C89.0875 69.2166 89.0677 69.1948 89.048 69.1731C89.0355 69.1452 89.0226 69.124 89.0101 69.0962C88.9981 69.0549 88.9864 69.007 88.9813 68.9664C88.9834 68.9196 88.9851 68.8795 88.9872 68.8327C89.0029 68.7871 89.019 68.7347 89.0348 68.6891C89.2013 68.6626 89.363 68.5887 89.4861 68.4513Z" fill="#1E1E1E"/>
<path d="M95.5232 68.2513C95.1967 67.5269 94.3756 67.0836 93.6062 67.0336C93.3657 67.0205 93.133 67.1422 93.0007 67.3325C93.0007 67.3325 92.9938 67.3319 92.9935 67.3386C92.5037 67.6671 92.1999 68.3128 92.2362 68.8993C92.2604 69.2903 92.3761 69.6352 92.6238 69.9575C92.8192 70.215 93.1073 70.3997 93.405 70.5249C93.9937 70.7679 94.7549 70.6898 95.201 70.2571C95.7336 69.7376 95.8303 68.9474 95.5232 68.2513ZM94.3158 69.0774C94.3072 69.117 94.2917 69.1559 94.2762 69.1949C94.2616 69.2138 94.247 69.2327 94.2393 69.2522C94.2321 69.2583 94.2178 69.2706 94.2106 69.2767C94.1894 69.2883 94.1686 69.2933 94.1474 69.305C94.1265 69.31 94.1056 69.315 94.0779 69.3194C94.0298 69.3154 93.9818 69.3115 93.9337 69.3075C93.8928 69.2974 93.8522 69.2807 93.8116 69.2639C93.7779 69.2477 93.7513 69.2254 93.7247 69.2031C93.7047 69.188 93.6919 69.1668 93.6721 69.1451C93.6593 69.1239 93.6467 69.0961 93.6339 69.0749C93.6219 69.0336 93.6102 68.9857 93.6051 68.9451C93.6072 68.8983 93.6092 68.8515 93.6113 68.8047C93.6276 68.7457 93.6437 68.6934 93.6666 68.6416C93.6964 68.5904 93.726 68.5459 93.7623 68.5019C93.7838 68.4836 93.8053 68.4652 93.8267 68.4469C93.8673 68.4636 93.9151 68.4743 93.9557 68.491C94.016 68.5296 94.0763 68.5681 94.1364 68.6132C94.1692 68.6495 94.2089 68.6863 94.2415 68.7292C94.2606 68.7643 94.2801 68.7928 94.2923 68.8273C94.3043 68.8685 94.316 68.9165 94.3211 68.9571C94.3196 68.9905 94.3179 69.0306 94.3158 69.0774Z" fill="#1E1E1E"/>
<path d="M115.438 69.5573C112.866 69.305 110.293 69.0595 107.72 68.8072C106.396 68.678 106.309 70.6829 107.633 70.8121C110.205 71.0644 112.778 71.3099 115.35 71.5622C116.674 71.6914 116.762 69.6865 115.438 69.5573Z" fill="#1E1E1E"/>
<path d="M127.324 70.6174L123.947 70.3324C123.405 70.2877 122.862 70.243 122.327 70.1922C121.833 70.1514 121.228 70.115 120.813 70.007C120.288 69.8632 119.667 70.0534 119.512 70.604C119.374 71.089 119.613 71.7459 120.179 71.8998C121.329 72.2093 122.548 72.2292 123.722 72.326L127.236 72.6223C127.771 72.6664 128.313 72.2483 128.31 71.7047C128.306 71.1545 127.9 70.6649 127.324 70.6174Z" fill="#1E1E1E"/>
<path d="M141.542 72.2252C138.668 71.7871 135.781 71.4754 132.889 71.284C131.563 71.1948 131.475 73.1997 132.801 73.2889C135.693 73.4803 138.58 73.792 141.454 74.2301C142.008 74.316 142.505 73.8271 142.528 73.3125C142.553 72.7378 142.096 72.3044 141.542 72.2252Z" fill="#1E1E1E"/>
<path d="M106.119 60.7138C98.0147 59.9788 89.8998 59.4911 81.7878 59.2518C80.4598 59.2161 80.4614 61.2217 81.7961 61.2646C89.9081 61.5039 98.0229 61.9916 106.127 62.7266C107.451 62.8492 107.443 60.8364 106.119 60.7138Z" fill="#00A99D"/>
<path d="M148.569 103.335C149.516 102.957 150.424 102.529 151.313 102.032C151.836 101.74 152.084 100.949 151.568 100.47C151.25 100.176 150.926 99.8742 150.608 99.5798C150.495 99.4766 150.288 99.3454 150.211 99.2117C150.204 99.1977 150.198 99.1905 150.191 99.1832C150.198 99.1771 150.213 99.1716 150.227 99.1593C150.478 98.9385 150.915 98.8606 151.212 98.6838C151.524 98.4949 151.789 98.2485 151.982 97.9357C152.353 97.3224 152.191 96.6249 151.683 96.1069C151.433 95.8515 151.133 95.6255 150.846 95.4074C150.826 95.3923 150.813 95.3845 150.793 95.3694C150.849 95.3472 150.905 95.3183 150.961 95.2961C151.369 95.1151 151.77 94.9134 152.107 94.6259C152.736 94.0943 152.902 93.2964 152.262 92.6534C151.886 92.2736 151.389 91.9778 150.969 91.6548C150.969 91.6548 150.949 91.6397 150.936 91.6252C151.803 91.3345 153.051 91.0014 152.933 89.9118C152.875 89.3504 152.393 88.868 151.886 88.4908C152.082 88.4332 152.278 88.3621 152.454 88.2693C153.3 87.836 153.354 86.9082 152.759 86.1951C152.457 85.8349 152.079 85.5153 151.72 85.2174C151.713 85.2102 151.706 85.2096 151.7 85.2024C152.278 85.0555 152.766 84.7604 152.974 84.1001C153.359 82.8709 151.512 81.7797 150.723 81.0708C149.729 80.1839 148.224 81.502 149.225 82.3961C149.59 82.7212 149.948 83.0391 150.313 83.3643C150.091 83.3863 149.869 83.4217 149.703 83.4415C149.294 83.495 148.936 83.66 148.734 84.0189C148.354 84.6784 148.741 85.4347 149.307 85.8905C149.659 86.1744 150.063 86.4022 150.415 86.6995C150.422 86.7 150.421 86.7067 150.428 86.7073C150.304 86.7171 150.18 86.7203 150.061 86.7508C149.449 86.8815 148.948 87.3164 148.845 87.925C148.744 88.5135 149.059 89.0224 149.554 89.3517C149.762 89.4895 149.97 89.6073 150.178 89.7384C149.87 89.8539 149.535 89.9537 149.24 90.0903C148.719 90.3358 148.282 90.7224 148.255 91.3305C148.23 91.9119 148.631 92.3474 149.07 92.6989C149.336 92.9153 149.617 93.1128 149.89 93.3232C149.93 93.3533 150.004 93.3996 150.084 93.4532C149.866 93.5493 149.642 93.6381 149.424 93.7408C148.917 93.9808 148.375 94.2647 148.151 94.7963C147.913 95.3735 148.163 95.9442 148.642 96.3391C148.702 96.391 149.317 96.8173 149.751 97.1214C149.463 97.2586 149.175 97.369 148.919 97.5559C148.457 97.8933 148.07 98.3779 148.037 98.9788C147.99 99.7329 148.487 100.351 149.063 100.888C148.584 101.117 148.099 101.331 147.601 101.532C146.368 102.014 147.364 103.813 148.569 103.335Z" fill="#00A99D"/>
<path d="M119.378 84.0342C116.704 80.4468 112.17 79.0603 107.959 79.565C107.776 79.0268 107.195 78.5899 106.541 78.8915C104.714 79.7268 103.472 81.3281 102.737 83.1657C101.955 85.1402 101.494 87.6375 101.661 89.7909C101.835 91.9515 103.058 93.9236 104.36 95.6474C105.63 97.3282 107.399 98.4666 109.438 98.9365C111.327 99.3739 113.32 99.3436 115.171 98.9127C117.266 98.4281 118.846 97.2772 119.905 95.4328C121.948 91.8921 121.955 87.4861 119.378 84.0342Z" fill="#FBB03B"/>
<path d="M122.551 84.4231C122.037 83.5692 120.881 83.8562 120.651 84.5416C119.001 80.9983 115.529 78.4787 111.539 78.3577C109.441 78.2921 107.165 78.8021 105.713 80.3391C104.196 81.9445 103.586 84.2284 103.299 86.3912C103.001 88.6203 102.98 90.9995 103.912 93.1422C104.77 95.1043 106.427 96.7567 108.282 97.8151C112.032 99.9552 116.696 99.964 120.001 97.3255C121.786 95.9031 122.81 93.915 123.191 91.6727C123.589 89.3446 123.854 86.5897 122.551 84.4231ZM121.336 90.2991C121.151 92.0009 120.715 93.6082 119.584 94.8967C117.408 97.3868 113.822 97.9564 110.684 96.7722C109.057 96.1552 107.547 95.0851 106.507 93.6713C105.415 92.1862 105.105 90.4437 105.155 88.6771C105.203 86.7963 105.468 84.8262 106.28 83.1357C107.053 81.5227 108.371 80.699 110.146 80.4362C114.029 79.8641 117.929 82.352 119.164 86.1025C119.51 87.1572 121.017 87.0466 121.178 86.2014C121.609 87.518 121.484 88.9498 121.336 90.2991Z" fill="#1E1E1E"/>
<path d="M116.387 86.4169C115.775 87.339 115.122 88.2376 114.43 89.0994C114.102 89.5084 113.768 89.9101 113.427 90.3045C113.289 90.4675 113.143 90.6433 112.99 90.8253C112.918 90.7388 112.84 90.6519 112.768 90.5654C112.486 90.227 112.212 89.8825 111.945 89.5318C111.45 88.8806 110.997 88.2128 110.566 87.52C110.276 87.0534 109.709 86.7987 109.195 87.0448C108.738 87.262 108.482 87.9116 108.771 88.3849C109.402 89.4027 110.089 90.3849 110.833 91.3249C111.505 92.1717 112.654 93.9432 113.838 92.8737C114.67 92.1173 115.386 91.1837 116.086 90.309C116.793 89.4283 117.459 88.5174 118.086 87.5764C118.794 86.508 117.088 85.3546 116.387 86.4169Z" fill="#1E1E1E"/>
<path d="M100.012 81.0497C94.6175 80.5917 89.2167 80.2673 83.8175 80.0638C82.5175 80.017 82.4228 82.0213 83.7296 82.0687C89.1288 82.2722 94.5293 82.6033 99.9245 83.0547C101.229 83.1621 101.317 81.1572 100.012 81.0497Z" fill="#1E1E1E"/>
<path d="M96.1997 85.5177C92.0296 85.4087 87.8656 85.1594 83.7012 84.7625C82.3978 84.635 82.31 86.6399 83.6133 86.7675C87.7777 87.1643 91.9414 87.4203 96.1118 87.5226C97.4056 87.5554 97.5003 85.5511 96.1997 85.5177Z" fill="#1E1E1E"/>
<path d="M99.8535 90.8022C94.366 90.5713 88.8813 90.1193 83.4128 89.4539C82.1109 89.293 82.0299 91.2984 83.3249 91.4588C88.7931 92.1309 94.2778 92.5829 99.7657 92.8072C101.065 92.8606 101.16 90.8563 99.8535 90.8022Z" fill="#1E1E1E"/>
<path d="M126.551 95.1825C131.094 95.5704 135.637 95.824 140.185 95.9574C141.279 95.9872 141.374 93.9829 140.273 93.9525C135.725 93.8191 131.183 93.5588 126.639 93.1775C125.547 93.0809 125.459 95.0858 126.551 95.1825Z" fill="#1E1E1E"/>
<path d="M129.8 90.6681C133.311 90.7227 136.816 90.9177 140.322 91.2603C141.419 91.3709 141.507 89.366 140.41 89.2554C136.904 88.9128 133.4 88.7112 129.888 88.6632C128.793 88.6468 128.699 90.6511 129.8 90.6681Z" fill="#1E1E1E"/>
<path d="M126.757 85.4338C131.38 85.5934 135.993 85.9736 140.596 86.5677C141.692 86.7117 141.773 84.7062 140.684 84.5628C136.081 83.962 131.468 83.5819 126.845 83.4289C125.751 83.3924 125.657 85.3967 126.757 85.4338Z" fill="#1E1E1E"/>
</svg>
