<svg width="302" height="329" viewBox="0 0 302 329" fill="none" xmlns="http://www.w3.org/2000/svg">
<path d="M136.271 327.602C100.101 331.07 59.933 323.981 43.6622 299.033C27.3914 274.085 35.0092 231.263 28.5443 192.927C22.3741 154.674 2.41482 120.969 8.46783 94.9095C14.704 68.7434 47.2544 50.2999 79.1265 36.214C110.923 22.4162 142.238 12.8612 174.412 13.202C206.776 13.4322 240.186 23.4585 261.341 44.8324C282.786 66.2813 291.775 99.1854 297.446 131.541C302.934 164.004 305.101 195.929 294.415 223.445C283.73 250.96 260.376 273.959 232.454 292.189C204.64 310.599 172.546 324.326 136.271 327.602Z" fill="#F8F8F8"/>
<path d="M21.1429 153.863C22.7217 151.946 23.4933 149.581 24.0513 147.154C24.3955 146.544 24.1581 145.834 23.6239 145.448C22.4606 144.614 21.2023 143.942 19.9202 143.345C19.2079 143.021 18.4957 142.71 17.7716 142.399C17.0949 142.112 16.3945 141.714 15.6348 141.926C14.7682 142.175 14.4596 142.996 14.1509 143.78C13.866 144.502 13.5811 145.224 13.3081 145.959C12.7502 147.452 12.2397 148.959 11.7768 150.49C11.6581 150.876 11.7768 151.436 12.0854 151.697C13.1894 152.631 14.5902 152.867 15.9553 153.129C17.3205 153.39 18.6856 153.639 19.9914 154.174C20.3475 154.336 20.8936 154.174 21.1429 153.863ZM16.0384 145.498C16.1571 145.199 16.2758 144.901 16.3945 144.602C16.4064 144.577 16.4183 144.552 16.4302 144.527C16.8338 144.714 17.2849 144.863 17.6647 145.025C18.1989 145.249 18.7212 145.486 19.2436 145.735C20.0626 146.133 20.858 146.594 21.6415 147.079C21.2616 148.635 20.7868 150.203 19.9083 151.523C18.9468 151.199 17.9615 151 16.9643 150.813C16.3589 150.701 15.7535 150.577 15.1481 150.44C14.9225 150.39 14.6495 150.34 14.3884 150.253C14.7089 149.27 15.0175 148.274 15.3736 147.303C15.5754 146.693 15.801 146.096 16.0384 145.498Z" fill="#FBB03B"/>
<path d="M129.31 11.9971C130.889 10.0801 131.661 7.71503 132.219 5.28769C132.563 4.67774 132.326 3.96821 131.791 3.58233C130.628 2.74832 129.37 2.07613 128.088 1.47863C127.375 1.15499 126.663 0.843788 125.939 0.532591C125.262 0.246289 124.562 -0.152044 123.802 0.0595699C122.936 0.308528 122.627 1.13009 122.318 1.91431C122.034 2.63629 121.749 3.35827 121.476 4.09269C120.918 5.58644 120.407 7.09264 119.944 8.62373C119.826 9.00961 119.944 9.56977 120.253 9.83118C121.357 10.7648 122.758 11.0013 124.123 11.2627C125.488 11.5241 126.853 11.7731 128.159 12.3083C128.515 12.4701 129.061 12.3083 129.31 11.9971ZM124.206 3.63212C124.325 3.33337 124.443 3.03462 124.562 2.73587C124.574 2.71097 124.586 2.68608 124.598 2.66118C125.001 2.8479 125.452 2.99728 125.832 3.1591C126.366 3.38316 126.889 3.61967 127.411 3.86863C128.23 4.26696 129.025 4.72754 129.809 5.213C129.429 6.76899 128.954 8.33743 128.076 9.65691C127.114 9.33326 126.129 9.13409 125.132 8.94737C124.526 8.83534 123.921 8.71087 123.316 8.57394C123.09 8.52415 122.817 8.47435 122.556 8.38722C122.876 7.40383 123.185 6.408 123.541 5.43707C123.743 4.82712 123.969 4.22962 124.206 3.63212Z" fill="#FBB03B"/>
<path d="M255.784 156.338C257.362 154.421 258.134 152.055 258.692 149.628C259.036 149.018 258.799 148.309 258.265 147.923C257.101 147.089 255.843 146.417 254.561 145.819C253.849 145.495 253.136 145.184 252.412 144.873C251.736 144.587 251.035 144.188 250.275 144.4C249.409 144.649 249.1 145.47 248.792 146.255C248.507 146.977 248.222 147.699 247.949 148.433C247.391 149.927 246.88 151.433 246.417 152.964C246.299 153.35 246.417 153.91 246.726 154.172C247.83 155.105 249.231 155.342 250.596 155.603C251.961 155.864 253.326 156.113 254.632 156.649C254.988 156.811 255.534 156.649 255.784 156.338ZM250.679 147.973C250.798 147.674 250.916 147.375 251.035 147.076C251.047 147.051 251.059 147.026 251.071 147.002C251.474 147.188 251.925 147.338 252.305 147.5C252.84 147.724 253.362 147.96 253.884 148.209C254.703 148.607 255.499 149.068 256.282 149.553C255.902 151.109 255.427 152.678 254.549 153.997C253.587 153.674 252.602 153.475 251.605 153.288C251 153.176 250.394 153.051 249.789 152.914C249.563 152.865 249.29 152.815 249.029 152.728C249.35 151.744 249.658 150.748 250.014 149.777C250.216 149.168 250.442 148.57 250.679 147.973Z" fill="#FBB03B"/>
<path d="M5.80659 192.482C8.27188 192.847 10.6781 192.285 13.0212 191.506C13.7202 191.486 14.1888 190.914 14.2248 190.254C14.2979 188.82 14.1836 187.388 13.9937 185.974C13.8812 185.193 13.7582 184.419 13.6288 183.634C13.5041 182.903 13.4608 182.093 12.8725 181.549C12.195 180.932 11.3372 181.092 10.5108 181.233C9.74964 181.362 8.98846 181.491 8.22322 181.637C6.66539 181.931 5.12274 182.273 3.5848 182.668C3.19609 182.766 2.78904 183.159 2.73588 183.56C2.54694 184.995 3.10465 186.323 3.62218 187.634C4.13972 188.945 4.66772 190.25 4.92284 191.652C4.97909 192.042 5.41017 192.428 5.80659 192.482ZM10.0855 183.749C10.4009 183.696 10.7163 183.644 11.0317 183.591C11.059 183.588 11.0864 183.585 11.1138 183.583C11.1747 184.027 11.2927 184.493 11.3618 184.904C11.4619 185.48 11.5451 186.052 11.6178 186.631C11.7252 187.543 11.7674 188.467 11.7823 189.393C10.2683 189.873 8.69254 190.277 7.10816 190.205C6.861 189.209 6.49631 188.258 6.11473 187.303C5.88194 186.723 5.65962 186.137 5.44777 185.545C5.36781 185.325 5.26221 185.064 5.19444 184.794C6.19474 184.56 7.19909 184.31 8.20815 184.113C8.83021 183.97 9.45463 183.854 10.0855 183.749Z" fill="#DCDCDC"/>
<path d="M80.6919 75.3597C83.1571 75.7249 85.5633 75.1628 87.9064 74.3844C88.6054 74.3645 89.074 73.7922 89.11 73.1322C89.1832 71.6981 89.0689 70.2661 88.8789 68.8525C88.7664 68.0714 88.6434 67.2968 88.514 66.512C88.3894 65.7809 88.3461 64.9714 87.7577 64.427C87.0802 63.81 86.2224 63.9703 85.3961 64.1112C84.6349 64.2403 83.8737 64.3694 83.1085 64.5152C81.5507 64.8095 80.008 65.151 78.4701 65.5464C78.0814 65.6443 77.6743 66.037 77.6212 66.4383C77.4322 67.8729 77.9899 69.2016 78.5075 70.5125C79.025 71.8234 79.553 73.1278 79.8081 74.5297C79.8644 74.9202 80.2954 75.3064 80.6919 75.3597ZM84.9707 66.6271C85.2861 66.5744 85.6015 66.5217 85.917 66.4689C85.9443 66.4663 85.9717 66.4636 85.999 66.4609C86.06 66.9052 86.178 67.371 86.2471 67.782C86.3472 68.3581 86.4304 68.9305 86.5031 69.5093C86.6105 70.421 86.6527 71.3446 86.6676 72.2709C85.1536 72.7508 83.5778 73.1553 81.9934 73.0832C81.7463 72.0875 81.3816 71.1359 81 70.1806C80.7672 69.6012 80.5449 69.0154 80.333 68.4232C80.2531 68.2032 80.1475 67.9423 80.0797 67.6723C81.08 67.4383 82.0844 67.1876 83.0934 66.9907C83.7155 66.8482 84.3399 66.7325 84.9707 66.6271Z" fill="#00A99D"/>
<path d="M278.722 58.0388C281.187 58.4041 283.593 57.8419 285.936 57.0636C286.635 57.0437 287.104 56.4713 287.14 55.8113C287.213 54.3772 287.099 52.9453 286.909 51.5316C286.796 50.7506 286.673 49.976 286.544 49.1911C286.419 48.4601 286.376 47.6505 285.788 47.1062C285.11 46.4892 284.252 46.6495 283.426 46.7904C282.665 46.9195 281.904 47.0486 281.139 47.1944C279.581 47.4886 278.038 47.8302 276.5 48.2256C276.111 48.3235 275.704 48.7161 275.651 49.1174C275.462 50.5521 276.02 51.8807 276.537 53.1916C277.055 54.5025 277.583 55.807 277.838 57.2088C277.894 57.5993 278.325 57.9856 278.722 58.0388ZM283.001 49.3062C283.316 49.2535 283.632 49.2008 283.947 49.1481C283.974 49.1454 284.002 49.1427 284.029 49.14C284.09 49.5843 284.208 50.0502 284.277 50.4612C284.377 51.0373 284.46 51.6096 284.533 52.1884C284.641 53.1002 284.683 54.0238 284.698 54.9501C283.184 55.4299 281.608 55.8344 280.023 55.7623C279.776 54.7667 279.412 53.8151 279.03 52.8597C278.797 52.2804 278.575 51.6946 278.363 51.1023C278.283 50.8823 278.178 50.6214 278.11 50.3514C279.11 50.1174 280.114 49.8667 281.123 49.6699C281.746 49.5273 282.37 49.4117 283.001 49.3062Z" fill="#DCDCDC"/>
<path d="M223.806 193.306C226.271 193.672 228.677 193.11 231.02 192.331C231.719 192.311 232.188 191.739 232.224 191.079C232.297 189.645 232.183 188.213 231.993 186.799C231.88 186.018 231.757 185.244 231.628 184.459C231.503 183.728 231.46 182.918 230.872 182.374C230.194 181.757 229.336 181.917 228.51 182.058C227.749 182.187 226.988 182.316 226.222 182.462C224.665 182.756 223.122 183.098 221.584 183.493C221.195 183.591 220.788 183.984 220.735 184.385C220.546 185.82 221.104 187.148 221.621 188.459C222.139 189.77 222.667 191.075 222.922 192.476C222.978 192.867 223.409 193.253 223.806 193.306ZM228.085 184.574C228.4 184.521 228.716 184.468 229.031 184.416C229.058 184.413 229.086 184.41 229.113 184.408C229.174 184.852 229.292 185.318 229.361 185.729C229.461 186.305 229.544 186.877 229.617 187.456C229.724 188.368 229.767 189.291 229.782 190.218C228.268 190.698 226.692 191.102 225.107 191.03C224.86 190.034 224.496 189.083 224.114 188.127C223.881 187.548 223.659 186.962 223.447 186.37C223.367 186.15 223.261 185.889 223.194 185.619C224.194 185.385 225.198 185.134 226.207 184.937C226.829 184.795 227.454 184.679 228.085 184.574Z" fill="#00A99D"/>
</svg>
