<svg width="342" height="192" viewBox="0 0 342 192" fill="none" xmlns="http://www.w3.org/2000/svg">
<path d="M65.5925 177.841C64.4336 177.634 63.6588 176.693 63.6447 175.544C63.6523 174.284 64.7029 173.211 66.1371 173.237C67.4554 173.243 68.6795 173.118 69.9254 172.881C73.4097 172.242 76.8145 170.785 79.611 168.762C80.7122 168.041 82.2405 168.199 82.9935 169.251C83.7466 170.302 83.6013 171.652 82.5942 172.504C79.2253 174.999 75.1758 176.684 70.931 177.532C69.3156 177.817 67.722 177.991 66.1719 177.944C65.8243 177.882 65.7084 177.861 65.5925 177.841ZM51.6146 171.449C51.0352 171.346 50.5934 171.152 50.2169 170.627C48.8338 169.119 47.6102 167.41 46.1477 165.086C44.6852 162.761 42.9838 159.821 41.9707 156.43C41.6089 155.219 42.3337 153.973 43.6013 153.626C44.869 153.278 46.1726 153.97 46.5345 155.181C47.3087 157.956 48.9377 160.654 50.2119 162.715C51.4862 164.777 52.7316 166.375 53.7887 167.71C54.6794 168.671 54.5123 170.132 53.5053 170.984C53.0706 171.365 52.3099 171.573 51.6146 171.449ZM88.407 160.013C87.1322 159.786 86.2633 158.714 86.5027 157.495C86.8661 153.204 85.9982 148.463 84.0874 143.536C83.6096 142.305 84.2185 141.037 85.5079 140.58C86.7974 140.122 88.1227 140.702 88.6004 141.934C90.7284 147.587 91.7192 152.923 91.247 157.768C91.247 157.768 91.2253 157.879 91.2035 157.99C91.08 159.229 89.8194 160.151 88.5228 160.034C88.5228 160.034 88.5229 160.034 88.407 160.013ZM47.9718 144.202C47.5082 144.119 46.9505 143.905 46.5523 143.49C45.6616 142.529 45.8286 141.068 46.8357 140.216C50.4293 137.188 55.7682 135.045 62.6208 133.745C63.8668 133.509 65.1486 134.311 65.5104 135.522C65.7564 136.712 64.9158 137.938 63.6481 138.285C57.672 139.397 52.9778 141.312 50.116 143.667C49.4277 144.118 48.6671 144.326 47.9718 144.202ZM78.6205 137.173C77.4616 136.966 76.5709 136.005 76.6727 134.876C76.6803 133.617 77.8468 132.564 79.1433 132.68L79.8603 132.694C84.9741 132.918 90.1531 132.81 95.0786 132.771C96.3969 132.777 97.5194 133.78 97.5118 135.04C97.5042 136.299 96.4536 137.373 95.1353 137.367C90.188 137.517 84.7772 137.583 79.5475 137.338L78.9463 137.346C78.8522 137.214 78.7363 137.193 78.6205 137.173ZM110.788 137.064C109.629 136.857 108.739 135.896 108.84 134.768C108.848 133.508 110.015 132.455 111.311 132.572L111.912 132.564C116.447 132.685 121.879 132.508 127.029 131.936C128.369 131.831 129.514 132.723 129.738 134.024C129.846 135.305 128.911 136.399 127.55 136.615C122.146 137.256 116.597 137.413 111.809 137.361L111.208 137.368C111.02 137.105 110.904 137.085 110.788 137.064ZM78.5714 131.317C77.992 131.214 77.3402 130.868 76.9637 130.342C75.8559 128.654 74.6323 126.946 73.2927 125.216C71.4826 122.83 69.5348 120.534 67.5652 118.348C66.6746 117.387 66.7257 115.905 67.7328 115.053C68.7398 114.201 70.2899 114.248 71.1806 115.21C73.2443 117.527 75.2862 119.954 77.2123 122.362C78.6459 124.222 79.8478 126.042 81.0714 127.751C81.8244 128.802 81.4257 130.221 80.3245 130.942C79.7739 131.302 79.1509 131.421 78.5714 131.317ZM142.566 133.447C141.755 133.302 141.031 132.714 140.719 131.856C140.358 130.645 140.966 129.378 142.256 128.92C146.588 127.629 149.898 126.042 152.166 124.268C153.173 123.416 154.701 123.574 155.57 124.646C156.461 125.607 156.294 127.068 155.171 127.899C152.353 130.033 148.513 131.871 143.674 133.3C143.283 133.46 142.914 133.509 142.566 133.447ZM57.3838 108.507C57.0362 108.445 56.5944 108.251 56.2685 108.078C52.2059 104.946 47.8462 102.105 43.4212 99.5957C42.2335 98.9253 41.8935 97.6035 42.4805 96.4471C43.1834 95.3114 44.567 94.985 45.7765 95.5447C50.5491 98.1157 55.1188 101.109 59.3914 104.394C60.4415 105.154 60.6222 106.677 59.7093 107.66C59.0934 108.353 58.1951 108.651 57.3838 108.507ZM35.1007 92.4939C34.3254 93.3874 32.9635 93.603 31.8917 92.9532C28.1403 90.679 23.4253 89.0354 17.8192 88.2646C16.5444 88.0372 15.5596 86.9444 15.8208 85.6153C16.0602 84.3969 17.2049 83.4546 18.5955 83.7027C24.7811 84.5768 30.1914 86.3444 34.4787 88.9436C34.4787 88.9436 34.5728 89.075 34.6887 89.0957C35.7388 89.8562 36.0571 91.2887 35.26 92.293C35.1224 92.3831 35.1224 92.3831 35.1007 92.4939Z" fill="#1E1E1E"/>
<path d="M46.768 87.5921C55.9239 91.8768 64.069 97.7576 70.8418 104.925C71.6641 105.887 73.5307 105.502 74.2162 104.657C75.196 103.622 74.8644 102.345 73.944 101.446C66.9079 93.9058 58.3691 87.8712 48.8195 83.4328C46.0299 82.1071 43.8804 86.3294 46.768 87.5921Z" fill="#1E1E1E"/>
<path d="M71.0261 182.903C59.3497 183.113 44.1183 178.217 40.7319 166.149C39.9794 163.263 35.3504 164.845 36.2188 167.751C38.1291 174.512 44.0236 179.92 50.3534 183.113C56.7991 186.326 64.2159 187.649 71.4303 187.56C74.5522 187.544 74.148 182.886 71.0261 182.903Z" fill="#FBB03B"/>
<path d="M288.329 24.7428C287.424 24.6658 286.426 25.1207 285.928 25.86C285.488 26.5052 285.457 27.2931 285.864 28.0758L321.002 96.6548L320.514 96.8351C284.436 110.535 248.904 126.028 214.9 142.866C206.162 147.196 197.289 151.741 187.736 156.776L187.29 157.003L150.115 84.5112L150.512 84.2902C184.026 65.9012 218.82 49.3282 253.938 35.0396C264.012 30.936 274.466 26.8876 285.005 23.0012C285.777 22.7207 286.21 22.2304 286.297 21.5504C286.399 20.729 285.957 19.7442 285.203 19.1423C284.78 18.8042 283.884 18.3029 282.702 18.7437C245.804 32.3598 209.542 48.2142 174.914 65.8856C165.234 70.8121 155.383 76.0546 145.644 81.4457C144.971 81.814 144.581 82.3516 144.458 83.0315C144.342 83.7923 144.594 84.6485 145.129 85.2698L145.15 85.2767L183.904 160.872C184.185 161.412 184.572 161.784 185.038 161.967L185.215 162.069C185.927 162.657 186.796 162.734 187.624 162.292C203.715 153.749 220.271 145.456 236.839 137.628C255.39 128.864 274.343 120.498 293.158 112.785C303.274 108.628 313.687 104.532 324.106 100.585C324.163 100.558 324.24 100.538 324.297 100.511C324.722 100.311 325.034 100.029 325.219 99.6723L325.283 99.558L325.396 99.5045C326.246 99.002 327.014 97.9335 326.29 96.5437L290.169 26.0419C289.769 25.2728 289.12 24.8059 288.329 24.7428Z" fill="#1E1E1E"/>
<path d="M164.007 84.1176C163.153 83.6973 162.27 83.4924 161.315 83.5904C160.403 83.6683 159.588 84.1709 159.077 84.8833C158.793 85.2865 158.784 85.8118 158.966 86.2637C158.768 86.4247 158.604 86.6195 158.49 86.8751C157.87 88.2607 158.621 89.9402 159.869 90.7457C161.188 91.5851 162.92 91.4896 164.315 90.8811C165.179 90.5067 165.838 89.8757 166.23 89.0686C166.522 88.4768 166.546 87.7427 166.399 87.1226C166.107 85.8823 165.199 84.7142 164.007 84.1176ZM161.594 86.6695C161.58 86.6762 161.58 86.6762 161.573 86.6963C161.608 86.6628 161.651 86.6427 161.672 86.6158C161.7 86.6025 161.736 86.6026 161.757 86.6094C161.828 86.6096 161.905 86.6233 161.976 86.6235C162.124 86.6712 162.273 86.7188 162.421 86.7664C162.527 86.8341 162.632 86.9018 162.738 86.9695C162.872 87.0911 162.992 87.2195 163.097 87.3546C163.168 87.4558 163.224 87.5638 163.266 87.6784C163.287 87.7526 163.301 87.8132 163.308 87.8941L163.3 87.9143L163.293 87.9344C163.279 87.9411 163.272 87.9613 163.272 87.9613C163.237 87.9949 163.201 88.0284 163.144 88.0552C163.01 88.1356 162.861 88.189 162.72 88.2559C162.536 88.3092 162.359 88.3423 162.161 88.3686C162.055 88.3683 161.942 88.3545 161.829 88.3406C161.765 88.3202 161.709 88.3133 161.659 88.2862C161.631 88.2659 161.582 88.2388 161.553 88.2185C161.525 88.1982 161.504 88.1577 161.476 88.1374C161.455 88.097 161.441 88.07 161.42 88.0295C161.413 88.016 161.406 88.0025 161.413 87.9823C161.406 87.9688 161.42 87.9621 161.413 87.9486C161.463 87.9084 161.463 87.8747 161.484 87.8478C161.626 87.5452 161.571 87.1341 161.445 86.8239C161.502 86.7635 161.552 86.7232 161.594 86.6695Z" fill="#1E1E1E"/>
<path d="M174.421 79.3147C173.908 78.7001 173.16 78.1791 172.355 77.9543C171.444 77.6954 170.419 77.7595 169.583 78.2216C169.01 78.5431 168.556 78.9929 168.257 79.5375C167.903 79.7385 167.654 80.0071 167.497 80.3838C166.849 81.7827 167.274 83.5488 168.302 84.6769C168.823 85.2376 169.557 85.698 170.327 85.8554C170.786 85.9579 171.196 85.9996 171.67 85.9607C172.165 85.9286 172.568 85.8221 173.035 85.6687C174.748 85.0949 175.955 83.3138 175.601 81.5816C175.434 80.7526 174.971 79.9631 174.421 79.3147ZM171.037 80.9811C171.044 80.9609 171.051 80.9407 171.058 80.9205C171.072 80.9138 171.094 80.887 171.108 80.8803C171.136 80.8669 171.164 80.8535 171.193 80.8401C171.228 80.8402 171.256 80.8269 171.292 80.827C171.327 80.8271 171.348 80.8339 171.384 80.834C171.426 80.8476 171.468 80.8612 171.511 80.8748C171.61 80.929 171.694 80.9899 171.779 81.0508C171.913 81.1725 172.032 81.3008 172.138 81.4359C172.264 81.6451 172.37 81.8475 172.468 82.0701C172.482 82.1307 172.496 82.1914 172.517 82.2656C172.524 82.2791 172.51 82.2857 172.517 82.2992C172.502 82.3396 172.502 82.3733 172.481 82.4002C172.445 82.4674 172.389 82.5278 172.353 82.5951C172.296 82.6555 172.232 82.7025 172.169 82.7494C172.055 82.8029 171.942 82.8565 171.829 82.91C171.723 82.9433 171.624 82.9565 171.51 82.9763C171.404 82.976 171.298 82.9756 171.185 82.9618C171.122 82.9414 171.058 82.921 170.995 82.9006C170.938 82.86 170.889 82.8329 170.832 82.7923C170.762 82.7247 170.685 82.6436 170.628 82.5694C170.579 82.4749 170.537 82.394 170.488 82.2995C170.467 82.1917 170.439 82.0703 170.418 81.9625C170.716 81.721 170.95 81.3917 171.037 80.9811Z" fill="#1E1E1E"/>
<path d="M182.698 73.7236C181.231 72.6682 179.11 72.7288 177.538 73.5051C177.049 73.7528 176.73 74.2569 176.685 74.7821C176.685 74.7821 176.671 74.7888 176.678 74.8023C176.087 76.0061 176.223 77.6231 176.961 78.7368C177.453 79.4793 178.074 80.0268 178.928 80.3798C179.605 80.6649 180.383 80.701 181.111 80.609C182.547 80.4183 183.957 79.399 184.344 78.0396C184.802 76.4111 184.094 74.7452 182.698 73.7236ZM181.259 76.7231C181.287 76.8108 181.301 76.9051 181.315 76.9994C181.307 77.0533 181.3 77.1072 181.307 77.1543C181.3 77.1745 181.286 77.2149 181.279 77.2351C181.25 77.2821 181.215 77.3157 181.186 77.3627C181.151 77.3963 181.115 77.4299 181.066 77.4701C180.966 77.517 180.867 77.5638 180.768 77.6106C180.676 77.6373 180.577 77.6504 180.478 77.6636C180.393 77.6701 180.316 77.6563 180.238 77.6426C180.181 77.6357 180.132 77.6086 180.069 77.5882C180.019 77.5611 179.963 77.5205 179.913 77.4934C179.843 77.4258 179.765 77.3447 179.709 77.2705C179.66 77.176 179.611 77.0816 179.562 76.9871C179.527 76.8523 179.499 76.731 179.485 76.6029C179.486 76.4682 179.493 76.347 179.515 76.2191C179.536 76.1586 179.558 76.098 179.579 76.0375C179.678 76.0243 179.784 75.991 179.883 75.9778C180.046 75.9851 180.208 75.9923 180.378 76.0131C180.484 76.0471 180.604 76.0744 180.717 76.1219C180.795 76.1693 180.865 76.2032 180.929 76.2573C180.999 76.3249 181.076 76.406 181.133 76.4802C181.168 76.5477 181.21 76.6286 181.259 76.7231Z" fill="#1E1E1E"/>
<path d="M223.399 53.6535C218.047 56.0814 212.701 58.5229 207.349 60.9508C204.595 62.2016 206.701 66.2496 209.455 64.9989C214.808 62.5709 220.153 60.1295 225.506 57.7016C228.26 56.4508 226.154 52.4027 223.399 53.6535Z" fill="#1E1E1E"/>
<path d="M248.011 42.2276L241.036 45.5058C239.918 46.0344 238.799 46.5629 237.687 47.0713C236.668 47.553 235.436 48.1687 234.495 48.4284C233.299 48.7412 232.291 49.8224 232.612 51.0829C232.891 52.1952 234.11 53.2162 235.398 52.8767C238.016 52.1779 240.438 50.8317 242.86 49.6877L250.117 46.2757C251.222 45.7538 251.813 44.3143 251.188 43.2481C250.556 42.1684 249.2 41.6656 248.011 42.2276Z" fill="#1E1E1E"/>
<path d="M277.837 29.2289C271.679 31.634 265.64 34.3023 259.727 37.2134C257.015 38.5451 259.121 42.5932 261.833 41.2614C267.746 38.3503 273.785 35.6821 279.943 33.2769C281.133 32.816 281.555 31.2883 281.014 30.2493C280.411 29.0889 279.019 28.7544 277.837 29.2289Z" fill="#1E1E1E"/>
<path d="M194.993 46.8342C178.198 54.6006 161.664 62.8663 145.417 71.6178C142.761 73.0575 145.045 77.0051 147.722 75.5722C163.968 66.8207 180.503 58.555 197.297 50.7885C200.044 49.5243 197.74 45.5699 194.993 46.8342Z" fill="#00A99D"/>
<path d="M327.047 82.5024C328.481 80.6816 329.781 78.8066 330.968 76.8166C331.665 75.6468 331.255 73.8067 329.694 73.4515C328.733 73.2329 327.751 73.0075 326.791 72.7889C326.452 72.7137 325.893 72.6917 325.59 72.5156C325.562 72.4954 325.541 72.4885 325.52 72.4817C325.527 72.4616 325.548 72.4347 325.562 72.3943C325.805 71.6744 326.578 71.0235 326.962 70.3377C327.36 69.6115 327.604 68.8242 327.628 67.9891C327.662 66.3592 326.549 65.1702 324.96 64.7273C324.176 64.5093 323.328 64.4056 322.516 64.3019C322.459 64.295 322.424 64.2949 322.367 64.288C322.453 64.1805 322.531 64.0595 322.616 63.952C323.213 63.1322 323.774 62.2785 324.11 61.3299C324.745 59.5672 324.164 57.8074 322.173 57.2689C321.001 56.9486 319.686 56.9309 318.492 56.7722C318.492 56.7722 318.435 56.7653 318.393 56.7517C319.77 55.1934 321.848 53.1188 320.378 51.1069C319.625 50.0672 318.128 49.665 316.701 49.4988C317.02 49.1631 317.325 48.8003 317.567 48.4172C318.74 46.6023 317.792 44.7133 315.808 43.9863C314.806 43.6194 313.697 43.4205 312.651 43.2421C312.63 43.2353 312.616 43.2419 312.594 43.2351C313.566 42.2885 314.192 41.1522 313.851 39.6154C313.211 36.7575 308.334 36.7083 305.975 36.209C303.008 35.5934 301.544 39.8995 304.531 40.5219C305.619 40.7477 306.686 40.9666 307.774 41.1924C307.363 41.4874 306.966 41.8095 306.661 42.0375C305.917 42.6076 305.398 43.3402 305.409 44.2764C305.41 46.0075 307.032 47.0567 308.664 47.3111C309.681 47.4693 310.735 47.4591 311.766 47.6443C311.78 47.6376 311.787 47.6511 311.801 47.6444C311.568 47.8053 311.327 47.9527 311.128 48.1474C310.072 49.1005 309.579 50.5269 310.069 51.8419C310.538 53.1164 311.738 53.7601 313.087 53.8452C313.653 53.8807 314.197 53.8757 314.755 53.8977C314.28 54.4754 313.733 55.0529 313.307 55.6578C312.561 56.7331 312.14 57.9913 312.779 59.2192C313.39 60.3931 314.675 60.7946 315.939 60.9873C316.709 61.111 317.487 61.1808 318.264 61.2843C318.377 61.2981 318.575 61.3055 318.794 61.3197C318.474 61.7565 318.133 62.1865 317.821 62.6367C317.096 63.6852 316.35 64.8615 316.515 66.162C316.701 67.5703 317.843 68.4092 319.235 68.6426C319.411 68.6769 321.107 68.817 322.309 68.9219C321.897 69.52 321.456 70.0642 321.164 70.7233C320.637 71.9139 320.427 73.3074 321.045 74.5286C321.81 76.0667 323.49 76.7187 325.235 77.1216C324.552 78.1163 323.842 79.0907 323.09 80.0515C321.208 82.4029 325.215 84.8136 327.047 82.5024Z" fill="#00A99D"/>
<path d="M247.617 77.6824C238.273 73.6584 227.767 76.0834 220.049 81.8648C219.076 81.0131 217.437 80.8125 216.492 82.1499C213.842 85.8729 213.218 90.4376 213.86 94.8919C214.564 99.6696 216.496 105.111 219.274 109.162C222.073 113.219 226.723 115.712 231.247 117.626C235.659 119.492 240.436 119.723 244.986 118.33C249.204 117.043 253.093 114.719 256.249 111.765C259.823 108.429 261.626 104.366 261.615 99.5301C261.612 90.235 256.617 81.5504 247.617 77.6824Z" fill="#FBB03B"/>
<path d="M254.308 74.8412C252.325 73.7437 250.375 75.6234 250.701 77.2343C243.424 72.1324 233.722 71.1181 225.726 75.4168C221.52 77.6733 217.619 81.2644 216.507 85.9421C215.345 90.8284 216.74 96.0192 218.633 100.605C220.581 105.333 223.244 110.043 227.516 113.202C231.436 116.091 236.578 117.461 241.434 117.436C251.253 117.387 260.447 112.102 263.956 103.148C265.853 98.3177 265.609 93.2384 263.81 88.3897C261.947 83.3523 259.338 77.6255 254.308 74.8412ZM258.595 87.7938C260.166 91.3552 261.136 95.0157 260.373 98.8391C258.919 106.217 252.504 111.416 244.978 112.652C241.074 113.286 236.884 112.895 233.228 111.294C229.388 109.611 226.798 106.532 224.887 102.996C222.844 99.2381 221.126 95.0565 220.802 90.8054C220.491 86.7496 222.149 83.6295 225.346 81.0937C232.342 75.5524 242.852 76.017 249.546 81.9994C251.428 83.6825 254.269 81.7517 253.625 79.9041C255.972 82.0064 257.354 84.9677 258.595 87.7938Z" fill="#1E1E1E"/>
<path d="M244.436 85.7752C244.279 88.287 244.016 90.7985 243.632 93.2827C243.451 94.4609 243.249 95.6322 243.026 96.7968C242.94 97.2747 242.853 97.7863 242.759 98.3181C242.519 98.2298 242.265 98.1482 242.025 98.0599C241.086 97.7133 240.154 97.3467 239.23 96.9598C237.515 96.2403 235.863 95.4403 234.226 94.5662C233.126 93.9767 231.718 94.1204 230.987 95.189C230.333 96.1366 230.568 97.7067 231.675 98.3097C234.074 99.5971 236.544 100.75 239.079 101.755C241.366 102.658 245.642 104.841 246.757 101.389C247.536 98.9531 247.884 96.3003 248.268 93.7825C248.658 91.2444 248.936 88.6925 249.1 86.1268C249.28 83.2176 244.609 82.8861 244.436 85.7752Z" fill="#1E1E1E"/>
<path d="M206.088 93.8231C194.944 99.0548 183.939 104.556 173.076 110.294C170.462 111.68 172.555 115.735 175.182 114.342C186.046 108.604 197.057 103.116 208.195 97.8711C210.885 96.6 208.779 92.5519 206.088 93.8231Z" fill="#1E1E1E"/>
<path d="M203.66 106.956C195.324 111.483 186.841 115.726 178.189 119.68C175.477 120.91 177.584 124.958 180.295 123.728C188.947 119.774 197.438 115.545 205.766 111.005C208.351 109.598 206.259 105.544 203.66 106.956Z" fill="#1E1E1E"/>
<path d="M216.864 113.209C205.795 118.993 194.48 124.339 182.955 129.246C180.208 130.409 182.329 134.45 185.061 133.294C196.593 128.4 207.908 123.054 218.97 117.257C221.59 115.884 219.498 111.83 216.864 113.209Z" fill="#1E1E1E"/>
<path d="M274.416 91.4815C283.805 87.0795 293.039 82.4143 302.147 77.5061C304.335 76.3209 302.243 72.2662 300.04 73.4581C290.933 78.3662 281.691 83.0179 272.31 87.4335C270.051 88.4838 272.158 92.5318 274.416 91.4815Z" fill="#1E1E1E"/>
<path d="M275.683 78.8968C282.66 75.0124 289.784 71.4114 297.076 68.1006C299.363 67.0706 297.256 63.0225 294.97 64.0525C287.677 67.3633 280.546 70.9509 273.577 74.8487C271.403 76.0609 273.495 80.1157 275.683 78.8968Z" fill="#1E1E1E"/>
<path d="M263.74 72.049C273.024 67.1078 282.541 62.6118 292.282 58.5477C294.604 57.5852 292.483 53.5438 290.175 54.4996C280.427 58.5503 270.911 63.0462 261.633 68.001C259.438 69.1727 261.53 73.2274 263.74 72.049Z" fill="#1E1E1E"/>
</svg>
