<svg width="496" height="472" viewBox="0 0 496 472" fill="none" xmlns="http://www.w3.org/2000/svg">
<path d="M40.4973 440.406C40.4988 440.456 40.4995 440.511 40.4998 440.576C40.3245 441.409 39.9578 442.13 39.4702 442.882C39.0678 443.394 38.7917 443.976 38.6194 444.34C38.6102 444.359 38.6012 444.378 38.5925 444.396C38.5515 444.459 38.4597 444.604 38.392 444.813C38.3888 444.818 38.3852 444.823 38.3811 444.829L38.3788 444.832C38.3667 444.85 38.3489 444.877 38.331 444.904C38.2945 444.96 38.2322 445.057 38.1733 445.177C38.1733 445.177 38.1733 445.177 38.1733 445.177L38.1003 445.325L37.7849 445.966L38.0841 446.615L39.1255 448.874C39.1494 448.946 39.1743 449.005 39.1922 449.046C39.2336 449.14 39.2792 449.225 39.3065 449.275C39.3332 449.323 39.3702 449.389 39.3849 449.415C39.4055 449.452 39.4126 449.466 39.4135 449.468C39.4136 449.468 39.4137 449.468 39.4136 449.468L39.4318 449.505L39.452 449.541C39.7563 450.082 39.9537 450.475 40.0261 450.796C40.0575 450.935 40.0491 450.998 40.0464 451.012C40.0453 451.018 40.0445 451.02 40.0437 451.021C40.0429 451.023 40.0362 451.036 40.014 451.061L39.7988 451.298L39.7609 451.413L39.7152 451.436L39.5462 451.522C39.3745 451.589 39.1332 451.617 38.7716 451.572C38.4404 451.532 38.1273 451.45 37.7499 451.352C37.6811 451.334 37.6102 451.316 37.5367 451.297C37.3113 451.222 37.0559 451.142 36.806 451.079C36.5658 451.018 36.2138 450.94 35.871 450.94H35.8706H35.8702H35.8698H35.8693H35.8689H35.8685H35.868H35.8676H35.8671H35.8667H35.8662H35.8658H35.8653H35.8649H35.8644H35.864H35.8635H35.8631H35.8626H35.8622H35.8617H35.8612H35.8608H35.8603H35.8599H35.8594H35.8589H35.8584H35.858H35.8575H35.857H35.8565H35.8561H35.8556H35.8551H35.8546H35.8541H35.8537H35.8532H35.8527H35.8522H35.8517H35.8512H35.8507H35.8502H35.8497H35.8492H35.8487H35.8482H35.8477H35.8472H35.8467H35.8462H35.8457H35.8452H35.8447H35.8442H35.8437H35.8431H35.8426H35.8421H35.8416H35.8411H35.8405H35.84H35.8395H35.839H35.8385H35.8379H35.8374H35.8369H35.8363H35.8358H35.8353H35.8347H35.8342H35.8337H35.8331H35.8326H35.8321H35.8315H35.831H35.8304H35.8299H35.8293H35.8288H35.8282H35.8277H35.8271H35.8266H35.826H35.8255H35.8249H35.8244H35.8238H35.8233H35.8227H35.8222H35.8216H35.821H35.8205H35.8199H35.8193H35.8188H35.8182H35.8176H35.8171H35.8165H35.8159H35.8154H35.8148H35.8142H35.8136H35.8131H35.8125H35.8119H35.8113H35.8108H35.8102H35.8096H35.809H35.8084H35.8079H35.8073H35.8067H35.8061H35.8055H35.8049H35.8043H35.8037H35.8032H35.8026H35.802H35.8014H35.8008H35.8002H35.7996H35.799H35.7984H35.7978H35.7972H35.7966H35.796H35.7954H35.7948H35.7942H35.7936H35.793H35.7924H35.7918H35.7912H35.7906H35.79H35.7894H35.7888H35.7882H35.7876H35.7869H35.7863H35.7857H35.7851H35.7845H35.7839H35.7833H35.7827H35.782H35.7814H35.7808H35.7802H35.7796H35.779H35.7783H35.7777H35.7771H35.7765H35.7759H35.7752H35.7746H35.774H35.7734H35.7728H35.7721H35.7715H35.7709H35.7703H35.7696H35.769H35.7684H35.7678H35.7671H35.7665H35.7659H35.7652H35.7646H35.764H35.7634H35.7627H35.7621H35.7615H35.7608H35.7602H35.7596H35.7589H35.7583H35.7577H35.757H35.7564H35.7558H35.7551H35.7545H35.7539H35.7532H35.7526H35.752H35.7513H35.7507H35.7501H35.7494H35.7488H35.7482H35.7475H35.7469H35.7462H35.7456H35.745H35.7443H35.7437H35.7431H35.7424H35.7418H35.7411H35.7405H35.7399H35.7392H35.7386H35.7379H35.7373H35.7367H35.736H35.7354H35.7347H35.7341H35.7335H35.7328H35.7322H35.7315H35.7309H35.7303H35.7301L34.7836 450.748L34.0172 450.592L33.4507 451.131L30.0896 454.329C29.9548 454.424 29.8618 454.459 29.8104 454.472L29.7538 454.486L29.7255 454.496C29.7253 454.496 29.7251 454.496 29.7249 454.496C29.7113 454.497 29.69 454.498 29.6556 454.499C29.6194 454.5 29.5806 454.5 29.5232 454.5C29.4919 454.5 29.4569 454.493 29.4109 454.469C29.3772 454.451 29.3357 454.423 29.2909 454.38C29.2133 454.233 29.1605 454.098 29.1263 453.975C29.1962 452.944 29.0586 451.982 28.9315 451.095C28.9184 451.003 28.9053 450.912 28.8926 450.822C28.8218 450.318 28.7505 449.739 28.6771 449.142L28.5837 448.382L27.9141 448.012L23.8246 445.751C23.6805 445.646 23.5965 445.544 23.5526 445.466C23.5116 445.393 23.4947 445.324 23.5015 445.237C23.5158 445.103 23.5636 444.972 23.6306 444.871C23.696 444.773 23.7624 444.728 23.8133 444.707L23.8304 444.7L23.8474 444.692L24.3581 444.47L24.399 444.452L24.4387 444.432C24.7532 444.272 25.0869 444.155 25.5637 444.016L25.6992 443.977L25.825 443.913L25.9027 443.873C25.9908 443.84 26.0962 443.801 26.2121 443.758C26.5818 443.622 27.0583 443.446 27.4224 443.276C27.6957 443.148 28.0319 442.97 28.3265 442.724C28.5995 442.495 29.0021 442.069 29.1053 441.418L29.9735 436.932C29.9736 436.931 29.9737 436.931 29.9737 436.93C30.0023 436.789 30.1421 436.598 30.3985 436.519C30.5658 436.468 30.7487 436.519 30.8671 436.657L30.8997 436.694L30.9347 436.73L31.2995 437.101C31.5289 437.334 31.5721 437.384 31.6252 437.465L31.6529 437.507L31.6834 437.547C31.7001 437.569 31.7169 437.592 31.7338 437.614C32.4257 438.528 33.2242 439.584 34.0559 440.345L34.5672 440.812L35.2547 440.726L39.8928 440.146C40.058 440.152 40.1899 440.178 40.319 440.221C40.3327 440.232 40.3515 440.248 40.3748 440.271C40.4142 440.308 40.4559 440.353 40.4972 440.402C40.4972 440.403 40.4972 440.405 40.4973 440.406Z" stroke="#00A99D" stroke-width="3"/>
<path d="M313.803 36.1699C313.606 35.9015 313.343 35.6331 313.081 35.4989C312.752 35.3647 312.424 35.2976 312.03 35.2976L307.762 35.8344C307.105 35.2305 306.448 34.3581 305.792 33.4858C305.66 33.2845 305.529 33.1502 305.332 32.9489L305.004 32.6134C304.544 32.0766 303.822 31.8753 303.165 32.0766C302.508 32.2779 301.983 32.8147 301.852 33.4858L301.064 37.5791C300.998 38.116 299.816 38.4515 298.962 38.787L298.831 38.8541C298.371 38.9883 297.977 39.1225 297.583 39.3238L297.123 39.5252C296.467 39.7936 296.073 40.4646 296.007 41.1357C295.941 41.8738 296.335 42.4777 296.926 42.8804L300.67 44.9606C300.735 45.4974 300.801 46.0343 300.867 46.504C300.998 47.4435 301.129 48.2487 301.064 49.1211C301.064 49.1882 301.064 49.2553 301.064 49.3224C301.129 49.6579 301.261 49.9934 301.458 50.329C301.786 50.7316 302.246 51 302.771 51C302.968 51 303.165 51 303.362 50.9329C303.625 50.8658 303.887 50.7316 304.15 50.5303L307.236 47.5777L308.221 47.779C308.287 47.779 308.418 47.779 308.484 47.779C308.747 47.779 309.206 47.9132 309.6 48.0474C310.388 48.2487 311.439 48.5842 312.358 48.1816C312.49 48.1145 312.621 48.0474 312.752 47.9803C312.949 47.8461 313.146 47.6448 313.212 47.4435C314 46.5711 313.409 45.4303 312.884 44.4909C312.818 44.3567 312.687 44.1554 312.687 44.0883L311.702 41.9409L311.767 41.8067C311.833 41.6725 311.964 41.5383 312.03 41.337C312.03 41.2699 312.096 41.2028 312.096 41.2028C312.293 40.8001 312.49 40.3304 312.818 39.9278C313.343 39.1225 313.803 38.2502 314 37.1765C314 36.7068 314 36.3713 313.803 36.1699Z" fill="white"/>
<path d="M457.781 376.609C457.562 376.312 457.27 376.016 456.979 375.867C456.614 375.719 456.249 375.645 455.811 375.645L451.068 376.238C450.339 375.571 449.609 374.606 448.88 373.642C448.734 373.42 448.588 373.271 448.369 373.049L448.004 372.678C447.493 372.085 446.691 371.862 445.961 372.085C445.231 372.307 444.648 372.9 444.502 373.642L443.626 378.166C443.553 378.76 442.24 379.131 441.291 379.501L441.145 379.576C440.635 379.724 440.197 379.872 439.759 380.095L439.248 380.317C438.519 380.614 438.081 381.356 438.008 382.097C437.935 382.913 438.373 383.581 439.029 384.026L443.188 386.325C443.261 386.918 443.334 387.512 443.407 388.031C443.553 389.069 443.699 389.959 443.626 390.923C443.626 390.997 443.626 391.072 443.626 391.146C443.699 391.517 443.845 391.887 444.064 392.258C444.429 392.703 444.939 393 445.523 393C445.742 393 445.961 393 446.18 392.926C446.472 392.852 446.764 392.703 447.055 392.481L450.485 389.217L451.579 389.44C451.652 389.44 451.798 389.44 451.871 389.44C452.163 389.44 452.674 389.588 453.111 389.737C453.987 389.959 455.154 390.33 456.176 389.885C456.322 389.811 456.468 389.737 456.614 389.662C456.833 389.514 457.051 389.292 457.124 389.069C458 388.105 457.343 386.844 456.76 385.806C456.687 385.657 456.541 385.435 456.541 385.361L455.446 382.987L455.519 382.839C455.592 382.691 455.738 382.542 455.811 382.32C455.811 382.246 455.884 382.171 455.884 382.171C456.103 381.726 456.322 381.207 456.687 380.762C457.27 379.872 457.781 378.908 458 377.721C458 377.202 458 376.831 457.781 376.609Z" fill="#FBB03B"/>
<path d="M295.966 30.3295C295.998 29.9867 295.966 29.6244 295.85 29.3073C295.734 28.9902 295.469 28.6989 295.184 28.4723L291.543 26.0373C291.389 25.1444 291.441 24.0317 291.494 22.919C291.488 22.7055 291.481 22.492 291.494 22.2138L291.501 21.7221C291.502 21.017 291.056 20.3891 290.448 20.0652C289.775 19.7219 289.031 19.8508 288.468 20.3162L285.212 22.9342C284.837 23.2445 283.692 22.8296 282.76 22.4085L282.631 22.3696C282.198 22.1687 281.745 22.0326 281.357 21.9159L280.904 21.7797C280.193 21.5657 279.494 21.7788 278.995 22.2636C278.477 22.8132 278.328 23.5441 278.625 24.1978L280.156 28.2551C279.871 28.7337 279.541 29.1281 279.34 29.5614C278.828 30.3245 278.381 31.107 277.779 31.7018C277.76 31.7665 277.695 31.747 277.676 31.8117C277.449 32.0962 277.332 32.4843 277.364 32.8466C277.358 33.3383 277.545 33.8883 277.939 34.2185C278.114 34.3415 278.288 34.4646 278.463 34.5876C278.702 34.7301 279.045 34.7627 279.323 34.7758L283.677 34.6041L284.278 35.4196C284.324 35.5038 284.388 35.5232 284.434 35.6073C284.653 35.8145 284.899 36.1705 285.145 36.5265C285.636 37.2385 286.263 38.2028 287.168 38.4752C287.298 38.5141 287.427 38.553 287.576 38.5272C287.854 38.5403 288.067 38.534 288.3 38.463C289.471 38.3214 289.712 37.0536 289.958 35.9992C290.017 35.8052 290.056 35.6758 290.03 35.527L290.646 33.2437L290.795 33.2179C290.943 33.1921 291.112 33.1017 291.28 33.0112C291.364 32.966 291.364 32.966 291.448 32.9208C291.869 32.6946 292.335 32.5526 292.801 32.4106C293.733 32.1266 294.684 31.7778 295.538 31.0474C295.791 30.9117 295.953 30.6077 295.966 30.3295ZM287.533 34.9172C287.475 35.1112 287.416 35.3053 287.423 35.5188C287.403 35.5835 287.403 35.5835 287.384 35.6481C287.228 35.4604 287.073 35.2727 287.048 35.1239C286.692 34.6643 286.421 34.1595 286.026 33.8293L285.27 32.826C284.979 32.3859 284.416 32.1462 283.88 32.0552C283.815 32.0358 283.731 32.081 283.666 32.0616L280.315 32.1822C280.664 31.7231 280.949 31.2446 281.254 30.7013C281.539 30.2228 281.824 29.7442 282.174 29.2852C282.316 29.0459 282.478 28.7419 282.491 28.4637C282.504 28.1856 282.472 27.8233 282.401 27.5903L281.174 24.4C281.368 24.4584 281.497 24.4973 281.672 24.6203C283.185 25.2165 285.068 25.9941 286.569 24.753L288.887 22.9108C288.84 24.237 288.775 25.6279 289.091 26.922C289.136 27.0061 289.162 27.1549 289.207 27.2391C289.343 27.4915 289.563 27.6986 289.783 27.9058L292.615 29.745C292.382 29.816 292.149 29.8871 291.981 29.9775C291.431 30.1648 290.816 30.3326 290.311 30.6039C290.143 30.6944 289.994 30.7202 289.845 30.7459L289.379 30.888C288.829 31.0752 288.331 31.5601 288.156 32.1422L287.533 34.9172Z" fill="#FBB03B"/>
<path d="M442.481 288.872C441.294 286.386 437.713 284.137 435.026 285.479C433.747 286.105 432.977 287.589 433.377 288.967C433.309 289.739 433.583 290.598 434.075 291.261C434.928 292.44 436.273 293.203 437.672 293.469C440.453 294.043 444.005 292.053 442.481 288.872Z" fill="white" fill-opacity="0.05"/>
<path d="M439.883 363.204C439.435 360.633 436.457 358.761 434.228 360.612C433.938 360.874 433.688 361.151 433.495 361.405C432.797 361.507 432.232 361.99 431.895 362.609C430.636 364.982 432.047 368.212 434.554 369.007C436.109 369.476 437.723 367.995 438.722 366.883C439.577 365.903 440.119 364.518 439.883 363.204Z" fill="white" fill-opacity="0.05"/>
<path d="M493.331 336.992C492.946 335.338 491.453 334.471 489.971 333.937C489.361 333.697 488.76 333.791 488.316 334.086C487.467 332.297 484.272 333.018 484.596 335.306C484.876 337.107 485.336 338.931 486.709 340.221C487.952 341.366 489.758 341.792 491.336 341.002C492.817 340.22 493.691 338.589 493.331 336.992Z" fill="white" fill-opacity="0.05"/>
<path d="M396.548 307.178C396.37 306.075 395.544 305.187 394.526 304.788C392.368 303.942 390.534 305.384 389.286 307.009C388.634 307.834 388.83 309.132 389.671 309.743C389.858 309.864 390.005 309.968 390.225 310.008C390.644 310.736 391.363 311.299 392.216 311.399C393.289 311.538 394.366 311.067 395.165 310.347C396.062 309.618 396.76 308.436 396.548 307.178Z" fill="white" fill-opacity="0.05"/>
<path d="M447.289 371.275C447.055 371.512 446.861 371.765 446.734 372.091C446.62 372.14 446.523 372.149 446.41 372.199C445.618 371.701 444.311 371.799 443.781 372.672C442.569 374.686 443.587 377.481 446.146 377.545C447.072 377.579 447.857 377.135 448.389 376.498C450.005 376.568 451.64 375.752 452.369 374.253C453.738 371.36 449.241 369.41 447.289 371.275Z" fill="white" fill-opacity="0.05"/>
<path d="M322.257 412.044C322.034 411.533 321.625 411.138 321.168 410.865C320.48 409.985 319.278 409.936 318.429 410.543L317.079 411.47C316.495 411.523 316.059 411.916 315.745 412.356L315.688 412.381C314.71 413.078 313.848 413.961 314.027 415.3C314.19 416.444 315 417.373 316.075 417.747C317.19 418.137 318.317 417.78 319.263 417.165C320.88 416.155 323.213 414.157 322.257 412.044Z" fill="white" fill-opacity="0.05"/>
<path d="M255.481 402.872C254.294 400.386 250.713 398.137 248.026 399.479C246.747 400.105 245.978 401.589 246.377 402.967C246.309 403.739 246.583 404.598 247.075 405.261C247.928 406.44 249.273 407.203 250.672 407.469C253.454 408.043 257.005 406.053 255.481 402.872Z" fill="white" fill-opacity="0.05"/>
<path d="M252.883 477.204C252.435 474.633 249.457 472.761 247.228 474.612C246.938 474.874 246.688 475.151 246.495 475.405C245.797 475.507 245.232 475.99 244.895 476.609C243.636 478.982 245.047 482.212 247.554 483.007C249.109 483.476 250.723 481.995 251.722 480.883C252.577 479.903 253.119 478.518 252.883 477.204Z" fill="white" fill-opacity="0.05"/>
<path d="M425.769 463.756C425.331 463.914 424.984 464.2 424.661 464.544C423.734 464.274 422.639 464.549 421.98 465.512C420.959 467.038 421.88 468.762 423.057 469.834C425.386 471.921 429.42 471.577 430.527 468.394C431.604 465.527 428.668 462.591 425.769 463.756Z" fill="white" fill-opacity="0.05"/>
<path d="M306.33 450.992C305.945 449.338 304.453 448.471 302.971 447.937C302.36 447.697 301.76 447.791 301.315 448.086C300.467 446.297 297.272 447.018 297.596 449.306C297.876 451.107 298.336 452.931 299.709 454.221C300.951 455.366 302.757 455.792 304.336 455.002C305.817 454.22 306.691 452.589 306.33 450.992Z" fill="white" fill-opacity="0.05"/>
<path d="M326.153 391.68C325.978 391.047 325.536 390.498 325.014 390.153C324.98 389.998 324.93 389.885 324.881 389.772C324.363 388.817 323.611 388.099 322.69 387.691C322.256 387.24 321.621 386.943 320.989 387.118C320.834 387.152 320.664 387.226 320.51 387.26C319.301 387.349 318.135 387.926 317.323 389.158C315.884 391.271 316.754 393.726 318.494 395.16C318.566 396.175 319.385 397.2 320.683 397.005C321.032 396.954 321.438 396.878 321.802 396.786C322.38 396.871 323.012 396.696 323.489 396.319C324.186 396.217 324.891 395.977 325.474 395.688C327.012 394.882 327.112 392.948 326.153 391.68Z" fill="white" fill-opacity="0.05"/>
<path d="M399.293 428.714C399.157 426.547 397.284 424.732 395.402 423.901C391.98 422.324 388.238 426.119 388.716 429.453C387.846 430.475 387.71 432.019 388.742 433.222C390.297 435.006 393.453 434.505 395.414 433.817C397.642 433.047 399.432 431.117 399.293 428.714Z" fill="white" fill-opacity="0.05"/>
<path d="M209.548 421.178C209.37 420.075 208.544 419.187 207.526 418.788C205.368 417.942 203.534 419.384 202.286 421.009C201.634 421.834 201.83 423.132 202.671 423.743C202.858 423.864 203.005 423.968 203.225 424.008C203.644 424.736 204.363 425.299 205.216 425.399C206.289 425.538 207.366 425.067 208.165 424.347C209.062 423.618 209.76 422.436 209.548 421.178Z" fill="white" fill-opacity="0.05"/>
<path d="M342.257 102.044C342.034 101.533 341.625 101.138 341.168 100.865C340.48 99.9847 339.278 99.9362 338.429 100.543L337.079 101.47C336.495 101.523 336.059 101.916 335.745 102.356L335.688 102.381C334.71 103.078 333.848 103.961 334.027 105.3C334.19 106.444 335 107.373 336.075 107.747C337.19 108.137 338.317 107.78 339.263 107.165C340.88 106.155 343.213 104.157 342.257 102.044Z" fill="white" fill-opacity="0.05"/>
<path d="M275.481 92.8716C274.294 90.3864 270.713 88.137 268.026 89.4793C266.747 90.1054 265.977 91.5889 266.377 92.9668C266.309 93.7389 266.583 94.5979 267.075 95.2605C267.928 96.4404 269.273 97.2027 270.672 97.4692C273.453 98.0429 277.005 96.0529 275.481 92.8716Z" fill="white" fill-opacity="0.05"/>
<path d="M354.818 166.347C353.143 164.986 350.805 163.881 348.732 164.854C347.753 165.315 347.362 166.431 347.727 167.419C347.371 167.608 347.064 167.911 346.832 168.383C345.904 170.51 346.994 173.004 349.031 174.037C351.15 175.103 353.671 174.306 355.251 172.671C357.195 170.708 356.942 168.119 354.818 166.347ZM350.802 170.598C350.68 170.55 350.631 170.436 350.525 170.348C350.525 170.348 350.525 170.348 350.484 170.332C350.948 170.467 351.475 170.439 352.01 170.273C351.679 170.519 351.25 170.773 350.802 170.598Z" fill="white" fill-opacity="0.05"/>
<path d="M272.883 167.204C272.435 164.633 269.457 162.761 267.228 164.612C266.938 164.874 266.688 165.151 266.495 165.405C265.797 165.507 265.232 165.99 264.895 166.609C263.636 168.982 265.047 172.212 267.554 173.007C269.109 173.476 270.723 171.995 271.722 170.883C272.577 169.903 273.119 168.518 272.883 167.204Z" fill="white" fill-opacity="0.05"/>
<path d="M402.781 238.844C401.842 238.006 400.588 237.609 399.398 238.129C398.434 238.549 397.768 239.65 397.88 240.681C397.347 242.163 397.423 243.884 398.552 245.078C400.246 246.87 403.324 246.808 404.444 244.429C405.373 242.538 404.277 240.182 402.781 238.844Z" fill="white" fill-opacity="0.05"/>
<path d="M445.769 153.756C445.331 153.914 444.984 154.2 444.661 154.544C443.734 154.274 442.639 154.55 441.98 155.512C440.959 157.038 441.88 158.762 443.057 159.834C445.386 161.921 449.42 161.577 450.527 158.394C451.604 155.527 448.668 152.591 445.769 153.756Z" fill="white" fill-opacity="0.05"/>
<path d="M429.29 59.978C428.853 60.1353 428.506 60.422 428.183 60.7653C427.255 60.4956 426.161 60.7711 425.502 61.734C424.481 63.2599 425.402 64.9835 426.579 66.0555C428.908 68.143 432.942 67.7985 434.049 64.6152C435.126 61.7489 432.19 58.8128 429.29 59.978Z" fill="white" fill-opacity="0.05"/>
<path d="M326.33 140.992C325.945 139.338 324.453 138.471 322.971 137.937C322.36 137.697 321.76 137.791 321.315 138.086C320.467 136.297 317.272 137.018 317.596 139.306C317.876 141.107 318.336 142.931 319.709 144.221C320.951 145.366 322.757 145.792 324.336 145.002C325.817 144.22 326.691 142.589 326.33 140.992Z" fill="white" fill-opacity="0.05"/>
<path d="M414.166 187.874C413.712 186.757 412.577 185.936 411.343 185.969C410.58 185.999 409.795 186.443 409.198 187.007C407.631 187.05 406.056 188.312 405.954 190.01C405.88 191.156 406.513 192.297 407.46 192.997C408.53 193.745 409.764 193.712 410.947 193.33C413.15 192.503 415.215 190.352 414.166 187.874Z" fill="white" fill-opacity="0.05"/>
<path d="M346.153 81.6797C345.978 81.0474 345.536 80.4982 345.014 80.1525C344.98 79.9984 344.93 79.8851 344.881 79.7717C344.363 78.8169 343.611 78.0992 342.69 77.6914C342.256 77.2395 341.621 76.9434 340.989 77.1183C340.834 77.1519 340.664 77.2262 340.51 77.2597C339.301 77.3493 338.135 77.9258 337.323 79.1578C335.884 81.2713 336.754 83.7262 338.494 85.1599C338.566 86.1746 339.385 87.2004 340.683 87.0047C341.032 86.9536 341.438 86.8777 341.802 86.7858C342.38 86.8712 343.012 86.6963 343.489 86.3194C344.186 86.2171 344.891 85.9767 345.474 85.6884C347.012 84.8819 347.112 82.9482 346.153 81.6797Z" fill="white" fill-opacity="0.05"/>
<path d="M419.293 118.714C419.157 116.547 417.284 114.732 415.402 113.901C411.98 112.324 408.238 116.119 408.716 119.453C407.846 120.475 407.71 122.019 408.742 123.222C410.297 125.006 413.453 124.505 415.414 123.817C417.642 123.047 419.432 121.117 419.293 118.714Z" fill="white" fill-opacity="0.05"/>
<path d="M400.522 3.56301C400.385 1.39543 398.513 -0.419062 396.631 -1.25075C393.209 -2.82716 389.467 0.96717 389.945 4.30194C389.074 5.32317 388.939 6.86724 389.971 8.07028C391.526 9.85448 394.682 9.35353 396.643 8.6659C398.871 7.89521 400.661 5.96612 400.522 3.56301Z" fill="white" fill-opacity="0.05"/>
<path d="M229.548 111.178C229.37 110.075 228.544 109.187 227.526 108.788C225.368 107.942 223.534 109.384 222.286 111.009C221.634 111.834 221.83 113.132 222.671 113.743C222.858 113.864 223.005 113.968 223.225 114.008C223.644 114.736 224.363 115.299 225.216 115.399C226.289 115.538 227.366 115.067 228.165 114.347C229.062 113.618 229.76 112.436 229.548 111.178Z" fill="white" fill-opacity="0.05"/>
<path d="M280.289 175.275C280.055 175.512 279.861 175.765 279.734 176.091C279.62 176.14 279.523 176.149 279.41 176.199C278.618 175.701 277.311 175.799 276.781 176.672C275.569 178.686 276.587 181.481 279.146 181.545C280.072 181.579 280.857 181.135 281.389 180.498C283.005 180.568 284.64 179.752 285.369 178.253C286.738 175.36 282.241 173.41 280.289 175.275Z" fill="white" fill-opacity="0.05"/>
<path d="M78.569 84.0917C78.7918 84.6018 79.2007 84.9969 79.6574 85.2699C80.3457 86.1505 81.548 86.199 82.3966 85.5922L83.7466 84.6651C84.331 84.6123 84.7669 84.2195 85.0806 83.7787L85.1373 83.754C86.1152 83.0569 86.9781 82.1738 86.7983 80.8349C86.6361 79.6909 85.8257 78.7624 84.751 78.3881C83.6356 77.9978 82.5092 78.3549 81.5632 78.9705C79.9458 79.9806 77.6123 81.9785 78.569 84.0917Z" fill="white" fill-opacity="0.05"/>
<path d="M74.569 424.092C74.7918 424.602 75.2007 424.997 75.6574 425.27C76.3457 426.15 77.548 426.199 78.3966 425.592L79.7466 424.665C80.331 424.612 80.7669 424.219 81.0806 423.779L81.1373 423.754C82.1152 423.057 82.9781 422.174 82.7983 420.835C82.6361 419.691 81.8257 418.762 80.751 418.388C79.6356 417.998 78.5092 418.355 77.5632 418.971C75.9458 419.981 73.6123 421.978 74.569 424.092Z" fill="white" fill-opacity="0.05"/>
<path d="M145.345 93.2636C146.531 95.7488 150.112 97.9982 152.8 96.6559C154.079 96.0298 154.848 94.5463 154.449 93.1683C154.516 92.3963 154.242 91.5373 153.751 90.8747C152.898 89.6948 151.552 88.9325 150.154 88.666C147.372 88.0923 143.82 90.0822 145.345 93.2636Z" fill="white" fill-opacity="0.05"/>
<path d="M141.345 433.264C142.531 435.749 146.112 437.998 148.8 436.656C150.079 436.03 150.848 434.546 150.449 433.168C150.516 432.396 150.242 431.537 149.751 430.875C148.898 429.695 147.552 428.932 146.154 428.666C143.372 428.092 139.82 430.082 141.345 433.264Z" fill="white" fill-opacity="0.05"/>
<path d="M66.008 19.7886C67.6823 21.1497 70.0209 22.2543 72.0934 21.2817C73.0729 20.8201 73.4632 19.7047 73.099 18.7164C73.4551 18.5271 73.7616 18.2245 73.9939 17.7518C74.9214 15.6256 73.8321 13.1316 71.7945 12.098C69.6755 11.0324 67.1551 11.8295 65.5745 13.4647C63.6307 15.4274 63.8841 18.0165 66.008 19.7886ZM70.0233 15.5376C70.1455 15.5855 70.195 15.6988 70.3012 15.7874C70.3012 15.7874 70.3012 15.7875 70.3419 15.8034C69.878 15.6685 69.3503 15.6965 68.8154 15.8627C69.1467 15.6167 69.5754 15.362 70.0233 15.5376Z" fill="white" fill-opacity="0.05"/>
<path d="M62.008 359.789C63.6823 361.15 66.0209 362.254 68.0934 361.282C69.0729 360.82 69.4632 359.705 69.099 358.716C69.4551 358.527 69.7616 358.224 69.9939 357.752C70.9214 355.626 69.8321 353.132 67.7945 352.098C65.6755 351.032 63.1551 351.829 61.5745 353.465C59.6307 355.427 59.8841 358.016 62.008 359.789ZM66.0233 355.538C66.1455 355.585 66.195 355.699 66.3012 355.787C66.3012 355.787 66.3012 355.787 66.3419 355.803C65.878 355.669 65.3503 355.697 64.8154 355.863C65.1467 355.617 65.5754 355.362 66.0233 355.538Z" fill="white" fill-opacity="0.05"/>
<path d="M13.0571 57.7235C13.4946 57.5661 13.8419 57.2795 14.1644 56.9361C15.0921 57.2059 16.1866 56.9303 16.846 55.9674C17.8669 54.4416 16.9454 52.718 15.7685 51.6459C13.4394 49.5584 9.40522 49.903 8.29823 53.0862C7.22155 55.9525 10.1575 58.8886 13.0571 57.7235Z" fill="white" fill-opacity="0.05"/>
<path d="M94.4953 45.1433C94.8803 46.7975 96.3726 47.6644 97.8544 48.1983C98.4652 48.4378 99.0656 48.3443 99.5102 48.0488C100.359 49.8379 103.554 49.1174 103.23 46.8293C102.949 45.0282 102.49 43.2039 101.117 41.9139C99.8743 40.7692 98.0683 40.343 96.49 41.1336C95.0091 41.9154 94.135 43.5458 94.4953 45.1433Z" fill="white" fill-opacity="0.05"/>
<path d="M90.4953 385.143C90.8803 386.798 92.3726 387.664 93.8544 388.198C94.4652 388.438 95.0656 388.344 95.5102 388.049C96.3591 389.838 99.5542 389.117 99.2297 386.829C98.9493 385.028 98.49 383.204 97.1167 381.914C95.8743 380.769 94.0683 380.343 92.49 381.134C91.0091 381.915 90.135 383.546 90.4953 385.143Z" fill="white" fill-opacity="0.05"/>
<path d="M74.6729 104.456C74.8478 105.088 75.2902 105.637 75.8124 105.983C75.8459 106.137 75.8954 106.25 75.9449 106.364C76.4632 107.318 77.2154 108.036 78.1359 108.444C78.5695 108.896 79.2051 109.192 79.8373 109.017C79.9914 108.983 80.1615 108.909 80.3156 108.876C81.5251 108.786 82.6907 108.209 83.5025 106.977C84.9417 104.864 84.072 102.409 82.3321 100.975C82.2602 99.9606 81.4409 98.9348 80.1428 99.1305C79.7939 99.1817 79.3883 99.2576 79.0235 99.3494C78.4462 99.2641 77.8139 99.439 77.3374 99.8159C76.6396 99.9181 75.9346 100.159 75.3519 100.447C73.8143 101.253 73.7139 103.187 74.6729 104.456Z" fill="white" fill-opacity="0.05"/>
<path d="M70.6729 444.456C70.8478 445.088 71.2902 445.637 71.8124 445.983C71.8459 446.137 71.8954 446.25 71.9449 446.363C72.4632 447.318 73.2154 448.036 74.1359 448.444C74.5695 448.896 75.2051 449.192 75.8373 449.017C75.9914 448.983 76.1615 448.909 76.3156 448.875C77.5251 448.786 78.6907 448.209 79.5025 446.977C80.9417 444.864 80.072 442.409 78.3321 440.975C78.2602 439.961 77.4409 438.935 76.1428 439.13C75.7939 439.182 75.3883 439.258 75.0235 439.349C74.4462 439.264 73.8139 439.439 73.3374 439.816C72.6396 439.918 71.9346 440.158 71.3519 440.447C69.8143 441.253 69.7139 443.187 70.6729 444.456Z" fill="white" fill-opacity="0.05"/>
<path d="M39.5998 205.329C39.6436 204.774 39.4693 204.233 39.1951 203.777C39.0029 202.676 37.9653 202.066 36.9308 202.202L35.3033 202.383C34.763 202.154 34.1934 202.296 33.709 202.536L33.6474 202.532C32.4563 202.686 31.2791 203.058 30.8067 204.324C30.4107 205.409 30.6881 206.61 31.4596 207.446C32.2594 208.316 33.4212 208.532 34.5457 208.435C36.4483 208.306 39.4478 207.643 39.5998 205.329Z" fill="white" fill-opacity="0.05"/>
<path d="M20.3784 267.964C19.5429 265.975 18.0008 263.899 15.7145 263.78C14.633 263.725 13.7632 264.525 13.6187 265.569C13.2155 265.568 12.8025 265.69 12.3749 265.998C10.555 267.436 10.3405 270.149 11.6506 272.021C13.0175 273.959 15.6161 274.444 17.7808 273.746C20.4201 272.931 21.4167 270.528 20.3784 267.964ZM14.8337 269.822C14.7485 269.722 14.7582 269.599 14.7063 269.47C14.7063 269.47 14.7063 269.47 14.6779 269.437C15.0235 269.775 15.5022 269.999 16.0522 270.104C15.6441 270.165 15.146 270.188 14.8337 269.822Z" fill="white" fill-opacity="0.05"/>
<path d="M106.532 299.717C106.072 299.649 105.63 299.738 105.184 299.889C104.493 299.214 103.397 298.942 102.362 299.48C100.743 300.345 100.743 302.299 101.276 303.8C102.347 306.738 106.067 308.335 108.544 306.049C110.844 304.028 109.638 300.055 106.532 299.717Z" fill="white" fill-opacity="0.05"/>
<path d="M7.19955 232.177C7.63944 230.537 6.73171 229.069 5.67629 227.9C5.2504 227.401 4.67681 227.2 4.14539 227.251C4.23969 225.273 1.0821 224.403 0.29004 226.574C-0.311317 228.295 -0.76583 230.121 -0.162375 231.906C0.394037 233.501 1.78615 234.728 3.55077 234.774C5.22534 234.782 6.76453 233.756 7.19955 232.177Z" fill="white" fill-opacity="0.05"/>
<path d="M52.6321 189.203C52.7758 188.563 52.6444 187.87 52.3467 187.319C52.3897 187.168 52.3994 187.044 52.4092 186.921C52.402 185.835 52.0767 184.847 51.457 184.054C51.2875 183.451 50.8664 182.89 50.2263 182.747C50.0746 182.704 49.8896 182.689 49.7379 182.646C48.6289 182.155 47.3291 182.114 46.0326 182.818C43.7673 184.004 43.3776 186.58 44.2366 188.664C43.8219 189.593 44.0611 190.884 45.2983 191.323C45.6302 191.442 46.0236 191.566 46.3887 191.657C46.8576 192.004 47.4978 192.148 48.0957 192.04C48.7594 192.279 49.4944 192.399 50.1443 192.419C51.8805 192.432 52.8802 190.774 52.6321 189.203Z" fill="white" fill-opacity="0.05"/>
<path d="M210.764 189.29C210.939 189.922 211.381 190.471 211.903 190.817C211.937 190.971 211.986 191.084 212.036 191.198C212.554 192.153 213.306 192.87 214.227 193.278C214.66 193.73 215.296 194.026 215.928 193.851C216.082 193.818 216.252 193.743 216.406 193.71C217.616 193.62 218.781 193.044 219.593 191.812C221.033 189.698 220.163 187.243 218.423 185.81C218.351 184.795 217.532 183.769 216.234 183.965C215.885 184.016 215.479 184.092 215.114 184.184C214.537 184.098 213.905 184.273 213.428 184.65C212.73 184.752 212.025 184.993 211.443 185.281C209.905 186.088 209.805 188.021 210.764 189.29Z" fill="white" fill-opacity="0.05"/>
<path d="M137.623 152.255C137.76 154.423 139.632 156.237 141.514 157.069C144.936 158.645 148.678 154.851 148.2 151.516C149.071 150.495 149.206 148.951 148.174 147.748C146.619 145.964 143.463 146.465 141.502 147.152C139.274 147.923 137.484 149.852 137.623 152.255Z" fill="white" fill-opacity="0.05"/>
<path d="M107.218 230.572C107.354 232.74 109.227 234.554 111.109 235.386C114.531 236.963 118.273 233.168 117.795 229.833C118.665 228.812 118.801 227.268 117.769 226.065C116.214 224.281 113.058 224.782 111.097 225.469C108.869 226.24 107.079 228.169 107.218 230.572Z" fill="white" fill-opacity="0.05"/>
<path d="M442.394 288.872C441.208 286.386 437.627 284.137 434.94 285.479C433.661 286.105 432.891 287.589 433.291 288.967C433.223 289.739 433.497 290.598 433.989 291.261C434.841 292.44 436.187 293.203 437.586 293.469C440.367 294.043 443.919 292.053 442.394 288.872Z" fill="white" fill-opacity="0.05"/>
<path d="M439.797 363.204C439.348 360.633 436.371 358.761 434.142 360.612C433.852 360.874 433.602 361.151 433.408 361.405C432.711 361.507 432.146 361.99 431.809 362.609C430.55 364.982 431.961 368.212 434.468 369.007C436.022 369.476 437.637 367.995 438.636 366.883C439.49 365.903 440.033 364.518 439.797 363.204Z" fill="white" fill-opacity="0.05"/>
<path d="M493.244 336.992C492.859 335.338 491.367 334.471 489.885 333.937C489.274 333.697 488.674 333.791 488.229 334.086C487.38 332.297 484.185 333.018 484.51 335.306C484.79 337.107 485.249 338.931 486.623 340.221C487.865 341.366 489.671 341.792 491.249 341.002C492.73 340.22 493.604 338.589 493.244 336.992Z" fill="white" fill-opacity="0.05"/>
<path d="M396.462 307.178C396.284 306.075 395.457 305.187 394.439 304.788C392.281 303.942 390.448 305.384 389.2 307.009C388.548 307.834 388.743 309.132 389.584 309.743C389.772 309.864 389.919 309.968 390.138 310.008C390.558 310.736 391.276 311.299 392.13 311.399C393.203 311.538 394.28 311.067 395.079 310.347C395.975 309.618 396.674 308.436 396.462 307.178Z" fill="white" fill-opacity="0.05"/>
<path d="M447.202 371.275C446.968 371.512 446.775 371.765 446.647 372.091C446.534 372.14 446.437 372.149 446.323 372.199C445.532 371.701 444.225 371.799 443.695 372.672C442.483 374.686 443.501 377.481 446.06 377.545C446.986 377.579 447.771 377.135 448.302 376.498C449.919 376.568 451.554 375.752 452.283 374.253C453.652 371.36 449.155 369.41 447.202 371.275Z" fill="white" fill-opacity="0.05"/>
<path d="M322.17 412.044C321.948 411.533 321.539 411.138 321.082 410.865C320.394 409.985 319.191 409.936 318.343 410.543L316.993 411.47C316.408 411.523 315.973 411.916 315.659 412.356L315.602 412.381C314.624 413.078 313.761 413.961 313.941 415.3C314.103 416.444 314.914 417.373 315.988 417.747C317.104 418.137 318.23 417.78 319.176 417.165C320.794 416.155 323.127 414.157 322.17 412.044Z" fill="white" fill-opacity="0.05"/>
<path d="M255.395 402.872C254.208 400.386 250.627 398.137 247.94 399.479C246.661 400.105 245.892 401.589 246.291 402.967C246.223 403.739 246.497 404.598 246.989 405.261C247.842 406.44 249.187 407.203 250.586 407.469C253.367 408.043 256.919 406.053 255.395 402.872Z" fill="white" fill-opacity="0.05"/>
<path d="M252.797 477.204C252.348 474.633 249.371 472.761 247.142 474.612C246.852 474.874 246.602 475.151 246.409 475.405C245.711 475.507 245.146 475.99 244.809 476.609C243.55 478.982 244.961 482.212 247.468 483.007C249.023 483.476 250.637 481.995 251.636 480.883C252.49 479.903 253.033 478.518 252.797 477.204Z" fill="white" fill-opacity="0.05"/>
<path d="M425.682 463.756C425.245 463.914 424.898 464.2 424.575 464.544C423.647 464.274 422.553 464.549 421.893 465.512C420.872 467.038 421.794 468.762 422.971 469.834C425.3 471.921 429.334 471.577 430.441 468.394C431.518 465.527 428.582 462.591 425.682 463.756Z" fill="white" fill-opacity="0.05"/>
<path d="M306.244 450.992C305.859 449.338 304.367 448.471 302.885 447.937C302.274 447.697 301.674 447.791 301.229 448.086C300.38 446.297 297.185 447.018 297.51 449.306C297.79 451.107 298.249 452.931 299.623 454.221C300.865 455.366 302.671 455.792 304.249 455.002C305.73 454.22 306.604 452.589 306.244 450.992Z" fill="white" fill-opacity="0.05"/>
<path d="M326.067 391.68C325.892 391.047 325.449 390.498 324.927 390.153C324.894 389.998 324.844 389.885 324.795 389.772C324.276 388.817 323.524 388.099 322.604 387.691C322.17 387.24 321.535 386.943 320.902 387.118C320.748 387.152 320.578 387.226 320.424 387.26C319.215 387.349 318.049 387.926 317.237 389.158C315.798 391.271 316.668 393.726 318.407 395.16C318.479 396.175 319.299 397.2 320.597 397.005C320.946 396.954 321.351 396.878 321.716 396.786C322.293 396.871 322.926 396.696 323.402 396.319C324.1 396.217 324.805 395.977 325.388 395.688C326.925 394.882 327.026 392.948 326.067 391.68Z" fill="white" fill-opacity="0.05"/>
<path d="M399.207 428.714C399.07 426.547 397.198 424.732 395.316 423.901C391.894 422.324 388.152 426.119 388.629 429.453C387.759 430.475 387.624 432.019 388.655 433.222C390.211 435.006 393.367 434.505 395.328 433.817C397.556 433.047 399.346 431.117 399.207 428.714Z" fill="white" fill-opacity="0.05"/>
<path d="M209.462 421.178C209.284 420.075 208.458 419.187 207.44 418.788C205.282 417.942 203.448 419.384 202.2 421.009C201.548 421.834 201.744 423.132 202.585 423.743C202.772 423.864 202.919 423.968 203.139 424.008C203.558 424.736 204.276 425.299 205.13 425.399C206.203 425.538 207.28 425.067 208.079 424.347C208.976 423.618 209.674 422.436 209.462 421.178Z" fill="white" fill-opacity="0.05"/>
<path d="M342.17 102.044C341.948 101.533 341.539 101.138 341.082 100.865C340.394 99.9847 339.191 99.9362 338.343 100.543L336.993 101.47C336.408 101.523 335.973 101.916 335.659 102.356L335.602 102.381C334.624 103.078 333.761 103.961 333.941 105.3C334.103 106.444 334.914 107.373 335.988 107.747C337.104 108.137 338.23 107.78 339.176 107.165C340.794 106.155 343.127 104.157 342.17 102.044Z" fill="white" fill-opacity="0.05"/>
<path d="M365.08 16.3758C364.857 15.8656 364.448 15.4705 363.992 15.1975C363.303 14.317 362.101 14.2684 361.252 14.8753L359.902 15.8023C359.318 15.8551 358.882 16.248 358.568 16.6887L358.512 16.7135C357.534 17.4106 356.671 18.2937 356.851 19.6325C357.013 20.7766 357.823 21.705 358.898 22.0793C360.013 22.4696 361.14 22.1126 362.086 21.4969C363.703 20.4868 366.037 18.489 365.08 16.3758Z" fill="white" fill-opacity="0.05"/>
<path d="M275.394 92.8716C274.208 90.3864 270.627 88.137 267.94 89.4793C266.661 90.1054 265.891 91.5889 266.291 92.9668C266.223 93.7389 266.497 94.5979 266.989 95.2605C267.841 96.4404 269.187 97.2027 270.586 97.4692C273.367 98.0429 276.919 96.0529 275.394 92.8716Z" fill="white" fill-opacity="0.05"/>
<path d="M476.628 100.958C475.442 98.4728 471.861 96.2234 469.174 97.5657C467.895 98.1918 467.125 99.6753 467.525 101.053C467.457 101.825 467.731 102.684 468.223 103.347C469.075 104.527 470.421 105.289 471.82 105.556C474.601 106.129 478.153 104.139 476.628 100.958Z" fill="white" fill-opacity="0.05"/>
<path d="M354.731 166.347C353.057 164.986 350.718 163.881 348.646 164.854C347.666 165.315 347.276 166.431 347.64 167.419C347.284 167.608 346.978 167.911 346.745 168.383C345.818 170.51 346.907 173.004 348.945 174.037C351.064 175.103 353.584 174.306 355.165 172.671C357.109 170.708 356.855 168.119 354.731 166.347ZM350.716 170.598C350.594 170.55 350.544 170.436 350.438 170.348C350.438 170.348 350.438 170.348 350.397 170.332C350.861 170.467 351.389 170.439 351.924 170.273C351.593 170.519 351.164 170.773 350.716 170.598Z" fill="white" fill-opacity="0.05"/>
<path d="M272.797 167.204C272.348 164.633 269.371 162.761 267.142 164.612C266.852 164.874 266.602 165.151 266.408 165.405C265.711 165.507 265.146 165.99 264.809 166.609C263.55 168.982 264.961 172.212 267.468 173.007C269.022 173.476 270.637 171.995 271.636 170.883C272.49 169.903 273.033 168.518 272.797 167.204Z" fill="white" fill-opacity="0.05"/>
<path d="M402.695 238.844C401.755 238.006 400.502 237.609 399.312 238.129C398.348 238.549 397.681 239.65 397.794 240.681C397.26 242.163 397.337 243.884 398.466 245.078C400.16 246.87 403.237 246.808 404.358 244.429C405.287 242.538 404.191 240.182 402.695 238.844Z" fill="white" fill-opacity="0.05"/>
<path d="M326.244 140.992C325.859 139.338 324.367 138.471 322.885 137.937C322.274 137.697 321.674 137.791 321.229 138.086C320.38 136.297 317.185 137.018 317.51 139.306C317.79 141.107 318.249 142.931 319.623 144.221C320.865 145.366 322.671 145.792 324.249 145.002C325.73 144.22 326.604 142.589 326.244 140.992Z" fill="white" fill-opacity="0.05"/>
<path d="M414.08 187.874C413.625 186.757 412.491 185.936 411.257 185.969C410.493 185.999 409.709 186.443 409.111 187.007C407.544 187.05 405.969 188.312 405.867 190.01C405.794 191.156 406.427 192.297 407.374 192.997C408.443 193.745 409.678 193.712 410.861 193.33C413.064 192.503 415.128 190.352 414.08 187.874Z" fill="white" fill-opacity="0.05"/>
<path d="M346.067 81.6797C345.892 81.0474 345.449 80.4982 344.927 80.1525C344.894 79.9984 344.844 79.8851 344.795 79.7717C344.276 78.8169 343.524 78.0992 342.604 77.6914C342.17 77.2395 341.535 76.9434 340.902 77.1183C340.748 77.1519 340.578 77.2262 340.424 77.2597C339.215 77.3493 338.049 77.9258 337.237 79.1578C335.798 81.2713 336.668 83.7262 338.407 85.1599C338.479 86.1746 339.299 87.2004 340.597 87.0047C340.946 86.9536 341.351 86.8777 341.716 86.7858C342.293 86.8712 342.926 86.6963 343.402 86.3194C344.1 86.2171 344.805 85.9767 345.388 85.6884C346.925 84.8819 347.026 82.9482 346.067 81.6797Z" fill="white" fill-opacity="0.05"/>
<path d="M483.248 50.8454C483.073 50.2131 482.631 49.6639 482.109 49.3183C482.075 49.1642 482.026 49.0508 481.976 48.9374C481.458 47.9826 480.706 47.265 479.785 46.8571C479.352 46.4053 478.716 46.1092 478.084 46.2841C477.93 46.3176 477.76 46.3919 477.605 46.4255C476.396 46.515 475.23 47.0916 474.419 48.3236C472.979 50.437 473.849 52.892 475.589 54.3256C475.661 55.3404 476.48 56.3662 477.778 56.1704C478.127 56.1193 478.533 56.0434 478.898 55.9516C479.475 56.0369 480.107 55.862 480.584 55.4851C481.281 55.3828 481.986 55.1424 482.569 54.8542C484.107 54.0476 484.207 52.1139 483.248 50.8454Z" fill="white" fill-opacity="0.05"/>
<path d="M419.207 118.714C419.07 116.547 417.198 114.732 415.316 113.901C411.894 112.324 408.152 116.119 408.629 119.453C407.759 120.475 407.624 122.019 408.655 123.222C410.211 125.006 413.367 124.505 415.328 123.817C417.556 123.047 419.346 121.117 419.207 118.714Z" fill="white" fill-opacity="0.05"/>
<path d="M400.436 3.56301C400.299 1.39543 398.427 -0.419062 396.545 -1.25075C393.123 -2.82716 389.38 0.96717 389.858 4.30194C388.988 5.32317 388.853 6.86724 389.884 8.07028C391.44 9.85448 394.596 9.35353 396.556 8.6659C398.785 7.89521 400.574 5.96612 400.436 3.56301Z" fill="white" fill-opacity="0.05"/>
<path d="M229.462 111.178C229.284 110.075 228.458 109.187 227.44 108.788C225.282 107.942 223.448 109.384 222.2 111.009C221.548 111.834 221.744 113.132 222.585 113.743C222.772 113.864 222.919 113.968 223.139 114.008C223.558 114.736 224.276 115.299 225.13 115.399C226.203 115.538 227.28 115.067 228.079 114.347C228.976 113.618 229.674 112.436 229.462 111.178Z" fill="white" fill-opacity="0.05"/>
<path d="M280.202 175.275C279.968 175.512 279.775 175.765 279.647 176.091C279.534 176.14 279.437 176.149 279.323 176.199C278.532 175.701 277.225 175.799 276.695 176.672C275.483 178.686 276.501 181.481 279.06 181.545C279.986 181.579 280.771 181.135 281.302 180.498C282.919 180.568 284.554 179.752 285.283 178.253C286.652 175.36 282.155 173.41 280.202 175.275Z" fill="white" fill-opacity="0.05"/>
</svg>
