<svg width="329" height="302" viewBox="0 0 329 302" fill="none" xmlns="http://www.w3.org/2000/svg">
<path d="M327.602 165.729C331.07 201.899 323.981 242.067 299.033 258.338C274.085 274.609 231.263 266.991 192.927 273.456C154.673 279.626 120.969 299.585 94.9095 293.532C68.7433 287.296 50.2999 254.746 36.2139 222.874C22.4162 191.077 12.8611 159.762 13.2019 127.588C13.4321 95.2239 23.4584 61.8143 44.8323 40.6595C66.2812 19.214 99.1854 10.2249 131.541 4.55387C164.004 -0.933931 195.929 -3.10063 223.445 7.58461C250.96 18.2698 273.959 41.6239 292.189 69.5456C310.599 97.3599 324.326 129.454 327.602 165.729Z" fill="#F8F8F8"/>
<path d="M153.863 280.857C151.946 279.278 149.581 278.507 147.154 277.949C146.544 277.605 145.834 277.842 145.448 278.376C144.614 279.539 143.942 280.798 143.345 282.08C143.021 282.792 142.71 283.504 142.399 284.228C142.112 284.905 141.714 285.606 141.926 286.365C142.174 287.232 142.996 287.54 143.78 287.849C144.502 288.134 145.224 288.419 145.959 288.692C147.452 289.25 148.959 289.76 150.49 290.223C150.876 290.342 151.436 290.223 151.697 289.915C152.631 288.811 152.867 287.41 153.129 286.045C153.39 284.68 153.639 283.314 154.174 282.009C154.336 281.653 154.174 281.106 153.863 280.857ZM145.498 285.962C145.199 285.843 144.901 285.724 144.602 285.606C144.577 285.594 144.552 285.582 144.527 285.57C144.714 285.166 144.863 284.715 145.025 284.335C145.249 283.801 145.486 283.279 145.735 282.757C146.133 281.937 146.594 281.142 147.079 280.359C148.635 280.738 150.203 281.213 151.523 282.092C151.199 283.053 151 284.039 150.813 285.036C150.701 285.641 150.577 286.247 150.44 286.852C150.39 287.078 150.34 287.351 150.253 287.612C149.27 287.291 148.274 286.983 147.303 286.626C146.693 286.425 146.096 286.199 145.498 285.962Z" fill="#FBB03B"/>
<path d="M11.9971 172.69C10.0801 171.111 7.71503 170.339 5.28769 169.781C4.67774 169.437 3.96821 169.674 3.58233 170.209C2.74832 171.372 2.07613 172.63 1.47863 173.912C1.15499 174.625 0.843789 175.337 0.532591 176.061C0.246289 176.738 -0.152044 177.438 0.0595703 178.198C0.308528 179.064 1.13009 179.373 1.91431 179.682C2.63629 179.966 3.35827 180.251 4.09269 180.524C5.58644 181.082 7.09264 181.593 8.62373 182.056C9.00961 182.174 9.56977 182.056 9.83118 181.747C10.7648 180.643 11.0013 179.242 11.2627 177.877C11.5241 176.512 11.7731 175.147 12.3083 173.841C12.4701 173.485 12.3083 172.939 11.9971 172.69ZM3.63212 177.794C3.33337 177.675 3.03462 177.557 2.73587 177.438C2.71097 177.426 2.68608 177.414 2.66118 177.402C2.8479 176.999 2.99728 176.548 3.1591 176.168C3.38316 175.634 3.61967 175.111 3.86863 174.589C4.26696 173.77 4.72754 172.975 5.213 172.191C6.76899 172.571 8.33743 173.046 9.65691 173.924C9.33326 174.886 9.13409 175.871 8.94738 176.868C8.83534 177.474 8.71087 178.079 8.57394 178.684C8.52415 178.91 8.47435 179.183 8.38722 179.444C7.40383 179.124 6.408 178.815 5.43707 178.459C4.82712 178.257 4.22962 178.031 3.63212 177.794Z" fill="#FBB03B"/>
<path d="M156.337 46.2163C154.42 44.6375 152.055 43.8659 149.628 43.308C149.018 42.9637 148.309 43.2011 147.923 43.7353C147.089 44.8987 146.416 46.157 145.819 47.439C145.495 48.1513 145.184 48.8636 144.873 49.5877C144.587 50.2643 144.188 50.9647 144.4 51.7244C144.649 52.591 145.47 52.8996 146.255 53.2083C146.977 53.4932 147.699 53.7781 148.433 54.0511C149.927 54.6091 151.433 55.1195 152.964 55.5825C153.35 55.7012 153.91 55.5825 154.172 55.2738C155.105 54.1698 155.342 52.7691 155.603 51.4039C155.864 50.0388 156.113 48.6736 156.649 47.3678C156.81 47.0117 156.649 46.4656 156.337 46.2163ZM147.972 51.3208C147.674 51.2021 147.375 51.0834 147.076 50.9647C147.051 50.9528 147.026 50.941 147.002 50.9291C147.188 50.5255 147.338 50.0744 147.499 49.6945C147.723 49.1603 147.96 48.638 148.209 48.1157C148.607 47.2966 149.068 46.5012 149.553 45.7178C151.109 46.0976 152.678 46.5725 153.997 47.4509C153.674 48.4125 153.474 49.3977 153.288 50.3949C153.176 51.0003 153.051 51.6057 152.914 52.2111C152.864 52.4367 152.815 52.7097 152.728 52.9709C151.744 52.6504 150.748 52.3417 149.777 51.9856C149.167 51.7838 148.57 51.5582 147.972 51.3208Z" fill="#FBB03B"/>
<path d="M192.482 296.193C192.847 293.728 192.285 291.322 191.506 288.979C191.486 288.28 190.914 287.811 190.254 287.775C188.82 287.702 187.388 287.816 185.974 288.006C185.193 288.119 184.419 288.242 183.634 288.371C182.903 288.496 182.093 288.539 181.549 289.128C180.932 289.805 181.092 290.663 181.233 291.489C181.362 292.25 181.491 293.012 181.637 293.777C181.931 295.335 182.273 296.877 182.668 298.415C182.766 298.804 183.159 299.211 183.56 299.264C184.995 299.453 186.323 298.895 187.634 298.378C188.945 297.86 190.25 297.332 191.652 297.077C192.042 297.021 192.428 296.59 192.482 296.193ZM183.749 291.915C183.696 291.599 183.644 291.284 183.591 290.968C183.588 290.941 183.585 290.914 183.583 290.886C184.027 290.825 184.493 290.707 184.904 290.638C185.48 290.538 186.052 290.455 186.631 290.382C187.543 290.275 188.467 290.233 189.393 290.218C189.873 291.732 190.277 293.307 190.205 294.892C189.209 295.139 188.258 295.504 187.302 295.885C186.723 296.118 186.137 296.34 185.545 296.552C185.325 296.632 185.064 296.738 184.794 296.806C184.56 295.805 184.31 294.801 184.113 293.792C183.97 293.17 183.854 292.545 183.749 291.915Z" fill="#DCDCDC"/>
<path d="M75.3598 221.308C75.725 218.843 75.1629 216.437 74.3845 214.094C74.3646 213.395 73.7923 212.926 73.1322 212.89C71.6982 212.817 70.2662 212.931 68.8526 213.121C68.0715 213.234 67.2969 213.357 66.5121 213.486C65.781 213.611 64.9715 213.654 64.4271 214.242C63.8101 214.92 63.9704 215.778 64.1113 216.604C64.2404 217.365 64.3695 218.126 64.5153 218.892C64.8095 220.449 65.1511 221.992 65.5465 223.53C65.6444 223.919 66.0371 224.326 66.4384 224.379C67.873 224.568 69.2017 224.01 70.5126 223.493C71.8235 222.975 73.1279 222.447 74.5297 222.192C74.9203 222.136 75.3065 221.705 75.3598 221.308ZM66.6272 217.029C66.5745 216.714 66.5217 216.398 66.469 216.083C66.4663 216.056 66.4637 216.028 66.461 216.001C66.9053 215.94 67.3711 215.822 67.7821 215.753C68.3582 215.653 68.9306 215.57 69.5094 215.497C70.4211 215.39 71.3447 215.347 72.271 215.332C72.7509 216.846 73.1554 218.422 73.0833 220.007C72.0876 220.254 71.136 220.618 70.1807 221C69.6013 221.233 69.0155 221.455 68.4233 221.667C68.2033 221.747 67.9424 221.853 67.6724 221.92C67.4384 220.92 67.1877 219.916 66.9908 218.907C66.8483 218.285 66.7326 217.66 66.6272 217.029Z" fill="#00A99D"/>
<path d="M58.0387 23.278C58.404 20.8127 57.8418 18.4065 57.0635 16.0634C57.0436 15.3644 56.4712 14.8958 55.8112 14.8598C54.3771 14.7867 52.9452 14.901 51.5315 15.0909C50.7505 15.2034 49.9758 15.3264 49.191 15.4558C48.46 15.5805 47.6504 15.6238 47.106 16.2121C46.4891 16.8896 46.6494 17.7474 46.7903 18.5738C46.9194 19.3349 47.0485 20.0961 47.1943 20.8614C47.4885 22.4192 47.8301 23.9618 48.2254 25.4998C48.3233 25.8885 48.716 26.2955 49.1173 26.3487C50.5519 26.5376 51.8806 25.9799 53.1915 25.4624C54.5024 24.9449 55.8069 24.4169 57.2087 24.1617C57.5992 24.1055 57.9855 23.6744 58.0387 23.278ZM49.3061 18.9991C49.2534 18.6837 49.2007 18.3683 49.148 18.0529C49.1453 18.0255 49.1426 17.9982 49.1399 17.9708C49.5842 17.9099 50.0501 17.7919 50.461 17.7228C51.0372 17.6227 51.6095 17.5395 52.1883 17.4668C53.1001 17.3594 54.0237 17.3171 54.95 17.3023C55.4298 18.8163 55.8343 20.3921 55.7622 21.9764C54.7665 22.2236 53.815 22.5883 52.8596 22.9699C52.2803 23.2026 51.6945 23.425 51.1022 23.6368C50.8822 23.7168 50.6213 23.8224 50.3513 23.8901C50.1173 22.8899 49.8666 21.8855 49.6698 20.8764C49.5272 20.2544 49.4116 19.63 49.3061 18.9991Z" fill="#DCDCDC"/>
<path d="M193.307 78.194C193.672 75.7287 193.11 73.3226 192.331 70.9794C192.311 70.2804 191.739 69.8119 191.079 69.7758C189.645 69.7027 188.213 69.817 186.799 70.007C186.018 70.1195 185.244 70.2424 184.459 70.3718C183.728 70.4965 182.918 70.5398 182.374 71.1282C181.757 71.8057 181.917 72.6634 182.058 73.4898C182.187 74.251 182.316 75.0122 182.462 75.7774C182.756 77.3352 183.098 78.8779 183.493 80.4158C183.591 80.8045 183.984 81.2116 184.385 81.2647C185.82 81.4537 187.148 80.896 188.459 80.3784C189.77 79.8609 191.075 79.3329 192.477 79.0778C192.867 79.0215 193.253 78.5905 193.307 78.194ZM184.574 73.9152C184.521 73.5998 184.469 73.2843 184.416 72.9689C184.413 72.9416 184.41 72.9142 184.408 72.8869C184.852 72.8259 185.318 72.7079 185.729 72.6388C186.305 72.5387 186.877 72.4555 187.456 72.3828C188.368 72.2754 189.292 72.2332 190.218 72.2183C190.698 73.7323 191.102 75.3081 191.03 76.8925C190.034 77.1396 189.083 77.5043 188.127 77.8859C187.548 78.1187 186.962 78.341 186.37 78.5529C186.15 78.6328 185.889 78.7384 185.619 78.8062C185.385 77.8059 185.134 76.8015 184.938 75.7925C184.795 75.1704 184.679 74.546 184.574 73.9152Z" fill="#00A99D"/>
</svg>
