<svg width="324" height="143" viewBox="0 0 324 143" fill="none" xmlns="http://www.w3.org/2000/svg">
<path d="M169.139 49.836C168.24 49.836 167.341 49.2726 167.004 48.3711C166.555 47.1315 167.116 45.892 168.352 45.4412C172.397 43.8636 176.441 41.4972 180.935 38.0039C181.946 37.215 183.406 37.4404 184.193 38.4546C184.979 39.4688 184.754 40.9337 183.743 41.7225C178.8 45.4412 174.419 48.033 170.037 49.7233C169.7 49.836 169.363 49.836 169.139 49.836ZM320.128 44.089C315.634 44.089 310.916 43.0748 305.86 41.1591C304.625 40.7083 304.063 39.3561 304.512 38.2292C304.962 36.9897 306.31 36.4262 307.546 36.877C312.601 38.9054 317.095 39.6942 321.476 39.4688C322.712 39.3561 323.835 40.3703 323.835 41.6098C323.948 42.8494 322.937 43.9763 321.701 43.9763C321.251 44.089 320.69 44.089 320.128 44.089ZM293.053 34.3979C292.716 34.3979 292.267 34.2852 291.93 34.0598L290.02 32.9329C288.897 32.2568 287.661 31.5807 286.537 30.9046C283.953 29.4396 281.257 27.9747 278.673 26.7351C277.55 26.1717 277.101 24.8195 277.662 23.6926C278.224 22.5657 279.572 22.115 280.696 22.6784C283.392 24.0307 286.088 25.4956 288.784 27.0732C289.908 27.7493 291.143 28.4255 292.267 29.1016L294.177 30.2284C295.3 30.9046 295.637 32.2568 294.963 33.3837C294.626 33.9471 293.952 34.3979 293.053 34.3979ZM194.079 32.3695C193.405 32.3695 192.731 32.0314 192.281 31.5807C191.495 30.5665 191.607 29.1016 192.618 28.3128C196.101 25.3829 200.37 22.0023 205.313 19.0724C206.437 18.3963 207.785 18.7344 208.459 19.8612C209.133 20.9881 208.796 22.3403 207.672 23.0165C203.066 25.721 199.022 28.9889 195.652 31.8061C195.09 32.1441 194.641 32.3695 194.079 32.3695ZM265.642 20.8754C265.417 20.8754 265.08 20.8754 264.855 20.7627C259.912 19.0724 255.081 17.7202 250.475 16.8187C249.239 16.5933 248.453 15.3537 248.678 14.1142C248.902 12.8746 250.138 12.0858 251.374 12.3112C256.317 13.2127 261.372 14.6776 266.428 16.4806C267.664 16.9314 268.225 18.1709 267.776 19.4105C267.439 20.312 266.54 20.8754 265.642 20.8754ZM220.479 17.3821C219.468 17.3821 218.57 16.706 218.233 15.6918C217.896 14.4522 218.682 13.2127 219.918 12.8746C224.861 11.5224 230.141 10.8463 235.646 10.8463C236.882 10.8463 238.005 11.8604 238.005 13.1C238.005 14.3396 236.994 15.4664 235.758 15.4664C230.703 15.4664 225.76 16.1426 221.154 17.3821C220.929 17.3821 220.704 17.3821 220.479 17.3821Z" fill="#1E1E1E"/>
<path d="M263.596 5.10218C252.489 2.1808 241.098 0.959465 229.652 1.54376C226.736 1.7479 226.877 6.25318 229.797 6.16166C240.794 5.59145 251.844 6.71072 262.502 9.64617C265.334 10.3466 266.431 5.91524 263.596 5.10218Z" fill="#1E1E1E"/>
<path d="M147.921 20.0733C147.079 19.8467 146.055 20.1322 145.456 20.7832C144.927 21.3503 144.76 22.1271 145.009 22.9715L166.278 96.8664L165.785 96.9642C129.281 104.565 92.9797 114.037 57.8899 125.097C48.8721 127.943 39.6891 130.979 29.7774 134.388L29.3159 134.54L6.80943 56.3898L7.22302 56.2364C42.1205 43.5556 77.9118 32.8896 113.611 24.5445C123.852 22.1459 134.444 19.8653 145.088 17.7594C145.866 17.6093 146.361 17.1946 146.562 16.5343C146.802 15.7361 146.555 14.6853 145.947 13.9627C145.606 13.5569 144.846 12.9106 143.652 13.1516C106.387 20.5338 69.3333 30.2427 33.5072 42.0263C23.4927 45.3549 13.2591 48.9062 3.1103 52.6383C2.40985 52.892 1.94669 53.3606 1.71654 54.0295C1.47013 54.7507 1.55863 55.6421 1.95622 56.3477L1.97507 56.358L25.4443 137.831C25.6158 138.414 25.9174 138.847 26.326 139.106L26.475 139.236C27.0456 139.938 27.8541 140.159 28.7147 139.858C45.4194 134.053 62.5207 128.575 79.5528 123.559C98.6229 117.944 118.003 112.79 137.14 108.262C147.431 105.818 157.991 103.483 168.532 101.297C168.59 101.28 168.667 101.273 168.726 101.256C169.162 101.127 169.506 100.899 169.744 100.576L169.824 100.473L169.951 100.42C170.842 100.063 171.754 99.1298 171.312 97.6304L149.434 21.6683C149.19 20.8385 148.662 20.2821 147.921 20.0733Z" fill="#1E1E1E"/>
<path d="M20.0122 58.3553C19.2781 57.7963 18.479 57.4463 17.5592 57.3849C16.6831 57.3107 15.8251 57.6741 15.2173 58.2961C14.8783 58.649 14.7782 59.1689 14.8717 59.6476C14.656 59.7744 14.4676 59.9406 14.3152 60.1753C13.4687 61.437 13.8897 63.243 14.9443 64.2455C16.0451 65.2977 17.6997 65.4907 19.1246 65.1186C20.0067 64.8905 20.7404 64.3738 21.2514 63.638C21.6307 63.0992 21.7811 62.3747 21.751 61.7349C21.6863 60.4409 21.0316 59.1309 20.0122 58.3553ZM17.2819 60.4723C17.2673 60.4766 17.2673 60.4766 17.2571 60.4955C17.2964 60.4681 17.3401 60.4552 17.3649 60.4321C17.3941 60.4235 17.4275 60.4295 17.4463 60.4397C17.5131 60.4517 17.5842 60.4782 17.651 60.4902C17.7829 60.5621 17.9148 60.634 18.0467 60.7059C18.135 60.7906 18.2232 60.8754 18.3114 60.9602C18.4168 61.1031 18.5076 61.2504 18.5839 61.402C18.6328 61.5141 18.6671 61.6306 18.6868 61.7513C18.6937 61.8284 18.6963 61.8909 18.6886 61.9723L18.6783 61.9911L18.668 62.01C18.6535 62.0143 18.6432 62.0331 18.6432 62.0331C18.6038 62.0605 18.5644 62.0879 18.5062 62.1051C18.3649 62.1625 18.2151 62.1908 18.0695 62.2337C17.8862 62.256 17.7132 62.2595 17.5214 62.2527C17.4212 62.2348 17.3167 62.2023 17.2122 62.1697C17.1557 62.1389 17.1034 62.1227 17.0615 62.0876C17.0383 62.0627 16.9964 62.0277 16.9732 62.0028C16.9501 61.978 16.9372 61.9343 16.9141 61.9095C16.9012 61.8658 16.8927 61.8367 16.8798 61.793C16.8755 61.7785 16.8712 61.7639 16.8815 61.7451C16.8772 61.7305 16.8918 61.7262 16.8875 61.7117C16.908 61.674 16.9183 61.6551 16.9388 61.6175C17.1263 61.3408 17.1459 60.9237 17.0807 60.5949C17.1783 60.5503 17.2322 60.5186 17.2819 60.4723Z" fill="#1E1E1E"/>
<path d="M30.6939 55.3048C30.3152 54.6095 29.6992 53.9682 28.9772 53.6114C28.1609 53.2031 27.1803 53.0964 26.3094 53.4161C25.7109 53.6398 25.2032 54.0108 24.8257 54.5016C24.4557 54.6422 24.1741 54.8675 23.9601 55.2153C23.1032 56.4959 23.1972 58.3191 23.9726 59.6095C24.3676 60.2525 24.981 60.8312 25.6816 61.1153C26.0979 61.2933 26.4782 61.4028 26.9329 61.4429C27.4065 61.4933 27.8064 61.4546 28.2749 61.38C29.9944 61.0951 31.4472 59.5283 31.4141 57.7504C31.401 56.9 31.1044 56.054 30.6939 55.3048ZM27.2028 56.3961C27.213 56.3772 27.2233 56.3584 27.2336 56.3395C27.2481 56.3353 27.273 56.3121 27.2875 56.3078C27.3166 56.2993 27.3457 56.2907 27.3749 56.2821C27.4083 56.2881 27.4374 56.2795 27.4708 56.2855C27.5042 56.2915 27.523 56.3018 27.5564 56.3078C27.5941 56.3283 27.6318 56.3488 27.6695 56.3694C27.7534 56.4396 27.8228 56.5141 27.8922 56.5885C27.9976 56.7315 28.0884 56.8788 28.1647 57.0304C28.2478 57.259 28.3121 57.4773 28.3662 57.7146C28.3688 57.7771 28.3713 57.8396 28.3782 57.9167C28.3825 57.9312 28.368 57.9355 28.3722 57.9501C28.3517 57.9877 28.3457 58.0211 28.3209 58.0443C28.2755 58.1051 28.2113 58.1556 28.1659 58.2165C28.1017 58.267 28.0332 58.303 27.9647 58.339C27.8483 58.3733 27.7318 58.4076 27.6153 58.4419C27.5092 58.4573 27.4132 58.4539 27.3028 58.4548C27.2026 58.4369 27.1024 58.4189 26.9979 58.3864C26.9413 58.3556 26.8848 58.3248 26.8283 58.294C26.782 58.2443 26.74 58.2092 26.6938 58.1596C26.6389 58.0808 26.5798 57.9875 26.5395 57.9044C26.5095 57.8025 26.4838 57.7152 26.4538 57.6133C26.4529 57.5028 26.4477 57.3777 26.4468 57.2673C26.7705 57.0771 27.0496 56.7892 27.2028 56.3961Z" fill="#1E1E1E"/>
<path d="M39.4989 51.1458C38.2961 49.8548 36.2801 49.5625 34.6582 50.0718C34.153 50.2363 33.7626 50.6835 33.6292 51.1974C33.6292 51.1974 33.6146 51.2017 33.6189 51.2162C32.8502 52.3127 32.6966 53.9399 33.2006 55.1678C33.5365 55.9864 34.0274 56.6328 34.7735 57.125C35.3646 57.5205 36.0934 57.6855 36.7982 57.7153C38.189 57.7645 39.7003 56.9872 40.3028 55.7024C41.0157 54.1479 40.6366 52.377 39.4989 51.1458ZM37.6114 53.8689C37.6226 53.9605 37.6192 54.0565 37.6158 54.1524C37.5995 54.2046 37.5833 54.2569 37.5816 54.3048C37.5713 54.3237 37.5508 54.3614 37.5405 54.3802C37.5054 54.4222 37.466 54.4496 37.4309 54.4916C37.3915 54.519 37.3522 54.5464 37.2982 54.5781C37.1963 54.6081 37.0944 54.6381 36.9925 54.6681C36.9009 54.6793 36.805 54.6759 36.709 54.6725C36.6277 54.6648 36.5566 54.6383 36.4855 54.6118C36.4333 54.5955 36.3913 54.5604 36.3348 54.5296C36.2928 54.4945 36.2465 54.4449 36.2045 54.4098C36.1497 54.331 36.0906 54.2377 36.0503 54.1546C36.0203 54.0527 35.9903 53.9508 35.9603 53.8489C35.9508 53.7093 35.9456 53.5843 35.955 53.455C35.979 53.3213 36.0072 53.2023 36.05 53.079C36.0808 53.0224 36.1116 52.9659 36.1424 52.9094C36.2383 52.9128 36.3445 52.8973 36.4404 52.9007C36.5929 52.9349 36.7453 52.9691 36.9021 53.0179C36.9963 53.0692 37.1051 53.1163 37.2036 53.1822C37.2687 53.2421 37.3295 53.2875 37.38 53.3517C37.4349 53.4305 37.494 53.5238 37.5343 53.6069C37.5557 53.6797 37.5857 53.7816 37.6114 53.8689Z" fill="#1E1E1E"/>
<path d="M85.2381 90.5938C83.7548 87.8666 82.2184 85.2817 81.0776 82.3746C79.8751 79.3116 79.2393 75.7021 77.5736 72.8389C74.2001 67.0773 68.1274 69.878 63.166 71.4022C61.2093 72.01 59.968 73.4355 59.3768 75.0808C55.6634 74.9878 51.969 75.174 48.4452 76.1009C45.3042 76.9309 43.3845 80.5652 44.3369 83.6385C46.5822 90.8872 48.8377 98.117 51.1411 105.348C52.6662 110.152 58.0445 110.419 61.0351 108.004C61.7237 108.086 62.4533 108.092 63.2214 107.961C69.4497 106.87 76.0877 104.647 81.9601 102.348C87.4464 100.242 87.7625 95.2449 85.2381 90.5938ZM70.4351 90.0171C69.0379 91.5042 67.7144 93.0804 66.3781 94.6129C65.8927 95.1672 65.1417 95.3567 64.4488 95.2601C64.2913 95.3698 64.1252 95.4504 63.9171 95.4958C63.5343 95.5927 63.1404 95.598 62.7541 95.5219C61.7769 95.3192 61.1146 94.3594 61.0715 93.4071C61.062 93.2675 61.0817 93.1194 61.091 92.9901C61.0259 92.9301 60.9565 92.8556 60.8914 92.7957C60.0442 91.9062 59.2714 90.9473 58.5132 89.9841C58.0034 89.3274 58.1008 88.4761 58.4662 87.7832C58.4558 87.2642 58.614 86.7272 58.882 86.3477C59.4529 85.5468 60.2896 85.3795 61.1931 85.4931C61.7524 85.5657 62.3116 85.6384 62.8563 85.7153C63.1192 85.7486 63.3821 85.7819 63.6494 85.8298C63.783 85.8537 63.9123 85.8631 64.0416 85.8725C65.1181 85.9826 66.1921 86.0302 67.2754 85.9485C67.7233 85.9115 68.1412 86.0416 68.483 86.2889C69.3239 86.1362 70.2225 86.6626 70.6886 87.3322C71.2557 88.1302 71.0737 89.3386 70.4351 90.0171Z" fill="#00A99D"/>
<path d="M80.5255 77.7597C80.3138 77.0944 80.1123 76.4102 79.8877 75.7011C79.2987 73.7548 78.7072 71.7458 77.8186 70.125C76.0345 66.8062 73.6032 66.9842 71.2595 67.6744C70.6626 67.8501 70.035 68.0824 69.3636 68.3276L69.2763 68.3533C68.8336 68.5153 68.4054 68.673 68.0021 68.8076L40.2141 77.7496C38.8397 78.186 38.6613 79.8363 38.9092 81.108C39.1914 82.4961 40.0688 84.0253 41.3415 84.1568L41.6858 84.1978L48.0016 102.476C48.5759 104.158 49.1648 105.836 49.7391 107.517C50.6117 109.997 51.4731 112.117 53.2452 112.924C54.3039 113.403 55.3469 113.238 56.3805 112.934C56.6862 112.844 57.0022 112.735 57.3036 112.63L82.2059 104.633C84.1146 104.023 85.9214 103.444 86.6006 101.077C87.4885 97.9676 85.8685 93.5405 84.4276 89.6144C84.0248 88.5149 83.6922 87.6004 83.4145 86.7646L80.5255 77.7597ZM74.5802 74.3849C74.7293 74.7839 74.8656 75.1393 74.9599 75.4595L78.5158 86.5144C79.5977 89.866 80.6607 93.2073 81.7425 96.5589C81.8943 97.0205 82.04 97.5154 82.1669 98.0001L82.683 99.699L82.236 99.8465C81.9158 99.9408 81.5005 100.142 81.4174 100.182L57.0795 108.109C56.963 108.143 56.7506 108.174 56.4946 108.217C56.1469 108.272 55.7076 108.338 55.3437 108.446L54.907 108.574L54.6926 107.846C54.5983 107.526 54.4663 107.185 54.3275 106.767C54.24 106.524 54.1526 106.281 54.0737 106.067L45.5273 80.8044L71.3723 72.3554C71.9358 72.1736 72.5095 71.9731 73.0627 71.8102L73.7846 71.6292L73.9475 72.4513C74.0582 72.9883 74.3393 73.7281 74.5802 74.3849Z" fill="#1E1E1E"/>
<path d="M72.2269 85.2498C67.1115 84.747 61.9781 84.3445 56.8516 84.019C56.6409 84.0019 56.4474 84.0431 56.2436 84.1031C56.1708 84.1245 56.0937 84.1314 56.0064 84.1571C54.8983 84.5309 54.0184 85.7866 54.4658 86.9837L59.2461 99.9403C59.8067 101.468 61.8871 102.247 63.0933 100.864C66.5878 96.8292 70.1937 92.9041 73.9298 89.0987C74.5625 88.4537 74.6854 87.4208 74.3392 86.6211C73.9295 85.7134 73.1553 85.3403 72.2269 85.2498ZM67.3802 89.3663C65.644 91.2064 63.9309 93.0714 62.2556 94.9568C61.4927 92.9034 60.7444 90.8458 59.9816 88.7924C62.4532 88.9663 64.9145 89.159 67.3802 89.3663Z" fill="#1E1E1E"/>
<path d="M93.2722 54.2158C92.4303 51.4105 88.0631 52.6965 88.905 55.5018L103.163 102.954C103.119 102.967 103.086 102.961 103.061 102.984C81.4532 110.296 59.6507 117.001 37.6869 123.105C33.4881 107.557 28.892 92.1098 23.9363 76.7845C44.4193 70.8636 64.8981 64.9282 85.3666 59.0116C88.1805 58.1988 86.8945 53.8316 84.0806 54.6444C62.8406 60.7882 41.6151 66.9277 20.375 73.0715C19.7054 73.2687 19.2833 73.6619 19.0411 74.1287C19.0206 74.1664 19 74.2041 18.9795 74.2418C18.733 74.694 18.6604 75.2533 18.8635 75.8895C24.2436 92.3871 29.1912 109.028 33.6833 125.787C34.01 127.004 34.9933 127.442 35.9473 127.351C36.4467 127.757 37.107 127.958 37.9119 127.737C60.2336 121.56 82.3812 114.737 104.32 107.312C104.839 107.143 105.225 106.84 105.468 106.484C106.943 106.714 108.666 105.526 108.117 103.663L93.2722 54.2158Z" fill="#1E1E1E"/>
<path d="M113.057 51.1898C112.518 50.7001 111.85 50.3115 111.24 49.9058C110.686 49.5309 110.162 49.1474 109.49 49.0131C108.527 48.8062 107.594 49.1285 106.909 49.7573C106.63 49.5073 106.32 49.3139 105.948 49.2335C105.39 49.1129 104.669 49.1354 104.195 49.5124C103.449 50.0958 102.838 50.8137 102.664 51.7823C102.515 52.6174 102.561 53.4738 102.87 54.253C103.378 55.4954 104.159 56.6419 104.897 57.7533C105.444 58.5889 106.162 59.2002 107.146 59.4799C107.94 59.7049 108.75 59.6087 109.547 59.4688C110.75 59.2569 111.912 58.5826 112.779 57.7105C113.74 56.7313 114.437 55.229 114.294 53.8314C114.2 52.8149 113.83 51.8798 113.057 51.1898Z" fill="#FBB03B"/>
<path d="M118.184 74.0265C118.044 73.4982 117.857 72.9681 117.64 72.4466C117.785 71.597 117.655 70.6705 117.176 69.9572C116.866 69.4949 116.471 69.1208 115.981 68.8537C115.529 68.6072 114.891 68.431 114.375 68.504C113.902 68.5641 113.432 68.6867 113.053 68.9566C112.899 68.9703 112.749 68.9987 112.589 69.0458C112.113 69.2018 111.592 69.5291 111.331 69.9857C111.155 70.0851 110.974 70.1699 110.797 70.2693C110.196 70.5889 109.699 71.0516 109.328 71.6195C108.486 72.8958 108.996 74.3592 109.401 75.6796C109.574 76.214 109.737 76.7671 109.91 77.3015C110.021 77.68 110.141 78.0876 110.355 78.436C110.777 79.1185 111.486 79.5901 112.285 79.6712C112.729 79.7302 113.177 79.6932 113.601 79.5209C113.869 79.4103 114.137 79.2998 114.405 79.1892C114.829 79.017 115.267 78.8404 115.687 78.6536C115.82 78.6775 115.964 78.6826 116.094 78.692C116.517 78.6781 116.895 78.5667 117.258 78.349C118.195 77.9308 118.85 76.6623 118.731 75.6689C118.671 75.1962 118.561 74.7697 118.306 74.3862C118.243 74.2783 118.219 74.143 118.184 74.0265Z" fill="#FBB03B"/>
<path d="M122.849 89.9754C122.195 89.3136 121.292 88.9311 120.381 88.8989C119.868 88.8759 119.379 88.9882 118.939 89.2128C118.75 89.1101 118.533 89.0159 118.324 88.9509C117.444 88.7037 116.415 89.0226 115.805 89.6925C115.276 90.2596 114.955 91.0502 114.832 91.8141C114.636 93.0268 114.716 94.2686 115.205 95.3903C115.543 96.1609 115.91 96.7646 116.464 97.4084C116.87 97.8742 117.361 98.2517 117.882 98.5726C118.695 99.0768 119.759 99.4122 120.696 99.1044C121.143 98.957 121.542 98.6974 121.86 98.3821C122.55 98.1472 123.176 97.694 123.576 97.1175C124.126 96.3543 124.377 95.3788 124.319 94.4308C124.28 93.9204 124.178 93.4125 124.007 92.9407C124.002 92.8157 124.03 92.6966 124.025 92.5716C123.94 91.5842 123.553 90.7014 122.849 89.9754Z" fill="#FBB03B"/>
<path d="M116.189 53.6055C115.638 52.2175 115.087 50.8294 114.54 49.4559C113.919 47.8829 113.467 45.5956 111.612 45.0978C110.665 44.8386 109.663 45.1969 108.748 45.419C107.924 45.63 107.1 45.8409 106.281 46.0664C104.642 46.5174 103.02 47.0266 101.411 47.5795C100.288 47.9576 99.4563 49.215 99.8703 50.4061C99.9175 50.5663 99.9937 50.7178 100.08 50.8505C99.672 51.3979 99.4692 52.1062 99.7435 52.769C100.312 54.2152 100.876 55.6469 101.444 57.0932C102.004 58.5104 102.458 60.0535 103.184 61.3901C103.603 62.1684 104.35 62.771 105.212 62.96C106.213 63.1875 107.097 62.753 108.007 62.4059L112.292 60.7328C112.93 60.4817 113.583 60.2263 114.221 59.9751C115.199 59.592 116.262 59.2791 116.83 58.3052C117.753 56.7677 116.789 55.1057 116.189 53.6055ZM108.006 57.5655C107.567 57.7421 107.139 57.8998 106.701 58.0764C106.599 57.8375 106.507 57.5797 106.405 57.3408C106.15 56.6883 105.894 56.0358 105.643 55.3979C105.137 54.1075 104.626 52.8025 104.105 51.5164C105.984 50.9154 107.887 50.3393 109.805 49.8694C109.805 49.8694 109.805 49.8694 109.82 49.8651C109.86 49.9482 109.886 50.0355 109.926 50.1186L111.231 53.4204C111.556 54.2579 111.896 55.091 112.222 55.9285C111.954 56.039 111.682 56.135 111.428 56.2413C110.29 56.6716 109.14 57.1207 108.006 57.5655Z" fill="#1E1E1E"/>
<path d="M113.883 65.9751C112.495 66.5262 111.107 67.0774 109.734 67.6242C108.161 68.2456 105.874 68.6976 105.376 70.5528C105.117 71.4992 105.475 72.501 105.697 73.4164C105.908 74.2402 106.119 75.064 106.344 75.8835C106.795 77.5225 107.305 79.1443 107.857 80.7533C108.235 81.8759 109.493 82.708 110.684 82.2939C110.844 82.2468 110.996 82.1705 111.128 82.084C111.676 82.4923 112.384 82.695 113.047 82.4208C114.493 81.8525 115.925 81.2886 117.371 80.7203C118.788 80.1606 120.331 79.7062 121.668 78.9804C122.446 78.5614 123.049 77.8144 123.238 76.952C123.465 75.9516 123.031 75.0671 122.684 74.1569L121.011 69.872C120.76 69.2341 120.504 68.5816 120.253 67.9436C119.87 66.9649 119.557 65.9022 118.583 65.3348C117.046 64.4112 115.369 65.3795 113.883 65.9751ZM117.843 74.1584C118.02 74.5969 118.178 75.025 118.354 75.4634C118.115 75.5654 117.858 75.6571 117.619 75.7591C116.966 76.0145 116.314 76.2699 115.676 76.5211C114.385 77.0276 113.08 77.5385 111.794 78.0596C111.193 76.18 110.617 74.2772 110.147 72.3591C110.147 72.3591 110.147 72.3591 110.143 72.3445C110.226 72.3042 110.313 72.2785 110.396 72.2382L113.698 70.9337C114.536 70.608 115.369 70.2678 116.206 69.9421C116.317 70.2101 116.413 70.4824 116.519 70.7358C116.95 71.8747 117.399 73.0239 117.843 74.1584Z" fill="#1E1E1E"/>
<path d="M120.338 101.488C121.726 100.937 123.114 100.386 124.488 99.8388C126.061 99.2174 128.348 98.7653 128.846 96.9102C129.105 95.9638 128.747 94.9619 128.525 94.0465C128.314 93.2227 128.103 92.3989 127.877 91.5795C127.426 89.9405 126.917 88.3186 126.364 86.7096C125.986 85.587 124.729 84.755 123.538 85.169C123.378 85.2162 123.226 85.2924 123.093 85.379C122.546 84.9707 121.838 84.7679 121.175 85.0422C119.729 85.6104 118.297 86.1744 116.851 86.7427C115.433 87.3023 113.89 87.7567 112.554 88.4825C111.775 88.9016 111.173 89.6485 110.984 90.511C110.756 91.5113 111.191 92.3958 111.538 93.3061L113.211 97.5909C113.462 98.2289 113.718 98.8814 113.969 99.5193C114.352 100.498 114.665 101.561 115.639 102.128C117.191 103.047 118.853 102.083 120.338 101.488ZM116.393 93.3002C116.216 92.8618 116.059 92.4337 115.882 91.9952C116.121 91.8933 116.379 91.8015 116.618 91.6996C117.27 91.4441 117.923 91.1887 118.56 90.9376C119.851 90.431 121.156 89.9202 122.442 89.3991C123.043 91.2787 123.619 93.1814 124.089 95.0996C124.089 95.0996 124.089 95.0996 124.093 95.1142C124.01 95.1544 123.923 95.1802 123.84 95.2204L120.538 96.5249C119.701 96.8506 118.867 97.1909 118.03 97.5166C117.919 97.2486 117.823 96.9763 117.717 96.7228C117.287 95.5839 116.842 94.4494 116.393 93.3002Z" fill="#1E1E1E"/>
<path d="M132.218 40.8332C127.809 41.8152 123.501 43.1945 119.357 44.9686C118.26 45.434 117.385 46.5459 117.816 47.7952C118.173 48.845 119.477 49.8372 120.643 49.3358C124.791 47.5763 129.095 46.1824 133.504 45.2004C134.661 44.9388 135.419 43.4819 135.045 42.3738C134.618 41.139 133.467 40.5605 132.218 40.8332Z" fill="#1E1E1E"/>
<path d="M142.842 44.8394C135.733 46.8063 128.697 49.0206 121.734 51.4824C118.981 52.4511 120.253 56.8225 123.02 55.8496C129.968 53.3921 137.019 51.1735 144.128 49.2066C146.955 48.4375 145.669 44.0703 142.842 44.8394Z" fill="#1E1E1E"/>
<path d="M130.842 61.9463C130.323 61.6879 129.684 61.5596 129.11 61.7602C127.52 62.3233 125.93 62.8865 124.34 63.4497C123.766 63.6503 123.283 63.9981 122.986 64.5446C122.719 65.0345 122.612 65.7462 122.799 66.2763C122.996 66.8354 123.342 67.3663 123.894 67.6307C124.413 67.8892 125.052 68.0175 125.626 67.8169C127.216 67.2537 128.806 66.6905 130.396 66.1274C130.97 65.9268 131.453 65.5789 131.751 65.0325C132.018 64.5425 132.125 63.8308 131.937 63.3008C131.741 62.7416 131.38 62.215 130.842 61.9463Z" fill="#1E1E1E"/>
<path d="M147.715 65.6311C140.704 67.395 133.745 69.3336 126.842 71.4614C124.041 72.3178 125.327 76.685 128.128 75.8286C135.031 73.7008 141.99 71.7622 149.001 69.9983C151.86 69.2832 150.559 64.9203 147.715 65.6311Z" fill="#1E1E1E"/>
<path d="M138.097 81.91C137.526 81.6353 136.994 81.6021 136.365 81.7239C134.426 82.121 132.502 82.6243 130.631 83.2544C130.067 83.4361 129.564 83.8217 129.276 84.3493C129.009 84.8393 128.902 85.5509 129.09 86.081C129.487 87.2139 130.707 88.0254 131.917 87.6216C133.807 87.0018 135.712 86.4882 137.651 86.0911C138.188 85.9804 138.749 85.4673 139.006 84.9962C139.273 84.5062 139.38 83.7945 139.192 83.2645C139.01 82.701 138.65 82.1745 138.097 81.91Z" fill="#1E1E1E"/>
<path d="M153.65 85.7305C146.829 87.818 139.949 89.7017 133.031 91.4064C130.183 92.1028 131.469 96.47 134.317 95.7736C141.235 94.0689 148.115 92.1852 154.936 90.0977C157.737 89.2412 156.451 84.874 153.65 85.7305Z" fill="#1E1E1E"/>
<path d="M81.482 37.9764C75.9973 39.4965 70.5169 41.0312 65.0321 42.5514C62.2097 43.3351 63.4957 47.7023 66.3181 46.9186C71.8029 45.3984 77.2833 43.8637 82.768 42.3436C85.5905 41.5599 84.3045 37.1927 81.482 37.9764Z" fill="#1E1E1E"/>
<path d="M106.747 30.7265L99.5804 32.821C98.4303 33.1596 97.2803 33.4983 96.1405 33.8181C95.0924 34.1267 93.8199 34.5331 92.8848 34.6344C91.6996 34.7461 90.5583 35.6517 90.6418 36.956C90.7115 38.1061 91.6865 39.3219 92.9633 39.199C95.5607 38.9404 98.0859 38.007 100.575 37.2739L108.033 35.0937C109.168 34.7593 109.979 33.4291 109.573 32.2671C109.168 31.1051 107.97 30.3664 106.747 30.7265Z" fill="#1E1E1E"/>
<path d="M137.217 22.7822C130.975 24.1459 124.799 25.7904 118.7 27.697C115.904 28.568 117.19 32.9352 119.986 32.0642C126.085 30.1576 132.261 28.5131 138.503 27.1494C139.708 26.8895 140.374 25.4437 140.044 24.3228C139.675 23.0709 138.422 22.5223 137.217 22.7822Z" fill="#1E1E1E"/>
<path d="M121.188 116.408C103.751 120.531 86.4473 125.215 69.3022 130.437C66.5013 131.294 67.7873 135.661 70.5882 134.805C87.7333 129.582 105.041 124.912 122.474 120.776C125.331 120.108 124.026 115.731 121.188 116.408Z" fill="#FBB03B"/>
<path d="M128.557 11.585C127.063 9.84186 125.474 8.2058 123.79 6.67682C122.776 5.75737 120.893 5.75798 120.21 7.14556C119.8 8.0098 119.372 8.86377 118.962 9.728C118.816 10.0398 118.683 10.5537 118.439 10.7995C118.414 10.8227 118.404 10.8415 118.393 10.8603C118.374 10.8501 118.351 10.8252 118.314 10.8047C117.66 10.4118 117.182 9.54017 116.58 9.05307C115.946 8.51203 115.23 8.12175 114.411 7.91991C112.826 7.53247 111.41 8.3131 110.65 9.70756C110.266 10.3902 109.989 11.1679 109.732 11.9079C109.712 11.9456 109.71 11.9936 109.694 12.0458C109.601 11.9465 109.509 11.8472 109.412 11.7333C108.737 10.9988 108.003 10.2813 107.153 9.75665C105.55 8.77317 103.7 8.93819 102.76 10.6864C102.205 11.704 101.902 12.9321 101.513 14.0276C101.513 14.0276 101.493 14.0653 101.476 14.1175C100.223 12.4934 98.6275 10.084 96.3421 11.0259C95.1578 11.517 94.468 12.8275 93.9948 14.1217C93.7249 13.7424 93.4302 13.3862 93.115 13.0677C91.5832 11.5729 89.5066 12.0421 88.3802 13.7501C87.8118 14.6135 87.3925 15.6071 86.9894 16.5484C86.9792 16.5672 86.9834 16.5818 86.9732 16.6006C86.2346 15.4893 85.2606 14.6529 83.6763 14.6448C80.7286 14.6269 79.6647 19.1799 78.6873 21.2869C77.4704 23.9233 81.3977 26.2471 82.6206 23.5774C83.0631 22.6086 83.5098 21.6545 83.9523 20.6857C84.1622 21.1301 84.391 21.5848 84.5521 21.9171C84.9506 22.7331 85.5854 23.3846 86.5001 23.5898C88.2105 23.9721 89.5717 22.6853 90.1622 21.1984C90.5361 20.2657 90.7388 19.2885 91.1315 18.366C91.1273 18.3515 91.1418 18.3472 91.1418 18.3472C91.2481 18.6006 91.3544 18.8541 91.4855 19.0844C92.2018 20.2814 93.5046 21.0526 94.9125 20.8912C96.2578 20.7323 97.1379 19.7455 97.5134 18.4959C97.6614 17.9777 97.776 17.4535 97.9094 16.9397C98.3789 17.5133 98.8322 18.1392 99.3368 18.6708C100.23 19.61 101.393 20.2802 102.735 19.9483C104.018 19.6336 104.687 18.5192 105.14 17.3732C105.41 16.6769 105.66 15.9703 105.911 15.2637C105.944 15.1592 106.003 14.9836 106.053 14.7789C106.423 15.1762 106.764 15.582 107.149 15.9749C107.996 16.8645 109.009 17.8319 110.325 17.9505C111.741 18.087 112.81 17.2029 113.325 15.9438C113.388 15.7828 113.895 14.2257 114.232 13.114C114.732 13.6311 115.174 14.1654 115.774 14.5899C116.837 15.3526 118.169 15.8463 119.486 15.5376C121.161 15.1551 122.144 13.7109 122.909 12.1726C123.747 13.033 124.561 13.9165 125.336 14.8275C127.255 17.0467 130.462 13.8084 128.557 11.585Z" fill="#FBB03B"/>
</svg>
