<svg width="265" height="123" viewBox="0 0 265 123" fill="none" xmlns="http://www.w3.org/2000/svg">
<path d="M149.3 70.16C145.05 69.74 140.79 69.3 136.54 68.86L133.39 68.53C132.56 68.45 131.83 69.04 131.74 69.87C131.66 70.69 132.25 71.43 133.08 71.52L136.23 71.85C140.49 72.29 144.75 72.74 149.01 73.15C149.06 73.15 149.11 73.16 149.16 73.16C149.92 73.16 150.58 72.58 150.65 71.81C150.72 70.97 150.12 70.24 149.3 70.16Z" fill="white"/>
<path d="M117.45 66.95C111.54 66.41 106.31 66 101.45 65.71C100.61 65.66 99.91 66.29 99.86 67.12C99.81 67.95 100.44 68.66 101.27 68.71C106.1 69 111.3 69.41 117.18 69.95C117.23 69.95 117.27 69.96 117.32 69.96C118.09 69.96 118.74 69.38 118.81 68.6C118.88 67.75 118.27 67.02 117.45 66.95Z" fill="white"/>
<path d="M181.11 72.4C176.15 72.25 170.94 71.97 165.2 71.54C164.37 71.48 163.66 72.1 163.59 72.93C163.53 73.76 164.15 74.48 164.98 74.54C170.77 74.97 176.02 75.25 181.02 75.4C181.04 75.4 181.05 75.4 181.07 75.4C181.88 75.4 182.54 74.76 182.57 73.95C182.59 73.12 181.94 72.43 181.11 72.4Z" fill="white"/>
<path d="M85.3899 65.1C84.4599 65.09 83.5199 65.08 82.5899 65.08C78.0499 65.07 73.5399 65.2 69.2899 65.44C68.4599 65.49 67.8299 66.2 67.8799 67.02C67.9299 67.82 68.5899 68.44 69.3799 68.44C69.4099 68.44 69.4399 68.44 69.4699 68.44C73.5999 68.21 77.9399 68.09 82.3799 68.09C83.3599 68.09 84.3699 68.09 85.3599 68.11C85.3699 68.11 85.3699 68.11 85.3799 68.11C86.1999 68.11 86.8699 67.45 86.8799 66.63C86.8799 65.79 86.2099 65.11 85.3899 65.1Z" fill="white"/>
<path d="M53.23 67.1C47.36 68.04 42.21 69.33 37.46 71.04C36.68 71.32 36.28 72.18 36.55 72.96C36.77 73.57 37.35 73.95 37.96 73.95C38.13 73.95 38.3 73.92 38.47 73.86C43.04 72.22 48.02 70.97 53.7 70.06C54.52 69.93 55.07 69.16 54.94 68.34C54.81 67.52 54.04 66.96 53.23 67.1Z" fill="white"/>
<path d="M22.9199 78.56C18.3799 81.87 14.6099 85.93 11.7199 90.64C11.2899 91.35 11.5099 92.27 12.2099 92.7C12.4599 92.85 12.7299 92.92 12.9999 92.92C13.4999 92.92 13.9999 92.67 14.2799 92.21C16.9699 87.84 20.4699 84.06 24.6899 80.98C25.3599 80.49 25.5099 79.55 25.0199 78.88C24.5299 78.22 23.5899 78.08 22.9199 78.56Z" fill="white"/>
<path d="M257.42 15.58C259.1 17.92 260.36 20.59 261.16 23.52C261.34 24.19 261.95 24.63 262.61 24.63C262.74 24.63 262.87 24.61 263 24.58C263.8 24.36 264.27 23.54 264.05 22.74C263.16 19.47 261.75 16.47 259.86 13.84C258.51 11.96 256.91 10.24 255.1 8.71999C254.47 8.18999 253.52 8.26999 252.99 8.89999C252.46 9.52999 252.54 10.48 253.17 11.01C254.78 12.37 256.21 13.91 257.42 15.58Z" fill="white"/>
<path d="M263.04 37.5C262.24 37.3 261.42 37.8 261.23 38.6C260.7 40.76 259.96 42.85 259.01 44.81C257.78 47.37 256.2 49.83 254.31 52.13C253.78 52.77 253.88 53.72 254.52 54.24C254.8 54.47 255.14 54.58 255.47 54.58C255.9 54.58 256.33 54.39 256.63 54.03C258.67 51.55 260.38 48.88 261.72 46.11C262.76 43.96 263.58 41.67 264.15 39.31C264.34 38.51 263.85 37.7 263.04 37.5Z" fill="white"/>
<path d="M239.49 4.40998C239.61 4.43998 239.73 4.44998 239.85 4.44998C240.52 4.44998 241.14 3.98998 241.31 3.30998C241.51 2.50998 241.02 1.68998 240.21 1.49998C235.17 0.259984 229.62 -0.220015 223.88 0.0999845C223.05 0.149985 222.42 0.849984 222.46 1.67998C222.5 2.50998 223.2 3.12998 224.04 3.09998C229.5 2.78998 234.74 3.23998 239.49 4.40998Z" fill="white"/>
<path d="M212.84 71.32C210.49 71.6 208.04 71.83 205.36 72.02C202.64 72.21 199.83 72.35 197.02 72.44C196.19 72.46 195.54 73.16 195.57 73.98C195.59 74.79 196.26 75.43 197.07 75.43C197.09 75.43 197.1 75.43 197.12 75.43C199.98 75.34 202.82 75.2 205.58 75.01C208.31 74.82 210.81 74.59 213.21 74.3C214.03 74.2 214.62 73.46 214.52 72.63C214.41 71.8 213.65 71.21 212.84 71.32Z" fill="white"/>
<path d="M242.57 62.13C240.59 63.33 238.48 64.42 236.31 65.38C233.8 66.48 231.09 67.46 228.27 68.29C227.48 68.52 227.02 69.36 227.25 70.15C227.44 70.8 228.04 71.23 228.69 71.23C228.83 71.23 228.97 71.21 229.11 71.17C232.06 70.31 234.89 69.29 237.52 68.13C239.81 67.12 242.03 65.97 244.12 64.71C244.83 64.28 245.06 63.36 244.63 62.65C244.21 61.93 243.28 61.7 242.57 62.13Z" fill="white"/>
<path d="M11.3599 109.71C9.91991 111.11 8.81991 112.75 7.91991 114.5C8.00991 111.78 8.28991 109.12 8.77991 106.57C8.93991 105.76 8.39991 104.97 7.58991 104.81C6.76991 104.65 5.98991 105.19 5.82991 106C5.40991 108.18 5.13991 110.44 4.98991 112.75C4.58991 111.84 4.18991 110.92 3.75991 110.02C3.40991 109.29 2.35991 109.1 1.70991 109.48C0.959912 109.92 0.819912 110.8 1.16991 111.53C2.76991 114.89 4.14991 118.34 5.30991 121.87C5.77991 123.29 7.73991 123.3 8.19991 121.87C9.37991 118.21 10.6899 114.52 13.4599 111.82C14.0399 111.25 14.0299 110.27 13.4599 109.7C12.8999 109.12 11.9399 109.14 11.3599 109.71Z" fill="white"/>
</svg>
