<svg width="318" height="330" viewBox="0 0 318 330" fill="none" xmlns="http://www.w3.org/2000/svg">
<path d="M252.808 44.9427C285.485 60.2361 316.234 86.7382 317.514 116.68C318.793 146.621 290.603 180.018 276.722 216.643C262.631 253.046 262.631 292.473 244.264 312.08C225.687 331.687 188.524 331.254 154.146 327.373C119.979 323.28 88.3716 315.74 61.0398 299.155C33.4893 282.571 10.0041 256.935 2.73995 227.631C-4.7348 198.114 4.23814 164.937 15.7701 133.918C27.5127 102.898 41.8225 74.0264 64.8865 55.4978C87.9505 36.9692 119.558 28.7833 152.656 27.0595C185.754 25.1233 220.139 29.4287 252.808 44.9427Z" fill="#F8F8F8"/>
<path d="M134.746 181.128C135.111 178.663 134.549 176.257 133.77 173.913C133.75 173.214 133.178 172.746 132.518 172.71C131.084 172.637 129.652 172.751 128.238 172.941C127.457 173.053 126.683 173.176 125.898 173.306C125.167 173.43 124.357 173.474 123.813 174.062C123.196 174.74 123.356 175.597 123.497 176.424C123.626 177.185 123.755 177.946 123.901 178.711C124.195 180.269 124.537 181.812 124.932 183.35C125.03 183.739 125.423 184.146 125.824 184.199C127.259 184.388 128.587 183.83 129.898 183.312C131.209 182.795 132.514 182.267 133.915 182.012C134.306 181.955 134.692 181.524 134.746 181.128ZM126.013 176.849C125.96 176.534 125.907 176.218 125.855 175.903C125.852 175.876 125.849 175.848 125.847 175.821C126.291 175.76 126.757 175.642 127.168 175.573C127.744 175.473 128.316 175.389 128.895 175.317C129.807 175.209 130.73 175.167 131.657 175.152C132.137 176.666 132.541 178.242 132.469 179.826C131.473 180.074 130.522 180.438 129.566 180.82C128.987 181.053 128.401 181.275 127.809 181.487C127.589 181.567 127.328 181.672 127.058 181.74C126.824 180.74 126.573 179.735 126.377 178.726C126.234 178.104 126.118 177.48 126.013 176.849Z" fill="#DCDCDC"/>
<path d="M271.663 11.7493C272.028 9.28404 271.466 6.87785 270.688 4.53474C270.668 3.83573 270.095 3.36716 269.435 3.33113C268.001 3.25801 266.569 3.37231 265.156 3.56225C264.374 3.67476 263.6 3.79773 262.815 3.92712C262.084 4.0518 261.274 4.09507 260.73 4.68345C260.113 5.36096 260.273 6.21873 260.414 7.04509C260.543 7.80627 260.672 8.56745 260.818 9.33269C261.113 10.8905 261.454 12.4332 261.849 13.9711C261.947 14.3598 262.34 14.7669 262.741 14.82C264.176 15.009 265.505 14.4513 266.816 13.9337C268.126 13.4162 269.431 12.8882 270.833 12.6331C271.223 12.5768 271.609 12.1457 271.663 11.7493ZM262.93 7.47046C262.877 7.15504 262.825 6.83963 262.772 6.52422C262.769 6.49686 262.767 6.46951 262.764 6.44216C263.208 6.3812 263.674 6.26318 264.085 6.1941C264.661 6.09401 265.234 6.01081 265.812 5.93808C266.724 5.83069 267.648 5.78847 268.574 5.77361C269.054 7.28761 269.458 8.86338 269.386 10.4478C268.391 10.6949 267.439 11.0596 266.484 11.4412C265.904 11.674 265.319 11.8963 264.726 12.1082C264.506 12.1881 264.245 12.2937 263.975 12.3615C263.741 11.3612 263.491 10.3568 263.294 9.34776C263.151 8.7257 263.036 8.10129 262.93 7.47046Z" fill="#DCDCDC"/>
<path d="M233.044 254.351C231.127 252.773 228.762 252.001 226.335 251.443C225.725 251.099 225.015 251.336 224.629 251.87C223.795 253.034 223.123 254.292 222.526 255.574C222.202 256.286 221.891 256.999 221.58 257.723C221.293 258.399 220.895 259.1 221.107 259.859C221.356 260.726 222.177 261.035 222.961 261.343C223.683 261.628 224.405 261.913 225.14 262.186C226.634 262.744 228.14 263.255 229.671 263.717C230.057 263.836 230.617 263.717 230.878 263.409C231.812 262.305 232.048 260.904 232.31 259.539C232.571 258.174 232.82 256.809 233.355 255.503C233.517 255.147 233.355 254.601 233.044 254.351ZM224.679 259.456C224.38 259.337 224.082 259.218 223.783 259.1C223.758 259.088 223.733 259.076 223.708 259.064C223.895 258.661 224.044 258.209 224.206 257.83C224.43 257.295 224.667 256.773 224.916 256.251C225.314 255.432 225.775 254.636 226.26 253.853C227.816 254.233 229.385 254.708 230.704 255.586C230.38 256.548 230.181 257.533 229.994 258.53C229.882 259.135 229.758 259.741 229.621 260.346C229.571 260.572 229.521 260.845 229.434 261.106C228.451 260.785 227.455 260.477 226.484 260.121C225.874 259.919 225.277 259.693 224.679 259.456Z" fill="#FBB03B"/>
<path d="M121.696 93.7639C119.779 92.1851 117.414 91.4135 114.986 90.8556C114.376 90.5113 113.667 90.7488 113.281 91.2829C112.447 92.4463 111.775 93.7046 111.177 94.9866C110.854 95.6989 110.543 96.4111 110.231 97.1353C109.945 97.8119 109.547 98.5123 109.758 99.272C110.007 100.139 110.829 100.447 111.613 100.756C112.335 101.041 113.057 101.326 113.791 101.599C115.285 102.157 116.791 102.667 118.322 103.13C118.708 103.249 119.269 103.13 119.53 102.821C120.464 101.717 120.7 100.317 120.961 98.9515C121.223 97.5864 121.472 96.2212 122.007 94.9154C122.169 94.5593 122.007 94.0132 121.696 93.7639ZM113.331 98.8684C113.032 98.7497 112.733 98.631 112.435 98.5123C112.41 98.5004 112.385 98.4885 112.36 98.4767C112.547 98.0731 112.696 97.622 112.858 97.2421C113.082 96.7079 113.318 96.1856 113.567 95.6633C113.966 94.8442 114.426 94.0488 114.912 93.2654C116.468 93.6452 118.036 94.1201 119.356 94.9985C119.032 95.9601 118.833 96.9453 118.646 97.9425C118.534 98.5479 118.41 99.1533 118.273 99.7587C118.223 99.9843 118.173 100.257 118.086 100.518C117.103 100.198 116.107 99.8893 115.136 99.5332C114.526 99.3314 113.928 99.1058 113.331 98.8684Z" fill="#FBB03B"/>
<path d="M213.102 238.069C213.467 235.604 212.905 233.198 212.126 230.855C212.107 230.156 211.534 229.687 210.874 229.651C209.44 229.578 208.008 229.692 206.594 229.882C205.813 229.995 205.039 230.118 204.254 230.247C203.523 230.372 202.713 230.415 202.169 231.004C201.552 231.681 201.712 232.539 201.853 233.365C201.982 234.126 202.111 234.888 202.257 235.653C202.551 237.211 202.893 238.753 203.288 240.291C203.386 240.68 203.779 241.087 204.18 241.14C205.615 241.329 206.944 240.771 208.255 240.254C209.565 239.736 210.87 239.208 212.272 238.953C212.662 238.897 213.048 238.466 213.102 238.069ZM204.369 233.791C204.316 233.475 204.264 233.16 204.211 232.844C204.208 232.817 204.206 232.79 204.203 232.762C204.647 232.701 205.113 232.583 205.524 232.514C206.1 232.414 206.672 232.331 207.251 232.258C208.163 232.151 209.087 232.109 210.013 232.094C210.493 233.608 210.897 235.183 210.825 236.768C209.83 237.015 208.878 237.38 207.923 237.761C207.343 237.994 206.757 238.216 206.165 238.428C205.945 238.508 205.684 238.614 205.414 238.682C205.18 237.681 204.93 236.677 204.733 235.668C204.59 235.046 204.475 234.421 204.369 233.791Z" fill="#DCDCDC"/>
<path d="M117.425 297.978C117.79 295.512 117.228 293.106 116.449 290.763C116.43 290.064 115.857 289.596 115.197 289.56C113.763 289.486 112.331 289.601 110.917 289.791C110.136 289.903 109.362 290.026 108.577 290.156C107.846 290.28 107.036 290.323 106.492 290.912C105.875 291.589 106.035 292.447 106.176 293.273C106.305 294.035 106.434 294.796 106.58 295.561C106.874 297.119 107.216 298.662 107.611 300.2C107.709 300.588 108.102 300.995 108.503 301.048C109.938 301.237 111.267 300.68 112.578 300.162C113.888 299.645 115.193 299.117 116.595 298.861C116.985 298.805 117.371 298.374 117.425 297.978ZM108.692 293.699C108.639 293.383 108.587 293.068 108.534 292.753C108.531 292.725 108.529 292.698 108.526 292.671C108.97 292.61 109.436 292.492 109.847 292.423C110.423 292.322 110.995 292.239 111.574 292.166C112.486 292.059 113.41 292.017 114.336 292.002C114.816 293.516 115.22 295.092 115.148 296.676C114.153 296.923 113.201 297.288 112.246 297.67C111.666 297.902 111.08 298.125 110.488 298.337C110.268 298.417 110.007 298.522 109.737 298.59C109.503 297.59 109.253 296.585 109.056 295.576C108.913 294.954 108.798 294.33 108.692 293.699Z" fill="#00A99D"/>
<path d="M293.108 45.0316C293.473 42.5663 292.911 40.1601 292.132 37.817C292.112 37.118 291.54 36.6494 290.88 36.6134C289.446 36.5403 288.014 36.6546 286.6 36.8445C285.819 36.957 285.045 37.08 284.26 37.2094C283.529 37.3341 282.719 37.3774 282.175 37.9657C281.558 38.6432 281.718 39.501 281.859 40.3274C281.988 41.0886 282.117 41.8497 282.263 42.615C282.557 44.1728 282.899 45.7155 283.294 47.2534C283.392 47.6421 283.785 48.0492 284.186 48.1023C285.621 48.2913 286.949 47.7335 288.26 47.216C289.571 46.6985 290.876 46.1705 292.278 45.9154C292.668 45.8591 293.054 45.428 293.108 45.0316ZM284.375 40.7527C284.322 40.4373 284.27 40.1219 284.217 39.8065C284.214 39.7791 284.211 39.7518 284.209 39.7244C284.653 39.6635 285.119 39.5455 285.53 39.4764C286.106 39.3763 286.678 39.2931 287.257 39.2204C288.169 39.113 289.093 39.0708 290.019 39.0559C290.499 40.5699 290.903 42.1457 290.831 43.73C289.835 43.9772 288.884 44.3419 287.928 44.7235C287.349 44.9563 286.763 45.1786 286.171 45.3904C285.951 45.4704 285.69 45.576 285.42 45.6438C285.186 44.6435 284.935 43.6391 284.739 42.63C284.596 42.008 284.48 41.3836 284.375 40.7527Z" fill="#00A99D"/>
</svg>
