<svg width="69" height="111" viewBox="0 0 69 111" fill="none" xmlns="http://www.w3.org/2000/svg">
<g filter="url(#filter0_d)">
<path d="M35.7295 66.8453L15.2295 60.8453V45.8453L21.7295 28.3453L32.7295 13.8453L44.7295 6.34528L49.2295 26.8453L47.2295 47.8453L35.7295 66.8453Z" fill="#00A99D"/>
<path d="M32.1812 24.2127C34.0188 22.3897 37.3239 22.1015 39.3865 23.9471C39.7179 24.2434 39.9823 24.529 40.0984 24.9502C40.5896 25.1963 40.9608 25.6559 41.146 26.2375C41.8047 28.4394 41.9469 30.7379 40.8066 32.7464C40.2878 33.6678 39.4779 34.4158 38.5124 34.8907C37.3827 35.4278 36.1004 35.4492 34.881 35.1416C32.6467 34.5872 31.1284 32.7633 30.5225 30.6889C29.8605 28.4182 30.5219 25.8567 32.1812 24.2127ZM33.9807 28.9268C33.9845 28.9553 33.9786 29.0885 33.9732 29.1813C33.9727 29.2217 33.9847 29.2667 33.976 29.2906C33.9956 29.3925 33.9984 29.5018 34.0306 29.6082C34.066 29.7835 34.1058 29.9468 34.1456 30.1102C34.1494 30.1386 34.1494 30.1386 34.1576 30.1551C34.1821 30.2046 34.2066 30.2541 34.2147 30.2706C34.2839 30.4311 34.3574 30.5796 34.4434 30.7327C34.4516 30.7492 34.4597 30.7657 34.4679 30.7822C34.5049 30.8362 34.5588 30.8829 34.5876 30.9204C34.6741 31.0331 34.7694 31.1218 34.8603 31.2225C34.9185 31.2572 34.993 31.3248 35.0262 31.3504C35.0594 31.376 35.1671 31.4693 35.2835 31.5386C35.296 31.5432 35.3085 31.5477 35.3711 31.5705C35.4712 31.6068 35.5669 31.6551 35.6713 31.6795C35.7339 31.7023 35.7839 31.7204 35.8508 31.7312C36.0015 31.7453 36.1603 31.7759 36.3153 31.7781C36.3278 31.7826 36.3446 31.7752 36.3571 31.7798C36.374 31.7724 36.374 31.7724 36.4033 31.7695C36.4789 31.7563 36.5714 31.7358 36.6469 31.7226C36.6595 31.7272 36.6595 31.7272 36.6638 31.7152C36.6638 31.7152 36.6638 31.7152 36.6807 31.7078C36.7524 31.6662 36.8323 31.6411 36.9166 31.604C36.9335 31.5966 36.9503 31.5892 36.9628 31.5937C37.0558 31.5328 37.1406 31.4553 37.1998 31.4091C37.2042 31.3972 37.221 31.3898 37.2335 31.3943C37.1237 31.4627 37.2716 31.3675 37.3227 31.3049C37.446 31.1602 37.54 31.0184 37.6384 30.8646C37.6644 30.7929 37.7117 30.7018 37.7416 30.6585C37.8149 30.4956 37.8588 30.3356 37.9071 30.1637C37.9169 30.0589 37.9619 29.8181 37.9706 29.7942C37.9857 29.5967 37.9964 29.4111 37.9947 29.221C37.9914 29.1521 38.0142 29.0115 37.9858 28.9335C38.0812 29.3336 37.982 28.9051 37.9705 28.8197C37.9481 28.6085 37.9132 28.3928 37.8658 28.1725C37.7954 27.7815 37.6913 27.4054 37.5747 27.0246C37.479 26.9763 37.3876 26.916 37.288 26.8393C37.1389 26.7039 36.9893 26.609 36.8359 26.4855C36.8027 26.46 36.7902 26.4554 36.782 26.4389C36.732 26.4207 36.6819 26.4025 36.6444 26.3889C36.5568 26.3571 36.4693 26.3253 36.3692 26.2889C36.3567 26.2844 36.3567 26.2844 36.3567 26.2844C36.2773 26.2691 36.1642 26.2686 36.1516 26.2641C36.0679 26.2607 35.7237 26.3116 35.9885 26.2454C36.2658 26.1837 35.7911 26.282 35.728 26.2997C35.7112 26.3071 35.6525 26.3128 35.6062 26.3231C35.5894 26.3305 35.5851 26.3425 35.5682 26.3499C35.5008 26.3795 35.3578 26.4223 35.2398 26.4742C35.2355 26.4862 35.2186 26.4936 35.1806 26.5204C35.1001 26.5859 35.0071 26.6469 34.9267 26.7124C34.8675 26.7585 34.8207 26.8092 34.7615 26.8554C34.6506 27.0046 34.5316 27.1373 34.4333 27.2911C34.4246 27.315 34.399 27.3463 34.3691 27.3896C34.3518 27.4375 34.3176 27.4927 34.3089 27.5166C34.2225 27.7153 34.1569 27.9351 34.083 28.1384C34.0787 28.1503 34.0743 28.1623 34.0656 28.1862C34.0521 28.2625 34.0429 28.3268 34.0337 28.3912C34.0022 28.5557 33.9914 28.7413 33.9807 28.9268Z" fill="#F6F6F6"/>
<path d="M13.5342 40.7456C13.6726 40.601 13.8483 40.5117 14.07 40.4531L14.5261 40.3404L14.6363 39.8794C18.2419 24.515 28.4889 11.7163 42.7248 4.76476C43.5254 4.37366 44.1967 3.83076 44.8023 4.05076L45.1691 4.18406L45.4979 4.30346C46.299 4.59446 46.5237 4.94776 46.8984 6.04426C52.4068 22.1724 52.4058 38.373 46.9026 51.6701L46.8229 51.8499L46.8407 52.0373C47.6776 60.4139 46.6056 67.1089 43.5332 72.4927C43.0114 73.4166 41.1061 76.4546 38.5288 77.0076C37.502 77.2331 36.5259 77.0038 35.5238 76.3336C33.9646 75.2661 33.9203 73.4963 33.8865 71.619L33.8069 67.8182L33.147 67.7037C32.6649 67.6121 32.1664 67.4867 31.6851 67.3536C31.3599 67.2634 31.043 67.19 30.7261 67.1166C29.5513 66.843 28.3892 66.5739 27.2189 66.288C21.9932 64.9882 17.8159 63.4429 14.0501 61.4347C14.004 61.404 13.9705 61.3779 13.9244 61.3472L13.4014 60.9346L12.8724 61.327C12.0583 61.9916 11.39 62.8066 10.7306 63.5971C10.0713 64.3875 9.45951 65.1256 8.73181 65.7103C8.02561 66.2749 7.16101 66.448 6.35161 66.154C5.56451 65.7985 4.93961 65.1539 4.75231 64.2508C4.44391 62.7747 4.63321 60.9924 4.79351 59.4083L4.80911 59.2469C5.55381 52.3495 8.56841 45.9426 13.5342 40.7456ZM37.5674 73.8608L38.9448 72.7884C39.3779 72.3055 39.6964 71.8227 39.9934 71.3599L40.0634 71.2462C40.7577 70.1623 41.348 68.9709 41.8564 67.6107C42.5606 65.7509 43.0477 63.7009 43.304 61.4975L43.6975 58.2861L41.8459 60.94C40.9268 62.2485 40.0702 63.3848 39.1898 64.429C39.1593 64.4736 39.1206 64.5013 39.0819 64.529L38.8258 64.8396C38.4954 65.2763 38.0839 65.7392 37.6434 66.1637L37.4015 66.396L37.5674 73.8608ZM17.328 58.7561L17.3882 59.1816L17.7795 59.3655C18.9155 59.9035 20.1118 60.3937 21.4145 60.8669C23.0586 61.4642 24.8732 62.0259 26.934 62.5797C28.8259 63.086 30.7275 63.5262 32.342 63.89C32.4855 63.9282 32.6336 63.9542 32.7988 63.9724C33.0398 64.0182 33.298 64.0563 33.4706 64.133C33.5971 64.1789 33.7235 64.2248 33.8589 64.2462L34.1171 64.2843L34.3441 64.1719C34.8619 63.9286 35.6597 62.9935 35.8644 62.706C35.9425 62.6091 36.0162 62.5246 36.0981 62.4569C38.952 59.0537 41.2823 55.2793 43.0926 51.1629L43.1544 51.0322L43.1529 50.8786C43.1619 50.3808 43.3525 49.9351 43.6725 49.6059L43.8384 49.3461C48.4887 37.4511 48.6032 23.1847 44.1472 9.16466L43.8542 8.23706L42.9888 8.68826C24.673 18.3193 14.3613 38.4294 17.328 58.7561ZM8.63291 58.0611C8.61871 58.1394 8.61281 58.2347 8.59861 58.313L8.26331 60.6548L9.96741 59.1165C10.9825 58.1351 11.9364 57.4796 12.9751 57.0635L13.5094 56.854L13.4604 56.2795C13.2563 53.9645 13.2039 51.7046 13.2899 49.5367L13.4372 46.0967L11.7826 49.1145C11.0324 50.4704 10.454 51.7078 10.0208 52.9005C9.35601 54.6911 8.90111 56.3769 8.63291 58.0611Z" fill="white"/>
<path d="M21.8232 12.1372C18.8483 14.2909 16.9406 17.2892 15.0057 20.3964C14.4063 21.4049 14.8189 23.0126 15.8581 23.5029C16.9795 24.1294 18.3452 23.7748 18.9718 22.6573C19.762 21.349 20.5523 20.0406 21.4519 18.7596C21.4519 18.7596 21.479 18.6506 21.5883 18.6778C21.752 18.487 21.7791 18.378 21.9427 18.1872C22.1335 17.8873 22.4336 17.6147 22.7338 17.3421C23.0339 17.0695 23.334 16.797 23.5248 16.4971C23.6613 16.4153 23.7977 16.3335 23.9614 16.1427L24.0979 16.061C25.0804 15.3794 25.652 14.0166 24.885 12.8995C24.3095 11.9458 22.8329 11.3466 21.8232 12.1372Z" fill="#FF3666"/>
<path d="M4.00638 86.4413C3.86365 81.9635 6.11722 77.1055 10.7922 75.8264C13.0038 75.22 15.3581 75.2457 17.6203 75.6555C20.1294 76.1138 22.8609 76.9171 24.5691 78.9147C26.073 80.663 26.5166 83.107 26.1661 85.3239C25.8085 87.6256 24.9088 90.4234 23.4061 92.2436C21.9426 94.0073 19.8146 95.1763 17.8635 96.3493C15.8892 97.5413 13.9078 98.7153 12.1541 100.221C12.1077 100.26 12.0541 100.28 12.0131 100.306C11.0608 101.268 9.33832 101.604 8.15722 101.034C6.32822 100.139 5.82541 98.4153 6.35931 96.5993C6.19791 97.1443 6.33421 96.5893 6.33401 96.4863C6.34791 96.3173 6.36182 96.1473 6.37042 95.9903C6.36482 95.9003 6.34832 95.7323 6.35182 95.6903C6.31372 95.4683 6.29352 95.2403 6.25552 95.0193C6.23182 94.8333 6.19032 94.6543 6.14882 94.4763C6.12532 94.3923 6.08572 94.2443 6.08382 94.2143C5.91812 93.7033 5.73992 93.1875 5.56182 92.6717C5.04002 91.232 4.52362 89.7799 4.24122 88.2685C4.11875 87.8645 4.06236 87.4452 4.08459 87.0162C4.0484 86.825 4.0122 86.6339 4.00638 86.4413Z" fill="#FF3666"/>
<path d="M9.0964 76.4938L9.2329 76.3077C11.9477 72.4006 16.8871 72.4622 20.3572 73.7227C20.4059 73.7404 20.4425 73.7537 20.4912 73.7714C24.3741 75.2235 28.7547 78.6446 29.4544 83.8891C30.1519 89.216 26.3646 93.3434 22.9745 96.3403C21.2711 97.8423 19.4227 99.2503 17.6376 100.597C15.4666 102.248 13.208 103.951 11.185 105.877C10.4519 106.567 9.7502 106.299 9.3872 106.084C8.7344 105.68 8.1865 104.76 8.4625 103.849C9.706 99.6293 9.7492 95.2233 8.5748 90.3743L8.4978 90.0552C7.4522 85.7247 6.4527 81.6466 8.0128 77.5418C8.1984 77.0686 8.4991 76.7343 8.9179 76.5676L9.0964 76.4938ZM11.0441 79.6688C10.2221 82.7664 11.0192 85.8838 11.791 88.8811C12.0718 89.9673 12.3339 90.9913 12.5184 92.0009C12.8886 93.9793 13.0184 96.0503 12.9133 98.1603L12.8289 99.8353L15.3059 97.9482C16.1773 97.2943 17.0411 96.6243 17.9049 95.9533L18.5003 95.4913C21.2091 93.3833 24.5888 90.7576 25.7224 87.3713C26.9685 83.6376 24.5274 80.0754 21.5466 78.1886C20.1325 77.3007 16.7924 75.7962 14.254 76.5237C13.208 76.823 12.4063 77.4744 11.9364 78.4265C11.7753 78.7561 11.5501 79.0347 11.2895 79.2589L11.0921 79.4228L11.0441 79.6688Z" fill="#F6F6F6"/>
</g>
<g clip-path="url(#clip0)">
<path d="M61.1168 6.44534C60.6062 4.46751 58.25 3.72583 56.7578 4.92076C56.1295 4.96197 55.5797 5.41522 55.3833 6.0745C54.755 8.05233 56.1295 10.2774 58.1322 10.3598C60.135 10.4834 61.6665 8.50558 61.1168 6.44534Z" fill="#00A99D"/>
</g>
<g clip-path="url(#clip1)">
<path d="M68.7557 98.3954C69.0788 98.1047 69.0788 97.6335 68.7557 97.3429C68.4325 97.0522 67.9086 97.0522 67.5855 97.3429L61.0669 103.206L54.4125 97.2207C54.0894 96.93 53.5655 96.93 53.2423 97.2207C52.9192 97.5113 52.9192 97.9825 53.2423 98.2732L60.346 104.663C60.369 104.683 60.393 104.702 60.4178 104.72C60.4375 104.743 60.4589 104.764 60.4819 104.785C60.805 105.075 61.3289 105.075 61.652 104.785L68.7557 98.3954Z" fill="#1E1E1E" fill-opacity="0.6"/>
</g>
<defs>
<filter id="filter0_d" x="0" y="0" width="55.0299" height="110.321" filterUnits="userSpaceOnUse" color-interpolation-filters="sRGB">
<feFlood flood-opacity="0" result="BackgroundImageFix"/>
<feColorMatrix in="SourceAlpha" type="matrix" values="0 0 0 0 0 0 0 0 0 0 0 0 0 0 0 0 0 0 127 0"/>
<feOffset/>
<feGaussianBlur stdDeviation="2"/>
<feColorMatrix type="matrix" values="0 0 0 0 0 0 0 0 0 0 0 0 0 0 0 0 0 0 0.25 0"/>
<feBlend mode="normal" in2="BackgroundImageFix" result="effect1_dropShadow"/>
<feBlend mode="normal" in="SourceGraphic" in2="effect1_dropShadow" result="shape"/>
</filter>
<clipPath id="clip0">
<rect width="6" height="7" fill="white" transform="translate(55.2297 4.34528)"/>
</clipPath>
<clipPath id="clip1">
<rect width="16" height="9" fill="white" transform="translate(53 97)"/>
</clipPath>
</defs>
</svg>
