<svg width="166" height="123" viewBox="0 0 166 123" fill="none" xmlns="http://www.w3.org/2000/svg">
<path d="M60.2135 96.148C60.2506 95.1133 60.821 94.5167 61.3791 94.265C61.531 93.8571 61.7465 93.5903 61.9619 93.3235C82.9453 74.6973 96.9061 50.9253 109.864 26.4182C110.826 24.4572 112.131 22.5112 114.542 22.2721C116.889 21.892 119.162 23.5813 120.192 25.4921C123.027 30.6604 117.907 37.5506 115.348 41.9284C107.911 54.1051 98.1765 65.2824 88.7967 76.1299C83.4984 82.2522 78.2001 88.3745 72.4443 93.8549C70.2384 96.0374 67.6405 99.5845 64.5956 100.279C62.0965 101.067 60.1147 98.9071 60.2135 96.148Z" fill="#00A99D"/>
<path d="M121.533 11.5012C121.326 11.4064 121.118 11.3117 120.838 11.0656C120.558 10.8196 120.351 10.7249 120.071 10.4788C119.304 9.89195 118.464 9.15378 117.501 8.83142C115.71 8.13011 114.734 9.45255 114.148 10.246C113.428 11.0961 112.915 12.0408 112.268 13.0422C111.047 15.1963 109.899 17.5016 109.238 20.1478C108.214 20.0333 107.203 20.2781 106.763 21.3742C106.702 21.5821 106.64 21.79 106.579 21.9979C88.6591 37.3883 74.2834 55.1077 63.9037 74.4191C60.8877 79.8799 58.0906 85.7947 55.7076 91.8989C55.4512 92.3713 55.1948 92.8437 55.2796 93.3542C55.3525 93.5056 55.3644 93.8648 55.5715 93.9595C56.0823 95.0188 56.7884 95.8135 57.4945 96.6083C57.4945 96.6083 57.4215 96.4569 57.2874 96.5135C56.739 96.3806 56.2637 96.3991 55.9954 96.5122C55.5931 96.682 55.3978 96.9465 55.3366 97.1544L55.0684 97.2675C54.666 97.4373 54.2636 97.607 53.8612 97.7768C53.4588 97.9466 53.1906 98.0597 52.7152 98.0781C52.5811 98.1347 52.5811 98.1347 52.447 98.1913L52.2399 98.0966C51.7645 98.115 51.2892 98.1334 50.9597 98.4545C50.4232 98.6808 50.0938 99.0019 50.0445 99.569C49.5414 102.877 48.064 105.504 46.4524 108.187C45.6831 109.604 44.7797 111.077 44.2175 112.589C44.0951 113.005 43.9728 113.421 44.0576 113.932C44.1424 114.442 44.3614 114.896 44.8485 115.237C45.5428 115.672 46.5665 115.787 47.0912 115.201C47.3594 115.088 47.6277 114.975 47.823 114.71C49.2629 113.01 51.4701 111.897 53.7621 111.294C54.6398 111.106 55.5905 111.069 56.6754 110.976C58.2356 110.864 59.7958 110.752 61.1982 109.978C61.4665 109.865 61.6617 109.601 61.7229 109.393C61.6381 108.882 61.7604 108.467 61.6756 107.956C61.6638 107.597 61.7131 107.03 61.7013 106.67C61.7506 106.103 61.8 105.536 61.8493 104.969L61.8375 104.61C61.8986 104.402 61.9598 104.194 62.0209 103.986L62.1432 103.57C62.2044 103.362 62.3997 103.098 62.5338 103.041C62.8632 102.72 62.9125 102.153 62.6936 101.699C62.6088 101.189 62.1828 100.64 61.7686 100.45C60.8672 99.9202 59.9165 99.957 59.3307 100.75C58.2319 102.489 57.8275 104.663 58.4468 106.951C57.7032 107.082 57.0937 107.157 56.3501 107.289L56.0088 107.251C54.5828 107.306 53.3026 107.664 52.1567 107.965C51.7543 108.135 51.413 108.097 51.0107 108.267C51.9634 106.226 52.9162 104.185 53.4547 101.955C54.1983 101.823 54.7349 101.597 55.4785 101.465L55.7467 101.352C56.1491 101.182 56.6856 100.956 57.2221 100.729C57.6245 100.56 57.8198 100.295 58.088 100.182C58.5516 99.8044 58.6739 99.3886 58.7962 98.9728C58.9185 98.557 58.7607 97.8951 58.5418 97.4412C60.2952 99.0688 62.3663 100.016 64.4866 100.396C65.0349 100.529 65.4373 100.36 65.7667 100.039C66.0961 99.7174 66.3526 99.245 66.2678 98.7345C66.2323 97.6568 65.4532 96.7107 64.4295 96.5963C64.2224 96.5016 64.0883 96.5581 63.8812 96.4634L63.54 96.4252C63.1988 96.3871 62.9187 96.141 62.5774 96.1029C62.3703 96.0081 62.3703 96.0081 62.1632 95.9134L61.9561 95.8187C61.6761 95.5726 61.3348 95.5345 61.0548 95.2884C60.7747 95.0423 60.4946 94.7963 60.2145 94.5502L59.9345 94.3042C59.8615 94.1529 59.6544 94.0581 59.5814 93.9068C59.3013 93.6607 59.1554 93.3581 59.0824 93.2068C63.1144 83.4932 68.036 73.9506 73.9319 65.0896C77.7189 68.591 82.1034 71.6582 87.9259 75.0292C85.4978 77.6925 83.1308 80.1479 80.6908 82.452C76.2744 86.6825 71.4319 90.3643 66.4435 93.7435C65.8458 94.1778 65.6624 94.8015 65.686 95.5199C65.7097 96.2384 66.2087 96.9384 66.83 97.2226C67.3171 97.5634 67.9266 97.4884 68.3902 97.1107C82.5013 87.8798 94.9222 74.8094 104.457 58.7678C103.968 60.431 103.698 62.5482 104.44 64.4206C104.889 65.6878 105.668 66.6338 106.984 67.3536C109.408 68.6983 111.457 66.9232 112.641 65.6955C114.215 63.9388 114.412 61.6703 112.988 59.7216C112.562 59.1729 112.075 58.8321 111.466 58.9071C110.856 58.9821 110.258 59.4164 110.075 60.0401C109.891 60.6638 109.915 61.3823 110.414 62.0823C110.414 62.0823 110.487 62.2336 110.353 62.2902C110.169 62.9139 109.108 63.7258 108.572 63.9521C108.304 64.0653 108.231 63.914 108.231 63.914C108.023 63.8192 107.878 63.5166 107.72 62.8547C107.465 61.3231 108.162 59.7546 108.797 58.394C110.507 54.5767 112.839 51.0436 115.511 47.5487C116.817 45.9052 118.123 44.2617 119.636 42.7129L120.161 42.1274C121.21 40.9563 122.394 39.7286 122.956 38.2166C124.313 34.002 120.599 30.6519 118.431 28.8348C118.419 28.4756 118.274 28.1729 118.128 27.8703C117.982 27.5677 118.043 27.3597 117.897 27.0571C118.617 26.2071 119.264 25.2057 119.777 24.2609L123.306 17.8553C123.367 17.6474 123.501 17.5909 123.562 17.3829C124.148 16.5895 124.722 15.4368 124.272 14.1697C123.615 12.8078 122.434 12.0314 121.533 11.5012ZM93.3445 68.1907C92.0171 67.1118 90.6285 66.2407 89.167 65.2183C86.8041 63.6657 84.3682 61.9617 82.2617 59.9367C81.9086 59.5393 81.5674 59.5011 81.092 59.5196C80.6167 59.538 80.0802 59.7643 79.8238 60.2367C79.372 60.9736 79.6146 62.146 80.4548 62.8842C82.6954 64.8526 85.1313 66.5566 87.5672 68.2606C88.7487 69.0369 90.0031 69.9645 91.2575 70.8922C90.867 71.4211 90.5376 71.7422 90.147 72.2712C83.9103 68.7106 79.5257 65.6435 75.7388 62.1421C81.5736 53.4891 88.1756 45.4228 95.3378 37.8487C99.6082 33.3156 104.293 28.9719 109.185 24.723C109.38 24.4585 109.575 24.194 109.636 23.9861C109.844 24.0808 109.917 24.2321 110.124 24.3269L112.341 25.5769C112.755 25.7664 113.449 26.2019 113.802 26.5993C114.082 26.8453 114.167 27.3559 114.325 28.0177C114.398 28.1691 114.398 28.1691 114.471 28.3204C109.117 43.3263 102.083 56.8559 93.3445 68.1907ZM118.91 37.1917C118.459 37.9286 117.8 38.5707 117.141 39.2128C116.812 39.5339 116.482 39.855 116.287 40.1195C115.433 41.0261 114.652 42.084 113.736 43.1986C112.821 44.3131 111.845 45.6356 111.064 46.6935C113.226 42.1394 115.242 37.2825 117.112 32.1231C117.672 32.6152 118.378 33.41 118.877 34.11C119.522 35.1126 119.484 36.039 118.91 37.1917ZM120.079 14.8461L116.098 21.9885C115.842 22.4609 115.585 22.9333 115.329 23.4057C114.562 22.8188 113.867 22.3833 113.173 21.9478C112.966 21.853 112.759 21.7583 112.552 21.6636L112.613 21.4557C113.481 18.9042 114.556 16.4476 116.045 14.1803C116.436 13.6514 116.826 13.1224 117.217 12.5934L120.079 14.8461Z" fill="#1E1E1E"/>
<path d="M52.5314 106.076C52.6627 106.021 52.7939 105.966 52.9251 105.911L53.0563 105.856C53.1875 105.8 53.3187 105.745 53.3786 105.543C53.8321 105.175 53.8803 104.622 53.9286 104.069C54.0482 103.664 53.9653 103.167 53.6199 102.779C53.3343 102.19 52.6551 101.765 51.9874 101.691C51.725 101.801 51.4626 101.911 51.2001 102.022C51.0689 102.077 50.9377 102.132 50.7467 102.39L50.4244 102.703L50.3646 102.905C50.1735 103.163 50.1851 103.513 50.1966 103.863L50.268 104.01C50.3394 104.158 50.2082 104.213 50.2796 104.361C50.351 104.508 50.4938 104.803 50.5652 104.95L50.6366 105.098L50.708 105.245C50.7793 105.393 50.9819 105.485 51.2559 105.725C51.2559 105.725 51.4586 105.817 51.6612 105.909L51.8638 106.002L52.0664 106.094L52.269 106.186C52.1378 106.242 52.4002 106.131 52.5314 106.076Z" fill="#1E1E1E"/>
</svg>
