<svg width="407" height="406" viewBox="0 0 407 406" fill="none" xmlns="http://www.w3.org/2000/svg">
<path d="M165.754 2.7093C165.268 2.24605 164.774 1.74871 164.15 1.4189C163.229 0.953307 162.208 1.06999 161.294 1.52972C159.895 2.2392 158.666 3.12984 157.48 4.0908C156.188 5.14333 154.895 6.19586 153.588 7.25832C152.897 7.82539 151.993 8.39733 151.577 9.15415C151.1 10.0508 151.323 10.9493 152.213 11.5349L152.224 11.5469C154.325 14.0257 156.414 16.4923 158.489 18.9689C158.859 19.4115 159.585 19.5936 160.204 19.5108C161.737 19.3248 163.119 18.6473 164.434 17.9754C165.863 17.2461 167.261 16.4585 168.602 15.6105C169.186 15.2351 169.77 14.8597 170.343 14.4723C170.989 14.0351 171.792 13.6108 172.297 13.0508C173.575 11.6517 172.418 10.1975 171.471 9.01674C169.682 6.84212 167.892 4.66749 165.754 2.7093ZM167.298 12.5733C166.479 13.1076 165.634 13.6398 164.766 14.1479C163.956 14.6162 163.151 15.0625 162.31 15.4725C161.813 15.7102 161.286 15.9677 160.754 16.1691C159.001 14.1089 157.262 12.0387 155.523 9.96846C155.852 9.70586 156.171 9.43119 156.5 9.16859C157.283 8.5199 158.078 7.88328 158.861 7.23458C159.597 6.6377 160.318 6.05076 161.077 5.47804C161.462 5.19771 161.843 4.9394 162.251 4.68324C162.354 4.61369 162.483 4.54629 162.597 4.48882C162.666 4.56129 162.749 4.62382 162.817 4.69629C163.189 5.03876 163.546 5.39117 163.914 5.75565C164.625 6.48247 165.309 7.20715 165.976 7.96378C166.643 8.72041 167.268 9.48483 167.906 10.2613C168.184 10.6073 168.474 10.9654 168.768 11.3014C168.813 11.3497 168.856 11.42 168.913 11.4804C168.81 11.55 168.707 11.6195 168.59 11.699C168.175 11.9992 167.738 12.2752 167.298 12.5733Z" fill="#00A99D"/>
<path d="M51.1598 160.153C50.674 159.69 50.1802 159.192 49.5557 158.863C48.6346 158.397 47.6136 158.514 46.7001 158.973C45.3004 159.683 44.0719 160.574 42.8857 161.534C41.5935 162.587 40.3013 163.64 38.9944 164.702C38.3026 165.269 37.3988 165.841 36.9825 166.598C36.5058 167.495 36.7287 168.393 37.6188 168.979L37.6302 168.991C39.731 171.469 41.8203 173.936 43.895 176.413C44.2649 176.855 44.9905 177.037 45.6103 176.955C47.1434 176.769 48.5251 176.091 49.8399 175.419C51.269 174.69 52.667 173.902 54.0081 173.054C54.5921 172.679 55.1762 172.303 55.7488 171.916C56.3949 171.479 57.1975 171.055 57.7034 170.495C58.9811 169.095 57.824 167.641 56.8772 166.46C55.0877 164.286 53.2983 162.111 51.1598 160.153ZM52.7035 170.017C51.8845 170.551 51.0394 171.084 50.1715 171.592C49.3624 172.06 48.5565 172.506 47.7164 172.916C47.2188 173.154 46.6919 173.411 46.1601 173.613C44.4065 171.553 42.6676 169.482 40.9287 167.412C41.2582 167.15 41.5764 166.875 41.906 166.612C42.6891 165.964 43.4837 165.327 44.2669 164.678C45.0027 164.081 45.7239 163.494 46.4826 162.922C46.8676 162.641 47.2494 162.383 47.6572 162.127C47.76 162.057 47.8889 161.99 48.0031 161.933C48.0715 162.005 48.1547 162.068 48.2231 162.14C48.5948 162.482 48.9517 162.835 49.3201 163.199C50.0307 163.926 50.7153 164.651 51.3818 165.407C52.0484 166.164 52.6742 166.929 53.3115 167.705C53.5901 168.051 53.8802 168.409 54.1736 168.745C54.2192 168.793 54.2616 168.864 54.3186 168.924C54.2158 168.994 54.1131 169.063 53.9956 169.143C53.5812 169.443 53.144 169.719 52.7035 170.017Z" fill="#FBB03B"/>
<path d="M16.931 43.0148C16.4452 42.5516 15.9514 42.0542 15.327 41.7244C14.4058 41.2588 13.3848 41.3755 12.4713 41.8352C11.0716 42.5447 9.84311 43.4353 8.65695 44.3963C7.36473 45.4488 6.07251 46.5014 4.76561 47.5638C4.07381 48.1309 3.17001 48.7028 2.75371 49.4597C2.277 50.3563 2.49992 51.2548 3.39003 51.8404L3.40144 51.8525C5.50218 54.3312 7.59152 56.7978 9.66618 59.2744C10.0361 59.717 10.7618 59.8991 11.3815 59.8163C12.9146 59.6303 14.2963 58.9528 15.6111 58.2809C17.0402 57.5516 18.4382 56.764 19.7793 55.916C20.3633 55.5406 20.9474 55.1652 21.52 54.7778C22.1661 54.3406 22.9687 53.9163 23.4746 53.3563C24.7523 51.9572 23.5952 50.503 22.6484 49.3222C20.859 47.1476 19.0695 44.973 16.931 43.0148ZM18.4747 52.8788C17.6557 53.4131 16.8106 53.9453 15.9427 54.4534C15.1336 54.9217 14.3277 55.368 13.4876 55.778C12.99 56.0157 12.4631 56.2732 11.9314 56.4747C10.1778 54.4144 8.43882 52.3442 6.69988 50.274C7.02946 50.0114 7.34763 49.7367 7.67721 49.4741C8.46038 48.8254 9.25495 48.1888 10.0381 47.5401C10.774 46.9432 11.4951 46.3563 12.2538 45.7835C12.6388 45.5032 13.0206 45.2449 13.4284 44.9887C13.5312 44.9192 13.6601 44.8518 13.7743 44.7943C13.8427 44.8668 13.9259 44.9293 13.9943 45.0018C14.366 45.3443 14.7229 45.6967 15.0913 46.0612C15.8019 46.788 16.4865 47.5127 17.1531 48.2693C17.8196 49.0259 18.4455 49.7903 19.0827 50.5668C19.3613 50.9128 19.6514 51.2709 19.9448 51.6069C19.9904 51.6552 20.0328 51.7255 20.0898 51.7859C19.9871 51.8555 19.8843 51.925 19.7668 52.0045C19.3524 52.3047 18.9152 52.5807 18.4747 52.8788Z" fill="#DCDCDC"/>
<path d="M160.804 128.723C158.037 126.651 154.623 125.639 151.119 124.907C150.238 124.455 149.214 124.767 148.657 125.468C147.453 126.994 146.483 128.645 145.621 130.327C145.153 131.261 144.704 132.196 144.255 133.146C143.842 134.033 143.267 134.952 143.572 135.949C143.932 137.086 145.117 137.491 146.249 137.896C147.292 138.269 148.334 138.643 149.394 139.001C151.55 139.733 153.724 140.403 155.934 141.01C156.491 141.166 157.3 141.01 157.677 140.605C159.025 139.157 159.366 137.319 159.744 135.528C160.121 133.737 160.48 131.946 161.253 130.233C161.487 129.766 161.253 129.05 160.804 128.723ZM148.729 135.419C148.298 135.264 147.867 135.108 147.435 134.952C147.399 134.937 147.364 134.921 147.328 134.905C147.597 134.376 147.813 133.784 148.046 133.286C148.37 132.585 148.711 131.9 149.07 131.214C149.645 130.14 150.31 129.096 151.011 128.069C153.257 128.567 155.521 129.19 157.426 130.342C156.959 131.604 156.671 132.896 156.402 134.205C156.24 134.999 156.06 135.793 155.862 136.587C155.791 136.883 155.719 137.241 155.593 137.584C154.173 137.164 152.736 136.759 151.334 136.291C150.454 136.027 149.592 135.731 148.729 135.419Z" fill="#EFEFEF"/>
<path d="M165.754 229.659C165.268 229.196 164.774 228.698 164.15 228.369C163.229 227.903 162.208 228.02 161.294 228.479C159.895 229.189 158.666 230.08 157.48 231.041C156.188 232.093 154.896 233.146 153.589 234.208C152.897 234.775 151.993 235.347 151.577 236.104C151.1 237.001 151.323 237.899 152.213 238.485L152.224 238.497C154.325 240.975 156.415 243.442 158.489 245.919C158.859 246.361 159.585 246.543 160.204 246.461C161.738 246.275 163.119 245.597 164.434 244.925C165.863 244.196 167.261 243.408 168.602 242.56C169.186 242.185 169.77 241.809 170.343 241.422C170.989 240.985 171.792 240.561 172.298 240.001C173.575 238.601 172.418 237.147 171.471 235.966C169.682 233.792 167.892 231.617 165.754 229.659ZM167.298 239.523C166.479 240.057 165.634 240.59 164.766 241.098C163.957 241.566 163.151 242.012 162.311 242.422C161.813 242.66 161.286 242.917 160.754 243.119C159.001 241.059 157.262 238.988 155.523 236.918C155.852 236.656 156.171 236.381 156.5 236.118C157.283 235.47 158.078 234.833 158.861 234.184C159.597 233.587 160.318 233.001 161.077 232.428C161.462 232.147 161.844 231.889 162.251 231.633C162.354 231.563 162.483 231.496 162.597 231.439C162.666 231.511 162.749 231.574 162.817 231.646C163.189 231.989 163.546 232.341 163.914 232.705C164.625 233.432 165.309 234.157 165.976 234.914C166.643 235.67 167.268 236.435 167.906 237.211C168.184 237.557 168.474 237.915 168.768 238.251C168.813 238.299 168.856 238.37 168.913 238.43C168.81 238.5 168.707 238.569 168.59 238.649C168.175 238.949 167.738 239.225 167.298 239.523Z" fill="#00A99D"/>
<path d="M51.1595 387.103C50.6738 386.64 50.1799 386.142 49.5555 385.812C48.6343 385.347 47.6133 385.463 46.6998 385.923C45.3002 386.633 44.0716 387.523 42.8855 388.484C41.5932 389.537 40.301 390.589 38.9941 391.652C38.3023 392.219 37.3985 392.791 36.9822 393.548C36.5055 394.444 36.7284 395.343 37.6185 395.928L37.63 395.941C39.7307 398.419 41.82 400.886 43.8947 403.363C44.2646 403.805 44.9903 403.987 45.61 403.905C47.1431 403.719 48.5248 403.041 49.8397 402.369C51.2687 401.64 52.6668 400.852 54.0078 400.004C54.5918 399.629 55.1759 399.253 55.7485 398.866C56.3946 398.429 57.1972 398.004 57.7031 397.444C58.9808 396.045 57.8238 394.591 56.8769 393.41C55.0875 391.236 53.298 389.061 51.1595 387.103ZM52.7032 396.967C51.8842 397.501 51.0392 398.033 50.1713 398.542C49.3621 399.01 48.5562 399.456 47.7161 399.866C47.2186 400.104 46.6917 400.361 46.1599 400.563C44.4063 398.503 42.6673 396.432 40.9284 394.362C41.258 394.099 41.5761 393.825 41.9057 393.562C42.6889 392.913 43.4835 392.277 44.2666 391.628C45.0025 391.031 45.7236 390.444 46.4823 389.872C46.8673 389.591 47.2491 389.333 47.657 389.077C47.7597 389.007 47.8886 388.94 48.0028 388.882C48.0713 388.955 48.1544 389.017 48.2229 389.09C48.5945 389.432 48.9514 389.785 49.3198 390.149C50.0304 390.876 50.715 391.601 51.3816 392.357C52.0482 393.114 52.674 393.878 53.3112 394.655C53.5899 395.001 53.88 395.359 54.1733 395.695C54.2189 395.743 54.2613 395.814 54.3184 395.874C54.2156 395.944 54.1128 396.013 53.9953 396.093C53.5809 396.393 53.1437 396.669 52.7032 396.967Z" fill="#FBB03B"/>
<path d="M16.9309 269.965C16.4451 269.501 15.9513 269.004 15.3269 268.674C14.4057 268.209 13.3847 268.325 12.4712 268.785C11.0715 269.495 9.84301 270.385 8.65684 271.346C7.36462 272.399 6.0724 273.451 4.76549 274.514C4.0737 275.081 3.16989 275.653 2.7536 276.409C2.27688 277.306 2.4998 278.205 3.38991 278.79L3.40132 278.802C5.50207 281.281 7.59141 283.748 9.66607 286.224C10.036 286.667 10.7616 286.849 11.3814 286.766C12.9145 286.58 14.2962 285.903 15.611 285.231C17.0401 284.501 18.4382 283.714 19.7792 282.866C20.3632 282.49 20.9473 282.115 21.5199 281.728C22.166 281.29 22.9686 280.866 23.4745 280.306C24.7522 278.907 23.5951 277.453 22.6483 276.272C20.8589 274.097 19.0694 271.923 16.9309 269.965ZM18.4746 279.829C17.6556 280.363 16.8105 280.895 15.9426 281.403C15.1335 281.872 14.3276 282.318 13.4875 282.728C12.9899 282.966 12.463 283.223 11.9313 283.424C10.1776 281.364 8.43871 279.294 6.69977 277.224C7.02935 276.961 7.34752 276.687 7.6771 276.424C8.46027 275.775 9.25485 275.139 10.038 274.49C10.7739 273.893 11.495 273.306 12.2537 272.733C12.6387 272.453 13.0205 272.195 13.4283 271.939C13.5311 271.869 13.66 271.802 13.7742 271.744C13.8426 271.817 13.9258 271.879 13.9942 271.952C14.3659 272.294 14.7228 272.647 15.0912 273.011C15.8018 273.738 16.4864 274.462 17.153 275.219C17.8195 275.976 18.4454 276.74 19.0826 277.517C19.3613 277.863 19.6513 278.221 19.9447 278.557C19.9903 278.605 20.0327 278.675 20.0897 278.736C19.987 278.805 19.8842 278.875 19.7667 278.954C19.3523 279.255 18.9151 279.531 18.4746 279.829Z" fill="#DCDCDC"/>
<path d="M160.804 355.672C158.036 353.601 154.623 352.589 151.119 351.857C150.238 351.405 149.214 351.717 148.657 352.417C147.453 353.944 146.483 355.595 145.62 357.277C145.153 358.211 144.704 359.145 144.255 360.095C143.842 360.983 143.267 361.902 143.572 362.899C143.931 364.036 145.117 364.44 146.249 364.845C147.291 365.219 148.334 365.593 149.394 365.951C151.55 366.683 153.724 367.353 155.934 367.96C156.491 368.116 157.3 367.96 157.677 367.555C159.025 366.107 159.366 364.269 159.743 362.478C160.121 360.687 160.48 358.896 161.253 357.183C161.486 356.716 161.253 355.999 160.804 355.672ZM148.729 362.369C148.298 362.213 147.866 362.058 147.435 361.902C147.399 361.886 147.363 361.871 147.327 361.855C147.597 361.326 147.813 360.734 148.046 360.236C148.37 359.535 148.711 358.849 149.07 358.164C149.645 357.09 150.31 356.046 151.011 355.018C153.257 355.517 155.521 356.14 157.426 357.292C156.958 358.554 156.671 359.846 156.401 361.154C156.24 361.949 156.06 362.743 155.862 363.537C155.79 363.833 155.719 364.191 155.593 364.534C154.173 364.113 152.736 363.709 151.334 363.241C150.454 362.977 149.591 362.681 148.729 362.369Z" fill="#EFEFEF"/>
<path d="M397.487 2.70918C397.001 2.24593 396.507 1.74858 395.882 1.41878C394.961 0.953185 393.94 1.06987 393.027 1.5296C391.627 2.23907 390.399 3.12972 389.212 4.09068C387.92 5.14321 386.628 6.19573 385.321 7.25819C384.629 7.82527 383.726 8.39721 383.309 9.15403C382.833 10.0507 383.055 10.9492 383.946 11.5347L383.957 11.5468C386.058 14.0255 388.147 16.4922 390.222 18.9687C390.592 19.4113 391.317 19.5935 391.937 19.5107C393.47 19.3247 394.852 18.6472 396.167 17.9753C397.596 17.2459 398.994 16.4583 400.335 15.6104C400.919 15.235 401.503 14.8596 402.076 14.4721C402.722 14.035 403.524 13.6107 404.03 13.0507C405.308 11.6516 404.151 10.1973 403.204 9.01662C401.414 6.84199 399.625 4.66737 397.487 2.70918ZM399.03 12.5732C398.211 13.1075 397.366 13.6397 396.498 14.1477C395.689 14.6161 394.883 15.0623 394.043 15.4724C393.546 15.7101 393.019 15.9676 392.487 16.169C390.733 14.1088 388.994 12.0385 387.255 9.96834C387.585 9.70574 387.903 9.43107 388.233 9.16847C389.016 8.51978 389.81 7.88316 390.594 7.23446C391.33 6.63758 392.051 6.05064 392.809 5.47791C393.194 5.19759 393.576 4.93928 393.984 4.68312C394.087 4.61357 394.216 4.54617 394.33 4.4887C394.398 4.56117 394.481 4.6237 394.55 4.69617C394.922 5.03864 395.278 5.39105 395.647 5.75553C396.357 6.48235 397.042 7.20703 397.709 7.96366C398.375 8.72029 399.001 9.48471 399.638 10.2612C399.917 10.6072 400.207 10.9652 400.5 11.3013C400.546 11.3496 400.588 11.4199 400.645 11.4803C400.543 11.5498 400.44 11.6194 400.322 11.6989C399.908 11.9991 399.471 12.2751 399.03 12.5732Z" fill="#DCDCDC"/>
<path d="M282.892 160.153C282.407 159.69 281.913 159.192 281.288 158.863C280.367 158.397 279.346 158.514 278.433 158.973C277.033 159.683 275.804 160.574 274.618 161.534C273.326 162.587 272.034 163.64 270.727 164.702C270.035 165.269 269.131 165.841 268.715 166.598C268.238 167.495 268.461 168.393 269.351 168.979L269.363 168.991C271.463 171.469 273.553 173.936 275.627 176.413C275.997 176.855 276.723 177.037 277.343 176.955C278.876 176.769 280.258 176.091 281.572 175.419C283.001 174.69 284.4 173.902 285.741 173.054C286.325 172.679 286.909 172.303 287.481 171.916C288.127 171.479 288.93 171.055 289.436 170.495C290.714 169.095 289.557 167.641 288.61 166.46C286.82 164.286 285.031 162.111 282.892 160.153ZM284.436 170.017C283.617 170.551 282.772 171.084 281.904 171.592C281.095 172.06 280.289 172.506 279.449 172.916C278.951 173.154 278.424 173.411 277.893 173.613C276.139 171.553 274.4 169.482 272.661 167.412C272.991 167.15 273.309 166.875 273.639 166.612C274.422 165.964 275.216 165.327 275.999 164.678C276.735 164.081 277.456 163.494 278.215 162.922C278.6 162.641 278.982 162.383 279.39 162.127C279.493 162.057 279.621 161.99 279.736 161.933C279.804 162.005 279.887 162.068 279.956 162.14C280.327 162.482 280.684 162.835 281.053 163.199C281.763 163.926 282.448 164.651 283.114 165.407C283.781 166.164 284.407 166.929 285.044 167.705C285.323 168.051 285.613 168.409 285.906 168.745C285.952 168.793 285.994 168.864 286.051 168.924C285.948 168.994 285.846 169.063 285.728 169.143C285.314 169.443 284.876 169.719 284.436 170.017Z" fill="#FBB03B"/>
<path d="M248.663 43.0146C248.178 42.5513 247.684 42.054 247.059 41.7242C246.138 41.2586 245.117 41.3753 244.204 41.835C242.804 42.5445 241.576 43.4351 240.389 44.3961C239.097 45.4486 237.805 46.5012 236.498 47.5636C235.806 48.1307 234.902 48.7027 234.486 49.4595C234.009 50.3562 234.232 51.2546 235.122 51.8402L235.134 51.8523C237.235 54.331 239.324 56.7977 241.399 59.2743C241.769 59.7169 242.494 59.899 243.114 59.8162C244.647 59.6302 246.029 58.9527 247.344 58.2808C248.773 57.5514 250.171 56.7638 251.512 55.9159C252.096 55.5405 252.68 55.1651 253.253 54.7776C253.899 54.3405 254.701 53.9162 255.207 53.3561C256.485 51.957 255.328 50.5028 254.381 49.3221C252.591 47.1474 250.802 44.9728 248.663 43.0146ZM250.207 52.8786C249.388 53.413 248.543 53.9452 247.675 54.4532C246.866 54.9215 246.06 55.3678 245.22 55.7779C244.722 56.0156 244.196 56.2731 243.664 56.4745C241.91 54.4142 240.171 52.344 238.432 50.2738C238.762 50.0112 239.08 49.7365 239.41 49.4739C240.193 48.8252 240.987 48.1886 241.771 47.5399C242.506 46.943 243.228 46.3561 243.986 45.7833C244.371 45.503 244.753 45.2447 245.161 44.9885C245.264 44.919 245.393 44.8516 245.507 44.7941C245.575 44.8666 245.658 44.9291 245.727 45.0016C246.098 45.3441 246.455 45.6965 246.824 46.061C247.534 46.7878 248.219 47.5125 248.886 48.2691C249.552 49.0257 250.178 49.7902 250.815 50.5667C251.094 50.9126 251.384 51.2707 251.677 51.6067C251.723 51.655 251.765 51.7254 251.822 51.7858C251.72 51.8553 251.617 51.9249 251.499 52.0043C251.085 52.3045 250.648 52.5806 250.207 52.8786Z" fill="#DCDCDC"/>
<path d="M392.537 128.722C389.77 126.651 386.356 125.639 382.853 124.907C381.972 124.455 380.948 124.767 380.391 125.468C379.187 126.994 378.217 128.645 377.354 130.327C376.887 131.261 376.438 132.195 375.989 133.145C375.575 134.033 375 134.952 375.306 135.949C375.665 137.086 376.851 137.49 377.983 137.895C379.025 138.269 380.067 138.643 381.128 139.001C383.284 139.733 385.458 140.403 387.668 141.01C388.225 141.166 389.034 141.01 389.411 140.605C390.759 139.157 391.1 137.319 391.477 135.528C391.855 133.737 392.214 131.946 392.987 130.233C393.22 129.766 392.987 129.05 392.537 128.722ZM380.463 135.419C380.032 135.263 379.6 135.108 379.169 134.952C379.133 134.936 379.097 134.921 379.061 134.905C379.331 134.376 379.546 133.784 379.78 133.286C380.103 132.585 380.445 131.9 380.804 131.214C381.379 130.14 382.044 129.096 382.745 128.068C384.991 128.567 387.255 129.19 389.159 130.342C388.692 131.604 388.405 132.896 388.135 134.204C387.973 134.999 387.794 135.793 387.596 136.587C387.524 136.883 387.452 137.241 387.327 137.584C385.907 137.163 384.47 136.759 383.068 136.291C382.188 136.027 381.325 135.731 380.463 135.419Z" fill="#00A99D"/>
<path d="M397.487 229.659C397.001 229.196 396.507 228.698 395.883 228.369C394.962 227.903 393.941 228.02 393.027 228.479C391.627 229.189 390.399 230.08 389.213 231.041C387.921 232.093 386.628 233.146 385.321 234.208C384.63 234.775 383.726 235.347 383.31 236.104C382.833 237.001 383.056 237.899 383.946 238.485L383.957 238.497C386.058 240.975 388.147 243.442 390.222 245.919C390.592 246.361 391.318 246.543 391.937 246.461C393.47 246.275 394.852 245.597 396.167 244.925C397.596 244.196 398.994 243.408 400.335 242.56C400.919 242.185 401.503 241.809 402.076 241.422C402.722 240.985 403.525 240.561 404.03 240.001C405.308 238.601 404.151 237.147 403.204 235.966C401.415 233.792 399.625 231.617 397.487 229.659ZM399.031 239.523C398.212 240.057 397.366 240.59 396.499 241.098C395.689 241.566 394.884 242.012 394.043 242.422C393.546 242.66 393.019 242.917 392.487 243.119C390.734 241.059 388.995 238.988 387.256 236.918C387.585 236.656 387.903 236.381 388.233 236.118C389.016 235.47 389.811 234.833 390.594 234.184C391.33 233.587 392.051 233.001 392.81 232.428C393.195 232.147 393.576 231.889 393.984 231.633C394.087 231.563 394.216 231.496 394.33 231.439C394.399 231.511 394.482 231.574 394.55 231.646C394.922 231.989 395.279 232.341 395.647 232.705C396.358 233.432 397.042 234.157 397.709 234.914C398.375 235.67 399.001 236.435 399.639 237.211C399.917 237.557 400.207 237.915 400.501 238.251C400.546 238.299 400.589 238.37 400.646 238.43C400.543 238.5 400.44 238.569 400.323 238.649C399.908 238.949 399.471 239.225 399.031 239.523Z" fill="#EFEFEF"/>
<path d="M282.893 387.103C282.407 386.64 281.913 386.142 281.289 385.813C280.367 385.347 279.346 385.464 278.433 385.923C277.033 386.633 275.805 387.523 274.619 388.484C273.326 389.537 272.034 390.59 270.727 391.652C270.035 392.219 269.132 392.791 268.715 393.548C268.239 394.445 268.462 395.343 269.352 395.929L269.363 395.941C271.464 398.419 273.553 400.886 275.628 403.363C275.998 403.805 276.723 403.987 277.343 403.905C278.876 403.719 280.258 403.041 281.573 402.369C283.002 401.64 284.4 400.852 285.741 400.004C286.325 399.629 286.909 399.254 287.482 398.866C288.128 398.429 288.93 398.005 289.436 397.445C290.714 396.045 289.557 394.591 288.61 393.41C286.821 391.236 285.031 389.061 282.893 387.103ZM284.436 396.967C283.617 397.501 282.772 398.034 281.904 398.542C281.095 399.01 280.289 399.456 279.449 399.866C278.952 400.104 278.425 400.362 277.893 400.563C276.139 398.503 274.4 396.432 272.661 394.362C272.991 394.1 273.309 393.825 273.639 393.562C274.422 392.914 275.217 392.277 276 391.628C276.736 391.031 277.457 390.444 278.215 389.872C278.6 389.591 278.982 389.333 279.39 389.077C279.493 389.007 279.622 388.94 279.736 388.882C279.804 388.955 279.887 389.017 279.956 389.09C280.328 389.432 280.685 389.785 281.053 390.149C281.764 390.876 282.448 391.601 283.115 392.357C283.781 393.114 284.407 393.879 285.044 394.655C285.323 395.001 285.613 395.359 285.906 395.695C285.952 395.743 285.994 395.814 286.051 395.874C285.949 395.944 285.846 396.013 285.728 396.093C285.314 396.393 284.877 396.669 284.436 396.967Z" fill="#FBB03B"/>
<path d="M248.664 269.965C248.178 269.501 247.684 269.004 247.06 268.674C246.139 268.209 245.118 268.325 244.204 268.785C242.804 269.495 241.576 270.385 240.39 271.346C239.097 272.399 237.805 273.451 236.498 274.514C235.806 275.081 234.903 275.653 234.486 276.41C234.01 277.306 234.233 278.205 235.123 278.79L235.134 278.802C237.235 281.281 239.324 283.748 241.399 286.224C241.769 286.667 242.494 286.849 243.114 286.766C244.647 286.58 246.029 285.903 247.344 285.231C248.773 284.502 250.171 283.714 251.512 282.866C252.096 282.491 252.68 282.115 253.253 281.728C253.899 281.291 254.701 280.866 255.207 280.306C256.485 278.907 255.328 277.453 254.381 276.272C252.592 274.098 250.802 271.923 248.664 269.965ZM250.207 279.829C249.388 280.363 248.543 280.895 247.675 281.403C246.866 281.872 246.06 282.318 245.22 282.728C244.723 282.966 244.196 283.223 243.664 283.425C241.91 281.364 240.172 279.294 238.433 277.224C238.762 276.961 239.08 276.687 239.41 276.424C240.193 275.775 240.988 275.139 241.771 274.49C242.507 273.893 243.228 273.306 243.986 272.733C244.372 272.453 244.753 272.195 245.161 271.939C245.264 271.869 245.393 271.802 245.507 271.744C245.575 271.817 245.659 271.879 245.727 271.952C246.099 272.294 246.456 272.647 246.824 273.011C247.535 273.738 248.219 274.463 248.886 275.219C249.552 275.976 250.178 276.74 250.815 277.517C251.094 277.863 251.384 278.221 251.678 278.557C251.723 278.605 251.766 278.675 251.823 278.736C251.72 278.805 251.617 278.875 251.5 278.954C251.085 279.255 250.648 279.531 250.207 279.829Z" fill="#DCDCDC"/>
<path d="M392.538 355.672C389.771 353.601 386.357 352.589 382.853 351.857C381.972 351.405 380.948 351.717 380.391 352.418C379.187 353.944 378.217 355.595 377.355 357.277C376.887 358.211 376.438 359.145 375.989 360.095C375.576 360.983 375.001 361.902 375.306 362.899C375.666 364.036 376.851 364.441 377.983 364.845C379.026 365.219 380.068 365.593 381.128 365.951C383.284 366.683 385.458 367.353 387.668 367.96C388.225 368.116 389.034 367.96 389.411 367.555C390.759 366.107 391.1 364.269 391.478 362.478C391.855 360.687 392.214 358.896 392.987 357.183C393.22 356.716 392.987 356 392.538 355.672ZM380.463 362.369C380.032 362.213 379.601 362.058 379.169 361.902C379.133 361.886 379.097 361.871 379.061 361.855C379.331 361.326 379.547 360.734 379.78 360.236C380.104 359.535 380.445 358.85 380.804 358.164C381.379 357.09 382.044 356.046 382.745 355.018C384.991 355.517 387.255 356.14 389.16 357.292C388.692 358.554 388.405 359.846 388.135 361.154C387.974 361.949 387.794 362.743 387.596 363.537C387.525 363.833 387.453 364.191 387.327 364.534C385.907 364.113 384.47 363.709 383.068 363.241C382.188 362.977 381.325 362.681 380.463 362.369Z" fill="#00A99D"/>
</svg>
