<svg width="343" height="1736" viewBox="0 0 343 1736" fill="none" xmlns="http://www.w3.org/2000/svg">
<path d="M342.614 1731.36C342.614 1732.08 342.614 1732.8 342.63 1733.52H341.492C339.785 1733.93 338.078 1734.14 336.37 1734.34C329.005 1735.06 321.607 1734.04 314.259 1733.01C301.102 1731.26 287.962 1729.3 274.756 1730.64C262.084 1731.98 249.397 1736.2 236.709 1733.42C230.398 1731.98 224.155 1729.71 217.878 1728.06C211.668 1726.31 205.542 1726.73 199.348 1728.37C193.138 1729.92 186.979 1732.8 180.752 1734.04C174.927 1735.17 169.102 1734.34 163.31 1732.8C157.134 1731.26 151.024 1729.4 144.797 1728.99C138.454 1728.68 132.093 1729.3 125.766 1730.43C113.245 1732.59 100.758 1736.2 88.1709 1735.99C81.7266 1735.89 75.299 1734.55 68.8714 1733.83C62.2596 1733.01 55.6312 1732.29 49.0027 1731.87C35.9299 1731.05 22.8404 1731.36 9.80103 1733.83C9.68386 1733.83 9.58343 1733.83 9.46626 1733.93L7.07264 1733.83C7.10612 1726.31 7.12286 1718.9 7.12286 1711.39C7.17307 1669.49 7.07264 1627.49 6.88852 1585.69C6.55375 1503.02 5.9679 1420.57 6.00137 1337.38C6.01811 1294.87 7.12286 1207.34 7.12286 902.044C7.12286 473.849 6.60396 314.916 6.67092 271.061C6.80483 184.792 6.75461 98.3179 6.36962 12.2551C6.36962 11.5344 6.36962 10.8138 6.35288 10.0932H10.2195C11.7762 9.68141 13.3496 9.47552 14.9063 9.37257C22.2712 8.65195 29.6697 9.68141 37.0179 10.7109C50.1912 12.4609 63.3142 14.4169 76.5209 13.0786C89.192 11.6374 101.88 7.4166 114.568 10.1961C120.878 11.6374 127.122 13.9022 133.399 15.5493C139.592 17.2994 145.735 16.8876 151.928 15.2405C158.138 13.5934 164.298 10.8138 170.525 9.57846C176.35 8.44606 182.175 9.26962 187.966 10.8138C194.126 12.358 200.252 14.211 206.479 14.6228C212.823 15.0346 219.184 14.314 225.511 13.1816C238.031 11.0197 250.518 7.4166 263.105 7.62249C269.55 7.72543 275.977 9.06373 282.405 9.78435C289.017 10.7109 295.645 11.3285 302.274 11.7403C315.347 12.5639 328.436 12.2551 341.475 9.78435C341.593 9.78435 341.693 9.78435 341.81 9.68141V13.1816H341.911C341.877 20.5937 341.86 28.1087 341.86 35.5208C341.81 77.3169 341.911 119.113 342.095 160.703C342.446 243.06 343.032 325.211 342.999 408.082C342.982 450.496 340.787 600.649 341.81 902.044C342.999 1252.21 342.396 1429.83 342.329 1473.38C342.178 1559.44 342.229 1645.71 342.614 1731.36Z" fill="#FBB03B"/>
<path d="M336.614 1725.64C336.614 1726.36 336.614 1727.09 336.63 1727.81H335.492C333.785 1728.22 332.077 1728.43 330.37 1728.63C323.005 1729.35 315.607 1728.32 308.258 1727.29C295.102 1725.54 281.962 1723.58 268.756 1724.92C256.084 1726.26 243.397 1730.49 230.709 1727.7C224.398 1726.26 218.155 1723.99 211.878 1722.35C205.668 1720.59 199.542 1721.01 193.348 1722.65C187.138 1724.2 180.979 1727.09 174.752 1728.32C168.927 1729.46 163.102 1728.63 157.31 1727.09C151.134 1725.54 145.024 1723.69 138.797 1723.27C132.454 1722.96 126.093 1723.58 119.766 1724.72C107.245 1726.88 94.7583 1730.49 82.1709 1730.28C75.7266 1730.18 69.299 1728.84 62.8714 1728.12C56.2596 1727.29 49.6312 1726.57 43.0027 1726.16C29.9299 1725.33 16.8404 1725.64 3.80103 1728.12C3.68386 1728.12 3.58343 1728.12 3.46626 1728.22L1.07264 1728.12C1.10612 1720.59 1.12286 1713.17 1.12286 1705.65C1.17307 1663.7 1.07264 1621.66 0.888518 1579.81C0.553747 1497.06 -0.0321022 1414.51 0.00137487 1331.24C0.0181134 1288.67 1.12286 1201.05 1.12286 895.415C1.12286 466.748 0.603963 307.64 0.670917 263.737C0.804825 177.374 0.75461 90.8037 0.369623 4.64613C0.369623 3.92472 0.369623 3.2033 0.352884 2.48189H4.21949C5.77618 2.06965 7.3496 1.86353 8.90628 1.76047C16.2712 1.03906 23.6697 2.06965 31.0179 3.10024C44.1911 4.85225 57.3142 6.81038 70.5209 5.47061C83.192 4.02778 95.8798 -0.197656 108.568 2.58495C114.878 4.02778 121.122 6.29508 127.398 7.94403C133.592 9.69604 139.735 9.2838 145.928 7.63485C152.138 5.9859 158.298 3.2033 164.525 1.96659C170.35 0.832937 176.175 1.65741 181.966 3.2033C188.126 4.74919 194.252 6.60426 200.479 7.0165C206.823 7.42873 213.184 6.70732 219.511 5.57367C232.031 3.40942 244.518 -0.197656 257.105 0.00846294C263.55 0.111522 269.977 1.45129 276.405 2.17271C283.017 3.10024 289.645 3.7186 296.274 4.13084C309.347 4.95531 322.436 4.64613 335.475 2.17271C335.593 2.17271 335.693 2.17271 335.81 2.06965V5.57367H335.911C335.877 12.9939 335.86 20.5173 335.86 27.9375C335.81 69.7796 335.911 111.622 336.095 153.258C336.446 235.705 337.032 317.946 336.999 400.909C336.982 443.37 334.787 593.688 335.81 895.415C336.999 1245.96 336.396 1423.78 336.329 1467.38C336.178 1553.53 336.229 1639.9 336.614 1725.64Z" fill="#F5F5F5"/>
</svg>
