<svg width="496" height="56" viewBox="0 0 496 56" fill="none" xmlns="http://www.w3.org/2000/svg">
<path d="M4.99252 46.5474C4.79968 47.2114 4.60375 47.8028 4.33426 48.3972C4.06168 48.9189 3.70627 49.2255 3.34467 49.3866C2.61838 49.6361 2.02374 49.5157 1.6374 49.0948C1.25106 48.674 1.00874 48.1742 1.12493 47.4405C1.3202 45.1003 1.72995 42.6051 2.35419 39.9551C2.97843 37.3051 3.67622 34.652 4.52422 32.0653C5.36913 29.4059 6.29378 26.8889 7.29199 24.3688C8.2902 21.8486 9.37433 19.6163 10.4647 17.5295C10.673 17.2291 10.8843 17.0015 11.1019 16.9194C11.3195 16.8373 11.6137 16.8248 11.7639 16.8912C11.9784 16.7364 12.1929 16.5815 12.4809 16.4235C12.7016 16.4141 12.9928 16.3289 13.287 16.3164C13.4341 16.3101 13.5077 16.307 13.6579 16.3735C13.8081 16.44 13.9583 16.5065 14.1147 16.7184C14.2711 16.9304 14.5041 17.212 14.7402 17.5663C14.9764 17.9207 15.2953 18.4901 15.6174 19.1323C16.2893 21.0713 16.9675 23.1558 17.7927 25.2341C18.618 27.3123 19.4432 29.3906 20.342 31.4657C20.4861 31.3867 20.5596 31.3836 20.6332 31.3805C20.7067 31.3774 20.8507 31.2984 20.9243 31.2952C21.3626 31.2037 21.8805 31.2546 22.3985 31.3054C22.9901 31.3532 23.3702 31.6285 23.5359 32.0587C23.7813 32.6313 23.803 33.1405 23.4537 33.5926C23.1781 34.0415 22.6082 34.503 21.8176 34.9738C22.3851 36.1886 22.9525 37.4033 23.5169 38.5453C24.0813 39.6873 24.6457 40.8293 25.2836 41.9682C25.3664 42.1833 25.3788 42.4742 25.4709 42.9076C25.563 43.3409 25.652 43.7015 25.6706 44.1379C25.6892 44.5744 25.7046 44.9381 25.6465 45.3049C25.5884 45.6718 25.4506 45.8963 25.2361 46.0511C24.9481 46.2091 24.6507 46.1489 24.3503 46.0159C24.0499 45.8829 23.7464 45.6772 23.4429 45.4715C23.1394 45.2658 22.9064 44.9842 22.6733 44.7026C22.4403 44.421 22.2808 44.1363 22.1244 43.9243C21.4067 42.6431 20.6891 41.3619 20.0449 40.0775C19.4008 38.7932 18.7567 37.5088 18.1126 36.2245C16.4331 36.5874 14.6801 36.9534 12.7034 37.256C10.7266 37.5587 8.82034 37.7855 6.91096 37.9395C6.53147 39.4132 6.15198 40.8868 5.84604 42.3573C5.60748 43.6791 5.30155 45.1496 4.99252 46.5474ZM12.4063 21.6007C10.7375 25.6798 9.36594 29.819 8.13845 33.8793C10.7834 33.694 13.5631 33.2114 16.5542 32.5013C15.0051 28.9963 13.5969 25.3396 12.4063 21.6007Z" fill="#00A99D"/>
<path d="M49.0551 25.654C49.1565 26.3056 49.1874 27.033 49.3747 27.9724C49.4885 28.915 49.6758 29.8544 49.7927 30.8696C49.9831 31.8818 50.0968 32.8243 50.2872 33.8364C50.4746 34.7758 50.6619 35.7152 50.7694 36.5123C51.1737 35.6206 51.6453 34.5803 52.2516 33.2428C52.8611 31.978 53.4705 30.7133 54.083 29.5212C54.6956 28.3292 55.3909 27.3523 56.0925 26.5208C56.794 25.6894 57.4375 25.2248 58.0259 25.1998C58.688 25.1716 59.2888 25.4376 59.8315 26.0704C60.3711 26.6304 60.917 27.336 61.3219 28.1933C61.7268 29.0505 62.1317 29.9078 62.4692 30.9137C62.8036 31.8468 63.0614 32.7104 63.313 33.4284C63.4384 32.913 63.6344 32.3216 63.8272 31.6576C64.0201 30.9935 64.2864 30.3263 64.5528 29.6591C64.8192 28.9919 65.1561 28.2489 65.496 27.5786C65.836 26.9082 66.2526 26.3075 66.6723 25.7796C67.1625 25.1757 67.7354 24.787 68.3115 24.471C68.8907 24.2278 69.3259 24.0635 69.6201 24.051C69.9879 24.0354 70.4323 24.0894 70.8829 24.2888C71.4071 24.4852 71.9344 24.7543 72.4647 25.0961C72.9951 25.4379 73.5285 25.8525 73.9884 26.2702C74.4514 26.7606 74.8409 27.2542 75.1567 27.7508C75.7916 28.817 76.2793 29.8893 76.6292 31.1862C77.0496 32.4072 77.3228 33.6344 77.5163 34.7193C77.7129 35.8769 77.9002 36.8163 77.9404 37.762C78.0511 38.6318 78.0789 39.2865 78.1648 39.5743C78.1865 40.0835 78.1284 40.4504 78.0672 40.7444C77.9325 41.0417 77.718 41.1965 77.4299 41.3545C76.9979 41.5915 76.6332 41.6799 76.3359 41.6197C76.0385 41.5594 75.7381 41.4265 75.5848 41.2872C75.3549 41.0784 75.1985 40.8664 75.1157 40.6513C74.9593 40.4393 74.8733 40.1515 74.8671 40.006C74.6829 39.1393 74.5692 38.1968 74.3819 37.2574C74.1945 36.318 74.0103 35.4514 73.823 34.512C73.6388 33.6453 73.3841 32.8545 73.1294 32.0637C72.8778 31.3457 72.6262 30.6276 72.3808 30.0551C72.301 29.9127 72.1447 29.7008 71.9883 29.4888C71.8319 29.2768 71.5988 28.9952 71.3689 28.7864C71.1389 28.5775 70.909 28.3687 70.7557 28.2294C70.5288 28.0933 70.3786 28.0269 70.302 27.9572C69.9342 27.9729 69.5083 28.3553 69.0979 29.1015C68.6875 29.8477 68.2833 30.7394 67.9588 31.7734C67.6343 32.8075 67.3129 33.9142 66.9915 35.021C66.6701 36.1278 66.4896 37.0828 66.3765 37.8892C66.4198 38.9076 66.2301 39.6445 65.8839 40.1693C65.5378 40.6941 65.1057 40.9311 64.6644 40.9499C64.2231 40.9686 63.6253 40.7754 63.0981 40.5063C62.5677 40.1645 62.258 39.8133 62.0923 39.3831C61.8438 38.7378 61.5218 38.0956 61.2671 37.3049C60.9388 36.5172 60.6106 35.7295 60.2824 34.9419C59.9541 34.1542 59.6259 33.3665 59.2976 32.5789C58.9694 31.7912 58.6473 31.1491 58.3252 30.5069C57.7677 31.2593 57.2899 32.1541 56.8121 33.0489C56.3344 33.9437 55.8597 34.9113 55.385 35.8788C54.9103 36.8464 54.5091 37.8108 54.1049 38.7024C53.7038 39.6669 53.2964 40.4858 52.9565 41.1561C52.6808 41.6051 52.4021 41.9813 52.1233 42.3575C51.8445 42.7337 51.4829 42.8949 51.0416 42.9136C50.7474 42.9261 50.3734 42.7963 49.9932 42.521C49.6131 42.2456 49.3034 41.8944 48.917 41.4736C48.6043 41.0496 48.2884 40.553 47.9725 40.0563C47.6535 39.4868 47.4848 38.9839 47.3129 38.4082C46.9476 36.7476 46.5729 34.8688 46.2688 32.9142C45.9615 30.8867 45.6573 28.9321 45.4298 27.047C45.3284 26.3955 45.4477 25.7345 45.6467 25.216C45.8427 24.6246 46.2686 24.2422 46.8477 23.9989C47.5036 23.8253 48.0246 23.9489 48.4048 24.2242C48.7114 24.5027 48.9537 25.0025 49.0551 25.654Z" fill="#00A99D"/>
<path d="M96.9394 28.7924C95.4319 29.731 93.771 30.5303 92.0273 31.1145C90.2835 31.6988 88.3803 31.9983 86.3207 32.0859C86.4531 33.4649 86.8672 34.5404 87.6368 35.3093C88.4064 36.0782 89.3107 36.5498 90.3467 36.6516C91.0118 36.6961 91.6003 36.6711 92.2561 36.4975C92.9119 36.3239 93.4942 36.1534 94.0703 35.8374C94.6495 35.5941 95.152 35.2813 95.5779 34.8988C96.0068 34.5891 96.4327 34.2066 96.7881 33.9C97.1435 33.5934 97.502 33.3595 97.8667 33.2711C98.2314 33.1828 98.5257 33.1703 98.7494 33.2336C99.3472 33.4268 99.519 34.0025 99.4121 34.9544C98.8027 36.2192 97.9664 37.3479 96.8266 38.2708C95.6868 39.1937 94.3875 39.832 92.9256 40.1127C91.6844 40.3841 90.3573 40.3677 89.0209 40.133C87.6814 39.8256 86.4031 39.224 85.33 38.2494C84.4103 37.414 83.6283 36.3542 83.1344 35.1363C82.6405 33.9185 82.2937 32.6943 82.0909 31.3912C81.8912 30.1609 81.9888 28.9907 82.2367 27.8871C82.5581 26.7803 83.0328 25.8128 83.6577 24.9117C84.3561 24.0075 85.211 23.3153 86.216 22.6896C87.2947 22.0607 88.4592 21.7197 89.9272 21.5844C91.6129 21.367 93.173 21.6651 94.6015 22.3331C96.03 23.0011 97.0296 23.9788 97.6768 25.3359C98.0019 26.0509 98.1769 26.6993 98.0545 27.2875C97.929 27.8029 97.5829 28.3278 96.9394 28.7924ZM89.9286 25.0823C89.5639 25.1707 89.1287 25.335 88.6966 25.572C88.2646 25.809 87.8325 26.0459 87.4771 26.3526C87.1217 26.6592 86.7694 27.0385 86.4906 27.4147C86.2118 27.7909 86.0833 28.2337 86.0283 28.6732C86.6903 28.6451 87.4228 28.5411 88.2288 28.4339C89.0317 28.2541 89.8347 28.0742 90.5641 27.8974C91.2934 27.7207 92.0197 27.4712 92.6725 27.2248C93.3252 26.9784 93.8277 26.6656 94.2598 26.4286C93.9347 25.7137 93.3245 25.2295 92.4357 25.1215C91.6877 24.8618 90.8051 24.8993 89.9286 25.0823Z" fill="#00A99D"/>
<path d="M114.359 24.2624C114.267 23.8291 114.175 23.3957 114.085 23.0351C113.996 22.6746 113.763 22.393 113.466 22.3327C112.795 22.1426 112.059 22.1739 111.33 22.3507C110.6 22.5274 109.877 22.8497 109.301 23.1657C108.655 23.5575 108.155 23.9431 107.729 24.3256C107.303 24.7081 107.101 25.1539 107.04 25.448C106.918 26.0362 107.163 26.6088 107.553 27.1023C108.019 27.6655 108.702 28.1466 109.536 28.6941C110.968 29.4349 112.403 30.2484 113.984 31.0556C115.493 31.866 116.854 32.6826 117.921 33.5117C118.988 34.3408 119.766 35.328 120.181 36.4035C120.595 37.479 120.574 38.7187 120.041 40.0531C119.646 41.163 118.871 41.9976 117.722 42.7023C116.573 43.407 115.27 43.9725 113.888 44.3956C112.506 44.8188 111.047 45.1723 109.653 45.3044C108.261 45.5093 107.014 45.6352 106.058 45.6759C105.837 45.6853 105.54 45.625 105.163 45.4224C104.789 45.2926 104.485 45.0869 104.182 44.8812C103.878 44.6754 103.572 44.397 103.415 44.185C103.185 43.9762 103.099 43.6883 103.093 43.5428C103.062 42.8154 103.338 42.3664 103.988 42.0473C104.637 41.7282 105.22 41.5577 105.955 41.5264C106.911 41.4858 107.938 41.3693 109.038 41.2496C110.139 41.13 111.162 40.9407 112.109 40.6818C113.056 40.4229 114 40.0913 114.72 39.6963C115.514 39.2982 116.01 38.8399 116.353 38.2423C116.629 37.7933 116.383 37.2208 115.767 36.5911C115.151 35.9614 114.314 35.3412 113.253 34.6575C112.192 33.9739 111.061 33.3661 109.93 32.7583C108.725 32.1537 107.744 31.6124 106.837 31.068C106.003 30.5204 105.24 29.897 104.62 29.1946C104.001 28.4922 103.59 27.4894 103.396 26.4045C103.279 25.3893 103.46 24.4342 103.935 23.4667C104.336 22.5023 104.964 21.674 105.668 20.9153C106.373 20.1566 107.231 19.5371 108.242 19.0569C109.18 18.5798 110.2 18.3177 111.157 18.2771C112.852 18.2779 114.268 18.655 115.408 19.481C116.549 20.307 117.263 21.5154 117.552 23.1064C117.577 23.6883 117.522 24.1279 117.316 24.501C117.185 24.871 116.826 25.1048 116.388 25.1964C115.803 25.2941 115.358 25.2401 115.055 25.0344C114.607 24.9077 114.374 24.6261 114.359 24.2624Z" fill="#00A99D"/>
<path d="M134.44 23.4087C134.348 22.9754 134.255 22.542 134.166 22.1814C134.077 21.8209 133.844 21.5393 133.547 21.479C132.876 21.2889 132.14 21.3202 131.411 21.497C130.681 21.6737 129.958 21.996 129.382 22.312C128.736 22.7038 128.236 23.0894 127.81 23.4719C127.384 23.8544 127.182 24.3002 127.121 24.5943C126.999 25.1825 127.244 25.7551 127.634 26.2486C128.1 26.8118 128.783 27.2929 129.617 27.8404C131.049 28.5812 132.483 29.3947 134.065 30.2019C135.574 31.0123 136.935 31.8289 138.002 32.658C139.068 33.4871 139.847 34.4743 140.261 35.5498C140.676 36.6253 140.655 37.865 140.122 39.1994C139.727 40.3093 138.952 41.1439 137.803 41.8486C136.654 42.5533 135.351 43.1188 133.969 43.5419C132.587 43.9651 131.128 44.3186 129.734 44.4507C128.342 44.6556 127.095 44.7815 126.139 44.8222C125.918 44.8316 125.621 44.7713 125.244 44.5687C124.87 44.4389 124.566 44.2332 124.263 44.0275C123.959 43.8217 123.653 43.5433 123.496 43.3313C123.266 43.1225 123.18 42.8346 123.174 42.6891C123.143 41.9617 123.419 41.5127 124.069 41.1936C124.718 40.8745 125.301 40.704 126.036 40.6727C126.992 40.6321 128.019 40.5156 129.119 40.3959C130.22 40.2763 131.243 40.087 132.19 39.8281C133.137 39.5692 134.081 39.2376 134.801 38.8426C135.595 38.4445 136.091 37.9862 136.434 37.3886C136.71 36.9396 136.464 36.3671 135.848 35.7374C135.232 35.1077 134.395 34.4875 133.334 33.8038C132.273 33.1202 131.142 32.5124 130.011 31.9046C128.806 31.3 127.825 30.7587 126.918 30.2143C126.084 29.6667 125.321 29.0433 124.701 28.3409C124.082 27.6385 123.671 26.6357 123.477 25.5508C123.36 24.5356 123.541 23.5805 124.016 22.613C124.417 21.6486 125.045 20.8203 125.749 20.0616C126.454 19.3029 127.312 18.6834 128.323 18.2032C129.261 17.7261 130.281 17.464 131.238 17.4234C132.933 17.4242 134.349 17.8013 135.489 18.6273C136.63 19.4533 137.344 20.6617 137.633 22.2527C137.658 22.8346 137.603 23.2742 137.397 23.6473C137.266 24.0173 136.907 24.2511 136.469 24.3426C135.884 24.4404 135.439 24.3864 135.136 24.1807C134.688 24.054 134.529 23.7693 134.44 23.4087Z" fill="#00A99D"/>
<path d="M158.096 18.2492C158.289 19.3341 158.486 20.4917 158.612 21.7252C158.738 22.9587 158.864 24.1922 158.99 25.4257C159.117 26.6592 159.169 27.8958 159.219 29.0597C159.268 30.2236 159.314 31.3147 159.281 32.2635C160.569 33.0833 161.409 33.7763 161.657 34.4216C161.906 35.0669 162.004 35.6457 161.805 36.1643C161.615 36.9011 161.189 37.2836 160.601 37.3086C160.012 37.3336 159.268 37.1466 158.443 36.8173C157.87 37.2061 157.3 37.6675 156.583 38.1353C155.866 38.603 155.149 39.0707 154.359 39.5416C153.568 40.0124 152.774 40.4105 152.051 40.7328C151.254 41.0581 150.528 41.3076 149.872 41.4813C148.631 41.7527 147.442 41.5117 146.458 40.8977C145.4 40.2868 144.695 39.2965 144.271 38.0028C144.014 37.1393 143.9 36.1967 144.007 35.2448C144.114 34.2929 144.368 33.3348 144.772 32.4431C145.176 31.5514 145.804 30.7231 146.582 29.9613C147.36 29.1995 148.295 28.6496 149.38 28.1662C149.668 28.0082 150.033 27.9199 150.544 27.8252C151.056 27.7306 151.571 27.7087 152.086 27.6868C152.601 27.6649 153.196 27.7854 153.717 27.909C154.314 28.1022 154.842 28.3713 155.305 28.8617C155.277 28.207 155.246 27.4796 155.212 26.6794C155.178 25.8793 155.07 25.0822 155.036 24.2821C154.929 23.485 154.895 22.6849 154.79 21.9606C154.686 21.2363 154.587 20.6574 154.492 20.1514C154.394 19.5726 154.158 19.2182 153.784 19.0884C153.41 18.9585 152.972 19.05 152.389 19.2205C151.445 19.5522 150.37 20.2537 149.157 21.1798C147.943 22.1059 146.736 23.1774 145.676 24.2428C145.324 24.6221 144.962 24.7832 144.444 24.7324C144 24.6784 143.626 24.5485 143.246 24.2732C142.939 23.9947 142.703 23.6404 142.684 23.204C142.592 22.7706 142.794 22.3248 143.07 21.8758C143.701 21.1203 144.406 20.3616 145.257 19.5966C146.036 18.8348 146.89 18.1426 147.745 17.4504C148.603 16.8309 149.538 16.281 150.476 15.8039C151.416 15.3996 152.363 15.1407 153.316 15.0273C154.711 14.8951 155.756 15.2151 156.593 15.8354C157.43 16.4556 157.905 17.237 158.096 18.2492ZM151.793 31.1972C151.284 31.3646 150.779 31.6047 150.206 31.9935C149.633 32.3822 149.136 32.8405 148.72 33.4412C148.3 33.9692 147.957 34.5668 147.764 35.2308C147.571 35.8949 147.599 36.5496 147.845 37.1221C147.928 37.3372 148.084 37.5492 148.381 37.6095C148.608 37.7456 148.902 37.733 149.267 37.6447C150.214 37.3858 151.302 36.9752 152.454 36.3432C153.606 35.7112 154.538 35.0886 155.245 34.4027C155.236 34.1844 155.077 33.8997 154.837 33.4727C154.601 33.1183 154.292 32.7671 153.982 32.4159C153.672 32.0647 153.289 31.7166 152.912 31.514C152.458 31.2418 152.084 31.112 151.793 31.1972Z" fill="#00A99D"/>
<path d="M175.617 23.0427C175.93 23.4667 176.245 23.9634 176.641 24.6024C176.963 25.2446 177.212 25.8899 177.387 26.5383C177.654 27.6201 177.994 28.6987 178.341 29.9228C178.688 31.147 179.038 32.4438 179.388 33.7407C179.738 35.0375 180.09 36.4071 180.37 37.7799C180.649 39.1526 180.999 40.4495 181.199 41.6798C181.494 43.4163 181.415 45.0229 181.041 46.642C180.595 48.2642 179.844 49.6807 178.793 50.9642C177.669 52.2509 176.315 53.3287 174.654 54.128C172.993 54.9274 171.099 55.4452 168.969 55.6086C168.525 55.5546 168 55.3583 167.47 55.0164C166.937 54.6019 166.7 54.2475 166.682 53.8111C166.59 53.3778 166.795 53.0047 167.227 52.7677C167.656 52.4579 168.165 52.2906 168.603 52.1991C169.409 52.0919 170.286 51.9089 171.156 51.5804C172.026 51.2519 172.896 50.9234 173.61 50.3829C174.401 49.9121 175.112 49.2989 175.672 48.6192C176.307 47.9364 176.787 47.1143 177.118 46.2257C177.381 45.4858 177.491 44.6067 177.448 43.5883C177.405 42.5699 177.288 41.5546 177.098 40.5424C176.907 39.5303 176.72 38.5909 176.459 37.6546C176.198 36.7184 175.95 36.0731 175.781 35.5701C175.499 35.8736 175.217 36.1771 174.788 36.4868C174.359 36.7965 173.93 37.1063 173.428 37.4191C172.925 37.732 172.346 37.9752 171.764 38.1457C171.181 38.3162 170.523 38.4171 169.931 38.3694C169.266 38.3248 168.595 38.1347 168.061 37.7202C167.454 37.3087 166.915 36.7487 166.445 36.1127C165.976 35.4768 165.574 34.6923 165.314 33.756C164.982 32.8956 164.868 31.9531 164.825 30.9347C164.8 28.6038 165.298 26.4692 166.398 24.6006C167.424 22.7352 169.204 21.2749 171.662 20.1502C171.879 20.068 172.1 20.0587 172.465 19.9703C172.83 19.8819 173.124 19.8694 173.495 19.9265C173.862 19.9109 174.233 19.968 174.531 20.0282C174.902 20.0853 175.128 20.2214 175.429 20.3544C175.882 20.6266 176.122 21.0537 176.15 21.7084C176.027 22.2966 175.899 22.7393 175.617 23.0427ZM168.528 31.3603C168.546 31.7967 168.641 32.3028 168.737 32.8089C168.832 33.3149 169.145 33.7389 169.522 33.9415C169.975 34.2137 170.564 34.1887 171.293 34.0119C171.946 33.7655 172.596 33.4464 173.162 32.9122C173.732 32.4507 174.078 31.9259 174.204 31.4105C174.329 30.895 174.298 30.1676 174.114 29.3009C173.856 28.4374 173.596 27.5011 173.332 26.4921C173.071 25.5558 172.883 24.6164 172.779 23.8921C172.347 24.1291 171.847 24.5147 171.278 24.9762C170.781 25.4345 170.288 25.9656 169.874 26.6391C169.461 27.3125 169.124 28.0556 168.861 28.7955C168.601 29.6082 168.491 30.4874 168.528 31.3603Z" fill="#00A99D"/>
<path d="M199.404 24.4363C197.897 25.3749 196.236 26.1742 194.492 26.7585C192.748 27.3427 190.845 27.6423 188.785 27.7298C188.918 29.1088 189.332 30.1843 190.102 30.9532C190.871 31.7221 191.775 32.1938 192.811 32.2955C193.477 32.3401 194.065 32.3151 194.721 32.1414C195.377 31.9678 195.959 31.7973 196.535 31.4813C197.114 31.2381 197.617 30.9252 198.043 30.5427C198.472 30.233 198.897 29.8505 199.253 29.5439C199.608 29.2373 199.967 29.0034 200.331 28.9151C200.696 28.8267 200.99 28.8142 201.214 28.8775C201.812 29.0707 201.984 29.6464 201.877 30.5983C201.267 31.8631 200.431 32.9918 199.291 33.9147C198.151 34.8377 196.852 35.4759 195.39 35.7567C194.149 36.0281 192.822 36.0116 191.486 35.7769C190.146 35.4695 188.868 34.868 187.795 33.8934C186.875 33.058 186.093 31.9981 185.599 30.7802C185.105 29.5624 184.758 28.3383 184.556 27.0351C184.356 25.8048 184.454 24.6346 184.701 23.531C185.023 22.4242 185.497 21.4567 186.122 20.5556C186.821 19.6514 187.676 18.9592 188.681 18.3335C189.759 17.7047 190.924 17.3637 192.392 17.2284C194.078 17.011 195.638 17.309 197.066 17.977C198.495 18.645 199.494 19.6228 200.141 20.9799C200.467 21.6948 200.642 22.3432 200.519 22.9314C200.467 23.4437 200.048 23.9717 199.404 24.4363ZM192.393 20.7263C192.029 20.8146 191.593 20.9789 191.161 21.2159C190.729 21.4529 190.297 21.6899 189.942 21.9965C189.586 22.3031 189.234 22.6824 188.955 23.0587C188.677 23.4349 188.548 23.8776 188.493 24.3172C189.155 24.289 189.887 24.185 190.694 24.0779C191.496 23.898 192.299 23.7181 193.029 23.5413C193.758 23.3646 194.484 23.1151 195.137 22.8687C195.79 22.6223 196.292 22.3095 196.725 22.0725C196.399 21.3576 195.789 20.8734 194.9 20.7654C194.152 20.5057 193.27 20.5433 192.393 20.7263Z" fill="#00A99D"/>
<path d="M224.694 26.4948C224.108 26.5925 223.517 26.5448 222.775 26.4306C222.03 26.2436 221.497 25.8291 221.168 25.0414C221.006 24.6839 220.987 24.2475 221.045 23.8806C221.103 23.5138 221.532 23.2041 222.262 23.0273C222.991 22.8506 223.721 22.6738 224.523 22.4939C225.326 22.314 226.129 22.1341 226.935 22.027L224.45 15.574C223.683 13.1289 223.517 10.9497 223.954 9.10927C224.392 7.26882 225.811 5.96965 228.204 5.06628C229.148 4.73466 230.171 4.5454 231.131 4.57749C232.09 4.60958 233.059 4.8599 233.957 5.18608C234.858 5.58501 235.692 6.13256 236.382 6.7591C237.148 7.45525 237.697 8.23353 238.179 9.16042C238.344 9.59062 238.433 9.95121 238.522 10.3118C238.538 10.6755 238.477 10.9696 238.195 11.2731C237.842 11.6524 237.41 11.8894 236.892 11.8386C236.374 11.7877 236.074 11.6547 235.921 11.5155C235.534 11.0947 235.148 10.6739 234.688 10.2562C234.228 9.83848 233.768 9.42079 233.315 9.14858C232.858 8.80363 232.334 8.60729 231.813 8.4837C231.292 8.3601 230.7 8.31238 230.115 8.41014C229.824 8.49539 229.532 8.58064 229.177 8.88725C228.818 9.12111 228.466 9.50046 228.267 10.019C227.995 10.5407 227.872 11.1289 227.833 11.9322C227.793 12.7355 227.98 13.6749 228.324 14.8263C228.659 15.7594 228.999 16.8381 229.416 17.9863C229.834 19.1346 230.251 20.2828 230.745 21.5007C232.648 21.2011 234.34 21.1292 235.961 21.1332C236.847 21.1684 237.662 21.2795 238.407 21.4664C239.152 21.6534 239.829 21.989 240.292 22.4794C240.455 22.8369 240.397 23.2037 240.259 23.4282C240.124 23.7254 239.91 23.8803 239.625 24.111C239.337 24.269 238.975 24.4301 238.611 24.5185C238.246 24.6069 237.881 24.6952 237.513 24.7109C236.707 24.818 235.901 24.9252 235.025 25.1082C234.145 25.2184 233.269 25.4015 232.316 25.5149C233.052 27.2325 233.711 28.8806 234.294 30.459C234.877 32.0375 235.374 33.3281 235.712 34.334C235.884 34.9097 235.912 35.5644 235.866 36.2222C235.747 36.8831 235.627 37.544 235.508 38.205C235.251 39.0904 234.84 39.8366 234.424 40.4373C234.007 41.038 233.498 41.2054 232.901 41.0122C232.45 40.8127 232.147 40.607 232.061 40.3191C231.901 40.0344 231.883 39.598 231.931 39.0129C231.977 38.3551 232.026 37.77 231.998 37.1153C231.97 36.4606 231.946 35.8787 231.85 35.3726C231.755 34.8666 231.66 34.3605 231.571 33.9999C231.479 33.5666 231.393 33.2787 231.313 33.1364L228.509 26.1139C227.85 26.2148 227.265 26.3126 226.606 26.4135C226.011 26.293 225.352 26.3939 224.694 26.4948Z" fill="#00A99D"/>
<path d="M262.02 15.2885C261.3 15.6835 260.583 16.1513 259.866 16.619C259.149 17.0867 258.361 17.6303 257.65 18.2435C256.94 18.8567 256.232 19.5427 255.527 20.3014C254.896 21.057 254.274 22.0308 253.806 23.1438C253.059 24.633 252.609 26.1825 252.382 27.7954C252.153 29.3355 252.071 30.8693 252.062 32.4C252.093 33.1275 251.977 33.8611 251.637 34.5315C251.3 35.2745 250.874 35.657 250.286 35.682C249.55 35.7133 248.946 35.3746 248.398 34.5963C247.849 33.818 247.597 33.1 247.349 32.4547C246.569 29.7186 245.863 26.9794 245.307 24.3067C244.752 21.634 244.266 18.8854 243.858 16.2064C243.833 15.6245 243.968 15.3273 244.326 15.0934C244.688 14.9323 245.052 14.8439 245.497 14.8979C245.941 14.9519 246.459 15.0027 246.91 15.2022C247.36 15.4016 247.594 15.6832 247.686 16.1166C247.895 17.5652 248.18 19.0834 248.469 20.6743C248.758 22.2653 249.034 23.5653 249.378 24.7166C249.469 23.401 249.855 22.0729 250.538 20.805C251.221 19.5371 252.054 18.3357 253.04 17.2735C254.027 16.2113 255.167 15.2884 256.46 14.5047C257.753 13.721 259.058 13.2282 260.447 12.9506C261.032 12.8528 261.547 12.8309 261.918 12.888C262.289 12.9451 262.589 13.0781 262.746 13.2901C262.902 13.5021 262.988 13.7899 262.859 14.2326C262.798 14.5267 262.446 14.9061 262.02 15.2885Z" fill="#00A99D"/>
<path d="M279.149 14.3417C280.345 14.7281 281.402 15.339 282.249 16.1775C283.095 17.016 283.724 17.9366 284.211 19.009C284.699 20.0814 284.966 21.1632 285.089 22.3239C285.212 23.4847 285.108 24.5093 284.857 25.5402C284.462 26.6501 283.994 27.7632 283.302 28.8128C282.686 29.9321 281.914 30.8394 281.142 31.7467C280.293 32.5844 279.365 33.2798 278.283 33.8359C277.202 34.392 275.96 34.6634 274.636 34.7196C273.018 34.7884 271.605 34.4841 270.471 33.8036C269.337 33.1231 268.414 32.215 267.773 31.0034C267.061 29.8676 266.638 28.5739 266.352 27.0557C266.143 25.6071 266.078 24.0795 266.237 22.6153C266.338 21.5179 266.586 20.4142 266.91 19.3802C267.234 18.3462 267.709 17.3786 268.264 16.5534C268.818 15.7282 269.452 15.0454 270.24 14.5018C270.954 13.9613 271.827 13.7056 272.857 13.6618C273.445 13.6368 274.11 13.6814 274.929 13.8652C275.747 14.049 276.569 14.3056 277.249 14.7139C277.816 14.1797 278.401 14.082 279.149 14.3417ZM277.125 18.7273C276.671 18.4551 276.141 18.1133 275.534 17.7018C274.927 17.2904 274.403 17.094 273.962 17.1128C273.52 17.1316 273.015 17.3717 272.592 17.8269C272.169 18.2821 271.749 18.8101 271.48 19.4045C271.137 20.0021 270.941 20.5934 270.671 21.1879C270.475 21.7792 270.35 22.2947 270.289 22.5887C270.166 23.1769 270.124 23.9075 270.158 24.7077C270.118 25.511 270.226 26.308 270.407 27.1019C270.588 27.8958 270.913 28.6108 271.456 29.2435C271.925 29.8795 272.606 30.2878 273.574 30.5381C274.169 30.6586 274.757 30.6335 275.56 30.4537C276.29 30.2769 277.01 29.8819 277.727 29.4142C278.444 28.9465 279.078 28.2636 279.706 27.4353C280.334 26.607 280.812 25.7122 281.136 24.6782C281.455 23.4987 281.479 22.3317 280.985 21.1138C280.564 19.8928 279.792 19.0512 278.59 18.5193C278.305 18.75 278.014 18.8352 277.793 18.8446C277.499 18.8571 277.275 18.7938 277.125 18.7273Z" fill="#00A99D"/>
<path d="M293.117 15.2783C293.218 15.9298 293.249 16.6572 293.436 17.5966C293.55 18.5392 293.737 19.4786 293.854 20.4938C294.045 21.506 294.158 22.4485 294.349 23.4607C294.536 24.4001 294.723 25.3395 294.831 26.1365C295.235 25.2448 295.707 24.2045 296.313 22.867C296.923 21.6023 297.532 20.3375 298.145 19.1455C298.757 17.9534 299.453 16.9765 300.154 16.1451C300.856 15.3136 301.499 14.849 302.088 14.824C302.75 14.7959 303.35 15.0618 303.893 15.6946C304.433 16.2547 304.979 16.9602 305.383 17.8175C305.788 18.6748 306.193 19.532 306.531 20.5379C306.865 21.4711 307.123 22.3346 307.375 23.0526C307.5 22.5372 307.696 21.9459 307.889 21.2818C308.082 20.6177 308.348 19.9505 308.614 19.2834C308.881 18.6162 309.218 17.8731 309.558 17.2028C309.898 16.5325 310.314 15.9318 310.734 15.4038C311.224 14.8 311.797 14.4112 312.373 14.0952C312.952 13.852 313.387 13.6878 313.682 13.6752C314.049 13.6596 314.494 13.7136 314.945 13.9131C315.469 14.1094 315.996 14.3785 316.526 14.7203C317.057 15.0621 317.59 15.4767 318.05 15.8944C318.513 16.3848 318.902 16.8784 319.218 17.3751C319.853 18.4412 320.341 19.5136 320.691 20.8104C321.111 22.0314 321.384 23.2587 321.578 24.3435C321.775 25.5012 321.962 26.4406 322.002 27.3862C322.113 28.256 322.14 28.9107 322.226 29.1985C322.248 29.7077 322.19 30.0746 322.129 30.3687C321.994 30.6659 321.78 30.8208 321.492 30.9788C321.059 31.2157 320.695 31.3041 320.397 31.2439C320.1 31.1837 319.8 31.0507 319.646 30.9114C319.416 30.7026 319.26 30.4906 319.177 30.2755C319.021 30.0636 318.935 29.7757 318.929 29.6302C318.745 28.7636 318.631 27.821 318.443 26.8816C318.256 25.9422 318.072 25.0756 317.885 24.1362C317.7 23.2695 317.446 22.4787 317.191 21.688C316.939 20.9699 316.688 20.2519 316.442 19.6793C316.363 19.5369 316.206 19.325 316.05 19.113C315.893 18.901 315.66 18.6194 315.43 18.4106C315.201 18.2017 314.971 17.9929 314.817 17.8537C314.59 17.7176 314.44 17.6511 314.364 17.5815C313.996 17.5971 313.57 17.9796 313.159 18.7258C312.749 19.4719 312.345 20.3636 312.02 21.3977C311.696 22.4317 311.374 23.5385 311.053 24.6452C310.732 25.752 310.551 26.707 310.438 27.5135C310.481 28.5319 310.292 29.2687 309.946 29.7935C309.599 30.3183 309.167 30.5553 308.726 30.5741C308.285 30.5929 307.837 30.4661 307.307 30.1243C306.776 29.7825 306.467 29.4313 306.301 29.0011C306.053 28.3558 305.73 27.7136 305.476 26.9228C305.148 26.1352 304.819 25.3475 304.491 24.5598C304.163 23.7722 303.835 22.9845 303.506 22.1969C303.178 21.4092 302.856 20.767 302.534 20.1248C301.976 20.8773 301.499 21.7721 301.021 22.6669C300.543 23.5617 300.068 24.5292 299.594 25.4968C299.119 26.4643 298.718 27.4287 298.314 28.3204C297.912 29.2848 297.505 30.1038 297.165 30.7741C296.89 31.223 296.611 31.5993 296.332 31.9755C296.053 32.3517 295.692 32.5128 295.25 32.5316C294.956 32.5441 294.582 32.4143 294.202 32.1389C293.822 31.8636 293.512 31.5124 293.126 31.0916C292.813 30.6676 292.497 30.1709 292.181 29.6742C291.862 29.1048 291.693 28.6019 291.522 28.0262C291.156 26.3656 290.782 24.4868 290.477 22.5321C290.17 20.5047 289.866 18.55 289.639 16.665C289.537 16.0134 289.656 15.3525 289.855 14.8339C290.051 14.2426 290.477 13.8601 291.056 13.6169C291.712 13.4432 292.233 13.5668 292.613 13.8422C292.773 14.1269 293.015 14.6267 293.117 15.2783Z" fill="#00A99D"/>
<path d="M356.659 15.7833C357.391 15.6793 358.136 15.8663 358.961 16.1956C359.712 16.528 360.107 17.1671 360.141 17.9672C360.095 18.625 359.746 19.0771 359.09 19.2508C358.435 19.4244 357.926 19.5918 357.558 19.6074C356.749 19.6418 355.94 19.6762 354.987 19.7896C354.107 19.8999 353.151 19.9405 352.198 20.0539C352.18 21.3664 352.156 22.5334 352.132 23.7004C352.108 24.8674 352.148 25.8131 352.114 26.7619C352.078 27.6379 352.109 28.3653 352.131 28.8745C352.155 29.4565 352.168 29.7474 352.241 29.7443C353.118 29.5613 354.062 29.2297 355.002 28.8253C356.017 28.4178 356.954 27.9407 357.966 27.4605C358.977 26.9802 359.911 26.4304 360.849 25.9533C361.784 25.4034 362.721 24.9263 363.586 24.4523C363.944 24.2185 364.312 24.2028 364.683 24.2599C365.054 24.3171 365.21 24.529 365.293 24.7441C365.385 25.1775 365.333 25.6898 365.214 26.3507C365.021 27.0148 364.675 27.5396 364.182 28.0707C363.612 28.5322 362.827 29.1485 361.896 29.7711C360.964 30.3937 359.959 31.0194 358.881 31.6483C357.802 32.2771 356.717 32.7605 355.559 33.247C354.474 33.7303 353.453 33.9923 352.574 34.1026C351.256 34.3044 350.284 33.9813 349.585 33.1366C348.889 32.3645 348.475 31.289 348.349 30.0555C348.223 28.822 348.161 27.3672 348.163 25.691C348.166 24.0148 348.165 22.2658 348.161 20.4441C347.429 20.5481 346.696 20.6522 346.038 20.753C345.379 20.8539 344.72 20.9548 344.061 21.0557C343.546 21.0776 342.951 20.9571 342.353 20.7639C341.756 20.5707 341.369 20.1499 341.338 19.4225C341.329 19.2042 341.387 18.8374 341.593 18.4643C341.798 18.0912 342.227 17.7815 342.879 17.5351C344.485 17.1753 346.315 16.8789 348.218 16.5794C348.288 14.7546 348.284 12.9329 348.434 11.2504C348.507 9.49833 348.589 7.96449 348.674 6.50338C348.729 6.0638 348.784 5.62421 349.063 5.24799C349.268 4.8749 349.556 4.7169 349.777 4.70752C350.436 4.60663 351.107 4.79672 351.711 5.13541C352.315 5.47411 352.701 5.89493 352.72 6.33139C352.628 7.64701 352.546 9.18086 352.47 10.8602C352.394 12.5395 352.321 14.2916 352.322 16.0406C353.128 15.9334 353.86 15.8294 354.596 15.7981C355.264 15.9155 356 15.8842 356.659 15.7833Z" fill="#00A99D"/>
<path d="M371.081 4.89494C371.121 5.84059 371.165 6.85899 371.217 8.09561C371.267 9.25949 371.319 10.4961 371.372 11.7327C371.424 12.9694 371.554 14.2756 371.609 15.585C371.665 16.8943 371.794 18.2006 371.844 19.3645C372.177 18.5487 372.661 17.7993 373.142 16.9773C373.7 16.2248 374.257 15.4724 374.895 14.8623C375.532 14.2522 376.246 13.7118 377.042 13.3864C377.763 12.9914 378.639 12.8084 379.522 12.7709C380.478 12.7302 381.373 12.9837 382.21 13.6039C382.973 14.2274 383.743 14.9963 384.301 15.9928C384.933 16.9861 385.424 18.1313 385.921 19.4219C386.341 20.6429 386.765 21.9366 387.041 23.2366C387.317 24.5366 387.591 25.7638 387.79 26.9942C387.987 28.1518 388.107 29.2398 388.214 30.0368C388.242 30.6915 388.117 31.207 387.838 31.5832C387.559 31.9594 387.201 32.1933 386.759 32.2121C386.465 32.2246 386.014 32.0251 385.558 31.6801C385.101 31.3352 384.708 30.7689 384.536 30.1932C384.371 29.763 384.266 29.0387 384.082 28.172C383.898 27.3054 383.707 26.2932 383.517 25.2811C383.327 24.269 383.06 23.1872 382.796 22.1782C382.529 21.0964 382.194 20.1633 381.792 19.3788C381.387 18.5215 380.992 17.8824 380.458 17.4679C379.998 17.0502 379.401 16.857 378.745 17.0306C377.798 17.2895 376.943 17.9817 376.257 19.1768C375.571 20.372 374.965 21.7095 374.515 23.259C374.062 24.7357 373.685 26.2821 373.382 27.8253C373.079 29.3685 372.911 30.6145 372.804 31.5665C372.688 32.3001 372.486 32.746 372.278 33.0463C371.996 33.3498 371.778 33.4319 371.411 33.4476C371.116 33.4601 370.816 33.3271 370.509 33.0486C370.276 32.767 369.964 32.3431 369.724 31.916C369.485 31.4889 369.243 30.9891 369.077 30.5589C368.908 30.056 368.743 29.6258 368.73 29.3348C368.42 27.2347 368.186 25.2041 368.029 23.2432C367.799 21.2854 367.645 19.3972 367.488 17.4363C367.331 15.4754 367.247 13.5113 367.157 11.4018C367.068 9.29225 367.052 7.17959 367.023 4.77596C366.94 2.81191 367.638 1.90772 369.045 2.06654C369.489 2.12052 369.946 2.46547 370.339 3.03177C370.878 3.59182 371.053 4.24025 371.081 4.89494Z" fill="#00A99D"/>
<path d="M406.319 15.6397C404.812 16.5783 403.151 17.3776 401.407 17.9619C399.664 18.5461 397.76 18.8457 395.701 18.9332C395.833 20.3122 396.247 21.3877 397.017 22.1566C397.786 22.9255 398.691 23.3972 399.727 23.4989C400.392 23.5435 400.98 23.5185 401.636 23.3448C402.292 23.1712 402.874 23.0007 403.45 22.6847C404.029 22.4415 404.532 22.1286 404.958 21.7461C405.387 21.4364 405.813 21.0539 406.168 20.7473C406.524 20.4407 406.882 20.2069 407.247 20.1185C407.611 20.0301 407.906 20.0176 408.129 20.081C408.727 20.2742 408.899 20.8499 408.792 21.8018C408.183 23.0665 407.346 24.1952 406.207 25.1181C405.067 26.0411 403.767 26.6793 402.306 26.9601C401.064 27.2315 399.737 27.215 398.401 26.9803C397.061 26.6729 395.783 26.0714 394.71 25.0968C393.79 24.2614 393.008 23.2015 392.514 21.9837C392.02 20.7658 391.674 19.5417 391.471 18.2386C391.271 17.0082 391.369 15.8381 391.617 14.7344C391.938 13.6276 392.413 12.6601 393.038 11.759C393.736 10.8549 394.591 10.1627 395.596 9.53693C396.675 8.90808 397.839 8.56708 399.307 8.4318C400.993 8.21439 402.553 8.51243 403.982 9.18044C405.41 9.84845 406.41 10.8262 407.057 12.1833C407.382 12.8982 407.557 13.5466 407.434 14.1348C407.383 14.6472 406.963 15.1751 406.319 15.6397ZM399.382 11.9266C399.017 12.0149 398.582 12.1792 398.15 12.4162C397.718 12.6532 397.286 12.8902 396.931 13.1968C396.575 13.5034 396.223 13.8827 395.944 14.2589C395.665 14.6352 395.537 15.0779 395.482 15.5175C396.144 15.4893 396.876 15.3853 397.682 15.2782C398.485 15.0983 399.288 14.9184 400.018 14.7416C400.747 14.5649 401.473 14.3154 402.126 14.069C402.779 13.8226 403.281 13.5098 403.713 13.2728C403.388 12.5579 402.778 12.0737 401.889 11.9657C401.068 11.7092 400.185 11.7467 399.382 11.9266Z" fill="#00A99D"/>
<path d="M441.372 6.42486C441.529 6.63683 441.612 6.85193 441.698 7.13977C441.71 7.43074 441.719 7.64897 441.581 7.87346C441.379 8.31929 441.091 8.47729 440.57 8.35369C439.752 8.16986 438.866 8.13465 437.986 8.24491C437.107 8.35518 436.163 8.6868 435.311 9.45175C434.456 10.144 433.761 11.1209 433.302 12.4521C432.839 13.7107 432.678 15.1022 432.733 16.4115C432.789 17.7209 433.133 18.8723 433.835 19.7898C434.537 20.7073 435.377 21.4003 436.425 21.793C437.1 22.0558 437.768 22.1732 438.577 22.1388C439.389 22.1771 440.195 22.07 441.001 21.9628C441.807 21.8557 442.61 21.6758 443.41 21.4232C444.21 21.1705 444.936 20.921 445.66 20.5988C445.877 20.5167 446.098 20.5073 446.325 20.6434C446.552 20.7795 446.705 20.9187 446.785 21.0611C447.027 21.5609 446.901 22.0764 446.555 22.6012C446.136 23.1292 445.492 23.5938 444.702 24.0646C443.908 24.4627 443.041 24.864 442.167 25.1197C441.294 25.3755 440.27 25.5647 439.24 25.6085C438.284 25.6492 437.325 25.6171 436.433 25.4364C435.17 25.1986 434.119 24.7331 433.285 24.1856C432.377 23.6412 431.684 22.9419 431.062 22.1667C430.439 21.3916 430.035 20.5343 429.703 19.6739C429.369 18.7408 429.181 17.8014 429.141 16.8557C428.969 14.5311 429.32 12.4028 430.27 10.4677C431.219 8.53261 432.558 7.09108 434.36 6.13999C435.656 5.42902 437.041 5.07864 438.371 5.16783C439.625 5.18741 440.676 5.65283 441.372 6.42486Z" fill="#00A99D"/>
<path d="M467.12 12.3262C467.283 12.6836 467.154 13.1263 466.728 13.5088C466.302 13.8913 465.502 14.1439 464.479 14.3332C462.723 14.6265 460.896 14.9956 459.067 15.292C457.24 15.6612 455.337 15.9607 453.437 16.333C453.447 18.3002 453.533 20.3369 453.69 22.2979C454.573 22.2603 455.673 22.1407 456.988 21.8662C458.232 21.6675 459.544 21.3203 460.932 21.0426C462.244 20.6954 463.556 20.3481 464.794 20.004C466.032 19.6599 467.052 19.3978 467.926 19.1421C468.361 18.9778 468.799 18.8863 469.311 18.7917C469.749 18.7002 470.19 18.6814 470.561 18.7385C470.932 18.7957 471.233 18.9286 471.536 19.1343C471.766 19.3432 471.929 19.7007 471.947 20.1371C471.953 20.2826 471.812 20.4343 471.527 20.6651C471.243 20.8958 470.961 21.1993 470.529 21.4363C470.1 21.746 469.668 21.983 469.236 22.22C468.803 22.457 468.368 22.6212 468.007 22.7823C465.613 23.6857 463.214 24.4436 460.885 25.1256C458.556 25.8076 456.214 26.1986 454.011 26.3652C452.69 26.4942 451.718 26.1712 451.025 25.4719C450.332 24.7726 449.921 23.7698 449.789 22.3909C449.635 20.5027 449.551 18.5386 449.541 16.5715C448.864 16.2359 448.471 15.6696 448.44 14.9422C448.483 14.2116 448.829 13.6868 449.479 13.3677C449.503 12.2006 449.53 11.1064 449.48 9.9425C449.505 8.77549 449.455 7.61161 449.482 6.51734C449.038 6.46336 448.661 6.26077 448.278 5.91269C447.894 5.56461 447.732 5.20715 447.713 4.7707C447.698 4.40698 447.759 4.11289 447.894 3.81566C448.028 3.51844 448.313 3.2877 448.749 3.12345C449.478 2.9467 450.351 2.69094 451.375 2.50168C452.395 2.23967 453.419 2.05041 454.516 1.85801C455.613 1.66562 456.637 1.47636 457.661 1.28709C458.684 1.09783 459.49 0.990686 460.226 0.959415C461.032 0.852274 461.844 0.890619 462.662 1.07445C463.481 1.25828 464.161 1.66659 464.854 2.36587C465.026 2.94156 464.968 3.3084 464.613 3.615C464.257 3.92161 463.749 4.08899 463.163 4.18675C462.578 4.2845 461.845 4.38852 461.042 4.5684C460.236 4.67554 459.36 4.85855 458.48 4.96882C457.604 5.15183 456.724 5.2621 455.845 5.37237C454.965 5.48264 454.089 5.66565 453.356 5.76966C453.359 5.8424 453.362 5.91515 453.368 6.06063C453.371 6.13337 453.378 6.27886 453.381 6.3516C453.351 7.37313 453.32 8.39465 453.364 9.41304C453.333 10.4346 453.377 11.453 453.346 12.4745C455.026 12.1116 456.708 11.8214 458.391 11.5313C460.147 11.238 461.465 11.0362 462.491 10.9197C463.298 10.8126 464.11 10.8509 464.931 11.1075C465.747 11.2186 466.501 11.6238 467.12 12.3262Z" fill="#00A99D"/>
<path d="M495.088 13.2505C494.913 14.351 494.515 15.3882 493.97 16.4316C493.425 17.475 492.727 18.3792 491.955 19.2865C491.183 20.1938 490.404 20.9556 489.476 21.651C488.548 22.3463 487.683 22.8203 486.743 23.2247C485.005 23.9544 483.319 24.1718 481.545 24.0286C479.844 23.8823 478.265 23.1478 476.812 21.8979C475.883 20.8443 475.168 19.6358 474.742 18.2693C474.315 16.9028 474.036 15.5301 474.047 14.0721C473.985 12.6173 474.147 11.2258 474.46 9.90078C474.772 8.57578 475.234 7.31727 475.779 6.27385C476.462 5.00596 477.228 3.95316 478.221 3.03647C479.143 2.19565 480.225 1.63954 481.395 1.44402C481.686 1.35877 481.984 1.41901 482.14 1.63098C482.37 1.83983 482.456 2.12767 482.468 2.41864C482.821 2.03929 483.47 1.72018 484.27 1.46755C485.07 1.21493 486.026 1.17427 487.062 1.27598C488.984 1.4129 490.48 1.9323 491.62 2.7583C492.761 3.58431 493.616 4.64105 494.181 5.78304C494.745 6.92503 495.095 8.22189 495.151 9.53126C495.363 11.0526 495.339 12.2196 495.088 13.2505ZM481.872 5.72333C481.078 6.12144 480.438 6.65878 479.951 7.33536C479.464 8.01193 479.056 8.83086 478.726 9.71941C478.395 10.608 478.215 11.563 478.181 12.5118C478.151 13.5333 478.191 14.4789 478.305 15.4215C478.511 16.7973 478.925 17.8728 479.698 18.7145C480.47 19.5561 481.592 19.9457 483.063 19.8831C483.946 19.8456 484.823 19.6626 485.616 19.2645C486.484 18.8632 487.201 18.3955 487.914 17.855C488.625 17.2418 489.259 16.559 489.817 15.8066C490.375 15.0541 490.855 14.2321 491.113 13.3466C491.315 12.9008 491.44 12.3853 491.486 11.7275C491.605 11.0666 491.577 10.4119 491.549 9.75723C491.448 9.10567 491.273 8.45725 491.025 7.81194C490.703 7.16977 490.24 6.67933 489.633 6.26789C488.799 5.72035 487.753 5.40042 486.644 5.30184C485.461 5.20639 484.296 5.54739 483.071 6.18249C482.856 6.33736 482.565 6.42261 482.264 6.28964C481.9 6.37802 481.814 6.09017 481.872 5.72333Z" fill="#00A99D"/>
<path d="M4.99252 46.5474C4.79968 47.2114 4.60375 47.8028 4.33426 48.3972C4.06168 48.9189 3.70627 49.2255 3.34467 49.3866C2.61838 49.6361 2.02374 49.5157 1.6374 49.0948C1.25106 48.674 1.00874 48.1742 1.12493 47.4405C1.3202 45.1003 1.72995 42.6051 2.35419 39.9551C2.97843 37.3051 3.67622 34.652 4.52422 32.0653C5.36913 29.4059 6.29378 26.8889 7.29199 24.3688C8.2902 21.8486 9.37433 19.6163 10.4647 17.5295C10.673 17.2291 10.8843 17.0015 11.1019 16.9194C11.3195 16.8373 11.6137 16.8248 11.7639 16.8912C11.9784 16.7364 12.1929 16.5815 12.4809 16.4235C12.7016 16.4141 12.9928 16.3289 13.287 16.3164C13.4341 16.3101 13.5077 16.307 13.6579 16.3735C13.8081 16.44 13.9583 16.5065 14.1147 16.7184C14.2711 16.9304 14.5041 17.212 14.7402 17.5663C14.9764 17.9207 15.2953 18.4901 15.6174 19.1323C16.2893 21.0713 16.9675 23.1558 17.7927 25.2341C18.618 27.3123 19.4432 29.3906 20.342 31.4657C20.4861 31.3867 20.5596 31.3836 20.6332 31.3805C20.7067 31.3774 20.8507 31.2984 20.9243 31.2952C21.3626 31.2037 21.8805 31.2546 22.3985 31.3054C22.9901 31.3532 23.3702 31.6285 23.5359 32.0587C23.7813 32.6313 23.803 33.1405 23.4537 33.5926C23.1781 34.0415 22.6082 34.503 21.8176 34.9738C22.3851 36.1886 22.9525 37.4033 23.5169 38.5453C24.0813 39.6873 24.6457 40.8293 25.2836 41.9682C25.3664 42.1833 25.3788 42.4742 25.4709 42.9076C25.563 43.3409 25.652 43.7015 25.6706 44.1379C25.6892 44.5744 25.7046 44.9381 25.6465 45.3049C25.5884 45.6718 25.4506 45.8963 25.2361 46.0511C24.9481 46.2091 24.6507 46.1489 24.3503 46.0159C24.0499 45.8829 23.7464 45.6772 23.4429 45.4715C23.1394 45.2658 22.9064 44.9842 22.6733 44.7026C22.4403 44.421 22.2808 44.1363 22.1244 43.9243C21.4067 42.6431 20.6891 41.3619 20.0449 40.0775C19.4008 38.7932 18.7567 37.5088 18.1126 36.2245C16.4331 36.5874 14.6801 36.9534 12.7034 37.256C10.7266 37.5587 8.82034 37.7855 6.91096 37.9395C6.53147 39.4132 6.15198 40.8868 5.84604 42.3573C5.60748 43.6791 5.30155 45.1496 4.99252 46.5474ZM12.4063 21.6007C10.7375 25.6798 9.36594 29.819 8.13845 33.8793C10.7834 33.694 13.5631 33.2114 16.5542 32.5013C15.0051 28.9963 13.5969 25.3396 12.4063 21.6007Z" stroke="#00A99D" stroke-width="0.75" stroke-miterlimit="10"/>
<path d="M49.0551 25.654C49.1565 26.3056 49.1874 27.033 49.3747 27.9724C49.4885 28.915 49.6758 29.8544 49.7927 30.8696C49.9831 31.8818 50.0968 32.8243 50.2872 33.8364C50.4746 34.7758 50.6619 35.7152 50.7694 36.5123C51.1737 35.6206 51.6453 34.5803 52.2516 33.2428C52.8611 31.978 53.4705 30.7133 54.083 29.5212C54.6956 28.3292 55.3909 27.3523 56.0925 26.5208C56.794 25.6894 57.4375 25.2248 58.0259 25.1998C58.688 25.1716 59.2888 25.4376 59.8315 26.0704C60.3711 26.6304 60.917 27.336 61.3219 28.1933C61.7268 29.0505 62.1317 29.9078 62.4692 30.9137C62.8036 31.8468 63.0614 32.7104 63.313 33.4284C63.4384 32.913 63.6344 32.3216 63.8272 31.6576C64.0201 30.9935 64.2864 30.3263 64.5528 29.6591C64.8192 28.9919 65.1561 28.2489 65.496 27.5786C65.836 26.9082 66.2526 26.3075 66.6723 25.7796C67.1625 25.1757 67.7354 24.787 68.3115 24.471C68.8907 24.2278 69.3259 24.0635 69.6201 24.051C69.9879 24.0354 70.4323 24.0894 70.8829 24.2888C71.4071 24.4852 71.9344 24.7543 72.4647 25.0961C72.9951 25.4379 73.5285 25.8525 73.9884 26.2702C74.4514 26.7606 74.8409 27.2542 75.1567 27.7508C75.7916 28.817 76.2793 29.8893 76.6292 31.1862C77.0496 32.4072 77.3228 33.6344 77.5163 34.7193C77.7129 35.8769 77.9002 36.8163 77.9404 37.762C78.0511 38.6318 78.0789 39.2865 78.1648 39.5743C78.1865 40.0835 78.1284 40.4504 78.0672 40.7444C77.9325 41.0417 77.718 41.1965 77.4299 41.3545C76.9979 41.5915 76.6332 41.6799 76.3359 41.6197C76.0385 41.5594 75.7381 41.4265 75.5848 41.2872C75.3549 41.0784 75.1985 40.8664 75.1157 40.6513C74.9593 40.4393 74.8733 40.1515 74.8671 40.006C74.6829 39.1393 74.5692 38.1968 74.3819 37.2574C74.1945 36.318 74.0103 35.4514 73.823 34.512C73.6388 33.6453 73.3841 32.8545 73.1294 32.0637C72.8778 31.3457 72.6262 30.6276 72.3808 30.0551C72.301 29.9127 72.1447 29.7008 71.9883 29.4888C71.8319 29.2768 71.5988 28.9952 71.3689 28.7864C71.1389 28.5775 70.909 28.3687 70.7557 28.2294C70.5288 28.0933 70.3786 28.0269 70.302 27.9572C69.9342 27.9729 69.5083 28.3553 69.0979 29.1015C68.6875 29.8477 68.2833 30.7394 67.9588 31.7734C67.6343 32.8075 67.3129 33.9142 66.9915 35.021C66.6701 36.1278 66.4896 37.0828 66.3765 37.8892C66.4198 38.9076 66.2301 39.6445 65.8839 40.1693C65.5378 40.6941 65.1057 40.9311 64.6644 40.9499C64.2231 40.9686 63.6253 40.7754 63.0981 40.5063C62.5677 40.1645 62.258 39.8133 62.0923 39.3831C61.8438 38.7378 61.5218 38.0956 61.2671 37.3049C60.9388 36.5172 60.6106 35.7295 60.2824 34.9419C59.9541 34.1542 59.6259 33.3665 59.2976 32.5789C58.9694 31.7912 58.6473 31.1491 58.3252 30.5069C57.7677 31.2593 57.2899 32.1541 56.8121 33.0489C56.3344 33.9437 55.8597 34.9113 55.385 35.8788C54.9103 36.8464 54.5091 37.8108 54.1049 38.7024C53.7038 39.6669 53.2964 40.4858 52.9565 41.1561C52.6808 41.6051 52.4021 41.9813 52.1233 42.3575C51.8445 42.7337 51.4829 42.8949 51.0416 42.9136C50.7474 42.9261 50.3734 42.7963 49.9932 42.521C49.6131 42.2456 49.3034 41.8944 48.917 41.4736C48.6043 41.0496 48.2884 40.553 47.9725 40.0563C47.6535 39.4868 47.4848 38.9839 47.3129 38.4082C46.9476 36.7476 46.5729 34.8688 46.2688 32.9142C45.9615 30.8867 45.6573 28.9321 45.4298 27.047C45.3284 26.3955 45.4477 25.7345 45.6467 25.216C45.8427 24.6246 46.2686 24.2422 46.8477 23.9989C47.5036 23.8253 48.0246 23.9489 48.4048 24.2242C48.7114 24.5027 48.9537 25.0025 49.0551 25.654Z" stroke="#00A99D" stroke-width="0.75" stroke-miterlimit="10"/>
<path d="M96.9394 28.7924C95.4319 29.731 93.771 30.5303 92.0273 31.1145C90.2835 31.6988 88.3803 31.9983 86.3207 32.0859C86.4531 33.4649 86.8672 34.5404 87.6368 35.3093C88.4064 36.0782 89.3107 36.5498 90.3467 36.6516C91.0118 36.6961 91.6003 36.6711 92.2561 36.4975C92.9119 36.3239 93.4942 36.1534 94.0703 35.8374C94.6495 35.5941 95.152 35.2813 95.5779 34.8988C96.0068 34.5891 96.4327 34.2066 96.7881 33.9C97.1435 33.5934 97.502 33.3595 97.8667 33.2711C98.2314 33.1828 98.5257 33.1703 98.7494 33.2336C99.3472 33.4268 99.519 34.0025 99.4121 34.9544C98.8027 36.2192 97.9664 37.3479 96.8266 38.2708C95.6868 39.1937 94.3875 39.832 92.9256 40.1127C91.6844 40.3841 90.3573 40.3677 89.0209 40.133C87.6814 39.8256 86.4031 39.224 85.33 38.2494C84.4103 37.414 83.6283 36.3542 83.1344 35.1363C82.6405 33.9185 82.2937 32.6943 82.0909 31.3912C81.8912 30.1609 81.9888 28.9907 82.2367 27.8871C82.5581 26.7803 83.0328 25.8128 83.6577 24.9117C84.3561 24.0075 85.211 23.3153 86.216 22.6896C87.2947 22.0607 88.4592 21.7197 89.9272 21.5844C91.6129 21.367 93.173 21.6651 94.6015 22.3331C96.03 23.0011 97.0296 23.9788 97.6768 25.3359C98.0019 26.0509 98.1769 26.6993 98.0545 27.2875C97.929 27.8029 97.5829 28.3278 96.9394 28.7924ZM89.9286 25.0823C89.5639 25.1707 89.1287 25.335 88.6966 25.572C88.2646 25.809 87.8325 26.0459 87.4771 26.3526C87.1217 26.6592 86.7694 27.0385 86.4906 27.4147C86.2118 27.7909 86.0833 28.2337 86.0283 28.6732C86.6903 28.6451 87.4228 28.5411 88.2288 28.4339C89.0317 28.2541 89.8347 28.0742 90.5641 27.8974C91.2934 27.7207 92.0197 27.4712 92.6725 27.2248C93.3252 26.9784 93.8277 26.6656 94.2598 26.4286C93.9347 25.7137 93.3245 25.2295 92.4357 25.1215C91.6877 24.8618 90.8051 24.8993 89.9286 25.0823Z" stroke="#00A99D" stroke-width="0.75" stroke-miterlimit="10"/>
<path d="M114.359 24.2624C114.267 23.8291 114.175 23.3957 114.085 23.0351C113.996 22.6746 113.763 22.393 113.466 22.3327C112.795 22.1426 112.059 22.1739 111.33 22.3507C110.6 22.5274 109.877 22.8497 109.301 23.1657C108.655 23.5575 108.155 23.9431 107.729 24.3256C107.303 24.7081 107.101 25.1539 107.04 25.448C106.918 26.0362 107.163 26.6088 107.553 27.1023C108.019 27.6655 108.702 28.1466 109.536 28.6941C110.968 29.4349 112.403 30.2484 113.984 31.0556C115.493 31.866 116.854 32.6826 117.921 33.5117C118.988 34.3408 119.766 35.328 120.181 36.4035C120.595 37.479 120.574 38.7187 120.041 40.0531C119.646 41.163 118.871 41.9976 117.722 42.7023C116.573 43.407 115.27 43.9725 113.888 44.3956C112.506 44.8188 111.047 45.1723 109.653 45.3044C108.261 45.5093 107.014 45.6352 106.058 45.6759C105.837 45.6853 105.54 45.625 105.163 45.4224C104.789 45.2926 104.485 45.0869 104.182 44.8812C103.878 44.6754 103.572 44.397 103.415 44.185C103.185 43.9762 103.099 43.6883 103.093 43.5428C103.062 42.8154 103.338 42.3664 103.988 42.0473C104.637 41.7282 105.22 41.5577 105.955 41.5264C106.911 41.4858 107.938 41.3693 109.038 41.2496C110.139 41.13 111.162 40.9407 112.109 40.6818C113.056 40.4229 114 40.0913 114.72 39.6963C115.514 39.2982 116.01 38.8399 116.353 38.2423C116.629 37.7933 116.383 37.2208 115.767 36.5911C115.151 35.9614 114.314 35.3412 113.253 34.6575C112.192 33.9739 111.061 33.3661 109.93 32.7583C108.725 32.1537 107.744 31.6124 106.837 31.068C106.003 30.5204 105.24 29.897 104.62 29.1946C104.001 28.4922 103.59 27.4894 103.396 26.4045C103.279 25.3893 103.46 24.4342 103.935 23.4667C104.336 22.5023 104.964 21.674 105.668 20.9153C106.373 20.1566 107.231 19.5371 108.242 19.0569C109.18 18.5798 110.2 18.3177 111.157 18.2771C112.852 18.2779 114.268 18.655 115.408 19.481C116.549 20.307 117.263 21.5154 117.552 23.1064C117.577 23.6883 117.522 24.1279 117.316 24.501C117.185 24.871 116.826 25.1048 116.388 25.1964C115.803 25.2941 115.358 25.2401 115.055 25.0344C114.607 24.9077 114.374 24.6261 114.359 24.2624Z" stroke="#00A99D" stroke-width="0.75" stroke-miterlimit="10"/>
<path d="M134.44 23.4087C134.348 22.9754 134.255 22.542 134.166 22.1814C134.077 21.8209 133.844 21.5393 133.547 21.479C132.876 21.2889 132.14 21.3202 131.411 21.497C130.681 21.6737 129.958 21.996 129.382 22.312C128.736 22.7038 128.236 23.0894 127.81 23.4719C127.384 23.8544 127.182 24.3002 127.121 24.5943C126.999 25.1825 127.244 25.7551 127.634 26.2486C128.1 26.8118 128.783 27.2929 129.617 27.8404C131.049 28.5812 132.483 29.3947 134.065 30.2019C135.574 31.0123 136.935 31.8289 138.002 32.658C139.068 33.4871 139.847 34.4743 140.261 35.5498C140.676 36.6253 140.655 37.865 140.122 39.1994C139.727 40.3093 138.952 41.1439 137.803 41.8486C136.654 42.5533 135.351 43.1188 133.969 43.5419C132.587 43.9651 131.128 44.3186 129.734 44.4507C128.342 44.6556 127.095 44.7815 126.139 44.8222C125.918 44.8316 125.621 44.7713 125.244 44.5687C124.87 44.4389 124.566 44.2332 124.263 44.0275C123.959 43.8217 123.653 43.5433 123.496 43.3313C123.266 43.1225 123.18 42.8346 123.174 42.6891C123.143 41.9617 123.419 41.5127 124.069 41.1936C124.718 40.8745 125.301 40.704 126.036 40.6727C126.992 40.6321 128.019 40.5156 129.119 40.3959C130.22 40.2763 131.243 40.087 132.19 39.8281C133.137 39.5692 134.081 39.2376 134.801 38.8426C135.595 38.4445 136.091 37.9862 136.434 37.3886C136.71 36.9396 136.464 36.3671 135.848 35.7374C135.232 35.1077 134.395 34.4875 133.334 33.8038C132.273 33.1202 131.142 32.5124 130.011 31.9046C128.806 31.3 127.825 30.7587 126.918 30.2143C126.084 29.6667 125.321 29.0433 124.701 28.3409C124.082 27.6385 123.671 26.6357 123.477 25.5508C123.36 24.5356 123.541 23.5805 124.016 22.613C124.417 21.6486 125.045 20.8203 125.749 20.0616C126.454 19.3029 127.312 18.6834 128.323 18.2032C129.261 17.7261 130.281 17.464 131.238 17.4234C132.933 17.4242 134.349 17.8013 135.489 18.6273C136.63 19.4533 137.344 20.6617 137.633 22.2527C137.658 22.8346 137.603 23.2742 137.397 23.6473C137.266 24.0173 136.907 24.2511 136.469 24.3426C135.884 24.4404 135.439 24.3864 135.136 24.1807C134.688 24.054 134.529 23.7693 134.44 23.4087Z" stroke="#00A99D" stroke-width="0.75" stroke-miterlimit="10"/>
<path d="M158.096 18.2492C158.289 19.3341 158.486 20.4917 158.612 21.7252C158.738 22.9587 158.864 24.1922 158.99 25.4257C159.117 26.6592 159.169 27.8958 159.219 29.0597C159.268 30.2236 159.314 31.3147 159.281 32.2635C160.569 33.0833 161.409 33.7763 161.657 34.4216C161.906 35.0669 162.004 35.6457 161.805 36.1643C161.615 36.9011 161.189 37.2836 160.601 37.3086C160.012 37.3336 159.268 37.1466 158.443 36.8173C157.87 37.2061 157.3 37.6675 156.583 38.1353C155.866 38.603 155.149 39.0707 154.359 39.5416C153.568 40.0124 152.774 40.4105 152.051 40.7328C151.254 41.0581 150.528 41.3076 149.872 41.4813C148.631 41.7527 147.442 41.5117 146.458 40.8977C145.4 40.2868 144.695 39.2965 144.271 38.0028C144.014 37.1393 143.9 36.1967 144.007 35.2448C144.114 34.2929 144.368 33.3348 144.772 32.4431C145.176 31.5514 145.804 30.7231 146.582 29.9613C147.36 29.1995 148.295 28.6496 149.38 28.1662C149.668 28.0082 150.033 27.9199 150.544 27.8252C151.056 27.7306 151.571 27.7087 152.086 27.6868C152.601 27.6649 153.196 27.7854 153.717 27.909C154.314 28.1022 154.842 28.3713 155.305 28.8617C155.277 28.207 155.246 27.4796 155.212 26.6794C155.178 25.8793 155.07 25.0822 155.036 24.2821C154.929 23.485 154.895 22.6849 154.79 21.9606C154.686 21.2363 154.587 20.6574 154.492 20.1514C154.394 19.5726 154.158 19.2182 153.784 19.0884C153.41 18.9585 152.972 19.05 152.389 19.2205C151.445 19.5522 150.37 20.2537 149.157 21.1798C147.943 22.1059 146.736 23.1774 145.676 24.2428C145.324 24.6221 144.962 24.7832 144.444 24.7324C144 24.6784 143.626 24.5485 143.246 24.2732C142.939 23.9947 142.703 23.6404 142.684 23.204C142.592 22.7706 142.794 22.3248 143.07 21.8758C143.701 21.1203 144.406 20.3616 145.257 19.5966C146.036 18.8348 146.89 18.1426 147.745 17.4504C148.603 16.8309 149.538 16.281 150.476 15.8039C151.416 15.3996 152.363 15.1407 153.316 15.0273C154.711 14.8951 155.756 15.2151 156.593 15.8354C157.43 16.4556 157.905 17.237 158.096 18.2492ZM151.793 31.1972C151.284 31.3646 150.779 31.6047 150.206 31.9935C149.633 32.3822 149.136 32.8405 148.72 33.4412C148.3 33.9692 147.957 34.5668 147.764 35.2308C147.571 35.8949 147.599 36.5496 147.845 37.1221C147.928 37.3372 148.084 37.5492 148.381 37.6095C148.608 37.7456 148.902 37.733 149.267 37.6447C150.214 37.3858 151.302 36.9752 152.454 36.3432C153.606 35.7112 154.538 35.0886 155.245 34.4027C155.236 34.1844 155.077 33.8997 154.837 33.4727C154.601 33.1183 154.292 32.7671 153.982 32.4159C153.672 32.0647 153.289 31.7166 152.912 31.514C152.458 31.2418 152.084 31.112 151.793 31.1972Z" stroke="#00A99D" stroke-width="0.75" stroke-miterlimit="10"/>
<path d="M175.617 23.0427C175.93 23.4667 176.245 23.9634 176.641 24.6024C176.963 25.2446 177.212 25.8899 177.387 26.5383C177.654 27.6201 177.994 28.6987 178.341 29.9228C178.688 31.147 179.038 32.4438 179.388 33.7407C179.738 35.0375 180.09 36.4071 180.37 37.7799C180.649 39.1526 180.999 40.4495 181.199 41.6798C181.494 43.4163 181.415 45.0229 181.041 46.642C180.595 48.2642 179.844 49.6807 178.793 50.9642C177.669 52.2509 176.315 53.3287 174.654 54.128C172.993 54.9274 171.099 55.4452 168.969 55.6086C168.525 55.5546 168 55.3583 167.47 55.0164C166.937 54.6019 166.7 54.2475 166.682 53.8111C166.59 53.3778 166.795 53.0047 167.227 52.7677C167.656 52.4579 168.165 52.2906 168.603 52.1991C169.409 52.0919 170.286 51.9089 171.156 51.5804C172.026 51.2519 172.896 50.9234 173.61 50.3829C174.401 49.9121 175.112 49.2989 175.672 48.6192C176.307 47.9364 176.787 47.1143 177.118 46.2257C177.381 45.4858 177.491 44.6067 177.448 43.5883C177.405 42.5699 177.288 41.5546 177.098 40.5424C176.907 39.5303 176.72 38.5909 176.459 37.6546C176.198 36.7184 175.95 36.0731 175.781 35.5701C175.499 35.8736 175.217 36.1771 174.788 36.4868C174.359 36.7965 173.93 37.1063 173.428 37.4191C172.925 37.732 172.346 37.9752 171.764 38.1457C171.181 38.3162 170.523 38.4171 169.931 38.3694C169.266 38.3248 168.595 38.1347 168.061 37.7202C167.454 37.3087 166.915 36.7487 166.445 36.1127C165.976 35.4768 165.574 34.6923 165.314 33.756C164.982 32.8956 164.868 31.9531 164.825 30.9347C164.8 28.6038 165.298 26.4692 166.398 24.6006C167.424 22.7352 169.204 21.2749 171.662 20.1502C171.879 20.068 172.1 20.0587 172.465 19.9703C172.83 19.8819 173.124 19.8694 173.495 19.9265C173.862 19.9109 174.233 19.968 174.531 20.0282C174.902 20.0853 175.128 20.2214 175.429 20.3544C175.882 20.6266 176.122 21.0537 176.15 21.7084C176.027 22.2966 175.899 22.7393 175.617 23.0427ZM168.528 31.3603C168.546 31.7967 168.641 32.3028 168.737 32.8089C168.832 33.3149 169.145 33.7389 169.522 33.9415C169.975 34.2137 170.564 34.1887 171.293 34.0119C171.946 33.7655 172.596 33.4464 173.162 32.9122C173.732 32.4507 174.078 31.9259 174.204 31.4105C174.329 30.895 174.298 30.1676 174.114 29.3009C173.856 28.4374 173.596 27.5011 173.332 26.4921C173.071 25.5558 172.883 24.6164 172.779 23.8921C172.347 24.1291 171.847 24.5147 171.278 24.9762C170.781 25.4345 170.288 25.9656 169.874 26.6391C169.461 27.3125 169.124 28.0556 168.861 28.7955C168.601 29.6082 168.491 30.4874 168.528 31.3603Z" stroke="#00A99D" stroke-width="0.75" stroke-miterlimit="10"/>
<path d="M199.404 24.4363C197.897 25.3749 196.236 26.1742 194.492 26.7585C192.748 27.3427 190.845 27.6423 188.785 27.7298C188.918 29.1088 189.332 30.1843 190.102 30.9532C190.871 31.7221 191.775 32.1938 192.811 32.2955C193.477 32.3401 194.065 32.3151 194.721 32.1414C195.377 31.9678 195.959 31.7973 196.535 31.4813C197.114 31.2381 197.617 30.9252 198.043 30.5427C198.472 30.233 198.897 29.8505 199.253 29.5439C199.608 29.2373 199.967 29.0034 200.331 28.9151C200.696 28.8267 200.99 28.8142 201.214 28.8775C201.812 29.0707 201.984 29.6464 201.877 30.5983C201.267 31.8631 200.431 32.9918 199.291 33.9147C198.151 34.8377 196.852 35.4759 195.39 35.7567C194.149 36.0281 192.822 36.0116 191.486 35.7769C190.146 35.4695 188.868 34.868 187.795 33.8934C186.875 33.058 186.093 31.9981 185.599 30.7802C185.105 29.5624 184.758 28.3383 184.556 27.0351C184.356 25.8048 184.454 24.6346 184.701 23.531C185.023 22.4242 185.497 21.4567 186.122 20.5556C186.821 19.6514 187.676 18.9592 188.681 18.3335C189.759 17.7047 190.924 17.3637 192.392 17.2284C194.078 17.011 195.638 17.309 197.066 17.977C198.495 18.645 199.494 19.6228 200.141 20.9799C200.467 21.6948 200.642 22.3432 200.519 22.9314C200.467 23.4437 200.048 23.9717 199.404 24.4363ZM192.393 20.7263C192.029 20.8146 191.593 20.9789 191.161 21.2159C190.729 21.4529 190.297 21.6899 189.942 21.9965C189.586 22.3031 189.234 22.6824 188.955 23.0587C188.677 23.4349 188.548 23.8776 188.493 24.3172C189.155 24.289 189.887 24.185 190.694 24.0779C191.496 23.898 192.299 23.7181 193.029 23.5413C193.758 23.3646 194.484 23.1151 195.137 22.8687C195.79 22.6223 196.292 22.3095 196.725 22.0725C196.399 21.3576 195.789 20.8734 194.9 20.7654C194.152 20.5057 193.27 20.5433 192.393 20.7263Z" stroke="#00A99D" stroke-width="0.75" stroke-miterlimit="10"/>
<path d="M224.694 26.4948C224.108 26.5925 223.517 26.5448 222.775 26.4306C222.03 26.2436 221.497 25.8291 221.168 25.0414C221.006 24.6839 220.987 24.2475 221.045 23.8806C221.103 23.5138 221.532 23.2041 222.262 23.0273C222.991 22.8506 223.721 22.6738 224.523 22.4939C225.326 22.314 226.129 22.1341 226.935 22.027L224.45 15.574C223.683 13.1289 223.517 10.9497 223.954 9.10927C224.392 7.26882 225.811 5.96965 228.204 5.06628C229.148 4.73466 230.171 4.5454 231.131 4.57749C232.09 4.60958 233.059 4.8599 233.957 5.18608C234.858 5.58501 235.692 6.13256 236.382 6.7591C237.148 7.45525 237.697 8.23353 238.179 9.16042C238.344 9.59062 238.433 9.95121 238.522 10.3118C238.538 10.6755 238.477 10.9696 238.195 11.2731C237.842 11.6524 237.41 11.8894 236.892 11.8386C236.374 11.7877 236.074 11.6547 235.921 11.5155C235.534 11.0947 235.148 10.6739 234.688 10.2562C234.228 9.83848 233.768 9.42079 233.315 9.14858C232.858 8.80363 232.334 8.60729 231.813 8.4837C231.292 8.3601 230.7 8.31238 230.115 8.41014C229.824 8.49539 229.532 8.58064 229.177 8.88725C228.818 9.12111 228.466 9.50046 228.267 10.019C227.995 10.5407 227.872 11.1289 227.833 11.9322C227.793 12.7355 227.98 13.6749 228.324 14.8263C228.659 15.7594 228.999 16.8381 229.416 17.9863C229.834 19.1346 230.251 20.2828 230.745 21.5007C232.648 21.2011 234.34 21.1292 235.961 21.1332C236.847 21.1684 237.662 21.2795 238.407 21.4664C239.152 21.6534 239.829 21.989 240.292 22.4794C240.455 22.8369 240.397 23.2037 240.259 23.4282C240.124 23.7254 239.91 23.8803 239.625 24.111C239.337 24.269 238.975 24.4301 238.611 24.5185C238.246 24.6069 237.881 24.6952 237.513 24.7109C236.707 24.818 235.901 24.9252 235.025 25.1082C234.145 25.2184 233.269 25.4015 232.316 25.5149C233.052 27.2325 233.711 28.8806 234.294 30.459C234.877 32.0375 235.374 33.3281 235.712 34.334C235.884 34.9097 235.912 35.5644 235.866 36.2222C235.747 36.8831 235.627 37.544 235.508 38.205C235.251 39.0904 234.84 39.8366 234.424 40.4373C234.007 41.038 233.498 41.2054 232.901 41.0122C232.45 40.8127 232.147 40.607 232.061 40.3191C231.901 40.0344 231.883 39.598 231.931 39.0129C231.977 38.3551 232.026 37.77 231.998 37.1153C231.97 36.4606 231.946 35.8787 231.85 35.3726C231.755 34.8666 231.66 34.3605 231.571 33.9999C231.479 33.5666 231.393 33.2787 231.313 33.1364L228.509 26.1139C227.85 26.2148 227.265 26.3126 226.606 26.4135C226.011 26.293 225.352 26.3939 224.694 26.4948Z" stroke="#00A99D" stroke-width="0.75" stroke-miterlimit="10"/>
<path d="M262.02 15.2885C261.3 15.6835 260.583 16.1513 259.866 16.619C259.149 17.0867 258.361 17.6303 257.65 18.2435C256.94 18.8567 256.232 19.5427 255.527 20.3014C254.896 21.057 254.274 22.0308 253.806 23.1438C253.059 24.633 252.609 26.1825 252.382 27.7954C252.153 29.3355 252.071 30.8693 252.062 32.4C252.093 33.1275 251.977 33.8611 251.637 34.5315C251.3 35.2745 250.874 35.657 250.286 35.682C249.55 35.7133 248.946 35.3746 248.398 34.5963C247.849 33.818 247.597 33.1 247.349 32.4547C246.569 29.7186 245.863 26.9794 245.307 24.3067C244.752 21.634 244.266 18.8854 243.858 16.2064C243.833 15.6245 243.968 15.3273 244.326 15.0934C244.688 14.9323 245.052 14.8439 245.497 14.8979C245.941 14.9519 246.459 15.0027 246.91 15.2022C247.36 15.4016 247.594 15.6832 247.686 16.1166C247.895 17.5652 248.18 19.0834 248.469 20.6743C248.758 22.2653 249.034 23.5653 249.378 24.7166C249.469 23.401 249.855 22.0729 250.538 20.805C251.221 19.5371 252.054 18.3357 253.04 17.2735C254.027 16.2113 255.167 15.2884 256.46 14.5047C257.753 13.721 259.058 13.2282 260.447 12.9506C261.032 12.8528 261.547 12.8309 261.918 12.888C262.289 12.9451 262.589 13.0781 262.746 13.2901C262.902 13.5021 262.988 13.7899 262.859 14.2326C262.798 14.5267 262.446 14.9061 262.02 15.2885Z" stroke="#00A99D" stroke-width="0.75" stroke-miterlimit="10"/>
<path d="M279.149 14.3417C280.345 14.7281 281.402 15.339 282.249 16.1775C283.095 17.016 283.724 17.9366 284.211 19.009C284.699 20.0814 284.966 21.1632 285.089 22.3239C285.212 23.4847 285.108 24.5093 284.857 25.5402C284.462 26.6501 283.994 27.7632 283.302 28.8128C282.686 29.9321 281.914 30.8394 281.142 31.7467C280.293 32.5844 279.365 33.2798 278.283 33.8359C277.202 34.392 275.96 34.6634 274.636 34.7196C273.018 34.7884 271.605 34.4841 270.471 33.8036C269.337 33.1231 268.414 32.215 267.773 31.0034C267.061 29.8676 266.638 28.5739 266.352 27.0557C266.143 25.6071 266.078 24.0795 266.237 22.6153C266.338 21.5179 266.586 20.4142 266.91 19.3802C267.234 18.3462 267.709 17.3786 268.264 16.5534C268.818 15.7282 269.452 15.0454 270.24 14.5018C270.954 13.9613 271.827 13.7056 272.857 13.6618C273.445 13.6368 274.11 13.6814 274.929 13.8652C275.747 14.049 276.569 14.3056 277.249 14.7139C277.816 14.1797 278.401 14.082 279.149 14.3417ZM277.125 18.7273C276.671 18.4551 276.141 18.1133 275.534 17.7018C274.927 17.2904 274.403 17.094 273.962 17.1128C273.52 17.1316 273.015 17.3717 272.592 17.8269C272.169 18.2821 271.749 18.8101 271.48 19.4045C271.137 20.0021 270.941 20.5934 270.671 21.1879C270.475 21.7792 270.35 22.2947 270.289 22.5887C270.166 23.1769 270.124 23.9075 270.158 24.7077C270.118 25.511 270.226 26.308 270.407 27.1019C270.588 27.8958 270.913 28.6108 271.456 29.2435C271.925 29.8795 272.606 30.2878 273.574 30.5381C274.169 30.6586 274.757 30.6335 275.56 30.4537C276.29 30.2769 277.01 29.8819 277.727 29.4142C278.444 28.9465 279.078 28.2636 279.706 27.4353C280.334 26.607 280.812 25.7122 281.136 24.6782C281.455 23.4987 281.479 22.3317 280.985 21.1138C280.564 19.8928 279.792 19.0512 278.59 18.5193C278.305 18.75 278.014 18.8352 277.793 18.8446C277.499 18.8571 277.275 18.7938 277.125 18.7273Z" stroke="#00A99D" stroke-width="0.75" stroke-miterlimit="10"/>
<path d="M293.117 15.2783C293.218 15.9298 293.249 16.6572 293.436 17.5966C293.55 18.5392 293.737 19.4786 293.854 20.4938C294.045 21.506 294.158 22.4485 294.349 23.4607C294.536 24.4001 294.723 25.3395 294.831 26.1365C295.235 25.2448 295.707 24.2045 296.313 22.867C296.923 21.6023 297.532 20.3375 298.145 19.1455C298.757 17.9534 299.453 16.9765 300.154 16.1451C300.856 15.3136 301.499 14.849 302.088 14.824C302.75 14.7959 303.35 15.0618 303.893 15.6946C304.433 16.2547 304.979 16.9602 305.383 17.8175C305.788 18.6748 306.193 19.532 306.531 20.5379C306.865 21.4711 307.123 22.3346 307.375 23.0526C307.5 22.5372 307.696 21.9459 307.889 21.2818C308.082 20.6177 308.348 19.9505 308.614 19.2834C308.881 18.6162 309.218 17.8731 309.558 17.2028C309.898 16.5325 310.314 15.9318 310.734 15.4038C311.224 14.8 311.797 14.4112 312.373 14.0952C312.952 13.852 313.387 13.6878 313.682 13.6752C314.049 13.6596 314.494 13.7136 314.945 13.9131C315.469 14.1094 315.996 14.3785 316.526 14.7203C317.057 15.0621 317.59 15.4767 318.05 15.8944C318.513 16.3848 318.902 16.8784 319.218 17.3751C319.853 18.4412 320.341 19.5136 320.691 20.8104C321.111 22.0314 321.384 23.2587 321.578 24.3435C321.775 25.5012 321.962 26.4406 322.002 27.3862C322.113 28.256 322.14 28.9107 322.226 29.1985C322.248 29.7077 322.19 30.0746 322.129 30.3687C321.994 30.6659 321.78 30.8208 321.492 30.9788C321.059 31.2157 320.695 31.3041 320.397 31.2439C320.1 31.1837 319.8 31.0507 319.646 30.9114C319.416 30.7026 319.26 30.4906 319.177 30.2755C319.021 30.0636 318.935 29.7757 318.929 29.6302C318.745 28.7636 318.631 27.821 318.443 26.8816C318.256 25.9422 318.072 25.0756 317.885 24.1362C317.7 23.2695 317.446 22.4787 317.191 21.688C316.939 20.9699 316.688 20.2519 316.442 19.6793C316.363 19.5369 316.206 19.325 316.05 19.113C315.893 18.901 315.66 18.6194 315.43 18.4106C315.201 18.2017 314.971 17.9929 314.817 17.8537C314.59 17.7176 314.44 17.6511 314.364 17.5815C313.996 17.5971 313.57 17.9796 313.159 18.7258C312.749 19.4719 312.345 20.3636 312.02 21.3977C311.696 22.4317 311.374 23.5385 311.053 24.6452C310.732 25.752 310.551 26.707 310.438 27.5135C310.481 28.5319 310.292 29.2687 309.946 29.7935C309.599 30.3183 309.167 30.5553 308.726 30.5741C308.285 30.5929 307.837 30.4661 307.307 30.1243C306.776 29.7825 306.467 29.4313 306.301 29.0011C306.053 28.3558 305.73 27.7136 305.476 26.9228C305.148 26.1352 304.819 25.3475 304.491 24.5598C304.163 23.7722 303.835 22.9845 303.506 22.1969C303.178 21.4092 302.856 20.767 302.534 20.1248C301.976 20.8773 301.499 21.7721 301.021 22.6669C300.543 23.5617 300.068 24.5292 299.594 25.4968C299.119 26.4643 298.718 27.4287 298.314 28.3204C297.912 29.2848 297.505 30.1038 297.165 30.7741C296.89 31.223 296.611 31.5993 296.332 31.9755C296.053 32.3517 295.692 32.5128 295.25 32.5316C294.956 32.5441 294.582 32.4143 294.202 32.1389C293.822 31.8636 293.512 31.5124 293.126 31.0916C292.813 30.6676 292.497 30.1709 292.181 29.6742C291.862 29.1048 291.693 28.6019 291.522 28.0262C291.156 26.3656 290.782 24.4868 290.477 22.5321C290.17 20.5047 289.866 18.55 289.639 16.665C289.537 16.0134 289.656 15.3525 289.855 14.8339C290.051 14.2426 290.477 13.8601 291.056 13.6169C291.712 13.4432 292.233 13.5668 292.613 13.8422C292.773 14.1269 293.015 14.6267 293.117 15.2783Z" stroke="#00A99D" stroke-width="0.75" stroke-miterlimit="10"/>
<path d="M356.659 15.7833C357.391 15.6793 358.136 15.8663 358.961 16.1956C359.712 16.528 360.107 17.1671 360.141 17.9672C360.095 18.625 359.746 19.0771 359.09 19.2508C358.435 19.4244 357.926 19.5918 357.558 19.6074C356.749 19.6418 355.94 19.6762 354.987 19.7896C354.107 19.8999 353.151 19.9405 352.198 20.0539C352.18 21.3664 352.156 22.5334 352.132 23.7004C352.108 24.8674 352.148 25.8131 352.114 26.7619C352.078 27.6379 352.109 28.3653 352.131 28.8745C352.155 29.4565 352.168 29.7474 352.241 29.7443C353.118 29.5613 354.062 29.2297 355.002 28.8253C356.017 28.4178 356.954 27.9407 357.966 27.4605C358.977 26.9802 359.911 26.4304 360.849 25.9533C361.784 25.4034 362.721 24.9263 363.586 24.4523C363.944 24.2185 364.312 24.2028 364.683 24.2599C365.054 24.3171 365.21 24.529 365.293 24.7441C365.385 25.1775 365.333 25.6898 365.214 26.3507C365.021 27.0148 364.675 27.5396 364.182 28.0707C363.612 28.5322 362.827 29.1485 361.896 29.7711C360.964 30.3937 359.959 31.0194 358.881 31.6483C357.802 32.2771 356.717 32.7605 355.559 33.247C354.474 33.7303 353.453 33.9923 352.574 34.1026C351.256 34.3044 350.284 33.9813 349.585 33.1366C348.889 32.3645 348.475 31.289 348.349 30.0555C348.223 28.822 348.161 27.3672 348.163 25.691C348.166 24.0148 348.165 22.2658 348.161 20.4441C347.429 20.5481 346.696 20.6522 346.038 20.753C345.379 20.8539 344.72 20.9548 344.061 21.0557C343.546 21.0776 342.951 20.9571 342.353 20.7639C341.756 20.5707 341.369 20.1499 341.338 19.4225C341.329 19.2042 341.387 18.8374 341.593 18.4643C341.798 18.0912 342.227 17.7815 342.879 17.5351C344.485 17.1753 346.315 16.8789 348.218 16.5794C348.288 14.7546 348.284 12.9329 348.434 11.2504C348.507 9.49833 348.589 7.96449 348.674 6.50338C348.729 6.0638 348.784 5.62421 349.063 5.24799C349.268 4.8749 349.556 4.7169 349.777 4.70752C350.436 4.60663 351.107 4.79672 351.711 5.13541C352.315 5.47411 352.701 5.89493 352.72 6.33139C352.628 7.64701 352.546 9.18086 352.47 10.8602C352.394 12.5395 352.321 14.2916 352.322 16.0406C353.128 15.9334 353.86 15.8294 354.596 15.7981C355.264 15.9155 356 15.8842 356.659 15.7833Z" stroke="#00A99D" stroke-width="0.75" stroke-miterlimit="10"/>
<path d="M371.081 4.89494C371.121 5.84059 371.165 6.85899 371.217 8.09561C371.267 9.25949 371.319 10.4961 371.372 11.7327C371.424 12.9694 371.554 14.2756 371.609 15.585C371.665 16.8943 371.794 18.2006 371.844 19.3645C372.177 18.5487 372.661 17.7993 373.142 16.9773C373.7 16.2248 374.257 15.4724 374.895 14.8623C375.532 14.2522 376.246 13.7118 377.042 13.3864C377.763 12.9914 378.639 12.8084 379.522 12.7709C380.478 12.7302 381.373 12.9837 382.21 13.6039C382.973 14.2274 383.743 14.9963 384.301 15.9928C384.933 16.9861 385.424 18.1313 385.921 19.4219C386.341 20.6429 386.765 21.9366 387.041 23.2366C387.317 24.5366 387.591 25.7638 387.79 26.9942C387.987 28.1518 388.107 29.2398 388.214 30.0368C388.242 30.6915 388.117 31.207 387.838 31.5832C387.559 31.9594 387.201 32.1933 386.759 32.2121C386.465 32.2246 386.014 32.0251 385.558 31.6801C385.101 31.3352 384.708 30.7689 384.536 30.1932C384.371 29.763 384.266 29.0387 384.082 28.172C383.898 27.3054 383.707 26.2932 383.517 25.2811C383.327 24.269 383.06 23.1872 382.796 22.1782C382.529 21.0964 382.194 20.1633 381.792 19.3788C381.387 18.5215 380.992 17.8824 380.458 17.4679C379.998 17.0502 379.401 16.857 378.745 17.0306C377.798 17.2895 376.943 17.9817 376.257 19.1768C375.571 20.372 374.965 21.7095 374.515 23.259C374.062 24.7357 373.685 26.2821 373.382 27.8253C373.079 29.3685 372.911 30.6145 372.804 31.5665C372.688 32.3001 372.486 32.746 372.278 33.0463C371.996 33.3498 371.778 33.4319 371.411 33.4476C371.116 33.4601 370.816 33.3271 370.509 33.0486C370.276 32.767 369.964 32.3431 369.724 31.916C369.485 31.4889 369.243 30.9891 369.077 30.5589C368.908 30.056 368.743 29.6258 368.73 29.3348C368.42 27.2347 368.186 25.2041 368.029 23.2432C367.799 21.2854 367.645 19.3972 367.488 17.4363C367.331 15.4754 367.247 13.5113 367.157 11.4018C367.068 9.29225 367.052 7.17959 367.023 4.77596C366.94 2.81191 367.638 1.90772 369.045 2.06654C369.489 2.12052 369.946 2.46547 370.339 3.03177C370.878 3.59182 371.053 4.24025 371.081 4.89494Z" stroke="#00A99D" stroke-width="0.75" stroke-miterlimit="10"/>
<path d="M406.319 15.6397C404.812 16.5783 403.151 17.3776 401.407 17.9619C399.664 18.5461 397.76 18.8457 395.701 18.9332C395.833 20.3122 396.247 21.3877 397.017 22.1566C397.786 22.9255 398.691 23.3972 399.727 23.4989C400.392 23.5435 400.98 23.5185 401.636 23.3448C402.292 23.1712 402.874 23.0007 403.45 22.6847C404.029 22.4415 404.532 22.1286 404.958 21.7461C405.387 21.4364 405.813 21.0539 406.168 20.7473C406.524 20.4407 406.882 20.2069 407.247 20.1185C407.611 20.0301 407.906 20.0176 408.129 20.081C408.727 20.2742 408.899 20.8499 408.792 21.8018C408.183 23.0665 407.346 24.1952 406.207 25.1181C405.067 26.0411 403.767 26.6793 402.306 26.9601C401.064 27.2315 399.737 27.215 398.401 26.9803C397.061 26.6729 395.783 26.0714 394.71 25.0968C393.79 24.2614 393.008 23.2015 392.514 21.9837C392.02 20.7658 391.674 19.5417 391.471 18.2386C391.271 17.0082 391.369 15.8381 391.617 14.7344C391.938 13.6276 392.413 12.6601 393.038 11.759C393.736 10.8549 394.591 10.1627 395.596 9.53693C396.675 8.90808 397.839 8.56708 399.307 8.4318C400.993 8.21439 402.553 8.51243 403.982 9.18044C405.41 9.84845 406.41 10.8262 407.057 12.1833C407.382 12.8982 407.557 13.5466 407.434 14.1348C407.383 14.6472 406.963 15.1751 406.319 15.6397ZM399.382 11.9266C399.017 12.0149 398.582 12.1792 398.15 12.4162C397.718 12.6532 397.286 12.8902 396.931 13.1968C396.575 13.5034 396.223 13.8827 395.944 14.2589C395.665 14.6352 395.537 15.0779 395.482 15.5175C396.144 15.4893 396.876 15.3853 397.682 15.2782C398.485 15.0983 399.288 14.9184 400.018 14.7416C400.747 14.5649 401.473 14.3154 402.126 14.069C402.779 13.8226 403.281 13.5098 403.713 13.2728C403.388 12.5579 402.778 12.0737 401.889 11.9657C401.068 11.7092 400.185 11.7467 399.382 11.9266Z" stroke="#00A99D" stroke-width="0.75" stroke-miterlimit="10"/>
<path d="M441.372 6.42486C441.529 6.63683 441.612 6.85193 441.698 7.13977C441.71 7.43074 441.719 7.64897 441.581 7.87346C441.379 8.31929 441.091 8.47729 440.57 8.35369C439.752 8.16986 438.866 8.13465 437.986 8.24491C437.107 8.35518 436.163 8.6868 435.311 9.45175C434.456 10.144 433.761 11.1209 433.302 12.4521C432.839 13.7107 432.678 15.1022 432.733 16.4115C432.789 17.7209 433.133 18.8723 433.835 19.7898C434.537 20.7073 435.377 21.4003 436.425 21.793C437.1 22.0558 437.768 22.1732 438.577 22.1388C439.389 22.1771 440.195 22.07 441.001 21.9628C441.807 21.8557 442.61 21.6758 443.41 21.4232C444.21 21.1705 444.936 20.921 445.66 20.5988C445.877 20.5167 446.098 20.5073 446.325 20.6434C446.552 20.7795 446.705 20.9187 446.785 21.0611C447.027 21.5609 446.901 22.0764 446.555 22.6012C446.136 23.1292 445.492 23.5938 444.702 24.0646C443.908 24.4627 443.041 24.864 442.167 25.1197C441.294 25.3755 440.27 25.5647 439.24 25.6085C438.284 25.6492 437.325 25.6171 436.433 25.4364C435.17 25.1986 434.119 24.7331 433.285 24.1856C432.377 23.6412 431.684 22.9419 431.062 22.1667C430.439 21.3916 430.035 20.5343 429.703 19.6739C429.369 18.7408 429.181 17.8014 429.141 16.8557C428.969 14.5311 429.32 12.4028 430.27 10.4677C431.219 8.53261 432.558 7.09108 434.36 6.13999C435.656 5.42902 437.041 5.07864 438.371 5.16783C439.625 5.18741 440.676 5.65283 441.372 6.42486Z" stroke="#00A99D" stroke-width="0.75" stroke-miterlimit="10"/>
<path d="M467.12 12.3262C467.283 12.6836 467.154 13.1263 466.728 13.5088C466.302 13.8913 465.502 14.1439 464.479 14.3332C462.723 14.6265 460.896 14.9956 459.067 15.292C457.24 15.6612 455.337 15.9607 453.437 16.333C453.447 18.3002 453.533 20.3369 453.69 22.2979C454.573 22.2603 455.673 22.1407 456.988 21.8662C458.232 21.6675 459.544 21.3203 460.932 21.0426C462.244 20.6954 463.556 20.3481 464.794 20.004C466.032 19.6599 467.052 19.3978 467.926 19.1421C468.361 18.9778 468.799 18.8863 469.311 18.7917C469.749 18.7002 470.19 18.6814 470.561 18.7385C470.932 18.7957 471.233 18.9286 471.536 19.1343C471.766 19.3432 471.929 19.7007 471.947 20.1371C471.953 20.2826 471.812 20.4343 471.527 20.6651C471.243 20.8958 470.961 21.1993 470.529 21.4363C470.1 21.746 469.668 21.983 469.236 22.22C468.803 22.457 468.368 22.6212 468.007 22.7823C465.613 23.6857 463.214 24.4436 460.885 25.1256C458.556 25.8076 456.214 26.1986 454.011 26.3652C452.69 26.4942 451.718 26.1712 451.025 25.4719C450.332 24.7726 449.921 23.7698 449.789 22.3909C449.635 20.5027 449.551 18.5386 449.541 16.5715C448.864 16.2359 448.471 15.6696 448.44 14.9422C448.483 14.2116 448.829 13.6868 449.479 13.3677C449.503 12.2006 449.53 11.1064 449.48 9.9425C449.505 8.77549 449.455 7.61161 449.482 6.51734C449.038 6.46336 448.661 6.26077 448.278 5.91269C447.894 5.56461 447.732 5.20715 447.713 4.7707C447.698 4.40698 447.759 4.11289 447.894 3.81566C448.028 3.51844 448.313 3.2877 448.749 3.12345C449.478 2.9467 450.351 2.69094 451.375 2.50168C452.395 2.23967 453.419 2.05041 454.516 1.85801C455.613 1.66562 456.637 1.47636 457.661 1.28709C458.684 1.09783 459.49 0.990686 460.226 0.959415C461.032 0.852274 461.844 0.890619 462.662 1.07445C463.481 1.25828 464.161 1.66659 464.854 2.36587C465.026 2.94156 464.968 3.3084 464.613 3.615C464.257 3.92161 463.749 4.08899 463.163 4.18675C462.578 4.2845 461.845 4.38852 461.042 4.5684C460.236 4.67554 459.36 4.85855 458.48 4.96882C457.604 5.15183 456.724 5.2621 455.845 5.37237C454.965 5.48264 454.089 5.66565 453.356 5.76966C453.359 5.8424 453.362 5.91515 453.368 6.06063C453.371 6.13337 453.378 6.27886 453.381 6.3516C453.351 7.37313 453.32 8.39465 453.364 9.41304C453.333 10.4346 453.377 11.453 453.346 12.4745C455.026 12.1116 456.708 11.8214 458.391 11.5313C460.147 11.238 461.465 11.0362 462.491 10.9197C463.298 10.8126 464.11 10.8509 464.931 11.1075C465.747 11.2186 466.501 11.6238 467.12 12.3262Z" stroke="#00A99D" stroke-width="0.75" stroke-miterlimit="10"/>
<path d="M495.088 13.2505C494.913 14.351 494.515 15.3882 493.97 16.4316C493.425 17.475 492.727 18.3792 491.955 19.2865C491.183 20.1938 490.404 20.9556 489.476 21.651C488.548 22.3463 487.683 22.8203 486.743 23.2247C485.005 23.9544 483.319 24.1718 481.545 24.0286C479.844 23.8823 478.265 23.1478 476.812 21.8979C475.883 20.8443 475.168 19.6358 474.742 18.2693C474.315 16.9028 474.036 15.5301 474.047 14.0721C473.985 12.6173 474.147 11.2258 474.46 9.90078C474.772 8.57578 475.234 7.31727 475.779 6.27385C476.462 5.00596 477.228 3.95316 478.221 3.03647C479.143 2.19565 480.225 1.63954 481.395 1.44402C481.686 1.35877 481.984 1.41901 482.14 1.63098C482.37 1.83983 482.456 2.12767 482.468 2.41864C482.821 2.03929 483.47 1.72018 484.27 1.46755C485.07 1.21493 486.026 1.17427 487.062 1.27598C488.984 1.4129 490.48 1.9323 491.62 2.7583C492.761 3.58431 493.616 4.64105 494.181 5.78304C494.745 6.92503 495.095 8.22189 495.151 9.53126C495.363 11.0526 495.339 12.2196 495.088 13.2505ZM481.872 5.72333C481.078 6.12144 480.438 6.65878 479.951 7.33536C479.464 8.01193 479.056 8.83086 478.726 9.71941C478.395 10.608 478.215 11.563 478.181 12.5118C478.151 13.5333 478.191 14.4789 478.305 15.4215C478.511 16.7973 478.925 17.8728 479.698 18.7145C480.47 19.5561 481.592 19.9457 483.063 19.8831C483.946 19.8456 484.823 19.6626 485.616 19.2645C486.484 18.8632 487.201 18.3955 487.914 17.855C488.625 17.2418 489.259 16.559 489.817 15.8066C490.375 15.0541 490.855 14.2321 491.113 13.3466C491.315 12.9008 491.44 12.3853 491.486 11.7275C491.605 11.0666 491.577 10.4119 491.549 9.75723C491.448 9.10567 491.273 8.45725 491.025 7.81194C490.703 7.16977 490.24 6.67933 489.633 6.26789C488.799 5.72035 487.753 5.40042 486.644 5.30184C485.461 5.20639 484.296 5.54739 483.071 6.18249C482.856 6.33736 482.565 6.42261 482.264 6.28964C481.9 6.37802 481.814 6.09017 481.872 5.72333Z" stroke="#00A99D" stroke-width="0.75" stroke-miterlimit="10"/>
</svg>
