<svg width="353" height="302" viewBox="0 0 353 302" fill="none" xmlns="http://www.w3.org/2000/svg">
<path d="M223.095 1.90356C256.093 7.222 295.017 24.0418 317.32 50.4138C339.64 77.0875 345.186 113.171 348.992 135.035C352.799 156.899 355.682 182.246 348.992 209.872C342.303 237.498 326.18 267.242 308.101 284.041C290.176 300.982 237.769 306.789 213.949 295.635C189.991 284.64 159.367 271.501 138.406 248.378C117.584 225.096 103.572 167.096 93.0826 135.035C82.5932 102.975 102.386 64.1639 123.299 32.2209C144.229 0.579397 189.96 -3.2555 223.095 1.90356Z" fill="#F5F5F5"/>
<path d="M76.0279 138.706C75.7134 140.398 74.3706 141.278 72.757 141.611C67.8422 142.609 61.3804 142.313 56.3061 141.966C50.3118 141.559 44.6241 142.574 38.6693 142.957C34.3337 143.243 26.8689 144.003 23.0359 141.652C19.8956 139.715 21.0266 136.102 21.6704 133.106C21.4497 130.421 21.8028 127.52 21.8792 125.039C21.9137 124.053 21.9504 123.054 21.9751 122.053C21.6844 119.678 21.3838 117.288 21.0811 114.911C20.6993 111.824 19.2679 107.238 21.2112 104.397C23.0677 101.688 27.0828 101.591 30.0549 101.361C35.0381 100.997 40.1632 101.205 45.1613 101.228C49.8985 101.252 54.6223 101.348 59.3554 101.595C61.6046 101.715 64.4442 101.598 67.0528 101.921L67.0648 101.924C71.6596 101.512 75.0598 101.784 75.4556 107.667C75.8889 114.016 75.6919 120.484 75.4896 126.913C75.4751 127.258 75.4727 127.605 75.4582 127.95C75.5635 128.652 75.6807 129.357 75.7838 130.071C76.2261 133.033 76.5351 136.045 76.0279 138.706Z" fill="#F5F5F5"/>
<path d="M75.6655 130.707C75.5646 129.981 75.4518 129.252 75.3488 128.538C75.3655 128.181 75.3679 127.834 75.3846 127.477C75.507 128.555 75.6151 129.643 75.6655 130.707Z" fill="#FBB03B"/>
<path d="M172.155 141.099C173.675 136.727 175.488 132.521 177.283 128.274C177.426 127.705 177.554 127.145 177.698 126.576C178.417 123.842 179.448 121.167 180.047 118.411C180.379 116.896 180.656 115.135 179.272 114.17C178.408 113.675 177.528 113.201 176.631 112.748C174.075 111.479 171.391 110.558 168.767 109.449C166.005 108.278 163.288 107.003 160.583 105.731C157.854 104.454 155.103 103.222 152.33 102.049C151.483 101.73 150.639 101.399 149.818 101.073C148.86 100.684 147.902 100.295 146.946 99.8935C145.893 99.4866 144.851 99.0819 143.778 98.7087C134.549 95.404 125.033 92.9769 115.432 91.0057C113.665 91.6951 112.418 93.1267 111.942 95.0863C109.239 106.289 106.156 117.396 102.566 128.36C100.98 133.216 98.9286 138.11 97.0762 143.066C96.9694 143.307 96.8745 143.55 96.7677 143.791C93.6439 151.179 87.8195 163.279 90.7804 171.389C92.3116 175.571 96.4192 176.645 100.231 178.111C106.08 180.365 111.927 182.631 117.776 184.886C127.586 188.671 137.394 192.468 147.216 196.255C147.516 196.311 147.814 196.379 148.116 196.422C148.5 196.494 148.891 196.529 149.279 196.577C149.315 196.583 149.339 196.588 149.363 196.592C149.387 196.597 149.387 196.597 149.413 196.589C149.6 196.587 149.799 196.586 149.985 196.584C150.174 196.569 150.375 196.557 150.566 196.53C150.604 196.525 150.848 196.483 150.924 196.473C151.304 196.37 151.663 196.238 152.021 196.118C152.09 196.081 152.168 196.059 152.237 196.022C152.057 196.125 152.069 196.127 152.292 195.995C152.472 195.892 152.641 195.786 152.812 195.669C153.051 195.515 153.267 195.357 153.485 195.186C155.57 190.112 157.908 185.147 159.635 179.932C160.543 177.184 161.396 174.401 162.374 171.678C165.536 161.479 168.649 151.209 172.155 141.099Z" fill="#00A99D"/>
<path d="M129.304 56.7185C128.653 58.8815 127.914 61.0529 127.124 63.1652C125.447 67.6448 125.276 66.831 122.936 71.2741L122.651 71.8045C120.959 75.0277 119.212 78.3522 116.05 79.6015C112.7 80.9275 108.744 79.1741 104.91 77.4932C104.096 77.1309 63.8526 62.9832 63.068 62.6636L48.1282 56.5594C47.9887 56.5086 47.1747 56.1463 46.6805 55.5331C45.8232 58.6755 48.7157 60.3428 51.4168 61.3043C65.7471 66.4138 80.0773 71.5234 94.4076 76.6329C98.1213 77.9564 101.835 79.2799 105.561 80.6056C108.622 81.6962 111.746 83.121 114.984 83.5989C118.064 84.0597 120.785 82.9767 122.705 80.5284C124.921 77.6882 126.561 74.2072 128.152 70.9902C129.755 67.7754 131.166 64.4627 132.379 61.0761C133.534 57.865 134.257 54.71 132.277 51.6731C131.911 51.1084 131.482 50.6068 131.026 50.1247C130.849 51.7428 130.313 53.4926 129.762 55.1899C129.627 55.7112 129.459 56.2137 129.304 56.7185Z" fill="#FBB03B"/>
<path d="M124.923 56.1772C125.318 54.9224 125.676 53.6609 126.025 52.3852L126.899 49.0223L124.914 48.2809C124.647 48.1816 124.392 48.0846 124.135 47.9995C123.901 47.9189 123.68 47.8405 123.531 47.7755C122.33 47.2916 121.129 46.8076 119.924 46.3477C117.236 45.3142 75.069 30.5608 72.3568 29.6593C69.6304 28.7677 66.8568 27.9293 64.0961 27.1554C63.9064 27.1077 63.6731 27.0271 63.4278 26.9442C62.8773 26.7674 62.281 26.5696 61.6638 26.4177C59.3747 28.6484 58.1184 31.667 56.7426 34.5269L51.8957 44.5739C50.62 47.2289 49.2244 49.8617 47.9803 52.5474L108.726 75.0622C108.899 75.1317 109.116 75.234 109.355 75.3529C110.437 75.8767 111.793 76.5261 113.146 76.3929C115.166 76.2098 116.324 74.2529 117.099 72.9571L117.223 72.7567C119.712 68.6514 120.088 69.3668 122.205 63.9884C123.19 61.4283 124.114 58.7948 124.923 56.1772Z" fill="#FBB03B"/>
<path d="M64.1752 25.395C64.4668 25.3623 64.7832 25.3963 65.1222 25.509C81.5759 30.8147 97.9587 36.368 114.263 42.1424C117.734 43.3711 121.284 44.5029 124.653 46.0106C126.956 47.0469 129.294 48.2885 131.052 50.1172C131.069 49.959 131.1 49.791 131.115 49.6448C131.294 46.7486 127.43 45.1615 122.757 43.5231C122.024 43.2626 121.312 43.0185 120.675 42.7759C115.716 40.8733 71.1764 25.3933 66.0802 23.9617C61.2315 22.601 57.2801 21.7547 54.3184 24.3321C52.8397 25.6088 51.9931 27.425 51.0325 29.6545C49.9814 32.1031 48.977 34.6348 48.0496 37.0194C45.9863 42.3085 45.8817 42.5373 44.0604 48.1941C43.6471 49.4826 44.8715 50.1075 45.4176 50.3083L47.3566 51.0288L48.0743 49.772C48.1491 49.6369 48.1976 49.5094 48.2417 49.4059C49.9347 44.1721 49.8728 44.3716 51.738 39.4801C52.6534 37.0933 53.6049 34.7131 54.5803 32.3374C54.6662 32.1424 54.7513 31.8851 54.8528 31.6061C55.4731 29.8719 56.3121 27.4956 58.2194 26.5841C59.2824 26.0742 60.4925 26.1751 61.6452 26.4514C61.8435 26.2525 62.0419 26.0535 62.2478 25.8808C62.8842 25.3288 63.5722 25.2333 64.1752 25.395Z" fill="#1E1E1E"/>
<path d="M46.9463 54.8376C47.2615 54.077 47.6127 53.323 47.9661 52.557L47.5018 52.3838L46.5684 53.7991C46.4464 53.9875 46.4068 54.067 46.4024 54.091C46.4024 54.091 46.4024 54.091 46.4001 54.103C46.2211 54.6655 46.4047 55.1465 46.7067 55.5254C46.7611 55.2997 46.8394 55.0784 46.9463 54.8376Z" fill="#1E1E1E"/>
<path d="M64.082 27.165C66.8449 27.927 69.6185 28.7653 72.3427 29.669C75.0571 30.5585 117.222 45.3239 119.909 46.3573C121.115 46.8173 122.316 47.3012 123.517 47.7852C123.678 47.8524 123.887 47.9285 124.121 48.0092C124.366 48.092 124.633 48.1913 124.9 48.2906L126.885 49.032L126.011 52.3948C125.662 53.6706 125.304 54.9321 124.909 56.1869C124.1 58.8044 123.176 61.438 122.164 64.0056C120.047 69.384 119.671 68.6687 117.183 72.7739L117.059 72.9743C116.284 74.2701 115.126 76.227 113.106 76.4101C111.755 76.5313 110.399 75.8819 109.314 75.3701C109.086 75.2655 108.871 75.1511 108.686 75.0794L47.94 52.5646C47.5888 53.3186 47.2496 54.0747 46.9201 54.8452C46.8253 55.0882 46.7469 55.3095 46.6806 55.533C47.1748 56.1462 47.979 56.4943 48.1282 56.5593L63.068 62.6635C63.8527 62.9832 104.084 77.1286 104.91 77.4931C108.73 79.1838 112.688 80.9252 116.05 79.6014C119.212 78.3521 120.959 75.0276 122.651 71.8045L122.936 71.274C125.274 66.8429 125.448 67.6448 127.124 63.1652C127.912 61.0649 128.639 58.8912 129.304 56.7184C129.46 56.2136 129.615 55.7089 129.786 55.1943C130.325 53.4947 130.873 51.7472 131.05 50.1291C129.292 48.3004 126.956 47.0467 124.651 46.0225C121.282 44.5148 117.731 43.383 114.261 42.1543C97.9587 36.3678 81.5736 30.8266 65.12 25.5209C64.781 25.4082 64.4743 25.3885 64.173 25.4069C63.558 25.2429 62.8819 25.3407 62.25 25.8687C62.0299 26.0512 61.8435 26.2524 61.6474 26.4393C62.2646 26.5913 62.8632 26.7771 63.4115 26.9659C63.659 27.0367 63.8922 27.1173 64.082 27.165Z" fill="#1E1E1E"/>
<path d="M113.587 67.277C112.955 61.7971 112.333 56.3314 111.701 50.8516C111.557 49.6208 110.109 49.1283 109.112 49.5511C103.867 51.7909 99.0291 54.9132 94.8159 58.7475C93.5515 53.5969 92.2752 48.4441 91.0109 43.2936C90.6714 41.9147 89.1518 41.4088 88.0263 42.2546C84.0554 45.2526 80.2497 48.4303 76.5634 51.7667C75.3764 46.6678 74.1894 41.5689 72.9903 36.4677C72.6598 35.0408 71.1321 34.6451 70.0058 35.4287C64.6348 39.1471 59.5365 43.2016 54.7109 47.5923C52.9636 49.179 55.3376 51.9664 57.0849 50.3797C61.1941 46.6378 65.5293 43.1489 70.0329 39.89C71.2576 45.12 72.4703 50.3479 73.6973 55.566C73.9946 56.8377 75.642 57.5908 76.6818 56.6049C80.3379 53.1636 84.1592 49.9019 88.1098 46.8132C89.402 52.0807 90.7063 57.3504 91.9985 62.6178C92.2928 63.8393 93.9681 64.7094 94.9831 63.6568C98.8827 59.6401 103.376 56.3669 108.375 53.9198C108.907 58.5992 109.45 63.2928 109.982 67.9722C110.254 70.319 113.849 69.6095 113.587 67.277Z" fill="#1E1E1E"/>
<path d="M173.645 120.199C173.567 118.013 172.789 116.255 170.732 115.301C168.254 114.145 165.548 113.344 162.981 112.395C157.787 110.486 152.575 108.611 147.358 106.76C136.92 103.081 126.433 99.5306 115.894 96.1312C113.213 95.2605 110.53 94.4017 107.845 93.5549C105.98 92.9723 103.989 92.3291 102.039 92.8726C99.6183 93.5398 98.6808 95.7115 97.8362 97.8509C96.8317 100.383 95.8295 102.902 94.8251 105.434C93.7788 108.057 92.7468 110.671 91.7005 113.294C90.835 115.479 94.2309 116.843 95.0986 114.645C96.9917 109.871 98.8968 105.099 100.79 100.324C101.192 99.2941 101.511 98.1122 102.107 97.1802C102.667 96.3037 103.375 96.2366 104.353 96.3813C106.54 96.7011 108.722 97.6528 110.806 98.3258C113.138 99.0697 115.463 99.8495 117.793 100.605C113.082 108.319 114.124 118.468 120.882 124.851C122.802 126.673 125.157 128.029 127.53 129.153C129.961 130.3 132.572 131.344 135.275 131.623C140.199 132.116 145.312 129.914 149.194 126.999C153.48 123.774 155.343 118.895 156.19 113.802C160.272 115.28 164.352 116.771 168.411 118.308C169.419 118.694 169.881 118.879 169.97 120C170.072 121.124 169.92 122.275 169.715 123.379C169.284 125.694 168.4 127.913 167.604 130.124C165.886 134.894 164.17 139.651 162.451 144.421C159.635 152.227 156.83 160.034 154.013 167.84C152.524 164.435 151.025 161.015 149.535 157.61C148.567 155.407 147.601 153.192 146.645 150.991C145.896 149.275 145.295 146.768 143.006 146.727C140.99 146.687 138.628 147.576 136.657 148.029C134.581 148.512 132.513 149.021 130.465 149.621C127.041 150.611 123.714 151.879 120.528 153.459C119.723 150.38 118.815 147.319 117.747 144.315C117.16 142.667 116.673 140.813 115.803 139.286C114.856 137.633 113.385 137.67 111.732 138.145C104.603 140.171 97.6187 142.819 90.8229 145.789C93.4599 138.682 96.2919 131.662 99.3309 124.73C100.341 122.435 101.373 120.156 102.417 117.88C103.41 115.744 99.9996 114.39 99.0185 116.529C94.4031 126.532 90.1996 136.723 86.4483 147.086C84.538 152.354 82.741 157.68 81.0639 163.028C80.2492 165.608 79.4705 168.194 78.7136 170.796C78.0916 172.94 76.6994 175.821 77.2329 178.093C77.801 180.445 80.5098 181.098 82.4639 181.871C85.0871 182.917 87.7125 183.951 90.3379 184.985C95.4973 187.012 100.673 189.017 105.851 191.01C116.209 194.984 126.595 198.876 137.021 202.689C138.996 203.416 141.853 205.139 143.945 204.038C145.884 203.021 146.389 199.701 147.07 197.842C148.964 192.595 150.844 187.359 152.738 182.113C156.555 171.527 160.359 160.951 164.176 150.365C166.07 145.119 167.95 139.883 169.844 134.636C171.555 130.039 173.82 125.197 173.645 120.199ZM128.305 104.086C132.126 105.368 135.944 106.661 139.746 107.976C141.752 108.672 143.767 109.382 145.773 110.077C145.57 110.3 145.416 110.594 145.357 110.981C144.894 113.874 143.437 116.569 140.895 118.157C138.407 119.718 135.402 119.792 132.808 118.454C130.203 117.113 127.829 114.723 126.915 111.896C126.051 109.266 126.642 106.285 128.305 104.086ZM145.6 125.028C143.345 126.408 140.739 127.674 138.086 127.988C135.321 128.305 132.641 127.434 130.141 126.324C125.267 124.164 121.137 121.075 119.322 115.884C117.661 111.132 118.539 105.871 121.409 101.787C122.508 102.152 123.621 102.508 124.732 102.876C123.392 105.072 122.733 107.618 122.907 110.22C123.117 113.363 124.624 116.138 126.761 118.397C128.981 120.746 132.088 122.727 135.372 123.027C138.348 123.307 141.412 122.449 143.8 120.621C146.641 118.431 148.413 115.173 148.98 111.654C149.009 111.498 149.012 111.35 149.001 111.211C150.247 111.654 151.49 112.108 152.736 112.551C151.925 117.651 150.212 122.186 145.6 125.028ZM127.629 195.319C122.81 193.53 117.996 191.716 113.184 189.891C112.604 189.671 112.037 189.454 111.459 189.222C117.017 186.035 122.921 183.521 129.077 181.723C129.916 181.482 130.767 181.243 131.614 181.028C131.678 181.016 131.934 180.976 132.206 180.915C132.599 182.875 132.97 184.818 133.363 186.778L135.623 198.258C135.32 198.152 135.019 198.034 134.716 197.928C132.356 197.067 129.998 196.194 127.629 195.319ZM146.806 187.912C145.941 190.296 145.088 192.682 144.222 195.065C143.812 196.206 143.399 197.358 142.989 198.498C142.783 199.068 142.578 199.638 142.373 200.208C142.32 200.359 142.262 200.535 142.193 200.708C142.171 200.692 142.149 200.675 142.118 200.645C141.677 200.277 140.653 200.112 140.131 199.915C139.876 199.818 139.618 199.733 139.375 199.638C139.472 199.383 139.504 199.079 139.435 198.718C138.514 194.054 137.606 189.392 136.686 184.727C136.298 182.743 136.202 180.255 135.349 178.433C134.36 176.338 132.138 177.141 130.392 177.586C122.182 179.684 114.349 183.094 107.128 187.548C99.6424 184.68 92.1637 181.775 84.7082 178.812C83.6108 178.372 82.4782 177.988 81.4039 177.49C80.8667 177.242 80.8787 177.244 80.8809 176.698C80.8822 176.09 81.2454 175.338 81.4049 174.747C82.0879 172.342 82.795 169.941 83.514 167.543C84.5746 164.041 85.7028 160.576 86.8693 157.107C86.9697 157.101 87.0701 157.094 87.1751 157.064C93.2466 155.586 99.23 153.782 105.098 151.596C105.672 151.38 106.402 151.193 106.975 150.914C107.007 151.007 107.022 151.06 107.025 151.048C107.487 152.636 107.934 154.233 108.342 155.848C109.146 159.001 109.833 162.183 110.443 165.375C110.663 166.533 110.895 167.755 112.084 168.299C113.32 168.864 114.824 168.051 115.991 167.647C119.017 166.596 122.018 165.478 124.991 164.306C127.884 163.168 130.738 161.973 133.588 160.728C135.009 160.098 136.419 159.454 137.83 158.811C138.101 158.687 138.389 158.542 138.684 158.423C138.731 158.506 138.763 158.599 138.81 158.682C139.102 159.581 139.633 160.462 140.03 161.33C143.023 167.869 145.865 174.48 148.548 181.148C148.657 181.429 148.815 181.645 148.995 181.814C148.266 183.864 147.53 185.887 146.806 187.912ZM152.061 173.335C151.627 174.533 151.191 175.743 150.757 176.941C149.289 173.354 147.781 169.784 146.217 166.241C145.239 164.024 144.238 161.802 143.219 159.602C142.423 157.877 141.714 155.077 139.498 154.714C137.437 154.381 134.936 156.15 133.135 156.957C130.917 157.935 128.692 158.887 126.448 159.81C124.11 160.766 121.767 161.683 119.395 162.558C118.302 162.963 117.211 163.356 116.12 163.749C115.534 163.963 114.743 164.349 113.987 164.606C113.915 164.195 113.83 163.782 113.758 163.372C113.563 162.417 113.368 161.462 113.161 160.505C112.752 158.629 112.328 156.775 111.852 154.924C111.372 153.035 110.865 151.154 110.294 149.285C109.863 147.864 108.991 146.746 107.338 146.96C105.646 147.179 103.855 148.199 102.245 148.781C100.556 149.386 98.8478 149.962 97.1319 150.512C94.1886 151.454 91.2175 152.28 88.2312 153.053C88.2334 153.041 88.2357 153.029 88.2521 153.007C88.6738 151.807 89.1076 150.609 89.5413 149.411C89.9557 149.786 90.5489 149.933 91.2389 149.627C97.4465 146.884 103.79 144.476 110.261 142.452C110.986 142.226 111.696 142.011 112.421 141.786C112.538 141.758 112.681 141.722 112.822 141.699C112.849 141.753 112.866 141.794 112.893 141.849C113.516 143.441 114.112 145.042 114.656 146.657C115.787 149.983 116.762 153.355 117.579 156.771C117.881 158.019 119.427 158.182 120.344 157.657C123.684 155.783 127.265 154.413 130.919 153.318C132.707 152.781 134.508 152.309 136.328 151.866C137.278 151.633 138.237 151.414 139.182 151.205C140.077 150.999 141.278 150.949 142.105 150.569L142.39 150.51C142.491 150.901 142.793 151.342 142.949 151.706C143.394 152.72 143.838 153.734 144.271 154.745C145.116 156.677 145.961 158.609 146.805 160.541C148.574 164.582 150.341 168.634 152.121 172.676C152.146 172.743 152.187 172.788 152.212 172.855C152.173 172.996 152.118 173.16 152.061 173.335Z" fill="#1E1E1E"/>
<path d="M73.834 133.147C73.8082 131.95 73.7846 130.742 73.7468 129.543C73.4825 119.949 72.9835 110.348 72.2671 100.781C72.2143 100.063 71.832 99.5826 71.3473 99.3187C71.0601 98.7937 70.5497 98.4009 69.7835 98.3826C52.6664 97.9807 35.5446 97.9379 18.4204 98.2423C16.0657 98.2886 16.1538 101.954 18.5084 101.908C35.2354 101.604 51.9599 101.648 68.6841 102.026C69.2202 109.425 69.6416 116.839 69.9146 124.25C69.9835 126.15 70.0404 128.047 70.0973 129.945C70.1166 130.842 70.148 131.742 70.1674 132.639C70.176 132.926 70.084 133.554 70.1491 133.939C69.9984 133.948 69.8335 133.967 69.6829 133.976C65.8645 134.284 62.0408 134.554 58.2097 134.798C50.3606 135.287 42.4881 135.636 34.6206 135.824C30.6917 135.925 26.7575 135.988 22.8181 136.013C21.911 136.018 21.0039 136.023 20.0968 136.028C19.6492 136.032 19.2039 136.024 18.7564 136.027C18.7133 135.324 18.5988 134.471 18.5963 134.285C18.5548 133.172 18.5112 132.072 18.4577 130.957C18.0978 122.077 17.7498 113.199 17.3899 104.319C17.2933 101.968 13.6396 102.058 13.7361 104.41C14.0815 113.101 14.4292 121.78 14.7768 130.459C14.8616 132.473 14.9202 134.495 15.017 136.511C15.1068 138.365 15.7601 139.591 17.7627 139.703C22.0646 139.932 26.4701 139.671 30.782 139.579C39.3535 139.41 47.93 139.08 56.4897 138.574C60.8209 138.312 65.1468 138.011 69.4794 137.675C71.1794 137.544 73.1038 137.542 73.7238 135.609C73.967 134.835 73.8592 133.946 73.834 133.147Z" fill="#1E1E1E"/>
<path d="M62.6591 127.023C52.8371 127.642 43.0162 127.988 33.1799 128.084C42.4424 122.395 51.4824 116.367 60.2783 109.984C60.6658 109.969 61.0534 109.954 61.429 109.937C63.1801 109.866 63.4611 107.82 62.5045 106.823C62.155 105.765 60.9476 104.982 59.7839 105.833C59.5398 106.011 59.2837 106.187 59.0395 106.365C47.6377 106.802 36.235 107.177 24.8218 107.476C22.4649 107.534 22.7801 111.18 25.1369 111.122C34.6409 110.878 44.144 110.572 53.644 110.215C44.6869 116.532 35.4953 122.506 26.088 128.106C25.9396 128.103 25.7889 128.112 25.6525 128.112C24.3383 128.103 23.8655 129.244 24.1017 130.244C24.1613 131.459 25.5875 132.667 26.9956 131.837C27.0383 131.808 27.081 131.778 27.1214 131.761C39.0825 131.788 51.0407 131.429 62.9743 130.669C65.3108 130.52 65.0098 126.864 62.6591 127.023Z" fill="#1E1E1E"/>
</svg>
