<svg width="345" height="282" viewBox="0 0 345 282" fill="none" xmlns="http://www.w3.org/2000/svg">
<path d="M280.68 189.699C286.72 156.826 283.909 114.516 266.53 84.6684C248.872 54.704 216.73 37.3933 197.404 26.4837C178.078 15.5741 155.159 4.36866 126.889 1.41887C98.6183 -1.53093 65.1916 3.69878 43.3081 15.1071C21.3421 26.323 -1.68208 73.7588 0.849824 99.9388C3.18552 126.195 5.30909 159.452 20.0764 186.946C35.0399 214.364 84.9974 246.992 111.693 267.613C138.388 288.235 181.587 282.584 218.689 273.577C255.513 264.454 274.443 222.648 280.68 189.699Z" fill="#F5F5F5"/>
<path d="M268.972 171.706C269.287 173.398 270.629 174.277 272.243 174.611C277.158 175.608 283.62 175.313 288.694 174.966C294.688 174.559 300.376 175.574 306.331 175.957C310.666 176.243 318.131 177.003 321.964 174.651C325.104 172.715 323.973 169.102 323.33 166.106C323.55 163.421 323.197 160.52 323.121 158.039C323.086 157.052 323.05 156.054 323.025 155.053C323.316 152.678 323.616 150.288 323.919 147.911C324.301 144.823 325.732 140.238 323.789 137.396C321.932 134.688 317.917 134.59 314.945 134.361C309.962 133.996 304.837 134.204 299.839 134.228C295.101 134.252 290.378 134.348 285.645 134.595C283.395 134.715 280.556 134.598 277.947 134.921L277.935 134.923C273.34 134.512 269.94 134.784 269.544 140.667C269.111 147.016 269.308 153.483 269.51 159.913C269.525 160.258 269.527 160.605 269.542 160.95C269.437 161.652 269.319 162.356 269.216 163.071C268.774 166.033 268.465 169.044 268.972 171.706Z" fill="#F5F5F5"/>
<path d="M269.334 163.707C269.435 162.98 269.548 162.252 269.651 161.538C269.634 161.181 269.632 160.834 269.615 160.477C269.493 161.555 269.385 162.642 269.334 163.707Z" fill="#FBB03B"/>
<path d="M172.845 174.099C171.325 169.726 169.512 165.52 167.717 161.274C167.574 160.704 167.445 160.145 167.302 159.576C166.583 156.842 165.552 154.166 164.953 151.41C164.621 149.896 164.344 148.135 165.728 147.17C166.592 146.674 167.472 146.2 168.369 145.748C170.925 144.478 173.609 143.557 176.233 142.449C178.995 141.278 181.712 140.003 184.417 138.73C187.146 137.453 189.896 136.222 192.67 135.049C193.517 134.73 194.361 134.399 195.182 134.073C196.14 133.684 197.098 133.294 198.054 132.893C199.107 132.486 200.149 132.082 201.222 131.708C210.451 128.404 219.967 125.977 229.568 124.005C231.335 124.695 232.582 126.126 233.058 128.086C235.761 139.289 238.844 150.396 242.434 161.36C244.02 166.216 246.071 171.11 247.924 176.066C248.031 176.307 248.125 176.55 248.232 176.791C251.356 184.179 257.18 196.279 254.22 204.388C252.688 208.571 248.581 209.645 244.769 211.111C238.92 213.365 233.073 215.631 227.223 217.885C217.414 221.67 207.606 225.468 197.784 229.255C197.484 229.311 197.186 229.378 196.884 229.422C196.5 229.494 196.109 229.529 195.721 229.576C195.685 229.583 195.661 229.587 195.637 229.592C195.613 229.596 195.613 229.596 195.587 229.589C195.4 229.586 195.201 229.586 195.015 229.583C194.826 229.569 194.625 229.557 194.434 229.53C194.396 229.525 194.152 229.483 194.076 229.473C193.696 229.369 193.337 229.238 192.979 229.118C192.91 229.081 192.832 229.058 192.763 229.022C192.943 229.124 192.931 229.127 192.708 228.994C192.528 228.891 192.359 228.786 192.188 228.669C191.949 228.515 191.733 228.356 191.515 228.186C189.43 223.112 187.092 218.147 185.365 212.932C184.457 210.184 183.604 207.4 182.626 204.678C179.464 194.479 176.351 184.209 172.845 174.099Z" fill="#00A99D"/>
<path d="M215.696 89.7182C216.347 91.8813 217.086 94.0527 217.876 96.165C219.552 100.645 219.724 99.8307 222.064 104.274L222.349 104.804C224.041 108.027 225.788 111.352 228.95 112.601C232.3 113.927 236.256 112.174 240.09 110.493C240.904 110.131 281.147 95.983 281.932 95.6633L296.872 89.5591C297.011 89.5084 297.825 89.146 298.319 88.5328C299.177 91.6752 296.284 93.3426 293.583 94.304C279.253 99.4136 264.923 104.523 250.592 109.633C246.879 110.956 243.165 112.28 239.439 113.605C236.378 114.696 233.254 116.121 230.016 116.599C226.936 117.059 224.215 115.977 222.295 113.528C220.079 110.688 218.439 107.207 216.848 103.99C215.245 100.775 213.834 97.4625 212.621 94.0759C211.466 90.8647 210.743 87.7098 212.723 84.6729C213.089 84.1082 213.517 83.6066 213.974 83.1245C214.151 84.7425 214.687 86.4923 215.238 88.1897C215.373 88.7109 215.54 89.2135 215.696 89.7182Z" fill="#FBB03B"/>
<path d="M220.077 89.1769C219.682 87.9221 219.324 86.6606 218.975 85.3849L218.101 82.0221L220.086 81.2807C220.353 81.1814 220.608 81.0843 220.865 80.9992C221.099 80.9186 221.32 80.8403 221.469 80.7753C222.67 80.2913 223.871 79.8074 225.076 79.3474C227.764 78.314 269.931 63.5606 272.643 62.6591C275.37 61.7674 278.143 60.929 280.904 60.1551C281.094 60.1074 281.327 60.0268 281.572 59.944C282.123 59.7671 282.719 59.5694 283.336 59.4174C285.625 61.6482 286.882 64.6668 288.257 67.5266L293.104 77.5737C294.38 80.2287 295.776 82.8614 297.02 85.5471L236.274 108.062C236.1 108.131 235.884 108.234 235.645 108.353C234.563 108.876 233.207 109.526 231.854 109.393C229.834 109.21 228.676 107.253 227.901 105.957L227.777 105.756C225.288 101.651 224.912 102.367 222.795 96.9882C221.81 94.428 220.886 91.7945 220.077 89.1769Z" fill="#FBB03B"/>
<path d="M280.825 58.3948C280.533 58.3621 280.217 58.3961 279.878 58.5088C263.424 63.8145 247.041 69.3677 230.737 75.1422C227.266 76.3708 223.716 77.5027 220.346 79.0103C218.044 80.0466 215.706 81.2882 213.948 83.117C213.931 82.9588 213.9 82.7908 213.885 82.6446C213.706 79.7483 217.569 78.1612 222.242 76.5228C222.976 76.2623 223.688 76.0183 224.325 75.7756C229.284 73.873 273.824 58.3931 278.92 56.9615C283.768 55.6008 287.72 54.7544 290.682 57.3318C292.16 58.6086 293.007 60.4248 293.967 62.6543C295.018 65.1028 296.023 67.6345 296.95 70.0191C299.014 75.3082 299.118 75.537 300.939 81.1938C301.353 82.4824 300.128 83.1073 299.582 83.3081L297.643 84.0285L296.926 82.7717C296.851 82.6367 296.802 82.5092 296.758 82.4057C295.065 77.1719 295.127 77.3714 293.262 72.4799C292.347 70.093 291.395 67.7129 290.42 65.3372C290.334 65.1421 290.249 64.8849 290.147 64.6058C289.527 62.8716 288.688 60.4954 286.781 59.5839C285.718 59.074 284.507 59.1748 283.355 59.4512C283.156 59.2522 282.958 59.0533 282.752 58.8805C282.116 58.3285 281.428 58.233 280.825 58.3948Z" fill="#1E1E1E"/>
<path d="M298.054 87.8374C297.738 87.0767 297.387 86.3228 297.034 85.5568L297.498 85.3836L298.432 86.7989C298.553 86.9872 298.593 87.0668 298.598 87.0908C298.598 87.0908 298.598 87.0908 298.6 87.1028C298.779 87.6653 298.595 88.1463 298.293 88.5252C298.239 88.2994 298.16 88.0782 298.054 87.8374Z" fill="#1E1E1E"/>
<path d="M280.918 60.1648C278.155 60.9267 275.381 61.7651 272.657 62.6688C269.943 63.5582 227.778 78.3237 225.091 79.3571C223.885 79.817 222.684 80.301 221.483 80.7849C221.322 80.8522 221.113 80.9283 220.879 81.0089C220.634 81.0918 220.367 81.191 220.1 81.2903L218.115 82.0317L218.989 85.3946C219.338 86.6703 219.696 87.9318 220.091 89.1866C220.9 91.8042 221.824 94.4377 222.836 97.0054C224.953 102.384 225.329 101.668 227.817 105.774L227.941 105.974C228.716 107.27 229.874 109.227 231.894 109.41C233.245 109.531 234.601 108.882 235.686 108.37C235.914 108.265 236.129 108.151 236.314 108.079L297.06 85.5644C297.411 86.3183 297.75 87.0745 298.08 87.8449C298.175 88.088 298.253 88.3092 298.319 88.5327C297.825 89.146 297.021 89.4941 296.872 89.5591L281.932 95.6633C281.147 95.9829 240.916 110.128 240.09 110.493C236.27 112.184 232.312 113.925 228.95 112.601C225.788 111.352 224.041 108.027 222.349 104.804L222.064 104.274C219.726 99.8426 219.552 100.645 217.876 96.1649C217.088 94.0646 216.361 91.891 215.696 89.7182C215.54 89.2134 215.385 88.7086 215.214 88.1941C214.675 86.4945 214.127 84.7469 213.95 83.1289C215.708 81.3001 218.044 80.0465 220.349 79.0222C223.718 77.5145 227.268 76.3827 230.739 75.1541C247.041 69.3676 263.426 63.8264 279.88 58.5207C280.219 58.408 280.526 58.3882 280.827 58.4067C281.442 58.2427 282.118 58.3404 282.75 58.8684C282.97 59.0509 283.156 59.2521 283.353 59.4391C282.735 59.5911 282.137 59.7768 281.589 59.9656C281.341 60.0365 281.108 60.1171 280.918 60.1648Z" fill="#1E1E1E"/>
<path d="M231.413 100.277C232.045 94.7968 232.667 89.3312 233.299 83.8513C233.443 82.6206 234.891 82.128 235.888 82.5509C241.133 84.7907 245.971 87.913 250.184 91.7472C251.448 86.5967 252.725 81.4439 253.989 76.2933C254.329 74.9145 255.848 74.4085 256.974 75.2544C260.945 78.2524 264.75 81.4301 268.437 84.7665C269.624 79.6676 270.811 74.5686 272.01 69.4674C272.34 68.0406 273.868 67.6448 274.994 68.4285C280.365 72.1468 285.463 76.2013 290.289 80.5921C292.036 82.1788 289.662 84.9662 287.915 83.3794C283.806 79.6375 279.471 76.1487 274.967 72.8897C273.742 78.1198 272.53 83.3476 271.303 88.5657C271.005 89.8375 269.358 90.5906 268.318 89.6047C264.662 86.1634 260.841 82.9017 256.89 79.813C255.598 85.0804 254.294 90.3501 253.001 95.6176C252.707 96.8391 251.032 97.7092 250.017 96.6566C246.117 92.6399 241.623 89.3667 236.625 86.9196C236.093 91.599 235.55 96.2926 235.018 100.972C234.746 103.319 231.151 102.609 231.413 100.277Z" fill="#1E1E1E"/>
<path d="M171.355 153.199C171.433 151.013 172.21 149.254 174.268 148.301C176.746 147.145 179.452 146.344 182.019 145.395C187.213 143.486 192.425 141.611 197.642 139.76C208.08 136.081 218.566 132.53 229.106 129.131C231.787 128.26 234.47 127.401 237.155 126.555C239.02 125.972 241.011 125.329 242.961 125.872C245.382 126.54 246.319 128.711 247.164 130.851C248.168 133.382 249.17 135.902 250.175 138.434C251.221 141.057 252.253 143.67 253.299 146.294C254.165 148.479 250.769 149.842 249.901 147.645C248.008 142.871 246.103 138.098 244.21 133.324C243.808 132.294 243.488 131.112 242.893 130.18C242.333 129.303 241.625 129.236 240.647 129.381C238.46 129.701 236.278 130.653 234.194 131.326C231.862 132.069 229.537 132.849 227.207 133.605C231.918 141.319 230.876 151.468 224.118 157.851C222.198 159.673 219.843 161.029 217.47 162.153C215.039 163.3 212.428 164.344 209.724 164.623C204.801 165.116 199.687 162.914 195.806 159.999C191.52 156.774 189.657 151.894 188.81 146.801C184.728 148.28 180.648 149.771 176.589 151.308C175.581 151.694 175.119 151.879 175.029 153C174.928 154.124 175.08 155.275 175.285 156.379C175.716 158.694 176.6 160.913 177.396 163.124C179.114 167.893 180.83 172.651 182.549 177.421C185.365 185.226 188.17 193.034 190.986 200.839C192.476 197.434 193.975 194.015 195.465 190.61C196.433 188.407 197.399 186.192 198.355 183.991C199.104 182.275 199.705 179.767 201.994 179.727C204.01 179.687 206.372 180.576 208.343 181.029C210.419 181.512 212.487 182.021 214.535 182.621C217.959 183.611 221.286 184.879 224.472 186.459C225.277 183.38 226.185 180.319 227.253 177.315C227.84 175.666 228.327 173.813 229.197 172.286C230.144 170.633 231.615 170.67 233.268 171.144C240.397 173.17 247.381 175.819 254.177 178.789C251.54 171.682 248.708 164.662 245.669 157.729C244.659 155.435 243.627 153.156 242.583 150.88C241.59 148.744 245 147.39 245.981 149.528C250.597 159.532 254.8 169.723 258.552 180.085C260.462 185.353 262.259 190.68 263.936 196.028C264.751 198.607 265.529 201.193 266.286 203.796C266.908 205.939 268.301 208.821 267.767 211.092C267.199 213.445 264.49 214.097 262.536 214.87C259.913 215.917 257.287 216.951 254.662 217.985C249.503 220.012 244.327 222.017 239.149 224.01C228.791 227.984 218.405 231.876 207.979 235.688C206.004 236.416 203.147 238.138 201.055 237.038C199.116 236.02 198.611 232.701 197.93 230.841C196.036 225.595 194.156 220.359 192.262 215.113C188.445 204.527 184.641 193.951 180.824 183.365C178.93 178.119 177.05 172.882 175.156 167.636C173.445 163.039 171.179 158.197 171.355 153.199ZM216.695 137.086C212.874 138.368 209.056 139.661 205.254 140.976C203.248 141.672 201.233 142.381 199.227 143.077C199.43 143.3 199.584 143.594 199.643 143.98C200.106 146.873 201.563 149.569 204.105 151.157C206.593 152.718 209.598 152.792 212.192 151.454C214.797 150.113 217.171 147.723 218.085 144.896C218.949 142.265 218.357 139.285 216.695 137.086ZM199.4 158.027C201.655 159.408 204.261 160.674 206.914 160.987C209.679 161.305 212.359 160.434 214.859 159.324C219.733 157.164 223.863 154.075 225.678 148.884C227.339 144.131 226.461 138.87 223.591 134.786C222.492 135.152 221.379 135.508 220.268 135.876C221.608 138.072 222.267 140.618 222.093 143.22C221.883 146.362 220.376 149.138 218.238 151.397C216.019 153.746 212.911 155.726 209.628 156.026C206.652 156.307 203.587 155.449 201.2 153.621C198.359 151.431 196.587 148.173 196.02 144.654C195.991 144.498 195.988 144.35 195.999 144.211C194.753 144.654 193.51 145.108 192.264 145.551C193.075 150.651 194.787 155.186 199.4 158.027ZM217.371 228.319C222.19 226.53 227.004 224.716 231.816 222.89C232.396 222.671 232.963 222.454 233.541 222.222C227.983 219.035 222.079 216.521 215.923 214.723C215.084 214.482 214.233 214.243 213.386 214.028C213.321 214.015 213.066 213.976 212.794 213.915C212.401 215.875 212.03 217.818 211.637 219.778L209.377 231.258C209.68 231.152 209.981 231.034 210.284 230.928C212.644 230.067 215.001 229.194 217.371 228.319ZM198.194 220.912C199.059 223.295 199.912 225.681 200.777 228.065C201.188 229.205 201.601 230.357 202.011 231.498C202.217 232.068 202.422 232.638 202.627 233.208C202.68 233.359 202.738 233.535 202.807 233.708C202.829 233.692 202.851 233.675 202.882 233.644C203.323 233.277 204.347 233.111 204.869 232.915C205.124 232.818 205.382 232.733 205.625 232.638C205.528 232.383 205.496 232.079 205.565 231.718C206.486 227.054 207.394 222.391 208.314 217.727C208.702 215.743 208.798 213.255 209.651 211.433C210.64 209.338 212.862 210.141 214.608 210.586C222.818 212.684 230.651 216.094 237.872 220.548C245.358 217.679 252.836 214.775 260.292 211.812C261.389 211.372 262.522 210.988 263.596 210.49C264.133 210.241 264.121 210.244 264.119 209.698C264.118 209.09 263.755 208.338 263.595 207.747C262.912 205.342 262.205 202.941 261.486 200.542C260.425 197.041 259.297 193.576 258.131 190.106C258.03 190.1 257.93 190.094 257.825 190.064C251.753 188.586 245.77 186.781 239.902 184.595C239.328 184.379 238.598 184.192 238.025 183.914C237.993 184.007 237.978 184.059 237.975 184.047C237.513 185.635 237.066 187.233 236.658 188.848C235.854 192.001 235.167 195.183 234.557 198.374C234.337 199.532 234.105 200.755 232.916 201.299C231.68 201.864 230.176 201.051 229.009 200.647C225.983 199.596 222.982 198.478 220.009 197.306C217.116 196.168 214.262 194.973 211.412 193.728C209.991 193.098 208.581 192.454 207.17 191.81C206.899 191.687 206.611 191.542 206.316 191.423C206.269 191.506 206.237 191.599 206.19 191.682C205.898 192.581 205.367 193.461 204.97 194.33C201.977 200.869 199.135 207.48 196.452 214.148C196.343 214.429 196.185 214.644 196.005 214.814C196.734 216.863 197.47 218.886 198.194 220.912ZM192.939 206.335C193.373 207.533 193.809 208.743 194.243 209.941C195.711 206.354 197.219 202.784 198.782 199.241C199.76 197.023 200.762 194.802 201.781 192.601C202.577 190.877 203.286 188.076 205.502 187.714C207.563 187.38 210.064 189.15 211.865 189.957C214.083 190.935 216.308 191.887 218.552 192.81C220.89 193.766 223.232 194.683 225.605 195.558C226.698 195.963 227.789 196.356 228.88 196.749C229.466 196.963 230.257 197.349 231.013 197.606C231.085 197.195 231.17 196.782 231.242 196.372C231.437 195.417 231.632 194.462 231.839 193.505C232.247 191.629 232.672 189.775 233.147 187.924C233.628 186.035 234.135 184.153 234.706 182.284C235.137 180.864 236.009 179.746 237.662 179.96C239.354 180.179 241.145 181.199 242.755 181.781C244.444 182.386 246.152 182.962 247.868 183.512C250.811 184.454 253.782 185.279 256.769 186.052C256.767 186.04 256.764 186.028 256.748 186.007C256.326 184.806 255.892 183.609 255.459 182.411C255.044 182.786 254.451 182.933 253.761 182.627C247.553 179.883 241.21 177.476 234.739 175.451C234.014 175.226 233.304 175.011 232.579 174.785C232.462 174.757 232.319 174.722 232.178 174.698C232.151 174.753 232.134 174.794 232.107 174.848C231.484 176.441 230.888 178.042 230.344 179.657C229.213 182.983 228.238 186.354 227.421 189.771C227.119 191.019 225.573 191.182 224.656 190.657C221.316 188.783 217.735 187.413 214.081 186.318C212.293 185.781 210.492 185.309 208.672 184.865C207.722 184.632 206.763 184.414 205.818 184.204C204.923 183.998 203.722 183.949 202.894 183.569L202.61 183.51C202.509 183.901 202.207 184.342 202.051 184.706C201.606 185.72 201.162 186.733 200.729 187.745C199.884 189.677 199.039 191.609 198.194 193.541C196.426 197.581 194.659 201.634 192.879 205.676C192.854 205.743 192.813 205.788 192.788 205.854C192.827 205.996 192.882 206.16 192.939 206.335Z" fill="#1E1E1E"/>
<path d="M271.166 166.147C271.192 164.95 271.215 163.742 271.253 162.543C271.517 152.948 272.016 143.347 272.733 133.78C272.786 133.063 273.168 132.582 273.653 132.319C273.94 131.793 274.45 131.401 275.216 131.382C292.333 130.98 309.455 130.938 326.58 131.242C328.934 131.288 328.846 134.954 326.491 134.908C309.765 134.604 293.04 134.647 276.316 135.026C275.78 142.424 275.358 149.839 275.085 157.25C275.016 159.15 274.96 161.047 274.903 162.944C274.883 163.842 274.852 164.741 274.833 165.639C274.824 165.926 274.916 166.554 274.851 166.939C275.002 166.948 275.166 166.967 275.317 166.976C279.135 167.284 282.959 167.554 286.79 167.797C294.639 168.287 302.512 168.636 310.379 168.824C314.308 168.925 318.242 168.988 322.182 169.013C323.089 169.018 323.996 169.023 324.903 169.028C325.351 169.032 325.796 169.024 326.244 169.027C326.287 168.324 326.401 167.471 326.404 167.284C326.445 166.172 326.489 165.072 326.542 163.957C326.902 155.077 327.25 146.199 327.61 137.319C327.707 134.967 331.36 135.058 331.264 137.409C330.918 146.1 330.571 154.78 330.223 163.459C330.138 165.473 330.08 167.495 329.983 169.511C329.893 171.365 329.24 172.591 327.237 172.703C322.935 172.932 318.53 172.671 314.218 172.579C305.646 172.41 297.07 172.08 288.51 171.574C284.179 171.312 279.853 171.011 275.521 170.675C273.821 170.544 271.896 170.542 271.276 168.609C271.033 167.835 271.141 166.946 271.166 166.147Z" fill="#1E1E1E"/>
<path d="M282.341 160.022C292.163 160.642 301.984 160.988 311.82 161.083C302.558 155.395 293.518 149.367 284.722 142.984C284.334 142.969 283.947 142.954 283.571 142.937C281.82 142.865 281.539 140.82 282.496 139.823C282.845 138.765 284.052 137.982 285.216 138.833C285.46 139.011 285.716 139.187 285.96 139.365C297.362 139.802 308.765 140.177 320.178 140.476C322.535 140.534 322.22 144.18 319.863 144.122C310.359 143.878 300.856 143.571 291.356 143.215C300.313 149.531 309.505 155.506 318.912 161.105C319.06 161.103 319.211 161.112 319.347 161.111C320.662 161.103 321.134 162.244 320.898 163.244C320.839 164.459 319.412 165.667 318.004 164.837C317.962 164.807 317.919 164.778 317.879 164.761C305.917 164.787 293.959 164.429 282.026 163.668C279.689 163.519 279.99 159.864 282.341 160.022Z" fill="#1E1E1E"/>
</svg>
