<svg width="240" height="240" viewBox="0 0 240 240" fill="none" xmlns="http://www.w3.org/2000/svg">
<path d="M126.726 3.19251C126.93 2.88051 127.23 2.61651 127.686 2.48451C136.445 -0.0594839 145.468 3.16851 152.908 7.88449C154.276 8.76049 155.644 9.68448 156.976 10.6805C149.32 4.2485 139.937 0.0485156 129.845 0.000515718C117.87 -0.0594841 104.863 5.1245 94.5797 11.0525C92.8278 12.0605 91.1719 13.1765 89.624 14.4245C100.219 7.04449 113.515 3.5765 126.282 3.3365C126.426 3.2645 126.57 3.2165 126.726 3.19251Z" fill="#FBB03B"/>
<path d="M86.0721 56.9523C86.0241 57.2043 86.0001 57.4683 85.9641 57.7323C86.3361 55.8603 87.032 54.0003 87.812 52.1884C86.744 53.4004 86.3241 55.6563 86.0721 56.9523Z" fill="#FBB03B"/>
<path d="M103.135 88.9322C98.9235 86.4602 96.6196 82.3922 94.3277 78.2043C93.6678 77.0043 92.9478 75.8043 92.2039 74.6163C94.4357 81.6242 99.0674 87.4922 105.211 91.4642C104.911 90.4922 104.251 89.5922 103.135 88.9322Z" fill="#FBB03B"/>
<path d="M163.455 105.432C164.535 104.496 165.255 103.284 165.507 101.796C165.411 102.192 165.303 102.588 165.147 102.996C164.751 103.968 164.163 104.772 163.455 105.432Z" fill="#FBB03B"/>
<path d="M132.041 35.3284C132.797 34.9564 133.997 34.1284 135.257 33.4084C135.041 33.0604 134.849 32.7004 134.717 32.3044C132.113 33.9604 129.257 35.2084 126.27 36.0124C122.778 36.9484 119.178 37.2124 115.578 36.9244C111.715 36.6124 107.875 35.9044 103.987 36.2164C102.103 36.3724 100.243 36.7564 98.4434 37.3204C98.3114 37.3564 98.1674 37.4164 98.0354 37.4524C98.9353 37.2964 99.8353 37.1764 100.651 37.0684C111.391 35.5564 121.722 40.3444 132.041 35.3284Z" fill="#FBB03B"/>
<path d="M144.353 108.06C144.665 108.18 144.976 108.288 145.288 108.408C145.108 107.568 145.456 106.668 146.536 106.464C149.992 105.816 153.484 105.228 156.928 104.508C159.472 103.968 161.967 103.092 162.099 100.092C162.399 93.5282 160.096 87.2522 161.127 80.6642C162.087 74.5563 164.883 68.7483 167.163 63.2043C169.779 56.8683 172.383 50.2203 172.515 43.2724C172.647 36.3364 170.019 29.9044 165.927 24.4324C161.691 18.7564 156.016 13.9805 149.98 10.3445C144.533 7.06849 138.221 4.65649 131.885 5.35249C132.533 5.85649 133.121 6.42049 133.625 7.05649C133.937 7.45249 134.129 7.82448 134.153 8.34048C134.177 8.82048 133.937 9.27648 133.625 9.62448C133.325 9.96048 132.797 10.1525 132.353 10.1525C131.933 10.1525 131.357 9.96048 131.081 9.62448C130.661 9.10848 130.181 8.64048 129.665 8.22048C129.101 7.80048 128.502 7.45249 127.866 7.16449C127.674 7.09249 127.482 7.00849 127.278 6.94849C125.07 6.96049 122.862 7.08049 120.678 7.29649C105.607 8.76048 89.612 15.2165 80.7325 28.1524C76.5808 34.2124 74.025 41.4364 73.785 48.8163C73.665 52.5123 74.1209 56.1963 75.2609 59.7243C76.4248 63.3603 78.5127 66.4443 80.3846 69.7203C82.3884 73.2363 83.7683 76.9683 83.1444 81.0722C82.5564 84.9122 80.4206 88.3562 79.9646 92.2202C78.8727 101.448 89.8999 104.388 96.7035 105.876C97.5435 106.056 97.9394 106.656 97.9874 107.304C98.7434 107.16 99.4993 107.004 100.243 106.824C104.563 105.744 109.591 103.908 111.499 99.5882C111.271 99.0002 110.923 98.4482 110.419 97.9802C110.107 97.6922 109.795 97.4522 109.483 97.2002C107.059 96.1682 104.707 94.9322 102.547 93.4322C96.2595 89.0762 91.5558 82.7882 89.252 75.4803C89.18 75.3363 89.132 75.1803 89.108 75.0123C89 74.6283 88.88 74.2563 88.784 73.8603C88.748 73.7043 88.736 73.5603 88.736 73.4163C88.472 73.3803 88.2321 73.2963 87.9921 73.2003C86.7802 72.7323 85.9282 71.6883 85.3042 70.5843C83.9243 68.1483 83.1444 65.3883 82.8324 62.6043C82.5204 59.8443 82.7724 56.9643 83.5763 54.3003C83.9483 53.0523 84.4523 51.7083 85.2203 50.6163C86.1082 50.0403 86.9121 49.3203 87.5601 48.4803C88.34 47.4844 88.94 46.2604 88.928 44.9764C89.204 44.2444 89.48 43.5004 89.756 42.7684C90.4879 40.8124 91.0759 38.6524 92.5398 37.1044C93.7517 35.8084 95.4676 35.1004 97.1115 34.5484C98.9474 33.9364 100.831 33.5404 102.739 33.3004C106.795 32.7964 110.767 33.4444 114.798 33.8164C118.494 34.1644 122.13 33.9964 125.73 32.9884C129.161 32.0284 132.329 30.4204 135.173 28.2844C135.833 27.7924 136.865 28.1884 137.237 28.8244C137.465 29.2204 137.489 29.6404 137.357 30.0124C137.405 30.1564 137.429 30.3244 137.429 30.5044C137.405 31.1884 137.621 31.7404 137.993 32.1844C138.245 32.1244 138.497 32.0884 138.737 32.0764C138.497 32.1364 138.437 32.3404 138.473 32.6404C139.601 33.5284 141.401 33.8524 142.661 34.0204C145.18 34.3564 148 33.8044 150.292 35.1484C152.332 36.3484 153.508 38.5324 154.372 40.6564C154.648 41.6404 154.828 42.6484 155.044 43.6324C154.984 44.6404 154.828 45.6484 155.068 46.6324C155.08 46.6684 155.092 46.6924 155.104 46.7284C155.176 46.8964 155.248 47.0764 155.308 47.2444C155.5 47.6164 155.776 47.9403 156.136 48.1803C156.856 48.6483 157.732 48.6124 158.548 48.6603C159.34 48.7083 160.144 49.2003 160.611 49.8363C160.635 49.8603 160.659 49.8843 160.683 49.9083C162.483 52.4763 162.243 56.1963 162.063 59.2563C161.787 63.9603 161.007 68.7723 157.876 72.4803C156.592 74.0043 155.02 74.9403 153.244 75.7683C152.344 76.1883 151.768 76.6563 151.36 77.5803C151.024 78.3363 150.832 79.1402 150.568 79.9202C149.368 83.3402 147.484 86.4482 145.108 89.1722C143.981 90.4682 142.733 91.6562 141.413 92.7482C141.041 92.8922 140.705 93.0722 140.369 93.2762C140.261 93.4802 140.165 93.6842 140.081 93.8882C139.877 93.8762 139.685 93.9002 139.481 93.9122C139.361 94.0082 139.241 94.1042 139.121 94.2002C138.761 94.5122 138.401 94.8362 138.041 95.1482C137.993 95.1962 137.933 95.2322 137.885 95.2802C137.861 95.2922 137.861 95.3042 137.849 95.3042C137.849 95.3042 137.849 95.3042 137.837 95.3162C137.741 95.3882 137.645 95.4602 137.537 95.5322C137.333 95.6642 137.129 95.7962 136.913 95.9042C136.901 95.9162 136.889 95.9282 136.877 95.9402C136.781 96.0002 136.685 96.0602 136.577 96.1202C136.085 96.4082 135.569 96.6842 135.053 96.9602C134.861 97.4282 134.705 97.9202 134.657 98.4962C134.609 98.9522 134.597 99.3962 134.585 99.8282C136.289 103.92 140.393 106.524 144.353 108.06Z" fill="#FBB03B"/>
<path d="M158.884 61.6803C158.788 62.0283 158.692 62.3763 158.572 62.7003C157.612 65.2803 156.664 67.7763 155.812 70.2963C155.872 70.2243 155.932 70.1643 155.992 70.0923C157.852 67.6923 158.56 64.6803 158.884 61.6803Z" fill="#FBB03B"/>
<path d="M85.9641 62.9163C86.0241 63.3003 86.0721 63.6843 86.1441 64.0683C86.3961 65.2923 86.756 66.5043 87.26 67.6443C87.62 68.4603 88.1 69.7443 88.9039 70.2363C89.1199 70.3683 89.3719 70.4163 89.6119 70.4643C88.4959 68.6163 87.428 66.7563 86.576 64.8243C86.3121 64.1883 86.1081 63.5523 85.9641 62.9163Z" fill="#FBB03B"/>
<path d="M158.943 61.0563C158.991 60.5283 159.039 59.9883 159.063 59.4603C159.195 57.3483 159.735 53.8203 158.368 51.8043L156.796 51.4563C157 52.1163 157.192 52.7283 157.36 53.2563C158.152 55.6683 158.8 58.3683 158.943 61.0563Z" fill="#FBB03B"/>
<path d="M175.131 51.0844C173.271 59.2683 169.239 66.8163 166.659 74.7363C169.467 66.9363 173.571 59.1723 175.131 51.0844Z" fill="#FBB03B"/>
<path d="M150.952 40.1764C150.484 39.3364 149.92 38.5924 149.212 38.0404C148.012 37.1164 146.488 37.2964 145.072 37.2484C143.765 37.2004 142.433 37.0684 141.137 36.8284C143.357 38.9164 146.032 38.8084 149.14 39.3484C149.776 39.4564 150.376 39.7564 150.952 40.1764Z" fill="#FBB03B"/>
<path d="M90.2839 107.988C89.9119 107.88 89.5399 107.772 89.1679 107.652C85.6641 106.5 82.3883 104.748 79.9165 102.036C80.1685 102.432 80.4325 102.828 80.7445 103.212C82.1004 104.892 83.8882 106.26 85.9041 107.328C87.236 107.328 88.5679 107.58 89.8399 107.988C89.9839 108 90.1279 107.988 90.2839 107.988Z" fill="#FBB03B"/>
<path d="M188.342 233.7C189.962 233.748 191.246 232.584 191.858 231.108C192.553 229.428 192.686 226.656 192.05 224.928C191.822 224.304 191.15 224.46 190.43 224.424C189.194 224.364 187.97 224.304 186.734 224.244C181.622 224.004 176.51 223.8 171.399 223.644C161.355 223.332 151.324 223.2 141.281 223.212C120.93 223.224 100.591 223.524 80.2406 223.716C75.0929 223.764 69.9452 223.812 64.7976 223.86C62.3137 223.884 59.8299 223.908 57.346 223.932C55.4981 223.944 53.5903 223.872 51.7664 224.196C49.9665 226.944 50.6385 231.036 53.2543 233.628C55.3302 234.192 57.622 234.312 59.5539 234.468C79.5446 236.028 99.6194 235.224 119.634 234.444C139.649 233.664 159.712 232.908 179.714 234.528C181.13 234.648 181.802 235.86 181.754 236.976C183.35 236.952 184.946 236.892 186.542 236.808C185.93 235.5 186.53 233.64 188.342 233.7ZM57.31 229.5C57.31 229.884 57.2141 230.244 57.0221 230.58C56.9141 230.724 56.7941 230.868 56.6861 231.012C56.4221 231.276 56.1101 231.468 55.7501 231.564C55.5581 231.588 55.3782 231.612 55.1862 231.636C54.8982 231.648 54.6222 231.588 54.3702 231.456C54.1062 231.372 53.8783 231.216 53.6863 231.012C53.4823 230.82 53.3263 230.592 53.2423 230.316C53.1103 230.064 53.0503 229.788 53.0623 229.488V229.344C53.0623 228.96 53.1583 228.6 53.3503 228.264C53.4583 228.12 53.5783 227.976 53.6863 227.832C53.9503 227.568 54.2622 227.376 54.6222 227.28C54.8142 227.256 54.9942 227.232 55.1862 227.208C55.4742 227.196 55.7501 227.256 56.0021 227.388C56.2661 227.472 56.4941 227.628 56.6861 227.832C56.8901 228.024 57.0461 228.252 57.1301 228.528C57.262 228.78 57.322 229.056 57.31 229.356V229.5ZM65.7935 229.644C65.7935 230.028 65.6975 230.388 65.5055 230.724C65.3975 230.868 65.2775 231.012 65.1695 231.156C64.9055 231.42 64.5936 231.612 64.2336 231.708C64.0416 231.732 63.8616 231.756 63.6696 231.78C63.3816 231.792 63.1057 231.732 62.8537 231.6C62.5897 231.516 62.3617 231.36 62.1697 231.156C61.9657 230.964 61.8097 230.736 61.7257 230.46C61.5938 230.208 61.5338 229.932 61.5458 229.632V229.488C61.5458 229.104 61.6417 228.744 61.8337 228.408C61.9417 228.264 62.0617 228.12 62.1697 227.976C62.4337 227.712 62.7457 227.52 63.1057 227.424C63.2976 227.4 63.4776 227.376 63.6696 227.352C63.9576 227.34 64.2336 227.4 64.4856 227.532C64.7496 227.616 64.9775 227.772 65.1695 227.976C65.3735 228.168 65.5295 228.396 65.6135 228.672C65.7455 228.924 65.8055 229.2 65.7935 229.5V229.644ZM72.5491 231.924C69.8012 231.924 69.8012 227.628 72.5491 227.628C75.2969 227.628 75.2969 231.924 72.5491 231.924ZM173.571 229.632C173.559 229.92 173.475 230.184 173.319 230.436C173.271 230.532 173.223 230.628 173.175 230.712C172.983 231.036 172.731 231.288 172.407 231.48C172.239 231.552 172.071 231.624 171.903 231.696C171.531 231.804 171.147 231.804 170.775 231.696C170.607 231.624 170.439 231.552 170.271 231.48C170.019 231.348 169.827 231.156 169.671 230.928C169.479 230.724 169.359 230.472 169.287 230.196C169.203 229.908 169.191 229.62 169.251 229.344C169.263 229.056 169.347 228.792 169.503 228.54C169.551 228.444 169.599 228.36 169.647 228.264C169.839 227.94 170.091 227.688 170.415 227.496C170.583 227.424 170.751 227.352 170.919 227.28C171.291 227.172 171.675 227.172 172.047 227.28C172.215 227.352 172.383 227.424 172.551 227.496C172.803 227.628 172.995 227.82 173.151 228.048C173.343 228.252 173.463 228.504 173.535 228.78C173.631 229.068 173.643 229.356 173.571 229.632ZM178.862 231.504C176.115 231.504 176.115 227.208 178.862 227.208C181.61 227.208 181.598 231.504 178.862 231.504ZM186.362 227.208C189.11 227.208 189.11 231.504 186.362 231.504C183.614 231.504 183.626 227.208 186.362 227.208Z" fill="#00A99D"/>
<path d="M196.585 226.008C196.597 228.156 196.597 230.34 195.913 232.356C195.889 232.356 195.865 232.368 195.853 232.368C195.277 233.856 194.389 235.2 193.238 236.208C193.538 236.172 193.826 236.148 194.125 236.112C197.209 235.704 200.413 234.528 201.961 231.972C201.697 231.96 201.433 231.948 201.169 231.936C198.865 231.828 198.853 228.204 201.169 228.312C201.745 228.336 202.333 228.372 202.909 228.396C202.921 224.088 199.021 221.976 195.217 221.856C195.277 221.928 195.349 222 195.409 222.096C196.129 223.128 196.453 224.556 196.585 226.008Z" fill="#00A99D"/>
<path d="M106.195 121.248C105.271 122.952 104.395 124.692 103.603 126.468C103.423 126.864 103.255 127.272 103.075 127.68C103.039 127.764 102.883 128.148 102.859 128.196C102.787 128.388 102.703 128.568 102.631 128.76C102.427 129.264 102.247 129.78 102.055 130.296C106.759 130.236 111.475 130.176 116.178 130.116C116.13 129.816 116.154 129.504 116.214 129.192C116.502 127.656 116.79 126.12 117.078 124.572C117.09 124.5 117.126 124.44 117.15 124.38C114.99 123.984 112.854 123.456 110.755 122.784C109.255 122.292 107.731 121.788 106.195 121.248Z" fill="#00A99D"/>
<path d="M102.175 119.76C99.9553 118.884 97.7835 117.9 95.7076 116.76C95.6836 116.784 95.6716 116.82 95.6476 116.844C93.4277 119.22 91.2079 121.596 88.988 123.972C90.4039 125.028 91.8439 126.024 93.2958 126.96C94.8317 127.716 96.4396 128.34 98.0955 128.796C99.2714 125.7 100.627 122.676 102.175 119.76Z" fill="#FBB03B"/>
<path d="M137.933 129.828C137.141 128.04 136.265 126.288 135.269 124.62C135.173 124.464 135.113 124.296 135.065 124.128C130.505 125.112 125.862 125.352 121.242 124.92C121.266 125.184 121.242 125.448 121.194 125.712C120.93 127.164 120.654 128.604 120.39 130.056C122.526 130.032 124.65 129.996 126.785 129.972C130.505 129.924 134.213 129.876 137.933 129.828Z" fill="#FBB03B"/>
<path d="M88.3759 111.528C87.212 111.48 86.0481 111.384 84.8842 111.24C83.5043 111.816 82.0644 112.248 80.6005 112.548C80.3965 112.656 80.2045 112.764 80.0005 112.86C81.2964 115.968 83.1803 118.788 85.4842 121.188C85.5321 121.224 85.5801 121.26 85.6161 121.296C87.74 119.016 89.8759 116.736 91.9997 114.456C90.7278 113.58 89.5159 112.608 88.3759 111.528Z" fill="#00A99D"/>
<path d="M142.12 128.448C144.208 128.04 146.02 127.068 147.688 125.82C147.676 125.808 147.664 125.808 147.652 125.796C146.368 124.332 145.216 122.76 144.208 121.092C142.996 121.644 141.76 122.148 140.501 122.604C140.093 122.748 139.673 122.88 139.265 123.012C140.285 124.788 141.197 126.624 141.988 128.508C142.036 128.484 142.072 128.46 142.12 128.448Z" fill="#00A99D"/>
<path d="M118.794 134.376C117.966 134.388 117.126 134.4 116.298 134.412C117.114 134.412 117.942 134.4 118.794 134.376Z" fill="#FBB03B"/>
<path d="M150.664 122.748C150.736 122.832 150.808 122.928 150.868 123.024C152.896 121.08 154.912 119.052 156.496 116.724C156.052 116.52 155.68 116.112 155.452 115.668C154.96 115.452 154.456 115.248 153.952 115.056C152.08 116.568 150.088 117.924 148.024 119.124C148.516 119.928 149.032 120.708 149.596 121.452C149.932 121.884 150.292 122.328 150.664 122.748Z" fill="#FBB03B"/>
<path d="M186.362 227.208C183.614 227.208 183.614 231.504 186.362 231.504C189.109 231.504 189.109 227.208 186.362 227.208Z" fill="#1E1E1E"/>
<path d="M178.862 227.208C176.114 227.208 176.114 231.504 178.862 231.504C181.598 231.504 181.61 227.208 178.862 227.208Z" fill="#1E1E1E"/>
<path d="M173.151 228.048C172.995 227.82 172.803 227.628 172.551 227.496C172.383 227.424 172.215 227.352 172.047 227.28C171.675 227.172 171.291 227.172 170.919 227.28C170.751 227.352 170.583 227.424 170.415 227.496C170.091 227.688 169.839 227.94 169.647 228.264C169.599 228.36 169.551 228.444 169.503 228.54C169.347 228.792 169.263 229.056 169.251 229.344C169.191 229.632 169.203 229.92 169.287 230.196C169.347 230.472 169.479 230.724 169.671 230.928C169.827 231.156 170.019 231.348 170.271 231.48C170.439 231.552 170.607 231.624 170.775 231.696C171.147 231.804 171.531 231.804 171.903 231.696C172.071 231.624 172.239 231.552 172.407 231.48C172.731 231.288 172.983 231.036 173.175 230.712C173.223 230.616 173.271 230.532 173.319 230.436C173.475 230.184 173.559 229.92 173.571 229.632C173.631 229.344 173.619 229.056 173.535 228.78C173.475 228.504 173.343 228.264 173.151 228.048Z" fill="#1E1E1E"/>
<path d="M56.6861 227.844C56.4941 227.64 56.2661 227.484 56.0021 227.4C55.7501 227.268 55.4742 227.208 55.1862 227.22C54.9942 227.244 54.8142 227.268 54.6222 227.292C54.2622 227.388 53.9503 227.58 53.6863 227.844C53.5783 227.988 53.4583 228.132 53.3503 228.276C53.1583 228.612 53.0623 228.972 53.0623 229.356V229.5C53.0503 229.8 53.1103 230.076 53.2423 230.328C53.3263 230.592 53.4703 230.82 53.6863 231.024C53.8783 231.228 54.1062 231.384 54.3702 231.468C54.6222 231.6 54.8982 231.66 55.1862 231.648C55.3782 231.624 55.5581 231.6 55.7501 231.576C56.1101 231.468 56.4221 231.288 56.6861 231.024C56.7941 230.88 56.9141 230.736 57.0221 230.592C57.2141 230.256 57.31 229.896 57.31 229.512V229.368C57.322 229.068 57.262 228.792 57.1301 228.54C57.0461 228.264 56.9021 228.036 56.6861 227.844Z" fill="#1E1E1E"/>
<path d="M65.1694 227.976C64.9775 227.772 64.7495 227.616 64.4855 227.532C64.2335 227.4 63.9575 227.34 63.6695 227.352C63.4776 227.376 63.2976 227.4 63.1056 227.424C62.7456 227.52 62.4336 227.712 62.1696 227.976C62.0616 228.12 61.9417 228.264 61.8337 228.408C61.6417 228.744 61.5457 229.104 61.5457 229.488V229.632C61.5337 229.932 61.5937 230.208 61.7257 230.46C61.8097 230.724 61.9537 230.952 62.1696 231.156C62.3616 231.36 62.5896 231.516 62.8536 231.6C63.1056 231.732 63.3816 231.792 63.6695 231.78C63.8615 231.756 64.0415 231.732 64.2335 231.708C64.5935 231.612 64.9055 231.42 65.1694 231.156C65.2774 231.012 65.3974 230.868 65.5054 230.724C65.6974 230.388 65.7934 230.028 65.7934 229.644V229.5C65.8054 229.2 65.7454 228.924 65.6134 228.672C65.5174 228.408 65.3734 228.18 65.1694 227.976Z" fill="#1E1E1E"/>
<path d="M72.5492 227.628C69.8013 227.628 69.8013 231.924 72.5492 231.924C75.297 231.924 75.297 227.628 72.5492 227.628Z" fill="#1E1E1E"/>
<path d="M165.399 98.6162C165.639 99.8042 165.663 100.848 165.507 101.796C166.227 98.6762 165.075 95.5682 164.631 92.4002C163.731 86.0882 164.835 80.3162 166.659 74.7363C166.095 76.2963 165.579 77.8683 165.147 79.4282C163.203 86.4962 164.007 91.6682 165.399 98.6162Z" fill="#1E1E1E"/>
<path d="M188.342 237.984C190.286 238.032 191.93 237.336 193.225 236.196C190.982 236.472 188.75 236.652 186.506 236.772C186.806 237.444 187.418 237.96 188.342 237.984Z" fill="#1E1E1E"/>
<path d="M80.2645 87.9362C81.6925 84.6962 83.4563 81.8523 82.5444 78.2163C81.7164 74.9283 79.1966 71.9523 77.4687 69.1443C71.8171 59.9523 69.7052 46.7644 73.821 36.4804C75.0089 33.5044 77.0007 31.3804 78.7886 28.8124C80.3725 26.5204 81.4885 23.9404 83.0244 21.6124C84.8602 18.8285 87.0921 16.4645 89.6239 14.4245C86.6721 16.4765 83.9243 18.8165 81.4764 21.4924C70.8331 33.0964 66.4654 51.3964 73.9889 65.8203C75.9088 69.4923 78.7646 72.8883 79.6046 77.0403C80.4445 81.2523 78.0327 85.2362 76.9647 89.1722C75.8728 93.2042 76.3168 97.2722 78.8246 100.68C79.1726 101.148 79.5446 101.604 79.9286 102.024C77.1927 97.6442 78.2127 92.5802 80.2645 87.9362Z" fill="#1E1E1E"/>
<path d="M175.562 41.4004C175.958 44.7004 175.73 47.9164 175.13 51.0843C175.706 48.5524 176.078 45.9604 176.126 43.2724C176.39 29.7484 167.427 18.4324 156.976 10.6925C157.552 11.1725 158.116 11.6645 158.667 12.1685C166.647 19.4644 174.23 30.4204 175.562 41.4004Z" fill="#1E1E1E"/>
<path d="M171.603 238.272C174.303 238.416 176.991 238.596 179.678 238.812C180.986 238.92 181.658 237.984 181.718 236.964C173.331 237.108 164.931 236.568 156.544 236.424C145.253 236.232 133.997 237.12 122.718 237.396C111.319 237.684 99.9075 237.564 88.5082 237.288C82.6886 237.144 76.8689 236.952 71.0493 236.7C66.5256 236.508 61.4019 236.892 56.9982 235.764C55.4743 235.38 54.2144 234.6 53.2305 233.616C51.4186 233.124 49.7747 232.284 48.6827 230.76C47.8788 229.632 47.2548 227.964 47.7948 226.596C48.3828 225.084 50.0386 224.52 51.4785 224.22C51.5625 224.208 51.6465 224.196 51.7425 224.184C52.7385 222.672 54.4544 221.556 57.0462 221.364C62.5419 220.956 68.3735 221.892 73.9171 221.82C79.1488 221.76 84.3685 221.544 89.5882 221.364C101.095 220.98 112.615 220.764 124.134 220.74C146.741 220.68 169.359 221.316 191.93 222.612C192.566 222.18 193.358 221.904 194.294 221.856C194.594 221.844 194.894 221.844 195.193 221.856C194.81 221.388 194.354 221.052 193.85 220.812C193.91 220.728 193.958 220.656 194.006 220.572C195.877 216.444 197.077 212.112 197.869 207.684C198.193 207.552 198.505 207.312 198.733 206.928C201.085 202.908 203.449 198.888 205.801 194.856C207.913 191.244 209.953 187.536 209.689 183.204C209.413 178.752 207.397 174.624 205.729 170.568C203.953 166.248 202.177 161.94 200.413 157.62C200.401 157.584 200.377 157.56 200.365 157.536C200.317 153.552 200.197 149.58 199.969 145.608C199.885 144.108 199.777 142.62 199.657 141.132C199.357 137.364 199.465 132.372 195.133 130.98C193.106 130.332 190.742 130.296 188.63 130.104C188.198 130.068 187.778 130.032 187.346 130.008C183.086 125.34 177.363 122.652 171.795 119.928C167.703 117.936 163.803 115.632 159.784 113.544C159.28 113.364 158.776 113.184 158.26 113.004C155.32 111.588 152.188 110.664 149.08 109.692C152.14 109.14 155.224 108.624 158.26 107.94C160.18 107.508 162.052 106.752 163.443 105.456C162.388 106.368 160.996 107.04 159.352 107.508C151.42 109.752 134.525 112.536 134.621 99.8762C134.477 99.5042 134.333 99.1322 134.225 98.7482C134.105 98.3042 133.865 97.9922 133.565 97.7762C132.629 98.2202 131.67 98.6282 130.698 98.9882C130.674 99.2042 130.686 99.4442 130.758 99.7082C132.221 105 136.673 108.624 141.497 110.784C143.933 111.876 146.489 112.644 149.044 113.424C142.805 117.816 135.329 120.432 127.746 120.876C123.21 121.14 118.734 120.648 114.355 119.424C109.711 118.116 105.031 116.436 100.627 114.444C98.7076 113.58 96.8117 112.572 95.0238 111.408C97.4717 111.168 99.9075 110.712 102.307 110.052C107.935 108.492 113.623 105.516 115.411 99.5042C115.435 99.4322 115.435 99.3602 115.447 99.3002C114.715 99.0962 114.007 98.8802 113.299 98.6522C112.891 98.5202 112.483 98.3522 112.075 98.2082C112.027 98.3162 111.979 98.4242 111.943 98.5442C111.835 98.9162 111.691 99.2642 111.547 99.6002C112.207 101.34 111.727 103.428 110.467 104.82C104.911 110.976 93.6079 111.456 85.9044 107.376C85.2564 107.376 84.6085 107.412 83.9725 107.544C83.3606 107.448 82.8446 107.64 82.4606 107.964C81.0927 108.408 79.7728 109.008 78.4529 109.608C78.4289 109.632 78.4169 109.656 78.3929 109.68C73.1372 112.476 67.8935 115.536 63.2738 119.292C59.3981 122.448 56.1943 126.444 53.8784 130.896C50.9386 130.884 47.9628 130.908 45.155 131.58C41.2912 132.504 38.6274 135.084 37.2475 138.78C35.8076 142.656 35.4596 147.156 35.7596 151.26C35.9276 153.444 36.2875 155.616 36.8395 157.74C37.5355 160.404 41.6512 159.276 40.9432 156.6C39.8993 152.616 39.6113 148.428 40.2473 144.348C40.7632 141.048 41.6512 137.316 45.107 136.056C47.7228 135.108 50.6986 135.168 53.5304 135.204C54.1664 135.696 55.0543 135.816 55.6423 135.216C55.6543 135.216 55.6663 135.216 55.6903 135.216C60.13 135.156 64.5577 135.108 68.9975 135.048C84.7525 134.844 100.507 134.64 116.274 134.448C107.599 134.292 100.172 131.412 93.2839 126.996C91.7 126.216 90.1881 125.28 88.7842 124.212C88.8442 124.14 88.9162 124.068 88.9762 124.008C87.8363 123.156 86.7203 122.28 85.6044 121.368C85.5924 121.38 85.5924 121.38 85.5804 121.392C85.5444 121.356 85.5084 121.308 85.4604 121.26C83.9005 119.976 82.3646 118.644 80.8287 117.264C76.941 113.772 81.5606 108.288 85.7124 109.8C86.6363 109.644 87.6443 109.824 88.6882 110.508C99.1036 117.396 111.055 120.468 123.006 123.432C123.87 123.648 124.554 124.032 125.058 124.536C129.066 123.852 133.025 122.784 136.913 121.632C141.497 120.276 147.46 119.076 150.4 114.912C153.784 110.112 161.692 114.72 158.284 119.556C154.36 125.124 148.768 127.572 142.469 129.552C135.293 131.82 127.938 133.752 120.414 134.352C119.862 134.4 119.322 134.4 118.77 134.424C119.574 134.412 120.378 134.4 121.17 134.388C138.509 134.172 155.848 133.716 173.187 133.776C177.555 133.788 181.91 133.896 186.266 134.22C188.354 134.376 190.442 134.556 192.518 134.844C193.058 134.916 193.862 134.928 194.318 135.3C194.846 135.732 194.941 136.692 195.038 137.316C195.661 141.624 195.757 146.088 195.925 150.432C196.081 154.68 196.129 158.94 196.093 163.188C196.021 172.884 195.565 182.568 195.109 192.24C194.678 201.096 194.054 210.264 190.334 218.436C190.082 218.988 190.022 219.6 190.166 220.152C189.89 220.14 189.614 220.128 189.35 220.116C178.347 219.552 167.319 219.204 156.304 219.036C134.321 218.724 112.327 219.144 90.3441 219.348C79.3408 219.456 68.3255 219.552 57.3222 219.66C55.2103 219.684 52.8705 219.636 50.6866 220.044C46.5349 203.184 43.919 185.988 42.8991 168.648C42.7431 165.9 38.4714 165.888 38.6394 168.648C38.7954 171.396 38.9634 174.156 39.2393 176.892C36.5755 183.156 35.8915 189.984 35.3516 196.74C35.0756 200.208 35.3156 203.472 36.7075 206.688C38.0274 209.76 40.1153 212.424 42.3711 214.86C43.2591 215.82 44.447 215.424 45.047 214.608C45.071 214.692 45.083 214.764 45.095 214.848C45.239 215.496 46.9548 221.4 46.6789 221.592C46.2589 221.88 45.8509 222.204 45.4789 222.576C42.3351 225.744 43.0671 230.628 45.6709 233.856C48.6347 237.54 53.6504 238.284 58.0421 238.668C63.3938 239.136 68.7575 239.4 74.1331 239.544C84.9324 239.844 95.7438 239.616 106.531 239.256C128.202 238.476 149.908 237.144 171.603 238.272ZM199.777 184.224C200.005 179.148 200.197 174.072 200.305 168.984C200.317 168.252 200.329 167.52 200.341 166.788L201.949 170.688C203.509 174.504 205.597 178.488 206.065 182.628C206.533 186.744 204.409 190.104 202.417 193.5L198.949 199.416C199.405 194.352 199.549 189.228 199.777 184.224ZM83.8525 125.592C83.9365 125.712 84.0205 125.832 84.1405 125.928C84.2725 126.048 84.4045 126.144 84.5605 126.228C86.4204 127.86 88.4722 129.288 90.6561 130.44C84.1525 130.524 77.6489 130.608 71.1573 130.692C66.7776 130.752 62.3979 130.8 58.0182 130.86C60.07 127.428 62.6859 124.368 65.8177 121.824C69.0335 119.208 72.6212 116.976 76.269 114.912C78.0329 118.956 80.6487 122.604 83.8525 125.592ZM154.468 129.624C152.848 129.648 151.24 129.66 149.62 129.684C150.928 128.748 152.164 127.692 153.316 126.6C156.028 124.032 158.764 121.272 160.708 118.032C163.779 119.712 166.827 121.476 169.983 123.024C173.991 124.98 178.095 126.888 181.61 129.612C172.575 129.228 163.515 129.504 154.468 129.624ZM40.0073 205.26C38.6994 202.32 38.7234 199.284 38.9993 196.128C39.2873 192.708 39.5993 189.228 40.2593 185.82C41.1592 193.188 42.2151 200.52 43.6551 207.828C43.907 209.136 44.195 210.432 44.471 211.728C42.6951 209.796 41.0752 207.684 40.0073 205.26Z" fill="#1E1E1E"/>
<path d="M110.455 104.772C111.714 103.38 112.194 101.292 111.534 99.5522C109.615 103.884 104.587 105.72 100.279 106.788C99.5352 106.98 98.7792 107.124 98.0233 107.268C97.9753 106.62 97.5793 106.02 96.7394 105.84C89.9358 104.34 78.9085 101.412 80.0004 92.1842C80.4564 88.3202 82.5923 84.8882 83.1802 81.0362C83.8042 76.9323 82.4243 73.2003 80.4204 69.6843C78.5485 66.4083 76.4727 63.3243 75.2967 59.6883C74.1688 56.1603 73.7008 52.4763 73.8208 48.7803C74.0608 41.4004 76.6166 34.1644 80.7684 28.1164C89.6358 15.1805 105.643 8.72448 120.714 7.26049C122.898 7.04449 125.106 6.92449 127.313 6.91249C127.505 6.97249 127.709 7.05649 127.901 7.12849C128.537 7.41649 129.137 7.77648 129.701 8.18448C130.217 8.60448 130.697 9.07248 131.117 9.58848C131.393 9.92448 131.969 10.1165 132.389 10.1165C132.833 10.1165 133.361 9.92448 133.661 9.58848C133.973 9.24048 134.213 8.78448 134.189 8.30448C134.165 7.80048 133.985 7.41649 133.661 7.02049C133.157 6.39649 132.557 5.82049 131.921 5.31649C138.257 4.6205 144.568 7.03249 150.016 10.3085C156.052 13.9325 161.727 18.7204 165.963 24.3964C170.055 29.8804 172.683 36.3124 172.551 43.2364C172.419 50.1963 169.815 56.8323 167.199 63.1683C164.919 68.7003 162.123 74.5203 161.163 80.6282C160.131 87.2042 162.435 93.4922 162.135 100.056C161.991 103.056 159.507 103.932 156.964 104.472C153.52 105.204 150.04 105.78 146.572 106.428C145.492 106.632 145.144 107.532 145.324 108.372C145.012 108.264 144.7 108.144 144.388 108.024C140.429 106.488 136.325 103.896 134.657 99.8162C134.561 112.476 151.456 109.68 159.387 107.448C161.031 106.98 162.435 106.308 163.479 105.396C164.187 104.736 164.775 103.944 165.171 102.96C165.327 102.564 165.435 102.168 165.531 101.76C165.687 100.824 165.663 99.7682 165.423 98.5802C164.031 91.6322 163.227 86.4602 165.159 79.3922C165.591 77.8203 166.107 76.2603 166.671 74.7003C169.251 66.7803 173.283 59.2323 175.142 51.0483C175.754 47.8803 175.982 44.6644 175.574 41.3644C174.242 30.3844 166.659 19.4284 158.679 12.1325C158.128 11.6285 157.564 11.1365 156.988 10.6565C155.644 9.66048 154.288 8.73648 152.92 7.86048C145.48 3.1445 136.457 -0.0834892 127.697 2.4605C127.241 2.5925 126.941 2.8565 126.737 3.1685C126.581 3.1925 126.437 3.2405 126.294 3.3005C113.526 3.5405 100.219 7.00849 89.6358 14.3885C87.104 16.4165 84.8601 18.7804 83.0363 21.5764C81.5003 23.9044 80.3844 26.4724 78.8005 28.7764C77.0246 31.3564 75.0207 33.4804 73.8328 36.4444C69.7291 46.7284 71.829 59.9043 77.4806 69.1083C79.2085 71.9163 81.7403 74.9043 82.5563 78.1803C83.4682 81.8162 81.7043 84.6602 80.2764 87.9002C78.2365 92.5442 77.2046 97.6082 79.9285 102C82.4123 104.712 85.6881 106.464 89.1799 107.616C89.5518 107.736 89.9238 107.844 90.2958 107.952C90.1518 107.952 89.9958 107.964 89.8518 107.964C88.5799 107.544 87.248 107.304 85.9161 107.304C93.6076 111.42 104.911 110.928 110.455 104.772Z" fill="#1E1E1E"/>
<path d="M179.678 234.516C159.688 232.896 139.613 233.652 119.598 234.432C99.5833 235.212 79.5086 236.028 59.5179 234.456C57.586 234.3 55.2941 234.192 53.2183 233.616C54.2142 234.6 55.4741 235.38 56.986 235.764C61.4018 236.892 66.5254 236.508 71.0371 236.7C76.8568 236.952 82.6764 237.144 88.496 237.288C99.8953 237.564 111.307 237.684 122.706 237.396C133.985 237.12 145.24 236.232 156.532 236.424C164.907 236.568 173.319 237.108 181.706 236.964C181.778 235.848 181.094 234.624 179.678 234.516Z" fill="#1E1E1E"/>
<path d="M194.305 221.856C193.369 221.904 192.577 222.18 191.942 222.612C169.371 221.328 146.764 220.68 124.146 220.74C112.627 220.776 101.107 220.98 89.6 221.364C84.3803 221.544 79.1487 221.76 73.929 221.82C68.3854 221.88 62.5537 220.944 57.0581 221.364C54.4662 221.556 52.7383 222.672 51.7544 224.184C53.5783 223.86 55.4862 223.932 57.334 223.92C59.8179 223.896 62.3017 223.872 64.7856 223.848C69.9333 223.8 75.0809 223.752 80.2286 223.704C100.579 223.512 120.918 223.212 141.269 223.2C151.312 223.188 161.355 223.32 171.387 223.632C176.499 223.788 181.61 223.992 186.722 224.232C187.958 224.292 189.182 224.352 190.418 224.412C191.15 224.448 191.81 224.304 192.038 224.916C192.686 226.644 192.542 229.416 191.846 231.096C191.246 232.56 189.962 233.724 188.33 233.688C186.518 233.64 185.906 235.488 186.494 236.772C188.738 236.652 190.982 236.472 193.213 236.196C194.365 235.188 195.265 233.844 195.829 232.356C195.853 232.356 195.877 232.344 195.889 232.344C196.561 230.328 196.573 228.144 196.561 225.996C196.441 224.556 196.105 223.116 195.373 222.072C195.313 221.988 195.253 221.916 195.181 221.832C194.905 221.832 194.605 221.832 194.305 221.856Z" fill="#1E1E1E"/>
<path d="M142.493 129.504C148.792 127.524 154.384 125.076 158.308 119.508C161.716 114.672 153.796 110.064 150.424 114.864C147.485 119.04 141.509 120.24 136.937 121.584C133.049 122.736 129.09 123.792 125.082 124.488C124.578 123.996 123.894 123.6 123.03 123.384C111.067 120.42 99.1155 117.348 88.7122 110.46C87.6803 109.776 86.6603 109.596 85.7364 109.752C81.5847 108.24 76.9649 113.724 80.8527 117.216C82.3886 118.596 83.9365 119.928 85.4844 121.212C83.1806 118.812 81.2967 115.992 80.0008 112.884C80.2048 112.776 80.3967 112.668 80.6007 112.572C82.0646 112.272 83.5046 111.84 84.8845 111.264C86.0484 111.396 87.2123 111.492 88.3762 111.552C89.5041 112.62 90.7161 113.604 92 114.492C89.8761 116.772 87.7403 119.052 85.6164 121.332C86.7323 122.244 87.8603 123.132 88.9882 123.972C91.208 121.596 93.4279 119.22 95.6477 116.844C95.6717 116.82 95.6838 116.796 95.7078 116.76C97.7836 117.888 99.9555 118.884 102.175 119.76C100.627 122.676 99.2715 125.7 98.1076 128.796C96.4517 128.34 94.8438 127.716 93.3079 126.96C100.195 131.376 107.611 134.256 116.298 134.412C117.126 134.4 117.966 134.388 118.794 134.376C119.346 134.352 119.886 134.34 120.438 134.304C127.962 133.692 135.305 131.76 142.493 129.504ZM153.952 115.044C154.456 115.236 154.96 115.44 155.452 115.656C155.68 116.112 156.052 116.508 156.496 116.712C154.912 119.04 152.896 121.068 150.868 123.012C150.808 122.916 150.736 122.832 150.664 122.736C150.292 122.316 149.932 121.872 149.584 121.428C149.02 120.672 148.504 119.904 148.012 119.1C150.088 117.912 152.068 116.556 153.952 115.044ZM140.501 122.592C141.761 122.148 142.997 121.644 144.209 121.08C145.205 122.748 146.369 124.332 147.652 125.784C147.664 125.796 147.676 125.796 147.688 125.808C146.021 127.056 144.209 128.04 142.121 128.436C142.073 128.448 142.037 128.472 141.989 128.484C141.185 126.6 140.285 124.764 139.265 122.988C139.673 122.868 140.093 122.736 140.501 122.592ZM117.09 124.572C116.802 126.108 116.514 127.644 116.226 129.192C116.166 129.504 116.154 129.816 116.19 130.116C111.487 130.176 106.771 130.236 102.067 130.296C102.259 129.78 102.439 129.264 102.643 128.76C102.715 128.568 102.799 128.388 102.871 128.196C102.895 128.148 103.051 127.764 103.087 127.68C103.255 127.272 103.435 126.876 103.615 126.468C104.407 124.692 105.271 122.952 106.207 121.248C107.731 121.776 109.267 122.28 110.767 122.772C112.879 123.456 115.015 123.984 117.162 124.368C117.138 124.44 117.102 124.512 117.09 124.572ZM121.206 125.712C121.254 125.448 121.278 125.172 121.254 124.92C125.874 125.352 130.518 125.112 135.077 124.128C135.125 124.296 135.185 124.464 135.281 124.62C136.277 126.3 137.153 128.04 137.945 129.828C134.225 129.876 130.506 129.924 126.798 129.972C124.662 129.996 122.538 130.032 120.402 130.056C120.666 128.616 120.93 127.164 121.206 125.712Z" fill="#1E1E1E"/>
<path d="M91.5319 71.6643C91.1839 71.1603 90.692 70.7763 90.116 70.5843C89.96 70.5243 89.792 70.5003 89.624 70.4763C90.476 71.8683 91.3519 73.2483 92.2039 74.6283C92.1919 74.5923 92.1799 74.5683 92.1679 74.5323C92.2159 73.5363 92.1079 72.4923 91.5319 71.6643Z" fill="#1E1E1E"/>
<path d="M150.952 40.1764C151.936 41.9284 152.464 44.0764 152.788 45.8284C152.824 45.9964 152.848 46.1764 152.872 46.3444C152.98 46.4644 153.052 46.6204 153.04 46.7884C153.016 47.0404 153.016 47.2804 153.04 47.5324C153.04 47.5564 153.052 47.6524 153.052 47.6524C153.052 47.6884 153.064 47.7244 153.076 47.7604C153.1 47.8804 153.124 48.0004 153.16 48.1204C153.196 48.2524 153.232 48.3844 153.28 48.5164C153.304 48.5884 153.328 48.6484 153.352 48.7204C153.352 48.7324 153.388 48.7924 153.4 48.8284C153.508 49.0684 153.616 49.2964 153.748 49.5244C153.82 49.6444 153.892 49.7764 153.976 49.8844C154.012 49.9444 154.06 50.0044 154.096 50.0644C154.108 50.0764 154.12 50.0884 154.132 50.1004C154.132 50.1004 154.132 50.1004 154.144 50.1124C154.312 50.3164 154.492 50.5204 154.684 50.7004C154.732 50.7484 154.78 50.7964 154.84 50.8324C154.852 50.8444 154.912 50.8924 154.936 50.9044C155.02 50.9644 155.104 51.0244 155.188 51.0844C155.368 51.1324 155.548 51.1684 155.728 51.2044L156.82 51.4444C156.412 50.1724 155.944 48.7084 155.38 47.2444C155.296 47.0764 155.224 46.9084 155.176 46.7284C154.072 44.0644 152.704 41.4844 150.952 40.1764Z" fill="#1E1E1E"/>
<path d="M85.9644 57.7323C85.6284 59.4483 85.5684 61.1883 85.9644 62.9163C85.7244 61.2003 85.7124 59.4483 85.9644 57.7323Z" fill="#1E1E1E"/>
<path d="M140.273 36.6604C140.549 36.7204 140.837 36.7804 141.113 36.8284C140.753 36.4804 140.393 36.0844 140.057 35.6164C139.625 35.0044 138.629 33.4804 138.509 32.6404C138.329 32.4964 138.173 32.3404 138.029 32.1724C137.165 32.3764 136.193 32.8564 135.245 33.3964C136.313 35.1004 138.281 36.2044 140.273 36.6604Z" fill="#1E1E1E"/>
<path d="M88.76 51.4683C89.2159 51.0483 89.6599 50.6283 90.0799 50.1844C90.3079 49.7164 90.5718 49.2603 90.8478 48.8164C90.8118 48.7924 90.7878 48.7804 90.7518 48.7564C91.2678 47.3764 91.7838 45.9844 92.3117 44.6044C92.9237 42.9604 93.3917 40.9684 94.4476 39.5404C95.2995 38.4004 96.7154 37.8484 98.0474 37.4284C96.2835 37.7404 94.5196 38.2684 93.3677 39.4804C91.7598 41.1724 90.9318 45.0844 90.0079 47.2564C89.3359 48.8524 88.544 50.5083 87.812 52.1883C88.088 51.8763 88.388 51.6123 88.76 51.4683Z" fill="#1E1E1E"/>
<path d="M139.505 93.9362C139.793 93.7082 140.093 93.4922 140.393 93.3002C140.825 92.4482 141.401 91.6202 142.133 90.8522C144.497 88.4042 145.444 87.5402 146.344 84.2043C146.872 82.2363 147.352 80.2323 148.372 78.4443C150.124 75.3843 153.16 73.6203 155.5 71.1843C155.596 70.8843 155.704 70.5963 155.812 70.2963C154.78 71.5443 153.52 72.3723 152.032 73.0323C150.256 73.8123 149.176 75.0123 148.468 76.8123C147.856 78.3603 147.436 79.9563 146.704 81.4563C145.996 82.9083 145.144 84.3003 144.173 85.5963C140.249 90.8282 134.417 94.5842 128.25 96.5402C126.186 97.2002 124.17 97.5962 122.01 97.4042C120.15 97.2482 118.278 96.8162 116.466 96.3362C112.963 95.4122 109.579 94.0682 106.435 92.2322C106.015 91.9802 105.619 91.7042 105.211 91.4402C105.559 92.5322 105.463 93.7202 105.019 94.7762C106.639 95.2802 108.091 96.0242 109.519 97.1522C110.359 97.5122 111.211 97.8362 112.063 98.1482C112.927 96.4202 115.806 97.2722 115.434 99.2402C118.854 100.212 122.502 100.872 125.97 100.272C127.554 99.9962 129.15 99.5402 130.697 98.9642C130.853 97.6442 132.545 97.0322 133.565 97.7522C134.081 97.5122 134.585 97.2602 135.077 96.9962C135.881 95.0882 137.681 94.0682 139.505 93.9362Z" fill="#1E1E1E"/>
<path d="M158.98 61.3683C158.98 61.2603 158.956 61.1523 158.956 61.0443C158.932 61.2483 158.908 61.4643 158.884 61.6803C158.908 61.5723 158.956 61.4763 158.98 61.3683Z" fill="#1E1E1E"/>
<path d="M105.211 91.4642C99.0673 87.4922 94.4356 81.6243 92.2037 74.6163C91.3518 73.2363 90.4639 71.8563 89.6239 70.4643C89.3719 70.4163 89.1319 70.3803 88.916 70.2363C88.112 69.7443 87.632 68.4603 87.2721 67.6443C86.7681 66.5043 86.4081 65.2923 86.1561 64.0683C86.0722 63.6843 86.0241 63.3003 85.9761 62.9163C85.5802 61.1883 85.6401 59.4483 85.9761 57.7323C86.0121 57.4683 86.0362 57.2043 86.0842 56.9523C86.3361 55.6563 86.7561 53.4123 87.824 52.1883C88.544 50.5084 89.3359 48.8644 90.0199 47.2564C90.9318 45.0844 91.7718 41.1724 93.3797 39.4804C94.5316 38.2684 96.2835 37.7524 98.0594 37.4284C98.1914 37.3804 98.3354 37.3324 98.4673 37.2964C100.267 36.7324 102.127 36.3484 104.011 36.1924C107.899 35.8804 111.739 36.5884 115.602 36.9004C119.202 37.1884 122.802 36.9244 126.294 35.9884C129.269 35.1964 132.125 33.9364 134.741 32.2804C134.873 32.6764 135.065 33.0364 135.281 33.3844C136.229 32.8444 137.201 32.3524 138.065 32.1604C137.705 31.7164 137.489 31.1644 137.501 30.4804C137.501 30.3004 137.477 30.1324 137.429 29.9884C137.561 29.6164 137.537 29.1964 137.309 28.8004C136.937 28.1524 135.893 27.7564 135.245 28.2604C132.401 30.4084 129.221 32.0164 125.802 32.9644C122.214 33.9604 118.578 34.1284 114.87 33.7924C110.839 33.4204 106.855 32.7724 102.811 33.2764C100.903 33.5164 99.0073 33.9124 97.1835 34.5244C95.5396 35.0764 93.8236 35.7844 92.6117 37.0804C91.1598 38.6284 90.5599 40.7884 89.8279 42.7444C89.5519 43.4764 89.2759 44.2204 89 44.9524C89.012 46.2484 88.412 47.4604 87.632 48.4564C86.9841 49.2844 86.1801 50.0164 85.2922 50.5924C84.5242 51.6844 84.0202 53.0283 83.6483 54.2763C82.8563 56.9403 82.5923 59.8083 82.9043 62.5803C83.2163 65.3523 83.9843 68.1243 85.3762 70.5603C86.0001 71.6643 86.8521 72.7083 88.064 73.1763C88.304 73.2723 88.544 73.3563 88.808 73.3923C88.808 73.5363 88.82 73.6803 88.856 73.8363C88.952 74.2203 89.0719 74.6043 89.1799 74.9883C89.2039 75.1683 89.2519 75.3243 89.3239 75.4563C91.6158 82.7643 96.3195 89.0522 102.619 93.4082C104.791 94.9082 107.131 96.1442 109.555 97.1762C108.127 96.0482 106.675 95.3042 105.055 94.8002C105.463 93.7322 105.559 92.5562 105.211 91.4642ZM117.174 36.0724C117.174 36.0604 117.186 36.0604 117.198 36.0484C117.186 36.0604 117.174 36.0724 117.174 36.0844C117.162 36.0844 117.162 36.0844 117.174 36.0724Z" fill="#1E1E1E"/>
<path d="M158.368 51.8043C159.736 53.8203 159.196 57.3483 159.064 59.4603C159.028 59.9883 158.992 60.5163 158.944 61.0563C158.944 61.1643 158.968 61.2723 158.968 61.3803C158.944 61.4883 158.908 61.5843 158.872 61.6923C158.548 64.6923 157.852 67.7043 155.98 70.1043C155.92 70.1763 155.86 70.2363 155.8 70.3083C155.704 70.6083 155.584 70.8963 155.488 71.1963C153.148 73.6203 150.112 75.3963 148.36 78.4562C147.34 80.2442 146.86 82.2602 146.332 84.2162C145.433 87.5522 144.497 88.4162 142.121 90.8642C141.389 91.6202 140.813 92.4482 140.381 93.3122C140.717 93.1082 141.053 92.9162 141.425 92.7842C142.757 91.6922 144.005 90.4922 145.121 89.2082C147.496 86.4842 149.368 83.3762 150.58 79.9562C150.856 79.1882 151.048 78.3723 151.372 77.6163C151.78 76.6923 152.356 76.2243 153.256 75.8043C155.044 74.9763 156.604 74.0523 157.888 72.5163C161.008 68.8083 161.799 64.0083 162.075 59.2923C162.255 56.2323 162.495 52.5123 160.696 49.9443C160.672 49.9203 160.648 49.8963 160.624 49.8723C160.168 49.2363 159.364 48.7443 158.56 48.6963C157.744 48.6483 156.868 48.6843 156.148 48.2163C155.788 47.9883 155.524 47.6523 155.32 47.2803C155.884 48.7443 156.364 50.2083 156.76 51.4803L158.368 51.8043Z" fill="#1E1E1E"/>
<path d="M135.089 96.9842C135.605 96.7082 136.109 96.4322 136.613 96.1442C136.709 96.0842 136.805 96.0242 136.913 95.9642C136.925 95.9522 136.937 95.9402 136.949 95.9282C137.165 95.8202 137.369 95.6882 137.573 95.5562C137.669 95.4842 137.777 95.4122 137.873 95.3402C137.885 95.3282 137.885 95.3282 137.885 95.3282C137.885 95.3282 137.897 95.3162 137.921 95.3042C137.969 95.2562 138.029 95.2202 138.077 95.1722C138.449 94.8602 138.797 94.5362 139.157 94.2242C139.277 94.1282 139.397 94.0322 139.517 93.9362C137.681 94.0682 135.881 95.0882 135.089 96.9842Z" fill="#1E1E1E"/>
<path d="M141.113 36.8284C142.409 37.0684 143.74 37.2004 145.048 37.2484C146.476 37.2964 147.988 37.1164 149.188 38.0404C149.896 38.5924 150.46 39.3364 150.928 40.1764C152.68 41.4844 154.06 44.0644 155.128 46.7404C155.116 46.7044 155.104 46.6804 155.092 46.6444C154.852 45.6484 155.008 44.6404 155.068 43.6444C154.84 42.6604 154.66 41.6404 154.396 40.6684C153.52 38.5324 152.356 36.3604 150.316 35.1604C148.036 33.8164 145.204 34.3684 142.685 34.0324C141.425 33.8644 139.625 33.5404 138.497 32.6524C138.617 33.4924 139.613 35.0164 140.045 35.6284C140.393 36.0964 140.753 36.4924 141.113 36.8284Z" fill="#1E1E1E"/>
<path d="M117.174 36.0724C117.174 36.0844 117.162 36.0844 117.162 36.0964C117.174 36.0844 117.186 36.0724 117.186 36.0604L117.174 36.0724Z" fill="#1E1E1E"/>
<path d="M130.709 98.9642C131.681 98.6042 132.641 98.1962 133.577 97.7522C132.557 97.0322 130.853 97.6322 130.709 98.9642Z" fill="#1E1E1E"/>
<path d="M112.074 98.1602C112.482 98.3042 112.89 98.4722 113.298 98.6042C113.994 98.8322 114.714 99.0482 115.446 99.2522C115.806 97.2842 112.938 96.4322 112.074 98.1602Z" fill="#1E1E1E"/>
<path d="M113.695 50.4964C114.558 50.1244 114.822 48.7684 114.343 48.0124C113.755 47.1004 112.807 46.9684 111.883 47.3644C108.655 48.7444 105.043 49.2124 101.419 48.8284C100.483 48.7324 99.5835 49.7284 99.6195 50.6403C99.6675 51.7083 100.411 52.3443 101.419 52.4523C105.631 52.8963 109.819 52.1523 113.695 50.4964Z" fill="#1E1E1E"/>
<path d="M147.16 51.0604C145.385 51.4204 143.465 50.9164 141.761 50.4244C139.865 49.8724 137.969 49.2844 136.241 48.3004C135.413 47.8324 134.201 48.3964 133.877 49.2484C133.493 50.2444 133.937 51.1324 134.813 51.6364C136.661 52.6804 138.701 53.2804 140.729 53.8683C142.949 54.5163 145.265 55.1403 147.592 54.6603C148.516 54.4683 149.332 53.6643 149.164 52.6444C149.008 51.7324 148.144 50.8564 147.16 51.0604Z" fill="#1E1E1E"/>
<path d="M115.038 63.9003C115.866 63.8163 116.406 62.9643 116.118 62.1723C115.446 60.3243 114.03 58.8603 112.266 58.1163C111.918 57.9723 111.546 57.8403 111.174 57.7563C107.851 56.6643 103.783 58.8243 102.883 62.4843C102.763 62.8563 102.679 63.2403 102.619 63.6243C102.499 64.4523 103.207 65.1723 104.035 65.0763C104.611 65.0163 105.079 64.5843 105.163 64.0083C105.211 63.6723 105.283 63.3603 105.403 63.0483C105.511 62.7363 105.667 62.4483 105.835 62.1723C106.603 61.1043 108.211 60.0723 110.095 60.1683C110.419 60.2043 110.743 60.2883 111.055 60.3963C112.278 60.8403 113.262 61.8243 113.718 63.0843C113.91 63.6363 114.462 63.9603 115.038 63.9003Z" fill="#1E1E1E"/>
<path d="M141.725 60.6483C141.437 60.3963 141.125 60.1683 140.801 59.9523C137.981 57.8643 133.457 58.6443 131.465 61.8363C131.237 62.1483 131.033 62.4843 130.865 62.8323C130.493 63.5883 130.937 64.4883 131.753 64.6563C132.317 64.7763 132.905 64.5123 133.157 63.9963C133.301 63.6963 133.481 63.4203 133.685 63.1563C133.889 62.8923 134.117 62.6643 134.369 62.4603C135.425 61.6923 137.273 61.2123 139.037 61.8963C139.337 62.0403 139.613 62.2203 139.877 62.4123C140.897 63.2283 141.533 64.4643 141.569 65.8083C141.581 66.3843 142.012 66.8643 142.576 66.9963C143.392 67.1763 144.16 66.5403 144.136 65.7003C144.052 63.7563 143.164 61.9203 141.725 60.6483Z" fill="#1E1E1E"/>
<path d="M131.765 77.2923C130.613 76.0443 128.453 76.5843 126.954 76.7163C123.294 77.0403 119.67 77.6043 116.082 78.4203C115.29 78.6003 114.798 79.4643 114.882 80.2563C114.138 80.5563 113.55 81.4923 113.862 82.3083C115.986 87.7322 122.07 90.6482 127.517 88.3202C130.217 87.1682 132.629 84.9243 132.785 81.8163C132.821 81.0603 132.713 80.2923 132.581 79.5483C132.449 78.7683 132.317 77.8923 131.765 77.2923ZM128.609 83.5323C127.553 84.7083 126.006 85.4883 124.446 85.6923C121.482 86.0762 118.482 84.4083 117.246 81.6603C119.298 81.2043 121.362 80.8083 123.438 80.5323C124.518 80.3883 125.598 80.2683 126.69 80.1603C127.229 80.1123 127.781 80.0643 128.321 80.0283C128.621 80.0043 128.909 79.9923 129.209 79.9683C129.233 79.9683 129.257 79.9683 129.281 79.9683C129.569 81.2043 129.461 82.5723 128.609 83.5323Z" fill="#1E1E1E"/>
<path d="M238.222 236.376C225.599 236.196 212.988 235.704 200.389 234.9C198.073 234.756 198.085 238.38 200.389 238.524C212.988 239.328 225.599 239.82 238.222 240C240.526 240.036 240.538 236.412 238.222 236.376Z" fill="#1E1E1E"/>
<path d="M201.949 231.972C208.404 232.272 214.872 232.584 221.327 232.884C223.643 232.992 223.631 229.368 221.327 229.26C215.184 228.972 209.04 228.684 202.897 228.396C202.897 228.504 202.909 228.6 202.897 228.72C202.849 229.992 202.501 231.06 201.949 231.972Z" fill="#1E1E1E"/>
<path d="M201.157 231.936C201.421 231.948 201.685 231.96 201.949 231.972C202.501 231.072 202.849 229.992 202.909 228.72C202.909 228.612 202.909 228.504 202.909 228.396C202.333 228.372 201.745 228.336 201.169 228.312C198.853 228.204 198.853 231.816 201.157 231.936Z" fill="#1E1E1E"/>
<path d="M41.0511 235.332C29.2918 234.972 17.5206 235.08 5.76131 235.62C4.4414 235.452 3.13346 235.38 1.80154 235.488C1.32157 235.524 0.877602 235.668 0.529624 236.016C0.217644 236.328 -0.0223437 236.844 0.00165473 237.3C0.0256532 237.768 0.169647 238.26 0.529624 238.584C0.865603 238.896 1.33357 239.148 1.80154 239.112C2.10152 239.088 2.40153 239.1 2.68951 239.088C2.95349 239.256 3.27744 239.352 3.67342 239.328C5.95328 239.22 8.23313 239.136 10.501 239.052C10.705 239.124 10.921 239.184 11.1729 239.184C11.4849 239.184 11.7609 239.112 11.9889 238.992C21.6723 238.68 31.3557 238.668 41.0391 238.956C43.3669 239.028 43.3669 235.404 41.0511 235.332Z" fill="#1E1E1E"/>
<path d="M16.3565 231.744C24.18 231.888 31.9915 232.02 39.815 232.164C42.1309 232.2 42.1309 228.588 39.815 228.54C31.9915 228.396 24.18 228.252 16.3565 228.12C14.0407 228.072 14.0407 231.696 16.3565 231.744Z" fill="#1E1E1E"/>
<path d="M201.649 126.06C200.149 125.4 198.409 125.16 196.813 124.824C195.865 124.632 194.869 125.1 194.605 126.084C194.365 126.984 194.905 128.112 195.865 128.316C197.233 128.604 198.637 128.88 199.981 129.276C200.077 129.3 200.197 129.384 200.233 129.384C200.341 129.54 200.401 129.756 200.473 129.96C200.713 130.632 200.929 131.304 201.121 131.988C201.865 134.616 202.237 137.34 202.597 140.04C202.729 141.012 203.329 141.852 204.397 141.852C205.273 141.852 206.317 141.012 206.197 140.04C205.765 136.764 205.357 133.464 204.385 130.296C203.857 128.664 203.341 126.804 201.649 126.06Z" fill="#00A99D"/>
<path d="M70.3533 20.4005C63.6097 29.7964 59.626 40.9204 58.69 52.4644C58.498 54.7923 62.0978 54.7803 62.2898 52.4644C63.1777 41.5564 67.1015 31.0924 73.4611 22.2365C74.817 20.3405 71.6972 18.5285 70.3533 20.4005Z" fill="#00A99D"/>
<path d="M27.4441 155.7C26.5201 156.24 26.4122 157.272 26.7961 158.184C28.764 162.864 29.8679 167.928 30.1079 173.004C30.1559 173.976 30.8999 174.816 31.9078 174.816C32.8437 174.816 33.7557 173.988 33.7077 173.004C33.4317 167.244 32.1358 161.664 29.9039 156.36C29.532 155.448 28.212 155.244 27.4441 155.7Z" fill="#1E1E1E"/>
<path d="M228.887 40.9564C227.231 41.6284 225.468 42.0244 223.68 42.0964C222.816 42.1324 221.796 41.8804 220.956 42.0364C220.116 42.2044 219.612 43.0204 219.072 43.6084C218.664 44.0524 218.22 44.4244 217.74 44.6884C218.628 44.8684 219.552 44.8684 220.44 44.5684C221.196 44.3044 221.808 43.8244 222.504 43.4644C222.492 43.4764 222.564 43.4404 222.744 43.3684C222.792 43.3684 222.852 43.3564 222.948 43.3444C223.224 43.3324 223.5 43.3204 223.776 43.2844C224.808 43.1524 225.672 42.7564 226.451 42.1924C228.335 41.6404 230.147 40.7284 231.899 39.7444C235.331 37.8244 238.007 34.9084 238.739 30.9484C238.859 30.2764 238.907 29.5924 238.919 28.9204C237.659 34.2244 234.167 38.8084 228.887 40.9564Z" fill="#FBB03B"/>
<path d="M216.072 43.0804C216.9 43.1404 217.368 42.4804 217.848 41.9164C218.616 41.0524 219.408 40.2124 220.608 40.0324C222.156 39.7924 223.728 40.1644 225.299 39.8884C226.787 39.6244 228.227 39.1084 229.559 38.3884C235.547 35.1604 238.223 28.2604 237.179 21.7205C236.927 21.2165 236.675 20.7125 236.387 20.2205C235.403 18.5405 234.179 17.0045 232.859 15.5885C231.407 14.0285 229.907 12.4925 228.047 11.4245H228.035C228.011 10.2005 227.087 9.24049 225.887 8.95249C218.988 7.3565 210.228 9.90049 206.485 16.2605C204.601 19.4645 204.997 23.1484 206.209 26.5204C206.821 28.2364 207.553 29.9884 208.417 31.6804C208.381 31.7884 208.333 31.8844 208.297 31.9924C208.165 32.2924 208.021 32.5924 207.901 32.8924C207.121 34.8604 207.745 36.3844 208.944 38.0044C208.968 38.0284 208.992 38.0524 209.016 38.0884C210.54 39.2524 212.076 40.4044 213.6 41.5684C214.236 42.0364 215.184 43.0084 216.072 43.0804ZM210.6 35.0764C209.652 35.9884 208.381 34.3924 209.328 33.4924C211.572 31.3324 212.988 28.1644 213.828 25.2124C214.68 22.2484 214.908 19.1285 214.524 16.0685C214.368 14.7725 216.372 14.4365 216.528 15.7445C216.948 19.1645 216.684 22.6084 215.724 25.9204C214.788 29.2444 213.12 32.6644 210.6 35.0764ZM219.408 19.1285C218.112 18.1085 218.076 16.0205 218.784 14.6165C219.036 14.1245 219.528 13.8125 220.092 14.0165C220.572 14.1965 220.944 14.8325 220.692 15.3245C220.452 15.8045 220.248 16.6565 220.416 17.1845C220.512 17.4725 220.788 17.6525 221.088 17.7605C221.136 17.5325 221.208 17.3045 221.304 17.0765C221.844 15.8405 223.548 14.5445 224.831 15.6125C226.271 16.7885 224.856 18.9005 223.62 19.5605C223.524 19.6085 223.428 19.6445 223.32 19.6925C223.44 19.8605 223.572 20.0165 223.752 20.1245C223.908 20.2205 224.088 20.2925 224.28 20.3285C224.304 20.1605 224.328 20.0045 224.364 19.8485C224.568 19.0925 225.071 18.2285 225.839 17.9285C226.547 17.6405 227.351 17.9285 227.687 18.6365C228.251 19.8365 227.519 21.1325 226.499 21.8405C226.583 22.0084 226.667 22.1644 226.775 22.3084C227.075 22.7044 227.327 22.8604 227.807 22.7044C228.347 22.5244 228.911 22.2124 229.211 21.7205C229.895 20.6045 231.539 21.7924 230.867 22.9084C229.991 24.3484 227.639 25.3564 226.103 24.4324C225.359 23.9764 224.82 23.2444 224.52 22.4044C222.996 22.3564 221.736 21.3005 221.232 19.9085C220.56 19.7885 219.912 19.5245 219.408 19.1285ZM215.052 37.2724C219.684 31.4044 226.019 27.1804 233.195 25.1044C234.455 24.7444 234.767 26.7484 233.519 27.1084C226.895 29.0284 220.968 33.0484 216.696 38.4484C215.892 39.4804 214.236 38.2924 215.052 37.2724Z" fill="#FBB03B"/>
<path d="M239.459 29.0644C239.915 27.1684 240.083 25.2124 239.963 23.2684C239.639 17.9884 237.155 12.8405 233.303 9.50447C230.087 6.72048 226.247 5.42449 222.192 5.76049C221.652 5.80849 221.208 6.09649 220.992 6.55248C220.752 7.05648 220.812 7.71648 221.16 8.20848C221.496 8.68848 222.024 8.92848 222.612 8.89248C229.991 8.28048 235.535 14.9645 236.639 21.8044C237.707 28.4884 234.767 34.9564 229.307 37.8964C227.987 38.6044 226.607 39.0964 225.215 39.3364C224.459 39.4684 223.716 39.4444 222.912 39.4084C222.144 39.3844 221.34 39.3484 220.536 39.4804C219.18 39.6844 218.304 40.5724 217.44 41.5564L217.272 41.7484C216.84 42.2524 216.552 42.5644 216.12 42.5284C215.604 42.4924 214.932 41.9404 214.404 41.4844C214.236 41.3404 214.068 41.2084 213.924 41.0884L209.34 37.6084L209.208 37.5124C209.004 37.3564 208.753 37.1884 208.501 36.9964C207.217 36.0964 205.465 34.8724 205.741 33.5044C205.837 33.0124 206.137 32.6044 206.449 32.1724C206.953 31.4884 207.529 30.6964 207.349 29.4844C207.217 28.5604 206.809 27.7084 206.425 26.8924C206.113 26.2204 205.813 25.5964 205.657 24.9364C204.793 21.3724 205.381 17.6164 207.253 14.6645C208.285 13.0445 209.616 11.6765 211.212 10.5965C213.312 9.18048 215.088 8.58048 216.48 8.79648C217.332 8.92848 218.04 8.41248 218.184 7.54848C218.304 6.75648 217.884 5.82049 216.852 5.66449C212.952 5.04049 208.693 8.05248 206.221 10.8125C203.617 13.7285 202.117 17.6524 202.117 21.5764C202.117 23.4724 202.417 25.3204 203.017 27.0964C203.209 27.6724 203.461 28.2004 203.701 28.7284C203.821 28.9924 203.953 29.2684 204.073 29.5324C204.265 29.9884 204.097 30.2764 203.617 30.9244C203.425 31.1884 203.221 31.4524 203.053 31.7644C201.025 35.6884 205.309 38.7004 208.141 40.6924C208.572 40.9924 208.968 41.2804 209.316 41.5444C209.76 41.8804 210.204 42.2524 210.66 42.6364C211.392 43.2484 212.136 43.8724 212.928 44.4004C213.516 44.7964 214.128 45.1324 214.764 45.3844C215.88 45.8164 216.972 45.7444 218.016 45.1804C218.532 44.9044 219.024 44.4964 219.492 43.9924C219.612 43.8604 219.72 43.7284 219.84 43.5844C220.224 43.1164 220.596 42.6724 221.064 42.5884C221.484 42.5044 222 42.5524 222.528 42.6004C222.912 42.6364 223.32 42.6724 223.704 42.6604C225.527 42.5884 227.339 42.1924 229.103 41.4724C234.311 39.3604 238.079 34.8364 239.459 29.0644Z" fill="#1A1A1A"/>
<path d="M213.54 45.5163L213.3 45.3603C212.148 44.6164 210.948 43.7524 209.64 42.7204C208.332 41.7004 207.061 40.6204 205.669 39.4444C204.601 38.5444 203.593 37.6804 203.149 36.4444C202.957 35.9284 202.561 35.5804 202.057 35.4844C201.493 35.3884 200.893 35.6164 200.497 36.0724C200.125 36.5164 200.029 37.0924 200.221 37.6444C200.929 39.5884 202.549 41.0524 204.121 42.3244C203.713 42.1204 203.305 41.9644 202.885 41.8804C202.129 41.7364 201.397 41.9524 200.929 42.4684C200.461 42.9724 200.329 43.6924 200.533 44.4124C200.965 45.9003 202.093 47.1123 203.005 48.0843C203.773 48.9123 204.553 49.7283 205.321 50.5443C204.961 50.3163 204.589 50.1123 204.181 49.9683C202.909 49.5123 201.709 49.6563 200.941 50.3523C200.293 50.9523 200.197 51.9483 200.749 52.5723C200.845 52.6803 200.941 52.7643 201.061 52.8483C201.313 53.0163 201.613 53.1243 201.925 53.1363C202.261 53.1483 202.585 53.0643 202.861 52.8603C202.933 52.8843 202.993 52.8963 203.065 52.9203C203.209 52.9683 203.353 53.0403 203.461 53.0883C203.701 53.2323 203.929 53.3883 204.097 53.5443C204.181 53.6283 204.265 53.7123 204.337 53.8083C204.613 54.1443 205.021 54.3483 205.465 54.3843C205.885 54.4203 206.269 54.2883 206.569 54.0243C207.12 53.5443 207.277 52.7883 207.001 52.1763C207.325 52.3443 207.696 52.4043 208.08 52.3083C208.668 52.1643 209.148 51.7323 209.304 51.1923C209.448 50.7003 209.316 50.1963 208.944 49.8003L207.504 48.2763C208.008 48.5883 208.512 48.8883 209.04 49.1643L209.184 49.2363C210.324 49.8483 211.608 50.5323 212.964 50.5923C213.756 50.6163 214.488 50.3403 214.992 49.8363C215.436 49.3923 215.652 48.7923 215.616 48.1443C215.58 46.8003 214.392 46.0563 213.54 45.5163Z" fill="#1A1A1A"/>
<path d="M213.288 25.0564C212.592 27.4804 211.26 30.8404 208.932 33.0844C208.2 33.7924 208.344 34.8364 208.92 35.4244C209.004 35.5084 209.1 35.5924 209.196 35.6524C209.76 36.0364 210.468 35.9764 210.996 35.4724C213.936 32.6404 215.496 28.7884 216.276 26.0644C217.26 22.6684 217.524 19.1764 217.092 15.6605C217.02 15.1085 216.708 14.6765 216.216 14.4605C215.688 14.2325 215.04 14.3165 214.56 14.6765C214.104 15.0125 213.888 15.5405 213.96 16.1164C214.344 19.1404 214.104 22.2244 213.288 25.0564Z" fill="#1A1A1A"/>
<path d="M214.368 38.3764C214.488 38.6764 214.704 38.9404 214.98 39.1204C215.196 39.2644 215.436 39.3604 215.688 39.3964C216.252 39.4804 216.78 39.2644 217.14 38.8084C221.34 33.4804 227.219 29.5204 233.675 27.6604C234.251 27.4924 234.671 27.0604 234.815 26.4724C234.959 25.8844 234.803 25.2604 234.395 24.8764C234.035 24.5404 233.543 24.4204 233.027 24.5764C225.671 26.7004 219.3 30.9724 214.596 36.9364C214.272 37.3564 214.176 37.8844 214.368 38.3764Z" fill="#1A1A1A"/>
<path d="M228.191 18.3724C227.783 17.5084 226.871 17.0764 225.959 17.2804C225.971 17.2204 225.983 17.1604 225.983 17.1005C226.055 16.3325 225.779 15.6605 225.191 15.1685C224.627 14.7125 223.931 14.5445 223.212 14.7125C222.18 14.9525 221.34 15.8045 220.92 16.5845C220.944 16.2485 221.064 15.8405 221.196 15.5645C221.364 15.2165 221.376 14.8085 221.22 14.4245C221.052 13.9925 220.704 13.6325 220.284 13.4765C219.504 13.1885 218.676 13.5485 218.28 14.3525C217.476 15.9725 217.548 18.3604 219.06 19.5484C219.564 19.9324 220.152 20.2204 220.824 20.3644C221.448 21.7684 222.696 22.7164 224.123 22.8964C224.471 23.6764 225.011 24.3364 225.659 24.7684C225.707 24.8044 225.755 24.8284 225.815 24.8644C227.627 25.9684 230.327 24.8284 231.347 23.1484C231.875 22.2844 231.515 21.3604 230.771 20.8924C230.039 20.4484 229.187 20.6524 228.743 21.3724C228.563 21.6724 228.167 21.9364 227.639 22.1164C227.459 22.1764 227.435 22.1884 227.231 21.9244C228.179 21.0964 228.827 19.7284 228.191 18.3724Z" fill="#1A1A1A"/>
<path d="M158.284 187.248C155.164 180.972 152.056 174.684 148.936 168.408C148.24 167.004 146.284 167.028 145.276 167.976C139.961 172.932 135.521 178.752 132.149 185.16C128.405 179.544 124.662 173.916 120.918 168.3C119.922 166.8 117.87 166.848 116.898 168.336C113.442 173.64 110.251 179.088 107.287 184.668C103.663 179.076 100.027 173.496 96.4035 167.904C95.3836 166.344 93.3917 166.524 92.3838 167.94C87.5721 174.708 83.2163 181.776 79.3406 189.12C77.9367 191.772 81.9804 194.088 83.3844 191.436C86.6841 185.172 90.3559 179.136 94.3516 173.292C98.0714 179.016 101.791 184.752 105.511 190.476C106.423 191.868 108.715 192.06 109.531 190.44C112.422 184.74 115.578 179.184 118.974 173.772C122.802 179.52 126.63 185.268 130.457 191.004C131.345 192.336 133.721 192.66 134.477 190.968C137.405 184.476 141.377 178.608 146.296 173.52C148.96 178.896 151.636 184.272 154.3 189.648C155.62 192.324 159.604 189.924 158.284 187.248Z" fill="#1E1E1E"/>
<path d="M197.245 70.7283C196.969 70.7523 196.633 70.8123 196.369 70.9803C195.925 71.2683 195.661 71.7483 195.661 72.2763C195.637 74.2803 195.505 75.8283 195.241 77.2683C195.133 77.8562 195.013 78.4442 194.869 79.0322C194.665 79.8722 195.193 80.7242 196.033 80.9282C196.153 80.9522 196.273 80.9762 196.393 80.9762C197.101 80.9762 197.749 80.4842 197.929 79.7642C198.085 79.1282 198.217 78.4802 198.337 77.8442C198.637 76.2362 198.781 74.4843 198.805 72.3243C198.805 71.4603 198.109 70.7403 197.245 70.7283Z" fill="#1A1A1A"/>
<path d="M199.009 56.6403C198.541 56.4723 198.025 56.5323 197.605 56.7963C197.317 56.9763 197.113 57.2523 196.993 57.5643C196.189 59.7363 195.769 62.1243 195.649 65.0763C195.637 65.4963 195.781 65.8923 196.069 66.2043C196.357 66.5163 196.741 66.6963 197.161 66.7083C197.185 66.7083 197.197 66.7083 197.221 66.7083C198.061 66.7083 198.757 66.0363 198.793 65.1963C198.889 62.5563 199.249 60.5403 199.945 58.6563C200.245 57.8403 199.825 56.9403 199.009 56.6403Z" fill="#1A1A1A"/>
<path d="M173.475 93.3002C173.055 92.6642 172.683 92.0282 172.371 91.4882C171.927 90.7442 170.967 90.4922 170.151 90.9722C169.443 91.4282 169.227 92.3642 169.659 93.0842C169.971 93.6242 170.391 94.3202 170.847 95.0162C171.171 95.5082 171.483 95.9522 171.783 96.3602C172.035 96.6962 172.407 96.9122 172.815 96.9722C172.887 96.9842 172.971 96.9842 173.043 96.9842C173.379 96.9842 173.703 96.8762 173.979 96.6722C174.675 96.1562 174.819 95.1602 174.291 94.4642C174.027 94.1282 173.763 93.7442 173.475 93.3002Z" fill="#1A1A1A"/>
<path d="M194.689 84.7322C194.186 84.5042 193.622 84.5402 193.166 84.8402C192.926 84.9962 192.722 85.2242 192.602 85.4882C191.63 87.5642 190.454 89.5442 189.098 91.3442C188.582 92.0402 188.714 93.0242 189.41 93.5522C189.698 93.7682 190.022 93.8642 190.358 93.8642C190.838 93.8642 191.306 93.6482 191.618 93.2402C193.106 91.2602 194.402 89.1002 195.457 86.8202C195.817 86.0402 195.481 85.1042 194.689 84.7322Z" fill="#1A1A1A"/>
<path d="M184.466 96.1802C184.262 96.3362 184.046 96.4802 183.83 96.6242C182.114 97.7402 180.494 98.1842 179.006 97.9322C178.61 97.8602 178.214 97.9442 177.878 98.1602C177.518 98.4002 177.266 98.7842 177.182 99.2042C177.11 99.6242 177.206 100.032 177.446 100.38C177.686 100.728 178.046 100.956 178.466 101.028C178.922 101.112 179.39 101.148 179.858 101.148C181.718 101.148 183.626 100.512 185.546 99.2642C185.81 99.0842 186.074 98.9042 186.338 98.7122C186.674 98.4602 186.89 98.1002 186.962 97.6802C187.022 97.2602 186.914 96.8522 186.674 96.5162C186.146 95.8082 185.162 95.6642 184.466 96.1802Z" fill="#1A1A1A"/>
<path d="M40.0789 41.7844C39.9349 41.5564 39.803 41.3284 39.695 41.1484C39.683 41.1364 39.6829 41.1364 39.6709 41.1244L38.2671 38.4964L38.015 38.0404C37.895 37.8124 37.895 37.5484 38.015 37.3204L38.1951 36.9724C38.3031 36.7684 38.423 36.5404 38.543 36.3244C38.543 36.3124 38.579 36.2404 38.579 36.2164C38.819 35.5324 39.179 34.8964 39.5509 34.2124C40.1869 33.0724 40.8229 31.9324 40.9669 30.5524C40.9789 30.5164 40.9549 30.4924 40.9549 30.4444C40.9549 30.3124 40.9189 30.1684 40.8349 30.0604C40.6789 29.8324 40.4509 29.6524 40.1869 29.5324C40.1749 29.5324 40.1629 29.5324 40.1629 29.5204C39.8749 29.4004 39.563 29.3644 39.239 29.4124L32.9754 30.5044C32.7834 30.5404 32.5794 30.4924 32.4114 30.3724C31.2115 29.5204 30.0956 28.2484 29.0036 27.0124L27.8637 25.7764C27.4197 25.3324 26.7838 25.1764 26.1838 25.3804C25.6078 25.5724 25.1759 26.0644 25.0919 26.6644L24.2519 32.5084C24.0599 33.8404 22.284 34.5124 20.5801 35.1604C19.8962 35.4244 19.2602 35.6524 18.7083 35.9404L18.0723 36.2524C17.5203 36.5284 17.1724 37.0684 17.1724 37.6804C17.1724 38.2804 17.5323 38.8324 18.0723 39.1084L23.784 41.8804C24.0119 41.9884 24.1679 42.2044 24.2039 42.4564C24.3119 43.1764 24.4559 43.8964 24.6119 44.6884C24.8879 46.0324 25.1279 47.2804 25.1279 48.6004C25.1279 48.6244 25.1279 48.6604 25.1399 48.7084C25.1879 48.9964 25.3199 49.2844 25.5239 49.5244C25.8238 49.8484 26.2558 50.0524 26.7118 50.0644C26.9278 50.0644 27.0957 50.0404 27.2517 49.9924C27.4917 49.9084 27.7197 49.7644 27.8997 49.5844L32.3274 45.0724C32.3634 45.0364 32.4114 45.0004 32.4594 44.9644C32.6154 44.8564 32.8194 44.8204 32.9994 44.8564L34.5593 45.1204C34.6073 45.1324 34.6673 45.1324 34.7273 45.1324C35.2552 45.1084 35.9632 45.2644 36.6592 45.4204C37.8111 45.6844 39.371 46.0204 40.2949 45.3004C40.4749 45.1564 40.6309 44.9764 40.7149 44.8204C40.7389 44.7724 40.7749 44.7244 40.7989 44.6884C41.3748 44.0044 40.8949 43.0924 40.0789 41.7844ZM34.9313 42.2044L33.2394 41.9284C32.3394 41.7724 31.4275 42.0124 30.7075 42.5764C30.6115 42.6484 30.5275 42.7324 30.4435 42.8164L27.7917 45.5044C27.6957 44.9764 27.5997 44.4844 27.4917 43.9924C27.3477 43.2604 27.2038 42.5044 27.0958 41.7124C27.0238 41.2324 26.8198 40.7524 26.5318 40.3564C26.2318 39.9484 25.8358 39.6124 25.3798 39.3844L22.0081 37.7404C24.1199 36.9244 26.7838 35.7724 27.1917 32.9044L27.6357 29.8684C28.7156 31.0684 29.8556 32.2324 31.1995 33.0724C31.3555 33.1684 31.5235 33.2524 31.7275 33.3124C32.2074 33.4564 32.7354 33.5044 33.2153 33.4204L36.9951 32.7724C36.6112 33.4684 36.1792 34.2604 35.8912 35.0524L34.9193 36.9004C34.6673 37.3804 34.6673 37.9564 34.9313 38.4364L37.0911 42.4924C36.3592 42.3364 35.6152 42.1924 34.9313 42.2044Z" fill="#1A1A1A"/>
<path d="M41.3272 31.7764C40.0673 33.7324 39.0234 35.8444 38.3154 38.0644C38.2674 38.2084 38.2674 38.3524 38.2914 38.4964L38.0395 38.0404C37.9195 37.8124 37.9195 37.5484 38.0395 37.3204L38.2194 36.9724C38.3274 36.7684 38.4474 36.5404 38.5674 36.3244C38.5674 36.3124 38.6034 36.2404 38.6034 36.2164C38.8434 35.5324 39.2034 34.8964 39.5754 34.2124C40.2113 33.0724 40.8473 31.9324 40.9913 30.5524C41.0033 30.5164 40.9792 30.4924 40.9792 30.4444C41.4112 30.7444 41.6632 31.2604 41.3272 31.7764Z" fill="#FBB03B"/>
<path d="M37.0793 42.5044C36.3474 42.3364 35.6035 42.1924 34.9315 42.2044L33.2396 41.9284C32.3397 41.7724 31.4277 42.0124 30.7078 42.5764C30.6118 42.6484 30.5278 42.7324 30.4438 42.8164L27.7919 45.5044C27.696 44.9764 27.6 44.4844 27.492 43.9924C27.348 43.2604 27.204 42.5044 27.096 41.7124C27.024 41.2324 26.82 40.7524 26.532 40.3564C26.2321 39.9484 25.8361 39.6124 25.3801 39.3844L22.0083 37.7404C24.1202 36.9244 26.784 35.7724 27.192 32.9044L27.6359 29.8684C28.7159 31.0684 29.8558 32.2324 31.1997 33.0724C31.3557 33.1684 31.5237 33.2524 31.7277 33.3124C32.2077 33.4564 32.7356 33.5044 33.2156 33.4204L36.9954 32.7724C36.6114 33.4684 36.1794 34.2604 35.8914 35.0524L34.9195 36.9004C34.6675 37.3804 34.6675 37.9564 34.9315 38.4364L37.0793 42.5044Z" fill="#FBB03B"/>
<path d="M49.5105 90.1802C49.0546 90.1802 48.5986 90.1562 48.1546 90.1082C47.3627 90.0242 46.7867 89.3042 46.8707 88.5002C46.9547 87.7082 47.6626 87.1202 48.4786 87.2162C50.8064 87.4682 53.1103 86.8562 54.6822 85.5722C55.3062 85.0682 56.2181 85.1522 56.7221 85.7762C57.2261 86.4002 57.142 87.3122 56.5181 87.8162C54.6582 89.3402 52.1744 90.1802 49.5105 90.1802ZM42.335 86.0162C41.651 86.0162 41.0511 85.5362 40.9071 84.8402C40.8351 84.4682 40.7991 84.0722 40.7991 83.6762C40.7991 82.6683 41.0391 81.6123 41.495 80.6403C42.227 79.0803 43.2229 77.7603 44.4829 76.7043C45.0948 76.1883 46.0187 76.2603 46.5347 76.8843C47.0507 77.4963 46.9787 78.4083 46.3667 78.9363C45.4308 79.7163 44.6868 80.7123 44.1349 81.8883C43.8589 82.4763 43.7149 83.1003 43.7149 83.6882C43.7149 83.8923 43.7389 84.0962 43.7749 84.2882C43.9309 85.0802 43.4149 85.8362 42.635 85.9922C42.515 86.0042 42.419 86.0162 42.335 86.0162ZM74.6729 82.5963C74.421 82.5963 74.169 82.5363 73.941 82.3923C71.9371 81.2163 69.5973 80.1003 67.1734 79.1643C66.4295 78.8763 66.0455 78.0363 66.3335 77.2923C66.6214 76.5363 67.4614 76.1643 68.2053 76.4523C70.7852 77.4363 73.269 78.6243 75.4169 79.8843C76.1129 80.2923 76.3408 81.1803 75.9329 81.8763C75.6569 82.3443 75.1769 82.5963 74.6729 82.5963ZM58.9899 81.3723C58.9299 81.3723 58.8579 81.3723 58.7979 81.3603C58.006 81.2523 57.442 80.5203 57.55 79.7283C57.61 79.2603 57.646 78.7683 57.646 78.3003C57.646 77.7483 57.61 77.2083 57.526 76.6803C55.7861 76.4763 54.1662 76.4403 52.6903 76.5723C51.8984 76.6443 51.1904 76.0563 51.1064 75.2643C51.0344 74.4603 51.6224 73.7643 52.4263 73.6803C53.7103 73.5603 55.0902 73.5603 56.5421 73.6683C56.4581 73.5123 56.3741 73.3563 56.2781 73.2003C55.8701 72.5163 56.0981 71.6163 56.7821 71.2083C57.466 70.8003 58.366 71.0283 58.774 71.7123C59.2179 72.4563 59.5899 73.2603 59.8659 74.0883C60.0819 74.1243 60.3099 74.1723 60.5378 74.2083C61.3298 74.3643 61.8337 75.1203 61.6898 75.9123C61.5698 76.5243 61.0778 76.9683 60.5018 77.0643C60.5378 77.4723 60.5618 77.8803 60.5618 78.2883C60.5618 78.8883 60.5258 79.5003 60.4418 80.1003C60.3338 80.8443 59.7099 81.3723 58.9899 81.3723ZM51.8384 68.7963C51.5984 68.7963 51.3464 68.7363 51.1184 68.6043C49.9425 67.9323 48.7066 67.3443 47.3987 66.7203C46.3547 66.2163 45.2748 65.7003 44.2189 65.1363C43.5109 64.7523 43.2469 63.8763 43.6309 63.1683C44.0149 62.4603 44.8908 62.1963 45.5988 62.5803C46.5827 63.1083 47.6387 63.6123 48.6586 64.1043C49.9545 64.7283 51.2864 65.3643 52.5463 66.0843C53.2423 66.4803 53.4823 67.3683 53.0863 68.0643C52.8343 68.5323 52.3424 68.7963 51.8384 68.7963ZM38.9632 60.4803C38.5192 60.4803 38.0753 60.2763 37.7873 59.8803C36.0114 57.4443 35.0874 54.5763 34.4755 52.3444C34.2595 51.5764 34.7155 50.7724 35.4954 50.5564C36.2754 50.3524 37.0673 50.7964 37.2833 51.5764C37.8233 53.5683 38.6512 56.1123 40.1391 58.1643C40.6071 58.8123 40.4631 59.7243 39.8151 60.1923C39.5511 60.3843 39.2512 60.4803 38.9632 60.4803Z" fill="#1A1A1A"/>
</svg>
