<svg width="240" height="242" viewBox="0 0 240 242" fill="none" xmlns="http://www.w3.org/2000/svg">
<path d="M37.3018 22.8467C37.2418 20.8309 36.9658 18.803 36.7138 16.7992C36.5818 15.7673 36.4378 14.7234 36.2938 13.6915C36.1498 12.6956 36.1138 11.5557 35.6098 10.6558C34.6498 8.95199 32.3099 8.37604 30.4979 8.12406C30.2939 8.10007 30.0659 8.06407 29.8499 8.04007C28.2179 7.41613 26.2379 7.57212 24.534 7.50012C22.518 7.41613 20.298 7.10416 18.498 8.22006C16.2901 9.58792 16.3621 12.0117 16.2661 14.3155C16.1821 16.3193 16.1341 18.3351 16.1101 20.3389C16.0981 21.3468 16.0981 22.3427 16.0981 23.3506C16.0981 23.5786 16.0981 23.8066 16.1101 24.0225C15.7981 25.5224 15.8821 27.1782 17.0221 28.2341C18.45 29.554 20.838 29.542 22.686 29.638C25.6019 29.794 28.5059 29.518 31.4099 29.1821C31.5059 29.1821 31.5899 29.1941 31.6859 29.1821C32.6579 29.1221 33.7738 29.0861 34.7098 28.8221C37.2178 28.0902 37.3738 24.9945 37.3018 22.8467Z" fill="#FBB03B"/>
<path d="M204.472 75.3777C204.46 71.538 204.436 67.7104 204.376 63.8708C204.268 56.2995 204.076 48.7402 203.8 41.1689C203.74 39.4411 203.812 37.5813 202.408 36.3214C201.04 35.0975 199.048 35.1815 197.32 35.1335C193.588 35.0135 189.856 35.0615 186.124 35.0495C168.856 34.9775 151.588 34.8935 134.309 34.8215C133.481 34.8215 132.893 35.1575 132.509 35.6495C132.173 35.9254 131.933 36.3454 131.825 36.9093C130.433 44.3606 132.653 51.8839 133.313 59.3112C133.637 62.9948 133.841 66.6905 134.033 70.3861C134.129 72.234 134.237 74.0818 134.357 75.9296C134.465 77.5854 134.309 79.6973 135.053 81.2211C135.809 82.757 137.177 83.2729 138.784 83.4769C140.716 83.7169 142.66 83.8009 144.592 83.8129C148.324 83.8369 152.056 83.6809 155.776 83.6329C163.48 83.5249 171.184 83.5129 178.9 83.6089C182.656 83.6569 186.412 83.7289 190.156 83.8129C191.932 83.8609 193.708 83.9088 195.484 83.9568C197.272 84.0168 199.312 84.3648 201.064 83.9088C205.024 82.9009 204.484 78.4854 204.472 75.3777Z" fill="#FBB03B"/>
<path d="M237.507 241.418C238.995 241.526 239.607 239.858 239.727 238.706C240.027 235.802 240.039 232.875 239.955 229.947C239.931 229.083 240.015 227.859 239.847 226.791C239.643 225.471 239.055 224.367 237.447 224.379C229.635 224.427 221.823 224.475 214.023 224.511C213.939 224.931 213.795 225.351 213.579 225.723C211.851 228.747 205.384 227.823 202.192 227.931C200.704 227.979 199.948 227.079 199.888 226.119C199.768 225.891 199.684 225.651 199.672 225.375C199.66 225.219 199.66 225.051 199.648 224.895C199.648 224.799 199.648 224.691 199.636 224.595C189.256 224.655 178.864 224.715 168.484 224.775C168.4 225.099 168.292 225.423 168.112 225.723C166.384 228.747 159.916 227.823 156.724 227.931C155.236 227.979 154.48 227.079 154.42 226.119C154.3 225.891 154.216 225.651 154.204 225.375C154.192 225.219 154.192 225.051 154.18 224.895C154.18 224.883 154.18 224.871 154.18 224.859C146.896 224.907 139.6 224.943 132.317 224.991C129.197 225.015 126.065 225.027 122.945 225.051C122.873 225.291 122.777 225.519 122.645 225.747C120.917 228.771 114.449 227.847 111.257 227.955C109.769 228.003 109.013 227.103 108.953 226.143C108.833 225.915 108.749 225.675 108.737 225.399C108.737 225.315 108.725 225.231 108.725 225.147C98.273 225.207 87.8211 225.267 77.3693 225.327C77.3093 225.471 77.2493 225.615 77.1773 225.759C75.4493 228.783 68.9814 227.859 65.7894 227.967C64.3014 228.015 63.5455 227.115 63.4855 226.155C63.3775 225.939 63.2815 225.699 63.2695 225.411C52.7696 225.471 42.2817 225.531 31.7819 225.591C31.7579 225.639 31.7339 225.699 31.7099 225.759C29.9819 228.783 23.514 227.859 20.322 227.967C18.8341 228.015 18.0781 227.115 18.0181 226.155C17.9461 226.011 17.8861 225.843 17.8501 225.663C14.7781 225.675 11.7062 225.687 8.64619 225.627C6.78622 225.591 4.87824 225.687 3.11427 226.287C1.30229 226.911 0.366302 228.423 0.138305 230.271C0.0183065 231.279 0.0783058 232.299 0.0783058 233.319C0.0783058 234.854 -0.25769 236.834 0.462301 238.25C0.762297 238.838 1.24229 239.318 1.81828 239.654C3.91825 240.854 6.72622 240.686 9.05419 240.746C15.1381 240.926 21.234 240.842 27.3179 240.902C33.9059 240.962 40.5058 241.022 47.0937 241.082C53.6816 241.142 60.2815 241.202 66.8694 241.262C73.4573 241.322 80.0572 241.382 86.6451 241.442C88.3611 241.454 90.0771 241.478 91.7931 241.49C123.029 241.778 154.276 242.078 185.512 241.982C202.684 241.934 219.855 241.754 237.015 241.394C237.183 241.406 237.339 241.406 237.507 241.418ZM234.903 236.294C234.795 236.39 234.663 236.45 234.531 236.498C234.351 236.558 234.147 236.57 233.967 236.582C231.855 236.75 229.731 236.702 227.619 236.702C225.147 236.75 222.675 236.786 220.203 236.822C215.259 236.894 210.315 236.954 205.372 236.99C200.428 237.038 195.484 237.074 190.54 237.098C185.596 237.122 180.652 237.134 175.708 237.134C170.764 237.134 165.82 237.134 160.876 237.122C155.932 237.11 150.988 237.086 146.044 237.062C145.48 237.062 144.904 237.05 144.34 237.05C113.261 236.882 82.1812 236.546 51.1016 236.258C44.5137 236.198 37.9258 236.138 31.3379 236.078C24.786 236.018 18.2221 235.898 11.6701 235.91C9.58218 235.91 7.50621 235.79 5.43023 235.67C5.31024 235.658 5.19024 235.658 5.09424 235.598C4.91424 235.49 4.87824 235.25 4.87824 235.034C4.83024 233.847 4.95024 232.671 4.85424 231.471C4.84224 231.303 4.83024 231.135 4.87824 230.967C4.97424 230.655 5.27424 230.583 5.56223 230.559C7.09821 230.403 8.68219 230.499 10.2182 230.499C11.8621 230.499 13.5181 230.487 15.1621 230.475C18.4621 230.463 21.75 230.451 25.05 230.427C25.278 230.427 25.506 230.427 25.746 230.427C25.938 230.427 26.142 230.427 26.334 230.427C28.1459 230.415 29.9579 230.415 31.7699 230.403L81.7612 230.115C114.893 229.923 148.012 229.731 181.144 229.539C181.588 229.539 182.044 229.539 182.488 229.527C183.712 229.515 184.936 229.515 186.172 229.503C187.996 229.491 189.82 229.479 191.632 229.467C193.864 229.455 196.096 229.443 198.34 229.431C200.812 229.419 203.272 229.407 205.744 229.383C208.264 229.371 210.771 229.359 213.291 229.335C215.679 229.323 218.055 229.311 220.443 229.299C222.519 229.287 224.583 229.275 226.659 229.263C228.879 229.251 231.099 229.239 233.319 229.203C233.715 229.191 234.135 229.191 234.495 229.359C235.455 229.791 235.143 231.375 235.155 232.215C235.155 232.899 235.167 233.571 235.179 234.254C235.155 234.89 235.455 235.802 234.903 236.294Z" fill="#1E1E1E"/>
<path d="M29.6819 209.273C28.9379 209.609 28.1339 209.897 27.3059 210.113C27.3059 210.149 27.3059 210.185 27.3059 210.221C28.1339 210.005 28.9379 209.729 29.6819 209.381C30.5699 208.973 31.3979 208.481 32.1298 207.893C32.1298 207.857 32.1298 207.821 32.1298 207.785C31.3979 208.385 30.5579 208.877 29.6819 209.273Z" fill="#1E1E1E"/>
<path d="M17.3459 208.481C17.3459 208.517 17.3459 208.553 17.3459 208.589C18.7139 209.705 20.3699 210.329 22.1099 210.557C22.1099 210.521 22.1099 210.485 22.1099 210.449C20.3699 210.221 18.7139 209.597 17.3459 208.481Z" fill="#1E1E1E"/>
<path d="M22.758 110.246C22.77 110.126 22.71 110.03 22.698 109.922C24.27 108.782 26.37 110.03 26.802 111.59C27.4139 113.834 26.994 116.486 26.994 118.778C26.994 120.445 27.006 123.649 27.018 127.285C26.91 127.285 26.802 127.249 26.694 127.273C26.37 127.285 26.07 127.381 25.794 127.561C25.506 127.717 25.29 127.921 25.11 128.185C24.894 128.413 24.75 128.689 24.678 129.001C24.654 129.217 24.618 129.432 24.594 129.636C24.594 130.068 24.702 130.476 24.918 130.848C25.05 131.016 25.17 131.172 25.302 131.34C25.602 131.64 25.962 131.844 26.37 131.964C26.586 132 26.802 132.048 27.03 132.084C27.042 137.328 27.054 142.511 27.054 144.791C27.054 145.763 27.066 146.723 27.066 147.695C26.79 147.743 26.514 147.791 26.25 147.851C25.938 147.923 25.662 148.067 25.422 148.283C25.158 148.451 24.954 148.679 24.798 148.955C24.618 149.231 24.522 149.531 24.51 149.855C24.438 150.179 24.45 150.49 24.558 150.814C24.642 151.006 24.726 151.198 24.798 151.39C25.014 151.75 25.302 152.038 25.662 152.254C25.854 152.338 26.046 152.422 26.238 152.494C26.514 152.566 26.802 152.578 27.078 152.554C27.1019 157.846 27.114 163.125 27.138 168.417H26.286C25.95 168.405 25.638 168.477 25.35 168.621C25.05 168.717 24.786 168.885 24.57 169.125C24.33 169.341 24.162 169.605 24.066 169.905C23.91 170.193 23.85 170.505 23.862 170.829L23.946 171.464C24.066 171.872 24.27 172.232 24.57 172.532C24.738 172.652 24.894 172.784 25.062 172.904C25.434 173.12 25.842 173.228 26.286 173.228H27.1499C27.1739 177.848 27.1859 182.467 27.2099 187.087C27.6419 187.087 28.0739 187.099 28.4939 187.135C29.5859 187.207 30.4979 187.879 30.7979 188.899C31.2299 189.091 31.6499 189.319 32.0579 189.547C32.0459 187.927 32.0459 186.295 32.0339 184.675C31.9619 165.897 31.8899 135.048 31.8059 116.27C31.7939 112.634 32.2139 107.979 27.5699 106.107C24.762 104.979 19.2781 105.555 17.9941 108.327C17.9101 108.518 17.8381 108.71 17.7901 108.914C17.5981 109.778 17.7661 110.666 17.8381 111.542C17.9341 112.706 17.8621 113.87 17.8021 115.022C17.1661 126.097 17.4061 149.243 16.8541 160.306C16.8541 160.306 16.8421 160.486 16.8541 160.522C16.8541 170.325 16.9621 180.128 17.0941 189.943C18.5101 189.067 20.034 188.371 21.63 187.879C21.342 161.481 21.702 133.104 22.758 110.246Z" fill="#1E1E1E"/>
<path d="M31.7819 225.567C32.5379 224.067 32.1779 222.172 32.1779 220.6C32.1659 218.248 32.1659 215.896 32.1539 213.544C31.4219 213.904 30.6539 214.216 29.8739 214.48C29.0459 214.768 28.1939 214.984 27.3179 215.152C27.3179 215.308 27.3179 215.464 27.3179 215.62C27.3299 217.948 27.3899 220.276 27.3419 222.604C27.3059 224.223 26.8379 223.707 24.978 223.767C24.174 223.791 23.382 223.815 22.578 223.851C22.458 221.116 22.362 218.284 22.266 215.404C20.61 215.248 18.978 214.876 17.4661 214.228C17.5381 217.792 17.6341 221.356 17.7781 224.907C17.7781 225.063 17.7901 225.231 17.8021 225.387C17.8021 225.483 17.8261 225.567 17.8501 225.651C21.054 225.639 24.27 225.603 27.4859 225.603C28.9139 225.579 30.3419 225.579 31.7819 225.567Z" fill="#1E1E1E"/>
<path d="M20.322 227.943C23.5139 227.835 29.9819 228.759 31.7098 225.735C31.7338 225.687 31.7578 225.627 31.7818 225.567C30.3418 225.579 28.9139 225.579 27.4739 225.591C24.2579 225.591 21.054 225.627 17.838 225.639C17.874 225.807 17.934 225.975 18.006 226.131C18.078 227.091 18.834 227.991 20.322 227.943Z" fill="#1E1E1E"/>
<path d="M22.1101 210.569C22.1581 212.201 22.2061 213.796 22.2661 215.392C23.9461 215.548 25.6621 215.452 27.318 215.14C27.306 213.496 27.306 211.865 27.294 210.221C25.6141 210.653 23.8261 210.797 22.1101 210.569Z" fill="#1E1E1E"/>
<path d="M25.47 192.162C26.058 192.27 26.646 192.414 27.2339 192.594C27.2219 190.759 27.2219 188.935 27.2099 187.111C25.338 187.099 23.466 187.375 21.666 187.927C21.69 189.607 21.702 191.287 21.738 192.942C22.818 192.498 23.958 192.174 25.11 191.994C25.218 192.03 25.35 192.138 25.47 192.162Z" fill="#1E1E1E"/>
<path d="M34.5897 199.482C34.8297 200.37 34.9377 201.318 34.8897 202.254C34.8537 203.213 34.6617 204.173 34.3017 205.061C33.8338 206.225 33.0658 207.137 32.1298 207.893C32.1418 209.633 32.1418 211.373 32.1538 213.112C32.1538 213.256 32.1538 213.388 32.1538 213.532C34.3257 212.489 36.2457 211.025 37.6377 208.997C39.2337 206.657 39.9177 203.621 39.6657 200.85C39.2457 195.918 36.1857 191.886 32.0458 189.559C32.0578 191.491 32.0578 193.422 32.0698 195.354C33.2338 196.482 34.1337 197.85 34.5897 199.482Z" fill="#1E1E1E"/>
<path d="M17.0221 208.325C15.6182 207.041 14.5742 205.385 14.2142 203.477C14.1542 203.177 14.1302 202.877 14.1302 202.578C14.0462 200.706 14.8262 198.954 15.9302 197.406C16.3141 196.878 16.7341 196.398 17.1901 195.93C17.1781 194.778 17.1661 193.626 17.1421 192.474C17.1301 191.635 17.1181 190.807 17.1181 189.967C15.4382 191.011 13.9262 192.319 12.6902 193.842C10.6382 196.374 9.11425 199.434 9.30624 202.77C9.45024 205.733 10.6862 208.481 12.6182 210.725C13.9742 212.285 15.6422 213.424 17.4661 214.204C17.4301 212.333 17.3821 210.461 17.3581 208.589C17.2381 208.505 17.1301 208.421 17.0221 208.325Z" fill="#1E1E1E"/>
<path d="M22.1099 210.569C20.3699 210.341 18.7139 209.705 17.3459 208.601C17.3699 210.473 17.4179 212.345 17.4539 214.216C18.9659 214.864 20.5979 215.236 22.2539 215.392C22.2059 213.796 22.1579 212.201 22.1099 210.569Z" fill="#1E1E1E"/>
<path d="M28.4939 187.159C28.0619 187.123 27.642 187.111 27.21 187.111C27.222 188.935 27.222 190.771 27.234 192.594C29.0459 193.158 30.7379 194.082 32.0819 195.366C32.0699 193.434 32.0699 191.503 32.0579 189.571C31.6499 189.343 31.2299 189.115 30.7979 188.923C30.4979 187.903 29.5739 187.231 28.4939 187.159Z" fill="#1E1E1E"/>
<path d="M32.1298 207.905C31.3979 208.493 30.5579 208.985 29.6819 209.393C28.9379 209.729 28.1339 210.017 27.3059 210.233C27.3179 211.877 27.3179 213.508 27.3299 215.152C28.2059 214.984 29.0579 214.768 29.8859 214.48C30.6659 214.216 31.4339 213.904 32.1658 213.544C32.1658 213.401 32.1658 213.269 32.1658 213.125C32.1418 211.373 32.1298 209.633 32.1298 207.905Z" fill="#1E1E1E"/>
<path d="M17.19 195.942C18.474 194.634 20.034 193.626 21.726 192.93C21.702 191.263 21.678 189.595 21.654 187.915C20.058 188.395 18.522 189.091 17.118 189.979C17.13 190.819 17.142 191.647 17.142 192.486C17.166 193.638 17.178 194.79 17.19 195.942Z" fill="#1E1E1E"/>
<path d="M67.0254 164.493C67.0254 164.457 67.0254 164.409 67.0254 164.373C65.2734 165.081 63.6655 166.161 62.3815 167.421C62.3815 167.469 62.3815 167.517 62.3815 167.565C63.6655 166.305 65.2734 165.213 67.0254 164.493Z" fill="#1E1E1E"/>
<path d="M77.6452 220.6C77.6332 218.104 77.6212 215.608 77.6212 213.124C77.5852 203.645 77.5492 194.178 77.5132 184.711C76.0493 185.863 74.4173 186.799 72.6893 187.459C72.7133 192.198 72.7253 196.926 72.7493 201.666C72.7613 203.081 72.7613 204.497 72.7613 205.901C69.6413 205.901 69.6293 210.737 72.7613 210.737C72.7733 210.737 72.7733 210.737 72.7853 210.737C72.7973 212.369 72.7973 213.988 72.8093 215.62C72.8213 217.948 72.8813 220.276 72.8333 222.604C72.7973 224.223 72.3293 223.707 70.4693 223.767C69.6653 223.791 68.8734 223.815 68.0694 223.851C67.5894 212.585 67.2774 199.986 67.1334 186.931C65.5374 186.691 63.9894 186.235 62.5494 185.539C62.5734 187.855 62.5974 190.171 62.6334 192.498C62.7894 203.297 62.8134 214.12 63.2574 224.907C63.2574 225.063 63.2694 225.231 63.2814 225.387C67.9854 225.363 72.6893 225.327 77.3812 225.303C77.9692 223.839 77.6452 222.076 77.6452 220.6Z" fill="#1E1E1E"/>
<path d="M74.5013 164.181C75.5933 164.613 76.5773 165.249 77.4293 166.053C77.4293 166.029 77.4293 166.005 77.4293 165.981C76.5653 165.165 75.5573 164.517 74.4533 164.073C73.8413 163.833 73.2053 163.677 72.5693 163.581C72.5693 163.617 72.5693 163.641 72.5693 163.677C73.2293 163.785 73.8773 163.941 74.5013 164.181Z" fill="#1E1E1E"/>
<path d="M68.2134 110.246C68.2254 110.126 68.1654 110.03 68.1534 109.922C69.7254 108.782 71.8253 110.03 72.2573 111.59C72.8693 113.834 72.4493 116.486 72.4493 118.778C72.4493 120.445 72.4613 123.649 72.4733 127.285C72.3653 127.285 72.2573 127.249 72.1493 127.273C71.8253 127.285 71.5253 127.381 71.2493 127.561C70.9613 127.717 70.7453 127.921 70.5653 128.185C70.3494 128.413 70.2054 128.689 70.1334 129.001C70.1094 129.217 70.0734 129.432 70.0494 129.636C70.0494 130.068 70.1574 130.476 70.3853 130.848C70.5173 131.016 70.6373 131.172 70.7693 131.34C71.0693 131.64 71.4293 131.844 71.8373 131.964C72.0533 132 72.2693 132.048 72.4973 132.084C72.5093 137.328 72.5213 142.511 72.5213 144.791C72.5213 145.763 72.5333 146.723 72.5333 147.695C72.2573 147.743 71.9813 147.791 71.7173 147.851C71.4053 147.923 71.1293 148.067 70.8893 148.283C70.6253 148.451 70.4214 148.679 70.2654 148.955C70.0854 149.231 69.9894 149.531 69.9774 149.855C69.9054 150.179 69.9174 150.49 70.0254 150.814C70.1094 151.006 70.1814 151.198 70.2654 151.39C70.4813 151.75 70.7693 152.038 71.1293 152.254C71.3213 152.338 71.5133 152.41 71.7053 152.494C71.9813 152.566 72.2693 152.578 72.5453 152.554C72.5573 154.618 72.5573 156.694 72.5693 158.758C74.2373 158.902 75.8813 159.334 77.4293 160.114C77.3813 144.731 77.3333 128.113 77.2853 116.27C77.2733 112.634 77.6933 107.979 73.0493 106.107C70.2414 104.979 64.7574 105.555 63.4734 108.327C63.3894 108.518 63.3174 108.71 63.2694 108.914C63.0774 109.778 63.2454 110.666 63.3174 111.542C63.4134 112.706 63.3414 113.87 63.2814 115.022C62.6455 126.097 62.8855 149.243 62.3335 160.306C62.3335 160.306 62.3215 160.486 62.3335 160.522C62.3335 160.797 62.3335 161.061 62.3335 161.337C63.7854 160.438 65.3814 159.742 67.0254 159.286C67.1574 142.007 67.5414 124.981 68.2134 110.246Z" fill="#1E1E1E"/>
<path d="M65.7894 227.943C68.9813 227.835 75.4492 228.759 77.1772 225.735C77.2612 225.603 77.3092 225.447 77.3692 225.303C72.6653 225.327 67.9613 225.363 63.2694 225.387C63.2814 225.675 63.3654 225.915 63.4854 226.131C63.5454 227.091 64.3014 227.991 65.7894 227.943Z" fill="#1E1E1E"/>
<path d="M61.1694 178.532C60.6294 177.788 60.1975 176.936 59.9095 176.036C59.5975 175.124 59.4415 174.152 59.4655 173.204C59.5255 170.96 60.7014 169.101 62.2614 167.541C62.2974 167.505 62.3454 167.457 62.3934 167.421C62.3814 165.405 62.3694 163.389 62.3694 161.373C61.6374 161.817 60.9414 162.321 60.2815 162.861C57.7855 164.937 55.7335 167.517 54.9535 170.721C54.2935 173.468 54.7375 176.552 55.9375 179.06C57.3535 182.023 59.7415 184.195 62.5374 185.539C62.5134 183.667 62.4894 181.807 62.4654 179.936C61.9974 179.516 61.5534 179.06 61.1694 178.532Z" fill="#1E1E1E"/>
<path d="M78.8093 167.625C78.9653 167.889 79.0973 168.165 79.2052 168.441C79.9492 170.157 79.8292 172.076 79.3492 173.912C78.9652 175.364 78.3053 176.696 77.4653 177.908C77.4773 180.296 77.4773 182.575 77.4893 184.699C80.3092 182.479 82.5292 179.48 83.6452 176.096C84.6772 173 85.0132 169.605 83.6452 166.557C82.4572 163.833 80.3332 161.697 77.7173 160.282C77.6093 160.222 77.5133 160.186 77.4053 160.126C77.4173 162.105 77.4173 164.061 77.4293 165.981C77.9573 166.473 78.4373 167.013 78.8093 167.625Z" fill="#1E1E1E"/>
<path d="M72.3053 182.179C70.5893 182.503 68.7773 182.503 67.0734 182.143C67.0854 183.739 67.0974 185.323 67.1214 186.907C67.5774 186.979 68.0213 187.051 68.4773 187.075C69.1133 187.915 70.2053 188.227 71.2493 187.915C71.7293 187.771 72.2093 187.615 72.6773 187.435C72.6653 185.695 72.6653 183.943 72.6533 182.203C72.5333 182.191 72.4133 182.167 72.3053 182.179Z" fill="#1E1E1E"/>
<path d="M72.5814 163.593C72.5694 161.985 72.5694 160.378 72.5574 158.77C70.7094 158.614 68.8494 158.818 67.0374 159.322C67.0254 161.001 67.0254 162.693 67.0134 164.373C68.8014 163.653 70.7214 163.329 72.5814 163.593Z" fill="#1E1E1E"/>
<path d="M77.4773 177.896C76.2413 179.66 74.5853 181.148 72.7013 182.203C72.6893 182.203 72.6653 182.203 72.6533 182.203C72.6653 183.943 72.6653 185.695 72.6773 187.435C74.4053 186.775 76.0373 185.839 77.5013 184.687C77.4893 182.575 77.4893 180.296 77.4773 177.896Z" fill="#1E1E1E"/>
<path d="M72.5813 163.593C73.2172 163.689 73.8532 163.833 74.4652 164.085C75.5692 164.529 76.5772 165.177 77.4412 165.993C77.4292 164.073 77.4292 162.105 77.4172 160.138C75.8692 159.358 74.2252 158.926 72.5573 158.782C72.5693 160.378 72.5693 161.985 72.5813 163.593Z" fill="#1E1E1E"/>
<path d="M67.0254 164.373C67.0254 162.681 67.0374 161.001 67.0494 159.322C65.4054 159.778 63.8094 160.474 62.3574 161.373C62.3574 163.389 62.3814 165.405 62.3814 167.421C63.6654 166.161 65.2734 165.081 67.0254 164.373Z" fill="#1E1E1E"/>
<path d="M67.0615 182.143C65.3575 181.795 63.7736 181.076 62.4656 179.924C62.4896 181.795 62.5136 183.655 62.5376 185.527C63.9776 186.211 65.5255 186.679 67.1215 186.919C67.0975 185.335 67.0735 183.739 67.0615 182.143Z" fill="#1E1E1E"/>
<path d="M112.517 180.656C112.517 180.632 112.517 180.62 112.517 180.596C112.109 180.68 111.701 180.788 111.293 180.944C110.405 181.304 109.589 181.843 108.869 182.491C109.565 181.879 110.357 181.364 111.209 181.028C111.641 180.86 112.085 180.74 112.517 180.656Z" fill="#1E1E1E"/>
<path d="M112.493 175.736C112.397 152.974 112.793 129.624 113.681 110.246C113.681 110.126 113.633 110.03 113.621 109.922C115.193 108.794 117.293 110.03 117.713 111.59C118.325 113.834 117.905 116.486 117.917 118.777C117.917 120.445 117.929 123.649 117.941 127.285C117.833 127.285 117.725 127.249 117.617 127.273C117.293 127.285 116.993 127.381 116.717 127.561C116.429 127.717 116.213 127.921 116.033 128.185C115.817 128.413 115.673 128.689 115.601 129C115.577 129.216 115.541 129.432 115.517 129.636C115.517 130.068 115.625 130.476 115.841 130.848C115.973 131.016 116.093 131.172 116.225 131.34C116.525 131.64 116.885 131.844 117.293 131.964C117.509 132 117.725 132.048 117.953 132.084C117.965 137.328 117.977 142.511 117.977 144.791C117.977 145.763 117.989 146.723 117.989 147.695C117.713 147.743 117.437 147.791 117.173 147.851C116.861 147.923 116.585 148.067 116.345 148.283C116.081 148.451 115.877 148.679 115.721 148.955C115.541 149.231 115.445 149.531 115.433 149.855C115.361 150.178 115.373 150.49 115.481 150.814C115.565 151.006 115.637 151.198 115.721 151.39C115.937 151.75 116.225 152.038 116.585 152.254C116.777 152.338 116.969 152.41 117.161 152.494C117.437 152.566 117.725 152.578 118.001 152.554C118.025 157.846 118.037 163.125 118.061 168.417H117.209C116.873 168.405 116.561 168.477 116.273 168.621C115.973 168.717 115.709 168.885 115.493 169.125C115.253 169.341 115.085 169.605 114.989 169.905C114.833 170.193 114.773 170.505 114.785 170.828L114.869 171.464C114.989 171.872 115.193 172.232 115.493 172.532C115.661 172.652 115.817 172.784 115.985 172.904C116.357 173.12 116.765 173.228 117.209 173.228H118.073C118.073 174.248 118.085 175.268 118.085 176.3C119.129 176.624 120.149 177.032 121.133 177.524C121.757 177.836 122.357 178.184 122.945 178.568C122.885 159.718 122.813 133.14 122.741 116.282C122.729 112.646 123.149 107.991 118.505 106.119C115.697 104.991 110.213 105.567 108.929 108.338C108.845 108.53 108.773 108.722 108.725 108.926C108.533 109.79 108.701 110.678 108.773 111.554C108.869 112.718 108.797 113.882 108.737 115.034C108.101 126.109 108.341 149.255 107.789 160.318C107.789 160.318 107.777 160.497 107.789 160.533C107.789 166.101 107.825 171.68 107.873 177.26C109.085 176.564 110.405 176.048 111.749 175.808C112.013 175.784 112.253 175.76 112.493 175.736Z" fill="#1E1E1E"/>
<path d="M123.113 220.6C123.101 218.104 123.089 215.608 123.089 213.125C123.077 209.789 123.065 206.453 123.053 203.117C121.577 203.705 119.981 204.041 118.385 204.185C118.325 204.185 118.277 204.185 118.217 204.197C118.217 205.001 118.229 205.793 118.229 206.597C115.121 206.621 115.121 211.433 118.253 211.433C118.253 212.825 118.265 214.216 118.265 215.608C118.277 217.936 118.337 220.264 118.289 222.592C118.253 224.211 117.785 223.696 115.925 223.756C115.121 223.779 114.329 223.804 113.525 223.84C113.261 217.54 113.045 210.821 112.877 203.837C111.257 203.477 109.685 202.901 108.209 202.146C108.293 209.729 108.401 217.324 108.725 224.907C108.725 224.979 108.737 225.051 108.737 225.135C113.477 225.111 118.217 225.075 122.957 225.051C123.401 223.636 123.113 221.992 123.113 220.6Z" fill="#1E1E1E"/>
<path d="M122.969 184.999C122.969 184.951 122.969 184.891 122.969 184.843C121.613 183.367 119.897 182.203 118.121 181.436C118.121 181.472 118.121 181.508 118.121 181.544C119.897 182.323 121.625 183.511 122.969 184.999Z" fill="#1E1E1E"/>
<path d="M108.941 226.131C109.001 227.091 109.757 227.991 111.245 227.943C114.437 227.835 120.905 228.759 122.633 225.735C122.753 225.519 122.849 225.279 122.933 225.039C118.193 225.063 113.453 225.099 108.713 225.123C108.713 225.207 108.725 225.291 108.725 225.375C108.737 225.663 108.833 225.903 108.941 226.131Z" fill="#1E1E1E"/>
<path d="M117.629 181.232C117.797 181.292 117.953 181.364 118.121 181.436C118.109 179.732 118.109 178.028 118.097 176.312C116.285 175.76 114.401 175.52 112.493 175.736C112.505 177.356 112.505 178.976 112.517 180.596C114.221 180.26 115.961 180.596 117.629 181.232Z" fill="#1E1E1E"/>
<path d="M122.969 184.831C124.541 186.535 125.633 188.647 125.717 190.975C125.777 192.87 125.321 194.778 124.205 196.362C124.025 196.614 123.833 196.842 123.617 197.058C123.425 197.262 123.233 197.442 123.017 197.622C123.029 199.446 123.029 201.282 123.041 203.105C124.577 202.494 125.993 201.606 127.133 200.346C129.161 198.162 130.265 195.366 130.517 192.414C130.985 186.739 127.565 181.567 122.933 178.556C122.945 180.704 122.945 182.755 122.957 184.675C122.969 184.735 122.969 184.783 122.969 184.831Z" fill="#1E1E1E"/>
<path d="M107.081 184.651C107.333 184.219 107.633 183.811 107.969 183.427C107.945 181.376 107.921 179.336 107.897 177.284C106.613 178.028 105.449 178.988 104.513 180.08C100.937 184.207 100.385 189.835 102.161 194.754C101.633 195.666 101.801 196.794 102.509 197.622C104.069 199.494 106.025 201.018 108.209 202.146C108.185 200.142 108.161 198.15 108.137 196.146C105.857 192.798 104.933 188.311 107.081 184.651Z" fill="#1E1E1E"/>
<path d="M118.181 199.434C116.345 199.65 114.497 199.446 112.757 198.906C112.793 200.562 112.829 202.206 112.865 203.837C114.617 204.221 116.417 204.353 118.205 204.197C118.205 203.345 118.193 202.494 118.193 201.642C118.193 200.91 118.193 200.178 118.181 199.434Z" fill="#1E1E1E"/>
<path d="M112.757 198.906C111.173 198.414 109.673 197.646 108.341 196.65C108.293 196.53 108.281 196.374 108.209 196.278C108.185 196.23 108.149 196.194 108.125 196.146C108.149 198.15 108.173 200.142 108.197 202.146C109.673 202.901 111.245 203.489 112.865 203.837C112.829 202.206 112.793 200.562 112.757 198.906Z" fill="#1E1E1E"/>
<path d="M108.869 182.503C109.589 181.855 110.405 181.316 111.293 180.956C111.701 180.788 112.109 180.68 112.517 180.608C112.505 178.988 112.493 177.368 112.493 175.748C112.253 175.772 112.013 175.796 111.773 175.832C110.417 176.072 109.097 176.588 107.897 177.284C107.921 179.336 107.945 181.376 107.969 183.427C108.245 183.103 108.545 182.779 108.869 182.503Z" fill="#1E1E1E"/>
<path d="M118.097 176.312C118.109 178.016 118.109 179.72 118.121 181.436C119.897 182.191 121.613 183.367 122.969 184.843C122.969 184.795 122.969 184.747 122.969 184.699C122.957 182.779 122.957 180.728 122.945 178.58C122.357 178.196 121.757 177.848 121.133 177.536C120.149 177.044 119.129 176.636 118.097 176.312Z" fill="#1E1E1E"/>
<path d="M118.649 199.386C118.493 199.41 118.337 199.41 118.181 199.434C118.181 200.166 118.181 200.91 118.193 201.642C118.193 202.494 118.205 203.345 118.205 204.197C118.265 204.197 118.313 204.197 118.373 204.185C119.969 204.041 121.565 203.705 123.041 203.117C123.029 201.294 123.029 199.458 123.017 197.634C121.805 198.618 120.257 199.134 118.649 199.386Z" fill="#1E1E1E"/>
<path d="M166.42 160.954C165.496 161.493 164.512 161.757 163.504 161.853C163.504 161.877 163.504 161.901 163.504 161.937C164.488 161.841 165.448 161.577 166.348 161.05C167.092 160.618 167.764 160.042 168.352 159.382C168.352 159.37 168.352 159.37 168.352 159.358C167.776 159.982 167.14 160.534 166.42 160.954Z" fill="#1E1E1E"/>
<path d="M153.376 157.894C153.376 157.942 153.376 158.002 153.376 158.05C154.672 159.334 156.28 160.33 157.972 161.001C157.972 160.966 157.972 160.93 157.972 160.894C156.28 160.198 154.66 159.19 153.376 157.894Z" fill="#1E1E1E"/>
<path d="M158.248 138.648C158.452 128.653 158.752 119.041 159.148 110.246C159.148 110.126 159.1 110.03 159.088 109.922C160.66 108.782 162.76 110.03 163.192 111.59C163.804 113.834 163.384 116.486 163.384 118.777C163.384 120.445 163.396 123.649 163.408 127.285C163.3 127.285 163.192 127.249 163.084 127.273C162.76 127.285 162.46 127.381 162.184 127.561C161.896 127.717 161.68 127.921 161.5 128.185C161.284 128.413 161.14 128.689 161.068 129C161.044 129.216 161.008 129.432 160.984 129.636C160.984 130.068 161.092 130.476 161.32 130.848C161.452 131.016 161.572 131.172 161.704 131.34C162.004 131.64 162.364 131.844 162.772 131.964C162.988 132 163.204 132.048 163.432 132.084C163.432 134.436 163.444 136.764 163.444 138.84C165.124 139.14 166.768 139.655 168.316 140.387C168.292 131.532 168.256 123.109 168.232 116.282C168.22 112.646 168.64 107.991 163.996 106.119C161.188 104.991 155.704 105.567 154.42 108.338C154.336 108.53 154.264 108.722 154.216 108.926C154.024 109.79 154.192 110.678 154.264 111.554C154.36 112.718 154.288 113.882 154.228 115.034C153.88 121.009 153.796 130.512 153.7 139.727C154.48 139.427 155.272 139.188 156.088 138.996C156.796 138.852 157.516 138.732 158.248 138.648Z" fill="#1E1E1E"/>
<path d="M168.58 220.6C168.568 218.104 168.556 215.608 168.556 213.124C168.52 203.645 168.484 194.178 168.448 184.699C168.424 179.132 168.4 172.484 168.388 165.417C167.812 165.717 167.224 165.993 166.612 166.185C165.604 166.521 164.572 166.689 163.54 166.749C163.54 167.301 163.54 167.865 163.552 168.417H162.712C162.376 168.405 162.064 168.477 161.776 168.621C161.476 168.717 161.212 168.885 160.996 169.125C160.756 169.341 160.588 169.605 160.492 169.905C160.336 170.193 160.276 170.505 160.288 170.829L160.372 171.464C160.492 171.872 160.696 172.232 160.996 172.532C161.164 172.652 161.32 172.784 161.488 172.904C161.86 173.12 162.268 173.228 162.712 173.228H163.576C163.6 178.004 163.612 182.779 163.636 187.567C163.516 187.555 163.408 187.531 163.276 187.531C160.156 187.531 160.144 192.366 163.276 192.366C163.408 192.366 163.528 192.342 163.648 192.33C163.66 195.426 163.672 198.534 163.684 201.63C163.684 203.129 163.696 204.617 163.696 206.117C163.672 206.117 163.648 206.105 163.624 206.105C160.504 206.105 160.492 210.941 163.624 210.941C163.66 210.941 163.684 210.929 163.72 210.929C163.732 212.477 163.732 214.036 163.744 215.584C163.756 217.912 163.816 220.24 163.768 222.568C163.732 224.187 163.264 223.671 161.404 223.731C160.6 223.755 159.808 223.779 159.004 223.815C158.272 206.621 157.936 186.307 157.972 166.041C157.684 165.957 157.396 165.873 157.108 165.777C155.788 165.333 154.516 164.733 153.316 164.001C153.34 173.48 153.436 182.971 153.568 192.462C153.724 203.249 153.748 214.048 154.192 224.835C158.956 224.811 163.72 224.775 168.496 224.751C168.82 223.431 168.58 221.908 168.58 220.6Z" fill="#1E1E1E"/>
<path d="M154.192 225.375C154.204 225.663 154.288 225.903 154.408 226.119C154.468 227.079 155.224 227.979 156.712 227.931C159.904 227.823 166.372 228.747 168.1 225.723C168.268 225.423 168.388 225.099 168.472 224.775C163.708 224.799 158.932 224.835 154.168 224.859C154.168 224.871 154.168 224.883 154.168 224.895C154.18 225.063 154.192 225.219 154.192 225.375Z" fill="#1E1E1E"/>
<path d="M163.432 143.675C163.432 142.427 163.42 140.747 163.42 138.84C161.704 138.54 159.964 138.468 158.248 138.648C158.212 140.231 158.188 141.827 158.164 143.435C159.916 143.159 161.716 143.255 163.432 143.675Z" fill="#1E1E1E"/>
<path d="M153.28 160.342C153.316 159.622 153.352 158.854 153.376 158.038C152.008 156.682 151.012 155.026 150.664 153.118C150.328 151.246 150.532 149.303 151.408 147.575C151.552 147.299 151.708 147.047 151.888 146.807C152.368 146.123 152.968 145.571 153.64 145.115C153.664 143.363 153.676 141.563 153.7 139.751C151.42 140.627 149.344 141.983 147.94 144.035C146.236 146.471 145.54 149.399 145.696 152.35C145.984 157.318 149.164 161.481 153.304 164.013C153.304 162.861 153.292 161.697 153.292 160.545C153.268 160.521 153.28 160.342 153.28 160.342Z" fill="#1E1E1E"/>
<path d="M160.048 161.649C159.352 161.493 158.656 161.265 157.972 160.99C157.96 162.681 157.96 164.373 157.948 166.053C159.772 166.581 161.656 166.857 163.528 166.737C163.516 165.129 163.516 163.521 163.504 161.913C162.364 162.033 161.2 161.913 160.048 161.649Z" fill="#1E1E1E"/>
<path d="M169.996 156.79C169.648 157.642 169.144 158.458 168.532 159.166C168.472 159.238 168.412 159.298 168.352 159.37C168.364 161.409 168.364 163.425 168.376 165.405C170.332 164.361 172.036 162.765 173.2 160.953C176.152 156.37 175.912 150.718 173.464 146.099C173.848 145.115 173.536 144.023 172.72 143.303C171.412 142.115 169.912 141.143 168.304 140.375C168.316 142.475 168.316 144.599 168.328 146.735C170.404 149.639 171.412 153.358 169.996 156.79Z" fill="#1E1E1E"/>
<path d="M157.948 166.065C157.948 164.373 157.96 162.681 157.972 161.001C156.28 160.33 154.672 159.334 153.376 158.05C153.352 158.866 153.316 159.634 153.28 160.354C153.28 160.354 153.268 160.534 153.28 160.57C153.28 161.721 153.292 162.885 153.292 164.037C154.492 164.769 155.764 165.381 157.084 165.813C157.372 165.897 157.66 165.981 157.948 166.065Z" fill="#1E1E1E"/>
<path d="M156.472 143.807C157.024 143.639 157.588 143.519 158.152 143.435C158.176 141.827 158.212 140.231 158.236 138.648C157.504 138.732 156.784 138.852 156.064 139.02C155.26 139.212 154.456 139.452 153.676 139.751C153.652 141.563 153.64 143.351 153.616 145.115C154.492 144.539 155.464 144.119 156.472 143.807Z" fill="#1E1E1E"/>
<path d="M163.432 143.675C164.692 143.987 165.916 144.455 167.068 145.079C167.14 145.187 167.176 145.343 167.248 145.439C167.632 145.847 167.98 146.291 168.316 146.747C168.304 144.611 168.304 142.487 168.292 140.387C166.744 139.656 165.1 139.14 163.42 138.84C163.42 140.747 163.432 142.427 163.432 143.675Z" fill="#1E1E1E"/>
<path d="M166.348 161.038C165.448 161.565 164.488 161.829 163.504 161.925C163.516 163.533 163.516 165.141 163.528 166.749C164.56 166.689 165.58 166.509 166.6 166.185C167.212 165.981 167.8 165.717 168.376 165.417C168.364 163.437 168.364 161.409 168.352 159.382C167.764 160.03 167.092 160.606 166.348 161.038Z" fill="#1E1E1E"/>
<path d="M204.616 110.246C204.616 110.126 204.568 110.03 204.556 109.922C206.128 108.782 208.228 110.03 208.66 111.59C209.272 113.834 208.852 116.486 208.852 118.777C208.852 120.445 208.864 123.649 208.876 127.285C208.768 127.285 208.66 127.249 208.552 127.273C208.228 127.285 207.928 127.381 207.652 127.561C207.364 127.717 207.148 127.921 206.968 128.185C206.752 128.413 206.608 128.689 206.536 129C206.512 129.216 206.476 129.432 206.452 129.636C206.452 130.068 206.56 130.476 206.776 130.848C206.908 131.016 207.028 131.172 207.16 131.34C207.46 131.64 207.82 131.844 208.228 131.964C208.444 132 208.66 132.048 208.888 132.084C208.9 137.328 208.912 142.511 208.912 144.791C208.912 145.763 208.924 146.723 208.924 147.695C208.648 147.743 208.372 147.791 208.108 147.851C207.796 147.923 207.52 148.067 207.28 148.283C207.016 148.451 206.812 148.679 206.656 148.955C206.476 149.231 206.38 149.531 206.368 149.855C206.296 150.178 206.308 150.49 206.416 150.814C206.5 151.006 206.572 151.198 206.656 151.39C206.872 151.75 207.16 152.038 207.52 152.254C207.712 152.338 207.904 152.41 208.096 152.494C208.372 152.566 208.66 152.578 208.936 152.554C208.96 157.258 208.972 161.949 208.996 166.653C210.664 166.809 212.296 167.205 213.844 167.793C213.784 150.502 213.736 130.116 213.676 116.282C213.664 112.646 214.084 107.991 209.44 106.119C206.632 104.991 201.148 105.567 199.864 108.338C199.78 108.53 199.708 108.722 199.66 108.926C199.468 109.79 199.636 110.678 199.708 111.554C199.804 112.718 199.732 113.882 199.672 115.034C199.036 126.109 199.276 149.255 198.724 160.318C198.724 160.318 198.712 160.497 198.724 160.533C198.724 163.209 198.748 165.885 198.76 168.561C200.224 167.817 201.772 167.277 203.392 166.953C203.44 147.059 203.836 127.141 204.616 110.246Z" fill="#1E1E1E"/>
<path d="M214.035 220.6C214.023 218.104 214.011 215.608 214.011 213.124C213.987 206.441 213.963 199.758 213.927 193.086C212.403 193.77 210.771 194.154 209.092 194.298C209.104 196.758 209.116 199.206 209.116 201.666C209.116 202.997 209.128 204.341 209.128 205.673C209.116 205.673 209.092 205.673 209.08 205.673C205.96 205.673 205.948 210.509 209.08 210.509C209.104 210.509 209.128 210.497 209.152 210.497C209.164 212.201 209.164 213.916 209.176 215.62C209.188 217.948 209.247 220.276 209.199 222.604C209.163 224.223 208.696 223.707 206.836 223.767C206.032 223.791 205.24 223.815 204.436 223.851C204.052 214.636 203.764 204.509 203.596 193.986C202 193.662 200.452 193.134 199 192.402C199 192.438 199 192.462 199 192.498C199.144 203.201 199.18 213.916 199.624 224.607C204.412 224.583 209.211 224.547 213.999 224.523C214.263 223.24 214.047 221.824 214.035 220.6Z" fill="#1E1E1E"/>
<path d="M199.66 225.375C199.672 225.663 199.756 225.903 199.876 226.119C199.936 227.079 200.692 227.979 202.18 227.931C205.372 227.823 211.839 228.747 213.567 225.723C213.783 225.339 213.927 224.931 214.011 224.511C209.224 224.535 204.424 224.571 199.636 224.595C199.636 224.691 199.636 224.799 199.648 224.895C199.648 225.063 199.66 225.219 199.66 225.375Z" fill="#1E1E1E"/>
<path d="M197.02 185.287C196.072 183.547 195.592 181.507 195.844 179.396C195.868 179.252 195.892 179.12 195.928 178.976C195.952 178.82 195.94 178.664 195.964 178.508C196.24 177.044 197.044 175.844 198.076 174.848C198.304 174.596 198.556 174.344 198.808 174.116C198.796 172.268 198.796 170.433 198.784 168.585C198.52 168.717 198.244 168.837 197.98 168.981C195.148 170.613 192.628 172.94 191.62 176.108C190.696 178.928 190.864 181.939 191.872 184.723C193.132 188.191 195.796 190.771 199.012 192.39C198.988 190.807 198.976 189.223 198.952 187.639C198.196 186.991 197.536 186.211 197.02 185.287Z" fill="#1E1E1E"/>
<path d="M216.603 181.064C216.519 183.055 215.823 185.131 214.623 186.739C214.407 187.027 214.167 187.291 213.916 187.531C213.928 189.379 213.927 191.215 213.939 193.062C214.611 192.762 215.259 192.403 215.883 191.971C218.211 190.351 219.927 187.759 220.695 185.083C222.207 179.852 220.347 174.5 216.663 170.781C216.759 169.737 216.135 168.777 215.151 168.321C214.731 168.117 214.287 167.961 213.844 167.793C213.856 169.785 213.855 171.74 213.867 173.636C215.607 175.604 216.723 178.148 216.603 181.064Z" fill="#1E1E1E"/>
<path d="M208.827 189.979C207.123 190.279 205.287 190.255 203.536 189.871C203.56 191.251 203.572 192.618 203.596 193.986C204.604 194.19 205.636 194.322 206.655 194.358C207.471 194.382 208.287 194.37 209.091 194.298C209.091 192.846 209.079 191.395 209.079 189.943C208.995 189.943 208.911 189.955 208.827 189.979Z" fill="#1E1E1E"/>
<path d="M205.935 169.905C206.031 169.605 206.199 169.353 206.439 169.125C206.655 168.885 206.919 168.729 207.219 168.621C207.507 168.465 207.819 168.405 208.155 168.417H209.007C209.007 167.829 209.007 167.241 208.995 166.653C207.135 166.473 205.252 166.593 203.416 166.965C203.416 168.393 203.416 169.821 203.416 171.249C204.184 170.973 204.964 170.745 205.755 170.601C205.767 170.361 205.815 170.133 205.935 169.905Z" fill="#1E1E1E"/>
<path d="M199.348 173.612C200.584 172.556 201.964 171.788 203.416 171.261C203.416 169.833 203.416 168.405 203.416 166.977C201.808 167.301 200.248 167.841 198.784 168.585C198.796 170.433 198.796 172.268 198.808 174.116C198.988 173.936 199.168 173.768 199.348 173.612Z" fill="#1E1E1E"/>
<path d="M208.996 168.417H208.144C207.808 168.405 207.496 168.477 207.208 168.621C206.908 168.717 206.644 168.885 206.428 169.125C206.188 169.341 206.02 169.605 205.924 169.905C205.804 170.133 205.756 170.361 205.732 170.613C207.088 170.373 208.468 170.337 209.824 170.493C209.92 170.577 210.016 170.709 210.124 170.769C211.504 171.477 212.788 172.448 213.844 173.636C213.832 171.74 213.832 169.785 213.82 167.793C212.26 167.205 210.628 166.809 208.972 166.653C208.996 167.253 208.996 167.841 208.996 168.417Z" fill="#1E1E1E"/>
<path d="M209.079 189.919C209.079 191.371 209.091 192.822 209.091 194.274C210.771 194.13 212.403 193.758 213.927 193.062C213.915 191.215 213.915 189.379 213.903 187.531C212.571 188.875 210.867 189.571 209.079 189.919Z" fill="#1E1E1E"/>
<path d="M203.548 189.859C201.856 189.475 200.26 188.755 198.952 187.639C198.976 189.223 198.988 190.807 199.012 192.39C200.464 193.122 202.012 193.65 203.608 193.974C203.584 192.606 203.56 191.239 203.548 189.859Z" fill="#1E1E1E"/>
<path d="M32.0819 195.366C30.7379 194.082 29.046 193.146 27.234 192.594C26.658 192.414 26.07 192.258 25.47 192.162C25.35 192.138 25.23 192.043 25.11 191.995C23.946 192.174 22.818 192.498 21.7381 192.942C20.0461 193.638 18.4861 194.646 17.2021 195.954C16.7461 196.41 16.3141 196.89 15.9421 197.43C14.8381 198.978 14.0462 200.73 14.1422 202.602C14.1542 202.865 14.1782 203.129 14.2262 203.393C14.5861 205.301 15.6301 206.957 17.0341 208.241C17.1421 208.337 17.2501 208.421 17.3701 208.505C18.7381 209.621 20.3941 210.245 22.134 210.473C23.85 210.701 25.65 210.557 27.318 210.125C28.146 209.909 28.95 209.633 29.6939 209.285C30.5819 208.877 31.4099 208.385 32.1419 207.797C33.0779 207.041 33.8339 206.129 34.3139 204.965C34.6619 204.113 34.8539 203.189 34.9019 202.266C34.9499 201.33 34.8539 200.382 34.6019 199.494C34.1339 197.85 33.2339 196.482 32.0819 195.366Z" fill="#00A99D"/>
<path d="M78.8573 167.733C78.4614 167.097 77.9814 166.557 77.4414 166.053C76.5894 165.261 75.5934 164.613 74.5134 164.181C73.8894 163.929 73.2414 163.785 72.5814 163.689C70.7215 163.437 68.8015 163.761 67.0255 164.493C65.2735 165.213 63.6655 166.293 62.3816 167.565C62.3576 167.589 62.3216 167.625 62.2976 167.649C60.7376 169.209 59.5616 171.081 59.5016 173.312C59.4776 174.224 59.6216 175.16 59.9096 176.048C60.1976 176.948 60.6296 177.8 61.1696 178.544C61.5536 179.072 61.9976 179.528 62.4656 179.936C63.7735 181.088 65.3695 181.807 67.0615 182.155C68.7775 182.515 70.5775 182.515 72.2934 182.191C72.4014 182.179 72.5214 182.203 72.6414 182.215C72.6534 182.215 72.6774 182.215 72.6894 182.215C74.5734 181.148 76.2294 179.672 77.4654 177.908C78.3053 176.696 78.9653 175.364 79.3493 173.912C79.8293 172.076 79.9493 170.169 79.2053 168.441C79.1093 168.201 78.9893 167.961 78.8573 167.733Z" fill="#FBB03B"/>
<path d="M118.121 181.544C117.929 181.46 117.737 181.376 117.557 181.304C115.925 180.68 114.209 180.356 112.529 180.656C112.097 180.74 111.653 180.848 111.221 181.028C110.369 181.376 109.577 181.88 108.881 182.491C108.557 182.779 108.257 183.091 107.981 183.415C107.645 183.799 107.345 184.207 107.093 184.639C104.945 188.299 105.869 192.774 108.125 196.134C108.149 196.182 108.185 196.218 108.209 196.266C108.281 196.374 108.293 196.518 108.341 196.638C109.673 197.634 111.173 198.39 112.757 198.894C114.497 199.434 116.345 199.638 118.181 199.422C118.337 199.398 118.493 199.398 118.649 199.374C120.257 199.122 121.805 198.606 123.017 197.61C123.233 197.442 123.425 197.25 123.617 197.046C123.797 196.854 123.965 196.65 124.121 196.434C125.237 194.838 125.693 192.942 125.633 191.047C125.549 188.755 124.493 186.679 122.969 184.987C121.625 183.511 119.897 182.323 118.121 181.544Z" fill="#00A99D"/>
<path d="M167.248 145.439C167.164 145.343 167.128 145.199 167.068 145.079C165.928 144.455 164.704 143.987 163.432 143.675C161.716 143.255 159.916 143.159 158.152 143.435C157.588 143.519 157.024 143.639 156.472 143.807C155.464 144.119 154.492 144.539 153.64 145.115C152.956 145.571 152.356 146.135 151.888 146.807C151.732 147.023 151.6 147.251 151.48 147.491C150.604 149.219 150.412 151.174 150.736 153.034C151.072 154.918 152.056 156.55 153.388 157.894C154.672 159.19 156.28 160.21 157.972 160.881C158.68 161.169 159.4 161.397 160.12 161.565C161.248 161.829 162.4 161.949 163.516 161.853C164.524 161.769 165.508 161.493 166.432 160.953C167.152 160.534 167.8 159.982 168.364 159.358C168.424 159.298 168.496 159.238 168.544 159.178C169.156 158.458 169.66 157.654 170.008 156.802C171.424 153.37 170.416 149.651 168.328 146.759C167.98 146.291 167.632 145.847 167.248 145.439Z" fill="#FBB03B"/>
<path d="M213.855 173.648C212.799 172.46 211.515 171.489 210.135 170.781C210.027 170.721 209.943 170.589 209.835 170.505C208.479 170.349 207.099 170.385 205.743 170.625C204.952 170.769 204.172 170.985 203.404 171.273C201.952 171.8 200.572 172.58 199.336 173.624C199.156 173.78 198.976 173.948 198.796 174.116C198.544 174.356 198.304 174.596 198.064 174.848C197.008 176.012 196.204 177.392 195.904 178.988C195.88 179.132 195.844 179.264 195.82 179.408C195.58 181.52 196.048 183.559 196.996 185.299C197.5 186.223 198.16 187.003 198.928 187.651C200.224 188.767 201.832 189.499 203.524 189.871C205.275 190.267 207.111 190.291 208.815 189.979C208.899 189.967 208.983 189.943 209.067 189.931C210.855 189.583 212.559 188.875 213.903 187.543C214.155 187.291 214.383 187.039 214.611 186.751C215.823 185.143 216.507 183.067 216.591 181.076C216.723 178.148 215.607 175.604 213.855 173.648Z" fill="#00A99D"/>
<path d="M14.598 8.26805C14.202 7.83609 13.65 7.58411 13.122 7.58411C12.0661 7.58411 11.2861 8.36404 11.1901 9.52792C10.7461 14.5914 11.0221 19.691 12.0061 24.7065C12.1981 25.6544 12.4861 26.6503 13.326 27.3942C14.19 28.1621 15.45 28.3541 16.674 28.5461C19.194 28.9421 21.4619 29.0381 23.6939 28.8461C26.1419 28.6421 28.4578 28.1861 30.5818 27.4902L31.0258 27.3462C33.5938 26.5303 35.7058 25.6784 35.7297 23.4946C35.7418 22.7147 35.6338 21.8867 35.5378 21.0948C35.4898 20.7349 35.4538 20.3989 35.4178 20.0509C35.2858 18.707 35.1418 17.3752 34.9978 16.0313C34.8658 14.8314 34.7218 13.6195 34.5658 12.4196C34.5298 12.1317 34.4938 11.8437 34.4698 11.5437C34.3738 10.6318 34.2778 9.68391 33.9778 8.84399C32.9338 6.00026 29.9938 5.88027 27.6299 5.78428L18.654 5.42432C17.322 5.42432 16.842 6.36023 16.818 7.16415C16.782 7.98007 17.25 9.20396 18.678 9.26395L25.8179 9.53992C26.1899 9.55192 26.5499 9.56392 26.9099 9.57592C27.6779 9.59992 28.4338 9.62392 29.1898 9.67191L29.6458 9.70791C30.0298 9.70791 30.2938 9.94789 30.4258 10.4038C30.6298 11.0878 30.6898 11.8437 30.7498 12.5156C30.7858 12.8636 30.7978 13.1036 30.8338 13.3436C30.9778 14.4835 31.1098 15.6233 31.2298 16.7632C31.3618 17.9751 31.4818 19.175 31.6018 20.3869L31.8418 22.9906L31.3258 23.1946C30.7618 23.4226 30.0538 23.6266 29.5018 23.7946L29.0458 23.9265C27.6299 24.3585 26.2499 24.6705 24.9539 24.8505C22.3619 25.2104 19.686 25.1744 17.214 24.7425C16.914 24.6945 16.638 24.6465 16.362 24.5865L15.894 24.4905L15.798 24.0345C15.738 23.7706 15.69 23.5066 15.642 23.2426L15.606 23.0506C15.342 21.6108 15.15 20.1349 15.03 18.6831C14.778 15.6953 14.778 12.5996 15.054 9.47993C15.102 9.05997 14.934 8.62801 14.598 8.26805Z" fill="#1E1E1E"/>
<path d="M30.5819 74.7177C28.458 75.4137 26.142 75.8696 23.694 76.0736C21.4741 76.2536 19.2061 76.1576 16.6741 75.7736C15.4501 75.5816 14.1902 75.3897 13.3262 74.6217C12.4862 73.8778 12.1982 72.8939 12.0062 71.934C11.9582 71.682 11.9342 71.43 11.8862 71.1901C11.8742 71.838 11.8622 72.4859 11.8382 73.1219C11.7422 77.3335 16.2181 79.0853 19.6021 77.5495C23.406 75.8336 29.226 77.1295 32.3219 74.1178C31.9019 74.2738 31.4699 74.4298 31.0139 74.5737L30.5819 74.7177Z" fill="#00A99D"/>
<path d="M15.0661 56.7074C14.7901 59.8271 14.7901 62.9228 15.0421 65.9105C15.1621 67.3744 15.3661 68.8383 15.6181 70.2781L15.6541 70.4701C15.7021 70.7341 15.7501 70.9981 15.8101 71.262L15.9061 71.718L16.3741 71.814C16.6501 71.874 16.9261 71.922 17.2261 71.97C19.6981 72.4019 22.374 72.4499 24.966 72.078C26.274 71.898 27.6419 71.586 29.0579 71.154L29.5139 71.0221C30.0659 70.8541 30.7739 70.6501 31.3379 70.4221L31.8539 70.2181L31.6139 67.6144C31.5419 66.8465 31.4579 66.0905 31.3739 65.3346C30.6419 66.1385 29.8979 66.9305 29.1299 67.7104C27.9899 68.8743 26.67 69.9662 24.966 69.1022C23.862 68.5383 22.866 67.4944 22.026 66.5945C21.138 65.6346 20.334 64.5787 19.6141 63.4868C18.1141 61.183 21.81 59.0592 23.298 61.339C23.826 62.1429 24.39 62.8868 25.038 63.5948C25.374 63.9547 25.734 64.3507 26.118 64.7107C26.43 64.3987 26.742 64.0747 27.042 63.7628C27.6539 63.1268 28.2659 62.4669 28.8539 61.8189C29.5019 61.111 30.1019 60.3671 30.7259 59.6351C30.6659 58.9992 30.6059 58.2913 30.4139 57.6433C30.2819 57.1754 30.0179 56.9474 29.6339 56.9474L29.1779 56.9114C28.4219 56.8514 27.6659 56.8394 26.898 56.8154C26.538 56.8034 26.166 56.7914 25.806 56.7794L18.6661 56.5034C17.2381 56.4435 16.7701 55.2196 16.8061 54.4036C16.8421 53.5997 17.3101 52.6638 18.6421 52.6638L27.6179 53.0238C29.8979 53.1078 32.6819 53.2518 33.8219 55.8075C33.9539 55.6395 34.0619 55.4715 34.1939 55.3036C31.7219 51.092 23.022 50.0361 18.8461 51.5839C17.7061 52.0159 16.8181 52.6998 16.1341 53.5517C15.1861 53.7677 14.3101 54.2237 13.6141 54.9076C13.9741 55.0156 14.3221 55.2196 14.5981 55.5075C14.9341 55.8555 15.1021 56.2755 15.0661 56.7074Z" fill="#00A99D"/>
<path d="M34.7819 61.435C34.8179 61.759 34.8539 62.0829 34.9019 62.3949C34.9379 61.9989 34.9619 61.591 34.9979 61.171C34.9259 61.267 34.8539 61.351 34.7819 61.435Z" fill="#FBB03B"/>
<path d="M33.9298 71.526C33.5578 72.6419 33.0178 73.4818 32.3458 74.1178C34.2778 73.3978 35.7178 72.5099 35.7418 70.7221C35.7538 69.9422 35.6458 69.1143 35.5498 68.3223C35.5018 67.9624 35.4658 67.6264 35.4298 67.2784C35.2978 65.9346 35.1538 64.6027 35.0098 63.2588C34.9738 62.9708 34.9378 62.6829 34.9018 62.3949C34.8778 62.7069 34.8538 63.0188 34.8298 63.3188C34.6738 65.9586 34.7578 68.9823 33.9298 71.526Z" fill="#1E1E1E"/>
<path d="M34.9978 61.171C37.4818 58.1593 39.7858 54.9916 41.8977 51.7159C43.3857 49.4121 39.6898 47.2763 38.2138 49.5681C36.9538 51.5239 35.5978 53.4198 34.1938 55.2676C34.2058 55.2796 34.2178 55.3036 34.2298 55.3156C35.1898 56.9954 35.1418 59.1552 34.9978 61.171Z" fill="#1E1E1E"/>
<path d="M13.6142 54.8836C13.4462 54.8356 13.2902 54.7996 13.1222 54.7996C12.0662 54.7996 11.2862 55.5796 11.1902 56.7434C10.7702 61.555 11.0222 66.4025 11.8862 71.1661C11.9822 66.8825 12.0782 62.5989 12.1862 58.3033C12.2222 56.8274 12.7862 55.6995 13.6142 54.8836Z" fill="#1E1E1E"/>
<path d="M34.9979 61.171C35.1418 59.1552 35.1898 56.9954 34.2419 55.3276C34.2299 55.3156 34.2179 55.2916 34.2059 55.2796C34.0859 55.4476 33.9659 55.6156 33.8339 55.7835C32.6939 53.2278 29.9099 53.0958 27.6299 52.9998L18.6541 52.6398C17.3221 52.6398 16.8421 53.5757 16.8181 54.3797C16.7821 55.1956 17.2501 56.4195 18.6781 56.4795L25.818 56.7554C26.19 56.7674 26.55 56.7794 26.91 56.7914C27.6779 56.8154 28.4339 56.8394 29.1899 56.8874L29.6459 56.9234C30.0299 56.9234 30.2939 57.1634 30.4259 57.6194C30.6179 58.2553 30.6779 58.9632 30.7379 59.6112C30.1139 60.3431 29.5019 61.087 28.8659 61.795C28.2659 62.4549 27.6659 63.1028 27.054 63.7388C26.754 64.0627 26.442 64.3747 26.13 64.6867C25.746 64.3267 25.386 63.9308 25.05 63.5708C24.402 62.8629 23.826 62.1189 23.31 61.315C21.822 59.0352 18.1261 61.159 19.6261 63.4628C20.346 64.5547 21.138 65.6106 22.038 66.5705C22.878 67.4704 23.874 68.5143 24.978 69.0783C26.682 69.9542 28.0019 68.8503 29.1419 67.6864C29.9099 66.9065 30.6419 66.1145 31.3859 65.3106C31.4699 66.0666 31.5539 66.8345 31.6259 67.5904L31.8659 70.1942L31.3499 70.3981C30.7859 70.6261 30.0779 70.8301 29.5259 70.9981L29.0699 71.1301C27.6539 71.562 26.274 71.874 24.978 72.054C22.386 72.4139 19.7101 72.3779 17.2381 71.946C16.9381 71.898 16.6621 71.85 16.3861 71.79L15.9181 71.694L15.8221 71.2381C15.7621 70.9741 15.7141 70.7101 15.6661 70.4461L15.6301 70.2542C15.3661 68.8143 15.1741 67.3384 15.0541 65.8866C14.8021 62.8989 14.8021 59.8032 15.0781 56.6834C15.1141 56.2635 14.9581 55.8315 14.6221 55.4716C14.3461 55.1716 13.9981 54.9676 13.6381 54.8716C12.8101 55.6875 12.2462 56.8154 12.2102 58.3033C12.1142 62.5869 12.0182 66.8705 11.9102 71.1661C11.9582 71.418 11.9822 71.67 12.0302 71.91C12.2222 72.8579 12.5101 73.8538 13.3501 74.5977C14.2141 75.3657 15.4741 75.5576 16.6981 75.7496C19.2181 76.1456 21.486 76.2416 23.718 76.0496C26.166 75.8456 28.4819 75.3897 30.6059 74.6937L31.0499 74.5497C31.5059 74.4058 31.9379 74.2498 32.3579 74.0938C33.0299 73.4458 33.5699 72.6179 33.9419 71.502C34.7819 68.9703 34.6979 65.9346 34.8539 63.3068C34.8659 63.0068 34.8899 62.7069 34.9259 62.3829C34.8899 62.0589 34.8539 61.735 34.8059 61.423C34.8539 61.351 34.9258 61.267 34.9979 61.171Z" fill="#1E1E1E"/>
<path d="M106.217 11.7597C106.265 10.4878 105.713 9.07197 104.429 8.98798C95.3089 8.44803 86.129 8.17206 76.9492 8.17206C66.0413 8.17206 55.1335 8.55602 44.3096 9.32395C43.0616 9.40794 42.4616 10.8118 42.5096 12.1437C42.5456 13.1996 43.0496 14.3875 44.2496 14.3035C64.2293 12.8876 84.4971 12.7796 104.477 13.9675C105.665 14.0035 106.181 12.8276 106.217 11.7597Z" fill="#1E1E1E"/>
<path d="M77.3093 25.8704C78.1973 25.8344 78.6413 25.1744 78.8573 24.6345C79.1933 23.7826 79.1813 22.6427 78.8213 21.8507C78.6053 21.3948 78.1733 20.8428 77.3573 20.8908C66.8694 21.3588 56.2376 21.3108 45.7617 20.7589C45.7257 20.7589 45.7017 20.7589 45.6657 20.7589C44.4897 20.7589 44.0457 21.9587 44.0097 23.0146C43.9737 24.2865 44.5137 25.6784 45.7977 25.7504C56.2496 26.3023 66.8574 26.3383 77.3093 25.8704Z" fill="#1E1E1E"/>
<path d="M93.1491 57.7273C93.1851 56.4554 92.7531 55.0396 91.7211 54.9556C84.4732 54.4156 77.1773 54.1396 69.8694 54.1396C61.2055 54.1396 52.5296 54.5236 43.9258 55.2915C42.9298 55.3755 42.4618 56.7794 42.4978 58.1113C42.5338 59.1672 42.9178 60.3551 43.8778 60.2711C59.7655 58.8552 75.8693 58.7472 91.7571 59.9351C92.7171 59.9711 93.1251 58.7952 93.1491 57.7273Z" fill="#1E1E1E"/>
<path d="M86.4771 66.8585C73.1093 67.3264 59.5735 67.2784 46.2296 66.7265C46.1936 66.7265 46.1457 66.7265 46.1097 66.7265C44.6217 66.7265 44.0457 67.9264 43.9977 68.9823C43.9497 70.2542 44.6457 71.646 46.2776 71.718C59.5975 72.27 73.1093 72.306 86.4171 71.85C87.5451 71.814 88.1091 71.1541 88.3851 70.6141C88.8171 69.7622 88.7931 68.6223 88.3371 67.8304C88.0731 67.3624 87.5211 66.8225 86.4771 66.8585Z" fill="#1E1E1E"/>
<path d="M198.58 76.3016C198.58 72.5339 198.556 68.7663 198.484 65.0107C198.412 61.255 198.316 57.4874 198.184 53.7197C198.076 50.612 198.232 47.1204 196.048 44.6126C193.936 42.2008 190.54 41.9489 187.552 41.6129C183.844 41.2049 180.124 40.845 176.392 40.557C159.532 39.2371 142.588 39.1651 125.717 40.317C122.657 40.521 122.633 45.2965 125.717 45.0806C139.348 44.1567 153.028 44.0127 166.684 44.6966C173.464 45.0326 180.22 45.5725 186.964 46.3045C189.04 46.5324 192.28 46.4364 193 48.8602C193.372 50.1201 193.3 51.524 193.348 52.8198C193.42 54.6077 193.48 56.3835 193.528 58.1713C193.72 64.9627 193.852 71.754 193.768 78.5454C193.756 80.0092 193.732 81.4851 193.492 82.925C193.336 83.8369 193.156 85.6727 192.268 86.2366C191.848 86.5006 191.152 86.4526 190.684 86.4766C189.796 86.5246 188.896 86.5726 188.008 86.6086C186.22 86.6926 184.432 86.7646 182.644 86.8366C169.024 87.3285 155.296 87.3525 141.688 86.4406C139.84 86.3206 137.98 86.1527 136.144 85.8527C135.244 85.7087 132.412 85.4207 132.04 84.8808C131.92 84.7008 131.908 83.3329 131.848 82.865C131.74 81.8931 131.633 80.9211 131.525 79.9492C131.321 78.0054 131.129 76.0496 130.949 74.1058C130.241 66.4985 129.725 58.8793 129.389 51.248C129.257 48.1883 124.457 48.1763 124.589 51.248C124.913 58.6873 125.417 66.1146 126.089 73.5299C126.437 77.3095 126.797 81.1011 127.277 84.8688C127.481 86.4766 127.949 87.9285 129.377 88.8644C130.721 89.7523 132.46 90.0283 134.02 90.3162C141.232 91.6601 148.768 91.6241 156.088 91.7921C163.744 91.9601 171.4 91.9481 179.044 91.7321C182.824 91.6241 186.592 91.4801 190.36 91.2762C191.944 91.1922 193.576 91.1082 194.932 90.2083C196.276 89.3083 197.056 87.8925 197.572 86.4046C198.676 83.1889 198.58 79.6373 198.58 76.3016Z" fill="#1E1E1E"/>
<path d="M204.772 89.2963C207.16 89.1403 209.547 88.9963 211.935 88.8524" stroke="#1E1E1E" stroke-width="3.986" stroke-linecap="round" stroke-linejoin="round"/>
<path d="M225.747 88.0004C226.227 87.9764 226.719 87.9404 227.199 87.9164C230.079 87.7365 233.139 87.5085 234.615 84.6168C235.347 83.1649 235.431 81.4971 235.503 79.8772C236.391 59.5871 237.843 39.2251 237.711 18.899C237.687 15.1314 239.631 5.36432 233.895 5.17234C204.712 4.21243 175.528 3.45651 146.344 2.60459C142.612 2.4966 127.601 0.360802 125.453 4.82438C125.381 4.96836 125.357 5.13635 125.369 5.29233C125.585 9.65991 125.945 14.0155 126.185 18.3831" stroke="#1E1E1E" stroke-width="3.986" stroke-linecap="round" stroke-linejoin="round" stroke-dasharray="11.54 11.54"/>
<path d="M126.377 25.2944C126.437 27.6822 126.593 30.07 127.145 32.4098" stroke="#1E1E1E" stroke-width="3.986" stroke-linecap="round" stroke-linejoin="round"/>
<path d="M227.439 13.1036C227.055 13.0076 226.635 12.9836 226.191 13.0796C222.123 13.9075 218.055 14.7474 213.988 15.5754C212.752 15.8273 211.936 17.3392 212.308 18.5031C212.728 19.799 213.94 20.4349 215.26 20.1709C215.596 20.0989 215.931 20.0389 216.267 19.9669C209.788 24.8385 203.848 30.4179 198.628 36.6214C197.8 37.6053 197.656 39.0211 198.628 39.993C199.48 40.845 201.184 40.9889 202.024 39.993C207.7 33.2377 214.204 27.2383 221.367 22.1267C220.815 23.2906 220.263 24.4545 219.723 25.6184C219.171 26.7823 219.399 28.1862 220.587 28.8821C221.631 29.482 223.323 29.1941 223.875 28.0302C225.651 24.2625 227.439 20.4829 229.215 16.7153C229.947 15.1554 228.939 13.3196 227.439 13.1036Z" fill="#1E1E1E"/>
<path d="M188.572 70.9861C186.988 66.8225 185.392 62.6589 183.4 58.6752C182.704 57.2834 180.664 57.1634 179.632 58.1953C176.728 61.087 173.548 63.6308 170.116 65.8625C168.652 63.2468 167.248 60.5951 165.928 57.9073C165.256 56.5274 163.168 56.3835 162.16 57.4274C159.244 60.4391 156.4 63.5228 153.604 66.6545C151.708 63.9907 149.968 61.231 148.396 58.3633C147.532 56.7794 145.144 56.8514 144.256 58.3633C141.88 62.3829 139.264 66.2585 136.36 69.9182C135.557 70.9261 135.365 72.3059 136.36 73.2898C137.188 74.1178 138.952 74.3097 139.756 73.2898C142.084 70.3741 144.256 67.3504 146.272 64.2187C147.832 66.7745 149.524 69.2462 151.36 71.622C152.224 72.7379 154 73.3858 155.128 72.102C157.78 69.0782 160.504 66.1265 163.264 63.2108C164.512 65.6466 165.808 68.0703 167.176 70.4461C167.812 71.55 169.348 71.958 170.464 71.298C174.076 69.1622 177.448 66.6545 180.568 63.8707C181.792 66.6305 182.872 69.4382 183.952 72.2579C184.408 73.4578 185.572 74.2857 186.904 73.9258C188.056 73.6018 189.028 72.1979 188.572 70.9861Z" fill="#1E1E1E"/>
</svg>
