<svg width="240" height="240" viewBox="0 0 240 240" fill="none" xmlns="http://www.w3.org/2000/svg">
<path d="M145.515 126.295C145.563 126.655 145.599 127.015 145.647 127.387C145.683 126.979 145.719 126.547 145.743 126.115C145.671 126.175 145.587 126.235 145.515 126.295Z" fill="#FBB03B"/>
<path d="M141.327 139.337C139.203 140.009 136.887 140.453 134.439 140.645C132.219 140.825 129.951 140.729 127.419 140.345C126.195 140.165 124.935 139.973 124.071 139.229C123.231 138.497 122.943 137.549 122.751 136.626C122.703 136.386 122.679 136.146 122.631 135.906C122.619 136.53 122.607 137.154 122.583 137.777C122.487 141.869 126.963 143.56 130.347 142.073C134.151 140.405 139.971 141.665 143.066 138.749C142.647 138.905 142.214 139.049 141.759 139.193L141.327 139.337Z" fill="#00A99D"/>
<path d="M125.811 121.856C125.536 124.88 125.535 127.879 125.787 130.783C125.907 132.198 126.111 133.626 126.375 135.018L126.411 135.21C126.459 135.462 126.507 135.726 126.567 135.978L126.663 136.422L127.131 136.518C127.407 136.578 127.683 136.626 127.983 136.674C130.455 137.094 133.131 137.142 135.723 136.782C137.031 136.602 138.399 136.302 139.815 135.882L140.271 135.75C140.823 135.594 141.531 135.39 142.095 135.174L142.611 134.982L142.371 132.45C142.251 131.287 142.131 130.123 141.999 128.959C141.567 129.283 141.147 129.619 140.703 129.931C139.695 130.651 138.687 131.359 137.667 132.054C136.731 132.69 135.723 133.578 134.595 133.842C133.083 134.178 131.979 133.17 131.103 132.138C130.323 131.227 129.615 130.279 128.991 129.259C127.587 126.979 131.271 124.904 132.675 127.183C133.023 127.759 133.395 128.323 133.815 128.851C133.971 129.043 134.127 129.235 134.295 129.415C134.679 129.139 135.051 128.815 135.375 128.599C136.095 128.107 136.803 127.615 137.511 127.123C138.831 126.199 140.139 125.252 141.423 124.28C141.435 124.268 141.459 124.256 141.471 124.244C141.423 123.752 141.351 123.248 141.207 122.768C141.075 122.324 140.811 122.096 140.427 122.084L139.971 122.06C139.215 122.012 138.459 121.988 137.691 121.964C137.331 121.952 136.959 121.94 136.599 121.928L129.459 121.652C128.031 121.592 127.563 120.404 127.587 119.613C127.623 118.833 128.091 117.921 129.423 117.921L138.399 118.269C140.763 118.353 143.715 118.473 144.747 121.244C144.783 121.352 144.795 121.472 144.831 121.58C144.999 121.448 145.155 121.316 145.311 121.184C145.215 120.956 145.131 120.74 144.999 120.524C142.575 116.397 133.803 115.353 129.615 116.877C128.475 117.285 127.587 117.957 126.903 118.785C125.955 118.989 125.08 119.433 124.384 120.092C124.744 120.188 125.092 120.392 125.368 120.68C125.68 121.028 125.847 121.448 125.811 121.856Z" fill="#00A99D"/>
<path d="M144.675 136.23C144.303 137.31 143.763 138.125 143.091 138.749C145.023 138.053 146.463 137.19 146.487 135.462C146.499 134.706 146.391 133.902 146.295 133.134C146.247 132.786 146.211 132.45 146.175 132.126C146.043 130.831 145.899 129.523 145.755 128.227C145.719 127.951 145.683 127.663 145.647 127.387C145.623 127.687 145.599 127.987 145.575 128.287C145.431 130.831 145.515 133.77 144.675 136.23Z" fill="#1E1E1E"/>
<path d="M124.372 120.092C124.204 120.044 124.048 120.02 123.88 120.02C122.824 120.02 122.044 120.776 121.948 121.904C121.528 126.571 121.78 131.275 122.644 135.906C122.74 131.742 122.836 127.591 122.944 123.428C122.968 121.988 123.532 120.884 124.372 120.092Z" fill="#1E1E1E"/>
<path d="M145.743 126.115C147.963 124.388 150.159 122.624 152.283 120.788C153.135 120.044 153.063 118.629 152.283 117.873C151.431 117.045 150.135 117.129 149.271 117.873C147.963 119.001 146.631 120.104 145.287 121.184C145.899 122.66 145.875 124.436 145.743 126.115Z" fill="#1E1E1E"/>
<path d="M145.743 126.115C145.863 124.436 145.887 122.672 145.287 121.184C145.119 121.316 144.963 121.448 144.807 121.58C144.771 121.472 144.759 121.352 144.723 121.244C143.679 118.461 140.739 118.353 138.375 118.269L129.399 117.921C128.067 117.921 127.587 118.833 127.563 119.613C127.527 120.404 127.995 121.592 129.435 121.652L136.575 121.928C136.947 121.94 137.307 121.952 137.667 121.964C138.435 121.988 139.191 122.012 139.947 122.06L140.403 122.084C140.787 122.084 141.051 122.312 141.183 122.768C141.327 123.236 141.399 123.752 141.447 124.244C141.435 124.256 141.411 124.268 141.399 124.28C140.115 125.252 138.807 126.199 137.487 127.123C136.779 127.627 136.071 128.119 135.351 128.599C135.039 128.815 134.655 129.139 134.271 129.415C134.103 129.235 133.947 129.043 133.791 128.851C133.371 128.323 132.999 127.747 132.651 127.183C131.247 124.904 127.563 126.979 128.967 129.259C129.591 130.267 130.299 131.227 131.079 132.138C131.967 133.17 133.059 134.178 134.571 133.842C135.711 133.59 136.707 132.69 137.643 132.054C138.663 131.359 139.683 130.651 140.679 129.931C141.123 129.619 141.531 129.283 141.975 128.959C142.107 130.123 142.227 131.287 142.347 132.45L142.587 134.982L142.071 135.174C141.507 135.39 140.799 135.594 140.247 135.75L139.791 135.882C138.375 136.302 136.995 136.602 135.699 136.782C133.107 137.13 130.431 137.094 127.959 136.674C127.659 136.626 127.383 136.578 127.107 136.518L126.64 136.422L126.543 135.978C126.483 135.726 126.435 135.474 126.387 135.21L126.352 135.018C126.088 133.614 125.895 132.186 125.763 130.783C125.512 127.891 125.512 124.88 125.788 121.856C125.824 121.448 125.668 121.028 125.332 120.68C125.056 120.392 124.708 120.188 124.348 120.092C123.52 120.884 122.956 121.988 122.92 123.428C122.824 127.591 122.728 131.742 122.62 135.906C122.668 136.146 122.692 136.386 122.74 136.626C122.932 137.549 123.22 138.509 124.06 139.229C124.924 139.973 126.183 140.165 127.407 140.345C129.927 140.729 132.195 140.813 134.427 140.645C136.875 140.453 139.191 140.009 141.315 139.337L141.759 139.193C142.215 139.049 142.647 138.905 143.067 138.749C143.739 138.125 144.279 137.31 144.651 136.23C145.491 133.77 145.407 130.831 145.563 128.275C145.575 127.987 145.599 127.687 145.635 127.375C145.587 127.015 145.551 126.655 145.503 126.283C145.587 126.235 145.671 126.175 145.743 126.115Z" fill="#1E1E1E"/>
<path d="M202.2 121.46C194.952 120.932 187.657 120.668 180.349 120.668C171.685 120.668 163.01 121.04 154.406 121.784C153.41 121.868 152.942 123.224 152.978 124.52C153.014 125.54 153.41 126.691 154.358 126.619C170.245 125.24 186.349 125.132 202.236 126.295C203.184 126.319 203.592 125.18 203.616 124.148C203.652 122.912 203.22 121.544 202.2 121.46Z" fill="#1E1E1E"/>
<path d="M184.022 138.101C188.294 137.873 192.614 137.981 196.897 137.825C198.025 137.789 198.589 137.154 198.865 136.626C199.297 135.798 199.273 134.694 198.817 133.926C198.541 133.482 198.001 132.954 196.945 132.99C194.497 133.086 192.05 133.134 189.614 133.17C187.178 133.206 184.634 133.038 182.222 133.398C181.874 133.446 181.526 133.518 181.238 133.698C180.734 134.01 180.506 134.61 180.338 135.174C180.254 135.45 180.194 135.726 180.194 136.014C180.218 136.806 180.854 137.489 181.598 137.801C182.354 138.137 183.206 138.149 184.022 138.101Z" fill="#1E1E1E"/>
<path d="M156.759 137.717C159.35 137.825 161.954 137.897 164.546 137.957C165.89 137.993 167.222 138.017 168.566 138.029C169.478 138.041 170.534 138.209 171.47 138.029C171.662 137.993 171.854 137.933 172.046 137.861C172.754 137.573 173.306 136.938 173.462 136.206C173.618 135.474 173.39 134.682 172.85 134.142C172.25 133.53 171.338 133.29 170.474 133.218C168.278 133.062 166.022 133.158 163.826 133.11C161.45 133.05 159.087 132.978 156.711 132.882C156.675 132.882 156.627 132.882 156.591 132.882C155.103 132.882 154.527 134.046 154.479 135.066C154.431 136.29 155.127 137.645 156.759 137.717Z" fill="#1E1E1E"/>
<path d="M207.72 110.218C207.84 110.338 208.08 110.446 208.32 110.566C208.32 110.686 208.44 110.686 208.68 110.794H208.8C208.92 110.914 209.04 111.022 209.16 111.022C209.28 111.022 209.52 111.022 209.64 110.902C209.76 110.902 209.76 110.902 209.88 110.902C210 110.902 210.12 110.902 210.24 110.902H210.36H210.48C210.72 110.902 210.96 110.674 211.08 110.554C211.2 110.434 211.32 110.326 211.32 110.326L211.44 110.206L211.56 110.086C211.56 109.966 211.68 109.858 211.8 109.618V109.498C211.8 109.498 211.8 109.498 212.16 109.378C212.28 109.258 212.28 109.03 212.28 108.91C212.28 108.442 212.04 108.106 211.8 107.759L211.68 107.639C211.68 107.639 211.68 107.519 211.56 107.519C211.44 107.399 211.44 107.399 211.44 107.399L211.32 107.279L211.2 107.159C211.08 107.159 210.96 107.039 210.96 107.039H210.84C210.6 107.039 210.36 106.919 210.12 106.919C209.76 106.799 209.4 106.571 209.04 106.115L208.56 105.539L208.08 106.007L207.96 106.127C207.96 106.127 207.96 106.127 207.84 106.247L207.6 106.703C207.48 107.171 207.36 107.627 207.24 108.094C207.12 108.442 207.12 108.898 207.12 109.366V109.594L207.6 110.062L207.72 110.218Z" fill="#FBB03B"/>
<path d="M207.12 114.729C208.32 115.197 209.52 115.305 210.84 115.077C211.8 114.957 212.76 114.501 213.84 113.686C215.639 112.186 216.359 109.87 215.879 107.675C215.4 105.359 213.24 103.403 210.96 103.055C210.24 102.935 209.76 102.935 209.28 103.283C209.16 103.403 209.04 103.511 208.8 103.631L208.32 104.207L207.84 103.631C207.84 103.511 207.72 103.511 207.72 103.403C207.72 103.403 207.72 103.283 207.6 103.283C207.12 102.935 206.64 102.707 206.04 102.707C205.56 102.707 204.96 102.935 204.48 103.283C202.8 104.783 202.44 107.207 202.44 109.294C202.32 112.414 205.32 114.034 207.12 114.729ZM208.92 104.555C214.56 104.555 214.56 112.87 208.92 112.99C203.28 112.99 203.28 104.555 208.92 104.555Z" fill="#1E1E1E"/>
<path d="M208.92 112.99C214.56 112.87 214.56 104.555 208.92 104.555C203.28 104.555 203.28 112.99 208.92 112.99ZM207.12 109.414C207.12 108.946 207.12 108.49 207.24 108.142C207.36 107.675 207.48 107.219 207.6 106.751L207.84 106.295C207.96 106.175 207.96 106.175 207.96 106.175L208.08 106.055L208.56 105.587L209.04 106.163C209.4 106.619 209.76 106.859 210.12 106.967C210.36 106.967 210.6 107.087 210.84 107.087H210.96C210.96 107.087 211.08 107.207 211.2 107.207L211.32 107.327L211.44 107.447C211.44 107.447 211.44 107.447 211.56 107.567C211.68 107.567 211.68 107.687 211.68 107.687L211.8 107.807C212.04 108.154 212.28 108.502 212.28 108.958C212.28 109.078 212.28 109.306 212.16 109.426C211.8 109.546 211.8 109.546 211.8 109.546V109.666C211.68 109.894 211.56 110.014 211.56 110.134L211.44 110.254L211.32 110.374C211.32 110.374 211.2 110.494 211.08 110.602C210.96 110.722 210.72 110.95 210.48 110.95H210.36H210.24C210.12 110.95 210 110.95 209.88 110.95C209.76 110.95 209.76 110.95 209.64 110.95C209.4 111.07 209.64 110.95 209.64 110.95C209.52 111.07 209.28 111.07 209.16 111.07C209.04 111.07 208.92 110.95 208.8 110.842H208.68C208.44 110.722 208.32 110.722 208.32 110.614C208.08 110.494 207.84 110.386 207.72 110.266L207.6 110.146L207.12 109.678V109.414Z" fill="#1E1E1E"/>
<path d="M209.64 110.914C209.64 110.914 209.4 111.022 209.64 110.914V110.914Z" fill="#1E1E1E"/>
<path d="M206.616 208.409C206.664 210.113 206.7 211.805 206.76 213.508C206.88 215.932 210.6 215.932 210.48 213.508C210.42 211.757 210.384 210.017 210.336 208.265C209.544 208.301 208.752 208.313 207.96 208.313C207.552 208.325 207.084 208.373 206.616 208.409Z" fill="#1E1E1E"/>
<path d="M209.88 150.543C209.88 148.12 206.16 148.12 206.16 150.543C205.98 161.173 205.956 171.768 206.064 182.362C207.3 182.458 208.548 182.554 209.784 182.65C209.676 171.96 209.7 161.269 209.88 150.543Z" fill="#1E1E1E"/>
<path d="M206.124 185.961C205.296 185.913 204.468 185.853 203.64 185.793C203.88 189.609 204.36 193.412 204.96 197.107C205.32 199.075 205.68 200.923 206.04 202.878C206.124 203.478 206.22 204.138 206.352 204.726C206.4 204.726 206.46 204.726 206.508 204.726C206.34 198.463 206.208 192.212 206.124 185.961Z" fill="#FBB03B"/>
<path d="M212.04 204.726V204.606C212.16 204.138 212.16 203.682 212.16 203.214C212.16 202.41 212.28 201.487 212.28 200.563C212.28 198.943 212.4 197.215 212.4 195.596C212.52 193.868 212.52 192.128 212.52 190.4C212.52 189.597 212.52 188.781 212.52 187.977C212.52 187.509 212.52 187.053 212.52 186.585V186.465C211.632 186.357 210.732 186.285 209.844 186.213C209.928 192.344 210.06 198.487 210.228 204.63L210.84 204.606C211.2 204.606 211.68 204.606 212.04 204.726Z" fill="#FBB03B"/>
<path d="M206.124 185.961C206.208 192.212 206.34 198.463 206.52 204.726C207.12 204.726 207.756 204.726 208.332 204.726L210.24 204.642C210.072 198.499 209.94 192.356 209.856 186.225C208.608 186.117 207.36 186.033 206.124 185.961Z" fill="#FBB03B"/>
<path d="M200.761 203.922C200.881 205.074 200.881 206.238 201.601 207.162C202.656 208.637 204.768 208.565 206.616 208.421C206.58 207.39 206.556 206.358 206.532 205.326C206.532 205.314 206.532 205.314 206.52 205.314C206.46 205.134 206.4 204.942 206.352 204.738C206.244 204.738 206.136 204.738 206.04 204.738C205.68 204.738 204.96 204.858 204.48 204.858C204.36 204.402 204.36 203.706 204.36 203.238C204.24 202.542 204.24 201.739 204.12 201.043C204 199.315 203.88 197.575 203.76 195.956C203.64 192.608 203.521 189.249 203.521 185.901V185.781C203.557 185.781 203.604 185.781 203.64 185.793C203.64 185.793 203.64 185.793 203.64 185.781C203.52 184.389 204.6 183.814 205.56 183.934C205.668 183.826 205.872 183.838 206.088 183.91C206.076 183.394 206.064 182.878 206.064 182.362C204.864 182.266 203.664 182.17 202.441 182.074C201.001 181.954 200.401 183.226 200.761 184.389C200.281 184.617 199.921 185.193 199.921 185.889C199.921 190.736 200.041 195.596 200.401 200.335C200.521 201.487 200.641 202.758 200.761 203.922Z" fill="#1E1E1E"/>
<path d="M212.881 185.313C212.881 185.541 212.881 185.781 212.881 186.009C213.361 186.237 213.721 186.477 214.081 186.933C214.681 187.737 214.801 188.661 214.921 189.585C215.161 193.28 215.281 197.095 215.521 200.911C215.641 202.758 215.761 204.834 213.961 205.65C213.241 205.998 212.281 206.118 211.441 206.226C211.033 206.286 210.661 206.37 210.277 206.454C210.289 207.054 210.313 207.666 210.325 208.265C210.733 208.253 211.141 208.241 211.549 208.193C212.749 208.193 213.949 208.313 214.909 207.498C215.749 206.802 215.869 205.998 215.869 204.954C215.989 203.682 215.989 202.41 216.109 201.139C216.349 196.291 216.469 191.432 216.469 186.465C216.349 185.313 216.349 184.042 215.269 183.346C214.189 182.65 212.629 182.878 211.309 182.77C210.793 182.734 210.289 182.686 209.773 182.65C209.785 183.286 209.797 183.922 209.809 184.557C210.553 183.082 212.773 183.406 212.881 185.313Z" fill="#1E1E1E"/>
<path d="M206.16 183.934C207.36 184.282 208.44 184.629 209.64 184.977C209.676 184.821 209.748 184.701 209.82 184.569C209.808 183.934 209.796 183.298 209.784 182.662C208.536 182.566 207.288 182.47 206.064 182.374C206.064 182.89 206.088 183.406 206.088 183.922C206.112 183.922 206.136 183.922 206.16 183.934Z" fill="#1E1E1E"/>
<path d="M209.04 206.694C207.96 206.814 206.892 206.466 206.532 205.326C206.556 206.358 206.592 207.39 206.616 208.421C207.084 208.385 207.552 208.337 207.96 208.313C208.752 208.313 209.544 208.301 210.336 208.265C210.312 207.666 210.3 207.054 210.288 206.454C209.88 206.538 209.472 206.634 209.04 206.694Z" fill="#1E1E1E"/>
<path d="M206.365 204.726C206.413 204.93 206.461 205.122 206.533 205.302C206.533 205.314 206.533 205.314 206.545 205.314C206.545 205.11 206.533 204.918 206.533 204.714C206.461 204.726 206.413 204.726 206.365 204.726Z" fill="#1E1E1E"/>
<path d="M212.52 186.465V186.585C212.52 187.053 212.52 187.509 212.52 187.977C212.52 188.781 212.52 189.597 212.52 190.4C212.52 192.128 212.52 193.868 212.4 195.596C212.4 197.215 212.28 198.943 212.28 200.563C212.28 201.487 212.16 202.41 212.16 203.214C212.16 203.682 212.16 204.138 212.04 204.606V204.726C211.68 204.606 211.2 204.606 210.84 204.606L210.228 204.63C210.24 205.23 210.264 205.842 210.276 206.442C210.648 206.358 211.032 206.274 211.44 206.214C212.28 206.094 213.24 205.986 213.96 205.638C215.76 204.834 215.64 202.746 215.52 200.899C215.28 197.083 215.16 193.268 214.92 189.573C214.8 188.649 214.68 187.725 214.08 186.921C213.72 186.453 213.36 186.225 212.88 185.997C212.88 185.769 212.88 185.529 212.88 185.301C212.772 183.394 210.553 183.07 209.821 184.545C209.833 185.097 209.845 185.649 209.845 186.201C210.744 186.285 211.632 186.369 212.52 186.465Z" fill="#1E1E1E"/>
<path d="M206.089 183.91C205.873 183.826 205.669 183.826 205.561 183.934C204.601 183.814 203.521 184.401 203.641 185.781C203.641 185.781 203.641 185.781 203.641 185.793C204.469 185.853 205.297 185.913 206.125 185.961C206.113 185.277 206.101 184.593 206.089 183.91Z" fill="#1E1E1E"/>
<path d="M209.041 206.694C209.473 206.634 209.881 206.55 210.277 206.454C210.265 205.854 210.241 205.242 210.229 204.642L208.321 204.726C207.745 204.726 207.109 204.726 206.509 204.726C206.509 204.93 206.521 205.122 206.521 205.326C206.893 206.466 207.973 206.802 209.041 206.694Z" fill="#1E1E1E"/>
<path d="M209.845 186.213C209.833 185.661 209.821 185.109 209.821 184.557C209.761 184.689 209.689 184.809 209.641 184.965C208.441 184.617 207.361 184.269 206.161 183.922C206.137 183.91 206.113 183.91 206.089 183.898C206.101 184.581 206.113 185.265 206.125 185.949C207.361 186.033 208.609 186.117 209.845 186.213Z" fill="#1E1E1E"/>
<path d="M8.87668 158.162C9.23667 151.119 8.99665 143.956 8.39667 136.902C8.27668 135.978 7.55673 135.054 6.47678 135.054C5.51682 135.054 4.55688 135.858 4.55688 136.902C5.27686 143.944 5.39685 151.107 5.15686 158.162C5.03687 160.478 8.75669 160.478 8.87668 158.162Z" fill="#FBB03B"/>
<path d="M232.799 172.26C232.199 180.346 232.199 188.325 232.919 196.411C233.159 198.727 236.879 198.727 236.639 196.411C235.919 188.325 235.919 180.238 236.519 172.26C236.639 169.944 232.919 169.944 232.799 172.26Z" fill="#1E1E1E"/>
<path d="M107.344 131.275C107.092 127.255 104.956 124.016 101.044 122.456C96.7127 120.716 91.6129 121.4 87.1011 121.976C81.8693 122.648 76.7095 123.752 71.5617 124.856C59.9461 127.351 47.8146 129.763 36.1511 126.175C35.6591 126.019 35.2391 126.091 34.8791 126.247C33.6672 125.552 31.5553 126.535 31.9273 128.335C32.1193 129.271 32.2512 130.207 32.3352 131.155C31.7473 131.263 31.2433 131.658 31.0513 132.438C30.6193 134.19 30.8233 135.714 31.8313 137.25C32.0593 137.597 32.3712 137.813 32.7072 137.957C33.2712 138.689 34.3871 138.929 35.2391 138.461C37.375 137.31 40.1109 137.873 42.4388 137.933C45.3067 138.017 48.1746 137.945 51.0425 137.837C56.5983 137.633 62.1421 137.381 67.6979 137.298C78.9294 137.142 90.1849 137.453 101.392 138.221C103.12 138.341 105.46 138.965 106.576 137.298C107.572 135.81 107.44 132.99 107.344 131.275Z" fill="#FBB03B"/>
<path d="M71.8377 102.935C71.5257 101.784 70.4578 101.088 69.2818 100.884C69.0658 100.848 68.8499 100.824 68.6459 100.776C68.5739 100.764 68.4059 100.74 68.3579 100.752C68.2739 100.704 68.2619 100.632 68.2019 100.524C68.0939 100.32 67.9619 100.116 67.8299 99.9239C67.1939 99.024 66.3539 98.3402 65.31 97.9202C63.1861 97.0564 60.9542 97.5123 59.1902 98.8921C58.4343 99.492 57.8103 100.26 57.2943 101.064C57.0543 101.436 56.8383 101.82 56.6103 102.191C56.5023 102.359 56.3944 102.527 56.2744 102.695C56.2744 102.695 56.2024 102.779 56.1784 102.827C56.1304 102.875 56.0223 102.983 56.0103 103.007C55.7824 103.235 55.6864 103.199 55.2784 103.439C54.5344 103.871 54.0785 104.639 54.1025 105.479C54.1265 106.403 54.6305 107.459 55.0984 108.25C55.6504 109.186 56.4664 109.942 57.5343 110.314C58.9743 110.806 60.0902 109.906 60.7142 108.73C60.8702 108.43 61.0022 108.118 61.1941 107.819C61.2181 107.795 61.2542 107.747 61.2542 107.747C61.5062 107.627 61.7462 107.507 61.9982 107.399C62.9101 107.015 63.8701 106.667 64.842 106.463C65.73 106.271 66.51 106.283 67.3739 106.595C67.5779 106.667 67.7819 106.667 67.9859 106.703C68.2139 107.195 68.6339 107.603 69.1979 107.759C70.1938 108.023 71.2978 107.435 71.5617 106.451C71.8737 105.383 72.1377 104.039 71.8377 102.935Z" fill="#00A99D"/>
<path d="M100.001 70.9368C98.1768 66.6775 93.341 65.2018 88.9132 64.9738C87.3892 64.9018 85.7692 64.9978 84.2093 65.2858C83.8133 65.2138 83.3933 65.2498 82.9494 65.5137C82.8774 65.5497 82.8174 65.6097 82.7574 65.6457C82.4094 65.7537 82.0494 65.8377 81.7134 65.9697C79.4695 66.8575 78.3416 68.7772 77.5856 70.9008C77.3936 71.4407 77.2256 71.9926 77.0696 72.5445C76.4937 74.1283 76.1936 75.808 76.2896 77.5237C76.3256 78.1956 76.6376 78.6515 77.0576 78.9515C77.0576 79.1674 77.0576 79.3834 77.0816 79.5993C77.4656 83.6786 81.0054 86.8461 85.1213 87.518C87.4132 87.8899 89.7531 87.662 91.961 86.9781C94.0609 86.3182 96.3768 85.3584 97.8168 83.6786C99.3047 81.9509 100.097 79.6113 100.505 77.4397C100.913 75.2441 100.901 73.0005 100.001 70.9368Z" fill="#FBB03B"/>
<path d="M111.172 106.799C110.668 96.1445 110.32 85.5623 110.668 74.8962C110.728 73.1445 108.688 72.7005 107.56 73.5044C105.64 73.4324 103.721 73.3964 101.801 73.3484C101.693 68.5852 97.4087 64.8179 92.7049 63.4861C89.849 62.6822 86.5852 62.3703 83.6213 62.6462C80.6094 62.9342 77.9816 64.05 76.1576 66.4256C74.7297 68.2853 73.9137 70.5529 73.6137 72.8925C59.2503 72.8565 44.8869 73.0845 30.5355 73.6724C29.8875 73.6964 29.4195 73.9723 29.1195 74.3562C28.5915 74.6202 28.1955 75.1241 28.2675 75.904C30.0675 96.1925 30.0795 116.589 28.2915 136.878C27.7636 137.957 28.2915 139.601 29.9355 139.661C56.0824 140.705 82.2653 140.885 108.436 140.189C108.484 140.189 108.52 140.165 108.568 140.165C109.528 140.165 110.452 139.577 110.368 138.377C109.588 127.831 111.676 117.357 111.172 106.799ZM78.2935 70.3009C79.0735 68.4653 80.3934 67.0975 82.4213 66.5936C84.4973 66.0777 86.8612 66.2456 88.9611 66.5336C93.0649 67.0735 99.0886 69.737 97.7807 74.7402C97.6367 75.2801 97.7448 75.736 97.9847 76.1079C97.9607 76.2399 97.9128 76.3719 97.9248 76.5279C98.1048 78.8195 98.4287 81.423 97.1448 83.4987C96.0408 85.2864 93.6169 85.8863 91.637 86.2702C87.3051 87.1101 82.8534 85.9103 79.9975 82.5868C77.1176 79.2034 76.5896 74.2963 78.2935 70.3009ZM73.5538 76.6359C73.7937 78.9155 74.5017 81.1231 75.6417 83.0068C78.6775 87.9859 84.4132 90.6855 90.365 90.1576C93.5449 89.8696 97.3728 88.9938 99.5567 86.5822C101.957 83.9426 102.065 80.4032 101.837 77.0798C103.48 77.1158 105.124 77.1518 106.768 77.1998C106.54 86.7141 106.816 96.1685 107.26 105.683C106.3 104.843 105.316 104.027 104.332 103.223C103.325 102.407 102.233 101.292 100.841 101.208C99.4367 101.124 98.1887 101.904 97.0848 102.659C93.0889 105.383 90.017 109.306 86.8612 112.882C82.7813 109.246 78.6895 105.611 74.6096 101.976C70.8298 98.6041 65.5621 91.6813 59.7423 95.0527C57.2344 96.5045 55.1584 98.9281 53.2385 101.016C51.0906 103.355 49.0867 105.839 47.2628 108.418C43.6869 113.482 41.359 119.613 36.4752 123.704C36.2952 123.848 36.1992 124.016 36.1032 124.172C34.9273 124.016 33.7633 123.752 33.2353 123.176C33.1753 123.116 33.1154 123.104 33.0554 123.044C33.7874 107.819 33.5114 92.5571 32.2274 77.3557C46.0029 76.8158 59.7783 76.5999 73.5538 76.6359ZM69.4619 107.111C69.7739 107.231 69.1019 106.847 69.0179 106.787C68.1539 106.175 67.422 105.443 66.414 105.035C65.1781 104.543 63.8221 104.627 62.6462 105.263C61.5662 105.851 60.7502 106.823 60.1502 107.843C59.8263 108.382 59.5623 108.946 59.2143 109.474C59.2263 109.462 58.9503 109.834 58.8183 109.99C58.2423 109.57 56.8864 108.226 56.7784 108.106C56.0224 107.135 55.4105 106.055 54.7985 104.987C56.1785 103.403 57.6064 101.856 59.1423 100.392C60.1023 99.468 61.1822 98.1962 62.5501 97.9082C64.2421 97.5483 65.4781 98.8921 66.63 99.9119C68.2979 101.388 69.9659 102.887 71.6338 104.363C71.2978 105.155 70.8538 105.899 70.2299 106.523C70.0379 106.715 69.8338 106.943 69.5818 107.087C69.5938 107.087 69.7259 107.207 69.4619 107.111ZM52.2186 108.13C53.5025 110.266 55.0745 112.39 57.4024 113.47C59.0103 114.213 60.5463 113.698 61.6982 112.462C62.6942 111.394 63.0662 109.918 64.0741 108.886C64.7701 108.166 65.1061 108.478 65.8261 109.042C66.87 109.858 67.854 110.686 69.2579 110.806C71.6098 110.998 73.4577 109.066 74.6096 107.027C78.9655 110.914 83.3333 114.789 87.6891 118.677C83.5253 119.097 79.3615 120.116 75.5336 121.292C68.7779 123.38 62.1902 125.588 55.0265 125.803C51.3666 125.911 47.7067 125.671 44.0829 125.24C43.0029 125.108 41.923 124.94 40.8551 124.772C43.975 121.52 45.9788 117.489 48.3308 113.698C49.5307 111.766 50.8386 109.93 52.2186 108.13ZM106.42 136.53C81.6774 137.142 56.9344 136.974 32.2034 136.038C32.4554 133.098 32.6594 130.147 32.8274 127.207C34.7833 127.891 37.1832 127.975 39.0191 128.251C42.211 128.743 45.4269 129.151 48.6428 129.367C55.6265 129.835 62.3822 129.091 69.0779 127.159C80.1894 123.956 97.3607 116.661 106.132 128.191C106.24 128.323 106.348 128.443 106.468 128.539C106.36 131.203 106.3 133.866 106.42 136.53ZM106.768 123.464C102.629 119.84 97.4208 118.497 91.985 118.449C92.081 117.945 91.961 117.393 91.433 116.937C90.845 116.421 90.269 115.893 89.681 115.377C92.3329 112.378 94.9248 109.174 98.0207 106.619C98.3447 106.355 98.6807 106.091 99.0287 105.851C99.4127 105.587 100.097 105.347 100.385 105.023C100.421 104.987 100.445 104.963 100.481 104.951C100.661 105.059 100.841 105.251 100.985 105.359C101.453 105.731 101.909 106.103 102.365 106.475C104.08 107.891 105.748 109.366 107.38 110.878C107.368 115.089 107.044 119.277 106.768 123.464Z" fill="#1A1A1A"/>
<path d="M94.0844 71.5967C93.0885 71.0928 92.0685 71.4168 91.4445 72.2686C90.5566 73.4804 89.6686 74.6802 88.7806 75.892C88.5886 76.1439 88.4086 76.4079 88.2167 76.6599C88.1447 76.7558 88.0727 76.8518 88.0007 76.9478C87.9767 76.9718 87.7847 77.2118 87.7847 77.2118C87.6407 77.3797 87.4847 77.5357 87.3167 77.7037C87.1607 77.5957 87.0167 77.4877 86.8607 77.3797L85.6367 76.5039C84.7608 75.88 83.8848 75.2561 83.0208 74.6442C82.2049 74.0683 80.8369 74.4882 80.3809 75.3161C79.853 76.2879 80.213 77.2358 81.0769 77.8597L84.7488 80.4752C85.3727 80.9191 85.9968 81.495 86.7407 81.735C87.8447 82.0949 88.7686 81.459 89.5486 80.7991C90.6045 79.9233 91.3845 78.7715 92.1885 77.6917C93.0525 76.5159 93.9284 75.3281 94.7924 74.1523C95.3683 73.3364 94.9484 72.0286 94.0844 71.5967Z" fill="#1A1A1A"/>
<path d="M51.5953 82.1189C50.1314 80.5112 48.0554 79.9953 45.9075 80.0433C43.9276 80.0913 41.8037 80.4392 40.3998 81.915C40.3878 81.927 40.3758 81.951 40.3638 81.975C40.1118 81.999 39.8598 82.083 39.6318 82.2269C36.7039 84.1586 36.2599 88.2379 36.9799 91.3454C37.3399 92.9051 38.2039 94.4049 39.4998 95.4007C40.9398 96.5045 42.7156 96.9844 44.5396 97.0084C48.0674 97.0564 51.9793 95.8566 53.5032 92.5452C55.0872 89.1617 54.1032 84.8665 51.5953 82.1189ZM50.2874 90.2776C50.1194 90.9014 50.0594 90.9614 49.6994 91.5493C49.5314 91.8253 49.1594 92.1732 48.8114 92.3772C48.2714 92.7011 47.8515 92.7971 47.1795 92.9651C46.9035 93.0251 46.6275 93.0851 46.3395 93.1451C46.1955 93.1691 46.0635 93.1931 45.9195 93.2171C46.1955 93.1811 45.5715 93.253 45.5835 93.253C45.0195 93.301 44.4556 93.301 43.8916 93.265C43.8436 93.265 43.8077 93.265 43.7717 93.253C43.7597 93.253 43.7357 93.241 43.6877 93.229C43.5557 93.2051 43.4236 93.1811 43.2916 93.1451C43.1597 93.1091 43.0276 93.0731 42.8956 93.0371C42.8116 93.0131 42.7397 92.9891 42.6557 92.9531C42.6437 92.9411 42.6317 92.9411 42.5957 92.9291C42.0437 92.6651 41.9237 92.5692 41.4917 92.1252C41.4797 92.1132 41.4317 92.0533 41.4077 92.0173C41.3477 91.9333 41.2997 91.8613 41.2397 91.7773C41.1797 91.6693 41.1198 91.5613 41.0598 91.4654C41.0118 91.3934 40.9998 91.3694 40.9878 91.3574C40.9878 91.3454 40.9757 91.3214 40.9517 91.2374C40.4957 89.9896 40.4838 89.2337 40.5918 87.83C40.5918 87.806 40.6038 87.734 40.6038 87.686C40.6278 87.518 40.6638 87.3501 40.6998 87.1821C40.7598 86.8941 40.8437 86.6182 40.9397 86.3302C40.9637 86.2702 40.9637 86.2462 40.9637 86.2462C40.9757 86.2222 40.9877 86.1983 41.0117 86.1503C41.0837 86.0063 41.1677 85.8743 41.2517 85.7423C41.2877 85.6943 41.2877 85.6823 41.2757 85.6823C41.2997 85.6583 41.3117 85.6583 41.3597 85.6103C41.4077 85.5624 41.8037 85.2624 41.5637 85.4184C41.7317 85.3104 41.8637 85.1664 41.9837 85.0225C42.4037 84.9745 42.8116 84.8305 43.1116 84.5305C43.4476 84.1706 43.5676 84.1106 44.0356 83.9786C44.2876 83.9066 44.5396 83.8586 44.7916 83.8107C44.8156 83.8107 44.8276 83.8107 44.8756 83.7987C45.0676 83.7867 45.2716 83.7627 45.4636 83.7627C45.7635 83.7507 46.0515 83.7387 46.3515 83.7387C46.4475 83.7387 47.0835 83.7627 46.9875 83.7507C47.2395 83.7747 47.6954 83.8946 47.8394 83.9546C47.6834 83.8946 48.0554 84.0746 48.0794 84.0866C48.1634 84.1346 48.2475 84.1826 48.3194 84.2306C48.3314 84.2426 48.3315 84.2426 48.3435 84.2546C49.1594 84.9265 49.6514 85.8503 49.9874 86.8581C50.4074 88.0219 50.5754 89.2337 50.2874 90.2776Z" fill="#1A1A1A"/>
<path d="M114.592 153.039C110.693 149.307 103.757 154.551 107.609 158.234C109.325 159.878 115.564 164.245 115.312 166.429C115.216 167.304 112.936 169.56 112.348 170.328C111.029 172.068 109.721 173.795 108.401 175.535C105.269 179.662 113.8 183.37 116.932 179.242C119.8 175.463 125.668 170.34 125.428 165.805C125.164 161.077 118.276 156.566 114.592 153.039Z" fill="#FBB03B"/>
<path d="M140.295 153.195C140.295 153.123 140.271 153.063 140.259 152.991C140.235 152.223 139.563 151.467 138.219 151.503C123.916 151.827 109.6 151.839 95.2968 151.551C94.9248 151.539 94.6008 151.599 94.3368 151.695C93.4248 151.803 92.6208 152.307 92.6208 153.195C92.6328 161.545 93.0768 169.884 93.9048 178.211C93.5928 179.002 94.0608 179.986 95.2848 180.238C95.8128 180.406 96.4127 180.43 96.9287 180.31L138.075 180.622C138.687 180.622 139.143 180.466 139.479 180.226C140.103 179.998 140.571 179.554 140.571 178.882C140.571 170.304 140.475 161.749 140.295 153.195ZM96.8687 154.719C98.9806 154.755 101.081 154.779 103.192 154.803C105.772 158.69 109.108 162.301 113.104 165.469C113.572 165.829 114.112 166.417 114.688 166.68C114.772 166.764 114.832 166.836 114.892 166.884C114.748 167.1 114.592 167.316 114.448 167.52C113.68 168.624 112.9 169.716 112.108 170.808C110.536 172.967 108.904 175.103 107.236 177.227L98.0447 177.155C97.3247 169.692 96.9287 162.205 96.8687 154.719ZM116.248 177.299L112.096 177.263C113.5 175.451 114.88 173.627 116.212 171.792C117.676 169.752 120.676 167.064 118.204 164.881C116.08 162.997 113.68 161.341 111.736 159.338C110.344 157.898 109.096 156.398 107.968 154.851C109.216 154.863 110.476 154.875 111.724 154.875C111.748 154.899 111.76 154.934 111.784 154.958C115.384 158.846 119.272 162.577 123.448 166.129C123.58 166.249 123.712 166.357 123.856 166.465C123.364 166.896 123.052 167.64 122.704 168.144C122.02 169.14 121.324 170.124 120.64 171.12C119.188 173.183 117.712 175.235 116.248 177.299ZM121 177.335C122.2 175.655 123.4 173.975 124.576 172.284C125.416 171.084 126.256 169.884 127.083 168.672C127.767 167.688 128.679 166.692 128.091 165.553C127.563 164.533 126.171 163.681 125.236 162.853C124.108 161.869 122.992 160.861 121.9 159.854C120.16 158.234 118.516 156.578 116.908 154.886C123.304 154.874 129.699 154.815 136.083 154.683C136.239 162.265 136.323 169.86 136.335 177.443L121 177.335Z" fill="#1E1E1E"/>
<path d="M127.864 198.931C126.76 187.665 112.216 185.073 99.5087 185.481C93.1489 185.685 93.1129 193.076 99.5087 192.872C106.276 192.644 116.236 192.404 117.868 198.715C118.672 201.835 117.484 204.534 113.116 204.846C108.964 205.134 104.789 205.182 100.625 205.146C94.2409 205.074 94.2289 212.465 100.625 212.537C106.972 212.609 116.704 213.365 122.128 210.425C126.688 207.929 128.26 202.914 127.864 198.931Z" fill="#FBB03B"/>
<path d="M140.283 186.225C140.283 186.153 140.259 186.093 140.247 186.021C140.223 185.241 139.551 184.497 138.196 184.521C123.82 184.845 109.445 184.857 95.0693 184.569C94.6973 184.557 94.3733 184.617 94.0973 184.713C93.1854 184.821 92.3694 185.325 92.3694 186.213C92.3934 194.6 92.8253 202.986 93.6653 211.349C93.3533 212.153 93.8213 213.137 95.0573 213.377C95.5852 213.545 96.1852 213.569 96.7132 213.449L138.063 213.76C138.675 213.76 139.143 213.605 139.479 213.365C140.103 213.137 140.583 212.693 140.583 212.009C140.571 203.43 140.463 194.828 140.283 186.225ZM96.7732 193.592C100.121 193.58 103.433 193.832 106.697 194.432C109.625 194.972 113.345 195.596 115.36 197.407C116.848 198.751 117.844 201.235 116.704 202.878C115.372 204.786 111.485 205.326 108.917 205.506C105.137 205.758 101.213 205.662 97.4211 205.398C97.1091 201.463 96.8932 197.527 96.7732 193.592ZM114.736 210.437L97.8412 210.305C97.7812 209.729 97.7452 209.153 97.6972 208.577C101.597 208.841 105.665 208.949 109.529 208.625C113.405 208.301 117.628 207.402 120.004 204.906C122.2 202.602 121.564 199.219 119.92 196.843C118.036 194.132 114.484 192.896 110.753 191.996C106.241 190.904 101.465 190.4 96.7132 190.424C96.7012 189.537 96.6652 188.637 96.6652 187.749C98.8251 187.785 100.985 187.809 103.145 187.833C103.313 187.881 103.481 187.905 103.673 187.929C108.377 188.301 113.632 188.289 117.988 189.813C121.468 191.024 124.552 193.112 126.028 195.8C127.756 198.943 127.108 203.022 125.248 206.07C123.268 209.273 118.984 209.933 114.736 210.437ZM126.028 210.521C127.18 209.777 128.164 208.853 128.908 207.678C131.236 204.006 132.124 199.195 130.288 195.32C128.824 192.224 125.824 189.633 122.092 187.905C126.748 187.869 131.404 187.821 136.06 187.725C136.216 195.344 136.3 202.974 136.324 210.593L126.028 210.521Z" fill="#1E1E1E"/>
<path d="M166.118 153.123C163.658 163.861 166.274 198.019 166.778 208.877C167.018 214.132 178.321 214.156 178.069 208.877C177.817 203.526 177.577 198.187 177.325 192.836C177.097 187.845 175.873 160.226 177.001 155.294C178.189 150.147 167.306 147.928 166.118 153.123Z" fill="#00A99D"/>
<path d="M153.771 152.559C152.547 152.307 151.035 152.679 150.663 153.699C150.411 154.131 150.375 154.635 150.555 155.066L150.075 211.313C150.063 211.817 150.315 212.201 150.675 212.477C151.023 212.993 151.707 213.389 152.739 213.389C165.89 213.377 179.054 213.293 192.205 213.149C192.313 213.149 192.409 213.137 192.517 213.125C193.705 213.113 194.857 212.549 194.809 211.433C194.317 199.579 194.293 165.565 194.737 153.723C194.749 153.411 194.665 153.147 194.509 152.931C194.341 152.175 193.573 151.503 192.205 151.503C179.39 151.503 166.562 151.863 153.771 152.559ZM155.391 155.99C158.895 155.81 162.398 155.654 165.914 155.534C165.794 166.249 165.674 199.111 165.554 209.825C162.014 209.837 158.487 209.873 154.947 209.873L155.391 155.99ZM170.39 209.801C170.51 199.051 170.63 166.141 170.75 155.378C172.346 155.33 173.942 155.27 175.55 155.234C175.538 155.318 175.526 155.39 175.526 155.474C175.934 166.153 176.306 199.099 175.394 209.777C173.714 209.789 172.058 209.789 170.39 209.801ZM189.925 209.657C186.697 209.693 183.458 209.717 180.23 209.741C181.142 199.075 180.77 166.141 180.362 155.474C180.362 155.354 180.338 155.234 180.302 155.126C183.494 155.066 186.685 155.03 189.865 155.018C189.505 165.841 189.517 198.835 189.925 209.657Z" fill="#1E1E1E"/>
<path d="M72.4619 181.426C69.738 176.759 62.6943 174.107 57.0065 173.339C50.0708 172.404 45.883 176.519 43.2191 181.582C41.2512 185.325 46.555 188.673 49.4589 186.597C52.0628 186.813 54.7747 186.489 57.4026 186.717C61.1944 187.041 64.9862 187.113 68.8021 186.993C72.126 186.885 73.9499 183.958 72.4619 181.426Z" fill="#FBB03B"/>
<path d="M61.6504 199.771C61.2544 199.723 60.8944 199.675 60.5344 199.603C61.4104 199.291 62.2864 198.991 63.0903 198.583C65.5742 197.347 67.5542 195.188 65.8022 192.968C64.2783 191.024 61.3864 190.976 58.7225 190.916C55.3386 190.844 51.9428 190.868 48.559 190.976C43.1112 191.144 43.0872 197.491 48.559 197.323C49.0149 197.311 49.4589 197.299 49.9149 197.287C49.5669 197.563 49.2429 197.863 48.9789 198.187C48.2469 199.075 48.1269 200.515 48.9789 201.391C49.7469 202.182 50.8149 202.914 52.0028 203.562C51.8468 205.494 53.9707 207.654 57.2946 207.102C59.1905 206.79 60.9545 206.262 62.6704 205.578C65.6463 204.39 65.3342 200.167 61.6504 199.771Z" fill="#00A99D"/>
<path d="M83.6455 208.985C83.3215 205.518 82.9855 202.05 82.6615 198.571C81.1976 183.166 83.8135 167.76 82.3615 152.355C82.7455 151.563 82.3615 150.543 81.2336 150.255C80.5976 149.979 79.7936 149.967 79.1816 150.195C70.662 150.327 62.1423 150.459 53.6227 150.591C49.1349 150.663 44.6471 150.723 40.1593 150.795C37.9154 150.831 35.6715 150.867 33.4276 150.903C31.7116 150.927 29.2877 150.603 28.2797 151.983C27.4398 153.135 27.9198 155.006 27.9318 156.278C27.9318 158.114 27.9438 159.95 27.9438 161.785C27.9558 165.289 27.9557 168.78 27.9677 172.284C27.9917 179.278 28.0038 186.285 28.0158 193.28C28.0278 196.783 28.0277 200.275 28.0397 203.778C28.0397 205.446 28.0397 207.102 28.0517 208.769C28.0637 210.161 28.1238 211.589 29.5277 212.597C30.6797 213.425 32.2156 213.509 33.7155 213.473C36.1874 213.413 38.6593 213.281 41.1312 213.221C45.631 213.101 50.1308 213.029 54.6187 213.017C63.6183 212.993 68.5381 213.197 77.5138 213.616C79.0137 213.688 80.9936 214.048 82.3856 213.413C84.4015 212.501 83.7895 210.461 83.6455 208.985ZM32.0115 157.574C32.0115 156.614 32.0116 155.654 31.9996 154.683C31.9996 154.515 32.0116 154.323 32.0236 154.131C32.9235 154.155 33.9075 154.047 34.7595 154.035C35.8754 154.023 37.0034 153.999 38.1193 153.987C42.8351 153.915 47.539 153.843 52.2548 153.771C60.9544 153.639 69.654 153.507 78.3657 153.375C78.9777 159.806 78.4737 166.225 78.0177 172.655C77.8977 172.535 77.7657 172.44 77.6097 172.356C77.2017 172.164 76.6618 172.056 76.2058 172.2C74.9338 172.607 73.6619 173.003 72.3899 173.411C71.934 173.555 71.55 173.771 71.298 174.143C71.07 174.479 70.974 174.983 71.118 175.367C71.262 175.751 71.538 176.123 71.958 176.315C72.366 176.507 72.9059 176.615 73.3619 176.471C74.6339 176.063 75.9058 175.667 77.1777 175.259C77.4417 175.175 77.6697 175.055 77.8737 174.911C77.6697 178.067 77.5018 181.222 77.5138 184.377C75.6778 184.389 73.8419 184.413 72.006 184.437C72.006 184.401 72.006 184.377 72.006 184.341C71.406 180.946 69.618 177.527 66.6062 175.235C63.4383 172.835 59.2864 172.08 55.1826 172.152C51.2948 172.224 47.3829 173.171 44.383 175.403C41.1312 177.815 39.7872 181.486 39.3673 185.073C36.9434 185.145 34.5074 185.205 32.0835 185.289C32.0595 176.075 32.0355 166.824 32.0115 157.574ZM68.3461 184.485C59.8985 184.593 51.4628 184.761 43.0152 184.989C43.3631 182.254 44.4551 179.47 46.951 177.671C49.3389 175.943 52.5788 175.355 55.6146 175.343C58.9145 175.331 62.2383 175.895 64.6502 177.995C66.6662 179.746 67.8061 182.074 68.3461 184.485ZM77.5258 210.437C75.2819 210.329 77.1058 210.245 74.8618 210.161C70.71 210.017 66.5461 209.921 62.3823 209.873C54.0667 209.777 45.739 209.873 37.4233 210.149C36.4154 210.185 35.3955 210.221 34.3875 210.257C33.8955 210.281 32.8995 210.473 32.4675 210.281C31.9396 210.041 32.1316 209.201 32.1196 208.757C32.1196 207.881 32.1196 207.006 32.1076 206.13L32.0835 196.423C32.0715 193.784 32.0716 191.132 32.0596 188.493C47.227 187.989 62.3944 187.677 77.5737 187.557C77.6217 188.457 77.6817 189.357 77.7657 190.256C78.3777 196.675 78.9777 203.094 79.5897 209.513C79.6137 209.717 79.5657 210.125 79.6017 210.437C78.9657 210.377 78.0298 210.461 77.5258 210.437Z" fill="#1E1E1E"/>
<path d="M69.5585 188.781C60.2109 189.549 50.8273 189.825 41.4436 189.597C39.1037 189.537 39.1037 192.716 41.4436 192.764C50.8273 192.992 60.2109 192.716 69.5585 191.948C71.8624 191.756 71.8864 188.589 69.5585 188.781Z" fill="#1E1E1E"/>
<path d="M63.2698 194.012C58.758 194.084 54.2461 194.168 49.7463 194.24C48.7624 194.252 47.9224 194.96 47.9224 195.824C47.9224 196.675 48.7504 197.431 49.7463 197.407C54.2581 197.335 58.77 197.251 63.2698 197.179C64.2537 197.167 65.0937 196.459 65.0937 195.596C65.0937 194.756 64.2658 194 63.2698 194.012Z" fill="#1E1E1E"/>
<path d="M60.0657 199.099C58.0858 199.147 56.1059 199.135 54.126 199.063C53.178 199.027 52.2661 199.819 52.3021 200.647C52.3501 201.535 53.106 202.194 54.126 202.23C56.1059 202.302 58.0858 202.314 60.0657 202.266C61.0137 202.242 61.9257 201.559 61.8897 200.683C61.8417 199.843 61.0857 199.075 60.0657 199.099Z" fill="#1E1E1E"/>
<path d="M40.1833 174.167C40.0393 173.783 39.7633 173.423 39.3434 173.219C38.1074 172.619 36.9194 171.936 35.8035 171.192C35.6475 171.06 35.4675 170.964 35.2635 170.904C35.0475 170.808 34.8075 170.76 34.5675 170.772C34.1235 170.772 33.5835 170.94 33.2835 171.24C32.9596 171.54 32.7316 171.936 32.7556 172.356C32.7796 172.751 32.9236 173.219 33.2835 173.471C34.6275 174.395 36.0195 175.235 37.5194 175.967C37.9394 176.171 38.4554 176.243 38.9233 176.123C39.3433 176.027 39.7993 175.739 40.0153 175.391C40.2313 175.031 40.3393 174.575 40.1833 174.167Z" fill="#1E1E1E"/>
<path d="M51.0312 168.168C50.8632 167.82 50.6833 167.484 50.5153 167.136C50.4313 166.956 50.4192 166.944 50.4792 167.076C50.4432 167.004 50.4073 166.932 50.3713 166.86C50.2873 166.692 50.2033 166.513 50.1313 166.345C49.8193 165.673 49.5073 165.001 49.2193 164.329C48.6193 162.961 48.0554 161.569 47.5274 160.178C47.2274 159.386 46.2554 158.798 45.2834 159.074C44.3835 159.326 43.6875 160.178 44.0115 161.029C45.1394 164.005 46.4354 166.92 47.8874 169.788C48.2714 170.556 49.6152 170.784 50.3832 170.352C51.2832 169.824 51.4392 168.984 51.0312 168.168Z" fill="#1E1E1E"/>
<path d="M67.3503 160.226C66.5223 159.842 65.3224 160.01 64.8544 160.789C63.3785 163.333 61.9025 165.877 60.4146 168.42C59.9826 169.164 60.1626 170.172 61.0625 170.592C61.8905 170.976 63.0905 170.808 63.5585 170.028C65.0344 167.484 66.5104 164.941 67.9983 162.397C68.4303 161.653 68.2502 160.634 67.3503 160.226Z" fill="#1E1E1E"/>
<path d="M239.639 227.714C239.399 227.138 239.159 226.562 238.919 226.094C237.359 223.911 234.479 223.443 231.959 223.443L227.88 223.323C228.36 191.552 228.36 159.422 228.36 128.239V102.827C228.36 100.284 228.36 97.1644 226.8 94.5008C224.52 90.6855 219.48 90.8054 215.28 90.8054H212.16C210.24 90.6855 208.44 90.5775 203.521 90.4575C190.801 90.1575 178.07 90.0256 165.338 90.1096C165.278 90.1096 165.218 90.1096 165.146 90.1096C156.566 90.1695 147.987 90.3615 139.407 90.4935C129.436 90.6495 119.476 90.8534 109.504 91.1174C106.421 91.2014 106.409 95.8206 109.504 95.7366C122.536 95.4007 135.567 95.1487 148.611 94.9807C161.486 94.8248 174.35 94.4768 187.225 94.8368C188.737 94.8847 190.237 94.9207 191.749 94.9567C201.709 95.0767 211.908 95.3047 221.868 96.0006C222.108 96.0006 222.948 96.1205 223.188 96.5765C223.308 96.8044 223.308 97.1524 223.308 97.5003C223.308 99.468 223.188 101.436 223.188 103.283C223.068 108.826 222.948 114.489 222.948 120.152V150.423C222.948 181.498 222.828 216.508 222.828 223.215H220.908C215.028 223.095 209.268 222.867 203.389 222.747C188.149 222.399 172.79 222.171 157.79 221.943L149.391 221.823C148.671 221.823 147.711 221.823 146.751 222.291C146.151 222.639 145.671 223.215 145.311 223.791C145.191 224.019 145.071 224.139 144.951 224.259C143.991 225.41 142.191 225.638 140.871 225.746C135.711 225.866 130.552 225.746 125.512 225.746H110.752C107.513 225.866 104.153 225.866 101.033 225.53C100.673 225.53 99.5928 225.302 99.3528 224.955C99.2328 224.727 99.2328 224.487 99.2328 224.151C99.2328 223.575 99.1128 222.651 98.3928 222.075C97.6728 221.499 96.8329 221.499 96.2329 221.499H93.953C78.7137 221.379 62.9943 221.271 47.5029 221.271H44.623C36.1033 221.271 27.7037 221.391 20.744 221.499H20.264C19.304 221.499 18.704 221.499 18.584 221.379C18.464 221.259 18.4641 220.575 18.4641 220.227V219.531C18.3441 218.032 18.2241 216.532 18.1041 215.02C17.9841 213.976 17.9841 212.945 17.8641 211.781C17.0241 199.771 17.0241 187.521 17.0241 175.739V129.067C17.1441 119.589 17.1441 110.806 17.2641 102.263V99.7079C17.2641 97.8602 17.2641 96.0126 17.3841 94.1649C23.2278 93.9489 27.2957 93.6849 30.9436 93.505C30.9676 92.0292 30.7876 90.5295 30.7276 89.0537C29.1917 89.0657 27.6677 89.0777 26.1438 89.0777C25.5438 89.0777 24.7038 89.0777 23.8638 88.9578C20.984 88.7298 17.7441 88.4898 15.7042 90.0016C12.8243 91.9692 12.8243 96.1325 12.8243 99.012V217.204C12.8243 217.552 12.8243 218.008 12.9443 218.476C13.0643 219.28 13.1843 220.791 12.8243 221.139C12.8243 221.139 12.7043 221.139 12.4643 221.139C11.0244 221.019 9.5844 221.019 8.02447 221.259C6.34454 221.487 5.02459 221.835 3.82464 222.411C0.464773 224.259 -0.495189 228.758 0.224782 232.345C0.824758 235.117 3.22471 236.856 6.94456 237.204C9.94443 237.432 12.9443 237.552 15.8242 237.552C17.1441 237.552 18.5841 237.552 19.904 237.672C28.4237 237.9 37.1833 238.14 45.8229 238.368L49.7828 238.488C53.2626 238.608 56.7425 238.608 60.2344 238.716H61.3144C71.6339 238.836 82.5535 239.064 94.673 239.184C124.672 239.532 155.631 239.652 182.869 239.88H183.109C188.389 239.88 193.669 240 199.069 240C203.029 240 207.108 240 211.068 239.88C216.228 239.76 220.908 239.76 225.348 239.532H227.508C230.748 239.532 234.827 239.652 237.227 237.684C237.467 237.456 237.707 237.216 237.947 236.988C238.667 236.185 239.027 235.141 239.267 234.217C239.879 232.333 240.359 230.018 239.639 227.714ZM234.839 231.062C234.719 231.757 234.599 232.561 234.359 233.257C234.359 233.485 234.119 233.953 233.879 234.061C233.759 234.181 233.399 234.181 233.159 234.181C219.6 235.453 205.8 235.333 192.361 235.225H187.801C173.162 235.105 158.522 235.105 143.883 234.997C119.764 234.877 88.0853 234.529 55.6746 233.953C51.7147 233.833 47.7549 233.833 43.6751 233.833C31.1956 233.713 18.3561 233.485 5.75661 232.681C5.39663 232.681 5.03658 232.681 4.79659 232.453C4.6766 232.333 4.55662 231.985 4.43662 231.529C4.19663 230.138 4.43661 228.758 4.79659 227.366C4.91659 227.138 5.03664 226.79 5.15664 226.67C5.27663 226.55 5.63661 226.442 6.11659 226.442C11.5164 225.866 17.0361 225.746 22.4359 225.746H28.3157C33.2355 225.626 38.2752 225.626 43.795 225.626H50.7548C65.4062 225.746 80.0456 225.746 94.685 225.854C95.165 227.354 96.365 228.626 97.9249 229.322C99.9648 230.366 102.245 230.246 104.405 230.246L139.563 230.126C141.963 230.126 144.363 230.126 146.523 228.974C147.723 228.278 148.683 227.474 149.283 226.31C162.122 226.43 172.682 226.658 182.641 226.778L186.361 226.898C200.641 227.126 215.16 227.474 229.08 227.822H229.8C231.119 227.822 232.439 227.942 233.639 228.05C233.879 228.05 234.479 228.17 234.719 228.518C234.839 228.638 234.839 229.094 234.839 229.214V231.062Z" fill="#1E1E1E"/>
<path d="M88.1573 48.0087C86.3454 46.9529 84.6535 45.8611 83.1415 44.7453C82.3736 44.1814 81.2456 44.2414 80.5736 44.8653C80.2256 45.1772 80.0576 45.5971 80.0816 46.0411C80.1056 46.485 80.3456 46.9049 80.7416 47.1929C82.3736 48.3927 84.1734 49.5565 86.0934 50.6723C86.5373 50.9362 87.0654 51.0082 87.5453 50.9122C87.9653 50.8282 88.3493 50.6243 88.6253 50.3003C89.0093 49.8564 89.0933 49.2565 88.8413 48.7286C88.6973 48.4407 88.4573 48.1887 88.1573 48.0087Z" fill="#1A1A1A"/>
<path d="M53.9709 40.9659C53.1429 41.0379 52.3149 41.1219 51.5349 41.2299C50.095 41.4098 48.667 41.6498 47.2511 41.9497C46.7351 42.0577 46.3031 42.3577 46.0511 42.7656C45.8351 43.1255 45.7872 43.5455 45.9192 43.9534C46.2071 44.7933 47.2151 45.2612 48.1751 45.0812C49.447 44.8053 50.767 44.5893 52.0869 44.4213C52.8189 44.3253 53.5868 44.2534 54.3788 44.1814C54.4508 44.1694 54.5228 44.1694 54.5948 44.1454C55.0388 44.0614 55.4348 43.8334 55.6988 43.5095C55.9628 43.1855 56.0827 42.7776 56.0227 42.3697C55.9987 42.2257 55.9627 42.0817 55.8907 41.9617C55.5908 41.2899 54.7988 40.8819 53.9709 40.9659Z" fill="#1A1A1A"/>
<path d="M67.2778 40.522H67.0738C64.9739 40.534 62.802 40.546 60.6541 40.606C60.1261 40.618 59.6221 40.834 59.2861 41.1819C58.9861 41.4938 58.8421 41.8778 58.8661 42.2737C58.9141 43.1496 59.7781 43.8454 60.7981 43.8214C62.874 43.7735 64.9979 43.7615 67.1218 43.7495H67.3258C67.4578 43.7495 67.5898 43.7375 67.7217 43.7135C68.1057 43.6415 68.4537 43.4615 68.7057 43.2095C69.0057 42.9096 69.1737 42.5257 69.1617 42.1297C69.1617 41.9258 69.1137 41.7218 69.0177 41.5418C68.7417 40.9059 68.0577 40.51 67.2778 40.522Z" fill="#1A1A1A"/>
<path d="M99.3052 53.4438C97.0733 52.484 95.2494 51.6681 93.5934 50.8642C92.7055 50.4443 91.6136 50.6843 91.0976 51.4281C90.8456 51.7881 90.7615 52.22 90.8815 52.6279C91.0015 53.0719 91.3375 53.4558 91.8055 53.6718C93.5214 54.4876 95.3814 55.3275 97.6733 56.3233C98.0813 56.5033 98.5132 56.5393 98.9212 56.4553C99.4252 56.3593 99.8812 56.0834 100.145 55.6634C100.409 55.2315 100.445 54.7276 100.229 54.2837C100.025 53.9237 99.7132 53.6238 99.3052 53.4438Z" fill="#1A1A1A"/>
<path d="M111.052 58.4589C109.036 57.5591 107.033 56.7072 105.161 55.9274C104.249 55.5434 103.169 55.8434 102.701 56.6113C102.473 56.9832 102.425 57.4151 102.557 57.8111C102.701 58.255 103.061 58.6149 103.541 58.8189C105.713 59.7307 107.536 60.5106 109.348 61.3145C109.756 61.4944 110.212 61.5424 110.62 61.4584C111.112 61.3624 111.556 61.0985 111.82 60.6786C112.096 60.2466 112.132 59.7307 111.916 59.2748C111.76 58.9269 111.448 58.6269 111.052 58.4589Z" fill="#1A1A1A"/>
<path d="M85.0856 41.1339C85.3616 41.9618 86.3335 42.4417 87.2935 42.2617C87.3175 42.2617 87.3296 42.2497 87.3536 42.2497C88.6615 41.9618 89.9574 41.6138 91.1933 41.2299C92.0693 40.9539 92.9453 40.642 93.7973 40.318C94.2533 40.1381 94.6012 39.8141 94.7812 39.4062C94.9372 39.0343 94.9252 38.6143 94.7452 38.2544L94.6852 38.1344C94.2293 37.3546 93.1613 37.0306 92.2493 37.3786C91.4933 37.6785 90.7014 37.9545 89.8974 38.1944C88.7695 38.5544 87.5935 38.8663 86.3935 39.1303C85.8776 39.2502 85.4456 39.5502 85.2056 39.9581C84.9896 40.3061 84.9536 40.738 85.0856 41.1339Z" fill="#1A1A1A"/>
<path d="M73.11 13.0827C73.518 13.2626 73.962 13.3106 74.3819 13.2266C74.8739 13.1306 75.3179 12.8667 75.5819 12.4468C76.5778 10.923 77.7418 9.56725 79.0618 8.43945C79.6018 7.98352 79.7578 7.28764 79.4698 6.68775C79.3618 6.45978 79.2058 6.26782 79.0018 6.09985C78.2698 5.51195 77.1299 5.53594 76.4339 6.13584C74.8739 7.47961 73.494 9.06334 72.3301 10.839C72.0901 11.211 72.0301 11.6309 72.1621 12.0388C72.2821 12.4948 72.63 12.8667 73.11 13.0827Z" fill="#1A1A1A"/>
<path d="M102.46 10.6951C102.268 11.079 102.256 11.4989 102.412 11.8949C102.928 13.1187 103.36 14.5224 103.768 16.3221L103.9 16.91C104.08 17.7739 105.052 18.3498 106.048 18.2058C106.084 18.2058 106.12 18.1938 106.156 18.1818C106.636 18.0858 107.056 17.8339 107.32 17.4739C107.572 17.126 107.656 16.7181 107.572 16.3221L107.428 15.6982C106.972 13.7426 106.492 12.1828 105.892 10.7431C105.52 9.96321 104.5 9.55528 103.588 9.80723C103.084 9.96321 102.676 10.2752 102.46 10.6951Z" fill="#1A1A1A"/>
<path d="M95.1416 4.99609C96.4976 5.41602 97.6975 6.02792 98.7055 6.80778C99.0415 7.07174 99.3654 7.34769 99.6654 7.64764C100.133 8.11556 100.841 8.29553 101.489 8.16355C101.753 8.11556 102.005 8.00758 102.233 7.8636C102.881 7.41968 103.109 6.65181 102.797 5.99192C102.725 5.83595 102.617 5.67998 102.473 5.548C102.065 5.15207 101.633 4.76813 101.189 4.42019C99.8094 3.35237 98.1895 2.52451 96.3776 1.97261C95.4176 1.67266 94.3857 2.08059 94.0137 2.89645C93.8457 3.28039 93.8457 3.70031 94.0257 4.08425C94.2297 4.50418 94.6377 4.84012 95.1416 4.99609Z" fill="#1A1A1A"/>
<path d="M83.3936 5.70396C83.5136 5.67996 83.6456 5.64397 83.7656 5.59598C84.1375 5.452 84.5336 5.30803 84.9175 5.18805C86.3695 4.73212 87.8814 4.45617 89.4174 4.36019C89.9573 4.33619 90.4373 4.10823 90.7613 3.73629C91.0373 3.42435 91.1813 3.01642 91.1333 2.62048C91.1093 2.45251 91.0733 2.29654 91.0013 2.15256C90.6893 1.50467 89.9453 1.09674 89.1294 1.14474C87.2455 1.25272 85.3855 1.60066 83.6096 2.15256C83.1296 2.30854 82.6496 2.47651 82.1936 2.65648C81.7136 2.84845 81.3537 3.19639 81.1977 3.62831C81.0537 4.03624 81.0897 4.46817 81.3177 4.8521C81.7137 5.52399 82.5776 5.85993 83.3936 5.70396Z" fill="#1A1A1A"/>
<path d="M70.0024 23.5209C70.2183 23.5449 70.4343 23.5329 70.6383 23.4969C71.3823 23.3529 71.9702 22.825 72.0782 22.1411C72.1382 21.7572 72.1983 21.3733 72.2703 20.9893C72.5223 19.6455 72.8702 18.3498 73.3022 17.126C73.4222 16.766 73.4102 16.3821 73.2422 16.0342C73.0262 15.5662 72.5822 15.2303 72.0183 15.0863C71.0343 14.8464 70.0264 15.3143 69.7264 16.1541C69.2464 17.5219 68.8624 18.9617 68.5744 20.4374C68.4904 20.8573 68.4184 21.2773 68.3584 21.6972C68.2984 22.0931 68.4064 22.5011 68.6704 22.825C68.9944 23.2089 69.4624 23.4609 70.0024 23.5209Z" fill="#1A1A1A"/>
<path d="M99.7254 37.3426C101.669 36.0948 103.313 34.679 104.621 33.1553C105.005 32.6994 105.089 32.0995 104.837 31.5835C104.693 31.2836 104.453 31.0316 104.153 30.8517C103.313 30.3718 102.197 30.5277 101.609 31.2236C100.517 32.4954 99.1254 33.6832 97.4695 34.751C97.0615 35.015 96.7975 35.4229 96.7375 35.8668C96.6775 36.3107 96.8335 36.7307 97.1575 37.0666C97.6255 37.5585 98.3454 37.7505 99.0174 37.6185C99.2694 37.5705 99.5094 37.4745 99.7254 37.3426Z" fill="#1A1A1A"/>
<path d="M71.5135 34.1991C72.0295 34.0791 72.4614 33.7792 72.6894 33.3712C72.9054 32.9993 72.9414 32.5794 72.8094 32.1834C72.7494 32.0035 72.6774 31.8115 72.6294 31.6195C72.1975 30.2398 71.9334 28.764 71.8374 27.2283C71.8254 27.0483 71.7774 26.8683 71.6935 26.7004C71.3935 26.0765 70.6615 25.6685 69.8815 25.6925C69.3415 25.7045 68.8496 25.9205 68.5136 26.2804C68.2256 26.5924 68.0816 26.9763 68.1056 27.3842C68.2136 29.1479 68.5256 30.8517 69.0296 32.4354C69.1016 32.6513 69.1736 32.8673 69.2456 33.0833C69.5216 33.9111 70.4816 34.391 71.4535 34.1991C71.4655 34.2111 71.4895 34.1991 71.5135 34.1991Z" fill="#1A1A1A"/>
<path d="M106.457 20.3774C105.929 20.3894 105.425 20.5934 105.077 20.9413C104.777 21.2413 104.621 21.6372 104.645 22.0332C104.717 23.8448 104.525 25.4406 104.057 26.9043C103.937 27.3003 103.985 27.7202 104.201 28.0801C104.441 28.4881 104.885 28.788 105.401 28.908C105.701 28.98 106.001 28.98 106.289 28.92C106.937 28.8 107.477 28.3801 107.657 27.7802C108.221 26.0045 108.449 24.0968 108.365 21.9372C108.353 21.7452 108.305 21.5532 108.221 21.3733C107.945 20.7614 107.225 20.3534 106.457 20.3774Z" fill="#1A1A1A"/>
<path d="M80.8502 43.2455C81.2942 43.1616 81.6902 42.9336 81.9542 42.6097C82.2182 42.2857 82.3381 41.8778 82.2781 41.4698C82.2541 41.3259 82.2182 41.1939 82.1582 41.0619C81.8462 40.402 81.0422 39.9821 80.2143 40.0661C79.4943 40.1381 78.7383 40.1981 77.9463 40.2461C76.8904 39.1302 75.9544 37.9784 75.1745 36.8266C74.6705 36.0828 73.5785 35.8068 72.6905 36.2027C72.2226 36.4067 71.8866 36.7906 71.7546 37.2226C71.6346 37.6425 71.7066 38.0744 71.9586 38.4344C72.4146 39.1062 72.9306 39.7901 73.4705 40.462C73.1226 40.546 72.7025 40.726 72.4385 41.0019C72.1505 41.3139 71.9946 41.6978 72.0186 42.1057C72.0666 42.9816 72.9425 43.6775 73.9625 43.6535C74.8625 43.6295 75.7384 43.5935 76.5664 43.5575C77.1423 43.7855 77.8144 43.7495 78.3423 43.4615C79.1463 43.4135 79.9143 43.3415 80.6582 43.2815C80.7182 43.2575 80.7902 43.2575 80.8502 43.2455Z" fill="#1A1A1A"/>
<path d="M41.8514 40.738C41.5874 41.4219 41.3474 42.0578 41.2034 42.7296C41.2034 42.7416 41.1794 42.8136 41.1794 42.8256C41.0954 43.0536 41.0234 43.2695 40.9514 43.4735L40.8315 43.8095C40.7475 44.0374 40.7834 44.2774 40.9394 44.4693L41.2394 44.8653C41.2034 44.7333 41.1794 44.6013 41.2034 44.4573C41.5634 42.3097 42.2714 40.2101 43.1953 38.2304C43.4353 37.7145 43.1233 37.2706 42.6674 37.0666C42.6674 37.1026 42.6914 37.1266 42.6914 37.1506C42.7274 38.4584 42.2954 39.5982 41.8514 40.738Z" fill="#FBB03B"/>
<path d="M40.6514 48.7406C39.9314 48.6806 39.1874 48.6446 38.5515 48.7526L36.8716 48.7286C35.9956 48.7166 35.1677 49.0646 34.5557 49.6885C34.4837 49.7725 34.3996 49.8564 34.3396 49.9404L32.1797 52.7959C32.0237 52.34 31.8438 51.8721 31.6758 51.4402C31.4358 50.8043 31.1838 50.1204 30.9678 49.4005C30.8238 48.9566 30.5598 48.5607 30.2238 48.2247C29.8878 47.8888 29.4559 47.6248 28.9879 47.4928L25.52 46.449C27.4159 45.4052 29.8158 43.9774 29.7918 41.2659L29.7798 38.3984C30.9798 39.3582 32.2518 40.2701 33.6437 40.858C33.8117 40.93 33.9916 40.978 34.1836 41.0139C34.6756 41.0859 35.1796 41.0379 35.6356 40.906L39.1635 39.7902C39.1635 39.7902 39.1635 39.7902 39.1635 39.8022C38.8875 40.498 38.5875 41.2659 38.4435 42.0458L37.7716 43.8815C37.6036 44.3614 37.6876 44.9013 37.9995 45.3092L40.6514 48.7406Z" fill="#FBB03B"/>
<path d="M43.4226 47.6608C43.2426 47.4569 43.0866 47.2769 42.9666 47.1209C42.9666 47.1089 42.9547 47.1089 42.9547 47.0969L41.2387 44.8653L40.9387 44.4814C40.7827 44.2894 40.7467 44.0374 40.8307 43.8095L40.9507 43.4735C41.0227 43.2696 41.0947 43.0536 41.1907 42.8256C41.1907 42.8136 41.2147 42.7417 41.2147 42.7297C41.3467 42.0698 41.5987 41.4339 41.8506 40.75C42.2946 39.6102 42.7386 38.4704 42.6906 37.1746C42.6906 37.1386 42.6666 37.1146 42.6666 37.0786C42.6546 36.9586 42.5947 36.8387 42.4987 36.7427C42.3067 36.5507 42.0547 36.4187 41.8027 36.3348H41.7666C41.4786 36.2628 41.1667 36.2748 40.8667 36.3587L34.999 38.2184C34.807 38.2784 34.6029 38.2544 34.435 38.1704C33.163 37.5465 31.9031 36.5267 30.7031 35.5429L29.4312 34.5591C28.9512 34.2111 28.3272 34.1631 27.7752 34.4151C27.2473 34.679 26.9112 35.1949 26.9112 35.7589L26.9353 41.2659C26.9353 42.5257 25.3513 43.3775 23.7914 44.2174C23.1794 44.5533 22.6035 44.8653 22.0995 45.2012L21.5475 45.5732C21.0555 45.8971 20.8035 46.449 20.8875 47.0249C20.9715 47.5768 21.3915 48.0448 21.9674 48.2127L27.8352 49.9884C28.0632 50.0484 28.2552 50.2284 28.3152 50.4563C28.5312 51.1162 28.7592 51.7521 29.0232 52.46C29.4791 53.6718 29.8991 54.7876 30.0791 56.0114C30.0791 56.0354 30.0911 56.0594 30.1031 56.1194C30.1751 56.3713 30.3431 56.6233 30.5831 56.8153C30.9191 57.0792 31.3631 57.1992 31.8071 57.1392C32.011 57.1152 32.179 57.0672 32.323 57.0072C32.539 56.8992 32.743 56.7313 32.887 56.5393L36.4989 51.7641C36.5229 51.7281 36.5709 51.6921 36.6069 51.6561C36.7389 51.5362 36.9188 51.4762 37.1108 51.4762L38.6468 51.5002C38.7068 51.5002 38.7548 51.5002 38.8148 51.4882C39.3188 51.3922 40.0268 51.4402 40.6987 51.4882C41.8507 51.5722 43.3866 51.6801 44.1786 50.8763C44.3225 50.7323 44.4426 50.5283 44.5026 50.3724C44.5146 50.3244 44.5386 50.2764 44.5746 50.2404C44.9825 49.5205 44.3825 48.7526 43.4226 47.6608ZM38.5508 48.7526L36.8709 48.7286C35.9949 48.7166 35.167 49.0646 34.555 49.6885C34.483 49.7725 34.3989 49.8564 34.3389 49.9404L32.179 52.7959C32.023 52.34 31.8431 51.8721 31.6751 51.4402C31.4351 50.8043 31.1831 50.1204 30.9671 49.4005C30.8231 48.9566 30.5591 48.5607 30.2231 48.2247C29.8871 47.8888 29.4552 47.6248 28.9872 47.4929L25.5193 46.449C27.4152 45.4052 29.8151 43.9774 29.7911 41.2659L29.7791 38.3984C30.9791 39.3582 32.2511 40.2701 33.643 40.858C33.811 40.93 33.9909 40.978 34.1829 41.014C34.6749 41.0859 35.1789 41.038 35.6349 40.906L39.1628 39.7902C39.1628 39.7902 39.1628 39.7902 39.1628 39.8022C38.8868 40.498 38.5868 41.2659 38.4428 42.0458L37.7709 43.8815C37.6029 44.3614 37.6869 44.9013 37.9988 45.3092L40.6507 48.7646C39.9307 48.6806 39.1868 48.6447 38.5508 48.7526Z" fill="#1E1E1E"/>
<path d="M229.667 65.0218C229.379 61.7104 226.511 60.0907 223.607 61.4465C215.556 65.1898 206.892 67.8654 197.988 67.6974C189.037 67.5294 181.489 63.3061 173.125 60.6666C156.722 55.4955 139.623 59.4428 123.999 65.4778C121.66 66.3776 120.964 68.7532 121.419 70.7209C119.908 72.8685 120.928 76.5039 123.627 77.1998C134.235 79.9713 145.179 80.3312 156.062 80.9551C167.846 81.627 179.617 82.2629 191.413 82.6468C197.256 82.8388 203.112 82.9228 208.956 83.0188C213.492 83.0908 219.42 84.8305 223.775 83.7387C231.635 81.759 230.195 71.0328 229.667 65.0218Z" fill="#00A99D"/>
<path d="M182.077 24.0369C181.141 23.8929 180.253 24.0249 179.377 24.1329C178.921 23.437 178.513 22.7051 178.105 22.0092C176.954 20.0535 174.386 19.4417 172.598 20.5335C171.398 18.1339 168.182 16.9221 166.19 19.2377C165.158 20.4375 164.21 21.7333 163.634 23.233C162.71 23.077 160.574 23.257 160.058 23.245C154.946 23.125 154.946 31.4156 160.058 31.5356C162.482 31.5956 165.962 32.3155 168.206 30.9477C168.398 30.8277 168.554 30.6957 168.71 30.5638C169.19 30.9717 169.754 31.2956 170.402 31.4876C171.962 31.9555 173.27 31.6676 174.362 30.9837C174.722 31.3436 175.094 31.6676 175.526 31.9075C176.354 32.3754 177.446 32.6154 178.381 32.5794C178.621 32.5674 181.153 32.2195 179.977 32.0395C184.969 32.7954 187.129 24.8047 182.077 24.0369Z" fill="#00A99D"/>
<path d="M217.98 9.6873C216.3 9.36335 214.416 8.91943 212.712 9.39935C212.16 9.55532 211.56 9.62731 211.38 9.78328C211.056 9.41134 210.732 9.00341 210.384 8.78745C208.068 7.38369 205.488 8.18755 203.076 9.0994C198.889 6.05192 192.193 5.77596 189.889 11.211C188.641 14.1505 190.105 17.222 193.321 17.45C195.757 17.6179 198.181 17.6899 200.617 17.6419C201.421 18.0259 202.333 18.1339 203.196 17.8339C204.324 17.438 205.524 17.102 206.652 16.6581C206.964 16.9341 207.3 17.186 207.66 17.378C210.468 19.0697 212.88 17.114 215.856 17.6779C220.86 18.6378 223.008 10.6471 217.98 9.6873Z" fill="#00A99D"/>
<path d="M139.803 13.6346C139.455 13.7066 139.131 13.8146 138.819 13.9466C137.571 13.4186 136.143 13.3827 135.039 14.2345C130.035 18.1098 128.151 25.8365 132.819 30.9477C134.955 33.2873 138.591 34.979 141.687 34.4151C144.891 33.8392 147.555 31.5236 148.91 28.4641C151.61 22.3451 147.386 12.0029 139.803 13.6346Z" fill="#FBB03B"/>
<path d="M229.775 5.95592C229.823 5.00808 229.343 4.25221 228.504 3.94026C228.144 3.50834 227.664 3.24438 227.1 3.17239C199.261 -0.618959 170.942 -0.295015 146.919 0.520846C139.035 0.784801 127.732 1.20473 120.244 1.51668C119.56 1.54067 118.984 1.85262 118.612 2.39253C118.18 2.99242 118.06 3.84428 118.3 4.56416C118.768 24.2888 119.248 44.6973 118.384 65.2138C118.144 70.8888 118.144 76.1559 118.372 81.3151C117.832 81.9989 117.724 83.0308 118.12 83.8466C118.468 84.5785 119.164 84.9504 119.992 84.9504C147.663 84.0386 175.634 83.8586 203.113 84.4345C210.9 84.6025 218.892 84.8305 226.86 85.1184C226.884 85.1184 226.92 85.1184 226.944 85.1184C227.508 85.1184 227.988 84.9265 228.348 84.5545C228.78 84.1226 228.996 83.4627 228.948 82.7788C228.972 82.6108 228.984 82.4549 228.984 82.2989C228.444 62.5263 228.48 42.5737 229.092 22.993C229.272 17.39 229.499 11.6669 229.775 5.95592ZM144.483 52.532C145.563 51.1162 147.399 50.8163 149.031 50.6363C149.619 50.5763 150.195 50.5283 150.723 50.5283C151.863 50.5283 152.871 50.7563 153.651 51.5601C154.719 52.664 155.198 54.1997 155.546 55.7354C151.227 55.4595 147.015 55.5795 142.959 56.1074C143.259 54.6676 143.787 53.4438 144.483 52.532ZM161.522 55.3755C161.57 55.4475 161.606 55.5315 161.63 55.6035C161.714 55.8554 161.786 56.0954 161.822 56.3233C161.822 56.3473 161.822 56.3833 161.834 56.4073C161.234 56.3233 160.634 56.2393 160.034 56.1674C160.034 56.1314 160.022 56.1074 160.01 56.0714L159.998 55.9994C160.502 55.8554 161.018 55.6514 161.522 55.3755ZM158.858 51.7161L158.87 51.9201C158.318 50.5163 157.622 49.4005 156.758 48.4887C156.806 48.4047 156.842 48.3327 156.89 48.2607L156.998 48.0687C157.034 48.0207 157.082 47.9728 157.166 47.8768C157.262 47.7688 157.358 47.6728 157.466 47.5768L157.574 47.4928C157.682 47.4208 157.778 47.3609 157.886 47.3009L158.078 47.2049L158.87 47.0489C158.99 47.0489 159.11 47.0489 159.326 47.0849C159.446 47.1089 159.566 47.1569 159.71 47.2049L159.818 47.2649C159.866 47.2889 159.914 47.3249 159.974 47.3609C160.034 47.3969 160.094 47.4448 160.166 47.5048C160.214 47.5528 160.262 47.6008 160.31 47.6608C160.358 47.7088 160.406 47.7688 160.418 47.7688L160.478 47.8648C160.538 47.9608 160.598 48.0687 160.658 48.1767L160.742 48.3807C160.766 48.4647 160.802 48.5487 160.826 48.6326C160.85 48.7166 160.862 48.8126 160.886 48.9086L160.898 49.0286C160.91 49.1726 160.91 49.3045 160.898 49.4725L160.85 49.6285C160.79 49.8204 160.694 50.1324 160.706 50.1564L160.634 50.3004C160.586 50.4083 160.526 50.5043 160.418 50.6603L160.334 50.7563C160.238 50.8763 160.13 50.9962 159.974 51.1402C159.938 51.1762 159.902 51.2002 159.866 51.2362C159.77 51.2962 159.686 51.3682 159.602 51.4162L159.098 51.6561C159.026 51.6681 158.966 51.6921 158.858 51.7161ZM158.882 52.148L158.834 52.0161L158.87 52.0041L158.882 52.148ZM177.818 26.4004C178.766 27.3843 180.157 27.3243 181.273 27.2883C181.465 27.2763 181.657 27.2763 181.837 27.2763L183.049 27.2643C182.821 27.5762 182.593 27.8882 182.401 28.2121C182.341 28.3081 182.293 28.4041 182.233 28.4881C182.197 28.4881 182.173 28.4881 182.137 28.4881L157.49 28.3561C157.37 27.7322 157.838 27.0723 158.426 26.7484C159.602 26.1005 161.258 26.4004 162.602 26.6524L162.89 26.7004C163.586 26.8204 164.318 26.6404 164.834 26.2085C165.326 25.8005 165.59 25.2126 165.578 24.5408C165.494 21.3613 166.154 19.6936 167.594 19.4416C169.478 19.1057 171.014 21.4093 172.058 22.969C172.562 23.7129 173.486 24.1208 174.362 23.9648C175.178 23.8209 175.79 23.245 175.994 22.4051C176.042 22.2131 176.138 21.9972 176.33 21.9972C176.33 21.9972 176.33 21.9972 176.342 21.9972C176.582 21.9972 176.906 22.2491 177.026 22.6331C177.146 23.053 177.122 23.4729 177.11 23.9289C177.062 24.6847 177.014 25.5726 177.818 26.4004ZM210.012 39.4302C212.1 37.3546 211.74 33.9591 210.528 31.6915C209.004 28.824 206.424 28.2961 203.929 27.7802C202.657 27.5162 201.085 27.3003 199.405 27.3003C197.821 27.3003 196.141 27.5042 194.545 28.0561C191.797 29.016 189.445 31.7515 190.513 34.955C191.677 38.4464 196.561 38.5904 198.601 38.4824C200.017 38.4104 200.725 37.1746 200.665 36.0468C200.605 34.823 199.753 34.0071 198.553 34.0551C196.933 34.1391 194.965 33.9112 194.629 33.4072C194.605 33.3712 194.533 33.2633 194.689 32.9993C195.397 31.7275 198.229 31.7395 199.561 31.7515H199.741C201.529 31.7635 206.184 32.7234 207.108 34.559C207.432 35.1949 207.264 35.9028 206.604 36.7187C205.416 38.1704 204.025 38.5424 202.261 39.0103L202.009 39.0823C199.969 39.6342 197.845 39.8741 195.673 39.8141C192.337 39.7182 186.553 39.0103 185.317 35.4109C183.925 31.3436 187.933 28.0801 190.525 26.7964C194.353 24.8887 198.949 24.4568 203.113 25.5966C204.9 26.0885 210.816 28.0681 212.136 33.0473C213.156 36.9226 210.408 41.0619 207.156 42.8136C205.368 43.7735 203.701 43.7855 201.769 43.7975H201.241C201.805 43.6895 202.357 43.5695 202.909 43.4255C205.608 42.7296 208.128 41.3139 210.012 39.4302ZM122.62 67.9613C133.743 60.7506 148.383 58.339 163.886 61.1825C169.262 62.1663 174.506 63.882 179.57 65.5378C181.525 66.1736 183.481 66.8215 185.461 67.4214C192.217 69.4851 199.021 70.169 205.716 69.4371C212.304 68.7172 218.568 66.7735 224.352 63.6661V63.99C224.352 64.41 224.352 64.8419 224.352 65.2618C224.4 70.157 224.496 75.1841 224.64 80.6072C206.676 79.9833 188.617 79.6713 170.666 79.6713C161.642 79.6713 152.643 79.7553 143.715 79.9113C137.031 80.0313 130.132 80.1993 122.644 80.4392C122.488 76.5639 122.476 72.4726 122.62 67.9613ZM201.181 65.2138C201.157 61.8784 201.169 58.8309 201.217 55.9274C201.241 54.2837 201.277 52.652 201.313 51.0082L201.397 48.3567C201.397 48.3207 201.397 48.2727 201.397 48.2367C206.7 48.4287 213.12 46.2331 215.712 40.822C218.16 35.6988 217.308 29.8078 213.528 25.8005C209.52 21.5533 201.925 20.1495 196.573 20.6534C194.437 20.8574 191.269 21.4213 188.197 23.041C187.897 22.885 187.561 22.801 187.201 22.813L183.985 22.837C183.721 22.837 183.397 22.813 183.061 22.789C182.521 22.7531 181.933 22.7051 181.405 22.7531C181.393 22.5131 181.357 22.2851 181.309 22.0572C181.153 21.0853 180.757 20.1735 180.157 19.4176C179.378 18.4218 178.274 17.7979 177.05 17.6419C175.97 17.5099 174.878 17.7499 173.966 18.3138C171.59 15.5903 169.142 14.5585 166.526 15.1703C162.83 16.0342 161.738 19.6816 161.426 22.0572C159.59 21.9012 157.142 21.9732 155.258 23.6769C153.351 25.4046 152.343 28.6321 153.987 31.0436C154.083 31.1756 154.179 31.2956 154.299 31.4156C154.611 32.2674 155.331 32.7713 156.242 32.7713L180.877 32.9033C180.589 36.7427 182.545 40.2581 185.953 41.9738C189.793 43.9054 194.485 44.6373 199.237 44.0974C198.721 44.3014 198.289 44.6133 197.941 45.0333C197.137 45.9931 197.113 47.1569 197.089 48.2967L197.077 48.6806C196.921 53.9597 196.849 59.4668 196.885 65.0818C193.225 64.8059 189.601 64.11 186.133 63.0182C184.537 62.5143 182.941 61.9984 181.357 61.4824C176.438 59.8747 171.362 58.219 166.154 57.1512C166.154 57.1392 166.154 57.1272 166.154 57.1272C166.262 55.3755 165.662 53.5038 164.534 52.0881C165.11 50.8283 165.29 49.4845 165.086 48.0807C164.81 46.1731 163.646 44.4214 162.062 43.4855C160.226 42.4057 157.922 42.3577 155.906 43.3775C154.706 43.9774 153.675 45.0452 152.967 46.389C151.719 46.1011 150.339 46.0651 148.635 46.257C146.103 46.545 143.259 47.1689 141.339 49.4965C139.443 51.8001 138.735 54.7276 138.471 56.8752C132.819 58.051 127.552 60.0187 122.812 62.7182C123.076 56.1674 122.776 49.5565 122.476 43.1616C122.152 36.1788 121.816 28.968 122.224 21.8532C122.56 16.1422 122.68 10.8991 122.608 5.84794C145.755 4.86411 170.054 3.97626 191.713 4.70813C189.817 5.512 188.317 6.87976 187.477 8.58347C186.277 11.0431 186.541 13.7666 187.021 16.3341C186.733 17.054 186.805 17.9419 187.225 18.5778C187.597 19.1537 188.209 19.4776 188.929 19.4896L216.72 19.8376H217.044C218.7 19.8735 220.584 19.8975 221.868 18.4098C222.96 17.15 223.164 15.1703 222.372 13.4906C221.652 11.9789 220.2 10.8991 218.268 10.4671C217.236 10.2272 216.168 10.1552 215.16 10.1072C214.836 10.0952 214.428 10.1192 214.008 10.1432C213.708 10.1672 213.396 10.1912 213.096 10.1912C213.048 9.93924 213 9.69928 212.928 9.50731C212.64 8.72745 212.232 8.04356 211.68 7.38368C211.068 6.6638 210.312 6.0879 209.496 5.69196C214.86 6.12389 220.2 6.68779 225.408 7.37168C224.616 24.1568 224.256 41.3859 224.328 58.5909C217.332 62.8142 209.352 65.0938 201.181 65.2138ZM202.873 6.6278C202.297 6.03991 201.613 5.54799 200.845 5.14006C201.997 5.20005 203.137 5.26004 204.288 5.33203C204.576 5.35602 204.853 5.36802 205.14 5.39202C204.325 5.63197 203.557 6.0519 202.873 6.6278ZM202.549 12.6988C203.521 12.7468 204.445 12.1109 204.781 11.139C205.021 10.4312 205.584 9.86725 206.28 9.65129C206.868 9.45932 207.48 9.54331 207.984 9.89125C208.62 10.3232 208.812 11.0311 209.016 11.7869C209.232 12.6028 209.484 13.5266 210.372 14.1025C211.164 14.6184 212.052 14.5704 212.832 14.5345C212.988 14.5225 213.144 14.5225 213.3 14.5105C214.368 14.4865 215.64 14.4865 216.852 14.6904C217.404 14.7864 218.244 14.9184 218.496 15.3623C218.508 15.3863 218.52 15.4103 218.532 15.4343C218.448 15.4343 218.352 15.4343 218.28 15.4343H218.076C211.572 15.5063 204.948 15.3743 198.541 15.2423C196.093 15.1943 193.633 15.1464 191.185 15.0984C190.909 13.6826 190.729 12.2069 191.197 10.9231C191.725 9.48332 193.033 8.83543 194.029 8.54748C195.361 8.16354 197.389 8.16354 198.925 9.0034C199.825 9.49532 200.389 10.1912 200.629 11.079C200.881 12.0509 201.625 12.6628 202.549 12.6988Z" fill="#1E1E1E"/>
<path d="M146.043 19.7776C144.555 15.6503 140.427 12.8667 136.191 13.2987C135.735 13.3467 135.303 13.5266 134.967 13.8146C134.931 13.7066 134.883 13.5986 134.835 13.5026C134.271 12.4948 133.191 12.3748 132.243 12.7948C130.311 13.6586 128.919 15.0744 128.079 17.09C127.263 19.0457 126.855 21.2053 127.071 23.353C127.491 27.4443 129.867 30.9957 133.551 32.5674C136.959 34.0191 140.931 33.1073 143.619 30.5637C146.403 27.9122 147.351 23.4249 146.043 19.7776ZM141.663 26.9643C140.223 28.86 137.739 29.7119 135.639 29.136C133.347 28.5121 131.583 26.5324 130.995 24.0608C130.623 22.5131 130.767 20.8934 131.247 19.3936C131.451 18.7337 131.751 18.0379 132.171 17.498C132.675 16.8621 133.431 16.5141 134.151 16.1902C134.259 16.1422 134.355 16.0822 134.439 16.0102C134.727 16.7301 135.411 17.33 136.179 17.246C138.483 17.006 140.823 18.0139 142.047 20.1495C143.235 22.2252 143.079 25.0927 141.663 26.9643Z" fill="#1E1E1E"/>
</svg>
