<svg width="50" height="98" viewBox="0 0 50 98" fill="none" xmlns="http://www.w3.org/2000/svg">
<path d="M23.8756 86.081C26.3957 83.1718 27.5236 78.7114 25.0982 75.3264C23.9516 73.7243 22.3675 72.4665 20.6367 71.5147C18.7151 70.4616 16.4583 69.5181 14.2372 69.9253C12.2874 70.2769 10.668 71.6667 9.7012 73.3351C8.69317 75.0638 7.77809 77.4171 7.79461 79.4448C7.81538 81.4139 8.60162 83.346 9.26789 85.1847C9.93924 87.0487 10.625 88.9048 10.9786 90.8594C10.9888 90.9101 11.0134 90.9529 11.0266 90.9925C11.1408 92.1498 12.1078 93.3065 13.2043 93.5659C14.9088 93.9596 16.1777 93.0821 16.805 91.5819C16.6179 92.0323 16.8276 91.5882 16.8832 91.52C16.9657 91.3995 17.0482 91.2789 17.1276 91.1695C17.1801 91.1124 17.2821 91.0093 17.3027 90.9791C17.4479 90.8522 17.5849 90.711 17.7301 90.5841C17.8464 90.4731 17.971 90.3763 18.0955 90.2795C18.1562 90.2366 18.2633 90.1589 18.2808 90.1398C18.6677 89.8891 19.0659 89.6416 19.4641 89.394C20.5918 88.7163 21.7225 88.0276 22.7294 87.1724C23.0299 86.9693 23.2945 86.7202 23.5121 86.422C23.6397 86.3142 23.7674 86.2063 23.8756 86.081Z" fill="#FF3666"/>
<path d="M32.4475 25.6837C31.9701 23.5118 29.7185 21.7642 27.3698 22.1357C26.9926 22.1952 26.6686 22.2782 26.3887 22.5282C25.9194 22.477 25.4374 22.6359 25.0327 22.9695C23.5315 24.2522 22.3583 25.8452 22.2458 27.8263C22.1911 28.7331 22.4273 29.6503 22.9031 30.4429C23.4685 31.3569 24.3842 31.9697 25.4077 32.3156C27.2789 32.9561 29.2245 32.3467 30.6282 31.1315C32.1639 29.8007 32.8795 27.6434 32.4475 25.6837ZM28.9526 28.2486C28.9366 28.2674 28.8788 28.3663 28.8395 28.4358C28.821 28.4652 28.7914 28.4921 28.7866 28.5134C28.7249 28.5778 28.672 28.6554 28.5992 28.7172C28.492 28.8272 28.3872 28.9266 28.2823 29.026C28.2663 29.0448 28.2663 29.0448 28.2528 29.0529C28.212 29.0772 28.1713 29.1015 28.1577 29.1096C28.033 29.1933 27.9108 29.2662 27.7774 29.3367C27.7638 29.3448 27.7502 29.3529 27.7366 29.361C27.6847 29.3828 27.6241 29.3913 27.5858 29.405C27.4709 29.446 27.3608 29.4657 27.2483 29.4961C27.1901 29.494 27.1048 29.5081 27.0689 29.5111C27.033 29.5142 26.9118 29.5313 26.7955 29.5272C26.7843 29.5246 26.7732 29.5221 26.7174 29.5093C26.6283 29.489 26.5366 29.4792 26.4499 29.4482C26.3941 29.4355 26.3496 29.4253 26.2963 29.4019C26.1809 29.3419 26.052 29.29 25.9391 29.2194C25.928 29.2169 25.9193 29.2037 25.9081 29.2011C25.8994 29.1879 25.8994 29.1879 25.8796 29.1722C25.8311 29.1275 25.774 29.0696 25.7255 29.0249C25.7144 29.0223 25.7144 29.0223 25.7168 29.0117C25.7168 29.0117 25.7168 29.0117 25.7081 28.9985C25.6757 28.935 25.6297 28.8796 25.5861 28.8136C25.5774 28.8004 25.5687 28.7872 25.5575 28.7847C25.5188 28.6974 25.4937 28.6019 25.4724 28.541C25.4749 28.5304 25.4661 28.5172 25.455 28.5146C25.5024 28.6151 25.44 28.4776 25.4323 28.4085C25.4107 28.2466 25.4089 28.1005 25.4095 27.9437C25.4241 27.8797 25.4324 27.7919 25.431 27.7468C25.454 27.5951 25.4968 27.4591 25.542 27.3125C25.5838 27.2323 25.6634 27.0375 25.6683 27.0162C25.7494 26.8666 25.8281 26.7276 25.9179 26.5912C25.9524 26.543 26.0014 26.4309 26.0582 26.3878C25.803 26.6322 26.0742 26.369 26.1223 26.3127C26.2368 26.1707 26.3625 26.0313 26.4993 25.8944C26.7323 25.6449 26.9827 25.4218 27.2442 25.2013C27.3358 25.211 27.4298 25.21 27.5375 25.201C27.7082 25.1727 27.8604 25.1739 28.0286 25.1563C28.0645 25.1532 28.0757 25.1558 28.0893 25.1477C28.1338 25.1579 28.1784 25.1681 28.2119 25.1757C28.2899 25.1935 28.3679 25.2113 28.4571 25.2317C28.4683 25.2343 28.4683 25.2343 28.4683 25.2343C28.5327 25.2602 28.6146 25.3125 28.6258 25.3151C28.6878 25.3517 28.9125 25.5488 28.7522 25.3776C28.5808 25.2039 28.8777 25.496 28.915 25.5381C28.9237 25.5513 28.9634 25.5828 28.992 25.6118C29.0007 25.625 28.9982 25.6356 29.0069 25.6488C29.0418 25.7016 29.1251 25.7991 29.1861 25.8916C29.1837 25.9022 29.1924 25.9154 29.2074 25.9525C29.2349 26.0372 29.2736 26.1246 29.3012 26.2093C29.3225 26.2703 29.3326 26.3286 29.3538 26.3895C29.3644 26.5489 29.3884 26.7001 29.3878 26.8569C29.3829 26.8783 29.3868 26.9128 29.3882 26.9579C29.3785 27.0006 29.3774 27.0564 29.3726 27.0777C29.3423 27.2614 29.2874 27.4506 29.246 27.6318C29.2436 27.6424 29.2411 27.6531 29.2362 27.6744C29.2105 27.7358 29.1872 27.7865 29.1639 27.8372C29.1099 27.9706 29.0313 28.1096 28.9526 28.2486Z" fill="#F6F6F6"/>
<path d="M38.2075 46.3048C38.1749 46.1359 38.0897 45.9896 37.957 45.844L37.6802 45.5502L37.8154 45.1661C42.3694 32.3952 40.9341 18.3828 33.8954 6.73332C33.4997 6.078 33.268 5.37346 32.7283 5.25017L32.4015 5.1755L32.1084 5.10855C31.3946 4.94547 31.0678 5.09587 30.2865 5.71285C18.7974 14.7896 11.2517 26.4851 9.03047 38.6476L9.00421 38.8145L8.90405 38.9415C4.39804 44.5987 2.05328 49.9311 1.76337 55.2487C1.70963 56.1587 1.66991 59.2393 3.2729 60.8391C3.90909 61.4802 4.72053 61.7693 5.7561 61.7523C7.37893 61.708 8.23529 60.451 9.13421 59.1116L10.9621 56.4049L11.4918 56.6297C11.8825 56.7881 12.3008 56.9298 12.7102 57.0579C12.987 57.1442 13.25 57.2388 13.5129 57.3335C14.4884 57.6832 15.4527 58.0303 16.4307 58.369C20.8085 59.8649 24.5439 60.6952 28.1978 60.9996C28.2454 60.999 28.2817 60.9958 28.3293 60.9951L28.8991 60.9408L29.0982 61.4705C29.3763 62.3295 29.4791 63.2292 29.5868 64.1069C29.6946 64.9846 29.7924 65.8025 30.0454 66.5635C30.2922 67.3001 30.8357 67.8277 31.557 67.9925C32.2908 68.1025 33.0421 67.9283 33.598 67.3636C34.5082 66.4417 35.2018 65.0669 35.824 63.8487L35.8879 63.7249C38.5632 58.3988 39.3714 52.3696 38.2075 46.3048ZM5.43273 59.0153L4.93795 57.5995C4.85024 57.0492 4.84518 56.5523 4.84638 56.0799L4.84885 55.9652C4.85248 54.8592 4.98134 53.7243 5.24792 52.5055C5.60586 50.8349 6.2092 49.1282 7.05048 47.4182L8.26233 44.9166L8.36282 47.6949C8.41682 49.0676 8.50586 50.2869 8.655 51.4508C8.65626 51.4972 8.67131 51.5353 8.68634 51.5733L8.72646 51.9168C8.76157 52.3859 8.84301 52.9118 8.96328 53.4235L9.02966 53.7038L5.43273 59.0153ZM27.0792 57.5391L26.8376 57.8183L26.4694 57.7687C25.3988 57.6279 24.3069 57.4246 23.146 57.1594C21.6809 56.8246 20.1094 56.3849 18.3638 55.8247C16.7621 55.3089 15.1843 54.741 13.8494 54.2515C13.728 54.2123 13.609 54.162 13.4813 54.0983C13.2859 54.019 13.0818 53.9263 12.9215 53.9012C12.8088 53.8755 12.6961 53.8497 12.5884 53.8021L12.3843 53.7093L12.2728 53.5224C12.0123 53.1055 11.872 52.059 11.8582 51.7561C11.8469 51.6497 11.8331 51.5543 11.8055 51.4673C11.3305 47.6812 11.4065 43.871 12.0171 40.0562L12.0334 39.9331L12.106 39.8229C12.3314 39.4594 12.4014 39.0488 12.3237 38.6621L12.325 38.3973C14.5088 27.6442 21.0717 17.2921 30.8191 9.24699L31.4626 8.71383L31.8772 9.44262C40.613 24.9269 38.6893 44.2475 27.0792 57.5391ZM33.68 61.0877C33.6537 61.1509 33.6136 61.2224 33.5873 61.2856L32.7385 63.1322L32.2249 61.2279C31.9493 60.0467 31.566 59.1291 31.01 58.3449L30.7219 57.9448L31.0249 57.5528C32.2506 55.9768 33.3411 54.3698 34.2888 52.7648L35.7849 50.2129L35.5736 53.162C35.4836 54.4903 35.3247 55.653 35.0819 56.7158C34.7277 58.3181 34.2708 59.747 33.68 61.0877Z" fill="#F6F6F6"/>
<path d="M24.759 74.1781L24.7471 73.9802C24.6072 69.8951 21.0129 67.6387 17.9207 66.9323C17.8773 66.9224 17.8447 66.9149 17.8013 66.905C14.3218 66.1445 9.566 66.5737 6.61787 70.0337C3.63308 73.5542 4.44442 78.2979 5.49599 82.0401C6.02595 83.918 6.70444 85.7953 7.36534 87.5997C8.16346 89.8028 9.00088 92.0839 9.56381 94.417C9.77154 95.2567 10.4033 95.3896 10.7655 95.4034C11.4247 95.4163 12.2487 95.0075 12.4741 94.2208C13.5421 90.5953 15.5634 87.3943 18.6698 84.4412L18.874 84.2468C21.646 81.6077 24.2671 79.1293 25.053 75.4394C25.1394 75.0114 25.0781 74.6299 24.8534 74.3145L24.759 74.1781ZM21.874 75.5628C21.0245 78.1818 18.9969 80.061 17.0435 81.8652C16.3349 82.5185 15.6687 83.1356 15.0652 83.7785C13.8765 85.034 12.8181 86.4686 11.9109 88.0411L11.192 89.2891L10.2826 86.7735C9.958 85.8956 9.64674 85.0092 9.3355 84.1229L9.12131 83.5114C8.14741 80.7284 6.93088 77.2585 7.68992 74.2858C8.52961 71.0101 11.9511 69.5757 14.9818 69.6021C16.4162 69.6198 19.5282 70.0897 21.0218 71.7972C21.6374 72.5005 21.9128 73.3442 21.8085 74.2504C21.7712 74.5634 21.804 74.8694 21.8878 75.1526L21.9539 75.3629L21.874 75.5628Z" fill="#F6F6F6"/>
</svg>
