<svg width="60" height="152" viewBox="0 0 60 152" fill="none" xmlns="http://www.w3.org/2000/svg">
<path d="M16.4809 20.5486L27.1126 3.84149H30.1503L36.985 12.195L44.5791 22.8268L50.6544 43.3309V65.3539L44.5791 88.1363H13.4432C12.6838 85.6049 11.165 80.2384 11.165 79.0233C11.165 77.8083 8.63361 69.4041 7.36792 65.3539L9.64616 43.3309L16.4809 20.5486Z" fill="#00A99D"/>
<path d="M36.9092 32.5088C35.2371 29.2672 30.9314 27.446 27.365 29.0249C26.7922 29.2783 26.3136 29.5463 25.9752 30.0605C25.2099 30.1772 24.5127 30.6323 24.0119 31.3316C22.173 33.9975 20.9846 37.0171 21.6413 40.2048C21.9368 41.6652 22.6978 43.0196 23.7861 44.0754C25.0674 45.2858 26.7772 45.8712 28.5454 45.9882C31.7814 46.2148 34.6086 44.4289 36.3214 41.911C38.1947 39.1542 38.42 35.4331 36.9092 32.5088ZM32.4504 38.0475C32.4329 38.0839 32.383 38.2651 32.3499 38.3918C32.3331 38.4462 32.2975 38.5013 32.2988 38.5371C32.2282 38.6652 32.177 38.8105 32.0877 38.9392C31.9641 39.1588 31.8398 39.3605 31.7156 39.5622C31.6981 39.5987 31.6981 39.5987 31.68 39.6173C31.6257 39.673 31.5713 39.7288 31.5532 39.7473C31.3908 39.9324 31.2278 40.0996 31.0461 40.2675C31.028 40.2861 31.0098 40.3046 30.9917 40.3232C30.9187 40.3796 30.8262 40.4187 30.7712 40.4566C30.6063 40.57 30.4401 40.6476 30.2746 40.7432C30.1815 40.7644 30.0522 40.8228 29.9966 40.8427C29.941 40.8626 29.7561 40.9408 29.57 40.9833C29.5512 40.9839 29.5325 40.9846 29.4387 40.9879C29.2888 40.9932 29.1394 41.0164 28.9888 41.0038C28.8951 41.0071 28.8202 41.0097 28.7258 40.9951C28.5177 40.9487 28.2915 40.9208 28.0828 40.8564C28.0641 40.857 28.0447 40.8398 28.026 40.8404C28.0066 40.8232 28.0066 40.8232 27.9685 40.8066C27.8729 40.7562 27.7579 40.6885 27.6622 40.638C27.6435 40.6387 27.6435 40.6387 27.6428 40.6208C27.6428 40.6208 27.6428 40.6208 27.6234 40.6035C27.5453 40.5166 27.4491 40.4482 27.3522 40.362C27.3328 40.3447 27.3135 40.3275 27.2947 40.3281C27.1966 40.206 27.1165 40.0653 27.0571 39.9777C27.0565 39.9598 27.0371 39.9426 27.0184 39.9432C27.1359 40.0826 26.979 39.8908 26.9377 39.7846C26.8352 39.5371 26.7707 39.3062 26.7056 39.0574C26.7018 38.9499 26.678 38.8072 26.6567 38.7362C26.6292 38.4861 26.6397 38.2525 26.6496 38.001C26.682 37.8564 26.7262 37.514 26.725 37.4782C26.7904 37.2068 26.8566 36.9533 26.9414 36.6992C26.9758 36.6083 27.0063 36.4099 27.0781 36.3177C26.7765 36.8127 27.0956 36.2812 27.148 36.1717C27.2698 35.8984 27.4102 35.6243 27.5694 35.3497C27.8335 34.856 28.1364 34.3969 28.458 33.9371C28.6073 33.9139 28.756 33.8728 28.9228 33.8131C29.1814 33.6963 29.4232 33.634 29.6824 33.5351C29.738 33.5152 29.7568 33.5146 29.7749 33.496C29.8499 33.4933 29.9248 33.4907 29.9811 33.4887C30.1123 33.4841 30.2435 33.4795 30.3934 33.4742C30.4122 33.4735 30.4122 33.4735 30.4122 33.4735C30.5253 33.4874 30.6771 33.5359 30.6959 33.5352C30.8096 33.5671 31.2489 33.7848 30.9227 33.5811C30.5777 33.378 31.1715 33.7158 31.2483 33.7669C31.2677 33.7841 31.3439 33.8173 31.4014 33.8512C31.4208 33.8684 31.4214 33.8863 31.4408 33.9036C31.5183 33.9726 31.6914 34.0921 31.8271 34.2128C31.8277 34.2307 31.8471 34.248 31.8865 34.3004C31.9659 34.4232 32.064 34.5453 32.1434 34.6681C32.2028 34.7556 32.2434 34.8439 32.3028 34.9315C32.3867 35.1797 32.4886 35.4093 32.5537 35.6581C32.5549 35.6939 32.5756 35.747 32.5969 35.818C32.5994 35.8897 32.6213 35.9786 32.6226 36.0144C32.652 36.3183 32.6447 36.6415 32.6554 36.946C32.6561 36.9639 32.6567 36.9818 32.658 37.0177C32.643 37.1258 32.6274 37.2161 32.6118 37.3063C32.5826 37.5405 32.5165 37.794 32.4504 38.0475Z" fill="#F6F6F6"/>
<path d="M54.7302 62.7679C54.6074 62.514 54.4108 62.318 54.139 62.1432L53.5764 61.7941L53.6288 61.1282C55.465 38.9654 47.284 17.359 31.217 1.85979C30.3135 0.987837 29.6493 -0.0312871 28.7418 0.000735976L27.6996 0.0375176C26.4993 0.0798749 26.0447 0.455989 25.0663 1.76327C10.6803 20.9934 3.64878 42.7124 5.25392 62.9276L5.28264 63.2033L5.1774 63.4468C0.419162 74.3132 -1.05013 83.754 0.731553 92.3052C1.02991 93.7704 2.26533 98.6702 5.48052 100.53C6.75914 101.279 8.16724 101.395 9.80155 100.931C12.3553 100.177 13.1829 97.8238 14.0433 95.3217L15.8 90.2609L16.7343 90.394C17.4204 90.4804 18.1431 90.5287 18.8462 90.5592C19.3212 90.5794 19.778 90.6186 20.2347 90.6578C21.9284 90.8009 23.6031 90.9447 25.2961 91.0694C32.866 91.5955 39.1369 91.3373 45.0572 90.2798C45.1323 90.2587 45.1886 90.2383 45.2637 90.2172L46.1439 89.891L46.6829 90.6467C47.4857 91.8911 48.0278 93.2739 48.5686 94.6198C49.1094 95.9657 49.609 97.2208 50.3309 98.3205C51.0325 99.3841 52.1164 99.9914 53.3292 99.9486C54.5387 99.8137 55.6562 99.2209 56.2993 98.0914C57.3536 96.2466 57.8736 93.7749 58.3464 91.5816L58.3954 91.3586C60.3914 81.7886 59.1314 71.8908 54.7302 62.7679ZM8.13542 96.7292L6.75444 94.6936C6.38344 93.8581 6.16599 93.0726 5.96879 92.3233L5.92435 92.1404C5.464 90.3859 5.18992 88.5325 5.0988 86.4883C4.96208 83.6893 5.19911 80.7297 5.81191 77.6645L6.67852 73.1885L8.00877 77.5501C8.67292 79.7032 9.32797 81.5985 10.0549 83.3805C10.0765 83.4535 10.1164 83.5075 10.1562 83.5614L10.3646 84.089C10.618 84.8178 10.9687 85.6171 11.375 86.3775L11.5984 86.7938L8.13542 96.7292ZM41.8256 85.266L41.5602 85.8103L40.9558 85.8869C39.1993 86.1149 37.3827 86.2528 35.4309 86.3217C32.9675 86.4086 30.291 86.374 27.2879 86.2217C24.5318 86.0792 21.7914 85.8439 19.4691 85.6307C19.26 85.6196 19.0503 85.5901 18.821 85.5429C18.4779 85.4996 18.1153 85.4387 17.8506 85.4664C17.6611 85.4731 17.4716 85.4798 17.2808 85.4497L16.9182 85.3887L16.6627 85.1395C16.0741 84.5884 15.4105 82.9886 15.261 82.5143C15.1983 82.3505 15.1362 82.2051 15.0558 82.0788C12.7071 76.2775 11.2217 70.206 10.5818 63.9017L10.5557 63.6997L10.6244 63.4944C10.8283 62.8231 10.7664 62.1428 10.4803 61.5626L10.3706 61.1422C9.30022 43.177 15.34 24.0016 27.4 7.14086L28.1954 6.02449L29.1598 7.00497C49.5332 27.8675 54.627 59.3037 41.8256 85.266ZM53.7841 88.1088C53.7691 88.22 53.7357 88.3503 53.7207 88.4615L53.1535 91.7464L51.5368 88.9444C50.6021 87.1882 49.6078 85.8952 48.3959 84.8865L47.7706 84.3737L48.0857 83.6247C49.3643 80.6098 50.4156 77.603 51.2414 74.6594L52.5373 69.9838L53.4454 74.7476C53.8625 76.8911 54.1007 78.801 54.1638 80.588C54.2777 83.2771 54.1557 85.7347 53.7841 88.1088Z" fill="#F6F6F6"/>
<path d="M49.0734 128.543C51.2086 122.602 50.2964 115.111 44.5843 111.366C41.8826 109.593 38.7153 108.606 35.5046 108.173C31.9421 107.698 27.9314 107.589 24.7742 109.526C21.9992 111.217 20.3435 114.301 19.851 117.425C19.3311 120.666 19.3227 124.807 20.5471 127.899C21.7433 130.9 24.0887 133.391 26.1953 135.809C28.3246 138.264 30.4713 140.698 32.1682 143.479C32.2137 143.551 32.2766 143.602 32.3203 143.655C33.1794 145.358 35.3428 146.556 37.1738 146.304C40.0141 145.898 41.4365 143.806 41.5092 141.139C41.4893 141.939 41.5474 141.136 41.5922 140.999C41.6472 140.765 41.7021 140.532 41.7588 140.318C41.8054 140.199 41.9004 139.981 41.9142 139.923C42.0612 139.643 42.1873 139.346 42.3344 139.066C42.4467 138.827 42.58 138.606 42.7133 138.384C42.7809 138.282 42.8986 138.1 42.9142 138.061C43.3578 137.448 43.8207 136.834 44.2835 136.22C45.6079 134.516 46.9306 132.794 47.9653 130.89C48.3049 130.402 48.5625 129.864 48.7189 129.279C48.8505 129.039 48.982 128.798 49.0734 128.543Z" fill="#FF3666"/>
<path d="M43.8224 111.615L43.7201 111.306C41.7767 104.889 35.1283 102.828 29.929 103.011C29.856 103.014 29.8012 103.016 29.7283 103.018C23.8924 103.279 16.5347 105.964 13.3198 112.691C10.0724 119.529 13.3578 126.707 16.6019 132.196C18.2334 134.949 20.1001 137.639 21.9082 140.22C24.1019 143.376 26.3907 146.639 28.2663 150.1C28.9495 151.343 30.007 151.288 30.5869 151.157C31.6372 150.9 32.7711 149.904 32.7968 148.562C32.9617 142.365 34.8166 136.439 38.4959 130.449L38.7377 130.055C42.0193 124.703 45.1295 119.67 44.8201 113.49C44.7766 112.775 44.5187 112.196 44.0295 111.791L43.8224 111.615ZM39.833 115.025C39.5902 119.535 37.1683 123.368 34.8324 127.051C33.9844 128.385 33.1886 129.644 32.5029 130.918C31.1478 133.409 30.0748 136.129 29.2995 139.004L28.6859 141.285L26.1842 137.681C25.2996 136.426 24.4327 135.152 23.5658 133.879L22.9685 133C20.2518 128.999 16.861 124.011 16.8113 118.979C16.7617 113.433 21.5806 109.717 26.3958 108.482C28.6769 107.905 33.8079 107.338 36.8951 109.416C38.1674 110.271 38.9594 111.492 39.176 112.973C39.2488 113.484 39.4299 113.956 39.6819 114.369L39.8754 114.675L39.833 115.025Z" fill="#F6F6F6"/>
</svg>
