<svg width="58" height="96" viewBox="0 0 58 96" fill="none" xmlns="http://www.w3.org/2000/svg">
<path d="M29.284 22.6747C27.7331 21.1363 24.9438 20.893 23.203 22.4506C22.9234 22.7007 22.7002 22.9417 22.6022 23.2971C22.1877 23.5048 21.8744 23.8928 21.7181 24.3836C21.1622 26.2419 21.0422 28.1817 22.0046 29.8768C22.4424 30.6544 23.1259 31.2857 23.9407 31.6865C24.8942 32.1397 25.9764 32.1578 27.0055 31.8982C28.8911 31.4303 30.1725 29.8911 30.6838 28.1404C31.2426 26.224 30.6843 24.0622 29.284 22.6747ZM27.7653 26.6533C27.7621 26.6773 27.7671 26.7897 27.7716 26.868C27.7721 26.9021 27.7619 26.9401 27.7693 26.9602C27.7527 27.0462 27.7503 27.1385 27.7232 27.2283C27.6933 27.3762 27.6597 27.5141 27.6261 27.6519C27.6229 27.6759 27.6229 27.6759 27.616 27.6899C27.5953 27.7316 27.5747 27.7734 27.5678 27.7873C27.5094 27.9228 27.4474 28.0481 27.3748 28.1773C27.3679 28.1912 27.361 28.2051 27.3541 28.2191C27.3229 28.2647 27.2774 28.304 27.2531 28.3357C27.1801 28.4308 27.0997 28.5057 27.023 28.5907C26.9739 28.6199 26.911 28.677 26.8829 28.6986C26.8549 28.7202 26.764 28.799 26.6658 28.8575C26.6552 28.8613 26.6447 28.8652 26.5919 28.8843C26.5074 28.915 26.4266 28.9558 26.3385 28.9764C26.2857 28.9956 26.2435 29.0109 26.187 29.02C26.0599 29.0319 25.9258 29.0577 25.795 29.0596C25.7845 29.0634 25.7703 29.0572 25.7597 29.061C25.7455 29.0547 25.7455 29.0547 25.7207 29.0523C25.6569 29.0412 25.5789 29.0239 25.5151 29.0128C25.5045 29.0166 25.5045 29.0166 25.5009 29.0065C25.5009 29.0065 25.5009 29.0065 25.4866 29.0003C25.4261 28.9651 25.3586 28.9439 25.2875 28.9127C25.2733 28.9064 25.2591 28.9002 25.2485 28.904C25.1701 28.8525 25.0985 28.7871 25.0485 28.7482C25.0448 28.7381 25.0306 28.7319 25.02 28.7357C25.1127 28.7934 24.988 28.7131 24.9448 28.6602C24.8407 28.5381 24.7614 28.4184 24.6784 28.2887C24.6564 28.2281 24.6165 28.1512 24.5913 28.1147C24.5294 27.9772 24.4923 27.8422 24.4516 27.6971C24.4434 27.6087 24.4054 27.4055 24.398 27.3853C24.3853 27.2186 24.3762 27.0619 24.3777 26.9015C24.3805 26.8434 24.3612 26.7247 24.3851 26.6589C24.3046 26.9966 24.3884 26.6349 24.3981 26.5628C24.417 26.3846 24.4464 26.2026 24.4865 26.0167C24.5459 25.6867 24.6337 25.3692 24.7321 25.0479C24.8129 25.0071 24.8901 24.9562 24.9741 24.8914C25.0999 24.7772 25.2262 24.6971 25.3556 24.5929C25.3836 24.5713 25.3942 24.5675 25.4011 24.5536C25.4433 24.5382 25.4856 24.5229 25.5172 24.5114C25.5911 24.4845 25.6651 24.4577 25.7495 24.427C25.7601 24.4232 25.7601 24.4232 25.7601 24.4232C25.8271 24.4102 25.9226 24.4098 25.9331 24.406C26.0038 24.4032 26.2943 24.4461 26.0708 24.3902C25.8368 24.3382 26.2374 24.4211 26.2906 24.436C26.3049 24.4423 26.3544 24.4471 26.3934 24.4558C26.4076 24.4621 26.4113 24.4722 26.4255 24.4784C26.4824 24.5034 26.6031 24.5396 26.7027 24.5834C26.7063 24.5934 26.7206 24.5997 26.7527 24.6223C26.8206 24.6776 26.899 24.7291 26.9669 24.7844C27.0169 24.8233 27.0563 24.8661 27.1063 24.9051C27.1999 25.031 27.3003 25.143 27.3833 25.2728C27.3907 25.293 27.4122 25.3194 27.4375 25.3559C27.4521 25.3963 27.481 25.4429 27.4883 25.4631C27.5612 25.6308 27.6166 25.8163 27.6789 25.9878C27.6826 25.9979 27.6863 26.008 27.6936 26.0282C27.705 26.0926 27.7128 26.1469 27.7206 26.2012C27.7471 26.34 27.7562 26.4966 27.7653 26.6533Z" fill="#F6F6F6"/>
<path d="M45.0212 36.6277C44.9044 36.5057 44.7561 36.4303 44.569 36.3808L44.1841 36.2857L44.0911 35.8966C41.0481 22.9299 32.4002 12.1284 20.3858 6.26167C19.7101 5.93156 19.1436 5.47343 18.6325 5.6591L18.3229 5.77155L18.0454 5.87236C17.3693 6.11795 17.1797 6.41613 16.8634 7.34152C12.2146 20.9528 12.2155 34.6253 16.8599 45.8474L16.9271 45.9992L16.9121 46.1574C16.2059 53.2268 17.1106 58.8771 19.7035 63.4207C20.1438 64.2005 21.7518 66.7644 23.927 67.2311C24.7936 67.4214 25.6173 67.2278 26.463 66.6622C27.7789 65.7613 27.8163 64.2677 27.8449 62.6833L27.9121 59.4756L28.469 59.3791C28.8759 59.3017 29.2965 59.1959 29.7028 59.0836C29.9771 59.0074 30.2446 58.9455 30.5121 58.8835C31.5035 58.6526 32.4843 58.4255 33.4719 58.1842C37.8822 57.0873 41.4076 55.7831 44.5858 54.0883C44.6247 54.0624 44.653 54.0404 44.6919 54.0145L45.1333 53.6662L45.5798 53.9974C46.2668 54.5583 46.8308 55.2461 47.3873 55.9132C47.9437 56.5803 48.46 57.2033 49.0742 57.6967C49.6702 58.1732 50.3999 58.3193 51.083 58.0711C51.7472 57.7711 52.2746 57.2271 52.4327 56.4649C52.693 55.2192 52.5332 53.715 52.3979 52.3781L52.3847 52.2419C51.7563 46.4208 49.2121 41.0137 45.0212 36.6277ZM24.7384 64.5753L23.5759 63.6703C23.2104 63.2627 22.9416 62.8553 22.6909 62.4647L22.6319 62.3687C22.0458 61.4539 21.5477 60.4485 21.1186 59.3005C20.5243 57.7309 20.1133 56.0008 19.8969 54.1413L19.5648 51.431L21.1275 53.6708C21.9032 54.7751 22.6261 55.7341 23.3691 56.6153C23.3949 56.6529 23.4276 56.6763 23.4602 56.6997L23.6763 56.9618C23.9551 57.3304 24.3025 57.7211 24.6742 58.0794L24.8783 58.2754L24.7384 64.5753ZM41.8194 51.8277L41.7686 52.1868L41.4384 52.342C40.4796 52.796 39.47 53.2097 38.3706 53.6091C36.983 54.1131 35.4516 54.5872 33.7124 55.0546C32.1157 55.4819 30.5109 55.8534 29.1484 56.1604C29.0272 56.1927 28.9022 56.2146 28.7628 56.23C28.5594 56.2687 28.3415 56.3008 28.1959 56.3655C28.0891 56.4043 27.9824 56.443 27.8681 56.461L27.6502 56.4932L27.4587 56.3983C27.0216 56.193 26.3483 55.4039 26.1756 55.1612C26.1097 55.0794 26.0475 55.0081 25.9784 54.9509C23.5698 52.0788 21.6032 48.8934 20.0754 45.4194L20.0232 45.3091L20.0245 45.1795C20.0168 44.7594 19.856 44.3832 19.5859 44.1054L19.4459 43.8861C15.5213 33.8473 15.4246 21.8071 19.1853 9.97499L19.4326 9.19214L20.1629 9.57288C35.6206 17.7009 44.3232 34.6729 41.8194 51.8277ZM49.1577 51.2411C49.1696 51.3072 49.1747 51.3876 49.1866 51.4538L49.4695 53.4301L48.0314 52.1318C47.1747 51.3036 46.3697 50.7503 45.493 50.3992L45.0421 50.2224L45.0835 49.7375C45.2558 47.7838 45.2999 45.8766 45.2274 44.047L45.1031 41.1438L46.4994 43.6906C47.1326 44.8349 47.6207 45.8792 47.9864 46.8858C48.5474 48.397 48.9314 49.8198 49.1577 51.2411Z" fill="#F6F6F6"/>
<path d="M53.0621 75.1926C53.1826 71.4136 51.2807 67.3137 47.3352 66.2341C45.4687 65.7224 43.4818 65.744 41.5726 66.0899C39.4551 66.4767 37.1498 67.1546 35.7082 68.8405C34.439 70.316 34.0646 72.3786 34.3604 74.2496C34.6622 76.1921 35.4215 78.5533 36.6897 80.0894C37.9248 81.5782 39.7208 82.5648 41.3674 83.5543C43.0336 84.5601 44.7058 85.551 46.1858 86.8225C46.225 86.8549 46.2702 86.8723 46.3049 86.8944C47.1086 87.7061 48.5622 87.9895 49.559 87.5083C51.1026 86.7532 51.5269 85.2982 51.0764 83.7658C51.2126 84.225 51.0975 83.7566 51.0977 83.6701C51.086 83.5271 51.0743 83.3841 51.067 83.2515C51.0717 83.1754 51.0856 83.0337 51.0827 82.9979C51.1148 82.8112 51.1319 82.6187 51.164 82.432C51.184 82.2753 51.219 82.1244 51.2541 81.9735C51.2738 81.9032 51.3073 81.7776 51.3089 81.7523C51.4487 81.3215 51.5991 80.8861 51.7494 80.4507C52.1898 79.2357 52.6256 78.0103 52.8639 76.7347C52.9673 76.3937 53.0149 76.0399 52.9961 75.6778C53.0267 75.5165 53.0572 75.3551 53.0621 75.1926Z" fill="#FF3666"/>
<path d="M48.7666 66.7975L48.6514 66.6405C46.3602 63.3431 42.1916 63.395 39.263 64.4589C39.2219 64.4738 39.191 64.485 39.1499 64.5C35.8729 65.7255 32.176 68.6127 31.5854 73.0388C30.9968 77.5344 34.193 81.0178 37.0542 83.5466C38.4917 84.8143 40.0517 86.0025 41.5582 87.1399C43.3904 88.5333 45.2965 89.9701 47.0039 91.596C47.6226 92.1785 48.2148 91.9517 48.5211 91.7702C49.0721 91.4297 49.5345 90.6534 49.3015 89.884C48.2521 86.3227 48.2157 82.604 49.2068 78.512L49.2718 78.2427C50.1542 74.588 50.9977 71.1463 49.6811 67.682C49.5244 67.2827 49.2707 67.0005 48.9172 66.8598L48.7666 66.7975ZM47.1228 69.4771C47.8166 72.0913 47.1438 74.7222 46.4924 77.2518C46.2555 78.1685 46.0343 79.0327 45.8786 79.8848C45.5661 81.5542 45.4566 83.3021 45.5453 85.0832L45.6166 86.4962L43.5261 84.9041C42.7906 84.3524 42.0616 83.7866 41.3326 83.2208L40.8301 82.8301C38.544 81.0517 35.6918 78.8355 34.735 75.9776C33.6834 72.8265 35.7436 69.8203 38.2592 68.2279C39.4526 67.4785 42.2716 66.2088 44.4138 66.8228C45.2966 67.0754 45.9732 67.6251 46.3697 68.4286C46.5057 68.7068 46.6958 68.9419 46.9157 69.1311L47.0823 69.2695L47.1228 69.4771Z" fill="#F6F6F6"/>
</svg>
