<svg width="68" height="43" viewBox="0 0 68 43" fill="none" xmlns="http://www.w3.org/2000/svg">
<path d="M66.65 26.9812C66.4773 20.5719 66.7032 13.9169 65.8597 7.55404C65.0693 1.60301 57.584 2.74539 52.523 2.54614C37.2535 1.9351 21.9908 1.32407 6.72132 0.713025C4.44319 -0.734881 0.238949 0.194955 0.112755 3.50256C-0.059931 7.93262 -0.0400047 12.3693 0.212383 16.7928C0.843351 20.2863 1.42119 23.7865 1.97245 27.3C2.57021 31.0991 2.26469 35.5093 3.7923 39.1025C4.97453 40.8625 6.84751 41.2145 9.08579 41.2544C12.7321 41.3208 16.4117 41.1216 20.058 41.0551C27.3706 40.9223 34.6898 40.7961 42.0024 40.6633C45.4163 40.6035 48.8302 40.5437 52.244 40.4773C55.5649 40.4175 59.3839 40.8094 62.6185 40.1054C68.6559 38.7903 66.7563 30.9929 66.65 26.9812Z" fill="#FBB03B"/>
<path d="M35.215 4.7446C34.066 4.19333 32.8705 4.05387 31.6085 3.97417C30.34 3.89447 29.0647 3.82805 27.7962 3.76163C25.2059 3.62215 22.6089 3.49595 20.0186 3.38304C14.7849 3.15722 9.54456 2.98455 4.30421 2.87164C3.826 2.85835 3.50055 3.09081 3.32123 3.40297C2.97585 3.57566 2.71682 3.90774 2.70354 4.39924C2.67697 5.29587 2.64377 6.19251 2.6172 7.08914C2.59727 7.75332 3.17511 8.23817 3.79943 8.27138C9.57113 8.57026 15.3495 8.67653 21.1278 8.70974C23.9705 8.72302 26.8065 8.72303 29.6492 8.71639C31.8609 8.70974 35.8393 9.0219 35.8128 5.76079C35.7995 5.36893 35.5869 4.91729 35.215 4.7446Z" fill="#1E1E1E"/>
<path d="M38.7415 24.6568C27.291 23.6738 15.7809 23.6207 4.32381 24.4974C2.63016 24.6236 2.61687 27.287 4.32381 27.1541C15.7809 26.2774 27.291 26.3305 38.7415 27.3135C40.4418 27.4596 40.4351 24.7963 38.7415 24.6568Z" fill="#1E1E1E"/>
<path d="M29.1969 29.9303C20.9678 29.5849 12.732 29.638 4.50945 30.0963C2.80916 30.1893 2.79588 32.846 4.50945 32.753C12.732 32.2947 20.9678 32.2416 29.1969 32.587C30.9039 32.66 30.9039 30.0033 29.1969 29.9303Z" fill="#1E1E1E"/>
<path d="M14.5787 35.7685C14.3329 35.0113 13.682 34.7324 12.9448 34.8386C10.2881 35.2239 7.43876 35.3169 4.70235 35.1575C4.00497 35.1176 3.34079 35.7951 3.374 36.4858C3.40721 37.243 3.95847 37.7677 4.70235 37.8142C7.69779 37.9868 10.6866 37.8275 13.6555 37.4024C14.3396 37.3028 14.7779 36.3928 14.5787 35.7685Z" fill="#1E1E1E"/>
<path d="M46.3993 34.626H19.4736C17.7667 34.626 17.76 37.2827 19.4736 37.2827H46.3993C48.1129 37.2827 48.1129 34.626 46.3993 34.626Z" fill="#1E1E1E"/>
<path d="M27.085 39.7137C19.7924 39.7004 12.4997 39.7735 5.20704 39.9262C3.50011 39.9594 3.60638 42.6161 5.31996 42.5829C12.6126 42.4302 19.9053 42.3571 27.198 42.3704C28.9049 42.377 28.792 39.7203 27.085 39.7137Z" fill="#1E1E1E"/>
</svg>
