<svg width="55" height="39" viewBox="0 0 55 39" fill="none" xmlns="http://www.w3.org/2000/svg">
<path d="M54.4713 34.3931C53.8204 27.5787 53.4817 20.7376 53.5282 13.89C53.5681 8.23116 54.7901 2.08752 47.6436 0.905289C41.128 -0.170678 34.0479 0.546637 27.4659 0.566562C20.3526 0.586487 13.2392 0.632978 6.11924 0.699395C5.64103 0.706037 5.20931 0.792383 4.81081 0.951786C2.61902 0.201266 -0.17716 1.29051 0.00880982 4.23946C0.586644 13.2656 0.978511 22.3051 1.18441 31.3512C1.21762 32.9386 2.29358 34.4662 3.86768 34.8713C19.25 38.8564 35.1371 36.9834 50.8117 38.0461C52.6648 38.1723 54.6507 36.2661 54.4713 34.3931Z" fill="#00A99D"/>
<path d="M3.19018 7.08216C4.33921 7.63342 5.53472 7.7729 6.79666 7.85261C8.06524 7.93231 9.34046 7.99873 10.609 8.06515C13.1993 8.20462 15.7963 8.33081 18.3866 8.44372C23.6203 8.66954 28.8606 8.84223 34.101 8.95514C34.5792 8.96843 34.9046 8.73596 35.084 8.4238C35.4293 8.25111 35.6884 7.91902 35.7016 7.42753C35.7282 6.53089 35.7614 5.63425 35.788 4.73761C35.8079 4.07344 35.2301 3.58859 34.6058 3.55538C28.8341 3.2565 23.0557 3.15023 17.2774 3.11702C14.4347 3.10374 11.5987 3.10374 8.75598 3.11038C6.54427 3.11702 2.56585 2.80486 2.59242 6.06597C2.6057 6.45119 2.81824 6.90283 3.19018 7.08216Z" fill="#1E1E1E"/>
<path d="M50.287 30.8931C39.0026 30.3551 27.7116 29.9499 16.414 29.6843C13.1661 29.6112 9.91167 29.5448 6.65721 29.4917C4.95027 29.4651 4.94363 32.1218 6.65721 32.1484C17.9549 32.3343 29.2525 32.6531 40.5369 33.1181C43.7847 33.2509 47.0325 33.397 50.2804 33.5498C51.9939 33.6361 51.9873 30.9794 50.287 30.8931Z" fill="#1E1E1E"/>
<path d="M26.6022 24.238C19.9538 24.3576 13.2987 24.3177 6.65032 24.1185C4.94338 24.0653 4.94338 26.722 6.65032 26.7752C13.2987 26.9744 19.9472 27.0143 26.6022 26.8947C28.3091 26.8682 28.3158 24.2114 26.6022 24.238Z" fill="#1E1E1E"/>
<path d="M44.0637 25.2078C40.6565 25.0351 37.2493 24.8558 33.842 24.6831C33.1247 24.6432 32.5137 25.3207 32.5137 26.0114C32.5137 26.7619 33.1247 27.2999 33.842 27.3398C37.2493 27.5125 40.6565 27.6918 44.0637 27.8645C44.781 27.9043 45.3921 27.2269 45.3921 26.5361C45.3921 25.7856 44.781 25.2476 44.0637 25.2078Z" fill="#1E1E1E"/>
<path d="M12.3957 19.0243C10.0778 18.7652 7.74649 18.6855 5.41523 18.7852C4.72449 18.8184 4.05367 19.3763 4.08688 20.1135C4.12009 20.8043 4.67135 21.4751 5.41523 21.4419C7.74649 21.3422 10.0778 21.4219 12.3957 21.681C13.0865 21.7607 13.7507 21.0168 13.7241 20.3526C13.6842 19.5689 13.133 19.1106 12.3957 19.0243Z" fill="#1E1E1E"/>
<path d="M42.1241 19.8611C34.433 20.2397 26.7949 18.4531 19.1037 19.1438C18.3864 19.2102 17.7754 19.7084 17.7754 20.4722C17.7754 21.143 18.3864 21.867 19.1037 21.8005C26.7949 21.1098 34.433 22.8964 42.1241 22.5179C43.8244 22.4315 43.8377 19.7748 42.1241 19.8611Z" fill="#1E1E1E"/>
</svg>
