<svg width="61" height="43" viewBox="0 0 61 43" fill="none" xmlns="http://www.w3.org/2000/svg">
<path d="M60.5066 28.0798C60.3539 21.5377 60.5597 14.7431 59.7893 8.24745C59.072 2.17023 52.2775 3.3392 47.6814 3.1333C33.82 2.50897 19.9652 1.88464 6.10387 1.26032C4.03164 -0.220799 0.219263 0.72898 0.106352 4.10964C-0.119468 10.4193 0.00672098 16.729 0.557988 23.0188C0.737316 25.0711 0.976433 27.1234 1.23546 29.169C1.00964 30.4841 0.836946 31.7859 0.810379 33.0611C0.77717 34.6751 1.30187 35.771 2.15866 36.5148C2.38448 37.8565 2.71657 39.1583 3.30104 40.2475C4.36373 42.2401 6.13044 42.612 8.24252 42.6585C11.5501 42.7249 14.8909 42.5256 18.2052 42.4592C24.8469 42.3264 31.4887 42.1936 38.1238 42.0607C41.2256 42.0009 44.3206 41.9345 47.4223 41.8748C50.431 41.815 53.9047 42.2135 56.8404 41.4895C62.3265 40.1346 60.5996 32.1778 60.5066 28.0798Z" fill="#FBB03B"/>
<path d="M35.2216 5.27854C34.0726 4.72727 32.8771 4.58781 31.6151 4.50811C30.3465 4.42841 29.0713 4.36198 27.8028 4.29557C25.2125 4.15609 22.6155 4.02989 20.0252 3.91698C14.7915 3.69116 9.55115 3.51848 4.31079 3.40557C3.83258 3.39229 3.50715 3.62474 3.32782 3.9369C2.98245 4.10959 2.7234 4.44168 2.71012 4.93317C2.68355 5.82981 2.65036 6.72644 2.62379 7.62308C2.60387 8.28726 3.1817 8.77211 3.80603 8.80531C9.57773 9.10419 15.3561 9.21046 21.1344 9.24367C23.9771 9.25696 26.8131 9.25696 29.6558 9.25032C31.8675 9.24368 35.8459 9.55584 35.8194 6.29473C35.8061 5.90286 35.5935 5.45122 35.2216 5.27854Z" fill="#1E1E1E"/>
<path d="M38.7483 21.8697C27.2979 20.8867 15.7877 20.8336 4.33064 21.7103C2.63699 21.8365 2.62371 24.4998 4.33064 24.367C15.7877 23.4903 27.2979 23.5434 38.7483 24.5264C40.4486 24.6725 40.442 22.0092 38.7483 21.8697Z" fill="#1E1E1E"/>
<path d="M29.2038 27.1434C20.9746 26.798 12.7388 26.8512 4.51629 27.3094C2.816 27.4024 2.80271 30.0591 4.51629 29.9661C12.7388 29.5079 20.9746 29.4547 29.2038 29.8001C30.9107 29.8732 30.9107 27.2164 29.2038 27.1434Z" fill="#1E1E1E"/>
<path d="M14.5855 32.9814C14.3398 32.2242 13.6889 31.9453 12.9516 32.0515C10.2949 32.4368 7.4456 32.5297 4.70919 32.3703C4.0118 32.3305 3.34762 33.008 3.38083 33.6987C3.41404 34.4559 3.96531 34.9806 4.70919 35.0271C7.70463 35.1997 10.6934 35.0403 13.6623 34.6153C14.3464 34.5156 14.7848 33.6057 14.5855 32.9814Z" fill="#1E1E1E"/>
<path d="M46.4062 31.8391H19.4804C17.7735 31.8391 17.7669 34.4958 19.4804 34.4958H46.4062C48.1198 34.4958 48.1198 31.8391 46.4062 31.8391Z" fill="#1E1E1E"/>
<path d="M27.0919 36.9266C19.7992 36.9133 12.5066 36.9863 5.21389 37.1391C3.50695 37.1723 3.61321 39.829 5.32679 39.7958C12.6195 39.6431 19.9121 39.57 27.2048 39.5833C28.9117 39.5899 28.7988 36.9332 27.0919 36.9266Z" fill="#1E1E1E"/>
</svg>
