<svg width="53" height="42" viewBox="0 0 53 42" fill="none" xmlns="http://www.w3.org/2000/svg">
<path d="M52.0836 15.3442C51.8046 11.0204 52.5418 2.72486 47.0491 1.54263C44.233 0.938226 40.932 1.33674 38.0628 1.28361C34.5293 1.21719 30.9959 1.15075 27.4625 1.0777L6.25533 0.672557C5.1063 0.652631 4.24286 1.07107 3.65174 1.71532C1.76548 1.64226 -0.114135 2.80456 0.00541647 5.2288C0.523475 15.9486 1.12786 26.6685 1.83853 37.375C1.96473 39.2413 3.41263 41.1674 5.49151 41.028C12.7576 40.5431 20.0237 40.1313 27.3031 39.7992C34.0578 39.4871 41.0516 38.7365 47.7797 39.6066C49.8984 39.8789 51.2201 37.6938 51.4327 35.9536C52.2695 29.1126 52.5286 22.2251 52.0836 15.3442Z" fill="#00A99D"/>
<path d="M2.05785 14.9391C3.20688 15.4904 4.40239 15.6298 5.66433 15.7095C6.9329 15.7892 8.20812 15.8557 9.4767 15.9221C12.067 16.0615 14.6639 16.1877 17.2542 16.3007C22.4879 16.5265 27.7283 16.6992 32.9687 16.8121C33.4469 16.8253 33.7723 16.5929 33.9516 16.2807C34.297 16.108 34.556 15.776 34.5693 15.2845C34.5959 14.3878 34.6291 13.4912 34.6557 12.5946C34.6756 11.9304 34.0977 11.4455 33.4734 11.4123C27.7017 11.1134 21.9234 11.0072 16.145 10.974C13.3024 10.9607 10.4663 10.9607 7.62366 10.9673C5.41195 10.974 1.43353 10.6618 1.46009 13.9229C1.47338 14.3081 1.68591 14.7598 2.05785 14.9391Z" fill="#1E1E1E"/>
<path d="M49.1537 38.75C37.8693 38.212 26.5783 37.8069 15.2807 37.5412C12.0328 37.4681 8.77837 37.4017 5.5239 37.3486C3.81697 37.322 3.81033 39.9787 5.5239 40.0053C16.8216 40.1913 28.1192 40.5101 39.4036 40.975C42.6514 41.1078 45.8992 41.2539 49.1471 41.4067C50.8606 41.493 50.854 38.8363 49.1537 38.75Z" fill="#1E1E1E"/>
<path d="M25.4694 32.0947C18.821 32.2143 12.1659 32.1744 5.51751 31.9752C3.81057 31.922 3.81057 34.5787 5.51751 34.6319C12.1659 34.8311 18.8143 34.871 25.4694 34.7514C27.1763 34.7248 27.183 32.0681 25.4694 32.0947Z" fill="#1E1E1E"/>
<path d="M42.9309 33.0644C39.5237 32.8918 36.1164 32.7124 32.7092 32.5398C31.9919 32.4999 31.3809 33.1774 31.3809 33.8681C31.3809 34.6186 31.9919 35.1566 32.7092 35.1965C36.1164 35.3692 39.5237 35.5485 42.9309 35.7212C43.6482 35.761 44.2593 35.0835 44.2593 34.3928C44.2593 33.6423 43.6482 33.1043 42.9309 33.0644Z" fill="#1E1E1E"/>
<path d="M11.2632 26.8809C8.94517 26.6219 6.61393 26.5422 4.28266 26.6419C3.59192 26.6751 2.9211 27.233 2.95431 27.9702C2.98752 28.661 3.53878 29.3318 4.28266 29.2986C6.61393 29.1989 8.94517 29.2786 11.2632 29.5377C11.9539 29.6174 12.6181 28.8735 12.5915 28.2093C12.5517 27.4256 12.0004 26.9673 11.2632 26.8809Z" fill="#1E1E1E"/>
<path d="M40.9918 27.7178C33.3006 28.0964 25.6626 26.3098 17.9714 27.0005C17.2541 27.0669 16.6431 27.5651 16.6431 28.3289C16.6431 28.9997 17.2541 29.7236 17.9714 29.6572C25.6626 28.9665 33.3006 30.7531 40.9918 30.3745C42.6921 30.2882 42.7054 27.6315 40.9918 27.7178Z" fill="#1E1E1E"/>
</svg>
