<svg width="106" height="24" viewBox="0 0 106 24" fill="none" xmlns="http://www.w3.org/2000/svg">
<path d="M19.5006 7.21395C18.0659 4.61701 14.9509 2.60455 11.8492 2.07985C9.67737 1.71456 7.60514 1.77433 5.64581 2.82373C3.97873 3.72037 2.38471 5.48044 1.94635 7.24715C1.86665 7.5726 1.80687 7.90469 1.76702 8.23678C1.20911 8.92752 0.75083 9.7179 0.432025 10.6079C-1.17528 15.1243 1.86001 20.0392 6.92104 21.0488C10.9127 21.8458 14.9044 21.0488 17.88 18.3854C21.1809 15.4232 21.513 10.8603 19.5006 7.21395Z" fill="#00A99D"/>
<path d="M99.5201 4.3645C76.1079 1.87384 52.4964 2.81033 29.4228 7.53263C25.2651 8.38277 21.8711 11.4646 22.2697 16.0474C22.6017 19.9063 26.6001 24.0574 30.7844 23.2006C52.4432 18.7639 74.6732 17.4953 96.6708 19.8332C100.888 20.2848 105.026 17.927 105.83 13.5235C106.554 9.58494 103.764 4.81614 99.5201 4.3645Z" fill="#FBB03B"/>
<path d="M13.4431 3.38825C16.0998 5.20145 16.764 8.52234 16.764 11.8432C16.764 13.1716 16.0998 15.1641 14.7715 15.8283C12.1148 17.1566 8.12969 18.485 6.13716 15.1641C4.14463 11.8432 4.14463 7.19399 8.79387 6.52981C10.7864 6.52981 13.4431 11.8432 9.45805 12.5074C10.1222 11.179 8.79387 9.85069 8.12969 9.85069C6.13716 9.85069 6.13716 11.8432 6.80134 13.1716C8.79387 16.4925 14.1073 15.1641 14.7715 11.8432C14.7715 9.18652 13.4431 6.52981 11.4506 4.53728C9.45805 2.54474 6.80134 3.8731 4.80881 5.20145C0.823743 9.18652 1.48792 16.4925 6.13716 19.1492C8.79387 19.8134 12.7789 20.4775 15.4356 18.485C21.4132 14.4999 20.7491 5.20145 14.725 1.09019C13.1509 0.206839 11.8557 2.50489 13.4431 3.38825Z" fill="#1E1E1E"/>
<path d="M29.8547 11.9561C29.795 12.1952 29.7352 12.5473 29.6821 13.0055C29.6289 13.4638 29.5824 13.9487 29.5492 14.4534C29.5094 14.9582 29.4828 15.4431 29.4562 15.9146C29.4363 16.3796 29.423 16.7449 29.423 16.9972C29.423 17.4356 29.1839 17.6548 28.6991 17.6548C28.533 17.6548 28.3803 17.6083 28.2341 17.522C28.088 17.429 28.0216 17.2563 28.0216 17.0039C28.0216 16.3729 28.0415 15.6822 28.088 14.9449C28.1345 14.2077 28.1943 13.4439 28.2674 12.6602C27.7427 11.6971 27.2445 10.7473 26.7862 9.81085C26.328 8.87436 25.9361 8.01757 25.6239 7.23384C25.5642 7.10101 25.511 6.95489 25.4778 6.79548C25.438 6.63608 25.4247 6.48997 25.4313 6.35713C25.438 6.22429 25.4712 6.10474 25.5309 6.00512C25.5907 5.90549 25.697 5.84571 25.8498 5.81251C26.0158 5.79922 26.1752 5.80586 26.3346 5.84571C26.494 5.88556 26.6335 5.98519 26.753 6.15124C26.8726 6.47004 27.0253 6.8287 27.2047 7.23384C27.384 7.63899 27.5766 8.05743 27.7692 8.47586C27.9618 8.90093 28.1611 9.29944 28.3537 9.68466C28.5463 10.0699 28.7256 10.3953 28.8718 10.6676C29.5492 9.76436 30.1935 8.83451 30.8045 7.88473C31.4156 6.93496 31.9801 6.03168 32.5114 5.1749C32.7041 4.87602 32.91 4.70997 33.1225 4.67676C33.335 4.6502 33.5077 4.69005 33.6406 4.81624C33.7601 4.90922 33.8332 5.05534 33.8531 5.26788C33.873 5.48042 33.8464 5.66639 33.7734 5.83243C33.5144 6.28407 33.2221 6.77556 32.8834 7.31355C32.5447 7.85153 32.1993 8.38951 31.8406 8.9275C31.4886 9.47212 31.1366 10.0035 30.7912 10.5348C30.4591 11.0595 30.1403 11.5377 29.8547 11.9561Z" fill="#1E1E1E" stroke="#1E1E1E" stroke-miterlimit="10"/>
<path d="M40.5675 9.10671C41.0191 9.27276 41.3977 9.5185 41.7099 9.85059C42.022 10.1827 42.2545 10.5546 42.4205 10.9664C42.5866 11.3782 42.6796 11.8033 42.7061 12.2416C42.7327 12.68 42.6796 13.0851 42.56 13.4637C42.394 13.8888 42.1814 14.3006 41.9291 14.7057C41.67 15.1109 41.3778 15.4762 41.0457 15.7883C40.7136 16.1005 40.335 16.3595 39.9166 16.5588C39.4915 16.7514 39.0266 16.851 38.5152 16.851C37.8975 16.851 37.3794 16.7049 36.9544 16.4193C36.5293 16.1337 36.2038 15.7618 35.9581 15.3101C35.719 14.8585 35.5596 14.3471 35.4932 13.7759C35.4268 13.2047 35.44 12.6335 35.5264 12.0557C35.5862 11.6372 35.6858 11.2254 35.8319 10.8269C35.978 10.4284 36.1574 10.0764 36.3832 9.76425C36.609 9.45208 36.868 9.20634 37.1603 9.00708C37.4525 8.81447 37.7912 8.71484 38.1632 8.71484C38.3757 8.71484 38.6347 8.7547 38.9535 8.84104C39.2723 8.92738 39.5646 9.04029 39.8369 9.19305C40.0428 9.02037 40.2819 8.98716 40.5675 9.10671ZM39.7107 10.7605C39.5447 10.6542 39.352 10.5148 39.1329 10.3421C38.9137 10.1694 38.7211 10.0831 38.555 10.0831C38.3757 10.0831 38.1964 10.1694 38.0237 10.3354C37.851 10.5015 37.6982 10.6941 37.5721 10.9133C37.4459 11.1325 37.3329 11.3516 37.2466 11.5775C37.1536 11.8033 37.0938 11.9826 37.0673 12.1221C37.0208 12.3479 36.9942 12.6202 36.9743 12.9324C36.961 13.2512 36.9809 13.5633 37.0407 13.8689C37.1005 14.181 37.22 14.4533 37.3927 14.7057C37.5654 14.9515 37.8244 15.1308 38.1698 15.2371C38.3823 15.2968 38.6281 15.2902 38.9137 15.2238C39.1993 15.1574 39.4849 15.0312 39.7638 14.8518C40.0428 14.6725 40.3085 14.4334 40.5542 14.1279C40.7999 13.829 40.9926 13.477 41.132 13.0851C41.2848 12.6468 41.2848 12.1951 41.1453 11.7169C40.9992 11.2454 40.7136 10.9 40.2752 10.6875C40.169 10.7605 40.0627 10.8004 39.9564 10.8004C39.8502 10.807 39.7705 10.7871 39.7107 10.7605Z" fill="#1E1E1E" stroke="#1E1E1E" stroke-miterlimit="10"/>
<path d="M46.446 10.309C46.353 10.7141 46.2667 11.1658 46.1737 11.6506C46.0807 12.1355 46.0209 12.6137 45.9811 13.0653C45.9412 13.517 45.9412 13.9221 45.9811 14.2874C46.0209 14.6461 46.1139 14.9051 46.2667 15.0578C46.5257 15.1043 46.8179 14.9914 47.15 14.7324C47.4821 14.4667 47.8076 14.1346 48.1197 13.7295C48.4385 13.3243 48.7241 12.8793 48.9765 12.4078C49.2289 11.9362 49.4149 11.5178 49.5211 11.1525C49.5809 10.9732 49.634 10.7805 49.6805 10.5879C49.727 10.3953 49.747 10.1894 49.747 9.97689C49.747 9.85734 49.8267 9.73779 49.9861 9.62488C50.1455 9.51197 50.2783 9.44555 50.3846 9.43227C50.4576 9.41898 50.544 9.43226 50.6436 9.47876C50.7432 9.52525 50.8296 9.59167 50.9159 9.67137C50.9956 9.75771 51.0753 9.8507 51.1417 9.96361C51.2081 10.0765 51.2414 10.1961 51.2414 10.3156C51.2746 10.7673 51.3144 11.2654 51.3742 11.81C51.434 12.3546 51.507 12.8926 51.5867 13.4373C51.6664 13.9819 51.7594 14.5066 51.8458 15.018C51.9387 15.5294 52.0251 15.9877 52.1181 16.3995C52.1646 16.5655 52.1181 16.7515 51.9852 16.964C51.8524 17.1766 51.6996 17.3028 51.5336 17.3493C51.4008 17.3825 51.2613 17.3625 51.1152 17.3028C50.969 17.243 50.8628 17.1234 50.7897 16.9441C50.7167 16.7316 50.6436 16.4725 50.5772 16.167C50.5108 15.8615 50.451 15.5361 50.3979 15.1973C50.3447 14.8586 50.2982 14.5331 50.2517 14.2276C50.2052 13.9221 50.1787 13.6564 50.1587 13.4505C49.9329 13.8557 49.6673 14.2675 49.3551 14.6793C49.0429 15.0911 48.7175 15.4696 48.3588 15.8084C48.0068 16.1471 47.6349 16.4128 47.2496 16.5987C46.8644 16.7847 46.4726 16.8578 46.0608 16.8113C45.4564 16.7382 44.9981 16.1737 44.6793 15.1176C44.5597 14.6992 44.5 14.2276 44.5066 13.7162C44.5132 13.2048 44.5531 12.6934 44.6195 12.1886C44.6859 11.6838 44.7723 11.2056 44.8653 10.754C44.9649 10.3023 45.0512 9.9304 45.1243 9.6448C45.1575 9.52525 45.2173 9.41234 45.3036 9.31936C45.3966 9.21973 45.4962 9.18652 45.6224 9.21973C45.8482 9.26622 46.0541 9.39906 46.2467 9.62488C46.4394 9.83077 46.5058 10.0632 46.446 10.309Z" fill="#1E1E1E" stroke="#1E1E1E" stroke-miterlimit="10"/>
<path d="M60.5265 9.19973C60.2542 9.35249 59.9752 9.5119 59.6763 9.6713C59.3841 9.83734 59.0919 10.03 58.793 10.2491C58.4941 10.4683 58.2218 10.7207 57.9561 11.0196C57.6905 11.3185 57.458 11.6638 57.2455 12.069C56.9466 12.6402 56.7407 13.2246 56.6344 13.8224C56.5281 14.4202 56.4617 15.0046 56.4285 15.5758C56.4285 15.8481 56.3621 16.1205 56.2359 16.3994C56.1097 16.6784 55.9304 16.8178 55.7046 16.8178C55.419 16.8178 55.1865 16.6717 55.0138 16.3795C54.8411 16.0873 54.7216 15.8017 54.6618 15.5293C54.4028 14.46 54.1969 13.3973 54.0308 12.3546C53.8648 11.3052 53.7187 10.2624 53.5991 9.2263C53.5991 9.01377 53.6655 8.88093 53.7917 8.82115C53.9179 8.76138 54.0641 8.73481 54.2301 8.75474C54.4094 8.76802 54.5821 8.81451 54.7482 8.88757C54.9142 8.96063 55.0138 9.08018 55.0404 9.24623C55.1002 9.80414 55.1732 10.3886 55.2662 10.9997C55.3592 11.6107 55.4455 12.1354 55.5385 12.5671C55.5983 12.0557 55.7643 11.5576 56.0367 11.0727C56.309 10.5879 56.6411 10.1561 57.0396 9.76428C57.4381 9.37242 57.8897 9.04033 58.3945 8.76802C58.8993 8.49571 59.4173 8.31638 59.942 8.22339C60.1678 8.19018 60.3538 8.19018 60.5066 8.22339C60.6593 8.24996 60.7656 8.30973 60.8254 8.38279C60.8851 8.45585 60.8984 8.57541 60.8586 8.74145C60.8387 8.91414 60.7191 9.0669 60.5265 9.19973Z" fill="#1E1E1E" stroke="#1E1E1E" stroke-miterlimit="10"/>
<path d="M70.3563 7.91135C70.2833 8.43605 70.2102 9.02052 70.1504 9.66477C70.0906 10.3024 70.0309 10.9533 69.9711 11.6108C69.9113 12.2683 69.8515 12.906 69.7984 13.5236C69.7453 14.1413 69.7054 14.686 69.6722 15.1509C70.1836 15.0579 70.7548 14.9583 71.3791 14.8321C72.0035 14.7125 72.6411 14.5863 73.292 14.4601C73.9429 14.3339 74.5738 14.221 75.2048 14.1214C75.8291 14.0218 76.4003 13.9487 76.9117 13.9089C76.9582 13.9089 77.0114 13.9221 77.0711 13.9554C77.1907 14.0151 77.2505 14.1148 77.2505 14.2476C77.2505 14.4402 77.2106 14.593 77.1376 14.686C77.0645 14.7856 76.9715 14.8586 76.8652 14.9118C76.759 14.9649 76.6527 15.0114 76.5398 15.0579C76.4269 15.1044 76.3273 15.1708 76.2343 15.2638C75.7694 15.3833 75.2513 15.5162 74.7 15.649C74.1488 15.7818 73.5709 15.9213 72.9798 16.0542C72.3953 16.187 71.8042 16.3265 71.2197 16.4593C70.6353 16.5921 70.084 16.7316 69.5726 16.8645C69.1077 16.984 68.749 16.9043 68.5099 16.6121C68.2708 16.3265 68.1712 15.8615 68.2177 15.2107C68.2907 13.9886 68.3837 12.7665 68.49 11.5378C68.5962 10.309 68.7224 9.08694 68.8752 7.86485C68.9018 7.60582 68.9947 7.39993 69.1342 7.23389C69.2803 7.06784 69.453 6.96821 69.6656 6.94165C70.0109 6.89516 70.2168 6.9815 70.2899 7.20068C70.3497 7.41985 70.3696 7.65232 70.3563 7.91135Z" fill="#1E1E1E" stroke="#1E1E1E" stroke-miterlimit="10"/>
<path d="M83.3082 9.10671C83.7599 9.27276 84.1384 9.5185 84.4506 9.85059C84.7628 10.1827 84.9952 10.5546 85.1613 10.9664C85.3273 11.3782 85.4203 11.8033 85.4469 12.2416C85.4734 12.68 85.4203 13.0851 85.3007 13.4637C85.1347 13.8888 84.9222 14.3006 84.6698 14.7057C84.4107 15.1109 84.1185 15.4762 83.7864 15.7883C83.4543 16.1005 83.0757 16.3595 82.6573 16.5588C82.2322 16.7514 81.7673 16.851 81.2559 16.851C80.6382 16.851 80.1202 16.7049 79.6951 16.4193C79.27 16.1337 78.9446 15.7618 78.6988 15.3101C78.4597 14.8585 78.3003 14.3471 78.2339 13.7759C78.1675 13.2047 78.1808 12.6335 78.2671 12.0557C78.3269 11.6372 78.4265 11.2254 78.5726 10.8269C78.7187 10.4284 78.8981 10.0764 79.1239 9.76425C79.3497 9.45208 79.6087 9.20634 79.901 9.00708C80.1932 8.81447 80.5319 8.71484 80.9039 8.71484C81.1164 8.71484 81.3755 8.7547 81.6943 8.84104C82.0131 8.92738 82.3053 9.04029 82.5776 9.19305C82.7835 9.02037 83.0226 8.98716 83.3082 9.10671ZM82.4514 10.7605C82.2854 10.6542 82.0928 10.5148 81.8736 10.3421C81.6544 10.1694 81.4618 10.0831 81.2958 10.0831C81.1164 10.0831 80.9371 10.1694 80.7644 10.3354C80.5917 10.5015 80.439 10.6941 80.3128 10.9133C80.1866 11.1325 80.0737 11.3516 79.9873 11.5775C79.8943 11.8033 79.8346 11.9826 79.808 12.1221C79.7615 12.3479 79.7349 12.6202 79.715 12.9324C79.7017 13.2512 79.7217 13.5633 79.7814 13.8689C79.8412 14.181 79.9608 14.4533 80.1334 14.7057C80.3061 14.9515 80.5652 15.1308 80.9105 15.2371C81.1231 15.2968 81.3688 15.2902 81.6544 15.2238C81.94 15.1574 82.2256 15.0312 82.5046 14.8518C82.7835 14.6725 83.0492 14.4334 83.2949 14.1279C83.5407 13.829 83.7333 13.477 83.8728 13.0851C84.0255 12.6468 84.0255 12.1951 83.886 11.7169C83.7399 11.2454 83.4543 10.9 83.016 10.6875C82.9097 10.7605 82.8034 10.8004 82.6972 10.8004C82.5909 10.807 82.5112 10.7871 82.4514 10.7605Z" fill="#1E1E1E" stroke="#1E1E1E" stroke-miterlimit="10"/>
<path d="M91.3578 10.7605C91.4773 10.9265 91.5969 11.1324 91.7098 11.3848C91.8227 11.6306 91.909 11.8829 91.9688 12.142C92.0618 12.5471 92.1614 12.9921 92.2743 13.4637C92.3872 13.9352 92.5002 14.4334 92.6131 14.9448C92.726 15.4562 92.8322 15.9743 92.9319 16.5056C93.0315 17.0303 93.1178 17.5351 93.1909 18.0199C93.2839 18.6841 93.2307 19.3217 93.0448 19.9328C92.8588 20.5438 92.5466 21.0884 92.1083 21.5733C91.6699 22.0581 91.1253 22.4367 90.481 22.729C89.8302 23.0146 89.0996 23.1739 88.2893 23.2005C88.1099 23.1872 87.9173 23.1009 87.7247 22.9415C87.5321 22.7821 87.4325 22.6227 87.4325 22.4566C87.4192 22.2906 87.4989 22.1578 87.6716 22.0581C87.8443 21.9585 88.0236 21.8987 88.2029 21.8655C88.5217 21.8323 88.8472 21.7725 89.1859 21.6729C89.5246 21.5733 89.8434 21.4338 90.149 21.2545C90.4478 21.0752 90.7268 20.856 90.9725 20.5969C91.2183 20.3379 91.4109 20.039 91.5504 19.6937C91.6566 19.4213 91.7098 19.0893 91.7098 18.6908C91.7098 18.2923 91.6832 17.8937 91.6301 17.5019C91.5769 17.11 91.5105 16.7381 91.4242 16.3861C91.3378 16.034 91.2714 15.7617 91.2116 15.5824C91.1054 15.6887 90.9725 15.8016 90.8131 15.9211C90.6537 16.0407 90.4744 16.1536 90.2818 16.2599C90.0825 16.3661 89.87 16.4458 89.6376 16.5056C89.4051 16.5654 89.166 16.592 88.9269 16.572C88.6678 16.5587 88.4354 16.4658 88.2162 16.2997C87.997 16.1337 87.8044 15.9211 87.6384 15.6555C87.4723 15.3898 87.3395 15.0843 87.2399 14.7389C87.1402 14.3935 87.0938 14.0282 87.0938 13.6563C87.1203 12.753 87.3528 11.9494 87.7845 11.252C88.2162 10.5546 88.9003 10.0033 89.8501 9.61146C89.9231 9.59817 90.0294 9.58489 90.1556 9.56496C90.2818 9.55168 90.4146 9.54504 90.5541 9.55168C90.6869 9.55832 90.8198 9.57825 90.9526 9.60481C91.0788 9.63802 91.1917 9.67787 91.2781 9.73765C91.4441 9.8572 91.5238 10.0299 91.5238 10.2557C91.5172 10.4882 91.464 10.6542 91.3578 10.7605ZM88.5085 13.8555C88.5085 14.0216 88.5217 14.2076 88.5549 14.4068C88.5881 14.6127 88.6811 14.7588 88.8472 14.8452C89.0265 14.9514 89.2523 14.9647 89.5114 14.8917C89.777 14.8186 90.0228 14.6858 90.2486 14.5064C90.4611 14.3404 90.6006 14.1544 90.667 13.9552C90.7334 13.7493 90.7334 13.477 90.6537 13.1316C90.5807 12.7862 90.4943 12.4209 90.408 12.049C90.315 11.6704 90.2552 11.3317 90.2287 11.0328C90.0493 11.1258 89.8567 11.252 89.6508 11.418C89.4449 11.5841 89.2656 11.79 89.0996 12.0423C88.9335 12.2881 88.794 12.567 88.6811 12.8659C88.5616 13.1648 88.5085 13.4969 88.5085 13.8555Z" fill="#1E1E1E" stroke="#1E1E1E" stroke-miterlimit="10"/>
<path d="M100.105 9.10671C100.556 9.27276 100.935 9.5185 101.247 9.85059C101.559 10.1827 101.792 10.5546 101.958 10.9664C102.124 11.3782 102.217 11.8033 102.243 12.2416C102.27 12.68 102.217 13.0851 102.097 13.4637C101.931 13.8888 101.719 14.3006 101.466 14.7057C101.207 15.1109 100.915 15.4762 100.583 15.7883C100.251 16.1005 99.8721 16.3595 99.4537 16.5588C99.0286 16.7514 98.5637 16.851 98.0523 16.851C97.4346 16.851 96.9165 16.7049 96.4915 16.4193C96.0664 16.1337 95.741 15.7618 95.4952 15.3101C95.2561 14.8585 95.0967 14.3471 95.0303 13.7759C94.9639 13.2047 94.9772 12.6335 95.0635 12.0557C95.1233 11.6372 95.2229 11.2254 95.369 10.8269C95.5151 10.4284 95.6945 10.0764 95.9203 9.76425C96.1461 9.45208 96.4051 9.20634 96.6974 9.00708C96.9896 8.81447 97.3283 8.71484 97.7003 8.71484C97.9128 8.71484 98.1718 8.7547 98.4907 8.84104C98.8095 8.92738 99.1017 9.04029 99.374 9.19305C99.5733 9.02037 99.819 8.98716 100.105 9.10671ZM99.2412 10.7605C99.0751 10.6542 98.8825 10.5148 98.6633 10.3421C98.4442 10.1694 98.2515 10.0831 98.0855 10.0831C97.9062 10.0831 97.7268 10.1694 97.5542 10.3354C97.3815 10.5015 97.2287 10.6941 97.1025 10.9133C96.9763 11.1325 96.8634 11.3516 96.7771 11.5775C96.6841 11.8033 96.6243 11.9826 96.5977 12.1221C96.5513 12.3479 96.5247 12.6202 96.5048 12.9324C96.4915 13.2512 96.5114 13.5633 96.5712 13.8689C96.631 14.181 96.7505 14.4533 96.9232 14.7057C97.0959 14.9515 97.3549 15.1308 97.7003 15.2371C97.9128 15.2968 98.1586 15.2902 98.4442 15.2238C98.7298 15.1574 99.0153 15.0312 99.2943 14.8518C99.5733 14.6725 99.8389 14.4334 100.085 14.1279C100.33 13.829 100.523 13.477 100.663 13.0851C100.815 12.6468 100.815 12.1951 100.676 11.7169C100.53 11.2454 100.244 10.9 99.8057 10.6875C99.6995 10.7605 99.5932 10.8004 99.4869 10.8004C99.3873 10.807 99.3009 10.7871 99.2412 10.7605Z" fill="#1E1E1E" stroke="#1E1E1E" stroke-miterlimit="10"/>
</svg>
