<svg width="53" height="42" viewBox="0 0 53 42" fill="none" xmlns="http://www.w3.org/2000/svg">
<path d="M52.6141 26.4521C52.7203 19.186 52.1226 11.8999 51.7374 4.64711C51.6377 2.74093 50.1433 0.901156 48.0844 0.99414C34.0902 1.61183 20.0827 1.88414 6.09508 1.05391C3.99628 -0.380709 0.250348 0.575704 0.18393 3.93644C-0.0485322 14.8821 -0.0618076 25.8277 0.150729 36.7734C0.203863 39.3637 2.43547 40.6455 4.77338 40.2935C11.7871 39.2375 18.8872 38.7925 25.9739 38.9253C29.5738 38.9917 33.1736 39.2109 36.7602 39.5828C40.1209 39.9282 43.7473 41.0839 47.108 41.0507C53.4775 40.9909 52.5477 30.7426 52.6141 26.4521Z" fill="#00A99D"/>
<path d="M34.6284 5.24484C33.4793 4.69358 32.2838 4.55412 31.0219 4.47442C29.7533 4.39472 28.4781 4.32829 27.2095 4.26187C24.6192 4.1224 22.0223 3.9962 19.432 3.88329C14.1983 3.65747 8.95792 3.48479 3.71757 3.37188C3.23936 3.3586 2.91388 3.59105 2.73456 3.90321C2.38918 4.0759 2.13016 4.40799 2.11688 4.89948C2.09031 5.79612 2.0571 6.69275 2.03053 7.58939C2.0106 8.25357 2.58846 8.73841 3.21278 8.77162C8.98448 9.0705 14.7628 9.17677 20.5411 9.20998C23.3838 9.22327 26.2199 9.22327 29.0625 9.21663C31.2743 9.20999 35.2527 9.52214 35.2261 6.26103C35.2128 5.86917 35.0003 5.41753 34.6284 5.24484Z" fill="#1E1E1E"/>
<path d="M38.1546 21.1719C26.7041 20.189 15.1939 20.1358 3.73689 21.0125C2.04324 21.1387 2.02996 23.8021 3.73689 23.6693C15.1939 22.7925 26.7041 22.8457 38.1546 23.8286C39.8549 23.9748 39.8482 21.3114 38.1546 21.1719Z" fill="#1E1E1E"/>
<path d="M28.6102 26.4456C20.3811 26.1003 12.1453 26.1534 3.92278 26.6117C2.22249 26.7047 2.20921 29.3614 3.92278 29.2684C12.1453 28.8101 20.3811 28.757 28.6102 29.1023C30.3172 29.1754 30.3172 26.5187 28.6102 26.4456Z" fill="#1E1E1E"/>
<path d="M13.9917 32.2836C13.746 31.5265 13.0951 31.2475 12.3579 31.3538C9.70119 31.739 6.85185 31.832 4.11544 31.6726C3.41805 31.6327 2.75387 32.3102 2.78708 33.0009C2.82029 33.7581 3.37156 34.2828 4.11544 34.3293C7.11088 34.502 10.0997 34.3426 13.0685 33.9175C13.7526 33.8179 14.191 32.908 13.9917 32.2836Z" fill="#1E1E1E"/>
<path d="M45.8125 31.1411H18.8867C17.1798 31.1411 17.1731 33.7978 18.8867 33.7978H45.8125C47.526 33.7978 47.526 31.1411 45.8125 31.1411Z" fill="#1E1E1E"/>
<path d="M26.4981 36.2286C19.2055 36.2153 11.9128 36.2883 4.62014 36.4411C2.9132 36.4743 3.01946 39.131 4.73304 39.0978C12.0257 38.9451 19.3184 38.872 26.611 38.8853C28.318 38.8919 28.2051 36.2352 26.4981 36.2286Z" fill="#1E1E1E"/>
</svg>
