<svg width="121" height="19" viewBox="0 0 121 19" fill="none" xmlns="http://www.w3.org/2000/svg">
<path d="M117.977 0.112684C98.8289 1.48089 79.6541 2.36424 60.4661 2.74282C41.4972 3.11476 22.1629 4.22394 3.25382 0.876486C-0.120198 0.278727 -1.40206 7.73744 2.00517 8.34184C4.05747 8.70714 6.11643 9.01266 8.17538 9.27833C7.68389 9.71005 7.33851 10.3477 7.1459 11.0849C6.40202 11.1181 5.65814 11.1447 4.9209 11.1845C1.49375 11.3439 1.6598 19.0484 5.10023 18.889C42.2809 17.1621 79.4881 16.3717 116.709 16.5179C120.142 16.5311 119.97 8.82669 116.529 8.8134C115.32 8.80676 114.112 8.8134 112.903 8.8134C112.883 8.60087 112.856 8.39497 112.816 8.18908C114.596 8.06953 116.376 7.94997 118.156 7.82378C121.577 7.57804 121.418 -0.133061 117.977 0.112684Z" fill="#00A99D"/>
<path d="M12.8181 6.57546C12.8513 7.22636 12.8846 7.88389 12.9178 8.54807C12.9576 9.21224 12.9576 9.86314 12.9311 10.5074C12.9045 11.1516 12.8314 11.7826 12.7252 12.3937C12.6189 13.0047 12.4396 13.5958 12.2005 14.1537C11.9547 14.7116 11.6293 15.2297 11.2241 15.7079C10.819 16.1861 10.3076 16.6178 9.68987 16.9964C9.59025 17.0562 9.49062 17.0894 9.37107 17.1027C9.25152 17.116 9.14525 17.1093 9.03898 17.0894C8.93271 17.0695 8.83308 17.0429 8.75338 16.9964C8.66704 16.9499 8.61391 16.8968 8.59398 16.8237C8.56077 16.7174 8.5807 16.5913 8.65376 16.4651C8.72682 16.3322 8.84637 16.1927 9.01906 16.0533C9.5504 15.6614 10.002 15.243 10.3673 14.798C10.7326 14.353 11.0249 13.8748 11.244 13.3567C11.4632 12.8387 11.6093 12.2807 11.6824 11.6697C11.7555 11.0653 11.7555 10.3945 11.689 9.67053C11.5429 9.84986 11.3702 10.0358 11.1776 10.2284C10.985 10.421 10.7791 10.5871 10.5599 10.7399C10.3408 10.886 10.1149 11.0122 9.88913 11.1118C9.65667 11.2114 9.44412 11.2646 9.23823 11.2579C9.07218 11.2579 8.8995 11.2181 8.73346 11.145C8.56741 11.0719 8.39473 10.9325 8.22868 10.7266C8.03607 10.4742 7.87003 10.1886 7.71726 9.86314C7.57115 9.54433 7.43831 9.23217 7.33868 8.92665C7.23241 8.62777 7.14607 8.35546 7.07965 8.10971C7.01323 7.87061 6.98003 7.69792 6.96674 7.60494C6.94017 7.48538 6.94682 7.37247 6.96674 7.25956C6.99331 7.1533 7.07301 7.08688 7.20585 7.06031C7.38517 7.0271 7.55787 7.04039 7.71063 7.10016C7.86339 7.15994 7.97629 7.25956 8.03607 7.3924C8.08256 7.52523 8.14898 7.73113 8.22868 8.01008C8.30839 8.28904 8.40801 8.56135 8.52756 8.83366C8.64711 9.10598 8.77331 9.34508 8.91279 9.55098C9.05226 9.75687 9.19838 9.8565 9.35115 9.86314C9.53047 9.86314 9.743 9.7768 9.99539 9.59747C10.2478 9.41814 10.4802 9.18568 10.7127 8.90008C10.9452 8.61448 11.1444 8.28904 11.3105 7.93702C11.4765 7.58501 11.5628 7.23964 11.5628 6.90091C11.5628 6.82785 11.5761 6.74815 11.6027 6.64852C11.6293 6.55554 11.6625 6.46255 11.7156 6.36957C11.7621 6.27658 11.8219 6.20352 11.8883 6.1371C11.9547 6.07069 12.0211 6.03084 12.0942 6.02419C12.2868 6.00427 12.4595 6.05076 12.6056 6.1836C12.7451 6.31643 12.8181 6.44263 12.8181 6.57546Z" fill="#1E1E1E" stroke="#1E1E1E" stroke-width="0.7993" stroke-miterlimit="10"/>
<path d="M18.7095 6.01084C19.0682 6.14368 19.3737 6.34957 19.6195 6.61524C19.8652 6.88091 20.0512 7.17979 20.184 7.51188C20.3168 7.84397 20.3833 8.1827 20.4032 8.53471C20.4165 8.88673 20.3766 9.21218 20.277 9.51106C20.1442 9.84979 19.9715 10.1752 19.7656 10.5007C19.5597 10.8261 19.3206 11.1117 19.0549 11.3641C18.7892 11.6165 18.4837 11.8157 18.145 11.9685C17.8063 12.1213 17.4343 12.201 17.0225 12.1943C16.531 12.1877 16.1126 12.0748 15.7805 11.8423C15.4418 11.6099 15.1828 11.3176 14.9901 10.9523C14.7975 10.587 14.678 10.1752 14.6315 9.72359C14.5784 9.26531 14.5916 8.80702 14.6713 8.34874C14.7245 8.01001 14.8042 7.68457 14.9237 7.36576C15.0433 7.04696 15.1894 6.768 15.3754 6.52226C15.5547 6.27651 15.7672 6.07726 16.0063 5.91785C16.2388 5.76509 16.5111 5.68539 16.81 5.69203C16.976 5.69203 17.1886 5.72524 17.441 5.7983C17.6933 5.86472 17.9258 5.96435 18.145 6.0839C18.2911 5.93114 18.4837 5.91122 18.7095 6.01084ZM18.0188 7.31927C17.886 7.23293 17.7332 7.12002 17.5605 6.98054C17.3878 6.84106 17.2351 6.768 17.1022 6.768C16.9561 6.768 16.8166 6.83442 16.6772 6.96061C16.5377 7.09345 16.4181 7.24621 16.3119 7.4189C16.2056 7.59158 16.1192 7.77091 16.0462 7.95024C15.9731 8.12957 15.92 8.27569 15.9001 8.38195C15.8602 8.56128 15.8336 8.78046 15.8204 9.03285C15.8071 9.28523 15.8204 9.53762 15.8669 9.78337C15.9134 10.0291 16.0063 10.2549 16.1392 10.4542C16.2786 10.6534 16.4845 10.7996 16.7569 10.8859C16.9229 10.9324 17.1221 10.9324 17.3546 10.8793C17.5804 10.8261 17.8129 10.7265 18.0321 10.587C18.2579 10.4409 18.4704 10.2549 18.6697 10.0158C18.8689 9.77672 19.0283 9.49777 19.1346 9.1856C19.2608 8.84023 19.2608 8.47494 19.1545 8.09636C19.0416 7.71778 18.8158 7.43882 18.4638 7.26614C18.3774 7.32591 18.2977 7.35248 18.2114 7.35248C18.1251 7.35248 18.0653 7.34584 18.0188 7.31927Z" fill="#1E1E1E" stroke="#1E1E1E" stroke-width="0.7993" stroke-miterlimit="10"/>
<path d="M23.3987 7.00045C23.3257 7.32589 23.246 7.68455 23.1729 8.07641C23.0999 8.46828 23.0401 8.84022 23.0135 9.20552C22.9803 9.56417 22.9803 9.88961 23.0069 10.1819C23.0335 10.4741 23.1065 10.6733 23.2261 10.7995C23.432 10.8394 23.6644 10.753 23.9301 10.5405C24.1958 10.3346 24.4548 10.0689 24.7138 9.7435C24.9662 9.41805 25.1987 9.07268 25.4112 8.6941C25.6171 8.31552 25.7632 7.98343 25.8496 7.69783C25.8961 7.55171 25.9425 7.40559 25.9824 7.24619C26.0222 7.09343 26.0355 6.92739 26.0422 6.76134C26.0422 6.66172 26.1086 6.56873 26.2348 6.48239C26.361 6.39605 26.4672 6.34291 26.5536 6.32963C26.6134 6.31634 26.6798 6.32963 26.7595 6.36948C26.8392 6.40933 26.9122 6.45582 26.9787 6.52224C27.0451 6.58866 27.1049 6.66836 27.158 6.76134C27.2111 6.85433 27.2377 6.94731 27.2377 7.0403C27.2576 7.39895 27.2908 7.79746 27.3373 8.23582C27.3838 8.66753 27.4369 9.10589 27.4967 9.53761C27.5565 9.96932 27.6229 10.3944 27.696 10.8062C27.7624 11.218 27.8354 11.5833 27.9019 11.9087C27.9351 12.0416 27.9019 12.1943 27.789 12.3604C27.676 12.5264 27.5565 12.6327 27.4237 12.6659C27.3174 12.6924 27.2045 12.6725 27.0916 12.626C26.9787 12.5795 26.8923 12.4799 26.8325 12.3338C26.7728 12.1677 26.7196 11.9552 26.6665 11.7095C26.6134 11.4637 26.5669 11.2047 26.527 10.9324C26.4872 10.6601 26.4473 10.401 26.4141 10.1553C26.3809 9.90954 26.3543 9.69701 26.3477 9.53096C26.1617 9.85641 25.9492 10.1819 25.6968 10.5073C25.4444 10.8394 25.1787 11.1383 24.8931 11.4039C24.6075 11.6696 24.3087 11.8822 24.0031 12.0283C23.6976 12.1744 23.3788 12.2342 23.0534 12.1943C22.5685 12.1279 22.2099 11.6763 21.9641 10.8327C21.8711 10.494 21.8246 10.1221 21.8379 9.71029C21.8446 9.2985 21.8778 8.89335 21.9376 8.49484C21.9973 8.09634 22.0638 7.71112 22.1435 7.34582C22.2232 6.98716 22.2962 6.68828 22.356 6.46246C22.3826 6.36948 22.429 6.27649 22.5021 6.20343C22.5752 6.12373 22.6615 6.09717 22.7545 6.12373C22.9338 6.16358 23.0999 6.26985 23.246 6.45582C23.3987 6.62187 23.4519 6.80783 23.3987 7.00045Z" fill="#1E1E1E" stroke="#1E1E1E" stroke-width="0.7993" stroke-miterlimit="10"/>
<path d="M34.6627 6.19681C34.4435 6.31636 34.2177 6.44256 33.9852 6.56875C33.7528 6.70158 33.5136 6.85434 33.2745 7.02703C33.0354 7.19972 32.8163 7.40561 32.6037 7.63807C32.3912 7.87053 32.1986 8.14949 32.0259 8.47494C31.7801 8.93322 31.6141 9.39814 31.5278 9.86971C31.4414 10.3479 31.3816 10.8128 31.3551 11.2711C31.3551 11.4903 31.3019 11.7095 31.1957 11.9287C31.0894 12.1478 30.9499 12.2607 30.7706 12.2607C30.5448 12.2607 30.3588 12.1412 30.2193 11.9021C30.0799 11.663 29.9935 11.4372 29.947 11.2246C29.7478 10.3678 29.5884 9.5177 29.4622 8.68083C29.336 7.84397 29.2297 7.00711 29.1367 6.17688C29.1367 6.01084 29.1899 5.89793 29.2961 5.85144C29.3958 5.80494 29.5153 5.78502 29.6481 5.7983C29.7943 5.81158 29.9337 5.85144 30.0599 5.91121C30.1928 5.97099 30.2725 6.07061 30.2924 6.20345C30.3389 6.64845 30.392 7.11337 30.4651 7.60486C30.5381 8.09635 30.6045 8.51479 30.671 8.86016C30.7241 8.44837 30.8569 8.05651 31.0761 7.67128C31.2953 7.28606 31.5676 6.94069 31.8864 6.62852C32.2052 6.31636 32.5705 6.05733 32.9757 5.8448C33.3808 5.63226 33.7926 5.48614 34.2177 5.41972C34.397 5.39979 34.5498 5.3998 34.6693 5.42636C34.7889 5.45293 34.8752 5.49278 34.9217 5.55256C34.9682 5.61233 34.9748 5.71196 34.9483 5.83815C34.9151 5.97099 34.8221 6.09054 34.6627 6.19681Z" fill="#1E1E1E" stroke="#1E1E1E" stroke-width="0.7993" stroke-miterlimit="10"/>
<path d="M38.8208 3.30105C38.7876 3.08187 38.8009 2.88262 38.8673 2.70329C38.9337 2.52396 39.0732 2.42434 39.2791 2.39777C39.4584 2.37785 39.6178 2.42434 39.7573 2.54389C39.8968 2.66344 39.9831 2.82285 40.0163 3.01546C40.2488 4.40359 40.4613 5.77843 40.6606 7.14664C40.8599 8.51484 41.0392 9.85648 41.1986 11.1716C41.2451 11.5236 41.2185 11.756 41.1189 11.8822C41.0192 12.0084 40.9063 12.1014 40.7735 12.1612C40.6274 12.221 40.4946 12.221 40.3684 12.1612C40.2422 12.1014 40.1625 11.9885 40.1293 11.8357L40.1093 11.7295L40.0363 11.7494C39.6378 11.8889 39.2193 11.9686 38.7876 11.9819C38.3559 11.9951 37.9375 11.942 37.539 11.8158C37.1405 11.6896 36.7884 11.4904 36.4896 11.218C36.1907 10.9457 35.9649 10.6004 35.8387 10.1753C35.5597 9.24544 35.7457 8.40193 36.3966 7.65141C36.6755 7.33925 37.0209 7.0603 37.4327 6.80791C37.8445 6.55552 38.336 6.36291 38.9204 6.22343L39.2459 6.15701L38.8208 3.30105ZM36.9478 9.73693C37.0209 10.0292 37.1471 10.2483 37.3397 10.4077C37.5323 10.5672 37.7581 10.6734 38.0238 10.7266C38.2895 10.7797 38.5684 10.793 38.874 10.7598C39.1728 10.7266 39.4717 10.6601 39.7573 10.5672L39.9234 10.514L39.4385 7.33261L39.0799 7.41895C38.8275 7.49201 38.5551 7.59828 38.2762 7.75104C37.9906 7.89716 37.7382 8.07649 37.5257 8.27574C37.3065 8.48164 37.1405 8.70746 37.0209 8.95984C36.9013 9.21223 36.8814 9.47126 36.9478 9.73693Z" fill="#1E1E1E" stroke="#1E1E1E" stroke-width="0.7993" stroke-miterlimit="10"/>
<path d="M46.3519 6.21679C46.7105 6.34963 47.0161 6.55552 47.2618 6.82119C47.5075 7.08687 47.6935 7.38575 47.8264 7.71784C47.9592 8.04992 48.0256 8.38865 48.0455 8.74067C48.0655 9.09268 48.019 9.41813 47.9193 9.71701C47.7865 10.0557 47.6138 10.3812 47.4079 10.7066C47.202 11.0321 46.9629 11.3177 46.6972 11.5701C46.4316 11.8224 46.1261 12.0217 45.7873 12.1811C45.4486 12.3339 45.0767 12.4136 44.6649 12.4069C44.1734 12.4003 43.7549 12.2874 43.4228 12.0549C43.0841 11.8224 42.8251 11.5236 42.6325 11.1649C42.4399 10.7996 42.3203 10.3945 42.2738 9.93619C42.2207 9.4779 42.234 9.01962 42.3137 8.56134C42.3668 8.22261 42.4465 7.89716 42.5661 7.57836C42.6856 7.25955 42.8317 6.9806 43.0177 6.73485C43.197 6.48911 43.4096 6.28985 43.6487 6.13709C43.8811 5.98433 44.1534 5.90463 44.4523 5.91127C44.6184 5.91127 44.8309 5.94448 45.0833 6.01754C45.3357 6.08396 45.5681 6.18359 45.7873 6.30314C45.9334 6.13709 46.1261 6.11717 46.3519 6.21679ZM45.6545 7.53186C45.5216 7.44552 45.3689 7.33261 45.1962 7.19313C45.0235 7.05366 44.8708 6.9806 44.7379 6.9806C44.5918 6.9806 44.4523 7.04702 44.3129 7.17321C44.1734 7.30605 44.0538 7.45881 43.9476 7.63149C43.8413 7.80418 43.7549 7.98351 43.6819 8.16283C43.6088 8.34216 43.5557 8.48828 43.5358 8.59455C43.4959 8.77387 43.4693 8.99305 43.4561 9.24544C43.4428 9.49783 43.4561 9.75022 43.5026 9.99596C43.549 10.2417 43.642 10.4675 43.7749 10.6668C43.9143 10.866 44.1202 11.0122 44.3926 11.0985C44.5586 11.1516 44.7578 11.145 44.9903 11.0919C45.2161 11.0387 45.4486 10.9391 45.6678 10.7996C45.8936 10.6601 46.1061 10.4675 46.3054 10.2284C46.5046 9.98932 46.664 9.71036 46.7703 9.3982C46.8965 9.05283 46.8965 8.68753 46.7902 8.30231C46.684 7.91709 46.4515 7.64477 46.0995 7.47209C46.0131 7.53186 45.9334 7.55843 45.8471 7.55843C45.7608 7.55843 45.701 7.55179 45.6545 7.53186Z" fill="#1E1E1E" stroke="#1E1E1E" stroke-width="0.7993" stroke-miterlimit="10"/>
<path d="M50.5761 6.71504C50.5894 6.90765 50.6027 7.14676 50.6359 7.42571C50.6625 7.71131 50.6957 8.00355 50.7289 8.30907C50.7621 8.61459 50.8019 8.92011 50.8418 9.22563C50.8816 9.52451 50.9215 9.80347 50.9547 10.0559C51.0875 9.79019 51.2536 9.47138 51.4528 9.08616C51.6455 8.70094 51.8513 8.33564 52.0639 7.97698C52.2764 7.62497 52.4956 7.32609 52.7214 7.08034C52.9472 6.83459 53.1465 6.71504 53.3325 6.71504C53.5251 6.71504 53.7044 6.80803 53.8638 7.00064C54.0232 7.18661 54.1627 7.41243 54.2822 7.6781C54.4018 7.94377 54.5014 8.22937 54.5944 8.52825C54.6807 8.82713 54.7538 9.0928 54.8136 9.32526C54.8601 9.16586 54.9265 8.99317 55.0062 8.79392C55.0859 8.59467 55.1722 8.38877 55.2652 8.18287C55.3582 7.97034 55.4578 7.76444 55.5774 7.56519C55.6903 7.3593 55.8165 7.17997 55.9493 7.02721C56.1087 6.86116 56.2748 6.73497 56.4607 6.66191C56.6401 6.58221 56.7729 6.549 56.8592 6.549C56.9655 6.549 57.0983 6.58221 57.2445 6.64863C57.3972 6.71504 57.55 6.80139 57.7028 6.9143C57.8555 7.02721 58.0016 7.1534 58.1411 7.30616C58.2806 7.45892 58.3869 7.61168 58.4732 7.77108C58.6392 8.09653 58.7721 8.45519 58.8717 8.84041C58.9713 9.22563 59.0444 9.59757 59.0909 9.94295C59.1374 10.295 59.1706 10.6005 59.1839 10.8728C59.1971 11.1451 59.2104 11.3311 59.2237 11.444C59.2237 11.6034 59.2038 11.7163 59.1639 11.796C59.1241 11.8757 59.0577 11.9355 58.9647 11.982C58.8318 12.0417 58.7189 12.0617 58.6193 12.0417C58.5263 12.0218 58.4466 11.982 58.3869 11.9222C58.3271 11.8624 58.2806 11.7894 58.2407 11.7163C58.2075 11.6366 58.1809 11.5702 58.1677 11.5104C58.1345 11.2314 58.0946 10.9525 58.0548 10.6603C58.0149 10.368 57.9751 10.0891 57.9286 9.81675C57.8821 9.54444 57.8289 9.29205 57.7625 9.05959C57.6961 8.82713 57.6297 8.61459 57.5566 8.43526C57.5301 8.38877 57.4968 8.32235 57.4437 8.24265C57.3906 8.16295 57.3308 8.08989 57.2644 8.01683C57.198 7.94377 57.1382 7.884 57.0784 7.8375C57.0186 7.79101 56.9788 7.7578 56.9522 7.74452C56.8327 7.74452 56.7065 7.85743 56.5736 8.07661C56.4408 8.29578 56.308 8.5681 56.1884 8.88026C56.0622 9.19242 55.9493 9.51787 55.8497 9.86324C55.7434 10.2086 55.6704 10.5009 55.6172 10.74C55.6172 11.0521 55.5508 11.2846 55.4313 11.4373C55.3117 11.5901 55.1855 11.6632 55.0527 11.6565C54.9198 11.6565 54.7804 11.6034 54.6276 11.4971C54.4748 11.3909 54.3819 11.2779 54.3354 11.1451C54.2623 10.9525 54.1892 10.7333 54.1029 10.4942C54.0232 10.2551 53.9369 10.0027 53.8439 9.75033C53.7575 9.49795 53.6645 9.2522 53.5782 9.00645C53.4919 8.76735 53.4055 8.54817 53.3192 8.35556C53.1465 8.58138 52.9804 8.83377 52.8144 9.11273C52.6484 9.39168 52.4889 9.67063 52.3362 9.95623C52.1834 10.2418 52.0373 10.5274 51.8978 10.813C51.7584 11.0986 51.6255 11.3444 51.506 11.5635C51.4196 11.6964 51.3266 11.8159 51.2337 11.9155C51.134 12.0152 51.0211 12.0683 50.8883 12.0683C50.7887 12.0683 50.689 12.0218 50.5828 11.9288C50.4765 11.8359 50.3769 11.7229 50.2772 11.5901C50.1843 11.4573 50.0979 11.3045 50.0182 11.1385C49.9385 10.9724 49.8854 10.7997 49.8522 10.6337C49.7592 10.1156 49.6795 9.54444 49.6197 8.92675C49.5599 8.30907 49.5002 7.69803 49.4404 7.10691C49.4271 6.90101 49.4603 6.71504 49.5267 6.53571C49.5932 6.36303 49.726 6.24348 49.9186 6.1837C50.1245 6.15049 50.2772 6.1837 50.3902 6.27669C50.4898 6.36303 50.5562 6.50915 50.5761 6.71504Z" fill="#1E1E1E" stroke="#1E1E1E" stroke-width="0.7993" stroke-miterlimit="10"/>
<path d="M65.235 5.97766C65.2815 6.31639 65.3147 6.67505 65.3412 7.05363C65.3678 7.43221 65.3877 7.81743 65.4076 8.20266C65.4209 8.58788 65.4276 8.95982 65.4276 9.32512C65.4276 9.68377 65.4143 10.0092 65.401 10.3015C65.7862 10.5671 66.0121 10.8062 66.0918 11.0121C66.1715 11.218 66.1781 11.3973 66.1117 11.5567C66.0386 11.7759 65.9058 11.8822 65.7198 11.8888C65.5338 11.8955 65.3213 11.8291 65.0822 11.6962C64.9095 11.8158 64.7169 11.942 64.5044 12.0814C64.2852 12.2209 64.0594 12.3471 63.8136 12.4733C63.5745 12.5995 63.3288 12.7058 63.0897 12.8054C62.8506 12.8984 62.6247 12.9648 62.4188 12.998C62.0336 13.0578 61.6882 12.9781 61.3827 12.7722C61.0772 12.5663 60.8713 12.2541 60.765 11.849C60.692 11.57 60.6787 11.2844 60.7185 10.9922C60.7584 10.7 60.8514 10.4144 60.9975 10.1421C61.1436 9.86974 61.3429 9.63064 61.5886 9.4181C61.8344 9.20556 62.1333 9.03952 62.472 8.91997C62.5583 8.88676 62.6712 8.85355 62.824 8.83362C62.9768 8.8137 63.1295 8.80041 63.2956 8.80705C63.4616 8.8137 63.621 8.84691 63.7937 8.91332C63.9597 8.9731 64.1191 9.07937 64.2586 9.22549C64.2586 9.01959 64.2586 8.79377 64.252 8.54803C64.2453 8.30228 64.2387 8.04989 64.232 7.79751C64.2188 7.54512 64.2055 7.30602 64.1922 7.08684C64.1789 6.86102 64.159 6.67505 64.1324 6.51564C64.1125 6.33632 64.0394 6.22341 63.9265 6.17692C63.8136 6.13706 63.6675 6.1437 63.5015 6.20348C63.2092 6.29647 62.8705 6.48244 62.4853 6.75475C62.1 7.02706 61.7281 7.3193 61.3761 7.63146C61.2698 7.73773 61.1436 7.78422 61.0042 7.77094C60.8647 7.75766 60.7518 7.70452 60.6521 7.60489C60.5592 7.50527 60.506 7.399 60.4927 7.26617C60.4794 7.13997 60.5326 7.00714 60.6388 6.86102C60.8447 6.64848 61.0772 6.42266 61.3296 6.19684C61.582 5.97102 61.8543 5.76512 62.1266 5.57915C62.4056 5.39319 62.6912 5.24042 62.9768 5.12751C63.269 5.00796 63.5546 4.94819 63.8468 4.9349C64.2653 4.92826 64.5907 5.02125 64.8232 5.2205C65.049 5.40647 65.1885 5.6655 65.235 5.97766ZM63.1096 9.84317C62.9502 9.87638 62.7841 9.95608 62.6115 10.0623C62.4388 10.1753 62.2794 10.3147 62.1399 10.4741C62.0004 10.6335 61.8941 10.8129 61.8277 11.0121C61.7613 11.2114 61.7547 11.404 61.8145 11.5966C61.841 11.6697 61.8875 11.7228 61.9672 11.7626C62.0469 11.8025 62.1333 11.8091 62.2262 11.7826C62.5185 11.7228 62.8439 11.6099 63.2159 11.4372C63.5878 11.2645 63.88 11.0785 64.0992 10.8726C64.0992 10.7996 64.066 10.7066 63.993 10.5937C63.9199 10.4808 63.8402 10.3612 63.7406 10.2483C63.6476 10.1354 63.5413 10.0358 63.4284 9.94944C63.3088 9.86974 63.2092 9.83653 63.1096 9.84317Z" fill="#1E1E1E" stroke="#1E1E1E" stroke-width="0.7993" stroke-miterlimit="10"/>
<path d="M70.2428 5.3266C70.2162 5.44615 70.1298 5.51256 69.9904 5.52585C69.8443 5.53913 69.7247 5.53913 69.6317 5.53913C69.3328 5.54577 69.0207 5.57898 68.7019 5.62548C68.3831 5.67197 68.0443 5.73839 67.699 5.83801C67.5528 5.8845 67.4001 5.86458 67.2274 5.77824C67.0613 5.69189 66.9551 5.52585 66.9219 5.27346C66.9219 5.17384 66.9617 5.10078 67.0348 5.041C67.1078 4.98122 67.1942 4.92809 67.2872 4.8816C67.4466 4.80854 67.6325 4.74876 67.8517 4.69563C68.0709 4.64249 68.2901 4.60264 68.5092 4.58272C68.7351 4.56279 68.9476 4.55615 69.1535 4.56279C69.3594 4.56944 69.5254 4.58936 69.6583 4.62921C69.8509 4.68899 70.0037 4.78197 70.1166 4.90152C70.2228 5.01443 70.2693 5.16055 70.2428 5.3266ZM69.7845 11.344C69.8642 11.5367 69.9107 11.7425 69.9173 11.9684C69.9239 12.1942 69.8575 12.347 69.7247 12.4267C69.552 12.5329 69.3727 12.5263 69.1801 12.4067C68.9875 12.2872 68.8413 12.1211 68.7484 11.9152C68.6155 11.6628 68.5159 11.3507 68.4495 10.9854C68.3831 10.6201 68.3299 10.2548 68.2967 9.88949C68.2635 9.53084 68.2436 9.19211 68.2436 8.87994C68.2436 8.56778 68.2369 8.32868 68.2369 8.17592C68.2502 8.00987 68.2967 7.85047 68.3831 7.70435C68.4694 7.55823 68.5757 7.47853 68.7085 7.45196C68.9277 7.46525 69.1004 7.56487 69.2332 7.75748C69.366 7.94345 69.4258 8.17592 69.4059 8.45487C69.4059 8.67405 69.4059 8.91315 69.4192 9.17883C69.4325 9.4445 69.4524 9.71017 69.4856 9.97584C69.5188 10.2415 69.5586 10.5005 69.6051 10.7463C69.6516 10.9787 69.7114 11.1846 69.7845 11.344Z" fill="#1E1E1E" stroke="#1E1E1E" stroke-width="0.7993" stroke-miterlimit="10"/>
<path d="M72.7267 6.75455C72.7599 6.93388 72.7998 7.13977 72.8396 7.35895C72.8795 7.58477 72.926 7.81059 72.9725 8.0497C73.019 8.28216 73.0588 8.52126 73.092 8.76701C73.1252 9.00611 73.1518 9.23857 73.1784 9.45775C73.3245 9.14559 73.4839 8.8135 73.6566 8.46813C73.8293 8.12275 74.0152 7.79731 74.2145 7.50507C74.4137 7.21283 74.6263 6.96709 74.8521 6.78112C75.0779 6.58851 75.3237 6.49552 75.5827 6.49552C75.9812 6.49552 76.3133 6.64828 76.5789 6.93388C76.8446 7.22612 77.0705 7.58477 77.2564 8.01649C77.4424 8.4482 77.5819 8.8932 77.6881 9.36477C77.7944 9.83633 77.8807 10.2481 77.9472 10.6134C78.0136 10.9389 77.8674 11.178 77.5088 11.3307C77.3427 11.4171 77.2099 11.4237 77.1302 11.3639C77.0439 11.3042 76.9974 11.2444 76.9907 11.1846C76.931 11.0385 76.8579 10.7861 76.7716 10.4274C76.6852 10.0622 76.5856 9.69686 76.4727 9.32492C76.3598 8.95298 76.2336 8.62753 76.0941 8.34857C75.9546 8.06962 75.7886 7.94343 75.6093 7.96335C75.3901 7.97664 75.1975 8.13604 75.0248 8.4482C74.8787 8.70059 74.7259 8.97954 74.5731 9.28506C74.4204 9.59058 74.2676 9.90275 74.1215 10.2216C73.9754 10.5404 73.8293 10.8592 73.6898 11.178C73.5503 11.4968 73.4175 11.789 73.2979 12.048C73.2116 12.1344 73.1053 12.1875 72.9791 12.2141C72.8529 12.2407 72.7201 12.234 72.5939 12.1875C72.4743 12.1477 72.3747 12.0879 72.3083 12.0016C72.2352 11.9152 72.202 11.8355 72.202 11.7492C72.1024 10.806 71.9961 9.95588 71.8899 9.1788C71.7836 8.40835 71.6375 7.61798 71.4648 6.80768C71.3851 6.52873 71.3718 6.30955 71.4249 6.15015C71.4781 5.99075 71.6574 5.92433 71.9563 5.96418C72.3747 6.0306 72.6337 6.29627 72.7267 6.75455Z" fill="#1E1E1E" stroke="#1E1E1E" stroke-width="0.7993" stroke-miterlimit="10"/>
<path d="M80.5976 12.4867C80.6574 12.9184 80.4714 13.1641 80.053 13.2239C79.8338 13.2438 79.6611 13.184 79.5216 13.0379C79.3821 12.8918 79.2958 12.7191 79.2626 12.5132C79.2294 12.294 79.2427 12.0881 79.3157 11.8823C79.3821 11.6764 79.515 11.5634 79.7076 11.5435C79.9467 11.5103 80.1526 11.5967 80.3186 11.8092C80.478 12.0217 80.5777 12.2475 80.5976 12.4867Z" fill="#1E1E1E" stroke="#1E1E1E" stroke-width="0.7993" stroke-miterlimit="10"/>
<path d="M86.9739 8.18273C86.8875 8.22922 86.7879 8.24251 86.6684 8.22258C86.5488 8.20266 86.4492 8.1296 86.3628 7.99676C86.1702 7.74437 85.9378 7.61154 85.6588 7.61154C85.4064 7.61154 85.1806 7.66467 84.9813 7.77758C84.7821 7.89049 84.6028 8.03661 84.4567 8.22258C84.3039 8.40855 84.1777 8.61445 84.0847 8.84027C83.9851 9.06609 83.9187 9.29855 83.8788 9.52437C83.8124 9.9428 83.8855 10.3015 84.0847 10.5937C84.284 10.8859 84.6028 11.0321 85.0411 11.0321C85.3931 11.0453 85.785 10.9789 86.2234 10.8328C86.6617 10.6867 87.0802 10.4941 87.4654 10.255C87.6314 10.1819 87.7908 10.1421 87.9369 10.1288C88.0831 10.1155 88.2026 10.1885 88.2956 10.3479C88.4151 10.5406 88.3819 10.7398 88.2026 10.9324C88.0233 11.1317 87.7775 11.3044 87.4787 11.4571C87.1731 11.6232 86.861 11.7693 86.5289 11.8955C86.1968 12.0217 85.8647 12.108 85.526 12.1612C85.1872 12.2143 84.8552 12.2143 84.5231 12.1612C84.191 12.108 83.8854 11.9951 83.5932 11.8091C83.1349 11.4903 82.8626 11.0453 82.7696 10.4675C82.6767 9.88966 82.7231 9.29191 82.9091 8.68086C82.9822 8.45504 83.0884 8.22258 83.2213 7.99012C83.3541 7.75766 83.5135 7.54512 83.7061 7.35251C83.8921 7.1599 84.1046 6.99385 84.3305 6.86102C84.5629 6.72154 84.8153 6.6352 85.0943 6.58871C85.5393 6.52229 85.9643 6.56878 86.3761 6.73483C86.7813 6.90087 87.0536 7.19975 87.1798 7.63146C87.2064 7.73109 87.1997 7.83072 87.1798 7.93034C87.1466 8.04325 87.0801 8.12295 86.9739 8.18273Z" fill="#1E1E1E" stroke="#1E1E1E" stroke-width="0.7993" stroke-miterlimit="10"/>
<path d="M93.522 6.5687C93.8807 6.70154 94.1862 6.90743 94.432 7.1731C94.6777 7.43877 94.8637 7.73765 94.9965 8.06974C95.1294 8.40183 95.1958 8.74056 95.2157 9.09257C95.2356 9.44459 95.1891 9.76339 95.0895 10.0689C94.9567 10.4076 94.784 10.7331 94.5781 11.0585C94.3722 11.384 94.1331 11.6696 93.8674 11.922C93.6017 12.1744 93.2962 12.3736 92.9575 12.5264C92.6188 12.6791 92.2468 12.7588 91.835 12.7522C91.3435 12.7522 90.9251 12.6326 90.593 12.4002C90.2543 12.1677 89.9953 11.8755 89.8027 11.5102C89.61 11.1449 89.4905 10.7397 89.444 10.2815C89.3909 9.82317 89.4041 9.36489 89.4838 8.9066C89.537 8.56787 89.6167 8.24243 89.7362 7.92362C89.8558 7.60482 90.0019 7.32586 90.1879 7.08012C90.3672 6.83437 90.5797 6.63512 90.8188 6.47572C91.0513 6.32296 91.3236 6.24325 91.6225 6.2499C91.7885 6.2499 92.0011 6.2831 92.2535 6.35616C92.5059 6.42258 92.7383 6.52221 92.9575 6.64176C93.1036 6.49564 93.2962 6.46908 93.522 6.5687ZM92.8247 7.88377C92.6918 7.79743 92.5391 7.68452 92.3664 7.54504C92.1937 7.40556 92.0409 7.33251 91.9081 7.33251C91.762 7.33251 91.6225 7.39892 91.483 7.52512C91.3435 7.65795 91.224 7.81071 91.1177 7.9834C91.0115 8.15608 90.9251 8.33541 90.8521 8.51474C90.779 8.69407 90.7259 8.84019 90.7059 8.94646C90.6661 9.12579 90.6395 9.34496 90.6262 9.59735C90.6129 9.84974 90.6262 10.1021 90.6727 10.3479C90.7192 10.5936 90.8122 10.8194 90.945 11.0187C91.0845 11.2179 91.2904 11.3641 91.5627 11.4504C91.7288 11.4969 91.928 11.4969 92.1605 11.4438C92.3863 11.3906 92.6188 11.291 92.8379 11.1515C93.0638 11.0054 93.2763 10.8194 93.4756 10.5803C93.6748 10.3412 93.8342 10.0623 93.9405 9.75011C94.0667 9.40474 94.0667 9.03944 93.9604 8.65422C93.8475 8.27564 93.6217 7.99668 93.2697 7.824C93.1833 7.88377 93.1036 7.91034 93.0173 7.91034C92.9309 7.91034 92.8778 7.9037 92.8247 7.88377Z" fill="#1E1E1E" stroke="#1E1E1E" stroke-width="0.7993" stroke-miterlimit="10"/>
<path d="M97.7463 7.07354C97.7596 7.26615 97.7729 7.50526 97.8061 7.78421C97.8327 8.06981 97.8658 8.36204 97.8991 8.66757C97.9323 8.97309 97.9721 9.27861 98.012 9.58413C98.0518 9.88301 98.0917 10.162 98.1249 10.4144C98.2577 10.1487 98.4238 9.82988 98.623 9.44466C98.8156 9.05943 99.0215 8.69414 99.2341 8.33548C99.4466 7.98347 99.6658 7.68458 99.8916 7.43884C100.117 7.19309 100.317 7.07354 100.503 7.07354C100.695 7.07354 100.875 7.17317 101.034 7.35914C101.193 7.54511 101.333 7.77093 101.452 8.0366C101.572 8.30227 101.672 8.58787 101.765 8.88675C101.851 9.19227 101.924 9.45129 101.984 9.68376C102.03 9.53099 102.097 9.35167 102.176 9.15242C102.256 8.95316 102.342 8.74727 102.435 8.54138C102.528 8.32884 102.628 8.12294 102.748 7.91705C102.86 7.71115 102.987 7.53182 103.12 7.37906C103.279 7.21302 103.445 7.08683 103.631 7.01377C103.81 6.93406 103.943 6.90086 104.029 6.90086C104.136 6.90086 104.269 6.93406 104.415 7.00048C104.567 7.0669 104.72 7.15324 104.873 7.26615C105.026 7.37906 105.172 7.50526 105.311 7.65802C105.451 7.81078 105.557 7.96354 105.643 8.12294C105.809 8.44839 105.942 8.80704 106.042 9.19227C106.142 9.57749 106.215 9.94279 106.261 10.2948C106.308 10.6468 106.341 10.9523 106.354 11.2246C106.367 11.497 106.381 11.6829 106.394 11.7958C106.394 11.9552 106.374 12.0682 106.334 12.1479C106.294 12.2276 106.228 12.2873 106.135 12.3338C106.002 12.3936 105.889 12.4135 105.789 12.3936C105.697 12.3737 105.617 12.3338 105.557 12.274C105.497 12.2143 105.451 12.1412 105.411 12.0682C105.378 11.9885 105.351 11.922 105.338 11.8623C105.305 11.5833 105.265 11.3043 105.225 11.0121C105.185 10.7199 105.145 10.4409 105.099 10.1686C105.052 9.89629 104.999 9.64391 104.933 9.41145C104.866 9.17898 104.8 8.96645 104.727 8.78712C104.7 8.74063 104.667 8.67421 104.614 8.59451C104.561 8.5148 104.501 8.44175 104.435 8.36869C104.368 8.29563 104.308 8.23585 104.249 8.18936C104.189 8.14287 104.149 8.10966 104.122 8.09638C104.003 8.09638 103.877 8.20929 103.744 8.42846C103.611 8.64764 103.478 8.91995 103.359 9.23212C103.232 9.54428 103.119 9.86973 103.02 10.2151C102.914 10.5605 102.841 10.8527 102.787 11.0918C102.787 11.404 102.721 11.6364 102.601 11.7826C102.482 11.9353 102.356 12.0084 102.223 12.0084C102.09 12.0084 101.951 11.9552 101.798 11.849C101.645 11.7427 101.552 11.6298 101.506 11.497C101.432 11.3044 101.359 11.0852 101.273 10.8461C101.193 10.607 101.107 10.3546 101.014 10.1022C100.928 9.8498 100.835 9.60406 100.748 9.35831C100.662 9.11921 100.576 8.90003 100.489 8.70742C100.317 8.93324 100.151 9.18563 99.9846 9.46458C99.8185 9.74354 99.6591 10.0225 99.5064 10.3081C99.3536 10.5937 99.2075 10.8793 99.068 11.1649C98.9285 11.4505 98.7957 11.6962 98.6762 11.9088C98.5898 12.0416 98.4968 12.1611 98.4038 12.2608C98.3042 12.3604 98.1913 12.4135 98.0585 12.4135C97.9588 12.4135 97.8592 12.367 97.7529 12.274C97.6467 12.1811 97.547 12.0682 97.4474 11.9353C97.3544 11.8025 97.2681 11.6497 97.1884 11.4837C97.1087 11.3176 97.0555 11.1449 97.0223 10.9789C96.9294 10.4608 96.8496 9.88965 96.7899 9.27197C96.7301 8.64764 96.6703 8.04324 96.6106 7.45212C96.5973 7.24623 96.6305 7.06026 96.6969 6.88093C96.7633 6.70824 96.8961 6.58869 97.0888 6.52892C97.2947 6.49571 97.4474 6.52892 97.5603 6.6219C97.6599 6.71489 97.7264 6.86765 97.7463 7.07354Z" fill="#1E1E1E" stroke="#1E1E1E" stroke-width="0.7993" stroke-miterlimit="10"/>
</svg>
