<svg width="495" height="320" viewBox="0 0 495 320" fill="none" xmlns="http://www.w3.org/2000/svg">
<path d="M349.643 81.0038C348.508 79.0113 345.545 78.9847 344.011 80.4525C343.878 80.5787 343.759 80.7115 343.626 80.8444C342.563 79.2172 341.102 78.0681 338.831 78.6061C336.858 79.071 335.158 81.13 333.703 83.169C332.8 81.9801 331.983 80.7248 331.232 79.3832C330.103 77.3707 327.095 76.9457 325.494 78.646C324.179 80.0407 322.95 81.4953 321.781 83.003C320.752 81.668 319.722 80.333 318.693 78.9913C316.906 76.6734 314.17 76.6667 312.383 78.9913C311.639 79.961 310.889 80.9374 310.145 81.9071C309.892 80.8776 309.68 79.8282 309.514 78.7655C309.002 75.5376 304.307 75.3915 302.839 77.8954C302.321 78.7788 301.776 79.6555 301.225 80.5189C300.972 79.8216 300.72 79.1308 300.468 78.4334C299.538 75.8564 296.463 74.8269 294.364 76.8195C292.823 78.2807 291.368 79.8149 289.974 81.3957C289.954 80.9905 289.94 80.5787 289.94 80.1669C289.947 75.4645 282.641 75.4579 282.635 80.1669C282.635 83.7468 283.219 87.1873 284.507 90.5281C285.683 93.5833 289.263 94.0217 291.182 91.3982C292.531 89.5517 293.979 87.805 295.506 86.118C295.878 87.1541 296.257 88.1835 296.629 89.2197C297.459 91.5177 300.866 93.1715 302.733 90.8336C303.37 90.0366 303.988 89.2263 304.599 88.4094C304.971 89.3591 305.376 90.3023 305.821 91.2388C307.129 94.0017 310.636 93.1782 312.131 91.2388C313.273 89.751 314.415 88.2699 315.551 86.7821C316.627 88.1769 317.696 89.5717 318.772 90.9598C320.446 93.125 323.468 93.4704 325.082 90.9598C325.899 89.6846 326.762 88.4691 327.679 87.2935C328.808 88.8079 330.043 90.2425 331.392 91.5974C332.68 92.8859 335.317 93.1383 336.559 91.5974C337.429 90.5214 338.299 89.4388 339.169 88.3629C339.282 88.6153 339.395 88.8676 339.508 89.12C340.418 91.1723 343.845 91.5376 345.246 89.8573C345.359 89.7244 345.479 89.5982 345.592 89.4654C345.698 89.7045 345.818 89.937 345.924 90.1761C347.073 92.7332 350.978 92.3745 352.234 90.1761C353.004 88.8212 353.775 87.4662 354.545 86.1113C356.464 82.6974 352.4 79.5692 349.643 81.0038Z" fill="#FBB03B"/>
<path d="M438.039 79.4298C437.122 74.8204 430.075 76.7731 430.992 81.3692C431.065 81.7345 431.125 82.0931 431.178 82.4518C430.142 82.5248 429.172 83.023 428.568 83.9595C427.691 82.8569 426.814 81.761 425.918 80.6718C424.868 79.3899 422.577 79.297 421.169 80.2534C419.96 79.0379 418.698 77.8823 417.35 76.793C415.51 75.3052 411.664 75.3783 411.246 78.407C411.073 79.6689 410.894 80.9308 410.721 82.1928C410.622 82.0998 410.515 82.0068 410.416 81.9138C409.134 80.6851 407.852 79.4497 406.57 78.221C404.684 76.4144 401.064 77.0587 400.466 79.8349C400.267 80.7449 400.061 81.6481 399.855 82.5514C399.258 81.8341 398.66 81.1168 398.055 80.4061C396.601 78.7125 394.396 79.1176 393.034 80.4393C392.191 79.0446 391.301 77.683 390.079 76.5672C388.352 74.9931 386.24 75.3385 384.958 76.7067C383.224 74.4152 379.525 75.5377 378.622 78.1214C378.416 78.7191 378.19 79.3036 377.964 79.8881C377.625 79.2505 377.287 78.6128 376.948 77.9752C375.48 75.2123 371.017 75.8499 370.273 78.8453C370.14 79.3833 370.001 79.9279 369.868 80.4659C369.695 80.1205 369.529 79.7619 369.37 79.3966C367.51 75.0927 361.213 78.8055 363.06 83.0828C364.421 86.2243 366.434 88.9342 369.024 91.1791C370.937 92.8329 374.132 92.4277 375.022 89.9039C376.304 92.2883 380.036 92.2351 381.318 89.8839C381.836 88.9342 382.321 87.9711 382.786 87.0014C383.204 87.566 383.629 88.1305 384.068 88.6884C385.688 90.7474 388.106 89.8507 389.414 88.1571C390.145 89.2729 390.962 90.3289 392.038 91.2057C393.672 92.5406 396.129 92.5406 397.424 91.013C397.956 91.6706 398.494 92.3215 399.018 92.979C400.792 95.2173 404.445 93.776 405.122 91.365C405.454 90.1895 405.766 89.0139 406.072 87.8316C406.51 88.2567 406.955 88.6751 407.394 89.1002C409.008 90.6477 410.588 92.5074 413.046 92.348C415.862 92.1687 417.018 89.7777 417.569 87.028C418.067 87.5859 418.559 88.1504 419.037 88.7349C420.013 89.9304 422.231 90.1297 423.58 89.2862C424.456 90.3821 425.32 91.4912 426.177 92.6004C427.917 94.8653 430.766 94.9915 432.486 92.6004C432.699 92.3015 432.898 91.996 433.091 91.6838C435.515 92.9989 438.364 91.6573 438.63 88.6486C438.896 85.5469 438.657 82.5182 438.039 79.4298Z" fill="#00A99D"/>
<path d="M459.067 24.9273C459.067 23.6853 459.146 22.4035 458.987 21.1548C458.874 20.2715 458.715 19.3549 458.396 18.5247C458.376 18.4782 458.356 18.4251 458.316 18.3985C458.27 18.3653 458.217 18.3653 458.164 18.3653C455.613 18.3254 453.063 18.2856 450.512 18.259C447.915 18.2324 445.325 18.2059 442.728 18.1926C440.875 18.1793 439.015 18.1727 437.162 18.166C348.82 22.1179 259.82 22.1179 171.219 18.1395C167.108 18.1328 163.043 18.1328 159.031 18.1328H52.5904C50.465 18.1328 48.333 18.1328 46.2076 18.1328C44.7464 18.1328 43.2919 18.1594 41.8307 18.1926C40.5621 18.9033 39.2935 20.0523 38.377 21.4138C38.284 21.8788 38.191 22.3437 38.1179 22.8086C38.0183 23.4794 37.9851 24.1503 37.9851 24.8277V50.4384C37.9917 57.0137 37.9984 64.3927 38.0648 72.3762C38.3238 103.32 39.6987 134.271 40.1238 165.221C40.5555 196.278 40.5887 227.349 39.8116 258.399C39.785 259.528 39.7518 260.664 39.7253 261.793C39.6655 263.951 39.6057 266.11 39.5459 268.269C39.4729 270.899 39.3932 273.529 39.3135 276.159C39.2338 278.709 39.1541 281.26 39.0677 283.81C39.0478 284.401 39.0279 284.993 39.0013 285.59C38.9947 285.816 38.9814 286.035 38.9614 286.254C38.9349 286.626 38.9548 287.005 38.9947 287.377C39.0744 288.028 39.0744 288.725 39.3334 289.343C39.5725 289.921 40.0175 290.392 40.5355 290.731C41.0536 291.07 41.6514 291.282 42.2558 291.435C44.0557 291.887 45.9287 291.807 47.7684 291.767C49.6215 291.727 51.4745 291.774 53.3276 291.78C55.0478 291.78 56.768 291.787 58.4949 291.78C62.7656 291.774 67.7004 291.774 73.1666 291.774C77.424 291.774 82.0001 291.774 86.8685 291.767C173.464 289.117 260.471 289.117 347.106 291.767C353.622 291.767 359.978 291.774 366.135 291.774H415.271C422.006 291.774 428.11 291.774 433.476 291.774C437.149 291.774 440.828 291.694 444.501 291.674C447.729 291.654 450.977 291.847 454.218 291.747C455.161 291.721 456.124 291.661 456.988 291.269C459.671 290.047 458.854 286.507 458.768 284.196C458.695 282.25 458.628 280.303 458.562 278.357C458.429 274.465 458.31 270.573 458.21 266.681C457.997 258.897 457.838 251.113 457.719 243.335C457.599 235.551 457.519 227.774 457.479 219.99C457.44 212.205 457.426 204.428 457.446 196.644C457.466 188.866 457.513 181.082 457.572 173.305C457.639 165.527 457.719 157.749 457.818 149.965C457.911 142.188 458.024 134.41 458.13 126.633C458.243 118.855 458.356 111.084 458.469 103.307C458.582 95.536 458.688 87.7652 458.788 79.9876C458.887 72.2168 458.967 64.4459 459.034 56.675C459.04 56.0507 459.047 55.433 459.047 54.8087C459.054 48.7248 459.053 42.6542 459.06 36.5837C459.06 33.9934 459.06 31.4031 459.06 28.8128C459.067 27.5176 459.067 26.2225 459.067 24.9273ZM455.753 38.9681C455.753 44.9257 455.746 50.89 455.733 56.861C455.075 133.547 453.102 210.731 455.673 287.257C455.706 288.254 454.916 289.084 453.919 289.084H364.282C358.225 289.084 351.968 289.077 345.559 289.051C255.862 285.059 165.919 286.401 75.9628 289.084C70.5763 289.084 65.7211 289.084 61.4903 289.091C54.822 289.084 48.9507 289.084 42.4816 289.084C42.2159 289.084 42.0034 288.865 42.0167 288.599C45.3176 217.001 43.3251 145.402 41.3923 74.0034C41.3392 66.1794 41.3326 58.9465 41.3259 52.4973V24.4757C41.3259 23.4994 41.2529 22.5562 41.9237 21.7526C43.0329 20.4109 44.8062 20.8692 46.3139 20.8227C47.0644 20.8028 47.8216 20.8161 48.5721 20.8161H160.446C164.398 20.8161 168.396 20.8161 172.441 20.8227C259.854 24.1702 347.133 24.1702 434.107 20.8559C441.001 20.8825 447.922 20.9489 454.995 21.0751C455.414 21.0818 455.746 21.4271 455.746 21.8456C455.753 27.5508 455.753 33.2561 455.753 38.9681Z" fill="#1E1E1E"/>
<path d="M433.409 138.973C436.936 138.993 440.523 139.272 444.03 139.219C445.723 139.192 445.69 136.928 444.016 136.815C440.556 136.576 436.93 136.635 433.443 136.469C433.383 134.058 433.622 131.601 433.483 129.196C433.39 127.602 431.045 127.616 430.919 129.203C430.726 131.574 430.886 134.018 430.773 136.403C411.658 135.885 392.509 135.426 373.394 135.028C373.248 133.115 373.375 131.123 373.149 129.236C372.963 127.676 370.665 127.616 370.578 129.223C370.479 131.136 370.751 133.062 370.731 134.975C352.958 134.616 335.144 134.317 317.371 134.065C317.185 132.019 317.252 129.867 316.986 127.848C316.787 126.294 314.462 126.221 314.415 127.828C314.356 129.901 314.681 131.959 314.701 134.025C307.422 133.932 300.116 133.839 292.83 133.759C281.306 133.64 269.763 133.553 258.246 133.474C258.12 131.136 258.259 128.732 258.06 126.407C257.921 124.833 255.576 124.806 255.496 126.4C255.37 128.738 255.623 131.109 255.583 133.454C235.305 133.334 215.008 133.275 194.731 133.301C194.432 130.771 194.18 128.273 193.854 125.729C193.768 125.052 193.243 124.507 192.546 124.507C191.848 124.507 191.171 125.045 191.231 125.729C191.456 128.287 191.822 130.771 192.074 133.308C175.509 133.334 158.932 133.407 142.36 133.534C140.541 133.547 138.721 133.567 136.901 133.58C136.609 130.704 136.35 127.861 136.024 124.972C135.951 124.295 135.413 123.75 134.716 123.75C134.018 123.75 133.348 124.288 133.401 124.972C133.626 127.881 133.978 130.717 134.231 133.607C113.429 133.793 92.6202 134.052 71.8181 134.384C71.599 132.212 71.4329 130.08 71.1872 127.888C71.1141 127.211 70.5761 126.666 69.8787 126.666C69.1747 126.666 68.5172 127.204 68.5637 127.888C68.7098 130.093 68.9954 132.238 69.1681 134.424C65.3092 134.55 61.3374 134.457 57.5118 134.663C55.8314 134.756 55.8115 137.034 57.5051 137.067C61.4371 137.147 65.462 136.914 69.4138 136.914C70.5695 149.128 71.6322 161.383 72.5952 173.61C69.095 173.776 65.4752 173.73 62.0082 173.975C60.3412 174.095 60.3013 176.36 61.995 176.38C65.5549 176.426 69.2013 176.147 72.7812 176.121C73.007 179.089 73.2461 182.078 73.4587 185.054C74.3088 197.002 75.0593 208.977 75.7301 220.933C72.8144 220.747 69.9053 220.262 66.9829 220.142C65.2826 220.069 65.3955 222.321 67.0161 222.553C69.8655 222.965 72.9605 223.124 75.863 223.457C76.2017 229.74 76.5272 236.036 76.8061 242.326C77.1448 249.884 77.4238 257.449 77.6828 265.001C75.0992 265.1 72.4159 264.941 69.8522 265.114C68.1784 265.227 68.1652 267.438 69.8522 267.525C72.4491 267.651 75.1523 267.445 77.7625 267.505C77.9219 269.823 77.8223 272.234 78.0481 274.538C78.2009 276.106 80.5454 276.152 80.6118 274.545C80.7115 272.194 80.4259 269.823 80.4325 267.472C100.883 267.305 121.372 267.219 141.822 267.226C141.935 269.178 141.769 271.191 141.955 273.13C142.101 274.711 144.406 274.724 144.526 273.137C144.665 271.184 144.426 269.192 144.479 267.232C163.82 267.252 183.201 267.352 202.542 267.525C202.701 269.378 202.601 271.31 202.827 273.137C203.02 274.698 205.311 274.758 205.397 273.15C205.497 271.284 205.198 269.411 205.211 267.551C208.373 267.584 211.548 267.611 214.716 267.644C229.62 267.817 244.531 268.036 259.428 268.295C259.707 270.294 259.873 272.267 260.252 274.266C260.378 274.937 261.182 275.289 261.866 275.11C262.55 274.93 262.875 274.286 262.782 273.602C262.537 271.822 262.291 270.102 262.078 268.335C279.779 268.66 297.492 269.052 315.186 269.504C315.166 271.895 314.841 274.279 314.9 276.67C314.94 278.278 317.285 278.218 317.464 276.65C317.73 274.346 317.67 271.908 317.849 269.57C331.491 269.929 345.16 270.321 358.809 270.753C362.867 270.879 366.925 271.025 370.97 271.164C371.017 272.533 370.771 273.907 370.89 275.276C371.03 276.883 373.242 276.823 373.474 275.269C373.667 273.967 373.514 272.579 373.64 271.257C392.071 271.902 410.529 272.606 428.953 273.396C429.019 275.11 428.787 277.076 428.926 278.736C429.066 280.396 431.324 280.35 431.503 278.736C431.683 277.122 431.51 275.176 431.623 273.516C434.412 273.542 437.268 273.861 440.051 273.821C441.745 273.794 441.692 271.57 440.038 271.41C437.315 271.151 434.412 271.191 431.649 271.005C431.842 256.254 432.041 241.469 432.241 226.724C435.82 226.764 439.453 227.07 443.013 227.05C444.707 227.043 444.667 224.772 443 224.645C439.493 224.373 435.82 224.406 432.274 224.227C432.287 222.885 432.307 221.53 432.327 220.182C432.493 208.034 432.646 195.867 432.818 183.725C435.17 183.486 437.713 183.433 440.011 183.081C441.619 182.835 441.752 180.624 440.045 180.67C437.64 180.73 435.249 181.142 432.845 181.228C432.931 174.799 433.018 168.35 433.104 161.914C433.204 154.263 433.303 146.611 433.409 138.973ZM359.181 137.226C363.06 137.299 366.939 137.379 370.824 137.459C371.302 151.845 371.648 166.231 371.84 180.624C369.974 180.504 368.108 180.385 366.241 180.258C350.48 179.209 334.719 178.166 318.952 177.223C318.826 171.631 318.686 166.032 318.494 160.439C318.221 152.476 317.876 144.519 317.484 136.562C331.392 136.755 345.286 136.974 359.181 137.226ZM314.834 136.522C315.498 150.032 315.983 163.548 316.302 177.064C308.471 176.619 300.64 176.18 292.803 175.802C281.552 175.257 270.288 174.792 259.03 174.367C258.93 169.153 258.824 163.946 258.724 158.732C258.578 151.141 258.432 143.543 258.279 135.951C277.135 136.084 295.985 136.277 314.834 136.522ZM208.718 135.785C224.353 135.798 239.994 135.852 255.629 135.945C255.875 148.723 256.127 161.502 256.373 174.281C237.198 173.61 218.023 173.119 198.835 172.813C198.377 167.911 197.906 163.01 197.407 158.115C196.65 150.669 195.833 143.231 195.003 135.798C199.573 135.785 204.149 135.778 208.718 135.785ZM192.353 135.792C193.728 148.106 195.003 160.433 196.165 172.773C179.262 172.534 162.352 172.428 145.442 172.468C143.709 172.474 141.975 172.494 140.242 172.501C139.863 167.46 139.478 162.425 139.053 157.391C138.455 150.277 137.804 143.177 137.127 136.071C155.538 135.918 173.949 135.832 192.353 135.792ZM74.1428 160.021C73.4852 152.297 72.7746 144.585 72.0506 136.868C92.8593 136.536 113.668 136.277 134.477 136.091C135.632 148.225 136.668 160.36 137.585 172.514C116.803 172.647 96.0208 172.986 75.2453 173.544C74.8866 169.04 74.528 164.531 74.1428 160.021ZM78.3935 221.192C78.3204 219.877 78.2607 218.562 78.181 217.246C77.3839 203.505 76.4607 189.769 75.4313 176.048C96.2067 175.49 116.982 175.151 137.764 175.018C137.95 177.588 138.15 180.165 138.322 182.736C139.252 196.81 140.016 210.884 140.62 224.977C119.845 224.234 99.1025 223.025 78.3935 221.192ZM80.3329 264.988C79.848 251.219 79.2436 237.457 78.5263 223.696C99.2221 225.515 119.958 226.711 140.72 227.455C140.893 231.838 141.059 236.229 141.198 240.619C141.45 248.655 141.636 256.699 141.783 264.742C121.299 264.735 100.816 264.821 80.3329 264.988ZM142.845 215.221C142.188 201.804 141.377 188.395 140.421 174.998C159.078 174.918 177.734 175.011 196.391 175.27C196.63 177.887 196.883 180.504 197.109 183.121C198.337 197.361 199.413 211.614 200.343 225.881C183.294 225.881 166.244 225.708 149.201 225.25C147.222 225.197 145.243 225.13 143.264 225.064C143.131 221.783 143.005 218.502 142.845 215.221ZM151.141 264.742C148.903 264.735 146.664 264.742 144.426 264.742C144.2 252.342 143.855 239.941 143.383 227.548C162.419 228.139 181.461 228.371 200.509 228.371C200.762 232.463 201.021 236.554 201.246 240.645C201.698 248.775 202.083 256.904 202.435 265.034C185.333 264.875 168.237 264.775 151.141 264.742ZM202.316 215.579C201.366 202.15 200.27 188.727 199.061 175.317C202.747 175.377 206.44 175.423 210.126 175.496C225.562 175.808 240.991 176.253 256.426 176.805C256.473 179.388 256.526 181.972 256.579 184.556C256.838 198.125 257.057 211.701 257.329 225.27C239.224 225.589 221.112 225.828 203 225.881C202.767 222.44 202.561 219.007 202.316 215.579ZM205.085 265.054C204.541 252.82 203.903 240.592 203.159 228.371C206.719 228.358 210.279 228.351 213.839 228.325C228.351 228.225 242.857 228.013 257.369 227.76C257.482 232.589 257.582 237.411 257.721 242.239C257.954 250.117 258.372 257.961 259.136 265.804C241.124 265.486 223.104 265.233 205.085 265.054ZM259.853 216.582C259.594 203.352 259.342 190.121 259.083 176.891C278.185 177.608 297.273 178.512 316.355 179.574C316.395 181.693 316.441 183.805 316.468 185.924C316.634 198.656 316.647 211.382 316.508 224.114C309.574 224.24 302.633 224.373 295.699 224.513C283.804 224.752 271.908 224.997 260.013 225.217C259.96 222.341 259.906 219.465 259.853 216.582ZM295.261 266.522C284.102 266.269 272.944 266.05 261.779 265.844C261.109 259.003 260.697 252.156 260.464 245.288C260.265 239.423 260.166 233.565 260.046 227.701C278.855 227.355 297.658 226.95 316.461 226.605C316.368 232.423 316.262 238.234 316.103 244.053C315.89 251.711 315.611 259.362 315.286 267.013C308.617 266.847 301.942 266.675 295.261 266.522ZM371.688 243.276C371.528 251.75 371.302 260.219 371.05 268.687C353.35 268.089 335.649 267.551 317.949 267.08C318.513 253.577 318.912 240.068 319.131 226.552C332.906 226.312 346.681 226.113 360.463 226.007C364.282 225.974 368.101 225.967 371.92 225.954C371.86 231.732 371.794 237.504 371.688 243.276ZM371.94 223.47C354.346 223.53 336.752 223.762 319.164 224.068C319.184 222.234 319.211 220.401 319.224 218.568C319.31 205.617 319.237 192.672 319.012 179.727C331.777 180.471 344.543 181.268 357.301 182.145C362.157 182.477 367.018 182.809 371.88 183.121C371.893 184.217 371.913 185.306 371.927 186.402C372.026 198.756 372.026 211.109 371.94 223.47ZM429.318 246.052C429.205 254.341 429.099 262.623 428.986 270.905C410.562 270.128 392.137 269.418 373.707 268.78C374.132 254.507 374.424 240.234 374.577 225.954C392.915 225.941 411.246 226.14 429.577 226.651C429.491 233.12 429.404 239.583 429.318 246.052ZM430.095 187.724C429.929 199.984 429.77 211.986 429.61 224.161C411.279 223.642 392.941 223.45 374.597 223.463C374.61 221.677 374.636 219.883 374.643 218.097C374.696 206.487 374.65 194.884 374.53 183.274C393.067 184.376 411.591 184.928 430.148 183.918C430.135 185.014 430.108 186.747 430.095 187.724ZM430.182 181.414C411.605 182.457 393.061 181.886 374.504 180.79C374.411 174.268 374.318 167.745 374.165 161.223C373.986 153.319 373.74 145.416 373.474 137.519C392.563 137.917 411.658 138.375 430.746 138.9C430.56 153.067 430.368 167.241 430.182 181.414Z" fill="#1E1E1E"/>
<path d="M85.7728 41.97C85.6732 41.598 85.3876 41.3523 85.0488 41.2394C85.0422 41.2327 85.0289 41.2261 85.0223 41.2195C84.9293 41.1464 84.8363 41.0733 84.75 41.0003C84.5706 40.8542 84.3979 40.7014 84.2253 40.5486C83.8732 40.2298 83.5412 39.8977 83.2224 39.5457C83.0696 39.373 82.9168 39.2004 82.7707 39.021C82.691 38.928 82.6179 38.8351 82.5449 38.7421C82.5183 38.7089 82.4918 38.6757 82.4652 38.6424C82.173 38.2506 81.9073 37.8521 81.6549 37.4336C81.3627 36.9488 80.6719 36.723 80.1738 37.0484C79.6889 37.3606 79.4697 38.0115 79.7886 38.5295C80.3265 39.4195 80.9509 40.2431 81.6416 41.0069C78.872 40.9139 76.1024 41.0003 73.346 41.2659C72.7616 41.3257 72.2634 41.7242 72.2634 42.3486C72.2634 42.8932 72.7616 43.4909 73.346 43.4312C76.0094 43.1721 78.686 43.0858 81.3627 43.1655C80.6586 43.75 80.0077 44.3942 79.4299 45.1049C79.058 45.5565 78.9849 46.1941 79.4299 46.6325C79.8085 47.0111 80.5922 47.0908 80.9575 46.6325C82.1464 45.1779 83.5876 44.0289 85.2747 43.1987C85.6997 42.9862 85.8923 42.4083 85.7728 41.97Z" fill="#1E1E1E"/>
<path d="M52.2647 41.864C52.3643 42.236 52.6499 42.4817 52.9886 42.5946C52.9952 42.6013 53.0085 42.6079 53.0152 42.6145C53.1082 42.6876 53.2011 42.7607 53.2875 42.8337C53.4668 42.9798 53.6395 43.1326 53.8122 43.2854C54.1642 43.6042 54.4963 43.9363 54.8151 44.2883C54.9679 44.461 55.1206 44.6336 55.2667 44.813C55.3464 44.906 55.4195 44.9989 55.4926 45.0919C55.5191 45.1251 55.5457 45.1583 55.5723 45.1915C55.8645 45.5834 56.1302 45.9819 56.3826 46.4004C56.6748 46.8852 57.3655 47.111 57.8637 46.7856C58.3485 46.4734 58.5677 45.8225 58.2489 45.3045C57.7109 44.4145 57.0866 43.5909 56.3958 42.8271C59.1655 42.9201 61.9351 42.8337 64.6914 42.568C65.2759 42.5083 65.774 42.1098 65.774 41.4854C65.774 40.9408 65.2759 40.3431 64.6914 40.4028C62.0281 40.6619 59.3514 40.7482 56.6748 40.6685C57.3788 40.084 58.0297 39.4398 58.6075 38.7291C58.9795 38.2775 59.0525 37.6399 58.6075 37.2015C58.229 36.8229 57.4452 36.7432 57.0799 37.2015C55.8911 38.656 54.4498 39.8051 52.7628 40.6353C52.3377 40.8545 52.1451 41.4257 52.2647 41.864Z" fill="#1E1E1E"/>
<path d="M106.196 40.2565C105.512 39.0677 103.599 40.0174 104.283 41.213C104.887 42.2624 104.894 43.6306 104.07 44.5803C103.101 45.6962 101.666 45.7426 100.371 45.2312C99.0292 44.6999 97.8404 43.6571 97.1164 42.4085C96.4921 41.3325 96.1002 39.9444 97.3024 39.1142C97.94 38.6758 98.7171 38.45 99.5274 38.3437C99.4742 38.3969 99.4145 38.45 99.3613 38.4965C98.9495 38.8751 98.8632 39.5857 99.2683 40.0042C99.6668 40.4159 100.338 40.5023 100.776 40.0971C101.115 39.785 101.46 39.4728 101.799 39.1607C102.084 38.9016 102.363 38.6293 102.669 38.3969C102.729 38.3636 102.788 38.3238 102.848 38.2972C103.36 38.0714 103.599 37.3541 103.326 36.8626C103.313 36.8427 103.3 36.8227 103.287 36.8095C103.207 36.5836 103.074 36.3512 102.862 36.2449C102.257 35.9527 101.679 35.6206 101.128 35.242C100.856 35.056 100.597 34.8634 100.338 34.6575C100.278 34.611 100.218 34.5579 100.158 34.5114C100.118 34.4782 100.079 34.445 100.039 34.4118C100.072 34.4384 100.105 34.4716 100.138 34.4981C99.9923 34.3919 99.8595 34.2524 99.7333 34.1262C99.5207 33.9269 99.2883 33.7808 98.9827 33.7675C98.7237 33.7543 98.4115 33.8539 98.2189 34.0332C97.8337 34.4051 97.6876 35.1291 98.1259 35.5409C98.3983 35.7999 98.6772 36.0457 98.9628 36.2781C97.9798 36.4442 97.0301 36.7497 96.2198 37.2744C95.3165 37.8589 94.639 38.709 94.4331 39.7783C94.2405 40.7945 94.4597 41.8174 94.8781 42.7539C96.5054 46.3869 101.759 49.5617 105.246 46.4068C106.96 44.8659 107.338 42.2358 106.196 40.2565Z" fill="#1E1E1E"/>
<path d="M22.1041 189.026C22.9543 188.986 23.8177 188.946 24.6811 188.9C25.5512 188.853 26.4014 188.846 27.2449 188.886C28.0884 188.926 28.912 189.006 29.7156 189.145C30.5193 189.285 31.2831 189.504 32.0137 189.809C32.7443 190.115 33.4217 190.527 34.046 191.038C34.6704 191.55 35.2349 192.194 35.7331 192.971C35.8128 193.091 35.8592 193.223 35.8725 193.369C35.8858 193.516 35.8858 193.655 35.8592 193.788C35.8327 193.921 35.7928 194.047 35.7397 194.153C35.6866 194.259 35.6069 194.326 35.5139 194.359C35.3744 194.406 35.215 194.379 35.0423 194.286C34.8696 194.193 34.6903 194.04 34.5043 193.828C33.9863 193.157 33.4416 192.592 32.8638 192.134C32.286 191.676 31.655 191.311 30.9842 191.032C30.3067 190.753 29.5761 190.573 28.7791 190.48C27.9821 190.394 27.112 190.387 26.1689 190.474C26.4014 190.66 26.6471 190.872 26.8995 191.111C27.1519 191.357 27.3711 191.616 27.5703 191.888C27.7629 192.161 27.929 192.446 28.0618 192.732C28.1946 193.017 28.2611 193.296 28.2544 193.549C28.2544 193.761 28.2013 193.974 28.1083 194.186C28.0153 194.399 27.8293 194.611 27.557 194.817C27.2249 195.056 26.8464 195.269 26.4279 195.455C26.0095 195.641 25.6044 195.8 25.2058 195.933C24.8073 196.066 24.4553 196.172 24.1365 196.252C23.8177 196.332 23.5985 196.378 23.4723 196.391C23.3129 196.418 23.1668 196.418 23.0207 196.391C22.8812 196.358 22.7949 196.259 22.7617 196.093C22.7152 195.867 22.7351 195.654 22.8148 195.455C22.8945 195.262 23.0207 195.123 23.1934 195.05C23.3661 194.99 23.6384 194.91 23.997 194.804C24.3623 194.698 24.721 194.572 25.073 194.426C25.4317 194.279 25.7438 194.12 26.0095 193.947C26.2818 193.775 26.4146 193.589 26.4146 193.396C26.4146 193.17 26.3017 192.898 26.0693 192.586C25.8368 192.274 25.5313 191.975 25.1527 191.682C24.7741 191.39 24.3557 191.144 23.8908 190.932C23.4259 190.726 22.9742 190.62 22.5359 190.613C22.4429 190.613 22.33 190.593 22.2038 190.567C22.0776 190.533 21.958 190.487 21.8385 190.427C21.7189 190.367 21.6193 190.294 21.5329 190.208C21.4466 190.122 21.3935 190.035 21.3802 189.949C21.3536 189.71 21.42 189.491 21.5861 189.305C21.7588 189.119 21.9315 189.026 22.1041 189.026Z" fill="#1E1E1E" stroke="#1E1E1E" stroke-width="1.0249" stroke-miterlimit="10"/>
<path d="M21.3534 181.62C21.5327 181.168 21.7917 180.79 22.1437 180.478C22.4957 180.172 22.8876 179.933 23.3193 179.774C23.751 179.614 24.2027 179.521 24.6543 179.501C25.1126 179.481 25.5377 179.535 25.9295 179.661C26.3679 179.833 26.7996 180.046 27.2247 180.305C27.6498 180.564 28.0217 180.863 28.3538 181.202C28.6859 181.54 28.9449 181.919 29.1508 182.344C29.3501 182.769 29.4497 183.241 29.4497 183.752C29.443 184.37 29.2903 184.895 28.9914 185.313C28.6859 185.731 28.3007 186.063 27.8224 186.303C27.3509 186.542 26.8129 186.694 26.2085 186.754C25.6041 186.814 25.013 186.801 24.4086 186.708C23.9702 186.641 23.5385 186.542 23.1201 186.389C22.7016 186.243 22.3363 186.057 22.0109 185.824C21.6921 185.599 21.4264 185.333 21.2272 185.034C21.0213 184.735 20.9216 184.403 20.9283 184.024C20.9283 183.812 20.9748 183.546 21.0611 183.227C21.1475 182.909 21.2737 182.616 21.4331 182.344C21.2537 182.145 21.2272 181.906 21.3534 181.62ZM23.0736 182.49C22.9607 182.656 22.8146 182.849 22.6286 183.068C22.4493 183.287 22.3563 183.48 22.3496 183.646C22.3496 183.825 22.436 184.005 22.6087 184.184C22.7813 184.357 22.9806 184.509 23.2064 184.642C23.4322 184.775 23.6647 184.881 23.9038 184.974C24.1363 185.067 24.3289 185.127 24.4684 185.16C24.7075 185.207 24.9864 185.24 25.3185 185.26C25.6506 185.28 25.976 185.26 26.3015 185.2C26.6269 185.14 26.9192 185.027 27.1782 184.855C27.4372 184.682 27.6298 184.423 27.7427 184.078C27.8092 183.865 27.8025 183.619 27.7361 183.327C27.6697 183.041 27.5369 182.756 27.3509 182.47C27.1649 182.191 26.9125 181.919 26.6004 181.667C26.2882 181.414 25.9295 181.222 25.5178 181.082C25.0595 180.929 24.5879 180.923 24.0898 181.062C23.5916 181.202 23.233 181.494 23.0072 181.926C23.0869 182.032 23.1267 182.138 23.1201 182.244C23.1201 182.351 23.1068 182.43 23.0736 182.49Z" fill="#1E1E1E" stroke="#1E1E1E" stroke-width="1.0249" stroke-miterlimit="10"/>
<path d="M22.6555 175.722C23.0806 175.815 23.5455 175.908 24.0569 176.008C24.5683 176.101 25.0598 176.174 25.5314 176.214C26.0029 176.253 26.428 176.26 26.8066 176.22C27.1852 176.187 27.4508 176.094 27.6102 175.941C27.6567 175.682 27.5505 175.39 27.2715 175.051C26.9992 174.719 26.6472 174.387 26.2288 174.068C25.8037 173.749 25.3454 173.457 24.8539 173.198C24.3624 172.939 23.9241 172.753 23.5455 172.647C23.3595 172.587 23.1603 172.527 22.9544 172.481C22.7485 172.434 22.5359 172.408 22.3168 172.408C22.1906 172.408 22.071 172.328 21.9515 172.169C21.8319 172.009 21.7655 171.876 21.7522 171.77C21.7389 171.697 21.7522 171.604 21.7987 171.511C21.8452 171.412 21.9116 171.325 22.0046 171.239C22.0909 171.159 22.1972 171.079 22.3101 171.013C22.4297 170.947 22.5492 170.913 22.6754 170.913C23.147 170.887 23.6717 170.847 24.2362 170.787C24.8008 170.734 25.372 170.661 25.9365 170.581C26.5011 170.502 27.059 170.422 27.5903 170.336C28.1283 170.249 28.6065 170.163 29.0316 170.07C29.2043 170.023 29.4035 170.07 29.6227 170.209C29.8419 170.349 29.9747 170.502 30.0212 170.668C30.0544 170.807 30.0345 170.947 29.9681 171.086C29.9017 171.232 29.7755 171.338 29.5895 171.412C29.3703 171.485 29.098 171.558 28.7726 171.617C28.4471 171.684 28.1084 171.744 27.7564 171.79C27.4044 171.843 27.059 171.89 26.7402 171.93C26.4214 171.969 26.1424 172.003 25.9232 172.016C26.3483 172.248 26.7734 172.514 27.2051 172.833C27.6368 173.145 28.0287 173.484 28.3807 173.842C28.7327 174.201 29.005 174.573 29.1976 174.958C29.3902 175.344 29.4633 175.742 29.4102 176.154C29.3238 176.758 28.7327 177.216 27.6235 177.529C27.1785 177.648 26.6937 177.701 26.1557 177.688C25.6177 177.675 25.0864 177.635 24.5617 177.562C24.037 177.489 23.5322 177.402 23.0606 177.303C22.5891 177.203 22.2038 177.11 21.905 177.031C21.7788 176.997 21.6659 176.938 21.5662 176.845C21.4666 176.752 21.4268 176.645 21.46 176.526C21.5065 176.3 21.6526 176.094 21.8917 175.901C22.1574 175.722 22.4031 175.662 22.6555 175.722Z" fill="#1E1E1E" stroke="#1E1E1E" stroke-width="1.0249" stroke-miterlimit="10"/>
<path d="M21.599 161.569C21.7518 161.841 21.9178 162.127 22.0905 162.425C22.2632 162.724 22.4625 163.017 22.6883 163.315C22.9141 163.614 23.1798 163.893 23.4853 164.159C23.7908 164.425 24.1561 164.67 24.5812 164.883C25.1789 165.188 25.79 165.401 26.4077 165.507C27.032 165.62 27.6364 165.693 28.2408 165.726C28.5264 165.726 28.812 165.793 29.1042 165.926C29.3965 166.059 29.5426 166.238 29.5359 166.464C29.5359 166.749 29.3765 166.982 29.071 167.154C28.7655 167.327 28.4666 167.44 28.181 167.5C27.0586 167.752 25.9494 167.951 24.8535 168.111C23.7576 168.27 22.6617 168.403 21.5791 168.516C21.3599 168.516 21.2204 168.45 21.154 168.317C21.0943 168.191 21.0677 168.038 21.0876 167.872C21.1075 167.692 21.154 167.52 21.2337 167.354C21.3134 167.188 21.4396 167.088 21.6123 167.061C22.1968 167.008 22.8078 166.935 23.4454 166.849C24.083 166.763 24.6343 166.676 25.0926 166.59C24.5546 166.523 24.0366 166.357 23.5384 166.078C23.0336 165.799 22.582 165.461 22.1769 165.056C21.7717 164.65 21.4263 164.192 21.1474 163.687C20.8684 163.176 20.6825 162.658 20.5895 162.127C20.5629 161.901 20.5629 161.708 20.5961 161.562C20.6293 161.409 20.6825 161.303 20.7622 161.243C20.8419 161.183 20.9681 161.17 21.1407 161.21C21.3001 161.257 21.4595 161.376 21.599 161.569Z" fill="#1E1E1E" stroke="#1E1E1E" stroke-width="1.0249" stroke-miterlimit="10"/>
<path d="M23.7777 148.644C23.8375 148.75 23.8574 148.876 23.8309 149.029C23.8043 149.182 23.7047 149.308 23.532 149.414C23.1999 149.653 23.0339 149.946 23.0272 150.298C23.0272 150.616 23.1003 150.902 23.2464 151.154C23.3925 151.407 23.5918 151.626 23.8309 151.819C24.0766 152.011 24.3423 152.164 24.6412 152.29C24.94 152.416 25.2389 152.496 25.5378 152.549C26.0891 152.629 26.554 152.543 26.9326 152.29C27.3112 152.038 27.5038 151.633 27.5104 151.088C27.5303 150.65 27.444 150.152 27.2514 149.6C27.0588 149.049 26.8064 148.524 26.4942 148.039C26.4012 147.827 26.3481 147.628 26.3348 147.448C26.3215 147.269 26.4145 147.116 26.6204 146.997C26.8728 146.851 27.1318 146.884 27.3909 147.116C27.6499 147.342 27.8823 147.648 28.0816 148.033C28.3008 148.411 28.4867 148.81 28.6528 149.228C28.8122 149.647 28.9317 150.065 28.9982 150.49C29.0646 150.915 29.0646 151.334 28.9982 151.752C28.9317 152.171 28.779 152.556 28.5399 152.921C28.1281 153.492 27.537 153.838 26.7798 153.951C26.0226 154.064 25.2456 154.004 24.4419 153.771C24.143 153.678 23.8441 153.545 23.532 153.379C23.2265 153.213 22.9475 153.007 22.6951 152.768C22.4427 152.536 22.2302 152.27 22.0509 151.978C21.8715 151.686 21.752 151.367 21.6922 151.022C21.5992 150.464 21.6656 149.926 21.8848 149.414C22.104 148.903 22.4959 148.564 23.0604 148.398C23.1866 148.372 23.3194 148.372 23.4523 148.398C23.5918 148.425 23.698 148.511 23.7777 148.644Z" fill="#1E1E1E" stroke="#1E1E1E" stroke-width="1.0249" stroke-miterlimit="10"/>
<path d="M21.6656 140.415C21.8449 139.963 22.104 139.584 22.456 139.272C22.808 138.967 23.1999 138.728 23.6316 138.568C24.0633 138.409 24.5149 138.316 24.9666 138.296C25.4248 138.276 25.8499 138.329 26.2418 138.455C26.6801 138.628 27.1119 138.84 27.5369 139.099C27.962 139.359 28.3339 139.657 28.666 139.996C28.9981 140.335 29.2571 140.713 29.463 141.139C29.6623 141.564 29.7619 142.035 29.7619 142.547C29.7553 143.164 29.6025 143.689 29.3036 144.107C28.9981 144.526 28.6129 144.858 28.1347 145.097C27.6631 145.336 27.1251 145.489 26.5207 145.549C25.9163 145.608 25.3252 145.595 24.7208 145.502C24.2825 145.436 23.8507 145.336 23.4323 145.183C23.0139 145.037 22.6486 144.851 22.3231 144.619C22.0043 144.393 21.7387 144.127 21.5394 143.828C21.3402 143.53 21.2339 143.197 21.2405 142.819C21.2405 142.606 21.287 142.341 21.3734 142.022C21.4597 141.703 21.5859 141.411 21.7453 141.139C21.566 140.939 21.5394 140.7 21.6656 140.415ZM23.3858 141.285C23.2729 141.451 23.1268 141.643 22.9408 141.862C22.7615 142.082 22.6685 142.274 22.6619 142.44C22.6619 142.62 22.7482 142.799 22.9209 142.978C23.0936 143.151 23.2928 143.304 23.5187 143.437C23.7445 143.569 23.9769 143.676 24.216 143.769C24.4485 143.862 24.6411 143.921 24.7806 143.955C25.0197 144.001 25.2987 144.034 25.6307 144.054C25.9628 144.074 26.2883 144.054 26.6137 143.994C26.9392 143.935 27.2314 143.822 27.4904 143.649C27.7495 143.476 27.9421 143.217 28.055 142.872C28.1214 142.659 28.1148 142.414 28.0483 142.121C27.9819 141.836 27.8491 141.55 27.6631 141.265C27.4772 140.986 27.2248 140.713 26.9126 140.461C26.6004 140.209 26.2351 140.016 25.83 139.877C25.3717 139.724 24.9001 139.717 24.402 139.857C23.9039 139.996 23.5452 140.288 23.3194 140.72C23.3991 140.826 23.439 140.933 23.4323 141.039C23.4323 141.145 23.419 141.225 23.3858 141.285Z" fill="#1E1E1E" stroke="#1E1E1E" stroke-width="1.0249" stroke-miterlimit="10"/>
<path d="M18.8961 134.537C20.6163 134.477 22.3897 134.357 24.2294 134.191C26.0692 134.025 27.8226 133.839 29.4964 133.64C30.1871 133.6 30.5458 133.786 30.559 134.191C30.559 134.284 30.5192 134.371 30.4528 134.464C30.3864 134.557 30.2867 134.636 30.1805 134.709C30.0742 134.782 29.948 134.855 29.8218 134.922C29.6956 134.988 29.5827 135.028 29.4897 135.041C28.6861 135.154 27.8359 135.261 26.9326 135.36C26.036 135.46 25.1327 135.546 24.2228 135.626C23.3129 135.706 22.4295 135.765 21.5594 135.825C20.6894 135.878 19.899 135.912 19.1684 135.918C18.7898 135.885 18.471 135.832 18.212 135.752C17.953 135.672 17.8334 135.513 17.8467 135.274C17.8666 135.015 17.9729 134.829 18.1721 134.723C18.3714 134.61 18.6105 134.543 18.8961 134.537Z" fill="#1E1E1E" stroke="#1E1E1E" stroke-width="1.0249" stroke-miterlimit="10"/>
<path d="M21.7722 126.493C21.9516 126.042 22.2106 125.663 22.5626 125.351C22.9146 125.046 23.3065 124.806 23.7382 124.647C24.1699 124.481 24.6216 124.395 25.0732 124.375C25.5315 124.355 25.9566 124.408 26.3484 124.534C26.7868 124.707 27.2185 124.919 27.6436 125.178C28.0686 125.437 28.4406 125.736 28.7727 126.075C29.1048 126.407 29.3638 126.792 29.5697 127.217C29.7689 127.642 29.8686 128.114 29.8686 128.625C29.8619 129.243 29.7092 129.768 29.4103 130.186C29.1114 130.605 28.7195 130.937 28.248 131.176C27.7764 131.415 27.2384 131.568 26.634 131.627C26.0296 131.687 25.4385 131.674 24.8341 131.581C24.3957 131.515 23.964 131.415 23.5456 131.262C23.1272 131.116 22.7619 130.93 22.4364 130.698C22.1176 130.472 21.8519 130.206 21.6527 129.907C21.4534 129.608 21.3472 129.276 21.3538 128.898C21.3538 128.685 21.4003 128.42 21.4866 128.101C21.573 127.782 21.6992 127.49 21.8586 127.217C21.6726 127.025 21.6394 126.779 21.7722 126.493ZM23.4858 127.37C23.3729 127.536 23.2268 127.729 23.0475 127.948C22.8681 128.167 22.7751 128.36 22.7685 128.526C22.7685 128.705 22.8548 128.884 23.0275 129.064C23.2002 129.236 23.3995 129.389 23.6253 129.522C23.8511 129.655 24.0836 129.761 24.3227 129.854C24.5551 129.947 24.7478 130.007 24.8872 130.04C25.1263 130.087 25.4053 130.12 25.7374 130.14C26.0695 130.16 26.3949 130.14 26.7204 130.08C27.0458 130.02 27.338 129.907 27.5971 129.735C27.8561 129.562 28.0487 129.303 28.1616 128.958C28.228 128.745 28.2214 128.499 28.155 128.207C28.0886 127.921 27.9557 127.636 27.7698 127.35C27.5838 127.071 27.3314 126.799 27.0192 126.547C26.7071 126.294 26.3418 126.102 25.9366 125.962C25.4783 125.809 25.0068 125.803 24.5087 125.942C24.0105 126.082 23.6519 126.374 23.426 126.806C23.5057 126.912 23.5456 127.018 23.5389 127.124C23.5389 127.224 23.519 127.31 23.4858 127.37Z" fill="#1E1E1E" stroke="#1E1E1E" stroke-width="1.0249" stroke-miterlimit="10"/>
<path d="M21.9445 115.754C22.0972 116.026 22.2633 116.311 22.436 116.61C22.6087 116.909 22.8079 117.201 23.0337 117.5C23.2596 117.799 23.5252 118.078 23.8307 118.344C24.1363 118.609 24.5016 118.855 24.9266 119.068C25.5244 119.373 26.1354 119.586 26.7531 119.692C27.3775 119.805 27.9819 119.878 28.5863 119.911C28.8719 119.911 29.1574 119.978 29.4497 120.111C29.7419 120.243 29.888 120.423 29.8814 120.648C29.8814 120.934 29.722 121.167 29.4165 121.339C29.111 121.512 28.8121 121.625 28.5265 121.685C27.404 121.937 26.2948 122.136 25.199 122.296C24.1031 122.455 23.0072 122.588 21.9246 122.701C21.7054 122.701 21.5659 122.634 21.4995 122.502C21.4397 122.375 21.4131 122.223 21.4331 122.057C21.453 121.877 21.4995 121.705 21.5792 121.538C21.6589 121.372 21.7851 121.273 21.9578 121.246C22.5422 121.193 23.1533 121.12 23.7909 121.034C24.4285 120.947 24.9798 120.861 25.4381 120.775C24.9001 120.708 24.382 120.542 23.8839 120.263C23.3791 119.984 22.9275 119.646 22.5223 119.24C22.1172 118.835 21.7718 118.377 21.4928 117.872C21.2139 117.367 21.0279 116.843 20.9349 116.311C20.9084 116.086 20.9084 115.893 20.9416 115.747C20.9748 115.594 21.0279 115.488 21.1076 115.428C21.1873 115.368 21.3135 115.355 21.4862 115.395C21.6456 115.441 21.805 115.561 21.9445 115.754Z" fill="#1E1E1E" stroke="#1E1E1E" stroke-width="1.0249" stroke-miterlimit="10"/>
<path d="M354.326 81.5419C353.13 78.6395 349.663 79.1708 347.093 79.1376C340.803 79.0645 334.5 79.0313 328.204 79.0446C313.18 79.0778 298.057 79.0911 283.06 80.001C282.595 80.0276 282.083 80.0807 281.744 80.3995C281.552 80.5789 281.432 80.8246 281.333 81.0704C280.536 82.9566 279.878 85.3609 280.323 87.4C280.622 88.7814 281.552 90.0899 282.9 90.5282C283.485 90.7208 284.109 90.7408 284.727 90.7607C302.361 91.2854 319.981 91.2123 337.622 91.2123C342.762 91.1459 347.903 91.0463 353.044 90.9135C353.622 90.9002 354.166 90.515 354.326 89.9371C355.016 87.3734 355.368 84.0724 354.326 81.5419ZM282.601 81.8873C287.363 81.7744 292.179 81.688 296.928 81.6415L308.81 81.6947C322.412 81.7611 336.911 80.5589 351.443 81.1434C351.755 81.1501 352.22 81.17 352.366 81.2298C352.439 81.2763 352.652 81.5951 352.738 82.0666C352.918 83.0762 352.645 87.4996 352.134 89.1999C337.27 90.1629 322.146 88.5158 307.422 88.4826L303.795 88.4626C298.369 88.4361 292.743 88.3763 287.098 88.2634H286.786C286.473 88.2634 286.161 88.27 285.836 88.27C285.544 88.2767 285.245 88.2833 284.946 88.2833C283.226 88.2767 282.86 88.0044 282.807 87.9446C282.807 87.9446 282.787 87.9114 282.754 87.825C282.282 86.4037 282.229 84.265 282.601 81.8873Z" fill="#1E1E1E"/>
<path d="M364.521 88.7149C365.716 91.6174 369.183 91.086 371.754 91.1192C378.044 91.1923 384.347 91.2255 390.643 91.2122C405.667 91.179 420.79 91.1657 435.787 90.2558C436.252 90.2292 436.763 90.1761 437.102 89.8573C437.295 89.678 437.414 89.4322 437.514 89.1865C438.311 87.3002 438.969 84.8959 438.524 82.8569C438.225 81.4754 437.295 80.1669 435.946 79.7286C435.362 79.536 434.738 79.516 434.12 79.4961C416.486 78.9714 398.865 79.0445 381.225 79.0445C376.084 79.1109 370.943 79.2105 365.803 79.3434C365.225 79.3566 364.68 79.7419 364.521 80.3197C363.83 82.8834 363.478 86.1844 364.521 88.7149ZM436.252 88.3762C431.49 88.4891 426.675 88.5754 421.926 88.6219L410.044 88.5688C396.441 88.5024 381.942 89.7045 367.41 89.12C367.098 89.1134 366.633 89.0935 366.487 89.0337C366.414 88.9872 366.201 88.6684 366.115 88.1968C365.936 87.1873 366.208 82.7639 366.719 81.0636C381.584 80.1005 396.707 81.7477 411.432 81.7809L415.058 81.8008C420.484 81.8274 426.11 81.8872 431.756 82.0001H432.068C432.38 82.0001 432.692 81.9934 433.017 81.9934C433.31 81.9868 433.609 81.9801 433.907 81.9801C435.628 81.9868 435.993 82.2591 436.046 82.3189C436.046 82.3189 436.066 82.3521 436.099 82.4384C436.571 83.8531 436.624 85.9918 436.252 88.3762Z" fill="#1E1E1E"/>
<path d="M302.135 84.2517C296.894 84.3779 291.647 84.3646 286.407 84.2185C285.265 84.1853 285.265 85.9586 286.407 85.9918C291.647 86.1446 296.894 86.1512 302.135 86.025C303.277 85.9985 303.284 84.2251 302.135 84.2517Z" fill="#1E1E1E"/>
<path d="M307.668 86.0782C312.908 85.952 318.155 85.9653 323.396 86.1114C324.538 86.1446 324.538 84.3713 323.396 84.3381C318.155 84.1853 312.908 84.1787 307.668 84.3048C306.526 84.3314 306.519 86.1048 307.668 86.0782Z" fill="#1E1E1E"/>
<path d="M391.029 84.2317C384.121 84.2649 377.207 84.3048 370.3 84.338C369.011 84.3446 369.011 86.3504 370.3 86.3438C377.207 86.3106 384.121 86.2707 391.029 86.2375C392.317 86.2309 392.317 84.2251 391.029 84.2317Z" fill="#1E1E1E"/>
<path d="M347.797 84.2583C346.09 84.2583 346.084 86.915 347.797 86.915C349.511 86.915 349.511 84.2583 347.797 84.2583Z" fill="#1E1E1E"/>
<path d="M432.858 85.0488C432.792 84.823 432.679 84.6304 432.519 84.4643C432.433 84.3979 432.34 84.3248 432.254 84.2584C432.048 84.1389 431.822 84.0791 431.583 84.0791H431.025C430.839 84.0724 430.673 84.1123 430.514 84.192C430.347 84.2451 430.208 84.3381 430.088 84.4643C429.956 84.5839 429.869 84.73 429.816 84.8894C429.73 85.0488 429.697 85.2215 429.703 85.4008C429.716 85.5204 429.736 85.6333 429.75 85.7528C429.816 85.9786 429.929 86.1712 430.088 86.3373C430.175 86.4037 430.268 86.4768 430.354 86.5432C430.56 86.6627 430.786 86.7225 431.025 86.7225H431.583C431.769 86.7292 431.935 86.6893 432.094 86.6096C432.26 86.5565 432.4 86.4635 432.519 86.3373C432.652 86.2177 432.739 86.0716 432.792 85.9122C432.878 85.7528 432.911 85.5801 432.905 85.4008C432.891 85.2879 432.878 85.1683 432.858 85.0488Z" fill="#1E1E1E"/>
<path d="M225.555 115.116C225.389 115.116 225.223 114.99 225.044 114.731C224.871 114.472 224.778 114.226 224.758 113.987C224.639 113.11 224.493 112.094 224.32 110.925C224.147 109.756 223.915 108.375 223.629 106.774C223.178 107.631 222.733 108.487 222.294 109.331C221.856 110.174 221.417 111.018 220.986 111.861C220.713 112.386 220.434 112.652 220.149 112.652C219.724 112.652 219.398 112.433 219.153 111.994C218.628 111.224 218.077 110.507 217.512 109.836C216.948 109.165 216.363 108.501 215.759 107.837C215.725 108.846 215.739 109.836 215.792 110.812C215.845 111.782 215.938 112.732 216.077 113.648C216.111 113.814 216.091 113.96 216.024 114.086C215.958 114.213 215.885 114.292 215.812 114.326C215.599 114.399 215.387 114.359 215.181 114.193C214.968 114.027 214.842 113.847 214.796 113.648C214.663 113.104 214.563 112.506 214.503 111.842C214.444 111.177 214.404 110.507 214.377 109.829C214.357 109.152 214.344 108.481 214.344 107.817C214.344 107.152 214.351 106.548 214.364 106.01C214.364 105.406 214.557 105.107 214.955 105.107C215.194 105.107 215.4 105.193 215.566 105.366C215.732 105.539 215.825 105.784 215.838 106.103C216.589 106.854 217.306 107.631 217.977 108.421C218.648 109.211 219.299 110.015 219.93 110.825C220.454 109.876 220.992 108.899 221.537 107.896C222.082 106.893 222.693 105.917 223.37 104.967C223.397 104.801 223.483 104.635 223.616 104.456C223.749 104.283 223.901 104.164 224.068 104.104C224.234 104.044 224.406 104.111 224.586 104.31C224.765 104.502 224.884 104.728 224.944 104.987C225.203 106.508 225.422 108.029 225.608 109.55C225.794 111.071 225.98 112.592 226.16 114.12C226.193 114.405 226.14 114.644 226 114.83C225.874 115.023 225.721 115.116 225.555 115.116Z" fill="#1E1E1E" stroke="#1E1E1E" stroke-miterlimit="10"/>
<path d="M233.2 106.389C233.652 106.555 234.03 106.8 234.342 107.133C234.655 107.465 234.887 107.837 235.053 108.248C235.219 108.66 235.312 109.085 235.339 109.524C235.365 109.962 235.312 110.367 235.193 110.746C235.027 111.171 234.814 111.583 234.562 111.988C234.303 112.393 234.01 112.758 233.678 113.07C233.346 113.382 232.968 113.642 232.549 113.841C232.124 114.033 231.659 114.133 231.148 114.133C230.53 114.133 230.012 113.987 229.587 113.701C229.162 113.416 228.836 113.044 228.591 112.592C228.352 112.14 228.192 111.629 228.126 111.058C228.059 110.487 228.073 109.915 228.159 109.338C228.219 108.919 228.318 108.507 228.464 108.109C228.611 107.71 228.79 107.358 229.016 107.046C229.242 106.734 229.501 106.488 229.793 106.289C230.085 106.096 230.424 105.997 230.796 105.997C231.008 105.997 231.267 106.037 231.586 106.123C231.905 106.209 232.197 106.322 232.469 106.475C232.669 106.302 232.908 106.269 233.2 106.389ZM232.337 108.042C232.171 107.936 231.978 107.797 231.759 107.624C231.54 107.451 231.347 107.365 231.181 107.365C231.002 107.365 230.822 107.451 230.65 107.617C230.477 107.783 230.324 107.976 230.198 108.195C230.072 108.414 229.959 108.634 229.873 108.859C229.78 109.085 229.72 109.265 229.693 109.404C229.647 109.63 229.62 109.902 229.6 110.214C229.587 110.533 229.607 110.845 229.667 111.151C229.726 111.463 229.846 111.735 230.019 111.988C230.191 112.233 230.45 112.413 230.796 112.519C231.008 112.579 231.254 112.572 231.54 112.506C231.825 112.439 232.111 112.313 232.39 112.134C232.669 111.954 232.934 111.715 233.18 111.41C233.426 111.111 233.618 110.759 233.758 110.367C233.911 109.929 233.911 109.477 233.771 108.999C233.625 108.527 233.34 108.182 232.901 107.969C232.795 108.042 232.689 108.082 232.582 108.082C232.483 108.089 232.396 108.069 232.337 108.042Z" fill="#1E1E1E" stroke="#1E1E1E" stroke-miterlimit="10"/>
<path d="M238.573 106.82C238.619 107.046 238.666 107.299 238.719 107.578C238.772 107.857 238.825 108.142 238.892 108.434C238.951 108.727 239.005 109.026 239.051 109.324C239.098 109.623 239.131 109.909 239.164 110.181C239.343 109.789 239.543 109.378 239.748 108.939C239.961 108.501 240.187 108.102 240.439 107.73C240.685 107.358 240.951 107.06 241.23 106.814C241.508 106.568 241.814 106.455 242.146 106.455C242.644 106.455 243.063 106.635 243.401 107C243.74 107.358 244.026 107.81 244.258 108.341C244.491 108.879 244.677 109.437 244.809 110.028C244.942 110.613 245.055 111.138 245.148 111.589C245.241 111.994 245.055 112.3 244.604 112.493C244.391 112.599 244.232 112.612 244.132 112.539C244.026 112.466 243.966 112.386 243.953 112.313C243.88 112.134 243.78 111.815 243.667 111.363C243.554 110.912 243.428 110.454 243.282 109.982C243.136 109.517 242.976 109.105 242.797 108.76C242.618 108.414 242.412 108.255 242.186 108.288C241.914 108.302 241.675 108.507 241.462 108.899C241.283 109.218 241.097 109.564 240.911 109.949C240.725 110.334 240.539 110.726 240.359 111.124C240.18 111.523 240.001 111.921 239.828 112.32C239.655 112.718 239.496 113.084 239.343 113.416C239.237 113.522 239.104 113.595 238.945 113.628C238.785 113.662 238.626 113.655 238.46 113.595C238.307 113.549 238.188 113.476 238.101 113.369C238.008 113.263 237.968 113.157 237.968 113.05C237.836 111.875 237.696 110.806 237.55 109.842C237.404 108.879 237.225 107.89 236.999 106.88C236.892 106.535 236.873 106.256 236.946 106.057C237.012 105.851 237.238 105.778 237.61 105.818C238.128 105.917 238.453 106.249 238.573 106.82Z" fill="#1E1E1E" stroke="#1E1E1E" stroke-miterlimit="10"/>
<path d="M251.843 108.222C252.129 108.208 252.414 108.275 252.7 108.428C252.985 108.58 253.131 108.813 253.131 109.125C253.098 109.384 252.965 109.543 252.713 109.61C252.467 109.676 252.261 109.709 252.115 109.709C251.816 109.709 251.491 109.716 251.146 109.729C250.8 109.743 250.442 109.769 250.083 109.796C250.05 110.294 250.03 110.759 250.003 111.197C249.983 111.636 249.963 112.021 249.95 112.36C249.937 112.698 249.93 112.971 249.93 113.183C249.93 113.396 249.937 113.509 249.95 113.522C250.282 113.462 250.641 113.362 251.026 113.216C251.411 113.077 251.796 112.917 252.182 112.745C252.567 112.572 252.945 112.393 253.311 112.2C253.683 112.014 254.028 111.835 254.36 111.669C254.513 111.596 254.652 111.569 254.779 111.602C254.905 111.629 254.985 111.702 255.018 111.808C255.051 111.974 255.024 112.18 254.951 112.419C254.878 112.658 254.739 112.878 254.546 113.077C254.32 113.256 254.021 113.462 253.656 113.701C253.284 113.934 252.892 114.159 252.467 114.365C252.042 114.578 251.617 114.764 251.192 114.917C250.76 115.076 250.382 115.169 250.05 115.202C249.552 115.249 249.173 115.109 248.921 114.797C248.662 114.478 248.522 114.08 248.489 113.602C248.456 113.117 248.456 112.559 248.476 111.928C248.495 111.297 248.522 110.626 248.555 109.915C248.27 109.949 247.991 109.969 247.732 109.995C247.466 110.015 247.214 110.042 246.975 110.075C246.782 110.075 246.563 110.028 246.33 109.942C246.098 109.849 245.978 109.676 245.978 109.424C245.978 109.331 246.018 109.211 246.091 109.065C246.164 108.912 246.33 108.8 246.589 108.727C247.207 108.62 247.891 108.534 248.648 108.454C248.695 107.744 248.748 107.059 248.808 106.395C248.867 105.731 248.921 105.127 248.967 104.589C248.98 104.409 249.033 104.25 249.126 104.117C249.219 103.984 249.312 103.911 249.419 103.911C249.678 103.898 249.917 103.958 250.156 104.104C250.388 104.25 250.508 104.409 250.508 104.589C250.448 105.1 250.388 105.685 250.335 106.329C250.282 106.98 250.236 107.637 250.189 108.321C250.488 108.295 250.78 108.275 251.059 108.268C251.338 108.262 251.584 108.235 251.843 108.222Z" fill="#1E1E1E" stroke="#1E1E1E" stroke-miterlimit="10"/>
<path d="M257.516 104.27C257.516 104.629 257.509 105.04 257.502 105.492C257.496 105.944 257.496 106.409 257.502 106.893C257.509 107.378 257.516 107.876 257.522 108.388C257.529 108.899 257.542 109.391 257.556 109.856C257.708 109.557 257.888 109.258 258.1 108.966C258.313 108.673 258.545 108.414 258.811 108.189C259.077 107.963 259.355 107.783 259.648 107.644C259.94 107.504 260.259 107.438 260.611 107.438C260.989 107.438 261.321 107.558 261.614 107.797C261.906 108.036 262.165 108.361 262.384 108.76C262.603 109.158 262.789 109.603 262.935 110.095C263.088 110.586 263.208 111.084 263.307 111.589C263.407 112.094 263.48 112.579 263.52 113.037C263.566 113.495 263.6 113.894 263.633 114.226C263.633 114.465 263.573 114.664 263.453 114.81C263.334 114.963 263.188 115.036 263.022 115.036C262.902 115.036 262.756 114.956 262.583 114.797C262.411 114.638 262.284 114.445 262.211 114.219C262.165 114.04 262.118 113.774 262.079 113.429C262.032 113.084 261.979 112.712 261.919 112.313C261.859 111.915 261.786 111.509 261.693 111.104C261.6 110.699 261.494 110.334 261.368 110.008C261.242 109.683 261.082 109.431 260.903 109.251C260.724 109.072 260.511 108.999 260.272 109.045C259.893 109.118 259.568 109.384 259.289 109.836C259.01 110.287 258.771 110.799 258.565 111.37C258.359 111.941 258.193 112.526 258.067 113.11C257.941 113.695 257.848 114.173 257.781 114.531C257.722 114.804 257.642 114.99 257.542 115.083C257.443 115.182 257.336 115.229 257.217 115.229C257.097 115.229 256.984 115.169 256.891 115.049C256.792 114.93 256.705 114.784 256.619 114.611C256.533 114.438 256.466 114.259 256.407 114.066C256.347 113.881 256.307 113.714 256.294 113.582C256.221 112.771 256.161 111.988 256.114 111.244C256.068 110.5 256.035 109.749 256.015 108.992C255.995 108.242 255.981 107.465 255.981 106.674C255.981 105.884 255.995 105.034 256.028 104.13C256.028 103.38 256.3 103.041 256.845 103.114C257.024 103.147 257.184 103.274 257.316 103.513C257.449 103.752 257.516 103.998 257.516 104.27Z" fill="#1E1E1E" stroke="#1E1E1E" stroke-miterlimit="10"/>
<path d="M277.501 113.648C277.514 113.781 277.521 113.92 277.521 114.067C277.521 114.213 277.507 114.339 277.487 114.465C277.467 114.585 277.414 114.684 277.341 114.771C277.268 114.857 277.162 114.897 277.022 114.897C276.903 114.897 276.783 114.864 276.67 114.804C276.558 114.744 276.465 114.671 276.385 114.578C276.312 114.485 276.245 114.392 276.192 114.292C276.139 114.193 276.106 114.113 276.093 114.053L275.887 112.831C275.541 112.937 275.183 113.037 274.824 113.137C274.465 113.236 274.093 113.343 273.715 113.462C273.489 113.535 273.283 113.575 273.104 113.575C272.925 113.575 272.725 113.469 272.519 113.256C272.426 113.137 272.387 113.017 272.387 112.904C272.387 112.791 272.413 112.685 272.466 112.585C272.519 112.486 272.592 112.406 272.679 112.333C272.772 112.267 272.851 112.207 272.925 112.167C273.376 112.014 273.828 111.868 274.279 111.729C274.731 111.589 275.196 111.45 275.681 111.31C275.608 110.752 275.535 110.201 275.475 109.65C275.415 109.098 275.362 108.541 275.316 107.963C274.831 108.036 274.352 108.129 273.868 108.235C273.383 108.341 272.878 108.461 272.353 108.594C272.068 108.667 271.815 108.66 271.596 108.574C271.377 108.481 271.238 108.368 271.178 108.235C271.178 107.903 271.257 107.664 271.423 107.511C271.59 107.358 271.775 107.232 271.988 107.126C272.486 106.96 273.004 106.82 273.549 106.707C274.093 106.595 274.651 106.502 275.223 106.422C275.189 105.983 275.176 105.552 275.163 105.12C275.156 104.688 275.156 104.257 275.176 103.818C275.176 103.745 275.189 103.652 275.209 103.546C275.229 103.44 275.276 103.34 275.335 103.254C275.395 103.161 275.468 103.081 275.561 103.015C275.654 102.948 275.767 102.915 275.9 102.915C276.159 102.961 276.338 103.068 276.451 103.24C276.564 103.413 276.631 103.646 276.644 103.931C276.657 104.323 276.67 104.708 276.69 105.087C276.704 105.465 276.73 105.851 276.757 106.243C277.208 106.209 277.66 106.189 278.112 106.176C278.563 106.163 279.008 106.169 279.447 106.196C279.46 105.671 279.48 105.147 279.5 104.622C279.52 104.104 279.573 103.579 279.646 103.048C279.659 102.942 279.686 102.829 279.726 102.696C279.766 102.57 279.812 102.45 279.872 102.337C279.932 102.224 280.005 102.125 280.098 102.045C280.191 101.965 280.304 101.919 280.436 101.919C280.735 101.919 280.921 102.065 280.981 102.35C281.041 102.636 281.054 102.928 281.027 103.234C280.981 103.745 280.941 104.257 280.915 104.761C280.881 105.266 280.868 105.764 280.868 106.262C281.107 106.296 281.353 106.329 281.592 106.362C281.831 106.402 282.064 106.435 282.296 106.462C282.475 106.495 282.641 106.541 282.794 106.608C282.947 106.674 283.06 106.794 283.133 106.96C283.206 107.126 283.199 107.312 283.113 107.511C283.02 107.717 282.827 107.81 282.529 107.79C282.243 107.763 281.964 107.737 281.692 107.71C281.419 107.69 281.147 107.67 280.875 107.657C280.888 108.474 280.934 109.284 281.008 110.101C281.399 110.028 281.798 109.955 282.203 109.895C282.608 109.836 283.027 109.776 283.445 109.716C283.837 109.69 284.096 109.836 284.216 110.168C284.262 110.427 284.229 110.613 284.116 110.732C284.003 110.852 283.797 110.952 283.492 111.025C283.1 111.098 282.708 111.177 282.316 111.264C281.924 111.35 281.532 111.423 281.14 111.503C281.174 111.775 281.207 112.047 281.253 112.32C281.3 112.592 281.346 112.858 281.386 113.11C281.399 113.23 281.419 113.376 281.439 113.548C281.459 113.721 281.472 113.894 281.472 114.06C281.472 114.226 281.453 114.372 281.406 114.492C281.36 114.611 281.28 114.684 281.16 114.717C281.027 114.751 280.901 114.737 280.788 114.684C280.675 114.631 280.576 114.558 280.483 114.458C280.39 114.359 280.317 114.246 280.257 114.12C280.197 113.993 280.157 113.867 280.144 113.748C280.071 113.429 280.005 113.11 279.952 112.785C279.898 112.459 279.852 112.14 279.805 111.822C279.38 111.928 278.969 112.027 278.563 112.127C278.158 112.227 277.74 112.326 277.321 112.433C277.355 112.645 277.381 112.844 277.401 113.044C277.441 113.256 277.467 113.449 277.501 113.648ZM279.646 110.394C279.586 109.929 279.546 109.464 279.52 109.005C279.493 108.547 279.48 108.089 279.467 107.637C279.028 107.637 278.597 107.644 278.165 107.657C277.733 107.67 277.301 107.704 276.863 107.75C276.91 108.275 276.956 108.806 277.009 109.344C277.062 109.882 277.115 110.414 277.182 110.938C278.025 110.726 278.849 110.54 279.646 110.394Z" fill="#1E1E1E" stroke="#1E1E1E" stroke-miterlimit="10"/>
<path d="M200.855 111.051C200.117 110.56 199.373 110.062 198.636 109.57C199.46 109.178 200.283 108.78 201.094 108.361C201.512 108.142 201.672 107.525 201.419 107.133C201.147 106.708 200.635 106.581 200.19 106.807C198.928 107.458 197.653 108.076 196.358 108.654C196.079 108.78 195.913 109.139 195.913 109.431C195.913 109.763 196.092 110.029 196.358 110.208C197.554 111.005 198.749 111.808 199.951 112.606C200.343 112.865 200.967 112.692 201.18 112.28C201.412 111.828 201.273 111.33 200.855 111.051Z" fill="#1E1E1E"/>
<path d="M296.218 108.368C296.955 108.86 297.699 109.358 298.436 109.849C297.612 110.241 296.789 110.64 295.979 111.058C295.56 111.277 295.401 111.895 295.653 112.287C295.925 112.712 296.437 112.838 296.882 112.612C298.144 111.961 299.419 111.344 300.714 110.766C300.993 110.64 301.159 110.281 301.159 109.989C301.159 109.657 300.98 109.391 300.714 109.212C299.519 108.415 298.323 107.611 297.121 106.814C296.729 106.555 296.105 106.728 295.892 107.139C295.66 107.591 295.799 108.089 296.218 108.368Z" fill="#1E1E1E"/>
<path d="M405.328 47.0445L404.604 35.9262C404.577 35.5277 404.325 35.1889 403.953 35.0561C403.667 34.9498 403.342 34.9698 403.089 35.1092L402.963 35.1757L402.824 35.1624C402.777 35.1557 402.737 35.1557 402.684 35.1557C390.716 35.3749 378.621 35.5343 366.739 35.6339C365.098 35.6472 356.059 35.6738 343.559 35.7136C315.166 35.8 300.846 35.9395 297.04 36.0723C290.863 36.2915 284.281 36.504 277.759 36.5239C273.688 36.5173 269.537 36.4774 265.525 36.4376C262.828 36.411 260.172 36.3845 257.522 36.3645C257.163 36.3645 256.877 36.5239 256.705 36.8095C256.519 37.1217 256.519 37.5468 256.698 37.8589C256.864 38.1578 257.156 38.3172 257.515 38.3239C264.057 38.3703 270.666 38.191 277.055 38.025C282.468 37.8855 288.021 37.7394 293.474 37.7195C296.814 37.7062 273.694 37.6929 286.772 37.673C321.502 37.6198 373.985 37.5401 382.573 37.4339C389.088 37.3475 395.717 37.2479 402.272 37.1283L402.717 37.1217L403.348 46.8785C403.368 47.1441 403.388 47.4098 403.415 47.6755C403.468 48.2467 403.521 48.8178 403.501 49.4023L403.488 49.7875L403.103 49.8473C402.976 49.8673 402.777 49.8739 402.651 49.8739H402.565C401.296 49.9005 400.027 49.9071 398.759 49.9204L397.052 49.9337C389.653 50.0134 382.194 50.0731 374.882 50.1196C370.086 50.1528 328.555 50.1728 298.222 50.1927C282.016 50.1993 302.214 50.2126 299.67 50.2126C292.212 50.2259 284.753 50.2259 277.5 50.2126C270.161 50.1993 262.735 50.1661 255.429 50.1263L254.307 50.1196L254.214 50.0731C254.088 50.0134 253.935 49.9802 253.756 49.9802C236.859 50.2325 219.65 50.3388 202.627 50.3056C185.757 50.2724 168.641 50.0864 151.745 49.7676L151.366 49.761C146.836 49.6746 142.147 49.5883 137.545 49.4621C132.763 49.3359 128.758 49.0968 124.773 48.3529L124.447 48.2931L124.394 47.9677C123.723 43.7037 123.829 39.3998 124.719 35.1624L124.799 34.7904H125.178L177.734 35.2354C181.168 35.262 184.595 35.2952 188.029 35.3284C202.162 35.4612 216.761 35.6007 231.207 35.4612C241.156 35.3616 251.278 35.1491 261.287 34.8104C261.852 34.7904 262.251 34.3521 262.231 33.7676C262.211 33.2163 261.825 32.8377 261.274 32.851C244.285 33.4156 226.272 33.6414 207.742 33.5219C195.428 33.4421 183.12 33.3292 170.807 33.223C165.267 33.1765 159.728 33.1233 154.189 33.0769L124.068 32.8245C123.803 32.8311 123.557 32.9241 123.398 33.0835C123.258 33.223 123.159 33.4156 123.125 33.6215L123.112 33.7145L123.059 33.7942C122.999 33.8871 122.959 33.9868 122.933 34.0997C121.797 39.1341 121.697 44.2682 122.634 49.3758C122.694 49.6946 123.006 50.0134 123.338 50.0798C127.775 51.003 132.311 51.2554 135.758 51.3749C139.092 51.4878 142.473 51.5543 145.734 51.614L148.338 51.6672C156.806 51.8399 165.367 51.9727 173.782 52.0723C185.419 52.2052 197.267 52.2782 208.99 52.2782C214.317 52.2782 219.637 52.2649 224.93 52.2384C233.664 52.1919 242.803 52.0989 252.089 51.966H252.182L252.268 51.9993C252.381 52.0458 252.507 52.0723 252.633 52.0723C260.099 52.1188 267.69 52.152 275.202 52.1719C282.475 52.1919 290.066 52.1919 297.771 52.1786C300.228 52.1719 278.842 52.1653 293.865 52.1587C325.334 52.1387 368.433 52.1188 373.474 52.0856C381.019 52.0391 388.61 51.9793 396.042 51.8996C397.949 51.8797 399.855 51.8598 401.761 51.8399H402.113C402.744 51.8399 403.421 51.8399 404.019 51.6074C404.829 51.2952 405.341 50.5978 405.427 49.6879C405.487 49.057 405.421 48.4061 405.361 47.7817L405.826 47.7352L405.361 47.7618C405.361 47.5227 405.341 47.2836 405.328 47.0445Z" fill="#1E1E1E"/>
<path d="M447.497 39.2867C446.859 37.241 445.663 35.5607 444.036 34.4116C442.336 33.2161 440.257 32.7645 438.337 33.1696C437.992 33.2427 437.733 33.4685 437.627 33.7807C437.514 34.1327 437.607 34.5511 437.873 34.8434C438.118 35.1223 438.477 35.2286 438.849 35.1489C441.645 34.5511 444.229 36.7031 445.232 39.0277C445.776 40.283 446.029 41.7707 445.995 43.4511C445.962 45.0385 445.856 46.6723 444.946 47.6753C443.976 48.7379 442.429 49.0966 441.353 49.2693C439.739 49.535 438.012 49.4619 436.358 49.0567C434.844 48.6914 433.336 48.18 432.546 46.9181C431.736 45.6296 431.271 43.9625 431.244 42.2356C431.211 40.3427 431.795 38.9081 432.971 37.965C434.24 36.9488 435.88 36.5702 437.036 36.4307C437.627 36.3577 438.025 35.9459 438.025 35.4079C438.025 35.1223 437.879 34.8168 437.653 34.6175C437.454 34.4382 437.208 34.3585 436.969 34.3851C432.685 34.9031 429.823 37.1879 429.311 40.4889C428.999 42.5146 429.271 44.6466 430.115 46.6524C430.56 47.7151 431.045 48.4789 431.643 49.0634C432.393 49.8006 433.336 50.2191 434.16 50.5312C435.794 51.1489 437.574 51.4743 439.347 51.4743C439.619 51.4743 439.892 51.4677 440.164 51.4544C442.422 51.3282 444.142 50.8367 445.424 49.9534C446.261 49.3755 446.872 48.6715 447.244 47.8679C447.643 47.0044 447.809 46.0945 447.935 45.0053C448.181 42.9131 448.028 40.9936 447.497 39.2867Z" fill="#1E1E1E"/>
<path d="M436.584 40.4157C436.584 39.9042 436.238 39.3928 435.588 39.3928C434.93 39.3928 434.591 39.9109 434.591 40.4157C434.591 40.9204 434.937 41.4385 435.588 41.4385C436.238 41.4385 436.584 40.9204 436.584 40.4157Z" fill="#1E1E1E"/>
<path d="M441.068 41.2261C441.725 41.2261 442.064 40.708 442.064 40.2033C442.064 39.6918 441.718 39.1804 441.068 39.1804C440.417 39.1804 440.071 39.6985 440.071 40.2033C440.071 40.708 440.41 41.2261 441.068 41.2261Z" fill="#1E1E1E"/>
<path d="M437.886 43.9227C437.567 43.305 437.295 42.767 436.823 42.7272C436.425 42.7006 436.099 43.0526 435.894 43.3249C435.302 44.1086 435.442 45.0783 436.266 45.9218C437.069 46.7388 438.338 47.2834 439.613 47.2834C440.41 47.2834 441.207 47.0709 441.884 46.5727C442.21 46.1942 442.409 45.7093 442.509 45.0518C442.701 44.5271 442.861 43.8098 442.555 43.2718C442.376 42.9596 442.07 42.7604 441.586 42.6807C440.569 42.7471 440.549 43.5707 440.53 44.1751C440.51 44.8658 440.47 45.2975 439.865 45.4768C438.902 45.7492 438.437 45.0053 437.886 43.9227Z" fill="#1E1E1E"/>
<path d="M419.01 36.7163C418.91 36.5702 418.797 36.4241 418.658 36.3112C418.512 36.1916 418.365 36.0787 418.213 35.9791C417.987 35.833 417.761 35.6869 417.529 35.5407C417.402 35.461 417.27 35.4212 417.13 35.4146C416.984 35.3813 416.844 35.388 416.698 35.4345C416.625 35.4544 416.552 35.4876 416.479 35.5275C416.406 35.5474 416.34 35.5806 416.273 35.6205C415.994 35.7998 415.742 36.0389 415.602 36.3444C415.463 36.6499 415.357 36.9687 415.39 37.3075C415.423 37.6462 415.49 37.9783 415.689 38.2572C415.888 38.5362 416.127 38.7886 416.439 38.9347C416.585 39.0011 416.745 39.0808 416.904 39.114C416.991 39.1339 417.077 39.1406 417.163 39.1539C417.256 39.1672 417.349 39.1804 417.449 39.1804C417.788 39.1804 418.14 39.0875 418.432 38.9148C418.797 38.6956 419.069 38.3635 419.196 37.9584C419.329 37.5665 419.249 37.0617 419.01 36.7163Z" fill="#1E1E1E"/>
<path d="M419.548 46.958C419.449 46.8119 419.336 46.6658 419.196 46.5529C419.05 46.4333 418.904 46.3204 418.751 46.2208C418.525 46.0747 418.3 45.9286 418.067 45.7824C417.941 45.7027 417.808 45.6629 417.669 45.6563C417.523 45.623 417.383 45.6297 417.237 45.6762C417.164 45.6961 417.091 45.7293 417.018 45.7692C416.945 45.7891 416.878 45.8223 416.812 45.8622C416.533 46.0415 416.281 46.2806 416.141 46.5861C416.002 46.8916 415.895 47.2104 415.928 47.5492C415.962 47.8879 416.028 48.22 416.227 48.4989C416.427 48.7779 416.666 49.0303 416.978 49.1764C417.124 49.2428 417.283 49.3225 417.443 49.3557C417.529 49.3756 417.616 49.3823 417.702 49.3956C417.795 49.4089 417.888 49.4221 417.987 49.4221C418.326 49.4221 418.678 49.3292 418.97 49.1565C419.336 48.9373 419.608 48.6052 419.734 48.2001C419.867 47.8082 419.787 47.3034 419.548 46.958Z" fill="#1E1E1E"/>
<path d="M419.336 41.7642C419.303 41.5981 419.23 41.4321 419.143 41.2926C419.064 41.1598 418.971 41.0269 418.851 40.9273C418.632 40.7347 418.466 40.6351 418.194 40.5421C418.028 40.4823 417.835 40.4624 417.662 40.4823C417.363 40.5089 417.191 40.5554 416.918 40.6882C416.839 40.7281 416.759 40.7812 416.686 40.8343C416.613 40.8609 416.54 40.8875 416.467 40.9273C416.367 41.0004 416.261 41.0734 416.168 41.1664C416.081 41.2594 416.002 41.359 415.935 41.4653C415.836 41.6114 415.769 41.7841 415.729 41.9502C415.69 42.1096 415.663 42.2822 415.676 42.4416C415.696 42.7405 415.749 42.9398 415.889 43.2055C415.962 43.3516 416.075 43.491 416.194 43.604C416.321 43.7169 416.453 43.8231 416.606 43.8962C416.878 44.0224 417.045 44.0689 417.35 44.0954C417.529 44.1087 417.729 44.0822 417.901 44.0224C418.247 43.9028 418.546 43.7169 418.805 43.4512C419.044 43.2055 419.276 42.8866 419.343 42.5346C419.389 42.2358 419.389 42.0697 419.336 41.7642Z" fill="#1E1E1E"/>
<path d="M29.0917 274.817C29.0053 275.129 28.992 275.528 28.7596 275.774C28.5802 275.959 28.3079 276.046 28.0356 276.086L27.3249 276.112C26.9729 276.099 26.6076 276.013 26.3088 275.833C26.1029 275.514 25.877 275.209 25.6778 274.89C25.2594 274.206 24.8808 273.475 24.8276 272.659C24.7679 271.782 25.1 271.204 25.4453 270.44C26.0165 269.178 25.4387 268.567 24.5221 267.631C23.8712 266.967 23.8579 265.771 24.728 265.253C25.6977 264.682 25.8837 263.074 24.8276 262.45C23.8845 261.899 23.7118 260.458 24.7214 259.853C25.4918 259.395 26.0165 258.591 25.8704 257.648C25.7243 256.698 24.8077 255.974 24.4955 255.071C24.2033 254.234 24.2564 253.411 24.5487 252.594C24.8808 251.671 25.6844 250.893 25.8173 249.924C26.1228 247.739 23.2867 246.337 24.0904 244.019C24.3893 243.162 25.3324 242.764 25.5848 241.974C25.9169 240.964 24.8011 239.596 24.2033 238.885C23.4262 237.969 23.6653 236.846 24.7612 236.341C26.063 235.75 25.9567 234.289 25.359 233.273C24.7479 232.237 24.2631 231.181 24.8144 229.998C25.0269 229.547 25.3789 229.175 25.7309 228.829C26.2357 228.338 26.3486 228.431 26.1361 227.827C25.7309 226.691 24.8874 226.159 25.2527 224.791C25.3855 224.293 25.6579 223.861 26.0032 223.489C26.2291 223.244 27.0194 222.832 27.1058 222.526C27.2452 222.048 25.8638 220.866 25.5715 220.428C25.0535 219.651 24.7479 218.734 24.9738 217.797C25.1199 217.206 25.5782 216.854 25.7841 216.336C26.1892 215.34 25.4188 214.669 24.7014 214.005C24.2432 213.58 24.0373 212.75 24.3893 212.192C25.2195 210.87 26.2955 209.973 27.7899 209.495C29.6363 208.904 30.5595 211.773 28.7131 212.365C28.3478 212.484 28.029 212.63 27.7567 212.836C28.4806 213.686 29.0518 214.669 29.085 215.792C29.1049 216.509 28.8592 217.193 28.4607 217.778C27.9559 218.515 27.8297 218.495 28.4076 219.219C29.1448 220.149 30.0614 221.012 30.1543 222.274C30.2008 222.878 30.0414 223.483 29.7359 224.001C29.4437 224.492 28.4208 225.004 28.2747 225.475C28.1751 225.807 28.9787 226.658 29.1448 227.049C29.4038 227.654 29.4968 228.272 29.3374 228.916C29.1846 229.547 28.8061 230.032 28.3677 230.49C28.2216 230.643 27.7102 230.961 27.657 231.147C27.584 231.433 28.1485 232.071 28.2681 232.29C29.3573 234.329 28.7928 236.594 27.305 238.081C28.3544 239.609 29.1249 241.429 28.3743 243.209C28.1419 243.767 27.6703 244.099 27.3914 244.597C26.9796 245.334 27.0925 245.168 27.5973 246.025C28.3146 247.24 28.919 248.556 28.8459 249.997C28.7795 251.332 27.9692 252.089 27.5308 253.251C27.0526 254.513 28.3943 255.496 28.7264 256.732C29.1514 258.319 28.6998 259.986 27.6969 261.215C28.7729 262.835 28.7861 265.06 27.6305 266.634C28.2681 267.445 28.7662 268.361 28.8393 269.397C28.8858 270.141 28.6799 270.839 28.3411 271.49C28.0356 272.081 27.7633 272.121 27.9559 272.864C28.0489 273.216 28.4208 273.588 28.6134 273.887C28.8061 274.153 28.9588 274.472 29.0917 274.817Z" fill="#00A99D"/>
<path d="M29.0917 105.452C29.0053 105.764 28.992 106.163 28.7596 106.409C28.5802 106.595 28.3079 106.681 28.0356 106.721L27.3249 106.747C26.9729 106.734 26.6076 106.648 26.3088 106.468C26.1029 106.15 25.877 105.844 25.6778 105.525C25.2594 104.841 24.8808 104.11 24.8276 103.294C24.7679 102.417 25.1 101.839 25.4453 101.075C26.0165 99.8132 25.4387 99.2022 24.5221 98.2657C23.8712 97.6015 23.8579 96.406 24.728 95.888C25.6977 95.3168 25.8837 93.7095 24.8276 93.0851C23.8845 92.5339 23.7118 91.0926 24.7214 90.4882C25.4918 90.0299 26.0165 89.2263 25.8704 88.2831C25.7243 87.3334 24.8077 86.6094 24.4955 85.7061C24.2033 84.8693 24.2564 84.0457 24.5487 83.2287C24.8808 82.3055 25.6844 81.5285 25.8173 80.5588C26.1228 78.3736 23.2867 76.9722 24.0904 74.6542C24.3893 73.7974 25.3324 73.3989 25.5848 72.6086C25.9169 71.599 24.8011 70.2308 24.2033 69.5201C23.4262 68.6036 23.6653 67.4811 24.7612 66.9763C26.063 66.3852 25.9567 64.924 25.359 63.9078C24.7479 62.8717 24.2631 61.8157 24.8144 60.6334C25.0269 60.1818 25.3789 59.8099 25.7309 59.4645C26.2357 58.973 26.3486 59.066 26.1361 58.4616C25.7309 57.3258 24.8874 56.7945 25.2527 55.4263C25.3855 54.9282 25.6579 54.4964 26.0032 54.1245C26.2291 53.8788 27.0194 53.467 27.1058 53.1614C27.2452 52.6832 25.8638 51.501 25.5715 51.0626C25.0535 50.2856 24.7479 49.369 24.9738 48.4325C25.1199 47.8414 25.5782 47.4894 25.7841 46.9713C26.1892 45.9751 25.4188 45.3042 24.7014 44.6401C24.2432 44.215 24.0373 43.3848 24.3893 42.8269C25.2195 41.5051 26.2955 40.6085 27.7899 40.1303C29.6363 39.5392 30.5595 42.4084 28.7131 42.9995C28.3478 43.1191 28.029 43.2652 27.7567 43.4711C28.4806 44.3212 29.0518 45.3042 29.085 46.4267C29.1049 47.144 28.8592 47.8281 28.4607 48.4126C27.9559 49.1498 27.8297 49.1299 28.4076 49.8538C29.1448 50.7837 30.0614 51.6471 30.1543 52.9091C30.2008 53.5135 30.0414 54.1179 29.7359 54.6359C29.4437 55.1274 28.4208 55.6388 28.2747 56.1104C28.1751 56.4425 28.9787 57.2926 29.1448 57.6845C29.4038 58.2889 29.4968 58.9066 29.3374 59.5508C29.1846 60.1818 28.8061 60.6666 28.3677 61.1249C28.2216 61.2777 27.7102 61.5965 27.657 61.7825C27.584 62.0681 28.1485 62.7057 28.2681 62.9249C29.3573 64.9639 28.7928 67.2287 27.305 68.7165C28.3544 70.2441 29.1249 72.0639 28.3743 73.8439C28.1419 74.4018 27.6703 74.7339 27.3914 75.2321C26.9796 75.9759 27.0925 75.8032 27.5973 76.66C28.3146 77.8755 28.919 79.1906 28.8459 80.6318C28.7795 81.9668 27.9692 82.724 27.5308 83.8863C27.0526 85.1482 28.3943 86.1312 28.7264 87.3666C29.1514 88.954 28.6998 90.621 27.6969 91.8498C28.7729 93.4704 28.7861 95.6954 27.6305 97.2695C28.2681 98.0798 28.7662 98.9963 28.8393 100.032C28.8858 100.776 28.6799 101.474 28.3411 102.125C28.0356 102.716 27.7633 102.756 27.9559 103.499C28.0489 103.851 28.4208 104.223 28.6134 104.522C28.8061 104.788 28.9588 105.107 29.0917 105.452Z" fill="#FBB03B"/>
<path d="M468.279 221.603C468.193 221.916 468.179 222.314 467.947 222.56C467.767 222.746 467.495 222.832 467.223 222.872L466.512 222.899C466.16 222.885 465.795 222.799 465.496 222.62C465.29 222.301 465.064 221.995 464.865 221.677C464.447 220.992 464.068 220.262 464.015 219.445C463.955 218.568 464.287 217.99 464.633 217.227C465.204 215.965 464.626 215.354 463.709 214.417C463.058 213.753 463.045 212.557 463.915 212.039C464.885 211.468 465.071 209.861 464.015 209.237C463.072 208.685 462.899 207.244 463.909 206.64C464.679 206.181 465.204 205.378 465.058 204.434C464.912 203.485 463.995 202.761 463.683 201.858C463.391 201.021 463.444 200.197 463.736 199.38C464.068 198.457 464.872 197.68 465.005 196.71C465.31 194.525 462.474 193.124 463.278 190.806C463.577 189.949 464.52 189.55 464.772 188.76C465.104 187.75 463.988 186.382 463.391 185.671C462.613 184.755 462.853 183.632 463.948 183.128C465.25 182.537 465.144 181.075 464.546 180.059C463.935 179.023 463.45 177.967 464.002 176.785C464.214 176.333 464.566 175.961 464.918 175.616C465.423 175.124 465.536 175.217 465.323 174.613C464.918 173.477 464.075 172.946 464.44 171.578C464.573 171.08 464.845 170.648 465.19 170.276C465.416 170.03 466.207 169.618 466.293 169.313C466.432 168.835 465.051 167.652 464.759 167.214C464.241 166.437 463.935 165.52 464.161 164.584C464.307 163.993 464.765 163.641 464.971 163.123C465.376 162.126 464.606 161.456 463.889 160.791C463.43 160.366 463.224 159.536 463.577 158.978C464.407 157.657 465.483 156.76 466.977 156.282C468.824 155.691 469.747 158.56 467.9 159.151C467.535 159.27 467.216 159.417 466.944 159.622C467.668 160.473 468.239 161.456 468.272 162.578C468.292 163.295 468.046 163.979 467.648 164.564C467.143 165.301 467.017 165.281 467.595 166.005C468.332 166.935 469.249 167.798 469.342 169.06C469.388 169.665 469.229 170.269 468.923 170.787C468.631 171.279 467.608 171.79 467.462 172.262C467.362 172.594 468.166 173.444 468.332 173.836C468.591 174.44 468.684 175.058 468.525 175.702C468.372 176.333 467.993 176.818 467.555 177.276C467.409 177.429 466.897 177.748 466.844 177.934C466.771 178.219 467.336 178.857 467.455 179.076C468.545 181.115 467.98 183.38 466.492 184.868C467.542 186.395 468.312 188.215 467.562 189.995C467.329 190.553 466.858 190.885 466.579 191.383C466.167 192.121 466.28 191.955 466.784 192.811C467.502 194.027 468.106 195.342 468.033 196.783C467.967 198.118 467.156 198.875 466.718 200.038C466.24 201.3 467.582 202.283 467.914 203.518C468.339 205.105 467.887 206.772 466.884 208.001C467.96 209.622 467.973 211.847 466.818 213.421C467.455 214.231 467.953 215.148 468.027 216.184C468.073 216.928 467.867 217.625 467.528 218.276C467.223 218.867 466.951 218.907 467.143 219.651C467.236 220.003 467.608 220.375 467.801 220.674C467.993 220.946 468.146 221.258 468.279 221.603Z" fill="#FBB03B"/>
<path d="M89.7576 13.4703C89.4454 13.3906 89.0469 13.3839 88.7945 13.1515C88.6019 12.9721 88.5155 12.7065 88.469 12.4275L88.4292 11.7169C88.4425 11.3648 88.5155 10.9995 88.6949 10.7007C89.007 10.4881 89.3126 10.2557 89.6247 10.0564C90.3022 9.6247 91.0261 9.23947 91.8431 9.1797C92.7198 9.10664 93.3043 9.43208 94.0747 9.76417C95.3433 10.3154 95.9477 9.73096 96.8709 8.80112C97.5284 8.14358 98.7173 8.10373 99.2486 8.9738C99.8331 9.93022 101.447 10.1029 102.051 9.03358C102.589 8.0838 104.024 7.88455 104.648 8.88746C105.12 9.65126 105.93 10.1627 106.873 10.0033C107.823 9.84387 108.527 8.92067 109.43 8.58858C110.261 8.28306 111.084 8.32291 111.908 8.6085C112.838 8.92731 113.628 9.71768 114.598 9.84387C116.783 10.1162 118.144 7.26022 120.476 8.03067C121.339 8.31627 121.751 9.25276 122.541 9.4985C123.558 9.81731 124.906 8.68156 125.61 8.07052C126.52 7.28015 127.642 7.49933 128.16 8.59522C128.771 9.89037 130.233 9.76417 131.242 9.14649C132.265 8.51552 133.314 8.01739 134.51 8.55537C134.968 8.76126 135.34 9.10664 135.692 9.45201C136.19 9.95014 136.104 10.0631 136.702 9.84387C137.831 9.42544 138.355 8.57529 139.724 8.91403C140.228 9.04022 140.66 9.30589 141.039 9.64462C141.284 9.87044 141.71 10.6475 142.015 10.7339C142.493 10.8667 143.656 9.46529 144.087 9.17305C144.858 8.64171 145.768 8.32291 146.704 8.54209C147.295 8.68156 147.654 9.1332 148.179 9.33246C149.181 9.72432 149.846 8.94059 150.497 8.21664C150.915 7.75171 151.739 7.53254 152.303 7.87791C153.638 8.6882 154.548 9.75089 155.046 11.2386C155.664 13.0784 152.808 14.0415 152.19 12.2017C152.064 11.8364 151.911 11.5242 151.705 11.2519C150.869 11.9892 149.892 12.5736 148.77 12.6268C148.052 12.66 147.362 12.4209 146.777 12.029C146.033 11.5375 146.053 11.4113 145.336 11.9958C144.419 12.7463 143.569 13.6762 142.307 13.7891C141.709 13.8422 141.092 13.6961 140.574 13.3972C140.076 13.1116 139.551 12.0954 139.079 11.9626C138.747 11.8696 137.904 12.6799 137.519 12.8526C136.921 13.1183 136.303 13.2179 135.659 13.0718C135.028 12.9257 134.536 12.5604 134.071 12.1286C133.919 11.9825 133.587 11.4777 133.407 11.4313C133.122 11.3582 132.491 11.936 132.272 12.0556C130.252 13.178 127.974 12.6401 126.467 11.1789C124.952 12.2482 123.146 13.0518 121.352 12.3213C120.795 12.0954 120.449 11.6305 119.951 11.3582C119.207 10.9597 119.38 11.066 118.53 11.584C117.321 12.3213 116.019 12.9456 114.578 12.8924C113.243 12.846 112.472 12.0489 111.303 11.6239C110.035 11.1656 109.072 12.5205 107.843 12.8659C106.262 13.3109 104.589 12.8858 103.34 11.9028C101.733 13.0054 99.5077 13.0452 97.9203 11.9161C97.1166 12.567 96.2134 13.0784 95.1772 13.1648C94.4334 13.2245 93.736 13.0253 93.0784 12.6932C92.4873 12.3943 92.4342 12.1286 91.7036 12.3279C91.3516 12.4275 90.9863 12.7995 90.6874 13.0054C90.4151 13.178 90.0963 13.3308 89.7576 13.4703Z" fill="#FBB03B"/>
<path d="M359.347 304.605C359.041 304.506 358.643 304.479 358.404 304.233C358.224 304.048 358.151 303.775 358.118 303.496V302.786C358.145 302.434 358.244 302.075 358.437 301.783C358.762 301.59 359.075 301.371 359.4 301.192C360.097 300.8 360.848 300.454 361.665 300.434C362.548 300.414 363.106 300.766 363.857 301.138C365.092 301.763 365.73 301.211 366.706 300.328C367.397 299.704 368.592 299.737 369.07 300.627C369.602 301.617 371.202 301.876 371.867 300.84C372.458 299.923 373.899 299.803 374.47 300.84C374.902 301.623 375.679 302.181 376.629 302.075C377.585 301.969 378.342 301.085 379.259 300.806C380.102 300.547 380.926 300.634 381.73 300.959C382.64 301.324 383.383 302.161 384.347 302.341C386.518 302.732 388.033 299.956 390.317 300.859C391.161 301.192 391.526 302.148 392.303 302.44C393.3 302.812 394.708 301.756 395.445 301.185C396.395 300.448 397.504 300.727 397.962 301.849C398.5 303.171 399.968 303.131 401.004 302.573C402.06 302.002 403.136 301.557 404.298 302.161C404.743 302.394 405.095 302.759 405.427 303.124C405.899 303.649 405.806 303.762 406.417 303.569C407.566 303.211 408.137 302.394 409.486 302.812C409.984 302.965 410.396 303.251 410.761 303.616C410.993 303.855 411.379 304.659 411.677 304.758C412.149 304.918 413.384 303.583 413.836 303.31C414.633 302.825 415.563 302.553 416.486 302.819C417.071 302.991 417.403 303.463 417.914 303.689C418.89 304.134 419.594 303.39 420.292 302.699C420.737 302.254 421.567 302.088 422.118 302.46C423.407 303.344 424.257 304.453 424.675 305.967C425.193 307.84 422.291 308.644 421.773 306.771C421.667 306.399 421.534 306.08 421.341 305.794C420.464 306.478 419.455 307.016 418.339 307.003C417.622 306.996 416.944 306.718 416.38 306.299C415.662 305.768 415.689 305.642 414.945 306.186C413.982 306.884 413.092 307.767 411.824 307.807C411.219 307.827 410.621 307.647 410.117 307.315C409.638 307.003 409.167 305.96 408.702 305.794C408.376 305.681 407.493 306.445 407.095 306.598C406.484 306.83 405.859 306.897 405.222 306.711C404.597 306.532 404.132 306.14 403.687 305.681C403.541 305.529 403.242 305.004 403.063 304.944C402.777 304.858 402.12 305.402 401.894 305.509C399.815 306.518 397.57 305.854 396.142 304.313C394.568 305.296 392.722 306 390.975 305.17C390.43 304.911 390.112 304.433 389.627 304.134C388.903 303.696 389.069 303.815 388.192 304.28C386.95 304.951 385.615 305.495 384.174 305.363C382.845 305.243 382.122 304.406 380.979 303.915C379.737 303.383 378.701 304.685 377.452 304.964C375.845 305.323 374.205 304.805 373.016 303.749C371.349 304.758 369.13 304.678 367.603 303.463C366.766 304.067 365.836 304.532 364.793 304.559C364.049 304.579 363.359 304.34 362.721 303.974C362.143 303.642 362.11 303.37 361.366 303.536C361.007 303.616 360.622 303.968 360.317 304.154C360.024 304.353 359.699 304.493 359.347 304.605Z" fill="#FBB03B"/>
<path d="M0.0405254 128.413C0.0737342 128.778 0.0936595 129.163 0.140152 129.548C0.213211 130.405 0.299554 131.282 0.425748 132.125C0.65821 133.812 1.06336 135.433 1.68768 136.994C1.87365 137.459 2.51126 137.605 2.94298 137.366C2.98283 137.339 3.02932 137.299 3.04925 137.266C3.20865 137.226 3.36141 137.16 3.48761 137.054C5.62626 135.4 7.78483 133.753 9.93012 132.079C10.2689 131.827 10.3353 131.262 10.1559 130.917C9.7508 130.06 8.76781 129.808 7.96416 129.449L5.50006 128.34C4.62335 127.954 3.73335 127.556 2.86992 127.151C2.09947 126.805 0.923881 125.949 0.226495 126.952C-0.0989518 127.416 0.0139583 127.901 0.0405254 128.413ZM4.78275 130.16C5.44693 130.465 6.09782 130.757 6.762 131.056C7.06752 131.202 7.37968 131.328 7.6852 131.475C6.14431 132.67 4.60342 133.866 3.04261 135.048C2.71716 134.032 2.46477 132.962 2.31201 131.886C2.1991 131.162 2.12604 130.438 2.05298 129.721C2.02642 129.449 1.99985 129.177 1.96 128.898C2.21903 129.011 2.47141 129.13 2.73044 129.243L4.78275 130.16Z" fill="#FBB03B"/>
<path d="M266.296 317.889C266.263 317.524 266.243 317.139 266.196 316.753C266.123 315.897 266.037 315.02 265.911 314.176C265.678 312.489 265.273 310.869 264.649 309.308C264.463 308.843 263.825 308.697 263.393 308.936C263.354 308.963 263.307 309.003 263.287 309.036C263.128 309.076 262.975 309.142 262.849 309.248C260.71 310.902 258.551 312.549 256.406 314.223C256.067 314.475 256.001 315.04 256.18 315.385C256.586 316.242 257.569 316.494 258.372 316.853L260.836 317.962C261.713 318.348 262.603 318.746 263.466 319.151C264.237 319.497 265.412 320.353 266.11 319.35C266.435 318.886 266.329 318.401 266.296 317.889ZM261.56 316.142C260.896 315.837 260.245 315.545 259.581 315.246C259.275 315.1 258.963 314.973 258.658 314.827C260.199 313.632 261.74 312.436 263.3 311.254C263.626 312.27 263.878 313.34 264.031 314.416C264.144 315.14 264.217 315.863 264.29 316.581C264.317 316.853 264.343 317.125 264.383 317.404C264.124 317.291 263.872 317.172 263.613 317.059L261.56 316.142Z" fill="#FBB03B"/>
<path d="M475.459 254.019C475.749 253.786 476.059 253.555 476.345 253.308C477.021 252.769 477.694 252.207 478.325 251.637C479.592 250.503 480.716 249.263 481.662 247.878C481.942 247.461 481.71 246.855 481.27 246.629C481.229 246.612 481.169 246.593 481.131 246.6C481.011 246.492 480.872 246.402 480.706 246.352C478.137 245.496 475.57 244.622 472.987 243.771C472.587 243.633 472.083 243.892 471.898 244.226C471.408 245.042 471.757 245.996 471.899 246.864L472.351 249.525C472.516 250.47 472.685 251.429 472.831 252.373C472.972 253.207 472.915 254.658 474.139 254.674C474.712 254.688 475.055 254.323 475.459 254.019ZM474.275 249.113C474.154 248.393 474.037 247.687 473.917 246.967C473.866 246.634 473.801 246.304 473.751 245.97C475.603 246.584 477.45 247.202 479.301 247.834C478.636 248.67 477.889 249.471 477.081 250.202C476.544 250.699 475.987 251.162 475.43 251.624C475.219 251.797 475.009 251.97 474.797 252.161C474.751 251.885 474.702 251.603 474.651 251.331L474.275 249.113Z" fill="#1E1E1E"/>
<path d="M283.292 298.416C282.92 298.402 282.535 298.376 282.156 298.376C281.293 298.343 280.416 298.329 279.566 298.349C277.866 298.382 276.205 298.588 274.585 299.02C274.1 299.153 273.881 299.764 274.067 300.222C274.087 300.262 274.12 300.315 274.153 300.335C274.173 300.494 274.22 300.654 274.313 300.8C275.701 303.125 277.076 305.463 278.477 307.794C278.689 308.159 279.241 308.292 279.599 308.159C280.503 307.86 280.861 306.91 281.32 306.16L282.714 303.849C283.206 303.025 283.704 302.188 284.209 301.378C284.647 300.654 285.637 299.591 284.72 298.781C284.295 298.389 283.797 298.442 283.292 298.416ZM280.988 302.905C280.609 303.53 280.237 304.141 279.858 304.765C279.679 305.051 279.513 305.343 279.334 305.629C278.331 303.955 277.335 302.281 276.345 300.594C277.394 300.395 278.484 300.275 279.573 300.249C280.303 300.222 281.027 300.235 281.751 300.249C282.024 300.255 282.296 300.262 282.582 300.255C282.435 300.494 282.289 300.74 282.15 300.979L280.988 302.905Z" fill="#1E1E1E"/>
<path d="M435.595 0.312901C435.256 0.445736 434.897 0.585213 434.559 0.718049C433.768 1.0435 432.998 1.37558 432.227 1.74088C430.72 2.45155 429.292 3.3017 427.996 4.35774C427.605 4.68319 427.618 5.36065 427.943 5.72595C427.963 5.7658 427.996 5.78572 428.036 5.80565C428.109 5.93848 428.202 6.07796 428.335 6.17094C430.387 7.82475 432.42 9.48519 434.466 11.139C434.784 11.4113 435.309 11.2918 435.615 11.046C436.312 10.4084 436.332 9.35235 436.478 8.46236L436.93 5.6861C437.096 4.70311 437.248 3.72013 437.421 2.73715C437.554 1.887 438.079 0.465662 436.989 0.0605134C436.478 -0.112173 436.046 0.120289 435.595 0.312901ZM435.07 5.51341C434.957 6.244 434.824 6.9746 434.711 7.71184C434.652 8.05721 434.598 8.40258 434.545 8.75459C433.077 7.55908 431.59 6.36356 430.122 5.17468C431.005 4.55699 431.928 3.99908 432.885 3.53416C433.522 3.22864 434.18 2.9364 434.844 2.66409C435.09 2.56446 435.336 2.45155 435.595 2.33864C435.535 2.63088 435.502 2.91648 435.442 3.20871L435.07 5.51341Z" fill="#00A99D"/>
<path fill-rule="evenodd" clip-rule="evenodd" d="M11.8032 281.532C9.96338 281.3 8.02399 280.257 7.18712 278.55C6.29048 276.724 6.61593 274.512 7.81145 272.938C8.06384 272.599 8.40921 272.234 8.88077 271.975L8.88742 271.968L8.89406 271.961C9.62465 271.583 10.4549 271.603 10.9596 271.623C11.7168 271.649 12.6267 271.722 13.4769 272.088C14.513 272.533 15.2702 273.336 15.8414 274.06C16.3395 274.691 16.8443 275.448 17.1099 276.338C17.3756 277.235 17.3889 278.318 16.8708 279.261C15.8148 281.233 13.6628 281.771 11.8032 281.532ZM12.0555 279.553C13.437 279.732 14.5993 279.294 15.1307 278.318C15.3299 277.959 15.3631 277.454 15.2037 276.916C15.0443 276.378 14.7189 275.86 14.2805 275.309V275.302C13.7824 274.665 13.271 274.18 12.6932 273.927C12.2017 273.715 11.6105 273.648 10.8932 273.622C10.342 273.602 10.0298 273.629 9.82391 273.735C9.69107 273.808 9.54495 273.941 9.39883 274.14V274.147V274.153C8.6151 275.183 8.44242 276.591 8.97376 277.68C9.43204 278.603 10.6541 279.374 12.0555 279.553Z" fill="#1E1E1E"/>
<path fill-rule="evenodd" clip-rule="evenodd" d="M489.513 230.317C487.673 230.078 485.733 229.042 484.897 227.335C484 225.509 484.325 223.297 485.521 221.723C485.773 221.384 486.119 221.019 486.59 220.76L486.597 220.753L486.604 220.747C487.334 220.368 488.164 220.388 488.669 220.408C489.426 220.434 490.336 220.507 491.186 220.873C492.222 221.318 492.98 222.121 493.551 222.845C494.049 223.476 494.554 224.234 494.819 225.124C495.085 226.02 495.098 227.103 494.58 228.046C493.524 230.012 491.366 230.556 489.513 230.317ZM489.765 228.338C491.147 228.517 492.309 228.079 492.84 227.103C493.039 226.744 493.073 226.239 492.913 225.701C492.754 225.163 492.428 224.645 491.99 224.094V224.087C491.492 223.45 490.98 222.965 490.403 222.713C489.911 222.5 489.32 222.434 488.603 222.407C488.051 222.387 487.739 222.414 487.533 222.52C487.401 222.593 487.254 222.726 487.108 222.925V222.932V222.938C486.325 223.968 486.152 225.383 486.683 226.465C487.142 227.382 488.364 228.159 489.765 228.338Z" fill="#1E1E1E"/>
<path fill-rule="evenodd" clip-rule="evenodd" d="M247.892 298.269C249.731 298.508 251.671 299.545 252.508 301.251C253.404 303.078 253.079 305.29 251.883 306.864C251.631 307.202 251.286 307.568 250.814 307.827L250.807 307.833L250.801 307.84C250.07 308.219 249.24 308.199 248.735 308.179C247.978 308.152 247.068 308.079 246.218 307.714C245.182 307.269 244.425 306.465 243.853 305.741C243.355 305.11 242.851 304.353 242.585 303.463C242.319 302.567 242.306 301.484 242.824 300.541C243.88 298.568 246.039 298.03 247.892 298.269ZM247.639 300.242C246.251 300.063 245.095 300.501 244.564 301.477C244.365 301.836 244.332 302.341 244.491 302.879C244.65 303.417 244.976 303.935 245.414 304.486V304.493C245.912 305.13 246.424 305.615 247.002 305.867C247.493 306.08 248.084 306.146 248.802 306.173C249.353 306.193 249.665 306.166 249.871 306.06C250.004 305.987 250.15 305.854 250.296 305.655V305.648V305.642C251.08 304.612 251.252 303.197 250.721 302.115C250.263 301.198 249.041 300.428 247.639 300.242Z" fill="#1E1E1E"/>
<path fill-rule="evenodd" clip-rule="evenodd" d="M351.33 16.0141C358.802 16.4724 366.281 16.6052 373.766 16.4126C375.393 16.3727 375.4 13.8422 373.766 13.8821C366.287 14.0747 358.802 13.9419 351.33 13.4836C349.703 13.384 349.709 15.9145 351.33 16.0141Z" fill="#1E1E1E"/>
<path fill-rule="evenodd" clip-rule="evenodd" d="M462.939 292.119C462.806 292.359 462.893 292.212 462.939 292.119V292.119Z" fill="#1E1E1E"/>
<path fill-rule="evenodd" clip-rule="evenodd" d="M464.872 290.273C464.174 290.113 463.431 290.485 463.238 291.203C463.158 291.508 463.059 291.8 462.946 292.093C462.946 292.099 462.939 292.106 462.932 292.119C462.939 292.106 462.939 292.106 462.946 292.093C462.906 292.166 462.873 292.252 462.839 292.325C462.78 292.451 462.713 292.578 462.647 292.704C462.501 292.976 462.335 293.248 462.162 293.507C462.116 293.58 462.062 293.647 462.016 293.713C461.989 293.746 461.963 293.78 461.943 293.813C461.883 293.893 461.91 293.859 462.023 293.713C462.036 293.733 461.744 294.052 461.724 294.072C461.518 294.304 461.299 294.53 461.066 294.743C460.953 294.849 460.834 294.949 460.714 295.048C460.694 295.068 460.668 295.081 460.648 295.101C460.614 295.128 460.601 295.141 460.588 295.148C460.568 295.161 460.548 295.174 460.541 295.174C460.023 295.546 459.459 295.859 458.874 296.111C458.589 296.231 458.343 296.622 458.263 296.908C458.177 297.227 458.217 297.652 458.396 297.931C458.582 298.216 458.854 298.462 459.193 298.542C459.565 298.628 459.871 298.555 460.216 298.409C462.939 297.26 465.045 294.736 465.808 291.893C465.981 291.236 465.576 290.432 464.872 290.273Z" fill="#1E1E1E"/>
<path fill-rule="evenodd" clip-rule="evenodd" d="M40.9141 11.9359C40.6883 11.2385 40.0042 10.8267 39.2802 11.006C35.335 12.0023 32.0872 15.1904 30.978 19.1024C30.792 19.7732 31.2105 20.5768 31.9079 20.7362C32.6119 20.8956 33.3425 20.5237 33.5417 19.8064C33.6015 19.6005 33.6613 19.3946 33.7344 19.1954C33.7676 19.0957 33.8074 18.9961 33.8473 18.8965C33.8605 18.8566 33.8805 18.8168 33.8938 18.7769C34.0664 18.405 34.2458 18.0397 34.4583 17.6877C34.5712 17.5083 34.6841 17.329 34.8037 17.1497C34.8635 17.0633 34.9299 16.977 34.9897 16.8907C35.0029 16.8707 35.0096 16.8575 35.0162 16.8442C35.0229 16.8375 35.0295 16.8309 35.0361 16.8176C35.3151 16.4722 35.614 16.1401 35.9328 15.828C36.0855 15.6819 36.2449 15.5357 36.4043 15.3963C36.484 15.3298 36.5638 15.2568 36.6501 15.1904C36.67 15.1704 36.6966 15.1572 36.7165 15.1372C37.0685 14.8915 37.4139 14.6524 37.7858 14.4398C37.9718 14.3336 38.1578 14.2339 38.3504 14.141C38.4434 14.0945 38.543 14.048 38.6426 14.0081C38.6625 13.9948 38.6891 13.9882 38.709 13.9749C38.709 13.9749 38.709 13.9749 38.7157 13.9749C39.1341 13.8222 39.5459 13.676 39.9843 13.5698C40.6551 13.3971 41.1266 12.6067 40.9141 11.9359Z" fill="#1E1E1E"/>
</svg>
