<svg width="386" height="398" viewBox="0 0 386 398" fill="none" xmlns="http://www.w3.org/2000/svg">
<path d="M306.507 54.1928C346.125 72.634 383.406 104.591 384.957 140.695C386.508 176.799 352.33 217.07 335.501 261.232C318.417 305.129 318.417 352.67 296.149 376.312C273.625 399.955 228.568 399.433 186.889 394.754C145.464 389.818 107.143 380.726 74.0053 360.728C40.6028 340.73 12.1291 309.818 3.32195 274.482C-5.74053 238.89 5.13837 198.885 19.1199 161.481C33.3567 124.076 50.706 89.2626 78.6691 66.9204C106.632 44.5782 144.954 34.7075 185.082 32.6289C225.21 30.2942 266.9 35.4857 306.507 54.1928Z" fill="#F8F8F8"/>
<path d="M163.367 218.408C163.81 215.436 163.128 212.534 162.185 209.709C162.16 208.866 161.467 208.301 160.666 208.257C158.928 208.169 157.191 208.307 155.478 208.536C154.531 208.672 153.591 208.82 152.64 208.976C151.754 209.126 150.772 209.179 150.112 209.888C149.364 210.705 149.558 211.739 149.729 212.736C149.886 213.654 150.042 214.572 150.219 215.494C150.576 217.373 150.99 219.233 151.469 221.087C151.588 221.556 152.064 222.047 152.551 222.111C154.29 222.339 155.901 221.666 157.49 221.042C159.08 220.418 160.661 219.782 162.361 219.474C162.834 219.406 163.302 218.886 163.367 218.408ZM152.779 213.249C152.716 212.868 152.652 212.488 152.588 212.108C152.584 212.075 152.581 212.042 152.578 212.009C153.117 211.935 153.681 211.793 154.18 211.71C154.878 211.589 155.572 211.489 156.274 211.401C157.379 211.271 158.499 211.221 159.622 211.203C160.204 213.028 160.694 214.928 160.607 216.839C159.4 217.137 158.246 217.577 157.088 218.037C156.385 218.317 155.675 218.586 154.957 218.841C154.69 218.937 154.374 219.065 154.047 219.146C153.763 217.94 153.459 216.729 153.22 215.512C153.047 214.762 152.907 214.009 152.779 213.249Z" fill="#DCDCDC"/>
<path d="M329.367 14.1676C329.81 11.1949 329.128 8.29347 328.185 5.46809C328.16 4.62521 327.467 4.0602 326.666 4.01675C324.928 3.92858 323.191 4.06641 321.478 4.29545C320.531 4.43111 319.591 4.57939 318.64 4.73541C317.754 4.88575 316.772 4.93793 316.112 5.64742C315.364 6.46437 315.558 7.49869 315.729 8.49513C315.886 9.41298 316.042 10.3308 316.219 11.2536C316.576 13.132 316.99 14.9922 317.469 16.8467C317.588 17.3154 318.064 17.8062 318.551 17.8703C320.29 18.0982 321.901 17.4257 323.49 16.8016C325.08 16.1776 326.661 15.5409 328.361 15.2332C328.834 15.1654 329.302 14.6456 329.367 14.1676ZM318.779 9.00805C318.716 8.62771 318.652 8.24738 318.588 7.86705C318.584 7.83407 318.581 7.80108 318.578 7.7681C319.117 7.69459 319.681 7.55228 320.18 7.46898C320.878 7.3483 321.572 7.24797 322.274 7.16027C323.379 7.03078 324.499 6.97987 325.622 6.96195C326.204 8.78756 326.694 10.6877 326.607 12.5981C325.4 12.8962 324.246 13.3359 323.088 13.796C322.385 14.0767 321.675 14.3448 320.957 14.6003C320.69 14.6967 320.374 14.824 320.047 14.9058C319.763 13.6996 319.459 12.4885 319.22 11.2717C319.047 10.5216 318.907 9.76871 318.779 9.00805Z" fill="#DCDCDC"/>
<path d="M282.545 306.703C280.221 304.799 277.354 303.869 274.411 303.196C273.671 302.781 272.811 303.067 272.343 303.711C271.332 305.114 270.517 306.631 269.793 308.177C269.4 309.036 269.023 309.895 268.646 310.768C268.299 311.584 267.816 312.428 268.072 313.344C268.374 314.389 269.37 314.762 270.321 315.134C271.196 315.477 272.072 315.821 272.962 316.15C274.773 316.823 276.599 317.438 278.456 317.997C278.923 318.14 279.603 317.997 279.919 317.624C281.051 316.293 281.338 314.604 281.655 312.958C281.972 311.312 282.274 309.666 282.923 308.091C283.119 307.662 282.923 307.003 282.545 306.703ZM272.404 312.858C272.041 312.715 271.679 312.571 271.317 312.428C271.287 312.414 271.257 312.4 271.226 312.385C271.453 311.899 271.634 311.355 271.83 310.897C272.102 310.253 272.389 309.623 272.69 308.993C273.173 308.005 273.732 307.046 274.32 306.102C276.207 306.56 278.108 307.132 279.708 308.191C279.316 309.351 279.074 310.539 278.848 311.741C278.712 312.471 278.561 313.201 278.395 313.931C278.335 314.203 278.274 314.533 278.169 314.847C276.976 314.461 275.769 314.089 274.592 313.659C273.852 313.416 273.128 313.144 272.404 312.858Z" fill="#FBB03B"/>
<path d="M147.545 113.063C145.221 111.159 142.354 110.228 139.411 109.556C138.671 109.141 137.811 109.427 137.343 110.071C136.332 111.474 135.517 112.991 134.793 114.537C134.4 115.396 134.023 116.255 133.646 117.128C133.299 117.944 132.816 118.788 133.072 119.704C133.374 120.749 134.37 121.121 135.321 121.494C136.196 121.837 137.072 122.181 137.962 122.51C139.773 123.183 141.599 123.798 143.456 124.356C143.923 124.5 144.603 124.356 144.919 123.984C146.051 122.653 146.338 120.964 146.655 119.318C146.972 117.672 147.274 116.026 147.923 114.451C148.119 114.022 147.923 113.363 147.545 113.063ZM137.404 119.218C137.041 119.075 136.679 118.931 136.317 118.788C136.287 118.774 136.257 118.76 136.226 118.745C136.453 118.259 136.634 117.715 136.83 117.257C137.102 116.612 137.389 115.983 137.69 115.353C138.173 114.365 138.732 113.406 139.32 112.461C141.207 112.919 143.108 113.492 144.708 114.551C144.316 115.711 144.074 116.899 143.848 118.101C143.712 118.831 143.561 119.561 143.395 120.291C143.335 120.563 143.274 120.892 143.169 121.207C141.976 120.821 140.769 120.449 139.592 120.019C138.852 119.776 138.128 119.504 137.404 119.218Z" fill="#FBB03B"/>
<path d="M258.367 287.069C258.81 284.097 258.128 281.195 257.185 278.37C257.16 277.527 256.467 276.962 255.666 276.919C253.928 276.83 252.191 276.968 250.478 277.197C249.531 277.333 248.591 277.481 247.64 277.637C246.754 277.788 245.772 277.84 245.112 278.549C244.364 279.366 244.558 280.401 244.729 281.397C244.886 282.315 245.042 283.233 245.219 284.155C245.576 286.034 245.99 287.894 246.469 289.749C246.588 290.217 247.064 290.708 247.551 290.772C249.29 291 250.901 290.328 252.49 289.703C254.08 289.079 255.661 288.443 257.361 288.135C257.834 288.067 258.302 287.547 258.367 287.069ZM247.779 281.91C247.716 281.53 247.652 281.149 247.588 280.769C247.584 280.736 247.581 280.703 247.578 280.67C248.117 280.596 248.681 280.454 249.18 280.371C249.878 280.25 250.572 280.15 251.274 280.062C252.379 279.933 253.499 279.882 254.622 279.864C255.204 281.689 255.694 283.59 255.607 285.5C254.4 285.798 253.246 286.238 252.088 286.698C251.385 286.979 250.675 287.247 249.957 287.502C249.69 287.599 249.374 287.726 249.047 287.808C248.763 286.601 248.459 285.39 248.22 284.174C248.047 283.424 247.907 282.671 247.779 281.91Z" fill="#DCDCDC"/>
<path d="M142.367 359.308C142.81 356.336 142.128 353.434 141.185 350.609C141.16 349.766 140.467 349.201 139.666 349.157C137.928 349.069 136.191 349.207 134.478 349.436C133.531 349.572 132.591 349.72 131.64 349.876C130.754 350.026 129.772 350.079 129.112 350.788C128.364 351.605 128.558 352.639 128.729 353.636C128.886 354.554 129.042 355.471 129.219 356.394C129.576 358.273 129.99 360.133 130.469 361.987C130.588 362.456 131.064 362.947 131.551 363.011C133.29 363.239 134.901 362.566 136.49 361.942C138.08 361.318 139.661 360.682 141.361 360.374C141.834 360.306 142.302 359.786 142.367 359.308ZM131.779 354.149C131.716 353.768 131.652 353.388 131.588 353.008C131.584 352.975 131.581 352.942 131.578 352.909C132.117 352.835 132.681 352.693 133.18 352.61C133.878 352.489 134.572 352.389 135.274 352.301C136.379 352.171 137.499 352.121 138.622 352.103C139.204 353.928 139.694 355.828 139.607 357.739C138.4 358.037 137.246 358.477 136.088 358.937C135.385 359.217 134.675 359.485 133.957 359.741C133.69 359.837 133.374 359.965 133.047 360.046C132.763 358.84 132.459 357.629 132.22 356.412C132.047 355.662 131.907 354.909 131.779 354.149Z" fill="#00A99D"/>
<path d="M355.367 54.3002C355.81 51.3275 355.128 48.426 354.185 45.6007C354.16 44.7578 353.467 44.1928 352.666 44.1493C350.928 44.0612 349.191 44.199 347.478 44.428C346.531 44.5637 345.591 44.712 344.64 44.868C343.754 45.0183 342.772 45.0705 342.112 45.78C341.364 46.5969 341.558 47.6313 341.729 48.6277C341.886 49.5455 342.042 50.4634 342.219 51.3861C342.576 53.2646 342.99 55.1248 343.469 56.9793C343.588 57.448 344.064 57.9388 344.551 58.0029C346.29 58.2307 347.901 57.5582 349.49 56.9342C351.08 56.3101 352.661 55.6734 354.361 55.3658C354.834 55.298 355.302 54.7782 355.367 54.3002ZM344.779 49.1406C344.716 48.7603 344.652 48.38 344.588 47.9996C344.584 47.9666 344.581 47.9337 344.578 47.9007C345.117 47.8272 345.681 47.6848 346.18 47.6016C346.878 47.4809 347.572 47.3805 348.274 47.2928C349.379 47.1633 350.499 47.1124 351.622 47.0945C352.204 48.9201 352.694 50.8202 352.607 52.7307C351.4 53.0287 350.246 53.4685 349.088 53.9286C348.385 54.2093 347.675 54.4774 346.957 54.7329C346.69 54.8293 346.374 54.9566 346.047 55.0383C345.763 53.8321 345.459 52.6211 345.22 51.4043C345.048 50.6542 344.907 49.9013 344.779 49.1406Z" fill="#00A99D"/>
</svg>
