<svg width="237" height="325" viewBox="0 0 237 325" fill="none" xmlns="http://www.w3.org/2000/svg">
<g clip-path="url(#clip0)">
<path d="M157.208 249.205C156.439 248.755 155.649 249.095 155.159 249.745C154.199 251.005 153.219 252.265 152.219 253.495C151.709 254.125 151.199 254.755 150.679 255.365C150.409 255.695 150.139 256.015 149.869 256.335C149.829 256.375 149.799 256.425 149.759 256.465C149.719 256.435 149.689 256.405 149.649 256.365C149.249 256.045 148.87 255.695 148.51 255.325C147.83 254.625 147.31 253.955 146.8 253.125C146.37 252.435 145.45 252.165 144.74 252.585C144.05 252.985 143.78 253.945 144.2 254.635C144.99 255.895 145.94 257.075 147.04 258.075C147.6 258.585 148.21 259.065 148.84 259.485C149.749 260.095 150.739 259.905 151.439 259.095C153.639 256.565 155.719 253.925 157.738 251.255C158.238 250.605 157.848 249.575 157.208 249.205Z" fill="#FBB03B"/>
</g>
<g clip-path="url(#clip1)">
<path d="M103.757 248.475C99.5002 251.899 94.534 254.351 89.4741 253.959C84.438 253.565 79.3322 250.326 76.4853 245.643C73.6393 240.982 73.0753 234.853 75.6421 231.025C78.2089 227.197 83.9056 225.647 89.6968 224.07C95.4642 222.494 101.28 220.939 105.523 222.963C109.743 225.01 112.391 230.66 111.953 235.67C111.514 240.681 107.991 245.075 103.757 248.475Z" fill="#FBB03B"/>
<path fill-rule="evenodd" clip-rule="evenodd" d="M124.146 232.328C124.178 232.379 124.211 232.431 124.25 232.475C124.46 232.8 124.46 233.213 124.355 233.627C124.277 233.981 124.015 234.336 123.753 234.513C123.491 234.69 123.019 234.808 122.731 234.66C121.447 234.07 120.163 233.42 118.879 232.771C118.564 232.623 118.381 232.239 118.276 231.885C118.171 231.501 118.25 231.087 118.407 230.733C118.564 230.408 118.879 230.142 119.193 230.054C119.56 229.936 119.874 230.024 120.215 230.201C121.132 230.674 122.023 231.117 122.94 231.56C123.032 231.604 123.117 231.641 123.202 231.678C123.288 231.715 123.373 231.752 123.464 231.796C123.674 231.885 123.884 232.003 124.041 232.18C124.08 232.224 124.113 232.276 124.146 232.328ZM81.3732 238.16C97.6439 234.824 114.268 234.579 130.62 237.395C131.761 237.578 131.951 239.659 130.946 240.21C129.112 241.144 127.286 242.085 125.459 243.026C123.632 243.967 121.806 244.908 119.972 245.842C118.397 246.668 117.038 244.036 118.614 243.21C120.868 242.016 123.15 240.853 125.432 239.69C111.035 237.701 96.3944 238.19 82.1066 241.128C80.3954 241.465 79.662 238.527 81.3732 238.16Z" fill="#1E1E1E"/>
</g>
<g clip-path="url(#clip2)">
<path d="M32.4994 224.482C37.7068 222.168 43.3709 221.073 48.371 222.964C53.3467 224.849 57.634 229.714 59.2573 235.42C60.8857 241.101 59.8206 247.641 56.2104 250.87C52.6001 254.099 46.4396 254.042 40.1766 253.985C33.938 253.934 27.6557 253.847 23.9149 250.499C20.2035 247.133 19.0387 240.481 20.8169 235.398C22.5951 230.316 27.3215 226.778 32.4994 224.482Z" fill="#FBB03B"/>
<path fill-rule="evenodd" clip-rule="evenodd" d="M7.45354 243.672C7.42079 243.621 7.38803 243.569 7.34873 243.525C7.13908 243.2 7.13909 242.787 7.24391 242.373C7.32252 242.019 7.58458 241.664 7.84663 241.487C8.10868 241.31 8.58037 241.192 8.86863 241.34C10.1527 241.93 11.4367 242.58 12.7208 243.229C13.0352 243.377 13.2187 243.761 13.3235 244.115C13.4283 244.499 13.3497 244.913 13.1925 245.267C13.0352 245.592 12.7208 245.858 12.4063 245.946C12.0395 246.064 11.725 245.976 11.3843 245.799C10.4671 245.326 9.57617 244.883 8.65899 244.44C8.56727 244.396 8.48211 244.359 8.39695 244.322C8.31178 244.285 8.2266 244.248 8.13488 244.204C7.92524 244.115 7.7156 243.997 7.55837 243.82C7.51906 243.776 7.4863 243.724 7.45354 243.672ZM50.226 237.84C33.9553 241.176 17.3315 241.421 0.97927 238.605C-0.161579 238.422 -0.351723 236.341 0.653313 235.79C2.48687 234.856 4.31363 233.915 6.14039 232.974C7.96707 232.033 9.79375 231.092 11.6272 230.158C13.2027 229.332 14.5608 231.964 12.9854 232.79C10.7308 233.984 8.44913 235.147 6.16743 236.31C20.5639 238.299 35.2048 237.81 49.4926 234.872C51.2039 234.535 51.9373 237.473 50.226 237.84Z" fill="#1E1E1E"/>
</g>
<path d="M232.564 277.211C228.412 277.858 224.435 279.259 220.841 281.384C220.186 281.758 219.788 282.45 220.111 283.253C220.406 283.848 221.325 284.357 221.98 283.983C225.375 281.956 229.084 280.664 232.959 280.055C234.752 279.735 234.367 276.961 232.564 277.211Z" fill="#FBB03B"/>
<path d="M230.253 290.612C230.184 290.621 230.115 290.631 230.045 290.64L229.976 290.65C229.837 290.669 229.689 290.619 229.619 290.629C229.332 290.598 228.986 290.646 228.698 290.615C228.124 290.554 227.55 290.492 226.976 290.43C226.402 290.369 225.818 290.238 225.234 290.107C224.947 290.076 224.65 289.976 224.354 289.875L224.136 289.835C223.988 289.785 223.839 289.735 223.701 289.754C222.968 289.573 222.146 289.758 221.895 290.5C221.635 291.172 221.909 292.124 222.641 292.305C225.292 293.068 227.955 293.405 230.639 293.386C231.342 293.359 231.93 292.5 231.833 291.806C231.718 290.974 231.095 290.565 230.253 290.612Z" fill="#FBB03B"/>
<path d="M224.04 267.78C221.668 269.028 219.474 270.535 217.456 272.3C216.821 272.812 216.738 273.743 217.241 274.309C217.744 274.876 218.605 274.968 219.241 274.456C220.185 273.618 221.208 272.839 222.171 272.14C222.429 271.963 222.618 271.795 222.886 271.687C222.946 271.608 223.015 271.598 223.144 271.51C223.273 271.421 223.402 271.333 223.531 271.244C224.048 270.889 224.574 270.604 225.169 270.31C225.824 269.936 226.214 269.175 225.83 268.45C225.535 267.855 224.695 267.406 224.04 267.78Z" fill="#FBB03B"/>
<path d="M4.52005 315.017C8.67215 314.37 12.6489 312.969 16.2423 310.844C16.8974 310.47 17.2962 309.778 16.9726 308.975C16.6778 308.38 15.7587 307.871 15.1037 308.245C11.7087 310.272 7.99977 311.564 4.12512 312.173C2.33134 312.493 2.71663 315.267 4.52005 315.017Z" fill="#FBB03B"/>
<path d="M6.83044 301.616C6.8998 301.607 6.96916 301.597 7.03853 301.587L7.10789 301.578C7.24661 301.559 7.39497 301.609 7.46433 301.599C7.75141 301.63 8.09822 301.582 8.38531 301.613C8.95947 301.674 9.53363 301.736 10.1078 301.798C10.682 301.859 11.2657 301.99 11.8495 302.121C12.1366 302.152 12.4333 302.252 12.7301 302.352L12.9478 302.393C13.0961 302.443 13.2445 302.493 13.3832 302.474C14.1154 302.655 14.9381 302.47 15.1886 301.728C15.4487 301.056 15.1751 300.104 14.443 299.923C11.7918 299.16 9.12907 298.823 6.44515 298.842C5.74189 298.869 5.15423 299.728 5.25055 300.422C5.36614 301.254 5.98846 301.663 6.83044 301.616Z" fill="#FBB03B"/>
<path d="M13.0437 323.448C15.4156 322.2 17.6101 320.693 19.6274 318.928C20.2633 318.416 20.3461 317.485 19.8433 316.919C19.3404 316.352 18.4792 316.26 17.8433 316.772C16.8992 317.61 15.8761 318.389 14.9127 319.088C14.6546 319.266 14.4657 319.433 14.1979 319.541C14.1382 319.62 14.0688 319.63 13.9397 319.718C13.8106 319.807 13.6816 319.896 13.5525 319.984C13.0361 320.339 12.5101 320.624 11.9147 320.919C11.2596 321.292 10.8704 322.053 11.2538 322.778C11.5486 323.373 12.3886 323.822 13.0437 323.448Z" fill="#FBB03B"/>
<path d="M117.604 296.064L118.739 304.136L116.135 304.502L113.354 284.714L120.124 283.762C121.816 283.524 123.321 283.844 124.788 284.832C126.124 285.839 126.958 287.05 127.196 288.742C127.434 290.435 126.984 291.958 125.959 293.164C124.952 294.501 123.593 295.223 121.77 295.479L117.604 296.064ZM116.305 286.821L117.275 293.721L121.571 293.117C122.613 292.971 123.339 292.471 123.898 291.728C124.458 290.986 124.739 290.15 124.592 289.108C124.464 288.197 123.964 287.471 123.221 286.911C122.479 286.352 121.513 286.089 120.601 286.217L116.305 286.821Z" fill="#777677"/>
<path d="M133.965 287.791C135.788 287.535 137.423 287.836 138.611 288.731C139.799 289.626 140.633 290.837 140.889 292.659L142.06 300.991L139.586 301.339L139.33 299.516L139.2 299.535C138.378 301.243 137.056 302.225 135.364 302.463C133.932 302.665 132.575 302.457 131.405 301.692C130.236 300.927 129.569 299.959 129.386 298.657C129.184 297.225 129.559 296.11 130.472 295.053C131.404 294.125 132.763 293.403 134.585 293.147C136.147 292.927 137.356 293.023 138.47 293.398L138.397 292.877C138.269 291.965 137.769 291.239 137.045 290.81C136.302 290.251 135.354 290.118 134.443 290.246C133.011 290.448 131.931 291.263 131.314 292.545L128.9 291.424C129.779 289.176 131.492 288.139 133.965 287.791ZM131.953 298.031C132.044 298.682 132.378 299.166 132.972 299.613C133.547 299.931 134.235 300.1 135.016 299.99C136.057 299.843 137.044 299.307 137.715 298.416C138.387 297.525 138.779 296.54 138.633 295.499C137.76 294.958 136.552 294.862 135.25 295.045C134.209 295.191 133.334 295.58 132.756 296.192C132.16 296.674 131.861 297.38 131.953 298.031Z" fill="#777677"/>
<path d="M142.873 286.937L145.347 286.59L145.658 288.803L145.788 288.785C146.331 286.982 147.765 285.852 150.109 285.522L150.629 285.449L150.995 288.053L149.805 288.087C148.634 288.252 147.647 288.789 147.088 289.531C146.416 290.422 146.154 291.388 146.3 292.43L147.343 299.85L144.739 300.216L142.873 286.937ZM160.695 298.505C159.654 298.651 158.557 298.407 157.815 297.848C156.942 297.306 156.536 296.302 156.241 295.148L155.18 287.597L152.836 287.927L152.507 285.583L154.85 285.254L154.265 281.088L156.868 280.722L157.454 284.888L160.709 284.431L161.038 286.774L157.783 287.232L158.735 294.001C158.863 294.912 159.084 295.545 159.512 295.751C159.939 295.956 160.366 296.162 160.756 296.107C161.017 296.07 161.147 296.052 161.389 295.885C161.519 295.867 161.761 295.7 161.892 295.682L162.984 297.785C162.369 298.137 161.607 298.377 160.695 298.505Z" fill="#777677"/>
<path d="M163.312 284.065L165.785 283.717L166.041 285.54L166.171 285.522C166.47 284.816 167.048 284.204 167.756 283.573C168.482 283.073 169.357 282.684 170.138 282.574C171.831 282.337 173.206 282.674 174.115 283.476C175.154 284.259 175.746 285.636 175.984 287.329L177.173 295.791L174.569 296.157L173.398 287.825C173.087 285.612 171.769 284.735 169.556 285.046C168.515 285.192 167.789 285.693 167.117 286.583C166.576 287.456 166.332 288.552 166.497 289.724L167.558 297.275L164.954 297.641L163.051 284.102L163.312 284.065Z" fill="#777677"/>
<path d="M186.36 295.031C184.407 295.305 182.624 294.892 181.12 293.643C179.636 292.524 178.729 290.793 178.436 288.71C178.143 286.627 178.556 284.843 179.527 283.247C180.627 281.632 182.098 280.761 184.051 280.487C186.003 280.212 187.787 280.625 189.142 281.762C190.497 282.9 191.404 284.631 191.733 286.974L191.77 287.234L181.094 288.735C181.277 290.037 181.944 291.005 182.854 291.806C183.875 292.459 184.841 292.722 186.013 292.557C187.575 292.338 188.767 291.374 189.44 289.553L191.8 290.284C191.314 291.547 190.661 292.568 189.711 293.365C188.927 294.405 187.792 294.83 186.36 295.031ZM181.08 286.745L188.891 285.648C188.633 284.755 188.133 284.028 187.39 283.469C186.648 282.909 185.7 282.777 184.528 282.942C183.617 283.07 182.742 283.458 182.183 284.201C181.493 284.961 181.213 285.797 181.08 286.745Z" fill="#777677"/>
<path d="M197.632 293.048L195.028 293.414L193.125 279.875L195.599 279.527L195.91 281.741L196.04 281.722C196.19 280.905 196.638 280.311 197.346 279.68C198.054 279.05 198.798 278.679 199.579 278.57C200.361 278.46 200.9 278.517 201.457 278.704L201.135 281.139C200.857 281.045 200.336 281.118 199.685 281.21C198.774 281.338 197.917 281.857 197.376 282.729C196.835 283.602 196.573 284.568 196.719 285.609L197.762 293.03L197.632 293.048Z" fill="#777677"/>
<path fill-rule="evenodd" clip-rule="evenodd" d="M206.833 277.254C205.453 277.451 204.37 278.005 203.659 278.917C202.931 279.829 202.651 280.89 202.815 282.074C202.962 283.13 203.403 283.985 204.098 284.551C204.788 285.114 205.687 285.429 206.725 285.513L209.286 285.686C209.934 285.726 210.422 285.872 210.763 286.12C211.1 286.365 211.303 286.716 211.369 287.189C211.457 287.829 211.3 288.314 210.873 288.725C210.438 289.144 209.863 289.408 209.143 289.51C208.157 289.661 207.358 289.581 206.736 289.28C206.117 288.98 205.662 288.454 205.372 287.689L205.27 287.476L203.137 288.304L203.239 288.541C203.766 289.808 204.533 290.726 205.539 291.272C206.544 291.819 207.776 291.989 209.221 291.783C210.754 291.564 211.951 290.996 212.778 290.071C213.627 289.141 213.957 288.006 213.776 286.699C213.609 285.565 213.159 284.686 212.419 284.072C211.68 283.459 210.663 283.12 209.38 283.041L207.023 282.901C206.435 282.863 205.998 282.725 205.695 282.497C205.394 282.27 205.214 281.947 205.154 281.513C205.077 280.956 205.221 280.533 205.597 280.17C205.978 279.802 206.534 279.56 207.237 279.46C207.95 279.358 208.546 279.435 209.041 279.685C209.535 279.935 209.939 280.363 210.258 280.984L210.356 281.189L212.41 280.37L212.309 280.134C211.829 278.994 211.13 278.175 210.209 277.691C209.289 277.208 208.16 277.065 206.833 277.254Z" fill="#777677"/>
<path d="M35.0316 304.839L35.4206 307.607L42.2339 306.649C42.2604 308.382 41.6182 309.992 40.7032 311.207C39.5754 312.451 38.1448 313.086 36.2286 313.355C34.0994 313.654 32.3063 313.255 30.6065 311.974C28.9066 310.693 28.0285 309.08 27.7292 306.951C27.43 304.821 27.8293 303.028 29.1103 301.328C30.3912 299.629 32.0048 298.75 34.1339 298.451C36.0502 298.182 37.8433 298.581 39.5132 299.649L41.1601 297.464C38.9447 295.604 36.4829 295.081 33.715 295.47C32.0117 295.71 30.1553 296.405 28.8145 297.679C27.2309 298.77 26.1329 300.227 25.5207 302.05C24.6655 303.69 24.4791 305.453 24.7484 307.369C25.0177 309.286 25.6829 310.929 26.957 312.27C28.0181 313.641 29.4751 314.739 31.2981 315.351C33.1212 315.963 34.9142 316.363 36.8305 316.093C39.5984 315.704 41.8208 314.523 43.4976 312.551C44.7486 310.638 45.4841 308.146 45.0651 305.165C44.9754 304.527 44.8856 303.888 44.6128 303.492L35.0316 304.839Z" fill="#487CBF"/>
<path d="M52.2217 300.469C50.3055 300.738 48.9048 301.586 47.8069 303.043C46.7089 304.5 46.2797 306.08 46.549 307.997C46.8183 309.913 47.6665 311.314 49.1235 312.412C50.5805 313.509 52.1607 313.939 54.077 313.669C55.9932 313.4 57.3938 312.552 58.4918 311.095C59.5897 309.638 60.019 308.058 59.7497 306.141C59.4804 304.225 58.6322 302.825 57.1752 301.727C55.7181 300.629 54.1379 300.199 52.2217 300.469ZM56.0933 309.478C55.5743 310.419 54.5396 310.782 53.688 310.902C52.6234 311.051 51.7119 310.745 50.7704 310.226C50.012 309.464 49.4665 308.672 49.3169 307.608C49.1373 306.33 49.4435 305.419 49.9924 304.69C50.5115 303.749 51.5461 303.386 52.6107 303.237C53.6753 303.087 54.5868 303.393 55.5282 303.912C56.2567 304.461 56.8322 305.466 56.9818 306.53C56.9185 307.625 56.8552 308.719 56.0933 309.478Z" fill="#EF372C"/>
<path d="M91.505 288L88.5242 288.419L91.2771 308.007L94.2579 307.588L91.505 288Z" fill="#00AC4E"/>
<path d="M66.7001 298.434C64.7838 298.703 63.3832 299.551 62.2853 301.008C61.1873 302.465 60.758 304.046 61.0273 305.962C61.2966 307.878 62.1448 309.279 63.6019 310.377C65.0589 311.475 66.6391 311.904 68.5553 311.635C70.4716 311.365 71.8722 310.517 72.9701 309.06C74.0681 307.603 74.4974 306.023 74.2281 304.107C73.9588 302.19 73.1106 300.79 71.6535 299.692C70.1965 298.594 68.6163 298.165 66.7001 298.434ZM70.7846 307.413C70.2655 308.355 69.2309 308.717 68.3792 308.837C67.3147 308.986 66.4031 308.68 65.4617 308.161C64.7033 307.399 64.1578 306.608 64.0081 305.543C63.8286 304.265 64.1347 303.354 64.6837 302.625C65.2028 301.684 66.2374 301.321 67.302 301.172C68.3666 301.022 69.2781 301.328 70.2195 301.847C70.948 302.396 71.5235 303.401 71.6731 304.466C71.6098 305.56 71.3336 306.685 70.7846 307.413Z" fill="#FBB03B"/>
<path d="M101.837 304.352C100.346 304.562 99.1918 304.072 98.3735 302.885L106.807 298.008L106.475 297.187C106.172 296.578 105.656 295.999 105.384 295.603C104.898 295.237 104.382 294.658 103.927 294.505C103.441 294.139 102.772 294.016 102.104 293.893C101.435 293.77 100.796 293.859 100.157 293.949C98.4541 294.189 97.0534 295.037 95.9555 296.494C94.8575 297.951 94.6412 299.501 94.9105 301.417C95.1798 303.334 96.028 304.734 97.485 305.832C98.942 306.93 100.522 307.359 102.438 307.09C104.781 306.761 106.547 305.427 107.555 303.331L105.004 302.17C104.302 303.354 103.114 304.173 101.837 304.352ZM98.0812 297.715C98.6302 296.986 99.422 296.441 100.487 296.291C101.125 296.201 101.581 296.355 102.037 296.508C102.493 296.661 102.978 297.027 103.038 297.453L97.6185 300.603C97.256 299.568 97.5322 298.443 98.0812 297.715Z" fill="#EF372C"/>
<path d="M84.794 297.411C83.7927 296.466 82.4554 296.219 80.965 296.429C79.2617 296.668 77.861 297.517 76.7631 298.974C75.6651 300.431 75.2658 302.224 75.5052 303.927C75.7745 305.843 76.6227 307.244 78.0797 308.342C79.5367 309.44 81.1169 309.869 82.8202 309.63C84.3107 309.42 85.5283 308.815 86.0174 307.66L86.1072 308.299C86.4962 311.067 85.4282 312.737 83.0861 313.066C82.2344 313.186 81.5658 313.063 81.0801 312.697C80.3815 312.361 79.8659 311.782 79.5632 311.173L77.1578 312.597C77.4605 313.205 77.9462 313.571 78.4618 314.15C78.9475 314.516 79.4332 314.882 79.9188 315.248C80.4045 315.614 81.0732 315.737 81.7419 315.861C82.4105 315.984 83.0493 315.894 83.688 315.804C85.6043 315.535 87.2178 314.657 88.1328 313.443C89.0178 312.015 89.4172 310.222 89.1179 308.093L87.3824 295.744L84.6145 296.133L84.794 297.411ZM85.0495 305.408C84.5305 306.35 83.7087 306.682 82.6442 306.832C81.5796 306.981 80.6681 306.675 79.9396 306.126C79.211 305.577 78.6356 304.573 78.486 303.508C78.3364 302.443 78.6126 301.319 79.1616 300.591C79.6806 299.649 80.6853 299.074 81.537 298.954C82.6016 298.804 83.5131 299.11 84.2416 299.659C85 300.421 85.5456 301.213 85.7251 302.491C85.8747 303.555 85.5985 304.68 85.0495 305.408Z" fill="#487CBF"/>
<g clip-path="url(#clip3)">
<path d="M159.024 228.264C158.031 227.684 157.013 228.123 156.382 228.96C155.145 230.584 153.882 232.208 152.593 233.794C151.936 234.606 151.279 235.418 150.609 236.204C150.261 236.629 149.913 237.041 149.565 237.454C149.513 237.505 149.474 237.57 149.423 237.621C149.371 237.583 149.333 237.544 149.281 237.493C148.766 237.08 148.276 236.629 147.812 236.152C146.936 235.25 146.266 234.386 145.608 233.317C145.054 232.427 143.869 232.079 142.954 232.621C142.065 233.136 141.717 234.374 142.258 235.263C143.276 236.887 144.5 238.408 145.918 239.696C146.639 240.354 147.425 240.972 148.237 241.514C149.41 242.3 150.686 242.055 151.588 241.011C154.423 237.75 157.103 234.348 159.707 230.907C160.351 230.069 159.848 228.741 159.024 228.264Z" fill="#00A99D"/>
</g>
<path d="M197.276 241.137C196.956 239.532 195.996 237.989 194.716 236.878C193.628 235.89 192.284 235.211 190.812 234.841C190.044 234.594 189.212 234.409 188.38 234.347C183.772 234.038 179.356 237.495 178.652 241.878C177.948 246.631 181.212 251.075 186.076 252.063C190.556 252.989 196.892 251.816 198.108 246.816C198.556 244.841 198.172 242.866 197.276 241.137Z" fill="#FBB03B"/>
<path d="M198.108 234.841C197.532 234.532 196.636 234.656 196.38 235.273C195.484 237.186 194.076 238.73 192.732 240.396L190.62 242.989C190.236 243.421 189.916 243.853 189.532 244.285C189.34 244.47 189.212 244.717 189.02 244.903C188.828 244.779 188.636 244.594 188.444 244.47C187.996 244.162 187.612 243.915 187.164 243.606C186.332 243.051 185.5 242.433 184.732 241.816C184.22 241.384 183.452 241.322 182.94 241.816C182.492 242.248 182.364 243.174 182.94 243.545C184.476 244.717 186.012 245.828 187.612 246.878C188.444 247.433 189.34 247.989 190.3 247.186C190.94 246.631 191.452 245.828 192.028 245.149C193.244 243.668 194.46 242.248 195.612 240.767C196.7 239.409 197.852 238.051 198.62 236.446C198.876 235.952 198.748 235.211 198.108 234.841Z" fill="#1E1E1E"/>
<path d="M200.987 226.816C194.203 221.26 183.387 220.149 175.963 225.396C175.387 225.767 175.131 226.384 175.515 227.001C175.835 227.495 176.731 227.804 177.243 227.433C183.003 223.421 191.195 223.421 197.147 227.063C203.163 230.705 206.491 237.495 206.363 244.038C206.171 251.507 200.219 257.433 192.539 259.1C188.763 259.964 184.475 259.841 180.891 258.421C177.243 257.063 174.875 254.1 173.275 250.828C171.547 247.063 170.971 242.68 172.251 238.73C173.403 235.149 175.963 232.063 179.547 230.335C181.019 229.656 179.739 227.618 178.267 228.297C174.555 230.026 171.867 233.112 170.331 236.631C168.667 240.396 168.667 244.655 169.755 248.606C170.907 252.557 173.275 256.631 176.923 259.1C180.443 261.446 185.115 262.248 189.403 261.939C198.043 261.322 206.171 256.137 208.347 248.174C210.395 240.643 207.259 231.939 200.987 226.816Z" fill="#1E1E1E"/>
<path d="M208.768 201.605C208.76 200.973 208.752 200.341 208.744 199.709C208.728 198.525 208.72 197.349 208.704 196.165C208.688 195.054 208.968 193.43 208.224 192.51C207.416 191.518 205.712 191.654 204.544 191.598C201.784 191.454 199.032 191.638 196.304 192.062C196.048 192.102 195.832 192.23 195.656 192.406C194.608 192.142 193.56 192.542 193.024 193.598C192.504 194.622 192.728 196.014 192.776 197.125C192.88 199.445 193.136 201.749 193.488 204.037C193.624 204.925 194.68 205.317 195.44 205.157C197.616 204.701 199.864 204.949 202.064 205.061C203.184 205.117 204.304 205.157 205.424 205.077C206.736 204.981 208.36 204.893 208.712 203.325C208.848 202.773 208.776 202.165 208.768 201.605Z" fill="#FBB03B"/>
<path d="M208.768 168.686C208.76 168.054 208.752 167.422 208.744 166.79C208.728 165.606 208.72 164.43 208.704 163.246C208.688 162.134 208.968 160.51 208.224 159.59C207.416 158.598 205.712 158.734 204.544 158.678C201.784 158.534 199.032 158.718 196.304 159.142C196.048 159.182 195.832 159.31 195.656 159.486C194.608 159.222 193.56 159.622 193.024 160.678C192.504 161.702 192.728 163.094 192.776 164.206C192.88 166.526 193.136 168.83 193.488 171.118C193.624 172.006 194.68 172.398 195.44 172.238C197.616 171.782 199.864 172.03 202.064 172.142C203.184 172.198 204.304 172.238 205.424 172.158C206.736 172.062 208.36 171.974 208.712 170.406C208.848 169.854 208.776 169.246 208.768 168.686Z" fill="#00A99D"/>
<path d="M208.768 135.766C208.76 135.134 208.752 134.502 208.744 133.87C208.728 132.686 208.72 131.51 208.704 130.326C208.688 129.214 208.968 127.59 208.224 126.67C207.416 125.678 205.712 125.814 204.544 125.758C201.784 125.614 199.032 125.798 196.304 126.222C196.048 126.262 195.832 126.39 195.656 126.566C194.608 126.302 193.56 126.702 193.024 127.758C192.504 128.782 192.728 130.174 192.776 131.286C192.88 133.606 193.136 135.91 193.488 138.198C193.624 139.086 194.68 139.478 195.44 139.318C197.616 138.862 199.864 139.11 202.064 139.222C203.184 139.278 204.304 139.318 205.424 139.238C206.736 139.142 208.36 139.054 208.712 137.486C208.848 136.934 208.776 136.334 208.768 135.766Z" fill="#FBB03B"/>
<path d="M118.273 130.038C115.953 132.062 114.705 136.646 115.561 139.606C116.369 142.406 122.025 142.294 124.361 142.358C125.825 142.398 127.921 142.542 129.305 141.99C130.529 141.502 130.793 140.414 130.825 139.246C131.057 138.966 131.225 138.614 131.273 138.182C131.961 132.07 123.625 125.358 118.273 130.038Z" fill="#00A99D"/>
<path d="M124.953 128.886C123.025 127.878 120.801 127.446 118.641 127.814C116.289 128.214 114.793 129.878 114.081 132.07C113.193 134.806 113.121 137.79 113.001 140.638C112.953 141.854 114.849 141.854 114.897 140.638C114.985 138.422 115.065 136.198 115.529 134.022C115.897 132.278 116.505 130.382 118.393 129.806C121.897 128.734 125.825 130.902 127.569 133.918C128.617 135.726 129.001 137.814 128.801 139.886C128.753 140.398 129.273 140.83 129.745 140.83C130.297 140.83 130.641 140.398 130.689 139.886C131.113 135.478 128.945 130.966 124.953 128.886Z" fill="#1E1E1E" stroke="#1E1E1E" stroke-width="0.8925" stroke-miterlimit="10"/>
<path d="M125.649 134.918C125.393 134.494 124.793 134.302 124.353 134.582C123.929 134.854 123.737 135.422 124.017 135.87C124.121 136.046 124.225 136.222 124.313 136.414C124.345 136.486 124.377 136.558 124.409 136.622C124.313 136.414 124.441 136.71 124.457 136.758C124.585 137.11 124.689 137.47 124.753 137.838C124.769 137.91 124.777 137.982 124.793 138.062C124.801 138.118 124.809 138.222 124.809 138.238C124.825 138.414 124.833 138.598 124.833 138.782C124.833 138.966 124.825 139.142 124.809 139.326C124.801 139.374 124.793 139.71 124.793 139.462C124.793 139.558 124.761 139.67 124.737 139.766C124.641 140.246 124.873 140.806 125.401 140.926C125.873 141.03 126.465 140.782 126.569 140.27C126.929 138.43 126.625 136.518 125.649 134.918Z" fill="#1E1E1E" stroke="#1E1E1E" stroke-width="0.8925" stroke-miterlimit="10"/>
<path d="M123.945 115.574C121.705 114.142 118.505 113.174 116.225 114.998C115.825 115.318 115.889 115.998 116.225 116.334C116.617 116.726 117.161 116.654 117.561 116.334C118.881 115.278 120.977 116.134 122.273 116.798C123.681 117.518 124.761 118.598 124.753 120.262C124.745 121.67 124.025 123.286 122.801 124.054C122.089 124.502 121.305 124.39 120.561 124.062C119.833 123.742 119.049 123.278 118.601 122.606C117.857 121.502 118.097 119.734 119.185 118.926C119.593 118.622 119.801 118.11 119.521 117.638C119.281 117.238 118.641 116.99 118.225 117.302C116.585 118.518 115.825 120.726 116.537 122.686C116.953 123.822 117.801 124.678 118.833 125.294C119.881 125.918 121.121 126.39 122.361 126.206C124.609 125.87 126.201 123.43 126.545 121.334C126.937 118.95 125.969 116.862 123.945 115.574Z" fill="#1E1E1E" stroke="#1E1E1E" stroke-width="0.8925" stroke-miterlimit="10"/>
<path d="M118.273 197.63C115.953 199.653 114.705 204.237 115.561 207.197C116.369 209.997 122.025 209.885 124.361 209.949C125.825 209.989 127.921 210.133 129.305 209.581C130.529 209.093 130.793 208.005 130.825 206.837C131.057 206.557 131.225 206.205 131.273 205.773C131.961 199.661 123.625 192.95 118.273 197.63Z" fill="#00A99D"/>
<path d="M124.953 196.486C123.025 195.478 120.801 195.046 118.641 195.414C116.289 195.814 114.793 197.478 114.081 199.67C113.193 202.406 113.121 205.39 113.001 208.238C112.953 209.454 114.849 209.454 114.897 208.238C114.985 206.022 115.065 203.798 115.529 201.622C115.897 199.878 116.505 197.982 118.393 197.406C121.897 196.334 125.825 198.502 127.569 201.518C128.617 203.326 129.001 205.414 128.801 207.486C128.753 207.998 129.273 208.43 129.745 208.43C130.297 208.43 130.641 207.998 130.689 207.486C131.113 203.078 128.945 198.566 124.953 196.486Z" fill="#1E1E1E" stroke="#1E1E1E" stroke-width="0.8925" stroke-miterlimit="10"/>
<path d="M125.649 202.518C125.393 202.094 124.793 201.902 124.353 202.182C123.929 202.454 123.737 203.022 124.017 203.47C124.121 203.646 124.225 203.822 124.313 204.014C124.345 204.086 124.377 204.158 124.409 204.222C124.313 204.014 124.441 204.31 124.457 204.358C124.585 204.71 124.689 205.07 124.753 205.438C124.769 205.51 124.777 205.582 124.793 205.662C124.801 205.718 124.809 205.822 124.809 205.838C124.825 206.014 124.833 206.198 124.833 206.382C124.833 206.566 124.825 206.742 124.809 206.926C124.801 206.974 124.793 207.31 124.793 207.062C124.793 207.158 124.761 207.27 124.737 207.366C124.641 207.846 124.873 208.406 125.401 208.526C125.873 208.63 126.465 208.382 126.569 207.87C126.929 206.03 126.625 204.11 125.649 202.518Z" fill="#1E1E1E" stroke="#1E1E1E" stroke-width="0.8925" stroke-miterlimit="10"/>
<path d="M123.945 183.166C121.705 181.734 118.505 180.766 116.225 182.59C115.825 182.91 115.889 183.59 116.225 183.926C116.617 184.318 117.161 184.246 117.561 183.926C118.881 182.87 120.977 183.726 122.273 184.39C123.681 185.11 124.761 186.19 124.753 187.854C124.745 189.262 124.025 190.878 122.801 191.646C122.089 192.094 121.305 191.982 120.561 191.654C119.833 191.334 119.049 190.87 118.601 190.198C117.857 189.094 118.097 187.326 119.185 186.518C119.593 186.214 119.801 185.702 119.521 185.23C119.281 184.83 118.641 184.582 118.225 184.894C116.585 186.11 115.825 188.318 116.537 190.278C116.953 191.414 117.801 192.27 118.833 192.886C119.881 193.51 121.121 193.982 122.361 193.798C124.609 193.462 126.201 191.022 126.545 188.926C126.937 186.55 125.969 184.462 123.945 183.166Z" fill="#1E1E1E" stroke="#1E1E1E" stroke-width="0.8925" stroke-miterlimit="10"/>
<path d="M118.273 163.91C115.953 165.934 114.705 170.518 115.561 173.478C116.369 176.278 122.025 176.166 124.361 176.23C125.825 176.27 127.921 176.414 129.305 175.862C130.529 175.374 130.793 174.286 130.825 173.118C131.057 172.838 131.225 172.486 131.273 172.054C131.961 165.942 123.625 159.23 118.273 163.91Z" fill="#FBB03B"/>
<path d="M124.953 162.758C123.025 161.75 120.801 161.318 118.641 161.686C116.289 162.086 114.793 163.75 114.081 165.942C113.193 168.678 113.121 171.662 113.001 174.51C112.953 175.726 114.849 175.726 114.897 174.51C114.985 172.294 115.065 170.07 115.529 167.894C115.897 166.15 116.505 164.254 118.393 163.678C121.897 162.606 125.825 164.774 127.569 167.79C128.617 169.598 129.001 171.686 128.801 173.758C128.753 174.27 129.273 174.702 129.745 174.702C130.297 174.702 130.641 174.27 130.689 173.758C131.113 169.35 128.945 164.838 124.953 162.758Z" fill="#1E1E1E" stroke="#1E1E1E" stroke-width="0.8925" stroke-miterlimit="10"/>
<path d="M125.649 168.79C125.393 168.366 124.793 168.174 124.353 168.454C123.929 168.726 123.737 169.294 124.017 169.742C124.121 169.918 124.225 170.094 124.313 170.286C124.345 170.358 124.377 170.43 124.409 170.494C124.313 170.286 124.441 170.582 124.457 170.63C124.585 170.982 124.689 171.342 124.753 171.71C124.769 171.782 124.777 171.854 124.793 171.934C124.801 171.99 124.809 172.094 124.809 172.11C124.825 172.286 124.833 172.47 124.833 172.654C124.833 172.838 124.825 173.014 124.809 173.198C124.801 173.246 124.793 173.582 124.793 173.334C124.793 173.43 124.761 173.542 124.737 173.638C124.641 174.118 124.873 174.678 125.401 174.798C125.873 174.902 126.465 174.654 126.569 174.142C126.929 172.302 126.625 170.39 125.649 168.79Z" fill="#1E1E1E" stroke="#1E1E1E" stroke-width="0.8925" stroke-miterlimit="10"/>
<path d="M123.945 149.438C121.705 148.006 118.505 147.038 116.225 148.862C115.825 149.182 115.889 149.862 116.225 150.198C116.617 150.59 117.161 150.518 117.561 150.198C118.881 149.142 120.977 149.998 122.273 150.662C123.681 151.382 124.761 152.462 124.753 154.126C124.745 155.534 124.025 157.15 122.801 157.918C122.089 158.366 121.305 158.254 120.561 157.926C119.833 157.606 119.049 157.142 118.601 156.47C117.857 155.366 118.097 153.598 119.185 152.79C119.593 152.486 119.801 151.974 119.521 151.502C119.281 151.102 118.641 150.854 118.225 151.166C116.585 152.382 115.825 154.59 116.537 156.55C116.953 157.686 117.801 158.542 118.833 159.158C119.881 159.782 121.121 160.254 122.361 160.07C124.609 159.734 126.201 157.294 126.545 155.198C126.937 152.822 125.969 150.734 123.945 149.438Z" fill="#1E1E1E" stroke="#1E1E1E" stroke-width="0.8925" stroke-miterlimit="10"/>
<path d="M184.584 136.318C169.257 136.966 153.881 137.062 138.529 136.614C135.481 136.526 135.489 139.726 138.529 139.814C153.873 140.262 169.249 140.166 184.584 139.518C187.616 139.39 187.632 136.19 184.584 136.318Z" fill="#1E1E1E"/>
<path d="M152.641 129.278H138.105C135.929 129.278 135.929 132.478 138.105 132.478H152.641C154.809 132.478 154.817 129.278 152.641 129.278Z" fill="#1E1E1E"/>
<path d="M159.664 132.478H174.2C176.376 132.478 176.376 129.278 174.2 129.278H159.664C157.488 129.278 157.48 132.478 159.664 132.478Z" fill="#1E1E1E"/>
<path d="M208.152 126.118C208.008 125.262 207.184 124.542 206.304 124.366C205.672 124.238 205.024 124.262 204.384 124.294C203.84 124.318 203.304 124.358 202.768 124.422C202.688 124.422 202.608 124.43 202.536 124.438C199.4 124.39 196.232 124.55 193.16 125.054C192.304 125.198 191.544 125.63 191.136 126.374C190.648 127.262 190.832 128.438 190.832 129.406L190.84 134.758C190.84 135.606 190.84 136.454 190.84 137.302C190.84 138.206 190.76 139.174 191.224 139.998C192.192 141.718 194.576 141.342 196.28 141.318C198.16 141.294 200.04 141.238 201.912 141.158C203.64 141.086 206.008 141.382 206.896 139.638C207.368 138.718 207.224 137.646 207.224 136.654C207.28 136.414 207.288 136.166 207.24 135.926C207.24 135.878 207.24 135.83 207.248 135.782H207.208C207.184 135.71 207.16 135.638 207.128 135.566C207.128 135.558 207.12 135.558 207.12 135.55C207.032 135.366 206.92 135.198 206.76 135.062C206.728 135.038 206.704 135.006 206.672 134.982C206.64 134.958 206.6 134.934 206.56 134.91C206.512 134.878 206.464 134.854 206.416 134.83C206.376 134.814 206.344 134.798 206.304 134.782C206.24 134.758 206.176 134.742 206.104 134.718C206.072 134.71 206.032 134.702 206 134.694C205.888 134.678 205.776 134.662 205.648 134.662C205.632 134.662 205.624 134.662 205.608 134.662C205.592 134.662 205.576 134.662 205.56 134.662C205.384 134.662 205.232 134.686 205.088 134.726C203.928 134.886 203.504 136.038 203.84 136.91C203.84 137.238 203.84 137.558 203.856 137.886C203.728 137.894 203.592 137.902 203.464 137.91C201.872 137.99 200.272 138.054 198.68 138.094C197.2 138.134 195.72 138.174 194.232 138.166C194.224 138.046 194.216 137.926 194.216 137.87C194.216 137.11 194.216 136.35 194.216 135.598C194.216 134.078 194.216 132.566 194.208 131.046C194.208 130.334 194.208 129.622 194.208 128.902C194.208 128.702 194.256 128.398 194.248 128.142C197.624 127.646 201.104 127.582 204.512 127.718C204.512 127.822 204.536 127.926 204.568 128.03C204.56 128.062 204.56 128.102 204.552 128.134H204.608C204.624 128.166 204.632 128.206 204.648 128.246C204.72 128.446 204.832 128.614 205 128.758C205.112 128.838 205.224 128.926 205.344 129.006C205.608 129.15 205.888 129.222 206.2 129.222L206.648 129.166C206.848 129.11 207.024 129.014 207.192 128.902C207.328 128.83 207.456 128.75 207.552 128.638C207.704 128.462 207.816 128.31 207.912 128.134H207.944C207.944 128.11 207.952 128.086 207.952 128.062C207.976 128.022 208 127.99 208.016 127.95C208.144 127.67 208.184 127.438 208.216 127.126C208.256 126.774 208.208 126.446 208.152 126.118Z" fill="#1E1E1E"/>
<path d="M208.928 130.518C208.648 129.686 207.768 129.166 206.848 129.398C204.216 130.062 201.88 131.358 199.64 132.782C199.176 132.014 198.64 131.278 198.016 130.574C197.44 129.934 196.208 129.974 195.624 130.574C194.96 131.254 195.016 132.15 195.624 132.838C195.984 133.246 196.248 133.59 196.6 134.142C196.76 134.39 196.904 134.646 197.048 134.902C197.2 135.182 197.312 135.414 197.368 135.55C197.576 136.03 197.824 136.382 198.344 136.59C198.808 136.774 199.416 136.798 199.848 136.51C201.12 135.67 202.4 134.838 203.744 134.102C205.136 133.342 206.216 132.87 207.744 132.486C208.608 132.27 209.208 131.334 208.928 130.518Z" fill="#1E1E1E"/>
<path d="M184.584 169.294C169.257 169.942 153.881 170.038 138.529 169.59C135.481 169.502 135.489 172.702 138.529 172.79C153.873 173.238 169.249 173.142 184.584 172.494C187.616 172.366 187.632 169.166 184.584 169.294Z" fill="#1E1E1E"/>
<path d="M152.641 162.254H138.105C135.929 162.254 135.929 165.454 138.105 165.454H152.641C154.809 165.454 154.817 162.254 152.641 162.254Z" fill="#1E1E1E"/>
<path d="M159.664 165.454H174.2C176.376 165.454 176.376 162.254 174.2 162.254H159.664C157.488 162.254 157.48 165.454 159.664 165.454Z" fill="#1E1E1E"/>
<path d="M208.152 159.094C208.008 158.238 207.184 157.518 206.304 157.342C205.672 157.214 205.024 157.238 204.384 157.27C203.84 157.294 203.304 157.334 202.768 157.398C202.688 157.398 202.608 157.406 202.536 157.414C199.4 157.366 196.232 157.526 193.16 158.03C192.304 158.174 191.544 158.606 191.136 159.35C190.648 160.238 190.832 161.414 190.832 162.382L190.84 167.734C190.84 168.582 190.84 169.43 190.84 170.278C190.84 171.182 190.76 172.15 191.224 172.974C192.192 174.694 194.576 174.318 196.28 174.294C198.16 174.27 200.04 174.214 201.912 174.134C203.64 174.062 206.008 174.358 206.896 172.614C207.368 171.694 207.224 170.622 207.224 169.63C207.28 169.39 207.288 169.142 207.24 168.902C207.24 168.854 207.24 168.806 207.248 168.758H207.208C207.184 168.686 207.16 168.614 207.128 168.542C207.128 168.534 207.12 168.534 207.12 168.526C207.032 168.342 206.92 168.174 206.76 168.038C206.728 168.014 206.704 167.982 206.672 167.958C206.64 167.934 206.6 167.91 206.56 167.886C206.512 167.854 206.464 167.83 206.416 167.806C206.376 167.79 206.344 167.774 206.304 167.758C206.24 167.734 206.176 167.718 206.104 167.694C206.072 167.686 206.032 167.678 206 167.67C205.888 167.654 205.776 167.638 205.648 167.638C205.632 167.638 205.624 167.638 205.608 167.638C205.592 167.638 205.576 167.638 205.56 167.638C205.384 167.638 205.232 167.662 205.088 167.702C203.928 167.862 203.504 169.014 203.84 169.886C203.84 170.214 203.84 170.534 203.856 170.862C203.728 170.87 203.592 170.878 203.464 170.886C201.872 170.966 200.272 171.03 198.68 171.07C197.2 171.11 195.72 171.15 194.232 171.142C194.224 171.022 194.216 170.902 194.216 170.846C194.216 170.086 194.216 169.326 194.216 168.574C194.216 167.054 194.216 165.542 194.208 164.022C194.208 163.31 194.208 162.598 194.208 161.878C194.208 161.678 194.256 161.374 194.248 161.118C197.624 160.622 201.104 160.558 204.512 160.694C204.512 160.798 204.536 160.902 204.568 161.006C204.56 161.038 204.56 161.078 204.552 161.11H204.608C204.624 161.142 204.632 161.182 204.648 161.222C204.72 161.422 204.832 161.59 205 161.734C205.112 161.814 205.224 161.902 205.344 161.982C205.608 162.126 205.888 162.198 206.2 162.198L206.648 162.142C206.848 162.086 207.024 161.99 207.192 161.878C207.328 161.806 207.456 161.726 207.552 161.614C207.704 161.438 207.816 161.286 207.912 161.11H207.944C207.944 161.086 207.952 161.062 207.952 161.038C207.976 160.998 208 160.966 208.016 160.926C208.144 160.646 208.184 160.414 208.216 160.102C208.256 159.75 208.208 159.422 208.152 159.094Z" fill="#1E1E1E"/>
<path d="M208.928 163.494C208.648 162.662 207.768 162.142 206.848 162.374C204.216 163.038 201.88 164.334 199.64 165.758C199.176 164.99 198.64 164.254 198.016 163.55C197.44 162.91 196.208 162.95 195.624 163.55C194.96 164.23 195.016 165.126 195.624 165.814C195.984 166.222 196.248 166.566 196.6 167.118C196.76 167.366 196.904 167.622 197.048 167.878C197.2 168.158 197.312 168.39 197.368 168.526C197.576 169.006 197.824 169.358 198.344 169.566C198.808 169.75 199.416 169.774 199.848 169.486C201.12 168.646 202.4 167.814 203.744 167.078C205.136 166.318 206.216 165.846 207.744 165.462C208.608 165.246 209.208 164.31 208.928 163.494Z" fill="#1E1E1E"/>
<path d="M184.584 202.269C169.257 202.917 153.881 203.013 138.529 202.565C135.481 202.477 135.489 205.677 138.529 205.765C153.873 206.213 169.249 206.117 184.584 205.469C187.616 205.341 187.632 202.141 184.584 202.269Z" fill="#1E1E1E"/>
<path d="M152.641 195.23H138.105C135.929 195.23 135.929 198.43 138.105 198.43H152.641C154.809 198.43 154.817 195.23 152.641 195.23Z" fill="#1E1E1E"/>
<path d="M159.664 198.43H174.2C176.376 198.43 176.376 195.23 174.2 195.23H159.664C157.488 195.23 157.48 198.43 159.664 198.43Z" fill="#1E1E1E"/>
<path d="M208.152 192.07C208.008 191.214 207.184 190.494 206.304 190.318C205.672 190.19 205.024 190.214 204.384 190.246C203.84 190.27 203.304 190.31 202.768 190.374C202.688 190.374 202.608 190.382 202.536 190.39C199.4 190.342 196.232 190.502 193.16 191.006C192.304 191.15 191.544 191.582 191.136 192.326C190.648 193.214 190.832 194.39 190.832 195.358L190.84 200.709C190.84 201.557 190.84 202.405 190.84 203.253C190.84 204.157 190.76 205.125 191.224 205.949C192.192 207.669 194.576 207.293 196.28 207.269C198.16 207.245 200.04 207.189 201.912 207.109C203.64 207.037 206.008 207.333 206.896 205.589C207.368 204.669 207.224 203.597 207.224 202.605C207.28 202.365 207.288 202.117 207.24 201.877C207.24 201.829 207.24 201.781 207.248 201.733H207.208C207.184 201.661 207.16 201.589 207.128 201.517C207.128 201.509 207.12 201.509 207.12 201.501C207.032 201.317 206.92 201.149 206.76 201.013C206.728 200.989 206.704 200.957 206.672 200.933C206.64 200.909 206.6 200.885 206.56 200.861C206.512 200.829 206.464 200.805 206.416 200.781C206.376 200.765 206.344 200.749 206.304 200.733C206.24 200.709 206.176 200.693 206.104 200.669C206.072 200.661 206.032 200.653 206 200.645C205.888 200.629 205.776 200.613 205.648 200.613C205.632 200.613 205.624 200.613 205.608 200.613C205.592 200.613 205.576 200.613 205.56 200.613C205.384 200.613 205.232 200.637 205.088 200.677C203.928 200.837 203.504 201.989 203.84 202.861C203.84 203.189 203.84 203.509 203.856 203.837C203.728 203.845 203.592 203.853 203.464 203.861C201.872 203.941 200.272 204.005 198.68 204.045C197.2 204.085 195.72 204.125 194.232 204.117C194.224 203.997 194.216 203.877 194.216 203.821C194.216 203.061 194.216 202.301 194.216 201.549C194.216 200.029 194.216 198.517 194.208 196.998C194.208 196.286 194.208 195.574 194.208 194.854C194.208 194.654 194.256 194.35 194.248 194.094C197.624 193.598 201.104 193.534 204.512 193.67C204.512 193.774 204.536 193.878 204.568 193.982C204.56 194.014 204.56 194.054 204.552 194.086H204.608C204.624 194.118 204.632 194.158 204.648 194.198C204.72 194.398 204.832 194.566 205 194.71C205.112 194.79 205.224 194.878 205.344 194.958C205.608 195.102 205.888 195.174 206.2 195.174L206.648 195.118C206.848 195.062 207.024 194.966 207.192 194.854C207.328 194.782 207.456 194.702 207.552 194.59C207.704 194.414 207.816 194.262 207.912 194.086H207.944C207.944 194.062 207.952 194.038 207.952 194.014C207.976 193.974 208 193.942 208.016 193.902C208.144 193.622 208.184 193.39 208.216 193.078C208.256 192.726 208.208 192.39 208.152 192.07Z" fill="#1E1E1E"/>
<path d="M208.928 196.462C208.648 195.63 207.768 195.11 206.848 195.342C204.216 196.006 201.88 197.302 199.64 198.726C199.176 197.958 198.64 197.222 198.016 196.518C197.44 195.878 196.208 195.918 195.624 196.518C194.96 197.198 195.016 198.094 195.624 198.782C195.984 199.19 196.248 199.534 196.6 200.086C196.76 200.334 196.904 200.59 197.048 200.846C197.2 201.126 197.312 201.358 197.368 201.494C197.576 201.974 197.824 202.326 198.344 202.534C198.808 202.718 199.416 202.742 199.848 202.454C201.12 201.614 202.4 200.782 203.744 200.046C205.136 199.286 206.216 198.814 207.744 198.43C208.608 198.214 209.208 197.286 208.928 196.462Z" fill="#1E1E1E"/>
<g clip-path="url(#clip4)">
<path d="M66.1253 152.829C63.3333 147.397 59.1092 145.037 53.1332 144.101C48.1732 143.317 41.9092 144.469 37.9731 147.917C37.7491 148.053 37.5251 148.213 37.3011 148.397C32.4451 152.589 30.1491 157.589 30.3331 164.077C30.5011 169.869 33.4931 175.125 38.3091 178.341C47.6452 184.565 64.1652 182.765 68.3093 171.061C70.5253 164.797 69.0693 158.549 66.1253 152.829Z" fill="#00A99D"/>
<path d="M59.8452 148.533C56.1092 144.989 51.1732 143.557 46.2612 142.421C41.5171 141.325 36.3811 141.333 32.4931 144.629C30.9171 145.965 33.1971 148.221 34.7571 146.893C37.4771 144.589 41.3812 144.661 44.6772 145.341C46.6372 145.749 48.5652 146.317 50.4772 146.901C52.3092 147.453 54.0612 148.125 55.6532 149.205C61.0133 152.861 64.9013 160.117 63.8613 166.669C63.3573 169.813 61.8612 172.853 59.3332 174.853C56.7012 176.933 53.1972 177.813 49.8932 177.813C43.7972 177.797 37.6691 174.645 34.7731 169.165C33.1891 166.181 32.5891 162.541 33.1971 159.213C33.5091 157.485 34.0851 155.829 34.9891 154.325C35.7571 153.045 36.9331 151.445 38.5651 151.333C40.6051 151.197 40.6211 147.989 38.5651 148.133C34.5171 148.405 32.0451 152.301 30.7971 155.781C29.5331 159.317 29.4851 163.317 30.4771 166.925C32.5171 174.357 39.1491 179.629 46.6692 180.749C50.6132 181.333 54.6372 180.885 58.2852 179.213C61.9812 177.517 64.6773 174.397 66.1173 170.629C69.0853 162.845 65.6533 154.045 59.8452 148.533Z" fill="#1E1E1E"/>
<path d="M58.6532 160.373C58.3972 159.453 57.5412 159.133 56.6852 159.253C55.9652 159.357 55.2452 159.453 54.5172 159.549C53.9492 157.565 53.3012 155.581 52.2132 153.845C51.5092 152.725 50.6212 151.605 49.3572 151.117C47.9972 150.589 46.5732 151.013 45.7332 152.213C44.9812 153.277 44.6452 154.717 44.2292 155.933C43.7572 157.293 43.3092 158.653 42.8852 160.029C42.8052 160.277 42.7332 160.533 42.6612 160.789C42.0212 160.837 41.3812 160.893 40.7412 160.933C39.8771 160.989 39.1411 161.629 39.1411 162.533C39.1411 163.357 39.8771 164.189 40.7412 164.133C41.0692 164.109 41.3972 164.085 41.7252 164.061C41.2052 165.981 40.7171 167.917 40.2851 169.869C39.8371 171.877 42.9252 172.733 43.3732 170.717C43.8932 168.397 44.4692 166.093 45.1172 163.805C47.4772 163.597 49.8292 163.349 52.1812 163.061C52.9092 165.661 53.5732 168.277 54.0852 170.933C54.2452 171.781 55.2692 172.269 56.0532 172.053C56.9412 171.805 57.3332 170.933 57.1732 170.085C56.6932 167.581 56.0692 165.109 55.3972 162.645C56.1172 162.549 56.8372 162.453 57.5492 162.349C58.3892 162.221 58.8612 161.133 58.6532 160.373ZM47.3092 156.781C47.5732 156.029 47.8052 155.237 48.1252 154.509C48.1332 154.493 48.2372 154.277 48.3172 154.125C48.2532 154.109 48.1972 153.949 48.3252 154.109C48.3572 154.045 48.3812 153.989 48.3812 153.989C48.3732 154.085 48.3572 154.117 48.3332 154.125C48.3492 154.141 48.3572 154.149 48.3732 154.173C48.7172 154.669 49.2052 155.045 49.5332 155.581C49.8772 156.149 50.1812 156.749 50.4292 157.373C50.7652 158.213 51.0372 159.085 51.2932 159.957C49.5652 160.157 47.8372 160.341 46.1012 160.501C46.4852 159.253 46.8852 158.013 47.3092 156.781Z" fill="#1E1E1E"/>
<path d="M48.3172 154.125C48.3252 154.125 48.3332 154.133 48.3332 154.125C48.3252 154.117 48.3252 154.117 48.3252 154.109C48.3172 154.117 48.3172 154.117 48.3172 154.125Z" fill="#1E1E1E"/>
<path d="M86.1254 122.733C85.8054 122.565 85.4454 122.517 85.1014 122.565C84.8694 122.573 84.6454 122.637 84.4454 122.781C83.8294 123.213 83.1813 123.589 82.5093 123.917C82.1973 124.069 81.8773 124.213 81.5573 124.349C81.4773 124.381 81.4374 124.397 81.4294 124.405C81.3654 124.429 81.3093 124.453 81.2453 124.477C81.0853 124.541 80.9173 124.605 80.7493 124.661C79.4133 125.157 78.0213 125.717 76.6133 125.941C75.7813 126.077 75.2293 127.125 75.4693 127.893C75.7493 128.789 76.5413 129.181 77.4213 129.037C77.7493 128.981 78.0853 128.909 78.4133 128.821C74.9333 132.445 71.5813 136.189 68.4053 140.085C67.8613 140.757 67.7493 141.693 68.4053 142.349C68.9653 142.909 70.1173 143.021 70.6693 142.349C73.9813 138.285 77.4773 134.373 81.1253 130.613C81.1013 130.701 81.0774 130.789 81.0534 130.877C80.8694 131.693 81.3333 132.645 82.1974 132.829C83.0214 133.005 83.9574 132.557 84.1494 131.685C84.4294 130.453 84.7894 129.245 85.2294 128.061C85.2854 127.901 85.3414 127.741 85.4134 127.589C85.2534 127.949 85.4294 127.557 85.4454 127.509C85.5734 127.197 85.7094 126.893 85.8534 126.589C86.1174 126.021 86.4054 125.453 86.7174 124.909C87.1334 124.189 86.9014 123.133 86.1254 122.733Z" fill="#FBB03B"/>
<path d="M8.70901 200.829C9.02901 200.997 9.38901 201.045 9.73301 200.997C9.96501 200.989 10.189 200.925 10.389 200.781C11.005 200.349 11.653 199.973 12.325 199.645C12.637 199.493 12.957 199.349 13.277 199.213C13.357 199.181 13.397 199.165 13.405 199.157C13.469 199.133 13.525 199.109 13.589 199.085C13.749 199.021 13.917 198.957 14.085 198.901C15.421 198.405 16.8131 197.845 18.2211 197.621C19.0531 197.485 19.6051 196.437 19.3651 195.669C19.0851 194.773 18.2931 194.381 17.4131 194.525C17.0851 194.581 16.7491 194.653 16.4211 194.741C19.9011 191.117 23.2531 187.373 26.4291 183.477C26.9731 182.805 27.0851 181.869 26.4291 181.213C25.8691 180.653 24.7171 180.541 24.1651 181.213C20.8531 185.277 17.357 189.189 13.709 192.949C13.733 192.861 13.7571 192.773 13.7811 192.685C13.9651 191.869 13.501 190.917 12.637 190.733C11.813 190.557 10.877 191.005 10.685 191.877C10.405 193.109 10.045 194.317 9.60503 195.501C9.54903 195.661 9.49302 195.821 9.42102 195.973C9.58102 195.613 9.40501 196.005 9.38901 196.053C9.26101 196.365 9.12503 196.669 8.98103 196.973C8.71703 197.541 8.42901 198.109 8.11701 198.653C7.70901 199.381 7.933 200.437 8.70901 200.829Z" fill="#FBB03B"/>
<path d="M86.9014 199.373C87.0694 199.053 87.1174 198.693 87.0694 198.349C87.0614 198.117 86.9974 197.893 86.8534 197.693C86.4214 197.077 86.0454 196.429 85.7174 195.757C85.5654 195.445 85.4214 195.125 85.2854 194.805C85.2534 194.725 85.2374 194.685 85.2294 194.677C85.2054 194.613 85.1814 194.557 85.1574 194.493C85.0934 194.333 85.0294 194.165 84.9734 193.997C84.4774 192.661 83.9174 191.269 83.6934 189.861C83.5574 189.029 82.5094 188.477 81.7414 188.717C80.8454 188.997 80.4534 189.789 80.5974 190.669C80.6534 190.997 80.7253 191.333 80.8133 191.661C77.1893 188.181 73.4453 184.829 69.5493 181.653C68.8773 181.109 67.9413 180.997 67.2853 181.653C66.7253 182.213 66.6133 183.365 67.2853 183.917C71.3493 187.229 75.2613 190.725 79.0213 194.373C78.9333 194.349 78.8453 194.325 78.7573 194.301C77.9413 194.117 76.9893 194.581 76.8053 195.445C76.6293 196.269 77.0773 197.205 77.9493 197.397C79.1814 197.677 80.3894 198.037 81.5734 198.477C81.7334 198.533 81.8934 198.589 82.0454 198.661C81.6854 198.501 82.0774 198.677 82.1254 198.693C82.4374 198.821 82.7414 198.957 83.0454 199.101C83.6134 199.365 84.1814 199.653 84.7254 199.965C85.4534 200.373 86.5094 200.149 86.9014 199.373Z" fill="#FBB03B"/>
<path d="M7.25298 120.397C7.08498 120.717 7.03696 121.077 7.08496 121.421C7.09296 121.653 7.15698 121.877 7.30098 122.077C7.73298 122.693 8.10897 123.341 8.43697 124.013C8.58897 124.325 8.73298 124.645 8.86898 124.965C8.90098 125.045 8.91698 125.085 8.92498 125.093C8.94898 125.157 8.97298 125.213 8.99698 125.277C9.06098 125.437 9.12499 125.605 9.18099 125.773C9.67699 127.109 10.237 128.501 10.461 129.909C10.597 130.741 11.645 131.293 12.413 131.053C13.309 130.773 13.701 129.981 13.557 129.101C13.501 128.773 13.429 128.437 13.341 128.109C16.965 131.589 20.709 134.941 24.6051 138.117C25.2771 138.661 26.2131 138.773 26.8691 138.117C27.4291 137.557 27.5411 136.405 26.8691 135.853C22.805 132.541 18.893 129.045 15.133 125.397C15.221 125.421 15.309 125.445 15.397 125.469C16.213 125.653 17.165 125.189 17.349 124.325C17.525 123.501 17.077 122.565 16.205 122.373C14.973 122.093 13.765 121.733 12.581 121.293C12.421 121.237 12.261 121.181 12.109 121.109C12.469 121.269 12.077 121.093 12.029 121.077C11.717 120.949 11.413 120.813 11.109 120.669C10.541 120.405 9.97299 120.117 9.42899 119.805C8.70099 119.389 7.64498 119.621 7.25298 120.397Z" fill="#FBB03B"/>
<path d="M66.6853 119.941C59.2532 115.741 50.1332 115.085 42.1571 117.909C48.1092 118.685 53.9332 120.237 59.4852 122.557C60.8612 123.141 61.1252 125.165 59.4852 125.645C57.3572 126.269 55.2292 126.885 53.1012 127.509C52.0372 127.821 50.9732 128.125 49.9092 128.437C49.7332 128.493 49.5572 128.541 49.3812 128.589C49.4132 128.605 49.4452 128.621 49.4772 128.629C50.3172 128.973 51.1812 129.237 52.0452 129.517C53.9012 130.109 55.7572 130.725 57.4372 131.733C58.4532 132.333 58.4932 133.893 57.4372 134.493C55.7092 135.469 54.1332 136.613 52.6852 137.965C51.1892 139.381 48.9172 137.117 50.4292 135.709C51.3412 134.845 52.3092 134.061 53.3332 133.333C52.0772 132.861 50.7892 132.493 49.5252 132.045C47.9252 131.485 44.4052 130.445 44.4052 128.301C44.4052 126.893 45.6612 126.349 46.8052 126.013L50.7492 124.861C51.8292 124.549 52.9092 124.229 53.9892 123.917C48.3252 122.021 42.4371 120.885 36.4611 120.597C36.2451 120.589 36.0531 120.541 35.8851 120.469C34.7251 120.149 34.1091 118.325 35.4691 117.517C45.3652 111.621 58.2372 111.493 68.2613 117.157C70.0613 118.173 68.4773 120.957 66.6853 119.941Z" fill="#1E1E1E"/>
<path d="M37.0611 202.061C44.4932 206.261 53.6132 206.917 61.5892 204.093C55.6372 203.317 49.8132 201.765 44.2611 199.445C42.8851 198.861 42.6211 196.837 44.2611 196.357C46.3892 195.733 48.5172 195.117 50.6452 194.493C51.7092 194.181 52.7732 193.877 53.8372 193.565C54.0132 193.509 54.1892 193.461 54.3652 193.413C54.3332 193.397 54.3012 193.381 54.2692 193.373C53.4292 193.029 52.5652 192.765 51.7012 192.485C49.8452 191.893 47.9892 191.277 46.3092 190.269C45.2932 189.669 45.2532 188.109 46.3092 187.509C48.0372 186.533 49.6132 185.389 51.0612 184.037C52.5572 182.621 54.8292 184.885 53.3172 186.293C52.4052 187.157 51.4372 187.941 50.4132 188.669C51.6692 189.141 52.9572 189.509 54.2212 189.957C55.8212 190.517 59.3412 191.557 59.3412 193.701C59.3412 195.109 58.0852 195.653 56.9412 195.989L52.9972 197.141C51.9172 197.453 50.8372 197.773 49.7572 198.085C55.4212 199.981 61.3092 201.117 67.2853 201.405C67.5013 201.413 67.6933 201.461 67.8613 201.533C69.0213 201.853 69.6373 203.677 68.2773 204.485C58.3812 210.381 45.5092 210.509 35.4851 204.845C33.6851 203.829 35.2691 201.045 37.0611 202.061Z" fill="#1E1E1E"/>
<path d="M6.94097 146.189C2.74095 153.621 2.08494 162.741 4.90895 170.717C5.68496 164.765 7.23696 158.941 9.55697 153.389C10.141 152.013 12.165 151.749 12.645 153.389C13.269 155.517 13.885 157.645 14.509 159.773C14.821 160.837 15.125 161.901 15.437 162.965C15.493 163.141 15.541 163.317 15.589 163.493C15.605 163.461 15.621 163.429 15.629 163.397C15.973 162.557 16.237 161.693 16.517 160.829C17.109 158.973 17.725 157.117 18.733 155.437C19.333 154.421 20.893 154.381 21.493 155.437C22.469 157.165 23.613 158.741 24.9651 160.189C26.3811 161.685 24.117 163.957 22.709 162.445C21.845 161.533 21.061 160.565 20.333 159.541C19.861 160.797 19.493 162.085 19.045 163.349C18.485 164.949 17.445 168.469 15.301 168.469C13.893 168.469 13.349 167.213 13.013 166.069L11.861 162.125C11.549 161.045 11.229 159.965 10.917 158.885C9.02098 164.549 7.88498 170.437 7.59698 176.413C7.58898 176.629 7.54098 176.821 7.46897 176.989C7.14897 178.149 5.32496 178.765 4.51696 177.405C-1.37907 167.509 -1.50708 154.637 4.15695 144.613C5.17295 142.813 7.95697 144.397 6.94097 146.189Z" fill="#1E1E1E"/>
<path d="M89.0614 175.813C93.2614 168.381 93.9174 159.261 91.0934 151.285C90.3174 157.237 88.7654 163.061 86.4454 168.613C85.8614 169.989 83.8373 170.253 83.3573 168.613C82.7333 166.485 82.1173 164.357 81.4933 162.229C81.1813 161.165 80.8773 160.101 80.5653 159.037C80.5093 158.861 80.4613 158.685 80.4133 158.509C80.3973 158.541 80.3813 158.573 80.3733 158.605C80.0293 159.445 79.7653 160.309 79.4853 161.173C78.8933 163.029 78.2773 164.885 77.2693 166.565C76.6693 167.581 75.1093 167.621 74.5093 166.565C73.5333 164.837 72.3893 163.261 71.0373 161.813C69.6213 160.317 71.8853 158.045 73.2933 159.557C74.1573 160.469 74.9413 161.437 75.6693 162.461C76.1413 161.205 76.5093 159.917 76.9573 158.653C77.5173 157.053 78.5573 153.533 80.7013 153.533C82.1094 153.533 82.6533 154.789 82.9893 155.933L84.1414 159.877C84.4534 160.957 84.7733 162.037 85.0854 163.117C86.9814 157.453 88.1174 151.565 88.4054 145.589C88.4134 145.373 88.4614 145.181 88.5334 145.013C88.8534 143.853 90.6774 143.237 91.4854 144.597C97.3814 154.493 97.5094 167.365 91.8454 177.389C90.8294 179.189 88.0454 177.605 89.0614 175.813Z" fill="#1E1E1E"/>
</g>
<g clip-path="url(#clip5)">
<path d="M141.462 81.5801C140.317 75.5677 134.94 69.9441 128.482 69.9282C127.176 69.9282 126.039 70.2138 125.072 70.7135C124.749 70.7531 124.419 70.8642 124.08 71.0625C118.872 74.0607 115.719 80.9693 117.558 86.7913C119.436 92.756 125.717 95.9842 131.763 94.9769C138.681 93.8188 142.776 88.4569 141.462 81.5801Z" fill="#FBB03B"/>
<path d="M141.462 12.2163C140.317 6.20397 134.94 0.580317 128.482 0.564453C127.176 0.564453 126.039 0.849998 125.072 1.3497C124.749 1.38936 124.419 1.50041 124.08 1.6987C118.88 4.689 115.728 11.5976 117.558 17.4275C119.436 23.3922 125.717 26.6205 131.763 25.6131C138.681 24.4551 142.776 19.0932 141.462 12.2163Z" fill="#FBB03B"/>
<path d="M208.58 12.2163C207.435 6.20397 202.058 0.580317 195.6 0.564453C194.294 0.564453 193.157 0.849998 192.19 1.3497C191.867 1.38936 191.536 1.50041 191.198 1.6987C185.99 4.69693 182.837 11.6055 184.676 17.4275C186.554 23.3922 192.834 26.6205 198.881 25.6131C205.799 24.4551 209.894 19.0932 208.58 12.2163Z" fill="#FBB03B"/>
<path d="M208.58 82.0322C207.435 76.0199 202.058 70.3962 195.6 70.3804C194.294 70.3804 193.157 70.6659 192.19 71.1656C191.867 71.2053 191.536 71.3163 191.198 71.5146C185.99 74.5128 182.837 81.4215 184.676 87.2434C186.554 93.2081 192.834 96.4364 198.881 95.429C205.799 94.271 209.894 88.917 208.58 82.0322Z" fill="#FBB03B"/>
<path d="M132.836 71.6811C127.797 68.6274 121.839 68.5877 117.654 71.5859C115.494 73.1406 113.938 75.3694 113.293 77.8679C112.648 80.3506 113.067 83.1664 114.567 86.474C115.921 89.4643 117.638 91.7486 119.67 93.2557C121.677 94.7468 124.144 95.548 126.692 95.548C126.95 95.548 127.208 95.54 127.466 95.5242C132.9 95.1831 137.496 90.773 138.149 85.2683C138.269 84.2848 137.528 83.6661 136.778 83.5789C136.044 83.4995 135.23 83.9041 135.117 84.8559C134.553 89.5753 130.312 92.978 125.668 92.4545C120.315 91.8438 117.735 86.5691 116.671 83.4837C115.857 81.12 115.905 78.9943 116.8 77.1462C117.598 75.5043 119.041 74.0924 120.75 73.2834C124.314 71.5939 128.982 72.3791 132.65 75.2822C134.392 76.6544 135.931 78.4866 137.262 80.7789C138.157 82.3256 139.39 84.4355 138.471 86.0377C138.294 86.355 138.261 86.7357 138.39 87.1085C138.535 87.5368 138.874 87.9096 139.261 88.0762C140.003 88.3935 140.801 88.0841 141.253 87.3068C142.962 84.3403 140.777 80.6917 139.6 78.7325C137.778 75.6946 135.44 73.2596 132.836 71.6811Z" fill="#1E1E1E"/>
<path d="M131.86 77.4952C131.159 77.0828 130.304 77.297 129.78 78.0108L126.007 83.1586L123.032 81.0566C122.725 80.8425 122.339 80.7711 121.943 80.8583C121.5 80.9535 121.113 81.2232 120.903 81.5881C120.5 82.2861 120.718 83.1586 121.419 83.6583L124.306 85.6967C124.41 85.7761 124.523 85.8554 124.636 85.9426C124.999 86.2202 125.402 86.5375 125.878 86.6724C126.047 86.7199 126.2 86.7437 126.345 86.7437C127.168 86.7437 127.668 86.0616 128.055 85.5381L132.384 79.6289C132.602 79.3354 132.674 78.9547 132.594 78.5581C132.497 78.106 132.223 77.7094 131.86 77.4952Z" fill="#1E1E1E"/>
<path d="M132.836 2.31736C127.789 -0.736385 121.831 -0.776045 117.654 2.22218C115.494 3.77682 113.938 6.00566 113.293 8.50418C112.648 10.9868 113.067 13.8026 114.567 17.1102C115.921 20.1005 117.638 22.3848 119.67 23.8919C121.677 25.3831 124.144 26.1842 126.692 26.1842C126.95 26.1842 127.208 26.1763 127.466 26.1604C132.9 25.8193 137.496 21.4092 138.149 15.9046C138.269 14.921 137.528 14.3023 136.778 14.2151C136.044 14.1358 135.23 14.5403 135.117 15.4921C134.553 20.2115 130.312 23.6143 125.668 23.0908C120.315 22.48 117.735 17.2054 116.671 14.1199C115.857 11.7562 115.905 9.63049 116.8 7.78238C117.598 6.1405 119.041 4.72863 120.75 3.91959C124.314 2.23011 128.982 3.01536 132.65 5.91841C134.392 7.29061 135.931 9.12286 137.262 11.4152C138.157 12.9619 139.39 15.0717 138.471 16.6739C138.294 16.9912 138.261 17.3719 138.39 17.7447C138.535 18.1731 138.874 18.5459 139.261 18.7124C140.003 19.0297 140.801 18.7204 141.253 17.943C142.962 14.9765 140.777 11.3279 139.6 9.36874C137.778 6.33086 135.44 3.89579 132.836 2.31736Z" fill="#1E1E1E"/>
<path d="M131.86 8.13929C131.159 7.72684 130.304 7.941 129.78 8.65486L126.007 13.8026L123.032 11.7007C122.725 11.4865 122.339 11.4151 121.943 11.5024C121.5 11.5976 121.113 11.8672 120.903 12.2321C120.5 12.9301 120.718 13.8026 121.419 14.3023L124.306 16.3408C124.41 16.4201 124.523 16.4994 124.636 16.5867C124.999 16.8643 125.402 17.1816 125.878 17.3164C126.047 17.364 126.2 17.3878 126.345 17.3878C127.168 17.3878 127.668 16.7056 128.055 16.1821L132.384 10.2729C132.602 9.97947 132.674 9.59875 132.594 9.20215C132.497 8.74211 132.223 8.35345 131.86 8.13929Z" fill="#1E1E1E"/>
<path d="M186.788 23.8919C188.795 25.3831 191.262 26.1842 193.81 26.1842C194.068 26.1842 194.326 26.1763 194.584 26.1604C200.018 25.8193 204.613 21.4092 205.266 15.9046C205.331 15.3493 205.121 14.8417 204.686 14.5244C204.226 14.1834 203.598 14.112 203.082 14.3261C202.606 14.5244 202.3 14.9527 202.235 15.4921C201.671 20.2115 197.422 23.6143 192.786 23.0908C187.231 22.4562 184.643 16.6105 183.789 14.1199C182.974 11.7562 183.023 9.63049 183.918 7.78238C184.716 6.1405 186.159 4.72863 187.868 3.91959C191.432 2.23011 196.1 3.01536 199.768 5.91841C201.509 7.29061 203.049 9.12286 204.38 11.4072C205.283 12.9539 206.516 15.0638 205.589 16.6739C205.412 16.9912 205.379 17.3719 205.508 17.7447C205.653 18.1731 205.992 18.5459 206.379 18.7124C207.121 19.0297 207.919 18.7204 208.37 17.943C210.08 14.9765 207.895 11.3279 206.718 9.36874C204.896 6.33086 202.558 3.89579 199.953 2.31736C194.915 -0.736385 188.957 -0.776045 184.772 2.22218C182.612 3.77682 181.056 6.00566 180.411 8.50418C179.766 10.9868 180.185 13.8026 181.684 17.1102C183.047 20.1005 184.756 22.3769 186.788 23.8919Z" fill="#1E1E1E"/>
<path d="M196.906 8.647L193.133 13.7947L190.158 11.6928C189.851 11.4787 189.464 11.4073 189.069 11.4945C188.634 11.5897 188.239 11.8594 188.029 12.2242C187.618 12.9222 187.844 13.7947 188.545 14.2944L191.432 16.3329C191.536 16.4122 191.649 16.4916 191.762 16.5788C192.125 16.8564 192.528 17.1737 193.004 17.3085C193.173 17.3561 193.326 17.3799 193.471 17.3799C194.294 17.3799 194.794 16.6978 195.181 16.1743L199.51 10.2572C199.728 9.96368 199.8 9.58295 199.72 9.18636C199.623 8.74218 199.349 8.35352 198.986 8.13936C198.276 7.72691 197.422 7.94107 196.906 8.647Z" fill="#1E1E1E"/>
<path d="M199.953 72.1333C194.915 69.0795 188.957 69.0399 184.772 72.0381C182.612 73.5927 181.056 75.8216 180.411 78.3201C179.766 80.8027 180.185 83.6185 181.684 86.9261C183.039 89.9164 184.756 92.2008 186.788 93.7078C188.795 95.199 191.262 96.0001 193.81 96.0001C194.068 96.0001 194.326 95.9922 194.584 95.9763C200.018 95.6352 204.613 91.2252 205.266 85.7205C205.331 85.1652 205.121 84.6576 204.686 84.3403C204.226 83.9993 203.598 83.9279 203.082 84.142C202.606 84.3403 202.3 84.7687 202.235 85.308C201.671 90.0275 197.422 93.4302 192.786 92.9067C187.231 92.2722 184.643 86.4264 183.789 83.9358C182.974 81.5721 183.023 79.4464 183.918 77.5983C184.716 75.9564 186.159 74.5445 187.868 73.7355C191.432 72.046 196.1 72.8313 199.768 75.7343C201.509 77.1065 203.049 78.9388 204.38 81.2231C205.283 82.7698 206.516 84.8797 205.589 86.4899C205.412 86.8071 205.379 87.1879 205.508 87.5607C205.653 87.989 205.992 88.3618 206.379 88.5283C207.121 88.8456 207.919 88.5363 208.37 87.759C210.08 84.7925 207.895 81.1438 206.718 79.1847C204.896 76.1468 202.558 73.7117 199.953 72.1333Z" fill="#1E1E1E"/>
<path d="M196.906 78.4707L193.133 83.6185L190.158 81.5165C189.851 81.3024 189.464 81.231 189.069 81.3182C188.634 81.4134 188.239 81.6831 188.029 82.048C187.618 82.746 187.844 83.6185 188.545 84.1182L191.432 86.1566C191.536 86.236 191.649 86.3153 191.762 86.4025C192.125 86.6801 192.528 86.9974 193.004 87.1323C193.173 87.1798 193.326 87.2036 193.471 87.2036C194.294 87.2036 194.794 86.5215 195.181 85.998L199.51 80.0809C199.728 79.7874 199.8 79.4067 199.72 79.0101C199.623 78.5659 199.349 78.1772 198.986 77.9631C198.276 77.5427 197.422 77.7569 196.906 78.4707Z" fill="#1E1E1E"/>
<path d="M125.692 31.9189C125.773 31.0622 124.894 30.3325 124.08 30.3325C123.137 30.3325 122.548 31.0622 122.467 31.9189C121.444 42.3016 121.54 52.7637 122.758 63.1306C122.854 63.9793 123.427 64.7169 124.37 64.7169C125.168 64.7169 126.079 63.9872 125.983 63.1306C124.773 52.7637 124.677 42.3016 125.692 31.9189Z" fill="#1E1E1E"/>
<path d="M191.972 63.1306C191.891 63.9872 192.77 64.7169 193.584 64.7169C194.528 64.7169 195.116 63.9872 195.197 63.1306C196.221 52.7478 196.124 42.2858 194.906 31.9189C194.81 31.0702 194.237 30.3325 193.294 30.3325C192.496 30.3325 191.585 31.0622 191.682 31.9189C192.891 42.2778 192.988 52.7478 191.972 63.1306Z" fill="#1E1E1E"/>
<path d="M176.363 14.9607C177.186 15.04 177.887 14.1754 177.887 13.3743C177.887 12.4463 177.186 11.8673 176.363 11.7879C166.407 10.7806 156.377 10.8758 146.437 12.0735C145.622 12.1687 144.913 12.7318 144.913 13.6598C144.913 14.4451 145.614 15.3414 146.437 15.2462C156.377 14.0485 166.407 13.9533 176.363 14.9607Z" fill="#1E1E1E"/>
<path d="M146.437 80.2234C145.614 80.1441 144.913 81.0087 144.913 81.8098C144.913 82.7378 145.614 83.3168 146.437 83.3962C156.393 84.4035 166.423 84.3083 176.363 83.1106C177.178 83.0154 177.887 82.4523 177.887 81.5243C177.887 80.739 177.186 79.8427 176.363 79.9379C166.423 81.1356 156.393 81.2308 146.437 80.2234Z" fill="#1E1E1E"/>
<path d="M154.878 48.8692C151.524 51.7643 149.71 58.308 150.943 62.5436C152.112 66.5413 160.311 66.3906 163.69 66.4778C165.818 66.5333 168.841 66.7475 170.857 65.9464C172.631 65.2484 173.017 63.7017 173.066 62.0281C173.404 61.6315 173.646 61.1238 173.719 60.5052C174.711 51.7802 162.633 42.1827 154.878 48.8692Z" fill="#00A99D"/>
<path d="M164.326 48.4964C161.851 47.2194 159.07 46.7593 156.506 47.1876C153.757 47.6556 151.701 49.5355 150.725 52.4861C149.702 55.5954 149.565 58.9346 149.436 62.1708L149.411 62.7181C149.371 63.6541 150.097 64.1776 150.83 64.2014C150.854 64.2014 150.879 64.2014 150.895 64.2014C151.645 64.2014 152.443 63.7017 152.483 62.7419L152.491 62.5436C152.596 60.0451 152.701 57.4593 153.233 54.9925C153.676 52.9223 154.37 50.9156 156.393 50.3048C160.529 49.0516 164.996 51.7008 166.922 54.9846C168.091 56.9755 168.583 59.3392 168.349 61.806C168.317 62.1708 168.446 62.5357 168.72 62.8292C169.027 63.1623 169.462 63.3527 169.889 63.3527C170.712 63.3527 171.341 62.7499 171.421 61.8774C171.953 56.333 169.107 50.9552 164.326 48.4964Z" fill="#1A1A1A"/>
<path d="M164.31 55.064C163.915 54.9767 163.528 55.0402 163.206 55.2464C162.488 55.6985 162.246 56.6265 162.674 57.3087C162.795 57.507 162.907 57.7053 163.012 57.9194L163.093 58.0939C163.101 58.1256 163.117 58.1574 163.125 58.1891L163.174 58.2922C163.319 58.6809 163.44 59.0933 163.512 59.5058C163.528 59.5851 163.544 59.6644 163.552 59.7279L163.569 59.9341C163.585 60.1324 163.593 60.3386 163.593 60.5448C163.593 60.7431 163.585 60.9494 163.569 61.1477L163.561 61.338H163.552C163.552 61.3777 163.536 61.4491 163.52 61.5125L163.496 61.6236C163.343 62.3692 163.714 63.2655 164.592 63.4558C164.705 63.4796 164.826 63.4955 164.947 63.4955C165.27 63.4955 165.592 63.4082 165.858 63.2337C166.181 63.0275 166.398 62.7182 166.463 62.3692C166.931 60.061 166.519 57.7211 165.31 55.7778C165.1 55.4209 164.738 55.1591 164.31 55.064Z" fill="#1A1A1A"/>
<path d="M155.547 35.2503C156.587 34.4254 158.336 34.6237 160.755 35.8452C162.617 36.7811 163.512 38.0026 163.512 39.5811C163.504 41.2388 162.625 42.9441 161.36 43.7294C160.731 44.126 159.997 44.1181 159.046 43.7135C158.014 43.2694 157.28 42.7458 156.869 42.1351C156.087 40.985 156.377 39.1289 157.474 38.3278C158.183 37.8123 158.393 36.9636 157.99 36.2814C157.772 35.9245 157.369 35.6389 156.917 35.5517C156.522 35.4724 156.143 35.5438 155.845 35.7659C153.676 37.3522 152.79 40.1521 153.684 42.5793C154.168 43.9039 155.152 45.0064 156.611 45.871C157.941 46.6562 159.199 47.0528 160.376 47.0528C160.618 47.0528 160.868 47.037 161.102 46.9973C163.996 46.569 166.02 43.547 166.455 40.9136C166.939 37.9709 165.737 35.3455 163.149 33.7194C161.771 32.8549 157.006 30.2374 153.426 33.0611C153.136 33.2911 152.967 33.6322 152.951 34.0288C152.927 34.473 153.096 34.933 153.394 35.2265C153.983 35.7976 154.845 35.8055 155.547 35.2503Z" fill="#1A1A1A"/>
</g>
<g clip-path="url(#clip6)">
<path d="M6.76701 81.0541C4.03453 83.4715 2.55708 88.9306 3.56587 92.4607C4.51906 95.7986 11.1993 95.6705 13.9556 95.7426C15.6873 95.7906 18.1576 95.9667 19.7939 95.3023C21.2396 94.718 21.5494 93.4292 21.5891 92.0364C21.8671 91.7082 22.0657 91.284 22.1213 90.7717C22.9236 83.4795 13.0819 75.4668 6.76701 81.0541Z" fill="#FBB03B"/>
<path d="M14.8294 79.3253C12.3908 78.0365 9.6504 77.5722 7.12445 78.0045C4.4158 78.4768 2.39027 80.3739 1.42914 83.3516C0.420343 86.4894 0.285307 89.8593 0.158215 93.1252L0.142329 93.6855C0.102612 94.6301 0.817505 95.1584 1.54034 95.1824C1.56417 95.1824 1.588 95.1824 1.60389 95.1824C2.34261 95.1824 3.12899 94.6781 3.16871 93.7096L3.17665 93.5175C3.27991 90.996 3.38318 88.3865 3.90743 85.8971C4.34431 83.8078 5.02743 81.7827 7.02118 81.1663C11.0961 79.9016 15.4966 82.5751 17.3951 85.889C18.5468 87.8982 19.0314 90.2836 18.801 92.773C18.7693 93.1412 18.8963 93.5094 19.1664 93.8056C19.4683 94.1418 19.8972 94.3339 20.3182 94.3339C21.1284 94.3339 21.748 93.7256 21.8274 92.8451C22.3437 87.2338 19.5397 81.8067 14.8294 79.3253Z" fill="#1A1A1A"/>
<path d="M14.8135 85.953C14.4242 85.8649 14.043 85.929 13.7252 86.1371C13.0183 86.5934 12.78 87.5299 13.201 88.2183C13.3201 88.4184 13.4313 88.6185 13.5346 88.8346L13.614 89.0107C13.622 89.0428 13.6379 89.0748 13.6458 89.1068L13.6935 89.2109C13.8364 89.6031 13.9556 90.0193 14.0271 90.4356C14.043 90.5156 14.0588 90.5957 14.0668 90.6597L14.0827 90.8678C14.0986 91.0679 14.1065 91.2761 14.1065 91.4842C14.1065 91.6843 14.0986 91.8924 14.0827 92.0925L14.0747 92.2846H14.0668C14.0668 92.3247 14.0509 92.3967 14.035 92.4607L14.0112 92.5728C13.8603 93.3252 14.2257 94.2298 15.0915 94.4219C15.2027 94.4459 15.3218 94.4619 15.441 94.4619C15.7587 94.4619 16.0764 94.3739 16.3386 94.1978C16.6563 93.9896 16.8708 93.6774 16.9343 93.3252C17.395 90.9959 16.9899 88.6345 15.7984 86.6734C15.5919 86.3132 15.2344 86.049 14.8135 85.953Z" fill="#1A1A1A"/>
<path d="M6.17918 65.9576C7.20386 65.1252 8.92754 65.3253 11.3105 66.558C13.1454 67.5025 14.0271 68.7352 14.0271 70.3282C14.0192 72.0011 13.1534 73.7221 11.9063 74.5146C11.2867 74.9148 10.5639 74.9068 9.62655 74.4986C8.60981 74.0503 7.88698 73.522 7.48187 72.9056C6.71138 71.745 6.99733 69.8719 8.07762 69.0634C8.77662 68.5431 8.98315 67.6866 8.58598 66.9982C8.37152 66.638 7.97435 66.3499 7.52953 66.2618C7.14031 66.1818 6.76698 66.2538 6.47308 66.4779C4.33634 68.0789 3.46259 70.9045 4.34429 73.3539C4.82088 74.6907 5.78996 75.8033 7.22769 76.6758C8.53832 77.4683 9.77747 77.8685 10.9372 77.8685C11.1755 77.8685 11.4217 77.8525 11.6521 77.8125C14.5037 77.3802 16.4975 74.3305 16.9264 71.6729C17.403 68.7032 16.2194 66.0537 13.6697 64.4127C12.3114 63.5402 7.61691 60.8987 4.0901 63.7484C3.80415 63.9805 3.63734 64.3247 3.62145 64.7249C3.59762 65.1732 3.76443 65.6375 4.05833 65.9336C4.63819 66.51 5.48812 66.518 6.17918 65.9576Z" fill="#1A1A1A"/>
<path d="M80.5996 19.6587C77.8671 22.0761 76.3896 27.5352 77.3984 31.0653C78.3516 34.4032 85.0319 34.2751 87.7882 34.3472C89.5198 34.3952 91.9902 34.5713 93.6265 33.9069C95.0722 33.3226 95.3819 32.0338 95.4217 30.641C95.6997 30.3128 95.8983 29.8886 95.9539 29.3763C96.7561 22.0841 86.9144 14.0795 80.5996 19.6587Z" fill="#FBB03B"/>
<path d="M88.662 17.9378C86.2234 16.6491 83.483 16.1848 80.957 16.617C78.2484 17.0893 76.2228 18.9864 75.2617 21.9641C74.2529 25.1019 74.1179 28.4719 73.9908 31.7378L73.9669 32.2901C73.9272 33.2346 74.6421 33.7629 75.365 33.787C75.3888 33.787 75.4126 33.787 75.4285 33.787C76.1672 33.787 76.9536 33.2827 76.9933 32.3141L77.0013 32.114C77.1045 29.5925 77.2078 26.983 77.732 24.4936C78.1689 22.4044 78.852 20.3792 80.8458 19.7629C84.9207 18.4981 89.3212 21.1717 91.2197 24.4856C92.3715 26.4948 92.856 28.8801 92.6256 31.3696C92.5939 31.7378 92.721 32.106 92.991 32.4022C93.2929 32.7384 93.7218 32.9305 94.1428 32.9305C94.953 32.9305 95.5726 32.3221 95.652 31.4416C96.1763 25.8464 93.3644 20.4112 88.662 17.9378Z" fill="#1A1A1A"/>
<path d="M88.6461 24.5658C88.2569 24.4777 87.8756 24.5418 87.5579 24.7499C86.8509 25.2061 86.6126 26.1427 87.0336 26.8311C87.1528 27.0312 87.264 27.2313 87.3672 27.4474L87.4467 27.6235C87.4546 27.6556 87.4705 27.6876 87.4784 27.7196L87.5261 27.8237C87.6691 28.2159 87.7882 28.6321 87.8597 29.0484C87.8756 29.1284 87.8915 29.2085 87.8994 29.2725L87.9153 29.4806C87.9312 29.6807 87.9391 29.8888 87.9391 30.097C87.9391 30.2971 87.9312 30.5052 87.9153 30.7053L87.9074 30.8974H87.8994C87.8994 30.9375 87.8835 31.0095 87.8677 31.0735L87.8438 31.1856C87.6929 31.938 88.0583 32.8426 88.9241 33.0347C89.0353 33.0587 89.1545 33.0747 89.2736 33.0747C89.5913 33.0747 89.9091 32.9866 90.1712 32.8105C90.4889 32.6024 90.7034 32.2902 90.7669 31.938C91.2276 29.6087 90.8225 27.2473 89.6311 25.2862C89.4245 24.918 89.0591 24.6618 88.6461 24.5658Z" fill="#1A1A1A"/>
<path d="M80.0038 4.57018C81.0285 3.7377 82.7522 3.93782 85.1352 5.17053C86.9701 6.11507 87.8518 7.34779 87.8518 8.94071C87.8438 10.6137 86.978 12.3347 85.7309 13.1271C85.1113 13.5274 84.3885 13.5193 83.4512 13.1111C82.4345 12.6629 81.7116 12.1346 81.3065 11.5182C80.536 10.3575 80.822 8.48445 81.9023 7.67598C82.6013 7.15568 82.8078 6.29918 82.4106 5.61078C82.1962 5.25058 81.799 4.96241 81.3542 4.87436C80.965 4.79431 80.5916 4.86636 80.2977 5.09049C78.161 6.69141 77.2872 9.51704 78.1689 11.9665C78.6455 13.3032 79.6146 14.4159 81.0523 15.2884C82.363 16.0808 83.6021 16.4811 84.7618 16.4811C85.0001 16.4811 85.2464 16.465 85.4767 16.425C88.3284 15.9928 90.3221 12.943 90.751 10.2855C91.2276 7.31577 90.0441 4.66624 87.4943 3.02529C86.136 2.15279 81.4416 -0.488736 77.9147 2.36091C77.6288 2.59304 77.462 2.93724 77.4461 3.33747C77.4223 3.78573 77.5891 4.25 77.883 4.54617C78.4708 5.1145 79.3207 5.1225 80.0038 4.57018Z" fill="#1A1A1A"/>
<path d="M15.4013 18.5944C18.1338 21.0118 19.6113 26.4709 18.6025 30.0009C17.6493 33.3389 10.969 33.2108 8.21269 33.2828C6.48107 33.3309 4.01071 33.507 2.3744 32.8426C0.928732 32.2583 0.618945 30.9695 0.579229 29.5767C0.301215 29.2485 0.102634 28.8243 0.0470308 28.312C-0.763181 21.0198 9.07851 13.0071 15.4013 18.5944Z" fill="#FBB03B"/>
<path d="M7.33101 16.8651C9.76959 15.5763 12.51 15.112 15.036 15.5443C17.7446 16.0166 19.7701 17.9137 20.7313 20.8914C21.7401 24.0292 21.8751 27.3991 22.0022 30.665L22.026 31.2173C22.0657 32.1619 21.3509 32.6902 20.628 32.7142C20.6042 32.7142 20.5804 32.7142 20.5645 32.7142C19.8257 32.7142 19.0394 32.2099 18.9996 31.2414L18.9917 31.0412C18.8884 28.5198 18.7852 25.9103 18.2609 23.4208C17.824 21.3316 17.1409 19.3065 15.1472 18.6901C11.0723 17.4254 6.67172 20.0989 4.77328 23.4128C3.62151 25.422 3.13697 27.8074 3.36733 30.2968C3.3991 30.665 3.27201 31.0332 3.00194 31.3294C2.7001 31.6656 2.27116 31.8577 1.85017 31.8577C1.03996 31.8577 0.420382 31.2494 0.340949 30.3688C-0.183305 24.7736 2.62861 19.3465 7.33101 16.8651Z" fill="#1A1A1A"/>
<path d="M7.34688 23.493C7.7361 23.405 8.11738 23.469 8.43511 23.6771C9.14206 24.1334 9.38035 25.0699 8.95936 25.7583C8.84021 25.9584 8.72901 26.1586 8.62575 26.3747L8.54631 26.5508C8.53837 26.5828 8.52248 26.6148 8.51454 26.6468L8.46688 26.7509C8.3239 27.1431 8.20475 27.5594 8.13326 27.9756C8.11738 28.0557 8.10149 28.1357 8.09355 28.1997L8.07766 28.4079C8.06178 28.608 8.05383 28.8161 8.05383 29.0242C8.05383 29.2243 8.06178 29.4324 8.07766 29.6326L8.08561 29.8247H8.09355C8.09355 29.8647 8.10943 29.9367 8.12532 30.0008L8.14915 30.1128C8.30007 30.8653 7.93468 31.7698 7.06887 31.9619C6.95766 31.9859 6.83851 32.0019 6.71937 32.0019C6.40164 32.0019 6.08391 31.9139 5.82178 31.7378C5.50405 31.5297 5.28958 31.2175 5.22603 30.8653C4.76533 28.5359 5.17043 26.1746 6.36192 24.2134C6.56844 23.8532 6.93383 23.5891 7.34688 23.493Z" fill="#1A1A1A"/>
<path d="M15.9892 3.49743C14.9645 2.66495 13.2408 2.86507 10.8578 4.09778C9.02292 5.04232 8.14122 6.27503 8.14122 7.86795C8.14916 9.54091 9.01498 11.2619 10.2621 12.0544C10.8816 12.4546 11.6045 12.4466 12.5418 12.0384C13.5585 11.5901 14.2814 11.0618 14.6865 10.4454C15.457 9.28477 15.171 7.4117 14.0907 6.60323C13.3917 6.08293 13.1852 5.22643 13.5823 4.53803C13.7968 4.17783 14.194 3.88966 14.6388 3.80161C15.028 3.72156 15.4014 3.7936 15.6953 4.01773C17.832 5.61865 18.7057 8.44429 17.824 10.8937C17.3474 12.2305 16.3784 13.3431 14.9406 14.2156C13.63 15.0081 12.3909 15.4083 11.2311 15.4083C10.9928 15.4083 10.7466 15.3923 10.5162 15.3523C7.66462 14.92 5.67087 11.8703 5.24193 9.21273C4.76533 6.24302 5.94888 3.59348 8.49866 1.95253C9.85696 1.08003 14.5514 -1.56149 18.0782 1.28816C18.3642 1.52029 18.531 1.86448 18.5469 2.26471C18.5707 2.71297 18.4039 3.17725 18.11 3.47342C17.5222 4.04975 16.6802 4.05775 15.9892 3.49743Z" fill="#1A1A1A"/>
<path d="M89.2259 81.2544C91.9584 83.6718 93.4358 89.1309 92.427 92.661C91.4739 95.9989 84.7936 95.8708 82.0373 95.9429C80.3056 95.9909 77.8353 96.167 76.199 95.5026C74.7533 94.9183 74.4435 93.6295 74.4038 92.2367C74.1258 91.9085 73.9272 91.4843 73.8716 90.972C73.0693 83.6798 82.911 75.6752 89.2259 81.2544Z" fill="#FBB03B"/>
<path d="M81.1635 79.5333C83.6021 78.2445 86.3425 77.7803 88.8685 78.2125C91.5771 78.6848 93.6027 80.5819 94.5638 83.5596C95.5726 86.6974 95.7076 90.0674 95.8347 93.3332L95.8585 93.8856C95.8983 94.8301 95.1834 95.3584 94.4605 95.3824C94.4367 95.3824 94.4129 95.3824 94.397 95.3824C93.6583 95.3824 92.8719 94.8781 92.8322 93.9096L92.8242 93.7095C92.721 91.188 92.6177 88.5785 92.0934 86.0891C91.6566 83.9998 90.9734 81.9747 88.9797 81.3583C84.9048 80.0936 80.5042 82.7671 78.6058 86.081C77.454 88.0902 76.9695 90.4756 77.1998 92.965C77.2316 93.3332 77.1045 93.7015 76.8345 93.9976C76.5326 94.3338 76.1037 94.5259 75.6827 94.5259C74.8725 94.5259 74.2529 93.9176 74.1735 93.0371C73.6492 87.4418 76.4532 82.0147 81.1635 79.5333Z" fill="#1A1A1A"/>
<path d="M81.1794 86.1612C81.5686 86.0732 81.9499 86.1372 82.2676 86.3453C82.9745 86.8016 83.2128 87.7381 82.7919 88.4265C82.6727 88.6266 82.5615 88.8268 82.4582 89.0429L82.3788 89.219C82.3709 89.251 82.355 89.283 82.347 89.3151L82.2994 89.4191C82.1564 89.8113 82.0372 90.2276 81.9658 90.6438C81.9499 90.7239 81.934 90.8039 81.926 90.868L81.9102 91.0761C81.8943 91.2762 81.8863 91.4843 81.8863 91.6924C81.8863 91.8925 81.8943 92.1006 81.9102 92.3008L81.9181 92.4929H81.926C81.926 92.5329 81.9419 92.605 81.9578 92.669L81.9816 92.781C82.1326 93.5335 81.7672 94.438 80.9014 94.6301C80.7902 94.6541 80.671 94.6702 80.5519 94.6702C80.2341 94.6702 79.9164 94.5821 79.6543 94.406C79.3365 94.1979 79.1221 93.8857 79.0585 93.5335C78.5978 91.2041 79.0029 88.8428 80.1944 86.8816C80.4009 86.5134 80.7663 86.2573 81.1794 86.1612Z" fill="#1A1A1A"/>
<path d="M89.8137 66.1656C88.789 65.3332 87.0653 65.5333 84.6824 66.766C82.8475 67.7105 81.9658 68.9432 81.9658 70.5362C81.9737 72.2091 82.8395 73.9301 84.0866 74.7226C84.7062 75.1228 85.429 75.1148 86.3663 74.7066C87.3831 74.2583 88.1059 73.73 88.511 73.1137C89.2815 71.953 88.9955 70.0799 87.9153 69.2714C87.2163 68.7511 87.0097 67.8946 87.4069 67.2062C87.6214 66.846 88.0185 66.5579 88.4634 66.4698C88.8526 66.3898 89.2259 66.4618 89.5198 66.6859C91.6565 68.2869 92.5303 71.1125 91.6486 73.5619C91.172 74.8987 90.2029 76.0113 88.7652 76.8838C87.4546 77.6763 86.2154 78.0765 85.0557 78.0765C84.8174 78.0765 84.5712 78.0605 84.3408 78.0205C81.4892 77.5882 79.4954 74.5385 79.0665 71.8809C78.5899 68.9112 79.7734 66.2617 82.3232 64.6208C83.6815 63.7483 88.376 61.1067 91.9028 63.9564C92.1887 64.1885 92.3555 64.5327 92.3714 64.9329C92.3953 65.3812 92.2285 65.8455 91.9346 66.1416C91.3547 66.71 90.5048 66.726 89.8137 66.1656Z" fill="#1A1A1A"/>
<path d="M72.0923 14.7519C60.1933 11.0297 47.5556 10.0531 35.2197 11.7901C31.7327 12.2784 28.2773 13.0068 24.8776 13.9354C22.9077 14.4797 23.7417 17.5695 25.7196 17.0252C40.6132 12.9268 56.4997 13.223 71.2424 17.8336C73.2123 18.45 74.0464 15.3602 72.0923 14.7519Z" fill="#1A1A1A"/>
<path d="M24.8622 81.4703C36.7612 85.1924 49.3989 86.169 61.7348 84.432C65.2218 83.9437 68.6772 83.2153 72.0769 82.2867C74.0468 81.7424 73.2128 78.6526 71.2349 79.1969C56.3413 83.2953 40.4548 82.9991 25.7121 78.3885C23.7501 77.7721 22.9161 80.8619 24.8622 81.4703Z" fill="#1A1A1A"/>
<path d="M86.3902 38.0292C86.0248 36.0041 82.8952 36.5564 83.2605 38.5896C84.4441 45.1614 84.4917 51.8372 83.4115 58.425C83.0778 60.4582 86.2472 60.7464 86.5729 58.7212C87.6929 51.8773 87.6214 44.8572 86.3902 38.0292Z" fill="#1A1A1A"/>
<path d="M8.35567 58.7614C8.60986 60.8025 11.7633 60.4263 11.5091 58.3771C10.683 51.7493 11.0087 45.0815 12.4385 38.5577C12.8833 36.5485 9.7378 36.0843 9.29298 38.0854C7.80759 44.8573 7.4978 51.8774 8.35567 58.7614Z" fill="#1A1A1A"/>
<path d="M62.1156 46.8263C60.8288 39.8863 54.7602 33.3865 47.4841 33.3705C46.0146 33.3625 44.7358 33.6987 43.6396 34.275C43.2742 34.3231 42.9009 34.4511 42.5196 34.6753C36.6495 38.1333 33.0989 46.1139 35.1642 52.8378C37.2771 59.7297 44.3624 63.4519 51.1777 62.2912C58.9701 60.9624 63.5931 54.7669 62.1156 46.8263Z" fill="#00A99D"/>
<path d="M56.5236 33.5148C60.3999 35.9162 63.5374 39.5262 65.8569 43.4885C67.795 46.8024 70.3289 51.4611 68.1842 55.2873C67.7553 56.0478 66.961 56.5281 66.1031 56.1518C65.3882 55.8397 64.8243 54.7831 65.2611 54.0146C66.7386 51.3891 64.8243 48.0752 63.5136 45.7778C61.7899 42.7441 59.6135 39.9425 56.9207 37.7652C52.123 33.875 45.2918 32.0259 39.5568 34.8195C37.0864 36.0202 34.9259 38.1334 33.7264 40.6629C32.2649 43.7447 32.4476 47.0506 33.5199 50.2364C35.609 56.472 39.811 62.7557 46.666 63.5641C53.5846 64.3726 59.7803 59.1456 60.6064 52.1015C60.8526 50.0123 63.9982 50.4766 63.7519 52.5658C62.8623 60.1622 56.7063 66.3818 49.2237 66.862C45.4427 67.1102 41.6776 66.0215 38.6274 63.7002C35.466 61.2828 33.2339 57.7768 31.6215 54.1347C29.9693 50.4125 28.8254 46.1621 29.8581 42.0877C30.7477 38.5657 32.9003 35.4599 35.7837 33.3467C41.9636 28.808 50.2404 29.6165 56.5236 33.5148Z" fill="#1E1E1E"/>
<path d="M55.1573 41.9116C54.3551 41.4233 53.4972 41.7836 52.9809 42.496C51.9006 44.0008 50.8283 45.5137 49.748 47.0186C49.2078 47.771 48.6677 48.5234 48.1355 49.2759L47.4047 50.3005L47.3412 50.3885C47.2458 50.3165 47.1505 50.2444 47.0473 50.1804L45.5619 49.1078C44.6007 48.4194 43.6476 47.723 42.6864 47.0346C41.9874 46.5303 40.923 46.9065 40.51 47.6189C40.0493 48.4354 40.3749 49.3399 41.0819 49.8522C42.4402 50.8288 43.7905 51.8053 45.1488 52.7899C45.7763 53.2462 46.4356 53.8865 47.1823 54.1107C48.4135 54.4709 49.0807 53.4463 49.7003 52.5738C51.71 49.7642 53.7117 46.9545 55.7213 44.1449C56.2376 43.4325 55.8404 42.3279 55.1573 41.9116Z" fill="#1E1E1E"/>
</g>
<g clip-path="url(#clip7)">
<path d="M224.087 227.754C223.322 227.292 222.414 227.154 221.553 227.062C220.597 226.969 219.497 226.877 218.78 227.616C218.35 228.077 218.302 228.816 218.78 229.231C218.111 230.109 217.824 231.17 218.111 232.278C218.541 233.848 220.119 234.679 221.649 234.91C222.605 235.048 223.657 235.095 224.47 234.541C225.235 234.033 225.761 233.248 225.904 232.371C226.239 230.709 225.713 228.677 224.087 227.754ZM223.609 231.817C223.609 231.863 223.609 231.909 223.609 231.955C223.609 232.001 223.561 232.094 223.561 232.14V232.186C223.561 232.232 223.561 232.232 223.513 232.278L223.466 232.325C223.418 232.371 223.418 232.417 223.37 232.463C223.322 232.509 223.274 232.555 223.227 232.602C223.179 232.602 223.179 232.648 223.131 232.648C223.131 232.648 223.131 232.648 223.083 232.648C223.083 232.648 222.988 232.694 222.94 232.694C222.892 232.694 222.892 232.694 222.844 232.694C222.653 232.694 222.509 232.694 222.318 232.694C222.27 232.694 222.175 232.694 222.127 232.694C222.127 232.694 222.127 232.694 222.175 232.694H222.127C222.079 232.694 222.079 232.694 222.031 232.694C221.936 232.694 221.888 232.694 221.792 232.648C221.649 232.602 221.553 232.602 221.41 232.555C221.362 232.555 221.314 232.555 221.266 232.509C221.266 232.509 221.219 232.509 221.219 232.463C221.123 232.417 221.027 232.371 220.979 232.325C220.932 232.278 220.884 232.278 220.788 232.232C220.74 232.186 220.74 232.186 220.693 232.186C220.645 232.186 220.597 232.094 220.549 232.094C220.501 232.048 220.501 232.001 220.454 231.955C220.454 231.955 220.406 231.863 220.406 231.817C220.406 231.771 220.358 231.678 220.358 231.678V231.632C220.358 231.586 220.358 231.586 220.358 231.586C220.358 231.54 220.358 231.494 220.358 231.447C220.358 231.401 220.358 231.401 220.358 231.355C220.358 231.309 220.406 231.217 220.406 231.17C220.406 231.124 220.454 231.032 220.454 230.986C220.454 230.986 220.454 230.986 220.454 230.94C220.454 230.94 220.454 230.94 220.501 230.893C220.549 230.801 220.597 230.663 220.693 230.57C220.693 230.57 220.74 230.57 220.74 230.524C220.788 230.478 220.836 230.432 220.932 230.339C220.979 230.293 221.027 230.247 221.075 230.201C221.123 230.201 221.123 230.155 221.123 230.155C221.219 230.062 221.41 229.97 221.553 229.924C221.744 229.785 221.888 229.647 221.984 229.462C222.175 229.508 222.414 229.555 222.605 229.647H222.653C222.701 229.647 222.701 229.693 222.749 229.693C222.796 229.693 222.892 229.739 222.988 229.785L223.035 229.832C223.083 229.878 223.131 229.924 223.179 229.924C223.179 229.924 223.179 229.924 223.227 229.97C223.227 230.016 223.322 230.109 223.37 230.155C223.418 230.201 223.418 230.247 223.466 230.293C223.513 230.432 223.561 230.524 223.561 230.663C223.561 230.755 223.609 230.801 223.609 230.893V230.94C223.609 230.986 223.609 231.124 223.609 231.124C223.609 231.217 223.609 231.355 223.609 231.447C223.609 231.586 223.609 231.724 223.609 231.817Z" fill="#1E1E1E"/>
</g>
<defs>
<clipPath id="clip0">
<rect width="14" height="11" fill="white" transform="translate(144 249)"/>
</clipPath>
<clipPath id="clip1">
<rect width="58" height="32" fill="white" transform="translate(74 222)"/>
</clipPath>
<clipPath id="clip2">
<rect width="60" height="32" fill="white" transform="translate(0 222)"/>
</clipPath>
<clipPath id="clip3">
<rect width="18" height="14" fill="white" transform="translate(142 228)"/>
</clipPath>
<clipPath id="clip4">
<rect width="97" height="97" fill="white" transform="translate(0 113)"/>
</clipPath>
<clipPath id="clip5">
<rect width="96" height="96" fill="white" transform="translate(113)"/>
</clipPath>
<clipPath id="clip6">
<rect width="96" height="96" fill="white"/>
</clipPath>
<clipPath id="clip7">
<rect width="8" height="8" fill="white" transform="translate(218 227)"/>
</clipPath>
</defs>
</svg>
