<svg width="275" height="544" viewBox="0 0 275 544" fill="none" xmlns="http://www.w3.org/2000/svg">
<path d="M113.883 189.127C113.506 188.692 113.123 188.226 112.638 187.916C111.924 187.48 111.132 187.589 110.423 188.02C109.337 188.686 108.384 189.521 107.464 190.422C106.461 191.409 105.459 192.397 104.445 193.393C103.908 193.925 103.207 194.461 102.884 195.171C102.514 196.012 102.687 196.855 103.378 197.404L103.387 197.415C105.016 199.74 106.637 202.054 108.247 204.376C108.534 204.792 109.097 204.962 109.577 204.885C110.767 204.71 111.839 204.075 112.859 203.445C113.967 202.761 115.052 202.022 116.092 201.227C116.545 200.875 116.999 200.522 117.443 200.159C117.944 199.749 118.567 199.351 118.959 198.826C119.95 197.514 119.053 196.15 118.318 195.042C116.93 193.003 115.542 190.963 113.883 189.127ZM115.08 198.378C114.445 198.879 113.789 199.378 113.116 199.855C112.488 200.294 111.863 200.713 111.211 201.097C110.825 201.32 110.417 201.562 110.004 201.751C108.644 199.818 107.295 197.877 105.945 195.935C106.201 195.689 106.448 195.431 106.704 195.185C107.311 194.576 107.928 193.979 108.535 193.371C109.106 192.811 109.666 192.261 110.254 191.723C110.553 191.46 110.849 191.218 111.165 190.978C111.245 190.913 111.345 190.85 111.434 190.796C111.487 190.864 111.551 190.922 111.604 190.99C111.893 191.311 112.17 191.642 112.455 191.984C113.007 192.665 113.538 193.345 114.055 194.055C114.572 194.764 115.058 195.481 115.552 196.21C115.768 196.534 115.993 196.87 116.221 197.185C116.256 197.23 116.289 197.296 116.333 197.353C116.254 197.418 116.174 197.483 116.083 197.558C115.761 197.84 115.422 198.098 115.08 198.378Z" fill="#DADADA" fill-opacity="0.5"/>
<path d="M12.6563 488.173C12.2795 487.739 11.8964 487.273 11.4119 486.963C10.6973 486.527 9.90526 486.636 9.19656 487.067C8.11072 487.733 7.15764 488.568 6.23743 489.469C5.23495 490.456 4.23246 491.444 3.21858 492.44C2.68189 492.972 1.98073 493.508 1.65778 494.218C1.28795 495.059 1.46088 495.902 2.15142 496.451L2.16027 496.462C3.79 498.787 5.41089 501.101 7.02038 503.423C7.30738 503.838 7.87031 504.009 8.35112 503.932C9.54047 503.757 10.6124 503.122 11.6324 502.492C12.741 501.807 13.8256 501.069 14.866 500.273C15.3191 499.921 15.7722 499.569 16.2164 499.206C16.7177 498.796 17.3403 498.398 17.7328 497.873C18.724 496.561 17.8264 495.197 17.0918 494.089C15.7036 492.05 14.3154 490.01 12.6563 488.173ZM13.8539 497.425C13.2186 497.926 12.563 498.425 11.8897 498.902C11.2619 499.341 10.6367 499.759 9.98498 500.144C9.59899 500.367 9.19022 500.609 8.77768 500.797C7.41725 498.865 6.06821 496.923 4.71916 494.982C4.97485 494.736 5.22168 494.478 5.47736 494.232C6.08493 493.623 6.70136 493.026 7.30893 492.418C7.87979 491.858 8.43926 491.307 9.02782 490.77C9.32653 490.507 9.62269 490.265 9.9391 490.025C10.0188 489.96 10.1188 489.896 10.2074 489.842C10.2605 489.91 10.325 489.969 10.3781 490.037C10.6664 490.358 10.9433 490.689 11.2291 491.031C11.7804 491.712 12.3115 492.392 12.8286 493.102C13.3457 493.811 13.8312 494.528 14.3256 495.257C14.5418 495.581 14.7668 495.917 14.9944 496.232C15.0298 496.277 15.0627 496.343 15.1069 496.4C15.0272 496.465 14.9475 496.53 14.8563 496.605C14.5348 496.886 14.1956 497.145 13.8539 497.425Z" fill="#DADADA" fill-opacity="0.5"/>
<path d="M244.667 55.3405C245.099 52.3795 244.433 49.4894 243.512 46.675C243.488 45.8354 242.81 45.2726 242.029 45.2293C240.33 45.1415 238.635 45.2788 236.961 45.5069C236.036 45.6421 235.118 45.7898 234.189 45.9452C233.323 46.0949 232.365 46.1469 231.72 46.8536C230.989 47.6674 231.179 48.6977 231.346 49.6902C231.499 50.6045 231.652 51.5188 231.824 52.4379C232.173 54.309 232.577 56.1619 233.046 58.0092C233.161 58.4761 233.626 58.965 234.102 59.0288C235.801 59.2558 237.374 58.5859 238.926 57.9643C240.479 57.3427 242.024 56.7085 243.684 56.402C244.146 56.3345 244.603 55.8167 244.667 55.3405ZM234.325 50.2011C234.263 49.8223 234.2 49.4434 234.138 49.0646C234.135 49.0317 234.132 48.9989 234.128 48.966C234.655 48.8928 235.206 48.7511 235.693 48.6681C236.375 48.5479 237.053 48.4479 237.738 48.3606C238.818 48.2316 239.912 48.1809 241.009 48.163C241.577 49.9815 242.056 51.8742 241.971 53.7772C240.792 54.0741 239.665 54.5121 238.533 54.9704C237.847 55.25 237.154 55.5171 236.452 55.7715C236.192 55.8676 235.883 55.9944 235.563 56.0758C235.286 54.8743 234.989 53.668 234.756 52.456C234.587 51.7088 234.45 50.9588 234.325 50.2011Z" fill="#DADADA" fill-opacity="0.5"/>
<path d="M200.309 260.19C200.742 257.229 200.076 254.339 199.155 251.524C199.131 250.685 198.453 250.122 197.672 250.079C195.973 249.991 194.278 250.128 192.604 250.356C191.679 250.491 190.761 250.639 189.832 250.795C188.966 250.944 188.008 250.996 187.363 251.703C186.632 252.517 186.822 253.547 186.989 254.54C187.142 255.454 187.295 256.368 187.467 257.287C187.816 259.158 188.22 261.011 188.688 262.859C188.804 263.325 189.269 263.814 189.745 263.878C191.444 264.105 193.017 263.435 194.569 262.814C196.122 262.192 197.667 261.558 199.327 261.251C199.789 261.184 200.246 260.666 200.309 260.19ZM189.968 255.051C189.906 254.672 189.843 254.293 189.781 253.914C189.778 253.881 189.775 253.848 189.771 253.815C190.298 253.742 190.849 253.6 191.336 253.517C192.018 253.397 192.696 253.297 193.381 253.21C194.461 253.081 195.555 253.03 196.652 253.012C197.22 254.831 197.699 256.724 197.614 258.627C196.435 258.923 195.308 259.361 194.176 259.82C193.49 260.099 192.797 260.366 192.095 260.621C191.835 260.717 191.526 260.844 191.206 260.925C190.929 259.724 190.632 258.517 190.399 257.305C190.23 256.558 190.093 255.808 189.968 255.051Z" fill="#DADADA" fill-opacity="0.5"/>
<path d="M225.469 237.582C223.24 235.643 220.49 234.695 217.668 234.009C216.959 233.586 216.133 233.878 215.685 234.534C214.715 235.963 213.933 237.509 213.239 239.084C212.862 239.959 212.5 240.834 212.139 241.724C211.806 242.555 211.342 243.416 211.589 244.349C211.878 245.414 212.833 245.793 213.745 246.172C214.585 246.522 215.424 246.872 216.278 247.207C218.015 247.893 219.767 248.52 221.547 249.089C221.996 249.235 222.647 249.089 222.951 248.71C224.036 247.353 224.311 245.632 224.615 243.955C224.919 242.278 225.209 240.601 225.831 238.997C226.019 238.559 225.831 237.888 225.469 237.582ZM215.743 243.853C215.395 243.707 215.048 243.562 214.701 243.416C214.672 243.401 214.643 243.386 214.614 243.372C214.831 242.876 215.004 242.322 215.193 241.855C215.453 241.199 215.728 240.557 216.018 239.916C216.481 238.909 217.016 237.932 217.581 236.97C219.39 237.436 221.214 238.02 222.748 239.099C222.372 240.28 222.14 241.491 221.923 242.716C221.793 243.459 221.648 244.203 221.489 244.947C221.431 245.224 221.373 245.559 221.272 245.88C220.128 245.487 218.97 245.107 217.841 244.67C217.132 244.422 216.437 244.145 215.743 243.853Z" fill="#DADADA" fill-opacity="0.5"/>
<path d="M271.64 178.618C272.073 175.657 271.407 172.767 270.485 169.953C270.462 169.113 269.784 168.55 269.002 168.507C267.304 168.419 265.608 168.557 263.934 168.785C263.009 168.92 262.092 169.068 261.163 169.223C260.297 169.373 259.338 169.425 258.694 170.131C257.963 170.945 258.153 171.976 258.32 172.968C258.473 173.882 258.625 174.797 258.798 175.716C259.146 177.587 259.551 179.44 260.019 181.287C260.135 181.754 260.6 182.243 261.075 182.307C262.774 182.534 264.348 181.864 265.9 181.242C267.452 180.62 268.997 179.986 270.657 179.68C271.12 179.612 271.577 179.095 271.64 178.618ZM261.299 173.479C261.237 173.1 261.174 172.721 261.112 172.342C261.108 172.31 261.105 172.277 261.102 172.244C261.628 172.171 262.18 172.029 262.667 171.946C263.349 171.826 264.027 171.726 264.712 171.638C265.792 171.509 266.886 171.459 267.982 171.441C268.551 173.259 269.03 175.152 268.944 177.055C267.765 177.352 266.638 177.79 265.507 178.248C264.821 178.528 264.127 178.795 263.426 179.049C263.165 179.145 262.856 179.272 262.537 179.354C262.26 178.152 261.963 176.946 261.73 175.734C261.561 174.987 261.424 174.237 261.299 173.479Z" fill="#DADADA" fill-opacity="0.5"/>
<path d="M24.5284 293.834C24.9609 290.873 24.2952 287.983 23.3735 285.168C23.3499 284.329 22.6721 283.766 21.8905 283.722C20.1922 283.635 18.4965 283.772 16.8225 284C15.8975 284.135 14.9802 284.283 14.0508 284.438C13.1851 284.588 12.2264 284.64 11.5818 285.347C10.8511 286.161 11.0409 287.191 11.2078 288.183C11.3607 289.098 11.5136 290.012 11.6862 290.931C12.0347 292.802 12.4392 294.655 12.9074 296.502C13.0233 296.969 13.4883 297.458 13.9635 297.522C15.6624 297.749 17.2359 297.079 18.7883 296.457C20.3407 295.836 21.8854 295.202 23.5455 294.895C24.0079 294.828 24.4653 294.31 24.5284 293.834ZM14.1871 288.694C14.1247 288.315 14.0623 287.937 13.9998 287.558C13.9967 287.525 13.9935 287.492 13.9903 287.459C14.5165 287.386 15.0681 287.244 15.5548 287.161C16.237 287.041 16.9148 286.941 17.6002 286.854C18.68 286.725 19.7737 286.674 20.8707 286.656C21.4389 288.475 21.9179 290.367 21.8325 292.27C20.6534 292.567 19.5266 293.005 18.3952 293.464C17.7092 293.743 17.0155 294.01 16.3141 294.265C16.0536 294.361 15.7446 294.488 15.4248 294.569C15.1477 293.368 14.8509 292.161 14.6177 290.949C14.4489 290.202 14.312 289.452 14.1871 288.694Z" fill="#DADADA" fill-opacity="0.5"/>
<path d="M219.38 365.763C219.003 365.329 218.62 364.862 218.136 364.553C217.421 364.116 216.629 364.226 215.92 364.657C214.835 365.322 213.882 366.158 212.961 367.059C211.959 368.046 210.956 369.033 209.942 370.03C209.406 370.562 208.705 371.098 208.382 371.808C208.012 372.649 208.185 373.492 208.875 374.041L208.884 374.052C210.514 376.377 212.135 378.69 213.744 381.013C214.031 381.428 214.594 381.599 215.075 381.521C216.264 381.347 217.336 380.711 218.356 380.081C219.465 379.397 220.55 378.659 221.59 377.863C222.043 377.511 222.496 377.159 222.94 376.796C223.442 376.386 224.064 375.988 224.457 375.463C225.448 374.15 224.55 372.786 223.816 371.679C222.427 369.639 221.039 367.6 219.38 365.763ZM220.578 375.015C219.942 375.516 219.287 376.015 218.614 376.492C217.986 376.931 217.361 377.349 216.709 377.734C216.323 377.957 215.914 378.198 215.502 378.387C214.141 376.455 212.792 374.513 211.443 372.572C211.699 372.325 211.946 372.068 212.201 371.821C212.809 371.213 213.425 370.616 214.033 370.008C214.604 369.448 215.163 368.897 215.752 368.36C216.05 368.097 216.347 367.855 216.663 367.615C216.743 367.549 216.843 367.486 216.931 367.432C216.984 367.5 217.049 367.559 217.102 367.627C217.39 367.948 217.667 368.279 217.953 368.62C218.504 369.302 219.035 369.982 219.552 370.691C220.07 371.401 220.555 372.118 221.049 372.846C221.266 373.171 221.491 373.507 221.718 373.822C221.754 373.867 221.787 373.933 221.831 373.99C221.751 374.055 221.671 374.12 221.58 374.195C221.259 374.476 220.92 374.735 220.578 375.015Z" fill="#DADADA" fill-opacity="0.5"/>
<path d="M195.656 526.541C195.279 526.106 194.896 525.64 194.412 525.331C193.697 524.894 192.905 525.003 192.197 525.435C191.111 526.1 190.158 526.935 189.237 527.837C188.235 528.824 187.232 529.811 186.219 530.807C185.682 531.339 184.981 531.876 184.658 532.586C184.288 533.427 184.461 534.269 185.151 534.818L185.16 534.83C186.79 537.154 188.411 539.468 190.02 541.791C190.307 542.206 190.87 542.377 191.351 542.299C192.54 542.125 193.612 541.489 194.632 540.859C195.741 540.175 196.826 539.436 197.866 538.641C198.319 538.289 198.772 537.937 199.216 537.573C199.718 537.163 200.34 536.765 200.733 536.24C201.724 534.928 200.826 533.564 200.092 532.457C198.704 530.417 197.315 528.377 195.656 526.541ZM196.854 535.792C196.219 536.293 195.563 536.793 194.89 537.269C194.262 537.708 193.637 538.127 192.985 538.512C192.599 538.734 192.19 538.976 191.778 539.165C190.417 537.233 189.068 535.291 187.719 533.349C187.975 533.103 188.222 532.845 188.477 532.599C189.085 531.991 189.701 531.394 190.309 530.785C190.88 530.225 191.439 529.675 192.028 529.138C192.327 528.875 192.623 528.633 192.939 528.392C193.019 528.327 193.119 528.264 193.207 528.21C193.261 528.278 193.325 528.337 193.378 528.405C193.666 528.726 193.943 529.056 194.229 529.398C194.78 530.08 195.311 530.759 195.829 531.469C196.346 532.179 196.831 532.896 197.326 533.624C197.542 533.948 197.767 534.284 197.994 534.599C198.03 534.645 198.063 534.711 198.107 534.767C198.027 534.833 197.947 534.898 197.856 534.972C197.535 535.254 197.196 535.513 196.854 535.792Z" fill="#DADADA" fill-opacity="0.5"/>
<path d="M121.171 3.90668C118.941 1.96706 116.191 1.01913 113.369 0.333697C112.66 -0.0892275 111.835 0.202445 111.386 0.858707C110.416 2.2879 109.635 3.83376 108.94 5.40879C108.563 6.28381 108.202 7.15883 107.84 8.04843C107.507 8.87969 107.044 9.74013 107.29 10.6735C107.579 11.7381 108.535 12.1173 109.446 12.4964C110.286 12.8464 111.125 13.1964 111.979 13.5319C113.716 14.2173 115.468 14.8444 117.248 15.4132C117.697 15.559 118.348 15.4132 118.652 15.034C119.738 13.6777 120.013 11.9568 120.317 10.2797C120.621 8.6026 120.91 6.92549 121.532 5.32129C121.721 4.88378 121.532 4.21294 121.171 3.90668ZM111.444 10.1776C111.096 10.0318 110.749 9.88596 110.402 9.74013C110.373 9.72554 110.344 9.71096 110.315 9.69638C110.532 9.20053 110.706 8.64636 110.894 8.17968C111.154 7.52342 111.429 6.88174 111.719 6.24006C112.182 5.23379 112.718 4.25669 113.282 3.29417C115.091 3.76085 116.915 4.34419 118.449 5.42338C118.073 6.60465 117.841 7.81509 117.624 9.04011C117.494 9.78388 117.349 10.5276 117.19 11.2714C117.132 11.5485 117.074 11.8839 116.973 12.2048C115.83 11.811 114.672 11.4318 113.543 10.9943C112.833 10.7464 112.139 10.4693 111.444 10.1776Z" fill="#DADADA" fill-opacity="0.5"/>
<path d="M229.082 431.92C229.514 428.959 228.848 426.069 227.927 423.255C227.903 422.415 227.225 421.852 226.444 421.809C224.745 421.721 223.05 421.859 221.376 422.087C220.451 422.222 219.533 422.37 218.604 422.525C217.738 422.675 216.78 422.727 216.135 423.433C215.404 424.247 215.594 425.278 215.761 426.27C215.914 427.184 216.067 428.099 216.239 429.018C216.588 430.889 216.992 432.742 217.461 434.589C217.577 435.056 218.042 435.545 218.517 435.609C220.216 435.836 221.789 435.166 223.341 434.544C224.894 433.922 226.439 433.288 228.099 432.982C228.561 432.914 229.019 432.397 229.082 431.92ZM218.74 426.781C218.678 426.402 218.615 426.023 218.553 425.644C218.55 425.612 218.547 425.579 218.544 425.546C219.07 425.473 219.621 425.331 220.108 425.248C220.79 425.128 221.468 425.028 222.153 424.94C223.233 424.811 224.327 424.761 225.424 424.743C225.992 426.561 226.471 428.454 226.386 430.357C225.207 430.654 224.08 431.092 222.948 431.55C222.262 431.83 221.569 432.097 220.867 432.351C220.607 432.447 220.298 432.574 219.978 432.656C219.701 431.454 219.404 430.248 219.171 429.036C219.002 428.289 218.865 427.539 218.74 426.781Z" fill="#DADADA" fill-opacity="0.5"/>
<path d="M101.989 398.886C99.7601 396.947 97.01 395.999 94.1875 395.313C93.4783 394.89 92.6532 395.182 92.2045 395.838C91.2348 397.267 90.4532 398.813 89.7584 400.388C89.3821 401.263 89.0202 402.138 88.6584 403.028C88.3254 403.859 87.8623 404.72 88.1083 405.653C88.3978 406.718 89.3531 407.097 90.265 407.476C91.1045 407.826 91.944 408.176 92.798 408.511C94.5349 409.197 96.2863 409.824 98.0666 410.393C98.5153 410.538 99.1667 410.393 99.4706 410.013C100.556 408.657 100.831 406.936 101.135 405.259C101.439 403.582 101.729 401.905 102.351 400.301C102.539 399.863 102.351 399.192 101.989 398.886ZM92.2624 405.157C91.9151 405.011 91.5677 404.865 91.2203 404.72C91.1913 404.705 91.1624 404.69 91.1335 404.676C91.3506 404.18 91.5243 403.626 91.7124 403.159C91.973 402.503 92.248 401.861 92.5375 401.22C93.0006 400.213 93.5362 399.236 94.1007 398.274C95.91 398.74 97.7337 399.324 99.268 400.403C98.8916 401.584 98.6601 402.795 98.4429 404.02C98.3127 404.763 98.1679 405.507 98.0087 406.251C97.9508 406.528 97.8929 406.863 97.7916 407.184C96.6481 406.79 95.4902 406.411 94.3612 405.974C93.652 405.726 92.9572 405.449 92.2624 405.157Z" fill="#DADADA" fill-opacity="0.5"/>
</svg>
