<svg width="206" height="166" viewBox="0 0 206 166" fill="none" xmlns="http://www.w3.org/2000/svg">
<path d="M74.8765 41.4078C73.2433 37.7773 69.4063 34.4806 65.2229 34.517C63.4903 34.5334 61.9771 35.2257 60.7288 36.2879C59.6295 36.3707 58.5429 36.8765 57.6685 37.6655C51.0133 43.6974 53.3867 55.2297 62.1293 57.8973C71.6016 60.7914 78.5362 49.5557 74.8765 41.4078Z" fill="#FAAF3B"/>
<path d="M71.4365 77.7856C70.069 74.3501 68.2076 70.7427 65.1641 68.5032C64.0251 67.6667 62.7916 67.459 61.6702 67.6773C57.8918 67.5753 53.1603 71.3236 50.6512 73.1945C46.229 76.4985 50.9616 83.6939 55.4109 80.3721C55.5991 80.2299 55.7962 80.1012 55.9843 79.959C56.476 83.2781 57.4704 86.8118 59.45 89.5326C62.4395 93.6589 66.6911 91.5811 69.4105 88.463C72.0958 85.3672 72.9692 81.6464 71.4365 77.7856Z" fill="#00A99D"/>
<path d="M90.1902 91.1143C88.4423 89.0953 85.2476 88.0451 82.6929 89.0247C80.9234 89.705 79.7221 91.0806 79.2213 92.881C78.8447 94.2224 79.0835 96.0586 80.0124 97.1436C80.7898 98.0515 81.524 98.7402 82.7483 98.9927C82.878 99.0195 83.0146 99.0418 83.1534 99.0529C83.3729 99.215 83.6015 99.3614 83.8324 99.4966C85.477 100.42 87.4706 100.364 89.0866 99.43C92.0763 97.6817 92.3313 93.594 90.1902 91.1143Z" fill="#00A99D"/>
<path d="M99.8496 76.8205C101.411 70.0767 102.707 63.2837 104.103 56.5118C104.57 54.0502 105.013 51.5897 105.44 49.12C105.655 47.8796 105.864 46.5796 105.477 45.3785C105.104 44.2212 104.228 43.3048 103.415 42.4012C101.615 40.4065 99.9858 38.2661 98.536 35.9991C97.1233 33.7806 95.812 31.3553 93.6063 29.9017C91.7688 28.6876 89.5221 28.2884 87.344 27.9268C83.8209 27.3285 80.2853 26.7335 76.7621 26.1352C66.8042 24.4549 56.7843 22.7618 46.6841 22.7982C43.8177 22.8084 42.9277 24.2716 42.1556 26.8453C40.116 33.654 39.4426 40.768 38.7548 47.8088C38.0731 54.7634 36.6604 61.5263 35.4822 68.4076C35.1571 70.2968 34.8355 72.1984 34.5105 74.0877C33.2646 81.4105 31.9804 88.9766 30.1915 98.9321L27.1608 115.82C27.0994 116.146 27.1636 116.434 27.3352 116.685L27.4004 116.769L27.4021 116.874C27.4065 117.138 27.4961 117.787 28.2987 117.888C35.7898 119.124 43.2671 120.398 50.7432 121.706C56.7332 122.749 62.8839 123.697 68.92 124.773C71.9837 125.317 75.0337 125.899 78.0744 126.556C79.6392 126.896 81.2041 127.236 82.7473 127.625C83.4738 127.81 84.8608 128.499 85.4078 127.701C86.2834 126.421 84.1644 125.745 83.3307 125.538C69.384 122.124 55.1207 120.017 40.9716 117.612C37.3006 116.989 33.6296 116.366 29.9495 115.759L29.5963 115.703L29.6623 115.355C31.4177 105.562 32.6729 98.165 33.8909 91.0058C35.11 83.8409 36.3744 76.4284 38.1253 66.6286L40.1449 55.3835C41.3415 48.6986 41.4613 41.8734 42.5508 35.1373C43.0171 32.2495 43.6211 29.3783 44.4247 26.5659C44.9254 24.7946 45.8138 24.8786 47.4197 24.9062C48.2813 24.9204 49.1294 24.9435 49.9887 24.9689C56.8023 25.2123 63.7374 26.0355 70.4758 27.3846C77.3428 28.7661 84.2693 29.7452 91.1432 31.093C90.2779 34.5468 89.6112 38.0357 89.143 41.5597C89.081 42.0316 89.0311 42.5585 89.3162 42.9443C89.6192 43.3572 90.1857 43.4624 90.6992 43.5391C94.6911 44.1173 98.6448 44.9095 102.543 45.9122C102.817 45.9804 103.116 46.0712 103.268 46.3069C103.42 46.5369 103.38 46.844 103.329 47.1196C100.784 61.9119 97.4838 76.5135 94.0458 91.1276C91.745 100.913 89.8064 110.768 87.7751 120.615C87.6764 121.208 87.6402 121.953 88.1639 122.266C88.5873 122.523 89.1677 122.304 89.4734 121.905C89.7767 121.518 89.865 121.005 89.9519 120.527C91.2378 113.095 92.7279 105.7 94.4042 98.3434C96.0584 91.1223 98.2033 84.0316 99.8496 76.8205ZM99.9036 42.8274C97.2963 42.2371 94.6299 41.7338 91.997 41.325L91.6482 41.2764L91.6961 40.9301C92.0567 38.4408 92.5212 35.9322 93.0702 33.4701L93.2466 32.7006L93.7021 33.3435C95.7488 36.2242 97.9574 39.2317 100.259 42.2758L100.837 43.0374L99.9036 42.8274Z" fill="#1E1E1E"/>
<path d="M128.375 113.777C128.775 113.859 129.197 113.695 129.425 113.333C129.715 112.868 129.571 112.254 129.107 111.965C126.208 110.165 123.469 108.274 120.965 106.356C120.529 106.021 119.9 106.101 119.564 106.534C119.228 106.967 119.311 107.591 119.747 107.927C122.301 109.89 125.097 111.816 128.048 113.651C128.154 113.708 128.262 113.753 128.375 113.777Z" fill="#1E1E1E"/>
<path d="M147.182 122.48C147.409 121.978 147.183 121.394 146.682 121.168C143.458 119.72 140.532 118.311 137.733 116.852C137.244 116.599 136.641 116.784 136.383 117.268C136.13 117.753 136.318 118.352 136.805 118.611C139.642 120.083 142.606 121.512 145.862 122.978C145.932 123.01 146.004 123.031 146.072 123.045C146.517 123.137 146.987 122.912 147.182 122.48Z" fill="#1E1E1E"/>
<path d="M164.709 130.265C165.206 130.367 165.712 130.081 165.866 129.587C166.027 129.065 165.73 128.508 165.205 128.347C162.262 127.442 159.203 126.361 155.853 125.04C155.342 124.835 154.761 125.089 154.556 125.595C154.352 126.102 154.609 126.681 155.119 126.885C158.519 128.223 161.628 129.32 164.62 130.241C164.647 130.252 164.675 130.258 164.709 130.265Z" fill="#1E1E1E"/>
<path d="M185.525 132.97C185.555 132.422 185.134 131.955 184.583 131.918C181.643 131.743 178.751 131.421 175.99 130.951C175.592 130.88 175.19 130.809 174.792 130.739C174.248 130.638 173.728 130.992 173.629 131.532C173.53 132.067 173.878 132.577 174.408 132.686C174.414 132.687 174.42 132.688 174.425 132.689C174.833 132.768 175.247 132.841 175.656 132.908C178.491 133.394 181.458 133.725 184.473 133.904C185.019 133.94 185.494 133.519 185.525 132.97Z" fill="#1E1E1E"/>
<path d="M113.526 101.306C113.911 100.919 113.906 100.287 113.515 99.9027C112.058 98.4693 110.666 96.9791 109.371 95.4739C109.01 95.055 108.379 95.0066 107.959 95.358C107.539 95.7151 107.492 96.3419 107.847 96.7596C109.179 98.3133 110.611 99.8408 112.107 101.312C112.249 101.452 112.424 101.541 112.605 101.578C112.932 101.645 113.275 101.552 113.526 101.306Z" fill="#1E1E1E"/>
<path d="M43.4956 18.9516C44.3038 19.0541 45.1129 19.1801 45.9142 19.3162C47.546 19.5885 49.1651 19.9225 50.7773 20.2901C52.2428 20.6274 52.8832 18.4354 51.3951 18.0934C49.5031 17.6564 47.603 17.2878 45.6901 16.9808C44.7512 16.828 43.7471 16.5917 42.7984 16.6004C41.8802 16.6037 41.1363 17.0167 40.4909 17.6077C37.6531 20.2166 37.1355 24.1801 36.738 27.8179C36.6696 28.4345 37.3141 28.9879 37.8979 29.0091C38.5811 29.0332 39.0104 28.5202 39.0788 27.9037C39.3972 24.9911 39.7391 21.6513 41.921 19.4852C42.444 18.9741 42.745 18.8552 43.4956 18.9516Z" fill="#1E1E1E"/>
<path d="M64.6545 128.143C66.1159 128.386 66.5837 126.147 65.1166 125.903C59.1784 124.923 53.2469 123.939 47.3086 122.959C45.8472 122.716 45.3794 124.956 46.8465 125.2C52.7847 126.18 58.7162 127.164 64.6545 128.143Z" fill="#1E1E1E"/>
<path d="M94.0676 95.8967C92.0942 92.0909 89.2564 87.628 84.336 87.816C81.9164 87.9126 80.0939 89.5338 78.3152 90.9714C76.6057 92.3589 74.8905 93.7454 73.1821 95.1273C72.6503 92.1737 72.0563 89.2365 71.3347 86.3196C70.5865 83.2747 69.7128 80.2681 68.6581 77.3117C67.6615 74.5017 66.5001 71.6635 64.4142 69.458C63.3229 68.3044 61.9689 67.3126 60.3133 67.2981C58.8056 67.2791 57.2804 67.8872 55.9458 68.5404C53.2178 69.8756 50.9416 71.9288 48.6894 73.9227C42.9273 79.0176 37.4562 84.4411 32.3034 90.1463C31.3124 91.2442 33.0321 92.7727 34.0164 91.6793C38.2394 87.0027 42.6818 82.5174 47.322 78.2422C48.4117 80.2014 49.5694 83.1148 52.082 83.4228C53.4128 83.5864 54.2675 82.8926 55.1727 82.0398C55.3406 81.8818 55.5139 81.7832 55.6985 81.6578C55.7064 81.6769 55.7142 81.696 55.7208 81.7208C55.8275 82.3442 56.0312 82.9819 56.2057 83.5902C56.549 84.8056 56.9658 86.0069 57.4539 87.1763C57.9208 88.3062 58.4052 89.5507 59.0962 90.5633C59.8152 91.6109 61.0846 92.1005 62.2164 91.3471C63.1578 90.7179 63.9416 89.7408 64.6245 88.8539C65.8857 87.2162 66.9456 85.4143 68.3013 83.8603C68.5179 84.6349 68.7277 85.414 68.9251 86.1964C70.4191 92.0697 71.3976 98.047 72.2688 104.031C73.2615 110.852 74.1072 117.701 75.3485 124.486C75.4586 125.093 75.9012 125.599 76.5746 125.557C77.1405 125.522 77.7576 124.954 77.6486 124.342C76.0294 115.511 75.085 106.574 73.6116 97.7211C75.2146 96.4225 76.8244 95.1195 78.4274 93.8209C79.386 96.045 81.6177 97.7433 84.0517 97.9476C86.6935 98.1713 89.3507 96.7515 90.6083 94.4473C91.1867 95.3783 91.6893 96.3346 92.1237 97.1658C92.4102 97.7154 93.2376 97.8102 93.7202 97.4951C94.3059 97.1079 94.3542 96.4463 94.0676 95.8967ZM63.8197 86.0834C63.2194 86.9407 62.5909 87.7921 61.8736 88.5609C61.7147 88.7325 61.5513 88.8974 61.3822 89.0611C61.3164 89.1234 61.1555 89.2479 61.0658 89.3403C61.0299 89.2862 60.9816 89.2354 60.975 89.2106C60.8453 88.9269 60.6613 88.6496 60.5192 88.3692C59.4864 86.3049 58.6969 84.1157 58.1404 81.8812C57.8798 80.8347 57.5711 79.7082 56.3618 79.412C55.2303 79.1377 54.2448 79.752 53.4722 80.5036C53.1637 80.802 52.8806 81.205 52.4076 81.16C51.9459 81.1173 51.5591 80.7397 51.2829 80.3965C50.434 79.3222 49.8326 77.9893 49.1594 76.8051C49.1291 76.7522 49.0921 76.7036 49.055 76.6551C50.8607 75.0012 52.6946 73.3532 54.6956 71.9498C55.823 71.1604 57.0188 70.4669 58.3243 70.0121C58.9645 69.7879 59.6579 69.563 60.3478 69.5827C61.0965 69.6029 61.6818 70.0447 62.2251 70.5189C64.2755 72.3258 65.3544 74.9368 66.2666 77.4433C66.7316 78.7246 67.1649 80.017 67.5666 81.3203C66.075 82.7061 64.9794 84.4248 63.8197 86.0834ZM88.8677 92.7918C88.1344 94.5502 86.3114 95.8034 84.3841 95.6803C82.4286 95.5514 80.8387 94.0496 80.3288 92.2159C81.4423 91.266 82.6652 90.327 84.0338 90.1363C86.1652 89.8401 87.8284 90.9015 89.1619 92.4204C89.0361 92.5171 88.9294 92.6352 88.8677 92.7918Z" fill="#1E1E1E"/>
<path d="M59.1487 99.2341C58.8006 98.0703 58.0454 97.0269 57.1343 96.2258C55.1142 94.4426 52.3521 93.6334 49.7032 93.5017C47.113 93.3703 44.1244 93.9159 42.1297 95.6593C40.0851 97.4449 39.9936 100.369 41.5421 102.528C43.1232 104.729 46.0171 105.84 48.6022 106.338C51.1479 106.828 54.2378 106.105 55.0154 103.304C55.8333 100.337 52.7804 98.6855 50.3018 98.3552C48.962 98.1782 47.2672 98.0972 46.4278 99.3723C45.6169 100.595 46.1405 102.134 47.5207 102.599C48.1093 102.797 48.7657 102.266 48.8801 101.712C48.9748 101.252 48.7925 100.882 48.4752 100.624C48.7519 100.623 49.0833 100.527 49.3734 100.546C50.1502 100.601 50.9796 100.743 51.6885 101.071C52.1776 101.294 52.7192 101.634 52.8239 102.21C52.9538 102.92 52.3658 103.575 51.7827 103.893C50.2699 104.726 48.0656 103.95 46.5899 103.377C44.9406 102.733 43.1329 101.659 42.7871 99.7717C42.4676 98.0415 43.9025 96.9301 45.3721 96.3923C47.1596 95.7391 49.1581 95.6024 51.0325 95.9248C52.8166 96.2286 54.6047 96.9128 55.9031 98.2026C57.2791 99.5726 57.2348 101.327 56.8742 103.104C56.4466 105.205 55.5124 106.94 53.4417 107.797C51.2804 108.695 48.8721 108.537 46.5848 108.363C45.9763 108.319 45.346 108.58 45.2254 109.25C44.6959 112.131 44.1664 115.012 43.6369 117.892C43.3738 119.339 45.6292 119.81 45.8935 118.358C46.3616 115.803 46.8309 113.243 47.3047 110.689C49.7717 110.848 52.2992 110.855 54.5764 109.795C57.2001 108.567 58.5634 106.349 59.1296 103.575C59.4175 102.151 59.5792 100.654 59.1487 99.2341Z" fill="#1E1E1E"/>
<path d="M68.7814 36.1972C66.8526 34.2285 64.0511 33.382 61.4303 32.8005C58.9493 32.2537 55.0138 31.4302 53.8474 34.5474C53.6335 35.1281 53.7513 35.7831 54.3529 36.0882C54.8588 36.3444 55.6818 36.1755 55.9025 35.5903C56.6162 33.6703 59.647 34.7451 61.0809 35.0643C62.93 35.4807 64.8927 36.0024 66.4222 37.1704C69.4146 39.4578 70.0158 43.985 69.1833 47.4221C68.3738 50.7764 65.8413 53.5301 62.2542 53.8121C58.7451 54.0868 55.3094 52.1518 53.9558 48.8769C53.1863 47.0188 53.0219 44.9644 53.4884 43.0167C53.8719 41.414 54.8879 39.0834 56.7516 38.8021C58.2027 38.5817 58.0688 36.2941 56.5996 36.5166C51.7251 37.2514 50.3505 43.6016 51.181 47.6446C52.1144 52.1585 55.8242 55.6158 60.4729 56.0608C65.1329 56.5082 69.2821 53.8719 70.9196 49.5263C72.5294 45.286 72.0952 39.5786 68.7814 36.1972Z" fill="#1E1E1E"/>
<path d="M157.506 105.28C157.816 104.947 158.15 104.637 158.523 104.369C158.709 104.238 158.912 104.11 159.144 104.094C159.365 104.081 159.58 104.178 159.784 104.273C160.813 104.76 161.837 105.269 162.8 105.876C163.715 106.456 164.682 107.158 165.351 108.02C165.561 108.285 165.729 108.612 165.635 108.954C165.586 109.137 165.486 109.303 165.393 109.471C164.63 110.803 164.085 112.22 163.445 113.612C163.294 113.943 163.122 114.264 162.94 114.577C162.751 114.894 162.545 115.208 162.275 115.462C162.062 115.669 161.805 115.832 161.522 115.919C161.196 116.016 160.868 115.895 160.583 115.737C160.098 115.468 159.627 115.155 159.114 114.932C158.795 114.796 158.49 114.564 158.191 114.391C157.855 114.194 157.521 113.99 157.186 113.787C156.507 113.372 155.835 112.953 155.17 112.524C154.771 112.267 154.362 111.996 154.076 111.615C153.273 110.545 154.22 109.549 154.824 108.675C155.284 108.011 155.765 107.362 156.277 106.732C156.678 106.242 157.069 105.745 157.506 105.28ZM161.267 112.994C161.771 111.69 162.333 110.393 162.977 109.153C163.015 109.08 163.054 109.006 163.054 108.918C163.056 108.767 162.929 108.641 162.815 108.542C162.318 108.124 161.781 107.762 161.227 107.426C160.742 107.127 160.167 106.664 159.587 106.597C159.282 106.564 159.13 106.871 158.961 107.064C158.635 107.417 158.324 107.785 158.024 108.155C157.684 108.581 157.352 109.021 157.041 109.471C156.882 109.701 156.729 109.932 156.58 110.17C156.467 110.345 156.19 110.603 156.445 110.767C157.494 111.439 158.565 112.092 159.649 112.712C159.917 112.867 160.19 113.023 160.465 113.173C160.644 113.274 160.847 113.52 161.07 113.35C161.169 113.271 161.224 113.143 161.267 113.023C161.257 113.015 161.259 113.004 161.267 112.994Z" fill="#00A99D"/>
<path d="M4.49406 119.951C4.80393 119.617 5.13854 119.307 5.51135 119.039C5.69718 118.908 5.89993 118.781 6.13266 118.764C6.35295 118.751 6.56822 118.848 6.77219 118.943C7.80106 119.43 8.8253 119.939 9.7881 120.546C10.7036 121.126 11.6705 121.828 12.3396 122.69C12.5495 122.955 12.7174 123.282 12.6232 123.625C12.5738 123.807 12.4748 123.973 12.3814 124.141C11.6185 125.473 11.0732 126.89 10.4332 128.282C10.2826 128.613 10.1105 128.934 9.92838 129.247C9.73943 129.564 9.53355 129.878 9.26358 130.132C9.0503 130.339 8.79317 130.502 8.51042 130.59C8.18471 130.686 7.85661 130.566 7.57161 130.408C7.0861 130.138 6.61547 129.825 6.10264 129.602C5.78365 129.467 5.47867 129.234 5.17905 129.062C4.84342 128.864 4.50894 128.66 4.17445 128.457C3.49536 128.043 2.82307 127.624 2.15872 127.195C1.75899 126.937 1.35028 126.666 1.06405 126.286C0.26152 125.215 1.20805 124.219 1.81182 123.345C2.2723 122.681 2.75304 122.032 3.26532 121.402C3.66512 120.918 4.05709 120.415 4.49406 119.951ZM8.25522 127.664C8.75933 126.36 9.32101 125.063 9.96487 123.824C10.0036 123.75 10.0424 123.676 10.0428 123.589C10.0446 123.437 9.91756 123.312 9.80283 123.212C9.30671 122.794 8.76967 122.433 8.21558 122.096C7.7302 121.798 7.15524 121.335 6.57505 121.267C6.27027 121.234 6.11863 121.541 5.94946 121.734C5.62368 122.087 5.31252 122.455 5.01265 122.825C4.67185 123.252 4.34003 123.691 4.02962 124.141C3.87043 124.371 3.71689 124.602 3.56784 124.84C3.45522 125.015 3.17845 125.274 3.43293 125.437C4.48239 126.109 5.5534 126.762 6.63699 127.383C6.90506 127.537 7.17878 127.693 7.45365 127.843C7.63275 127.944 7.8349 128.19 8.05817 128.02C8.1568 127.941 8.21274 127.813 8.25508 127.693C8.2438 127.691 8.24726 127.674 8.25522 127.664Z" fill="#FAAF3B"/>
<path d="M102.438 17.1939C102.748 16.8607 103.083 16.5502 103.456 16.2826C103.642 16.1515 103.844 16.024 104.077 16.0078C104.297 15.9948 104.513 16.0918 104.717 16.1864C105.745 16.6731 106.77 17.1822 107.732 17.7896C108.648 18.3697 109.615 19.0713 110.284 19.9335C110.494 20.1987 110.662 20.5253 110.568 20.8679C110.518 21.0504 110.419 21.2169 110.326 21.3845C109.563 22.7162 109.018 24.1337 108.378 25.5259C108.227 25.8568 108.055 26.1776 107.873 26.4904C107.684 26.8076 107.478 27.1214 107.208 27.3752C106.995 27.5823 106.738 27.7453 106.455 27.833C106.129 27.9293 105.801 27.8091 105.516 27.651C105.03 27.3815 104.56 27.0684 104.047 26.8458C103.728 26.7099 103.423 26.4777 103.123 26.3049C102.788 26.1072 102.453 25.9039 102.119 25.7006C101.44 25.286 100.767 24.8671 100.103 24.438C99.7033 24.1804 99.2946 23.9092 99.0084 23.529C98.2059 22.4583 99.1524 21.4623 99.7562 20.5882C100.217 19.9241 100.697 19.2758 101.21 18.6456C101.611 18.1561 102.001 17.6586 102.438 17.1939ZM106.2 24.9072C106.704 23.6039 107.265 22.3065 107.909 21.067C107.948 20.9933 107.987 20.9195 107.987 20.832C107.989 20.6806 107.862 20.5551 107.747 20.4555C107.251 20.0378 106.714 19.6759 106.16 19.3397C105.675 19.0411 105.1 18.5779 104.519 18.5108C104.215 18.4771 104.063 18.7846 103.894 18.9774C103.568 19.3307 103.257 19.6986 102.957 20.0689C102.616 20.495 102.284 20.9346 101.974 21.3844C101.815 21.6144 101.661 21.8455 101.512 22.0834C101.4 22.2587 101.123 22.5169 101.377 22.6804C102.427 23.3523 103.498 24.0054 104.581 24.626C104.849 24.7806 105.123 24.9363 105.398 25.0864C105.577 25.1876 105.779 25.4337 106.003 25.2637C106.101 25.1848 106.157 25.0562 106.199 24.9364C106.189 24.9285 106.197 24.9184 106.2 24.9072Z" fill="#FAAF3B"/>
<path d="M24.8009 36.1069C24.6674 35.6706 24.5644 35.2289 24.5112 34.7741C24.4874 34.5473 24.4784 34.306 24.5787 34.1048C24.6778 33.9092 24.8705 33.7738 25.0495 33.6472C25.982 33.0045 26.9347 32.3776 27.9479 31.8566C28.9091 31.36 30.0023 30.8789 31.0849 30.7343C31.4239 30.6874 31.7898 30.7103 32.0438 30.9613C32.181 31.0947 32.2751 31.2659 32.3771 31.4271C33.157 32.7501 34.1307 33.932 35.0205 35.1784C35.2303 35.4728 35.431 35.7828 35.608 36.0938C35.794 36.4183 35.9607 36.7505 36.0505 37.1135C36.1204 37.4024 36.1404 37.7044 36.0747 37.9945C36.0009 38.3238 35.731 38.5484 35.4502 38.7124C34.9745 38.9939 34.4652 39.2392 34.0198 39.5736C33.7421 39.7791 33.3879 39.9279 33.089 40.094C32.7504 40.2811 32.4063 40.4671 32.0621 40.653C31.3669 41.0294 30.6615 41.3978 29.9585 41.7549C29.5318 41.9706 29.0993 42.185 28.6225 42.2443C27.2913 42.3961 26.8908 41.0871 26.4244 40.1266C26.0742 39.4004 25.7445 38.6608 25.4532 37.9058C25.2313 37.2994 24.9878 36.7119 24.8009 36.1069ZM33.3949 36.7292C32.5077 35.6411 31.6535 34.5072 30.8967 33.3291C30.8518 33.2615 30.8025 33.1871 30.7349 33.144C30.6043 33.0644 30.4301 33.1103 30.2842 33.1619C29.6744 33.3807 29.0926 33.6636 28.5243 33.9668C28.0216 34.2369 27.3326 34.4977 26.9837 34.963C26.8041 35.2062 26.9982 35.4915 27.0772 35.7356C27.2242 36.1922 27.3892 36.6467 27.5678 37.0923C27.7688 37.6009 27.9889 38.1018 28.2272 38.6006C28.3514 38.854 28.4767 39.1017 28.6077 39.3507C28.7051 39.5343 28.7937 39.9029 29.062 39.7714C30.1725 39.2063 31.2663 38.6085 32.3522 37.9916C32.6251 37.8377 32.8924 37.6826 33.1608 37.5219C33.3409 37.4189 33.6573 37.3673 33.6134 37.0955C33.5925 36.9686 33.5083 36.8636 33.4298 36.7598C33.414 36.7507 33.4039 36.7428 33.3949 36.7292Z" fill="#00A99D"/>
</svg>
