<svg width="19" height="19" viewBox="0 0 19 19" fill="none" xmlns="http://www.w3.org/2000/svg">
<path d="M16.2757 2.72C14.5257 0.97 12.1857 0 9.70572 0C7.22572 0 4.89572 0.97 3.13572 2.72C1.64572 4.21 0.695719 6.19 0.475719 8.28C0.265719 10.22 0.67572 12.19 1.63572 13.88L0.69572 17.27C0.61572 17.56 0.69572 17.86 0.90572 18.08C1.11572 18.29 1.42572 18.37 1.71572 18.29L5.10572 17.36C6.50572 18.16 8.10572 18.57 9.71572 18.57C10.0457 18.57 10.3757 18.55 10.7057 18.52C12.8057 18.29 14.7757 17.35 16.2757 15.85C19.9057 12.23 19.9057 6.34 16.2757 2.72ZM4.75572 10.22C4.05572 10.22 3.53572 9.65 3.50572 8.97C3.47572 8.3 4.10572 7.72 4.75572 7.72C5.45572 7.72 5.97572 8.29 6.00572 8.97C6.03572 9.64 5.41572 10.22 4.75572 10.22ZM9.70572 10.22C9.00572 10.22 8.48572 9.65 8.45572 8.97C8.42572 8.3 9.05572 7.72 9.70572 7.72C10.4057 7.72 10.9257 8.29 10.9557 8.97C10.9857 9.64 10.3657 10.22 9.70572 10.22ZM14.6557 10.22C13.9557 10.22 13.4357 9.65 13.4057 8.97C13.3757 8.3 14.0057 7.72 14.6557 7.72C15.3557 7.72 15.8757 8.29 15.9057 8.97C15.9357 9.64 15.3157 10.22 14.6557 10.22Z" fill="#00A99D"/>
</svg>
