<svg width="17" height="17" viewBox="0 0 17 17" fill="none" xmlns="http://www.w3.org/2000/svg">
<g clip-path="url(#clip0)">
<path d="M13.2457 10.0901C12.8257 9.67007 12.2457 9.46007 11.6657 9.51007C11.0857 9.56007 10.5657 9.87007 10.2257 10.3401C10.2157 10.3601 10.2057 10.3701 10.1957 10.3901L9.85572 10.9701C9.44572 10.9601 8.56572 10.7601 7.40572 9.58007C6.25572 8.41007 6.05572 7.53007 6.03572 7.11007L6.60572 6.77007C6.62572 6.76007 6.64572 6.75007 6.65572 6.74007C7.13572 6.41007 7.43572 5.89007 7.49572 5.31007C7.54572 4.72007 7.34572 4.15007 6.92572 3.73007L4.72572 1.53007C4.11572 0.920067 3.19572 0.770067 2.43572 1.15007C1.14572 1.81007 0.315723 3.00007 0.0757231 4.53007C-0.134277 5.84007 0.0957232 7.34007 0.725723 8.87007C1.36572 10.4201 2.39572 11.9401 3.71572 13.2601C5.03572 14.5801 6.55572 15.6201 8.09572 16.2601C9.26572 16.7501 10.4157 17.0001 11.4757 17.0001C11.8057 17.0001 12.1257 16.9801 12.4357 16.9301C13.9557 16.6901 15.1557 15.8601 15.8157 14.5901C16.2057 13.8301 16.0557 12.9101 15.4457 12.3001L13.2457 10.0901Z" fill="#1E1E1E"/>
</g>
<defs>
<clipPath id="clip0">
<rect width="17" height="17" fill="white"/>
</clipPath>
</defs>
</svg>
