<svg width="96" height="64" viewBox="0 0 96 64" fill="none" xmlns="http://www.w3.org/2000/svg">
<path d="M68.4705 35.9501C65.3705 35.9501 65.3705 40.7501 68.4705 40.7501C71.5705 40.7501 71.5705 35.9501 68.4705 35.9501Z" fill="white"/>
<path d="M49.3704 34.65C46.2704 34.65 46.2704 39.45 49.3704 39.45C52.4704 39.45 52.4704 34.65 49.3704 34.65Z" fill="white"/>
<path d="M28.1705 33.55C25.0705 33.55 25.0705 38.3501 28.1705 38.3501C31.2705 38.2501 31.2705 33.55 28.1705 33.55Z" fill="white"/>
<path d="M94.8705 28.35C95.3705 22.45 93.7705 16.75 88.6705 12.45C80.5705 5.65001 67.6705 3.85001 57.4705 3.05001C47.2705 2.25001 34.4705 1.65001 25.1705 6.35001C20.3705 8.75001 17.1705 12.65 15.7705 17.05C14.4705 18.55 14.0705 20.45 14.3705 22.15C12.1705 29.15 15.5705 39.25 20.4705 44.35C24.5705 48.65 30.3705 50.05 34.8705 59.65C36.7705 55.65 38.8705 53.85 41.1705 53.35C42.2705 53.05 43.4705 53.15 44.6705 53.25C50.4705 54.35 56.3705 54.45 62.3705 53.85C63.5705 53.75 64.7705 53.55 65.9705 53.35C67.0705 53.05 68.1705 52.75 69.2705 52.45C70.3705 52.15 71.4705 51.95 72.5705 51.65C79.3705 49.95 88.3705 47.95 92.7705 40.35C93.0705 39.75 93.4705 39.15 93.6705 38.45C95.0705 35.25 95.6705 31.75 94.8705 28.35ZM29.2705 38.25C28.5705 38.55 27.7705 38.55 27.1705 38.25C26.4705 37.85 25.9705 37.05 25.7705 36.25C25.6705 35.55 25.7705 34.75 26.1705 34.15C26.4705 33.55 26.8705 33.05 27.4705 32.95C28.6705 32.55 30.1705 33.35 30.6705 34.45C31.2705 35.65 30.5705 37.55 29.2705 38.25ZM52.1705 37.55C51.9705 38.05 51.6705 38.55 51.1705 38.95C50.6705 39.35 50.1705 39.55 49.4705 39.65C48.8705 39.75 48.2705 39.75 47.6705 39.45C47.1705 39.25 46.7705 38.75 46.4705 38.25C46.1705 37.75 46.0705 37.15 46.1705 36.65C46.1705 36.35 46.3705 36.05 46.5705 35.85C46.8705 35.05 47.6705 34.55 48.4705 34.35C49.3705 34.15 50.3705 34.15 51.1705 34.75C52.2705 35.35 52.5705 36.45 52.1705 37.55ZM69.8705 39.05C69.4705 39.65 68.8705 40.15 68.0705 40.25C67.4705 40.25 66.9705 39.85 66.5705 39.45C66.2705 38.95 66.0705 38.45 66.0705 37.85C66.0705 37.25 66.1705 36.65 66.4705 36.25C66.7705 35.75 67.2705 35.55 67.8705 35.45C68.2705 35.15 68.7705 35.05 69.2705 35.15C70.1705 35.35 70.4705 36.25 70.4705 37.05C70.5705 37.65 70.3705 38.45 69.8705 39.05Z" fill="#FBB03B"/>
<path d="M91.3705 28.4501C90.9705 24.9501 89.8705 21.5501 87.5705 18.7501C85.4705 16.0501 82.5705 14.0501 79.5705 12.4501C65.9705 5.35008 49.3705 4.55008 34.3705 5.45008C26.9705 5.85008 18.8705 7.25008 12.6705 11.6501C7.37049 15.4501 4.37049 21.1501 3.77049 27.5501C2.37049 41.9501 14.8705 53.1501 28.7705 53.8501V53.9501C30.2705 57.0501 31.9705 59.9501 33.9705 62.8501C34.3705 63.3501 34.8705 63.7501 35.5705 63.7501C36.1705 63.7501 36.8705 63.4501 37.1705 62.8501L41.2705 54.3501C48.5705 55.5501 55.9705 55.6501 63.2705 54.5501C65.2705 54.2501 67.1705 53.8501 69.0705 53.4501C70.9705 53.0501 72.7705 52.5501 74.6705 52.0501C78.0705 51.0501 81.6705 49.6501 84.4705 47.3501C84.6705 47.1501 84.9705 46.9501 85.1705 46.7501C86.9705 45.0501 88.5705 42.9501 89.5705 40.6501C90.2705 39.0501 90.7705 37.4501 91.1705 35.7501C91.4705 33.2501 91.6705 30.8501 91.3705 28.4501ZM84.6705 41.7501C82.5705 44.8501 79.1705 46.5501 75.7705 47.7501C72.0705 49.0501 68.2705 50.0501 64.3705 50.7501C56.5705 52.0501 48.4705 52.0501 40.6705 50.6501C40.3705 50.5501 40.0705 50.6501 39.7705 50.6501C39.2705 50.7501 38.7705 50.9501 38.5705 51.4501C37.4705 53.6501 36.3705 55.9501 35.3705 58.1501C34.2705 56.3501 33.2705 54.5501 32.3705 52.7501C32.7705 51.6501 32.2705 50.2501 30.7705 50.2501C19.4705 50.5501 8.17049 42.7501 7.27049 31.1501C6.97049 25.8501 8.57049 20.3501 12.4705 16.5501C17.2705 11.7501 24.4705 9.95008 31.0705 9.35008C37.9705 8.55008 45.0705 8.65008 51.9705 9.15008C58.7705 9.65008 65.5705 10.7501 71.9705 13.0501C77.7705 15.1501 84.2705 18.2501 86.6705 24.2501C88.9705 29.7501 88.0705 36.8501 84.6705 41.7501Z" fill="#1E1E1E"/>
<path d="M28.6706 37.95H28.5706C28.5706 37.95 28.5706 37.95 28.6706 37.95C28.7706 37.95 28.7706 37.95 28.6706 37.95C28.7706 37.95 28.7706 37.95 28.6706 37.95C28.7706 37.95 28.7706 37.95 28.7706 37.95C28.7706 37.85 28.7706 37.85 28.6706 37.95Z" fill="#1E1E1E"/>
<path d="M31.6706 31.45C29.9706 30.05 27.5706 29.75 25.6706 30.85C25.2706 31.05 24.9706 31.55 24.8706 31.95C24.2706 32.05 23.7706 32.55 23.4706 33.25C22.8706 35.15 22.8706 37.35 23.9706 39.05C24.9706 40.65 26.9706 41.65 28.8706 41.45C29.9706 41.35 31.0706 40.85 31.7706 40.05C32.4706 39.25 32.8706 38.35 33.1706 37.35C33.7706 35.25 33.3706 32.85 31.6706 31.45ZM29.1706 37.55C29.0706 37.55 29.0706 37.65 28.9706 37.75C29.0706 37.75 28.9706 37.75 28.9706 37.75C28.9706 37.75 28.9706 37.75 28.8706 37.75C28.8706 37.75 28.8706 37.75 28.7706 37.75H28.6706H28.7706C28.6706 37.75 28.5706 37.75 28.4706 37.75H28.5706C28.4706 37.75 28.4706 37.75 28.3706 37.75C28.2706 37.75 28.2706 37.75 28.2706 37.75C28.1706 37.75 28.0706 37.65 27.9706 37.65H27.8706C27.7706 37.55 27.6706 37.55 27.5706 37.45L27.4706 37.35L27.3706 37.25C27.2706 37.15 27.1706 36.95 27.1706 36.85C27.1706 36.85 27.1706 36.75 27.0706 36.75C26.9706 36.55 26.9706 36.35 26.8706 36.15V36.05V35.95C26.8706 35.55 26.8706 35.25 26.8706 34.85C26.8706 35.45 26.8706 34.85 26.8706 34.65C26.8706 34.45 26.9706 34.25 27.0706 34.05C27.0706 34.05 27.0706 34.05 27.0706 33.95C27.2706 33.95 27.4706 33.85 27.5706 33.75C27.5706 33.75 27.6706 33.75 27.6706 33.65C27.7706 33.65 27.8706 33.55 27.9706 33.55C28.0706 33.55 28.1706 33.55 28.2706 33.55C28.1706 33.55 28.2706 33.55 28.3706 33.55C28.4706 33.55 28.4706 33.55 28.5706 33.55C28.4706 33.55 28.4706 33.55 28.4706 33.55C28.5706 33.55 28.6706 33.55 28.7706 33.65C28.8706 33.65 28.8706 33.65 28.9706 33.75C29.0706 33.75 29.1706 33.85 29.1706 33.85C29.1706 33.85 29.1706 33.85 29.2706 33.85C29.2706 33.85 29.2706 33.85 29.3706 33.95C29.3706 33.95 29.4706 33.95 29.4706 34.05C29.5706 34.05 29.5706 34.15 29.4706 34.15C29.4706 34.15 29.4706 34.15 29.5706 34.25C29.5706 34.35 29.6706 34.35 29.6706 34.45C29.6706 34.35 29.6706 34.35 29.6706 34.45C29.6706 34.45 29.6706 34.45 29.6706 34.55C29.6706 34.65 29.6706 34.65 29.7706 34.75C29.7706 34.85 29.7706 34.85 29.7706 34.95C29.7706 34.95 29.7706 34.95 29.7706 35.05C29.7706 35.05 29.7706 35.05 29.7706 35.15C29.7706 35.25 29.7706 35.25 29.7706 35.25C29.7706 35.35 29.7706 35.45 29.7706 35.45C29.7706 35.55 29.7706 35.65 29.7706 35.75C29.6706 36.05 29.6706 36.35 29.5706 36.75C29.5706 36.75 29.4706 36.85 29.4706 36.95C29.3706 37.05 29.3706 37.25 29.2706 37.35C29.2706 37.45 29.1706 37.55 29.1706 37.55Z" fill="#1E1E1E"/>
<path d="M29.3705 34.25L29.2705 34.15C29.2705 34.25 29.3705 34.25 29.3705 34.25Z" fill="#1E1E1E"/>
<path d="M28.3705 33.75H28.2705C28.2705 33.75 28.2705 33.85 28.3705 33.75C28.3705 33.85 28.3705 33.75 28.3705 33.75Z" fill="#1E1E1E"/>
<path d="M50.2705 38.85C50.3705 38.85 50.3705 38.75 50.2705 38.85C50.3705 38.75 50.3705 38.75 50.2705 38.85C50.3705 38.75 50.3705 38.75 50.3705 38.75C50.2705 38.85 50.2705 38.85 50.2705 38.85Z" fill="#1E1E1E"/>
<path d="M50.6704 37.75C50.7704 37.55 50.7704 37.35 50.6704 37.75V37.75Z" fill="#1E1E1E"/>
<path d="M53.0705 33.15C52.1705 32.35 51.0706 32.05 49.8706 31.85C49.2706 31.75 48.6705 31.65 47.9706 31.75C47.1706 31.85 46.5706 32.15 45.8706 32.65C45.7706 32.75 45.6705 32.95 45.5705 33.05C45.2705 33.15 45.0706 33.25 44.8706 33.45C43.1706 34.95 43.0706 37.55 44.1706 39.45C45.2706 41.25 47.1705 42.35 49.2705 42.55C50.2705 42.65 51.2705 42.45 52.0705 41.95C53.0705 41.35 53.7705 40.35 54.0705 39.35C54.1705 38.85 54.2706 38.35 54.3706 37.75C54.4706 37.25 54.4706 36.85 54.4706 36.35C54.3706 35.15 54.0705 33.95 53.0705 33.15ZM50.7705 37.15C50.7705 37.35 50.7705 37.45 50.7705 37.65C50.7705 37.75 50.7705 37.75 50.7705 37.85V37.75C50.7705 37.75 50.7705 37.75 50.7705 37.85C50.7705 38.15 50.6705 38.35 50.5705 38.65L50.4706 38.75C50.4706 38.75 50.4706 38.75 50.3706 38.75C50.3706 38.75 50.3705 38.75 50.2705 38.75H50.1706C50.2706 38.75 50.1705 38.75 50.0705 38.75C50.0705 38.75 49.9706 38.75 49.8706 38.75C49.9706 38.75 49.9706 38.75 49.9706 38.75C49.8706 38.75 49.8705 38.75 49.7705 38.75C49.7705 38.75 49.5705 38.75 49.4706 38.75C49.3706 38.75 49.2705 38.75 49.2705 38.75C49.1705 38.75 48.9706 38.65 48.8706 38.65C48.8706 38.65 48.8705 38.65 48.7705 38.65C48.4705 38.55 48.2705 38.35 48.0705 38.15L47.9706 38.05C47.8706 37.95 47.7706 37.85 47.6706 37.75C47.6706 37.65 47.5705 37.55 47.5705 37.55C47.5705 37.45 47.4706 37.45 47.4706 37.35C47.4706 37.25 47.3706 37.05 47.3706 36.95C47.3706 36.85 47.3706 36.85 47.3706 36.75V36.65C47.3706 36.55 47.3706 36.45 47.4706 36.45C47.4706 36.55 47.3706 36.55 47.4706 36.45V36.35C47.4706 36.35 47.4706 36.35 47.4706 36.25C47.4706 36.25 47.4706 36.25 47.4706 36.35C47.4706 36.35 47.4705 36.25 47.5705 36.25C47.6705 36.15 47.6705 36.15 47.7705 36.05C47.8705 35.95 47.9705 35.75 48.0705 35.65C48.2705 35.55 48.4705 35.45 48.5705 35.35C48.4705 35.45 48.5705 35.35 48.5705 35.35H48.6706C48.7706 35.35 48.9706 35.35 48.9706 35.35H49.0705C49.0705 35.35 49.0706 35.35 49.1706 35.35C49.4706 35.45 49.7705 35.45 50.0705 35.55C50.1705 35.55 50.3706 35.65 50.4706 35.65C50.5705 35.65 50.6706 35.75 50.6706 35.75C50.6706 35.75 50.6705 35.75 50.7705 35.85C50.8705 35.85 50.8705 35.95 50.7705 35.95C50.7705 35.95 50.8706 36.05 50.8706 36.15C50.8706 36.15 50.8706 36.15 50.8706 36.05C50.8706 36.15 50.8706 36.15 50.8706 36.25C50.7706 36.45 50.8705 36.85 50.7705 37.15Z" fill="#1E1E1E"/>
<path d="M49.9705 38.9501H50.0705C50.0705 38.8501 49.9705 38.9501 49.9705 38.9501Z" fill="#1E1E1E"/>
<path d="M50.6704 35.8501C50.6704 35.8501 50.6704 35.9501 50.7704 35.9501C50.7704 35.9501 50.7704 35.9501 50.6704 35.8501C50.7704 35.9501 50.7704 35.9501 50.6704 35.8501C50.7704 35.9501 50.7704 35.8501 50.6704 35.8501Z" fill="#1E1E1E"/>
<path d="M72.8705 35.05C71.9705 33.15 69.6705 32.55 67.7705 32.55C67.1705 32.55 66.6705 32.85 66.2705 33.25C65.6705 33.25 65.0705 33.5501 64.6705 34.1501C63.5705 35.7501 63.0705 37.95 63.5705 39.75C64.1705 41.75 66.0705 42.9501 68.0705 43.1501C69.8705 43.3501 71.7705 42.3501 72.5705 40.6501C73.3705 38.9501 73.6705 36.85 72.8705 35.05ZM69.4705 38.6501C69.4705 38.7501 69.3705 38.95 69.3705 39.05C69.3705 39.05 69.3705 39.0501 69.3705 39.1501C69.2705 39.3501 69.3705 39.2501 69.3705 39.1501C69.3705 39.2501 69.2705 39.25 69.2705 39.25L69.1705 39.3501C69.1705 39.3501 69.1705 39.3501 69.0705 39.4501C69.0705 39.4501 68.9705 39.45 68.9705 39.55C68.9705 39.55 68.9705 39.55 68.8705 39.55C68.8705 39.55 68.7705 39.5501 68.6705 39.6501C68.6705 39.6501 68.7705 39.65 68.7705 39.55C68.6705 39.55 68.5705 39.5501 68.4705 39.6501C68.3705 39.6501 68.3705 39.6501 68.3705 39.6501C68.2705 39.6501 68.1705 39.6501 68.0705 39.6501C68.0705 39.6501 68.0705 39.6501 68.1705 39.6501H68.0705C68.0705 39.6501 68.0705 39.6501 67.9705 39.6501C67.8705 39.6501 67.8705 39.6501 67.8705 39.6501C67.7705 39.6501 67.6705 39.65 67.6705 39.55C67.5705 39.45 67.4705 39.4501 67.3705 39.3501C67.3705 39.3501 67.3705 39.35 67.2705 39.25L67.1705 39.1501C67.1705 39.1501 67.1705 39.15 67.1705 39.05C67.1705 39.05 67.1705 39.0501 67.1705 38.9501C67.1705 38.8501 67.1705 38.7501 67.0705 38.6501C67.0705 38.5501 67.0705 38.4501 67.0705 38.3501C67.0705 38.1501 67.0705 38.0501 67.0705 37.8501C67.0705 38.1501 67.0705 37.85 67.0705 37.75C67.0705 37.65 67.2705 36.75 67.3705 36.75C67.3705 36.75 67.1705 37.1501 67.3705 36.8501C67.3705 36.7501 67.4705 36.65 67.5705 36.55C67.6705 36.45 67.6705 36.35 67.7705 36.25C67.9705 36.25 68.2705 36.25 68.4705 36.25C68.4705 36.25 68.4705 36.25 68.5705 36.25C68.5705 36.25 68.5705 36.25 68.6705 36.25H68.7705C68.7705 36.25 68.7705 36.25 68.6705 36.25C68.7705 36.25 68.8705 36.2501 68.9705 36.3501C69.0705 36.3501 69.1705 36.4501 69.2705 36.4501H69.3705C69.3705 36.4501 69.4705 36.45 69.4705 36.55C69.4705 36.55 69.4705 36.55 69.5705 36.55C69.5705 36.65 69.6705 36.65 69.6705 36.75V36.8501C69.6705 36.8501 69.6705 36.8501 69.6705 36.9501C69.6705 37.0501 69.6705 37.2501 69.6705 37.3501C69.6705 37.4501 69.6705 37.5501 69.6705 37.6501V37.75C69.6705 38.05 69.5705 38.3501 69.4705 38.6501Z" fill="#1E1E1E"/>
<path d="M67.9705 39.4501C68.0705 39.5501 68.0705 39.5501 67.9705 39.4501C68.0705 39.4501 68.0705 39.4501 68.1705 39.4501C68.0705 39.5501 67.9705 39.4501 67.9705 39.4501Z" fill="#1E1E1E"/>
<path d="M68.8704 39.4501C68.9704 39.4501 68.9704 39.4501 68.8704 39.4501C68.9704 39.3501 68.9704 39.4501 68.8704 39.4501Z" fill="#1E1E1E"/>
<path d="M86.4705 8.85004C79.2705 4.95004 71.5705 1.95004 63.6705 0.0500376C61.3705 -0.449962 60.4705 2.95004 62.6705 3.45004C70.3705 5.35004 77.6705 8.15004 84.5705 11.95C86.6705 13.05 88.4705 9.95004 86.4705 8.85004Z" fill="#1E1E1E"/>
<path d="M14.7705 52.5501C9.67048 50.0501 5.57048 45.7501 3.57048 40.5501C3.27048 39.6501 2.37048 39.0501 1.37048 39.2501C0.470477 39.4501 -0.229523 40.5501 0.070477 41.4501C2.37048 47.6501 6.97048 52.7501 12.8705 55.6501C13.7705 56.0501 14.8705 55.8501 15.3705 55.0501C15.8705 54.1501 15.6705 52.9501 14.7705 52.5501Z" fill="#1E1E1E"/>
</svg>
