<svg width="65" height="57" viewBox="0 0 65 57" fill="none" xmlns="http://www.w3.org/2000/svg">
<path d="M35.5721 26.6483C32.4721 26.6483 32.4721 31.4483 35.5721 31.4483C38.6721 31.4483 38.7721 26.6483 35.5721 26.6483Z" fill="white"/>
<path d="M46.3721 17.2483C43.2721 17.2483 43.2721 22.0483 46.3721 22.0483C49.4721 22.0483 49.4721 17.2483 46.3721 17.2483Z" fill="white"/>
<path d="M22.6719 31.3483C19.5719 31.3483 19.5719 36.1483 22.6719 36.1483C25.7719 36.0483 25.7719 31.3483 22.6719 31.3483Z" fill="white"/>
<path d="M62.3719 11.1483C62.3719 10.9483 62.2719 10.8483 62.2719 10.6483C60.7719 6.24832 57.8719 2.54832 53.3719 1.04832C48.9719 -0.351679 44.3719 0.448319 39.9719 1.64832C39.2719 1.74832 38.6719 1.84832 38.0719 1.94832C37.4719 2.04832 37.0719 2.24832 36.6719 2.54832C34.5719 3.24832 32.3719 3.94832 30.2719 4.44832C27.8719 5.04832 25.3719 5.24832 22.8719 5.74832C18.8719 6.44832 15.1719 8.24832 12.0719 10.8483C9.07193 13.4483 6.27193 17.0483 5.77193 21.1483C5.17193 25.8483 7.17193 30.1483 9.37193 34.1483C11.7719 40.8483 18.7719 45.6483 25.7719 46.4483C27.2719 46.6483 28.5719 46.4483 29.8719 46.0483C30.1719 46.1483 30.4719 46.3483 30.8719 46.5483C31.8719 47.1483 33.1719 47.4483 34.0719 48.2483C34.8719 48.9483 35.5719 49.8483 36.1719 50.7483C36.2719 50.9483 36.3719 51.1483 36.5719 51.3483C37.4719 53.1483 40.5719 51.8483 39.8719 49.9483C39.8719 49.8483 39.8719 49.7483 39.7719 49.6483C39.0719 47.6483 38.7719 45.2483 39.5719 43.2483C39.8719 42.4483 40.7719 41.8483 41.4719 41.0483C41.5719 40.9483 41.6719 40.7483 41.8719 40.6483C42.1719 40.6483 42.5719 40.5483 42.8719 40.5483C45.0719 40.0483 47.2719 38.9483 49.2719 37.9483C51.1719 37.0483 52.9719 35.9483 54.6719 34.7483C58.5719 32.6483 61.4719 29.2483 62.9719 25.1483C63.1719 24.5483 63.3719 23.8483 63.5719 23.1483C63.8719 22.2483 64.0719 21.2483 64.1719 20.2483C64.1719 17.1483 63.6719 13.9483 62.3719 11.1483ZM22.8719 35.9483C21.8719 36.2483 20.3719 35.5483 20.5719 34.3483C20.6719 33.8483 21.0719 33.5483 21.4719 33.1483C21.5719 33.0483 21.5719 33.0483 21.6719 32.9483V32.8483C21.6719 32.8483 21.6719 32.7483 21.6719 32.6483C21.5719 32.3483 21.7719 32.0483 22.0719 31.9483C22.1719 31.9483 22.1719 31.9483 22.2719 31.9483C22.3719 31.8483 22.4719 31.7483 22.5719 31.7483C22.9719 31.6483 23.3719 31.6483 23.6719 31.8483C23.9719 32.0483 24.1719 32.3483 24.2719 32.7483C24.6719 33.8483 24.1719 35.5483 22.8719 35.9483ZM36.6719 30.3483C36.3719 30.8483 35.7719 31.3483 35.1719 31.1483C34.2719 30.8483 34.1719 29.8483 34.1719 29.0483C34.1719 28.7483 34.1719 28.2483 34.3719 27.9483C34.4719 27.7483 34.6719 27.5483 34.8719 27.3483L34.9719 27.2483C34.9719 27.2483 34.9719 27.2483 34.9719 27.1483V27.0483C35.0719 26.7483 35.3719 26.5483 35.6719 26.6483C35.6719 26.6483 35.6719 26.6483 35.7719 26.6483C36.1719 26.8483 36.4719 27.0483 36.6719 27.4483C36.8719 27.7483 36.9719 28.1483 36.9719 28.5483C37.1719 29.0483 36.9719 29.7483 36.6719 30.3483ZM47.9719 19.6483V19.8483C47.8719 20.3483 47.7719 20.9483 47.4719 21.4483C47.0719 21.9483 46.4719 22.2483 45.7719 22.1483C45.0719 21.9483 44.6719 21.4483 44.5719 20.8483C44.4719 20.2483 44.4719 19.6483 44.6719 19.0483C44.8719 18.4483 45.2719 17.9483 45.8719 17.6483H45.9719C46.1719 17.5483 46.2719 17.4483 46.5719 17.4483C46.9719 17.4483 47.3719 17.7483 47.5719 18.1483C47.6719 18.3483 47.7719 18.5483 47.8719 18.7483C47.9719 19.0483 48.0719 19.3483 47.9719 19.6483Z" fill="#00A99D"/>
<path d="M40.272 28.6483C40.172 26.8483 39.272 25.2483 37.772 24.3483C37.272 24.0483 36.772 23.8483 36.172 23.7483C35.772 23.7483 35.472 23.7483 35.072 23.8483C34.572 23.9483 34.072 24.1483 33.572 24.4483C32.672 25.0483 32.072 25.8483 32.072 26.9483C32.072 27.3483 32.172 27.7483 32.472 28.0483C32.072 28.2483 31.772 28.6483 31.572 29.1483C30.972 30.8483 31.772 32.9483 33.372 33.8483C35.072 34.8483 36.972 34.4483 38.472 33.2483C39.672 32.0483 40.372 30.2483 40.272 28.6483ZM36.572 29.0483V29.1483C36.572 29.2483 36.572 29.3483 36.472 29.3483C36.472 29.4483 36.472 29.5483 36.372 29.6483C36.372 29.7483 36.272 29.8483 36.172 29.9483C36.172 29.9483 36.172 30.0483 36.072 30.0483C35.972 30.1483 35.872 30.2483 35.772 30.3483C35.772 30.3483 35.672 30.3483 35.672 30.4483C35.672 30.4483 35.572 30.4483 35.472 30.4483H35.272H35.172C35.172 30.4483 35.172 30.4483 35.072 30.4483C35.072 30.4483 35.072 30.4483 34.972 30.4483C34.972 30.4483 34.972 30.4483 34.972 30.3483V30.2483V30.1483C34.972 30.0483 35.072 29.9483 35.072 29.9483C35.272 29.4483 35.072 28.7483 34.672 28.3483C34.972 28.2483 35.272 27.9483 35.372 27.6483C35.472 27.5483 35.472 27.3483 35.572 27.2483H35.672C35.772 27.2483 35.772 27.3483 35.872 27.3483C35.972 27.4483 35.972 27.4483 36.072 27.5483C36.072 27.6483 36.172 27.7483 36.172 27.7483C36.172 27.7483 36.272 27.8483 36.272 27.9483V28.0483C36.272 28.1483 36.372 28.2483 36.372 28.3483V28.4483V29.0483H36.572Z" fill="#1E1E1E"/>
<path d="M26.472 30.4483C24.972 29.5483 23.172 29.4483 21.472 29.5483C20.972 29.5483 20.472 29.6483 20.172 29.9483C19.772 30.2483 19.472 30.6483 19.072 30.9483C18.772 31.3483 18.372 31.6483 18.172 32.1483C17.972 32.5483 17.772 32.9483 17.672 33.3483C17.372 34.1483 17.272 35.0483 17.572 35.8483C17.872 36.8483 18.672 37.5483 19.572 38.0483C20.372 38.4483 21.272 38.8483 22.172 38.8483C23.972 38.8483 25.672 37.8483 26.472 36.3483C27.372 34.7483 27.572 32.7483 26.872 31.1483C26.772 30.8483 26.672 30.6483 26.472 30.4483ZM23.672 33.4483C23.572 33.7483 23.572 33.9483 23.472 34.2483C23.472 34.3483 23.372 34.3483 23.372 34.4483C23.372 34.5483 23.272 34.5483 23.272 34.6483C23.172 34.7483 23.072 34.8483 22.972 34.9483C22.872 34.9483 22.872 35.0483 22.772 35.0483H22.672C22.572 35.0483 22.472 35.0483 22.372 35.1483C22.272 35.1483 22.172 35.1483 22.072 35.1483C22.072 35.1483 21.972 35.1483 21.872 35.1483C21.672 35.0483 21.472 34.9483 21.272 34.8483C21.272 34.8483 21.172 34.8483 21.172 34.7483C21.172 34.6483 21.172 34.5483 21.272 34.4483L21.372 34.3483C21.372 34.3483 21.372 34.2483 21.472 34.2483C21.472 34.2483 21.472 34.2483 21.572 34.1483C21.572 34.1483 21.672 34.1483 21.672 34.0483C22.172 33.7483 22.572 33.1483 22.572 32.5483H22.672C22.972 32.5483 23.272 32.5483 23.572 32.5483C23.672 32.5483 23.772 32.5483 23.872 32.6483V32.7483C23.672 32.9483 23.672 33.2483 23.672 33.4483Z" fill="#1E1E1E"/>
<path d="M52.672 4.34829C50.372 2.24829 47.472 0.748287 43.972 0.248287C40.272 -0.251713 36.372 0.0482873 32.772 0.748287C25.372 2.14829 17.972 5.04829 11.772 9.34829C5.372 13.7483 0.672 20.2483 0.072 28.1483C-0.128 30.2483 -0.128 38.3483 3.072 38.5483C3.972 38.6483 4.772 37.7483 4.972 36.9483C5.372 35.5483 4.872 34.0483 4.672 32.6483C4.472 31.0483 4.472 29.4483 4.672 27.8483C5.172 23.2483 7.072 18.5483 10.472 15.2483C14.072 11.7483 19.172 9.54829 23.872 7.84829C27.172 6.74829 30.672 5.84829 34.072 5.14829C37.372 4.44829 40.772 3.54829 44.172 4.04829C52.272 5.24829 55.472 14.1483 55.372 21.3483C55.272 29.8483 49.872 38.9483 40.572 39.8483C39.472 39.9483 38.972 40.7483 38.872 41.5483C38.672 41.8483 38.472 42.2483 38.472 42.6483C38.672 45.7483 38.372 48.5483 37.572 51.4483C36.172 49.0483 34.572 46.8483 32.872 44.7483C32.372 44.1483 31.272 44.0483 30.572 44.5483C23.072 46.7483 13.672 46.4483 8.772 39.5483C7.472 37.6483 4.272 39.4483 5.672 41.3483C11.372 49.5483 21.972 50.7483 30.972 48.1483C30.972 48.2483 31.072 48.2483 31.072 48.3483C31.172 48.4483 31.172 48.5483 31.272 48.6483C31.372 48.8483 31.572 49.0483 31.672 49.1483C32.172 49.8483 32.772 50.6483 33.272 51.4483C34.272 52.9483 35.172 54.5483 35.972 56.1483C36.372 56.9483 37.672 57.2483 38.472 56.7483C38.872 56.4483 39.172 56.0483 39.272 55.6483C39.672 55.4483 40.072 55.0483 40.272 54.5483C41.672 50.9483 42.272 47.0483 42.072 43.2483C49.872 41.8483 55.872 35.8483 57.972 28.2483C60.472 19.9483 58.772 9.94829 52.672 4.34829Z" fill="#1E1E1E"/>
<path d="M51.0721 18.1483C50.8721 16.9483 50.2721 16.0483 49.2721 15.4483C48.4721 14.8483 47.3721 14.4483 46.3721 14.5483C45.5721 14.5483 44.6721 15.1483 44.5721 16.0483C44.2721 15.9483 43.8721 15.9483 43.5721 16.0483C43.0721 16.2483 42.7721 16.4483 42.4721 16.8483C41.4721 18.1483 41.5721 20.1483 42.1721 21.5483C42.7721 23.0483 44.0721 24.3483 45.7721 24.6483C46.7721 24.8483 47.6721 24.7483 48.5721 24.2483C49.2721 23.8483 49.8721 23.2483 50.2721 22.5483C50.5721 21.9483 50.8721 21.2483 50.9721 20.5483C51.0721 19.7483 51.1721 18.9483 51.0721 18.1483ZM47.1721 20.5483C47.1721 20.6483 47.0721 20.6483 47.0721 20.7483C47.1721 20.7483 47.1721 20.6483 47.1721 20.5483C47.1721 20.6483 47.1721 20.6483 47.0721 20.6483C47.0721 20.7483 46.9721 20.8483 46.9721 20.8483L46.8721 20.9483C46.8721 20.9483 46.7721 20.9483 46.6721 20.9483C46.5721 20.9483 46.4721 20.9483 46.4721 20.9483C46.3721 20.9483 46.3721 20.9483 46.2721 20.9483C46.2721 20.9483 46.2721 20.9483 46.3721 20.9483C46.3721 20.9483 46.2721 20.9483 46.2721 20.8483C46.1721 20.8483 46.1721 20.8483 46.1721 20.8483C46.1721 20.8483 46.0721 20.7483 45.9721 20.7483C45.9721 20.6483 45.8721 20.6483 45.7721 20.5483C45.7721 20.4483 45.6721 20.4483 45.6721 20.3483C45.6721 20.3483 45.5721 20.2483 45.5721 20.1483C45.4721 19.8483 45.4721 19.6483 45.3721 19.3483C45.3721 19.1483 45.3721 18.9483 45.3721 18.8483C45.3721 18.7483 45.3721 18.6483 45.4721 18.5483C45.4721 18.4483 45.5721 18.3483 45.5721 18.3483C45.6721 18.1483 45.7721 17.9483 45.7721 17.7483C45.9721 17.8483 46.1721 17.8483 46.3721 17.8483C46.4721 17.8483 46.4721 17.8483 46.5721 17.8483C46.6721 17.8483 46.6721 17.8483 46.7721 17.8483C46.8721 17.9483 47.0721 18.0483 47.1721 18.0483C47.2721 18.1483 47.3721 18.1483 47.4721 18.2483C47.4721 18.2483 47.4721 18.2483 47.4721 18.3483C47.4721 18.5483 47.4721 18.7483 47.4721 18.9483C47.4721 19.2483 47.3721 19.4483 47.2721 19.7483C47.2721 20.2483 47.2721 20.4483 47.1721 20.5483Z" fill="#1E1E1E"/>
</svg>
