<svg width="150" height="93" viewBox="0 0 150 93" fill="none" xmlns="http://www.w3.org/2000/svg">
<path d="M130.894 92.1329C127.806 92.1329 125.302 92.0626 123 91.9121C122.12 91.852 121.462 91.1396 121.526 90.3068C121.589 89.4741 122.342 88.852 123.223 88.9122C125.451 89.0627 127.881 89.1229 130.894 89.1229H131.594C131.594 89.1229 131.594 89.1229 131.604 89.1229C132.485 89.1229 133.196 89.7952 133.196 90.6179C133.196 91.4506 132.485 92.1228 131.615 92.1329H130.894ZM140.06 91.7215C139.286 91.7215 138.607 91.1797 138.49 90.4373C138.363 89.6146 138.967 88.852 139.837 88.7316C142.819 88.3203 145.153 87.4875 146.967 86.2033C147.667 85.7016 148.664 85.8421 149.195 86.5043C149.725 87.1665 149.577 88.1096 148.876 88.6112C146.627 90.1965 143.816 91.2098 140.304 91.7015C140.219 91.7115 140.145 91.7215 140.06 91.7215ZM114.714 90.7985C114.598 90.7985 114.481 90.7884 114.354 90.7583C111.192 90.0761 108.465 89.133 106.004 87.8788C105.23 87.4875 104.943 86.5745 105.357 85.8421C105.771 85.1097 106.736 84.8388 107.511 85.2301C109.717 86.3538 112.189 87.1966 115.064 87.8287C115.924 88.0092 116.454 88.8219 116.263 89.6346C116.094 90.3269 115.436 90.7985 114.714 90.7985ZM100.19 83.083C99.7339 83.083 99.2777 82.8923 98.9594 82.5311C97.8136 81.2068 96.9754 79.8222 96.498 78.4075C96.0843 77.1835 95.8721 75.8491 95.8721 74.324V74.1535C95.8827 73.3207 96.5935 72.6184 97.4741 72.6585C98.3547 72.6686 99.0549 73.3508 99.0549 74.1735V74.314C99.0549 75.528 99.2034 76.5614 99.5217 77.4744C99.8824 78.5279 100.519 79.5814 101.421 80.6148C101.983 81.2569 101.877 82.2101 101.198 82.7318C100.901 82.9626 100.54 83.083 100.19 83.083ZM98.5881 67.7322C98.482 67.7322 98.3653 67.7222 98.2486 67.7021C97.3892 67.5316 96.8481 66.7289 97.0285 65.9162C97.6438 63.2374 98.4608 60.5786 99.4686 58.0101C99.7763 57.2275 100.689 56.8362 101.516 57.1272C102.344 57.4181 102.758 58.281 102.45 59.0636C101.495 61.4916 100.721 64.02 100.137 66.5584C99.9885 67.2506 99.3201 67.7322 98.5881 67.7322ZM104.423 52.7126C104.179 52.7126 103.935 52.6624 103.702 52.5521C102.917 52.1708 102.609 51.2678 103.002 50.5254C103.638 49.3314 104.296 48.1575 104.954 46.9736C105.611 45.7897 106.28 44.6058 106.916 43.4018C107.32 42.6594 108.274 42.3684 109.06 42.7396C109.845 43.1209 110.152 44.0239 109.76 44.7663C109.113 45.9703 108.444 47.1743 107.776 48.3783C107.129 49.5421 106.471 50.716 105.845 51.8899C105.569 52.4116 105.007 52.7126 104.423 52.7126ZM32.6932 52.0805C32.428 52.0805 32.1734 52.0805 31.9187 52.0705C31.0382 52.0504 30.3486 51.3581 30.3698 50.5254C30.391 49.6926 31.123 49.0605 32.0036 49.0605C34.4544 49.1207 36.6399 48.8599 38.4966 48.2579C38.8785 48.1375 39.2392 47.997 39.5999 47.8465C40.4062 47.5054 41.3399 47.8465 41.7006 48.609C42.0613 49.3716 41.7006 50.2545 40.8943 50.5956C40.4487 50.7862 39.9925 50.9568 39.5257 51.1073C37.5099 51.7594 35.2713 52.0805 32.6932 52.0805ZM23.5479 51.0872C23.4419 51.0872 23.3252 51.0772 23.2191 51.0571C20.2697 50.4752 17.4476 49.6625 14.8377 48.6391C14.0207 48.3281 13.6388 47.4452 13.9677 46.6726C14.2966 45.9001 15.2302 45.5389 16.0471 45.8499C18.4873 46.793 21.1184 47.5556 23.8768 48.1074C24.7362 48.2779 25.2879 49.0806 25.1075 49.8933C24.9484 50.5956 24.28 51.0872 23.5479 51.0872ZM46.8886 45.8399C46.5279 45.8399 46.1565 45.7195 45.8595 45.4787C45.1911 44.9369 45.1168 43.9837 45.6791 43.3517C47.2175 41.646 48.6709 39.5491 50.1138 36.9304C50.517 36.198 51.4824 35.9071 52.2569 36.2983C53.0314 36.6796 53.3391 37.5926 52.9253 38.325C51.3657 41.1444 49.7849 43.4319 48.0874 45.3081C47.7798 45.6593 47.3342 45.8399 46.8886 45.8399ZM7.99461 44.9269C7.67632 44.9269 7.35805 44.8366 7.0822 44.656C4.57839 42.9804 2.39286 41.0541 0.568043 38.917C0.0163551 38.2648 0.122448 37.3217 0.812058 36.8C1.49106 36.2783 2.49895 36.3786 3.05064 37.0308C4.68448 38.9471 6.65783 40.6929 8.91762 42.1978C9.63906 42.6794 9.80881 43.6125 9.29956 44.2948C8.98128 44.7061 8.49325 44.9269 7.99461 44.9269ZM111.786 38.2548C111.606 38.2548 111.425 38.2247 111.256 38.1645C110.428 37.8836 109.993 37.0207 110.29 36.2382C111.256 33.6697 111.882 31.1614 112.147 28.7935C112.232 27.9608 113.027 27.3688 113.897 27.4491C114.767 27.5294 115.404 28.2718 115.319 29.1046C115.033 31.7132 114.354 34.4522 113.303 37.2515C113.049 37.8736 112.444 38.2548 111.786 38.2548ZM55.1215 31.8637C54.8987 31.8637 54.6759 31.8236 54.4637 31.7333C53.6574 31.3921 53.3072 30.4992 53.668 29.7467C54.7395 27.4993 56.002 24.8906 57.4343 22.4225C57.8587 21.6901 58.8241 21.4192 59.5986 21.8205C60.3731 22.2218 60.6489 23.1348 60.2352 23.8673C58.8666 26.2351 57.6359 28.7835 56.5855 30.9808C56.3097 31.5326 55.7262 31.8637 55.1215 31.8637ZM113.144 22.5028C112.444 22.5028 111.797 22.0613 111.606 21.3891C111.372 20.5864 111.086 19.7938 110.736 19.0513C110.057 17.6066 109.123 16.232 107.967 14.9779C107.394 14.3458 107.458 13.4027 108.126 12.8509C108.784 12.3091 109.792 12.3693 110.375 13.0014C111.744 14.4863 112.847 16.1116 113.653 17.8373C114.067 18.7203 114.417 19.6533 114.693 20.6165C114.926 21.4192 114.417 22.2419 113.568 22.4626C113.42 22.4827 113.282 22.5028 113.144 22.5028ZM63.5559 17.9979C63.1952 17.9979 62.8239 17.8775 62.5268 17.6367C61.8584 17.0949 61.7735 16.1518 62.3464 15.5197C63.418 14.3257 64.5744 13.2321 65.7626 12.279C66.7918 11.4562 67.9164 10.6837 69.1046 9.98137C69.8473 9.53991 70.8339 9.76064 71.3008 10.463C71.7676 11.1653 71.5342 12.0984 70.7915 12.5298C69.7306 13.1518 68.7333 13.8341 67.8209 14.5665C66.7599 15.4193 65.7308 16.3926 64.776 17.4561C64.4471 17.8173 64.0015 17.9979 63.5559 17.9979ZM102.503 10.5934C102.259 10.5934 102.004 10.5432 101.771 10.4228C100.88 9.99141 99.9567 9.61014 99.0231 9.29912C97.5059 8.78742 95.8827 8.40616 94.2064 8.15534C93.3364 8.0249 92.7423 7.26239 92.8802 6.43967C93.0181 5.61695 93.8351 5.05509 94.6944 5.18552C96.5723 5.45642 98.3971 5.88784 100.105 6.46976C101.177 6.83096 102.227 7.26239 103.235 7.75401C104.02 8.13527 104.328 9.03826 103.925 9.78071C103.638 10.2924 103.086 10.5934 102.503 10.5934ZM77.677 9.50981C76.998 9.50981 76.3614 9.08842 76.1599 8.4463C75.9052 7.65368 76.3826 6.81089 77.2208 6.5701C78.8122 6.10857 80.4885 5.73734 82.2072 5.44638C83.4379 5.24572 84.6686 5.08519 85.8568 4.98486C86.7268 4.90459 87.5013 5.51662 87.5862 6.34937C87.671 7.18212 87.0238 7.91454 86.1433 7.98477C85.0399 8.07507 83.8941 8.22557 82.7589 8.4162C81.1675 8.67706 79.6185 9.02822 78.1438 9.44961C77.9847 9.48975 77.8255 9.50981 77.677 9.50981Z" fill="#1E1E1E"/>
<path d="M106.464 0.199065C104.671 -0.734019 103.058 1.86457 104.862 2.79765C115.662 8.40619 122.293 19.9042 121.476 31.5226C121.338 33.459 124.521 33.449 124.659 31.5226C125.539 18.9009 118.187 6.28919 106.464 0.199065Z" fill="#00A99D"/>
<path d="M46.3119 56.9667C47.0227 56.5052 47.3092 55.6222 46.8317 54.8999C46.3967 54.2377 45.357 53.9367 44.6462 54.4082C40.4449 57.1573 34.8325 57.9499 30.0159 56.2142C29.2096 55.9232 28.3078 56.0537 27.8622 56.8262C27.4909 57.4683 27.703 58.572 28.5094 58.8629C34.3763 60.9799 41.1133 60.3679 46.3119 56.9667Z" fill="#FBB03B"/>
</svg>
