<svg width="39" height="34" viewBox="0 0 39 34" fill="none" xmlns="http://www.w3.org/2000/svg">
<path d="M1.57732 12.0377C1.03328 12.2726 0.740919 12.8911 0.914489 13.4724L1.16904 14.321C1.70329 16.0764 2.25544 17.8931 2.97321 19.5951C3.22682 20.2023 3.92339 20.4801 4.52861 20.2274L4.53587 20.2242C5.13069 19.9674 5.40927 19.2771 5.15567 18.6699C4.48819 17.0844 3.95391 15.329 3.43441 13.6277L3.17671 12.7718C2.98429 12.1468 2.32059 11.7858 1.69748 11.9772C1.6571 12.0032 1.61359 12.022 1.57732 12.0377ZM7.06433 23.329C6.91925 23.3917 6.78673 23.4835 6.67405 23.6012C6.2296 24.0867 6.24603 24.8223 6.72112 25.2647C6.73152 25.2689 6.76486 25.3063 6.7784 25.3177C8.3693 26.7895 10.3967 27.8569 12.7855 28.466C13.4214 28.6232 14.0656 28.2414 14.224 27.6117C14.3792 26.9748 13.9968 26.3282 13.3681 26.1679C11.3668 25.6592 9.68693 24.7784 8.369 23.5601C8.00537 23.2163 7.49232 23.1442 7.06433 23.329ZM24.4909 23.325C24.4764 23.3312 24.4692 23.3343 24.4547 23.3406C23.4113 23.8343 22.3701 24.353 21.3529 24.8873C20.4154 25.3871 19.6064 25.8056 18.8539 26.096C18.2216 26.3258 17.9462 27.0233 18.1821 27.6295C18.4212 28.243 19.1096 28.5416 19.7138 28.3065C20.5679 27.9723 21.4535 27.5121 22.4563 26.9841C23.4373 26.4655 24.4494 25.9593 25.4565 25.4813C26.0492 25.1994 26.3038 24.4936 26.0212 23.899C25.7584 23.3303 25.0713 23.0744 24.4909 23.325ZM30.3151 20.8876C29.742 21.1351 29.4581 21.7931 29.6733 22.391C29.8979 23.0107 30.5853 23.327 31.1927 23.0992C33.1331 22.3908 35.1226 21.7562 37.1208 21.2215C37.7565 21.0592 38.1255 20.399 37.9548 19.7646C37.7842 19.1303 37.1318 18.7557 36.4993 18.9252C34.4399 19.4777 32.382 20.1333 30.3763 20.8698C30.3586 20.8688 30.3369 20.8782 30.3151 20.8876Z" fill="#1E1E1E"/>
</svg>
