<svg width="55" height="58" viewBox="0 0 55 58" fill="none" xmlns="http://www.w3.org/2000/svg">
<path d="M4.52378 25.0927C4.72422 25.9013 8.60791 25.915 9.53705 25.7942C10.3877 25.6858 12.6917 23.899 12.4809 23.0863C11.2743 18.2984 11.0385 14.0835 14.6913 10.5934C15.3032 10.0094 15.556 7.57572 14.9324 6.87116C13.9096 3.77221 9.7091 5.28392 9.09721 5.868C4.64503 10.118 3.03122 19.1684 4.52378 25.0927Z" fill="#00A99D"/>
<path d="M23.0477 1.76406C22.5385 1.93462 22.2096 2.36605 22.146 2.84764C22.0717 3.38943 22.3475 3.97135 22.8462 4.32251C23.3236 4.66364 23.9283 4.73387 24.48 4.50311C32.3946 1.30253 40.9458 6.33918 44.6484 13.0614C48.2768 19.6432 47.4069 27.3988 42.4735 32.3451C41.2747 33.5491 39.9379 34.5324 38.495 35.2648C37.7099 35.6661 36.8612 35.8969 35.97 36.1477C35.1318 36.3785 34.2619 36.6193 33.4555 37.0106C32.1188 37.6527 31.514 38.7965 30.9199 40.1108L30.8138 40.3516C30.4955 41.084 30.2727 41.5355 29.7104 41.6659C29.0845 41.8164 28.1296 41.4653 27.3552 41.1844C27.1111 41.0941 26.8883 41.0138 26.6868 40.9436L20.2681 38.8868C19.9816 38.7965 19.6634 38.7062 19.3132 38.6058C17.5521 38.1042 15.1225 37.4219 14.9104 35.8066C14.8361 35.2347 15.0164 34.6929 15.218 34.121C15.5151 33.2682 15.844 32.305 15.2392 31.1913C14.7724 30.3184 14.0404 29.586 13.3296 28.8837C12.7354 28.2917 12.1731 27.7399 11.7594 27.1078C9.49957 23.6865 8.76753 19.583 9.76481 15.8406C10.3059 13.7938 11.2713 11.9076 12.6399 10.2421C14.4435 8.02475 16.2047 6.78064 17.8385 6.51977C18.3902 6.43951 18.8146 6.11845 18.995 5.66696C19.2072 5.14523 19.0798 4.52317 18.6979 4.06165C18.3266 3.63022 17.7643 3.42956 17.1702 3.51986C12.7885 4.19208 9.27678 8.707 7.6005 12.3591C5.83934 16.2118 5.62715 20.7167 7.0382 24.6999C7.7172 26.6262 8.70387 28.4121 9.977 30.0174C10.4014 30.5392 10.8682 31.0107 11.3244 31.4622C11.5472 31.693 11.7806 31.9137 12.0034 32.1445C12.4702 32.6361 12.3323 33.1177 12.0458 33.9203C11.9291 34.2414 11.8124 34.5825 11.7488 34.9337C10.9849 39.4988 16.6397 41.1041 20.3742 42.1776C20.9577 42.3482 21.4988 42.4987 21.9762 42.6492C22.5809 42.8398 23.2069 43.0706 23.8328 43.3114C25.594 43.9635 27.4188 44.6358 29.233 44.7261C29.9545 44.7562 30.6122 44.6458 31.217 44.395C31.705 44.1843 32.14 43.8833 32.5431 43.4819C32.9887 43.0305 33.3813 42.4586 33.6996 41.7763C33.7738 41.6158 33.8481 41.4352 33.9224 41.2646C34.177 40.6426 34.4422 40.0004 34.9833 39.7095C35.4395 39.4687 36.0442 39.3282 36.6278 39.1978C37.0627 39.0975 37.5083 38.9971 37.9115 38.8567C39.853 38.1644 41.6672 37.141 43.301 35.8266C48.1707 31.8836 50.6215 25.964 50.0062 19.603C49.8046 17.5362 49.2953 15.5195 48.4678 13.5831C46.2292 8.30568 41.6884 3.90112 36.3413 1.80419C31.8854 0.0684502 27.2915 0.0483868 23.0477 1.76406Z" fill="#1E1E1E"/>
<path d="M31.0896 49.0001C31.1003 48.7393 31.1215 48.4784 31.1639 48.2276C31.1533 47.9968 31.1109 47.7661 31.0154 47.5353C30.4743 46.241 29.042 45.9099 27.8856 45.639L27.5673 45.5588C26.0608 45.1976 24.4482 44.716 22.6128 44.0939C20.8304 43.4919 19.1117 42.8398 17.2126 42.1174L17.1065 42.0773C15.5894 41.5054 14.1571 40.9535 13.1916 39.7997C12.6399 39.1476 11.77 39.0573 11.0698 39.579C10.4226 40.0706 10.0831 41.0137 10.7515 41.8164C12.4065 43.7929 15.1544 44.7461 17.5733 45.5788C18.0507 45.7394 18.5175 45.8999 18.9631 46.0705C19.2814 46.1908 19.5997 46.3012 19.9074 46.4116L19.8013 46.3815C19.5148 46.3112 19.2178 46.2209 18.8995 46.1407C17.6688 45.7996 16.279 45.4083 15.0695 45.5588C14.2632 45.6591 13.6054 46.1006 13.3083 46.7226C13.0325 47.3346 13.128 48.057 13.5842 48.6791C14.5709 50.0235 16.2153 50.8663 17.5415 51.5485C18.8676 52.2308 20.1938 52.903 21.5306 53.5752L22.7719 54.2073C23.2918 54.4682 23.801 54.4481 24.2148 54.2675C24.5755 54.117 24.8726 53.8361 25.0529 53.515C25.4667 52.7726 25.2227 51.99 24.4482 51.5987L20.9683 49.8228C22.1353 50.1138 23.2918 50.3747 24.4482 50.5653L24.6073 50.5954C26.0502 50.8362 27.684 51.0971 29.1375 50.7058C29.9544 50.4951 30.6122 49.9934 30.9623 49.3413C31.0154 49.2309 31.0578 49.1105 31.0896 49.0001Z" fill="#1E1E1E"/>
<path d="M19.4088 53.4347C18.6979 53.4146 16.9686 53.515 16.1941 54.8494C15.8122 55.5116 15.8971 56.5049 16.714 56.9463C17.1065 57.1671 17.6052 57.2273 18.0508 57.1069C18.4115 57.0166 18.7086 56.8059 18.9101 56.5249C18.942 56.5149 18.9738 56.5049 19.0162 56.4948C19.1011 56.4948 19.186 56.4848 19.2815 56.4948C19.4512 56.4948 19.621 56.5149 19.8013 56.535C20.1514 56.6052 20.4591 56.6955 20.7243 56.8059C20.8517 56.8661 20.979 56.9263 21.0851 56.9965C21.4564 57.2172 21.9232 57.2774 22.3688 57.1771C22.4643 57.157 22.5598 57.1169 22.6552 57.0868C22.9417 56.9664 23.1751 56.7657 23.3342 56.5049C23.7692 55.7524 23.5358 54.8193 22.8144 54.3979C21.7747 53.8059 20.597 53.4648 19.4088 53.4347Z" fill="#1E1E1E"/>
<path d="M20.8411 13.6133C20.5971 13.1317 20.1515 12.8307 19.621 12.7905C19.0269 12.7504 18.4221 13.0213 18.072 13.5029C17.7432 13.9544 17.7113 14.4962 17.9659 15.0079C19.4619 17.9877 20.3318 21.2685 20.4697 24.4892C20.6395 28.4523 19.9923 31.8535 18.6131 34.3317C18.3267 34.8434 18.3479 35.4153 18.6768 35.8969C19.0057 36.3986 19.5998 36.6995 20.1727 36.6795C20.353 36.6694 20.5228 36.6293 20.6713 36.5691C20.9578 36.4487 21.2018 36.218 21.3715 35.917C23.5358 32.0341 23.8329 27.5794 23.7056 24.5193C23.5358 20.7368 22.581 17.0647 20.8411 13.6133Z" fill="#1E1E1E"/>
<path d="M28.4269 38.1344C28.7876 37.9839 29.0846 37.6929 29.2544 37.2615C31.9173 30.3085 36.9037 24.1883 43.2799 20.0446C44.1711 19.4627 44.1923 18.4193 43.6937 17.737C43.2163 17.0748 42.3887 16.9343 41.6885 17.3858C34.4848 22.0713 29.1271 28.6129 26.1777 36.3184C25.8382 37.2113 26.4005 37.9237 27.1219 38.1745C27.5357 38.315 28.0131 38.315 28.4269 38.1344Z" fill="#1E1E1E"/>
<path d="M24.618 16.6833C25.297 16.914 26.0609 16.9843 26.846 16.904C28.0024 18.1381 29.7529 18.6999 31.3443 18.3688C32.0445 19.1213 32.9357 19.643 33.8694 19.8437C34.6438 20.0143 35.4289 19.8838 36.1504 19.5728C37.5614 18.9708 38.7178 17.6464 39.0361 16.3321C39.174 15.7803 39.0043 15.2385 38.5693 14.8572C38.1131 14.4559 37.4553 14.2954 36.9036 14.4659C36.4156 14.5964 36.0549 14.9877 35.9276 15.4993C35.8321 15.9107 35.4714 16.3522 34.9197 16.7435C34.6863 16.914 34.5802 16.9441 34.1876 16.6833C34.1346 16.6532 34.0922 16.613 34.0497 16.5829C34.8136 15.4191 35.0788 13.7937 33.9224 12.6499C33.1691 11.8974 31.9491 11.8372 31.0791 12.4994C31.0685 12.3289 31.0473 12.1683 31.0048 11.9978C30.8245 11.2453 30.3258 10.6935 29.562 10.4125C28.8299 10.1416 28.0873 10.2219 27.4083 10.6132C26.3261 11.2553 25.732 12.5496 25.6365 13.4927C25.6259 13.593 25.6259 13.6833 25.6153 13.7837C25.5728 13.7636 25.541 13.7335 25.5198 13.7034C25.2439 13.3422 25.1485 12.5396 25.2333 11.9978C25.2864 11.6366 25.1697 11.2654 24.8938 10.9543C24.5862 10.6132 24.1194 10.3824 23.6844 10.3724C22.8356 10.3423 22.146 10.9343 22.0187 11.8071C21.7322 13.6633 22.6234 16.001 24.618 16.6833Z" fill="#1E1E1E"/>
<path d="M47.1841 0.750546C46.8658 0.529817 46.4627 0.449552 46.0383 0.539851C45.5609 0.630149 45.1153 0.931142 44.8819 1.30237C44.4575 2.01472 44.6803 2.85751 45.4548 3.3993C48.192 5.32566 50.229 8.48611 51.6613 13.0612C51.831 13.603 52.2448 13.9943 52.8071 14.1147C53.1996 14.205 53.6134 14.1649 53.9635 14.0043C54.1651 13.914 54.3454 13.8037 54.494 13.6532C54.8759 13.2719 54.9926 12.7502 54.8335 12.2184C53.189 6.9711 50.6852 3.2187 47.1841 0.750546Z" fill="#1E1E1E"/>
</svg>
