<svg width="399" height="364" viewBox="0 0 399 364" fill="none" xmlns="http://www.w3.org/2000/svg">
<path d="M397.188 199.911C401.394 243.526 392.799 291.961 362.551 311.581C332.303 331.201 280.386 322.015 233.907 329.81C187.528 337.25 146.664 361.318 115.069 354.019C83.3453 346.499 60.9842 307.249 43.9063 268.817C27.1777 230.476 15.5931 192.715 16.0063 153.92C16.2853 114.894 28.4414 74.6083 54.3553 49.0994C80.3602 23.24 120.254 12.4006 159.482 5.56245C198.84 -1.05487 237.547 -3.66752 270.907 9.21698C304.267 22.1015 332.152 50.2623 354.253 83.931C376.574 117.47 393.217 156.17 397.188 199.911Z" fill="#F8F8F8"/>
<path d="M186.545 338.735C184.221 336.831 181.354 335.901 178.411 335.228C177.671 334.813 176.811 335.099 176.343 335.743C175.332 337.146 174.517 338.663 173.793 340.209C173.4 341.068 173.023 341.927 172.646 342.8C172.299 343.616 171.816 344.461 172.072 345.377C172.374 346.422 173.37 346.794 174.321 347.166C175.196 347.51 176.072 347.853 176.962 348.182C178.773 348.855 180.599 349.471 182.456 350.029C182.923 350.172 183.603 350.029 183.919 349.657C185.051 348.325 185.338 346.636 185.655 344.99C185.972 343.344 186.274 341.698 186.923 340.123C187.119 339.694 186.923 339.036 186.545 338.735ZM176.404 344.89C176.041 344.747 175.679 344.604 175.317 344.461C175.287 344.446 175.257 344.432 175.226 344.418C175.453 343.931 175.634 343.387 175.83 342.929C176.102 342.285 176.389 341.655 176.69 341.025C177.173 340.038 177.732 339.078 178.32 338.134C180.207 338.592 182.108 339.164 183.708 340.224C183.316 341.383 183.074 342.571 182.848 343.774C182.712 344.504 182.561 345.234 182.395 345.964C182.335 346.236 182.274 346.565 182.169 346.88C180.976 346.493 179.769 346.121 178.592 345.692C177.852 345.448 177.128 345.176 176.404 344.89Z" fill="#FBB03B"/>
<path d="M14.5454 208.304C12.2213 206.401 9.35379 205.47 6.41086 204.797C5.67135 204.382 4.81111 204.668 4.34326 205.313C3.33209 206.715 2.51713 208.233 1.79271 209.779C1.40032 210.638 1.02302 211.496 0.645719 212.37C0.298604 213.185 -0.18434 214.03 0.0722237 214.946C0.374063 215.991 1.37014 216.363 2.32093 216.735C3.19627 217.079 4.0716 217.422 4.96203 217.752C6.77307 218.424 8.5992 219.04 10.4555 219.598C10.9234 219.741 11.6025 219.598 11.9194 219.226C13.0513 217.895 13.3381 216.206 13.655 214.56C13.9719 212.913 14.2738 211.267 14.9227 209.693C15.1189 209.263 14.9227 208.605 14.5454 208.304ZM4.40362 214.459C4.04142 214.316 3.67921 214.173 3.317 214.03C3.28682 214.016 3.25663 214.001 3.22645 213.987C3.45283 213.5 3.63393 212.956 3.83013 212.498C4.10178 211.854 4.38853 211.224 4.69037 210.595C5.17332 209.607 5.73172 208.648 6.32031 207.703C8.2068 208.161 10.1084 208.734 11.7081 209.793C11.3158 210.952 11.0743 212.14 10.8479 213.343C10.7121 214.073 10.5612 214.803 10.3951 215.533C10.3348 215.805 10.2744 216.134 10.1688 216.449C8.97649 216.063 7.76914 215.69 6.59196 215.261C5.85246 215.018 5.12804 214.746 4.40362 214.459Z" fill="#FBB03B"/>
<path d="M189.545 55.7999C187.221 53.8961 184.354 52.9657 181.411 52.2929C180.671 51.8778 179.811 52.1641 179.343 52.8082C178.332 54.211 177.517 55.7283 176.793 57.2743C176.4 58.1331 176.023 58.992 175.646 59.8651C175.299 60.681 174.816 61.5256 175.072 62.4417C175.374 63.4866 176.37 63.8588 177.321 64.2309C178.196 64.5745 179.072 64.918 179.962 65.2472C181.773 65.92 183.599 66.5355 185.456 67.0938C185.923 67.2369 186.603 67.0938 186.919 66.7216C188.051 65.3904 188.338 63.7013 188.655 62.0552C188.972 60.4091 189.274 58.7629 189.923 57.1884C190.119 56.7589 189.923 56.1005 189.545 55.7999ZM179.404 61.955C179.041 61.8118 178.679 61.6687 178.317 61.5256C178.287 61.5112 178.257 61.4969 178.226 61.4826C178.453 60.9959 178.634 60.452 178.83 59.9939C179.102 59.3498 179.389 58.72 179.69 58.0902C180.173 57.1025 180.732 56.1434 181.32 55.1987C183.207 55.6568 185.108 56.2293 186.708 57.2886C186.316 58.448 186.074 59.6361 185.848 60.8385C185.712 61.5685 185.561 62.2985 185.395 63.0285C185.335 63.3005 185.274 63.6297 185.169 63.9447C183.976 63.5582 182.769 63.186 181.592 62.7566C180.852 62.5132 180.128 62.2413 179.404 61.955Z" fill="#FBB03B"/>
<path d="M233.367 357.228C233.81 354.255 233.128 351.354 232.185 348.529C232.16 347.686 231.467 347.121 230.666 347.077C228.928 346.989 227.191 347.127 225.478 347.356C224.531 347.492 223.591 347.64 222.64 347.796C221.754 347.946 220.772 347.998 220.112 348.708C219.364 349.525 219.558 350.559 219.729 351.556C219.886 352.474 220.042 353.391 220.219 354.314C220.576 356.193 220.99 358.053 221.469 359.907C221.588 360.376 222.064 360.867 222.551 360.931C224.29 361.159 225.901 360.486 227.49 359.862C229.08 359.238 230.661 358.601 232.361 358.294C232.834 358.226 233.302 357.706 233.367 357.228ZM222.779 352.069C222.716 351.688 222.652 351.308 222.588 350.928C222.584 350.895 222.581 350.862 222.578 350.829C223.117 350.755 223.681 350.613 224.18 350.53C224.878 350.409 225.572 350.309 226.274 350.221C227.379 350.091 228.499 350.04 229.622 350.022C230.204 351.848 230.694 353.748 230.607 355.659C229.4 355.957 228.246 356.396 227.088 356.857C226.385 357.137 225.675 357.405 224.957 357.661C224.69 357.757 224.374 357.885 224.047 357.966C223.763 356.76 223.459 355.549 223.22 354.332C223.048 353.582 222.907 352.829 222.779 352.069Z" fill="#DCDCDC"/>
<path d="M91.3667 266.93C91.8095 263.957 91.128 261.056 90.1843 258.23C90.1602 257.387 89.4663 256.822 88.666 256.779C86.9273 256.691 85.1912 256.829 83.4773 257.058C82.5303 257.193 81.5912 257.342 80.6397 257.498C79.7533 257.648 78.7718 257.7 78.1118 258.41C77.3638 259.227 77.5581 260.261 77.729 261.257C77.8855 262.175 78.042 263.093 78.2188 264.016C78.5755 265.894 78.9896 267.754 79.469 269.609C79.5877 270.078 80.0638 270.568 80.5503 270.633C82.2897 270.86 83.9005 270.188 85.4899 269.564C87.0793 268.94 88.6608 268.303 90.3604 267.995C90.8339 267.928 91.3021 267.408 91.3667 266.93ZM80.7792 261.77C80.7153 261.39 80.6514 261.01 80.5875 260.629C80.5842 260.596 80.581 260.563 80.5777 260.53C81.1164 260.457 81.6812 260.314 82.1795 260.231C82.8779 260.11 83.5719 260.01 84.2736 259.922C85.379 259.793 86.4988 259.742 87.6219 259.724C88.2036 261.55 88.6941 263.45 88.6067 265.36C87.3995 265.658 86.2458 266.098 85.0875 266.558C84.3851 266.839 83.6749 267.107 82.9568 267.362C82.6901 267.459 82.3738 267.586 82.0464 267.668C81.7627 266.462 81.4588 265.251 81.2201 264.034C81.0473 263.284 80.907 262.531 80.7792 261.77Z" fill="#00A99D"/>
<path d="M70.3669 28.1403C70.8098 25.1676 70.1283 22.2661 69.1846 19.4407C69.1604 18.5979 68.4665 18.0329 67.6663 17.9894C65.9276 17.9012 64.1915 18.0391 62.4775 18.2681C61.5306 18.4038 60.5914 18.5521 59.6399 18.7081C58.7536 18.8584 57.7721 18.9106 57.1121 19.6201C56.364 20.437 56.5584 21.4713 56.7292 22.4678C56.8857 23.3856 57.0423 24.3035 57.219 25.2262C57.5757 27.1047 57.9899 28.9649 58.4692 30.8194C58.5879 31.2881 59.064 31.7789 59.5505 31.843C61.2899 32.0708 62.9008 31.3983 64.4902 30.7743C66.0795 30.1502 67.661 29.5135 69.3606 29.2059C69.8341 29.1381 70.3024 28.6183 70.3669 28.1403ZM59.7795 22.9807C59.7156 22.6004 59.6516 22.22 59.5877 21.8397C59.5845 21.8067 59.5812 21.7737 59.5779 21.7408C60.1166 21.6673 60.6814 21.5249 61.1797 21.4416C61.8782 21.321 62.5721 21.2206 63.2738 21.1329C64.3793 21.0034 65.4991 20.9525 66.6221 20.9346C67.2039 22.7602 67.6943 24.6603 67.6069 26.5708C66.3997 26.8688 65.246 27.3086 64.0878 27.7687C63.3854 28.0494 62.6751 28.3175 61.9571 28.5729C61.6903 28.6694 61.374 28.7967 61.0466 28.8784C60.7629 27.6722 60.459 26.4612 60.2203 25.2444C60.0475 24.4943 59.9073 23.7414 59.7795 22.9807Z" fill="#DCDCDC"/>
<path d="M234.367 94.3595C234.81 91.3868 234.128 88.4854 233.185 85.66C233.16 84.8171 232.467 84.2521 231.666 84.2086C229.928 84.1205 228.191 84.2583 226.478 84.4873C225.531 84.623 224.591 84.7713 223.64 84.9273C222.754 85.0776 221.772 85.1298 221.112 85.8393C220.364 86.6563 220.558 87.6906 220.729 88.687C220.886 89.6049 221.042 90.5227 221.219 91.4455C221.576 93.3239 221.99 95.1841 222.469 97.0386C222.588 97.5073 223.064 97.9981 223.551 98.0622C225.29 98.2901 226.901 97.6176 228.49 96.9935C230.08 96.3695 231.661 95.7328 233.361 95.4251C233.834 95.3573 234.302 94.8375 234.367 94.3595ZM223.779 89.1999C223.716 88.8196 223.652 88.4393 223.588 88.0589C223.584 88.026 223.581 87.993 223.578 87.96C224.117 87.8865 224.681 87.7442 225.18 87.6609C225.878 87.5402 226.572 87.4399 227.274 87.3522C228.379 87.2227 229.499 87.1718 230.622 87.1538C231.204 88.9795 231.694 90.8796 231.607 92.79C230.4 93.0881 229.246 93.5278 228.088 93.9879C227.385 94.2686 226.675 94.5367 225.957 94.7922C225.69 94.8886 225.374 95.0159 225.047 95.0976C224.763 93.8915 224.459 92.6804 224.22 91.4636C224.048 90.7135 223.907 89.9606 223.779 89.1999Z" fill="#00A99D"/>
</svg>
