<svg width="386" height="399" viewBox="0 0 386 399" fill="none" xmlns="http://www.w3.org/2000/svg">
<path d="M306.507 54.9521C346.125 73.3933 383.406 105.35 384.957 141.454C386.508 177.558 352.33 217.829 335.501 261.992C318.417 305.888 318.417 353.429 296.149 377.072C273.625 400.714 228.568 400.192 186.889 395.513C145.464 390.578 107.143 381.485 74.0053 361.487C40.6028 341.49 12.1291 310.577 3.32195 275.241C-5.74053 239.65 5.13837 199.644 19.1199 162.24C33.3567 124.835 50.706 90.0219 78.6691 67.6797C106.632 45.3375 144.954 35.4667 185.082 33.3882C225.21 31.0535 266.9 36.245 306.507 54.9521Z" fill="#F8F8F8"/>
<path d="M163.367 219.168C163.81 216.195 163.128 213.293 162.185 210.468C162.16 209.625 161.467 209.06 160.666 209.017C158.928 208.929 157.191 209.066 155.478 209.295C154.531 209.431 153.591 209.579 152.64 209.735C151.754 209.886 150.772 209.938 150.112 210.647C149.364 211.464 149.558 212.499 149.729 213.495C149.886 214.413 150.042 215.331 150.219 216.254C150.576 218.132 150.99 219.992 151.469 221.847C151.588 222.315 152.064 222.806 152.551 222.87C154.29 223.098 155.901 222.426 157.49 221.802C159.08 221.178 160.661 220.541 162.361 220.233C162.834 220.165 163.302 219.646 163.367 219.168ZM152.779 214.008C152.716 213.628 152.652 213.247 152.588 212.867C152.584 212.834 152.581 212.801 152.578 212.768C153.117 212.695 153.681 212.552 154.18 212.469C154.878 212.348 155.572 212.248 156.274 212.16C157.379 212.031 158.499 211.98 159.622 211.962C160.204 213.788 160.694 215.688 160.607 217.598C159.4 217.896 158.246 218.336 157.088 218.796C156.385 219.077 155.675 219.345 154.957 219.6C154.69 219.697 154.374 219.824 154.047 219.906C153.763 218.7 153.459 217.488 153.22 216.272C153.047 215.522 152.907 214.769 152.779 214.008Z" fill="#DCDCDC"/>
<path d="M329.367 14.9269C329.81 11.9542 329.128 9.05275 328.185 6.22737C328.16 5.38449 327.467 4.81947 326.666 4.77603C324.928 4.68786 323.191 4.82568 321.478 5.05472C320.531 5.19038 319.591 5.33867 318.64 5.49469C317.754 5.64503 316.772 5.69721 316.112 6.40669C315.364 7.22364 315.558 8.25796 315.729 9.25441C315.886 10.1723 316.042 11.0901 316.219 12.0128C316.576 13.8913 316.99 15.7515 317.469 17.606C317.588 18.0747 318.064 18.5655 318.551 18.6296C320.29 18.8574 321.901 18.1849 323.49 17.5609C325.08 16.9368 326.661 16.3002 328.361 15.9925C328.834 15.9247 329.302 15.4049 329.367 14.9269ZM318.779 9.76732C318.716 9.38699 318.652 9.00666 318.588 8.62633C318.584 8.59334 318.581 8.56036 318.578 8.52738C319.117 8.45387 319.681 8.31156 320.18 8.22826C320.878 8.10758 321.572 8.00725 322.274 7.91955C323.379 7.79005 324.499 7.73915 325.622 7.72123C326.204 9.54684 326.694 11.4469 326.607 13.3574C325.4 13.6555 324.246 14.0952 323.088 14.5553C322.385 14.836 321.675 15.1041 320.957 15.3596C320.69 15.456 320.374 15.5833 320.047 15.665C319.763 14.4588 319.459 13.2478 319.22 12.031C319.047 11.2809 318.907 10.528 318.779 9.76732Z" fill="#DCDCDC"/>
<path d="M282.545 307.462C280.221 305.558 277.354 304.628 274.411 303.955C273.671 303.54 272.811 303.826 272.343 304.47C271.332 305.873 270.517 307.39 269.793 308.936C269.4 309.795 269.023 310.654 268.646 311.527C268.299 312.343 267.816 313.188 268.072 314.104C268.374 315.149 269.37 315.521 270.321 315.893C271.196 316.237 272.072 316.58 272.962 316.909C274.773 317.582 276.599 318.198 278.456 318.756C278.923 318.899 279.603 318.756 279.919 318.384C281.051 317.052 281.338 315.363 281.655 313.717C281.972 312.071 282.274 310.425 282.923 308.85C283.119 308.421 282.923 307.763 282.545 307.462ZM272.404 313.617C272.041 313.474 271.679 313.331 271.317 313.188C271.287 313.173 271.257 313.159 271.226 313.145C271.453 312.658 271.634 312.114 271.83 311.656C272.102 311.012 272.389 310.382 272.69 309.752C273.173 308.765 273.732 307.806 274.32 306.861C276.207 307.319 278.108 307.891 279.708 308.951C279.316 310.11 279.074 311.298 278.848 312.501C278.712 313.231 278.561 313.961 278.395 314.691C278.335 314.963 278.274 315.292 278.169 315.607C276.976 315.22 275.769 314.848 274.592 314.419C273.852 314.175 273.128 313.903 272.404 313.617Z" fill="#FBB03B"/>
<path d="M147.545 113.822C145.221 111.918 142.354 110.988 139.411 110.315C138.671 109.9 137.811 110.186 137.343 110.83C136.332 112.233 135.517 113.75 134.793 115.296C134.4 116.155 134.023 117.014 133.646 117.887C133.299 118.703 132.816 119.548 133.072 120.464C133.374 121.509 134.37 121.881 135.321 122.253C136.196 122.596 137.072 122.94 137.962 123.269C139.773 123.942 141.599 124.557 143.456 125.116C143.923 125.259 144.603 125.116 144.919 124.744C146.051 123.412 146.338 121.723 146.655 120.077C146.972 118.431 147.274 116.785 147.923 115.21C148.119 114.781 147.923 114.122 147.545 113.822ZM137.404 119.977C137.041 119.834 136.679 119.691 136.317 119.548C136.287 119.533 136.257 119.519 136.226 119.505C136.453 119.018 136.634 118.474 136.83 118.016C137.102 117.372 137.389 116.742 137.69 116.112C138.173 115.124 138.732 114.165 139.32 113.221C141.207 113.679 143.108 114.251 144.708 115.311C144.316 116.47 144.074 117.658 143.848 118.86C143.712 119.59 143.561 120.32 143.395 121.05C143.335 121.322 143.274 121.652 143.169 121.967C141.976 121.58 140.769 121.208 139.592 120.779C138.852 120.535 138.128 120.263 137.404 119.977Z" fill="#FBB03B"/>
<path d="M258.367 287.829C258.81 284.856 258.128 281.955 257.185 279.129C257.16 278.286 256.467 277.721 255.666 277.678C253.928 277.59 252.191 277.728 250.478 277.957C249.531 278.092 248.591 278.241 247.64 278.397C246.754 278.547 245.772 278.599 245.112 279.309C244.364 280.126 244.558 281.16 244.729 282.156C244.886 283.074 245.042 283.992 245.219 284.915C245.576 286.793 245.99 288.653 246.469 290.508C246.588 290.977 247.064 291.467 247.551 291.531C249.29 291.759 250.901 291.087 252.49 290.463C254.08 289.839 255.661 289.202 257.361 288.894C257.834 288.827 258.302 288.307 258.367 287.829ZM247.779 282.669C247.716 282.289 247.652 281.909 247.588 281.528C247.584 281.495 247.581 281.462 247.578 281.429C248.117 281.356 248.681 281.213 249.18 281.13C249.878 281.009 250.572 280.909 251.274 280.821C252.379 280.692 253.499 280.641 254.622 280.623C255.204 282.449 255.694 284.349 255.607 286.259C254.4 286.557 253.246 286.997 252.088 287.457C251.385 287.738 250.675 288.006 249.957 288.261C249.69 288.358 249.374 288.485 249.047 288.567C248.763 287.361 248.459 286.15 248.22 284.933C248.047 284.183 247.907 283.43 247.779 282.669Z" fill="#DCDCDC"/>
<path d="M142.367 360.068C142.81 357.095 142.128 354.193 141.185 351.368C141.16 350.525 140.467 349.96 139.666 349.917C137.928 349.828 136.191 349.966 134.478 350.195C133.531 350.331 132.591 350.479 131.64 350.635C130.754 350.786 129.772 350.838 129.112 351.547C128.364 352.364 128.558 353.399 128.729 354.395C128.886 355.313 129.042 356.231 129.219 357.154C129.576 359.032 129.99 360.892 130.469 362.747C130.588 363.215 131.064 363.706 131.551 363.77C133.29 363.998 134.901 363.326 136.49 362.702C138.08 362.078 139.661 361.441 141.361 361.133C141.834 361.065 142.302 360.546 142.367 360.068ZM131.779 354.908C131.716 354.528 131.652 354.147 131.588 353.767C131.584 353.734 131.581 353.701 131.578 353.668C132.117 353.595 132.681 353.452 133.18 353.369C133.878 353.248 134.572 353.148 135.274 353.06C136.379 352.931 137.499 352.88 138.622 352.862C139.204 354.687 139.694 356.588 139.607 358.498C138.4 358.796 137.246 359.236 136.088 359.696C135.385 359.977 134.675 360.245 133.957 360.5C133.69 360.597 133.374 360.724 133.047 360.806C132.763 359.6 132.459 358.388 132.22 357.172C132.047 356.422 131.907 355.669 131.779 354.908Z" fill="#00A99D"/>
<path d="M355.367 55.0594C355.81 52.0868 355.128 49.1853 354.185 46.3599C354.16 45.5171 353.467 44.952 352.666 44.9086C350.928 44.8204 349.191 44.9583 347.478 45.1873C346.531 45.323 345.591 45.4712 344.64 45.6273C343.754 45.7776 342.772 45.8298 342.112 46.5393C341.364 47.3562 341.558 48.3905 341.729 49.387C341.886 50.3048 342.042 51.2227 342.219 52.1454C342.576 54.0239 342.99 55.8841 343.469 57.7385C343.588 58.2073 344.064 58.6981 344.551 58.7622C346.29 58.99 347.901 58.3175 349.49 57.6935C351.08 57.0694 352.661 56.4327 354.361 56.1251C354.834 56.0573 355.302 55.5375 355.367 55.0594ZM344.779 49.8999C344.716 49.5196 344.652 49.1392 344.588 48.7589C344.584 48.7259 344.581 48.6929 344.578 48.6599C345.117 48.5864 345.681 48.4441 346.18 48.3608C346.878 48.2401 347.572 48.1398 348.274 48.0521C349.379 47.9226 350.499 47.8717 351.622 47.8538C352.204 49.6794 352.694 51.5795 352.607 53.49C351.4 53.788 350.246 54.2278 349.088 54.6879C348.385 54.9686 347.675 55.2367 346.957 55.4921C346.69 55.5885 346.374 55.7159 346.047 55.7976C345.763 54.5914 345.459 53.3803 345.22 52.1636C345.048 51.4135 344.907 50.6606 344.779 49.8999Z" fill="#00A99D"/>
</svg>
