<svg width="130" height="88" viewBox="0 0 130 88" fill="none" xmlns="http://www.w3.org/2000/svg">
<path d="M55.2821 87.1595C54.6137 87.1595 53.9877 86.7481 53.7649 86.116C53.4997 85.3234 53.9559 84.4806 54.7941 84.2198C55.6959 83.9489 56.4279 83.4572 56.9159 82.8151C57.4995 82.0426 57.7965 81.0092 57.7965 79.765C57.7965 79.6446 57.7965 79.5242 57.7858 79.4039C57.754 78.5711 58.433 77.8688 59.3136 77.8387C60.2048 77.7885 60.9368 78.4507 60.9687 79.2835C60.9793 79.444 60.9793 79.6045 60.9793 79.765C60.9793 81.6613 60.4806 83.2766 59.5152 84.5709C58.624 85.7448 57.3297 86.6177 55.7701 87.0993C55.611 87.1294 55.4412 87.1595 55.2821 87.1595ZM47.5266 85.1328C47.1128 85.1328 46.6991 84.9823 46.3808 84.6813C44.7788 83.1161 43.6012 81.0393 42.9858 78.6514C42.8055 77.9691 42.6782 77.2668 42.5933 76.5745C42.4978 75.7518 43.1237 75.0093 44.0043 74.909C44.8743 74.8287 45.6594 75.4107 45.7655 76.2434C45.8291 76.8153 45.9352 77.3872 46.0837 77.939C46.5612 79.7751 47.4736 81.4205 48.6618 82.5844C49.2772 83.1763 49.2559 84.1295 48.63 84.7114C48.3223 84.9923 47.9298 85.1328 47.5266 85.1328ZM2.28828 76.3237C1.47136 76.3237 0.771118 75.7317 0.707462 74.9491C0.633196 74.1164 1.2804 73.394 2.16097 73.3238C4.82392 73.1131 7.47624 72.5612 10.0225 71.6984C10.85 71.4175 11.7624 71.8188 12.0595 72.6014C12.3566 73.384 11.9322 74.2468 11.1047 74.5277C8.29318 75.4809 5.37559 76.0929 2.43679 76.3237C2.37314 76.3237 2.33072 76.3237 2.28828 76.3237ZM56.5764 73.3739C56.0672 73.3739 55.5685 73.1432 55.2608 72.7218C53.8285 70.7553 51.8658 69.0496 49.5636 67.7654C48.9482 67.4243 48.6725 66.752 48.821 66.13C48.0995 67.0129 47.4948 67.936 47.028 68.8891L46.9007 69.16C46.5506 69.9225 45.6063 70.2636 44.8 69.9326C43.9937 69.6015 43.633 68.7085 43.9831 67.946L44.1422 67.6249C45.3305 65.227 47.1447 63.0398 49.553 61.1134C50.2214 60.5716 51.2293 60.6519 51.7916 61.284C52.3645 61.9161 52.2796 62.8692 51.6006 63.401C50.9322 63.9428 50.3063 64.4946 49.7546 65.0765C50.2002 64.8959 50.7306 64.916 51.1762 65.1668C53.8604 66.6718 56.1838 68.6884 57.8707 71.0061C58.3694 71.6884 58.189 72.6315 57.4676 73.103C57.2023 73.2937 56.8841 73.3739 56.5764 73.3739ZM18.1599 71.0663C17.5976 71.0663 17.0565 70.7854 16.7701 70.2938C16.3457 69.5714 16.6215 68.6483 17.396 68.247C19.7937 66.9928 22.393 65.6885 25.1939 64.635C26.0108 64.3341 26.9338 64.7053 27.2627 65.4778C27.5916 66.2504 27.1884 67.1233 26.3715 67.4343C23.7298 68.4276 21.2366 69.6717 18.9343 70.8757C18.6797 71.0061 18.4145 71.0663 18.1599 71.0663ZM33.9466 65.4477C33.1721 65.4477 32.4932 64.906 32.3765 64.1635C32.2491 63.3408 32.8538 62.5783 33.7132 62.4579C36.7793 62.0264 39.8136 62.0064 42.6357 62.3977C43.5057 62.5181 44.1104 63.2806 43.9831 64.1033C43.8558 64.926 43.0389 65.4879 42.1795 65.3775C39.6651 65.0263 36.9491 65.0464 34.1906 65.4377C34.1057 65.4377 34.0209 65.4477 33.9466 65.4477ZM57.7858 59.5583C57.1811 59.5583 56.6082 59.2272 56.3324 58.6754C55.9716 57.9229 56.3217 57.0299 57.1175 56.6788C57.4888 56.5182 57.8708 56.3577 58.2421 56.2072C60.608 55.2641 62.9844 54.5016 65.223 53.7992C66.0612 53.5384 66.963 53.9698 67.2282 54.7624C67.4934 55.555 67.0478 56.3978 66.2097 56.6587C64.0348 57.341 61.7219 58.0734 59.4728 58.9764C59.1227 59.1168 58.7726 59.2673 58.4224 59.4078C58.2315 59.5181 58.0086 59.5583 57.7858 59.5583ZM73.7424 54.1002C73.1164 54.1002 72.5117 53.739 72.2677 53.1571C71.9388 52.3846 72.3313 51.5117 73.1483 51.2007C73.753 50.9699 74.3683 50.7291 74.9624 50.4783C76.9358 49.6455 78.7288 48.6823 80.299 47.6188C81.0204 47.1372 82.007 47.2978 82.5163 47.97C83.0255 48.6522 82.8558 49.5853 82.145 50.0669C80.405 51.2408 78.4211 52.2943 76.2674 53.2173C75.6308 53.4882 74.9837 53.7491 74.3365 53.9899C74.1349 54.0701 73.944 54.1002 73.7424 54.1002ZM87.0784 44.6189C86.7919 44.6189 86.5054 44.5487 86.2402 44.3982C85.4869 43.9668 85.2641 43.0337 85.7203 42.3314C86.1765 41.629 86.5691 40.8966 86.8768 40.1441C87.4603 38.7295 87.8104 37.1843 87.9483 35.4085C88.012 34.5757 88.7758 33.9637 89.6564 34.0139C90.537 34.0741 91.1948 34.7965 91.1311 35.6292C90.972 37.7061 90.5476 39.5421 89.8474 41.2377C89.4654 42.1508 88.9986 43.0537 88.4363 43.9066C88.1393 44.3681 87.6194 44.6189 87.0784 44.6189ZM89.1684 29.0174C88.3727 29.0174 87.6831 28.4455 87.5876 27.6829L87.4497 26.5693C87.1738 24.2616 86.8874 21.8737 86.8662 19.536C86.8555 18.7033 87.5664 18.031 88.4469 18.021H88.4576C89.3275 18.021 90.0384 18.6832 90.049 19.516C90.0702 21.6932 90.346 24.0008 90.6112 26.2382L90.7492 27.3619C90.8446 28.1846 90.2187 28.9371 89.3487 29.0274C89.2851 29.0174 89.2214 29.0174 89.1684 29.0174ZM89.9217 13.1449C89.7095 13.1449 89.4973 13.1048 89.2957 13.0245C88.4894 12.6834 88.1181 11.8205 88.4682 11.068C88.4788 11.058 88.5 10.9978 88.5106 10.9777C89.6882 8.46946 91.6192 6.21199 94.2397 4.30569C94.9399 3.80404 95.9371 3.92444 96.4676 4.57659C96.9981 5.23878 96.8708 6.18189 96.1811 6.68355C93.985 8.27882 92.383 10.145 91.4069 12.2219C91.1417 12.8038 90.5476 13.1449 89.9217 13.1449ZM111.406 4.40603C111.384 4.40603 111.374 4.40603 111.353 4.40603C109.804 4.35586 108.244 4.2756 106.706 4.16523C105.284 4.05487 104.064 3.9746 102.982 4.01473C102.08 4.0649 101.369 3.39268 101.337 2.56996C101.306 1.73721 101.995 1.04492 102.865 1.01482C104.096 0.974689 105.433 1.06499 106.95 1.17535C108.435 1.28572 109.952 1.36598 111.448 1.41615C112.329 1.44624 113.018 2.13854 112.986 2.97129C112.965 3.76391 112.254 4.40603 111.406 4.40603ZM119.882 4.31573C119.044 4.31573 118.344 3.69367 118.291 2.89102C118.238 2.05827 118.917 1.34592 119.787 1.30578C122.556 1.15529 125.346 0.894424 128.094 0.513164C128.964 0.382733 129.77 0.964656 129.898 1.78737C130.025 2.61009 129.42 3.37261 128.55 3.49301C125.718 3.8843 122.832 4.1552 119.967 4.30569C119.946 4.31573 119.914 4.31573 119.882 4.31573Z" fill="#1E1E1E"/>
<path d="M64.9403 68.8218C64.4098 68.1897 63.2534 68.29 62.6911 68.8218C62.0227 69.4539 62.1501 70.3067 62.6911 70.9488C65.5662 74.3701 65.8208 79.0456 65.7147 83.2194C65.6617 85.1558 68.8444 85.1558 68.8975 83.2194C69.0354 78.1225 68.3989 72.9354 64.9403 68.8218Z" fill="#FBB03B"/>
</svg>
