<svg width="81" height="73" viewBox="0 0 81 73" fill="none" xmlns="http://www.w3.org/2000/svg">
<path d="M17.4244 33.8145C17.0213 29.741 21.4772 26.9518 25.4239 27.8849C26.697 28.1859 27.7579 28.7979 28.5854 29.6006C28.6279 29.6307 28.6809 29.6507 28.7234 29.6909C28.8719 29.8113 28.9992 29.9417 29.1265 30.0621C29.1902 30.1022 29.2644 30.1323 29.3281 30.1825C29.4342 30.2728 29.5403 30.3731 29.6464 30.4634C30.145 30.8948 30.5269 31.4467 30.7179 32.0587C30.771 32.1691 30.824 32.2694 30.8558 32.3597C30.9301 32.5704 31.0362 33.0419 31.0574 33.2627C31.068 33.4433 31.0468 33.5536 31.0362 33.7744C31.0043 34.2158 30.9195 34.6272 30.7179 35.0385C30.6649 35.1489 30.6012 35.2392 30.5269 35.3295C30.4739 35.5302 30.3996 35.7308 30.3147 35.9215C30.2087 36.3027 30.0813 36.6739 29.901 37.0452C29.4023 38.0585 28.352 38.6906 27.2274 38.8411C27.1531 38.8712 27.0895 38.9013 27.0153 38.9314C23.1323 40.2056 17.8382 37.9782 17.4244 33.8145Z" fill="#FBB03B"/>
<path d="M21.2536 48.6636C21.2436 48.6636 21.2536 48.6636 21.2536 48.6636C21.2436 48.6736 21.2437 48.6836 21.2437 48.6836C21.2437 48.6736 21.2536 48.6636 21.2536 48.6436C21.2536 48.6536 21.2536 48.6636 21.2536 48.6636Z" fill="#1E1E1E"/>
<path d="M9.89164 56.3089C12.162 61.2151 14.1566 66.3521 15.8222 71.5694C15.8435 71.6195 15.8647 71.6697 15.8859 71.7199C16.0132 72.1412 16.3315 72.5426 16.7559 72.7432C17.1484 72.9439 17.6047 72.964 18.0502 72.8235L18.0714 72.8135L38.6218 65.8806C39.7995 65.4792 41.0195 65.1481 42.2077 64.8271C43.1095 64.5863 44.0114 64.3354 44.9026 64.0646C45.0935 64.0044 45.2951 63.9442 45.4861 63.884C47.3957 63.2619 49.3266 62.4291 51.2469 61.4258C51.788 61.1449 52.0851 60.5429 52.0214 59.9008C52.1593 59.5597 52.1699 59.1684 52.0426 58.7871C51.0241 55.8173 49.995 52.8374 48.9447 49.8777C48.0323 47.3092 47.1199 44.7407 46.1862 42.1722C45.2208 39.5335 44.0113 36.9148 42.9398 34.6072C40.6694 29.701 38.6749 24.564 37.0092 19.3468C36.9986 19.2966 36.9774 19.2464 36.9455 19.1963C36.8182 18.7749 36.4893 18.3836 36.0649 18.1729C35.6724 17.9722 35.2162 17.9522 34.7706 18.1027L34.7494 18.1127L14.199 25.0456C13.032 25.4469 11.8013 25.778 10.6237 26.0991C9.72189 26.3399 8.82011 26.5907 7.91831 26.8616C5.82827 27.5037 3.68513 28.3967 1.57387 29.5003C1.03279 29.7813 0.73575 30.3832 0.799406 31.0254C0.661484 31.3665 0.650854 31.7578 0.778167 32.139C1.79667 35.1189 2.82582 38.0887 3.87615 41.0485C4.78855 43.617 5.70093 46.1855 6.63456 48.754C7.60001 51.3826 8.8201 54.0013 9.89164 56.3089ZM31.5029 51.9445C31.4393 51.8843 31.3862 51.8141 31.3226 51.7539C31.6939 49.6369 32.6593 47.6001 35.0889 47.2189C36.6379 46.9781 38.2929 47.1687 39.8312 47.3894C41.4014 47.6202 42.9504 47.9714 44.4675 48.4429C44.5736 48.473 44.6903 48.4931 44.7964 48.4931C46.0271 51.9545 47.2684 55.4862 48.4885 59.048C46.4197 60.0513 44.1811 60.8539 41.6667 61.486C41.1575 61.6165 40.6376 61.7569 40.1283 61.9074C40.1177 61.5663 40.0116 61.2352 39.7782 60.9643C37.1153 57.8942 34.3568 54.8842 31.5029 51.9445ZM15.9284 61.7068C15.4722 60.563 14.9842 59.4192 14.4855 58.2855C14.5916 58.1049 14.6765 57.8942 14.7189 57.6534C14.8886 56.5497 15.069 55.4461 15.2387 54.3424C16.7134 55.0548 18.5171 55.1852 20.1085 54.6936C22.2834 54.0214 23.8111 52.406 24.6917 50.4897C26.4741 52.0549 28.0761 53.8809 29.6675 55.5464C32.0122 57.9945 34.2932 60.5028 36.5105 63.0612C35.9694 63.2418 35.4284 63.4325 34.8979 63.6131L18.6125 69.1112C17.7638 66.5427 16.862 64.0545 15.9284 61.7068ZM16.2997 50.279C16.2254 50.1486 16.1299 50.0482 16.0238 49.9479C16.1511 49.5867 16.2891 49.2255 16.5119 48.9145C17.6046 47.3493 19.7053 47.5399 21.3816 48.2322C21.371 48.2724 21.3497 48.3025 21.3391 48.3426C21.3391 48.3526 21.2861 48.5332 21.2437 48.6436C21.2755 48.5633 21.3179 48.4831 21.2437 48.6536C21.2331 48.6938 21.2224 48.7239 21.2224 48.7239C21.2224 48.7239 21.2224 48.7038 21.2331 48.6737C21.1588 48.8543 21.0739 49.0449 20.989 49.2155C20.8935 49.3961 20.7874 49.5767 20.6813 49.7472C20.6177 49.8175 20.5647 49.8977 20.5116 49.968C20.3737 50.1285 20.2358 50.279 20.0872 50.4295C20.066 50.4496 20.066 50.4496 20.0554 50.4696C19.9812 50.5198 19.9175 50.58 19.8432 50.6302C19.6523 50.7606 19.4613 50.881 19.2597 50.9914C19.2491 50.9914 19.2491 50.9914 19.2385 50.9914C19.143 51.0215 19.0475 51.0616 18.952 51.1017C18.8353 51.1418 18.708 51.1719 18.5807 51.2121C18.5171 51.2321 18.4852 51.2422 18.4746 51.2522C18.273 51.2723 17.976 51.2723 17.9017 51.2723C17.8062 51.2622 17.6789 51.2321 17.6577 51.2321C17.5834 51.2221 17.5092 51.202 17.4349 51.182C17.3288 51.1017 17.106 51.0315 16.9681 50.9813C16.9681 50.9713 16.8089 50.881 16.7665 50.8509C16.7028 50.8007 16.6498 50.7506 16.5861 50.7004C16.5013 50.5599 16.3952 50.4295 16.2997 50.279ZM9.54151 46.7072C7.80158 41.8913 6.04043 36.9048 4.3111 31.8681C6.37993 30.8648 8.6185 30.0622 11.1329 29.4301C13.4458 28.8482 15.7162 28.0656 17.9123 27.3231L34.1977 21.825C35.0358 24.3734 35.9376 26.8616 36.8819 29.2194C37.7625 31.4167 38.7385 33.6039 39.6933 35.7209C40.9346 38.48 42.2183 41.3395 43.2687 44.219C43.2687 44.229 43.2793 44.239 43.2793 44.2591C42.0698 43.9681 40.8392 43.7474 39.5979 43.6069C37.5503 43.3862 35.4602 43.2558 33.455 43.7675C30.8769 44.4196 29.1583 46.3059 28.2034 48.5332C26.6545 47.0282 24.9781 45.6437 23.0048 44.8109C19.822 43.4665 15.5677 43.7474 13.414 46.6269C12.4273 47.9513 12.0241 49.5265 11.7589 51.1017C11.7165 51.3626 11.674 51.6234 11.6316 51.8843C10.8889 50.1787 10.1675 48.453 9.54151 46.7072Z" fill="#1E1E1E"/>
<path d="M27.726 35.6204C27.5668 35.6604 27.5986 35.6404 27.726 35.6204V35.6204Z" fill="#1E1E1E"/>
<path d="M23.0151 38.189C24.9355 39.4832 27.5878 39.8444 29.7627 38.8913C32.2453 37.8077 33.8261 35.5001 33.7306 32.8914C33.6352 30.4835 31.9165 28.1859 29.5081 27.3832C28.8609 27.1625 28.2138 27.1826 27.6833 27.4535C27.1847 26.8515 26.2722 26.6809 25.4765 26.8414C22.9197 27.3531 20.7235 29.5805 20.3522 32.0286C20.0021 34.3162 20.9781 36.8144 23.0151 38.189ZM24.9355 34.8278C24.893 34.7676 24.84 34.7175 24.8081 34.6673C24.7657 34.6172 24.649 34.4767 24.5747 34.3663C24.5747 34.3463 24.5641 34.3362 24.5535 34.2861C24.5217 34.2058 24.4792 34.1155 24.4474 34.0352C24.3837 33.8647 24.3307 33.6941 24.2777 33.5135C24.2777 33.5135 24.2777 33.5135 24.2777 33.5035C24.2777 33.4934 24.2777 33.4834 24.2777 33.4734C24.2671 33.3831 24.2564 33.2928 24.2458 33.2025C24.2352 33.1222 24.2776 32.8312 24.2458 32.7108C24.267 32.6306 24.2777 32.5503 24.2883 32.47C24.3095 32.3898 24.3307 32.2995 24.3519 32.2192C24.3626 32.1691 24.3626 32.149 24.3626 32.139C24.4262 32.0085 24.5323 31.838 24.5747 31.7778C24.6065 31.7276 24.6384 31.6774 24.6702 31.6273C24.7869 31.4968 24.893 31.3564 25.0097 31.236C25.0416 31.2059 25.0734 31.1657 25.1158 31.1356C25.2855 31.0654 25.4766 30.8647 25.6251 30.7744C25.6994 30.7243 25.7842 30.6841 25.8585 30.644C26.1237 30.4935 25.7524 30.6841 25.7524 30.6942C25.763 30.5637 26.6648 30.4032 26.7921 30.3731C26.9194 30.3531 27.0255 30.3029 27.1316 30.2527C27.312 30.4734 27.5348 30.654 27.8106 30.7443C28.044 30.8246 28.2668 30.9049 28.479 31.0152C28.5427 31.0453 28.6063 31.0855 28.67 31.1156C28.6806 31.1256 28.6699 31.1156 28.6805 31.1256C28.723 31.1657 28.7655 31.1958 28.7867 31.2159C28.8822 31.2861 28.9777 31.3664 29.0625 31.4467C29.0731 31.4567 29.0837 31.4667 29.1049 31.4768C29.1474 31.5269 29.2429 31.6172 29.2641 31.6473C29.3172 31.7176 29.3808 31.7978 29.4338 31.8781C29.4869 31.9483 29.5293 32.0286 29.5718 32.0988C29.6142 32.2393 29.837 32.5603 29.7946 32.7108C29.7522 32.4801 29.7415 32.4299 29.7627 32.5704C29.7733 32.6406 29.784 32.7108 29.7946 32.7811C29.8052 32.8714 29.8158 32.9717 29.8158 33.072C29.8264 33.1724 29.8158 33.2727 29.8158 33.373C29.7627 33.5837 29.7415 33.7944 29.6778 34.0051C29.6778 34.0152 29.6778 34.0152 29.6778 34.0252C29.646 34.0954 29.593 34.1958 29.5824 34.2259C29.5399 34.3061 29.4869 34.3864 29.4445 34.4767C29.4126 34.5469 29.3914 34.577 29.3808 34.5971C29.2853 34.7074 29.158 34.8379 29.1262 34.868C29.1156 34.878 29.0095 34.9884 28.9246 35.0686C28.9034 35.0787 28.8928 35.0887 28.861 35.1088C28.7018 35.2091 28.5427 35.3195 28.3835 35.4198C28.3729 35.4298 28.3729 35.4298 28.3623 35.4298C28.3411 35.4399 28.3305 35.4399 28.3092 35.4499C28.1395 35.5201 27.9698 35.5703 27.8 35.6205C27.7788 35.6305 27.7682 35.6305 27.747 35.6305C27.7788 35.6305 27.8106 35.6205 27.853 35.6205C27.7682 35.6205 27.6621 35.6506 27.5878 35.6606C27.4074 35.6807 27.2271 35.6907 27.0467 35.7007C27.0361 35.7007 26.9724 35.7108 26.8982 35.7108C26.8876 35.7108 26.8876 35.7108 26.877 35.7007C26.6966 35.6807 26.5163 35.6506 26.3359 35.6104C26.251 35.5904 26.1449 35.5502 26.0388 35.5302C26.0388 35.5302 26.0388 35.5302 26.0282 35.5302C25.869 35.4499 25.6993 35.3797 25.5402 35.2994C25.5296 35.2894 25.5189 35.2894 25.5083 35.2894C25.4553 35.2492 25.4129 35.2091 25.3916 35.1991C25.3598 35.179 25.1371 34.9683 25.031 34.878C25.0946 34.9482 25.1689 35.0586 24.9991 34.8479C24.9885 34.8479 24.9779 34.8278 24.9779 34.8278C24.9248 34.8278 24.9355 34.8278 24.9355 34.8278Z" fill="#1E1E1E"/>
<path d="M24.9886 34.8679C24.9675 34.8479 24.9675 34.8479 24.9569 34.8379C24.9569 34.8279 24.9463 34.8279 24.9463 34.8279C24.9569 34.8379 24.9675 34.8479 24.9886 34.8679Z" fill="#1E1E1E"/>
<path d="M52.5731 4.90889C54.3873 4.30689 56.4986 4.68816 57.9203 5.93227C59.4056 7.23658 59.8088 8.98236 59.5435 10.8184C59.4374 11.5709 58.9176 12.203 58.2386 12.6545C57.9309 13.0257 57.5702 13.3669 57.1458 13.6578C55.5862 14.7213 53.39 14.7815 51.7137 13.9086C50.048 13.0358 48.9977 11.3201 49.0507 9.51411C49.1144 7.42721 50.483 5.61121 52.5731 4.90889Z" fill="#FBB03B"/>
<path d="M78.0676 15.1829L79.9349 17.1594C80.5714 17.8316 79.9348 19.0758 79.1604 19.2363C78.5026 19.3768 77.8448 19.5473 77.187 19.748C77.4841 20.1794 77.7811 20.6108 78.0994 21.0222C78.6087 21.6844 78.1949 23.0389 77.325 23.0991C77.0067 23.1191 76.6884 23.1693 76.3701 23.2395C76.8051 23.9519 77.1658 24.7345 77.431 25.5873C77.6644 26.3498 77.3143 27.3531 76.5186 27.4334C76.02 27.4835 75.5214 27.5638 75.0228 27.6641C75.3092 28.0053 75.5956 28.3564 75.8715 28.7277C76.2853 29.2895 76.1261 30.4935 75.3516 30.7343C74.7681 30.9149 74.1952 31.0955 73.6117 31.2761C73.9936 31.8179 74.3756 32.3496 74.7575 32.8914C75.2137 33.5335 74.9697 34.5369 74.2376 34.898C73.7602 35.1288 73.3146 35.179 72.8478 35.1589C73.1661 35.6907 73.4207 36.2927 73.6011 36.9649C73.7708 37.617 73.1979 38.5501 72.6038 38.5401C71.6596 38.5401 70.7154 38.5301 69.7711 38.5301C68.5404 38.5301 68.6253 36.1723 69.8666 36.1723C70.2061 36.1723 70.535 36.1723 70.8745 36.1723C70.6835 35.9616 70.482 35.7609 70.2486 35.6004C69.7181 35.2392 69.6862 34.3763 70.1424 33.7643C70.6092 33.1322 71.2246 32.8212 71.8718 32.7309C71.893 32.7309 71.9036 32.7309 71.9248 32.7309C71.6489 32.3396 71.3625 31.9483 71.0867 31.557C70.6835 30.9951 70.832 29.7912 71.6065 29.5504C72.1476 29.3798 72.6887 29.2092 73.2298 29.0387C72.9009 28.6574 72.5507 28.2962 72.19 27.9451C71.6702 27.4434 72.0203 26.1692 72.7099 25.9384C73.4843 25.6776 74.2588 25.4669 75.0333 25.3164C74.7044 24.6743 74.3225 24.0823 73.8451 23.5505C73.3252 22.9686 73.686 21.865 74.365 21.5439C74.7151 21.3733 75.0758 21.2429 75.4365 21.1225C75.15 20.6911 74.8742 20.2496 74.6196 19.7881C74.2907 19.2162 74.7045 18.2129 75.2774 18.0022C75.8609 17.7915 76.4444 17.6009 77.0279 17.4303C76.8793 17.2798 76.7414 17.1193 76.5929 16.9688C75.7336 16.0457 77.1871 14.2498 78.0676 15.1829Z" fill="#00A99D"/>
<path d="M74.1949 8.36044C74.3647 7.66815 73.866 6.99593 72.943 6.6849C71.829 6.30364 70.715 5.92238 69.601 5.55116C65.3361 4.10638 60.7422 2.62148 55.9998 1.49776C53.4642 0.895773 51.1832 0.454314 48.987 0.15332C47.0667 -0.117576 44.6902 -0.207874 43.2898 1.4476C42.6851 2.15995 42.335 2.9927 41.9955 3.80539L41.9318 3.96592C41.5711 4.81874 41.2528 5.71169 40.977 6.70497C40.4253 8.6815 40.0964 10.7082 39.8417 12.464C39.5129 14.6813 39.1203 17.009 38.5898 19.3668C38.6853 19.8384 38.8126 20.2999 38.9718 20.7514C39.2476 21.554 39.7356 23.059 40.6905 23.37C40.8072 23.4102 40.9345 23.4202 41.0406 23.35C41.1573 23.2797 41.1997 23.1493 41.2316 23.0289C41.762 21.0724 42.2713 19.1059 42.6002 17.1093C42.7594 16.1763 42.8973 15.2331 43.0352 14.29C43.2686 12.7148 43.502 11.0794 43.8309 9.49419C44.1173 8.11964 44.4462 6.9257 44.8388 5.84212C45.0722 5.2 45.3162 4.61807 45.592 4.07628L45.6663 3.91575C45.8573 3.53449 46.0483 3.13317 46.3665 2.92247C46.9182 2.56128 47.9897 2.74187 48.8491 2.89237L49.2311 2.95257C50.7164 3.18333 52.2653 3.47429 53.8568 3.82545C59.8617 5.14983 65.7711 7.14643 71.0121 8.93233C71.0121 8.94236 71.0121 8.95239 71.0121 8.96243C71.0439 10.8487 70.7257 12.8453 69.983 15.4137C69.0494 18.6143 67.9354 21.8249 66.8532 24.9352L66.1955 26.8114C65.6544 28.3665 65.1133 29.9117 64.5616 31.4668C63.9144 28.808 63.2778 26.1492 62.6307 23.5005C61.888 20.4504 60.8059 16.6177 56.7319 16.6077C54.9813 16.5977 53.3687 17.4505 51.9152 18.2732C50.3344 19.1762 48.7854 20.1193 47.2683 21.1025C46.7697 21.2129 46.3241 21.5239 46.0376 21.9253C44.8812 22.6978 43.746 23.5005 42.6214 24.3232C42.2395 24.6041 42.2607 25.5874 42.388 25.9686C42.5684 26.5305 42.9397 27.0723 43.5444 27.293C43.9582 27.4435 44.425 27.4335 44.8282 27.2629C45.2101 27.1124 45.6239 26.701 45.9421 27.1626C46.1225 27.4234 46.1119 27.7846 46.3029 28.0455C46.6212 28.4669 47.0137 28.8381 47.4593 29.1291C48.4672 29.7913 49.7721 29.9719 50.9286 29.5605C51.0453 29.5204 51.162 29.4602 51.2787 29.41C52.2017 31.5471 54.9283 32.4902 57.1669 31.6875C58.4082 31.2461 59.3312 30.4835 60.0632 29.5605L61.7925 36.6941C61.8668 37.0151 62.0154 37.266 62.1957 37.4666C61.9517 37.4465 61.6864 37.4165 61.453 37.3864C61.2727 37.3663 61.103 37.3362 60.9651 37.3262C60.2436 37.2559 59.4479 37.1355 58.5355 36.975C56.7531 36.6539 55.0344 36.2325 53.5703 35.8513C52.8807 35.6707 52.191 35.4901 51.4908 35.3095C50.0479 34.9282 48.5733 34.5369 47.0773 34.1858C46.9394 34.1557 46.7909 34.1256 46.6529 34.0955C46.6317 34.0955 46.6211 34.0955 46.5999 34.0955C46.5681 34.0955 46.5469 34.1055 46.5151 34.1055C46.3772 34.1256 46.2498 34.1657 46.1225 34.2058C46.1013 34.2159 46.0907 34.2159 46.0588 34.2259C46.0058 34.256 45.9528 34.2761 45.9103 34.3062C45.8891 34.3162 45.8785 34.3262 45.8679 34.3262C45.8679 34.3363 45.8573 34.3363 45.8467 34.3563C45.8149 34.3864 45.783 34.4266 45.7406 34.4567C45.7299 34.4667 45.73 34.4767 45.7194 34.4767C45.6982 34.5169 45.6663 34.557 45.6345 34.6172C45.6239 34.6373 45.6132 34.6674 45.6132 34.6874C45.592 34.7376 45.5814 34.7878 45.5708 34.848C45.5708 34.868 45.5708 34.8881 45.5602 34.9082C45.5602 34.9784 45.5496 35.0587 45.5496 35.1289C45.5496 35.2794 45.5602 35.3797 45.592 35.4901C45.6026 35.5603 45.6239 35.6205 45.6451 35.6807C45.6557 35.7008 45.6875 35.7911 45.6981 35.8212C45.7512 35.9315 45.8148 36.0419 45.8891 36.1422C45.8997 36.1623 45.9209 36.1824 45.9315 36.2024C45.974 36.2526 46.027 36.3028 46.0694 36.3529C46.1225 36.4031 46.1649 36.4432 46.218 36.4834C46.2392 36.5034 46.2604 36.5135 46.2816 36.5335C46.3877 36.6038 46.4938 36.674 46.5999 36.7342C46.7909 36.8446 46.9818 36.9248 47.1834 37.0151C47.5335 37.0954 47.8837 37.1857 48.2019 37.266C49.0295 37.4767 49.8464 37.6873 50.6739 37.9081C54.1432 38.8311 57.7504 39.7742 61.4424 40.1053L61.8138 40.1455C62.7792 40.2458 64.0948 40.3863 64.9011 39.714C65.5058 39.2124 65.7392 38.4097 65.9514 37.7074C66.0151 37.4967 66.0682 37.3061 66.1318 37.1255C66.8214 35.2393 67.5004 33.3631 68.1688 31.4668C69.4738 27.7846 70.7575 24.0322 71.9881 20.32L72.1367 19.8785C73.2931 16.407 74.492 12.8051 74.4177 9.03266C74.4283 8.8019 74.3541 8.5611 74.1949 8.36044ZM58.3021 24.7345C57.9414 25.5874 57.5806 26.4502 57.0396 27.2228C56.9865 27.293 56.9653 27.3331 56.9441 27.3632C56.9228 27.3833 56.891 27.4034 56.838 27.4535C56.7001 27.584 56.5834 27.7144 56.4454 27.8348C56.3924 27.885 56.3712 27.905 56.3499 27.9251C56.3287 27.9351 56.2969 27.9452 56.2439 27.9753C56.2014 27.9953 55.9574 28.1157 55.9468 28.1358C55.8619 28.1659 55.7877 28.196 55.7028 28.216C55.6709 28.2261 55.6603 28.2261 55.6391 28.2261C55.6073 28.216 55.4906 28.2261 55.4057 28.2261C55.3314 28.206 55.236 28.196 55.1617 28.1759C55.1086 28.1458 55.0662 28.1258 55.0131 28.0957C55.0556 28.1157 55.0026 28.0455 54.9707 28.0355C54.9177 27.9151 54.8858 27.7947 54.9495 28.0455C54.8752 27.7445 54.8116 27.4535 54.6843 27.1626C54.1432 25.8683 52.817 25.1961 51.3741 25.4168C50.7694 25.5071 50.2708 25.7579 49.7191 25.9987C49.7085 26.0088 49.6979 26.0088 49.6767 26.0188C49.666 26.0188 49.666 26.0188 49.6554 26.0088C49.6342 25.9887 49.5705 25.9385 49.5175 25.8884C49.4963 25.8583 49.4539 25.788 49.4114 25.7278C49.4008 25.6877 49.3477 25.5272 49.3159 25.4369C49.3265 25.4469 49.2947 25.0355 49.3053 24.9653C49.3053 24.875 49.3159 24.7847 49.3159 24.6944C49.3159 24.6743 49.3159 24.6743 49.3265 24.6442C49.3477 24.5038 49.3796 24.3633 49.4114 24.2329C50.4193 23.5908 51.4166 22.9386 52.4457 22.3266C53.6021 21.6343 54.9177 20.631 56.2863 20.3701C57.4215 20.1494 57.8459 20.9922 58.1535 21.8952C58.4082 22.6276 58.6098 23.3901 58.7795 24.1426C58.5779 24.3132 58.4082 24.5038 58.3021 24.7345Z" fill="#1E1E1E"/>
<path d="M47.4485 12.4942C48.6686 14.1797 50.8224 15.2432 53.0079 14.9322C55.2359 14.6212 57.2093 13.2567 57.7716 11.1297C58.005 10.2267 57.9837 9.22337 57.676 8.34045C57.5169 7.88896 57.3047 7.43747 57.0183 7.05621C56.6151 6.51442 56.2014 6.17329 55.6391 5.782C55.4056 5.62147 55.1086 5.56127 54.8115 5.55124C54.6948 5.44088 54.5675 5.33051 54.4296 5.25025C52.3289 4.0262 49.3052 4.51783 47.7881 6.36392C46.3346 8.11972 46.0799 10.618 47.4485 12.4942ZM50.7693 10.4775C50.7163 10.3972 50.6633 10.317 50.6208 10.2367C50.5996 10.1865 50.5783 10.1364 50.5783 10.1163C50.5465 10.036 50.5253 9.95578 50.5041 9.87552C50.5041 9.86549 50.5041 9.86549 50.5041 9.85545C50.5041 9.79525 50.4935 9.72502 50.4935 9.72502C50.4935 9.66482 50.4935 9.61466 50.5041 9.55446C50.5359 9.37386 50.5783 9.2033 50.642 9.0227C50.6632 8.98257 50.6844 8.9324 50.7056 8.89227C50.7375 8.84211 50.7693 8.79194 50.8012 8.73174C50.8436 8.68158 50.9178 8.61134 50.9709 8.55115C51.0345 8.51101 51.0876 8.48091 51.1513 8.44078C51.1725 8.43075 51.1937 8.41068 51.2149 8.40065C51.2149 8.40065 51.2149 8.40065 51.2255 8.40065C51.3422 8.36052 51.4695 8.33042 51.5862 8.30032C51.6393 8.30032 51.6817 8.29029 51.7348 8.29029C51.7878 8.29029 51.8303 8.29028 51.8833 8.30032C52.0107 8.32038 52.1273 8.35048 52.2546 8.38058C52.3395 8.42072 52.4244 8.45081 52.4986 8.50098C52.7639 8.65148 53.0504 8.72171 53.3368 8.73174C53.4323 8.81201 53.5384 8.90231 53.6551 8.98257C53.2201 8.68158 53.5702 8.9324 53.6869 9.0528L53.6975 9.06284C53.7506 9.1431 53.8036 9.22337 53.8567 9.30363C53.8991 9.41399 53.9309 9.52436 53.9627 9.63472C53.9734 9.78522 53.9627 9.93572 53.9627 10.0962C53.9415 10.1865 53.9203 10.2668 53.8991 10.3571C53.846 10.4474 53.8036 10.5377 53.7505 10.628C53.7293 10.6581 53.7082 10.6782 53.6763 10.7083C53.6233 10.7685 53.5596 10.8186 53.5065 10.8688C53.3898 10.939 53.2837 11.0093 53.167 11.0695C53.1989 11.0594 53.2095 11.0594 53.2519 11.0494C53.1883 11.0594 53.1246 11.0895 53.0716 11.1196C53.0504 11.1297 53.0292 11.1397 53.0079 11.1397C52.9125 11.1698 52.8063 11.1899 52.7108 11.22C52.9336 11.1698 52.7639 11.24 52.6154 11.2501C52.6048 11.2501 52.5941 11.2501 52.5835 11.2501C52.5517 11.2601 52.5305 11.2601 52.4986 11.2701C52.5305 11.2601 52.5517 11.2601 52.5835 11.2501C52.5093 11.2601 52.4456 11.2601 52.3713 11.2601C52.2865 11.2601 52.2016 11.2501 52.1167 11.2501C51.9682 11.22 51.8197 11.1899 51.6818 11.1497C51.5757 11.0996 51.4695 11.0594 51.3634 10.9992C51.3104 10.9691 51.2574 10.929 51.2043 10.8989C51.0876 10.7986 50.9709 10.6882 50.8648 10.5879C50.8118 10.5477 50.7905 10.5076 50.7693 10.4775Z" fill="#1E1E1E"/>
<path d="M53.1461 11.0693C53.1355 11.0693 53.1355 11.0793 53.1249 11.0793C53.0931 11.0893 53.0718 11.0993 53.0506 11.1093C53.04 11.1193 53.0188 11.1193 53.0082 11.1293C52.9976 11.1293 52.9976 11.1293 52.987 11.1293C52.9233 11.1493 52.9446 11.1193 53.1461 11.0693Z" fill="#1E1E1E"/>
<path d="M52.5625 11.24C52.6049 11.23 52.6473 11.22 52.6897 11.21C52.6473 11.22 52.6049 11.23 52.5625 11.24Z" fill="#1E1E1E"/>
</svg>
