<svg width="405" height="410" viewBox="0 0 405 410" fill="none" xmlns="http://www.w3.org/2000/svg">
<path d="M102.767 46.69C133.911 15.9716 176.844 -7.79662 211.073 3.45004C245.303 14.6967 270.848 60.9652 306.128 92.3091C341.07 123.799 385.424 140.527 399.646 169.759C413.779 199.231 397.438 241.363 378.407 278.861C359.227 316.028 337.26 348.818 306.943 372.903C276.533 397.237 237.674 413.101 201.609 408.94C165.214 404.927 131.719 380.634 101.742 354.342C71.8542 327.81 45.4791 299.267 34.4738 265.144C23.4686 231.021 27.7434 191.558 39.9237 153.14C51.865 114.632 71.3773 77.3056 102.767 46.69Z" fill="#F8F8F8"/>
<path d="M357.545 349.234C355.221 347.331 352.354 346.4 349.411 345.727C348.671 345.312 347.811 345.599 347.343 346.243C346.332 347.646 345.517 349.163 344.793 350.709C344.4 351.568 344.023 352.426 343.646 353.3C343.299 354.116 342.816 354.96 343.072 355.876C343.374 356.921 344.37 357.293 345.321 357.665C346.196 358.009 347.072 358.353 347.962 358.682C349.773 359.355 351.599 359.97 353.456 360.528C353.923 360.671 354.603 360.528 354.919 360.156C356.051 358.825 356.338 357.136 356.655 355.49C356.972 353.844 357.274 352.197 357.923 350.623C358.119 350.193 357.923 349.535 357.545 349.234ZM347.404 355.39C347.041 355.246 346.679 355.103 346.317 354.96C346.287 354.946 346.257 354.931 346.226 354.917C346.453 354.43 346.634 353.887 346.83 353.428C347.102 352.784 347.389 352.155 347.69 351.525C348.173 350.537 348.732 349.578 349.32 348.633C351.207 349.091 353.108 349.664 354.708 350.723C354.316 351.883 354.074 353.071 353.848 354.273C353.712 355.003 353.561 355.733 353.395 356.463C353.335 356.735 353.274 357.064 353.169 357.379C351.976 356.993 350.769 356.621 349.592 356.191C348.852 355.948 348.128 355.676 347.404 355.39Z" fill="#FBB03B"/>
<path d="M76.5454 354.251C74.2213 352.347 71.3538 351.417 68.4109 350.744C67.6714 350.329 66.8111 350.615 66.3433 351.259C65.3321 352.662 64.5171 354.179 63.7927 355.725C63.4003 356.584 63.023 357.443 62.6457 358.316C62.2986 359.132 61.8157 359.977 62.0722 360.893C62.3741 361.938 63.3701 362.31 64.3209 362.682C65.1963 363.026 66.0716 363.369 66.962 363.698C68.7731 364.371 70.5992 364.987 72.4555 365.545C72.9234 365.688 73.6025 365.545 73.9194 365.173C75.0513 363.842 75.3381 362.152 75.655 360.506C75.9719 358.86 76.2738 357.214 76.9227 355.64C77.1189 355.21 76.9227 354.552 76.5454 354.251ZM66.4036 360.406C66.0414 360.263 65.6792 360.12 65.317 359.977C65.2868 359.962 65.2566 359.948 65.2264 359.934C65.4528 359.447 65.6339 358.903 65.8301 358.445C66.1018 357.801 66.3885 357.171 66.6904 356.541C67.1733 355.554 67.7317 354.595 68.3203 353.65C70.2068 354.108 72.1084 354.68 73.7081 355.74C73.3158 356.899 73.0743 358.087 72.8479 359.29C72.7121 360.02 72.5612 360.75 72.3951 361.48C72.3348 361.752 72.2744 362.081 72.1688 362.396C70.9765 362.009 69.7691 361.637 68.592 361.208C67.8525 360.964 67.128 360.692 66.4036 360.406Z" fill="#FBB03B"/>
<path d="M346.545 93.389C344.221 91.4852 341.354 90.5548 338.411 89.882C337.671 89.4669 336.811 89.7532 336.343 90.3974C335.332 91.8001 334.517 93.3174 333.793 94.8634C333.4 95.7222 333.023 96.5811 332.646 97.4542C332.299 98.2702 331.816 99.1147 332.072 100.031C332.374 101.076 333.37 101.448 334.321 101.82C335.196 102.164 336.072 102.507 336.962 102.836C338.773 103.509 340.599 104.125 342.456 104.683C342.923 104.826 343.603 104.683 343.919 104.311C345.051 102.98 345.338 101.29 345.655 99.6443C345.972 97.9982 346.274 96.3521 346.923 94.7775C347.119 94.3481 346.923 93.6896 346.545 93.389ZM336.404 99.5441C336.041 99.401 335.679 99.2578 335.317 99.1147C335.287 99.1004 335.257 99.0861 335.226 99.0717C335.453 98.5851 335.634 98.0411 335.83 97.5831C336.102 96.9389 336.389 96.3091 336.69 95.6793C337.173 94.6916 337.732 93.7326 338.32 92.7878C340.207 93.2459 342.108 93.8184 343.708 94.8777C343.316 96.0371 343.074 97.2252 342.848 98.4276C342.712 99.1576 342.561 99.8877 342.395 100.618C342.335 100.89 342.274 101.219 342.169 101.534C340.976 101.147 339.769 100.775 338.592 100.346C337.852 100.102 337.128 99.8304 336.404 99.5441Z" fill="#FBB03B"/>
<path d="M128.367 338.631C128.81 335.659 128.128 332.757 127.185 329.932C127.16 329.089 126.467 328.524 125.666 328.48C123.928 328.392 122.191 328.53 120.478 328.759C119.531 328.895 118.591 329.043 117.64 329.199C116.754 329.349 115.772 329.402 115.112 330.111C114.364 330.928 114.558 331.962 114.729 332.959C114.886 333.877 115.042 334.794 115.219 335.717C115.576 337.596 115.99 339.456 116.469 341.31C116.588 341.779 117.064 342.27 117.551 342.334C119.29 342.562 120.901 341.889 122.49 341.265C124.08 340.641 125.661 340.005 127.361 339.697C127.834 339.629 128.302 339.109 128.367 338.631ZM117.779 333.472C117.716 333.091 117.652 332.711 117.588 332.331C117.584 332.298 117.581 332.265 117.578 332.232C118.117 332.158 118.681 332.016 119.18 331.933C119.878 331.812 120.572 331.712 121.274 331.624C122.379 331.494 123.499 331.443 124.622 331.426C125.204 333.251 125.694 335.151 125.607 337.062C124.4 337.36 123.246 337.8 122.088 338.26C121.385 338.54 120.675 338.808 119.957 339.064C119.69 339.16 119.374 339.288 119.047 339.369C118.763 338.163 118.459 336.952 118.22 335.735C118.048 334.985 117.907 334.232 117.779 333.472Z" fill="#00A99D"/>
<path d="M17.367 227.263C17.8098 224.29 17.1283 221.389 16.1846 218.564C16.1604 217.721 15.4665 217.156 14.6663 217.112C12.9276 217.024 11.1915 217.162 9.47753 217.391C8.53057 217.527 7.59143 217.675 6.6399 217.831C5.75358 217.981 4.77205 218.033 4.11204 218.743C3.36399 219.56 3.55834 220.594 3.72921 221.591C3.88573 222.508 4.04225 223.426 4.21899 224.349C4.57573 226.228 4.98987 228.088 5.46922 229.942C5.58791 230.411 6.064 230.902 6.55053 230.966C8.2899 231.194 9.90078 230.521 11.4901 229.897C13.0795 229.273 14.6611 228.636 16.3606 228.329C16.8341 228.261 17.3024 227.741 17.367 227.263ZM6.77946 222.104C6.71554 221.723 6.65163 221.343 6.58772 220.963C6.58446 220.93 6.5812 220.897 6.57794 220.864C7.11664 220.79 7.68142 220.648 8.17969 220.564C8.87818 220.444 9.5721 220.343 10.2738 220.256C11.3793 220.126 12.4991 220.075 13.6221 220.057C14.2039 221.883 14.6943 223.783 14.6069 225.694C13.3997 225.992 12.246 226.431 11.0878 226.892C10.3854 227.172 9.67513 227.44 8.95708 227.696C8.69034 227.792 8.37403 227.92 8.04663 228.001C7.76294 226.795 7.45903 225.584 7.22033 224.367C7.0475 223.617 6.90728 222.864 6.77946 222.104Z" fill="#DCDCDC"/>
<path d="M357.367 170.074C357.81 167.101 357.128 164.2 356.185 161.375C356.16 160.532 355.467 159.967 354.666 159.923C352.928 159.835 351.191 159.973 349.478 160.202C348.531 160.338 347.591 160.486 346.64 160.642C345.754 160.792 344.772 160.844 344.112 161.554C343.364 162.371 343.558 163.405 343.729 164.402C343.886 165.319 344.042 166.237 344.219 167.16C344.576 169.039 344.99 170.899 345.469 172.753C345.588 173.222 346.064 173.713 346.551 173.777C348.29 174.005 349.901 173.332 351.49 172.708C353.08 172.084 354.661 171.447 356.361 171.14C356.834 171.072 357.302 170.552 357.367 170.074ZM346.779 164.915C346.716 164.534 346.652 164.154 346.588 163.774C346.584 163.741 346.581 163.708 346.578 163.675C347.117 163.601 347.681 163.459 348.18 163.376C348.878 163.255 349.572 163.154 350.274 163.067C351.379 162.937 352.499 162.886 353.622 162.868C354.204 164.694 354.694 166.594 354.607 168.505C353.4 168.803 352.246 169.242 351.088 169.703C350.385 169.983 349.675 170.251 348.957 170.507C348.69 170.603 348.374 170.731 348.047 170.812C347.763 169.606 347.459 168.395 347.22 167.178C347.048 166.428 346.907 165.675 346.779 164.915Z" fill="#00A99D"/>
<path d="M66.3669 74.7592C66.8098 71.7865 66.1283 68.885 65.1846 66.0596C65.1604 65.2168 64.4665 64.6518 63.6663 64.6083C61.9276 64.5201 60.1915 64.658 58.4775 64.887C57.5306 65.0227 56.5914 65.171 55.6399 65.327C54.7536 65.4773 53.7721 65.5295 53.1121 66.239C52.364 67.0559 52.5584 68.0902 52.7292 69.0867C52.8857 70.0045 53.0423 70.9224 53.219 71.8451C53.5757 73.7236 53.9899 75.5838 54.4692 77.4383C54.5879 77.907 55.064 78.3978 55.5505 78.4619C57.2899 78.6897 58.9008 78.0172 60.4902 77.3932C62.0795 76.7691 63.661 76.1325 65.3606 75.8248C65.8341 75.757 66.3024 75.2372 66.3669 74.7592ZM55.7795 69.5996C55.7156 69.2193 55.6516 68.8389 55.5877 68.4586C55.5845 68.4256 55.5812 68.3926 55.5779 68.3597C56.1166 68.2862 56.6814 68.1438 57.1797 68.0605C57.8782 67.9399 58.5721 67.8395 59.2738 67.7518C60.3793 67.6223 61.4991 67.5714 62.6221 67.5535C63.2039 69.3791 63.6943 71.2792 63.6069 73.1897C62.3997 73.4877 61.246 73.9275 60.0878 74.3876C59.3854 74.6683 58.6751 74.9364 57.9571 75.1919C57.6903 75.2883 57.374 75.4156 57.0466 75.4973C56.7629 74.2911 56.459 73.0801 56.2203 71.8633C56.0475 71.1132 55.9073 70.3603 55.7795 69.5996Z" fill="#FBB03B"/>
</svg>
