<svg width="93" height="54" viewBox="0 0 93 54" fill="none" xmlns="http://www.w3.org/2000/svg">
<path d="M73.1735 53.3758C73.0947 53.3758 73.008 53.3679 72.9213 53.3521C72.283 53.2177 71.8811 52.5852 72.0151 51.9447C72.4722 49.8337 73.079 47.7384 73.8276 45.7144C74.0561 45.0976 74.7339 44.7893 75.3485 45.0186C75.9632 45.2479 76.2705 45.9278 76.042 46.5445C75.3328 48.4579 74.7575 50.4504 74.3241 52.4507C74.2137 52.9963 73.7173 53.3758 73.1735 53.3758ZM77.5078 41.5397C77.3265 41.5397 77.1453 41.5002 76.9719 41.4132C76.3887 41.1127 76.1602 40.4011 76.4518 39.8161C76.9246 38.8752 77.4132 37.9501 77.9018 37.0171C78.3904 36.0842 78.8868 35.1512 79.3597 34.2024C79.6591 33.6173 80.3684 33.388 80.9515 33.6806C81.5347 33.981 81.7632 34.6926 81.4716 35.2777C80.9909 36.2265 80.4945 37.1753 79.998 38.1241C79.5173 39.0412 79.0287 39.9663 78.5637 40.8914C78.3588 41.3025 77.9412 41.5397 77.5078 41.5397ZM24.2282 41.0416C24.0312 41.0416 23.842 41.0416 23.6529 41.0337C22.9988 41.0179 22.4866 40.4723 22.5024 39.8161C22.5181 39.1598 23.0619 38.6617 23.7159 38.6617C25.5363 38.7091 27.1597 38.5036 28.5388 38.0292C28.8225 37.9343 29.0904 37.8236 29.3583 37.705C29.9573 37.4362 30.6507 37.705 30.9187 38.3059C31.1866 38.9068 30.9187 39.6026 30.3197 39.8714C29.9888 40.0216 29.6499 40.156 29.3032 40.2746C27.8059 40.7886 26.1431 41.0416 24.2282 41.0416ZM17.4352 40.2588C17.3564 40.2588 17.2698 40.2509 17.191 40.2351C15.0002 39.7765 12.904 39.1361 10.9654 38.3296C10.3586 38.0845 10.0749 37.3888 10.3192 36.7799C10.5635 36.1711 11.257 35.8865 11.8638 36.1316C13.6763 36.8748 15.6306 37.4757 17.6795 37.9106C18.3179 38.045 18.7276 38.6775 18.5937 39.318C18.4755 39.8714 17.979 40.2588 17.4352 40.2588ZM34.7722 36.1237C34.5043 36.1237 34.2284 36.0288 34.0078 35.8391C33.5113 35.4121 33.4562 34.661 33.8738 34.1629C35.0165 32.8188 36.0961 31.1663 37.1678 29.1027C37.4673 28.5255 38.1844 28.2962 38.7597 28.6046C39.335 28.905 39.5635 29.6245 39.2562 30.2017C38.0977 32.4234 36.9235 34.2261 35.6627 35.7047C35.4342 35.9814 35.1032 36.1237 34.7722 36.1237ZM5.88253 35.4042C5.64612 35.4042 5.40971 35.333 5.20482 35.1907C3.34504 33.8703 1.72167 32.3523 0.366234 30.6682C-0.043548 30.1542 0.0352559 29.411 0.547484 28.9999C1.05183 28.5887 1.80047 28.6678 2.21025 29.1817C3.42384 30.6919 4.8896 32.0676 6.56813 33.2536C7.104 33.6331 7.23009 34.3684 6.85183 34.9061C6.61541 35.2303 6.25292 35.4042 5.88253 35.4042ZM82.9768 30.1463C82.8428 30.1463 82.7088 30.1226 82.5828 30.0752C81.9681 29.8538 81.645 29.1738 81.8656 28.5571C82.5828 26.533 83.0477 24.5564 83.2447 22.6905C83.3078 22.0342 83.8988 21.5677 84.545 21.631C85.1912 21.6942 85.664 22.2793 85.601 22.9356C85.3882 24.9913 84.8838 27.1498 84.1037 29.3557C83.9146 29.8459 83.4654 30.1463 82.9768 30.1463ZM40.8874 25.1099C40.7219 25.1099 40.5564 25.0782 40.3988 25.0071C39.7999 24.7383 39.5399 24.0346 39.8078 23.4416C40.6037 21.6705 41.5415 19.6148 42.6053 17.6698C42.9206 17.0926 43.6377 16.8791 44.2129 17.1954C44.7882 17.5117 44.9931 18.2312 44.6858 18.8083C43.6692 20.6743 42.7551 22.6825 41.9749 24.4141C41.77 24.8489 41.3366 25.1099 40.8874 25.1099ZM83.9855 17.733C83.4654 17.733 82.9847 17.3852 82.8428 16.8554C82.6694 16.2229 82.4567 15.5983 82.1966 15.0132C81.6923 13.8746 80.9988 12.7914 80.1398 11.8031C79.7143 11.305 79.7616 10.5618 80.258 10.1269C80.7466 9.69997 81.4953 9.74741 81.9287 10.2455C82.9453 11.4157 83.7648 12.6966 84.3637 14.0565C84.6711 14.7523 84.9311 15.4876 85.136 16.2466C85.3094 16.8791 84.9311 17.5275 84.3007 17.7014C84.1904 17.7172 84.0879 17.733 83.9855 17.733ZM47.1523 14.183C46.8844 14.183 46.6086 14.0881 46.3879 13.8984C45.8915 13.4714 45.8284 12.7282 46.254 12.2301C47.0499 11.2892 47.9089 10.4274 48.7915 9.67625C49.5559 9.02791 50.3912 8.41911 51.2738 7.86565C51.8254 7.51776 52.5583 7.6917 52.9051 8.24516C53.2518 8.79862 53.0784 9.53393 52.5268 9.87392C51.7388 10.3641 50.998 10.9018 50.3203 11.4789C49.5322 12.151 48.7678 12.9179 48.0586 13.756C47.8143 14.0407 47.4833 14.183 47.1523 14.183ZM76.0814 8.34795C75.9002 8.34795 75.711 8.30842 75.5377 8.21354C74.8757 7.87356 74.1901 7.57311 73.4966 7.328C72.3697 6.92477 71.164 6.62432 69.9189 6.42666C69.2727 6.32387 68.8314 5.72297 68.9339 5.07463C69.0363 4.4263 69.6431 3.98353 70.2814 4.08631C71.6762 4.29979 73.0317 4.63977 74.3004 5.09835C75.0963 5.38299 75.8765 5.72297 76.6252 6.11039C77.2083 6.41084 77.4368 7.12244 77.1374 7.70752C76.9246 8.11075 76.5148 8.34795 76.0814 8.34795ZM57.6412 7.49404C57.1369 7.49404 56.664 7.16197 56.5143 6.65595C56.3252 6.03133 56.6798 5.36718 57.3023 5.17742C58.4844 4.81372 59.7295 4.52117 61.0061 4.29188C61.9203 4.13375 62.8344 4.00725 63.717 3.92818C64.3632 3.86493 64.9385 4.34723 65.0015 5.00347C65.0646 5.65972 64.5839 6.2369 63.9298 6.29225C63.1102 6.3634 62.2591 6.482 61.4159 6.63223C60.2339 6.8378 59.0833 7.11453 57.9879 7.4466C57.8697 7.47823 57.7515 7.49404 57.6412 7.49404Z" fill="#1E1E1E"/>
<path d="M79.0236 0.156872C77.6918 -0.578438 76.4939 1.46936 77.8336 2.20467C85.8559 6.62444 90.7812 15.6853 90.1744 24.8411C90.0719 26.3671 92.4361 26.3592 92.5385 24.8411C93.1926 14.8947 87.7314 4.95615 79.0236 0.156872Z" fill="#00A99D"/>
<path d="M34.344 44.8922C34.872 44.5285 35.0848 43.8327 34.7301 43.2634C34.407 42.7416 33.6348 42.5044 33.1068 42.876C29.9861 45.0424 25.8174 45.667 22.2397 44.2992C21.6408 44.0699 20.9709 44.1727 20.6399 44.7815C20.3641 45.2875 20.5217 46.1572 21.1206 46.3865C25.4785 48.0548 30.4826 47.5725 34.344 44.8922Z" fill="#FBB03B"/>
</svg>
