<svg width="437" height="413" viewBox="0 0 437 413" fill="none" xmlns="http://www.w3.org/2000/svg">
<path d="M55.2049 95.5845C54.4912 95.5845 53.8795 95.0539 53.8238 94.3641C53.759 93.6301 54.3336 92.9934 55.103 92.9403C56.3358 92.8519 57.5778 92.7988 58.9126 92.7988C59.6819 92.7988 60.3029 93.3913 60.3029 94.1253C60.3029 94.8593 59.6819 95.4518 58.9126 95.4518C57.652 95.4518 56.4748 95.496 55.3162 95.5845C55.2791 95.5845 55.242 95.5845 55.2049 95.5845Z" fill="#1E1E1E"/>
<path d="M29.0848 102.398C28.575 102.398 28.0838 102.124 27.8335 101.656C27.4905 101.002 27.7779 100.206 28.4638 99.8794L28.6955 99.7733C29.9932 99.1634 31.3372 98.7303 32.6348 98.3061C33.3671 98.0674 34.1086 97.8288 34.8409 97.5548L34.9428 97.5194C35.6565 97.2542 36.4629 97.5813 36.7503 98.2619C37.0283 98.9425 36.6854 99.7114 35.9717 99.9854L35.8697 100.021C35.1004 100.312 34.3218 100.56 33.5432 100.816C32.2733 101.232 31.0684 101.621 29.9283 102.151L29.7058 102.257C29.5019 102.354 29.2887 102.398 29.0848 102.398ZM41.7833 97.6962C41.1623 97.6962 40.5969 97.2984 40.4393 96.6974C40.2447 95.9903 40.6989 95.2655 41.4404 95.0799L42.0429 94.9385C42.4971 94.8324 42.9512 94.7263 43.4054 94.5937C43.6001 94.5319 43.7947 94.47 43.9894 94.4081C44.6104 94.2137 45.2499 94.0015 45.9544 93.9043C46.733 93.7894 47.493 93.7364 48.3365 93.6833C49.0873 93.6215 49.7639 94.1872 49.8196 94.9119C49.8752 95.6367 49.2912 96.2731 48.5312 96.3262C47.7526 96.3792 47.0574 96.4234 46.3808 96.5295C45.9173 96.6002 45.4168 96.7593 44.8792 96.9272C44.666 96.9979 44.4528 97.0598 44.2396 97.1305C43.7391 97.2808 43.22 97.4045 42.7102 97.5194L42.1356 97.652C42.0151 97.6873 41.9038 97.6962 41.7833 97.6962Z" fill="#1E1E1E"/>
<path d="M63.4819 181.275C63.0185 181.275 62.555 181.267 62.0916 181.24C60.7198 181.169 59.4221 180.825 58.2449 180.232C57.5683 179.888 57.3088 179.083 57.6703 178.438C58.0317 177.793 58.8752 177.545 59.5519 177.89C60.3861 178.314 61.2666 178.544 62.2491 178.597C63.1668 178.65 64.0937 178.624 65.0113 178.606L65.5304 178.597C66.2997 178.606 66.93 179.163 66.9485 179.897C66.9671 180.63 66.3553 181.231 65.586 181.249L65.0669 181.258C64.5479 181.258 64.0103 181.275 63.4819 181.275ZM54.3056 175.689C53.8236 175.689 53.3602 175.451 53.1006 175.026C52.322 173.754 51.6732 172.445 51.0429 171.173C50.8019 170.687 50.5609 170.209 50.3292 169.75C50.2365 169.573 50.1346 169.378 50.0233 169.193C49.6526 168.548 49.9028 167.743 50.5795 167.39C51.2561 167.036 52.0996 167.275 52.4703 167.92C52.6001 168.15 52.7206 168.371 52.8318 168.583C53.0728 169.051 53.3138 169.537 53.5641 170.041C54.1666 171.261 54.7969 172.525 55.5106 173.701C55.8999 174.337 55.6681 175.141 55.01 175.513C54.7876 175.636 54.5466 175.689 54.3056 175.689ZM46.7977 165.039C46.5752 165.039 46.3621 164.994 46.1489 164.888L45.9728 164.809C45.5742 164.632 45.0551 164.552 44.499 164.464C44.0448 164.393 43.5721 164.323 43.0901 164.181C42.8398 164.11 42.5988 164.04 42.3486 163.96C41.7646 163.783 41.2178 163.615 40.708 163.554C40.504 163.527 40.3094 163.518 40.1055 163.501C39.3362 163.448 38.7615 162.82 38.8078 162.086C38.8542 161.353 39.5215 160.805 40.2909 160.849C40.5319 160.867 40.7729 160.884 41.0231 160.911C41.8017 160.999 42.5432 161.22 43.2013 161.423C43.4238 161.494 43.6462 161.565 43.8687 161.618C44.1931 161.706 44.5639 161.768 44.9532 161.83C45.6391 161.936 46.4177 162.06 47.1685 162.396C47.2612 162.44 47.3538 162.484 47.4465 162.528C48.1232 162.864 48.392 163.669 48.0305 164.314C47.7802 164.782 47.2982 165.039 46.7977 165.039ZM33.5338 162.263C33.3947 162.263 33.2464 162.245 33.1074 162.201C31.3741 161.671 29.7057 160.929 28.0836 160.213L27.8426 160.106C27.4255 159.921 27.0084 159.709 26.6005 159.497C25.9332 159.134 25.6922 158.33 26.0722 157.693C26.4522 157.057 27.2957 156.827 27.9631 157.19C28.306 157.375 28.6583 157.552 29.0105 157.711L29.2515 157.817C30.7901 158.498 32.3844 159.205 33.9509 159.691C34.6831 159.912 35.0817 160.663 34.8407 161.362C34.6646 161.901 34.1177 162.263 33.5338 162.263ZM21.5489 156.173C21.243 156.173 20.9279 156.076 20.6684 155.873C19.9454 155.307 19.278 154.83 18.5643 154.352C18.2677 154.149 17.9433 153.955 17.6281 153.76C17.0349 153.398 16.4232 153.018 15.8578 152.585C15.6075 152.39 15.3572 152.178 15.0977 151.948C14.5416 151.444 14.523 150.605 15.0514 150.074C15.5797 149.544 16.4602 149.526 17.0164 150.03C17.211 150.207 17.3964 150.366 17.5911 150.516C18.0452 150.861 18.5736 151.188 19.1297 151.533C19.4819 151.745 19.8249 151.957 20.1493 152.178C20.9094 152.682 21.6509 153.221 22.4202 153.813C23.0134 154.273 23.1061 155.113 22.6241 155.678C22.3553 156.005 21.9568 156.173 21.5489 156.173ZM12.4746 146.91C11.937 146.91 11.4272 146.61 11.1954 146.115C11.0471 145.796 10.8988 145.505 10.7598 145.213C10.3612 144.418 9.9534 143.587 9.68459 142.526C9.42506 141.527 9.18407 140.599 9.04503 139.6C8.94307 138.876 9.47141 138.204 10.2315 138.107C11.0008 138.001 11.696 138.513 11.7979 139.238C11.9277 140.095 12.1502 140.962 12.3819 141.881C12.5951 142.694 12.9102 143.339 13.281 144.082C13.4385 144.391 13.5961 144.709 13.7537 145.054C14.0596 145.726 13.7352 146.504 13.0307 146.795C12.8453 146.875 12.6599 146.91 12.4746 146.91ZM10.2871 134.244H10.2778C9.50848 134.235 8.89673 133.634 8.89673 132.91C8.91527 131.018 9.01723 129.568 9.21187 128.198C9.28603 127.712 9.3231 127.262 9.35091 126.811L9.38799 126.333C9.45287 125.6 10.111 125.07 10.8896 125.123C11.6589 125.184 12.2243 125.821 12.1594 126.554L12.1223 127.014C12.0853 127.518 12.0389 128.039 11.9648 128.579C11.7794 129.825 11.6867 131.168 11.6682 132.936C11.6682 133.652 11.0471 134.244 10.2871 134.244ZM12.0482 121.375C11.9277 121.375 11.8072 121.357 11.6867 121.331C10.9452 121.136 10.5095 120.411 10.7135 119.704C11.3252 117.565 12.1409 115.444 13.1512 113.393C13.4756 112.731 14.3006 112.448 15.005 112.757C15.7002 113.066 15.9968 113.862 15.6724 114.525C14.7362 116.434 13.9669 118.414 13.4015 120.403C13.2161 120.995 12.6599 121.375 12.0482 121.375ZM18.1379 109.876C17.8877 109.876 17.6281 109.814 17.4057 109.672C16.7568 109.283 16.5529 108.461 16.9608 107.843C17.0071 107.772 17.0535 107.692 17.0998 107.613C17.8228 106.402 18.5087 105.898 19.4541 105.209L19.6024 105.094C19.9083 104.873 20.1771 104.625 20.4366 104.396C20.9742 103.918 21.5767 103.379 22.4388 102.955C23.1247 102.619 23.9589 102.884 24.3111 103.538C24.6633 104.192 24.3852 104.988 23.6993 105.324C23.1895 105.571 22.8002 105.925 22.3461 106.331C22.0402 106.596 21.7065 106.906 21.3079 107.197L21.1504 107.312C20.3161 107.922 19.9639 108.179 19.5283 108.921C19.4634 109.036 19.3985 109.142 19.3244 109.239C19.0556 109.655 18.6014 109.876 18.1379 109.876Z" fill="#1E1E1E"/>
<path d="M72.8345 180.949C72.6769 180.949 72.5286 180.949 72.3803 180.94C71.611 180.923 71.0085 180.313 71.027 179.579C71.0456 178.854 71.6666 178.288 72.4174 178.288C72.4267 178.288 72.4359 178.288 72.4545 178.288C73.3072 178.314 74.5215 178.279 75.0776 177.837C75.6708 177.368 76.5421 177.439 77.0334 178.005C77.5247 178.562 77.4505 179.402 76.8573 179.871C75.7172 180.781 74.2249 180.949 72.8345 180.949Z" fill="#1E1E1E"/>
<path d="M12.0387 157.791C5.34643 148.324 2.43596 136.578 4.16927 125.255C4.4288 123.585 1.75005 122.869 1.49052 124.548C-0.354012 136.578 2.50085 149.032 9.63799 159.134C10.6298 160.54 13.0397 159.214 12.0387 157.791Z" fill="#FBB03B"/>
<path d="M287.198 412.293C287.189 412.293 287.189 412.293 287.18 412.293C286.67 412.293 286.169 412.285 285.66 412.267C284.89 412.24 284.297 411.622 284.325 410.888C284.353 410.154 284.983 409.58 285.771 409.615C286.253 409.633 286.735 409.686 287.198 409.642C288.969 409.642 290.776 409.527 292.723 409.288C293.483 409.191 294.178 409.704 294.28 410.428C294.382 411.153 293.844 411.816 293.084 411.913C291.017 412.17 289.089 412.293 287.198 412.293ZM300.184 410.605C299.554 410.605 298.988 410.199 298.831 409.589C298.655 408.873 299.109 408.157 299.86 407.989C302.26 407.441 304.689 406.787 306.96 406.168C307.692 405.965 308.471 406.371 308.684 407.079C308.897 407.786 308.471 408.519 307.729 408.723C305.43 409.35 302.965 410.013 300.509 410.579C300.407 410.596 300.295 410.605 300.184 410.605ZM314.44 406.725C313.865 406.725 313.318 406.38 313.124 405.824C312.873 405.134 313.263 404.374 313.995 404.144C315.469 403.667 316.757 403.19 317.944 402.677C318.815 402.306 319.695 401.881 320.576 401.422C321.243 401.068 322.096 401.307 322.467 401.952C322.838 402.597 322.587 403.402 321.911 403.755C320.975 404.25 320.02 404.701 319.084 405.099C317.823 405.638 316.451 406.151 314.894 406.654C314.746 406.699 314.588 406.725 314.44 406.725ZM327.444 400.052C327.018 400.052 326.61 399.866 326.332 399.521C325.869 398.938 325.989 398.107 326.61 397.665C327.009 397.383 327.398 397.091 327.787 396.799C329.317 395.65 330.781 394.439 332.134 393.193C332.691 392.68 333.571 392.698 334.099 393.228C334.628 393.759 334.619 394.598 334.062 395.102C332.635 396.41 331.106 397.674 329.511 398.876C329.113 399.177 328.696 399.477 328.288 399.778C328.028 399.963 327.732 400.052 327.444 400.052ZM338.067 390.241C337.77 390.241 337.464 390.152 337.214 389.958C336.611 389.507 336.5 388.676 336.973 388.093C338.493 386.228 339.809 384.31 340.884 382.374C341.246 381.729 342.089 381.482 342.766 381.817C343.443 382.162 343.702 382.958 343.35 383.612C342.201 385.68 340.792 387.739 339.17 389.719C338.892 390.064 338.484 390.241 338.067 390.241ZM344.861 377.778C344.74 377.778 344.62 377.761 344.49 377.734C343.749 377.54 343.313 376.815 343.517 376.108C343.98 374.49 344.286 372.846 344.425 371.229C344.472 370.654 344.499 370.053 344.509 369.461C344.518 368.736 345.139 368.153 345.899 368.153C345.908 368.153 345.908 368.153 345.917 368.153C346.687 368.162 347.299 368.763 347.289 369.496C347.28 370.15 347.252 370.804 347.197 371.441C347.039 373.226 346.705 375.029 346.196 376.806C346.038 377.389 345.473 377.778 344.861 377.778ZM345.13 363.786C344.49 363.786 343.915 363.362 343.776 362.744C343.285 360.596 342.544 358.413 341.58 356.265C341.274 355.593 341.607 354.815 342.312 354.523C343.016 354.232 343.832 354.55 344.138 355.222C345.167 357.529 345.964 359.871 346.492 362.178C346.659 362.894 346.186 363.601 345.435 363.76C345.334 363.769 345.232 363.786 345.13 363.786ZM339.355 350.838C338.91 350.838 338.465 350.634 338.196 350.254C336.815 348.292 335.258 346.595 333.58 345.207C332.996 344.73 332.932 343.89 333.432 343.334C333.933 342.777 334.813 342.715 335.397 343.192C337.26 344.73 338.984 346.604 340.504 348.761C340.931 349.371 340.764 350.193 340.124 350.599C339.893 350.767 339.624 350.838 339.355 350.838ZM328.158 341.937C328 341.937 327.834 341.911 327.676 341.858C325.581 341.124 323.329 340.744 320.993 340.744C320.224 340.744 319.547 340.152 319.547 339.418C319.547 338.684 320.122 338.092 320.882 338.092V339.418L320.919 338.092C323.653 338.092 326.221 338.525 328.631 339.365C329.354 339.621 329.715 340.382 329.456 341.071C329.252 341.601 328.723 341.937 328.158 341.937Z" fill="#1E1E1E"/>
<path d="M338.521 360.445C338.021 358.81 335.342 359.508 335.842 361.152C337.483 366.517 336.658 372.333 333.59 377.106C332.654 378.564 335.054 379.899 335.991 378.441C339.429 373.093 340.356 366.464 338.521 360.445Z" fill="#FBB03B"/>
<path d="M373.716 187.119C373.596 187.119 373.475 187.101 373.345 187.074C372.224 186.783 371.056 186.553 369.879 186.385C369.119 186.279 368.6 185.607 368.711 184.881C368.822 184.156 369.526 183.652 370.287 183.767C371.575 183.953 372.845 184.201 374.078 184.519C374.819 184.713 375.255 185.439 375.051 186.146C374.893 186.738 374.328 187.119 373.716 187.119Z" fill="#1E1E1E"/>
<path d="M389.621 209.127C389.612 209.127 389.603 209.127 389.593 209.127C388.824 209.109 388.212 208.508 388.231 207.775C388.24 207.324 388.249 206.864 388.249 206.413C388.249 204.151 388.11 202.33 387.804 200.695C387.675 199.97 388.175 199.289 388.935 199.157C389.695 199.033 390.409 199.51 390.548 200.235C390.882 202.029 391.03 203.992 391.03 206.413C391.03 206.882 391.021 207.359 391.011 207.828C390.993 208.552 390.372 209.127 389.621 209.127ZM386.386 194.994C385.941 194.994 385.506 194.79 385.237 194.419C383.958 192.643 382.215 191.087 380.055 189.805C379.407 189.416 379.203 188.603 379.61 187.976C380.018 187.357 380.871 187.162 381.529 187.551C384.013 189.027 386.034 190.831 387.536 192.917C387.971 193.518 387.814 194.348 387.174 194.764C386.933 194.923 386.655 194.994 386.386 194.994Z" fill="#1E1E1E"/>
<path d="M357.003 264.094C356.345 264.094 355.761 263.652 355.641 263.007C355.502 262.291 356.002 261.593 356.753 261.46C359.219 261.027 361.592 260.347 363.825 259.427C364.53 259.136 365.346 259.445 365.651 260.117C365.957 260.789 365.633 261.566 364.928 261.858C362.509 262.857 359.923 263.599 357.263 264.068C357.17 264.094 357.087 264.094 357.003 264.094ZM371.018 258.27C370.601 258.27 370.184 258.093 369.915 257.748C369.452 257.165 369.563 256.334 370.175 255.892C372.149 254.451 373.901 252.79 375.384 250.969C375.857 250.394 376.728 250.288 377.33 250.739C377.933 251.19 378.044 252.021 377.571 252.595C375.94 254.601 374.012 256.422 371.852 257.996C371.611 258.181 371.315 258.27 371.018 258.27ZM380.315 246.753C380.139 246.753 379.963 246.717 379.796 246.655C379.082 246.381 378.739 245.612 379.027 244.932C379.703 243.341 380.25 241.635 380.788 239.991C381.001 239.337 381.205 238.692 381.427 238.047C381.659 237.348 382.447 236.968 383.179 237.189C383.911 237.41 384.31 238.161 384.078 238.86C383.865 239.496 383.652 240.141 383.448 240.778C382.901 242.475 382.326 244.234 381.613 245.931C381.39 246.434 380.871 246.753 380.315 246.753ZM403.766 245.754C403.46 245.754 403.154 245.745 402.848 245.719C400.475 245.551 398.149 244.799 396.109 243.544C395.461 243.146 395.275 242.324 395.692 241.715C396.109 241.096 396.971 240.919 397.611 241.317C399.261 242.333 401.142 242.934 403.052 243.076C403.404 243.102 403.766 243.102 404.127 243.093C404.146 243.093 404.155 243.093 404.173 243.093C404.924 243.093 405.536 243.659 405.564 244.375C405.592 245.109 404.989 245.719 404.22 245.745C404.062 245.745 403.914 245.754 403.766 245.754ZM410.819 242.59C410.56 242.59 410.3 242.519 410.069 242.377C409.42 241.98 409.244 241.158 409.661 240.548C410.189 239.77 410.449 238.869 410.449 237.861C410.449 236.88 410.189 235.801 409.707 234.75C409.401 234.078 409.716 233.3 410.421 233.008C411.125 232.717 411.941 233.017 412.247 233.689C412.896 235.103 413.22 236.509 413.22 237.87C413.22 239.399 412.803 240.787 411.978 241.997C411.718 242.377 411.273 242.59 410.819 242.59ZM391.92 238.241C391.401 238.241 390.9 237.958 390.659 237.481C389.704 235.545 389.028 233.238 388.574 230.436C388.018 231.029 387.498 231.691 387.007 232.425C386.599 233.044 385.737 233.229 385.089 232.841C384.44 232.452 384.245 231.63 384.653 231.011C386.321 228.492 388.351 226.671 390.696 225.602L390.807 225.549C391.512 225.248 392.328 225.54 392.652 226.203C392.967 226.866 392.661 227.652 391.966 227.962L391.91 227.988C391.466 228.191 391.03 228.43 390.613 228.704C390.956 228.907 391.215 229.252 391.271 229.659L391.28 229.729C391.697 232.425 392.318 234.582 393.19 236.349C393.514 237.012 393.217 237.799 392.522 238.117C392.318 238.206 392.124 238.241 391.92 238.241ZM406.018 230.021C405.74 230.021 405.471 229.941 405.221 229.782C403.552 228.677 401.643 227.864 399.687 227.422C399.363 227.352 399.038 227.29 398.714 227.237C397.954 227.122 397.444 226.432 397.565 225.716C397.685 224.992 398.408 224.506 399.159 224.62C399.548 224.682 399.937 224.753 400.317 224.841C402.616 225.354 404.859 226.309 406.806 227.599C407.436 228.015 407.594 228.845 407.158 229.446C406.889 229.818 406.454 230.021 406.018 230.021ZM389.278 223.843C388.527 223.843 387.906 223.268 387.888 222.552C387.869 221.792 387.86 221.041 387.86 220.281C387.86 218.778 387.888 217.187 387.962 215.128C387.99 214.394 388.657 213.802 389.399 213.846C390.168 213.873 390.77 214.482 390.743 215.216C390.678 217.249 390.641 218.813 390.641 220.29C390.641 221.023 390.65 221.766 390.668 222.499C390.687 223.233 390.075 223.843 389.315 223.86C389.306 223.843 389.297 223.843 389.278 223.843Z" fill="#1E1E1E"/>
<path d="M349.291 264.837C349.254 264.837 349.208 264.837 349.162 264.829C347.28 264.669 345.853 264.095 344.898 263.113C344.379 262.574 344.407 261.734 344.972 261.239C345.537 260.744 346.418 260.771 346.937 261.31C347.401 261.787 348.235 262.088 349.403 262.185C350.172 262.247 350.728 262.892 350.663 263.626C350.608 264.316 350.005 264.837 349.291 264.837Z" fill="#1E1E1E"/>
<path d="M416.177 231.806C414.925 227.352 411.598 223.463 407.232 221.465C406.555 221.156 405.73 221.289 405.332 221.943C404.98 222.526 405.146 223.445 405.832 223.754C409.633 225.496 412.423 228.686 413.498 232.513C413.693 233.203 414.49 233.627 415.213 233.441C415.936 233.238 416.371 232.495 416.177 231.806Z" fill="#FBB03B"/>
<path d="M409.271 3.40527C408.576 3.40527 407.964 2.9013 407.89 2.2205C407.807 1.49548 408.354 0.841201 409.123 0.761627C410.458 0.620161 411.783 0.593637 413.072 0.673212C413.841 0.726262 414.416 1.35402 414.369 2.08787C414.314 2.82173 413.637 3.36991 412.886 3.3257C411.765 3.25497 410.597 3.28149 409.429 3.40527C409.373 3.39643 409.318 3.40527 409.271 3.40527Z" fill="#1E1E1E"/>
<path d="M434.705 25.6348C434.066 25.6348 433.482 25.2105 433.343 24.583C432.768 21.9755 431.906 19.4565 430.785 17.0965C430.469 16.4336 430.775 15.647 431.48 15.3465C432.184 15.046 433 15.3376 433.324 16.0094C434.529 18.5461 435.447 21.2419 436.068 24.035C436.226 24.7509 435.744 25.458 434.993 25.6083C434.9 25.6171 434.798 25.6348 434.705 25.6348ZM427.587 10.9271C427.188 10.9271 426.79 10.7592 426.512 10.441C424.695 8.33736 422.646 6.66683 420.431 5.4736C419.764 5.11121 419.523 4.30689 419.903 3.6705C420.283 3.03411 421.126 2.8043 421.794 3.16669C424.315 4.51902 426.623 6.40167 428.653 8.76161C429.144 9.32729 429.051 10.1581 428.458 10.6266C428.208 10.8299 427.902 10.9271 427.587 10.9271Z" fill="#1E1E1E"/>
<path d="M384.801 94.4165C384.616 94.4165 384.43 94.3812 384.254 94.3104C383.55 94.0188 383.216 93.241 383.522 92.5692C383.809 91.924 383.958 91.1373 383.958 90.1739C383.958 88.6271 383.587 86.8594 383.253 85.3038C383.105 84.5878 383.587 83.8896 384.338 83.7393C385.088 83.5979 385.821 84.0575 385.978 84.7734C386.331 86.4528 386.738 88.3531 386.738 90.1739C386.738 91.4997 386.525 92.6222 386.08 93.6122C385.858 94.116 385.348 94.4165 384.801 94.4165ZM383.856 78.2505C383.086 78.2505 382.465 77.6494 382.465 76.9158C382.475 74.4056 382.586 71.4358 383.337 68.4925C383.522 67.7766 384.273 67.3435 385.014 67.5202C385.756 67.697 386.219 68.413 386.034 69.12C385.357 71.7982 385.255 74.5647 385.246 76.9247C385.246 77.6583 384.625 78.2505 383.856 78.2505ZM388.537 62.9418C388.212 62.9418 387.888 62.8357 387.619 62.6147C387.044 62.1374 386.979 61.2978 387.489 60.7409C389.343 58.7169 391.697 57.0198 394.682 55.5349C395.359 55.199 396.202 55.4465 396.554 56.1006C396.906 56.7547 396.647 57.5501 395.961 57.886C393.282 59.2118 391.197 60.7144 389.584 62.4822C389.315 62.7827 388.926 62.9418 388.537 62.9418ZM403.293 55.0576C402.7 55.0576 402.143 54.6864 401.967 54.1119C401.745 53.4136 402.162 52.6712 402.894 52.459C405.656 51.6635 408.446 51.0183 411.144 50.3908L411.264 50.3643C412.015 50.1963 412.766 50.6294 412.942 51.3365C413.127 52.0525 412.664 52.7684 411.922 52.9363L411.802 52.9628C409.142 53.5727 406.398 54.2091 403.71 54.9869C403.562 55.0399 403.432 55.0576 403.293 55.0576ZM419.857 50.8415C419.273 50.8415 418.735 50.488 418.54 49.94C418.299 49.2417 418.689 48.4904 419.421 48.2606C422.406 47.306 424.843 46.2366 426.864 44.9815C427.504 44.5837 428.366 44.7517 428.792 45.3704C429.209 45.9802 429.033 46.8022 428.384 47.2088C426.169 48.5877 423.527 49.7544 420.311 50.7797C420.153 50.8239 420.005 50.8415 419.857 50.8415ZM433.501 41.5962C433.269 41.5962 433.037 41.5432 432.824 41.4283C432.157 41.0747 431.906 40.2704 432.277 39.6252C432.861 38.6264 433.306 37.5392 433.603 36.3902C433.927 35.1528 434.112 33.8005 434.159 32.3774C434.186 31.6438 434.826 31.087 435.595 31.0958C436.365 31.1223 436.967 31.7322 436.939 32.4658C436.884 34.0745 436.671 35.6124 436.3 37.0266C435.948 38.3966 435.41 39.7047 434.715 40.9156C434.465 41.3487 433.992 41.5962 433.501 41.5962Z" fill="#1E1E1E"/>
<path d="M377.404 97.2549C377.367 97.2549 377.33 97.2549 377.293 97.2549C375.912 97.1488 374.614 96.9366 373.669 96.7863L373.511 96.7598C372.751 96.6361 372.241 95.9553 372.371 95.2304C372.501 94.5055 373.205 94.0281 373.975 94.143L374.132 94.1696C375.031 94.311 376.255 94.5055 377.525 94.6027C378.294 94.6646 378.86 95.3011 378.795 96.0349C378.73 96.7333 378.127 97.2549 377.404 97.2549Z" fill="#1E1E1E"/>
<path d="M397.333 61.4394C397.018 60.8561 396.082 60.4672 395.46 60.8738C390.261 64.2147 387.433 70.1365 388.249 76.076C388.351 76.783 389.222 77.225 389.908 77.0836C390.696 76.9156 391.067 76.2174 390.965 75.5015C390.325 70.8524 392.643 65.8587 396.73 63.2248C397.351 62.8271 397.704 62.1288 397.333 61.4394Z" fill="#00A99D"/>
<path d="M137.365 331.366C137.003 331.366 136.642 331.366 136.28 331.357C135.511 331.348 134.899 330.738 134.918 330.005C134.927 329.28 135.548 328.705 136.308 328.705C136.317 328.705 136.327 328.705 136.336 328.705C138.737 328.749 141.044 328.643 143.204 328.422C143.964 328.334 144.65 328.864 144.743 329.589C144.836 330.314 144.279 330.977 143.519 331.056C141.564 331.26 139.497 331.366 137.365 331.366ZM128.921 330.8C128.856 330.8 128.791 330.8 128.726 330.782C126.084 330.42 123.572 329.898 121.274 329.227C120.541 329.015 120.124 328.272 120.347 327.574C120.569 326.876 121.348 326.478 122.08 326.699C124.24 327.326 126.603 327.821 129.106 328.166C129.866 328.272 130.394 328.944 130.283 329.669C130.19 330.323 129.597 330.8 128.921 330.8ZM114.878 326.496C114.637 326.496 114.396 326.434 114.174 326.31C112.375 325.293 110.828 324.136 109.576 322.863C109.113 322.394 108.668 321.899 108.242 321.396C107.76 320.83 107.852 319.99 108.445 319.531C109.048 319.071 109.919 319.159 110.401 319.725C110.79 320.176 111.189 320.627 111.606 321.042C112.681 322.129 114.025 323.137 115.592 324.021C116.25 324.392 116.472 325.205 116.083 325.841C115.814 326.266 115.351 326.496 114.878 326.496ZM105.414 315.898C104.895 315.898 104.395 315.615 104.154 315.138C103.144 313.105 102.263 310.877 101.475 308.332C101.253 307.634 101.679 306.891 102.411 306.688C103.153 306.476 103.922 306.882 104.135 307.581C104.886 309.994 105.711 312.097 106.666 314.006C106.99 314.669 106.703 315.456 106.008 315.774C105.822 315.863 105.618 315.898 105.414 315.898ZM80.0359 308.35C78.1636 308.35 76.2727 307.881 74.5487 306.988C73.872 306.644 73.6218 305.839 73.9833 305.194C74.3448 304.549 75.1882 304.31 75.8649 304.655C77.7372 305.618 79.8784 305.928 81.76 305.503C81.8434 305.486 81.9268 305.468 82.0102 305.442C82.7517 305.247 83.5211 305.663 83.7157 306.37C83.9196 307.077 83.484 307.81 82.7425 307.996C82.622 308.023 82.5107 308.058 82.3903 308.084C81.6395 308.261 80.8423 308.35 80.0359 308.35ZM88.3224 304.045C88.0258 304.045 87.7292 303.957 87.4789 303.771C86.8672 303.329 86.7559 302.489 87.2194 301.915C88.0629 300.872 88.7673 299.643 89.2586 298.362C89.5366 297.637 89.7776 296.85 89.9723 296.028C90.1391 295.312 90.8714 294.862 91.6314 295.021C92.3822 295.18 92.855 295.887 92.6881 296.603C92.4657 297.54 92.1969 298.432 91.8724 299.272C91.2792 300.819 90.4543 302.26 89.4347 303.532C89.1566 303.868 88.7395 304.045 88.3224 304.045ZM101.039 302.419C100.4 302.419 99.816 301.986 99.6769 301.367L99.4359 300.236C99.0374 298.362 98.6295 296.426 98.0085 294.641C97.7675 293.942 98.1661 293.2 98.8891 292.97C99.6213 292.74 100.4 293.12 100.641 293.81C101.308 295.745 101.735 297.77 102.152 299.714L102.393 300.828C102.55 301.544 102.068 302.251 101.318 302.401C101.225 302.41 101.132 302.419 101.039 302.419ZM70.424 301.959C69.8586 301.959 69.321 301.623 69.117 301.084C68.6443 299.847 68.4033 298.521 68.4033 297.142C68.4033 295.834 68.6165 294.535 69.0429 293.279C69.2746 292.581 70.0625 292.201 70.7947 292.422C71.527 292.643 71.9255 293.394 71.6938 294.093C71.3601 295.091 71.184 296.117 71.184 297.142C71.184 298.203 71.3694 299.228 71.7309 300.183C71.9904 300.872 71.6197 301.632 70.8967 301.88C70.7391 301.933 70.5815 301.959 70.424 301.959ZM92.0485 290.61C92.0393 290.61 92.03 290.61 92.0207 290.61C91.2514 290.601 90.6397 289.991 90.6582 289.258C90.6675 288.71 90.6675 288.153 90.6675 287.605V287.128C90.0279 286.933 89.3513 286.783 88.6376 286.668C87.8775 286.544 87.3677 285.864 87.4975 285.139C87.6272 284.414 88.3409 283.928 89.101 284.052C89.6386 284.14 90.1484 284.237 90.6489 284.361C90.6489 283.645 90.6397 282.92 90.6397 282.204C90.6397 281.471 91.2607 280.879 92.03 280.879C92.7993 280.879 93.4204 281.471 93.4204 282.204C93.4204 283.08 93.4296 283.963 93.4296 284.838V285.325C94.5604 285.837 95.5708 286.482 96.4606 287.243C97.0353 287.729 97.0816 288.568 96.5626 289.116C96.0435 289.664 95.1722 289.709 94.5975 289.214C94.236 288.904 93.8467 288.621 93.4296 288.365C93.4296 288.683 93.4204 288.993 93.4204 289.311C93.4296 290.036 92.8086 290.61 92.0485 290.61ZM74.6692 289.399C74.2428 289.399 73.8164 289.205 73.5383 288.851C73.0842 288.259 73.2325 287.428 73.8535 287.004C75.8834 285.607 78.3768 284.644 81.2409 284.158C82.0009 284.034 82.7239 284.511 82.8537 285.227C82.9927 285.952 82.4829 286.633 81.7322 286.765C79.2759 287.181 77.1718 287.985 75.4756 289.152C75.2438 289.32 74.9565 289.399 74.6692 289.399ZM92.1783 276.477C92.1505 276.477 92.132 276.477 92.1042 276.477C91.3348 276.442 90.7509 275.814 90.788 275.089C90.8807 273.383 91.0104 271.837 91.1958 270.361C91.3163 269.424 91.4461 268.61 91.5944 267.877C91.7427 267.161 92.4749 266.692 93.2257 266.834C93.9765 266.975 94.4678 267.674 94.3195 268.39C94.1804 269.061 94.0599 269.804 93.9487 270.679C93.7726 272.093 93.6428 273.587 93.5501 275.231C93.5223 275.92 92.9106 276.477 92.1783 276.477ZM96.0435 263.122C95.6913 263.122 95.339 262.998 95.0702 262.742C94.5234 262.229 94.5141 261.389 95.0517 260.868C97.3319 258.649 100.446 257.695 103.134 258.411C103.876 258.605 104.302 259.339 104.098 260.046C103.894 260.753 103.125 261.159 102.383 260.965C100.65 260.496 98.611 261.186 97.0353 262.724C96.7665 262.989 96.405 263.122 96.0435 263.122Z" fill="#1E1E1E"/>
<path d="M76.4119 310.356C76.3934 310.356 76.2451 310.338 76.1802 310.329C76.1246 310.321 76.0504 310.312 76.0319 310.312C75.828 310.276 75.6241 310.241 75.4294 310.206C75.003 310.117 74.5859 310.011 74.1781 309.879C73.9834 309.817 73.7888 309.755 73.5941 309.684C73.5756 309.675 73.4273 309.622 73.3717 309.596C73.3253 309.578 73.2419 309.543 73.2326 309.534C72.8341 309.366 72.454 309.172 72.0833 308.959C71.7311 308.765 71.3881 308.544 71.0544 308.314C70.9988 308.279 70.9432 308.235 70.8876 308.199C70.869 308.191 70.7578 308.102 70.7393 308.084C70.5817 307.961 70.4241 307.837 70.2758 307.704C69.9514 307.43 69.6455 307.13 69.3582 306.829C69.2191 306.679 69.0894 306.529 68.9596 306.379C68.9503 306.361 68.9318 306.343 68.9133 306.326C68.8298 306.228 68.7557 306.122 68.6815 306.016C68.2459 305.433 67.4673 305.159 66.7814 305.539C66.1789 305.875 65.8452 306.768 66.2808 307.351C68.6537 310.559 72.315 312.592 76.4119 313.007C77.1349 313.078 77.8301 312.345 77.8023 311.682C77.7652 310.904 77.1813 310.435 76.4119 310.356Z" fill="#00A99D"/>
</svg>
