<svg width="163" height="161" viewBox="0 0 163 161" fill="none" xmlns="http://www.w3.org/2000/svg">
<path d="M80.55 149.25C64.99 150.16 49.36 149.05 33.81 148.37C31.27 148.26 31.27 152.33 33.81 152.44C49.36 153.12 64.99 154.23 80.55 153.32C83.08 153.17 83.1 149.1 80.55 149.25Z" fill="#00A99D"/>
<path d="M65.4739 68.0974C57.8745 67.7381 49.9623 68.4401 42.3794 69.1086C38.625 69.4345 34.9117 70.0697 31.1738 70.4708C27.6664 70.8469 24.0766 70.5377 20.6186 71.2731C17.2183 72.0002 17.0371 77.9504 20.6186 78.5354C21.796 78.7276 23.9284 79.2624 25.7068 79.3209C24.5295 81.3768 24.8341 84.6277 27.6252 85.1458C32.9275 86.1319 38.5591 86.1403 43.9272 85.7893C49.0154 85.455 53.7084 83.8923 58.6814 82.9312C61.6124 82.3629 61.9006 79.2374 60.5339 77.2568C60.7891 77.1815 61.0361 77.1063 61.2914 77.0395C63.3579 76.4795 65.5727 76.4963 67.3182 75.109C70.1175 72.9027 69.3683 68.2813 65.4739 68.0974Z" fill="#00A99D"/>
<path d="M114.45 60.35C113.98 60.34 113.52 60.31 113.06 60.28C112.87 60.26 112.76 60.25 112.68 60.24C112.51 60.21 112.34 60.18 112.17 60.15C111.95 60.1 111.72 59.97 111.63 59.92C111.59 59.89 111.56 59.86 111.52 59.83C111.28 59.63 111.05 59.43 110.81 59.23C109.04 57.71 106.24 57.34 104.52 59.23C103 60.9 102.62 63.98 104.52 65.6C106.01 66.88 107.42 68.16 109.34 68.73C110.96 69.21 112.77 69.32 114.45 69.37C116.78 69.43 119 67.26 118.89 64.87C118.79 62.36 116.94 60.41 114.45 60.35Z" fill="#FBB03B"/>
<path d="M108.33 128.12C105.12 127.94 101.82 128.23 98.6 128.29C98.23 128.3 97.87 128.3 97.5 128.31C98.5 127.48 99.49 126.63 100.44 125.74C103.36 123.01 106.88 119.8 105.16 115.39C103.18 110.32 97.51 110.77 93.06 110.9C86.85 111.08 80.63 111.43 74.42 111.2C68.43 110.98 62.53 109.84 56.56 109.49C52.44 109.25 45.38 107 45.38 111.2C47.0001 125.74 36.3901 118.2 39.5001 120.5C40.2401 121.05 39.0901 141.79 40.0001 142.14C36.2201 142.2 36.2801 142.13 32.5001 142.14C23.8701 142.15 42.0001 116 8.17996 122.1C3.63996 121.96 2.71996 127.6 5.38996 130.02C5.01996 130.34 4.69996 130.7 4.46996 131.1C-0.0800352 138.99 7.44997 145.01 14.63 145.91C25.9 147.32 37.42 146.74 48.72 146.24C59.75 145.75 70.57 144.72 81.51 143.3C86.96 142.59 92.44 142.02 97.94 142.14C103.14 142.25 108.11 142.77 113.19 141.31C115.27 140.71 116.2 138.98 116.45 136.97C117.11 131.74 113.13 128.39 108.33 128.12Z" fill="#FBB03B"/>
<path d="M161.84 29.62C161.54 23.85 152.65 23.82 152.95 29.62C153.83 46.59 149.36 64.16 152.06 80.96C152.98 86.67 161.54 84.25 160.63 78.57C159.34 70.56 160.69 61.7 161.24 53.67C161.79 45.65 162.26 37.65 161.84 29.62Z" fill="#00A99D"/>
<path d="M109.95 26.9799C90.9699 25.7799 71.9299 28.2199 52.9899 26.8799C47.2799 26.4799 47.3099 35.4899 52.9899 35.8899C71.9299 37.2299 90.9699 34.7799 109.95 35.9899C115.66 36.3499 115.64 27.3399 109.95 26.9799Z" fill="#FBB03B"/>
<path d="M101.92 102.16C102.87 100.66 103.32 98.85 102.98 96.68C102.08 90.9 94.28 87.06 89.64 84.99C85.78 83.27 77.82 80.61 75.35 85.78C74.35 87.88 74.7499 89.55 75.7399 90.99C75.3199 91.03 74.91 91.11 74.47 91.3C72.2 92.25 71.07 94.71 70.87 97.06C70.67 99.41 71.41 101.7 72.83 103.55C73.09 103.89 73.38 104.22 73.68 104.53C72.61 105.38 71.8 106.43 71.26 107.72C69.85 111.13 70.73 114.94 73.04 117.69C76.04 121.28 81.3299 123.81 86.1699 123.59C92.4699 127.15 98.98 121.53 98.93 115.47C102.13 114.5 104.85 112.68 105.12 108.84C105.32 106.12 103.93 103.86 101.92 102.16Z" fill="#00A99D"/>
<path d="M118.59 78.71C118.39 72.69 118.09 66.67 117.73 60.66C117.65 59.42 116.67 58.8 115.73 58.8C115.43 58.35 114.95 58.02 114.26 58.01C86.36 57.59 58.45 57.61 30.54 58.09C22.65 58.22 14.75 58.4 6.85995 58.6C6.06995 57.99 5.05995 57.8 4.08995 58.13C3.28995 58.41 2.74995 59.11 2.71995 60C2.56995 65.52 2.72995 71.04 2.66995 76.56C2.60995 82.06 2.35995 87.56 2.07995 93.05C1.50995 103.94 0.779953 114.84 1.05995 125.75C1.21995 131.94 1.72995 138.11 2.70995 144.22C2.85995 145.16 3.90995 145.72 4.77995 145.61C5.23995 145.72 5.70995 145.74 6.19995 145.75C7.28995 145.77 8.36995 145.77 9.45995 145.77C13.18 145.8 16.91 145.82 20.63 145.85C28.23 145.9 35.84 145.96 43.44 146.01C51.04 146.06 58.65 146.12 66.25 146.17C73.81 146.22 81.38 146.4 88.93 146.14C97.27 145.85 105.68 144.04 114.02 144.9C114.35 144.93 114.66 144.83 114.93 144.66C115.77 144.46 116.27 143.68 116.37 142.78C118.83 121.52 119.3 100.08 118.59 78.71ZM114.44 69.23C114.27 69.23 114.1 69.25 113.93 69.32C112.52 69.85 110.74 69.52 109.3 69.26C107.66 68.96 106.04 68.48 104.58 67.63C102.39 66.35 100.72 64.19 100.42 61.74C104.96 61.79 109.5 61.82 114.04 61.88C114.19 64.32 114.32 66.77 114.44 69.23ZM79.9 116.04C79.98 117.14 80.05 118.24 80.12 119.35C77.48 118.08 74.9799 116.35 73.13 114.12C72.03 112.8 71.72 111.32 72.94 109.96C73.84 108.96 75.13 108.63 76.42 108.58C77 108.64 77.58 108.68 78.18 108.64C80.74 108.47 80.7 104.82 78.18 104.57C77.72 104.52 77.25 104.51 76.78 104.52C73.69 104.09 71.03 101.62 71.41 98.11C71.8 94.61 75.53 92.57 78.48 94.48C80.35 95.69 82.59 92.81 80.87 91.29C79.89 90.42 78.31 89.13 78.15 87.69C77.99 86.17 80.06 85.61 81.14 85.34C84.31 84.54 88.02 85.15 91 86.45C93.54 87.56 96.03 89.48 96.97 92.26C98.08 95.57 94.87 96.73 92.37 97.49C90.59 98.03 90.39 100.99 92.37 101.41C94.16 101.8 96.01 102.23 97.65 103.1C98.95 103.79 100.76 105.08 100.92 106.75C101.09 108.47 98.95 110.05 97.63 110.65C96.09 111.34 94.42 111.41 92.82 110.9C90.92 110.3 89.52 112.89 90.9 114.3C92.55 115.98 92.2999 118.9 90.74 120.57C89.1199 122.3 86.68 122.52 84.51 121.98C84.44 121.72 84.33 121.48 84.16 121.27C84.07 119.53 83.96 117.78 83.85 116.04C83.67 113.44 79.72 113.42 79.9 116.04ZM114.26 124.8C113.91 130.19 113.43 135.58 112.84 140.95C106.24 140.48 99.67 141.65 93.09 142.07C90.0499 142.26 87.01 142.34 83.96 142.37C83.97 142.18 83.97 141.98 83.92 141.76C83.0499 137.61 83.9699 133.33 84.2 129.16C84.2599 128.14 84.28 127.12 84.28 126.11C87.77 126.77 91.65 125.81 93.96 122.94C95.68 120.8 96.32 117.87 95.73 115.24C97.07 115.12 98.38 114.75 99.62 114.15C102.08 112.95 104.52 110.45 104.82 107.56C105.14 104.56 103.1 101.92 100.82 100.31C100.08 99.79 99.29 99.36 98.46 99C99.5499 98.15 100.44 97.07 100.9 95.63C102.04 92 99.71 87.92 97.1 85.62C94.53 83.34 91.27 81.93 87.94 81.34C84.2 80.68 79.64 80.62 76.45 83.07C74.66 84.45 73.79 86.68 74.36 88.94C74.44 89.25 74.54 89.54 74.66 89.83C71.18 90.46 68.11 93.3 67.54 97.22C67 100.89 68.5 104.2 71.02 106.31C70.7999 106.47 70.59 106.64 70.39 106.83C68.25 108.85 67.55 111.96 68.76 114.68C69.88 117.18 72.26 119.07 74.39 120.62C76.22 121.95 78.21 123.02 80.29 123.86C80.34 125.8 80.3299 127.74 80.2 129.68C79.92 133.96 79.22 138.15 80.01 142.41C77.28 142.41 74.55 142.38 71.82 142.36C57.7 142.26 43.58 142.16 29.46 142.06C25.43 142.03 21.39 142 17.36 141.97C15.34 141.96 13.33 141.94 11.31 141.93C10.38 141.92 9.44995 141.92 8.51995 141.91C8.04995 141.91 7.58995 141.9 7.11995 141.9C7.01995 141.9 6.83995 141.91 6.64995 141.92C6.62995 141.89 6.61995 141.85 6.60995 141.82C6.44995 141.54 6.24995 141.34 6.02995 141.19C3.08995 120.39 6.01995 99.31 6.39995 78.44C6.49995 73.11 6.36995 67.78 6.43995 62.44C6.52995 62.45 6.60995 62.46 6.69995 62.46C34.6 61.73 62.51 61.45 90.41 61.62C92.42 61.63 94.43 61.67 96.44 61.68C96.7 65.57 99.14 69 102.36 70.99C104.15 72.1 106.2 72.8 108.26 73.17C110.25 73.53 112.63 73.94 114.63 73.34C115.34 90.49 115.38 107.67 114.26 124.8Z" fill="#1E1E1E"/>
<path d="M131.38 126.4C129.61 118.97 131.58 111.85 130.62 104.85C130.57 103.38 130.51 101.9 130.46 100.43C130.06 90.11 129.66 79.72 131.11 68.91C131.17 67.43 131.23 65.95 131.28 64.47C131.44 60.02 131.55 55.54 131.53 51.02C131.53 49.79 131.53 48.57 131.53 47.34C131.53 46.64 131.23 46.15 130.8 45.84C130.54 45.24 130 44.79 129.17 44.81C113.51 45.18 97.9299 44.21 82.2899 43.48C78.3599 43.3 74.4299 43.15 70.4899 43.08C66.7399 43.02 62.8099 42.77 59.1199 43.31C55.25 43.88 51.2099 43.89 47.2999 44.12C43.3099 44.36 39.32 44.55 35.33 44.63C30.38 44.73 25.4299 44.67 20.4899 44.33C18.6599 44.2 16.3899 44.28 15.5799 45.97C15.2699 46.62 15.2599 47.37 15.2599 48.09C15.2599 49.35 15.2599 50.61 15.2599 51.87C15.2599 53 15.2799 54.21 15.9099 55.13C16.5399 56.05 18.0199 56.44 18.7299 55.57C19.1499 55.06 19.1499 54.33 19.1399 53.66C19.0999 51.85 19.0599 50.04 19.0199 48.24C34.9299 48.82 50.6499 47.6 66.4999 46.79C68.4899 46.69 70.4999 46.53 72.4899 46.53C73.7699 46.49 75.04 46.46 76.2999 46.51C85.16 47.76 94.0499 48.77 103.07 48.13C104.27 48.26 105.47 48.36 106.66 48.45C112.65 48.89 118.67 48.87 124.68 48.75C125.71 48.73 126.74 48.71 127.77 48.68C127.74 53.28 127.65 57.81 127.54 62.3C127.51 63.8 127.47 65.29 127.43 66.78C125.65 85.38 126.64 102.67 126.78 120.55C126.78 122.14 126.88 123.73 127.22 125.28C127.44 126.3 128.24 127.93 127.85 128.98C127.5 129.91 126.12 129.86 125.34 129.79C123.82 129.65 122.37 129.2 120.83 129.31C118.43 129.47 118.42 133.33 120.83 133.17C123.5 132.99 126.03 134.28 128.65 133.15C130.03 132.56 130.86 131.56 131.28 130.36C131.7 129.17 131.69 127.78 131.38 126.4Z" fill="#1E1E1E"/>
<path d="M145.61 111.75C145.32 110.47 144.93 109.26 144.84 107.94C144.73 106.35 144.8 104.76 144.84 103.17C144.92 99.9699 145 96.7799 145.07 93.5799C145.36 80.6399 145.56 67.6899 145.66 54.7499C145.72 47.3999 145.75 40.0499 145.75 32.6899C145.75 31.9899 145.45 31.4999 145.02 31.1899C144.76 30.5899 144.22 30.1399 143.39 30.1599C110.84 30.4799 79.23 27.4299 47.1 30.0399C44.86 30.0499 42.63 30.0299 40.4 29.9699C38.17 29.9099 35.94 29.7999 33.71 29.6399C31.77 29.4999 29.84 30.0599 29.51 32.3199C29.35 33.4099 29.5 34.5899 29.54 35.6899C29.59 36.9699 29.63 38.2499 29.68 39.5299C29.77 42.0099 33.52 42.0199 33.43 39.5299C33.36 37.5299 33.28 35.5299 33.22 33.5299V33.5199C33.5 33.5299 33.84 33.5099 33.95 33.5199C34.93 33.5899 35.91 33.6499 36.9 33.6999C40.76 33.8999 44.62 33.9299 48.49 33.9099C80.23 32.5299 110.85 34.5599 142.46 34.5599C142.46 40.6599 143.45 45.7499 141.94 51.7199C141.92 54.6599 141.89 57.6099 141.87 60.5499C141.84 63.4899 141.81 66.4399 141.77 69.3799C141.69 75.5299 141.58 81.6799 141.46 87.8399C141.34 93.8699 141.07 99.8999 141.05 105.93C141.04 107.52 141.14 109.11 141.48 110.66C141.7 111.68 142.5 113.31 142.11 114.36C141.76 115.29 140.38 115.24 139.6 115.17C138.08 115.03 136.63 114.58 135.09 114.69C132.69 114.85 132.68 118.71 135.09 118.55C137.76 118.37 140.29 119.66 142.91 118.53C145.65 117.34 146.22 114.51 145.61 111.75Z" fill="#1E1E1E"/>
<path d="M159.84 97.1001C159.55 95.8201 159.16 94.6101 159.07 93.2901C158.96 91.7001 159.03 90.1101 159.07 88.5201C159.11 86.9201 159.15 85.3201 159.19 83.7301C159.2 80.7901 159.18 77.8901 159.15 75.0101C159.12 72.1401 159.08 69.2901 159.04 66.4601C159 63.6301 158.97 60.8201 158.96 58.0201C158.95 55.2201 158.96 52.4301 159.01 49.6301C159.11 44.0401 159.37 38.4401 159.92 32.7601C159.94 31.5301 159.95 30.3001 159.96 29.0701C159.98 25.3901 159.98 21.7201 159.98 18.0401C159.98 17.3401 159.68 16.8501 159.25 16.5401C158.99 15.9401 158.45 15.4901 157.62 15.5101C122.7 17.2601 89.1099 16.2401 54.6299 15.3201C52.3999 15.2601 50.1699 15.1501 47.9399 14.9901C45.9999 14.8501 44.0699 15.4101 43.7399 17.6701C43.5799 18.7601 43.7299 19.9401 43.7699 21.0401C43.8199 22.3201 43.8599 23.6001 43.9099 24.8801C43.9999 27.3601 47.7499 27.3701 47.6599 24.8801C47.5899 22.8801 47.5099 20.8801 47.4499 18.8801V18.8701C47.7299 18.8801 48.0699 18.8601 48.1799 18.8701C49.1599 18.9401 50.1399 19.0001 51.1299 19.0501C54.9899 19.2501 58.8499 19.3001 62.6999 19.3901C94.0699 20.3201 124.69 21.3301 156.24 19.4101C156.24 22.3501 156.23 25.3001 156.22 28.2401C156.22 29.3401 156.21 30.4501 156.2 31.5501C156.21 34.4201 156.17 37.2701 156.1 40.1001C156.06 41.5101 156.01 42.9201 155.96 44.3301C154.32 56.9301 156.29 70.1501 155.44 82.2301C155.41 83.2301 155.38 84.2401 155.36 85.2501C155.31 87.2601 155.28 89.2701 155.27 91.2801C155.26 92.8701 155.36 94.4601 155.7 96.0101C155.92 97.0301 156.72 98.6601 156.33 99.7101C155.98 100.64 154.6 100.59 153.82 100.52C152.3 100.38 150.85 99.9301 149.31 100.04C146.91 100.2 146.9 104.06 149.31 103.9C151.98 103.72 154.51 105.01 157.13 103.88C159.88 102.69 160.45 99.8601 159.84 97.1001Z" fill="#1E1E1E"/>
<path d="M43.2499 116.42C42.1099 113.79 40.8599 111.19 39.6599 108.58C39.3499 107.91 38.4199 107.74 37.8399 108.09C37.1699 108.49 37.0499 109.3 37.3599 109.97C38.4799 112.41 39.6299 114.85 40.7299 117.3C41.1199 118.18 41.4999 119.09 41.8299 120.01C41.3199 119.12 40.8299 118.22 40.3699 117.3C40.1099 116.78 39.6799 116.59 39.2599 116.61C38.5199 116.46 37.6199 116.88 37.5799 117.9C37.3799 123.79 38.8399 129.69 38.8399 135.57C38.7799 135.36 38.7199 135.15 38.6699 134.94C38.1099 132.92 37.5499 130.9 36.9899 128.88C36.6599 127.69 34.6099 127.47 34.4199 128.88C34.1199 131.18 33.7599 133.47 33.3299 135.75C33.1299 136.83 32.9099 137.92 32.6699 139C32.5999 139.34 32.5199 139.69 32.4399 140.03C32.3699 139.74 32.3099 139.46 32.2599 139.17C32.0599 138.09 31.9299 137.01 31.8499 135.91C31.6699 133.64 31.5999 131.36 31.5499 129.09C31.4499 124.37 31.5599 119.65 31.8699 114.95C31.9599 113.52 30.2199 113.25 29.4999 114.15C29.4299 114.2 29.3699 114.25 29.2999 114.32C28.1199 115.52 27.0399 116.8 26.0299 118.16C26.9499 114.81 28.1999 111.56 29.7999 108.47C30.6099 106.91 28.3099 105.52 27.4999 107.08C24.9699 111.98 23.1899 117.26 22.2899 122.73C22.1299 123.73 22.8699 124.71 23.9299 124.42C25.7299 123.92 26.5399 122.12 27.5299 120.67C27.9899 119.99 28.4899 119.34 28.9999 118.7C28.7799 123.86 28.7899 129.03 29.0699 134.18C29.2299 137.1 29.4599 140.16 30.4899 142.91C31.0199 144.31 32.5499 145.11 33.7799 143.98C34.7699 143.07 34.8899 141.33 35.1699 140.07C35.4999 138.57 35.7899 137.06 36.0699 135.55C36.1699 135.91 36.2699 136.28 36.3699 136.64C36.9199 138.61 37.2699 140.87 39.0599 142.06C39.7399 142.51 40.8599 142.09 41.0199 141.24C42.1199 135.1 40.8499 129.02 40.3899 122.9C41.2899 124.18 42.3999 125.25 43.8599 125.72C44.6299 125.97 45.6299 125.28 45.5499 124.4C45.2699 121.58 44.3699 118.98 43.2499 116.42Z" fill="#1E1E1E"/>
<path d="M32.8299 98.6299C32.8199 98.6599 32.8199 98.6799 32.8299 98.6299V98.6299Z" fill="#1E1E1E"/>
<path d="M32.83 98.63C32.84 98.61 32.85 98.58 32.86 98.56C32.87 98.55 32.87 98.54 32.88 98.53C32.87 98.54 32.87 98.54 32.85 98.56C32.85 98.59 32.84 98.62 32.83 98.63Z" fill="#1E1E1E"/>
<path d="M32.9299 98.48C32.9199 98.49 32.8999 98.51 32.8899 98.52C32.8899 98.52 32.8899 98.53 32.8799 98.53C32.9099 98.5 32.9299 98.49 32.9299 98.48Z" fill="#1E1E1E"/>
<path d="M38.7699 98.86C38.1299 97.91 37.2199 97.13 36.2899 96.48C35.2599 95.75 34.0399 95.35 32.7899 95.6C31.6099 95.83 30.6999 96.65 30.2899 97.8C30.2799 97.84 30.2699 97.88 30.2599 97.92C30.0599 98.08 29.9099 98.3 29.8699 98.58C29.5499 100.7 29.4499 103.17 30.4699 105.12C31.6199 107.31 34.1799 107.71 36.2499 106.77C38.1399 105.92 39.4599 104.03 39.5699 101.9C39.6399 100.86 39.3499 99.73 38.7699 98.86ZM36.7499 102.69C36.7499 102.7 36.7499 102.7 36.7399 102.71C36.7399 102.72 36.7399 102.72 36.7299 102.73C36.6499 102.9 36.5499 103.06 36.4499 103.23C36.4399 103.25 36.4099 103.29 36.3899 103.32C36.3499 103.37 36.3099 103.41 36.2699 103.46C36.1699 103.57 36.0699 103.68 35.9599 103.78C35.9499 103.79 35.8799 103.85 35.8499 103.88C35.8199 103.9 35.7999 103.92 35.7899 103.92C35.6299 104.03 35.4799 104.13 35.3099 104.22C35.2399 104.26 35.1599 104.3 35.0899 104.33C35.0799 104.33 35.0699 104.33 35.0599 104.34C34.9099 104.39 34.7599 104.44 34.6099 104.48C34.5399 104.5 34.4699 104.51 34.3999 104.52C34.3599 104.52 34.2999 104.53 34.2899 104.53C34.1999 104.53 34.1099 104.54 34.0199 104.54C33.9999 104.54 33.8499 104.52 33.7899 104.52C33.7399 104.51 33.6599 104.49 33.6399 104.49C33.5899 104.48 33.5399 104.46 33.4899 104.44C33.4599 104.43 33.4099 104.41 33.3999 104.4C33.3399 104.36 33.2799 104.33 33.2199 104.29C33.2699 104.31 33.0199 104.1 32.9799 104.06C32.9799 104.06 32.9599 104.04 32.9499 104.02C32.9199 103.97 32.8499 103.86 32.8399 103.84C32.7999 103.77 32.7599 103.69 32.7199 103.62C32.7099 103.6 32.6999 103.58 32.6899 103.57C32.6899 103.56 32.6899 103.56 32.6799 103.54C32.6199 103.36 32.5599 103.18 32.5099 102.99C32.4599 102.8 32.4399 102.61 32.3999 102.42C32.3999 102.41 32.3999 102.41 32.3999 102.41C32.3899 102.29 32.3799 102.17 32.3699 102.06C32.2999 101.16 32.3299 100.07 32.4399 99.31C32.4499 99.26 32.4499 99.21 32.4499 99.16C32.6199 99 32.7499 98.8 32.8399 98.55C32.8399 98.55 32.8399 98.55 32.8299 98.56L32.8399 98.55C32.8399 98.54 32.8499 98.53 32.8499 98.53C32.8499 98.54 32.8499 98.54 32.8399 98.55C32.8499 98.54 32.8599 98.53 32.8699 98.52C32.8899 98.49 32.9099 98.48 32.9099 98.48C32.9199 98.47 32.9399 98.45 32.9499 98.44C32.9599 98.44 32.9599 98.44 32.9699 98.43C33.0099 98.41 33.0799 98.38 33.1099 98.35C33.1799 98.34 33.2499 98.31 33.3199 98.29C33.3499 98.28 33.3899 98.28 33.4299 98.28C33.4099 98.28 33.3899 98.28 33.3599 98.28C33.3899 98.28 33.4199 98.28 33.4499 98.28C33.4799 98.28 33.4899 98.28 33.4899 98.28C33.5799 98.28 33.6599 98.27 33.7499 98.28C33.7599 98.28 33.7599 98.29 33.7699 98.29C33.8599 98.33 33.9599 98.34 34.0399 98.37C34.0499 98.37 34.1699 98.42 34.2199 98.44C34.2599 98.46 34.3199 98.49 34.3099 98.49C34.4999 98.59 34.6899 98.71 34.8699 98.83C35.3499 99.16 35.9899 99.68 36.4399 100.25C36.4499 100.26 36.4499 100.26 36.4499 100.26C36.4999 100.34 36.5499 100.41 36.5999 100.49C36.6399 100.56 36.6799 100.63 36.7099 100.7C36.7199 100.73 36.7399 100.77 36.7399 100.78C36.7999 100.95 36.8399 101.13 36.8799 101.31C36.8799 101.31 36.8899 101.36 36.8899 101.39C36.8899 101.45 36.8999 101.61 36.8999 101.63C36.8999 101.67 36.8799 101.97 36.8899 102.01C36.8699 102.17 36.8299 102.33 36.7799 102.49C36.7899 102.56 36.7699 102.62 36.7499 102.69Z" fill="#1E1E1E"/>
<path d="M70.5276 68.002C68.2312 65.5109 64.4545 66.038 61.4516 66.0635C57.6749 66.089 53.8897 66.14 50.113 66.225C42.5595 66.3866 35.006 66.6246 27.4609 67.0157C23.3898 67.2283 19.428 67.7639 15.6344 69.4133C15.0793 69.6513 14.6335 70.0935 14.4821 70.6461C13.5988 71.2837 13.0353 72.3465 13.0016 73.5793C12.9428 75.6198 14.4821 77.1076 16.2148 77.7368C18.7719 78.6635 21.3794 77.7368 23.9618 77.3797C23.5496 77.8218 23.2384 78.3404 23.2131 79.0121C23.129 80.9336 24.8786 81.7328 26.4263 81.9708C30.3376 82.566 34.2742 82.9316 38.2276 82.9911C42.0968 83.0506 45.9577 82.8125 49.7849 82.2769C51.7784 81.9963 53.7635 81.6563 55.7318 81.2056C57.515 80.7975 59.3824 80.3299 60.989 79.4032C62.789 78.366 63.2517 76.0194 61.6619 74.506C61.3338 74.2 60.9637 73.9789 60.5768 73.8174C63.8657 73.0437 67.3396 72.8481 70.1827 70.7056C71.0575 70.068 71.3182 68.8692 70.5276 68.002ZM54.6215 72.491C53.9991 72.8736 53.6458 73.7068 53.8561 74.4465C54.3271 76.0874 55.7486 76.9291 57.33 77.0141C57.5319 77.0226 57.7337 77.0141 57.944 77.0056C57.902 77.0226 57.8515 77.0481 57.8094 77.0651C54.4953 78.2214 50.8784 78.7485 47.4045 79.1226C43.8212 79.5052 40.2211 79.6243 36.621 79.4967C34.7537 79.4287 32.8863 79.3012 31.0274 79.1056C30.1021 79.0121 29.1684 78.9016 28.2432 78.7741C28.0161 78.74 27.789 78.706 27.5703 78.672C27.5955 78.655 27.6207 78.6295 27.646 78.6125C28.2264 78.1194 28.8068 77.6178 29.3787 77.1247C30.3881 76.2574 29.7404 74.5825 28.6469 74.234C25.8964 73.3497 23.2047 74.1659 20.4542 74.5485C19.3859 74.6931 18.1074 74.8461 17.0812 74.404C16.9045 74.3275 16.383 74.0724 16.3073 73.8344C16.2064 73.4858 16.5344 73.4518 16.2064 73.4688C17.0139 73.4178 17.5102 72.8821 17.712 72.253C23.8019 69.9914 30.5311 70.289 36.9154 70.0509C43.9894 69.7874 51.0635 69.6173 58.1375 69.5408C60.131 69.5153 62.1245 69.5068 64.118 69.4983C64.3031 69.4983 64.4881 69.4983 64.6816 69.4898C63.7143 69.7534 62.7301 69.9489 61.7376 70.136C59.273 70.6206 56.8085 71.1392 54.6215 72.491Z" fill="#1E1E1E"/>
<path d="M68.5899 156.52C63.8699 156.87 59.1499 157 54.4199 156.9C53.3499 156.88 52.4399 157.85 52.4399 158.93C52.4399 160.05 53.3399 160.94 54.4199 160.96C59.1499 161.06 63.8799 160.94 68.5899 160.58C69.6499 160.5 70.5699 159.7 70.5699 158.55C70.5599 157.52 69.6599 156.44 68.5899 156.52Z" fill="#1E1E1E"/>
<path d="M160.28 7.62004C158.02 6.26004 156.27 4.37004 155.02 2.00004C154.03 0.120043 151.47 1.13004 151.34 3.03004C151.3 3.68004 151.14 4.29004 150.93 4.89004C149.53 3.27004 147.69 2.20004 145.4 2.94004C143.81 3.45004 143.02 4.76004 142.43 6.26004C142.41 6.32004 142.37 6.40004 142.33 6.47004C142.32 6.46004 142.3 6.44004 142.29 6.43004C141.95 6.06004 141.64 5.67004 141.31 5.29004C140.17 3.96004 138.92 2.08004 136.93 2.53004C135.65 2.81004 134.64 4.12004 134.48 5.45004C134.51 5.20004 134.46 5.46004 134.42 5.65004C133.91 5.56004 133.5 5.16004 133.13 4.83004C131.82 3.65004 130.55 2.65004 128.73 2.61004C127.96 2.59004 126.94 3.25004 126.83 4.10004C126.74 4.79004 126.7 5.61004 126.39 6.25004C126.3 6.43004 126.07 6.60004 126 6.76004C125.99 6.79004 125.98 6.80004 125.97 6.82004C125.06 5.91004 124.67 4.65004 123.53 3.90004C121.2 2.36004 118.49 4.02004 117.91 6.60004C117.45 6.25004 116.67 5.91004 116.31 5.64004C115.17 4.78004 114.26 3.46004 113.02 2.79004C111.55 1.99004 109.78 2.44004 109.01 3.99004C108.84 4.32004 108.72 4.69004 108.62 5.07004C107.87 4.17004 106.91 3.44004 105.79 3.11004C104.52 2.74004 103.14 2.92004 102.11 3.80004C101.28 4.51004 100.96 5.40004 100.55 6.36004C100.18 6.01004 99.5599 5.56004 99.4299 5.46004C98.3099 4.60004 96.9299 4.06004 95.5099 4.07004C93.8499 4.09004 92.3999 4.88004 91.4499 6.10004C90.9799 5.76004 90.4999 5.43004 90.0299 5.09004C89.1599 4.47004 88.2899 3.68004 87.1699 3.66004C85.7799 3.64004 84.8099 4.79004 84.0299 6.08004C83.2099 5.19004 82.36 4.31004 81.48 3.48004C80.73 2.78004 79.42 2.62004 78.69 3.48004C78.07 4.20004 77.5399 4.96004 77.0699 5.74004C76.7399 5.37004 76.4199 5.00004 76.0999 4.64004C75.3299 3.77004 74.4099 3.04004 73.1999 3.06004C71.7699 3.09004 70.7899 4.24004 70.0199 5.56004C69.6499 5.10004 69.2499 4.69004 68.8099 4.38004C67.5399 3.48004 65.9399 3.64004 64.8499 4.77004C64.3899 5.25004 64.0799 5.88004 63.8499 6.50004C63.8199 6.59004 63.7199 6.83004 63.6199 7.08004C63.4599 6.92004 63.2899 6.75004 63.1299 6.59004C62.4899 5.95004 61.8599 5.31004 61.2199 4.67004C59.3999 2.84004 56.5999 5.71004 58.4299 7.55004C60.1699 9.30004 62.7599 13.09 65.5699 11.36C66.5299 10.77 66.9799 9.76004 67.3099 8.72004C67.7299 9.29004 68.1499 9.85004 68.5699 10.42C69.4299 11.58 71.18 11.88 71.98 10.42C72.35 9.75004 72.7199 9.08004 73.0899 8.41004C73.1999 8.21004 73.31 8.02004 73.41 7.82004C73.73 8.15004 74.1199 8.47004 74.2699 8.65004L76.08 10.72C77.17 11.96 78.8799 11.14 79.3799 9.82004C79.6299 9.18004 79.9299 8.57004 80.2799 7.98004C81.2099 8.94004 82.1199 9.92004 82.9699 10.95C83.83 11.98 85.4499 11.57 86.0699 10.54C86.4299 9.94004 86.79 9.35004 87.16 8.75004C87.24 8.61004 87.3599 8.40004 87.4899 8.18004C87.8799 8.46004 88.25 8.76004 88.62 9.03004C89.5 9.65004 90.3699 10.28 91.2499 10.9C92.5699 11.84 94.1399 10.56 94.2199 9.14004C94.2499 8.60004 94.8099 8.21004 95.2899 8.13004C96.2299 7.97004 97.0499 8.66004 97.6699 9.27004C99.2899 10.86 101.6 11.65 103.25 9.61004C103.78 8.95004 103.98 8.17004 104.32 7.41004C104.58 6.82004 104.5 6.82004 104.99 7.15004C105.73 7.65004 106.12 8.42004 106.6 9.17004C107.25 10.19 107.96 11.01 108.9 11.75C109.85 12.5 111.62 11.74 111.8 10.53C111.93 9.65004 112.06 8.77004 112.19 7.89004C112.21 7.78004 112.22 7.61004 112.24 7.42004C112.27 7.45004 112.29 7.47004 112.32 7.50004C112.85 7.99004 113.41 8.44004 113.97 8.88004C115.01 9.68004 116.26 10.67 117.55 10.99C119.7 11.53 121.21 9.77004 121.79 7.86004C122.01 8.25004 122.34 8.64004 122.57 8.97004C123.35 10.05 124.44 10.86 125.8 10.87C128.05 10.89 129.38 9.31004 130.08 7.40004C130.45 7.74004 130.79 8.12004 131.1 8.36004C132.03 9.12004 133.16 9.65004 134.36 9.71004C135.52 9.77004 136.59 9.35004 137.35 8.44004C137.61 8.13004 137.8 7.78004 137.95 7.41004C138.3 7.85004 138.64 8.32004 138.82 8.53004C139.39 9.19004 139.94 9.89004 140.67 10.38C142.2 11.41 144.1 11.02 145.18 9.55004C145.61 8.96004 145.83 8.27004 146.11 7.60004C146.28 7.18004 146.37 6.83004 146.64 6.78004C147.95 6.54004 148.81 8.73004 149.26 9.63004C149.83 10.76 151.53 10.98 152.36 10.04C153.04 9.27004 153.59 8.45004 154.04 7.58004C155.26 8.97004 156.68 10.16 158.27 11.12C160.49 12.46 162.48 8.95004 160.28 7.62004Z" fill="#00A99D"/>
</svg>
