<svg width="160" height="161" viewBox="0 0 160 161" fill="none" xmlns="http://www.w3.org/2000/svg">
<path d="M140.902 146.388C97.996 145.785 54.9299 146.127 12.1042 143.033C6.95391 142.662 6.98397 150.696 12.1042 151.068C54.9299 154.161 97.986 153.819 140.902 154.422C146.062 154.492 146.062 146.458 140.902 146.388Z" fill="#00A99D"/>
<path d="M103.387 98.4942C100.912 85.278 84.9499 71.3388 71.0922 77.7862C65.6413 80.317 64.2184 84.3541 64.0381 89.1545C63.7375 89.3955 63.4569 89.6868 63.2064 90.0383C55.1303 101.397 61.513 117.636 75.4208 119.865C88.7375 121.984 106.413 114.623 103.387 98.4942Z" fill="#FBB03B"/>
<path d="M75.8718 46.0414C58.3567 45.8807 40.8417 46.1318 23.3367 46.7645C18.1964 46.9553 18.1663 54.9894 23.3367 54.7986C40.8417 54.1559 58.3567 53.9149 75.8718 54.0755C81.0321 54.1157 81.0321 46.0816 75.8718 46.0414Z" fill="#FBB03B"/>
<path d="M39.008 59.0063C36.4329 59.0063 36.4229 63.0234 39.008 63.0234C41.5932 63.0234 41.5932 59.0063 39.008 59.0063Z" fill="#00A99D"/>
<path d="M27.505 59.0063C24.9299 59.0063 24.9198 63.0234 27.505 63.0234C30.0902 63.0234 30.0902 59.0063 27.505 59.0063Z" fill="#00A99D"/>
<path d="M15.7515 59.5288C13.1764 59.5288 13.1664 63.5459 15.7515 63.5459C18.3267 63.5459 18.3267 59.5288 15.7515 59.5288Z" fill="#00A99D"/>
<path d="M132.595 8.14036C132.475 6.96536 132.515 5.54935 131.854 4.52499C131.112 3.37008 129.729 3.00855 128.527 2.5265C127.315 2.04445 126.102 1.55236 124.89 1.07031C124.198 0.789115 123.287 1.37159 123.136 2.07458C122.946 2.89808 123.387 3.54081 124.138 3.83205C125.18 4.2438 126.212 4.66559 127.255 5.07734C127.776 5.28824 128.297 5.48909 128.818 5.69999C128.798 5.68994 129.188 5.86067 129.098 5.81046C129.008 5.77029 129.329 5.94101 129.329 5.93097C129.349 5.94101 129.379 5.9611 129.409 5.98118C129.419 5.99122 129.429 6.00127 129.439 6.01131C129.439 6.01131 129.449 6.0314 129.469 6.07157C129.469 6.08161 129.469 6.08161 129.469 6.08161C129.469 6.09165 129.469 6.10169 129.479 6.11174C129.509 6.23225 129.539 6.34272 129.559 6.45319C129.569 6.48332 129.569 6.51344 129.579 6.53353C129.599 6.66408 129.609 6.7846 129.619 6.91515C129.679 7.4675 129.739 8.01985 129.79 8.57219C129.9 9.70702 130 10.8519 130.09 11.9867C130.15 12.7299 130.701 13.4529 131.523 13.4228C132.244 13.3927 133.016 12.7901 132.956 11.9867C132.836 10.7314 132.725 9.43586 132.595 8.14036Z" fill="#FBB03B"/>
<path d="M153.287 139.94C152.856 138.966 152.154 138.544 151.162 138.253C150.581 138.082 150 137.942 149.409 137.801C129.329 137.61 109.038 136.857 89.0581 135.542C88.1462 135.491 87.6553 135.933 87.5851 136.887C87.535 137.59 87.8356 138.956 89.3286 139.047C108.537 140.312 128.337 141.055 148.186 141.266C148.737 141.266 149.268 141.497 149.639 141.899C150.01 142.29 150.2 142.823 150.15 143.355L150.12 143.807C150.1 144.108 150.08 144.419 150.04 144.721C149.89 145.675 149.709 146.569 149.499 147.432C149.279 148.316 148.447 148.898 147.505 148.908L8.55707 145.233C8.38673 145.223 8.20637 145.233 8.02601 145.233C7.51498 145.243 6.93382 145.253 6.33262 145.163C5.5711 145.052 4.94985 144.53 4.72941 143.817C4.45887 142.953 4.37871 142.059 4.29855 141.266C4.26849 140.965 4.23843 140.663 4.20837 140.392C4.15827 140.031 4.11819 139.679 4.07811 139.318L3.99795 138.645C3.91779 137.972 4.19835 137.299 4.75947 136.887L4.87971 136.797C4.91979 136.767 4.95987 136.737 4.99995 136.707C5.34064 136.415 5.78152 136.245 6.24244 136.235C24.7595 135.612 43.998 136.385 63.4468 138.524C63.7675 138.565 64.0881 138.334 64.2384 138.203C64.6693 137.831 64.9799 137.239 64.9799 136.767C64.9799 135.371 63.5971 135.07 62.9959 134.999C47.9559 133.342 33.0961 132.509 18.6472 132.509C13.2765 132.509 7.96589 132.619 2.7254 132.85C2.56508 132.86 2.39474 132.89 2.18432 132.961C2.03402 133.011 1.8737 133.041 1.71338 133.051C1.24244 133.081 0.691337 133.372 0.350655 133.774C0.190335 133.965 -4.59142e-05 134.256 0.0300142 134.588C0.300555 137.128 0.621197 139.709 1.00196 142.26L1.04204 142.511C1.39274 144.932 1.6733 146.468 2.97591 147.583C4.06809 148.517 5.58112 148.627 7.76549 148.688C9.53903 148.738 11.3126 148.788 13.0761 148.828L146.994 152.383C147.535 152.293 148.066 152.182 148.627 152.052C149.269 151.901 149.91 151.741 150.531 151.54C150.902 151.419 151.383 151.208 151.693 150.917C151.994 150.646 152.244 150.304 152.505 149.943C152.515 149.853 152.525 149.762 152.555 149.682C153.277 147.272 153.697 144.711 153.788 142.069C153.798 141.889 153.848 141.718 153.898 141.547C153.677 141.005 153.497 140.443 153.287 139.94Z" fill="#1E1E1E"/>
<path d="M90.2205 52.9004C90.2405 52.8904 90.2706 52.8803 90.2906 52.8602C90.6914 52.6292 90.982 52.2777 91.2425 51.9062C91.4128 51.6651 91.5732 51.404 91.6233 51.1128C91.974 49.3352 88.9078 49.5763 87.8657 49.516C86.4629 49.4357 85.0601 49.3654 83.6573 49.2951C80.8517 49.1545 78.0361 49.034 75.2205 48.9335C69.5892 48.7226 63.9479 48.5921 58.3166 48.5419C50.7816 48.4716 43.2365 48.5318 35.7014 48.7327C25.1503 49.0038 14.3186 49.5763 3.50702 50.4098C2.20442 50.5102 1.87376 51.5547 1.7936 51.9966C1.66334 52.6895 1.83368 53.5431 2.42486 53.8042C3.07616 54.1055 3.51704 54.7181 3.56714 55.4111C5.24049 78.5896 5.42085 102.069 4.08818 125.178C4.03808 125.961 4.36875 126.262 4.61925 126.423C5.15031 126.764 6.01203 126.774 6.66334 126.463C7.25452 126.172 7.57516 125.67 7.61524 124.967C8.93788 101.979 8.75752 78.6398 7.0942 55.5918C7.01404 54.5273 7.8457 53.6134 8.93788 53.5331C20.1804 52.7598 31.4329 52.2677 42.7054 52.0668C53.7275 51.876 64.7595 51.9664 75.7816 52.3681C78.2766 52.4585 80.7816 52.569 83.2766 52.6895C84.9098 52.7698 86.493 52.81 88.1062 53.0711C88.8076 53.2017 89.5792 53.2318 90.2205 52.9004Z" fill="#1E1E1E"/>
<path d="M151.593 59.5888C151.222 59.1269 150.571 58.7955 149.95 58.7553C149.309 58.7151 148.717 58.3737 148.387 57.8314C148.186 57.5201 147.886 57.3192 147.445 57.1987C144.108 56.3451 140.752 55.622 137.385 54.9391C137.265 54.919 137.144 54.8889 137.024 54.919C136.894 54.9491 136.784 55.0496 136.703 55.15C136.162 55.7827 136.102 56.7267 136.483 57.4498C137.375 59.147 139.81 58.9963 141.443 59.3579C143.076 59.7194 144.729 60.2918 146.383 60.5329C146.453 60.5429 146.513 60.5529 146.583 60.573C147.605 60.794 148.267 61.748 148.106 62.7523C146.433 73.036 146.232 83.4201 146.162 93.1816C146.112 100.714 146.062 108.246 146.012 115.778L145.932 128.331C145.922 128.974 146.152 129.416 146.633 129.687C147.224 130.018 148.096 130.028 148.697 129.687C149.198 129.416 149.439 128.954 149.449 128.301L149.679 94.0252C149.76 83.2193 149.83 72.0418 151.934 61.0551C152.024 60.4927 151.914 60.0006 151.593 59.5888Z" fill="#1E1E1E"/>
<path d="M15.6513 65.4239C13.1062 65.4239 11.9739 63.4957 11.9739 61.5776C11.9739 59.6594 13.1162 57.7212 15.6513 57.7212C18.1864 57.7212 19.3286 59.6494 19.3286 61.5675C19.3387 63.4957 18.1964 65.4239 15.6513 65.4239ZM15.6513 60.5834C15.3206 60.5834 14.8196 60.5834 14.8196 61.5776C14.8196 62.5718 15.3006 62.5718 15.6513 62.5718C15.982 62.5718 16.483 62.5718 16.483 61.5776C16.483 60.5834 16.002 60.5834 15.6513 60.5834Z" fill="#1E1E1E"/>
<path d="M27.0842 65.3133H26.9639C26.5731 65.3033 26.2124 65.2129 25.8717 65.0321C25.7916 64.9919 25.7214 64.9618 25.6613 64.9417C25.2204 64.8011 24.8697 64.5702 24.5591 64.2387C24.1483 63.8571 23.9078 63.4956 23.7575 63.0637C23.7274 62.9834 23.7074 62.9231 23.6673 62.8629C23.4369 62.4411 23.3467 61.9892 23.3667 61.4067V60.8041C23.3667 60.1614 23.507 59.5789 23.7976 59.0165L23.9379 58.7956L24.6693 57.9018C25.0601 57.5604 25.491 57.3093 25.982 57.1486L26.2525 57.0884L27.3447 56.9478H27.4549C27.8557 56.9578 28.2164 57.0482 28.5671 57.229C28.6373 57.2591 28.7074 57.2892 28.7775 57.3193C29.2084 57.4599 29.5691 57.6809 29.8797 58.0223L29.9499 58.0926C30.2906 58.4039 30.5311 58.7655 30.6814 59.1973C30.7014 59.2676 30.7315 59.3279 30.7615 59.3881C30.992 59.82 31.0922 60.2719 31.0721 60.8443V61.4569C31.0721 62.0997 30.9319 62.6821 30.6413 63.2445L30.501 63.4655L29.7595 64.3693C29.3687 64.7107 28.9379 64.9518 28.4569 65.1225L28.1864 65.1828L27.0842 65.3133ZM26.5832 62.2402C26.7435 62.2905 26.9038 62.3608 27.0641 62.4411L27.6453 62.3608C27.6954 62.3306 27.7555 62.3105 27.8056 62.2704L28.1663 61.8185C28.2064 61.708 28.2264 61.5975 28.2264 61.4569V60.8041C28.2264 60.7539 28.2264 60.7138 28.2264 60.6836C28.1363 60.5129 28.0661 60.3422 28.006 60.1715C27.9559 60.1212 27.9058 60.071 27.8557 60.0208C27.6854 59.9606 27.525 59.9003 27.3747 59.82L26.7936 59.9003C26.7435 59.9304 26.6934 59.9505 26.6433 59.9907L26.2826 60.4426C26.2325 60.5531 26.2124 60.6736 26.2124 60.8041V61.4569C26.2124 61.5071 26.2124 61.5473 26.2124 61.5674C26.3026 61.7381 26.3727 61.9088 26.4329 62.0796C26.483 62.1298 26.5331 62.18 26.5832 62.2402Z" fill="#1E1E1E"/>
<path d="M38.7776 64.9718C36.2325 64.9718 35.1002 63.0436 35.1002 61.1254C35.1002 60.091 35.4509 59.1069 36.0521 58.4039C36.7134 57.6507 37.6353 57.269 38.7776 57.269C41.3227 57.269 42.4549 59.1972 42.4549 61.1154C42.4549 63.0335 41.3227 64.9718 38.7776 64.9718ZM38.7776 60.1312C38.3367 60.1312 38.2265 60.2517 38.1964 60.2919C38.0862 60.4224 37.9459 60.7237 37.9459 61.1254C37.9459 62.1197 38.4269 62.1197 38.7776 62.1197C39.1082 62.1197 39.6092 62.1197 39.6092 61.1254C39.6092 60.1312 39.1283 60.1312 38.7776 60.1312Z" fill="#1E1E1E"/>
<path d="M157.515 51.9969C156.854 51.0831 155.812 50.5709 154.028 50.2796C153.056 50.129 152.154 50.0085 151.273 49.888C149.549 49.657 147.926 49.4361 146.072 49.0042C143.136 48.3213 140.18 47.3873 137.285 46.2525C137.184 46.2124 137.074 46.1923 136.944 46.1822C136.673 46.1722 136.393 46.2324 136.112 46.373C135.641 46.594 135.281 46.9756 135.17 47.3673C134.82 48.6126 135.571 49.3959 136.393 49.7273C141.273 51.6454 146.493 52.951 151.904 53.6038C152.184 53.6339 152.475 53.664 152.756 53.6942L153.447 53.7745C154.208 53.8649 154.78 54.5076 154.75 55.2407L154.309 64.6507C154.289 65.1227 154.499 65.6349 154.89 66.0266C155.03 66.1772 155.361 66.5086 155.852 66.5086C155.882 66.5086 155.912 66.5086 155.942 66.5086C156.834 66.5086 157.816 65.9161 157.866 64.8014L158.046 61.0655C158.136 59.2779 158.216 57.4802 158.307 55.6926C158.387 53.9151 158.176 52.9108 157.515 51.9969Z" fill="#1E1E1E"/>
<path d="M10.9319 159.192C10.9319 159.654 11.1924 160.197 11.5932 160.558C11.7736 160.719 12.1243 160.98 12.5451 160.95C17.9159 160.588 23.3167 160.407 28.7175 160.407C34.3888 160.407 40.0501 160.608 45.6814 161C46.1022 161.02 46.4529 160.769 46.6233 160.608C47.0341 160.247 47.2946 159.704 47.2946 159.242C47.2946 158.118 46.3427 157.555 45.3908 157.485C34.5992 156.722 23.6373 156.702 12.8257 157.435C11.8938 157.495 10.9319 158.118 10.9319 159.192Z" fill="#1E1E1E"/>
<path d="M126.403 127.889C126.493 128.15 126.703 128.401 126.944 128.522C127.144 128.622 127.275 128.592 127.355 128.572C127.585 128.502 127.816 128.441 128.046 128.391L128.226 128.351C128.246 128.341 128.277 128.341 128.297 128.331C128.437 128.301 128.577 128.281 128.727 128.281C128.938 128.271 129.198 128.261 129.489 128.261C129.699 128.261 129.92 128.261 130.14 128.281C130.581 128.301 131.022 128.351 131.453 128.401L132.986 128.602C133.727 128.693 134.519 128.783 135.251 128.753C136.593 128.693 137.335 128.472 137.585 128.05C137.836 127.628 137.796 127.036 137.715 126.102C137.695 125.871 137.675 125.64 137.665 125.409C137.605 124.384 137.575 123.36 137.565 122.336C137.535 120.257 137.615 118.108 137.786 115.948C137.796 115.878 137.735 115.707 137.555 115.527C137.365 115.336 137.164 115.205 137.044 115.255C136.483 115.276 136.172 115.607 136.122 116.24C135.972 118.138 135.902 120.026 135.912 121.833C135.912 122.727 135.942 123.621 135.982 124.525C135.992 124.645 136.002 124.756 136.012 124.866C136.062 125.429 135.862 126.031 135.451 126.433C135.04 126.835 134.459 127.086 133.888 127.046C133.487 127.015 133.096 126.975 132.695 126.925L131.463 126.764C130.1 126.594 128.507 126.473 127.064 126.915C126.673 127.046 126.283 127.518 126.403 127.889Z" fill="#1E1E1E"/>
<path d="M134.93 129.787C134.259 129.787 133.577 129.707 132.886 129.617L131.343 129.416C130.942 129.375 130.521 129.325 130.1 129.305C129.589 129.275 129.118 129.295 128.788 129.305C128.667 129.305 128.597 129.315 128.517 129.325L128.297 129.375C128.086 129.426 127.876 129.476 127.665 129.546C127.265 129.667 126.874 129.627 126.493 129.436C126.002 129.185 125.601 128.733 125.431 128.2C125.301 127.799 125.341 127.367 125.551 126.955C125.802 126.473 126.273 126.071 126.784 125.911C128.397 125.409 130.13 125.529 131.613 125.72L132.856 125.881C133.216 125.921 133.607 125.961 133.988 125.991C134.238 126.021 134.539 125.891 134.75 125.67C134.93 125.489 135.03 125.208 135.01 124.937C135 124.776 134.98 124.665 134.98 124.535C134.94 123.631 134.91 122.717 134.91 121.813C134.9 119.965 134.97 118.057 135.12 116.129C135.21 115.035 135.882 114.311 136.884 114.211C137.245 114.131 137.735 114.211 138.297 114.763C138.667 115.135 138.858 115.587 138.828 115.999C138.657 118.128 138.587 120.237 138.607 122.285C138.617 123.3 138.657 124.324 138.707 125.318C138.717 125.539 138.737 125.76 138.758 125.991C138.838 126.965 138.908 127.819 138.487 128.542C137.926 129.506 136.563 129.697 135.311 129.757C135.18 129.777 135.06 129.787 134.93 129.787ZM136.733 126.433C136.593 126.704 136.413 126.955 136.192 127.166C135.982 127.377 135.742 127.558 135.481 127.698C136.523 127.628 136.764 127.457 136.774 127.447C136.804 127.367 136.764 126.865 136.733 126.433Z" fill="#1E1E1E"/>
<path d="M85.3006 75.6876C76.6032 71.3793 63.7275 71.329 56.984 79.7448C56.6132 80.2068 56.523 80.6788 56.7234 81.1508C56.9739 81.7433 57.6353 82.2253 58.3166 82.3157C58.9078 82.386 59.4088 82.1751 59.8096 81.673C64.8297 75.4064 74.3788 75.1553 81.1222 77.5756C88.7976 80.3273 94.6092 86.7646 96.3026 94.377C97.4449 99.4988 96.9539 103.536 94.8297 106.358C91.7235 110.495 86.8437 113.056 84.2084 114.211C76.2024 117.726 67.485 116.822 61.994 111.912C58.8277 109.079 56.9439 105.002 56.8437 100.724C56.7435 96.4458 58.4269 92.3082 61.4529 89.3456C62.0842 88.733 62.505 87.7589 61.8036 86.8952C61.5331 86.5537 60.982 86.3127 60.4509 86.2826C60.4208 86.2826 60.3808 86.2826 60.3407 86.2826C60.0902 86.2826 59.7295 86.3328 59.489 86.5738C52.6954 93.212 51.493 103.174 56.5731 110.807C61.3727 117.997 71.3728 121.321 80.8918 118.881C86.0822 117.555 90.9619 114.874 95.01 111.128C98.6974 107.724 100.381 103.817 100.301 98.846C100.18 89.2251 94.2886 80.1465 85.3006 75.6876Z" fill="#1E1E1E"/>
<path d="M89.6894 89.1746C88.4669 88.4917 87.505 89.5462 87.2445 89.8877C85.4309 92.2075 83.4769 94.6278 81.4429 97.0682C80.4309 98.2733 79.4289 99.4583 78.4168 100.633C77.8757 101.256 77.3447 101.869 76.8036 102.481C76.7435 102.562 76.6333 102.682 76.523 102.792L75.7515 103.536L74.6393 102.682C73.9078 102.1 73.1663 101.447 72.3146 100.623C70.9419 99.2675 69.8797 97.9519 68.7675 96.2246C68.4268 95.6823 67.8156 95.381 67.2144 95.381C66.9238 95.381 66.6433 95.4513 66.3928 95.5919C66.002 95.8128 65.7014 96.2145 65.5912 96.6665C65.481 97.0983 65.5411 97.5201 65.7515 97.8515C67.2946 100.262 69.0982 102.371 71.1222 104.138C72.2345 105.102 73.3767 105.976 74.5391 106.719C76.2024 107.794 77.4649 106.84 78.0561 106.177C81.9238 101.848 85.8517 97.1284 90.4108 91.3238C90.6313 91.0526 90.6112 90.6911 90.5611 90.44C90.4409 89.9278 90.0902 89.4056 89.6894 89.1746Z" fill="#1E1E1E"/>
<path d="M132.134 58.6047C131.924 57.5101 131.723 56.4254 131.523 55.3308C129.97 46.664 128.888 37.9168 128.277 29.1395C127.966 24.781 127.776 20.4124 127.695 16.0338C127.655 13.8846 127.645 11.7255 127.655 9.57634C127.665 8.6725 127.675 7.74857 127.154 6.9552C126.533 6.02123 125.431 5.86055 124.379 5.67978C114.369 3.93235 104.178 3.83192 94.1183 5.27807C93.2265 5.40862 92.7355 6.49323 92.9559 7.25648C93.0561 7.61801 93.2666 7.88917 93.5271 8.06993C92.8557 8.21053 92.2746 8.70262 92.3046 9.57634C92.7555 25.4639 93.9279 41.3413 95.8016 57.1284C95.8618 57.6506 96.1022 58.1227 96.493 58.4139C96.3327 58.6549 96.2425 58.9361 96.2726 59.2273C96.6233 62.5716 97.6453 66.438 101.673 67.0406C103.788 67.3619 106.062 67.0004 108.186 66.8799C110.461 66.7493 112.725 66.6188 115 66.4782C119.429 66.2171 124.008 66.1769 128.297 64.9918C130.17 64.4696 132.345 63.7666 132.545 61.5874C132.625 60.6032 132.325 59.5788 132.134 58.6047ZM111.112 7.46737C112.736 7.46737 112.736 9.8977 111.112 9.8977C109.489 9.8977 109.489 7.46737 111.112 7.46737ZM129.279 61.256C129.228 61.3464 128.687 61.507 128.507 61.5673C127.545 61.8987 126.543 62.1498 125.541 62.3406C123.727 62.6921 121.884 62.8528 120.04 62.9733C115.471 63.2745 110.902 63.5055 106.333 63.7767C104.74 63.8671 102.084 64.5098 100.852 63.2043C99.8998 62.1899 99.7295 60.5229 99.5992 59.2173C99.5491 58.6951 99.2986 58.2231 98.9078 57.9318C99.0682 57.6908 99.1684 57.4096 99.1283 57.1083C97.2445 41.3112 96.0822 25.4438 95.6313 9.55625C95.6113 9.01395 95.3708 8.61224 95.0201 8.35113C97.4549 7.99964 99.9099 7.75861 102.375 7.60797C102.164 9.19472 103.397 10.5806 105 11.2133C106.744 11.8962 108.677 12.2176 110.551 12.2979C112.465 12.3883 114.439 12.1673 116.283 11.6552C117.174 11.4141 118.046 11.0827 118.667 10.3798C119.239 9.73702 119.469 8.91352 119.319 8.12015C120.12 8.22058 120.922 8.33104 121.713 8.45156C122.174 8.52186 122.635 8.6022 123.096 8.6725C123.297 8.70262 123.487 8.74279 123.687 8.77292C123.657 8.76288 124.088 8.85326 124.329 8.87335C124.309 9.01395 124.329 9.2148 124.329 9.34536C124.329 9.86758 124.319 10.3898 124.319 10.912C124.319 11.8862 124.319 12.8703 124.329 13.8445C124.369 17.7611 124.499 21.6778 124.719 25.5844C125.16 33.3474 125.972 41.1003 127.114 48.793C127.685 52.6695 128.367 56.5259 129.108 60.3823C129.148 60.5831 129.319 61.1857 129.279 61.256Z" fill="#1E1E1E"/>
<path d="M119.399 58.6952C116.192 58.5747 112.986 58.7053 109.8 59.0869C108.938 59.1873 108.096 59.7497 108.136 60.6937C108.176 61.4771 108.878 62.411 109.8 62.3006C112.986 61.9189 116.192 61.7884 119.399 61.9089C120.271 61.939 121.102 61.1457 121.062 60.3021C121.022 59.4083 120.331 58.7254 119.399 58.6952Z" fill="#1E1E1E"/>
<path d="M102.976 22.1098C103.327 21.6478 103.487 21.1055 103.437 20.5331C103.407 20.1716 103.297 19.81 103.146 19.4786C103.066 19.3079 102.986 19.1472 102.886 18.9865C102.715 18.7355 102.445 18.5446 102.164 18.4141C101.984 18.3237 101.884 18.3137 101.723 18.2936C101.703 18.2936 101.683 18.2936 101.663 18.2835C101.433 18.0525 101.132 17.8718 100.802 17.8316C100.671 17.8216 100.531 17.8216 100.401 17.8115C100.12 17.8316 99.8597 17.932 99.6293 18.0827C99.3587 18.2434 99.0782 18.394 98.8076 18.5547C98.6874 18.625 98.5571 18.6852 98.4369 18.7656C98.006 19.0468 97.7255 19.4887 97.6353 19.9807C97.6152 20.1013 97.6152 20.282 97.6152 20.4025C97.6152 20.4427 97.6253 20.4728 97.6253 20.513C97.6553 20.6837 97.6954 20.8645 97.7455 21.0252C97.8257 21.2763 97.9659 21.5072 98.1062 21.7382C98.2465 21.9792 98.4369 22.1901 98.6273 22.391C98.7976 22.5718 98.9679 22.7726 99.1583 22.9333C99.2986 23.0438 99.4589 23.1442 99.6192 23.2145C99.8597 23.3149 100.09 23.3651 100.341 23.3752C100.651 23.3852 100.942 23.345 101.242 23.2346C101.513 23.1341 101.764 23.0036 102.004 22.863C102.365 22.6722 102.745 22.4211 102.976 22.1098Z" fill="#00A99D"/>
<path d="M110 19.6089C109.81 19.0666 109.449 18.6247 108.938 18.3335C108.617 18.1527 108.247 18.0221 107.886 17.9518C107.695 17.9117 107.515 17.8815 107.325 17.8815C107.014 17.8715 106.693 17.9719 106.423 18.1226C106.242 18.213 106.172 18.2833 106.072 18.3937C106.062 18.4038 106.042 18.4239 106.032 18.4439C105.701 18.4942 105.381 18.6147 105.15 18.8657C105.07 18.9662 104.99 19.0666 104.91 19.1771C104.77 19.4181 104.699 19.6691 104.699 19.9403C104.669 20.2516 104.649 20.5529 104.619 20.8642C104.609 21.0048 104.589 21.1354 104.589 21.276C104.579 21.7781 104.78 22.2602 105.15 22.6117C105.241 22.702 105.391 22.8025 105.501 22.8728C105.531 22.8928 105.561 22.9129 105.601 22.923C105.762 23.0033 105.932 23.0736 106.112 23.1238C106.373 23.2042 106.653 23.2343 106.924 23.2544C107.204 23.2845 107.495 23.2544 107.776 23.2243C108.026 23.1941 108.297 23.174 108.547 23.1138C108.727 23.0736 108.898 23.0033 109.058 22.9129C109.289 22.7824 109.449 22.6317 109.609 22.4309C109.8 22.1899 109.93 21.9388 110.01 21.6375C110.08 21.3764 110.11 21.0952 110.13 20.8241C110.13 20.4223 110.13 19.9805 110 19.6089Z" fill="#FBB03B"/>
<path d="M111.593 19.1874C111.273 19.6695 111.152 20.2218 111.242 20.7943C111.293 21.1457 111.433 21.5073 111.613 21.8286C111.703 21.9893 111.794 22.15 111.914 22.3007C112.104 22.5417 112.385 22.7124 112.675 22.8229C112.866 22.8932 112.966 22.9032 113.126 22.9133C113.146 22.9133 113.166 22.9133 113.186 22.9133C113.437 23.1242 113.737 23.2848 114.078 23.3049C114.208 23.3049 114.349 23.2949 114.479 23.2949C114.76 23.2547 115.01 23.1442 115.23 22.9735C115.491 22.7927 115.752 22.622 116.012 22.4413C116.132 22.3609 116.253 22.2906 116.363 22.2002C116.774 21.8889 117.024 21.437 117.074 20.9349C117.084 20.8143 117.074 20.6336 117.064 20.5131C117.064 20.4729 117.054 20.4428 117.044 20.4026C117.004 20.2319 116.944 20.0611 116.884 19.8904C116.784 19.6494 116.623 19.4184 116.473 19.2075C116.313 18.9765 116.112 18.7857 115.902 18.5949C115.721 18.4242 115.531 18.2334 115.331 18.0827C115.19 17.9823 115.02 17.8919 114.85 17.8317C114.599 17.7413 114.369 17.7212 114.118 17.7212C113.808 17.7312 113.517 17.7915 113.226 17.922C112.966 18.0325 112.725 18.1932 112.495 18.3539C112.164 18.5748 111.814 18.856 111.593 19.1874Z" fill="#00A99D"/>
<path d="M123.407 19.6089C123.216 19.0666 122.856 18.6247 122.345 18.3335C122.024 18.1527 121.653 18.0221 121.293 17.9518C121.102 17.9117 120.922 17.8815 120.731 17.8815C120.421 17.8715 120.1 17.9719 119.83 18.1226C119.649 18.213 119.579 18.2833 119.479 18.3937C119.469 18.4038 119.449 18.4239 119.439 18.4439C119.108 18.4942 118.788 18.6147 118.557 18.8657C118.477 18.9662 118.397 19.0666 118.317 19.1771C118.176 19.4181 118.106 19.6691 118.106 19.9403C118.076 20.2516 118.056 20.5529 118.026 20.8642C118.016 21.0048 117.996 21.1354 117.996 21.276C117.986 21.7781 118.186 22.2602 118.557 22.6117C118.647 22.702 118.798 22.8025 118.908 22.8728C118.938 22.8928 118.968 22.9129 119.008 22.923C119.168 23.0033 119.339 23.0736 119.519 23.1238C119.78 23.2042 120.06 23.2343 120.331 23.2544C120.611 23.2845 120.902 23.2544 121.182 23.2243C121.433 23.1941 121.703 23.174 121.954 23.1138C122.134 23.0736 122.305 23.0033 122.465 22.9129C122.695 22.7824 122.856 22.6317 123.016 22.4309C123.206 22.1899 123.337 21.9388 123.417 21.6375C123.487 21.3764 123.517 21.0952 123.537 20.8241C123.537 20.4223 123.537 19.9805 123.407 19.6089Z" fill="#00A99D"/>
<path d="M118.697 26.0261C118.347 26.4881 118.186 27.0304 118.236 27.6028C118.267 27.9644 118.377 28.3259 118.527 28.6573C118.607 28.8281 118.687 28.9887 118.788 29.1494C118.958 29.4005 119.228 29.5913 119.509 29.7218C119.689 29.8122 119.79 29.8223 119.95 29.8424C119.97 29.8424 119.99 29.8424 120.01 29.8524C120.24 30.0834 120.541 30.2642 120.872 30.3043C121.002 30.3144 121.142 30.3144 121.273 30.3244C121.553 30.3043 121.814 30.2039 122.044 30.0533C122.315 29.8926 122.595 29.7419 122.866 29.5813C122.986 29.511 123.116 29.4507 123.236 29.3704C123.667 29.0892 123.948 28.6473 124.038 28.1552C124.058 28.0347 124.058 27.8539 124.058 27.7334C124.058 27.6932 124.048 27.6631 124.048 27.6229C124.018 27.4522 123.978 27.2714 123.928 27.1108C123.848 26.8597 123.707 26.6287 123.567 26.3977C123.427 26.1567 123.236 25.9458 123.046 25.7449C122.876 25.5642 122.705 25.3633 122.515 25.2026C122.375 25.0922 122.214 24.9917 122.054 24.9214C121.814 24.821 121.583 24.7708 121.333 24.7608C121.022 24.7507 120.731 24.7909 120.431 24.9014C120.16 25.0018 119.91 25.1323 119.669 25.2729C119.309 25.4537 118.938 25.7048 118.697 26.0261Z" fill="#FBB03B"/>
<path d="M111.683 28.5169C111.874 29.0592 112.234 29.501 112.746 29.7923C113.066 29.973 113.437 30.1036 113.798 30.1739C113.988 30.2141 114.168 30.2442 114.359 30.2442C114.669 30.2542 114.99 30.1538 115.261 30.0032C115.441 29.9128 115.511 29.8425 115.611 29.732C115.621 29.722 115.641 29.7019 115.651 29.6818C115.982 29.6316 116.303 29.5111 116.533 29.26C116.613 29.1596 116.693 29.0592 116.774 28.9487C116.914 28.7077 116.984 28.4566 116.984 28.1855C117.014 27.8741 117.034 27.5728 117.064 27.2615C117.074 27.1209 117.094 26.9904 117.094 26.8498C117.104 26.3476 116.904 25.8656 116.533 25.5141C116.443 25.4237 116.293 25.3233 116.182 25.253C116.152 25.2329 116.122 25.2128 116.082 25.2028C115.922 25.1224 115.752 25.0521 115.571 25.0019C115.311 24.9216 115.03 24.8915 114.76 24.8714C114.479 24.8412 114.188 24.8714 113.908 24.9015C113.657 24.9316 113.387 24.9517 113.136 25.012C112.956 25.0521 112.786 25.1224 112.625 25.2128C112.395 25.3434 112.234 25.494 112.074 25.6949C111.884 25.9359 111.754 26.187 111.673 26.4882C111.603 26.7493 111.573 27.0305 111.553 27.3017C111.553 27.7134 111.553 28.1553 111.683 28.5169Z" fill="#00A99D"/>
<path d="M110.09 28.9486C110.411 28.4665 110.531 27.9142 110.441 27.3417C110.391 26.9902 110.251 26.6287 110.07 26.3073C109.98 26.1466 109.89 25.986 109.77 25.8353C109.579 25.5943 109.299 25.4236 109.008 25.3131C108.818 25.2428 108.717 25.2328 108.557 25.2227C108.537 25.2227 108.517 25.2227 108.497 25.2227C108.247 25.0118 107.946 24.8511 107.605 24.8311C107.475 24.8311 107.335 24.8411 107.204 24.8411C106.924 24.8813 106.673 24.9917 106.453 25.1625C106.192 25.3432 105.932 25.514 105.671 25.6947C105.551 25.7751 105.431 25.8454 105.321 25.9358C104.91 26.2471 104.659 26.699 104.609 27.2011C104.599 27.3216 104.609 27.5024 104.619 27.6229C104.619 27.6631 104.629 27.6932 104.639 27.7334C104.679 27.9041 104.74 28.0748 104.8 28.2456C104.9 28.4866 105.06 28.7176 105.21 28.9285C105.371 29.1595 105.571 29.3503 105.782 29.5411C105.962 29.7118 106.152 29.9026 106.353 30.0532C106.493 30.1537 106.663 30.2441 106.834 30.3043C107.084 30.3947 107.315 30.4148 107.565 30.4148C107.876 30.4047 108.166 30.3445 108.457 30.2139C108.717 30.1035 108.958 29.9428 109.188 29.7821C109.519 29.5511 109.87 29.28 110.09 28.9486Z" fill="#FBB03B"/>
<path d="M98.2766 28.5169C98.4669 29.0592 98.8277 29.501 99.3387 29.7923C99.6593 29.973 100.03 30.1036 100.391 30.1739C100.581 30.2141 100.762 30.2442 100.952 30.2442C101.263 30.2542 101.583 30.1538 101.854 30.0032C102.034 29.9128 102.104 29.8425 102.204 29.732C102.214 29.722 102.234 29.7019 102.244 29.6818C102.575 29.6316 102.896 29.5111 103.126 29.26C103.206 29.1596 103.287 29.0592 103.367 28.9487C103.507 28.7077 103.577 28.4566 103.577 28.1855C103.607 27.8741 103.627 27.5728 103.657 27.2615C103.667 27.1209 103.687 26.9904 103.687 26.8498C103.697 26.3476 103.497 25.8656 103.126 25.5141C103.036 25.4237 102.886 25.3233 102.776 25.253C102.745 25.2329 102.715 25.2128 102.675 25.2028C102.515 25.1224 102.345 25.0521 102.164 25.0019C101.904 24.9216 101.623 24.8915 101.353 24.8714C101.072 24.8412 100.782 24.8714 100.501 24.9015C100.251 24.9316 99.98 24.9517 99.7295 25.012C99.5491 25.0521 99.3788 25.1224 99.2184 25.2128C98.988 25.3434 98.8277 25.494 98.6673 25.6949C98.477 25.9359 98.3467 26.187 98.2665 26.4882C98.1964 26.7493 98.1663 27.0305 98.1463 27.3017C98.1463 27.7134 98.1463 28.1553 98.2766 28.5169Z" fill="#FBB03B"/>
<path d="M103.707 35.7778C104.058 35.3158 104.218 34.7735 104.168 34.2011C104.138 33.8395 104.028 33.478 103.878 33.1466C103.798 32.9759 103.717 32.8152 103.617 32.6545C103.447 32.4034 103.176 32.2126 102.896 32.0821C102.715 31.9917 102.615 31.9816 102.455 31.9615C102.435 31.9615 102.415 31.9615 102.395 31.9515C102.164 31.7205 101.864 31.5397 101.533 31.4996C101.403 31.4895 101.263 31.4895 101.132 31.4795C100.852 31.4996 100.591 31.6 100.361 31.7506C100.09 31.9113 99.8096 32.062 99.5391 32.2227C99.4188 32.2929 99.2886 32.3532 99.1684 32.4335C98.7375 32.7147 98.4569 33.1566 98.3667 33.6487C98.3467 33.7692 98.3467 33.95 98.3467 34.0705C98.3467 34.1107 98.3567 34.1408 98.3567 34.181C98.3868 34.3517 98.4269 34.5325 98.477 34.6932C98.5571 34.9442 98.6974 35.1752 98.8377 35.4062C98.978 35.6472 99.1684 35.8581 99.3587 36.059C99.5291 36.2397 99.6994 36.4406 99.8898 36.6013C100.03 36.7117 100.19 36.8122 100.351 36.8825C100.591 36.9829 100.822 37.0331 101.072 37.0431C101.383 37.0532 101.673 37.013 101.974 36.9025C102.245 36.8021 102.495 36.6716 102.735 36.531C103.096 36.3402 103.467 36.0891 103.707 35.7778Z" fill="#FBB03B"/>
<path d="M110.731 33.2773C110.541 32.735 110.18 32.2932 109.669 32.0019C109.349 31.8212 108.978 31.6906 108.617 31.6203C108.427 31.5801 108.247 31.55 108.056 31.55C107.746 31.54 107.425 31.6404 107.154 31.791C106.974 31.8814 106.904 31.9517 106.804 32.0622C106.794 32.0722 106.774 32.0923 106.764 32.1124C106.433 32.1626 106.112 32.2831 105.882 32.5342C105.802 32.6346 105.721 32.735 105.641 32.8455C105.501 33.0865 105.431 33.3376 105.431 33.6088C105.401 33.9201 105.381 34.2214 105.351 34.5327C105.341 34.6733 105.321 34.8038 105.321 34.9444C105.311 35.4466 105.511 35.9286 105.882 36.2801C105.972 36.3705 106.122 36.4709 106.232 36.5412C106.263 36.5613 106.293 36.5814 106.333 36.5914C106.493 36.6718 106.663 36.7421 106.844 36.7923C107.104 36.8726 107.385 36.9028 107.655 36.9228C107.936 36.953 108.226 36.9228 108.507 36.8927C108.758 36.8626 109.028 36.8425 109.279 36.7822C109.459 36.7421 109.629 36.6718 109.79 36.5814C110.02 36.4508 110.18 36.3002 110.341 36.0993C110.531 35.8583 110.661 35.6072 110.742 35.306C110.812 35.0449 110.842 34.7637 110.862 34.4925C110.852 34.0908 110.852 33.6489 110.731 33.2773Z" fill="#00A99D"/>
<path d="M112.325 32.8451C112.004 33.3272 111.884 33.8795 111.974 34.452C112.024 34.8035 112.164 35.165 112.345 35.4864C112.435 35.647 112.525 35.8077 112.645 35.9584C112.836 36.1994 113.116 36.3701 113.407 36.4806C113.597 36.5509 113.697 36.5609 113.858 36.571C113.878 36.571 113.898 36.571 113.918 36.571C114.168 36.7819 114.469 36.9426 114.81 36.9626C114.94 36.9626 115.08 36.9526 115.21 36.9526C115.491 36.9124 115.742 36.802 115.962 36.6312C116.222 36.4505 116.483 36.2797 116.744 36.099C116.864 36.0186 116.984 35.9483 117.094 35.8579C117.505 35.5466 117.756 35.0947 117.806 34.5926C117.816 34.4721 117.806 34.2913 117.796 34.1708C117.796 34.1306 117.786 34.1005 117.776 34.0603C117.736 33.8896 117.675 33.7189 117.615 33.5481C117.515 33.3071 117.355 33.0761 117.204 32.8652C117.044 32.6342 116.844 32.4434 116.633 32.2526C116.453 32.0819 116.263 31.8911 116.062 31.7404C115.922 31.64 115.752 31.5496 115.581 31.4894C115.331 31.399 115.1 31.3789 114.85 31.3789C114.539 31.3889 114.249 31.4492 113.958 31.5798C113.697 31.6902 113.457 31.8509 113.226 32.0116C112.886 32.2426 112.535 32.5238 112.325 32.8451Z" fill="#FBB03B"/>
<path d="M124.138 33.2773C123.948 32.735 123.587 32.2932 123.076 32.0019C122.756 31.8212 122.385 31.6906 122.024 31.6203C121.834 31.5801 121.653 31.55 121.463 31.55C121.152 31.54 120.832 31.6404 120.561 31.791C120.381 31.8814 120.311 31.9517 120.21 32.0622C120.2 32.0722 120.18 32.0923 120.17 32.1124C119.84 32.1626 119.519 32.2831 119.289 32.5342C119.208 32.6346 119.128 32.735 119.048 32.8455C118.908 33.0865 118.838 33.3376 118.838 33.6088C118.808 33.9201 118.788 34.2214 118.758 34.5327C118.748 34.6733 118.727 34.8038 118.727 34.9444C118.717 35.4466 118.918 35.9286 119.289 36.2801C119.379 36.3705 119.529 36.4709 119.639 36.5412C119.669 36.5613 119.699 36.5814 119.739 36.5914C119.9 36.6718 120.07 36.7421 120.251 36.7923C120.511 36.8726 120.792 36.9028 121.062 36.9228C121.343 36.953 121.633 36.9228 121.914 36.8927C122.164 36.8626 122.435 36.8425 122.685 36.7822C122.866 36.7421 123.036 36.6718 123.196 36.5814C123.427 36.4508 123.587 36.3002 123.748 36.0993C123.938 35.8583 124.068 35.6072 124.148 35.306C124.218 35.0449 124.249 34.7637 124.269 34.4925C124.259 34.0908 124.269 33.6489 124.138 33.2773Z" fill="#00A99D"/>
<path d="M110.812 42.617C111.132 42.135 111.253 41.5826 111.162 41.0102C111.112 40.6587 110.972 40.2972 110.792 39.9758C110.701 39.8151 110.611 39.6544 110.491 39.5038C110.301 39.2628 110.02 39.092 109.729 38.9816C109.539 38.9113 109.439 38.9012 109.279 38.8912C109.259 38.8912 109.239 38.8912 109.218 38.8912C108.968 38.6803 108.667 38.5196 108.327 38.4995C108.196 38.4995 108.056 38.5096 107.926 38.5096C107.645 38.5497 107.395 38.6602 107.174 38.8309C106.914 39.0117 106.653 39.1824 106.393 39.3632C106.273 39.4435 106.152 39.5138 106.042 39.6042C105.631 39.9155 105.381 40.3675 105.331 40.8696C105.321 40.9901 105.331 41.1709 105.341 41.2914C105.341 41.3315 105.351 41.3617 105.361 41.4018C105.401 41.5726 105.461 41.7433 105.521 41.914C105.621 42.155 105.782 42.386 105.932 42.5969C106.092 42.8279 106.293 43.0187 106.503 43.2095C106.683 43.3803 106.874 43.5711 107.074 43.7217C107.214 43.8221 107.385 43.9125 107.555 43.9728C107.806 44.0632 108.036 44.0832 108.287 44.0832C108.597 44.0732 108.888 44.0129 109.178 43.8824C109.439 43.7719 109.679 43.6112 109.91 43.4506C110.251 43.2196 110.601 42.9484 110.812 42.617Z" fill="#FBB03B"/>
<path d="M98.998 42.1848C99.1884 42.7271 99.5491 43.169 100.06 43.4602C100.381 43.641 100.752 43.7716 101.112 43.8419C101.303 43.882 101.483 43.9122 101.673 43.9122C101.984 43.9222 102.305 43.8218 102.575 43.6711C102.756 43.5808 102.826 43.5105 102.926 43.4C102.936 43.39 102.956 43.3699 102.966 43.3498C103.297 43.2996 103.617 43.1791 103.848 42.928C103.928 42.8276 104.008 42.7271 104.088 42.6167C104.228 42.3756 104.299 42.1246 104.299 41.8534C104.329 41.5421 104.349 41.2408 104.379 40.9295C104.389 40.7889 104.409 40.6583 104.409 40.5177C104.419 40.0156 104.218 39.5336 103.848 39.1821C103.758 39.0917 103.607 38.9913 103.497 38.921C103.467 38.9009 103.437 38.8808 103.397 38.8707C103.236 38.7904 103.066 38.7201 102.886 38.6699C102.625 38.5895 102.345 38.5594 102.074 38.5393C101.794 38.5092 101.503 38.5393 101.222 38.5695C100.972 38.5996 100.701 38.6197 100.451 38.6799C100.271 38.7201 100.1 38.7904 99.9399 38.8808C99.7094 39.0113 99.5491 39.162 99.3888 39.3628C99.1984 39.6039 99.0681 39.8549 98.988 40.1562C98.9178 40.4173 98.8878 40.6985 98.8677 40.9697C98.8778 41.3814 98.8677 41.8132 98.998 42.1848Z" fill="#00A99D"/>
<path d="M157.705 74.4319C156.553 74.9541 155.351 75.2654 154.108 75.4362C152.966 75.5968 152.695 77.2438 153.447 77.9569C153.928 78.4088 154.439 78.8004 154.96 79.172C154.399 79.413 153.838 79.6239 153.247 79.8047C151.954 80.1964 151.834 81.8333 152.886 82.5564C153.567 83.0284 154.259 83.5004 154.94 83.9624C155.01 84.0126 155.07 84.0628 155.14 84.1231C153.978 84.585 152.956 85.2679 152.074 86.1617C151.343 86.9049 151.603 87.9694 152.375 88.5318L155.381 90.7111C154.299 91.5948 153.206 92.4786 152.124 93.3623C151.613 93.7741 151.583 94.6578 151.894 95.1901C152.625 96.4454 153.577 97.5401 154.719 98.4038C153.948 98.8858 153.427 99.639 153.427 100.583C153.427 101.678 154.138 102.782 154.629 103.716C154.91 104.249 155.21 104.771 155.521 105.293C154.659 105.464 153.798 105.645 152.946 105.855C152.034 106.086 151.523 107.261 152.044 108.065C152.605 108.928 153.176 109.792 153.737 110.666C153.918 110.937 154.469 111.61 154.83 112.162C154.569 112.243 154.299 112.313 154.118 112.383C153.567 112.594 153.016 112.815 152.465 113.026C151.523 113.387 151.102 114.301 151.563 115.235C152.816 117.746 154.339 120.066 156.072 122.265C157.275 123.782 159.389 121.643 158.196 120.136C157.014 118.63 155.962 117.033 155.03 115.356C156.533 114.864 158.156 114.151 158.156 112.664C158.166 111.57 157.295 110.626 156.723 109.742C156.413 109.26 156.092 108.778 155.782 108.296C156.653 108.115 157.525 107.954 158.407 107.834C159.339 107.693 159.81 106.358 159.309 105.624C158.717 104.771 158.156 103.887 157.645 102.983C157.425 102.592 157.214 102.2 157.014 101.808C156.884 101.547 156.744 101.276 156.623 101.005C156.613 100.924 156.593 100.884 156.583 100.824C156.623 100.804 156.673 100.784 156.713 100.764C156.984 100.643 157.275 100.553 157.535 100.412C158.106 100.111 158.607 99.6892 158.868 99.0867C159.158 98.4138 159.148 97.3694 158.327 97.0279C157.064 96.4957 156.022 95.7424 155.19 94.7181C156.423 93.7138 157.655 92.7196 158.878 91.7153C159.699 91.0525 159.279 89.8574 158.577 89.3453C157.605 88.6423 156.633 87.9292 155.651 87.2263C156.022 87.0354 156.413 86.8647 156.854 86.7141C157.796 86.3827 158.597 85.8504 158.808 84.806C159.078 83.4803 158.096 82.4359 156.924 81.5823C157.585 81.2609 158.236 80.9094 158.858 80.5177C160.03 79.7746 159.679 78.2381 158.497 77.7661C158.327 77.6958 158.166 77.6154 158.006 77.5351C158.407 77.3844 158.808 77.2237 159.198 77.043C160.982 76.2295 159.449 73.6385 157.705 74.4319Z" fill="#00A99D"/>
</svg>
