<svg width="282" height="339" viewBox="0 0 282 339" fill="none" xmlns="http://www.w3.org/2000/svg">
<path d="M267.551 5.29612C266.766 4.41954 265.969 3.47845 264.96 2.85437C263.473 1.97336 261.824 2.19415 260.349 3.06408C258.088 4.40658 256.104 6.09189 254.189 7.91027C252.102 9.90191 250.015 11.8935 247.905 13.904C246.787 14.977 245.328 16.0593 244.656 17.4914C243.886 19.1881 244.246 20.8882 245.683 21.9962L245.702 22.0191C249.094 26.7094 252.468 31.3769 255.819 36.0632C256.416 36.9007 257.588 37.2454 258.589 37.0887C261.065 36.7367 263.296 35.4547 265.419 34.1833C267.727 32.8032 269.985 31.3129 272.15 29.7083C273.094 28.998 274.037 28.2877 274.962 27.5545C276.005 26.7273 277.301 25.9245 278.118 24.8647C280.181 22.2173 278.313 19.4655 276.784 17.2313C273.894 13.1164 271.004 9.0015 267.551 5.29612ZM270.044 23.9612C268.721 24.9723 267.356 25.9793 265.955 26.9407C264.648 27.8268 263.347 28.6713 261.99 29.4473C261.186 29.897 260.335 30.3843 259.477 30.7654C256.645 26.8669 253.837 22.9496 251.028 19.0322C251.561 18.5353 252.074 18.0156 252.607 17.5187C253.871 16.2912 255.155 15.0866 256.419 13.8591C257.608 12.7296 258.772 11.619 259.997 10.5352C260.619 10.0048 261.236 9.51603 261.894 9.0313C262.06 8.8997 262.268 8.77216 262.453 8.66342C262.563 8.80055 262.698 8.91887 262.808 9.056C263.408 9.70404 263.985 10.3709 264.58 11.0606C265.727 12.4359 266.833 13.8072 267.909 15.2389C268.986 16.6706 269.996 18.1171 271.025 19.5864C271.475 20.2411 271.944 20.9186 272.418 21.5545C272.491 21.6459 272.56 21.779 272.652 21.8932C272.486 22.0248 272.32 22.1564 272.13 22.3068C271.461 22.8748 270.755 23.3972 270.044 23.9612Z" fill="#DCDCDC"/>
<path d="M82.4924 303.218C81.708 302.341 80.9104 301.4 79.902 300.776C78.4145 299.895 76.7657 300.116 75.2904 300.986C73.0301 302.328 71.0461 304.014 69.1306 305.832C67.0437 307.824 64.9569 309.815 62.8464 311.826C61.7292 312.899 60.2696 313.981 59.5974 315.413C58.8275 317.11 59.1875 318.81 60.6249 319.918L60.6434 319.941C64.0359 324.631 67.41 329.299 70.7604 333.985C71.3578 334.823 72.5296 335.167 73.5305 335.011C76.0063 334.659 78.2376 333.377 80.361 332.105C82.6687 330.725 84.9265 329.235 87.0921 327.63C88.0353 326.92 88.9785 326.21 89.9033 325.477C90.9466 324.649 92.2428 323.847 93.0597 322.787C95.1232 320.139 93.2546 317.388 91.7255 315.153C88.8357 311.038 85.946 306.923 82.4924 303.218ZM84.9854 321.883C83.6628 322.894 82.2981 323.901 80.8965 324.863C79.5898 325.749 78.2883 326.593 76.9316 327.369C76.1281 327.819 75.2772 328.306 74.4185 328.687C71.5865 324.789 68.7783 320.872 65.9701 316.954C66.5023 316.457 67.0161 315.938 67.5484 315.441C68.8131 314.213 70.0963 313.009 71.361 311.781C72.5494 310.652 73.714 309.541 74.9392 308.457C75.561 307.927 76.1775 307.438 76.8361 306.953C77.0021 306.822 77.2102 306.694 77.3946 306.585C77.5052 306.722 77.6394 306.841 77.75 306.978C78.3501 307.626 78.9266 308.293 79.5215 308.983C80.6691 310.358 81.7746 311.729 82.851 313.161C83.9275 314.593 84.9381 316.039 85.9672 317.508C86.4172 318.163 86.8857 318.841 87.3595 319.476C87.4332 319.568 87.5016 319.701 87.5937 319.815C87.4277 319.947 87.2617 320.078 87.072 320.229C86.4028 320.797 85.6967 321.319 84.9854 321.883Z" fill="#DCDCDC"/>
<path d="M27.2152 81.564C26.4308 80.6874 25.6333 79.7463 24.6249 79.1222C23.1373 78.2412 21.4885 78.462 20.0132 79.3319C17.7529 80.6744 15.7689 82.3597 13.8534 84.1781C11.7666 86.1698 9.67974 88.1614 7.5692 90.1719C6.45201 91.2449 4.99244 92.3272 4.32016 93.7593C3.55031 95.456 3.9103 97.1561 5.34775 98.2642L5.36617 98.2871C8.7587 102.977 12.1328 107.645 15.4832 112.331C16.0806 113.169 17.2525 113.513 18.2533 113.357C20.7291 113.005 22.9605 111.723 25.0838 110.451C27.3916 109.071 29.6493 107.581 31.815 105.976C32.7582 105.266 33.7014 104.556 34.6261 103.822C35.6695 102.995 36.9656 102.192 37.7826 101.133C39.846 98.4853 37.9774 95.7335 36.4484 93.4993C33.5586 89.3843 30.6688 85.2694 27.2152 81.564ZM29.7082 100.229C28.3856 101.24 27.0209 102.247 25.6193 103.209C24.3126 104.095 23.0111 104.939 21.6544 105.715C20.8509 106.165 20 106.652 19.1413 107.033C16.3093 103.135 13.5011 99.2175 10.6929 95.3002C11.2251 94.8033 11.7389 94.2835 12.2712 93.7866C13.5359 92.5591 14.8191 91.3545 16.0839 90.127C17.2722 88.9975 18.4368 87.8869 19.662 86.8031C20.2838 86.2727 20.9003 85.7839 21.5589 85.2992C21.7249 85.1676 21.933 85.04 22.1175 84.9313C22.228 85.0684 22.3623 85.1867 22.4728 85.3239C23.073 85.9719 23.6494 86.6388 24.2443 87.3285C25.3919 88.7038 26.4974 90.0751 27.5739 91.5068C28.6503 92.9385 29.661 94.385 30.69 95.8543C31.1401 96.509 31.6085 97.1865 32.0823 97.8224C32.156 97.9138 32.2244 98.0469 32.3165 98.1612C32.1505 98.2928 31.9845 98.4244 31.7949 98.5748C31.1256 99.1428 30.4196 99.6651 29.7082 100.229Z" fill="#DCDCDC"/>
<path d="M259.558 243.744C255.089 239.825 249.576 237.909 243.917 236.524C242.496 235.669 240.842 236.259 239.942 237.585C237.998 240.473 236.431 243.597 235.038 246.779C234.284 248.547 233.558 250.316 232.833 252.113C232.166 253.793 231.237 255.532 231.73 257.418C232.311 259.569 234.226 260.335 236.054 261.101C237.737 261.809 239.42 262.516 241.132 263.194C244.614 264.579 248.125 265.846 251.694 266.995C252.594 267.29 253.899 266.995 254.509 266.229C256.685 263.488 257.236 260.011 257.846 256.622C258.455 253.233 259.035 249.844 260.283 246.603C260.66 245.718 260.283 244.363 259.558 243.744ZM240.058 256.416C239.362 256.121 238.665 255.826 237.969 255.532C237.911 255.502 237.853 255.473 237.795 255.443C238.23 254.441 238.578 253.322 238.956 252.378C239.478 251.052 240.029 249.756 240.61 248.459C241.538 246.426 242.612 244.451 243.743 242.506C247.371 243.449 251.027 244.628 254.103 246.809C253.348 249.196 252.884 251.642 252.449 254.117C252.187 255.62 251.897 257.123 251.578 258.626C251.462 259.186 251.346 259.864 251.143 260.512C248.85 259.716 246.529 258.95 244.266 258.066C242.844 257.565 241.451 257.005 240.058 256.416Z" fill="#DCDCDC"/>
</svg>
