<svg width="161" height="161" viewBox="0 0 161 161" fill="none" xmlns="http://www.w3.org/2000/svg">
<path d="M75.4 76.5202C75.28 75.1902 75.23 72.1002 73.87 71.4002C73.81 71.3702 73.75 71.3502 73.69 71.3302C65.16 70.9502 56.62 71.6802 48.09 71.7802C38.84 71.9002 29.5 70.3202 20.3 71.7602C19.15 71.3202 17.51 71.9202 17.39 73.5802C17.23 75.9202 17.14 78.2602 17.15 80.6102C17.16 81.7802 17.18 82.9602 17.23 84.1302C17.28 85.2102 17.25 86.3602 17.98 87.2302C19.02 88.4602 20.91 88.3502 22.58 88.2402C23.18 88.3002 23.8 88.2502 24.41 88.1802C26.67 88.2102 28.93 88.3402 31.19 88.4902C35.74 88.8002 40.3 89.2002 44.86 89.0502C47.23 88.9702 49.56 88.6502 51.92 88.4202C54.18 88.2002 56.37 88.2902 58.63 88.4702C63.78 88.8802 68.8 87.5702 73.93 87.7402C74.21 87.7502 74.46 87.6902 74.7 87.5802C75.23 83.9002 75.74 80.2202 75.4 76.5202Z" fill="#00A99D"/>
<path d="M88.2401 116.7L87.9401 111.57C87.8901 110.71 87.8401 109.86 87.7901 109C87.7201 107.87 87.5701 106.77 86.5101 106.14C85.5201 105.55 84.3701 105.89 83.3201 106.09C82.4101 106.26 81.5001 106.43 80.5901 106.6C78.9201 106.91 77.2401 107.22 75.5701 107.53C75.2801 107.35 74.9501 107.23 74.5701 107.25C73.5601 107.3 72.4701 108.15 72.5701 109.29C72.8601 112.69 73.1401 116.09 73.4501 119.49C73.5601 120.66 73.8401 121.68 75.0001 122.18C75.8501 122.55 76.9501 122.45 77.8601 122.49C79.5301 122.57 81.2001 122.64 82.8701 122.72C84.4501 122.79 86.3101 123.09 87.5501 121.83C88.8401 120.51 88.3401 118.36 88.2401 116.7Z" fill="#FBB03B"/>
<path d="M111.04 115.9L110.74 110.77C110.69 109.91 110.64 109.06 110.59 108.2C110.52 107.07 110.37 105.97 109.31 105.34C108.32 104.75 107.17 105.09 106.12 105.29C105.21 105.46 104.3 105.63 103.39 105.8C101.72 106.11 100.04 106.42 98.37 106.73C98.08 106.55 97.75 106.43 97.37 106.45C96.36 106.5 95.27 107.35 95.37 108.49C95.66 111.89 95.94 115.29 96.25 118.69C96.36 119.86 96.64 120.88 97.8 121.38C98.65 121.75 99.75 121.65 100.66 121.69C102.33 121.77 104 121.84 105.67 121.92C107.25 121.99 109.11 122.29 110.35 121.03C111.63 119.71 111.14 117.56 111.04 115.9Z" fill="#FBB03B"/>
<path d="M44.3101 112.58L44.6101 117.71C44.6601 118.57 44.7101 119.42 44.7601 120.28C44.8301 121.41 44.9801 122.51 46.0401 123.14C47.0301 123.73 48.1801 123.39 49.2301 123.19C50.1401 123.02 51.0501 122.85 51.9601 122.68C53.6301 122.37 55.3101 122.06 56.9801 121.75C57.2701 121.93 57.6001 122.05 57.9801 122.03C58.9901 121.98 60.0801 121.13 59.9801 119.99C59.6901 116.59 59.4101 113.19 59.1001 109.79C58.9901 108.62 58.7101 107.6 57.5501 107.1C56.7001 106.73 55.6001 106.83 54.6901 106.79C53.0201 106.71 51.3501 106.64 49.6801 106.56C48.1001 106.49 46.2401 106.19 45.0001 107.45C43.7101 108.77 44.2101 110.92 44.3101 112.58Z" fill="#FBB03B"/>
<path d="M20.8301 111.9L21.1301 117.03C21.1801 117.89 21.2301 118.74 21.2801 119.6C21.3501 120.73 21.5001 121.83 22.5601 122.46C23.5501 123.05 24.7001 122.71 25.7501 122.51C26.6601 122.34 27.5701 122.17 28.4801 122C30.1501 121.69 31.8301 121.38 33.5001 121.07C33.7901 121.25 34.1201 121.37 34.5001 121.35C35.5101 121.3 36.6001 120.45 36.5001 119.31C36.2101 115.91 35.9301 112.51 35.6201 109.11C35.5101 107.94 35.2301 106.92 34.0701 106.42C33.2201 106.05 32.1201 106.15 31.2101 106.11C29.5401 106.03 27.8701 105.96 26.2001 105.88C24.6201 105.81 22.7601 105.51 21.5201 106.77C20.2301 108.1 20.7301 110.24 20.8301 111.9Z" fill="#FBB03B"/>
<path d="M149.15 36.1499C149.1 35.6699 148.98 35.1799 148.81 34.6899C148.51 32.4299 146.94 30.2999 144.08 30.1299C115.02 28.3699 85.9301 27.2599 56.82 26.8599C49.3101 26.7599 41.8 26.6999 34.28 26.6899C27.48 26.6799 19.95 25.8299 13.24 26.9499C4.61005 28.3899 3.74005 41.0699 9.40005 46.5799C12.97 50.0499 18.5601 49.4699 23.1201 49.6799C30.66 50.0199 38.19 50.3499 45.73 50.6699C60.33 51.2899 74.93 51.8699 89.54 52.4199C104 52.9599 118.57 53.9999 133.05 53.9099C137.69 53.8799 143.36 53.9699 146.58 50.0499C149.53 46.4499 149.57 40.5299 149.15 36.1499Z" fill="#FBB03B"/>
<path d="M138.66 72.88C137.51 89.31 136.99 105.76 137.09 122.23C137.13 128.76 147.08 128.77 147.04 122.23C146.94 105.76 147.46 89.31 148.61 72.88C149.07 66.37 139.12 66.4 138.66 72.88Z" fill="#00A99D"/>
<path d="M156.58 27.7802L156.6 27.7202L156.59 27.6802L156.58 27.7802Z" fill="#1E1E1E"/>
<path d="M35.0901 121.21C35.1801 119.06 35.1901 116.92 35.1301 114.85C35.1001 113.94 35.0601 113.04 35.0101 112.13C34.9901 111.86 34.9801 111.59 34.9701 111.31C34.9401 110.47 34.9101 109.6 34.7101 108.82C34.1501 106.62 31.8001 106.55 29.9201 106.5L29.6301 106.49C27.5101 106.42 25.4201 106.62 23.4901 106.84C23.2001 106.87 22.9101 106.9 22.6001 106.93C20.9501 107.08 19.2401 107.23 18.1001 108.42C16.9401 109.64 16.8801 111.4 16.8301 113.1L16.8101 113.58C16.7301 115.66 16.6701 117.7 16.8201 119.75C16.9901 122.01 18.0601 123.5 19.8301 123.94C20.6401 124.15 21.5301 124.14 22.4001 124.15H22.7501L33.1201 124.16C33.6101 124.16 34.0201 123.99 34.3101 123.66C34.6301 123.3 34.7801 122.78 34.7301 122.24V122.23V122.22C34.9501 121.95 35.0801 121.61 35.0901 121.21ZM20.1201 115.84V114.96C20.1201 113.77 20.1201 112.54 20.3101 111.48L20.3401 111.29C20.4001 110.95 20.4501 110.79 20.8301 110.65C21.3201 110.48 21.8501 110.43 22.3701 110.39C22.5501 110.37 22.7301 110.36 22.9001 110.34C24.4701 110.15 26.1601 109.97 27.8801 109.92C28.1901 109.91 28.5001 109.91 28.7901 109.91C29.3001 109.91 29.7701 109.92 30.2301 109.95C30.6201 109.97 31.0101 110 31.4001 110.04L31.5001 110.05L31.5201 110.13C31.6101 111.39 31.7901 114.92 31.8001 115.3C31.8401 117.01 31.8301 118.78 31.7601 120.71V120.73L23.0601 120.72C22.9501 120.72 22.8101 120.73 22.6401 120.74L22.5201 120.75C22.2701 120.77 21.9901 120.78 21.7201 120.78C20.9201 120.78 20.4601 120.63 20.3101 120.33C20.1201 119.93 20.1301 119.36 20.1401 118.86V118.75C20.1401 118.62 20.1401 118.5 20.1401 118.39C20.1101 117.54 20.1101 116.69 20.1201 115.84Z" fill="#1E1E1E"/>
<path d="M41.6201 109.45C41.5301 111.6 41.5201 113.74 41.5801 115.81C41.6101 116.72 41.6501 117.62 41.7001 118.53C41.7201 118.8 41.7301 119.07 41.7401 119.35C41.7701 120.19 41.8001 121.06 42.0001 121.84C42.5601 124.04 44.9101 124.11 46.7901 124.16L47.0801 124.17C49.2001 124.24 51.2901 124.04 53.2201 123.82C53.5101 123.79 53.8001 123.76 54.1101 123.73C55.7601 123.58 57.4701 123.43 58.6101 122.24C59.7701 121.02 59.8301 119.26 59.8801 117.56L59.9001 117.08C59.9801 115 60.0401 112.96 59.8901 110.91C59.7201 108.65 58.6501 107.16 56.8801 106.72C56.0701 106.51 55.1801 106.52 54.3101 106.51H53.9601L43.5901 106.5C43.1001 106.5 42.6901 106.67 42.4001 107C42.0801 107.36 41.9301 107.88 41.9801 108.42V108.43V108.44C41.7601 108.71 41.6401 109.05 41.6201 109.45ZM56.6001 114.82V115.7C56.6001 116.89 56.6001 118.12 56.4101 119.18L56.3801 119.37C56.3201 119.71 56.2701 119.87 55.8901 120.01C55.4001 120.18 54.8701 120.23 54.3501 120.27C54.1701 120.29 53.9901 120.3 53.8201 120.32C52.2501 120.51 50.5601 120.69 48.8401 120.74C48.5301 120.75 48.2201 120.75 47.9301 120.75C47.4201 120.75 46.9501 120.74 46.4901 120.71C46.1001 120.69 45.7101 120.66 45.3201 120.62L45.2201 120.61L45.2001 120.53C45.1101 119.27 44.9301 115.74 44.9201 115.36C44.8801 113.65 44.8901 111.88 44.9601 109.95V109.93L53.6601 109.94C53.7701 109.94 53.9101 109.93 54.0801 109.92L54.2001 109.91C54.4501 109.89 54.7301 109.88 55.0001 109.88C55.8001 109.88 56.2601 110.03 56.4101 110.33C56.6001 110.73 56.5901 111.3 56.5801 111.8V111.91C56.5801 112.04 56.5801 112.16 56.5801 112.27C56.6001 113.11 56.6101 113.96 56.6001 114.82Z" fill="#1E1E1E"/>
<path d="M86.7901 121.21C86.8801 119.06 86.8901 116.92 86.8301 114.85C86.8001 113.94 86.7601 113.04 86.7101 112.13C86.6901 111.86 86.6801 111.59 86.6701 111.31C86.6401 110.47 86.6101 109.6 86.4101 108.82C85.8501 106.62 83.5001 106.55 81.6201 106.5L81.3301 106.49C79.2101 106.42 77.1201 106.62 75.1901 106.84C74.9001 106.87 74.6101 106.9 74.3001 106.93C72.6501 107.08 70.9401 107.23 69.8001 108.42C68.6401 109.64 68.5801 111.4 68.5301 113.1L68.5101 113.58C68.4301 115.66 68.3701 117.7 68.5201 119.75C68.6901 122.01 69.7601 123.5 71.5301 123.94C72.3401 124.15 73.2301 124.14 74.1001 124.15H74.4501L84.8201 124.16C85.3101 124.16 85.7201 123.99 86.0101 123.66C86.3301 123.3 86.4801 122.78 86.4301 122.24V122.23V122.22C86.6501 121.95 86.7801 121.61 86.7901 121.21ZM71.8201 115.84V114.96C71.8201 113.77 71.8201 112.54 72.0101 111.48L72.0401 111.29C72.1001 110.95 72.1501 110.79 72.5301 110.65C73.0201 110.48 73.5501 110.43 74.0701 110.39C74.2501 110.37 74.4301 110.36 74.6001 110.34C76.1701 110.15 77.8601 109.97 79.5801 109.92C79.8901 109.91 80.2001 109.91 80.4901 109.91C81.0001 109.91 81.4701 109.92 81.9301 109.95C82.3201 109.97 82.7101 110 83.1001 110.04L83.2001 110.05L83.2201 110.13C83.3101 111.39 83.4901 114.92 83.5001 115.3C83.5401 117.01 83.5301 118.78 83.4601 120.71V120.73L74.7601 120.72C74.6501 120.72 74.5101 120.73 74.3401 120.74L74.2201 120.75C73.9701 120.77 73.6901 120.78 73.4201 120.78C72.6201 120.78 72.1601 120.63 72.0101 120.33C71.8201 119.93 71.8301 119.36 71.8401 118.86V118.75C71.8401 118.62 71.8401 118.5 71.8401 118.39C71.8101 117.54 71.8101 116.69 71.8201 115.84Z" fill="#1E1E1E"/>
<path d="M93.3201 109.45C93.2301 111.6 93.2201 113.74 93.2801 115.81C93.3101 116.72 93.3501 117.62 93.4001 118.53C93.4201 118.8 93.4301 119.07 93.4401 119.35C93.4701 120.19 93.5001 121.06 93.7001 121.84C94.2601 124.04 96.6101 124.11 98.4901 124.16L98.7801 124.17C100.9 124.24 102.99 124.04 104.92 123.82C105.21 123.79 105.5 123.76 105.81 123.73C107.46 123.58 109.17 123.43 110.31 122.24C111.47 121.02 111.53 119.26 111.58 117.56L111.6 117.08C111.68 115 111.74 112.96 111.59 110.91C111.42 108.65 110.35 107.16 108.58 106.72C107.77 106.51 106.88 106.52 106.01 106.51H105.66L95.2901 106.5C94.8001 106.5 94.3901 106.67 94.1001 107C93.7801 107.36 93.6301 107.88 93.6801 108.42V108.43V108.44C93.4601 108.71 93.3401 109.05 93.3201 109.45ZM108.3 114.82V115.7C108.3 116.89 108.3 118.12 108.11 119.18L108.08 119.37C108.02 119.71 107.97 119.87 107.59 120.01C107.1 120.18 106.57 120.23 106.05 120.27C105.87 120.29 105.69 120.3 105.52 120.32C103.95 120.51 102.26 120.69 100.54 120.74C100.23 120.75 99.9201 120.75 99.6301 120.75C99.1201 120.75 98.6501 120.74 98.1901 120.71C97.8001 120.69 97.4101 120.66 97.0201 120.62L96.9201 120.61L96.9001 120.53C96.8101 119.27 96.6301 115.74 96.6201 115.36C96.5801 113.65 96.5901 111.88 96.6601 109.95V109.93L105.36 109.94C105.47 109.94 105.61 109.93 105.78 109.92L105.9 109.91C106.15 109.89 106.43 109.88 106.7 109.88C107.5 109.88 107.96 110.03 108.11 110.33C108.3 110.73 108.29 111.3 108.28 111.8V111.91C108.28 112.04 108.28 112.16 108.28 112.27C108.3 113.11 108.31 113.96 108.3 114.82Z" fill="#1E1E1E"/>
<path d="M156.46 88.6302C156.39 85.8102 156.32 82.9902 156.22 80.1702C156.13 77.3502 156.02 74.5302 155.9 71.7102C155.78 68.8902 155.64 66.0802 155.49 63.2602C155.34 60.4502 155.18 57.6302 155 54.8202C154.82 52.0102 154.63 49.2102 154.43 46.4002C154.22 43.6002 154.01 40.8002 153.77 38.0002L153.69 37.0802C153.6 35.9602 152.74 35.4602 151.96 35.3702C151.91 35.3702 151.86 35.3502 151.82 35.3402L151.55 35.2502C151.51 35.2402 151.47 35.2202 151.42 35.1902C151.17 35.0502 150.92 34.9802 150.61 34.9702L6.52007 29.9502C6.43007 29.9502 6.35007 29.9302 6.27007 29.9002L6.16007 29.8502C6.00007 29.7802 5.75007 29.7002 5.45007 29.7002C5.05007 29.7002 4.67007 29.8502 4.32007 30.1502C0.640068 33.3402 0.990068 38.9802 1.31007 43.9702L1.32007 44.1202C1.35007 44.6702 1.39007 45.2202 1.41007 45.7502L2.57007 68.3702C2.72007 71.3702 2.87007 74.3702 3.01007 77.3802L3.08007 78.9402C3.61007 90.2002 4.15007 101.84 5.22007 113.26C5.75007 118.91 6.40007 124.03 7.19007 128.92C7.56007 131.2 8.00007 133.59 8.62007 136.68C8.65007 136.83 8.69007 137.03 8.81007 137.23C8.94007 137.45 9.13007 137.6 9.30007 137.71C10.0501 138.21 10.9801 138.49 12.0801 138.56C12.3101 138.57 12.5301 138.58 12.7601 138.58C13.4001 138.58 14.0401 138.54 14.6601 138.49C15.0901 138.46 15.5301 138.43 15.9601 138.41L20.1201 138.27C22.8901 138.18 25.6701 138.09 28.4401 138C33.9901 137.82 39.5401 137.66 45.0901 137.51C50.6401 137.36 56.1901 137.22 61.7401 137.09C67.2801 136.96 72.8201 136.84 78.3601 136.74C83.8901 136.63 89.4101 136.54 94.9401 136.46C100.44 136.38 105.95 136.31 111.45 136.25C114.77 136.21 118.08 136.18 121.4 136.16C124.18 136.14 126.96 136.12 129.74 136.1C132.52 136.08 135.29 136.07 138.07 136.06C140.83 136.05 143.59 136.04 146.35 136.04L151.81 136.03L152.09 136.04C152.58 136.05 153.19 136.07 153.7 135.71C154.22 135.34 154.45 134.65 154.23 134.09C154.16 133.92 154.05 133.76 153.89 133.6C153.8 133.51 153.69 133.42 153.58 133.35C152.91 132.85 152 132.27 150.95 132.2C150.05 132.14 149.13 132.18 148.23 132.21C147.83 132.23 147.44 132.24 147.05 132.25L13.2101 134.66C12.7201 134.67 12.1601 134.68 11.7601 134.44C11.1401 134.06 10.9801 133.12 10.8701 132.27C7.90007 107.99 6.16007 83.3002 5.71007 58.8502C5.70007 58.4202 5.71007 57.9402 5.95007 57.7302C6.23007 57.4602 6.84007 57.5202 7.39007 57.5302C54.5701 57.5302 102.33 59.6602 149.32 63.8602C150.27 63.9502 151.24 64.0802 151.75 64.7202C152.14 65.2102 152.2 65.9202 152.24 66.7302C153.26 86.7302 153.53 107.01 153.02 127.02C152.99 128.26 153.18 129.33 153.58 130.22C153.77 130.63 154.39 131.67 155.26 131.66C155.51 131.65 155.98 131.53 156.26 130.81C156.46 130.28 156.46 129.7 156.45 129.19C156.45 129.04 156.45 128.9 156.45 128.76L156.5 126.65C156.53 125.24 156.56 123.84 156.58 122.44C156.63 119.63 156.66 116.81 156.68 114C156.7 111.18 156.7 108.37 156.69 105.55C156.68 102.73 156.66 99.9102 156.62 97.0902C156.58 94.2702 156.52 91.4502 156.46 88.6302ZM151.87 59.8502C151.88 60.0802 151.8 60.3002 151.63 60.4502C151.46 60.6002 151.23 60.6602 151.02 60.6302L150.06 60.4602L149.95 60.4402C112.59 57.0802 74.7901 55.0202 37.6001 54.3102C27.4601 54.1202 18.4301 54.0302 10.1401 54.0302C8.95007 54.0302 7.78007 54.0302 6.62007 54.0402H5.93007C5.54007 54.0402 5.22007 53.7302 5.20007 53.3302L5.17007 52.6402C5.12007 51.6902 5.07007 50.7302 5.02007 49.7802L4.96007 48.8002C4.79007 45.7902 4.65007 43.2802 4.56007 40.6902C4.49007 38.7102 4.41007 36.2502 5.52007 34.2002L5.73007 33.8102C5.87007 33.5602 6.09007 33.4002 6.40007 33.4302L149.74 38.4302C150.11 38.4402 150.42 38.7402 150.45 39.1202L150.5 39.7602C150.98 45.7002 151.41 51.9802 151.82 58.9502L151.87 59.8502Z" fill="#1E1E1E"/>
<path d="M144.52 87.5702L144.57 86.8402C144.59 86.6402 144.68 86.4602 144.83 86.3302C144.98 86.2002 145.17 86.1402 145.37 86.1602L146.17 86.2202C146.43 86.2002 146.9 85.9502 147.14 85.7002C147.43 85.4102 147.65 84.8802 147.64 84.5402C147.63 84.3002 147.57 83.7102 147.18 83.2902L146.76 82.9602L146.61 82.8802C146.53 82.8502 146.36 82.8102 146.12 82.7802L145.47 82.7102C145.09 82.6702 144.81 82.3402 144.81 81.9502L144.82 81.2802C144.89 78.1902 144.81 75.4302 144.58 72.8402C144.49 71.9102 143.92 70.9702 142.87 70.9702C142.41 70.9702 141.89 71.2302 141.53 71.6302C141.26 71.9302 141.13 72.2702 141.16 72.5702C141.41 75.3502 141.49 78.2802 141.41 81.5302L141.4 82.1302C141.39 82.4902 141.13 82.7902 140.78 82.8502L139.92 82.9902C139.63 83.0402 139.42 83.0702 139.17 83.1302C138.92 83.2002 138.5 83.5402 138.29 83.8902C138.05 84.3002 138.01 84.8702 138.1 85.1702C138.26 85.6802 138.54 86.0702 138.85 86.2402C139.11 86.3802 139.38 86.4502 139.7 86.4602L140.44 86.4902C140.64 86.5002 140.83 86.5902 140.96 86.7402C141.09 86.8902 141.16 87.0902 141.14 87.2902L141.08 88.0402C140.82 91.4402 140.44 94.9902 140.1 98.1802C139.25 106.13 138.37 114.35 138.98 122.43C139.05 123.31 139.56 123.73 139.97 123.94C140.27 124.09 140.61 124.16 140.93 124.16C141.3 124.16 141.66 124.07 141.93 123.88C142.28 123.63 142.44 123.24 142.39 122.66C141.75 114.31 142.65 105.96 143.52 97.8302C143.9 94.4702 144.27 90.9902 144.52 87.5702Z" fill="#1E1E1E"/>
<path d="M160.67 40.1302L160.61 39.5602C160.39 37.5202 160.17 35.4102 159.83 33.3902C159.35 30.5302 157.89 28.6002 155.59 27.8102C153.78 27.1802 151.56 27.2502 149.42 27.3202L149.15 27.3302C148.55 27.3502 147.96 27.3702 147.39 27.3702L138.02 27.3802C137.11 27.3802 136.34 28.1702 136.34 29.0902C136.34 29.5402 136.51 29.9502 136.84 30.2902C137.16 30.6202 137.58 30.8002 138.01 30.8002L145.93 30.7902C146.65 30.7902 147.42 30.7702 148.24 30.7502C149.45 30.7202 150.95 30.6802 152.26 30.7302L152.4 30.8002L152.45 30.7502C152.62 30.7702 152.79 30.7802 153.01 30.8002L153.26 30.8202C153.42 30.8602 153.57 30.8902 153.72 30.9502C154.12 31.0902 154.51 31.1502 154.85 31.1902C154.97 31.2502 155.13 31.3502 155.25 31.4302C155.29 31.4702 155.33 31.5102 155.38 31.5502C155.46 31.6302 155.54 31.7102 155.68 31.8702C155.71 31.9002 155.73 31.9302 155.76 31.9602C155.83 32.0502 155.89 32.1402 155.95 32.2302C155.99 32.2802 156.02 32.3402 156.05 32.4002L156.14 32.5802C156.24 32.8402 156.29 32.9802 156.31 33.0402C156.49 33.6502 156.6 34.2202 156.68 34.7302L157.53 41.9302C157.64 42.8402 158.14 43.8202 159.22 43.8202C159.66 43.8202 160.23 43.5302 160.58 43.1302C160.75 42.9302 160.95 42.6301 160.91 42.2801C160.83 41.5601 160.75 40.8502 160.67 40.1302Z" fill="#1E1E1E"/>
<path d="M71.6601 72.93C71.6201 72.85 71.5801 72.78 71.5101 72.72C71.3901 72.6 71.2401 72.54 71.0801 72.49C70.4501 72.28 69.7601 72.27 69.1301 72.47C68.9401 72.53 68.7501 72.61 68.6101 72.75C68.3301 73.03 68.3001 73.47 68.3401 73.87C68.5401 75.75 68.4101 77.73 68.3401 79.62L19.6401 79.61C19.5301 79.61 19.3901 79.62 19.2201 79.63L19.1001 79.64C18.8501 79.66 18.5701 79.67 18.3001 79.67C17.5001 79.67 17.0401 79.52 16.8901 79.22C16.7001 78.82 16.7101 78.25 16.7201 77.75V77.64C16.7201 77.51 16.7201 77.39 16.7201 77.28C16.7001 76.43 16.6901 75.58 16.7001 74.72V73.84C16.7001 72.65 16.7001 71.42 16.8901 70.36L16.9201 70.17C16.9801 69.83 17.0301 69.67 17.4101 69.53C17.9001 69.36 18.4301 69.31 18.9501 69.27C19.1301 69.25 19.3101 69.24 19.4801 69.22C21.0501 69.03 62.7401 68.85 64.4601 68.8C64.7701 68.79 65.0801 68.79 65.3701 68.79C65.8801 68.79 66.3501 68.8 66.8101 68.83C67.7901 68.89 68.8801 69.05 69.7301 68.44C69.7801 68.4 69.8301 68.36 69.8601 68.31C69.8901 68.26 69.8901 68.2 69.9001 68.14C69.9401 67.75 69.9801 67.35 70.0201 66.96C70.0301 66.86 70.0401 66.76 70.0301 66.67C70.0201 66.48 69.9401 66.3 69.8301 66.15C69.5301 65.77 69.0301 65.64 68.5501 65.56C66.5301 65.23 64.4201 65.36 62.3701 65.37C60.7201 65.37 59.0701 65.38 57.4201 65.38C55.3601 65.39 53.2901 65.39 51.2301 65.4C48.9401 65.41 46.6501 65.42 44.3601 65.44C42.0401 65.45 39.7201 65.47 37.3901 65.49C35.2301 65.51 33.0601 65.52 30.9001 65.54C29.0901 65.56 27.2701 65.58 25.4601 65.6C24.1901 65.62 22.9201 65.64 21.6401 65.67C21.1201 65.68 20.5901 65.67 20.0701 65.73C19.7801 65.76 19.4901 65.79 19.1801 65.82C17.5301 65.97 15.8201 66.12 14.6801 67.31C13.5201 68.53 13.4601 70.29 13.4101 71.99L13.3901 72.47C13.3101 74.55 13.2501 76.59 13.4001 78.64C13.5701 80.9 14.6401 82.39 16.4101 82.83C17.2201 83.04 18.1101 83.03 18.9801 83.04H19.3301L69.7001 83.05C70.1901 83.05 70.6001 82.88 70.8901 82.55C71.2101 82.19 71.3601 81.67 71.3101 81.11C71.5401 80.83 71.6601 80.49 71.6801 80.09C71.7301 78.79 71.7501 77.48 71.7501 76.18C71.7501 75.52 71.7501 74.85 71.7301 74.19C71.7501 73.81 71.8301 73.3 71.6601 72.93Z" fill="#1E1E1E"/>
<path d="M137.11 140.71C117.61 140.99 98.1101 141.26 78.6101 141.54C76.0401 141.58 76.0301 145.66 78.6101 145.62C98.1101 145.34 117.61 145.07 137.11 144.79C139.68 144.76 139.69 140.68 137.11 140.71Z" fill="#1E1E1E"/>
<path d="M98.3601 149.53C81.7001 148.89 65.0301 148.78 48.3601 149.22C43.6301 149.34 38.91 149.51 34.1901 149.72C31.6301 149.83 31.6101 153.91 34.1901 153.8C50.84 153.06 67.5201 152.85 84.18 153.19C88.91 153.29 93.6301 153.43 98.3501 153.61C100.93 153.7 100.93 149.62 98.3601 149.53Z" fill="#1E1E1E"/>
<path d="M76.2701 156.11C71.5001 156.13 66.7401 156.38 62.0001 156.84C60.9201 156.94 60.0001 157.7 60.0001 158.88C60.0001 159.9 60.9201 161.02 62.0001 160.92C66.7501 160.46 71.5101 160.22 76.2701 160.19C77.3501 160.18 78.2701 159.26 78.2701 158.15C78.2701 157.05 77.3501 156.11 76.2701 156.11Z" fill="#1E1E1E"/>
<path d="M72.18 45.04C71.67 44.86 71.19 44.59 70.79 44.22C70.35 43.81 70.1 43.3 69.71 42.85C68.8 41.8 67.33 41.95 66.4 42.89C66.03 43.26 65.85 43.93 65.46 44.25C65.21 44.46 64.93 44.31 64.67 44.12C63.78 43.48 63.34 42.32 62.51 41.59C61.88 41.03 60.94 41.1 60.48 41.86C60.15 42.4 59.82 42.94 59.49 43.48C59.41 43.61 59.3 43.83 59.18 44.06C59.17 44.04 59.15 44.02 59.14 44C58.96 43.74 58.78 43.48 58.6 43.23C58.18 42.63 57.75 42.03 57.33 41.43C56.73 40.58 55.7 40.6 55.1 41.43C54.72 41.96 54.33 42.5 53.95 43.03C53.74 43.32 53.54 43.61 53.33 43.89C53.23 43.79 53.15 43.71 53.12 43.68C52.92 43.45 52.73 43.22 52.53 43C52.07 42.47 51.62 41.94 51.16 41.4C50.57 40.71 49.58 41.02 49.13 41.67C48.8 42.15 48.47 42.63 48.13 43.11C47.98 43.33 47.83 43.55 47.68 43.76L47.62 43.84C47.39 43.58 47.17 43.29 46.98 43.06C46.56 42.56 46.16 42.05 45.77 41.53C45.33 40.93 44.31 40.53 43.74 41.26C43.19 41.97 42.64 42.68 42.09 43.39C41.9 43.64 41.63 44.19 41.34 44.32C41.2 44.39 41.19 44.32 41 44.15C40.48 43.66 40.18 42.94 39.73 42.38C39.28 41.82 38.67 41.31 37.97 41.13C36.32 40.69 35.31 41.94 34.52 43.19C34.45 43.3 34.24 43.5 34.2 43.62C34.2 43.62 34.2 43.62 34.2 43.63C33.98 43.4 33.78 43.15 33.57 42.91C32.96 42.18 32.4 41.43 31.85 40.65C31.28 39.84 30.18 39.77 29.62 40.65C28.78 41.97 27.85 43.21 26.83 44.38C26.01 43.14 25.19 41.91 24.37 40.67C23.89 39.95 22.98 39.8 22.34 40.4C21.64 41.06 20.93 41.72 20.23 42.38C19.92 42.67 19.61 42.97 19.29 43.26L18.7 43.81C18.66 43.85 18.61 43.89 18.57 43.93C17.29 43.09 16.25 41.53 15.55 40.26C15.09 39.42 13.78 39.39 13.32 40.26C12.3 42.22 11.25 44.16 10.16 46.08C9.33005 47.55 11.56 48.88 12.39 47.41C13.12 46.11 13.84 44.79 14.55 43.47C14.81 43.81 15.07 44.13 15.35 44.45C16.05 45.22 16.98 46.24 17.98 46.58C19.33 47.04 20.21 45.97 21.11 45.12C21.74 44.52 22.38 43.93 23.02 43.33C23.86 44.6 24.71 45.87 25.55 47.15C26.01 47.84 26.97 48.06 27.58 47.42C28.73 46.21 29.8 44.92 30.77 43.55C31.05 43.92 31.34 44.29 31.64 44.65C32.25 45.39 32.89 46.22 33.9 46.32C34.9 46.42 35.74 45.86 36.34 45.09C36.62 44.73 36.81 44.31 37.08 43.94C37.13 43.87 37.19 43.74 37.27 43.7C37.28 43.69 37.29 43.69 37.3 43.68C37.31 43.68 37.32 43.69 37.33 43.69C37.89 43.82 38.4 45.08 38.72 45.5C39.3 46.25 40.07 46.9 41.04 46.99C42.09 47.08 42.89 46.53 43.53 45.73C43.9 45.26 44.27 44.78 44.63 44.3C44.85 44.58 45.08 44.86 45.31 45.13C45.88 45.79 46.46 46.55 47.34 46.74C48.3 46.94 48.99 46.33 49.52 45.6C49.79 45.22 50.06 44.83 50.33 44.45C50.64 44.81 50.95 45.17 51.26 45.54C51.84 46.22 52.45 46.91 53.41 46.89C54.38 46.87 54.92 46.06 55.44 45.35C55.68 45.01 55.93 44.67 56.17 44.33L56.88 45.34C57.39 46.06 57.88 46.97 58.78 47.21C59.75 47.47 60.47 46.8 60.95 46.03C61.22 45.6 61.48 45.17 61.74 44.73C62.15 45.29 62.57 45.84 63.14 46.26C64.14 46.99 65.52 47.29 66.63 46.63C67.2 46.29 67.57 45.74 67.91 45.17C67.9001 45.19 67.96 45.09 68.02 44.99C68.08 45.08 68.14 45.17 68.21 45.26C69.04 46.38 70.16 47.14 71.46 47.59C73.07 48.13 73.74 45.58 72.18 45.04Z" fill="#1E1E1E"/>
<path d="M13.8301 17.63C12.1601 15.95 10.5501 14.21 9.00005 12.41C8.24005 11.52 7.49005 10.62 6.76005 9.71001C6.41005 9.26001 6.06005 8.82001 5.71005 8.37001C5.61005 8.23001 5.50005 8.10001 5.40005 7.97001C5.38005 7.94001 5.36005 7.92001 5.34005 7.89001C5.14005 7.63001 4.95005 7.36001 4.75005 7.10001C4.12005 6.25001 3.00005 5.72001 2.02005 6.37001C1.19005 6.91001 0.620053 8.24001 1.30005 9.16001C4.27005 13.18 7.49005 16.98 11.0001 20.52C11.7501 21.27 13.0901 21.34 13.8301 20.52C14.5601 19.7 14.6201 18.43 13.8301 17.63Z" fill="#00A99D"/>
<path d="M27.6301 14.5C24.9001 10.59 22.5701 6.40004 20.6801 2.00004C20.2601 1.02004 18.7801 0.720038 17.9401 1.27004C16.9401 1.93004 16.7701 3.01004 17.2201 4.06004C19.1101 8.46004 21.4401 12.64 24.1701 16.55C24.7801 17.42 25.9401 17.92 26.9101 17.28C27.7501 16.73 28.2801 15.43 27.6301 14.5Z" fill="#00A99D"/>
<path d="M41.6701 4.82985C41.7401 3.75985 40.7001 2.73985 39.6701 2.78985C38.5301 2.83985 37.7401 3.68985 37.6701 4.82985C37.4601 8.07985 37.4001 11.3499 37.4901 14.6099C37.5201 15.6799 38.3901 16.6999 39.4901 16.6499C40.5501 16.5999 41.5201 15.7499 41.4901 14.6099C41.4001 11.3499 41.4601 8.08985 41.6701 4.82985Z" fill="#00A99D"/>
</svg>
