<svg width="161" height="160" viewBox="0 0 161 160" fill="none" xmlns="http://www.w3.org/2000/svg">
<path d="M110.158 83.5451C108.478 73.6844 99.7889 65.6439 89.5201 69.4042C88.3502 69.8342 87.2803 70.3942 86.3004 71.0443C84.8406 70.4542 83.1208 70.5042 81.351 71.5943C72.852 76.8546 66.0727 87.4853 71.6121 97.5159C76.0916 105.626 87.5603 108.487 96.0294 106.196C105.888 103.536 111.848 93.5057 110.158 83.5451Z" fill="#FBB03B"/>
<path d="M159.522 142.989C156.413 135.379 150.703 128.148 141.634 130.238C133.605 132.088 128.826 140.719 131.295 148.729C133.655 156.4 144.154 159.61 150.973 156.44C154.903 154.61 157.282 151.33 157.982 147.699C159.512 146.839 160.412 145.169 159.522 142.989ZM145.494 148.739C142.274 148.959 139.544 146.959 139.894 143.639C140.174 140.989 141.654 138.739 144.624 138.789C145.844 138.809 146.924 139.479 147.844 140.429C147.744 141.539 148.043 142.709 148.903 143.769C150.823 146.139 147.674 148.589 145.494 148.739Z" fill="#00A99D"/>
<path d="M34.5766 6.78015C26.6175 1.1298 18.0984 3.79996 10.6493 8.91028C2.92014 14.2106 2.53019 23.8212 5.66983 32.0417C7.13967 35.892 9.30942 38.6721 11.9991 40.5423C16.2486 44.4425 21.758 46.6026 27.8673 45.5726C37.1563 44.0025 43.8055 38.4621 44.9454 28.9115C45.9453 20.491 41.4858 11.6805 34.5766 6.78015ZM17.3885 33.2418C16.4986 32.3117 15.6987 31.2217 14.9888 29.9816C14.2389 28.6815 13.5789 27.3714 13.219 26.0414C13.129 25.6513 13.049 25.2413 12.979 24.8213C12.839 23.5812 12.999 22.3211 13.6289 21.001C14.9188 18.3309 18.4584 14.9507 21.4781 14.7206C24.3977 14.4906 30.587 17.4908 32.4068 21.171C32.1768 21.7311 32.0669 22.3811 32.1169 23.1312C32.1669 23.8912 32.2368 24.6813 32.2868 25.4813C31.9069 26.5314 31.9469 27.5514 32.2568 28.4515C32.1868 29.1215 32.0669 29.7716 31.8569 30.3916C31.6569 31.0017 31.3569 31.5417 30.997 32.0417C29.5171 33.4518 27.3774 34.3019 24.6177 34.5319C21.548 34.7819 19.1883 34.4019 17.3885 33.2418Z" fill="#00A99D"/>
<path d="M153.953 53.6427C148.603 34.3515 134.615 19.2006 116.197 11.6501C109.058 8.71993 105.948 20.3207 113.007 23.2208C127.426 29.1412 138.245 41.922 142.384 56.8329C144.444 64.2634 156.033 61.1132 153.953 53.6427Z" fill="#FBB03B"/>
<path d="M46.135 20.8513C46.115 19.9412 46.025 19.1812 45.835 18.5412C45.475 17.2911 44.7851 16.491 43.7952 16.171C43.2353 15.991 42.6954 16.021 42.2454 16.041C42.0154 16.051 41.8255 16.061 41.6455 16.041C41.2855 16.021 41.0455 15.841 41.0355 15.781C41.0355 15.671 41.3555 15.371 41.5355 15.2109C41.6755 15.0809 41.8154 14.9509 41.9454 14.8209C43.1653 13.5108 43.1153 11.5307 42.5254 10.1506C41.9454 8.79055 40.8756 7.74048 39.8057 6.82043C38.6858 5.86037 37.5059 4.95031 36.2961 4.12026C35.8961 3.85024 35.4662 3.58022 34.9362 3.49022C33.7364 3.29021 32.8165 4.07025 32.0665 4.71029C31.7266 4.99031 31.4366 5.23033 31.1966 5.38034C31.0867 4.16026 30.7667 3.1802 30.2268 2.40015C29.1769 0.910057 27.2571 0.0400025 24.9373 0C23.5975 0.0100006 22.2576 0.120008 20.9978 0.250016L20.7778 0.270017C20.2579 0.32002 19.7479 0.380024 19.248 0.420026C17.1382 0.580036 16.9083 2.80017 16.7583 4.27027C16.7183 4.70029 16.6783 5.08032 16.5983 5.36033C16.5783 5.45034 16.5483 5.51034 16.4983 5.50034C16.1783 5.43034 15.8784 5.12032 15.5284 4.7703C15.1484 4.38027 14.7185 3.95025 14.1286 3.69023C13.1287 3.2502 11.8988 3.44021 10.7489 4.20026C9.51908 5.03031 8.59919 6.03038 7.85927 6.90043C7.6093 7.20045 7.32933 7.48047 7.04936 7.77049C6.41943 8.42053 5.7695 9.09057 5.30956 9.96062C4.65963 11.1807 4.31967 13.0308 5.28956 14.5309C5.40954 14.7209 5.54953 14.9009 5.69951 15.0909C5.90949 15.361 6.19946 15.741 6.15946 15.891C6.13946 15.971 5.87949 16.131 5.48954 16.141C5.29956 16.151 5.10958 16.141 4.8896 16.131C4.44965 16.111 3.93971 16.081 3.42977 16.231C2.44988 16.521 1.63997 17.3711 1.27001 18.5112C0.970044 19.4312 0.980043 20.3713 0.990042 21.2113L1.03004 25.8516C1.04004 26.6717 1.05004 27.7917 1.69996 28.7018C2.73985 30.1619 4.77962 30.1719 5.75951 30.1719C5.86949 30.1719 6.16946 30.1719 6.22945 30.2419C6.24945 30.4019 6.15946 30.7219 5.97948 30.9419C5.86949 31.0819 5.73951 31.212 5.58952 31.352C5.13958 31.802 4.66963 32.272 4.44965 32.9521C4.0097 34.2721 4.71962 35.5222 5.37955 36.4723C6.10947 37.5023 6.88938 38.5024 7.71929 39.4625C8.60918 40.4925 9.61907 41.5226 10.9389 42.1026C12.5387 42.8027 14.2985 42.6027 15.4184 41.6026C15.5484 41.4826 15.6784 41.3526 15.8084 41.2226C16.0084 41.0126 16.2683 40.7625 16.3883 40.7325C16.4683 40.7525 16.6783 41.0326 16.7183 41.4826C16.7283 41.6426 16.7383 41.8126 16.7483 41.9726C16.7683 42.5927 16.7983 43.3027 17.2082 43.9527C17.9981 45.1828 19.6579 45.2728 20.3679 45.3028L26.4672 45.6028C26.6372 45.6128 26.8171 45.6228 27.0271 45.6228C28.5369 45.6228 29.5468 45.1828 30.0968 44.2728C30.5267 43.5727 30.5167 42.8027 30.5067 42.1326V41.7626C30.5067 41.2626 30.6467 40.8526 30.8267 40.7825C31.0367 40.6925 31.4566 41.0526 31.8566 41.3926C32.4565 41.9026 33.2864 42.6127 34.3063 42.4527C34.8062 42.3926 35.2062 42.1526 35.5862 41.9026C37.5559 40.5925 39.4257 39.1024 41.1455 37.4623C43.4353 35.2722 43.1353 33.6121 42.7553 32.812C42.4954 32.272 42.0554 31.842 41.7055 31.492C41.2755 31.0619 40.9955 30.7719 41.0455 30.5719C41.0855 30.4319 41.3855 30.2419 41.8154 30.1919C41.9854 30.1719 42.1654 30.1619 42.3354 30.1419C42.8353 30.1119 43.4053 30.0719 43.9652 29.8119C45.0851 29.2818 45.765 28.0618 45.975 26.1716C46.195 24.3915 46.165 22.5914 46.135 20.8513ZM36.476 30.8719C36.586 31.742 37.136 32.382 37.6159 32.9421C38.1059 33.5121 38.3958 33.8721 38.2958 34.2121C38.2159 34.4722 38.0059 34.7622 37.6359 35.1022C37.206 35.4922 36.736 35.8222 36.2361 36.1823C35.5762 36.6523 34.8462 37.1723 34.2363 37.8224C33.2964 37.1023 31.7166 36.2623 31.1067 36.2623C30.4767 36.2723 29.9468 36.5023 29.4768 36.7023L29.1269 36.8523C28.5269 37.0823 26.9371 37.6924 26.7871 39.5725C26.7671 39.8525 26.7671 40.1325 26.7771 40.4525C26.7871 40.6725 26.7871 40.8926 26.7771 41.1026C26.7671 41.3126 26.7271 41.3826 26.7271 41.3826C26.6971 41.4026 26.5872 41.4526 26.1472 41.4526C24.3974 41.4326 22.6276 41.3226 20.8978 41.1426C20.8278 39.0824 19.6579 37.3123 17.7982 36.5023C16.9782 36.1423 16.2183 36.0623 15.5184 36.2523C14.8285 36.4523 14.3385 37.0023 13.8986 37.5023C13.6086 37.8324 13.2587 38.2424 13.0787 38.2524C13.0387 38.2424 12.9087 38.1724 12.8687 38.1524C11.3189 37.3123 9.99903 36.0723 9.04914 34.5822C8.89915 34.3421 8.74917 34.0821 8.73917 33.8821C8.72917 33.6521 8.96914 33.4221 9.3591 33.0621C9.55908 32.8821 9.74906 32.702 9.90904 32.512C11.0189 31.2019 10.669 30.1919 10.299 29.1218L10.199 28.8418C10.069 28.4718 9.92904 28.0518 9.63907 27.6517C9.17912 27.0017 8.40921 26.5817 7.37932 26.4116C7.21934 26.3816 7.05936 26.3616 6.80939 26.3316C6.36944 26.2816 5.90949 26.2316 5.59952 26.0416C5.30956 25.8616 5.05958 25.5016 4.9196 25.0516C4.39966 23.3915 4.59964 21.2713 5.39955 20.0012C5.58952 19.6912 6.10947 19.6512 6.92937 19.6212C8.04925 19.5812 9.92904 19.5012 10.349 17.5211C10.539 17.0211 10.629 16.561 10.639 16.101C10.679 14.7809 10.109 13.4808 8.89915 12.1308C9.77905 11.0407 12.3488 8.49053 12.7287 8.24051C12.7887 8.20051 13.0287 8.10051 13.0887 8.10051C13.4286 8.12051 13.7286 8.37052 14.1886 8.78055C14.7385 9.26058 15.4784 9.93062 16.6183 9.95062C18.1181 9.94062 19.568 8.98056 20.2679 7.49047C20.3279 7.30046 20.7478 5.69036 20.8578 4.50028C21.2978 4.47028 21.7677 4.43028 22.3176 4.38027C23.8075 4.24026 25.6573 4.07025 26.1372 4.55028C26.5872 5.07032 26.8271 5.73036 27.0971 6.49041C27.617 7.9705 28.267 9.81061 30.6567 9.96062C31.2566 10.0606 31.8266 9.96062 32.3965 9.6506C32.7565 9.45059 33.0964 9.08057 33.4264 8.72054C33.8263 8.28052 34.0963 8.0005 34.2963 7.90049C36.0761 8.50053 38.0459 10.6007 38.6258 12.4608C38.5958 12.5708 38.3558 12.8408 37.9359 13.2808C37.306 13.9209 36.536 14.7109 36.606 15.771C36.636 16.251 36.816 16.641 36.966 16.9611C37.016 17.0711 37.056 17.1711 37.096 17.2611L37.196 17.5511C37.336 17.9911 37.4759 18.4512 37.8259 18.8612C38.4658 19.6112 39.3857 19.7012 40.1156 19.7812C40.4456 19.8212 40.7456 19.8412 41.0055 19.9212C41.4855 20.0713 42.0454 20.4413 42.1154 21.8914L42.1354 22.2414C42.3054 24.8616 42.1354 25.7516 42.0554 26.0016C41.9654 26.0016 41.8354 25.9916 41.7555 25.9816C40.4256 25.8816 39.0958 26.3716 38.0959 27.3117C37.3959 27.9517 36.2861 29.4218 36.476 30.8719Z" fill="#1E1E1E"/>
<path d="M29.2169 14.8899C28.6169 14.4499 27.977 14.0799 27.2871 13.8098C26.6371 13.5498 25.9372 13.3698 25.2173 13.2698C22.3076 12.8898 19.198 13.8998 16.9482 15.93C14.8385 17.8301 13.6886 20.3603 13.7086 23.0904C13.7386 23.7505 13.8386 24.4005 13.9886 25.0005C14.6885 28.2307 17.3282 31.1009 20.5378 32.131C21.1778 32.361 21.8477 32.531 22.5076 32.631C23.0176 32.711 23.5275 32.751 24.0274 32.751C26.3372 32.751 28.5469 31.951 30.2667 30.4409C30.6767 30.0609 31.0466 29.6208 31.3666 29.1508C31.6766 28.6908 31.9265 28.2107 32.1465 27.6607C33.4664 23.9105 33.4964 18.3301 29.2169 14.8899ZM26.3772 27.6307C26.0072 27.8607 25.6073 28.0407 25.1973 28.1607C24.7374 28.3007 24.2574 28.3708 23.7875 28.3708C21.3277 28.3708 19.188 26.5306 18.1681 24.7205C17.2482 23.0004 17.6282 20.8903 19.128 19.3702C20.3878 18.1901 22.0677 17.4801 23.6175 17.4801C24.9273 17.4801 26.0672 17.9701 26.8971 18.8802C27.907 20.0702 28.4369 21.4303 28.5169 23.0304C28.5369 23.5605 28.4969 24.0705 28.3969 24.6605C28.317 25.7506 27.517 26.9107 26.3772 27.6307Z" fill="#1E1E1E"/>
<path d="M160.962 142.489C160.952 141.849 160.882 141.309 160.752 140.859C160.502 139.969 160.012 139.409 159.312 139.179C158.922 139.049 158.542 139.069 158.212 139.089C158.042 139.089 157.912 139.099 157.792 139.089C157.542 139.069 157.372 138.949 157.362 138.909C157.362 138.829 157.592 138.619 157.712 138.509C157.812 138.419 157.912 138.329 158.002 138.229C158.862 137.299 158.832 135.899 158.412 134.928C158.002 133.968 157.242 133.228 156.493 132.578C155.703 131.898 154.873 131.258 154.013 130.668C153.733 130.478 153.423 130.288 153.053 130.218C152.203 130.078 151.553 130.628 151.023 131.078C150.783 131.278 150.583 131.448 150.403 131.548C150.323 130.688 150.093 129.998 149.713 129.438C148.993 128.398 147.644 127.778 145.994 127.748C145.044 127.758 144.104 127.838 143.214 127.928L143.064 127.948C142.704 127.988 142.334 128.028 141.984 128.048C140.494 128.168 140.324 129.728 140.224 130.768C140.194 131.068 140.164 131.338 140.114 131.538C140.094 131.598 140.074 131.648 140.044 131.638C139.824 131.588 139.604 131.368 139.364 131.118C139.095 130.848 138.795 130.538 138.375 130.348C137.665 130.038 136.795 130.168 135.985 130.708C135.115 131.288 134.465 131.998 133.945 132.618C133.765 132.828 133.565 133.028 133.365 133.238C132.925 133.698 132.465 134.168 132.135 134.788C131.675 135.659 131.435 136.959 132.115 138.019C132.205 138.149 132.305 138.279 132.405 138.419C132.555 138.609 132.765 138.879 132.735 138.989C132.725 139.049 132.535 139.159 132.265 139.169C132.135 139.179 131.995 139.169 131.845 139.159C131.535 139.149 131.175 139.129 130.815 139.229C130.116 139.429 129.556 140.039 129.296 140.839C129.086 141.489 129.096 142.149 129.096 142.749L129.126 146.029C129.136 146.609 129.136 147.399 129.596 148.039C130.325 149.069 131.775 149.079 132.465 149.079C132.545 149.079 132.755 149.079 132.795 149.129C132.815 149.239 132.745 149.469 132.615 149.619C132.535 149.719 132.445 149.809 132.345 149.909C132.025 150.229 131.695 150.559 131.535 151.04C131.225 151.97 131.725 152.86 132.195 153.53C132.705 154.26 133.265 154.97 133.845 155.64C134.475 156.37 135.185 157.1 136.125 157.51C137.255 158.01 138.505 157.86 139.294 157.16C139.384 157.08 139.474 156.98 139.564 156.89C139.704 156.74 139.884 156.57 139.974 156.55C140.024 156.56 140.174 156.76 140.204 157.08C140.214 157.19 140.214 157.31 140.224 157.43C140.244 157.87 140.254 158.37 140.554 158.83C141.114 159.7 142.284 159.76 142.794 159.78L147.114 159.99C147.234 160 147.364 160 147.504 160C148.573 160 149.283 159.69 149.673 159.04C149.973 158.54 149.973 158 149.963 157.53V157.27C149.963 156.92 150.063 156.63 150.193 156.58C150.343 156.52 150.633 156.77 150.923 157.01C151.343 157.37 151.933 157.87 152.663 157.76C153.023 157.72 153.293 157.55 153.573 157.37C154.973 156.44 156.293 155.39 157.502 154.23C159.122 152.68 158.912 151.51 158.642 150.939C158.462 150.559 158.142 150.249 157.892 149.999C157.582 149.699 157.392 149.489 157.422 149.349C157.452 149.249 157.662 149.119 157.972 149.079C158.092 149.069 158.222 149.059 158.342 149.049C158.692 149.029 159.102 148.999 159.492 148.819C160.282 148.449 160.762 147.579 160.912 146.249C161.012 144.999 160.992 143.729 160.962 142.489ZM154.143 149.579C154.223 150.199 154.613 150.649 154.953 151.04C155.293 151.44 155.503 151.7 155.433 151.94C155.383 152.13 155.223 152.33 154.963 152.57C154.663 152.85 154.323 153.08 153.973 153.34C153.513 153.67 152.983 154.04 152.553 154.5C151.893 153.99 150.773 153.4 150.333 153.4C149.893 153.41 149.513 153.57 149.183 153.71L148.933 153.81C148.513 153.97 147.384 154.41 147.274 155.74C147.254 155.94 147.264 156.13 147.264 156.36C147.264 156.52 147.274 156.67 147.264 156.82C147.254 156.97 147.224 157.02 147.224 157.02C147.204 157.03 147.124 157.07 146.814 157.07C145.574 157.05 144.324 156.98 143.094 156.85C143.044 155.39 142.214 154.14 140.904 153.57C140.324 153.32 139.784 153.26 139.294 153.39C138.805 153.53 138.455 153.92 138.155 154.27C137.955 154.5 137.705 154.79 137.575 154.8C137.545 154.79 137.455 154.74 137.425 154.73C136.325 154.14 135.395 153.26 134.725 152.2C134.625 152.03 134.515 151.84 134.505 151.7C134.495 151.54 134.665 151.38 134.945 151.12C135.085 150.99 135.225 150.859 135.335 150.729C136.125 149.799 135.875 149.089 135.615 148.339L135.545 148.139C135.455 147.879 135.355 147.579 135.155 147.299C134.815 146.839 134.275 146.549 133.545 146.429C133.435 146.409 133.325 146.399 133.145 146.379C132.835 146.339 132.505 146.309 132.285 146.169C132.075 146.049 131.905 145.789 131.805 145.469C131.435 144.299 131.585 142.799 132.145 141.899C132.285 141.679 132.645 141.649 133.225 141.629C134.015 141.599 135.345 141.549 135.645 140.149C135.775 139.789 135.845 139.469 135.855 139.149C135.885 138.219 135.485 137.299 134.625 136.339C135.245 135.569 137.065 133.768 137.335 133.588C137.375 133.558 137.545 133.488 137.585 133.488C137.825 133.498 138.035 133.678 138.365 133.968C138.755 134.308 139.274 134.778 140.084 134.798C141.144 134.788 142.174 134.108 142.664 133.058C142.704 132.928 143.004 131.778 143.084 130.948C143.394 130.928 143.724 130.898 144.124 130.868C145.174 130.768 146.484 130.648 146.824 130.988C147.144 131.358 147.314 131.818 147.504 132.358C147.874 133.398 148.333 134.708 150.013 134.808C150.433 134.878 150.843 134.808 151.243 134.588C151.493 134.448 151.733 134.188 151.973 133.928C152.263 133.618 152.453 133.428 152.593 133.348C153.853 133.778 155.243 135.259 155.653 136.569C155.633 136.649 155.463 136.839 155.163 137.149C154.723 137.599 154.173 138.159 154.223 138.909C154.243 139.249 154.373 139.529 154.473 139.749C154.513 139.829 154.543 139.899 154.563 139.959L154.633 140.169C154.733 140.479 154.833 140.809 155.083 141.099C155.533 141.629 156.183 141.689 156.703 141.749C156.942 141.779 157.142 141.789 157.332 141.849C157.672 141.959 158.062 142.219 158.112 143.239L158.122 143.489C158.242 145.339 158.122 145.969 158.062 146.149C158.002 146.149 157.912 146.139 157.842 146.139C156.902 146.069 155.963 146.409 155.253 147.079C154.793 147.509 154.003 148.549 154.143 149.579Z" fill="#1E1E1E"/>
<path d="M149.003 138.279C148.583 137.969 148.124 137.709 147.644 137.509C147.184 137.319 146.694 137.199 146.174 137.129C144.114 136.859 141.914 137.579 140.324 139.009C138.835 140.349 138.025 142.139 138.035 144.069C138.055 144.539 138.125 144.999 138.235 145.419C138.735 147.699 140.594 149.729 142.864 150.459C143.314 150.629 143.784 150.739 144.254 150.819C144.614 150.869 144.974 150.899 145.324 150.899C146.954 150.899 148.523 150.329 149.743 149.269C150.033 148.999 150.293 148.689 150.523 148.359C150.743 148.039 150.923 147.699 151.073 147.299C152.013 144.659 152.033 140.709 149.003 138.279ZM147.004 147.289C146.744 147.459 146.464 147.579 146.164 147.669C145.834 147.769 145.504 147.819 145.164 147.819C143.424 147.819 141.914 146.519 141.194 145.239C140.544 144.019 140.814 142.529 141.874 141.459C142.764 140.619 143.954 140.119 145.044 140.119C145.964 140.119 146.774 140.469 147.364 141.109C148.074 141.949 148.453 142.909 148.513 144.049C148.523 144.419 148.503 144.789 148.433 145.209C148.363 145.959 147.804 146.779 147.004 147.289Z" fill="#1E1E1E"/>
<path d="M141.534 79.8649C141.524 79.7149 141.544 79.5749 141.584 79.4449C141.534 77.4248 141.324 75.7547 140.924 74.3746C139.954 71.0144 138.205 70.4544 137.625 70.2643C136.715 69.9743 135.675 70.0243 134.665 70.0743L134.305 70.0843C133.715 70.1043 133.215 70.1143 132.715 70.0743C130.945 69.9543 128.906 69.0243 128.346 67.2041L128.216 66.7941L128.206 66.3641C128.156 64.654 129.336 63.5639 130.485 62.5039C130.835 62.1838 131.145 61.9038 131.415 61.6038C133.645 59.2036 133.465 55.3134 132.345 52.7232C131.065 49.7331 128.556 47.3029 126.036 45.1228C123.186 42.6626 120.187 40.3525 117.107 38.2423C116.327 37.7123 115.557 37.2123 114.787 37.0923C113.187 36.8223 111.768 37.9023 109.788 39.5824C108.848 40.3725 107.938 41.1325 107.038 41.6526L102.819 44.0827L102.369 39.2324C102.119 36.5822 101.469 34.5121 100.349 32.902C98.2591 29.8718 94.1496 28.0817 89.0701 27.9917C85.5005 28.0217 81.8809 28.3517 79.1212 28.6317L78.3413 28.7117C77.0315 28.8418 75.7416 28.9818 74.4518 29.0818C72.192 29.2518 71.3321 30.9619 70.7722 36.3922L70.7522 36.5622C70.6322 37.7323 70.5222 38.8324 70.2522 39.7824C69.6723 41.8526 67.9825 42.6026 66.5627 42.4126L66.2927 42.3626C64.5729 41.9726 63.383 40.7725 62.2431 39.6024C61.3432 38.6824 60.5233 37.8423 59.5134 37.4023C57.9036 36.6922 55.7539 37.0923 53.6341 38.5024C50.7244 40.4425 48.5047 42.8726 46.7249 44.9828C45.955 45.8828 45.1451 46.7129 44.4351 47.4429C42.8653 49.063 41.4055 50.5631 40.4156 52.4532C39.1257 54.8934 38.4058 58.4936 40.2156 61.2938C40.4856 61.7138 40.8056 62.1238 41.1255 62.5339C42.1954 63.9139 43.4053 65.474 42.8953 67.3642C42.3954 69.3243 40.1856 70.2843 38.2158 70.3443C37.7259 70.3643 37.176 70.3443 36.556 70.3143L36.406 70.3043C35.4462 70.2543 34.4563 70.2143 33.6264 70.4543C32.0365 70.9144 30.7067 72.3945 30.0568 74.4046C29.4368 76.3247 29.4568 78.4349 29.4768 80.475L29.5968 92.6557C29.6168 94.4859 29.6468 96.756 30.7667 98.3361C32.5565 100.856 36.676 100.876 38.8858 100.896C39.7457 100.896 41.3655 100.896 42.4554 102.156L43.0553 102.846L43.1853 103.756C43.4153 105.307 42.6753 107.017 41.8454 108.027C41.4755 108.487 41.0755 108.887 40.6556 109.317C39.6157 110.357 38.7458 111.237 38.3858 112.317C37.8159 114.017 38.4258 115.937 40.4156 118.757C42.2754 121.388 44.2752 123.938 46.3549 126.348C48.4547 128.778 50.8044 131.198 53.6841 132.448C56.7138 133.778 60.0934 133.468 62.1032 131.668C62.4031 131.398 62.6731 131.118 62.9531 130.838C64.0829 129.668 64.9428 128.938 66.0227 128.688L66.7026 128.528L67.3826 128.678C69.4123 129.118 70.5122 131.378 70.7022 133.428C70.7422 133.888 70.7622 134.348 70.7822 134.808C70.8322 136.308 70.8822 137.539 71.5121 138.529C72.712 140.399 75.9416 140.559 77.3114 140.619L93.4496 141.409C93.8096 141.429 94.1995 141.449 94.6295 141.449C98.3391 141.449 99.479 140.289 99.9989 139.409C100.659 138.319 100.649 136.929 100.629 135.458V134.478C100.659 131.658 101.689 129.668 103.459 128.978C105.668 128.018 107.648 129.688 109.238 131.028L109.378 131.148C110.558 132.148 111.998 133.378 113.267 133.198C113.967 133.108 114.517 132.808 115.397 132.228C120.417 128.898 125.176 125.098 129.536 120.938C132.935 117.697 134.195 114.657 133.095 112.367C132.655 111.447 131.755 110.557 130.955 109.777C129.456 108.297 127.776 106.637 128.386 104.336C128.916 102.276 131.135 101.276 133.035 101.026C133.575 100.956 134.085 100.926 134.595 100.886C135.755 100.806 136.825 100.736 137.765 100.306C139.644 99.4262 140.824 97.046 141.254 93.2458C141.734 88.9955 141.684 84.6352 141.614 80.395C141.584 80.195 141.554 80.035 141.534 79.8649ZM136.995 93.9958L136.305 96.246L133.955 96.206C133.695 96.206 133.295 96.176 133.015 96.156C130.375 95.976 127.746 96.926 125.756 98.7961C124.326 100.126 122.186 103.106 122.496 105.457V105.467C122.676 106.827 123.686 107.997 124.756 109.247C126.236 110.967 127.906 112.917 127.186 115.477C126.806 116.787 125.966 117.987 124.546 119.277C123.306 120.407 122.016 121.318 120.657 122.288C118.987 123.478 117.187 124.758 115.797 126.238L113.867 128.318L111.618 126.598C109.388 124.888 106.228 123.328 105.258 123.158C104.268 123.208 103.299 123.618 102.269 124.058L101.309 124.458C99.199 125.268 97.2892 126.358 97.0692 128.968C97.0692 129.028 97.0692 129.098 97.0592 129.158C96.9092 129.828 96.8392 130.508 96.7692 131.208C96.7593 131.278 96.7493 131.418 96.7393 131.448C96.7293 131.548 96.7093 131.638 96.6893 131.738C96.6393 132.018 96.5793 132.298 96.5093 132.578C96.3693 133.138 96.1993 133.678 95.9893 134.208C95.9793 134.248 95.9693 134.268 95.9593 134.278C95.9093 134.388 95.8594 134.508 95.7994 134.618C95.6994 134.838 95.5794 135.058 95.4394 135.258C95.4194 135.268 95.3294 135.358 95.2894 135.408C95.2794 135.418 95.2894 135.408 95.2894 135.418C95.0694 135.548 94.8595 135.688 94.6395 135.818C94.1695 136.088 93.6896 136.328 93.1997 136.558C93.0797 136.618 92.9497 136.668 92.8297 136.728C92.8097 136.738 92.7697 136.748 92.7297 136.768C92.5697 136.768 92.4197 136.788 92.2498 136.788C87.4903 136.728 82.7608 136.448 78.1314 135.948L75.4317 135.658L75.3417 132.938C75.2017 128.698 72.8719 125.178 69.0924 123.538C67.6125 122.888 66.3027 122.718 65.1928 123.028C64.2829 123.288 63.363 124.338 62.4731 125.348C61.1833 126.838 59.9434 128.258 58.1536 128.368L57.5937 128.408L57.0537 128.248C56.8138 128.178 56.5038 128.058 55.8839 127.708C51.3944 125.288 47.5348 121.668 44.7651 117.267C44.1252 116.237 43.5352 115.127 43.4853 113.887C43.3953 111.797 44.8551 110.477 46.135 109.307C46.5949 108.887 47.0049 108.497 47.2948 108.157C49.0646 106.077 48.6747 104.977 47.7548 102.316L47.4948 101.566C47.2048 100.706 46.9349 99.9262 46.4649 99.2662C45.715 98.2561 44.3851 97.576 42.5054 97.266C42.1354 97.206 41.7554 97.156 41.1555 97.086C39.7457 96.926 38.1259 96.736 36.726 95.8759C35.3162 95.0259 34.1963 93.4858 33.5864 91.5357C31.9565 86.3153 32.6065 79.8049 35.1862 75.7047C36.596 73.4445 39.3257 73.3345 41.7254 73.2345C45.495 73.0845 47.2548 72.6145 47.7748 70.2043L47.8948 69.7843C48.2647 68.7742 48.4447 67.9242 48.4747 67.0441C48.5647 64.414 47.3248 61.7338 44.7051 58.8236L42.9253 56.8435L44.5951 54.7734C46.8249 52.0032 53.8741 44.9028 55.3739 43.9127L55.5739 43.7927C56.0038 43.5527 57.1037 43.0226 58.1236 43.0426C60.2334 43.1726 61.6332 44.4127 62.9831 45.6128C64.2229 46.7129 65.5128 47.8529 67.3426 47.8929C69.9423 47.8629 72.602 46.0828 73.9318 43.4227C74.1718 42.5626 75.0417 38.9924 75.2817 36.4322L75.5316 33.7521L78.2113 33.592C79.3312 33.532 80.4911 33.422 81.8809 33.292C88.1102 32.702 92.3098 32.472 94.4595 34.6321L94.5995 34.7821C96.1793 36.5822 96.9092 38.6524 97.6891 40.8425C99.189 45.0828 100.299 47.6629 104.278 47.9029L104.608 47.9429C105.488 48.093 106.268 47.9429 107.138 47.4729C107.638 47.1929 108.418 46.3428 109.038 45.6628C110.348 44.2327 111.238 43.3627 112.178 42.8626L113.367 42.2326L114.647 42.6626C120.177 44.5427 126.156 50.8131 127.986 56.6435L128.276 57.5535L128.006 58.4736C127.736 59.3737 127.166 60.1437 125.436 61.9138C124.166 63.2039 122.736 64.654 122.836 66.0341C122.886 66.7241 123.196 67.4142 123.496 68.0842C123.656 68.4442 123.786 68.7442 123.906 69.0343L124.206 69.9243C124.536 70.9744 124.776 71.7344 125.276 72.3245C126.076 73.2545 127.356 73.4545 129.226 73.6446L129.446 73.6646C130.335 73.7546 131.255 73.8546 132.195 74.1546C135.355 75.1746 137.055 77.8648 137.265 82.1451L137.315 83.0351C137.675 88.4355 137.565 92.1357 136.995 93.9958Z" fill="#1E1E1E"/>
<path d="M98.4391 66.434C97.1092 65.4439 95.6594 64.6339 94.1296 64.0139C92.6997 63.4338 91.1499 63.0238 89.5301 62.8038L89.4501 62.7938C88.5102 62.6738 87.5703 62.6138 86.6204 62.6138C80.7411 62.6138 74.7917 64.9039 70.2522 68.9942C65.3928 73.3644 62.7531 79.2048 62.7931 85.4352C62.8631 86.8453 63.0731 88.3154 63.423 89.6855C65.0628 97.2159 71.1121 103.796 78.5213 106.176C80.1211 106.757 81.661 107.147 83.2108 107.387C89.75 108.387 96.2893 106.527 101.049 102.376C101.899 101.586 102.709 100.636 103.399 99.6061C104.078 98.606 104.618 97.566 105.118 96.3359C108.198 87.4953 108.298 74.3845 98.4391 66.434ZM101.309 90.0055C100.929 93.7957 98.3591 97.616 94.5695 100.006H94.5595C93.3396 100.776 92.0298 101.366 90.6699 101.756C89.2101 102.206 87.6603 102.436 86.0905 102.436C78.3713 102.436 71.7621 96.8259 68.6324 91.2756C65.5128 85.4752 66.7126 78.5248 71.6521 73.5044L71.7421 73.4144C75.6216 69.7742 80.8211 67.6041 85.6505 67.6041C89.92 67.6041 93.7896 69.2642 96.5693 72.2944L96.6593 72.3944C99.7489 76.0646 101.389 80.2349 101.649 85.1452C101.699 86.7853 101.589 88.3154 101.309 90.0055Z" fill="#1E1E1E"/>
<path d="M154.143 66.2535C150.713 45.3522 137.215 26.8411 118.357 17.2005C113.087 14.5103 107.488 12.4902 101.699 11.2401C98.5591 10.5701 97.2192 15.3804 100.369 16.0604C119.877 20.2507 136.345 33.5115 144.584 51.6826C146.874 56.7229 148.413 62.1133 149.313 67.5736C149.533 68.9037 151.183 69.6538 152.393 69.3237C153.813 68.9337 154.353 67.5836 154.143 66.2535Z" fill="#1E1E1E"/>
<path d="M147.964 24.9312C143.084 17.5508 135.755 11.8704 127.456 8.86022C124.426 7.76016 122.686 12.4504 125.716 13.5505C133.285 16.3007 139.694 21.441 144.144 28.1514C144.894 29.2815 146.714 29.2615 147.664 28.4614C148.783 27.5014 148.713 26.0613 147.964 24.9312Z" fill="#1E1E1E"/>
<path d="M74.1418 146.449C73.0119 146.469 71.8721 146.489 70.7422 146.439C70.2622 146.419 69.7823 146.379 69.3124 146.319C69.2024 146.299 69.0124 146.279 68.9524 146.259C68.6624 146.209 68.3625 146.149 68.0725 146.069C67.0626 145.819 66.1127 145.399 65.1328 145.029C64.9228 144.949 64.7229 144.879 64.5129 144.809C64.4729 144.429 64.3429 144.049 64.1329 143.709C63.863 142.579 63.383 141.499 62.5731 140.639C61.1433 139.119 59.0835 138.779 57.1837 139.559C56.8138 139.709 56.2738 140.099 55.8739 140.149C55.8439 140.149 55.8339 140.159 55.8239 140.159C55.8039 140.139 55.7539 140.119 55.6439 140.079C54.804 139.799 53.8541 138.759 53.1842 138.219C51.5644 136.919 49.9845 135.579 48.4447 134.189C45.2451 131.318 42.2154 128.268 39.3557 125.058C38.0359 123.578 36.686 122.078 35.5162 120.478C34.4463 119.028 33.2164 117.237 33.2564 115.347C33.2964 113.487 34.5463 111.917 34.4863 109.997C34.4163 107.827 32.9365 106.317 30.9967 105.587C29.6768 105.087 28.157 105.117 26.9371 104.357C25.6273 103.537 24.7474 102.127 24.2674 100.676C23.6175 98.7063 23.4575 96.6662 23.3375 94.6061C23.1975 92.2759 23.1376 89.9458 23.1676 87.6156C23.2075 83.0954 23.5375 78.5751 24.2074 74.1048C24.5174 72.0247 24.7574 69.7945 25.5373 67.8244C26.1472 66.2743 26.7371 65.8843 28.277 65.6143C30.9967 65.1442 32.4365 62.6841 31.6466 60.0639C31.3566 59.1139 30.7467 58.2338 30.6467 57.2237C30.5567 56.3037 30.9167 55.5336 31.4266 54.8036C32.1965 53.6935 31.6266 52.0234 30.5267 51.3834C29.2769 50.6533 27.887 51.1734 27.1071 52.2834C25.8472 54.0835 25.4473 56.2737 25.7973 58.4138C25.9372 59.2839 26.3072 60.0239 26.6272 60.824C26.3572 60.874 26.1172 60.924 26.0572 60.934C22.4176 61.784 20.7478 65.5643 20.0679 68.8845C18.2181 77.915 17.6682 87.4956 18.5081 96.6762C18.888 100.816 19.9379 105.147 23.3475 107.867C24.8674 109.077 26.4972 109.587 28.357 110.017C28.6869 110.097 29.0769 110.267 29.4168 110.297C29.3569 110.287 29.4368 110.347 29.5068 110.377C29.3968 110.847 29.2369 111.297 29.0669 111.747C27.4171 116.157 29.0269 120.128 31.7666 123.698C34.3663 127.088 37.266 130.268 40.2756 133.288C43.6752 136.699 47.2848 139.899 51.0844 142.859C52.0943 143.649 53.0942 144.529 54.324 144.929C55.6939 145.379 56.9937 145.109 58.2736 144.539C58.5136 144.429 58.7835 144.269 59.0435 144.179C59.2835 144.559 59.4135 145.199 59.4535 145.679C59.4535 145.709 59.4635 145.749 59.4635 145.779C59.4635 145.789 59.4635 145.799 59.4635 145.799C59.4835 146.229 59.6034 146.589 59.7734 146.899C60.1734 147.799 60.8833 148.569 61.7332 149.019C62.4031 149.369 63.133 149.579 63.833 149.85C64.4529 150.09 65.0628 150.35 65.6928 150.57C68.4025 151.51 71.3421 151.49 74.1718 151.44C75.4817 151.42 76.7315 150.31 76.6715 148.939C76.5815 147.619 75.5417 146.419 74.1418 146.449Z" fill="#1E1E1E"/>
<path d="M17.7786 120.137C17.0887 119.067 15.5089 118.447 14.359 119.237C12.1892 120.737 9.87951 122.007 7.45978 123.047C7.2798 123.117 7.10982 123.197 6.92984 123.267C6.29991 123.517 5.78997 123.817 5.44001 124.417C5.13004 124.957 4.99006 125.747 5.19004 126.347C5.39001 126.947 5.75997 127.537 6.33991 127.837C6.89984 128.127 7.64976 128.327 8.26969 128.087C11.3093 126.887 14.199 125.417 16.8887 123.557C17.4287 123.177 17.8586 122.717 18.0386 122.067C18.1986 121.457 18.1186 120.667 17.7786 120.137Z" fill="#FBB03B"/>
<path d="M26.7971 132.058C25.7873 131.128 24.2674 131.088 23.2575 132.058C22.4376 132.848 21.5977 133.618 20.7278 134.358C20.2979 134.728 19.8579 135.098 19.418 135.448C19.188 135.638 18.958 135.818 18.7181 135.998C18.5981 136.098 18.4581 136.188 18.3381 136.288C16.4883 137.678 14.5485 138.948 12.5488 140.098C11.4189 140.748 10.9189 142.388 11.6489 143.518C12.3888 144.658 13.8586 145.118 15.0685 144.418C19.318 141.968 23.2675 138.988 26.7872 135.578C27.737 134.678 27.777 132.958 26.7971 132.058Z" fill="#FBB03B"/>
<path d="M38.1568 141.008C37.9968 140.428 37.5468 139.798 37.0068 139.518C35.7968 138.878 34.3068 139.218 33.5868 140.418C32.4068 142.368 31.2168 144.318 30.0368 146.268C29.7068 146.818 29.6168 147.578 29.7868 148.198C29.9468 148.778 30.3968 149.408 30.9368 149.688C32.1468 150.328 33.6368 149.988 34.3568 148.788C35.5368 146.838 36.7168 144.888 37.9068 142.938C38.2368 142.388 38.3268 141.628 38.1568 141.008Z" fill="#FBB03B"/>
<path d="M133.985 85.7852C133.955 85.5752 133.925 85.3652 133.895 85.1452C133.835 84.9352 133.725 84.7152 133.645 84.5352C133.545 84.2952 133.505 84.1652 133.425 84.0152C133.425 84.0452 132.835 83.1752 132.625 82.9552C132.475 82.8052 132.215 82.6252 132.105 82.5452C131.955 82.4252 131.755 82.2652 131.575 82.1452C131.505 82.1052 131.435 82.0652 131.365 82.0352C131.015 81.8752 130.545 81.6052 130.106 81.5252C129.706 81.4752 129.306 81.4152 128.906 81.3652C128.686 81.3652 128.476 81.3952 128.266 81.4452C128.046 81.4552 127.836 81.4852 127.626 81.5352C127.266 81.6852 126.906 81.8352 126.556 81.9852C126.366 82.0752 126.206 82.1952 126.066 82.3552C125.896 82.4652 125.736 82.5852 125.586 82.7252C125.356 83.0252 125.116 83.3352 124.886 83.6352C124.796 83.8152 124.716 84.0052 124.646 84.1952C124.536 84.3752 124.456 84.5652 124.416 84.7652C124.366 85.1652 124.306 85.5652 124.256 85.9652C124.256 86.1752 124.286 86.3852 124.336 86.5952C124.346 86.8052 124.376 87.0152 124.426 87.2252C124.576 87.5852 124.726 87.9452 124.876 88.2952C124.956 88.4752 125.076 88.6352 125.236 88.7752C125.356 88.9352 125.476 89.0952 125.606 89.2552C125.616 89.2552 125.616 89.2652 125.626 89.2652C125.726 89.3952 125.796 89.4952 125.916 89.6152C125.936 89.6352 126.556 90.1552 126.886 90.3552C127.976 91.0452 129.386 91.1652 130.615 90.8552C131.045 90.7452 131.455 90.5652 131.835 90.3452C132.135 90.1152 132.445 89.8752 132.745 89.6452C133.185 89.2352 133.495 88.7552 133.675 88.1952C133.935 87.5652 134.095 87.2052 134.065 86.4252C134.065 86.2052 134.045 85.9952 133.985 85.7852Z" fill="#00A99D"/>
<path d="M133.385 83.9351C133.405 83.9651 133.415 83.9951 133.435 84.0251C133.435 84.0151 133.415 83.9851 133.385 83.9351Z" fill="#00A99D"/>
<path d="M119.507 55.6232C119.507 55.2132 119.407 54.8432 119.197 54.4832C119.087 54.1032 118.897 53.7732 118.617 53.4932C118.517 53.3432 118.397 53.2232 118.277 53.0932C118.047 52.8032 117.787 52.5332 117.467 52.3332C117.107 52.0032 116.687 51.7832 116.217 51.6332C116.187 51.6132 116.157 51.5932 116.137 51.5832C115.617 51.2532 115.067 51.0732 114.467 51.0532C113.867 50.9232 113.267 50.9432 112.677 51.1332C112.088 51.2732 111.578 51.5432 111.148 51.9432C110.658 52.2632 110.268 52.6832 109.988 53.2032C109.438 54.2432 109.158 55.5132 109.538 56.6732C109.878 57.7232 110.518 58.6832 111.478 59.2732C111.498 59.2932 111.508 59.3132 111.528 59.3332C111.688 59.4732 111.858 59.6032 112.038 59.7332C112.617 60.1832 112.417 60.0632 113.087 60.3432C113.777 60.6332 113.537 60.5732 114.287 60.6732C114.527 60.7032 114.757 60.7532 114.987 60.7632C115.197 60.7532 115.407 60.7232 115.617 60.6832C115.847 60.6832 116.067 60.6532 116.277 60.5832C116.637 60.4332 116.997 60.2832 117.347 60.1332L118.257 59.4332C118.487 59.1332 118.727 58.8232 118.957 58.5232C119.287 58.0032 119.467 57.4532 119.487 56.8532C119.617 56.4232 119.617 56.0232 119.507 55.6232Z" fill="#00A99D"/>
<path d="M90.7199 44.3026C90.7199 43.8926 90.6199 43.5226 90.41 43.1626C90.23 42.6026 89.92 42.1226 89.4801 41.7126C89.1701 41.4326 88.8301 41.2026 88.4702 40.9926C88.3502 40.9026 88.2402 40.8126 88.1102 40.7326C87.5903 40.4026 87.0403 40.2226 86.4404 40.2026C85.8405 40.0726 85.2406 40.0926 84.6506 40.2826C84.5106 40.3326 84.3706 40.3926 84.2307 40.4526C83.9207 40.5126 83.6107 40.6226 83.3208 40.7726C82.7608 40.9526 82.2809 41.2626 81.8709 41.7026C81.431 42.1126 81.121 42.5926 80.941 43.1526C80.6611 43.6926 80.5311 44.2626 80.5511 44.8826C80.6011 46.0426 80.981 47.2526 81.8709 48.0626C82.7508 48.8726 83.8307 49.3726 85.0506 49.3826C85.3605 49.3826 85.6705 49.3826 85.9805 49.3826C86.4704 49.3926 86.9404 49.3326 87.5003 49.2226C88.0902 49.0826 88.6002 48.8126 89.0301 48.4126C89.5201 48.0926 89.91 47.6726 90.19 47.1526C90.34 46.7926 90.49 46.4326 90.6399 46.0726C90.8299 45.5026 90.8599 44.9026 90.7199 44.3026Z" fill="#00A99D"/>
<path d="M63.733 56.6031C63.553 56.0431 63.2431 55.5631 62.8031 55.1531C62.5031 54.9231 62.1932 54.6831 61.8932 54.4531C61.4333 54.1931 60.9533 54.0131 60.4534 53.9231C60.4034 53.9031 60.3534 53.8831 60.3034 53.8631C59.9034 53.8131 59.5035 53.7531 59.1035 53.7031C58.2936 53.7031 57.5337 53.9131 56.8338 54.3131L55.9239 55.0131C55.3639 55.5731 54.984 56.2331 54.764 57.0031C54.644 57.3331 54.624 57.6831 54.584 58.0331C54.534 58.3831 54.464 58.7231 54.494 59.0731C54.544 59.4731 54.604 59.8731 54.654 60.2731C54.804 60.6331 54.954 60.9931 55.104 61.3531C55.3339 61.6531 55.5739 61.9631 55.8039 62.2631C56.2138 62.7031 56.6938 63.0131 57.2537 63.1931C57.6037 63.3931 57.9836 63.5031 58.3936 63.5031C58.7936 63.6131 59.1935 63.6131 59.5935 63.5031C60.0034 63.5031 60.3734 63.4031 60.7333 63.1931C61.2933 63.0131 61.7732 62.7031 62.1832 62.2631L62.8131 61.5231C63.2531 61.1131 63.563 60.6331 63.743 60.0731C64.023 59.5331 64.153 58.9631 64.133 58.3431C64.153 57.7131 64.023 57.1331 63.733 56.6031Z" fill="#00A99D"/>
<path d="M53.0942 84.6648C53.0942 84.4448 53.0642 84.2348 53.0042 84.0248C52.8542 83.6648 52.7042 83.3048 52.5542 82.9548C52.5442 82.9248 52.5242 82.8948 52.5042 82.8748C52.2743 82.5748 52.0343 82.2648 51.8043 81.9648C51.7843 81.9348 51.7643 81.9148 51.7343 81.8948C51.6043 81.7948 51.4743 81.6948 51.3444 81.5948C51.3344 81.5848 51.3244 81.5748 51.3144 81.5648C50.6544 80.9248 50.0245 80.6248 49.1746 80.3148C48.2747 79.9848 47.2248 80.0548 46.3149 80.2748C45.725 80.4148 45.2151 80.6848 44.7851 81.0848C44.2952 81.4048 43.9052 81.8248 43.6252 82.3448C43.2953 82.8648 43.1153 83.4148 43.0953 84.0148C42.9653 84.6148 42.9853 85.2148 43.1753 85.8048C43.3253 86.1648 43.4752 86.5248 43.6252 86.8848C43.7052 87.0248 43.8252 87.1348 43.9152 87.2648C44.0152 87.5248 44.1152 87.7848 44.2552 88.0348C44.6551 88.7148 45.1951 89.2448 45.865 89.6448C46.3849 89.9748 46.9349 90.1548 47.5348 90.1748C48.1347 90.3048 48.7347 90.2848 49.3246 90.0948C49.9045 89.9348 50.4245 89.6648 50.8844 89.3048C51.2144 89.1148 51.5143 88.8848 51.7843 88.6048C52.0443 88.2848 52.3343 87.9748 52.5342 87.6148C52.9142 86.9648 53.1842 86.0648 53.1542 85.3048C53.1642 85.0948 53.1442 84.8748 53.0942 84.6648Z" fill="#00A99D"/>
<path d="M62.8231 111.617C62.2731 110.687 61.2033 109.797 60.1334 109.547C58.9835 109.287 57.6937 109.337 56.6638 109.997C56.4538 110.137 56.2538 110.287 56.0738 110.447C56.0339 110.457 55.9939 110.457 55.9539 110.467C55.8339 110.497 55.7139 110.527 55.5839 110.557C54.874 110.737 54.1141 111.197 53.5941 111.717C52.8942 112.417 52.4842 113.327 52.3543 114.297C52.2443 115.117 52.3343 115.867 52.6642 116.627C53.0042 117.437 53.6641 118.417 54.504 118.777C55.5339 119.217 56.2438 119.537 57.4037 119.527C58.4836 119.507 59.3535 119.247 60.3034 118.777C61.7632 118.047 62.8231 116.627 63.273 115.077C63.603 113.977 63.403 112.607 62.8231 111.617Z" fill="#00A99D"/>
<path d="M90.26 125.818C89.95 125.018 89.8401 124.738 89.5101 124.298C89.3401 124.008 89.1401 123.738 88.8902 123.498C88.4802 123.058 88.0003 122.748 87.4403 122.568C86.9004 122.288 86.3305 122.158 85.7105 122.178C85.6605 122.188 85.6205 122.188 85.5705 122.198C85.3706 122.208 85.1706 122.228 84.9806 122.268C84.9306 122.268 84.8806 122.288 84.8306 122.298C84.7206 122.308 84.6206 122.328 84.5107 122.338C84.4807 122.348 84.4607 122.358 84.4307 122.368C84.0407 122.448 83.6508 122.578 83.3008 122.808C82.7808 123.088 82.3509 123.478 82.0409 123.968C81.641 124.398 81.371 124.908 81.231 125.498L81.071 126.698C81.071 127.508 81.281 128.268 81.681 128.968C81.761 129.068 81.841 129.178 81.9209 129.278C81.9309 129.298 81.9509 129.318 81.9609 129.348C81.9909 129.388 82.4609 130.118 82.7709 130.368L83.6808 131.068C84.0407 131.218 84.4007 131.368 84.7506 131.518L85.9505 131.678C86.5704 131.698 87.1504 131.568 87.6803 131.288C88.0603 131.178 88.3902 130.988 88.6702 130.708C89.0101 130.508 89.2801 130.238 89.4801 129.898C89.7601 129.618 89.95 129.288 90.06 128.908C90.34 128.368 90.47 127.798 90.45 127.178C90.41 126.738 90.42 126.248 90.26 125.818Z" fill="#FBB03B"/>
<path d="M118.227 114.107C118.197 113.507 118.017 112.947 117.697 112.437C117.627 112.267 117.527 112.107 117.417 111.957C117.367 111.857 117.337 111.747 117.267 111.647C116.987 111.127 116.597 110.697 116.107 110.387C115.677 109.987 115.167 109.717 114.577 109.577C114.177 109.527 113.777 109.467 113.377 109.417C112.847 109.417 112.338 109.517 111.858 109.687C111.738 109.707 111.618 109.727 111.498 109.747C110.908 109.887 110.398 110.157 109.968 110.557C109.478 110.877 109.088 111.297 108.808 111.817C108.478 112.337 108.298 112.887 108.278 113.487C108.148 114.087 108.168 114.687 108.358 115.277C108.508 115.637 108.658 115.997 108.808 116.347C109.208 117.027 109.748 117.557 110.418 117.957L110.898 118.157C111.408 118.537 111.978 118.837 112.607 119.027C113.007 119.077 113.407 119.137 113.807 119.187C114.207 119.137 114.607 119.077 115.007 119.027C115.367 118.877 115.727 118.727 116.077 118.577C116.597 118.297 117.027 117.907 117.337 117.417C117.617 117.137 117.807 116.807 117.917 116.427C118.117 116.077 118.227 115.697 118.227 115.287C118.337 114.897 118.337 114.507 118.227 114.107Z" fill="#00A99D"/>
</svg>
