<svg width="160" height="162" viewBox="0 0 160 162" fill="none" xmlns="http://www.w3.org/2000/svg">
<path d="M30.3877 73.1577C31.1837 73.1354 31.9698 73.113 32.7161 73.0906C37.2135 72.9677 42.4572 73.6161 46.8154 72.0956C47.0841 72.0062 47.3328 71.8721 47.5915 71.7603C45.2433 72.0286 42.905 72.2745 40.5568 72.4758C37.1638 72.7664 33.7807 72.9788 30.3877 73.1577Z" fill="#00A99D"/>
<path d="M14.4675 57.2935C14.5869 51.8714 14.5968 46.427 14.8257 41.0161C14.8456 40.5353 14.9153 40.1105 15.0048 39.7192C14.6964 40.4236 14.4774 41.262 14.3779 42.2011C13.7411 47.9474 13.7312 53.6043 14.4177 59.3506L14.4675 57.2935Z" fill="#FBB03B"/>
<path d="M19.6515 36.9914C18.8953 36.913 18.2087 36.9802 17.5918 37.1929C17.6913 37.1817 17.7809 37.1481 17.8804 37.1369C18.4674 37.0809 19.0545 37.0249 19.6515 36.9914Z" fill="#FBB03B"/>
<path d="M127.292 36.7575C127.471 36.5896 127.7 36.4664 127.959 36.4104C125.74 36.2648 123.511 36.1977 121.292 36.1753C117.969 36.1529 114.636 35.9625 111.481 36.8247C112.108 36.8023 112.745 36.7799 113.372 36.7575C118.009 36.6008 122.645 36.6008 127.292 36.7575Z" fill="#FBB03B"/>
<path d="M142.775 45.5436C142.794 48.5287 142.784 51.5248 142.735 54.5098C142.685 57.316 142.615 60.1109 142.506 62.917C142.456 64.3145 142.386 65.712 142.317 67.1206C142.297 67.579 142.277 68.0262 142.227 68.4734C143.053 67.5566 143.6 66.2039 143.77 64.5493C144.386 58.5234 145.779 51.1447 145.083 45.0853C144.804 42.6369 143.939 41.027 142.715 39.9314C142.715 40.2221 142.715 40.5016 142.725 40.7811C142.735 42.3574 142.765 43.9449 142.775 45.5436Z" fill="#00A99D"/>
<path d="M129.929 110.061C130.158 110.05 130.377 110.028 130.606 110.006C130.765 109.995 130.914 109.972 131.073 109.961C130.685 109.983 130.307 110.017 129.929 110.061Z" fill="#FBB03B"/>
<path d="M142.775 86.6069C142.794 89.5919 142.784 92.588 142.735 95.573C142.685 98.3791 142.615 101.174 142.506 103.98C142.456 105.277 142.396 106.563 142.337 107.848C143.67 106.574 144.576 104.472 144.824 100.962C145.103 96.9705 146.028 89.1559 143.969 85.0305C144.247 83.0852 143.789 80.9164 142.615 79.5972C142.745 80.3239 142.705 81.1176 142.725 81.8443C142.735 83.4318 142.765 85.0193 142.775 86.6069Z" fill="#FBB03B"/>
<path d="M124.188 77.7533C121.034 77.5069 117.392 76.8237 114.307 77.8093C117.601 77.7085 120.894 77.6861 124.188 77.7533Z" fill="#FBB03B"/>
<path d="M59.3227 101.666C59.1934 104.148 58.8352 106.462 59.5615 108.665C59.5416 107.412 59.5217 106.149 59.5118 104.897C59.4919 101.912 59.5018 98.9158 59.5516 95.9308C59.6013 93.1247 59.671 90.3298 59.7804 87.5236C59.8302 86.1262 59.8998 84.7287 59.9695 83.3201C59.9993 82.817 60.0093 82.3027 60.0789 81.8108C58.477 82.9623 57.9198 85.6231 58.3078 87.6466C59.1934 92.3086 59.5715 96.9035 59.3227 101.666Z" fill="#00A99D"/>
<path d="M14.5073 95.9194C14.5869 91.6264 14.6267 87.3223 14.7959 83.0293C13.5222 86.6403 14.2088 91.9283 14.5073 95.9194Z" fill="#FBB03B"/>
<path d="M26.8554 114.4C25.5122 114.445 24.1689 114.49 22.8256 114.523C25.8405 114.758 29.134 114.355 31.5618 114.445C34.4374 114.557 37.3727 114.859 40.2583 114.792C41.3229 114.758 42.3378 114.758 43.3627 114.378C44.308 114.02 45.0244 113.36 44.6363 113.259C45.6214 113.192 46.5368 113.394 47.5219 112.823C45.2035 113.092 42.8851 113.327 40.5667 113.528C35.9897 113.942 31.4225 114.232 26.8554 114.4Z" fill="#FBB03B"/>
<path d="M159.759 136.223C159.63 135.742 159.461 135.306 159.242 134.926C158.207 133.092 156.307 132.779 154.595 132.712L151.72 132.634C151.869 122.528 151.829 112.432 151.849 102.326C151.889 85.9027 151.919 69.4685 151.949 53.0343C151.959 46.4606 151.998 39.8758 152.197 33.3132C152.327 29.2438 152.307 22.9832 148.277 21.5074C144.755 20.2218 141.023 20.5013 137.392 20.7249C133.63 20.9596 129.969 20.4342 126.218 20.4565C122.765 20.4677 119.312 20.3448 115.859 20.2777L115.183 20.2553C109.163 20.1323 102.934 20.0205 96.795 20.0317C94.6358 20.0429 92.4766 20.0653 90.3075 20.0876L89.8498 20.0988C85.8697 20.1435 81.7503 20.1882 77.7006 20.11L77.1335 20.0988C74.1683 20.0429 71.2927 19.9199 67.6211 19.7522C64.5863 19.6181 61.4521 19.5398 58.0491 19.5175L35.0046 19.3498C25.6415 19.2827 21.7908 19.4057 14.2784 19.6404L8.97502 19.7969C8.42776 19.8193 6.61684 19.9982 6.01983 21.6751C5.81087 22.2341 5.80092 22.8267 5.79097 23.3074C5.72132 25.5657 5.73127 27.8575 5.74122 30.0823V30.4624C5.75117 31.5692 5.75117 32.6648 5.75117 33.7604L5.72132 65.5668C5.75117 88.6306 5.67157 111.56 5.60192 130.946C5.60192 130.979 5.60192 131.058 5.59197 131.125C5.49247 131.136 5.30342 131.102 5.16412 131.08C3.98005 130.924 2.95518 131.281 2.19897 132.12C1.25371 133.16 0.736303 134.926 0.796004 136.949C0.835805 138.202 0.925356 139.465 1.06466 140.695C1.12436 141.287 1.21391 141.969 1.53231 142.584C1.99997 143.434 2.87558 143.981 3.99995 144.116C4.57706 144.183 5.15417 144.227 5.73127 144.283C6.38798 144.339 7.03474 144.395 7.69145 144.485C8.27851 144.563 8.87552 144.574 9.45263 144.529H9.58198C12.8158 144.641 16.0496 144.731 19.2834 144.82C25.6117 144.999 31.9499 145.155 38.6662 145.301C46.8055 145.457 54.0094 145.58 61.3526 145.692C81.223 145.971 101.73 146.117 119.82 146.24L121.471 146.251C124.894 146.273 128.586 146.307 132.347 146.307C135.033 146.307 137.76 146.285 140.446 146.251C143.998 146.195 147.163 146.106 150.118 145.983C150.575 145.96 151.083 145.971 151.65 145.983C153.73 146.016 156.575 146.05 158.217 144.451C158.386 144.283 158.526 144.116 158.655 143.937C159.133 143.255 159.361 142.394 159.531 141.645C159.899 140.113 160.247 138.112 159.759 136.223ZM78.1185 23.1397C78.228 22.9273 78.3872 22.7149 78.6658 22.4801L78.8549 22.3012C79.5514 21.6975 79.9295 21.4292 80.3971 21.5857C80.5563 21.6304 80.6956 21.7534 80.8548 21.8987C80.9245 21.9658 81.0041 22.0888 81.0837 22.2341C81.1633 22.3906 81.223 22.5583 81.2528 22.7149C81.3026 22.9944 81.3026 23.1509 81.2926 23.2738C81.2827 23.4751 81.2628 23.5757 81.223 23.7434C81.213 23.7769 81.2031 23.844 81.1334 24.0117C80.9842 24.403 80.7155 24.7384 80.3374 25.0291C80.0389 25.2415 79.7006 25.3645 79.3623 25.3645C79.1932 25.3533 79.0539 25.3197 78.9245 25.2638C78.7155 25.1744 78.6061 25.0961 78.427 24.9284C78.2479 24.7384 78.0986 24.4365 78.019 24.1235C77.9792 23.9782 77.9693 23.844 77.9693 23.7769C77.9892 23.5198 78.0389 23.3186 78.1185 23.1397ZM8.46756 99.7321C8.47751 99.1172 8.47751 98.6812 8.47751 98.4576L8.48746 87.848C8.50736 76.4223 8.51731 64.5942 8.58696 52.9672C8.63671 44.6048 8.69641 37.2373 8.77602 30.4177C8.77602 29.9593 8.77602 29.5121 8.78597 29.0538V28.3047C8.79592 26.7396 8.79592 25.1185 8.86557 23.4863C19.1839 22.9496 21.353 22.8826 31.4424 22.9385C41.4025 23.0055 51.3527 23.0726 61.3028 23.1509L61.4023 23.162C61.7207 24.403 62.5068 25.4986 63.5615 26.1359C64.9147 26.952 66.447 26.9296 67.9196 26.8961L91.9094 26.7955C93.4915 26.7843 95.1233 26.7843 96.576 25.8452C97.4019 25.3086 98.0487 24.526 98.4765 23.5869C106.516 23.7099 114.556 23.9223 122.606 24.1123C130.327 24.2912 138.108 24.0564 145.819 24.4813C146.605 24.526 147.869 24.526 148.367 25.4092C148.983 26.3595 148.864 28.1259 148.914 29.2326C148.993 31.1556 149.043 33.0673 149.053 34.979C149.063 38.8137 148.924 42.6483 148.635 46.4606C148.615 46.7066 148.645 46.919 148.695 47.1202C148.476 50.6754 148.695 54.2529 148.695 57.8304C148.685 62.0452 148.685 66.2711 148.685 70.4971C148.685 73.974 148.685 77.4397 148.675 80.9166L148.665 90.1287C148.645 102.404 148.635 114.691 148.595 126.966V128.162C148.595 129.616 148.585 131.08 148.576 132.533L145.451 132.422C142.048 132.31 138.635 132.198 135.232 132.109C128.914 131.941 122.387 131.784 115.859 131.65C112.795 131.594 109.72 131.538 106.656 131.483L101.342 131.382C100.825 131.371 100.287 131.348 99.7601 131.371C99.5014 131.382 99.2228 131.36 98.9442 131.326C98.576 131.292 98.1979 131.259 97.8099 131.304C97.1532 131.393 96.586 131.74 96.2377 132.265C96.1283 132.444 96.0387 132.645 95.9293 132.891C95.8795 133.003 95.8397 133.115 95.7701 133.238C95.4716 133.808 94.9144 134.233 94.2079 134.423C93.1532 134.713 91.9791 134.669 90.8448 134.613C90.3771 134.591 89.9095 134.568 89.4617 134.579L71.1435 134.646L69.7206 134.669C68.7853 134.68 67.7107 134.691 66.6958 134.658C66.1386 134.635 65.5515 134.591 65.064 134.345C64.656 134.132 64.3874 133.774 64.3277 133.361C64.2978 133.215 64.3077 133.059 64.3077 132.869C64.3177 132.5 64.3376 131.997 64.0689 131.617C63.7008 131.08 62.9247 130.957 61.8998 130.946L61.5814 130.935C61.1237 130.912 60.656 130.901 60.1983 130.901H59.273C59.064 130.901 58.8551 130.912 58.6362 130.901L53.8004 130.868C50.5666 130.845 47.3428 130.823 44.109 130.789L35.0046 130.734C27.0644 130.678 18.7162 130.756 9.50238 130.968C9.07452 130.052 8.25861 125.043 8.46756 99.7321ZM156.884 139.107C156.814 139.845 156.675 140.583 156.466 141.287C156.446 141.365 156.386 141.544 156.307 141.611C156.267 141.645 156.148 141.667 156.088 141.667C153.541 142.081 151.143 142.327 148.755 142.416C146.317 142.506 143.75 142.573 140.665 142.629C135.362 142.707 129.939 142.685 124.854 142.662C114.904 142.595 104.954 142.517 94.994 142.439C78.6758 142.305 57.1337 142.081 35.0444 141.6C29.8902 141.6 24.3082 141.5 17.9699 141.298C16.7958 141.254 15.6118 141.231 14.4277 141.198C10.9849 141.108 7.43275 141.03 3.9104 140.695C3.7114 139.297 3.7512 137.81 3.791 136.379C3.80095 136.022 3.8109 135.675 3.9104 135.429C4.0298 135.138 4.31835 134.892 4.68651 134.781C5.40292 134.557 6.27853 134.568 7.12429 134.591C7.49245 134.602 7.85065 134.602 8.19891 134.591C9.41283 134.557 10.6466 134.512 11.8705 134.479C14.4376 134.423 16.9948 134.378 19.562 134.345C23.3828 134.3 27.3828 134.3 31.4424 134.322C41.4025 134.389 51.3527 134.456 61.3028 134.546H61.4023C61.7207 135.787 62.5068 136.882 63.5615 137.52C64.9147 138.336 66.5167 138.313 67.9395 138.28H68.5863L91.9094 138.179C93.4915 138.168 95.1233 138.168 96.5661 137.218C97.4019 136.681 98.0487 135.91 98.4765 134.971C106.745 135.094 113.989 135.217 121.232 135.384L123.909 135.44C128.884 135.563 133.859 135.686 138.834 135.82C141.789 135.91 144.755 135.999 147.72 136.1L152.158 136.245C152.536 136.267 152.904 136.256 153.322 136.245C154.337 136.245 155.381 136.234 156.347 136.603C156.565 136.681 156.685 136.759 156.755 136.86C156.834 136.972 156.874 137.151 156.894 137.475C156.934 138.012 156.924 138.559 156.884 139.107Z" fill="#1E1E1E"/>
<path d="M51.2631 86.0477C51.283 88.4737 51.283 90.8997 51.2532 93.3369C51.2233 96.1431 51.1537 98.938 51.0641 101.744C50.885 103.376 50.6661 105.009 50.3974 106.619C50.2681 107.446 50.1288 108.262 49.9298 109.045C49.3328 109.078 48.6263 109.291 48.089 109.358C46.0492 109.592 44.0095 109.805 41.9597 110.006C38.0294 110.375 34.0991 110.654 30.1589 110.845C28.2683 110.945 26.3778 111.012 24.4873 111.068C22.6266 111.113 20.6963 111.325 18.8356 111.124C18.3879 111.079 17.7013 111.023 17.353 110.621C16.8356 110.017 17.0943 108.687 17.1043 107.904C17.154 105.657 17.2038 103.41 17.2535 101.163C17.363 96.4896 17.4625 91.8053 17.5719 87.1322C17.6018 85.8241 17.6316 84.5161 17.6615 83.1969C17.6615 82.9397 17.552 81.8888 17.7013 81.6764C17.7908 81.5534 18.5371 81.5646 18.8157 81.5422C21.0246 81.3969 23.2236 81.2851 25.4325 81.218C29.8405 81.0727 34.2583 81.0839 38.6662 81.2404C39.0742 81.2516 39.3926 81.0839 39.6115 80.8379C41.3727 80.5808 43.1338 80.4131 44.905 80.3684C45.8303 80.346 46.7457 80.346 47.6612 80.3795C48.3278 80.4019 49.0641 80.5472 49.7706 80.6031C50.0094 80.9274 50.1984 81.2851 50.3576 81.6652C50.686 81.9894 50.9845 82.3807 51.2233 82.8167C51.2432 83.89 51.2532 84.9744 51.2631 86.0477Z" fill="#FBB03B"/>
<path d="M96.6059 82.0233C96.6159 82.5822 96.5462 83.1748 96.5363 83.6108C96.4865 85.8467 96.4368 88.0938 96.387 90.3409C96.2776 95.0252 96.1781 99.6983 96.0686 104.383C96.0388 105.691 96.0089 106.999 95.979 108.307C95.979 108.575 96.0885 109.615 95.9392 109.827C95.8497 109.961 95.1034 109.95 94.8248 109.961C92.6159 110.118 90.4169 110.218 88.208 110.297C83.8001 110.431 79.3822 110.42 74.9743 110.274C74.5663 110.263 74.2479 110.42 74.029 110.677C72.2679 110.923 70.5067 111.09 68.7356 111.135C67.8102 111.169 66.8948 111.157 65.9794 111.135C64.9645 111.09 63.7605 110.755 62.7655 110.9C62.6759 110.9 62.5963 110.889 62.5068 110.878C62.4968 110.789 62.4869 110.666 62.457 110.509C62.5267 110.006 62.4272 109.346 62.4172 108.832C62.3973 107.703 62.3874 106.585 62.3774 105.467C62.3575 103.03 62.3575 100.604 62.3874 98.1779C62.4371 93.5048 62.5665 88.8317 62.7854 84.1698C62.8053 83.7338 62.9545 82.9624 62.8749 82.5375C62.9446 82.5375 63.0441 82.5152 63.2033 82.4369C63.8699 82.5934 64.855 82.2357 65.5515 82.1574C67.5913 81.9115 69.6311 81.699 71.6808 81.509C75.6111 81.1401 79.5414 80.8606 83.4817 80.6593C85.3722 80.5699 87.2627 80.5028 89.1532 80.4469C90.8846 80.391 92.6756 80.2345 94.4169 80.3575C94.5562 80.6929 94.6656 81.0395 94.7552 81.3972C95.4019 81.4755 96.0288 81.6991 96.6059 82.0233Z" fill="#00A99D"/>
<path d="M139.909 86.0477C139.929 88.4737 139.919 90.8997 139.899 93.3369C139.849 98.01 139.71 102.672 139.491 107.334C139.471 107.77 139.322 108.541 139.401 108.977C139.342 108.977 139.242 109 139.083 109.067C138.406 108.921 137.421 109.279 136.725 109.357C134.954 109.559 133.193 109.749 131.421 109.928C131.302 109.939 131.183 109.939 131.073 109.961C130.685 109.984 130.307 110.017 129.929 110.062C126.227 110.408 122.506 110.666 118.805 110.844C116.914 110.945 115.014 111.012 113.123 111.068C111.82 111.102 110.476 111.202 109.143 111.202C108.158 109.905 107.75 107.904 107.969 105.869C108.665 99.5305 108.377 93.3816 108.606 87.0427C108.685 84.9297 109.153 82.9956 110.009 81.4193C111.362 81.341 112.715 81.2627 114.068 81.218C118.486 81.0727 122.894 81.0839 127.312 81.2404C127.72 81.2516 128.028 81.0839 128.257 80.8379C130.009 80.5808 131.78 80.4131 133.551 80.3684C134.466 80.346 135.392 80.346 136.307 80.3795C137.322 80.4131 138.516 80.7485 139.521 80.6031C139.6 80.6143 139.69 80.6255 139.77 80.6367C139.78 80.7261 139.799 80.8491 139.829 81.0056C139.75 81.5087 139.849 82.1683 139.859 82.6826C139.879 83.8006 139.899 84.9297 139.909 86.0477Z" fill="#FBB03B"/>
<path d="M18.9252 70.8993C18.4376 70.5639 18.0097 70.1838 17.6316 69.7701C17.5321 69.7143 17.4326 69.6472 17.353 69.5577C17.2734 69.4571 17.2137 69.3453 17.164 69.2223C15.2834 66.7405 14.8854 63.2413 14.4575 59.7644C14.4376 59.6191 14.4277 59.4849 14.4078 59.3396L14.2685 65.712C14.2187 67.9255 13.9003 70.4297 15.4426 72.0731C16.6068 73.3141 18.2684 73.4929 19.761 73.4929C22.1291 73.5041 24.4972 73.4147 26.8554 73.3253C28.0295 73.2805 29.2136 73.2135 30.3877 73.1464C26.5072 73.247 22.2087 73.1464 18.9252 70.8993Z" fill="#1E1E1E"/>
<path d="M17.5918 37.1814C16.1789 37.4162 15.3431 38.2661 15.0048 39.7087C15.562 38.4339 16.4476 37.584 17.5918 37.1814Z" fill="#1E1E1E"/>
<path d="M48.4771 38.6907C51.3029 38.5341 52.7357 40.9937 52.8054 43.5985C53.3029 44.4706 53.6512 45.5103 53.7905 46.6953C54.4173 51.7709 53.8701 58.9036 52.9944 63.968C52.3477 67.7132 50.497 70.4187 47.5816 71.7603C47.5915 71.7603 47.6015 71.7603 47.6114 71.7603C48.7059 71.6373 49.8104 71.5143 50.9049 71.3578C51.7805 71.2348 52.6064 70.9889 53.1238 70.0498C53.6114 69.1666 53.6114 68.138 53.6611 67.1207C53.7308 65.7232 53.7905 64.3257 53.8502 62.9171C53.9596 60.1222 54.0392 57.3161 54.079 54.51C54.1288 51.525 54.1387 48.5288 54.1188 45.5438C54.1089 43.9563 54.089 42.3688 54.0591 40.7813C54.0392 39.6521 54.1387 38.3441 53.5417 37.3826C52.8949 36.3541 51.8601 36.2423 50.8751 36.1417C49.6512 36.0075 48.4273 35.9293 47.2035 35.9069C44.5965 35.8398 41.9896 36.0187 39.4025 36.3988C39.0941 36.4435 38.8453 36.5889 38.6463 36.7789C34.0096 36.6224 29.3629 36.6224 24.7161 36.7901C23.0246 36.846 21.3331 36.9019 19.6416 37.0137C19.7809 37.0249 19.9202 37.0249 20.0694 37.0472C29.4823 38.7466 38.9647 39.2273 48.4771 38.6907Z" fill="#1E1E1E"/>
<path d="M52.9944 63.9568C52.3476 67.702 50.5069 70.4186 47.5915 71.749C45.2433 72.0173 42.895 72.2633 40.5468 72.4645C37.1637 72.7664 33.7707 72.9788 30.3877 73.1465C26.5071 73.2471 22.2087 73.1465 18.9251 70.8994C18.4376 70.564 18.0097 70.1727 17.6316 69.759C17.9998 69.9715 18.4873 70.0162 18.8356 70.0497C20.6963 70.2509 22.6266 70.0497 24.4873 69.9938C26.3778 69.9379 28.2683 69.8708 30.1588 69.7702C34.0991 69.5802 38.0294 69.3007 41.9597 68.9317C44.0094 68.7417 46.0492 68.5293 48.089 68.2833C48.7855 68.2051 49.7706 67.8473 50.4372 68.0038C50.5964 67.9256 50.6959 67.9032 50.7656 67.9032C50.686 67.4672 50.8352 66.707 50.8551 66.271C51.074 61.6091 51.2133 56.936 51.2531 52.2628C51.283 49.8369 51.283 47.3997 51.2631 44.9737C51.2531 43.8557 51.2432 42.7378 51.2233 41.6086C51.2133 41.0943 51.1138 40.4347 51.1835 39.9317C51.1536 39.7751 51.1437 39.6522 51.1337 39.5627C51.0442 39.5516 50.9646 39.5404 50.875 39.5292C49.88 39.6857 48.6761 39.3391 47.6611 39.3056C46.7457 39.2721 45.8303 39.2721 44.9049 39.2944C43.1338 39.3503 41.3726 39.518 39.6115 39.764C39.3926 40.0211 39.0742 40.1776 38.6662 40.1664C34.2583 40.0099 29.8404 39.9987 25.4325 40.1441C23.2236 40.2223 21.0246 40.323 18.8157 40.4683C18.5371 40.4906 17.7908 40.4795 17.7013 40.6136C17.552 40.8149 17.6615 41.8657 17.6615 42.1341C17.6316 43.4421 17.6018 44.7501 17.5719 46.0581C17.4625 50.7424 17.363 55.4155 17.2535 60.0998C17.2038 62.3469 17.154 64.5828 17.1043 66.83C17.0943 67.4896 16.9152 68.5405 17.1739 69.2112C15.2933 66.7405 14.8953 63.2413 14.4575 59.7532C14.4476 59.6191 14.4277 59.4737 14.4177 59.3396L14.4575 57.2937C14.5769 51.8716 14.5869 46.4271 14.8257 41.0049C14.8456 40.5242 14.9053 40.0994 14.9948 39.7081C15.562 38.4336 16.4476 37.5727 17.5819 37.1815C17.6814 37.1703 17.7709 37.1367 17.8704 37.1256C18.4674 37.0697 19.0545 37.0249 19.6415 36.9802C19.7908 37.0026 19.9202 36.9914 20.0694 37.0249C29.4822 38.7466 38.9647 39.2273 48.477 38.6907C51.3029 38.523 52.7258 40.9937 52.7954 43.5986C53.2929 44.4706 53.6412 45.5103 53.7904 46.6842C54.4073 51.7598 53.87 58.8924 52.9944 63.9568Z" fill="#1E1E1E"/>
<path d="M98.1979 37.3043C97.0338 36.0633 95.3721 35.8844 93.8796 35.8733C91.5214 35.8621 89.1532 35.9515 86.7851 36.041C82.218 36.2087 77.6509 36.4993 73.0937 36.9018C70.7355 37.1142 68.3773 37.349 66.0192 37.6173C64.9247 37.7515 63.8202 37.8633 62.7257 38.0198C61.8501 38.1539 61.0242 38.3887 60.5068 39.3278C60.0192 40.211 60.0192 41.2396 59.9695 42.2569C59.8998 43.6544 59.8401 45.063 59.7804 46.4605C59.671 49.2555 59.6013 52.0616 59.5516 54.8677C59.5018 57.8527 59.4919 60.8377 59.5118 63.8339C59.5217 65.4214 59.5416 67.0089 59.5715 68.5965C59.6013 69.7368 59.4919 71.0336 60.0988 71.9951C60.7356 73.0236 61.7705 73.1354 62.7655 73.2361C63.9794 73.3814 65.2132 73.4485 66.4371 73.482C69.044 73.5491 71.641 73.3702 74.228 72.9901C74.5365 72.9454 74.7852 72.8 74.9942 72.61C79.631 72.7665 84.2777 72.7665 88.9144 72.5988C91.193 72.5206 93.4915 72.4647 95.7701 72.2411C97.7701 72.0398 98.7153 70.7318 98.8148 68.3617C99.0536 62.9395 99.0636 57.4949 99.183 52.0839L99.372 43.6544C99.4218 41.4408 99.7302 38.9365 98.1979 37.3043ZM95.1134 69.938C91.2428 71.9727 85.2926 71.0784 81.1434 71.369C76.7355 71.6933 71.6708 72.923 67.3127 71.8721C66.3774 71.6485 65.5316 70.8995 64.9346 69.9604C64.1983 69.8598 63.4321 69.7368 62.7655 69.8374C62.6759 69.8262 62.5963 69.815 62.5068 69.8039C62.4968 69.7144 62.4869 69.5915 62.457 69.4349C62.5267 68.9319 62.4272 68.2722 62.4172 67.758C62.3973 66.64 62.3874 65.5108 62.3774 64.3929C62.3575 61.9669 62.3575 59.5297 62.3874 57.1036C62.4371 52.4305 62.5665 47.7685 62.7854 43.0954C62.8053 42.6594 62.9545 41.8992 62.8749 41.4632C62.9446 41.4632 63.0441 41.4408 63.2033 41.3737C63.7903 41.4967 64.6162 41.2507 65.2829 41.1278C66.1187 39.8421 67.4221 39.1489 68.7555 39.0483C70.5365 36.9465 73.4121 36.9242 76.1086 36.6894C80.9941 36.2646 85.9194 36.354 90.7851 36.9465C94.2378 37.3714 97.3522 38.1763 98.1482 42.7712C99.1034 48.3275 98.4069 54.8789 98.4566 60.547C98.4964 64.4152 98.5163 68.1493 95.1134 69.938Z" fill="#1E1E1E"/>
<path d="M96.5363 42.5365C96.4865 44.7836 96.4368 47.0307 96.387 49.2666C96.2776 53.9508 96.1781 58.6239 96.0686 63.3082C96.0387 64.6162 96.0089 65.9242 95.979 67.2322C95.979 67.5005 96.0885 68.5514 95.9392 68.7526C95.8497 68.8868 95.1034 68.8756 94.8248 68.898C92.6159 69.0433 90.4169 69.1551 88.208 69.2222C83.8001 69.3675 79.3822 69.3563 74.9743 69.1998C74.5663 69.1886 74.2479 69.3563 74.029 69.6023C72.2679 69.8594 70.5067 70.0159 68.7356 70.0718C67.8102 70.0942 66.8948 70.0942 65.9794 70.0606C65.6411 70.0495 65.2928 70.0047 64.9346 69.96C64.5764 69.3899 64.3177 68.7638 64.1684 68.1266C63.3923 64.6385 63.9495 60.7257 64.049 57.1594C64.1784 52.8329 64.2978 48.5176 64.4172 44.1911C64.447 42.9389 64.7754 41.9216 65.2829 41.1278C65.3724 41.1167 65.4719 41.0943 65.5515 41.0831C67.5913 40.8484 69.6311 40.6248 71.6808 40.4347C75.6111 40.0658 79.5414 39.7863 83.4817 39.5962C85.3722 39.4956 87.2627 39.4285 89.1532 39.3726C91.0139 39.3167 92.9443 39.1155 94.8049 39.3167C95.2527 39.3615 95.9392 39.4174 96.2875 39.8086C96.8049 40.4123 96.5462 41.7539 96.5363 42.5365Z" fill="#FBB03B"/>
<path d="M98.4566 60.5471C98.4964 64.4153 98.5163 68.1494 95.1134 69.9381C91.2428 71.9728 85.2926 71.0785 81.1434 71.3691C76.7355 71.6934 71.6709 72.9231 67.3127 71.8722C66.3774 71.6486 65.5316 70.8996 64.9346 69.9605C65.2928 70.0052 65.6411 70.0499 65.9794 70.0611C66.8948 70.0947 67.8102 70.0947 68.7356 70.0723C70.5067 70.0164 72.2679 69.8599 74.0291 69.6027C74.248 69.3568 74.5664 69.1891 74.9743 69.2003C79.3822 69.3568 83.8001 69.368 88.208 69.2226C90.4169 69.1556 92.6159 69.0438 94.8248 68.8984C95.1035 68.8761 95.8497 68.8872 95.9393 68.7531C96.0885 68.5518 95.9791 67.5009 95.9791 67.2326C96.0089 65.9246 96.0388 64.6166 96.0686 63.3085C96.1781 58.6242 96.2776 53.9511 96.387 49.2668C96.4368 47.0308 96.4865 44.7837 96.5363 42.5366C96.5462 41.754 96.8049 40.4124 96.2875 39.8087C95.9393 39.4174 95.2527 39.3615 94.8049 39.3168C92.9443 39.1155 91.0139 39.3168 89.1533 39.3727C87.2627 39.4286 85.3722 39.4957 83.4817 39.5963C79.5414 39.7863 75.6111 40.0658 71.6808 40.4348C69.6311 40.6248 67.5913 40.8484 65.5515 41.0832C65.4719 41.0944 65.3724 41.1167 65.2829 41.1279C66.1187 39.8422 67.4222 39.1491 68.7555 39.0485C70.5366 36.9467 73.4121 36.9243 76.1086 36.6895C80.9942 36.2647 85.9195 36.3541 90.7851 36.9467C94.2378 37.3715 97.3522 38.1764 98.1482 42.7713C99.1034 48.3277 98.4069 54.879 98.4566 60.5471Z" fill="#1E1E1E"/>
<path d="M108.397 73.4929C110.765 73.5041 113.133 73.4147 115.491 73.3252C120.058 73.1576 124.626 72.8669 129.193 72.4644C131.551 72.252 133.909 72.0172 136.257 71.7489C137.352 71.6259 138.456 71.503 139.551 71.3464C140.426 71.2235 141.252 70.9775 141.77 70.0384C142.038 69.5465 142.158 69.0099 142.217 68.4621C141.212 69.5801 139.78 70.072 138.058 69.703C136.018 69.267 133.989 68.9875 131.959 68.8087C131.342 69.2894 130.685 69.7254 129.969 70.0831C127.093 71.503 125.302 69.8931 122.606 69.8931C120.805 69.8819 118.665 71.067 116.775 71.1899C115.153 71.3017 113.541 71.1788 111.929 71.0111C111.312 71.2011 110.695 71.3688 110.078 71.5812C107.412 72.498 104.188 69.9043 104.377 66.4162C104.725 60.0214 104.745 53.459 105.432 47.0977C105.471 46.7288 105.531 46.3599 105.591 45.9909C105.471 45.6108 105.352 45.2195 105.223 44.8394C104.496 42.6706 105.73 39.8756 107.292 38.7912C108.636 37.8521 110.039 37.2372 111.481 36.8459C109.83 36.9018 108.168 36.9801 106.516 37.1478C104.506 37.349 103.571 38.6571 103.462 41.0272C103.233 46.4381 103.223 51.8826 103.103 57.3048L102.914 65.7231C102.865 67.9366 102.546 70.4409 104.088 72.0843C105.243 73.3029 106.914 73.4929 108.397 73.4929Z" fill="#1E1E1E"/>
<path d="M142.705 39.9204C142.695 39.026 142.645 38.0981 142.187 37.3714C141.541 36.3429 140.506 36.2311 139.521 36.1304C138.297 35.9963 137.073 35.918 135.849 35.8957C133.242 35.8286 130.635 36.0075 128.048 36.3876C128.018 36.3876 127.989 36.4099 127.959 36.4211C130.844 36.6112 133.71 36.9354 136.566 37.4832C138.914 37.9192 141.113 38.5006 142.705 39.9204Z" fill="#1E1E1E"/>
<path d="M142.765 45.5324C142.755 43.9449 142.735 42.3573 142.705 40.7698C142.705 40.4903 142.705 40.2108 142.695 39.9201C141.113 38.5003 138.914 37.9189 136.566 37.4718C133.71 36.9128 130.844 36.5997 127.959 36.4097C127.7 36.4656 127.471 36.5885 127.292 36.7562C122.645 36.5997 117.999 36.5997 113.362 36.7674C112.735 36.7898 112.108 36.8121 111.471 36.8345C110.039 37.2258 108.636 37.8295 107.292 38.7686C105.72 39.8642 104.496 42.6592 105.223 44.8281C105.352 45.2082 105.471 45.5995 105.591 45.9796C105.531 46.3485 105.471 46.7174 105.432 47.0864C104.745 53.4477 104.725 60.0102 104.377 66.4051C104.188 69.8932 107.412 72.4869 110.078 71.5813C110.695 71.3689 111.312 71.2012 111.919 71.0112C113.541 71.1789 115.153 71.2907 116.775 71.19C118.665 71.0559 120.805 69.882 122.606 69.8932C125.312 69.8932 127.093 71.5031 129.969 70.0832C130.685 69.7255 131.352 69.3007 131.959 68.8087C133.999 68.9876 136.028 69.2671 138.068 69.7031C139.79 70.0721 141.212 69.5801 142.217 68.4622C142.267 68.015 142.287 67.5678 142.317 67.1094C142.386 65.7119 142.446 64.3145 142.496 62.9058C142.605 60.1109 142.685 57.3047 142.725 54.5098C142.775 51.5136 142.794 48.5286 142.765 45.5324ZM139.899 52.2626C139.849 56.9358 139.71 61.6089 139.491 66.2709C139.471 66.7069 139.322 67.4672 139.401 67.9032C139.342 67.9032 139.242 67.9255 139.083 68.0038C138.406 67.8473 137.421 68.205 136.725 68.2833C134.685 68.5292 132.645 68.7417 130.606 68.9317C126.675 69.3007 122.735 69.5801 118.805 69.7702C116.914 69.8708 115.014 69.9379 113.123 69.9938C111.262 70.0497 109.332 70.2509 107.481 70.0497C107.034 70.005 106.337 69.9491 105.999 69.5578C105.481 68.9541 105.73 67.6125 105.75 66.8299C105.8 64.5828 105.85 62.3468 105.899 60.0997C105.999 55.4153 106.108 50.7422 106.208 46.0578C106.238 44.7498 106.267 43.4418 106.297 42.1337C106.307 41.8654 106.198 40.8145 106.337 40.6133C106.427 40.4791 107.173 40.4903 107.462 40.4679C109.66 40.3226 111.869 40.222 114.068 40.1437C118.486 39.9984 122.894 40.0096 127.312 40.1661C127.72 40.1773 128.028 40.0207 128.257 39.7636C130.009 39.5177 131.78 39.35 133.551 39.2941C134.466 39.2717 135.392 39.2717 136.307 39.3052C137.322 39.3388 138.516 39.6854 139.521 39.5288C139.6 39.54 139.69 39.5512 139.77 39.5624C139.78 39.6518 139.799 39.7748 139.829 39.9313C139.75 40.4344 139.849 41.094 139.859 41.6083C139.879 42.7374 139.899 43.8554 139.909 44.9734C139.929 47.3994 139.919 49.8366 139.899 52.2626Z" fill="#1E1E1E"/>
<path d="M139.909 44.9737C139.929 47.3997 139.919 49.8368 139.899 52.2628C139.849 56.9359 139.71 61.609 139.491 66.271C139.471 66.707 139.322 67.4672 139.401 67.9032C139.342 67.9032 139.242 67.9256 139.083 68.0038C138.406 67.8473 137.421 68.2051 136.725 68.2833C134.685 68.5293 132.645 68.7417 130.606 68.9317C126.675 69.3007 122.735 69.5802 118.805 69.7702C116.914 69.8708 115.014 69.9379 113.123 69.9938C111.262 70.0497 109.332 70.2509 107.481 70.0497C107.034 70.005 106.337 69.9491 105.999 69.5578C105.481 68.9541 105.73 67.6125 105.75 66.83C105.8 64.5828 105.85 62.3469 105.899 60.0998C105.999 55.4155 106.108 50.7424 106.208 46.0581C106.238 44.7501 106.267 43.4421 106.297 42.134C106.307 41.8657 106.198 40.8148 106.337 40.6136C106.427 40.4794 107.173 40.4906 107.462 40.4683C109.66 40.3229 111.869 40.2223 114.068 40.144C118.486 39.9987 122.894 40.0099 127.312 40.1664C127.72 40.1776 128.028 40.0211 128.257 39.7639C130.009 39.518 131.78 39.3503 133.551 39.2944C134.466 39.272 135.392 39.272 136.307 39.3056C137.322 39.3391 138.516 39.6857 139.521 39.5292C139.6 39.5403 139.69 39.5515 139.77 39.5627C139.78 39.6521 139.799 39.7751 139.829 39.9316C139.75 40.4347 139.849 41.0943 139.859 41.6086C139.879 42.7377 139.899 43.8557 139.909 44.9737Z" fill="#00A99D"/>
<path d="M53.5417 78.4456C52.8949 77.4171 51.8601 77.3053 50.8751 77.2047C49.6512 77.0705 48.4273 76.9923 47.2035 76.9699C44.5965 76.9028 41.9896 77.0817 39.4025 77.4618C39.0941 77.5065 38.8453 77.6519 38.6463 77.8419C34.0096 77.6854 29.3629 77.6854 24.7161 77.8531C22.4376 77.9314 20.1391 77.9873 17.8704 78.222C15.8605 78.4233 14.9252 79.7313 14.8157 82.1014C14.8058 82.4144 14.7958 82.7275 14.7859 83.0405C14.9948 82.4368 15.2635 81.889 15.5919 81.3971C18.2983 77.3276 24.0395 78.7028 27.7808 78.7363C34.0295 78.7922 40.2682 78.8481 46.5169 78.904C47.9696 78.9152 49.0442 79.6083 49.7706 80.6257C50.1487 80.6592 50.5268 80.6704 50.8751 80.6257C50.9646 80.6369 51.0442 80.648 51.1338 80.6592C51.1437 80.7487 51.1636 80.8716 51.1935 81.0281C51.1238 81.5424 51.2134 82.1908 51.2233 82.7051C51.2233 82.7498 51.2233 82.7946 51.2233 82.8393C51.6512 83.6219 51.9099 84.5721 51.8999 85.6789C51.8701 91.0117 51.6611 96.4451 51.0641 101.767C51.0044 103.634 50.9348 105.501 50.8552 107.368C50.8353 107.804 50.686 108.575 50.7656 109.011C50.696 109.011 50.5965 109.033 50.4373 109.101C50.2781 109.067 50.1089 109.067 49.9298 109.078C49.6014 110.364 49.1039 111.527 48.1189 112.421C47.9099 112.611 47.701 112.745 47.502 112.868C47.5418 112.868 47.5716 112.857 47.6114 112.857C48.7059 112.734 49.8104 112.611 50.9049 112.455C51.7805 112.332 52.6064 112.086 53.1238 111.146C53.6114 110.263 53.6114 109.235 53.6611 108.217C53.7308 106.82 53.7905 105.422 53.8502 104.014C53.9596 101.219 54.0392 98.4127 54.079 95.6066C54.1288 92.6216 54.1387 89.6254 54.1188 86.6404C54.1089 85.0529 54.089 83.4653 54.0591 81.8778C54.0492 80.7151 54.1487 79.4071 53.5417 78.4456Z" fill="#1E1E1E"/>
<path d="M14.6167 97.8535C14.5968 97.261 14.557 96.6014 14.5073 95.9194C14.4973 96.7356 14.4774 97.5517 14.4575 98.3678L14.2685 106.786C14.2187 109 13.9003 111.504 15.4426 113.148C16.6068 114.389 18.2684 114.567 19.761 114.567C20.7759 114.567 21.8007 114.556 22.8256 114.523C20.8654 114.377 19.0247 113.964 17.6117 112.969C13.6217 110.163 14.7361 102.46 14.6167 97.8535Z" fill="#1E1E1E"/>
<path d="M49.9298 109.045C49.6114 110.319 49.1039 111.493 48.1288 112.387C47.9099 112.577 47.7109 112.712 47.5119 112.823C45.1935 113.092 42.8751 113.338 40.5468 113.539C35.9896 113.941 31.4225 114.232 26.8554 114.4C25.5121 114.444 24.1589 114.489 22.8157 114.523C20.8654 114.377 19.0147 113.964 17.6117 112.969C13.6217 110.163 14.7361 102.46 14.6167 97.8537C14.5968 97.2612 14.557 96.6016 14.5073 95.9196C14.5769 91.6154 14.6267 87.3112 14.7859 83.0182C15.0048 82.4257 15.2635 81.8667 15.5919 81.3748C18.2983 77.3054 24.0395 78.6805 27.7907 78.714C34.0295 78.7699 40.2781 78.8258 46.5268 78.8929C47.9796 78.9041 49.0542 79.586 49.7706 80.6034C49.0641 80.5475 48.3278 80.4021 47.6611 80.3798C46.7457 80.3462 45.8303 80.3462 44.905 80.3686C43.1338 80.4133 41.3727 80.581 39.6115 80.8381C39.3926 81.0841 39.0742 81.2518 38.6662 81.2406C34.2583 81.0841 29.8405 81.0729 25.4325 81.2183C23.2236 81.2853 21.0246 81.3971 18.8157 81.5425C18.5371 81.5648 17.7908 81.5536 17.7013 81.6766C17.552 81.889 17.6615 82.9399 17.6615 83.1971C17.6316 84.5163 17.6018 85.8243 17.5719 87.1323C17.4625 91.8055 17.363 96.4898 17.2535 101.163C17.2038 103.41 17.154 105.657 17.1043 107.904C17.0943 108.687 16.8356 110.017 17.353 110.621C17.7013 111.023 18.3878 111.079 18.8356 111.124C20.6963 111.325 22.6266 111.113 24.4873 111.068C26.3778 111.012 28.2683 110.945 30.1589 110.845C34.0991 110.655 38.0294 110.375 41.9597 110.006C44.0094 109.805 46.0492 109.592 48.089 109.358C48.6263 109.291 49.3328 109.078 49.9298 109.045Z" fill="#1E1E1E"/>
<path d="M51.2532 93.337C51.283 90.8998 51.283 88.4738 51.2631 86.0478C51.2532 84.9746 51.2432 83.8901 51.2233 82.8169C51.6512 83.5995 51.9099 84.5498 51.8999 85.6565C51.8701 90.9893 51.6611 96.4114 51.0641 101.744C51.1537 98.938 51.2233 96.1431 51.2532 93.337Z" fill="#1E1E1E"/>
<path d="M89.4816 78.0095C91.8199 77.0369 93.5811 78.3561 94.4169 80.3685C94.5462 80.3796 94.6756 80.3796 94.8049 80.3908C95.2527 80.4355 95.9392 80.4914 96.2875 80.8939C96.5163 81.1622 96.596 81.5871 96.6059 82.0343C97.9691 82.828 98.9442 84.3261 98.7651 86.5286C98.3571 91.526 97.9392 96.5233 97.5313 101.521C97.2925 104.461 97.5114 108.039 95.7004 110.364C93.9393 112.633 91.4915 112.466 89.1433 112.376C85.3921 112.242 81.6508 112.164 77.8996 112.309C72.9843 112.488 63.6809 115.954 60.2083 110.129C59.9197 109.648 59.7307 109.168 59.5615 108.676C59.5715 109.011 59.5715 109.347 59.5715 109.671C59.5914 110.8 59.4919 112.108 60.0889 113.07C60.7356 114.098 61.7705 114.21 62.7555 114.31C63.9794 114.445 65.2033 114.523 66.4271 114.545C69.0341 114.612 71.641 114.433 74.228 114.053C74.5365 114.009 74.7852 113.863 74.9842 113.673C79.621 113.83 84.2677 113.83 88.9144 113.662C91.193 113.584 93.4915 113.517 95.7601 113.293C97.7701 113.092 98.7054 111.784 98.8148 109.414C99.0437 104.003 99.0536 98.5581 99.173 93.1358L99.3621 84.7174C99.4118 82.5038 99.7303 79.9995 98.188 78.3561C97.0238 77.1151 95.3621 76.9363 93.8696 76.9363C91.5015 76.9251 89.1333 77.0145 86.7752 77.104C82.208 77.2716 77.6409 77.5623 73.0738 77.9648C70.7156 78.1772 68.3574 78.412 66.0092 78.6803C64.9147 78.8033 63.8102 78.9263 62.7157 79.0828C61.8401 79.2058 61.0142 79.4517 60.4968 80.3908C60.2481 80.838 60.1287 81.3188 60.059 81.8107C60.1585 81.7436 60.2481 81.6541 60.3575 81.5982C69.9395 76.3884 79.9494 81.9895 89.4816 78.0095Z" fill="#1E1E1E"/>
<path d="M98.7651 86.5176C98.3472 91.5149 97.9392 96.5122 97.5213 101.51C97.2825 104.461 97.5113 108.027 95.6905 110.353C93.9293 112.622 91.4915 112.454 89.1433 112.376C85.3921 112.242 81.6409 112.164 77.8897 112.298C72.9743 112.488 63.6709 115.942 60.2083 110.118C59.9197 109.637 59.7207 109.156 59.5615 108.664C59.5416 107.412 59.5217 106.16 59.5118 104.908C59.4919 101.912 59.5018 98.927 59.5516 95.9309C59.6013 93.136 59.671 90.3299 59.7804 87.535C59.8401 86.1263 59.8998 84.7289 59.9695 83.3314C59.9894 82.8283 60.0093 82.3141 60.069 81.8222C60.1685 81.7551 60.258 81.6657 60.3675 81.6098C69.9395 76.3889 79.9394 81.9787 89.4816 77.9987C91.8199 77.0261 93.581 78.3453 94.4169 80.3576C92.6756 80.2347 90.8846 80.3912 89.1532 80.4471C87.2627 80.503 85.3722 80.5701 83.4817 80.6595C79.5414 80.8607 75.6111 81.1402 71.6808 81.5091C69.6311 81.6992 67.5913 81.9116 65.5515 82.1576C64.855 82.2358 63.8699 82.5936 63.2033 82.437C63.0441 82.5153 62.9446 82.5377 62.8749 82.5377C62.9545 82.9625 62.8053 83.7339 62.7854 84.1699C62.5665 88.8318 62.4371 93.5049 62.3874 98.178C62.3575 100.604 62.3575 103.03 62.3774 105.467C62.3874 106.585 62.3973 107.703 62.4172 108.832C62.4272 109.346 62.5267 110.006 62.457 110.509C62.4869 110.666 62.4968 110.789 62.5068 110.878C62.5963 110.889 62.6759 110.9 62.7655 110.9C63.7605 110.755 64.9644 111.09 65.9794 111.135C66.8948 111.158 67.8102 111.169 68.7356 111.135C70.5067 111.09 72.2679 110.923 74.029 110.677C74.2479 110.42 74.5663 110.263 74.9743 110.274C79.3822 110.42 83.8001 110.431 88.208 110.297C90.4169 110.218 92.6159 110.118 94.8248 109.961C95.1034 109.95 95.8497 109.961 95.9392 109.827C96.0885 109.615 95.979 108.575 95.979 108.307C96.0089 106.999 96.0387 105.691 96.0686 104.383C96.178 99.6984 96.2775 95.0253 96.387 90.3411C96.4367 88.0939 96.4865 85.8468 96.5362 83.6109C96.5462 83.1749 96.6158 82.5824 96.6059 82.0234C97.9691 82.8172 98.9442 84.3152 98.7651 86.5176Z" fill="#1E1E1E"/>
<path d="M142.327 107.848C142.327 107.96 142.317 108.072 142.317 108.184C142.267 109.201 142.257 110.23 141.77 111.113C141.262 112.052 140.426 112.287 139.551 112.421C138.456 112.577 137.352 112.689 136.257 112.812C133.899 113.092 131.551 113.327 129.193 113.539C124.625 113.941 120.058 114.232 115.491 114.4C113.133 114.478 110.765 114.579 108.397 114.568C106.914 114.556 105.243 114.377 104.078 113.136C102.546 111.504 102.865 109 102.914 106.786L103.103 98.3568C103.223 92.9346 103.233 87.49 103.462 82.079C103.561 79.7089 104.506 78.4009 106.516 78.1996C108.785 77.976 111.083 77.9202 113.362 77.8307C113.68 77.8195 113.989 77.8195 114.297 77.8083C113.83 77.9649 113.372 78.1437 112.934 78.3897C111.67 79.0605 110.705 80.1226 110.009 81.4194C109.153 81.4641 108.307 81.4865 107.461 81.5424C107.173 81.5648 106.427 81.5536 106.337 81.6766C106.198 81.889 106.307 82.9399 106.297 83.197C106.267 84.5162 106.238 85.8243 106.208 87.1323C106.108 91.8055 105.999 96.4898 105.899 101.163L105.75 107.904C105.73 108.687 105.481 110.017 105.999 110.621C106.337 111.024 107.034 111.079 107.481 111.124C108.029 111.18 108.586 111.202 109.143 111.202C109.81 112.074 110.735 112.633 111.909 112.656C117.989 112.745 123.899 110.733 129.929 110.062C130.307 110.017 130.685 109.984 131.073 109.961C131.183 109.939 131.302 109.939 131.421 109.928C131.849 109.894 132.277 109.872 132.705 109.861C136.396 109.749 140.008 110.073 142.327 107.848Z" fill="#1E1E1E"/>
<path d="M140.098 78.4013C141.143 78.4461 141.969 78.9046 142.595 79.5979C142.526 79.1841 142.396 78.7927 142.178 78.4461C141.531 77.4172 140.496 77.3054 139.511 77.2047C138.287 77.0705 137.063 76.9923 135.839 76.9699C133.232 76.9028 130.625 77.0817 128.038 77.4619C127.73 77.5067 127.481 77.6521 127.282 77.8422C126.247 77.8086 125.213 77.7863 124.178 77.7639C124.526 77.7863 124.864 77.8086 125.193 77.831C130.168 78.0099 135.133 78.2 140.098 78.4013Z" fill="#1E1E1E"/>
<path d="M118.805 110.845C122.506 110.666 126.227 110.409 129.929 110.062C123.899 110.733 117.989 112.746 111.909 112.656C110.735 112.634 109.81 112.075 109.143 111.203C110.476 111.203 111.82 111.102 113.123 111.068C115.014 111.013 116.914 110.945 118.805 110.845Z" fill="#1E1E1E"/>
<path d="M129.929 110.061C130.307 110.017 130.685 109.983 131.073 109.961C130.914 109.972 130.765 109.995 130.606 110.006C130.377 110.028 130.158 110.05 129.929 110.061Z" fill="#1E1E1E"/>
<path d="M142.725 95.573C142.685 98.3791 142.605 101.185 142.496 103.98C142.446 105.277 142.386 106.563 142.327 107.848C140.008 110.073 136.397 109.749 132.705 109.861C132.277 109.872 131.849 109.894 131.421 109.928C133.193 109.749 134.954 109.559 136.725 109.358C137.421 109.279 138.406 108.922 139.083 109.067C139.242 109 139.342 108.977 139.401 108.977C139.322 108.541 139.471 107.77 139.491 107.334C139.71 102.672 139.849 98.0101 139.899 93.337C139.919 90.8998 139.929 88.4738 139.909 86.0478C139.899 84.9298 139.879 83.8007 139.859 82.6827C139.849 82.1685 139.75 81.5088 139.829 81.0058C139.799 80.8492 139.78 80.7263 139.77 80.6368C139.69 80.6256 139.6 80.6145 139.521 80.6033C138.516 80.7486 137.322 80.4132 136.307 80.3797C135.392 80.3462 134.466 80.3462 133.551 80.3685C131.78 80.4132 130.009 80.5809 128.257 80.8381C128.028 81.084 127.72 81.2517 127.312 81.2405C122.894 81.084 118.486 81.0728 114.068 81.2182C112.715 81.2629 111.362 81.3412 110.009 81.4194C110.705 80.1226 111.67 79.0605 112.934 78.3897C113.372 78.1438 113.83 77.9649 114.297 77.8084C117.591 77.7077 120.884 77.6854 124.178 77.7525C124.526 77.7748 124.864 77.7972 125.193 77.8084C130.168 78.0096 135.133 78.1996 140.098 78.4009C141.143 78.4344 141.969 78.8928 142.595 79.5971C142.725 80.3238 142.695 81.1176 142.705 81.8442C142.735 83.4318 142.755 85.0193 142.765 86.6068C142.794 89.5918 142.775 92.588 142.725 95.573Z" fill="#1E1E1E"/>
<path d="M51.2233 41.6086C51.2134 41.0943 51.1139 40.4347 51.1835 39.9316C51.1537 39.7751 51.1437 39.6521 51.1338 39.5627C51.0442 39.5515 50.9646 39.5403 50.8751 39.5292C49.88 39.6857 48.6761 39.3391 47.6612 39.3056C46.7457 39.272 45.8303 39.272 44.905 39.2944C43.1338 39.3503 41.3727 39.518 39.6115 39.7639C39.3926 40.0211 39.0742 40.1776 38.6662 40.1664C34.2583 40.0099 29.8405 39.9987 25.4325 40.144C23.2236 40.2223 21.0246 40.3229 18.8157 40.4683C18.5371 40.4906 17.7908 40.4794 17.7013 40.6136C17.552 40.8148 17.6615 41.8657 17.6615 42.134C17.6316 43.4421 17.6018 44.7501 17.5719 46.0581C17.4625 50.7424 17.363 55.4155 17.2535 60.0998C17.2038 62.3469 17.154 64.5828 17.1043 66.83C17.0943 67.4896 16.9152 68.5404 17.1739 69.2112C17.3132 69.4013 17.4724 69.5913 17.6316 69.759C17.9998 69.9714 18.4874 70.0162 18.8356 70.0497C20.6963 70.2509 22.6266 70.0497 24.4873 69.9938C26.3778 69.9379 28.2683 69.8708 30.1589 69.7702C34.0991 69.5802 38.0294 69.3007 41.9597 68.9317C44.0095 68.7417 46.0492 68.5293 48.089 68.2833C48.7855 68.2051 49.7706 67.8473 50.4372 68.0038C50.5965 67.9256 50.696 67.9032 50.7656 67.9032C50.686 67.4672 50.8353 66.707 50.8552 66.271C51.0741 61.609 51.2134 56.9359 51.2532 52.2628C51.283 49.8368 51.283 47.3997 51.2631 44.9737C51.2532 43.8557 51.2432 42.7377 51.2233 41.6086Z" fill="#00A99D"/>
<path d="M125.093 153.808C130.725 153.674 136.347 153.473 141.969 153.227C143.889 153.149 143.939 149.571 142.008 149.649C121.989 150.521 101.949 150.723 81.9195 150.253C76.2877 150.119 70.6659 149.929 65.0441 149.694C63.1137 149.616 63.0739 153.182 65.0043 153.272C85.0239 154.11 105.064 154.3 125.093 153.808Z" fill="#00A99D"/>
<path d="M44.696 159.778C54.4273 160.348 64.1685 160.863 73.8997 161.321C75.83 161.411 75.83 157.844 73.8997 157.744C64.1585 157.285 54.4273 156.771 44.696 156.201C42.7657 156.089 42.7657 159.667 44.696 159.778Z" fill="#1E1E1E"/>
<path d="M40.7458 52.1845C39.8105 49.5684 37.3429 47.7685 34.8056 48.0704C34.1787 48.1486 33.5817 48.5623 33.3827 49.2219C33.1638 49.1771 32.9449 49.1771 32.7161 49.2554C31.4922 49.7249 30.3479 50.5299 29.7609 51.8714C29.2634 53.0006 29.0843 54.3422 29.1937 55.5943C29.4226 58.1991 30.7161 60.5916 33.0842 61.2512C35.2931 61.8661 37.8105 61.0611 39.4324 59.2724C41.0642 57.4836 41.6015 54.5769 40.7458 52.1845ZM38.1488 55.0129C38.1488 55.0241 38.1488 55.0465 38.1389 55.0577C38.0991 55.2365 38.0692 55.4266 38.0294 55.6055C37.9996 55.7061 37.9697 55.7955 37.9399 55.8961C37.9399 55.9073 37.9299 55.9185 37.9299 55.9297C37.8304 56.1197 37.721 56.321 37.6314 56.511C37.6215 56.5334 37.6314 56.5222 37.6215 56.5334C37.5618 56.6116 37.5021 56.6899 37.4424 56.757C37.323 56.9023 37.1837 57.0253 37.0543 57.1706C37.0444 57.1818 37.0543 57.1818 37.0444 57.1818C36.9747 57.2377 36.8951 57.2936 36.8255 57.3495C36.6563 57.4725 36.4772 57.5731 36.2981 57.6849C36.2683 57.7072 36.2583 57.7072 36.2384 57.7184C36.2285 57.7184 36.2285 57.7184 36.2285 57.7184C36.1489 57.7519 36.0593 57.7855 35.9797 57.819C35.8106 57.8861 35.6414 57.942 35.4623 57.9867C35.3728 58.0091 35.2832 58.0314 35.2036 58.0538C35.1837 58.0538 35.0941 58.0762 35.0444 58.0762C34.9847 58.0762 34.915 58.0873 34.8951 58.0873C34.7757 58.0985 34.6563 58.0985 34.5369 58.0985C34.4374 58.0985 34.3479 58.0873 34.2484 58.0873C34.2185 58.0873 34.2086 58.0873 34.1887 58.0873C34.0096 58.0538 33.8404 58.0091 33.6713 57.9532C33.6116 57.9308 33.5419 57.9085 33.4822 57.8749C33.4524 57.8526 33.3927 57.8302 33.3827 57.819C33.3031 57.7631 33.2235 57.7072 33.1439 57.6625C33.1141 57.6402 33.0942 57.629 33.0743 57.6178C33.0643 57.6066 33.0544 57.5843 33.0245 57.5619C32.9051 57.4277 32.7857 57.2936 32.6763 57.1594C32.8753 57.4166 32.6066 57.0253 32.5569 56.9247C32.527 56.8688 32.4275 56.6004 32.4076 56.5781C32.3479 56.388 32.2882 56.198 32.2484 55.9967C32.2285 55.9073 32.2086 55.8067 32.1987 55.7173C32.1887 55.6837 32.1887 55.6725 32.1887 55.6614C32.1788 55.4489 32.1589 55.2365 32.1589 55.0129C32.1589 54.7782 32.1688 54.5322 32.1887 54.2974C32.1887 54.2751 32.1887 54.2751 32.1987 54.2527C32.2186 54.1186 32.2484 53.9844 32.2783 53.8502C32.3081 53.7384 32.338 53.6378 32.3678 53.526C32.3877 53.4925 32.4176 53.3919 32.4474 53.3472C32.4574 53.3248 32.5071 53.2465 32.537 53.1906C32.5768 53.1347 32.6862 53.0118 32.6962 52.9894C32.726 52.9559 32.736 52.9447 32.7459 52.9335C32.8554 52.8441 32.9648 52.7658 33.0842 52.6987C33.1439 52.6652 33.2036 52.6317 33.2633 52.5981C33.2733 52.5981 33.4822 52.5087 33.522 52.4975C33.9797 52.3186 34.3678 51.9162 34.5369 51.4243C34.6265 51.4354 34.716 51.4466 34.8155 51.4354C34.9847 51.4131 35.1538 51.4019 35.323 51.4019C35.3927 51.4019 35.6514 51.4354 35.6713 51.4243C35.8006 51.4466 35.93 51.4802 36.0593 51.5249C36.1389 51.5472 36.2185 51.5808 36.3081 51.6143C36.3479 51.6255 36.3678 51.6367 36.3877 51.6367C36.3976 51.6479 36.4076 51.6479 36.4275 51.659C36.5767 51.7485 36.7359 51.8379 36.8752 51.9385C36.9449 51.9944 37.0145 52.0391 37.0941 52.095C37.1041 52.095 37.1041 52.095 37.1041 52.1062C37.2334 52.2292 37.3528 52.3522 37.4722 52.4863C37.5319 52.5534 37.5817 52.6317 37.6414 52.6987C37.4324 52.4528 37.6812 52.7658 37.711 52.8217C37.7906 52.9671 37.8603 53.1124 37.9299 53.2689C37.91 53.2577 38.0394 53.5931 38.0593 53.6602C38.109 53.8391 38.1389 54.0179 38.1687 54.208C38.1687 54.2304 38.1687 54.2304 38.1687 54.2639C38.1687 54.3869 38.1787 54.521 38.1787 54.644C38.1687 54.7558 38.1588 54.8788 38.1488 55.0129Z" fill="#1E1E1E"/>
<path d="M83.8001 48.227C81.213 46.6842 77.024 45.678 74.835 48.5512C74.3076 49.2444 74.238 50.2505 74.835 50.9213C75.1335 51.2567 75.5912 51.4244 76.0191 51.4021C74.8151 53.1238 74.3176 55.4715 74.9345 57.5845C75.3922 59.1609 76.3176 60.5136 77.5713 61.3968C78.8947 62.3359 80.5464 62.5148 82.0887 62.5372C83.7304 62.5484 85.2727 62.0229 86.4468 60.6925C87.4617 59.541 88.0587 58.0093 88.1881 56.3994C88.4567 52.9561 86.407 49.781 83.8001 48.227ZM84.7652 57.6963C84.6956 57.8193 84.6259 57.9423 84.5463 58.0652C84.5364 58.0764 84.5364 58.0764 84.5364 58.0876C84.5264 58.0988 84.5264 58.0988 84.4866 58.1323C84.3374 58.3112 84.1881 58.4901 84.019 58.6354C83.9891 58.6578 83.9195 58.7025 83.9095 58.7137C83.8001 58.7808 83.6906 58.859 83.5712 58.9261C83.5314 58.9485 83.5215 58.9596 83.5115 58.9596C83.4916 58.9708 83.4618 58.9708 83.4319 58.982C83.2528 59.0379 83.0737 59.105 82.8847 59.1385C81.8499 59.3174 80.7056 59.1497 79.7205 58.859C79.6608 58.8367 79.6011 58.8143 79.5315 58.7919C79.621 58.8478 79.621 58.8478 79.5315 58.7919C79.4121 58.736 79.3026 58.669 79.1932 58.5907C79.1136 58.5348 78.7255 58.2329 78.8648 58.3559C78.6658 58.177 78.4867 57.9646 78.3176 57.7522C78.2081 57.6181 78.1683 57.5398 78.0191 57.2379C77.9693 57.1373 77.9195 57.0367 77.8797 56.9361C77.8598 56.8802 77.8399 56.8466 77.83 56.8243C77.83 56.8019 77.82 56.7572 77.8001 56.7013C77.7703 56.5895 77.7404 56.4777 77.7106 56.3659C77.7006 56.3435 77.6608 56.0976 77.6509 56.0529C77.6409 55.9299 77.631 55.8181 77.631 55.6951C77.631 55.6169 77.6409 55.2032 77.631 55.2926C77.6409 55.2032 77.7504 54.7113 77.8101 54.4765C78.0389 53.5933 78.7056 52.8443 79.5912 52.3747C80.2578 52.0281 80.4668 51.0108 80.2081 50.2729C80.6459 50.3847 81.0936 50.5412 81.5713 50.7536C83.3324 51.5139 84.805 53.0902 85.1533 55.2144C85.3225 56.0305 85.1732 56.9473 84.7652 57.6963Z" fill="#1E1E1E"/>
<path d="M131.481 52.6875C129.939 50.1609 127.402 49.4342 124.844 49.3336C124.506 48.7075 123.829 48.4057 123.173 48.5734C121.849 48.9311 120.456 49.4118 119.511 50.5857C118.586 51.726 118.178 53.3136 118.257 54.8452C118.407 57.6513 119.83 60.5021 122.038 61.8996C123.302 62.6933 124.695 62.861 126.118 62.7157C127.601 62.5704 129.033 62.2573 130.237 61.2064C132.526 59.2053 133.143 55.4042 131.481 52.6875ZM129.322 57.1482C129.312 57.2041 129.302 57.2376 129.292 57.26C129.252 57.3606 129.203 57.4612 129.163 57.5618C129.023 57.8525 128.964 57.9531 128.854 58.0985C128.526 58.5121 128.446 58.5904 128.058 58.8363C127.65 59.0935 127.153 59.2164 126.675 59.2947C125.82 59.44 124.795 59.5407 123.949 59.2053C123.929 59.1941 123.839 59.1494 123.78 59.127C123.73 59.0935 123.63 59.0376 123.611 59.0264C123.412 58.9034 123.213 58.7693 123.033 58.6127C123.203 58.7581 122.785 58.3556 122.755 58.3221C122.566 58.1208 122.387 57.9084 122.237 57.6736C122.357 57.8413 122.048 57.3383 122.019 57.3047C121.909 57.1035 121.81 56.9022 121.71 56.6898C121.67 56.6004 121.631 56.5221 121.601 56.4327C121.591 56.388 121.561 56.3097 121.551 56.2985C121.461 56.0191 121.382 55.7396 121.322 55.4489C121.252 55.0911 121.203 54.6216 121.242 54.0402C121.242 54.0291 121.242 54.0179 121.242 54.0067C121.242 53.9955 121.252 53.9843 121.252 53.962C121.282 53.7943 121.322 53.6266 121.372 53.4589C121.382 53.4254 121.382 53.403 121.392 53.3918C121.392 53.3918 121.392 53.3918 121.392 53.3806C121.441 53.2465 121.511 53.1347 121.581 53.0117C121.74 52.721 121.67 52.8887 121.621 52.9446C121.611 52.9558 121.959 52.5757 121.81 52.7099C121.879 52.6428 121.969 52.5869 122.048 52.531C122.257 52.654 122.476 52.7322 122.725 52.7099C123.839 52.6316 124.994 52.531 126.088 52.7434C127.004 52.9111 127.76 53.2129 128.397 53.7831C128.675 54.0291 128.924 54.3533 129.093 54.6887C129.203 54.9011 129.242 54.9905 129.292 55.1694C129.322 55.2924 129.362 55.4153 129.382 55.5383C129.382 55.5383 129.451 56.0302 129.431 55.8625C129.481 56.4551 129.431 56.6339 129.322 57.1482Z" fill="#1E1E1E"/>
<path d="M127.521 89.6255C125.531 87.3672 120.486 85.4219 119.123 89.3795C118.954 89.8826 119.103 90.4416 119.402 90.8552C117.511 92.398 116.536 95.6178 117.262 98.055C118.168 101.118 121.033 102.672 123.78 102.471C125.073 102.381 126.347 101.968 127.382 101.073C128.456 100.146 129.073 98.7593 129.332 97.2724C129.8 94.5893 129.282 91.6155 127.521 89.6255ZM126.496 96.065C126.496 96.0985 126.496 96.1209 126.496 96.132C126.486 96.2215 126.476 96.2997 126.456 96.3892C126.417 96.6128 126.367 96.8364 126.317 97.06C126.267 97.25 126.198 97.496 126.138 97.6413C126.178 97.5407 126.009 97.8873 126.009 97.8984C125.989 97.932 125.879 98.0997 125.859 98.1332C125.402 98.7257 124.884 98.927 124.118 99.0947C124.078 99.1058 124.068 99.1059 124.048 99.1059C123.959 99.117 123.869 99.1282 123.79 99.1282C123.551 99.1506 123.312 99.1506 123.083 99.1394C122.675 99.117 122.317 99.0499 121.869 98.8823C121.591 98.7816 121.282 98.6028 120.994 98.3792C120.964 98.3456 120.904 98.3009 120.894 98.2897C120.815 98.2115 120.735 98.1332 120.665 98.0438C120.606 97.9767 120.556 97.9208 120.506 97.8537C120.486 97.8202 120.476 97.8202 120.476 97.809C120.456 97.7755 120.436 97.7419 120.417 97.7084C120.367 97.6078 120.307 97.5071 120.257 97.4065C120.237 97.3506 120.208 97.3059 120.188 97.25C120.128 97.0711 120.058 96.8028 120.048 96.6799C119.999 96.2215 120.078 95.7855 120.218 95.2824C120.257 95.1482 120.297 95.0141 120.337 94.8799C120.357 94.824 120.367 94.7793 120.377 94.7458C120.387 94.7346 120.387 94.7234 120.407 94.6787C120.506 94.4327 120.626 94.198 120.765 93.9632C120.775 93.952 120.834 93.8738 120.854 93.8402C120.914 93.762 120.974 93.6949 121.043 93.6166C121.272 93.3595 121.153 93.516 121.103 93.5495C121.153 93.516 121.511 93.3371 121.312 93.4266C122.068 93.1247 122.576 92.2751 122.357 91.3583C122.277 91.0565 122.118 90.777 121.899 90.5534C121.919 90.5087 121.929 90.4751 121.949 90.4304C121.889 90.4528 121.909 90.4416 121.949 90.4192C121.969 90.3633 121.999 90.3186 122.019 90.2515C122.019 90.2627 121.989 90.3857 121.959 90.4081C121.979 90.3969 122.009 90.3969 122.038 90.3857C121.879 90.408 122.178 90.4081 122.208 90.4081C122.576 90.4081 123.063 90.5869 123.461 90.7323C124.188 90.9894 124.894 91.3583 125.431 91.962C125.849 92.4316 126.148 93.0576 126.327 93.6725C126.387 93.8849 126.436 94.1085 126.476 94.3321C126.496 94.4216 126.506 94.511 126.516 94.6004C126.516 94.6116 126.516 94.6228 126.516 94.6451C126.536 95.1482 126.526 95.6066 126.496 96.065Z" fill="#1E1E1E"/>
<path d="M121.949 90.4314H121.939V90.4425C121.949 90.4425 121.939 90.4425 121.949 90.4425V90.4314Z" fill="#1E1E1E"/>
<path d="M81.631 97.8088C81.651 97.7977 81.6709 97.7865 81.6909 97.7754C81.6809 97.7754 81.661 97.7977 81.631 97.8088Z" fill="#1E1E1E"/>
<path d="M85.2727 89.2789C84.4369 88.2615 83.3921 87.4901 82.228 87.0429C79.5514 86.0367 76.4867 87.5348 75.5216 90.5533C75.3325 91.1459 75.5713 91.8502 75.9992 92.275C75.6111 92.3645 75.2529 92.644 74.9743 93.0576C73.3126 95.4836 74.835 98.8823 76.825 100.336C78.7156 101.722 81.2528 101.789 83.2429 100.66C84.3274 100.045 85.1931 98.9717 85.82 97.809C86.5065 96.5345 87.1035 94.9135 87.0637 93.393C87.014 91.8055 86.208 90.408 85.2727 89.2789ZM83.9792 94.1868C83.9095 94.4663 83.82 94.7234 83.7404 94.9917C83.7304 95.0029 83.7105 95.07 83.7006 95.1147C83.6508 95.2489 83.5911 95.383 83.5314 95.5172C83.3623 95.9085 83.1633 96.2774 82.9344 96.6352C82.8946 96.6799 82.8349 96.7693 82.815 96.7917C82.7454 96.8811 82.6857 96.9594 82.616 97.0376C82.5265 97.1382 82.4369 97.2277 82.3474 97.3283C82.3175 97.3618 82.3076 97.373 82.2877 97.3954C82.2877 97.3954 82.2877 97.3954 82.2678 97.4066C82.1185 97.5295 81.9593 97.6413 81.7901 97.7308C81.7603 97.7531 81.7205 97.7643 81.6906 97.7867C81.7006 97.7867 81.6708 97.7978 81.631 97.8202C81.6111 97.8314 81.5912 97.8426 81.5713 97.8537C81.6011 97.8314 81.6111 97.8314 81.631 97.8202C81.6111 97.8314 81.6011 97.8314 81.5812 97.8426C81.4021 97.8985 81.2329 97.9767 81.0439 98.0214C80.9643 98.0438 80.8747 98.055 80.7852 98.0773C80.7653 98.0773 80.7354 98.0885 80.7056 98.0885C80.5165 98.0997 80.3374 98.1109 80.1484 98.0997C80.0688 98.0997 79.8598 98.0662 79.82 98.0662C79.6708 98.0326 79.5215 98.0103 79.3822 97.9655C79.3026 97.9432 79.223 97.9208 79.1434 97.8873C79.1235 97.8761 78.9942 97.8314 78.9146 97.7978C78.8748 97.7755 78.825 97.7531 78.8051 97.742C78.6957 97.6861 78.5862 97.619 78.4768 97.5407C78.4071 97.496 78.3375 97.4401 78.2678 97.3954C78.238 97.373 78.2081 97.3507 78.1782 97.3171C78.029 97.1494 77.8797 97.0041 77.7404 96.8364C77.7305 96.8252 77.7305 96.8252 77.7305 96.8252C77.6509 96.7022 77.5812 96.5792 77.5215 96.4451C77.5116 96.4339 77.4817 96.3668 77.4618 96.3221C77.4419 96.255 77.3723 96.0538 77.3623 96.0091C77.3424 95.9085 77.3225 95.8078 77.3026 95.7184C77.3026 95.7072 77.3026 95.7184 77.3026 95.7072C77.3026 95.6625 77.2927 95.6178 77.2927 95.5843C77.2927 95.4948 77.2927 95.4166 77.2927 95.3271C77.3026 95.2712 77.3126 95.2265 77.3225 95.1706C77.3225 95.1594 77.3225 95.1594 77.3225 95.1594C77.4021 95.0141 77.4718 94.8799 77.5613 94.7458C77.9792 94.1309 77.7504 93.1359 77.2529 92.6328C77.7802 92.5098 78.2081 92.085 78.4071 91.4477C78.4171 91.4254 78.417 91.4142 78.417 91.403C78.417 91.403 78.4171 91.403 78.427 91.3918C78.4768 91.3136 78.5066 91.2241 78.5464 91.1459C78.5663 91.1012 78.626 91.0229 78.6459 90.9894C78.6758 90.9558 78.7056 90.9111 78.7355 90.8776C78.7952 90.8105 78.9743 90.654 78.9942 90.6316C79.1434 90.5198 79.3026 90.4192 79.4618 90.3186C79.4718 90.3186 79.4718 90.3186 79.4817 90.3074C79.5713 90.2738 79.6708 90.2291 79.7703 90.2068C79.83 90.1844 80.1484 90.1173 80.1782 90.1062C80.3076 90.095 80.4469 90.0838 80.5762 90.0838C80.6658 90.0838 80.7454 90.095 80.8349 90.095C80.5165 90.0838 80.9145 90.1173 80.9842 90.1285C81.7006 90.3074 82.2976 90.6875 82.7852 91.1906C82.9245 91.3359 83.0638 91.4813 83.1931 91.649C83.2628 91.7272 83.3225 91.8055 83.3822 91.8949C83.4021 91.9285 83.422 91.9396 83.4319 91.962C83.4419 91.9732 83.4419 91.9844 83.4518 91.9955C83.5812 92.1968 83.7006 92.398 83.82 92.6104C83.8697 92.711 83.9195 92.8117 83.9692 92.9123C83.9991 92.9682 84.009 93.0017 84.019 93.0129C84.019 93.0353 84.0289 93.0688 84.0389 93.1359C84.1185 93.5383 84.0986 93.6949 83.9792 94.1868Z" fill="#1E1E1E"/>
<path d="M41.7906 93.3371C41.104 90.4192 38.8852 88.049 36.2683 87.4006C35.4822 87.2105 34.6563 87.6689 34.4275 88.5745C34.2185 89.413 34.6762 90.4415 35.4723 90.6428C36.8951 90.9894 37.9598 91.8949 38.6364 93.3819C39.2135 94.6564 39.1638 96.3781 38.5568 97.6861C37.8702 99.1731 36.6762 100.235 35.0145 99.8998C34.1986 99.7321 33.1141 99.3855 32.4673 99.0724C31.7409 98.7147 31.4126 98.3234 31.2733 97.4625C31.2832 97.5184 31.2832 97.7532 31.2633 97.3172C31.2534 97.183 31.2534 97.0489 31.2534 96.9259C31.2633 96.6576 31.3031 96.4228 31.3628 96.1545C31.4922 95.6067 31.6912 95.1147 31.9399 94.634C32.1489 94.2315 32.328 93.9632 32.6862 93.6614C32.5569 93.762 32.7857 93.6054 32.7857 93.6054C32.9748 93.4713 32.8255 93.5719 32.935 93.5272C32.9648 93.516 32.9748 93.516 32.9847 93.5048C33.0743 93.5048 33.1041 93.5048 33.0245 93.4825C32.925 93.4601 32.9648 93.4601 33.1439 93.516C33.93 93.7284 34.7658 93.2365 34.9847 92.3421C35.1936 91.4813 34.726 90.4974 33.9399 90.2738C31.0544 89.4689 28.8554 92.8788 28.3877 95.7073C28.139 97.2389 28.2783 98.8712 29.0743 100.19C29.8803 101.521 31.134 102.147 32.4574 102.605C33.8006 103.075 35.1837 103.477 36.6066 103.243C37.9399 103.03 39.1638 102.192 40.0593 101.074C41.7209 99.0054 42.4374 96.0427 41.7906 93.3371Z" fill="#1E1E1E"/>
<path d="M111.939 119.24C109.859 119.296 107.79 119.352 105.71 119.397C101.631 119.498 97.5412 119.609 93.4616 119.71C91.5413 119.755 91.5413 123.109 93.4616 123.064C96.7452 122.975 100.019 122.896 103.302 122.807C104.904 122.762 106.516 122.729 108.118 122.684C108.924 122.662 109.72 122.639 110.526 122.617C110.924 122.606 111.332 122.594 111.73 122.583C111.929 122.583 112.128 122.572 112.337 122.572C112.397 122.583 112.417 122.572 112.466 122.583C113.183 123.511 114.745 123.556 115.014 122.035C115.422 119.755 113.541 119.196 111.939 119.24Z" fill="#1E1E1E"/>
<path d="M140.188 13.1673L88.2577 11.8369C83.3722 11.7139 78.4867 11.5909 73.6012 11.4567C71.6808 11.412 71.6808 14.766 73.6012 14.8107C90.9045 15.2579 108.218 15.694 125.521 16.1412C130.407 16.2641 135.292 16.3871 140.178 16.5213C142.108 16.5772 142.108 13.2232 140.188 13.1673Z" fill="#1E1E1E"/>
<path d="M128.118 7.26447C123.053 7.17503 117.999 7.08559 112.934 7.00733C111.014 6.97379 111.014 10.3277 112.934 10.3613C117.999 10.4507 123.053 10.5401 128.118 10.6184C130.038 10.6519 130.038 7.298 128.118 7.26447Z" fill="#00A99D"/>
<path d="M118.387 1.21615C114.566 0.791179 110.725 0.690529 106.894 0.891829C106.088 0.936562 105.402 1.62993 105.402 2.56933C105.402 3.44163 106.088 4.29157 106.894 4.24683C110.725 4.03435 114.566 4.14618 118.387 4.57115C119.193 4.66062 119.879 3.7324 119.879 2.89365C119.879 1.90951 119.193 1.30561 118.387 1.21615Z" fill="#1E1E1E"/>
<path d="M15.2536 13.6369C13.0645 13.5587 10.8755 13.6369 8.69641 13.894C7.582 14.0282 6.46758 14.2071 5.37307 14.4307C4.4278 14.6207 3.40294 14.7772 2.50742 15.1909C0.388043 16.1635 0.189041 18.4106 0.0994893 20.6689C-1.21404e-05 23.2403 -0.0298626 25.8228 0.0298383 28.4053C0.0497386 29.3108 0.895501 29.9928 1.66166 29.9145C2.51737 29.8251 3.02483 28.9866 3.00493 28.0811C2.95518 25.9458 2.95518 23.8104 3.02483 21.6751C3.05468 20.7696 3.01488 19.7634 3.20393 18.869C3.32334 18.2877 3.75119 18.2094 4.2288 18.0753C7.8805 17.0579 11.8009 16.8231 15.5421 16.9573C16.3481 16.9908 16.955 15.9399 16.8854 15.1238C16.7958 14.14 16.0595 13.6593 15.2536 13.6369Z" fill="#FBB03B"/>
</svg>
