<svg width="54" height="140" viewBox="0 0 54 140" fill="none" xmlns="http://www.w3.org/2000/svg">
<path d="M15.0037 19.0236L24.6826 3.5564H27.448L33.6701 11.29L40.5836 21.1328L46.1144 40.1153V60.5039L40.5836 81.5955H12.2383C11.547 79.252 10.1643 74.2838 10.1643 73.1589C10.1643 72.034 7.8598 64.2535 6.70756 60.5039L8.7816 40.1153L15.0037 19.0236Z" fill="#FBB03B"/>
<path d="M1.79568 78.5219L4.78848 64.5219L8.37983 63.3045V67.5653C8.37983 68.7827 10.1755 70.6088 11.3726 74.261C12.5697 77.9132 12.5697 78.5219 13.1683 80.348C13.7669 82.174 11.9712 85.2175 11.3726 86.4349C10.8938 87.4088 9.17791 90.0871 8.37983 91.3045H5.9856L1.79568 78.5219Z" fill="white"/>
<path d="M41.3006 78.5219L46.6876 60.8697L50.279 64.5219C50.8775 67.1595 52.0746 72.8001 52.0746 74.261C52.0746 75.7219 50.8775 80.9566 50.279 83.3914L47.8847 90.0871L41.3006 78.5219Z" fill="white"/>
<path d="M31.1251 29.8262V36.5219L27.5337 39.5654H24.5409L22.7452 36.5219V32.261L24.5409 29.2175L31.1251 29.8262Z" fill="white"/>
<path d="M33.6011 30.0963C32.0789 27.0953 28.1591 25.4092 24.9123 26.8709C24.3908 27.1055 23.9552 27.3536 23.6471 27.8296C22.9503 27.9377 22.3157 28.359 21.8598 29.0064C20.1856 31.4745 19.1038 34.27 19.7017 37.2211C19.9707 38.5732 20.6635 39.827 21.6542 40.8045C22.8207 41.9251 24.3772 42.467 25.987 42.5753C28.9329 42.7851 31.5067 41.1318 33.066 38.8007C34.7714 36.2485 34.9765 32.8036 33.6011 30.0963ZM29.5419 35.2239C29.526 35.2577 29.4806 35.4254 29.4505 35.5427C29.4351 35.5931 29.4027 35.6441 29.4039 35.6772C29.3396 35.7958 29.293 35.9303 29.2117 36.0495C29.0992 36.2528 28.9861 36.4395 28.873 36.6263C28.857 36.66 28.8571 36.66 28.8406 36.6772C28.7911 36.7288 28.7416 36.7804 28.7251 36.7976C28.5773 36.969 28.4289 37.1238 28.2635 37.2792C28.247 37.2964 28.2305 37.3136 28.214 37.3308C28.1475 37.383 28.0633 37.4192 28.0133 37.4542C27.8631 37.5592 27.7118 37.6311 27.5611 37.7196C27.4764 37.7392 27.3587 37.7932 27.3081 37.8117C27.2574 37.8301 27.0891 37.9026 26.9196 37.9418C26.9026 37.9425 26.8855 37.9431 26.8002 37.9461C26.6637 37.951 26.5277 37.9725 26.3906 37.9608C26.3053 37.9639 26.2371 37.9663 26.1512 37.9528C25.9617 37.9098 25.7558 37.884 25.5658 37.8244C25.5487 37.825 25.5311 37.809 25.514 37.8096C25.4964 37.7936 25.4964 37.7936 25.4617 37.7783C25.3747 37.7316 25.27 37.6689 25.1829 37.6222C25.1659 37.6228 25.1658 37.6228 25.1653 37.6063C25.1653 37.6063 25.1652 37.6063 25.1476 37.5903C25.0765 37.5098 24.9889 37.4465 24.9007 37.3666C24.883 37.3507 24.8654 37.3347 24.8483 37.3353C24.759 37.2223 24.6861 37.092 24.6321 37.0109C24.6315 36.9944 24.6138 36.9784 24.5967 36.979C24.7037 37.108 24.5609 36.9305 24.5233 36.8322C24.43 36.603 24.3713 36.3893 24.312 36.1589C24.3086 36.0594 24.2869 35.9273 24.2675 35.8616C24.2424 35.63 24.252 35.4137 24.261 35.1809C24.2906 35.047 24.3308 34.73 24.3296 34.6969C24.3893 34.4456 24.4495 34.211 24.5267 33.9757C24.558 33.8916 24.5858 33.7079 24.6511 33.6225C24.3766 34.0807 24.6671 33.5887 24.7148 33.4874C24.8256 33.2343 24.9535 32.9806 25.0984 32.7263C25.3388 32.2693 25.6145 31.8443 25.9073 31.4186C26.0432 31.3971 26.1786 31.359 26.3305 31.3038C26.5659 31.1957 26.786 31.1379 27.022 31.0464C27.0727 31.028 27.0897 31.0274 27.1062 31.0102C27.1745 31.0078 27.2427 31.0053 27.2939 31.0035C27.4134 30.9992 27.5328 30.9949 27.6693 30.99C27.6864 30.9894 27.6864 30.9894 27.6864 30.9894C27.7894 31.0023 27.9276 31.0472 27.9447 31.0465C28.0482 31.076 28.4482 31.2776 28.1512 31.089C27.8371 30.9009 28.3776 31.2137 28.4476 31.261C28.4652 31.277 28.5346 31.3077 28.587 31.339C28.6046 31.355 28.6052 31.3716 28.6228 31.3876C28.6934 31.4514 28.851 31.562 28.9745 31.6739C28.975 31.6904 28.9927 31.7064 29.0285 31.7549C29.1008 31.8686 29.1902 31.9816 29.2625 32.0953C29.3165 32.1764 29.3535 32.2581 29.4076 32.3392C29.4839 32.5689 29.5767 32.7815 29.6359 33.0118C29.6371 33.045 29.6559 33.0942 29.6753 33.1599C29.6776 33.2262 29.6975 33.3086 29.6986 33.3417C29.7255 33.6231 29.7188 33.9222 29.7286 34.2042C29.7292 34.2208 29.7297 34.2374 29.7309 34.2705C29.7173 34.3707 29.7031 34.4542 29.6889 34.5378C29.6623 34.7546 29.6021 34.9893 29.5419 35.2239Z" fill="#1E1E1E"/>
<path d="M49.8248 58.1098C49.7131 57.8747 49.534 57.6933 49.2866 57.5314L48.7744 57.2083L48.8222 56.5918C50.4937 36.0737 43.046 16.0708 28.4191 1.72177C27.5965 0.914528 26.9918 -0.0289652 26.1658 0.000681358L25.2169 0.0347334C24.1242 0.0739473 23.7104 0.42215 22.8197 1.63242C9.72304 19.4354 3.32175 39.5426 4.78302 58.2577L4.80917 58.5129L4.71336 58.7383C0.381593 68.7983 -0.956007 77.5385 0.665985 85.4551C0.937599 86.8115 2.06229 91.3478 4.98931 93.07C6.15333 93.7625 7.43522 93.8702 8.92305 93.4411C11.2479 92.7429 12.0014 90.5642 12.7846 88.2478L14.3839 83.5625L15.2345 83.6857C15.8591 83.7657 16.5169 83.8104 17.157 83.8387C17.5895 83.8573 18.0053 83.8936 18.4211 83.93C19.963 84.0625 21.4876 84.1956 23.0288 84.3111C29.9202 84.798 35.6292 84.559 41.0188 83.58C41.0872 83.5605 41.1384 83.5416 41.2068 83.5221L42.0081 83.2201L42.4987 83.9197C43.2296 85.0718 43.7231 86.3519 44.2154 87.5979C44.7078 88.8439 45.1627 90.0059 45.8198 91.024C46.4585 92.0086 47.4453 92.5709 48.5493 92.5313C49.6505 92.4064 50.6678 91.8576 51.2533 90.8119C52.2131 89.104 52.6865 86.8158 53.1169 84.7852L53.1615 84.5787C54.9786 75.7189 53.8316 66.5557 49.8248 58.1098ZM7.40626 89.5508L6.14905 87.6662C5.8113 86.8928 5.61335 86.1656 5.43382 85.4719L5.39336 85.3026C4.97427 83.6782 4.72475 81.9624 4.6418 80.0699C4.51734 77.4786 4.73312 74.7386 5.291 71.9009L6.07993 67.7571L7.29095 71.795C7.89558 73.7883 8.49192 75.5429 9.15371 77.1927C9.17333 77.2603 9.20964 77.3103 9.24592 77.3602L9.4356 77.8486C9.66629 78.5234 9.98559 79.2633 10.3555 79.9673L10.5588 80.3528L7.40626 89.5508ZM38.0768 78.9383L37.8352 79.4422L37.285 79.5131C35.6859 79.7242 34.0322 79.8519 32.2553 79.9156C30.0127 79.9961 27.5761 79.964 24.8421 79.8231C22.333 79.6911 19.8383 79.4733 17.7241 79.2759C17.5338 79.2657 17.3429 79.2384 17.1341 79.1946C16.8218 79.1546 16.4916 79.0981 16.2507 79.1239C16.0782 79.1301 15.9057 79.1362 15.732 79.1083L15.4018 79.0519L15.1693 78.8211C14.6334 78.311 14.0293 76.8299 13.8931 76.3908C13.8361 76.2391 13.7796 76.1046 13.7064 75.9876C11.5682 70.6169 10.2159 64.9959 9.63338 59.1594L9.6096 58.9724L9.67211 58.7823C9.85782 58.1609 9.8014 57.5311 9.54095 56.994L9.4411 56.6048C8.46665 39.9728 13.9651 22.2204 24.9442 6.61092L25.6683 5.5774L26.5462 6.48512C45.0936 25.7994 49.7308 54.9027 38.0768 78.9383ZM48.9635 81.5702C48.9498 81.6731 48.9195 81.7937 48.9058 81.8967L48.3895 84.9378L46.9177 82.3437C46.0667 80.7178 45.1615 79.5208 44.0582 78.587L43.489 78.1122L43.7759 77.4188C44.9399 74.6277 45.8969 71.8439 46.6487 69.1188L47.8285 64.7902L48.6552 69.2005C49.0349 71.1849 49.2518 72.9531 49.3092 74.6075C49.4128 77.097 49.3018 79.3722 48.9635 81.5702Z" fill="#1E1E1E"/>
<path d="M44.675 119.003C46.6188 113.503 45.7884 106.568 40.5882 103.102C38.1288 101.46 35.2453 100.546 32.3224 100.145C29.0791 99.7057 25.428 99.6049 22.5537 101.398C20.0274 102.963 18.5201 105.818 18.0718 108.71C17.5985 111.711 17.5909 115.545 18.7055 118.408C19.7944 121.185 21.9296 123.491 23.8474 125.731C25.7859 128.003 27.7402 130.257 29.285 132.832C29.3265 132.898 29.3837 132.945 29.4235 132.994C30.2056 134.57 32.1751 135.679 33.8419 135.446C36.4277 135.071 37.7226 133.133 37.7888 130.665C37.7707 131.406 37.8236 130.662 37.8644 130.535C37.9144 130.319 37.9644 130.103 38.016 129.905C38.0584 129.795 38.145 129.593 38.1575 129.539C38.2913 129.28 38.4061 129.005 38.54 128.746C38.6423 128.525 38.7636 128.319 38.885 128.114C38.9465 128.02 39.0537 127.851 39.0678 127.815C39.4717 127.248 39.8931 126.679 40.3144 126.111C41.5202 124.533 42.7243 122.939 43.6662 121.176C43.9754 120.724 44.2099 120.227 44.3523 119.685C44.4721 119.463 44.5918 119.24 44.675 119.003Z" fill="#FF3666"/>
<path d="M39.8947 103.331L39.8016 103.046C38.0323 97.1054 31.9798 95.1966 27.2465 95.3665C27.18 95.3689 27.1302 95.3707 27.0638 95.373C21.7509 95.6147 15.0527 98.1001 12.126 104.328C9.1696 110.659 12.1605 117.304 15.1139 122.385C16.5991 124.934 18.2985 127.424 19.9446 129.814C21.9417 132.736 24.0253 135.757 25.7329 138.961C26.3548 140.112 27.3175 140.06 27.8454 139.939C28.8016 139.701 29.8339 138.78 29.8573 137.537C30.0074 131.8 31.6961 126.314 35.0456 120.768L35.2657 120.403C38.2532 115.449 41.0847 110.789 40.803 105.068C40.7634 104.406 40.5286 103.87 40.0832 103.495L39.8947 103.331ZM36.2628 106.489C36.0418 110.664 33.837 114.213 31.7104 117.623C30.9385 118.858 30.214 120.023 29.5897 121.202C28.3561 123.509 27.3792 126.027 26.6734 128.688L26.1148 130.8L23.8373 127.463C23.0321 126.302 22.2428 125.123 21.4536 123.943L20.9099 123.13C18.4367 119.426 15.3498 114.808 15.3045 110.15C15.2594 105.015 19.6464 101.575 24.03 100.431C26.1067 99.8974 30.7778 99.3726 33.5882 101.296C34.7465 102.088 35.4675 103.218 35.6647 104.589C35.731 105.063 35.8958 105.499 36.1253 105.882L36.3014 106.165L36.2628 106.489Z" fill="#1E1E1E"/>
</svg>
