<svg width="417" height="403" viewBox="0 0 417 403" fill="none" xmlns="http://www.w3.org/2000/svg">
<path d="M63.28 17.1911C26.3468 35.7729 49.4487 79.1046 57.3612 106.453C66.8533 137.293 75.9712 168.975 84.8086 200.106L110.349 287.691C118.754 316.258 122.442 350.368 149.28 367.89C159.975 375.475 179.13 375.822 189.228 365.851C255.37 301.825 320.662 237.476 386.202 173.724C390.184 169.855 393.292 165.18 395.318 160.012C396.754 159.247 398.028 158.213 399.071 156.965C409.123 143.513 407.292 121.645 392.455 113.144C342.951 85.1324 290.215 63.2531 235.413 47.9914C207.671 39.7941 178.926 32.7325 150.457 26.2465C137.967 22.8786 125.173 20.3881 112.963 17.5706C96.2148 14.1141 80.3595 8.12638 63.28 17.1911Z" fill="#F9F9F9"/>
<path d="M127.784 148.102L125.648 143.885C124.894 142.391 124.137 140.861 123.383 139.387C122.711 138.046 121.131 136.064 122.805 134.774C123.572 134.142 124.427 134.297 125.301 134.307C125.939 134.329 126.61 134.329 127.269 134.377C128.755 134.424 130.263 134.504 131.74 134.648C134.635 134.887 137.491 135.483 140.246 136.422C140.438 136.511 140.611 136.638 140.755 136.797C140.898 136.955 141.008 137.141 141.079 137.344C141.149 137.546 141.179 137.761 141.165 137.976C141.152 138.19 141.096 138.399 141.001 138.591C140.96 138.665 140.906 138.73 140.842 138.785C140.789 139.068 140.678 139.336 140.517 139.572C137.854 143.466 135.213 147.414 132.522 151.302C132.288 151.597 131.965 151.806 131.603 151.896C131.241 151.987 130.859 151.955 130.516 151.805C129 151.175 128.485 149.469 127.784 148.102ZM136.997 138.964C135.187 138.478 133.342 138.143 131.479 137.963C130.219 137.829 128.975 137.763 127.719 137.704C127.251 137.68 126.776 137.663 126.285 137.613L126.951 138.955L128.725 142.467L130.451 145.852C130.729 146.374 130.98 146.911 131.258 147.433C133.177 144.603 135.098 141.8 136.997 138.964Z" fill="#DCDCDC"/>
<path d="M385.292 14.6753L385.362 10.2706C385.402 8.71408 385.434 7.11954 385.436 5.56499C385.46 4.18841 385.016 1.86381 386.968 1.53238C387.88 1.35719 388.516 1.86162 389.241 2.25901C389.759 2.56483 390.307 2.84339 390.833 3.19353C392.045 3.89838 393.258 4.63513 394.41 5.40706C396.7 6.89289 398.802 8.65266 400.672 10.6479C400.794 10.8059 400.882 10.9871 400.933 11.1807C400.983 11.3742 400.994 11.576 400.964 11.7738C400.935 11.9715 400.865 12.1613 400.761 12.3312C400.656 12.5012 400.518 12.6479 400.356 12.7625C400.289 12.8052 400.215 12.8352 400.138 12.8506C399.973 13.0609 399.765 13.2331 399.529 13.3555C395.624 15.3554 391.728 17.3932 387.773 19.402C387.454 19.5354 387.1 19.5613 386.765 19.4761C386.43 19.3909 386.131 19.199 385.912 18.929C384.961 17.7373 385.271 16.1156 385.292 14.6753ZM396.9 11.2976C395.615 10.0935 394.235 8.99677 392.773 8.01863C391.792 7.34662 390.801 6.7391 389.778 6.12681C389.398 5.90341 389.012 5.674 388.63 5.41871L388.606 6.79522L388.536 10.4643L388.491 14.0105C388.519 14.5528 388.459 15.1125 388.462 15.6561C391.277 14.2116 394.087 12.774 396.9 11.2976Z" fill="#DCDCDC"/>
<path d="M99.2539 122.758L95.0738 121.609C93.5939 121.201 92.083 120.795 90.5986 120.422C89.2964 120.073 86.9854 119.988 87.0754 117.874C87.0988 116.883 87.7124 116.333 88.245 115.663C88.6383 115.193 89.036 114.687 89.4615 114.235C90.3895 113.136 91.3424 112.036 92.3178 111.009C94.2107 108.963 96.3242 107.176 98.6126 105.687C98.7886 105.599 98.9794 105.55 99.1737 105.544C99.3679 105.538 99.5617 105.575 99.7432 105.653C99.9248 105.731 100.09 105.848 100.23 105.997C100.37 106.147 100.481 106.325 100.557 106.521C100.576 106.604 100.58 106.689 100.57 106.773C100.736 106.997 100.855 107.256 100.921 107.533C102.024 112.09 103.152 116.659 104.25 121.25C104.309 121.615 104.258 121.99 104.107 122.32C103.956 122.65 103.712 122.917 103.41 123.082C102.096 123.832 100.613 123.117 99.2539 122.758ZM98.4453 109.798C97.0304 110.858 95.6991 112.046 94.465 113.348C93.6186 114.218 92.8303 115.126 92.0423 116.04C91.7484 116.383 91.4559 116.753 91.1232 117.07C91.5596 117.191 91.9957 117.305 92.432 117.426L95.909 118.358C97.0406 118.661 98.1452 118.925 99.2778 119.248C99.802 119.378 100.321 119.536 100.845 119.665C100.052 116.376 99.2644 113.093 98.4453 109.798Z" fill="#FBB03B"/>
</svg>
