<svg width="373" height="392" viewBox="0 0 373 392" fill="none" xmlns="http://www.w3.org/2000/svg">
<path d="M355.542 358.806C333.685 393.901 292.629 366.963 266.111 356.602C236.259 344.351 205.536 332.396 175.335 320.771L90.4277 287.389C62.7412 276.427 29.1065 269.66 14.0923 241.343C7.50859 230.003 8.90109 210.896 19.7472 201.744C89.5095 141.684 159.517 82.5 228.953 23.0142C233.167 19.3998 238.105 16.7286 243.435 15.1797C244.327 13.8194 245.473 12.6442 246.81 11.7183C261.118 2.92901 282.73 6.73638 289.85 22.283C313.255 74.1244 330.259 128.628 340.486 184.589C346.132 212.96 350.557 242.227 354.433 271.167C356.654 283.912 357.973 296.878 359.671 309.293C361.594 326.287 366.119 342.62 355.542 358.806Z" fill="#F9F9F9"/>
<path d="M240.019 279.898L244.34 281.812C245.872 282.489 247.438 283.165 248.949 283.842C250.323 284.444 252.384 285.919 253.587 284.18C254.177 283.382 253.978 282.536 253.923 281.664C253.868 281.028 253.834 280.358 253.752 279.702C253.628 278.22 253.47 276.719 253.25 275.251C252.861 272.372 252.118 269.551 251.038 266.849C250.939 266.661 250.803 266.494 250.638 266.36C250.472 266.225 250.28 266.125 250.075 266.065C249.869 266.004 249.652 265.986 249.439 266.01C249.225 266.035 249.019 266.101 248.833 266.206C248.762 266.252 248.699 266.309 248.647 266.375C248.368 266.443 248.106 266.567 247.878 266.74C244.127 269.602 240.321 272.443 236.577 275.332C236.295 275.581 236.104 275.914 236.032 276.281C235.96 276.647 236.011 277.026 236.179 277.361C236.886 278.843 238.617 279.269 240.019 279.898ZM248.668 270.224C249.247 272.006 249.677 273.832 249.953 275.684C250.152 276.935 250.282 278.173 250.406 279.425C250.454 279.891 250.495 280.365 250.571 280.852L249.197 280.257L245.597 278.667L242.128 277.118C241.592 276.867 241.043 276.644 240.507 276.394C243.234 274.331 245.934 272.267 248.668 270.224Z" fill="#DCDCDC"/>
<path d="M359.942 15.8311L364.337 15.5329C365.89 15.4124 367.481 15.2982 369.033 15.2157C370.406 15.1206 372.751 15.4441 372.981 13.4775C373.109 12.5577 372.572 11.9487 372.138 11.2445C371.805 10.7434 371.499 10.2105 371.122 9.70299C370.355 8.52939 369.557 7.35579 368.726 6.24563C367.124 4.03582 365.258 2.0271 363.168 0.263438C363.004 0.149816 362.819 0.070498 362.623 0.0303083C362.427 -0.00988131 362.225 -0.0101024 362.029 0.0296501C361.833 0.0694026 361.647 0.1483 361.483 0.261555C361.318 0.374811 361.179 0.520058 361.073 0.68847C361.034 0.757102 361.008 0.8324 360.996 0.910502C360.795 1.08592 360.634 1.30226 360.524 1.54488C358.728 5.54781 356.895 9.5444 355.093 13.5981C354.977 13.9237 354.969 14.2781 355.072 14.6084C355.174 14.9387 355.381 15.2274 355.662 15.4314C356.901 16.3196 358.505 15.9263 359.942 15.8311ZM362.715 4.06337C363.984 5.28434 365.15 6.60613 366.203 8.01555C366.925 8.96077 367.583 9.91868 368.247 10.9083C368.49 11.2763 368.739 11.6505 369.014 12.0185L367.64 12.1136L363.98 12.3737L360.441 12.6021C359.898 12.6021 359.342 12.6909 358.799 12.7163C360.096 9.82987 361.386 6.94979 362.715 4.06337Z" fill="#DCDCDC"/>
<path d="M266.805 307.078L268.168 311.193C268.652 312.65 269.136 314.138 269.586 315.601C270.002 316.884 270.206 319.187 272.312 318.988C273.301 318.913 273.819 318.272 274.459 317.705C274.909 317.288 275.393 316.865 275.823 316.417C276.872 315.433 277.922 314.425 278.896 313.397C280.842 311.401 282.517 309.198 283.886 306.836C283.965 306.655 284.004 306.462 284 306.268C283.995 306.073 283.948 305.882 283.861 305.705C283.774 305.527 283.649 305.368 283.492 305.236C283.336 305.104 283.152 305.002 282.952 304.937C282.869 304.922 282.783 304.922 282.7 304.937C282.468 304.783 282.203 304.677 281.923 304.625C277.315 303.76 272.694 302.87 268.052 302.011C267.684 301.971 267.312 302.041 266.991 302.209C266.669 302.377 266.416 302.635 266.267 302.945C265.585 304.295 266.375 305.74 266.805 307.078ZM279.789 307.215C278.803 308.683 277.686 310.074 276.45 311.374C275.625 312.264 274.759 313.098 273.887 313.933C273.56 314.244 273.205 314.555 272.905 314.904C272.762 314.474 272.626 314.045 272.483 313.615L271.372 310.191C271.01 309.077 270.69 307.987 270.308 306.873C270.152 306.356 269.968 305.846 269.811 305.329C273.137 305.952 276.456 306.568 279.789 307.215Z" fill="#FBB03B"/>
</svg>
