<svg width="411" height="432" viewBox="0 0 411 432" fill="none" xmlns="http://www.w3.org/2000/svg">
<path d="M10.9082 350.852C27.5541 388.697 72.0231 367.868 99.7439 361.382C131.034 353.498 163.145 346.032 194.692 338.817L283.481 317.843C312.445 310.927 346.7 309.009 365.587 283.114C373.715 272.826 375.053 253.714 365.618 243.113C305.1 173.748 244.216 105.214 183.94 36.4623C180.282 32.2855 175.774 28.9397 170.719 26.649C170.029 25.1756 169.062 23.8494 167.87 22.7429C154.956 12.0091 133.022 12.7059 123.766 27.0828C93.2296 75.0711 68.6509 126.605 50.574 180.543C40.9523 207.824 32.4127 236.165 24.4623 264.26C20.4527 276.56 17.3036 289.207 13.858 301.255C9.53953 317.802 2.73941 333.326 10.9082 350.852Z" fill="#F9F9F9"/>
<path d="M144.981 293.208L140.66 295.123C139.128 295.799 137.562 296.476 136.051 297.152C134.677 297.754 132.616 299.229 131.413 297.49C130.823 296.692 131.022 295.847 131.077 294.974C131.132 294.338 131.166 293.668 131.248 293.012C131.372 291.531 131.53 290.029 131.75 288.561C132.139 285.682 132.882 282.861 133.962 280.159C134.061 279.971 134.197 279.805 134.362 279.67C134.528 279.535 134.72 279.435 134.925 279.375C135.131 279.315 135.348 279.296 135.561 279.321C135.775 279.345 135.981 279.412 136.167 279.516C136.238 279.562 136.301 279.619 136.353 279.685C136.632 279.753 136.894 279.877 137.122 280.051C140.873 282.912 144.679 285.754 148.423 288.642C148.705 288.891 148.896 289.225 148.968 289.591C149.04 289.957 148.989 290.337 148.821 290.672C148.114 292.153 146.383 292.579 144.981 293.208ZM136.332 283.535C135.753 285.317 135.323 287.143 135.047 288.994C134.848 290.245 134.718 291.483 134.594 292.735C134.546 293.202 134.505 293.675 134.429 294.162L135.803 293.567L139.403 291.977L142.872 290.428C143.408 290.178 143.957 289.954 144.493 289.704C141.766 287.641 139.066 285.578 136.332 283.535V283.535Z" fill="#DCDCDC"/>
<path d="M25.0577 29.1414L20.6626 28.8432C19.1103 28.7227 17.5195 28.6085 15.9671 28.526C14.5936 28.4309 12.2492 28.7544 12.0192 26.7878C11.8914 25.868 12.4281 25.259 12.8625 24.5548C13.1947 24.0537 13.5012 23.5208 13.8781 23.0133C14.6447 21.8397 15.4433 20.6661 16.2738 19.5559C17.8761 17.3461 19.7423 15.3374 21.8316 13.5737C21.9957 13.4601 22.1813 13.3808 22.3772 13.3406C22.573 13.3004 22.7751 13.3002 22.9711 13.34C23.167 13.3797 23.3529 13.4586 23.5173 13.5719C23.6816 13.6851 23.8209 13.8304 23.927 13.9988C23.9662 14.0674 23.9923 14.1427 24.0037 14.2208C24.2052 14.3962 24.3664 14.6126 24.4765 14.8552C26.2716 18.8581 28.105 22.8547 29.9065 26.9084C30.0232 27.234 30.0308 27.5884 29.9284 27.9187C29.8259 28.249 29.6188 28.5377 29.3379 28.7417C28.0986 29.6299 26.4951 29.2366 25.0577 29.1414ZM22.2853 17.3737C21.0163 18.5946 19.8496 19.9164 18.7971 21.3259C18.0752 22.2711 17.4173 23.229 16.7529 24.2186C16.5101 24.5866 16.261 24.9608 15.9863 25.3288L17.3597 25.4239L21.0203 25.684L24.5594 25.9124C25.1024 25.9124 25.6583 26.0012 26.2013 26.0266C24.9044 23.1402 23.6141 20.2601 22.2853 17.3737V17.3737Z" fill="#DCDCDC"/>
<path d="M118.195 320.389L116.832 324.504C116.348 325.961 115.864 327.448 115.414 328.911C114.998 330.194 114.794 332.497 112.688 332.298C111.699 332.223 111.181 331.582 110.541 331.016C110.091 330.599 109.607 330.175 109.177 329.727C108.128 328.743 107.078 327.735 106.104 326.708C104.158 324.711 102.483 322.508 101.114 320.146C101.035 319.966 100.996 319.772 101 319.578C101.005 319.384 101.052 319.192 101.139 319.015C101.226 318.838 101.351 318.678 101.508 318.546C101.664 318.414 101.848 318.313 102.048 318.247C102.131 318.233 102.217 318.233 102.3 318.247C102.532 318.093 102.797 317.987 103.077 317.936C107.685 317.07 112.306 316.18 116.948 315.321C117.316 315.282 117.688 315.351 118.009 315.519C118.331 315.687 118.584 315.945 118.733 316.255C119.415 317.606 118.625 319.05 118.195 320.389ZM105.211 320.526C106.197 321.993 107.314 323.384 108.55 324.684C109.375 325.575 110.241 326.409 111.113 327.243C111.44 327.554 111.795 327.866 112.095 328.214C112.238 327.785 112.374 327.355 112.517 326.925L113.628 323.501C113.99 322.387 114.31 321.298 114.692 320.183C114.848 319.666 115.032 319.156 115.189 318.639C111.863 319.262 108.544 319.878 105.211 320.526Z" fill="#FBB03B"/>
</svg>
