<svg width="190" height="212" viewBox="0 0 190 212" fill="none" xmlns="http://www.w3.org/2000/svg">
<path d="M134.152 80.1099C136.564 59.8592 121.091 32.2781 98.3001 33.2657C93.2812 33.4793 87.3413 36.1111 83.4709 39.2858C78.7984 43.1041 76.9349 48.7957 75.9085 54.5431C74.8497 60.4702 74.1267 66.336 74.706 72.363C75.3427 78.8905 76.5854 85.4015 77.6059 91.8905C78.6715 98.6152 88.9656 96.2272 87.9122 89.5142C86.418 80.0057 84.2523 70.5959 85.5381 60.9503C86.0444 57.0974 86.4223 52.4135 88.6759 49.1218C90.6786 46.2027 95.6792 43.9186 99.1714 43.8061C115.716 43.2897 125.213 66.0391 123.554 79.7452C122.745 86.494 133.35 86.837 134.152 80.1099Z" fill="#FBB03B"/>
<path d="M139.005 164.658C139.425 159.584 139.336 154.548 140.304 149.519C141.369 144.005 143.069 138.634 144.507 133.213C145.681 128.793 147.616 123.582 145.543 119.146C143.471 114.71 138.66 113.319 134.35 112.172C122.594 109.056 110.433 107.872 98.3614 106.628C92.0907 105.96 85.796 105.293 79.5814 104.192C73.3669 103.091 67.128 101.231 60.8652 99.8534C56.1783 98.8257 53.2036 103.617 54.2671 107.002C51.9779 117.717 49.8119 128.451 47.7687 139.205C46.7592 144.586 45.7848 149.972 44.8456 155.365C43.923 160.678 42.2707 166.427 42.174 171.832C42.0991 176.508 45.2299 179.581 49.3814 181.083C54.7741 183.043 60.5828 184.278 66.1101 185.782C77.1132 188.767 88.1664 191.592 99.27 194.256C108.839 196.547 120.288 201.56 128.397 193.347C131.705 189.997 133.46 185.49 135.075 181.152C137.133 175.86 138.456 170.31 139.005 164.658Z" fill="#00A99D"/>
<path d="M97.1064 156.653C96.1447 159.43 95.7031 162.543 93.0598 164.321C90.553 165.991 87.2705 164.468 84.6699 163.752C83.714 163.453 82.9156 162.787 82.4506 161.9C81.9856 161.013 81.8921 159.978 82.1905 159.022C82.2071 158.956 82.2274 158.891 82.2512 158.828C82.263 158.417 82.3364 158.011 82.4691 157.622C83.6041 154.29 85.0543 150.201 84.5246 146.626C84.0748 143.606 80.5283 142.65 79.9559 139.338C78.3943 130.299 87.7894 124.379 95.7167 126.608C99.4802 127.583 102.745 129.925 104.875 133.177C107.005 136.429 107.846 140.358 107.236 144.198C106.349 150.028 102.736 155.673 97.1064 156.653Z" fill="white"/>
<path d="M81.6343 89.3508C82.6927 88.6211 81.5049 89.5873 81.2681 89.814L80.7382 90.3209L80.7815 90.3344C92.6348 93.5197 104.457 96.8298 116.164 100.507C122.864 102.598 129.51 104.833 136.104 107.213C138.386 108.036 139.511 104.432 137.229 103.609C125.142 99.2432 112.885 95.4257 100.54 91.8893C94.8577 90.2581 89.1543 88.6679 83.4303 87.1187C83.0689 88.026 82.4433 88.8037 81.6343 89.3508Z" fill="black"/>
<path d="M135.663 162.16C138.654 146.314 143.488 130.901 146.945 115.161C147.327 113.429 147.773 111.622 147.359 109.856C147.191 108.972 146.737 108.168 146.066 107.568C145.395 106.968 144.545 106.606 143.648 106.538C141.626 106.452 139.975 107.812 138.407 108.857L133.14 112.427C132.946 112.476 132.764 112.561 132.602 112.678C132.474 112.595 132.336 112.525 132.192 112.471C111.787 104.868 90.8301 98.8352 69.5053 94.4255C64.4822 93.3851 59.44 92.439 54.3791 91.5873C55.6088 90.1218 56.9168 88.7238 58.2971 87.3991C58.9799 86.6117 59.8435 86.0017 60.8138 85.6214C61.9945 85.2858 63.3194 85.7546 64.4597 86.0552L70.9225 87.7558C70.6722 87.0846 70.5294 86.3778 70.4998 85.662C70.492 85.0269 70.5496 84.3926 70.6714 83.7693C68.7557 83.2664 66.8399 82.7635 64.927 82.2772C63.3739 81.7783 61.7254 81.6513 60.1142 81.9063C58.6236 82.3161 57.2662 83.1088 56.1769 84.2057C53.7342 86.4915 51.4986 88.9892 49.4965 91.6693C49.2634 91.9718 49.1461 92.3476 49.1657 92.729C49.1064 92.8548 49.0648 92.9883 49.042 93.1255L37.3073 152.751L33.9588 169.79C33.8236 170.268 33.877 170.78 34.1076 171.22C34.3382 171.66 34.7286 171.994 35.1986 172.155C35.7041 172.293 36.2434 172.228 36.7023 171.976L95.649 189.534L112.405 194.527C112.832 194.664 113.295 194.637 113.703 194.449C113.854 194.712 114.072 194.929 114.335 195.08C114.599 195.23 114.897 195.307 115.2 195.304C121.584 194.876 126.869 190.537 129.876 185.06C133.716 178.078 134.208 169.862 135.663 162.16ZM54.2925 173.281L38.0796 168.45C41.8263 149.399 45.5753 130.349 49.3268 111.299L52.5117 95.0866C73.311 98.5583 93.8235 103.572 113.879 110.086C119.657 111.969 125.395 113.971 131.094 116.092C131.18 116.127 131.27 116.155 131.361 116.175C126.298 135.691 121.43 155.268 116.757 174.905C115.497 180.208 114.255 185.516 113.029 190.829L54.2925 173.281ZM128.093 180.001C126.237 184.96 122.263 190.214 116.779 191.335C121.395 171.474 126.206 151.658 131.211 131.887C132.607 126.4 134.019 120.916 135.445 115.433L138.946 113.06L141.115 111.586C141.735 111.056 142.439 110.634 143.198 110.337C143.314 110.318 143.433 110.312 143.551 110.321C143.57 110.338 143.582 110.362 143.586 110.387C143.57 110.437 143.654 110.574 143.652 110.581C143.723 110.834 143.758 111.095 143.758 111.358C143.667 112.816 143.408 114.259 142.985 115.658C141.358 122.847 139.47 129.987 137.622 137.124C135.775 144.26 133.954 151.413 132.526 158.649C131.785 162.318 131.194 166.01 130.589 169.697C130.093 173.21 129.255 176.666 128.088 180.016L128.093 180.001Z" fill="black"/>
<path d="M83.6578 163.396L83.6009 163.426L83.7475 163.361L83.6578 163.396Z" fill="black"/>
<path d="M103.571 143.062C104.047 140.851 103.92 138.552 103.206 136.406C102.491 134.26 101.214 132.345 99.5078 130.861C94.7111 126.611 88.2468 125.93 82.1308 126.845C81.6575 126.958 81.2453 127.247 80.9797 127.655C80.7141 128.062 80.6156 128.556 80.704 129.034C80.5479 128.651 80.2501 128.343 79.8728 128.174C79.4955 128.005 79.0677 127.987 78.6778 128.125C76.742 128.643 74.9839 129.679 73.593 131.121C72.2021 132.564 71.231 134.358 70.7841 136.312C70.3371 138.265 70.4313 140.303 71.0566 142.207C71.6819 144.111 72.8148 145.808 74.3329 147.116C74.8215 147.555 75.3513 147.946 75.9149 148.282C76.1493 148.419 76.3881 148.541 76.6341 148.665C76.6918 148.683 76.9604 148.862 77.1289 148.93C77.1261 148.95 77.12 148.97 77.1109 148.988C77.0636 149.139 77.0882 149.313 77.0721 149.466C77.0326 149.897 76.9931 150.328 76.9464 150.756C76.853 151.613 76.7503 152.475 76.6353 153.325C76.1176 157.066 75.3631 160.77 74.3764 164.415C74.2595 164.81 74.2717 165.231 74.4115 165.617C74.5513 166.004 74.8115 166.336 75.1535 166.564C77.889 168.003 80.797 169.086 83.8069 169.787C84.9967 170.056 86.4263 170.494 87.6525 170.291C89.3625 170.034 89.9492 168.635 90.3546 167.108L92.6442 158.48C93.0293 157.018 93.3935 155.597 93.7863 154.161C93.9348 153.685 93.9272 153.279 94.3862 153.051C94.8451 152.822 95.4445 152.7 95.9517 152.495C97.8853 151.649 99.587 150.35 100.913 148.709C102.239 147.067 103.151 145.13 103.571 143.062ZM79.6618 145.884C79.605 145.914 79.5604 145.955 79.5036 145.985C78.8547 145.529 78.0869 145.226 77.4164 144.764C76.1538 143.858 75.2072 142.579 74.7101 141.107C74.213 139.635 74.1906 138.043 74.6457 136.558C75.0202 135.475 75.6357 134.492 76.446 133.683C77.2564 132.874 78.2404 132.26 79.3232 131.887C78.0066 133.691 77.2708 135.854 77.2139 138.087C77.2024 139.489 77.4879 140.878 78.0511 142.162C78.6142 143.446 79.4424 144.597 80.4815 145.539L79.6618 145.884ZM81.0545 160.558C80.4933 160.937 79.9691 161.375 79.4349 161.793C79.2773 161.918 79.1197 162.043 78.9571 162.158L79.0043 162.133C78.9386 162.17 78.8755 162.211 78.8156 162.256C78.862 162.233 78.9057 162.204 78.9456 162.171L78.8086 162.254C79.2647 160.261 79.6844 158.256 80.0229 156.233C80.2839 154.654 80.5146 153.07 80.715 151.481C80.7859 150.823 80.9016 150.124 80.936 149.43C81.1086 149.398 81.2756 149.34 81.432 149.261L83.0047 148.581C83.4889 152.284 82.9068 156.049 81.3266 159.433C81.1572 159.779 81.0659 160.158 81.059 160.544L81.0545 160.558ZM86.6155 166.542C86.1843 166.479 85.755 166.384 85.3256 166.29C83.9457 165.992 82.5872 165.603 81.2594 165.124L81.648 164.841C81.9587 164.606 82.2595 164.352 82.5725 164.109L83.0176 163.774L83.2063 163.651C83.3324 163.573 83.4627 163.503 83.5964 163.44C83.5964 163.44 83.5965 163.44 83.6532 163.41L83.8354 163.333L83.7241 163.385L83.7674 163.398L83.9127 163.365L84.0567 163.41C85.1164 163.741 86.145 164.323 87.2707 164.112C87.1042 164.646 86.9833 165.186 86.8456 165.728C86.7736 165.959 86.6994 166.197 86.6206 166.449C86.599 166.505 86.581 166.563 86.5666 166.622L86.6155 166.542ZM94.6807 148.989C93.8206 149.273 92.9825 149.619 92.1734 150.026C90.8853 150.858 90.4524 152.195 90.0831 153.606C89.4681 155.906 88.858 158.216 88.243 160.516C88.0462 160.361 87.8144 160.259 87.5681 160.216C87.3217 160.174 87.0685 160.193 86.8316 160.273L86.7459 160.294C86.5585 160.235 86.3638 160.174 86.1764 160.116C85.8668 159.98 85.5487 159.865 85.224 159.771C86.8887 155.57 87.3272 150.983 86.4886 146.543C86.4136 146.199 86.235 145.887 85.977 145.648C86.061 145.219 85.9763 144.774 85.7405 144.405C85.5048 144.037 85.1362 143.774 84.7114 143.671C83.5735 143.353 82.5967 142.619 81.9752 141.614C81.2881 140.542 80.9433 139.287 80.9865 138.014C81.1273 135.029 83.2982 132.407 85.7628 130.898C86.0224 130.73 86.2464 130.512 86.4217 130.257C89.7748 130.089 93.0947 130.99 95.9033 132.829C97.3614 133.772 98.5204 135.111 99.2453 136.69C99.9701 138.268 100.231 140.02 99.9965 141.741C99.7646 143.287 99.1599 144.753 98.2345 146.014C97.3091 147.274 96.091 148.29 94.6852 148.975L94.6807 148.989Z" fill="black"/>
<path d="M41.3169 177.569L34.6181 175.763C33.5789 175.526 32.5559 175.222 31.5553 174.855C30.9465 174.63 30.419 174.229 30.0406 173.702C29.8953 173.452 29.8013 173.175 29.7643 172.888C29.7153 172.56 29.7052 172.227 29.7335 171.897C29.7757 171.134 29.9127 170.38 30.1417 169.651C30.705 167.517 31.3306 165.386 31.9321 163.256C32.5894 160.922 28.9801 159.788 28.3277 162.131C27.6753 164.475 26.9543 166.734 26.4019 169.061C25.9044 171.137 25.6314 173.457 26.7057 175.414C27.9012 177.591 30.2201 178.449 32.4818 179.06L40.2032 181.138C40.6812 181.287 41.1987 181.24 41.6421 181.007C42.0856 180.775 42.4187 180.376 42.5679 179.898C42.717 179.42 42.6701 178.902 42.4376 178.459C42.2051 178.015 41.8061 177.682 41.3281 177.533L41.3169 177.569Z" fill="black"/>
<path d="M140.972 177.06C141.105 176.582 141.051 176.071 140.821 175.632C140.591 175.192 140.201 174.857 139.732 174.695C139.254 174.548 138.738 174.596 138.295 174.828C137.852 175.06 137.519 175.458 137.368 175.935C136.19 182.365 133.031 188.267 128.334 192.814C126.582 194.498 129.127 197.294 130.879 195.609C136.083 190.62 139.609 184.139 140.972 177.06Z" fill="black"/>
<path d="M131.41 65.4495C130.403 59.9299 129.116 54.3465 126.791 49.2225C123.055 40.8898 116.332 34.2588 107.949 30.6367C103.865 28.9106 99.4575 28.0819 95.0251 28.2067C90.5928 28.3315 86.2387 29.4069 82.2579 31.3601C78.2473 33.3117 74.7435 36.166 72.0212 39.6992C69.1907 43.583 67.3069 48.0744 66.5197 52.8153C65.673 58.172 65.5296 63.6166 66.0931 69.0105C66.628 75.3332 67.4928 81.6236 68.6839 87.8561C68.7196 88.0319 68.7748 88.2029 68.8488 88.3663C68.7611 88.6853 68.7446 89.0197 68.7999 89.3459C68.8553 89.6721 68.9812 89.982 69.1693 90.2542C70.107 91.6703 71.4391 92.7807 73.0009 93.4481C74.5627 94.1155 76.2859 94.3107 77.9574 94.0096C79.0359 93.7729 80.0614 93.3393 80.9828 92.7308C83.3645 91.2551 85.0629 88.8944 85.7051 86.1672C86.6009 82.8156 86.0487 79.3129 85.6159 75.9343C85.1415 72.2157 84.8088 68.4834 84.6174 64.7371C84.3671 61.6994 84.4766 58.6426 84.9437 55.6305C85.3207 52.9923 86.5524 50.5505 88.4501 48.6795C90.3774 46.97 92.7844 45.8954 95.3439 45.6018C100.805 44.9331 105.953 47.6788 109.4 51.7924C114.274 57.6174 115.606 65.3426 115.736 72.7564C115.771 73.1397 115.921 73.5036 116.165 73.8012C116.409 74.0988 116.737 74.3163 117.106 74.4258L117.192 74.4529C117.627 74.7072 118.041 74.9788 118.45 75.2647C118.18 75.2989 117.919 75.3861 117.682 75.5213C117.446 75.6565 117.238 75.837 117.072 76.0525C116.905 76.2681 116.783 76.5145 116.712 76.7775C116.641 77.0404 116.622 77.3148 116.658 77.5849C116.668 77.6427 116.682 77.6998 116.699 77.756C116.712 77.9684 116.753 78.1782 116.821 78.3796C116.925 78.681 117.028 78.9823 117.122 79.2647C117.19 79.4215 117.24 79.5855 117.27 79.7538L117.198 79.502L117.276 79.7871C117.428 80.3622 117.55 80.9619 117.64 81.5859C117.73 82.21 117.804 82.8184 117.861 83.4112C117.888 83.7045 117.901 83.9932 117.912 84.2892L117.925 84.7284L117.922 84.8621L117.909 84.9054L117.889 84.9703C117.849 85.4923 117.995 86.0114 118.301 86.4361C118.636 86.8521 119.113 87.1303 119.64 87.2176C119.798 87.2278 119.957 87.2272 120.115 87.2157C120.224 87.22 120.334 87.2172 120.442 87.2072C124.252 86.7472 128.031 86.0643 131.76 85.1623C132.045 85.1597 132.326 85.0968 132.584 84.9779C132.843 84.859 133.073 84.6867 133.26 84.4724C133.448 84.2581 133.587 84.0067 133.67 83.7345C133.753 83.4623 133.778 83.1755 133.742 82.8932C133.122 77.0987 132.474 71.2402 131.41 65.4495ZM129.433 81.5169C126.95 82.071 124.448 82.5267 121.926 82.8841C121.817 81.6035 121.61 80.3329 121.308 79.0838C122.161 78.9109 123.002 78.6817 123.824 78.3976C124.113 78.2771 124.37 78.091 124.574 77.8541C124.779 77.6172 124.925 77.336 125.002 77.0327C125.098 76.7241 125.117 76.3968 125.058 76.0791C124.998 75.7614 124.862 75.463 124.661 75.2098C123.861 74.3347 122.997 73.5202 122.076 72.773C121.361 72.2158 120.611 71.7043 119.832 71.242C119.626 64.2954 118.178 57.2773 114.276 51.3763C110.887 46.2918 105.451 42.1901 99.2699 41.4635C93.0888 40.7368 86.4933 43.1876 83.2314 48.5696C79.6521 54.4616 80.2127 61.7406 80.6763 68.3406C80.986 72.6459 81.7823 76.9132 82.0131 81.2176C82.0938 82.4917 81.9926 83.7707 81.7133 85.0164C81.4406 85.1761 81.2055 85.3926 81.0238 85.6512C80.8421 85.9098 80.7182 86.2043 80.6603 86.515C80.6603 86.515 80.6108 86.6737 80.5816 86.7674L80.5118 86.9909C80.4108 87.246 80.2959 87.4952 80.1678 87.7378L80.134 87.8461C80.0551 87.9638 79.9716 88.0802 79.883 88.1949C79.7994 88.3117 79.7088 88.4233 79.6121 88.5295L79.5 88.6608C79.3122 88.8316 79.115 89.0073 78.9173 89.1592C78.795 89.2324 78.6687 89.2987 78.539 89.3576C78.3767 89.4328 78.223 89.5252 78.0808 89.6338C77.9617 89.695 77.8392 89.7493 77.7138 89.7962L77.5338 89.8665L77.2531 89.9293C76.9675 89.9826 76.6882 89.9903 76.431 90.0287C76.1738 90.0671 76.0817 90.0067 75.9069 89.9838L75.5525 89.9286L75.2424 89.8318C75.0374 89.7796 74.8354 89.7166 74.637 89.6428L74.2369 89.4546L74.1503 89.4276C73.9106 89.2578 73.6614 89.0931 73.4357 88.904L73.1949 88.6865L73.0584 88.541C72.9728 88.4352 72.8987 88.3171 72.8203 88.2135C72.881 87.9303 72.8838 87.6379 72.8279 87.3537C71.8304 82.0584 71.0446 76.7185 70.5043 71.3523C69.96 66.8494 69.826 62.3061 70.1045 57.7789C70.3573 53.369 71.5145 49.0581 73.5037 45.1142C75.4012 41.6532 78.1403 38.7263 81.4681 36.6037C84.7581 34.4766 88.4774 33.1026 92.3603 32.5803C96.2431 32.0581 100.193 32.4004 103.929 33.5827C111.58 36.1196 117.984 41.4657 121.846 48.5412C124.64 53.7088 126.086 59.4683 127.166 65.2325C128.179 70.5561 128.822 76.0494 129.433 81.5169Z" fill="black"/>
<path d="M154.683 80.3313C148.48 83.432 142.098 86.1582 135.569 88.495C135.089 88.6206 134.675 88.9247 134.412 89.3453C134.148 89.7658 134.055 90.271 134.151 90.7579C134.267 91.244 134.569 91.6652 134.992 91.9305C135.415 92.1959 135.926 92.2842 136.414 92.1762C143.263 89.7478 149.96 86.9111 156.469 83.6815C158.615 82.5869 156.864 79.248 154.683 80.3313Z" fill="black"/>
<path d="M155.199 94.3922C150.7 93.3326 146.045 93.0968 141.461 93.6961C140.975 93.8116 140.554 94.1136 140.288 94.537C140.023 94.9604 139.935 95.4712 140.043 95.959C140.165 96.4413 140.469 96.8575 140.892 97.1206C141.314 97.3836 141.822 97.4731 142.308 97.3701C146.237 96.8971 150.218 97.109 154.074 97.9965C154.552 98.1336 155.065 98.0814 155.505 97.8505C155.945 97.6197 156.28 97.2279 156.439 96.7568C156.582 96.2788 156.532 95.7639 156.3 95.322C156.069 94.8801 155.674 94.5464 155.199 94.3922Z" fill="#FBB03B"/>
<path d="M167.958 108.54C161.665 104.827 154.822 102.139 147.684 100.575C147.207 100.44 146.695 100.493 146.255 100.723C145.815 100.954 145.48 101.345 145.32 101.815C145.175 102.293 145.223 102.808 145.455 103.251C145.687 103.693 146.084 104.027 146.56 104.179C153.371 105.645 159.905 108.189 165.915 111.715C168.007 112.946 170.065 109.775 167.958 108.54Z" fill="black"/>
<path d="M132.588 94.4233C132.598 94.0959 132.524 93.7714 132.372 93.4813C132.22 93.1912 131.995 92.9454 131.72 92.768L131.085 92.3958C131.184 92.1774 131.256 91.9474 131.298 91.711C131.35 91.5452 131.363 91.3753 131.384 91.2077C131.4 90.716 131.223 90.2375 130.89 89.8749C130.601 89.5694 130.219 89.3669 129.804 89.2986C129.369 89.227 128.922 89.3104 128.541 89.5341C128.161 89.7579 127.87 90.1078 127.721 90.5233L127.656 90.5031L127.57 90.3496C127.329 89.9256 126.935 89.609 126.47 89.4637C126.004 89.3183 125.501 89.3551 125.061 89.5666C124.677 89.6069 124.317 89.7724 124.036 90.0377C123.739 90.3216 123.54 90.6932 123.469 91.0981C123.398 91.503 123.459 91.9201 123.642 92.2881L124.416 93.6609L124.07 93.8061C123.85 93.9093 123.661 94.0686 123.523 94.2681C123.351 94.4527 123.223 94.6735 123.147 94.9143C123.072 95.1551 123.052 95.4097 123.088 95.6593C123.089 95.9023 123.154 96.1409 123.276 96.3509C123.509 96.7956 123.907 97.1304 124.386 97.2825L124.882 97.3661C125.211 97.377 125.537 97.3016 125.828 97.1473L126.795 96.7369L126.781 96.7802C126.898 97.2654 127.201 97.6853 127.624 97.9503C128.046 98.2153 128.556 98.3046 129.044 98.1986C129.457 98.0927 129.824 97.8539 130.089 97.5192C130.353 97.1844 130.501 96.7721 130.509 96.3455C130.852 96.2861 131.188 96.1924 131.513 96.0658C131.827 95.9182 132.093 95.6867 132.283 95.3967C132.473 95.1067 132.578 94.7697 132.588 94.4233Z" fill="#00A99D"/>
<path d="M59.7928 78.2461C59.8458 78.2827 59.9087 78.3023 59.973 78.3023L59.7928 78.2461Z" fill="black"/>
<path d="M62.631 75.5402C61.5664 74.7943 60.3271 74.3359 59.0333 74.2093C57.7396 74.0827 56.4352 74.2922 55.2461 74.8175C54.0496 75.3979 53.0091 76.2558 52.2109 77.3195C52.0195 77.5525 51.8301 77.7782 51.6459 78.0134L51.3381 78.3919L51.3246 78.4352C51.135 78.6371 50.9547 78.834 50.7462 79.0458C50.6476 79.1337 50.5469 79.2288 50.4411 79.3144L50.3374 79.3928L50.2784 79.4298C49.8443 79.6678 49.5212 80.0668 49.3784 80.5408C49.2357 81.0149 49.2851 81.5261 49.5156 81.9642C49.746 82.4023 50.1393 82.7324 50.6108 82.8833C51.0823 83.0342 51.594 82.9938 52.0361 82.7709C53.1184 82.0414 54.0665 81.1302 54.8385 80.0777L55.0976 79.7551C55.0976 79.7551 55.2215 79.612 55.2751 79.5417L55.3615 79.4419L55.6445 79.1426C55.8391 78.9502 56.046 78.7696 56.2527 78.5889C56.3518 78.5249 56.4509 78.4608 56.555 78.4063C56.659 78.3517 56.7726 78.2923 56.8816 78.2473L57 78.1971C57.1824 78.1196 57.1469 78.1323 56.8861 78.2328C56.9018 78.1824 57.4919 78.0659 57.5347 78.0556L57.9036 77.9888L57.9963 77.9702L58.5768 77.9853L58.9476 78.0139C59.1802 78.0706 59.4091 78.142 59.6326 78.2277L59.7839 78.2749C59.7479 78.2636 59.7839 78.2749 59.9497 78.3266C60.1637 78.4489 60.3697 78.5845 60.5666 78.7328C60.9869 79.0025 61.4972 79.0946 61.9853 78.989C62.4735 78.8834 62.9001 78.5886 63.1713 78.1692C63.4392 77.7463 63.5325 77.2361 63.4318 76.7458C63.331 76.2554 63.0439 75.8232 62.631 75.5402Z" fill="#00A99D"/>
<path d="M114.044 26.3683C107.384 22.8926 99.9016 21.3013 92.4038 21.7661C91.9065 21.7636 91.4272 21.9514 91.0638 22.291C90.7004 22.6306 90.4804 23.0964 90.4493 23.5928C90.4359 24.0918 90.6191 24.5759 90.9594 24.9411C91.2998 25.3063 91.7702 25.5233 92.2689 25.5451C99.0876 25.0565 105.91 26.4391 112.001 29.5438C112.426 29.8 112.933 29.8836 113.418 29.7774C113.903 29.6713 114.328 29.3834 114.608 28.9729C114.873 28.5514 114.963 28.0425 114.858 27.5555C114.752 27.0685 114.46 26.6422 114.044 26.3683Z" fill="#00A99D"/>
<path d="M106.952 17.6363C106.839 17.4147 106.682 17.2184 106.491 17.0595C106.3 16.9005 106.078 16.7822 105.84 16.7118C103.628 16.2611 101.391 15.9459 99.1409 15.7681C98.6419 15.7547 98.1578 15.9381 97.7926 16.2784C97.4274 16.6188 97.2104 17.0888 97.1886 17.5875C97.1824 18.086 97.3689 18.5675 97.7093 18.9317C98.0496 19.2958 98.5175 19.5146 99.0152 19.542C100.558 19.6676 102.081 19.858 103.586 20.1062L104.708 20.3139C105.189 20.4455 105.702 20.3975 106.15 20.1787C106.592 19.946 106.924 19.5476 107.073 19.0706C107.222 18.5936 107.176 18.0769 106.944 17.634L106.952 17.6363Z" fill="black"/>
<path d="M36.9697 119.309C34.2947 116.92 31.4047 114.784 28.3366 112.928C28.1281 112.794 27.8954 112.702 27.6515 112.658C27.4075 112.613 27.157 112.618 26.9147 112.67C26.6724 112.723 26.4431 112.823 26.2394 112.964C26.0357 113.105 25.8617 113.285 25.7275 113.494C25.5934 113.702 25.5014 113.935 25.4572 114.179C25.4131 114.423 25.4174 114.673 25.4699 114.916C25.5225 115.158 25.6223 115.388 25.7636 115.591C25.9049 115.795 26.0849 115.969 26.2934 116.103C27.7335 116.964 29.137 117.892 30.4888 118.884C31.1287 119.368 31.8096 119.874 32.4549 120.392L33.399 121.169L33.6294 121.367L34.1834 121.849C34.3457 122.047 34.5466 122.211 34.7742 122.329C35.0019 122.448 35.2512 122.518 35.507 122.537C35.7629 122.556 36.02 122.522 36.2625 122.439C36.5049 122.355 36.7278 122.222 36.9174 122.049C37.1069 121.877 37.2595 121.667 37.3654 121.433C37.4712 121.2 37.5282 120.947 37.5331 120.69C37.538 120.434 37.4906 120.179 37.3937 119.942C37.2968 119.704 37.1525 119.489 36.9697 119.309Z" fill="black"/>
<path d="M35.8078 126.454C29.5917 124.372 23.258 122.66 16.84 121.325C16.3621 121.19 15.8503 121.243 15.4104 121.473C14.9705 121.704 14.636 122.095 14.4754 122.565C14.3303 123.043 14.3789 123.558 14.6108 124.001C14.8427 124.443 15.2395 124.777 15.7151 124.929C22.1331 126.264 28.4667 127.977 34.6829 130.058C36.9884 130.833 38.1133 127.229 35.8078 126.454Z" fill="#00A99D"/>
<path d="M36.0037 135.786C36.0075 135.29 35.8208 134.812 35.4818 134.45C35.1427 134.088 34.6774 133.87 34.1822 133.841C31.3423 133.467 28.4767 133.324 25.6136 133.414C25.1169 133.411 24.6383 133.6 24.2771 133.941C23.9158 134.282 23.6998 134.749 23.6735 135.245C23.6635 135.744 23.8494 136.227 24.1912 136.591C24.533 136.955 25.0036 137.171 25.5024 137.192C28.3655 137.102 31.2311 137.245 34.071 137.62C34.5696 137.63 35.0519 137.443 35.4137 137.1C35.7755 136.757 35.9874 136.285 36.0037 135.786Z" fill="black"/>
<path d="M82.3832 23.9629C81.8814 20.4117 81.0529 16.9144 79.9084 13.5154C79.762 13.0365 79.4313 12.6353 78.9891 12.4001C78.547 12.165 78.0296 12.115 77.5507 12.2614C77.0717 12.4077 76.6704 12.7385 76.4352 13.1806C76.2 13.6228 76.1504 14.1402 76.2968 14.6192C76.8361 16.2115 77.3137 17.8241 77.7058 19.4575C77.898 20.2611 78.0737 21.0674 78.2325 21.8764C78.312 22.2809 78.375 22.7121 78.4562 23.0855L78.4977 23.3832C78.5406 23.626 78.5764 23.8667 78.6121 24.1072C78.6428 24.6031 78.8633 25.068 79.2278 25.4057C79.5923 25.7433 80.0728 25.9279 80.5697 25.9207C81.0676 25.8955 81.536 25.6765 81.8748 25.3107C82.2136 24.945 82.3961 24.4613 82.3832 23.9629Z" fill="black"/>
<path d="M76.8874 28.6713C73.4907 23.0806 69.7702 17.693 65.7451 12.5362C65.468 12.1249 65.0437 11.8352 64.5596 11.7268C64.0756 11.6184 63.5685 11.6995 63.1424 11.9533C62.7227 12.2253 62.4264 12.6509 62.317 13.1389C62.2076 13.6268 62.2938 14.1383 62.5573 14.5633C66.5866 19.717 70.3073 25.1048 73.6995 30.6984C74.9576 32.7761 78.1455 30.749 76.8874 28.6713Z" fill="black"/>
<path d="M71.0053 35.9332C71.329 35.5561 71.4959 35.0692 71.4712 34.5729C71.4465 34.0766 71.2325 33.6086 70.873 33.2654C68.9479 31.1551 66.856 29.2033 64.6176 27.4288C64.4337 27.2624 64.2187 27.1337 63.9852 27.0503C63.7516 26.9669 63.5037 26.9301 63.2559 26.9425C63.0082 26.9548 62.7655 27.0158 62.5413 27.1219C62.3171 27.2281 62.116 27.3774 61.9495 27.5613C61.7831 27.7451 61.6545 27.9599 61.5711 28.1935C61.4876 28.4271 61.451 28.6748 61.4633 28.9225C61.4756 29.1703 61.5365 29.4132 61.6427 29.6373C61.7488 29.8615 61.8983 30.0627 62.0822 30.2292C64.3207 32.0036 66.4126 33.9554 68.3376 36.0657C68.7106 36.3984 69.1996 36.571 69.6988 36.5462C70.198 36.5214 70.6671 36.3012 71.0053 35.9332Z" fill="#FBB03B"/>
</svg>
