<svg width="213" height="203" viewBox="0 0 213 203" fill="none" xmlns="http://www.w3.org/2000/svg">
<path d="M9.21124 24.9916C1.67716 39.4178 -1.34127 55.7774 0.548572 71.9424C2.43841 88.1073 9.14906 103.329 19.8076 115.629C22.3217 118.553 27.0705 114.902 24.5564 111.904C14.5253 100.431 8.22002 86.1784 6.47717 71.0382C4.73432 55.8981 7.63631 40.5858 14.7981 27.1332C14.9436 26.7664 15.0154 26.3745 15.0095 25.9799C15.0035 25.5853 14.9199 25.1957 14.7634 24.8334C14.6069 24.4712 14.3806 24.1432 14.0974 23.8684C13.8141 23.5936 13.4796 23.3773 13.1127 23.2318C12.7459 23.0863 12.354 23.0144 11.9594 23.0204C11.5648 23.0263 11.1752 23.1099 10.8129 23.2664C10.4506 23.4229 10.1227 23.6492 9.84791 23.9325C9.57309 24.2157 9.35675 24.5503 9.21124 24.9171" fill="#1E1E1E"/>
<path d="M211.883 66.055C208.939 55.7745 202.794 46.7003 194.341 40.1507C193.709 39.718 192.937 39.5415 192.18 39.657C191.423 39.7726 190.739 40.1715 190.265 40.773C189.791 41.3744 189.564 42.1335 189.629 42.8963C189.695 43.6591 190.047 44.3685 190.616 44.8809C198.228 50.8143 203.737 59.0319 206.334 68.327C206.639 69.0599 207.22 69.6438 207.951 69.9536C208.682 70.2635 209.505 70.2745 210.245 69.9844C210.966 69.6606 211.537 69.0741 211.842 68.3441C212.146 67.6141 212.161 66.7956 211.883 66.055Z" fill="#FBB03B"/>
<path d="M156.499 24.7682C180.448 41.6405 200.114 63.5595 204.676 89.948C209.239 116.336 198.624 147.046 177.245 168.294C155.866 189.543 123.984 201.145 100.109 193.491C76.2348 185.837 60.4799 158.983 44.4085 131.533C28.337 104.083 12.3773 76.7444 17.6103 52.1623C22.8433 27.5802 49.7532 6.03366 77.2032 1.13586C104.653 -3.76194 132.774 7.97043 156.555 24.7682" fill="#00A99D"/>
<path d="M37.9471 129.485L37.9549 129.477L37.9626 129.468C47.5787 118.978 58.2978 112.452 69.2959 112.495C80.5836 112.54 93.849 119.537 102.514 131.261C106.793 137.049 109.821 143.863 111.176 150.415C112.547 157.045 112.091 162.784 110.233 166.857C108.428 170.813 104.803 174.263 99.1013 177.59C93.3639 180.939 86.4006 183.679 78.6836 186.717C71.0123 189.736 63.9552 192.457 57.355 193.89C50.7906 195.315 45.535 195.259 41.2444 193.522C36.8738 191.753 32.4398 187.739 28.9204 182.082C25.4325 176.476 23.2353 169.865 22.8615 163.74C22.1278 151.716 28.4122 139.823 37.9471 129.485Z" stroke="#80D4CE" stroke-width="15"/>
</svg>
