<svg width="228" height="207" viewBox="0 0 228 207" fill="none" xmlns="http://www.w3.org/2000/svg">
<path d="M129.168 25.8998C157.437 29.3264 184.161 39.3641 199.637 60.892C215.112 82.42 219.097 115.177 209.656 144.695C200.214 174.212 177.308 200.395 153.098 205.237C128.889 210.079 103.357 193.747 77.4151 176.987C51.4735 160.226 25.5692 143.465 19.5168 118.772C13.4644 94.0778 27.6364 61.5066 49.4809 43.6287C71.3255 25.7508 101.066 22.4918 129.168 25.8998Z" fill="#FBB03B"/>
<path d="M81.4913 24.4821L81.5037 24.4955L81.516 24.509C91.0719 34.8509 97.3642 46.7376 96.6162 58.75C96.2344 64.8814 94.0349 71.4958 90.5487 77.1028C87.0308 82.7607 82.6015 86.7729 78.2327 88.5412C73.9419 90.2779 68.6909 90.3335 62.1296 88.909C55.5307 87.4762 48.4741 84.7551 40.7906 81.7346C33.064 78.6971 26.092 75.9562 20.3505 72.6078C14.6438 69.2798 11.025 65.8326 9.22995 61.8848C7.3773 57.8102 6.92523 52.0676 8.29876 45.4363C9.65616 38.8828 12.6846 32.0681 16.9631 26.2794C25.6302 14.5534 38.8779 7.55898 50.1626 7.51414C61.1633 7.47043 71.9002 14 81.4913 24.4821Z" stroke="#FDD89D" stroke-width="15"/>
<path d="M213.66 149.481C214.442 151.343 215.168 153.205 215.857 155.068C215.391 155.198 214.907 155.291 214.423 155.384C212.989 155.72 211.145 155.794 210.103 156.949C209.06 158.103 209.376 160.077 209.674 161.753C209.805 162.517 209.954 163.318 210.084 164.1V164.305C209.271 164.351 208.457 164.351 207.644 164.305C206.954 164.226 206.26 164.422 205.713 164.85C205.166 165.279 204.809 165.906 204.721 166.595C204.643 167.312 204.84 168.031 205.272 168.608C205.704 169.186 206.339 169.578 207.048 169.705C208.469 169.78 209.892 169.78 211.313 169.705C212.952 169.575 214.74 169.333 215.41 167.564C215.729 166.151 215.665 164.679 215.224 163.299C215.094 162.517 214.926 161.735 214.796 160.953L216.285 160.599C217.44 160.357 218.595 160.096 219.731 159.817C220.133 159.748 220.515 159.589 220.847 159.352C221.179 159.115 221.454 158.805 221.649 158.447C221.844 158.088 221.956 157.69 221.975 157.282C221.995 156.874 221.921 156.467 221.76 156.092C221.127 154.23 220.438 152.498 219.731 150.729C221.67 150.344 223.585 149.847 225.466 149.239C226.114 148.942 226.619 148.403 226.873 147.738C227.127 147.073 227.11 146.335 226.826 145.682C225.591 142.939 224.107 140.314 222.394 137.842C220.364 134.918 216.285 138.233 218.297 141.119C219.134 142.317 219.905 143.561 220.606 144.844C218.967 145.237 217.307 145.535 215.634 145.738C215.236 145.816 214.861 145.98 214.534 146.22C214.208 146.459 213.938 146.768 213.744 147.123C213.55 147.479 213.437 147.873 213.413 148.277C213.389 148.681 213.454 149.086 213.604 149.462" fill="#00A99D"/>
<path d="M21.0811 140.951C19.1257 140.598 17.1703 140.207 15.2522 139.778C15.4198 139.331 15.5874 138.866 15.7736 138.419C16.5608 137.06 16.9239 135.497 16.8165 133.931C16.3509 132.18 14.6004 131.621 13.0919 130.951L10.8758 130.02H10.6896C11.0864 129.314 11.5216 128.63 11.9932 127.971C12.2181 127.706 12.3879 127.398 12.4929 127.067C12.5979 126.735 12.6359 126.385 12.6047 126.039C12.5735 125.692 12.4737 125.355 12.3112 125.048C12.1487 124.74 11.9266 124.468 11.658 124.247C11.0989 123.793 10.3886 123.567 9.6699 123.615C8.95123 123.664 8.27754 123.983 7.78441 124.508C6.98363 125.681 6.20147 126.873 5.51242 128.12C4.82338 129.368 3.96674 131.193 5.08411 132.72C6.10464 133.771 7.39226 134.525 8.80867 134.899L11.0248 135.812C10.8386 136.277 10.671 136.78 10.5033 137.264C10.0936 138.344 9.66532 139.462 9.27424 140.56C9.11728 140.936 9.0467 141.342 9.06771 141.749C9.08872 142.155 9.20079 142.552 9.39563 142.91C9.59047 143.267 9.86312 143.576 10.1934 143.814C10.5238 144.052 10.9033 144.213 11.3041 144.285C13.1664 144.732 15.0287 145.142 16.891 145.514C16.1601 147.338 15.5383 149.203 15.0287 151.101C14.9266 151.806 15.1056 152.523 15.527 153.098C15.9485 153.673 16.5787 154.059 17.282 154.174C20.2564 154.639 23.2677 154.826 26.2769 154.732C29.8152 154.639 29.2751 149.406 25.7554 149.518C24.2767 149.558 22.7969 149.515 21.3232 149.388C21.8626 147.804 22.4843 146.25 23.1855 144.732C23.3388 144.355 23.406 143.948 23.3823 143.541C23.3585 143.135 23.2443 142.739 23.0481 142.382C22.8518 142.025 22.5784 141.716 22.2478 141.479C21.9172 141.241 21.5377 141.08 21.1369 141.007" fill="#1E1E1E"/>
</svg>
