<svg width="217" height="222" viewBox="0 0 217 222" fill="none" xmlns="http://www.w3.org/2000/svg">
<path d="M207.551 39.7631C199.243 25.7684 186.922 14.5931 172.185 7.687C157.449 0.780884 140.977 -1.53735 124.906 1.0331C121.13 1.69883 121.691 7.62246 125.503 7.00011C140.537 4.51686 155.972 6.6621 169.759 13.1514C183.546 19.6407 195.036 30.1674 202.704 43.3359C203.187 43.9715 203.899 44.3928 204.688 44.5097C205.478 44.6266 206.282 44.4298 206.928 43.9614C207.544 43.4706 207.951 42.7642 208.067 41.985C208.183 41.2057 207.998 40.4116 207.551 39.7631Z" fill="#1E1E1E"/>
<path d="M16.5391 89.6025C8.35364 96.4812 2.57396 105.79 0.0393727 116.177C-0.0822677 116.923 0.0802549 117.687 0.494883 118.319C0.909512 118.95 1.54602 119.403 2.27856 119.588C3.01111 119.773 3.7864 119.676 4.45109 119.317C5.11578 118.958 5.62147 118.362 5.86826 117.648C8.1802 108.275 13.442 99.8931 20.8782 93.7368C21.4378 93.1718 21.7517 92.4088 21.7517 91.6137C21.7517 90.8186 21.4378 90.0557 20.8782 89.4908C20.2871 88.9622 19.5165 88.6794 18.7238 88.7002C17.9311 88.7209 17.1763 89.0437 16.6137 89.6025" fill="#FBB03B"/>
<path d="M141.442 198.993C169.823 189.868 195.56 174.578 208.019 150.294C220.477 126.01 219.453 93.0664 205.207 65.9702C190.96 38.874 163.473 17.9234 137.978 18.1096C112.484 18.2959 88.9632 39.6376 65.0329 61.3332C41.1026 83.0287 17.3213 104.78 14.9376 130.238C12.5538 155.695 32.145 184.746 57.2485 197.838C82.352 210.93 113.266 208.062 141.442 198.974" fill="#E4E4E4"/>
<path d="M164.284 142.616C174.1 142.774 184.044 148.734 193.184 158.132C202.225 167.548 208.242 178.091 208.025 188.293C207.915 193.471 206.235 199.05 203.403 203.747C200.544 208.486 196.889 211.73 193.291 213.106C189.703 214.478 185.111 214.484 179.115 213.112C173.11 211.738 166.632 209.22 159.499 206.41C152.353 203.595 145.94 201.052 140.633 198C135.345 194.957 131.982 191.858 130.242 188.408C128.477 184.909 127.876 180.017 128.841 174.376C129.796 168.79 132.209 163.01 135.741 158.147C142.897 148.293 154.301 142.455 164.284 142.616Z" stroke="#F5F5F5" stroke-width="15"/>
</svg>
