<svg width="212" height="200" viewBox="0 0 212 200" fill="none" xmlns="http://www.w3.org/2000/svg">
<path d="M15.179 39.3642C14.8438 37.3902 14.5645 35.4348 14.341 33.4794H15.8121C17.3493 33.7661 18.9369 33.5912 20.3748 32.9766C21.8646 31.9523 21.8273 30.1087 21.9391 28.4326C21.9391 27.6318 21.9391 26.831 22.0694 26.0303V25.8254C22.8673 25.961 23.6569 26.1413 24.4345 26.3655C25.0891 26.6071 25.8127 26.5802 26.4476 26.2907C27.0824 26.0012 27.5771 25.4725 27.8239 24.8198C28.0686 24.1438 28.0469 23.4001 27.7633 22.7395C27.4797 22.0789 26.9554 21.551 26.2968 21.2628C24.9187 20.8904 23.5406 20.5552 22.1253 20.3131C20.71 20.071 18.7173 19.8847 17.6558 21.4304C17.0021 22.7254 16.7124 24.1737 16.8178 25.6205C16.8178 26.4027 16.7247 27.2221 16.6874 28.0043H15.1417H11.622C11.2118 27.976 10.8005 28.0411 10.419 28.1948C10.0376 28.3484 9.69601 28.5866 9.41993 28.8914C9.14385 29.1961 8.94051 29.5595 8.82518 29.9542C8.70986 30.3489 8.68557 30.7647 8.75414 31.1702C8.95899 33.0324 9.20104 34.8947 9.46176 36.8501C7.48932 36.7384 5.51216 36.7384 3.53972 36.8501C2.83947 36.9855 2.22123 37.3925 1.81998 37.9822C1.41873 38.5718 1.26709 39.2963 1.39811 39.9973C1.93967 42.9597 2.7564 45.865 3.8377 48.6756C5.10405 51.9718 9.87146 49.7371 8.58649 46.4409C8.05597 45.0596 7.60822 43.648 7.24564 42.2135C8.92169 42.2135 10.5978 42.3252 12.2925 42.5114C12.7027 42.5332 13.1125 42.4629 13.4921 42.3058C13.8717 42.1488 14.2114 41.9088 14.4864 41.6036C14.7613 41.2983 14.9644 40.9354 15.0811 40.5415C15.1977 40.1476 15.2247 39.7326 15.1603 39.3269" fill="#FBB03B"/>
<path d="M181.369 177.322C180.885 179.184 180.326 181.158 179.749 183.039C179.302 182.853 178.874 182.629 178.427 182.406C177.086 181.81 175.577 180.73 174.032 181.009C172.486 181.288 171.555 183.058 170.773 184.547L169.674 186.633L169.581 186.819C168.905 186.362 168.252 185.871 167.625 185.348C167.381 185.103 167.091 184.908 166.772 184.775C166.452 184.642 166.109 184.573 165.763 184.573C165.417 184.573 165.074 184.642 164.755 184.775C164.435 184.908 164.145 185.103 163.901 185.348C163.409 185.873 163.135 186.565 163.135 187.285C163.135 188.004 163.409 188.697 163.901 189.222C164.999 190.136 166.142 190.994 167.327 191.792C168.706 192.685 170.27 193.654 171.871 192.574C172.993 191.654 173.848 190.452 174.348 189.091L175.428 186.95L176.825 187.601L180.028 189.073C180.389 189.266 180.79 189.375 181.199 189.391C181.609 189.407 182.017 189.329 182.392 189.164C182.767 188.999 183.099 188.751 183.364 188.438C183.629 188.125 183.819 187.756 183.92 187.359C184.516 185.497 185.056 183.635 185.578 181.866C187.351 182.745 189.173 183.522 191.034 184.193C191.725 184.351 192.45 184.23 193.053 183.857C193.656 183.484 194.088 182.889 194.256 182.201C194.964 179.268 195.394 176.275 195.541 173.262C195.709 169.742 190.457 169.873 190.289 173.374C190.219 174.853 190.064 176.326 189.824 177.787C188.279 177.103 186.774 176.332 185.317 175.478C184.951 175.292 184.548 175.191 184.137 175.181C183.727 175.171 183.319 175.253 182.944 175.42C182.569 175.588 182.237 175.838 181.971 176.15C181.704 176.463 181.512 176.832 181.406 177.229" fill="#00A99D"/>
<path d="M121.869 22.8829C92.7244 16.1973 62.7789 16.5884 39.817 32.3432C16.8551 48.0981 1.28645 79.0492 0.0759727 111.621C-1.13451 144.192 12.1994 178.16 34.3978 191.55C56.5962 204.939 87.6403 197.788 119.225 190.525C150.809 183.262 182.319 175.851 197.105 153.652C211.892 131.454 209.489 94.1896 194.275 68.7695C179.06 43.3493 150.846 29.5126 121.869 22.8829Z" fill="#1E1E1E"/>
<mask id="path-4-inside-1_2996_22423" fill="white">
<path d="M194.759 19.4376C184.516 8.26394 171.927 -0.0232045 157.867 0.0140411C143.807 0.0512867 128.462 8.5619 118.759 21.8213C109.057 35.0808 104.811 53.089 110.23 65.0076C115.649 76.9262 130.715 82.7738 145.874 88.733C161.033 94.6923 176.341 100.577 188.855 95.5118C201.37 90.4464 210.998 74.1886 211.91 59.2345C212.823 44.2804 205.039 30.4623 194.852 19.4376"/>
</mask>
<path d="M205.816 9.30175C194.318 -3.24111 177.997 -15.0393 157.827 -14.9859L157.907 15.014C165.857 14.9929 174.714 19.769 183.701 29.5735L205.816 9.30175ZM157.827 -14.9859C138.195 -14.9339 118.663 -3.44852 106.654 12.9634L130.864 30.6793C138.26 20.5723 149.418 15.0365 157.907 15.014L157.827 -14.9859ZM106.654 12.9634C100.577 21.2679 96.1867 31.0499 94.1404 40.8519C92.1284 50.4899 92.1355 61.4521 96.5751 71.2163L123.885 58.799C122.905 56.6445 122.326 52.6434 123.507 46.9827C124.655 41.486 127.239 35.6342 130.864 30.6793L106.654 12.9634ZM96.5751 71.2163C101.114 81.1985 109.24 87.6288 116.843 92.0626C124.376 96.4558 133.101 99.8291 140.386 102.693L151.362 74.773C143.488 71.6777 137.1 69.1476 131.956 66.1475C126.881 63.1881 124.765 60.7353 123.885 58.799L96.5751 71.2163ZM140.386 102.693C147.754 105.59 156.502 109.031 165.172 110.915C173.919 112.815 184.293 113.54 194.483 109.416L183.227 81.6076C180.903 82.5485 177.366 82.8641 171.541 81.5986C165.638 80.3163 159.152 77.8356 151.362 74.773L140.386 102.693ZM194.483 109.416C204.514 105.356 212.253 97.3914 217.47 89.005C222.75 80.5174 226.261 70.3298 226.883 60.1482L196.938 58.3209C196.647 63.0934 194.888 68.5117 191.997 73.1578C189.044 77.9052 185.711 80.6021 183.227 81.6076L194.483 109.416ZM226.883 60.1482C228.152 39.3425 217.34 21.6722 205.869 9.25801L183.835 29.6172C192.738 39.2524 197.494 49.2184 196.938 58.3209L226.883 60.1482Z" fill="#8F8F8F" mask="url(#path-4-inside-1_2996_22423)"/>
</svg>
