<svg width="206" height="192" viewBox="0 0 206 192" fill="none" xmlns="http://www.w3.org/2000/svg">
<path d="M128.388 183.693C106.439 191.839 79.7989 194.858 64.4346 183.919C49.0703 172.981 35.9925 153.018 24 133.014C12.2093 113.004 1.70104 92.9378 0.096133 77.5386C-1.41606 62.0491 15.1617 46.2777 32.2171 33.0236C49.2848 19.9413 66.9298 9.27923 87.1627 3.92059C107.492 -1.53182 130.505 -1.76792 148.19 6.35971C166.072 14.4785 178.521 31.0552 188.778 47.9019C198.941 64.8389 206.912 82.0525 205.916 99.0523C204.919 116.052 195.048 132.748 181.327 147.603C167.71 162.54 150.441 175.635 128.388 183.693Z" fill="#1E1E1E"/>
<path d="M143.862 108.042C143.862 104.882 143.862 101.721 143.764 98.5612C143.568 95.2094 140.919 94.7306 137.485 94.6348C128.851 94.4433 120.316 94.6348 111.781 95.2094C109.917 95.3052 108.837 96.5501 108.641 97.7951C108.445 98.1781 108.347 98.5612 108.347 98.9443C108.249 102.009 108.347 105.073 108.641 108.234C108.739 109.67 108.936 111.106 109.132 112.447C109.328 113.788 109.328 115.32 110.603 116.374C111.879 117.331 113.449 117.235 115.018 117.235C116.98 117.235 119.041 117.235 121.003 117.235C124.731 117.235 128.361 117.14 132.089 117.14C133.757 117.14 135.523 117.14 137.191 117.14C138.76 117.14 140.526 117.331 141.998 116.661C145.039 115.033 143.862 110.532 143.862 108.042Z" fill="white" fill-opacity="0.5"/>
<path d="M65.3756 104.978C66.0624 104.403 66.7491 104.116 67.4359 104.116C67.8283 104.116 68.1226 104.211 68.5151 104.403C68.8094 104.594 69.2018 104.882 69.5943 105.265C69.9867 105.839 70.1829 106.222 70.3791 106.606C70.5753 106.989 70.5753 107.276 70.5753 107.563C70.5753 108.234 70.1829 108.904 69.4962 109.574C68.3189 110.532 67.1416 111.298 65.7681 112.064C64.3945 112.83 63.021 113.405 61.5494 113.884C60.0778 114.363 58.6062 114.746 57.0364 115.033C55.4667 115.32 53.9951 115.416 52.4254 115.416C50.4632 115.416 48.6973 115.224 47.0294 114.746C45.3616 114.267 43.7919 113.596 42.5165 112.735C41.2411 111.873 40.0638 110.819 39.1808 109.574C38.2978 108.329 37.6111 106.893 37.2186 105.361C37.0224 104.69 36.8262 104.307 36.63 104.116C36.4338 103.924 36.1395 103.828 35.747 103.828C34.8641 103.828 34.1773 103.637 33.6868 103.158C33.1962 102.679 33 102.105 33 101.243C33 100.955 33 100.668 33.0981 100.572V99.9977C33.1962 99.1358 33.4905 98.5612 33.7849 98.1782C34.1773 97.7951 34.6678 97.6036 35.4527 97.6036H35.9432C36.9243 97.6036 37.6111 97.1247 38.0035 96.2628C38.7884 94.6348 39.6713 93.1983 40.8486 91.8576C42.0259 90.5169 43.3013 89.3677 44.6748 88.5058C46.1465 87.5482 47.6181 86.8778 49.2859 86.3032C50.9538 85.8244 52.5235 85.5371 54.2894 85.5371C56.0554 85.5371 57.7232 85.8244 59.1948 86.3032C60.7645 86.7821 62.0399 87.4524 63.2172 88.4101C64.3945 89.272 65.2775 90.3254 65.8662 91.4746C66.5529 92.6238 66.8472 93.9645 66.8472 95.3052C66.8472 96.2628 66.651 97.1247 66.2586 97.8909C65.8662 98.657 65.3756 99.3273 64.5908 99.9977C63.904 100.572 63.021 101.051 62.04 101.434C61.0589 101.817 59.8816 102.009 58.6062 102.2L46.2446 103.445C45.754 103.445 45.3616 103.541 45.0673 103.828C44.773 104.02 44.5767 104.403 44.5767 104.786C44.5767 105.361 44.773 105.935 45.2635 106.51C45.754 107.084 46.3427 107.563 47.1275 107.946C47.9124 108.329 48.7954 108.712 49.7765 109C50.7575 109.287 51.8367 109.383 52.9159 109.383C53.897 109.383 54.9762 109.287 56.0554 109.095C57.1346 108.904 58.2137 108.617 59.2929 108.234C60.3721 107.85 61.3532 107.372 62.3343 106.893C63.5116 106.222 64.4926 105.648 65.3756 104.978ZM57.4289 95.9755C57.8213 95.8798 58.1156 95.784 58.3118 95.4967C58.6062 95.2094 58.7043 94.9221 58.7043 94.5391C58.7043 94.156 58.6062 93.8687 58.3118 93.5814C58.0175 93.2941 57.7232 93.0068 57.2327 92.7195C56.7421 92.4322 56.2516 92.2407 55.6629 92.1449C55.0743 92.0492 54.4856 91.9534 53.7989 91.9534C52.8178 91.9534 51.8367 92.0492 50.7575 92.3365C49.7765 92.6238 48.7954 93.0068 48.0105 93.3899C47.2257 93.8687 46.5389 94.3475 45.9502 94.9221C45.4597 95.4967 45.1654 95.9755 45.1654 96.5501C45.1654 97.1247 45.4597 97.3163 46.1465 97.3163C46.5389 97.3163 47.2257 97.3163 48.1086 97.2205C48.9916 97.1247 49.9727 97.029 51.15 96.9332C52.2292 96.8374 53.3083 96.6459 54.4856 96.4544C55.5648 96.2628 56.5459 96.0713 57.4289 95.9755Z" fill="white"/>
<path d="M69.2018 88.2184C69.2018 87.3565 69.5942 86.5903 70.4772 86.1115C71.262 85.6327 72.5375 85.4412 74.0091 85.4412C74.4015 85.4412 74.6958 85.4412 74.9901 85.5369C75.2845 85.6327 75.5788 85.8242 75.775 86.1115C75.9712 86.3988 76.1674 86.7819 76.3637 87.1649C76.5599 87.6438 76.7561 88.2184 76.9523 88.9845C77.1485 89.7506 77.3447 90.2294 77.541 90.2294C77.7372 90.2294 77.9334 89.8464 78.1296 89.176C78.522 87.8353 79.1107 86.6861 79.7974 85.7285C80.4842 84.7708 81.2691 83.9089 82.152 83.2386C83.1331 82.664 84.0161 82.1851 85.0953 81.8021C86.1745 81.5148 87.2536 81.3232 88.3328 81.3232C90.6874 81.3232 92.8458 81.8021 94.808 82.5682C96.7701 83.4301 98.5361 84.5793 100.008 86.1115C101.479 87.6438 102.558 89.3675 103.441 91.3786C104.226 93.3897 104.717 95.5923 104.717 97.9864C104.717 100.476 104.226 102.775 103.343 104.977C102.46 107.084 101.185 108.904 99.6153 110.532C98.0455 112.064 96.0834 113.309 93.925 114.171C91.7666 115.033 89.3139 115.512 86.665 115.512L84.8009 115.32C83.7218 115.32 83.2312 115.895 83.2312 117.14L85.0953 133.132C85.0953 133.515 84.8991 133.898 84.7028 134.186C84.4085 134.569 84.1142 134.856 83.7218 135.048C83.3293 135.335 82.8388 135.526 82.2501 135.622C81.6615 135.718 81.0728 135.814 80.4842 135.814C78.8164 135.814 77.8353 135.239 77.7372 134.186C77.2466 129.972 76.658 125.95 76.0693 122.119C75.4807 118.289 74.892 114.745 74.2053 111.489C73.6166 108.233 72.9299 105.265 72.3412 102.487C71.7526 99.806 71.262 97.4118 70.7715 95.4965C70.281 93.4855 69.9866 91.8574 69.6923 90.6125C69.398 89.4633 69.2018 88.6014 69.2018 88.2184ZM80.7785 97.4118C80.7785 98.9441 80.8766 100.381 80.9747 101.913C81.0728 103.349 81.2691 104.977 81.5634 106.701C81.6615 107.755 82.2501 108.329 83.3293 108.521C83.918 108.616 84.6047 108.808 85.3896 108.904C86.1745 108.999 86.7631 109.095 87.3518 109.095C88.9215 109.095 90.295 108.904 91.4723 108.425C92.7477 107.946 93.7288 107.371 94.6117 106.51C95.4947 105.648 96.1815 104.69 96.672 103.541C97.1626 102.392 97.3588 101.147 97.3588 99.7102C97.3588 97.9864 97.1626 96.4542 96.672 94.9219C96.1815 93.4855 95.5928 92.1447 94.7099 91.0913C93.925 90.0379 92.9439 89.176 91.8647 88.5057C90.7855 87.8353 89.6082 87.548 88.2347 87.548C87.1555 87.548 86.0764 87.7395 85.1934 88.2184C84.3104 88.6972 83.5255 89.3675 82.8388 90.2294C82.152 91.0913 81.6615 92.1447 81.3672 93.2939C80.9747 94.6346 80.7785 95.9754 80.7785 97.4118Z" fill="white"/>
<path d="M114.037 91.4745C114.037 90.8041 114.43 90.2295 115.116 89.7507C115.803 89.2719 116.784 89.0803 117.961 89.0803C120.12 89.0803 121.199 89.6549 121.395 90.8999C121.493 91.7618 121.591 92.7194 121.69 93.7728C121.788 94.8262 121.886 95.9754 121.984 97.2204C122.082 98.4653 122.18 99.7103 122.278 100.955C122.376 102.2 122.474 103.541 122.474 104.786C122.573 106.031 122.573 107.276 122.671 108.425C122.671 109.574 122.769 110.628 122.769 111.585C122.769 112.543 122.376 113.309 121.493 113.788C120.61 114.267 119.433 114.554 117.765 114.554C116.98 114.554 116.49 114.362 115.999 114.075C115.607 113.788 115.411 113.405 115.411 112.83C115.411 110.053 115.313 107.467 115.214 105.073C115.018 102.679 114.92 100.572 114.724 98.6569C114.528 96.7416 114.331 95.2093 114.233 93.9644C114.135 92.7194 114.037 91.9533 114.037 91.4745Z" fill="white"/>
<path d="M129.833 91.4745C129.833 90.8041 130.225 90.2295 130.912 89.7507C131.598 89.2719 132.58 89.0803 133.757 89.0803C135.915 89.0803 136.994 89.6549 137.191 90.8999C137.289 91.7618 137.387 92.7194 137.485 93.7728C137.583 94.8262 137.681 95.9754 137.779 97.2204C137.877 98.4653 137.975 99.7103 138.074 100.955C138.172 102.2 138.27 103.541 138.27 104.786C138.368 106.031 138.368 107.276 138.466 108.425C138.466 109.574 138.564 110.628 138.564 111.585C138.564 112.543 138.172 113.309 137.289 113.788C136.406 114.267 135.228 114.554 133.561 114.554C132.776 114.554 132.285 114.362 131.795 114.075C131.402 113.788 131.206 113.405 131.206 112.83C131.206 110.053 131.108 107.467 131.01 105.073C130.814 102.679 130.715 100.572 130.519 98.6569C130.323 96.7416 130.127 95.2093 130.029 93.9644C129.931 92.7194 129.833 91.9533 129.833 91.4745Z" fill="white"/>
<path d="M162.993 83.9091C164.268 84.0048 165.446 84.1964 166.525 84.5794C167.702 84.9625 168.683 85.5371 169.566 86.1117C170.449 86.782 171.136 87.4524 171.626 88.2185C172.117 88.9846 172.411 89.7508 172.313 90.6127C172.313 91.0915 172.117 91.5703 171.921 92.0491C171.725 92.528 171.332 92.911 171.038 93.2941C170.645 93.6771 170.253 93.8687 169.762 94.0602C169.272 94.2517 168.781 94.3475 168.291 94.3475C167.702 94.3475 167.212 94.0602 166.819 93.6771C166.427 93.2941 165.936 92.8153 165.446 92.2407C164.955 91.7618 164.366 91.283 163.778 90.8042C163.189 90.3254 162.404 90.1338 161.521 90.1338C160.638 90.1338 159.854 90.2296 159.167 90.6127C158.48 90.9957 157.891 91.4745 157.401 92.1449C156.91 92.8153 156.518 93.6771 156.224 94.6348C155.929 95.5925 155.733 96.6459 155.733 97.7951C155.537 101.051 156.027 103.541 157.205 105.265C158.382 106.989 160.148 107.946 162.502 108.042C163.582 108.138 164.563 107.946 165.348 107.659C166.132 107.372 166.917 106.989 167.506 106.605C168.095 106.222 168.683 105.839 169.174 105.552C169.664 105.265 170.253 105.073 170.743 105.073C171.038 105.073 171.332 105.169 171.626 105.361C171.921 105.552 172.117 105.744 172.313 106.031C172.509 106.318 172.706 106.605 172.804 106.989C172.902 107.276 173 107.659 173 107.946C173 108.712 172.509 109.478 171.725 110.245C170.94 111.011 169.861 111.681 168.683 112.351C167.408 112.926 166.034 113.405 164.563 113.788C163.091 114.171 161.619 114.267 160.246 114.171C158.382 114.075 156.714 113.596 155.144 112.83C153.575 112.064 152.299 111.011 151.22 109.67C150.141 108.329 149.356 106.797 148.767 104.977C148.179 103.158 147.982 101.243 148.081 99.1358C148.179 96.8374 148.669 94.7306 149.454 92.8153C150.239 90.8999 151.318 89.2719 152.594 87.9312C153.869 86.5905 155.439 85.5371 157.205 84.771C159.167 84.1006 161.031 83.8133 162.993 83.9091Z" fill="white"/>
<path d="M118.746 84.1006C118.06 84.2921 117.471 84.3879 116.784 84.2921C116.097 84.2921 115.607 84.1006 115.018 83.909C114.528 83.7175 114.037 83.3344 113.645 82.9514C113.252 82.5683 112.958 82.0895 112.86 81.5149C112.566 80.5572 112.762 79.6953 113.35 78.9292C113.939 78.1631 114.92 77.5885 116.196 77.2054C116.784 77.0139 117.373 77.0139 118.06 77.0139C118.648 77.1097 119.237 77.2054 119.727 77.4927C120.218 77.78 120.708 78.0673 121.101 78.4504C121.493 78.9292 121.69 79.4081 121.886 79.8869C122.18 80.8445 121.984 81.7064 121.395 82.4725C120.807 83.2387 119.924 83.7175 118.746 84.1006Z" fill="white"/>
<path d="M134.738 85.6329C134.051 85.6329 133.364 85.5371 132.776 85.3456C132.187 85.1541 131.598 84.8668 131.206 84.4837C130.814 84.1964 130.421 83.7176 130.127 83.2388C129.833 82.7599 129.734 82.1854 129.734 81.6108C129.734 80.6531 130.127 79.887 130.912 79.2166C131.697 78.642 132.776 78.3547 134.149 78.3547C134.738 78.3547 135.327 78.4505 135.915 78.642C136.504 78.8336 136.994 79.1209 137.387 79.5039C137.779 79.887 138.172 80.27 138.466 80.8446C138.76 81.3235 138.858 81.8981 138.858 82.3769C138.858 83.3345 138.466 84.1964 137.779 84.771C136.994 85.3456 136.013 85.6329 134.738 85.6329Z" fill="white"/>
</svg>
