<svg width="212" height="192" viewBox="0 0 212 192" fill="none" xmlns="http://www.w3.org/2000/svg">
<path d="M167.978 11.565C189.69 21.2096 210.122 37.9227 210.972 56.8049C211.822 75.687 201.723 103.678 192.5 126.774C183.137 149.732 174.505 167.666 162.301 180.031C149.958 192.396 125.265 192.123 102.422 189.675C79.7203 187.094 58.7185 182.339 40.5579 171.88C22.252 161.422 6.64726 145.255 1.82056 126.774C-3.14604 108.16 2.81603 87.2378 10.4785 67.6756C18.2808 48.1134 27.7889 29.9062 43.1138 18.2214C58.4387 6.53667 79.4405 1.37435 101.432 0.287273C123.424 -0.933754 146.272 1.78136 167.978 11.565Z" fill="#F8F8F8"/>
<path d="M145.862 108.042C145.862 104.882 145.862 101.721 145.764 98.5612C145.568 95.2094 142.919 94.7306 139.485 94.6348C130.851 94.4433 122.316 94.6348 113.781 95.2094C111.917 95.3052 110.837 96.5501 110.641 97.7951C110.445 98.1781 110.347 98.5612 110.347 98.9443C110.249 102.009 110.347 105.073 110.641 108.234C110.739 109.67 110.936 111.106 111.132 112.447C111.328 113.788 111.328 115.32 112.603 116.374C113.879 117.331 115.449 117.235 117.018 117.235C118.98 117.235 121.041 117.235 123.003 117.235C126.731 117.235 130.361 117.14 134.089 117.14C135.757 117.14 137.523 117.14 139.191 117.14C140.76 117.14 142.526 117.331 143.998 116.661C147.039 115.033 145.862 110.532 145.862 108.042Z" fill="#FBB03B"/>
<path d="M67.3756 104.978C68.0624 104.403 68.7491 104.116 69.4359 104.116C69.8283 104.116 70.1226 104.211 70.5151 104.403C70.8094 104.594 71.2018 104.882 71.5943 105.265C71.9867 105.839 72.1829 106.222 72.3791 106.606C72.5753 106.989 72.5753 107.276 72.5753 107.563C72.5753 108.234 72.1829 108.904 71.4962 109.574C70.3189 110.532 69.1416 111.298 67.7681 112.064C66.3945 112.83 65.021 113.405 63.5494 113.884C62.0778 114.363 60.6062 114.746 59.0364 115.033C57.4667 115.32 55.9951 115.416 54.4254 115.416C52.4632 115.416 50.6973 115.224 49.0294 114.746C47.3616 114.267 45.7919 113.596 44.5165 112.735C43.2411 111.873 42.0638 110.819 41.1808 109.574C40.2978 108.329 39.6111 106.893 39.2186 105.361C39.0224 104.69 38.8262 104.307 38.63 104.116C38.4338 103.924 38.1395 103.828 37.747 103.828C36.8641 103.828 36.1773 103.637 35.6868 103.158C35.1962 102.679 35 102.105 35 101.243C35 100.955 35 100.668 35.0981 100.572V99.9977C35.1962 99.1358 35.4905 98.5612 35.7849 98.1782C36.1773 97.7951 36.6678 97.6036 37.4527 97.6036H37.9432C38.9243 97.6036 39.6111 97.1247 40.0035 96.2628C40.7884 94.6348 41.6713 93.1983 42.8486 91.8576C44.0259 90.5169 45.3013 89.3677 46.6748 88.5058C48.1465 87.5482 49.6181 86.8778 51.2859 86.3032C52.9538 85.8244 54.5235 85.5371 56.2894 85.5371C58.0554 85.5371 59.7232 85.8244 61.1948 86.3032C62.7645 86.7821 64.0399 87.4524 65.2172 88.4101C66.3945 89.272 67.2775 90.3254 67.8662 91.4746C68.5529 92.6238 68.8472 93.9645 68.8472 95.3052C68.8472 96.2628 68.651 97.1247 68.2586 97.8909C67.8662 98.657 67.3756 99.3273 66.5908 99.9977C65.904 100.572 65.021 101.051 64.04 101.434C63.0589 101.817 61.8816 102.009 60.6062 102.2L48.2446 103.445C47.754 103.445 47.3616 103.541 47.0673 103.828C46.773 104.02 46.5767 104.403 46.5767 104.786C46.5767 105.361 46.773 105.935 47.2635 106.51C47.754 107.084 48.3427 107.563 49.1275 107.946C49.9124 108.329 50.7954 108.712 51.7765 109C52.7575 109.287 53.8367 109.383 54.9159 109.383C55.897 109.383 56.9762 109.287 58.0554 109.095C59.1346 108.904 60.2137 108.617 61.2929 108.234C62.3721 107.85 63.3532 107.372 64.3343 106.893C65.5116 106.222 66.4926 105.648 67.3756 104.978ZM59.4289 95.9755C59.8213 95.8798 60.1156 95.784 60.3118 95.4967C60.6062 95.2094 60.7043 94.9221 60.7043 94.5391C60.7043 94.156 60.6062 93.8687 60.3118 93.5814C60.0175 93.2941 59.7232 93.0068 59.2327 92.7195C58.7421 92.4322 58.2516 92.2407 57.6629 92.1449C57.0743 92.0492 56.4856 91.9534 55.7989 91.9534C54.8178 91.9534 53.8367 92.0492 52.7575 92.3365C51.7765 92.6238 50.7954 93.0068 50.0105 93.3899C49.2257 93.8687 48.5389 94.3475 47.9502 94.9221C47.4597 95.4967 47.1654 95.9755 47.1654 96.5501C47.1654 97.1247 47.4597 97.3163 48.1465 97.3163C48.5389 97.3163 49.2257 97.3163 50.1086 97.2205C50.9916 97.1247 51.9727 97.029 53.15 96.9332C54.2292 96.8374 55.3083 96.6459 56.4856 96.4544C57.5648 96.2628 58.5459 96.0713 59.4289 95.9755Z" fill="#1E1E1E"/>
<path d="M71.2018 88.2184C71.2018 87.3565 71.5942 86.5903 72.4772 86.1115C73.262 85.6327 74.5375 85.4412 76.0091 85.4412C76.4015 85.4412 76.6958 85.4412 76.9901 85.5369C77.2845 85.6327 77.5788 85.8242 77.775 86.1115C77.9712 86.3988 78.1674 86.7819 78.3637 87.1649C78.5599 87.6438 78.7561 88.2184 78.9523 88.9845C79.1485 89.7506 79.3447 90.2294 79.541 90.2294C79.7372 90.2294 79.9334 89.8464 80.1296 89.176C80.522 87.8353 81.1107 86.6861 81.7974 85.7285C82.4842 84.7708 83.2691 83.9089 84.152 83.2386C85.1331 82.664 86.0161 82.1851 87.0953 81.8021C88.1745 81.5148 89.2536 81.3232 90.3328 81.3232C92.6874 81.3232 94.8458 81.8021 96.808 82.5682C98.7701 83.4301 100.536 84.5793 102.008 86.1115C103.479 87.6438 104.558 89.3675 105.441 91.3786C106.226 93.3897 106.717 95.5923 106.717 97.9864C106.717 100.476 106.226 102.775 105.343 104.977C104.46 107.084 103.185 108.904 101.615 110.532C100.046 112.064 98.0834 113.309 95.925 114.171C93.7666 115.033 91.3139 115.512 88.665 115.512L86.8009 115.32C85.7218 115.32 85.2312 115.895 85.2312 117.14L87.0953 133.132C87.0953 133.515 86.8991 133.898 86.7028 134.186C86.4085 134.569 86.1142 134.856 85.7218 135.048C85.3293 135.335 84.8388 135.526 84.2501 135.622C83.6615 135.718 83.0728 135.814 82.4842 135.814C80.8164 135.814 79.8353 135.239 79.7372 134.186C79.2466 129.972 78.658 125.95 78.0693 122.119C77.4807 118.289 76.892 114.745 76.2053 111.489C75.6166 108.233 74.9299 105.265 74.3412 102.487C73.7526 99.806 73.262 97.4118 72.7715 95.4965C72.281 93.4855 71.9866 91.8574 71.6923 90.6125C71.398 89.4633 71.2018 88.6014 71.2018 88.2184ZM82.7785 97.4118C82.7785 98.9441 82.8766 100.381 82.9747 101.913C83.0728 103.349 83.2691 104.977 83.5634 106.701C83.6615 107.755 84.2501 108.329 85.3293 108.521C85.918 108.616 86.6047 108.808 87.3896 108.904C88.1745 108.999 88.7631 109.095 89.3518 109.095C90.9215 109.095 92.295 108.904 93.4723 108.425C94.7477 107.946 95.7288 107.371 96.6117 106.51C97.4947 105.648 98.1815 104.69 98.672 103.541C99.1626 102.392 99.3588 101.147 99.3588 99.7102C99.3588 97.9864 99.1626 96.4542 98.672 94.9219C98.1815 93.4855 97.5928 92.1447 96.7099 91.0913C95.925 90.0379 94.9439 89.176 93.8647 88.5057C92.7855 87.8353 91.6082 87.548 90.2347 87.548C89.1555 87.548 88.0764 87.7395 87.1934 88.2184C86.3104 88.6972 85.5255 89.3675 84.8388 90.2294C84.152 91.0913 83.6615 92.1447 83.3672 93.2939C82.9747 94.6346 82.7785 95.9754 82.7785 97.4118Z" fill="#1E1E1E"/>
<path d="M116.037 91.4745C116.037 90.8041 116.43 90.2295 117.116 89.7507C117.803 89.2719 118.784 89.0803 119.961 89.0803C122.12 89.0803 123.199 89.6549 123.395 90.8999C123.493 91.7618 123.591 92.7194 123.69 93.7728C123.788 94.8262 123.886 95.9754 123.984 97.2204C124.082 98.4653 124.18 99.7103 124.278 100.955C124.376 102.2 124.474 103.541 124.474 104.786C124.573 106.031 124.573 107.276 124.671 108.425C124.671 109.574 124.769 110.628 124.769 111.585C124.769 112.543 124.376 113.309 123.493 113.788C122.61 114.267 121.433 114.554 119.765 114.554C118.98 114.554 118.49 114.362 117.999 114.075C117.607 113.788 117.411 113.405 117.411 112.83C117.411 110.053 117.313 107.467 117.214 105.073C117.018 102.679 116.92 100.572 116.724 98.6569C116.528 96.7416 116.331 95.2093 116.233 93.9644C116.135 92.7194 116.037 91.9533 116.037 91.4745Z" fill="#1E1E1E"/>
<path d="M131.833 91.4745C131.833 90.8041 132.225 90.2295 132.912 89.7507C133.598 89.2719 134.58 89.0803 135.757 89.0803C137.915 89.0803 138.994 89.6549 139.191 90.8999C139.289 91.7618 139.387 92.7194 139.485 93.7728C139.583 94.8262 139.681 95.9754 139.779 97.2204C139.877 98.4653 139.975 99.7103 140.074 100.955C140.172 102.2 140.27 103.541 140.27 104.786C140.368 106.031 140.368 107.276 140.466 108.425C140.466 109.574 140.564 110.628 140.564 111.585C140.564 112.543 140.172 113.309 139.289 113.788C138.406 114.267 137.228 114.554 135.561 114.554C134.776 114.554 134.285 114.362 133.795 114.075C133.402 113.788 133.206 113.405 133.206 112.83C133.206 110.053 133.108 107.467 133.01 105.073C132.814 102.679 132.715 100.572 132.519 98.6569C132.323 96.7416 132.127 95.2093 132.029 93.9644C131.931 92.7194 131.833 91.9533 131.833 91.4745Z" fill="#1E1E1E"/>
<path d="M164.993 83.9091C166.268 84.0048 167.446 84.1964 168.525 84.5794C169.702 84.9625 170.683 85.5371 171.566 86.1117C172.449 86.782 173.136 87.4524 173.626 88.2185C174.117 88.9846 174.411 89.7508 174.313 90.6127C174.313 91.0915 174.117 91.5703 173.921 92.0491C173.725 92.528 173.332 92.911 173.038 93.2941C172.645 93.6771 172.253 93.8687 171.762 94.0602C171.272 94.2517 170.781 94.3475 170.291 94.3475C169.702 94.3475 169.212 94.0602 168.819 93.6771C168.427 93.2941 167.936 92.8153 167.446 92.2407C166.955 91.7618 166.366 91.283 165.778 90.8042C165.189 90.3254 164.404 90.1338 163.521 90.1338C162.638 90.1338 161.854 90.2296 161.167 90.6127C160.48 90.9957 159.891 91.4745 159.401 92.1449C158.91 92.8153 158.518 93.6771 158.224 94.6348C157.929 95.5925 157.733 96.6459 157.733 97.7951C157.537 101.051 158.027 103.541 159.205 105.265C160.382 106.989 162.148 107.946 164.502 108.042C165.582 108.138 166.563 107.946 167.348 107.659C168.132 107.372 168.917 106.989 169.506 106.605C170.095 106.222 170.683 105.839 171.174 105.552C171.664 105.265 172.253 105.073 172.743 105.073C173.038 105.073 173.332 105.169 173.626 105.361C173.921 105.552 174.117 105.744 174.313 106.031C174.509 106.318 174.706 106.605 174.804 106.989C174.902 107.276 175 107.659 175 107.946C175 108.712 174.509 109.478 173.725 110.245C172.94 111.011 171.861 111.681 170.683 112.351C169.408 112.926 168.034 113.405 166.563 113.788C165.091 114.171 163.619 114.267 162.246 114.171C160.382 114.075 158.714 113.596 157.144 112.83C155.575 112.064 154.299 111.011 153.22 109.67C152.141 108.329 151.356 106.797 150.767 104.977C150.179 103.158 149.982 101.243 150.081 99.1358C150.179 96.8374 150.669 94.7306 151.454 92.8153C152.239 90.8999 153.318 89.2719 154.594 87.9312C155.869 86.5905 157.439 85.5371 159.205 84.771C161.167 84.1006 163.031 83.8133 164.993 83.9091Z" fill="#1E1E1E"/>
<path d="M120.746 84.1006C120.06 84.2921 119.471 84.3879 118.784 84.2921C118.097 84.2921 117.607 84.1006 117.018 83.909C116.528 83.7175 116.037 83.3344 115.645 82.9514C115.252 82.5683 114.958 82.0895 114.86 81.5149C114.566 80.5572 114.762 79.6953 115.35 78.9292C115.939 78.1631 116.92 77.5885 118.196 77.2054C118.784 77.0139 119.373 77.0139 120.06 77.0139C120.648 77.1097 121.237 77.2054 121.727 77.4927C122.218 77.78 122.708 78.0673 123.101 78.4504C123.493 78.9292 123.69 79.4081 123.886 79.8869C124.18 80.8445 123.984 81.7064 123.395 82.4725C122.807 83.2387 121.924 83.7175 120.746 84.1006Z" fill="#1E1E1E"/>
<path d="M136.738 85.6329C136.051 85.6329 135.364 85.5371 134.776 85.3456C134.187 85.1541 133.598 84.8668 133.206 84.4837C132.814 84.1964 132.421 83.7176 132.127 83.2388C131.832 82.7599 131.734 82.1854 131.734 81.6108C131.734 80.6531 132.127 79.887 132.912 79.2166C133.697 78.642 134.776 78.3547 136.149 78.3547C136.738 78.3547 137.327 78.4505 137.915 78.642C138.504 78.8336 138.994 79.1209 139.387 79.5039C139.779 79.887 140.172 80.27 140.466 80.8446C140.76 81.3235 140.858 81.8981 140.858 82.3769C140.858 83.3345 140.466 84.1964 139.779 84.771C138.994 85.3456 138.013 85.6329 136.738 85.6329Z" fill="#1E1E1E"/>
</svg>
