<svg width="200" height="140" viewBox="0 0 200 140" fill="none" xmlns="http://www.w3.org/2000/svg">
<path d="M0.846033 80.18C1.30486 80.4416 1.84813 80.5122 2.35858 80.3767C2.56395 80.3307 2.75742 80.2424 2.92671 80.1174C3.096 79.9924 3.23742 79.8334 3.34177 79.6507C6.3551 73.9323 10.8471 69.1268 16.3496 65.7352C16.7764 65.504 17.0958 65.1153 17.24 64.6519C17.3841 64.1884 17.3414 63.687 17.121 63.2546C16.8632 62.8081 16.4389 62.4819 15.9412 62.3471C15.7334 62.2803 15.5137 62.2592 15.297 62.2853C15.0803 62.3114 14.8718 62.384 14.6859 62.4983C8.63161 66.1668 3.67007 71.3895 0.316677 77.6238C0.0517368 78.0341 -0.0412273 78.5321 0.0578175 79.0103C0.15686 79.4886 0.439932 79.9087 0.846033 80.18Z" fill="white"/>
<path d="M11.1314 75.5365C7.76628 79.6651 5.68608 84.69 5.14838 89.9891C4.61069 95.2881 5.6391 100.628 8.10626 105.349C10.656 110.096 14.5354 113.997 19.2689 116.572C20.2974 117.116 21.3864 117.57 22.4603 118.084L23.2317 118.387C23.5408 118.493 23.8316 118.646 24.0938 118.841L24.4114 119.113L24.5476 119.521C24.6806 120.155 24.6806 120.809 24.5476 121.442C24.5357 121.644 24.5357 121.846 24.5476 122.047L24.2299 130.336L23.9123 130.744C23.757 130.921 23.6387 131.127 23.5645 131.35C23.1629 132.527 23.0158 133.776 23.1331 135.015C23.2505 136.253 23.6295 137.453 24.245 138.534C24.3671 138.764 24.5393 138.963 24.7487 139.118C24.9581 139.272 25.1995 139.378 25.4551 139.427C25.744 139.48 26.0412 139.467 26.3242 139.388C26.6072 139.309 26.8686 139.167 27.0886 138.973L43.8778 125.224C44.2409 124.936 44.604 124.619 44.9519 124.316L45.5267 123.832C47.4007 122.022 49.5499 120.521 51.8944 119.385C53.6978 118.717 55.6144 118.409 57.5362 118.478C58.6555 118.478 59.7899 118.478 60.9243 118.599L63.1931 118.705L74.023 118.962C88.7098 119.234 103.412 119.295 117.72 119.143C124.633 119.143 132.074 118.992 139.728 118.735C142.777 118.696 145.815 118.372 148.803 117.767C152.072 117.124 155.141 115.714 157.758 113.653C161.993 110.189 163.672 104.986 162.628 98.5272C161.663 92.5818 159.976 86.7762 157.606 81.2388C155.463 75.8837 151.745 71.3055 146.943 68.11C142.119 65.3801 136.719 63.8255 131.182 63.5723C126.415 63.2526 121.633 63.1819 116.858 63.3605L45.8594 64.4648C34.243 64.5706 19.8739 64.7974 11.1314 75.5365Z" fill="white"/>
<path d="M156.23 49.3393C160.698 50.8679 165.287 52.0164 169.949 52.7727C173.569 53.4352 177.235 53.8095 180.915 53.892C184.383 53.9763 187.83 53.3322 191.034 52.0013C198.173 48.8855 199.534 41.232 199.912 34.1381C200.366 25.6225 198.143 18.6648 193.454 14.0061C188.341 8.92398 181.051 6.4434 175.303 4.93086C166.911 2.69987 158.352 1.14702 149.711 0.287327C147.699 0.0906955 145.793 -6.10352e-05 143.993 -6.10352e-05C136.945 -6.10352e-05 131.379 1.51249 127.068 4.53758C121.366 8.57608 118.416 15.1255 118.764 23.0209C119.044 26.6395 119.703 30.2187 120.73 33.6995C120.963 34.3437 121.034 35.0352 120.936 35.7131C120.839 36.391 120.576 37.0345 120.171 37.5868L114.937 46.3293C114.748 46.5883 114.646 46.9009 114.646 47.2217C114.646 47.5425 114.748 47.8551 114.937 48.1141L115.194 48.4923V48.946C115.201 49.4015 115.367 49.8403 115.663 50.1863C115.822 50.3597 116.017 50.4967 116.233 50.5881C116.45 50.6795 116.684 50.723 116.919 50.7157H117.025C121.321 50.5728 125.555 49.6449 129.518 47.978L131.303 47.2973C134.812 45.9663 138.714 44.4537 142.753 44.5445C144.773 44.7162 146.738 45.2923 148.531 46.2385L149.559 46.7074C151.904 47.7662 154.082 48.6133 156.23 49.3393Z" fill="white"/>
<path d="M118.583 43.5008C123.907 41.6252 122.288 33.2306 121.441 29.2375C120.371 25.3657 120.063 21.323 120.534 17.3338C121.17 14.0648 122.796 11.0707 125.192 8.75766C130.532 3.47887 138.155 2.04189 145.4 2.26877C153.665 2.65691 161.877 3.80116 169.934 5.68714C176.71 7.19969 183.546 9.33242 189.022 13.6734C194.247 17.8361 197.635 23.8788 198.46 30.5081C198.908 33.8151 198.723 37.1772 197.916 40.4152C197.114 43.5613 195.707 47.131 193.03 49.1275C190.096 51.3056 185.936 51.6837 182.442 51.6686C178.642 51.5742 174.87 50.9895 171.219 49.9291C163.157 47.7511 155.383 44.0302 147.019 43.3344C138.623 42.6264 130.205 44.41 122.818 48.462C122.395 48.7083 121.916 48.8436 121.426 48.8553C121.063 49.0368 120.67 49.1881 120.277 49.3393C116.51 50.625 114.922 44.7865 118.583 43.5008ZM175.833 34.0777L175.954 35.0003C176.112 35.5709 176.414 36.0916 176.831 36.5128L177.542 37.0573C177.925 37.2962 178.361 37.4365 178.812 37.4658C179.264 37.5785 179.737 37.5785 180.189 37.4658C180.623 37.3607 181.024 37.1474 181.353 36.8457L181.61 36.6339L182.125 36.2255L182.669 35.5298C182.669 35.5298 183.017 34.728 183.017 34.7129C183.017 34.607 183.017 34.3348 183.017 34.244C183.017 34.1533 183.017 33.881 183.017 33.7751V33.6693C183.017 33.518 183.017 33.1852 183.017 33.2004C183.017 33.2155 183.017 32.8827 183.017 32.7315C183.022 32.666 183.022 32.6003 183.017 32.5348C182.845 32.0731 182.633 31.6277 182.382 31.2038C182.077 30.6944 181.651 30.2684 181.142 29.9636C180.758 29.7247 180.322 29.5844 179.871 29.5552C179.42 29.4345 178.945 29.4345 178.495 29.5552C177.921 29.7158 177.4 30.0234 176.982 30.4475C176.725 30.7652 176.468 31.0677 176.241 31.4004C176.061 31.7248 175.909 32.0639 175.787 32.4139C175.683 32.7467 175.632 33.0938 175.636 33.4424C175.625 33.7496 175.666 34.0563 175.757 34.3499L175.833 34.0777ZM155.61 26.636C155.62 26.8846 155.672 27.1297 155.761 27.362V27.4678C155.755 28.0749 155.917 28.6718 156.23 29.1922L156.759 29.8879C157.177 30.3126 157.698 30.6203 158.272 30.7803L159.179 30.9014C159.642 30.9238 160.103 30.8192 160.51 30.5988C160.936 30.4654 161.317 30.2197 161.615 29.8879C161.944 29.5885 162.189 29.2077 162.325 28.7838C162.539 28.3789 162.643 27.9253 162.628 27.4678C162.628 27.241 162.628 27.0141 162.628 26.8023C162.628 26.5906 162.537 26.0914 162.477 25.7435V25.5923V25.4108C162.341 25.0932 162.22 24.7604 162.053 24.4428C161.757 23.9355 161.335 23.5134 160.828 23.2176L160.011 22.8697C159.413 22.7034 158.78 22.7034 158.181 22.8697L157.349 23.2176C156.961 23.4222 156.632 23.7246 156.396 24.0949C156.099 24.4399 155.883 24.8476 155.765 25.2876C155.647 25.7276 155.63 26.1885 155.716 26.636H155.61ZM134.933 21.1454L135.054 22.0529C135.16 22.3252 135.281 22.5975 135.402 22.8697C135.459 22.9749 135.53 23.0716 135.614 23.1571C135.648 23.2506 135.688 23.3415 135.735 23.4294C135.901 23.6714 136.083 23.8982 136.264 24.1251C136.566 24.4521 136.946 24.6968 137.368 24.836C137.776 25.0564 138.237 25.161 138.7 25.1386C139.158 25.1613 139.613 25.0566 140.015 24.836C140.444 24.7004 140.83 24.4553 141.135 24.1251L141.286 23.989C141.483 23.747 141.679 23.5201 141.861 23.2629C142.006 22.9865 142.128 22.6981 142.224 22.4009C142.224 22.0832 142.33 21.7656 142.345 21.4328C142.332 21.0706 142.281 20.7106 142.193 20.3589C142.202 20.2885 142.202 20.2174 142.193 20.1471C142.033 19.5772 141.731 19.057 141.316 18.6345L140.62 18.1052C140.238 17.8529 139.793 17.7115 139.335 17.6968C139.039 17.6039 138.723 17.6039 138.427 17.6968C137.969 17.7115 137.524 17.8529 137.142 18.1052C137.004 18.1502 136.872 18.2111 136.748 18.2867L136.037 18.8312L135.493 19.527C135.493 19.527 135.145 20.3437 135.145 20.3589C135.082 20.658 135.042 20.9614 135.024 21.2664L134.933 21.1454Z" fill="#FBB03B"/>
<path d="M131.122 63.4967C136.659 63.7477 142.059 65.3024 146.882 68.0344C151.681 71.2335 155.399 75.8106 157.546 81.1633C159.922 86.6986 161.608 92.5049 162.567 98.4517C163.626 104.85 161.932 110.053 157.697 113.577C155.082 115.641 152.012 117.051 148.743 117.691C145.784 118.289 142.777 118.618 139.758 118.674C132.09 118.916 124.633 119.007 117.751 119.068C103.442 119.234 88.7401 119.174 74.0381 118.886L63.2082 118.629C62.4822 118.629 61.6957 118.629 60.9394 118.523C59.8201 118.523 58.6857 118.402 57.5665 118.402C55.6396 118.332 53.7178 118.641 51.9095 119.31C49.5672 120.449 47.4185 121.95 45.5418 123.757L44.9821 124.241L43.893 125.148L27.1189 138.897C26.8983 139.091 26.6368 139.232 26.3539 139.311C26.0711 139.389 25.7743 139.403 25.4854 139.351C25.2278 139.302 24.9842 139.197 24.7723 139.043C24.5605 138.888 24.3855 138.689 24.2601 138.459C23.6518 137.375 23.2769 136.176 23.1597 134.938C23.0425 133.701 23.1856 132.453 23.5796 131.274C23.6597 131.054 23.7774 130.849 23.9274 130.669L24.2601 130.261L24.5628 121.972C24.5628 121.805 24.5628 121.594 24.5628 121.367C24.6945 120.733 24.6945 120.079 24.5628 119.446L24.4265 119.053L24.1089 118.78C23.8458 118.574 23.5491 118.416 23.2317 118.311L22.4754 118.009C21.3864 117.555 20.2974 117.101 19.2688 116.496C14.5385 113.917 10.6603 110.017 8.10625 105.273C5.63908 100.553 4.61067 95.2125 5.14836 89.9135C5.68607 84.6145 7.76627 79.5895 11.1313 75.461C19.8739 64.737 34.2581 64.495 45.7988 64.3135L116.889 63.2094C121.635 63.0585 126.385 63.1544 131.122 63.4967ZM58.4437 67.8226H54.3599H52.4238C47.6895 67.8226 42.6527 67.8226 37.6613 68.1251C34.5455 68.247 31.4447 68.6213 28.3894 69.2444C25.0995 69.9231 21.9588 71.1886 19.1174 72.9804C14.8459 75.8765 11.6261 80.0769 9.93858 84.954C8.2511 89.8311 8.18665 95.1231 9.75487 100.04C11.5195 104.965 14.8033 109.202 19.1326 112.14C20.1943 112.803 21.3131 113.37 22.4754 113.834L22.7779 113.97C23.9096 114.407 25.0026 114.938 26.045 115.559C28.2382 116.95 28.3137 119.113 28.1927 122.244L27.7542 133.588L40.5352 123.121L42.2292 121.715L42.6225 121.382C44.335 119.898 46.1276 118.51 47.9921 117.222C50.6204 115.58 53.6659 114.73 56.7648 114.772C61.3024 114.651 66.1577 114.772 70.0298 114.969H71.4063C73.4785 114.969 75.5507 115.12 77.6228 115.15C84.157 115.256 91.2357 115.332 98.5413 115.362C112.668 115.362 126.508 115.362 140.378 114.863C146.701 114.636 153.099 113.759 157.016 108.994C160.677 104.547 159.089 98.5122 157.803 93.6569L157.5 92.5074C156.109 87.0471 154.339 81.3599 150.981 76.7164C147.696 72.2832 142.922 69.1843 137.535 67.989C132.195 66.8445 126.728 66.4072 121.275 66.6882C116.586 66.6882 111.852 66.8092 107.148 66.9L58.4437 67.8226Z" fill="black"/>
<path d="M134.374 77.3819C134.54 77.6936 134.628 78.0417 134.628 78.3953C134.628 78.7488 134.54 79.0969 134.374 79.4086C134.257 79.6066 134.099 79.7777 133.911 79.9107C133.724 80.0436 133.51 80.1354 133.285 80.18C133.129 80.2032 132.971 80.2032 132.816 80.18C128.399 80.18 123.967 80.0742 119.535 80.0742C109.311 80.0742 99.0556 80.2708 88.9064 80.6489C88.6463 80.6681 88.3856 80.6197 88.1497 80.5084C87.9139 80.3971 87.7108 80.2267 87.5602 80.0137C87.3893 79.7087 87.2997 79.365 87.2997 79.0154C87.2997 78.6659 87.3893 78.3221 87.5602 78.0171C87.7015 77.7318 87.916 77.4891 88.1817 77.3137C88.4474 77.1384 88.7549 77.0366 89.0727 77.0189C103.639 76.4744 118.386 76.3231 132.937 76.5651C133.23 76.5472 133.521 76.6148 133.777 76.7598C134.032 76.9049 134.239 77.121 134.374 77.3819Z" fill="black"/>
<path d="M79.1202 80.7246H78.9538C74.1685 81.3411 69.3489 81.6543 64.5241 81.6624C64.2829 81.6535 64.0464 81.5936 63.83 81.4867C63.6136 81.3798 63.4223 81.2284 63.2687 81.0422C63.1097 80.8762 62.9872 80.6787 62.9091 80.4625C62.8309 80.2463 62.7988 80.0161 62.8149 79.7868C62.8602 79.3094 63.0824 78.8662 63.4379 78.5444C63.7933 78.2225 64.2563 78.0453 64.7359 78.0474C69.2113 78.0503 73.6824 77.7673 78.1219 77.2004C78.7874 77.2004 80.1185 77.3214 80.3303 78.5466C80.4138 79.1166 80.2728 79.6968 79.937 80.1649C79.7447 80.4474 79.453 80.6472 79.1202 80.7246Z" fill="black"/>
<path d="M116.843 90.9645C116.672 90.6568 116.583 90.3106 116.583 89.9587C116.583 89.6067 116.672 89.2606 116.843 88.9529C116.994 88.688 117.215 88.4699 117.482 88.3231C117.749 88.1762 118.051 88.1062 118.356 88.1209C126.765 88.2873 135.311 88.2117 143.721 87.8941C144.119 87.9117 144.494 88.0856 144.765 88.3781C144.952 88.5643 145.101 88.7858 145.202 89.0299C145.303 89.2739 145.355 89.5357 145.355 89.7999C145.332 90.2086 145.169 90.597 144.893 90.8999C144.618 91.2028 144.247 91.4019 143.842 91.4637C143.691 91.4804 143.539 91.4804 143.388 91.4637C135.009 91.7813 126.493 91.857 118.083 91.6906C117.833 91.6819 117.588 91.611 117.372 91.4842C117.155 91.3575 116.973 91.1789 116.843 90.9645Z" fill="black"/>
<path d="M79.3775 88.9831C88.0339 89.5721 96.7236 89.466 105.363 88.6655C105.697 88.6167 106.039 88.6598 106.351 88.7904C106.663 88.9209 106.933 89.134 107.133 89.4067C107.348 89.6807 107.49 90.0049 107.545 90.3488C107.601 90.6927 107.568 91.0451 107.45 91.373C107.36 91.578 107.22 91.7573 107.043 91.8947C106.866 92.032 106.658 92.1231 106.437 92.1595H106.24C97.641 92.9527 88.9919 93.0589 80.3757 92.4771C76.0347 92.2956 71.6332 92.1141 67.2015 92.1141C61.9431 92.0645 56.6888 92.4236 51.4861 93.188C51.1718 93.2473 50.8473 93.221 50.5466 93.1119C50.246 93.0028 49.9801 92.8149 49.7769 92.5678C49.5541 92.295 49.4041 91.9703 49.3406 91.6239C49.2771 91.2774 49.3023 90.9205 49.4139 90.5864C49.5161 90.3394 49.6819 90.124 49.8945 89.9619C50.1071 89.7998 50.3588 89.6969 50.624 89.6638C60.1833 88.1815 69.9392 88.5294 79.3775 88.9831Z" fill="black"/>
<path d="M74.6735 102.445C84.9519 101.607 95.2732 101.425 105.575 101.9C113.516 102.097 121.638 102.294 129.624 101.9C129.827 101.879 130.032 101.898 130.227 101.958C130.422 102.018 130.603 102.117 130.759 102.248C130.905 102.392 131.021 102.564 131.099 102.754C131.177 102.943 131.216 103.147 131.212 103.352C131.252 103.827 131.122 104.301 130.845 104.689C130.568 105.076 130.162 105.353 129.7 105.47H129.337C121.517 105.878 113.561 105.651 105.862 105.47C101.325 105.349 96.6356 105.213 91.9618 105.213C86.4769 105.178 80.994 105.43 75.5356 105.969C75.2661 105.992 74.9948 105.961 74.7374 105.878C74.48 105.795 74.2416 105.661 74.0362 105.485C73.8307 105.309 73.6623 105.095 73.5406 104.853C73.4189 104.611 73.3464 104.348 73.3273 104.078C73.2923 103.88 73.3005 103.677 73.3517 103.482C73.4029 103.288 73.4957 103.106 73.6237 102.951C73.7516 102.796 73.9118 102.67 74.093 102.583C74.2743 102.495 74.4723 102.448 74.6735 102.445Z" fill="black"/>
<path d="M3.32655 79.6508C3.22219 79.8335 3.08077 79.9925 2.91148 80.1175C2.74219 80.2425 2.54872 80.3308 2.34335 80.3768C2.09085 80.4464 1.82707 80.4649 1.56732 80.4311C1.30758 80.3974 1.05712 80.312 0.830807 80.1801C0.426394 79.9114 0.143038 79.4952 0.0412998 79.0204C-0.0604401 78.5456 0.027523 78.0499 0.286312 77.6391C3.64987 71.4072 8.61547 66.1857 14.6706 62.5136C14.8547 62.4015 15.0605 62.33 15.2744 62.3039C15.4883 62.2779 15.7053 62.2978 15.9109 62.3624C16.1589 62.4301 16.3911 62.5466 16.5936 62.705C16.7962 62.8634 16.9652 63.0606 17.0907 63.285C17.3103 63.7152 17.3525 64.2143 17.2083 64.6752C17.0641 65.1362 16.7449 65.5222 16.3193 65.7505C10.8243 69.14 6.3379 73.9398 3.32655 79.6508Z" fill="black"/>
<path d="M142.753 44.6655C138.715 44.5747 134.812 46.0873 131.318 47.4183L129.533 48.099C125.565 49.7648 121.326 50.6926 117.025 50.8367H116.919C116.684 50.844 116.45 50.8005 116.233 50.7091C116.017 50.6178 115.822 50.4807 115.663 50.3073C115.365 49.9626 115.199 49.5229 115.194 49.067V48.6132L114.937 48.2351C114.748 47.976 114.646 47.6636 114.646 47.3427C114.646 47.0219 114.748 46.7093 114.937 46.4503L120.186 37.7078C120.587 37.1538 120.848 36.5104 120.946 35.8332C121.043 35.156 120.974 34.4653 120.746 33.8206C119.717 30.34 119.058 26.7607 118.779 23.142C118.431 15.2616 121.381 8.69711 127.083 4.65861C131.379 1.63352 136.945 0.120972 143.993 0.120972C145.808 0.120972 147.714 0.211728 149.711 0.408359C158.357 1.26803 166.92 2.82087 175.318 5.05189C181.096 6.56444 188.387 8.99964 193.469 14.1272C198.158 18.7858 200.396 25.7435 199.942 34.2592C199.549 41.353 198.203 49.0216 191.064 52.1223C187.86 53.4519 184.413 54.096 180.945 54.013C177.261 53.9295 173.589 53.5552 169.964 52.8937C165.305 52.1336 160.716 50.9902 156.245 49.4754C154.097 48.7342 151.919 47.8872 149.59 46.8889L148.546 46.42C146.752 45.4539 144.782 44.8573 142.753 44.6655ZM159.134 46.541C166.085 48.8618 173.346 50.1213 180.673 50.2771H181.535C184.466 50.3533 187.376 49.7692 190.05 48.5679C191.52 47.8028 192.785 46.6959 193.737 45.3403C194.69 43.9848 195.304 42.4202 195.526 40.7782C196.766 34.607 197.386 25.9099 193.197 19.4362C189.491 13.7037 182.518 11.0113 177.587 9.49878C170.168 7.27766 162.58 5.66399 154.899 4.67375C151.207 4.07408 147.476 3.74051 143.736 3.67551C139.65 3.56212 135.591 4.37383 131.863 6.05013C128.392 7.61723 125.582 10.3526 123.922 13.7793C122.439 17.3328 121.952 21.2234 122.515 25.0327C122.715 26.8707 123.054 28.6909 123.529 30.4778L123.892 31.7634C124.43 33.2134 124.677 34.7555 124.618 36.3011C124.292 37.9467 123.599 39.4977 122.591 40.8387L121.925 41.9126L118.567 47.5091L121.986 46.768C124.671 46.1191 127.305 45.2748 129.866 44.2419C132.386 43.2288 134.974 42.3948 137.611 41.7463C141.189 40.8142 144.974 41.069 148.395 42.4723L149.03 42.7445C152.433 44.0151 155.655 45.3915 159.134 46.4806V46.541Z" fill="black"/>
<path d="M174.895 29.0257C176.025 28.1364 177.338 27.5083 178.74 27.1866C180.142 26.865 181.597 26.8577 183.002 27.1653C183.236 27.2245 183.454 27.3353 183.64 27.4897C183.826 27.6442 183.975 27.8383 184.076 28.0578L184.212 28.33L184.424 28.5115C184.568 28.629 184.682 28.7794 184.757 28.9501C185.335 30.2226 185.697 31.5822 185.83 32.9735C186.008 34.2971 185.792 35.6437 185.21 36.8457C184.363 38.3582 182.533 39.2808 179.644 39.4321H178.873C177.874 39.4917 176.882 39.2436 176.029 38.7212C174.926 37.9191 174.093 36.8009 173.639 35.5146C173.142 34.4379 172.996 33.2322 173.221 32.0678C173.446 30.9034 174.032 29.8392 174.895 29.0257ZM179.78 36.5885C184.212 36.5885 184.197 29.7064 179.78 29.7064C175.364 29.7064 175.348 36.5734 179.78 36.5734V36.5885Z" fill="black"/>
<path d="M133.95 17.4397C134.617 16.4518 135.577 15.6984 136.695 15.2859C137.814 14.8734 139.033 14.8225 140.182 15.1406C141.537 15.6547 142.76 16.4646 143.762 17.5112C144.764 18.5579 145.52 19.8149 145.975 21.1908C146.046 21.4212 146.065 21.665 146.028 21.9035C145.991 22.142 145.901 22.369 145.763 22.5673L145.597 22.8244V23.1117C145.573 23.2916 145.505 23.4629 145.4 23.6109C144.614 24.7748 143.638 25.7976 142.511 26.636C141.47 27.4766 140.211 28.0014 138.881 28.1486H138.684C136.96 28.1486 135.357 27.0292 133.784 24.715C132.986 23.7392 132.534 22.5265 132.498 21.2665C132.576 19.8717 133.083 18.5351 133.95 17.4397ZM138.836 24.8965C139.67 24.9214 140.48 24.6186 141.094 24.0532C141.707 23.4878 142.075 22.7046 142.118 21.8714L142.375 21.5992L142.148 21.2665C142.156 20.8299 142.076 20.3962 141.913 19.9914C141.749 19.5866 141.505 19.219 141.195 18.911C140.886 18.6029 140.517 18.3607 140.112 18.1988C139.706 18.037 139.272 17.9588 138.836 17.9691C134.343 18.0598 134.343 25.0024 138.775 25.0024L138.836 24.8965Z" fill="black"/>
<path d="M152.736 24.6696C153.039 22.8848 154.506 21.5083 157.198 20.4344C158.033 20.0604 158.931 19.845 159.845 19.7992C160.182 19.7998 160.518 19.8457 160.843 19.9354C162.138 20.3418 163.281 21.1268 164.125 22.189C164.947 23.0529 165.475 24.1535 165.635 25.3346C165.795 26.5157 165.579 27.7172 165.018 28.7686C164.239 29.9798 163.2 31.0012 161.975 31.7577C160.75 32.5141 159.371 32.9864 157.939 33.1399C157.695 33.157 157.451 33.1198 157.223 33.0308C156.996 32.9419 156.791 32.8034 156.623 32.6256L156.411 32.4139L156.139 32.308C155.973 32.2393 155.824 32.1362 155.701 32.0055C154.737 30.989 153.959 29.8116 153.401 28.5266C152.805 27.3344 152.574 25.9928 152.736 24.6696ZM159.013 29.6912C163.445 29.6912 163.43 22.8091 159.013 22.8091C154.596 22.8091 154.581 29.6912 159.013 29.6912Z" fill="black"/>
</svg>
