<svg width="64" height="64" viewBox="0 0 64 64" fill="none" xmlns="http://www.w3.org/2000/svg">
<path d="M57.7998 38.0907C59.8641 35.5636 61.7422 32.8286 63.4132 29.9161C64.5892 27.862 63.8784 24.8965 62.3365 23.4646C60.5943 21.8518 58.481 22.2534 56.8468 23.8559C56.5204 24.1764 56.1923 24.4941 55.8624 24.809L55.2335 25.398L54.7108 25.8746C54.331 26.2131 53.9489 26.5482 53.5644 26.8798C52.2403 28.023 50.8924 29.1246 49.5207 30.1846C46.8203 32.2782 44.0431 34.2303 41.2277 36.097C39.2334 37.4192 37.2252 38.7109 35.2031 39.9721C39.1893 35.2243 43.2359 30.5446 47.3429 25.9328C50.1305 22.8112 52.8658 19.6333 55.3101 16.1245C56.6569 14.1933 56.9862 11.6522 55.6377 9.56695C54.4181 7.69394 52.0051 6.91977 50.2368 8.27874L21.2809 30.6382C24.8264 26.2367 28.5983 22.0953 32.4312 18.0704C35.3146 15.0507 38.2102 12.0352 40.6511 8.47645C41.9873 6.53476 42.3323 4.01453 40.9768 1.91885C39.6667 -0.108161 37.4628 -0.516058 35.5759 0.632718L21.4256 9.29016L21.9256 8.49933C22.5336 7.5337 22.6016 5.75851 22.3472 4.65135C22.0789 3.49217 21.3297 2.23726 20.4308 1.66495C19.4603 1.0531 18.2843 0.747175 17.2076 1.16132C16.1309 1.57546 15.4009 2.36004 14.7093 3.45054L3.61827 21.0422C2.55726 22.7258 3.02417 25.7268 4.27161 27.0962C5.69849 28.6591 7.62014 28.9255 9.33972 27.8766L14.4567 24.7549C11.6001 28.3844 8.91969 32.206 6.42848 36.2011C4.23575 39.718 2.26618 43.4257 0.536263 47.2934C-0.306975 49.1914 -0.204182 51.8178 1.19134 53.3474C2.52066 54.8042 4.66011 55.3619 6.25773 54.1278L21.3402 42.4902C20.8628 43.0812 20.3837 43.6702 19.9081 44.2633C17.1298 47.7069 14.3626 51.1636 11.6064 54.6335C10.9012 55.4971 10.48 56.6352 10.4198 57.8394C10.3597 59.0437 10.6646 60.2335 11.2788 61.1911C12.5925 63.2244 14.7894 63.6177 16.6797 62.4793C22.3559 59.0427 28.0268 55.5971 33.6926 52.1424C32.7567 53.5604 31.8843 55.0366 31.0792 56.5648C30.1907 58.2651 30.4137 60.5793 31.4068 62.1131C32.5131 63.8237 34.0811 64.2129 35.8007 63.9028C43.0013 62.6063 49.9284 59.9487 56.5018 56.2214C58.4845 55.0997 59.1517 51.5202 58.0019 49.387C56.6882 46.9521 54.4007 46.3944 52.2804 47.5952C51.5138 48.0301 50.7403 48.4422 49.965 48.8439L49.9353 48.8584L49.4963 49.0665C49.1043 49.2559 48.7088 49.4432 48.3134 49.6243C47.721 49.9018 47.1257 50.1626 46.5276 50.4068L47.2157 49.6534C50.7472 45.8221 54.4617 42.1947 57.7998 38.0907Z" fill="#59E1FF"/>
<path d="M21.2229 59.9246C21.2681 59.9246 21.3133 59.9246 21.3604 59.9246L35.4456 59.6333L42.2917 59.4917C44.6039 59.4439 46.9632 59.5334 49.2597 59.2212C53.4007 58.6551 56.5576 55.7395 57.8541 51.5606C59.1016 47.5337 58.7146 42.9989 58.7048 38.8284L58.6654 22.0587C58.6654 19.5156 54.933 19.5093 54.933 22.0587L54.9644 35.9294L54.9821 42.7617C54.9821 44.5993 55.0194 46.4702 54.7523 48.2912C54.2356 51.8083 52.4146 54.7843 48.8825 55.317C46.8591 55.623 44.7257 55.4877 42.6846 55.5251L36.2274 55.6604L21.6571 55.9705C21.559 55.9631 21.4605 55.9631 21.3624 55.9705C19.5951 56.0853 17.8222 56.0609 16.0584 55.8977C14.7815 55.7749 12.8779 55.7624 11.8093 54.9071C10.7406 54.0517 10.4675 52.0476 10.2946 50.7656C10.0609 49.0362 10.0982 47.2652 10.0982 45.5233C10.1296 37.844 10.2207 30.1647 10.3713 22.4853C10.444 18.8559 10.5559 15.2014 11.3987 11.6635C11.548 11.0392 11.658 10.2942 12.0076 9.75308C12.3573 9.21199 12.9152 9.09753 13.4928 8.97266C15.1233 8.62095 16.8226 8.50025 18.4766 8.34833C25.6115 7.69277 32.7897 7.8447 39.9344 8.26924C41.9165 8.38579 43.8967 8.52522 45.8769 8.67298C47.5702 8.79993 49.3245 8.81241 50.9844 9.17036C52.4028 9.47629 53.6089 10.0611 54.2926 11.4742C54.9369 12.7978 55.0784 14.3877 55.1943 15.8445C55.2827 16.908 55.98 17.8216 57.0605 17.8216C57.9995 17.8216 59.025 16.9142 58.9267 15.8445C58.6321 12.3566 58.0192 8.71044 55.0587 6.63141C53.5952 5.60333 51.8233 5.27035 50.1122 5.0664C48.2598 4.8458 46.3797 4.75216 44.5273 4.61896C36.4946 4.03833 28.4187 3.65125 20.3762 4.23604C18.3398 4.3831 16.3098 4.59676 14.2864 4.87702C12.5302 5.12259 10.6954 5.39522 9.4244 6.84784C8.19858 8.24635 7.8116 10.3316 7.47764 12.1443C7.105 14.2552 6.86805 16.3905 6.76845 18.5354C6.31466 27.0909 6.41681 35.7192 6.37556 44.2871C6.35199 48.4722 6.00823 53.829 8.75454 57.2421C10.2082 59.0443 12.4634 59.3815 14.5536 59.6707C16.7645 59.974 18.9972 60.059 21.2229 59.9246Z" fill="black"/>
<path d="M23.5646 27.4592C23.5882 26.2626 22.7788 25.6299 21.9066 25.5571C21.805 25.5336 21.7019 25.5176 21.5982 25.5092C19.0679 25.3136 16.5345 25.2082 13.9977 25.1929C12.1983 25.1825 11.7445 27.3989 12.6422 28.5227C12.6003 31.969 12.5401 35.4147 12.4615 38.8596C12.3711 42.5765 12.0116 46.387 12.3692 50.0976C12.3918 50.4429 12.4898 50.7779 12.6555 51.0762C12.8212 51.3745 13.05 51.628 13.3239 51.8166C13.634 52.049 14.0049 52.1727 14.3847 52.1704C16.6111 52.2037 18.8322 52.3237 21.0481 52.5304C22.0539 52.6241 22.9143 51.5544 22.9143 50.5534C22.9146 50.3862 22.8942 50.2197 22.8535 50.0581C23.177 42.5189 23.414 34.9859 23.5646 27.4592ZM19.1878 48.414C18.1211 48.337 17.0505 48.2829 15.9818 48.2475C15.8581 45.1258 16.1193 41.9584 16.1939 38.8534C16.2699 35.6346 16.3269 32.4137 16.3649 29.1907C17.5056 29.2226 18.6469 29.2719 19.7889 29.3385C19.6501 35.6942 19.4497 42.0493 19.1878 48.4036V48.414Z" fill="black"/>
<path d="M22.7926 10.9831C19.7477 9.11007 16.4513 10.8749 14.4279 13.4388C14.3965 13.4659 14.3631 13.4908 14.3317 13.522C11.44 16.2275 13.0666 20.5521 15.7206 22.6228C18.5474 24.8267 22.8358 23.9526 24.5881 20.7081C26.3011 17.5324 26.0143 12.9622 22.7926 10.9831ZM21.5059 18.4335C21.3634 18.7588 21.158 19.0489 20.9029 19.2847C20.6478 19.5206 20.3487 19.697 20.0252 19.8025C19.7016 19.9081 19.3607 19.9405 19.0246 19.8975C18.6884 19.8545 18.3646 19.7372 18.074 19.5531C17.1684 18.9808 16.0093 17.5636 16.7853 16.5251C16.9022 16.4203 17.0095 16.3039 17.1055 16.1775C17.2016 16.0723 17.286 15.9557 17.357 15.83C18.1428 14.779 19.5787 13.6719 20.8556 14.3732C22.2406 15.1183 22.0756 17.1786 21.5098 18.4335H21.5059Z" fill="black"/>
<path d="M50.6624 28.1003C48.5604 25.2617 45.27 23.5989 41.8656 24.3668C39.7302 24.8496 37.9366 26.1628 36.2766 27.6674C36.2766 27.6133 36.2766 27.5592 36.2766 27.5051C36.3002 26.4646 35.4025 25.4823 34.4104 25.5281L34.2867 25.5405H34.2435L26.753 25.2554C26.4432 25.227 26.1322 25.2935 25.8571 25.447C25.5819 25.6005 25.3543 25.8345 25.2011 26.1212C24.9749 26.4568 24.8596 26.862 24.873 27.2741C24.9319 34.8563 24.8986 42.4371 24.7728 50.0166C24.7556 50.3336 24.8195 50.6496 24.9578 50.9313C25.0961 51.213 25.3037 51.4499 25.5586 51.6169C25.7007 51.9376 25.9251 52.2095 26.2061 52.4016C26.4871 52.5937 26.8134 52.6982 27.1478 52.7033C28.1517 52.7511 29.1575 52.8032 30.1613 52.8469C30.6151 52.8677 31.0689 52.8843 31.5227 52.8469C31.9765 52.8094 32.4872 52.6138 32.9135 52.6991C33.2655 52.781 33.6318 52.7621 33.9746 52.6443C34.3175 52.5265 34.6245 52.3141 34.8642 52.029C35.817 52.0581 36.7717 51.4255 36.7304 50.1227C36.6558 47.7003 36.6499 45.2758 36.7304 42.8533C36.7678 41.7067 36.7304 38.8784 38.3452 38.8514C38.7042 38.8566 39.0597 38.927 39.3962 39.0595C39.4536 39.2646 39.4995 39.473 39.5337 39.6838C39.7206 40.765 39.8244 41.8605 39.8441 42.9595C39.9306 45.3965 39.9011 47.8418 39.9188 50.2809C39.9188 51.1133 40.4924 51.9978 41.2939 52.1872C44.1463 52.8656 47.8827 53.8063 50.5897 52.2121C51.5483 52.0935 52.1338 51.2402 52.2281 50.2496C52.6021 46.3428 52.787 42.4182 52.782 38.4913C52.7683 34.8286 52.9018 31.1283 50.6624 28.1003ZM46.0105 49.0093C45.2248 48.9385 44.439 48.8157 43.6532 48.6659C43.663 46.027 43.7082 43.3632 43.4312 40.7577C43.28 39.33 43.1758 37.5964 42.2349 36.4643C41.2939 35.3322 39.7203 34.943 38.3472 34.9118C35.4869 34.8431 33.605 37.5694 33.2043 40.3102C32.8035 43.0511 32.8644 45.9875 32.9548 48.8095C32.1415 48.8095 31.3361 48.9385 30.5012 48.9115C29.8431 48.8907 29.185 48.8574 28.5367 48.8241C28.6349 42.3032 28.6657 35.79 28.629 29.2845L32.5796 29.4343C32.5992 29.8505 32.6228 30.2668 32.6581 30.683C32.6779 30.9022 32.7248 31.1177 32.7976 31.324C32.7976 31.5321 32.7976 31.7402 32.7976 31.9483C32.7878 33.7173 34.819 34.4852 35.9839 33.3468C37.9484 31.4259 40.0013 28.8932 42.7142 28.2231C45.0185 27.655 47.2658 29.4031 48.3325 31.4738C48.9376 32.6476 48.971 33.942 49.0083 35.249C49.0581 36.8722 49.0725 38.4969 49.0515 40.1229C49.0175 43.0656 48.8747 46.0042 48.6233 48.9385C47.9239 49.3298 46.6824 49.0696 46.0105 49.0093Z" fill="black"/>
</svg>
