<svg width="64" height="64" viewBox="0 0 64 64" fill="none" xmlns="http://www.w3.org/2000/svg">
<path d="M62.1887 27.3056C60.2891 25.7069 58.0217 26.1179 56.2448 27.6899C55.9052 27.9899 55.5657 28.2899 55.2224 28.5837C55.0487 28.7075 54.8835 28.8449 54.7282 28.9947C54.0698 29.5331 53.4077 30.0653 52.7381 30.5852C51.3673 31.651 49.9683 32.6737 48.5409 33.6532C45.6454 35.6526 42.6555 37.4855 39.6053 39.187C36.5551 40.8884 33.4143 42.4748 30.2528 43.9646L30.0962 44.0365C37.0436 36.8773 44.0231 29.755 50.4235 22.0019C53.8076 17.8921 57.5332 13.6837 59.1592 8.34921C59.7251 6.48336 58.8951 4.31134 57.5369 3.16677C56.2165 2.06123 53.9529 1.62149 52.5079 2.78045L35.1535 16.7167C37.4926 13.7289 39.7279 10.6363 41.784 7.41218C42.8781 5.6984 42.465 2.82566 41.0767 1.43655C39.6242 -0.0162582 37.3379 -0.532036 35.5911 0.665966C31.6612 3.35788 27.7905 6.14774 23.9788 9.03555C24.0436 8.60407 24.0783 8.16787 24.0825 7.73069C24.1052 5.14974 21.983 2.67976 19.5553 2.79895C17.1276 2.91813 15.1318 4.88671 15.0281 7.57246C14.8394 7.93206 14.6508 8.29578 14.4188 8.64306C13.8302 9.55338 13.204 10.437 12.5928 11.3309L8.56355 17.2428L0.618251 28.8981C-0.0117895 29.8228 -0.153274 31.6373 0.161746 32.6997C0.444293 33.7165 1.01148 34.6117 1.784 35.2601C3.67035 36.8424 5.97547 36.4766 7.72789 34.8758L8.67106 34.0169C6.43724 37.0119 4.36989 40.1499 2.48008 43.4139C1.45956 45.1975 1.74629 47.949 3.18746 49.3895C4.56261 50.7643 7.02994 51.4794 8.67295 50.1601L19.1686 41.7351L18.1933 42.7625C14.8243 46.2969 11.5044 49.8868 8.30135 53.6C6.9809 55.1391 6.48856 57.7098 7.59208 59.5756C8.62202 61.3141 10.7838 62.6025 12.706 61.836C22.3905 58.0016 32.1712 54.1322 41.4577 49.2005C39.7638 51.3924 38.0094 53.5199 36.1948 55.583C35.417 56.4312 34.9495 57.559 34.8797 58.7555C34.8099 59.952 35.1426 61.1352 35.8156 62.0838C36.4885 63.0325 37.4557 63.6816 38.5361 63.9098C39.6165 64.138 40.7363 63.9297 41.6859 63.3238C43.0649 62.4915 44.4758 61.7518 45.9057 61.0326L46.0227 60.975L46.066 60.9565C46.4829 60.7757 46.8998 60.5908 47.3186 60.4181C48.0014 60.1359 48.6931 59.8709 49.3936 59.6229C52.3305 58.575 55.3483 57.8185 58.4103 57.3625C59.4497 57.2063 60.6136 56.0309 61.1153 55.1021C61.6812 54.0459 61.9246 52.4883 61.5718 51.3026C61.2191 50.117 60.5381 48.958 59.4969 48.3559C58.3443 47.6922 57.2861 47.6655 56.009 47.8586C55.2318 47.9765 54.4578 48.1134 53.6869 48.2696C57.022 43.492 60.2023 38.5787 63.3676 33.6799C64.6522 31.6579 63.8392 28.6926 62.1887 27.3056Z" fill="#487CBF"/>
<path d="M58.0869 10.4392C56.5939 8.66835 54.2777 8.33746 52.131 8.05355C49.857 7.75428 47.5606 7.66881 45.2711 7.79824H45.1298L30.6636 8.08419L23.6322 8.22308C21.2575 8.27005 18.8343 8.18223 16.4757 8.49065C12.2226 9.04621 8.98032 11.9057 7.6487 16.0091C6.36752 19.9593 6.76499 24.412 6.77508 28.5032L6.81542 44.9637C6.81542 47.4597 10.6489 47.4638 10.6489 44.9637L10.6166 31.3484L10.5984 24.6428C10.5984 22.8393 10.5601 21.0031 10.8345 19.2159C11.3651 15.7661 13.2355 12.8432 16.8631 12.3204C18.9413 12.0201 21.1324 12.1549 23.2287 12.1161L29.8606 11.9854L44.8252 11.6892C44.9259 11.6965 45.0271 11.6965 45.1278 11.6892C46.9429 11.5745 48.7639 11.5984 50.5754 11.7607C51.8868 11.8792 53.8419 11.8935 54.9395 12.7309C56.037 13.5683 56.3175 15.5393 56.4951 16.7955C56.7352 18.4949 56.6968 20.231 56.6968 21.9426C56.6645 29.4795 56.5711 37.0163 56.4164 44.5532C56.3417 48.1133 56.2267 51.702 55.3612 55.1743C55.2078 55.787 55.0948 56.5182 54.7357 57.0493C54.3766 57.5803 53.8036 57.6927 53.2104 57.8152C51.5358 58.1604 49.7804 58.2768 48.0917 58.428C46.7924 58.5424 45.4917 58.6322 44.1897 58.6976C44.7319 53.5726 44.8419 48.4103 44.5185 43.2664L51.5519 43.2358C52.0582 43.2289 52.5417 43.0223 52.8997 42.6599C53.2577 42.2974 53.4619 41.8079 53.4686 41.2954C53.4606 39.0718 53.4518 36.8475 53.4424 34.6225C53.4424 33.4787 52.5607 32.8088 51.5257 32.6821C49.6749 32.4534 47.8261 32.2253 45.9793 31.9979C45.1722 31.8978 43.7175 31.9101 43.9173 30.7908C44.3591 28.303 47.8193 28.1355 49.5061 29.1976C50.4785 29.8104 52.1148 29.2711 52.3307 28.0375C52.6677 26.0399 53.2326 23.9524 53.3213 21.9202C53.4081 19.9696 52.3125 18.5092 50.5512 17.8106C48.9653 17.1795 47.0708 17.0814 45.3841 16.9814C43.3657 16.8414 41.338 17.0108 39.3696 17.4838C36.2201 18.2824 33.232 20.1861 31.5433 23.0456C29.9897 25.6722 29.7274 28.7421 29.788 31.7507L27.1651 31.6302C26.0614 31.5792 25.3391 32.5637 25.2483 33.5706C25.0277 35.993 24.9094 38.4202 24.8932 40.8522C24.8932 41.659 25.4985 42.5475 26.3056 42.7231C27.823 43.0508 29.3628 43.2611 30.9118 43.3522C31.0207 48.4789 30.9333 53.6036 30.6495 58.7262C29.1241 58.6663 27.5995 58.5934 26.0755 58.5076C24.0391 58.3919 22.0047 58.2557 19.9723 58.0991C18.2331 57.9766 16.4314 57.9643 14.7265 57.611C13.2698 57.3128 12.0309 56.7388 11.3288 55.352C10.667 54.0509 10.5218 52.4924 10.4027 51.0627C10.3119 50.0169 9.5957 49.1203 8.48601 49.1203C7.52159 49.1203 6.4684 50.0108 6.56928 51.0627C6.87192 54.4859 7.50143 58.0644 10.542 60.1049C12.0451 61.1139 13.865 61.4407 15.6223 61.6388C17.5249 61.8553 19.4558 61.9472 21.3584 62.08C29.6084 62.6498 37.9028 63.0277 46.1629 62.4558C48.2545 62.3101 50.3393 62.1004 52.4175 61.8267C54.2212 61.5857 56.1056 61.3161 57.411 59.8924C58.67 58.5178 59.0675 56.4713 59.4105 54.6922C59.7933 52.6212 60.0367 50.5262 60.1389 48.4217C60.6049 40.0229 60.5 31.5567 60.5424 23.1477C60.5545 19.0443 60.9076 13.7889 58.0869 10.4392ZM34.4607 58.8344C34.7862 53.0487 34.8602 47.2568 34.6827 41.4588C34.6743 40.9468 34.4697 40.4581 34.1121 40.096C33.7544 39.734 33.2717 39.5268 32.7659 39.5184C31.4204 39.5337 30.0758 39.4408 28.7448 39.2406C28.7758 38.0151 28.8323 36.7978 28.9143 35.5886L31.7692 35.7296C32.778 35.7745 33.7344 34.8023 33.686 33.7892C33.5629 31.1952 33.3652 28.3745 34.378 25.9194C35.2859 23.7196 37.3136 22.2102 39.5047 21.4871C42.2346 20.5864 45.2711 20.6701 48.0756 21.1603C48.4589 21.2277 49.1045 21.2768 49.4213 21.5464C49.6231 21.7139 49.4818 21.8752 49.4213 22.2878C49.3003 23.1559 49.151 24.0198 48.9996 24.8838C45.3679 24.1322 41.1451 25.8479 40.221 29.7634C39.6157 32.3533 40.9393 34.6429 43.425 35.4477C44.6133 35.8317 45.9349 35.8787 47.1676 36.0319L49.615 36.3321L49.6271 39.3693L42.4606 39.402C41.4901 39.402 40.455 40.2884 40.5438 41.3424C41.0336 47.1681 40.966 53.028 40.3421 58.8406C38.385 58.876 36.4245 58.8739 34.4607 58.8344Z" fill="black"/>
</svg>
