<svg width="64" height="64" viewBox="0 0 64 64" fill="none" xmlns="http://www.w3.org/2000/svg">
<path d="M54.0332 31.801C56.9073 29.089 59.7947 26.392 62.6953 23.7099C64.3473 22.1744 64.391 19.526 63.05 17.8165C61.7091 16.107 59.1391 15.4954 57.1703 16.6607C46.1942 23.1806 35.2106 29.7044 23.9898 35.8129L24.7087 35.162C30.9677 29.5323 37.5151 24.1944 43.4251 18.1925C46.9538 14.64 50.1731 10.801 53.0488 6.71609C54.1432 5.15062 53.7392 2.54525 52.3376 1.27716C51.6123 0.598154 50.6868 0.164233 49.695 0.0381487C48.7031 -0.0879358 47.6963 0.100352 46.8202 0.575784C40.3715 4.00224 34.3836 8.10201 28.5001 12.3589C29.7121 10.627 29.6875 8.05712 28.0412 6.56085C26.2507 4.93927 23.3734 4.75785 21.6038 6.56085C13.97 14.3644 7.07655 22.8405 1.00973 31.8833C-0.0580967 33.4712 0.302272 36.0373 1.72099 37.3222C3.21177 38.6726 5.44226 39.0673 7.23841 38.0236C8.49401 37.2942 9.73507 36.5423 10.9616 35.768C10.6265 36.1096 10.2933 36.455 9.96203 36.8042C6.49679 40.4046 3.36847 44.3064 0.615209 48.462C-0.433653 50.0667 -0.105528 52.6047 1.32646 53.9009C2.91208 55.3373 4.93016 55.4925 6.84201 54.6023C14.8422 50.8728 22.6717 46.8142 30.3987 42.5704C28.9509 44.1228 27.5234 45.6945 26.116 47.2855C23.254 50.5287 20.5151 53.871 17.8636 57.2843C16.6971 58.7806 17.2263 61.5019 18.5748 62.7233C19.3003 63.402 20.2257 63.8358 21.2175 63.9618C22.2093 64.0879 23.216 63.8998 24.0923 63.4246C30.4373 60.0331 36.6963 56.4894 42.8694 52.7937C42.0652 54.0592 41.2547 55.3236 40.4378 56.5867C39.4573 58.0998 39.7247 60.2058 40.7944 61.5711C41.811 62.8691 43.9069 63.8324 45.5797 63.1796C50.4731 61.288 55.239 59.0902 59.8484 56.5998C61.9348 55.4645 62.7902 52.4607 61.4814 50.4576C60.315 48.6733 58.2173 47.8747 56.239 48.4433C57.7222 45.9894 59.1846 43.5224 60.626 41.0423C61.5952 39.374 61.4018 36.9482 59.9148 35.6034C58.4847 34.3073 56.1214 33.7686 54.3993 34.9002C50.9359 37.1857 47.441 39.4208 43.9144 41.6053C47.2279 38.2855 50.6154 35.0273 54.0332 31.801Z" fill="#F4698A"/>
<path d="M58.4771 46.4177C58.4771 46.3747 58.4771 46.3317 58.4771 46.2868C58.3886 41.8167 58.3001 37.3466 58.2116 32.8765L58.0826 26.3565C58.039 24.157 58.1206 21.9107 57.8342 19.7243C57.3183 15.7816 54.6629 12.776 50.8525 11.5416C47.1843 10.3539 43.0496 10.7224 39.2505 10.7317L23.9652 10.7691C21.6475 10.7691 21.6437 14.3228 23.9652 14.3228L36.6084 14.291L42.8352 14.276C44.51 14.276 46.2151 14.2405 47.8747 14.4948C51.0782 14.9867 53.7923 16.7205 54.2779 20.0815C54.5567 22.0099 54.4315 24.041 54.4676 25.9843L54.5889 32.1302C54.68 36.7562 54.7716 41.3809 54.864 46.0044C54.8572 46.0978 54.8572 46.1915 54.864 46.2849C54.9704 47.9675 54.9483 49.6556 54.7976 51.3348C54.6876 52.5505 54.6743 54.361 53.8967 55.3804C53.119 56.3997 51.2887 56.6559 50.1223 56.8224C48.5442 57.0431 46.9302 57.0094 45.3426 57.0094C38.3439 56.9795 31.3452 56.8928 24.3464 56.7495C21.0405 56.6784 17.7081 56.5624 14.4837 55.7713C13.9147 55.6291 13.2357 55.5244 12.7426 55.1915C12.2494 54.8585 12.1451 54.3274 12.0313 53.7775C11.7108 52.2251 11.6027 50.5979 11.4623 49.0324C10.863 42.2375 11.0033 35.4052 11.3883 28.6028C11.4958 26.7162 11.6185 24.8303 11.7563 22.945C11.872 21.3328 11.8834 19.6626 12.2115 18.0821C12.4884 16.7318 13.0214 15.5834 14.3092 14.9306C15.5174 14.319 16.9646 14.1919 18.2923 14.074C19.2634 13.9899 20.0941 13.3259 20.0941 12.2972C20.0941 11.4032 19.2671 10.4362 18.2923 10.5204C15.1134 10.8009 11.7904 11.3845 9.89567 14.2031C8.95871 15.5965 8.65524 17.2835 8.47126 18.9126C8.27021 20.6763 8.18486 22.4662 8.06157 24.2299C7.5324 31.8777 7.18152 39.5667 7.71259 47.222C7.84662 49.1634 8.04134 51.0961 8.29676 53.02C8.52057 54.6921 8.77094 56.439 10.0929 57.6491C11.3694 58.8162 13.268 59.1846 14.9219 59.5026C16.845 59.8574 18.7904 60.083 20.7446 60.1778C28.5438 60.6098 36.4055 60.5126 44.2141 60.5518C48.0302 60.5743 52.9104 60.9016 56.0209 58.2869C57.6653 56.9028 57.9726 54.7557 58.2362 52.7656C58.5147 50.6615 58.5953 48.5365 58.4771 46.4177Z" fill="black"/>
<path d="M48.273 17.9569C46.1867 17.2704 43.922 17.7698 42.8296 19.7617C42.4777 20.3993 42.298 21.1153 42.3076 21.8411C42.3173 22.5669 42.5159 23.2781 42.8846 23.9064C42.8901 23.9197 42.8945 23.9335 42.8978 23.9475C43.2421 24.8731 43.9022 25.6517 44.7649 26.1499C45.6276 26.6481 46.6392 26.8349 47.6263 26.6782C49.5647 26.3696 51.3286 24.4937 51.5751 22.5728C51.8501 20.407 50.2683 18.6133 48.273 17.9569Z" fill="black"/>
<path d="M43.5313 30.2487C42.9244 29.5005 41.6176 29.624 40.9841 30.2487C40.2255 30.9968 40.3753 32.0086 40.9841 32.7605C42.0387 34.0698 41.9969 36.1739 41.8661 37.7394C41.7501 39.3414 41.2185 40.8871 40.3222 42.2282C38.1998 45.288 34.1295 45.3105 30.7762 44.8466C28.9042 44.5866 26.8159 44.2855 25.2133 43.2363C23.6959 42.2431 22.9695 40.5205 22.6129 38.826C21.8713 35.2967 22.8462 30.4263 26.1255 28.3521C30.1313 25.8085 35.0248 27.5872 38.7403 29.7605C40.7394 30.9295 42.5546 27.8584 40.5593 26.6913C35.9864 24.0167 30.4272 22.3446 25.3479 24.7162C20.4526 27.0018 18.3397 32.9924 18.8708 38.0293C19.1382 40.5692 19.967 43.0904 21.7651 44.9888C23.5631 46.8872 26.1274 47.6503 28.6216 48.0879C33.3633 48.9165 39.0211 49.1615 42.4939 45.2375C45.8813 41.4089 46.8733 34.3728 43.5313 30.2487Z" fill="black"/>
</svg>
