<svg width="145" height="48" viewBox="0 0 145 48" fill="none" xmlns="http://www.w3.org/2000/svg">
<path d="M11.5083 13.5123C11.7257 14.3189 11.9326 15.1764 12.1177 16.0861C12.3035 17.0013 12.478 17.9178 12.6323 18.8533C12.7914 19.7827 12.9247 20.6877 13.0257 21.5634C13.1323 22.4385 13.2117 23.2342 13.268 23.9388C14.3103 24.4751 14.961 24.9758 15.2157 25.4524C15.4705 25.9291 15.5487 26.3609 15.4405 26.76C15.3224 27.3037 15.0321 27.6144 14.5626 27.682C14.0986 27.7489 13.5402 27.6562 12.8985 27.4026C12.5093 27.7418 12.0676 28.1149 11.56 28.5069C11.0587 28.9037 10.5224 29.2937 9.95525 29.6653C9.38879 30.0424 8.81746 30.3815 8.24125 30.6825C7.66504 30.9835 7.12461 31.2086 6.62558 31.3569C5.67941 31.6143 4.78671 31.5343 3.96011 31.1265C3.1335 30.7187 2.52151 30.0313 2.12973 29.0638C1.86949 28.4113 1.74101 27.7208 1.745 26.9979C1.74829 26.2695 1.89031 25.5575 2.17668 24.8612C2.45744 24.1656 2.88042 23.5135 3.43581 22.9171C3.9912 22.3208 4.67405 21.8304 5.48367 21.4406C5.68555 21.3281 5.96803 21.2223 6.34229 21.1221C6.71095 21.0226 7.10061 20.9536 7.51197 20.9206C7.92332 20.8875 8.34375 20.9251 8.78865 21.0205C9.22865 21.1219 9.65317 21.3244 10.0573 21.6342C9.99946 21.1393 9.92344 20.5915 9.83485 19.99C9.74695 19.3939 9.65205 18.7877 9.54525 18.1773C9.43844 17.567 9.33651 16.9947 9.22195 16.457C9.11299 15.9186 9.00397 15.4685 8.89911 15.0951C8.78658 14.6619 8.57793 14.4113 8.27875 14.3425C7.97958 14.2738 7.62847 14.3326 7.22121 14.5306C6.52726 14.8458 5.73225 15.3938 4.84809 16.1787C3.96393 16.9635 3.1295 17.781 2.34619 18.6419C2.10494 18.9357 1.81123 19.0869 1.45945 19.0962C1.10767 19.1054 0.799407 19.0102 0.527658 18.8003C0.256607 18.5958 0.0871965 18.3405 0.0250346 18.0336C-0.0427338 17.7274 0.0387793 17.3867 0.268877 17.006C0.717741 16.4225 1.22619 15.8153 1.79491 15.1897C2.36362 14.5642 2.96665 13.9842 3.60398 13.4497C4.24201 12.9206 4.90662 12.4655 5.59851 12.0899C6.29039 11.7142 6.9934 11.4696 7.71384 11.3608C8.76505 11.2121 9.60796 11.3477 10.2419 11.7622C10.8764 12.1821 11.2986 12.7655 11.5083 13.5123ZM7.3918 23.5326C7.01051 23.6668 6.61864 23.896 6.21059 24.2209C5.80884 24.5505 5.45331 24.9298 5.15591 25.3627C4.85851 25.7956 4.65077 26.2618 4.54463 26.7654C4.43848 27.269 4.48792 27.7429 4.69364 28.1924C4.77201 28.3594 4.91838 28.4797 5.12576 28.5429C5.33314 28.6062 5.55458 28.6016 5.79359 28.5121C6.49869 28.2838 7.28728 27.9076 8.15866 27.3779C9.03004 26.8483 9.70661 26.3091 10.187 25.7493C10.1647 25.5756 10.0457 25.3583 9.83635 25.1022C9.62139 24.8468 9.37771 24.5894 9.10108 24.3415C8.82445 24.0935 8.53518 23.8802 8.22277 23.7083C7.90474 23.537 7.62939 23.4764 7.3918 23.5326Z" fill="#00A99D"/>
<path d="M19.5558 14.3795C19.702 14.8086 19.8544 15.2865 20.025 15.8175C20.1957 16.3484 20.3733 16.8896 20.5642 17.4457C20.7552 18.0017 20.93 18.5653 21.0894 19.1417C21.2488 19.7181 21.3927 20.2633 21.5164 20.7834C21.7896 19.9839 22.0844 19.1321 22.4025 18.239C22.7205 17.3459 23.091 16.5071 23.4987 15.7355C23.9119 14.9632 24.3693 14.3125 24.87 13.7779C25.3713 13.2488 25.9525 12.9416 26.6203 12.8667C27.6133 12.7526 28.4947 13.0104 29.2581 13.6354C30.0215 14.2604 30.7 15.0666 31.2929 16.0485C31.8864 17.0359 32.3847 18.0789 32.7946 19.1877C33.2045 20.2965 33.5528 21.2803 33.8395 22.1392C34.1144 22.9058 33.8253 23.5362 32.9644 24.0149C32.5641 24.2672 32.2537 24.3322 32.0218 24.2112C31.7899 24.0902 31.6534 23.9578 31.6065 23.8145C31.4098 23.4797 31.1517 22.8876 30.8201 22.0341C30.4885 21.1806 30.1219 20.3203 29.7307 19.4464C29.334 18.5732 28.9127 17.8188 28.473 17.1879C28.0278 16.5577 27.5844 16.2967 27.1372 16.4057C26.5969 16.4984 26.1649 16.9475 25.8301 17.7544C25.5438 18.4066 25.2553 19.1307 24.9696 19.9207C24.6838 20.7107 24.4051 21.5108 24.1341 22.3266C23.8631 23.1424 23.6032 23.9568 23.349 24.7706C23.0948 25.5843 22.8547 26.3302 22.6342 27.0075C22.4469 27.2341 22.2016 27.4071 21.8911 27.5162C21.5805 27.6253 21.2582 27.642 20.9121 27.5624C20.5975 27.5065 20.3376 27.3889 20.1317 27.2042C19.9258 27.0194 19.8096 26.8238 19.7838 26.6229C19.2387 24.3722 18.7089 22.3293 18.1937 20.4887C17.6785 18.6481 17.0799 16.7789 16.3909 14.871C16.097 14.2225 15.9951 13.6943 16.0844 13.281C16.1743 12.8731 16.5977 12.6676 17.3664 12.6688C18.4497 12.7258 19.1774 13.2945 19.5558 14.3795Z" fill="#00A99D"/>
<path d="M42.5668 3.90872C42.415 3.39203 42.3922 2.90395 42.5047 2.4492C42.6171 1.99446 42.927 1.70344 43.4358 1.587C43.883 1.47799 44.2964 1.54952 44.676 1.8016C45.0556 2.05368 45.3238 2.41295 45.4678 2.86989C46.4768 6.16214 47.4445 9.44283 48.375 12.7004C49.2999 15.9587 50.1716 19.1572 50.9789 22.2972C51.1997 23.131 51.212 23.7141 51.0043 24.0479C50.7967 24.3818 50.54 24.6443 50.2274 24.8254C49.8811 25.0105 49.5447 25.051 49.2063 24.9429C48.8735 24.834 48.6375 24.5922 48.499 24.2229L48.42 23.9621L48.2462 24.0272C47.2922 24.4896 46.2738 24.8053 45.1966 24.9736C44.1139 25.1426 43.0593 25.1318 42.0286 24.9526C40.9979 24.7735 40.0557 24.3961 39.2081 23.8254C38.3606 23.2546 37.7087 22.4783 37.2518 21.491C36.2561 19.3222 36.4649 17.2234 37.8671 15.196C38.471 14.3567 39.2472 13.5738 40.2007 12.8413C41.1542 12.1087 42.3326 11.487 43.7414 10.9753L44.5327 10.7091L42.5668 3.90872ZM39.8833 20.0821C40.1471 20.7617 40.5476 21.265 41.0736 21.5932C41.5996 21.9214 42.2043 22.1078 42.8889 22.1632C43.5678 22.2193 44.2777 22.1614 45.0241 21.9887C45.7705 21.8161 46.4904 21.5694 47.1843 21.2542L47.5769 21.0746L45.3802 13.4968L44.4991 13.8181C43.8872 14.0627 43.2486 14.4099 42.5833 14.8595C41.9173 15.3037 41.3444 15.8084 40.8585 16.3688C40.3725 16.9292 40.028 17.5278 39.8152 18.1766C39.5969 18.8261 39.621 19.4574 39.8833 20.0821Z" fill="#00A99D"/>
<path d="M67.4453 9.2727C67.5333 9.73639 67.652 10.3067 67.8134 10.9876C67.9686 11.6638 68.1391 12.3713 68.3194 13.1106C68.499 13.8446 68.6835 14.5724 68.8785 15.2934C69.0735 16.0144 69.249 16.6717 69.4175 17.2746C69.6716 16.5932 69.9861 15.7611 70.3539 14.7682C70.7225 13.7808 71.1232 12.8225 71.5457 11.9003C71.9682 10.978 72.4242 10.1841 72.9088 9.52456C73.3935 8.86504 73.8653 8.50488 74.3145 8.45629C74.7974 8.40364 75.2696 8.57839 75.7318 8.98598C76.194 9.39356 76.612 9.90023 76.9921 10.5107C77.3722 11.1212 77.7186 11.7799 78.0307 12.4813C78.3435 13.1882 78.6114 13.8122 78.8283 14.3486C78.9028 13.9536 79.0104 13.5049 79.1452 13.0034C79.2857 12.5011 79.4353 11.9812 79.5997 11.443C79.764 10.9048 79.9578 10.3741 80.1859 9.84476C80.4139 9.31542 80.6665 8.84379 80.9541 8.4231C81.2943 7.9685 81.6827 7.6239 82.1124 7.37911C82.5428 7.13976 82.8618 7.00758 83.0748 6.98192C83.3439 6.94951 83.6803 6.99723 84.0768 7.11492C84.4733 7.2326 84.8825 7.40392 85.3091 7.62277C85.7301 7.84229 86.1405 8.11272 86.5299 8.44084C86.9193 8.76896 87.2477 9.10993 87.504 9.46511C88.0206 10.2081 88.4622 11.0318 88.8344 11.9355C89.201 12.8399 89.5011 13.7138 89.722 14.5475C89.9428 15.3812 90.1182 16.1267 90.2418 16.7791C90.3654 17.4316 90.4583 17.8891 90.5198 18.1465C90.563 18.5273 90.5544 18.8151 90.4891 19.016C90.4238 19.2169 90.2751 19.3892 90.0487 19.5323C89.736 19.7134 89.4508 19.7974 89.2041 19.783C88.9575 19.7685 88.7487 19.6944 88.5841 19.5653C88.4139 19.4369 88.2746 19.2828 88.1605 19.1035C88.0464 18.9242 87.9687 18.7626 87.9162 18.62C87.7457 17.9567 87.5625 17.2839 87.371 16.59C87.1801 15.9015 86.9865 15.2355 86.7837 14.5871C86.5816 13.9441 86.3683 13.3466 86.1325 12.7959C85.8967 12.2453 85.6637 11.7604 85.4278 11.3421C85.3515 11.2355 85.236 11.0895 85.077 10.9156C84.9181 10.7417 84.743 10.5753 84.5581 10.4211C84.3725 10.2615 84.1967 10.1337 84.0307 10.0379C83.864 9.93666 83.7484 9.87889 83.6882 9.85306C83.3854 9.88952 83.1 10.1941 82.8326 10.7723C82.5653 11.3505 82.3287 12.0353 82.1179 12.8328C81.9072 13.6303 81.723 14.4577 81.5662 15.3203C81.4093 16.183 81.3093 16.912 81.2557 17.5141C81.3477 18.2751 81.2625 18.8534 81.0065 19.2538C80.7504 19.6541 80.4539 19.8718 80.1231 19.9117C79.7923 19.9515 79.4224 19.8637 79.0147 19.6592C78.607 19.4546 78.3233 19.1964 78.1645 18.8902C77.9251 18.4447 77.6669 17.9409 77.3842 17.3793C77.1014 16.8178 76.8117 16.246 76.5136 15.6532C76.2105 15.0665 75.9145 14.49 75.615 13.9305C75.3154 13.3709 75.0348 12.8698 74.7674 12.4277C74.4124 13.033 74.07 13.6919 73.7465 14.4092C73.4229 15.1265 73.1127 15.8588 72.8158 16.606C72.5245 17.3525 72.243 18.0868 71.9833 18.813C71.7179 19.5399 71.4645 20.1826 71.2294 20.7458C71.0575 21.0919 70.8639 21.402 70.6542 21.6755C70.4445 21.9489 70.169 22.1089 69.8375 22.1434C69.5964 22.1724 69.3239 22.0894 69.0262 21.8991C68.7285 21.7089 68.4357 21.4684 68.1591 21.1763C67.8769 20.8849 67.6165 20.5413 67.3729 20.1515C67.1237 19.7624 66.9368 19.3713 66.7942 18.9693C66.4033 17.7424 66.0293 16.3811 65.6848 14.895C65.3347 13.4095 65 11.9552 64.6758 10.5383C64.5843 10.0475 64.598 9.57707 64.7118 9.13319C64.8256 8.68931 65.1145 8.36773 65.5842 8.16777C66.0895 8.02417 66.4861 8.05361 66.7852 8.25473C67.1102 8.43618 67.3202 8.7859 67.4453 9.2727Z" fill="#00A99D"/>
<path d="M103.909 3.06049C104.127 3.86707 104.333 4.72455 104.519 5.63429C104.704 6.54946 104.879 7.46599 105.033 8.4015C105.192 9.33091 105.326 10.2359 105.427 11.1116C105.533 11.9867 105.613 12.7823 105.669 13.487C106.711 14.0232 107.362 14.5239 107.617 15.0006C107.871 15.4773 107.95 15.9091 107.841 16.3082C107.724 16.8573 107.433 17.1626 106.963 17.2301C106.499 17.2971 105.941 17.2044 105.299 16.9508C104.91 17.29 104.468 17.663 103.961 18.0551C103.46 18.4519 102.923 18.8419 102.356 19.2135C101.79 19.5906 101.218 19.9296 100.642 20.2307C100.066 20.5317 99.5255 20.7568 99.0264 20.9051C98.0803 21.1625 97.1876 21.0825 96.361 20.6747C95.5344 20.2669 94.9224 19.5795 94.5313 18.6174C94.271 17.9649 94.1426 17.2744 94.1466 16.5515C94.1498 15.8231 94.2919 15.1111 94.5782 14.4148C94.859 13.7192 95.282 13.0671 95.8374 12.4707C96.3927 11.8744 97.0756 11.384 97.8852 10.9942C98.0871 10.8817 98.3696 10.7759 98.7438 10.6757C99.1125 10.5762 99.5022 10.5072 99.9135 10.4742C100.325 10.4411 100.745 10.4787 101.19 10.5741C101.63 10.67 102.055 10.878 102.459 11.1878C102.401 10.6929 102.325 10.1451 102.236 9.54358C102.149 8.94751 102.054 8.34126 101.947 7.73093C101.84 7.1206 101.738 6.54829 101.623 6.01059C101.515 5.47221 101.406 5.02208 101.301 4.64866C101.188 4.2155 100.979 3.96489 100.68 3.89614C100.381 3.82739 100.03 3.88623 99.6228 4.08419C98.9288 4.39941 98.1338 4.94741 97.2496 5.73225C96.3655 6.5171 95.5311 7.33456 94.7477 8.1955C94.5065 8.48928 94.2128 8.64048 93.861 8.64976C93.5092 8.65905 93.201 8.56382 92.9292 8.35389C92.6582 8.1494 92.4888 7.89405 92.4266 7.58718C92.3595 7.28642 92.4403 6.94027 92.6704 6.5596C93.1193 5.97609 93.6277 5.36886 94.1965 4.74333C94.7652 4.11781 95.3682 3.53779 96.0055 3.00328C96.6436 2.47419 97.3082 2.01912 98.0001 1.64348C98.6919 1.26784 99.3957 1.02866 100.115 0.914388C101.167 0.765703 102.01 0.901315 102.643 1.31579C103.277 1.73027 103.699 2.31365 103.909 3.06049ZM99.7934 13.0862C99.4121 13.2204 99.0202 13.4496 98.6122 13.7745C98.2104 14.1041 97.8549 14.4834 97.5575 14.9163C97.2601 15.3492 97.0523 15.8154 96.9462 16.319C96.84 16.8226 96.8895 17.2965 97.0952 17.746C97.1736 17.913 97.3199 18.0333 97.5273 18.0965C97.7347 18.1598 97.9554 18.1498 98.1895 18.0664C98.8946 17.8381 99.6832 17.4618 100.555 16.9322C101.426 16.4026 102.103 15.8634 102.583 15.3036C102.561 15.1298 102.442 14.9125 102.232 14.6565C102.017 14.4011 101.774 14.1437 101.497 13.8957C101.22 13.6478 100.931 13.4345 100.619 13.2625C100.306 13.0852 100.031 13.03 99.7934 13.0862Z" fill="#00A99D"/>
<path d="M111.951 3.92831C112.097 4.35742 112.25 4.83541 112.42 5.36636C112.591 5.8973 112.768 6.43844 112.959 6.99451C113.15 7.55059 113.326 8.11956 113.484 8.69055C113.644 9.26697 113.788 9.81216 113.912 10.3322C114.185 9.53273 114.48 8.68099 114.798 7.78785C115.116 6.89472 115.486 6.05592 115.894 5.28435C116.307 4.51211 116.764 3.8614 117.265 3.3268C117.766 2.79763 118.348 2.49048 119.015 2.41555C120.008 2.30145 120.89 2.55927 121.653 3.18427C122.417 3.80927 123.095 4.61546 123.688 5.59741C124.282 6.58479 124.78 7.62777 125.19 8.73655C125.6 9.84533 125.948 10.8292 126.235 11.6881C126.51 12.4601 126.22 13.0851 125.36 13.5638C124.959 13.8161 124.649 13.881 124.417 13.7601C124.185 13.6391 124.049 13.5066 124.002 13.3634C123.805 13.0286 123.547 12.4365 123.215 11.583C122.884 10.7295 122.517 9.8692 122.126 8.99531C121.729 8.12209 121.308 7.36765 120.868 6.73675C120.423 6.10652 119.979 5.84558 119.532 5.95459C118.992 6.04725 118.56 6.49636 118.225 7.30327C117.939 7.95545 117.65 8.67957 117.365 9.46955C117.079 10.2595 116.8 11.0597 116.529 11.8755C116.258 12.6912 115.998 13.5057 115.744 14.3194C115.49 15.1332 115.25 15.879 115.029 16.5564C114.842 16.783 114.597 16.9559 114.286 17.065C113.976 17.1741 113.653 17.1855 113.307 17.1113C112.993 17.0554 112.733 16.9378 112.527 16.753C112.321 16.5683 112.205 16.3727 112.179 16.1717C111.634 13.9211 111.104 11.8782 110.589 10.0376C110.074 8.19695 109.475 6.32777 108.786 4.41984C108.492 3.77138 108.39 3.24319 108.479 2.82984C108.569 2.42192 108.993 2.2165 109.762 2.21766C110.85 2.27401 111.579 2.84807 111.951 3.92831Z" fill="#00A99D"/>
<path d="M142.366 1.15801C142.648 2.72898 142.936 4.31015 143.238 5.90625C143.539 7.50236 143.749 9.08755 143.881 10.6544C144.009 12.2273 144.036 13.7682 143.958 15.2887C143.88 16.8093 143.625 18.2849 143.182 19.7115C142.739 21.1381 142.088 22.496 141.217 23.7812C140.346 25.0663 139.201 26.2631 137.772 27.3727C137.55 27.5484 137.297 27.6616 137.009 27.7239C136.727 27.7855 136.445 27.8084 136.17 27.7973C135.896 27.7863 135.645 27.7393 135.418 27.6618C135.192 27.5842 135.039 27.4593 134.961 27.2922C134.838 27.0423 134.851 26.743 134.989 26.4009C135.133 26.0582 135.393 25.6905 135.775 25.2915C136.986 24.175 137.977 23.0243 138.754 21.8443C139.529 20.6589 140.115 19.4082 140.503 18.0874C140.898 16.7714 141.087 15.3643 141.071 13.8662C141.062 12.3727 140.854 10.7543 140.466 9.01965C140.158 9.49803 139.79 10.0001 139.361 10.5205C138.933 11.0463 138.47 11.5212 137.973 11.9452C137.475 12.3746 136.953 12.7408 136.407 13.0548C135.861 13.3687 135.333 13.5537 134.822 13.6097C134.4 13.6549 133.963 13.6194 133.52 13.4908C133.076 13.3622 132.613 13.0762 132.134 12.6265C131.577 12.0647 131.062 11.4209 130.592 10.6888C130.123 9.95675 129.706 9.24033 129.349 8.53889C128.991 7.83744 128.688 7.20662 128.456 6.63897C128.218 6.07201 128.07 5.67616 128.012 5.446C127.919 5.15948 127.883 4.8825 127.911 4.61438C127.939 4.34626 128.115 4.15969 128.444 4.06486C128.887 3.92327 129.312 3.9052 129.724 4.01C130.135 4.10936 130.435 4.31592 130.622 4.61879C130.781 4.92504 131.007 5.40511 131.301 6.05357C131.595 6.70203 131.933 7.33966 132.309 7.9617C132.691 8.58306 133.085 9.12569 133.491 9.58415C133.897 10.0426 134.299 10.2479 134.692 10.206C135.147 10.1568 135.652 9.87535 136.218 9.36591C136.785 8.85647 137.312 8.21938 137.8 7.45465C138.289 6.68992 138.688 5.85318 138.986 4.94034C139.291 4.03227 139.391 3.1709 139.291 2.35014C139.269 2.17635 139.276 1.96592 139.308 1.72495C139.34 1.48399 139.401 1.25051 139.496 1.01298C139.591 0.780883 139.712 0.573238 139.855 0.396154C140.003 0.218394 140.164 0.0997016 140.34 0.0509361C140.815 -0.061452 141.263 0.0114618 141.673 0.276459C142.1 0.544862 142.325 0.837576 142.366 1.15801Z" fill="#00A99D"/>
<path d="M54.4133 35.1236C54.5013 35.5873 54.62 36.1576 54.7814 36.8386C54.9366 37.5148 55.107 38.2222 55.2873 38.9616C55.467 39.6955 55.6515 40.4233 55.8465 41.1443C56.0415 41.8654 56.217 42.5226 56.3855 43.1255C56.6396 42.4441 56.9541 41.612 57.3219 40.6192C57.6905 39.6317 58.0912 38.6734 58.5137 37.7512C58.9361 36.8289 59.3922 36.035 59.8768 35.3755C60.3615 34.716 60.8333 34.3558 61.2825 34.3072C61.7654 34.2546 62.2376 34.4293 62.6998 34.8369C63.162 35.2445 63.58 35.7511 63.9601 36.3616C64.3402 36.9721 64.6866 37.6308 64.9987 38.3322C65.3115 39.0391 65.5794 39.6631 65.7963 40.1995C65.8708 39.8045 65.9783 39.3558 66.1132 38.8543C66.2537 38.352 66.4033 37.8321 66.5676 37.2939C66.732 36.7557 66.9257 36.225 67.1538 35.6957C67.3819 35.1663 67.6345 34.6947 67.9221 34.274C68.2622 33.8194 68.6507 33.4748 69.0804 33.23C69.5108 32.9907 69.8298 32.8585 70.0428 32.8328C70.3119 32.8004 70.6482 32.8481 71.0448 32.9658C71.4413 33.0835 71.8504 33.2548 72.2771 33.4737C72.6981 33.6932 73.1085 33.9636 73.4979 34.2918C73.8873 34.6199 74.2157 34.9608 74.472 35.316C74.9886 36.059 75.4302 36.8827 75.8024 37.7864C76.169 38.6908 76.4691 39.5647 76.6899 40.3984C76.9108 41.2322 77.0862 41.9776 77.2098 42.63C77.3334 43.2825 77.4263 43.7401 77.4878 43.9974C77.531 44.3782 77.5224 44.666 77.4571 44.8669C77.3918 45.0678 77.2431 45.2401 77.0167 45.3832C76.704 45.5643 76.4188 45.6483 76.1721 45.6339C75.9255 45.6195 75.7167 45.5453 75.5521 45.4163C75.3819 45.2879 75.2425 45.1337 75.1284 44.9544C75.0143 44.7751 74.9367 44.6135 74.8842 44.4709C74.7137 43.8076 74.5305 43.1348 74.339 42.4409C74.1481 41.7524 73.9545 41.0864 73.7517 40.438C73.5496 39.795 73.3363 39.1975 73.1005 38.6468C72.8647 38.0962 72.6317 37.6113 72.3958 37.193C72.3195 37.0864 72.204 36.9404 72.045 36.7665C71.8861 36.5926 71.711 36.4262 71.5261 36.272C71.3405 36.1124 71.1647 35.9846 70.9987 35.8888C70.832 35.7876 70.7164 35.7298 70.6561 35.704C70.3534 35.7404 70.068 36.045 69.8006 36.6232C69.5333 37.2014 69.2967 37.8862 69.0859 38.6837C68.8751 39.4812 68.691 40.3086 68.5342 41.1713C68.3773 42.0339 68.2773 42.7629 68.2237 43.365C68.3157 44.126 68.2305 44.7043 67.9745 45.1047C67.7184 45.505 67.4218 45.7228 67.0911 45.7626C66.7603 45.8025 66.3903 45.7147 65.9827 45.5101C65.575 45.3055 65.2913 45.0474 65.1325 44.7411C64.8931 44.2956 64.6349 43.7918 64.3521 43.2302C64.0694 42.6687 63.7797 42.0969 63.4816 41.5041C63.1841 40.9167 62.8825 40.3409 62.583 39.7814C62.2834 39.2218 62.0027 38.7207 61.7354 38.2786C61.3804 38.8839 61.038 39.5428 60.7145 40.2601C60.3853 40.9781 60.0807 41.7097 59.7838 42.4569C59.4925 43.2034 59.211 43.9378 58.9513 44.6639C58.6859 45.3908 58.4325 46.0335 58.1974 46.5968C58.0255 46.9428 57.8318 47.253 57.6221 47.5264C57.4124 47.7998 57.1369 47.9599 56.8055 47.9943C56.5644 48.0233 56.2919 47.9403 55.9942 47.7501C55.6965 47.5598 55.4037 47.3193 55.1271 47.0272C54.8449 46.7359 54.5845 46.3922 54.3409 46.0024C54.0917 45.6133 53.9048 45.2222 53.7621 44.8202C53.3712 43.5933 52.9972 42.2321 52.6528 40.7459C52.3027 39.2604 51.968 37.8062 51.6438 36.3892C51.5523 35.8984 51.5659 35.428 51.6798 34.9841C51.7936 34.5402 52.0825 34.2186 52.5521 34.0187C53.0519 33.8758 53.4541 33.9045 53.7532 34.1056C54.0782 34.2871 54.2875 34.6314 54.4133 35.1236Z" fill="#1E1E1E"/>
<path d="M90.0866 29.9331C91.0317 30.1557 91.8507 30.5479 92.5447 31.1206C93.2388 31.6933 93.8031 32.3643 94.2315 33.1289C94.6605 33.899 94.9515 34.7022 95.0939 35.5454C95.2419 36.3879 95.2364 37.1882 95.0832 37.9457C94.8514 38.8009 94.5222 39.6513 94.1074 40.5009C93.6871 41.3512 93.1877 42.1173 92.593 42.8066C92.0039 43.4952 91.3105 44.0806 90.5113 44.5519C89.7129 45.0286 88.8003 45.326 87.7729 45.4388C86.5325 45.5772 85.4591 45.4197 84.5519 44.9609C83.6392 44.5028 82.8905 43.8595 82.301 43.0371C81.7115 42.2146 81.2812 41.2572 81.015 40.1587C80.7438 39.0663 80.6345 37.9489 80.6829 36.818C80.7073 35.9878 80.8123 35.1645 81.0048 34.3582C81.1974 33.5518 81.4851 32.8223 81.8682 32.1695C82.2456 31.5174 82.7106 30.9705 83.2511 30.5249C83.7917 30.0792 84.4408 29.8135 85.1983 29.7278C85.6188 29.6771 86.157 29.7006 86.8114 29.7872C87.4665 29.8792 88.0789 30.0371 88.6604 30.2649C89.0089 29.8754 89.4841 29.7631 90.0866 29.9331ZM88.7515 33.3258C88.3943 33.1592 87.9782 32.9336 87.4969 32.6441C87.0164 32.3601 86.6129 32.2322 86.2821 32.272C85.9177 32.3159 85.5847 32.516 85.2775 32.8728C84.9711 33.2351 84.7101 33.6416 84.5059 34.0908C84.3024 34.5455 84.1332 35.0016 84.004 35.4584C83.8754 35.9206 83.7967 36.283 83.7685 36.5511C83.7296 37.0025 83.7349 37.5313 83.78 38.1491C83.8252 38.7669 83.9425 39.3704 84.1369 39.9536C84.3313 40.5369 84.6309 41.0523 85.0349 41.4944C85.439 41.9366 85.9994 42.2221 86.7218 42.3501C87.1576 42.419 87.6559 42.3534 88.2117 42.1596C88.7675 41.9658 89.3031 41.6587 89.8247 41.2429C90.3407 40.8278 90.8141 40.302 91.2385 39.6607C91.6684 39.0188 91.9695 38.3042 92.1473 37.5162C92.3469 36.6318 92.2452 35.7507 91.852 34.8605C91.4532 33.971 90.7956 33.3718 89.868 33.0644C89.6738 33.2367 89.4698 33.333 89.2623 33.358C89.0493 33.3836 88.8769 33.3713 88.7515 33.3258Z" fill="#1E1E1E"/>
<path d="M111.517 27.6883C111.01 28.0417 110.483 28.414 109.929 28.8006C109.381 29.1865 108.834 29.6274 108.299 30.1165C107.764 30.6056 107.261 31.168 106.801 31.797C106.341 32.426 105.946 33.163 105.62 33.9964C105.152 35.1779 104.882 36.3575 104.805 37.5359C104.734 38.7136 104.734 39.8609 104.809 40.9823C104.871 41.5098 104.811 42.0576 104.616 42.627C104.422 43.1964 104.103 43.5051 103.648 43.5598C103.076 43.6232 102.579 43.3908 102.164 42.8617C101.749 42.3326 101.449 41.8118 101.263 41.2991C100.497 39.2792 99.8301 37.2749 99.2554 35.2815C98.6807 33.2881 98.146 31.2954 97.6631 29.3075C97.6164 28.8995 97.7112 28.6178 97.9544 28.4727C98.1977 28.3276 98.4836 28.249 98.8242 28.2411C99.1928 28.2298 99.546 28.2755 99.8963 28.3877C100.247 28.4999 100.473 28.7098 100.57 29.0235C100.821 30.0908 101.107 31.209 101.432 32.372C101.758 33.5351 102.062 34.5297 102.345 35.356C102.346 34.3466 102.559 33.3448 102.989 32.3499C103.42 31.355 103.99 30.4315 104.7 29.5793C105.411 28.7272 106.238 27.9824 107.186 27.3442C108.135 26.706 109.127 26.2335 110.16 25.9436C110.607 25.8346 110.983 25.7893 111.293 25.8126C111.604 25.8359 111.825 25.9141 111.967 26.0459C112.103 26.1783 112.156 26.4091 112.118 26.739C112.08 27.058 111.882 27.3797 111.517 27.6883Z" fill="#1E1E1E"/>
<path d="M125.772 30.9622C124.674 31.7672 123.472 32.4304 122.155 32.9475C120.844 33.4694 119.397 33.8147 117.832 33.9922C118.013 35.0072 118.415 35.786 119.03 36.3241C119.646 36.8621 120.371 37.1442 121.199 37.1658C121.689 37.1675 122.176 37.0978 122.664 36.9563C123.152 36.8093 123.6 36.6229 124.019 36.3794C124.433 36.1421 124.809 35.8817 125.144 35.6097C125.479 35.3377 125.769 35.0656 126.008 34.7997C126.253 34.5331 126.52 34.352 126.814 34.2449C127.107 34.1378 127.331 34.1054 127.49 34.1469C127.93 34.2483 128.131 34.6653 128.102 35.4133C127.734 36.4008 127.135 37.2781 126.31 38.0392C125.485 38.8004 124.523 39.3299 123.429 39.6327C122.486 39.9172 121.482 39.9885 120.427 39.8399C119.366 39.6919 118.386 39.286 117.48 38.6175C116.704 38.0217 116.08 37.2916 115.611 36.4271C115.141 35.5627 114.802 34.6495 114.594 33.6983C114.394 32.8014 114.373 31.9325 114.532 31.0807C114.691 30.2343 115.002 29.4634 115.471 28.7726C115.94 28.0819 116.553 27.4896 117.319 26.9837C118.086 26.4832 119.01 26.1403 120.086 25.9611C121.371 25.7291 122.579 25.8262 123.7 26.2647C124.821 26.7033 125.655 27.3915 126.198 28.3408C126.505 28.8718 126.635 29.3471 126.575 29.7679C126.509 30.184 126.247 30.585 125.772 30.9622ZM120.204 28.5719C119.909 28.6627 119.597 28.8051 119.267 28.9881C118.938 29.1712 118.642 29.3944 118.384 29.646C118.126 29.8977 117.899 30.1732 117.705 30.4779C117.511 30.7825 117.421 31.1076 117.433 31.4647C117.944 31.4087 118.505 31.297 119.117 31.1406C119.723 30.9848 120.314 30.8033 120.887 30.6075C121.46 30.4116 121.984 30.1941 122.461 29.9602C122.937 29.7263 123.328 29.4916 123.639 29.2502C123.332 28.7246 122.845 28.4303 122.177 28.3729C121.514 28.3094 120.857 28.3775 120.204 28.5719Z" fill="#1E1E1E"/>
</svg>
