<svg width="16" height="314" viewBox="0 0 16 314" fill="none" xmlns="http://www.w3.org/2000/svg">
<path d="M6.99587 9.76846C6.99587 9.76846 7.006 9.76824 7.01612 9.76802C7.01612 9.76802 7.006 9.76824 6.99587 9.76846Z" fill="#00A99D"/>
<path d="M2.67436 303.344C2.96984 302.956 3.28685 302.625 3.72728 302.38C4.21769 302.105 4.68113 301.987 5.2163 301.907C4.26507 293.078 4.55928 284.222 5.0153 275.353C5.49758 265.826 5.90898 256.301 6.18854 246.769C6.73944 227.793 6.84418 208.798 6.49348 189.822C6.29063 179.066 5.9361 168.322 5.44994 157.582L5.44612 157.405C4.45184 148.46 4.75363 139.486 5.21764 130.518C5.69992 120.992 6.11133 111.466 6.39088 101.934C6.94179 82.9588 7.03662 63.9734 6.68571 44.9879C6.49581 34.829 6.16394 24.6634 5.72069 14.5003C5.20089 14.3547 4.68972 14.1404 4.19817 13.8962C3.08174 13.3324 2.12371 12.5986 1.35318 11.6353C0.582646 10.6719 0.202764 9.50412 0.0452166 8.31189C-0.248777 5.96617 0.999712 3.74381 2.88413 2.3505C3.73163 1.7245 4.77704 1.34902 5.81679 1.17946C7.16894 0.934535 8.53482 0.855914 9.86913 1.18959C11.3155 1.55025 12.5382 2.34696 13.4242 3.494C13.7998 3.99547 14.076 4.5873 14.2208 5.19179C14.4671 6.27429 14.3154 7.21842 13.8614 8.2377C13.6298 8.77194 12.9207 9.23813 12.3771 9.39693C12.2663 9.42873 12.1351 9.45118 12.0138 9.46361C12.1583 9.58788 12.2833 9.74197 12.3778 9.89673C12.704 10.4581 12.871 11.1503 12.6719 11.7818C12.4733 12.433 12.0873 12.8529 11.5391 13.2666C11.2601 13.4785 10.9603 13.6712 10.6501 13.8445C12.3317 51.2161 12.2624 88.6649 10.4186 126.034C9.90478 136.444 9.13933 146.927 10.4079 157.308C10.4315 157.464 10.4349 157.621 10.4178 157.768L10.4187 157.807C12.1269 195.472 12.0739 233.205 10.2164 270.879C9.73104 280.729 9.03449 290.652 10.038 300.489C10.1494 300.487 10.2704 300.465 10.382 300.472C11.7602 300.491 13.1263 300.893 14.1494 301.821C15.2652 302.826 15.6308 304.269 15.8029 305.666C15.962 306.927 15.7061 308.207 15.1637 309.355C14.1664 311.484 11.796 312.888 9.41797 313.008C8.15312 313.075 6.9496 312.699 5.78509 312.254C4.54906 311.781 3.43894 311.04 2.79579 309.878C2.47949 309.307 2.25368 308.704 2.11837 308.07C1.97187 307.387 1.80469 306.685 1.79973 305.99C1.81921 305.019 2.08339 304.121 2.67436 303.344ZM6.81163 9.68422C6.87302 9.71229 6.93448 9.74039 6.99587 9.76846C6.98575 9.76868 6.96521 9.75929 6.95509 9.75951C6.96521 9.75929 6.98568 9.76865 7.00593 9.76821C7.03673 9.78714 7.07766 9.80585 7.10825 9.81499C7.38461 9.9462 7.15894 9.81393 7.01612 9.76802C7.11781 9.78542 7.33165 9.83955 7.47447 9.88545C7.56496 9.85409 7.666 9.8421 7.75649 9.81073C7.78666 9.80028 7.8067 9.79004 7.82674 9.77981C8.19671 9.55618 8.55698 9.35236 8.89594 9.1C9.14504 8.90839 9.50744 8.80253 9.88145 8.76502C9.1985 8.1036 9.01695 7.2059 9.2708 6.29876C9.20877 6.24131 9.13662 6.18407 9.07459 6.12661C9.06425 6.11704 9.03345 6.0981 9.02332 6.09832C9.00286 6.08897 8.93092 6.04152 8.85919 6.00388C8.7573 5.97669 8.65541 5.9495 8.54339 5.92252C8.50267 5.91361 8.40099 5.89621 8.29931 5.87881C8.18772 5.87143 7.94428 5.85711 7.89365 5.85821C7.5593 5.85566 7.23613 5.90187 6.90241 5.92871C6.852 5.9396 6.79146 5.95071 6.73113 5.97162C6.54972 6.01476 6.37843 6.05767 6.20757 6.12018C6.18753 6.13041 6.17741 6.13063 6.15737 6.14087C6.02744 6.22209 5.86691 6.29417 5.74711 6.37517C5.64797 6.47533 5.53851 6.5659 5.44971 6.67563C5.42019 6.71548 5.38053 6.75554 5.35101 6.79538C5.29238 6.89465 5.24409 7.00351 5.22447 7.03333C5.22468 7.04313 5.20486 7.06316 5.19516 7.08297C5.15699 7.1916 5.11883 7.30023 5.091 7.41844C5.07202 7.47765 5.07351 7.54622 5.05474 7.61523C5.05687 7.71319 5.06912 7.81093 5.07018 7.85991C5.07039 7.8697 5.07103 7.89909 5.07167 7.92848C5.1048 8.05517 5.13816 8.19165 5.18142 8.31811C5.19154 8.31789 5.20231 8.34706 5.21307 8.37623C5.27637 8.49246 5.33989 8.61849 5.4131 8.72471C5.43378 8.74386 5.44454 8.77303 5.46522 8.79218C5.5686 8.88794 5.6724 9.00329 5.78591 9.09884C5.80637 9.10819 5.81671 9.11777 5.83717 9.12713C5.98063 9.20242 6.12494 9.31689 6.26839 9.39219C6.44286 9.49621 6.62725 9.59021 6.81163 9.68422ZM7.70343 307.753C8.14222 307.9 8.5806 308.028 9.03816 308.106C9.14954 308.104 9.26092 308.102 9.38243 308.099C9.47313 308.077 9.56405 308.066 9.65454 308.034C9.69483 308.023 9.73491 308.003 9.7752 307.992C9.91547 307.921 10.0456 307.849 10.1753 307.758C10.2152 307.728 10.2551 307.698 10.2648 307.678C10.3242 307.618 10.3837 307.558 10.4432 307.498C10.4531 307.488 10.4729 307.468 10.4926 307.438C10.5025 307.428 10.5124 307.418 10.5122 307.408C10.5512 307.339 10.6003 307.269 10.6391 307.19C10.6389 307.18 10.6488 307.17 10.6486 307.16C10.6678 307.111 10.6868 307.051 10.6864 307.032C10.7243 306.913 10.7317 306.786 10.7595 306.668C10.774 306.403 10.7582 306.138 10.7423 305.874C10.7083 305.708 10.6743 305.542 10.6302 305.377C10.61 305.377 10.5996 305.368 10.5794 305.368C10.3463 305.363 10.1134 305.368 9.88092 305.393C9.32613 305.503 8.77178 305.633 8.20666 305.733C7.9645 305.778 7.73182 305.792 7.50927 305.807C7.45001 305.877 7.40108 305.956 7.33147 306.017C7.20239 306.137 7.07288 306.238 6.93303 306.329C6.99025 306.632 7.04746 306.934 7.14517 307.236C7.16691 307.304 7.18844 307.362 7.20996 307.421C7.24119 307.459 7.26208 307.488 7.28339 307.537C7.33466 307.565 7.39626 307.603 7.44753 307.631C7.52938 307.669 7.62136 307.706 7.70343 307.753Z" fill="#00A99D"/>
</svg>
