<svg width="12" height="421" viewBox="0 0 12 421" fill="none" xmlns="http://www.w3.org/2000/svg">
<path d="M6.14133 413.955C6.14133 413.955 6.149 413.956 6.15667 413.956C6.15667 413.956 6.149 413.956 6.14133 413.955Z" fill="#00A99D"/>
<path d="M2.02353 7.66245C2.24728 7.93021 2.48733 8.15778 2.82083 8.32642C3.19219 8.51605 3.54312 8.59726 3.94836 8.65253C3.22806 14.7357 3.45085 20.8376 3.79616 26.9486C4.16136 33.5124 4.47288 40.0751 4.68457 46.6426C5.10173 59.7168 5.18105 72.8047 4.91549 85.8788C4.76188 93.2899 4.49342 100.692 4.12529 108.092L4.1224 108.214C4.00024 206.5 4.44344 324.581 4.7948 330.76C5.16 337.323 5.47152 343.886 5.68321 350.454C6.10038 363.528 6.17218 376.609 5.90647 389.689C5.76267 396.689 5.51137 403.693 5.17573 410.695C4.78212 410.796 4.39505 410.943 4.02284 411.111C3.17744 411.5 2.452 412.006 1.86853 412.669C1.28506 413.333 0.997398 414.138 0.878099 414.959C0.655479 416.575 1.60087 418.106 3.0278 419.066C3.66956 419.498 4.46117 419.756 5.2485 419.873C6.27238 420.042 7.30667 420.096 8.31705 419.866C9.41225 419.618 10.3382 419.069 11.009 418.279C11.2934 417.933 11.5026 417.525 11.6122 417.109C11.7988 416.363 11.6839 415.712 11.3401 415.01C11.1647 414.642 10.6278 414.321 10.2161 414.211C10.1323 414.19 10.0329 414.174 9.94107 414.166C10.0505 414.08 10.1451 413.974 10.2167 413.867C10.4637 413.48 10.5901 413.003 10.4394 412.568C10.289 412.12 9.99673 411.83 9.58162 411.545C9.37031 411.399 9.14334 411.267 8.90839 411.147C10.1817 385.398 10.1293 359.596 8.73309 333.849C7.88712 257 7.8851 332.173 8.00024 121C8.01815 120.892 7.90004 108.065 7.88712 107.964L7.88777 107.937C9.18127 81.9858 9.14114 55.9881 7.73461 30.0311C7.36705 23.2445 6.83961 16.4073 7.59947 9.62939C7.68381 9.63107 7.7755 9.64639 7.86 9.6413C8.90357 9.62811 9.93807 9.35144 10.7127 8.71173C11.5577 8.01941 11.8345 7.02548 11.9649 6.06247C12.0853 5.19379 11.8915 4.31216 11.4808 3.52078C10.7257 2.05411 8.93069 1.08682 7.12998 1.00403C6.17221 0.95813 5.26087 1.21698 4.37907 1.52371C3.44311 1.84961 2.60249 2.35974 2.11548 3.16043C1.87597 3.55411 1.70499 3.96933 1.60252 4.40622C1.49159 4.87671 1.36499 5.36038 1.36124 5.83972C1.37599 6.50852 1.57604 7.12692 2.02353 7.66245ZM6.00182 414.014C6.04831 413.994 6.09485 413.975 6.14133 413.955C6.13367 413.955 6.11812 413.962 6.11045 413.962C6.11812 413.962 6.13362 413.955 6.14895 413.956C6.17227 413.943 6.20327 413.93 6.22643 413.923C6.4357 413.833 6.26482 413.924 6.15667 413.956C6.23367 413.944 6.39559 413.907 6.50374 413.875C6.57226 413.896 6.64878 413.905 6.7173 413.926C6.74014 413.934 6.75531 413.941 6.77049 413.948C7.05064 414.102 7.32345 414.242 7.58012 414.416C7.76875 414.548 8.04316 414.621 8.32637 414.647C7.80923 415.103 7.67175 415.721 7.86397 416.346C7.817 416.386 7.76237 416.425 7.7154 416.465C7.70757 416.471 7.68425 416.484 7.67658 416.484C7.66108 416.491 7.60661 416.523 7.55229 416.549C7.47514 416.568 7.39798 416.587 7.31316 416.605C7.28233 416.611 7.20533 416.623 7.12834 416.635C7.04384 416.641 6.8595 416.65 6.82116 416.65C6.56798 416.651 6.32326 416.62 6.07056 416.601C6.03239 416.594 5.98654 416.586 5.94086 416.571C5.80349 416.542 5.67379 416.512 5.54441 416.469C5.52924 416.462 5.52157 416.462 5.5064 416.455C5.40801 416.399 5.28646 416.349 5.19573 416.293C5.12067 416.224 5.03777 416.162 4.97054 416.086C4.94818 416.059 4.91815 416.031 4.89579 416.004C4.8514 415.936 4.81483 415.861 4.79998 415.84C4.80014 415.833 4.78513 415.819 4.77778 415.806C4.74888 415.731 4.71998 415.656 4.69891 415.575C4.68454 415.534 4.68567 415.487 4.67146 415.439C4.67307 415.372 4.68234 415.304 4.68315 415.27C4.68331 415.264 4.68379 415.243 4.68427 415.223C4.70936 415.136 4.73462 415.042 4.76738 414.955C4.77505 414.955 4.7832 414.935 4.79135 414.915C4.83928 414.835 4.88737 414.748 4.94282 414.675C4.95847 414.661 4.96662 414.641 4.98228 414.628C5.06056 414.562 5.13916 414.483 5.22511 414.417C5.24061 414.41 5.24844 414.404 5.26393 414.397C5.37256 414.345 5.48184 414.267 5.59047 414.215C5.72258 414.143 5.8622 414.078 6.00182 414.014ZM5.83168 4.62473C6.16395 4.52325 6.4959 4.43524 6.84238 4.38132C6.92672 4.383 7.01106 4.38467 7.10307 4.38648C7.17176 4.40134 7.2406 4.40945 7.30913 4.43106C7.33963 4.43842 7.36998 4.45248 7.40049 4.45984C7.50671 4.50922 7.60526 4.55844 7.70348 4.62116C7.73367 4.642 7.76386 4.66287 7.7712 4.67651C7.81624 4.71793 7.86128 4.75931 7.90632 4.80072C7.91383 4.80762 7.92884 4.82141 7.94369 4.84195C7.9512 4.84885 7.95871 4.85577 7.95855 4.86252C7.98809 4.91037 8.0253 4.95837 8.05468 5.01297C8.05452 5.01971 8.06203 5.02661 8.06187 5.03336C8.0764 5.06741 8.09077 5.10825 8.09045 5.12173C8.11918 5.20334 8.12476 5.2912 8.14583 5.37265C8.15683 5.55518 8.14481 5.73727 8.1328 5.91934C8.10707 6.03363 8.08133 6.14789 8.04793 6.26202C8.03259 6.26172 8.02477 6.26831 8.00943 6.26801C7.83292 6.27127 7.65657 6.26779 7.48054 6.25082C7.06045 6.17502 6.64067 6.08569 6.21275 6.01648C6.02938 5.98584 5.85319 5.97562 5.68467 5.96555C5.63979 5.91739 5.60274 5.86267 5.55003 5.82111C5.45229 5.73816 5.35422 5.6687 5.24832 5.60584C5.29165 5.39737 5.33497 5.18887 5.40896 4.98102C5.42542 4.93408 5.44172 4.89389 5.45802 4.8537C5.48167 4.82715 5.49749 4.80722 5.51362 4.77377C5.55244 4.75427 5.59909 4.72821 5.63791 4.70871C5.69989 4.68292 5.76954 4.65726 5.83168 4.62473Z" fill="#00A99D"/>
</svg>
