<svg width="11" height="182" viewBox="0 0 11 182" fill="none" xmlns="http://www.w3.org/2000/svg">
<path d="M8.92445 0.911778C8.34044 0.518017 7.53742 0.255511 6.8074 0.124257C5.85838 -0.0069964 4.83635 -0.0726231 3.88733 0.124257C2.79231 0.386764 1.91629 0.911778 1.33227 1.6993C1.04026 2.02743 0.82126 2.42119 0.748258 2.81495C0.529253 3.53685 0.675256 4.19311 0.967263 4.84938C1.18627 5.24314 1.69728 5.57128 2.06229 5.6369C2.13529 5.6369 2.20829 5.6369 2.3543 5.70253C2.20829 5.76816 2.13529 5.89941 2.06229 5.96504C1.84328 6.3588 1.69728 6.81818 1.84328 7.21194C1.98929 7.67133 2.28129 7.93384 2.6463 8.19635C2.86531 8.3276 3.08431 8.45885 3.30332 8.59011C2.5733 25.8499 2.42718 106.953 2.79219 124.212C2.86519 128.347 4.03322 173.433 4.10622 173.433C4.03322 173.433 3.96022 173.433 3.88722 173.433C2.86519 173.433 1.91617 173.695 1.18616 174.351C0.383137 175.008 0.0911301 175.992 0.0181284 176.911C-0.0548734 177.764 0.0911301 178.617 0.456139 179.405C1.18616 180.848 2.86519 181.767 4.61724 181.833C5.56626 181.898 6.36928 181.636 7.2453 181.308C8.12132 180.98 8.92434 180.52 9.36235 179.733C9.58135 179.339 9.72736 178.945 9.87336 178.551C9.94636 178.092 10.0924 177.633 10.0924 177.173C10.0924 176.517 9.87336 175.926 9.50835 175.401C9.28934 175.139 9.07034 174.942 8.77833 174.745C8.41332 174.548 8.12132 174.483 7.68331 174.417C8.34032 168.511 8.12132 162.538 7.75631 156.632C7.1723 146.132 6.73429 135.566 6.51528 125C6.22327 118.569 5.42025 89.5 6.15038 41.9941C6.15038 37.8596 6.15038 33.6595 6.22339 29.525C6.36939 22.6999 6.51539 15.8747 6.8804 9.11512C7.24541 8.98387 7.61042 8.85261 7.97543 8.72136C8.77845 8.3276 9.43546 7.86821 10.0195 7.21194C10.6035 6.55568 10.8225 5.76816 10.9685 4.98064C11.1875 3.33997 10.2385 1.83055 8.92445 0.911778ZM6.15027 177.961C6.15027 178.026 6.15027 178.026 6.07727 178.092C6.07727 178.092 6.07727 178.158 6.00427 178.158C5.93127 178.158 5.93127 178.223 5.85826 178.223C5.78526 178.223 5.71226 178.289 5.63926 178.289C5.34725 178.42 4.98224 178.486 4.69024 178.551C4.61724 178.551 4.54423 178.551 4.47123 178.551C4.39823 178.551 4.32523 178.551 4.25223 178.486H4.17923C4.10622 178.42 3.96022 178.42 3.88722 178.355L3.81422 178.289C3.74122 178.223 3.74121 178.223 3.66821 178.158C3.66821 178.158 3.66821 178.158 3.66821 178.092C3.66821 178.026 3.59521 178.026 3.59521 177.961C3.59521 177.895 3.59521 177.895 3.59521 177.895C3.59521 177.83 3.59521 177.698 3.52221 177.633C3.52221 177.436 3.52221 177.305 3.52221 177.108C3.52221 176.976 3.59521 176.911 3.59521 176.779C3.59521 176.779 3.59521 176.779 3.66821 176.779C3.81422 176.779 4.03322 176.779 4.17923 176.779C4.61724 176.845 4.98224 176.911 5.42025 176.976C5.56626 176.976 5.78526 177.042 5.93127 177.042C6.00427 177.108 6.00427 177.108 6.07727 177.173C6.15027 177.239 6.29627 177.305 6.36928 177.37C6.29627 177.501 6.22327 177.764 6.15027 177.961ZM7.31841 4.58687C7.31841 4.71813 7.24541 4.78376 7.24541 4.91501V4.98064C7.17241 5.04626 7.17241 5.11189 7.09941 5.17752C7.09941 5.17752 7.09941 5.17752 7.09941 5.24314C6.9534 5.30877 6.8804 5.3744 6.8074 5.44002C6.6614 5.50565 6.58839 5.57128 6.44239 5.6369C6.36939 5.70253 6.22339 5.76816 6.07738 5.83378C6.00438 5.83378 6.00438 5.83378 5.93138 5.89941C5.93138 5.89941 5.85838 5.89941 5.85838 5.96504C5.63937 6.03066 5.85838 5.96504 5.93138 5.96504C5.85838 5.89941 5.71237 5.96504 5.63937 5.96504C5.56637 5.96504 5.49337 5.89941 5.42037 5.89941C5.42037 5.89941 5.42037 5.89941 5.34737 5.89941C5.05536 5.76816 4.83635 5.6369 4.54435 5.44002C4.39834 5.30877 4.10634 5.24314 3.88733 5.24314C4.39834 4.78375 4.47134 4.19311 4.32534 3.60247C4.39834 3.53685 4.39834 3.53685 4.47134 3.47122H4.54435C4.54435 3.47122 4.61735 3.47122 4.69035 3.40559C4.76335 3.40559 4.83635 3.33997 4.90936 3.33997C4.90936 3.33997 4.98236 3.33997 5.05536 3.33997C5.12836 3.33997 5.27436 3.33997 5.34737 3.33997C5.56637 3.33997 5.78538 3.33997 6.07738 3.40559C6.15038 3.40559 6.15038 3.40559 6.22339 3.40559C6.36939 3.40559 6.44239 3.47122 6.58839 3.47122C6.6614 3.53685 6.8074 3.60247 6.8804 3.60247C6.9534 3.6681 7.0264 3.73373 7.09941 3.79935L7.17241 3.86498C7.17241 3.93061 7.17241 3.99623 7.24541 4.06186C7.24541 4.06186 7.24541 4.06186 7.24541 4.12749C7.24541 4.19311 7.31841 4.25874 7.31841 4.32437C7.31841 4.38999 7.31841 4.39 7.31841 4.45562C7.31841 4.52125 7.31841 4.58687 7.31841 4.58687Z" fill="#FBB03B"/>
</svg>
