<svg width="1627" height="684" viewBox="0 0 1627 684" fill="none" xmlns="http://www.w3.org/2000/svg">
<path d="M1482.93 115.692C1461.21 75.0282 1413.5 101.943 1383.2 111.498C1349.05 122.908 1313.96 133.923 1279.47 144.611L1182.45 175.435C1150.81 185.573 1112.86 190.601 1094.03 220.985C1085.86 233.11 1085.98 254.469 1097.38 265.455C1170.57 337.449 1244.1 408.488 1316.97 479.82C1321.39 484.154 1326.69 487.492 1332.51 489.611C1333.4 491.191 1334.59 492.583 1336.01 493.713C1351.28 504.553 1375.63 501.924 1384.71 485.159C1414.63 429.23 1437.63 369.863 1453.18 308.373C1461.59 277.232 1468.69 245.004 1475.17 213.099C1478.59 199.087 1481.02 184.762 1483.84 171.077C1487.25 152.317 1493.5 134.484 1482.93 115.692Z" fill="white"/>
<path d="M982.451 514.317C1005.24 485.691 970.605 459.4 954.105 440.336C935.04 419.05 915.964 396.947 897.317 375.184L844.312 314.206C826.964 294.345 811.351 268.278 783.286 264.129C771.879 261.99 756.357 268.807 751.939 280.567C722.532 356.561 693.927 432.5 664.902 508.052C663.137 512.639 662.373 517.55 662.661 522.456C661.791 523.603 661.15 524.908 660.775 526.297C657.686 540.839 667.267 557.748 682.342 559.089C732.512 563.279 783.004 561.339 832.703 553.312C858.036 549.628 883.754 544.658 909.037 539.329C920.323 537.41 931.528 534.674 942.384 532.417C957.125 528.992 972.087 527.934 982.451 514.317Z" fill="white"/>
<path d="M320.709 337.094C334.186 358.565 359.327 341.965 375.578 335.559C393.872 327.986 412.701 320.594 431.21 313.404L483.245 292.764C500.212 285.986 520.837 281.768 529.996 264.376C534.014 257.41 533.124 245.698 526.451 240.11C483.532 203.431 440.464 167.29 397.746 130.962C395.153 128.755 392.118 127.128 388.845 126.189C388.295 125.357 387.589 124.639 386.767 124.074C377.971 118.715 364.717 121.093 360.379 130.639C346.116 162.471 335.785 195.922 329.617 230.252C326.206 247.657 323.546 265.61 321.223 283.361C319.884 291.179 319.099 299.131 318.081 306.746C316.933 317.169 314.188 327.192 320.709 337.094Z" fill="white"/>
<path d="M112.345 596.839C132.145 605.505 141.898 581.743 150.277 569.43C159.536 555.316 169.259 541.071 178.854 527.124L205.622 487.611C214.327 474.692 226.839 461.824 224.949 445.172C224.439 438.335 218.191 430.509 210.807 429.772C162.961 424.516 115.268 419.71 67.7317 414.605C64.8454 414.293 61.9257 414.602 59.1685 415.511C58.3815 415.189 57.5398 415.021 56.6893 415.018C47.9189 415.461 39.7197 423.497 41.2422 432.306C46.4638 461.583 55.2337 490.114 67.3581 517.268C73.3057 531.171 80.0456 545.1 86.9251 558.724C89.7331 564.876 92.9954 570.857 95.9316 576.713C100.124 584.608 102.998 592.989 112.345 596.839Z" fill="white"/>
</svg>
