<svg width="129" height="65" viewBox="0 0 129 65" fill="none" xmlns="http://www.w3.org/2000/svg">
<path d="M12.4439 23.279C12.659 24.0617 12.8813 24.8974 13.0575 25.7936C13.2336 26.6898 13.4098 27.586 13.5859 28.4822C13.7621 29.3784 13.8849 30.2819 14.0004 31.1322C14.1159 31.9825 14.1709 32.7869 14.2648 33.4778C15.2589 33.9922 15.8722 34.5042 16.1507 34.9535C16.3758 35.41 16.487 35.8279 16.3774 36.2217C16.2895 36.7749 16.0053 37.0841 15.5782 37.1422C15.1512 37.2002 14.5957 37.1133 13.9652 36.8742C13.5742 37.198 13.1905 37.5749 12.7 37.9663C12.2095 38.3577 11.719 38.7491 11.1752 39.1477C10.6313 39.5464 10.073 39.8388 9.57526 40.177C9.01695 40.4694 8.5048 40.7014 8.0388 40.8729C7.15298 41.1557 6.26998 41.0592 5.51103 40.6752C4.69869 40.2984 4.11715 39.6197 3.72025 38.6994C3.40562 37.9844 3.25836 37.3008 3.27124 36.5954C3.28412 35.89 3.40377 35.1701 3.6374 34.4889C3.92441 33.8004 4.32541 33.1505 4.84762 32.5924C5.3626 31.9812 6.00601 31.5149 6.77063 31.1403C6.96972 31.005 7.2294 30.9156 7.59585 30.8117C7.9623 30.7078 8.33598 30.657 8.70965 30.6062C9.08332 30.5555 9.52482 30.6037 9.92016 30.7124C10.3689 30.8138 10.7181 30.9828 11.1423 31.304C11.0773 30.8258 11.0051 30.2943 10.9256 29.7097C10.8462 29.1251 10.7134 28.5478 10.6339 27.9632C10.5545 27.3786 10.4217 26.8013 10.2961 26.2771C10.1705 25.753 10.0593 25.3351 9.9554 24.9703C9.84424 24.5524 9.64799 24.3084 9.36663 24.2384C9.08528 24.1684 8.76499 24.2119 8.3596 24.4294C7.69452 24.7363 6.95157 25.2702 6.13796 26.0844C5.31713 26.8455 4.50352 27.6597 3.75051 28.5197C3.51971 28.8217 3.26725 28.9643 2.88635 28.9619C2.55884 28.9523 2.27749 28.8823 1.98169 28.706C1.73928 28.5224 1.54303 28.2784 1.4997 27.9596C1.40299 27.648 1.5198 27.3073 1.74338 26.9522C2.1516 26.3555 2.67381 25.7974 3.18157 25.133C3.69655 24.5218 4.27214 23.9564 4.90111 23.3839C5.48392 22.8717 6.12733 22.4053 6.78518 22.0453C7.44304 21.6853 8.11534 21.4316 8.80208 21.2841C9.81633 21.1463 10.5926 21.2573 11.1914 21.6631C11.8291 21.9553 12.2361 22.5495 12.4439 23.279ZM8.61479 33.1089C8.25556 33.2659 7.90355 33.4762 7.51261 33.7999C7.12166 34.1237 6.79132 34.4933 6.52158 34.9088C6.25184 35.3244 6.0427 35.7858 5.94755 36.2858C5.8524 36.7859 5.91739 37.2642 6.08193 37.6748C6.15698 37.827 6.28541 37.9719 6.50615 37.9961C6.7269 38.0202 6.89427 38.0516 7.15396 37.9622C7.82626 37.7084 8.59087 37.3339 9.39443 36.8458C10.1908 36.3046 10.8803 35.7779 11.2958 35.2343C11.2741 35.0749 11.1385 34.8768 10.935 34.5797C10.7387 34.3358 10.4891 34.0991 10.2395 33.8624C9.98983 33.6257 9.68682 33.3962 9.39824 33.273C9.10967 33.1499 8.82832 33.0799 8.61479 33.1089Z" fill="#FBB03B"/>
<path d="M20.103 24.0242C20.2676 24.4348 20.3859 24.9059 20.5649 25.4228C20.7439 25.9397 20.9229 26.4566 21.1091 27.0267C21.2881 27.5437 21.4743 28.1137 21.6071 28.6911C21.7933 29.2611 21.9189 29.7853 22.0445 30.3095C22.3171 29.5147 22.5824 28.6668 22.8478 27.8188C23.1593 26.9105 23.4852 26.1085 23.8718 25.3523C24.2583 24.5961 24.6593 23.9463 25.1354 23.4486C25.6042 22.8978 26.1625 22.6054 26.8031 22.5183C27.764 22.3878 28.6152 22.651 29.3497 23.2548C30.0842 23.8586 30.7335 24.6364 31.2978 25.5881C31.8621 26.5398 32.3802 27.5519 32.7453 28.6389C33.1639 29.7186 33.5146 30.6994 33.7903 31.5279C34.0588 32.3033 33.8107 32.8783 32.9538 33.3736C32.5556 33.6442 32.2887 33.6805 32.0535 33.55C31.8183 33.4196 31.6971 33.3279 31.6755 33.1684C31.472 32.8713 31.2252 32.2554 30.8961 31.4341C30.567 30.6128 30.2307 29.7383 29.8483 28.9243C29.4586 28.0571 29.0372 27.3566 28.623 26.7093C28.2161 26.1151 27.7457 25.8543 27.3259 25.9654C26.7921 26.038 26.4228 26.5212 26.0968 27.3232C25.8026 27.9586 25.5762 28.693 25.2964 29.4346C25.0238 30.2294 24.7512 31.0242 24.5321 31.8117C24.2595 32.6065 24.0403 33.3941 23.8283 34.2347C23.6091 35.0223 23.3827 35.7567 23.1491 36.4379C22.9645 36.6795 22.712 36.8221 22.4595 36.9646C22.1465 37.0613 21.8795 37.0976 21.5448 37.0348C21.2635 36.9648 20.9821 36.8948 20.7931 36.704C20.604 36.5131 20.4684 36.3151 20.4467 36.1556C19.8765 33.9599 19.3886 31.9694 18.8689 30.1456C18.3565 28.375 17.7762 26.5054 17.0892 24.6502C16.8279 23.928 16.7023 23.4038 16.8119 23.01C16.8681 22.6235 17.2735 22.406 18.0353 22.4108C19.0712 22.4324 19.7451 22.9903 20.103 24.0242Z" fill="#FBB03B"/>
<path d="M41.9387 13.4794C41.7598 12.9625 41.7482 12.477 41.8505 12.0301C41.9601 11.6363 42.2443 11.327 42.7709 11.2014C43.1907 11.0902 43.5789 11.1457 43.9425 11.421C44.2989 11.6432 44.5629 11.9862 44.7347 12.45C45.7163 15.6724 46.6906 18.8416 47.6188 22.0713C48.5397 25.2478 49.4001 28.3784 50.1998 31.4631C50.4221 32.2989 50.441 32.8376 50.2708 33.1854C50.1006 33.5333 49.8626 33.7822 49.5567 33.932C49.2581 34.1349 48.8844 34.1857 48.5958 34.0626C48.2539 33.9466 48.0576 33.7027 47.9003 33.3452L47.8108 33.0867L47.6579 33.1616C46.7404 33.6111 45.8084 33.9542 44.7407 34.0993C43.7337 34.2903 42.6978 34.2687 41.7008 34.1335C40.7038 33.9984 39.8381 33.6289 38.9969 33.0396C38.1629 32.5034 37.5669 31.7184 37.1094 30.7522C36.1193 28.6676 36.3253 26.5828 37.6279 24.5655C38.1674 23.7345 38.9348 22.9807 39.809 22.2124C40.6905 21.4972 41.7999 20.8594 43.1445 20.3519L43.9235 20.0836L41.9387 13.4794ZM39.5345 29.3942C39.7885 30.0633 40.181 30.5513 40.712 30.858C41.243 31.1647 41.8129 31.3579 42.468 31.3771C43.1302 31.4495 43.7708 31.3625 44.5109 31.2078C45.1904 31.0072 45.9233 30.7993 46.5812 30.4393L46.9404 30.2822L44.7405 22.8954L43.9153 23.224C43.3498 23.4633 42.7453 23.816 42.1019 24.2823C41.4585 24.7486 40.9218 25.2004 40.4602 25.8044C39.9914 26.3552 39.69 26.9375 39.5025 27.5583C39.2544 28.1333 39.2877 28.7783 39.5345 29.3942Z" fill="#FBB03B"/>
<path d="M30.6016 47.224C30.4025 47.3593 30.1962 47.4415 29.8686 47.4319C29.5945 47.415 29.3059 47.2918 29.0491 47.002C28.4892 46.4827 27.9121 46.2364 27.2715 46.3234C26.6843 46.4032 26.1649 46.582 25.7206 46.913C25.2763 47.244 24.8998 47.6741 24.5839 48.15C24.268 48.6259 24.0733 49.1936 23.8786 49.7614C23.7373 50.3218 23.6493 50.875 23.622 51.4741C23.5991 52.5056 23.8748 53.3341 24.4491 53.9597C25.0234 54.5853 25.8213 54.8558 26.8889 54.7107C27.7503 54.6478 28.6361 54.365 29.6532 53.8479C30.6702 53.3308 31.5733 52.7751 32.4014 52.0672C32.8068 51.8498 33.166 51.6927 33.4863 51.6492C33.8066 51.6056 34.1486 51.7216 34.4126 52.0645C34.7445 52.5066 34.7489 52.939 34.3869 53.4753C34.0248 54.0116 33.4954 54.5166 32.852 54.9829C32.1552 55.4564 31.4584 55.93 30.6938 56.3045C29.9364 56.7322 29.1573 57.0004 28.3782 57.2687C27.592 57.4838 26.7912 57.5926 25.9761 57.5951C25.1609 57.5976 24.3774 57.4335 23.6719 57.0422C22.5031 56.4433 21.6647 55.4747 21.2634 54.122C20.8621 52.7693 20.7811 51.373 21.006 49.8269C21.0939 49.2737 21.2814 48.6529 21.5295 48.0779C21.7775 47.503 22.079 46.9208 22.5017 46.4303C22.8637 45.894 23.347 45.4494 23.8375 45.058C24.328 44.6666 24.9397 44.367 25.5658 44.1737C26.6118 43.8692 27.6405 43.8376 28.6519 44.0791C29.6633 44.3205 30.405 44.9775 30.8625 45.9437C30.9448 46.149 30.9809 46.4147 30.9564 46.6346C30.9319 46.8544 30.854 47.0815 30.6016 47.224Z" fill="#1E1E1E"/>
<path d="M39.7805 44.3532C39.7287 45.1721 39.6235 45.9983 39.5933 46.9766C39.556 47.9018 39.5186 48.827 39.5807 49.6846C39.6429 50.5422 39.6979 51.3466 39.8985 52.0229C40.0458 52.7066 40.3243 53.1558 40.6345 53.4384C41.1294 53.4794 41.6877 53.1871 42.2633 52.6217C42.8389 52.0564 43.3928 51.3316 43.8717 50.4546C44.3578 49.6308 44.8294 48.7007 45.1871 47.732C45.5448 46.7633 45.8101 45.9153 45.9298 45.1955C45.9932 44.8621 46.0494 44.4756 46.1056 44.0891C46.1618 43.7025 46.1647 43.3233 46.1069 42.8981C46.078 42.6855 46.2093 42.4512 46.5007 42.1951C46.7921 41.939 46.9912 41.8037 47.1975 41.7216C47.3504 41.6466 47.5178 41.678 47.6923 41.7626C47.8669 41.8471 48.0949 41.9244 48.2767 42.062C48.4585 42.1997 48.6403 42.3374 48.7832 42.5886C48.9189 42.7866 49.0545 42.9847 49.0906 43.2504C49.2595 44.0935 49.4429 45.0428 49.6869 46.038C49.9309 47.0333 50.1821 48.0816 50.4794 49.0696C50.7768 50.0576 51.0741 51.0456 51.3715 52.0335C51.6688 53.0215 51.9445 53.85 52.2058 54.5723C52.3559 54.8767 52.2997 55.2632 52.0833 55.6714C51.8742 56.1329 51.6361 56.3817 51.3303 56.5315C51.0706 56.6209 50.7965 56.6041 50.5151 56.534C50.2338 56.464 49.9841 56.2273 49.7807 55.9302C49.5627 55.5268 49.391 55.063 49.2048 54.493C49.0186 53.9229 48.8252 53.2997 48.6317 52.6765C48.4383 52.0532 48.2983 51.4228 48.1121 50.8527C47.9259 50.2826 47.8075 49.8116 47.7497 49.3864C47.4238 50.1885 46.9983 51.0582 46.5194 51.9351C46.0405 52.8121 45.4938 53.59 44.8865 54.322C44.2792 55.054 43.6503 55.6266 42.9535 56.1002C42.2567 56.5738 41.5238 56.7816 40.762 56.7769C39.6193 56.7698 38.5674 55.8302 37.7057 53.8905C37.3839 53.1224 37.1544 52.2335 37.0244 51.2769C36.8944 50.3203 36.8712 49.3492 36.8479 48.3781C36.8781 47.3997 36.9155 46.4745 36.9601 45.6024C37.058 44.7231 37.1243 44.0105 37.2122 43.4573C37.2367 43.2375 37.3146 43.0104 37.4993 42.7688C37.6377 42.5876 37.8368 42.4523 38.0576 42.4764C38.4991 42.5247 38.9088 42.7396 39.3403 43.114C39.6578 43.4497 39.8295 43.9135 39.7805 44.3532Z" fill="#1E1E1E"/>
<path d="M61.7808 41.4174C61.6841 41.1058 61.5874 40.7942 61.4979 40.5357C61.4084 40.2773 61.2193 40.0864 60.9914 40.0092C60.4893 39.915 59.9555 39.9876 59.4361 40.1664C58.9167 40.3452 58.4046 40.5772 58.0136 40.9009C57.5693 41.2319 57.2317 41.5484 56.9475 41.8577C56.6706 42.2201 56.5465 42.5076 56.522 42.7274C56.4731 43.167 56.6376 43.5777 57.0084 43.9062C57.3865 44.2878 57.8641 44.6018 58.5625 44.9399C59.6561 45.3866 60.7571 45.8865 61.9647 46.3719C63.119 46.8646 64.1132 47.379 64.9544 47.9683C65.7884 48.5045 66.3699 49.1832 66.7452 49.9441C67.1204 50.705 67.1898 51.6157 66.8927 52.6303C66.6735 53.4179 66.173 54.1354 65.3839 54.7297C64.5948 55.3241 63.6844 55.8267 62.7063 56.2302C61.7282 56.6338 60.6822 56.9383 59.6824 57.1824C58.6826 57.4265 57.7823 57.603 57.0811 57.6441C56.921 57.6659 56.7002 57.6417 56.4117 57.5186C56.1303 57.4486 55.8951 57.3181 55.6527 57.1346C55.4175 57.0042 55.2285 56.8134 55.0467 56.6757C54.8576 56.4849 54.7826 56.3327 54.7682 56.2264C54.6959 55.695 54.8661 55.3471 55.3177 55.0692C55.7692 54.7914 56.2352 54.6198 56.7229 54.6077C57.4168 54.5134 58.1642 54.4118 58.9505 54.1967C59.744 54.0347 60.4769 53.8269 61.1492 53.5732C61.8215 53.3194 62.4865 53.0126 62.9915 52.7274C63.5426 52.3819 63.8729 52.0123 64.0893 51.604C64.2595 51.2561 64.0949 50.8455 63.5495 50.4325C63.0574 50.0122 62.4053 49.6137 61.5857 49.1838C60.7661 48.7539 59.9538 48.3772 59.0275 47.9618C58.1084 47.5996 57.3494 47.2156 56.6583 46.9306C56.0133 46.5853 55.4145 46.1795 54.9152 45.7061C54.4087 45.1796 54.0479 44.525 53.8329 43.7423C53.7318 42.9983 53.798 42.2857 54.0244 41.5513C54.3042 40.8096 54.6518 40.167 55.1668 39.5558C55.6818 38.9445 56.2646 38.4323 56.9152 38.0192C57.5659 37.606 58.2916 37.345 58.9855 37.2507C60.2205 37.137 61.2853 37.3712 62.1655 37.847C63.0529 38.3759 63.6561 39.2141 63.9217 40.3687C63.9795 40.7939 63.9694 41.12 63.8454 41.4075C63.7747 41.6877 63.5295 41.8834 63.2164 41.9801C62.7966 42.0913 62.4691 42.0816 62.2339 41.9512C62.0059 41.8739 61.8703 41.6759 61.7808 41.4174Z" fill="#1E1E1E"/>
<path d="M78.3113 40.6326C78.8451 40.5601 79.3934 40.5938 80.0167 40.7797C80.5866 40.9729 80.9185 41.4149 80.9979 41.9995C81.0096 42.4851 80.786 42.8402 80.32 43.0118C79.854 43.1833 79.4948 43.3404 79.2206 43.3235C78.6334 43.4033 78.0462 43.4831 77.3595 43.6306C76.7189 43.7176 76.0322 43.8651 75.3454 44.0125C75.422 44.9764 75.4842 45.8339 75.5464 46.6915C75.6085 47.549 75.649 48.2471 75.7429 48.938C75.7762 49.583 75.8484 50.1144 75.899 50.4864C75.9567 50.9116 75.9856 51.1242 76.039 51.1169C76.6651 50.9236 77.3302 50.6167 77.9881 50.2567C78.6993 49.8894 79.4033 49.469 80.0539 49.0558C80.758 48.6354 81.4086 48.2222 82.052 47.7559C82.6954 47.2896 83.346 46.8765 83.9433 46.4706C84.1885 46.2749 84.4555 46.2386 84.7296 46.2555C85.0037 46.2723 85.1321 46.4173 85.2072 46.5694C85.3039 46.881 85.3011 47.2603 85.2059 47.7604C85.1108 48.2604 84.8944 48.6687 84.5713 49.0915C84.1876 49.4684 83.6581 49.9733 83.0219 50.4928C82.3858 51.0122 81.6962 51.5389 80.8926 52.027C80.1425 52.5078 79.3923 52.9886 78.5743 53.3704C77.8169 53.7981 77.0912 54.0591 76.4578 54.1993C75.5042 54.383 74.7813 54.2647 74.2142 53.6923C73.6544 53.173 73.2791 52.4121 73.103 51.5159C72.9268 50.6197 72.7824 49.5568 72.6697 48.3273C72.557 47.0977 72.4443 45.8681 72.3099 44.4791C71.7833 44.6048 71.2567 44.7305 70.7835 44.8489C70.3103 44.9674 69.837 45.0858 69.3638 45.2042C68.9902 45.255 68.5487 45.2067 68.1 45.1053C67.6512 45.0039 67.3944 44.7141 67.3222 44.1826C67.3005 44.0232 67.3178 43.7502 67.4418 43.4628C67.5658 43.1753 67.8572 42.9192 68.316 42.6945C69.4615 42.3223 70.7744 41.9815 72.1479 41.6866C72.0741 40.3435 72.0003 39.0004 71.941 37.7636C71.8744 36.4736 71.8296 35.3431 71.7991 34.3189C71.8092 33.9927 71.8726 33.6594 71.9966 33.3719C72.1207 33.0844 72.3198 32.9491 72.5333 32.9201C73.0137 32.8548 73.5086 32.8958 73.9718 33.1035C74.4349 33.3112 74.6918 33.601 74.7351 33.9199C74.7583 34.891 74.8032 36.0215 74.8092 37.2656C74.8685 38.5024 74.9351 39.7924 75.0016 41.0823C75.5816 40.9494 76.1082 40.8237 76.642 40.7512C77.3043 40.8236 77.7847 40.7583 78.3113 40.6326Z" fill="#1E1E1E"/>
<path d="M95.5786 34.8764C96.476 35.0792 97.2883 35.456 97.9622 36.0139C98.6361 36.5718 99.157 37.2047 99.5856 37.9583C100.014 38.7119 100.283 39.4873 100.452 40.3304C100.621 41.1734 100.615 41.932 100.449 42.7122C100.237 43.5529 99.9184 44.4081 99.5391 45.2174C99.1597 46.0267 98.6664 46.7974 98.1053 47.469C97.5441 48.1406 96.9152 48.7132 96.1116 49.2013C95.3614 49.6821 94.4756 49.9649 93.5147 50.0954C92.3403 50.255 91.29 50.1271 90.4098 49.6514C89.5369 49.2287 88.7952 48.5718 88.2526 47.7795C87.71 46.9872 87.2525 46.021 87.0013 44.9726C86.7501 43.9243 86.5984 42.8082 86.6675 41.7164C86.666 40.9047 86.7712 40.0785 86.937 39.2982C87.1028 38.5179 87.3826 37.7763 87.7302 37.1337C88.0778 36.4911 88.4932 35.9475 89.0299 35.4957C89.5665 35.0439 90.1855 34.7974 90.8794 34.7031C91.3065 34.6451 91.8013 34.6861 92.4102 34.7657C93.0191 34.8453 93.6352 34.9781 94.1589 35.2317C94.5427 34.8548 94.9625 34.7436 95.5786 34.8764ZM94.3498 38.2368C94.0006 38.0677 93.5909 37.8528 93.1739 37.5847C92.7035 37.3239 92.3081 37.2152 91.9878 37.2587C91.6676 37.3023 91.3155 37.5125 91.0386 37.8749C90.7616 38.2372 90.4919 38.6528 90.3289 39.0538C90.1198 39.5152 89.964 39.9694 89.8616 40.4163C89.7593 40.8632 89.6958 41.1966 89.6252 41.4768C89.5762 41.9165 89.595 42.4552 89.6745 43.0398C89.7005 43.6316 89.8333 44.2089 90.0268 44.8321C90.213 45.4022 90.4987 45.9046 90.884 46.3394C91.2693 46.7742 91.793 47.0278 92.5159 47.146C92.9574 47.1943 93.3844 47.1363 93.9572 46.9502C94.4766 46.7714 94.9743 46.4331 95.4648 46.0417C95.9553 45.6503 96.3707 45.1067 96.7717 44.4568C97.1727 43.807 97.4597 43.1185 97.6255 42.3382C97.7769 41.4516 97.7147 40.594 97.3251 39.7269C96.9354 38.8597 96.3149 38.2945 95.403 37.9854C95.2111 38.1739 95.0048 38.256 94.8447 38.2778C94.6312 38.3068 94.4638 38.2754 94.3498 38.2368Z" fill="#1E1E1E"/>
<path d="M105.78 34.7348C105.845 35.2131 105.971 35.7373 106.172 36.4137C106.319 37.0973 106.52 37.7737 106.674 38.5104C106.882 39.2399 107.029 39.9236 107.237 40.6531C107.438 41.3294 107.585 42.013 107.771 42.5831C108.005 41.9019 108.277 41.1071 108.635 40.1383C108.993 39.1696 109.35 38.2009 109.722 37.3384C110.141 36.4156 110.527 35.6594 110.982 35.0023C111.436 34.3452 111.88 34.0142 112.307 33.9562C112.788 33.8909 113.244 34.0454 113.682 34.4729C114.114 34.8473 114.514 35.3884 114.913 35.9294C115.267 36.5309 115.628 37.1855 115.935 37.8473C116.243 38.5092 116.489 39.1252 116.729 39.688C116.785 39.3015 116.888 38.8546 117.036 38.3472C117.185 37.8399 117.28 37.3399 117.482 36.8253C117.63 36.318 117.825 35.7503 118.027 35.2357C118.229 34.7212 118.491 34.2525 118.761 33.837C119.084 33.4142 119.468 33.0373 119.873 32.8198C120.279 32.6023 120.584 32.4525 120.798 32.4235C121.065 32.3873 121.4 32.45 121.742 32.5659C122.137 32.6746 122.539 32.8364 122.896 33.0586C123.306 33.2735 123.723 33.5416 124.093 33.8701C124.464 34.1986 124.782 34.5343 125.046 34.8773C125.528 35.6237 125.964 36.4305 126.353 37.2976C126.69 38.1721 127.026 39.0465 127.241 39.8292C127.463 40.6649 127.611 41.3486 127.758 42.0322C127.898 42.6627 127.963 43.141 128.045 43.3463C128.096 43.7183 128.078 43.9913 128.001 44.2183C127.916 44.3923 127.777 44.5735 127.578 44.7088C127.279 44.9117 127.02 45.0011 126.799 44.977C126.578 44.9529 126.35 44.8756 126.229 44.7838C126.047 44.6462 125.919 44.5012 125.844 44.3491C125.708 44.151 125.633 43.9988 125.619 43.8925C125.425 43.2693 125.278 42.5857 125.077 41.9093C124.877 41.233 124.683 40.6097 124.482 39.9334C124.289 39.3102 124.049 38.7473 123.863 38.1773C123.624 37.6144 123.399 37.1579 123.181 36.7545C123.113 36.6555 122.984 36.5106 122.849 36.3125C122.713 36.1144 122.531 35.9768 122.349 35.8391C122.168 35.7014 121.986 35.5637 121.865 35.472C121.69 35.3874 121.569 35.2957 121.515 35.3029C121.249 35.3392 120.964 35.6484 120.716 36.2234C120.468 36.7984 120.235 37.4796 120.069 38.2599C119.903 39.0402 119.691 39.8809 119.586 40.707C119.427 41.5405 119.361 42.2531 119.334 42.8522C119.435 43.5962 119.347 44.1494 119.13 44.5577C118.914 44.966 118.615 45.1689 118.295 45.2124C117.975 45.256 117.64 45.1932 117.23 44.9783C116.821 44.7633 116.571 44.5266 116.421 44.2222C116.196 43.7657 115.917 43.3164 115.678 42.7536C115.385 42.198 115.092 41.6425 114.852 41.0797C114.559 40.5241 114.266 39.9685 113.973 39.413C113.68 38.8574 113.402 38.4081 113.177 37.9516C112.822 38.541 112.528 39.1764 112.248 39.9181C111.968 40.6597 111.681 41.3482 111.401 42.0899C111.121 42.8315 110.895 43.5659 110.608 44.2544C110.381 44.9888 110.141 45.6169 109.885 46.1387C109.715 46.4866 109.538 46.7813 109.36 47.0761C109.183 47.3708 108.93 47.5134 108.61 47.5569C108.397 47.5859 108.115 47.5159 107.819 47.3396C107.524 47.1633 107.274 46.9266 106.964 46.644C106.707 46.3541 106.443 46.0111 106.179 45.6681C105.961 45.2648 105.75 44.9145 105.639 44.4966C105.259 43.3033 104.858 41.9506 104.556 40.5302C104.194 39.0639 103.892 37.6436 103.544 36.2836C103.479 35.8053 103.468 35.3197 103.577 34.926C103.68 34.4791 103.964 34.1698 104.369 33.9524C104.835 33.7808 105.223 33.8363 105.519 34.0126C105.451 33.9136 105.662 34.2638 105.78 34.7348Z" fill="#1E1E1E"/>
</svg>
