<svg width="103" height="101" viewBox="0 0 103 101" fill="none" xmlns="http://www.w3.org/2000/svg">
<path d="M70.3302 19.64C69.0798 16.3161 67.2062 13.2614 64.8102 10.64L63.9703 9.39992C63.8431 9.22786 63.6828 9.08277 63.4991 8.97292C63.3155 8.86307 63.1118 8.79074 62.9 8.76003C59.75 6.06003 56.01 5.09003 51.9 4.76003C43.37 4.08003 35 6.68003 30.4 14.39C29.3636 16.6669 28.634 19.0711 28.2301 21.5399C27.6921 24.6143 27.837 27.7695 28.6544 30.7816C29.4718 33.7938 30.9417 36.5893 32.9601 38.97C34.5801 38.85 36.2002 38.77 37.8302 38.75C38.0037 38.7431 38.1766 38.7719 38.3385 38.8345C38.5004 38.8971 38.6479 38.9923 38.7716 39.1142C38.8953 39.236 38.9926 39.3819 39.0577 39.5429C39.1228 39.7038 39.1543 39.8764 39.15 40.0499H42.9103C42.9409 39.9576 42.9775 39.8674 43.0201 39.7799C43.0744 39.687 43.138 39.6 43.2101 39.52L43.34 39.4199C43.3783 39.3805 43.4224 39.3469 43.4703 39.32L43.6002 39.26L43.7301 39.21C43.7931 39.2004 43.8571 39.2004 43.92 39.21C43.9829 39.1995 44.0471 39.1995 44.11 39.21C44.2131 39.2002 44.3169 39.2002 44.42 39.21H44.5304H44.6403H44.7604H44.84C44.9325 39.2439 45.0228 39.284 45.11 39.33L45.2501 39.44L45.4103 39.57C45.5108 39.6917 45.5949 39.8263 45.6603 39.97H49.0402C49.1218 39.7057 49.2886 39.4759 49.5148 39.3167C49.741 39.1574 50.0138 39.0777 50.2902 39.09C56.5035 39.09 62.7 39.4033 68.88 40.0299C68.8289 39.742 68.8676 39.4454 68.9904 39.1799C69.3004 38.5599 69.6 37.9299 69.9 37.2999C70.18 36.0699 70.3802 34.81 70.5802 33.7C71.4302 29.09 71.9402 24.08 70.3302 19.64Z" fill="#00A99D"/>
<path d="M91.68 91.9901C82.86 92.4901 74.04 92.59 65.22 92.29C60.07 92.11 60.08 100.45 65.22 100.62C74.0467 100.927 82.8666 100.827 91.68 100.32C96.8 100.03 96.83 91.7101 91.68 91.9901Z" fill="#00A99D"/>
<path d="M13.0599 65.86C37.8378 61.474 63.1581 61.0824 88.0599 64.7C91.2299 65.17 94.3601 63.9099 95.3201 60.5499C96.1101 57.7599 94.32 53.7 91.2 53.24C64.2105 49.2541 36.7548 49.6457 9.88996 54.3999C2.44996 55.7099 5.61988 67.18 13.0599 65.86Z" fill="#FBB03B"/>
<path d="M58.4 13.8701L58.41 13.8601H58.4L58.39 13.8701H58.4Z" fill="#FBB03B"/>
<path d="M58.6201 13.4401C58.6201 13.3701 58.6201 13.3501 58.6201 13.4401C58.6201 13.5301 58.6201 13.5001 58.6201 13.5301C58.6264 13.5245 58.6317 13.5176 58.6352 13.5098C58.6387 13.5021 58.6406 13.4937 58.6406 13.4852C58.6406 13.4766 58.6387 13.4683 58.6352 13.4605C58.6317 13.4527 58.6264 13.4457 58.6201 13.4401Z" fill="#FBB03B"/>
<path d="M64.7701 26.3501C64.7701 26.2801 64.7401 26.2401 64.7701 26.3501V26.3501Z" fill="#FBB03B"/>
<path d="M57.3901 12.9399L57.3398 13.01L57.3901 12.9399Z" fill="#FBB03B"/>
<path d="M64.77 26.41C64.77 26.41 64.78 26.4 64.77 26.41V26.41Z" fill="#FBB03B"/>
<path d="M57.27 13.52L57.35 13.58L57.27 13.52Z" fill="#FBB03B"/>
<path d="M14.2101 50.8301C13.6401 55.5901 13.64 61.2401 16.69 65.2301C17.0546 65.756 17.5282 66.197 18.0787 66.5232C18.6292 66.8494 19.2436 67.053 19.88 67.1201C21.2444 67.1463 22.5702 66.6653 23.6002 65.7701C25.4461 64.276 26.7956 62.2571 27.4703 59.9801C28.2656 56.979 28.5561 53.8666 28.3302 50.7701C28.2999 50.4051 28.1334 50.0647 27.8639 49.8167C27.5944 49.5686 27.2414 49.4308 26.8751 49.4308C26.5088 49.4308 26.1559 49.5686 25.8863 49.8167C25.6168 50.0647 25.4503 50.4051 25.42 50.7701C25.49 54.7001 25.6399 59.3801 22.8399 62.5101C22.2772 63.2065 21.5485 63.7498 20.7203 64.0901C20.3778 64.21 20.0031 64.1998 19.6676 64.0615C19.332 63.9232 19.0586 63.6665 18.9 63.3401C17.8318 61.6928 17.1736 59.8138 16.9801 57.8601C16.7472 55.5293 16.7975 53.1788 17.13 50.8601C17.1274 50.4728 16.9733 50.1019 16.7003 49.827C16.4273 49.5522 16.0573 49.3954 15.67 49.3901C15.2901 49.4023 14.9289 49.5573 14.6583 49.8242C14.3877 50.0911 14.2275 50.4503 14.2101 50.8301Z" fill="#1E1E1E"/>
<path d="M41.7802 63.5202C41.8436 61.1322 41.7865 58.7425 41.6098 56.3601C41.4498 54.2101 41.3798 51.8302 40.3398 49.8902C39.8822 48.9595 39.1311 48.2053 38.2021 47.7444C37.273 47.2835 36.218 47.1414 35.2001 47.3401C34.1858 47.7024 33.2876 48.331 32.6 49.1601C32.46 49.3101 32.3199 49.4702 32.1699 49.6202C32.0734 49.2909 31.8634 49.0064 31.5771 48.8174C31.2907 48.6284 30.9466 48.5471 30.6059 48.5879C30.2652 48.6287 29.9504 48.7889 29.7167 49.0402C29.4831 49.2915 29.346 49.6174 29.33 49.9601C29.33 54.7801 29.5234 59.5902 29.9101 64.3902C29.9201 64.7752 30.0767 65.1417 30.3481 65.415C30.6195 65.6882 30.9851 65.8475 31.3701 65.8601C31.7582 65.8575 32.1293 65.7015 32.4028 65.4261C32.6763 65.1507 32.83 64.7783 32.83 64.3902C32.53 60.8502 32.38 57.3002 32.31 53.7502C32.9 53.1002 33.4898 52.4601 34.0898 51.8301C34.6898 51.2001 35.2201 50.3801 35.9301 50.1701C37.1501 49.8301 37.9299 51.4201 38.1899 52.3401C38.5583 54.0393 38.7527 55.7716 38.77 57.5102C38.89 59.5102 38.9198 61.5102 38.8598 63.5102C38.7998 65.5102 41.7202 65.4102 41.7802 63.5202Z" fill="#1E1E1E"/>
<path d="M43.25 49.2799C43.39 54.0332 43.5335 58.7832 43.6802 63.5299C43.6635 63.7311 43.6884 63.9337 43.7539 64.1246C43.8195 64.3156 43.9243 64.4909 44.0611 64.6394C44.1978 64.788 44.3635 64.9066 44.5484 64.9877C44.7333 65.0688 44.9334 65.1107 45.1353 65.1107C45.3372 65.1107 45.5368 65.0688 45.7217 64.9877C45.9066 64.9066 46.0728 64.788 46.2095 64.6394C46.3463 64.4909 46.4506 64.3156 46.5162 64.1246C46.5817 63.9337 46.6066 63.7311 46.5899 63.5299C46.4499 58.7799 46.5902 63.5299 46.1602 49.2799C46.1769 49.0787 46.1515 48.8763 46.086 48.6853C46.0204 48.4943 45.9161 48.319 45.7793 48.1704C45.6426 48.0219 45.4764 47.9034 45.2915 47.8223C45.1066 47.7412 44.907 47.6992 44.7051 47.6992C44.5032 47.6992 44.3036 47.7412 44.1187 47.8223C43.9338 47.9034 43.7676 48.0219 43.6309 48.1704C43.4942 48.319 43.3898 48.4943 43.3243 48.6853C43.2587 48.8763 43.2333 49.0787 43.25 49.2799Z" fill="#1E1E1E"/>
<path d="M45.8205 44.25C45.826 44.1501 45.826 44.0499 45.8205 43.95C45.7966 43.8775 45.7661 43.8073 45.7301 43.74C45.6659 43.5987 45.5817 43.4673 45.4801 43.35C45.4339 43.2958 45.3804 43.2486 45.3205 43.21L45.1901 43.11C45.1001 43.06 45.0003 43.03 44.9103 42.99H44.84L44.7204 42.9299H44.61H44.4904H44.1901H43.9904H43.8102L43.6803 42.99H43.5505L43.4201 43.09L43.2902 43.2C43.2158 43.278 43.152 43.3654 43.1003 43.46C43.0502 43.5451 43.0098 43.6357 42.9801 43.73V43.9299C42.9289 44.0502 42.9016 44.1793 42.9001 44.3099C42.875 44.4522 42.875 44.5978 42.9001 44.74C42.8956 44.7665 42.8956 44.7935 42.9001 44.8199C42.9384 44.9269 42.9853 45.0306 43.0402 45.13C43.1066 45.2546 43.1949 45.3663 43.3005 45.46C43.3769 45.5319 43.4607 45.5955 43.5505 45.6499C43.6499 45.7048 43.7531 45.7516 43.86 45.7899C43.9911 45.8247 44.1294 45.8247 44.2604 45.7899C44.3104 45.7899 44.3403 45.7899 44.3903 45.7899C44.5065 45.8052 44.6242 45.8052 44.7404 45.7899H44.7902L45.0602 45.6799C45.1535 45.6186 45.2409 45.5483 45.3205 45.47C45.3205 45.47 45.3203 45.4699 45.3703 45.4099C45.4382 45.3361 45.4986 45.2557 45.5505 45.1699C45.5505 45.0799 45.6303 44.98 45.6603 44.89C45.6903 44.8 45.6603 44.89 45.6603 44.89C45.6603 44.79 45.6603 44.68 45.6603 44.59L45.8205 44.25Z" fill="#1E1E1E"/>
<path d="M59.4701 50.59C57.8582 49.4461 55.9835 48.7272 54.0199 48.5001C52.8007 48.1835 51.5164 48.2251 50.3202 48.6201C50.0624 48.6031 49.8047 48.6599 49.578 48.7839C49.3514 48.9079 49.1648 49.0938 49.04 49.32C47.6508 52.3947 47.4479 55.8746 48.4701 59.09C49.2001 61.79 50.6799 65.1901 53.9999 65.0101C55.5647 64.8947 57.059 64.3129 58.29 63.34C59.6273 64.6572 61.0911 65.8396 62.6601 66.8701C62.8261 66.967 63.0096 67.0302 63.2001 67.056C63.3906 67.0818 63.5841 67.0697 63.7699 67.0205C63.9558 66.9712 64.1304 66.8858 64.2831 66.769C64.4358 66.6522 64.5638 66.5065 64.6601 66.34C64.8488 66.0041 64.9001 65.6081 64.8031 65.2352C64.7062 64.8623 64.4685 64.5415 64.1401 64.34C63.8101 64.12 63.4801 63.9 63.1401 63.66L62.6601 63.31L62.4701 63.17C61.8601 62.69 61.2699 62.17 60.7099 61.65L60.3598 61.3C60.6619 60.8651 60.9233 60.4031 61.1401 59.92C62.3301 56.96 62.0601 52.71 59.4701 50.59ZM58.4101 58.69C58.3601 58.8 58.2902 58.9001 58.2402 59.0101L57.9101 58.59L57.6899 58.31C57.5998 58.1318 57.4742 57.9739 57.3207 57.8461C57.1672 57.7184 56.9889 57.6235 56.7973 57.5673C56.6056 57.5112 56.4046 57.4949 56.2065 57.5196C56.0083 57.5443 55.8175 57.6093 55.6454 57.7108C55.4734 57.8122 55.324 57.9479 55.2065 58.1093C55.0889 58.2708 55.0059 58.4547 54.9623 58.6496C54.9187 58.8445 54.9156 59.0462 54.953 59.2424C54.9905 59.4385 55.0677 59.6249 55.1801 59.79C55.5501 60.28 55.9498 60.7901 56.3398 61.2301C55.6693 61.7048 54.8941 62.0101 54.08 62.1201C52.35 62.3301 51.6902 59.7401 51.3202 58.3601C50.6263 56.2022 50.5946 53.8859 51.2299 51.71C51.4671 51.6173 51.6725 51.4575 51.8202 51.2501H52.5702C53.1765 51.3128 53.7777 51.4163 54.37 51.56C55.5377 51.7467 56.6524 52.1797 57.6401 52.83C58.3475 53.5382 58.7829 54.4729 58.87 55.47C59.0172 56.5718 58.8581 57.6928 58.4101 58.71V58.69Z" fill="#1E1E1E"/>
<path d="M70.0898 60.71C69.899 60.9761 69.666 61.2091 69.3998 61.3999C69.2555 61.4758 69.1154 61.5592 68.9799 61.6499C68.7799 61.2899 68.4402 60.9499 68.2202 60.6499C68.0002 60.3499 67.6699 59.82 67.4199 59.39C66.8831 58.4915 66.4187 57.5518 66.0302 56.58C65.2801 54.6817 64.8116 52.6838 64.6401 50.6499C64.6325 50.2641 64.4764 49.8962 64.2045 49.6224C63.9326 49.3487 63.5658 49.1901 63.1801 49.1799C62.7937 49.1852 62.4246 49.3424 62.1533 49.6176C61.8819 49.8927 61.7299 50.2635 61.7299 50.6499C61.9521 53.4344 62.6489 56.1604 63.79 58.71C64.3024 59.8633 64.9181 60.9678 65.6298 62.01C66.3598 63.11 67.2201 64.66 68.7001 64.71C69.3432 64.6585 69.9693 64.4769 70.54 64.176C71.1107 63.8752 71.614 63.4614 72.02 62.96C72.6599 62.2371 73.1493 61.3941 73.4599 60.48C74.3664 62.8931 75.4565 65.2332 76.7202 67.48C77.6402 69.12 80.1599 67.64 79.2299 66C76.5255 61.1869 74.6716 55.9434 73.7499 50.5C73.6384 50.1322 73.3886 49.8222 73.0527 49.6356C72.7167 49.449 72.3213 49.4004 71.9501 49.5C71.5866 49.6178 71.2812 49.8691 71.0956 50.2031C70.9101 50.5372 70.8581 50.929 70.9501 51.2999C71.2898 53.5279 71.3303 55.7912 71.0703 58.0299C70.9735 58.9913 70.6361 59.913 70.0898 60.71Z" fill="#1E1E1E"/>
<path d="M84.2604 57.71C83.5104 57.9409 82.8253 58.3452 82.2604 58.8901C80.9804 60.2701 83.0405 62.35 84.3205 60.96C84.8005 60.44 85.6805 60.35 86.3205 59.96C87.0466 59.5142 87.6161 58.8537 87.9504 58.07C88.3052 57.2278 88.4417 56.3097 88.3473 55.4007C88.253 54.4917 87.9307 53.6213 87.4103 52.87C85.5603 50.1 80.9101 47.32 78.1901 50.57C75.9901 53.21 77.0505 57.57 78.2805 60.37C79.6205 63.44 82.4003 66.66 85.8503 67.24C86.8497 67.4166 87.8774 67.3367 88.8376 67.0079C89.7977 66.6791 90.6586 66.1121 91.34 65.36C92.0305 64.5626 92.4938 63.5937 92.6804 62.5555C92.8669 61.5172 92.7698 60.448 92.4001 59.46C92.2823 59.0987 92.0327 58.795 91.7009 58.6097C91.3691 58.4243 90.9795 58.3708 90.61 58.46C90.2386 58.5692 89.9252 58.8206 89.738 59.1595C89.5507 59.4984 89.5048 59.8975 89.61 60.2701C89.8148 60.7534 89.8893 61.2819 89.8259 61.8029C89.7624 62.324 89.5635 62.8193 89.2487 63.2393C88.9339 63.6593 88.5142 63.9894 88.0319 64.1966C87.5496 64.4038 87.0215 64.4808 86.5002 64.42C84.2502 64.1 82.3903 61.92 81.3703 60.04C80.3503 58.16 79.5302 55.66 79.9802 53.56C80.1602 52.71 80.61 51.97 81.59 52.08C82.7768 52.3238 83.8393 52.979 84.59 53.93C84.9775 54.2889 85.2597 54.7469 85.4059 55.2544C85.5522 55.762 85.5572 56.2999 85.4201 56.81C85.3126 57.0417 85.1512 57.2444 84.9494 57.4009C84.7476 57.5575 84.5116 57.6635 84.2604 57.71Z" fill="#1E1E1E"/>
<path d="M48.9904 25.95C48.4718 24.5462 48.2272 23.0559 48.2702 21.56C47.9744 20.9412 47.5559 20.3889 47.0402 19.9368C46.5245 19.4847 45.9223 19.1422 45.2702 18.93C44.8296 18.8222 44.3703 18.8157 43.9269 18.911C43.4835 19.0062 43.0675 19.2008 42.7101 19.48C42.565 19.3324 42.3842 19.2248 42.1852 19.1678C41.9862 19.1107 41.7757 19.1062 41.5744 19.1545C41.373 19.2028 41.1877 19.3024 41.0363 19.4435C40.8848 19.5847 40.7724 19.7626 40.7101 19.96C39.8373 22.7346 39.6624 25.6815 40.2003 28.54C40.344 29.3952 40.5545 30.2378 40.8302 31.06C39.8479 31.2593 38.8764 31.5097 37.9201 31.81C37.6201 29.59 37.3503 27.3701 37.1403 25.1401C37.0203 23.9001 36.9105 22.67 36.8205 21.43C36.6455 20.1828 36.6455 18.9172 36.8205 17.67C37.1205 16.2 34.8702 15.56 34.5602 17.05C34.4448 17.6573 34.3746 18.2724 34.3502 18.8901C34.3445 18.9366 34.3445 18.9835 34.3502 19.03C33.983 21.7 33.1609 24.2875 31.9201 26.68C31.7709 26.9512 31.7316 27.2692 31.8097 27.5687C31.8878 27.8681 32.0774 28.1262 32.34 28.29C32.6085 28.4437 32.9269 28.4858 33.2262 28.4073C33.5255 28.3287 33.7817 28.1359 33.9401 27.8701C34.3001 27.1901 34.6201 26.49 34.9401 25.78C35.1701 28.07 35.4504 30.3601 35.7604 32.6401C35.2004 32.8701 34.64 33.1101 34.09 33.3901C33.8254 33.5521 33.6341 33.8102 33.5558 34.1104C33.4775 34.4106 33.5184 34.7295 33.6701 35.0001C33.8284 35.2659 34.0852 35.4587 34.3844 35.5373C34.6837 35.6159 35.0017 35.5737 35.2702 35.42C37.3909 34.3629 39.6551 33.6218 41.9904 33.22C42.2538 33.598 42.5939 33.9162 42.9884 34.154C43.383 34.3918 43.8232 34.5437 44.2804 34.6C47.0604 34.9 48.7704 31.6 49.2804 29.28C49.4435 28.6246 49.5407 27.9546 49.5705 27.28C49.3485 26.8497 49.1547 26.4055 48.9904 25.95ZM46.9904 28.86C46.7893 29.6871 46.4513 30.4745 45.9904 31.19C45.6804 31.66 44.99 32.47 44.36 32.19C44.2068 32.1342 44.0723 32.0373 43.9704 31.91C43.9529 31.7063 43.8877 31.5096 43.7799 31.3359C43.6722 31.1621 43.5249 31.0162 43.3502 30.91L43.2204 30.56C42.8631 29.5878 42.6016 28.5831 42.4401 27.56C42.1896 25.8098 42.2507 24.029 42.6203 22.3C42.9197 22.3747 43.2364 22.3312 43.5045 22.1785C43.7727 22.0258 43.9717 21.7757 44.0602 21.48C44.2402 21.01 45.1302 21.4801 45.3102 21.6201C45.9369 22.1951 46.4109 22.9166 46.6901 23.72C47.321 25.3607 47.4262 27.1571 46.9904 28.86Z" fill="#1E1E1E"/>
<path d="M49.58 27.23C50.58 29.04 52.17 30.7 54.35 29.94C56.75 29.11 57.7202 26.13 57.7802 23.81C57.8558 21.4171 56.9822 19.0915 55.35 17.34C54.8888 16.7914 54.2975 16.3669 53.6303 16.1049C52.9632 15.8429 52.2415 15.7519 51.5302 15.84C50.9792 15.9367 50.4663 16.1855 50.0493 16.5584C49.6322 16.9312 49.3274 17.4132 49.1699 17.95C49.0118 18.0087 48.8713 18.1064 48.7612 18.2341C48.651 18.3617 48.5749 18.5151 48.54 18.68C48.365 19.6301 48.2746 20.5939 48.27 21.56L48.3901 21.78C49.2598 23.4601 49.6703 25.3403 49.58 27.23ZM50.7499 19.62C50.9385 19.5296 51.098 19.3878 51.2094 19.2109C51.3209 19.0339 51.3797 18.8291 51.3798 18.62C51.3798 18.28 51.9302 18.06 52.2802 18.11C53.042 18.3115 53.6992 18.7938 54.1201 19.46C55.0175 20.6887 55.485 22.1789 55.4501 23.7C55.4501 24.96 55.0302 27.0301 53.7602 27.6301C52.4902 28.2301 51.4098 25.82 51.0898 24.87C50.5661 23.171 50.4498 21.3725 50.7499 19.62Z" fill="#1E1E1E"/>
<path d="M49.58 27.2301C49.6702 25.3403 49.2598 23.4602 48.39 21.78L48.2699 21.5601C48.2269 23.056 48.4716 24.5463 48.9901 25.9501C49.1596 26.3887 49.3565 26.8163 49.58 27.2301Z" fill="#1E1E1E"/>
<path d="M57.27 13.51C57.27 13.51 57.2699 13.5099 57.1899 13.4199L57.27 13.51Z" fill="#1E1E1E"/>
<path d="M58.6099 13.4801C58.6099 13.4801 58.6099 13.4201 58.6099 13.3901C58.6039 13.4232 58.6039 13.457 58.6099 13.4901V13.4801Z" fill="#1E1E1E"/>
<path d="M57.4398 16.15C58.1587 16.3456 58.9255 16.2561 59.58 15.9C60.1442 15.5365 60.5702 14.9943 60.7899 14.3601C60.969 13.7322 60.9801 13.0683 60.8222 12.4348C60.6642 11.8013 60.3429 11.2204 59.89 10.7501C59.4713 10.2226 58.9069 9.82963 58.267 9.61987C57.627 9.41011 56.9396 9.39277 56.2899 9.57006C56.1039 9.61388 55.9321 9.70419 55.7904 9.83251C55.6488 9.96084 55.5418 10.123 55.4799 10.3038C55.4179 10.4847 55.4032 10.6782 55.4364 10.8664C55.4696 11.0547 55.5497 11.2314 55.6698 11.3801C55.5379 11.5333 55.4147 11.6935 55.3002 11.8601C55.1023 12.1496 54.9631 12.4752 54.891 12.8184C54.8189 13.1615 54.815 13.5155 54.8798 13.8601C55.0479 14.4439 55.3776 14.9685 55.8305 15.3735C56.2833 15.7786 56.8409 16.0477 57.4398 16.15ZM57.1698 13.3401C57.1652 13.3069 57.1652 13.2733 57.1698 13.2401L57.2802 13.0601C57.2802 13.0601 57.2302 13.0601 57.2802 13.0601L57.33 12.9901C57.4 12.9201 57.4599 12.8401 57.5399 12.7701C57.6935 12.6099 57.8574 12.4595 58.0302 12.3201C58.0302 12.3201 58.0302 12.3201 58.0302 12.2601H58.0897L58.2001 12.3901L58.2802 12.5201C58.3378 12.6091 58.3879 12.7027 58.4301 12.8C58.4613 12.8886 58.4881 12.9788 58.5101 13.0701V13.2401C58.5101 13.2401 58.5101 13.2401 58.5101 13.3101V13.4C58.4776 13.4394 58.4506 13.4832 58.4301 13.53H58.3798H58.3202H58.2299H58.1H58.0101L57.7201 13.4401H57.6698L57.4398 13.3201H57.37C57.37 13.3201 57.3702 13.3201 57.3202 13.3201L57.2401 13.2601L57.1698 13.3401Z" fill="#1E1E1E"/>
<path d="M62.9199 8.70996C63.0799 8.84996 63.2501 8.96999 63.4101 9.11999C63.9001 9.56999 64.41 10.0599 64.83 10.5699C64.9 10.2599 64.9802 9.9599 65.0502 9.6499C65.1062 9.38297 65.0683 9.10504 64.9438 8.86242C64.8192 8.6198 64.6152 8.42725 64.3657 8.31713C64.1162 8.20702 63.8364 8.18594 63.5732 8.25744C63.31 8.32894 63.0793 8.48873 62.9199 8.70996Z" fill="#1E1E1E"/>
<path d="M63.41 9.1499C63.25 8.9999 63.0797 8.87999 62.9197 8.73999C62.8627 8.83591 62.8225 8.94062 62.8001 9.04993C61.2268 15.8633 59.5601 22.6499 57.8001 29.4099C57.7179 29.7096 57.7577 30.0298 57.9114 30.2998C58.0652 30.5699 58.3202 30.7678 58.6199 30.85C58.9196 30.9322 59.2395 30.8919 59.5096 30.7382C59.7796 30.5844 59.9777 30.3296 60.0599 30.0299C61.7199 23.5832 63.3032 17.1066 64.8099 10.6C64.3299 10.09 63.9 9.5999 63.41 9.1499Z" fill="#1E1E1E"/>
<path d="M62.5897 25.1101C62.4218 25.6768 62.3964 26.2761 62.515 26.8551C62.6336 27.4341 62.8927 27.975 63.2699 28.4301C63.5152 28.7443 63.8294 28.9979 64.1884 29.1713C64.5473 29.3447 64.9411 29.4332 65.3397 29.4301C65.7587 29.3911 66.1628 29.254 66.5189 29.0299C66.8751 28.8058 67.1736 28.501 67.39 28.1401C67.7903 27.5339 68.0588 26.8501 68.1776 26.1334C68.2965 25.4167 68.2631 24.6831 68.08 23.9801C67.8937 23.3298 67.5457 22.7374 67.0683 22.2582C66.5908 21.779 65.9996 21.4287 65.35 21.2401C64.913 21.1099 64.45 21.092 64.0043 21.1881C63.5586 21.2843 63.1446 21.4912 62.8002 21.79C62.244 22.4441 61.9513 23.2821 61.9799 24.1401C61.9859 24.3415 62.0455 24.5376 62.1527 24.7081C62.26 24.8787 62.4108 25.0175 62.5897 25.1101ZM64.3397 23.7601C64.3397 23.6601 64.3901 23.5601 64.4101 23.4701H64.6498H64.8598C64.8895 23.4647 64.9203 23.4647 64.9501 23.4701C65.0265 23.5041 65.0998 23.5442 65.1698 23.5901L65.2602 23.66L65.4701 23.8601L65.5502 23.9601C65.5758 24.0158 65.6058 24.0693 65.64 24.1201L65.7001 24.2301L65.7499 24.3501L65.8002 24.4801C65.8002 24.6001 65.85 24.7101 65.87 24.8201C65.87 24.6301 65.87 24.82 65.87 24.91C65.88 25.0399 65.88 25.1702 65.87 25.3001C65.87 25.3601 65.87 25.4101 65.87 25.4701C65.87 25.5301 65.8702 25.68 65.8002 25.79C65.7302 25.9 65.7501 25.9801 65.7201 26.0801L65.6298 26.3201C65.5498 26.4801 65.45 26.6401 65.37 26.8001L65.31 26.8601L65.2299 26.9401H65.1498L65.0702 26.8601L64.9701 26.7401L64.8798 26.5701V26.4801C64.8753 26.4302 64.8753 26.38 64.8798 26.3301C64.8798 26.3301 64.8798 26.3302 64.8798 26.2702C64.8798 26.1602 64.8798 26.2002 64.8798 26.2702C64.8798 26.1802 64.8798 26.0401 64.8798 25.9901C64.8748 25.9536 64.8748 25.9166 64.8798 25.8801C64.9005 25.7918 64.9273 25.7049 64.9599 25.6201C64.9893 25.5581 65.0228 25.4979 65.06 25.4401C65.2142 25.17 65.2566 24.8503 65.1781 24.5494C65.0996 24.2485 64.9065 23.9904 64.64 23.8301C64.5753 23.8042 64.5082 23.7841 64.4398 23.7702C64.4045 23.7579 64.3669 23.7545 64.33 23.7601H64.3397Z" fill="#1E1E1E"/>
<path d="M30.2499 70.99H11.04C10.6422 70.99 10.2607 71.148 9.97943 71.4293C9.69813 71.7106 9.53998 72.0922 9.53998 72.49C9.53998 72.8878 9.69813 73.2694 9.97943 73.5507C10.2607 73.832 10.6422 73.99 11.04 73.99H30.2499C30.6478 73.99 31.0292 73.832 31.3105 73.5507C31.5918 73.2694 31.7499 72.8878 31.7499 72.49C31.7499 72.0922 31.5918 71.7106 31.3105 71.4293C31.0292 71.148 30.6478 70.99 30.2499 70.99Z" fill="#1E1E1E"/>
<path d="M64.8299 71.3601C55.3699 71.2668 45.9131 71.0001 36.4598 70.5601C34.5298 70.4701 34.5398 73.4701 36.4598 73.5601C45.9131 74.0001 55.3699 74.2668 64.8299 74.3601C65.2277 74.3601 65.6092 74.2021 65.8905 73.9208C66.1718 73.6395 66.3299 73.258 66.3299 72.8601C66.3299 72.4623 66.1718 72.0808 65.8905 71.7995C65.6092 71.5182 65.2277 71.3601 64.8299 71.3601Z" fill="#1E1E1E"/>
<path d="M53.1098 76.52L11.04 76.1499C10.6422 76.1499 10.2607 76.3081 9.97943 76.5894C9.69813 76.8707 9.53998 77.2521 9.53998 77.6499C9.53998 78.0477 9.69813 78.4293 9.97943 78.7106C10.2607 78.9919 10.6422 79.1499 11.04 79.1499L53.1098 79.52C53.5076 79.52 53.8895 79.3619 54.1708 79.0806C54.4521 78.7993 54.6098 78.4178 54.6098 78.02C54.6098 77.6222 54.4521 77.2407 54.1708 76.9594C53.8895 76.678 53.5076 76.52 53.1098 76.52Z" fill="#1E1E1E"/>
<path d="M17.8701 81.4299H11.1C10.7022 81.4299 10.3208 81.588 10.0395 81.8693C9.75819 82.1506 9.60004 82.5321 9.60004 82.9299C9.60004 83.3278 9.75819 83.7093 10.0395 83.9906C10.3208 84.2719 10.7022 84.4299 11.1 84.4299H17.8701C18.2679 84.4299 18.6493 84.2719 18.9306 83.9906C19.2119 83.7093 19.3701 83.3278 19.3701 82.9299C19.3701 82.5321 19.2119 82.1506 18.9306 81.8693C18.6493 81.588 18.2679 81.4299 17.8701 81.4299Z" fill="#1E1E1E"/>
<path d="M62.9702 81.8299C49.8902 81.5099 36.8069 81.4833 23.7202 81.75C21.7902 81.75 21.7802 84.75 23.7202 84.75C36.8002 84.4833 49.8836 84.5099 62.9702 84.8299C64.9002 84.8699 64.9002 81.8699 62.9702 81.8299Z" fill="#1E1E1E"/>
<path d="M83.19 77.2701C75.57 76.9101 67.947 76.8101 60.3203 76.9701C58.3903 76.9701 58.3803 79.9701 60.3203 79.9701C67.9403 79.8101 75.5633 79.9101 83.19 80.2701C85.12 80.3701 85.11 77.3701 83.19 77.2701Z" fill="#1E1E1E"/>
<path d="M92.2202 71.71C85.1602 71.7633 78.1036 71.6967 71.0503 71.51C69.1103 71.51 69.1203 74.51 71.0503 74.51C78.097 74.69 85.1536 74.7566 92.2202 74.71C92.6181 74.71 92.9995 74.5519 93.2808 74.2706C93.5621 73.9893 93.7202 73.6078 93.7202 73.21C93.7202 72.8121 93.5621 72.4306 93.2808 72.1493C92.9995 71.868 92.6181 71.71 92.2202 71.71Z" fill="#1E1E1E"/>
<path d="M45.06 87.2601C39.44 86.6801 33.72 86.9801 28.06 87.0101L11.06 87.0901C10.6622 87.0901 10.2808 87.2481 9.99945 87.5294C9.71815 87.8107 9.56 88.1923 9.56 88.5901C9.56 88.9879 9.71815 89.3695 9.99945 89.6508C10.2808 89.9321 10.6622 90.0901 11.06 90.0901L28.06 90.0101C33.7 90.0101 39.42 89.6801 45.06 90.2601C46.98 90.4501 46.97 87.4501 45.06 87.2601Z" fill="#1E1E1E"/>
<path d="M102.33 71.1599L102.03 55.02C101.96 50.83 102.37 45.8899 98.5401 43.0799C98.2339 42.8699 97.9166 42.6764 97.5899 42.5C95.7599 40.93 93.2699 40.5599 90.8999 40.4099C87.4799 40.1699 84.0602 40.0199 80.6402 39.8399C77.7702 39.6899 74.9101 39.5699 72.0401 39.4299C72.1001 39.2999 72.16 39.1699 72.23 39.0499C72.72 38.0499 73.23 37.0499 73.71 36.1099C73.804 35.9019 73.8585 35.678 73.8701 35.4499C76.5401 29.6899 78.7103 23.4499 76.8203 17.2799C75.8557 13.8465 74.2802 10.615 72.1699 7.73995C69.6599 4.55995 65.9599 3.46995 62.1699 2.73995C54.9099 1.27995 46.6002 0.549953 39.4302 2.86995C35.9626 3.86612 32.8774 5.88794 30.5801 8.66988C28.4599 11.607 26.9406 14.934 26.1099 18.4599C24.8206 23.4608 25.0364 28.7311 26.73 33.6099C26.7339 33.7329 26.7579 33.8544 26.8003 33.9699C27.272 35.2999 27.9065 36.5663 28.69 37.7399C24.94 37.6699 21.19 37.6299 17.44 37.6599C13.53 37.6599 9.60998 37.8199 5.70998 38.0999C4.25998 38.2099 2.5501 38.1599 1.3301 39.0999C0.907544 39.3985 0.571808 39.804 0.357443 40.2749C0.143079 40.7458 0.0575701 41.2651 0.109885 41.7799C0.0151465 42.1894 0.0837059 42.6197 0.300314 42.9799C0.116621 43.2245 0.0214042 43.5242 0.0302948 43.8299C0.110295 54.0499 0.180275 58.3899 0.260275 68.5999C0.260275 73.7933 0.296805 78.9832 0.370139 84.1699C0.370139 86.6799 0.369943 89.1699 0.419943 91.7099C0.419943 93.5799 0.690041 95.5899 2.52004 96.5999C4.35004 97.6099 7.01027 97.2499 9.01027 97.2999L17.0103 97.52L32.7002 97.9299C43.2402 98.2099 53.7901 97.5199 64.3301 97.7999C76.2501 98.1099 87.87 97.4399 99.69 97.7999C100.039 97.825 100.385 97.7124 100.652 97.4863C100.919 97.2602 101.087 96.9384 101.12 96.5899C101.334 96.6557 101.561 96.6702 101.782 96.6324C102.003 96.5946 102.211 96.5054 102.391 96.3721C102.571 96.2388 102.717 96.0652 102.818 95.8651C102.918 95.6649 102.971 95.4439 102.97 95.2199C102.71 84.5199 102.52 81.7599 102.33 71.1599ZM28.25 21.5399C28.6539 19.0678 29.3835 16.6603 30.4199 14.38C29.3341 16.2125 28.5508 18.208 28.1001 20.2899C28.992 15.2892 31.7696 10.8218 35.8599 7.80989C39.1395 5.64961 42.9376 4.40661 46.8599 4.20992C50.7485 4.03672 54.6451 4.25451 58.4903 4.85994C62.1103 5.31994 65.9203 5.91988 68.7803 8.29988C70.8568 10.1984 72.3921 12.6139 73.23 15.2999C74.4734 18.477 74.9 21.9153 74.4702 25.2999C73.9202 28.7999 72.1903 31.9299 70.8003 35.1799C70.4403 35.9099 70.07 36.6299 69.71 37.3599C69.49 37.7899 69.2803 38.2199 69.0503 38.6499C68.9703 38.8099 68.8703 38.9499 68.7803 39.0999H68.7202L68.5503 39.2099C65.5503 39.0699 62.5503 38.9099 59.5503 38.7899C50.5503 38.3999 41.5 37.9799 32.46 37.7399C32.17 37.4299 31.9001 37.0999 31.6201 36.7399L31.5401 36.64L31.3003 36.2999C31.1503 36.0799 31.0001 35.86 30.8701 35.63C30.5982 35.1978 30.3509 34.7503 30.1299 34.2899L29.9502 33.9099L29.8999 33.7899C29.8099 33.5499 29.7101 33.3099 29.6201 33.0599C29.5277 32.8077 29.3807 32.579 29.19 32.39C27.9777 28.9081 27.6546 25.1784 28.25 21.5399ZM99.6299 94.76C86.7299 94.42 73.8202 94.8399 60.9102 95.0999C58.3702 95.0999 55.8303 95.1999 53.2803 95.2299C38.6703 95.3799 24.06 94.7099 9.45998 94.3199H8.74026H7.49026H5.75002V94.26H5.14016C4.14016 94.2 3.57996 93.9899 3.43996 92.9699C3.26501 90.6908 3.23511 88.4029 3.35012 86.1199C3.35012 81.1199 3.12008 76.1799 3.06008 71.1999C2.95008 61.9299 3.11996 52.6699 2.93996 43.3999C2.88516 43.0707 2.90556 42.7336 2.99904 42.4133C3.09253 42.093 3.25676 41.7978 3.48 41.5499C3.84705 41.3251 4.26982 41.2074 4.70022 41.2099C6.90022 41.0499 9.10031 40.9099 11.3003 40.8199C14.4003 40.7132 17.4965 40.6699 20.5899 40.6899C26.9099 40.6899 33.21 40.94 39.52 41.14C54.97 42.14 70.52 42.35 85.94 43.14L91.0601 43.4199C92.4143 43.3747 93.7565 43.6887 94.9502 44.3299C95.4302 44.6499 95.8401 45.08 96.3301 45.39C96.8201 45.7 97.0802 45.7899 97.4102 46.0499C98.7102 47.0499 98.7599 49.1999 98.8799 50.7099C99.0499 52.9399 99.0801 55.1699 99.1201 57.3999C99.3101 69.8799 99.6699 82.3399 99.8999 94.8099C99.811 94.7877 99.7208 94.7711 99.6299 94.76Z" fill="#1E1E1E"/>
<path d="M75.7602 10.1301C75.7649 10.1499 75.7649 10.1703 75.7602 10.1901C75.7619 10.1701 75.7619 10.1501 75.7602 10.1301Z" fill="#FBB03B"/>
<path d="M75.7804 10.3801C75.7641 10.5719 75.7876 10.7649 75.8498 10.947C75.912 11.1291 76.0115 11.2965 76.1417 11.4382C76.2719 11.5799 76.4299 11.6931 76.6061 11.7705C76.7823 11.8479 76.9727 11.8878 77.1652 11.8878C77.3577 11.8878 77.5481 11.8479 77.7243 11.7705C77.9005 11.6931 78.0589 11.5799 78.1891 11.4382C78.3193 11.2965 78.4184 11.1291 78.4806 10.947C78.5428 10.7649 78.5668 10.5719 78.5504 10.3801C78.4304 8.2901 77.2703 6.38001 76.1603 4.66001C75.6773 3.7736 75.02 2.99419 74.2277 2.36862C73.4354 1.74305 72.5247 1.28437 71.5504 1.02011C71.1937 0.923309 70.813 0.97207 70.4923 1.15586C70.1716 1.33964 69.9368 1.64338 69.84 2.00009C69.7432 2.35681 69.7924 2.73739 69.9762 3.05808C70.16 3.37876 70.4637 3.61325 70.8205 3.71005C71.0026 3.7439 71.1824 3.7873 71.36 3.84006L71.5202 3.9L71.6603 3.97006C71.8312 4.05326 71.9949 4.15029 72.1501 4.2601L72.3502 4.4H72.4001C72.691 4.66582 72.9652 4.94982 73.2204 5.25009L73.2902 5.34006C73.3602 5.42006 73.4201 5.51006 73.4801 5.59006C73.5401 5.67006 73.7202 5.9501 73.8302 6.1301C74.2802 6.8301 74.7002 7.55001 75.0802 8.29001C75.1802 8.48001 75.2803 8.67008 75.3703 8.86008V8.98007L75.4601 9.24008C75.5306 9.44017 75.5909 9.64376 75.6403 9.85007C75.645 9.91999 75.645 9.99011 75.6403 10.06C75.642 10.08 75.642 10.1001 75.6403 10.1201C75.645 10.1004 75.645 10.0798 75.6403 10.06C75.7403 10.05 75.7804 10.3701 75.7804 10.3801Z" fill="#FBB03B"/>
</svg>
