<svg width="101" height="101" viewBox="0 0 101 101" fill="none" xmlns="http://www.w3.org/2000/svg">
<path d="M72.8299 88.64C65.9799 88.65 59.1299 88.66 52.2899 88.67C47.7899 88.68 47.7799 95.68 52.2899 95.67C59.1399 95.66 65.9899 95.65 72.8299 95.64C77.3299 95.64 77.3399 88.64 72.8299 88.64Z" fill="#FBB03B"/>
<path d="M50.82 4.18007C44.46 4.41007 38.1 4.63007 31.74 4.86007C27.25 5.02007 27.23 12.0201 31.74 11.8601C38.1 11.6401 44.46 11.4101 50.81 11.1901C55.31 11.0301 55.33 4.02007 50.82 4.18007Z" fill="#FBB03B"/>
<path d="M50.2098 49.8982C49.7798 47.8982 49.2898 45.9782 49.1098 43.9282C48.9198 41.7682 49.1898 39.3682 48.6698 37.2482C47.6098 32.9782 43.2498 33.6182 39.8298 33.6582C38.4798 33.6782 37.4298 34.3482 36.7498 35.2782C34.4198 34.5282 32.0498 33.9582 29.6498 33.8882C27.5098 33.8282 25.6198 35.7682 25.6498 37.8882C25.7198 42.8882 25.7997 47.8782 25.9097 52.8782C25.9797 56.1982 29.3298 57.3682 31.6698 56.3982C32.0898 56.5782 32.5498 56.7182 33.0598 56.7782C37.1998 57.2482 41.8098 57.0782 45.9498 56.7182C49.8098 56.4082 50.9498 53.3082 50.2098 49.8982Z" fill="#00A99D"/>
<path d="M73.5799 65.3682C74.1599 64.4982 74.6599 63.5982 74.8699 62.5582C75.3299 60.2782 75.2799 57.8382 75.2599 55.5282C75.2299 53.0382 75.1699 50.5382 74.8399 48.0682C74.6999 46.9982 74.5699 45.8382 74.0599 44.8682C73.8599 44.4882 73.5999 44.1582 73.3099 43.8482C72.8999 43.6982 72.4699 43.6082 72.0199 43.6182C70.1699 43.6582 68.2899 43.6582 66.4099 43.6782C64.1599 42.6982 61.8099 43.1482 59.6299 44.0582C58.6899 44.1682 57.7499 44.3182 56.8299 44.5082C55.0499 44.7482 53.4099 46.0082 53.3399 48.3082C53.2899 50.1882 53.2299 52.0582 53.1799 53.9382C53.1699 54.4282 52.8699 56.2582 52.9899 57.1282C50.4399 57.1482 48.5599 60.8882 48.7699 62.8882C49.5499 70.1882 60.9099 67.6582 65.7199 66.9682C66.2699 66.8882 66.7599 66.7382 67.2199 66.5582C69.1699 66.5982 71.1599 66.2482 72.6799 65.7582C73.0099 65.6482 73.3099 65.5182 73.5799 65.3682Z" fill="#FBB03B"/>
<path d="M72.81 88.6483C65.96 88.6583 59.11 88.6683 52.27 88.6783C47.77 88.6883 47.76 95.6883 52.27 95.6783C59.12 95.6683 65.97 95.6583 72.81 95.6483C77.31 95.6483 77.32 88.6483 72.81 88.6483Z" fill="#00A99D"/>
<path d="M50.79 4.18837C44.43 4.40837 38.07 4.63837 31.72 4.85837C27.23 5.01837 27.21 12.0184 31.72 11.8584C38.08 11.6384 44.44 11.4084 50.79 11.1884C55.29 11.0384 55.31 4.02837 50.79 4.18837Z" fill="#FBB03B"/>
<path d="M99.32 26.9784C98.83 26.6784 98.13 26.6684 97.63 26.9684C97.19 27.2284 96.94 27.6884 96.94 28.2684L96.63 78.9384L96.3 78.9084C71.81 76.9184 47.1 76.1484 22.86 76.6084C16.63 76.7284 10.26 76.9384 3.36 77.2484L3.03999 77.2584L3.36 23.6684L3.64999 23.6484C28.07 22.1284 52.68 22.0484 76.8 23.4184C83.72 23.8084 90.84 24.3384 97.96 24.9884C98.48 25.0384 98.87 24.8684 99.12 24.4884C99.42 24.0284 99.46 23.3184 99.21 22.7484C99.07 22.4284 98.71 21.8784 97.91 21.8084C72.98 19.5384 47.75 18.7784 22.91 19.5584C15.98 19.7784 8.85001 20.1184 1.74001 20.5884C1.25001 20.6184 0.870006 20.8284 0.600006 21.2084C0.310006 21.6184 0.200007 22.1984 0.320007 22.7184L0.330002 22.7284L0 78.5984C0 78.9984 0.110007 79.3284 0.320007 79.5684L0.389999 79.6784C0.619999 80.2284 1.09 80.5184 1.69 80.4884C13.33 79.9284 25.16 79.6484 36.86 79.6484C49.96 79.6484 63.17 79.9984 76.11 80.6984C83.07 81.0684 90.18 81.5584 97.25 82.1384C97.29 82.1384 97.34 82.1484 97.38 82.1484C97.68 82.1484 97.94 82.0684 98.15 81.9084L98.22 81.8584L98.31 81.8484C98.94 81.7884 99.69 81.3684 99.69 80.3384L100.01 28.2584C99.98 27.7084 99.75 27.2484 99.32 26.9784Z" fill="#1E1E1E"/>
<path d="M14.81 92.7583C14.85 93.9083 15.84 94.3983 16.68 94.2383C16.82 94.2783 16.96 94.3083 17.13 94.3083L79.47 93.5183C80.23 93.5083 80.69 93.0083 80.85 92.4183C81.22 92.2283 81.52 91.8783 81.64 91.4383C82.74 87.5983 83.21 88.1283 83 84.1283C82.96 83.2783 82.34 82.5583 81.5 82.5583C80.72 82.5583 79.95 83.2783 80 84.1283C80.18 87.8083 79.78 86.8583 78.8 90.3983L17.79 91.1783C17.73 86.6483 17.79 88.0283 18.47 83.5583C18.6 82.7183 18.27 81.8683 17.42 81.6283C16.71 81.4283 15.7 81.8783 15.57 82.7283C14.78 87.9783 14.64 87.4083 14.81 92.7583Z" fill="#1E1E1E"/>
<path d="M84.06 7.53828C84.02 6.38828 83.03 5.89828 82.19 6.05828C82.05 6.01828 81.91 5.98828 81.74 5.98828L19.4 6.77828C18.64 6.78828 18.18 7.28828 18.02 7.87828C17.65 8.06828 17.35 8.41828 17.23 8.85828C16.13 12.6983 15.66 12.1683 15.87 16.1683C15.91 17.0183 16.53 17.7383 17.37 17.7383C18.15 17.7383 18.92 17.0183 18.87 16.1683C18.69 12.4883 19.09 13.4383 20.07 9.89828L81.08 9.11828C81.14 13.6483 81.08 12.2683 80.4 16.7383C80.27 17.5783 80.61 18.4283 81.45 18.6683C82.16 18.8683 83.17 18.4183 83.3 17.5683C84.08 12.3083 84.23 12.8883 84.06 7.53828Z" fill="#1E1E1E"/>
<path d="M43.84 83.9183L24.14 84.1683C22.21 84.1883 22.2 87.3283 24.14 87.3083L43.84 87.0583C45.77 87.0383 45.78 83.8983 43.84 83.9183Z" fill="#1E1E1E"/>
<path d="M75.7 12.8783C69.82 12.9483 63.94 13.0083 58.06 13.0783C56.13 13.0983 56.12 16.2383 58.06 16.2183C63.94 16.1483 69.82 16.0883 75.7 16.0183C77.63 15.9883 77.64 12.8583 75.7 12.8783Z" fill="#1E1E1E"/>
<path d="M87.58 86.4384C86.72 86.4384 86.13 87.1584 86.08 88.0084C85.91 90.6684 85.73 93.9284 83.59 95.7484C82.63 96.5684 81.3 96.8184 80.08 96.8584C78.42 96.9184 76.77 96.6884 75.11 96.7184C73.18 96.7584 73.17 99.8984 75.11 99.8584C76.97 99.8184 78.84 100.128 80.7 99.9584C82.52 99.7984 84.22 99.2584 85.63 98.0284C88.44 95.5884 88.84 91.5484 89.07 88.0084C89.13 87.1584 88.35 86.4384 87.58 86.4384Z" fill="#1E1E1E"/>
<path d="M28.35 0.178327C26.11 0.158327 23.87 0.138327 21.62 0.118327C19.55 0.098327 17.12 -0.271673 15.13 0.408327C13.32 1.02833 12.12 2.54833 11.38 4.31833C10.69 5.98833 10.45 8.04833 9.32 9.48833C8.81 10.1383 8.71 11.0683 9.32 11.7083C9.85 12.2583 10.93 12.3683 11.45 11.7083C12.58 10.2683 13.11 8.61833 13.66 6.87833C14.1 5.48833 14.69 3.72833 16.22 3.34833C17.05 3.13833 17.94 3.21833 18.79 3.22833C19.85 3.23833 20.91 3.24833 21.98 3.25833C24.1 3.27833 26.23 3.29833 28.35 3.30833C30.28 3.33833 30.28 0.198327 28.35 0.178327Z" fill="#1E1E1E"/>
<path d="M49.62 40.9084C49.61 40.4484 49.61 39.9783 49.6 39.4883C49.59 38.1483 49.59 36.7684 49.33 35.5784C48.82 33.1484 47.25 32.8083 45.63 32.8083C45.22 32.8083 44.78 32.8384 44.31 32.8684H44.25C43.94 32.8884 43.64 32.9084 43.36 32.9184L24.13 33.3983C23.18 33.4183 22.76 34.4284 22.68 35.2784C22.6 36.2084 22.87 37.3384 23.65 37.6584L23.86 37.7484L24.45 50.4784C24.5 51.6484 24.56 52.8183 24.61 53.9883C24.7 55.7183 24.85 57.2183 25.82 58.0583C26.4 58.5583 27.09 58.6483 27.8 58.6483C28.01 58.6483 28.23 58.6383 28.44 58.6283L45.67 58.2084C46.99 58.1784 48.24 58.1484 49.11 56.7784C50.25 54.9784 50.05 51.8783 49.87 49.1283C49.82 48.3583 49.78 47.7184 49.76 47.1384L49.62 40.9084ZM46.49 37.6684C46.51 37.9484 46.53 38.1984 46.53 38.4184L46.72 46.0684C46.78 48.3884 46.83 50.6983 46.89 53.0183C46.9 53.3383 46.9 53.6784 46.89 54.0084L46.9 55.1783L46.59 55.1884C46.37 55.1884 46.07 55.2384 46.01 55.2484L29.14 55.7183C29.06 55.7183 28.92 55.6983 28.75 55.6783C28.52 55.6483 28.23 55.6083 27.98 55.6083H27.68V55.1083C27.68 54.8883 27.66 54.6483 27.65 54.3583C27.64 54.1883 27.63 54.0184 27.62 53.8684L26.92 36.3083L44.83 35.7784C45.22 35.7684 45.62 35.7484 46 35.7484L46.49 35.7683L46.44 36.3384C46.42 36.6884 46.46 37.2084 46.49 37.6684Z" fill="#1E1E1E"/>
<path d="M42.9898 44.0982C39.8498 42.8282 36.6798 41.6182 33.4998 40.4582C33.3698 40.4082 33.2397 40.3982 33.0997 40.3982C33.0497 40.3982 32.9997 40.3882 32.9397 40.3882C32.1697 40.4182 31.3797 41.0482 31.4397 41.8882L32.0498 50.9682C32.1198 52.0382 33.2898 52.9182 34.3098 52.2682C37.2698 50.3682 40.2797 48.5582 43.3497 46.8482C43.8697 46.5582 44.1397 45.9282 44.0697 45.3582C43.9797 44.7182 43.5598 44.3282 42.9898 44.0982ZM39.1597 45.7982C37.7197 46.6382 36.2897 47.4982 34.8797 48.3782C34.7797 46.9382 34.6898 45.4982 34.5898 44.0582C36.1098 44.6282 37.6397 45.2082 39.1597 45.7982Z" fill="#1E1E1E"/>
<path d="M73.1699 59.1283C73.1199 58.3583 73.0799 57.7184 73.0599 57.1384L72.8799 50.9084C72.8699 50.4484 72.8699 49.9783 72.8599 49.4883C72.8499 48.1483 72.8499 46.7684 72.5899 45.5784C72.0799 43.1484 70.5099 42.8083 68.8899 42.8083C68.4799 42.8083 68.0399 42.8384 67.5699 42.8684H67.5099C67.1999 42.8884 66.8999 42.9084 66.6199 42.9184C64.2999 42.9784 61.9798 43.0384 59.6599 43.0884C58.6599 43.1184 57.6599 43.1384 56.6599 43.1684C55.5898 43.1984 54.3699 43.0284 53.4199 43.6384C53.2299 43.7584 53.0499 43.9184 52.9499 44.1184C52.8499 44.3284 52.8399 44.5784 52.8399 44.8184C52.8499 45.2584 52.9299 45.7583 53.2899 46.0183C53.8999 46.4483 55.2398 46.1483 55.9398 46.1283C56.9898 46.0983 58.0499 46.0584 59.0999 46.0284C61.1799 45.9684 63.2599 45.9084 65.3399 45.8484C66.2499 45.8184 67.1599 45.7983 68.0699 45.7683C68.4599 45.7583 68.8599 45.7383 69.2399 45.7383L69.7299 45.7584L69.6799 46.3284C69.6499 46.6983 69.6898 47.2084 69.7198 47.6684C69.7398 47.9484 69.7599 48.1984 69.7599 48.4184L69.9499 56.0684C70.0099 58.3884 70.0599 60.6983 70.1199 63.0183C70.1299 63.3383 70.1299 63.6784 70.1199 64.0084L70.1299 65.1783L69.8199 65.1884C69.5999 65.1884 69.2999 65.2383 69.2399 65.2483L52.3699 65.7183C52.2899 65.7183 52.1499 65.6983 51.9799 65.6783C51.7499 65.6483 51.4599 65.6083 51.2099 65.6083H50.9099V65.1083C50.9099 64.8883 50.8899 64.6483 50.8799 64.3583C50.8699 64.1883 50.8599 64.0184 50.8499 63.8684C50.8199 62.9884 50.9299 62.0784 50.6699 61.2284C50.5499 60.8484 50.3399 60.4783 50.0199 60.2383C49.5299 59.8783 48.7999 59.8783 48.3099 60.2383C47.8199 60.6084 47.7199 61.1483 47.7699 61.7183C47.8299 62.4683 47.8299 63.2283 47.8699 63.9883C47.9599 65.7183 48.1099 67.2184 49.0799 68.0584C49.6599 68.5584 50.3499 68.6483 51.0599 68.6483C51.2699 68.6483 51.4899 68.6384 51.6999 68.6284L68.9299 68.2083C70.2499 68.1783 71.4999 68.1483 72.3699 66.7783C73.5599 64.9783 73.3499 61.8683 73.1699 59.1283Z" fill="#1E1E1E"/>
<path d="M59.0898 51.4183C59.0898 50.6383 58.3998 49.8783 57.5898 49.9183C56.7798 49.9583 56.0898 50.5783 56.0898 51.4183C56.0998 54.4683 56.1598 57.5183 56.2498 60.5683C56.2698 61.3483 56.9198 62.1083 57.7498 62.0683C58.5398 62.0283 59.2798 61.4083 59.2498 60.5683C59.1598 57.5183 59.1098 54.4683 59.0898 51.4183Z" fill="#1E1E1E"/>
<path d="M63.98 51.4183C63.98 50.6383 63.29 49.8783 62.48 49.9183C61.67 49.9583 60.98 50.5783 60.98 51.4183C60.99 54.4683 61.05 57.5183 61.14 60.5683C61.16 61.3483 61.81 62.1083 62.64 62.0683C63.43 62.0283 64.17 61.4083 64.14 60.5683C64.05 57.5183 64 54.4683 63.98 51.4183Z" fill="#1E1E1E"/>
</svg>
