<svg width="99" height="99" viewBox="0 0 99 99" fill="none" xmlns="http://www.w3.org/2000/svg">
<path d="M90.7417 66.762C89.1517 63.792 86.2317 61.752 82.8217 61.652C81.1517 61.602 79.5317 62.052 78.1017 62.852C77.9117 62.812 77.7117 62.782 77.5017 62.792C69.3617 63.282 69.3017 75.582 73.6317 80.242C76.2817 83.102 80.1617 83.162 83.6517 82.022C86.6117 81.052 90.1617 79.802 91.6217 76.792C93.1317 73.682 92.3217 69.722 90.7417 66.762Z" fill="#FBB03B"/>
<path d="M92.1916 12.242C71.3816 11.012 50.5216 10.642 29.6916 11.132C23.7816 11.272 17.8716 11.492 11.9716 11.762C9.73161 11.872 9.05161 14.342 9.95161 15.772C9.93161 16.412 10.1216 17.052 10.5216 17.512C10.8616 18.302 11.5816 18.922 12.7116 18.912L91.2116 18.512C92.3916 18.502 93.1316 17.832 93.4516 16.982C95.3116 15.992 94.9016 12.402 92.1916 12.242Z" fill="#00A99D"/>
<path d="M97.1116 70.842L97.2716 70.362C97.3416 70.152 97.3716 69.952 97.3816 69.762L97.6316 19.232C97.6316 18.662 97.4316 18.222 97.0416 17.922L96.8616 17.722C96.5716 17.252 96.1216 17.012 95.5316 17.012L90.4916 16.972L89.8716 10.502C89.7816 9.59203 89.2116 8.67203 88.1216 8.67203C88.1216 8.67203 88.1216 8.67203 88.1116 8.67203H86.4516L86.5716 7.81203C86.8316 6.04203 86.3616 4.28203 85.2716 2.86203C84.1116 1.36203 82.3916 0.402026 80.4116 0.172026C78.3316 -0.0679738 76.1416 -0.00797378 74.0216 0.0620262C73.1516 0.0920262 72.2916 0.112026 71.4416 0.122026L23.0816 0.462026C22.6516 0.472026 22.2016 0.462026 21.7416 0.452026C19.2216 0.412026 16.6016 0.362026 14.9216 2.01203C13.5816 3.32203 13.2016 5.24203 13.7716 7.90203L13.9616 8.80203L13.0416 8.81203C11.4816 8.83203 9.70161 8.96203 8.27161 9.85203C6.56161 10.912 5.76161 12.852 5.90161 15.602L5.94161 16.392L2.03161 16.362C1.87161 16.362 1.73161 16.382 1.56161 16.422L1.44161 16.442C1.08161 16.472 -0.048392 16.682 0.00160803 18.072L2.23161 76.832C2.26161 77.702 2.89161 78.622 3.92161 78.622L66.1416 77.652L66.2316 78.302C67.1116 84.402 67.4816 90.622 67.3316 96.782C67.3116 97.432 67.7616 98.112 68.3716 98.362C69.0216 98.622 69.6116 98.502 70.2916 97.952L75.0616 94.102C75.0816 94.082 75.1816 94.012 75.3116 93.912C75.5016 93.772 75.7916 93.562 76.0316 93.382L76.5216 93.002L78.5216 94.832L81.7616 97.822C82.2416 98.262 83.1016 98.422 83.7516 98.182C84.2416 98.012 84.5216 97.662 84.6016 97.152L87.0516 80.022L87.1416 79.882C87.4216 79.462 87.6316 79.092 87.8016 78.752C87.9116 78.522 88.0016 78.282 88.1016 78.042L88.4016 77.292L91.4616 77.242C91.7716 77.242 92.0916 77.242 92.4216 77.242C93.8016 77.252 95.2316 77.262 96.3916 76.702C97.5016 76.172 98.3016 75.082 98.4616 73.842C98.5416 73.222 98.5216 72.062 97.4816 71.162L97.1116 70.842ZM17.1616 4.96203C17.3916 4.54203 17.7816 4.24203 18.2916 4.11203C19.0716 3.91203 19.9316 3.94203 20.7016 3.97203C20.9716 3.98203 21.2516 3.99203 21.5016 3.99203L77.0416 3.58203C77.2816 3.58203 77.5316 3.57203 77.7816 3.56203C78.7616 3.53203 79.7616 3.50203 80.7516 3.76203C81.7216 4.01203 82.5416 4.69203 82.9416 5.59203C83.3216 6.43203 83.3016 7.35203 82.8816 8.18203L82.6816 8.61203L82.1816 8.67203L17.6416 8.83203L17.4016 8.12203C17.0916 7.19203 16.6516 5.90203 17.1616 4.96203ZM9.48161 13.682C9.92161 12.552 11.0216 12.462 11.7516 12.402C13.6116 12.242 15.4216 12.282 17.1716 12.312C17.9716 12.322 18.7716 12.332 19.5616 12.342L86.5416 12.182L87.0016 16.942L9.43161 16.412L9.35161 15.762C9.27161 15.112 9.22161 14.352 9.48161 13.682ZM81.7916 93.142L79.7316 91.242C78.5216 90.102 77.4716 89.122 76.0016 89.432C74.8916 89.662 73.8916 90.542 72.9116 91.382C72.6316 91.622 72.3516 91.872 72.0816 92.092L70.7616 93.162L70.7316 91.632C70.6816 89.372 70.5416 86.972 70.3116 84.272L70.1816 82.832L71.4316 83.562C72.6216 84.262 73.8416 84.722 75.0516 84.952C77.3416 85.382 79.7116 85.122 81.9216 84.192L83.1416 83.682L81.7916 93.142ZM85.7916 73.272C85.6216 75.442 84.6816 77.632 83.1916 79.272C82.7216 79.782 82.1416 80.242 81.4516 80.622C80.2216 81.302 78.8316 81.632 77.4316 81.632C75.4916 81.632 73.5416 80.992 72.0116 79.742C69.9216 78.042 68.6416 75.342 68.6716 72.692C68.7116 68.912 71.4816 65.162 74.8516 64.352C79.1416 63.312 83.6016 65.492 85.2116 69.412C85.6916 70.602 85.8916 71.902 85.7916 73.272ZM94.5616 72.782L94.7016 73.662L93.8116 73.652C93.5616 73.652 93.3116 73.662 93.0616 73.682C92.8316 73.702 92.6116 73.712 92.4016 73.712L89.1616 73.762L89.1716 72.992C89.2116 70.022 88.2816 67.172 86.5416 64.982C83.3916 60.992 77.3316 59.422 72.7516 61.402C72.4216 61.542 72.1216 61.752 71.8916 61.992L71.6916 62.202L71.4016 62.222C71.1516 62.242 70.9416 62.312 70.7716 62.432C67.2516 64.892 65.2116 68.982 65.3116 73.382L65.3316 74.132L5.56161 75.072L3.46161 19.882L94.2216 20.502L93.9816 69.762C93.9816 70.282 94.1416 70.702 94.4716 70.992L94.8516 71.332L94.6716 71.812C94.5516 72.142 94.5116 72.472 94.5616 72.782Z" fill="#1E1E1E"/>
<path d="M35.5016 31.352L59.5616 31.262C60.8816 31.262 61.2316 30.152 61.2316 29.492C61.2316 28.852 60.8816 27.762 59.5816 27.762H59.5716L35.5216 27.852C34.2016 27.852 33.8516 28.972 33.8516 29.622C33.8516 30.262 34.2016 31.352 35.5016 31.352Z" fill="#1E1E1E"/>
<path d="M78.0917 37.332L20.4617 38.922C19.6317 38.942 19.2217 39.392 19.0117 39.772C18.6817 40.382 18.6917 41.192 19.0417 41.752C19.3317 42.222 19.8117 42.452 20.4217 42.432L78.0617 40.842C79.2517 40.812 79.7717 39.842 79.7417 38.962C79.7117 38.182 79.2517 37.302 78.0917 37.332Z" fill="#1E1E1E"/>
<path d="M60.0516 46.552C60.0316 46.552 60.0216 46.552 60.0016 46.552L39.3816 47.302C38.3816 47.342 37.6016 48.112 37.6016 49.052C37.6016 49.512 37.8116 49.992 38.1716 50.332C38.5016 50.652 38.9016 50.802 39.3216 50.802L59.9416 50.052C60.9416 50.012 61.7216 49.242 61.7216 48.302C61.7216 47.842 61.5116 47.362 61.1516 47.022C60.8316 46.722 60.4416 46.552 60.0516 46.552Z" fill="#1E1E1E"/>
<path d="M45.5015 83.762C43.3115 83.722 41.1115 83.702 38.9115 83.702C29.1515 83.702 19.3215 84.082 9.62151 84.842C8.26151 84.952 7.86151 86.162 7.92151 86.952C7.95151 87.302 8.15151 88.452 9.51151 88.342C21.4415 87.412 33.5615 87.052 45.5315 87.262C46.3415 87.272 46.7215 86.882 46.9215 86.552C47.2615 85.982 47.2715 85.172 46.9415 84.572C46.7315 84.212 46.3215 83.782 45.5015 83.762Z" fill="#1E1E1E"/>
<path d="M23.4916 63.702C23.4216 62.692 22.7416 62.162 22.1416 62.002C21.3916 61.812 20.6716 62.102 20.2116 62.802C19.9616 63.182 19.6816 63.492 19.4116 63.792C19.2416 63.982 19.0616 64.182 18.9016 64.392L17.9816 65.612L17.5816 64.142C17.4116 63.512 16.7716 62.942 16.0616 62.792C15.9516 62.772 15.8316 62.752 15.7116 62.752C15.3816 62.752 15.0016 62.862 14.7016 63.242L12.0016 66.532C11.4216 67.242 11.1816 68.292 11.9516 69.062C12.2816 69.392 12.8416 69.582 13.3816 69.562C13.6216 69.552 14.0816 69.472 14.3716 69.112L15.6216 67.582L16.1616 67.872C16.8216 68.222 17.5416 68.392 18.2516 68.342C19.2516 68.282 20.1716 67.872 21.0816 67.102L21.5116 66.732L21.9816 67.052C23.1916 67.862 25.1116 68.262 26.8816 66.962L27.4416 66.552L27.9216 67.072C28.4216 67.662 28.9816 68.022 29.6516 68.172C30.5316 68.372 31.3916 68.202 32.1916 67.662L32.5816 67.402L32.9816 67.632C33.3416 67.832 33.7116 67.982 34.0816 68.072C34.9416 68.282 35.8116 68.192 36.5816 67.832C36.8416 67.712 37.0816 67.552 37.3916 67.322L37.8116 67.002L38.2516 67.282C38.7916 67.632 39.4816 67.712 40.0116 67.502C40.4616 67.322 40.7516 66.952 40.8816 66.412C41.1016 65.512 40.8516 64.612 40.2016 63.952C39.5116 63.242 38.5116 62.962 37.5316 63.172C37.1216 63.262 36.7216 63.452 36.2816 63.752L36.1816 63.822C36.0316 63.922 35.7616 64.102 35.5416 64.272L34.5316 65.072L34.3316 63.802C34.2016 62.982 33.4116 62.772 33.0816 62.712C32.3916 62.602 31.5216 62.822 31.1816 63.472C31.1416 63.542 31.0916 63.632 31.0316 63.722L30.4916 64.532L29.8416 63.802C29.0916 62.962 28.0516 62.612 27.0516 62.852C26.6516 62.952 26.2316 63.142 25.8116 63.422C25.7316 63.482 25.6416 63.572 25.5416 63.662C25.2416 63.932 24.8816 64.272 24.4316 64.372C24.4116 64.372 24.3916 64.382 24.3616 64.382L24.3416 64.232L24.2416 63.632H24.2316L23.6416 63.672L23.4916 63.702Z" fill="#1E1E1E"/>
</svg>
