<svg width="101" height="100" viewBox="0 0 101 100" fill="none" xmlns="http://www.w3.org/2000/svg">
<path d="M50.1 0.00980151L16.23 1.22983C12.42 1.36983 12.4 7.22979 16.23 7.05979L50.1 5.82981C53.91 5.70981 53.93 -0.130198 50.1 0.00980151Z" fill="#FBB03B"/>
<path d="M91.43 94.1799L68.55 94.0399C64.72 94.0399 64.72 99.8399 68.55 99.8599L91.43 99.9999C95.29 100.03 95.29 94.1999 91.43 94.1799Z" fill="#FBB03B"/>
<path d="M16.05 67.5599C13.69 65.7999 9.21999 66.0199 6.87999 67.7099C6.56524 67.9336 6.28258 68.1994 6.03996 68.4999C4.25996 67.7499 1.75995 68.5799 1.83995 71.0299L2.04997 77.7299C2.10997 79.5899 1.88998 81.7299 2.93998 83.3599C4.93998 86.4299 10.04 85.5099 13.13 85.1999C16.92 84.8299 18.76 82.2999 18.61 78.6899C18.48 75.4399 19 69.7599 16.05 67.5599Z" fill="#FBB03B"/>
<path d="M41.6 72.5999C41.13 69.1899 38.4 65.6699 34.75 66.2799C34.2533 66.1152 33.7167 66.1152 33.22 66.2799L27.71 68.4099C27.4593 68.5111 27.2182 68.6349 26.99 68.7799C26.3545 68.8872 25.7807 69.2249 25.3786 69.7285C24.9764 70.2322 24.774 70.8664 24.81 71.5099C24.87 74.0099 24.9 76.51 24.99 78.99C25.06 80.99 25.2 82.9899 27.08 84.1999C28.96 85.4099 31.68 84.7199 33.75 84.5599C35.55 84.4199 37.68 84.5599 39.39 83.8999C43.68 82.3199 42.07 76.0299 41.6 72.5999Z" fill="#00A99D"/>
<path d="M73.3 70.1998C72.38 68.7098 70.88 68.2798 69.22 68.1398C67.1355 67.8173 65.0182 67.7635 62.92 67.9798C62.4709 68.0578 62.036 68.2027 61.63 68.4098C59.92 67.0098 56.63 67.7098 56.63 70.5198L56.77 77.4198C56.6624 79.2094 56.7361 81.0052 56.99 82.7798C57.93 86.8498 62.24 86.2598 65.53 86.2698C69.21 86.2698 72.81 86.2698 73.42 81.9398C73.74 79.7298 73.7 77.4098 73.82 75.1798C73.95 73.4998 74.23 71.7098 73.3 70.1998Z" fill="#FBB03B"/>
<path d="M95.34 73.9098C95.39 71.5198 94.76 69.1498 92.6 67.7898C90.13 66.2398 87.33 66.6298 84.66 67.4098H84.6C83.6809 67.1954 82.7236 67.2062 81.8095 67.4413C80.8955 67.6763 80.0517 68.1286 79.35 68.7598C77.43 70.6698 77.71 73.3498 77.91 75.7598C78.11 78.1698 77.91 81.0698 80.03 82.7598C82.15 84.4498 85.31 84.1798 87.89 84.2498C90.47 84.3198 93.11 84.1898 94.45 81.6098C95.58 79.5398 95.28 76.2698 95.34 73.9098Z" fill="#00A99D"/>
<path d="M99.98 48.7699C99.7933 44.5233 99.6067 40.2699 99.42 36.0099L98.32 10.49C98.18 7.30996 98.78 2.7499 94.71 1.8099C92.9292 1.54324 91.1223 1.49626 89.33 1.66995L82.7 1.78995C65.33 1.99995 27.14 3.45993 9.81 2.26993C7.81 2.13993 5.81 1.98993 3.88 1.83993C3.42 0.449934 0.96999 0.599956 0.98999 2.29996C1.07999 10.83 1.18002 18.3899 1.27002 26.9099C1.31669 31.1766 1.36331 35.4433 1.40997 39.7099C1.40997 41.8799 1.40999 44.0499 1.48999 46.2199C1.3942 47.9258 1.49485 49.637 1.78998 51.3199C1.93787 52.048 2.26109 52.7291 2.73157 53.3041C3.20204 53.8791 3.8056 54.3308 4.48999 54.6199C6.29999 55.3599 8.56999 55.1299 10.49 55.1999L23.55 55.67C32.27 55.98 61.65 56.09 70.55 55.67L83.62 56.1299L90.03 56.36C91.9581 56.5599 93.9019 56.5599 95.83 56.36C99.7 55.65 100.12 51.9999 99.98 48.7699ZM96.91 51.9499C96.51 53.3999 95.26 53.56 93.91 53.55C91.85 53.55 89.8 53.4199 87.75 53.3399C83.64 53.1999 79.53 52.7999 75.42 52.8999C67.12 53.0899 38.5 53.2899 30.42 53.0099L18.09 52.5599L12.17 52.3499L9.21997 52.2499C8.14333 52.2953 7.06487 52.235 6 52.0699C4.27 51.6299 4.46 49.5499 4.44 48.1499C4.44 46.0633 4.41666 43.9732 4.36999 41.8799L4.21997 28.36L3.95001 4.75992C19.95 5.98992 56.79 4.69992 72.83 4.75992C76.9167 4.75992 81.0133 4.72995 85.12 4.66995C87.12 4.66995 89.05 4.59996 91.01 4.54996C92.24 4.54996 94.63 4.09992 95.01 5.63992C95.1535 6.45156 95.2071 7.27656 95.17 8.09994L95.3 10.9799C95.38 12.9133 95.4633 14.8399 95.55 16.7599L96.07 28.7599C96.2367 32.7599 96.41 36.7599 96.59 40.7599C96.67 42.6899 96.76 44.6199 96.84 46.5399C96.98 48.2899 97.36 50.2899 96.91 51.9499Z" fill="#1E1E1E"/>
<path d="M18.34 67.3299C17.1952 67.0332 16.008 66.9351 14.83 67.0399H2.42999C2.21353 66.8754 1.9562 66.7732 1.68585 66.7445C1.4155 66.7158 1.14242 66.7617 0.89624 66.877C0.650061 66.9924 0.440177 67.1729 0.289246 67.399C0.138314 67.6251 0.0520853 67.8883 0.039978 68.1599L0.0999756 75.7498C0.0999756 78.1098 -0.0399976 80.5398 0.190002 82.8798C0.420002 85.2198 2.04998 86.4599 4.34998 86.6599C6.68344 86.7497 9.02003 86.7163 11.35 86.5598C13.45 86.5598 16.03 86.8199 17.91 85.6999C19.79 84.5799 20.11 82.4399 20.18 80.4799C20.27 78.0399 20.33 75.6098 20.4 73.1798C20.48 71.0298 20.87 68.2699 18.34 67.3299ZM17.48 71.8499L17.29 77.9899C17.29 78.9899 17.29 79.8999 17.2 80.8499C17.2423 81.5445 17.0899 82.2371 16.76 82.8499C16.5613 83.0712 16.3174 83.2473 16.0449 83.3663C15.7723 83.4853 15.4774 83.5445 15.18 83.5399C14.18 83.6499 13.09 83.6099 12.05 83.6399L5.85999 83.7699C5.15704 83.8387 4.4476 83.7914 3.76001 83.6298C3.11001 83.3998 3.10997 82.8598 3.08997 82.2498C2.97997 78.1498 2.99998 74.0499 2.97998 69.9499H14.66C15.4644 69.8648 16.2756 69.8648 17.08 69.9499C17.8 70.1499 17.5 71.2799 17.48 71.8499Z" fill="#1E1E1E"/>
<path d="M27.77 86.1599C28.9098 86.4657 30.0948 86.5672 31.27 86.4599H43.71C43.9271 86.6248 44.1853 86.7269 44.4565 86.7552C44.7277 86.7835 45.0014 86.7368 45.2479 86.6203C45.4944 86.5037 45.7042 86.3218 45.8544 86.0943C46.0046 85.8667 46.0896 85.6024 46.1 85.3299L46.04 77.7399C46.04 75.3899 46.18 72.9499 45.95 70.6099C45.72 68.2699 44.1 67.0399 41.8 66.8399C39.4467 66.7449 37.09 66.7749 34.74 66.9299C32.64 66.9299 30.06 66.6799 28.18 67.7899C26.3 68.8999 25.9799 71.0499 25.9099 73.0199C25.8299 75.4499 25.77 77.8799 25.69 80.3199C25.63 82.4599 25.24 85.2199 27.77 86.1599ZM28.63 81.6399L28.81 75.5099C28.81 74.5099 28.8099 73.5999 28.8999 72.6399C28.8608 71.9455 29.013 71.2537 29.3399 70.6399C29.5377 70.4168 29.7812 70.2388 30.0538 70.1181C30.3264 69.9973 30.6218 69.9365 30.92 69.9399C31.92 69.8299 33.02 69.8699 34.05 69.8499L40.24 69.7199C40.9427 69.6404 41.654 69.6878 42.3399 69.8599C42.9999 70.0799 43 70.6299 43.01 71.2399C43.13 75.3299 43.11 79.4399 43.12 83.5399H31.43C30.627 83.6034 29.8197 83.5867 29.02 83.4899C28.3 83.3399 28.61 82.2199 28.63 81.6399Z" fill="#1E1E1E"/>
<path d="M71.24 67.3299C70.0952 67.0329 68.908 66.9348 67.73 67.0399H55.3C55.0836 66.8727 54.8253 66.7682 54.5534 66.738C54.2815 66.7078 54.0066 66.7529 53.7587 66.8686C53.5109 66.9843 53.2996 67.166 53.1481 67.3938C52.9967 67.6215 52.9108 67.8866 52.9 68.1599L52.96 75.7499C52.96 78.1099 52.82 80.5399 53.05 82.8799C53.28 85.2199 54.91 86.4599 57.21 86.6599C59.5601 86.7515 61.9134 86.7181 64.26 86.5599C66.36 86.5599 68.94 86.8199 70.82 85.6999C72.7 84.5799 73.02 82.4399 73.09 80.4799C73.18 78.0399 73.24 75.6099 73.31 73.1799C73.43 71.0299 73.77 68.2699 71.24 67.3299ZM70.38 71.8499L70.19 77.99C70.19 78.99 70.19 79.8999 70.11 80.8499C70.1435 81.545 69.988 82.2362 69.66 82.8499C69.4613 83.0712 69.2174 83.2473 68.9448 83.3664C68.6723 83.4854 68.3774 83.5446 68.08 83.5399C67.08 83.6499 65.99 83.6099 64.95 83.6399L58.76 83.7699C58.0571 83.8387 57.3476 83.7914 56.66 83.6299C56.01 83.3999 56.01 82.8599 55.99 82.2499C55.88 78.1499 55.9 74.0499 55.88 69.9499H67.56C68.3644 69.8649 69.1756 69.8649 69.98 69.9499C70.7 70.1499 70.43 71.2799 70.43 71.8499H70.38Z" fill="#1E1E1E"/>
<path d="M80.76 86.1599C81.9035 86.4644 83.0915 86.5659 84.27 86.4599H96.71C96.9272 86.6248 97.1854 86.7269 97.4565 86.7552C97.7277 86.7835 98.0014 86.7368 98.2479 86.6203C98.4944 86.5037 98.7042 86.3218 98.8544 86.0943C99.0047 85.8667 99.0896 85.6024 99.1 85.3299L99.04 77.7399C99.04 75.3899 99.18 72.9499 98.95 70.6099C98.72 68.2699 97.09 67.0399 94.8 66.8399C92.4467 66.7449 90.0901 66.7749 87.74 66.9299C85.64 66.9299 83.06 66.6799 81.18 67.7899C79.3 68.8999 78.98 71.0499 78.91 73.0199C78.82 75.4499 78.76 77.8799 78.69 80.3199C78.63 82.4599 78.24 85.2199 80.76 86.1599ZM81.62 81.6399L81.81 75.5099C81.81 74.5099 81.81 73.5999 81.9 72.6399C81.8608 71.9455 82.013 71.2537 82.34 70.6399C82.5365 70.4152 82.7797 70.2362 83.0526 70.1153C83.3255 69.9944 83.6215 69.9345 83.92 69.9399C84.92 69.8299 86.01 69.8699 87.05 69.8499L93.24 69.7199C93.9427 69.641 94.6539 69.6884 95.34 69.8599C95.99 70.0799 95.99 70.6299 96.01 71.2399C96.13 75.3299 96.1 79.4399 96.12 83.5399H84.43C83.6237 83.6033 82.813 83.5865 82.01 83.4899C81.3 83.3399 81.61 82.2199 81.62 81.6399Z" fill="#1E1E1E"/>
<path d="M95.58 90.6098C93.15 89.8398 90.21 90.2398 87.7 90.2398H78.82H60.08L39.37 90.1898C39.0049 90.2201 38.6646 90.3865 38.4165 90.656C38.1684 90.9256 38.0307 91.2785 38.0307 91.6448C38.0307 92.0111 38.1684 92.3641 38.4165 92.6336C38.6646 92.9031 39.0049 93.0695 39.37 93.0998L71.67 93.1798H87.67H91.61C92.6154 93.1024 93.6267 93.1766 94.61 93.3998C95.34 93.6298 95.82 94.0298 95.39 94.7898C94.85 95.7898 93.52 95.8898 92.51 95.9298C89.69 96.0198 86.83 95.8398 84.01 95.7898L74.82 95.6098C74.4549 95.6401 74.1146 95.8065 73.8665 96.076C73.6184 96.3456 73.4807 96.6985 73.4807 97.0648C73.4807 97.4311 73.6184 97.784 73.8665 98.0536C74.1146 98.3231 74.4549 98.4895 74.82 98.5198L84.01 98.6998C86.9 98.6998 89.83 98.9598 92.72 98.8298C95.05 98.7198 97.54 97.8298 98.33 95.4698C99.11 93.2398 97.71 91.2898 95.58 90.6098Z" fill="#1E1E1E"/>
<path d="M97.83 60.8499H78C77.6875 59.9482 77.0819 59.1772 76.28 58.6599C74.9587 57.9645 73.4692 57.6528 71.98 57.7599C67.83 57.7599 63.68 57.6999 59.53 57.6699C59.3471 57.6622 59.1645 57.6909 58.9928 57.7544C58.8211 57.8179 58.6638 57.915 58.53 58.0399C58.3261 58.113 58.1426 58.2336 57.9948 58.3919C57.8469 58.5502 57.739 58.7415 57.68 58.9499C57.4531 59.6335 57.2891 60.3365 57.19 61.0499L3.5 60.7099C3.11278 60.7099 2.74139 60.8637 2.46759 61.1375C2.19379 61.4113 2.03998 61.7827 2.03998 62.1699C2.03998 62.5572 2.19379 62.9285 2.46759 63.2023C2.74139 63.4761 3.11278 63.6299 3.5 63.6299L57.21 63.9999C57.3626 63.9977 57.514 63.9742 57.66 63.9299C58.0294 64.5671 58.5543 65.1003 59.1855 65.4797C59.8168 65.8592 60.534 66.0726 61.27 66.0999C62.99 66.2799 64.77 66.1899 66.49 66.1999L71.88 66.2599C73.4047 66.4252 74.9461 66.1872 76.35 65.5699C77.059 65.1693 77.6174 64.5477 77.94 63.7999H97.83C98.0237 63.7999 98.2155 63.7618 98.3945 63.6876C98.5734 63.6135 98.736 63.5048 98.873 63.3679C99.0099 63.2309 99.1186 63.0683 99.1927 62.8894C99.2668 62.7104 99.305 62.5186 99.305 62.3249C99.305 62.1312 99.2668 61.9394 99.1927 61.7604C99.1186 61.5815 99.0099 61.4189 98.873 61.2819C98.736 61.145 98.5734 61.0363 98.3945 60.9622C98.2155 60.888 98.0237 60.8499 97.83 60.8499ZM74.95 62.9999C74.04 63.6699 72.24 63.3599 71.18 63.3399L65.62 63.2799H63.19C62.4566 63.33 61.7197 63.2795 61 63.1299C59.89 62.8099 60 61.6399 60.3 60.6499L70.3 60.7199C71.6 60.7199 73.56 60.4199 74.72 61.1699C75.25 61.5199 75.6 62.5199 74.95 62.9999Z" fill="#1E1E1E"/>
<path d="M85.31 27.0199C85.41 22.7399 84.31 18.4799 80.4 16.0199C75.97 13.2499 34.72 13.9399 29.93 15.3299H29.82C26.45 14.7999 22.97 15.2099 20.4 17.7599C16.95 21.1899 17.46 25.9898 17.81 30.3698C18.16 34.7498 17.89 39.8999 21.62 43.0199C25.35 46.1399 67.32 45.5699 71.94 45.6999C76.56 45.8299 81.32 45.5899 83.73 40.9499C85.74 37.1299 85.22 31.2499 85.31 27.0199Z" fill="#00A99D"/>
<path d="M37.61 37.6198C37.72 35.9098 35.05 35.9098 34.93 37.6198C34.93 38.0598 34.93 38.4899 34.93 38.9099C32.0456 39.15 29.1444 39.0997 26.27 38.7598L26.34 35.4899L26.4 33.3599C26.4 33.3599 26.4 33.0599 26.4 32.7999H26.81L35.88 32.0199C36.2321 32.0148 36.5684 31.8733 36.8184 31.6253C37.0683 31.3772 37.2122 31.0419 37.22 30.6898C37.11 27.1398 37.01 23.5999 36.9 20.0499C36.8899 19.7003 36.7465 19.3678 36.4993 19.1206C36.252 18.8733 35.9196 18.7299 35.57 18.7199C32.3799 18.3649 29.1601 18.3649 25.97 18.7199C25.6185 18.7323 25.2849 18.8775 25.0363 19.1261C24.7876 19.3748 24.6424 19.7084 24.63 20.0598L24.51 23.1998C24.45 24.9198 27.12 24.9198 27.18 23.1998L27.26 21.2899C29.5895 21.1004 31.9305 21.1004 34.26 21.2899L34.5 29.4799L30.35 29.8299L27.59 30.0698C26.7373 30.0728 25.8869 30.1565 25.05 30.3198C23.3 30.8098 23.69 33.1698 23.66 34.5598C23.66 36.3698 23.57 38.1699 23.52 39.9799C23.523 40.2746 23.6224 40.5602 23.803 40.7931C23.9835 41.026 24.2354 41.1935 24.52 41.2699C28.4504 41.8561 32.4399 41.9334 36.39 41.4998C36.5942 41.4954 36.7948 41.4452 36.9769 41.3526C37.1589 41.2601 37.3178 41.1277 37.4418 40.9654C37.5657 40.803 37.6514 40.6149 37.6927 40.4148C37.7339 40.2148 37.7296 40.008 37.68 39.8098C37.5632 39.0858 37.5396 38.3498 37.61 37.6198Z" fill="#1E1E1E"/>
<path d="M49.36 19.6398L49.45 30.7598H49.34C47.96 30.7598 46.58 30.7598 45.21 30.7598C44.56 30.7598 43.91 30.6998 43.27 30.6498L42.18 30.5598H42.12V19.7698C42.12 19.4144 41.9789 19.0736 41.7276 18.8223C41.4763 18.571 41.1354 18.4298 40.78 18.4298C40.4246 18.4298 40.0838 18.571 39.8325 18.8223C39.5812 19.0736 39.44 19.4144 39.44 19.7698C39.44 23.4798 39.44 27.1798 39.44 30.8898C39.3753 31.3501 39.4781 31.8183 39.7295 32.2092C39.9809 32.6001 40.3644 32.8878 40.81 33.0198C41.776 33.203 42.7568 33.2968 43.74 33.2999C45.6 33.4199 47.46 33.4599 49.33 33.4199H49.43L49.49 40.7798C49.49 41.1352 49.6312 41.4761 49.8825 41.7274C50.1338 41.9787 50.4746 42.1198 50.83 42.1198C51.1854 42.1198 51.5262 41.9787 51.7775 41.7274C52.0288 41.4761 52.17 41.1352 52.17 40.7798L51.99 19.6498C51.9314 19.3447 51.7687 19.0695 51.5296 18.8711C51.2904 18.6727 50.9898 18.5636 50.6792 18.5624C50.3685 18.5613 50.067 18.6681 49.8264 18.8646C49.5857 19.0612 49.4209 19.3352 49.36 19.6398Z" fill="#1E1E1E"/>
<path d="M63.56 15.4499C60.3933 25.7366 56.8633 35.9032 52.97 45.9499C52.35 47.5599 54.97 48.2499 55.55 46.6599C59.43 36.6199 62.96 26.4533 66.14 16.1599C66.65 14.5099 64.07 13.8099 63.56 15.4499Z" fill="#1E1E1E"/>
<path d="M79.02 36.0299L78.75 30.4899C78.7423 30.1379 78.5983 29.8025 78.3484 29.5545C78.0985 29.3064 77.7621 29.165 77.41 29.1599H73.28H71.28C71.12 29.1599 70.49 29.0999 69.95 29.0799V28.4099C69.95 27.7399 69.95 27.0799 69.88 26.4099C69.88 25.3199 69.79 24.2299 69.75 23.1299C72.14 23.0399 74.53 22.9999 76.91 23.0299C77.095 23.0459 77.2813 23.0233 77.4572 22.9635C77.633 22.9037 77.7945 22.808 77.9313 22.6825C78.0682 22.5569 78.1775 22.4043 78.2523 22.2343C78.327 22.0643 78.3657 21.8806 78.3657 21.6949C78.3657 21.5091 78.327 21.3254 78.2523 21.1554C78.1775 20.9854 78.0682 20.8328 77.9313 20.7073C77.7945 20.5818 77.633 20.4861 77.4572 20.4262C77.2813 20.3664 77.095 20.3439 76.91 20.3599C74.0166 20.3199 71.1267 20.3699 68.24 20.5099C67.887 20.5175 67.5506 20.6611 67.301 20.9108C67.0513 21.1605 66.9076 21.4969 66.9 21.8499C66.9143 22.0443 66.9652 22.2343 67.05 22.4099L67.23 27.1399C67.23 27.9799 67.29 28.8299 67.33 29.6699C67.3013 29.9922 67.3438 30.3169 67.4543 30.621C67.5649 30.9251 67.7409 31.2012 67.97 31.4298C68.5382 31.778 69.2105 31.916 69.87 31.8199H72.38H76.14L76.31 35.1099L76.43 37.5099V38.6099V38.8599H76.05L74.96 38.9298L72.78 39.0598L68.06 39.3399C66.35 39.4499 66.34 42.1199 68.06 42.0099L73.5 41.6899L76.41 41.5099C77.1718 41.584 77.9349 41.3816 78.56 40.9399C78.7954 40.6688 78.967 40.3485 79.0622 40.0024C79.1574 39.6562 79.1737 39.2931 79.11 38.9399C79.13 37.9999 79.07 37.0099 79.02 36.0299Z" fill="#1E1E1E"/>
</svg>
