<svg width="100" height="100" viewBox="0 0 100 100" fill="none" xmlns="http://www.w3.org/2000/svg">
<path d="M87.7016 22.4171C87.1516 17.4051 82.0516 14.3053 77.3142 14.4803C75.0393 14.5678 73.7018 16.0677 73.2643 17.8175C70.8268 20.3548 69.6768 24.667 70.4893 27.8417C71.7393 32.7413 77.4142 34.3911 81.7891 33.0162C86.5016 31.5289 88.2141 27.0667 87.7016 22.4171Z" fill="white"/>
<path d="M25.4151 16.9299C24.3276 16.655 23.1277 16.7925 22.0402 17.3299C18.5027 19.0798 16.2153 22.742 15.9653 26.6791C15.6403 31.5412 19.6402 35.8159 24.5526 34.8909C28.6151 34.116 31.515 31.1038 32.4775 27.0666C33.615 22.2795 30.7025 16.8425 25.4151 16.9299Z" fill="white"/>
<path d="M8.50346 68.3009C7.84097 73.7129 7.01598 79.5749 4.72852 84.5495C2.70355 88.9366 9.16595 92.7988 11.2034 88.3742C14.1034 82.0622 15.1658 75.1503 16.0033 68.3009C16.5783 63.4638 9.07845 63.5138 8.50346 68.3009Z" fill="white"/>
<path d="M75.0649 76.6008C73.3899 72.1511 73.0649 67.7265 74.2899 63.1144C75.5399 58.4023 68.315 56.39 67.065 61.1021C65.5276 66.9141 65.7275 72.9761 67.84 78.6131C69.54 83.1252 76.7899 81.1629 75.0649 76.6008Z" fill="white"/>
<path d="M50.4648 30.3789C50.0773 28.3415 48.6273 26.5792 46.4148 26.8791C44.2399 27.1666 42.3274 29.3039 40.7024 30.6663C37.0025 33.7661 33.34 36.5408 28.6526 37.8907C26.0277 38.6407 23.3527 39.0156 20.6402 39.2156C18.7528 39.3531 16.8778 39.5656 15.3278 40.578C14.6778 40.5905 14.0278 40.8905 13.7529 41.4904C10.6404 48.2399 4.11551 52.6645 1.42805 59.6764C0.690563 61.5887 0.240571 63.801 1.36555 65.6509C2.59053 67.6757 5.04049 68.0007 6.96546 66.8133C8.70293 65.7384 10.1279 63.9385 11.3404 62.3262C11.3404 62.3262 11.3404 62.3137 11.3529 62.3137C11.0154 65.7384 10.4279 69.1381 9.72792 72.5128C8.62793 77.7624 7.06546 82.9494 6.20297 88.2365C5.85298 90.3988 5.90298 92.6361 7.30296 94.436C8.60294 96.0983 10.7029 96.8233 12.6904 96.0358C14.8278 95.1734 15.8653 93.1111 16.5778 91.0363C17.4028 88.6115 18.0528 86.1242 18.3653 83.5869C18.7403 80.5621 18.8278 77.7249 19.7028 74.7751C20.1152 73.3877 20.5402 71.9879 21.0652 70.638C21.0902 71.7504 21.0902 72.8753 21.0902 73.9877C21.0902 76.8749 21.0527 79.7622 21.1027 82.6495C21.1527 85.6117 21.3027 88.574 21.6902 91.5237C21.9777 93.6985 23.1902 96.0608 25.7402 95.7859C27.9901 95.5359 28.9401 93.0236 29.7026 91.2112C30.6651 88.8989 31.3526 86.4866 31.7901 84.0118C32.7025 78.8248 32.6775 73.5627 32.49 68.3257C32.2651 61.9012 31.8776 55.4018 33.165 49.0523C33.2275 48.7273 33.215 48.4398 33.1525 48.1774C34.49 46.8025 36.79 45.9775 38.34 45.0401C40.4024 43.7902 42.4149 42.4653 44.3774 41.0655C47.7898 38.5657 51.3522 35.0785 50.4648 30.3789ZM46.6648 32.9911C45.9648 35.3784 43.6899 36.9158 41.7774 38.2657C39.5649 39.8281 37.2775 41.2904 34.94 42.6528C32.915 43.8277 30.9276 44.7901 29.4901 46.7275C28.9776 47.4149 29.0651 48.1024 29.4401 48.6148C27.6026 58.389 29.3276 68.2632 28.7151 78.0998C28.4401 82.587 27.6776 87.3866 25.5027 91.3737C25.4277 91.0613 25.3402 90.7488 25.3277 90.6488C25.1527 89.2239 25.0527 87.774 24.9777 86.3492C24.8402 83.7744 24.8152 81.1996 24.8277 78.6248C24.8277 75.6376 24.9152 72.6378 24.8027 69.6631C24.7277 67.6007 24.2652 65.4634 22.3277 64.401C21.3652 63.876 20.3777 64.226 19.7653 65.0759C18.1903 67.2508 17.3403 69.8005 16.5403 72.3503C15.7153 74.9876 15.0653 77.5874 14.8778 80.3622C14.6778 83.4369 14.1653 86.2867 13.2279 89.2239C12.9154 90.2113 12.5779 91.7612 11.6279 92.3736C10.5779 93.0486 9.91541 91.8987 9.77792 90.9488C9.57792 89.5614 10.0279 88.099 10.3279 86.7491C10.6279 85.3742 10.9529 84.0119 11.2654 82.6495C11.9279 79.8122 12.6029 76.9874 13.2154 74.1377C14.4403 68.4132 15.3653 62.6012 15.4153 56.7266C15.4278 55.8267 14.9153 55.2643 14.2778 55.0268C14.1403 54.8268 13.9528 54.6393 13.7029 54.5018C12.9154 54.0394 11.5404 54.2394 11.1404 55.1768C9.86541 58.1765 8.04044 61.0013 5.60298 63.1636C5.35299 63.3886 4.8655 63.926 4.5655 63.7011C4.11551 63.3886 4.603 62.0387 4.7155 61.6887C5.14049 60.3263 5.79048 59.0639 6.54047 57.864C9.47792 53.1394 13.8153 49.4523 16.4403 44.5277C16.6153 44.4402 16.7903 44.3152 16.9403 44.1527C18.4278 42.6028 21.4777 43.0153 23.4277 42.7778C25.9902 42.4653 28.5276 42.0029 30.9776 41.1655C35.8275 39.5281 39.6774 36.4658 43.5649 33.2036C44.4899 32.4287 45.4148 31.6412 46.3898 30.9163C46.5148 30.8538 46.6023 30.8038 46.6898 30.7663C46.7898 31.0413 46.8398 31.3413 46.8523 31.6287C46.8773 32.0662 46.7898 32.5287 46.6648 32.9911Z" fill="#1E1E1E"/>
<path d="M32.0399 25.4415C30.7025 21.3543 27.3025 17.8671 22.9526 17.4546C22.8651 17.2922 22.7651 17.1297 22.6401 17.0047C21.8776 16.2297 20.7651 16.3297 19.9901 17.0047C18.5402 18.2671 16.8152 19.1545 15.4777 20.5544C14.1152 21.9668 13.0403 23.6916 12.4903 25.5915C11.3153 29.6411 12.7528 33.9907 16.2902 36.2656C19.5777 38.3904 23.8526 38.1779 27.1275 36.1406C30.6025 33.9783 33.4274 29.6786 32.0399 25.4415ZM28.215 29.5911C27.64 30.816 26.6775 31.9034 25.5776 32.6534C23.4651 34.1032 20.7901 34.5157 18.5027 33.2033C16.1652 31.8534 15.3527 29.1537 16.0902 26.6039C16.5027 25.1915 17.3652 23.9666 18.4027 22.9542C19.3527 22.0418 20.4651 21.3418 21.5151 20.5669C21.8651 20.9543 22.3776 21.2043 22.9401 21.2543C25.3401 21.4793 27.165 23.7041 28.14 25.7789C28.7525 27.0413 28.8275 28.3037 28.215 29.5911Z" fill="#1E1E1E"/>
<path d="M94.0517 66.4381C92.8142 66.7631 90.0517 69.0504 88.8518 67.6255C88.3393 67.0256 88.4143 65.8632 88.4143 65.1382C88.4018 63.7509 88.4143 62.3635 88.4143 60.9761C88.4143 58.8888 88.4143 56.8139 88.4143 54.7266C89.2518 56.064 90.0517 57.4264 91.0267 58.6263C92.1892 60.0512 93.9267 61.0011 95.7516 60.3636C97.6766 59.7012 98.1891 57.5764 98.1391 55.739C98.0391 51.4519 95.7516 47.4772 93.3017 44.1025C91.0392 40.9903 88.0768 38.253 84.5893 36.6031C82.5144 35.6157 80.4144 35.3657 78.1394 35.3032C75.8645 35.2408 73.5895 35.1783 71.302 35.1158C71.2145 35.0408 71.1021 34.9658 70.9896 34.9033C69.9396 34.3783 68.9521 33.7284 68.0021 33.0284C67.8771 32.9409 67.7521 32.841 67.6271 32.7535C67.6146 32.741 67.5146 32.666 67.4521 32.6285C67.3896 32.5785 67.2146 32.441 67.1896 32.4285C67.0646 32.3285 66.9521 32.2285 66.8271 32.141C66.3646 31.766 65.9146 31.3911 65.4521 31.0161C63.5647 29.4662 61.6272 27.9039 59.4022 26.8665C59.2647 26.804 59.1147 26.754 58.9772 26.7165C58.9022 26.6915 58.8272 26.654 58.7522 26.6415C56.2898 26.129 52.7773 26.4415 52.4523 29.5912C52.1899 32.1785 54.1398 34.0034 55.9148 35.5282C57.7023 37.0656 59.6397 38.403 61.5272 39.8029C63.4147 41.2153 64.9146 43.1151 66.4771 44.8524C66.5146 44.8899 66.5521 44.9149 66.5896 44.9524C66.7146 45.1024 66.8646 45.2399 67.0521 45.3524C68.6896 46.3648 69.9646 47.9022 70.5771 49.752C71.352 52.0268 70.8771 54.1142 70.2521 56.364C68.9021 61.1761 67.8021 66.2007 68.2021 71.2377C68.5396 75.6624 69.9521 79.9995 72.777 83.4492C74.002 84.9491 75.8395 86.3865 77.8894 86.0115C80.0394 85.624 80.7519 83.5742 80.7269 81.5994C80.6894 78.9246 79.9019 76.3373 79.8769 73.65C80.1144 74.075 80.3644 74.5 80.6269 74.9124C81.7644 76.6498 83.1894 78.2871 85.2393 78.8996C87.2268 79.487 89.8018 79.2871 91.8017 78.8246C95.6642 77.9372 98.4766 74.175 98.0516 70.1378C97.8266 68.1005 96.4141 65.8132 94.0517 66.4381ZM94.1892 72.0252C93.9517 72.9251 93.4142 73.7875 92.6767 74.35C91.8267 75.0124 90.7142 75.2374 89.6643 75.3249C88.5518 75.4124 87.1018 75.5999 86.0393 75.1749C84.0893 74.3875 83.1394 72.1252 82.3769 70.3128C81.7769 68.8879 81.3269 67.3881 81.0519 65.8632C80.8019 64.4508 80.9019 63.0384 80.7019 61.6385C80.4769 60.0637 78.3394 59.6137 77.3644 60.8011C77.102 61.1261 76.977 61.5385 76.9645 61.9635C76.9395 63.3884 77.0645 64.8133 77.2895 66.2257C76.6645 68.163 76.2895 70.1753 76.152 72.2251C75.9645 75.0624 76.602 77.6997 76.8895 80.487C76.9145 80.7119 77.102 81.9368 76.9895 82.3493C76.9895 82.0993 76.2395 81.6994 76.052 81.5244C75.227 80.7244 74.5895 79.687 74.0395 78.6746C72.802 76.4123 72.127 73.8125 71.927 71.2377C71.702 68.313 71.9895 65.3882 72.577 62.5135C73.152 59.6887 74.202 56.9389 74.6145 54.0767C75.2895 49.4021 73.077 44.8025 69.1771 42.2652C69.1521 42.2402 69.1396 42.2027 69.1021 42.1777C67.8271 40.7528 66.5896 39.2279 65.1646 37.953C63.7022 36.6531 62.0522 35.6157 60.4897 34.4408C59.1647 33.4409 57.7023 32.366 56.6398 31.0786C56.4773 30.8786 56.3148 30.6661 56.2273 30.4287C56.2273 30.4287 56.2023 30.3537 56.1773 30.2787C56.2648 30.2662 56.3648 30.2412 56.4523 30.2287C56.8773 30.1787 57.3023 30.2037 57.7148 30.2912C57.7398 30.2912 57.7523 30.2912 57.7773 30.2912C58.7272 30.7536 59.6397 31.3036 60.5022 31.916C60.7272 32.0785 60.9522 32.241 61.1772 32.416C61.2897 32.491 61.3897 32.5785 61.4897 32.6535C61.5272 32.6785 61.6272 32.766 61.6772 32.8035C62.1397 33.1784 62.6022 33.5534 63.0522 33.9284C64.8021 35.3657 66.5771 36.8156 68.5646 37.903C68.8396 38.4405 69.3646 38.853 70.1396 38.8779C72.5395 38.9404 74.927 39.0154 77.327 39.0779C79.3269 39.1279 81.2144 39.1404 83.0394 40.0653C86.6393 41.8777 89.4143 44.8025 91.4892 48.2397C92.5517 49.9895 93.6517 51.7894 94.1142 53.8142C94.3142 54.7016 94.4642 55.739 94.3017 56.664L94.2517 56.639C93.9892 56.214 93.5517 55.839 93.2517 55.4266C90.9017 52.1143 89.2143 48.4271 85.6893 46.1773C83.6394 44.8774 81.7644 48.1522 83.8018 49.4521C84.3268 49.7895 84.8018 50.1895 85.2393 50.602C84.8768 50.9019 84.6268 51.3644 84.6268 51.9893C84.6268 54.6516 84.6268 57.3139 84.6268 59.9637C84.6268 62.4135 84.3893 65.0008 84.8143 67.4255C85.1893 69.5379 86.6143 71.2752 88.7518 71.6752C89.8517 71.8752 90.9767 71.7752 92.0392 71.4127C92.5892 71.2252 93.1267 70.9878 93.6517 70.7253C93.8392 70.6378 94.0767 70.4878 94.3267 70.3628C94.4392 70.9253 94.2767 71.7127 94.1892 72.0252Z" fill="#1E1E1E"/>
<path d="M84.914 22.268C84.014 18.3183 80.5766 15.306 76.7266 14.4686C75.9766 14.3061 75.2142 14.5561 74.7517 15.1311C74.2642 14.8561 73.6517 14.8061 73.0142 15.1811C71.4142 16.1185 69.6642 17.0184 68.4143 18.4308C67.1018 19.9182 66.4393 21.768 66.3268 23.7428C66.2143 25.7802 66.8393 27.8175 67.7393 29.6173C68.6143 31.3672 69.8017 32.9921 71.6517 33.742C74.7642 35.0169 78.8641 34.1545 81.4891 32.1421C84.5015 29.8298 85.7515 25.9802 84.914 22.268ZM79.9766 28.4674C78.4516 30.0673 76.0891 30.7673 73.9142 30.4548C72.6892 30.2798 72.0642 29.6048 71.4517 28.5674C70.7642 27.4175 70.2017 26.1176 70.0767 24.7678C69.9642 23.4804 70.2142 22.118 71.0642 21.1181C72.0642 19.9307 73.6017 19.2307 74.9142 18.4558C75.1267 18.3308 75.2892 18.1808 75.4267 18.0183C75.5267 18.0683 75.6267 18.1058 75.7392 18.1308C77.9516 18.6058 79.9641 19.9432 80.9266 22.0805C81.8515 24.1553 81.5391 26.8176 79.9766 28.4674Z" fill="#1E1E1E"/>
<path d="M63.1144 13.8426C62.7519 13.5176 62.2895 13.2676 61.7895 13.2926C61.2645 13.3176 60.877 13.5176 60.4645 13.8426C57.927 15.8424 56.0646 18.5297 54.8396 21.5169C54.6646 21.9419 54.8146 22.6043 55.0271 22.9793C55.2521 23.3668 55.7021 23.7417 56.152 23.8542C56.627 23.9667 57.1645 23.9417 57.5895 23.6667C58.027 23.3793 58.252 23.0168 58.452 22.5293C58.3895 22.6668 58.2895 22.8918 58.4145 22.6168C58.452 22.5293 58.4895 22.4418 58.527 22.3669C58.602 22.2169 58.6645 22.0669 58.7395 21.9169C58.8895 21.6044 59.0645 21.2919 59.2395 20.9795C59.577 20.3795 59.977 19.8296 60.3645 19.2671C60.402 19.2171 60.4395 19.1671 60.477 19.1296C60.577 19.0046 60.6895 18.8671 60.802 18.7422C61.027 18.4797 61.2645 18.2172 61.5145 17.9672C62.0145 17.4548 62.5519 16.9673 63.1269 16.5298C63.4769 16.2549 63.6769 15.6174 63.6769 15.1925C63.6644 14.7175 63.4644 14.1675 63.1144 13.8426Z" fill="#00A99D"/>
<path d="M52.1773 23.3799C50.3773 19.8177 47.5149 16.8055 44.0899 14.8181C43.2399 14.3182 42.0025 14.5931 41.5275 15.4931C41.0525 16.393 41.29 17.5554 42.2025 18.0804C42.6025 18.3053 42.9775 18.5553 43.3649 18.8053C43.5399 18.9178 43.7024 19.0428 43.8774 19.1678C43.9649 19.2303 44.0524 19.3052 44.1524 19.3677C44.8399 19.9302 45.5024 20.5301 46.1149 21.1801C46.4149 21.4926 46.7024 21.83 46.9774 22.1675C47.0399 22.2425 47.1149 22.33 47.1774 22.405C47.2149 22.455 47.2524 22.505 47.2899 22.555C47.3774 22.6675 47.3399 22.6175 47.1899 22.4175C47.3274 22.5175 47.4649 22.78 47.5524 22.9174C48.0774 23.6674 48.5524 24.4548 48.9649 25.2797C49.4148 26.1672 50.7148 26.4921 51.5273 25.9547C52.4023 25.3922 52.6523 24.3298 52.1773 23.3799Z" fill="#1E1E1E"/>
<path d="M56.7773 43.7406C56.5773 43.5531 56.3773 43.3531 56.1898 43.1531C56.1773 43.1406 56.1148 43.0656 56.0398 43.0031C56.0273 42.9906 56.0398 42.9906 56.0148 42.9656C55.9648 42.9031 55.9148 42.8281 55.8773 42.7656C55.6023 42.3657 55.3773 41.9407 55.1773 41.5158C54.9898 41.0158 54.8523 40.5033 54.7523 39.9784C54.7148 39.6034 54.6773 39.2159 54.6898 38.841C54.7273 37.8536 53.8023 36.9036 52.8148 36.9411C51.7774 36.9911 50.9774 37.7786 50.9399 38.841C50.8399 41.6657 52.0399 44.5405 54.1148 46.4403C54.8398 47.1028 56.0523 47.2153 56.7648 46.4403C57.4398 45.7029 57.5523 44.453 56.7773 43.7406Z" fill="#1E1E1E"/>
<path d="M49.352 43.1781C49.2895 42.9281 49.177 42.7156 49.0145 42.5281C48.877 42.3281 48.702 42.1656 48.4895 42.0407C48.052 41.8032 47.527 41.6907 47.052 41.8532C46.902 41.9157 46.752 41.9782 46.602 42.0407C46.3145 42.2031 46.1021 42.4406 45.9271 42.7156C45.5521 43.4905 45.2396 44.303 45.0021 45.1404C44.9271 45.3904 44.9146 45.6404 44.9646 45.8903C44.9771 46.1403 45.0521 46.3778 45.1896 46.5903C45.3021 46.8153 45.4646 46.9902 45.6771 47.1277C45.8521 47.2902 46.0646 47.4027 46.3145 47.4652C46.477 47.4902 46.652 47.5152 46.8145 47.5277C47.152 47.5277 47.4645 47.4402 47.7645 47.2652C48.177 47.0027 48.4895 46.6153 48.627 46.1278C48.752 45.6779 48.902 45.2404 49.077 44.8154C49.1145 44.7404 49.1395 44.6779 49.177 44.6029C49.3145 44.3905 49.3895 44.153 49.402 43.903C49.452 43.6905 49.4395 43.428 49.352 43.1781Z" fill="#00A99D"/>
<path d="M98.2267 96.2109C73.3271 95.086 48.4025 94.7485 23.4779 95.211C16.3905 95.3484 9.30309 95.5359 2.21571 95.7984C-0.134255 95.8859 -0.121755 99.6731 2.22821 99.5856C27.1278 98.6732 52.0649 98.5482 76.977 99.2231C84.0644 99.4106 91.1518 99.6731 98.2391 99.9981C100.602 100.098 100.577 96.3109 98.2267 96.2109Z" fill="#1E1E1E"/>
<path d="M83.2269 90.4991C79.3644 90.0742 75.4645 89.9492 71.5771 90.1242C70.6021 90.1617 69.6521 90.9616 69.7021 92.024C69.7521 93.0114 70.5271 93.9613 71.5771 93.9238C75.4645 93.7489 79.3519 93.8864 83.2269 94.2988C84.2019 94.4113 85.1393 93.3489 85.1018 92.399C85.0518 91.2866 84.2644 90.6241 83.2269 90.4991Z" fill="#00A99D"/>
<path d="M36.9277 72.1384C35.8278 72.1884 35.1528 72.9758 35.0528 74.0383C34.9028 75.6006 34.7278 77.1505 34.5278 78.7004C34.5153 78.8004 34.4903 78.9753 34.4903 78.9878C34.4653 79.1753 34.4403 79.3628 34.4153 79.5503C34.3653 79.9253 34.3028 80.3002 34.2528 80.6752C34.1278 81.4876 34.0028 82.3001 33.8653 83.1C33.7028 84.0749 34.1153 85.1873 35.1778 85.4248C36.0903 85.6373 37.3027 85.1498 37.4777 84.0999C38.0527 80.7627 38.4902 77.4005 38.8027 74.0258C38.8902 73.0383 37.8777 72.1009 36.9277 72.1384Z" fill="#FBB03B"/>
<path d="M13.5524 18.567C13.5524 18.1045 13.3524 17.5421 13.0024 17.2296C12.6399 16.8921 12.1775 16.6547 11.6775 16.6797C11.215 16.7047 10.665 16.8546 10.3525 17.2296C9.015 18.8795 7.86502 20.6418 6.97754 22.5667C6.76504 23.0416 6.65254 23.5041 6.79004 24.029C6.91504 24.4665 7.24003 24.9415 7.65253 25.1664C8.09002 25.4039 8.61501 25.5164 9.09 25.3539C9.5275 25.2039 10.0025 24.929 10.215 24.479C10.915 22.9541 11.79 21.5043 12.8024 20.1669C12.8774 20.0794 12.9399 19.9919 13.0149 19.9044C13.3274 19.5044 13.5524 19.1045 13.5524 18.567Z" fill="#1E1E1E"/>
<path d="M94.0389 41.1528C93.8889 40.9533 93.9139 41.0281 94.0389 41.1528V41.1528Z" fill="#1E1E1E"/>
<path d="M99.2894 42.6153C97.6144 39.0781 94.9519 36.0783 91.7395 33.891C90.927 33.341 89.627 33.7035 89.177 34.5659C88.677 35.5159 88.977 36.5658 89.852 37.1532C90.027 37.2782 90.202 37.3907 90.377 37.5282C90.4645 37.5907 90.552 37.6532 90.6395 37.7157C90.652 37.7282 90.6645 37.7282 90.677 37.7407C90.652 37.7282 90.6395 37.7157 90.6145 37.6907C90.6395 37.7157 90.6645 37.7282 90.6895 37.7532C90.7645 37.8157 90.777 37.8157 90.7395 37.7907C91.027 38.0407 91.327 38.2656 91.6145 38.5281C92.2645 39.1156 92.8895 39.753 93.452 40.4155C93.5895 40.5779 93.727 40.7404 93.8645 40.9154C93.927 40.9904 93.9895 41.0904 94.0645 41.1654C94.052 41.1529 94.052 41.1529 94.052 41.1404C94.302 41.4904 94.552 41.8403 94.7895 42.2028C95.2644 42.9402 95.6894 43.7152 96.0769 44.5151C96.5019 45.415 97.8394 45.715 98.6394 45.1901C99.5269 44.6151 99.7394 43.5777 99.2894 42.6153Z" fill="#1E1E1E"/>
<path d="M90.677 37.7533C90.7018 37.778 90.7142 37.7904 90.7266 37.8028C90.7142 37.7904 90.7018 37.778 90.677 37.7533C90.677 37.7657 90.677 37.7533 90.677 37.7533Z" fill="#1E1E1E"/>
<path d="M42.0277 0.644165C43.1527 1.29411 44.2152 1.4066 45.4526 1.08163C46.5026 0.806651 47.4776 0.619167 48.5026 1.16912C48.8901 1.3816 49.2401 1.70658 49.5526 2.00655C49.6651 1.95655 49.7651 1.89406 49.8151 1.85656C50.4901 1.3691 51.3275 0.919142 52.14 0.756655C53.1775 0.531674 54.2025 0.831649 55.015 1.48159C55.3525 1.74407 55.565 2.14404 55.89 2.40652C56.39 2.80648 56.49 2.69399 57.1274 2.41902C58.2524 1.93156 59.1899 1.24411 60.4649 1.14412C61.5524 1.05663 62.5524 1.3941 63.5148 1.86906C64.4523 2.31902 64.8023 2.81898 65.7023 2.21903C66.5773 1.64408 67.3773 1.08163 68.4773 1.06913C69.5522 1.04413 70.4522 1.58159 71.2522 2.21903C71.5272 2.43151 71.8397 2.83148 72.1647 2.95647C72.8397 3.19395 73.5147 2.71899 74.0897 2.40652C76.2896 1.23162 78.2771 0.444181 80.6521 1.69408C81.1895 1.96905 82.1645 2.93147 82.802 2.85648C83.5645 2.75649 84.3895 1.61908 85.077 1.25661C86.1645 0.69416 87.3645 0.656664 88.4894 1.15662C88.9394 1.3566 89.4519 1.91906 89.9019 1.99405C90.4394 2.08154 91.1394 1.59408 91.5519 1.30661C92.5769 0.594169 93.3893 -0.293257 94.7643 0.0942107C96.1518 0.469179 97.4518 1.88156 98.5768 2.71899C99.4018 3.34394 99.8268 4.34385 99.2643 5.30627C98.8018 6.10621 97.4518 6.60616 96.6268 5.98122C96.0643 5.55625 95.4893 5.11879 94.9268 4.69383C94.7268 4.54384 94.4393 4.38135 94.2518 4.19387C93.4644 4.75632 91.9519 5.39377 91.5769 5.51876C90.4894 5.89372 89.3769 5.91872 88.3144 5.43126C87.327 4.9813 87.1894 4.33136 86.277 5.0063C84.502 6.29369 82.8895 7.15612 80.7021 6.1312C79.9271 5.76873 79.0396 4.85631 78.1771 4.78132C77.0271 4.66883 75.6396 5.94372 74.5897 6.34369C73.5272 6.75615 72.3897 6.94364 71.2772 6.64366C70.7522 6.50617 70.3022 6.26869 69.8647 5.96872C69.5022 5.73124 69.0023 5.0313 68.5773 4.93131C68.2148 4.84381 67.0148 5.89372 66.4523 6.09371C65.4773 6.43118 64.4773 6.40618 63.5023 6.05621C62.6899 5.76874 61.8024 4.9688 60.9524 4.88131C59.9274 4.76882 58.5399 6.00622 57.5399 6.28119C56.49 6.56867 55.3275 6.56867 54.3525 6.03121C53.9525 5.81873 53.6025 5.54375 53.29 5.21878C53.09 5.0188 52.9275 4.76882 52.7275 4.56884C52.7025 4.54384 52.7025 4.53134 52.69 4.51884C51.8525 4.69382 51.0775 5.55625 50.1901 5.76874C49.1026 6.01871 47.8901 5.71874 47.0901 4.93131C47.0526 4.89381 46.8276 4.74382 46.7276 4.64383C46.5776 4.69383 46.2776 4.76882 46.2151 4.78132C45.5526 4.9563 44.8651 5.0438 44.1902 5.0438C42.7152 5.0438 41.3402 4.61883 40.0777 3.88139C37.9403 2.68149 39.8777 -0.593232 42.0277 0.644165Z" fill="#FBB03B"/>
<path d="M1.3906 5.88081C2.81557 5.65583 4.22805 5.43085 5.65303 5.21837C7.01551 5.01838 8.34048 5.34336 9.62796 5.15587C10.8529 4.98089 11.6279 4.93089 12.7529 5.58084C13.7529 6.15579 13.7904 6.0683 14.8904 5.59334C15.8029 5.19337 16.7029 4.8434 17.7278 4.8934C18.3278 4.91839 18.9028 5.11838 19.4403 5.38085C19.5403 5.43085 20.1528 5.68083 20.1028 5.75582C20.4778 5.68083 21.0528 5.19337 21.3903 5.05588C21.8403 4.8559 22.2153 4.73091 22.7153 4.69341C23.3527 4.64342 23.9152 4.7809 24.4902 5.03088C24.9152 5.21837 25.3902 5.68083 25.8527 5.71833C26.9902 5.79332 28.1527 5.01838 29.3526 5.08088C30.5526 5.13088 31.4651 6.0308 32.5901 6.14329C33.6776 6.25578 34.7651 5.49334 35.865 5.46835C37.065 5.44335 37.965 5.95581 39.0025 6.44327C39.99 6.90573 40.7525 6.21828 41.8274 6.21828C42.9399 6.20578 43.8649 6.73074 44.7649 7.31819C45.0024 7.49318 45.2524 7.65566 45.5149 7.79315C45.4274 8.05563 45.5149 8.04313 45.7524 7.74316C46.1399 7.66816 46.5649 7.2057 47.0274 7.11821C48.4148 6.84323 49.5648 7.58067 50.5898 8.4181C52.5023 9.98047 49.7648 12.6427 47.8648 11.0929C48.3023 10.5679 48.3273 10.4929 47.9523 10.8554C47.7273 11.0679 47.4773 11.2304 47.1899 11.3429C46.7649 11.5428 46.2899 11.6553 45.8149 11.6678C44.7024 11.6803 43.7399 11.1679 42.8274 10.5804C42.5524 10.3929 42.2024 10.043 41.8524 10.0055C41.4774 9.96797 40.8775 10.3304 40.4775 10.4054C39.415 10.6179 38.4525 10.3804 37.5025 9.93047C36.14 9.29303 35.99 9.26803 34.5151 9.66799C33.4526 9.95547 32.4276 10.043 31.3651 9.71799C30.3151 9.39302 29.5901 8.74307 28.4652 8.98055C27.3152 9.23053 26.3152 9.68049 25.1152 9.45551C24.6402 9.36802 24.2027 9.20553 23.7777 8.98055C23.1027 8.63058 23.2527 8.50559 22.6653 8.66808C21.8403 8.89306 21.2278 9.49301 20.3153 9.5555C19.6903 9.593 19.1528 9.45551 18.5903 9.21803C18.2903 9.09304 17.9153 8.74307 17.6153 8.69308C16.8903 8.58059 15.9154 9.31802 15.2779 9.5555C14.4779 9.83048 13.6154 9.98047 12.7654 9.80548C12.1654 9.68049 11.7404 9.31802 11.1904 9.10554C10.2905 8.75557 11.2029 8.83056 10.1655 8.99305C8.86548 9.20553 7.6655 8.75557 6.37802 8.91806C5.05304 9.09304 3.74056 9.33052 2.41558 9.53051C-0.00937938 9.91797 -1.04686 6.26828 1.3906 5.88081Z" fill="#1E1E1E"/>
</svg>
