<svg width="673" height="532" viewBox="0 0 673 532" fill="none" xmlns="http://www.w3.org/2000/svg">
<path d="M14.4904 146.266L19.3392 144.207C21.0563 143.476 22.7995 142.716 24.501 142.002C26.0373 141.342 28.8125 140.79 28.2908 138.478C28.0806 137.385 27.2334 136.899 26.473 136.276C25.9076 135.833 25.3299 135.348 24.727 134.913C23.4131 133.879 22.0564 132.858 20.6808 131.913C18.0152 130.025 15.129 128.47 12.0854 127.282C11.856 127.218 11.6159 127.202 11.3795 127.234C11.1432 127.265 10.9155 127.345 10.7101 127.467C10.5047 127.589 10.3257 127.751 10.1842 127.944C10.0427 128.137 9.94137 128.356 9.88638 128.588C9.8701 128.681 9.86971 128.776 9.88522 128.869C9.72916 129.149 9.63327 129.458 9.6036 129.776C9.12047 135.028 8.57904 140.309 8.1234 145.575C8.11518 145.996 8.2445 146.408 8.4918 146.747C8.73911 147.087 9.09081 147.335 9.49328 147.455C11.2493 148.013 12.9111 146.927 14.4904 146.266ZM13.0713 131.801C14.9776 132.693 16.8069 133.741 18.5407 134.934C19.7224 135.73 20.8409 136.572 21.9653 137.43C22.3862 137.748 22.8074 138.077 23.2659 138.389L21.7352 139.053L17.7001 140.772L13.7973 142.416C13.1854 142.661 12.5854 142.938 11.9735 143.184C12.3391 139.378 12.6838 135.596 13.0713 131.801Z" fill="#F1F1F1"/>
<path d="M574.381 525.566L579.193 527.718C580.899 528.479 582.643 529.239 584.326 530C585.856 530.676 588.151 532.334 589.49 530.38C590.148 529.483 589.926 528.532 589.865 527.551C589.804 526.836 589.766 526.083 589.674 525.346C589.536 523.68 589.36 521.992 589.115 520.342C588.682 517.106 587.855 513.934 586.652 510.897C586.542 510.685 586.39 510.498 586.206 510.347C586.022 510.196 585.808 510.083 585.579 510.015C585.35 509.948 585.109 509.927 584.871 509.954C584.633 509.982 584.404 510.056 584.196 510.174C584.117 510.226 584.047 510.29 583.989 510.364C583.678 510.44 583.386 510.58 583.133 510.775C578.956 513.992 574.717 517.186 570.548 520.433C570.234 520.713 570.021 521.088 569.94 521.5C569.86 521.911 569.918 522.338 570.104 522.714C570.892 524.38 572.82 524.859 574.381 525.566ZM584.012 514.691C584.657 516.695 585.136 518.747 585.443 520.828C585.665 522.235 585.81 523.627 585.948 525.034C586.002 525.559 586.047 526.091 586.132 526.638L584.602 525.969L580.593 524.182L576.729 522.441C576.133 522.159 575.521 521.908 574.924 521.627C577.961 519.307 580.968 516.988 584.012 514.691Z" fill="#F1F1F1"/>
<path d="M364.342 414.349L365.014 419.573C365.254 421.423 365.515 423.307 365.743 425.138C365.963 426.795 365.745 429.616 368.112 429.737C369.222 429.83 369.918 429.145 370.724 428.581C371.302 428.156 371.925 427.731 372.508 427.268C373.858 426.282 375.208 425.251 376.49 424.181C379.028 422.124 381.305 419.765 383.272 417.155C383.395 416.951 383.475 416.725 383.509 416.488C383.542 416.252 383.527 416.012 383.465 415.781C383.403 415.55 383.295 415.334 383.148 415.146C383 414.958 382.817 414.801 382.608 414.685C382.523 414.645 382.431 414.619 382.338 414.609C382.11 414.383 381.839 414.207 381.54 414.093C376.614 412.211 371.675 410.264 366.727 408.405C366.324 408.283 365.892 408.297 365.499 408.443C365.105 408.59 364.771 408.862 364.547 409.217C363.535 410.757 364.132 412.65 364.342 414.349ZM378.654 416.885C377.279 418.48 375.776 419.958 374.159 421.306C373.073 422.229 371.96 423.078 370.83 423.93C370.41 424.249 369.98 424.566 369.556 424.923L369.329 423.27L368.764 418.921L368.236 414.72C368.166 414.065 368.061 413.412 367.99 412.757C371.555 414.136 375.104 415.488 378.654 416.885Z" fill="#F1F1F1"/>
<path d="M87.9511 332.002L92.7632 334.154C94.4692 334.914 96.2134 335.675 97.8965 336.435C99.4266 337.112 101.722 338.77 103.06 336.815C103.718 335.918 103.497 334.967 103.435 333.986C103.374 333.272 103.336 332.519 103.244 331.781C103.107 330.116 102.93 328.427 102.686 326.777C102.252 323.541 101.425 320.37 100.222 317.332C100.112 317.121 99.9608 316.934 99.7764 316.782C99.592 316.631 99.3788 316.518 99.1494 316.451C98.92 316.383 98.6791 316.362 98.4415 316.39C98.2039 316.417 97.9743 316.492 97.7665 316.61C97.6873 316.661 97.6174 316.725 97.5599 316.8C97.2486 316.876 96.9568 317.016 96.7032 317.21C92.5261 320.427 88.2879 323.621 84.1185 326.868C83.8044 327.149 83.591 327.523 83.5109 327.935C83.4308 328.347 83.4883 328.773 83.6747 329.15C84.4627 330.815 86.3904 331.294 87.9511 332.002ZM97.5829 321.127C98.2277 323.13 98.7063 325.183 99.0136 327.264C99.2355 328.671 99.3807 330.062 99.5185 331.469C99.572 331.994 99.6179 332.526 99.7021 333.074L98.172 332.405L94.1632 330.617L90.2998 328.876C89.7031 328.595 89.0911 328.344 88.4944 328.062C91.5316 325.743 94.5381 323.423 97.5829 321.127Z" fill="#F1F1F1"/>
<path d="M657.234 234.552L662.046 236.704C663.752 237.464 665.496 238.225 667.179 238.985C668.709 239.662 671.005 241.32 672.343 239.365C673.001 238.468 672.78 237.518 672.718 236.537C672.657 235.822 672.619 235.069 672.527 234.331C672.389 232.666 672.213 230.978 671.969 229.327C671.535 226.091 670.708 222.92 669.505 219.882C669.395 219.671 669.244 219.484 669.059 219.333C668.875 219.181 668.662 219.068 668.432 219.001C668.203 218.933 667.962 218.913 667.724 218.94C667.487 218.967 667.257 219.042 667.049 219.16C666.97 219.211 666.9 219.275 666.843 219.35C666.532 219.426 666.24 219.566 665.986 219.761C661.809 222.977 657.571 226.171 653.401 229.419C653.087 229.699 652.874 230.073 652.794 230.485C652.714 230.897 652.771 231.324 652.958 231.7C653.746 233.365 655.673 233.844 657.234 234.552ZM666.866 223.677C667.511 225.68 667.989 227.733 668.297 229.814C668.518 231.221 668.664 232.613 668.801 234.019C668.855 234.544 668.901 235.076 668.985 235.624L667.455 234.955L663.446 233.168L659.583 231.426C658.986 231.145 658.374 230.894 657.777 230.612C660.815 228.293 663.821 225.974 666.866 223.677Z" fill="#F1F1F1"/>
<path d="M135.153 506.58L136.671 511.427C137.21 513.143 137.749 514.895 138.25 516.619C138.713 518.129 138.941 520.843 141.286 520.608C142.387 520.52 142.964 519.765 143.677 519.097C144.178 518.606 144.717 518.107 145.195 517.579C146.364 516.421 147.533 515.233 148.619 514.023C150.785 511.671 152.651 509.076 154.175 506.294C154.263 506.081 154.306 505.854 154.302 505.625C154.297 505.396 154.245 505.171 154.147 504.962C154.05 504.753 153.911 504.565 153.737 504.41C153.563 504.254 153.358 504.134 153.135 504.057C153.042 504.04 152.947 504.04 152.854 504.057C152.596 503.876 152.301 503.751 151.989 503.691C146.858 502.671 141.711 501.623 136.542 500.611C136.133 500.564 135.718 500.646 135.36 500.844C135.002 501.042 134.72 501.346 134.554 501.711C133.795 503.302 134.675 505.003 135.153 506.58ZM149.613 506.741C148.515 508.47 147.271 510.109 145.894 511.64C144.975 512.688 144.011 513.671 143.04 514.653C142.675 515.02 142.281 515.387 141.947 515.797C141.787 515.291 141.635 514.785 141.476 514.279L140.239 510.246C139.837 508.934 139.48 507.65 139.055 506.338C138.88 505.729 138.675 505.128 138.501 504.519C142.205 505.253 145.901 505.979 149.613 506.741Z" fill="#F1F1F1"/>
<path d="M330.26 215.565L331.778 220.412C332.317 222.128 332.855 223.881 333.356 225.604C333.819 227.115 334.047 229.828 336.393 229.593C337.493 229.505 338.07 228.75 338.784 228.083C339.285 227.591 339.824 227.093 340.302 226.565C341.471 225.406 342.639 224.218 343.725 223.008C345.892 220.657 347.757 218.062 349.281 215.279C349.37 215.067 349.413 214.84 349.408 214.611C349.403 214.382 349.351 214.156 349.254 213.947C349.157 213.739 349.017 213.551 348.843 213.395C348.669 213.24 348.464 213.12 348.241 213.043C348.148 213.026 348.053 213.026 347.96 213.043C347.703 212.862 347.407 212.737 347.095 212.676C341.964 211.657 336.818 210.608 331.649 209.596C331.239 209.55 330.825 209.632 330.467 209.83C330.109 210.028 329.826 210.332 329.66 210.696C328.901 212.288 329.781 213.989 330.26 215.565ZM344.719 215.727C343.621 217.456 342.377 219.094 341 220.625C340.082 221.674 339.118 222.656 338.146 223.639C337.782 224.006 337.387 224.372 337.053 224.783C336.894 224.277 336.742 223.771 336.582 223.265L335.345 219.232C334.943 217.919 334.586 216.636 334.161 215.323C333.986 214.715 333.782 214.113 333.607 213.505C337.311 214.238 341.008 214.964 344.719 215.727Z" fill="#F1F1F1"/>
<path d="M494.63 5.98165L496.148 10.8288C496.687 12.5447 497.226 14.2973 497.727 16.0205C498.19 17.5311 498.418 20.2443 500.763 20.0096C501.864 19.9216 502.441 19.1664 503.154 18.4991C503.655 18.0077 504.194 17.5091 504.672 16.9811C505.841 15.8225 507.01 14.6346 508.095 13.4246C510.262 11.0733 512.128 8.47824 513.652 5.69567C513.74 5.48328 513.783 5.25585 513.778 5.02697C513.774 4.79808 513.721 4.57246 513.624 4.36363C513.527 4.15481 513.387 3.96706 513.213 3.81164C513.039 3.65621 512.835 3.53632 512.612 3.45912C512.519 3.44224 512.424 3.44224 512.331 3.45912C512.073 3.27824 511.778 3.15318 511.466 3.09247C506.334 2.07319 501.188 1.02456 496.019 0.0126094C495.609 -0.0336754 495.195 0.0481911 494.837 0.246174C494.479 0.444156 494.197 0.747817 494.03 1.11256C493.271 2.70381 494.152 4.40506 494.63 5.98165ZM509.09 6.14298C507.992 7.87198 506.748 9.51037 505.37 11.0414C504.452 12.09 503.488 13.0726 502.516 14.0553C502.152 14.4219 501.757 14.7886 501.423 15.1992C501.264 14.6932 501.112 14.1873 500.953 13.6813L499.716 9.64814C499.313 8.33554 498.957 7.05228 498.531 5.73967C498.357 5.13104 498.152 4.52973 497.977 3.92109C501.682 4.65439 505.378 5.38035 509.09 6.14298Z" fill="#F1F1F1"/>
<path d="M233.921 33.7803L238.463 36.0633C240.072 36.8704 241.707 37.7031 243.295 38.5425C244.703 39.2613 246.812 40.9856 248.275 39.1394C248.978 38.2884 248.836 37.349 248.853 36.3727C248.848 35.6714 248.864 34.9378 248.817 34.2274C248.798 32.5825 248.757 30.9174 248.642 29.2968C248.458 26.1062 247.89 22.9621 246.95 19.9327C246.859 19.7215 246.725 19.5322 246.557 19.3764C246.39 19.2205 246.191 19.1011 245.973 19.0255C245.755 18.9499 245.523 18.9195 245.29 18.9362C245.058 18.9529 244.829 19.0164 244.618 19.1227C244.542 19.1776 244.475 19.246 244.423 19.3243C244.113 19.3834 243.818 19.5081 243.557 19.69C239.254 22.6626 234.92 25.6257 230.596 28.6306C230.278 28.8924 230.048 29.2466 229.941 29.6412C229.835 30.0358 229.856 30.4498 230.003 30.8228C230.619 32.4745 232.455 33.0265 233.921 33.7803ZM244.098 23.5172C244.577 25.5079 244.89 27.5404 245.032 29.5939C245.147 30.9824 245.183 32.3578 245.214 33.7386C245.224 34.2551 245.213 34.7933 245.276 35.3187C244.801 35.081 244.332 34.838 243.857 34.6003L240.096 32.682C238.872 32.0574 237.701 31.4206 236.462 30.8124C235.903 30.5142 235.328 30.2429 234.769 29.9447C237.873 27.7971 240.967 25.6498 244.098 23.5172Z" fill="#F1F1F1"/>
</svg>
