<svg width="358" height="375" viewBox="0 0 358 375" fill="none" xmlns="http://www.w3.org/2000/svg">
<path d="M347.536 304.765C333.077 337.639 294.449 319.546 270.37 313.911C243.19 307.063 215.297 300.577 187.894 294.31L110.768 276.092C85.6089 270.084 55.8535 268.418 39.4478 245.924C32.387 236.988 31.2251 220.386 39.4208 211.178C91.9887 150.924 144.875 91.393 197.233 31.6728C200.411 28.0447 204.327 25.1384 208.718 23.1486C209.317 21.8688 210.158 20.7168 211.193 19.7556C222.41 10.4318 241.463 11.0371 249.504 23.5254C276.028 65.21 297.378 109.974 313.081 156.827C321.439 180.524 328.856 205.143 335.762 229.547C339.245 240.231 341.981 251.217 344.974 261.682C348.725 276.056 354.632 289.541 347.536 304.765Z" fill="#F9F9F9"/>
<path d="M231.355 254.413L234.956 256.025C236.232 256.595 237.537 257.164 238.797 257.734C239.942 258.241 241.659 259.483 242.661 258.019C243.153 257.347 242.988 256.635 242.942 255.9C242.896 255.364 242.867 254.8 242.799 254.248C242.696 253 242.564 251.735 242.381 250.499C242.056 248.075 241.437 245.699 240.537 243.424C240.455 243.266 240.342 243.126 240.204 243.012C240.066 242.899 239.906 242.814 239.734 242.764C239.563 242.713 239.382 242.698 239.205 242.718C239.027 242.738 238.855 242.795 238.7 242.883C238.64 242.921 238.588 242.969 238.545 243.025C238.312 243.082 238.094 243.187 237.904 243.333C234.778 245.742 231.607 248.135 228.487 250.568C228.252 250.777 228.092 251.058 228.032 251.367C227.972 251.675 228.015 251.995 228.155 252.277C228.744 253.524 230.187 253.883 231.355 254.413ZM238.562 246.267C239.045 247.767 239.403 249.305 239.633 250.864C239.799 251.918 239.908 252.96 240.011 254.014C240.051 254.407 240.085 254.806 240.148 255.216L239.003 254.715L236.003 253.376L233.112 252.071C232.666 251.861 232.208 251.673 231.761 251.462C234.034 249.724 236.284 247.987 238.562 246.267Z" fill="#DCDCDC"/>
<path d="M335.399 25.5612L339.306 25.3003C340.685 25.1948 342.099 25.0949 343.479 25.0228C344.7 24.9395 346.784 25.2226 346.989 23.5018C347.102 22.697 346.625 22.1641 346.239 21.548C345.944 21.1094 345.671 20.6432 345.336 20.1991C344.655 19.1722 343.945 18.1453 343.207 17.1739C341.782 15.2403 340.124 13.4827 338.266 11.9395C338.121 11.8401 337.956 11.7707 337.781 11.7355C337.607 11.7003 337.428 11.7001 337.254 11.7349C337.079 11.7697 336.914 11.8387 336.768 11.9378C336.622 12.0369 336.498 12.164 336.404 12.3114C336.369 12.3714 336.346 12.4373 336.336 12.5057C336.157 12.6592 336.013 12.8485 335.915 13.0608C334.32 16.5633 332.69 20.0603 331.089 23.6073C330.985 23.8922 330.978 24.2023 331.069 24.4913C331.16 24.7804 331.344 25.0329 331.594 25.2115C332.696 25.9886 334.121 25.6445 335.399 25.5612ZM337.863 15.2644C338.991 16.3328 340.028 17.4893 340.964 18.7226C341.605 19.5497 342.19 20.3878 342.781 21.2538C342.997 21.5757 343.218 21.9032 343.462 22.2252L342.241 22.3084L338.988 22.536L335.842 22.7358C335.359 22.7358 334.865 22.8135 334.382 22.8357C335.535 20.3101 336.682 17.7901 337.863 15.2644Z" fill="#DCDCDC"/>
<path d="M254.676 278.19L255.812 281.821C256.216 283.106 256.619 284.419 256.994 285.71C257.34 286.842 257.511 288.874 259.266 288.699C260.089 288.633 260.521 288.067 261.055 287.567C261.43 287.199 261.833 286.825 262.191 286.43C263.066 285.562 263.94 284.672 264.753 283.766C266.374 282.004 267.77 280.06 268.91 277.976C268.977 277.817 269.009 277.646 269.005 277.475C269.002 277.303 268.963 277.134 268.89 276.978C268.817 276.822 268.713 276.681 268.583 276.565C268.452 276.448 268.299 276.358 268.132 276.3C268.063 276.288 267.992 276.288 267.922 276.3C267.729 276.165 267.508 276.071 267.275 276.026C263.435 275.262 259.584 274.477 255.716 273.719C255.409 273.684 255.099 273.745 254.831 273.894C254.564 274.042 254.352 274.269 254.228 274.543C253.66 275.735 254.318 277.009 254.676 278.19ZM265.497 278.311C264.675 279.606 263.744 280.833 262.714 281.98C262.026 282.766 261.305 283.502 260.578 284.238C260.305 284.513 260.01 284.787 259.76 285.095C259.641 284.716 259.527 284.337 259.408 283.958L258.482 280.937C258.181 279.953 257.914 278.992 257.596 278.009C257.465 277.553 257.312 277.102 257.181 276.647C259.953 277.196 262.719 277.74 265.497 278.311Z" fill="#FBB03B"/>
</svg>
