<svg width="124" height="96" viewBox="0 0 124 96" fill="none" xmlns="http://www.w3.org/2000/svg">
<path d="M12.1791 40.8357L13.6119 2.14917L70.2089 3.58201L68.7761 16.4775L106.03 15.0447L108.179 31.5223V51.582L106.03 82.3879L89.5522 84.5372V93.8506H29.3731V69.4924L13.6119 66.6267L12.1791 40.8357Z" fill="white"/>
<path d="M88.0897 43.8992C88.1135 43.7216 88.0961 43.5411 88.0385 43.3712C87.981 43.2013 87.8849 43.0466 87.7576 42.9186C87.6303 42.7907 87.4751 42.6929 87.3037 42.6327C87.1324 42.5725 86.9493 42.5515 86.7685 42.5712H86.7123C72.3851 41.8334 58.0205 42.9032 43.684 42.2945H43.431C43.2309 42.0951 42.9766 41.9569 42.6986 41.8962C42.4206 41.8355 42.1307 41.8549 41.8637 41.9522C41.5967 42.0496 41.3638 42.2206 41.1931 42.4449C41.0223 42.6692 40.9209 42.9372 40.901 43.2167C40.4595 50.2806 40.4595 57.3645 40.901 64.4284C40.9173 64.6201 40.9681 64.8075 41.051 64.9817C41.1301 65.2541 41.2993 65.4928 41.5318 65.6599C41.7644 65.8269 42.0469 65.9128 42.3347 65.904L86.1594 65.9778C86.3594 66.0492 86.5745 66.0702 86.7849 66.0388C86.9953 66.0074 87.1944 65.9247 87.364 65.7981C87.5335 65.6716 87.6682 65.5053 87.7557 65.3144C87.8432 65.1234 87.8807 64.914 87.8648 64.7051C87.3597 57.7755 87.4349 50.8167 88.0897 43.8992Z" fill="#00A99D"/>
<path d="M83.77 85.0127C83.7673 84.6702 83.6641 84.3357 83.473 84.0494C83.2818 83.7631 83.0108 83.5372 82.6925 83.3988C82.272 83.2525 81.8255 83.1928 81.3806 83.2235C80.6622 83.2235 79.9407 83.2235 79.2161 83.2235H79.0755C78.8563 83.0724 78.5934 82.9948 78.3259 83.0022C77.9546 83.007 77.6 83.1542 77.3374 83.4127C77.0749 83.6711 76.9252 84.0201 76.9204 84.3856C76.9204 85.7228 76.9204 87.06 76.8267 88.3973C76.829 88.7637 76.977 89.1146 77.239 89.3749C77.3674 89.506 77.5219 89.6095 77.6927 89.6794C77.8636 89.7492 78.0473 89.7837 78.2322 89.7807C78.5158 89.7517 78.7954 89.693 79.0662 89.6055L79.544 89.3934L79.7408 89.338C80.0126 89.4856 80.2749 89.6516 80.5373 89.8084C81.0251 90.1057 81.5773 90.2857 82.149 90.334C82.4592 90.335 82.7604 90.2309 83.0017 90.0389C83.2462 89.8623 83.4216 89.6083 83.4983 89.3195C83.6468 88.5496 83.7345 87.7695 83.7607 86.9862C83.7981 86.3683 83.8169 85.686 83.77 85.0127Z" fill="#00A99D"/>
<path d="M123.481 15.2169C121.411 16.3531 119.486 17.7277 117.747 19.3117C117.334 19.6898 116.959 19.9665 116.875 20.5291C116.788 21.1403 116.741 21.7564 116.735 22.3736C116.686 23.6041 116.72 24.8365 116.838 26.0626C116.854 26.2548 116.822 26.4481 116.744 26.625C116.665 26.8019 116.543 26.9569 116.389 27.0759C116.235 27.1948 116.053 27.274 115.86 27.3064C115.666 27.3389 115.468 27.3235 115.282 27.2615C115.14 27.2193 115.004 27.1571 114.879 27.077L113.193 25.7951L108.208 22.1061C107.767 21.7649 107.683 21.6173 107.149 21.7464C106.849 21.8202 106.558 21.9124 106.277 22.0047C105.996 22.0969 105.631 22.2445 105.34 22.3736C104.075 22.8808 102.82 23.4249 101.545 23.9506C101.353 24.0322 101.14 24.0548 100.934 24.0153C100.729 23.9758 100.54 23.8761 100.393 23.7292C100.195 23.5632 100.057 23.3394 99.9983 23.0906C99.9393 22.8417 99.9626 22.5808 100.065 22.3459C100.59 21.1931 101.114 20.0403 101.62 18.8782C101.864 18.3157 102.098 17.7439 102.342 17.1813C102.454 16.8954 102.576 16.6095 102.688 16.3328L102.867 15.8994C102.871 15.8719 102.871 15.8439 102.867 15.8164L102.782 15.6965C102.698 15.5859 102.595 15.4752 102.51 15.3553C102.426 15.2354 102.126 14.9034 101.93 14.6728C101.555 14.2209 101.161 13.7505 100.777 13.3355C99.9993 12.4778 99.2028 11.6294 98.3876 10.8086C98.2023 10.6186 98.0727 10.3828 98.0127 10.1261C97.9938 10.0039 97.9938 9.87946 98.0127 9.7572C97.9134 9.56538 97.8693 9.3505 97.8851 9.13576C97.9009 8.92103 97.9761 8.71469 98.1025 8.53898C98.2289 8.36328 98.4017 8.22487 98.6023 8.13888C98.8028 8.05289 99.0234 8.02254 99.2402 8.05107C100.658 8.28503 102.063 8.59288 103.447 8.97331C104.266 9.17208 105.124 9.14982 105.931 8.9088C106.153 8.82716 106.364 8.71876 106.558 8.58604C107.424 7.85386 108.134 6.96054 108.648 5.95755C109.06 5.31198 109.454 4.66643 109.857 4.02086C110.26 3.37528 110.56 2.89577 110.916 2.34242C111.016 2.18129 111.146 2.04037 111.3 1.92734C111.428 1.8212 111.579 1.74457 111.741 1.70308C111.903 1.6616 112.072 1.6563 112.237 1.68755C112.484 1.74065 112.707 1.86919 112.875 2.05467C113.044 2.24015 113.148 2.4731 113.174 2.72046C113.281 4.1514 113.478 5.57441 113.764 6.98123C113.98 8.03259 114.102 9.32382 115.085 9.95095C115.301 10.0893 115.516 10.2091 115.751 10.3382C116.763 10.8779 117.808 11.3554 118.88 11.7677C119.889 12.1596 120.918 12.4982 121.963 12.7822C122.31 12.8836 122.657 12.9944 123.013 13.0774C123.903 13.271 124.465 14.6267 123.481 15.2169Z" fill="#00A99D"/>
<path d="M102.351 45.1809L102.126 72.9681C102.07 79.4976 112.377 79.4976 112.434 72.9681L112.658 45.1809C112.715 38.6514 102.407 38.6421 102.351 45.1809Z" fill="#00A99D"/>
<path d="M121.776 13.2895C121.776 13.2895 121.776 13.2158 121.71 13.1789C121.469 12.8607 121.145 12.6122 120.773 12.4595L115.685 10.615L113.952 9.98782C113.256 8.33396 112.768 6.60273 112.499 4.8325C112.424 4.49127 112.359 4.14088 112.274 3.74431L112.078 3.0157C111.98 2.66546 111.789 2.34716 111.525 2.09345C111.232 1.79878 110.857 1.59651 110.447 1.51243C110.055 1.42989 109.648 1.45795 109.272 1.59338C108.895 1.7288 108.565 1.96604 108.32 2.27786L104.244 7.4056C103.457 8.40162 101.48 8.10646 99.5589 7.82056C98.8055 7.688 98.0454 7.59571 97.2819 7.54396H96.5135C96.1136 7.52067 95.7149 7.60755 95.3623 7.7949C95.0098 7.98224 94.7173 8.26254 94.5177 8.60445C94.3192 8.94564 94.2219 9.33478 94.2368 9.72765C94.2517 10.1205 94.3782 10.5014 94.602 10.8271L98.6968 16.7755C98.3313 17.6424 98.0409 18.491 97.7598 19.3579C97.3405 20.7331 96.785 22.0645 96.1013 23.3328L96.0263 23.4803C95.8753 23.8586 95.8395 24.272 95.9232 24.67C95.9848 24.9561 96.1045 25.227 96.2752 25.4663C96.4459 25.7056 96.664 25.9084 96.9165 26.0626C97.1261 26.1833 97.3537 26.2705 97.5911 26.3209C97.9264 26.4036 98.2772 26.4036 98.6125 26.3209L105.631 24.3472L107.196 25.6015C107.254 25.6549 107.32 25.6985 107.392 25.7306C107.986 26.0923 108.533 26.5227 109.023 27.0126C110.054 27.9348 111.412 29.1798 112.874 28.9492C113.207 28.9002 113.526 28.784 113.811 28.608C114.027 28.5328 114.224 28.411 114.386 28.2514C114.548 28.0918 114.672 27.8986 114.748 27.6858C114.982 26.8394 115.058 25.9581 114.973 25.085C114.973 24.7991 114.973 24.5132 114.973 24.2734L115.114 20.1787L115.704 19.8098L116.407 19.3671L116.528 19.2749C117.166 18.7612 117.846 18.3016 118.562 17.9008C119.893 17.2113 121.074 16.2713 122.038 15.134C122.205 14.9075 122.282 14.6286 122.254 14.3501C122.196 13.9602 122.031 13.5932 121.776 13.2895ZM117.241 15.8902C116.449 16.3385 115.697 16.8506 114.992 17.4212L114.345 17.8269L113.699 18.2328C113.415 18.4228 113.182 18.6768 113.019 18.9736C112.856 19.2705 112.768 19.6015 112.762 19.9389L112.612 24.1352C112.612 24.421 112.612 24.7346 112.612 25.0574C112.612 25.3802 112.612 25.6937 112.612 26.0626C112.612 26.2655 112.612 26.4591 112.612 26.5882C112.237 26.7081 111.675 26.2379 110.569 25.2695C109.977 24.6745 109.309 24.1569 108.582 23.7293L107.036 22.4751C106.698 22.2026 106.282 22.0384 105.846 22.0047C105.675 21.9863 105.502 21.9863 105.331 22.0047C105.249 22.0178 105.167 22.0363 105.087 22.0601L99.8306 23.5172L98.2564 23.9691C98.9041 22.6859 99.4462 21.3536 99.8774 19.985C100.159 19.1735 100.449 18.3249 100.814 17.4672C100.937 17.1532 100.982 16.815 100.946 16.4805C100.904 16.1494 100.782 15.8332 100.59 15.5582L96.626 9.76649H97.1226C97.3849 9.76649 97.6661 9.81268 97.9472 9.84957L99.1841 10.0155C101.564 10.3752 104.253 10.7718 105.874 8.88117C105.874 8.83506 105.959 8.80738 105.996 8.76127L109.894 3.85497L109.969 4.12235V4.26071C110.035 4.60194 110.11 4.93393 110.175 5.27516C110.48 7.34571 111.079 9.36373 111.956 11.2698C112.003 11.3553 112.06 11.4356 112.124 11.5095C112.362 11.7583 112.653 11.9506 112.977 12.0721L119.386 14.3593C118.725 14.9387 118.006 15.4516 117.241 15.8902Z" fill="#1E1E1E"/>
<path d="M110.063 10.2925C110.008 9.99607 109.837 9.7328 109.586 9.56011C109.335 9.38741 109.025 9.31925 108.723 9.3703C108.578 9.39155 108.44 9.44175 108.315 9.51789C108.191 9.59404 108.084 9.69449 108.001 9.81296C107.832 10.0484 107.765 10.3403 107.814 10.6245C108.03 11.8656 108.618 13.015 109.501 13.9261C110.535 14.8759 111.784 15.5685 113.146 15.9459H113.286C113.426 15.969 113.568 15.969 113.708 15.9459C113.92 15.9132 114.118 15.8248 114.283 15.69C114.448 15.5553 114.573 15.3792 114.645 15.1804C114.695 15.0467 114.718 14.9045 114.712 14.762C114.705 14.6196 114.67 14.4798 114.608 14.3509C114.546 14.222 114.459 14.1066 114.351 14.0115C114.243 13.9164 114.117 13.8434 113.98 13.797C112.976 13.5277 112.043 13.0497 111.244 12.3952C110.64 11.8298 110.228 11.0959 110.063 10.2925Z" fill="#1E1E1E"/>
<path d="M51.5269 20.9625C51.4707 20.5198 51.4426 20.1232 51.4238 19.7267V18.8782L52.2859 18.8137C59.8383 18.3033 67.4032 17.956 74.9806 17.7715C77.8542 17.6977 80.7309 17.6485 83.6107 17.6239H87.921C89.4296 17.6239 90.9194 17.4303 92.4281 17.4488C92.8313 17.497 93.2399 17.4229 93.5993 17.2365C93.7897 17.0995 93.9336 16.9092 94.0122 16.6903C94.0907 16.4715 94.1004 16.2343 94.0398 16.01C93.5619 14.0548 90.5728 14.7096 89.1391 14.7096C87.2651 14.7096 85.391 14.7096 83.4608 14.7096C79.6689 14.7465 75.8771 14.8233 72.0852 14.9402C68.4871 15.0416 64.8982 15.1893 61.3001 15.3737C57.7019 15.5581 54.2161 15.8901 50.6742 16.01H50.4118H50.2994C50.1779 15.9735 50.0516 15.9549 49.9245 15.9547C49.7094 15.9394 49.4934 15.9682 49.2902 16.0394C49.087 16.1106 48.9011 16.2225 48.7443 16.3682C48.5874 16.5139 48.4631 16.6901 48.3792 16.8856C48.2952 17.0812 48.2535 17.2918 48.2567 17.504C47.972 19.9382 48.2936 22.4039 49.1937 24.6884C49.3249 25.0761 49.5946 25.4038 49.9527 25.6106C50.3389 25.8077 50.7828 25.8663 51.2083 25.7765C51.4507 25.706 51.6761 25.5881 51.8709 25.4296C52.0658 25.2711 52.2261 25.0753 52.3421 24.8543C52.4067 24.7382 52.4452 24.6097 52.4549 24.4776C52.4646 24.3455 52.4453 24.213 52.3983 24.0889C52.0016 23.0783 51.7097 22.0308 51.5269 20.9625Z" fill="#1E1E1E"/>
<path d="M108.451 30.5172C108.391 30.4386 108.318 30.3702 108.236 30.3143C107.908 30.1549 107.535 30.1094 107.177 30.1852C106.98 30.1897 106.785 30.2337 106.605 30.3143C106.443 30.4275 106.306 30.5717 106.202 30.7385C105.528 31.6607 105.874 32.6567 105.921 33.7265L106.034 36.4933C106.099 38.3378 106.146 40.1823 106.174 42.0729C106.249 45.7619 106.249 49.4816 106.174 53.2321C106.062 60.6654 105.69 68.0925 105.059 75.5136C104.919 77.1736 104.769 78.8429 104.6 80.5029L104.535 81.1485L97.7505 82.4766C96.954 82.5596 95.8764 83.0022 95.9514 83.8967C95.9993 84.3601 96.2237 84.7884 96.5792 85.0957C96.702 85.2126 96.8501 85.3007 97.0123 85.3534C97.1746 85.4061 97.3468 85.422 97.5162 85.4L104.235 84.1365C104.75 84.1012 105.242 83.9077 105.64 83.5832L105.846 83.3896H106.137C106.533 83.3767 106.912 83.2274 107.208 82.968C107.505 82.7085 107.699 82.3552 107.758 81.9693C108.533 74.5913 109.051 67.1703 109.313 59.7062C109.576 52.2422 109.576 44.7936 109.313 37.3603C109.313 36.2812 109.238 35.2022 109.192 34.1232C109.268 33.0129 109.089 31.8999 108.667 30.8676C108.61 30.7423 108.538 30.6245 108.451 30.5172Z" fill="#1E1E1E"/>
<path d="M47.1134 10.5322C47.1222 10.3354 47.0882 10.139 47.0136 9.95614C46.9391 9.77332 46.8257 9.60826 46.6811 9.47205C46.5365 9.33584 46.364 9.2317 46.1751 9.1664C45.9863 9.1011 45.7855 9.07619 45.5861 9.09345C37.5183 9.09345 29.3568 9.31481 21.3171 9.69293C21.1006 9.68971 20.8858 9.731 20.6864 9.81418C20.4871 9.89736 20.3076 10.0206 20.1594 10.176C20.0112 10.3314 19.8976 10.5155 19.8259 10.7166C19.7542 10.9177 19.7259 11.1313 19.7429 11.3438C19.7419 11.5275 19.7815 11.7091 19.8591 11.8762C19.9367 12.0432 20.0503 12.1917 20.1922 12.3111C20.334 12.4305 20.5006 12.518 20.6803 12.5675C20.86 12.6171 21.0485 12.6275 21.2328 12.598C29.3193 12.2199 37.5089 12.017 45.5955 11.9985C45.7962 12.0133 45.9979 11.9857 46.1869 11.9176C46.376 11.8495 46.5481 11.7425 46.6918 11.6037C46.8355 11.4649 46.9474 11.2974 47.0202 11.1127C47.0929 10.9279 47.1247 10.7301 47.1134 10.5322Z" fill="#1E1E1E"/>
<path d="M40.0109 18.1682C33.7609 18.4264 27.436 18.4264 21.2048 18.1682H21.1204C20.9429 18.1762 20.7688 18.2187 20.608 18.293C20.4472 18.3674 20.3029 18.4723 20.1834 18.6017C20.0328 18.7397 19.9126 18.9066 19.8304 19.0922C19.7482 19.2779 19.7057 19.4782 19.7055 19.6807C19.7055 20.6029 20.6425 21.0364 21.4765 21.0733C27.6609 21.3223 33.9389 21.3223 40.1421 21.0733C40.4038 21.081 40.6627 21.0182 40.8906 20.8914C41.1186 20.7645 41.3069 20.5786 41.4352 20.3539C41.5589 20.1098 41.6179 19.8389 41.6064 19.5663C41.5949 19.2937 41.5134 19.0285 41.3696 18.7954C41.2197 18.5819 41.015 18.4113 40.7763 18.3011C40.5376 18.191 40.2735 18.1451 40.0109 18.1682Z" fill="#1E1E1E"/>
<path d="M86.1314 38.1808C85.974 37.9882 85.7761 37.8316 85.5512 37.7217C85.3263 37.6118 85.0798 37.5513 84.8289 37.5444L80.2937 37.36C66.2383 36.7605 51.7612 36.1426 37.5465 37.5352C37.3185 37.5578 37.0974 37.6255 36.8965 37.7342C36.6956 37.8429 36.519 37.9903 36.3773 38.1676C36.2356 38.345 36.1317 38.5486 36.0718 38.7663C36.0119 38.9841 35.9971 39.2116 36.0285 39.435C36.0469 39.678 36.1258 39.9128 36.2582 40.1186C36.3905 40.3245 36.5723 40.4952 36.7875 40.6155H36.5439C36.348 40.6259 36.1565 40.6768 35.9819 40.7649C35.8073 40.8531 35.6535 40.9764 35.5306 41.127C35.4078 41.2775 35.3185 41.4519 35.2687 41.6387C35.2188 41.8254 35.2095 42.0205 35.2414 42.211C36.0234 49.0974 36.3894 56.0233 36.3377 62.9523C36.3464 63.3104 36.4751 63.6556 36.7039 63.9342C36.9327 64.2128 37.2488 64.4092 37.6028 64.4925C39.5622 64.7543 41.5381 64.8775 43.5154 64.8613C45.2864 64.8613 47.0667 64.7876 48.8096 64.7231C49.8684 64.7231 50.9272 64.6308 51.9767 64.6032C56.8774 64.4833 61.7968 64.3725 66.6131 64.2803C71.4294 64.1881 76.4331 64.1143 81.2494 64.059H82.0272C83.7326 64.059 86.0751 64.1512 86.1407 61.8087C86.1483 61.1261 86.0949 60.4441 85.9814 59.7706C85.9814 59.4478 85.8971 59.1158 85.869 58.793C85.7565 57.5479 85.6628 56.4043 85.6066 55.2884C85.2226 50.0222 85.5185 44.7294 86.4874 39.5365C86.5327 39.2986 86.5242 39.054 86.4627 38.8197C86.4011 38.5854 86.288 38.3673 86.1314 38.1808ZM37.6496 40.763C51.8456 39.3704 66.3507 39.9884 80.3686 40.5878L82.9361 40.6985C82.3513 44.3151 82.0848 47.9746 82.1396 51.6363C82.1396 53.7298 82.2802 55.8879 82.4863 58.2489C82.4863 58.5163 82.4863 58.8114 82.4863 59.1157C82.4949 59.6655 82.5418 60.214 82.6269 60.7574C82.3926 60.7574 82.1584 60.7574 81.9241 60.7574C81.6899 60.7574 81.5399 60.7574 81.3712 60.7574C72.1884 60.868 62.8837 61.0433 53.7102 61.2646L46.0453 61.4767H45.8673C43.7658 61.5797 41.66 61.5581 39.5611 61.4121C39.561 54.9414 39.195 48.4757 38.4648 42.045C38.4456 41.7596 38.3484 41.4848 38.1834 41.2494C38.0185 41.014 37.7919 40.8268 37.5278 40.7077L37.6496 40.763Z" fill="#1E1E1E"/>
<path d="M37.912 74.8771C47.4228 75.0892 57.0742 74.9971 66.5944 74.6374H66.6881C66.9088 74.6275 67.1294 74.6616 67.3364 74.7376C67.5435 74.8137 67.7328 74.9301 67.893 75.08C68.0531 75.2299 68.1809 75.4101 68.2685 75.6098C68.3561 75.8095 68.4018 76.0246 68.4028 76.2421C68.4116 76.4789 68.3722 76.715 68.287 76.9366C68.2018 77.1583 68.0725 77.3609 67.9067 77.5327C67.7409 77.7045 67.5419 77.842 67.3213 77.9371C67.1008 78.0322 66.8632 78.0831 66.6225 78.0866C57.0835 78.4463 47.4228 78.5385 37.9026 78.3264C37.5795 78.3296 37.2618 78.2451 36.9841 78.0825C36.7065 77.9198 36.4796 77.6852 36.3284 77.4042C36.1741 77.1304 36.0932 76.8225 36.0932 76.5095C36.0932 76.1965 36.1741 75.8887 36.3284 75.615C36.5053 75.368 36.7441 75.1703 37.0216 75.041C37.2991 74.9117 37.6058 74.8553 37.912 74.8771Z" fill="#1E1E1E"/>
<path d="M84.8943 70.7362C84.7375 71.0059 84.509 71.2282 84.2332 71.3794C83.9574 71.5305 83.645 71.6048 83.3295 71.594C68.3371 71.76 53.1385 71.8245 38.1836 71.7876C37.9421 71.805 37.6995 71.7732 37.471 71.6942C37.2426 71.6151 37.0331 71.4906 36.8558 71.3283C36.6784 71.166 36.5369 70.9695 36.4402 70.751C36.3435 70.5325 36.2936 70.2967 36.2936 70.0584C36.2936 69.8201 36.3435 69.5843 36.4402 69.3658C36.5369 69.1473 36.6784 68.9508 36.8558 68.7885C37.0331 68.6262 37.2426 68.5018 37.471 68.4227C37.6995 68.3437 37.9421 68.3118 38.1836 68.3292C53.176 68.3292 68.3277 68.3292 83.3201 68.1355C83.6252 68.1239 83.9279 68.1931 84.1965 68.3358C84.4652 68.4786 84.69 68.6897 84.8475 68.9471C85.0089 69.2169 85.098 69.5227 85.1062 69.8357C85.1144 70.1487 85.0415 70.4586 84.8943 70.7362Z" fill="#1E1E1E"/>
<path d="M41.1447 86.0366H41.0604C41.0879 86.0452 41.1171 86.0452 41.1447 86.0366Z" fill="#1E1E1E"/>
<path d="M40.3492 89.8894C39.6844 90.0493 38.9959 90.0352 38.3368 89.8484C37.6034 89.6633 36.9503 89.1972 36.4898 88.5299C36.1367 87.8695 35.9706 87.1041 36.0137 86.3353C35.9493 85.5453 36.1134 84.753 36.4816 84.076C36.7248 83.6527 37.0826 83.3284 37.5023 83.1508C37.922 82.9731 38.3814 82.9516 38.8128 83.0894L38.936 83.1539C39.4364 83.0198 39.9558 83.0011 40.4628 83.0986C41.1564 83.2429 41.785 83.6497 42.2441 84.2513C42.7398 84.9283 43.0046 85.7815 42.9911 86.658C43.0237 87.082 42.9662 87.5087 42.8235 87.903C42.6808 88.2973 42.457 88.648 42.1703 88.9263C41.637 89.3999 41.0139 89.7295 40.3492 89.8894Z" fill="#1E1E1E"/>
<path d="M41.6703 86.3598C41.6703 86.3598 41.6214 86.3116 41.6703 86.3598V86.3598Z" fill="#1E1E1E"/>
<path d="M40.2825 86.1377H40.2169C40.2509 86.145 40.2859 86.145 40.3199 86.1377H40.2825Z" fill="#1E1E1E"/>
<path d="M41.735 86.4786L41.6788 86.3772C41.6922 86.4136 41.7112 86.4478 41.735 86.4786Z" fill="#1E1E1E"/>
<path d="M92.9247 31.9005C92.8189 31.8508 92.7236 31.782 92.6436 31.6976C92.4883 31.5429 92.3029 31.4207 92.0984 31.3383C91.8939 31.2559 91.6745 31.2149 91.4536 31.2181C70.7837 30.436 50.0835 31.1326 29.5161 33.3023C29.1502 33.3195 28.8 33.4541 28.5191 33.6856C28.2382 33.917 28.0421 34.2327 27.9606 34.5843C27.9179 34.7774 27.8086 34.9501 27.6514 35.0731C27.4549 35.2143 27.3054 35.4098 27.222 35.6347C27.1386 35.8597 27.125 36.104 27.1829 36.3366C29.1975 45.3838 29.1319 54.4494 28.7665 62.9064C28.5978 66.7522 28.3823 70.6625 28.1762 74.4437L27.286 89.9098C27.268 90.0601 27.2857 90.2125 27.3378 90.3549C27.3898 90.4974 27.4747 90.626 27.5859 90.7306C27.7906 90.8913 28.0273 91.0079 28.2807 91.0731C28.5341 91.1382 28.7985 91.1504 29.0569 91.1088C29.1654 91.0898 29.2765 91.0898 29.3849 91.1088C29.4616 91.0317 29.5543 90.9719 29.6567 90.9335C29.9033 90.8522 30.1193 90.6996 30.2764 90.4955C30.4336 90.2915 30.5245 90.0456 30.5375 89.7899C30.7186 86.6358 30.9029 83.4817 31.0903 80.3276L31.3808 75.3567C31.3857 75.2953 31.3857 75.2337 31.3808 75.1723C31.6151 71.1974 31.868 66.6047 32.0461 62.0765C32.4677 51.7934 32.0461 44.0004 30.5562 36.8161C30.5351 36.6962 30.5383 36.5733 30.5656 36.4545C30.5929 36.3358 30.6439 36.2237 30.7155 36.1245C30.7914 36.0281 30.886 35.9475 30.9937 35.8874C31.1015 35.8272 31.2203 35.7887 31.3433 35.774C50.6045 33.8418 69.9759 33.1855 89.3265 33.8096C89.4453 33.8131 89.5622 33.8402 89.6701 33.8893C89.778 33.9385 89.8747 34.0086 89.9544 34.0955C90.0357 34.18 90.0984 34.2801 90.1387 34.3896C90.179 34.4991 90.196 34.6157 90.1886 34.7319C89.0923 53.5088 88.427 72.6362 88.2114 91.5791C88.1971 91.814 88.0921 92.0345 87.9179 92.1957C87.7437 92.3569 87.5135 92.4464 87.2744 92.446H59.1636H55.9965C52.3608 92.446 48.6127 92.446 44.9396 92.5751C43.6558 92.6304 42.344 92.7688 40.9572 92.9256C37.5183 93.3037 33.967 93.691 30.6499 92.6765C30.4404 92.6145 30.222 92.5865 30.0034 92.5936C29.9106 92.6122 29.815 92.6122 29.7223 92.5936C29.6576 92.6589 29.5814 92.712 29.4974 92.7503C29.2489 92.8844 29.0451 93.0863 28.9105 93.3317C28.7758 93.5771 28.7161 93.8556 28.7384 94.1336C28.768 94.4222 28.8902 94.694 29.0874 94.9095C29.2845 95.1251 29.5462 95.2733 29.8347 95.3326C33.0956 96.3286 36.3939 96.0058 39.964 95.6646C41.0509 95.5631 42.1753 95.4525 43.2904 95.388C47.2446 95.1574 51.2739 95.1666 55.1719 95.1758H59.0887H88.2958C88.4499 95.1741 88.6017 95.2123 88.7362 95.2864C89.0516 95.4481 89.402 95.5325 89.7576 95.5325C90.1132 95.5325 90.4635 95.4481 90.7789 95.2864C90.9687 95.1903 91.1267 95.0431 91.2346 94.8618C91.3424 94.6805 91.3956 94.4727 91.388 94.2628C91.5754 73.8904 92.325 53.2505 93.4963 32.915C93.5251 32.7078 93.4849 32.4971 93.3819 32.3142C93.2789 32.1314 93.1185 31.9862 92.9247 31.9005Z" fill="#1E1E1E"/>
<path d="M21.6357 67.5268C21.3228 67.2791 20.9579 67.1028 20.5674 67.0104C20.3043 66.9587 20.0384 66.9218 19.771 66.8997L17.2504 66.6323H17.0911C16.7491 66.6425 16.4083 66.586 16.0885 66.4662C15.3576 66.1434 15.3389 65.295 15.3201 64.6771C15.3256 64.6003 15.3256 64.5233 15.3201 64.4465L15.1795 62.8511C14.9921 60.9051 14.8235 58.8577 14.6548 56.5798C14.355 52.319 14.1301 48.0951 13.9896 44.0188C13.849 39.9424 13.7928 35.7185 13.8115 31.4301C13.8115 28.525 13.8958 25.3802 14.0176 21.8664C14.0176 21.6266 14.0176 21.3869 14.0176 21.1379V20.2157C14.0176 19.7638 14.0176 19.2933 14.0176 18.8506C14.1957 14.6913 14.4581 10.4674 14.8048 6.28967C14.8797 5.47809 14.9453 4.65738 15.0203 3.84581L15.0859 3.07104H15.873C22.6477 2.86814 29.8066 2.8221 37.7713 2.91433H38.1555C48.3691 3.04344 58.3203 3.43078 67.728 4.0579L68.5995 4.11318V4.98015C68.5995 5.36749 68.5526 5.76408 68.4964 6.15142C68.3197 7.23405 68.0243 8.29461 67.6156 9.31466C67.5672 9.44004 67.5471 9.57432 67.5568 9.70812C67.5665 9.84192 67.6058 9.97198 67.6718 10.0893C67.9121 10.5313 68.3193 10.8626 68.8056 11.0116C69.2281 11.0992 69.6682 11.0406 70.0518 10.8456C70.4135 10.6405 70.6867 10.3126 70.8202 9.92337C71.7292 7.64439 72.0511 5.17942 71.7572 2.74827C71.7426 2.32665 71.5689 1.92556 71.27 1.62316C70.9386 1.34455 70.5158 1.19384 70.08 1.19896C69.9529 1.19849 69.8265 1.2171 69.7051 1.25424H69.5646H69.4147C59.4728 0.553334 48.9687 0.129114 38.2117 0H37.9868C35.5037 0 33.0768 0 30.6967 0C24.6341 0 18.834 0.092175 13.1368 0.295069C12.8549 0.281612 12.5748 0.347387 12.3293 0.484539C12.0838 0.621692 11.8829 0.824658 11.7501 1.06984C11.6223 1.31405 11.5604 1.58642 11.5702 1.86093C11.5801 2.13544 11.6613 2.40286 11.8063 2.63761L11.9843 2.89587V3.20017C11.4034 9.4161 11.0473 15.8257 10.7943 22.8071C10.3157 37.628 10.8542 52.4638 12.406 67.2133C12.4593 67.5999 12.6508 67.9552 12.9462 68.2155C13.2415 68.4757 13.6213 68.624 14.0176 68.6336H14.3081L14.5237 68.8272C14.8997 69.139 15.3644 69.329 15.8542 69.3713L18.7215 69.6757L21.4108 69.9615C21.5256 69.9803 21.6427 69.9803 21.7575 69.9615C21.7575 69.9615 21.87 69.9155 22.0105 69.6572C22.1646 69.4108 22.2576 69.1321 22.282 68.8438C22.3064 68.5554 22.2615 68.2653 22.151 67.9972C22.0133 67.8077 21.838 67.6477 21.6357 67.5268Z" fill="#1E1E1E"/>
<path d="M7.55221 45.1993C7.29741 45.0655 7.02669 44.9633 6.74633 44.895C7.06568 44.4752 7.31555 44.0083 7.48662 43.5117C7.73246 42.8201 7.73893 42.0677 7.50503 41.3721C7.27114 40.6765 6.81001 40.0766 6.19351 39.6659C5.74875 39.3916 5.27007 39.1747 4.76922 39.0203C4.98473 38.6791 5.19086 38.2918 5.34079 38.0981C5.91142 37.4492 6.53848 36.8505 7.21484 36.3089C7.50664 36.0205 7.69338 35.6453 7.74592 35.2416C7.79846 34.838 7.71385 34.4284 7.50532 34.077C6.81834 33.1676 5.93921 32.4157 4.92849 31.8729L6.47461 29.6688C7.28045 28.5252 8.47986 27.2894 8.94838 25.9798C9.74485 23.7572 8.13318 22.8349 6.26849 22.3738C7.00874 21.636 7.7677 20.9258 8.57354 20.2433C8.77584 20.0435 8.92892 19.8007 9.02095 19.5336C9.11298 19.2665 9.1415 18.9823 9.10439 18.7026C9.06729 18.4229 8.96552 18.1553 8.80688 17.9204C8.64825 17.6855 8.43702 17.4895 8.18939 17.3476L5.65002 15.8258C5.33143 15.6322 4.9379 15.4385 4.55372 15.2356C4.76923 15.0419 4.97539 14.8759 5.08783 14.7652C5.58445 14.2857 6.09978 13.843 6.63389 13.4003C8.50794 11.8786 5.82809 9.27782 3.98214 10.7903C2.50164 12.0077 -0.431255 14.1012 0.346477 16.3238C0.721288 17.4028 1.85507 17.8916 2.78272 18.445L4.1695 19.2843C3.14308 20.256 2.17031 21.2811 1.25537 22.3553C0.458893 23.2775 0.5526 25.1958 2.07995 25.4356L4.45066 25.8045H4.73175C4.20702 26.5607 3.61671 27.2893 3.11072 28.0087L0.299637 31.9467C-0.581168 33.2009 0.636948 34.6027 1.92067 34.7134C2.31422 34.7582 2.69738 34.8673 3.05444 35.0362C1.12417 36.9821 -0.871694 39.9056 1.7145 41.6948C2.15652 41.9786 2.63568 42.202 3.1388 42.3589C3.30746 42.4142 3.53235 42.5156 3.72913 42.5617C3.46676 42.8384 3.12944 43.2718 2.8577 43.5577C2.21882 44.1978 1.73232 44.9696 1.4334 45.8173C1.3233 46.2096 1.34816 46.6268 1.50409 47.0038C1.66002 47.3808 1.93823 47.6964 2.29545 47.9015C2.79726 48.2269 3.37393 48.4236 3.97277 48.4734C3.71977 48.7593 3.47611 49.0636 3.24186 49.3956C2.53995 50.3943 2.01119 51.5006 1.67704 52.6695C1.55981 53.141 1.6304 53.6389 1.87435 54.0608C2.1183 54.4827 2.51714 54.7966 2.9889 54.9382C3.55443 55.1556 4.07746 55.4676 4.53496 55.8604C6.34342 57.419 9.00459 54.8184 7.18676 53.2505C6.76443 52.8895 6.31319 52.5626 5.83744 52.273C6.11431 51.7413 6.45743 51.2455 6.85882 50.7973C7.69278 49.8751 8.78907 49.3495 9.05143 48.086C9.1418 47.5108 9.04557 46.9222 8.7764 46.4039C8.50723 45.8857 8.07885 45.4641 7.55221 45.1993Z" fill="#00A99D"/>
<path d="M83.2265 83.1037C83.2265 82.9681 83.1991 82.8339 83.1461 82.7088C83.093 82.5838 83.0152 82.4703 82.9172 82.3751C82.7161 82.1957 82.4575 82.0913 82.1863 82.08C80.7634 81.9232 79.3271 81.9232 77.9041 82.08C77.7467 82.0961 77.5922 82.1333 77.445 82.1906C77.2717 82.0953 77.0766 82.0453 76.8781 82.0453C76.6796 82.0453 76.4845 82.0953 76.3112 82.1906C76.1067 82.3047 75.9359 82.4694 75.8159 82.6683C75.696 82.8673 75.6309 83.0937 75.6271 83.325C75.5709 83.8783 75.6272 84.441 75.5522 85.0035C75.4866 86.1471 75.3742 87.2907 75.2242 88.425C75.223 88.5598 75.249 88.6935 75.3009 88.8183C75.3527 88.943 75.4293 89.0563 75.5261 89.1516C75.6229 89.2469 75.7381 89.3223 75.8648 89.3733C75.9916 89.4243 76.1274 89.45 76.2643 89.4487C76.3079 89.453 76.3519 89.453 76.3955 89.4487C76.4667 89.4626 76.5399 89.4626 76.611 89.4487H76.6673C77.5387 89.1167 78.3914 88.7386 79.2347 88.3328C79.6634 88.5334 80.0713 88.7744 80.4529 89.0522C80.7487 89.2878 81.0274 89.5436 81.2868 89.8176C81.4334 89.9592 81.6193 90.0549 81.8211 90.0927C82.0228 90.1304 82.2314 90.1085 82.4206 90.0297C82.6053 89.9521 82.7636 89.824 82.8765 89.6605C82.9895 89.497 83.0524 89.3051 83.0578 89.1075L83.1421 87.0786C83.1468 87.0357 83.1468 86.9924 83.1421 86.9495C83.1515 85.603 83.1609 84.3856 83.2265 83.1037ZM81.1088 86.8573V86.9218C80.766 86.7108 80.4091 86.5229 80.0406 86.3592C79.8778 86.2076 79.6703 86.1108 79.4481 86.0826C79.2258 86.0544 79.0002 86.0963 78.8037 86.2024C78.3726 86.433 77.9229 86.6359 77.4731 86.8388C77.4731 86.516 77.5574 86.1839 77.5856 85.8519C77.6137 85.5199 77.6418 85.0219 77.6605 84.6069C77.6605 84.4501 77.6605 84.2934 77.6605 84.1366C77.738 84.1506 77.8174 84.1506 77.8948 84.1366C78.9615 84.0168 80.0362 83.9798 81.1088 84.0259C81.09 84.9758 81.09 85.9166 81.09 86.8573H81.1088Z" fill="#1E1E1E"/>
</svg>
