<svg width="59" height="52" viewBox="0 0 59 52" fill="none" xmlns="http://www.w3.org/2000/svg">
<path d="M30.1853 25.4002C28.2575 19.6811 23.3724 15.1567 17.2061 15.2437C17.211 14.0063 16.1862 12.7508 14.7041 13.2894C10.2011 14.9283 6.92069 19.2054 6.271 23.9957C5.56697 29.1819 7.50725 34.7824 11.2346 38.4321C15.1294 42.288 21.4628 42.0734 25.9196 39.3179C28.0359 38.0155 29.7194 35.953 30.5107 33.5697C31.4031 30.9252 31.0768 28.0185 30.1853 25.4002ZM24.6995 35.4032C21.9774 37.6249 17.1723 38.4174 14.332 35.9921C11.5123 33.5851 9.93715 29.5734 9.97212 25.8796C10.0117 22.264 12.0946 18.7446 15.3645 17.2566C15.4607 18.2328 16.1178 19.1761 17.3579 19.1426C21.1953 19.0548 24.3816 21.7545 25.9404 25.1584C27.5208 28.6003 27.8844 32.8009 24.6995 35.4032Z" fill="#1E1E1E"/>
<path d="M53.6949 34.9303C53.5559 34.8979 53.3962 34.8465 53.256 34.7939C53.2365 34.7951 53.2365 34.7951 53.2365 34.7951C53.2365 34.7951 53.2365 34.7951 53.217 34.7962C52.9562 34.6899 52.7148 34.5825 52.4723 34.4549C52.2298 34.3272 51.9861 34.1794 51.7619 34.0304C51.7412 34.0114 51.6401 33.9565 51.5987 33.9184C51.5366 33.8612 51.3733 33.7492 51.3526 33.7302C50.9202 33.3705 50.5061 32.9894 50.1298 32.5859C50.0665 32.5085 50.0044 32.4514 49.9411 32.374C49.9204 32.355 49.8352 32.2384 49.7926 32.1801C49.6234 31.9671 49.453 31.7339 49.2826 31.5007C48.0609 29.7078 47.3542 27.682 46.7746 25.4866C48.3355 24.0574 49.3948 22.0901 50.0359 20.0055C50.8768 17.3214 50.9811 13.7686 49.37 11.35C47.8003 8.96952 44.8288 7.72523 42.1939 7.21106C39.1604 6.57842 35.9474 6.8886 33.1036 8.14993C32.1297 8.57191 31.5256 9.62072 31.8837 10.7144C32.0026 11.0722 32.2558 11.3816 32.564 11.627C32.5481 11.6888 32.5321 11.7505 32.5357 11.8111C32.4346 14.0869 32.8409 16.333 33.1496 18.5848C33.4874 20.997 33.7666 23.4127 33.969 25.8532C34.4115 30.7116 34.6003 35.5849 34.5744 40.4708C34.5704 43.0652 38.4736 42.8361 38.4776 40.2417C38.4913 36.1469 38.3281 32.0423 38.0295 27.9658C39.7772 28.0457 41.5715 27.9201 43.2273 27.4378C43.8944 29.7902 44.7934 32.0884 46.221 34.0516C47.9042 36.3646 50.1627 38.1372 52.8716 38.9105C53.8664 39.1763 55.0153 38.3996 55.1889 37.3558C55.376 36.2098 54.7495 35.213 53.6949 34.9303ZM37.67 23.8524C37.4838 22.019 37.2976 20.1857 37.0529 18.3557C36.7441 16.1039 36.339 13.878 36.4389 11.582C36.4525 11.4799 36.427 11.38 36.4223 11.2992C38.2171 10.8494 40.0552 10.8023 41.9023 11.2411C43.0337 11.4989 44.2356 11.9553 45.1749 12.6096C46.1154 13.284 46.5373 14.1307 46.6453 15.2999C46.8707 17.7998 46.0453 20.7464 44.1876 22.4565C43.3143 23.2577 42.1576 23.5688 41.0304 23.716C39.9056 23.9036 38.7896 23.9083 37.67 23.8524Z" fill="#1E1E1E"/>
<path d="M14.4755 46.7241C14.023 46.6359 13.5694 46.5286 13.1321 46.3821C13.0184 46.3506 12.9047 46.319 12.8085 46.2672C12.7702 46.2504 12.733 46.2525 12.7134 46.2346C12.7134 46.2346 12.6948 46.2356 12.6937 46.2166C12.4837 46.1333 12.2552 46.051 12.0442 45.9486C11.1651 45.5794 10.3209 45.1698 9.4931 44.7211C8.72434 44.3262 7.97079 43.8731 7.25327 43.3987C7.23357 43.3807 7.23469 43.3998 7.23357 43.3807C7.15479 43.3088 7.05856 43.2571 6.97977 43.1852C6.78506 43.0436 6.58923 42.8829 6.41197 42.7211C6.05857 42.4167 5.72262 42.0921 5.4227 41.7462C4.76377 41.0006 3.39378 41.1575 2.80376 41.8999C2.10903 42.7633 2.24502 43.8074 2.96191 44.5879C4.31804 46.096 6.07893 47.1978 7.84831 48.127C9.73249 49.1068 11.6876 50.025 13.7622 50.4389C14.724 50.6311 15.8059 50.0128 15.9682 48.9703C16.0782 47.9883 15.4942 46.9322 14.4755 46.7241Z" fill="#FBB03B"/>
<path d="M56.1391 7.87913C54.5194 4.86651 52.3067 1.88869 49.1508 0.65435C48.6712 0.47148 48.2501 0.361916 47.7559 0.544384C47.3494 0.683344 46.9204 1.05382 46.7295 1.48706C46.5398 1.93941 46.4635 2.48102 46.6365 2.96963C46.7881 3.40195 47.106 3.90124 47.5305 4.06815C47.863 4.20211 48.1965 4.35518 48.5132 4.52843C48.6806 4.61452 48.8299 4.70167 48.9804 4.80794C49.0557 4.86107 49.2444 5.00346 49.2994 5.01941C49.8104 5.43064 50.2855 5.84397 50.7472 6.33482C50.8628 6.46232 50.9606 6.59086 51.0762 6.71836C51.1346 6.79166 51.1931 6.86497 51.2324 6.92021C51.4671 7.23255 51.703 7.564 51.9209 7.89651C52.3567 8.56153 52.7588 9.26689 53.1441 9.99243C53.6102 10.8667 54.9051 11.1168 55.6463 10.5362C56.4919 9.89185 56.6445 8.80863 56.1391 7.87913Z" fill="#00A99D"/>
</svg>
