<svg width="86" height="96" viewBox="0 0 86 96" fill="none" xmlns="http://www.w3.org/2000/svg">
<path d="M60.8955 92.4179L58.0298 95.2835L35.1045 93.8507L5.73135 94.5671V58.0298L7.16419 27.9403H21.4925V20.7761L28.6567 20.0597L29.3731 12.8955L75.9403 13.6119L75.2239 70.9253H68.0597L67.3433 78.0895H60.8955V92.4179Z" fill="white"/>
<path d="M66.8646 71.7506C66.8056 69.6484 66.7633 67.5379 66.7211 65.4357C66.451 50.9464 66.5382 36.4544 66.9828 21.9596C63.429 22.1169 59.8414 21.9596 56.2875 21.8438L44.2669 21.5624C37.7585 21.4051 30.6677 21.2396 23.9399 21.3555C23.8477 21.3706 23.7535 21.3706 23.6613 21.3555C23.349 21.3555 23.0451 21.3555 22.7412 21.3555C22.5977 23.0687 22.488 24.7819 22.3698 26.5034C26.008 26.5613 29.621 26.6441 33.0904 26.7269C37.7079 26.8345 42.3254 26.9503 46.9428 27.0497C51.5603 27.149 56.0849 27.4138 60.6264 27.1158C60.9955 27.0737 61.3677 27.165 61.6731 27.3724C61.9205 27.4374 62.1383 27.5822 62.2914 27.7834C62.4446 27.9846 62.5241 28.2305 62.5173 28.4815C62.3653 33.4087 62.2444 38.3331 62.1543 43.2548C62.0136 51.8954 61.977 60.536 62.0446 69.1766C62.0446 71.7754 62.1121 74.3742 62.1543 76.973L66.5354 77.122C67.1094 75.3922 66.9069 73.5466 66.8646 71.7506Z" fill="#FBB03B"/>
<path d="M50.2857 67.6533C49.2643 67.9265 48.4454 68.4147 47.3143 68.3485C46.8626 68.3206 46.4195 68.2141 46.0059 68.034C45.6254 67.8008 45.2275 67.5961 44.8156 67.4216C44.4695 67.3471 44.5539 67.3057 44.1234 67.5043C43.7784 67.6814 43.4233 67.8389 43.0598 67.976C42.3688 68.2141 41.6191 68.2344 40.9157 68.034C40.4615 67.8856 40.0424 67.6492 39.6832 67.3388C39.641 67.3388 39.5482 67.1981 39.4553 67.1236C39.3625 67.0491 39.4553 67.1236 39.4131 67.1981C38.8243 67.6567 38.1507 67.9995 37.4294 68.2078C36.5892 68.3971 35.7117 68.3513 34.8969 68.0754C34.2182 67.7579 33.5119 67.5003 32.7866 67.3057C32.4994 67.2881 32.2117 67.3304 31.9424 67.4299C31.9763 67.6118 32.0557 67.7827 32.1736 67.9271C32.2915 68.0716 32.4441 68.1851 32.6177 68.2575C34.4917 69.1514 36.4502 69.83 38.4508 68.8699C38.7996 68.6308 39.2021 68.4774 39.6241 68.423C40.0697 68.4682 40.5086 68.5626 40.9326 68.7044C41.8891 68.959 42.9022 68.9215 43.8364 68.5968C44.1588 68.4178 44.5149 68.3053 44.8832 68.2658C45.304 68.3528 45.7084 68.5035 46.0818 68.7126C46.9501 69.0974 47.9243 69.1877 48.8506 68.9693C49.298 68.8534 49.6948 68.6465 50.1591 68.5389C50.5707 68.4823 50.9901 68.522 51.3831 68.6547C51.8414 68.7748 52.323 68.7809 52.7843 68.6725C53.2457 68.5641 53.6722 68.3447 54.0252 68.034C54.2401 67.8406 54.3802 67.5804 54.422 67.2974C53.9736 67.4406 53.5083 67.5269 53.0376 67.554C52.1192 67.5001 51.1976 67.5334 50.2857 67.6533Z" fill="#FBB03B"/>
<path d="M19.4575 43.1469C19.506 43.4524 19.6648 43.7308 19.9049 43.9313C20.145 44.1318 20.4505 44.2411 20.7659 44.2394C30.5636 44.5815 40.3613 44.5236 50.159 44.0656C50.5035 44.0616 50.8331 43.9279 51.0798 43.6922C51.3265 43.4565 51.4714 43.1368 51.4843 42.7993C51.3166 42.8253 51.1475 42.8418 50.9778 42.8489C40.4879 43.2572 29.9812 43.3565 19.4575 43.1469Z" fill="#FBB03B"/>
<path d="M7.07381 89.3044C7.59044 88.8125 7.97489 88.203 8.19288 87.53C8.41087 86.8571 8.45562 86.1417 8.32314 85.4477C7.58873 80.697 8.32314 75.6815 8.10367 70.8647C7.88419 66.0478 8.60171 61.3054 8.62703 56.4885C8.6731 55.8391 8.54078 55.1895 8.24386 54.6073C7.94693 54.025 7.49626 53.5315 6.93874 53.178C6.55606 65.2174 6.60109 77.2595 7.07381 89.3044Z" fill="#FBB03B"/>
<path d="M4.27972 52.8223C3.47973 53.0437 2.78266 53.5299 2.30711 54.1984C1.83155 54.8669 1.60688 55.6762 1.67131 56.4888C1.67131 66.7101 0.04211 77.3783 1.62066 87.5335C1.92455 89.4785 3.14013 90.3227 4.44855 90.3558C4.30504 86.8218 4.17843 83.2878 4.1109 79.7537C3.92518 70.7821 3.98146 61.8049 4.27972 52.8223Z" fill="#FBB03B"/>
<path d="M11.5816 37.6849C19.6179 37.6849 27.6429 37.9608 35.6566 38.5126C37.8514 38.6615 37.843 35.8145 35.6566 35.6738C27.6429 35.1496 19.6179 34.8738 11.5816 34.8462C11.3754 34.8194 11.1658 34.836 10.9667 34.8951C10.7676 34.9541 10.5837 35.0543 10.4273 35.1887C10.2709 35.323 10.1455 35.4886 10.0597 35.6743C9.97377 35.86 9.92935 36.0616 9.92935 36.2655C9.92935 36.4695 9.97377 36.6711 10.0597 36.8568C10.1455 37.0425 10.2709 37.208 10.4273 37.3424C10.5837 37.4768 10.7676 37.577 10.9667 37.636C11.1658 37.6951 11.3754 37.7117 11.5816 37.6849Z" fill="#1E1E1E"/>
<path d="M12.4342 42.9819C14.7725 43.0564 17.1192 43.0978 19.4575 43.1474C19.4121 42.9595 19.4123 42.7638 19.4582 42.576C19.5041 42.3882 19.5943 42.2137 19.7216 42.0663C19.8489 41.919 20.0098 41.8029 20.1911 41.7277C20.3725 41.6524 20.5694 41.6199 20.7659 41.6329C30.5636 41.975 40.3613 41.9171 50.159 41.4591C50.3416 41.4398 50.5263 41.4615 50.699 41.5227C50.8717 41.5838 51.0279 41.6828 51.1557 41.8121C51.2835 41.9414 51.3795 42.0976 51.4365 42.2688C51.4934 42.4399 51.5098 42.6216 51.4843 42.7999C54.2953 42.4109 54.1518 39.8783 50.9778 40.0025C38.1468 40.5046 25.299 40.5515 12.4342 40.1432C9.1167 40.0356 9.1167 42.8744 12.4342 42.9819Z" fill="#1E1E1E"/>
<path d="M50.159 41.4588C40.367 41.9112 30.5693 41.9691 20.7659 41.6325C20.5694 41.6196 20.3725 41.652 20.1912 41.7273C20.0098 41.8026 19.849 41.9186 19.7217 42.066C19.5944 42.2133 19.5041 42.3879 19.4582 42.5757C19.4124 42.7635 19.4121 42.9592 19.4575 43.1471C29.9643 43.3457 40.4711 43.2464 50.9779 42.8492C51.1475 42.8421 51.3166 42.8255 51.4843 42.7995C51.5098 42.6212 51.4934 42.4396 51.4365 42.2684C51.3795 42.0973 51.2835 41.9411 51.1557 41.8118C51.0279 41.6825 50.8717 41.5835 50.699 41.5223C50.5263 41.4611 50.3416 41.4394 50.159 41.4588Z" fill="#1E1E1E"/>
<path d="M19.4575 83.7676C19.506 84.0731 19.6648 84.3514 19.9049 84.5519C20.145 84.7524 20.4505 84.8617 20.7659 84.86C30.5636 85.2076 40.3613 85.1497 50.159 84.6862C50.5035 84.6822 50.8331 84.5485 51.0798 84.3128C51.3265 84.0771 51.4714 83.7574 51.4843 83.4199C51.3166 83.4459 51.1475 83.4625 50.9778 83.4696C40.4879 83.8779 29.9812 83.9772 19.4575 83.7676Z" fill="#FBB03B"/>
<path d="M11.5816 78.3049C19.6178 78.3049 27.6428 78.5807 35.6566 79.1325C37.8514 79.2732 37.8429 76.4261 35.6566 76.2854C27.6428 75.7612 19.6178 75.4853 11.5816 75.4577C11.3778 75.4361 11.1716 75.4569 10.9765 75.5187C10.7814 75.5804 10.6017 75.6816 10.4492 75.8159C10.2966 75.9502 10.1746 76.1144 10.0911 76.298C10.0076 76.4816 9.96442 76.6803 9.96442 76.8812C9.96442 77.0822 10.0076 77.281 10.0911 77.4646C10.1746 77.6482 10.2966 77.8124 10.4492 77.9467C10.6017 78.081 10.7814 78.1822 10.9765 78.2439C11.1716 78.3056 11.3778 78.3264 11.5816 78.3049Z" fill="#1E1E1E"/>
<path d="M50.9778 80.6223C38.1468 81.1244 25.2989 81.1714 12.4342 80.7631C9.05759 80.6555 9.05759 83.4942 12.4342 83.6018C14.7724 83.6763 17.1192 83.7178 19.4575 83.7674C19.4121 83.5795 19.4123 83.3838 19.4582 83.196C19.5041 83.0082 19.5943 82.8335 19.7216 82.6862C19.8489 82.5388 20.0097 82.4228 20.1911 82.3475C20.3725 82.2723 20.5694 82.2398 20.7659 82.2528C30.5636 82.5893 40.3613 82.5314 50.159 82.079C50.3412 82.0613 50.5251 82.0841 50.6971 82.1459C50.869 82.2076 51.0245 82.3066 51.1519 82.4355C51.2794 82.5644 51.3754 82.7199 51.433 82.8904C51.4905 83.0608 51.5081 83.2418 51.4843 83.4198C54.2953 83.0308 54.1518 80.4982 50.9778 80.6223Z" fill="#1E1E1E"/>
<path d="M50.159 82.0793C40.367 82.5318 30.5693 82.5897 20.7659 82.2531C20.5694 82.2401 20.3725 82.2726 20.1912 82.3478C20.0098 82.4231 19.849 82.5391 19.7217 82.6865C19.5944 82.8339 19.5041 83.0085 19.4582 83.1963C19.4124 83.3841 19.4121 83.5798 19.4575 83.7677C29.9643 83.9664 40.4711 83.8671 50.9779 83.4698C51.1475 83.4627 51.3166 83.4461 51.4843 83.4201C51.5081 83.2421 51.4906 83.0611 51.433 82.8907C51.3755 82.7203 51.2794 82.5648 51.152 82.4358C51.0245 82.3069 50.8691 82.2079 50.6971 82.1462C50.5252 82.0845 50.3412 82.0616 50.159 82.0793Z" fill="#1E1E1E"/>
<path d="M61.116 95.1146C61.3152 94.976 61.4727 94.7873 61.5718 94.5683C62.256 92.7555 62.5213 90.8163 62.3484 88.8907C62.2893 86.6726 62.2387 84.4628 62.188 82.2696C62.188 81.2681 62.188 80.2585 62.1458 79.2488H61.2004V77.0058H61.5127C61.0383 76.2674 60.8608 75.3824 61.0147 74.5229C62.3484 66.2465 60.829 57.73 61.0147 49.3957C61.0991 45.1499 61.327 40.8958 61.116 36.65C60.964 33.6208 60.0355 30.4758 60.5166 27.4715C48.9687 27.7943 37.3871 28.2992 25.8476 27.7115C25.5766 27.7038 25.3075 27.6649 25.0457 27.5957H24.7334C24.2554 27.6237 23.7789 27.5206 23.3574 27.2977C22.9848 27.1773 22.6444 26.9764 22.3613 26.71L22.3107 27.3887H20.0061C20.0061 27.0742 20.0484 26.768 20.0737 26.4535C16.4185 26.4535 12.7549 26.4038 9.18422 26.4535C8.42159 26.408 7.65641 26.4245 6.89658 26.5031C6.72083 26.492 6.54541 26.5293 6.3901 26.6107C6.22587 26.6657 6.078 26.7595 5.95958 26.8839C5.7113 27.1311 5.57187 27.4639 5.57128 27.8108C5.57681 27.9746 5.60813 28.1365 5.66414 28.2908C5.01133 36.4459 4.55268 44.6091 4.28818 52.7807C4.73263 52.6668 5.1957 52.6403 5.65065 52.7028C6.1056 52.7653 6.5434 52.9156 6.93879 53.1449C7.04853 49.6357 7.18359 46.1266 7.3693 42.6256C7.60566 38.0902 7.918 33.5712 8.27254 29.044C8.62708 29.044 8.98162 29.044 9.33616 29.044C9.44249 29.0597 9.55061 29.0597 9.65694 29.044C17.4231 28.9116 25.5859 29.1019 33.0988 29.284L46.9512 29.6068C51.0453 29.7061 55.1816 29.9213 59.2757 29.7392C58.7749 46.441 58.6764 63.1484 58.9803 79.8612C59.0225 82.2862 59.0816 84.7111 59.1407 87.1361C59.1913 89.2052 59.4277 91.3405 58.7102 93.3434C47.7363 92.88 36.8215 92.9213 25.8814 93.0455L16.3257 93.1448C14.1647 93.1448 11.9446 93.1034 9.76668 93.2524C9.66326 93.2357 9.55775 93.2357 9.45434 93.2524C8.89046 93.2704 8.326 93.2455 7.76605 93.1779L7.24268 93.0952C7.18359 91.8372 7.14139 90.6122 7.09074 89.3128C6.39136 89.9891 5.44772 90.3669 4.46545 90.3639C4.52454 91.7213 4.57519 93.0704 4.64272 94.4277C4.65535 94.641 4.71947 94.8482 4.82979 95.0325C4.94012 95.2167 5.0935 95.3726 5.27731 95.4874C5.46111 95.6021 5.67009 95.6725 5.88704 95.6926C6.10398 95.7127 6.32269 95.6819 6.52516 95.6029H6.57581C7.22104 95.7313 7.87617 95.806 8.53422 95.8264V96.0002C9.02383 96.0002 9.47967 95.9009 9.83421 95.8678C11.0245 95.7602 12.1978 95.8016 13.3881 95.7933C16.1231 95.7933 19.8626 95.7271 22.5977 95.6857C28.0677 95.6195 33.5716 95.5616 39.0078 95.5698C45.8961 95.5698 52.7843 95.6774 59.6641 95.9837C59.9714 96.0272 60.2846 95.9642 60.5497 95.8055C60.8147 95.6469 61.015 95.4025 61.116 95.1146Z" fill="#1E1E1E"/>
<path d="M62.0023 69.1845C61.9235 60.5439 61.9601 51.9033 62.1121 43.2627C62.1965 38.341 62.3175 33.4165 62.4751 28.4893C62.4819 28.2383 62.4023 27.9925 62.2492 27.7913C62.096 27.5901 61.8783 27.4453 61.6309 27.3803C61.3254 27.1728 60.9533 27.0815 60.5842 27.1237C56.0427 27.4216 51.4505 27.1651 46.9006 27.0575C42.3507 26.9499 37.6657 26.8423 33.0482 26.7347C29.5788 26.6519 25.9658 26.5692 22.3275 26.5112C22.3275 26.5857 22.3275 26.6602 22.3275 26.7347C22.6106 27.0011 22.951 27.2019 23.3236 27.3223C23.7451 27.5451 24.2216 27.6484 24.6996 27.6203H25.0119C25.2737 27.6896 25.5429 27.7284 25.8139 27.7361C37.3533 28.3072 48.935 27.819 60.4829 27.4962C60.0017 30.5005 60.9303 33.6455 61.0822 36.6747C61.2933 40.9205 61.0822 45.1746 60.9809 49.4204C60.8037 57.7547 62.3231 66.2712 60.9809 74.5476C60.827 75.4071 61.0046 76.2921 61.479 77.0305H62.0783C62.0699 74.382 62.0192 71.7502 62.0023 69.1845Z" fill="#1E1E1E"/>
<path d="M6.93054 53.1862C6.53516 52.9569 6.09734 52.8067 5.64239 52.7442C5.18744 52.6817 4.72438 52.7081 4.27993 52.8221C3.98167 61.7992 3.92539 70.7764 4.1111 79.7536C4.17864 83.2876 4.30525 86.8216 4.44876 90.3556C5.43102 90.3585 6.37466 89.9807 7.07405 89.3045C6.60133 77.2706 6.55349 65.2311 6.93054 53.1862Z" fill="#1E1E1E"/>
<path d="M21.4498 25.4849C21.2304 25.0718 21.1256 24.6094 21.1459 24.1441V24.0116C21.142 23.3912 21.3114 22.7816 21.6355 22.2487L22.1926 21.5453C22.6346 21.1187 23.1811 20.8109 23.7796 20.6515L24.725 20.5273C25.1333 20.5095 25.5403 20.5831 25.9153 20.7425C38.4086 21.3467 50.9526 20.7425 63.446 20.4197C63.9536 20.3979 64.4601 20.4826 64.9316 20.668H64.9907C65.5437 20.6452 66.0936 20.7609 66.5883 21.0042C67.0831 21.2474 67.5065 21.6102 67.8186 22.0584C67.7859 21.2593 67.8255 20.4588 67.9368 19.6665C66.2485 19.7741 64.4758 19.7907 62.7369 19.7658C52.9195 20.0555 43.0767 20.337 33.2678 19.857C33.0004 19.8411 32.7348 19.8023 32.4743 19.7411H32.162C31.6836 19.7619 31.2083 19.6562 30.786 19.4348C30.5088 19.346 30.2491 19.2117 30.0178 19.0376H29.9165L29.8659 19.7494H27.5529L27.6036 19.0376C26.2361 19.0376 24.8686 19.0375 23.5264 19.0789C22.8663 19.0251 22.2027 19.0251 21.5426 19.0789C21.3905 19.0784 21.2402 19.1124 21.1037 19.1782C20.9623 19.2243 20.8347 19.3039 20.7322 19.41C20.6218 19.5184 20.535 19.6476 20.477 19.7899C20.4189 19.9321 20.3909 20.0845 20.3946 20.2376C20.3966 20.3822 20.4252 20.5252 20.479 20.6597C20.3186 22.5799 20.192 24.5083 20.0654 26.4532H22.1082C21.818 26.1825 21.593 25.8516 21.4498 25.4849Z" fill="#1E1E1E"/>
<path d="M68.7808 69.5159H69.2366C68.9253 69.1499 68.6953 68.7242 68.5613 68.2661C68.5516 70.9675 68.34 73.6646 67.9282 76.3356C67.4386 79.3979 63.9691 79.4309 62.1205 77.7011V79.2075C63.8087 79.2572 65.5646 79.3068 67.2782 79.3813C67.5471 79.4229 67.8223 79.3702 68.0555 79.2325C68.2887 79.0947 68.4648 78.8807 68.5528 78.6282C68.7285 78.5079 68.866 78.3415 68.9496 78.1481C69.5526 76.5636 69.7834 74.8663 69.6249 73.1823C69.6249 72.6939 69.6249 72.2139 69.6249 71.7256H68.7808V69.5159Z" fill="#1E1E1E"/>
<path d="M68.4348 41.541C68.5276 37.2869 68.7555 33.0328 68.5361 28.787C68.4854 27.7194 68.3335 26.6435 68.1815 25.551C68.1242 25.7043 68.0566 25.8535 67.9789 25.9979C68.0834 26.5782 68.0281 27.1754 67.8185 27.7277C67.1094 29.7058 67.8776 31.9321 68.0802 33.9598C68.2828 35.9875 68.3503 37.9739 68.3588 39.9768C68.3588 44.0074 68.1477 48.038 68.1393 52.0686C68.1393 56.7199 68.4854 61.3216 68.5529 65.9316C69.6841 57.8869 68.2744 49.6271 68.4348 41.541Z" fill="#1E1E1E"/>
<path d="M22.7412 21.3631C23.0451 21.3631 23.349 21.3631 23.6613 21.3631C23.7536 21.3782 23.8477 21.3782 23.9399 21.3631C30.6931 21.2472 37.7586 21.4128 44.2669 21.57L56.2875 21.8514C59.8414 21.9341 63.429 22.1245 66.9828 21.9673C66.5439 36.462 66.4567 50.954 66.7212 65.4433C66.7212 67.5455 66.8056 69.656 66.8647 71.7582C66.9069 73.5542 67.1095 75.3998 66.4932 77.1379L62.1121 76.9888C62.1121 77.2371 62.1121 77.4772 62.1121 77.7255C63.9608 79.4552 67.4302 79.3807 67.9198 76.3598C68.3317 73.6888 68.5433 70.9917 68.553 68.2903C68.3864 67.7543 68.3488 67.1877 68.4432 66.635C68.4854 66.3867 68.5107 66.1467 68.5445 65.9067C68.477 61.2967 68.1224 56.6951 68.1309 52.0437C68.1309 48.0131 68.3757 43.9825 68.3504 39.9519C68.3504 37.949 68.2744 35.9379 68.0718 33.935C67.8692 31.9321 67.101 29.6809 67.8101 27.7029C68.0196 27.1505 68.075 26.5533 67.9705 25.973C68.0481 25.8286 68.1158 25.6794 68.1731 25.5262C68.0127 24.3592 67.8608 23.1922 67.8101 22.0335C67.498 21.5854 67.0746 21.2224 66.5798 20.9792C66.0851 20.7359 65.5352 20.6202 64.9822 20.643H64.9231C64.4516 20.4576 63.945 20.3729 63.4374 20.3947C50.9441 20.7009 38.4001 21.3217 25.9068 20.7175C25.5318 20.5582 25.1248 20.4846 24.7165 20.5023L23.7711 20.6265C23.1726 20.7859 22.6261 21.0938 22.1841 21.5204L21.627 22.2239C21.3028 22.7567 21.1335 23.3663 21.1374 23.9868V24.1191C21.1677 24.9913 21.5081 25.8258 22.0997 26.478H22.3614C22.488 24.7896 22.6231 23.0763 22.7412 21.3631Z" fill="#1E1E1E"/>
<path d="M44.267 19.3189C39.6917 19.2113 34.8379 19.0954 30.0178 19.0789C30.2491 19.253 30.5088 19.3873 30.786 19.4761C31.2083 19.6974 31.6836 19.8032 32.162 19.7823H32.4743C32.7348 19.8435 33.0003 19.8823 33.2678 19.8982C43.0767 20.3782 52.9195 20.0969 62.7369 19.8072C60.5843 19.8072 58.4317 19.6914 56.2876 19.65L44.267 19.3189Z" fill="#1E1E1E"/>
<path d="M68.2069 25.5515C68.3588 26.644 68.5108 27.7198 68.5614 28.7875C68.7809 33.0333 68.5614 37.2874 68.4601 41.5415C68.2997 49.6275 69.7094 57.8874 68.5783 65.932C68.5783 66.7597 68.5783 67.4963 68.5783 68.2826C68.7123 68.7407 68.9423 69.1663 69.2536 69.5323H69.5828C69.5828 68.8453 69.5406 68.1584 69.5322 67.4714C69.4478 63.6919 69.3915 59.9151 69.3633 56.1411C69.3071 48.6426 69.3408 41.1469 69.4646 33.654C69.5434 29.3834 69.6475 25.11 69.777 20.8339C69.7836 20.6218 69.7196 20.4135 69.5947 20.2403C69.4699 20.0671 69.2908 19.9384 69.0848 19.8738C68.818 19.6947 68.4945 19.6155 68.1731 19.6504H67.9536C67.8423 20.4427 67.8028 21.243 67.8354 22.0422C68.1789 22.5554 68.3919 23.142 68.4565 23.7525C68.5211 24.3631 68.4355 24.98 68.2069 25.5515Z" fill="#1E1E1E"/>
<path d="M67.8186 22.092C67.8692 23.2507 68.0212 24.4177 68.1816 25.5847C68.4086 25.0161 68.4941 24.4027 68.431 23.7953C68.3678 23.1879 68.1579 22.604 67.8186 22.092Z" fill="#1E1E1E"/>
<path d="M68.553 65.9565C68.553 66.1966 68.4939 66.4366 68.4517 66.6849C68.3573 67.2375 68.3949 67.8041 68.5614 68.3402C68.5699 67.496 68.5614 66.718 68.553 65.9565Z" fill="#1E1E1E"/>
<path d="M22.3022 27.4137L22.3528 26.7349L22.1925 26.6025C22.1925 26.6025 22.1418 26.5363 22.108 26.5032H20.0652C20.0652 26.8177 20.0146 27.1239 19.9977 27.4384L22.3022 27.4137Z" fill="#1E1E1E"/>
<path d="M61.5129 76.9641H61.2005V79.1987H62.146V77.6924C61.9039 77.4773 61.6912 77.2325 61.5129 76.9641Z" fill="#1E1E1E"/>
<path d="M62.1122 76.9812H61.5128C61.6815 77.2569 61.8858 77.51 62.1206 77.7344C62.1206 77.4695 62.1122 77.2295 62.1122 76.9812Z" fill="#1E1E1E"/>
<path d="M22.108 26.5032C22.108 26.5032 22.1587 26.5777 22.1925 26.6025L22.3528 26.7349C22.3528 26.6604 22.3528 26.5859 22.3528 26.5115L22.108 26.5032Z" fill="#1E1E1E"/>
<path d="M29.9166 19.0796V18.9969C29.8153 18.9266 29.7193 18.8492 29.6296 18.7651C29.2867 18.4593 29.0307 18.0715 28.8867 17.6395C28.6609 17.2285 28.553 16.7651 28.5744 16.2988V16.1663C28.5775 15.5494 28.7463 14.9442 29.064 14.4117L29.6296 13.7082C30.0661 13.2789 30.6107 12.9706 31.2081 12.8144L32.162 12.682C32.5669 12.6723 32.9694 12.7456 33.3438 12.8972C45.8372 13.5096 58.3811 12.8972 70.8829 12.5744C71.3903 12.5565 71.896 12.641 72.3686 12.8227H72.4277C75.5933 12.8227 76.5893 16.1332 75.4075 18.1527C75.5205 18.7347 75.468 19.336 75.2556 19.8907C74.5465 21.8605 75.3147 24.0869 75.5173 26.1229C75.7199 28.1589 75.779 30.1286 75.7958 32.1315C75.7958 36.1704 75.5848 40.1928 75.5764 44.2234C75.5764 52.3756 76.6738 60.3955 75.3653 68.5063C74.8757 71.5603 71.4232 71.6018 69.5745 69.8885C69.5745 70.5175 69.5745 71.1549 69.5745 71.7839C71.3219 71.8335 73.0693 71.8832 74.8082 71.9659C75.0784 72.0088 75.3552 71.9556 75.589 71.816C75.8227 71.6764 75.9978 71.4595 76.0829 71.2045C76.2605 71.0863 76.3985 70.9193 76.4796 70.7245C77.0826 69.14 77.3134 67.4426 77.1549 65.7586C77.1043 63.8385 77.0536 61.9184 77.0199 59.9651C76.9354 56.1911 76.8792 52.4142 76.851 48.6347C76.7948 41.1362 76.8285 33.6406 76.9523 26.1477C77.0311 21.8771 77.1352 17.6065 77.2647 13.3358C77.2717 13.1227 77.2081 12.9131 77.0833 12.7384C76.9584 12.5638 76.7792 12.4336 76.5725 12.3675C76.3036 12.1929 75.9818 12.114 75.6608 12.144C71.7271 12.4088 67.7343 12.144 63.7921 12.0944L51.7715 11.8129C45.1281 11.6557 37.8938 11.4736 31.0309 11.606C30.3709 11.5481 29.707 11.5481 29.0471 11.606C28.8951 11.597 28.7434 11.6284 28.6082 11.697C28.4647 11.743 28.3364 11.8259 28.2367 11.9371C28.1251 12.0446 28.0375 12.1737 27.9794 12.3161C27.9212 12.4586 27.8939 12.6114 27.8991 12.7647C27.9026 12.9091 27.9312 13.0518 27.9835 13.1868C27.8231 15.1152 27.6881 17.0519 27.5614 18.9803L29.9166 19.0796Z" fill="#1E1E1E"/>
<path d="M31.1995 13.9479C31.2944 13.9639 31.3915 13.9639 31.4865 13.9479C38.2396 13.832 45.3051 14.0058 51.8135 14.1548L63.8341 14.4444C67.3879 14.5189 70.9755 14.7093 74.5294 14.552C74.0904 29.0413 74.0032 43.5333 74.2677 58.028C74.2677 60.1385 74.3521 62.2407 74.4112 64.343C74.4534 66.1389 74.656 67.9846 74.0398 69.7226L69.5658 69.5736V69.9212C71.4145 71.6345 74.8671 71.5765 75.3567 68.539C76.6651 60.4282 75.5424 52.4083 75.5677 44.2561C75.5677 40.2255 75.8125 36.2031 75.7872 32.1643C75.7872 30.1614 75.7112 28.1502 75.5086 26.1556C75.306 24.161 74.5378 21.8932 75.2469 19.9234C75.4593 19.3687 75.5119 18.7674 75.3989 18.1854C76.5807 16.1246 75.5846 12.8553 72.419 12.8553H72.3599C71.8873 12.6736 71.3816 12.5892 70.8742 12.6071C58.3725 12.9216 45.8285 13.5423 33.3351 12.9299C32.9608 12.7784 32.5582 12.7051 32.1533 12.7147L31.1995 12.847C30.602 13.0032 30.0574 13.3116 29.6209 13.7409L29.0553 14.4444C28.7377 14.9769 28.5688 15.5821 28.5657 16.199V16.3315C28.5443 16.7979 28.6522 17.2612 28.8781 17.6722C29.0221 18.1042 29.278 18.492 29.6209 18.7978C29.7106 18.8819 29.8066 18.9593 29.9079 19.0296C30.0261 17.3412 30.1471 15.65 30.2709 13.9561C30.5917 13.923 30.8956 13.9313 31.1995 13.9479Z" fill="#1E1E1E"/>
<path d="M29.8659 19.7906L29.9166 19.0789H27.6036L27.5529 19.7906H29.8659Z" fill="#1E1E1E"/>
<path d="M69.2367 69.5325H68.7808V71.7506H69.625C69.625 71.1216 69.625 70.4843 69.625 69.8553C69.4876 69.7572 69.3578 69.6493 69.2367 69.5325Z" fill="#1E1E1E"/>
<path d="M69.2368 69.5325C69.3405 69.6589 69.4533 69.7779 69.5744 69.8884V69.5408L69.2368 69.5325Z" fill="#1E1E1E"/>
<path d="M12.0882 56.9027L13.2109 55.8018C13.5392 56.1598 13.9624 56.4212 14.4334 56.5571C14.9044 56.693 15.4046 56.6981 15.8784 56.5716C16.5714 56.2639 17.2188 55.8658 17.803 55.388L18.1913 55.1811L18.4446 55.4377C19.3647 56.2654 20.6393 57.3744 22.1588 57.093C23.0878 56.8277 23.9085 56.2836 24.5055 55.537C25.5523 56.4888 26.8016 57.3827 28.3548 57.002C29.0655 56.8288 29.6996 56.4336 30.1613 55.8763C30.1957 55.8108 30.2484 55.7563 30.3132 55.7191C30.4847 55.8473 30.6482 55.9855 30.8028 56.1329C31.8327 56.9606 33.0229 57.7468 34.5677 57.4488C35.3319 57.2866 36.0341 56.9167 36.5937 56.3812L36.8216 56.5716C38.1638 57.6144 39.6157 57.0185 40.8144 56.1991L41.0085 56.0667C41.1267 56.1495 41.2618 56.2322 41.3293 56.2901C41.8041 56.7666 42.3807 57.1341 43.0176 57.3661C43.7489 57.5929 44.5399 57.5457 45.2377 57.2336C45.5706 57.091 45.8718 56.8858 46.1241 56.6295L46.3182 56.4557L46.5293 56.5384C47.2815 57.0151 48.1552 57.2747 49.0508 57.2879C49.9463 57.3011 50.8276 57.0672 51.5941 56.6129C53.2824 55.5949 51.6363 53.2527 49.9565 54.2873C48.6396 55.1149 47.424 53.4597 45.8117 53.6914C45.0965 53.7748 44.4366 54.11 43.9546 54.6348C43.8364 54.5355 43.6929 54.4445 43.617 54.3866C43.1903 53.9466 42.6566 53.62 42.066 53.4376C41.4754 53.2552 40.8472 53.2229 40.2404 53.3438C39.6662 53.4967 39.1369 53.7802 38.6956 54.1714C38.5099 53.9893 38.282 53.799 38.2229 53.7493C37.9251 53.5194 37.5797 53.3558 37.2109 53.27C36.8421 53.1843 36.4586 53.1784 36.0872 53.2527C35.4104 53.4431 34.8168 53.8476 34.3989 54.4032C33.9684 54.817 34.0021 54.9577 33.4872 54.6018C32.9723 54.2459 32.6431 53.8652 32.1197 53.559C31.5979 53.2308 30.9955 53.0468 30.3759 53.0264C29.7564 53.006 29.1427 53.15 28.5996 53.4431C28.2572 53.7002 27.9302 53.9765 27.6204 54.2707C27.5494 54.2018 27.4666 54.1458 27.3756 54.1052L26.8269 53.6169L25.5523 52.483C25.2262 52.2278 24.8214 52.0889 24.4042 52.0889C23.987 52.0889 23.5822 52.2278 23.2562 52.483L21.9309 53.7659L21.551 54.13C21.0023 53.6251 19.9303 52.7479 19.7699 52.6403C19.3751 52.3996 18.9235 52.2631 18.459 52.2443C17.9945 52.2254 17.533 52.3248 17.1193 52.5327C16.4733 52.8985 15.8503 53.302 15.2537 53.741C14.9076 53.4182 14.5868 53.0045 14.3336 52.7645C14.0069 52.5107 13.6023 52.3726 13.1855 52.3726C12.7688 52.3726 12.3642 52.5107 12.0375 52.7645L9.76676 54.9908C8.44989 56.3067 10.7375 58.2269 12.0882 56.9027Z" fill="#1E1E1E"/>
<path d="M13.0082 61.8187C13.3143 61.4775 13.6838 61.1966 14.0972 60.991C14.1478 61.1317 14.1985 61.3055 14.2238 61.3717C14.4656 61.8584 14.8685 62.2502 15.3669 62.4833C15.8652 62.7163 16.4294 62.7767 16.9673 62.6546C17.5228 62.5238 18.0399 62.2689 18.4783 61.9097C18.6893 61.7442 19.0945 61.1814 19.4153 61.0821C19.3309 61.1566 19.6854 61.289 19.8542 61.4049C20.2328 61.7051 20.6303 61.9816 21.0445 62.2325C21.4791 62.4807 21.9655 62.629 22.467 62.6662C22.9685 62.7035 23.4721 62.6288 23.9399 62.4477C24.3348 62.2779 24.6951 62.0396 25.0035 61.7442L25.1808 61.5952C25.7801 62.2573 27.3587 62.5222 28.1775 62.4726C28.926 62.4295 29.6541 62.217 30.3048 61.8518C31.1879 62.4641 32.268 62.7405 33.3437 62.6298C33.7926 62.5959 34.2324 62.4867 34.6437 62.307C34.8294 62.2197 35.0073 62.1173 35.1755 62.0007L35.3527 61.9014C35.5756 62.0278 35.8102 62.1332 36.0534 62.2159C36.6283 62.4089 37.2366 62.4877 37.843 62.4477C39.9111 62.3236 39.928 59.6254 37.843 59.7496C37.0748 59.7496 36.8384 59.3109 36.1547 59.0957C35.4845 58.8869 34.7589 58.9312 34.1203 59.2199C33.6982 59.402 32.508 60.5193 32.145 59.5758C32.0288 59.3401 31.8598 59.1331 31.6506 58.9704C31.4414 58.8077 31.1974 58.6935 30.9369 58.6362C30.6764 58.5789 30.406 58.5801 30.146 58.6396C29.886 58.6991 29.643 58.8154 29.4353 58.9798C29.047 59.2612 28.3548 59.8571 27.747 59.8075C27.3587 59.7495 26.9957 59.253 26.6749 59.0627C26.2088 58.7867 25.6747 58.6408 25.1301 58.6408C24.5856 58.6408 24.0515 58.7867 23.5854 59.0627C23.2181 59.2786 22.8948 59.5592 22.6315 59.8903V59.9399C22.6315 59.9399 22.5639 59.94 22.5471 59.8903C21.8922 59.2324 21.0659 58.763 20.1581 58.533C19.6591 58.4232 19.1416 58.4212 18.6417 58.5269C18.1417 58.6327 17.6712 58.8437 17.2627 59.1454C17.1783 59.2034 16.9588 59.3606 16.7393 59.5344L16.714 59.3358C15.127 57.2998 12.1641 58.5081 10.729 59.9399C9.29399 61.3717 11.6492 63.1677 13.0082 61.8187Z" fill="#1E1E1E"/>
<path d="M51.324 64.8394C50.4618 64.8236 49.6038 64.961 48.7916 65.245C48.3992 65.4501 47.9737 65.5872 47.5338 65.6505C47.2297 65.5707 46.9434 65.436 46.6896 65.2533C45.9595 64.8147 45.1142 64.596 44.2585 64.6242C43.5627 64.679 42.8894 64.8915 42.2917 65.245C42.1772 65.3247 42.0523 65.3887 41.9202 65.4353C41.8767 65.404 41.8371 65.3679 41.8021 65.3277C41.5048 65.0506 41.1624 64.8241 40.7891 64.6574C40.111 64.3654 39.3513 64.3098 38.6365 64.5001C37.8346 64.6987 37.3365 65.3277 36.5852 65.5678C35.9859 65.725 35.3612 65.3029 34.8041 65.0959C34.0661 64.7786 33.2715 64.607 32.4658 64.5911C31.5373 64.5911 30.9295 65.0463 30.0684 65.1953C29.3425 65.3277 28.7431 64.707 28.0256 64.5332C27.1693 64.3474 26.278 64.3874 25.4425 64.6491C24.6744 64.8726 23.5348 65.7167 22.6991 65.6505C22.1419 65.6008 21.6608 64.9139 21.188 64.6574C20.8301 64.4573 20.4335 64.3326 20.0236 64.2912C19.6137 64.2499 19.1996 64.2928 18.8076 64.4173C17.9434 64.7957 17.159 65.329 16.4946 65.9899L16.2836 66.1471C15.9038 65.7386 15.4978 65.3543 15.068 64.9966C13.3797 63.1841 11.6914 64.6739 10.2142 65.8243C8.73692 66.9747 10.9823 68.9114 12.5102 67.7279C12.696 67.5789 12.9239 67.4299 13.1433 67.2727C13.6807 67.9074 14.3442 68.4283 15.0933 68.8038C16.9082 69.6314 18.2335 68.3237 19.4322 67.3637L19.7446 67.1568C19.9897 67.4027 20.275 67.607 20.5887 67.761C21.3723 68.2207 22.2933 68.4019 23.1971 68.2742C24.059 68.1453 24.8958 67.8885 25.6789 67.5127C26.0646 67.2861 26.4973 67.1475 26.9451 67.1072C27.3908 67.2075 27.8161 67.381 28.2029 67.6203C28.9756 67.9516 29.8352 68.0356 30.6593 67.8603C31.0892 67.7335 31.5119 67.5843 31.9256 67.4134C31.8982 67.1609 31.9401 66.9058 32.0471 66.6746C32.1541 66.4433 32.3223 66.2444 32.5341 66.0984C32.746 65.9523 32.9938 65.8644 33.2519 65.8439C33.51 65.8233 33.7691 65.8709 34.0021 65.9816C34.7569 66.4618 35.6349 66.7228 36.5346 66.7347C37.3787 66.6353 38.0118 66.0064 38.8391 65.8574C39.6904 65.7535 40.5546 65.8326 41.3715 66.0892C42.0188 66.2826 42.7159 66.2354 43.3299 65.9567C44.0507 65.6532 44.8487 65.5724 45.6176 65.725C46.3267 65.8822 47.0189 66.4368 47.7448 66.4781C48.4708 66.5195 49.2727 65.9899 50.0156 65.8906C50.4594 65.8121 50.9139 65.8121 51.3578 65.8906C51.5604 65.9347 51.763 65.9843 51.9655 66.0395C52.0236 66.024 52.0848 66.024 52.1428 66.0395C52.3563 65.8748 52.6137 65.7741 52.8841 65.7494C53.1546 65.7247 53.4265 65.7772 53.6673 65.9005C53.908 66.0237 54.1073 66.2125 54.2412 66.4442C54.3751 66.6759 54.4379 66.9406 54.422 67.2065C54.8902 67.0533 55.3273 66.8208 55.7135 66.5196C57.2499 65.3443 54.9538 63.4407 53.4175 64.616C53.0123 65.0546 51.9233 64.8394 51.324 64.8394Z" fill="#1E1E1E"/>
<path d="M52.1682 66.1224C52.1102 66.1069 52.049 66.1069 51.991 66.1224C51.7884 66.0617 51.5858 66.0121 51.3832 65.9734C50.9394 65.895 50.4848 65.895 50.041 65.9734C49.2982 66.0728 48.5131 66.6024 47.7702 66.561C47.0274 66.5196 46.3521 65.9651 45.643 65.8078C44.8742 65.6553 44.0762 65.7361 43.3554 66.0396C42.7414 66.3183 42.0442 66.3655 41.397 66.1721C40.58 65.9155 39.7158 65.8364 38.8645 65.9403C38.0204 66.0893 37.3788 66.7183 36.56 66.8176C35.6603 66.8058 34.7824 66.5447 34.0276 66.0645C33.7945 65.9538 33.5355 65.9062 33.2773 65.9268C33.0192 65.9473 32.7714 66.0352 32.5595 66.1813C32.3477 66.3273 32.1796 66.5263 32.0726 66.7575C31.9656 66.9888 31.9236 67.2438 31.951 67.4963C32.2203 67.3968 32.508 67.3545 32.7951 67.3721C33.5205 67.5667 34.2268 67.8243 34.9055 68.1419C35.7203 68.4177 36.5978 68.4637 37.4379 68.2743C38.1593 68.0661 38.8329 67.7231 39.4217 67.2645C39.4639 67.2645 39.4217 67.2149 39.4639 67.19C39.5061 67.1652 39.6496 67.3721 39.6918 67.4052C40.0509 67.7156 40.47 67.952 40.9242 68.1004C41.6276 68.3008 42.3773 68.2806 43.0684 68.0425C43.4318 67.9054 43.787 67.7478 44.132 67.5707C44.5625 67.3721 44.4781 67.4135 44.8242 67.488C45.2361 67.6625 45.634 67.8672 46.0144 68.1004C46.4281 68.2805 46.8711 68.387 47.3229 68.4149C48.454 68.4811 49.2728 67.9929 50.2942 67.7197C51.2087 67.5965 52.1331 67.5605 53.0546 67.6122C53.5254 67.585 53.9906 67.4988 54.439 67.3555C54.468 67.0856 54.4153 66.8133 54.2874 66.5725C54.1596 66.3318 53.9622 66.1333 53.7201 66.0018C53.4779 65.8703 53.2016 65.8116 52.9257 65.833C52.6497 65.8544 52.3863 65.9551 52.1682 66.1224Z" fill="#1E1E1E"/>
<path d="M20.4958 4.47131C20.5533 4.1618 20.6527 3.86122 20.7913 3.5775C20.8876 3.5516 20.9869 3.53766 21.0867 3.53607C22.9659 3.34851 24.858 3.31807 26.7425 3.44504C29.0301 3.52781 29.0301 0.134492 26.7425 0.0434512C25.1471 -0.0144837 23.5516 -0.0144837 21.9562 0.0434512C20.4958 0.126215 18.9933 0.200715 18.0309 1.4008C17.2677 2.55796 16.7988 3.87774 16.6634 5.24935C16.5365 5.98066 16.4519 6.71838 16.4102 7.45908C16.4102 7.80669 16.4102 8.22054 16.4608 8.62609C16.1485 8.62609 15.8362 8.70058 15.5238 8.73368L13.6751 8.95716C13.1474 8.96195 12.6281 9.08796 12.1589 9.32512C11.6898 9.56228 11.2839 9.90401 10.9739 10.3228C10.5472 11.1803 10.4197 12.1515 10.6109 13.0871L10.7713 14.9741C10.7713 15.2141 10.8641 15.5452 10.9148 15.8762C10.5518 15.8762 10.1804 15.8762 9.84273 15.9424L7.08237 16.2073L1.78115 16.7204C1.31791 16.7265 0.874745 16.9068 0.543253 17.2241C0.211761 17.5414 0.0172777 17.9714 0 18.4253C0.0110511 18.8805 0.203839 19.3133 0.536916 19.6306C0.869993 19.9479 1.31676 20.1243 1.78115 20.122L7.29341 19.5923C8.9817 19.4268 10.7544 19.3772 12.4342 19.0792C14.5024 18.715 14.5108 17.0267 14.3673 15.388C14.2914 14.5603 14.2154 13.7327 14.1479 12.905C14.1479 12.905 14.1479 12.5987 14.1479 12.3339H14.3082C15.1946 12.2098 16.0894 12.1187 16.9757 12.0111C17.7743 12.0124 18.5523 11.7629 19.1959 11.2994C20.403 10.182 19.9049 8.34473 20.04 6.91291C20.1108 6.0865 20.2635 5.26874 20.4958 4.47131Z" fill="#1E1E1E"/>
<path d="M75.3567 88.0213C76.7496 88.0213 78.2437 88.0875 79.1976 86.9288C80.0417 85.919 79.9404 84.4873 79.9911 83.2706C79.9911 82.443 80.0417 81.5656 80.0417 80.7132C81.3417 80.7132 82.6417 80.6636 83.9417 80.5725C84.4041 80.5664 84.8463 80.3858 85.1764 80.0683C85.5066 79.7508 85.6992 79.3207 85.7144 78.8675C85.6968 78.4197 85.5018 77.9962 85.1708 77.6871C84.8397 77.378 84.3988 77.2076 83.9417 77.2123C82.0452 77.3447 80.1458 77.3944 78.2437 77.3613C77.7785 77.3611 77.3318 77.5394 76.9989 77.858C76.6661 78.1766 76.4736 78.6102 76.4626 79.0662C76.4626 80.0262 76.4626 80.9863 76.4626 81.9463C76.4626 82.9064 76.3191 83.7258 76.3359 84.6114H75.3398L72.4613 84.6776C71.4483 84.6776 70.4269 84.6776 69.6672 85.4391C68.9075 86.2005 69.0172 87.2929 69.0172 88.253C69.0172 90.1979 69.0172 92.1512 69.0172 94.1044C69.0172 96.2977 72.571 96.2977 72.571 94.1044V88.0626H73.2717L75.3567 88.0213Z" fill="#1E1E1E"/>
</svg>
