<svg width="83" height="91" viewBox="0 0 83 91" fill="none" xmlns="http://www.w3.org/2000/svg">
<path d="M53.434 27.0585L61.6159 82.4576L16.1095 89.1784L12.0186 61.4789L9.4115 33.5602L53.434 27.0585Z" fill="white"/>
<path d="M64.1005 62.4156C63.7929 60.6682 63.4982 58.9118 63.2045 57.1623C61.1971 45.1017 59.4821 32.9955 58.0597 20.8438C55.1669 21.4052 52.2077 21.7081 49.2812 22.0415L39.3963 23.2614C34.0437 23.9179 28.2128 24.6379 22.714 25.5488C22.6403 25.5726 22.5631 25.584 22.4857 25.5825C22.2298 25.6203 21.9807 25.6571 21.7317 25.6939C21.8253 27.1411 21.9466 28.5843 22.0619 30.0355C25.0504 29.6435 28.0212 29.2753 30.8744 28.9245C34.6715 28.4555 38.4695 27.9934 42.2655 27.5175C46.0615 27.0415 49.8018 26.715 53.4866 25.9167C53.7839 25.8368 54.1 25.868 54.3759 26.0042C54.5866 26.0285 54.7829 26.123 54.9332 26.2724C55.0835 26.4218 55.179 26.6173 55.2044 26.8276C55.6872 30.9585 56.1951 35.0833 56.728 39.202C57.6778 46.4308 58.713 53.6471 59.8334 60.8507C60.1538 63.0197 60.5295 65.1806 60.8844 67.3446L64.4928 66.9387C64.75 65.4255 64.3565 63.9095 64.1005 62.4156Z" fill="#00A99D"/>
<path d="M59.4983 18.8597C59.6751 18.8887 59.8377 18.9744 59.9614 19.1039C60.0851 19.2333 60.1632 19.3995 60.1839 19.5772C60.601 23.1672 61.0425 26.7466 61.5083 30.3153C62.3311 36.5887 63.2274 42.849 64.1972 49.0961C64.6901 52.242 65.2018 55.3874 65.7322 58.5325C65.8169 59.1058 65.9016 59.6791 66.0278 60.2464L69.7123 59.8293C70.003 58.3041 69.6095 56.7881 69.3535 55.2942C69.046 53.5468 68.7522 51.7973 68.4575 50.0409C66.4494 37.9757 64.7345 25.8695 63.3127 13.7224C60.4199 14.2838 57.4607 14.5867 54.5352 14.927L44.6493 16.14C39.2977 16.8034 33.4658 17.5165 27.967 18.4274C27.8912 18.4523 27.8116 18.464 27.7318 18.4621C27.4828 18.4989 27.2338 18.5357 26.9778 18.5735C27.0806 20.003 27.1899 21.4291 27.3058 22.8519L27.399 22.9087C31.3488 22.3254 35.3425 21.8485 39.1049 21.3846L48.9909 20.1716C50.7479 19.9121 52.5271 19.7552 54.2951 19.5223C55.7139 19.2704 57.1248 19.0126 58.5447 18.7676C58.5434 18.7817 58.5455 18.796 58.5508 18.8091L58.7306 18.7826C58.9876 18.7165 59.2597 18.7438 59.4983 18.8597Z" fill="#FBB03B"/>
<path d="M50.0099 61.0027C49.2066 61.3543 48.5958 61.8609 47.6607 61.9425C47.2871 61.9739 46.9109 61.9386 46.5498 61.8384C46.2092 61.6898 45.858 61.567 45.4989 61.4713C45.2061 61.451 45.2702 61.4062 44.9419 61.6241C44.681 61.8136 44.4094 61.9881 44.1285 62.1465C43.5915 62.4289 42.9797 62.5366 42.3786 62.4544C41.9881 62.3855 41.6156 62.2389 41.283 62.0233C41.2484 62.0284 41.155 61.9222 41.0697 61.8713C40.9845 61.8204 41.0697 61.8713 41.0443 61.9386C40.6184 62.3926 40.1087 62.7603 39.5432 63.0214C38.8781 63.2811 38.1534 63.3491 37.4517 63.2174C36.8564 63.0345 36.2459 62.905 35.6275 62.8303C35.39 62.8504 35.1595 62.9205 34.9511 63.0361C35.0013 63.1839 35.0874 63.3169 35.2018 63.4232C35.3162 63.5295 35.4553 63.6058 35.6065 63.6452C37.2523 64.1644 38.9408 64.4939 40.4618 63.4504C40.7182 63.2086 41.0291 63.0319 41.3682 62.9354C41.7389 62.9192 42.1102 62.9448 42.4751 63.0119C43.2903 63.1086 44.1159 62.9547 44.8414 62.5706C45.0835 62.3823 45.3614 62.2452 45.6583 62.1677C46.0139 62.1894 46.3639 62.2662 46.6957 62.3956C47.4545 62.6116 48.264 62.5691 48.9962 62.2747C49.3485 62.1238 49.6481 61.9031 50.0153 61.7571C50.3456 61.66 50.6942 61.6424 51.0326 61.7057C51.423 61.7504 51.8184 61.6972 52.183 61.5509C52.5477 61.4047 52.8702 61.1699 53.1212 60.8678C53.2734 60.6804 53.3561 60.4463 53.3555 60.205C53.0057 60.3788 52.6351 60.5071 52.2527 60.5867C51.4934 60.6529 50.7424 60.7922 50.0099 61.0027Z" fill="#FBB03B"/>
<path d="M21.7271 44.2794C21.8045 44.5286 21.9689 44.7417 22.1904 44.88C22.4119 45.0183 22.6757 45.0726 22.934 45.033C31.0048 44.1327 39.0263 42.8987 46.9985 41.3307C47.2803 41.2856 47.534 41.1341 47.7071 40.9076C47.8801 40.681 47.9594 40.3966 47.9284 40.1134C47.7942 40.1553 47.6577 40.1896 47.5195 40.2161C38.974 41.8264 30.3765 43.1808 21.7271 44.2794Z" fill="#FBB03B"/>
<path d="M17.2692 84.303C17.6319 83.83 17.8718 83.2747 17.9675 82.6866C18.0632 82.0986 18.0117 81.4961 17.8175 80.9329C16.6301 77.0566 16.6137 72.7816 15.8401 68.7878C15.0665 64.794 15.0698 60.749 14.4968 56.7256C14.4545 56.178 14.266 55.6518 13.9509 55.2018C13.6358 54.7518 13.2057 54.3944 12.7053 54.1668C13.8758 64.2617 15.3971 74.3071 17.2692 84.303Z" fill="#00A99D"/>
<path d="M10.4824 54.1916C9.85416 54.4731 9.3429 54.9634 9.03561 55.5789C8.72832 56.1943 8.64398 56.8971 8.79694 57.5674C10.0569 66.0986 10.0369 75.1999 12.5823 83.4847C13.071 85.0713 14.1712 85.6288 15.2475 85.4981C14.6942 82.5658 14.1548 79.6315 13.6639 76.6901C12.4058 69.2245 11.3453 61.7249 10.4824 54.1916Z" fill="#00A99D"/>
<path d="M14.5999 40.6734C21.1852 39.7008 27.7952 38.9599 34.43 38.4505C36.2469 38.3093 35.889 35.934 34.0801 36.0812C27.4487 36.6136 20.8387 37.3545 14.25 38.3041C14.0777 38.3067 13.908 38.3459 13.7522 38.4193C13.5963 38.4927 13.458 38.5985 13.3463 38.7296C13.2347 38.8607 13.1524 39.0141 13.1049 39.1795C13.0574 39.3449 13.0459 39.5185 13.071 39.6887C13.0962 39.8589 13.1574 40.0218 13.2507 40.1664C13.3439 40.311 13.4671 40.434 13.6118 40.5273C13.7566 40.6205 13.9196 40.6818 14.09 40.707C14.2604 40.7322 14.4343 40.7207 14.5999 40.6734Z" fill="#1E1E1E"/>
<path d="M15.9515 44.9912C17.8768 44.7704 19.8049 44.5209 21.7271 44.2793C21.6667 44.128 21.6428 43.9646 21.6573 43.8023C21.6717 43.64 21.7241 43.4834 21.8103 43.345C21.8964 43.2066 22.0139 43.0903 22.1533 43.0055C22.2926 42.9207 22.4499 42.8698 22.6126 42.8569C30.6834 41.9566 38.7049 40.7226 46.6771 39.1546C46.8243 39.1163 46.9784 39.1121 47.1274 39.1423C47.2765 39.1724 47.4167 39.2361 47.5374 39.3286C47.658 39.421 47.756 39.5398 47.8237 39.6757C47.8915 39.8117 47.9273 39.9613 47.9284 40.1132C50.1839 39.4484 49.7541 37.3519 47.1685 37.8397C36.7162 39.8116 26.1938 41.4057 15.6016 42.6218C12.8698 42.9335 13.2197 45.3029 15.9515 44.9912Z" fill="#1E1E1E"/>
<path d="M46.6771 39.1547C38.7088 40.7174 30.6873 41.9515 22.6126 42.857C22.4499 42.87 22.2926 42.9209 22.1532 43.0057C22.0139 43.0905 21.8964 43.2068 21.8103 43.3451C21.7241 43.4835 21.6717 43.6401 21.6572 43.8024C21.6428 43.9647 21.6667 44.1281 21.7271 44.2795C30.3613 43.1737 38.9587 41.8192 47.5195 40.2161C47.6576 40.1896 47.7942 40.1554 47.9284 40.1134C47.9273 39.9615 47.8915 39.8119 47.8237 39.6759C47.756 39.5399 47.658 39.4212 47.5374 39.3287C47.4167 39.2363 47.2765 39.1726 47.1274 39.1424C46.9784 39.1123 46.8243 39.1165 46.6771 39.1547Z" fill="#1E1E1E"/>
<path d="M26.7344 78.1832C26.8118 78.4324 26.9762 78.6454 27.1977 78.7837C27.4191 78.922 27.683 78.9763 27.9412 78.9367C36.0127 78.0411 44.0342 76.807 52.0058 75.2344C52.2875 75.1893 52.5412 75.0379 52.7143 74.8113C52.8874 74.5847 52.9667 74.3003 52.9357 74.0171C52.8014 74.0591 52.6649 74.0934 52.5268 74.1199C43.9812 75.7302 35.3838 77.0846 26.7344 78.1832Z" fill="#FBB03B"/>
<path d="M19.6071 74.5771C26.1924 73.6045 32.8024 72.8635 39.4373 72.3542C41.2531 72.206 40.8952 69.8307 39.0863 69.9778C32.4549 70.5102 25.8448 71.2512 19.2562 72.2007C19.0865 72.2074 18.9201 72.2497 18.7679 72.3248C18.6156 72.3999 18.4808 72.5062 18.3724 72.6367C18.2639 72.7672 18.1842 72.9191 18.1384 73.0824C18.0926 73.2457 18.0817 73.4168 18.1065 73.5846C18.1313 73.7523 18.1911 73.913 18.2822 74.0561C18.3733 74.1992 18.4935 74.3216 18.635 74.4152C18.7766 74.5088 18.9363 74.5715 19.1038 74.5994C19.2713 74.6273 19.4428 74.6197 19.6071 74.5771Z" fill="#1E1E1E"/>
<path d="M52.1758 71.7434C41.7234 73.7153 31.2011 75.3094 20.6088 76.5256C17.8286 76.8444 18.1785 79.2138 20.9587 78.8949C22.884 78.6741 24.8121 78.4247 26.7343 78.1831C26.674 78.0318 26.65 77.8684 26.6645 77.7061C26.6789 77.5438 26.7313 77.3871 26.8175 77.2487C26.9036 77.1103 27.0211 76.994 27.1605 76.9093C27.2998 76.8245 27.4572 76.7735 27.6198 76.7606C35.6899 75.8558 43.7115 74.6217 51.6843 73.0583C51.8315 73.0214 51.985 73.0183 52.1335 73.049C52.282 73.0797 52.4216 73.1435 52.542 73.2357C52.6623 73.3279 52.7602 73.446 52.8283 73.5813C52.8965 73.7166 52.9332 73.8655 52.9356 74.017C55.1911 73.3521 54.7614 71.2557 52.1758 71.7434Z" fill="#1E1E1E"/>
<path d="M51.6843 73.0583C43.7161 74.621 35.6945 75.8551 27.6198 76.7606C27.4572 76.7736 27.2998 76.8245 27.1605 76.9093C27.0211 76.994 26.9036 77.1103 26.8175 77.2487C26.7313 77.3871 26.6789 77.5438 26.6645 77.7061C26.65 77.8684 26.674 78.0318 26.7343 78.1831C35.3685 77.0774 43.966 75.7229 52.5267 74.1198C52.6649 74.0933 52.8014 74.059 52.9356 74.017C52.9332 73.8655 52.8965 73.7166 52.8283 73.5813C52.7602 73.446 52.6623 73.3279 52.5419 73.2357C52.4216 73.1435 52.282 73.0797 52.1335 73.049C51.985 73.0183 51.8315 73.0214 51.6843 73.0583Z" fill="#1E1E1E"/>
<path d="M62.2699 82.6121C62.4161 82.4723 62.5218 82.2957 62.5761 82.101C62.9133 80.5051 62.8916 78.8545 62.5126 77.2682C62.1908 75.4241 61.8768 73.5858 61.565 71.7614C61.4415 70.9255 61.3171 70.0828 61.158 69.2452L60.3833 69.3596L60.1068 67.4875L60.3628 67.4497C59.883 66.8909 59.6284 66.1737 59.6486 65.4377C59.7213 58.3684 57.4264 51.4442 56.5512 44.4655C56.097 40.9116 55.7594 37.3334 55.063 33.8152C54.5651 31.3053 53.4166 28.7927 53.4405 26.227C44.0174 27.8939 34.5892 29.717 25.0608 30.6231C24.8378 30.6494 24.6124 30.6495 24.3894 30.6234L24.1334 30.6612C23.7452 30.7425 23.342 30.7141 22.9692 30.5791C22.649 30.5237 22.3453 30.3972 22.0805 30.2091L22.1227 30.7817L20.2343 31.0606C20.1955 30.7981 20.1923 30.5374 20.1743 30.2719C17.1791 30.7142 14.1709 31.1162 11.251 31.5898C10.6205 31.6441 9.99549 31.7505 9.38254 31.908C9.23715 31.92 9.09801 31.9724 8.98077 32.0591C8.85297 32.1249 8.74336 32.2211 8.66166 32.3392C8.48868 32.5756 8.41545 32.8703 8.45773 33.1599C8.48245 33.2959 8.52807 33.4272 8.59299 33.5493C9.06331 40.4348 9.69374 47.3037 10.4843 54.1561C10.8345 54.0072 11.2107 53.929 11.5912 53.9262C11.9717 53.9233 12.349 53.9957 12.7012 54.1393C12.3586 51.1971 12.0367 48.2518 11.7573 45.3073C11.3919 41.4932 11.0908 37.6837 10.8233 33.8623C11.1138 33.8193 11.4043 33.7764 11.6948 33.7335C11.7839 33.7337 11.8725 33.7206 11.9577 33.6947C18.3053 32.6443 25.0178 31.8152 31.1966 31.058L42.5876 29.6509C45.9548 29.2383 49.3708 28.9173 52.7032 28.2699C54.3516 42.2705 56.3304 56.2271 58.6396 70.1395C58.9731 72.1584 59.3204 74.1751 59.6677 76.192C59.9643 77.9128 60.4212 79.6664 60.0801 81.425C51.0305 82.3662 42.0916 83.7217 33.1421 85.1494L25.324 86.3887C23.5531 86.6503 21.7288 86.8844 19.9625 87.2723C19.8757 87.2709 19.7892 87.2837 19.7065 87.3101C19.2467 87.3933 18.7811 87.4409 18.3139 87.4523L17.8748 87.4466C17.6714 86.4037 17.4858 85.3864 17.2841 84.308C16.7943 84.9571 16.0677 85.3866 15.2624 85.5031C15.4781 86.6288 15.6859 87.7487 15.9086 88.8734C15.9452 89.0499 16.0233 89.2151 16.1364 89.3555C16.2495 89.4959 16.3944 89.6075 16.5592 89.6811C16.724 89.7546 16.9039 89.788 17.0841 89.7785C17.2644 89.769 17.4398 89.7169 17.596 89.6264L17.6375 89.6203C18.1821 89.6493 18.7281 89.6325 19.2699 89.5698L19.2913 89.7149C19.6925 89.6557 20.0538 89.5176 20.3402 89.447C21.3023 89.2132 22.2689 89.1058 23.2432 88.9548C25.4844 88.6238 28.5406 88.116 30.7767 87.7504C35.251 87.0331 39.7539 86.3187 44.2096 85.6677C49.8541 84.834 55.5119 84.0902 61.1872 83.5132C61.4445 83.5123 61.6933 83.4218 61.891 83.2573C62.0886 83.0928 62.2226 82.8646 62.2699 82.6121Z" fill="#1E1E1E"/>
<path d="M59.7998 60.8625C58.6701 53.6602 57.635 46.444 56.6944 39.2138C56.1569 35.0958 55.649 30.971 55.1708 26.8395C55.1454 26.6292 55.0499 26.4336 54.8996 26.2842C54.7493 26.1348 54.553 26.0403 54.3423 26.016C54.0664 25.8798 53.7502 25.8487 53.453 25.9285C49.7682 26.7268 45.9736 27.0685 42.2319 27.5293C38.4902 27.9902 34.6378 28.4673 30.8408 28.9364C27.9876 29.2872 25.0168 29.6553 22.0283 30.0473C22.0375 30.1095 22.0467 30.1716 22.0559 30.2338C22.3207 30.4219 22.6243 30.5483 22.9445 30.6037C23.3174 30.7387 23.7206 30.7672 24.1088 30.6859L24.3647 30.6481C24.5878 30.6742 24.8131 30.674 25.0362 30.6477C34.5625 29.7278 43.9928 27.9186 53.4159 26.2517C53.3919 28.8174 54.5405 31.33 55.0384 33.8399C55.7347 37.3581 56.0862 40.9342 56.5265 44.4902C57.4086 51.4678 59.7036 58.3921 59.6239 65.4624C59.6038 66.1984 59.8583 66.9155 60.3381 67.4744L60.8292 67.4019C60.4959 65.1924 60.1299 63.0019 59.7998 60.8625Z" fill="#1E1E1E"/>
<path d="M12.6994 54.1747C12.3471 54.0312 11.9698 53.9588 11.5893 53.9617C11.2088 53.9646 10.8326 54.0427 10.4825 54.1916C11.3446 61.7204 12.4051 69.2199 13.6639 76.6901C14.1549 79.6316 14.6943 82.5659 15.2475 85.4982C16.0528 85.3817 16.7794 84.9522 17.2692 84.3031C15.3984 74.3164 13.8751 64.2735 12.6994 54.1747Z" fill="#1E1E1E"/>
<path d="M21.1824 29.2972C20.9517 28.9789 20.8088 28.6057 20.7681 28.2149L20.7518 28.1043C20.6722 27.587 20.7358 27.0577 20.9357 26.5737L21.3055 25.9191C21.6151 25.5096 22.025 25.1866 22.4958 24.9811L23.2552 24.763C23.5876 24.6988 23.9302 24.7109 24.2571 24.7986C34.5691 23.7908 44.7737 21.7684 54.9715 19.987C55.3848 19.9074 55.8103 19.9168 56.2196 20.0145L56.268 20.0074C56.7184 19.9214 57.1832 19.9514 57.6186 20.0946C58.054 20.2377 58.4457 20.4893 58.7567 20.8256C58.6314 20.1625 58.5651 19.4897 58.5587 18.8149C57.1885 19.109 55.7379 19.3374 54.3099 19.5271C46.3008 20.957 38.2699 22.3832 30.1729 23.1696C29.9518 23.1887 29.7294 23.1885 29.5084 23.1689L29.2524 23.2067C28.863 23.282 28.4605 23.2513 28.0872 23.1177C27.8491 23.0771 27.6197 22.9964 27.4087 22.8791L27.3257 22.8913L27.372 23.4915L25.4766 23.7715L25.4304 23.1713C24.3098 23.3368 23.1892 23.5022 22.0944 23.6992C21.5469 23.7342 21.0032 23.8145 20.4689 23.9393C20.3441 23.9573 20.2252 24.0038 20.1214 24.0753C20.0112 24.1308 19.9165 24.2127 19.8456 24.3137C19.7685 24.4175 19.7133 24.5359 19.6833 24.6616C19.6533 24.7874 19.6491 24.9179 19.671 25.0453C19.6904 25.1657 19.7315 25.2816 19.7922 25.3874C19.8974 27.0094 20.0314 28.6343 20.1674 30.273L21.8413 30.0257C21.5702 29.8349 21.3451 29.586 21.1824 29.2972Z" fill="#1E1E1E"/>
<path d="M65.3952 60.3184L65.7687 60.2633C65.4685 59.9954 65.2276 59.668 65.0613 59.3019C65.3864 61.5578 65.5454 63.8344 65.5372 66.1136C65.5135 68.7288 62.6746 69.1762 60.9465 67.9562L61.1321 69.2135C62.5217 69.0506 63.9666 68.8796 65.38 68.7343C65.6055 68.7365 65.8246 68.6593 65.9987 68.5161C66.1727 68.3729 66.2907 68.173 66.3317 67.9515C66.4608 67.8299 66.553 67.6743 66.5976 67.5028C66.8965 66.1074 66.8764 64.6627 66.5389 63.2764C66.4787 62.8688 66.4195 62.4682 66.3593 62.0606L65.6676 62.1628L65.3952 60.3184Z" fill="#1E1E1E"/>
<path d="M61.6633 37.012C61.215 33.4501 60.8773 29.8719 60.1741 26.3547C60.001 25.4698 59.7439 24.5902 59.4847 23.6967C59.4566 23.8316 59.4196 23.9643 59.3737 24.0942C59.5309 24.5659 59.5592 25.0711 59.4555 25.5574C59.1183 27.2942 60.0222 29.0594 60.4382 30.7273C60.8542 32.3952 61.1544 34.0449 61.4082 35.7156C61.905 39.0797 62.2289 42.4693 62.7189 45.8345C63.2922 49.7167 64.1431 53.5155 64.7667 57.355C64.7019 50.5037 62.5286 43.7803 61.6633 37.012Z" fill="#1E1E1E"/>
<path d="M21.7327 25.7006C21.9817 25.6638 22.2307 25.627 22.4867 25.5892C22.5641 25.5907 22.6413 25.5793 22.715 25.5555C28.2345 24.6415 34.0447 23.9246 39.3973 23.2682L49.2822 22.0482C52.2046 21.6872 55.1679 21.4119 58.0607 20.8506C59.4877 33.0016 61.2026 45.1078 63.2054 57.1691C63.4646 58.9237 63.7939 60.6749 64.1015 62.4224C64.3574 63.9163 64.751 65.4322 64.4602 66.9574L60.8518 67.3633C60.8824 67.5705 60.912 67.7708 60.9426 67.9781C62.6707 69.1981 65.5045 68.716 65.5334 66.1354C65.5416 63.8562 65.3825 61.5795 65.0574 59.3236C64.8549 58.8964 64.7542 58.428 64.7635 57.9553C64.7674 57.743 64.7586 57.5396 64.7567 57.3352C64.1331 53.4957 63.2753 49.6979 62.7089 45.8146C62.212 42.4505 61.9158 39.0568 61.3982 35.6958C61.1513 34.0241 60.8411 32.3547 60.4282 30.7076C60.0153 29.0604 59.1083 27.2744 59.4456 25.5376C59.5492 25.0513 59.5209 24.5461 59.3638 24.0744C59.4096 23.9445 59.4467 23.8118 59.4747 23.6769C59.1994 22.7223 58.9311 21.7667 58.7467 20.8058C58.4357 20.4695 58.044 20.2178 57.6086 20.0747C57.1732 19.9315 56.7084 19.9015 56.258 19.9875L56.2096 19.9946C55.8003 19.8969 55.3748 19.8875 54.9616 19.9671C44.7617 21.7347 34.5592 23.7709 24.2471 24.7787C23.9202 24.691 23.5776 24.6789 23.2452 24.7431L22.4858 24.9612C22.015 25.1667 21.6051 25.4898 21.2955 25.8993L20.9257 26.5539C20.7258 27.0379 20.6622 27.5672 20.7418 28.0845L20.7581 28.195C20.8905 28.9193 21.2723 29.5746 21.8375 30.0473L22.0519 30.0156C21.9476 28.5911 21.847 27.1448 21.7327 25.7006Z" fill="#1E1E1E"/>
<path d="M39.1198 21.3892C35.3573 21.8532 31.3656 22.3438 27.4138 22.9134C27.6248 23.0307 27.8542 23.1114 28.0922 23.152C28.4656 23.2856 28.8681 23.3163 29.2575 23.241L29.5135 23.2032C29.7345 23.2228 29.9569 23.223 30.178 23.2039C38.275 22.4175 46.3059 20.9914 54.315 19.5615C52.5511 19.822 50.7729 19.9858 49.0108 20.2108L39.1198 21.3892Z" fill="#1E1E1E"/>
<path d="M59.5054 23.6936C59.7646 24.587 60.0218 25.4666 60.1949 26.3516C60.8981 29.8687 61.2426 33.4459 61.684 37.0088C62.5494 43.7772 64.7227 50.5006 64.7875 57.3519C64.8895 58.0427 64.9803 58.6575 65.0772 59.3138C65.2435 59.6799 65.4844 60.0072 65.7846 60.275L66.0544 60.2352C65.9697 59.6618 65.8505 59.0936 65.7589 58.5213C65.2238 55.3769 64.7121 52.2315 64.2238 49.0849C63.2534 42.8333 62.3571 36.5729 61.5349 30.3041C61.073 26.7301 60.6316 23.1508 60.2105 19.5661C60.1898 19.3883 60.1117 19.2222 59.988 19.0927C59.8643 18.9633 59.7018 18.8775 59.525 18.8485C59.2842 18.7313 59.0094 18.7044 58.7504 18.7724L58.5705 18.799C58.577 19.4737 58.6432 20.1465 58.7685 20.8095C59.1132 21.1964 59.36 21.6601 59.4883 22.1619C59.6165 22.6637 59.6224 23.189 59.5054 23.6936Z" fill="#1E1E1E"/>
<path d="M58.7608 20.8531C58.9451 21.814 59.2135 22.7696 59.4887 23.7242C59.6047 23.2222 59.5991 22.6999 59.4725 22.2006C59.3459 21.7012 59.1019 21.2393 58.7608 20.8531Z" fill="#1E1E1E"/>
<path d="M64.7698 57.3758C64.7993 57.5762 64.7805 57.7836 64.7765 57.996C64.7673 58.4687 64.8679 58.937 65.0705 59.3643C64.9733 58.6587 64.8705 58.0103 64.7698 57.3758Z" fill="#1E1E1E"/>
<path d="M22.1188 30.8035L22.0767 30.2309L21.9289 30.1398C21.9289 30.1398 21.8792 30.0906 21.8475 30.0671L20.1735 30.3143C20.2123 30.5768 20.2085 30.8385 20.2334 31.1031L22.1188 30.8035Z" fill="#1E1E1E"/>
<path d="M60.3577 67.4153L60.1017 67.4531L60.3772 69.3182L61.1519 69.2037L60.9663 67.9466C60.7414 67.7963 60.5369 67.6177 60.3577 67.4153Z" fill="#1E1E1E"/>
<path d="M60.8508 67.3565L60.3596 67.4291C60.5318 67.6387 60.7304 67.8253 60.9505 67.9842C60.9179 67.7631 60.8814 67.5638 60.8508 67.3565Z" fill="#1E1E1E"/>
<path d="M21.8475 30.0671C21.8475 30.0671 21.8981 30.1231 21.9289 30.1398L22.0766 30.2309C22.0674 30.1687 22.0583 30.1066 22.0491 30.0444L21.8475 30.0671Z" fill="#1E1E1E"/>
<path d="M27.3309 22.9259L27.3207 22.8568C27.229 22.8105 27.1408 22.7574 27.0569 22.6981C26.7383 22.4844 26.4807 22.1917 26.3094 21.8486C26.0737 21.5328 25.9282 21.1592 25.8882 20.7673L25.8719 20.6568C25.7984 20.1415 25.8622 19.6159 26.0568 19.1331L26.4336 18.4775C26.7383 18.0663 27.1466 17.743 27.6169 17.5404L28.3822 17.3144C28.7129 17.2574 29.0517 17.2698 29.3772 17.351C39.6903 16.3502 49.8938 14.3209 60.0986 12.5384C60.5121 12.4621 60.9369 12.4715 61.3466 12.5659L61.395 12.5588C63.989 12.1757 65.2133 14.8182 64.4938 16.6467C64.6582 17.1188 64.6893 17.6271 64.5836 18.1157C64.2453 19.8456 65.1493 21.6109 65.5662 23.2857C65.9832 24.9605 66.2745 26.5974 66.5352 28.2671C67.0331 31.6381 67.356 35.0208 67.8459 38.386C68.8508 45.1902 70.7386 51.751 70.6663 58.679C70.6415 61.2873 67.8175 61.7397 66.0914 60.5335C66.1689 61.0585 66.2475 61.5904 66.325 62.1154C67.763 61.9454 69.201 61.7753 70.6362 61.634C70.8629 61.6371 71.0832 61.5592 71.2575 61.4143C71.4318 61.2695 71.5486 61.0673 71.5868 60.8442C71.7178 60.724 71.8103 60.568 71.8528 60.3955C72.1516 59.0001 72.1315 57.5554 71.794 56.1691C71.5158 54.5726 71.2376 52.9761 70.9692 51.35C70.4348 48.2102 69.9231 45.0647 69.4342 41.9135C68.4637 35.6618 67.5674 29.4016 66.7452 23.1328C66.2834 19.5588 65.8423 15.9818 65.4219 12.4017C65.4014 12.2229 65.3234 12.0556 65.1996 11.925C65.0758 11.7944 64.9129 11.7074 64.7353 11.6772C64.4935 11.5641 64.2201 11.5372 63.9607 11.601C60.7699 12.2981 57.4654 12.5603 54.2289 12.996L44.344 14.2158C38.8807 14.8886 32.9301 15.6122 27.3227 16.5532C26.7748 16.5848 26.2308 16.6651 25.6971 16.7933C25.5714 16.8042 25.451 16.8488 25.3486 16.9224C25.2368 16.9782 25.1419 17.0629 25.0739 17.1677C24.9957 17.271 24.9398 17.3893 24.9097 17.5153C24.8796 17.6412 24.8761 17.772 24.8992 17.8994C24.9199 18.0195 24.9609 18.1351 25.0204 18.2415C25.1267 19.8704 25.2548 21.5032 25.3887 23.128L27.3309 22.9259Z" fill="#1E1E1E"/>
<path d="M27.7497 18.4876C27.8295 18.4895 27.909 18.4778 27.9849 18.4529C33.5044 17.5389 39.3156 16.8288 44.6672 16.1655L54.5531 14.9525C57.4745 14.5845 60.4378 14.3092 63.3306 13.7479C64.757 25.8943 66.4719 38.0005 68.4754 50.0664C68.7355 51.8279 69.0638 53.5723 69.3714 55.3197C69.6274 56.8136 70.0209 58.3295 69.7302 59.8547L66.0456 60.2718L66.0885 60.562C67.8146 61.7682 70.6366 61.3019 70.6634 58.7075C70.7357 51.7795 68.8271 45.2217 67.843 38.4144C67.3461 35.0503 67.0509 31.6635 66.5323 28.2956C66.2854 26.6239 65.9752 24.9544 65.5633 23.3142C65.1514 21.6739 64.2424 19.8741 64.5807 18.1442C64.6863 17.6556 64.6553 17.1473 64.4909 16.6752C65.2053 14.8121 63.9861 12.2041 61.3921 12.5872L61.3437 12.5943C60.934 12.4999 60.5092 12.4906 60.0957 12.5669C49.8899 14.3424 39.6874 16.3787 29.3743 17.3795C29.0488 17.2983 28.7099 17.2859 28.3793 17.3429L27.614 17.5688C27.1437 17.7714 26.7354 18.0948 26.4307 18.5059L26.0539 19.1615C25.8592 19.6444 25.7955 20.17 25.869 20.6852L25.8853 20.7958C25.9253 21.1877 26.0708 21.5613 26.3065 21.8771C26.4778 22.2201 26.7354 22.5129 27.054 22.7266C27.1379 22.7859 27.2261 22.8389 27.3178 22.8853C27.2065 21.4618 27.0972 20.0357 26.9898 18.6069C27.2486 18.5404 27.4986 18.5106 27.7497 18.4876Z" fill="#1E1E1E"/>
<path d="M27.377 23.5258L27.3308 22.9256L25.4355 23.2056L25.4817 23.8058L27.377 23.5258Z" fill="#1E1E1E"/>
<path d="M65.7708 60.2771L65.3972 60.3322L65.6706 62.1836L66.3624 62.0814C66.2848 61.5564 66.2063 61.0245 66.1287 60.4995C66.0041 60.4343 65.8844 60.3599 65.7708 60.2771Z" fill="#1E1E1E"/>
<path d="M65.7708 60.2771C65.8713 60.3701 65.9785 60.4557 66.0913 60.5333L66.0485 60.2431L65.7708 60.2771Z" fill="#1E1E1E"/>
<path d="M17.3839 56.6523L18.1682 55.5976C18.4814 55.8567 18.8604 56.0237 19.2631 56.0801C19.6658 56.1365 20.0764 56.0802 20.449 55.9173C20.9789 55.5766 21.4604 55.1659 21.8802 54.6965L22.1729 54.4768L22.4121 54.6603C23.2681 55.2398 24.4493 56.0112 25.6597 55.5924C26.3882 55.2586 26.9937 54.705 27.3909 54.0097C28.366 54.6774 29.4999 55.2723 30.7258 54.7666C31.2868 54.536 31.7576 54.1295 32.0673 53.6084C32.0875 53.5496 32.1239 53.4977 32.1724 53.4588C32.3288 53.545 32.4798 53.6406 32.6247 53.7449C33.5706 54.3111 34.6428 54.8232 35.872 54.3876C36.4782 54.1597 37.008 53.766 37.4005 53.2514L37.6108 53.3827C38.8392 54.0906 39.9555 53.4175 40.8367 52.5885L40.9795 52.4546C41.0865 52.5093 41.2074 52.562 41.2699 52.6022C41.7177 52.9424 42.2355 53.1793 42.786 53.2959C43.4131 53.3967 44.0555 53.2616 44.5889 52.9167C44.8441 52.7574 45.0656 52.5496 45.2407 52.3052L45.3784 52.1366L45.5615 52.1801C46.2367 52.4869 46.9847 52.5979 47.7202 52.5005C48.4557 52.4031 49.149 52.1012 49.7211 51.6293C50.9791 50.5753 49.3415 48.8197 48.0925 49.8865C47.1154 50.7366 45.9153 49.5022 44.6226 49.8907C44.0468 50.0469 43.5474 50.4066 43.2171 50.9029C43.108 50.8343 42.9792 50.7757 42.9098 50.7366C42.506 50.421 42.0284 50.213 41.5219 50.1322C41.0155 50.0515 40.4967 50.1005 40.0144 50.2748C39.5627 50.4719 39.164 50.7727 38.8505 51.1526C38.6759 51.0231 38.4657 50.8918 38.4111 50.8575C38.1387 50.7016 37.8356 50.6069 37.5228 50.5799C37.21 50.553 36.895 50.5945 36.5998 50.7015C36.0687 50.9423 35.6321 51.3517 35.3582 51.866C35.0564 52.2635 35.1014 52.3768 34.6356 52.1421C34.1698 51.9074 33.8531 51.6295 33.3865 51.4372C32.9184 51.2265 32.4021 51.1458 31.8919 51.2038C31.3817 51.2618 30.8966 51.4562 30.4877 51.7665C30.2388 52.0226 30.0049 52.2928 29.7873 52.5758C29.7206 52.5269 29.6458 52.4902 29.5663 52.4673L29.0565 52.1261L27.8722 51.334C27.5736 51.1605 27.2247 51.0935 26.8829 51.144C26.541 51.1945 26.2264 51.3594 25.9907 51.6119L25.0628 52.843L24.7964 53.1929C24.2846 52.8379 23.2979 52.2355 23.1532 52.1651C22.8001 52.0119 22.4132 51.9527 22.0302 51.9932C21.6473 52.0337 21.2813 52.1725 20.9679 52.3961C20.4837 52.7796 20.0229 53.1917 19.5882 53.6304C19.2648 53.4029 18.9509 53.0963 18.7138 52.9267C18.4148 52.7544 18.0663 52.6881 17.7248 52.7385C17.3832 52.7889 17.0687 52.9532 16.8323 53.2045L15.246 55.3375C14.3291 56.5952 16.4404 57.921 17.3839 56.6523Z" fill="#1E1E1E"/>
<path d="M18.7439 60.6442C18.9527 60.3223 19.2209 60.0432 19.5342 59.8216C19.5931 59.9329 19.656 60.0718 19.6849 60.124C19.943 60.5009 20.3215 60.7792 20.7586 60.9134C21.1957 61.0476 21.6655 61.0297 22.0912 60.8627C22.5303 60.6863 22.9226 60.411 23.2375 60.0581C23.3901 59.8944 23.6527 59.3757 23.9033 59.2539C23.8434 59.3263 24.1502 59.394 24.3028 59.4702C24.65 59.675 25.0099 59.8576 25.3802 60.017C25.7669 60.1715 26.1838 60.2364 26.5993 60.2068C27.0149 60.1772 27.4183 60.0539 27.7793 59.8462C28.082 59.6567 28.3479 59.4142 28.5642 59.1303L28.6911 58.9845C29.2638 59.4646 30.59 59.4946 31.2549 59.3541C31.8629 59.2275 32.4334 58.9621 32.9215 58.5785C33.7207 58.9827 34.6398 59.0827 35.5076 58.86C35.8714 58.7774 36.2182 58.6331 36.5331 58.4333C36.6746 58.338 36.8077 58.231 36.9312 58.1133L37.0642 58.009C37.2624 58.0875 37.4676 58.1471 37.6771 58.1867C38.172 58.2782 38.6802 58.2704 39.1721 58.1636C40.8515 57.8097 40.5328 55.5556 38.8395 55.9116C38.2101 56.0046 37.9623 55.667 37.3755 55.5702C36.8005 55.477 36.2114 55.6018 35.7237 55.92C35.4003 56.1231 34.5627 57.1997 34.1489 56.4562C34.0247 56.2735 33.8607 56.1212 33.6692 56.0107C33.4777 55.9002 33.2637 55.8344 33.0432 55.8182C32.8226 55.8019 32.6012 55.8355 32.3955 55.9167C32.1897 55.9978 32.005 56.1243 31.855 56.2867C31.5715 56.5685 31.0778 57.1497 30.5736 57.1818C30.2483 57.1804 29.8896 56.8099 29.6033 56.6899C29.1873 56.5159 28.7316 56.4588 28.2854 56.5247C27.8392 56.5906 27.4195 56.777 27.0716 57.0638C26.7973 57.2885 26.5669 57.5618 26.3919 57.87L26.398 57.9114C26.398 57.9114 26.3427 57.9196 26.3228 57.8802C25.705 57.4104 24.9701 57.1186 24.1978 57.0365C23.7754 57.0053 23.3511 57.0662 22.9545 57.2149C22.5578 57.3637 22.1983 57.5968 21.9007 57.898C21.8387 57.9566 21.6782 58.1144 21.5198 58.286L21.4746 58.1233C19.9231 56.6161 17.6441 57.9832 16.6447 59.3519C15.6452 60.7206 17.7965 61.9346 18.7439 60.6442Z" fill="#1E1E1E"/>
<path d="M50.5139 58.5284C49.8054 58.6195 49.1193 58.838 48.4887 59.1734C48.1924 59.392 47.8607 59.558 47.508 59.6641C47.2489 59.6342 46.9977 59.5565 46.7673 59.4347C46.115 59.157 45.3953 59.0768 44.6976 59.2039C44.1342 59.3338 43.6086 59.5927 43.1624 59.96C43.0784 60.0404 42.9839 60.1089 42.8815 60.1638C42.842 60.143 42.805 60.1176 42.7714 60.0883C42.4936 59.893 42.1851 59.7454 41.8587 59.6514C41.267 59.4898 40.6376 59.5354 40.0754 59.7806C39.4427 60.0435 39.1121 60.6288 38.5261 60.92C38.0543 61.1238 37.4904 60.8471 37.0084 60.7418C36.3645 60.5662 35.6922 60.5192 35.0301 60.6034C34.2692 60.7158 33.8272 61.1693 33.14 61.3978C32.5615 61.5962 31.9938 61.1507 31.3844 61.0925C30.6598 61.041 29.9344 61.1823 29.282 61.5018C28.6801 61.7813 27.8503 62.6238 27.1573 62.6697C26.6947 62.6956 26.2157 62.1805 25.7967 62.0236C25.4787 61.8999 25.1384 61.8438 24.7974 61.8589C24.4564 61.8741 24.1223 61.96 23.8165 62.1114C23.155 62.5317 22.5779 63.0718 22.115 63.7038L21.9614 63.8605C21.5999 63.5655 21.2198 63.294 20.8235 63.0474C19.2166 61.739 18.0168 63.1867 16.9481 64.3257C15.8794 65.4646 17.9581 66.8093 19.0643 65.6366C19.1981 65.4898 19.3665 65.3378 19.5269 65.18C20.0455 65.6448 20.6534 65.9993 21.3136 66.222C22.9028 66.6931 23.8276 65.4413 24.6915 64.4949L24.922 64.2844C25.1532 64.46 25.4122 64.596 25.6882 64.6866C26.3869 64.9754 27.164 65.0151 27.8889 64.7992C28.5792 64.5873 29.2333 64.2717 29.8287 63.8633C30.1168 63.6275 30.4544 63.4594 30.8163 63.3716C31.1939 63.4014 31.5638 63.4947 31.9102 63.6476C32.5843 63.8306 33.299 63.7967 33.9528 63.5507C34.2894 63.3928 34.6173 63.2171 34.9352 63.0244C34.8817 62.817 34.8846 62.599 34.9438 62.393C35.003 62.1871 35.1162 62.0007 35.2718 61.8532C35.4274 61.7056 35.6197 61.6023 35.8287 61.5539C36.0376 61.5055 36.2558 61.5139 36.4604 61.578C37.1381 61.8875 37.8897 61.9991 38.6284 61.9001C39.3079 61.7151 39.7492 61.1135 40.4087 60.889C41.0935 60.6993 41.8114 60.6607 42.5125 60.776C43.0667 60.8591 43.6321 60.7353 44.1009 60.4284C44.6542 60.0879 45.2981 59.9238 45.947 59.9581C46.5474 60.0035 47.183 60.3826 47.7829 60.3293C48.3829 60.276 48.9748 59.7369 49.5713 59.5641C49.9253 59.4449 50.2978 59.3898 50.6711 59.4016C50.8426 59.4139 51.0147 59.4308 51.1875 59.4524C51.2332 59.4324 51.2833 59.425 51.3328 59.4309C51.4874 59.2676 51.6859 59.1524 51.9045 59.0991C52.123 59.0458 52.3524 59.0566 52.5648 59.1304C52.7773 59.2041 52.9639 59.3376 53.1022 59.5147C53.2405 59.6919 53.3246 59.9053 53.3443 60.1291C53.7091 59.9446 54.0386 59.6977 54.318 59.3995C55.432 58.2326 53.3159 56.9217 52.2018 58.0885C51.9239 58.5037 51.005 58.4559 50.5139 58.5284Z" fill="#1E1E1E"/>
<path d="M51.3637 59.4969C51.3142 59.491 51.2641 59.4984 51.2184 59.5183C51.0449 59.4922 50.8728 59.4753 50.702 59.4676C50.3287 59.4558 49.9562 59.5108 49.6022 59.63C49.0057 59.8028 48.4277 60.3399 47.8139 60.3953C47.2 60.4506 46.5783 60.0695 45.9779 60.0241C45.329 59.9898 44.6851 60.1538 44.1318 60.4944C43.6631 60.8013 43.0976 60.925 42.5434 60.8419C41.8423 60.7267 41.1244 60.7652 40.4396 60.955C39.7662 61.1815 39.3181 61.7842 38.6593 61.9661C37.9206 62.0652 37.169 61.9535 36.4913 61.644C36.2867 61.5798 36.0685 61.5715 35.8596 61.6199C35.6506 61.6682 35.4583 61.7716 35.3027 61.9191C35.1472 62.0667 35.0339 62.2531 34.9747 62.4591C34.9155 62.665 34.9126 62.8829 34.9662 63.0904C35.1745 62.9748 35.4051 62.9046 35.6426 62.8846C36.261 62.9592 36.8715 63.0888 37.4668 63.2716C38.1685 63.4033 38.8932 63.3354 39.5583 63.0757C40.1237 62.8146 40.6334 62.4468 41.0594 61.9928C41.094 61.9877 41.0533 61.9514 41.0848 61.9255C41.1163 61.8997 41.2594 62.055 41.2981 62.0776C41.6306 62.2932 42.0032 62.4398 42.3937 62.5086C42.9948 62.5908 43.6066 62.4832 44.1436 62.2008C44.4245 62.0424 44.6961 61.8679 44.957 61.6783C45.2853 61.4604 45.2212 61.5052 45.514 61.5255C45.873 61.6213 46.2243 61.744 46.5648 61.8926C46.926 61.9928 47.3022 62.0281 47.6758 61.9967C48.6108 61.9151 49.2216 61.4085 50.025 61.0569C50.7591 60.8434 51.5122 60.7014 52.2736 60.633C52.6561 60.5534 53.0267 60.4251 53.3764 60.2513C53.3669 60.0225 53.2901 59.8016 53.1557 59.6161C53.0213 59.4307 52.8351 59.2889 52.6205 59.2085C52.4058 59.128 52.1722 59.1124 51.9487 59.1637C51.7252 59.215 51.5217 59.3309 51.3637 59.4969Z" fill="#1E1E1E"/>
<path d="M17.8103 11.8728C17.8193 11.6075 17.8636 11.3446 17.9423 11.091C18.018 11.0577 18.0976 11.0341 18.1792 11.0207C19.696 10.6367 21.2427 10.3823 22.8026 10.2602C24.6874 10.0525 24.2691 7.22025 22.3833 7.42112C21.0688 7.56585 19.7614 7.75894 18.4612 8.00038C17.2747 8.2462 16.0526 8.49023 15.412 9.60833C14.9292 10.6665 14.7076 11.8248 14.7658 12.986C14.7519 13.6117 14.7735 14.2377 14.8307 14.861C14.8735 15.1511 14.9245 15.4965 15.016 15.8289C14.7601 15.8667 14.5133 15.9666 14.2615 16.0321L12.7741 16.4423C12.3422 16.5102 11.9322 16.6782 11.577 16.9329C11.2219 17.1877 10.9314 17.522 10.7289 17.9091C10.485 18.6764 10.5002 19.5025 10.7722 20.2602L11.1363 21.8158C11.1659 22.0161 11.2828 22.2811 11.3651 22.5513C11.0676 22.5953 10.7633 22.6402 10.4947 22.7363L8.26544 23.2915L3.98464 24.3613C3.60579 24.4224 3.26486 24.6265 3.03234 24.9315C2.79981 25.2365 2.69345 25.6189 2.73525 25.9999C2.80041 26.3784 3.01175 26.7164 3.3238 26.9409C3.63584 27.1654 4.02369 27.2586 4.40395 27.2004L8.85564 26.0912C10.2187 25.7487 11.6652 25.4927 13.005 25.0408C14.6549 24.4865 14.4537 23.0763 14.1341 21.726C13.9698 21.0444 13.8055 20.3628 13.6481 19.6802C13.6481 19.6802 13.6104 19.4245 13.5777 19.2035L13.7092 19.1841C14.4202 18.9732 15.1422 18.7889 15.8552 18.5918C16.5098 18.4962 17.1166 18.1939 17.5867 17.7291C18.4382 16.6504 17.8036 15.1772 17.7378 13.9658C17.6939 13.2675 17.7182 12.5665 17.8103 11.8728Z" fill="#1E1E1E"/>
<path d="M73.065 74.9686C74.2063 74.8 75.4388 74.6744 76.0776 73.5919C76.6449 72.6469 76.3854 71.4642 76.2769 70.4426C76.1749 69.7518 76.1083 69.0134 76.0032 68.3019C77.0685 68.1446 78.1276 67.9459 79.1816 67.7125C79.5598 67.6515 79.8999 67.4472 80.1313 67.1423C80.3627 66.8373 80.4675 66.455 80.4241 66.075C80.3545 65.7033 80.1425 65.3734 79.8331 65.1555C79.5238 64.9376 79.1414 64.8487 78.7674 64.9079C77.2297 65.248 75.6794 65.5193 74.1166 65.7219C73.7354 65.7781 73.3913 65.981 73.1578 66.2872C72.9244 66.5934 72.8201 66.9785 72.8672 67.3604C72.9856 68.1617 73.1039 68.963 73.2223 69.7643C73.3406 70.5656 73.324 71.267 73.447 72.004L72.6308 72.1246L70.2802 72.5282C69.4501 72.6508 68.6131 72.7744 68.0844 73.5019C67.5557 74.2294 67.7803 75.1279 67.8986 75.9292C68.1384 77.5525 68.3792 79.1828 68.6199 80.813C68.8903 82.6436 71.8025 82.2135 71.5321 80.383L70.7873 75.3402L71.3615 75.2554L73.065 74.9686Z" fill="#1E1E1E"/>
</svg>
