<svg width="368" height="393" viewBox="0 0 368 393" fill="none" xmlns="http://www.w3.org/2000/svg">
<path d="M340.445 389.951C381.999 376.244 364.583 327.261 360.57 297.385C355.449 263.606 350.851 229.004 346.461 195.022L333.4 99.3103C329.061 68.0812 330.526 31.7818 305.172 9.2493C295.162 -0.361456 275.168 -3.70919 263.043 5.16061C183.828 61.9127 105.45 119.136 26.9062 175.696C22.1349 179.128 18.1523 183.54 15.2254 188.636C13.6034 189.214 12.1082 190.099 10.8215 191.243C-1.79749 203.765 -3.2944 226.954 10.9068 238.169C58.3457 275.22 110.125 306.352 165.098 330.874C192.853 343.782 221.836 355.656 250.619 366.885C263.166 372.358 276.166 376.96 288.505 381.813C305.495 388.042 321.155 396.784 340.445 389.951Z" fill="white"/>
</svg>
