<svg width="132" height="35" viewBox="0 0 132 35" fill="none" xmlns="http://www.w3.org/2000/svg">
<path d="M28.255 0.0493251C24.2941 -0.533453 23.7101 4.18841 22.8134 6.79732C21.8472 9.77105 20.8045 12.7907 19.7702 15.7511L16.914 24.1175C15.9884 26.8505 14.3803 29.7604 15.5302 32.6437C15.9548 33.8406 17.4529 34.9345 18.8083 34.7061C27.6147 33.3117 36.3717 31.8444 45.1152 30.4382C45.6462 30.3531 46.1529 30.1554 46.6012 29.8585C46.7576 29.8777 46.9162 29.8667 47.0683 29.8258C48.6139 29.3188 49.6872 27.483 48.9855 25.983C46.6245 21.006 43.6658 16.3353 40.1749 12.0743C38.4339 9.87994 36.5502 7.71973 34.6564 5.62058C33.8546 4.65818 32.9799 3.7485 32.1696 2.84535C31.0354 1.63887 30.113 0.281424 28.255 0.0493251Z" fill="#00A99D"/>
<path fill-rule="evenodd" clip-rule="evenodd" d="M7.45348 25.5892C7.42073 25.5375 7.38797 25.4858 7.34867 25.4415C7.13902 25.1167 7.13903 24.7033 7.24385 24.2899C7.32246 23.9355 7.58451 23.5812 7.84656 23.404C8.10862 23.2268 8.58031 23.1087 8.86856 23.2564C10.1526 23.847 11.4367 24.4966 12.7207 25.1463C13.0352 25.2939 13.2186 25.6778 13.3234 26.0321C13.4283 26.416 13.3497 26.8294 13.1924 27.1838C13.0352 27.5086 12.7207 27.7744 12.4063 27.863C12.0394 27.9811 11.7249 27.8925 11.3843 27.7153C10.4671 27.2428 9.57611 26.7999 8.65892 26.357C8.56721 26.3127 8.48205 26.2758 8.39688 26.2389C8.31171 26.2019 8.22654 26.165 8.13482 26.1207C7.92518 26.0321 7.71554 25.914 7.55831 25.7368C7.519 25.6925 7.48624 25.6409 7.45348 25.5892ZM50.226 19.7571C33.9552 23.0931 17.3314 23.3379 0.979213 20.5222C-0.161637 20.3386 -0.351781 18.2575 0.653255 17.7066C2.48681 16.7731 4.31357 15.832 6.14033 14.8908C7.96701 13.9497 9.79368 13.0086 11.6272 12.0752C13.2026 11.2489 14.5608 13.8809 12.9853 14.7073C10.7308 15.9009 8.44907 17.0639 6.16737 18.2269C20.5638 20.2162 35.2047 19.7265 49.4925 16.7884C51.2038 16.4517 51.9372 19.3898 50.226 19.7571Z" fill="#1E1E1E"/>
<path d="M111.326 1.8408C114.515 4.26157 111.551 7.98385 110.316 10.4505C108.869 13.222 107.442 16.0804 106.052 18.8912L102.076 26.7874C100.772 29.3615 99.8198 32.5468 96.9557 33.7439C95.8038 34.2785 93.9739 33.9743 93.1882 32.8464C88.0197 25.5813 82.9378 18.3002 77.8217 11.0717C77.5108 10.6329 77.2973 10.1327 77.1955 9.60469C77.0723 9.50648 76.9692 9.38547 76.8919 9.24823C76.1721 7.78952 76.7319 5.73797 78.2943 5.18916C83.5013 3.39144 88.908 2.23499 94.3946 1.74547C97.1804 1.45273 100.042 1.28588 102.866 1.16901C104.115 1.06797 105.377 1.05587 106.589 1.00234C108.245 0.967822 109.86 0.676381 111.326 1.8408Z" fill="#00A99D"/>
<path fill-rule="evenodd" clip-rule="evenodd" d="M123.746 11.9206C123.779 11.9722 123.812 12.0239 123.851 12.0682C124.061 12.393 124.061 12.8065 123.956 13.2199C123.877 13.5742 123.615 13.9286 123.353 14.1057C123.091 14.2829 122.62 14.401 122.331 14.2534C121.047 13.6628 119.763 13.0132 118.479 12.3635C118.165 12.2159 117.981 11.832 117.876 11.4776C117.772 11.0937 117.85 10.6803 118.007 10.326C118.165 10.0011 118.479 9.73538 118.794 9.64679C119.161 9.52868 119.475 9.61726 119.816 9.79444C120.733 10.2669 121.624 10.7099 122.541 11.1528C122.633 11.1971 122.718 11.234 122.803 11.2709C122.888 11.3078 122.973 11.3447 123.065 11.389C123.275 11.4776 123.484 11.5957 123.642 11.7729C123.681 11.8172 123.714 11.8689 123.746 11.9206ZM80.974 17.7527C97.2447 14.4167 113.869 14.1719 130.221 16.9875C131.362 17.1712 131.552 19.2523 130.547 19.8032C128.713 20.7367 126.886 21.6778 125.06 22.6189C123.233 23.56 121.406 24.5011 119.573 25.4345C117.997 26.2609 116.639 23.6288 118.215 22.8025C120.469 21.6089 122.751 20.4459 125.033 19.2829C110.636 17.2936 95.9952 17.7833 81.7074 20.7214C79.9961 21.058 79.2627 18.1199 80.974 17.7527Z" fill="#1E1E1E"/>
</svg>
