<svg width="167" height="166" viewBox="0 0 167 166" fill="none" xmlns="http://www.w3.org/2000/svg">
<g clip-path="url(#clip0)">
<path d="M119.588 161.368C119.597 161.842 119.473 162.309 119.23 162.714C118.986 163.12 118.634 163.446 118.214 163.657C117.836 163.847 117.426 163.964 117.005 164.001C116.034 164.085 115.073 164.127 114.102 164.169C110.228 164.336 106.312 164.169 102.458 164.169C100.051 164.116 97.6337 164.033 95.2264 163.897C93.7181 163.824 91.4968 164.095 90.4223 162.779C89.3479 161.462 89.8231 158.755 89.8231 157.156V150.28C89.8231 145.452 89.8231 140.614 89.8231 135.785C89.7513 132.994 89.8722 130.2 90.1847 127.425C90.3558 126.062 90.6675 124.72 91.1145 123.423C91.1652 123.297 91.2066 123.168 91.2385 123.036C91.3442 122.744 91.516 122.482 91.7403 122.269C91.9646 122.057 92.2351 121.901 92.53 121.813C92.8549 121.569 93.251 121.44 93.6561 121.448C99.0697 121.496 104.487 121.563 109.907 121.646C113.885 121.709 118.7 121.333 119.268 126.432C119.743 130.811 118.947 135.315 118.638 139.694C118.408 144.432 118.547 149.18 119.051 153.896C119.412 156.37 119.592 158.867 119.588 161.368Z" fill="#FBB03B"/>
<path d="M166.079 125.962C166.087 126.482 165.937 126.991 165.649 127.421C165.36 127.851 164.948 128.181 164.468 128.366C164.136 128.493 163.788 128.57 163.435 128.596C162.464 128.679 161.461 128.732 160.469 128.773C158.951 128.836 157.37 128.857 155.862 128.857C154.353 128.857 152.669 128.805 151.078 128.773H148.909C146.477 128.718 144.067 128.627 141.677 128.502C140.158 128.418 137.957 128.7 136.862 127.383C135.767 126.067 136.284 123.36 136.284 121.751C136.284 119.462 136.284 117.173 136.284 114.885V100.328C136.284 97.9134 136.284 95.4785 136.501 93.0749C136.616 91.7291 136.852 90.3966 137.203 89.0933C137.358 88.5917 137.513 88.0483 137.699 87.5885C137.803 87.3001 137.971 87.0402 138.192 86.8297C138.413 86.6192 138.679 86.4639 138.97 86.3763C139.298 86.1284 139.697 85.9963 140.106 86.0001C145.52 86.0628 150.93 86.1324 156.337 86.209C160.325 86.2613 165.15 85.8955 165.707 90.9848C166.193 95.374 165.377 99.8781 165.098 104.246C164.862 108.987 164.993 113.739 165.491 118.459C165.867 120.942 166.063 123.45 166.079 125.962Z" fill="#FBB03B"/>
<path d="M120.063 159.288C120.001 158.693 119.95 158.129 119.929 157.637L118.772 125.44C118.877 124.453 118.632 123.46 118.08 122.639C117.352 122.013 116.441 121.646 115.486 121.594H115.238C108.142 120.313 100.896 120.105 93.7387 120.978L93.2531 121.03L92.3233 121.145C92.1994 121.145 92.0768 121.17 91.963 121.219C91.8492 121.269 91.7466 121.341 91.6614 121.432C91.5763 121.523 91.5104 121.631 91.4679 121.749C91.4254 121.866 91.4071 121.992 91.4141 122.117C91.4191 122.508 91.5607 122.886 91.814 123.182C92.0673 123.479 92.416 123.675 92.7986 123.736C92.9355 123.757 93.0748 123.757 93.2118 123.736C97.0671 123.22 100.958 123.027 104.845 123.162C106.767 123.235 108.668 123.381 110.507 123.601C111.416 123.705 112.304 123.831 113.203 123.987L113.761 124.05C114.409 124.063 115.049 124.194 115.652 124.437C115.744 124.488 115.823 124.561 115.881 124.651C115.938 124.74 115.973 124.842 115.982 124.949C115.982 125.074 115.982 125.21 115.982 125.398L117.253 160.292C117.253 160.48 117.253 160.793 117.253 161.117C117.257 161.468 117.292 161.818 117.356 162.162C117.451 162.264 117.502 162.399 117.501 162.539C117.509 162.672 117.474 162.804 117.401 162.915C117.328 163.026 117.222 163.11 117.098 163.155C116.365 163.295 115.615 163.312 114.877 163.207H114.536H111.674C105.207 163.207 98.5222 163.082 91.2282 162.716C91.0647 162.705 90.9117 162.631 90.8018 162.508C90.6918 162.385 90.6336 162.224 90.6393 162.058C90.8252 157.543 90.5876 152.914 90.3706 148.472C90.2983 146.978 90.226 145.494 90.164 144.01L89.3582 123.904C89.361 123.67 89.2985 123.44 89.1779 123.24C89.0573 123.04 88.8834 122.879 88.6763 122.775C88.4408 122.649 88.1781 122.585 87.9118 122.587C87.6282 122.582 87.349 122.659 87.1059 122.806C86.9324 122.913 86.7938 123.069 86.7075 123.255C86.6211 123.441 86.5908 123.648 86.6204 123.851L87.4159 143.958C87.4779 145.546 87.5605 147.093 87.6432 148.744C88.0154 153.842 88.0775 158.959 87.8291 164.064C87.8214 164.206 87.8422 164.347 87.8902 164.48C87.9381 164.613 88.0122 164.735 88.1081 164.838C88.404 165.16 88.8108 165.354 89.2445 165.381C96.4042 165.789 103.523 165.987 110.445 165.966H115.342H115.982C116.997 166.083 118.024 165.898 118.937 165.433C120.218 164.524 120.26 162.539 120.136 160.731C120.156 160.177 120.105 159.717 120.063 159.288Z" fill="#1E1E1E"/>
<path d="M165.553 103.839C165.18 98.7442 165.118 93.6314 165.367 88.5291C165.374 88.3878 165.354 88.2464 165.306 88.1135C165.258 87.9805 165.184 87.8588 165.088 87.7558C164.794 87.4312 164.386 87.2361 163.951 87.2123C156.792 86.8152 149.653 86.6062 142.751 86.6271H140.509H139.032H136.811C135.912 86.54 135.008 86.7295 134.217 87.1705C132.647 88.2783 132.926 91.0267 133.184 93.2213C133.246 93.8169 133.298 94.3813 133.319 94.862L134.476 127.06C134.377 128.046 134.622 129.036 135.168 129.86C135.894 130.489 136.806 130.856 137.761 130.905H138.009C145.58 132.275 153.317 132.427 160.934 131.355C161.11 131.35 161.28 131.296 161.427 131.198C161.573 131.1 161.689 130.963 161.761 130.801C161.833 130.545 161.841 130.276 161.785 130.016C161.729 129.757 161.61 129.515 161.439 129.313C161.268 129.112 161.051 128.956 160.806 128.86C160.561 128.764 160.296 128.73 160.036 128.763C156.184 129.285 152.296 129.477 148.413 129.338C146.491 129.264 144.58 129.118 142.741 128.899C141.838 128.794 140.94 128.669 140.044 128.523C139.9 128.523 139.703 128.523 139.486 128.46C138.838 128.442 138.198 128.308 137.596 128.063C137.503 128.011 137.425 127.938 137.367 127.849C137.309 127.759 137.274 127.657 137.265 127.551C137.265 127.425 137.265 127.289 137.265 127.101L135.994 92.2389C136.012 91.5989 135.971 90.9586 135.87 90.3265C135.776 90.2165 135.724 90.0752 135.726 89.9294C135.726 89.7993 135.766 89.6726 135.84 89.5661C135.914 89.4596 136.018 89.3786 136.139 89.3338C136.868 89.1946 137.615 89.1769 138.35 89.2815H138.691H139.094H141.553C148.02 89.2815 154.704 89.4069 161.998 89.7727C162.079 89.7753 162.159 89.7943 162.233 89.8285C162.306 89.8626 162.373 89.9113 162.427 89.9716C162.482 90.0319 162.525 90.1027 162.552 90.1798C162.58 90.2569 162.592 90.3388 162.587 90.4206C162.412 94.9351 162.639 99.5646 162.856 104.006C162.928 105.49 163.001 106.984 163.063 108.468L163.869 128.564C163.876 128.754 163.922 128.94 164.004 129.111C164.085 129.282 164.201 129.434 164.344 129.558C164.486 129.682 164.653 129.774 164.832 129.83C165.012 129.885 165.201 129.903 165.387 129.881C165.552 129.889 165.717 129.861 165.87 129.8C166.024 129.739 166.163 129.645 166.278 129.526C166.393 129.407 166.482 129.264 166.538 129.107C166.595 128.95 166.618 128.783 166.606 128.617L165.739 108.646C165.739 107.047 165.635 105.438 165.553 103.839Z" fill="#1E1E1E"/>
<path d="M150.944 137.343C150.704 137.379 150.479 137.483 150.296 137.644C150.113 137.806 149.979 138.016 149.911 138.252C147.121 146.612 139.92 150.959 134.414 153.112C134.28 153.162 134.134 153.164 133.998 153.118C133.863 153.073 133.747 152.982 133.67 152.861C133.593 152.739 133.562 152.594 133.581 152.451C133.6 152.307 133.668 152.175 133.773 152.078C135.476 150.442 136.994 148.619 138.298 146.643C138.394 146.489 138.455 146.316 138.476 146.135C138.497 145.954 138.479 145.771 138.422 145.598C138.383 145.425 138.308 145.263 138.203 145.121C138.099 144.978 137.965 144.86 137.813 144.773C137.491 144.588 137.11 144.536 136.751 144.63C136.393 144.724 136.084 144.955 135.891 145.274C135.519 145.839 135.137 146.393 134.734 146.936L134.651 147.051L134.579 147.135L134.3 147.49C134.083 147.751 133.866 148.012 133.639 148.263C132.767 149.268 131.829 150.211 130.829 151.085L130.043 151.754L129.578 152.13C129.01 152.548 128.473 152.935 127.915 153.3L127.461 153.593C126.439 154.103 125.583 154.897 124.991 155.882C124.808 156.195 124.752 156.568 124.835 156.923C124.918 157.277 125.133 157.586 125.436 157.784H125.529C125.891 157.96 126.299 158.019 126.696 157.951C139.652 155.861 149.353 148.681 152.628 138.827C152.707 138.645 152.734 138.445 152.704 138.248C152.675 138.052 152.591 137.869 152.463 137.719C152.261 137.532 152.017 137.399 151.751 137.333C151.485 137.268 151.208 137.271 150.944 137.343Z" fill="#1E1E1E"/>
<path d="M145.572 156.111C143.654 156.635 141.661 156.815 139.683 156.644H139.621C139.3 156.66 138.997 156.799 138.773 157.031C138.644 157.153 138.54 157.3 138.467 157.463C138.394 157.627 138.354 157.803 138.35 157.982C138.358 158.355 138.511 158.71 138.776 158.97C139.041 159.231 139.396 159.375 139.765 159.372C141.972 159.522 144.188 159.307 146.326 158.734C146.504 158.68 146.67 158.59 146.814 158.469C146.957 158.349 147.076 158.201 147.163 158.034C147.248 157.895 147.302 157.739 147.322 157.577C147.341 157.414 147.326 157.25 147.276 157.094C147.173 156.739 146.937 156.439 146.619 156.255C146.302 156.072 145.926 156.021 145.572 156.111Z" fill="#1E1E1E"/>
<path d="M126.644 95.0919C126.644 95.0919 126.644 95.0919 126.562 95.0919C126.3 94.9646 126.015 94.8968 125.725 94.8933H125.384C112.418 96.9834 102.727 104.163 99.452 114.018C99.398 114.168 99.3758 114.329 99.3867 114.488C99.3977 114.648 99.4415 114.804 99.5154 114.946C99.5893 115.087 99.6918 115.212 99.8161 115.311C99.9404 115.411 100.084 115.482 100.237 115.522C100.416 115.597 100.607 115.634 100.801 115.631C100.994 115.628 101.184 115.585 101.361 115.505C101.537 115.425 101.695 115.309 101.825 115.164C101.955 115.02 102.055 114.85 102.118 114.665C104.907 106.305 112.108 101.968 117.615 99.805C117.75 99.7549 117.898 99.7525 118.035 99.798C118.172 99.8435 118.289 99.9343 118.369 100.056C118.444 100.18 118.475 100.327 118.456 100.471C118.437 100.616 118.37 100.75 118.265 100.85C116.562 102.486 115.045 104.309 113.74 106.284C113.653 106.43 113.596 106.593 113.575 106.762C113.553 106.931 113.567 107.103 113.616 107.267C113.654 107.442 113.727 107.607 113.832 107.751C113.937 107.895 114.072 108.015 114.226 108.103C114.548 108.288 114.929 108.339 115.287 108.246C115.646 108.152 115.954 107.921 116.148 107.601C116.509 107.037 116.902 106.483 117.305 105.939L117.387 105.824L117.46 105.73L117.739 105.386L118.4 104.602C119.276 103.602 120.215 102.659 121.21 101.78L121.985 101.122L122.491 100.725C123.028 100.317 123.524 99.9304 124.123 99.5646L124.578 99.272C125.599 98.762 126.456 97.9681 127.047 96.9834C127.229 96.6749 127.288 96.3085 127.213 95.9576C127.138 95.6068 126.935 95.2974 126.644 95.0919Z" fill="#1E1E1E"/>
<path d="M106.478 96.8789C107.128 96.7117 107.831 96.5654 108.637 96.44C109.878 96.2919 111.129 96.2569 112.377 96.3354C112.547 96.3442 112.718 96.314 112.875 96.2471C113.032 96.1802 113.173 96.0782 113.286 95.9488C113.416 95.8294 113.521 95.6844 113.594 95.5227C113.666 95.361 113.706 95.186 113.709 95.0083C113.699 94.6349 113.545 94.2803 113.281 94.0191C113.017 93.7579 112.663 93.6105 112.294 93.6079C111.86 93.6079 111.416 93.6079 110.982 93.6079C109.21 93.6093 107.447 93.8412 105.734 94.2977C105.554 94.349 105.386 94.4378 105.242 94.5583C105.098 94.6789 104.98 94.8286 104.897 94.9978C104.812 95.1369 104.757 95.293 104.738 95.4554C104.718 95.6178 104.734 95.7826 104.783 95.9383C104.895 96.2831 105.132 96.572 105.447 96.7466C105.761 96.9213 106.13 96.9685 106.478 96.8789Z" fill="#1E1E1E"/>
<path d="M142.183 97.1296L156.802 97.6626C156.973 97.6699 157.143 97.6401 157.302 97.5752C157.46 97.5103 157.604 97.4119 157.721 97.2864C157.923 97.0994 158.063 96.854 158.122 96.5836C158.182 96.3133 158.157 96.031 158.052 95.7753C157.947 95.5196 157.767 95.3027 157.536 95.1542C157.305 95.0058 157.034 94.9329 156.76 94.9455L142.141 94.4021C141.815 94.4101 141.505 94.5448 141.274 94.7783C141.069 94.9639 140.925 95.2091 140.864 95.4804C140.802 95.7516 140.825 96.0356 140.929 96.2932C141.033 96.5509 141.213 96.7696 141.445 96.9193C141.677 97.0691 141.949 97.1425 142.224 97.1296H142.183Z" fill="#1E1E1E"/>
<path d="M156.068 102.219C155.007 102.178 153.944 102.209 152.886 102.313C151.784 102.418 150.676 102.45 149.57 102.407C148.847 102.407 148.123 102.282 147.4 102.188C146.034 101.968 144.647 101.912 143.268 102.02C142.545 102.104 141.79 102.553 141.821 103.358C141.857 103.798 142.061 104.207 142.39 104.497C142.486 104.59 142.602 104.661 142.729 104.704C142.856 104.748 142.99 104.763 143.123 104.748C143.557 104.748 143.991 104.685 144.414 104.685C145.451 104.706 146.486 104.786 147.514 104.926C148.206 105.009 148.909 105.093 149.58 105.135C150.631 105.176 151.684 105.144 152.731 105.041C153.844 104.93 154.962 104.899 156.079 104.946C156.424 104.94 156.754 104.797 156.998 104.549C157.129 104.431 157.233 104.286 157.305 104.124C157.376 103.962 157.412 103.786 157.411 103.609C157.404 103.248 157.261 102.903 157.011 102.645C156.762 102.387 156.425 102.235 156.068 102.219Z" fill="#1E1E1E"/>
<path d="M158.207 112.836C158.505 112.568 158.69 112.194 158.724 111.791C158.724 110.684 157.618 110.464 157.277 110.422C154.87 110.13 152.401 109.827 149.973 109.774C148.94 109.774 147.813 109.774 146.76 109.879C145.406 110.001 144.046 110.029 142.689 109.963C142.366 109.958 142.055 110.082 141.821 110.307C141.61 110.493 141.461 110.74 141.396 111.015C141.33 111.291 141.351 111.579 141.456 111.842C141.561 112.104 141.744 112.327 141.98 112.479C142.215 112.631 142.492 112.705 142.772 112.69C144.071 112.746 145.371 112.718 146.667 112.606C147.586 112.606 148.537 112.492 149.487 112.492H150.004C152.494 112.554 155.004 112.857 157.432 113.15C157.576 113.155 157.719 113.13 157.852 113.076C157.986 113.022 158.106 112.94 158.207 112.836Z" fill="#1E1E1E"/>
<path d="M157.949 119.65C157.592 119.431 157.187 119.306 156.771 119.284C156.426 119.271 156.082 119.331 155.762 119.46C155.441 119.59 155.152 119.786 154.911 120.037C154.75 120.203 154.604 120.385 154.477 120.58C154.404 120.694 154.295 120.778 154.167 120.82C153.848 120.909 153.572 121.114 153.393 121.395C153.25 121.655 153.142 121.933 153.072 122.221C152.984 122.676 152.984 123.145 153.072 123.6C153.197 124.177 153.497 124.699 153.93 125.095H154.002L154.095 125.168C154.261 125.313 154.445 125.436 154.643 125.534C155.047 125.732 155.486 125.849 155.934 125.878C156.597 125.879 157.25 125.714 157.835 125.398C157.925 125.358 158.008 125.305 158.083 125.241C158.578 124.914 158.943 124.423 159.116 123.851C159.176 123.6 159.217 123.345 159.24 123.088V122.858C159.261 122.639 159.261 122.419 159.24 122.2C159.239 121.58 159.059 120.974 158.724 120.455C158.517 120.14 158.254 119.867 157.949 119.65Z" fill="#1E1E1E"/>
<path d="M94.9888 131.574C95.1251 131.649 95.2747 131.695 95.429 131.711C95.5832 131.728 95.7391 131.713 95.8877 131.668C96.3233 131.519 96.7814 131.448 97.2411 131.459C97.6647 131.459 98.0883 131.459 98.5118 131.542L99.2454 131.595C100.413 131.657 101.58 131.71 102.737 131.731C105.072 131.731 107.469 131.731 109.876 131.616C110.154 131.631 110.429 131.559 110.663 131.409C110.898 131.259 111.08 131.038 111.185 130.778C111.29 130.518 111.311 130.231 111.247 129.958C111.183 129.685 111.036 129.438 110.827 129.254C110.712 129.134 110.573 129.04 110.42 128.977C110.267 128.914 110.103 128.884 109.938 128.888C107.397 129.013 104.866 129.055 102.438 128.993C101.208 128.993 99.9789 128.919 98.7598 128.846H98.2433C97.2424 128.701 96.2225 128.765 95.2471 129.034C94.8915 129.126 94.5851 129.354 94.3923 129.67C94.1996 129.986 94.1356 130.365 94.214 130.727C94.2817 130.913 94.3851 131.083 94.518 131.229C94.651 131.374 94.811 131.491 94.9888 131.574Z" fill="#1E1E1E"/>
<path d="M95.4848 139.83C100.372 139.558 105.341 139.443 110.238 139.485C110.454 139.499 110.669 139.453 110.86 139.351C111.051 139.25 111.211 139.097 111.323 138.91C111.448 138.676 111.513 138.414 111.513 138.147C111.513 137.881 111.448 137.619 111.323 137.384C111.21 137.186 111.045 137.022 110.846 136.912C110.648 136.801 110.423 136.748 110.197 136.757H108.13C103.915 136.757 99.669 136.883 95.4641 137.113C95.1027 137.115 94.7558 137.257 94.4946 137.509C94.2333 137.762 94.0775 138.106 94.059 138.471C94.0611 138.667 94.1024 138.861 94.1806 139.041C94.2587 139.22 94.372 139.382 94.5136 139.516C94.6431 139.637 94.7972 139.728 94.9649 139.782C95.1327 139.836 95.3101 139.852 95.4848 139.83Z" fill="#1E1E1E"/>
<path d="M104.07 144.491C101.219 144.564 98.3259 144.585 95.4641 144.491C95.281 144.497 95.1009 144.54 94.9343 144.618C94.7677 144.695 94.6177 144.804 94.4929 144.94C94.3746 145.055 94.2807 145.193 94.2167 145.345C94.1528 145.498 94.1202 145.662 94.121 145.828C94.1264 146.197 94.2743 146.549 94.533 146.809C94.7918 147.069 95.1408 147.215 95.5054 147.218C98.3362 147.218 101.208 147.218 104.06 147.166C104.454 147.143 104.824 146.967 105.093 146.675C105.2 146.565 105.283 146.434 105.338 146.29C105.393 146.146 105.419 145.993 105.413 145.839C105.389 145.487 105.239 145.157 104.992 144.909C104.745 144.661 104.417 144.513 104.07 144.491Z" fill="#1E1E1E"/>
<path d="M113.668 154.471C113.508 154.002 113.255 153.572 112.924 153.206C112.684 152.939 112.392 152.726 112.067 152.579C111.53 152.307 110.949 152.137 110.352 152.078C109.929 152.071 109.517 152.219 109.195 152.496C109.124 152.547 109.043 152.584 108.958 152.603C108.873 152.623 108.785 152.626 108.699 152.611C108.519 152.568 108.331 152.568 108.151 152.611C107.794 152.714 107.488 152.949 107.294 153.269C107.207 153.411 107.134 153.562 107.077 153.718H106.901C106.901 153.718 106.901 153.718 106.901 153.791L107.056 153.854C106.982 154.005 106.923 154.162 106.88 154.324C106.781 154.699 106.743 155.087 106.767 155.474C106.821 156.382 107.186 157.243 107.8 157.909C107.868 157.987 107.944 158.057 108.027 158.118L108.11 158.191C108.276 158.335 108.456 158.461 108.647 158.567C108.973 158.737 109.321 158.86 109.68 158.933H109.825C110.032 158.98 110.243 159.001 110.455 158.996C110.729 158.982 111.002 158.947 111.271 158.891C111.366 158.877 111.46 158.852 111.55 158.818C111.8 158.735 112.042 158.63 112.273 158.505C113.006 158.089 113.548 157.398 113.782 156.582C113.886 156.244 113.931 155.89 113.916 155.537C113.893 155.17 113.809 154.81 113.668 154.471Z" fill="#1E1E1E"/>
</g>
<g clip-path="url(#clip1)">
<path d="M79.0021 161.765C78.6479 162.178 78.2084 162.51 77.7137 162.739C77.2189 162.967 76.6806 163.086 76.1354 163.088H74.9907L51.5707 163.765L39.4859 164.108L37.9056 164.159C36.5686 164.284 35.231 163.926 34.1373 163.149L33.8841 162.906C32.2026 161.341 32.3646 159.2 32.8711 157.089C33.6201 153.879 34.6366 150.736 35.9101 147.695C37.0952 144.816 38.3108 141.554 40.7521 139.514C43.8923 136.868 47.2959 137.827 50.8819 138.716H51.0946C53.9501 139.689 57.0173 139.871 59.9683 139.241H60.2114C63.5238 138.766 67.1402 136.615 69.8448 139.665C70.0879 139.938 70.3209 140.231 70.5438 140.534C72.5697 143.089 74.0183 146.382 75.5276 149.16C76.5406 151.028 78.0499 153.321 78.3437 155.533C78.5405 155.662 78.7207 155.815 78.8806 155.988C79.5806 156.782 79.9768 157.797 79.999 158.854C80.0213 159.911 79.6682 160.942 79.0021 161.765Z" fill="#FBB03B"/>
<path d="M6.90851 144.2C6.90851 144.2 6.91851 144.14 6.90851 144.2V144.2Z" fill="#FBB03B"/>
<path d="M6.93797 161.199C6.93797 161.259 6.87797 161.279 6.86797 161.279C6.85797 161.279 6.86797 161.279 6.86797 161.279L6.93797 161.199Z" fill="#FBB03B"/>
<path d="M7.29346 160.31C7.29627 160.337 7.29627 160.364 7.29346 160.391V160.31Z" fill="#FBB03B"/>
<path d="M8.59002 90.6175C8.5692 91.1558 8.40485 91.6788 8.11392 92.1326L7.85056 92.6579C7.50033 93.2608 7.0018 93.7649 6.402 94.1224L5.4498 94.5365C4.75018 94.7273 4.01203 94.7273 3.31241 94.5365L2.35009 94.1224C1.4744 93.5452 0.823679 92.686 0.506469 91.6882C0.33846 91.1623 0.310531 90.6019 0.425429 90.062C0.453543 89.5236 0.621057 89.0016 0.911654 88.547L1.17503 88.0217C1.52026 87.4183 2.01568 86.914 2.61346 86.5572L3.62643 86.1431C4.32605 85.9523 5.0642 85.9523 5.76382 86.1431L6.77679 86.5572C7.23102 86.794 7.61782 87.1414 7.9012 87.5673C8.24723 87.9839 8.49734 88.4712 8.63386 88.9948C8.77038 89.5184 8.79 90.0654 8.69132 90.5974L8.59002 90.6175Z" fill="#FBB03B"/>
<path d="M10.3324 107.93C10.3324 108.041 10.2818 108.374 10.2615 108.505C10.2413 108.637 10.2007 108.94 10.1805 109.051C10.1602 109.162 10.1805 109.051 10.1805 109.101C10.1218 109.27 10.0541 109.435 9.97788 109.596C9.97788 109.697 9.82593 109.96 9.77528 110.061V110.121L9.14724 110.95L9.0662 111.03L8.25581 111.667L7.24284 112.081H7.18206C6.79694 112.176 6.40338 112.234 6.00701 112.253H5.86519L4.85221 112.101H4.76105C4.41274 111.974 4.07418 111.822 3.74807 111.647C3.70322 111.631 3.66188 111.607 3.62651 111.576H3.56573L3.44417 111.465L3.16054 111.253L2.74522 110.919C2.67343 110.86 2.60884 110.792 2.55275 110.717C2.06058 110.219 1.71087 109.598 1.53978 108.919C1.3475 108.208 1.3475 107.459 1.53978 106.748C1.60055 106.586 1.66134 106.425 1.73224 106.253C1.91368 105.579 2.26198 104.96 2.74522 104.455L3.5556 103.819C4.16903 103.456 4.8686 103.265 5.58155 103.263L6.10831 103.334H6.26026L7.33401 103.475L8.34699 103.879C8.65351 104.079 8.94165 104.306 9.20802 104.556C9.2688 104.637 9.77529 105.293 9.83607 105.384C9.93365 105.532 10.0119 105.692 10.069 105.859C10.1536 106.054 10.228 106.253 10.2919 106.455C10.3832 106.941 10.3969 107.439 10.3324 107.93Z" fill="#FBB03B"/>
<path d="M8.54952 141.594C8.54952 141.594 8.54952 141.534 8.54952 141.503C8.456 141.118 8.28736 140.754 8.05317 140.433C7.95714 140.258 7.84524 140.092 7.71888 139.938C7.67755 139.863 7.63012 139.792 7.57707 139.726C7.29369 139.3 6.90689 138.952 6.45266 138.716L5.43968 138.302C4.74006 138.111 4.00192 138.111 3.3023 138.302L2.28932 138.716C1.69155 139.072 1.19613 139.577 0.850897 140.18C0.82137 140.217 0.797473 140.258 0.779989 140.301C0.698951 140.473 0.638173 140.635 0.567265 140.806L0.354541 141.301C0.354541 141.301 0.354541 141.301 0.354541 141.362C0.354541 141.423 0.354541 141.362 0.354541 141.443C0.354541 141.524 0.354541 141.524 0.354541 141.564C0.207267 141.931 0.105219 142.314 0.0506442 142.705C0.0232305 142.859 0.00631328 143.014 0 143.17C0.0428426 144.237 0.458518 145.255 1.17505 146.049C1.66756 146.534 2.27867 146.882 2.94776 147.059C3.22573 147.111 3.50643 147.148 3.78853 147.17C4.73428 147.312 5.70096 147.146 6.54383 146.695C7.1403 146.361 7.64212 145.881 8.00252 145.301L8.09369 145.15C8.09369 145.15 8.41784 144.453 8.51914 144.14C8.52388 144.109 8.52388 144.079 8.51914 144.049C8.51914 143.867 8.57992 143.635 8.60018 143.473C8.62044 143.311 8.60018 143.392 8.60018 143.352C8.60581 143.285 8.60581 143.217 8.60018 143.15V142.907C8.60532 142.874 8.60532 142.84 8.60018 142.806V142.736C8.6407 142.322 8.59004 141.958 8.54952 141.594ZM6.90851 144.2C6.90851 144.2 6.91864 144.14 6.90851 144.2V144.2Z" fill="#FBB03B"/>
<path d="M5.06487 156.068C-0.111446 156.068 -0.121577 164.219 5.06487 164.219C10.2513 164.219 10.2412 156.068 5.06487 156.068ZM6.93888 161.199C6.93888 161.26 6.8781 161.28 6.86797 161.28C6.85784 161.28 6.86797 161.28 6.86797 161.28H6.93888V161.199ZM7.28328 160.311C7.28614 160.337 7.28614 160.364 7.28328 160.391V160.331V160.311Z" fill="#FBB03B"/>
<path d="M9.31938 126.373V126.646C9.31812 127.355 9.12946 128.052 8.77237 128.666L8.14433 129.494C7.64958 129.976 7.0393 130.324 6.37161 130.504L5.29786 130.646C4.76325 130.668 4.23211 130.55 3.75814 130.302C3.25962 130.136 2.81287 129.844 2.46153 129.454C2.07499 129.095 1.78872 128.643 1.63089 128.141C1.38002 127.658 1.26121 127.118 1.28647 126.575V126.302C1.28773 125.593 1.4764 124.896 1.83348 124.282C2.03608 123.999 2.2488 123.727 2.46153 123.454C2.95404 122.969 3.56515 122.621 4.23424 122.444L5.24722 122.303C5.7867 122.275 6.32324 122.397 6.79707 122.656C7.2945 122.819 7.74115 123.108 8.09368 123.494C8.81021 124.288 9.22589 125.306 9.26873 126.373H9.31938Z" fill="#FBB03B"/>
<path d="M67.3934 108.354C67.5538 109.86 67.6181 111.375 67.5859 112.889C67.587 113.274 67.5599 113.659 67.5048 114.041C67.4929 114.122 67.476 114.203 67.4542 114.283C67.4386 114.352 67.4183 114.419 67.3934 114.485C67.3398 114.61 67.2718 114.729 67.1908 114.838C67.0379 115.02 66.8433 115.162 66.6236 115.253L66.4311 115.323L66.188 115.394C64.8026 115.677 63.4025 115.882 61.9942 116.01H61.508C59.8366 116.212 58.1551 116.374 56.4431 116.434C54.8309 116.495 53.2164 116.444 51.6112 116.283C51.1149 116.283 50.5982 116.192 50.0006 116.121C49.5977 116.073 49.1984 115.999 48.8053 115.899C48.6436 115.863 48.4845 115.815 48.3292 115.758H48.2684C48.1256 115.707 47.9868 115.647 47.8531 115.576C47.7043 115.5 47.562 115.412 47.4276 115.313C47.0986 115.064 46.8317 114.743 46.6476 114.374C46.5956 114.287 46.5515 114.196 46.5159 114.101V114.041L46.4248 113.758C46.3951 113.675 46.3714 113.591 46.3539 113.505C46.1136 112.105 46.1932 110.669 46.5868 109.303C46.7185 108.768 46.8604 108.293 46.992 107.849C47.0411 107.705 47.1221 107.574 47.2291 107.465C47.3361 107.357 47.4663 107.274 47.61 107.223C47.5912 106.733 47.6183 106.243 47.691 105.758L46.1513 105.203C45.9627 105.145 45.7976 105.028 45.6803 104.87C45.563 104.712 45.4998 104.521 45.4998 104.324C45.4998 104.127 45.563 103.936 45.6803 103.777C45.7976 103.619 45.9627 103.503 46.1513 103.445C49.8892 102.597 53.6169 101.718 57.3649 100.9C58.8945 100.567 60.2823 101.445 61.7309 101.91C63.5238 102.445 65.3472 102.849 67.1706 103.253C67.3101 103.395 67.4144 103.568 67.4749 103.758C67.5354 103.947 67.5505 104.148 67.5189 104.345C67.4874 104.541 67.4102 104.728 67.2934 104.889C67.1766 105.05 67.0235 105.182 66.8464 105.273L66.6641 105.334C66.7195 105.427 66.7669 105.525 66.8059 105.627C66.9524 106.125 67.0241 106.643 67.0186 107.162C67.1966 107.317 67.3088 107.534 67.3326 107.768C67.3326 107.829 67.3326 107.889 67.3326 107.95C67.3326 108.011 67.3732 108.192 67.3934 108.354Z" fill="#FBB03B"/>
<path d="M45.7866 141.029C45.7059 141.018 45.6242 141.018 45.5435 141.029C45.3421 141.036 45.1419 141.063 44.9458 141.109C42.7721 141.638 40.8922 142.994 39.7088 144.887C36.5685 149.745 35.0085 156.482 35.4441 163.381V163.815C35.4441 164.088 35.4441 164.351 35.4948 164.623C35.5147 164.827 35.5756 165.024 35.6737 165.204C35.7718 165.384 35.9052 165.542 36.0659 165.669C36.2265 165.796 36.4112 165.89 36.609 165.945C36.8067 165.999 37.0134 166.014 37.2168 165.987C37.373 165.991 37.5282 165.96 37.6701 165.895C37.8121 165.83 37.937 165.733 38.0351 165.611C38.1332 165.49 38.2018 165.348 38.2356 165.196C38.2693 165.044 38.2674 164.886 38.2298 164.734C37.5081 158.656 38.6675 152.502 41.5524 147.099C42.0837 146.183 42.738 145.344 43.4973 144.604C43.9348 144.195 44.4058 143.824 44.9053 143.493C45.2556 143.265 45.5938 143.019 45.9183 142.756L46.1108 142.564C46.2523 142.407 46.3501 142.215 46.3944 142.008C46.4263 141.8 46.3826 141.587 46.2712 141.407C46.1599 141.228 45.9881 141.093 45.7866 141.029Z" fill="#1E1E1E"/>
<path d="M75.0718 144.655C74.1356 143.264 72.8066 142.181 71.2529 141.544C70.7974 141.353 70.3263 141.201 69.8449 141.09C69.6427 141.039 69.4353 141.012 69.227 141.009C69.1429 140.998 69.0578 140.998 68.9737 141.009C68.7903 141.062 68.6308 141.176 68.5219 141.332C68.4131 141.488 68.3616 141.677 68.3761 141.867C68.4223 142.058 68.5204 142.233 68.6597 142.372L68.842 142.554C69.1662 142.807 69.5005 143.029 69.855 143.251C70.3541 143.544 70.8254 143.882 71.263 144.261C72.0199 144.957 72.6747 145.756 73.208 146.635C76.0955 151.696 77.2645 157.553 76.5407 163.331V163.482C76.5399 163.624 76.5691 163.764 76.6262 163.894C76.6833 164.023 76.7671 164.139 76.8722 164.235C76.9773 164.33 77.1013 164.402 77.2361 164.446C77.3709 164.491 77.5136 164.506 77.6549 164.492C78.0376 164.53 78.42 164.418 78.7221 164.181C79.0243 163.944 79.2226 163.599 79.2757 163.22C79.2757 163.007 79.2757 162.775 79.3263 162.553V162.149C79.4568 160.257 79.4195 158.358 79.2149 156.472C78.8223 152.255 77.3998 148.198 75.0718 144.655Z" fill="#1E1E1E"/>
<path d="M67.2313 145.584C67.0759 145.585 66.9224 145.619 66.781 145.684C66.6396 145.748 66.5135 145.842 66.4108 145.958C63.4934 149.443 60.3329 152.917 56.7369 156.574C56.6828 156.632 56.6169 156.678 56.5436 156.71C56.4703 156.741 56.3912 156.757 56.3114 156.755C56.2301 156.757 56.1495 156.741 56.0745 156.71C55.9995 156.679 55.9319 156.632 55.8758 156.574C54.4172 155.038 53.2522 153.715 52.1987 152.402C52.1035 152.288 51.9842 152.196 51.8494 152.133C51.7146 152.071 51.5676 152.038 51.4187 152.038H51.3377C50.9413 152.032 50.5574 152.177 50.2639 152.442C50.0065 152.731 49.8686 153.107 49.878 153.493C49.8874 153.879 50.0434 154.247 50.3146 154.523C51.8638 156.481 53.5352 158.34 55.3187 160.089C55.4514 160.222 55.6093 160.327 55.7831 160.399C55.957 160.472 56.1434 160.509 56.3317 160.509C56.52 160.509 56.7064 160.472 56.8802 160.399C57.0541 160.327 57.2119 160.222 57.3447 160.089C61.1737 156.271 64.8812 152.22 68.3557 148.059C68.5776 147.859 68.7308 147.594 68.7937 147.302C68.8566 147.011 68.826 146.706 68.7062 146.433C68.5865 146.159 68.3836 145.93 68.1262 145.778C67.8688 145.626 67.57 145.558 67.2718 145.584H67.2313Z" fill="#1E1E1E"/>
<path d="M3.80877 95.5057C4.34659 95.6537 4.90201 95.7284 5.45993 95.7279C6.20139 95.7594 6.93938 95.6103 7.61008 95.2935C8.28077 94.9768 8.86397 94.5019 9.30924 93.9099C9.81622 93.1257 10.1287 92.2324 10.2209 91.3039C10.4255 90.2538 10.2833 89.1659 9.81572 88.2031C9.35421 87.3873 8.63492 86.7468 7.77003 86.3814C6.90514 86.016 5.94328 85.9462 5.03447 86.183C4.8085 86.2622 4.61348 86.4107 4.47734 86.6072C4.4481 86.6443 4.40781 86.6711 4.36228 86.6838C4.31676 86.6965 4.26837 86.6945 4.22409 86.678C4.14656 86.6715 4.06863 86.6715 3.9911 86.678H3.88981C3.01865 86.678 2.29943 87.3143 1.57009 88.6981C1.11466 89.5606 0.819518 90.4982 0.698927 91.4656C0.577429 92.36 0.766905 93.269 1.2358 94.0412C1.8812 94.8311 2.79842 95.3532 3.80877 95.5057ZM3.4441 89.7485C3.53526 89.5768 3.62644 89.4152 3.72774 89.2536L3.89994 88.9909L3.97085 88.89L4.06201 88.7889L4.16332 88.7182C4.39629 88.6527 4.60215 88.5148 4.75084 88.3243C4.77874 88.2855 4.81844 88.2567 4.86405 88.2421C4.90966 88.2275 4.95877 88.2281 5.00408 88.2435C5.21744 88.3166 5.44916 88.3166 5.66252 88.2435H5.77395H5.90563H6.35134L6.78692 88.3647H6.87809C7.01752 88.4343 7.15281 88.5119 7.28328 88.597L7.4251 88.6981L7.71886 89.001L7.83029 89.1626L7.97211 89.4253V89.5061C8.08232 89.6754 8.14758 89.8699 8.16175 90.0713C8.17593 90.2727 8.13856 90.4745 8.05315 90.6575L8.00249 90.8696V91.1726C7.93725 91.5157 7.84582 91.8534 7.72899 92.1827C7.70038 92.2821 7.65216 92.3748 7.58718 92.4554L7.49601 92.6069L7.4251 92.6978C7.33484 92.7997 7.23661 92.8943 7.13133 92.9806H7.07056L6.76667 93.1523L6.52355 93.2533L6.08797 93.3746H5.97654H5.63213H4.99396H4.74071L4.26461 93.2533L3.82903 93.122H3.69734L3.32254 92.92L3.11994 93.2432L3.23137 92.8392C3.23137 92.8392 3.09968 92.6877 3.07942 92.6776L2.98826 92.4958C2.99265 92.4724 2.99265 92.4485 2.98826 92.4251V92.2231C2.98826 92.2231 2.98826 92.1726 2.98826 92.1423H2.63372L2.97813 92.011C2.97813 91.8595 2.97813 91.7079 2.97813 91.5564V91.4251C2.97329 91.3309 2.97329 91.2366 2.97813 91.1423C3.059 90.7534 3.18125 90.3742 3.3428 90.0111L3.4441 89.7485Z" fill="#1E1E1E"/>
<path d="M4.25455 111.869C4.39279 111.879 4.53163 111.879 4.66987 111.869C5.60411 111.829 6.51914 111.592 7.35426 111.172C8.25766 110.803 9.05985 110.225 9.69424 109.485C10.2863 108.741 10.6393 107.837 10.7072 106.889C10.7128 106.819 10.7128 106.748 10.7072 106.677V106.556C10.7157 105.732 10.4997 104.921 10.0823 104.209C9.66483 103.498 9.06159 102.913 8.33685 102.516C7.42834 102.072 6.39918 101.936 5.40617 102.13C4.41315 102.323 3.51073 102.835 2.83638 103.587C2.7297 103.716 2.64733 103.863 2.59327 104.021C2.57548 104.07 2.54189 104.111 2.49784 104.138C2.4538 104.166 2.40182 104.178 2.35015 104.172H2.20834C2.00594 104.177 1.80772 104.231 1.63109 104.329C1.45446 104.428 1.30483 104.568 1.19536 104.738C0.614339 105.573 0.319197 106.572 0.353876 107.588C0.388556 108.603 0.751197 109.581 1.38782 110.374C1.74221 110.801 2.17822 111.152 2.67041 111.409C3.1626 111.666 3.70112 111.822 4.25455 111.869ZM8.45841 107.021C8.431 107.171 8.39377 107.32 8.34698 107.465V107.526C8.29606 107.563 8.25478 107.612 8.22658 107.668C8.19838 107.724 8.18409 107.786 8.1849 107.849L8.09374 108.001L8.00256 108.091C7.95597 108.118 7.91744 108.156 7.89114 108.203L7.75945 108.354L7.56698 108.516L7.82023 108.798L7.46569 108.576L6.96933 108.889L6.45271 109.162L6.61479 109.505L6.37167 109.202L6.18934 109.273C5.97132 109.361 5.74803 109.435 5.52077 109.495L4.97376 109.606H4.47741H4.29507H4.17351L3.96079 109.546C3.89322 109.523 3.8286 109.493 3.76832 109.455L3.56572 109.344L3.44416 109.273L3.26183 109.101L3.16053 108.98L3.0491 108.839C2.98926 108.759 2.9351 108.674 2.88703 108.586L2.78574 108.415C2.74342 108.303 2.70955 108.188 2.68443 108.071V107.91C2.67791 107.866 2.67791 107.822 2.68443 107.778C2.67503 107.603 2.67503 107.428 2.68443 107.253V107.041C2.68443 106.91 2.68444 106.839 2.74522 106.778L2.79586 106.617C2.79586 106.617 2.79586 106.506 2.79586 106.496V106.395C2.89638 106.201 3.01152 106.015 3.14028 105.839C3.1907 105.776 3.21913 105.698 3.22132 105.617C3.24409 105.577 3.27905 105.546 3.32102 105.528C3.36299 105.51 3.40973 105.505 3.4543 105.516C3.61374 105.555 3.78072 105.55 3.93762 105.502C4.09451 105.454 4.2355 105.364 4.34571 105.243C4.46245 105.089 4.59484 104.946 4.74078 104.819H4.81169C4.94843 104.726 5.09049 104.642 5.23714 104.566L5.34857 104.516H5.55116L5.8044 104.455H6.17921C6.30732 104.445 6.43602 104.445 6.56414 104.455H6.67557H6.79713H6.94907H7.05037H7.37452L7.69868 104.597L7.97218 104.809C8.00125 104.834 8.02529 104.865 8.04308 104.9L8.12412 105.001L8.20516 105.112C8.26614 105.228 8.31697 105.35 8.35711 105.475C8.38449 105.616 8.40477 105.757 8.41789 105.9C8.40806 105.956 8.40806 106.015 8.41789 106.071V106.395C8.428 106.539 8.428 106.684 8.41789 106.829V106.93H8.80282L8.45841 107.021Z" fill="#1E1E1E"/>
<path d="M8.49888 140.584C8.00066 140.238 7.43282 140.003 6.83464 139.896C6.23646 139.79 5.62224 139.814 5.03449 139.968C4.80562 140.036 4.60829 140.183 4.47736 140.382C4.44758 140.419 4.40777 140.446 4.36279 140.46C4.31782 140.475 4.26964 140.476 4.22412 140.463C4.10835 140.405 3.97843 140.38 3.84931 140.392C2.99841 140.392 2.28933 141.039 1.57011 142.412C1.45868 142.625 1.37765 142.847 1.28648 143.069L1.21557 143.281C0.960925 143.896 0.78727 144.541 0.69895 145.2C0.578169 146.091 0.767675 146.997 1.23583 147.766C1.86091 148.604 2.77937 149.177 3.80879 149.372C4.34806 149.511 4.90282 149.583 5.45995 149.584C6.20141 149.615 6.9394 149.466 7.6101 149.149C8.28079 148.833 8.86399 148.358 9.30926 147.766C9.81802 146.982 10.1307 146.089 10.2209 145.16C10.4255 144.11 10.2833 143.022 9.81575 142.059C9.50587 141.466 9.0534 140.96 8.49888 140.584ZM8.05317 144.715V145.018C7.98872 145.362 7.89727 145.699 7.77967 146.028C7.75289 146.123 7.7082 146.213 7.64798 146.291L7.57707 146.412V146.473L7.51629 146.544C7.42003 146.646 7.3186 146.744 7.2124 146.836L6.85786 147.059L6.60461 147.16C6.45266 147.16 6.30072 147.24 6.08799 147.291H5.72332H5.09528L4.8319 147.241C4.67091 147.21 4.51193 147.169 4.3558 147.119C4.2146 147.085 4.07585 147.041 3.94048 146.988L3.49477 146.786L3.40361 146.725C3.37251 146.684 3.33036 146.653 3.28205 146.634C3.25118 146.615 3.22658 146.587 3.21114 146.554V146.483L3.1301 146.352L2.75529 146.412L3.08958 146.23V146.079C3.09435 146.042 3.09435 146.005 3.08958 145.968H2.71478L3.07945 145.826C3.07945 145.675 3.07945 145.523 3.07945 145.372C3.08908 145.315 3.08908 145.257 3.07945 145.2C3.07193 145.126 3.07193 145.052 3.07945 144.978C3.16014 144.586 3.28239 144.203 3.44412 143.837L3.57581 143.564C3.66698 143.402 3.75814 143.231 3.85944 143.069L4.04178 142.806L4.10256 142.705L4.19373 142.604C4.22108 142.575 4.2562 142.554 4.29502 142.544C4.52904 142.475 4.7349 142.333 4.88255 142.14C4.91179 142.103 4.95207 142.076 4.9976 142.063C5.04312 142.051 5.09152 142.052 5.1358 142.069C5.35223 142.144 5.58792 142.144 5.80436 142.069H5.90565H6.03735H6.48305L6.95915 142.2L7.40486 142.453C7.44592 142.469 7.48118 142.497 7.50616 142.534L7.79992 142.837L7.90122 142.988L8.03291 143.2C8.02888 143.234 8.02888 143.268 8.03291 143.301C8.13604 143.522 8.17466 143.767 8.14433 144.008V144.099C8.14433 144.271 8.14433 144.433 8.14433 144.604H8.51914L8.05317 144.715Z" fill="#1E1E1E"/>
<path d="M8.30639 156.331C7.39567 155.886 6.3637 155.75 5.36845 155.946C4.37321 156.141 3.46954 156.656 2.79579 157.412C2.69614 157.54 2.61751 157.683 2.56281 157.836C2.54502 157.885 2.51144 157.926 2.46739 157.953C2.42334 157.981 2.37135 157.993 2.31969 157.988H2.17787C1.97548 157.992 1.77725 158.046 1.60062 158.144C1.42399 158.243 1.27437 158.383 1.1649 158.553C0.583875 159.388 0.288741 160.387 0.32342 161.403C0.358099 162.418 0.72074 163.396 1.35736 164.189C1.70077 164.611 2.1246 164.962 2.60444 165.22C3.08428 165.478 3.61064 165.64 4.15318 165.694H4.62929C5.56309 165.659 6.47853 165.425 7.31367 165.007C8.21435 164.638 9.01579 164.064 9.65365 163.331C10.2424 162.585 10.5951 161.681 10.6666 160.735C10.7472 159.851 10.5667 158.963 10.1473 158.181C9.72789 157.398 9.08795 156.755 8.30639 156.331ZM8.43808 160.846C8.40959 160.993 8.37238 161.138 8.32665 161.28V161.371C8.32261 161.405 8.32261 161.439 8.32665 161.472L8.26587 161.563L8.19496 161.704L8.11392 161.815C8.08841 161.856 8.05375 161.891 8.01263 161.917C7.97057 161.948 7.93307 161.986 7.9012 162.028L7.76951 162.179L7.58718 162.341L7.83029 162.624L7.47575 162.401C7.31651 162.515 7.15078 162.62 6.97939 162.714C6.80719 162.815 6.63498 162.906 6.38173 163.028L6.1994 163.108L5.53083 163.331L4.98383 163.432H4.62929H4.49759H4.30513H4.18357L3.97085 163.361H3.86955L3.61631 163.219L3.5454 163.169H3.45423L3.27189 162.997L3.1706 162.876L3.05917 162.745C3.00335 162.664 2.9526 162.58 2.90722 162.492L2.79579 162.31C2.75507 162.202 2.72123 162.09 2.69449 161.977V161.815C2.68964 161.772 2.68964 161.728 2.69449 161.684C2.685 161.506 2.685 161.327 2.69449 161.149V160.967C2.69449 160.816 2.69449 160.735 2.7654 160.674L2.81605 160.513V160.391V160.28C2.91893 160.091 3.03397 159.909 3.16046 159.735C3.21081 159.675 3.23938 159.601 3.2415 159.523C3.26274 159.481 3.29705 159.448 3.33915 159.428C3.38125 159.408 3.42881 159.402 3.47449 159.412C3.63404 159.447 3.80012 159.441 3.95641 159.393C4.11271 159.345 4.25383 159.258 4.36591 159.139C4.46567 159.011 4.57397 158.889 4.69006 158.775H4.75084L4.83188 158.715C4.9753 158.622 5.12413 158.537 5.27759 158.462H5.35862L5.56122 158.412L5.83472 158.351H6.1994C6.32751 158.341 6.45622 158.341 6.58433 158.351H6.68563L6.90848 158.412C7.01402 158.419 7.11716 158.446 7.21237 158.492H7.30354C7.39813 158.544 7.48946 158.601 7.57705 158.664L7.66822 158.725L7.81003 158.856L7.92146 158.957C8.01905 159.035 8.09564 159.135 8.14431 159.25C8.13983 159.297 8.13983 159.344 8.14431 159.391C8.14604 159.422 8.14604 159.452 8.14431 159.482C8.16494 159.538 8.1999 159.586 8.24561 159.624V159.715C8.24561 159.836 8.31652 159.957 8.34691 160.078V160.391C8.35706 160.536 8.35706 160.681 8.34691 160.826V160.937H8.73184L8.43808 160.846Z" fill="#1E1E1E"/>
<path d="M7.96203 122.596C6.84467 122.099 5.64754 121.805 4.42674 121.727C3.85947 121.655 3.28321 121.708 2.73879 121.882C2.19437 122.057 1.6951 122.349 1.27638 122.737C1.06515 122.984 0.956446 123.302 0.972488 123.626C0.974958 123.655 0.970786 123.685 0.960277 123.713C0.949768 123.741 0.933177 123.767 0.911704 123.787C-0.212701 125.02 -0.0101055 127.141 0.769887 128.605C1.18124 129.42 1.80626 130.109 2.57854 130.598C3.35083 131.087 4.24155 131.358 5.15608 131.383C5.37983 131.381 5.6032 131.364 5.82465 131.332C6.8769 131.131 7.87251 130.704 8.74202 130.08C9.7116 129.56 10.4388 128.683 10.768 127.636C10.9414 126.603 10.7583 125.542 10.2486 124.626C9.73891 123.711 8.93279 122.995 7.96203 122.596ZM8.97501 126.302L8.64073 126.525C8.65171 126.574 8.65171 126.626 8.64073 126.676V126.949L8.56982 127.221L8.43813 127.454C8.40475 127.488 8.37426 127.525 8.34696 127.565C8.216 127.704 8.0737 127.833 7.92151 127.949L7.61762 128.161L7.14152 128.454C6.81998 128.65 6.48086 128.815 6.12854 128.949C5.94717 129.016 5.76093 129.07 5.57141 129.11H5.33842H4.80154H4.59894L4.35583 129.04C4.29773 129 4.23229 128.973 4.16337 128.959L4.04181 128.898L3.74804 128.716L3.63662 128.646L3.52519 128.535L3.43402 128.454C3.29478 128.326 3.16605 128.188 3.04909 128.04C2.95744 127.917 2.87289 127.788 2.79584 127.656L2.68441 127.464L2.5426 127.151L2.43117 126.797L2.37039 126.555C2.37039 126.555 2.37039 126.484 2.37039 126.464C2.35988 126.272 2.35988 126.08 2.37039 125.888L2.46157 125.555L2.56286 125.393L2.63377 125.313C2.63932 125.276 2.63932 125.238 2.63377 125.201L2.7452 125.292C2.90266 125.189 3.03155 125.048 3.12006 124.882C3.20856 124.716 3.25382 124.531 3.25169 124.343C3.25138 124.296 3.2659 124.25 3.29319 124.212C3.32047 124.174 3.35913 124.146 3.40364 124.131H3.57584C3.63276 124.12 3.69112 124.12 3.74804 124.131H4.25453H4.50778H4.66986C4.76061 124.118 4.85261 124.118 4.94336 124.131H5.10543C5.49174 124.201 5.87388 124.292 6.2501 124.403C6.90106 124.563 7.49847 124.89 7.98229 125.353C8.05889 125.432 8.12996 125.517 8.19501 125.605C8.27605 125.727 8.35709 125.878 8.43813 126.02V126.121V126.292L8.48878 126.474L8.85345 126.363L8.97501 126.302Z" fill="#1E1E1E"/>
<path d="M15.61 91.6274C16.5832 91.8794 17.6048 91.8794 18.578 91.6274L18.9528 91.5668C20.6885 91.2966 22.4434 91.1682 24.2 91.183C26.1652 91.183 28.1405 91.3042 30.0753 91.4254L32.5672 91.5668C35.3631 91.7082 38.1521 91.8665 40.9344 92.0416L47.1237 92.3951C56.433 92.9001 66.3703 93.2233 76.0138 92.1223C76.8169 92.0724 77.6068 91.8952 78.3538 91.5972C78.6479 91.473 78.8999 91.2668 79.0796 91.0035C79.2593 90.7402 79.359 90.4308 79.3668 90.1124C79.3668 89.5972 78.8198 89.3549 78.4146 89.2538C78.1996 89.194 77.9789 89.1567 77.7562 89.1428C77.2368 89.1076 76.7156 89.1076 76.1962 89.1428C65.3532 90.0298 54.4625 90.185 43.5986 89.6073C41.3599 89.4861 39.1212 89.3347 36.8927 89.1932C30.7689 88.6706 24.6216 88.4716 18.4767 88.5973C17.5776 88.5772 16.6831 88.7316 15.843 89.0518C15.5315 89.1895 15.2643 89.4106 15.0712 89.6906C14.8781 89.9705 14.7665 90.2983 14.749 90.6376C14.7687 90.8723 14.8628 91.0947 15.0176 91.2726C15.1723 91.4505 15.3798 91.5747 15.61 91.6274Z" fill="#1E1E1E"/>
<path d="M15.1845 108.142C15.583 108.223 15.996 108.195 16.3799 108.061L16.7141 107.98C17.2543 107.871 17.8041 107.817 18.3552 107.819C19.5976 107.861 20.8328 108.027 22.0424 108.313C22.5489 108.414 23.0554 108.515 23.5619 108.596C27.2896 109.212 31.1491 108.758 34.8667 108.324C35.3449 108.315 35.8127 108.183 36.2241 107.94C36.4298 107.776 36.5939 107.567 36.703 107.328C36.8122 107.089 36.8633 106.828 36.8521 106.566C36.8495 106.309 36.7739 106.058 36.6341 105.841C36.4943 105.625 36.2959 105.453 36.062 105.344L35.8999 105.293C35.4759 105.246 35.0466 105.277 34.6337 105.384C31.4281 106.033 28.1419 106.19 24.8889 105.849C24.5343 105.849 23.9975 105.708 23.3289 105.566C21.0598 105.101 16.8256 104.243 15.2251 105.394C15.0527 105.507 14.9071 105.655 14.7986 105.83C14.6901 106.004 14.6213 106.201 14.597 106.404C14.5152 106.72 14.5272 107.052 14.6316 107.36C14.7359 107.669 14.928 107.94 15.1845 108.142Z" fill="#1E1E1E"/>
<path d="M36.8319 126.898C36.811 126.822 36.7839 126.748 36.7509 126.676C36.3457 125.949 35.1706 125.949 34.0665 126.05C31.3065 126.192 28.5393 126.043 25.8107 125.605C22.9911 125.126 20.1223 125 17.2713 125.232C16.9182 125.278 16.5885 125.433 16.3286 125.676C16.0687 125.919 15.8918 126.237 15.8228 126.585C15.7713 126.845 15.8157 127.115 15.9478 127.345C16.08 127.575 16.2909 127.75 16.542 127.838C17.3007 128.124 18.1224 128.205 18.9225 128.07H19.2365H20.4217C22.4947 128.114 24.5624 128.296 26.611 128.615C28.9952 128.997 31.4092 129.162 33.8234 129.11C34.6523 129.121 35.4671 128.896 36.1735 128.464C36.4105 128.294 36.597 128.064 36.7129 127.797C36.8289 127.53 36.87 127.237 36.8319 126.949V126.898Z" fill="#1E1E1E"/>
<path d="M27.553 143.281C25.7803 143.281 23.9468 143.342 22.1336 143.281C21.2523 143.281 20.3608 143.281 19.4796 143.19L18.4666 143.12L16.9775 142.978H16.7749C16.4355 142.953 16.0984 143.05 15.825 143.252C15.5516 143.454 15.3603 143.748 15.2858 144.079C15.2238 144.529 15.3401 144.986 15.61 145.352C15.7847 145.582 16.043 145.734 16.3292 145.776C20.1298 146.138 23.9501 146.253 27.7657 146.119C27.9393 146.105 28.1084 146.057 28.2632 145.977C28.4179 145.897 28.5553 145.788 28.6673 145.655C28.7925 145.519 28.8892 145.36 28.9518 145.186C29.0145 145.013 29.0417 144.829 29.0319 144.645C29.0085 144.271 28.8418 143.921 28.5664 143.667C28.291 143.414 27.9281 143.275 27.553 143.281Z" fill="#1E1E1E"/>
<path d="M22.4273 159.987C20.4106 159.735 18.3817 159.59 16.3495 159.553C16.16 159.554 15.9726 159.593 15.7986 159.667C15.6245 159.742 15.4674 159.851 15.3365 159.987C15.2021 160.118 15.0966 160.276 15.0268 160.45C14.957 160.624 14.9245 160.81 14.9313 160.997C14.9312 161.376 15.0793 161.74 15.3441 162.012C15.609 162.284 15.9697 162.441 16.3495 162.452C18.4054 162.494 20.4578 162.642 22.4983 162.896C22.6853 162.896 22.8703 162.858 23.0425 162.785C23.2147 162.712 23.3706 162.606 23.5011 162.472C23.7635 162.201 23.9102 161.839 23.9102 161.462C23.9102 161.085 23.7635 160.723 23.5011 160.452C23.21 160.175 22.8293 160.01 22.4273 159.987Z" fill="#1E1E1E"/>
<path d="M75.7505 115C75.8116 114.945 75.861 114.878 75.8958 114.803C75.9306 114.729 75.9501 114.648 75.9531 114.566C75.9696 114.436 75.9592 114.305 75.9226 114.18C75.886 114.055 75.824 113.939 75.7403 113.838C75.6766 113.759 75.6324 113.665 75.6113 113.565C75.5902 113.465 75.5927 113.362 75.6188 113.263V113.192C75.6188 113.131 75.6188 113.061 75.6188 113.03C75.6276 112.748 75.5421 112.471 75.3757 112.243C75.4601 110.159 75.433 108.072 75.2946 105.99C75.2743 105.721 75.1596 105.467 74.9705 105.273C74.9438 105.215 74.9097 105.161 74.8692 105.112C74.7635 104.953 74.6061 104.835 74.4235 104.778C74.4235 104.778 74.4235 104.778 74.3323 104.778H74.2209L62.7945 100.859L62.1867 100.657C61.2628 100.423 60.3882 100.026 59.6036 99.4857L59.4111 99.3847L59.2794 99.3139L59.1579 99.2533C58.9376 99.1356 58.6815 99.1033 58.4387 99.1625C52.848 101.061 47.1128 102.507 41.289 103.485H41.1674C40.9385 103.483 40.7149 103.554 40.5292 103.688L40.4381 103.748C40.3454 103.817 40.2664 103.903 40.2051 104.001C40.1777 104.029 40.1569 104.064 40.1443 104.102C40.1493 104.142 40.1493 104.183 40.1443 104.223C40.1394 104.28 40.1394 104.337 40.1443 104.395V104.516C40.149 104.563 40.149 104.61 40.1443 104.657C40.2064 104.786 40.297 104.9 40.4093 104.989C40.5215 105.078 40.6526 105.141 40.7926 105.172L40.9749 105.253L52.4621 109.223L53.0699 109.425C53.9927 109.667 54.8665 110.067 55.653 110.606C55.7124 110.648 55.7771 110.682 55.8454 110.707L55.9771 110.778L56.0987 110.839C56.319 110.956 56.5751 110.989 56.8179 110.93C60.5364 109.67 64.3203 108.611 68.1531 107.758C69.6726 107.425 71.0705 107.142 72.4279 106.889H72.5393C72.621 106.889 72.7013 106.91 72.7723 106.95C72.8837 108.839 72.9243 110.728 72.904 112.616V112.677C72.706 112.798 72.5195 112.936 72.3469 113.091C72.2059 113.244 72.1277 113.444 72.1277 113.652C72.1277 113.859 72.2059 114.059 72.3469 114.212C72.4249 114.315 72.4671 114.441 72.4671 114.571C72.4671 114.7 72.4249 114.826 72.3469 114.929C72.2634 115.039 72.1983 115.162 72.1544 115.293C72.1119 115.441 72.0998 115.596 72.119 115.749C72.1381 115.901 72.1881 116.049 72.2658 116.182C72.3433 116.313 72.3676 116.468 72.3337 116.617C72.2998 116.765 72.2103 116.895 72.0835 116.98C71.9427 117.075 71.8318 117.208 71.7637 117.364C71.6956 117.519 71.673 117.691 71.6985 117.858C71.7219 118.026 71.7952 118.184 71.9089 118.31C72.0227 118.436 72.1717 118.525 72.3367 118.565L74.1196 119.131C74.224 119.163 74.334 119.172 74.4423 119.158C74.5506 119.144 74.6547 119.107 74.7476 119.05C74.8583 118.996 74.9567 118.919 75.0368 118.825C75.1169 118.732 75.177 118.622 75.2136 118.505C75.2623 118.357 75.2623 118.198 75.2136 118.05C75.1829 117.943 75.1817 117.829 75.2102 117.72C75.2387 117.612 75.2958 117.513 75.3757 117.434C75.5002 117.321 75.6002 117.183 75.6694 117.03C75.7319 116.863 75.7516 116.684 75.7269 116.507C75.7021 116.331 75.6336 116.163 75.5276 116.02C75.4382 115.892 75.402 115.734 75.4266 115.58C75.4511 115.425 75.5345 115.286 75.6593 115.192L75.7505 115ZM65.9246 105.96L62.7945 106.728L57.2636 108.081C57.1694 107.994 57.0594 107.925 56.9395 107.879L52.138 106.031L49.8486 105.152C49.6562 105.071 49.0686 104.92 48.5419 104.728L49.6562 104.395L55.501 102.688C56.3718 102.333 57.2839 102.088 58.2158 101.96C60.0447 102.086 61.8181 102.639 63.3921 103.576C64.243 104.021 65.0838 104.485 65.9246 104.94L67.0186 105.516L67.282 105.657C66.8059 105.839 66.269 105.91 65.9246 105.99V105.96Z" fill="#1E1E1E"/>
<path d="M69.4903 116.596C70.0808 115.688 70.4295 114.645 70.5033 113.566C70.6942 112.444 70.6771 111.297 70.4526 110.182C70.3968 109.883 70.261 109.603 70.0596 109.374C69.8582 109.145 69.5985 108.974 69.308 108.879C69.0046 108.791 68.6802 108.808 68.3877 108.927C68.0952 109.046 67.8519 109.261 67.6973 109.536C67.5984 109.731 67.5618 109.952 67.5926 110.169C67.6234 110.385 67.72 110.588 67.8695 110.748V114.354C67.8704 114.443 67.8507 114.531 67.8121 114.612C67.7734 114.692 67.7169 114.763 67.6467 114.818C66.5896 115.602 65.3251 116.058 64.0101 116.131C62.6527 116.293 61.3156 116.374 59.8873 116.444C56.2043 116.551 52.5197 116.297 48.8863 115.687L47.8734 115.313C47.9747 114.717 48.076 114.111 48.1367 113.515C48.3243 112.694 48.3243 111.842 48.1367 111.021C47.5695 109.617 45.8778 110.011 45.3814 111.243C44.9459 112.837 44.9249 114.516 45.3207 116.121C45.3897 116.56 45.5711 116.974 45.8474 117.323C45.7056 117.515 45.5536 117.707 45.422 117.909C42.2817 122.676 40.9547 129.918 45.4827 134.555C47.3611 136.456 49.6771 137.871 52.2292 138.675C54.1851 139.328 56.248 139.602 58.307 139.484C58.4205 139.377 58.5671 139.313 58.7224 139.302H58.9452C59.0819 139.299 59.2162 139.337 59.3301 139.413C59.8374 139.351 60.3411 139.263 60.8395 139.15H61.0623H61.2042C63.7886 138.441 66.1299 137.041 67.9756 135.103C69.8213 133.165 71.1016 130.761 71.6783 128.151C72.0888 126.27 72.034 124.318 71.5186 122.464C71.0033 120.609 70.0429 118.907 68.7204 117.505C69.0235 117.244 69.2833 116.938 69.4903 116.596ZM68.1937 129.787C67.2905 131.772 65.8556 133.47 64.0469 134.694C62.2382 135.919 60.1259 136.622 57.9424 136.726H57.3852C53.465 136.726 48.4305 134.979 46.1007 130.989C43.943 127.282 45.6448 121.838 48.4001 118.353C52.0266 118.727 55.6935 118.919 59.3301 118.99C61.4563 119.13 63.5916 118.967 65.6714 118.505C66.9034 119.265 67.8557 120.403 68.3862 121.747C68.8858 123.034 69.126 124.407 69.093 125.786C69.06 127.166 68.7544 128.525 68.1937 129.787Z" fill="#1E1E1E"/>
<path d="M53.1307 96.415C52.9905 96.385 52.8455 96.385 52.7052 96.415C49.8689 97.2028 47.0089 97.8762 44.1253 98.4351C44.0027 98.4601 43.8873 98.512 43.7874 98.5872C43.6875 98.6623 43.6057 98.7588 43.5479 98.8695C43.4185 98.9843 43.3209 99.1304 43.2643 99.2937C43.2107 99.5115 43.2315 99.7409 43.3232 99.9458C43.4149 100.151 43.5723 100.319 43.7708 100.425C43.8994 100.534 44.0506 100.612 44.2135 100.656C44.3763 100.7 44.5469 100.707 44.7128 100.677H44.8749C45.4209 100.647 45.9632 100.569 46.4957 100.445L46.7692 100.384C47.7822 100.203 48.8762 100.001 49.9195 99.7482C50.7603 99.5563 51.6011 99.334 52.4317 99.0916C53.2624 98.8492 54.0525 98.5866 54.2652 97.7079C54.4172 97.0311 53.8904 96.2433 53.1307 96.415Z" fill="#1E1E1E"/>
</g>
<path d="M157.599 70.933C156.584 71.9481 154.615 71.6537 153.316 71.6842C145.325 71.8872 137.361 72.4388 129.424 73.3388C129.123 73.3446 128.826 73.2775 128.557 73.1431C128.289 73.0087 128.057 72.8112 127.881 72.5674C127.724 72.3931 127.609 72.1846 127.546 71.9583C127.094 70.2663 126.772 68.5423 126.582 66.8013C126.566 66.5593 126.615 66.3175 126.724 66.1009C126.884 65.7076 127.174 65.3814 127.546 65.1771C133.291 62.6393 140.233 62.7205 146.576 62.3855C146.272 49.95 144.709 37.5551 145.216 25.0992C145.223 24.8021 145.306 24.5117 145.457 24.2557C145.608 23.9997 145.822 23.7868 146.079 23.6374C146.342 23.3403 146.701 23.146 147.094 23.0893L148.911 22.7441C151.499 22.267 155 21.7899 156.543 23.4243C157.497 24.4394 157.203 25.7591 157.142 26.9874C157.064 28.89 157.108 30.7956 157.274 32.6925C157.822 40.2757 158.289 47.8486 158.39 55.452C158.444 59.4111 158.444 63.3702 158.39 67.3292C158.329 68.4763 158.542 70.0295 157.599 70.933Z" fill="#FBB03B"/>
<path d="M130.642 7.56757C130.584 7.8647 130.455 8.14339 130.266 8.37967C130.469 8.98943 130.432 9.65334 130.165 10.2374C130.165 10.3288 130.063 10.41 130.023 10.4912C129.864 10.8212 129.617 11.1005 129.308 11.2978C129 11.495 128.643 11.6024 128.277 11.6078L111.429 12.2169C109.105 12.2981 106.75 12.3286 104.416 12.4606C104.416 13.1204 104.355 13.7904 104.314 14.4909C104.969 19.0631 105.358 23.6694 105.481 28.2866C105.485 28.6135 105.386 28.9332 105.197 29.2003C105.561 36.083 105.513 42.9814 105.055 49.8584C105.439 49.975 105.777 50.2071 106.024 50.5232C106.271 50.8394 106.415 51.2241 106.435 51.6248C106.432 52.0264 106.296 52.4155 106.048 52.7314C105.8 53.0473 105.454 53.2721 105.065 53.3708C104.878 53.4387 104.684 53.4831 104.487 53.5028C103.969 53.5028 103.472 53.5738 102.934 53.6043C100.985 53.7058 99.0364 53.8175 97.0877 53.9901C96.5822 53.993 96.0955 53.7982 95.7315 53.4474C95.3675 53.0966 95.1548 52.6174 95.139 52.1121C94.9438 51.9468 94.7886 51.7395 94.6848 51.5056C94.5811 51.2718 94.5317 51.0176 94.5402 50.7619C94.5402 43.3311 93.779 35.9307 93.5252 28.51C93.3544 24.9586 93.3713 21.4006 93.576 17.851C93.6876 16.1354 93.8602 14.4198 94.1038 12.7144C94.1702 11.4975 94.427 10.2986 94.865 9.16135C94.8175 8.79921 94.8802 8.43117 95.0449 8.10522C95.2097 7.77927 95.4688 7.51053 95.7886 7.33407C96.0732 7.17481 96.3964 7.09751 96.7223 7.11074C97.5748 7.11074 98.4375 7.11074 99.2901 7.11074C99.96 7.11074 100.62 7.11074 101.259 7.11074C105.106 6.98892 108.942 6.69456 112.779 6.44077L127.252 5.48653L128.876 5.37485C129.153 5.35061 129.432 5.39498 129.688 5.50404C129.944 5.6131 130.169 5.78351 130.343 6.00021C130.518 6.21691 130.636 6.47322 130.688 6.74657C130.74 7.01992 130.724 7.30188 130.642 7.56757Z" fill="#FBB03B"/>
<path d="M118.016 41.9606C117.631 42.5044 117.149 42.9724 116.595 43.3412C116.239 43.5653 115.84 43.711 115.423 43.7687C115.007 43.8265 114.583 43.795 114.179 43.6762C113.805 43.5555 113.459 43.3585 113.164 43.0976C113.053 42.9947 112.954 42.8789 112.87 42.7525L112.728 42.59C112.555 42.3427 112.425 42.0682 112.342 41.7779C112.17 41.1638 112.17 40.514 112.342 39.8999C112.508 39.2878 112.834 38.7308 113.286 38.2858C113.444 38.1351 113.63 38.0178 113.834 37.9407C113.904 37.8743 113.979 37.8132 114.058 37.7579C114.499 37.5112 115.008 37.415 115.509 37.4839C115.732 37.4839 116.006 37.4839 116.24 37.5854C116.469 37.6532 116.693 37.738 116.909 37.8392L117.062 37.9407C117.691 38.331 118.156 38.9373 118.371 39.6461C118.496 40.0329 118.529 40.4436 118.468 40.8455C118.406 41.2473 118.251 41.6292 118.016 41.9606Z" fill="#FBB03B"/>
<path d="M117.021 32.2153C116.637 32.7533 116.159 33.2176 115.61 33.5858C115.254 33.8092 114.855 33.9546 114.438 34.0123C114.022 34.0701 113.598 34.0389 113.195 33.9208C112.819 33.8022 112.473 33.605 112.18 33.3422C112.114 33.2759 112.053 33.2046 111.997 33.129C111.907 33.0359 111.822 32.9377 111.743 32.8346C111.569 32.5921 111.438 32.3206 111.358 32.0326C111.185 31.415 111.185 30.762 111.358 30.1444C111.524 29.5347 111.846 28.9786 112.292 28.5304C112.449 28.3797 112.635 28.2623 112.84 28.1852C112.921 28.1243 112.982 28.0533 113.063 28.0025C113.508 27.7563 114.02 27.6602 114.524 27.7284C114.748 27.7284 115.022 27.7791 115.255 27.8299C115.408 27.8768 115.557 27.9345 115.702 28.0025C115.778 28.0285 115.852 28.059 115.925 28.0939C116.275 28.28 116.585 28.5352 116.834 28.8439C117.084 29.1527 117.268 29.5087 117.376 29.8906C117.507 30.2784 117.542 30.6917 117.48 31.096C117.419 31.5004 117.261 31.8841 117.021 32.2153Z" fill="#FBB03B"/>
<path d="M139.964 58.6358C139.657 58.9173 139.253 59.0739 138.833 59.0739C138.414 59.0739 138.01 58.9173 137.703 58.6358C137.499 58.4154 137.311 58.1815 137.14 57.9359C136.964 58.1597 136.744 58.3459 136.492 58.4831C136.241 58.6203 135.964 58.7057 135.677 58.7339C135.391 58.7621 135.102 58.7325 134.828 58.6471C134.554 58.5617 134.3 58.4221 134.083 58.237L134.025 58.3428C133.811 58.8271 133.428 59.2205 132.945 59.4518C132.462 59.6831 131.911 59.7372 131.391 59.6043C131.11 59.5314 130.847 59.401 130.621 59.2218C130.465 59.3914 130.296 59.5492 130.115 59.6939C129.803 59.965 129.401 60.1147 128.985 60.1147C128.568 60.1147 128.166 59.965 127.854 59.6939C127.707 59.557 127.591 59.3923 127.511 59.2097C127.431 59.0271 127.39 58.8305 127.39 58.6318C127.39 58.433 127.431 58.2364 127.511 58.0538C127.591 57.8712 127.707 57.7065 127.854 57.5696C128.01 57.4501 128.157 57.3196 128.293 57.179C128.308 57.1533 128.324 57.1288 128.343 57.1057L128.5 56.8453C128.656 56.4743 128.881 56.1349 129.163 55.8442C129.535 55.5089 130.016 55.3155 130.521 55.2991C131.025 55.2827 131.519 55.4443 131.913 55.7547C132.202 55.3162 132.535 54.9072 132.907 54.5339C133.083 54.3776 133.292 54.2604 133.518 54.1902C133.745 54.12 133.984 54.0984 134.219 54.127C134.455 54.1555 134.682 54.2335 134.884 54.3557C135.086 54.4778 135.259 54.6413 135.392 54.835C135.441 54.9489 135.524 55.0466 135.582 55.1524C135.879 54.8684 136.207 54.6173 136.56 54.4037C136.794 54.2596 137.057 54.167 137.331 54.1324C137.605 54.0978 137.884 54.1219 138.147 54.2031C138.411 54.2843 138.654 54.4207 138.859 54.6028C139.064 54.785 139.226 55.0086 139.335 55.2582C139.398 55.4042 139.454 55.5537 139.5 55.7059C139.5 55.7465 139.583 55.95 139.6 56.0151C139.616 56.0802 139.774 56.3163 139.815 56.3732L139.865 56.4546L139.956 56.5442C140.233 56.8238 140.388 57.1981 140.39 57.5883C140.391 57.9785 140.239 58.3541 139.964 58.6358Z" fill="#1E1E1E"/>
<path d="M145.44 64.0095C145.719 64.0419 146.001 64.0035 146.262 63.8979H146.353L146.637 63.7558C146.867 63.5566 147.021 63.2848 147.075 62.9855C147.128 62.6863 147.078 62.3777 146.932 62.1112L146.871 61.9894V61.8473C146.373 50.2747 145.937 37.7986 145.521 23.6881L145.399 19.7798C145.328 17.3028 145.247 14.8259 145.186 12.3489C145.18 12.179 145.139 12.0122 145.066 11.8584C144.994 11.7047 144.891 11.5672 144.764 11.4543C144.637 11.3414 144.488 11.2554 144.327 11.2016C144.166 11.1477 143.995 11.1271 143.826 11.1409H143.552L143.379 10.9379C143.268 10.8228 143.133 10.7326 142.985 10.6731C142.836 10.6136 142.677 10.5862 142.517 10.5927H142.425C139.157 10.7755 135.828 10.8973 132.621 11.0292L130.053 11.1308C119.812 11.5368 111.327 11.7804 103.35 11.8718C103.103 11.8557 102.858 11.9176 102.648 12.0488C102.439 12.18 102.276 12.3737 102.183 12.6027C102.079 12.8401 102.046 13.1022 102.088 13.3577C102.129 13.6133 102.243 13.8516 102.416 14.0442L102.558 14.1965V14.3995C104.131 27.1497 105.177 40.2755 105.664 53.4318C105.776 56.4772 105.897 60.0201 105.948 63.5832C105.946 63.7634 105.987 63.9416 106.068 64.1025C106.149 64.2634 106.268 64.4022 106.415 64.507L106.547 64.5983L106.608 64.7405C106.688 64.8878 106.803 65.0131 106.942 65.1052C107.082 65.1973 107.243 65.2534 107.41 65.2684C113.802 66.1586 120.28 66.2438 126.694 65.5222C128.551 65.3699 130.408 65.1872 132.266 65.0044C136.559 64.5882 140.994 64.1517 145.379 63.9893H145.46L145.44 64.0095ZM143.552 61.5428C139.898 61.7153 136.173 62.1011 132.56 62.4666C127.55 63.0662 122.513 63.405 117.468 63.4817C114.68 63.4949 111.895 63.3049 109.135 62.9132L108.628 62.8422V62.3853C108.35 46.5334 107.252 30.7065 105.339 14.968L105.258 14.298H105.928C118.178 14.1254 130.286 13.7194 141.897 13.1001H142.517V13.7295C142.912 29.2917 143.45 45.1989 144.12 60.9743V61.5834L143.552 61.5428Z" fill="#1E1E1E"/>
<path d="M159.273 23.3328C159.262 23.2406 159.235 23.1512 159.192 23.0688L159.121 22.8354V22.7643V22.6526C159.068 22.4433 158.961 22.2519 158.809 22.0984C158.657 21.9448 158.467 21.8348 158.258 21.7796C155.82 21.2458 153.324 21.0139 150.829 21.0893C150.419 21.1085 150.033 21.287 149.753 21.5867C149.657 21.684 149.581 21.7998 149.53 21.9271C149.48 22.0545 149.455 22.1908 149.459 22.3278C149.454 22.3649 149.454 22.4024 149.459 22.4395V22.5816C149.519 22.8682 149.676 23.1253 149.903 23.3101C150.131 23.4949 150.414 23.5961 150.707 23.5967C151.895 23.5555 153.085 23.586 154.27 23.6881L155.152 23.7795L155.619 23.8505C155.735 23.865 155.851 23.8853 155.965 23.9114L156.634 24.0332V24.5002C156.695 25.1194 156.746 25.7488 156.787 26.3681L156.898 27.8299L156.34 27.9111C156.031 27.9565 155.752 28.121 155.562 28.3694C155.372 28.6179 155.287 28.9306 155.325 29.2409C155.328 29.3965 155.361 29.5499 155.425 29.692C155.488 29.8342 155.579 29.9621 155.692 30.0682C155.806 30.1744 155.94 30.2565 156.086 30.3097C156.232 30.3629 156.388 30.3861 156.543 30.3779H157.101V30.9362C157.189 32.4318 157.27 33.9241 157.345 35.413V36.0322H156.726C156.558 36.029 156.392 36.0607 156.238 36.1252C156.083 36.1896 155.944 36.2855 155.828 36.4068C155.713 36.528 155.624 36.6719 155.567 36.8294C155.51 36.9868 155.486 37.1544 155.498 37.3215C155.492 37.4817 155.519 37.6413 155.577 37.7908C155.635 37.9403 155.722 38.0766 155.834 38.1913C155.946 38.3061 156.08 38.397 156.228 38.4586C156.376 38.5202 156.535 38.5512 156.695 38.5498H157.416V39.1487C157.416 39.6867 157.416 40.2146 157.467 40.7425C157.467 41.7069 157.548 42.6814 157.558 43.6458V44.3158L156.685 44.2244C156.369 44.2594 156.078 44.4115 155.869 44.6506C155.661 44.8898 155.549 45.1987 155.556 45.5162C155.564 45.8338 155.69 46.1369 155.911 46.3657C156.131 46.5945 156.429 46.7324 156.746 46.7522H156.898L157.568 46.6912V47.3612C157.568 49.1276 157.568 50.8838 157.517 52.6501V53.3303L156.848 53.2389L156.645 53.1882C156.476 53.1812 156.308 53.2088 156.15 53.2692C155.993 53.3296 155.849 53.4216 155.729 53.5395C155.608 53.6573 155.513 53.7986 155.448 53.9547C155.384 54.1107 155.353 54.2782 155.355 54.4469C155.346 54.6127 155.37 54.7788 155.428 54.9345C155.486 55.0902 155.575 55.2323 155.69 55.3516C155.806 55.4709 155.945 55.5649 156.099 55.6276C156.253 55.6903 156.418 55.7204 156.584 55.7159C156.637 55.7033 156.693 55.7033 156.746 55.7159H157.416L157.335 57.8578C157.335 58.9948 157.264 60.1318 157.193 61.2687V61.7966H156.665C156.367 61.8044 156.083 61.927 155.873 62.1388C155.663 62.3507 155.543 62.6353 155.538 62.9335C155.51 63.2284 155.592 63.5233 155.768 63.7614C155.944 63.9995 156.202 64.1639 156.492 64.2228L157.02 64.3243L156.919 65.6846C156.858 66.4764 156.807 67.2783 156.736 68.0701C156.743 68.1309 156.743 68.1922 156.736 68.2529C156.754 68.8721 156.707 69.4914 156.594 70.1004C156.628 70.2198 156.628 70.3465 156.594 70.4659C156.472 70.9633 155.944 70.9735 155.67 70.9532L154.523 71.1055C152.91 71.3085 151.296 71.5014 149.682 71.674C146.475 72.0292 143.207 72.3338 139.979 72.5977C136.752 72.8616 133.463 73.0647 130.256 73.2169C129.688 73.2169 129.099 73.2169 128.51 73.2169H127.709C126.958 73.2122 126.208 73.2666 125.466 73.3794L125.151 73.4505C125.025 73.498 124.891 73.5163 124.757 73.504C124.623 73.4917 124.494 73.4491 124.38 73.3794C124.271 73.2901 124.185 73.1765 124.128 73.0477C124.072 72.9189 124.047 72.7787 124.055 72.6383V72.4353C124.055 72.1105 123.963 71.7856 123.913 71.4202C123.831 70.8923 123.75 70.405 123.71 69.8466C123.661 69.4832 123.476 69.1521 123.19 68.9216C122.905 68.6912 122.543 68.579 122.177 68.6082H122.035C121.892 68.6073 121.75 68.6368 121.619 68.6946C121.488 68.7525 121.371 68.8374 121.275 68.9438C121.179 69.0503 121.107 69.1758 121.063 69.3122C121.019 69.4485 121.004 69.5926 121.02 69.735C121.02 69.9786 121.02 70.2324 121.081 70.5065C121.182 71.9785 121.314 73.8159 122.147 74.9021C122.979 75.9883 124.4 75.9172 125.922 75.8563H126.42C130.906 75.6939 135.442 75.43 139.928 75.0747C144.415 74.7194 148.708 74.2829 153.031 73.7651C153.427 73.7144 153.864 73.6839 154.33 73.6534C155.772 73.5621 157.558 73.4403 158.39 72.6383C159.222 71.8363 159.314 70.2019 159.405 68.7706C159.405 68.3645 159.405 67.9788 159.466 67.6336V67.4611C160.748 52.7766 160.684 38.0055 159.273 23.3328Z" fill="#1E1E1E"/>
<path d="M102.315 53.5232C102.286 53.1929 102.135 52.8852 101.891 52.6614C101.646 52.4375 101.327 52.3139 100.995 52.3151C99.8103 52.3562 98.624 52.3257 97.4428 52.2237L96.6411 52.1425L96.0321 52.0816V51.5639C95.9001 49.4016 95.7885 47.2698 95.6971 45.1482V44.5696L96.2655 44.5188C96.4248 44.5086 96.5804 44.4667 96.7232 44.3954C96.866 44.3242 96.9931 44.2252 97.0971 44.1041C97.2011 43.9831 97.2799 43.8425 97.3288 43.6905C97.3777 43.5386 97.3958 43.3784 97.3819 43.2194C97.3835 43.0609 97.3527 42.9037 97.2915 42.7575C97.2303 42.6112 97.14 42.479 97.0261 42.3688C96.9121 42.2586 96.7769 42.1728 96.6287 42.1166C96.4805 42.0604 96.3224 42.035 96.164 42.0419H95.5957V41.4734L96.1945 41.2805H95.5855C95.5855 40.4379 95.5246 39.5954 95.5043 38.7528C95.484 37.9102 95.4333 37.2098 95.4028 36.3165V35.7886L95.9103 35.6972C96.1964 35.6515 96.4569 35.5053 96.6449 35.2849C96.833 35.0644 96.9363 34.7841 96.9363 34.4943C96.9363 34.2045 96.833 33.9242 96.6449 33.7037C96.4569 33.4832 96.1964 33.337 95.9103 33.2913L95.4028 33.2101V32.6924C95.4028 30.5809 95.4028 28.5201 95.4028 27.1294V26.6523L95.8697 26.5203C96.1319 26.4512 96.3639 26.2971 96.5294 26.0823C96.6949 25.8674 96.7846 25.6038 96.7846 25.3326C96.7846 25.0614 96.6949 24.7978 96.5294 24.5829C96.3639 24.3681 96.1319 24.214 95.8697 24.1449L95.3927 24.0434L95.3419 18.0845L95.8392 17.983C96.1108 17.9213 96.3534 17.7692 96.5271 17.5516C96.7009 17.3339 96.7956 17.0636 96.7956 16.7851C96.7956 16.5065 96.7009 16.2363 96.5271 16.0186C96.3534 15.801 96.1108 15.6489 95.8392 15.5872L95.3419 15.4959V10.9988L95.819 10.8871C96.0812 10.8179 96.3131 10.6639 96.4786 10.4491C96.6441 10.2342 96.7339 9.97063 96.7339 9.6994C96.7339 9.42817 96.6441 9.16457 96.4786 8.94972C96.3131 8.73487 96.0812 8.58083 95.819 8.51167L95.3419 8.41015V6.07533C95.2759 6.00229 95.2291 5.91384 95.2061 5.81807C95.183 5.7223 95.1844 5.62226 95.21 5.52714C95.3318 5.01957 95.8494 5.00943 96.1234 5.02973L97.2805 4.87747C98.8841 4.67444 100.498 4.49172 102.122 4.30899C105.329 3.95369 108.597 3.64915 111.814 3.39537C115.032 3.14158 118.33 2.92837 121.548 2.76595C122.106 2.76595 122.685 2.76595 123.273 2.76595C124.291 2.79686 125.31 2.73914 126.318 2.59339C126.428 2.57621 126.536 2.55247 126.643 2.52233C126.769 2.47692 126.903 2.45974 127.036 2.47202C127.17 2.4843 127.299 2.52574 127.414 2.59339C127.516 2.68805 127.598 2.80266 127.654 2.93014C127.709 3.05763 127.738 3.19524 127.739 3.33443V3.53747L127.891 4.55261L128.023 5.4764C128.023 5.65912 128.074 5.852 128.094 6.04488C128.111 6.28191 128.194 6.50939 128.334 6.70143C128.474 6.89347 128.665 7.04234 128.886 7.13109C129.135 7.24587 129.408 7.29581 129.682 7.27629C129.955 7.25676 130.219 7.16839 130.449 7.01941C130.577 6.9189 130.677 6.78612 130.738 6.63454C130.798 6.48297 130.818 6.31802 130.794 6.15653C130.794 5.91289 130.794 5.64898 130.733 5.38504C130.632 3.91308 130.5 2.06552 129.667 0.97932C128.835 -0.106883 127.404 -0.0358467 125.892 0.0352134H125.394C120.898 0.197636 116.351 0.461593 111.885 0.816894C107.42 1.17219 103.127 1.60869 98.7724 2.13657C98.3868 2.13657 97.9503 2.20763 97.4834 2.23809C96.0422 2.3396 94.2458 2.45127 93.4237 3.25323C93.166 3.51541 92.9685 3.83067 92.8452 4.17702C92.7005 4.59827 92.6019 5.03393 92.5508 5.4764C92.6219 8.6538 92.6523 11.75 92.6828 14.7852V17.049C92.7437 27.6776 92.7538 39.037 92.4392 50.1427C92.4899 50.9041 92.561 51.7263 92.632 52.5384C92.649 52.6273 92.6798 52.7129 92.7234 52.7922L92.7944 53.0359C92.7944 53.0359 92.7944 53.0359 92.7944 53.0866L92.8452 53.2186C92.8912 53.4305 92.9954 53.6254 93.146 53.7813C93.2966 53.9373 93.4876 54.0483 93.6977 54.1018C96.1357 54.6412 98.6315 54.873 101.127 54.7921C101.466 54.7965 101.795 54.6739 102.048 54.4486C102.302 54.2232 102.462 53.9113 102.497 53.5739V53.4724L102.315 53.5232Z" fill="#1E1E1E"/>
<path d="M111.571 22.3887C111.867 22.4319 112.168 22.4319 112.464 22.3887H112.647C112.905 22.3707 113.16 22.323 113.408 22.2466C113.609 22.1855 113.803 22.1039 113.986 22.003C114.132 21.9106 114.271 21.8089 114.403 21.6984C114.684 21.434 114.894 21.102 115.012 20.734V20.5513C115.045 20.3977 115.065 20.2414 115.072 20.0843C115.061 19.8929 115.034 19.7028 114.991 19.5159V19.4144C114.991 19.3129 114.91 19.2316 114.869 19.1504C114.763 18.9044 114.612 18.6805 114.423 18.4906C114.286 18.371 114.14 18.2623 113.986 18.1657C113.83 18.0752 113.663 18.0037 113.489 17.9526C113.329 17.9148 113.166 17.8877 113.002 17.8713H112.789C112.58 17.8777 112.373 17.905 112.17 17.9526C111.994 18.0035 111.824 18.0715 111.662 18.1556C111.439 18.257 111.236 18.398 111.063 18.5718C110.935 18.7049 110.816 18.8474 110.708 18.9982C110.619 19.157 110.544 19.3234 110.485 19.4956L110.424 19.6174C110.338 19.7659 110.267 19.9222 110.211 20.0843C110.163 20.2598 110.135 20.4404 110.13 20.6224C110.129 21.073 110.304 21.5062 110.617 21.8304L110.191 22.2669L110.657 21.8812C110.905 22.1371 111.223 22.3138 111.571 22.3887Z" fill="#1E1E1E"/>
<path d="M110.972 31.5657C111.017 31.6461 111.072 31.7211 111.135 31.789C111.315 32.0246 111.535 32.2272 111.784 32.388C111.862 32.4329 111.943 32.4703 112.028 32.4997L112.221 32.5707C112.294 32.6086 112.373 32.6359 112.454 32.6519C112.875 32.7425 113.311 32.7425 113.733 32.6519C113.988 32.5999 114.232 32.5037 114.453 32.3677C114.799 32.1581 115.094 31.8737 115.316 31.5353C115.37 31.4527 115.414 31.3641 115.448 31.2713L115.519 31.1191C115.567 31.0171 115.607 30.9119 115.641 30.8044C115.711 30.5259 115.738 30.2384 115.722 29.9516C115.71 29.6577 115.655 29.3671 115.56 29.0888C115.458 28.8553 115.387 28.6827 115.296 28.5203L115.184 28.3782L114.9 28.0026L114.788 27.8909C114.634 27.7526 114.464 27.6334 114.281 27.5356C114.108 27.4411 113.924 27.3694 113.733 27.3224C113.544 27.2731 113.349 27.2526 113.154 27.2615H112.829L112.687 27.2108C112.622 27.1906 112.56 27.1598 112.505 27.1194C112.39 27.1096 112.274 27.1096 112.16 27.1194C111.932 27.1112 111.707 27.1675 111.51 27.2818C111.212 27.4381 110.987 27.7037 110.881 28.0229C110.738 28.6198 110.647 29.2276 110.607 29.84C110.596 30.0056 110.596 30.1718 110.607 30.3374V30.4694C110.622 30.6477 110.652 30.8243 110.698 30.9972C110.767 31.1966 110.859 31.3874 110.972 31.5657Z" fill="#1E1E1E"/>
<path d="M116.717 39.4837V39.2603C116.717 39.0776 116.717 38.8238 116.625 38.5802C116.594 38.4673 116.549 38.3583 116.493 38.2554L116.402 38.0422C116.314 37.8683 116.197 37.7105 116.057 37.5752C115.736 37.2861 115.321 37.1237 114.89 37.1184C114.731 37.1106 114.572 37.1347 114.423 37.1894H114.25H114.088C113.989 37.1552 113.887 37.1313 113.783 37.1184C113.408 37.1118 113.045 37.25 112.768 37.5041C112.492 37.7499 112.255 38.0377 112.068 38.3569C111.885 38.6388 111.754 38.9518 111.683 39.2806C111.63 39.507 111.603 39.7386 111.601 39.971C111.616 40.1548 111.639 40.3377 111.672 40.5191V40.6409C111.814 41.0528 112.046 41.4275 112.352 41.7373C112.518 41.8794 112.694 42.0083 112.88 42.1231L113.073 42.2043C113.207 42.2727 113.346 42.3305 113.489 42.3768H113.722H113.915H114.128C114.317 42.3732 114.504 42.3494 114.687 42.3058H114.788C114.993 42.2379 115.19 42.1494 115.377 42.0418C115.943 41.6779 116.361 41.1234 116.554 40.4785V40.3567C116.57 40.3011 116.591 40.2468 116.615 40.1943C116.615 40.0623 116.615 39.8694 116.686 39.6969C116.757 39.5243 116.686 39.6156 116.686 39.575L116.717 39.4837Z" fill="#1E1E1E"/>
<path d="M135.696 18.2268C130.398 18.4197 125.009 18.4907 119.69 18.44C119.477 18.4256 119.264 18.4701 119.074 18.5685C118.885 18.667 118.726 18.8157 118.615 18.9983C118.5 19.2104 118.44 19.4476 118.44 19.6886C118.44 19.9296 118.5 20.1669 118.615 20.3789C118.728 20.5705 118.893 20.7269 119.09 20.8308C119.287 20.9347 119.509 20.9821 119.731 20.9677C125.029 21.0185 130.398 20.9677 135.686 20.7545C136.033 20.7602 136.368 20.6312 136.622 20.3945C136.876 20.1579 137.028 19.832 137.046 19.4856C137.042 19.3171 137.003 19.1512 136.934 18.9977C136.864 18.8443 136.764 18.7064 136.64 18.5922C136.519 18.4661 136.372 18.368 136.208 18.3049C136.045 18.2418 135.87 18.2151 135.696 18.2268Z" fill="#1E1E1E"/>
<path d="M135.564 26.9264C133.078 26.8881 130.591 27.0272 128.125 27.3426L127.455 27.4339C125.277 27.8383 123.047 27.8726 120.858 27.5355C120.746 27.5205 120.634 27.5205 120.523 27.5355C120.228 27.5209 119.936 27.6019 119.691 27.7666C119.446 27.9312 119.261 28.1706 119.163 28.4491C119.119 28.6199 119.11 28.7977 119.136 28.9721C119.162 29.1464 119.223 29.3138 119.315 29.4642C119.397 29.604 119.507 29.7256 119.638 29.8216C119.769 29.9175 119.918 29.9859 120.076 30.0225C122.596 30.4489 125.169 30.4489 127.688 30.0225C130.306 29.6753 132.944 29.5192 135.584 29.5556C135.746 29.5656 135.907 29.5418 136.059 29.4855C136.21 29.4293 136.348 29.3419 136.464 29.2291C136.58 29.1162 136.671 28.9804 136.731 28.8303C136.791 28.6802 136.818 28.5193 136.812 28.3577C136.839 28.1791 136.826 27.9969 136.776 27.8236C136.725 27.6503 136.637 27.4902 136.518 27.3541C136.4 27.218 136.253 27.1094 136.088 27.0355C135.923 26.9617 135.745 26.9244 135.564 26.9264Z" fill="#1E1E1E"/>
<path d="M134.6 37.5651C132.69 38.2216 130.662 38.4605 128.652 38.2656H127.637C125.575 38.1144 123.502 38.1518 121.446 38.3773C121.311 38.4046 121.183 38.4591 121.069 38.5377C120.956 38.6162 120.86 38.7171 120.787 38.8341C120.682 38.9886 120.61 39.1628 120.575 39.3461C120.54 39.5294 120.543 39.7179 120.584 39.9C120.868 40.9151 121.984 40.8238 122.319 40.773C123.046 40.6835 123.779 40.6395 124.511 40.641C125.425 40.641 126.328 40.7019 127.221 40.7527C127.952 40.7527 128.683 40.8441 129.403 40.8542C131.696 40.9634 133.984 40.5756 136.112 39.7173C136.236 39.6592 136.346 39.5745 136.434 39.4692C136.522 39.364 136.585 39.2407 136.62 39.1082C136.679 38.9322 136.702 38.7458 136.686 38.5606C136.671 38.3755 136.617 38.1955 136.528 38.0321C136.32 37.7314 136.009 37.5176 135.653 37.4316C135.298 37.3455 134.923 37.393 134.6 37.5651Z" fill="#1E1E1E"/>
<path d="M166.114 69.5828C166.062 69.4187 165.978 69.2667 165.867 69.1359C165.755 69.0051 165.618 68.8982 165.464 68.8215C165.314 68.7302 165.146 68.6712 164.971 68.6485C164.796 68.6258 164.619 68.6398 164.449 68.6895C164.116 68.7714 163.828 68.9812 163.647 69.2737C163.467 69.5661 163.409 69.9178 163.485 70.2528C163.545 70.4167 163.586 70.587 163.607 70.7603V70.9227C163.627 71.2608 163.627 71.5998 163.607 71.9379C163.607 72.3135 163.556 72.6891 163.516 73.0546L163.455 73.684V73.9073C163.455 74.0291 163.404 74.1509 163.384 74.2728C163.363 74.3946 163.302 74.6078 163.252 74.7702L163.201 74.9427C162.947 75.5721 162.714 75.7752 162.582 75.8462L162.409 75.9985L162.135 76.1913L161.932 76.3132C161.814 76.3752 161.692 76.4295 161.567 76.4756L161.303 76.5974L161.141 76.6685L160.785 76.7801L160.014 76.9832C159.507 77.105 158.999 77.1862 158.471 77.2776C158.311 77.3315 158.143 77.359 157.974 77.3588H157.893H157.487L156.472 77.4298C155.782 77.4298 155.061 77.9678 155.092 78.6683C155.098 78.86 155.143 79.0484 155.224 79.2226C155.304 79.3969 155.418 79.5535 155.559 79.6834C155.671 79.7917 155.805 79.8756 155.952 79.9297C156.099 79.9839 156.255 80.0071 156.411 79.9981C159.253 79.856 162.44 79.4601 164.48 77.6836C165.532 76.6603 166.153 75.2727 166.215 73.8058C166.465 72.4055 166.43 70.9694 166.114 69.5828Z" fill="#1E1E1E"/>
<path d="M88.6028 14.3285C88.3756 14.1267 88.0844 14.0116 87.7807 14.0037H87.669C87.3217 14.0143 86.9924 14.1604 86.7515 14.4109C86.5105 14.6613 86.3772 14.9961 86.38 15.3437C86.5069 17.7479 86.5069 20.1571 86.38 22.5613C86.3884 22.6976 86.4243 22.8307 86.4853 22.9528C86.5463 23.0749 86.6313 23.1835 86.7353 23.2719C87.0055 23.539 87.3703 23.6886 87.7502 23.6881C88.1056 23.6697 88.4396 23.5127 88.6806 23.2508C88.9216 22.9889 89.0503 22.643 89.0392 22.2872C89.1613 19.9201 89.1613 17.5483 89.0392 15.1812C89.0086 14.8515 88.8523 14.5461 88.6028 14.3285Z" fill="#1E1E1E"/>
<path d="M66.7674 10.5435C66.4991 10.9891 66.0719 11.3127 65.5746 11.4469C65.0773 11.5811 64.5481 11.5156 64.0971 11.2641C63.888 11.5014 63.6323 11.6917 63.3463 11.8228C63.0604 11.9539 62.7507 12.0229 62.4369 12.0253C61.2568 12.0253 60.5467 11.0104 59.4966 10.8175C58.4465 10.6247 57.4964 11.4366 56.4963 11.4468C55.8718 11.4433 55.26 11.2679 54.7261 10.9393L54.4961 10.7668C54.4484 10.851 54.3914 10.9293 54.326 11.0002C53.9294 11.3758 53.4377 11.6323 52.9059 11.7411C52.2175 11.8691 51.5068 11.7392 50.9057 11.3757C50.6404 11.2363 50.392 11.066 50.1656 10.8683C49.95 11.1046 49.7005 11.3064 49.4255 11.4671C48.8281 11.7583 48.1666 11.8877 47.5053 11.8426C46.4655 11.7438 45.4842 11.3099 44.705 10.6044C44.6062 10.711 44.4992 10.8094 44.3849 10.8987C43.8993 11.2755 43.3286 11.5231 42.7248 11.6193C42.1222 11.7206 41.5044 11.6719 40.9245 11.4772C40.7528 11.8907 40.4508 12.2348 40.0659 12.4556C39.681 12.6765 39.2348 12.7617 38.7971 12.6979C38.3594 12.6341 37.9549 12.4249 37.6468 12.1031C37.3386 11.7812 37.1443 11.3649 37.0941 10.919C37.0677 9.75139 37.3695 8.60024 37.9642 7.60026C38.2328 7.14929 38.6636 6.82197 39.1657 6.6875C39.6677 6.55303 40.2016 6.62195 40.6545 6.87969C40.8945 7.05222 41.6546 7.76265 42.0547 7.72205C42.4547 7.68145 42.9748 6.83908 43.2748 6.64625C43.8451 6.25648 44.5301 6.07733 45.215 6.13879C46.0851 6.24028 46.4552 6.92028 47.0752 7.44803C47.2448 7.63431 47.4582 7.77396 47.6953 7.85399C47.8653 7.72205 48.0053 7.40745 48.1554 7.26536C48.4923 6.9577 48.8918 6.72901 49.3255 6.59551C50.0715 6.43537 50.8494 6.55431 51.5157 6.93042C51.7286 7.0559 51.9266 7.20573 52.1058 7.37698C52.188 7.25313 52.2818 7.13758 52.3858 7.03192C52.8653 6.57899 53.4912 6.31917 54.146 6.30118C54.7369 6.28979 55.3179 6.45573 55.8162 6.77819C56.0468 6.92372 56.2613 7.09383 56.4563 7.28564C56.5119 7.34151 56.5721 7.39244 56.6363 7.43788C57.0622 7.33214 57.4774 7.18603 57.8764 7.00147C58.4524 6.82293 59.056 6.7541 59.6566 6.79848C60.3144 6.87845 60.952 7.08151 61.5368 7.3973L61.8669 7.59014C62.1576 7.33439 62.4985 7.14412 62.867 7.03192C63.4281 6.882 64.0169 6.87391 64.5818 7.00838C65.1467 7.14285 65.6705 7.41578 66.1073 7.80326C66.546 8.08407 66.86 8.52678 66.9831 9.03801C67.1063 9.54925 67.0289 10.089 66.7674 10.5435Z" fill="#FBB03B"/>
<path d="M80.389 34.6678C80.4304 37.6631 79.6774 40.6147 78.2087 43.2133C76.9417 45.5595 75.187 47.598 73.0663 49.1875C70.9456 50.777 68.5097 51.8795 65.9273 52.4185C64.9437 52.6265 63.9202 52.5092 63.007 52.0836C62.4716 51.8302 61.9957 51.4637 61.6111 51.0086C61.2265 50.5536 60.9421 50.0204 60.7768 49.4449C60.6922 49.1855 60.6418 48.9159 60.6268 48.6431C60.5537 47.6536 60.8207 46.669 61.3823 45.8567C61.9439 45.0444 62.7654 44.4546 63.7071 44.1876C64.206 44.0945 64.7 43.9759 65.1873 43.8324C65.4073 43.7715 65.6273 43.6903 65.8473 43.6091C65.9073 43.6091 66.2874 43.4163 66.3274 43.3858C66.5374 43.2843 66.7374 43.1727 66.9475 43.0509C67.3275 42.8276 67.6976 42.5942 68.0576 42.3405C68.1109 42.3044 68.1582 42.2598 68.1976 42.2085L68.3876 42.0563C68.7277 41.7518 69.0677 41.4169 69.3877 41.0414L69.8778 40.4731C70.0578 40.1381 70.3278 39.8134 70.5279 39.4581C70.526 39.4345 70.526 39.4107 70.5279 39.3871C70.7679 38.9811 70.9679 38.565 71.1879 38.1489C71.2479 37.9561 71.3279 37.7835 71.378 37.5907C71.5283 37.1462 71.6486 36.6918 71.738 36.2307C71.738 36.2307 71.738 36.0886 71.798 35.9465C71.7938 35.862 71.7938 35.7773 71.798 35.6928C71.798 35.5507 71.798 35.4188 71.798 35.3782C71.783 35.0841 71.783 34.7893 71.798 34.4952C71.7416 33.9653 71.5926 33.4497 71.3579 32.9728L71.528 33.389L71.3179 32.9424C71.1979 32.709 71.0679 32.4654 70.9279 32.2421C70.7879 32.0188 70.6179 31.7854 70.4879 31.552C69.7197 30.7299 69.2915 29.6402 69.2915 28.5072C69.2915 27.3743 69.7197 26.2846 70.4879 25.4625C70.6141 25.3425 70.7477 25.2306 70.8879 25.1276C72.4381 23.8793 75.1484 23.8793 76.4285 25.4625C76.4583 25.5156 76.4918 25.5664 76.5285 25.6147C78.7614 28.1194 80.1183 31.3014 80.389 34.6678Z" fill="#FBB03B"/>
<path d="M36.314 44.1469C35.0039 47.6687 32.2036 49.7492 28.8932 51.1803C27.2155 51.9774 25.3735 52.3533 23.5226 52.2764C21.6554 52.1036 19.8335 51.595 18.142 50.7743C16.6804 50.1497 15.3825 49.1879 14.3512 47.9652C13.32 46.7425 12.5839 45.2927 12.2013 43.7308C10.7212 37.2455 14.7616 31.5519 20.1222 28.5072C21.0719 27.5785 22.244 26.9173 23.5226 26.589C25.4482 26.2657 27.424 26.6624 29.0832 27.7054C29.7128 28.0698 30.3175 28.4767 30.8934 28.9233C32.874 30.4216 34.4834 32.3675 35.5939 34.6068C36.338 36.0668 36.7852 37.6637 36.9089 39.3026C37.0326 40.9416 36.8303 42.589 36.314 44.1469Z" fill="#FBB03B"/>
<path d="M10.1011 63.9481C8.83478 66.0985 8.14518 68.5478 8.1009 71.0525C8.18342 71.8854 8.14975 72.7259 8.00089 73.5492C7.86069 74.0708 7.60097 74.5514 7.24294 74.9518C6.8849 75.3521 6.43867 75.661 5.94066 75.8531C5.39723 76.0916 4.80701 76.2002 4.21565 76.1702C3.62429 76.1403 3.04763 75.9727 2.53028 75.6805C2.34555 75.5685 2.17145 75.4394 2.01022 75.2948C1.44486 74.7832 1.01212 74.1385 0.750085 73.4173C0.130016 71.7934 0.450047 69.997 0.690073 68.3427C0.835947 67.3152 1.0464 66.2982 1.32015 65.298C2.02308 62.7282 3.26488 60.3428 4.96055 58.3052C5.27626 57.934 5.67046 57.6399 6.11377 57.4449C6.55707 57.2498 7.03805 57.1588 7.52084 57.1787C8.55118 57.198 9.54082 57.5903 10.3111 58.285C10.601 58.5497 10.8356 58.8706 11.0012 59.2288C11.7213 60.7411 10.9112 62.4461 10.1011 63.9481Z" fill="#FBB03B"/>
<path d="M32.2036 29.4106C32.044 29.3397 31.8701 29.3082 31.6963 29.3188C31.5224 29.3294 31.3535 29.3817 31.2034 29.4715C30.98 29.6378 30.8052 29.8625 30.6978 30.1217C30.5903 30.3808 30.5542 30.6648 30.5934 30.9431C30.6172 31.2092 30.7182 31.4622 30.8838 31.67C31.0494 31.8778 31.272 32.031 31.5235 32.1103C32.4043 32.422 33.2081 32.9237 33.8796 33.5807C34.5512 34.2376 35.0746 35.0344 35.4139 35.9162C35.9108 37.2024 36.1474 38.577 36.1096 39.9579C36.0718 41.3389 35.7603 42.698 35.1939 43.9543C34.2824 45.9371 32.8538 47.6292 31.0628 48.8475C29.2718 50.0657 27.1865 50.7637 25.0328 50.8658C21.0323 51.0383 15.6817 49.3232 13.2614 45.162C10.9812 41.2445 12.9614 35.4595 15.9918 31.9682C17.5859 30.1519 19.5916 28.7565 21.8358 27.9025C24.08 27.0484 26.4953 26.7614 28.8732 27.0662H29.0632C29.3929 27.1243 29.7321 27.0598 30.0187 26.8846C30.3053 26.7093 30.52 26.4351 30.6234 26.1122C30.6665 25.8983 30.6675 25.6779 30.6263 25.4636C30.5851 25.2494 30.5025 25.0455 30.3834 24.8638C30.3163 24.7477 30.2252 24.6476 30.1165 24.5706C30.0077 24.4935 29.8838 24.4412 29.7533 24.4173C28.8984 24.2962 28.0362 24.2352 27.173 24.2346C24.2763 24.2087 21.4187 24.9129 18.8562 26.2839C16.2938 27.6549 14.1068 29.6499 12.4914 32.09C9.37102 36.8296 8.05087 44.0355 12.5514 48.6533C14.5724 50.686 17.0673 52.1669 19.8039 52.9583C22.5404 53.7497 25.4298 53.8259 28.2031 53.1798C30.7587 52.4896 33.0805 51.1052 34.9185 49.1756C36.7565 47.246 38.0412 44.8443 38.6343 42.2289C39.6244 37.4385 37.6942 31.3187 32.2036 29.4106Z" fill="#1E1E1E"/>
<path d="M12.9512 55.1486C12.8682 55.138 12.7842 55.138 12.7012 55.1486C12.4991 55.1563 12.2981 55.1835 12.1011 55.2298C10.5185 55.6026 9.07876 56.439 7.96065 57.6351C7.56265 58.0533 7.20436 58.5086 6.89053 58.9951C3.91881 63.9048 2.41774 69.5855 2.57005 75.3453C2.57005 76.6241 2.57004 77.6695 2.72006 78.6336C2.73604 78.8955 2.82421 79.1476 2.97451 79.3612C3.12481 79.5747 3.3312 79.7411 3.57016 79.8414C3.8064 79.9568 4.0672 80.0106 4.32909 79.9982C4.59097 79.9858 4.84571 79.9075 5.07033 79.7703C5.22188 79.655 5.33805 79.4984 5.40533 79.3187C5.47261 79.1391 5.48822 78.9437 5.45037 78.7554C5.37036 77.913 5.32035 77.0097 5.30035 75.9238C5.112 70.7837 6.30837 65.6888 8.76073 61.1873C9.26365 60.3249 9.87187 59.5303 10.5709 58.8226C10.6084 58.7794 10.6484 58.7387 10.691 58.7008C11.1238 58.2899 11.5925 57.9196 12.0911 57.5945C12.4385 57.3676 12.7724 57.1203 13.0912 56.8536C13.1595 56.7982 13.223 56.7371 13.2812 56.671C13.4209 56.5128 13.5175 56.3204 13.5613 56.1128C13.5892 55.9047 13.5431 55.6933 13.4313 55.5166C13.3195 55.3399 13.1493 55.2094 12.9512 55.1486Z" fill="#1E1E1E"/>
<path d="M36.9041 55.2095C36.7038 55.1626 36.4995 55.1354 36.294 55.1283C36.211 55.1177 36.127 55.1177 36.044 55.1283C35.8627 55.1754 35.7033 55.2854 35.5937 55.4393C35.4841 55.5932 35.4311 55.7813 35.4439 55.9707C35.4896 56.1627 35.5864 56.3383 35.7239 56.4782C35.779 56.5408 35.8392 56.5985 35.904 56.6507C36.224 56.9146 36.564 57.1277 36.9041 57.351C37.3986 57.6478 37.8671 57.9874 38.3042 58.3659C39.0566 59.0584 39.7096 59.8544 40.2444 60.7306C43.1079 65.7601 44.2739 71.6012 43.5648 77.365C43.5298 77.5304 43.5423 77.7024 43.6008 77.8607C43.6593 78.0191 43.7613 78.157 43.8949 78.2582C44.1323 78.3999 44.4 78.4812 44.6751 78.4954C44.9503 78.5095 45.2247 78.4559 45.475 78.3393C45.6987 78.2506 45.8933 78.0998 46.0366 77.9042C46.1798 77.7086 46.2659 77.476 46.2851 77.2331C47.0052 70.3622 45.485 63.613 42.1346 58.7211C40.898 56.9146 39.0261 55.6579 36.9041 55.2095Z" fill="#1E1E1E"/>
<path d="M68.2076 20.2155C67.7502 20.1514 67.2892 20.1175 66.8274 20.114C61.1968 20.114 55.6462 25.0769 53.0559 30.1616C51.5338 33.4083 50.7771 36.9698 50.8457 40.5645V40.9907C50.9073 42.5315 50.6834 44.0704 50.1856 45.5274C49.5055 47.1512 48.0654 47.953 46.6652 48.7243C46.1251 49.0288 45.6151 49.313 45.155 49.6378C44.9834 49.7386 44.8452 49.8889 44.7579 50.0696C44.6706 50.2503 44.6383 50.4533 44.665 50.6527C44.7332 50.9425 44.8769 51.2084 45.0809 51.4226C45.285 51.6368 45.542 51.7915 45.8251 51.8705L46.0551 51.9416L46.1751 52.1547L46.2651 52.3171L46.3152 52.4186C48.0653 54.4484 51.4757 53.8192 54.206 53.332C54.7061 53.2508 55.2061 53.1595 55.6162 53.0986C58.057 52.7399 60.4698 52.2074 62.837 51.5052C64.4022 51.045 65.9329 50.4718 67.4175 49.79C73.2282 47.07 79.3088 41.5489 78.9388 34.2009C78.7372 31.2545 77.7937 28.41 76.1985 25.9396C75.3427 24.465 74.1876 23.1921 72.8098 22.2052C71.4321 21.2183 69.8633 20.54 68.2076 20.2155ZM75.7384 37.9561C74.7042 40.7308 72.858 43.1178 70.4478 44.7966C67.5401 46.9076 64.2501 48.4149 60.7668 49.2318L59.5366 49.5363C57.8764 49.9219 56.0862 50.2467 54.076 50.5512C53.0759 50.6831 52.0158 50.8049 50.9857 50.9064L50.6156 50.9571L47.6153 51.3732L49.7755 49.9118C51.1269 49.1286 52.1826 47.9109 52.7759 46.4509C53.3954 44.5061 53.6664 42.4643 53.576 40.4224V39.4074C53.5952 36.6558 54.2515 33.9472 55.4918 31.5003C56.7322 29.0533 58.522 26.9365 60.7167 25.3205C62.4669 24.062 65.8773 22.1438 69.1177 23.2907C69.9565 23.6048 70.7349 24.0651 71.418 24.6507C72.8328 25.885 73.9775 27.4061 74.7783 29.1163C75.5093 30.4509 75.9715 31.9198 76.1381 33.4373C76.3046 34.9549 76.1721 36.491 75.7484 37.9561H75.7384Z" fill="#1E1E1E"/>
<path d="M58.7164 37.2964C58.3745 37.3262 58.0561 37.485 57.8241 37.7415C57.5921 37.998 57.4633 38.3336 57.4633 38.6818C57.4633 39.03 57.5921 39.3656 57.8241 39.6221C58.0561 39.8786 58.3745 40.0374 58.7164 40.0672C58.9026 40.0825 59.0898 40.0537 59.2633 39.9833C59.4368 39.9129 59.5919 39.8026 59.7164 39.6612C59.942 39.3736 60.059 39.0137 60.0464 38.6463C60.0534 38.4671 60.0238 38.2884 59.9595 38.1214C59.8951 37.9544 59.7974 37.8027 59.6725 37.6759C59.5476 37.5491 59.3981 37.4499 59.2336 37.3846C59.069 37.3193 58.8929 37.2893 58.7164 37.2964Z" fill="#1E1E1E"/>
<path d="M65.1471 36.7077C64.9699 36.7044 64.7939 36.7387 64.6306 36.8084C64.4672 36.8782 64.32 36.9819 64.1985 37.1129C64.077 37.2438 63.9839 37.3992 63.9251 37.5688C63.8663 37.7385 63.8431 37.9189 63.8571 38.0982C63.8398 38.4663 63.9574 38.8278 64.1871 39.1131C64.3101 39.257 64.4647 39.3696 64.6383 39.4419C64.812 39.5142 65 39.544 65.1871 39.5292C65.5505 39.5292 65.8989 39.3827 66.1558 39.122C66.4128 38.8612 66.5571 38.5075 66.5571 38.1388C66.5571 37.77 66.4128 37.4164 66.1558 37.1556C65.8989 36.8949 65.5505 36.7484 65.1871 36.7484L65.1471 36.7077Z" fill="#1E1E1E"/>
<path d="M70.1278 37.2864C70.0477 37.6008 70.0777 37.9336 70.2127 38.2279C70.3477 38.5223 70.5793 38.7599 70.8678 38.9001C71.0347 38.9607 71.2106 38.9916 71.3878 38.9915C71.7033 39.0057 72.0119 38.8951 72.2487 38.6832C72.4856 38.4712 72.6322 38.1742 72.6578 37.8548C72.724 37.5328 72.6748 37.1974 72.519 36.909C72.3631 36.6205 72.1109 36.3981 71.8078 36.2817C71.6708 36.2437 71.5297 36.2232 71.3878 36.2208C71.0837 36.203 70.7844 36.3031 70.5504 36.501C70.3164 36.6989 70.1653 36.9797 70.1278 37.2864Z" fill="#1E1E1E"/>
<path d="M7.52009 29.9892C7.89081 30.1826 8.32102 30.2227 8.72022 30.1008C9.0073 30.0116 9.24809 29.811 9.3903 29.5426C9.76091 28.7861 10.1995 28.0658 10.7004 27.391C11.3689 26.5418 12.1268 25.7693 12.9607 25.0872C13.6956 24.5267 14.4827 24.0406 15.311 23.6359C15.589 23.4438 15.7937 23.1608 15.891 22.8341C15.9715 22.491 15.9252 22.1299 15.761 21.8192C15.641 21.6124 15.47 21.4409 15.2648 21.3217C15.0596 21.2024 14.8273 21.1395 14.5909 21.1392C14.3338 21.1428 14.0808 21.2053 13.8508 21.3219C10.9237 22.7774 8.54337 25.1609 7.07005 28.1116C6.90258 28.4255 6.8559 28.7914 6.93904 29.1383C7.02219 29.4851 7.22924 29.7884 7.52009 29.9892Z" fill="#1E1E1E"/>
<path d="M76.6586 76.7156H73.0182C66.1674 76.7156 59.2466 76.7866 52.3959 76.9186C52.1692 76.91 51.9447 76.9652 51.747 77.078C51.5493 77.1909 51.3862 77.357 51.2757 77.558C51.1479 77.8017 51.0811 78.0735 51.0811 78.3496C51.0811 78.6257 51.1479 78.8975 51.2757 79.1412C51.3835 79.3295 51.5432 79.4817 51.7351 79.5791C51.927 79.6764 52.1428 79.7148 52.3559 79.6893C60.4268 79.537 68.6077 79.4761 76.6486 79.4964C76.8648 79.5105 77.0806 79.4628 77.2715 79.3587C77.4624 79.2547 77.6208 79.0985 77.7287 78.9078C77.8618 78.6658 77.9317 78.3933 77.9317 78.1162C77.9317 77.839 77.8618 77.5665 77.7287 77.3245C77.6233 77.1324 77.4675 76.9738 77.2786 76.8663C77.0896 76.7588 76.875 76.7066 76.6586 76.7156Z" fill="#1E1E1E"/>
<path d="M52.5359 69.3576C52.1676 69.3624 51.8151 69.5103 51.5509 69.7708C51.2868 70.0314 51.131 70.3847 51.1157 70.7581C51.1372 71.1693 51.3168 71.5556 51.6158 71.8339C51.7237 71.9379 51.8509 72.0192 51.9899 72.0732C52.1289 72.1272 52.2771 72.1528 52.4259 72.1486C54.6661 71.9354 56.9364 71.8339 59.1866 71.8339C61.9968 71.8349 64.8048 71.9941 67.5976 72.3109C67.7381 72.3183 67.8787 72.297 68.011 72.2482C68.1433 72.1994 68.2646 72.1241 68.3676 72.0268C68.5243 71.8876 68.6518 71.718 68.7429 71.528C68.8339 71.338 68.8865 71.1314 68.8977 70.9205C68.8822 70.5462 68.7247 70.1925 68.4582 69.9334C68.1916 69.6743 67.8367 69.5297 67.4675 69.5301C62.5086 68.9653 57.5062 68.9075 52.5359 69.3576Z" fill="#1E1E1E"/>
<path d="M52.0658 65.034C54.899 65.331 57.7589 65.2354 60.5667 64.7498C60.7169 64.7121 60.8576 64.6429 60.9799 64.5468C61.1022 64.4507 61.2033 64.3297 61.2768 64.1916C61.3823 64.0286 61.4535 63.8455 61.4862 63.6534C61.5189 63.4614 61.5123 63.2645 61.4668 63.0752C61.3596 62.7102 61.1179 62.4011 60.792 62.2121C60.4661 62.0231 60.081 61.9687 59.7166 62.0603L58.7665 62.2024L58.0164 62.2836C57.3464 62.3445 56.6863 62.3851 56.0162 62.3952C54.6538 62.4332 53.2904 62.3755 51.9358 62.2226H51.8558C51.5716 62.2368 51.3034 62.3602 51.1057 62.5677C50.9627 62.6949 50.8471 62.8507 50.7662 63.0254C50.6853 63.2 50.6408 63.3897 50.6356 63.5826C50.6382 63.9667 50.7898 64.3344 51.0574 64.606C51.325 64.8776 51.6873 65.0313 52.0658 65.034Z" fill="#1E1E1E"/>
<path d="M35.5639 19.9009C37.1882 20.6482 38.942 21.0621 40.7245 21.1188C41.7246 21.1898 42.7247 21.1797 43.7249 21.1188H45.205C45.3848 21.1058 45.5653 21.1058 45.7451 21.1188L46.1851 21.1898L46.2451 21.6364C46.4004 22.9293 46.4705 24.2313 46.4552 25.5336C46.4552 25.899 46.4552 26.2745 46.4552 26.6297V26.9139L46.2551 27.0966C46.0357 27.3132 45.9077 27.608 45.8984 27.9186C45.8891 28.2291 45.9991 28.5312 46.2051 28.761C46.3864 29.0637 46.6747 29.2847 47.0111 29.379C47.3475 29.4733 47.7067 29.4338 48.0153 29.2685C51.1057 27.7157 52.1858 24.0721 53.2159 20.5403C53.4659 19.6979 53.706 18.8758 53.976 18.1045L54.126 17.6681H54.5661C55.1461 17.6681 56.1062 17.7493 56.3863 17.7391C57.4364 17.7391 58.5165 17.6681 59.5866 17.5767C61.6248 17.4074 63.6517 17.1193 65.6573 16.7141H65.8073C68.7276 16.1254 72.368 15.3845 74.0882 12.7762C75.8084 10.1679 74.8783 7.14346 73.2981 5.17453C71.2379 2.59666 67.9275 1.86591 65.2973 1.51069C54.7861 0.120261 46.8352 -0.28569 39.5244 0.191318C36.134 0.414598 32.9337 0.80025 30.9134 3.0635C28.6232 5.64137 29.0932 9.4676 29.5833 11.5177C30.4834 15.4048 32.6736 18.4698 35.5639 19.9009ZM32.8736 5.22527C34.2538 3.55066 36.7841 3.19544 38.5643 3.03305C47.2152 2.35306 55.9962 3.28678 63.7471 4.10886C66.4474 4.39303 71.4779 4.9208 72.218 9.01089C72.3016 9.40823 72.3011 9.81902 72.2166 10.2162C72.1321 10.6133 71.9656 10.9877 71.728 11.3147C70.2978 13.3445 66.3874 13.9231 64.0471 14.2681L63.247 14.3899C60.8484 14.7743 58.4246 14.9745 55.9962 14.9887H55.1561C53.826 14.9887 52.5858 14.9075 51.9058 15.9224C51.3653 16.9136 50.9966 17.9915 50.8156 19.1092C50.6646 19.8672 50.4608 20.6134 50.2056 21.342L48.9954 24.5796L48.8554 21.5349C48.7954 20.1039 48.6854 19.1397 47.7853 18.6627C46.8494 18.3273 45.8476 18.2263 44.865 18.3684C44.5349 18.3684 44.2149 18.3684 43.9249 18.3684H43.3648C41.5385 18.4867 39.7052 18.3085 37.9342 17.8406C34.0338 16.6126 32.2636 12.5935 31.9335 9.2443C31.8135 8.54471 31.835 7.82768 31.9966 7.13677C32.1582 6.44586 32.4566 5.7955 32.8736 5.22527Z" fill="#1E1E1E"/>
<defs>
<clipPath id="clip0">
<rect width="81" height="80" fill="white" transform="translate(86 86)"/>
</clipPath>
<clipPath id="clip1">
<rect width="80" height="80" fill="white" transform="translate(0 86)"/>
</clipPath>
</defs>
</svg>
