<svg width="499" height="501" viewBox="0 0 499 501" fill="none" xmlns="http://www.w3.org/2000/svg">
<path d="M309.598 71.468C277.881 44.2623 246.426 82.6903 223.979 100.725C198.887 121.593 172.864 142.44 147.246 162.811L75.4348 220.754C52.042 239.724 21.6392 256.452 15.7296 288.309C12.8118 301.238 19.9428 319.239 33.1796 324.772C118.681 361.513 204.153 397.336 289.166 433.623C294.327 435.829 299.9 436.906 305.512 436.783C306.785 437.824 308.246 438.609 309.817 439.096C326.284 443.229 345.983 433.002 348.143 415.853C355.024 358.77 354.922 301.062 347.84 244.006C344.694 214.939 340.099 185.379 335.073 156.301C333.356 143.339 330.702 130.438 328.579 117.952C325.288 100.985 324.706 83.8653 309.598 71.468Z" fill="#01A095"/>
<path d="M263.983 160.443C246.801 147.116 231.437 167.895 220.232 177.843C207.725 189.333 194.734 200.835 181.941 212.079L146.101 244.036C134.429 254.495 119.056 263.969 116.8 280.678C115.615 287.473 119.783 296.646 126.804 299.183C172.186 316.088 217.528 332.517 262.644 349.199C265.383 350.213 268.307 350.63 271.221 350.422C271.909 350.93 272.689 351.301 273.518 351.514C282.183 353.241 292.159 347.42 292.843 338.451C294.956 308.606 293.424 278.614 288.281 249.141C285.901 234.114 282.755 218.867 279.398 203.883C278.173 197.19 276.463 190.552 275.04 184.117C272.894 175.383 272.153 166.5 263.983 160.443Z" fill="#00A99D"/>
</svg>
