<svg width="81" height="25" viewBox="0 0 81 25" fill="none" xmlns="http://www.w3.org/2000/svg">
<path d="M50.6952 8.95008C49.7913 7.16008 48.4548 5.61008 46.9163 4.40008C45.0606 2.94008 42.8298 2.63008 40.5606 2.71008C39.0606 2.76008 37.5702 3.06008 36.1952 3.67008C36.099 3.69008 36.0029 3.71008 35.9067 3.75008C35.7144 3.84008 35.5414 3.95008 35.3587 4.06008C35.1952 4.07008 35.0414 4.10008 34.9164 4.21008C34.7433 4.35008 34.6087 4.50008 34.4548 4.65008C34.3875 4.70008 34.3298 4.76008 34.2817 4.82008C34.1375 4.98008 34.0029 5.15008 33.8779 5.33008C32.7529 6.64008 32.051 8.37008 31.5221 10.0201C31.0798 11.4101 31.2144 12.8401 31.6471 14.2201C31.8971 15.0401 32.3202 15.7201 32.926 16.1701C34.6664 19.6801 38.1952 21.3101 41.8587 21.5201C42.8587 21.5801 43.926 21.6001 44.8971 21.3201C45.8971 21.0301 46.7625 20.3901 47.6087 19.7701C48.349 19.2301 49.051 18.6501 49.599 17.9001C50.2529 17.0101 50.6375 15.9401 51.0221 14.9001C51.7914 12.8301 51.6952 10.9401 50.6952 8.95008Z" fill="white"/>
<path d="M51.8106 10.9202C52.224 5.89022 49.051 1.33022 44.4644 0.550224C43.3587 0.360224 42.926 2.22022 44.0413 2.41022C47.2721 2.96022 49.8683 5.78022 50.0894 9.39022C50.3202 13.2002 48.1279 17.4502 45.1183 19.4902C44.3587 20.0002 43.4356 20.2002 42.5894 20.4502C41.6087 20.7302 40.6279 20.9702 39.6183 21.0702C37.5702 21.2602 35.801 20.6402 34.1856 19.3102C32.8779 18.2302 31.3202 16.9802 30.9933 15.1302C30.6375 13.1202 30.9933 10.9402 31.5702 9.00022C32.2433 6.72022 33.7048 5.36022 35.7048 4.46022C37.6279 3.59022 39.7144 2.92022 41.7913 3.12022C42.9067 3.22022 42.8587 1.32022 41.7529 1.22022C39.4933 1.01022 37.1567 1.76022 35.0702 2.72022C33.176 3.59022 31.4067 4.87022 30.4741 6.94022C29.4933 9.10022 29.0317 11.7702 29.1471 14.1402C29.2048 15.2202 29.3587 16.3402 29.8298 17.2902C30.3106 18.2702 31.1375 19.0102 31.8875 19.7302C33.5991 21.3802 35.5125 22.7402 37.8587 22.9802C40.0894 23.2102 42.474 22.5802 44.6087 21.8202C46.6567 21.0902 48.301 19.2002 49.551 17.3302C50.7721 15.4202 51.6183 13.2402 51.8106 10.9202Z" fill="#1E1E1E"/>
<path d="M49.1567 9.75026C48.4356 8.50026 47.1183 7.95026 45.7913 7.93026C44.5798 7.91026 42.9644 8.29026 42.4548 9.68026C42.0317 10.8103 43.5606 11.7203 43.9837 10.5803C44.4067 9.44026 46.5317 9.71026 47.2337 10.2703C48.3106 11.1303 47.7721 12.7403 46.6471 13.2603C44.099 14.4403 41.8683 11.0103 40.176 9.59026C38.2529 7.97026 35.4837 7.07026 33.3587 8.94026C31.6183 10.4703 31.3394 13.6103 33.3587 14.9703C35.6952 16.5503 38.9644 14.4803 40.4356 12.3603C42.051 13.9503 43.8106 15.6203 46.1567 15.3103C48.5029 15.0203 50.5606 12.1803 49.1567 9.75026ZM36.3971 13.3503C35.2914 13.7603 33.7625 13.7103 33.6664 12.1203C33.5894 10.7703 34.8394 9.88026 35.9452 9.80026C37.1567 9.72026 38.2048 10.3503 39.1183 11.1403C38.4067 12.1403 37.5029 12.9403 36.3971 13.3503Z" fill="#1E1E1E"/>
<path d="M51.599 17.1701C51.1856 16.9401 50.5798 17.0401 50.349 17.5101C50.099 18.0301 49.801 18.5201 49.474 18.9901C49.4548 19.0201 49.426 19.0601 49.4163 19.0701C49.3875 19.1101 49.349 19.1501 49.3202 19.2001C49.2337 19.3101 49.1471 19.4201 49.0606 19.5301C48.8779 19.7601 48.676 19.9701 48.4837 20.1901C48.099 20.6001 47.6952 20.9801 47.2817 21.3501C47.176 21.4401 47.0702 21.5301 46.9644 21.6201C46.8971 21.6701 46.8394 21.7301 46.7721 21.7801C46.7625 21.7901 46.7144 21.8301 46.676 21.8601C46.6471 21.8801 46.5606 21.9501 46.5702 21.9501C46.5125 21.9901 46.4644 22.0401 46.4067 22.0801C46.2913 22.1701 46.1663 22.2701 46.0413 22.3601C45.6567 22.6501 45.426 23.2001 45.7144 23.6701C45.9644 24.0701 46.551 24.3301 46.9644 24.0101C48.9356 22.5101 50.8202 20.7801 51.9452 18.4901C52.1375 18.0301 52.051 17.4201 51.599 17.1701Z" fill="#1E1E1E"/>
<path d="M34.7529 0.600156C34.474 0.140156 33.9644 0.0201552 33.5029 0.260156C31.9548 1.07016 30.3587 1.94016 29.2144 3.34016C28.9067 3.72016 28.8298 4.32016 29.2144 4.69016C29.5606 5.02016 30.176 5.09016 30.5029 4.69016C30.7721 4.37016 31.0606 4.07016 31.3779 3.79016C31.4164 3.76016 31.4452 3.73016 31.4837 3.70016C31.4933 3.69016 31.4933 3.69016 31.4933 3.69016C31.5702 3.63016 31.6471 3.57016 31.7337 3.51016C31.8971 3.39016 32.0702 3.27016 32.2433 3.15016C32.9452 2.69016 33.6856 2.30016 34.4164 1.91016C34.8587 1.68016 35.0125 1.01016 34.7529 0.600156Z" fill="#1E1E1E"/>
<path d="M22.6 9.18762C21.6381 7.32764 20.2967 5.70978 18.67 4.44799C16.727 3.07712 14.3861 2.45467 12.05 2.68763C10.4908 2.73738 8.95438 3.09069 7.52 3.72929C7.4159 3.74394 7.31467 3.77554 7.22002 3.82301C7.02282 3.91625 6.83232 4.02417 6.65001 4.14593C6.48576 4.14287 6.32478 4.19392 6.19002 4.29177C6.02052 4.43712 5.86017 4.59371 5.71001 4.76053C5.64333 4.80773 5.58283 4.86373 5.53001 4.92718C5.37668 5.10078 5.23667 5.27788 5.11 5.45844C3.98814 6.90001 3.15505 8.56121 2.65999 10.3439C2.24238 11.7777 2.28805 13.3146 2.78999 14.7189C2.99929 15.5477 3.46717 16.2805 4.12001 16.8022C5.93001 20.4584 9.6 22.1667 13.42 22.3854C14.4772 22.4934 15.5443 22.4231 16.58 22.1772C17.5996 21.8059 18.5527 21.2602 19.4 20.5625C20.1779 20.0263 20.8726 19.3694 21.46 18.6146C22.097 17.6538 22.5957 16.6009 22.94 15.4896C23.3557 14.4834 23.5413 13.3905 23.4823 12.2969C23.4233 11.2033 23.1213 10.1389 22.6 9.18762Z" fill="white"/>
<path d="M11.42 15.052C10.42 13.6249 9.41999 12.2291 8.32999 10.8853C8.14262 10.6914 7.88919 10.5824 7.625 10.5824C7.36081 10.5824 7.10735 10.6914 6.91998 10.8853C6.82625 10.9822 6.75188 11.0973 6.70111 11.2243C6.65034 11.3513 6.62418 11.4874 6.62418 11.6249C6.62418 11.7624 6.65034 11.8985 6.70111 12.0255C6.75188 12.1524 6.82625 12.2677 6.91998 12.3645C8.16545 13.8976 9.33369 15.497 10.42 17.1562C10.4974 17.2934 10.604 17.4103 10.7315 17.498C10.8591 17.5856 11.0043 17.6418 11.1559 17.6619C11.3075 17.682 11.4615 17.6656 11.6061 17.6141C11.7507 17.5625 11.882 17.4772 11.99 17.3645C13.207 16.1833 14.2364 14.8086 15.04 13.2916C16.04 11.7603 16.91 10.1665 17.78 8.61446C17.8996 8.3764 17.9262 8.09944 17.8543 7.84141C17.7824 7.58338 17.6176 7.36424 17.3943 7.22978C17.171 7.09533 16.9065 7.056 16.656 7.11992C16.4055 7.18384 16.1884 7.34605 16.05 7.57279C15.21 9.10056 14.33 10.6075 13.41 12.0936C12.8163 13.1286 12.1512 14.1174 11.42 15.052Z" fill="#1E1E1E"/>
<path d="M23.55 17.7604C23.3298 17.6407 23.0747 17.6106 22.8344 17.6761C22.5941 17.7416 22.3858 17.8978 22.25 18.1146C21.9874 18.6533 21.683 19.1689 21.34 19.6561L21.28 19.7396L21.18 19.875L20.9 20.2187C20.71 20.4479 20.51 20.6771 20.3 20.8958C19.9019 21.3228 19.4813 21.7262 19.04 22.1042C18.9369 22.2096 18.8266 22.307 18.71 22.3957L18.51 22.5625L18.42 22.6354L18.3 22.7292L18.13 22.8646C18.01 22.9687 17.88 23.0625 17.75 23.1562C17.5395 23.298 17.3877 23.5169 17.3247 23.7696C17.2617 24.0223 17.2922 24.2903 17.41 24.5208C17.5457 24.7375 17.7541 24.8937 17.9944 24.9593C18.2347 25.0247 18.4898 24.9946 18.71 24.8749C20.844 23.4058 22.618 21.4368 23.89 19.125C24.0078 18.8946 24.0383 18.6264 23.9753 18.3736C23.9123 18.1209 23.7605 17.9021 23.55 17.7604Z" fill="#1E1E1E"/>
<path d="M21.37 17.8957C22.7149 15.9307 23.5392 13.6313 23.76 11.2291C24.024 8.75886 23.3841 6.27581 21.9679 4.27544C20.5517 2.27509 18.4635 0.904563 16.12 0.437413C14.97 0.239497 14.52 2.16656 15.68 2.36447C17.3661 2.65855 18.9064 3.54004 20.049 4.86462C21.1917 6.18921 21.8689 7.87847 21.97 9.65614C22.0071 11.7188 21.5535 13.7591 20.6497 15.5949C19.7458 17.4306 18.4198 19.0048 16.79 20.177C15.9683 20.6593 15.0817 21.0103 14.16 21.2186C13.1499 21.5266 12.116 21.7427 11.07 21.8645C10.0586 21.9644 9.03817 21.854 8.06818 21.5392C7.09818 21.2245 6.19797 20.7119 5.41998 20.0312C4.05998 18.9062 2.41998 17.5936 2.09998 15.677C1.81302 13.5291 2.01864 11.3408 2.69998 9.29158C3.01858 8.21033 3.5723 7.22022 4.31809 6.39819C5.06387 5.57617 5.98164 4.94439 7 4.552C8.96644 3.54774 11.1416 3.06808 13.33 3.15615C14.49 3.26032 14.44 1.28118 13.33 1.17702C10.9083 1.0707 8.50018 1.60464 6.32999 2.72909C4.27505 3.53763 2.57494 5.10108 1.54999 7.12489C0.521622 9.47423 0.0484169 12.046 0.169984 14.6249C0.183243 15.7573 0.421598 16.8746 0.869997 17.9061C1.43728 18.8756 2.16128 19.7354 3.00998 20.4478C4.66204 22.2627 6.84674 23.4537 9.22 23.8332C11.6079 23.9458 13.9922 23.5379 16.22 22.6354C18.37 21.8021 20.07 19.8436 21.37 17.8957Z" fill="#1E1E1E"/>
<path d="M6.03 0.478867C5.89424 0.262196 5.68592 0.105963 5.44562 0.0404944C5.20531 -0.0249736 4.9502 0.0050462 4.72998 0.124736C3.05492 0.872983 1.539 1.95994 0.269989 3.32266C0.101338 3.51468 0.0078125 3.76551 0.0078125 4.02578C0.0078125 4.28604 0.101338 4.53686 0.269989 4.72888C0.45374 4.90163 0.69248 4.99725 0.940002 4.99725C1.18752 4.99725 1.42623 4.90163 1.60999 4.72888C1.88807 4.39406 2.19246 4.08394 2.51999 3.80179L2.62997 3.70807L2.87 3.51015L3.39999 3.14553C4.12999 2.66636 4.89998 2.26012 5.66998 1.85387C5.88649 1.71525 6.04422 1.49593 6.11108 1.24054C6.17795 0.985136 6.14896 0.712801 6.03 0.478867Z" fill="#1E1E1E"/>
<path d="M76.4242 4.8804C74.2142 2.5004 71.5042 2.2304 69.0942 3.2304C69.0142 3.2304 68.9342 3.2404 68.8642 3.2504C68.6042 3.2404 68.3342 3.2704 68.0542 3.3204C66.1842 3.5504 64.4142 4.2004 63.2542 5.6204C63.1842 5.7104 63.1242 5.8004 63.0542 5.8904C61.2442 7.5404 60.3742 9.7404 60.1842 12.6304C60.0442 14.7304 60.7342 17.1404 62.1142 19.0704C62.9042 20.6004 64.0842 22.0304 65.7842 22.7604C68.1342 23.7704 70.8042 23.3704 73.1142 22.5004C75.2042 21.7204 76.9242 20.5904 77.9642 18.7904C78.3942 18.3304 78.7642 17.8404 79.0442 17.3304C81.2642 13.2904 79.4642 8.1604 76.4242 4.8804Z" fill="white"/>
<path d="M78.9742 9.67019C78.2442 7.56018 76.9842 5.71018 75.1942 4.38018C73.7742 3.32018 72.1242 2.61018 70.4242 2.15018C69.2242 1.83018 68.0742 1.75017 66.8542 1.90017C65.9842 2.00017 65.1242 2.20017 64.2842 2.49017C61.0742 3.61017 58.3242 6.12018 57.2042 9.43018C56.6742 10.9902 56.5342 12.6502 56.7342 14.2802C57.6242 21.3002 64.4942 26.2502 71.2842 24.3702C74.8942 23.3702 78.2642 20.5302 78.7442 16.5902C78.8942 15.3402 76.9642 15.3502 76.8142 16.5902C76.3542 20.3402 72.0542 22.6702 68.7042 22.8102C65.1342 22.9602 61.7042 21.0302 59.9142 17.8802C58.3142 15.0502 58.0342 11.4102 59.6542 8.53018C61.5342 5.19018 65.1742 3.64017 68.8342 3.80017C70.0942 3.94017 71.3342 4.52018 72.4642 5.07018C73.5542 5.60018 74.5542 6.26017 75.3842 7.16017C76.1842 8.04017 76.6842 9.21017 77.0842 10.3302C77.5442 11.5902 77.7642 12.8702 77.6442 14.2102C77.5342 15.4702 79.4642 15.4602 79.5742 14.2102C79.7142 12.7102 79.4842 11.1402 78.9742 9.67019Z" fill="#1E1E1E"/>
<path d="M75.1842 8.90026C75.1842 8.89026 75.1842 8.89026 75.1842 8.88026C75.2142 8.43026 74.9842 7.89026 74.5042 7.81026C74.0342 7.73026 73.5742 7.62026 73.1242 7.48026C72.8942 7.41026 72.6742 7.33026 72.4542 7.24026C72.3942 7.22026 72.3442 7.20026 72.2842 7.17026C72.2642 7.18026 72.2542 7.18026 72.2442 7.17026C72.1342 7.12026 72.0142 7.07026 71.9042 7.01026C71.4742 6.80026 71.0642 6.56026 70.6642 6.30026C70.5642 6.23026 70.4642 6.17026 70.3742 6.10026C70.3242 6.07026 70.2742 6.03026 70.2342 5.99026C70.2242 5.98026 70.1842 5.95026 70.1642 5.93026C70.1342 5.91026 70.0942 5.87026 70.0842 5.86026C70.0342 5.82026 69.9942 5.78026 69.9442 5.75026C69.8442 5.66026 69.7442 5.57026 69.6442 5.48026C69.6342 5.47026 69.6242 5.47026 69.6242 5.47026C69.3142 5.14026 68.8442 5.02026 68.4442 5.26026C66.6642 6.32026 65.0442 7.02026 63.1042 7.59026C62.9242 7.64026 62.7742 7.76026 62.6542 7.90026C62.3342 8.03026 62.0742 8.32026 62.0742 8.77026C62.0542 10.0703 61.9742 11.4003 62.0842 12.7003C62.1942 14.0103 62.6742 15.2803 63.2642 16.4503C64.3242 18.5403 66.3242 19.9003 68.2842 21.0103C68.7142 21.2503 69.1242 21.1303 69.3942 20.8503C71.2742 19.7903 72.4542 17.8903 73.3742 15.9703C74.4142 13.7603 75.3442 11.3903 75.1842 8.90026ZM64.9242 15.4503C64.4442 14.5103 64.0342 13.4503 63.9842 12.3903C63.9342 11.3903 63.9642 10.3803 63.9842 9.37026C65.1842 9.00026 66.3442 8.53026 67.4742 7.99026C67.2142 9.52026 67.1542 11.1003 67.1242 12.6403C67.0842 14.5603 67.2142 16.4903 67.6842 18.3503C66.5642 17.5903 65.5442 16.6803 64.9242 15.4503ZM71.7042 14.9603C71.1442 16.1403 70.5042 17.3203 69.5842 18.2303C69.5842 18.1403 69.5942 18.0503 69.5642 17.9503C69.1142 16.2103 69.0042 14.4303 69.0442 12.6303C69.0742 11.0203 69.1342 9.38026 69.4742 7.80026C70.6242 8.61026 71.8942 9.23026 73.2642 9.56026C73.2242 11.4703 72.5142 13.2603 71.7042 14.9603Z" fill="#1E1E1E"/>
<path d="M79.7942 20.2003C79.3342 19.9503 78.7542 20.0803 78.4742 20.5503C78.4242 20.6303 78.3742 20.7203 78.3242 20.8003C78.2942 20.8403 78.2742 20.8803 78.2442 20.9103C78.1342 21.0403 78.0242 21.1803 77.9042 21.3103C77.7742 21.4503 77.6342 21.5803 77.4942 21.7003C77.4242 21.7603 77.3442 21.8203 77.2742 21.8803C77.5042 21.6803 77.2342 21.9103 77.1742 21.9503C76.5442 22.4103 75.8542 22.7903 75.1642 23.1603C74.7142 23.4003 74.5442 24.0703 74.8142 24.5103C75.1042 24.9703 75.6542 25.1203 76.1342 24.8603C77.6642 24.0303 79.2242 23.1003 80.1342 21.5303C80.3942 21.1003 80.2542 20.4503 79.7942 20.2003Z" fill="#1E1E1E"/>
<path d="M60.6142 1.48029C60.3142 1.01029 59.7742 0.870293 59.2942 1.12029C58.1042 1.75029 57.1042 2.72029 56.3942 3.87029C56.1242 4.31029 56.2842 4.97029 56.7442 5.22029C57.2142 5.48029 57.7742 5.34029 58.0642 4.87029C58.1542 4.72029 58.2542 4.58029 58.3642 4.43029C58.6542 4.06029 58.9842 3.72029 59.3542 3.42029C59.6342 3.20029 59.9442 3.00029 60.2642 2.82029C60.7142 2.59029 60.8842 1.91029 60.6142 1.48029Z" fill="#1E1E1E"/>
</svg>
