<svg width="100" height="100" viewBox="0 0 100 100" fill="none" xmlns="http://www.w3.org/2000/svg">
<g clip-path="url(#clip0)">
<path d="M15.6564 72.5625C20.8907 70.9688 26.297 71.1563 31.672 71.4063C34.5314 71.5313 37.3907 71.7031 40.2501 71.6406C43.297 71.5781 46.7189 71.25 48.047 67.7031C48.7657 65.7813 48.3751 63.9844 47.5157 62.2188C47.4376 62.0469 47.3595 61.8906 47.2657 61.7188C47.9532 60.9375 48.3751 59.875 48.3751 58.7969C48.3751 56.4531 46.5782 54.6563 44.4845 54.5625C37.1095 54.25 29.7501 53.8438 22.3907 53.2969C20.672 53.1719 18.8595 52.8438 17.1407 52.9219C15.8282 52.9688 14.6876 53.625 13.8751 54.7188C12.922 56.0156 12.9689 57.4844 13.172 59.0156C13.2501 59.625 13.4064 60.3906 13.4532 60.875C13.4845 61.2188 13.5001 61.5625 13.4845 61.9219C13.4845 62.1094 13.4845 62.2344 13.4845 62.3125C13.4689 62.3281 13.4532 62.375 13.4376 62.5156C13.2032 63.8281 12.7345 64.6094 11.8751 65.5C9.01573 68.4375 11.9532 73.6875 15.6564 72.5625Z" fill="#FBB03B"/>
<path d="M40.9063 17.1875C40.6876 15.3906 40.547 13.5938 40.4688 11.7813C40.4063 10.3438 40.3595 8.85938 40.8595 7.51563C41.9688 4.51563 44.7813 5 47.2188 5.125C50.3751 5.28125 53.547 5.40625 56.7032 5.5C63.0313 5.6875 69.3595 5.76563 75.6876 5.70313C77.7813 5.6875 79.8595 5.65625 81.9532 5.60938C84.5782 5.54688 86.2813 8.34375 85.7188 10.9531C85.6407 11.2813 85.5626 11.7344 85.7188 12.0781C86.297 13.4844 86.297 15.2188 85.6251 16.5156C87.922 18.8125 87.1095 24.0313 83.1407 23.9063C70.4688 23.5 57.797 23.125 45.1407 24.0469C42.922 24.2031 41.8126 22.25 41.4063 20.2188C41.2032 19.25 41.047 18.2188 40.9063 17.1875Z" fill="#FBB03B"/>
<path d="M18.5314 48.375C18.9532 48.5156 19.3751 48.5938 19.8126 48.6406C22.9532 48.9219 26.3282 48.2969 29.4845 48.1563C32.9532 48 36.4376 47.9063 39.9064 47.8281C46.9845 47.6875 54.0626 47.6875 61.1564 47.6719C64.6095 47.6719 68.1408 47.8438 71.5783 47.625C73.5783 47.5 75.5158 46.4688 76.1251 44.2344C76.5939 42.5156 76.0001 40.7969 76.0158 39.0469C76.047 35.7031 77.9376 32.1094 76.2345 28.8906C74.3283 25.3125 69.5626 26.3906 66.3751 26.4531C59.2657 26.5938 52.1564 26.7344 45.047 26.8906C38.0626 27.0313 31.0782 27.1719 24.1095 27.3125C22.2345 27.3438 19.8439 27.0156 18.1407 28.0938C16.5157 29.125 16.047 31.0625 16.0157 32.9531C15.9845 36.1719 15.5939 39.0938 14.2345 42.0156C12.5939 45.6094 15.8126 48.8594 18.5314 48.375Z" fill="#00A99D"/>
<path d="M85.7656 12.9688C85.7656 13.1406 85.75 13.3125 85.75 13.4844C85.75 13.5156 85.7344 13.5469 85.7344 13.5781C89.25 13.7969 92.75 14.0625 96.2656 14.4062C97.6875 14.5469 99.7656 14 99.4844 12.4687C99.2969 11.4062 98.0625 11.0938 97.0781 10.9844C93.625 10.6406 90.1563 10.375 86.7031 10.1562C86.9375 11.2031 86.625 12.4062 85.7656 12.9688Z" fill="#1E1E1E"/>
<path d="M98.2344 17.2969C97.2032 17.4687 96.9532 18.9375 96.9532 20.0625C96.8594 44.4219 96.7501 72.5781 96.6563 96.9219C96.6563 96.8906 61.9063 96.7188 58.7501 96.7031C46.2813 96.6406 33.8282 96.5 21.3594 96.375C15.7813 96.3125 10.2032 96.2656 4.62506 96.2031C4.26569 96.2031 3.87506 96.1875 3.59381 95.9219C3.28131 95.6094 3.25006 95.0938 3.25006 94.6406C3.37506 69.0469 3.48444 40.0781 3.59381 14.4844C17.1563 14.125 30.7344 13.4844 44.3126 13.1406C44.0001 12.1562 44.0313 11.0781 44.6563 10.1563C44.7969 9.95313 44.9376 9.78125 45.1094 9.625C30.9063 9.96875 16.6876 10.6406 2.37506 11.0625C1.87506 11.0781 1.31256 11.1719 0.953188 11.5625C0.578188 11.9688 0.562563 12.6094 0.562563 13.1875C0.515688 26.8906 0.437563 43.9844 0.390688 57.6875C0.359438 64.5781 0.328188 71.4688 0.296938 78.3594C0.281313 81.7969 0.265688 85.25 0.250063 88.6875C0.250063 90.4062 0.234438 92.125 0.234438 93.8594C0.234438 95 -0.171812 96.7344 0.109438 97.8281C0.218813 98.2031 0.390688 98.5 0.687563 98.7344C1.37506 99.2812 2.29694 99.3125 3.15631 99.3125H4.26569C35.4376 99.5312 66.6094 99.75 97.7657 99.9844C98.3282 99.9844 98.9844 99.9531 99.3594 99.5C99.6719 99.1094 99.6876 98.5469 99.6876 98.0312C99.7969 73.4063 99.9063 44.9844 100 20.3594C100 19 99.5001 17.0781 98.2344 17.2969Z" fill="#1E1E1E"/>
<path d="M42.2032 1.6875C42.1876 8.01562 42.4376 14.3438 42.9376 20.6562C43.0001 21.4688 43.4845 22.1406 44.2345 22.2812C44.4376 22.375 44.672 22.4375 44.9532 22.4062C52.5313 21.6562 60.2657 22.125 67.8595 22.125C75.6407 22.125 83.4376 22.1406 91.2188 22.1406C92.5782 22.1406 93.0001 20.5938 92.5001 19.5938C92.4845 19.5469 92.4532 19.5156 92.4376 19.4688C92.3751 19.375 92.3282 19.2969 92.2501 19.2188C92.0626 18.9844 91.8438 18.7969 91.547 18.75C89.1251 18.3438 88.1095 15.8594 87.6876 13.5C87.1407 10.4375 87.2188 7.1875 87.7657 4.14062C87.8438 3.67188 87.7813 3.21875 87.5782 2.82812C87.422 2.17188 86.9532 1.60938 86.1407 1.59375C72.1251 1.57812 58.1251 0.140625 44.1095 0C44.0001 0 43.9063 0.046875 43.8126 0.0625C43.0157 0.046875 42.2032 0.578125 42.2032 1.6875ZM45.9532 18.9531C45.5782 13.7812 45.3595 8.59375 45.3438 3.40625C58.4063 3.59375 71.4532 4.84375 84.5313 4.98438C84.1095 8.29688 84.0938 11.7188 84.797 14.9844C85.0782 16.3125 85.6095 17.6406 86.3282 18.7812C80.172 18.7812 74.0157 18.7656 67.8595 18.7656C60.5938 18.7656 53.2032 18.3438 45.9532 18.9531Z" fill="#1E1E1E"/>
<path d="M74.0313 26.7812C73.9375 26.7656 73.8438 26.7188 73.7344 26.7188C59.7032 26.8594 25.8125 28.2969 11.7813 28.3437C10.9688 28.3437 10.5 28.9062 10.3438 29.5781C10.1407 29.9531 10.0782 30.4219 10.1563 30.8906C10.7032 33.9375 10.7813 37.2031 10.2344 40.25C9.81255 42.6094 8.79692 45.0938 6.37505 45.5C6.0938 45.5469 5.85942 45.7344 5.67192 45.9688C5.5938 46.0469 5.54692 46.125 5.48442 46.2188C5.45317 46.2656 5.43755 46.2969 5.42192 46.3438C4.93755 47.3438 5.3438 48.8906 6.70317 48.8906C14.4844 48.8906 22.2813 48.875 30.0625 48.875C37.6563 48.875 65.2969 48.4062 72.875 49.1562C73.1563 49.1875 73.3907 49.125 73.5938 49.0312C74.3282 48.8906 74.8282 48.2188 74.8907 47.4063C75.3907 41.0938 75.6407 34.7656 75.625 28.4375C75.6407 27.2969 74.8282 26.75 74.0313 26.7812ZM30.0782 45.4844C23.9219 45.4844 17.7657 45.5 11.6094 45.5C12.3282 44.3438 12.8594 43.0156 13.1407 41.7031C13.8438 38.4375 13.8438 35.0156 13.4063 31.7031C26.4844 31.5625 59.4219 30.3281 72.5 30.125C72.4688 35.3125 72.25 40.5 71.8907 45.6719C64.6407 45.0625 37.3438 45.4688 30.0782 45.4844Z" fill="#1E1E1E"/>
<path d="M48.7813 53.8437C48.6875 53.8281 48.5938 53.7812 48.4844 53.7812C34.4532 53.9219 25.8282 53.6562 11.7969 53.7031C10.9844 53.7031 10.5157 54.2656 10.3594 54.9375C10.1563 55.3281 10.0938 55.7812 10.1719 56.25C10.7188 59.2969 10.7969 62.5625 10.25 65.6094C9.82817 67.9688 8.81255 70.4531 6.39067 70.8594C6.10942 70.9062 5.87505 71.0938 5.68755 71.3281C5.60942 71.4063 5.56255 71.4844 5.50005 71.5781C5.4688 71.625 5.45317 71.6562 5.43755 71.7031C4.95317 72.7031 5.35942 74.25 6.7188 74.25C14.5 74.25 22.2969 72.5469 30.0782 72.5469C37.6719 72.5469 40.0625 72.0781 47.6407 72.8281C47.9219 72.8594 48.1563 72.7969 48.3594 72.7031C49.0938 72.5625 49.5938 71.8906 49.6563 71.0781C50.1563 64.7656 50.4063 61.8281 50.3907 55.4844C50.3907 54.3594 49.5782 53.8281 48.7813 53.8437ZM30.0782 69.1719C23.9219 69.1719 17.7657 70.875 11.6094 70.875C12.3282 69.7188 12.8594 68.3906 13.1407 67.0781C13.8438 63.8125 13.8438 60.3906 13.4063 57.0781C26.4844 56.9375 34.1719 57.3906 47.25 57.2031C47.2188 62.3906 47 64.2031 46.6407 69.375C39.3907 68.75 37.3438 69.1562 30.0782 69.1719Z" fill="#1E1E1E"/>
<path d="M37.1251 63.875C37.1094 64.0781 37.1563 64.2969 37.1876 64.4844C37.2188 64.6719 37.3126 64.8594 37.3907 65.0313C37.4063 65.0625 37.4219 65.0781 37.4376 65.1094C37.5313 65.25 37.6094 65.3906 37.7188 65.5C37.7344 65.5156 37.7344 65.5156 37.7501 65.5313C37.8438 65.6094 37.9844 65.7344 38.0782 65.7969C38.0938 65.8125 38.1094 65.8281 38.1407 65.8438C38.2969 65.9219 38.4688 66.0156 38.6407 66.0469C38.7657 66.0625 39.0001 66.125 39.1719 66.1094C39.3282 66.0938 39.5469 66.0781 39.7032 66.0156C40.1094 65.8438 40.1563 65.8125 40.4844 65.5313C40.6251 65.4063 40.7188 65.25 40.8126 65.0938C40.9063 64.9375 40.9844 64.75 41.0157 64.5625C41.0469 64.3438 41.0626 64.1406 41.0626 63.9375C41.0626 63.9219 41.0782 63.9063 41.0938 63.8906C41.1563 63.6719 41.1719 63.4375 41.1251 63.2188C41.1094 63 41.0469 62.7813 40.9376 62.5938C40.7657 62.2656 40.5469 62.0781 40.2657 61.8594C40.1407 61.7656 39.8907 61.6719 39.8282 61.6406C39.7969 61.625 39.7813 61.625 39.7501 61.6094C39.3594 61.5156 39.1563 61.5313 38.7657 61.6094C38.7344 61.6094 38.7032 61.625 38.6719 61.6406C38.5782 61.6719 38.3594 61.7656 38.2344 61.8438C37.9219 62.0469 37.6407 62.3594 37.4532 62.7031C37.2188 63.0938 37.1407 63.4531 37.1251 63.875Z" fill="#1E1E1E"/>
<path d="M27.6406 63.75C27.6406 63.7813 27.6406 63.8125 27.6406 63.8281C27.6562 63.9688 27.6719 64.1563 27.7031 64.2969C27.7031 64.3125 27.7031 64.3281 27.7031 64.3438C27.7031 64.375 27.7187 64.3906 27.7187 64.4219C27.7656 64.5625 27.8281 64.7188 27.8906 64.8594C27.8906 64.875 27.9063 64.8906 27.9063 64.9063C27.9219 64.9375 27.9375 64.9531 27.9531 64.9844C28.0469 65.125 28.1562 65.3125 28.2812 65.4375C28.3906 65.5469 28.5156 65.6563 28.6562 65.75C28.6719 65.7656 28.6875 65.7656 28.7031 65.7813C28.8125 65.8438 28.9688 65.9063 29.0938 65.9531C29.125 65.9688 29.1406 65.9688 29.1719 65.9844C29.1875 65.9844 29.2031 66 29.2188 66C29.3594 66.0313 29.5156 66.0469 29.6562 66.0625C29.8437 66.0781 30.0781 66.0313 30.2344 66C30.2969 65.9844 30.3438 65.9688 30.3906 65.9531C30.5625 65.875 30.75 65.8125 30.9063 65.6875C31.0469 65.5781 31.2187 65.4531 31.3281 65.3125C31.4375 65.1563 31.5781 65 31.6562 64.8125C31.7187 64.6563 31.8281 64.4375 31.8594 64.25C31.8906 64.0469 31.9375 63.8281 31.9375 63.6094C31.9375 63.5781 31.9375 63.5469 31.9375 63.5156C31.9219 63.3438 31.9062 63.1563 31.875 62.9844C31.7969 62.7031 31.6719 62.4531 31.4687 62.2344C31.3594 62.1406 31.2656 62.0625 31.1562 61.9688C30.9062 61.8125 30.6562 61.7344 30.375 61.7344L29.9531 61.7969C29.9375 61.7969 29.9219 61.8125 29.9062 61.8281C29.7812 61.7813 29.6406 61.75 29.4531 61.75C29.2812 61.7656 29.125 61.7656 28.9688 61.8281C28.625 61.9531 28.5 62.0313 28.2344 62.2969C28.125 62.4063 28.0156 62.5781 27.9375 62.6875C27.8281 62.8438 27.7656 63.0469 27.7187 63.2344C27.6562 63.3906 27.6406 63.5781 27.6406 63.75Z" fill="#1E1E1E"/>
<path d="M18.1876 64.2969C18.1876 64.3281 18.1876 64.3438 18.1876 64.375C18.2032 64.4531 18.2032 64.5313 18.2189 64.6094C18.2345 64.6875 18.2345 64.7656 18.2501 64.8438C18.2501 64.8594 18.2501 64.875 18.2657 64.875C18.297 65.0156 18.4376 65.3125 18.4376 65.3281C18.5157 65.5 18.6564 65.6563 18.7501 65.7813C18.8595 65.9219 19.0314 66.0313 19.1564 66.1406C19.2814 66.25 19.5314 66.3281 19.6251 66.375C19.797 66.4531 20.0157 66.4531 20.172 66.4688C20.2814 66.4844 20.3907 66.4531 20.5001 66.4375C20.6095 66.4219 20.7345 66.4219 20.8439 66.375C20.922 66.3438 21.1407 66.25 21.2657 66.1875C21.3907 66.1094 21.5782 65.9375 21.6251 65.8906C21.7501 65.7656 21.8595 65.6094 21.9532 65.4531C22.0314 65.3281 22.1407 65.0156 22.1407 64.9844C22.1407 64.9688 22.1564 64.9531 22.1564 64.9219C22.2345 64.4844 22.2345 64.3438 22.1564 63.9063C22.1251 63.7344 22.047 63.5625 21.9689 63.4063C21.9064 63.2656 21.7814 63.125 21.6876 63C21.672 62.9844 21.672 62.9688 21.6564 62.9531C21.4532 62.7656 21.2814 62.6406 21.0626 62.5469C21.047 62.5313 21.047 62.5156 21.0314 62.5156C20.7189 62.3281 20.5001 62.2656 20.1407 62.25C19.9689 62.2344 19.7814 62.2656 19.6095 62.3281C19.2345 62.4688 19.1251 62.5469 18.8282 62.8281C18.6876 62.9531 18.5939 63.125 18.5001 63.2656C18.4845 63.2813 18.4689 63.3125 18.4689 63.3438C18.422 63.4531 18.3439 63.6406 18.3126 63.7656C18.3126 63.7813 18.3126 63.7813 18.297 63.7969C18.297 63.8125 18.297 63.8125 18.297 63.8281C18.2189 63.9531 18.2032 64.1719 18.1876 64.2969Z" fill="#1E1E1E"/>
<path d="M38.0626 38.7187C47.5939 38.7031 57.1251 38.7969 66.6564 39C68.6564 39.0469 68.672 42.4219 66.6564 42.375C57.1251 42.1719 47.5939 42.0625 38.0626 42.0937C36.0626 42.1094 36.0626 38.7344 38.0626 38.7187Z" fill="#1E1E1E"/>
<path d="M58.7344 33.2812C61.4063 33.4844 64.0626 33.625 66.7344 33.7187C67.5469 33.75 68.3282 34.4844 68.2969 35.4062C68.2657 36.2969 67.6094 37.125 66.7344 37.0937C64.0626 37 61.3907 36.8594 58.7344 36.6562C57.9219 36.5937 57.1407 35.9219 57.1719 34.9687C57.2188 34.1094 57.8594 33.2031 58.7344 33.2812Z" fill="#1E1E1E"/>
<path d="M62.0156 7.18749C68.0156 7.24999 74.0156 7.20312 80.0156 7.07812C82.0156 7.03124 82.0156 10.4219 80.0156 10.4531C74.0156 10.5781 68.0156 10.625 62.0156 10.5625C60.0156 10.5469 60 7.17187 62.0156 7.18749Z" fill="#1E1E1E"/>
<path d="M73.3751 13.3125C75.5625 13.4375 77.75 13.4688 79.9375 13.375C80.75 13.3438 81.5313 14.1719 81.5 15.0625C81.4688 16 80.8125 16.7188 79.9375 16.75C77.75 16.8438 75.5625 16.8281 73.3751 16.6875C72.5626 16.6406 71.7813 15.9375 71.8126 15C71.8594 14.125 72.5001 13.2656 73.3751 13.3125Z" fill="#1E1E1E"/>
<path d="M49.4375 13.25C55.7344 13.2344 62.0469 13.2344 68.3438 13.2344C70.3438 13.2344 70.3594 16.6094 68.3438 16.6094C62.0469 16.6094 55.7344 16.625 49.4375 16.625C47.4219 16.625 47.4219 13.25 49.4375 13.25Z" fill="#1E1E1E"/>
<path d="M22.4844 39.125C25.6719 39.125 28.8594 39.0781 32.0469 39C32.8594 38.9844 33.6407 39.7969 33.6094 40.6875C33.5782 41.625 32.9219 42.3594 32.0469 42.375C28.8594 42.4531 25.6719 42.5 22.4844 42.5C21.6719 42.5 20.8907 41.7188 20.9219 40.8125C20.9688 39.9063 21.6094 39.125 22.4844 39.125Z" fill="#1E1E1E"/>
<path d="M76.3907 85.0625C76.2501 83.0625 76.2032 79.7188 74.7345 78.2344C73.172 76.6563 69.6251 77.3438 67.6876 77.3281C61.7501 77.25 55.797 77.1719 49.8595 77.0781C36.422 76.8906 22.9845 76.7031 9.56261 76.5312C9.42198 76.5312 9.32823 76.5781 9.20323 76.6094C7.81261 76.6562 6.84386 77.7188 6.54698 79.3594C6.01573 82.2969 6.18761 85.5625 6.03136 88.5469C5.93761 90.5 5.82823 92.4063 7.96886 92.8125C10.6876 93.3438 13.7501 92.9688 16.5157 93.0313C28.3126 93.2813 40.1095 93.5469 51.8907 93.7969C57.672 93.9219 63.547 94.375 69.3282 94.0156C71.0782 93.9063 74.1095 94.0469 75.4532 92.5781C76.9376 90.9844 76.547 87.125 76.3907 85.0625ZM73.2501 90.0938C73.1407 90.2344 72.0782 90.3438 71.8282 90.375C69.5626 90.75 67.2657 90.7344 64.9845 90.7031C55.9845 90.5781 46.9845 90.3125 37.9845 90.125C32.8439 90.0156 27.7032 89.9063 22.5626 89.7969C20.0626 89.75 17.5626 89.6875 15.0626 89.6406C13.9532 89.6094 12.8439 89.5938 11.7345 89.5625C11.172 89.5469 9.90636 89.7031 9.07823 89.625C9.07823 87.0156 10.2345 80.1875 9.26573 79.9531C9.54698 80.0156 9.79698 80 10.0314 79.9219C27.9689 80.1719 45.9064 80.4219 63.8439 80.6563L70.4376 80.75C71.7189 80.7656 72.422 80.3438 72.8282 81.7031C73.2032 83 73.297 84.5 73.3595 85.8438C73.4064 86.875 73.3751 87.9063 73.3126 88.9375C73.3126 88.4219 73.2189 90.1094 73.2501 90.0938Z" fill="#1E1E1E"/>
<path d="M94.9376 83.9219C94.5313 81.9531 93.4376 80.1875 91.8595 79.1094C90.3438 78.0781 88.5001 77.7188 86.7345 77.7188C86.2345 77.7188 85.8751 77.9219 85.6095 78.2344C85.3282 77.9531 84.9532 77.7812 84.5313 77.75C82.7657 77.5937 80.9688 77.875 79.5938 79.1875C78.1876 80.5156 78.1563 82.4375 78.0782 84.3125C78.0001 86.2031 78.0157 88.125 78.422 89.9844C78.6251 90.9375 78.922 91.9531 79.547 92.6875C80.1251 93.3594 80.9532 93.6719 81.7501 93.8437C83.5938 94.2344 85.4845 94.3906 87.3595 94.4687C88.2032 94.5 89.0626 94.5156 89.9063 94.5312C90.8751 94.5469 91.8438 94.5469 92.7188 93.9844C94.0938 93.0937 94.5313 91.2656 94.8126 89.6875C95.1876 87.7656 95.3438 85.8281 94.9376 83.9219ZM92.0157 87.5312C91.922 88.5781 91.7501 90 91.2813 90.8437C91.1407 91.0781 91.0938 91.125 90.7188 91.125C90.0157 91.1406 89.3126 91.1094 88.6095 91.0937C87.2188 91.0625 85.8282 91 84.4532 90.8437C83.8438 90.7812 83.2188 90.6875 82.6095 90.5469C82.3907 90.5 82.172 90.4531 81.9688 90.3906C81.9532 90.3906 81.922 90.3594 81.8751 90.3281C81.8438 90.2656 81.7657 90.1562 81.7501 90.1094C81.2657 88.875 81.2032 87.4062 81.1876 86.0781C81.1876 85.25 81.2188 84.4062 81.2657 83.5781C81.297 83.0312 81.2501 82.3594 81.5001 81.9219C82.0938 80.9219 83.5626 81.0156 84.5626 81.1094C84.9845 81.1406 85.3907 80.9219 85.672 80.5938C85.922 80.8906 86.2813 81.0781 86.7501 81.0781C88.7345 81.0781 90.8595 81.6875 91.6876 83.8437C92.1251 85.0156 92.1251 86.3125 92.0157 87.5312Z" fill="#1E1E1E"/>
<path d="M88.8751 83.5625C88.6407 83.7031 88.3907 83.8281 88.1563 83.9531C88.1095 83.9844 88.047 84 88.0001 84.0313C87.9688 84.0469 87.9688 84.0469 87.9688 84.0469C87.9532 84.0469 87.9376 84.0625 87.922 84.0625C87.797 84.125 87.672 84.1719 87.547 84.2188C87.0157 84.4375 86.4689 84.6094 85.922 84.7344C85.5314 84.8281 85.2501 85.3594 85.3751 85.7813C85.5157 86.2344 85.9063 86.4844 86.3282 86.375C86.3438 86.375 86.3595 86.3594 86.3751 86.3594C85.3907 87.1094 84.2501 87.6406 83.0626 87.8906C82.6563 87.9844 82.4063 88.5156 82.5157 88.9375C82.6407 89.4062 83.0626 89.6094 83.4688 89.5313C85.0938 89.1875 86.6095 88.3906 87.8751 87.25C87.8595 87.3281 87.8438 87.4063 87.8282 87.4844C87.5938 88.5469 89.0938 88.9844 89.3282 87.9375C89.5938 86.7656 89.8595 85.5938 90.1251 84.4219C90.3282 83.5781 89.4064 83.0781 88.8751 83.5625Z" fill="#1E1E1E"/>
</g>
<defs>
<clipPath id="clip0">
<rect width="100" height="100" fill="white"/>
</clipPath>
</defs>
</svg>
