<svg width="302" height="330" viewBox="0 0 302 330" fill="none" xmlns="http://www.w3.org/2000/svg">
<path d="M136.271 328.185C100.101 331.653 59.933 324.564 43.6622 299.616C27.3914 274.667 35.0092 231.846 28.5443 193.51C22.3741 155.256 2.41482 121.552 8.46783 95.4924C14.704 69.3262 47.2544 50.8828 79.1265 36.7969C110.923 22.9991 142.238 13.4441 174.412 13.7849C206.776 14.015 240.186 24.0414 261.341 45.4153C282.786 66.8641 291.775 99.7683 297.446 132.124C302.934 164.587 305.101 196.512 294.415 224.028C283.73 251.543 260.376 274.542 232.454 292.771C204.64 311.182 172.546 324.909 136.271 328.185Z" fill="#F8F8F8"/>
<path d="M21.1428 154.446C22.7217 152.529 23.4933 150.164 24.0512 147.737C24.3955 147.127 24.158 146.417 23.6239 146.031C22.4605 145.197 21.2022 144.525 19.9201 143.928C19.2079 143.604 18.4956 143.293 17.7715 142.981C17.0949 142.695 16.3945 142.297 15.6347 142.508C14.7682 142.757 14.4595 143.579 14.1509 144.363C13.866 145.085 13.5811 145.807 13.308 146.542C12.7501 148.035 12.2397 149.542 11.7767 151.073C11.658 151.458 11.7767 152.019 12.0853 152.28C13.1893 153.214 14.5901 153.45 15.9553 153.712C17.3204 153.973 18.6856 154.222 19.9914 154.757C20.3475 154.919 20.8935 154.757 21.1428 154.446ZM16.0384 146.081C16.1571 145.782 16.2758 145.484 16.3945 145.185C16.4064 145.16 16.4182 145.135 16.4301 145.11C16.8337 145.297 17.2848 145.446 17.6647 145.608C18.1989 145.832 18.7212 146.069 19.2435 146.318C20.0626 146.716 20.8579 147.176 21.6414 147.662C21.2615 149.218 20.7867 150.786 19.9083 152.106C18.9467 151.782 17.9614 151.583 16.9643 151.396C16.3589 151.284 15.7535 151.16 15.148 151.023C14.9225 150.973 14.6495 150.923 14.3883 150.836C14.7088 149.853 15.0175 148.857 15.3736 147.886C15.5754 147.276 15.8009 146.679 16.0384 146.081Z" fill="#FBB03B"/>
<path d="M129.31 12.58C130.889 10.663 131.661 8.29792 132.219 5.87058C132.563 5.26063 132.326 4.5511 131.791 4.16521C130.628 3.3312 129.37 2.65902 128.088 2.06152C127.375 1.73787 126.663 1.42667 125.939 1.11548C125.262 0.829174 124.562 0.430841 123.802 0.642456C122.936 0.891414 122.627 1.71298 122.318 2.49719C122.034 3.21917 121.749 3.94115 121.476 4.67558C120.918 6.16933 120.407 7.67552 119.944 9.20661C119.826 9.5925 119.944 10.1527 120.253 10.4141C121.357 11.3477 122.758 11.5842 124.123 11.8456C125.488 12.107 126.853 12.3559 128.159 12.8912C128.515 13.053 129.061 12.8912 129.31 12.58ZM124.206 4.215C124.325 3.91625 124.443 3.61751 124.562 3.31876C124.574 3.29386 124.586 3.26897 124.598 3.24407C125.001 3.43079 125.452 3.58016 125.832 3.74199C126.366 3.96605 126.889 4.20256 127.411 4.45152C128.23 4.84985 129.025 5.31042 129.809 5.79589C129.429 7.35188 128.954 8.92031 128.076 10.2398C127.114 9.91615 126.129 9.71698 125.132 9.53026C124.526 9.41823 123.921 9.29375 123.316 9.15682C123.09 9.10703 122.817 9.05724 122.556 8.9701C122.876 7.98672 123.185 6.99089 123.541 6.01995C123.743 5.41 123.969 4.8125 124.206 4.215Z" fill="#FBB03B"/>
<path d="M255.784 156.92C257.362 155.003 258.134 152.638 258.692 150.211C259.036 149.601 258.799 148.891 258.265 148.506C257.101 147.672 255.843 146.999 254.561 146.402C253.849 146.078 253.136 145.767 252.412 145.456C251.736 145.17 251.035 144.771 250.276 144.983C249.409 145.232 249.1 146.053 248.792 146.838C248.507 147.56 248.222 148.282 247.949 149.016C247.391 150.51 246.88 152.016 246.418 153.547C246.299 153.933 246.418 154.493 246.726 154.754C247.83 155.688 249.231 155.925 250.596 156.186C251.961 156.447 253.326 156.696 254.632 157.232C254.988 157.393 255.534 157.232 255.784 156.92ZM250.679 148.555C250.798 148.257 250.917 147.958 251.035 147.659C251.047 147.634 251.059 147.609 251.071 147.584C251.475 147.771 251.926 147.921 252.305 148.082C252.84 148.306 253.362 148.543 253.884 148.792C254.703 149.19 255.499 149.651 256.282 150.136C255.902 151.692 255.428 153.261 254.549 154.58C253.588 154.257 252.602 154.057 251.605 153.871C251 153.759 250.394 153.634 249.789 153.497C249.563 153.447 249.29 153.398 249.029 153.31C249.35 152.327 249.658 151.331 250.014 150.36C250.216 149.75 250.442 149.153 250.679 148.555Z" fill="#FBB03B"/>
<path d="M5.80659 193.064C8.27188 193.43 10.6781 192.868 13.0212 192.089C13.7202 192.069 14.1888 191.497 14.2248 190.837C14.2979 189.403 14.1836 187.971 13.9937 186.557C13.8812 185.776 13.7582 185.002 13.6288 184.217C13.5041 183.486 13.4608 182.676 12.8725 182.132C12.195 181.515 11.3372 181.675 10.5108 181.816C9.74964 181.945 8.98846 182.074 8.22322 182.22C6.66539 182.514 5.12274 182.856 3.5848 183.251C3.19609 183.349 2.78904 183.742 2.73588 184.143C2.54694 185.578 3.10465 186.906 3.62218 188.217C4.13972 189.528 4.66772 190.833 4.92284 192.234C4.97909 192.625 5.41017 193.011 5.80659 193.064ZM10.0855 184.332C10.4009 184.279 10.7163 184.226 11.0317 184.174C11.059 184.171 11.0864 184.168 11.1138 184.166C11.1747 184.61 11.2927 185.076 11.3618 185.487C11.4619 186.063 11.5451 186.635 11.6178 187.214C11.7252 188.126 11.7674 189.049 11.7823 189.976C10.2683 190.456 8.69254 190.86 7.10816 190.788C6.861 189.792 6.49631 188.841 6.11473 187.885C5.88194 187.306 5.65962 186.72 5.44777 186.128C5.36781 185.908 5.26221 185.647 5.19444 185.377C6.19474 185.143 7.19909 184.892 8.20815 184.696C8.83021 184.553 9.45463 184.437 10.0855 184.332Z" fill="#DCDCDC"/>
<path d="M80.6919 75.9426C83.1571 76.3078 85.5633 75.7457 87.9064 74.9673C88.6054 74.9474 89.074 74.3751 89.11 73.715C89.1832 72.2809 89.0689 70.849 88.8789 69.4354C88.7664 68.6543 88.6434 67.8797 88.514 67.0949C88.3894 66.3638 88.3461 65.5543 87.7577 65.0099C87.0802 64.3929 86.2224 64.5532 85.3961 64.6941C84.6349 64.8232 83.8737 64.9523 83.1085 65.0981C81.5507 65.3923 80.008 65.7339 78.4701 66.1293C78.0814 66.2272 77.6743 66.6199 77.6212 67.0212C77.4322 68.4558 77.9899 69.7844 78.5075 71.0954C79.025 72.4063 79.553 73.7107 79.8081 75.1125C79.8644 75.5031 80.2954 75.8893 80.6919 75.9426ZM84.9707 67.21C85.2861 67.1573 85.6015 67.1045 85.917 67.0518C85.9443 67.0491 85.9717 67.0464 85.999 67.0438C86.06 67.4881 86.178 67.9539 86.2471 68.3649C86.3472 68.941 86.4304 69.5133 86.5031 70.0921C86.6105 71.0039 86.6527 71.9275 86.6676 72.8538C85.1536 73.3336 83.5778 73.7382 81.9934 73.6661C81.7463 72.6704 81.3816 71.7188 81 70.7635C80.7672 70.1841 80.5449 69.5983 80.333 69.0061C80.2531 68.7861 80.1475 68.5252 80.0797 68.2551C81.08 68.0212 82.0844 67.7705 83.0934 67.5736C83.7155 67.4311 84.3399 67.3154 84.9707 67.21Z" fill="#00A99D"/>
<path d="M278.722 58.6217C281.187 58.987 283.593 58.4248 285.937 57.6465C286.636 57.6266 287.104 57.0542 287.14 56.3942C287.213 54.9601 287.099 53.5282 286.909 52.1145C286.797 51.3335 286.674 50.5589 286.544 49.774C286.42 49.043 286.376 48.2334 285.788 47.6891C285.11 47.0721 284.253 47.2324 283.426 47.3733C282.665 47.5024 281.904 47.6315 281.139 47.7773C279.581 48.0715 278.038 48.4131 276.5 48.8085C276.112 48.9064 275.704 49.299 275.651 49.7003C275.462 51.135 276.02 52.4636 276.538 53.7745C277.055 55.0854 277.583 56.3899 277.838 57.7917C277.895 58.1822 278.326 58.5685 278.722 58.6217ZM283.001 49.8891C283.316 49.8364 283.632 49.7837 283.947 49.731C283.974 49.7283 284.002 49.7256 284.029 49.7229C284.09 50.1672 284.208 50.6331 284.277 51.0441C284.377 51.6202 284.461 52.1925 284.533 52.7713C284.641 53.6831 284.683 54.6067 284.698 55.533C283.184 56.0128 281.608 56.4173 280.024 56.3452C279.776 55.3496 279.412 54.398 279.03 53.4426C278.797 52.8633 278.575 52.2775 278.363 51.6852C278.283 51.4652 278.178 51.2043 278.11 50.9343C279.11 50.7003 280.115 50.4497 281.124 50.2528C281.746 50.1102 282.37 49.9946 283.001 49.8891Z" fill="#DCDCDC"/>
<path d="M223.806 193.889C226.271 194.255 228.677 193.692 231.02 192.914C231.72 192.894 232.188 192.322 232.224 191.662C232.297 190.228 232.183 188.796 231.993 187.382C231.88 186.601 231.758 185.826 231.628 185.042C231.503 184.311 231.46 183.501 230.872 182.957C230.194 182.34 229.337 182.5 228.51 182.641C227.749 182.77 226.988 182.899 226.223 183.045C224.665 183.339 223.122 183.681 221.584 184.076C221.195 184.174 220.788 184.567 220.735 184.968C220.546 186.403 221.104 187.731 221.621 189.042C222.139 190.353 222.667 191.657 222.922 193.059C222.978 193.45 223.409 193.836 223.806 193.889ZM228.085 185.157C228.4 185.104 228.716 185.051 229.031 184.999C229.058 184.996 229.086 184.993 229.113 184.991C229.174 185.435 229.292 185.901 229.361 186.312C229.461 186.888 229.544 187.46 229.617 188.039C229.725 188.951 229.767 189.874 229.782 190.801C228.268 191.28 226.692 191.685 225.107 191.613C224.86 190.617 224.496 189.666 224.114 188.71C223.881 188.131 223.659 187.545 223.447 186.953C223.367 186.733 223.262 186.472 223.194 186.202C224.194 185.968 225.198 185.717 226.207 185.52C226.83 185.378 227.454 185.262 228.085 185.157Z" fill="#00A99D"/>
</svg>
