<svg width="100" height="100" viewBox="0 0 100 100" fill="none" xmlns="http://www.w3.org/2000/svg">
<path d="M80.5234 48.2924C79.5547 47.4798 78.0862 47.7142 76.93 47.6986C73.8679 47.6361 70.8058 47.386 67.7749 46.9329C67.6343 46.9173 67.478 46.9173 67.3374 46.9329C67.0718 46.8547 66.8062 46.8079 66.5094 46.9016C65.7439 47.1204 65.1346 48.0424 65.4158 48.8549C67.0718 53.6522 67.3999 58.7933 66.275 63.7625C65.9782 65.0439 67.025 65.8721 68.1967 65.7158C70.7745 65.3564 73.3836 65.2314 75.9926 65.2783C77.2269 65.2939 79.1642 65.7939 79.9141 64.4813C80.2578 63.8875 80.2109 63.1062 80.2734 62.4342L80.4609 60.2934C80.7109 57.6057 80.9452 54.9336 81.1952 52.2458C81.3045 50.8707 81.6951 49.2925 80.5234 48.2924Z" fill="#FBB03B"/>
<path d="M33.4821 62.8717C32.1385 58.215 32.3728 53.3396 32.6384 48.5423C32.6697 47.9641 32.4197 47.5578 32.076 47.3078C31.7948 46.8703 31.3417 46.5421 30.8105 46.589C28.0452 46.8234 25.2955 47.0734 22.5302 47.3078C21.8897 47.3703 21.2491 47.4172 20.6086 47.4797C19.8118 47.5422 18.9369 47.5422 18.312 48.1204C17.3121 49.0736 17.5933 50.5581 17.6558 51.7926L18.0307 60.0589C18.062 60.6996 18.0932 61.3403 18.1245 61.981C18.1557 62.7154 18.1557 63.4499 18.6557 64.0437C19.5774 65.1375 21.4991 64.8094 22.7958 64.825C25.858 64.8719 28.9201 64.8875 31.9823 64.8875C32.9665 64.8875 33.7633 63.8718 33.4821 62.8717Z" fill="#FBB03B"/>
<path d="M58.9479 45.042C56.0264 41.7449 52.0893 39.5259 48.5272 40.401C47.4336 39.9947 46.1681 39.9947 44.8714 40.6666C32.7009 46.9641 34.3101 67.3409 48.0429 70.2005C54.0735 71.4506 61.0258 68.9348 63.3849 62.5123C65.7127 56.1993 63.0724 49.6831 58.9479 45.042ZM42.5748 59.5121C42.5436 59.3402 42.5279 59.1527 42.4967 58.9808C42.4342 58.6057 42.3717 58.2307 42.278 57.8557C41.9186 56.3712 41.2 55.0273 40.9812 53.4959C40.7937 52.1052 41.2937 50.9644 42.5748 50.4956C44.5121 49.7768 46.7306 50.3863 48.5897 51.0582C49.5584 51.4176 50.527 51.777 51.5113 52.1052C51.98 52.2614 52.4486 52.4177 52.933 52.5271C53.058 52.5583 53.1673 52.5739 53.2923 52.6052C53.2923 52.6052 53.2923 52.6052 53.3079 52.6052C53.4798 52.6521 53.761 52.6208 53.9016 52.6052C55.1827 52.5583 56.1357 53.7616 56.1826 55.0429C56.1982 55.2304 56.167 55.4023 56.1357 55.5898C54.6203 57.1525 52.9642 58.6057 51.2925 59.9652C50.1677 60.8716 49.0272 61.7466 47.8554 62.5905C46.9805 63.2155 45.8713 64.1844 44.7464 64.3406C43.934 64.1531 43.1997 63.5749 43.0279 62.653C42.856 61.6841 42.7467 60.684 42.6217 59.6996C42.6685 60.1527 42.606 59.6996 42.5748 59.5121Z" fill="#00A99D"/>
<path d="M36.466 15.2581C39.9812 15.305 43.512 15.4143 47.0272 15.5706C47.949 15.6175 48.8551 15.68 49.7769 15.7269C49.5582 14.383 48.777 13.2267 47.4334 13.211C36.4816 13.086 25.5453 13.2735 14.6091 13.8048C13.4218 13.8673 12.6875 14.7893 12.3594 15.9144C15.7184 15.68 19.0461 15.5081 22.327 15.3987C27.0296 15.2425 31.7478 15.1956 36.466 15.2581Z" fill="#00A99D"/>
<path d="M47.4178 19.7585C48.324 19.7741 48.9801 19.2428 49.3707 18.4928C48.6989 18.4615 48.0271 18.4146 47.3553 18.3834C40.4655 18.0552 33.5757 17.9771 26.6859 18.1333C21.9364 18.2427 17.2026 18.4615 12.4688 18.7897C12.8281 19.7272 13.5311 20.3992 14.5935 20.3523C25.5297 19.8366 36.4816 19.6335 47.4178 19.7585Z" fill="#00A99D"/>
<path d="M24.2487 26.3216C24.4518 26.3216 24.7643 26.3216 24.7643 25.509C24.7643 24.6964 24.4674 24.6964 24.2487 24.6964C23.9675 24.6964 23.905 24.7902 23.8894 24.8214C23.8113 24.9308 23.7332 25.1652 23.7332 25.509C23.7332 26.3216 24.03 26.3216 24.2487 26.3216Z" fill="#FBB03B"/>
<path d="M17.4214 24.6027C17.312 24.5558 17.2183 24.5089 17.1245 24.4464L16.7652 24.5089C16.734 24.5245 16.7027 24.5558 16.6715 24.587L16.4528 24.9621C16.4215 25.0558 16.4059 25.1496 16.4059 25.259V25.7903C16.4059 25.8372 16.4059 25.8684 16.4059 25.884C16.4528 26.0247 16.4996 26.1653 16.5465 26.306C16.5777 26.3372 16.609 26.3841 16.6402 26.431C16.734 26.4778 16.8433 26.5247 16.9371 26.5872L17.2964 26.5247C17.3277 26.5091 17.3589 26.4778 17.3901 26.4466L17.6089 26.0716C17.6401 25.9778 17.6557 25.884 17.6557 25.7747V25.2434C17.6557 25.1965 17.6557 25.1652 17.6557 25.1496C17.6089 25.009 17.562 24.8683 17.5151 24.7277C17.4839 24.6964 17.4526 24.6496 17.4214 24.6027Z" fill="#FBB03B"/>
<path d="M9.79729 26.6966C10.0004 26.6966 10.3129 26.6966 10.3129 25.884C10.3129 25.0714 10.016 25.0714 9.79729 25.0714C9.59419 25.0714 9.28174 25.0714 9.28174 25.884C9.28174 26.6966 9.57857 26.6966 9.79729 26.6966Z" fill="#FBB03B"/>
<path d="M5.34462 94.1401C5.25088 94.1401 5.14152 94.1401 5.01654 94.1401C4.70407 94.1401 4.32912 94.1557 3.95416 94.0776C3.48547 93.9838 3.09489 93.5619 2.95428 92.9837C2.78242 92.2805 2.73556 91.5461 2.68869 90.9054C2.67306 90.6554 2.65744 90.421 2.62619 90.1866C2.59495 89.8897 2.5637 89.6084 2.54807 89.3115L2.5012 88.7646C2.45433 88.2177 2.62619 87.6708 2.9699 87.327L3.04801 87.2645C3.07926 87.2488 3.09489 87.2176 3.12613 87.1863C3.34486 86.9519 3.61045 86.8113 3.90729 86.7957C15.4841 86.28 27.4983 86.9207 39.6531 88.6552C39.8562 88.6865 40.0437 88.499 40.1531 88.3896C40.4187 88.077 40.6062 87.6083 40.6062 87.2176C40.6062 86.0769 39.7469 85.8268 39.3719 85.78C29.9668 84.4361 20.6866 83.7485 11.6564 83.7485C8.29741 83.7485 4.98529 83.8423 1.70442 84.0298C1.59506 84.0298 1.50133 84.0611 1.36072 84.1236C1.26698 84.1705 1.15761 84.1861 1.06387 84.2017C0.767033 84.233 0.423319 84.4674 0.204594 84.7955C0.0952316 84.9518 -0.0141264 85.1862 0.00149677 85.4518C0.173352 87.5301 0.376452 89.6241 0.6108 91.718L0.626427 91.9211C0.845151 93.8901 1.017 95.1558 1.82941 96.0621C2.51683 96.8278 3.45422 96.9216 4.82906 96.9685C5.03216 96.9685 5.23526 96.9841 5.43836 96.9841C5.1259 96.0934 5.09465 95.0308 5.34462 94.1401Z" fill="#1E1E1E"/>
<path d="M90.2254 99.9375L91.8658 100C92.2095 99.9219 92.5376 99.8281 92.8813 99.7344C93.2875 99.6093 93.6781 99.4843 94.0687 99.3124C94.303 99.2187 94.5999 99.0468 94.803 98.8124C94.9905 98.5936 95.1467 98.3124 95.3186 98.0155C95.3342 97.9373 95.3342 97.8748 95.3498 97.7967C95.8029 95.8278 96.0685 93.7338 96.1153 91.593C96.1153 91.4524 96.1466 91.2961 96.1934 91.1711C96.0685 90.7023 95.9591 90.2491 95.8185 89.8429C95.5529 89.0459 95.1154 88.7021 94.4905 88.4677C94.1312 88.3271 93.7562 88.2177 93.3969 88.1083C80.8515 87.9521 68.1654 87.3426 55.6825 86.2644C55.1045 86.2175 54.8076 86.5926 54.7607 87.3583C54.7295 87.9364 54.917 89.0459 55.8544 89.124C67.853 90.1554 80.2265 90.7648 92.6314 90.9367C92.9751 90.9367 93.3032 91.1242 93.5375 91.4524C93.7719 91.7805 93.8812 92.2024 93.85 92.64L93.8344 93.015C93.8187 93.265 93.8031 93.5151 93.7875 93.7651C93.6937 94.5464 93.5844 95.2652 93.4438 95.984C93.3032 96.7028 92.7876 97.1873 92.1939 97.1873L90.3035 97.1247C90.5535 97.9998 90.5378 99.0624 90.2254 99.9375Z" fill="#1E1E1E"/>
<path d="M90.2255 99.9375C90.538 99.0624 90.5692 97.9998 90.3036 97.0778L5.36037 94.1401H5.34474C5.09477 95.0308 5.12602 96.0934 5.45411 96.9997C6.36025 97.031 7.26639 97.0622 8.17254 97.0935L90.2255 99.9375Z" fill="#1E1E1E"/>
<path d="M12.3439 15.9144C8.96925 16.1488 5.57901 16.43 2.2044 16.7738C1.392 16.852 1.18891 17.7114 1.12641 18.0708C1.0483 18.6334 1.15766 19.3365 1.51699 19.5553C1.9232 19.8053 2.20441 20.3054 2.23566 20.8679C3.28241 39.7759 3.39177 58.9338 2.56374 77.7948C2.5325 78.4355 2.7356 78.6855 2.89183 78.8106C3.21992 79.0918 3.76673 79.0918 4.17293 78.8418C4.54789 78.6074 4.73536 78.2011 4.76661 77.623C5.59464 58.8713 5.48527 39.8227 4.43852 21.0086C4.39165 20.1491 4.90722 19.3991 5.59465 19.3365C7.89125 19.1334 10.1722 18.9615 12.4688 18.8052C12.1251 17.9302 12.0939 16.852 12.3439 15.9144Z" fill="#1E1E1E"/>
<path d="M47.3555 18.3834C48.0273 18.4147 48.6991 18.4615 49.3709 18.4928C49.7927 17.7115 49.9177 16.6645 49.7614 15.7113C48.8397 15.6644 47.9335 15.6019 47.0118 15.555C43.4965 15.3831 39.9657 15.2738 36.4505 15.2425C31.7323 15.18 27.0297 15.2269 22.3115 15.3988C19.015 15.5081 15.6873 15.68 12.3439 15.9144C12.0783 16.852 12.1252 17.9302 12.4533 18.7897C17.1871 18.4615 21.9365 18.2428 26.6704 18.1334C33.5758 17.9927 40.4813 18.0552 47.3555 18.3834Z" fill="#1E1E1E"/>
<path d="M94.7094 24.3214C94.6625 24.2745 94.6156 24.2276 94.5688 24.1651C93.9907 23.6338 93.3345 23.2275 92.694 22.8681C91.8659 22.3993 90.991 22.0556 90.1161 21.7118C87.5383 20.6961 84.9292 19.8991 82.3045 19.1647C79.7267 18.4302 77.0708 18.2271 74.4461 17.9146C71.6964 17.602 68.9311 17.3208 66.1814 17.0707C63.4473 16.8363 60.7133 16.6332 57.9949 16.3832C55.2764 16.1332 52.5736 15.8831 49.8552 15.6331C49.9489 16.602 49.8083 17.602 49.4333 18.4459C49.5115 18.274 51.1988 18.5553 51.4175 18.5709C52.1049 18.6178 52.7923 18.6646 53.4797 18.7271C54.8077 18.8365 56.1201 18.9459 57.4324 19.0709C60.1665 19.3209 62.9005 19.6335 65.6346 19.9929C71.0871 20.7117 76.5396 21.6336 81.9608 22.7587C83.9137 23.165 85.8666 23.6182 87.8195 24.0401C88.3976 24.1651 88.9913 24.2276 89.5537 24.4151C90.2099 24.6339 90.8504 24.8839 91.5222 25.0089C91.5691 25.0246 91.6003 25.0246 91.6472 25.0402C92.2878 25.2277 92.7096 25.9934 92.6002 26.8216C91.5535 35.213 91.4285 43.6825 91.3816 51.6519C91.3504 57.7931 91.3191 63.9499 91.2879 70.0911L91.241 80.342C91.241 80.8733 91.3816 81.2327 91.6785 81.4514C92.0534 81.7327 92.5846 81.7327 92.9752 81.4514C93.2876 81.2327 93.4439 80.8576 93.4439 80.3107L93.5845 52.3395C93.6157 45.3701 93.6626 38.3695 94.2875 31.447C94.4594 29.4781 94.725 27.5248 94.9749 25.5715C95.0062 25.0246 95.0062 24.6808 94.7094 24.3214Z" fill="#1E1E1E"/>
<path d="M7.50073 25.8997C7.50073 27.4623 8.2194 29.0406 9.79734 29.0406C11.3909 29.0406 12.094 27.4623 12.094 25.8997C12.094 24.337 11.3753 22.7588 9.79734 22.7588C8.20378 22.7432 7.50073 24.3214 7.50073 25.8997ZM9.85984 27.4936C8.25065 27.4936 8.25065 24.212 9.85984 24.212C11.469 24.2277 11.469 27.4936 9.85984 27.4936Z" fill="#1E1E1E"/>
<path d="M9.85972 27.4936C11.4689 27.4936 11.4689 24.212 9.85972 24.212C8.23491 24.2277 8.23491 27.4936 9.85972 27.4936ZM9.79723 25.0715C10.016 25.0715 10.3128 25.0715 10.3128 25.8841C10.3128 26.6966 10.0003 26.6966 9.79723 26.6966C9.5785 26.6966 9.28167 26.6966 9.28167 25.8841C9.28167 25.0715 9.59413 25.0715 9.79723 25.0715Z" fill="#1E1E1E"/>
<path d="M19.1867 23.9464C19.093 23.587 18.9524 23.2901 18.7337 23.0401L18.6868 22.9776C18.4837 22.7119 18.265 22.5244 17.9994 22.3994C17.9525 22.3838 17.9056 22.3525 17.8588 22.3212C17.6401 22.1806 17.4213 22.1025 17.1714 22.0869H17.1089L16.4214 22.2119L16.2496 22.2587C15.9371 22.3994 15.6715 22.5869 15.4372 22.8682L14.9841 23.6026L14.8904 23.7901C14.7029 24.2433 14.6248 24.7277 14.6248 25.2434V25.7434C14.6092 26.2122 14.6716 26.5873 14.8123 26.931C14.8279 26.9779 14.8435 27.0248 14.8591 27.0873C14.9529 27.4467 15.0935 27.7436 15.3591 28.0561C15.5466 28.3218 15.7809 28.5093 16.0465 28.6343C16.0934 28.6499 16.1246 28.6812 16.1871 28.7124C16.4058 28.8531 16.6245 28.9312 16.8745 28.9468H16.9526L17.6401 28.8218L17.8119 28.7749C18.1244 28.6343 18.39 28.4468 18.6243 28.1655L19.093 27.4311L19.1867 27.2436C19.3742 26.7904 19.4523 26.306 19.4523 25.7903V25.2903C19.468 24.8215 19.4055 24.4464 19.2649 24.1027C19.218 24.0402 19.2024 23.9933 19.1867 23.9464ZM17.2026 27.0717C15.5934 27.0717 15.5934 23.7901 17.2026 23.7901C18.8118 23.7901 18.8118 27.0717 17.2026 27.0717Z" fill="#1E1E1E"/>
<path d="M17.2026 23.79C15.5934 23.79 15.5934 27.0716 17.2026 27.0716C18.8118 27.0716 18.8118 23.79 17.2026 23.79ZM17.6557 25.2433V25.7746C17.6557 25.884 17.6401 25.9777 17.6088 26.0715L17.3901 26.4465C17.3588 26.4778 17.3276 26.4934 17.2964 26.5247L16.937 26.5872C16.8433 26.5247 16.7339 26.4622 16.6402 26.4309C16.6089 26.384 16.5777 26.3528 16.5464 26.3059C16.5152 26.1653 16.4683 26.0246 16.4058 25.884C16.4058 25.8683 16.4058 25.8371 16.4058 25.7902V25.2589C16.4058 25.1495 16.4215 25.0558 16.4527 24.962L16.6714 24.587C16.7027 24.5557 16.7339 24.5401 16.7652 24.5089L17.1245 24.4463C17.2182 24.5089 17.3276 24.5557 17.4213 24.6026C17.4526 24.6495 17.4838 24.6807 17.5151 24.7276C17.5619 24.8683 17.5932 25.0089 17.6557 25.1495C17.6557 25.1652 17.6557 25.1964 17.6557 25.2433Z" fill="#1E1E1E"/>
<path d="M22.5458 23.3057C22.1709 23.8682 21.9521 24.6808 21.9521 25.5246C21.9521 27.0873 22.6708 28.6655 24.2488 28.6655C25.8423 28.6655 26.5454 27.0873 26.5454 25.5246C26.5454 23.962 25.8267 22.3837 24.2488 22.3837C23.5301 22.3681 22.952 22.6806 22.5458 23.3057ZM24.3894 27.0717C22.7802 27.0717 22.7802 23.7901 24.3894 23.7901C25.9986 23.7901 25.9986 27.0717 24.3894 27.0717Z" fill="#1E1E1E"/>
<path d="M24.3893 27.0716C25.9985 27.0716 25.9985 23.79 24.3893 23.79C22.7801 23.79 22.7801 27.0716 24.3893 27.0716ZM23.8737 24.837C23.9049 24.8058 23.9674 24.712 24.233 24.712C24.4518 24.712 24.7486 24.712 24.7486 25.5246C24.7486 26.3371 24.4361 26.3371 24.233 26.3371C24.0143 26.3371 23.7175 26.3371 23.7175 25.5246C23.7331 25.1808 23.8112 24.9464 23.8737 24.837Z" fill="#1E1E1E"/>
<path d="M84.4916 14.3049C84.2729 15.3206 84.7416 15.9613 85.2572 16.2269C88.3037 17.7896 91.5689 18.8522 94.9436 19.3991C95.1154 19.4303 95.3029 19.446 95.4747 19.4772L95.9122 19.5397C96.3965 19.6179 96.7558 20.1335 96.7246 20.7273L96.4434 28.4155C96.4278 28.8062 96.5684 29.2125 96.8027 29.5406C96.8965 29.6656 97.0996 29.9313 97.412 29.9313C97.4276 29.9313 97.4433 29.9313 97.4745 29.9313C98.0369 29.9313 98.6462 29.4469 98.6775 28.5405L98.7869 25.4934C98.8494 24.0245 98.8962 22.5712 98.9431 21.1024C98.99 19.6491 98.865 18.8365 98.4588 18.0865C98.0526 17.3364 97.3964 16.9145 96.2715 16.6801C95.6622 16.5551 95.0998 16.4613 94.553 16.3519C93.475 16.1644 92.4595 15.9925 91.3033 15.6331C89.4598 15.0706 87.6163 14.3205 85.804 13.3829C85.7415 13.3517 85.679 13.3361 85.5853 13.3204C85.4134 13.3048 85.2416 13.3673 85.0697 13.4767C84.7729 13.6642 84.5541 13.9767 84.4916 14.3049Z" fill="#1E1E1E"/>
<path d="M85.1166 79.4044C84.976 79.5763 84.8354 79.7169 84.6792 79.8419C85.3354 79.7794 85.476 79.6388 85.4916 79.6388C85.5072 79.5763 85.4916 79.17 85.4604 78.8106C85.3666 79.0294 85.2573 79.2325 85.1166 79.4044Z" fill="#1E1E1E"/>
<path d="M86.4445 69.3097C86.1008 68.8566 85.7883 68.7941 85.5696 68.8566C84.9447 68.9347 84.5228 69.5285 84.4603 70.4192C84.3666 71.9975 84.3197 73.5445 84.3197 75.0602C84.3197 75.7947 84.3353 76.5448 84.3666 77.2792C84.3666 77.373 84.3822 77.4823 84.3822 77.6073C84.3979 77.8261 84.3353 78.0605 84.226 78.2011C84.0854 78.373 83.9135 78.4824 83.7417 78.4668C83.5073 78.4512 83.2574 78.4043 83.0386 78.373L82.2575 78.2324C81.3357 78.0761 80.2577 77.9824 79.2422 78.3887C78.9297 78.5137 78.6329 78.8418 78.4767 79.2325C78.3517 79.5606 78.3204 79.9201 78.3985 80.2482C78.5079 80.6701 78.7579 81.0608 79.0547 81.2483C79.2891 81.4046 79.539 81.4358 79.789 81.3421C79.914 81.2952 80.0546 81.2483 80.1796 81.2014L80.3202 81.1545C80.3671 81.1389 80.4139 81.1389 80.492 81.1389C80.6951 81.1233 80.992 81.1077 81.3201 81.1389C81.5857 81.1545 81.8513 81.2014 82.1012 81.2327L83.0699 81.3889C83.5073 81.4671 83.9291 81.5296 84.351 81.5296C84.4291 81.5296 84.5072 81.5296 84.5853 81.5139C85.3665 81.4671 86.2258 81.3108 86.5695 80.5295C86.8351 79.9357 86.7882 79.2481 86.7413 78.4512C86.7257 78.2637 86.7101 78.0918 86.7101 77.9043C86.6788 77.0917 86.6476 76.2635 86.6476 75.4353C86.632 73.7633 86.6788 72.0444 86.7882 70.3098C86.7882 69.966 86.6632 69.6066 86.4445 69.3097ZM86.0539 77.9668C86.0695 78.1543 86.0695 78.3418 86.0851 78.5293C86.132 79.295 86.1633 79.7794 86.007 80.1232C85.8508 80.467 85.3977 80.6389 84.5541 80.7014C84.101 80.7326 83.6011 80.6545 83.148 80.5764L82.195 80.4201C81.9137 80.3732 81.6482 80.342 81.3669 80.3263C81.2263 80.3107 81.0857 80.3107 80.9607 80.3107C80.7733 80.3107 80.617 80.3107 80.4764 80.3263C80.3827 80.3263 80.289 80.342 80.2108 80.3576C80.1952 80.3576 80.1796 80.3732 80.164 80.3732L80.0546 80.4045C79.914 80.4513 79.7578 80.4982 79.6172 80.5607C79.5703 80.5764 79.4765 80.6076 79.3516 80.5139C79.1953 80.4201 79.0703 80.217 79.0235 79.9982C78.9453 79.6857 79.1953 79.3106 79.4453 79.2012C80.3514 78.8418 81.3357 78.9356 82.195 79.0762L82.9605 79.2169C83.2105 79.2481 83.4604 79.295 83.7104 79.3106C84.0698 79.3419 84.4291 79.1387 84.6947 78.8106C84.9447 78.4824 85.0853 77.998 85.0384 77.5292C85.0384 77.4355 85.0228 77.3417 85.0228 77.2479C84.9915 76.5135 84.9759 75.7791 84.9759 75.0602C84.9759 73.5757 85.0072 72.0444 85.1165 70.4973C85.1478 69.9817 85.3352 69.716 85.6946 69.7004C85.7727 69.6535 85.8977 69.7629 86.007 69.9192C86.1164 70.0598 86.1476 70.2004 86.1476 70.2629C86.0383 72.0287 85.9914 73.7789 86.007 75.4665C85.9914 76.2947 86.0226 77.1229 86.0539 77.9668Z" fill="#1E1E1E"/>
<path d="M86.1321 70.2474C86.1321 70.1849 86.1009 70.0443 85.9915 69.9036C85.8665 69.7473 85.7416 69.638 85.6791 69.6848C85.3354 69.7005 85.1322 69.9661 85.101 70.4818C85.0073 72.0288 84.9604 73.5602 84.9604 75.0447C84.9604 75.7791 84.976 76.5136 85.0073 77.2324C85.0073 77.3261 85.0229 77.4199 85.0229 77.5137C85.0542 77.9668 84.9292 78.4669 84.6792 78.795C84.4292 79.1232 84.0543 79.3263 83.6949 79.2951C83.445 79.2794 83.195 79.2326 82.945 79.2013L82.1795 79.0607C81.3202 78.92 80.3359 78.8263 79.4298 79.1857C79.1798 79.2951 78.9299 79.6701 79.008 79.9826C79.0548 80.2014 79.1955 80.4045 79.3361 80.4983C79.461 80.5764 79.5392 80.5608 79.6017 80.5452C79.7423 80.4827 79.8829 80.4358 80.0391 80.3889L80.1485 80.3577C80.1641 80.3577 80.1797 80.342 80.1953 80.342C80.2891 80.3108 80.3672 80.3108 80.4609 80.3108C80.5859 80.2952 80.7578 80.2952 80.9453 80.2952C81.0702 80.2952 81.2108 80.2952 81.3514 80.3108C81.6327 80.3264 81.8983 80.3733 82.1795 80.4045L83.1325 80.5608C83.6012 80.6389 84.0855 80.7171 84.5386 80.6858C85.3822 80.6389 85.8509 80.4514 85.9915 80.1076C86.1478 79.7639 86.1321 79.2794 86.0697 78.5137C86.054 78.3262 86.0384 78.1387 86.0384 77.9512C86.0072 77.1074 85.9759 76.2792 85.9759 75.4353C85.9759 73.7633 86.0228 71.9975 86.1321 70.2474ZM85.4916 70.1693C85.4916 70.1849 85.4916 70.1849 85.4916 70.1693C85.4916 70.1849 85.4916 70.1849 85.4916 70.1693ZM85.476 79.6388C85.476 79.6388 85.3197 79.7795 84.6636 79.842C84.8198 79.7326 84.976 79.5763 85.101 79.4045C85.2416 79.2326 85.351 79.0294 85.4447 78.8106C85.476 79.1544 85.5072 79.5763 85.476 79.6388Z" fill="#1E1E1E"/>
<path d="M98.5683 36.385C97.8496 36.8069 97.0997 37.0569 96.3186 37.2132C95.5999 37.3382 95.428 38.6821 95.8967 39.2603C96.1936 39.6353 96.5217 39.9478 96.8497 40.2447C96.506 40.4322 96.1467 40.6197 95.7717 40.7604C94.9593 41.0729 94.8812 42.4168 95.553 43.0106C95.9748 43.4012 96.4123 43.7763 96.8341 44.1669C96.881 44.2138 96.9122 44.2451 96.9591 44.292C96.2404 44.667 95.5999 45.2295 95.0531 45.9483C94.6 46.5578 94.7562 47.4172 95.2406 47.886L97.1153 49.6674C96.4435 50.3862 95.7561 51.105 95.0843 51.8239C94.7718 52.1676 94.7406 52.8708 94.9437 53.3084C95.3968 54.3397 95.9905 55.2304 96.7091 55.9336C96.2248 56.3243 95.8967 56.9493 95.8967 57.715C95.8967 58.6057 96.3498 59.512 96.6466 60.2777C96.8185 60.7153 97.006 61.1372 97.2091 61.5591C96.6623 61.6997 96.1311 61.8404 95.5999 62.0279C95.0374 62.2154 94.7094 63.1686 95.0374 63.8406C95.3968 64.5437 95.7405 65.2469 96.0998 65.9657C96.2092 66.1845 96.5529 66.7314 96.7873 67.1846C96.6154 67.2471 96.4592 67.3096 96.3498 67.3565C96.0061 67.5284 95.6624 67.7003 95.3187 67.8722C94.725 68.1691 94.4594 68.9191 94.7562 69.6848C95.5374 71.7319 96.4904 73.6227 97.5684 75.4197C98.3183 76.6542 99.6463 74.904 98.8964 73.6852C98.1621 72.4507 97.5059 71.1537 96.9122 69.7786C97.8496 69.3723 98.8651 68.7941 98.8651 67.5753C98.8651 66.6846 98.3183 65.9032 97.9746 65.2C97.7715 64.8094 97.584 64.4187 97.3809 64.0281C97.9277 63.8874 98.4746 63.7468 99.0214 63.653C99.5994 63.5437 99.8963 62.4498 99.5838 61.8404C99.2088 61.1372 98.8651 60.4184 98.5527 59.6839C98.4121 59.3714 98.2871 59.0433 98.1621 58.7151C98.084 58.4963 97.9902 58.2776 97.9121 58.0588C97.8965 57.9963 97.8965 57.965 97.8809 57.9182C97.9121 57.9025 97.9278 57.8869 97.959 57.8713C98.1309 57.7775 98.3183 57.6994 98.4746 57.59C98.8339 57.34 99.1464 56.9962 99.3026 56.5118C99.4901 55.9649 99.4744 55.1054 98.9589 54.8241C98.1621 54.3866 97.5215 53.7772 96.9903 52.949C97.7559 52.1364 98.5214 51.3238 99.3026 50.4956C99.8182 49.9487 99.5525 48.9799 99.1151 48.558C98.5058 47.9798 97.8965 47.4016 97.2872 46.8234C97.5215 46.6672 97.7715 46.5265 98.0371 46.4015C98.6308 46.1202 99.1307 45.6983 99.2557 44.8389C99.4276 43.7607 98.8183 42.9012 98.084 42.2136C98.4902 41.948 98.8964 41.6667 99.287 41.3386C100.021 40.7291 99.8025 39.479 99.0682 39.0884C98.9589 39.0259 98.8651 38.9634 98.7558 38.9008C99.0057 38.7758 99.2557 38.6508 99.5057 38.4946C100.615 37.8539 99.6619 35.7287 98.5683 36.385Z" fill="#FBB03B"/>
<path d="M40.45 7.99186L37.8097 2.25698C37.4503 1.47566 36.6067 1.31939 36.1067 1.9757C35.0756 3.3352 33.9976 4.63219 32.9196 5.89792C32.3259 4.49155 31.7323 3.1008 31.1229 1.69443C30.7792 0.897481 29.9043 0.756843 29.42 1.41315C28.217 3.02267 26.9203 4.42904 25.5142 5.67915C24.983 4.13214 24.4518 2.58513 23.9207 1.05374C23.6551 0.272426 22.6239 0.100535 22.2177 0.77247C21.0304 2.72577 19.6712 4.42904 18.1401 5.8823C17.4683 4.31966 16.8434 2.72577 16.3278 1.05374C16.0466 0.147414 15.1092 -0.446388 14.5155 0.428689C12.8594 2.81953 11.0784 5.00722 9.1255 6.99177C8.03188 8.11687 9.56295 10.1014 10.6566 8.99195C12.172 7.44494 13.6094 5.77291 14.9373 3.96025C15.4998 5.56977 16.1247 7.13241 16.8277 8.64817C17.1246 9.28885 17.812 9.57012 18.3119 9.14821C19.9368 7.78872 21.3897 6.19482 22.6864 4.35091C23.1551 5.72603 23.6394 7.10115 24.1081 8.47628C24.3425 9.16384 25.1393 9.35135 25.5923 8.97632C27.1547 7.74184 28.592 6.30421 29.92 4.69469C30.5137 6.06981 31.0917 7.46056 31.6854 8.83568C32.0447 9.67951 32.8728 9.69514 33.3883 9.11696C34.5132 7.86685 35.5912 6.55423 36.6379 5.21036L38.5596 9.41386C39.2939 10.9921 41.1687 9.57012 40.45 7.99186Z" fill="#1E1E1E"/>
<path d="M62.6817 55.7773C62.7286 59.0745 61.6819 61.6685 59.3696 63.9187C56.8387 66.3877 53.7921 68.1847 50.5425 69.0598C49.1989 69.4348 47.8397 69.5911 46.5117 69.5754C41.9341 69.5442 37.669 67.4034 35.3568 63.6999C32.1853 58.6526 32.9352 52.0426 37.1691 47.6516C37.3253 47.4797 37.5597 47.4485 37.7159 47.4485H37.7784C38.1065 47.4641 38.4502 47.636 38.622 47.8704C39.0595 48.4329 38.7939 49.0736 38.4033 49.4955C36.5129 51.4488 35.4661 54.1991 35.5286 57.0431C35.5911 59.8715 36.7629 62.5748 38.747 64.45C39.1845 64.8719 39.6375 65.2313 40.1375 65.5595C43.5433 67.8097 48.2615 68.0128 52.636 65.9814C54.2765 65.2157 57.323 63.528 59.2759 60.7778C60.6039 58.9026 60.9163 56.2305 60.1977 52.8396C59.1353 47.7923 55.4951 43.5263 50.6987 41.698C49.6989 41.3073 48.5896 41.026 47.4491 40.8854C43.7933 40.4166 39.7781 41.2604 37.3878 44.417C37.1378 44.7451 36.8254 44.9014 36.4504 44.8545C36.013 44.792 35.6068 44.4638 35.4505 44.0888C35.3255 43.7763 35.388 43.4638 35.6224 43.1512C38.0596 39.9009 41.8092 38.5727 45.59 38.5727C48.3084 38.5727 51.0425 39.2603 53.3078 40.4635C55.7138 41.7136 57.7448 43.5419 59.3071 45.7139C61.4006 48.5736 62.6349 52.1051 62.6817 55.7773Z" fill="#1E1E1E"/>
<path d="M55.5419 53.0115C55.4794 52.949 55.4169 52.9334 55.3544 52.8865C55.2763 52.7771 55.1825 52.6834 55.0575 52.6365C50.933 50.6363 46.4804 49.5737 41.9497 49.5893C41.2467 49.5893 40.9029 50.1363 40.8717 50.7144C40.7467 50.9801 40.6842 51.2614 40.7936 51.5426C41.9966 54.7304 43.2464 57.9963 43.6526 61.4185C43.1683 62.3874 44.1369 63.7937 45.1837 63.0593C48.7927 60.5278 52.2454 57.7463 55.5262 54.7304C56.0106 54.3085 55.9637 53.4647 55.5419 53.0115ZM52.5891 54.1679C50.3706 56.1368 48.0584 57.9807 45.6836 59.7309C45.1993 57.1056 44.3557 54.5898 43.4339 52.0896C46.5742 52.2615 49.6675 52.949 52.5891 54.1679Z" fill="#1E1E1E"/>
<path d="M32.607 61.4184C32.357 60.4965 31.529 60.184 30.6854 60.309C28.6231 60.6059 26.5296 60.7153 24.4517 60.6996C23.4362 60.6996 22.4207 60.6528 21.4052 60.5746C20.8584 60.5277 20.2959 60.4809 19.7491 60.4184C19.5304 60.3871 19.3273 60.3715 19.1086 60.3402C19.0773 60.1215 19.0461 59.8871 19.0305 59.6683C18.968 59.1057 18.9055 58.5432 18.8586 57.9806C18.7649 56.9024 18.7024 55.8086 18.6711 54.7304C18.6399 53.6521 18.6399 52.5583 18.6555 51.4644C18.6555 51.23 18.7336 49.7768 18.7961 48.9798C19.0617 48.9798 19.3117 48.9798 19.5773 48.9798C20.0928 48.9798 20.6084 48.9798 21.124 48.9955C22.202 49.0111 23.28 49.0111 24.3736 49.0267C26.6233 49.058 28.8887 49.0892 31.1384 49.1361C33.1538 49.1674 33.1538 45.9952 31.1384 45.964C28.1232 45.9014 25.1235 45.8702 22.1082 45.8389C21.3583 45.8389 20.6084 45.8233 19.8585 45.8233C19.1242 45.8233 18.3274 45.7296 17.6087 45.9014C15.8746 46.2921 15.7027 47.9954 15.6246 49.4955C15.4527 52.5114 15.5152 55.5429 15.7965 58.5588C15.859 59.262 15.9371 59.9652 16.0308 60.6684C16.1402 61.5747 16.187 62.5279 17.0151 63.0592C17.6087 63.4342 18.3899 63.4342 19.0617 63.528C19.8429 63.6374 20.624 63.7155 21.4052 63.778C24.7954 64.0437 28.17 63.8718 31.5134 63.403C32.357 63.2467 32.8101 62.1685 32.607 61.4184Z" fill="#1E1E1E"/>
<path d="M66.1501 48.2299C66.3845 49.1518 67.15 49.4643 67.9312 49.3393C69.8372 49.0424 71.7901 48.933 73.7117 48.9487C74.6648 48.9487 75.6021 48.9956 76.5395 49.0737C77.0551 49.1206 77.5707 49.1674 78.0862 49.2299C78.2893 49.2612 78.4768 49.2768 78.6799 49.3081C78.7111 49.5268 78.7268 49.7612 78.758 49.98C78.8205 50.5426 78.8674 51.1051 78.9143 51.6677C78.9924 52.7459 79.0549 53.8397 79.0861 54.918C79.1174 55.9962 79.1174 57.09 79.1017 58.1839C79.1017 58.4183 79.0236 59.8715 78.9767 60.6685C78.7424 60.6685 78.4924 60.6685 78.2581 60.6685C77.7738 60.6685 77.3051 60.6685 76.8208 60.6528C75.8209 60.6372 74.821 60.6372 73.8055 60.6216C71.712 60.5903 69.6185 60.5591 67.5249 60.5122C65.6502 60.4809 65.6502 63.6531 67.5249 63.6843C70.3215 63.7469 73.1024 63.7781 75.899 63.8094C76.602 63.8094 77.2895 63.825 77.9925 63.825C78.6799 63.825 79.4142 63.9187 80.086 63.7469C81.6952 63.3562 81.8514 61.6529 81.9295 60.1528C82.0858 57.1369 82.0389 54.1054 81.7733 51.0895C81.7108 50.3863 81.6327 49.6831 81.5546 48.9799C81.4452 48.0736 81.414 47.1204 80.6328 46.5891C80.086 46.2141 79.3517 46.2141 78.7268 46.1203C78.0081 46.0109 77.2738 45.9328 76.5395 45.8703C73.3993 45.6046 70.259 45.7765 67.15 46.2453C66.3845 46.4016 65.9626 47.4798 66.1501 48.2299Z" fill="#1E1E1E"/>
</svg>
