<svg width="100" height="100" viewBox="0 0 100 100" fill="none" xmlns="http://www.w3.org/2000/svg">
<path d="M75.9814 31.7484C73.4663 31.7484 73.4663 35.0302 75.9814 35.0302C78.4965 35.0302 78.4965 31.7484 75.9814 31.7484Z" fill="white"/>
<path d="M84.6982 25.3255C82.1831 25.3255 82.1831 28.6073 84.6982 28.6073C87.2133 28.6073 87.2133 25.3255 84.6982 25.3255Z" fill="white"/>
<path d="M64.4527 34.9521C61.9376 34.9521 61.9376 38.2339 64.4527 38.2339C66.9522 38.2183 66.9678 34.9521 64.4527 34.9521Z" fill="white"/>
<path d="M58.2508 24.5753C55.7357 24.5753 55.7357 27.8571 58.2508 27.8571C60.7659 27.8571 60.7659 24.5753 58.2508 24.5753Z" fill="white"/>
<path d="M41.7076 23.7783C39.1925 23.7783 39.1925 27.0601 41.7076 27.0601C44.2227 27.0601 44.2227 23.7783 41.7076 23.7783Z" fill="white"/>
<path d="M23.9459 22.8876C21.4308 22.8876 21.4308 26.1694 23.9459 26.1694C26.4609 26.1694 26.4609 22.8876 23.9459 22.8876Z" fill="white"/>
<path d="M98.7107 21.1685C98.6639 21.0591 98.6483 20.9497 98.6014 20.856C97.3829 17.8398 94.9928 15.3082 91.228 14.2767C87.5882 13.2922 83.7609 13.8704 80.1523 14.7143C79.6056 14.7768 79.0745 14.8393 78.5433 14.9331C76.8093 15.23 76.2469 16.2146 76.4032 17.5898C76.6219 19.3088 76.9655 21.0122 77.028 22.7313C77.1218 25.2942 76.6531 28.1228 74.388 30.0606C73.2476 31.0295 71.7792 31.5296 70.2483 31.9359C68.2487 32.4673 66.2491 32.9517 64.234 33.4518C62.3906 33.9206 60.5629 34.3738 58.7195 34.8427C58.0634 34.8739 57.3917 34.9208 56.7356 34.9364C56.5794 34.9521 56.4076 34.9833 56.2826 35.0146C55.2984 34.8427 54.0799 35.4522 54.4549 36.4836C56.267 41.3438 62.2188 44.8756 68.3112 45.4226C69.5297 45.532 70.6388 45.4382 71.6855 45.1725C71.951 45.2507 72.2166 45.3601 72.4821 45.4851C73.3257 45.8914 74.388 46.1102 75.1066 46.6259C75.7939 47.126 76.3563 47.7042 76.8406 48.3449C76.9343 48.4856 77.0436 48.6262 77.1374 48.7669C77.9028 49.9858 80.496 49.1419 79.8868 47.8136C79.8868 47.798 79.8868 47.798 79.8711 47.798C79.8555 47.7354 79.8243 47.6729 79.8087 47.6104C79.215 46.2352 78.9651 44.563 79.6524 43.1878C79.918 42.6408 80.6678 42.2033 81.199 41.7032C81.2927 41.6094 81.4021 41.5 81.4958 41.4063C81.7614 41.3906 82.0425 41.3594 82.3237 41.3125C84.1515 40.9843 85.9323 40.2029 87.6038 39.531C89.166 38.9058 90.6656 38.1714 92.0716 37.3275C95.274 35.8897 97.6954 33.53 98.9295 30.717C99.1326 30.2794 99.2731 29.8106 99.3981 29.3418C99.6324 28.701 99.8043 28.0134 99.9136 27.3102C100.195 25.2473 99.7886 23.0751 98.7107 21.1685ZM67.6551 37.3118C67.6395 37.6088 67.5457 37.9057 67.3895 38.1557C67.3739 38.187 67.3583 38.2026 67.3427 38.2339C67.327 38.2651 67.0927 38.6089 66.9521 38.7339C66.9209 38.7652 66.6397 38.9996 66.4678 39.109C66.4678 39.109 66.4678 39.109 66.4522 39.109C66.2648 39.1871 66.0929 39.2653 65.9055 39.3434H65.8898C65.6868 39.4059 65.4524 39.4372 65.2493 39.4216C64.9994 39.4216 64.8276 39.3903 64.6245 39.3278C64.5308 39.2965 64.437 39.2497 64.3589 39.2184C64.7339 39.3747 64.1558 39.1403 64.0777 39.0934C63.8903 38.984 63.7341 38.859 63.5779 38.7183C63.406 38.562 63.281 38.3745 63.1561 38.1714C63.1404 38.1557 63.1248 38.1245 63.1248 38.1088C63.0311 37.9057 62.953 37.7182 62.8749 37.4994C62.8593 37.4525 62.8436 37.4056 62.828 37.3431C62.7655 37.093 62.7499 36.843 62.7187 36.5773C62.7187 36.5148 62.7187 36.4679 62.7187 36.4054C62.7343 36.171 62.7655 35.9522 62.8124 35.7334C62.8124 35.7178 62.828 35.6866 62.828 35.6709C62.828 35.6553 62.8436 35.6397 62.8436 35.6397C62.8749 35.5459 62.953 35.4053 62.9686 35.3584C62.9842 35.3428 63.0467 35.1709 63.0936 35.0771C63.1092 35.0615 63.1092 35.0458 63.1248 35.0302C63.3279 34.6864 63.5935 34.4207 63.9371 34.2176C64.1246 34.1394 64.2964 34.0613 64.4839 33.9832C64.8901 33.8738 65.2962 33.8738 65.7024 33.9832C65.8898 34.0613 66.0617 34.1394 66.2491 34.2176C66.5147 34.3582 66.7334 34.5614 66.8896 34.8114C67.0927 35.0302 67.2333 35.2959 67.2958 35.5928C67.3114 35.6397 67.3114 35.6866 67.327 35.7491C67.4832 35.9522 67.5926 36.1554 67.6551 36.4211C67.702 36.718 67.7176 37.0149 67.6551 37.3118ZM75.872 35.8897C72.9352 35.8897 72.9352 31.3265 75.872 31.3265C78.8245 31.3108 78.8089 35.8897 75.872 35.8897ZM87.3539 27.7477C87.2602 28.029 87.1039 28.2791 86.8852 28.4822C86.7446 28.6385 86.5572 28.7635 86.3697 28.8417C86.1823 28.9511 85.9948 29.0448 85.7761 29.1073C85.573 29.1386 85.3699 29.1542 85.1668 29.1855C84.7607 29.1855 84.3702 29.0761 84.0109 28.8729L83.5422 28.5135C83.3235 28.3103 83.1673 28.0603 83.0736 27.779C82.933 27.5133 82.8705 27.2164 82.8705 26.9038C82.8549 26.5913 82.9173 26.2944 83.0736 26.0287C83.1673 25.7474 83.3235 25.4974 83.5422 25.2942C83.6984 25.1379 83.8703 25.0129 84.0421 24.9035C84.4326 24.6847 84.8076 24.591 85.2606 24.5753C85.6668 24.5753 86.0573 24.6847 86.4166 24.8879C86.5728 25.0129 86.729 25.1223 86.8852 25.2473C87.1664 25.5286 87.3695 25.8724 87.4789 26.2631C87.5101 26.4663 87.5257 26.6694 87.5569 26.8726C87.5726 27.1851 87.4945 27.4821 87.3539 27.7477Z" fill="#00A99D"/>
<path d="M77.6841 19.5589C77.3717 17.1366 76.3875 14.8081 74.4973 12.8859C72.7008 11.0575 70.2795 9.66661 67.7175 8.58831C56.1732 3.72812 42.0982 3.16553 29.3041 3.75938C22.9305 4.0563 16.1039 4.99396 10.8082 8.04134C6.32478 10.6199 3.7316 14.5424 3.21609 18.9182C2.04447 28.8417 12.6984 36.5305 24.4927 36.9993C24.5083 37.0149 24.5083 37.0462 24.5083 37.0618C25.8049 39.1715 27.2577 41.2031 28.898 43.1566C29.2104 43.5316 29.6634 43.766 30.2258 43.766C30.7413 43.766 31.3349 43.5473 31.5536 43.1566L35.0372 37.3118C41.2234 38.1088 47.4876 38.187 53.705 37.4681C57.1105 37.0774 60.4535 36.4523 63.7184 35.6084C66.6084 34.8427 69.514 33.9207 71.8885 32.3735C76.4187 29.3886 78.2621 24.0909 77.6841 19.5589ZM25.6955 25.513C25.1488 26.31 23.7585 26.4663 22.8212 26.0756C22.2744 25.8412 21.9464 25.4192 21.7901 24.9504C21.6183 24.4503 21.6183 23.8877 21.9307 23.4189C22.2432 22.9501 22.8524 22.7469 23.4929 22.7625C23.6179 22.7625 23.7584 22.7782 23.899 22.7938C24.2271 22.7782 24.5708 22.8407 24.8363 22.9813C25.3362 23.247 25.6643 23.6846 25.8205 24.1534C25.9611 24.6222 25.9767 25.1067 25.6955 25.513ZM44.0509 26.5601C43.879 26.8882 43.5666 27.2789 43.0823 27.3571C43.0355 27.3571 42.9886 27.3571 42.9261 27.3571C42.9105 27.3727 42.8949 27.3883 42.8636 27.4039C42.4418 27.6696 41.9107 27.7946 41.3796 27.6384C40.8172 27.4821 40.3954 27.1383 40.0986 26.732C39.833 26.3725 39.63 25.9349 39.5675 25.513C39.5362 25.263 39.5987 25.0129 39.7549 24.8098C39.9112 24.3722 40.3798 24.1065 40.9422 24.0753C41.1452 24.0128 41.3483 23.9502 41.5358 23.919C42.2388 23.8252 42.8949 23.9659 43.4416 24.3097C43.8634 24.5753 44.1758 24.9817 44.254 25.4036C44.3321 25.8099 44.2383 26.2006 44.0509 26.5601ZM59.7349 26.8726C59.5631 27.0914 59.3444 27.2789 59.0632 27.4196C58.782 27.5602 58.4539 27.6227 58.1259 27.654C57.6416 27.7009 57.1574 27.5915 56.7981 27.3258C56.1732 26.857 56.142 26.0287 56.4388 25.4349C56.6106 25.0911 56.8449 24.7941 57.2355 24.591C57.4229 24.4816 57.6416 24.4347 57.8759 24.4034C58.1884 24.294 58.5164 24.2628 58.8445 24.3566C60.1723 24.6691 60.4066 26.0287 59.7349 26.8726Z" fill="white"/>
<path d="M80.6366 19.512C81.0272 15.4801 79.6681 11.5263 75.3409 8.60391C68.4362 3.93126 57.5167 2.7123 48.8311 2.18096C40.1455 1.64963 29.3354 1.19643 21.3684 4.44697C17.2443 6.13475 14.573 8.74456 13.3858 11.7763C12.2766 12.8077 11.9642 14.0892 12.2141 15.2769C10.3395 20.0746 13.2296 27.0132 17.4005 30.5138C20.9154 33.4674 25.7737 34.452 29.5853 40.9843C34.3499 32.686 41.0672 38.562 47.2689 38.3745C51.5649 38.2495 56.2982 37.7806 60.6098 36.6086C65.5462 36.1241 69.7327 33.358 72.8414 31.3264C77.6841 28.1697 80.0274 22.7781 80.6366 19.512ZM24.8676 26.2631C24.2896 26.4975 23.6179 26.4975 23.0555 26.2318C22.4619 25.9505 22.0245 25.4348 21.8995 24.8879C21.7902 24.4034 21.8683 23.8877 22.2432 23.4814C22.2588 23.4658 22.2744 23.4658 22.29 23.4501C22.5087 23.0438 22.8993 22.7313 23.4304 22.5906C24.4615 22.3249 25.6956 22.8563 26.1173 23.622C26.6172 24.5441 26.008 25.8255 24.8676 26.2631ZM44.3789 25.8099C44.2071 26.1693 43.9259 26.5131 43.551 26.7632C43.1292 27.0445 42.6762 27.1851 42.1451 27.2476C41.6296 27.2945 41.114 27.2945 40.6298 27.1226C40.1924 26.9663 39.8331 26.6225 39.63 26.2787C39.4113 25.9193 39.3332 25.5442 39.4113 25.1692C39.4582 24.966 39.5675 24.7785 39.7081 24.6222C39.9737 24.0752 40.6298 23.7158 41.3327 23.5752C42.0826 23.4189 42.9574 23.4658 43.5979 23.8408C44.3946 24.2784 44.7226 25.091 44.3789 25.8099ZM59.4069 26.8413C59.032 27.2476 58.5477 27.6227 57.876 27.654C57.3448 27.6696 56.9074 27.4039 56.6106 27.0914C56.3294 26.7788 56.2045 26.3725 56.1732 25.9974C56.142 25.6067 56.2514 25.1848 56.5482 24.8722C56.845 24.5597 57.2511 24.3722 57.7041 24.294C58.0478 24.1065 58.4384 24.0127 58.8758 24.0909C59.61 24.2159 59.8912 24.8722 59.9224 25.388C59.9537 25.888 59.7818 26.4194 59.4069 26.8413Z" fill="#FBB03B"/>
<path d="M75.3253 34.4207C75.3409 34.4363 75.3565 34.4363 75.3565 34.452C75.3409 34.4363 75.3253 34.4363 75.3253 34.4207Z" fill="#1E1E1E"/>
<path d="M79.6681 33.1705C79.5743 31.9516 78.8245 30.8576 77.5435 30.1857C76.7624 29.7793 75.7158 29.5762 74.8097 29.795C74.7785 29.8106 74.7473 29.8262 74.716 29.8262C77.1686 26.857 78.1215 22.9813 77.6841 19.5433C77.3717 17.121 76.3875 14.8081 74.4973 12.8703C72.7008 11.0418 70.2795 9.65099 67.7019 8.57268C56.1576 3.7125 42.0669 3.1499 29.2885 3.74375C22.9149 4.04068 16.0883 4.97833 10.8082 8.02571C6.32478 10.6199 3.7316 14.5424 3.21609 18.9025C2.04447 28.8104 12.6984 36.5148 24.4927 36.968C24.5083 36.9837 24.5083 37.0149 24.5239 37.0306C25.8049 39.1403 27.2733 41.1719 28.9136 43.1253C29.226 43.4848 29.679 43.7348 30.2414 43.7348C30.7413 43.7348 31.3505 43.5004 31.5692 43.1253L35.0528 37.2806C41.239 38.0776 47.5032 38.1557 53.7206 37.4369C56.0014 37.1712 58.2509 36.7961 60.4848 36.3273C60.2348 36.8743 60.1723 37.4681 60.3754 38.0307C60.6254 38.7183 61.3127 39.1872 62.0625 39.5153C62.7655 39.8123 63.4841 40.0623 64.2964 40.0623C65.8117 40.0779 67.2333 39.3434 67.9831 38.312C68.7486 37.2493 68.936 35.8428 68.2956 34.7177C68.2018 34.5614 68.0925 34.4051 67.9519 34.2801C69.3578 33.7488 70.7013 33.1236 71.9197 32.3266C72.2166 32.1391 72.4978 31.9203 72.7633 31.7172C72.7321 32.0453 72.8414 32.3579 73.107 32.6079C72.7633 32.7642 72.4977 33.0143 72.3415 33.3581C71.826 34.5458 72.529 35.9522 73.8724 36.5774C75.2784 37.2337 76.9655 36.9993 78.1684 36.171C79.1838 35.499 79.7462 34.2645 79.6681 33.1705ZM65.3743 36.9993C65.3431 37.0462 65.3118 37.0931 65.2806 37.1399C65.2493 37.1868 65.2181 37.2181 65.1712 37.265C65.0931 37.3275 65.015 37.39 64.9369 37.4525C64.8744 37.4837 64.8119 37.515 64.7495 37.5463C64.7338 37.5463 64.7026 37.5619 64.6713 37.5775C64.5932 37.5931 64.5151 37.6088 64.437 37.6244C64.3433 37.6244 64.2652 37.6244 64.1715 37.6244C64.1558 37.6244 64.1402 37.6244 64.1246 37.6244C64.0777 37.6088 64.0308 37.6088 63.984 37.5931C63.7965 37.515 63.6247 37.4525 63.4529 37.3744C63.4216 37.3587 63.3747 37.3431 63.3279 37.3275C63.3435 37.265 63.3591 37.2025 63.3747 37.1556C63.3904 37.1243 63.4216 37.0774 63.4372 37.0618C63.4529 37.0462 63.4685 37.0149 63.4841 36.9993L63.4997 36.9837C63.5153 36.968 63.531 36.9524 63.5466 36.9368C63.5778 36.9212 63.5935 36.9055 63.6247 36.8899C64.0777 36.6711 64.3745 36.2492 64.3902 35.8272C64.4214 35.8272 64.4683 35.8116 64.4995 35.8116C64.7494 35.796 64.9994 35.7803 65.2493 35.796C65.3274 35.8116 65.3899 35.8272 65.468 35.8429C65.468 35.8429 65.4837 35.8429 65.4837 35.8585C65.4837 35.8741 65.4993 35.8741 65.4993 35.8897C65.4993 35.8897 65.4993 35.8897 65.4993 35.9054C65.5149 35.9366 65.5149 35.9679 65.5149 35.9991C65.5305 36.171 65.5305 36.3273 65.5149 36.4992C65.4993 36.6399 65.4368 36.8118 65.3743 36.9993ZM71.9666 28.701C70.1857 30.7951 67.327 31.9828 64.4058 32.8267C61.2658 33.7331 58.0165 34.4051 54.736 34.8739C48.0969 35.796 41.239 35.7491 34.6154 34.7802C34.3342 34.7333 34.0687 34.7645 33.8344 34.8114C33.3969 34.8583 32.9908 35.0458 32.7877 35.3897C31.866 36.9212 30.96 38.4683 30.0383 39.9998C29.1166 38.7808 28.2575 37.5463 27.4608 36.2648C27.8201 35.5303 27.3826 34.5301 26.1017 34.5458C16.5413 34.7177 6.93403 29.3887 6.24668 21.3873C5.93425 17.7461 7.32455 13.9642 10.6051 11.3544C14.6979 8.08822 20.8216 6.85364 26.4141 6.38482C32.2878 5.90036 38.3177 5.94724 44.2071 6.27542C49.9871 6.6036 55.7514 7.36935 61.2033 8.94774C66.0929 10.3699 71.6854 12.5265 73.7162 16.6365C75.5908 20.4653 74.8254 25.3411 71.9666 28.701ZM76.4344 33.9832C76.3875 34.0457 76.3406 34.1082 76.3094 34.1707C76.2938 34.1863 76.2782 34.202 76.2625 34.2332C76.1688 34.3113 76.0751 34.3895 75.9814 34.452C75.9814 34.452 75.9657 34.452 75.9657 34.4676C75.9345 34.4832 75.9032 34.4989 75.872 34.5145C75.8251 34.5301 75.7783 34.5458 75.7314 34.5458C75.6689 34.5458 75.6221 34.5458 75.5596 34.5458C75.5283 34.5301 75.4971 34.5301 75.4815 34.5301H75.4658C75.4502 34.5145 75.419 34.5145 75.4034 34.4989C75.3877 34.4832 75.3877 34.4832 75.3721 34.4676L75.3877 34.4832C75.3721 34.4676 75.3565 34.4676 75.3409 34.452C75.3252 34.4364 75.3252 34.4207 75.3096 34.4207C75.3252 34.4207 75.3252 34.4364 75.3409 34.4364C75.3252 34.4207 75.3252 34.4207 75.3096 34.4207C75.294 34.4051 75.294 34.3895 75.2784 34.3895C75.2784 34.3739 75.2628 34.3582 75.2628 34.3582C75.2471 34.3426 75.2471 34.3113 75.2471 34.2957C75.2471 34.2801 75.2471 34.2488 75.2471 34.2488C75.2471 34.2332 75.2471 34.2332 75.2471 34.2332C75.2784 34.1707 75.294 34.1238 75.3096 34.1082C75.4658 33.7331 75.3252 33.2956 74.9972 32.9986C75.2471 32.9049 75.4658 32.7486 75.6064 32.5298C75.6533 32.436 75.7314 32.3579 75.7783 32.2798H75.7939C75.8251 32.2954 75.8408 32.2954 75.8564 32.311C75.9189 32.3423 75.9814 32.3735 76.0438 32.4048C76.0595 32.4204 76.0595 32.4204 76.0751 32.436C76.1376 32.4829 76.2001 32.5298 76.2625 32.5923C76.2782 32.6079 76.2782 32.6079 76.2782 32.6079C76.325 32.6548 76.3719 32.7173 76.4031 32.7642C76.4187 32.7798 76.4656 32.858 76.4812 32.9049C76.4969 32.9361 76.5125 32.9674 76.5125 32.983C76.5437 33.0611 76.5593 33.1393 76.575 33.2174C76.575 33.2487 76.5906 33.2799 76.5906 33.3112C76.5906 33.3893 76.5906 33.4831 76.5906 33.5612C76.5906 33.5768 76.5906 33.6081 76.575 33.655C76.575 33.6706 76.575 33.6706 76.575 33.6862C76.5593 33.7331 76.5437 33.7956 76.5281 33.8425C76.4969 33.8269 76.4656 33.905 76.4344 33.9832Z" fill="#1E1E1E"/>
<path d="M24.4145 26.0599C24.3833 26.0599 24.352 26.0756 24.3052 26.0912C24.3208 26.0912 24.3364 26.0912 24.3364 26.0912C24.352 26.0912 24.352 26.0912 24.3677 26.0912C24.3677 26.0912 24.3677 26.0912 24.3833 26.0912C24.3989 26.0912 24.3989 26.0912 24.4145 26.0912C24.4301 26.0912 24.4614 26.0756 24.4926 26.0756H24.477C24.4926 26.0756 24.5082 26.0599 24.5395 26.0599C24.5551 26.0599 24.5551 26.0599 24.5707 26.0443C24.477 26.0287 24.4301 26.0443 24.4145 26.0599Z" fill="#1E1E1E"/>
<path d="M26.9452 21.653C25.4924 20.7153 23.4772 20.4653 21.8057 21.2154C21.4464 21.3717 21.1965 21.6842 21.0871 22.0124C20.556 22.1062 20.1342 22.4187 19.9311 22.8719C19.4 24.1534 19.4468 25.7162 20.3841 26.8726C21.2589 27.9509 22.8992 28.6854 24.5395 28.5291C25.508 28.4354 26.3828 28.1228 27.0389 27.529C27.6169 26.9976 28.0075 26.3413 28.2262 25.6536C28.6792 24.2472 28.4136 22.6219 26.9452 21.653ZM24.8207 25.8255C24.7738 25.8568 24.7269 25.9037 24.6801 25.9349C24.7426 25.9037 24.7113 25.9349 24.6488 25.9662C24.6332 25.9662 24.6332 25.9818 24.6176 25.9818C24.602 25.9974 24.5864 25.9974 24.5707 26.0131H24.5863H24.5707C24.5551 26.0131 24.5551 26.0287 24.5395 26.0287C24.5551 26.0131 24.5551 26.0131 24.5707 26.0131C24.5551 26.0131 24.5239 26.0287 24.5082 26.0287C24.4926 26.0287 24.4926 26.0443 24.477 26.0443C24.4926 26.0443 24.477 26.06 24.3989 26.06C24.3833 26.06 24.3833 26.06 24.3676 26.06C24.352 26.06 24.3364 26.06 24.3208 26.06C24.2895 26.06 24.2427 26.0756 24.2114 26.0756C24.2427 26.06 24.2583 26.06 24.2895 26.06C24.2114 26.06 24.1333 26.06 24.0552 26.06C24.0865 26.06 24.1177 26.0756 24.1802 26.0912C24.1333 26.0756 24.0708 26.0756 24.024 26.0756H24.0084C23.9302 26.0756 23.8834 26.06 23.9459 26.06C23.8521 26.0443 23.7584 26.0131 23.6647 25.9974C23.6334 25.9818 23.6022 25.9662 23.571 25.9662C23.4772 25.9349 23.3991 25.8881 23.321 25.8412C23.2898 25.8255 23.2585 25.7943 23.2273 25.7787C23.196 25.7474 23.1492 25.7162 23.1179 25.6849C23.0554 25.6068 22.9773 25.513 22.9148 25.4349C22.8992 25.4036 22.868 25.3723 22.8523 25.3411C22.8055 25.2161 22.7586 25.091 22.7118 24.9504C22.7118 24.9191 22.6961 24.8879 22.6961 24.8566C22.6961 24.841 22.6961 24.8254 22.6961 24.7941C22.6805 24.5441 22.6961 24.3097 22.7274 24.0596C22.6961 24.4503 22.743 24.0596 22.7743 23.9502C22.8211 23.8096 22.868 23.6689 22.9305 23.5283C22.9305 23.5127 22.9305 23.497 22.9461 23.4814C23.0867 23.4502 23.2429 23.4189 23.3835 23.3564C23.4147 23.3408 23.446 23.3251 23.4772 23.3095C23.5553 23.2939 23.6334 23.2626 23.7115 23.247C23.7272 23.247 23.7428 23.247 23.7584 23.247C23.8521 23.247 23.9459 23.247 24.0396 23.247C23.9615 23.2314 24.024 23.2314 24.1021 23.2314C24.1177 23.2314 24.1333 23.2314 24.1489 23.247C24.1958 23.247 24.2427 23.2626 24.2895 23.2626C24.2427 23.2626 24.2114 23.2626 24.1802 23.2626C24.2739 23.2782 24.3677 23.2939 24.477 23.3251C24.5239 23.3408 24.5707 23.3564 24.6176 23.3564C24.6332 23.3564 24.6332 23.3564 24.6332 23.3564C24.7113 23.3876 24.7738 23.4189 24.8207 23.4502C24.8363 23.4658 24.8675 23.4658 24.8832 23.4814C24.8675 23.4658 24.8675 23.4658 24.8519 23.4502C24.8675 23.4658 24.8832 23.4814 24.9144 23.497C24.9457 23.5127 24.9613 23.5283 24.9925 23.5439C25.055 23.5752 25.0706 23.6064 25.0394 23.5908C25.055 23.6064 25.0706 23.6064 25.0862 23.6221C25.1019 23.6377 25.1175 23.6533 25.1487 23.6689C25.18 23.7158 25.2112 23.7627 25.2424 23.8096C25.2268 23.7627 25.2581 23.7471 25.2893 23.8408C25.2893 23.8565 25.3049 23.8721 25.3049 23.8877C25.3206 23.9033 25.3206 23.9033 25.3362 23.919C25.3206 23.919 25.3206 23.9033 25.3206 23.9033C25.3362 23.9502 25.3518 23.9971 25.3674 24.044C25.383 24.0909 25.3987 24.1378 25.3987 24.1846C25.3987 24.169 25.3987 24.169 25.3987 24.1534C25.3987 24.169 25.3987 24.1846 25.3987 24.2003C25.3987 24.2159 25.4143 24.2315 25.4143 24.2472C25.4299 24.3097 25.4143 24.3409 25.3987 24.3097C25.3987 24.3722 25.4143 24.4191 25.4143 24.4816C25.4143 24.5441 25.4143 24.6222 25.3987 24.6847C25.3987 24.7004 25.3987 24.716 25.3987 24.716C25.3518 24.9348 25.2893 25.1536 25.1956 25.3723C25.18 25.4036 25.1487 25.4661 25.1331 25.4974C25.0706 25.5911 25.0238 25.6849 24.9457 25.7787C24.8832 25.7787 24.8519 25.7943 24.8207 25.8255Z" fill="#1E1E1E"/>
<path d="M24.6177 25.9975C24.5864 26.0131 24.5708 26.0288 24.5396 26.0288C24.5552 26.0288 24.5708 26.0288 24.5864 26.0288C24.5864 26.0131 24.602 25.9975 24.6177 25.9975Z" fill="#1E1E1E"/>
<path d="M24.6176 25.9974C24.6176 25.9974 24.6176 25.9818 24.6176 25.9974C24.6488 25.9818 24.6644 25.9662 24.68 25.9506C24.6644 25.9506 24.6488 25.9662 24.6176 25.9974Z" fill="#1E1E1E"/>
<path d="M24.5707 26.0288L24.5863 26.0131L24.5707 26.0288Z" fill="#1E1E1E"/>
<path d="M25.0081 23.5596C24.9613 23.5283 24.93 23.4971 24.8832 23.4658C24.8832 23.4658 24.8676 23.4658 24.8676 23.4502C24.93 23.5283 24.9769 23.5596 25.0081 23.5596Z" fill="#1E1E1E"/>
<path d="M24.0239 26.0756C24.0395 26.0756 24.0552 26.0756 24.0552 26.0756C23.9927 26.0599 23.9614 26.0599 23.9302 26.0599C23.977 26.0599 23.9927 26.0756 24.0239 26.0756Z" fill="#1E1E1E"/>
<path d="M25.2581 23.8565C25.2424 23.8408 25.2268 23.8096 25.1956 23.7939C25.1956 23.8096 25.2268 23.8408 25.2581 23.8565C25.2581 23.8721 25.2581 23.8565 25.2581 23.8565Z" fill="#1E1E1E"/>
<path d="M25.3518 24.2785C25.3518 24.2316 25.3518 24.2003 25.3518 24.1691C25.3518 24.1691 25.3518 24.1691 25.3518 24.1534C25.3362 24.216 25.3362 24.2628 25.3518 24.2785Z" fill="#1E1E1E"/>
<path d="M42.7543 26.6851C42.77 26.6694 42.7856 26.6694 42.8168 26.6538L42.8325 26.6382C42.7543 26.6694 42.7387 26.6851 42.7543 26.6851Z" fill="#1E1E1E"/>
<path d="M43.1136 25.935C43.1293 25.8412 43.1449 25.7006 43.1136 25.935V25.935Z" fill="#1E1E1E"/>
<path d="M45.1444 22.7938C44.3789 22.2781 43.426 22.0124 42.4419 21.8718C41.8951 21.7936 41.3796 21.7467 40.8329 21.8092C40.1455 21.8874 39.63 22.0905 39.0832 22.4343C38.9739 22.4969 38.8801 22.6062 38.8177 22.7313C38.599 22.7938 38.3803 22.8719 38.1928 23.0126C36.7869 24.044 36.6619 25.8412 37.6148 27.107C38.5209 28.326 40.1924 29.0761 41.9264 29.2011C42.7387 29.2636 43.5979 29.123 44.3165 28.8104C45.1756 28.4197 45.738 27.7477 45.988 26.9976C46.0973 26.6538 46.1442 26.2787 46.2067 25.9193C46.2535 25.6067 46.3004 25.2942 46.2848 24.9816C46.2535 24.1846 45.9411 23.3407 45.1444 22.7938ZM43.1761 25.513C43.1605 25.6224 43.1448 25.7318 43.1292 25.8412C43.1292 25.888 43.1136 25.9349 43.098 25.9818C43.098 25.9506 43.098 25.9349 43.098 25.9193C43.098 25.9349 43.098 25.9506 43.098 25.9506C43.0511 26.1537 42.9886 26.3256 42.9105 26.5131C42.8949 26.5288 42.848 26.5757 42.8168 26.6069H42.8324C42.8168 26.6069 42.8168 26.6225 42.8168 26.6225C42.8168 26.6225 42.8012 26.6225 42.8012 26.6382C42.7699 26.6538 42.7543 26.6694 42.7387 26.6694C42.7231 26.6851 42.7074 26.6851 42.6762 26.7007C42.6606 26.7007 42.6449 26.7007 42.6293 26.7163C42.5981 26.7319 42.5512 26.7319 42.52 26.7319C42.5981 26.7319 42.5356 26.7476 42.4575 26.7476C42.4419 26.7476 42.4262 26.7476 42.4106 26.7476C42.3638 26.7476 42.3169 26.7632 42.2856 26.7632C42.3481 26.7476 42.3638 26.7476 42.4106 26.7476C42.3481 26.7476 42.2857 26.7476 42.2232 26.7476C42.1763 26.7476 42.0513 26.7319 41.9732 26.7319C41.9107 26.7163 41.8326 26.7163 41.817 26.7007C41.692 26.6851 41.5827 26.6538 41.4577 26.6225C41.4421 26.6225 41.4109 26.6069 41.3952 26.6069C41.3796 26.6069 41.3796 26.6069 41.364 26.5913C41.1453 26.4975 40.9266 26.3881 40.7235 26.2787C40.6922 26.2475 40.6454 26.2319 40.6142 26.2006C40.5204 26.1381 40.4423 26.0599 40.3642 25.9818C40.333 25.9349 40.2705 25.8724 40.2392 25.8412C40.208 25.7943 40.1767 25.7474 40.1299 25.7005C40.0986 25.6068 40.0674 25.5286 40.0361 25.4348C40.0361 25.388 40.0361 25.3411 40.0361 25.2942C40.0361 25.2629 40.0361 25.2317 40.0361 25.1848C40.0518 25.1379 40.083 25.0754 40.0986 25.0285C40.0674 25.0754 40.0205 25.0754 40.083 25.0129C40.0986 24.9973 40.1142 24.966 40.1299 24.9504C40.1299 24.9348 40.1455 24.9191 40.1455 24.9035C40.1455 24.9191 40.1455 24.9348 40.1299 24.9504C40.1455 24.9191 40.1767 24.8879 40.1924 24.8566C40.2392 24.8097 40.2861 24.7785 40.333 24.7316C40.4423 24.6535 40.5048 24.5441 40.5829 24.4347C40.7391 24.3878 40.8953 24.3253 41.0516 24.2471C41.0672 24.2471 41.0672 24.2471 41.0828 24.2471H41.0984C41.0047 24.3097 41.0672 24.2784 41.1297 24.2471C41.1609 24.2471 41.2078 24.2315 41.239 24.2315C41.3484 24.2315 41.4733 24.2471 41.489 24.2471C41.5202 24.2471 41.5671 24.2471 41.5983 24.2628C41.6139 24.2628 41.6452 24.2628 41.6608 24.2784C41.9107 24.3097 42.1607 24.3722 42.4106 24.419C42.52 24.4503 42.6293 24.4659 42.7387 24.4972C42.8012 24.5284 42.8793 24.5441 42.9261 24.5753C42.9418 24.5753 42.973 24.591 42.9886 24.6066C43.0042 24.6222 43.0199 24.6222 43.0199 24.6378C43.0667 24.6691 43.0667 24.6847 43.0511 24.6847C43.0667 24.716 43.098 24.7785 43.1292 24.7941C43.1136 24.7785 43.098 24.7629 43.0824 24.7472C43.098 24.7941 43.1136 24.8254 43.1136 24.8723C43.2073 25.091 43.2073 25.2942 43.1761 25.513Z" fill="#1E1E1E"/>
<path d="M42.4419 26.7476C42.4731 26.7476 42.5044 26.7319 42.5512 26.7319C42.5356 26.7319 42.4888 26.7476 42.4419 26.7476Z" fill="#1E1E1E"/>
<path d="M43.1135 24.6691C43.1135 24.6848 43.1448 24.716 43.176 24.7473V24.7316C43.1604 24.7004 43.1604 24.6848 43.1448 24.6691V24.6535C43.1291 24.6691 43.1291 24.6691 43.1135 24.6691C43.1135 24.6535 43.1135 24.6535 43.1135 24.6691C43.1135 24.6535 43.1135 24.6379 43.0979 24.6223C43.0823 24.6223 43.0823 24.6066 43.0667 24.6066C43.0667 24.6379 43.0823 24.6535 43.1135 24.6691Z" fill="#1E1E1E"/>
<path d="M40.1611 24.966C40.1611 24.9973 40.1455 25.0129 40.1299 25.0441C40.1455 25.0285 40.1611 24.9973 40.1611 24.966Z" fill="#1E1E1E"/>
<path d="M58.3758 24.8566C58.3602 24.8566 58.3446 24.8566 58.329 24.8409C58.2977 24.8409 58.2821 24.8409 58.2509 24.8409C58.2352 24.8409 58.204 24.8409 58.1884 24.8409C58.1728 24.8566 58.2352 24.8722 58.3758 24.8566Z" fill="#1E1E1E"/>
<path d="M61.9531 24.0753C61.1877 22.7469 59.2663 22.3562 57.5791 22.3718C57.0949 22.3718 56.6262 22.575 56.3294 22.8876C55.7983 22.8719 55.2827 23.0907 54.9547 23.4814C54.0486 24.5441 53.5644 26.06 54.033 27.3258C54.5329 28.701 56.1575 29.5137 57.8759 29.6387C59.4225 29.7481 61.0159 29.0761 61.6564 27.9509C62.3281 26.7476 62.6561 25.3098 61.9531 24.0753ZM59.0319 26.5444C59.0007 26.6382 58.9694 26.7163 58.9226 26.7945C58.9382 26.7788 58.9382 26.7632 58.9382 26.7632C58.9382 26.7632 58.9226 26.7788 58.9069 26.8101C58.9069 26.8257 58.907 26.8257 58.8913 26.8413C58.8445 26.9507 58.8601 26.8882 58.8913 26.8257C58.8601 26.8726 58.8288 26.9195 58.8445 26.9039C58.8288 26.9195 58.7976 26.9664 58.7664 26.9976C58.7507 27.0132 58.7351 27.0289 58.7195 27.0445C58.6883 27.0601 58.6726 27.0758 58.6414 27.0914C58.6726 27.0914 58.6414 27.107 58.5789 27.1226C58.532 27.1383 58.4852 27.1539 58.4383 27.1695C58.4852 27.1539 58.5008 27.1383 58.532 27.1226C58.4539 27.1383 58.3758 27.1539 58.3133 27.1695C58.2509 27.1695 58.204 27.1695 58.204 27.1695C58.1259 27.1695 58.0478 27.1695 57.9697 27.1695C57.9853 27.1695 58.0009 27.1695 58.0321 27.1851C58.0009 27.1695 57.9697 27.1695 57.9228 27.1695C57.9072 27.1695 57.8915 27.1695 57.8603 27.1695C57.7822 27.1695 57.7666 27.1539 57.7822 27.1383C57.7197 27.1226 57.6572 27.107 57.5947 27.0914C57.5947 27.0914 57.5791 27.0914 57.5635 27.0758C57.5479 27.0758 57.5323 27.0601 57.5323 27.0601C57.4385 27.0132 57.3448 26.9664 57.2511 26.9351C57.2354 26.9195 57.2198 26.9039 57.1886 26.9039C57.1573 26.8726 57.1105 26.8413 57.0792 26.8101C57.0636 26.7945 57.0636 26.7788 57.048 26.7788C57.0324 26.7632 57.0324 26.7476 57.0167 26.7319C57.0011 26.6694 56.9699 26.6069 56.9542 26.5444C56.9542 26.4819 56.9386 26.4194 56.9386 26.3725C56.9386 26.2475 56.9386 26.1381 56.9542 26.0131C56.9542 25.9974 56.9542 25.9974 56.9542 25.9818C56.9542 26.1694 56.9699 25.9506 56.9699 25.9037C56.9855 25.8412 57.1417 25.2161 57.2354 25.2161C57.2354 25.2161 57.0948 25.4661 57.2042 25.2942C57.2511 25.2161 57.2979 25.1536 57.3448 25.0754C57.4073 24.9973 57.4698 24.9191 57.5323 24.841C57.5479 24.841 57.5635 24.841 57.5791 24.841C57.7822 24.841 57.9853 24.841 58.204 24.8566C58.2196 24.8566 58.2352 24.841 58.2977 24.8566C58.3133 24.8566 58.3289 24.8566 58.3446 24.8723C58.3758 24.8723 58.4071 24.8879 58.4383 24.8723C58.4227 24.8723 58.4071 24.8723 58.3914 24.8723C58.4852 24.8879 58.5789 24.9035 58.6726 24.9191C58.7507 24.9348 58.8289 24.966 58.9226 24.9817C58.9538 24.9973 58.985 24.9973 59.0007 25.0129C59.0319 25.0285 59.0632 25.0442 59.0944 25.0598C59.11 25.0754 59.1257 25.0754 59.1413 25.091C59.1725 25.1379 59.2038 25.1848 59.235 25.2317C59.2506 25.263 59.2506 25.2786 59.2662 25.3098C59.2662 25.3098 59.2819 25.3411 59.2819 25.3567C59.2819 25.4505 59.2975 25.5442 59.2975 25.638C59.2975 25.7162 59.2819 25.7943 59.2819 25.8724C59.2819 25.9037 59.2662 25.9349 59.2662 25.9662C59.1725 26.1381 59.11 26.3413 59.0319 26.5444Z" fill="#1E1E1E"/>
<path d="M57.7822 27.1538C57.8135 27.1538 57.8291 27.1695 57.8603 27.1695C57.876 27.1695 57.8916 27.1695 57.9072 27.1851C57.9228 27.1851 57.9384 27.1851 57.9541 27.1851C57.876 27.1538 57.8135 27.1382 57.7822 27.1538Z" fill="#1E1E1E"/>
<path d="M58.5788 27.1226C58.6101 27.107 58.6257 27.0914 58.6569 27.0914C58.6413 27.0914 58.5945 27.107 58.532 27.1383C58.5476 27.1226 58.5632 27.1226 58.5788 27.1226Z" fill="#1E1E1E"/>
<path d="M58.9226 26.8101V26.7944C58.9226 26.8101 58.907 26.8101 58.907 26.8257C58.9226 26.8257 58.9226 26.8257 58.9226 26.8101Z" fill="#1E1E1E"/>
<path d="M73.4663 6.10353C67.3739 3.41558 60.8597 1.36836 54.1112 0.0400157C52.1897 -0.335047 51.3618 2.04035 53.2989 2.41541C59.8131 3.69687 66.0617 5.6347 71.9198 8.22888C73.6538 8.99463 75.2003 6.86928 73.4663 6.10353Z" fill="#1E1E1E"/>
<path d="M12.5734 36.1085C8.19935 34.4207 4.71575 31.4358 3.05986 27.904C2.76305 27.2789 2.01323 26.8569 1.16967 27.0445C0.419832 27.2007 -0.205035 27.9352 0.0917752 28.5603C2.06009 32.7485 5.96549 36.2804 11.0269 38.2338C11.7767 38.5151 12.6984 38.3901 13.1358 37.7962C13.5107 37.2493 13.3232 36.3898 12.5734 36.1085Z" fill="#1E1E1E"/>
<path d="M36.0527 55.3617C35.709 53.6895 34.7248 52.1737 33.5688 50.986C30.9444 48.298 26.6329 46.2508 23.1024 48.2511C22.0245 48.8606 22.5869 50.3452 23.5398 50.5171C23.4773 50.5484 23.4148 50.5953 23.3679 50.6422C21.0091 52.7831 20.0405 56.1743 20.5873 59.3311C21.1653 62.5504 23.7429 65.4415 26.914 66.0041C28.6168 66.301 30.4445 66.0354 31.9286 65.0664C33.4282 64.0975 34.4124 62.5348 35.1466 60.9095C35.9433 59.1592 36.4588 57.3152 36.0527 55.3617ZM33.4282 58.831C32.5222 61.3627 30.9132 63.785 28.0232 63.6756C25.6331 63.5974 23.6179 61.6127 23.0087 59.2999C22.3525 56.7994 23.1649 54.0802 25.0395 52.3768C25.8674 51.6111 25.2113 50.5015 24.3521 50.3452C26.6016 49.1263 29.4447 50.5484 31.1944 52.0799C32.116 52.8769 32.944 53.8302 33.4282 54.971C33.9906 56.2525 33.8813 57.5496 33.4282 58.831Z" fill="#1E1E1E"/>
<path d="M31.4286 79.522C29.8977 79.522 29.8977 81.9756 31.4286 81.9756C32.9595 81.9756 32.9595 79.522 31.4286 79.522Z" fill="#1E1E1E"/>
<path d="M32.1472 84.1165C30.6163 84.1165 30.6163 86.5701 32.1472 86.5701C33.6781 86.5857 33.6937 84.1165 32.1472 84.1165Z" fill="#1E1E1E"/>
<path d="M32.9752 87.4139C31.4443 87.4139 31.4443 89.7112 32.9752 89.7112C34.5061 89.7112 34.5217 87.4139 32.9752 87.4139Z" fill="#1E1E1E"/>
<path d="M64.6089 67.9107C65.3431 69.536 66.3272 71.0987 67.8269 72.0676C69.311 73.0209 71.1387 73.3022 72.8414 73.0053C76.0126 72.4427 78.5902 69.5516 79.1682 66.3323C79.7305 63.1755 78.7464 59.7843 76.3875 57.6434C76.325 57.5965 76.2782 57.5496 76.2157 57.5183C77.1686 57.3464 77.731 55.8618 76.6531 55.2523C73.1226 53.252 68.8111 55.2836 66.1866 57.9872C65.0306 59.1749 64.0465 60.6907 63.7028 62.3629C63.2967 64.3007 63.8122 66.1291 64.6089 67.9107ZM66.3116 61.9566C66.7959 60.8158 67.6394 59.8625 68.5455 59.0655C70.3107 57.534 73.1539 56.1118 75.3877 57.3308C74.5286 57.4871 73.8724 58.6123 74.7004 59.3624C76.5594 61.0658 77.3873 63.785 76.7312 66.2854C76.122 68.5983 74.1068 70.583 71.7167 70.6611C68.8423 70.7705 67.2177 68.3483 66.3116 65.8166C65.8586 64.5195 65.7649 63.238 66.3116 61.9566Z" fill="#1E1E1E"/>
<path d="M89.869 16.3708C87.0415 14.0892 83.2454 12.9796 79.3713 13.4641C77.5123 13.6985 78.309 16.0582 80.1523 15.8395C83.636 15.4019 87.0883 17.0584 89.1035 19.3557C91.2749 21.8561 92.1185 25.0597 92.0716 28.0915C91.9779 33.9519 87.6351 40.1716 80.1055 40.7655C79.2463 40.828 78.7933 41.3906 78.7152 41.9532C78.5121 42.1563 78.3871 42.4064 78.4184 42.6877C78.5746 44.7974 78.3246 46.7509 77.6529 48.7043C76.5125 47.0947 75.2316 45.5632 73.81 44.1098C73.3882 43.6722 72.5134 43.6566 71.9666 43.9535C65.9211 45.5007 58.2665 45.2819 54.3299 40.4998C53.2676 39.2027 50.7213 40.4373 51.7992 41.7344C56.4075 47.3447 64.9682 48.173 72.2791 46.4227C72.3259 46.4696 72.3572 46.5008 72.404 46.5477C72.4197 46.5633 72.4197 46.5633 72.4353 46.579C72.4978 46.6415 72.5446 46.704 72.6071 46.7665C72.7165 46.8915 72.8258 47.0165 72.9352 47.1416C73.3726 47.6573 73.81 48.173 74.2161 48.7043C75.0285 49.7514 75.7627 50.8297 76.4188 51.9392C76.7625 52.5175 77.7935 52.7206 78.4184 52.3768C78.7776 52.1893 78.9963 51.908 79.0901 51.611C79.4494 51.4704 79.7306 51.1891 79.8868 50.8453C80.9959 48.3761 81.4802 45.7194 81.3396 43.0784C87.6351 42.1251 92.4621 37.9682 94.1805 32.811C96.0239 27.3726 94.8991 20.434 89.869 16.3708Z" fill="#1E1E1E"/>
<path d="M85.323 27.6228C85.323 27.6071 85.3386 27.6071 85.3386 27.5915V27.5759C85.3386 27.5915 85.323 27.6071 85.3074 27.654C85.323 27.654 85.323 27.6384 85.323 27.6228Z" fill="#1E1E1E"/>
<path d="M88.4786 25.9662C88.3537 25.1692 87.8382 24.5597 87.0415 24.1065C86.3697 23.7158 85.5105 23.4345 84.6826 23.4814C83.9952 23.5127 83.3391 23.919 83.2298 24.4972C82.9642 24.4191 82.6674 24.4035 82.4019 24.4816C82.0113 24.591 81.7614 24.7785 81.527 25.0442C80.7616 25.9193 80.7928 27.3102 81.2615 28.2791C81.777 29.3418 82.7768 30.2325 84.1671 30.4201C84.9638 30.5295 85.7292 30.4513 86.4478 30.1388C87.0102 29.8887 87.5101 29.4355 87.8069 28.9511C88.0725 28.5291 88.2599 28.0603 88.3537 27.5915C88.4943 27.0445 88.5724 26.5132 88.4786 25.9662ZM85.3231 27.6227C85.3075 27.6696 85.2762 27.7165 85.2606 27.7634C85.2762 27.7165 85.2918 27.6696 85.3075 27.654C85.2918 27.6696 85.2918 27.6852 85.2762 27.7009C85.245 27.7478 85.2137 27.8103 85.1669 27.8572C85.1669 27.8572 85.1512 27.8728 85.1512 27.8884L85.1356 27.904C85.1044 27.9197 85.0888 27.9509 85.0575 27.9665H85.0419C84.995 27.9822 84.9638 27.9822 84.9169 27.9978C84.8544 27.9978 84.7919 27.9978 84.7295 27.9978C84.6826 27.9822 84.6357 27.9822 84.5889 27.9665H84.5733C84.5889 27.9822 84.6045 27.9822 84.6357 27.9978C84.6045 27.9822 84.5576 27.9665 84.5264 27.9509C84.4795 27.9353 84.4483 27.9197 84.4639 27.9197C84.417 27.904 84.3702 27.8728 84.3389 27.8572C84.2921 27.8259 84.2452 27.779 84.2139 27.7321C84.1827 27.6852 84.1358 27.6384 84.1046 27.5915C84.089 27.5602 84.0577 27.529 84.0421 27.4821C83.9796 27.3102 83.9328 27.1383 83.8859 26.9664C83.8703 26.8414 83.8703 26.7163 83.8859 26.6069C83.9015 26.5444 83.9171 26.4819 83.9328 26.4194C83.9796 26.3725 84.0109 26.31 84.0577 26.2631C84.1515 26.1537 84.1983 26.0131 84.2296 25.8724C84.3702 25.9193 84.5264 25.935 84.6826 25.935C84.7451 25.935 84.7919 25.935 84.8544 25.935C84.9013 25.9506 84.9482 25.9506 84.995 25.9662C84.995 25.9662 84.995 25.9662 85.0107 25.9662C85.0731 25.9975 85.2762 26.0756 85.3075 26.0912C85.3856 26.1225 85.4637 26.1694 85.5418 26.2163C85.5574 26.2163 85.5574 26.2319 85.573 26.2319C85.573 26.2475 85.5886 26.2631 85.5886 26.2944C85.6043 26.435 85.5886 26.5757 85.5886 26.7163C85.5574 26.9039 85.5262 27.0914 85.4637 27.2633C85.4324 27.3727 85.4012 27.4821 85.3543 27.5759C85.3543 27.5602 85.3543 27.5915 85.3231 27.6227Z" fill="#1E1E1E"/>
<path d="M84.5264 27.9509C84.542 27.9509 84.5576 27.9666 84.5732 27.9666C84.5107 27.9353 84.4795 27.9197 84.4639 27.9197C84.4951 27.9353 84.5107 27.9509 84.5264 27.9509Z" fill="#1E1E1E"/>
<path d="M98.5389 96.0092C93.4307 96.1498 88.3224 96.2905 83.2141 96.4155C83.4797 92.8055 82.5268 89.0549 81.4958 85.6481C80.496 82.3663 78.9338 79.2095 76.1688 77.1466C73.5444 75.1932 70.1858 74.7087 67.2645 76.2402C64.2652 77.803 62.4687 80.9598 61.4377 84.1478C60.7816 86.1481 60.3442 88.2422 59.9224 90.3051C59.485 92.4617 59.1882 94.6496 59.2975 96.8687C52.3772 96.9468 45.4568 96.9468 38.5208 96.8531C38.2084 92.3367 37.5367 87.2421 36.8181 82.8351C36.1932 78.9907 35.7246 74.615 33.3189 71.3332C31.1318 68.3483 26.6797 66.4261 23.6179 69.4579C22.1651 70.9112 21.6339 72.8803 21.3996 74.8338C21.134 77.0998 21.0403 79.4126 20.9622 81.6943C20.7747 86.5857 20.8528 91.4928 21.1497 96.3842C14.573 96.1186 7.9963 95.7435 1.43524 95.2278C-0.486215 95.0715 -0.470594 98.1501 1.43524 98.3064C26.586 100.307 51.8304 100.213 77.028 99.6504C84.1983 99.4941 91.3686 99.291 98.5389 99.0878C100.46 99.0253 100.46 95.9467 98.5389 96.0092ZM23.4773 79.0688C23.5866 77.1154 23.571 75.0213 24.149 73.1147C24.602 71.677 25.6955 70.1767 27.4139 70.208C29.101 70.2392 30.5538 71.4738 31.4443 72.7553C33.5063 75.7089 33.8969 79.6471 34.4592 83.0851C35.1622 87.3984 35.8183 92.3992 36.1307 96.8218C31.9285 96.7593 27.742 96.6499 23.5397 96.5092C23.3054 92.7743 23.1961 89.0549 23.2429 85.3199C23.2898 83.2258 23.3679 81.1473 23.4773 79.0688ZM61.672 96.8531C61.5158 93.5556 62.3125 90.2738 63.0936 87.1014C63.8122 84.226 64.8119 81.2567 67.1083 79.3033C69.3109 77.4279 72.0916 77.3654 74.4661 78.9282C76.8874 80.5222 78.2465 83.257 79.1057 85.9919C80.1523 89.3205 81.1052 92.9618 80.8397 96.4936C74.4505 96.6343 68.0612 96.7593 61.672 96.8531Z" fill="#1E1E1E"/>
<path d="M68.4674 84.8041C68.2331 84.5853 67.9519 84.4447 67.6239 84.4447H65.3743C65.0619 84.4447 64.7495 84.5853 64.5308 84.8041C64.3277 85.0229 64.1715 85.3667 64.1871 85.6792C64.2027 85.9918 64.2965 86.32 64.5308 86.5544C64.7651 86.7732 65.0463 86.9138 65.3743 86.9138H67.6239C67.9363 86.9138 68.2487 86.7732 68.4674 86.5544C68.6705 86.3356 68.8267 85.9918 68.8111 85.6792C68.8111 85.3667 68.7018 85.0385 68.4674 84.8041Z" fill="#1E1E1E"/>
<path d="M68.5143 88.5861C67.4989 88.6486 66.4679 88.6173 65.4525 88.4767C65.14 88.4298 64.8588 88.4298 64.5777 88.6017C64.3277 88.758 64.0934 89.0393 64.0309 89.3362C63.9684 89.6487 63.984 90.0082 64.1559 90.2895C64.3121 90.5395 64.562 90.8052 64.8745 90.8521C66.093 91.0396 67.2958 91.1177 68.5299 91.0396C68.8423 91.024 69.1391 90.9146 69.3735 90.6802C69.5765 90.4614 69.7328 90.1176 69.7171 89.805C69.6703 89.1799 69.186 88.5392 68.5143 88.5861Z" fill="#1E1E1E"/>
<path d="M71.1699 92.9773C71.0762 92.6804 70.9043 92.3991 70.6232 92.2428C70.3264 92.0709 70.0452 92.0709 69.7015 92.1178C69.6702 92.1178 69.6546 92.1178 69.639 92.1334C69.6234 92.1334 69.6234 92.1334 69.6078 92.1334C69.4828 92.1491 69.3735 92.1647 69.2485 92.1803C69.0454 92.1959 68.8423 92.2272 68.6236 92.2428C68.1862 92.2741 67.7644 92.3053 67.327 92.3053C66.4678 92.321 65.593 92.2897 64.7338 92.1959C64.109 92.1334 63.5153 92.8054 63.5466 93.4305C63.5778 94.1494 64.0777 94.587 64.7338 94.6651C66.6084 94.8526 68.4674 94.7745 70.3263 94.4932C70.6075 94.4463 70.9044 94.165 71.0449 93.9306C71.2012 93.6649 71.2637 93.2742 71.1699 92.9773Z" fill="#1E1E1E"/>
</svg>
