<svg width="158" height="50" viewBox="0 0 158 50" fill="none" xmlns="http://www.w3.org/2000/svg">
<path d="M2.54165 49.8359C1.64291 49.8359 0.744159 49.2725 0.407129 48.371C-0.0422443 47.1315 0.519478 45.8919 1.75525 45.4411C5.79961 43.8635 9.84398 41.4971 14.3377 38.0038C15.3488 37.215 16.8093 37.4404 17.5957 38.4545C18.3821 39.4687 18.1574 40.9337 17.1463 41.7225C12.2032 45.4411 7.8218 48.033 3.4404 49.7233C3.10337 49.8359 2.76634 49.8359 2.54165 49.8359ZM153.531 44.0889C149.037 44.0889 144.319 43.0747 139.264 41.159C138.028 40.7083 137.466 39.356 137.915 38.2292C138.365 36.9896 139.713 36.4262 140.949 36.8769C146.004 38.9053 150.498 39.6941 154.879 39.4687C156.115 39.356 157.238 40.3702 157.238 41.6098C157.351 42.8493 156.34 43.9762 155.104 43.9762C154.655 44.0889 154.093 44.0889 153.531 44.0889ZM126.456 34.3978C126.119 34.3978 125.67 34.2851 125.333 34.0597L123.423 32.9329C122.3 32.2568 121.064 31.5806 119.94 30.9045C117.357 29.4396 114.66 27.9746 112.076 26.7351C110.953 26.1716 110.504 24.8194 111.065 23.6925C111.627 22.5657 112.975 22.1149 114.099 22.6783C116.795 24.0306 119.491 25.4955 122.187 27.0731C123.311 27.7493 124.547 28.4254 125.67 29.1015L127.58 30.2284C128.703 30.9045 129.04 32.2568 128.366 33.3836C128.029 33.9471 127.355 34.3978 126.456 34.3978ZM27.4819 32.3694C26.8078 32.3694 26.1338 32.0314 25.6844 31.5806C24.898 30.5664 25.0103 29.1015 26.0214 28.3127C29.5041 25.3828 33.7731 22.0022 38.7162 19.0724C39.8396 18.3962 41.1878 18.7343 41.8618 19.8612C42.5359 20.988 42.1988 22.3403 41.0754 23.0164C36.4693 25.7209 32.425 28.9888 29.0547 31.806C28.493 32.1441 28.0436 32.3694 27.4819 32.3694ZM99.0446 20.8753C98.8199 20.8753 98.4829 20.8753 98.2582 20.7627C93.3151 19.0724 88.4843 17.7201 83.8782 16.8186C82.6425 16.5932 81.8561 15.3537 82.0807 14.1141C82.3054 12.8746 83.5412 12.0858 84.777 12.3111C89.7201 13.2126 94.7755 14.6776 99.831 16.4805C101.067 16.9313 101.628 18.1709 101.179 19.4104C100.842 20.3119 99.9433 20.8753 99.0446 20.8753ZM53.8826 17.382C52.8715 17.382 51.9727 16.7059 51.6357 15.6917C51.2987 14.4522 52.0851 13.2126 53.3209 12.8746C58.264 11.5223 63.5441 10.8462 69.0489 10.8462C70.2847 10.8462 71.4081 11.8604 71.4081 13.0999C71.4081 14.3395 70.397 15.4664 69.1613 15.4664C64.1058 15.4664 59.1627 16.1425 54.5566 17.382C54.3319 17.382 54.1073 17.382 53.8826 17.382Z" fill="#1E1E1E"/>
<path d="M96.9987 5.10212C85.892 2.18074 74.5015 0.959404 63.0552 1.54369C60.1392 1.74784 60.2804 6.25312 63.1999 6.1616C74.1971 5.59139 85.2472 6.71065 95.9047 9.64611C98.7366 10.3465 99.8341 5.91518 96.9987 5.10212Z" fill="#1E1E1E"/>
</svg>
