<svg width="196" height="111" viewBox="0 0 196 111" fill="none" xmlns="http://www.w3.org/2000/svg">
<path d="M120.64 101.328C119.516 101.328 118.618 100.539 118.393 99.4119C118.168 98.1723 118.955 96.9328 120.303 96.7074C121.538 96.482 122.662 96.144 123.785 95.6932C126.931 94.4536 129.852 92.4253 132.099 89.9462C132.998 89.0447 134.458 88.932 135.357 89.8335C136.255 90.735 136.368 92.0872 135.581 93.1014C132.885 96.144 129.403 98.5104 125.583 100.088C124.122 100.651 122.662 101.102 121.201 101.328C120.864 101.328 120.752 101.328 120.64 101.328ZM106.372 97.4962C105.81 97.4962 105.361 97.3835 104.912 96.9328C103.339 95.6932 101.878 94.2283 100.081 92.1999C98.2834 90.1715 96.1488 87.5797 94.576 84.4245C94.0143 83.2976 94.4637 81.9454 95.5872 81.3819C96.7106 80.8185 98.0587 81.2692 98.6204 82.3961C99.8562 84.9879 101.878 87.3544 103.451 89.1573C105.024 90.9603 106.484 92.3126 107.72 93.4395C108.731 94.2283 108.844 95.6932 108.057 96.7074C107.72 97.1581 107.046 97.4962 106.372 97.4962ZM138.727 79.8043C137.491 79.8043 136.48 78.9028 136.48 77.6633C136.031 73.3811 134.346 68.8737 131.649 64.3662C130.975 63.2393 131.312 61.8871 132.436 61.2109C133.559 60.5348 134.907 60.8729 135.581 61.9997C138.615 67.1833 140.525 72.2543 140.974 77.0998C140.974 77.0998 140.974 77.2125 140.974 77.3252C141.086 78.5648 140.075 79.6916 138.839 79.8043C138.839 79.8043 138.839 79.8043 138.727 79.8043ZM97.9463 71.3528C97.497 71.3528 96.9353 71.2401 96.4859 70.902C95.4748 70.1132 95.3625 68.6483 96.1489 67.6341C98.9575 64.0281 103.564 60.9856 109.742 58.5064C110.866 58.0557 112.214 58.6191 112.776 59.746C113.225 60.8729 112.663 62.2251 111.54 62.7886C106.147 64.9296 102.103 67.6341 99.8562 70.4513C99.2945 71.0147 98.6204 71.3528 97.9463 71.3528ZM125.358 59.0699C124.235 59.0699 123.224 58.2811 123.111 57.1542C122.887 55.9146 123.785 54.6751 125.021 54.5624L125.695 54.4497C130.526 53.7736 135.357 52.7594 139.963 51.8579C141.199 51.6325 142.434 52.4213 142.659 53.6609C142.884 54.9005 142.097 56.14 140.862 56.3654C136.255 57.3796 131.2 58.3937 126.257 59.0699L125.695 59.1826C125.583 59.0699 125.47 59.0699 125.358 59.0699ZM155.466 53.3228C154.343 53.3228 153.332 52.534 153.219 51.4072C152.995 50.1676 153.893 48.928 155.129 48.8153L155.691 48.7027C159.96 48.0265 165.015 46.8997 169.734 45.4347C170.97 45.0967 172.205 45.7728 172.655 47.0123C172.992 48.2519 172.318 49.4915 171.082 49.9422C166.139 51.5198 160.971 52.6467 156.477 53.4355L155.916 53.5482C155.691 53.3228 155.579 53.3228 155.466 53.3228ZM124.235 53.3228C123.673 53.3228 122.999 53.0975 122.55 52.6467C121.201 51.1818 119.741 49.7168 118.168 48.2519C116.034 46.2235 113.787 44.3079 111.54 42.5049C110.529 41.7161 110.304 40.2511 111.091 39.2369C111.877 38.2227 113.337 37.9974 114.349 38.7862C116.708 40.7019 119.067 42.7302 121.314 44.7586C122.999 46.3362 124.459 47.9138 125.92 49.3788C126.819 50.2803 126.706 51.7452 125.808 52.6467C125.358 53.0975 124.796 53.3228 124.235 53.3228ZM184.563 44.1952C183.777 44.1952 182.99 43.7444 182.541 42.9556C181.979 41.8287 182.316 40.4765 183.44 39.8004C187.259 37.772 190.068 35.6309 191.865 33.4899C192.652 32.4757 194.112 32.363 195.123 33.2645C196.134 34.0533 196.247 35.5183 195.348 36.5324C193.101 39.1242 189.843 41.6034 185.574 43.8571C185.237 44.0825 184.9 44.1952 184.563 44.1952ZM100.193 34.6168C99.8562 34.6168 99.4068 34.5041 99.0698 34.3914C94.6884 32.025 90.0823 29.9966 85.4762 28.3063C84.2405 27.8555 83.6788 26.616 84.0158 25.3764C84.4652 24.1369 85.7009 23.5734 86.9367 23.9115C91.8798 25.6018 96.7106 27.7428 101.317 30.222C102.44 30.7854 102.889 32.2503 102.215 33.3772C101.766 34.166 100.98 34.6168 100.193 34.6168ZM76.3765 22.7846C75.8147 23.7988 74.5789 24.2495 73.4555 23.7988C69.5235 22.2212 64.8051 21.4324 59.4126 21.6577C58.1768 21.6577 57.0534 20.7562 57.0534 19.404C57.0534 18.1644 57.9521 17.0376 59.3003 17.0376C65.2545 16.8122 70.6469 17.601 75.1406 19.404C75.1406 19.404 75.253 19.5167 75.3653 19.5167C76.4888 20.0801 77.0505 21.4324 76.4888 22.5592C76.3764 22.6719 76.3765 22.6719 76.3765 22.7846ZM46.2684 22.8973C45.9314 23.4607 45.482 23.9115 44.8079 24.0242C42.8981 24.5876 40.8759 25.151 38.8537 25.8272C36.1575 26.7287 33.3489 27.7428 30.6527 28.9824C29.5293 29.5458 28.1811 28.9824 27.6194 27.8555C27.0577 26.7287 27.6194 25.3764 28.7428 24.813C31.5514 23.5734 34.36 22.4465 37.281 21.545C39.4155 20.8689 41.55 20.1928 43.4598 19.7421C44.6956 19.404 45.9314 20.1928 46.2684 21.4324C46.6054 21.7704 46.4931 22.4465 46.2684 22.8973Z" fill="#1E1E1E"/>
<path d="M2.79013 31.5134C2.38774 31.5631 2.08567 31.6632 1.7329 31.8641C1.07701 32.4169 0.671421 33.222 0.868871 34.0785C1.01455 35.2876 2.16673 36.2466 3.37391 36.0976C8.5543 35.553 13.7368 34.5047 18.7198 33.1035C19.928 32.7028 20.6875 31.445 20.2904 30.2356C19.8934 29.0261 18.6398 28.2684 17.4315 28.6691C12.6503 29.9196 7.71916 30.9683 2.79013 31.5134Z" fill="#1E1E1E"/>
<path d="M69.9408 12.9536C79.5478 14.4293 88.7138 17.7164 97.0173 22.6222C98.053 23.3058 99.6348 22.4062 100.005 21.4036C100.586 20.1369 99.9019 19.0132 98.7959 18.4177C90.1414 13.2313 80.5715 9.90982 70.5604 8.39974C67.6274 7.93076 66.9374 12.5726 69.9408 12.9536Z" fill="#1E1E1E"/>
<path d="M126.66 105.35C115.763 107.604 100.597 105.463 95.204 94.1943C93.9682 91.4898 89.9239 93.8562 91.272 96.5607C94.3053 102.871 100.821 107.153 107.337 109.182C113.965 111.21 121.155 111.21 127.896 109.858C130.817 109.294 129.581 104.787 126.66 105.35Z" fill="#FBB03B"/>
</svg>
