<svg width="329" height="302" viewBox="0 0 329 302" fill="none" xmlns="http://www.w3.org/2000/svg">
<path d="M328.158 165.729C331.626 201.899 324.537 242.067 299.589 258.338C274.64 274.609 231.819 266.991 193.483 273.456C155.229 279.626 121.525 299.585 95.4652 293.532C69.2991 287.296 50.8556 254.746 36.7697 222.874C22.9719 191.077 13.4169 159.762 13.7577 127.588C13.9878 95.2239 24.0142 61.8143 45.3881 40.6595C66.8369 19.214 99.7411 10.2249 132.097 4.55387C164.56 -0.933931 196.485 -3.10063 224 7.58461C251.516 18.2698 274.515 41.6239 292.744 69.5456C311.155 97.3599 324.882 129.454 328.158 165.729Z" fill="#F8F8F8"/>
<path d="M154.419 280.857C152.502 279.278 150.137 278.507 147.709 277.949C147.099 277.605 146.39 277.842 146.004 278.376C145.17 279.539 144.498 280.798 143.9 282.08C143.577 282.792 143.265 283.504 142.954 284.228C142.668 284.905 142.27 285.606 142.481 286.365C142.73 287.232 143.552 287.54 144.336 287.849C145.058 288.134 145.78 288.419 146.514 288.692C148.008 289.25 149.514 289.76 151.045 290.223C151.431 290.342 151.991 290.223 152.253 289.915C153.186 288.811 153.423 287.41 153.684 286.045C153.946 284.68 154.195 283.314 154.73 282.009C154.892 281.653 154.73 281.106 154.419 280.857ZM146.054 285.962C145.755 285.843 145.456 285.724 145.158 285.606C145.133 285.594 145.108 285.582 145.083 285.57C145.27 285.166 145.419 284.715 145.581 284.335C145.805 283.801 146.041 283.279 146.29 282.757C146.689 281.937 147.149 281.142 147.635 280.359C149.191 280.738 150.759 281.213 152.079 282.092C151.755 283.053 151.556 284.039 151.369 285.036C151.257 285.641 151.133 286.247 150.996 286.852C150.946 287.078 150.896 287.351 150.809 287.612C149.825 287.291 148.83 286.983 147.859 286.626C147.249 286.425 146.651 286.199 146.054 285.962Z" fill="#FBB03B"/>
<path d="M12.5528 172.69C10.6358 171.111 8.2707 170.339 5.84335 169.781C5.23341 169.437 4.52388 169.674 4.13799 170.209C3.30398 171.372 2.6318 172.63 2.0343 173.912C1.71065 174.625 1.39945 175.337 1.08825 176.061C0.801953 176.738 0.40362 177.438 0.615234 178.198C0.864192 179.064 1.68576 179.373 2.46997 179.682C3.19195 179.966 3.91393 180.251 4.64836 180.524C6.14211 181.082 7.6483 181.593 9.17939 182.056C9.56528 182.174 10.1254 182.056 10.3868 181.747C11.3204 180.643 11.5569 179.242 11.8183 177.877C12.0798 176.512 12.3287 175.147 12.864 173.841C13.0258 173.485 12.864 172.939 12.5528 172.69ZM4.18778 177.794C3.88903 177.675 3.59028 177.557 3.29153 177.438C3.26664 177.426 3.24174 177.414 3.21685 177.402C3.40357 176.999 3.55294 176.548 3.71476 176.168C3.93883 175.634 4.17534 175.111 4.42429 174.589C4.82263 173.77 5.2832 172.975 5.76867 172.191C7.32466 172.571 8.89309 173.046 10.2126 173.924C9.88892 174.886 9.68976 175.871 9.50304 176.868C9.39101 177.474 9.26653 178.079 9.1296 178.684C9.07981 178.91 9.03002 179.183 8.94288 179.444C7.9595 179.124 6.96367 178.815 5.99273 178.459C5.38278 178.257 4.78528 178.031 4.18778 177.794Z" fill="#FBB03B"/>
<path d="M156.893 46.2163C154.976 44.6375 152.611 43.8659 150.184 43.308C149.574 42.9637 148.864 43.2011 148.478 43.7353C147.644 44.8987 146.972 46.157 146.375 47.439C146.051 48.1513 145.74 48.8636 145.429 49.5877C145.142 50.2643 144.744 50.9647 144.956 51.7244C145.205 52.591 146.026 52.8996 146.81 53.2083C147.532 53.4932 148.254 53.7781 148.989 54.0511C150.483 54.6091 151.989 55.1195 153.52 55.5825C153.906 55.7012 154.466 55.5825 154.727 55.2738C155.661 54.1698 155.897 52.7691 156.159 51.4039C156.42 50.0388 156.669 48.6736 157.204 47.3678C157.366 47.0117 157.204 46.4656 156.893 46.2163ZM148.528 51.3208C148.229 51.2021 147.931 51.0834 147.632 50.9647C147.607 50.9528 147.582 50.941 147.557 50.9291C147.744 50.5255 147.893 50.0744 148.055 49.6945C148.279 49.1603 148.516 48.638 148.765 48.1157C149.163 47.2966 149.624 46.5012 150.109 45.7178C151.665 46.0976 153.234 46.5725 154.553 47.4509C154.229 48.4125 154.03 49.3977 153.843 50.3949C153.731 51.0003 153.607 51.6057 153.47 52.2111C153.42 52.4367 153.37 52.7097 153.283 52.9709C152.3 52.6504 151.304 52.3417 150.333 51.9856C149.723 51.7838 149.126 51.5582 148.528 51.3208Z" fill="#FBB03B"/>
<path d="M193.037 296.193C193.403 293.728 192.84 291.322 192.062 288.979C192.042 288.28 191.47 287.811 190.81 287.775C189.376 287.702 187.944 287.816 186.53 288.006C185.749 288.119 184.974 288.242 184.19 288.371C183.459 288.496 182.649 288.539 182.105 289.128C181.488 289.805 181.648 290.663 181.789 291.489C181.918 292.25 182.047 293.012 182.193 293.777C182.487 295.335 182.829 296.877 183.224 298.415C183.322 298.804 183.715 299.211 184.116 299.264C185.551 299.453 186.879 298.895 188.19 298.378C189.501 297.86 190.805 297.332 192.207 297.077C192.598 297.021 192.984 296.59 193.037 296.193ZM184.305 291.915C184.252 291.599 184.199 291.284 184.147 290.968C184.144 290.941 184.141 290.914 184.138 290.886C184.583 290.825 185.049 290.707 185.46 290.638C186.036 290.538 186.608 290.455 187.187 290.382C188.099 290.275 189.022 290.233 189.949 290.218C190.428 291.732 190.833 293.307 190.761 294.892C189.765 295.139 188.814 295.504 187.858 295.885C187.279 296.118 186.693 296.34 186.101 296.552C185.881 296.632 185.62 296.738 185.35 296.806C185.116 295.805 184.865 294.801 184.668 293.792C184.526 293.17 184.41 292.545 184.305 291.915Z" fill="#DCDCDC"/>
<path d="M75.9153 221.308C76.2806 218.843 75.7185 216.437 74.9401 214.094C74.9202 213.395 74.3478 212.926 73.6878 212.89C72.2537 212.817 70.8218 212.931 69.4081 213.121C68.6271 213.234 67.8525 213.357 67.0676 213.486C66.3366 213.611 65.527 213.654 64.9827 214.242C64.3657 214.92 64.526 215.778 64.6669 216.604C64.796 217.365 64.9251 218.126 65.0709 218.892C65.3651 220.449 65.7067 221.992 66.1021 223.53C66.2 223.919 66.5926 224.326 66.9939 224.379C68.4286 224.568 69.7572 224.01 71.0681 223.493C72.379 222.975 73.6835 222.447 75.0853 222.192C75.4758 222.136 75.8621 221.705 75.9153 221.308ZM67.1828 217.029C67.13 216.714 67.0773 216.398 67.0246 216.083C67.0219 216.056 67.0192 216.028 67.0165 216.001C67.4609 215.94 67.9267 215.822 68.3377 215.753C68.9138 215.653 69.4861 215.57 70.0649 215.497C70.9767 215.39 71.9003 215.347 72.8266 215.332C73.3064 216.846 73.7109 218.422 73.6389 220.007C72.6432 220.254 71.6916 220.618 70.7362 221C70.1569 221.233 69.5711 221.455 68.9789 221.667C68.7589 221.747 68.498 221.853 68.2279 221.92C67.9939 220.92 67.7433 219.916 67.5464 218.907C67.4038 218.285 67.2882 217.66 67.1828 217.029Z" fill="#00A99D"/>
<path d="M58.5945 23.278C58.9597 20.8127 58.3976 18.4065 57.6193 16.0634C57.5994 15.3644 57.027 14.8958 56.367 14.8598C54.9329 14.7867 53.501 14.901 52.0873 15.0909C51.3062 15.2034 50.5316 15.3264 49.7468 15.4558C49.0158 15.5805 48.2062 15.6238 47.6618 16.2121C47.0448 16.8896 47.2051 17.7474 47.3461 18.5738C47.4752 19.3349 47.6043 20.0961 47.75 20.8614C48.0443 22.4192 48.3859 23.9618 48.7812 25.4998C48.8791 25.8885 49.2718 26.2955 49.6731 26.3487C51.1077 26.5376 52.4364 25.9799 53.7473 25.4624C55.0582 24.9449 56.3627 24.4169 57.7645 24.1617C58.155 24.1055 58.5412 23.6744 58.5945 23.278ZM49.8619 18.9991C49.8092 18.6837 49.7565 18.3683 49.7038 18.0529C49.7011 18.0255 49.6984 17.9982 49.6957 17.9708C50.14 17.9099 50.6059 17.7919 51.0168 17.7228C51.5929 17.6227 52.1653 17.5395 52.7441 17.4668C53.6559 17.3594 54.5795 17.3171 55.5058 17.3023C55.9856 18.8163 56.3901 20.3921 56.318 21.9764C55.3223 22.2236 54.3708 22.5883 53.4154 22.9699C52.8361 23.2026 52.2503 23.425 51.658 23.6368C51.438 23.7168 51.1771 23.8224 50.9071 23.8901C50.6731 22.8899 50.4224 21.8855 50.2256 20.8764C50.083 20.2544 49.9674 19.63 49.8619 18.9991Z" fill="#DCDCDC"/>
<path d="M193.862 78.194C194.227 75.7287 193.665 73.3226 192.887 70.9794C192.867 70.2804 192.295 69.8119 191.635 69.7758C190.2 69.7027 188.769 69.817 187.355 70.007C186.574 70.1195 185.799 70.2424 185.014 70.3718C184.283 70.4965 183.474 70.5398 182.929 71.1282C182.312 71.8057 182.473 72.6634 182.614 73.4898C182.743 74.251 182.872 75.0122 183.018 75.7774C183.312 77.3352 183.653 78.8779 184.049 80.4158C184.147 80.8045 184.539 81.2116 184.941 81.2647C186.375 81.4537 187.704 80.896 189.015 80.3784C190.326 79.8609 191.63 79.3329 193.032 79.0778C193.423 79.0215 193.809 78.5905 193.862 78.194ZM185.129 73.9152C185.077 73.5998 185.024 73.2843 184.971 72.9689C184.969 72.9416 184.966 72.9142 184.963 72.8869C185.408 72.8259 185.873 72.7079 186.284 72.6388C186.861 72.5387 187.433 72.4555 188.012 72.3828C188.923 72.2754 189.847 72.2332 190.773 72.2183C191.253 73.7323 191.658 75.3081 191.586 76.8925C190.59 77.1396 189.638 77.5043 188.683 77.8859C188.104 78.1187 187.518 78.341 186.926 78.5529C186.706 78.6328 186.445 78.7384 186.175 78.8062C185.941 77.8059 185.69 76.8015 185.493 75.7925C185.351 75.1704 185.235 74.546 185.129 73.9152Z" fill="#00A99D"/>
</svg>
