<svg width="77" height="61" viewBox="0 0 77 61" fill="none" xmlns="http://www.w3.org/2000/svg">
<path d="M25.727 49.774C21.1209 45.4919 17.3012 40.3083 14.8297 34.5612C14.3803 33.4344 13.2568 32.6456 12.0211 32.9836C10.8976 33.3217 9.88659 34.6739 10.4483 35.8008C11.6841 38.8434 13.2569 41.6605 15.0544 44.365C13.7062 45.2665 12.3581 46.168 11.01 47.0695C11.01 47.0695 11.01 47.0695 10.8976 47.0695C9.66186 45.7173 8.31374 44.365 6.96562 43.1255C6.06688 42.3367 5.28047 41.5478 4.15704 41.2098C2.92126 40.759 1.57317 40.9844 0.674426 41.8859C-0.22432 42.6747 -0.22432 44.365 0.674426 45.1538C1.34849 45.7173 2.2472 45.9426 3.03361 45.7173C3.14595 45.83 3.25828 45.9426 3.37062 46.0553C4.04468 46.6188 4.60644 47.1822 5.16816 47.7456C6.40393 48.8725 7.52737 50.1121 8.53846 51.3516C9.10017 51.9151 9.66185 52.5912 10.1112 53.2673C10.5606 53.8307 10.7853 54.1688 11.347 54.8449C12.3581 56.1972 13.2569 57.6621 14.1556 59.127C14.7173 60.1412 16.2901 60.592 17.3012 59.9159C18.3123 59.2397 18.7617 57.8875 18.0876 56.7606C16.8519 54.6196 15.3914 52.5912 13.9309 50.6755C15.0544 49.8867 16.2901 49.0979 17.4135 48.3091C17.5259 48.1964 17.7506 48.0837 17.8629 47.971C19.3234 49.774 20.8962 51.4643 22.5814 52.9293C23.4801 53.7181 24.9405 53.8307 25.8393 52.9293C26.5133 52.1404 26.6257 50.5628 25.727 49.774Z" fill="#1E1E1E"/>
<path d="M40.4438 39.9702C39.2081 39.5195 37.9723 40.0829 37.4106 41.2098C37.6353 40.8717 37.4106 41.2098 37.2982 41.3225C37.1859 41.4352 36.7365 41.6605 36.7365 41.6605C36.1748 41.9986 35.5008 42.224 34.9391 42.4493C33.3662 43.0128 32.3551 43.4635 30.7823 43.5762C30.67 43.5762 30.67 43.5762 30.67 43.5762H30.5576C30.3329 43.5762 30.2206 43.5762 30.1083 43.4635C29.996 43.4635 29.8836 43.4635 29.6589 43.3508H29.5466C29.4342 43.2382 29.2095 43.2382 29.0972 43.1255C29.0972 43.1255 28.9848 43.0128 28.8725 43.0128C28.6478 42.9001 28.4231 42.6747 28.1984 42.4493C28.1984 42.4493 28.0861 42.4493 28.0861 42.3367C27.9737 42.224 27.9738 42.224 27.8614 42.1113C27.6367 41.8859 27.5244 41.6605 27.2997 41.4352C27.2997 41.3225 27.1873 41.2098 27.1873 41.2098C27.1873 41.0971 27.075 41.0971 27.075 40.9844C26.9627 40.6464 26.8503 40.421 26.738 40.0829C26.738 39.9702 26.738 39.9702 26.6256 39.8575V39.7449C26.6256 39.4068 26.5133 39.0687 26.5133 38.7307C26.5133 38.618 26.5133 38.2799 26.5133 38.1672C26.5133 37.8292 26.6256 37.3784 26.6256 37.0404C26.6256 36.9277 26.6256 36.9277 26.6256 36.815C26.6256 36.815 26.6256 36.815 26.6256 36.7023C26.6256 36.5896 26.738 36.3642 26.8503 36.2516C26.9627 36.1389 26.9627 35.9135 27.075 35.8008C27.075 35.8008 27.075 35.8008 27.075 35.6881C27.1874 35.4627 27.412 35.3501 27.5243 35.1247L27.6367 35.012C27.7491 34.8993 27.9737 34.7866 28.0861 34.6739C28.1984 34.5612 28.3108 34.5612 28.4231 34.4486C28.6478 34.3359 28.8725 34.2232 29.2095 34.1105C29.5465 33.9978 29.7713 33.8851 30.1083 33.7724C30.1083 33.7724 30.1083 33.7724 30.2206 33.7724C30.4453 33.7724 30.5576 33.6597 30.7823 33.6597C31.344 33.5471 31.9058 33.5471 32.4675 33.5471C32.5798 33.5471 32.6922 33.5471 32.8045 33.5471C33.0292 33.5471 33.1415 33.5471 33.3662 33.6597C33.4786 33.6597 33.5909 33.6597 33.7032 33.7724C33.7032 33.7724 33.928 33.8851 34.0403 33.8851C34.0403 33.8851 34.0403 33.8851 34.1526 33.8851C34.1526 33.8851 34.1526 33.8851 34.2649 33.8851C34.2649 33.8851 34.265 33.8851 34.3773 33.9978V34.1105C34.3773 34.1105 34.3773 34.1105 34.3773 34.2232C34.3773 34.3359 34.3773 34.3359 34.3773 34.4486C34.3773 34.5612 34.3773 34.7866 34.3773 34.8993C34.3773 34.8993 34.3773 34.8993 34.3773 35.012C34.265 35.2374 34.265 35.3501 34.1526 35.5754C34.1526 35.5754 34.1527 35.6881 34.0403 35.6881C33.928 35.8008 33.8156 36.0262 33.5909 36.1389L33.3662 36.3642C33.2539 36.4769 33.0292 36.5896 32.9169 36.7023C32.4675 37.0404 31.6811 37.3784 30.8946 37.7165C29.7712 38.1672 29.0972 39.6322 29.6589 40.759C30.2206 41.8859 31.4564 42.4493 32.6922 41.9986C34.602 41.2098 36.6242 40.0829 37.86 38.2799C38.9834 36.4769 39.4328 34.1105 38.5341 32.1948C36.6242 28.2508 31.007 28.5888 27.5243 30.0538C25.6145 30.8426 24.0417 32.1948 23.0306 33.9978C22.0195 35.6881 21.7949 37.9419 22.0196 39.8575C22.5813 43.6889 25.1652 47.1822 28.9849 48.0837C31.4564 48.6471 33.928 47.971 36.2872 47.0695C38.5341 46.2807 40.6685 45.2665 41.792 43.0128C42.129 41.9986 41.4549 40.421 40.4438 39.9702Z" fill="#1E1E1E"/>
<path d="M49.7684 36.815C45.2747 28.3635 39.8822 20.4754 33.8157 13.038C33.0293 12.1365 31.3441 12.2492 30.5577 13.038C29.6589 13.9395 29.7713 15.2918 30.5577 16.3059C36.3995 23.4052 41.5674 30.9553 45.8364 39.0687C47.1845 41.7732 51.1165 39.4068 49.7684 36.815Z" fill="#1E1E1E"/>
<path d="M56.9583 33.8851C52.3522 25.2082 46.398 17.2074 40.4438 9.31929C39.6574 8.3051 38.4216 7.85435 37.2982 8.53048C36.2871 9.09391 35.7254 10.6715 36.5118 11.6857C42.466 19.5738 48.3079 27.5746 53.0263 36.2515C54.3744 38.8433 58.3064 36.4769 56.9583 33.8851Z" fill="#1E1E1E"/>
<path d="M70.5518 9.54469C68.5297 8.07976 65.9457 7.51632 63.4742 7.7417C62.1261 7.85438 60.7779 8.07976 59.5422 8.75588C58.5311 9.432 57.7447 10.4462 57.183 11.5731C56.6213 11.5731 55.9472 11.7984 55.4978 12.2492C52.3522 15.2917 52.4646 20.4753 54.9361 23.856C57.52 27.3493 61.7891 29.2649 66.0581 28.5888C70.1025 27.9127 73.5851 24.6448 74.5962 20.7007C75.8319 16.5313 74.0345 12.0238 70.5518 9.54469ZM70.4395 18.5597C70.4395 18.5597 70.4395 18.8977 70.4395 19.0104C70.3271 19.3485 70.3271 19.5738 70.2148 19.9119C70.2148 20.1373 70.1025 20.25 69.9901 20.3627C69.9901 20.3627 69.9901 20.3627 69.8778 20.4753C69.5407 21.1515 69.2037 21.7149 68.7543 22.053C68.5296 22.2783 68.305 22.5037 68.0803 22.7291C67.9679 22.8418 67.8556 22.8418 67.8556 22.9545C67.8556 22.9545 67.6309 23.0671 67.6309 23.1798C67.2939 23.4052 67.0692 23.5179 66.7322 23.7433C66.6198 23.7433 66.6198 23.7433 66.6198 23.856C66.3952 23.9686 66.1705 23.9686 66.0581 24.0813C65.8334 24.0813 65.7211 24.194 65.4964 24.194C65.4964 24.194 65.2717 24.194 65.1593 24.3067C64.9346 24.3067 64.5977 24.3067 64.373 24.3067C64.1483 24.3067 64.0359 24.3067 63.8113 24.3067C63.8113 24.3067 63.5865 24.3067 63.4742 24.3067C63.1371 24.3067 62.8002 24.194 62.4631 24.0813C61.6767 23.856 61.5644 23.856 60.8903 23.4052C60.2162 22.9545 59.9916 22.8418 59.3175 22.1657C59.2052 22.053 59.0928 21.9403 58.9805 21.8276C58.8681 21.7149 58.8681 21.7149 58.8681 21.7149C58.8681 21.7149 58.8682 21.6022 58.7558 21.6022C58.5311 21.2642 58.3065 20.9261 58.1941 20.588C58.1941 20.588 58.1941 20.4753 58.0817 20.4753C57.9694 20.25 57.9694 20.0246 57.857 19.9119C57.857 19.6865 57.7447 19.5738 57.7447 19.3485C57.7447 19.2358 57.7447 19.1231 57.6324 19.0104C57.6324 18.5597 57.6324 18.2216 57.6324 17.7709V17.6582C57.6324 17.4328 57.7447 17.3201 57.7447 17.0947C57.7447 16.982 57.857 16.8694 57.857 16.7567C57.857 16.7567 57.9694 16.4186 58.0817 16.4186C58.0817 16.4186 58.1941 16.1932 58.3064 16.0805C58.4188 15.9679 58.5311 15.8552 58.6434 15.7425C59.5422 15.8552 60.441 15.4044 60.778 14.6156C61.115 13.9395 61.3397 13.2634 61.789 12.9253C62.1261 12.6999 62.6878 12.5872 63.3619 12.4746C64.1483 12.3619 65.047 12.3619 65.721 12.5872C66.0581 12.6999 66.3952 12.6999 66.6198 12.8126H66.7322C66.7322 12.8126 66.7321 12.8126 66.8445 12.8126C67.0692 12.9253 67.2938 13.038 67.4062 13.1507C68.3049 13.7141 69.0914 14.6156 69.7654 15.7425C69.7654 15.7425 69.8778 15.9679 69.8778 16.0805C69.8778 16.1932 69.9901 16.5313 69.9901 16.4186C70.1025 16.7567 70.1024 16.982 70.2148 17.3201V17.4328C70.2148 17.4328 70.2148 17.4328 70.2148 17.5455C70.2148 17.7709 70.2148 17.8835 70.2148 18.1089C70.4395 18.2216 70.4395 18.3343 70.4395 18.5597Z" fill="#1E1E1E"/>
<path d="M75.9444 4.69913C73.1358 2.3327 69.7655 1.20583 66.2829 0.0789609C65.1594 -0.259101 63.699 0.52971 63.4743 1.65658C63.1372 2.89614 63.8113 4.1357 65.0471 4.47376C66.5076 4.92451 67.9681 5.37526 69.4285 5.93869C69.4285 5.93869 69.5408 5.93869 69.5408 6.05138C69.7655 6.16407 69.8779 6.16407 70.1026 6.27676C70.4396 6.38944 70.7766 6.61482 71.1137 6.84019C71.4507 7.06557 71.7877 7.29094 72.1247 7.40363C72.2371 7.51631 72.3494 7.629 72.5741 7.74169L72.6864 7.85438C73.5852 8.64319 75.0457 8.86856 75.9444 7.85438C76.7308 7.06557 76.9555 5.48794 75.9444 4.69913Z" fill="#00A99D"/>
<path d="M10.7853 57.2113C9.66183 55.1829 7.97666 53.718 6.40386 52.1404C5.95448 51.6896 5.39281 51.4642 4.83109 51.4642C4.26938 51.4642 3.59529 51.6896 3.25826 52.1404C2.80889 52.5911 2.58423 53.1545 2.58423 53.718C2.58423 54.2814 2.80889 54.9575 3.25826 55.2956C4.26935 56.3098 5.39279 57.2113 6.29154 58.3382C6.51623 58.6762 6.74088 59.0143 6.96557 59.3523C7.19026 59.8031 7.75199 60.2538 8.3137 60.3665C8.87542 60.4792 9.54945 60.4792 10.1112 60.1412C11.0099 59.6904 11.4593 58.3382 10.7853 57.2113Z" fill="#00A99D"/>
<path d="M65.6089 35.012C65.2718 33.8852 64.0361 33.0964 62.8003 33.4344C61.6768 33.7725 60.7781 35.1247 61.2274 36.2516C61.5645 37.3785 62.0139 38.618 62.1262 39.8576C62.1262 40.1957 62.1262 40.421 62.1262 40.7591C62.1262 40.8718 62.1262 41.3225 62.1262 41.3225C62.0139 41.7733 61.9015 42.224 61.7892 42.6748C61.7892 42.7875 61.7892 42.7875 61.7892 42.9001C61.7892 42.9001 61.7892 43.0128 61.6768 43.0128C61.5645 43.2382 61.4522 43.4636 61.3398 43.689C61.2275 43.9143 61.1152 44.1397 61.0028 44.2524C60.7781 44.4778 60.7781 44.5905 60.6657 44.7031C60.3287 45.1539 59.9917 45.492 59.5423 45.83C59.2053 46.1681 59.2053 46.1681 58.6436 46.5061C57.7448 47.0696 57.2954 47.2949 56.3967 47.633C55.2733 47.9711 54.9363 48.0838 53.7005 47.9711C52.6894 47.9711 52.3523 47.8584 51.3412 47.5203C51.2289 47.5203 51.2289 47.5203 51.2289 47.5203C51.2289 47.5203 51.2289 47.5203 51.1165 47.4076C50.8919 47.2949 50.6672 47.1823 50.5548 47.0696C50.4425 46.9569 50.3302 46.9569 50.2178 46.8442C49.9931 46.6188 49.7684 46.5061 49.6561 46.2808C48.7573 45.3793 47.2969 45.3793 46.3982 46.2808C45.4994 47.1823 45.4994 48.6472 46.3982 49.5487C50.1055 53.6054 56.7337 53.3801 61.1151 50.5629C63.4743 48.9853 65.3841 46.8442 66.2829 44.2524C67.1816 41.0972 66.6199 37.9419 65.6089 35.012Z" fill="#1E1E1E"/>
</svg>
