<svg width="124" height="89" viewBox="0 0 124 89" fill="none" xmlns="http://www.w3.org/2000/svg">
<path d="M84.0177 26.3889C82.0787 21.7067 75.8898 21.0632 72.3744 24.2231C71.2404 25.2424 70.5041 26.4876 70.1177 27.8153C70.0914 27.8713 70.0485 27.922 70.0281 27.989C69.9451 28.2013 69.8896 28.4132 69.8284 28.6141C69.7862 28.6925 69.7273 28.7657 69.6909 28.8552C69.6341 29.0116 69.583 29.179 69.5262 29.3354C69.2632 30.0782 69.1896 30.8898 69.347 31.6639C69.3562 31.8135 69.3597 31.9522 69.3792 32.0684C69.4246 32.3395 69.588 32.9137 69.6937 33.1671C69.7871 33.3708 69.8727 33.4802 70.0111 33.7163C70.2988 34.1829 70.6237 34.5877 71.0684 34.9293C71.1866 35.0216 71.3042 35.086 71.4326 35.1448C71.603 35.3359 71.7953 35.5156 71.9926 35.6786C72.3218 36.0389 72.6671 36.3768 73.0668 36.6859C74.1644 37.5263 75.6086 37.6502 76.8508 37.2061C76.9445 37.1989 77.0273 37.1974 77.1209 37.1902C81.846 36.4837 85.998 31.1758 84.0177 26.3889Z" fill="#FBB03B"/>
<path d="M88.661 44.7352C88.6719 44.7294 88.661 44.7352 88.661 44.7352C88.6777 44.7403 88.6834 44.7512 88.6834 44.7512C88.6776 44.7403 88.661 44.7352 88.6496 44.7134C88.6553 44.7243 88.661 44.7352 88.661 44.7352Z" fill="#1E1E1E"/>
<path d="M104.75 46.9601C105.252 53.5661 106.171 60.2756 107.474 66.8949C107.481 66.9614 107.488 67.0278 107.495 67.0943C107.608 67.625 107.513 68.2372 107.193 68.6869C106.905 69.1194 106.448 69.3884 105.909 69.4758L105.882 69.4763L80.7655 73.0078C79.3238 73.2057 77.8793 73.5036 76.4731 73.7952C75.4076 74.0197 74.3362 74.2332 73.2642 74.419C73.0333 74.4564 72.7915 74.4996 72.5605 74.5371C70.2393 74.8896 67.7747 75.0227 65.2224 74.9631C64.5042 74.9483 63.8513 74.4494 63.5458 73.7113C63.207 73.4122 62.9701 72.9891 62.8806 72.5024C62.2113 68.6963 61.5471 64.8736 60.9163 61.0613C60.3698 57.7525 59.8234 54.4437 59.2987 51.1235C58.7662 47.709 58.4959 44.1844 58.2636 41.0753C57.7618 34.4693 56.8432 27.7598 55.5404 21.1405C55.5223 21.0798 55.5152 21.0133 55.5189 20.9411C55.4062 20.4104 55.5181 19.8035 55.8323 19.3427C56.1197 18.9103 56.5767 18.6412 57.1214 18.5649L57.149 18.5644L82.2652 15.0329C83.6959 14.8407 85.1515 14.5371 86.5467 14.2512C87.6122 14.0267 88.6835 13.8132 89.7664 13.6217C92.2845 13.1935 95.0019 13.0114 97.8084 13.0775C98.5265 13.0924 99.1794 13.5912 99.485 14.3293C99.8237 14.6285 100.061 15.0515 100.15 15.5383C100.825 19.3553 101.484 23.1671 102.114 26.9794C102.661 30.2881 103.207 33.5969 103.732 36.9172C104.259 40.3206 104.518 43.851 104.75 46.9601ZM80.0281 53.8808C80.0587 53.7803 80.0726 53.6747 80.1032 53.5742C78.4988 51.4554 76.3304 49.7463 73.6143 50.6442C71.884 51.2191 70.2939 52.3243 68.8411 53.3993C67.3613 54.5025 65.973 55.7261 64.6868 57.0645C64.5952 57.1549 64.4869 57.2401 64.3779 57.2976C65.1133 61.7572 65.8782 66.2997 66.6824 70.8635C69.3873 70.8427 72.1507 70.51 75.0988 69.841C75.6973 69.7081 76.3125 69.5805 76.9226 69.4697C76.7365 69.0901 76.6542 68.6698 76.7375 68.2465C77.6996 63.44 78.7945 58.6478 80.0281 53.8808ZM101.667 56.1445C101.475 54.644 101.316 53.1263 101.173 51.6139C100.96 51.4734 100.751 51.2885 100.568 51.0476C99.7561 49.9301 98.9333 48.8183 98.1214 47.7008C97.0179 49.2801 95.2404 50.3997 93.3216 50.7228C90.699 51.1639 88.1964 50.2211 86.1847 48.598C85.2579 51.2784 84.667 54.147 83.9943 56.834C82.9999 60.7864 82.1056 64.7704 81.3057 68.7749C81.9659 68.6798 82.6318 68.5957 83.2811 68.5063L103.187 65.7122C102.575 62.4379 102.064 59.2229 101.667 56.1445ZM94.6841 43.8224C94.6851 43.6393 94.7252 43.4776 94.7762 43.3102C94.4368 42.9834 94.0864 42.6622 93.6779 42.4421C91.6511 41.3187 89.6032 42.6652 88.2811 44.3316C88.3152 44.3698 88.3544 44.3913 88.3885 44.4295C88.3943 44.4405 88.5531 44.6097 88.6604 44.7077C88.5814 44.637 88.4914 44.572 88.6662 44.7187C88.7003 44.7569 88.7286 44.7841 88.7286 44.7841C88.7286 44.7841 88.717 44.7621 88.6887 44.7349C88.8694 44.8926 89.0667 45.0555 89.2524 45.1965C89.4549 45.3427 89.6681 45.4831 89.8757 45.6126C89.9816 45.6551 90.0825 45.7143 90.1775 45.7626C90.412 45.8638 90.6406 45.954 90.8801 46.0385C90.9135 46.049 90.9135 46.049 90.936 46.0653C91.0413 46.08 91.1414 46.1115 91.2467 46.1263C91.5182 46.1658 91.784 46.1943 92.0548 46.2061C92.0657 46.2003 92.0657 46.2003 92.0766 46.1946C92.1921 46.1758 92.3134 46.1681 92.4347 46.1604C92.5777 46.1412 92.7259 46.1052 92.8798 46.0802C92.9568 46.0678 92.9954 46.0615 93.0121 46.0667C93.2307 45.9796 93.5359 45.8187 93.6122 45.7785C93.7045 45.7158 93.8178 45.6139 93.8396 45.6024C93.9101 45.5512 93.9749 45.489 94.0396 45.4267C94.1022 45.2813 94.2905 45.0837 94.4032 44.9541C94.3974 44.9431 94.5087 44.7579 94.5349 44.702C94.5713 44.6125 94.5968 44.5288 94.6333 44.4394C94.6393 44.2395 94.673 44.0391 94.6841 43.8224ZM99.5634 36.2485C98.5687 30.0287 97.4973 23.6105 96.3643 17.1546C93.6594 17.1755 90.8961 17.5082 87.9479 18.1772C85.2357 18.792 82.4513 19.1639 79.7663 19.5396L59.8603 22.3337C60.4714 25.5802 60.9824 28.7953 61.3744 31.8904C61.7391 34.7752 62 37.7006 62.2421 40.5376C62.5608 44.2334 62.8939 48.0621 63.4783 51.7864C63.4841 51.7974 63.479 51.8142 63.4906 51.8361C64.565 50.8623 65.7017 49.954 66.8957 49.1278C68.8717 47.7771 70.9435 46.5023 73.299 45.9771C76.3242 45.2957 79.1794 46.432 81.447 48.3557C82.1688 45.8677 83.091 43.4426 84.6372 41.4614C87.1302 38.2644 91.6629 36.2684 95.5389 38.2576C97.3175 39.1746 98.6417 40.6825 99.8241 42.265C100.018 42.5279 100.213 42.7908 100.407 43.0537C100.185 40.7824 99.9288 38.5005 99.5634 36.2485Z" fill="#1E1E1E"/>
<path d="M74.4779 33.9468C74.6644 33.9042 74.6202 33.8996 74.4779 33.9468V33.9468Z" fill="#1E1E1E"/>
<path d="M80.8009 34.2105C79.5759 36.6688 77.0598 38.5009 74.2749 38.6343C71.0986 38.7912 68.1416 37.1185 66.7328 34.2081C65.4398 31.5177 65.8781 28.0691 67.8885 25.8853C68.4259 25.2929 69.1022 24.9645 69.8037 24.9741C69.9682 24.0443 70.807 23.3633 71.7171 23.1083C74.6394 22.2844 78.1822 23.5359 79.9779 26.0176C81.659 28.3348 82.0995 31.6011 80.8009 34.2105ZM76.8866 31.5672C76.8954 31.4782 76.9209 31.3945 76.9246 31.3223C76.9392 31.2444 76.978 31.0272 76.9906 30.8661C76.979 30.8441 76.984 30.8274 76.9659 30.7666C76.9523 30.6614 76.9438 30.5395 76.9301 30.4343C76.8969 30.2129 76.8529 29.9973 76.803 29.7706C76.803 29.7706 76.803 29.7706 76.7972 29.7597C76.7915 29.7487 76.7857 29.7377 76.7799 29.7267C76.7386 29.622 76.6974 29.5173 76.6561 29.4126C76.6206 29.3188 76.4089 29.023 76.3721 28.8738C76.3039 28.7973 76.2466 28.7151 76.1894 28.6329C76.1212 28.5565 76.0472 28.469 75.9791 28.3925C75.9392 28.3433 75.9276 28.3213 75.9218 28.3103C75.781 28.2019 75.5736 28.0724 75.4952 28.0294C75.4335 27.9917 75.3718 27.9539 75.3101 27.9162C75.1149 27.8365 74.9248 27.74 74.7353 27.6713C74.6852 27.6555 74.6294 27.6288 74.5684 27.6188C74.3535 27.6337 74.0413 27.5173 73.8366 27.4987C73.7313 27.484 73.6209 27.486 73.5215 27.4822C73.162 27.4609 73.6536 27.4687 73.6594 27.4797C73.5732 27.3425 72.554 27.655 72.4059 27.6909C72.2635 27.7379 72.1255 27.7404 71.9875 27.7429C71.9298 28.0824 71.8052 28.401 71.574 28.6493C71.3806 28.8637 71.1981 29.0723 71.0438 29.3081C70.9958 29.3756 70.9536 29.454 70.9056 29.5215C70.9005 29.5382 70.9057 29.5215 70.9006 29.5382C70.8802 29.6052 70.8539 29.6612 70.8437 29.6946C70.7862 29.8233 70.7345 29.963 70.6936 30.0969C70.6885 30.1137 70.6835 30.1304 70.6674 30.1529C70.6528 30.2308 70.6069 30.3815 70.6025 30.426C70.5885 30.5317 70.5696 30.6541 70.5614 30.7708C70.5475 30.8765 70.5503 30.9874 70.5472 31.0873C70.5848 31.2643 70.5414 31.7368 70.6719 31.8787C70.5822 31.6028 70.5641 31.5421 70.6235 31.7075C70.6532 31.7902 70.6828 31.8729 70.7125 31.9557C70.7537 32.0604 70.8008 32.176 70.8588 32.286C70.9059 32.4017 70.9747 32.5059 71.0327 32.6158C71.2089 32.818 71.3524 33.0374 71.5395 33.2338C71.5453 33.2448 71.5453 33.2448 71.5511 33.2558C71.6244 33.3155 71.7368 33.3968 71.7651 33.424C71.855 33.489 71.9559 33.5482 72.0517 33.6242C72.1249 33.6839 72.1641 33.7054 72.1866 33.7216C72.3485 33.7909 72.5546 33.8649 72.6047 33.8806C72.6214 33.8859 72.7941 33.9494 72.9277 33.9913C72.9553 33.9909 72.972 33.9961 73.0162 34.0009C73.2377 34.0246 73.4649 34.0594 73.6864 34.0831C73.7031 34.0884 73.7031 34.0884 73.714 34.0826C73.7416 34.0821 73.7525 34.0764 73.7801 34.0759C73.995 34.0609 74.1984 34.024 74.4017 33.987C74.4293 33.9866 74.4402 33.9808 74.462 33.9693C74.4293 33.9866 74.3908 33.9928 74.3473 34.0158C74.4344 33.9698 74.5608 33.9453 74.6429 33.9161C74.8398 33.8404 75.0309 33.7537 75.222 33.6671C75.2329 33.6613 75.3041 33.6378 75.3804 33.5976C75.3912 33.5919 75.3912 33.5919 75.3963 33.5752C75.57 33.4555 75.7379 33.3248 75.9 33.1832C75.9756 33.1152 76.0614 33.0138 76.1588 32.9343C76.1588 32.9343 76.1588 32.9343 76.1697 32.9286C76.2869 32.7544 76.4206 32.5856 76.5377 32.4114C76.5429 32.3947 76.5538 32.3889 76.5647 32.3832C76.596 32.3105 76.6164 32.2435 76.6324 32.221C76.6535 32.1818 76.7606 31.8303 76.8174 31.6739C76.7926 31.7853 76.7801 31.9465 76.8328 31.6236C76.8437 31.6179 76.843 31.5902 76.843 31.5902C76.8975 31.5614 76.8866 31.5672 76.8866 31.5672Z" fill="#1E1E1E"/>
<path d="M76.855 31.6396C76.8653 31.6063 76.8653 31.6063 76.8704 31.5896C76.8647 31.5787 76.8756 31.573 76.8756 31.573C76.8705 31.5896 76.8653 31.6063 76.855 31.6396Z" fill="#1E1E1E"/>
<path d="M31.2116 13.7473C29.0002 14.0701 27.0515 15.6312 26.3097 17.7645C25.5374 19.9982 26.1318 22.1296 27.4649 23.998C28.0086 24.7651 28.9077 25.1763 29.8661 25.3034C30.3966 25.5436 30.9643 25.722 31.5683 25.8111C33.7848 26.1319 36.0756 25.0086 37.2934 23.1443C38.5003 21.2857 38.5882 18.8368 37.4904 16.8865C36.2194 14.634 33.7644 13.3851 31.2116 13.7473Z" fill="#FBB03B"/>
<path d="M10.9566 38.8123L10.1802 41.9895C9.91459 43.0709 11.2873 44.0895 12.1756 43.846C12.9325 43.6437 13.7067 43.4744 14.4984 43.3381C14.4425 43.9717 14.3865 44.6054 14.2972 45.2285C14.1566 46.2299 15.3641 47.4902 16.2926 47.085C16.6311 46.9347 16.9871 46.8173 17.3546 46.7219C17.3193 47.7381 17.4008 48.791 17.621 49.8692C17.8217 50.8312 18.761 51.7411 19.6247 51.3981C20.166 51.1831 20.7246 51.001 21.2948 50.8409C21.1976 51.3699 21.1062 51.9098 21.0372 52.466C20.9368 53.3058 21.7957 54.539 22.7305 54.3835C23.4342 54.2654 24.1271 54.153 24.8309 54.0349C24.7515 54.8355 24.6663 55.625 24.5869 56.4256C24.4892 57.3763 25.3196 58.3436 26.2802 58.343C26.904 58.3373 27.3907 58.151 27.8587 57.8762C27.8389 58.6313 27.9251 59.4289 28.1281 60.2632C28.3305 61.0698 29.458 61.7821 30.0626 61.4493C31.0326 60.938 31.9968 60.4157 32.9668 59.9043C34.231 59.2379 32.7818 56.7 31.5067 57.3722C31.1579 57.5561 30.82 57.7342 30.4713 57.9181C30.5457 57.5838 30.6368 57.2547 30.7839 56.9524C31.1202 56.2693 30.6545 55.3065 29.8322 54.8829C28.9875 54.443 28.1757 54.4354 27.4587 54.6869C27.4369 54.6984 27.4261 54.7041 27.4043 54.7156C27.4616 54.1375 27.5298 53.5535 27.5871 52.9754C27.6767 52.1413 26.8286 50.9024 25.8939 51.0579C25.2395 51.164 24.5851 51.2701 23.9307 51.3763C24.0483 50.7803 24.1994 50.1949 24.3671 49.6147C24.6114 48.7835 23.5156 47.5767 22.6739 47.6973C21.7276 47.8308 20.8102 48.0194 19.9277 48.2739C19.8946 47.3921 19.945 46.5366 20.1282 45.6953C20.3261 44.7761 19.318 43.762 18.435 43.7779C17.9768 43.7806 17.5309 43.833 17.0908 43.8964C17.1358 43.2685 17.1641 42.6353 17.1591 41.9917C17.1666 41.1869 16.1619 40.3115 15.4517 40.3908C14.7305 40.4759 14.021 40.583 13.323 40.7121C13.3887 40.4667 13.4376 40.2161 13.5033 39.9708C13.8528 38.4939 11.3222 37.3129 10.9566 38.8123Z" fill="#00A99D"/>
<path d="M10.9934 29.2387C10.4191 28.5719 10.543 27.5653 11.3115 26.7246C12.2357 25.7035 13.1598 24.6824 14.0898 23.6723C17.6365 19.7794 21.498 15.6644 25.7206 11.8648C27.9777 9.83197 30.0659 8.11294 32.1481 6.5938C33.9643 5.25702 36.3535 3.8711 38.7485 4.92685C39.7813 5.37999 40.622 6.10298 41.4402 6.80971L41.5983 6.95115C42.4616 7.69037 43.3044 8.49653 44.1616 9.43564C45.8701 11.3029 47.3788 13.3457 48.6546 15.1319C50.2734 17.3837 52.0213 19.7219 53.9283 22.0184C54.1026 22.5868 54.2385 23.1615 54.3358 23.7425C54.5161 24.7715 54.8842 26.685 54.083 27.5429C53.9863 27.6501 53.8612 27.73 53.7117 27.7105C53.5512 27.6968 53.4323 27.5768 53.33 27.4621C51.6549 25.6054 49.9957 23.7262 48.5044 21.7163C47.8019 20.78 47.1154 19.8212 46.4289 18.8623C45.2792 17.2625 44.0947 15.5968 42.841 14.0377C41.7527 12.6866 40.7251 11.5563 39.6959 10.5814C39.0852 10.0042 38.4984 9.49858 37.902 9.05424L37.733 8.91854C37.3166 8.60415 36.8885 8.2678 36.4398 8.20927C35.6644 8.11222 34.668 8.89039 33.8721 9.52069L33.5145 9.79352C32.1219 10.8508 30.6988 12.0084 29.2668 13.2551C23.8631 17.9583 18.9458 23.3464 14.5934 28.1417C14.5992 28.1527 14.605 28.1637 14.6108 28.1747C15.6678 30.259 17.1481 32.2746 19.3948 34.6871C22.2028 37.6889 25.2019 40.6039 28.1104 43.4263L29.8699 45.1261C31.3242 46.5373 32.7726 47.9375 34.2378 49.3429C33.3667 46.0788 32.4847 42.8204 31.6194 39.5673C30.6203 35.8227 29.5179 31.0367 33.6973 28.8194C35.4898 27.8605 37.6391 27.9217 39.6075 28.0362C41.7531 28.1697 43.8892 28.3643 46.0157 28.6202C46.5917 28.4711 47.2291 28.5707 47.7552 28.8554C49.3895 29.0757 51.0194 29.3405 52.65 29.6331C53.2046 29.7341 53.7508 30.8231 53.8402 31.3098C53.9795 32.0232 53.9111 32.818 53.4174 33.3874C53.0793 33.7764 52.5939 34.0182 52.0812 34.0496C51.6019 34.0915 50.9392 33.8648 50.8789 34.5429C50.8443 34.9265 51.0638 35.3165 51.0183 35.7058C50.9348 36.34 50.746 36.9593 50.4563 37.5195C49.8035 38.791 48.5672 39.6956 47.1416 39.871C46.9985 39.8903 46.8438 39.8875 46.695 39.8957C46.9813 42.7375 44.7251 45.2475 41.9618 45.5802C40.4316 45.7687 39.0429 45.4329 37.7576 44.8178L40.1021 53.5717C40.2112 53.9637 40.2035 54.319 40.1342 54.6366C40.3733 54.4824 40.6284 54.3058 40.8507 54.1464C41.0244 54.0268 41.1814 53.9019 41.3173 53.8162C42.0178 53.3485 42.7657 52.7857 43.6103 52.1157C45.2559 50.7986 46.778 49.4061 48.0618 48.1954C48.6659 47.624 49.2701 47.0527 49.8851 46.4756C51.1471 45.2764 52.436 44.049 53.7698 42.8541C53.8941 42.7464 54.0294 42.633 54.1537 42.5253C54.1755 42.5138 54.1863 42.5081 54.2081 42.4966C54.2408 42.4793 54.2684 42.4789 54.3011 42.4616C54.4544 42.4089 54.6084 42.3839 54.7624 42.359C54.79 42.3585 54.8009 42.3527 54.8393 42.3465C54.9112 42.3507 54.9773 42.344 55.0382 42.354C55.0658 42.3535 55.0826 42.3588 55.0935 42.353C55.0993 42.364 55.1101 42.3583 55.1326 42.3745C55.1827 42.3903 55.2386 42.417 55.2996 42.427C55.3163 42.4322 55.3221 42.4433 55.333 42.4375C55.3779 42.47 55.4338 42.4967 55.5013 42.5455C55.5238 42.5617 55.5521 42.5889 55.5637 42.6109C55.6145 42.6544 55.6543 42.7037 55.7 42.7639C55.7116 42.7859 55.7232 42.8079 55.7457 42.8241C55.7863 42.9011 55.8435 42.9833 55.8841 43.0602C55.9711 43.2252 56.0181 43.3408 56.0492 43.479C56.0789 43.5617 56.0918 43.6392 56.1048 43.7167C56.1055 43.7444 56.1249 43.8606 56.1314 43.8993C56.1407 44.049 56.1391 44.2044 56.1207 44.3546C56.1214 44.3823 56.1112 44.4158 56.1119 44.4435C56.0973 44.5215 56.0718 44.6052 56.0572 44.6831C56.0317 44.7668 56.0112 44.8338 55.9799 44.9065C55.9697 44.94 55.9537 44.9625 55.9435 44.9959C55.8751 45.1304 55.8067 45.2648 55.7325 45.3882C55.6001 45.6126 55.4503 45.8039 55.2953 46.012C54.9821 46.2896 54.6745 46.5782 54.3939 46.8385C53.6655 47.5175 52.948 48.1908 52.2254 48.8808C49.1947 51.7711 46.0339 54.758 42.4324 57.1203L42.074 57.3654C41.1402 57.9982 39.8699 58.8645 38.6533 58.5645C37.7422 58.3422 37.0388 57.589 36.4151 56.9343C36.228 56.7379 36.0633 56.5577 35.8936 56.3943C34.0955 54.7007 32.3142 53.0124 30.5321 51.2963C27.0644 47.9679 23.578 44.551 20.1692 41.1494L19.7616 40.7461C16.5682 37.5681 13.2558 34.2703 11.1528 30.096C11.0086 29.8488 10.9458 29.5447 10.9934 29.2387ZM36.779 38.5756C37.6422 39.3148 38.5112 40.065 39.5133 40.6186C39.6084 40.6668 39.6534 40.6993 39.6926 40.7208C39.726 40.7313 39.7703 40.7361 39.8537 40.7623C40.0708 40.8306 40.266 40.9103 40.4772 40.9675C40.5607 40.9938 40.5941 41.0043 40.6275 41.0148C40.6551 41.0143 40.6936 41.0081 40.7655 41.0123C40.8206 41.0113 41.1409 41.0111 41.1634 41.0273C41.268 41.0144 41.3616 41.0071 41.4604 40.9832C41.4989 40.9769 41.5098 40.9712 41.5316 40.9597C41.5585 40.9315 41.6842 40.8792 41.7714 40.8333C41.8361 40.7711 41.9284 40.7084 41.9931 40.6462C42.0302 40.5845 42.0622 40.5395 42.0993 40.4778C42.0673 40.5227 42.0812 40.4171 42.1081 40.3888C42.0931 40.2282 42.0562 40.079 42.1357 40.3883C42.0382 40.0183 41.9355 39.6649 41.8982 39.2771C41.7063 37.5658 42.6804 36.111 44.2901 35.5715C44.9635 35.3429 45.6207 35.3478 46.3265 35.3129C46.3432 35.3181 46.3541 35.3124 46.3817 35.3119C46.3926 35.3062 46.3926 35.3062 46.3977 35.2894C46.4079 35.2559 46.4443 35.1665 46.4698 35.0828C46.4743 35.0383 46.4772 34.9384 46.4861 34.8494C46.4738 34.7997 46.4356 34.595 46.4161 34.4789C46.411 34.4956 46.2061 34.0276 46.1546 33.9563C46.1024 33.8574 46.0394 33.7642 45.9872 33.6652C45.9756 33.6432 45.9756 33.6433 45.9473 33.616C45.8444 33.4736 45.7305 33.3369 45.6225 33.2112C44.2161 33.0533 42.8149 32.8787 41.4042 32.7654C39.8163 32.633 37.8852 32.2459 36.3285 32.7012C35.0349 33.0741 35.0857 34.2275 35.2913 35.3836C35.4528 36.3241 35.6862 37.2689 35.9465 38.1855C36.2522 38.2632 36.5367 38.3802 36.779 38.5756Z" fill="#1E1E1E"/>
<path d="M40.8576 19.2844C40.5779 21.7922 38.9797 24.124 36.5549 24.9668C34.0865 25.8324 31.271 25.4058 29.4646 23.3794C28.7032 22.5163 28.1454 21.4053 27.9515 20.2711C27.8541 19.6902 27.8113 19.0805 27.8853 18.5076C27.9865 17.6955 28.2145 17.0976 28.5661 16.3643C28.7131 16.062 28.9835 15.8352 29.2829 15.6633C29.339 15.4792 29.4061 15.2893 29.5014 15.1266C30.9523 12.6477 34.3425 11.549 36.9675 12.7504C39.4749 13.8874 41.1797 16.4872 40.8576 19.2844ZM36.2812 18.8727C36.2893 18.7561 36.2974 18.6394 36.2946 18.5285C36.2875 18.462 36.2803 18.3955 36.2687 18.3735C36.2551 18.2683 36.2305 18.1689 36.2059 18.0694C36.2001 18.0584 36.2001 18.0584 36.1943 18.0474C36.1596 17.9815 36.1298 17.8988 36.1298 17.8988C36.0951 17.8328 36.0661 17.7778 36.0205 17.7176C35.8834 17.5369 35.7413 17.373 35.5716 17.2096C35.5266 17.1771 35.4758 17.1336 35.4308 17.1011C35.3692 17.0634 35.3075 17.0256 35.24 16.9769C35.1674 16.9449 35.0506 16.9081 34.9613 16.8709C34.8727 16.8614 34.8008 16.8572 34.7122 16.8477C34.6846 16.8482 34.6512 16.8377 34.6236 16.8382C34.6236 16.8382 34.6237 16.8381 34.6128 16.8439C34.4697 16.8631 34.3215 16.8991 34.1842 16.9293C34.1298 16.958 34.0803 16.97 34.0259 16.9987C33.9714 17.0275 33.9277 17.0504 33.879 17.0902C33.7599 17.1811 33.6574 17.2773 33.544 17.3792C33.48 17.4691 33.4102 17.5481 33.3629 17.6433C33.1773 17.9518 32.9236 18.1839 32.6351 18.3501C32.5834 18.4897 32.5266 18.6461 32.4531 18.7973C32.726 18.2319 32.5113 18.6963 32.461 18.8915L32.4559 18.9082C32.4477 19.0249 32.4396 19.1416 32.4315 19.2583C32.4516 19.4022 32.4827 19.5404 32.5138 19.6786C32.5898 19.8492 32.6876 20.0084 32.7804 20.1843C32.8543 20.2718 32.9225 20.3482 32.9965 20.4357C33.1031 20.5059 33.1989 20.5819 33.3056 20.6521C33.3447 20.6736 33.3781 20.6842 33.4282 20.6999C33.5174 20.7371 33.6118 20.7576 33.6953 20.7839C33.8558 20.7976 34.0053 20.8171 34.16 20.8199C34.1215 20.8262 34.1106 20.8319 34.0612 20.8439C34.1324 20.8204 34.2152 20.8189 34.287 20.8232C34.3146 20.8227 34.3422 20.8222 34.364 20.8107C34.4795 20.792 34.6001 20.7565 34.7156 20.7378C34.4577 20.8035 34.6727 20.7885 34.831 20.7191C34.8419 20.7133 34.8529 20.7076 34.8638 20.7018C34.9023 20.6956 34.9241 20.6841 34.9626 20.6778C34.9241 20.6841 34.9023 20.6956 34.8638 20.7018C34.9459 20.6726 35.0113 20.6381 35.0875 20.5979C35.1747 20.5519 35.2561 20.495 35.3433 20.449C35.4785 20.3356 35.6137 20.2222 35.7322 20.1035C35.8122 19.9911 35.8981 19.8896 35.9723 19.7662C36.0094 19.7045 36.0406 19.6318 36.0777 19.5701C36.1397 19.397 36.1958 19.2128 36.2468 19.0454C36.2782 18.9727 36.2768 18.9172 36.2812 18.8727Z" fill="#1E1E1E"/>
<path d="M34.1818 20.8083C34.1927 20.8026 34.1984 20.8134 34.2093 20.8077C34.2478 20.8014 34.2753 20.8008 34.3029 20.8002C34.3195 20.8053 34.3413 20.7939 34.3579 20.799C34.3688 20.7933 34.3689 20.7933 34.3798 20.7875C34.4566 20.7748 34.4176 20.7536 34.1818 20.8083Z" fill="#1E1E1E"/>
<path d="M34.8797 20.6789C34.8303 20.691 34.781 20.7031 34.7316 20.7152C34.781 20.7031 34.8303 20.691 34.8797 20.6789Z" fill="#1E1E1E"/>
</svg>
