<svg width="80" height="80" viewBox="0 0 80 80" fill="none" xmlns="http://www.w3.org/2000/svg">
<path d="M67.5468 26.537C67.2978 25.7976 66.8754 25.126 66.3138 24.5763C65.7522 24.0267 65.067 23.6143 64.3134 23.3724C63.5599 23.1305 62.759 23.0659 61.9753 23.1837C61.1917 23.3014 60.4471 23.5985 59.8017 24.0507C58.9796 24.6033 58.3262 25.3653 57.9118 26.2551V26.3547C57.843 26.484 57.781 26.6168 57.7261 26.7524L57.6081 26.9016L57.4393 27.2164C57.1871 27.6849 57.0704 28.2124 57.1018 28.7414C57.0937 28.8352 57.0937 28.9295 57.1018 29.0233C57.1164 29.2805 57.1559 29.5358 57.2199 29.7856C57.2633 29.9232 57.3198 30.0563 57.3887 30.1834C57.5329 30.5162 57.7389 30.8198 57.9961 31.0786L58.2155 31.2609C58.3187 31.4008 58.4315 31.5337 58.553 31.6587C58.7428 31.9365 58.9574 32.1972 59.1942 32.4377C59.5276 32.7453 59.9325 32.9681 60.3737 33.0865C60.8149 33.205 61.279 33.2156 61.7253 33.1173H61.9109C65.117 33.0676 68.458 29.9017 67.5468 26.537Z" fill="#00A99D"/>
<path d="M80.0001 35.2885C80.0001 33.0343 79.8988 30.7801 79.8313 28.5259C79.7638 25.918 79.6795 23.3158 79.5782 20.719C79.5662 20.4028 79.4475 20.0996 79.2407 19.857C79.1865 19.6108 79.0602 19.3854 78.8773 19.2087C78.6945 19.0321 78.463 18.9118 78.2114 18.8626C76.3825 18.5698 74.5288 18.4531 72.6768 18.5143L70.4156 18.6471C69.4369 18.6471 68.4076 18.7796 67.4121 18.7962L49.9305 18.9121C49.75 18.9136 49.5717 18.9512 49.4063 19.0224C49.241 19.0936 49.0921 19.1971 48.9687 19.3265C48.8413 19.4683 48.7443 19.6339 48.6834 19.8133C48.6225 19.9927 48.599 20.1822 48.6143 20.3708V20.5035C48.8929 25.0078 48.8929 29.5244 48.6143 34.0288C48.4794 36.1338 48.3275 38.5042 48.3781 40.8248C48.4288 43.1453 48.4625 45.3498 48.53 47.604C48.5975 50.2118 48.6819 52.8141 48.7831 55.4109C48.7951 55.727 48.9139 56.0303 49.1206 56.2728C49.1768 56.5182 49.3038 56.7425 49.4863 56.9189C49.6689 57.0952 49.8992 57.2161 50.1499 57.2673C51.8242 57.5255 53.5174 57.6476 55.2121 57.6321H55.7183L57.9626 57.4994C58.9413 57.4994 59.9706 57.3668 60.9662 57.3503L78.4645 57.2341C78.6425 57.2323 78.8183 57.1947 78.9808 57.1234C79.1434 57.0522 79.2893 56.9487 79.4095 56.8197C79.5361 56.6774 79.6326 56.512 79.6934 56.3327C79.7543 56.1535 79.7782 55.9641 79.7638 55.7757C79.7734 55.732 79.7734 55.6867 79.7638 55.643C79.4854 51.1386 79.4854 46.6218 79.7638 42.1175C79.8988 39.9959 80.0001 37.6256 80.0001 35.2885ZM58.5869 53.8031C58.4864 54.0763 58.4864 54.3754 58.5869 54.6485H57.3045C55.358 54.8487 53.3956 54.8487 51.4492 54.6485C51.3479 51.5323 51.2467 48.4328 51.1623 45.383C51.2496 45.3554 51.3301 45.3101 51.3986 45.2502C52.4099 44.4857 53.4757 43.7933 54.5878 43.1783C55.6853 42.5387 56.874 42.0639 58.1144 41.7695C58.9931 41.6903 59.8741 41.895 60.6234 42.3528C61.3727 42.8106 61.9493 43.4963 62.2654 44.3055L62.1811 44.5044C60.9324 47.5874 59.7512 50.7036 58.6038 53.8031H58.5869ZM76.8953 54.4496L63.0417 54.5489H61.658C62.5861 51.9632 63.5648 49.3776 64.6279 46.825C65.3534 45.1675 66.0284 43.2281 66.9058 41.5374C67.4901 42.1871 68.21 42.7055 69.0166 43.0573C69.8232 43.4092 70.6975 43.5861 71.58 43.5761C72.2561 43.5476 72.9195 43.3863 73.5311 43.1017C74.1426 42.817 74.6898 42.4146 75.1403 41.9186L76.5071 44.3719C76.5975 44.5356 76.7176 44.6815 76.8615 44.8027C76.8615 45.8303 76.8615 46.8582 76.8615 47.8693C76.7603 50.0406 76.8109 52.2285 76.9122 54.4496H76.8953ZM73.0649 39.5319L72.9636 39.6976L72.8623 39.8467C72.7545 39.9341 72.6582 40.0344 72.5755 40.1451L72.4068 40.2445H72.238C72.0989 40.3125 71.9515 40.3628 71.7993 40.3938H71.1412L70.6012 40.2611H70.3987L69.9432 40.0126L69.7407 39.8965C69.6226 39.7804 69.4876 39.6811 69.3695 39.5485L69.0151 39.2004C68.9138 39.0844 69.0151 39.2004 69.0151 39.2004L68.8632 38.9849C69.3029 38.419 69.9352 38.0271 70.6446 37.881C71.354 37.7349 72.0933 37.8443 72.7274 38.1892C72.9772 38.3905 73.2036 38.6185 73.4023 38.8688C73.3456 38.9726 73.3057 39.0845 73.2842 39.2004L73.0649 39.5319ZM77.1484 39.1175L76.8278 38.5374C76.2304 37.3406 75.3581 36.2964 74.2798 35.4874C73.0478 34.7834 71.6078 34.5147 70.1988 34.7258C68.7899 34.9369 67.4969 35.615 66.5346 36.6478C65.3172 37.8989 64.355 39.3673 63.6997 40.9739C63.0566 40.2013 62.2371 39.5886 61.3077 39.1855C60.3783 38.7823 59.3652 38.5999 58.3507 38.6533C56.7086 38.8768 55.1233 39.3997 53.6766 40.1949C52.7824 40.6338 51.9198 41.1323 51.0948 41.6867C51.0948 39.1507 51.1792 36.5814 51.3142 34.0785C51.4154 32.1724 51.5336 30.1833 51.5505 28.2274C51.5673 26.2715 51.5504 23.9511 51.4154 21.73L65.2859 21.6305C67.1589 21.6305 69.0826 21.6305 70.9893 21.4482C72.9358 21.2479 74.8982 21.2479 76.8446 21.4482C77.0134 25.8572 77.1315 30.2331 77.2159 34.4763C77.2665 36.0178 77.2327 37.5594 77.1653 39.1009L77.1484 39.1175Z" fill="#1E1E1E"/>
<path d="M64.8137 25.8408C64.2829 24.9294 63.4916 24.1908 62.5379 23.7165C61.5842 23.2422 60.5099 23.053 59.4478 23.1722C59.1234 23.2004 58.8132 23.3158 58.5512 23.5058C58.2893 23.6959 58.0857 23.9533 57.9629 24.2496C57.7105 24.2223 57.455 24.2479 57.2135 24.3251C56.972 24.4022 56.75 24.5292 56.5623 24.6972C55.7859 25.3555 55.2221 26.2224 54.9403 27.1912C54.6586 28.1599 54.671 29.1884 54.9762 30.1503C55.314 31.1458 55.9449 32.0205 56.7889 32.6637C57.6329 33.3069 58.6522 33.6898 59.7178 33.7638C60.6701 33.8179 61.6203 33.6278 62.4753 33.2122C63.3302 32.7967 64.0605 32.1699 64.5944 31.3934C65.1326 30.5715 65.4368 29.6231 65.4754 28.6465C65.5139 27.67 65.2855 26.7012 64.8137 25.8408ZM62.1814 29.2884C62.1814 29.4873 62.1814 29.3878 62.1814 29.2884C62.1134 29.4011 62.0514 29.5175 61.9957 29.6366V29.7359L61.692 30.051L61.4895 30.2001L61.1183 30.4156H61.0171C60.8813 30.4695 60.7398 30.5083 60.5952 30.5315H60.3759H59.7515L59.3128 30.4156L59.1103 30.316L58.8403 30.1669H58.756L58.5872 30.0178L58.4522 29.885C58.351 29.7359 58.2666 29.5703 58.1822 29.4211C58.1895 29.3384 58.1895 29.2551 58.1822 29.1724V28.9403V28.7746C58.1822 28.6586 58.1822 28.7745 58.1822 28.8906C58.0979 28.7911 58.1822 28.4763 58.1822 28.3437C58.1741 28.2776 58.1741 28.2108 58.1822 28.1448C58.1748 28.0676 58.1748 27.9899 58.1822 27.9127V27.747C58.2206 27.6608 58.2657 27.5776 58.3172 27.4983V27.3987C58.3473 27.3473 58.3874 27.3023 58.4353 27.2662C58.5589 27.1172 58.7006 26.9836 58.8572 26.8684C59.0299 26.7165 59.1581 26.522 59.2284 26.3049H59.5153C59.6165 26.3049 60.3421 26.1723 60.3927 26.3049H60.2915H60.5109C60.6459 26.3049 60.8484 26.4375 60.9833 26.454H61.1014L61.4727 26.6695L61.5908 26.7691L61.8439 26.9844L61.962 27.1669L62.0633 27.3492C62.0633 27.4486 62.1982 27.6641 62.2151 27.7304V27.9459C62.2235 28.0949 62.2235 28.2444 62.2151 28.3934V28.6255C62.2151 28.6255 62.2151 28.874 62.1139 28.9237V29.0895L62.1814 29.2884Z" fill="#1E1E1E"/>
<path d="M56.5789 71.3565C54.5811 71.3426 52.5847 71.47 50.6055 71.7377H49.9474C49.6225 71.8153 49.3215 71.9688 49.07 72.1853C48.6317 72.5045 48.3164 72.9603 48.1757 73.4782C48.0348 74.006 48.0721 74.5644 48.2821 75.0695C48.492 75.5747 48.8633 75.9994 49.34 76.2795C49.4798 76.5265 49.6437 76.7595 49.8293 76.9755C50.0967 77.2818 50.4165 77.54 50.7743 77.7381C51.6893 78.2394 52.7691 78.3644 53.7778 78.0861C54.41 77.9012 54.9506 77.494 55.2965 76.9423C55.4184 76.7134 55.5038 76.4675 55.5496 76.2131H56.5114C57.1827 76.2131 57.8265 75.9512 58.3012 75.4849C58.7759 75.0187 59.0425 74.3863 59.0425 73.7268C59.0052 73.1017 58.7323 72.5126 58.2768 72.0744C57.8213 71.6362 57.216 71.3801 56.5789 71.3565Z" fill="#FBB03B"/>
<path d="M59.7513 75.086C59.7513 73.9423 59.6331 72.8153 59.5825 71.6716C59.5319 70.5279 59.5825 69.5168 59.4306 68.3566C59.2788 67.1963 59.4307 65.9531 59.2788 64.7431C59.2722 64.4543 59.2076 64.1697 59.0885 63.9056C58.9694 63.6415 58.7982 63.4031 58.5848 63.2043C58.3715 63.0055 58.1202 62.8503 57.8454 62.7474C57.5706 62.6446 57.2778 62.5962 56.9839 62.605C55.6463 62.5304 54.3055 62.5304 52.9679 62.605C50.4031 62.605 47.9057 62.605 45.2733 62.605C44.1597 62.605 43.0628 62.8038 41.8985 62.9032C40.7342 63.0027 39.553 62.9032 38.3887 63.0855C36.8025 63.3342 36.7013 64.7432 36.7857 65.9201C36.8701 67.0969 36.8869 68.5223 36.9713 69.8152C37.0557 71.1081 37.0725 72.6495 37.1738 74.0584C37.275 75.4673 37.4607 76.6607 37.4607 77.9867C37.4434 78.3187 37.5506 78.6457 37.7621 78.9053C37.9735 79.1649 38.2745 79.3394 38.6081 79.3958C38.8679 79.5951 39.1897 79.7004 39.5193 79.694C40.6772 79.6359 41.8374 79.6359 42.9953 79.694C44.0078 79.7934 45.0708 79.9758 46.0833 79.9758C48.4978 80.0392 50.9142 79.9784 53.3223 79.7935C54.6047 79.6609 55.8702 79.4785 57.1358 79.2796C58.4014 79.0807 59.2113 78.9646 59.6837 77.9535C59.902 77.0118 59.9249 76.0366 59.7513 75.086ZM42.9953 65.9201C43.003 66.0028 43.003 66.0858 42.9953 66.1685V66.2515C43.0022 66.3065 43.0022 66.3621 42.9953 66.4172C42.9953 66.5995 42.9953 66.782 42.9953 66.9643C42.9869 67.1244 42.9869 67.2847 42.9953 67.4449V67.6106C42.9953 67.7929 42.8772 67.9587 42.8097 68.1245C42.8097 68.3068 42.8097 68.2239 42.8097 68.1245L42.6747 68.34L42.5397 68.5389C42.5397 68.5389 42.3035 68.7379 42.236 68.8207L42.0335 68.9367H41.9323H41.831C41.645 69.0124 41.4532 69.0733 41.2573 69.119H40.0424C40.0424 68.025 39.9074 66.9476 39.9074 65.8039H40.6667C41.3923 66.0194 42.1516 65.9864 42.8772 65.9201H42.9953ZM41.9492 69.1024H41.7972H41.9492ZM43.9909 76.9259C42.8424 76.8014 41.6868 76.7516 40.5317 76.7767C40.5317 75.3015 40.3124 73.8099 40.2111 72.3347C41.0441 72.3857 41.8794 72.2844 42.6747 72.0362C43.1569 71.8726 43.6162 71.6498 44.0415 71.3732C44.4979 71.0272 44.8964 70.6134 45.2227 70.1466C45.5238 69.7077 45.7569 69.2273 45.9145 68.7212C45.9145 68.5389 46.0495 68.3732 46.1002 68.1909C46.1708 67.9035 46.1992 67.6076 46.1845 67.3123C46.2094 66.9038 46.2094 66.4943 46.1845 66.0858V65.7046H47.3151C49.0025 65.7046 50.6899 65.7046 52.2761 65.7046H56.4271C56.4271 66.4007 56.4271 67.1301 56.4271 67.7931C56.4271 68.4561 56.427 68.804 56.5114 69.3013C56.3054 69.2606 56.0931 69.2606 55.8871 69.3013H55.5327H54.6215C54.3634 69.2769 54.1035 69.2769 53.8453 69.3013H53.5922H53.0016H52.6135C51.908 69.373 51.2087 69.4948 50.5212 69.6659C49.8533 69.8349 49.2078 70.0797 48.5975 70.3953C48.3717 70.4967 48.1713 70.6459 48.0109 70.8321C47.8505 71.0184 47.7339 71.2371 47.6694 71.4727C47.6197 71.7635 47.6197 72.0605 47.6694 72.3513C47.6694 72.4839 47.6694 72.5998 47.6694 72.7159C47.6694 72.8319 47.6695 73.0638 47.7538 73.2296C47.7538 73.0307 47.7538 72.9976 47.7538 73.1137C47.7538 73.2297 47.7538 73.4121 47.7538 73.5778C47.7538 73.7436 47.7538 73.727 47.7538 73.5778C47.7538 73.8099 47.7538 74.075 47.8551 74.307C47.8472 74.3565 47.8472 74.4067 47.8551 74.4562C47.8551 74.4562 47.8551 74.4563 47.8551 74.5557C47.85 74.6385 47.85 74.7216 47.8551 74.8044C47.8146 74.9957 47.8146 75.1931 47.8551 75.3845V75.5336C47.8551 75.9148 48.0069 76.2796 48.0744 76.6608V76.9756H47.9394C46.6065 77.0318 45.2714 77.0151 43.9403 76.9259H43.9909ZM50.7405 72.3347C50.7405 72.2352 50.7405 72.2021 50.7405 72.3347V72.3347ZM47.9732 74.6882C47.9696 74.6386 47.9696 74.5888 47.9732 74.5391C47.9808 74.5912 47.9688 74.6442 47.9394 74.6882H47.9732ZM53.3391 76.959C52.6979 76.959 52.0398 77.0586 51.3986 77.0918C51.4062 77.0312 51.4062 76.97 51.3986 76.9095C51.2467 76.4785 51.2805 75.9977 51.1286 75.5834C51.1286 75.3845 51.1286 75.2022 51.1286 75.0033V74.6221C51.1254 74.426 51.097 74.2309 51.0442 74.0418C51.0442 74.0418 51.0442 73.8428 51.0442 73.8097C51.0442 73.7765 51.0442 73.4783 51.0442 73.296V73.4783V73.1634H51.213L51.7024 73.0307L52.5798 72.8484H53.0354H53.0016C53.4096 72.8509 53.8167 72.8121 54.2166 72.7325H54.8409C55.1219 72.716 55.4036 72.716 55.6846 72.7325C55.9536 72.7644 56.2256 72.7644 56.4946 72.7325C56.4946 73.4618 56.4946 74.1744 56.6127 74.8871C56.7308 75.5999 56.6127 75.9149 56.6127 76.4287C56.6127 76.611 56.6127 76.7767 56.6127 76.959L55.6677 77.1084L53.3391 76.959Z" fill="#1E1E1E"/>
<path d="M24.7878 8.70212C26.7851 8.69898 28.7803 8.57168 30.7612 8.32092H31.4193C31.7405 8.24671 32.0369 8.09257 32.2799 7.87336C32.7245 7.55681 33.046 7.10069 33.1911 6.58044C33.3304 6.05021 33.2924 5.49 33.0828 4.9826C32.8731 4.47521 32.5029 4.0476 32.0268 3.76273C31.887 3.51569 31.7231 3.28248 31.5374 3.06649C31.2794 2.75104 30.9576 2.49151 30.5925 2.3041C29.6774 1.80285 28.5976 1.67758 27.5889 1.95588C26.9568 2.14079 26.4162 2.54804 26.0703 3.09968C25.9485 3.32279 25.8631 3.56318 25.8172 3.8123H24.8553C24.184 3.8123 23.5402 4.07423 23.0655 4.5405C22.5909 5.00677 22.3242 5.63918 22.3242 6.29859C22.3572 6.92837 22.6278 7.52348 23.0833 7.96785C23.5388 8.41222 24.1465 8.6741 24.7878 8.70212Z" fill="#FBB03B"/>
<path d="M21.6663 4.97258C21.6663 6.0997 21.7844 7.24339 21.835 8.28763C21.8856 9.33187 21.835 10.459 21.9869 11.6027C22.1387 12.7464 21.9869 14.0226 22.1387 15.216C22.1431 15.5062 22.2061 15.7927 22.3243 16.0587C22.4424 16.3247 22.6132 16.5649 22.8268 16.7655C23.0404 16.966 23.2924 17.1229 23.5683 17.2268C23.8442 17.3307 24.1383 17.3797 24.4336 17.3708C25.7712 17.4454 27.1121 17.4454 28.4497 17.3708C31.0145 17.3708 33.5119 17.3708 36.1442 17.3708C37.2579 17.3708 38.3547 17.1719 39.519 17.0724C40.6833 16.9729 41.8645 17.0724 43.0288 16.8901C44.615 16.6415 44.7162 15.3155 44.6319 14.0558C44.5475 12.7961 44.5306 11.4535 44.4462 10.1606C44.3618 8.86777 44.345 7.32618 44.2437 5.91728C44.1425 4.50838 43.9569 3.31496 43.9569 1.97236C43.967 1.64195 43.8571 1.31877 43.6469 1.06064C43.4367 0.802511 43.1398 0.626317 42.8094 0.563502C42.5496 0.36414 42.2279 0.258688 41.8983 0.265059C40.7406 0.331497 39.5799 0.331497 38.4222 0.265059C37.3988 0.119143 36.3679 0.0307442 35.3342 0C32.9044 0 30.5251 -4.04694e-05 28.0953 0.165712C26.8128 0.298314 25.5473 0.497112 24.2818 0.67944C23.2693 0.845193 22.2062 0.994467 21.7338 2.02213C21.5039 2.99045 21.4809 3.9951 21.6663 4.97258ZM38.4222 14.1385C38.4145 14.0558 38.4145 13.9728 38.4222 13.8901C38.4146 13.8295 38.4146 13.7683 38.4222 13.7078C38.4222 13.5254 38.4222 13.343 38.4222 13.1607V12.5806C38.4222 12.5806 38.4222 12.4646 38.4222 12.3983C38.4222 12.332 38.5403 12.0667 38.6078 11.8843C38.6078 11.6854 38.6078 11.7849 38.6078 11.8843L38.7428 11.6688L38.8778 11.4865C38.8778 11.4865 39.114 11.2878 39.1815 11.2049L39.384 11.0888H39.4852H39.5865L40.1602 10.9065H41.3751C41.3751 11.9838 41.5102 13.0778 41.5102 14.2215H40.7508C39.9746 14.0392 39.2153 14.0557 38.4222 14.1385ZM39.5021 10.923H39.654H39.5021ZM37.4604 3.09957C38.6086 3.22681 39.7647 3.27105 40.9195 3.2321C40.9195 4.72387 41.1389 6.19917 41.2402 7.69095C40.4072 7.63994 39.5719 7.74099 38.7766 7.98919C38.2915 8.146 37.8314 8.36924 37.4098 8.65224C36.5168 9.32053 35.8613 10.2486 35.5367 11.3042C35.5367 11.47 35.4018 11.6524 35.3511 11.8182C35.3102 12.1096 35.3102 12.4051 35.3511 12.6965C35.3254 13.105 35.3254 13.5148 35.3511 13.9233C35.343 14.0557 35.343 14.1886 35.3511 14.3211H34.2205C32.5331 14.3211 30.8457 14.3211 29.2596 14.3211H25.1086C25.1086 13.6249 25.1086 12.8956 25.1086 12.2326C25.1086 11.5695 25.1086 11.2214 25.0242 10.7076C25.2293 10.7567 25.4435 10.7567 25.6486 10.7076H26.0029C26.3008 10.6911 26.5993 10.6911 26.8972 10.7076C27.1613 10.7247 27.4262 10.7247 27.6903 10.7076H27.9434H28.2809H28.6859C29.3914 10.6358 30.0907 10.514 30.7782 10.3429C31.4466 10.1682 32.0922 9.9178 32.7019 9.59694C32.9278 9.49551 33.1281 9.34654 33.2885 9.1603C33.4489 8.97406 33.5655 8.75532 33.6299 8.51971C33.6806 8.229 33.6806 7.93189 33.6299 7.64117C33.6216 7.52529 33.6216 7.40904 33.6299 7.29316C33.6114 7.12049 33.5832 6.94886 33.5456 6.77923C33.5456 6.96155 33.5456 7.01119 33.5456 6.89516C33.5549 6.7406 33.5549 6.58578 33.5456 6.43121C33.5456 6.26546 33.5456 6.28203 33.5456 6.43121C33.5456 6.21573 33.5456 5.95044 33.4444 5.71839C33.4522 5.6634 33.4522 5.60765 33.4444 5.55267C33.4444 5.55267 33.4444 5.55259 33.4444 5.46972C33.4506 5.38142 33.4506 5.29295 33.4444 5.20466C33.4849 5.01892 33.4849 4.82669 33.4444 4.64095V4.29294C33.4444 3.89513 33.2925 3.54696 33.225 3.16573V2.8509H33.4781C34.7985 2.87369 36.1167 2.96784 37.4266 3.13275L37.4604 3.09957ZM30.7108 7.69095C30.7108 7.7904 30.7108 7.82355 30.7108 7.69095V7.69095ZM33.4781 5.32059C33.4817 5.37026 33.4817 5.42005 33.4781 5.46972C33.4781 5.46972 33.4106 5.42008 33.4106 5.35378L33.4781 5.32059ZM28.1122 3.06638C28.7534 3.06638 29.4114 2.967 30.0527 2.93385C30.0527 2.93385 30.0527 3.04986 30.0527 3.11616C30.2045 3.54711 30.1877 4.0111 30.3395 4.44206V4.52501C30.3395 4.70734 30.3395 4.90619 30.3395 5.08852V5.46972C30.3428 5.67126 30.3711 5.87162 30.4239 6.0664C30.4301 6.14363 30.4301 6.22125 30.4239 6.29848C30.4239 6.48081 30.4239 6.64666 30.4239 6.81241V6.6467V6.96153H30.2551L29.7658 7.09406L28.8883 7.27657H28.4328H28.1628C27.7554 7.26846 27.3482 7.30168 26.9478 7.37591H26.8635H26.3235C26.0366 7.37591 25.7667 7.37591 25.4798 7.37591C25.2108 7.34397 24.9388 7.34397 24.6698 7.37591C24.6698 6.66318 24.6699 5.95056 24.5518 5.22125C24.4336 4.49194 24.5518 4.21008 24.5518 3.69625C24.5518 3.51392 24.5518 3.33167 24.5518 3.14934L25.4967 3.01661C26.391 3.31496 27.2178 3.18244 28.0446 3.09957L28.1122 3.06638Z" fill="#1E1E1E"/>
<path d="M15.3393 11.7517C13.4289 11.6856 11.5161 11.7688 9.61905 12.0004C9.18073 12.0223 8.76352 12.1919 8.43784 12.4809C8.2784 12.6344 8.15155 12.8175 8.06465 13.0195C7.97776 13.2216 7.93257 13.4386 7.93164 13.6579C7.93257 13.8772 7.97776 14.0941 8.06465 14.2961C8.15155 14.4981 8.2784 14.6812 8.43784 14.8347C8.75214 15.1409 9.17637 15.3136 9.61905 15.3154C11.5161 15.0838 13.4289 15.0006 15.3393 15.0668C15.7868 15.0668 16.2161 14.8922 16.5325 14.5814C16.849 14.2705 17.0267 13.8488 17.0267 13.4092C17.0267 12.9696 16.849 12.548 16.5325 12.2371C16.2161 11.9263 15.7868 11.7517 15.3393 11.7517Z" fill="#FBB03B"/>
<path d="M16.4353 6.51392L1.6874 6.64665C1.23988 6.64665 0.810704 6.8212 0.494254 7.13205C0.177804 7.4429 0 7.86457 0 8.30417C0 8.74378 0.177804 9.16525 0.494254 9.4761C0.810704 9.78694 1.23988 9.9617 1.6874 9.9617L16.4353 9.82897C16.8828 9.82897 17.3121 9.65441 17.6285 9.34357C17.945 9.03272 18.1227 8.61105 18.1227 8.17144C18.1227 7.73184 17.945 7.31037 17.6285 6.99952C17.3121 6.68867 16.8828 6.51392 16.4353 6.51392Z" fill="#FBB03B"/>
<path d="M16.4354 1.4751H10.9345C10.4869 1.4751 10.0577 1.64965 9.74127 1.9605C9.42482 2.27135 9.24707 2.69302 9.24707 3.13262C9.24707 3.57223 9.42482 3.9937 9.74127 4.30455C10.0577 4.61539 10.4869 4.79015 10.9345 4.79015H16.4354C16.8829 4.79015 17.3121 4.61539 17.6286 4.30455C17.945 3.9937 18.1228 3.57223 18.1228 3.13262C18.1228 2.69302 17.945 2.27135 17.6286 1.9605C17.3121 1.64965 16.8829 1.4751 16.4354 1.4751Z" fill="#1E1E1E"/>
<path d="M43.7203 24.4319C39.6199 24.4319 35.5364 24.4319 31.4529 24.4319C30.1367 24.4319 28.8711 25.1943 28.9386 26.0894C29.0061 26.9845 30.0355 27.7469 31.4529 27.7469C35.5364 27.7469 39.6199 27.7469 43.7203 27.7469C45.0365 27.7469 46.2851 26.9679 46.2345 26.0894C46.1839 25.2109 45.1208 24.4485 43.7203 24.4319Z" fill="#1E1E1E"/>
<path d="M44.0416 29.8023C36.6845 29.7139 29.3218 29.8354 21.9534 30.1669C20.6035 30.1669 19.4561 30.8797 19.4561 31.8245C19.4561 32.7693 20.6035 33.482 21.9534 33.482C29.3105 33.1505 36.6732 33.029 44.0416 33.1174C47.2814 33.1671 47.2814 29.8521 44.0416 29.8023Z" fill="#00A99D"/>
<path d="M44.3785 35.9184C30.4068 35.7416 16.4407 35.819 2.48022 36.1505C-0.725849 36.1505 -0.742723 39.4655 2.48022 39.4655C16.4294 39.134 30.3955 39.0567 44.3785 39.2335C47.6015 39.2666 47.6015 35.9516 44.3785 35.9184Z" fill="#1E1E1E"/>
<path d="M44.2104 42.0015L22.2741 42.3993C19.0512 42.3993 19.0343 45.7144 22.2741 45.7144L44.2104 45.3166C47.4333 45.2669 47.4502 41.9518 44.2104 42.0015Z" fill="#1E1E1E"/>
<path d="M43.3831 48.5989C40.3121 48.5989 37.2579 48.7315 34.2206 49.0133C33.6482 49.0983 33.1204 49.3662 32.7188 49.7757C32.5591 49.9437 32.4506 50.1525 32.4059 50.3782C32.3611 50.6039 32.3818 50.8373 32.4656 51.052C32.701 51.5182 33.1129 51.8753 33.6131 52.0467C34.2391 52.244 34.9023 52.3007 35.5536 52.2124H35.0474C37.8147 51.9803 40.5989 51.8642 43.3831 51.8807C44.6993 51.8807 45.9649 51.1183 45.8974 50.2232C45.8299 49.3282 44.8006 48.6155 43.3831 48.5989Z" fill="#00A99D"/>
<path d="M31.5714 64.1793H21.447C20.3333 64.1793 19.2871 64.9418 19.3377 65.8369C19.4091 66.3247 19.6668 66.7675 20.0586 67.0754C20.4504 67.3832 20.9468 67.5331 21.447 67.4944H31.5714C32.6682 67.4944 33.7313 66.7319 33.6806 65.8369C33.6132 65.3473 33.3564 64.9021 32.9637 64.5935C32.571 64.2849 32.0724 64.1366 31.5714 64.1793Z" fill="#1E1E1E"/>
<path d="M31.9757 69.334C22.0201 69.4003 12.0587 69.6489 2.09177 70.0799C-0.608082 70.1959 -0.624956 73.5109 2.09177 73.3949C12.0475 72.9639 22.0088 72.7154 31.9757 72.6491C34.6925 72.6325 34.6925 69.3175 31.9757 69.334Z" fill="#1E1E1E"/>
<path d="M31.9759 75.5664C27.101 75.1051 22.1942 75.0663 17.3124 75.4504C16.1818 75.4504 15.2031 76.1466 15.2031 77.108C15.2666 77.5993 15.5223 78.047 15.916 78.3564C16.3097 78.6657 16.8105 78.8125 17.3124 78.7655C22.1942 78.3814 27.101 78.4201 31.9759 78.8814C32.4778 78.9284 32.9786 78.7817 33.3723 78.4723C33.766 78.1629 34.0217 77.7152 34.0852 77.2239C34.0852 76.2957 33.1065 75.7321 31.9759 75.5664Z" fill="#FBB03B"/>
<path d="M76.861 14.1059L68.1708 13.9236C67.7233 13.9236 67.2941 14.0981 66.9777 14.409C66.6612 14.7198 66.4834 15.1415 66.4834 15.5811C66.4834 16.0207 66.6612 16.4422 66.9777 16.753C67.2941 17.0639 67.7233 17.2386 68.1708 17.2386L76.861 17.4209C77.3085 17.4209 77.7377 17.2462 78.0541 16.9353C78.3706 16.6245 78.5484 16.203 78.5484 15.7634C78.5484 15.3238 78.3706 14.9021 78.0541 14.5913C77.7377 14.2804 77.3085 14.1059 76.861 14.1059Z" fill="#00A99D"/>
<path d="M64.8129 72.1024C64.812 71.8831 64.7667 71.666 64.6798 71.464C64.5929 71.262 64.4661 71.0789 64.3067 70.9254C63.9924 70.6192 63.5682 70.4467 63.1255 70.4449C62.9034 70.4436 62.6833 70.4854 62.4777 70.5679C62.2721 70.6504 62.0851 70.7718 61.9275 70.9254L61.6575 71.257C61.5088 71.5145 61.4331 71.8064 61.4381 72.1024C61.3226 73.2867 61.2832 74.4769 61.32 75.6661C61.3341 76.1033 61.5078 76.521 61.8093 76.8429C62.1327 77.1458 62.5606 77.3175 63.0074 77.3236C63.2294 77.3249 63.4496 77.2829 63.6552 77.2004C63.8608 77.1179 64.0478 76.9965 64.2055 76.8429C64.3619 76.688 64.4856 76.5042 64.5695 76.3022C64.6535 76.1003 64.6961 75.8842 64.6948 75.6661C64.658 74.4769 64.6974 73.2867 64.8129 72.1024Z" fill="#FBB03B"/>
<path d="M47.247 0.613037C46.7994 0.613037 46.3703 0.787592 46.0538 1.09844C45.7374 1.40928 45.5596 1.83096 45.5596 2.27056V7.02766C45.5596 7.46726 45.7374 7.88873 46.0538 8.19958C46.3703 8.51043 46.7994 8.68518 47.247 8.68518C47.6945 8.68518 48.1237 8.51043 48.4402 8.19958C48.7566 7.88873 48.9344 7.46726 48.9344 7.02766V2.27056C48.9344 1.83096 48.7566 1.40928 48.4402 1.09844C48.1237 0.787592 47.6945 0.613037 47.247 0.613037Z" fill="#FBB03B"/>
</svg>
