<svg width="81" height="81" viewBox="0 0 81 81" fill="none" xmlns="http://www.w3.org/2000/svg">
<path d="M72.8248 53.2925C70.7148 56.5425 68.5147 59.7424 66.2747 62.9224C66.7247 58.1024 68.1147 53.2924 67.7747 48.4424C67.6447 46.5424 64.4547 45.5124 63.2647 47.4424C59.7447 53.0491 56.078 58.5991 52.2647 64.0924C52.6147 59.4524 53.6747 54.8225 54.4247 50.2725C54.7547 48.2725 51.2248 46.3624 50.0048 48.7024C48.1548 52.2324 46.4748 56.0524 44.3248 59.6124C44.5466 56.7815 44.6134 53.9406 44.5247 51.1024C44.4647 49.0124 41.3447 48.4124 40.0147 50.1024C35.8033 55.3455 30.7758 59.8767 25.1248 63.5225C25.1879 63.3988 25.2446 63.2719 25.2947 63.1425C25.8747 61.7325 26.4447 60.3225 27.0147 58.9125L30.4648 50.4624C31.2148 48.6224 27.9147 46.8524 26.4147 48.4624C22.4147 52.8424 18.4147 57.2191 14.4147 61.5924C14.8599 58.368 15.5758 55.1867 16.5547 52.0824C17.1447 50.2224 14.8548 49.0825 13.0048 49.7825L4.12481 53.0824C1.28481 54.1424 3.74476 57.6624 6.56475 56.6124L10.7647 55.0425C9.72299 59.321 9.14965 63.7 9.05475 68.1024C9.05475 69.7224 11.8548 70.9925 13.1848 69.5425L21.1148 60.9125C19.9748 63.3625 18.3647 66.1824 19.2947 68.6824C19.442 69.0007 19.6521 69.2859 19.9124 69.5209C20.1727 69.7559 20.4779 69.9357 20.8095 70.0497C21.1411 70.1637 21.4925 70.2094 21.8422 70.1841C22.192 70.1588 22.533 70.063 22.8448 69.9025C29.0521 66.5523 34.7301 62.3031 39.6948 57.2925C39.5481 60.609 39.1874 63.9124 38.6148 67.1824C38.5807 67.6599 38.6891 68.1369 38.9261 68.5529C39.1631 68.9688 39.5181 69.3051 39.9463 69.5192C40.3746 69.7333 40.8567 69.8156 41.3317 69.7556C41.8067 69.6957 42.2532 69.4962 42.6148 69.1824C44.4637 67.3739 46.1009 65.3609 47.4948 63.1824C47.2127 65.8912 47.2564 68.624 47.6248 71.3224C47.7318 71.7933 47.9703 72.2243 48.3126 72.5649C48.6548 72.9056 49.0869 73.1421 49.5583 73.2468C50.0297 73.3516 50.5212 73.3203 50.9755 73.1566C51.4299 72.993 51.8284 72.7037 52.1248 72.3224C55.6381 67.4157 59.0348 62.4591 62.3148 57.4524C61.6848 61.7524 60.9448 66.0424 61.7548 70.4524C62.0948 72.2924 65.1747 72.2924 66.1747 70.9324C69.9481 65.8524 73.5515 60.6824 76.9848 55.4224C78.5148 53.0524 74.3348 50.9925 72.8248 53.2925Z" fill="#00A99D"/>
<path d="M74.3747 25.8625C72.8881 26.9225 71.3414 27.9225 69.7347 28.8625C70.4647 26.5625 71.6447 24.2425 72.2047 22.1225C73.0844 18.6796 73.6599 15.1661 73.9247 11.6225C74.0647 9.84247 71.1947 8.9524 69.7947 10.1724C66.4647 13.1124 63.1346 16.0624 60.0246 19.1724C60.7146 17.5724 61.4247 15.9825 62.1347 14.3925C62.8447 12.8025 60.2447 11.0424 58.5847 12.0924C54.853 14.3913 51.4431 17.1756 48.4447 20.3725C47.165 21.742 45.9821 23.1988 44.9046 24.7325C44.5546 25.2325 44.2246 25.8125 43.9046 26.4125C43.9846 24.6125 44.1946 22.8025 44.2746 21.1125C44.4446 17.6525 44.7147 14.2025 45.1747 10.7625C45.4647 8.57249 41.8747 8.25249 40.6647 9.76249C37.638 13.4758 34.7514 17.2658 32.0047 21.1325C32.6347 18.1325 33.1147 15.0324 33.4747 11.9624C33.7147 9.96244 30.0447 9.22244 28.9647 10.9624C26.6777 14.5459 24.173 17.9858 21.4647 21.2625C19.5949 23.7247 17.5672 26.0629 15.3946 28.2625C15.1409 26.3697 15.0139 24.4621 15.0146 22.5524C14.6863 20.6919 14.4892 18.8106 14.4247 16.9224C14.9947 15.7624 15.5547 14.5925 16.0747 13.4125C16.9947 11.4125 13.6747 10.1925 12.0747 11.4125C11.4002 11.9258 10.8478 12.5819 10.457 13.334C10.0663 14.0861 9.84686 14.9155 9.81468 15.7625C8.07974 19.1911 6.11527 22.4986 3.93467 25.6625C2.37467 27.9425 6.55473 29.9924 8.11473 27.7224C8.85473 26.6424 9.56473 25.5624 10.2447 24.4624C10.3147 27.4624 10.5147 30.6625 12.4247 32.8925C12.8813 33.4395 13.5319 33.7887 14.2402 33.867C14.9485 33.9453 15.6596 33.7465 16.2247 33.3124C19.7947 30.7824 22.3147 27.4024 24.9447 24.1924C25.6547 23.3324 26.3446 22.4624 27.0346 21.5924C26.8946 22.2124 26.7547 22.8324 26.6047 23.4524C25.8347 26.5524 24.4747 29.6725 24.6047 32.8725C24.6747 34.8025 27.9547 35.7625 29.1147 33.8725C32.3747 28.6125 35.888 23.4858 39.6546 18.4925C39.5746 19.7325 39.5047 20.9624 39.4547 22.2024C39.3047 25.5924 38.8147 29.2025 39.6947 32.4925C40.0247 33.7725 41.9647 34.3624 43.2447 33.7124C46.8947 31.8424 48.1047 28.0524 50.3547 25.1724C51.5406 23.6705 52.834 22.2568 54.2247 20.9424C52.6347 24.7224 51.1047 28.5124 49.6647 32.3324C48.8447 34.5124 52.8547 35.9925 54.0847 33.9025C57.7447 27.7225 62.9046 22.4425 68.4146 17.4125C68.0623 19.3337 67.6016 21.2333 67.0346 23.1025C66.0346 26.3025 64.0347 29.5225 64.3747 32.8825C64.4407 33.2727 64.599 33.6415 64.8367 33.958C65.0743 34.2746 65.3841 34.5297 65.7405 34.7019C66.0968 34.8742 66.4891 34.9586 66.8847 34.9483C67.2804 34.9379 67.6678 34.8331 68.0146 34.6425C71.4603 32.9602 74.7615 30.9969 77.8847 28.7725C80.1847 27.0525 76.7447 24.1825 74.3747 25.8625Z" fill="#FBB03B"/>
<path d="M80.5245 57.4823C79.8717 56.303 79.0903 55.1995 78.1946 54.1922C78.1263 53.9624 78.0047 53.7521 77.8396 53.5783C77.6745 53.4045 77.4706 53.2722 77.2446 53.1922C74.8946 50.9286 72.3627 48.8617 69.6745 47.0123L69.4245 46.8322C64.9645 43.5822 60.1946 40.3122 55.3146 37.1722C55.132 36.9877 54.9096 36.8476 54.6645 36.7623C54.3051 36.6213 53.9098 36.5996 53.5371 36.7004C53.1643 36.8012 52.8339 37.0192 52.5946 37.3222C52.427 37.552 52.3434 37.8324 52.358 38.1164C52.3726 38.4004 52.4843 38.6709 52.6745 38.8823C52.9288 39.7825 53.0369 40.7178 52.9946 41.6523C52.9946 41.9423 52.9946 42.2323 52.9946 42.5123C53.0492 43.554 53.2169 44.5867 53.4946 45.5922L34.2945 46.1123C27.9845 46.2923 21.2946 46.4223 14.4746 46.0323C10.8157 45.695 7.13349 45.695 3.47459 46.0323H3.41453C2.93002 45.9908 2.44867 46.1416 2.07456 46.4522C1.93581 46.5772 1.82763 46.7324 1.75828 46.9057C1.68893 47.0791 1.66024 47.2661 1.67454 47.4522C2.01454 55.3622 1.98459 63.3723 1.60459 71.2623C1.58875 71.585 1.69369 71.902 1.8989 72.1516C2.10411 72.4012 2.39487 72.5654 2.71458 72.6123C3.01846 72.8683 3.40761 73.0004 3.80454 72.9823L48.5245 72.8723C48.8323 73.083 49.1966 73.1956 49.5696 73.1956C49.9425 73.1956 50.3068 73.083 50.6146 72.8723H53.9145L55.3346 79.6223C55.3709 79.7845 55.4402 79.9374 55.5383 80.0716C55.6364 80.2058 55.761 80.3184 55.9045 80.4023C56.2064 80.5856 56.5514 80.6855 56.9045 80.6922C57.0343 80.7021 57.1647 80.7021 57.2945 80.6922C57.5443 80.6381 57.7775 80.525 57.9746 80.3623C58.2618 80.3009 58.5255 80.1586 58.7346 79.9522L61.8846 76.8923C63.218 75.559 64.5913 74.2256 66.0046 72.8923C66.3025 72.9486 66.6104 72.9127 66.8873 72.7894C67.1643 72.6661 67.3971 72.4613 67.5545 72.2022L68.1346 71.2022L68.5046 70.5722L68.9345 70.1822C69.3245 69.8222 69.7046 69.4623 70.1046 69.1123C71.1646 68.1823 72.3645 67.2922 73.5245 66.4322C76.0245 64.5622 78.6245 62.6422 80.1645 60.0522C80.3275 59.7933 80.3948 59.4855 80.3546 59.1822C80.5697 58.9591 80.7034 58.6702 80.7342 58.3618C80.7651 58.0534 80.6912 57.7436 80.5245 57.4823ZM77.4345 58.4823L77.3646 58.5722C76.2289 60.2762 74.7799 61.7491 73.0946 62.9123C74.2346 61.0623 75.4245 59.1822 76.6445 57.3022C76.9295 57.6806 77.1933 58.0746 77.4345 58.4823ZM74.5145 54.8122C72.1445 58.4322 69.8445 62.1123 67.6645 65.7523L67.3346 49.0323L67.6246 49.2423C70.0593 50.9103 72.3626 52.7624 74.5145 54.7823V54.8122ZM64.5145 70.1023C62.8245 71.7023 61.1445 73.3422 59.5145 74.9322L57.9646 76.4522L56.9646 71.5223C56.9275 71.3643 56.8587 71.2156 56.7624 71.0849C56.6662 70.9543 56.5444 70.8445 56.4045 70.7623C56.2625 70.5238 56.0579 70.3287 55.8128 70.1982C55.5678 70.0678 55.2917 70.007 55.0145 70.0223H52.7645C56.5345 64.6623 60.3946 59.1023 64.2246 53.4723L64.5145 70.1023ZM48.8246 59.0023C48.2933 62.646 47.9993 66.3204 47.9446 70.0023H40.4145C43.5316 66.5758 46.3455 62.8852 48.8246 58.9723V59.0023ZM36.8246 70.0023C36.8246 70.0023 36.8246 70.0723 36.8246 70.1123L12.2146 70.1722C15.2946 67.0622 18.2146 63.8422 20.8446 60.5822C21.2346 60.1022 21.6446 59.5822 22.0646 59.0522C21.0827 61.9992 20.2878 65.0051 19.6845 68.0522C19.6252 68.347 19.661 68.6532 19.7868 68.9264C19.9126 69.1995 20.122 69.4256 20.3846 69.5722C20.6888 69.7652 21.0463 69.8567 21.4057 69.8333C21.7652 69.81 22.108 69.673 22.3846 69.4422C26.1575 66.5649 29.6467 63.3337 32.8045 59.7923C34.3135 58.0833 35.6939 56.265 36.9345 54.3523L37.2546 53.8222C37.4846 53.4522 37.7445 53.0223 38.0345 52.6223C37.0832 58.3409 36.6781 64.1369 36.8246 69.9322V70.0023ZM8.94456 69.6722C8.9555 69.85 9.00318 70.0237 9.08457 70.1822H4.91453C5.13453 65.1822 5.21462 60.0422 5.13462 54.9222C5.46376 54.8944 5.77702 54.7691 6.03452 54.5622C7.93608 53.0501 10.0355 51.8053 12.2745 50.8623C12.1145 51.3723 11.9146 51.8623 11.7146 52.3823C11.5146 52.9023 11.4045 53.1622 11.2645 53.5522C9.47264 58.7255 8.68526 64.1936 8.94456 69.6623V69.6722ZM29.2246 49.3623L29.1346 49.1623C31.9846 49.1623 34.8645 49.0322 37.6845 48.9422C36.5329 49.6384 35.563 50.5981 34.8546 51.7423L34.3846 52.4322C33.2978 54.1099 32.1228 55.729 30.8646 57.2823C28.7318 59.8079 26.3902 62.1495 23.8646 64.2823C25.1552 59.4169 26.9306 54.6931 29.1645 50.1822C29.2316 50.044 29.268 49.893 29.2715 49.7395C29.2749 49.5859 29.2453 49.4334 29.1845 49.2923L29.2246 49.3623ZM23.0345 52.5622L22.4446 53.4023C21.1746 55.1623 19.8246 56.9223 18.4446 58.6423C16.5146 61.0423 14.4446 63.4423 12.2046 65.7923C12.2962 63.5317 12.5839 61.2831 13.0646 59.0722C13.4465 57.3768 13.9341 55.7068 14.5245 54.0722C14.6445 53.7522 14.7645 53.4322 14.8945 53.0722C15.4887 51.818 15.8285 50.4585 15.8945 49.0722C18.6145 49.2022 21.1145 49.2623 23.5245 49.2723H25.8945C24.792 50.2113 23.8172 51.2904 22.9946 52.4823L23.0345 52.5622ZM41.7945 49.9723C41.8698 49.5768 41.7873 49.1676 41.5646 48.8322H43.0946L50.8246 48.6123C48.0744 54.8528 44.4515 60.6709 40.0646 65.8923C40.14 60.522 40.7057 55.1698 41.7546 49.9023L41.7945 49.9723ZM4.9846 48.8322C6.64737 48.6924 8.31703 48.6524 9.9846 48.7122C8.27071 49.5026 6.6337 50.45 5.09458 51.5423C5.00458 50.5723 4.97456 49.6623 4.94456 48.7623L4.9846 48.8322ZM57.1246 46.4123C56.6569 45.0638 56.3775 43.6571 56.2945 42.2323V41.3723C59.1745 43.2823 62.0645 45.2623 64.8945 47.2823C64.6774 47.3949 64.4919 47.5599 64.3546 47.7623C60.3546 53.6923 56.0846 59.8623 51.3546 66.6023C51.702 60.4645 52.7282 54.384 54.4145 48.4723C54.7219 48.4619 55.02 48.3648 55.2745 48.1922C55.5631 48.2285 55.8562 48.1989 56.1317 48.1053C56.4071 48.0118 56.6578 47.8569 56.8646 47.6523C57.0262 47.4799 57.1332 47.2635 57.1723 47.0305C57.2115 46.7974 57.181 46.558 57.0846 46.3422L57.1246 46.4123Z" fill="#1E1E1E"/>
<path d="M35.5447 5.48239C35.8476 5.62986 36.1844 5.6937 36.5202 5.66732C36.856 5.64095 37.1786 5.5253 37.4548 5.33236C38.0707 4.89791 38.6493 4.41295 39.1847 3.88241C40.0347 4.44241 40.7848 4.9724 41.4748 5.4924C41.8066 5.75438 42.2169 5.89681 42.6397 5.89681C43.0625 5.89681 43.4729 5.75438 43.8047 5.4924C44.41 4.94436 45.0478 4.43339 45.7148 3.96237C46.8864 4.99145 48.1999 5.84689 49.6148 6.50241C49.9365 6.65409 50.2941 6.71296 50.6475 6.67233C51.0009 6.63169 51.3359 6.49318 51.6148 6.27243L54.2947 4.09237L55.8248 5.17233L56.1847 5.43234C56.6996 5.8726 57.3033 6.19671 57.9548 6.38241C58.5407 6.45553 59.1356 6.38136 59.6856 6.16659C60.2356 5.95182 60.7234 5.60325 61.1048 5.15243C61.4705 5.59416 61.9287 5.95017 62.4471 6.19552C62.9654 6.44087 63.5313 6.56952 64.1048 6.57235C65.3669 6.30481 66.5238 5.67599 67.4347 4.76242L69.8248 6.48239C70.091 6.67824 70.4049 6.79919 70.7338 6.83261C71.0627 6.86602 71.3945 6.81061 71.6947 6.67233C71.9533 6.57965 72.1824 6.41958 72.3582 6.20858C72.534 5.99759 72.6502 5.7434 72.6947 5.47238C72.716 5.24666 72.6738 5.0195 72.5732 4.81637C72.4725 4.61324 72.3173 4.44215 72.1248 4.32235L68.4147 1.60238C68.0844 1.337 67.6735 1.19235 67.2498 1.19235C66.8261 1.19235 66.4151 1.337 66.0848 1.60238L65.8548 1.83236C65.2825 2.44148 64.6298 2.96975 63.9147 3.40243C63.5577 3.09364 63.2235 2.75944 62.9147 2.40243C62.7047 2.17243 62.5047 1.96244 62.3147 1.79244C61.9821 1.52375 61.5673 1.37716 61.1397 1.37716C60.7121 1.37716 60.2974 1.52375 59.9648 1.79244L58.4447 3.13241C58.4021 3.10405 58.3547 3.08365 58.3047 3.07235C57.6247 2.66235 56.9647 2.17236 56.3047 1.70236L55.3047 0.992396C54.9748 0.739389 54.5705 0.602259 54.1547 0.602259C53.7389 0.602259 53.3348 0.739389 53.0048 0.992396L50.1847 3.27243C49.0258 2.62787 47.9734 1.80815 47.0647 0.842372C46.7914 0.611099 46.4563 0.46511 46.1008 0.42245C45.7453 0.37979 45.385 0.442344 45.0647 0.602381C44.1947 1.14242 43.3597 1.73697 42.5647 2.38241C41.5647 1.68241 40.6747 1.07244 39.7847 0.532435C39.4094 0.340413 38.9799 0.282289 38.5671 0.367762C38.1542 0.453235 37.7829 0.677148 37.5147 1.00241C36.8338 1.79534 36.0542 2.4977 35.1947 3.09237C35.0034 3.20722 34.8471 3.37243 34.7431 3.56991C34.6391 3.76739 34.5913 3.98957 34.6048 4.21237C34.6311 4.48955 34.7325 4.75432 34.8981 4.97811C35.0638 5.20191 35.2873 5.37626 35.5447 5.48239Z" fill="#1E1E1E"/>
<path d="M3.44459 27.4824C5.79587 29.7486 8.3312 31.8158 11.0245 33.6624L11.2645 33.8424C15.7245 37.0924 20.4946 40.3624 25.3746 43.4924C25.5539 43.6832 25.777 43.8274 26.0245 43.9124C26.2228 44.0005 26.4376 44.0449 26.6545 44.0424C26.931 44.043 27.2041 43.9812 27.4534 43.8618C27.7027 43.7423 27.9218 43.5682 28.0946 43.3524C28.2622 43.1226 28.3456 42.8422 28.3311 42.5582C28.3165 42.2742 28.2047 42.0039 28.0145 41.7924C27.7603 40.8922 27.6523 39.9569 27.6946 39.0224C27.6946 38.7324 27.6946 38.4424 27.6946 38.1624C27.6488 37.1205 27.4844 36.0871 27.2046 35.0824L46.4045 34.5523C52.7146 34.3823 59.4046 34.2524 66.2246 34.6424C69.8838 34.9748 73.5655 34.9748 77.2246 34.6424C77.4721 34.6741 77.7234 34.654 77.9627 34.5835C78.2019 34.5129 78.424 34.3933 78.6146 34.2324C78.7511 34.1056 78.8576 33.9502 78.9268 33.7773C78.9959 33.6044 79.0259 33.4183 79.0145 33.2324C78.6745 25.3324 78.7046 17.3323 79.0846 9.43234C79.1007 9.10847 78.9962 8.79012 78.7911 8.53891C78.5861 8.28769 78.2952 8.12146 77.9746 8.07235C77.6684 7.82056 77.2809 7.68903 76.8847 7.70236L32.1646 7.82235C31.8568 7.61167 31.4926 7.49899 31.1196 7.49899C30.7467 7.49899 30.3824 7.61167 30.0746 7.82235H26.8246L25.4045 1.07235C25.3682 0.910161 25.2989 0.75721 25.2008 0.623011C25.1027 0.488813 24.9781 0.376337 24.8346 0.292445C24.4117 0.0278003 23.9024 -0.061862 23.4146 0.0424448C23.1648 0.0965589 22.9317 0.209672 22.7346 0.372401C22.4481 0.435844 22.185 0.577848 21.9746 0.782435L18.7846 3.88241C17.4346 5.20241 16.0846 6.52241 14.7046 7.88241C14.4058 7.82989 14.0981 7.86851 13.8217 7.99337C13.5452 8.11823 13.3127 8.32349 13.1545 8.58236C12.9646 8.92236 12.7646 9.26236 12.5646 9.58236L12.2046 10.2024L11.7745 10.5924L10.6046 11.6624C9.54462 12.5924 8.34458 13.4824 7.18458 14.3424C4.67458 16.2024 2.08456 18.1324 0.544564 20.7124C0.380859 20.9747 0.313733 21.2859 0.354623 21.5924C0.157393 21.8114 0.0353914 22.0878 0.0066002 22.3811C-0.022191 22.6744 0.0437068 22.9692 0.194588 23.2224C0.849894 24.4001 1.63109 25.5033 2.52454 26.5124C2.59449 26.7332 2.71369 26.9352 2.87306 27.1032C3.03242 27.2713 3.22783 27.4009 3.44459 27.4824ZM3.25465 22.2024C3.2835 22.1733 3.30712 22.1395 3.32459 22.1024C4.46333 20.4037 5.91195 18.9347 7.59461 17.7724C6.44461 19.6324 5.25455 21.5124 4.03455 23.3824C3.74455 22.9424 3.49465 22.5524 3.25465 22.1624V22.2024ZM6.17457 25.8724C8.53457 22.2624 10.8345 18.5823 13.0245 14.9323L13.3546 31.6524L13.0646 31.4323C10.6252 29.7484 8.32149 27.8761 6.17457 25.8324V25.8724ZM16.1746 10.5824C17.8646 8.98236 19.5646 7.33239 21.1746 5.73239L22.7046 4.23239L23.7046 9.16244C23.7417 9.3204 23.8105 9.46919 23.9067 9.59982C24.003 9.73045 24.1247 9.84009 24.2645 9.92233C24.4074 10.1601 24.6122 10.3546 24.8571 10.485C25.1019 10.6153 25.3775 10.6767 25.6545 10.6624H27.9045C24.1545 15.9924 20.3046 21.5524 16.4446 27.2024L16.1746 10.5824ZM31.8646 21.6823C32.3968 18.0389 32.6875 14.3642 32.7346 10.6823H40.2745C37.1677 14.0874 34.3607 17.7544 31.8847 21.6424L31.8646 21.6823ZM43.8646 10.6823C43.8646 10.6823 43.8646 10.6224 43.8646 10.5824L68.4746 10.5224C65.3946 13.6224 62.4746 16.8524 59.8446 20.1124C59.4446 20.5924 59.0446 21.1124 58.6246 21.6324C59.6081 18.6859 60.4031 15.6799 61.0046 12.6324C61.0647 12.3361 61.0292 12.0284 60.9035 11.7535C60.7777 11.4786 60.568 11.2507 60.3046 11.1024C59.9985 10.9152 59.642 10.8273 59.2839 10.8506C58.9259 10.8738 58.5839 11.0072 58.3046 11.2324C54.5332 14.1151 51.0412 17.346 47.8746 20.8824C46.3741 22.5993 44.9973 24.4205 43.7546 26.3324C43.6546 26.4924 43.5446 26.6624 43.4346 26.8524C43.2046 27.2324 42.9445 27.6623 42.6545 28.0623C43.624 22.3187 44.0426 16.4956 43.9045 10.6723L43.8646 10.6823ZM71.7446 11.0224C71.7337 10.8446 71.686 10.6709 71.6046 10.5124H75.8246C75.6046 15.5124 75.5246 20.6324 75.5946 25.7624C75.2692 25.8 74.9608 25.9282 74.7046 26.1324C72.8051 27.6449 70.7051 28.8866 68.4646 29.8224C68.6246 29.3124 68.8245 28.8223 69.0245 28.3123C69.2245 27.8023 69.3346 27.5224 69.4746 27.1324C71.2691 21.9632 72.0565 16.498 71.7946 11.0324L71.7446 11.0224ZM51.4646 31.3324L51.5546 31.5324C48.7046 31.5324 45.8246 31.6624 43.0046 31.7424C44.1536 31.047 45.1229 30.0912 45.8346 28.9524L46.2946 28.2724C47.3814 26.5891 48.5599 24.9666 49.8246 23.4124C51.9574 20.8868 54.299 18.5452 56.8246 16.4124C55.5323 21.2773 53.7568 26.0008 51.5245 30.5124C51.412 30.7694 51.4049 31.0602 51.5046 31.3224L51.4646 31.3324ZM57.6545 28.1324L58.2446 27.2924C59.5146 25.5324 60.8646 23.7723 62.2446 22.0523C64.1846 19.6523 66.2446 17.2524 68.4946 14.9024C68.403 17.1631 68.1153 19.4115 67.6347 21.6224C67.25 23.3172 66.7624 24.987 66.1746 26.6224C66.0546 26.9424 65.9346 27.2624 65.8046 27.6224C65.2117 28.8771 64.8718 30.2363 64.8046 31.6224C62.1046 31.4924 59.6046 31.4323 57.1746 31.4223H54.8046C55.9077 30.4531 56.8793 29.3438 57.6946 28.1224L57.6545 28.1324ZM38.8945 30.7124C38.8198 31.111 38.9023 31.5232 39.1246 31.8624H37.5946L29.8646 32.0724C32.6157 25.8353 36.2385 20.0206 40.6246 14.8023C40.5444 20.1426 39.9786 25.4645 38.9346 30.7024L38.8945 30.7124ZM75.7046 31.8624C74.0419 32.0042 72.3719 32.0409 70.7046 31.9724C72.4182 31.1855 74.0552 30.2415 75.5946 29.1524C75.6846 30.0424 75.7046 30.9424 75.7446 31.8524L75.7046 31.8624ZM23.5646 34.2824C24.0333 35.6307 24.3125 37.0373 24.3945 38.4624V39.3224C21.5145 37.4124 18.6346 35.4324 15.7946 33.4124C16.0124 33.2964 16.198 33.1279 16.3346 32.9223C20.3346 27.0123 24.5946 20.8424 29.3346 14.0924C28.9823 20.2263 27.9561 26.3029 26.2745 32.2124C25.968 32.2273 25.6711 32.324 25.4146 32.4924C25.1252 32.4574 24.8316 32.4887 24.5562 32.584C24.2807 32.6792 24.0305 32.8361 23.8246 33.0424C23.6785 33.2075 23.5807 33.4096 23.5419 33.6266C23.5031 33.8435 23.5248 34.067 23.6046 34.2724L23.5646 34.2824Z" fill="#1E1E1E"/>
<path d="M49.5145 74.4824C39.4545 74.3424 29.2346 74.2625 19.1246 74.2625C18.9121 74.2432 18.6978 74.2679 18.4954 74.3352C18.2929 74.4025 18.1065 74.5109 17.9479 74.6536C17.7892 74.7963 17.6618 74.9702 17.5735 75.1644C17.4852 75.3587 17.4378 75.5691 17.4346 75.7825C17.4378 76.0011 17.4862 76.2166 17.5765 76.4157C17.6669 76.6147 17.7972 76.7931 17.9596 76.9395C18.1219 77.0859 18.3128 77.1972 18.5201 77.2665C18.7275 77.3358 18.9468 77.3617 19.1646 77.3424C29.2746 77.3424 39.4946 77.4224 49.5446 77.5724C49.752 77.5902 49.9609 77.5655 50.1584 77.4998C50.356 77.434 50.538 77.3286 50.6934 77.1901C50.8488 77.0515 50.9744 76.8827 51.0623 76.694C51.1502 76.5052 51.1985 76.3005 51.2046 76.0924C51.2034 75.8745 51.1584 75.6591 51.072 75.459C50.9857 75.2589 50.8598 75.0783 50.702 74.928C50.5442 74.7777 50.3577 74.6607 50.1537 74.5841C49.9497 74.5076 49.7322 74.473 49.5145 74.4824Z" fill="#1E1E1E"/>
</svg>
