<svg width="80" height="81" viewBox="0 0 80 81" fill="none" xmlns="http://www.w3.org/2000/svg">
<path d="M76.1167 19.8533C75.7867 20.1138 75.4367 20.4345 75.0767 20.7352C75.0567 20.6951 75.0367 20.655 75.0167 20.6149C74.7667 20.1539 74.5567 19.743 74.1967 19.3522C73.8267 18.9413 73.1967 18.8711 72.6767 18.9713C71.4767 19.2219 70.2667 20.214 69.3367 20.9958C68.8767 20.4345 68.4467 19.8533 68.0367 19.262C67.5867 18.6005 66.6467 18.2999 65.9067 18.7308C64.6567 19.4524 63.3767 20.1038 62.0667 20.7051C61.4367 19.7029 60.6467 18.6306 59.5367 18.6105C58.6867 18.5905 57.8767 19.2319 57.2267 19.6729C56.9167 19.8833 56.6067 20.1038 56.2967 20.3243C56.1967 20.4045 56.0367 20.5448 55.8767 20.6951C55.1867 19.8733 54.9067 18.7007 53.6267 18.5404C52.1667 18.35 50.6667 20.2942 49.7067 21.116C48.2167 22.3888 50.4267 24.4734 51.9167 23.2006C52.2967 22.8699 52.7067 22.459 53.1267 22.0781C53.2567 22.2485 53.3867 22.4289 53.5267 22.5892C54.0367 23.1605 54.6767 23.852 55.5167 23.9622C56.9767 24.1527 57.9667 22.7195 59.1167 21.9178C59.2067 22.0681 59.2767 22.1884 59.2867 22.1984L60.1167 23.3509C60.6267 24.0625 61.4367 24.2228 62.2467 23.8821C63.5867 23.3108 64.8867 22.6694 66.1567 21.9779C66.9467 23.1505 67.9967 24.4734 69.2167 24.4734C70.5967 24.4834 71.4167 23.0603 72.5067 22.2786C72.9167 23.1605 73.1967 24.1326 74.3967 24.2829C75.8167 24.4633 77.3267 22.6995 78.3167 21.9278C79.8667 20.7252 77.6467 18.6506 76.1167 19.8533Z" fill="#FBB03B"/>
<path d="M78.1264 50.801C77.5464 50.6106 77.1164 50.0093 76.6664 49.6485C76.1264 49.2176 75.5564 48.8668 74.8564 48.7265C73.4164 48.4258 72.2164 49.2075 71.2064 50.0794C71.0564 50.2097 70.5664 50.781 70.3664 50.791C70.5064 50.781 69.8764 50.3701 69.7464 50.2799C69.3964 50.0393 69.0364 49.8489 68.6164 49.7587C67.1764 49.4581 66.1764 50.36 65.2864 51.272C65.2264 51.3322 65.1564 51.3923 65.0864 51.4625C64.8064 50.9213 64.1764 50.35 63.6164 50.0594C61.8164 49.1173 60.0564 50.2197 58.9064 51.5025C58.7064 51.2921 58.5164 51.0816 58.4664 51.0215C58.0664 50.4302 57.7764 49.7186 57.0764 49.3579C55.1364 48.3557 53.9164 50.5204 52.9664 51.723C51.7564 53.2363 54.4664 54.7096 55.6564 53.2163C55.7364 53.1161 55.8464 52.9958 55.9564 52.8756C56.2664 53.2664 56.6464 53.6472 56.9064 53.9078C58.0764 55.1004 59.5964 55.1906 60.7864 53.9679C61.1164 53.6272 61.7564 52.615 62.1864 52.6851C62.3764 52.7152 62.8964 53.6272 63.1564 53.8577C64.2164 54.8198 65.7164 54.7897 66.8364 53.9679C67.2264 53.6773 67.7264 53.2664 67.9864 52.8655C67.9264 52.9557 67.9964 52.8756 68.0764 52.7854C68.0864 52.7854 68.0864 52.7954 68.0964 52.7954C68.2764 52.9357 68.4564 53.076 68.6464 53.2063C69.7764 53.9279 71.0364 53.8777 72.1564 53.1862C72.6564 52.8756 73.6664 51.5527 74.2764 51.6328C74.6564 51.6829 75.2064 52.4145 75.4764 52.635C76.0364 53.096 76.6064 53.4268 77.3064 53.6573C79.2064 54.2586 80.0264 51.4124 78.1264 50.801Z" fill="#FBB03B"/>
<path d="M78.6364 77.4993C77.7064 76.6875 76.7664 75.8757 75.8364 75.064C75.2564 74.5629 74.1964 74.4326 73.6264 75.064C73.2864 75.4448 72.9464 75.8156 72.5764 76.1664C72.4064 76.3267 71.6264 76.898 71.9164 76.888C71.6664 76.898 70.9364 76.1463 70.7664 76.006C70.3864 75.7154 70.0064 75.4147 69.6164 75.1241C68.1564 74.0518 66.7764 74.3725 65.7664 75.7755C65.6064 76.006 65.4164 76.447 65.1164 76.5572C65.0664 76.8178 64.9464 76.7677 64.7464 76.4169C64.6264 76.3067 64.5164 76.1864 64.3964 76.0662C63.7964 75.4849 63.1764 74.623 62.2764 74.4326C61.5064 74.2722 60.7464 74.603 60.2964 75.1943C60.1464 75.3947 59.9664 75.986 59.7164 76.3568C58.7064 75.1943 57.5364 73.8212 55.8564 73.9114C54.2564 74.0016 53.8164 75.3446 53.0864 76.3768C52.5164 75.7054 51.8564 75.1041 51.0964 74.633C49.9764 73.9515 48.2764 73.9515 47.6764 75.2744C47.0364 76.6875 48.7264 77.9503 49.7864 77.4091C49.8164 77.4291 49.8364 77.4392 49.8764 77.4592C50.0864 77.6396 50.2964 77.83 50.4864 78.0204C50.8864 78.4313 51.1964 78.8823 51.4864 79.3634C51.9164 80.085 52.8764 80.2553 53.6164 79.8945C54.6764 79.3734 55.2564 78.4814 55.8564 77.5494C55.9164 77.4592 56.0664 77.2788 56.1964 77.1084C56.2064 77.1185 56.2164 77.1285 56.2264 77.1385C56.7264 77.6396 57.2464 77.9904 57.6664 78.5716C58.4664 79.6741 59.4864 79.8645 60.7464 79.2431C61.2864 78.9725 61.7564 78.6017 62.1364 78.1507C62.1464 78.1407 62.1464 78.1307 62.1564 78.1307C62.3764 78.3512 62.5964 78.5817 62.8364 78.7821C63.4664 79.3032 64.2164 79.664 65.0764 79.6239C65.8564 79.5839 66.5564 79.2331 67.1564 78.7721C67.4664 78.5316 67.7264 78.271 67.9664 77.9703C67.9964 77.9302 68.0564 77.8601 68.1264 77.7699C68.1464 77.7799 68.1564 77.7899 68.1764 77.7899C68.3064 77.8902 68.4364 77.9804 68.5564 78.0806C68.9364 78.3712 69.3264 78.6618 69.7064 78.9625C70.3564 79.4536 71.0364 80.0248 71.9364 80.0048C73.0364 79.9847 74.0464 79.1028 74.8664 78.2109C75.3864 78.6618 75.9064 79.1128 76.4264 79.5738C77.9064 80.8767 80.1164 78.7921 78.6364 77.4993Z" fill="#FBB03B"/>
<path d="M22.3468 39.1654C20.8368 35.1065 16.5968 31.0777 11.8368 31.3984C11.0268 31.208 10.1868 31.218 9.37677 31.5086C4.16677 33.3126 1.89677 39.3758 2.99677 44.2765C4.17677 49.5581 10.0068 51.9233 15.2268 51.2418C21.3368 50.4501 24.3168 44.4469 22.3468 39.1654Z" fill="#00A99D"/>
<path d="M23.4465 7.64652C21.4965 4.13884 17.7965 2.41507 14.3765 2.81595C13.4265 2.38501 12.2865 2.23468 10.9865 2.51529C5.05648 3.78807 1.43648 11.6954 2.78648 16.9569C4.48648 23.5914 13.2365 25.9967 19.2365 23.0201C25.3365 20.0136 26.4565 13.0784 23.4465 7.64652Z" fill="#FBB03B"/>
<path d="M25.8765 68.4196C25.2865 65.0823 23.3765 61.3742 20.2765 59.5201C19.2865 58.9288 18.1965 58.568 17.0665 58.3876C15.6365 57.4456 13.7365 57.185 11.7765 58.2874C10.6865 58.8988 9.66652 59.7105 8.75652 60.6526C8.68652 60.7027 8.61652 60.7528 8.55652 60.8129C7.27652 61.9154 6.36652 63.3184 5.92652 64.8017C3.67652 69.6022 3.91652 75.4049 8.84652 78.4716C16.5865 83.2821 27.4565 77.279 25.8765 68.4196Z" fill="#FBB03B"/>
<path d="M22.5765 36.0185C23.0465 35.317 23.5165 34.5954 23.9465 33.8738C24.9265 32.2102 22.2365 30.7269 21.2565 32.3805C21.0065 32.8015 20.7465 33.2224 20.4765 33.6433C18.8965 32.3004 16.9465 31.3583 14.8565 31.0376C12.8965 30.7269 12.0465 33.5731 14.0265 33.8838C15.8065 34.1644 17.4865 34.9662 18.7565 36.1588C18.2265 36.8804 17.6665 37.5919 17.0865 38.2834C16.2965 39.2055 15.4765 40.0974 14.6065 40.9593C14.1865 41.3702 13.7665 41.7811 13.3265 42.182C13.1065 42.3824 12.8565 42.643 12.6065 42.8735C12.4065 42.7031 12.2065 42.5227 12.0065 42.3423C11.6265 42.0116 11.2565 41.6709 10.8865 41.3301C10.1165 40.6186 9.3565 39.897 8.6065 39.1554C7.2165 37.7823 5.0165 39.8669 6.3965 41.2399C7.8965 42.7232 9.4365 44.3467 11.1665 45.5794C12.2965 46.3912 13.4065 46.0905 14.3965 45.2587C15.1665 44.6073 15.9065 43.9158 16.6265 43.2042C18.0365 41.8212 19.3465 40.348 20.5665 38.7946C20.5965 38.8848 20.6465 38.9549 20.6765 39.0451C21.5965 41.7711 20.4465 44.8478 17.9965 46.5215C15.0765 48.5158 11.2365 47.6038 8.3665 45.9803C5.6965 44.477 2.3465 41.27 3.1965 38.0329C4.0965 34.5753 7.4565 31.9897 11.0665 31.3483C13.0365 30.9975 12.2065 28.1513 10.2365 28.502C5.8965 29.2737 2.1965 32.2803 0.576499 36.1388C-1.3135 40.6085 1.7365 45.0683 5.4765 47.694C9.1165 50.2496 14.3465 51.6928 18.5865 49.6383C22.3365 47.8243 24.6165 43.6752 24.0365 39.7366C23.8265 38.4238 23.3165 37.151 22.5765 36.0185Z" fill="#1E1E1E"/>
<path d="M22.5665 62.196C22.9865 61.6247 23.4065 61.0635 23.8465 60.5123C24.0765 60.2317 24.0965 59.7005 24.0065 59.3798C23.9065 59.0391 23.6265 58.6682 23.2865 58.4979C22.9265 58.3175 22.4865 58.2273 22.0865 58.3475L21.7165 58.4979C21.4865 58.6282 21.2965 58.8086 21.1565 59.029C20.9465 59.2996 20.7365 59.5802 20.5265 59.8508C17.2965 56.9846 12.7065 55.812 8.27654 56.3832C7.43654 56.4935 6.99654 57.5057 7.18654 58.1972C7.18654 58.1972 7.18654 58.2072 7.19654 58.2072C7.18654 58.2072 7.17654 58.2072 7.17654 58.2173C2.16654 59.8508 -0.473462 65.6535 0.0765378 70.3939C0.616538 75.0441 4.35654 79.0829 9.36654 79.6842C12.1265 80.0149 15.0665 79.0428 17.5665 78.0206C19.7465 77.1286 21.5865 75.7155 22.7665 73.7512C24.8665 70.2235 24.8265 65.6134 22.5665 62.196ZM20.7565 70.7547C19.5165 74.4728 15.6165 75.916 11.8865 76.6376C8.33654 77.3291 4.72654 75.0942 3.58654 71.8872C2.85654 69.8226 3.01654 67.5978 3.81654 65.5734C4.54654 63.7293 5.94654 61.7049 7.99654 61.0434C8.91654 60.7428 9.18654 59.911 9.01654 59.2094C9.04654 59.2094 9.07654 59.2094 9.10654 59.2094C12.4965 58.7685 16.1765 59.8709 18.6065 62.1659C17.5865 63.3385 16.5665 64.511 15.5465 65.6836C14.9465 66.3751 14.3465 67.0666 13.7465 67.7481C13.4465 68.0889 13.1465 68.4396 12.8465 68.7804C12.7165 68.9307 12.5865 69.081 12.4565 69.2314C12.2865 69.1412 12.1065 69.061 11.9365 68.9708C11.4965 68.7303 11.0565 68.4697 10.6465 68.1891C9.85654 67.6579 9.15654 67.0366 8.50654 66.3651C7.93654 65.7838 6.87654 65.8139 6.29654 66.3651C5.67654 66.9464 5.72654 67.8684 6.29654 68.4496C7.37654 69.5521 8.62654 70.5242 9.98654 71.3059C10.6465 71.6867 11.3665 72.0776 12.1065 72.3181C13.2265 72.6789 13.9665 72.1177 14.6365 71.346C16.5665 69.1311 18.4965 66.9063 20.4165 64.6914C21.3065 66.5755 21.4265 68.7303 20.7565 70.7547Z" fill="#1E1E1E"/>
<path d="M23.8163 2.71575C23.1163 3.41728 22.4063 4.1088 21.6963 4.81033C21.6763 4.79029 21.6663 4.77024 21.6463 4.7502C18.0863 1.13229 12.3663 -1.36317 7.31631 0.811585C2.79631 2.74582 0.256307 7.37594 0.136307 11.9359C0.0663068 14.6318 0.816307 17.5281 2.52631 19.7129C3.87631 21.4567 6.01631 22.6794 8.27631 22.6594C8.45631 22.94 8.76631 23.1504 9.22631 23.2206C14.1463 23.9522 18.6863 21.4267 21.5563 17.7587C23.9863 14.6519 24.9563 10.7433 23.4363 7.3559C24.2963 6.50404 25.1663 5.66219 26.0263 4.80031C27.3963 3.41728 25.1963 1.33272 23.8163 2.71575ZM21.1363 10.5529C21.1763 12.2165 20.5163 13.81 19.6163 15.2131C17.8663 17.929 14.6063 20.4245 11.1063 20.4345C10.8963 19.743 10.2363 19.2118 9.30631 19.5225C5.21631 20.8855 3.32631 15.4035 3.25631 12.5172C3.17631 9.15985 4.70631 5.66219 7.83631 3.87829C11.4863 1.80376 15.4363 3.50748 18.4063 5.90272C18.8063 6.23344 19.1863 6.57419 19.5263 6.945C18.2163 8.21778 16.9063 9.48055 15.5763 10.7333C14.9163 11.3546 14.2563 11.976 13.5963 12.5873C13.2463 12.9181 12.8963 13.2388 12.5363 13.5695C12.5063 13.5895 12.4763 13.6196 12.4463 13.6396C11.1163 12.7878 10.0463 11.6353 9.23631 10.3324C8.21631 8.69884 5.52631 10.1821 6.54631 11.8257C7.59631 13.5194 8.99631 14.9525 10.6963 16.075C11.5763 16.6562 12.6063 17.1173 13.6463 16.556C14.5963 16.0449 15.3863 15.0628 16.1563 14.3412C17.7963 12.8078 19.4263 11.2645 21.0363 9.70103C21.0863 9.98164 21.1263 10.2623 21.1363 10.5529Z" fill="#1E1E1E"/>
<path d="M47.5765 7.26561C42.1265 7.34578 36.6865 7.35581 31.2365 7.28565C29.2265 7.25559 29.2265 10.2121 31.2365 10.2321C36.6865 10.3023 42.1265 10.2922 47.5765 10.2121C49.5765 10.192 49.5865 7.23554 47.5765 7.26561Z" fill="#00A99D"/>
<path d="M78.4865 13.0282C62.6865 12.9982 46.8865 13.1886 31.0965 13.5995C29.0965 13.6496 29.0865 16.606 31.0965 16.5459C46.8865 16.135 62.6865 15.9446 78.4865 15.9747C80.4965 15.9847 80.4965 13.0382 78.4865 13.0282Z" fill="#1E1E1E"/>
<path d="M47.9166 34.8459C42.6266 34.9161 37.3366 34.9762 32.0466 35.0464C30.0366 35.0764 30.0366 38.0229 32.0466 37.9928C37.3366 37.9227 42.6266 37.8625 47.9166 37.7924C49.9166 37.7723 49.9266 34.8159 47.9166 34.8459Z" fill="#00A99D"/>
<path d="M75.9864 42.6231C68.5364 43.1743 61.0564 43.3647 53.5864 43.1643C49.8564 43.0641 46.1164 42.8737 42.3964 42.583C38.6764 42.3024 34.9564 41.9517 31.2264 42.2623C29.2464 42.4327 29.2264 45.3792 31.2264 45.2088C34.9564 44.8881 38.6764 45.2388 42.3964 45.5295C46.1164 45.8201 49.8564 46.0105 53.5864 46.1108C61.0564 46.3112 68.5364 46.1208 75.9864 45.5696C77.9764 45.4192 77.9964 42.4728 75.9864 42.6231Z" fill="#1E1E1E"/>
<path d="M46.2864 62.2561C41.6164 61.9554 36.9264 61.7149 32.3064 62.5968C31.4764 62.7572 31.0064 63.6792 31.2164 64.4108C31.4564 65.2226 32.3064 65.5934 33.1364 65.4431C37.4664 64.6213 41.9164 64.9319 46.2864 65.2125C47.1264 65.2627 47.8464 64.491 47.8464 63.7393C47.8464 62.8875 47.1264 62.3062 46.2864 62.2561Z" fill="#00A99D"/>
<path d="M77.8764 69.4216C62.9264 68.72 47.9464 68.69 32.9964 69.3414C30.9964 69.4316 30.9864 72.378 32.9964 72.2878C47.9464 71.6364 62.9264 71.6565 77.8764 72.368C79.8864 72.4682 79.8764 69.5118 77.8764 69.4216Z" fill="#1E1E1E"/>
</svg>
