<svg width="358" height="375" viewBox="0 0 358 375" fill="none" xmlns="http://www.w3.org/2000/svg">
<path d="M347.536 304.765C333.077 337.639 294.449 319.546 270.37 313.911C243.19 307.063 215.297 300.577 187.894 294.31L110.768 276.092C85.6089 270.084 55.8535 268.418 39.4478 245.924C32.387 236.988 31.2251 220.386 39.4208 211.178C91.9887 150.924 144.875 91.393 197.233 31.6728C200.411 28.0447 204.327 25.1384 208.718 23.1486C209.317 21.8688 210.158 20.7168 211.193 19.7556C222.41 10.4318 241.463 11.0371 249.504 23.5254C276.028 65.21 297.378 109.974 313.081 156.827C321.439 180.524 328.856 205.143 335.762 229.547C339.245 240.231 341.981 251.217 344.974 261.682C348.725 276.056 354.632 289.541 347.536 304.765Z" fill="#F9F9F9"/>
<path d="M231.355 254.413L234.956 256.025C236.232 256.595 237.538 257.165 238.797 257.734C239.942 258.241 241.659 259.483 242.661 258.019C243.154 257.347 242.988 256.635 242.942 255.9C242.896 255.364 242.868 254.8 242.799 254.248C242.696 253 242.564 251.736 242.381 250.499C242.057 248.075 241.438 245.7 240.537 243.424C240.455 243.266 240.342 243.126 240.204 243.012C240.066 242.899 239.906 242.814 239.735 242.764C239.563 242.713 239.383 242.698 239.205 242.718C239.027 242.739 238.855 242.795 238.7 242.883C238.641 242.921 238.588 242.97 238.545 243.025C238.312 243.082 238.094 243.187 237.904 243.333C234.778 245.743 231.607 248.135 228.487 250.568C228.252 250.778 228.092 251.058 228.032 251.367C227.972 251.675 228.015 251.995 228.155 252.277C228.744 253.524 230.187 253.883 231.355 254.413ZM238.562 246.267C239.045 247.768 239.403 249.305 239.633 250.864C239.799 251.918 239.908 252.96 240.011 254.014C240.051 254.407 240.085 254.806 240.148 255.216L239.003 254.715L236.003 253.376L233.112 252.072C232.666 251.861 232.208 251.673 231.761 251.462C234.034 249.725 236.284 247.987 238.562 246.267Z" fill="#DCDCDC"/>
<path d="M335.399 25.5617L339.306 25.3008C340.686 25.1953 342.1 25.0954 343.48 25.0233C344.7 24.94 346.784 25.2231 346.989 23.5023C347.102 22.6975 346.625 22.1646 346.239 21.5484C345.944 21.1099 345.671 20.6437 345.336 20.1996C344.655 19.1727 343.945 18.1458 343.207 17.1744C341.783 15.2408 340.124 13.4832 338.267 11.94C338.121 11.8406 337.956 11.7712 337.782 11.736C337.608 11.7008 337.428 11.7006 337.254 11.7354C337.08 11.7702 336.914 11.8392 336.768 11.9383C336.622 12.0374 336.498 12.1645 336.404 12.3119C336.369 12.3719 336.346 12.4378 336.336 12.5062C336.157 12.6597 336.013 12.8489 335.916 13.0612C334.32 16.5638 332.69 20.0608 331.089 23.6078C330.985 23.8927 330.978 24.2028 331.07 24.4918C331.161 24.7808 331.345 25.0334 331.594 25.212C332.696 25.9891 334.121 25.6449 335.399 25.5617ZM337.863 15.2649C338.991 16.3333 340.028 17.4898 340.964 18.7231C341.606 19.5501 342.191 20.3883 342.781 21.2542C342.997 21.5762 343.218 21.9037 343.462 22.2256L342.242 22.3089L338.988 22.5365L335.842 22.7363C335.359 22.7363 334.865 22.814 334.383 22.8362C335.535 20.3106 336.682 17.7905 337.863 15.2649Z" fill="#DCDCDC"/>
<path d="M254.677 278.19L255.813 281.821C256.216 283.107 256.619 284.42 256.994 285.71C257.341 286.842 257.511 288.875 259.266 288.699C260.09 288.633 260.521 288.067 261.055 287.567C261.43 287.199 261.833 286.826 262.191 286.43C263.066 285.562 263.941 284.672 264.753 283.766C266.374 282.005 267.77 280.061 268.911 277.976C268.977 277.817 269.009 277.647 269.006 277.475C269.002 277.304 268.963 277.135 268.89 276.978C268.818 276.822 268.713 276.681 268.583 276.565C268.453 276.448 268.299 276.359 268.133 276.301C268.063 276.288 267.992 276.288 267.922 276.301C267.729 276.165 267.509 276.072 267.275 276.026C263.435 275.263 259.584 274.477 255.716 273.719C255.409 273.684 255.099 273.746 254.832 273.894C254.564 274.042 254.352 274.27 254.228 274.543C253.66 275.735 254.319 277.009 254.677 278.19ZM265.497 278.311C264.675 279.606 263.744 280.834 262.714 281.981C262.027 282.766 261.305 283.502 260.578 284.238C260.306 284.513 260.01 284.788 259.76 285.095C259.641 284.716 259.527 284.337 259.408 283.958L258.482 280.937C258.181 279.954 257.914 278.992 257.596 278.009C257.466 277.553 257.312 277.103 257.182 276.647C259.953 277.196 262.719 277.74 265.497 278.311Z" fill="#FBB03B"/>
</svg>
