<svg width="358" height="375" viewBox="0 0 358 375" fill="none" xmlns="http://www.w3.org/2000/svg">
<path d="M9.47516 69.6539C23.9344 36.78 62.562 54.8727 86.6415 60.5075C113.821 67.3555 141.714 73.8411 169.117 80.1081L246.243 98.3269C271.402 104.335 301.158 106 317.563 128.494C324.624 137.431 325.786 154.032 317.59 163.24C265.023 223.494 212.136 283.025 159.778 342.746C156.6 346.374 152.685 349.28 148.293 351.27C147.694 352.55 146.854 353.702 145.818 354.663C134.601 363.987 115.549 363.381 107.508 350.893C80.9829 309.208 59.6328 264.444 43.9305 217.591C35.5726 193.894 28.1548 169.275 21.2488 144.871C17.7659 134.187 15.0304 123.201 12.0375 112.736C8.28627 98.3623 2.3794 84.8774 9.47516 69.6539Z" fill="#F9F9F9"/>
<path d="M125.656 120.005L122.055 118.393C120.779 117.824 119.474 117.254 118.214 116.684C117.069 116.177 115.352 114.935 114.35 116.399C113.858 117.072 114.023 117.784 114.069 118.519C114.115 119.054 114.144 119.618 114.212 120.171C114.315 121.418 114.447 122.683 114.63 123.919C114.955 126.343 115.574 128.719 116.474 130.994C116.556 131.153 116.669 131.293 116.807 131.406C116.945 131.52 117.105 131.604 117.277 131.655C117.448 131.705 117.629 131.721 117.806 131.7C117.984 131.68 118.156 131.624 118.311 131.535C118.371 131.497 118.423 131.449 118.466 131.393C118.699 131.336 118.917 131.231 119.107 131.085C122.233 128.676 125.404 126.283 128.524 123.851C128.759 123.641 128.919 123.36 128.979 123.052C129.039 122.743 128.996 122.424 128.856 122.142C128.267 120.894 126.824 120.535 125.656 120.005ZM118.449 128.152C117.966 126.651 117.608 125.113 117.378 123.554C117.212 122.501 117.103 121.458 117 120.404C116.96 120.011 116.926 119.612 116.863 119.202L118.008 119.703L121.008 121.042L123.899 122.347C124.345 122.557 124.803 122.745 125.25 122.956C122.977 124.694 120.727 126.431 118.449 128.152Z" fill="#DCDCDC"/>
<path d="M21.6122 348.857L17.7055 349.118C16.3256 349.223 14.9116 349.323 13.5317 349.395C12.3108 349.478 10.2268 349.195 10.0224 350.916C9.90884 351.721 10.3859 352.254 10.772 352.87C11.0673 353.309 11.3398 353.775 11.6748 354.219C12.3562 355.246 13.0661 356.273 13.8043 357.244C15.2286 359.178 16.8874 360.935 18.7446 362.478C18.8904 362.578 19.0554 362.647 19.2295 362.682C19.4036 362.718 19.5832 362.718 19.7574 362.683C19.9316 362.648 20.0969 362.579 20.2429 362.48C20.389 362.381 20.5129 362.254 20.6071 362.107C20.642 362.047 20.6652 361.981 20.6753 361.912C20.8544 361.759 20.9977 361.57 21.0956 361.357C22.6912 357.855 24.321 354.358 25.9223 350.811C26.026 350.526 26.0328 350.216 25.9417 349.927C25.8507 349.638 25.6666 349.385 25.4168 349.206C24.3152 348.429 22.8899 348.774 21.6122 348.857ZM19.1479 359.154C18.0198 358.085 16.9828 356.929 16.0473 355.695C15.4056 354.868 14.8207 354.03 14.2302 353.164C14.0144 352.842 13.7929 352.515 13.5488 352.193L14.7696 352.11L18.0234 351.882L21.1693 351.682C21.652 351.682 22.1461 351.604 22.6287 351.582C21.476 354.108 20.329 356.628 19.1479 359.154Z" fill="#DCDCDC"/>
<path d="M102.335 96.2281L101.199 92.5971C100.795 91.3117 100.392 89.9989 100.017 88.708C99.6707 87.5764 99.5003 85.5439 97.7452 85.7197C96.9216 85.7856 96.4898 86.3514 95.9559 86.8513C95.581 87.2193 95.1778 87.5929 94.8199 87.9884C93.9452 88.8563 93.0706 89.7462 92.2584 90.6525C90.637 92.414 89.241 94.3579 88.1006 96.4423C88.0344 96.6014 88.0021 96.7718 88.0056 96.9433C88.0091 97.1147 88.0483 97.2837 88.121 97.4402C88.1937 97.5966 88.2982 97.7372 88.4284 97.8537C88.5586 97.9701 88.7118 98.0599 88.8787 98.1177C88.9481 98.1304 89.0195 98.1304 89.0889 98.1177C89.2818 98.2532 89.5026 98.3469 89.7364 98.3924C93.576 99.156 97.4271 99.9415 101.295 100.7C101.602 100.734 101.912 100.673 102.18 100.525C102.447 100.376 102.659 100.149 102.783 99.8756C103.351 98.6835 102.692 97.4091 102.335 96.2281ZM91.5143 96.1073C92.3359 94.8121 93.2668 93.5847 94.2974 92.4378C94.9847 91.6523 95.7061 90.9162 96.4331 90.1801C96.7057 89.9055 97.001 89.6308 97.251 89.3232C97.3702 89.7022 97.4839 90.0813 97.6032 90.4603L98.529 93.4815C98.83 94.4648 99.097 95.4261 99.4151 96.4094C99.5457 96.8653 99.6991 97.3157 99.8297 97.7717C97.0579 97.2224 94.2918 96.6785 91.5143 96.1073Z" fill="#FBB03B"/>
</svg>
