<svg width="104" height="160" viewBox="0 0 104 160" fill="none" xmlns="http://www.w3.org/2000/svg">
<path d="M71.5042 55.9303L71.7042 55.5977C71.5667 55.5618 71.431 55.5191 71.2979 55.4697L71.5042 55.9303Z" fill="white"/>
<path d="M87.9305 145.397C88.4723 146.779 89.788 147.674 90.8715 148.301C92.211 149.157 93.6748 149.804 95.2119 150.22C95.6097 150.31 96.0163 150.357 96.4243 150.361C96.8071 150.386 97.1905 150.323 97.545 150.178C97.8994 150.033 98.2156 149.808 98.4688 149.523C100.636 146.964 97.7335 139.205 96.3792 135.988C94.6349 131.861 92.5241 127.897 90.0718 124.142L89.5429 123.336V124.295C89.5429 127.724 89.3623 131.254 89.0721 134.792C88.8319 138.093 88.2638 141.362 87.3759 144.553L87.3179 144.757L87.492 144.872C87.6879 145 87.8407 145.182 87.9305 145.397ZM92.8063 135.009C92.8874 134.873 92.9965 134.755 93.1265 134.664C93.2565 134.573 93.4045 134.509 93.5608 134.478C93.6937 134.444 93.8324 134.437 93.968 134.459C94.1035 134.481 94.2329 134.531 94.3477 134.606C94.8634 134.983 95.2541 135.505 95.4699 136.103C95.5924 136.416 95.6956 136.743 95.7988 137.075L96.9402 140.555C96.9854 140.695 96.9984 140.844 96.9784 140.99C96.9583 141.136 96.9056 141.276 96.8242 141.399C96.6783 141.647 96.4504 141.837 96.1793 141.936C95.8888 142.008 95.5815 141.967 95.3211 141.82C95.0606 141.674 94.8668 141.434 94.7797 141.15L93.722 137.907C93.6188 137.6 93.5221 137.299 93.4189 136.986L93.3286 136.755V136.691L93.2126 136.512L93.1674 136.448L93.1094 136.378C92.907 136.22 92.7649 135.998 92.7063 135.75C92.6477 135.501 92.6761 135.24 92.7869 135.009H92.8063Z" fill="white"/>
<path d="M50.079 92.7354H49.6921C48.5904 92.8056 47.4852 92.8056 46.3835 92.7354C46.2689 92.7293 46.1548 92.7165 46.0417 92.697H45.8418L45.7451 92.8761C45.6323 93.0959 45.5074 93.3095 45.371 93.5157L45.1904 93.9507L45.5258 94.0019C47.0414 94.2513 48.3248 94.4113 49.5631 94.5008H49.9501L49.8662 94.1298C49.8243 93.9488 49.8243 93.7607 49.8662 93.5797L50.079 92.7354Z" fill="white"/>
<path d="M47.0996 81.3113C47.4672 85.0532 46.5256 87.6693 44.2103 89.3068L43.9136 89.4987L43.3848 89.8185L43.9716 90.0168L44.6166 90.1959C45.7353 90.4501 46.8807 90.5703 48.0283 90.5541C49.2149 90.5541 50.4081 90.4581 51.5819 90.3622L52.4074 90.2983C55.0124 90.1752 57.5953 89.7632 60.1079 89.0702C60.3401 88.9998 60.5787 88.9102 60.8625 88.7951L61.3397 88.5968L60.9205 88.2962C60.8045 88.213 60.6884 88.1298 60.5787 88.0403C58.336 86.1548 56.8846 83.5062 56.5092 80.6141L56.464 80.2878L56.148 80.3774C54.8881 80.7226 53.5855 80.8906 52.2784 80.8763H52.201C50.9885 80.8763 49.7438 80.7804 48.641 80.7036L46.8674 80.5821L47.0286 80.9915C47.0652 81.0948 47.089 81.2022 47.0996 81.3113Z" fill="white"/>
<path d="M76.7023 106.443C76.0574 106.443 75.4511 106.481 74.832 106.488L36.4261 106.859H34.3752H34.3365C32.4726 106.859 30.5507 106.859 28.6611 106.948H27.8098C25.7911 106.999 23.5016 107.057 21.7538 107.94C20.006 108.822 19.2515 111.183 18.742 113.575C18.3479 115.746 18.1322 117.945 18.097 120.15V120.432C17.7895 125.454 17.7636 130.489 18.0196 135.514C18.1743 137.926 18.4975 140.324 18.987 142.691C19.4321 144.764 20.0447 146.913 21.5216 148.595C21.6122 148.696 21.6823 148.813 21.728 148.941L21.8119 149.145H22.0376C22.2621 149.115 22.48 149.048 22.6825 148.947C22.8097 148.876 22.95 148.83 23.0951 148.814C23.2403 148.797 23.3873 148.81 23.5274 148.851C23.8404 148.949 24.1021 149.165 24.2562 149.452C24.3875 149.688 24.4287 149.963 24.3722 150.226C24.3354 150.365 24.2684 150.494 24.176 150.605C24.0835 150.715 23.9678 150.804 23.837 150.866C23.5156 151.035 23.1696 151.154 22.8115 151.218L20.0125 151.749L22.8631 151.787H25.5525H26.0104H28.7836L72.5231 152.26H74.3289H75.206C76.4959 152.26 77.8825 152.299 79.2239 152.299H79.6819C81.425 152.356 83.1662 152.14 84.8414 151.659L85.2734 151.518L84.9639 151.192C84.19 150.386 82.3841 150.367 81.1588 150.361H80.5138C78.3984 150.265 76.1927 150.181 73.9677 150.124C58.2893 149.695 42.3659 150.271 27.0036 150.827C26.8158 150.852 26.6248 150.824 26.4525 150.746C26.2803 150.668 26.1337 150.543 26.0297 150.386C25.9247 150.197 25.8697 149.985 25.8697 149.769C25.8697 149.553 25.9247 149.341 26.0297 149.152C26.1198 148.98 26.2559 148.835 26.4231 148.735C26.5904 148.635 26.7823 148.582 26.9778 148.582H27.1713C31.8019 148.416 36.568 148.243 41.2566 148.103C51.3692 147.796 59.2052 147.687 66.6542 147.751C71.0655 147.796 75.335 147.898 79.3465 148.071H80.0559C81.1476 148.082 82.2375 148.161 83.3193 148.307L83.5579 148.339L83.6417 148.115C83.6489 148.079 83.662 148.045 83.6805 148.013C86.028 142.858 86.6407 137.216 86.9051 132.873C87.1244 129.329 87.3695 124.66 87.2147 119.965L87.1825 119.837C87.1053 119.713 87.0613 119.572 87.0545 119.426C87.0477 119.281 87.0785 119.136 87.1438 119.005L87.1825 118.941V118.865C87.1825 118.123 87.1115 117.381 87.0535 116.639C86.9277 114.245 86.5472 111.872 85.9184 109.558C85.3573 107.69 84.0416 106.692 81.7843 106.411C80.0919 106.294 78.3931 106.304 76.7023 106.443ZM29.1706 110.997L24.4045 111.432H24.082C23.82 111.441 23.56 111.481 23.3081 111.553L23.0888 111.624L22.9083 111.893C22.8788 111.959 22.8443 112.023 22.8051 112.084C22.6668 112.426 22.5463 112.774 22.4439 113.127L22.3923 113.3C22.0956 114.246 21.8376 115.219 21.6248 116.255C21.5934 116.388 21.5349 116.514 21.4528 116.624C21.3707 116.734 21.2669 116.826 21.1476 116.895C20.8718 117.062 20.5403 117.115 20.2253 117.042C19.94 116.954 19.6995 116.761 19.5531 116.503C19.4067 116.245 19.3657 115.941 19.4385 115.654C19.6757 114.498 19.9815 113.358 20.3543 112.238C20.7155 111.138 21.1282 110.108 22.115 109.615C22.9743 109.267 23.8954 109.093 24.8237 109.104L25.6041 109.053L29.1835 108.726C29.317 108.719 29.4505 108.74 29.5758 108.786C29.7012 108.832 29.8157 108.903 29.9122 108.995C30.0341 109.103 30.1323 109.235 30.2011 109.383C30.2698 109.53 30.3076 109.69 30.3121 109.852C30.3072 110.152 30.1858 110.439 29.9731 110.652C29.7604 110.865 29.4729 110.989 29.1706 110.997ZM80.5783 143.337L80.7009 143.273V143.139C80.7202 143.057 80.7439 142.976 80.7718 142.896L80.8427 142.685C80.9653 142.288 81.0814 141.892 81.1975 141.495C81.4168 140.734 81.6296 139.928 81.8424 139.096C81.9267 138.812 82.119 138.571 82.3788 138.424C82.6386 138.277 82.9457 138.236 83.2354 138.31C83.5032 138.373 83.7349 138.538 83.8804 138.77C84.0488 139.049 84.1042 139.38 84.0352 139.698C83.8288 140.561 83.5966 141.444 83.3451 142.314C83.2999 142.461 83.2613 142.614 83.2226 142.768C83.0873 143.528 82.7662 144.244 82.2874 144.853C81.5761 145.434 80.7168 145.808 79.8044 145.934C79.3284 146.039 78.8457 146.112 78.3598 146.152C78.1792 146.152 77.9986 146.152 77.818 146.152H77.7342L77.5987 146.19C77.3818 146.313 77.1268 146.351 76.8828 146.299C76.5585 146.228 76.2744 146.035 76.0896 145.762C75.9428 145.502 75.9037 145.196 75.9808 144.908C76.0578 144.62 76.2449 144.373 76.5023 144.22C76.9197 143.984 77.3962 143.871 77.8761 143.894C78.0824 143.894 78.2823 143.894 78.4823 143.855H78.579L78.8112 143.817C79.2103 143.743 79.6045 143.645 79.9915 143.523C80.1901 143.471 80.386 143.409 80.5783 143.337Z" fill="white"/>
<path d="M55.4384 44.3528C53.4762 46.7011 50.9779 48.5518 48.1506 49.7514C47.5572 50.1543 46.951 50.5509 46.3318 50.9219L45.1129 51.6383C45.1418 51.6539 45.1698 51.671 45.1968 51.6895C45.3018 51.7895 45.3851 51.9098 45.4417 52.0429C45.4982 52.1759 45.5268 52.319 45.5257 52.4634C45.5287 52.6138 45.5011 52.7633 45.4446 52.9028C45.3881 53.0424 45.3038 53.1693 45.1968 53.2758C44.8232 53.5861 44.3814 53.8052 43.9069 53.9154L43.5651 54.0178C43.0814 54.1777 42.5977 54.3632 42.172 54.5295L42.0044 54.6063L41.6754 54.7534C41.4691 54.8429 41.2627 54.9389 41.0305 55.0476C40.9306 55.1045 40.8338 55.1664 40.7403 55.2331L40.6177 55.3994C40.5149 55.6596 40.3201 55.8739 40.0697 56.0022C39.8193 56.1304 39.5304 56.164 39.2569 56.0966C38.9803 56.0135 38.7484 55.8249 38.612 55.5721C38.4973 55.379 38.4435 55.1562 38.4572 54.9325C36.2115 55.8467 33.7856 56.2426 31.3629 56.0902C31.2791 57.2416 31.1694 58.5273 30.3117 59.3204C30.1641 59.4579 29.9834 59.5553 29.7868 59.6035C29.5903 59.6517 29.3846 59.6489 29.1895 59.5955H29.0798L28.9767 59.6402C28.8519 59.7044 28.7164 59.7456 28.5768 59.7618C28.5055 59.7734 28.4373 59.7992 28.3764 59.8377C28.3154 59.8762 28.2629 59.9265 28.2221 59.9856C28.0332 60.2777 27.9554 60.6269 28.0028 60.9707C28.1619 61.5344 28.4876 62.0379 28.938 62.4163C29.4082 62.841 29.9082 63.2322 30.4342 63.5868C30.9838 63.9503 31.5015 64.359 31.982 64.8086C32.864 65.766 33.6045 66.8428 34.1813 68.0068L34.3877 68.3777C35.1229 69.657 35.9162 70.9363 36.7481 72.1388C38.038 74.013 39.56 75.9191 41.5529 77.1153C43.391 78.2282 45.558 78.3178 47.654 78.3945H47.7572C48.1635 78.3945 48.5698 78.3945 48.9696 78.4521L49.6146 78.4969C50.5368 78.5608 51.472 78.6248 52.4007 78.6248C53.9536 78.6829 55.499 78.3829 56.9153 77.7485C59.0371 76.7187 60.5978 74.9085 62.0231 73.1431C63.4484 71.3777 65.2478 69.1325 66.8601 66.7019C67.5111 65.5819 68.3896 64.6083 69.4399 63.8427C69.725 63.6644 70.02 63.5021 70.3234 63.3566C71.034 63.0803 71.6558 62.6183 72.1228 62.0197C72.7097 61.0986 71.8132 60.1008 71.1489 59.3588L70.8394 59.007C70.1836 58.2334 69.6408 57.3721 69.227 56.4484C68.7922 55.4535 68.5243 54.3948 68.4338 53.3142C65.2091 51.8302 61.9264 50.391 59.108 48.3058C57.667 47.2047 56.4259 45.8679 55.4384 44.3528ZM43.004 59.2437V59.1413C42.9253 58.7084 42.8822 58.2699 42.875 57.83C42.8816 57.4583 43.033 57.1035 43.2975 56.8399C43.562 56.5764 43.9191 56.4246 44.2939 56.4164C44.4754 56.4123 44.6559 56.4447 44.8244 56.5118C44.9929 56.5789 45.1459 56.6792 45.2742 56.8066C45.4147 56.9385 45.5271 57.0971 45.6046 57.2729C45.6822 57.4487 45.7233 57.6382 45.7256 57.83C45.7259 58.074 45.7431 58.3176 45.7772 58.5592V58.636C45.8463 59.0315 45.8894 59.4311 45.9062 59.8321C45.9086 60.1414 45.8784 60.4502 45.8159 60.7532C45.8047 60.8033 45.7896 60.8525 45.7708 60.9003C45.8081 61.2095 45.7472 61.5226 45.5967 61.7958C45.4046 62.1108 45.0973 62.34 44.7389 62.4355C44.6262 62.4703 44.5087 62.4876 44.3906 62.4867C44.14 62.4766 43.8942 62.4157 43.6683 62.3075C43.4875 62.2151 43.3277 62.0868 43.199 61.9305C43.0703 61.7743 42.9754 61.5934 42.9202 61.3993C42.8423 61.1058 42.8423 60.7972 42.9202 60.5037C42.9202 60.4078 42.9717 60.3182 42.9975 60.2287L43.0556 60.0432C43.0578 59.7758 43.0406 59.5086 43.004 59.2437ZM48.4279 74.8765C48.3759 75.0351 48.292 75.1816 48.1811 75.3069C48.0702 75.4323 47.9347 75.5339 47.7829 75.6057C47.669 75.6693 47.5425 75.7074 47.4121 75.7173C47.2818 75.7273 47.1508 75.7088 47.0284 75.6633C45.0799 74.9921 43.235 74.0557 41.5464 72.8808C39.9569 71.7346 38.7253 70.1673 37.9928 68.3586C37.9493 68.2343 37.9326 68.1023 37.9437 67.9712C37.9548 67.84 37.9935 67.7127 38.0574 67.5974C38.2068 67.298 38.4683 67.0684 38.7861 66.9577C39.0774 66.8878 39.3846 66.9309 39.6449 67.0784C39.9051 67.2259 40.0986 67.4665 40.1856 67.7509L40.2437 67.9044L40.3791 68.1794C40.4759 68.3713 40.579 68.5568 40.6887 68.7423C40.7983 68.9278 40.9015 69.0622 41.0176 69.2221L41.1273 69.3756L41.2627 69.5419C41.5299 69.8554 41.8164 70.1524 42.1204 70.431C42.2623 70.5589 42.4107 70.6932 42.5654 70.8148C42.7202 70.9363 42.7267 70.9491 42.8492 71.0387C44.3246 72.0509 45.9268 72.868 47.6153 73.4693C47.7629 73.507 47.9013 73.5737 48.0225 73.6654C48.1437 73.757 48.2451 73.8718 48.3208 74.0029C48.3966 74.1341 48.445 74.279 48.4634 74.429C48.4818 74.579 48.4697 74.7312 48.4279 74.8765ZM52.2975 66.6891C52.1836 67.0453 51.9767 67.3653 51.6977 67.6166C51.1823 68.0334 50.5585 68.2973 49.8984 68.3777C49.4035 68.4673 48.8929 68.4072 48.4328 68.2053C47.9728 68.0034 47.5846 67.6691 47.3186 67.2456C47.1397 66.9367 47.0359 66.5906 47.0155 66.2349C47.0141 66.0871 47.0431 65.9405 47.1007 65.8041C47.1584 65.6677 47.2435 65.5444 47.3509 65.4418C47.5635 65.2365 47.8474 65.1197 48.1442 65.1156C48.4459 65.1287 48.7335 65.2464 48.9567 65.4482C49.0923 65.5846 49.1881 65.7547 49.2341 65.9407L49.2921 66.1518H49.5114H49.7049L49.8854 66.1006L50.079 66.0431V65.8448C50.0945 65.6585 50.1495 65.4776 50.2402 65.3139C50.3897 65.0606 50.6325 64.8749 50.9174 64.7958C51.2118 64.7229 51.5231 64.7641 51.788 64.9109C52.0379 65.0681 52.2231 65.3085 52.3104 65.5889C52.4341 65.9447 52.4387 66.3306 52.3233 66.6891H52.2975ZM56.5992 60.8875L56.4638 61.201C56.2728 61.5142 55.9682 61.7431 55.6125 61.8406C55.4928 61.8742 55.3692 61.8914 55.2449 61.8918C54.9854 61.8897 54.7306 61.8237 54.5032 61.6999C54.3416 61.6045 54.2012 61.4777 54.0904 61.3271C53.9795 61.1765 53.9006 61.0052 53.8583 60.8236C53.6984 59.7503 53.6466 58.664 53.7035 57.5806C53.7189 57.216 53.8653 56.8688 54.1162 56.6019C54.3806 56.3364 54.7397 56.1847 55.1159 56.1798C55.4959 56.1879 55.8591 56.3361 56.1349 56.5955C56.2692 56.7278 56.3755 56.8853 56.4475 57.0588C56.5194 57.2324 56.5557 57.4185 56.5541 57.6062C56.496 58.5346 56.5283 59.4664 56.6508 60.3886C56.6711 60.5552 56.6624 60.7239 56.625 60.8875H56.5992ZM59.9916 53.2118C60.0244 53.2696 60.061 53.3252 60.1012 53.3781L60.1464 53.4165C60.2726 53.5308 60.3746 53.6688 60.4466 53.8226C60.5186 53.9763 60.559 54.1426 60.5656 54.312C60.5807 54.7174 60.4348 55.1125 60.1593 55.4122C60.0373 55.5444 59.8888 55.6497 59.7233 55.7213C59.5578 55.7929 59.3789 55.8292 59.1983 55.828C58.8115 55.8241 58.4387 55.6835 58.1471 55.4314C57.8951 55.194 57.678 54.9227 57.5021 54.6254L57.3151 54.3568C56.9063 54.1039 56.4745 53.8898 56.0252 53.7171C55.6406 53.5525 55.2381 53.4323 54.8257 53.359C54.665 53.3306 54.512 53.2693 54.3765 53.179C54.241 53.0887 54.126 52.9713 54.0388 52.8344C53.8033 52.4778 53.7198 52.0431 53.8067 51.6255C53.9053 51.2712 54.1358 50.9672 54.4516 50.7748C54.7795 50.5942 55.1637 50.5417 55.5286 50.6277C56.4853 50.8289 57.4053 51.174 58.2567 51.6511C58.7146 51.8597 59.1282 52.1527 59.4756 52.5146C59.6814 52.736 59.863 52.9782 60.0174 53.2374L59.9916 53.2118Z" fill="white"/>
<path d="M62.8423 18.6775C61.5524 17.4686 59.6821 17.1744 58.3729 17.0593C57.3588 16.9688 56.3404 16.9325 55.3223 16.9505H54.9289V17.2576V16.9697C54.1569 16.9472 53.3847 17.0095 52.6265 17.1552C52.3046 17.238 52.0129 17.4091 51.7847 17.649C51.5565 17.8889 51.4012 18.1878 51.3366 18.5113C51.1754 18.9718 51.04 19.4452 50.8981 19.9505L50.8271 20.1999C55.1955 19.7997 59.6008 20.1767 63.8355 21.3129C63.897 20.8267 63.8387 20.333 63.6657 19.8741C63.4928 19.4151 63.2102 19.0045 62.8423 18.6775Z" fill="white"/>
<path d="M42.2819 95.6201L41.6369 95.505C40.0611 95.3035 38.5331 94.8294 37.1224 94.1042L37.045 94.053H36.9483C36.7184 94.0737 36.4889 94.01 36.3033 93.8739C36.1731 93.788 36.0502 93.6917 35.9357 93.5861L35.7745 93.4389L35.5875 93.5541C31.1693 96.2829 27.4845 100.034 24.8493 104.486L24.5591 104.978L25.133 104.914C26.8099 104.735 28.5061 104.69 30.0991 104.665C32.0167 104.635 33.9278 104.613 35.8325 104.601L71.9488 104.255H74.29C75.7669 104.255 77.2954 104.223 78.8045 104.217H79.2366L79.069 103.82C76.9935 98.9166 73.3007 94.8571 68.5952 92.3068L67.9503 91.9613L67.7761 91.8718L67.6278 91.9997C67.221 92.3352 66.775 92.6208 66.2992 92.8505L66.0993 92.9592C61.3629 95.5486 56.0287 96.8712 50.6209 96.797C47.8139 96.6272 45.0252 96.2336 42.2819 95.6201ZM67.4343 95.7417C67.5185 95.4574 67.7111 95.2168 67.9712 95.0711C68.2313 94.9254 68.5385 94.886 68.8274 94.9613C70.1302 95.3936 71.3077 96.1333 72.2585 97.1169C72.6917 97.5492 73.0967 98.0086 73.471 98.4921C73.9956 99.0871 74.4182 99.7635 74.7221 100.494C74.7635 100.615 74.7796 100.744 74.7696 100.871C74.7597 100.999 74.7238 101.123 74.6641 101.236C74.5132 101.537 74.2491 101.767 73.9288 101.876C73.6377 101.943 73.3319 101.898 73.0724 101.751C72.813 101.604 72.619 101.365 72.5293 101.083L72.4906 100.993L72.4133 100.852C72.3294 100.718 72.2391 100.584 72.1488 100.456C72.0585 100.328 72.0134 100.27 71.9425 100.181C70.9493 98.9015 69.8141 97.6222 68.2276 97.1297C67.9402 97.0447 67.6971 96.8528 67.5492 96.594C67.4014 96.3353 67.3602 96.0298 67.4343 95.7417Z" fill="white"/>
<path d="M60.4951 91.2641L60.5403 91.5072C60.5403 91.5904 60.5854 91.6799 60.6241 91.8014L60.8047 92.0829C60.8659 92.15 60.9305 92.2141 60.9982 92.2748C61.0646 92.3283 61.1232 92.3907 61.1723 92.4603L61.3077 92.633L61.5077 92.5562C62.2493 92.2812 62.8943 92.0189 63.4425 91.763C63.9907 91.5072 64.4679 91.2897 64.9194 91.0467L65.4353 90.7716L64.9065 90.5349C64.5453 90.375 64.1906 90.2087 63.8423 90.0424L63.7198 89.9849L63.5973 90.0424C62.5138 90.5221 61.598 90.8804 60.7015 91.181L60.4951 91.2641Z" fill="white"/>
<path d="M38.7542 92.3835L38.9219 92.4539C38.8832 92.3579 38.8445 92.2684 38.7994 92.1724C38.7801 92.0731 38.7672 91.9727 38.7607 91.8718L38.2383 92.1149L38.7542 92.3835Z" fill="white"/>
<path d="M16.7878 143.337C16.1756 140.386 15.8004 137.392 15.6656 134.382C15.4433 130.138 15.4433 125.885 15.6656 121.641L15.7366 120.304L15.0917 121.5C14.1694 123.304 13.3374 124.992 12.5699 126.668C9.79594 132.695 7.4743 138.916 5.62398 145.282C5.21767 146.683 4.75335 148.269 5.90134 149.535C6.34932 149.99 6.88986 150.345 7.48703 150.577C8.08419 150.809 8.72429 150.911 9.36463 150.879H9.74512C13.0665 150.706 16.259 148.704 17.8649 147.521L18.0519 147.386L17.9551 147.175C17.432 145.94 17.0407 144.653 16.7878 143.337ZM11.0931 139.96C10.8018 140.866 10.5861 141.795 10.4481 142.736C10.3901 143.197 10.3578 143.58 10.3385 143.939C10.3317 144.243 10.2037 144.532 9.98257 144.743C9.7614 144.954 9.46505 145.069 9.15825 145.064C8.87038 145.057 8.59702 144.937 8.39723 144.732C8.28933 144.631 8.20417 144.509 8.14747 144.373C8.09076 144.238 8.0638 144.092 8.06831 143.945C8.14553 142.392 8.42072 140.856 8.88735 139.371C8.95968 139.132 9.10804 138.923 9.31027 138.774C9.51251 138.625 9.75782 138.545 10.0096 138.546C10.1029 138.547 10.1958 138.558 10.2869 138.578C10.4241 138.619 10.5519 138.686 10.6626 138.776C10.7734 138.866 10.8649 138.977 10.9318 139.103C11.0172 139.227 11.0756 139.367 11.1034 139.515C11.1312 139.662 11.1277 139.814 11.0931 139.96Z" fill="white"/>
<path d="M22.663 42.261C22.6206 40.9436 22.6961 39.625 22.8887 38.3208C22.4297 39.4797 22.0821 40.6791 21.8504 41.9028C21.2796 44.8549 21.4816 47.9029 22.4372 50.7554C22.9725 52.3162 24.6236 56.0261 28.3449 56.6657C28.4263 56.6824 28.5061 56.7059 28.5835 56.7361L28.9446 56.8896L29.0865 55.5592C24.3075 53.717 22.8178 46.7513 22.663 42.261Z" fill="white"/>
<path d="M66.0545 21.5815C66.0545 21.7223 66.0029 21.8566 65.9707 21.9845L66.1062 22.0293C66.0982 21.8791 66.0809 21.7296 66.0545 21.5815Z" fill="white"/>
<path d="M2.35419 134.779C3.28934 135.246 4.0697 133.839 3.14099 133.372C2.70512 133.162 2.3235 132.855 2.02527 132.476L3.11521 132.061C3.66985 131.849 4.32766 131.677 4.61788 131.107C4.9081 130.538 4.49534 129.867 4.13418 129.348L3.59245 128.562C4.45689 128.394 5.30496 128.152 6.12704 127.839C6.26056 127.796 6.38064 127.719 6.47577 127.617C6.57089 127.514 6.63784 127.389 6.67022 127.254C6.7026 127.118 6.69931 126.977 6.66066 126.843C6.622 126.709 6.5493 126.587 6.44951 126.489C5.90521 125.894 5.43333 125.237 5.04356 124.532C6.04263 124.556 7.04143 124.474 8.02315 124.289C8.14132 124.252 8.24939 124.188 8.33924 124.103C8.42909 124.019 8.49838 123.915 8.54185 123.8C8.58532 123.684 8.60183 123.561 8.59019 123.439C8.57854 123.316 8.53904 123.198 8.47462 123.093C8.08337 122.556 7.75044 121.979 7.48139 121.372C7.77243 121.374 8.06332 121.357 8.35208 121.321C8.99701 121.231 10.0612 121.129 10.2482 120.362C10.4352 119.594 9.70643 118.878 9.34526 118.315L8.80354 117.47L10.2159 117.362C11.2543 117.285 11.2156 115.679 10.1772 115.756L7.37176 115.961C7.23206 115.971 7.0972 116.016 6.98009 116.092C6.86298 116.168 6.76755 116.273 6.70286 116.396C6.63816 116.519 6.60639 116.657 6.61059 116.795C6.61479 116.934 6.6548 117.07 6.72683 117.189C7.26212 118.027 7.86191 118.852 8.3714 119.709C7.75251 119.815 7.12 119.815 6.50112 119.709C6.36256 119.677 6.218 119.682 6.0817 119.722C5.94539 119.762 5.82204 119.837 5.72376 119.939C5.62549 120.041 5.55569 120.167 5.52123 120.304C5.48678 120.44 5.48885 120.584 5.52726 120.72C5.75353 121.483 6.06503 122.219 6.45597 122.914C5.61646 122.995 4.77028 122.98 3.93425 122.869C3.38605 122.799 2.70887 123.259 2.96039 123.886C3.36538 124.889 3.90094 125.835 4.5534 126.7C3.78755 126.935 3.00178 127.1 2.20583 127.193C2.06612 127.203 1.93127 127.248 1.81416 127.324C1.69705 127.4 1.60161 127.505 1.53692 127.628C1.47223 127.751 1.44045 127.889 1.44465 128.028C1.44885 128.166 1.48887 128.302 1.56089 128.421L2.45736 129.7C2.59925 129.892 2.82499 130.148 2.99267 130.397L2.86367 130.449L2.13489 130.724L0.670879 131.287C0.466329 131.349 0.294739 131.488 0.193318 131.675C0.0918969 131.862 0.0688473 132.081 0.129155 132.284C0.540601 133.356 1.33155 134.243 2.35419 134.779Z" fill="white"/>
<path d="M16.0394 36.6451C16.4052 36.7383 16.7932 36.687 17.1216 36.5021C17.45 36.3171 17.6932 36.013 17.8 35.6537C17.8839 35.417 17.9677 35.1804 18.0645 34.9437L18.2192 34.5791C18.3998 34.1697 18.5997 33.7603 18.8126 33.3573C19.2643 32.5107 19.775 31.6964 20.3411 30.9203L20.6184 30.5493L21.0118 30.0696C21.3278 29.6986 21.6568 29.3404 21.9792 29.0078C22.3017 28.6752 22.6241 28.3682 22.966 28.0611C23.153 27.8884 23.3465 27.7285 23.54 27.5622L23.9076 27.268C24.2265 27.076 24.4598 26.7709 24.5604 26.4146C24.661 26.0583 24.6213 25.6774 24.4493 25.3491C24.1939 24.9798 23.8025 24.7248 23.3594 24.639C23.2863 24.6353 23.2131 24.6353 23.1401 24.639C22.9233 24.6356 22.7117 24.7056 22.5403 24.8373C19.1123 27.4326 16.5142 30.9557 15.059 34.9821C15.0105 35.1493 14.997 35.3247 15.0191 35.4974C15.0413 35.67 15.0988 35.8364 15.188 35.9863C15.2771 36.1479 15.3986 36.2897 15.545 36.403C15.6914 36.5163 15.8596 36.5987 16.0394 36.6451Z" fill="white"/>
<path d="M102.906 156.226C89.9298 156.808 76.5152 157.416 63.1779 157.659C51.0596 157.876 38.7349 157.659 26.8165 157.435L1.57373 156.987C1.42885 156.982 1.28441 157.006 1.14939 157.059C1.01436 157.111 0.891629 157.19 0.788814 157.292C0.685999 157.393 0.60531 157.514 0.551726 157.648C0.498143 157.781 0.472809 157.925 0.477329 158.068C0.466729 158.218 0.487187 158.368 0.537437 158.509C0.587687 158.65 0.666653 158.78 0.769447 158.89C0.872241 158.999 0.996671 159.087 1.13502 159.147C1.27336 159.207 1.42269 159.238 1.57373 159.239L13.4276 159.456C21.9214 159.616 31.5503 159.795 40.9792 159.93C44.1394 159.981 47.3706 160 50.5823 160C60.05 160 69.8916 159.808 80.6556 159.418C87.9627 159.149 95.3924 158.817 102.583 158.491H102.906C103.06 158.483 103.212 158.444 103.351 158.376C103.49 158.309 103.614 158.215 103.716 158.099C103.818 157.983 103.895 157.849 103.943 157.703C103.991 157.557 104.009 157.403 103.996 157.25C104 157.109 103.974 156.969 103.92 156.839C103.866 156.71 103.785 156.592 103.682 156.496C103.579 156.399 103.457 156.325 103.323 156.279C103.189 156.232 103.047 156.214 102.906 156.226Z" fill="white"/>
<path d="M86.8597 100.552C86.6511 100.427 86.4358 100.314 86.2147 100.213C85.6794 99.9888 85.0925 99.9057 84.7378 100.501C84.5822 100.77 84.5382 101.089 84.6152 101.39C84.6445 101.511 84.6978 101.626 84.772 101.727C84.8461 101.828 84.9397 101.913 85.0473 101.978C86.297 102.627 87.4695 103.412 88.5429 104.319C89.4201 105.084 90.0392 106.098 90.3165 107.223C90.439 107.863 90.5616 108.65 91.3548 108.688C91.5314 108.691 91.7066 108.658 91.8696 108.59C92.0327 108.523 92.1802 108.424 92.3029 108.298C92.8382 107.722 92.3544 106.379 92.1029 105.739C91.763 104.887 91.274 104.101 90.6583 103.417C89.5509 102.271 88.2692 101.304 86.8597 100.552Z" fill="white"/>
<path d="M60.6499 15.1723L61.1658 15.3002L61.2755 15.1851C61.3465 15.1211 61.4238 15.07 61.5012 15.006C61.34 14.8653 61.1787 14.7309 61.0046 14.603L60.9079 14.5391C60.8498 14.635 60.7918 14.731 60.7402 14.8333L60.6499 15.1723Z" fill="white"/>
<path d="M58.9405 93.4199L58.7341 93.0936C58.7151 93.0539 58.6935 93.0155 58.6696 92.9785C58.5276 92.7025 58.4276 92.4072 58.3729 92.1022L58.3149 91.8271L58.0311 91.8783C56.2556 92.1885 54.4643 92.402 52.6653 92.5179H52.4589L51.9688 94.4944H52.3492C54.4532 94.4025 56.5394 94.0698 58.5664 93.503L58.9405 93.4199Z" fill="#00A99D"/>
<path d="M38.922 92.4539C40.022 92.9068 41.1781 93.2123 42.3595 93.3622H42.5659L42.6497 93.1703C42.7024 93.0585 42.7744 92.9568 42.8626 92.8697C42.9971 92.7428 43.1242 92.6082 43.243 92.4667L43.5268 92.1469L43.1141 92.0126C42.2434 91.7247 41.4243 91.3729 40.7407 91.0787L40.6311 91.0339L40.4441 91.1107C39.8701 91.341 39.3089 91.5904 38.7607 91.8463C38.7673 91.9472 38.7802 92.0476 38.7994 92.1469C38.8446 92.2684 38.8833 92.358 38.922 92.4539Z" fill="#00A99D"/>
<path d="M50.8208 20.1807V20.3086H51.2078C53.7397 20.2363 56.2701 20.4943 58.7342 21.0761C60.1973 21.4255 61.6364 21.8677 63.0423 22.4002L63.2293 22.4642L63.3583 22.3234C63.6212 22.0395 63.7959 21.6864 63.8614 21.3064C59.6172 20.1621 55.2006 19.7808 50.8208 20.1807Z" fill="#FBB03B"/>
<path d="M81.3133 16.7268C82.3465 17.018 83.4512 16.9271 84.4219 16.4709C84.6669 16.3562 84.8859 16.1933 85.0655 15.992C85.2451 15.7908 85.3816 15.5555 85.4667 15.3004C85.5381 15.0429 85.7042 14.8212 85.9322 14.6792C86.1602 14.5371 86.4336 14.4848 86.6985 14.5328H86.7759H86.834C86.9858 14.4939 87.144 14.4857 87.2992 14.5088C87.4543 14.5319 87.6032 14.5857 87.7369 14.6671C87.8588 14.7342 87.9653 14.8257 88.0497 14.9358C88.134 15.046 88.1945 15.1723 88.227 15.3068C88.51 16.4966 88.4676 17.7398 88.1045 18.908C87.7324 19.8513 87.1107 20.6777 86.3051 21.3002C85.3965 21.9856 84.3723 22.5054 83.2804 22.8353L82.9773 22.9377C82.6548 23.0464 82.3323 23.1616 81.9776 23.2575L81.5713 23.3726L81.8293 23.7053C82.3859 24.4848 83.0945 25.1456 83.9131 25.6488C84.7317 26.152 85.6438 26.4873 86.5953 26.6348C87.728 26.7459 88.8671 26.5013 89.852 25.9354C90.8368 25.3696 91.6175 24.5111 92.0837 23.4814V23.4174V23.3471C92.0928 23.0952 92.1818 22.8525 92.3382 22.6538C92.4945 22.4551 92.7102 22.3104 92.9544 22.2405C93.1877 22.1577 93.4433 22.162 93.6736 22.2527C93.9039 22.3433 94.093 22.5141 94.2055 22.733C94.9664 24.0741 95.3471 25.5943 95.3074 27.1326C95.2676 28.6709 94.8089 30.1698 93.9798 31.4705C92.2707 34.2785 89.3556 36.2166 87.2144 37.3488C86.039 37.9687 84.7723 38.4004 83.461 38.6281C84.7349 38.6866 86.0112 38.5857 87.2596 38.3275C94.7344 36.7731 99.6423 29.5708 95.8952 22.458C94.7666 20.3152 91.1034 19.6371 89.4459 21.6392C89.0709 22.0979 88.5955 22.4659 88.0558 22.7153C87.5161 22.9646 86.9262 23.0888 86.3309 23.0784C89.0396 21.2298 90.6132 18.7097 88.5817 15.537C87.079 13.1895 84.2155 12.9785 82.1324 14.7183C81.5249 15.2948 80.7602 15.6817 79.9331 15.8313C80.2974 16.2545 80.7764 16.5653 81.3133 16.7268Z" fill="#FBB03B"/>
<path d="M76.6632 37.1887L76.7857 37.8284C77.9613 43.8399 77.0878 50.0685 74.3027 55.5337C74.8938 55.3371 75.4283 55.0018 75.8606 54.5563C76.2929 54.1109 76.6103 53.5684 76.7857 52.9751C78.3268 48.1306 78.7522 43.0048 78.0305 37.9755C77.7553 37.8476 77.4844 37.7068 77.2179 37.5533L76.6632 37.1887Z" fill="#FBB03B"/>
<path d="M61.5011 15.0062C62.2409 14.3985 63.1657 14.056 64.126 14.034C65.1541 14.0584 66.1713 14.2486 67.1379 14.5968L68.0859 14.8783C68.3728 14.9619 68.6158 15.1526 68.7638 15.4103C68.9117 15.668 68.9531 15.9725 68.8792 16.2599C68.8434 16.3939 68.7811 16.5195 68.6958 16.6293C68.6106 16.7392 68.5041 16.831 68.3826 16.8995C68.2486 16.9803 68.0998 17.0337 67.9448 17.0568C67.7897 17.0799 67.6316 17.0721 67.4797 17.0339L66.6477 16.7908H66.551L65.8157 16.5669C65.4739 16.471 65.216 16.407 64.9516 16.3559H64.7387C64.6033 16.3559 64.4936 16.3559 64.3904 16.3559H64.2615H63.494L64.0873 16.8356C64.5448 17.2011 64.9448 17.6323 65.274 18.1149C65.9834 19.1408 66.2631 20.3999 66.0544 21.6265C66.0807 21.7746 66.098 21.9241 66.106 22.0743L65.9705 22.0295C65.8733 22.4065 65.7281 22.7698 65.5384 23.1105L65.3836 23.3855L65.6739 23.5135C67.251 24.1406 68.7629 24.9182 70.1884 25.8353C71.9427 27.0986 73.3541 28.7732 74.2966 30.7094L74.3547 30.8181H74.4708C74.6392 30.8733 74.7913 30.9687 74.9139 31.0958C75.0365 31.223 75.1257 31.378 75.1737 31.5473C75.4965 32.6247 76.0749 33.6097 76.8604 34.4198C77.6458 35.23 78.6155 35.8418 79.6883 36.2039C80.3876 36.4314 81.1193 36.5459 81.8553 36.543C83.4455 36.5051 84.9995 36.0647 86.3699 35.2637C87.9499 34.3938 93.09 31.2083 93.0836 26.8588V26.1679L92.587 26.6605C91.8081 27.452 90.8625 28.0631 89.8179 28.4501C88.7732 28.8371 87.6553 28.9904 86.5439 28.8992C83.3192 28.5666 80.301 26.3406 78.7273 23.0465C78.5832 22.7868 78.545 22.4822 78.6206 22.1954C78.6962 21.9086 78.8798 21.6615 79.1336 21.505C79.21 21.4594 79.2925 21.425 79.3787 21.4026H79.4625C79.605 21.308 79.7677 21.2473 79.9377 21.2251C80.1077 21.2029 80.2805 21.2199 80.4429 21.2747H80.5847H80.7718L81.4167 21.1084C81.8617 20.9869 82.3131 20.8589 82.7517 20.7118C83.1169 20.596 83.4726 20.4527 83.8159 20.2832C84.1646 20.1093 84.4989 19.9082 84.8155 19.682L84.951 19.5732C85.0222 19.5187 85.089 19.4589 85.1509 19.3942L85.3766 19.1703L86.2988 18.1724L85.0477 18.7161C82.8743 19.6436 80.1978 19.2534 78.6757 17.7886C77.4633 16.6245 76.8312 14.891 76.2702 13.3623L76.1734 13.0873C76.038 12.7227 75.909 12.3581 75.78 11.9935L75.5026 12.0894L75.7477 11.9103C75.2844 10.4739 74.6997 9.07882 74 7.73986C73.1507 6.08771 71.7962 4.74434 70.1304 3.90201C68.3193 3.04602 66.3648 2.5278 64.3646 2.37326C62.6749 2.22614 56.935 2.04704 53.8393 5.84651C52.8909 7.0662 52.3722 8.56088 52.3629 10.1011C52.3536 11.6414 52.8542 13.142 53.7877 14.3729C53.8417 14.4419 53.8872 14.5171 53.9231 14.5968L54.007 14.7695H54.194C54.6842 14.7695 55.1614 14.7695 55.6258 14.7695C56.5029 14.7695 57.2897 14.8079 58.1023 14.8783H58.3216L58.3925 14.6736C58.9056 13.3096 59.7707 12.1031 60.9013 11.1747C62.1801 10.1319 63.7289 9.46689 65.3707 9.25581C65.4871 9.24443 65.6046 9.25733 65.7157 9.29368C65.8268 9.33003 65.929 9.38905 66.0157 9.4669C66.1499 9.58162 66.26 9.72144 66.3397 9.87839C66.4194 10.0353 66.4671 10.2063 66.48 10.3816C66.4785 10.6802 66.3606 10.9667 66.1511 11.1811C66.0181 11.3087 65.8535 11.3991 65.6739 11.4434L65.3127 11.5202L65.0483 11.5713C64.8935 11.6033 64.7387 11.6417 64.5388 11.6992L63.6036 11.9423L63.7519 11.9935C63.5052 12.1084 63.2661 12.2387 63.0361 12.3837C62.9006 12.4668 62.7652 12.5564 62.6427 12.6459L62.5653 12.6971C62.5278 12.7208 62.4932 12.7487 62.4621 12.7802C62.1917 13.001 61.9374 13.2404 61.7011 13.4966C61.5937 13.6039 61.4925 13.7171 61.398 13.8357L61.2625 14.0211C61.1206 14.2194 61.011 14.4049 60.9013 14.5904L60.9981 14.6544C61.1851 14.7311 61.3399 14.8655 61.5011 15.0062Z" fill="#FBB03B"/>
<path d="M46.1837 20.8587C46.7899 20.7435 47.422 20.6412 48.183 20.5453H48.37V20.4685C41.5429 21.404 34.9929 23.7627 29.151 27.3894C28.8271 27.5846 28.5148 27.7981 28.2158 28.0291C30.001 26.8262 31.9021 25.802 33.8912 24.9716C37.832 23.177 41.9522 21.7985 46.1837 20.8587Z" fill="#00A99D"/>
<path d="M68.6338 50.1672L68.6919 49.8985L68.4274 49.8281C65.7142 49.1557 63.0984 48.1434 60.6431 46.8155C59.0828 46.001 57.6809 44.9181 56.5026 43.6172L56.264 43.323L56.0447 43.63C55.8512 43.8859 55.6449 44.129 55.4385 44.3784C56.4222 45.8925 57.6588 47.2293 59.0952 48.3314C61.9136 50.4166 65.2157 51.8558 68.421 53.3398C68.3248 52.2777 68.3967 51.2073 68.6338 50.1672Z" fill="#FBB03B"/>
<path d="M73.2322 33.8051C72.6292 32.226 71.8064 30.7383 70.7878 29.3852C69.6721 27.9588 68.1242 27.1208 66.499 26.3277C63.0798 24.576 59.4038 23.3694 55.6061 22.7521C54.4698 22.5891 53.3231 22.5079 52.175 22.509C45.0356 22.509 37.9865 25.4898 33.2655 27.7285C29.7506 29.4044 27.1645 31.3937 25.3651 33.8179C24.3421 35.1943 23.5092 36.7001 22.8885 38.2954C22.6959 39.5996 22.6204 40.9181 22.6628 42.2356C22.8176 46.7131 24.3074 53.6852 29.1122 55.5338L29.5249 51.6959L29.2669 51.6447C28.6994 51.536 28.1834 51.4272 27.6933 51.3121C27.5151 51.2765 27.3501 51.1933 27.216 51.0716C27.0819 50.9498 26.9838 50.7942 26.9323 50.6213C26.8779 50.4122 26.8777 50.1929 26.9319 49.9837C26.986 49.7746 27.0926 49.5824 27.2418 49.4251C27.376 49.2876 27.5449 49.1884 27.731 49.1377C27.917 49.0871 28.1134 49.087 28.2995 49.1373C29.0025 49.31 29.7635 49.4635 30.6148 49.5979H30.7374H30.8083C30.9401 49.6008 31.0698 49.6313 31.1888 49.6874H31.2598C35.8189 50.3427 40.4689 49.9465 44.8485 48.5297C49.8468 46.8858 53.6197 43.9498 55.4964 40.2143C55.6311 39.6232 55.9026 39.0713 56.2897 38.6024C56.4527 38.4192 56.6771 38.3008 56.9213 38.269C57.1656 38.2373 57.4132 38.2944 57.6182 38.4297C57.8511 38.5408 58.0363 38.7308 58.1404 38.9653C58.2444 39.1999 58.2605 39.4637 58.1858 39.709C58.0439 40.0864 57.8762 40.4702 57.6634 40.9243L57.6247 41.0011V41.0778C57.7085 41.8006 58.418 42.6322 59.7981 43.6364C60.9998 44.4795 62.278 45.2097 63.6162 45.8176C66.4524 47.0246 69.413 47.9211 72.4453 48.4913C72.619 48.5186 72.7819 48.5927 72.9161 48.7055C73.0503 48.8183 73.1507 48.9654 73.2063 49.1309C73.2641 49.3379 73.2683 49.556 73.2187 49.765C73.1691 49.974 73.0673 50.1673 72.9225 50.3271C72.791 50.477 72.6199 50.5875 72.4285 50.6463C72.2371 50.705 72.033 50.7097 71.8391 50.6596L70.9168 50.4614L70.8523 50.7428C70.5541 52.063 70.6006 53.4369 70.9877 54.7342C71.0627 54.9755 71.151 55.2125 71.2522 55.4442V55.4954C71.3854 55.5447 71.521 55.5874 71.6585 55.6233L71.7423 55.4698C73.6138 52.2009 74.7195 48.5563 74.9774 44.8059C75.2353 41.0555 74.6388 37.2957 73.2322 33.8051ZM29.3185 35.3722C29.0419 35.7702 28.8146 36.1997 28.6413 36.6515L28.4737 37.0353L28.4092 37.1888C28.306 37.4255 28.2157 37.6685 28.1189 37.9116C27.7449 38.8775 27.4095 39.8881 27.1193 40.9243C27.0309 41.222 26.8471 41.4829 26.5957 41.6676C26.3443 41.8523 26.0391 41.9506 25.7262 41.9477C25.6091 41.9476 25.4923 41.9348 25.378 41.9094C25.2006 41.8676 25.0341 41.789 24.8896 41.6787C24.7451 41.5684 24.6258 41.429 24.5395 41.2697C24.439 41.1043 24.3724 40.9209 24.3436 40.7299C24.3149 40.5388 24.3244 40.3441 24.3719 40.1567C24.675 39.0821 25.0168 38.0203 25.4296 37.0033C25.6424 36.4532 25.881 35.8903 26.1326 35.3082C26.3298 34.8185 26.583 34.3528 26.8871 33.9202C27.0365 33.676 27.257 33.4823 27.5196 33.3648C27.7821 33.2474 28.0745 33.2115 28.358 33.2621C28.6415 33.3126 28.9029 33.4472 29.1077 33.648C29.3126 33.8489 29.4513 34.1066 29.5056 34.3872C29.5456 34.5552 29.5496 34.7297 29.5174 34.8994C29.4851 35.069 29.4174 35.2301 29.3185 35.3722ZM70.3622 34.7774C70.238 34.8213 70.107 34.843 69.9752 34.8413C69.7504 34.8404 69.5291 34.7856 69.3303 34.6814C69.1541 34.59 68.9979 34.4649 68.8706 34.3135C68.7434 34.162 68.6475 33.987 68.5886 33.7987C68.56 33.6987 68.5255 33.6005 68.4854 33.5045C68.3498 33.2027 68.1834 32.9155 67.9888 32.6474C67.7779 32.3988 67.5448 32.1697 67.2923 31.9629C67.0345 31.7806 66.7603 31.6221 66.4732 31.4896L66.1314 31.3745C65.7727 31.27 65.4688 31.0317 65.2836 30.7096C65.0984 30.3875 65.0463 30.0068 65.1382 29.6474C65.1818 29.4713 65.2615 29.3059 65.3725 29.1617C65.4835 29.0175 65.6233 28.8976 65.7831 28.8095C65.9471 28.7088 66.1304 28.6432 66.3214 28.6167C66.5124 28.5903 66.7069 28.6037 66.8924 28.656C67.9422 28.9639 68.8982 29.5262 69.674 30.2923C70.4498 31.0584 71.021 32.0041 71.336 33.0439C71.429 33.4016 71.3798 33.7811 71.1985 34.1037C71.0172 34.4264 70.7178 34.6676 70.3622 34.7774Z" fill="#FBB03B"/>
<path d="M38.4511 54.9067C38.4577 54.8354 38.4707 54.7648 38.4898 54.6957C38.8445 53.5955 39.8635 53.071 40.8825 52.6296L41.7596 52.2586L44.3394 51.248L44.894 51.4783C44.985 51.5195 45.0697 51.5733 45.1455 51.6382L46.3645 50.9218C47.0094 50.5508 47.5898 50.1542 48.1832 49.7512C47.1353 50.2165 46.0582 50.6139 44.9585 50.9409L44.1846 51.1712L44.3458 51.2352L41.6693 51.7149C38.5067 52.2721 35.2815 52.3926 32.0856 52.0731H31.8018L31.4536 55.2713C31.4536 55.4952 31.4149 55.7255 31.3955 56.0133V56.0837C33.8068 56.2241 36.2188 55.8218 38.4511 54.9067Z" fill="#FBB03B"/>
<path d="M81.823 150.188C78.5983 150.009 75.4188 149.913 72.2199 149.926C72.1518 149.939 72.0817 149.939 72.0136 149.926C68.1762 149.689 64.313 149.887 60.4757 149.926C56.6383 149.964 52.6074 149.971 48.6733 149.99H48.6089C45.9066 149.99 43.2108 150.22 40.5085 150.239C37.8062 150.258 34.9556 150.31 32.1759 150.239C29.3963 150.169 26.6101 149.977 23.8756 150.239C22.6112 150.414 21.3698 150.725 20.1737 151.167C19.2312 151.43 18.3123 151.77 17.4263 152.184C17.5308 152.591 17.7553 152.959 18.0712 153.239C18.8387 153.943 20.006 153.962 20.896 153.975C24.3077 154.019 27.7194 154.051 31.1311 154.09L73.1551 154.544C75.1802 154.544 77.2052 154.595 79.2303 154.602H79.5206C81.8746 154.602 84.6156 154.442 87.0986 153.258C87.2683 153.157 87.4089 153.015 87.5072 152.845C87.6054 152.675 87.658 152.482 87.6597 152.286C87.7092 151.711 87.6116 151.132 87.3759 150.604C85.5378 150.418 83.6933 150.303 81.823 150.188Z" fill="#00A99D"/>
<path d="M2.09632 130.73L0.632304 131.293C0.427754 131.355 0.256165 131.495 0.154744 131.682C0.0533227 131.868 0.0302731 132.087 0.0905811 132.291C0.512909 133.367 1.31828 134.252 2.35431 134.779C3.28946 135.246 4.06982 133.839 3.14111 133.372C2.70524 133.162 2.32362 132.855 2.02539 132.476L3.11533 132.061C3.66997 131.849 4.32778 131.677 4.618 131.107C4.90822 130.538 4.49546 129.867 4.1343 129.348L3.59257 128.562C4.45701 128.394 5.30508 128.152 6.12716 127.839C6.26068 127.796 6.38076 127.719 6.47589 127.617C6.57101 127.514 6.63796 127.389 6.67034 127.254C6.70272 127.118 6.69943 126.977 6.66078 126.843C6.62212 126.709 6.54942 126.587 6.44963 126.489C5.90533 125.894 5.43345 125.237 5.04368 124.532C6.04275 124.556 7.04155 124.474 8.02327 124.289C8.14143 124.252 8.24951 124.188 8.33936 124.103C8.42921 124.019 8.4985 123.915 8.54197 123.8C8.58544 123.684 8.60195 123.561 8.59031 123.439C8.57866 123.316 8.53916 123.198 8.47474 123.093C8.08349 122.556 7.75056 121.979 7.48151 121.372C7.77255 121.374 8.06344 121.357 8.3522 121.321C8.99713 121.231 10.0613 121.129 10.2483 120.362C10.4353 119.594 9.70654 118.878 9.34538 118.315L8.80366 117.47L10.216 117.362C11.2544 117.285 11.2157 115.679 10.1773 115.756L7.37188 115.961C7.23218 115.971 7.09732 116.016 6.98021 116.092C6.8631 116.168 6.76767 116.273 6.70297 116.396C6.63828 116.519 6.60651 116.657 6.61071 116.795C6.61491 116.934 6.65492 117.07 6.72695 117.189C7.26224 118.027 7.86202 118.852 8.37152 119.709C7.75263 119.815 7.12012 119.815 6.50124 119.709C6.36268 119.677 6.21812 119.682 6.08182 119.722C5.94551 119.762 5.82216 119.837 5.72388 119.939C5.62561 120.041 5.55581 120.167 5.52136 120.304C5.4869 120.44 5.48897 120.584 5.52738 120.72C5.75365 121.483 6.06515 122.219 6.45609 122.914C5.61658 122.995 4.7704 122.98 3.93437 122.869C3.38617 122.799 2.70899 123.259 2.96051 123.886C3.3655 124.889 3.90106 125.835 4.55352 126.7C3.78767 126.935 3.0019 127.1 2.20595 127.193C2.06624 127.203 1.93139 127.248 1.81428 127.324C1.69717 127.4 1.60173 127.505 1.53704 127.628C1.47235 127.751 1.44057 127.889 1.44477 128.028C1.44897 128.166 1.48899 128.302 1.56101 128.421L2.45748 129.7C2.59937 129.899 2.82511 130.148 2.99279 130.397L2.86379 130.449L2.09632 130.73Z" fill="#00A99D"/>
<path d="M78.0178 37.9435C78.2177 38.033 78.4112 38.1226 78.6111 38.1993C80.1652 38.7854 81.8514 38.9381 83.4868 38.6407C81.5544 38.5334 79.6616 38.0532 77.9146 37.2271C77.9532 37.4637 77.9533 37.726 78.0178 37.9435Z" fill="#1E1E1E"/>
<path d="M55.4387 44.3529C55.2516 44.0714 55.0646 43.7964 54.8775 43.5085C52.9822 45.9291 50.7117 48.0362 48.1509 49.7515C50.9782 48.5519 53.4765 46.7012 55.4387 44.3529Z" fill="#1E1E1E"/>
<path d="M50.866 19.9315C51.0079 19.4261 51.1433 18.9528 51.3046 18.4923C51.3692 18.1688 51.5245 17.8699 51.7527 17.63C51.9808 17.3902 52.2726 17.219 52.5944 17.1362C53.3527 16.9904 54.1248 16.9282 54.8969 16.9507V17.2385V16.9507H55.2903C56.3083 16.9327 57.3267 16.969 58.3408 17.0595C59.6307 17.1746 61.5655 17.4688 62.8102 18.6777C63.1741 19.0034 63.4537 19.4111 63.6255 19.8664C63.7972 20.3217 63.856 20.8113 63.797 21.2939C64.5193 21.4986 65.2352 21.7289 65.9382 21.9847C65.9704 21.8568 65.9962 21.7225 66.022 21.5817C65.7769 19.6628 64.2355 17.8718 62.9908 16.5542C62.5071 16.0361 62.0105 15.4859 61.4688 15.0062C61.3914 15.0702 61.314 15.1214 61.243 15.1853L61.1334 15.3005L60.6174 15.1725L60.7077 14.8335C60.7593 14.7312 60.8174 14.6352 60.8754 14.5393C60.5145 14.2969 60.135 14.0831 59.7403 13.8996H59.6307C58.1345 17.4688 52.975 16.6565 51.9302 13.5862C51.4193 13.1202 51.0736 12.503 50.9447 11.8265C50.8157 11.1501 50.9102 10.4504 51.2143 9.83152C52.7686 6.05763 53.8327 3.65259 57.9345 2.28376C61.3075 1.15799 65.132 0.73581 68.5695 1.79122C70.1842 2.28818 71.6629 3.14479 72.8925 4.29556C74.1221 5.44633 75.0699 6.86079 75.6637 8.4307C76.4893 10.5799 77.1084 16.1704 79.9655 15.8761C79.2892 14.9772 78.7803 13.9655 78.4628 12.889L77.9662 11.5202C76.7537 8.17486 75.5026 4.72078 72.4069 2.63555C69.4273 0.627076 64.9965 -0.319597 60.8431 0.153738C58.76 0.390405 53.6586 1.38183 51.2723 5.49473C50.4601 6.92496 50.0414 8.54193 50.0584 10.1834C50.0754 11.8248 50.5274 13.4329 51.3691 14.8463L51.5239 15.115L51.2401 15.2493C49.5568 16.0296 49.028 17.9678 48.5636 19.6756L48.3379 20.4752C49.1505 20.3664 49.9567 20.2769 50.7693 20.2129L50.866 19.9315Z" fill="#1E1E1E"/>
<path d="M24.476 31.3297C22.2782 33.8842 20.7144 36.9139 19.9098 40.1759C18.9709 43.8091 19.0714 47.63 20.2001 51.2097C21.3609 54.7022 23.5408 57.3183 26.1657 58.3865L26.4946 58.5208L26.2947 58.815C25.9262 59.4036 25.7309 60.0827 25.7309 60.7755C25.7309 61.4684 25.9262 62.1474 26.2947 62.736C27.0314 63.7986 27.9822 64.6982 29.0872 65.3778L29.1969 65.4545C30.3464 66.2938 31.2809 67.3893 31.925 68.6527L31.9701 68.7295C34.4144 73.0599 37.7745 78.9638 43.1662 80.243C43.6578 80.3488 44.1552 80.4257 44.656 80.4733L45.0301 80.5117L44.8946 80.8571C44.8422 81.0114 44.8225 81.1747 44.8366 81.3368C44.9978 82.9296 45.0881 84.4647 44.4367 85.8143C43.7853 87.164 42.5406 87.8292 41.2636 88.4177L40.6187 88.6991H40.4639C39.3365 88.2639 38.0823 88.2823 36.9684 88.7503C36.4828 88.9725 36.0606 89.311 35.7397 89.7353C35.4188 90.1596 35.2094 90.6564 35.1303 91.1809V91.3216L35.0077 91.392C34.4982 91.6799 34.079 91.9293 33.7179 92.1788C28.9087 95.3251 24.9726 99.6182 22.2703 104.665C22.1612 104.859 22.114 105.082 22.1349 105.304V105.528L21.9156 105.605C18.7941 106.609 16.9302 109.692 16.2272 115.033V115.155L16.1241 115.225C15.9981 115.321 15.8928 115.44 15.8145 115.577C12.0729 122.224 8.8807 129.161 6.26944 136.32C5.62451 138.15 4.97959 140.005 4.39915 141.828C4.29596 142.154 4.18632 142.467 4.07669 142.826C3.54249 144.249 3.17251 145.727 2.97383 147.233C2.8965 148.086 3.03946 148.945 3.38924 149.728C3.73901 150.511 4.28412 151.194 4.97315 151.71L5.55357 152.171L4.81192 152.222C3.59265 152.315 2.36793 152.315 1.14866 152.222C1.0153 152.211 0.881158 152.229 0.755373 152.274C0.629588 152.319 0.51517 152.391 0.419915 152.484C0.298774 152.595 0.201018 152.728 0.132364 152.876C0.063709 153.024 0.0254959 153.185 0.0200195 153.348C0.0249982 153.645 0.146196 153.928 0.357996 154.138C0.569797 154.348 0.855622 154.469 1.15511 154.474C2.56569 154.561 3.98128 154.527 5.38588 154.371C7.25146 154.127 9.14378 154.168 10.9968 154.493C11.2865 154.567 11.5938 154.527 11.8545 154.381C12.1153 154.236 12.3093 153.996 12.3963 153.712C12.4511 153.518 12.4511 153.312 12.3963 153.117L12.3125 152.836L12.5963 152.759C14.1529 152.313 15.6444 151.668 17.0334 150.84L17.6783 150.463L17.4655 151.167C17.3481 151.544 17.3409 151.947 17.4447 152.329C17.5486 152.71 17.7593 153.054 18.0524 153.322C18.8199 154.026 19.9872 154.045 20.8772 154.058C24.2889 154.103 27.7006 154.135 31.1123 154.173L73.1363 154.627C75.1614 154.627 77.1865 154.678 79.2116 154.685H79.5018C81.8559 154.685 84.5968 154.525 87.0798 153.341C87.2487 153.24 87.3887 153.097 87.4868 152.927C87.585 152.757 87.638 152.565 87.6409 152.369C87.716 151.745 87.5968 151.114 87.2994 150.559C87.0019 150.005 86.5404 149.554 85.9769 149.267L85.7512 149.139L85.848 148.902C86.0028 148.563 86.1511 148.205 86.293 147.834L86.48 147.361L86.796 147.764C88.2149 149.599 90.4464 150.738 92.2328 151.525L93.1099 151.915L92.1619 152.068L91.7621 152.139C91.6277 152.168 91.5009 152.224 91.3898 152.305C91.2788 152.385 91.1859 152.488 91.1171 152.606C91.0314 152.742 90.9735 152.893 90.9469 153.051C90.9203 153.209 90.9256 153.371 90.9623 153.527C91.0493 153.811 91.2434 154.05 91.5041 154.196C91.7649 154.341 92.0721 154.381 92.3618 154.307C93.9182 154.074 95.4986 154.042 97.0634 154.211L102.687 154.569C102.825 154.581 102.964 154.561 103.093 154.513C103.223 154.464 103.34 154.387 103.435 154.288C103.553 154.18 103.648 154.05 103.715 153.905C103.781 153.76 103.818 153.603 103.822 153.444C103.814 153.147 103.691 152.865 103.478 152.657C103.265 152.448 102.98 152.329 102.681 152.324L98.9466 152.081L99.5916 151.614C100.163 151.194 100.623 150.644 100.933 150.009C101.707 148.454 101.623 146.612 101.443 145.02C101.204 143.136 100.772 141.282 100.153 139.487C98.9804 136.058 97.5421 132.724 95.8509 129.515C94.0166 125.984 91.9077 122.601 89.5434 119.396L89.4919 119.325V119.236C89.4202 116.696 89.1594 114.164 88.7115 111.662C88.3697 109.743 87.8988 107.185 85.906 105.707C84.748 104.912 83.3961 104.439 81.9913 104.338H81.8171L81.7591 104.172C79.8331 99.0003 76.3127 94.562 71.6981 91.488C70.567 90.7555 69.3787 90.1138 68.1445 89.569H68.0607L68.0155 89.4987C67.6995 89.0138 67.3076 88.582 66.8546 88.2194C66.4773 87.8879 66.0222 87.6557 65.5309 87.544C65.0397 87.4322 64.528 87.4445 64.0427 87.5798H63.9396L63.8428 87.5286L63.6235 87.4134C62.3216 86.6991 61.2047 85.6946 60.3608 84.4791C59.5169 83.2637 58.9692 81.8705 58.7607 80.4094C58.7371 80.1971 58.6545 79.9956 58.5221 79.8273L58.3157 79.565L58.6124 79.3988C59.1436 79.1044 59.6504 78.7685 60.128 78.3945C61.9952 76.7765 63.6505 74.9328 65.0553 72.9064L65.7002 72.0492C66.4806 71.0322 67.506 69.6954 68.467 68.2945L68.7959 67.7892C69.0593 67.3736 69.348 66.9741 69.6601 66.5931C70.2109 66.0118 70.8673 65.5387 71.5949 65.1987C72.7945 64.5591 74.0843 63.6764 74.4649 62.2116C74.8454 60.7468 73.9425 59.2628 73.2073 58.3737C73.0138 58.1371 72.8203 57.894 72.6333 57.6509L72.3108 57.2351L72.8396 57.1968C73.0133 57.1832 73.1807 57.1262 73.3261 57.0311C73.4716 56.936 73.5905 56.806 73.6716 56.6531C73.8844 56.2885 74.0844 55.9175 74.2779 55.5465C73.4305 55.8219 72.5205 55.8464 71.6594 55.6168L71.4595 55.9495L71.2531 55.4889C70.2978 55.1687 69.5005 54.5013 69.0216 53.6212L68.409 53.3333C68.4995 54.414 68.7674 55.4727 69.2022 56.4676C69.616 57.3912 70.1587 58.2525 70.8145 59.0261L71.1241 59.3779C71.7691 60.1135 72.6849 61.1178 72.098 62.0389C71.631 62.6375 71.0091 63.0995 70.2986 63.3757C69.9952 63.5212 69.7002 63.6836 69.415 63.8618C68.3647 64.6274 67.4863 65.6011 66.8353 66.721C65.1907 69.1517 63.3913 71.4416 61.9983 73.1622C60.6052 74.8829 59.0123 76.7378 56.8904 77.7676C55.4741 78.402 53.9288 78.702 52.3759 78.6439C51.4472 78.6439 50.512 78.58 49.5897 78.516L48.9448 78.4713C48.545 78.4713 48.1386 78.4265 47.7323 78.4137H47.642C45.546 78.3241 43.379 78.2346 41.5409 77.1344C39.5481 75.9383 38.0519 74.0322 36.7362 72.158C35.9042 70.9683 35.1109 69.7018 34.3757 68.3969L34.1693 68.0259C33.5926 66.862 32.8521 65.7852 31.9701 64.8277C31.4896 64.3782 30.9718 63.9695 30.4223 63.606C29.9 63.2447 29.4043 62.8471 28.9389 62.4162C28.4751 62.026 28.144 61.5033 27.9909 60.9195C27.9435 60.5757 28.0212 60.2264 28.2101 59.9344C28.251 59.8753 28.3034 59.825 28.3644 59.7865C28.4254 59.7481 28.4935 59.7222 28.5648 59.7106C28.7045 59.6944 28.8399 59.6532 28.9647 59.589L29.0679 59.5442H29.1775C29.3727 59.5977 29.5784 59.6005 29.7749 59.5523C29.9715 59.5042 30.1522 59.4066 30.2997 59.2692C31.1575 58.476 31.2671 57.1904 31.351 56.039C30.8131 55.992 30.2802 55.9 29.758 55.764C29.5387 55.7 29.3259 55.6169 29.1131 55.5337L28.9389 56.9153L28.5778 56.7618C28.5004 56.7317 28.4206 56.7081 28.3391 56.6915C24.6179 56.0518 22.9668 52.3419 22.4315 50.7811C21.4759 47.9286 21.2738 44.8806 21.8446 41.9285C22.0763 40.7048 22.424 39.5054 22.883 38.3465C23.457 34.3999 25.1338 30.4789 28.2295 28.0547C26.8423 28.9827 25.5808 30.0833 24.476 31.3297ZM38.8 91.2065L38.987 90.778C39.2402 90.3847 39.6232 90.0908 40.0705 89.9464C40.3074 89.8858 40.5559 89.8858 40.7928 89.9464C41.0231 89.9627 41.2452 90.0376 41.4378 90.1639C41.6705 90.3006 41.9117 90.4224 42.1601 90.5285C42.3407 90.5989 42.5148 90.6692 42.6954 90.7204C42.9986 90.8005 43.2747 90.9595 43.4951 91.1809L43.7789 91.5455C43.9447 91.8199 44.0317 92.134 44.0304 92.4538C44.0304 92.6137 43.9852 92.7736 43.9659 92.9336C43.9159 93.1721 43.8023 93.393 43.637 93.5732C43.5118 93.7708 43.336 93.932 43.1275 94.0401C42.697 94.2621 42.2012 94.3256 41.728 94.2192C41.2886 94.0829 40.8579 93.9205 40.4381 93.7331C40.151 93.6073 39.873 93.4619 39.6061 93.2982C39.3393 93.1434 39.1172 92.9231 38.9612 92.6585C38.937 92.6107 38.9155 92.5616 38.8967 92.5114L38.729 92.441L38.2131 92.1724L38.7355 91.9293C38.7113 91.6886 38.7331 91.4455 38.8 91.2129V91.2065ZM17.9105 147.533C16.3047 148.717 13.1122 150.732 9.7908 150.892H9.41027C8.76992 150.924 8.12987 150.822 7.5327 150.59C6.93553 150.358 6.39496 150.003 5.94697 149.548C4.79899 148.269 5.26335 146.695 5.66966 145.295C7.51998 138.929 9.84162 132.708 12.6156 126.681C13.3831 125.005 14.215 123.317 15.1373 121.513L15.7822 120.317L15.7113 121.653C15.489 125.898 15.489 130.151 15.7113 134.395C15.8461 137.405 16.2213 140.399 16.8335 143.35C17.101 144.668 17.5074 145.954 18.046 147.188L18.1427 147.399L17.9105 147.533ZM87.37 144.514C88.2579 141.324 88.826 138.054 89.0662 134.753C89.3564 131.216 89.5176 127.685 89.537 124.257V123.297L90.0659 124.103C92.5182 127.859 94.6291 131.823 96.3734 135.95C97.7277 139.148 100.63 146.926 98.4629 149.484C98.2097 149.77 97.8936 149.994 97.5392 150.139C97.1847 150.285 96.8012 150.347 96.4185 150.322C96.0104 150.319 95.6038 150.272 95.206 150.182C93.6689 149.765 92.2051 149.118 90.8656 148.263C89.7821 147.623 88.4664 146.74 87.9246 145.359C87.8388 145.131 87.6831 144.937 87.4797 144.802L87.3055 144.687L87.37 144.514ZM81.8236 106.539C84.0809 106.82 85.3965 107.818 85.9576 109.686C86.5865 112 86.967 114.373 87.0927 116.767C87.1508 117.509 87.1894 118.251 87.2217 118.993V119.069L87.183 119.133C87.1177 119.264 87.087 119.409 87.0938 119.554C87.1005 119.7 87.1445 119.841 87.2217 119.965L87.254 120.093C87.4088 124.788 87.1636 129.457 86.9443 133.001C86.667 137.344 86.0543 142.986 83.7197 148.141C83.7012 148.173 83.6881 148.207 83.681 148.243L83.5972 148.467L83.3585 148.435C82.2768 148.289 81.1868 148.21 80.0951 148.199H79.3857C75.3742 148.026 71.1048 147.924 66.6934 147.879C59.2444 147.815 51.4084 147.924 41.2959 148.231C36.6072 148.371 31.8411 148.544 27.2105 148.71H27.017C26.8215 148.71 26.6296 148.762 26.4624 148.863C26.2951 148.963 26.159 149.108 26.069 149.28C25.9639 149.469 25.9089 149.681 25.9089 149.897C25.9089 150.113 25.9639 150.325 26.069 150.514C26.1729 150.671 26.3195 150.796 26.4918 150.874C26.664 150.952 26.8551 150.98 27.0428 150.955C42.4245 150.399 58.3286 149.823 74.007 150.252C76.232 150.309 78.4377 150.393 80.5531 150.489H81.198C82.4105 150.489 84.2292 150.489 85.0032 151.32L85.3127 151.646L84.8806 151.787C83.2054 152.268 81.4641 152.484 79.7211 152.427H79.2438C77.9024 152.427 76.548 152.427 75.2259 152.388H74.3488H72.543L28.8035 151.915H26.0303H25.5724H22.883L20.0324 151.877L22.8314 151.346C23.1895 151.282 23.5354 151.163 23.8568 150.994C23.9877 150.932 24.1034 150.843 24.1958 150.733C24.2883 150.622 24.3553 150.493 24.3921 150.354C24.4486 150.091 24.4074 149.816 24.2761 149.58C24.122 149.293 23.8603 149.077 23.5473 148.979C23.4072 148.938 23.2602 148.925 23.115 148.942C22.9699 148.958 22.8296 149.004 22.7024 149.075C22.4999 149.176 22.282 149.243 22.0575 149.273H21.8317L21.7479 149.068C21.7022 148.941 21.6321 148.824 21.5415 148.723C20.0646 147.041 19.4519 144.885 19.0069 142.819C18.5174 140.452 18.1941 138.054 18.0395 135.642C17.7835 130.617 17.8093 125.582 18.1169 120.56V120.278C18.1521 118.073 18.3677 115.874 18.7618 113.703C19.2713 111.31 19.9937 108.969 21.7737 108.067C23.5537 107.166 25.811 107.127 27.8297 107.076H28.6809C30.5706 107.006 32.4925 106.999 34.3564 106.987H34.3951H36.446L74.8518 106.616C75.4967 106.616 76.0965 106.615 76.7221 106.571C78.4193 106.431 80.1248 106.421 81.8236 106.539ZM66.4096 92.8376C66.8853 92.608 67.3314 92.3224 67.7382 91.9869L67.8866 91.859L68.0607 91.9485L68.7056 92.2939C73.411 94.8443 77.1039 98.9037 79.1794 103.807L79.3471 104.204H78.9149C77.3993 104.204 75.8708 104.204 74.4004 104.242H72.0593L35.9429 104.588C34.0339 104.588 32.1227 104.609 30.2094 104.652C28.6164 104.652 26.9203 104.722 25.2435 104.901L24.6695 104.965L24.9597 104.473C27.5949 100.021 31.2797 96.27 35.6978 93.5412L35.8849 93.4261L36.0461 93.5732C36.1606 93.6788 36.2835 93.7751 36.4137 93.861C36.5993 93.9971 36.8288 94.0608 37.0587 94.0401H37.1554L37.2328 94.0913C38.6434 94.8165 40.1714 95.2907 41.7473 95.4921L42.3923 95.6073C45.1726 96.2137 47.9982 96.5945 50.8409 96.7458C56.2487 96.82 61.583 95.4974 66.3194 92.908L66.4096 92.8376ZM49.8928 94.1169L49.9767 94.4879H49.5897C48.3515 94.3983 47.068 94.2384 45.5525 93.989L45.2171 93.9378L45.3977 93.5028C45.5341 93.2966 45.6589 93.083 45.7717 92.8632L45.8685 92.6841H46.0684C46.1815 92.7035 46.2956 92.7164 46.4102 92.7225C47.5119 92.7927 48.617 92.7927 49.7187 92.7225H50.1057L49.8993 93.5476C49.8486 93.7222 49.8376 93.9056 49.8671 94.0849L49.8928 94.1169ZM51.4278 93.2726C51.4278 92.7953 51.6185 92.3374 51.9582 91.9993C52.2979 91.6613 52.7588 91.4705 53.2401 91.4688C53.9812 91.5296 54.7266 91.5168 55.4651 91.4304C56.1232 91.3312 56.7708 91.1727 57.3999 90.957C57.6338 90.8931 57.8782 90.8766 58.1187 90.9085C58.3591 90.9404 58.5906 91.02 58.7994 91.1426C59.2063 91.3822 59.506 91.7664 59.6378 92.2172C59.7586 92.6864 59.6916 93.1838 59.4508 93.6052C59.204 94.0041 58.8186 94.2999 58.3673 94.4367C56.728 94.9995 54.9884 95.2174 53.2594 95.0763C52.7802 95.0595 52.3228 94.8736 51.9696 94.5519C51.7906 94.3826 51.6481 94.1792 51.5505 93.9538C51.453 93.7284 51.4025 93.4858 51.402 93.2406L51.4278 93.2726ZM63.6816 90.0744L63.8041 90.0168L63.9266 90.0744C64.2749 90.2407 64.6296 90.407 64.9908 90.5669L65.5196 90.8035L65.0037 91.0786C64.5522 91.3216 64.0685 91.5583 63.5268 91.795C62.985 92.0317 62.3014 92.3131 61.592 92.5882L61.3921 92.6649L61.2566 92.4922C61.2075 92.4227 61.1489 92.3602 61.0825 92.3067C61.0148 92.246 60.9502 92.182 60.889 92.1148L60.7084 91.8334C60.6697 91.7119 60.6439 91.6223 60.6246 91.5391L60.5794 91.2961L60.8181 91.2129C61.6307 90.8803 62.5465 90.5221 63.63 90.0424L63.6816 90.0744ZM48.6933 80.7356C49.7961 80.8123 51.0409 80.9019 52.2533 80.9083H52.3307C53.6378 80.9225 54.9404 80.7546 56.2003 80.4094L56.5163 80.3198L56.5615 80.646C56.9369 83.5381 58.3883 86.1867 60.631 88.0723C60.7407 88.1618 60.8567 88.245 60.9728 88.3281L61.3921 88.6288L60.9148 88.8271C60.631 88.9422 60.3924 89.0317 60.1602 89.1021C57.6476 89.7952 55.0647 90.2071 52.4597 90.3302L51.6342 90.3942C50.4604 90.4901 49.2673 90.5861 48.0806 90.5861C46.933 90.6023 45.7876 90.482 44.6689 90.2279L44.024 90.0488L43.437 89.8505L43.9659 89.5307L44.2626 89.3388C46.5779 87.7013 47.5195 85.0852 47.1519 81.3432C47.1403 81.2385 47.1165 81.1355 47.0809 81.0362L46.9197 80.6269L48.6933 80.7356Z" fill="#1E1E1E"/>
<path d="M58.3217 94.4046C58.773 94.2677 59.1584 93.972 59.4052 93.573C59.646 93.1517 59.7131 92.6543 59.5923 92.185C59.4605 91.7342 59.1607 91.3501 58.7538 91.1104C58.5451 90.9879 58.3135 90.9083 58.0731 90.8764C57.8326 90.8445 57.5882 90.861 57.3543 90.9249C56.7252 91.1406 56.0776 91.299 55.4195 91.3982C54.681 91.4846 53.9356 91.4974 53.1945 91.4366C52.835 91.4364 52.4835 91.5418 52.1844 91.7396C51.8852 91.9374 51.6519 92.2187 51.5139 92.5479C51.3759 92.8771 51.3393 93.2395 51.4089 93.5894C51.4784 93.9392 51.6509 94.2607 51.9046 94.5133C52.2578 94.835 52.7152 95.021 53.1945 95.0378C54.9294 95.1836 56.6758 94.9679 58.3217 94.4046ZM51.9691 94.5197L52.4592 92.5432H52.6656C54.4647 92.4273 56.256 92.2138 58.0315 91.9036L58.3153 91.8524L58.3733 92.1274C58.428 92.4325 58.5279 92.7278 58.67 93.0037C58.6939 93.0407 58.7155 93.0792 58.7345 93.1189L58.9409 93.4451L58.5668 93.5411C56.5398 94.1078 54.4536 94.4405 52.3496 94.5325L51.9691 94.5197Z" fill="#1E1E1E"/>
<path d="M40.4436 91.1361L40.6306 91.0593L40.7403 91.1041C41.4239 91.4047 42.243 91.7437 43.1136 92.038L43.5264 92.1723L43.2426 92.4921C43.1237 92.6336 42.9967 92.7682 42.8621 92.8951C42.774 92.9822 42.702 93.0839 42.6493 93.1957L42.5654 93.3876H42.3591C41.1776 93.2377 40.0216 92.9322 38.9216 92.4793C38.9403 92.5295 38.9619 92.5786 38.9861 92.6265C39.1421 92.8911 39.3642 93.1114 39.631 93.2661C39.8979 93.4299 40.1759 93.5752 40.463 93.7011C40.8827 93.8885 41.3135 94.0508 41.7528 94.1872C42.226 94.2936 42.7219 94.2301 43.1523 94.0081C43.3609 93.8999 43.5367 93.7388 43.6618 93.5412C43.8272 93.3609 43.9408 93.1401 43.9908 92.9015C43.9908 92.7416 44.0359 92.5817 44.0552 92.4218C44.0565 92.1019 43.9696 91.7878 43.8037 91.5135L43.5199 91.1489C43.2995 90.9275 43.0234 90.7684 42.7202 90.6883C42.5396 90.6372 42.3655 90.5668 42.1849 90.4965C41.9365 90.3903 41.6953 90.2685 41.4626 90.1319C41.2701 90.0055 41.0479 89.9306 40.8177 89.9144C40.5808 89.8537 40.3322 89.8537 40.0953 89.9144C39.648 90.0588 39.265 90.3527 39.0119 90.7459L38.8248 91.1745C38.7759 91.384 38.7628 91.6003 38.7861 91.8141C39.3085 91.6158 39.9019 91.3664 40.4436 91.1361Z" fill="#1E1E1E"/>
<path d="M22.8887 38.3209C23.5094 36.7257 24.3423 35.2198 25.3652 33.8434C27.1646 31.4192 29.7508 29.4299 33.2657 27.754C37.9608 25.5153 45.0358 22.5346 52.1752 22.5346C53.3233 22.5334 54.4699 22.6147 55.6062 22.7776C59.4039 23.3949 63.08 24.6016 66.4992 26.3532C68.1244 27.1464 69.6723 27.9843 70.788 29.4107C71.8066 30.7638 72.6293 32.2515 73.2323 33.8306C74.6369 37.3167 75.2334 41.0714 74.9777 44.8169C74.7221 48.5625 73.6208 52.2032 71.7554 55.4697L71.6716 55.6232C72.5327 55.8528 73.4426 55.8283 74.29 55.5529C77.075 50.0877 77.9486 43.8591 76.773 37.8476L76.6504 37.208L77.2051 37.5406C77.4716 37.6941 77.7425 37.8348 78.0177 37.9627C77.979 37.7261 77.9596 37.483 77.9145 37.2463C79.6615 38.0725 81.5543 38.5527 83.4867 38.66C84.798 38.4323 86.0649 38.0006 87.2403 37.3807C89.3815 36.2485 92.2966 34.3104 94.0057 31.5024C94.8347 30.2017 95.2935 28.7028 95.3332 27.1645C95.373 25.6262 94.9922 24.1059 94.2314 22.7648C94.1188 22.5459 93.9298 22.3752 93.6995 22.2845C93.4692 22.1939 93.2135 22.1895 92.9802 22.2723C92.7361 22.3423 92.5204 22.4869 92.364 22.6856C92.2077 22.8844 92.1186 23.127 92.1095 23.3789V23.4493V23.5133C91.6433 24.543 90.8627 25.4015 89.8778 25.9673C88.893 26.5332 87.7537 26.7778 86.6211 26.6667C85.6696 26.5191 84.7576 26.1839 83.9389 25.6807C83.1203 25.1775 82.4118 24.5166 81.8551 23.7371L81.5971 23.4045L82.0034 23.2894C82.3452 23.1934 82.6483 23.0783 83.003 22.9695L83.3062 22.8672C84.3982 22.5372 85.4223 22.0174 86.3309 21.332C87.1366 20.7095 87.7582 19.8831 88.1303 18.9398C88.4935 17.7716 88.5358 16.5284 88.2528 15.3386C88.2203 15.2041 88.1599 15.0778 88.0755 14.9677C87.9911 14.8576 87.8846 14.7661 87.7627 14.699C87.629 14.6176 87.4801 14.5637 87.325 14.5406C87.1699 14.5175 87.0117 14.5257 86.8598 14.5646H86.8017H86.7243C86.4594 14.5167 86.186 14.5689 85.958 14.711C85.73 14.8531 85.5639 15.0747 85.4925 15.3322C85.4074 15.5874 85.271 15.8227 85.0914 16.0239C84.9118 16.2252 84.6927 16.3881 84.4477 16.5028C83.477 16.9589 82.3723 17.0498 81.3391 16.7586C80.8364 16.5858 80.3906 16.2807 80.0493 15.8759C77.1922 16.1702 76.573 10.5797 75.7475 8.43049C75.1537 6.86057 74.2058 5.44611 72.9762 4.29534C71.7466 3.14457 70.2679 2.28796 68.6533 1.791C65.2158 0.735592 61.3913 1.15137 58.0183 2.28354C53.9165 3.65237 52.8588 6.05742 51.298 9.8313C50.994 10.4502 50.8995 11.1499 51.0284 11.8263C51.1574 12.5028 51.5031 13.1199 52.014 13.586C53.0588 16.6563 58.2182 17.4686 59.7144 13.8994H59.8241C60.2188 14.0829 60.5983 14.2967 60.9592 14.5391C61.0688 14.3536 61.1785 14.1681 61.3204 13.9698L61.4558 13.7843C61.5503 13.6657 61.6515 13.5525 61.7589 13.4453C61.9953 13.189 62.2496 12.9496 62.5199 12.7289C62.551 12.6974 62.5856 12.6695 62.6231 12.6457L62.7005 12.5946C62.823 12.505 62.9585 12.4154 63.0939 12.3323C63.324 12.1874 63.5631 12.057 63.8098 11.9421L63.6615 11.8909L64.5966 11.6479C64.7965 11.5903 64.9513 11.5519 65.1061 11.52L65.3705 11.4688L65.7317 11.392C65.9113 11.3478 66.0759 11.2573 66.2089 11.1298C66.4184 10.9153 66.5363 10.6288 66.5379 10.3302C66.5249 10.155 66.4772 9.98396 66.3975 9.82701C66.3178 9.67006 66.2077 9.53023 66.0735 9.41552C65.9868 9.33767 65.8847 9.27869 65.7736 9.24234C65.6625 9.20598 65.545 9.19305 65.4286 9.20443C63.7868 9.41551 62.238 10.0805 60.9592 11.1234C59.8285 12.0517 58.9634 13.2582 58.4504 14.6222L58.3795 14.8269H58.1602C57.3475 14.7565 56.5607 14.7246 55.6836 14.7182C55.2192 14.7182 54.742 14.7182 54.2519 14.7182H54.0648L53.981 14.5455C53.945 14.4657 53.8995 14.3906 53.8456 14.3216C52.912 13.0907 52.4115 11.59 52.4208 10.0497C52.4301 8.5095 52.9488 7.01486 53.8972 5.79516C56.9928 1.99569 62.7328 2.1748 64.4225 2.32191C66.4227 2.47646 68.3771 2.99464 70.1882 3.85063C71.854 4.69296 73.2085 6.03632 74.0578 7.68848C74.7575 9.02744 75.3423 10.4225 75.8056 11.859L75.5605 12.0381L75.8378 11.9421C75.9668 12.3067 76.0958 12.6713 76.2312 13.0359L76.328 13.311C76.8891 14.8397 77.5211 16.5731 78.7336 17.7373C80.2556 19.202 82.9321 19.5922 85.1055 18.6648L86.3567 18.121L85.4345 19.1189L85.2087 19.3428C85.1469 19.4075 85.08 19.4674 85.0088 19.5219L84.8734 19.6306C84.5567 19.8569 84.2225 20.058 83.8738 20.2319C83.5305 20.4013 83.1748 20.5446 82.8096 20.6604C82.371 20.8076 81.9195 20.9355 81.4745 21.057L80.8296 21.2233H80.6426H80.5007C80.3384 21.1685 80.1655 21.1515 79.9955 21.1737C79.8255 21.1959 79.6629 21.2567 79.5204 21.3513H79.4366C79.3504 21.3736 79.2679 21.4081 79.1915 21.4536C78.9377 21.6101 78.7541 21.8572 78.6785 22.144C78.6029 22.4308 78.6411 22.7354 78.7852 22.9951C80.3589 26.2701 83.3513 28.5152 86.6018 28.8478C87.7132 28.9391 88.8311 28.7857 89.8758 28.3987C90.9204 28.0117 91.866 27.4006 92.6449 26.6091L93.1415 26.1166V26.8522C93.1415 31.2017 87.982 34.3871 86.4277 35.2571C85.0573 36.0581 83.5033 36.4985 81.9131 36.5363C81.1771 36.5393 80.4455 36.4248 79.7462 36.1973C78.6734 35.8352 77.7036 35.2234 76.9182 34.4133C76.1327 33.6031 75.5544 32.6181 75.2316 31.5407C75.1836 31.3714 75.0943 31.2164 74.9717 31.0892C74.8492 30.9621 74.697 30.8667 74.5286 30.8115H74.4125L74.3545 30.7028C73.412 28.7665 72.0005 27.092 70.2462 25.8288C68.8207 24.9117 67.3088 24.134 65.7317 23.5068L65.4415 23.3789L65.5963 23.1039C65.786 22.7632 65.9312 22.3999 66.0284 22.0229C65.3254 21.767 64.6095 21.5367 63.8872 21.332C63.8217 21.712 63.647 22.0652 63.3841 22.3491L63.2552 22.4898L63.0681 22.4259C61.6621 21.8934 60.2231 21.4511 58.76 21.1018C56.2959 20.52 53.7654 20.2619 51.2336 20.3342H50.8466V20.2063C50.034 20.2702 49.2278 20.3598 48.4152 20.4685V20.5453H48.2282C47.4671 20.6412 46.8351 20.7436 46.2289 20.8587C42.0106 21.8011 37.9035 23.1796 33.9751 24.9716C31.986 25.8021 30.0849 26.8263 28.2997 28.0291C25.1395 30.4534 23.4627 34.3743 22.8887 38.3209Z" fill="#1E1E1E"/>
<path d="M65.2739 18.0699C64.9446 17.5874 64.5447 17.1562 64.0872 16.7906L63.4938 16.3109H64.2613H64.3903C64.4935 16.3109 64.6031 16.3109 64.7386 16.3109H64.9514C65.2158 16.3621 65.4738 16.426 65.8156 16.522L66.5508 16.7459H66.6475L67.4795 16.9889C67.6315 17.0271 67.7896 17.0349 67.9446 17.0119C68.0996 16.9888 68.2485 16.9353 68.3824 16.8546C68.5039 16.7861 68.6104 16.6942 68.6957 16.5844C68.7809 16.4746 68.8433 16.349 68.879 16.215C68.953 15.9276 68.9116 15.623 68.7636 15.3653C68.6157 15.1076 68.3727 14.9169 68.0858 14.8333L67.1377 14.5519C66.1711 14.2036 65.1539 14.0135 64.1259 13.989C63.1655 14.011 62.2407 14.3535 61.501 14.9612C62.0427 15.441 62.5393 15.9911 63.023 16.5092C64.2677 17.8269 65.8091 19.6115 66.0542 21.5368C66.2509 20.3247 65.9717 19.0839 65.2739 18.0699Z" fill="#1E1E1E"/>
<path d="M70.9753 54.7086C70.5882 53.4113 70.5416 52.0374 70.8398 50.7172L70.9043 50.4358L71.8266 50.6341C72.0205 50.6841 72.2246 50.6794 72.416 50.6207C72.6074 50.5619 72.7786 50.4514 72.9101 50.3014C73.0548 50.1417 73.1567 49.9485 73.2063 49.7394C73.2559 49.5304 73.2516 49.3123 73.1939 49.1053C73.1382 48.9398 73.0378 48.7927 72.9036 48.6799C72.7694 48.5671 72.6065 48.493 72.4328 48.4657C69.4005 47.8955 66.4399 46.999 63.6037 45.792C62.2655 45.1841 60.9873 44.4539 59.7857 43.6108C58.4055 42.6258 57.6961 41.7942 57.6122 41.0523V40.9755L57.6509 40.8987C57.8638 40.4446 58.0315 40.0608 58.1733 39.6834C58.2481 39.4381 58.232 39.1743 58.1279 38.9398C58.0238 38.7052 57.8387 38.5152 57.6058 38.4041C57.4007 38.2688 57.1531 38.2117 56.9089 38.2434C56.6646 38.2752 56.4402 38.3936 56.2772 38.5768C55.8902 39.0458 55.6186 39.5976 55.4839 40.1887C53.6072 43.9498 49.8343 46.8858 44.8361 48.5041C40.4565 49.9209 35.8064 50.317 31.2473 49.6618H31.1763C31.0573 49.6057 30.9276 49.5752 30.7958 49.5723H30.7249H30.6024C29.7511 49.438 28.99 49.2844 28.287 49.1117C28.1009 49.0613 27.9046 49.0615 27.7185 49.1121C27.5324 49.1627 27.3635 49.262 27.2293 49.3996C27.0801 49.5568 26.9735 49.749 26.9194 49.9581C26.8653 50.1673 26.8654 50.3866 26.9198 50.5957C26.9713 50.7686 27.0694 50.9243 27.2035 51.046C27.3376 51.1677 27.5026 51.2509 27.6808 51.2865C28.1709 51.4017 28.6869 51.5104 29.2544 51.6191L29.5124 51.6703L29.0997 55.5081C29.3125 55.5913 29.5253 55.6744 29.7446 55.7384C30.2668 55.8745 30.7997 55.9665 31.3376 56.0135V55.9431C31.3376 55.6553 31.3763 55.425 31.3956 55.2011L31.7439 52.0029H32.0276C35.2236 52.3224 38.4488 52.2019 41.6114 51.6447L44.2879 51.165L44.1266 51.101L44.9006 50.8707C46.0002 50.5437 47.0774 50.1463 48.1252 49.681C50.6919 47.9815 52.9709 45.8895 54.8777 43.4829C55.0647 43.7707 55.2518 44.0458 55.4388 44.3272C55.6452 44.0778 55.8516 43.8347 56.0451 43.5788L56.2643 43.2718L56.5029 43.566C57.6812 44.8669 59.0832 45.9498 60.6434 46.7642C63.0987 48.0922 65.7145 49.1046 68.4278 49.777L68.6922 49.8473L68.6342 50.116C68.3997 51.1478 68.3279 52.2094 68.4213 53.263L69.034 53.5508C69.5128 54.431 70.3102 55.0984 71.2655 55.4186V55.3674C71.1572 55.153 71.0604 54.9331 70.9753 54.7086Z" fill="#1E1E1E"/>
<path d="M38.6125 55.553C38.7488 55.8057 38.9808 55.9943 39.2574 56.0775C39.5309 56.1449 39.8198 56.1113 40.0702 55.983C40.3206 55.8547 40.5154 55.6405 40.6182 55.3802L40.7408 55.214C40.8343 55.1473 40.9311 55.0853 41.031 55.0284C41.2309 54.9197 41.4373 54.8238 41.6759 54.7342L42.0049 54.5871L42.1725 54.5103C42.5982 54.344 43.0819 54.1585 43.5656 53.9986L43.9074 53.8963C44.3819 53.7861 44.8237 53.567 45.1973 53.2567C45.3043 53.1501 45.3886 53.0232 45.4451 52.8837C45.5016 52.7441 45.5292 52.5947 45.5262 52.4443C45.5273 52.2999 45.4987 52.1568 45.4422 52.0237C45.3856 51.8906 45.3023 51.7704 45.1973 51.6703C45.1702 51.6518 45.1423 51.6348 45.1134 51.6191C42.9906 52.8948 40.7618 53.9883 38.4513 54.8877C38.4341 55.1207 38.4905 55.3532 38.6125 55.553Z" fill="#1E1E1E"/>
<path d="M44.3072 51.248L41.7275 52.2587L40.8503 52.6297C39.8313 53.071 38.8124 53.5955 38.4576 54.6957C38.4385 54.7648 38.4256 54.8354 38.4189 54.9068C40.7294 54.0074 42.9583 52.9139 45.0811 51.6382C45.0053 51.5734 44.9206 51.5195 44.8296 51.4783L44.3072 51.248Z" fill="#1E1E1E"/>
<path d="M29.1835 108.726L25.6041 109.053L24.8237 109.104C23.8954 109.093 22.9743 109.267 22.115 109.615C21.1282 110.108 20.7155 111.138 20.3543 112.238C19.9815 113.358 19.6757 114.498 19.4385 115.654C19.3657 115.941 19.4067 116.245 19.5531 116.503C19.6995 116.761 19.94 116.954 20.2253 117.042C20.5403 117.115 20.8718 117.062 21.1476 116.895C21.2669 116.826 21.3707 116.734 21.4528 116.624C21.5349 116.514 21.5934 116.388 21.6248 116.255C21.8376 115.238 22.0956 114.246 22.3923 113.3L22.4439 113.127C22.5463 112.774 22.6668 112.426 22.8051 112.084C22.8443 112.023 22.8788 111.959 22.9083 111.893L23.0888 111.624L23.3081 111.554C23.56 111.481 23.82 111.441 24.082 111.432H24.4045L29.1706 110.997C29.4697 110.989 29.7544 110.868 29.9666 110.659C30.1787 110.45 30.3023 110.168 30.3121 109.871C30.3076 109.709 30.2698 109.549 30.2011 109.402C30.1323 109.255 30.0341 109.123 29.9122 109.014C29.8173 108.919 29.7035 108.844 29.5781 108.795C29.4527 108.745 29.3184 108.722 29.1835 108.726Z" fill="#00A99D"/>
<path d="M78.5983 143.906H78.5016C78.3016 143.906 78.1018 143.907 77.8954 143.945C77.4155 143.922 76.939 144.035 76.5217 144.271C76.2643 144.424 76.0772 144.671 76.0001 144.959C75.923 145.247 75.9621 145.553 76.1089 145.813C76.2937 146.086 76.5778 146.279 76.9022 146.35C77.1461 146.402 77.4011 146.364 77.618 146.241L77.7534 146.203H77.8373C78.0179 146.203 78.1985 146.203 78.3791 146.203C78.8651 146.163 79.3477 146.09 79.8237 145.985C80.7361 145.859 81.5955 145.485 82.3067 144.904C82.7855 144.295 83.1065 143.58 83.2418 142.819C83.2805 142.666 83.3193 142.512 83.3644 142.365C83.6159 141.495 83.8481 140.612 84.0545 139.749C84.1234 139.431 84.0681 139.1 83.8997 138.821C83.7543 138.59 83.5225 138.424 83.2547 138.361C82.965 138.287 82.6579 138.328 82.3981 138.475C82.1383 138.622 81.946 138.863 81.8617 139.148C81.6618 139.979 81.449 140.785 81.2168 141.546C81.1007 141.943 80.9846 142.339 80.8621 142.736L80.7911 142.947C80.7632 143.027 80.7395 143.108 80.7202 143.19V143.324L80.5976 143.388C80.41 143.468 80.2184 143.539 80.0236 143.599C79.6367 143.722 79.2426 143.82 78.8434 143.894L78.5983 143.906Z" fill="#1E1E1E"/>
<path d="M85.0473 101.978C86.297 102.627 87.4695 103.412 88.5429 104.319C89.4201 105.084 90.0392 106.098 90.3165 107.223C90.439 107.863 90.5616 108.65 91.3548 108.688C91.5314 108.691 91.7066 108.658 91.8696 108.59C92.0327 108.523 92.1802 108.424 92.3029 108.298C92.8382 107.722 92.3544 106.379 92.1029 105.739C91.763 104.887 91.274 104.101 90.6583 103.417C89.5551 102.258 88.2729 101.28 86.8597 100.52C86.6511 100.395 86.4358 100.282 86.2147 100.181C85.6794 99.9569 85.0925 99.8737 84.7378 100.469C84.5822 100.738 84.5382 101.057 84.6152 101.358C84.6405 101.485 84.692 101.606 84.7663 101.712C84.8406 101.819 84.9363 101.91 85.0473 101.978Z" fill="#00A99D"/>
<path d="M10.2996 138.578C10.2085 138.558 10.1156 138.548 10.0223 138.546C9.77056 138.546 9.52529 138.625 9.32305 138.774C9.12082 138.923 8.97246 139.132 8.90013 139.372C8.4335 140.856 8.15828 142.392 8.08105 143.945C8.07654 144.092 8.10355 144.238 8.16025 144.373C8.21696 144.509 8.30207 144.631 8.40997 144.732C8.60976 144.937 8.88312 145.057 9.17099 145.064C9.47779 145.07 9.77419 144.954 9.99535 144.743C10.2165 144.532 10.3445 144.243 10.3512 143.939C10.3512 143.58 10.4028 143.197 10.4609 142.736C10.5989 141.795 10.8146 140.866 11.1058 139.96C11.147 139.817 11.1579 139.667 11.138 139.519C11.118 139.372 11.0675 139.23 10.9897 139.103C10.9178 138.973 10.8192 138.859 10.7004 138.769C10.5816 138.678 10.4451 138.613 10.2996 138.578Z" fill="#1E1E1E"/>
<path d="M93.0578 136.416L93.1029 136.48L93.219 136.659V136.723L93.3093 136.954C93.4125 137.267 93.5092 137.593 93.6124 137.875L94.6701 141.118C94.7572 141.402 94.9509 141.642 95.2114 141.788C95.4718 141.935 95.7791 141.976 96.0696 141.905C96.3407 141.805 96.5686 141.615 96.7145 141.367C96.7959 141.244 96.8487 141.104 96.8687 140.958C96.8888 140.812 96.8758 140.663 96.8306 140.523L95.6891 137.043C95.5859 136.704 95.4827 136.404 95.3602 136.071C95.1444 135.473 94.7537 134.952 94.238 134.574C94.1232 134.499 93.9938 134.449 93.8583 134.427C93.7227 134.405 93.5841 134.412 93.4512 134.446C93.2512 134.483 93.0653 134.573 92.9139 134.708C92.7626 134.843 92.6518 135.016 92.5938 135.21C92.5357 135.403 92.5327 135.608 92.5849 135.803C92.6372 135.998 92.7429 136.175 92.8901 136.314L93.0578 136.416Z" fill="#1E1E1E"/>
<path d="M68.2277 97.1296C69.8143 97.6221 70.9494 98.8886 71.9426 100.181C72.0135 100.27 72.0845 100.36 72.149 100.456C72.2134 100.552 72.3296 100.718 72.4134 100.852L72.4908 100.993L72.5294 101.083C72.6192 101.365 72.8131 101.604 73.0726 101.751C73.332 101.898 73.6379 101.943 73.929 101.876C74.2492 101.766 74.5133 101.537 74.6642 101.236C74.7239 101.123 74.7598 100.999 74.7698 100.871C74.7798 100.743 74.7636 100.615 74.7222 100.494C74.4184 99.7634 73.9957 99.087 73.4711 98.492C73.0969 98.0085 72.6919 97.5491 72.2586 97.1168C71.3079 96.1332 70.1304 95.3935 68.8275 94.9612C68.5386 94.8859 68.2315 94.9253 67.9714 95.071C67.7113 95.2167 67.5187 95.4573 67.4345 95.7416C67.3603 96.0297 67.4015 96.3352 67.5494 96.5939C67.6973 96.8527 67.9404 97.0446 68.2277 97.1296Z" fill="#1E1E1E"/>
<path d="M28.8158 33.415C28.4904 33.2388 28.1096 33.1917 27.7505 33.2831C27.3914 33.3746 27.0807 33.5977 26.881 33.9075C26.5768 34.3401 26.3237 34.8058 26.1264 35.2955C25.8749 35.8776 25.6363 36.4405 25.4234 36.9906C25.0236 38.0076 24.6688 39.0694 24.3657 40.144C24.3183 40.3313 24.3087 40.5261 24.3375 40.7171C24.3663 40.9081 24.4329 41.0916 24.5334 41.257C24.6196 41.4163 24.739 41.5557 24.8835 41.6659C25.028 41.7762 25.1944 41.8548 25.3718 41.8966C25.4861 41.922 25.603 41.9349 25.7201 41.935C26.033 41.9379 26.3382 41.8395 26.5896 41.6549C26.841 41.4702 27.0248 41.2092 27.1132 40.9116C27.4034 39.8753 27.7581 38.8647 28.1128 37.8989C28.2095 37.6558 28.2998 37.4127 28.403 37.1761L28.4675 37.0226L28.6352 36.6388C28.8085 36.187 29.0358 35.7575 29.3124 35.3595C29.4131 35.2158 29.4818 35.0526 29.5141 34.8805C29.5463 34.7085 29.5413 34.5316 29.4994 34.3616C29.4564 34.166 29.3736 33.9812 29.2561 33.8184C29.1385 33.6556 28.9887 33.5183 28.8158 33.415Z" fill="#1E1E1E"/>
<path d="M66.9055 28.656C66.72 28.6037 66.5255 28.5903 66.3345 28.6167C66.1435 28.6431 65.9602 28.7088 65.7962 28.8095C65.6364 28.8976 65.4966 29.0175 65.3856 29.1617C65.2746 29.3059 65.1948 29.4712 65.1513 29.6474C65.0594 30.0068 65.1115 30.3875 65.2967 30.7096C65.4819 31.0317 65.7858 31.27 66.1445 31.3745L66.4863 31.4896C66.7734 31.6221 67.0476 31.7805 67.3054 31.9629C67.5579 32.1697 67.791 32.3988 68.0019 32.6473C68.1965 32.9155 68.3629 33.2027 68.4985 33.5045C68.5386 33.6005 68.5731 33.6987 68.6017 33.7987C68.6606 33.987 68.7564 34.162 68.8837 34.3134C69.011 34.4649 69.1672 34.59 69.3434 34.6814C69.5422 34.7855 69.7635 34.8404 69.9883 34.8413C70.1201 34.843 70.2511 34.8213 70.3752 34.7774C70.7332 34.6702 71.0357 34.4301 71.2195 34.1071C71.4034 33.7842 71.4544 33.4033 71.362 33.0439C71.0458 32.0026 70.4727 31.056 69.6945 30.2898C68.9163 29.5236 67.9577 28.962 66.9055 28.656Z" fill="#1E1E1E"/>
<path d="M42.9139 60.5166C42.836 60.8101 42.836 61.1186 42.9139 61.4121C42.9691 61.6063 43.064 61.7872 43.1927 61.9434C43.3214 62.0997 43.4812 62.228 43.662 62.3204C43.8879 62.4285 44.1338 62.4895 44.3844 62.4995C44.5024 62.5004 44.6199 62.4832 44.7326 62.4484C45.091 62.3529 45.3984 62.1237 45.5904 61.8087C45.7409 61.5355 45.8018 61.2224 45.7645 60.9132C45.7834 60.8654 45.7985 60.8162 45.8096 60.7661C45.8721 60.463 45.9024 60.1543 45.8999 59.845C45.8832 59.4439 45.8401 59.0444 45.7709 58.6489V58.5721C45.7368 58.3305 45.7196 58.0869 45.7194 57.8429C45.7171 57.6511 45.6759 57.4616 45.5983 57.2858C45.5208 57.11 45.4084 56.9514 45.2679 56.8195C45.1396 56.692 44.9866 56.5918 44.8181 56.5247C44.6496 56.4576 44.4691 56.4252 44.2876 56.4293C43.9128 56.4375 43.5557 56.5893 43.2912 56.8528C43.0267 57.1163 42.8753 57.4712 42.8687 57.8429C42.8759 58.2828 42.919 58.7213 42.9977 59.1542V59.2565C43.0328 59.5258 43.0479 59.7974 43.0429 60.0689L42.9849 60.2544C42.9655 60.3311 42.9332 60.4207 42.9139 60.5166Z" fill="#1E1E1E"/>
<path d="M56.5673 57.6381C56.5689 57.4504 56.5327 57.2643 56.4607 57.0907C56.3887 56.9172 56.2824 56.7596 56.1481 56.6274C55.8724 56.368 55.5091 56.2198 55.1291 56.2117C54.7529 56.2167 54.3938 56.3683 54.1295 56.6338C53.8785 56.9007 53.7321 57.2479 53.7167 57.6125C53.6598 58.6959 53.7116 59.7822 53.8715 60.8554C53.9138 61.0371 53.9928 61.2084 54.1036 61.359C54.2144 61.5096 54.3549 61.6364 54.5164 61.7318C54.7438 61.8556 54.9987 61.9216 55.2581 61.9237C55.3824 61.9233 55.5061 61.906 55.6257 61.8725C55.9815 61.775 56.2861 61.5461 56.477 61.2328L56.6125 60.9194C56.6485 60.773 56.6615 60.622 56.6511 60.4717C56.5296 59.5321 56.5016 58.583 56.5673 57.6381Z" fill="#1E1E1E"/>
<path d="M55.5485 50.6468C55.1835 50.5608 54.7994 50.6133 54.4714 50.7939C54.1556 50.9863 53.9252 51.2903 53.8265 51.6447C53.7396 52.0622 53.8231 52.4969 54.0587 52.8536C54.1458 52.9905 54.2608 53.1078 54.3963 53.1981C54.5318 53.2884 54.6848 53.3497 54.8455 53.3781C55.2579 53.4514 55.6604 53.5716 56.0451 53.7363C56.4943 53.9089 56.9262 54.1231 57.3349 54.3759L57.5736 54.6573C57.7495 54.9546 57.9666 55.2259 58.2185 55.4633C58.5102 55.7154 58.8829 55.856 59.2698 55.8599C59.4503 55.8612 59.6292 55.8248 59.7947 55.7532C59.9602 55.6816 60.1088 55.5763 60.2307 55.4441C60.5062 55.1444 60.6522 54.7493 60.637 54.3439C60.6304 54.1746 60.59 54.0082 60.518 53.8545C60.446 53.7007 60.344 53.5627 60.2178 53.4485L60.1726 53.4101C60.1324 53.3571 60.0958 53.3016 60.063 53.2438C59.9136 52.9921 59.7385 52.7564 59.5406 52.5401C59.1932 52.1782 58.7795 51.8852 58.3217 51.6766C57.4566 51.193 56.5211 50.8456 55.5485 50.6468Z" fill="#1E1E1E"/>
<path d="M51.8009 64.8981C51.536 64.7513 51.2246 64.7101 50.9302 64.783C50.6453 64.8621 50.4025 65.0479 50.253 65.3011C50.1623 65.4649 50.1074 65.6458 50.0918 65.832V66.0303L49.8983 66.0879L49.7177 66.139H49.5243H49.305L49.2469 65.928C49.201 65.742 49.1052 65.5718 48.9696 65.4354C48.7464 65.2336 48.4588 65.1159 48.157 65.1028C47.8603 65.107 47.5764 65.2237 47.3637 65.429C47.2564 65.5317 47.1713 65.6549 47.1136 65.7913C47.056 65.9277 47.027 66.0743 47.0284 66.2222C47.0488 66.5778 47.1526 66.9239 47.3315 67.2328C47.5975 67.6563 47.9857 67.9907 48.4457 68.1926C48.9058 68.3945 49.4164 68.4545 49.9112 68.365C50.5714 68.2846 51.1952 68.0207 51.7106 67.6038C51.9896 67.3526 52.1965 67.0326 52.3104 66.6763C52.4328 66.3153 52.4328 65.9244 52.3104 65.5634C52.2237 65.2896 52.0435 65.0544 51.8009 64.8981Z" fill="#1E1E1E"/>
<path d="M47.6413 73.4884C45.9528 72.8871 44.3506 72.07 42.8752 71.0577C42.7526 70.9682 42.7526 70.9682 42.5914 70.8339C42.4302 70.6996 42.2883 70.578 42.1464 70.4501C41.8424 70.1714 41.5559 69.8745 41.2887 69.561L41.1532 69.3947L41.0436 69.2412C40.9275 69.0834 40.8179 68.9235 40.7147 68.7614C40.605 68.5759 40.5018 68.3904 40.4051 68.1986L40.2697 67.9235L40.2116 67.77C40.1245 67.4856 39.931 67.245 39.6708 67.0975C39.4106 66.95 39.1034 66.9068 38.8121 66.9768C38.4943 67.0875 38.2327 67.3171 38.0833 67.6165C38.0195 67.7318 37.9807 67.8592 37.9696 67.9903C37.9585 68.1214 37.9753 68.2533 38.0188 68.3776C38.7513 70.1864 39.9829 71.7537 41.5724 72.8999C43.261 74.0748 45.1059 75.0112 47.0544 75.6824C47.1768 75.7279 47.3077 75.7464 47.4381 75.7364C47.5684 75.7265 47.695 75.6884 47.8089 75.6248C47.9607 75.553 48.0962 75.4514 48.2071 75.326C48.318 75.2006 48.4019 75.0542 48.4539 74.8956C48.4957 74.7503 48.5078 74.5981 48.4894 74.4481C48.471 74.298 48.4226 74.1532 48.3468 74.022C48.2711 73.8909 48.1696 73.7761 48.0484 73.6844C47.9273 73.5928 47.7888 73.5261 47.6413 73.4884Z" fill="#1E1E1E"/>
<path d="M102.906 156.226C89.9298 156.808 76.5152 157.416 63.1779 157.659C51.0596 157.876 38.7349 157.659 26.8165 157.435L1.57373 156.987C1.42885 156.982 1.28441 157.006 1.14939 157.059C1.01436 157.111 0.891629 157.19 0.788814 157.292C0.685999 157.393 0.60531 157.514 0.551726 157.648C0.498143 157.781 0.472809 157.925 0.477329 158.068C0.466729 158.218 0.487187 158.368 0.537437 158.509C0.587687 158.65 0.666653 158.78 0.769447 158.89C0.872241 158.999 0.996671 159.087 1.13502 159.147C1.27336 159.207 1.42269 159.238 1.57373 159.239L13.4276 159.456C21.9214 159.616 31.5503 159.795 40.9792 159.93C44.1394 159.981 47.3706 160 50.5823 160C60.05 160 69.8916 159.808 80.6556 159.418C87.9627 159.149 95.3924 158.817 102.583 158.491H102.906C103.06 158.483 103.212 158.444 103.351 158.376C103.49 158.309 103.614 158.215 103.716 158.099C103.818 157.983 103.895 157.849 103.943 157.703C103.991 157.557 104.009 157.403 103.996 157.25C104 157.109 103.974 156.969 103.92 156.839C103.866 156.71 103.785 156.592 103.682 156.496C103.579 156.399 103.457 156.325 103.323 156.279C103.189 156.232 103.047 156.214 102.906 156.226Z" fill="#1E1E1E"/>
<path d="M16.0394 36.6451C16.4052 36.7383 16.7932 36.687 17.1216 36.5021C17.45 36.3171 17.6932 36.013 17.8 35.6537C17.8839 35.417 17.9677 35.1804 18.0645 34.9437L18.2192 34.5791C18.3998 34.1697 18.5997 33.7603 18.8126 33.3573C19.2643 32.5107 19.775 31.6964 20.3411 30.9203L20.6184 30.5493L21.0118 30.0696C21.3278 29.6986 21.6568 29.3404 21.9792 29.0078C22.3017 28.6752 22.6241 28.3682 22.966 28.0611C23.153 27.8884 23.3465 27.7285 23.54 27.5622L23.9076 27.268C24.2265 27.076 24.4598 26.7709 24.5604 26.4146C24.661 26.0583 24.6213 25.6774 24.4493 25.3491C24.1939 24.9798 23.8025 24.7248 23.3594 24.639C23.2863 24.6353 23.2131 24.6353 23.1401 24.639C22.9233 24.6356 22.7117 24.7056 22.5403 24.8373C19.1123 27.4326 16.5142 30.9557 15.059 34.9821C15.0105 35.1493 14.997 35.3247 15.0191 35.4974C15.0413 35.67 15.0988 35.8364 15.188 35.9863C15.2771 36.1479 15.3986 36.2897 15.545 36.403C15.6914 36.5163 15.8596 36.5987 16.0394 36.6451Z" fill="#00A99D"/>
<path d="M72.5357 121.948C71.2458 123.44 69.8829 124.867 68.4468 126.227C68.3565 125.638 68.2662 125.05 68.1953 124.461C67.7632 120.847 64.0161 117.656 60.3529 119.984C56.6897 122.312 52.8136 124.717 48.9956 127.02C48.8021 126.054 48.6409 125.101 48.5377 124.103C48.1185 120.169 44.4423 117.707 40.6953 119.626C35.2621 122.478 30.5894 126.569 27.0614 131.561C25.4103 133.826 26.6615 137.318 28.9316 138.636C31.5565 140.158 34.4071 139.052 36.0646 136.781C37.1292 135.323 38.3511 133.985 39.7085 132.79C40.031 133.954 40.3921 135.105 40.8113 136.256C41.9464 139.352 45.371 141.137 48.4732 139.346C52.059 137.273 55.6169 135.141 59.1469 132.949C59.4242 134.306 59.7209 135.655 60.0691 136.998C60.8495 140.005 64.9771 142.039 67.731 140.088C72.2106 136.953 76.3001 133.303 79.9138 129.214C84.2864 124.25 76.947 116.907 72.5357 121.948Z" fill="#FBB03B"/>
<path d="M42.0627 136.685C42.0423 136.911 41.9719 137.129 41.8563 137.325C41.8079 137.418 41.7317 137.493 41.6382 137.541C41.5446 137.59 41.4383 137.608 41.3339 137.593C40.9847 137.572 40.6549 137.427 40.4052 137.184C40.1408 136.928 40.0053 136.724 40.0053 136.544C40.0053 134.728 39.9666 132.867 39.8312 130.973C39.6958 129.08 39.4765 127.186 39.1863 125.3C39.1912 125.203 39.213 125.107 39.2508 125.018L39.412 124.717C39.4908 124.586 39.5989 124.475 39.728 124.391C39.8046 124.355 39.8883 124.337 39.9731 124.337C40.0578 124.337 40.1415 124.355 40.2182 124.391C40.4145 124.484 40.5917 124.612 40.7406 124.769C40.9113 124.938 41.0607 125.127 41.1856 125.332C41.2987 125.521 41.3937 125.72 41.4693 125.926C41.5338 126.349 41.5983 126.809 41.6563 127.308C41.7144 127.807 41.7724 128.338 41.8176 128.882C42.3224 128.61 42.8092 128.306 43.2751 127.973C43.721 127.652 44.1297 127.283 44.4941 126.873C44.8256 126.503 45.0975 126.084 45.3002 125.632C45.4922 125.214 45.5593 124.75 45.4937 124.295C45.4455 123.928 45.2779 123.587 45.0165 123.323C44.6566 122.993 44.2091 122.771 43.7266 122.683C42.5736 122.389 41.3665 122.372 40.2052 122.632C39.151 122.896 38.1469 123.329 37.2321 123.911C37.0112 124.094 36.7507 124.223 36.4711 124.289C36.2751 124.345 36.0672 124.345 35.8713 124.289C35.7175 124.238 35.5841 124.139 35.4908 124.007C35.411 123.897 35.3661 123.766 35.3618 123.63C35.4267 123.128 35.6828 122.671 36.0777 122.351C36.4993 121.973 36.9597 121.641 37.4514 121.359C38.1995 121.007 38.9877 120.745 39.799 120.579C40.7161 120.37 41.6584 120.29 42.598 120.342C43.516 120.387 44.4154 120.616 45.2422 121.014C46.0881 121.417 46.7704 122.094 47.177 122.933C47.5632 123.824 47.6579 124.813 47.4479 125.76C47.2222 126.599 46.8175 127.38 46.2612 128.05C45.6668 128.771 44.9844 129.415 44.2297 129.969C43.4493 130.545 42.7141 131.069 42.0175 131.555C42.0562 132.476 42.082 133.372 42.0949 134.255C42.1078 135.137 42.0885 135.93 42.0627 136.685Z" fill="#1E1E1E"/>
<path d="M59.1664 125.786L57.9798 126.425C57.5533 126.667 57.1419 126.934 56.7479 127.225C56.3216 127.541 55.9284 127.899 55.5741 128.293C55.1801 128.738 54.8443 129.23 54.5745 129.758C54.1665 130.52 53.8794 131.34 53.7232 132.188C53.5775 132.994 53.4806 133.808 53.4329 134.625C53.428 135.021 53.3378 135.412 53.1685 135.77C53.1187 135.932 53.0203 136.074 52.8866 136.178C52.7528 136.282 52.5901 136.343 52.4204 136.352C52.2149 136.346 52.0152 136.283 51.8442 136.17C51.6731 136.057 51.5376 135.899 51.453 135.713C51.23 135.348 51.0647 134.951 50.9629 134.536C50.6103 133.052 50.3158 131.581 50.0793 130.122C49.8471 128.664 49.6472 127.218 49.4795 125.773C49.4795 125.479 49.5634 125.293 49.7439 125.204C49.9457 125.113 50.1697 125.081 50.3889 125.114C50.6407 125.134 50.8872 125.197 51.1177 125.299C51.2236 125.343 51.317 125.412 51.3891 125.5C51.4612 125.588 51.5098 125.693 51.5304 125.805C51.6143 126.579 51.7174 127.391 51.8464 128.235C51.9754 129.08 52.0979 129.815 52.2269 130.423C52.3164 129.691 52.5533 128.984 52.9235 128.344C53.6963 126.987 54.8443 125.877 56.232 125.146C56.9095 124.777 57.6439 124.522 58.4054 124.391C58.6657 124.346 58.9319 124.346 59.1922 124.391C59.3618 124.409 59.5194 124.486 59.6372 124.609C59.6825 124.684 59.7106 124.768 59.7195 124.856C59.7284 124.943 59.7179 125.031 59.6888 125.114C59.6109 125.397 59.4231 125.639 59.1664 125.786Z" fill="#1E1E1E"/>
<path d="M68.3566 125.657C68.9644 125.873 69.5124 126.228 69.956 126.694C70.3817 127.146 70.7186 127.673 70.9492 128.248C71.1796 128.815 71.3146 129.416 71.3491 130.026C71.3845 130.599 71.3145 131.173 71.1427 131.721C70.9031 132.324 70.605 132.903 70.2527 133.448C69.9082 134.001 69.4943 134.508 69.0209 134.958C68.555 135.398 68.0189 135.759 67.4343 136.026C66.8278 136.303 66.167 136.443 65.4995 136.435C64.7256 136.464 63.9618 136.254 63.3132 135.834C62.7271 135.446 62.2483 134.918 61.9201 134.299C61.5716 133.634 61.3528 132.909 61.2752 132.163C61.1191 130.778 61.2823 129.376 61.7525 128.063C61.9369 127.535 62.1976 127.038 62.5264 126.585C62.8246 126.174 63.1936 125.819 63.6163 125.536C64.0343 125.26 64.5269 125.118 65.0287 125.127C65.4043 125.138 65.7769 125.196 66.138 125.299C66.5683 125.407 66.9825 125.571 67.3699 125.785C67.5028 125.669 67.6677 125.595 67.8435 125.572C68.0193 125.549 68.198 125.579 68.3566 125.657ZM67.1506 127.954C66.8712 127.775 66.6021 127.58 66.3444 127.372C66.1234 127.166 65.84 127.038 65.5382 127.007C65.2527 127.02 64.9838 127.144 64.7901 127.353C64.5386 127.59 64.3216 127.862 64.1452 128.159C63.9656 128.454 63.8124 128.764 63.6873 129.086C63.5832 129.329 63.497 129.579 63.4293 129.834C63.3627 130.209 63.3217 130.587 63.3067 130.967C63.2829 131.395 63.3154 131.825 63.4035 132.246C63.4787 132.665 63.646 133.062 63.8936 133.41C64.1589 133.774 64.5447 134.034 64.9836 134.146C65.3264 134.232 65.6855 134.232 66.0284 134.146C66.4505 134.04 66.8517 133.865 67.215 133.627C67.6332 133.349 68.0071 133.011 68.3243 132.623C68.6786 132.193 68.9517 131.704 69.1305 131.178C69.34 130.555 69.34 129.881 69.1305 129.259C69.0434 128.948 68.8893 128.659 68.6789 128.413C68.4685 128.167 68.2067 127.969 67.9116 127.832C67.7833 127.93 67.6279 127.985 67.4666 127.992C67.3597 128 67.2525 127.987 67.1506 127.954Z" fill="#1E1E1E"/>
</svg>
