<svg width="104" height="136" viewBox="0 0 104 136" fill="none" xmlns="http://www.w3.org/2000/svg">
<path d="M55.3155 1.80393C55.4253 1.60758 55.5992 1.46547 55.8012 1.40702C60.2885 -0.0288562 64.9025 1.79225 68.7088 4.45972C69.4056 4.95002 70.1025 5.48119 70.7888 6.04153C66.8769 2.40514 62.0728 0.0294929 56.9098 0.000308331C50.7807 -0.0347131 44.1289 2.91878 38.8655 6.25165C37.978 6.81329 37.1309 7.44944 36.3315 8.15449C41.748 3.9811 48.5529 2.01406 55.0832 1.87981C55.1581 1.84576 55.2359 1.82033 55.3155 1.80393Z" fill="#FBB03B"/>
<path d="M34.5206 32.2142C34.5206 32.3602 34.4836 32.5119 34.4678 32.6579C34.6829 31.5794 34.9996 30.5289 35.4128 29.5234C34.8637 30.2122 34.6473 31.4846 34.5206 32.2142Z" fill="#00A99D"/>
<path d="M74.104 59.6303C74.6677 59.1054 75.0424 58.3742 75.1598 57.5698C75.1153 57.8008 75.0535 58.0273 74.9751 58.2469C74.7806 58.7735 74.4832 59.2459 74.104 59.6303Z" fill="#00A99D"/>
<path d="M58.0288 19.9917C58.4194 19.7816 59.0318 19.3146 59.6759 18.9002C59.5617 18.7042 59.4679 18.4947 59.3961 18.2756C58.0597 19.2095 56.604 19.9159 55.0777 20.3711C53.2944 20.8854 51.4447 21.0592 49.6085 20.8848C47.6341 20.7096 45.6702 20.3011 43.6799 20.482C42.7186 20.5728 41.7695 20.7823 40.8503 21.1066L40.6392 21.1824C41.0984 21.089 41.563 21.0307 41.98 20.9665C47.4704 20.1201 52.7549 22.8168 58.0288 19.9917Z" fill="#FBB03B"/>
<path d="M64.3325 61.1127C64.4908 61.1827 64.6545 61.2411 64.8129 61.3053C64.7815 61.1865 64.7736 61.0617 64.7896 60.9392C64.8057 60.8168 64.8453 60.6995 64.9059 60.5955C64.9664 60.4914 65.0465 60.403 65.1407 60.3361C65.2349 60.2693 65.3409 60.2256 65.4517 60.2079C67.2202 59.8461 69.0046 59.5133 70.7678 59.1048C72.0665 58.8012 73.3441 58.3051 73.4074 56.6066C73.5658 52.8943 72.3885 49.3455 72.9111 45.6215C73.4021 42.1719 74.8328 38.8857 75.9995 35.7513C77.3351 32.1674 78.6707 28.4143 78.7394 24.4802C78.808 20.5461 77.4618 16.9273 75.366 13.8279C73.1332 10.6297 70.3662 7.93497 67.2149 5.88967C64.4328 4.03937 61.2019 2.67353 57.9605 3.07044C58.2906 3.34997 58.5901 3.67124 58.8527 4.0277C59.0151 4.22752 59.1101 4.48315 59.1219 4.75147C59.1223 5.02433 59.0256 5.2864 58.8527 5.48108C58.6805 5.67142 58.4469 5.77834 58.2033 5.77834C57.9598 5.77834 57.7262 5.67142 57.554 5.48108C57.3386 5.18753 57.0963 4.91954 56.8308 4.68143C56.5415 4.45269 56.232 4.25712 55.9069 4.09774L55.6113 3.97515C54.4815 3.97515 53.3518 4.05105 52.2326 4.17362C44.525 5.00246 36.3369 8.65054 31.8021 15.9642C29.6419 19.405 28.4098 23.4533 28.2492 27.638C28.1771 29.7273 28.4326 31.8146 29.0042 33.8076C29.6007 35.8564 30.6671 37.6016 31.6438 39.4577C32.6679 41.4423 33.3753 43.5436 33.0586 45.8783C32.7576 48.0497 31.6649 49.9642 31.4326 52.1764C30.873 57.3946 36.5164 59.0523 39.9954 59.8986C40.1717 59.9315 40.3326 60.0297 40.4515 60.1772C40.5705 60.3247 40.6405 60.5126 40.65 60.7099C41.0407 60.6282 41.4261 60.5407 41.8062 60.4356C44.0129 59.8519 46.5575 58.7896 47.5658 56.3498C47.4471 56.0047 47.2573 55.6949 47.0115 55.445C46.8531 55.2816 46.6947 55.1415 46.5363 55.0014C45.292 54.425 44.1035 53.7112 42.9887 52.8709C39.7452 50.4087 37.3432 46.8137 36.168 42.6622C36.1292 42.5782 36.1042 42.4873 36.0941 42.3937C36.036 42.1777 35.978 41.9618 35.9252 41.7458C35.9129 41.6627 35.9129 41.5779 35.9252 41.4948C35.7947 41.4699 35.6672 41.4288 35.5451 41.3722C34.9472 41.0676 34.4612 40.5467 34.1672 39.8955C33.4758 38.501 33.0466 36.9663 32.9055 35.3836C32.7512 33.8146 32.8804 32.2274 33.2856 30.7141C33.4653 29.9753 33.7485 29.2722 34.125 28.6303C34.5807 28.3039 34.9855 27.8978 35.3234 27.4279C35.7484 26.8702 35.9936 26.172 36.0202 25.4433L36.4425 24.1884C36.8174 23.091 37.1236 21.8536 37.868 20.9898C38.5283 20.3024 39.3314 19.8053 40.2066 19.5422C41.1445 19.2044 42.1098 18.9679 43.089 18.8359C45.1585 18.5558 47.1962 18.9177 49.2551 19.1336C51.1288 19.359 53.024 19.2007 54.8458 18.6667C56.5936 18.125 58.2327 17.2219 59.6762 16.005C59.8539 15.8939 60.0639 15.864 60.2612 15.9218C60.4585 15.9796 60.6275 16.1205 60.7321 16.3144C60.7857 16.4135 60.8195 16.5241 60.8314 16.6389C60.8432 16.7537 60.8328 16.8699 60.8007 16.9798C60.8255 17.0705 60.8362 17.1653 60.8324 17.26C60.8179 17.6034 60.9195 17.9405 61.1175 18.2055C61.2426 18.1754 61.3697 18.1559 61.4975 18.1472C61.3708 18.1822 61.3392 18.3048 61.3603 18.4682C62.0055 18.9204 62.7418 19.1891 63.5037 19.2504C64.7918 19.443 66.2383 19.1336 67.4103 19.8924C68.4661 20.5753 69.0521 21.8011 69.5219 23.0093C69.6645 23.5638 69.7542 24.1358 69.8704 24.6962C69.7912 25.257 69.7912 25.8281 69.8704 26.3889V26.4473C69.9073 26.5465 69.9443 26.6457 69.9759 26.7391C70.0721 26.9541 70.2178 27.1373 70.3983 27.2703C70.7799 27.478 71.2037 27.5725 71.6283 27.5446C71.8361 27.5675 72.0372 27.638 72.219 27.7516C72.4008 27.8651 72.5592 28.0192 72.6842 28.2042L72.7211 28.2509C73.6397 29.6984 73.5183 31.8055 73.4286 33.5391C73.286 36.2007 72.9006 38.9149 71.2852 41.0103C70.6337 41.8212 69.8228 42.4561 68.9148 42.8665C68.4831 43.0519 68.1356 43.4193 67.9487 43.8879C67.7798 44.314 67.6795 44.7752 67.5422 45.2129C66.9226 47.1435 65.9767 48.9262 64.7548 50.4661C64.1721 51.1952 63.5384 51.8724 62.8596 52.4916C62.6746 52.5699 62.4977 52.6697 62.3317 52.7892C62.2789 52.906 62.2261 53.0227 62.1786 53.1395C62.0767 53.1309 61.9743 53.1309 61.8724 53.1395L61.6929 53.3029L61.1386 53.8399L61.0541 53.9099L60.901 54.0325C60.7992 54.1093 60.6934 54.1795 60.5842 54.2426L60.4365 54.3419C60.1831 54.5053 59.9085 54.6629 59.6551 54.8205C59.55 55.0959 59.4824 55.387 59.4545 55.6843C59.4296 55.9344 59.4173 56.1857 59.4176 56.4373C60.2042 58.7779 62.3052 60.243 64.3325 61.1127Z" fill="#FBB03B"/>
<path d="M71.7656 34.8933C71.7128 35.0918 71.6652 35.2902 71.6019 35.477C71.1109 36.9421 70.6306 38.3488 70.1924 39.773L70.2874 39.6562C71.1672 38.2493 71.6787 36.6011 71.7656 34.8933Z" fill="#00A99D"/>
<path d="M71.7968 34.5375C71.8232 34.234 71.8443 33.9538 71.8601 33.6386C71.9235 32.4712 72.198 30.4458 71.5012 29.3076L70.6987 29.115L70.9891 30.1306C71.4258 31.5559 71.6972 33.0367 71.7968 34.5375Z" fill="#FBB03B"/>
<path d="M80.0695 28.8989C79.1193 33.5218 77.0551 37.7886 75.7354 42.2713C77.166 37.8644 79.2777 33.4751 80.0695 28.8989Z" fill="#00A99D"/>
<path d="M67.7056 22.7351C67.4821 22.272 67.1791 21.8616 66.8134 21.5269C66.1958 21.0016 65.4197 21.1067 64.7017 21.0775C64.0249 21.0558 63.3506 20.9758 62.6851 20.8381C63.8254 22.0055 65.1874 21.9647 66.7817 22.2623C67.1188 22.3382 67.4352 22.5001 67.7056 22.7351Z" fill="#FBB03B"/>
<path d="M36.6692 61.0778C36.4792 61.0136 36.2891 60.9552 36.1043 60.8852C34.2994 60.2974 32.6627 59.2036 31.353 57.71C31.4831 57.9398 31.6241 58.1619 31.7754 58.3753C32.5029 59.3435 33.401 60.1378 34.415 60.7101C35.099 60.7175 35.7777 60.8435 36.4263 61.0837L36.6692 61.0778Z" fill="#FBB03B"/>
<path d="M86.8324 132.154C87.2318 132.142 87.6182 131.995 87.94 131.733C88.2618 131.471 88.5034 131.107 88.6325 130.689C89.0061 129.563 89.0395 128.335 88.7276 127.187C88.6062 126.831 88.2682 126.918 87.8934 126.895L86.0035 126.795C83.3921 126.655 80.7789 126.541 78.1639 126.451C73.0255 126.276 67.8888 126.194 62.7539 126.206C52.3434 126.206 41.9382 126.381 31.5329 126.492L23.6141 126.574L19.7972 126.614C18.8449 126.573 17.8912 126.621 16.9465 126.76C16.0279 128.313 16.3657 130.63 17.7067 132.095C18.7637 132.368 19.8422 132.526 20.927 132.568C31.1527 133.455 41.4208 133 51.6571 132.568C61.8935 132.136 72.1615 131.698 82.3873 132.615C82.5396 132.627 82.6882 132.672 82.8244 132.748C82.9606 132.825 83.0815 132.931 83.1799 133.06C83.2784 133.189 83.3525 133.338 83.3977 133.499C83.4429 133.661 83.4583 133.83 83.4431 133.998C84.2614 133.998 85.0797 133.946 85.8927 133.899C85.8002 133.72 85.7523 133.516 85.7541 133.31C85.7559 133.103 85.8071 132.901 85.9026 132.724C85.9982 132.546 86.1346 132.4 86.2979 132.3C86.4612 132.2 86.6457 132.149 86.8324 132.154ZM19.7867 129.778C19.7848 129.984 19.7338 130.185 19.6389 130.362L19.4699 130.607C19.3363 130.755 19.1711 130.863 18.9895 130.922L18.6992 130.963C18.5524 130.97 18.4067 130.934 18.2768 130.858C18.1411 130.813 18.02 130.726 17.9284 130.607C17.8203 130.503 17.7415 130.368 17.7014 130.216C17.6324 130.072 17.5996 129.911 17.6064 129.749V129.673C17.6109 129.468 17.6617 129.267 17.7542 129.089L17.9284 128.844C18.06 128.693 18.2259 128.584 18.4088 128.529L18.6992 128.488C18.8442 128.481 18.9883 128.517 19.1162 128.593C19.2519 128.641 19.3738 128.728 19.4699 128.844C19.5735 128.951 19.65 129.086 19.6916 129.235C19.7607 129.379 19.7935 129.54 19.7867 129.702V129.778ZM24.1209 129.86C24.1173 130.065 24.0664 130.266 23.9731 130.444L23.8041 130.689C23.6719 130.837 23.506 130.944 23.3237 130.998L23.0333 131.045C22.8867 131.051 22.7411 131.015 22.611 130.94C22.4776 130.89 22.3577 130.804 22.2626 130.689C22.159 130.581 22.081 130.447 22.0356 130.298C21.9663 130.154 21.9352 129.993 21.9459 129.831V129.749C21.9495 129.544 22.0004 129.343 22.0937 129.165L22.2626 128.92C22.3971 128.775 22.5622 128.668 22.743 128.611L23.0333 128.564C23.18 128.558 23.3257 128.594 23.4557 128.669C23.5882 128.721 23.7076 128.807 23.8041 128.92C23.9077 129.028 23.9856 129.162 24.0311 129.311C24.0976 129.455 24.1286 129.616 24.1209 129.778V129.86ZM27.584 131.15C26.1797 131.15 26.1797 128.727 27.584 128.727C28.9883 128.727 29.0041 131.15 27.6051 131.15H27.584ZM79.2567 129.86C79.2511 130.019 79.2074 130.174 79.13 130.309L79.0561 130.467C78.9611 130.647 78.8267 130.797 78.6654 130.905L78.4067 131.027C78.2168 131.086 78.016 131.086 77.826 131.027L77.5674 130.905C77.4417 130.832 77.3361 130.723 77.2612 130.589C77.1627 130.474 77.0951 130.331 77.0659 130.175C77.0265 130.018 77.0265 129.853 77.0659 129.696C77.07 129.534 77.1157 129.376 77.1979 129.241L77.2664 129.084C77.3616 128.905 77.496 128.757 77.6571 128.652L77.9211 128.529C78.1092 128.47 78.3084 128.47 78.4965 128.529L78.7605 128.652C78.8837 128.726 78.9888 128.832 79.0666 128.961C79.1601 129.084 79.2276 129.229 79.2641 129.384C79.3006 129.54 79.3053 129.702 79.2778 129.86H79.2567ZM81.9596 130.916C80.5554 130.916 80.5606 128.488 81.9596 128.488C83.3586 128.488 83.385 130.916 81.9808 130.916H81.9596ZM85.7976 128.488C87.2071 128.488 87.2019 130.916 85.7976 130.916C84.3933 130.916 84.4198 128.465 85.8187 128.465L85.7976 128.488Z" fill="#00A99D"/>
<path d="M91.0449 127.805C91.1113 129.014 90.9971 130.227 90.707 131.395H90.6753C90.3949 132.229 89.9346 132.974 89.3345 133.566L89.7885 133.514C91.3722 133.28 92.9982 132.621 93.7954 131.179H93.3889C92.2116 131.115 92.2063 129.066 93.3889 129.13L94.2811 129.177C94.2811 126.737 92.2908 125.546 90.3428 125.476L90.4431 125.611C90.8056 126.275 91.0124 127.03 91.0449 127.805Z" fill="#00A99D"/>
<path d="M44.8148 68.5723C44.3397 69.5412 43.8962 70.5218 43.4897 71.5257L43.2205 72.2086L43.1149 72.5005C43.0727 72.6056 43.0357 72.7106 42.9988 72.8157C42.8932 73.1017 42.8034 73.3994 42.7031 73.6854L49.9304 73.5862C49.9042 73.4122 49.9042 73.2348 49.9304 73.0609C50.0782 72.1912 50.226 71.3098 50.3685 70.4517C50.3685 70.4167 50.3686 70.3817 50.4055 70.3408C49.297 70.1227 48.2033 69.8204 47.1324 69.4361C46.3774 69.1618 45.5961 68.8758 44.8148 68.5723Z" fill="#00A99D"/>
<path d="M42.7561 67.7259C41.6226 67.2368 40.5173 66.6715 39.4461 66.0332C39.4451 66.0487 39.4451 66.0644 39.4461 66.0799L36.041 70.1074C36.766 70.7028 37.4999 71.267 38.2425 71.8001C39.0307 72.2277 39.8523 72.5754 40.6973 72.8391C41.2851 71.0883 41.9728 69.3805 42.7561 67.7259Z" fill="#00A99D"/>
<path d="M61.0488 73.4288C60.652 72.4151 60.1971 71.4305 59.6868 70.4811C59.6427 70.3921 59.6073 70.2982 59.5812 70.2009C57.2599 70.7523 54.8755 70.9039 52.5124 70.6504C52.5306 70.7995 52.5306 70.9507 52.5124 71.0998L52.1006 73.5513L55.3684 73.5046L61.0488 73.4288Z" fill="#00A99D"/>
<path d="M35.6978 63.0914C35.1013 63.0622 34.5047 63.0097 33.9135 62.928C33.2051 63.2539 32.4696 63.5022 31.7174 63.6693L31.4111 63.8502C32.0765 65.597 33.0268 67.1937 34.2144 68.5606L34.2883 68.619L37.5508 64.7549C36.8983 64.2496 36.2791 63.6937 35.6978 63.0914Z" fill="#00A99D"/>
<path d="M63.1867 72.6408C64.2261 72.3931 65.1998 71.8837 66.0322 71.1524C65.377 70.3237 64.7887 69.433 64.2742 68.4907C63.6565 68.8001 63.0231 69.0744 62.3737 69.3429C62.1678 69.4246 61.9514 69.5005 61.7402 69.5705C62.2646 70.5735 62.7302 71.6126 63.1339 72.6816L63.1867 72.6408Z" fill="#00A99D"/>
<path d="M51.2556 75.991H49.978C50.3951 76.0207 50.8227 76.0147 51.2556 75.991Z" fill="#00A99D"/>
<path d="M67.5581 69.4244C67.5978 69.471 67.6332 69.5219 67.6637 69.5762C68.7319 68.5008 69.6961 67.3056 70.5408 66.0099C70.3125 65.8834 70.1273 65.6787 70.0129 65.4262C69.7595 65.3094 69.485 65.1869 69.2422 65.0818C68.2866 65.9326 67.2735 66.7014 66.2119 67.3815C66.46 67.831 66.7398 68.2746 67.0144 68.7007C67.1886 68.9283 67.3681 69.1793 67.5581 69.4244Z" fill="#00A99D"/>
<path d="M85.8188 128.465C84.4198 128.465 84.4145 130.893 85.8188 130.893C87.2231 130.893 87.2283 128.465 85.8188 128.465Z" fill="#1E1E1E"/>
<path d="M81.9804 128.465C80.5814 128.465 80.5762 130.893 81.9804 130.893C83.3847 130.893 83.39 128.465 81.9804 128.465Z" fill="#1E1E1E"/>
<path d="M79.0664 128.961C78.9886 128.832 78.8835 128.726 78.7603 128.652L78.4963 128.529C78.3082 128.47 78.109 128.47 77.9209 128.529L77.6569 128.652C77.4958 128.757 77.3614 128.905 77.2662 129.084L77.1977 129.241C77.1155 129.376 77.0698 129.534 77.0657 129.696C77.0263 129.853 77.0263 130.019 77.0657 130.175C77.0949 130.331 77.1625 130.474 77.261 130.589C77.3359 130.723 77.4415 130.832 77.5672 130.905L77.8258 131.027C78.0158 131.086 78.2166 131.086 78.4065 131.027L78.6652 130.905C78.8265 130.797 78.9609 130.647 79.0559 130.467L79.1298 130.309C79.2072 130.175 79.2509 130.019 79.2565 129.86C79.284 129.702 79.2793 129.54 79.2428 129.384C79.2062 129.229 79.1388 129.084 79.0454 128.961H79.0664Z" fill="#1E1E1E"/>
<path d="M19.4909 128.844C19.3948 128.728 19.2728 128.641 19.1372 128.593C19.0092 128.517 18.8652 128.481 18.7202 128.488L18.4298 128.529C18.247 128.584 18.081 128.693 17.9494 128.844L17.7752 129.089C17.6827 129.267 17.6319 129.468 17.6273 129.673V129.749C17.6205 129.911 17.6534 130.072 17.7224 130.216C17.7625 130.368 17.8413 130.503 17.9494 130.607C18.041 130.726 18.1621 130.813 18.2978 130.858C18.4277 130.934 18.5735 130.97 18.7202 130.963L19.0105 130.922C19.1921 130.863 19.3573 130.755 19.4909 130.607L19.6598 130.362C19.7547 130.185 19.8057 129.984 19.8077 129.778V129.702C19.8145 129.54 19.7817 129.379 19.7127 129.235C19.671 129.086 19.5945 128.951 19.4909 128.844Z" fill="#1E1E1E"/>
<path d="M23.8462 128.92C23.7497 128.807 23.6302 128.721 23.4977 128.669C23.3677 128.594 23.2221 128.558 23.0754 128.564L22.785 128.611C22.6042 128.668 22.4391 128.774 22.3046 128.92L22.1357 129.165C22.0424 129.343 21.9915 129.544 21.9879 129.749V129.831C21.9772 129.992 22.0084 130.154 22.0776 130.298C22.1231 130.446 22.201 130.581 22.3046 130.689C22.3997 130.803 22.5196 130.89 22.6531 130.94C22.7831 131.015 22.9288 131.051 23.0754 131.045L23.3657 130.998C23.548 130.944 23.7139 130.837 23.8462 130.689L24.0151 130.443C24.1084 130.266 24.1593 130.065 24.1629 129.86V129.778C24.1706 129.616 24.1397 129.455 24.0732 129.311C24.0277 129.162 23.9497 129.028 23.8462 128.92Z" fill="#1E1E1E"/>
<path d="M27.605 128.728C26.2007 128.728 26.2007 131.15 27.605 131.15C29.0092 131.15 29.0092 128.728 27.605 128.728Z" fill="#1E1E1E"/>
<path d="M75.0962 55.7778C75.2122 56.3666 75.2302 56.9739 75.1491 57.5698C75.5186 55.8187 74.9326 54.0676 74.7003 52.2582C74.241 48.686 74.8059 45.429 75.7561 42.2712C75.4658 43.1526 75.2282 44.0223 74.9854 44.927C73.9982 48.9253 74.3835 51.8496 75.0962 55.7778Z" fill="#1E1E1E"/>
<path d="M86.8323 134.582C87.7528 134.614 88.6491 134.252 89.3346 133.572C88.189 133.73 87.0434 133.829 85.8926 133.899C85.9719 134.102 86.1031 134.275 86.2701 134.396C86.4371 134.517 86.6325 134.582 86.8323 134.582Z" fill="#1E1E1E"/>
<path d="M31.5484 49.7368C32.2769 47.9099 33.1797 46.2989 32.7098 44.2385C32.2928 42.3823 30.9994 40.7013 30.1125 39.1078C27.2195 33.9071 26.1478 26.4592 28.2489 20.6398C28.856 18.9588 29.8749 17.7564 30.7882 16.303C31.5959 15.0014 32.1713 13.548 32.9527 12.2172C33.8754 10.6654 35.0159 9.28615 36.3314 8.13135C34.8127 9.28872 33.4141 10.6276 32.1608 12.1238C26.7179 18.6903 24.4848 29.0508 28.3334 37.2225C29.31 39.3004 30.7777 41.2208 31.2 43.5672C31.6223 45.9136 30.3975 48.1959 29.8538 50.4256C29.5461 51.5187 29.4718 52.6758 29.6367 53.806C29.8015 54.9362 30.2011 56.0088 30.8041 56.9396C30.9778 57.2053 31.1665 57.4587 31.3689 57.6984C29.9752 55.2235 30.5031 52.3634 31.5484 49.7368Z" fill="#1E1E1E"/>
<path d="M80.2962 23.4004C80.481 25.2273 80.4043 27.075 80.0692 28.8755C80.3819 27.4266 80.5588 25.9459 80.5971 24.4569C80.7344 16.8106 76.152 10.4075 70.8042 6.03564C71.0998 6.30998 71.3902 6.58431 71.67 6.87032C75.735 11.0204 79.6152 17.2192 80.2962 23.4004Z" fill="#1E1E1E"/>
<path d="M78.2693 134.74C79.6472 134.815 81.0251 134.921 82.4029 135.043C82.5366 135.065 82.6729 135.053 82.8023 135.01C82.9316 134.967 83.0508 134.893 83.1515 134.793C83.2522 134.694 83.3319 134.571 83.385 134.434C83.4381 134.296 83.4632 134.148 83.4588 133.998C79.1721 134.08 74.8695 133.771 70.5828 133.695C64.8127 133.584 59.0531 134.086 53.2829 134.243C47.5128 134.401 41.6159 134.343 35.7824 134.185C32.8049 134.103 29.8292 133.992 26.8553 133.852C24.543 133.741 21.9245 133.963 19.665 133.321C18.9347 133.118 18.2685 132.698 17.7382 132.107C16.8148 131.886 15.9909 131.314 15.41 130.49C15.174 130.168 15.0099 129.788 14.931 129.383C14.8522 128.977 14.8607 128.557 14.956 128.156C15.2569 127.298 16.1069 126.988 16.846 126.813H16.9779C17.2829 126.328 17.6882 125.93 18.1601 125.653C18.6321 125.376 19.1571 125.227 19.6914 125.22C22.5052 124.986 25.4985 125.517 28.3229 125.476C30.9942 125.476 33.6655 125.325 36.342 125.225C42.2266 125.004 48.1164 124.885 54.0114 124.869C65.5799 124.834 77.1395 125.187 88.6904 125.926C89.0492 125.661 89.4682 125.513 89.8994 125.5C90.0523 125.491 90.2056 125.491 90.3586 125.5C90.1708 125.253 89.9366 125.053 89.6723 124.916C89.7046 124.874 89.7313 124.827 89.7515 124.776C90.6855 122.447 91.3506 119.998 91.7312 117.486C91.9184 117.406 92.0738 117.255 92.1694 117.06L95.7857 110.236C96.8415 108.188 97.8973 106.098 97.7706 103.641C97.6439 101.183 96.5986 98.7959 95.7434 96.502C94.8389 94.0622 93.9327 91.6204 93.0247 89.1767C93.0263 89.1612 93.0263 89.1455 93.0247 89.13C93.0247 86.8769 92.9402 84.6297 92.824 82.3825C92.7765 81.5362 92.7237 80.6957 92.6656 79.8493C92.5073 77.713 92.5706 74.8938 90.3481 74.1116C89.26 73.8179 88.147 73.6516 87.0275 73.6155L86.3676 73.5571C84.1873 70.9247 81.2626 69.4012 78.4118 67.8603C76.3002 66.7338 74.3257 65.4263 72.2721 64.2472L71.4961 63.9437C69.9733 63.195 68.403 62.5708 66.7976 62.0759C68.3814 61.7607 69.9651 61.4922 71.4908 61.0836C72.4655 60.8772 73.375 60.3944 74.1304 59.6828C73.5125 60.2385 72.7916 60.6371 72.0187 60.8501C67.959 62.1168 59.317 63.6928 59.3487 56.5367C59.27 56.3274 59.203 56.113 59.1481 55.8946C59.0966 55.6739 58.9771 55.4799 58.8102 55.3459C58.3298 55.6028 57.8441 55.8304 57.3426 56.0347C57.3301 56.1719 57.3408 56.3105 57.3743 56.4433C58.1239 59.4376 60.4045 61.4806 62.8647 62.7005C64.121 63.2887 65.4099 63.7878 66.7237 64.1947C63.5145 66.6876 59.7423 68.1465 55.8275 68.409C53.5143 68.5589 51.1948 68.2807 48.9645 67.586C46.5623 66.8402 44.2137 65.8978 41.9379 64.7667C40.9448 64.2654 39.9881 63.68 39.0766 63.0157C40.3259 62.8779 41.5622 62.6221 42.772 62.251C45.6492 61.3696 48.5792 59.6886 49.4714 56.2857C49.4738 56.2469 49.4738 56.2078 49.4714 56.169C49.1018 56.0522 48.7322 55.9297 48.3732 55.8012C48.1621 55.7254 47.9562 55.632 47.7503 55.5503C47.7216 55.6124 47.6969 55.6768 47.6764 55.7429C47.6242 55.9432 47.5571 56.1384 47.4758 56.3265C47.632 56.8285 47.6629 57.3677 47.5654 57.8874C47.4678 58.4072 47.2454 58.8882 46.9215 59.28C44.0865 62.7822 38.3006 63.039 34.3623 60.7276C34.0293 60.723 33.6967 60.7562 33.3698 60.8268C33.2334 60.8011 33.0934 60.8092 32.9601 60.8506C32.8268 60.892 32.7034 60.9656 32.599 61.0661C31.8993 61.3326 31.2137 61.6425 30.5454 61.9942V62.0351C27.8159 63.5683 25.2261 65.3881 22.8115 67.4692C20.8231 69.272 19.1884 71.5044 18.0073 74.0299C16.51 73.9608 15.0107 74.0901 13.5412 74.4152C12.6071 74.6564 11.7447 75.1587 11.0367 75.8742C10.3286 76.5896 9.79853 77.4941 9.4973 78.501C8.80172 80.7689 8.54457 83.173 8.74242 85.5578C8.81757 86.7929 8.99427 88.0179 9.27033 89.2175C9.62404 90.7293 11.7304 90.0872 11.382 88.5755C10.8352 86.3173 10.7147 83.9589 11.0283 81.6471C11.2922 79.7851 11.7463 77.6721 13.5148 76.9775C14.8505 76.4405 16.3761 76.4697 17.8226 76.4931C17.9688 76.6343 18.1564 76.7121 18.3505 76.7121C18.5447 76.7121 18.7322 76.6343 18.8784 76.4931L25.6833 76.3997L49.8673 76.0553C45.4275 75.9678 41.6265 74.3393 38.1053 71.8469C37.2953 71.4019 36.5248 70.8743 35.8035 70.2709L35.9038 70.1542C35.3231 69.6756 34.7477 69.1736 34.1775 68.6541L34.1142 68.5782C33.3223 67.8545 32.5322 67.1015 31.7438 66.3194C29.7536 64.3407 32.1186 61.2471 34.2409 62.0993C34.7756 62.0135 35.3197 62.1576 35.7613 62.502C41.088 66.3952 47.2013 68.1346 53.3198 69.8098C53.7161 69.9062 54.0811 70.1201 54.3757 70.4285C56.4256 70.0171 58.4512 69.4693 60.4415 68.7884C62.7854 68.0237 65.8368 67.3466 67.3414 64.9885C69.0677 62.2744 73.1485 64.8776 71.3747 67.6151C69.3686 70.7612 66.5073 72.1446 63.2869 73.2711C59.6305 74.6403 55.8461 75.5488 52.0053 75.9794C51.7202 75.9794 51.4458 76.0086 51.166 76.0203H52.396C61.2597 75.8977 70.1341 75.6409 79.0031 75.6759C81.2362 75.6759 83.4693 75.746 85.6919 75.9269C86.7477 76.0145 87.8035 76.1137 88.891 76.2771C89.2095 76.282 89.5224 76.37 89.8043 76.534C90.0449 76.8647 90.1755 77.2769 90.1739 77.7013C90.4441 80.1616 90.5956 82.6361 90.6279 85.1142C90.7071 87.519 90.7282 89.9238 90.7124 92.3286C90.6754 97.8095 90.4484 103.284 90.1844 108.76C89.968 113.768 89.6565 118.945 87.7455 123.574C87.6135 123.875 87.5835 124.219 87.661 124.543H87.2439C81.6128 124.227 75.9816 124.033 70.3505 123.959C59.1058 123.784 47.8506 124.023 36.606 124.14L19.7126 124.315C18.5775 124.278 17.4417 124.35 16.318 124.531C14.1912 114.998 12.8587 105.27 12.3375 95.4689C12.253 93.9162 10.0727 93.9046 10.1572 95.4689C10.2417 97.0331 10.3262 98.5799 10.4634 100.138C9.09613 103.681 8.74769 107.545 8.47317 111.357C8.27394 113.267 8.5117 115.202 9.16471 116.984C9.88673 118.695 10.8669 120.258 12.063 121.607C12.1525 121.716 12.2639 121.801 12.3884 121.854C12.5129 121.908 12.647 121.928 12.7799 121.914C12.9128 121.9 13.0409 121.851 13.1538 121.773C13.2668 121.694 13.3614 121.587 13.4303 121.461C13.4333 121.505 13.4333 121.55 13.4303 121.595C13.5042 121.963 14.3806 125.295 14.2381 125.406C14.0163 125.577 13.811 125.773 13.6257 125.99C12.0419 127.782 12.3956 130.543 13.7259 132.37C15.2411 134.454 17.8067 134.874 20.061 135.09C22.7956 135.358 25.5408 135.504 28.286 135.586C33.8133 135.755 39.3406 135.627 44.8626 135.423C56.0492 134.886 67.1777 134.109 78.2693 134.74ZM92.6815 104.183C92.7976 101.317 92.8979 98.4399 92.9507 95.5681V94.3307L93.769 96.537C94.5714 98.6908 95.6378 100.944 95.8806 103.284C96.1235 105.625 95.036 107.516 94.0224 109.431L92.2486 112.775C92.4756 109.904 92.5654 107.014 92.6815 104.183ZM33.3856 71.0297C33.429 71.0974 33.4785 71.16 33.5335 71.2165C33.5967 71.2831 33.6677 71.3401 33.7446 71.3858C34.6952 72.3114 35.7406 73.1107 36.8594 73.7672L26.887 73.9073L20.1666 74.0066C21.2147 72.0577 22.5658 70.3287 24.1576 68.8993C25.8359 67.432 27.6231 66.1238 29.5002 64.9885C30.4097 67.2738 31.7319 69.3295 33.3856 71.0297ZM69.5058 73.3061L67.0299 73.3411C67.6964 72.8073 68.3279 72.2222 68.9199 71.5901C70.3696 70.171 71.6409 68.5436 72.6998 66.7513C74.2835 67.7027 75.8251 68.695 77.451 69.5705C79.4941 70.6737 81.5952 71.7535 83.3954 73.2944C78.7497 73.0843 74.1304 73.2419 69.5058 73.3061ZM10.9544 116.079C10.2892 114.41 10.2997 112.699 10.4264 110.913C10.5519 108.957 10.7669 107.009 11.0706 105.076C11.5298 109.244 12.0736 113.388 12.8074 117.521C12.9341 118.262 13.0819 118.992 13.2192 119.727C12.2963 118.649 11.5321 117.418 10.9544 116.079Z" fill="#1E1E1E"/>
<path d="M46.9902 59.2567C47.3142 58.8649 47.5366 58.3838 47.6342 57.8641C47.7317 57.3443 47.7008 56.8051 47.5446 56.3032C46.5627 58.7547 43.9917 59.8053 41.785 60.389C41.4049 60.4941 41.0195 60.5817 40.6289 60.6634C40.6194 60.466 40.5493 60.2781 40.4303 60.1307C40.3113 59.9832 40.1505 59.8849 39.9743 59.852C36.4953 59.0057 30.8518 57.348 31.4114 52.1298C31.6436 49.9468 32.7365 48.0031 33.0374 45.8318C33.3541 43.497 32.6467 41.3957 31.6225 39.4112C30.667 37.555 29.6006 35.8098 28.9829 33.7611C28.4113 31.7681 28.1559 29.6807 28.2281 27.5914C28.3887 23.4067 29.6207 19.3584 31.7809 15.9176C36.3158 8.60397 44.5038 4.95589 52.2114 4.12705C53.3306 4.00448 54.4603 3.93445 55.5901 3.92862L55.8857 4.05117C56.2107 4.21055 56.5203 4.40612 56.8095 4.63486C57.075 4.87297 57.3175 5.14096 57.5328 5.43451C57.7051 5.62485 57.9386 5.73177 58.1822 5.73177C58.4257 5.73177 58.6592 5.62485 58.8315 5.43451C59.0044 5.23983 59.1011 4.97776 59.1007 4.7049C59.089 4.43657 58.9939 4.18095 58.8315 3.98113C58.5689 3.62467 58.2694 3.30343 57.9393 3.0239C61.1807 2.62699 64.4116 3.9928 67.1937 5.8431C70.3492 7.89641 73.1183 10.6013 75.3501 13.8105C77.4618 16.9099 78.7921 20.5463 78.7234 24.4629C78.6548 28.3794 77.3192 32.1501 75.9836 35.7339C74.8169 38.8684 73.3862 42.1545 72.8953 45.6041C72.3673 49.3281 73.5498 52.8769 73.3915 56.5892C73.3228 58.2877 72.0453 58.7839 70.7519 59.0874C68.9886 59.496 67.2043 59.8287 65.4358 60.1906C65.325 60.2082 65.2189 60.2519 65.1248 60.3188C65.0306 60.3856 64.9505 60.4741 64.8899 60.5781C64.8294 60.6822 64.7897 60.7994 64.7737 60.9218C64.7576 61.0443 64.7655 61.1691 64.7969 61.2879C64.6386 61.2237 64.4749 61.1654 64.3166 61.0953C62.2894 60.2256 60.1882 58.7605 59.3383 56.4258C59.2908 63.5818 67.9328 62.0058 72.0083 60.7392C72.7812 60.5262 73.5021 60.1276 74.12 59.5718C74.4953 59.1863 74.7891 58.714 74.9805 58.1885C75.0589 57.9689 75.1207 57.7424 75.1653 57.5114C75.2464 56.9155 75.2285 56.3083 75.1125 55.7195C74.3998 51.7913 73.988 48.867 74.9805 44.8687C75.2022 43.9815 75.4609 43.1176 75.7512 42.2129C77.071 37.7301 79.1353 33.4575 80.0855 28.8405C80.4206 27.04 80.4972 25.1924 80.3125 23.3655C79.6315 17.1609 75.7513 10.9621 71.6704 6.83538C71.3906 6.54938 71.1003 6.2517 70.8046 6.00071C70.1184 5.41702 69.4215 4.9092 68.7247 4.4189C64.9184 1.75143 60.278 -0.069676 55.8171 1.3662C55.6151 1.42465 55.4412 1.56676 55.3314 1.76311C55.2518 1.77951 55.1739 1.80494 55.0991 1.83899C48.5687 1.97324 41.7639 3.94028 36.3475 8.11367C35.032 9.26848 33.8915 10.6477 32.9688 12.1995C32.1874 13.5128 31.612 14.9662 30.8043 16.2853C29.891 17.7387 28.8721 18.9411 28.265 20.6222C26.1533 26.4591 27.2356 33.8895 30.1286 39.0902C31.0155 40.6836 32.3088 42.3646 32.7259 44.2208C33.1957 46.2812 32.293 47.8922 31.5645 49.7192C30.5086 52.3458 29.9807 55.2059 31.385 57.6924C32.6947 59.186 34.3314 60.2798 36.1363 60.8677C36.321 60.9377 36.5111 60.9961 36.7011 61.0603H36.4741C35.8255 60.8202 35.1468 60.6941 34.4627 60.6867C38.3693 63.0156 44.1553 62.7413 46.9902 59.2567Z" fill="#1E1E1E"/>
<path d="M82.4028 132.615C72.177 131.698 61.9089 132.125 51.6726 132.568C41.4362 133.012 31.1682 133.467 20.9425 132.568C19.8577 132.526 18.7792 132.368 17.7222 132.095C18.2525 132.687 18.9187 133.106 19.6491 133.31C21.9086 133.952 24.5271 133.73 26.8393 133.841C29.8098 133.981 32.7854 134.092 35.7664 134.173C41.5999 134.331 47.4334 134.395 53.2669 134.232C59.1004 134.068 64.7967 133.572 70.5668 133.683C74.8535 133.759 79.1561 134.068 83.4428 133.987C83.4565 133.821 83.4405 133.654 83.3956 133.495C83.3507 133.336 83.2778 133.189 83.1811 133.061C83.0844 132.934 82.9659 132.829 82.8323 132.752C82.6987 132.675 82.5527 132.629 82.4028 132.615Z" fill="#1E1E1E"/>
<path d="M89.8833 125.459C89.4521 125.473 89.0332 125.62 88.6744 125.885C77.1306 125.157 65.5709 124.805 53.9954 124.828C48.1039 124.828 42.2141 124.947 36.326 125.185C33.6495 125.284 30.9782 125.406 28.3069 125.436C25.4667 125.476 22.4998 124.945 19.6754 125.179C19.1411 125.186 18.6161 125.335 18.1442 125.612C17.6722 125.889 17.2669 126.287 16.9619 126.772C17.9066 126.633 18.8604 126.584 19.8127 126.626L23.6295 126.585L31.5483 126.504C41.9536 126.393 52.3589 126.224 62.7694 126.218C67.9078 126.218 73.0445 126.299 78.1794 126.463C80.7908 126.552 83.404 126.667 86.019 126.807L87.9089 126.906C88.2837 126.906 88.6217 126.842 88.7431 127.198C89.0549 128.346 89.0216 129.575 88.648 130.7C88.5189 131.118 88.2773 131.483 87.9555 131.745C87.6337 132.007 87.2472 132.153 86.8478 132.165C86.6603 132.16 86.4751 132.211 86.311 132.311C86.1469 132.412 86.01 132.558 85.9143 132.737C85.8186 132.915 85.7676 133.118 85.7665 133.326C85.7654 133.533 85.8143 133.737 85.9081 133.917C87.059 133.846 88.2045 133.747 89.3501 133.59C89.9503 132.997 90.4106 132.252 90.6911 131.418H90.7228C91.0128 130.25 91.1269 129.038 91.0606 127.829C91.0316 127.045 90.8247 126.282 90.4588 125.611L90.3585 125.476C90.2005 125.461 90.0419 125.455 89.8833 125.459Z" fill="#1E1E1E"/>
<path d="M63.3767 73.2418C66.597 72.1153 69.4583 70.732 71.4644 67.5859C73.2118 64.8484 69.1575 62.2451 67.4312 64.9593C65.9266 67.294 62.8752 67.9945 60.5312 68.7591C58.541 69.4401 56.5154 69.9878 54.4655 70.3993C54.1709 70.0908 53.8059 69.8769 53.4096 69.7806C47.291 68.1054 41.1777 66.366 35.851 62.4727C35.4095 62.1284 34.8654 61.9842 34.3306 62.07C32.219 61.2178 29.8433 64.3114 31.8336 66.2901C32.6219 67.0683 33.4121 67.8213 34.2039 68.5489C33.0163 67.1821 32.0661 65.5854 31.4007 63.8386L31.7069 63.6576C32.4591 63.4905 33.1947 63.2423 33.9031 62.9163C34.4943 62.9981 35.0909 63.0506 35.6874 63.0798C36.2687 63.682 36.8879 64.238 37.5404 64.7433L34.2779 68.6073C34.848 69.1268 35.4235 69.6288 36.0042 70.1074L39.4092 66.0799C39.4082 66.0644 39.4082 66.0488 39.4092 66.0332C40.4803 66.6715 41.5858 67.2368 42.7193 67.726C41.9179 69.379 41.2126 71.0869 40.6076 72.8391C39.7626 72.5755 38.941 72.2277 38.1528 71.8001C41.674 74.2925 45.475 75.921 49.9148 76.0085H51.1924C51.4722 76.0085 51.7203 76.0085 52.0318 75.9677C55.8945 75.5366 59.7005 74.6221 63.3767 73.2418ZM69.2366 65.0702C69.4953 65.1752 69.7645 65.2978 70.0074 65.4145C70.1217 65.667 70.3069 65.8718 70.5353 65.9982C69.6905 67.294 68.7263 68.4892 67.6581 69.5646C67.6276 69.5102 67.5923 69.4594 67.5526 69.4128C67.3625 69.1677 67.183 68.9225 67.0247 68.6715C66.7396 68.2454 66.4967 67.8018 66.2222 67.3524C67.2817 66.6758 68.2929 65.9109 69.2472 65.0643L69.2366 65.0702ZM62.3737 69.3369C63.023 69.0801 63.6565 68.7941 64.2742 68.4847C64.7887 69.4271 65.377 70.3177 66.0322 71.1464C65.1998 71.8778 64.2261 72.3871 63.1867 72.6348H63.1181C62.7143 71.5658 62.2487 70.5267 61.7243 69.5237C61.9355 69.5121 62.152 69.4128 62.3842 69.3311L62.3737 69.3369ZM50.4005 70.4576C50.258 71.3273 50.1101 72.2087 49.9623 73.0667C49.9361 73.2407 49.9361 73.4181 49.9623 73.592L42.7351 73.6913C42.8354 73.3994 42.9251 73.1076 43.0307 72.8216C43.0677 72.7165 43.1047 72.6115 43.1469 72.5064L43.2525 72.2145L43.5217 71.5316C43.9282 70.5277 44.3717 69.5471 44.8468 68.5782C45.6281 68.8817 46.4305 69.1618 47.1802 69.442C48.2511 69.8263 49.3448 70.1286 50.4533 70.3467C50.4111 70.3817 50.3952 70.4168 50.3847 70.4518L50.4005 70.4576ZM52.5122 71.1055C52.5304 70.9564 52.5304 70.8052 52.5122 70.6561C54.8753 70.9096 57.2597 70.758 59.581 70.2066C59.6071 70.3039 59.6425 70.3978 59.6866 70.4868C60.1969 71.4363 60.6518 72.4208 61.0486 73.4344L55.3418 73.5103L52.074 73.557L52.5122 71.1055Z" fill="#1E1E1E"/>
<path d="M37.3136 40.5318C37.1396 40.2455 36.8855 40.0302 36.5903 39.9189C36.5071 39.892 36.4225 39.8706 36.3369 39.8547C36.7698 40.6427 37.2185 41.4249 37.6567 42.1895V42.137C37.6989 41.5752 37.5788 41.0132 37.3136 40.5318Z" fill="#1E1E1E" stroke="#1E1E1E" stroke-width="0.75" stroke-miterlimit="10"/>
<path d="M67.7056 22.7351C68.1681 23.7404 68.4852 24.8198 68.6453 25.9338C68.6453 26.033 68.6717 26.1322 68.6823 26.2256C68.7121 26.2595 68.7355 26.2997 68.7509 26.3438C68.7663 26.388 68.7735 26.4351 68.772 26.4824C68.7587 26.6202 68.7587 26.7591 68.772 26.8968C68.7707 26.9202 68.7707 26.9435 68.772 26.9669C68.7695 26.9882 68.7695 27.0097 68.772 27.0311C68.781 27.1003 68.7952 27.1687 68.8142 27.2354C68.8142 27.3113 68.8512 27.3871 68.8723 27.463C68.8869 27.499 68.8993 27.5361 68.9092 27.5739C68.9092 27.5739 68.9092 27.6206 68.9092 27.6381C68.9616 27.7725 69.0215 27.9031 69.0887 28.0292L69.2049 28.2335L69.2682 28.3327C69.3518 28.4532 69.4454 28.5646 69.548 28.6654C69.57 28.6937 69.5948 28.7191 69.6219 28.7413C69.6353 28.7581 69.6515 28.7719 69.6695 28.7821C69.7114 28.8185 69.7555 28.8517 69.8015 28.8814L70.0812 28.9514L70.6091 29.0857C70.4032 28.3677 70.1604 27.5389 69.8701 26.71C69.8263 26.6168 69.7909 26.5191 69.7645 26.4182C69.3052 24.9298 68.603 23.4706 67.7056 22.7351Z" fill="#1E1E1E" stroke="#1E1E1E" stroke-width="0.75" stroke-miterlimit="10"/>
<path d="M34.4676 32.6577C34.279 33.6194 34.279 34.6145 34.4676 35.5762C34.3393 34.6085 34.3393 33.6254 34.4676 32.6577Z" fill="#1E1E1E" stroke="#1E1E1E" stroke-width="0.75" stroke-miterlimit="10"/>
<path d="M62.2469 20.7446L62.6746 20.838C62.4791 20.6297 62.3024 20.401 62.1466 20.1551C61.7938 19.6487 61.524 19.0777 61.3495 18.4682C61.2596 18.3913 61.1781 18.3032 61.1066 18.2056C60.6063 18.3628 60.1283 18.5966 59.6865 18.9002C60.2929 19.8571 61.2102 20.518 62.2469 20.7446Z" fill="#1E1E1E" stroke="#1E1E1E" stroke-width="0.75" stroke-miterlimit="10"/>
<path d="M35.8934 29.1207C36.1257 28.8814 36.358 28.6479 36.5692 28.3969C36.6906 28.1284 36.8226 27.8716 36.9651 27.6206L36.9176 27.5856L37.7095 25.2508C38.0263 24.3228 38.2374 23.1963 38.8023 22.3908C39.2915 21.802 39.9331 21.3944 40.6395 21.2234C39.7518 21.3273 38.9156 21.7355 38.248 22.3908C37.4297 23.348 37.0021 25.5602 36.5323 26.7859C36.1891 27.6907 35.7826 28.6246 35.4131 29.576C35.5344 29.3803 35.7 29.2233 35.8934 29.1207Z" fill="#1E1E1E" stroke="#1E1E1E" stroke-width="0.75" stroke-miterlimit="10"/>
<path d="M61.8562 53.1337C62.0024 53.0008 62.1558 52.878 62.3155 52.7659C62.5474 52.2572 62.8483 51.7907 63.2078 51.3826C64.4167 50.0051 64.8971 49.509 65.3564 47.6295C65.5814 46.4967 65.9362 45.4002 66.4122 44.3666C67.3044 42.6156 68.8565 41.635 70.0548 40.2808C70.1076 40.1115 70.1657 39.9481 70.2132 39.7847C69.6897 40.4631 69.0273 40.9934 68.281 41.3314C67.8588 41.5261 67.4784 41.817 67.1646 42.1851C66.8508 42.5532 66.6106 42.9902 66.4597 43.4678C66.1429 44.3433 65.9318 45.2188 65.557 46.0944C65.1896 46.9149 64.7549 47.6964 64.2583 48.4291C62.1854 51.3725 59.3402 53.5355 56.1125 54.6221C55.0965 55.0163 54.0198 55.1829 52.945 55.1124C51.9884 55.008 51.0416 54.8128 50.1153 54.5287C48.3164 54.0136 46.5898 53.228 44.984 52.1939C44.7675 52.0539 44.5669 51.8963 44.3557 51.7503C44.5283 52.3692 44.4947 53.036 44.2607 53.6298C45.0975 53.9134 45.8783 54.3689 46.5625 54.9723C46.9901 55.1766 47.4282 55.3634 47.8664 55.556C47.9716 55.3517 48.1374 55.1937 48.3357 55.1088C48.534 55.0239 48.7527 55.0172 48.9549 55.09C49.1571 55.1627 49.3306 55.3103 49.4458 55.5079C49.561 55.7055 49.611 55.941 49.5874 56.1747C51.3247 56.8078 53.1674 57.0071 54.9827 56.7584C55.8063 56.5962 56.6142 56.348 57.3954 56.0171C57.4252 55.8461 57.4926 55.6859 57.5917 55.5505C57.6907 55.4151 57.8183 55.3088 57.9633 55.2407C58.1083 55.1727 58.2662 55.1451 58.423 55.1604C58.5799 55.1757 58.7309 55.2334 58.8629 55.3284C59.1269 55.1941 59.3909 55.0482 59.639 54.9022C59.8244 54.4094 60.1297 53.9832 60.5212 53.6709C60.9126 53.3587 61.3748 53.1727 61.8562 53.1337Z" fill="#1E1E1E" stroke="#1E1E1E" stroke-width="0.75" stroke-miterlimit="10"/>
<path d="M71.8127 34.7183V34.5374L71.7811 34.8934C71.7758 34.835 71.7969 34.7767 71.8127 34.7183Z" fill="#1E1E1E" stroke="#1E1E1E" stroke-width="0.75" stroke-miterlimit="10"/>
<path d="M44.3081 51.7328C41.1561 49.5098 38.8039 46.1411 37.6563 42.207C37.2182 41.4249 36.7694 40.6427 36.3366 39.8722C36.209 39.8582 36.0852 39.8166 35.9723 39.7497C35.5767 39.3518 35.285 38.8438 35.1276 38.2788C34.8774 37.6282 34.6865 36.9517 34.5575 36.2592C34.5152 36.0433 34.4941 35.8273 34.4624 35.6055C34.2739 34.6438 34.2739 33.6487 34.4624 32.687C34.4624 32.5411 34.4888 32.3894 34.5152 32.2434C34.6419 31.5138 34.8584 30.2413 35.4074 29.5526C35.777 28.6012 36.1834 27.6673 36.5266 26.7626C36.9964 25.5368 37.4241 23.3246 38.2423 22.3674C38.9099 21.7121 39.7461 21.3039 40.6338 21.2L40.8449 21.1241C41.7641 20.7998 42.7133 20.5904 43.6746 20.4996C45.6649 20.3245 47.6287 20.7272 49.6031 20.9023C51.4394 21.0767 53.2891 20.903 55.0724 20.3887C56.5987 19.9335 58.0544 19.2271 59.3907 18.2932C59.4625 18.5123 59.5564 18.7218 59.6705 18.9178C60.1123 18.6142 60.5903 18.3804 61.0907 18.2232C60.8927 17.9581 60.791 17.621 60.8056 17.2776C60.8094 17.1829 60.7986 17.0882 60.7739 16.9974C60.8075 16.8871 60.8193 16.77 60.8083 16.6542C60.7974 16.5384 60.764 16.4265 60.7105 16.3262C60.606 16.1323 60.437 15.9914 60.2396 15.9336C60.0423 15.8758 59.8323 15.9056 59.6547 16.0168C58.2112 17.2336 56.5721 18.1368 54.8243 18.6784C53.0025 19.2125 51.1072 19.3708 49.2336 19.1454C47.1747 18.9294 45.137 18.5617 43.0675 18.8477C42.0883 18.9797 41.123 19.2162 40.185 19.554C39.3099 19.817 38.5067 20.3142 37.8464 21.0015C37.102 21.8771 36.7905 23.1028 36.421 24.2002L35.9987 25.4551C35.972 26.1838 35.7268 26.8819 35.3018 27.4396C34.9639 27.9096 34.5592 28.3157 34.1035 28.642C33.727 29.2839 33.4437 29.987 33.264 30.7258C32.8588 32.2391 32.7296 33.8264 32.8839 35.3953C33.025 36.978 33.4542 38.5128 34.1457 39.9073C34.4396 40.5585 34.9257 41.0794 35.5235 41.384C35.6457 41.4406 35.7731 41.4817 35.9036 41.5066C35.8913 41.5897 35.8913 41.6745 35.9036 41.7576C35.9564 41.9736 36.0145 42.1895 36.0726 42.4055C36.0827 42.4991 36.1077 42.59 36.1465 42.674C37.3277 46.7985 39.7208 50.3689 42.9461 52.8185C44.0608 53.6588 45.2494 54.3725 46.4937 54.949C45.8096 54.3455 45.0287 53.8901 44.192 53.6065C44.4316 53.0173 44.4728 52.3527 44.3081 51.7328Z" fill="#1E1E1E" stroke="#1E1E1E" stroke-width="0.75" stroke-miterlimit="10"/>
<path d="M71.501 29.3076C72.1979 30.4749 71.9233 32.4478 71.86 33.6385C71.86 33.9362 71.823 34.2223 71.7966 34.5375V34.7184C71.7966 34.7768 71.7597 34.8351 71.7492 34.8935C71.6613 36.5993 71.1499 38.2453 70.271 39.6506L70.176 39.7673C70.1285 39.9307 70.0704 40.0942 70.0176 40.2635C68.8192 41.6351 67.2672 42.6391 66.375 44.3493C65.899 45.3829 65.5442 46.4793 65.3191 47.6121C64.8598 49.4916 64.3794 49.9877 63.1705 51.3652C62.811 51.7734 62.5102 52.2399 62.2783 52.7486C62.4443 52.6291 62.6213 52.5293 62.8062 52.4509C63.485 51.8318 64.1187 51.1545 64.7014 50.4255C65.9233 48.8856 66.8692 47.1028 67.4889 45.1723C67.6261 44.7345 67.7264 44.2734 67.8953 43.8473C68.0822 43.3787 68.4297 43.0113 68.8615 42.8259C69.7695 42.4155 70.5803 41.7805 71.2318 40.9697C72.8156 38.8742 73.2326 36.1601 73.3751 33.4985C73.4649 31.7474 73.5863 29.6578 72.6677 28.2102L72.6308 28.1635C72.5058 27.9786 72.3474 27.8245 72.1656 27.7109C71.9839 27.5974 71.7827 27.5269 71.575 27.504C71.1504 27.5319 70.7265 27.4374 70.3449 27.2296C70.1644 27.0966 70.0187 26.9135 69.9226 26.6985C70.2129 27.5273 70.4505 28.3561 70.6617 29.0741L71.501 29.3076Z" fill="#1E1E1E" stroke="#1E1E1E" stroke-width="0.75" stroke-miterlimit="10"/>
<path d="M59.5918 54.8556C59.8558 54.698 60.1197 54.5404 60.3731 54.377L60.5209 54.2777C60.6301 54.2146 60.7359 54.1444 60.8377 54.0676L60.9908 53.945L61.0753 53.875L61.6296 53.338L61.8091 53.1746C61.3363 53.2057 60.8801 53.3787 60.4894 53.6748C60.0988 53.971 59.7885 54.3792 59.5918 54.8556Z" fill="#1E1E1E" stroke="#1E1E1E" stroke-width="0.75" stroke-miterlimit="10"/>
<path d="M62.6744 20.838C63.34 20.9757 64.0142 21.0557 64.6911 21.0774C65.4196 21.1066 66.1956 21.0015 66.8027 21.5268C67.1684 21.8615 67.4715 22.2719 67.6949 22.735C68.5924 23.4705 69.2787 24.9297 69.8435 26.4473V26.389C69.7643 25.8281 69.7643 25.2571 69.8435 24.6962C69.7274 24.1125 69.6376 23.5639 69.4951 23.0094C69.0516 21.8012 68.4393 20.5754 67.3834 19.8925C66.2114 19.1337 64.7438 19.443 63.4768 19.2504C62.7149 19.1892 61.9786 18.9205 61.3335 18.4683C61.508 19.0777 61.7778 19.6487 62.1307 20.1551C62.2914 20.4018 62.4735 20.6305 62.6744 20.838Z" fill="#1E1E1E" stroke="#1E1E1E" stroke-width="0.75" stroke-miterlimit="10"/>
<path d="M57.3477 55.9704C57.8756 55.7661 58.3349 55.5385 58.8153 55.2817C58.6833 55.1867 58.5322 55.129 58.3753 55.1137C58.2185 55.0984 58.0606 55.1261 57.9157 55.1941C57.7707 55.2621 57.6431 55.3685 57.544 55.5039C57.445 55.6393 57.3775 55.7995 57.3477 55.9704Z" fill="#1E1E1E" stroke="#1E1E1E" stroke-width="0.75" stroke-miterlimit="10"/>
<path d="M47.8188 55.5036C48.0247 55.5853 48.2306 55.6787 48.4418 55.7546C48.8007 55.883 49.1703 56.0056 49.5399 56.1223C49.5635 55.8887 49.5134 55.6532 49.3982 55.4555C49.2829 55.2579 49.1096 55.1103 48.9074 55.0376C48.7051 54.9649 48.4864 54.9716 48.2881 55.0565C48.0898 55.1414 47.9241 55.2993 47.8188 55.5036Z" fill="#1E1E1E" stroke="#1E1E1E" stroke-width="0.75" stroke-miterlimit="10"/>
<path d="M48.6584 28.5662C48.8689 28.4275 49.0217 28.203 49.0839 27.941C49.1461 27.6789 49.1128 27.4004 48.991 27.1653C48.8621 26.9386 48.66 26.7746 48.4258 26.7063C48.1916 26.638 47.9426 26.6707 47.7293 26.7976C46.0391 27.5708 44.1992 27.858 42.3815 27.6323C42.2604 27.6323 42.1405 27.6587 42.0287 27.7101C41.9169 27.7616 41.8155 27.8369 41.7301 27.9318C41.6447 28.0267 41.5771 28.1394 41.5313 28.2633C41.4854 28.3872 41.4622 28.5199 41.4629 28.6537C41.4669 28.9222 41.5648 29.1786 41.7361 29.369C41.9073 29.5595 42.1387 29.6692 42.3815 29.6752C44.5252 29.9062 46.6866 29.5243 48.6584 28.5662Z" fill="#1E1E1E"/>
<path d="M65.7631 28.8873C64.8315 29.0096 63.8871 28.8856 63.0074 28.5254C62.0256 28.2458 61.0761 27.8423 60.1777 27.323C59.9535 27.2174 59.7007 27.2139 59.4743 27.3134C59.2479 27.4129 59.0662 27.6072 58.9688 27.8541C58.8796 28.1044 58.8795 28.3827 58.9687 28.6329C59.0579 28.8832 59.2295 29.0867 59.4491 29.2025C60.409 29.7545 61.4243 30.1796 62.4742 30.4691C63.5936 30.9336 64.7989 31.0879 65.9848 30.9185C66.2303 30.8794 66.4522 30.735 66.6023 30.5166C66.7525 30.2982 66.8189 30.0232 66.7872 29.7511C66.7518 29.4881 66.6251 29.2506 66.4338 29.0893C66.2425 28.928 66.0019 28.8555 65.7631 28.8873Z" fill="#1E1E1E"/>
<path d="M49.334 36.1424C49.4316 36.1273 49.525 36.0882 49.6071 36.0281C49.6893 35.9679 49.7582 35.8881 49.8088 35.7946C49.8595 35.7011 49.8905 35.5963 49.8997 35.4878C49.9089 35.3793 49.896 35.2699 49.8619 35.1676C49.6931 34.6566 49.4313 34.1894 49.0925 33.7948C48.7538 33.4002 48.3455 33.0867 47.8928 32.8737C47.7113 32.7899 47.5241 32.7216 47.3332 32.6694C46.8971 32.5353 46.4413 32.4981 45.9921 32.5602C45.543 32.6222 45.1094 32.7822 44.7165 33.0309C44.3237 33.2795 43.9794 33.6119 43.7036 34.0087C43.4278 34.4056 43.226 34.859 43.1098 35.3427C43.0503 35.5525 43.0061 35.7672 42.9778 35.9848C42.9636 36.0947 42.9723 36.2069 43.0032 36.3126C43.0341 36.4183 43.0864 36.5148 43.1562 36.5947C43.2259 36.6747 43.3113 36.7359 43.4058 36.7739C43.5002 36.8118 43.6012 36.8254 43.7011 36.8136C43.8413 36.7985 43.9733 36.7334 44.0771 36.6281C44.1809 36.5228 44.2508 36.383 44.2765 36.2299C44.2982 36.0445 44.339 35.8623 44.398 35.6871C44.4547 35.5148 44.5291 35.3504 44.6197 35.1968C44.8724 34.8263 45.2031 34.5295 45.583 34.3322C45.963 34.1349 46.3807 34.043 46.8 34.0644C46.9675 34.0865 47.1323 34.1295 47.291 34.1928C47.6043 34.3207 47.8886 34.5228 48.1238 34.785C48.3591 35.0471 48.5397 35.363 48.653 35.7105C48.7068 35.856 48.803 35.9775 48.9264 36.0557C49.0498 36.134 49.1932 36.1645 49.334 36.1424Z" fill="#1E1E1E"/>
<path d="M62.9861 34.3097C62.8381 34.1646 62.6792 34.0338 62.511 33.9187C62.1364 33.6418 61.716 33.4495 61.274 33.353C60.832 33.2565 60.377 33.2577 59.9354 33.3564C59.4937 33.4552 59.0741 33.6495 58.7007 33.9284C58.3273 34.2072 58.0075 34.5649 57.7597 34.981C57.6447 35.1669 57.5424 35.362 57.4535 35.5647C57.4097 35.6641 57.3868 35.7733 57.3867 35.884C57.3866 35.9947 57.4094 36.1039 57.4531 36.2034C57.4968 36.303 57.5605 36.3902 57.6392 36.4585C57.7179 36.5269 57.8097 36.5745 57.9075 36.5978C58.0478 36.6352 58.1954 36.6186 58.326 36.5507C58.4565 36.4828 58.5622 36.3676 58.6255 36.2242C58.6989 36.0559 58.7892 35.8973 58.8948 35.7514C59 35.6098 59.1167 35.4789 59.2432 35.3604C59.5894 35.0987 59.9876 34.9334 60.4039 34.8785C60.8203 34.8237 61.2425 34.8808 61.6346 35.0452C61.7868 35.1263 61.9303 35.2262 62.0623 35.3429C62.3237 35.5733 62.5366 35.864 62.6861 36.1946C62.8356 36.5252 62.9182 36.8879 62.9281 37.2574C62.9359 37.4183 62.9921 37.5717 63.0878 37.6932C63.1834 37.8148 63.313 37.8977 63.456 37.9286C63.5538 37.9517 63.655 37.9498 63.7521 37.9232C63.8492 37.8967 63.9395 37.8461 64.0163 37.7752C64.0931 37.7044 64.1543 37.6152 64.1953 37.5143C64.2364 37.4135 64.2561 37.3037 64.2531 37.1932C64.2339 36.6418 64.1114 36.1008 63.8933 35.6044C63.6752 35.1081 63.3663 34.6672 62.9861 34.3097Z" fill="#1E1E1E"/>
<path d="M57.8918 43.7188C57.3005 43.0183 56.1972 43.3219 55.4317 43.3977C53.5614 43.579 51.7043 43.8988 49.8727 44.355C49.4159 45.0344 49.0331 45.771 48.7324 46.5496C48.9792 47.2881 49.3579 47.9641 49.8457 48.5376C50.3336 49.111 50.9208 49.5701 51.5724 49.8875C52.224 50.205 52.9266 50.3744 53.6386 50.3855C54.3506 50.3967 55.0573 50.2495 55.7168 49.9526C57.0999 49.3047 58.3564 48.0322 58.4144 46.2753C58.4243 45.8442 58.3889 45.4133 58.3089 44.9912C58.2838 44.5314 58.1389 44.0895 57.8918 43.7188ZM56.2764 47.2209C55.721 47.8849 54.9749 48.316 54.1647 48.4408C53.4094 48.5434 52.6442 48.3775 51.9798 47.9672C51.3154 47.5569 50.7864 46.9234 50.4693 46.1586C51.5251 45.8959 52.581 45.68 53.6368 45.5224C54.1858 45.4407 54.7401 45.3706 55.2997 45.3122L56.1286 45.2363L56.5879 45.2072H56.6195C56.7161 45.552 56.7354 45.9177 56.6756 46.2726C56.6158 46.6275 56.4789 46.961 56.2764 47.2442V47.2209Z" fill="#1E1E1E"/>
<path d="M103.49 133.928C99.7783 133.822 96.0704 133.54 92.3665 133.084C91.6869 133.001 91.6899 135.073 92.3665 135.156C96.0684 135.616 99.7763 135.898 103.49 136C104.17 136.018 104.17 133.975 103.49 133.928Z" fill="#1E1E1E"/>
<path d="M92.9136 131.322L98.7295 131.912C99.4232 131.986 99.4201 129.633 98.7295 129.559L93.1985 128.996C93.1985 129.063 93.1985 129.13 93.1985 129.203C93.1873 129.95 93.0893 130.679 92.9136 131.322Z" fill="#1E1E1E"/>
<path d="M92.9115 131.33H93.153C93.331 130.7 93.4302 129.985 93.4416 129.252C93.4416 129.18 93.4416 129.114 93.4416 129.049L92.9115 128.996C92.2089 128.957 92.2121 131.258 92.9115 131.33Z" fill="#1E1E1E"/>
<path d="M11.1421 133.201C7.94825 133 4.7544 133.053 1.56053 133.36C1.20524 133.257 0.84554 133.23 0.487482 133.28C0.358365 133.287 0.235302 133.393 0.142886 133.576C0.0517984 133.764 0.000526696 134.018 0 134.282C0.00111242 134.545 0.0522974 134.798 0.142886 134.987C0.187656 135.08 0.241311 135.154 0.300547 135.204C0.359783 135.254 0.423361 135.278 0.487482 135.277C0.56873 135.277 0.649976 135.277 0.731223 135.277C0.815214 135.381 0.913251 135.429 1.01139 135.413C1.62775 135.351 2.24694 135.305 2.8633 135.26C2.92815 135.31 2.99738 135.333 3.06675 135.327C3.13613 135.321 3.20416 135.287 3.26672 135.226C5.89466 135.055 8.52353 135.055 11.1533 135.226C11.7697 135.231 11.7697 133.252 11.1421 133.201Z" fill="#1E1E1E"/>
<path d="M4.69892 131.086L11.1361 131.33C11.7733 131.33 11.7733 129.264 11.1361 129.24L4.69892 128.996C4.06455 128.972 4.06455 131.062 4.69892 131.086Z" fill="#1E1E1E"/>
<path d="M93.6368 71.2924C92.8373 70.9656 92.0094 70.7309 91.1662 70.5919C90.9337 70.5356 90.6904 70.5801 90.4867 70.7162C90.2829 70.8524 90.1342 71.0698 90.0712 71.3237C90.0082 71.5775 90.0357 71.8484 90.1481 72.0804C90.2605 72.3125 90.4492 72.4879 90.6752 72.5707C91.3774 72.7283 92.09 72.8859 92.7869 73.1135C92.8344 73.1135 92.8978 73.1719 92.9136 73.1719C92.9672 73.275 93.0097 73.3847 93.0403 73.4988C93.167 73.8782 93.2726 74.2576 93.3729 74.6661C93.722 76.162 93.9743 77.6834 94.1278 79.2189C94.1344 79.4865 94.2332 79.7412 94.4039 79.9311C94.5746 80.1209 94.8044 80.2316 95.0464 80.2404C95.4899 80.2404 96.0336 79.7676 95.965 79.2189C95.7983 77.3562 95.4875 75.5128 95.0358 73.7089C94.7666 72.7633 94.5026 71.7126 93.6368 71.2924Z" fill="#1E1E1E"/>
<path d="M26.4857 11.5517C23.0529 16.8752 20.9911 23.1289 20.5202 29.6461C20.4251 30.9595 22.2676 30.9536 22.3626 29.6461C22.8338 23.4929 24.8061 17.5964 28.0694 12.5848C28.761 11.5167 27.1667 10.4894 26.4857 11.5517Z" fill="#1E1E1E"/>
<path d="M78.7497 46.9641C78.751 46.9486 78.751 46.9329 78.7497 46.9174C78.8028 46.5386 78.8912 46.167 79.0137 45.8084C79.0122 45.7851 79.0122 45.7617 79.0137 45.7384C79.0506 45.645 79.0876 45.5516 79.1298 45.464C79.2136 45.2811 79.3071 45.1037 79.4096 44.9329C79.4857 44.8178 79.5391 44.6863 79.5665 44.547C79.5938 44.4077 79.5945 44.2636 79.5685 44.124C79.5424 43.9843 79.4902 43.8523 79.4152 43.7363C79.3402 43.6203 79.2441 43.523 79.1331 43.4505C79.022 43.3781 78.8985 43.3322 78.7704 43.3157C78.6423 43.2992 78.5125 43.3125 78.3894 43.3548C78.2663 43.3972 78.1525 43.4675 78.0555 43.5614C77.9584 43.6552 77.8802 43.7705 77.8259 43.8997C77.3626 44.7074 77.0559 45.6125 76.925 46.5579C76.7942 47.5033 76.8421 48.4684 77.0657 49.3923C77.1323 49.6508 77.2879 49.8701 77.4991 50.0033C77.7103 50.1364 77.9602 50.1727 78.1954 50.1044C78.4285 50.0257 78.6253 49.8509 78.7452 49.6162C78.8651 49.3816 78.8989 49.105 78.8395 48.8436C78.792 48.6452 78.755 48.4467 78.7233 48.2599C78.7207 48.223 78.7207 48.1859 78.7233 48.149V47.9214C78.7127 47.7173 78.7127 47.5126 78.7233 47.3085C78.7497 47.1684 78.7497 47.0633 78.7497 46.9641Z" fill="#1E1E1E"/>
<path d="M4.53484 88.0501C4.32843 88.1928 4.17906 88.4172 4.11725 88.6776C4.05544 88.9379 4.08585 89.2145 4.20225 89.4509C5.20651 92.1136 5.78007 94.9507 5.89684 97.8327C5.90222 98.1018 6.00127 98.3581 6.17337 98.5484C6.34547 98.7387 6.57737 98.8482 6.8207 98.8542C7.06395 98.8496 7.29598 98.7404 7.46752 98.5496C7.63905 98.3589 7.73656 98.1017 7.73928 97.8327C7.59685 94.592 6.9374 91.4046 5.79129 88.4178C5.66788 88.1859 5.46666 88.0172 5.2314 87.9483C4.99615 87.8795 4.74586 87.916 4.53484 88.0501Z" fill="#1E1E1E"/>
<path d="M76.01 99.3562C76.8758 99.292 77.7415 99.2219 78.6073 99.1402C84.3194 98.5974 84.3722 88.6688 78.6073 89.2175C64.8814 90.5133 50.976 89.9996 37.1551 89.5852C33.3647 89.3109 29.5584 89.2116 25.7574 89.305C19.9872 89.4509 19.9503 99.1402 25.7574 99.2278C28.1084 99.2706 30.4629 99.3231 32.8209 99.3854C29.495 99.8173 26.1762 100.374 22.8644 101.055C20.4835 101.545 19.1267 104.732 19.7338 107.16C20.4201 109.927 22.8644 111.118 25.2506 110.621C41.9727 107.18 59.1294 107.228 75.8357 110.762C79.9429 111.631 83.7545 106.092 80.2016 102.467C78.9458 101.214 77.5343 100.167 76.01 99.3562Z" fill="#FBB03B"/>
<path d="M31.6858 100.214C31.7597 100.407 31.6858 100.594 31.4799 100.798C31.1872 101.011 30.8482 101.134 30.498 101.154L28.1118 101.516L25.62 101.901C25.5884 102.874 25.5884 103.847 25.62 104.819C26.1024 104.81 26.5838 104.767 27.0612 104.691C27.6208 104.603 28.1963 104.493 28.7823 104.358C29.3682 104.224 29.9384 104.09 30.4821 103.944C31.0259 103.798 31.4905 103.681 31.8706 103.588C32.0658 103.527 32.2654 103.484 32.4671 103.459C32.6509 103.43 32.8376 103.43 33.0215 103.459C33.1739 103.479 33.3165 103.553 33.428 103.67C33.5353 103.804 33.5903 103.981 33.581 104.16C33.581 104.218 33.523 104.3 33.4015 104.417C33.259 104.548 33.1071 104.668 32.9475 104.773C32.7633 104.899 32.573 105.014 32.3774 105.117C32.2055 105.209 32.0293 105.291 31.8495 105.362C30.7937 105.748 29.7378 106.074 28.682 106.355C27.6873 106.622 26.6697 106.77 25.6464 106.798C25.4106 106.827 25.1719 106.797 24.9481 106.71C24.7242 106.623 24.5208 106.482 24.353 106.296C24.0314 105.866 23.8641 105.319 23.8832 104.761C23.8515 103.827 23.8515 102.882 23.8832 101.924C23.7492 101.849 23.6372 101.733 23.5597 101.591C23.4822 101.449 23.4425 101.285 23.445 101.119C23.4507 100.959 23.4975 100.805 23.5798 100.673C23.662 100.542 23.7764 100.44 23.9096 100.378C23.9483 99.8211 23.9747 99.2608 23.9888 98.6965C23.9888 98.1128 24.031 97.5759 24.0627 97.0213C23.8602 96.9833 23.6746 96.8725 23.5348 96.7062C23.4646 96.6301 23.4088 96.5392 23.3707 96.439C23.3326 96.3388 23.313 96.2312 23.313 96.1225C23.3117 95.9576 23.348 95.795 23.4186 95.6497C23.5038 95.4883 23.6418 95.3692 23.804 95.317C24.1155 95.2411 24.4955 95.1535 24.9443 95.0602C25.393 94.9668 25.8576 94.8792 26.3327 94.8033C26.8078 94.7274 27.2671 94.6574 27.7106 94.599C28.154 94.5406 28.5236 94.5056 28.835 94.4881C29.1901 94.4473 29.5491 94.485 29.8909 94.599C30.2497 94.7306 30.5741 94.957 30.8359 95.2586C30.871 95.36 30.8761 95.4712 30.8505 95.5761C30.8249 95.681 30.7698 95.7742 30.6933 95.8423C30.5037 95.9825 30.2865 96.0706 30.0598 96.0991L29.1254 96.2275L28.0009 96.3851L26.8343 96.5427C26.4436 96.5894 26.074 96.642 25.7309 96.7003C25.7287 96.7431 25.7287 96.7859 25.7309 96.8287C25.7351 96.8714 25.7351 96.9145 25.7309 96.9571C25.6922 97.4552 25.6658 97.9514 25.6517 98.4456C25.6517 98.9475 25.6147 99.4437 25.5989 99.9398C26.3274 99.8056 27.0666 99.683 27.8268 99.5779C28.587 99.4728 29.194 99.4028 29.6428 99.3678C29.9997 99.3282 30.3602 99.3761 30.6986 99.5079C31.0772 99.6453 31.4173 99.8886 31.6858 100.214Z" fill="#1E1E1E"/>
<path d="M42.3709 104.627C42.6459 104.958 42.8419 105.359 42.9411 105.794C42.9733 105.952 42.951 106.117 42.8787 106.257C42.8065 106.398 42.6894 106.503 42.5505 106.553C42.4548 106.591 42.3504 106.591 42.2548 106.553C42.1116 106.521 41.9718 106.472 41.8377 106.407C41.688 106.342 41.5447 106.26 41.4101 106.162C41.2878 106.082 41.1744 105.986 41.0723 105.876C40.6922 105.403 40.3173 104.925 39.9478 104.446C39.5782 103.967 39.1876 103.489 38.7917 103.01L35.9673 106.191C35.8632 106.308 35.7376 106.397 35.599 106.455C35.4605 106.512 35.3124 106.536 35.1648 106.524C34.922 106.477 34.8006 106.337 34.8006 106.11C34.796 105.76 34.8533 105.413 34.9695 105.088C35.0843 104.768 35.237 104.465 35.4235 104.189C35.7755 103.73 36.1274 103.281 36.4794 102.841L37.5669 101.522C37.1181 101.002 36.6641 100.494 36.2049 99.9867C35.7456 99.4789 35.2757 98.9769 34.7953 98.4807C34.6487 98.5011 34.5004 98.4617 34.3782 98.3698C34.312 98.296 34.2709 98.199 34.2621 98.0955C34.2531 97.9925 34.2658 97.8887 34.2991 97.792C34.3254 97.7206 34.361 97.6537 34.4046 97.5935C34.5201 97.4424 34.6629 97.3197 34.8238 97.2333C34.9848 97.1468 35.1603 97.0986 35.3391 97.0916C35.6714 97.1106 35.9935 97.2253 36.2735 97.4243C37.1844 98.2225 38.0418 99.0925 38.8392 100.028C39.5431 99.2298 40.247 98.4516 40.9508 97.6928C41.1702 97.5403 41.417 97.4427 41.6741 97.4067C41.9707 97.3761 42.2688 97.4453 42.5293 97.6052C42.6062 97.7041 42.6595 97.8226 42.6844 97.95C42.7093 98.0774 42.705 98.2097 42.6719 98.3348C42.5977 98.6445 42.4501 98.9266 42.2442 99.152L40.0956 101.563C40.4916 102.059 40.8822 102.567 41.2623 103.08C41.6424 103.594 42.0225 104.131 42.3709 104.627Z" fill="#1E1E1E"/>
<path d="M49.0596 110.446C49.0355 110.668 48.9443 110.873 48.8009 111.03C48.7368 111.114 48.6555 111.18 48.5637 111.223C48.4719 111.266 48.3723 111.283 48.273 111.275C48.1422 111.273 48.0136 111.238 47.8966 111.174C47.7796 111.109 47.6773 111.016 47.5972 110.902C47.4651 110.74 47.3837 110.535 47.365 110.318C47.365 109.588 47.3649 108.829 47.3121 108.036C47.2593 107.242 47.2329 106.425 47.1802 105.584C46.976 105.627 46.7648 105.603 46.5731 105.514C46.4884 105.477 46.4115 105.421 46.347 105.35C46.2826 105.278 46.232 105.193 46.1982 105.1C46.1363 104.965 46.1086 104.814 46.1179 104.663C46.1272 104.512 46.1731 104.366 46.251 104.242C46.4504 103.945 46.7063 103.699 47.0007 103.524C46.9109 102.817 46.8318 102.117 46.7526 101.428C46.6734 100.739 46.5942 100.074 46.5098 99.4203C46.4806 99.3178 46.4806 99.2078 46.5098 99.1052C46.5413 99.01 46.5838 98.9197 46.6364 98.8367C46.7112 98.7296 46.8092 98.6453 46.9215 98.5915C47.0559 98.5511 47.1976 98.5509 47.332 98.5909C47.4665 98.6309 47.5891 98.7097 47.687 98.8192C47.966 99.0587 48.1692 99.3897 48.2677 99.7647C48.3205 100.132 48.3785 100.547 48.4366 101.014C48.4947 101.481 48.5528 101.994 48.6056 102.549C48.9621 102.305 49.3041 102.036 49.6297 101.743C49.9371 101.473 50.2169 101.165 50.4639 100.827C50.6851 100.52 50.8631 100.177 50.9918 99.8114C51.1137 99.4602 51.1501 99.0799 51.0973 98.7083C51.0598 98.3762 50.9222 98.0677 50.7067 97.8327C50.417 97.5478 50.0382 97.3991 49.6508 97.4183C49.2207 97.3966 48.7898 97.4339 48.368 97.5292C47.9463 97.6262 47.5303 97.7509 47.1221 97.9028C46.7144 98.0555 46.3158 98.2368 45.929 98.4456C45.5383 98.6557 45.1635 98.8717 44.7992 99.076C44.5872 99.2244 44.3363 99.2902 44.0866 99.2627C43.9964 99.2646 43.9074 99.2408 43.8279 99.1938C43.7485 99.1468 43.6812 99.0781 43.6326 98.9943C43.5553 98.8337 43.5184 98.6531 43.5258 98.4713C43.5333 98.2896 43.5847 98.1134 43.6748 97.9611C43.8956 97.6117 44.1819 97.3191 44.5142 97.1031C45.3475 96.5829 46.2335 96.1734 47.1538 95.8832C47.6715 95.717 48.2015 95.6018 48.7376 95.5388C49.2401 95.4597 49.7502 95.4597 50.2527 95.5388C50.7179 95.6196 51.1633 95.8043 51.5619 96.0817C51.9713 96.3858 52.298 96.8075 52.5069 97.3015C52.7899 98.0683 52.8757 98.9066 52.755 99.7239C52.6288 100.448 52.3623 101.133 51.9737 101.732C51.5726 102.35 51.0925 102.901 50.5483 103.366C50.0079 103.838 49.442 104.272 48.8537 104.668C48.9381 105.701 48.9962 106.722 49.0332 107.738C49.0701 108.754 49.0754 109.682 49.0596 110.446Z" fill="#1E1E1E"/>
<path d="M60.8322 100.588C60.1482 101.029 59.4153 101.37 58.6519 101.604C57.8331 101.85 56.9877 101.972 56.139 101.965C56.1453 102.546 56.3317 103.106 56.667 103.553C56.9659 103.937 57.3803 104.187 57.8336 104.259C58.1138 104.303 58.3981 104.303 58.6783 104.259C58.9545 104.202 59.2237 104.11 59.4807 103.985C59.7195 103.868 59.9491 103.73 60.1671 103.571C60.3524 103.43 60.5288 103.276 60.695 103.109C60.8351 102.969 61.0033 102.867 61.1859 102.812C61.3132 102.769 61.4492 102.769 61.5766 102.812C61.8194 102.911 61.9039 103.197 61.8352 103.67C61.5544 104.288 61.1456 104.824 60.6421 105.234C60.1326 105.66 59.5362 105.941 58.9053 106.051C58.3366 106.167 57.7514 106.137 57.1949 105.964C56.5967 105.788 56.0506 105.442 55.6111 104.96C55.2141 104.521 54.9063 103.994 54.7083 103.413C54.4996 102.826 54.3681 102.209 54.3177 101.58C54.263 101.011 54.3115 100.436 54.4602 99.8875C54.6017 99.3691 54.835 98.8869 55.1465 98.4691C55.4716 98.0494 55.8679 97.7043 56.3132 97.4535C56.8214 97.1741 57.3774 97.017 57.9445 96.9924C58.6463 96.9261 59.3505 97.0863 59.9717 97.4535C60.5424 97.7788 60.9909 98.3162 61.2387 98.9711C61.3702 99.2636 61.4111 99.5959 61.3549 99.9167C61.2611 100.204 61.0751 100.443 60.8322 100.588ZM57.8495 98.6384C57.657 98.6821 57.4694 98.7486 57.2899 98.8368C57.1013 98.9334 56.924 99.0549 56.7619 99.1987C56.598 99.3391 56.4508 99.5019 56.3238 99.6832C56.1934 99.8589 56.1159 100.075 56.102 100.302C56.4273 100.299 56.752 100.27 57.0734 100.214C57.4271 100.156 57.7755 100.086 58.1292 99.9984C58.4453 99.9178 58.7573 99.8184 59.0637 99.7007C59.3124 99.6041 59.5513 99.479 59.7764 99.3271C59.7123 99.151 59.6081 98.9961 59.474 98.8775C59.3399 98.7589 59.1804 98.6805 59.0109 98.65C58.6282 98.562 58.2336 98.5581 57.8495 98.6384Z" fill="#1E1E1E"/>
<path d="M71.4064 97.436C71.0949 97.6227 70.7729 97.827 70.435 98.0196C70.0859 98.2401 69.7492 98.4838 69.4267 98.7493C69.0778 99.0378 68.7559 99.3644 68.4659 99.724C68.1448 100.129 67.87 100.576 67.6476 101.055C67.3121 101.752 67.0771 102.502 66.9508 103.279C66.8313 104.014 66.7519 104.757 66.7132 105.503C66.7085 105.864 66.6348 106.22 66.4968 106.547C66.4547 106.694 66.3738 106.822 66.2646 106.917C66.1554 107.012 66.0229 107.068 65.8844 107.079C65.7162 107.073 65.5528 107.015 65.4127 106.912C65.2727 106.809 65.1617 106.664 65.0925 106.495C64.91 106.162 64.7747 105.799 64.6913 105.421C64.4027 104.063 64.1616 102.72 63.968 101.393C63.7745 100.066 63.6108 98.7434 63.4771 97.4243C63.4771 97.1558 63.5457 96.9807 63.6935 96.9048C63.859 96.8228 64.0415 96.7926 64.2214 96.8172C64.4274 96.8404 64.6288 96.8995 64.818 96.9923C64.9057 97.0283 64.9833 97.0894 65.0427 97.1694C65.1021 97.2494 65.1411 97.3454 65.1559 97.4476C65.2245 98.1597 65.309 98.8952 65.4145 99.6715C65.5201 100.448 65.6204 101.107 65.726 101.662C65.8001 100.996 65.994 100.353 66.2962 99.7707C66.6101 99.1613 66.9972 98.6017 67.447 98.1072C67.9179 97.6057 68.4512 97.1811 69.0308 96.8464C69.5864 96.5124 70.1871 96.2798 70.8099 96.1577C71.0233 96.1222 71.2405 96.1222 71.454 96.1577C71.5933 96.1763 71.7223 96.2486 71.8182 96.362C71.8555 96.4296 71.8786 96.5055 71.8859 96.5843C71.8932 96.6631 71.8845 96.7427 71.8604 96.8172C71.8258 96.9486 71.7678 97.071 71.6899 97.1772C71.6119 97.2835 71.5155 97.3715 71.4064 97.436Z" fill="#1E1E1E"/>
<path d="M78.85 99.6421C79.1924 99.6266 79.5322 99.7154 79.832 99.899C79.9852 99.9755 80.1141 100.101 80.2025 100.259C80.2909 100.417 80.3347 100.6 80.3282 100.786C80.3198 100.933 80.2684 101.073 80.1817 101.184C80.095 101.296 79.9778 101.373 79.8478 101.405C79.625 101.48 79.3943 101.523 79.1615 101.533C78.8131 101.533 78.4436 101.533 78.0476 101.533C77.6517 101.533 77.2399 101.58 76.8281 101.621C76.7911 102.251 76.7647 102.841 76.7383 103.372C76.7119 103.903 76.6909 104.417 76.6698 104.849C76.6486 105.281 76.6698 105.625 76.6698 105.893C76.6508 106.037 76.6508 106.182 76.6698 106.325C77.0909 106.237 77.5042 106.108 77.9051 105.94C78.3432 105.759 78.7867 105.555 79.2249 105.356C79.663 105.158 80.0959 104.907 80.5235 104.668L81.7272 103.991C81.8737 103.902 82.0431 103.871 82.2076 103.903C82.2705 103.914 82.3293 103.944 82.377 103.991C82.4248 104.037 82.4594 104.098 82.4769 104.166C82.5089 104.425 82.4835 104.69 82.403 104.936C82.3099 105.252 82.1487 105.539 81.9331 105.771C81.6048 106.054 81.2629 106.317 80.9089 106.559C80.4684 106.867 80.0138 107.149 79.5469 107.405C79.0723 107.67 78.584 107.904 78.0845 108.106C77.6641 108.287 77.2239 108.407 76.7753 108.462C76.5372 108.508 76.2921 108.485 76.0644 108.395C75.8368 108.305 75.6342 108.151 75.4767 107.948C75.1751 107.51 75.0035 106.98 74.9857 106.43C74.9534 105.723 74.9534 105.014 74.9857 104.306C75.0121 103.506 75.0385 102.654 75.0754 101.755C74.7481 101.796 74.4314 101.825 74.1304 101.854C73.8295 101.883 73.5339 101.919 73.2594 101.959C73.0053 101.953 72.7545 101.893 72.5203 101.784C72.3966 101.739 72.2901 101.65 72.2174 101.531C72.1448 101.411 72.1102 101.268 72.119 101.125C72.1318 100.963 72.175 100.806 72.2458 100.664C72.311 100.554 72.3954 100.459 72.4943 100.386C72.5932 100.313 72.7044 100.262 72.8212 100.238C73.5286 100.103 74.3152 99.9865 75.1757 99.8931C75.2285 98.9942 75.2918 98.1421 75.3605 97.284C75.4291 96.426 75.4872 95.6789 75.54 94.9901C75.555 94.7812 75.6186 94.5801 75.7248 94.4064C75.7554 94.3355 75.8022 94.2746 75.8605 94.2296C75.9188 94.1846 75.9866 94.157 76.0574 94.1496C76.3548 94.1279 76.6507 94.2117 76.902 94.3889C77.0119 94.4443 77.1068 94.5306 77.1772 94.6391C77.2476 94.7477 77.2911 94.8747 77.3032 95.0076C77.2346 95.6555 77.1713 96.391 77.1079 97.214C77.0446 98.037 76.9917 98.8775 76.9389 99.7355C77.2874 99.7005 77.62 99.6771 77.942 99.6655C78.264 99.6538 78.5544 99.6596 78.85 99.6421Z" fill="#1E1E1E"/>
</svg>
