<svg width="64" height="65" viewBox="0 0 64 65" fill="none" xmlns="http://www.w3.org/2000/svg">
<path d="M48.3776 3.68753C37.9073 -2.4031 25.8948 -0.351268 16.8101 6.17566C15.8402 6.35844 14.8703 6.83013 13.9907 7.69685C9.15321 12.4314 4.61689 17.502 2.12282 23.8284C0.923978 26.859 0.544445 30.0724 0.23118 33.2916C-0.124255 36.9825 -0.220645 40.6145 1.06856 44.1639C3.26142 50.2074 6.96036 56.3334 12.6413 59.7826C18.5994 63.4028 27.0816 64.3933 33.9554 63.9511C40.6424 63.5207 48.968 61.5396 54.2393 57.2944C59.2997 53.2203 62.3059 45.5436 63.4565 39.3822C65.8542 26.5347 60.2275 10.58 48.3776 3.68753Z" fill="white"/>
<path d="M30.2504 38.8516C30.0937 38.9341 29.9311 38.999 29.7684 39.0639C29.7745 39.1169 29.7805 39.1641 29.7865 39.2172C29.9431 39.0874 30.0998 38.9754 30.2504 38.8516Z" fill="#00A99D"/>
<path d="M7.59895 37.9966C8.19536 40.9329 9.46649 43.7217 11.328 46.0978C11.6533 46.5164 11.7196 47.0648 11.4605 47.507C16.5933 53.7391 24.4129 57.4006 33.5819 56.2037C40.7026 55.1306 47.4619 50.8677 51.0645 44.895C50.4922 45.5495 49.8897 46.1804 49.221 46.7582C42.034 52.9844 31.2143 53.7745 22.4068 50.8088C17.7801 49.2522 13.6655 46.5282 11.2617 42.2654C9.06287 38.3622 8.37007 33.7279 9.22552 29.3589C11.0147 20.2024 20.0633 13.8818 29.3046 13.5752C30.9071 13.5221 30.9011 15.9572 29.3046 16.0103C19.9729 16.3228 11.3762 23.5336 11.3521 32.9732C11.322 36.8351 12.6534 40.7914 15.298 43.6981C18.3464 47.0412 22.8646 48.7393 27.2684 49.5588C35.2386 51.0387 44.6666 49.205 49.7994 42.5897C52.1007 39.624 53.3296 36.0097 53.5586 32.3246C53.3357 30.7386 52.8778 29.1467 52.1368 27.5901C50.1548 19.6953 43.522 14.8252 36.0579 12.3901C26.937 10.7687 17.8162 12.3901 11.1895 19.6953C6.88206 24.6185 5.06271 30.7563 6.2736 37.0592C6.85194 37.0061 7.44834 37.2891 7.59895 37.9966ZM41.7328 28.9049C42.2087 29.0346 42.6967 29.1644 43.0702 29.4768C43.3714 29.7304 43.6064 30.1313 43.7449 30.5794C43.9859 30.6148 44.2209 30.662 44.4558 30.6914C44.9498 30.7563 45.2811 31.2457 45.3534 31.7232C45.5221 32.2008 45.4016 32.7551 44.7992 33.0558C39.5399 35.6795 34.1903 38.3563 29.895 42.4069C29.648 42.7194 29.2383 42.9316 28.8648 42.9316C28.1359 42.9316 27.7021 42.3656 27.6238 41.7171C27.4973 40.7088 27.3648 39.6947 27.2322 38.6865C27.2202 38.6629 27.1961 38.6511 27.184 38.6275C27.0696 38.4094 27.0455 38.1558 27.0274 37.9082C27.0033 37.5721 26.9913 37.2419 26.9792 36.9059C26.4672 33.4154 25.8225 29.9544 24.7623 26.576C23.7261 25.7977 24.6538 24.135 25.8466 24.4534C25.937 23.6869 26.8286 23.2211 27.5636 23.3508C28.0756 23.4393 28.5275 23.7164 28.9733 23.9758C32.9493 26.2812 37.2989 27.7021 41.7328 28.9049Z" fill="#FBB03B"/>
<path d="M51.0584 44.895C56.396 38.7808 57.4864 29.6478 54.2875 22.266C50.1307 12.679 39.0218 7.21336 28.6539 8.26875C27.0756 8.42794 27.0635 10.863 28.6539 10.7038C36.8711 9.86658 45.6486 13.2981 50.3054 20.1434C52.7272 23.6987 53.8236 28.0618 53.5645 32.3247C53.667 33.0617 53.7272 33.8046 53.7332 34.5357C53.926 38.3091 52.9079 41.8291 51.0584 44.895Z" fill="black"/>
<path d="M27.2744 49.5588C22.8706 48.7393 18.3463 47.0471 15.304 43.6981C12.6593 40.7914 11.328 36.8351 11.34 32.9732C11.3701 23.5277 19.9608 16.3169 29.2925 16.0103C30.889 15.9572 30.895 13.5221 29.2925 13.5752C20.0512 13.8818 11.0087 20.2083 9.21342 29.3589C8.35797 33.7279 9.05077 38.3622 11.2496 42.2654C13.6534 46.5282 17.768 49.2522 22.3947 50.8088C31.2022 53.7745 42.0219 52.9844 49.2089 46.7582C49.8776 46.1804 50.4801 45.5495 51.0524 44.895C52.9019 41.8291 53.92 38.3091 53.7272 34.5357C53.7212 33.7987 53.6609 33.0617 53.5585 32.3246C53.3356 36.0097 52.1006 39.624 49.7993 42.5897C44.6726 49.2051 35.2446 51.0387 27.2744 49.5588Z" fill="black"/>
<path d="M25.8406 24.4475C25.8346 24.477 25.8285 24.5006 25.8285 24.5301C25.8105 24.9428 25.9731 25.3437 26.1117 25.7388C26.7442 27.6019 26.9732 29.583 27.0213 31.5405C27.0695 33.3329 26.931 35.1135 26.9792 36.9C27.0635 37.4896 27.1479 38.0851 27.2322 38.6806C27.4852 39.0815 28.0033 39.2643 28.4913 39.2879C28.9491 39.3115 29.3708 39.2172 29.7745 39.0639C29.2985 35.4024 28.7383 31.7528 27.8045 28.1797C31.8408 30.1431 36.1181 31.5936 40.5279 32.478C36.9253 34.3293 33.3951 36.334 30.2564 38.8516C30.9251 38.5096 31.5396 38.0379 32.1722 37.6488C33.377 36.9059 34.6361 36.2455 35.9313 35.6677C36.8892 35.2432 37.8712 34.86 38.8712 34.5298C39.7086 34.2527 40.6665 33.8576 41.546 33.7338C41.5701 33.7279 41.5882 33.7279 41.6123 33.722C41.9798 33.6749 42.3472 33.61 42.6786 33.4744C43.022 33.3329 43.3292 33.1265 43.5642 32.7964C43.9618 32.2421 43.9919 31.3341 43.7509 30.5676C37.5579 29.642 31.5998 27.6314 26.1659 24.5596C26.0514 24.5124 25.949 24.4711 25.8406 24.4475Z" fill="black"/>
<path d="M27.0214 31.5405C26.9732 29.583 26.7442 27.6019 26.1117 25.7388C25.9731 25.3437 25.8105 24.9487 25.8285 24.5301C25.8285 24.5006 25.8406 24.477 25.8406 24.4475C24.6478 24.1292 23.72 25.7918 24.7562 26.5701C25.8165 29.9486 26.4671 33.4095 26.9732 36.9C26.931 35.1135 27.0696 33.327 27.0214 31.5405Z" fill="black"/>
<path d="M43.5582 32.8081C43.3232 33.1324 43.016 33.3447 42.6726 33.4862C42.3413 33.6218 41.9738 33.6867 41.6063 33.7338C41.5822 33.7338 41.5641 33.7397 41.54 33.7456C40.6665 33.8635 39.7086 34.2645 38.8652 34.5416C37.8652 34.8718 36.8832 35.2491 35.9253 35.6795C34.6301 36.2573 33.371 36.9177 32.1662 37.6606C31.5336 38.0497 30.9191 38.5214 30.2504 38.8634C30.0998 38.9872 29.9432 39.1051 29.7926 39.2289C29.7866 39.1759 29.7805 39.1287 29.7745 39.0756C29.3769 39.2289 28.9552 39.3174 28.4913 39.2997C28.0034 39.2761 27.4853 39.0933 27.2322 38.6924C27.3708 39.7006 27.4973 40.7147 27.6238 41.723C27.7082 42.3774 28.1359 42.9376 28.8648 42.9376C29.2383 42.9376 29.648 42.7253 29.895 42.4128C34.1843 38.3681 39.5339 35.6913 44.7992 33.0617C45.4016 32.761 45.5221 32.2126 45.3534 31.7292C45.2872 31.2516 44.9558 30.7681 44.4558 30.6974C44.2148 30.6679 43.9799 30.6207 43.7449 30.5853C43.9859 31.3459 43.9558 32.2539 43.5582 32.8081Z" fill="black"/>
<path d="M59.5467 41.5166C60.8299 36.9177 61.4444 32.1537 61.3781 27.3897C61.354 25.8272 58.866 25.8213 58.8901 27.3897C58.9563 31.9473 58.378 36.4696 57.149 40.868C56.7273 42.3833 59.125 43.0319 59.5467 41.5166Z" fill="black"/>
<path d="M5.15306 38.4507C5.83984 41.8173 7.3158 44.9717 9.44841 47.6957C9.85806 48.2204 10.7195 48.2263 11.2015 47.8136C11.3099 47.7193 11.3882 47.6131 11.4545 47.507C9.62914 45.2901 8.1351 42.743 7.0447 39.9778C6.71336 39.0049 6.46034 38.0262 6.27359 37.0592C5.61091 37.1182 4.98438 37.6252 5.15306 38.4507Z" fill="black"/>
<path d="M11.4545 47.507C11.7135 47.0707 11.6473 46.5165 11.3219 46.0978C9.46043 43.7217 8.19532 40.9329 7.59289 37.9967C7.4483 37.2832 6.84587 37.0061 6.27356 37.0533C6.46031 38.0261 6.71334 38.999 7.04467 39.9718C8.13508 42.7489 9.62911 45.2901 11.4545 47.507Z" fill="black"/>
</svg>
