<svg width="346" height="75" viewBox="0 0 346 75" fill="none" xmlns="http://www.w3.org/2000/svg">
<path d="M307.954 18.916C303.934 17.843 299.891 18.3592 296.704 20.254C280.771 20.5574 278.016 41.9309 289.873 50.9193C302.556 60.5362 321.431 50.524 320.636 34.9487C320.263 27.5127 315.331 20.8798 307.954 18.916ZM304.774 37.574C304.126 38.0546 303.487 38.5608 302.883 39.0951C302.759 39.2042 302.622 39.3239 302.498 39.433C302.442 39.4882 302.388 39.5312 302.332 39.5864C302.319 39.5972 302.29 39.6308 302.22 39.7089C301.967 39.9753 301.716 40.2297 301.462 40.5082C300.953 41.0775 300.491 41.6762 300.073 42.3166C300.015 42.396 299.968 42.4888 299.909 42.5682C299.908 42.5803 299.909 42.5682 299.908 42.5803C299.802 42.7525 299.709 42.926 299.614 43.1117C299.426 43.4708 299.249 43.8434 299.084 44.2174C298.802 44.8724 298.113 45.2751 297.394 45.2583C296.761 45.2509 295.937 44.8309 295.749 44.1615C294.724 40.5606 292.909 37.2536 291.585 33.7672C291.227 32.8345 291.669 31.8539 292.582 31.451C293.301 31.1249 294.2 31.4185 294.681 32.0217C295.589 32.1324 296.349 32.57 297.183 32.8932C297.314 32.9441 297.459 32.9843 297.59 33.0353C297.627 33.0393 298.025 33.1438 298.073 33.1612C298.461 33.2523 298.851 33.3191 299.241 33.3859C300.987 33.6733 302.74 33.888 304.395 34.5452C305.684 35.028 305.829 36.7824 304.774 37.574Z" fill="#FBB03B"/>
<path d="M335.671 10.3041C335.416 9.56627 334.776 8.93364 333.781 8.94806C317.428 9.23033 301.093 10.2615 284.837 12.0481C280.801 12.4918 276.76 12.9838 272.74 13.5148C270.824 13.7721 268.92 14.0308 267.002 14.3123C265.399 14.5425 263.53 14.5967 262.275 15.7462C261.185 16.7422 261.098 18.1163 261.235 19.4903C261.429 21.5929 261.724 23.6819 261.969 25.7778C262.444 29.8699 262.931 33.9634 263.406 38.0556C264.457 47.0345 265.506 56.0255 266.556 65.0043C266.718 66.3688 268.028 66.7803 269.045 66.4499C269.132 66.4471 269.218 66.4565 269.319 66.4429C292.105 63.1978 314.983 60.489 337.904 58.2871C339.025 58.9475 340.938 58.2612 340.8 56.5565C339.646 41.6647 338.494 26.7607 337.327 11.8675C337.241 10.8297 336.476 10.3302 335.671 10.3041ZM270.003 62.6602C269.191 55.7153 268.379 48.7825 267.567 41.8376C266.686 34.273 265.498 26.6751 264.906 19.0806C264.859 18.4877 264.791 18.5416 265.229 18.283C265.826 17.9315 267.351 17.9623 268.032 17.8648C269.937 17.594 271.855 17.3246 273.769 17.0794C277.6 16.5768 281.427 16.1105 285.262 15.6819C292.831 14.8503 300.419 14.18 308.027 13.671C316.56 13.1033 325.108 12.7454 333.672 12.585C334.757 26.6246 335.854 40.6654 336.939 54.7049C314.569 56.8566 292.246 59.503 270.003 62.6602Z" fill="#1E1E1E"/>
<path d="M308.662 33.4533C303.696 31.8246 298.609 30.6236 293.432 29.9147C291.89 29.6984 291.323 31.6082 292.215 32.4274C293.669 37.1156 295.225 41.7782 296.871 46.4137C296.957 46.6556 297.098 46.8424 297.243 46.9928C297.802 47.5677 298.787 47.7604 299.434 46.949C302.471 43.1155 305.702 39.4379 309.091 35.9119C309.204 35.7895 309.281 35.6509 309.334 35.5097C309.363 35.464 309.393 35.4182 309.411 35.3711C309.72 34.6946 309.417 33.7066 308.662 33.4533ZM298.822 43.0869C297.675 39.8034 296.58 36.501 295.536 33.1919C298.903 33.7533 302.235 34.5312 305.52 35.5121C303.204 37.9667 300.956 40.4778 298.822 43.0869Z" fill="#1E1E1E"/>
<path d="M316.536 28.6632C312.077 21.4449 301.34 18.8593 293.377 20.0032C292.595 20.1142 292.12 20.6014 291.92 21.1797C291.531 20.9905 291.078 20.9291 290.566 21.0694C287.136 21.9951 284.986 25.3249 283.804 28.4291C282.607 31.5684 282.21 34.9905 282.606 38.3272C283.387 44.8647 287.405 51.5698 293.737 54.2284C308.285 60.2764 324.865 42.1175 316.536 28.6632ZM312.374 44.6923C309.042 49.3019 303.135 52.5667 297.29 51.4794C291.799 50.4549 287.917 45.1359 286.681 40.0428C286.004 37.2388 286.001 34.2876 286.701 31.4985C287.4 28.7214 288.943 25.2645 291.975 24.4548C292.537 24.3077 292.871 23.9767 293.036 23.6027C293.265 23.6644 293.523 23.6923 293.814 23.6504C299.744 22.8002 307.127 24.2504 311.617 28.4354C316.243 32.7333 315.868 39.8554 312.374 44.6923Z" fill="#1E1E1E"/>
<path d="M335.149 61.245C325.205 61.8678 315.308 63.0957 305.508 64.9217C303.175 65.3542 303.601 68.988 305.947 68.5447C315.735 66.7173 325.632 65.4895 335.588 64.868C337.964 64.7218 337.525 61.0988 335.149 61.245Z" fill="#00A99D"/>
<path d="M298.602 3.90579C287.553 5.33912 276.474 6.46324 265.366 7.29026C262.987 7.46066 263.425 11.0958 265.805 10.9133C276.912 10.0983 287.992 8.96211 299.041 7.52878C301.398 7.22126 300.971 3.59961 298.602 3.90579Z" fill="#00A99D"/>
<path d="M188.884 29.1581C189.86 29.1581 190.675 29.9129 190.736 30.8745C190.798 31.8848 190.02 32.7491 188.995 32.7978C187.044 32.9074 185.117 33.1265 183.29 33.4551C180.844 33.8812 178.337 34.6237 175.151 35.8288C174.188 36.1819 173.126 35.7193 172.755 34.782C172.385 33.8447 172.867 32.7856 173.818 32.4205C177.238 31.1301 179.955 30.3389 182.635 29.8642C184.611 29.5111 186.673 29.2799 188.773 29.1581C188.81 29.1581 188.847 29.1581 188.884 29.1581ZM203.642 29.9981C203.741 29.9981 203.827 30.0102 203.926 30.0224C206.099 30.3511 208.322 30.7771 210.718 31.2884C213.139 31.8118 215.633 32.4326 218.597 33.236C219.585 33.5038 220.165 34.5142 219.881 35.488C219.61 36.4618 218.585 37.0218 217.597 36.754C214.707 35.9627 212.262 35.3541 209.915 34.8428C207.594 34.3438 205.445 33.9421 203.345 33.6134C202.333 33.4551 201.641 32.53 201.802 31.5318C201.962 30.6432 202.753 29.9981 203.642 29.9981ZM117.491 30.4363C117.578 30.4363 117.676 30.4363 117.775 30.4606C121.579 31.0328 125.654 32.0309 129.878 33.4308C130.718 33.7108 131.557 33.9908 132.409 34.2829C133.373 34.6116 133.891 35.6584 133.546 36.6079C133.212 37.5574 132.15 38.0686 131.187 37.7278C130.347 37.4478 129.52 37.1557 128.692 36.8879C124.666 35.5489 120.801 34.5994 117.22 34.076C116.207 33.9299 115.515 32.9926 115.663 31.9944C115.799 31.0936 116.59 30.4363 117.491 30.4363ZM102.746 30.558C103.61 30.558 104.388 31.1667 104.561 32.0309C104.759 33.0169 104.104 33.9786 103.092 34.1733C102.524 34.2829 101.955 34.4046 101.387 34.5507C97.0774 35.6097 93.0267 37.3748 89.6183 38.9694C88.692 39.4077 87.5929 39.0181 87.1483 38.1052C86.7161 37.1922 87.0989 36.1088 88.0251 35.6706C91.5942 34.0029 95.8548 32.1527 100.474 31.0206C101.103 30.8623 101.733 30.7284 102.363 30.6067C102.511 30.5702 102.622 30.558 102.746 30.558ZM17.3857 35.7558C18.3983 35.7558 19.2134 36.5471 19.2381 37.5452C19.2504 38.5556 18.4354 39.3833 17.4227 39.4077C12.6928 39.4929 7.98764 40.2963 3.44301 41.8179C2.46739 42.1344 1.41766 41.6231 1.09657 40.6736C0.763137 39.7242 1.28183 38.6773 2.25745 38.3608C7.16023 36.7175 12.2483 35.841 17.361 35.7558C17.361 35.7558 17.3733 35.7558 17.3857 35.7558ZM232.379 37.0826C232.527 37.0826 232.663 37.0948 232.811 37.1313C237.986 38.3608 242.518 38.9938 247.075 39.1398C248.1 39.1642 248.903 40.0163 248.866 41.0145C248.829 42.0248 247.977 42.8282 246.964 42.7795C242.148 42.6335 237.381 41.9639 231.947 40.6736C230.947 40.4423 230.341 39.4563 230.576 38.4703C230.774 37.6426 231.539 37.0826 232.379 37.0826ZM160.653 37.5209C161.456 37.5209 162.197 38.0443 162.431 38.8477C162.715 39.8215 162.147 40.8319 161.159 41.1119C159.554 41.5623 158.047 41.9031 156.553 42.1344C153.132 42.67 149.6 42.5969 145.673 41.9153C144.66 41.7448 143.993 40.7954 144.166 39.7972C144.339 38.799 145.315 38.1295 146.315 38.3121C149.835 38.9207 152.959 38.9938 155.972 38.5312C157.306 38.3243 158.677 38.02 160.134 37.6061C160.307 37.5452 160.48 37.5209 160.653 37.5209ZM32.0446 37.5452C32.1804 37.5452 32.3286 37.5574 32.4768 37.5939C35.6136 38.3243 38.7628 39.2007 41.8008 40.065C43.4803 40.5397 45.1598 41.0023 46.8394 41.4527C47.8273 41.7205 48.4078 42.7187 48.1484 43.6925C47.8767 44.6663 46.8641 45.2506 45.8761 44.9828C44.1719 44.5324 42.48 44.0577 40.7881 43.583C37.7871 42.743 34.6874 41.8666 31.6371 41.1606C30.6368 40.9293 30.0193 39.9433 30.2539 38.9694C30.4515 38.1052 31.2048 37.5452 32.0446 37.5452ZM75.3669 41.5744C76.1202 41.5744 76.8241 42.0248 77.0958 42.7552C77.4539 43.7047 76.9723 44.7515 76.009 45.1046C71.0939 46.9183 66.7592 47.7704 62.3628 47.7704C61.8811 47.7461 61.3131 47.7582 60.782 47.7339C59.757 47.6852 58.9666 46.8331 59.016 45.8227C59.0654 44.8124 59.9299 44.0333 60.9549 44.082C61.4242 44.1064 61.8935 44.1186 62.3504 44.1186C62.3504 44.1186 62.3504 44.1186 62.3628 44.1186C66.2899 44.1186 70.2171 43.3517 74.7 41.684C74.9346 41.6109 75.1569 41.5744 75.3669 41.5744Z" fill="black"/>
</svg>
