<svg width="318" height="330" viewBox="0 0 318 330" fill="none" xmlns="http://www.w3.org/2000/svg">
<path d="M252.808 44.9921C285.485 60.2856 316.234 86.7877 317.514 116.729C318.793 146.671 290.603 180.068 276.722 216.692C262.631 253.096 262.631 292.522 244.264 312.129C225.687 331.736 188.524 331.303 154.146 327.422C119.979 323.329 88.3716 315.789 61.0398 299.205C33.4893 282.62 10.0041 256.984 2.73995 227.68C-4.7348 198.163 4.23814 164.987 15.7701 133.967C27.5127 102.947 41.8225 74.0758 64.8865 55.5472C87.9505 37.0186 119.558 28.8327 152.656 27.1089C185.754 25.1728 220.139 29.4781 252.808 44.9921Z" fill="#F8F8F8"/>
<path d="M134.745 181.177C135.111 178.712 134.549 176.306 133.77 173.963C133.75 173.264 133.178 172.795 132.518 172.759C131.084 172.686 129.652 172.8 128.238 172.99C127.457 173.103 126.683 173.226 125.898 173.355C125.167 173.48 124.357 173.523 123.813 174.112C123.196 174.789 123.356 175.647 123.497 176.473C123.626 177.234 123.755 177.996 123.901 178.761C124.195 180.319 124.537 181.861 124.932 183.399C125.03 183.788 125.423 184.195 125.824 184.248C127.259 184.437 128.587 183.879 129.898 183.362C131.209 182.844 132.514 182.316 133.915 182.061C134.306 182.005 134.692 181.574 134.745 181.177ZM126.013 176.899C125.96 176.583 125.907 176.268 125.855 175.952C125.852 175.925 125.849 175.898 125.847 175.87C126.291 175.809 126.757 175.691 127.168 175.622C127.744 175.522 128.316 175.439 128.895 175.366C129.807 175.259 130.73 175.217 131.657 175.202C132.137 176.716 132.541 178.291 132.469 179.876C131.473 180.123 130.522 180.488 129.566 180.869C128.987 181.102 128.401 181.324 127.809 181.536C127.589 181.616 127.328 181.722 127.058 181.79C126.824 180.789 126.573 179.785 126.376 178.776C126.234 178.154 126.118 177.529 126.013 176.899Z" fill="#DCDCDC"/>
<path d="M271.663 11.7988C272.028 9.33348 271.466 6.92729 270.687 4.58418C270.667 3.88517 270.095 3.4166 269.435 3.38057C268.001 3.30745 266.569 3.42175 265.155 3.61169C264.374 3.7242 263.6 3.84717 262.815 3.97656C262.084 4.10124 261.274 4.14451 260.73 4.73289C260.113 5.4104 260.273 6.26817 260.414 7.09453C260.543 7.85571 260.672 8.61689 260.818 9.38213C261.112 10.94 261.454 12.4826 261.849 14.0206C261.947 14.4093 262.34 14.8163 262.741 14.8695C264.176 15.0584 265.505 14.5007 266.815 13.9832C268.126 13.4656 269.431 12.9376 270.833 12.6825C271.223 12.6263 271.609 12.1952 271.663 11.7988ZM262.93 7.5199C262.877 7.20448 262.825 6.88907 262.772 6.57366C262.769 6.5463 262.766 6.51895 262.764 6.4916C263.208 6.43064 263.674 6.31261 264.085 6.24354C264.661 6.14345 265.233 6.06025 265.812 5.98752C266.724 5.88013 267.648 5.83791 268.574 5.82305C269.054 7.33705 269.458 8.91282 269.386 10.4972C268.39 10.7444 267.439 11.109 266.484 11.4906C265.904 11.7234 265.318 11.9457 264.726 12.1576C264.506 12.2375 264.245 12.3431 263.975 12.4109C263.741 11.4106 263.491 10.4063 263.294 9.3972C263.151 8.77514 263.035 8.15072 262.93 7.5199Z" fill="#DCDCDC"/>
<path d="M233.044 254.401C231.127 252.822 228.762 252.05 226.335 251.493C225.725 251.148 225.015 251.386 224.629 251.92C223.795 253.083 223.123 254.342 222.526 255.624C222.202 256.336 221.891 257.048 221.58 257.772C221.293 258.449 220.895 259.149 221.107 259.909C221.356 260.775 222.177 261.084 222.961 261.393C223.683 261.678 224.405 261.963 225.14 262.236C226.633 262.794 228.14 263.304 229.671 263.767C230.057 263.886 230.617 263.767 230.878 263.458C231.812 262.354 232.048 260.954 232.31 259.588C232.571 258.223 232.82 256.858 233.355 255.552C233.517 255.196 233.355 254.65 233.044 254.401ZM224.679 259.505C224.38 259.387 224.082 259.268 223.783 259.149C223.758 259.137 223.733 259.125 223.708 259.114C223.895 258.71 224.044 258.259 224.206 257.879C224.43 257.345 224.667 256.823 224.916 256.3C225.314 255.481 225.775 254.686 226.26 253.902C227.816 254.282 229.384 254.757 230.704 255.635C230.38 256.597 230.181 257.582 229.994 258.579C229.882 259.185 229.758 259.79 229.621 260.396C229.571 260.621 229.521 260.894 229.434 261.155C228.451 260.835 227.455 260.526 226.484 260.17C225.874 259.968 225.277 259.743 224.679 259.505Z" fill="#FBB03B"/>
<path d="M121.696 93.8134C119.779 92.2346 117.414 91.463 114.986 90.905C114.376 90.5608 113.667 90.7982 113.281 91.3324C112.447 92.4957 111.775 93.754 111.177 95.0361C110.854 95.7483 110.543 96.4606 110.231 97.1847C109.945 97.8613 109.547 98.5617 109.758 99.3215C110.007 100.188 110.829 100.497 111.613 100.805C112.335 101.09 113.057 101.375 113.791 101.648C115.285 102.206 116.791 102.717 118.322 103.179C118.708 103.298 119.269 103.179 119.53 102.871C120.464 101.767 120.7 100.366 120.961 99.0009C121.223 97.6358 121.472 96.2707 122.007 94.9649C122.169 94.6087 122.007 94.0627 121.696 93.8134ZM113.331 98.9179C113.032 98.7991 112.733 98.6804 112.435 98.5617C112.41 98.5499 112.385 98.538 112.36 98.5261C112.547 98.1225 112.696 97.6714 112.858 97.2915C113.082 96.7574 113.318 96.235 113.567 95.7127C113.966 94.8936 114.426 94.0983 114.912 93.3148C116.468 93.6947 118.036 94.1695 119.356 95.048C119.032 96.0095 118.833 96.9948 118.646 97.9919C118.534 98.5973 118.41 99.2028 118.273 99.8082C118.223 100.034 118.173 100.307 118.086 100.568C117.103 100.247 116.107 99.9387 115.136 99.5826C114.526 99.3808 113.928 99.1553 113.331 98.9179Z" fill="#FBB03B"/>
<path d="M213.102 238.119C213.467 235.654 212.905 233.247 212.126 230.904C212.107 230.205 211.534 229.737 210.874 229.701C209.44 229.628 208.008 229.742 206.594 229.932C205.813 230.044 205.039 230.167 204.254 230.297C203.523 230.421 202.713 230.465 202.169 231.053C201.552 231.73 201.712 232.588 201.853 233.415C201.982 234.176 202.111 234.937 202.257 235.702C202.551 237.26 202.893 238.803 203.288 240.341C203.386 240.729 203.779 241.136 204.18 241.19C205.615 241.378 206.944 240.821 208.255 240.303C209.565 239.786 210.87 239.258 212.272 239.003C212.662 238.946 213.048 238.515 213.102 238.119ZM204.369 233.84C204.316 233.525 204.264 233.209 204.211 232.894C204.208 232.866 204.206 232.839 204.203 232.812C204.647 232.751 205.113 232.633 205.524 232.564C206.1 232.464 206.672 232.38 207.251 232.308C208.163 232.2 209.087 232.158 210.013 232.143C210.493 233.657 210.897 235.233 210.825 236.817C209.83 237.064 208.878 237.429 207.923 237.811C207.343 238.043 206.757 238.266 206.165 238.478C205.945 238.558 205.684 238.663 205.414 238.731C205.18 237.731 204.93 236.726 204.733 235.717C204.59 235.095 204.475 234.471 204.369 233.84Z" fill="#DCDCDC"/>
<path d="M117.425 298.027C117.79 295.562 117.228 293.156 116.449 290.813C116.429 290.114 115.857 289.645 115.197 289.609C113.763 289.536 112.331 289.65 110.917 289.84C110.136 289.953 109.362 290.076 108.577 290.205C107.846 290.33 107.036 290.373 106.492 290.961C105.875 291.639 106.035 292.497 106.176 293.323C106.305 294.084 106.434 294.845 106.58 295.611C106.874 297.168 107.216 298.711 107.611 300.249C107.709 300.638 108.102 301.045 108.503 301.098C109.938 301.287 111.266 300.729 112.577 300.212C113.888 299.694 115.193 299.166 116.595 298.911C116.985 298.855 117.371 298.424 117.425 298.027ZM108.692 293.748C108.639 293.433 108.587 293.117 108.534 292.802C108.531 292.775 108.528 292.747 108.526 292.72C108.97 292.659 109.436 292.541 109.847 292.472C110.423 292.372 110.995 292.289 111.574 292.216C112.486 292.109 113.41 292.066 114.336 292.051C114.816 293.565 115.22 295.141 115.148 296.726C114.152 296.973 113.201 297.337 112.245 297.719C111.666 297.952 111.08 298.174 110.488 298.386C110.268 298.466 110.007 298.572 109.737 298.639C109.503 297.639 109.252 296.635 109.056 295.626C108.913 295.004 108.797 294.379 108.692 293.748Z" fill="#00A99D"/>
<path d="M293.108 45.081C293.473 42.6158 292.911 40.2096 292.132 37.8665C292.112 37.1675 291.54 36.6989 290.88 36.6629C289.446 36.5897 288.014 36.704 286.6 36.894C285.819 37.0065 285.045 37.1295 284.26 37.2588C283.529 37.3835 282.719 37.4268 282.175 38.0152C281.558 38.6927 281.718 39.5505 281.859 40.3768C281.988 41.138 282.117 41.8992 282.263 42.6644C282.557 44.2222 282.899 45.7649 283.294 47.3028C283.392 47.6915 283.785 48.0986 284.186 48.1518C285.621 48.3407 286.949 47.783 288.26 47.2654C289.571 46.7479 290.876 46.2199 292.277 45.9648C292.668 45.9085 293.054 45.4775 293.108 45.081ZM284.375 40.8022C284.322 40.4868 284.269 40.1714 284.217 39.8559C284.214 39.8286 284.211 39.8012 284.209 39.7739C284.653 39.7129 285.119 39.5949 285.53 39.5258C286.106 39.4257 286.678 39.3425 287.257 39.2698C288.169 39.1624 289.092 39.1202 290.019 39.1053C290.499 40.6193 290.903 42.1951 290.831 43.7795C289.835 44.0266 288.884 44.3913 287.928 44.7729C287.349 45.0057 286.763 45.228 286.171 45.4399C285.951 45.5198 285.69 45.6254 285.42 45.6932C285.186 44.6929 284.935 43.6885 284.739 42.6795C284.596 42.0574 284.48 41.433 284.375 40.8022Z" fill="#00A99D"/>
</svg>
