<svg width="329" height="302" viewBox="0 0 329 302" fill="none" xmlns="http://www.w3.org/2000/svg">
<path d="M327.602 165.778C331.07 201.949 323.981 242.116 299.033 258.387C274.085 274.658 231.263 267.04 192.927 273.505C154.674 279.675 120.969 299.635 94.9096 293.582C68.7434 287.345 50.3 254.795 36.214 222.923C22.4163 191.127 12.8613 159.811 13.2021 127.637C13.4322 95.2734 23.4586 61.8637 44.8324 40.7089C66.2813 19.2635 99.1855 10.2743 131.541 4.60331C164.004 -0.884492 195.929 -3.05119 223.445 7.63405C250.96 18.3193 273.959 41.6733 292.189 69.5951C310.599 97.4093 324.326 129.503 327.602 165.778Z" fill="#F8F8F8"/>
<path d="M153.863 280.907C151.946 279.328 149.581 278.556 147.154 277.998C146.544 277.654 145.834 277.891 145.448 278.426C144.614 279.589 143.942 280.847 143.345 282.129C143.021 282.842 142.71 283.554 142.399 284.278C142.112 284.955 141.714 285.655 141.926 286.415C142.174 287.281 142.996 287.59 143.78 287.899C144.502 288.183 145.224 288.468 145.959 288.741C147.452 289.299 148.959 289.81 150.49 290.273C150.876 290.391 151.436 290.273 151.697 289.964C152.631 288.86 152.867 287.459 153.129 286.094C153.39 284.729 153.639 283.364 154.174 282.058C154.336 281.702 154.174 281.156 153.863 280.907ZM145.498 286.011C145.199 285.892 144.901 285.774 144.602 285.655C144.577 285.643 144.552 285.631 144.527 285.619C144.714 285.216 144.863 284.765 145.025 284.385C145.249 283.851 145.486 283.328 145.735 282.806C146.133 281.987 146.594 281.192 147.079 280.408C148.635 280.788 150.203 281.263 151.523 282.141C151.199 283.103 151 284.088 150.813 285.085C150.701 285.691 150.577 286.296 150.44 286.901C150.39 287.127 150.34 287.4 150.253 287.661C149.27 287.341 148.274 287.032 147.303 286.676C146.693 286.474 146.096 286.249 145.498 286.011Z" fill="#FBB03B"/>
<path d="M11.9971 172.739C10.0801 171.16 7.71503 170.389 5.28769 169.831C4.67774 169.486 3.96821 169.724 3.58233 170.258C2.74832 171.421 2.07613 172.68 1.47863 173.962C1.15499 174.674 0.843789 175.386 0.532591 176.11C0.246289 176.787 -0.152044 177.487 0.0595703 178.247C0.308528 179.114 1.13009 179.422 1.91431 179.731C2.63629 180.016 3.35827 180.301 4.09269 180.574C5.58644 181.132 7.09264 181.642 8.62373 182.105C9.00961 182.224 9.56977 182.105 9.83118 181.797C10.7648 180.693 11.0013 179.292 11.2627 177.927C11.5241 176.561 11.7731 175.196 12.3083 173.891C12.4701 173.534 12.3083 172.988 11.9971 172.739ZM3.63212 177.844C3.33337 177.725 3.03462 177.606 2.73587 177.487C2.71097 177.476 2.68608 177.464 2.66118 177.452C2.8479 177.048 2.99728 176.597 3.1591 176.217C3.38316 175.683 3.61967 175.161 3.86863 174.638C4.26696 173.819 4.72754 173.024 5.213 172.24C6.76899 172.62 8.33743 173.095 9.65691 173.974C9.33326 174.935 9.13409 175.92 8.94738 176.918C8.83534 177.523 8.71087 178.128 8.57394 178.734C8.52415 178.959 8.47435 179.232 8.38722 179.494C7.40383 179.173 6.408 178.864 5.43707 178.508C4.82712 178.306 4.22962 178.081 3.63212 177.844Z" fill="#FBB03B"/>
<path d="M156.338 46.2658C154.421 44.687 152.055 43.9154 149.628 43.3574C149.018 43.0132 148.309 43.2506 147.923 43.7848C147.089 44.9481 146.417 46.2064 145.819 47.4885C145.495 48.2007 145.184 48.913 144.873 49.6371C144.587 50.3138 144.188 51.0141 144.4 51.7739C144.649 52.6404 145.471 52.9491 146.255 53.2577C146.977 53.5426 147.699 53.8275 148.433 54.1006C149.927 54.6585 151.433 55.1689 152.964 55.6319C153.35 55.7506 153.91 55.6319 154.172 55.3233C155.105 54.2193 155.342 52.8185 155.603 51.4534C155.865 50.0882 156.114 48.7231 156.649 47.4173C156.811 47.0611 156.649 46.5151 156.338 46.2658ZM147.973 51.3703C147.674 51.2516 147.375 51.1328 147.076 51.0141C147.051 51.0023 147.027 50.9904 147.002 50.9785C147.188 50.5749 147.338 50.1238 147.5 49.744C147.724 49.2098 147.96 48.6874 148.209 48.1651C148.607 47.346 149.068 46.5507 149.553 45.7672C151.109 46.1471 152.678 46.6219 153.997 47.5004C153.674 48.4619 153.475 49.4472 153.288 50.4443C153.176 51.0497 153.051 51.6552 152.914 52.2606C152.865 52.4861 152.815 52.7592 152.728 53.0203C151.744 52.6998 150.748 52.3912 149.778 52.035C149.168 51.8332 148.57 51.6077 147.973 51.3703Z" fill="#FBB03B"/>
<path d="M192.482 296.243C192.847 293.778 192.285 291.371 191.506 289.028C191.486 288.329 190.914 287.861 190.254 287.825C188.82 287.752 187.388 287.866 185.974 288.056C185.193 288.168 184.419 288.291 183.634 288.421C182.903 288.545 182.093 288.589 181.549 289.177C180.932 289.854 181.092 290.712 181.233 291.539C181.362 292.3 181.491 293.061 181.637 293.826C181.931 295.384 182.273 296.927 182.668 298.465C182.766 298.853 183.159 299.26 183.56 299.314C184.995 299.502 186.323 298.945 187.634 298.427C188.945 297.91 190.25 297.382 191.652 297.127C192.042 297.07 192.428 296.639 192.482 296.243ZM183.749 291.964C183.696 291.649 183.644 291.333 183.591 291.018C183.588 290.99 183.585 290.963 183.583 290.936C184.027 290.875 184.493 290.757 184.904 290.688C185.48 290.588 186.052 290.504 186.631 290.432C187.543 290.324 188.467 290.282 189.393 290.267C189.873 291.781 190.277 293.357 190.205 294.941C189.209 295.188 188.258 295.553 187.302 295.935C186.723 296.167 186.137 296.39 185.545 296.602C185.325 296.682 185.064 296.787 184.794 296.855C184.56 295.855 184.31 294.85 184.113 293.841C183.97 293.219 183.854 292.595 183.749 291.964Z" fill="#DCDCDC"/>
<path d="M75.3596 221.358C75.7249 218.892 75.1628 216.486 74.3844 214.143C74.3645 213.444 73.7921 212.975 73.1321 212.939C71.698 212.866 70.2661 212.981 68.8524 213.171C68.0714 213.283 67.2968 213.406 66.5119 213.535C65.7809 213.66 64.9713 213.703 64.427 214.292C63.81 214.969 63.9703 215.827 64.1112 216.653C64.2403 217.415 64.3694 218.176 64.5152 218.941C64.8094 220.499 65.151 222.041 65.5464 223.579C65.6443 223.968 66.037 224.375 66.4382 224.428C67.8729 224.617 69.2015 224.06 70.5124 223.542C71.8234 223.024 73.1278 222.496 74.5296 222.241C74.9202 222.185 75.3064 221.754 75.3596 221.358ZM66.6271 217.079C66.5743 216.763 66.5216 216.448 66.4689 216.132C66.4662 216.105 66.4635 216.078 66.4608 216.05C66.9052 215.989 67.371 215.871 67.782 215.802C68.3581 215.702 68.9304 215.619 69.5092 215.546C70.421 215.439 71.3446 215.397 72.2709 215.382C72.7507 216.896 73.1552 218.472 73.0832 220.056C72.0875 220.303 71.1359 220.668 70.1805 221.049C69.6012 221.282 69.0154 221.505 68.4232 221.716C68.2032 221.796 67.9423 221.902 67.6722 221.97C67.4382 220.969 67.1876 219.965 66.9907 218.956C66.8481 218.334 66.7325 217.71 66.6271 217.079Z" fill="#00A99D"/>
<path d="M58.0388 23.3274C58.4041 20.8622 57.842 18.456 57.0636 16.1129C57.0437 15.4138 56.4713 14.9453 55.8113 14.9092C54.3772 14.8361 52.9453 14.9504 51.5316 15.1404C50.7506 15.2529 49.976 15.3759 49.1911 15.5052C48.4601 15.6299 47.6505 15.6732 47.1062 16.2616C46.4892 16.9391 46.6495 17.7968 46.7904 18.6232C46.9195 19.3844 47.0486 20.1456 47.1944 20.9108C47.4886 22.4686 47.8302 24.0113 48.2256 25.5492C48.3235 25.9379 48.7162 26.345 49.1174 26.3981C50.5521 26.5871 51.8807 26.0294 53.1916 25.5118C54.5026 24.9943 55.807 24.4663 57.2088 24.2112C57.5994 24.1549 57.9856 23.7238 58.0388 23.3274ZM49.3063 19.0486C49.2535 18.7332 49.2008 18.4177 49.1481 18.1023C49.1454 18.075 49.1427 18.0476 49.14 18.0203C49.5844 17.9593 50.0502 17.8413 50.4612 17.7722C51.0373 17.6721 51.6096 17.5889 52.1884 17.5162C53.1002 17.4088 54.0238 17.3666 54.9501 17.3517C55.4299 18.8657 55.8344 20.4415 55.7624 22.0259C54.7667 22.273 53.8151 22.6377 52.8597 23.0193C52.2804 23.2521 51.6946 23.4744 51.1024 23.6863C50.8824 23.7662 50.6215 23.8718 50.3514 23.9396C50.1174 22.9393 49.8668 21.9349 49.6699 20.9259C49.5273 20.3038 49.4117 19.6794 49.3063 19.0486Z" fill="#DCDCDC"/>
<path d="M193.306 78.2435C193.672 75.7782 193.11 73.372 192.331 71.0289C192.311 70.3299 191.739 69.8613 191.079 69.8253C189.645 69.7522 188.213 69.8665 186.799 70.0564C186.018 70.1689 185.244 70.2919 184.459 70.4213C183.728 70.5459 182.918 70.5892 182.374 71.1776C181.757 71.8551 181.917 72.7129 182.058 73.5392C182.187 74.3004 182.316 75.0616 182.462 75.8268C182.756 77.3847 183.098 78.9273 183.493 80.4653C183.591 80.854 183.984 81.261 184.385 81.3142C185.82 81.5031 187.148 80.9454 188.459 80.4279C189.77 79.9104 191.075 79.3823 192.476 79.1272C192.867 79.071 193.253 78.6399 193.306 78.2435ZM184.574 73.9646C184.521 73.6492 184.468 73.3338 184.416 73.0184C184.413 72.991 184.41 72.9637 184.408 72.9363C184.852 72.8753 185.318 72.7573 185.729 72.6882C186.305 72.5882 186.877 72.505 187.456 72.4322C188.368 72.3248 189.291 72.2826 190.218 72.2678C190.698 73.7818 191.102 75.3575 191.03 76.9419C190.034 77.1891 189.083 77.5538 188.127 77.9353C187.548 78.1681 186.962 78.3904 186.37 78.6023C186.15 78.6823 185.889 78.7879 185.619 78.8556C185.385 77.8553 185.134 76.851 184.937 75.8419C184.795 75.2198 184.679 74.5954 184.574 73.9646Z" fill="#00A99D"/>
</svg>
