<svg width="1920" height="416" viewBox="0 0 1920 416" fill="none" xmlns="http://www.w3.org/2000/svg">
<path d="M1920 416V1.40988C1919.36 1.42044 1918.72 1.44157 1918.09 1.45213C1842.81 3.02611 1767.12 3.22682 1691.62 2.69864C1653.34 2.43455 1615.08 1.99088 1576.86 1.44157C1539.72 0.913386 1502.56 0.057732 1465.32 0.00491386C1392.63 -0.12185 1320.47 2.23384 1248.14 3.61768C1211.59 4.31488 1174.9 4.76911 1138.21 4.53671C1102.26 4.31488 1066.91 3.10006 1031.29 2.06482C997.805 1.09297 964.185 0.533096 930.505 1.28311C894.5 2.08595 858.951 3.96628 823.037 5.01208C787.215 6.05788 751.802 6.3114 715.98 5.20222C679.702 4.07191 643.606 2.58244 607.191 1.68453C533.905 -0.142977 460.619 2.61413 387.379 3.49091C311.146 4.39939 235.262 3.12119 159.211 1.98031C116.689 1.3148 73.9846 0.607041 31.4017 1.0824C20.9497 1.20917 10.4368 1.37819 0 1.68453V416H1920Z" fill="#1E1E1E"/>
<path d="M1305.7 298.674C1305.48 298.161 1305.07 297.764 1304.62 297.49C1303.94 296.605 1302.76 296.556 1301.92 297.166L1300.59 298.097C1300.01 298.15 1299.58 298.545 1299.27 298.988L1299.22 299.013C1298.25 299.713 1297.4 300.601 1297.58 301.946C1297.74 303.096 1298.54 304.029 1299.6 304.405C1300.7 304.797 1301.81 304.439 1302.74 303.82C1304.34 302.805 1306.64 300.797 1305.7 298.674Z" fill="white" fill-opacity="0.25"/>
<path d="M1309.54 278.209C1309.37 277.574 1308.93 277.022 1308.42 276.674C1308.38 276.52 1308.33 276.406 1308.28 276.292C1307.77 275.332 1307.03 274.611 1306.12 274.201C1305.69 273.747 1305.07 273.45 1304.44 273.625C1304.29 273.659 1304.12 273.734 1303.97 273.767C1302.78 273.857 1301.63 274.437 1300.83 275.675C1299.41 277.799 1300.27 280.266 1301.98 281.707C1302.05 282.726 1302.86 283.757 1304.14 283.56C1304.49 283.509 1304.89 283.433 1305.25 283.34C1305.82 283.426 1306.44 283.25 1306.91 282.872C1307.6 282.769 1308.29 282.527 1308.87 282.238C1310.39 281.427 1310.49 279.484 1309.54 278.209Z" fill="white" fill-opacity="0.25"/>
<path d="M1381.7 315.427C1381.56 313.248 1379.72 311.425 1377.86 310.589C1374.48 309.005 1370.79 312.818 1371.26 316.169C1370.4 317.195 1370.27 318.747 1371.29 319.956C1372.82 321.749 1375.94 321.246 1377.87 320.555C1380.07 319.78 1381.84 317.842 1381.7 315.427Z" fill="white" fill-opacity="0.25"/>
<path d="M1645.44 315.783C1645.3 313.605 1643.45 311.782 1641.6 310.946C1638.22 309.362 1634.53 313.175 1635 316.526C1634.14 317.552 1634.01 319.104 1635.03 320.313C1636.56 322.106 1639.68 321.602 1641.61 320.911C1643.81 320.137 1645.57 318.198 1645.44 315.783Z" fill="white" fill-opacity="0.25"/>
<path d="M36.8173 315.783C36.6824 313.605 34.8351 311.782 32.9784 310.946C29.6023 309.362 25.9101 313.175 26.3815 316.526C25.5231 317.552 25.3893 319.104 26.4071 320.313C27.9417 322.106 31.0554 321.602 32.9898 320.911C35.1881 320.137 36.9539 318.198 36.8173 315.783Z" fill="white" fill-opacity="0.25"/>
<path d="M1686.87 377.783C1686.74 375.605 1684.89 373.782 1683.04 372.946C1679.66 371.362 1675.97 375.175 1676.44 378.526C1675.58 379.552 1675.45 381.104 1676.46 382.313C1678 384.106 1681.11 383.602 1683.05 382.911C1685.24 382.137 1687.01 380.198 1686.87 377.783Z" fill="white" fill-opacity="0.25"/>
<path d="M78.2542 377.783C78.1193 375.605 76.272 373.782 74.4153 372.946C71.0392 371.362 67.347 375.175 67.8184 378.526C66.9599 379.552 66.8262 381.104 67.844 382.313C69.3786 384.106 72.4922 383.602 74.4267 382.911C76.625 382.137 78.3908 380.198 78.2542 377.783Z" fill="white" fill-opacity="0.25"/>
<path d="M1159.77 127.67C1159.55 127.157 1159.14 126.76 1158.69 126.486C1158.01 125.601 1156.83 125.552 1155.99 126.162L1154.66 127.093C1154.08 127.146 1153.65 127.541 1153.34 127.984L1153.29 128.009C1152.32 128.71 1151.47 129.597 1151.65 130.942C1151.81 132.092 1152.61 133.025 1153.67 133.401C1154.77 133.793 1155.88 133.435 1156.81 132.816C1158.41 131.801 1160.71 129.793 1159.77 127.67Z" fill="white" fill-opacity="0.25"/>
<path d="M1093.89 118.452C1092.72 115.955 1089.18 113.694 1086.53 115.043C1085.27 115.672 1084.51 117.163 1084.91 118.548C1084.84 119.324 1085.11 120.187 1085.59 120.853C1086.44 122.039 1087.76 122.805 1089.14 123.073C1091.89 123.649 1095.39 121.649 1093.89 118.452Z" fill="white" fill-opacity="0.25"/>
<path d="M1172.16 192.29C1170.51 190.922 1168.2 189.812 1166.16 190.789C1165.19 191.253 1164.81 192.374 1165.17 193.367C1164.81 193.557 1164.51 193.862 1164.28 194.337C1163.37 196.473 1164.44 198.979 1166.45 200.018C1168.54 201.089 1171.03 200.288 1172.59 198.645C1174.51 196.672 1174.26 194.071 1172.16 192.29ZM1168.2 196.562C1168.08 196.514 1168.03 196.4 1167.93 196.311C1167.93 196.311 1167.93 196.311 1167.89 196.295C1168.34 196.43 1168.86 196.402 1169.39 196.235C1169.06 196.482 1168.64 196.738 1168.2 196.562Z" fill="white" fill-opacity="0.25"/>
<path d="M1091.33 193.151C1090.88 190.567 1087.95 188.686 1085.75 190.546C1085.46 190.809 1085.21 191.088 1085.02 191.342C1084.33 191.445 1083.78 191.931 1083.44 192.553C1082.2 194.937 1083.59 198.184 1086.07 198.983C1087.6 199.454 1089.19 197.965 1090.18 196.848C1091.02 195.863 1091.56 194.471 1091.33 193.151Z" fill="white" fill-opacity="0.25"/>
<path d="M1219.48 265.144C1218.56 264.302 1217.32 263.903 1216.14 264.425C1215.19 264.848 1214.54 265.954 1214.65 266.99C1214.12 268.479 1214.2 270.209 1215.31 271.409C1216.98 273.209 1220.02 273.147 1221.12 270.756C1222.04 268.856 1220.96 266.489 1219.48 265.144Z" fill="white" fill-opacity="0.25"/>
<path d="M1261.89 179.637C1261.46 179.795 1261.12 180.083 1260.8 180.428C1259.89 180.157 1258.81 180.434 1258.16 181.402C1257.15 182.935 1258.06 184.667 1259.22 185.744C1261.52 187.842 1265.5 187.496 1266.59 184.297C1267.65 181.417 1264.75 178.466 1261.89 179.637Z" fill="white" fill-opacity="0.25"/>
<path d="M1144.05 166.81C1143.68 165.147 1142.2 164.276 1140.74 163.739C1140.14 163.499 1139.55 163.593 1139.11 163.89C1138.27 162.092 1135.12 162.816 1135.44 165.115C1135.71 166.925 1136.17 168.759 1137.52 170.055C1138.75 171.205 1140.53 171.634 1142.09 170.839C1143.55 170.053 1144.41 168.415 1144.05 166.81Z" fill="white" fill-opacity="0.25"/>
<path d="M1230.71 213.923C1230.27 212.8 1229.15 211.975 1227.93 212.008C1227.18 212.038 1226.4 212.484 1225.81 213.051C1224.27 213.095 1222.71 214.363 1222.61 216.069C1222.54 217.221 1223.16 218.367 1224.1 219.071C1225.15 219.822 1226.37 219.789 1227.54 219.405C1229.71 218.574 1231.75 216.413 1230.71 213.923Z" fill="white" fill-opacity="0.25"/>
<path d="M1163.61 107.205C1163.44 106.57 1163 106.018 1162.49 105.671C1162.46 105.516 1162.41 105.402 1162.36 105.288C1161.85 104.328 1161.1 103.607 1160.2 103.197C1159.77 102.743 1159.14 102.446 1158.52 102.621C1158.37 102.655 1158.2 102.73 1158.05 102.764C1156.85 102.854 1155.7 103.433 1154.9 104.671C1153.48 106.795 1154.34 109.262 1156.06 110.703C1156.13 111.722 1156.94 112.753 1158.22 112.557C1158.56 112.505 1158.96 112.429 1159.32 112.337C1159.89 112.422 1160.51 112.247 1160.98 111.868C1161.67 111.765 1162.37 111.523 1162.94 111.234C1164.46 110.423 1164.56 108.48 1163.61 107.205Z" fill="white" fill-opacity="0.25"/>
<path d="M1235.77 144.422C1235.64 142.244 1233.79 140.421 1231.93 139.585C1228.56 138.001 1224.87 141.814 1225.34 145.165C1224.48 146.191 1224.34 147.743 1225.36 148.952C1226.9 150.745 1230.01 150.241 1231.95 149.55C1234.14 148.776 1235.91 146.837 1235.77 144.422Z" fill="white" fill-opacity="0.25"/>
<path d="M1048.57 136.849C1048.39 135.74 1047.58 134.848 1046.58 134.447C1044.45 133.597 1042.64 135.046 1041.41 136.679C1040.76 137.508 1040.96 138.813 1041.79 139.427C1041.97 139.548 1042.12 139.653 1042.33 139.692C1042.75 140.424 1043.45 140.99 1044.3 141.091C1045.36 141.23 1046.42 140.757 1047.21 140.034C1048.09 139.301 1048.78 138.113 1048.57 136.849Z" fill="white" fill-opacity="0.25"/>
<path d="M1098.63 201.262C1098.4 201.5 1098.21 201.754 1098.08 202.082C1097.97 202.131 1097.88 202.14 1097.76 202.19C1096.98 201.689 1095.69 201.788 1095.17 202.665C1093.97 204.689 1094.98 207.498 1097.5 207.562C1098.42 207.596 1099.19 207.15 1099.72 206.51C1101.31 206.58 1102.92 205.761 1103.64 204.254C1104.99 201.347 1100.56 199.387 1098.63 201.262Z" fill="white" fill-opacity="0.25"/>
<path d="M1531.72 111.591C1531.5 111.078 1531.09 110.681 1530.64 110.407C1529.96 109.522 1528.78 109.473 1527.94 110.083L1526.61 111.014C1526.03 111.068 1525.6 111.462 1525.29 111.905L1525.23 111.93C1524.27 112.631 1523.42 113.518 1523.6 114.864C1523.76 116.013 1524.56 116.946 1525.62 117.323C1526.72 117.715 1527.83 117.356 1528.76 116.737C1530.36 115.722 1532.66 113.714 1531.72 111.591Z" fill="white" fill-opacity="0.25"/>
<path d="M1795.45 111.948C1795.23 111.435 1794.83 111.038 1794.38 110.763C1793.7 109.879 1792.51 109.83 1791.68 110.44L1790.35 111.371C1789.77 111.424 1789.34 111.819 1789.03 112.262L1788.97 112.287C1788.01 112.987 1787.16 113.875 1787.33 115.22C1787.49 116.37 1788.29 117.303 1789.35 117.679C1790.45 118.071 1791.57 117.713 1792.5 117.094C1794.1 116.079 1796.4 114.071 1795.45 111.948Z" fill="white" fill-opacity="0.25"/>
<path d="M186.833 111.948C186.614 111.435 186.21 111.038 185.76 110.763C185.081 109.879 183.894 109.83 183.057 110.44L181.725 111.371C181.149 111.424 180.719 111.819 180.409 112.262L180.353 112.287C179.388 112.987 178.537 113.875 178.714 115.22C178.874 116.37 179.674 117.303 180.734 117.679C181.835 118.071 182.946 117.713 183.879 117.094C185.475 116.079 187.777 114.071 186.833 111.948Z" fill="white" fill-opacity="0.25"/>
<path d="M1815.68 41.3924C1815.46 40.8797 1815.06 40.4826 1814.61 40.2083C1813.93 39.3234 1812.74 39.2746 1811.91 39.8845L1810.57 40.8161C1810 40.8691 1809.57 41.2639 1809.26 41.7068L1809.2 41.7317C1808.24 42.4322 1807.39 43.3197 1807.56 44.6651C1807.72 45.8148 1808.52 46.7478 1809.58 47.1239C1810.68 47.5161 1811.79 47.1574 1812.73 46.5387C1814.32 45.5236 1816.63 43.516 1815.68 41.3924Z" fill="white" fill-opacity="0.25"/>
<path d="M207.062 41.3924C206.842 40.8797 206.439 40.4826 205.988 40.2083C205.309 39.3234 204.123 39.2746 203.286 39.8845L201.954 40.8161C201.377 40.8691 200.947 41.2639 200.638 41.7068L200.582 41.7317C199.617 42.4322 198.766 43.3197 198.943 44.6651C199.103 45.8148 199.903 46.7478 200.963 47.1239C202.063 47.5161 203.175 47.1574 204.108 46.5387C205.704 45.5236 208.006 43.516 207.062 41.3924Z" fill="white" fill-opacity="0.25"/>
<path d="M1836.89 173.948C1836.67 173.435 1836.27 173.038 1835.82 172.763C1835.14 171.879 1833.95 171.83 1833.11 172.44L1831.78 173.371C1831.21 173.424 1830.78 173.819 1830.47 174.262L1830.41 174.287C1829.44 174.987 1828.59 175.875 1828.77 177.22C1828.93 178.37 1829.73 179.303 1830.79 179.679C1831.89 180.071 1833 179.713 1833.94 179.094C1835.53 178.079 1837.83 176.071 1836.89 173.948Z" fill="white" fill-opacity="0.25"/>
<path d="M228.27 173.948C228.05 173.435 227.647 173.038 227.196 172.763C226.517 171.879 225.331 171.83 224.494 172.44L223.162 173.371C222.585 173.424 222.155 173.819 221.846 174.262L221.79 174.287C220.825 174.987 219.974 175.875 220.151 177.22C220.311 178.37 221.111 179.303 222.171 179.679C223.272 180.071 224.383 179.713 225.316 179.094C226.912 178.079 229.214 176.071 228.27 173.948Z" fill="white" fill-opacity="0.25"/>
<path d="M1465.83 102.374C1464.66 99.8761 1461.13 97.6156 1458.48 98.9646C1457.22 99.5937 1456.46 101.084 1456.85 102.469C1456.78 103.245 1457.06 104.108 1457.54 104.774C1458.38 105.96 1459.71 106.726 1461.09 106.994C1463.83 107.57 1467.34 105.571 1465.83 102.374Z" fill="white" fill-opacity="0.25"/>
<path d="M1729.57 102.73C1728.4 100.233 1724.87 97.9725 1722.22 99.3215C1720.95 99.9506 1720.2 101.441 1720.59 102.826C1720.52 103.602 1720.79 104.465 1721.28 105.131C1722.12 106.317 1723.45 107.083 1724.83 107.351C1727.57 107.927 1731.08 105.927 1729.57 102.73Z" fill="white" fill-opacity="0.25"/>
<path d="M120.952 102.73C119.781 100.233 116.248 97.9725 113.597 99.3215C112.335 99.9506 111.576 101.441 111.97 102.826C111.903 103.602 112.173 104.465 112.659 105.131C113.5 106.317 114.827 107.083 116.207 107.351C118.952 107.927 122.456 105.927 120.952 102.73Z" fill="white" fill-opacity="0.25"/>
<path d="M1771.01 164.73C1769.84 162.233 1766.3 159.972 1763.65 161.321C1762.39 161.951 1761.63 163.441 1762.03 164.826C1761.96 165.602 1762.23 166.465 1762.72 167.131C1763.56 168.317 1764.88 169.083 1766.26 169.351C1769.01 169.927 1772.51 167.927 1771.01 164.73Z" fill="white" fill-opacity="0.25"/>
<path d="M162.389 164.73C161.218 162.233 157.685 159.972 155.034 161.321C153.772 161.951 153.013 163.441 153.407 164.826C153.34 165.602 153.61 166.465 154.096 167.131C154.937 168.317 156.264 169.083 157.644 169.351C160.389 169.927 163.893 167.927 162.389 164.73Z" fill="white" fill-opacity="0.25"/>
<path d="M1544.11 176.211C1542.46 174.843 1540.15 173.733 1538.1 174.71C1537.14 175.174 1536.75 176.295 1537.11 177.288C1536.76 177.478 1536.46 177.782 1536.23 178.257C1535.31 180.394 1536.39 182.9 1538.4 183.939C1540.49 185.01 1542.98 184.209 1544.54 182.566C1546.45 180.593 1546.2 177.992 1544.11 176.211ZM1540.15 180.483C1540.03 180.434 1539.98 180.321 1539.87 180.232C1539.87 180.232 1539.87 180.232 1539.83 180.215C1540.29 180.351 1540.81 180.323 1541.34 180.156C1541.01 180.403 1540.59 180.659 1540.15 180.483Z" fill="white" fill-opacity="0.25"/>
<path d="M1463.27 177.072C1462.83 174.488 1459.89 172.607 1457.69 174.467C1457.41 174.73 1457.16 175.009 1456.97 175.264C1456.28 175.367 1455.72 175.852 1455.39 176.475C1454.15 178.858 1455.54 182.105 1458.01 182.904C1459.55 183.375 1461.14 181.886 1462.13 180.769C1462.97 179.784 1463.5 178.393 1463.27 177.072Z" fill="white" fill-opacity="0.25"/>
<path d="M1591.43 249.065C1590.5 248.223 1589.26 247.824 1588.09 248.346C1587.14 248.769 1586.48 249.875 1586.59 250.911C1586.07 252.4 1586.14 254.13 1587.26 255.33C1588.93 257.13 1591.96 257.068 1593.07 254.677C1593.99 252.777 1592.9 250.41 1591.43 249.065Z" fill="white" fill-opacity="0.25"/>
<path d="M1849.82 103.76C1848.89 102.917 1847.66 102.518 1846.48 103.04C1845.53 103.463 1844.87 104.57 1844.99 105.605C1844.46 107.095 1844.53 108.824 1845.65 110.025C1847.32 111.825 1850.36 111.763 1851.46 109.372C1852.38 107.472 1851.3 105.104 1849.82 103.76Z" fill="white" fill-opacity="0.25"/>
<path d="M241.201 103.76C240.274 102.917 239.037 102.518 237.863 103.04C236.912 103.463 236.255 104.57 236.366 105.605C235.839 107.095 235.915 108.824 237.029 110.025C238.7 111.825 241.736 111.763 242.842 109.372C243.758 107.472 242.677 105.104 241.201 103.76Z" fill="white" fill-opacity="0.25"/>
<path d="M1855.17 249.422C1854.24 248.579 1853 248.18 1851.83 248.702C1850.88 249.125 1850.22 250.232 1850.33 251.268C1849.8 252.757 1849.88 254.487 1850.99 255.687C1852.67 257.487 1855.7 257.425 1856.81 255.034C1857.72 253.134 1856.64 250.766 1855.17 249.422Z" fill="white" fill-opacity="0.25"/>
<path d="M246.547 249.422C245.62 248.579 244.383 248.18 243.209 248.702C242.258 249.125 241.6 250.232 241.712 251.268C241.185 252.757 241.261 254.487 242.374 255.687C244.045 257.487 247.082 257.425 248.187 255.034C249.104 253.134 248.022 250.766 246.547 249.422Z" fill="white" fill-opacity="0.25"/>
<path d="M1896.6 311.422C1895.68 310.579 1894.44 310.18 1893.27 310.702C1892.31 311.125 1891.66 312.232 1891.77 313.268C1891.24 314.757 1891.32 316.487 1892.43 317.687C1894.1 319.487 1897.14 319.425 1898.24 317.034C1899.16 315.134 1898.08 312.766 1896.6 311.422Z" fill="white" fill-opacity="0.25"/>
<path d="M287.984 311.422C287.057 310.579 285.82 310.18 284.646 310.702C283.695 311.125 283.037 312.232 283.148 313.268C282.622 314.757 282.697 316.487 283.811 317.687C285.482 319.487 288.519 319.425 289.624 317.034C290.541 315.134 289.459 312.766 287.984 311.422Z" fill="white" fill-opacity="0.25"/>
<path d="M1633.84 163.558C1633.41 163.716 1633.07 164.004 1632.75 164.349C1631.83 164.078 1630.75 164.355 1630.1 165.323C1629.09 166.856 1630 168.588 1631.16 169.665C1633.46 171.763 1637.44 171.417 1638.53 168.218C1639.6 165.338 1636.7 162.387 1633.84 163.558Z" fill="white" fill-opacity="0.25"/>
<path d="M25.2195 163.558C24.7879 163.716 24.4453 164.004 24.1271 164.349C23.2118 164.078 22.1319 164.355 21.4814 165.323C20.4742 166.856 21.3833 168.588 22.5445 169.665C24.8424 171.763 28.8225 171.417 29.9146 168.218C30.9768 165.338 28.0802 162.387 25.2195 163.558Z" fill="white" fill-opacity="0.25"/>
<path d="M1516 150.731C1515.62 149.069 1514.15 148.197 1512.69 147.661C1512.09 147.42 1511.49 147.514 1511.05 147.811C1510.22 146.013 1507.06 146.737 1507.39 149.037C1507.66 150.847 1508.11 152.68 1509.47 153.976C1510.7 155.127 1512.48 155.555 1514.03 154.76C1515.5 153.975 1516.36 152.336 1516 150.731Z" fill="white" fill-opacity="0.25"/>
<path d="M1602.66 197.844C1602.21 196.721 1601.09 195.896 1599.87 195.929C1599.12 195.959 1598.35 196.405 1597.76 196.972C1596.21 197.016 1594.66 198.284 1594.56 199.99C1594.49 201.142 1595.11 202.288 1596.04 202.992C1597.1 203.743 1598.32 203.71 1599.48 203.327C1601.66 202.495 1603.69 200.334 1602.66 197.844Z" fill="white" fill-opacity="0.25"/>
<path d="M1535.56 91.1262C1535.39 90.4908 1534.95 89.9388 1534.44 89.5915C1534.4 89.4366 1534.35 89.3227 1534.3 89.2088C1533.79 88.2493 1533.05 87.5281 1532.14 87.1182C1531.71 86.6642 1531.09 86.3666 1530.46 86.5424C1530.31 86.5761 1530.14 86.6507 1529.99 86.6844C1528.8 86.7744 1527.65 87.3538 1526.85 88.5919C1525.43 90.7158 1526.29 93.1828 1528 94.6235C1528.07 95.6433 1528.88 96.6741 1530.16 96.4774C1530.51 96.426 1530.91 96.3498 1531.27 96.2574C1531.84 96.3432 1532.46 96.1675 1532.93 95.7887C1533.62 95.6859 1534.31 95.4443 1534.89 95.1546C1536.41 94.3441 1536.51 92.4009 1535.56 91.1262Z" fill="white" fill-opacity="0.25"/>
<path d="M1607.72 128.344C1607.58 126.165 1605.74 124.342 1603.88 123.506C1600.5 121.922 1596.81 125.735 1597.28 129.086C1596.42 130.112 1596.29 131.664 1597.31 132.873C1598.84 134.666 1601.96 134.163 1603.89 133.472C1606.09 132.697 1607.86 130.759 1607.72 128.344Z" fill="white" fill-opacity="0.25"/>
<path d="M1420.52 120.77C1420.34 119.661 1419.53 118.769 1418.52 118.368C1416.39 117.518 1414.58 118.967 1413.35 120.6C1412.71 121.429 1412.9 122.733 1413.73 123.348C1413.92 123.469 1414.06 123.574 1414.28 123.613C1414.69 124.345 1415.4 124.911 1416.24 125.012C1417.3 125.151 1418.36 124.678 1419.15 123.955C1420.04 123.222 1420.73 122.034 1420.52 120.77Z" fill="white" fill-opacity="0.25"/>
<path d="M1470.58 185.183C1470.35 185.421 1470.16 185.675 1470.03 186.003C1469.92 186.052 1469.82 186.061 1469.71 186.111C1468.93 185.61 1467.64 185.709 1467.12 186.586C1465.92 188.611 1466.93 191.419 1469.45 191.483C1470.36 191.518 1471.14 191.072 1471.66 190.431C1473.26 190.502 1474.87 189.682 1475.59 188.175C1476.94 185.268 1472.5 183.308 1470.58 185.183Z" fill="white" fill-opacity="0.25"/>
<path d="M1734.32 185.539C1734.08 185.777 1733.89 186.032 1733.77 186.359C1733.66 186.409 1733.56 186.418 1733.45 186.467C1732.67 185.967 1731.38 186.066 1730.86 186.943C1729.66 188.967 1730.66 191.776 1733.19 191.84C1734.1 191.874 1734.88 191.428 1735.4 190.788C1737 190.858 1738.61 190.039 1739.33 188.532C1740.68 185.625 1736.24 183.665 1734.32 185.539Z" fill="white" fill-opacity="0.25"/>
<path d="M125.695 185.539C125.465 185.777 125.274 186.032 125.148 186.359C125.036 186.409 124.94 186.418 124.828 186.467C124.048 185.967 122.758 186.066 122.235 186.943C121.039 188.967 122.044 191.776 124.568 191.84C125.482 191.874 126.256 191.428 126.781 190.788C128.376 190.858 129.989 190.039 130.708 188.532C132.058 185.625 127.622 183.665 125.695 185.539Z" fill="white" fill-opacity="0.25"/>
<path d="M1775.75 247.539C1775.52 247.777 1775.33 248.032 1775.2 248.359C1775.09 248.409 1775 248.418 1774.88 248.467C1774.1 247.967 1772.81 248.066 1772.29 248.943C1771.1 250.967 1772.1 253.776 1774.62 253.84C1775.54 253.874 1776.31 253.428 1776.84 252.788C1778.43 252.858 1780.05 252.039 1780.76 250.532C1782.11 247.625 1777.68 245.665 1775.75 247.539Z" fill="white" fill-opacity="0.25"/>
<path d="M167.132 247.539C166.902 247.777 166.711 248.032 166.585 248.359C166.473 248.409 166.377 248.418 166.265 248.467C165.485 247.967 164.195 248.066 163.672 248.943C162.476 250.967 163.481 253.776 166.005 253.84C166.919 253.874 167.693 253.428 168.218 252.788C169.813 252.858 171.426 252.039 172.145 250.532C173.495 247.625 169.059 245.665 167.132 247.539Z" fill="white" fill-opacity="0.25"/>
<path d="M1858.98 380.598C1858.75 380.836 1858.56 381.09 1858.43 381.418C1858.32 381.467 1858.22 381.476 1858.11 381.526C1857.33 381.025 1856.04 381.124 1855.52 382.001C1854.32 384.026 1855.33 386.834 1857.85 386.898C1858.77 386.933 1859.54 386.487 1860.06 385.846C1861.66 385.917 1863.27 385.097 1863.99 383.59C1865.34 380.683 1860.91 378.723 1858.98 380.598Z" fill="white" fill-opacity="0.25"/>
<path d="M250.359 380.598C250.129 380.836 249.938 381.09 249.812 381.418C249.7 381.467 249.604 381.476 249.492 381.526C248.712 381.025 247.422 381.124 246.899 382.001C245.703 384.026 246.708 386.834 249.232 386.898C250.146 386.933 250.92 386.487 251.445 385.846C253.04 385.917 254.653 385.097 255.372 383.59C256.722 380.683 252.286 378.723 250.359 380.598Z" fill="white" fill-opacity="0.25"/>
<path d="M568.797 328.655C568.578 328.142 568.174 327.745 567.724 327.471C567.045 326.586 565.858 326.537 565.021 327.147L563.689 328.079C563.113 328.132 562.683 328.527 562.373 328.97L562.317 328.994C561.352 329.695 560.501 330.582 560.678 331.928C560.838 333.077 561.638 334.01 562.698 334.387C563.799 334.779 564.91 334.42 565.843 333.801C567.439 332.786 569.741 330.779 568.797 328.655Z" fill="white" fill-opacity="0.25"/>
<path d="M502.917 319.437C501.746 316.94 498.213 314.68 495.562 316.029C494.3 316.658 493.541 318.148 493.935 319.533C493.868 320.309 494.139 321.172 494.624 321.838C495.465 323.024 496.792 323.79 498.173 324.058C500.917 324.634 504.421 322.634 502.917 319.437Z" fill="white" fill-opacity="0.25"/>
<path d="M572.642 308.19C572.47 307.555 572.033 307.003 571.518 306.655C571.485 306.501 571.436 306.387 571.387 306.273C570.876 305.313 570.134 304.592 569.226 304.182C568.798 303.728 568.171 303.431 567.547 303.606C567.395 303.64 567.227 303.715 567.075 303.748C565.882 303.838 564.732 304.418 563.931 305.656C562.511 307.78 563.369 310.247 565.086 311.687C565.157 312.707 565.965 313.738 567.246 313.541C567.59 313.49 567.99 313.414 568.35 313.321C568.92 313.407 569.543 313.231 570.014 312.853C570.702 312.75 571.397 312.508 571.972 312.219C573.489 311.408 573.588 309.465 572.642 308.19Z" fill="white" fill-opacity="0.25"/>
<path d="M457.6 337.835C457.425 336.726 456.609 335.834 455.605 335.433C453.476 334.583 451.667 336.032 450.436 337.664C449.792 338.493 449.985 339.798 450.815 340.412C451 340.533 451.145 340.639 451.361 340.678C451.775 341.409 452.484 341.976 453.326 342.076C454.385 342.215 455.447 341.743 456.236 341.019C457.12 340.286 457.809 339.098 457.6 337.835Z" fill="white" fill-opacity="0.25"/>
<path d="M404.037 131.689C403.817 131.177 403.414 130.78 402.963 130.505C402.284 129.62 401.098 129.572 400.261 130.181L398.929 131.113C398.352 131.166 397.922 131.561 397.613 132.004L397.557 132.029C396.592 132.729 395.741 133.617 395.918 134.962C396.078 136.112 396.878 137.045 397.938 137.421C399.038 137.813 400.15 137.454 401.083 136.836C402.679 135.82 404.981 133.813 404.037 131.689Z" fill="white" fill-opacity="0.25"/>
<path d="M338.156 122.472C336.985 119.974 333.452 117.714 330.801 119.063C329.539 119.692 328.78 121.183 329.174 122.568C329.107 123.343 329.377 124.207 329.863 124.873C330.704 126.058 332.031 126.824 333.411 127.092C336.156 127.669 339.66 125.669 338.156 122.472Z" fill="white" fill-opacity="0.25"/>
<path d="M416.43 196.309C414.778 194.942 412.471 193.831 410.426 194.809C409.46 195.273 409.075 196.394 409.434 197.387C409.083 197.577 408.78 197.881 408.551 198.356C407.636 200.493 408.711 202.999 410.721 204.038C412.811 205.109 415.298 204.308 416.858 202.664C418.775 200.692 418.525 198.09 416.43 196.309ZM412.468 200.581C412.348 200.533 412.299 200.419 412.194 200.33C412.194 200.33 412.194 200.33 412.154 200.314C412.612 200.45 413.132 200.421 413.66 200.255C413.333 200.502 412.91 200.758 412.468 200.581Z" fill="white" fill-opacity="0.25"/>
<path d="M335.593 197.17C335.151 194.586 332.214 192.705 330.015 194.565C329.728 194.828 329.481 195.108 329.291 195.362C328.602 195.465 328.045 195.95 327.713 196.573C326.471 198.957 327.863 202.203 330.336 203.002C331.87 203.473 333.462 201.985 334.448 200.868C335.291 199.882 335.827 198.491 335.593 197.17Z" fill="white" fill-opacity="0.25"/>
<path d="M463.751 269.164C462.823 268.322 461.587 267.922 460.412 268.445C459.462 268.868 458.804 269.974 458.915 271.01C458.389 272.499 458.464 274.229 459.578 275.429C461.249 277.229 464.286 277.167 465.391 274.776C466.308 272.876 465.226 270.508 463.751 269.164Z" fill="white" fill-opacity="0.25"/>
<path d="M506.161 183.657C505.73 183.815 505.387 184.103 505.069 184.448C504.154 184.177 503.074 184.454 502.423 185.421C501.416 186.955 502.325 188.687 503.486 189.764C505.784 191.862 509.764 191.515 510.857 188.317C511.919 185.436 509.022 182.486 506.161 183.657Z" fill="white" fill-opacity="0.25"/>
<path d="M388.324 170.829C387.945 169.167 386.472 168.296 385.01 167.759C384.408 167.518 383.815 167.612 383.377 167.909C382.539 166.111 379.387 166.835 379.707 169.135C379.984 170.945 380.437 172.778 381.792 174.074C383.018 175.225 384.799 175.653 386.356 174.859C387.818 174.073 388.68 172.434 388.324 170.829Z" fill="white" fill-opacity="0.25"/>
<path d="M474.982 217.943C474.534 216.819 473.414 215.995 472.197 216.028C471.444 216.058 470.669 216.504 470.08 217.071C468.534 217.115 466.98 218.382 466.879 220.089C466.807 221.24 467.432 222.387 468.366 223.09C469.421 223.842 470.639 223.809 471.806 223.425C473.98 222.594 476.017 220.433 474.982 217.943Z" fill="white" fill-opacity="0.25"/>
<path d="M407.881 111.225C407.709 110.589 407.272 110.037 406.757 109.69C406.724 109.535 406.675 109.421 406.626 109.307C406.115 108.348 405.373 107.627 404.464 107.217C404.037 106.763 403.41 106.465 402.786 106.641C402.634 106.675 402.466 106.749 402.314 106.783C401.121 106.873 399.971 107.452 399.17 108.691C397.75 110.814 398.608 113.281 400.325 114.722C400.396 115.742 401.204 116.773 402.485 116.576C402.829 116.525 403.229 116.448 403.589 116.356C404.158 116.442 404.782 116.266 405.252 115.887C405.941 115.785 406.636 115.543 407.211 115.253C408.728 114.443 408.827 112.5 407.881 111.225Z" fill="white" fill-opacity="0.25"/>
<path d="M756.064 36.0222C755.892 35.3868 755.455 34.8348 754.94 34.4875C754.907 34.3326 754.858 34.2187 754.809 34.1048C754.298 33.1453 753.556 32.4241 752.648 32.0142C752.22 31.5602 751.593 31.2626 750.969 31.4384C750.817 31.4721 750.649 31.5467 750.497 31.5804C749.304 31.6704 748.154 32.2498 747.353 33.4879C745.933 35.6118 746.791 38.0788 748.508 39.5195C748.579 40.5393 749.387 41.5701 750.668 41.3734C751.012 41.322 751.412 41.2458 751.772 41.1534C752.341 41.2392 752.965 41.0634 753.435 40.6847C754.124 40.5819 754.819 40.3403 755.394 40.0506C756.911 39.2401 757.01 37.2969 756.064 36.0222Z" fill="white" fill-opacity="0.25"/>
<path d="M480.041 148.442C479.906 146.264 478.059 144.44 476.202 143.604C472.826 142.02 469.134 145.833 469.605 149.184C468.747 150.211 468.613 151.762 469.631 152.971C471.165 154.764 474.279 154.261 476.213 153.57C478.412 152.795 480.178 150.857 480.041 148.442Z" fill="white" fill-opacity="0.25"/>
<path d="M461.521 32.7234C461.386 30.5451 459.539 28.7216 457.682 27.8858C454.306 26.3016 450.614 30.1147 451.085 33.466C450.227 34.4923 450.093 36.044 451.111 37.253C452.646 39.046 455.759 38.5426 457.694 37.8516C459.892 37.0771 461.658 35.1384 461.521 32.7234Z" fill="white" fill-opacity="0.25"/>
<path d="M292.839 140.869C292.663 139.76 291.848 138.868 290.844 138.467C288.714 137.617 286.905 139.066 285.674 140.699C285.031 141.528 285.224 142.832 286.053 143.447C286.239 143.568 286.384 143.673 286.6 143.712C287.014 144.444 287.723 145.01 288.565 145.11C289.623 145.25 290.686 144.777 291.474 144.053C292.359 143.321 293.048 142.132 292.839 140.869Z" fill="white" fill-opacity="0.25"/>
<path d="M641.022 65.6656C640.846 64.5568 640.031 63.6648 639.026 63.2638C636.897 62.4136 635.088 63.8627 633.857 65.4956C633.214 66.3244 633.407 67.6289 634.236 68.2434C634.422 68.3645 634.566 68.4696 634.783 68.5089C635.197 69.2405 635.906 69.8069 636.748 69.9071C637.806 70.0465 638.869 69.5739 639.657 68.8501C640.542 68.1175 641.231 66.9292 641.022 65.6656Z" fill="white" fill-opacity="0.25"/>
<path d="M342.899 205.281C342.669 205.52 342.478 205.774 342.352 206.101C342.24 206.151 342.144 206.16 342.032 206.21C341.252 205.709 339.962 205.808 339.439 206.685C338.243 208.709 339.248 211.518 341.772 211.582C342.686 211.616 343.46 211.17 343.985 210.53C345.58 210.6 347.193 209.781 347.912 208.274C349.262 205.367 344.826 203.407 342.899 205.281Z" fill="white" fill-opacity="0.25"/>
<path d="M691.082 130.078C690.852 130.316 690.661 130.571 690.535 130.898C690.423 130.948 690.327 130.957 690.215 131.006C689.435 130.506 688.145 130.605 687.622 131.482C686.426 133.506 687.431 136.315 689.955 136.379C690.869 136.413 691.643 135.967 692.168 135.327C693.763 135.397 695.376 134.578 696.095 133.071C697.445 130.164 693.009 128.204 691.082 130.078Z" fill="white" fill-opacity="0.25"/>
<path d="M1387.62 22.4861C1387.4 21.9735 1387 21.5764 1386.55 21.3021C1385.87 20.4172 1384.69 20.3684 1383.85 20.9782L1382.52 21.9099C1381.94 21.9629 1381.51 22.3577 1381.2 22.8006L1381.14 22.8255C1380.18 23.526 1379.33 24.4134 1379.51 25.7589C1379.67 26.9086 1380.46 27.8415 1381.53 28.2177C1382.63 28.6099 1383.74 28.2511 1384.67 27.6324C1386.27 26.6173 1388.57 24.6097 1387.62 22.4861Z" fill="white" fill-opacity="0.25"/>
<path d="M836.117 51.6287C835.898 51.1161 835.494 50.719 835.044 50.4446C834.365 49.5598 833.178 49.511 832.341 50.1208L831.009 51.0525C830.433 51.1055 830.003 51.5003 829.693 51.9432L829.637 51.968C828.672 52.6686 827.821 53.556 827.998 54.9015C828.158 56.0511 828.958 56.9841 830.018 57.3603C831.119 57.7525 832.23 57.3937 833.163 56.775C834.759 55.7599 837.061 53.7523 836.117 51.6287Z" fill="white" fill-opacity="0.25"/>
<path d="M1400.02 87.1057C1398.36 85.738 1396.06 84.6279 1394.01 85.6053C1393.05 86.0692 1392.66 87.19 1393.02 88.1832C1392.67 88.3734 1392.37 88.6775 1392.14 89.1525C1391.22 91.2891 1392.3 93.7954 1394.31 94.8341C1396.4 95.905 1398.88 95.104 1400.44 93.4607C1402.36 91.4884 1402.11 88.8866 1400.02 87.1057ZM1396.06 91.3776C1395.93 91.3295 1395.89 91.2156 1395.78 91.1265C1395.78 91.1265 1395.78 91.1265 1395.74 91.1105C1396.2 91.246 1396.72 91.2179 1397.25 91.0509C1396.92 91.2981 1396.5 91.5541 1396.06 91.3776Z" fill="white" fill-opacity="0.25"/>
<path d="M1663.75 87.4626C1662.1 86.0949 1659.8 84.9848 1657.75 85.9622C1656.78 86.4261 1656.4 87.5469 1656.76 88.5401C1656.41 88.7303 1656.11 89.0344 1655.88 89.5094C1654.96 91.6461 1656.04 94.1523 1658.05 95.1911C1660.14 96.2619 1662.62 95.4609 1664.18 93.8176C1666.1 91.8453 1665.85 89.2435 1663.75 87.4626ZM1659.79 91.7345C1659.67 91.6864 1659.62 91.5725 1659.52 91.4835C1659.52 91.4835 1659.52 91.4835 1659.48 91.4674C1659.94 91.603 1660.46 91.5748 1660.99 91.4079C1660.66 91.655 1660.24 91.911 1659.79 91.7345Z" fill="white" fill-opacity="0.25"/>
<path d="M55.1349 87.4626C53.483 86.0949 51.1758 84.9848 49.1311 85.9622C48.1647 86.4261 47.7796 87.5469 48.1389 88.5401C47.7876 88.7303 47.4852 89.0344 47.256 89.5094C46.341 91.6461 47.4157 94.1523 49.4259 95.1911C51.5166 96.2619 54.0032 95.4609 55.5626 93.8176C57.4803 91.8453 57.2304 89.2435 55.1349 87.4626ZM51.1734 91.7345C51.0529 91.6864 51.004 91.5725 50.8993 91.4835C50.8993 91.4835 50.8993 91.4835 50.8591 91.4674C51.3168 91.603 51.8374 91.5748 52.3651 91.4079C52.0383 91.655 51.6153 91.911 51.1734 91.7345Z" fill="white" fill-opacity="0.25"/>
<path d="M1592.31 37.9177C1590.66 36.55 1588.35 35.4399 1586.31 36.4173C1585.34 36.8812 1584.96 38.002 1585.32 38.9952C1584.97 39.1854 1584.66 39.4895 1584.44 39.9645C1583.52 42.1011 1584.59 44.6074 1586.61 45.6461C1588.7 46.717 1591.18 45.916 1592.74 44.2727C1594.66 42.3004 1594.41 39.6986 1592.31 37.9177ZM1588.35 42.1896C1588.23 42.1415 1588.18 42.0276 1588.08 41.9385C1588.08 41.9385 1588.08 41.9385 1588.04 41.9225C1588.5 42.058 1589.02 42.0299 1589.54 41.863C1589.22 42.1101 1588.79 42.3661 1588.35 42.1896Z" fill="white" fill-opacity="0.25"/>
<path d="M1705.19 149.463C1703.54 148.095 1701.23 146.985 1699.19 147.962C1698.22 148.426 1697.84 149.547 1698.2 150.54C1697.84 150.73 1697.54 151.034 1697.31 151.509C1696.4 153.646 1697.47 156.152 1699.48 157.191C1701.57 158.262 1704.06 157.461 1705.62 155.818C1707.54 153.845 1707.29 151.243 1705.19 149.463ZM1701.23 153.735C1701.11 153.686 1701.06 153.573 1700.96 153.483C1700.96 153.483 1700.96 153.483 1700.92 153.467C1701.37 153.603 1701.89 153.575 1702.42 153.408C1702.1 153.655 1701.67 153.911 1701.23 153.735Z" fill="white" fill-opacity="0.25"/>
<path d="M96.5719 149.463C94.92 148.095 92.6128 146.985 90.5681 147.962C89.6017 148.426 89.2166 149.547 89.5759 150.54C89.2246 150.73 88.9222 151.034 88.6931 151.509C87.778 153.646 88.8527 156.152 90.863 157.191C92.9536 158.262 95.4402 157.461 96.9996 155.818C98.9174 153.845 98.6674 151.244 96.5719 149.463ZM92.6104 153.735C92.4899 153.686 92.4411 153.573 92.3363 153.483C92.3363 153.483 92.3363 153.483 92.2961 153.467C92.7538 153.603 93.2744 153.575 93.8021 153.408C93.4753 153.655 93.0523 153.911 92.6104 153.735Z" fill="white" fill-opacity="0.25"/>
<path d="M848.51 116.249C846.858 114.881 844.551 113.771 842.506 114.748C841.54 115.212 841.155 116.333 841.514 117.326C841.163 117.516 840.86 117.821 840.631 118.296C839.716 120.432 840.791 122.938 842.801 123.977C844.892 125.048 847.378 124.247 848.938 122.604C850.856 120.631 850.606 118.03 848.51 116.249ZM844.549 120.521C844.428 120.473 844.379 120.359 844.274 120.27C844.274 120.27 844.274 120.27 844.234 120.254C844.692 120.389 845.213 120.361 845.74 120.194C845.413 120.441 844.99 120.697 844.549 120.521Z" fill="white" fill-opacity="0.25"/>
<path d="M1319.18 87.9673C1318.74 85.383 1315.8 83.5019 1313.6 85.362C1313.32 85.6252 1313.07 85.9044 1312.88 86.1588C1312.19 86.2616 1311.63 86.747 1311.3 87.3697C1310.06 89.7535 1311.45 93.0003 1313.92 93.7992C1315.46 94.2699 1317.05 92.7815 1318.04 91.6645C1318.88 90.6792 1319.41 89.2879 1319.18 87.9673Z" fill="white" fill-opacity="0.25"/>
<path d="M767.673 117.11C767.231 114.526 764.294 112.645 762.095 114.505C761.808 114.768 761.561 115.047 761.371 115.301C760.682 115.404 760.125 115.89 759.793 116.512C758.551 118.896 759.943 122.143 762.416 122.942C763.95 123.413 765.542 121.924 766.528 120.807C767.371 119.822 767.907 118.43 767.673 117.11Z" fill="white" fill-opacity="0.25"/>
<path d="M645.338 248.671C644.895 246.087 641.958 244.206 639.759 246.066C639.472 246.329 639.226 246.609 639.035 246.863C638.347 246.966 637.789 247.451 637.457 248.074C636.215 250.458 637.607 253.704 640.081 254.503C641.614 254.974 643.207 253.486 644.193 252.369C645.035 251.383 645.571 249.992 645.338 248.671Z" fill="white" fill-opacity="0.25"/>
<path d="M324.695 339.671C324.252 337.087 321.315 335.206 319.116 337.066C318.829 337.329 318.583 337.609 318.392 337.863C317.704 337.966 317.146 338.451 316.814 339.074C315.572 341.458 316.964 344.704 319.437 345.503C320.971 345.974 322.564 344.486 323.55 343.369C324.392 342.383 324.928 340.992 324.695 339.671Z" fill="white" fill-opacity="0.25"/>
<path d="M527.933 74.6714C527.491 72.0871 524.553 70.206 522.354 72.0661C522.068 72.3293 521.821 72.6085 521.631 72.8629C520.942 72.9657 520.385 73.4511 520.052 74.0738C518.81 76.4576 520.202 79.7044 522.676 80.5033C524.21 80.974 525.802 79.4856 526.788 78.3686C527.631 77.3833 528.166 75.992 527.933 74.6714Z" fill="white" fill-opacity="0.25"/>
<path d="M1074.36 32.9119C1073.43 32.0696 1072.19 31.6702 1071.02 32.1926C1070.07 32.6156 1069.41 33.722 1069.52 34.7578C1068.99 36.247 1069.07 37.9767 1070.18 39.1769C1071.85 40.9771 1074.89 40.9149 1076 38.5239C1076.91 36.6239 1075.83 34.2564 1074.36 32.9119Z" fill="white" fill-opacity="0.25"/>
<path d="M1371.91 61.6259C1371.53 59.9636 1370.06 59.0924 1368.6 58.5558C1367.99 58.3152 1367.4 58.4092 1366.96 58.7061C1366.13 56.9082 1362.97 57.6322 1363.29 59.9317C1363.57 61.7417 1364.02 63.5749 1365.38 64.8713C1366.6 66.0217 1368.39 66.4499 1369.94 65.6555C1371.4 64.8698 1372.27 63.2314 1371.91 61.6259Z" fill="white" fill-opacity="0.25"/>
<path d="M1193.55 48.8261C1193.17 47.1638 1191.69 46.2926 1190.23 45.756C1189.63 45.5154 1189.04 45.6093 1188.6 45.9063C1187.76 44.1083 1184.61 44.8324 1184.93 47.1318C1185.2 48.9419 1185.66 50.7751 1187.01 52.0715C1188.24 53.2219 1190.02 53.6501 1191.58 52.8557C1193.04 52.07 1193.9 50.4316 1193.55 48.8261Z" fill="white" fill-opacity="0.25"/>
<path d="M820.405 90.7685C820.025 89.1061 818.553 88.235 817.091 87.6984C816.488 87.4578 815.896 87.5517 815.457 87.8486C814.619 86.0507 811.467 86.7748 811.787 89.0742C812.064 90.8842 812.517 92.7175 813.872 94.0139C815.098 95.1643 816.88 95.5925 818.437 94.798C819.898 94.0124 820.76 92.3739 820.405 90.7685Z" fill="white" fill-opacity="0.25"/>
<path d="M1463.63 39.2388C1463.49 37.0606 1461.65 35.2371 1459.79 34.4013C1456.41 32.8172 1452.72 36.6302 1453.19 39.9814C1452.33 41.0076 1452.2 42.5593 1453.22 43.7683C1454.75 45.5612 1457.87 45.0578 1459.8 44.3668C1462 43.5923 1463.77 41.6537 1463.63 39.2388Z" fill="white" fill-opacity="0.25"/>
<path d="M1727.37 39.5952C1727.23 37.417 1725.38 35.5936 1723.53 34.7578C1720.15 33.1736 1716.46 36.9866 1716.93 40.3378C1716.07 41.3641 1715.94 42.9157 1716.96 44.1247C1718.49 45.9177 1721.61 45.4143 1723.54 44.7232C1725.74 43.9488 1727.5 42.0102 1727.37 39.5952Z" fill="white" fill-opacity="0.25"/>
<path d="M118.747 39.5952C118.612 37.417 116.765 35.5936 114.908 34.7578C111.532 33.1736 107.84 36.9866 108.311 40.3378C107.453 41.3641 107.319 42.9157 108.337 44.1247C109.872 45.9177 112.985 45.4143 114.92 44.7232C117.118 43.9488 118.884 42.0102 118.747 39.5952Z" fill="white" fill-opacity="0.25"/>
<path d="M1768.8 101.595C1768.67 99.417 1766.82 97.5936 1764.97 96.7578C1761.59 95.1736 1757.9 98.9866 1758.37 102.338C1757.51 103.364 1757.38 104.916 1758.39 106.125C1759.93 107.918 1763.04 107.414 1764.98 106.723C1767.17 105.949 1768.94 104.01 1768.8 101.595Z" fill="white" fill-opacity="0.25"/>
<path d="M160.184 101.595C160.049 99.417 158.202 97.5936 156.345 96.7578C152.969 95.1736 149.277 98.9866 149.748 102.338C148.89 103.364 148.756 104.916 149.774 106.125C151.308 107.918 154.422 107.414 156.357 106.723C158.555 105.949 160.321 104.01 160.184 101.595Z" fill="white" fill-opacity="0.25"/>
<path d="M912.122 68.3814C911.987 66.2031 910.14 64.3797 908.283 63.5439C904.907 61.9598 901.215 65.7728 901.686 69.1239C900.828 70.1502 900.694 71.7019 901.712 72.9108C903.247 74.7038 906.36 74.2004 908.295 73.5094C910.493 72.7349 912.259 70.7963 912.122 68.3814Z" fill="white" fill-opacity="0.25"/>
<path d="M1326.49 96.0781C1326.26 96.3164 1326.07 96.5707 1325.94 96.8981C1325.83 96.9479 1325.73 96.9567 1325.62 97.0065C1324.84 96.5059 1323.55 96.6047 1323.03 97.4817C1321.83 99.5061 1322.84 102.315 1325.36 102.379C1326.27 102.413 1327.05 101.967 1327.57 101.327C1329.17 101.397 1330.78 100.578 1331.5 99.0709C1332.85 96.164 1328.41 94.2036 1326.49 96.0781Z" fill="white" fill-opacity="0.25"/>
<path d="M774.98 125.221C774.749 125.459 774.559 125.713 774.433 126.041C774.321 126.09 774.225 126.099 774.113 126.149C773.332 125.648 772.043 125.747 771.52 126.624C770.324 128.649 771.328 131.458 773.853 131.521C774.767 131.556 775.541 131.11 776.065 130.469C777.66 130.54 779.274 129.72 779.993 128.214C781.343 125.307 776.907 123.346 774.98 125.221Z" fill="white" fill-opacity="0.25"/>
<path d="M529.049 252.598C528.818 252.836 528.627 253.09 528.501 253.418C528.39 253.467 528.294 253.476 528.182 253.526C527.401 253.025 526.112 253.124 525.589 254.001C524.393 256.026 525.397 258.834 527.922 258.898C528.835 258.933 529.61 258.487 530.134 257.846C531.729 257.917 533.342 257.097 534.061 255.59C535.412 252.683 530.975 250.723 529.049 252.598Z" fill="white" fill-opacity="0.25"/>
<path d="M685.044 192.393C684.824 191.88 684.42 191.483 683.97 191.208C683.291 190.324 682.105 190.275 681.267 190.885L679.935 191.816C679.359 191.869 678.929 192.264 678.619 192.707L678.563 192.732C677.599 193.432 676.747 194.32 676.925 195.665C677.085 196.815 677.884 197.748 678.944 198.124C680.045 198.517 681.156 198.158 682.09 197.539C683.685 196.524 685.987 194.516 685.044 192.393Z" fill="white" fill-opacity="0.25"/>
<path d="M1475.9 331.76C1474.97 330.917 1473.74 330.518 1472.56 331.04C1471.61 331.463 1470.95 332.57 1471.07 333.605C1470.54 335.095 1470.61 336.824 1471.73 338.025C1473.4 339.825 1476.44 339.763 1477.54 337.372C1478.46 335.472 1477.38 333.104 1475.9 331.76Z" fill="white" fill-opacity="0.25"/>
<path d="M1176.96 333.76C1176.04 332.917 1174.8 332.518 1173.62 333.04C1172.67 333.463 1172.02 334.57 1172.13 335.605C1171.6 337.095 1171.68 338.824 1172.79 340.025C1174.46 341.825 1177.5 341.763 1178.6 339.372C1179.52 337.472 1178.44 335.104 1176.96 333.76Z" fill="white" fill-opacity="0.25"/>
<path d="M1444.33 291.76C1443.4 290.917 1442.17 290.518 1440.99 291.04C1440.04 291.463 1439.38 292.57 1439.49 293.605C1438.97 295.095 1439.04 296.824 1440.16 298.025C1441.83 299.825 1444.87 299.763 1445.97 297.372C1446.89 295.472 1445.81 293.104 1444.33 291.76Z" fill="white" fill-opacity="0.25"/>
<path d="M982.216 22.9878C981.785 23.1459 981.442 23.434 981.124 23.779C980.209 23.5079 979.129 23.7848 978.478 24.7525C977.471 26.2859 978.38 28.018 979.541 29.0954C981.839 31.1932 985.819 30.847 986.911 27.6479C987.974 24.7675 985.077 21.8168 982.216 22.9878Z" fill="white" fill-opacity="0.25"/>
<path d="M699.292 209.595C699.157 207.417 697.31 205.594 695.453 204.758C692.077 203.174 688.385 206.987 688.856 210.338C687.998 211.364 687.864 212.916 688.882 214.125C690.417 215.918 693.53 215.415 695.465 214.724C697.663 213.949 699.429 212.01 699.292 209.595Z" fill="white" fill-opacity="0.25"/>
<path d="M1597.25 336.918C1595.59 335.55 1593.29 334.44 1591.24 335.417C1590.28 335.881 1589.89 337.002 1590.25 337.995C1589.9 338.186 1589.6 338.49 1589.37 338.965C1588.45 341.101 1589.53 343.608 1591.54 344.647C1593.63 345.717 1596.12 344.916 1597.67 343.273C1599.59 341.301 1599.34 338.699 1597.25 336.918ZM1593.29 341.19C1593.16 341.142 1593.12 341.028 1593.01 340.939C1593.01 340.939 1593.01 340.939 1592.97 340.923C1593.43 341.058 1593.95 341.03 1594.48 340.863C1594.15 341.11 1593.73 341.366 1593.29 341.19Z" fill="white" fill-opacity="0.25"/>
<path d="M1412.91 243.671C1412.47 241.087 1409.53 239.206 1407.33 241.066C1407.04 241.329 1406.8 241.609 1406.61 241.863C1405.92 241.966 1405.36 242.451 1405.03 243.074C1403.79 245.458 1405.18 248.704 1407.65 249.503C1409.19 249.974 1410.78 248.486 1411.76 247.369C1412.61 246.383 1413.14 244.992 1412.91 243.671Z" fill="white" fill-opacity="0.25"/>
<path d="M1676.65 244.028C1676.2 241.444 1673.27 239.563 1671.07 241.423C1670.78 241.686 1670.53 241.965 1670.34 242.22C1669.66 242.323 1669.1 242.808 1668.77 243.431C1667.52 245.815 1668.92 249.061 1671.39 249.86C1672.92 250.331 1674.52 248.842 1675.5 247.726C1676.34 246.74 1676.88 245.349 1676.65 244.028Z" fill="white" fill-opacity="0.25"/>
<path d="M68.0269 244.028C67.5847 241.444 64.6473 239.563 62.4483 241.423C62.1616 241.686 61.9151 241.965 61.7245 242.22C61.0361 242.323 60.4785 242.808 60.1461 243.431C58.9042 245.815 60.2964 249.061 62.7698 249.86C64.3035 250.331 65.896 248.842 66.882 247.726C67.7247 246.74 68.2602 245.349 68.0269 244.028Z" fill="white" fill-opacity="0.25"/>
<path d="M1718.08 306.028C1717.64 303.444 1714.7 301.563 1712.51 303.423C1712.22 303.686 1711.97 303.965 1711.78 304.22C1711.09 304.323 1710.54 304.808 1710.2 305.431C1708.96 307.815 1710.35 311.061 1712.83 311.86C1714.36 312.331 1715.95 310.842 1716.94 309.726C1717.78 308.74 1718.32 307.349 1718.08 306.028Z" fill="white" fill-opacity="0.25"/>
<path d="M109.464 306.028C109.022 303.444 106.084 301.563 103.885 303.423C103.598 303.686 103.352 303.965 103.161 304.22C102.473 304.323 101.915 304.808 101.583 305.431C100.341 307.815 101.733 311.061 104.207 311.86C105.74 312.331 107.333 310.842 108.319 309.726C109.162 308.74 109.697 307.349 109.464 306.028Z" fill="white" fill-opacity="0.25"/>
<path d="M1826.29 348.671C1825.85 346.087 1822.91 344.206 1820.71 346.066C1820.43 346.329 1820.18 346.609 1819.99 346.863C1819.3 346.966 1818.74 347.451 1818.41 348.074C1817.17 350.458 1818.56 353.704 1821.03 354.503C1822.57 354.974 1824.16 353.486 1825.15 352.369C1825.99 351.383 1826.53 349.992 1826.29 348.671Z" fill="white" fill-opacity="0.25"/>
<path d="M217.672 348.671C217.23 346.087 214.293 344.206 212.094 346.066C211.807 346.329 211.56 346.609 211.37 346.863C210.681 346.966 210.124 347.451 209.792 348.074C208.55 350.458 209.942 353.704 212.415 354.503C213.949 354.974 215.541 353.486 216.527 352.369C217.37 351.383 217.906 349.992 217.672 348.671Z" fill="white" fill-opacity="0.25"/>
<path d="M1531.43 295.598C1531.2 295.836 1531.01 296.09 1530.88 296.418C1530.77 296.467 1530.67 296.476 1530.56 296.526C1529.78 296.025 1528.49 296.124 1527.97 297.001C1526.77 299.026 1527.78 301.834 1530.3 301.898C1531.22 301.933 1531.99 301.487 1532.52 300.846C1534.11 300.917 1535.72 300.097 1536.44 298.59C1537.79 295.683 1533.36 293.723 1531.43 295.598Z" fill="white" fill-opacity="0.25"/>
<path d="M1247.29 339.598C1247.06 339.836 1246.87 340.09 1246.74 340.418C1246.63 340.467 1246.53 340.476 1246.42 340.526C1245.64 340.025 1244.35 340.124 1243.83 341.001C1242.63 343.026 1243.64 345.834 1246.16 345.898C1247.08 345.933 1247.85 345.487 1248.38 344.846C1249.97 344.917 1251.58 344.097 1252.3 342.59C1253.65 339.683 1249.22 337.723 1247.29 339.598Z" fill="white" fill-opacity="0.25"/>
<path d="M1275.77 47.8831C1275.33 45.299 1272.39 43.418 1270.19 45.2779C1269.9 45.5411 1269.66 45.8203 1269.47 46.0747C1268.78 46.1774 1268.22 46.6629 1267.89 47.2855C1266.65 49.6693 1268.04 52.916 1270.51 53.7147C1272.05 54.1855 1273.64 52.6971 1274.63 51.5802C1275.47 50.5949 1276 49.2036 1275.77 47.8831Z" fill="white" fill-opacity="0.25"/>
<path d="M506.077 183.657C505.645 183.815 505.302 184.103 504.984 184.448C504.069 184.177 502.989 184.454 502.339 185.421C501.331 186.955 502.241 188.687 503.402 189.764C505.7 191.862 509.68 191.515 510.772 188.317C511.834 185.436 508.937 182.486 506.077 183.657Z" fill="white" fill-opacity="0.25"/>
<path d="M364.566 42.8744C364.394 42.239 363.957 41.687 363.442 41.3397C363.409 41.1848 363.36 41.0709 363.311 40.957C362.8 39.9974 362.058 39.2762 361.15 38.8663C360.722 38.4123 360.095 38.1147 359.471 38.2905C359.319 38.3242 359.151 38.3988 358.999 38.4325C357.806 38.5225 356.656 39.102 355.855 40.3401C354.435 42.464 355.293 44.9311 357.01 46.3719C357.081 47.3917 357.889 48.4226 359.17 48.2259C359.514 48.1745 359.914 48.0982 360.274 48.0059C360.844 48.0917 361.467 47.9159 361.938 47.5371C362.626 47.4344 363.321 47.1928 363.896 46.9031C365.413 46.0925 365.512 44.1492 364.566 42.8744Z" fill="white" fill-opacity="0.25"/>
<path d="M292.754 140.869C292.578 139.76 291.763 138.868 290.759 138.467C288.629 137.617 286.82 139.066 285.589 140.699C284.946 141.528 285.139 142.832 285.969 143.447C286.154 143.568 286.299 143.673 286.515 143.712C286.929 144.444 287.638 145.01 288.48 145.11C289.539 145.25 290.601 144.777 291.389 144.053C292.274 143.321 292.963 142.132 292.754 140.869Z" fill="white" fill-opacity="0.25"/>
<path d="M685.421 337.922C685.245 336.813 684.43 335.921 683.425 335.52C681.296 334.669 679.487 336.119 678.256 337.752C677.613 338.581 677.806 339.885 678.635 340.5C678.82 340.621 678.965 340.726 679.182 340.765C679.596 341.497 680.304 342.063 681.147 342.163C682.205 342.303 683.268 341.83 684.056 341.106C684.941 340.374 685.63 339.185 685.421 337.922Z" fill="white" fill-opacity="0.25"/>
<path d="M701.703 276.598C701.472 276.836 701.282 277.09 701.156 277.418C701.044 277.467 700.948 277.476 700.836 277.526C700.055 277.025 698.766 277.124 698.243 278.001C697.047 280.026 698.051 282.834 700.576 282.898C701.49 282.933 702.264 282.487 702.788 281.846C704.383 281.917 705.996 281.097 706.715 279.59C708.066 276.683 703.629 274.723 701.703 276.598Z" fill="white" fill-opacity="0.25"/>
<path d="M579.307 208.344C579.521 207.645 579.569 206.837 579.7 206.083C579.843 203.295 578.836 200.46 577.232 198.187C576.014 196.413 574.498 194.92 572.927 193.511C571.467 192.296 569.621 190.583 567.783 189.956C567.179 189.794 566.659 189.687 566.112 189.803L565.976 189.832C565.976 189.832 565.921 189.916 566.004 189.971C566.581 193.84 566.64 197.965 565.712 201.791C565.712 201.791 565.658 201.875 565.74 201.93C565.74 201.93 565.823 201.985 565.905 202.04C566.318 202.316 566.622 202.759 566.79 203.232C567.518 205.4 566.141 207.724 564.37 208.825C562.546 210.011 560.221 210.141 558.087 210.158C558.443 210.155 559.778 205.88 559.883 205.349C560.39 203.645 560.897 201.941 561.185 200.21C561.897 196.721 562.17 193.179 562.142 189.555C562.01 182.979 561.166 176.407 558.628 170.268C557.903 168.462 556.959 166.63 555.906 164.966C550.725 156.701 542.516 153.143 533.498 151.209C532.539 151.049 531.39 151.002 530.601 151.678C530.547 151.762 530.357 151.875 530.22 151.904C530.083 151.933 529.947 151.962 529.864 151.906C523.206 150.705 517.125 149.89 510.704 151.251C504.967 152.467 499.461 155.159 495.251 159.318C494.898 159.683 494.545 160.048 494.246 160.329C493.595 160.976 492.971 161.761 492.402 162.462C491.753 163.471 490.671 165.152 490.293 165.74C489.86 166.413 489.456 167.224 488.969 167.981C485.542 174.224 484.121 181.565 484.148 188.673C482.336 187.823 480.549 186.75 478.952 185.565C477.521 184.489 476.17 183.106 475.527 181.355C474.884 179.604 475.169 177.512 476.555 176.274C478.078 175.008 480.269 175.269 481.931 174.336C482.121 174.223 482.449 174.081 482.611 173.829C482.827 173.493 482.907 173.186 483.041 172.794C483.835 169.36 485.122 165.893 486.685 162.731C486.981 162.088 487.96 161.299 487.9 160.659C487.864 159.433 486.088 159.809 485.186 159.928C482.724 160.087 480.376 160.802 478.085 161.796C469.741 165.598 458.573 175.805 463.551 186.217C464.832 188.994 467.116 190.76 469.672 192.105C475.092 195.964 480.808 199.179 486.849 201.891C491.415 212.028 502.307 219.299 511.891 223.654C519.827 227.27 528.819 229.428 537.507 227.659C543.381 226.413 548.173 223.365 551.808 219.183C554.571 219.105 557.388 218.943 560.066 218.448C561.27 218.41 562.528 218.289 563.785 218.167C566.984 217.78 570.208 217.169 572.96 215.641C575.986 214.056 578.456 211.5 579.307 208.344ZM490.725 182.851C490.936 181.79 491.064 180.674 491.275 179.613C491.381 179.083 491.486 178.552 491.674 178.077C492.254 178.825 492.59 179.77 492.57 180.718C492.524 181.889 491.653 182.509 490.725 182.851ZM541.279 219.964C533.728 223.815 524.765 221.796 517.273 218.957C509.863 216.173 502.55 211.772 496.897 206.075C504.608 208.94 512.507 211.33 520.407 213.72C527.62 215.892 535.516 217.919 543.459 218.776C542.75 219.144 541.987 219.596 541.279 219.964ZM534.674 200.896C536.43 201.467 537.075 203.58 536.816 205.45C534.403 204.8 531.99 204.15 529.577 203.501C530.63 201.681 532.398 200.217 534.674 200.896ZM542.41 207.022C543.251 202.416 541.735 197.439 537.122 195.441C531.494 193.005 525.913 196.729 523.709 201.987C518.718 200.577 513.727 199.168 508.79 197.674C503.25 196.018 497.519 194.475 491.95 192.68C491.401 192.433 490.769 192.132 490.22 191.885C490.104 190.966 490.124 190.019 490.061 189.016C493.915 188.344 498.03 186.165 498.378 181.591C498.649 177.687 496.652 174.191 493.732 171.761C497.154 164.794 502.809 160.038 509.633 157.865C509.394 158.787 509.511 159.706 509.9 160.567C510.265 161.651 511.036 162.286 512.134 162.779C512.436 162.86 512.82 162.996 513.093 162.938C514.874 163.287 516.866 162.574 517.948 160.893C518.813 159.548 518.745 157.821 517.832 156.49C521.662 156.404 525.635 157.013 529.613 158.347C530.984 158.782 532.103 158.327 532.698 157.403C542.563 159.303 549.688 164.179 553.158 174.186C556.122 182.412 556.527 192.415 554.486 200.905C553.797 203.809 552.752 206.716 551.294 209.348C548.608 208.756 545.481 207.75 542.41 207.022Z" fill="white" fill-opacity="0.5"/>
<path d="M549.205 176.113C550.251 169.722 543.806 164.339 538.644 162.094C538.255 161.233 537.484 160.598 536.197 160.581C533.653 160.685 530.859 160.261 528.628 161.895C526.152 163.727 524.728 167.222 524.506 170.318C523.984 177.179 529.999 183.597 536.333 185.303C542.283 186.872 548.211 182.058 549.205 176.113ZM537.079 179.193C534.089 178.157 530.421 174.507 530.396 171.246C530.385 169.797 530.755 168.122 532.007 167.276C533.069 166.543 534.165 166.673 535.314 166.72C535.619 167.163 536.06 167.578 536.691 167.879C538.64 168.7 541.639 170.822 542.695 172.849C544.555 176.373 540.756 180.445 537.079 179.193Z" fill="white" fill-opacity="0.5"/>
<path d="M524.959 179.512C524.701 177.897 523.571 176.903 522.254 176.384C521.124 175.389 519.536 175.291 518.395 176.331C516.955 177.653 515.819 179.418 516.382 181.476C517.002 183.812 519.475 185.102 521.686 184.416C523.789 183.897 525.36 181.822 524.959 179.512Z" fill="white" fill-opacity="0.5"/>
<path d="M1364.84 188.136C1364.54 187.734 1364.15 187.332 1363.75 187.131C1363.26 186.93 1362.76 186.83 1362.17 186.83L1355.76 187.634C1354.77 186.729 1353.79 185.423 1352.8 184.117C1352.6 183.815 1352.41 183.614 1352.11 183.313L1351.62 182.81C1350.93 182.006 1349.84 181.705 1348.85 182.006C1347.87 182.308 1347.08 183.112 1346.88 184.117L1345.7 190.247C1345.6 191.051 1343.82 191.553 1342.54 192.056L1342.34 192.156C1341.65 192.357 1341.06 192.558 1340.47 192.859L1339.78 193.161C1338.79 193.563 1338.2 194.568 1338.1 195.573C1338 196.678 1338.59 197.583 1339.48 198.186L1345.1 201.301C1345.2 202.105 1345.3 202.909 1345.4 203.612C1345.6 205.019 1345.8 206.225 1345.7 207.531C1345.7 207.632 1345.7 207.732 1345.7 207.833C1345.8 208.335 1345.99 208.838 1346.29 209.34C1346.78 209.943 1347.47 210.345 1348.26 210.345C1348.56 210.345 1348.85 210.345 1349.15 210.245C1349.54 210.144 1349.94 209.943 1350.33 209.642L1354.97 205.22L1356.45 205.522C1356.55 205.522 1356.75 205.522 1356.85 205.522C1357.24 205.522 1357.93 205.723 1358.52 205.924C1359.71 206.225 1361.28 206.727 1362.67 206.125C1362.86 206.024 1363.06 205.924 1363.26 205.823C1363.55 205.622 1363.85 205.321 1363.95 205.019C1365.13 203.713 1364.24 202.004 1363.46 200.597C1363.36 200.396 1363.16 200.095 1363.16 199.994L1361.68 196.779L1361.78 196.578C1361.88 196.377 1362.07 196.176 1362.17 195.874C1362.17 195.774 1362.27 195.673 1362.27 195.673C1362.57 195.07 1362.86 194.367 1363.36 193.764C1364.15 192.558 1364.84 191.252 1365.13 189.644C1365.13 188.94 1365.13 188.438 1364.84 188.136Z" fill="white" fill-opacity="0.5"/>
<path d="M1413.87 163.043C1413.77 162.541 1413.58 162.038 1413.28 161.636C1412.98 161.234 1412.49 160.933 1412 160.732L1405.88 158.823C1405.29 157.617 1404.89 156.009 1404.5 154.401C1404.4 154.099 1404.3 153.798 1404.2 153.396L1404.01 152.693C1403.71 151.688 1402.82 150.984 1401.84 150.783C1400.75 150.582 1399.76 151.085 1399.17 151.989L1395.72 157.114C1395.32 157.717 1393.55 157.617 1392.07 157.416H1391.87C1391.18 157.315 1390.49 157.315 1389.9 157.315H1389.21C1388.12 157.315 1387.23 157.918 1386.74 158.823C1386.25 159.827 1386.35 160.933 1387.04 161.737L1390.88 166.862C1390.69 167.666 1390.39 168.369 1390.29 169.073C1389.9 170.379 1389.6 171.686 1389.01 172.791C1389.01 172.891 1388.91 172.891 1388.91 172.992C1388.71 173.494 1388.71 174.097 1388.91 174.6C1389.11 175.303 1389.6 176.007 1390.29 176.308C1390.59 176.409 1390.88 176.509 1391.18 176.61C1391.57 176.71 1392.07 176.61 1392.46 176.509L1398.48 174.399L1399.66 175.303C1399.76 175.404 1399.86 175.404 1399.96 175.504C1400.36 175.705 1400.85 176.107 1401.34 176.509C1402.33 177.313 1403.61 178.418 1404.99 178.418C1405.19 178.418 1405.39 178.418 1405.58 178.318C1405.98 178.217 1406.27 178.117 1406.57 177.916C1408.15 177.213 1407.95 175.303 1407.85 173.695C1407.85 173.394 1407.85 173.193 1407.75 172.992L1407.66 169.475L1407.85 169.374C1408.05 169.274 1408.25 169.073 1408.45 168.872C1408.54 168.771 1408.54 168.771 1408.64 168.671C1409.14 168.168 1409.73 167.766 1410.32 167.364C1411.5 166.56 1412.69 165.656 1413.58 164.249C1413.87 163.948 1413.97 163.445 1413.87 163.043ZM1404.01 173.193C1404.01 173.494 1404.01 173.796 1404.1 174.097C1404.1 174.198 1404.1 174.198 1404.1 174.298C1403.81 174.097 1403.51 173.896 1403.41 173.695C1402.72 173.193 1402.13 172.59 1401.44 172.288L1399.96 171.183C1399.37 170.681 1398.48 170.58 1397.69 170.681C1397.59 170.681 1397.49 170.781 1397.4 170.781L1392.76 172.389C1393.05 171.585 1393.25 170.781 1393.45 169.877C1393.65 169.073 1393.84 168.269 1394.14 167.465C1394.24 167.063 1394.34 166.56 1394.24 166.158C1394.14 165.757 1393.94 165.254 1393.75 164.953L1390.69 160.933C1390.98 160.933 1391.18 160.933 1391.48 161.033C1393.84 161.234 1396.8 161.536 1398.38 159.124L1400.85 155.506C1401.34 157.416 1401.84 159.426 1402.82 161.134C1402.92 161.234 1403.02 161.435 1403.12 161.536C1403.41 161.837 1403.81 162.038 1404.2 162.239L1408.94 163.646C1408.64 163.847 1408.35 164.048 1408.15 164.249C1407.46 164.752 1406.67 165.254 1406.08 165.857C1405.88 166.058 1405.68 166.158 1405.49 166.259L1404.89 166.661C1404.2 167.163 1403.71 168.068 1403.71 168.972L1404.01 173.193Z" fill="#00A99D"/>
<path d="M387.18 136.032C386.948 135.589 386.619 135.13 386.259 134.869C385.802 134.594 385.33 134.417 384.745 134.325L378.287 134.117C377.448 133.069 376.67 131.624 375.892 130.179C375.742 129.85 375.578 129.62 375.331 129.276L374.919 128.703C374.358 127.8 373.331 127.333 372.31 127.477C371.29 127.62 370.389 128.291 370.043 129.253L367.949 135.126C367.731 135.905 365.9 136.124 364.557 136.42L364.347 136.488C363.634 136.579 363.019 136.685 362.388 136.89L361.661 137.08C360.625 137.323 359.889 138.224 359.64 139.201C359.376 140.278 359.825 141.264 360.611 141.999L365.699 145.956C365.675 146.766 365.652 147.576 365.643 148.287C365.626 149.708 365.639 150.93 365.345 152.206C365.33 152.305 365.315 152.404 365.3 152.504C365.321 153.015 365.441 153.543 365.658 154.086C366.054 154.758 366.676 155.264 367.456 155.387C367.748 155.433 368.041 155.48 368.349 155.426C368.754 155.389 369.174 155.252 369.609 155.016L374.857 151.371L376.274 151.9C376.372 151.916 376.567 151.947 376.664 151.962C377.054 152.024 377.706 152.33 378.261 152.621C379.386 153.104 380.87 153.848 382.326 153.468C382.536 153.399 382.746 153.331 382.956 153.262C383.279 153.11 383.617 152.858 383.759 152.576C385.126 151.47 384.506 149.643 383.938 148.13C383.871 147.916 383.721 147.587 383.736 147.487L382.759 144.079L382.886 143.895C383.014 143.712 383.239 143.544 383.382 143.262C383.397 143.163 383.51 143.079 383.51 143.079C383.893 142.529 384.292 141.88 384.87 141.362C385.832 140.293 386.711 139.11 387.246 137.568C387.352 136.873 387.427 136.376 387.18 136.032Z" fill="#FBB03B"/>
<path d="M606.691 165.117C606.739 164.607 606.692 164.068 606.522 163.596C606.352 163.125 605.965 162.691 605.55 162.354L600.232 158.731C600.006 157.403 600.083 155.747 600.159 154.092C600.15 153.774 600.141 153.456 600.16 153.042L600.17 152.311C600.171 151.262 599.519 150.328 598.631 149.846C597.649 149.335 596.562 149.527 595.739 150.219L590.983 154.114C590.435 154.576 588.763 153.959 587.402 153.332L587.213 153.274C586.581 152.975 585.919 152.773 585.352 152.599L584.691 152.397C583.652 152.078 582.631 152.395 581.903 153.117C581.146 153.934 580.928 155.022 581.362 155.994L583.598 162.031C583.182 162.743 582.699 163.33 582.406 163.974C581.659 165.11 581.006 166.274 580.126 167.159C580.098 167.255 580.003 167.226 579.975 167.322C579.644 167.746 579.474 168.323 579.52 168.862C579.511 169.594 579.784 170.412 580.36 170.903C580.615 171.086 580.87 171.269 581.125 171.453C581.475 171.665 581.976 171.713 582.382 171.733L588.742 171.477L589.62 172.69C589.686 172.816 589.78 172.845 589.846 172.97C590.168 173.278 590.526 173.808 590.885 174.337C591.603 175.397 592.518 176.831 593.841 177.236C594.03 177.294 594.219 177.352 594.436 177.314C594.843 177.333 595.154 177.324 595.495 177.218C597.205 177.008 597.556 175.121 597.916 173.553C598.002 173.264 598.058 173.072 598.021 172.85L598.921 169.453L599.138 169.415C599.355 169.376 599.601 169.242 599.847 169.107C599.97 169.04 599.97 169.04 600.093 168.973C600.707 168.636 601.388 168.425 602.068 168.213C603.429 167.791 604.819 167.272 606.067 166.185C606.436 165.983 606.672 165.531 606.691 165.117ZM594.374 171.943C594.288 172.232 594.203 172.52 594.212 172.838C594.184 172.934 594.184 172.934 594.156 173.03C593.929 172.751 593.702 172.472 593.665 172.25C593.145 171.567 592.749 170.816 592.173 170.324L591.068 168.832C590.643 168.177 589.822 167.82 589.037 167.685C588.943 167.656 588.82 167.723 588.725 167.694L583.83 167.874C584.341 167.191 584.757 166.479 585.202 165.67C585.618 164.958 586.034 164.246 586.545 163.563C586.753 163.207 586.99 162.755 587.009 162.341C587.028 161.927 586.981 161.388 586.878 161.042L585.085 156.295C585.369 156.382 585.558 156.44 585.813 156.623C588.023 157.51 590.773 158.667 592.966 156.82L596.351 154.079C596.284 156.053 596.188 158.122 596.649 160.047C596.716 160.173 596.753 160.394 596.819 160.519C597.017 160.895 597.339 161.203 597.66 161.511L601.797 164.248C601.457 164.353 601.116 164.459 600.871 164.593C600.067 164.872 599.169 165.122 598.432 165.525C598.186 165.66 597.969 165.698 597.751 165.737L597.071 165.948C596.267 166.227 595.539 166.948 595.284 167.814L594.374 171.943Z" fill="white"/>
<path d="M333.777 79.8321C333.825 79.3219 333.778 78.7829 333.608 78.3111C333.438 77.8394 333.051 77.406 332.636 77.0688L327.318 73.446C327.092 72.1175 327.168 70.462 327.245 68.8064C327.236 68.4888 327.227 68.1711 327.246 67.7573L327.256 67.0257C327.256 65.9766 326.605 65.0424 325.717 64.5606C324.735 64.0497 323.648 64.2415 322.825 64.934L318.069 68.829C317.521 69.2907 315.849 68.6735 314.488 68.0469L314.299 67.989C313.666 67.6902 313.005 67.4876 312.438 67.314L311.777 67.1114C310.738 66.793 309.717 67.11 308.989 67.8314C308.232 68.649 308.014 69.7366 308.448 70.709L310.684 76.7457C310.267 77.4577 309.785 78.0445 309.492 78.6893C308.744 79.8245 308.092 80.9888 307.212 81.8737C307.184 81.97 307.089 81.941 307.061 82.0372C306.73 82.4605 306.559 83.038 306.606 83.577C306.596 84.3085 306.87 85.1269 307.446 85.6182C307.701 85.8012 307.956 85.9843 308.211 86.1674C308.561 86.3794 309.061 86.4278 309.468 86.4474L315.828 86.1918L316.706 87.4052C316.772 87.5304 316.866 87.5594 316.932 87.6845C317.253 87.9928 317.612 88.5224 317.971 89.0521C318.688 90.1114 319.604 91.5462 320.927 91.9513C321.116 92.0092 321.305 92.0671 321.522 92.0288C321.928 92.0483 322.24 92.0389 322.581 91.9332C324.291 91.7226 324.642 89.8363 325.002 88.2676C325.087 87.9789 325.144 87.7864 325.107 87.565L326.007 84.1678L326.224 84.1295C326.441 84.0911 326.687 83.9565 326.933 83.8219C327.056 83.7547 327.056 83.7547 327.179 83.6874C327.793 83.3509 328.474 83.1396 329.154 82.9283C330.515 82.5057 331.905 81.9869 333.153 80.9001C333.521 80.6982 333.758 80.2459 333.777 79.8321ZM321.459 86.6577C321.374 86.9464 321.289 87.2351 321.298 87.5528C321.27 87.649 321.27 87.649 321.241 87.7452C321.015 87.4659 320.788 87.1866 320.751 86.9652C320.231 86.2815 319.835 85.5304 319.259 85.0391L318.154 83.5464C317.729 82.8916 316.907 82.5349 316.123 82.3996C316.029 82.3707 315.906 82.4379 315.811 82.409L310.916 82.5885C311.427 81.9055 311.843 81.1935 312.288 80.3852C312.704 79.6732 313.12 78.9612 313.631 78.2782C313.839 77.9222 314.076 77.47 314.095 77.0561C314.114 76.6422 314.067 76.1031 313.963 75.7565L312.171 71.01C312.455 71.0968 312.644 71.1547 312.899 71.3377C315.109 72.2248 317.858 73.3817 320.052 71.5351L323.437 68.7942C323.369 70.7674 323.274 72.8368 323.735 74.7622C323.801 74.8874 323.839 75.1088 323.905 75.234C324.103 75.6095 324.424 75.9177 324.745 76.226L328.883 78.9624C328.542 79.0681 328.202 79.1737 327.956 79.3083C327.153 79.5869 326.255 79.8365 325.518 80.2403C325.272 80.3749 325.055 80.4132 324.837 80.4516L324.157 80.6629C323.353 80.9415 322.625 81.6629 322.369 82.529L321.459 86.6577Z" fill="white"/>
</svg>
