<svg width="42" height="103" viewBox="0 0 42 103" fill="none" xmlns="http://www.w3.org/2000/svg">
<path d="M32.6795 89.5946C34.7372 85.8262 34.8579 80.7242 31.3107 77.663C29.6332 76.2138 27.5579 75.245 25.3974 74.6434C22.9996 73.9793 20.2578 73.5165 17.8978 74.5056C15.8247 75.3675 14.3809 77.2704 13.7314 79.3135C13.0515 81.4318 12.6329 84.2027 13.165 86.3913C13.6869 88.5154 15.0483 90.4105 16.253 92.2342C17.4698 94.084 18.7005 95.9217 19.5879 97.9479C19.612 98.0003 19.65 98.0405 19.6748 98.08C20.0947 99.3032 21.46 100.315 22.7418 100.325C24.7317 100.329 25.9165 99.0671 26.2322 97.2899C26.1388 97.8231 26.2588 97.2911 26.3032 97.2036C26.3642 97.0529 26.4251 96.9022 26.4854 96.7642C26.5292 96.6895 26.6161 96.5528 26.6314 96.5151C26.7602 96.342 26.8764 96.1555 27.0052 95.9824C27.1061 95.8335 27.2197 95.6981 27.3333 95.5627C27.3898 95.5013 27.4888 95.3908 27.5034 95.3659C27.8689 94.9992 28.2478 94.6331 28.6267 94.267C29.7056 93.2557 30.785 92.2315 31.685 91.058C31.9667 90.7642 32.1971 90.4294 32.3628 90.0533C32.477 89.9051 32.5913 89.7569 32.6795 89.5946Z" fill="#FBB03B"/>
<path d="M26.8838 22.1656C25.8041 19.9348 22.8644 18.6012 20.3538 19.5832C19.9506 19.7408 19.6124 19.9106 19.3652 20.25C18.8319 20.3107 18.3376 20.6016 17.9734 21.0623C16.6336 22.8202 15.736 24.8327 16.1132 27.0029C16.2823 27.997 16.7767 28.9305 17.5051 29.67C18.3636 30.5187 19.5343 30.9551 20.7571 31.0764C22.9944 31.3067 24.9976 30.1671 26.2464 28.5062C27.6122 26.6877 27.8594 24.1781 26.8838 22.1656ZM23.6578 25.8026C23.6448 25.8269 23.6058 25.9481 23.5798 26.033C23.5668 26.0694 23.5408 26.1057 23.5408 26.13C23.4888 26.2148 23.4497 26.3118 23.3847 26.3967C23.2936 26.5422 23.2026 26.6755 23.1115 26.8089C23.0985 26.8331 23.0985 26.8331 23.0855 26.8453C23.0465 26.8816 23.0074 26.918 22.9944 26.9301C22.8774 27.0514 22.7603 27.1605 22.6302 27.2696C22.6172 27.2817 22.6042 27.2938 22.5912 27.306C22.5392 27.3423 22.4741 27.3666 22.4351 27.3908C22.318 27.4636 22.2009 27.5121 22.0839 27.5727C22.0188 27.5848 21.9278 27.6212 21.8888 27.6333C21.8497 27.6454 21.7197 27.6939 21.5896 27.7182C21.5766 27.7182 21.5636 27.7182 21.4985 27.7182C21.3945 27.7182 21.2904 27.7303 21.1863 27.7182C21.1213 27.7182 21.0693 27.7182 21.0042 27.706C20.8611 27.6697 20.7051 27.6454 20.562 27.5969C20.549 27.5969 20.536 27.5848 20.5229 27.5848C20.5099 27.5727 20.5099 27.5727 20.4839 27.5605C20.4189 27.5242 20.3408 27.4757 20.2758 27.4393C20.2628 27.4393 20.2628 27.4393 20.2628 27.4272C20.2628 27.4272 20.2628 27.4272 20.2497 27.4151C20.1977 27.3544 20.1327 27.306 20.0677 27.2453C20.0546 27.2332 20.0416 27.2211 20.0286 27.2211C19.9636 27.1362 19.9116 27.0392 19.8725 26.9786C19.8725 26.9665 19.8595 26.9544 19.8465 26.9544C19.9246 27.0514 19.8205 26.918 19.7945 26.8453C19.7295 26.6755 19.6904 26.5179 19.6514 26.3482C19.6514 26.2755 19.6384 26.1785 19.6254 26.13C19.6124 25.9602 19.6254 25.8026 19.6384 25.6329C19.6644 25.5359 19.7034 25.3056 19.7034 25.2813C19.7555 25.0995 19.8075 24.9297 19.8725 24.76C19.8986 24.6994 19.9246 24.566 19.9766 24.5054C19.7555 24.8327 19.9896 24.4812 20.0286 24.4084C20.1197 24.2266 20.2237 24.0447 20.3408 23.8629C20.5359 23.5355 20.7571 23.2324 20.9912 22.9293C21.0953 22.9172 21.1993 22.893 21.3164 22.8566C21.4985 22.7839 21.6676 22.7475 21.8497 22.6869C21.8888 22.6748 21.9018 22.6748 21.9148 22.6626C21.9668 22.6626 22.0188 22.6626 22.0579 22.6626C22.1489 22.6626 22.24 22.6626 22.344 22.6626C22.357 22.6626 22.3571 22.6626 22.3571 22.6626C22.4351 22.6748 22.5392 22.7111 22.5522 22.7111C22.6302 22.7354 22.9294 22.893 22.7083 22.7475C22.4741 22.602 22.8774 22.8445 22.9294 22.8809C22.9424 22.893 22.9944 22.9172 23.0335 22.9415C23.0465 22.9536 23.0464 22.9657 23.0595 22.9778C23.1115 23.0263 23.2286 23.1112 23.3196 23.1961C23.3196 23.2082 23.3326 23.2203 23.3587 23.2567C23.4107 23.3415 23.4757 23.4264 23.5278 23.5113C23.5668 23.5719 23.5928 23.6325 23.6318 23.6931C23.6838 23.8629 23.7489 24.0205 23.7879 24.1902C23.7879 24.2144 23.8009 24.2508 23.8139 24.2993C23.8139 24.3478 23.8269 24.4084 23.8269 24.4327C23.8399 24.6388 23.8269 24.857 23.8269 25.0631C23.8269 25.0752 23.8269 25.0873 23.8269 25.1116C23.8139 25.1843 23.8009 25.2449 23.7879 25.3056C23.7619 25.4632 23.7099 25.6329 23.6578 25.8026Z" fill="#F6F6F6"/>
<path d="M38.4956 43.0414C38.4167 42.8668 38.2852 42.7297 38.1011 42.605L37.7197 42.3557L37.7723 41.9069C39.5871 26.9719 34.4453 12.1739 23.6883 1.31549C23.0834 0.704623 22.6479 0 22.0182 0H21.6368H21.2949C20.462 0 20.1377 0.243357 19.4276 1.10356C8.9862 13.7572 3.58138 28.2684 4.19945 41.9692L4.21261 42.1562L4.13371 42.3183C0.569961 49.549 -0.67933 55.8945 0.346399 61.7164C0.517354 62.7137 1.25378 66.0548 3.43674 67.3887C4.30467 67.9248 5.27778 68.037 6.42186 67.7627C8.21031 67.3139 8.84153 65.7431 9.49904 64.0726L10.8404 60.6941L11.4848 60.8063C11.9582 60.8811 12.4579 60.931 12.9444 60.9684C13.2732 60.9933 13.5888 61.0307 13.9044 61.0681C15.0748 61.2053 16.232 61.3424 17.4024 61.4671C22.6363 62.0031 26.989 61.9782 31.1182 61.4047C31.1709 61.3923 31.2103 61.3798 31.2629 61.3673L31.881 61.1679L32.236 61.6915C32.7621 62.5517 33.1039 63.4991 33.4459 64.4217C33.7878 65.3442 34.1034 66.2044 34.5768 66.9649C35.0371 67.7004 35.7735 68.1367 36.6151 68.1367C37.4567 68.0744 38.2458 67.7004 38.7192 66.9524C39.495 65.7307 39.9159 64.0726 40.2972 62.6015L40.3367 62.4519C41.9542 56.0316 41.323 49.3121 38.4956 43.0414ZM5.36985 64.8829L4.46247 63.4742C4.22576 62.9007 4.09427 62.3647 3.97591 61.8535L3.94959 61.7289C3.67343 60.5321 3.52879 59.2729 3.51564 57.8891C3.48934 55.9942 3.72602 53.9995 4.22573 51.9426L4.93586 48.9381L5.75118 51.9176C6.15884 53.3887 6.56651 54.6852 7.02677 55.9069C7.03992 55.9568 7.06624 55.9942 7.09254 56.0316L7.22405 56.3931C7.38186 56.8918 7.6054 57.4403 7.86841 57.9639L8.01305 58.2507L5.36985 64.8829ZM29.0011 57.939L28.8038 58.3005L28.383 58.3379C27.16 58.4501 25.8976 58.5 24.5431 58.5C22.8335 58.5 20.9793 58.4127 18.9015 58.2382C16.9947 58.0761 15.1011 57.8517 13.4968 57.6523C13.3521 57.6398 13.2075 57.6149 13.0497 57.5775C12.813 57.5401 12.5631 57.4902 12.379 57.5027C12.2475 57.5027 12.116 57.5027 11.9845 57.4777L11.7346 57.4279L11.5637 57.2533C11.1691 56.8669 10.7483 55.7698 10.6563 55.4457C10.6168 55.3335 10.5774 55.2337 10.5248 55.1465C9.03878 51.1696 8.15772 47.0307 7.86841 42.7546L7.85525 42.6175L7.90786 42.4804C8.06567 42.0316 8.03935 41.5703 7.85525 41.1714L7.78951 40.8846C7.48705 28.7172 12.1423 15.9015 20.9136 4.79368L21.4922 4.05815L22.1366 4.74382C35.7472 19.3298 38.5088 40.6976 29.0011 57.939ZM37.22 60.1456C37.2069 60.2204 37.1806 60.3077 37.1674 60.3825L36.694 62.5891L35.642 60.6567C35.0371 59.4475 34.3796 58.5499 33.5642 57.8393L33.1434 57.4777L33.3801 56.9791C34.3401 54.9719 35.1422 52.9648 35.7866 50.9951L36.7992 47.866L37.3121 51.1073C37.5488 52.5659 37.6671 53.8624 37.6671 55.0717C37.6803 56.8918 37.5356 58.5499 37.22 60.1456Z" fill="#F6F6F6"/>
<path d="M30.644 76.505L30.5806 76.2939C29.3906 71.9109 24.8329 70.3589 21.2248 70.3589C21.1742 70.3589 21.1362 70.3589 21.0855 70.3589C17.0343 70.3961 11.8689 72.0351 9.47616 76.505C7.05807 81.0494 9.15964 85.9786 11.2739 89.7656C12.3373 91.6653 13.5654 93.5278 14.7554 95.3157C16.1987 97.501 17.7053 99.7608 18.9206 102.145C19.3637 103.001 20.098 102.989 20.5032 102.915C21.2374 102.766 22.0477 102.12 22.0983 101.213C22.3642 97.0292 23.7948 93.0684 26.4914 89.1076L26.6686 88.8468C29.0741 85.3082 31.3529 81.9806 31.2896 77.7963C31.2769 77.312 31.1124 76.9147 30.7832 76.6291L30.644 76.505ZM27.7954 78.7151C27.5169 81.7571 25.7445 84.29 24.0354 86.7236C23.415 87.6052 22.8326 88.4371 22.3262 89.2814C21.3261 90.9328 20.5158 92.7455 19.9081 94.6701L19.427 96.1973L17.7812 93.7016C17.1989 92.8325 16.6291 91.9509 16.0594 91.0693L15.667 90.4609C13.8819 87.6921 11.6537 84.2404 11.7423 80.8383C11.8436 77.0885 15.2745 74.6922 18.6421 73.972C20.2373 73.6368 23.8075 73.3761 25.8964 74.8536C26.7573 75.462 27.2763 76.3063 27.3903 77.312C27.4283 77.6597 27.5422 77.9825 27.7068 78.2681L27.8334 78.4792L27.7954 78.7151Z" fill="#F6F6F6"/>
</svg>
