<svg width="287" height="291" viewBox="0 0 287 291" fill="none" xmlns="http://www.w3.org/2000/svg">
<path d="M95.7095 213.599C113.119 211.54 130.671 211.332 148.183 211.59C165.735 211.859 183.287 212.594 200.849 212.405C210.662 212.306 220.475 211.898 230.248 210.984C230.95 210.914 231.55 211.62 231.55 212.256C231.55 213.002 230.95 213.459 230.248 213.529C212.787 215.179 195.215 215.14 177.694 214.782C160.152 214.424 142.6 213.758 125.058 214.175C115.255 214.404 105.462 214.991 95.7196 216.144C95.018 216.223 94.418 215.498 94.418 214.871C94.4078 214.116 95.0078 213.688 95.7095 213.599Z" fill="#1E1E1E"/>
<path d="M184.588 218.46H209.034C210.712 218.46 210.712 221.005 209.034 221.005H184.588C182.91 221.005 182.91 218.46 184.588 218.46Z" fill="#1E1E1E"/>
<path d="M34.8664 185.5L41.8664 182L42.8664 185L42.3664 188.5L42.3664 191L35.3664 191.5L29.3665 193L23.3665 196L20.3665 198L20.3665 194.5L23.3665 189.5L26.3665 187.5L34.8664 185.5Z" fill="white"/>
<path d="M142.733 144.967C142.844 145.667 143.005 146.348 143.215 147.001L143.215 147.012C143.215 147.012 143.215 147.012 143.221 147.017C143.852 148.998 144.886 150.781 146.065 152.571C148.119 155.694 153.117 152.411 151.068 149.292C150.111 147.842 148.985 146.3 148.711 144.55C148.543 143.463 147.93 142.526 146.973 142.103L146.967 142.098C146.556 141.912 146.087 141.83 145.567 141.869C144.061 141.974 142.488 143.422 142.733 144.967Z" fill="#00A99D"/>
<path d="M221.871 104.547C223.442 103.023 225.4 101.832 228.019 101.831C230.787 101.83 232.906 103.523 235.704 103.056C238.055 102.664 240.248 104.939 240.379 107.082C240.539 109.609 238.601 111.259 236.239 111.652C234.666 111.916 233.017 111.879 231.453 111.542C230.52 111.34 229.132 110.472 228.138 110.424C227.824 110.851 226.45 112.283 226.38 112.334C225.538 112.887 224.465 113.155 223.446 113.043C222.062 114.864 218.925 114.769 217.294 113.406C215.309 111.741 215.495 109.268 216.835 107.335C218.129 105.484 219.909 104.759 221.871 104.547Z" fill="#00A99D"/>
<path d="M183.301 122.097L183.295 122.103C183.117 122.422 182.95 122.742 182.783 123.072C182.984 123.109 183.185 123.156 183.386 123.193C184.274 123.374 185.168 123.55 186.056 123.742C187.006 123.948 187.951 124.181 188.871 124.497C189.673 124.768 190.472 125.098 191.159 125.589C191.705 125.982 192.177 126.518 192.321 127.184C192.49 127.958 192.199 128.73 191.782 129.377C191.492 129.836 191.124 130.297 190.604 130.515C190.144 130.714 189.637 130.628 189.213 130.399C188.637 130.094 188.262 129.636 187.836 129.174C187.635 128.948 187.394 128.729 187.071 128.685C186.715 128.643 186.317 128.7 185.964 128.744C185.168 128.836 184.385 129.003 183.608 129.175C182.981 129.315 182.346 129.428 181.73 129.6C181.098 129.778 180.445 130.011 179.773 130.142C179.757 130.18 179.731 130.219 179.716 130.257C178.793 132.079 177.757 133.85 178.118 135.386C178.137 135.455 178.15 135.52 178.174 135.584C178.212 135.713 178.26 135.841 178.325 135.963C178.569 136.458 179 136.925 179.663 137.352C179.986 137.552 180.325 137.736 180.674 137.886C185.233 139.887 190.239 141.121 195.184 141.702C197.557 141.98 199.885 140.728 200.378 138.304C200.516 137.623 200.454 136.894 200.238 136.214C200.304 136.023 200.358 135.832 200.402 135.641C200.432 135.532 200.45 135.412 200.474 135.298C200.497 135.151 200.509 135.004 200.515 134.853C200.529 134.782 200.527 134.706 200.53 134.625C200.532 134.522 200.529 134.425 200.526 134.327C200.524 134.273 200.522 134.219 200.515 134.171C200.505 134.014 200.489 133.863 200.461 133.713C200.441 133.589 200.414 133.46 200.377 133.342C200.338 133.16 200.282 132.983 200.21 132.812C200.204 132.807 200.21 132.801 200.204 132.796C200.156 132.679 200.097 132.562 200.037 132.445C200.019 132.397 200.001 132.348 199.977 132.306C199.971 132.29 199.965 132.274 199.954 132.263C198.605 129.858 197.251 127.457 195.896 125.046C194.742 122.996 193.725 120.379 191.807 118.88C191.454 118.6 191.074 118.369 190.68 118.187C190.54 118.132 190.394 118.083 190.248 118.045C190.125 118.006 189.996 117.972 189.873 117.944C189.706 117.906 189.544 117.874 189.382 117.852C189.254 117.84 189.143 117.833 189.032 117.826C188.898 117.819 188.771 117.818 188.643 117.817C188.521 117.821 188.394 117.831 188.272 117.846C188.012 117.871 187.77 117.922 187.528 117.995C187.429 118.031 187.325 118.061 187.221 118.103C187.106 118.145 186.996 118.191 186.893 118.244C186.63 118.361 186.374 118.515 186.13 118.68L186.125 118.686C185.007 119.47 184.077 120.708 183.301 122.097Z" fill="#FBB03B"/>
<path d="M70.2553 107.874C70.484 108.765 70.9555 109.615 71.5648 110.265C74.9973 113.965 76.7249 118.636 77.4934 123.501C78.0086 126.719 78.5071 129.933 79.0717 133.133C79.0724 133.155 79.0784 133.171 79.0791 133.192C79.4601 135.355 79.8744 137.516 80.3384 139.67C81.3241 144.22 82.4919 148.736 83.8409 153.198C84.4127 155.084 85.0165 157.103 85.752 159.075L85.7577 159.08C86.7188 161.678 87.9162 164.207 89.5483 166.285C90.0864 166.965 90.6811 167.507 91.3219 167.935L91.3277 167.94C93.6809 169.501 96.626 169.473 99.4485 168.745C99.4539 168.739 99.4596 168.745 99.465 168.739C99.4707 168.744 99.4761 168.739 99.4761 168.739C100.725 168.421 101.959 167.963 103.096 167.449C107.252 165.578 111.246 163.005 114.776 160.165C115.566 159.533 116.327 158.874 117.031 158.196L117.037 158.19C117.042 158.185 117.042 158.185 117.048 158.179C117.494 157.737 117.934 157.289 118.341 156.832C118.973 156.129 119.553 155.39 120.083 154.615C119.217 154.59 118.316 154.88 117.509 155.15C116.472 155.493 115.437 155.912 114.344 156.089C112.716 156.344 111.068 156.529 109.433 156.746C107.803 156.957 106.186 157.222 104.547 157.321C101.391 157.513 98.2048 157.457 95.0499 157.346C93.5504 157.299 92.0498 157.219 90.5618 157.015C89.319 156.845 87.977 156.522 86.9698 155.75C86.1332 155.102 85.7562 154.086 85.5962 153.091C85.4558 152.186 85.5532 151.258 85.8076 150.378C86.3467 148.532 87.4589 146.904 88.5335 145.315C89.0627 144.529 89.5973 143.737 90.064 142.905C90.2688 142.546 90.451 142.178 90.6106 141.799C90.8577 141.206 91.218 140.686 91.5952 140.17C92.5144 138.922 93.3493 137.638 94.1777 136.328C94.7947 135.339 95.4277 134.333 96.2034 133.447L96.2087 133.442C96.4331 133.174 96.6799 132.917 96.9386 132.681C97.8647 131.817 98.9574 131.126 100.074 130.488L100.079 130.482C100.308 130.345 100.542 130.213 100.777 130.08C102.1 129.327 103.465 128.643 104.754 127.837C105.863 127.151 107.108 126.368 107.77 125.22C107.802 125.176 107.823 125.132 107.849 125.082C108.366 124.097 108.44 122.969 108.516 121.884C108.587 120.837 108.652 119.764 109.025 118.772C109.234 118.197 109.542 117.608 109.971 117.139L109.976 117.133C110.211 116.866 110.481 116.64 110.786 116.468C111.719 115.955 112.654 116.221 113.493 116.767C114.609 117.492 115.465 118.546 116.334 119.529C117.071 120.359 117.936 121.168 118.505 122.118C118.757 122.537 118.95 123.007 118.877 123.496C118.804 123.985 118.502 124.423 118.187 124.796C117.818 125.225 117.386 125.607 116.966 125.989C116.492 126.427 116.041 126.886 115.55 127.308C114.293 128.405 112.955 129.397 111.669 130.457C110.442 131.477 109.342 132.623 108.322 133.832C107.825 134.427 107.34 135.033 106.872 135.644C106.499 136.122 106.16 136.631 105.753 137.077C105.154 137.757 104.509 138.396 103.989 139.138C103.82 139.382 103.549 139.743 103.586 140.05C103.631 140.405 104.036 140.408 104.318 140.382C104.766 140.34 105.206 140.196 105.634 140.063C106.106 139.917 106.579 139.793 107.064 139.668C108.599 139.287 110.134 138.884 111.638 138.39C113.197 137.883 114.691 137.254 116.179 136.577C117.682 135.894 119.191 135.205 120.677 134.484C122.129 133.775 123.57 133.035 124.976 132.241C125.531 131.93 126.07 131.604 126.603 131.272C126.608 131.266 126.614 131.272 126.619 131.266C126.619 131.266 126.619 131.266 126.625 131.26C127.452 130.757 128.267 130.232 129.099 129.722C130.133 129.092 131.224 128.537 132.4 128.183C133.439 127.873 134.522 127.75 135.604 127.741C136.798 127.603 138.035 127.621 139.261 127.597C140.697 127.565 142.136 127.463 143.518 126.973C144.846 126.506 145.831 125.413 146.278 124.164C146.66 123.096 146.649 121.912 146.117 120.902C145.928 120.54 145.672 120.202 145.341 119.9C145.588 119.664 145.951 119.398 146.011 119.347C147.489 118.232 149.288 117.43 150.902 116.543C154.755 114.407 158.608 112.281 162.456 110.151C162.772 109.978 163.048 109.758 163.284 109.512C163.262 109.512 163.234 109.519 163.212 109.519C162.957 109.528 162.928 109.134 163.183 109.125C163.332 109.115 163.476 109.11 163.626 109.1C163.716 108.961 163.8 108.829 163.879 108.691C163.884 108.685 163.884 108.674 163.889 108.669C163.911 108.668 163.939 108.662 163.961 108.661L163.966 108.655C166.529 108.288 169.091 107.754 171.663 106.997C172.647 106.709 173.629 106.379 174.611 106.038C175.556 105.579 176.495 105.093 177.427 104.602C178.617 103.977 179.795 103.354 180.978 102.724C181.993 102.182 183.013 101.655 184.087 101.241C184.098 101.24 184.114 101.234 184.131 101.228C184.366 101.129 184.596 101.045 184.844 100.966C185.228 100.845 185.613 100.735 186.004 100.641C186.015 100.64 186.02 100.635 186.031 100.635C187.952 100.164 189.972 100.016 191.926 100.037C193.819 100.066 195.778 100.27 197.61 100.81C197.575 100.746 197.54 100.693 197.505 100.64L197.499 100.635C197.487 100.603 197.47 100.576 197.452 100.55C197.4 100.471 197.347 100.391 197.289 100.317C194.552 96.3402 189.733 94.5428 184.931 94.6062C184.726 94.6076 184.515 94.6147 184.316 94.6321C184.305 94.6325 184.305 94.6325 184.294 94.6329C179.563 94.8561 175.074 96.8946 170.631 98.2931C168.742 98.8866 166.856 99.4096 164.938 99.8092C164.933 99.8148 164.933 99.8148 164.922 99.8152C162.828 100.264 160.696 100.573 158.515 100.701C154.55 100.931 150.592 100.706 146.648 100.4C141.948 100.032 137.333 99.7105 132.713 99.7515C128.941 99.7803 125.166 100.047 121.349 100.738C112.783 102.285 104.323 104.516 95.5357 103.533C87.5114 102.628 79.6733 99.2594 71.9916 103.428C70.1815 104.409 69.8075 106.217 70.2553 107.874Z" fill="#00A99D"/>
<path d="M70.0231 107.925C70.051 107.929 70.0785 107.923 70.1064 107.927C70.1175 107.927 70.1286 107.926 70.1397 107.926C70.1722 107.903 70.2105 107.886 70.2487 107.868C71.4952 107.129 73.019 106.726 74.3939 106.355C76.2642 105.86 78.1955 105.536 80.126 105.357C83.9702 104.996 87.8323 105.186 91.6751 105.463C95.8071 105.763 99.9376 106.188 104.085 106.114C108.105 106.039 112.115 105.493 116.038 104.637C120.384 103.685 124.631 102.391 128.847 101.005C128.928 100.954 129.021 100.902 129.13 100.855C130.302 100.383 131.489 100.019 132.706 99.7454C137.265 98.6838 142.06 98.8967 146.73 99.341C152.835 99.932 158.805 100.598 164.932 99.8032C165.164 99.7846 165.396 99.7551 165.611 99.7209C168.61 99.2797 171.542 98.5269 174.407 97.5545C177.085 96.6425 179.724 95.5803 182.494 94.9519C183.095 94.8182 183.69 94.7009 184.309 94.6261C189.158 93.9444 193.81 95.0548 197.987 97.7555C203.876 101.568 207.588 107.568 211.084 113.392C212.827 112.895 214.47 112.245 215.968 111.389C217.804 110.348 219.441 109 220.821 107.25C221.978 105.788 223.014 104.206 224.738 103.315C226.282 102.511 227.831 102.541 229.443 103.163C231.129 103.821 232.75 104.692 234.629 104.634C236.43 104.579 237.829 104.262 239.381 105.406C239.631 105.592 239.898 105.794 240.144 106.019C241.115 106.863 241.966 107.954 241.985 109.22C242.009 110.804 240.731 112.102 239.383 112.802C237.664 113.687 235.654 113.803 233.763 113.493C232.714 113.323 231.7 113.005 230.696 112.676C229.961 112.436 228.86 111.829 227.973 111.69C227.17 112.929 227.071 114.989 225.314 115.231C224.524 115.339 223.889 114.895 223.372 114.371C223.338 114.34 223.303 114.298 223.263 114.261C223.095 115.565 222.342 116.819 220.789 116.817C219.823 116.816 218.943 116.18 218.145 115.715C217.371 115.27 216.606 114.803 215.853 114.325C214.476 114.966 213.016 115.459 211.525 115.861C211.51 115.888 211.494 115.905 211.472 115.927C210.194 117.415 210.054 119.416 209.642 121.242C209.278 122.84 208.616 124.312 207.898 125.775C210.258 125.35 212.641 125.081 215.04 124.984C215.122 124.954 215.21 124.919 215.315 124.899C215.419 124.879 215.524 124.86 215.634 124.834C215.693 124.427 215.942 124.045 216.457 123.855C217.806 123.377 218.463 121.721 219.476 120.81C220.732 119.681 222.115 119.569 223.745 119.683C225.424 119.8 226.986 119.536 228.414 118.607C230.066 117.523 230.787 115.822 231.721 114.178C232.525 112.783 234.829 113.858 234.026 115.264C233.06 116.952 232.273 118.678 230.756 119.967C229.401 121.122 227.733 121.876 225.96 122.135C224.138 122.402 222.162 121.51 220.808 123.043C220.546 123.35 220.295 123.656 220.05 123.956C226.455 122.681 232.861 121.407 239.272 120.126C243.263 119.332 247.254 118.539 251.25 117.74C253.097 117.369 255.024 117.272 256.806 116.612C257.036 116.529 257.249 116.43 257.48 116.357C258.035 116.182 258.607 116.043 259.156 115.863C260.173 115.564 261.189 115.254 262.206 114.954C264.239 114.345 266.272 113.736 268.31 113.122C270.305 112.519 272.304 111.911 274.31 111.319C275.783 110.88 277.475 110.369 278.754 111.484C280.17 112.725 281.075 114.799 280.653 116.658C280.187 118.687 277.884 120.224 275.816 119.249C275.321 119.017 274.876 118.653 274.33 118.574C273.778 118.49 273.225 118.719 272.723 118.974C269.802 120.43 267.701 122.886 264.88 124.517C263.176 125.5 261.405 126.338 259.583 127.097C259.424 127.162 259.27 127.221 259.117 127.291C258.641 127.485 258.17 127.685 257.694 127.89C256.748 128.295 255.807 128.706 254.854 129.095C254.443 129.265 254.033 129.436 253.617 129.601C249.256 131.327 244.648 132.082 240.17 133.417C231.527 136.005 223.441 140.036 215.445 144.097L215.527 144.224C203.76 149.184 191.698 153.445 179.556 157.466C172.64 159.754 165.721 162.122 158.587 163.687C158.103 163.8 157.687 163.652 157.396 163.386C155.691 164.022 153.967 164.577 152.218 165.047C152.148 165.109 152.066 165.16 151.973 165.212C140.991 171.087 129.546 176.058 117.726 180.09C112.019 182.034 106.282 184.065 100.421 185.544C94.852 186.942 89.1865 187.256 83.5129 188.003C80.3637 188.412 77.376 189.177 74.367 190.144C71.4128 191.086 68.4185 191.993 65.2718 191.963C64.911 191.959 64.624 191.833 64.407 191.646C63.6032 191.835 62.6778 191.871 61.893 191.962C59.4836 192.259 57.0036 192.429 54.6174 192.925C52.1375 193.441 50.0802 194.668 48.0289 196.078C47.0685 196.744 46.1145 197.436 45.1252 198.064C44.2282 198.63 43.1601 199.396 42.0902 199.594C39.6908 200.026 39.4276 197.562 39.9455 195.916C41.1888 192.006 43.3023 188.072 47.47 186.569C49.9046 185.687 52.5363 185.404 55.0003 184.57C57.1843 183.826 59.2725 182.868 61.2665 181.741C61.3968 181.483 61.6282 181.264 61.9962 181.149C62.194 181.088 62.3971 181.022 62.6002 180.955C62.6546 180.921 62.709 180.887 62.7633 180.852C63.0244 180.692 63.2887 180.629 63.539 180.648C72.4557 177.774 81.372 174.89 90.294 172.01C90.7936 171.847 91.3043 171.684 91.8039 171.521C88.8819 169.872 87.2229 166.459 85.5358 163.713C83.216 159.938 81.0521 156.012 79.6014 151.835C78.0596 147.418 77.6313 142.779 77.0818 138.166C76.5384 133.569 75.9728 128.973 75.6171 124.348C75.2291 119.242 73.9056 114.542 70.4825 110.62C70.2011 110.667 69.895 110.639 69.6745 110.512C69.1437 110.226 68.8486 109.852 68.8289 109.247C68.7978 108.631 69.3173 107.889 70.0231 107.925ZM219.87 113.817C220.463 114.149 220.717 114.265 220.75 113.572C220.777 113.04 220.629 112.602 220.767 112.067C220.985 111.259 221.695 110.564 222.581 110.502C223.516 110.433 224.164 111.077 224.63 111.775C224.724 111.913 224.846 112.098 224.935 112.263L225.121 111.835C225.476 110.984 225.812 109.896 226.672 109.38C227.456 108.911 228.35 109.276 229.14 109.525C230.284 109.887 231.402 110.32 232.555 110.65C234.504 111.212 237.355 111.685 238.966 110.062C239.831 109.184 239.11 108.515 238.362 107.842C237.356 106.934 236.641 106.953 235.341 107.078C233.239 107.278 231.283 106.667 229.382 105.865C228.549 105.514 227.678 105.013 226.736 105.201C225.6 105.423 224.742 106.35 224.054 107.19C222.389 109.205 220.909 111.137 218.734 112.676C218.609 112.761 218.485 112.847 218.36 112.932C218.858 113.229 219.361 113.531 219.87 113.817ZM260.134 124.097C263.511 122.502 266.71 120.555 269.597 118.219C270.732 117.304 271.898 116.302 273.385 115.982C274.107 115.822 274.885 115.872 275.566 116.168C276.225 116.455 276.767 117.254 277.504 116.877C278.257 116.506 278.239 115.619 278.018 114.945C277.901 114.586 277.694 114.22 277.457 113.919C276.936 113.255 276.794 113.314 276.013 113.535C274.639 113.916 258.662 119.104 258.302 118.775C258.51 119.185 258.755 119.577 258.912 119.961C259.206 120.628 259.466 121.306 259.672 122.008C259.867 122.699 260.017 123.392 260.134 124.097ZM176.156 155.946C182.37 153.909 188.572 151.819 194.725 149.611C200.938 147.385 207.086 144.993 213.173 142.463C221.507 138.218 229.906 133.939 238.905 131.192C243.371 129.825 248.013 129.091 252.38 127.403C254.385 126.632 256.337 125.75 258.319 124.926C257.268 123.495 256.625 121.639 256.016 120.128C255.92 119.894 255.834 119.637 255.77 119.379C255.026 119.529 254.281 119.667 253.553 119.81C249.391 120.637 245.235 121.469 241.073 122.295C232.898 123.927 224.712 125.559 216.532 127.185C216.348 127.343 216.097 127.448 215.781 127.454C212.793 127.537 209.824 127.869 206.904 128.486C206.441 128.589 206.043 128.456 205.752 128.211C204.972 128.107 204.265 127.347 204.713 126.455C205.822 124.227 206.864 122.147 207.351 119.706C207.69 118.023 208.08 116.365 209.049 114.942C205.394 110.222 201.359 105.05 195.698 102.61C192.66 101.294 189.42 102.344 186.391 103.186C183.103 104.097 179.912 105.275 176.728 106.48C170.134 108.968 163.459 111.328 157.057 114.253C153.952 115.666 150.75 117.191 147.962 119.156C147.301 119.622 146.576 120.198 146.11 120.896C145.893 121.211 145.732 121.558 145.656 121.928C145.483 122.756 145.774 123.515 146.272 124.158C146.717 124.722 147.31 125.189 147.887 125.538C153.078 128.713 159.586 127.365 165.338 127.129C166.828 127.063 169.044 127.649 169.704 125.944C169.904 125.434 169.941 124.87 169.973 124.323L170.084 122.609C170.133 121.72 167.739 120.794 167.07 120.53C165.761 120.005 164.369 119.7 162.966 119.552C162.331 119.476 161.692 119.438 161.081 119.248C160.347 119.029 159.486 118.484 159.454 117.657C159.432 117.176 159.722 116.707 160.165 116.503C160.756 116.234 161.172 116.583 161.7 116.771C162.643 117.118 163.541 117.098 164.515 117.201C165.484 117.299 166.42 117.597 167.303 117.973C168.535 118.49 169.688 119.143 170.92 119.649C174.805 121.245 179.161 121.256 183.289 122.097L183.294 122.091C183.824 122.198 184.35 122.321 184.87 122.461C184.87 122.461 185.399 120.111 185.517 119.82C185.676 119.42 185.874 119.035 186.118 118.68L186.123 118.675C186.388 118.276 186.72 117.919 187.099 117.614C188.391 116.591 190.1 116.421 191.541 117.222C192.937 118.003 193.793 119.435 194.476 120.803C195.468 122.809 196.405 124.839 197.369 126.863C198.221 128.658 199.111 130.446 199.947 132.258C199.959 132.268 199.965 132.284 199.971 132.3C199.994 132.343 200.012 132.391 200.031 132.439C200.09 132.556 200.149 132.673 200.197 132.79C200.203 132.796 200.198 132.801 200.204 132.806C200.257 132.918 200.305 133.036 200.359 133.148C201.107 134.816 201.65 136.675 201.227 138.502C200.296 142.477 196.225 142.862 192.8 141.949C188.02 140.67 183.062 139.353 178.625 137.181C178.055 136.902 177.652 136.093 178.027 135.513C178.059 135.468 178.08 135.424 178.111 135.38C179.221 133.666 180.206 131.88 181.072 130.038C180.62 130.118 180.167 130.187 179.709 130.251C178.378 130.442 177.034 130.579 175.689 130.662C174.078 130.765 172.304 130.981 170.726 130.579C169.881 130.364 169.102 129.957 168.263 129.726C167.418 129.499 166.485 129.498 165.609 129.495C163.606 129.492 161.63 129.807 159.636 129.906C156.345 130.07 152.983 130.075 149.811 129.099C149.144 128.888 148.482 128.64 147.84 128.348C147.119 128.015 146.406 127.595 145.751 127.092C145.67 127.154 145.583 127.2 145.479 127.242C145.161 127.371 144.844 127.501 144.532 127.625L144.323 127.708C144.318 127.724 144.313 127.741 144.303 127.752C144.517 128.367 144.796 129.272 144.851 129.427C145.413 131.02 145.986 132.603 146.581 134.174C147.741 137.257 148.961 140.311 150.247 143.341C152.801 149.375 155.613 155.308 158.654 161.125C164.596 159.763 170.375 157.844 176.156 155.946ZM190.261 131.933C188.732 132.027 187.747 131.254 187.036 130.028C186.419 128.972 185.188 129.159 184.07 129.418C184.058 129.543 184.023 129.669 183.972 129.8C183.115 131.777 182.128 133.676 181.006 135.516C184.479 137.05 188.178 138.013 191.824 139.076C193.449 139.552 195.737 140.466 197.41 139.706C199.203 138.878 198.934 136.598 198.403 135.107C197.713 133.155 196.681 131.301 195.789 129.437C194.836 127.435 193.878 125.438 192.925 123.436C192.312 122.152 191.658 120.15 190.297 119.401C188.28 118.283 187.617 121.444 187.396 122.847L189.561 123.218C191.19 123.499 192.934 123.56 193.623 125.279C194.68 127.922 193.583 131.724 190.261 131.933ZM186.934 126.882C187.633 127.059 188.283 127.432 188.74 127.985C189.184 128.517 189.292 129.444 190.102 129.438C190.923 129.432 191.314 128.657 191.424 127.971C191.479 127.612 191.466 127.201 191.399 126.836C191.245 126.035 191.095 126.023 190.319 125.882C188.149 125.505 185.978 125.14 183.808 124.763L172.571 122.834C172.564 123.278 172.601 123.732 172.569 124.133C172.52 124.843 172.438 125.544 172.299 126.247C172.161 126.928 171.977 127.599 171.76 128.261C175.413 128.323 179.07 128 182.634 127.205C184.033 126.898 185.496 126.525 186.934 126.882ZM145.751 146.862C145.717 147.345 146.181 148.146 146.373 148.594C146.607 149.122 146.873 149.638 147.156 150.148C147.421 150.62 147.697 151.082 147.978 151.549C148.224 151.952 148.304 152.339 148.66 152.381C149.345 152.45 150.314 151.876 151.041 151.387C150.087 149.341 149.165 147.273 148.271 145.198C148.042 145.335 147.768 145.42 147.44 145.393C146.689 145.337 145.802 146.206 145.751 146.862ZM155.89 161.277C154.587 158.756 153.323 156.218 152.108 153.661C150.775 154.458 149.02 155.247 147.669 154.832C146.744 154.544 146.312 153.709 145.849 152.94C145.309 152.049 144.786 151.152 144.334 150.215C143.853 149.23 143.289 148.118 143.215 147.012C143.209 147.007 143.209 147.007 143.209 147.007L143.209 146.996C143.166 146.38 143.28 145.781 143.628 145.218C144.45 143.881 145.782 143.03 147.316 142.941C147.232 142.749 147.153 142.552 147.069 142.36C147.033 142.274 147.002 142.183 146.966 142.098L146.961 142.093C145.588 138.773 144.291 135.419 143.066 132.035C142.743 131.131 142.425 130.222 142.106 129.313C142.082 129.249 142.052 129.18 142.028 129.105C139.891 130.112 137.675 130.89 135.356 131.406C135.504 134.425 134.213 137.547 133.485 140.406C132.638 143.714 131.852 147.192 132.562 150.588C132.568 150.593 132.568 150.593 132.568 150.604C132.836 150.659 133.09 150.797 133.303 151.033C136.61 154.797 140.155 158.357 143.919 161.689C144.702 162.382 145.733 163.722 146.869 163.667C148.032 163.607 149.256 163.214 150.385 162.944C152.251 162.486 154.086 161.927 155.89 161.277ZM110.135 126.655C109.304 127.208 108.479 127.766 107.648 128.318C106.687 128.962 105.731 129.6 104.776 130.249C105.431 130.616 106.082 131 106.722 131.406C107.062 131.622 107.408 131.843 107.748 132.07C108.405 132.502 108.373 132.704 108.996 132.223C110.657 130.95 112.141 129.304 113.613 127.827C114.354 127.077 115.089 126.311 115.813 125.535C116.21 125.121 116.59 124.702 116.976 124.278C117.052 124.211 117.722 123.501 117.796 123.569C117.765 123.11 116.029 121.442 115.764 121.137C115.055 120.323 114.325 119.519 113.572 118.738C113.291 118.439 113.009 118.129 112.717 117.842C112.821 118.65 112.911 119.729 112.938 119.869C113.2 121.429 113.92 123.439 112.715 124.794C112.03 125.564 110.977 126.091 110.135 126.655ZM93.5571 145.422C98.613 142.569 103.002 138.824 106.578 134.317C106.408 134.192 106.237 134.068 106.073 133.96C105.137 133.348 104.181 132.779 103.204 132.233C98.3407 134.024 94.7577 137.812 91.9122 141.928C90.556 143.899 89.2809 145.976 88.2353 148.116C87.2785 150.085 86.5377 152.555 87.8782 154.534C89.1775 156.444 92.422 156.238 94.5125 156.373C96.8536 156.538 99.2074 156.579 101.552 156.516C106.347 156.394 111.151 155.849 115.845 154.848C120.055 153.949 124.186 152.697 128.185 151.124L129.903 150.038C129.544 147.182 129.923 144.34 130.58 141.51C130.999 139.721 131.491 137.946 131.954 136.167C132.295 134.873 132.814 133.428 132.857 132.03C127.663 133.005 123.286 135.932 118.31 137.652C112.851 139.539 107.079 140.668 101.922 143.324C101.6 143.492 101.279 143.513 100.994 143.452C99.1008 144.944 97.0921 146.299 94.9783 147.495C93.5563 148.295 92.1244 146.233 93.5571 145.422ZM53.3152 187.688C51.5165 188.165 49.5867 188.365 47.8683 189.093C46.1606 189.811 44.8923 191.244 43.9997 192.799C43.5799 193.538 43.2223 194.313 42.9151 195.103C42.7514 195.53 42.5935 195.963 42.4524 196.4C42.4277 196.493 42.409 196.602 42.3793 196.711C43.7281 195.876 46.4775 194.096 46.8034 193.879C48.3607 192.805 49.9867 191.793 51.7795 191.132C53.5779 190.477 55.512 190.239 57.4075 190.008C58.6065 189.854 59.8168 189.711 61.0215 189.562C61.5797 189.495 62.1379 189.427 62.7014 189.354C62.917 189.331 63.2085 189.251 63.4255 189.271C63.8763 189.315 63.764 189.443 63.8882 189.169C64.0425 188.796 63.7967 187.889 63.7668 187.485C63.7318 186.918 63.6913 186.356 63.6509 185.795C63.5913 184.985 63.537 184.17 63.4827 183.355C60.3153 185.247 56.8959 186.73 53.3152 187.688ZM79.0024 178.285L65.99 182.487C66.1643 184.775 66.4562 187.097 66.4638 189.38C66.4645 189.402 66.4649 189.412 66.4599 189.429C71.3145 189.088 75.9106 186.77 80.6765 185.918C86.2645 184.925 91.9831 184.879 97.5251 183.666C103.326 182.395 108.964 180.388 114.579 178.507C120.369 176.577 126.088 174.475 131.709 172.117C136.29 170.195 140.794 168.118 145.227 165.892C144.534 165.585 143.94 165.064 143.347 164.554C139.048 160.829 135.034 156.808 131.283 152.556C130.665 152.821 130.03 153.08 129.4 153.334C121.779 158.166 114.176 163.046 106.502 167.799C102.309 170.402 97.972 172.159 93.2722 173.68C88.5174 175.213 83.7626 176.746 79.0024 178.285ZM77.561 119.294C78.44 123.631 78.4711 128.169 78.9967 132.561C79.0195 132.75 79.0423 132.939 79.0651 133.127C79.0658 133.149 79.0718 133.165 79.0725 133.186C79.5639 137.547 79.9183 141.961 80.7354 146.273C81.5667 150.682 83.3943 154.846 85.5746 158.766C85.6278 158.867 85.6922 158.968 85.7454 159.069L85.7511 159.074C86.8877 161.097 88.1058 163.069 89.3569 165.029C89.9417 165.951 90.5535 167.024 91.3153 167.929L91.321 167.934C92.0021 168.745 92.8119 169.421 93.8261 169.728C94.2966 169.863 94.5792 170.195 94.702 170.559C96.3041 170.007 97.8937 169.413 99.4419 168.739C99.4473 168.733 99.453 168.739 99.4584 168.733C99.4641 168.738 99.4695 168.733 99.4695 168.733C100.87 168.123 102.24 167.444 103.574 166.648C107.847 164.119 111.991 161.367 116.188 158.716C116.465 158.539 116.748 158.367 117.025 158.19L117.03 158.184C117.036 158.179 117.036 158.179 117.041 158.173C117.933 157.613 118.819 157.048 119.71 156.488C119.254 156.606 118.791 156.719 118.334 156.826C112.471 158.229 106.442 158.977 100.408 159.027C97.7011 159.053 94.9841 158.933 92.2909 158.688C89.8425 158.466 87.3863 158.175 85.8536 156.084C82.5849 151.622 86.2911 145.995 88.7779 142.108C90.8316 138.896 93.2342 135.834 96.1968 133.441L96.2022 133.436C97.3372 132.51 98.5587 131.685 99.8788 130.991C99.9007 130.812 99.9562 130.643 100.067 130.482L100.073 130.476C100.163 130.349 100.276 130.231 100.422 130.135C102.22 128.933 104.017 127.731 105.809 126.524C106.466 126.085 107.112 125.647 107.763 125.214C108.008 125.049 108.263 124.884 108.507 124.719C109.175 124.269 110.681 123.65 110.827 122.872C110.973 122.071 110.511 120.821 110.38 120.03C110.234 119.12 109.981 118.177 109.957 117.252C109.955 117.209 109.96 117.171 109.964 117.133L109.969 117.127C109.985 115.736 110.951 114.395 112.549 114.742C114.131 115.084 115.384 116.962 116.397 118.065C117.059 118.795 117.721 119.535 118.361 120.288C118.973 121.014 119.785 121.766 120.152 122.646C120.856 124.338 119.141 125.678 118.09 126.806C116.589 128.414 115.043 129.992 113.45 131.517C112.567 132.358 111.668 133.194 110.757 134.009C110.245 134.475 109.724 135.017 109.053 135.191C109.007 135.296 108.954 135.395 108.874 135.49C107.943 136.695 106.954 137.848 105.908 138.96C109.72 137.604 113.666 136.611 117.506 135.282C120.37 134.299 122.988 132.923 125.721 131.652C126.011 131.518 126.301 131.384 126.596 131.266C126.602 131.26 126.607 131.266 126.613 131.26C126.613 131.26 126.613 131.26 126.618 131.254C128.72 130.373 130.92 129.769 133.184 129.444C133.314 129.342 133.489 129.261 133.709 129.221C135.611 128.849 137.469 128.31 139.254 127.591C140.098 127.259 140.929 126.885 141.737 126.469C142.147 125.795 143.079 125.439 143.913 125.151C143.148 123.992 142.81 122.624 143.227 121.127C144.053 118.2 147.239 116.546 149.735 115.153C154.263 112.626 159.035 110.583 163.872 108.685C163.894 108.673 163.922 108.667 163.954 108.655L163.96 108.649C166.622 107.608 169.303 106.615 171.972 105.6C175.573 104.241 179.16 102.806 182.834 101.639C183.24 101.506 183.658 101.373 184.08 101.235C184.091 101.234 184.108 101.228 184.124 101.222C184.734 101.023 185.36 100.829 185.997 100.635C186.008 100.634 186.014 100.629 186.025 100.628C188.552 99.8621 191.223 99.2479 193.728 99.5104C195.025 99.6455 196.281 100.047 197.493 100.629L197.498 100.634C197.718 100.74 197.938 100.847 198.158 100.964C198.09 100.901 198.021 100.849 197.947 100.792C197.731 100.626 197.51 100.466 197.283 100.311C193.041 97.3313 188.065 96.156 182.891 97.4221C180.271 98.0616 177.762 99.0545 175.216 99.9189C172.5 100.848 169.721 101.553 166.879 102.032C161.064 103.017 155.301 102.739 149.467 102.122C143.159 101.462 136.623 100.751 130.559 102.977C130.44 103.078 130.293 103.164 130.123 103.219C122.625 105.699 114.93 107.926 107.003 108.483C98.9542 109.045 90.9721 107.391 82.9257 107.682C80.7643 107.754 78.596 107.957 76.4748 108.412C75.3015 108.673 73.9624 108.951 72.7629 109.429C75.1422 112.303 76.8151 115.634 77.561 119.294Z" fill="#1E1E1E"/>
<path d="M258.302 118.775C258.51 119.185 258.755 119.577 258.912 119.961C259.206 120.628 259.466 121.306 259.672 122.008C259.867 122.699 260.017 123.392 260.134 124.097C263.511 122.502 266.71 120.555 269.597 118.218C270.732 117.304 271.898 116.302 273.386 115.982C274.107 115.822 274.886 115.872 275.567 116.168C276.225 116.455 276.767 117.254 277.504 116.877C278.257 116.506 278.24 115.619 278.018 114.945C277.901 114.586 277.695 114.22 277.457 113.919C276.937 113.255 276.794 113.314 276.014 113.535C274.639 113.916 258.662 119.104 258.302 118.775Z" fill="white"/>
<path d="M91.321 167.933C92.0021 168.744 92.8119 169.42 93.8261 169.727C94.2965 169.863 94.5792 170.194 94.702 170.558C96.3041 170.007 97.8937 169.413 99.4419 168.738C96.6194 169.466 93.6742 169.494 91.321 167.933Z" fill="white"/>
<path d="M79.0724 133.186C79.5638 137.547 79.9182 141.961 80.7353 146.273C81.5666 150.682 83.3943 154.846 85.5746 158.766C85.6278 158.867 85.6921 158.968 85.7453 159.069C85.0099 157.097 84.406 155.077 83.8343 153.192C82.4852 148.73 81.3174 144.214 80.3317 139.664C79.8677 137.51 79.4535 135.349 79.0724 133.186Z" fill="white"/>
<path d="M172.571 122.834C172.564 123.278 172.601 123.732 172.569 124.133C172.52 124.843 172.438 125.544 172.3 126.247C172.161 126.928 171.977 127.599 171.76 128.261C175.413 128.323 179.07 128.001 182.634 127.205C184.033 126.898 185.497 126.525 186.934 126.882C187.633 127.059 188.284 127.433 188.74 127.985C189.184 128.517 189.292 129.444 190.102 129.438C190.923 129.433 191.314 128.657 191.425 127.971C191.48 127.612 191.466 127.202 191.399 126.836C191.245 126.035 191.095 126.024 190.319 125.882C188.149 125.505 185.979 125.14 183.808 124.763L172.571 122.834Z" fill="white"/>
<path d="M65.9903 182.487C66.1646 184.775 66.4565 187.097 66.4642 189.38C66.4649 189.402 66.4652 189.413 66.4602 189.429C71.3148 189.088 75.911 186.77 80.6768 185.918C86.2648 184.925 91.9834 184.88 97.5254 183.666C103.326 182.395 108.964 180.389 114.579 178.507C120.369 176.577 126.088 174.476 131.709 172.118C136.29 170.195 140.794 168.118 145.227 165.892C144.535 165.586 143.941 165.064 143.347 164.554C139.048 160.829 135.034 156.808 131.284 152.557C130.665 152.821 130.03 153.08 129.4 153.334C121.779 158.166 114.176 163.047 106.502 167.8C102.309 170.402 97.9723 172.159 93.2725 173.68C88.5177 175.213 83.7629 176.747 79.0027 178.286L65.9903 182.487Z" fill="white"/>
<path d="M91.9124 141.927C90.5562 143.899 89.2811 145.976 88.2355 148.116C87.2787 150.085 86.5379 152.555 87.8784 154.534C89.1777 156.443 92.4222 156.237 94.5127 156.373C96.8538 156.538 99.2076 156.579 101.552 156.516C106.348 156.394 111.151 155.849 115.846 154.848C120.055 153.949 124.187 152.696 128.186 151.123L129.903 150.038C129.544 147.182 129.923 144.34 130.58 141.51C130.999 139.721 131.491 137.946 131.955 136.167C132.295 134.873 132.814 133.428 132.858 132.03C127.663 133.005 123.286 135.932 118.31 137.652C112.851 139.539 107.079 140.668 101.922 143.324C101.6 143.492 101.279 143.513 100.994 143.452C99.101 144.944 97.0923 146.299 94.9785 147.495C93.5565 148.295 92.1246 146.233 93.5574 145.422C98.6132 142.569 103.002 138.824 106.578 134.316C106.408 134.192 106.237 134.068 106.073 133.96C105.138 133.347 104.181 132.779 103.204 132.233C98.3409 134.024 94.7579 137.812 91.9124 141.927Z" fill="white"/>
<path d="M135.357 131.407C135.505 134.426 134.214 137.548 133.486 140.407C132.639 143.714 131.853 147.193 132.563 150.588C132.569 150.593 132.569 150.593 132.569 150.604C132.837 150.66 133.091 150.798 133.304 151.034C136.611 154.797 140.156 158.358 143.92 161.689C144.703 162.383 145.734 163.722 146.87 163.668C148.033 163.608 149.257 163.215 150.386 162.944C152.252 162.487 154.087 161.928 155.891 161.278C154.588 158.757 153.324 156.218 152.109 153.662C150.776 154.459 149.02 155.248 147.67 154.833C146.745 154.545 146.313 153.71 145.85 152.941C145.31 152.05 144.787 151.153 144.335 150.216C143.854 149.231 143.29 148.119 143.216 147.012C143.21 147.007 143.21 147.007 143.21 147.007L143.21 146.996C143 146.343 142.839 145.662 142.727 144.962C142.483 143.417 144.056 141.969 145.561 141.864C146.082 141.825 146.55 141.907 146.961 142.093C145.589 138.774 144.292 135.42 143.067 132.036C142.744 131.132 142.425 130.223 142.107 129.314C142.083 129.25 142.053 129.181 142.028 129.106C139.892 130.113 137.676 130.891 135.357 131.407Z" fill="white"/>
<path d="M146.111 120.896C146.643 121.906 146.654 123.091 146.273 124.159C146.718 124.723 147.31 125.19 147.888 125.539C153.079 128.714 159.587 127.365 165.338 127.13C166.829 127.063 169.045 127.649 169.705 125.945C169.905 125.435 169.942 124.871 169.974 124.323L170.085 122.61C170.134 121.721 167.74 120.795 167.071 120.53C165.761 120.006 164.37 119.701 162.967 119.553C162.332 119.477 161.693 119.439 161.082 119.248C160.348 119.029 159.487 118.485 159.454 117.658C159.433 117.177 159.723 116.707 160.166 116.503C160.756 116.235 161.173 116.583 161.7 116.771C162.644 117.118 163.542 117.099 164.516 117.202C165.485 117.299 166.421 117.598 167.304 117.974C168.536 118.49 169.689 119.144 170.921 119.649C174.806 121.245 179.162 121.256 183.289 122.098L183.295 122.092C184.071 120.703 185.001 119.465 186.119 118.681L186.124 118.675C186.388 118.277 186.721 117.919 187.099 117.615C188.392 116.592 190.101 116.421 191.542 117.222C192.937 118.004 193.794 119.436 194.477 120.803C195.468 122.81 196.405 124.84 197.37 126.864C198.222 128.659 199.112 130.447 199.948 132.258C199.959 132.269 199.965 132.285 199.971 132.301C199.995 132.343 200.013 132.391 200.031 132.439C200.096 132.551 200.155 132.668 200.198 132.791C200.204 132.796 200.199 132.802 200.204 132.807C200.258 132.919 200.306 133.036 200.36 133.148C201.107 134.817 201.651 136.676 201.227 138.503C200.297 142.478 196.226 142.863 192.801 141.95C188.021 140.67 183.063 139.354 178.626 137.181C178.056 136.903 177.653 136.094 178.028 135.513C178.059 135.469 178.08 135.425 178.112 135.381C177.751 133.845 178.787 132.074 179.71 130.252C178.379 130.443 177.035 130.58 175.689 130.662C174.078 130.765 172.304 130.981 170.727 130.58C169.882 130.364 169.103 129.958 168.263 129.726C167.418 129.5 166.486 129.499 165.609 129.496C163.606 129.492 161.63 129.807 159.636 129.907C156.346 130.071 152.984 130.075 149.812 129.099C149.145 128.889 148.482 128.64 147.84 128.348C147.119 128.015 146.407 127.595 145.752 127.092C145.671 127.155 145.584 127.201 145.48 127.242C145.162 127.372 144.845 127.502 144.532 127.626L144.324 127.708C144.319 127.725 144.314 127.741 144.303 127.752C144.518 128.367 144.797 129.272 144.852 129.427C145.414 131.021 145.987 132.603 146.582 134.174C147.742 137.257 148.962 140.311 150.248 143.341C152.802 149.375 155.613 155.308 158.654 161.126C164.596 159.764 170.376 157.844 176.157 155.946C182.371 153.91 188.572 151.819 194.726 149.612C200.939 147.385 207.086 144.994 213.174 142.464C221.508 138.219 229.907 133.939 238.905 131.193C243.372 129.826 248.014 129.092 252.381 127.403C254.386 126.633 256.338 125.751 258.32 124.927C257.269 123.496 256.626 121.64 256.017 120.129C255.92 119.894 255.834 119.637 255.77 119.38C255.026 119.529 254.282 119.668 253.554 119.811C249.392 120.637 245.236 121.469 241.074 122.296C232.899 123.927 224.713 125.559 216.533 127.186C216.349 127.343 216.097 127.449 215.781 127.454C212.794 127.538 209.825 127.87 206.905 128.487C206.442 128.589 206.044 128.456 205.753 128.212C204.973 128.108 204.265 127.347 204.714 126.456C205.823 124.227 206.865 122.147 207.351 119.707C207.691 118.024 208.081 116.366 209.05 114.943C205.395 110.223 201.36 105.05 195.699 102.61C192.66 101.294 189.421 102.344 186.392 103.187C183.103 104.098 179.913 105.276 176.728 106.481C170.135 108.968 163.46 111.329 157.058 114.254C153.952 115.667 150.751 117.192 147.963 119.157C147.301 119.623 146.577 120.199 146.111 120.896Z" fill="white"/>
<path d="M153.671 95.0733C157.616 95.412 161.59 95.3061 165.511 94.742C166.047 94.6646 166.53 95.2003 166.546 95.6867C166.565 96.2596 166.11 96.621 165.575 96.6985C161.654 97.2625 157.685 97.3737 153.735 97.0298C153.201 96.9827 152.718 96.658 152.7 96.0851C152.684 95.6095 153.126 95.0266 153.671 95.0733Z" fill="#FBB03B"/>
<path d="M169.235 164.061C173.186 162.706 177.136 161.34 181.087 159.985C182.305 159.566 182.876 161.44 181.658 161.86C177.708 163.215 173.757 164.581 169.807 165.935C168.589 166.355 168.017 164.48 169.235 164.061Z" fill="white"/>
<path d="M268.327 109.025C269.84 108.309 271.401 107.688 273 107.197C274.5 106.741 276.094 106.298 277.683 106.353C280.66 106.47 283.189 108.149 285.358 110.002C286.333 110.83 284.96 112.261 283.984 111.433C282.209 109.918 280.05 108.346 277.58 108.315C276.181 108.297 274.807 108.7 273.484 109.107C272.077 109.543 270.702 110.071 269.369 110.7C268.882 110.927 268.292 110.86 267.993 110.378C267.73 109.959 267.835 109.258 268.327 109.025Z" fill="white"/>
<path d="M67.881 113.521C68.3818 113.223 68.9319 113.421 69.2564 113.843C70.7152 115.709 71.8113 117.853 72.4784 120.109C72.8035 121.234 73.0356 122.4 73.1401 123.566C73.2513 124.769 73.1055 125.915 72.333 126.899C72.0028 127.321 71.2802 127.28 70.9142 126.946C70.4854 126.555 70.539 125.985 70.8692 125.562C71.3591 124.929 71.1694 123.875 71.0794 123.153C70.9526 122.156 70.7151 121.163 70.4063 120.2C69.7831 118.267 68.7983 116.477 67.5421 114.869C67.2176 114.447 67.4511 113.779 67.881 113.521Z" fill="#1E1E1E"/>
<path d="M93.4553 189.369C94.1 189.402 94.7439 189.413 95.3864 189.381C95.7132 189.364 96.0508 189.337 96.3769 189.299C96.5317 189.283 96.6866 189.267 96.8467 189.245C96.9351 189.231 97.018 189.223 97.1063 189.209C97.1285 189.209 97.145 189.203 97.1725 189.196C97.1779 189.191 97.1889 189.19 97.2111 189.19C98.5023 188.973 99.7611 188.612 100.966 188.117C101.453 187.922 102.092 188.296 102.213 188.773C102.353 189.331 102.057 189.785 101.537 189.992C99.0182 191.017 96.2423 191.473 93.5132 191.321C92.9909 191.295 92.4744 190.939 92.4783 190.376C92.4903 189.894 92.894 189.339 93.4553 189.369Z" fill="#1E1E1E"/>
<path d="M124.132 207.107C125.932 206.987 172.422 206.003 191.063 207.246C191.419 207.286 191.714 207.355 191.989 207.614C192.213 207.832 192.385 208.2 192.365 208.518C192.335 209.135 191.785 209.88 191.063 209.791C164.731 208.003 125.932 209.532 124.132 209.652C123.451 209.701 122.8 209.035 122.831 208.379C122.861 207.654 123.4 207.156 124.132 207.107Z" fill="#1E1E1E"/>
</svg>
