<svg width="395" height="368" viewBox="0 0 395 368" fill="none" xmlns="http://www.w3.org/2000/svg">
<path d="M314.427 22.2556C355.056 40.8378 393.288 73.039 394.879 109.419C396.47 145.799 361.42 186.379 344.161 230.879C326.641 275.111 326.641 323.015 303.804 346.839C280.706 370.662 234.499 370.136 191.756 365.421C149.274 360.448 109.975 351.286 75.9914 331.135C41.7364 310.985 12.5361 279.836 3.50414 244.23C-5.78962 208.366 5.36692 168.054 19.7053 130.364C34.3054 92.6734 52.0975 57.5935 80.7742 35.0805C109.451 12.5674 148.751 2.62115 189.903 0.526678C231.055 -1.82588 273.809 3.40533 314.427 22.2556Z" fill="#F8F8F8"/>
<path d="M289.854 276.697C287.47 274.778 284.53 273.841 281.511 273.163C280.753 272.745 279.871 273.033 279.391 273.682C278.354 275.096 277.518 276.624 276.775 278.182C276.373 279.048 275.986 279.913 275.599 280.793C275.243 281.615 274.748 282.466 275.011 283.389C275.321 284.442 276.342 284.817 277.317 285.192C278.215 285.538 279.113 285.884 280.026 286.216C281.883 286.894 283.756 287.514 285.659 288.077C286.139 288.221 286.836 288.077 287.161 287.702C288.321 286.36 288.615 284.658 288.941 283C289.266 281.341 289.575 279.682 290.241 278.096C290.442 277.663 290.241 277 289.854 276.697ZM279.453 282.899C279.082 282.755 278.71 282.61 278.339 282.466C278.308 282.452 278.277 282.437 278.246 282.423C278.478 281.932 278.664 281.384 278.865 280.923C279.143 280.274 279.438 279.639 279.747 279.004C280.242 278.009 280.815 277.043 281.419 276.091C283.353 276.552 285.303 277.129 286.944 278.197C286.542 279.365 286.294 280.562 286.062 281.774C285.922 282.509 285.768 283.245 285.597 283.981C285.536 284.255 285.474 284.586 285.365 284.904C284.143 284.514 282.904 284.139 281.697 283.706C280.939 283.461 280.196 283.187 279.453 282.899Z" fill="#FBB03B"/>
<path d="M265.058 256.913C265.512 253.918 264.813 250.994 263.846 248.147C263.821 247.298 263.109 246.729 262.289 246.685C260.505 246.596 258.725 246.735 256.967 246.966C255.996 247.102 255.033 247.252 254.057 247.409C253.148 247.561 252.142 247.613 251.465 248.328C250.698 249.151 250.897 250.193 251.072 251.198C251.233 252.122 251.393 253.047 251.575 253.977C251.94 255.87 252.365 257.744 252.857 259.613C252.978 260.085 253.467 260.58 253.966 260.644C255.749 260.874 257.401 260.196 259.031 259.568C260.661 258.939 262.283 258.297 264.026 257.987C264.512 257.919 264.992 257.395 265.058 256.913ZM254.2 251.714C254.135 251.331 254.069 250.948 254.004 250.565C254 250.531 253.997 250.498 253.994 250.465C254.546 250.391 255.125 250.247 255.636 250.164C256.353 250.042 257.064 249.941 257.784 249.852C258.918 249.722 260.066 249.671 261.218 249.653C261.814 251.492 262.317 253.407 262.228 255.332C260.99 255.632 259.807 256.075 258.619 256.539C257.898 256.822 257.17 257.092 256.434 257.349C256.16 257.447 255.836 257.575 255.5 257.657C255.209 256.442 254.897 255.221 254.653 253.995C254.475 253.24 254.332 252.481 254.2 251.714Z" fill="#DCDCDC"/>
<path d="M364.534 22.3639C364.988 19.3684 364.289 16.4448 363.321 13.5978C363.296 12.7485 362.585 12.1791 361.764 12.1354C359.981 12.0465 358.2 12.1854 356.443 12.4162C355.472 12.5529 354.509 12.7023 353.533 12.8595C352.624 13.011 351.617 13.0636 350.94 13.7785C350.173 14.6017 350.373 15.6439 350.548 16.648C350.708 17.5729 350.869 18.4977 351.05 19.4275C351.416 21.3204 351.841 23.1948 352.332 25.0634C352.454 25.5357 352.942 26.0303 353.441 26.0949C355.225 26.3245 356.877 25.6468 358.507 25.018C360.137 24.3892 361.759 23.7476 363.502 23.4377C363.987 23.3693 364.467 22.8455 364.534 22.3639ZM353.676 17.1648C353.61 16.7816 353.545 16.3984 353.479 16.0151C353.476 15.9819 353.473 15.9486 353.469 15.9154C354.022 15.8413 354.601 15.6979 355.112 15.614C355.828 15.4924 356.54 15.3913 357.259 15.3029C358.393 15.1724 359.541 15.1211 360.693 15.1031C361.29 16.9427 361.793 18.8573 361.703 20.7824C360.465 21.0827 359.282 21.5258 358.094 21.9895C357.374 22.2723 356.645 22.5424 355.909 22.7998C355.636 22.897 355.311 23.0253 354.975 23.1077C354.684 21.8922 354.373 20.6719 354.128 19.4458C353.951 18.69 353.807 17.9313 353.676 17.1648Z" fill="#DCDCDC"/>
</svg>
