<svg width="41" height="36" viewBox="0 0 41 36" fill="none" xmlns="http://www.w3.org/2000/svg">
<path d="M20.9279 17.8207C19.5892 13.8044 16.2019 10.6255 11.929 10.6836C11.9317 9.81479 11.2209 8.93278 10.1942 9.31023C7.07462 10.4587 4.80352 13.46 4.35566 16.8229C3.87034 20.4638 5.21761 24.3969 7.80231 26.9612C10.5031 29.6703 14.8918 29.5227 17.9788 27.5903C19.4447 26.6769 20.6102 25.2296 21.1574 23.5567C21.7745 21.7005 21.547 19.6595 20.9279 17.8207ZM17.1314 24.8412C15.2462 26.3997 11.9168 26.9538 9.94748 25.2495C7.99232 23.5582 6.89888 20.7409 6.9213 18.1475C6.94695 15.609 8.38862 13.139 10.6538 12.0959C10.7209 12.7814 11.1767 13.444 12.036 13.421C14.6952 13.3613 16.9044 15.2583 17.9863 17.6489C19.0831 20.0662 19.3371 23.0157 17.1314 24.8412Z" fill="#1E1E1E"/>
<path d="M37.2233 24.5232C37.127 24.5004 37.0163 24.4643 36.9191 24.4273C36.9056 24.4281 36.9056 24.4281 36.9056 24.4281C36.9056 24.4281 36.9056 24.4281 36.8921 24.4289C36.7113 24.3541 36.544 24.2786 36.3759 24.1888C36.2078 24.0991 36.0388 23.9952 35.8834 23.8905C35.8691 23.8771 35.799 23.8385 35.7702 23.8117C35.7272 23.7716 35.614 23.6929 35.5996 23.6795C35.2998 23.4267 35.0127 23.159 34.7517 22.8755C34.7078 22.8212 34.6648 22.781 34.6209 22.7267C34.6065 22.7133 34.5474 22.6314 34.5179 22.5904C34.4005 22.4408 34.2823 22.277 34.1642 22.1131C33.3167 20.8538 32.826 19.4311 32.4233 17.8895C33.5042 16.8868 34.2373 15.5061 34.6805 14.0428C35.2619 12.1587 35.3324 9.66428 34.2148 7.96542C33.126 6.29334 31.0662 5.41827 29.2401 5.05598C27.1377 4.61032 24.9113 4.82653 22.9414 5.71072C22.2667 6.00651 21.8485 6.74259 22.0972 7.51063C22.1798 7.76192 22.3555 7.97928 22.5691 8.15172C22.5581 8.19505 22.5471 8.23839 22.5496 8.28094C22.4807 9.87876 22.7633 11.4559 22.9784 13.0371C23.2136 14.7308 23.4083 16.427 23.5497 18.1406C23.8587 21.5519 23.9919 24.9735 23.9764 28.4039C23.9748 30.2254 26.6795 30.0665 26.681 28.2449C26.6885 25.37 26.5734 22.488 26.3645 19.6258C27.5756 19.6827 28.8189 19.5955 29.9661 19.2577C30.4295 20.9096 31.0536 22.5236 32.0438 23.9027C33.2113 25.5274 34.7772 26.773 36.6547 27.3173C37.3442 27.5045 38.14 26.9597 38.2598 26.2269C38.3889 25.4224 37.9542 24.7222 37.2233 24.5232ZM26.1134 16.7377C25.9834 15.4503 25.8535 14.163 25.683 12.8781C25.468 11.297 25.1861 9.73401 25.2543 8.122C25.2636 8.0503 25.2459 7.98019 25.2426 7.92346C26.4861 7.60848 27.7598 7.57632 29.0399 7.88531C29.8241 8.06691 30.6572 8.38794 31.3084 8.84772C31.9605 9.32169 32.2533 9.91638 32.3286 10.7373C32.4861 12.4926 31.9155 14.561 30.6291 15.7608C30.0243 16.3228 29.2229 16.5407 28.4419 16.6435C27.6625 16.7747 26.8892 16.7774 26.1134 16.7377Z" fill="#1E1E1E"/>
<path d="M10.0522 32.7842C9.73862 32.7221 9.42423 32.6465 9.12113 32.5434C9.04233 32.5212 8.96354 32.499 8.89682 32.4626C8.8703 32.4507 8.84456 32.4522 8.8309 32.4396C8.8309 32.4396 8.81803 32.4404 8.81724 32.427C8.67173 32.3684 8.51336 32.3105 8.36706 32.2385C7.75772 31.9789 7.17254 31.6909 6.59866 31.3754C6.06575 31.0978 5.54335 30.7793 5.04591 30.4459C5.03225 30.4333 5.03304 30.4466 5.03225 30.4333C4.97762 30.3827 4.91091 30.3464 4.85628 30.2959C4.72129 30.1963 4.5855 30.0834 4.46259 29.9698C4.21755 29.7558 3.9846 29.5278 3.77659 29.2848C3.31962 28.761 2.37035 28.8705 1.96186 29.3914C1.48086 29.9972 1.57561 30.7304 2.07277 31.2787C3.01324 32.3383 4.234 33.1127 5.46056 33.7659C6.7667 34.4547 8.12196 35.1004 9.55973 35.392C10.2263 35.5274 10.9758 35.0939 11.0877 34.362C11.1635 33.6725 10.7582 32.9308 10.0522 32.7842Z" fill="#FBB03B"/>
<path d="M38.9038 5.53194C37.7799 3.41599 36.2452 1.32418 34.0577 0.456017C33.7253 0.32739 33.4334 0.250259 33.091 0.378128C32.8094 0.475493 32.5123 0.735394 32.3803 1.03948C32.249 1.35698 32.1964 1.73721 32.3165 2.08034C32.4218 2.38395 32.6423 2.73465 32.9366 2.85205C33.167 2.94626 33.3982 3.0539 33.6178 3.17569C33.7338 3.23622 33.8373 3.29748 33.9417 3.37216C33.9938 3.4095 34.1246 3.50957 34.1628 3.52079C34.5171 3.80976 34.8465 4.10019 35.1667 4.44505C35.2469 4.53462 35.3147 4.62492 35.3949 4.71449C35.4354 4.76598 35.4759 4.81748 35.5032 4.85629C35.666 5.07569 35.8296 5.30852 35.9808 5.54208C36.2831 6.0092 36.5621 6.50463 36.8294 7.01422C37.1529 7.62826 38.0503 7.8045 38.5636 7.3972C39.1493 6.94524 39.2545 6.18479 38.9038 5.53194Z" fill="#FBB03B"/>
</svg>
