<svg width="41" height="36" viewBox="0 0 41 36" fill="none" xmlns="http://www.w3.org/2000/svg">
<path d="M20.9281 17.8207C19.5893 13.8044 16.202 10.6255 11.9291 10.6836C11.9318 9.81479 11.2211 8.93278 10.1943 9.31023C7.07474 10.4587 4.80365 13.46 4.35578 16.8229C3.87046 20.4638 5.21773 24.3969 7.80243 26.9612C10.5032 29.6703 14.8919 29.5227 17.9789 27.5903C19.4448 26.6769 20.6104 25.2296 21.1575 23.5567C21.7746 21.7005 21.5471 19.6595 20.9281 17.8207ZM17.1315 24.8412C15.2463 26.3997 11.917 26.9538 9.9476 25.2495C7.99244 23.5582 6.899 20.7409 6.92142 18.1475C6.94707 15.609 8.38874 13.139 10.6539 12.0959C10.721 12.7814 11.1769 13.444 12.0362 13.421C14.6953 13.3613 16.9046 15.2583 17.9864 17.6489C19.0832 20.0662 19.3372 23.0157 17.1315 24.8412Z" fill="white"/>
<path d="M37.2234 24.5232C37.1271 24.5004 37.0164 24.4643 36.9193 24.4273C36.9057 24.4281 36.9057 24.4281 36.9057 24.4281C36.9057 24.4281 36.9057 24.4281 36.8922 24.4289C36.7114 24.3541 36.5441 24.2786 36.376 24.1888C36.2079 24.0991 36.039 23.9952 35.8835 23.8905C35.8692 23.8771 35.7991 23.8385 35.7704 23.8117C35.7273 23.7716 35.6141 23.6929 35.5997 23.6795C35.2999 23.4267 35.0128 23.159 34.7519 22.8755C34.708 22.8212 34.6649 22.781 34.621 22.7267C34.6066 22.7133 34.5475 22.6314 34.518 22.5904C34.4006 22.4408 34.2825 22.277 34.1643 22.1131C33.3168 20.8538 32.8261 19.4311 32.4234 17.8895C33.5043 16.8868 34.2374 15.5061 34.6806 14.0428C35.262 12.1587 35.3325 9.66428 34.2149 7.96542C33.1261 6.29334 31.0663 5.41827 29.2402 5.05598C27.1378 4.61032 24.9115 4.82653 22.9415 5.71072C22.2668 6.00651 21.8487 6.74259 22.0974 7.51063C22.18 7.76192 22.3556 7.97928 22.5693 8.15172C22.5582 8.19505 22.5472 8.23839 22.5497 8.28094C22.4808 9.87876 22.7634 11.4559 22.9785 13.0371C23.2137 14.7308 23.4084 16.427 23.5498 18.1406C23.8588 21.5519 23.992 24.9735 23.9765 28.4039C23.975 30.2254 26.6796 30.0665 26.6811 28.2449C26.6886 25.37 26.5735 22.488 26.3646 19.6258C27.5757 19.6827 28.819 19.5955 29.9662 19.2577C30.4296 20.9096 31.0537 22.5236 32.044 23.9027C33.2115 25.5274 34.7774 26.773 36.6549 27.3173C37.3444 27.5045 38.1401 26.9597 38.2599 26.2269C38.389 25.4224 37.9544 24.7222 37.2234 24.5232ZM26.1135 16.7377C25.9836 15.4503 25.8536 14.163 25.6831 12.8781C25.4681 11.297 25.1863 9.73401 25.2544 8.122C25.2637 8.0503 25.246 7.98019 25.2427 7.92346C26.4862 7.60848 27.7599 7.57632 29.0401 7.88531C29.8242 8.06691 30.6573 8.38794 31.3085 8.84772C31.9606 9.32169 32.2534 9.91638 32.3288 10.7373C32.4862 12.4926 31.9157 14.561 30.6292 15.7608C30.0244 16.3228 29.223 16.5407 28.442 16.6435C27.6626 16.7747 26.8893 16.7774 26.1135 16.7377Z" fill="white"/>
<path d="M10.0521 32.7842C9.7385 32.7221 9.4241 32.6465 9.121 32.5434C9.04221 32.5212 8.96341 32.499 8.8967 32.4626C8.87017 32.4507 8.84443 32.4522 8.83078 32.4396C8.83078 32.4396 8.81791 32.4404 8.81712 32.427C8.67161 32.3684 8.51323 32.3105 8.36694 32.2385C7.75759 31.9789 7.17242 31.6909 6.59854 31.3754C6.06563 31.0978 5.54323 30.7793 5.04579 30.4459C5.03213 30.4333 5.03292 30.4466 5.03213 30.4333C4.9775 30.3827 4.91079 30.3464 4.85616 30.2959C4.72116 30.1963 4.58538 30.0834 4.46247 29.9698C4.21743 29.7558 3.98447 29.5278 3.77647 29.2848C3.3195 28.761 2.37023 28.8705 1.96174 29.3914C1.48074 29.9972 1.57549 30.7304 2.07264 31.2787C3.01312 32.3383 4.23388 33.1127 5.46044 33.7659C6.76657 34.4547 8.12183 35.1004 9.55961 35.392C10.2262 35.5274 10.9756 35.0939 11.0876 34.362C11.1633 33.6725 10.7581 32.9308 10.0521 32.7842Z" fill="#FBB03B"/>
<path d="M38.9038 5.53194C37.7799 3.41599 36.2452 1.32418 34.0577 0.456017C33.7253 0.32739 33.4334 0.250259 33.091 0.378128C32.8094 0.475493 32.5123 0.735394 32.3803 1.03948C32.249 1.35698 32.1964 1.73721 32.3165 2.08034C32.4218 2.38395 32.6423 2.73465 32.9366 2.85205C33.167 2.94626 33.3982 3.0539 33.6178 3.17569C33.7338 3.23622 33.8373 3.29748 33.9417 3.37216C33.9938 3.4095 34.1246 3.50957 34.1628 3.52079C34.5171 3.80976 34.8465 4.10019 35.1667 4.44505C35.2469 4.53462 35.3147 4.62492 35.3949 4.71449C35.4354 4.76598 35.4759 4.81748 35.5032 4.85629C35.666 5.07569 35.8296 5.30852 35.9808 5.54208C36.2831 6.0092 36.5621 6.50463 36.8294 7.01422C37.1529 7.62826 38.0503 7.8045 38.5636 7.3972C39.1493 6.94524 39.2545 6.18479 38.9038 5.53194Z" fill="#FBB03B"/>
</svg>
