<svg width="1366" height="103" viewBox="0 0 1366 103" fill="none" xmlns="http://www.w3.org/2000/svg">
<path d="M1643 112V0.379582C1642.36 0.382426 1641.72 0.388115 1641.09 0.390959C1565.81 0.814723 1490.12 0.86876 1414.62 0.726557C1376.34 0.655456 1338.08 0.536005 1299.86 0.388115C1262.72 0.245912 1225.56 0.0155432 1188.32 0.00132296C1115.63 -0.0328057 1043.47 0.601419 971.138 0.97399C934.586 1.1617 897.897 1.28399 861.209 1.22142C825.265 1.1617 789.913 0.834631 754.288 0.555914C720.805 0.294261 687.185 0.143526 653.505 0.345454C617.5 0.561602 581.951 1.06784 546.037 1.34941C510.215 1.63097 474.802 1.69922 438.98 1.4006C402.702 1.09628 366.606 0.695273 330.191 0.453528C256.905 -0.0384938 183.619 0.703805 110.379 0.939861C34.1457 1.18445 -41.7379 0.840319 -117.789 0.533161C-160.311 0.353986 -203.015 0.163434 -245.598 0.291417C-256.05 0.325545 -266.563 0.37105 -277 0.453528V112H1643Z" fill="#1E1E1E"/>
<path d="M1254.56 93.1262C1254.39 92.4908 1253.95 91.9388 1253.44 91.5915C1253.4 91.4366 1253.35 91.3227 1253.3 91.2088C1252.79 90.2493 1252.05 89.5281 1251.14 89.1182C1250.71 88.6642 1250.09 88.3666 1249.46 88.5424C1249.31 88.5761 1249.14 88.6507 1248.99 88.6844C1247.8 88.7744 1246.65 89.3538 1245.85 90.5919C1244.43 92.7158 1245.29 95.1828 1247 96.6235C1247.07 97.6433 1247.88 98.6741 1249.16 98.4774C1249.51 98.426 1249.91 98.3498 1250.27 98.2574C1250.84 98.3432 1251.46 98.1675 1251.93 97.7887C1252.62 97.6859 1253.31 97.4443 1253.89 97.1546C1255.41 96.3441 1255.51 94.4009 1254.56 93.1262Z" fill="white" fill-opacity="0.25"/>
<path d="M236.332 38.4145C236.081 38.5066 235.881 38.6744 235.696 38.8754C235.163 38.7175 234.534 38.8788 234.155 39.4425C233.568 40.3356 234.098 41.3445 234.774 41.9721C236.113 43.194 238.431 42.9923 239.067 41.129C239.686 39.4512 237.999 37.7325 236.332 38.4145Z" fill="white" fill-opacity="0.25"/>
<path d="M218.17 58.3862C217.909 57.7319 217.257 57.2515 216.548 57.2708C216.109 57.2881 215.658 57.548 215.315 57.8785C214.414 57.9038 213.509 58.6424 213.451 59.6365C213.408 60.3072 213.772 60.975 214.316 61.3848C214.931 61.8226 215.64 61.8034 216.32 61.5799C217.587 61.0956 218.773 59.8368 218.17 58.3862Z" fill="white" fill-opacity="0.25"/>
<path d="M475.064 38.0222C474.892 37.3868 474.455 36.8348 473.94 36.4875C473.907 36.3326 473.858 36.2187 473.809 36.1048C473.298 35.1453 472.556 34.4241 471.648 34.0142C471.22 33.5602 470.593 33.2626 469.969 33.4384C469.817 33.4721 469.649 33.5467 469.497 33.5804C468.304 33.6704 467.154 34.2498 466.353 35.4879C464.933 37.6118 465.791 40.0788 467.508 41.5195C467.579 42.5393 468.387 43.5701 469.668 43.3734C470.012 43.322 470.412 43.2458 470.772 43.1534C471.342 43.2392 471.965 43.0634 472.436 42.6847C473.124 42.5819 473.819 42.3403 474.394 42.0506C475.911 41.2401 476.01 39.2969 475.064 38.0222Z" fill="white" fill-opacity="0.25"/>
<path d="M221.117 17.9019C221.038 16.6331 219.962 15.5709 218.881 15.0841C216.914 14.1613 214.763 16.3824 215.038 18.3344C214.538 18.9322 214.46 19.8361 215.053 20.5403C215.947 21.5847 217.761 21.2915 218.887 20.889C220.168 20.4378 221.196 19.3086 221.117 17.9019Z" fill="white" fill-opacity="0.25"/>
<path d="M180.521 34.7234C180.386 32.5451 178.539 30.7216 176.682 29.8858C173.306 28.3016 169.614 32.1147 170.085 35.466C169.227 36.4923 169.093 38.044 170.111 39.253C171.646 41.046 174.759 40.5426 176.694 39.8516C178.892 39.0771 180.658 37.1384 180.521 34.7234Z" fill="white" fill-opacity="0.25"/>
<path d="M360.022 67.6656C359.846 66.5568 359.031 65.6648 358.027 65.2638C355.897 64.4136 354.088 65.8627 352.857 67.4956C352.214 68.3244 352.407 69.6289 353.236 70.2434C353.422 70.3645 353.567 70.4696 353.783 70.5089C354.197 71.2405 354.906 71.8069 355.748 71.9071C356.806 72.0465 357.869 71.5739 358.657 70.8501C359.542 70.1175 360.231 68.9292 360.022 67.6656Z" fill="white" fill-opacity="0.25"/>
<path d="M1106.62 24.4861C1106.4 23.9735 1106 23.5764 1105.55 23.3021C1104.87 22.4172 1103.69 22.3684 1102.85 22.9782L1101.52 23.9099C1100.94 23.9629 1100.51 24.3577 1100.2 24.8006L1100.14 24.8255C1099.18 25.526 1098.33 26.4134 1098.51 27.7589C1098.67 28.9086 1099.46 29.8415 1100.53 30.2177C1101.63 30.6099 1102.74 30.2511 1103.67 29.6324C1105.27 28.6173 1107.57 26.6097 1106.62 24.4861Z" fill="white" fill-opacity="0.25"/>
<path d="M555.117 53.6287C554.898 53.1161 554.494 52.719 554.044 52.4446C553.365 51.5598 552.178 51.511 551.341 52.1208L550.009 53.0525C549.433 53.1055 549.003 53.5003 548.693 53.9432L548.637 53.968C547.672 54.6686 546.821 55.556 546.998 56.9015C547.159 58.0511 547.958 58.9841 549.018 59.3603C550.119 59.7525 551.23 59.3937 552.164 58.775C553.759 57.7599 556.061 55.7523 555.117 53.6287Z" fill="white" fill-opacity="0.25"/>
<path d="M1119.02 89.1057C1117.36 87.738 1115.06 86.6279 1113.01 87.6053C1112.05 88.0692 1111.66 89.19 1112.02 90.1832C1111.67 90.3734 1111.37 90.6775 1111.14 91.1525C1110.22 93.2891 1111.3 95.7954 1113.31 96.8341C1115.4 97.905 1117.88 97.104 1119.44 95.4607C1121.36 93.4884 1121.11 90.8866 1119.02 89.1057ZM1115.06 93.3776C1114.93 93.3295 1114.89 93.2156 1114.78 93.1265C1114.78 93.1265 1114.78 93.1265 1114.74 93.1105C1115.2 93.246 1115.72 93.2179 1116.25 93.0509C1115.92 93.2981 1115.5 93.5541 1115.06 93.3776Z" fill="white" fill-opacity="0.25"/>
<path d="M1311.31 39.9177C1309.66 38.55 1307.35 37.4399 1305.31 38.4173C1304.34 38.8812 1303.96 40.002 1304.32 40.9952C1303.97 41.1854 1303.66 41.4895 1303.44 41.9645C1302.52 44.1011 1303.59 46.6074 1305.61 47.6461C1307.7 48.717 1310.18 47.916 1311.74 46.2727C1313.66 44.3004 1313.41 41.6986 1311.31 39.9177ZM1307.35 44.1896C1307.23 44.1415 1307.18 44.0276 1307.08 43.9385C1307.08 43.9385 1307.08 43.9385 1307.04 43.9225C1307.5 44.058 1308.02 44.0299 1308.54 43.863C1308.22 44.1101 1307.79 44.3661 1307.35 44.1896Z" fill="white" fill-opacity="0.25"/>
<path d="M1038.18 89.9673C1037.74 87.383 1034.8 85.5019 1032.6 87.362C1032.32 87.6252 1032.07 87.9044 1031.88 88.1588C1031.19 88.2616 1030.63 88.747 1030.3 89.3697C1029.06 91.7535 1030.45 95.0003 1032.92 95.7992C1034.46 96.2699 1036.05 94.7815 1037.04 93.6645C1037.88 92.6792 1038.41 91.2879 1038.18 89.9673Z" fill="white" fill-opacity="0.25"/>
<path d="M246.933 76.6714C246.491 74.0871 243.553 72.206 241.354 74.0661C241.068 74.3293 240.821 74.6085 240.631 74.8629C239.942 74.9657 239.385 75.4511 239.052 76.0738C237.81 78.4576 239.203 81.7044 241.676 82.5033C243.21 82.974 244.802 81.4856 245.788 80.3686C246.631 79.3833 247.166 77.992 246.933 76.6714Z" fill="white" fill-opacity="0.25"/>
<path d="M793.356 34.9119C792.428 34.0696 791.192 33.6702 790.017 34.1926C789.067 34.6156 788.409 35.722 788.52 36.7578C787.993 38.247 788.069 39.9767 789.183 41.1769C790.854 42.9771 793.891 42.9149 794.996 40.5239C795.913 38.6239 794.831 36.2564 793.356 34.9119Z" fill="white" fill-opacity="0.25"/>
<path d="M1090.91 63.6259C1090.53 61.9636 1089.06 61.0924 1087.6 60.5558C1086.99 60.3152 1086.4 60.4092 1085.96 60.7061C1085.13 58.9082 1081.97 59.6322 1082.29 61.9317C1082.57 63.7417 1083.02 65.5749 1084.38 66.8713C1085.6 68.0217 1087.39 68.4499 1088.94 67.6555C1090.4 66.8698 1091.27 65.2314 1090.91 63.6259Z" fill="white" fill-opacity="0.25"/>
<path d="M912.545 50.8261C912.166 49.1638 910.693 48.2926 909.231 47.756C908.629 47.5154 908.036 47.6093 907.598 47.9063C906.76 46.1083 903.608 46.8324 903.928 49.1318C904.205 50.9419 904.658 52.7751 906.013 54.0715C907.239 55.2219 909.02 55.6501 910.578 54.8557C912.039 54.07 912.901 52.4316 912.545 50.8261Z" fill="white" fill-opacity="0.25"/>
<path d="M539.405 92.7685C539.025 91.1061 537.553 90.235 536.091 89.6984C535.488 89.4578 534.896 89.5517 534.457 89.8486C533.619 88.0507 530.467 88.7748 530.787 91.0742C531.064 92.8842 531.517 94.7175 532.872 96.0139C534.098 97.1643 535.88 97.5925 537.437 96.798C538.898 96.0124 539.76 94.3739 539.405 92.7685Z" fill="white" fill-opacity="0.25"/>
<path d="M1182.63 41.2388C1182.49 39.0606 1180.65 37.2371 1178.79 36.4013C1175.41 34.8172 1171.72 38.6302 1172.19 41.9814C1171.33 43.0076 1171.2 44.5593 1172.22 45.7683C1173.75 47.5612 1176.87 47.0578 1178.8 46.3668C1181 45.5923 1182.77 43.6537 1182.63 41.2388Z" fill="white" fill-opacity="0.25"/>
<path d="M631.122 70.3814C630.987 68.2031 629.14 66.3797 627.283 65.5439C623.907 63.9598 620.215 67.7728 620.686 71.1239C619.828 72.1502 619.694 73.7019 620.712 74.9108C622.247 76.7038 625.36 76.2004 627.295 75.5094C629.493 74.7349 631.259 72.7963 631.122 70.3814Z" fill="white" fill-opacity="0.25"/>
<path d="M1045.49 98.0781C1045.26 98.3164 1045.07 98.5707 1044.94 98.8981C1044.83 98.9479 1044.73 98.9567 1044.62 99.0065C1043.84 98.5059 1042.55 98.6047 1042.03 99.4817C1040.83 101.506 1041.84 104.315 1044.36 104.379C1045.27 104.413 1046.05 103.967 1046.57 103.327C1048.17 103.397 1049.78 102.578 1050.5 101.071C1051.85 98.164 1047.41 96.2036 1045.49 98.0781Z" fill="white" fill-opacity="0.25"/>
<path d="M701.216 24.9878C700.785 25.1459 700.442 25.434 700.124 25.779C699.209 25.5079 698.129 25.7848 697.478 26.7525C696.471 28.2859 697.38 30.018 698.541 31.0954C700.839 33.1932 704.819 32.847 705.911 29.6479C706.974 26.7675 704.077 23.8168 701.216 24.9878Z" fill="white" fill-opacity="0.25"/>
<path d="M994.77 49.8831C994.328 47.299 991.39 45.418 989.192 47.2779C988.905 47.5411 988.658 47.8203 988.468 48.0747C987.779 48.1774 987.222 48.6629 986.889 49.2855C985.648 51.6693 987.04 54.916 989.513 55.7147C991.047 56.1855 992.639 54.6971 993.625 53.5802C994.468 52.5949 995.003 51.2036 994.77 49.8831Z" fill="white" fill-opacity="0.25"/>
<path d="M236.283 38.4145C236.031 38.5066 235.832 38.6744 235.646 38.8754C235.113 38.7175 234.484 38.8788 234.105 39.4425C233.518 40.3356 234.048 41.3445 234.724 41.9721C236.063 43.194 238.381 42.9923 239.018 41.129C239.636 39.4512 237.949 37.7325 236.283 38.4145Z" fill="white" fill-opacity="0.25"/>
<path d="M83.5663 44.8744C83.3937 44.239 82.9573 43.687 82.4421 43.3397C82.409 43.1848 82.3601 43.0709 82.3113 42.957C81.8 41.9974 81.0579 41.2762 80.1497 40.8663C79.7219 40.4123 79.0949 40.1147 78.4711 40.2905C78.3191 40.3242 78.1513 40.3988 77.9993 40.4325C76.8059 40.5225 75.656 41.102 74.8551 42.3401C73.4351 44.464 74.2932 46.9311 76.0097 48.3719C76.0807 49.3917 76.889 50.4226 78.1697 50.2259C78.5139 50.1745 78.9141 50.0982 79.274 50.0059C79.8435 50.0917 80.4673 49.9159 80.9375 49.5371C81.626 49.4344 82.3215 49.1928 82.8964 48.9031C84.4134 48.0925 84.5124 46.1492 83.5663 44.8744Z" fill="white" fill-opacity="0.25"/>
<path d="M278.939 52.795C279.064 52.3881 279.092 51.917 279.168 51.478C279.252 49.8538 278.665 48.2024 277.73 46.8785C277.021 45.8451 276.138 44.9754 275.223 44.1547C274.373 43.4471 273.297 42.4491 272.226 42.0842C271.875 41.9896 271.572 41.9271 271.253 41.9945L271.174 42.0114C271.174 42.0114 271.142 42.0604 271.19 42.0925C271.526 44.3465 271.561 46.7492 271.02 48.9778C271.02 48.9778 270.989 49.0268 271.037 49.0588C271.037 49.0588 271.085 49.0909 271.133 49.123C271.373 49.2835 271.55 49.5418 271.648 49.817C272.072 51.08 271.27 52.434 270.239 53.0754C269.176 53.7658 267.822 53.8416 266.578 53.8515C266.786 53.8498 267.563 51.3596 267.625 51.0506C267.92 50.0579 268.215 49.0651 268.383 48.0572C268.798 46.0244 268.957 43.9612 268.941 41.8506C268.864 38.0196 268.372 34.1919 266.894 30.6156C266.471 29.5636 265.921 28.4964 265.308 27.5272C262.29 22.713 257.508 20.6405 252.256 19.5134C251.697 19.4205 251.027 19.3934 250.568 19.7867C250.537 19.8356 250.426 19.9015 250.346 19.9183C250.266 19.9352 250.187 19.9521 250.139 19.92C246.26 19.2203 242.718 18.7453 238.978 19.5382C235.636 20.2468 232.429 21.8148 229.976 24.2372C229.771 24.4499 229.565 24.6626 229.391 24.8264C229.012 25.2028 228.649 25.6603 228.317 26.0689C227.939 26.6564 227.309 27.6356 227.088 27.9783C226.836 28.3699 226.601 28.8427 226.317 29.2833C224.321 32.9198 223.493 37.1964 223.509 41.3364C222.453 40.8415 221.412 40.2166 220.482 39.5259C219.649 38.8994 218.862 38.0939 218.487 37.074C218.113 36.0541 218.279 34.8351 219.086 34.1143C219.973 33.3766 221.249 33.5288 222.217 32.9853C222.328 32.9195 222.519 32.8368 222.614 32.6899C222.74 32.4941 222.786 32.3151 222.864 32.0872C223.327 30.0865 224.076 28.0673 224.987 26.2253C225.159 25.8505 225.729 25.3914 225.695 25.0182C225.673 24.304 224.639 24.5234 224.113 24.5925C222.68 24.6851 221.312 25.1019 219.978 25.6808C215.117 27.8952 208.612 33.8407 211.511 39.906C212.257 41.5236 213.588 42.5521 215.076 43.3358C218.234 45.5836 221.564 47.4566 225.082 49.0359C227.742 54.9407 234.087 59.1763 239.669 61.7133C244.292 63.8195 249.53 65.0766 254.591 64.0458C258.012 63.3204 260.804 61.5446 262.921 59.1086C264.53 59.0633 266.172 58.969 267.731 58.6806C268.433 58.6587 269.165 58.5879 269.898 58.5172C271.761 58.2912 273.639 57.9353 275.242 57.0458C277.005 56.1225 278.444 54.6336 278.939 52.795ZM227.34 37.945C227.463 37.3271 227.538 36.6771 227.661 36.0591C227.722 35.7502 227.783 35.4412 227.893 35.1643C228.231 35.6 228.426 36.1504 228.415 36.7026C228.388 37.3847 227.881 37.7459 227.34 37.945ZM256.788 59.5634C252.39 61.8066 247.168 60.6306 242.804 58.9769C238.488 57.3553 234.228 54.7915 230.935 51.4732C235.427 53.1422 240.028 54.5342 244.63 55.9262C248.831 57.1916 253.431 58.3725 258.058 58.8714C257.645 59.0858 257.2 59.3491 256.788 59.5634ZM252.94 48.4564C253.963 48.7892 254.339 50.0201 254.188 51.1091C252.783 50.7307 251.377 50.3522 249.971 49.9738C250.585 48.9135 251.614 48.0611 252.94 48.4564ZM257.447 52.0248C257.936 49.342 257.053 46.4428 254.367 45.279C251.088 43.8602 247.837 46.0293 246.554 49.0918C243.646 48.2708 240.739 47.4497 237.863 46.5797C234.636 45.6151 231.298 44.7163 228.054 43.6706C227.734 43.527 227.366 43.3514 227.046 43.2078C226.978 42.6725 226.99 42.1204 226.953 41.5362C229.198 41.1449 231.595 39.8756 231.798 37.2113C231.956 34.9371 230.792 32.9006 229.092 31.4855C231.085 27.4268 234.379 24.6567 238.354 23.3911C238.215 23.928 238.283 24.4632 238.51 24.9647C238.722 25.5962 239.171 25.966 239.811 26.2532C239.987 26.3005 240.21 26.3799 240.369 26.3461C241.407 26.5489 242.567 26.1338 243.197 25.1546C243.702 24.3713 243.662 23.3649 243.13 22.5899C245.361 22.5396 247.675 22.8946 249.992 23.6716C250.791 23.925 251.443 23.66 251.789 23.1215C257.536 24.2284 261.686 27.069 263.708 32.8978C265.434 37.6898 265.67 43.5165 264.481 48.4617C264.079 50.1534 263.471 51.8468 262.622 53.3798C261.057 53.0351 259.235 52.4489 257.447 52.0248Z" fill="white" fill-opacity="0.5"/>
<path d="M261.405 34.0206C262.014 30.2977 258.26 27.1617 255.254 25.8543C255.027 25.3528 254.577 24.983 253.828 24.9727C252.346 25.0333 250.718 24.7865 249.419 25.7385C247.976 26.8054 247.147 28.8415 247.018 30.6447C246.714 34.6411 250.217 38.3799 253.907 39.3733C257.373 40.2873 260.826 37.4834 261.405 34.0206ZM254.342 35.8142C252.6 35.2111 250.463 33.085 250.449 31.1856C250.442 30.3413 250.658 29.3655 251.387 28.8726C252.006 28.4455 252.644 28.5216 253.314 28.5487C253.491 28.8071 253.748 29.0486 254.116 29.2242C255.251 29.7022 256.998 30.9385 257.613 32.1188C258.697 34.1721 256.483 36.5439 254.342 35.8142Z" fill="white" fill-opacity="0.5"/>
<path d="M247.282 36.0003C247.131 35.0598 246.473 34.4805 245.706 34.1782C245.048 33.5989 244.123 33.5414 243.458 34.1474C242.619 34.9172 241.957 35.9453 242.285 37.1442C242.647 38.5051 244.087 39.2567 245.375 38.8568C246.6 38.5548 247.515 37.346 247.282 36.0003Z" fill="white" fill-opacity="0.5"/>
<path d="M1233.87 30.8531C1233.74 30.6695 1233.56 30.4858 1233.39 30.394C1233.17 30.3022 1232.95 30.2562 1232.69 30.2562L1229.84 30.6235C1229.4 30.2103 1228.97 29.6135 1228.53 29.0166C1228.44 28.8788 1228.35 28.787 1228.22 28.6493L1228 28.4197C1227.7 28.0524 1227.21 27.9147 1226.78 28.0524C1226.34 28.1901 1225.99 28.5574 1225.9 29.0166L1225.38 31.8173C1225.33 32.1846 1224.54 32.4142 1223.97 32.6437L1223.89 32.6897C1223.58 32.7815 1223.32 32.8733 1223.06 33.0111L1222.75 33.1488C1222.31 33.3324 1222.05 33.7916 1222 34.2507C1221.96 34.7558 1222.22 35.169 1222.62 35.4445L1225.11 36.8678C1225.16 37.2351 1225.2 37.6024 1225.24 37.9238C1225.33 38.5666 1225.42 39.1175 1225.38 39.7144C1225.38 39.7603 1225.38 39.8062 1225.38 39.8522C1225.42 40.0817 1225.51 40.3113 1225.64 40.5409C1225.86 40.8163 1226.16 41 1226.51 41C1226.65 41 1226.78 41 1226.91 40.9541C1227.08 40.9082 1227.26 40.8163 1227.43 40.6786L1229.49 38.6584L1230.15 38.7962C1230.19 38.7962 1230.28 38.7962 1230.32 38.7962C1230.5 38.7962 1230.8 38.888 1231.07 38.9798C1231.59 39.1175 1232.29 39.3471 1232.91 39.0716C1232.99 39.0257 1233.08 38.9798 1233.17 38.9339C1233.3 38.8421 1233.43 38.7043 1233.47 38.5666C1234 37.9697 1233.61 37.1892 1233.26 36.5464C1233.21 36.4546 1233.12 36.3168 1233.12 36.2709L1232.47 34.8017L1232.51 34.7099C1232.56 34.618 1232.64 34.5262 1232.69 34.3885C1232.69 34.3425 1232.73 34.2966 1232.73 34.2966C1232.86 34.0211 1232.99 33.6998 1233.21 33.4243C1233.56 32.8733 1233.87 32.2764 1234 31.5418C1234 31.2204 1234 30.9909 1233.87 30.8531Z" fill="white" fill-opacity="0.5"/>
<path d="M1256.98 19.3342C1256.94 19.1164 1256.84 18.8986 1256.7 18.7243C1256.56 18.55 1256.33 18.4193 1256.1 18.3322L1253.2 17.5044C1252.92 16.9816 1252.73 16.2846 1252.55 15.5875C1252.5 15.4568 1252.45 15.3261 1252.41 15.1518L1252.31 14.8468C1252.17 14.4112 1251.75 14.1062 1251.29 14.0191C1250.77 13.9319 1250.31 14.1498 1250.03 14.5419L1248.39 16.7638C1248.21 17.0252 1247.37 16.9816 1246.67 16.8945H1246.57C1246.25 16.8509 1245.92 16.8509 1245.64 16.8509H1245.31C1244.8 16.8509 1244.38 17.1123 1244.15 17.5044C1243.91 17.9401 1243.96 18.4193 1244.29 18.7679L1246.11 20.9898C1246.01 21.3383 1245.87 21.6433 1245.83 21.9483C1245.64 22.5146 1245.5 23.081 1245.22 23.5602C1245.22 23.6038 1245.17 23.6038 1245.17 23.6474C1245.08 23.8652 1245.08 24.1266 1245.17 24.3445C1245.27 24.6494 1245.5 24.9544 1245.83 25.0851C1245.97 25.1287 1246.11 25.1722 1246.25 25.2158C1246.43 25.2594 1246.67 25.2158 1246.85 25.1722L1249.7 24.2573L1250.26 24.6494C1250.31 24.693 1250.35 24.693 1250.4 24.7366C1250.59 24.8237 1250.82 24.998 1251.05 25.1722C1251.52 25.5208 1252.13 26 1252.78 26C1252.87 26 1252.97 26 1253.06 25.9564C1253.25 25.9129 1253.39 25.8693 1253.53 25.7822C1254.28 25.4772 1254.18 24.6494 1254.14 23.9524C1254.14 23.8216 1254.14 23.7345 1254.09 23.6474L1254.04 22.1225L1254.14 22.079C1254.23 22.0354 1254.32 21.9483 1254.42 21.8611C1254.46 21.8176 1254.46 21.8176 1254.51 21.774C1254.74 21.5562 1255.02 21.3819 1255.3 21.2076C1255.86 20.8591 1256.42 20.467 1256.84 19.8571C1256.98 19.7263 1257.03 19.5085 1256.98 19.3342ZM1252.31 23.7345C1252.31 23.8652 1252.31 23.9959 1252.36 24.1266C1252.36 24.1702 1252.36 24.1702 1252.36 24.2138C1252.22 24.1266 1252.08 24.0395 1252.03 23.9524C1251.71 23.7345 1251.43 23.4731 1251.1 23.3424L1250.4 22.8632C1250.12 22.6453 1249.7 22.6018 1249.33 22.6453C1249.28 22.6453 1249.23 22.6889 1249.19 22.6889L1246.99 23.386C1247.13 23.0374 1247.23 22.6889 1247.32 22.2968C1247.41 21.9483 1247.51 21.5997 1247.65 21.2512C1247.69 21.0769 1247.74 20.8591 1247.69 20.6848C1247.65 20.5106 1247.55 20.2927 1247.46 20.162L1246.01 18.4193C1246.15 18.4193 1246.25 18.4193 1246.39 18.4629C1247.51 18.55 1248.91 18.6807 1249.65 17.6351L1250.82 16.0667C1251.05 16.8945 1251.29 17.7658 1251.75 18.5065C1251.8 18.55 1251.85 18.6372 1251.89 18.6807C1252.03 18.8114 1252.22 18.8986 1252.41 18.9857L1254.65 19.5956C1254.51 19.6828 1254.37 19.7699 1254.28 19.8571C1253.95 20.0749 1253.57 20.2927 1253.29 20.5541C1253.2 20.6413 1253.11 20.6848 1253.01 20.7284L1252.73 20.9027C1252.41 21.1205 1252.17 21.5126 1252.17 21.9047L1252.31 23.7345Z" fill="#00A99D"/>
<path d="M956.485 30.7603C956.328 30.4598 956.104 30.1489 955.861 29.9725C955.551 29.7857 955.231 29.6662 954.834 29.6035L950.458 29.4626C949.89 28.7525 949.363 27.7733 948.836 26.7941C948.734 26.5713 948.623 26.4159 948.455 26.1827L948.176 25.794C947.796 25.1826 947.1 24.8658 946.409 24.9631C945.717 25.0605 945.107 25.5152 944.872 26.1672L943.454 30.1462C943.306 30.6741 942.065 30.8224 941.155 31.023L941.013 31.0694C940.53 31.1308 940.113 31.2027 939.686 31.3419L939.193 31.4706C938.491 31.6352 937.992 32.2454 937.823 32.9078C937.645 33.6375 937.949 34.3058 938.482 34.8035L941.929 37.485C941.913 38.0337 941.897 38.5824 941.891 39.0639C941.88 40.0268 941.889 40.8551 941.689 41.7194C941.679 41.7867 941.669 41.854 941.658 41.9213C941.673 42.2681 941.754 42.6255 941.901 42.9932C942.17 43.4492 942.591 43.7915 943.12 43.8751C943.318 43.9064 943.516 43.9378 943.724 43.9018C943.999 43.8763 944.284 43.7836 944.579 43.6235L948.135 41.154L949.095 41.5126C949.161 41.5231 949.293 41.544 949.359 41.5544C949.623 41.5962 950.065 41.8039 950.441 42.0012C951.203 42.3284 952.209 42.832 953.195 42.5746C953.337 42.5282 953.48 42.4818 953.622 42.4355C953.841 42.3322 954.07 42.1617 954.167 41.9703C955.093 41.221 954.673 39.9831 954.288 38.9575C954.242 38.8125 954.141 38.5897 954.151 38.5224L953.489 36.2125L953.575 36.0884C953.662 35.9643 953.814 35.8506 953.911 35.6592C953.921 35.5919 953.998 35.5351 953.998 35.5351C954.257 35.1627 954.527 34.7231 954.919 34.3716C955.571 33.6477 956.167 32.8462 956.529 31.8009C956.601 31.3299 956.652 30.9935 956.485 30.7603Z" fill="#FBB03B"/>
<path d="M294.891 27.6153C294.918 27.3182 294.891 27.0042 294.792 26.7294C294.693 26.4545 294.468 26.2021 294.226 26.0057L291.128 23.8954C290.996 23.1215 291.041 22.1572 291.086 21.1928C291.08 21.0078 291.075 20.8228 291.086 20.5817L291.092 20.1556C291.092 19.5444 290.713 19.0003 290.196 18.7196C289.623 18.4221 288.99 18.5338 288.511 18.9371L285.741 21.206C285.421 21.4749 284.447 21.1154 283.655 20.7504L283.545 20.7167C283.176 20.5426 282.791 20.4246 282.461 20.3235L282.075 20.2055C281.47 20.02 280.875 20.2047 280.451 20.6249C280.011 21.1012 279.884 21.7346 280.136 22.3011L281.439 25.8175C281.196 26.2322 280.915 26.5741 280.744 26.9496C280.309 27.6109 279.929 28.2891 279.417 28.8046C279.4 28.8606 279.345 28.8438 279.328 28.8998C279.136 29.1464 279.036 29.4827 279.064 29.7967C279.058 30.2229 279.217 30.6995 279.553 30.9857C279.701 31.0924 279.85 31.199 279.998 31.3056C280.202 31.4291 280.494 31.4573 280.73 31.4687L284.435 31.3199L284.947 32.0267C284.985 32.0996 285.04 32.1165 285.079 32.1894C285.266 32.3689 285.475 32.6774 285.684 32.986C286.101 33.603 286.635 34.4388 287.405 34.6748C287.515 34.7085 287.625 34.7422 287.752 34.7199C287.989 34.7313 288.17 34.7258 288.369 34.6643C289.365 34.5416 289.569 33.4428 289.779 32.529C289.829 32.3608 289.862 32.2487 289.84 32.1198L290.364 30.1409L290.491 30.1186C290.618 30.0962 290.761 30.0178 290.904 29.9394C290.975 29.9002 290.975 29.9002 291.047 29.861C291.405 29.665 291.801 29.5419 292.198 29.4189C292.991 29.1727 293.8 28.8705 294.527 28.2374C294.742 28.1198 294.88 27.8564 294.891 27.6153ZM287.716 31.5913C287.666 31.7594 287.616 31.9276 287.622 32.1126C287.605 32.1687 287.605 32.1687 287.589 32.2247C287.457 32.062 287.325 31.8994 287.303 31.7704C287 31.3721 286.769 30.9346 286.434 30.6484L285.79 29.7789C285.543 29.3975 285.064 29.1897 284.607 29.1109C284.552 29.094 284.481 29.1332 284.426 29.1164L281.574 29.221C281.872 28.8231 282.114 28.4083 282.373 27.9375C282.616 27.5228 282.858 27.108 283.156 26.7102C283.277 26.5028 283.415 26.2394 283.426 25.9983C283.437 25.7572 283.41 25.4432 283.349 25.2413L282.305 22.4764C282.47 22.527 282.58 22.5607 282.729 22.6673C284.017 23.184 285.618 23.858 286.896 22.7823L288.867 21.1857C288.828 22.3351 288.772 23.5405 289.041 24.6621C289.08 24.735 289.102 24.864 289.14 24.9369C289.256 25.1556 289.443 25.3352 289.63 25.5147L292.04 27.1087C291.841 27.1703 291.643 27.2318 291.5 27.3102C291.032 27.4725 290.509 27.6179 290.08 27.8531C289.936 27.9315 289.81 27.9538 289.683 27.9762L289.287 28.0993C288.819 28.2615 288.395 28.6818 288.246 29.1863L287.716 31.5913Z" fill="white"/>
<path d="M46.4595 35.897C46.4928 35.5395 46.46 35.1618 46.341 34.8312C46.222 34.5006 45.9507 34.1969 45.6595 33.9606L41.9331 31.422C41.7748 30.4911 41.8285 29.331 41.8823 28.1709C41.8758 27.9484 41.8693 27.7258 41.8828 27.4358L41.8897 26.9231C41.8902 26.188 41.4337 25.5334 40.8115 25.1957C40.1231 24.8378 39.3615 24.9722 38.7851 25.4574L35.4525 28.1868C35.0682 28.5103 33.8964 28.0778 32.9432 27.6387L32.8108 27.5982C32.3673 27.3888 31.9038 27.2468 31.5066 27.1251L31.0432 26.9832C30.3149 26.7601 29.5996 26.9822 29.0894 27.4877C28.5593 28.0606 28.4065 28.8227 28.7106 29.5042L30.2772 33.7343C29.9855 34.2332 29.6475 34.6444 29.4419 35.0961C28.9183 35.8917 28.4608 36.7075 27.8446 37.3276C27.8247 37.395 27.7585 37.3748 27.7386 37.4422C27.5066 37.7388 27.3872 38.1434 27.42 38.5212C27.4131 39.0338 27.6047 39.6072 28.0084 39.9515C28.1871 40.0797 28.3658 40.208 28.5445 40.3363C28.7894 40.4849 29.1404 40.5188 29.4251 40.5325L33.8817 40.3534L34.497 41.2037C34.5433 41.2914 34.6095 41.3117 34.6558 41.3994C34.8808 41.6154 35.1322 41.9866 35.3835 42.3577C35.8863 43.1 36.528 44.1054 37.4548 44.3893C37.5872 44.4299 37.7196 44.4704 37.872 44.4436C38.1567 44.4572 38.3752 44.4507 38.6137 44.3766C39.8123 44.2291 40.0582 42.9072 40.3105 41.808C40.3703 41.6057 40.4101 41.4708 40.3837 41.3157L41.0144 38.9352L41.1667 38.9083C41.319 38.8814 41.4912 38.7871 41.6634 38.6928C41.7496 38.6456 41.7496 38.6456 41.8357 38.5985C42.2663 38.3627 42.7431 38.2146 43.22 38.0666C44.1737 37.7705 45.1474 37.4069 46.022 36.6453C46.2803 36.5039 46.4461 36.187 46.4595 35.897ZM37.8281 40.6799C37.7684 40.8822 37.7086 41.0845 37.7151 41.3071C37.6952 41.3745 37.6952 41.3745 37.6753 41.442C37.5165 41.2463 37.3577 41.0505 37.3313 40.8954C36.9674 40.4163 36.6897 39.89 36.286 39.5457L35.5119 38.4997C35.2142 38.0409 34.6383 37.7909 34.0887 37.6961C34.0225 37.6758 33.9364 37.723 33.8702 37.7027L30.44 37.8285C30.7979 37.3499 31.0896 36.8509 31.4012 36.2846C31.6929 35.7857 31.9846 35.2867 32.3425 34.8081C32.4883 34.5586 32.6541 34.2418 32.6675 33.9517C32.681 33.6617 32.6481 33.284 32.5754 33.0411L31.3195 29.715C31.5181 29.7759 31.6505 29.8164 31.8292 29.9447C33.3783 30.5663 35.3047 31.377 36.8418 30.083L39.2137 28.1624C39.1664 29.545 39.0993 30.9951 39.4228 32.3443C39.4691 32.432 39.4955 32.5872 39.5418 32.6749C39.6807 32.9381 39.9057 33.1541 40.1307 33.37L43.0298 35.2876C42.7914 35.3616 42.5529 35.4356 42.3807 35.5299C41.8177 35.7252 41.1885 35.9001 40.6718 36.183C40.4996 36.2773 40.3473 36.3042 40.195 36.3311L39.7181 36.4791C39.1551 36.6744 38.6449 37.1799 38.4657 37.7868L37.8281 40.6799Z" fill="white"/>
</svg>
