<svg width="265" height="208" viewBox="0 0 265 208" fill="none" xmlns="http://www.w3.org/2000/svg">
<path d="M136.9 140.112C136.841 139.993 136.841 139.873 136.721 139.813C135.706 137.007 134.751 134.081 133.616 131.335C132.601 128.887 131.168 126.797 129.078 125.184C127.108 123.692 124.839 122.617 122.51 121.781C119.883 120.766 117.196 119.811 114.33 120.467C113.016 120.766 111.703 121.423 110.509 122.02C109.314 122.617 108.12 123.214 107.165 124.169C105.194 126.08 104.418 129.125 104.12 131.753C103.761 134.559 104.12 137.425 104.896 140.112C105.314 141.485 105.911 142.68 106.389 144.053C106.687 145.008 106.986 146.262 106.389 147.217C105.732 148.233 104.358 148.113 103.403 147.635C102.209 146.979 101.313 145.784 100.537 144.65C98.8651 142.142 97.7306 139.276 97.3126 136.231C97.2529 135.574 96.8349 135.037 96.1184 135.037C95.8796 135.037 95.6407 135.096 95.4616 135.216H95.4019C92.7747 135.813 90.5654 137.246 87.9979 137.903C87.6993 137.843 87.3411 137.962 87.1022 138.142C86.5051 138.321 86.2066 139.037 86.326 139.575C86.3857 139.754 86.5051 139.933 86.6245 140.052C86.744 144.829 88.4158 149.546 91.4013 153.308C94.5063 157.189 99.1039 159.816 104.06 160.533C106.568 160.891 109.195 160.772 111.643 160.055C114.39 159.279 116.42 157.667 117.793 155.159C119.166 152.591 119.704 149.666 119.584 146.799C119.525 145.247 119.286 143.695 118.987 142.202C118.689 140.709 118.271 139.276 118.151 137.783C118.092 137.067 118.151 136.41 118.331 135.753C118.39 135.455 118.689 134.38 119.107 134.32C119.525 134.201 120.361 135.037 120.659 135.335C121.197 135.813 121.674 136.291 122.092 136.828C123.824 138.858 124.899 141.485 125.078 144.113C125.137 144.531 125.317 144.769 125.555 145.008C125.794 145.366 126.212 145.546 126.75 145.366C129.974 144.471 132.84 142.739 135.945 141.605C136.661 141.366 137.079 140.769 136.9 140.112ZM127.347 142.68C126.988 140.709 126.332 138.739 125.197 137.007C124.54 135.932 123.764 134.977 122.868 134.081C121.973 133.245 120.898 132.23 119.704 131.991C116.659 131.394 115.703 135.634 115.823 137.843C116.002 140.828 117.077 143.695 117.256 146.74C117.375 149.606 116.838 152.472 115.285 154.92C113.852 157.129 111.344 158.025 108.837 158.324C104 158.921 98.9248 157.308 95.3422 154.024C91.4013 150.502 89.2518 145.366 89.1324 140.172C91.2222 139.575 93.1926 138.44 95.2825 137.783C95.7005 139.993 96.417 142.082 97.4918 144.113C98.686 146.322 100.298 148.83 102.687 149.904C105.135 150.979 108.06 150.143 108.956 147.516C109.852 144.889 108.18 142.381 107.404 139.933C106.568 137.306 106.209 134.44 106.568 131.693C106.926 129.066 107.822 126.319 110.21 124.946C112.479 123.632 115.106 122.259 117.793 122.796C120.241 123.333 122.809 124.349 125.018 125.483C127.526 126.797 129.616 128.528 130.929 131.096C131.586 132.469 132.064 133.962 132.601 135.395C133.139 136.888 133.676 138.321 134.213 139.813C131.885 140.709 129.675 141.844 127.347 142.68Z" fill="#1E1E1E"/>
<path d="M138.095 165.31C138.035 165.25 137.916 165.19 137.856 165.19C134.154 163.817 130.452 162.384 126.63 161.19C123.048 160.055 119.465 159.219 115.644 159.637C113.673 159.876 111.763 160.294 109.852 160.712C108.12 161.07 106.448 161.548 104.896 162.264C101.97 163.578 99.761 166.086 98.3876 168.952C96.7755 172.236 96.2381 175.819 95.9992 179.461C95.8201 182.805 95.7604 186.208 96.3575 189.492C96.8949 192.657 98.2085 195.762 100.477 198.09C102.926 200.598 106.21 202.33 109.374 203.643C112.897 205.136 116.659 206.032 120.48 206.33C122.391 206.509 124.361 206.509 126.332 206.33C127.825 206.211 130.512 206.211 130.81 204.3C130.87 203.942 130.81 203.584 130.631 203.285C130.93 198.449 133.019 193.97 134.751 189.492C135.169 188.298 135.587 187.163 136.005 185.969C136.363 184.894 136.901 183.521 136.303 182.446C135.766 181.431 134.333 181.073 133.318 180.715C132.004 180.237 130.75 179.819 129.437 179.401C126.451 178.446 123.406 177.729 120.361 177.132C120.301 177.132 120.241 177.132 120.182 177.132C119.704 177.013 119.047 177.192 118.868 177.67C117.614 180.356 116.659 183.163 116.181 186.089C115.942 187.462 116.121 188.716 117.316 189.552C118.092 190.089 118.988 190.209 119.823 190.627C120.719 191.045 120.659 191.701 120.182 192.418C119.585 193.373 118.51 194.09 117.375 194.209C116.121 194.329 114.748 193.911 113.554 193.433C112.419 192.955 111.464 192.239 110.867 191.164C109.673 189.014 109.792 186.029 109.912 183.641C110.091 180.954 110.748 178.267 112.181 175.938C113.435 173.908 115.584 171.758 118.152 171.639C120.958 171.519 123.884 172.296 126.451 173.191C127.944 173.729 129.377 174.385 130.691 175.102C131.885 175.759 133.557 177.013 134.811 175.699C135.348 175.162 135.647 174.385 136.005 173.788C136.363 173.072 136.781 172.355 137.08 171.579C137.796 170.027 138.393 168.474 138.931 166.862C139.05 165.966 138.632 165.489 138.095 165.31ZM134.811 170.325C134.512 171.042 134.154 171.699 133.796 172.415C133.616 172.773 133.378 173.132 133.199 173.49C133.199 173.49 133.139 173.609 133.079 173.669H133.019C131.885 172.833 130.392 172.176 129.138 171.639C127.705 171.042 126.272 170.504 124.779 170.086C123.346 169.668 121.854 169.43 120.361 169.25C118.868 169.071 117.316 168.952 115.883 169.489C113.196 170.445 111.046 172.654 109.673 175.102C108.18 177.729 107.523 180.774 107.344 183.82C107.225 186.566 107.225 189.612 108.538 192.06C109.792 194.567 112.599 195.881 115.286 196.359C116.778 196.598 118.331 196.538 119.644 195.821C120.779 195.165 121.854 194.149 122.391 192.896C122.988 191.522 122.869 189.97 121.675 188.955C120.779 188.238 119.644 188.119 118.689 187.581C118.152 187.283 118.271 186.925 118.39 186.327C118.57 185.492 118.749 184.715 118.928 183.939C119.346 182.446 119.823 180.954 120.48 179.521C122.69 179.998 124.899 180.536 127.108 181.133C128.362 181.491 129.556 181.849 130.75 182.267C131.348 182.446 131.945 182.685 132.482 182.864C132.9 183.043 133.736 183.163 134.034 183.461C134.034 183.461 134.034 183.461 134.034 183.521C134.034 183.76 133.915 184.058 133.855 184.238C133.676 184.835 133.497 185.372 133.318 185.969C132.96 187.104 132.542 188.178 132.124 189.253C131.288 191.403 130.392 193.552 129.676 195.762C128.84 198.269 128.243 200.897 128.123 203.524C128.123 203.584 128.123 203.584 128.123 203.584C127.825 203.643 127.526 203.643 127.228 203.703C126.392 203.822 125.556 203.882 124.72 203.882C123.227 203.942 121.675 203.882 120.182 203.763C117.077 203.464 114.032 202.748 111.106 201.613C108.24 200.538 105.374 199.046 102.985 197.075C100.657 195.105 99.343 192.537 98.6862 189.612C98.0891 186.745 98.0891 183.76 98.2085 180.834C98.3279 177.49 98.6265 174.087 99.8804 170.982C100.895 168.474 102.567 166.086 104.956 164.712C106.329 163.936 107.822 163.459 109.374 163.1C110.986 162.682 112.658 162.384 114.33 162.085C116.241 161.787 118.152 161.667 120.062 161.906C121.973 162.145 123.824 162.682 125.675 163.279C129.198 164.414 132.661 165.728 136.124 166.981C135.766 168.176 135.348 169.25 134.811 170.325Z" fill="#1E1E1E"/>
<path d="M191.415 188.298C190.818 185.73 189.326 183.581 187.952 181.431C186.459 179.103 185.146 176.654 183.952 174.147C181.444 168.832 179.055 163.518 176.428 158.264C174.935 155.219 173.383 152.173 171.771 149.128C171.413 148.471 170.756 148.412 170.278 148.651C167.711 149.546 165.143 150.621 162.635 151.755C161.501 152.233 159.948 152.711 159.889 154.204C159.889 154.801 160.127 155.338 160.366 155.875C160.665 156.592 160.963 157.249 161.322 157.965C163.591 163.041 166.039 168.056 168.606 172.952C169.024 173.729 169.442 174.445 169.8 175.221C166.815 172.594 163.889 169.907 160.844 167.399C158.575 165.548 156.306 163.697 153.858 162.026C152.664 161.19 151.469 160.354 150.216 159.637C149.678 159.339 149.081 159.1 148.484 159.1C147.708 159.159 146.991 159.518 146.334 159.816C143.468 161.13 140.781 162.742 138.214 164.533C137.079 164.474 136.363 166.146 137.557 166.743C137.617 166.743 137.617 166.802 137.676 166.802C138.453 167.34 138.751 168.653 139.109 169.489C139.587 170.743 140.125 171.997 140.602 173.251C141.617 175.819 142.573 178.386 143.468 181.013C144.424 183.641 145.319 186.327 146.155 188.955C146.991 191.463 147.767 194.03 148.902 196.418C150.156 199.046 151.589 201.494 153.022 204.061C153.022 204.24 153.022 204.36 153.022 204.539C153.201 205.076 153.918 205.614 154.515 205.375C156.784 204.42 159.053 203.464 161.322 202.449C162.396 201.971 163.531 201.494 164.606 200.956C165.74 200.419 167.173 200.001 166.875 198.449C166.815 198.09 166.576 197.852 166.277 197.732C162.695 191.463 159.471 184.954 156.545 178.326C159.351 180.715 162.157 183.103 164.964 185.492C167.054 187.223 169.084 189.014 171.174 190.746C172.846 192.179 174.577 193.97 176.727 194.687C176.846 194.747 176.906 194.747 177.025 194.806C177.085 194.806 177.085 194.866 177.145 194.866C177.503 194.985 177.802 194.926 178.04 194.747C178.458 194.627 178.876 194.448 179.235 194.329L183.056 192.776C185.624 191.761 188.191 190.686 190.759 189.671C191.236 189.492 191.595 188.955 191.415 188.298ZM183.355 190.149C182.28 190.567 181.145 191.045 180.07 191.463C179.593 191.642 179.055 191.881 178.578 192.06C178.339 192.179 177.921 192.358 177.563 192.478C177.384 192.358 177.145 192.358 176.966 192.358C176.189 192 175.533 191.522 174.876 190.985C173.92 190.209 172.965 189.373 172.01 188.596C170.039 186.925 168.009 185.193 166.039 183.521C162.098 180.177 158.217 176.834 154.276 173.55C154.037 173.012 153.5 172.594 152.843 172.773C152.365 172.893 151.947 173.37 151.947 173.908C151.828 174.266 151.887 174.684 152.305 174.983C155.649 183.103 159.53 191.045 163.829 198.687C163.71 198.747 163.591 198.747 163.531 198.807C163.053 199.046 162.575 199.225 162.098 199.464C161.142 199.882 160.247 200.3 159.291 200.718C157.799 201.374 156.246 202.031 154.753 202.688C153.5 200.479 152.246 198.329 151.171 196.06C149.977 193.612 149.141 190.985 148.305 188.417C146.573 183.043 144.662 177.729 142.632 172.415C142.035 170.922 141.498 169.43 140.901 167.997C140.662 167.399 140.423 166.743 140.065 166.146C141.916 164.892 143.886 163.697 145.857 162.742C146.454 162.444 147.111 162.145 147.708 161.846C148.365 161.548 148.544 161.488 149.141 161.846C150.335 162.563 151.469 163.279 152.604 164.056C157.142 167.22 161.262 170.863 165.382 174.505C167.89 176.714 170.397 178.923 172.846 181.133C172.905 181.192 173.025 181.252 173.084 181.312C173.861 182.566 175.831 181.372 175.115 180.058C172.607 175.639 170.218 171.161 167.949 166.563C166.815 164.295 165.74 162.026 164.665 159.757C164.128 158.622 163.591 157.428 163.053 156.234C162.814 155.696 162.575 155.219 162.337 154.681C162.277 154.622 162.277 154.502 162.217 154.442C162.456 154.383 162.755 154.144 162.874 154.084C165.203 153.009 167.591 152.054 169.98 151.158C172.547 156.055 174.995 161.07 177.384 166.086C179.772 171.161 181.862 176.535 184.847 181.312C186.161 183.461 187.773 185.432 188.549 187.82C186.997 188.656 185.206 189.373 183.355 190.149Z" fill="#1E1E1E"/>
<path d="M165.501 147.874L164.486 145.068C163.829 143.277 163.232 141.545 162.576 139.754C162.337 138.977 162.158 138.082 161.501 137.544C160.725 136.947 159.829 137.186 158.933 137.306C157.023 137.544 155.172 137.843 153.261 138.082C149.618 138.619 146.096 139.216 142.573 140.231C138.512 141.366 134.512 142.62 130.452 143.814C128.362 144.411 126.272 145.068 124.182 145.665C123.227 145.964 122.212 146.202 121.256 146.561C120.48 146.859 119.763 147.397 119.584 148.233C119.465 148.83 119.763 149.248 120.122 149.486V149.546C120.898 151.099 121.495 152.711 121.973 154.383C122.212 155.219 122.391 156.055 122.57 156.831C122.749 157.607 122.749 158.503 122.988 159.279C123.227 160.115 124.003 160.473 124.839 160.354C125.794 160.174 126.69 159.936 127.645 159.757C129.496 159.339 131.288 158.921 133.139 158.503C140.483 156.89 147.827 155.338 155.052 153.487C156.903 153.009 158.694 152.532 160.486 151.994C161.381 151.755 162.277 151.457 163.113 151.218C163.889 150.979 164.845 150.86 165.382 150.263C166.218 149.606 165.8 148.71 165.501 147.874ZM162.456 149.068C161.74 149.307 161.083 149.486 160.366 149.666C159.112 150.024 157.858 150.382 156.605 150.681C154.037 151.337 151.469 151.994 148.842 152.591C143.588 153.786 138.333 154.98 133.139 156.114C130.511 156.711 127.884 157.428 125.257 157.906C125.257 157.786 125.257 157.667 125.257 157.547C125.197 157.129 125.137 156.652 125.018 156.234C124.839 155.338 124.6 154.383 124.361 153.487C123.883 151.815 123.227 150.203 122.45 148.65C122.749 148.531 123.048 148.471 123.346 148.412C124.182 148.173 125.078 147.934 125.914 147.635C127.526 147.158 129.138 146.68 130.75 146.202C134.034 145.247 137.259 144.292 140.543 143.336C143.707 142.381 146.872 141.545 150.156 141.008C151.828 140.709 153.5 140.53 155.171 140.291C155.948 140.172 156.724 140.052 157.5 139.993C157.858 139.933 158.276 139.873 158.635 139.813C158.993 139.754 159.709 139.813 160.068 139.634C160.127 139.873 160.247 140.172 160.247 140.172C160.426 140.59 160.545 141.008 160.725 141.426C161.023 142.321 161.381 143.217 161.68 144.053L162.695 146.859C162.874 147.337 163.053 147.815 163.173 148.233C163.232 148.412 163.292 148.591 163.411 148.77C163.411 148.77 163.411 148.77 163.352 148.77C162.993 148.889 162.755 149.009 162.456 149.068Z" fill="#1E1E1E"/>
<path d="M122.63 87.3881C119.465 85.5371 115.644 85.4177 112.002 85.4177C111.584 85.4177 111.285 85.5968 111.106 85.8356C110.628 85.9551 110.21 86.3133 110.21 86.9701C109.971 95.2101 110.33 103.51 111.225 111.75C111.225 111.809 111.225 111.869 111.285 111.929C111.285 112.048 111.225 112.108 111.225 112.227C111.225 112.825 111.763 113.481 112.42 113.422C118.809 112.705 124.72 108.824 127.168 102.793C129.377 97.3597 127.884 90.493 122.63 87.3881ZM120.839 107.391C118.749 109.123 116.181 110.317 113.494 110.854C112.718 103.211 112.42 95.5086 112.599 87.8061C115.166 87.8061 117.853 87.8658 120.301 88.8808C122.57 89.7765 124.302 91.6872 125.138 93.8965C126.989 98.8524 124.72 104.107 120.839 107.391Z" fill="#1E1E1E"/>
<path d="M139.349 90.2542C139.229 89.8959 139.11 89.5376 138.931 89.1794C137.915 86.9104 136.482 84.8206 134.751 83.0293C128.959 76.9986 120.6 75.3267 112.539 75.5655C108.18 75.7446 103.881 76.0432 99.522 76.3417C98.6263 76.4015 98.2084 77.2971 98.4472 78.0136C98.2084 88.5823 98.2681 99.2107 98.5069 109.779C98.5666 112.825 98.6861 115.81 98.8055 118.855C98.8652 119.691 99.522 120.049 100.179 119.99C100.179 119.99 100.239 119.99 100.239 120.049C103.523 121.184 107.165 120.945 110.628 120.885C113.972 120.766 117.375 120.527 120.659 119.93C123.884 119.333 127.048 118.437 129.974 117.004C132.96 115.571 135.766 113.66 137.259 110.556C139.289 106.376 140.184 101.659 140.065 97.0014C140.065 94.7324 140.005 92.344 139.349 90.2542ZM136.124 107.152C135.587 108.585 134.99 110.138 133.975 111.332C132.96 112.466 131.646 113.302 130.332 114.078C127.705 115.571 124.839 116.586 121.913 117.243C118.569 118.019 115.106 118.318 111.703 118.437C108.299 118.557 104.538 118.915 101.194 117.84C100.776 107.51 100.597 97.1805 100.716 86.8507C100.716 84.104 100.776 81.4171 100.836 78.6704C104.06 78.4316 107.284 78.1927 110.509 78.0733C117.136 77.7748 124.302 78.4913 129.974 82.253C136.781 86.7313 138.931 93.8965 137.557 101.718C137.259 103.569 136.781 105.42 136.124 107.152Z" fill="#1E1E1E"/>
<path d="M173.144 95.6877C164.546 93.4187 156.604 89.1196 148.603 85.2982C147.588 84.8205 146.693 85.7758 146.812 86.5521C146.513 86.6715 146.275 86.9103 146.155 87.2686C142.393 97.7178 138.333 108.107 133.915 118.318C132.72 121.124 131.407 123.931 131.467 127.095C131.467 127.573 131.705 127.871 132.004 128.05C132.123 128.17 132.183 128.289 132.362 128.349C140.96 132.35 149.917 135.395 159.232 137.246C159.829 137.365 160.306 137.067 160.545 136.649C160.904 136.589 161.202 136.41 161.381 136.111C162.337 134.021 163.292 131.932 164.188 129.782C164.665 128.588 164.188 127.871 163.292 127.155C162.456 126.498 161.56 125.901 160.665 125.423C158.694 124.408 156.664 123.931 154.515 123.572C152.604 123.214 150.753 122.677 149.021 121.9C149.559 120.169 150.156 118.497 150.693 116.765C152.484 117.303 154.156 118.139 155.888 118.915C158.097 119.93 160.366 120.766 162.695 121.423C163.71 121.721 164.307 120.766 164.128 119.99V119.93C164.367 117.243 165.203 114.556 166.457 112.168C166.576 111.929 166.636 111.63 166.576 111.391C166.695 110.914 166.457 110.376 166.039 110.078C162.516 107.63 158.396 106.197 154.335 104.883C154.694 103.749 155.112 102.554 155.47 101.42C160.008 103.092 164.606 104.704 169.263 106.137H169.323L169.382 106.197C169.92 106.495 170.756 106.376 170.995 105.779C172.189 103.151 173.144 100.405 173.92 97.5984C173.98 97.4193 173.98 97.2999 173.92 97.1207C174.04 96.5236 173.801 95.8668 173.144 95.6877ZM169.323 103.569C164.486 102.017 159.65 100.405 154.933 98.6135C154.097 98.3149 153.5 98.9717 153.5 99.6883C153.5 99.748 153.44 99.748 153.44 99.8077C152.843 101.599 152.246 103.45 151.649 105.241C151.469 105.838 151.887 106.555 152.484 106.734H152.544C152.664 106.794 152.723 106.853 152.843 106.913C156.664 108.167 160.545 109.481 164.008 111.63C162.934 113.84 162.217 116.228 161.859 118.676C160.068 118.079 158.336 117.422 156.604 116.646C154.515 115.691 152.425 114.616 150.096 114.138C149.439 114.019 148.782 114.317 148.603 114.974C148.544 115.093 148.544 115.213 148.603 115.332C148.603 115.332 148.603 115.332 148.603 115.392C147.827 117.661 147.111 119.99 146.334 122.259C146.155 122.856 146.573 123.572 147.17 123.751C147.23 123.751 147.349 123.751 147.409 123.811C148.544 124.408 149.738 124.886 150.992 125.244C152.425 125.662 153.858 125.901 155.291 126.14C156.604 126.379 157.918 126.737 159.112 127.334C159.709 127.633 160.306 127.931 160.844 128.349C161.142 128.528 161.68 128.827 161.978 129.125C161.859 129.484 161.56 129.901 161.441 130.2C161.202 130.737 160.963 131.275 160.724 131.753C160.247 132.768 159.829 133.842 159.351 134.857C150.574 133.066 142.035 130.26 133.915 126.438C134.034 124.05 135.049 121.841 135.945 119.691C137.02 117.124 138.094 114.616 139.169 112.048C141.259 106.973 143.289 101.898 145.2 96.7625C146.334 93.8367 147.409 90.8512 148.424 87.9254C155.888 91.5677 163.352 95.4489 171.353 97.7178C170.815 99.6883 170.099 101.659 169.323 103.569Z" fill="#1E1E1E"/>
<path d="M261.097 203.225C227.301 204.061 193.445 204.658 159.59 204.957C125.913 205.255 92.2369 205.255 58.6202 205.017C39.6325 204.897 20.6447 204.658 1.65695 204.36C-0.552317 204.3 -0.552317 206.689 1.65695 206.748C35.5125 207.286 69.3083 207.584 103.164 207.584C136.84 207.584 170.517 207.345 204.133 206.808C223.121 206.509 242.109 206.151 261.097 205.673C263.246 205.554 263.246 203.166 261.097 203.225Z" fill="#1E1E1E"/>
<path d="M137.855 45.4119C137.796 45.6508 137.676 45.8896 137.497 46.0688C137.019 46.5464 136.183 46.5464 135.706 46.0688C133.974 44.2775 132.66 42.725 131.586 41.2323C131.168 40.6352 130.75 39.9783 130.332 39.3215C129.974 38.7244 130.153 37.9482 130.75 37.5899C131.347 37.2317 132.123 37.4108 132.481 38.0079C132.84 38.605 133.258 39.2021 133.616 39.7992C134.631 41.2323 135.765 42.6653 137.437 44.3372C137.796 44.6357 137.915 45.0537 137.855 45.4119Z" fill="#1E1E1E"/>
<path d="M149.439 74.6101C149.2 75.2669 148.483 75.6252 147.827 75.3863C147.17 75.1475 146.811 74.431 147.05 73.7742C147.886 71.4455 148.245 68.8182 148.065 66.0716C148.006 65.3551 148.543 64.758 149.2 64.758C149.916 64.6982 150.513 65.2356 150.513 65.8924C150.633 67.9823 150.513 70.0721 150.096 72.0426C149.976 72.8785 149.737 73.7742 149.439 74.6101Z" fill="#1E1E1E"/>
<path d="M141.677 50.129C142.155 49.6513 142.991 49.711 143.468 50.1887C145.737 52.6368 147.349 54.9058 148.424 57.3539C148.544 57.5927 148.544 57.8913 148.484 58.1301C148.424 58.4884 148.185 58.8467 147.767 59.0258C147.111 59.3243 146.394 59.0258 146.095 58.4287C145.08 56.2791 143.707 54.249 141.558 51.9203C141.14 51.4426 141.14 50.6067 141.677 50.129Z" fill="#1E1E1E"/>
<path d="M136.243 6.00339C136.362 5.34658 136.959 4.8689 137.676 4.92861C138.273 4.98832 138.87 5.10774 139.527 5.28687C140.482 5.466 141.378 5.70484 142.095 5.88397C142.751 6.0631 143.169 6.71991 142.99 7.37672V7.43643C142.811 8.09323 142.154 8.5112 141.438 8.33207C140.721 8.15294 139.885 7.9141 138.99 7.73498C138.393 7.61556 137.855 7.49614 137.318 7.43643C136.661 7.31701 136.183 6.71991 136.243 6.00339Z" fill="#1E1E1E"/>
<path d="M127.048 22.8416C127.406 25.4688 128.063 28.0961 129.018 30.6636C129.078 30.9024 129.138 31.1413 129.078 31.3204C129.018 31.7384 128.72 32.0966 128.302 32.2161C127.645 32.4549 126.928 32.0966 126.689 31.4398C125.674 28.7529 125.018 25.9465 124.6 23.0804C124.48 22.4236 124.958 21.7668 125.674 21.6474C126.331 21.7071 126.928 22.1848 127.048 22.8416Z" fill="#1E1E1E"/>
<path d="M124.599 13.467C125.256 10.3621 126.63 8.03343 128.719 6.54068C129.257 6.12271 130.093 6.30184 130.451 6.83923C130.63 7.13778 130.75 7.49604 130.63 7.79459C130.57 8.09314 130.391 8.39169 130.153 8.57082C128.6 9.6456 127.525 11.4966 126.988 13.9447C126.928 14.2433 126.868 14.5418 126.809 14.8404C126.689 15.5569 126.092 15.9749 125.376 15.9151C124.719 15.7957 124.241 15.1986 124.301 14.4821C124.48 14.1836 124.54 13.8253 124.599 13.467Z" fill="#1E1E1E"/>
<path d="M149.439 1.34604L149.857 1.52517C150.096 1.64459 150.275 1.76401 150.514 1.82372C151.588 2.36111 152.723 2.95821 153.738 3.13734L154.753 2.54024C154.574 2.59995 154.454 2.65966 154.275 2.71937C153.559 2.95821 152.902 2.48053 152.245 2.12227C151.409 1.7043 150.633 1.16691 149.916 0.629517C149.678 0.450387 149.26 0.450387 149.021 0.689227C148.842 0.808647 148.782 1.04749 148.782 1.22662C148.961 1.22662 149.2 1.22662 149.439 1.34604Z" fill="#00A99D"/>
<path d="M160.306 0.808616C160.426 0.0920966 159.53 -0.206453 159.052 0.151807C158.873 0.271227 158.694 0.390646 158.455 0.569776C158.694 0.569776 158.873 0.629486 159.052 0.748906C159.231 0.868326 159.291 0.987746 159.351 1.16688C159.649 2.18194 159.53 3.1373 159.41 4.03295C159.351 4.57034 159.291 5.10773 159.291 5.58541C159.291 5.58541 159.291 5.64512 159.291 5.70483C159.291 5.88396 159.231 6.06309 159.231 6.24222L159.172 6.66019L161.202 8.39178C161.321 8.5112 161.441 8.57091 161.62 8.69033C162.097 9.04859 162.575 9.40685 162.874 9.82482C163.292 9.52627 163.411 8.92917 162.933 8.57091C162.277 8.09323 161.62 7.61555 161.023 7.07816C160.724 6.77961 160.426 6.54077 160.127 6.24222C159.888 5.94367 159.888 5.64512 159.888 5.28686C159.888 3.85382 160.008 2.30136 160.306 0.808616Z" fill="#00A99D"/>
<path d="M150.096 6.30191C150.096 6.48104 150.036 6.60046 149.976 6.71988C150.275 8.27234 149.021 9.46654 147.887 10.5413C147.708 10.7205 147.469 10.8996 147.29 11.0787C147.409 11.1384 147.588 11.1981 147.767 11.1981C148.484 11.1384 149.26 11.1384 149.976 11.0787C150.335 11.0787 150.753 11.0787 151.111 11.0787C151.29 11.0787 151.469 11.0787 151.708 11.0787C151.828 11.0787 151.887 11.0787 152.007 11.0787C152.007 11.0787 152.066 11.0787 152.126 11.0787V11.1384C152.186 11.1981 152.245 11.3176 152.245 11.3773C152.365 11.5564 152.425 11.7355 152.544 11.9146C152.723 12.2729 152.902 12.6312 153.081 12.9894C153.44 13.7059 153.798 14.4822 154.156 15.1987C154.335 15.4972 154.634 15.6764 154.992 15.6167L156.306 12.452C156.306 12.3923 156.365 12.3326 156.365 12.3326C156.425 12.2132 156.485 12.1535 156.545 12.0938C156.604 11.9146 156.664 11.7355 156.783 11.5564C156.963 11.2578 157.022 11.2578 157.381 11.1981C158.694 10.8996 160.008 10.601 161.262 10.3025C161.083 10.1234 160.844 10.0039 160.724 9.88451C160.545 9.76509 160.426 9.64567 160.247 9.52625L158.157 7.79466C157.799 7.49611 157.619 7.07814 157.679 6.60046L157.739 6.12278C157.739 6.00337 157.798 5.82423 157.798 5.64511C157.798 5.04801 157.858 4.45091 157.918 3.91352C157.978 3.31642 158.037 2.77903 158.037 2.24164L154.335 4.51062C154.156 4.63004 153.917 4.68975 153.738 4.68975C153.679 4.68975 153.619 4.68975 153.559 4.68975C152.305 4.45091 151.051 3.7941 149.797 3.197C149.618 3.07758 149.379 3.01787 149.2 2.89845L149.141 2.83874C149.32 3.31642 149.439 3.7941 149.618 4.21207C149.857 4.86888 150.156 5.5854 150.096 6.30191ZM151.29 6.06308C151.23 5.88395 151.23 5.70482 151.35 5.52569C151.529 5.16743 152.007 5.04801 152.365 5.22714C152.843 5.46598 153.38 5.5854 153.917 5.52569C154.514 5.46598 155.112 5.10772 155.709 4.74946C156.067 4.51062 156.485 4.63004 156.664 4.9883C156.843 5.22714 156.843 5.52569 156.664 5.76453C156.604 5.82424 156.545 5.88394 156.485 5.94365L156.425 6.00337C155.709 6.48104 154.873 6.89901 153.977 7.01843C153.141 7.07814 152.365 6.95872 151.648 6.54075C151.469 6.42133 151.35 6.24221 151.29 6.06308Z" fill="#00A99D"/>
<path d="M162.694 10.004C162.276 10.1234 161.799 10.1831 161.381 10.3025C161.5 10.3622 161.56 10.4817 161.62 10.5414C161.56 10.7802 161.082 10.8996 160.127 11.0191C159.59 11.0788 158.992 11.1982 158.574 11.3773L157.321 11.6759C157.022 11.7356 156.783 11.855 156.604 12.0938C156.544 12.273 156.485 12.5118 156.365 12.6909C156.067 13.5269 155.828 14.3628 155.589 15.1988C155.529 15.4973 155.29 15.6167 154.992 15.6764L154.574 16.6318C154.216 15.7361 153.678 14.9599 153.201 14.2434C152.902 13.7657 152.603 13.288 152.305 12.7506C152.186 12.5715 152.006 12.3924 151.827 12.273C151.648 12.1535 151.409 12.0938 151.23 12.0938L146.692 11.7356L146.931 11.4967C147.05 11.3773 147.17 11.2579 147.289 11.1385C147.23 11.0788 147.17 11.0788 147.11 11.0191C146.513 10.8399 146.334 10.1831 146.752 9.70544C147.409 9.04863 148.245 8.63066 148.961 8.03356C149.379 7.6753 149.797 7.31704 149.976 6.77965C149.976 6.71994 149.976 6.71994 149.976 6.66023L149.021 2.71937L149.2 2.77908C149.081 2.36111 148.961 1.94314 148.782 1.58488C148.722 1.46546 148.722 1.34604 148.722 1.22662C148.483 1.22662 148.185 1.34604 148.006 1.52517C147.588 1.88343 147.409 2.36111 147.528 2.8985L148.543 7.01849C148.722 7.79472 147.827 8.69037 146.931 9.52631C146.573 9.88457 146.215 10.1831 145.916 10.5414L145.617 10.8996C145.259 11.3176 145.199 11.855 145.379 12.3327C145.558 12.8104 146.035 13.1686 146.573 13.1686L151.23 13.5269C151.529 14.0643 151.827 14.5419 152.186 15.0196C152.723 15.7959 153.201 16.5721 153.559 17.4677C153.559 17.5274 153.559 17.5274 153.619 17.5871C153.738 17.826 153.977 18.0051 154.156 18.1245C154.514 18.3037 154.872 18.3037 155.231 18.1842C155.35 18.1245 155.529 18.0648 155.649 17.9454C155.828 17.826 155.947 17.6469 156.007 17.408L157.798 13.1089L159.052 12.8104C159.112 12.8104 159.172 12.8104 159.172 12.7506C159.47 12.6312 160.008 12.5118 160.485 12.4521C161.381 12.3327 162.515 12.1535 162.993 11.3176C163.112 11.1385 163.172 10.9593 163.172 10.7205C163.292 10.422 163.232 10.1234 163.053 9.88457C162.874 9.94428 162.754 9.94428 162.694 10.004Z" fill="#1E1E1E"/>
<path d="M158.515 0.569702H158.455C158.216 0.569702 157.918 0.629412 157.679 0.748832L154.753 2.54013C155.47 2.30129 156.126 1.94303 156.724 1.58477C157.321 1.34593 157.918 0.927962 158.515 0.569702Z" fill="#1E1E1E"/>
<path d="M156.366 12.4521L155.052 15.6167C155.291 15.557 155.53 15.4376 155.649 15.139C155.888 14.3031 156.127 13.4672 156.425 12.6312C156.485 12.4521 156.545 12.2132 156.664 12.0341C156.604 12.0938 156.545 12.2132 156.485 12.273C156.425 12.3924 156.366 12.3924 156.366 12.4521Z" fill="#1E1E1E"/>
<path d="M161.739 8.75007C161.56 8.63065 161.44 8.51123 161.321 8.45152L159.291 6.71993L159.35 6.30196C159.35 6.12283 159.41 5.9437 159.41 5.76457C159.41 5.70486 159.41 5.70486 159.41 5.64515C159.41 5.16747 159.47 4.63008 159.529 4.09269C159.649 3.19704 159.768 2.24169 159.47 1.22662C159.41 1.04749 159.291 0.928066 159.171 0.808646C158.992 0.689227 158.753 0.629517 158.574 0.629517C157.977 0.987776 157.44 1.40575 156.783 1.7043C156.126 2.06256 155.469 2.3611 154.812 2.65965L153.797 3.25675C152.782 3.01791 151.648 2.48052 150.573 1.94314C150.394 1.82372 150.155 1.76401 149.916 1.64459L149.498 1.46546C149.2 1.22662 148.961 1.22662 148.722 1.22662C148.722 1.34604 148.722 1.46546 148.782 1.58488C148.901 2.00285 149.02 2.42081 149.2 2.77907L149.259 2.83878C149.438 2.9582 149.677 3.01791 149.856 3.13733C151.051 3.73443 152.364 4.39124 153.618 4.63008C153.678 4.63008 153.738 4.63008 153.797 4.63008C154.036 4.63008 154.215 4.57037 154.394 4.45095L158.096 2.18198C158.156 2.71936 158.096 3.25675 157.977 3.85385C157.917 4.45095 157.858 5.04805 157.858 5.58544C157.858 5.76457 157.798 5.9437 157.798 6.06312L157.738 6.5408C157.678 6.95877 157.858 7.43645 158.216 7.735L160.306 9.46659C160.425 9.58601 160.604 9.70543 160.783 9.82485C160.903 9.88456 161.142 10.0637 161.321 10.2428C161.739 10.1234 162.216 10.0637 162.634 9.94427C162.754 9.94427 162.813 9.88456 162.873 9.82485C162.694 9.46659 162.216 9.10833 161.739 8.75007Z" fill="#1E1E1E"/>
<path d="M149.976 6.7796C149.797 7.25728 149.379 7.67525 148.961 8.03351C148.245 8.63061 147.409 9.04858 146.752 9.70539C146.274 10.1831 146.513 10.8399 147.11 11.019C147.17 11.0787 147.23 11.1384 147.29 11.1384C147.469 10.9593 147.648 10.7802 147.887 10.601C149.081 9.52626 150.335 8.33206 149.976 6.7796Z" fill="#1E1E1E"/>
<path d="M153.977 6.95877C154.932 6.83935 155.708 6.42138 156.425 5.9437L156.484 5.88399C156.544 5.82428 156.604 5.76457 156.664 5.70486C156.783 5.46602 156.783 5.16747 156.664 4.92863C156.425 4.57037 156.007 4.51066 155.708 4.68979C155.111 5.10776 154.514 5.40631 153.917 5.46602C153.38 5.52573 152.842 5.40631 152.364 5.16747C152.006 4.98834 151.588 5.10776 151.349 5.46602C151.23 5.64515 151.23 5.82428 151.29 6.00341C151.349 6.18254 151.469 6.30196 151.648 6.42138C152.364 6.89906 153.141 7.01848 153.977 6.95877Z" fill="#1E1E1E"/>
<path d="M34.4377 53.7117C33.9004 53.4131 33.2435 53.6519 32.945 54.1893C32.6464 54.7267 32.8853 55.3835 33.4227 55.6821C34.3183 56.1001 35.214 56.5777 36.1096 56.9957C36.647 57.2345 37.3038 56.9957 37.5427 56.4583C37.7815 55.9209 37.6024 55.2641 37.0053 54.9656C36.1693 54.5476 35.2737 54.1296 34.4377 53.7117Z" fill="#1E1E1E"/>
<path d="M47.1559 62.1904C47.6933 62.4293 48.3501 62.1904 48.5889 61.653C48.8875 61.1156 48.6486 60.4588 48.1113 60.1603C46.2602 59.2049 44.3495 58.3093 42.5582 57.4733C42.0208 57.1748 41.364 57.4733 41.0655 58.0107C40.8266 58.5481 41.0655 59.2049 41.6029 59.4438C43.3942 60.3991 45.3049 61.2351 47.1559 62.1904Z" fill="#1E1E1E"/>
<path d="M57.5456 68.6392C58.0233 68.8183 58.5607 68.6989 58.8592 68.3406C59.2175 67.863 59.1578 67.1464 58.6801 66.7882C57.1276 65.5343 55.4557 64.3998 53.545 63.2056C53.0076 62.907 52.3508 63.0265 52.0523 63.5639C51.7537 64.1012 51.8731 64.758 52.4105 65.0566C54.2615 66.1911 55.8737 67.2659 57.3067 68.4601C57.4262 68.5198 57.4859 68.5795 57.5456 68.6392Z" fill="#1E1E1E"/>
<path d="M58.441 96.2252C58.5605 95.6281 58.2022 95.031 57.6648 94.9116C55.9332 94.4936 54.0822 94.1353 52.1715 93.8368C51.9327 93.8368 51.6938 93.7771 51.455 93.7771C50.8579 93.7174 50.3205 94.1951 50.2608 94.7922C50.2011 95.2698 50.4996 95.6878 50.9176 95.9266C51.037 95.9864 51.1564 95.9864 51.2759 96.0461C51.5147 96.0461 51.7535 96.1058 51.9327 96.1058C53.724 96.3446 55.4555 96.7029 57.1274 97.1208C57.7245 97.1208 58.3216 96.7626 58.441 96.2252Z" fill="#1E1E1E"/>
<path d="M52.41 117.303C52.4697 117.303 52.4697 117.362 52.5294 117.362C52.7682 117.422 53.0071 117.542 53.3056 117.601C53.3653 117.601 53.425 117.601 53.4847 117.661C55.5746 117.9 57.545 117.482 59.3363 116.586C59.8737 116.288 60.0528 115.631 59.814 115.093C59.5154 114.556 58.8586 114.377 58.3212 114.616C56.9479 115.332 55.4552 115.631 53.843 115.452C53.6639 115.392 53.4847 115.332 53.3056 115.273C52.7085 115.093 52.1114 115.392 51.9323 115.989C51.6337 116.526 51.9323 117.064 52.41 117.303Z" fill="#1E1E1E"/>
<path d="M62.7998 112.406C63.2774 112.645 63.8148 112.466 64.1731 112.048C65.3673 110.376 66.5018 108.525 67.3974 106.615C67.6363 106.077 67.4571 105.42 66.86 105.122C66.2629 104.823 65.6658 105.062 65.3673 105.659C64.5313 107.451 63.5163 109.182 62.3221 110.735C61.9638 111.212 62.0832 111.929 62.5609 112.287C62.6803 112.347 62.74 112.406 62.7998 112.406Z" fill="#1E1E1E"/>
<path d="M65.1286 77.2971C65.248 77.4762 65.4271 77.6553 65.6062 77.7747C65.9048 77.8942 66.263 77.8942 66.6213 77.715C67.1587 77.4165 67.3378 76.7597 67.0393 76.2223C66.3825 75.1475 65.6659 74.0727 64.9494 73.0577C64.412 72.4008 63.8746 71.744 63.3373 71.0872C62.9193 70.6095 62.2625 70.6095 61.7848 71.0275C61.3071 71.4455 61.3071 72.1023 61.7251 72.58C62.2625 73.1771 62.7402 73.7742 63.2178 74.431C63.8746 75.2669 64.5315 76.282 65.1286 77.2971Z" fill="#1E1E1E"/>
<path d="M86.0868 119.751C85.5494 120.109 85.43 120.766 85.7883 121.303C87.1019 123.333 88.4155 124.946 89.7888 126.259C90.2068 126.677 90.9233 126.677 91.3413 126.2C91.7593 125.782 91.7593 125.065 91.2816 124.647C90.0277 123.453 88.8335 122.02 87.5796 120.109C87.3407 119.751 86.9825 119.631 86.6242 119.631C86.4451 119.572 86.266 119.631 86.0868 119.751Z" fill="#1E1E1E"/>
<path d="M70.801 88.224C70.6219 86.0745 70.2039 83.9846 69.6068 82.0142C69.4277 81.4171 68.8306 81.1185 68.2335 81.2977C67.6364 81.4768 67.3378 82.0739 67.517 82.671C68.0543 84.522 68.4723 86.4327 68.6514 88.4629C68.7112 88.8808 68.95 89.1794 69.3083 89.3585C69.4874 89.4182 69.6665 89.4779 69.8456 89.4779C70.383 89.3585 70.8607 88.8211 70.801 88.224Z" fill="#1E1E1E"/>
<path d="M72.8905 103.211C72.5322 103.689 72.5919 104.405 73.0696 104.764C74.6221 106.018 76.0551 107.391 77.309 108.884C77.4284 109.003 77.5478 109.122 77.6673 109.182C78.0255 109.361 78.5032 109.302 78.8615 109.003C79.3391 108.585 79.3989 107.928 78.9809 107.451C77.6076 105.838 76.1148 104.405 74.5026 103.032C73.9652 102.674 73.3084 102.734 72.8905 103.211Z" fill="#1E1E1E"/>
<path d="M43.3937 103.211C43.9908 103.271 44.5282 102.853 44.6476 102.256C44.7671 101.121 45.0656 100.047 45.5433 99.0315C45.7821 98.4941 46.0807 97.9567 46.4389 97.4193C46.4987 97.3596 46.5584 97.2999 46.6181 97.2402C47.036 96.7625 46.9763 96.1057 46.4987 95.6877C46.021 95.2697 45.3642 95.3295 44.9462 95.8071C44.8865 95.9266 44.7671 95.9863 44.7074 96.1057L44.6476 96.1654C44.2297 96.8222 43.8714 97.479 43.5729 98.1358C43.0355 99.3897 42.6772 100.644 42.4981 102.017C42.4384 102.495 42.7369 102.972 43.1549 103.151C43.2146 103.211 43.334 103.211 43.3937 103.211Z" fill="#1E1E1E"/>
<path d="M69.786 93.359C69.1889 93.2993 68.6515 93.7172 68.5918 94.3741C68.4724 95.8071 68.2336 97.2998 67.8753 98.7329C66.502 98.0164 65.0689 97.3596 63.6359 96.8222C63.0985 96.5833 62.4417 96.8819 62.2029 97.4193C61.964 97.9567 62.2626 98.6135 62.8 98.8523C64.4718 99.5091 66.084 100.285 67.6365 101.121C67.7559 101.3 67.8753 101.42 68.1142 101.48C68.1739 101.48 68.2336 101.539 68.2933 101.539C68.4724 101.599 68.5918 101.599 68.771 101.539C69.1292 101.539 69.5472 101.36 69.7263 101.002C69.9055 100.703 69.9055 100.405 69.786 100.106C70.2637 98.2552 70.622 96.4042 70.8011 94.5532C70.8011 93.9561 70.3831 93.4187 69.786 93.359Z" fill="#1E1E1E"/>
<path d="M46.9169 114.019C47.0364 114.078 47.0961 114.198 47.2155 114.198C47.6335 114.377 48.1111 114.317 48.4694 113.959C48.8874 113.541 48.8874 112.824 48.4097 112.406C47.0364 111.093 45.9616 109.481 45.3048 107.749C45.0659 107.152 44.4688 106.913 43.8717 107.092C43.2746 107.331 43.0358 107.928 43.2149 108.525C44.0509 110.615 45.3048 112.466 46.9169 114.019Z" fill="#1E1E1E"/>
<path d="M81.907 111.75C81.7279 111.75 81.4891 111.809 81.3099 111.929C80.7726 112.287 80.6531 112.944 80.9517 113.481C81.4294 114.198 81.907 114.974 82.4444 115.929C82.743 116.467 83.4595 116.646 83.9372 116.288C84.4746 115.989 84.6537 115.273 84.2954 114.795C83.6983 113.78 83.2207 113.004 82.743 112.287C82.6833 111.929 82.325 111.75 81.907 111.75Z" fill="#1E1E1E"/>
<path d="M189.027 152.412C188.489 152.711 187.832 152.472 187.534 151.935C187.235 151.397 187.474 150.74 188.012 150.442C188.907 150.024 189.803 149.546 190.698 149.128C191.236 148.889 191.893 149.128 192.132 149.666C192.37 150.203 192.191 150.86 191.594 151.158C190.758 151.517 189.863 151.935 189.027 152.412Z" fill="#1E1E1E"/>
<path d="M201.745 143.874C202.282 143.635 202.939 143.874 203.178 144.411C203.476 144.948 203.237 145.605 202.7 145.904C200.849 146.859 198.938 147.755 197.147 148.591C196.609 148.889 195.953 148.591 195.654 148.053C195.415 147.516 195.654 146.859 196.191 146.62C197.983 145.725 199.894 144.829 201.745 143.874Z" fill="#1E1E1E"/>
<path d="M212.135 137.425C212.612 137.246 213.15 137.365 213.448 137.724C213.807 138.201 213.747 138.918 213.269 139.276C211.717 140.53 210.045 141.664 208.134 142.859C207.597 143.157 206.94 143.038 206.642 142.5C206.343 141.963 206.462 141.306 207 141.008C208.851 139.873 210.463 138.798 211.896 137.604C212.015 137.544 212.075 137.485 212.135 137.425Z" fill="#1E1E1E"/>
<path d="M213.03 109.899C213.15 110.496 212.792 111.093 212.254 111.212C210.523 111.63 208.672 111.988 206.761 112.287C206.522 112.287 206.283 112.347 206.044 112.347C205.447 112.406 204.91 111.929 204.85 111.332C204.79 110.854 205.089 110.436 205.507 110.197C205.626 110.137 205.746 110.137 205.865 110.078C206.104 110.078 206.343 110.018 206.522 110.018C208.313 109.779 210.045 109.421 211.717 109.003C212.314 108.943 212.911 109.302 213.03 109.899Z" fill="#1E1E1E"/>
<path d="M206.999 88.7614C207.059 88.7614 207.059 88.7017 207.119 88.7017C207.357 88.6419 207.596 88.5225 207.895 88.4628C207.955 88.4628 208.014 88.4628 208.074 88.4031C210.164 88.1643 212.134 88.5822 213.926 89.4779C214.463 89.7764 214.642 90.4332 214.403 90.9706C214.105 91.508 213.448 91.6872 212.91 91.4483C211.537 90.7318 210.044 90.4332 208.432 90.6124C208.253 90.6721 208.074 90.7318 207.895 90.7915C207.298 90.9706 206.701 90.6721 206.522 90.075C206.223 89.5973 206.522 89.0002 206.999 88.7614Z" fill="#1E1E1E"/>
<path d="M217.389 93.6576C217.866 93.4187 218.404 93.5979 218.762 94.0158C219.956 95.6877 221.091 97.5387 221.986 99.4494C222.225 99.9868 222.046 100.644 221.449 100.942C220.852 101.241 220.255 101.002 219.956 100.405C219.12 98.6135 218.105 96.8819 216.911 95.3295C216.553 94.8518 216.672 94.1353 217.15 93.777C217.269 93.7173 217.329 93.6576 217.389 93.6576Z" fill="#1E1E1E"/>
<path d="M219.717 128.827C219.837 128.648 220.016 128.468 220.195 128.349C220.493 128.23 220.852 128.23 221.21 128.409C221.747 128.707 221.926 129.364 221.628 129.901C220.971 130.976 220.255 132.051 219.538 133.066C219.001 133.723 218.463 134.38 217.926 135.037C217.508 135.514 216.851 135.514 216.373 135.096C215.896 134.678 215.896 134.021 216.314 133.544C216.851 132.947 217.329 132.35 217.806 131.693C218.463 130.797 219.12 129.782 219.717 128.827Z" fill="#1E1E1E"/>
<path d="M240.676 86.373C240.138 86.0147 240.019 85.3579 240.377 84.8205C241.691 82.7904 243.004 81.1782 244.378 79.8646C244.796 79.4466 245.512 79.4466 245.93 79.9243C246.348 80.3423 246.348 81.0588 245.87 81.4767C244.616 82.6709 243.422 84.104 242.168 86.0147C241.929 86.373 241.571 86.4924 241.213 86.4924C241.094 86.5521 240.855 86.4924 240.676 86.373Z" fill="#1E1E1E"/>
<path d="M225.39 117.84C225.211 119.99 224.793 122.079 224.196 124.05C224.017 124.647 223.42 124.946 222.822 124.766C222.225 124.587 221.927 123.99 222.106 123.393C222.643 121.542 223.061 119.631 223.24 117.601C223.3 117.183 223.539 116.885 223.897 116.706C224.076 116.646 224.256 116.586 224.435 116.586C224.972 116.706 225.45 117.243 225.39 117.84Z" fill="#1E1E1E"/>
<path d="M227.479 102.853C227.121 102.375 227.181 101.659 227.659 101.3C229.211 100.047 230.644 98.6732 231.898 97.1804C232.017 97.061 232.137 96.9416 232.256 96.8819C232.615 96.7028 233.092 96.7625 233.45 97.061C233.928 97.479 233.988 98.1358 233.57 98.6135C232.197 100.226 230.704 101.659 229.092 103.032C228.554 103.39 227.897 103.331 227.479 102.853Z" fill="#1E1E1E"/>
<path d="M198.043 102.853C198.64 102.793 199.178 103.211 199.297 103.808C199.416 104.943 199.715 106.018 200.193 107.033C200.432 107.57 200.73 108.107 201.088 108.645C201.148 108.704 201.208 108.764 201.267 108.824C201.685 109.302 201.626 109.958 201.148 110.376C200.67 110.794 200.014 110.735 199.596 110.257C199.536 110.138 199.416 110.078 199.357 109.958L199.297 109.899C198.879 109.242 198.521 108.585 198.222 107.928C197.685 106.674 197.327 105.42 197.148 104.047C197.088 103.569 197.386 103.092 197.804 102.913C197.804 102.913 197.924 102.853 198.043 102.853Z" fill="#1E1E1E"/>
<path d="M224.375 112.765C223.778 112.824 223.241 112.407 223.181 111.75C223.061 110.317 222.823 108.824 222.464 107.391C221.091 108.107 219.658 108.764 218.225 109.302C217.688 109.54 217.031 109.242 216.792 108.704C216.553 108.167 216.852 107.51 217.389 107.271C219.061 106.615 220.673 105.838 222.225 105.002C222.345 104.823 222.464 104.704 222.703 104.644C222.763 104.644 222.823 104.585 222.882 104.585C223.061 104.525 223.181 104.525 223.36 104.585C223.718 104.585 224.136 104.764 224.315 105.122C224.494 105.42 224.494 105.719 224.375 106.018C224.853 107.869 225.211 109.72 225.39 111.571C225.39 112.108 224.972 112.705 224.375 112.765Z" fill="#1E1E1E"/>
<path d="M201.506 92.1051C201.626 92.0454 201.685 91.926 201.805 91.926C202.223 91.7469 202.7 91.8066 203.059 92.1648C203.477 92.5828 203.477 93.2993 202.999 93.7173C201.626 95.0309 200.551 96.6431 199.894 98.3747C199.655 98.9718 199.058 99.2106 198.461 99.0315C197.864 98.7926 197.625 98.1955 197.804 97.5984C198.64 95.5086 199.894 93.5979 201.506 92.1051Z" fill="#1E1E1E"/>
<path d="M236.496 94.3144C236.317 94.3144 236.078 94.2547 235.899 94.1352C235.362 93.777 235.242 93.1202 235.541 92.5828C236.019 91.8663 236.496 91.09 237.034 90.1347C237.332 89.5973 238.049 89.4182 238.527 89.7764C239.064 90.075 239.243 90.7915 238.885 91.2692C238.288 92.2842 237.81 93.0605 237.332 93.777C237.273 94.195 236.914 94.3144 236.496 94.3144Z" fill="#1E1E1E"/>
<path d="M27.4513 31.619C27.3318 32.8132 27.0333 34.0074 26.5556 35.0822C26.3168 35.6196 25.8391 36.157 25.66 36.6943C25.4808 37.2317 25.8391 37.8288 26.0182 38.3065C26.1376 38.6648 26.2571 39.0827 26.2571 39.441C26.6153 38.9633 26.9139 38.4259 27.0333 37.7691C27.093 37.2317 27.0333 36.6943 27.0333 36.2167C27.0333 36.2167 27.0333 36.157 27.0333 36.0375C27.0333 35.9778 27.0333 35.9778 27.093 35.9181C27.1527 35.739 27.2721 35.5599 27.3318 35.3807C27.5707 34.7239 27.5707 34.0671 27.511 33.47C27.7498 32.1564 27.7498 30.8428 27.7498 29.4694C27.6901 26.8422 26.7347 24.3344 24.5852 22.6625C24.2269 22.364 23.8089 22.1251 23.4507 21.946C26.1376 24.3344 27.8095 27.7976 27.4513 31.619Z" fill="#00A99D"/>
<path d="M24.7643 39.9783C25.0629 39.5006 24.8241 39.023 24.6449 38.5453C24.3464 37.8288 24.1075 37.1122 24.3464 36.336C24.7046 35.3209 25.3614 34.485 25.7197 33.4699C26.0183 32.5146 26.1377 31.4995 26.1377 30.4844C26.0183 25.8868 22.7342 22.125 18.4948 20.7517C18.1365 20.7517 17.7186 20.7517 17.3603 20.7517C16.0467 20.8114 14.7331 21.11 13.4792 21.4085C12.1058 21.7668 10.7325 22.2445 9.4786 23.0207C8.76208 22.6624 7.86643 22.9013 7.32904 23.5581C4.22412 27.2004 3.08963 33.2311 5.71687 37.4108C7.03049 39.5006 9.35918 40.3963 11.7476 40.7545C12.9418 40.9337 14.2554 40.9934 15.5093 41.0531C15.569 41.1128 15.6287 41.1725 15.6287 41.2322C15.7481 41.4114 15.9273 41.5905 16.0467 41.7696C17.0021 42.8444 18.0768 42.9638 19.3904 42.725H19.4502C20.5846 42.1876 21.7788 41.5905 22.9133 41.0531C23.5701 40.7545 24.4658 40.456 24.7643 39.9783ZM18.3157 40.7545C18.5545 41.5905 17.2409 41.889 17.0021 41.0531C16.405 39.023 14.9719 37.2317 13.4195 35.7986C11.9267 34.3656 10.1354 33.2908 8.16498 32.5743C7.32904 32.2757 7.74701 30.9621 8.58295 31.2607C10.7325 32.0369 12.7626 33.2908 14.4345 34.903C16.1064 36.4554 17.6589 38.4856 18.3157 40.7545ZM11.449 30.6039C10.434 31.0815 9.18005 30.4247 8.58295 29.5888C8.34411 29.2902 8.34411 28.8723 8.64266 28.5737C8.8815 28.3349 9.41889 28.3349 9.59802 28.6334C9.83686 28.932 10.2548 29.2902 10.6131 29.3499C10.7922 29.4097 11.0311 29.2902 11.1505 29.1111C11.0311 28.9917 10.9116 28.8723 10.7922 28.7528C10.1951 28.0363 9.95628 26.663 11.0311 26.1853C12.1655 25.7076 13.0015 27.2004 13.0015 28.096C13.0015 28.1557 13.0015 28.2155 13.0015 28.3349C13.1209 28.3349 13.3 28.2752 13.4195 28.2155C13.5389 28.1557 13.5986 28.0363 13.718 27.9766C13.5986 27.9169 13.5389 27.8572 13.4792 27.7975C13.0612 27.4392 12.7029 26.8421 12.7626 26.3047C12.8224 25.7673 13.2403 25.4091 13.7777 25.4091C14.6734 25.4688 15.2108 26.3047 15.3302 27.081C15.4496 27.081 15.569 27.081 15.6884 27.081C15.987 27.0213 16.1661 26.9018 16.2258 26.6033C16.2855 26.245 16.2855 25.7673 16.0467 25.4688C15.569 24.6926 16.8229 24.0955 17.2409 24.8717C17.838 25.8271 17.7186 27.5586 16.7035 28.1557C16.2258 28.4543 15.569 28.5737 15.0316 28.4543C14.5539 29.3499 13.5389 29.7679 12.5238 29.6485C12.2253 30.0665 11.867 30.4247 11.449 30.6039ZM21.0026 38.7841C18.9128 34.1864 18.3754 29.1111 19.3307 24.2149C19.5099 23.3789 20.8235 23.7969 20.6444 24.6329C19.689 29.1708 20.2861 33.9476 22.1968 38.1273C22.5551 38.9632 21.3609 39.5603 21.0026 38.7841Z" fill="#00A99D"/>
<path d="M23.3312 21.946C22.3758 21.11 21.3011 20.4532 20.1069 19.9158C14.6135 17.4677 7.14979 18.9605 4.70168 24.9315C4.34342 25.7674 5.65704 26.1854 6.0153 25.3494C7.98573 20.5129 13.897 19.259 18.4947 20.7518C20.1666 20.8115 21.8384 21.1697 23.3312 21.946Z" fill="#1E1E1E"/>
<path d="M26.2571 39.441C26.0183 39.7395 25.66 40.0381 25.3018 40.2769C23.6299 41.4114 21.5401 42.2473 19.5696 42.6056C19.5099 42.6056 19.5099 42.6653 19.4502 42.6653C18.4351 43.143 16.7036 44.3372 15.5691 43.4415C14.7928 42.8444 14.8525 41.6502 13.7778 41.292C12.7627 40.9337 11.6282 41.1726 10.5534 40.9337C8.10532 40.3366 5.95576 38.7842 4.64214 36.6346C3.98534 35.5001 3.56737 34.1865 3.38824 32.8729C3.26882 31.619 3.20911 29.9471 3.98534 28.932C4.64214 28.2155 3.50766 27.499 2.97027 28.2155C1.47752 30.2456 1.9552 33.5894 2.79114 35.7987C3.68679 38.1871 5.47808 40.2172 7.80677 41.3517C8.88155 41.8891 10.0757 42.307 11.2699 42.4862C11.867 42.5459 12.4044 42.5459 13.0015 42.6056C13.8375 42.6653 13.8972 43.5012 14.3152 44.0386C16.1065 46.5464 19.6891 44.0983 21.5998 43.2027C22.8537 42.6056 24.4061 42.1279 25.4809 41.1726C26.0183 40.6949 26.2571 40.0978 26.2571 39.441Z" fill="#1E1E1E"/>
<path d="M26.2572 39.4409C26.2572 39.0827 26.1377 38.7244 26.0183 38.3064C25.8392 37.8288 25.4809 37.2317 25.6601 36.6943C25.8392 36.1569 26.2572 35.6195 26.5557 35.0821C27.0931 34.0073 27.3917 32.8131 27.4514 31.6189C27.8096 27.7975 26.1377 24.2746 23.3314 21.9459C21.8386 21.1697 20.1668 20.8114 18.4949 20.7517C22.7343 22.125 26.0183 25.8868 26.078 30.4247C26.078 31.4398 25.9586 32.4549 25.6601 33.4102C25.3615 34.4253 24.645 35.2612 24.2867 36.2763C24.0479 37.0525 24.2867 37.769 24.5853 38.4856C24.7644 38.9632 25.0033 39.4409 24.7047 39.9186C24.4062 40.456 23.5105 40.6948 23.0328 40.9337C21.8983 41.4711 20.7041 42.0682 19.5697 42.6056C21.5401 42.2473 23.6299 41.4114 25.3018 40.2769C25.6601 40.0977 25.9586 39.7992 26.2572 39.4409Z" fill="#1E1E1E"/>
<path d="M26.0187 45.7105C26.7352 45.2328 27.5711 44.6954 27.9891 43.9192C28.3473 43.2624 28.2279 42.4264 27.5114 42.1279C26.7949 41.8293 26.0784 42.307 25.4216 42.6653C24.5259 43.2026 23.6303 43.6206 22.6749 44.0386C21.6598 44.5163 20.5851 44.9342 19.57 45.3522C18.6743 45.7105 17.719 46.1284 16.7636 46.009C15.868 45.8896 15.8083 47.2629 16.7039 47.3823C18.4952 47.6212 20.2865 46.6061 21.839 45.9493C22.7943 45.5313 23.69 45.1134 24.6453 44.6954C25.0633 44.4566 25.4813 44.2774 25.8992 44.0386C26.0784 43.9192 26.3172 43.7997 26.4963 43.6803C26.4366 43.74 26.3172 43.7997 26.2575 43.8595C25.8992 44.158 25.4813 44.4566 25.0633 44.7551C24.2274 45.2925 23.3914 45.7702 22.5555 46.2479C21.839 46.6658 20.8239 47.0838 20.2865 47.7406C19.8088 48.3974 20.0477 49.1736 20.8836 49.2931C21.7793 49.4722 22.7943 49.1736 23.69 48.9348C24.8245 48.6363 25.8992 48.278 27.0337 47.9794C27.8697 47.7406 27.6308 46.3673 26.7352 46.6658C25.7201 46.9644 24.7647 47.2629 23.7497 47.5018C23.3317 47.6212 22.9735 47.7406 22.5555 47.8003C22.4958 47.8003 22.4958 47.8003 22.4361 47.8003C22.7943 47.5615 23.2123 47.3226 23.6303 47.1435C24.4662 46.6658 25.2424 46.2479 26.0187 45.7105Z" fill="#1E1E1E"/>
<path d="M25.4808 49.4125C25.0032 49.8305 24.6449 50.4276 24.824 51.0844C24.9435 51.4427 25.242 51.7412 25.66 51.6218C26.0182 51.5621 26.3168 51.2038 26.1974 50.7858V50.7261C26.1974 50.7261 26.1974 50.7261 26.1974 50.6664C26.1974 50.6067 26.2571 50.6067 26.2571 50.547C26.2571 50.547 26.2571 50.547 26.2571 50.4873C26.3168 50.4276 26.3168 50.4276 26.3765 50.3679C26.4362 50.3082 26.5556 50.1887 26.675 50.129C26.8542 50.0096 27.0333 49.9499 27.2124 49.8305C27.2721 49.8305 27.3916 49.7708 27.4513 49.7708C27.8095 49.7111 28.0484 49.3528 27.9887 48.9348C27.929 48.5766 27.5707 48.3377 27.1527 48.3974C26.5556 48.696 25.9585 48.9945 25.4808 49.4125Z" fill="#1E1E1E"/>
<path d="M8.58286 31.2606C7.74692 30.9621 7.32895 32.2757 8.16489 32.5742C10.1353 33.2908 11.9266 34.3655 13.4194 35.7986C14.9121 37.2316 16.4049 39.0229 17.002 41.0531C17.2408 41.889 18.6141 41.6502 18.3156 40.7545C17.6588 38.4855 16.1063 36.4554 14.4344 34.8432C12.7028 33.2908 10.7324 32.0369 8.58286 31.2606Z" fill="#1E1E1E"/>
<path d="M22.1971 38.1273C20.2864 33.9476 19.6893 29.1708 20.585 24.6329C20.7641 23.7969 19.4505 23.3193 19.2713 24.2149C18.316 29.1111 18.8534 34.2462 20.9432 38.7841C21.3612 39.5604 22.5554 38.9633 22.1971 38.1273Z" fill="#1E1E1E"/>
<path d="M14.9721 28.514C15.5692 28.5737 16.1663 28.514 16.644 28.2155C17.6591 27.5587 17.7785 25.8868 17.1814 24.9314C16.7037 24.1552 15.5095 24.812 15.9872 25.5285C16.1663 25.8868 16.2261 26.3048 16.1663 26.663C16.1066 27.0213 15.9275 27.081 15.629 27.1407C15.5095 27.1407 15.3901 27.1407 15.2707 27.1407C15.1513 26.3048 14.6139 25.4688 13.7182 25.4688C13.1808 25.4688 12.7629 25.8271 12.7032 26.3645C12.6435 26.9019 13.0017 27.499 13.4197 27.8572C13.4794 27.9169 13.5988 27.9766 13.6585 28.0364C13.5988 28.1558 13.4794 28.2155 13.36 28.2752C13.2406 28.3349 13.1211 28.3946 12.942 28.3946C12.942 28.3349 12.942 28.2752 12.942 28.1558C12.942 27.2004 12.1061 25.7077 10.9716 26.2451C9.95651 26.663 10.1954 28.0961 10.7327 28.8126C10.8522 28.932 10.9716 29.0514 11.091 29.1708C10.9119 29.2903 10.7327 29.4097 10.5536 29.4097C10.1954 29.35 9.71767 28.932 9.53854 28.6932C9.2997 28.3946 8.82202 28.3946 8.58318 28.6335C8.34434 28.8723 8.34434 29.2903 8.58318 29.5888C9.18028 30.4247 10.4342 31.0816 11.4493 30.6039C11.8672 30.4247 12.2255 30.1262 12.4643 29.7679C13.4794 29.8276 14.4945 29.4097 14.9721 28.514Z" fill="#1E1E1E"/>
<path d="M252.857 67.3255C252.618 67.4449 252.379 67.5644 252.2 67.6838C251.901 68.1017 251.603 68.5197 251.304 68.9377C251.125 69.1765 250.946 69.4751 250.827 69.7736C250.409 70.4901 250.11 71.2664 250.05 72.0426C250.11 72.5203 250.229 72.998 250.409 73.4159C251.364 75.5655 253.752 76.5806 255.962 76.5209C257.216 76.5209 258.649 76.2223 259.723 75.5655C260.738 74.9684 261.216 73.6548 261.455 72.5203C261.933 70.1916 261.097 67.8032 259.425 66.191C258.649 65.4745 257.633 64.8177 256.559 64.5789C255.484 64.9371 254.469 65.5342 253.513 66.3104C253.573 66.7881 253.275 67.1464 252.857 67.3255ZM254.111 70.4304C254.409 70.9081 254.708 71.3261 255.126 71.7441C255.364 71.9829 255.544 72.162 255.782 72.3412L255.842 72.4009L255.902 72.3412C256.081 72.162 256.2 71.9829 256.38 71.7441C256.678 71.3858 256.977 71.0275 257.275 70.6096C257.872 69.893 258.469 69.1168 259.007 68.3406C259.305 67.9823 259.783 67.7435 260.261 68.042C260.619 68.2809 260.858 68.878 260.559 69.2959C259.365 70.9081 258.111 72.4606 256.798 73.9533C256.38 74.431 255.782 74.5504 255.245 74.1922C254.887 73.9533 254.529 73.6548 254.17 73.3562C253.513 72.7591 252.916 72.0426 252.498 71.3261C252.26 70.9081 252.439 70.311 252.797 70.0722C253.275 69.893 253.812 70.0722 254.111 70.4304Z" fill="#00A99D"/>
<path d="M261.336 65.7133C263.366 68.1614 263.903 71.6245 262.649 74.5503C261.993 76.1028 260.978 77.0581 259.425 77.6552C257.813 78.2523 256.022 78.4315 254.35 78.1926C253.812 78.1329 253.275 77.9538 252.738 77.7747C253.812 78.4912 255.245 78.8494 256.858 78.73C257.216 78.73 257.634 78.73 257.992 78.6703C259.724 78.4315 261.395 77.715 262.59 76.461C263.784 75.2071 264.321 73.4755 264.62 71.8037C264.799 70.6692 264.859 69.5347 264.62 68.4599C264.56 68.3405 264.56 68.1614 264.5 68.0419C264.023 66.6686 263.008 65.4744 261.575 65.0565C261.276 64.8773 260.978 64.7579 260.739 64.6385C260.56 64.5788 260.321 64.5191 260.142 64.4594C260.5 64.8176 260.978 65.2356 261.336 65.7133Z" fill="#00A99D"/>
<path d="M259.783 64.34C259.903 64.34 259.962 64.3997 260.082 64.4594C257.932 62.7876 255.006 62.0113 252.499 63.3847C251.483 63.922 252.379 65.4745 253.394 64.9371C254.35 64.3997 255.484 64.34 256.499 64.6386C257.216 64.3997 257.992 64.2803 258.708 64.2803C259.067 64.2206 259.425 64.2803 259.783 64.34Z" fill="#1E1E1E"/>
<path d="M249.991 72.0426C249.812 70.311 250.648 68.5795 252.14 67.6838C252.558 67.2061 252.976 66.7284 253.454 66.3702C253.454 66.3105 253.454 66.3105 253.454 66.2508C253.335 65.8328 252.797 65.4745 252.379 65.6537C249.513 66.7882 247.781 69.5945 248.319 72.6994C248.737 75.1475 250.528 76.9986 252.737 77.8345C250.767 76.5209 249.752 74.2519 249.991 72.0426Z" fill="#1E1E1E"/>
<path d="M261.395 72.58C261.156 73.7144 260.679 74.9684 259.663 75.6252C258.589 76.282 257.156 76.5208 255.902 76.5805C253.692 76.6402 251.304 75.5655 250.349 73.4756C250.17 72.9979 250.05 72.58 249.99 72.1023C249.692 74.3713 250.767 76.5805 252.737 77.8344C253.275 78.0136 253.812 78.1927 254.349 78.2524C256.021 78.4912 257.812 78.3121 259.425 77.715C260.977 77.1179 261.992 76.1626 262.649 74.6101C263.903 71.6246 263.306 68.2211 261.335 65.773C260.977 65.2953 260.499 64.8774 260.081 64.5191C259.962 64.5191 259.902 64.4594 259.783 64.3997C259.425 64.34 259.066 64.2803 258.708 64.2803C257.992 64.2803 257.215 64.3997 256.499 64.6385C257.574 64.9371 258.589 65.5342 259.365 66.2507C261.097 67.8629 261.873 70.2513 261.395 72.58Z" fill="#1E1E1E"/>
<path d="M252.2 67.6838C252.379 67.5644 252.618 67.445 252.857 67.3256C253.274 67.1464 253.573 66.7882 253.513 66.3105C253.036 66.7285 252.558 67.2061 252.2 67.6838Z" fill="#1E1E1E"/>
<path d="M252.857 70.1318C252.439 70.3707 252.259 70.9677 252.558 71.3857C253.036 72.1619 253.573 72.8188 254.23 73.4159C254.588 73.7144 254.946 74.013 255.305 74.2518C255.842 74.6101 256.439 74.4906 256.857 74.013C258.171 72.5202 259.425 70.908 260.619 69.3556C260.917 68.9973 260.679 68.3405 260.32 68.1017C259.843 67.8628 259.365 68.042 259.066 68.4002C258.469 69.1765 257.932 69.893 257.335 70.6692C257.036 71.0275 256.738 71.4454 256.439 71.8037C256.26 71.9828 256.141 72.1619 255.962 72.4008L255.902 72.4605L255.842 72.4008C255.603 72.2217 255.364 71.9828 255.185 71.8037C254.767 71.3857 254.469 70.9677 254.17 70.4901C253.812 70.0721 253.275 69.893 252.857 70.1318Z" fill="#1E1E1E"/>
</svg>
