<svg width="41" height="46" viewBox="0 0 41 46" fill="none" xmlns="http://www.w3.org/2000/svg">
<path d="M40.4543 19.6145C40.0363 12.0911 34.0653 6.71717 27.8555 3.43312C24.5117 1.70153 20.9888 0.268492 17.1674 0.0296524C13.8236 -0.149477 10.5396 0.50733 7.31524 1.34327C6.41959 1.46269 5.58365 1.58211 4.74771 1.70153C4.0909 1.82095 3.61322 2.1195 3.31467 2.53747C2.18019 2.59718 0.985981 3.3137 0.985981 4.86616C0.806851 15.4945 0.269465 26.302 1.04569 36.9304C1.28453 40.3936 1.28453 45.5286 5.94191 45.1704C7.37495 45.051 8.8677 44.8718 10.3604 44.633C17.4659 45.6481 25.8253 42.6626 31.4978 38.5426C36.812 34.6614 40.7528 26.1826 40.4543 19.6145ZM23.4369 26.302C21.1082 31.0191 16.63 34.4226 11.4949 35.2585C11.1367 27.9739 10.659 20.6893 10.1813 13.4047C10.3604 13.345 10.5993 13.2853 10.7784 13.2256C12.9877 12.2105 15.3164 12.0314 17.4659 12.3896C22.9592 14.5392 26.4224 20.2116 23.4369 26.302Z" fill="#FBB03B"/>
</svg>
