<svg width="45" height="47" viewBox="0 0 45 47" fill="none" xmlns="http://www.w3.org/2000/svg">
<path d="M42.7316 3.69696C33.4766 2.32363 23.923 -1.79637 14.6082 0.890582C12.5184 1.06971 10.4882 1.6071 8.69694 2.68188C4.81579 5.01057 2.30798 9.9665 0.994359 14.1462C-0.49839 18.8633 -0.31926 23.6998 1.59146 28.2377C5.53231 37.6122 12.9961 45.3745 23.505 46.2701C27.207 46.5687 34.1931 47.5241 35.7455 43.1055C37.716 37.3734 38.731 31.1038 40.1641 25.1925C40.5223 23.8192 39.7461 22.7444 38.4922 22.2668C35.0887 20.8934 30.2522 18.7439 26.5502 19.1618C22.8482 19.6395 22.7288 24.2969 22.072 27.163C21.7137 28.596 22.7885 30.2679 24.4007 30.2082C26.0725 30.1485 28.4609 31.3427 26.2517 32.8951C25.4157 33.4325 24.1618 33.4922 23.2065 33.4325C21.2957 33.2534 19.5641 32.3577 18.2505 30.9247C14.9665 27.4018 15.0859 22.0279 16.3995 17.6691C17.0563 15.5195 17.8923 13.1908 19.1462 11.3398C20.6986 9.07085 23.1467 8.83201 25.774 8.71259C27.9833 8.59317 30.1925 8.77229 32.2824 9.24997C32.5212 9.84707 32.9989 10.3248 33.8348 10.5039C35.7455 10.9219 37.3577 11.6384 38.9699 12.7729C40.0447 13.4894 41.5971 12.952 42.2539 11.9369C42.5525 11.7578 42.7913 11.519 43.0302 11.1607C44.1049 9.54853 44.5826 7.93636 44.6423 6.02564C44.5229 5.07028 43.687 3.87609 42.7316 3.69696Z" fill="#FBB03B"/>
</svg>
