<svg width="42" height="22" viewBox="0 0 42 22" fill="none" xmlns="http://www.w3.org/2000/svg">
<path d="M41.5523 9.19986C40.5969 6.4532 39.5221 3.76626 38.2085 1.19873C37.8503 0.482211 36.9546 -0.055178 36.1187 0.00453191C24.5349 0.721051 13.7274 6.21436 2.26313 7.70711C0.173285 7.94595 -0.483522 10.3941 0.352417 11.7077C0.053867 12.6033 0.352417 13.6184 0.650966 14.6932C1.06894 16.3054 1.36748 18.4549 2.38255 19.8282C3.33791 21.2016 4.71124 21.0821 6.2637 20.903C8.59239 20.6045 10.9808 20.1865 13.3095 19.7685C18.0266 18.8729 22.7436 17.8578 27.3413 16.6039C31.6404 15.4694 35.641 13.0213 39.9401 12.2451C41.1343 11.9465 41.9702 10.3344 41.5523 9.19986Z" fill="#FBB03B"/>
</svg>
