<svg width="50" height="55" viewBox="0 0 50 55" fill="none" xmlns="http://www.w3.org/2000/svg">
<path d="M49.2199 35.944C45.0999 27.6443 41.4576 19.1057 37.7556 10.5672C36.86 8.47738 35.9643 6.38753 35.0687 4.29768C34.4716 2.86464 33.9939 0.953921 32.4414 0.237402C31.2472 -0.299988 30.1127 0.17769 28.9782 0.65537C26.8884 1.55102 24.8583 2.50639 22.8281 3.46174C22.2907 3.70058 21.9325 4.05883 21.7533 4.4768C20.8577 4.89477 20.3203 5.85014 20.7383 7.04434C22.5296 11.9406 24.3806 16.8368 26.6496 21.4941C27.7243 23.7034 29.1574 25.6738 30.471 27.7637C30.7695 28.1817 31.0084 28.6593 31.2472 29.137C30.7695 28.7788 30.2919 28.4802 29.8142 28.1817C29.4559 27.9428 29.1574 27.8831 28.7991 27.8234C26.5899 25.853 24.4403 23.8825 22.1713 22.0315C18.0513 18.7475 14.4687 14.8066 10.2293 11.7017C9.63223 11.224 9.03512 11.1643 8.49774 11.3434C7.18412 11.2837 5.93021 12.0003 4.73601 12.5376C3.54181 13.075 2.34761 13.6721 1.15341 14.3289C-0.578179 15.344 -0.160204 17.4339 1.09371 18.3295C2.70587 20.2999 2.70587 24.3005 3.30297 26.6889C4.13891 29.9132 5.15398 33.0779 6.34818 36.1828C8.61716 42.0941 11.4235 47.7665 14.7076 53.2001C15.8421 55.0511 18.2305 54.3943 18.947 52.9016C20.9174 52.1253 22.8281 51.2894 24.6791 50.3938C25.8733 49.7967 26.1122 48.1845 25.5151 47.1097C23.4252 43.2286 22.1116 38.9892 20.2606 34.9289C19.7829 33.7944 19.2455 32.6599 18.6484 31.5851C19.4844 32.3017 20.2606 33.0182 21.0368 33.8541C23.0073 35.8842 25.1568 37.377 27.4258 38.8697C27.5452 39.3474 27.8438 39.7654 28.3214 40.1236C30.9487 42.0941 34.1133 45.8558 37.6959 44.6019C41.3979 43.2883 44.9805 41.079 48.3243 39.1086C49.5185 38.5712 49.7573 37.1381 49.2199 35.944Z" fill="#FBB03B"/>
</svg>
