<svg width="44" height="38" viewBox="0 0 44 38" fill="none" xmlns="http://www.w3.org/2000/svg">
<path d="M43.4688 16.731C42.2149 11.1183 40.1251 5.32639 34.8706 2.28118C30.6909 -0.166926 23.5854 -1.30142 19.7043 2.28118C15.8828 5.80407 14.0318 12.0736 15.5246 17.0893C15.9426 18.582 17.1368 20.0747 17.1965 21.6272C17.1965 22.8811 16.0023 26.3443 14.211 25.4486C12.8376 24.7918 12.1211 22.0452 11.7629 20.7913C11.106 18.8208 10.8075 16.9101 10.6881 14.8203C10.5687 13.1484 9.25504 12.2527 7.64288 12.4916C5.79187 12.8498 4.06027 13.3275 2.32868 14.1038H2.26898C1.13449 14.1635 0 14.88 0 16.3727C0.11942 22.9408 1.79129 29.2104 6.20983 34.226C6.98606 35.1216 7.94143 35.1814 8.71766 34.7634C12.5988 37.3906 17.5547 38.8237 21.7941 36.0173C26.9292 32.6138 26.7501 25.0307 26.7501 19.6568C26.7501 17.2684 26.153 10.5211 29.6161 10.4017C32.8405 10.2823 34.9303 16.6713 35.7663 19C35.7663 19.0597 35.826 19.1194 35.826 19.1194C35.8857 19.1791 35.8857 19.2985 35.9454 19.3582C35.9454 19.4179 36.0051 19.4776 36.0051 19.4776C36.3634 20.0747 36.9605 20.4927 37.677 20.5524C38.3338 20.6718 38.9906 20.5524 39.528 20.1942C40.3042 19.9553 41.0207 19.7762 41.797 19.5374C43.0509 19.3582 43.7077 18.0446 43.4688 16.731Z" fill="#FBB03B"/>
</svg>
