<svg width="35" height="51" viewBox="0 0 35 51" fill="none" xmlns="http://www.w3.org/2000/svg">
<path d="M34.883 11.0906C34.883 10.3741 34.5248 9.71726 33.6889 9.23958C28.3747 6.25409 23.0008 3.26858 17.6866 0.342794C17.1492 0.0442444 16.6715 -0.0154655 16.1938 0.0442444C15.3579 -0.134885 14.5219 0.223374 14.0443 1.23844C10.2825 9.41871 7.35675 17.8975 4.55038 26.436C3.11734 30.6754 1.6246 34.9149 0.310979 39.214C-0.88322 43.1548 1.50517 44.1102 5.02806 44.8267C6.10284 45.0058 7.17763 45.2447 8.25241 45.4835C12.7307 47.2151 17.2686 48.7676 21.926 50.1409C23.9561 50.738 25.0906 48.9467 24.7921 47.3345C24.9115 47.1554 24.9712 46.9763 25.0906 46.7374C26.1654 43.9908 23.8964 42.0801 21.508 41.5427C19.4779 41.065 17.2686 41.0053 15.2385 40.7067L11.7156 40.2888C11.6559 40.2888 11.5962 40.2888 11.5365 40.2888C11.5962 39.5125 11.2976 38.7363 10.402 38.1392C10.3422 38.0795 10.2228 38.0198 10.1631 37.9601C11.1782 35.9896 11.835 33.8998 12.8501 31.9294C13.2083 31.9891 13.5069 32.1085 13.8651 32.1682C14.9399 32.4668 16.0147 32.7653 17.0895 33.0639C19.239 33.7207 21.3886 34.4372 23.4784 35.2134C25.0309 35.8105 26.3445 34.4372 26.4639 33.0041C26.7028 32.7056 26.8819 32.407 27.0013 31.9294C27.2402 30.6755 27.5984 29.541 28.0761 28.4065C28.6135 27.1526 27.479 25.8389 26.4042 25.4807C22.4634 24.1074 18.4628 22.734 14.522 21.3607L16.7312 15.8674C21.2692 16.2256 25.7474 18.4946 29.9868 20.1068C30.7033 20.3456 31.3004 20.2859 31.7781 20.0471C32.3752 19.8082 32.9126 19.3306 33.0918 18.4946C33.6291 16.4048 34.2262 14.3149 34.883 12.2848C34.9428 11.8071 34.9428 11.4488 34.883 11.0906Z" fill="#FBB03B"/>
</svg>
