<svg width="108" height="94" viewBox="0 0 108 94" fill="none" xmlns="http://www.w3.org/2000/svg">
<path d="M88.5075 20.7467C85.8542 17.0055 80.3364 15.268 76.2039 13.7027C71.4447 11.9778 66.493 10.8397 61.4583 10.3137C54.696 9.53101 47.3702 9.98497 42.2515 14.2818C39.4969 15.96 37.2344 18.336 35.6928 21.1694C35.285 21.8983 35.0465 22.7096 34.995 23.5433C34.9435 24.3769 35.0803 25.2115 35.3953 25.985C35.7102 26.7586 36.1953 27.4513 36.8145 28.0118C37.4337 28.5724 38.1712 28.9863 38.9722 29.223C43.6682 30.7884 49.0138 30.671 53.929 31.031L70.6626 32.2598C75.2334 32.5964 81.2286 34.1226 85.5333 31.9859C86.5309 31.5088 87.4129 30.8207 88.1182 29.9691C88.8235 29.1174 89.3353 28.1227 89.6182 27.0537C89.901 25.9848 89.9482 24.8671 89.7565 23.7781C89.5647 22.6891 89.1385 21.6547 88.5075 20.7467Z" fill="#FBB03B"/>
<path d="M44.9361 75.4398C44.3123 75.1126 43.6289 74.9149 42.9268 74.8584C42.2248 74.8019 41.5185 74.8878 40.8505 75.1111C39.9702 75.3632 39.218 75.9392 38.7451 76.7234C38.2729 77.5464 38.1462 78.523 38.3929 79.4393C38.6378 80.3232 39.2157 81.0778 40.0052 81.5446L40.0444 81.5994C40.4135 81.9969 40.8724 82.3001 41.3827 82.4839C42.0717 82.906 42.8813 83.0873 43.6845 82.9995C44.4877 82.9117 45.239 82.5596 45.8205 81.9986C46.5627 81.2606 46.994 80.2663 47.0258 79.2201C47.039 78.4622 46.853 77.7141 46.4862 77.0506C46.1195 76.3872 45.5849 75.8317 44.9361 75.4398Z" fill="#FBB03B"/>
<path d="M60.9886 78.2183C60.9846 77.4745 60.7761 76.7461 60.3859 76.1129C60.0598 75.6046 59.6205 75.1787 59.1023 74.8685C58.5993 74.4288 57.9986 74.1153 57.3502 73.9542C56.7017 73.793 56.0242 73.7888 55.3738 73.9418C54.7234 74.0948 54.1189 74.4008 53.6103 74.8341C53.1018 75.2675 52.7039 75.8159 52.4496 76.4338C52.1087 77.2358 52.0452 78.1286 52.2692 78.9708C52.4932 79.813 52.9919 80.5563 53.6863 81.0829C54.5684 81.7417 55.624 82.128 56.723 82.1943C57.3444 82.2478 57.9691 82.1427 58.5388 81.889C59.0923 81.6962 59.5934 81.3774 60.0024 80.9576C60.352 80.5989 60.6208 80.1696 60.7909 79.6985C60.9609 79.2274 61.0284 78.7254 60.9886 78.2261V78.2183Z" fill="#FBB03B"/>
<path d="M73.0497 78.3435C73.0323 77.9035 72.9505 77.4684 72.807 77.0521C72.807 76.9817 72.807 76.9034 72.7522 76.8251L72.4001 75.9877C72.0942 75.4625 71.6573 75.0256 71.1321 74.7197L70.2947 74.3675C69.683 74.1954 69.0357 74.1954 68.4241 74.3675L68.2597 74.4145L67.8605 74.4849C67.5017 74.5657 67.1616 74.7145 66.8587 74.9232C66.4585 75.1376 66.1192 75.45 65.8726 75.8311C65.5597 76.1676 65.341 76.5807 65.2386 77.0286C65.0969 77.4823 65.0753 77.965 65.176 78.4296C65.199 78.8974 65.3448 79.3509 65.5986 79.7445C65.8479 80.1324 66.157 80.4784 66.5143 80.7698C66.5383 80.8004 66.5644 80.8292 66.5926 80.8559L66.6709 80.9341L67.3831 81.482H67.4379C67.5767 81.5605 67.7237 81.6235 67.8762 81.6699L68.338 81.8655C68.5179 81.9095 68.7011 81.9383 68.8858 81.9516C69.0693 81.9857 69.2551 82.0066 69.4416 82.0142L70.3807 81.889H70.4668C71.0527 81.7241 71.5863 81.4115 72.0166 80.9812C72.4469 80.5509 72.7595 80.0172 72.9244 79.4314L72.9949 78.9227C73.0273 78.7547 73.0482 78.5847 73.0575 78.4139L73.0497 78.3435Z" fill="#FBB03B"/>
<path d="M72.3531 23.7286L70.2555 25.5288C69.8876 25.8418 69.512 26.241 69.105 26.5619L68.9719 26.4523L68.471 25.9514C68.0484 25.521 67.6414 25.0905 67.2344 24.6522C66.4517 23.8147 65.7238 22.9616 65.0038 22.0772C64.7591 21.8335 64.4406 21.6775 64.098 21.6336C63.7554 21.5897 63.408 21.6604 63.1097 21.8346L60.5582 23.6504L59.2903 24.5504L58.672 24.9887C58.4631 24.777 58.2436 24.5758 58.0145 24.3861L56.9501 23.3451L54.8134 21.2554C54.515 20.9707 54.1184 20.8119 53.7059 20.8119C53.2935 20.8119 52.8969 20.9707 52.5984 21.2554L48.6851 24.6991L48.1215 25.1922C47.9807 25.0044 47.7928 24.7539 47.7537 24.6913C47.2371 23.9556 46.7362 23.2042 46.1883 22.4764C45.9977 22.1258 45.7331 21.821 45.4127 21.5831C45.0924 21.3452 44.7241 21.18 44.3334 21.0988C43.3942 20.9736 42.6663 21.5606 41.9854 22.0694L37.3755 25.2783C35.7318 26.421 37.2972 29.1369 38.9408 27.9785L41.7976 25.9905L43.0733 25.1061C43.3003 24.9418 43.5821 24.6992 43.856 24.4957C45.1239 26.1941 46.1257 29.0586 48.552 28.5108C49.7808 28.229 50.8061 26.9454 51.6827 26.1627L53.5846 24.4878L55.2047 26.0532C56.0422 26.8358 56.9344 28.0646 58.1632 28.2525C59.392 28.4403 60.3547 27.5559 61.2939 26.8906L63.5793 25.2627C64.1507 25.9358 64.7299 26.5932 65.3325 27.235C66.1152 28.096 67.0857 29.3952 68.2362 29.7787C69.5511 30.217 70.5138 29.3561 71.4374 28.5577L74.5132 25.9201C76.0942 24.6209 73.8715 22.4137 72.3531 23.7286Z" fill="#1E1E1E"/>
<path d="M87.2551 53.8694H25.8154C23.8039 53.8694 23.8039 57.0001 25.8154 57.0001H87.2551C89.2666 57.0001 89.2744 53.8694 87.2551 53.8694Z" fill="#1E1E1E"/>
<path d="M46.2979 80.6915L46.3839 80.6367C46.3504 80.6459 46.3204 80.665 46.2979 80.6915Z" fill="#1E1E1E"/>
<path d="M49.3269 78.281C48.9674 77.3492 48.4074 76.5079 47.6864 75.8167C46.9655 75.1255 46.1014 74.6014 45.1553 74.2815C44.556 74.0335 43.9095 73.9204 43.2616 73.9502C42.6137 73.9799 41.9803 74.1518 41.4062 74.4537C40.8053 74.831 40.3479 75.3986 40.107 76.066C39.9113 76.6206 39.9113 77.2254 40.107 77.78C40.0449 78.4065 40.0686 79.0384 40.1774 79.6584C40.2801 80.7351 40.6633 81.766 41.2889 82.6483C42.5333 84.1588 45.0692 84.331 46.8067 83.6814C47.7921 83.3623 48.6271 82.6943 49.1547 81.803C49.4276 81.2604 49.5839 80.6668 49.6135 80.0602C49.6432 79.4536 49.5455 78.8475 49.3269 78.281ZM46.5954 80.2533V80.3394V80.3942C46.5954 80.3942 46.6423 80.3942 46.5954 80.4411L46.5484 80.4803C46.5462 80.4958 46.5462 80.5117 46.5484 80.5272C46.5492 80.5142 46.5492 80.5011 46.5484 80.4881L46.478 80.5663H46.431C46.3449 80.6524 46.3293 80.6524 46.3449 80.6211L46.1806 80.7151H46.1179C45.8753 80.7777 45.6405 80.8638 45.39 80.9186H45.2335C45.0692 80.9186 44.9048 80.9186 44.7483 80.9186H44.4821H44.3413L44.1221 80.8638L43.9421 80.809H43.8951C43.8247 80.809 43.8169 80.7698 43.8325 80.762H43.7777L43.6838 80.6681V80.629L43.629 80.5116C43.629 80.4411 43.5664 80.3472 43.5664 80.3316C43.4558 79.9529 43.3644 79.5689 43.2925 79.181C43.2925 79.1028 43.2925 79.0245 43.2533 78.954C43.2142 78.8836 43.2533 78.8445 43.2533 78.7897C43.2533 78.7349 43.2533 78.3514 43.2533 78.3279C43.2533 78.3044 43.2533 78.1792 43.2533 78.1009V78.0618C43.2814 77.977 43.305 77.8908 43.3238 77.8035C43.339 77.768 43.3573 77.734 43.3786 77.7018C43.5083 77.4617 43.5731 77.1919 43.5664 76.9191H43.7386H43.8795H43.9812L44.1847 76.9739L44.67 77.1304L44.8657 77.2243L45.2257 77.42L45.5936 77.6626L45.8127 77.8583C45.9066 77.9444 46.0005 78.0461 46.0944 78.1401L46.2275 78.2888C46.3058 78.4062 46.3841 78.5157 46.4545 78.6331C46.5249 78.7505 46.5719 78.8132 46.6345 78.9306C46.6295 78.9669 46.6295 79.0038 46.6345 79.0402C46.6589 79.1042 46.6798 79.1695 46.6971 79.2358C46.7501 79.3805 46.7894 79.5299 46.8145 79.6819C46.8114 79.6974 46.8114 79.7134 46.8145 79.7289C46.8145 79.8306 46.8145 79.9402 46.8145 80.0341L46.5954 80.2533Z" fill="#1E1E1E"/>
<path d="M46.4467 80.4881L46.5171 80.402C46.4855 80.4229 46.4609 80.4529 46.4467 80.4881Z" fill="#1E1E1E"/>
<path d="M43.7151 80.8324L43.8246 80.8872C43.7855 80.8403 43.7307 80.8246 43.7151 80.8324Z" fill="#1E1E1E"/>
<path d="M44.2395 81.0046H44.3804C44.3804 81.0046 44.3412 80.9968 44.2395 81.0046Z" fill="#1E1E1E"/>
<path d="M54.5629 80.4333L54.6177 80.5194C54.6085 80.4858 54.5894 80.4558 54.5629 80.4333Z" fill="#1E1E1E"/>
<path d="M56.8796 83.5483C57.818 83.2063 58.6693 82.6614 59.3729 81.9525C60.0764 81.2436 60.6147 80.3881 60.9495 79.4471C61.2116 78.854 61.3392 78.2103 61.3229 77.5621C61.3067 76.9139 61.1471 76.2773 60.8556 75.6981C60.4928 75.0958 59.9431 74.6285 59.2902 74.3675C58.74 74.1597 58.1353 74.1459 57.5762 74.3284C56.951 74.2595 56.3195 74.2727 55.6978 74.3675C54.6179 74.4484 53.5784 74.8129 52.6845 75.4241C51.1191 76.6373 50.9313 79.1731 51.5496 80.9028C51.8504 81.9006 52.5042 82.7548 53.3889 83.3057C53.9226 83.5846 54.5082 83.7501 55.1089 83.7919C55.7096 83.8336 56.3125 83.7507 56.8796 83.5483ZM54.9621 80.7776H54.876L54.8212 80.7385C54.8212 80.7385 54.8212 80.7854 54.7742 80.7385L54.7351 80.6915C54.7351 80.6915 54.7351 80.6915 54.6881 80.6915C54.6412 80.6915 54.6881 80.6915 54.6881 80.6915L54.6177 80.6133C54.62 80.5951 54.62 80.5767 54.6177 80.5585C54.5316 80.4724 54.5316 80.4567 54.5629 80.4724L54.4768 80.308V80.2454C54.4142 80.0028 54.3359 79.7602 54.2811 79.5175C54.2811 79.4549 54.2811 79.3923 54.2811 79.3532C54.2811 79.1888 54.2811 79.0323 54.2811 78.8679C54.2811 78.7036 54.2811 78.6957 54.2811 78.6096C54.2679 78.5743 54.2679 78.5354 54.2811 78.5001C54.2851 78.4741 54.2851 78.4477 54.2811 78.4218C54.2852 78.4425 54.2852 78.4637 54.2811 78.4844C54.3031 78.4123 54.3214 78.3392 54.3359 78.2652C54.3359 78.2026 54.3359 78.14 54.3985 78.0852V78.0461V78.007C54.3985 77.9365 54.4377 77.9287 54.4455 77.9443C54.4533 77.96 54.4455 77.9443 54.4455 77.9443V77.8896L54.5316 77.7956H54.5785L54.696 77.7409L54.9073 77.5608C55.2908 77.4513 55.69 77.3808 56.0656 77.3104L56.2926 77.2713H56.457H56.9187H57.1457H57.1849L57.4431 77.3417L57.5449 77.3965C57.7834 77.5317 58.0533 77.6019 58.3275 77.6C58.3315 77.6573 58.3315 77.7148 58.3275 77.7722C58.3275 77.7722 58.3275 77.8661 58.3275 77.9131V78.007C58.3275 78.0774 58.2884 78.1478 58.2728 78.2183C58.2571 78.2887 58.1632 78.5392 58.1084 78.6957L58.0145 78.8914C57.9519 79.0088 57.8814 79.1262 57.811 79.2358C57.7405 79.3453 57.6466 79.4784 57.5605 79.6036L57.3649 79.8149C57.2743 79.9148 57.1775 80.0088 57.0753 80.0967L56.9187 80.2298C56.8013 80.308 56.6918 80.3863 56.5665 80.4567C56.4706 80.5195 56.3713 80.577 56.2691 80.6289H56.1517L55.9639 80.6915C55.816 80.7391 55.664 80.7731 55.5099 80.7933H55.1421L54.9621 80.7776Z" fill="#1E1E1E"/>
<path d="M54.7195 80.629L54.8056 80.6994C54.785 80.6674 54.7549 80.6428 54.7195 80.629Z" fill="#1E1E1E"/>
<path d="M54.4299 77.8896L54.3751 77.9913C54.4221 77.96 54.4377 77.9052 54.4299 77.8896Z" fill="#1E1E1E"/>
<path d="M54.2498 78.414C54.2457 78.4556 54.2457 78.4976 54.2498 78.5392C54.2534 78.4976 54.2534 78.4557 54.2498 78.414Z" fill="#1E1E1E"/>
<path d="M70.4433 76.6842L70.3964 76.5903C70.4023 76.6256 70.4187 76.6583 70.4433 76.6842Z" fill="#1E1E1E"/>
<path d="M68.4632 73.3501C67.4943 73.5904 66.5904 74.0419 65.8164 74.6725C65.0425 75.303 64.4175 76.0969 63.9863 76.9974C63.665 77.5624 63.4725 78.1914 63.4224 78.8395C63.3724 79.4876 63.466 80.1387 63.6968 80.7464C63.9957 81.3881 64.5034 81.9095 65.1369 82.2256C65.6614 82.4903 66.2607 82.5676 66.8353 82.4447C67.449 82.5801 68.0781 82.6328 68.7059 82.6013C69.7961 82.6369 70.8763 82.383 71.8365 81.8656C73.4958 80.8168 73.9732 78.3201 73.5428 76.5199C73.3514 75.4977 72.7951 74.5798 71.9774 73.9371C71.4662 73.5969 70.8888 73.3687 70.2831 73.2675C69.6775 73.1663 69.0572 73.1945 68.4632 73.3501ZM70.0834 76.3008L70.1695 76.3399L70.2164 76.3869C70.2164 76.3869 70.2164 76.3399 70.2555 76.3869L70.2947 76.4417H70.3416H70.3025C70.3259 76.4684 70.3469 76.4972 70.3651 76.5277V76.5825C70.4434 76.6765 70.4356 76.6921 70.4121 76.6765L70.4903 76.8486V76.9191C70.4903 77.1695 70.5764 77.4122 70.6077 77.7018C70.6038 77.7565 70.6038 77.8114 70.6077 77.8661C70.6077 78.0227 70.6077 78.187 70.5608 78.3514C70.5138 78.5157 70.5608 78.5157 70.506 78.6018C70.5199 78.637 70.5199 78.6762 70.506 78.7114C70.5016 78.7373 70.5016 78.7638 70.506 78.7897C70.5016 78.769 70.5016 78.7477 70.506 78.7271C70.506 78.7975 70.4512 78.8679 70.4277 78.9384L70.3495 79.1106V79.1497C70.3495 79.2201 70.3025 79.228 70.2947 79.2123L70.2477 79.2593L70.1538 79.3454H70.1068L69.9816 79.3845L69.7938 79.4315C69.4024 79.4941 69.0111 79.5254 68.6198 79.5567H68.385H68.2128L67.751 79.5176H67.5318H67.4927C67.4127 79.4757 67.3288 79.4416 67.2423 79.4158L67.1483 79.3454C66.9168 79.1854 66.6464 79.0907 66.3657 79.0714V78.8914C66.3657 78.8914 66.3657 78.7975 66.3657 78.7584V78.6645C66.3657 78.594 66.4204 78.5236 66.4439 78.4609C66.4674 78.3983 66.5926 78.1557 66.6631 77.9992L66.7805 77.8113C66.8588 77.7018 66.937 77.5922 67.0231 77.4904C67.1092 77.3887 67.2109 77.2635 67.3049 77.1539L67.524 76.9582C67.6258 76.8721 67.7275 76.786 67.8371 76.7078L68.0093 76.5982L68.3771 76.4182C68.4815 76.3632 68.5886 76.3136 68.698 76.2695H68.8154L69.0111 76.2303C69.1626 76.1953 69.3174 76.177 69.4729 76.1756H69.512L69.8172 76.2147L70.0834 76.3008Z" fill="#1E1E1E"/>
<path d="M70.3025 76.4729L70.2242 76.3947C70.2415 76.4283 70.2689 76.4557 70.3025 76.4729Z" fill="#1E1E1E"/>
<path d="M70.3103 79.228L70.3807 79.1262C70.346 79.1507 70.321 79.1868 70.3103 79.228Z" fill="#1E1E1E"/>
<path d="M70.5607 78.727C70.5569 78.6854 70.5569 78.6435 70.5607 78.6018C70.5607 78.6018 70.5607 78.6253 70.5607 78.727Z" fill="#1E1E1E"/>
<path d="M22.1368 71.049C19.3259 68.0587 17.0089 64.64 15.2728 60.9212C13.7622 57.8531 10.7802 52.9301 10.9759 49.4707C11.3829 42.4267 0.425479 42.4267 0.0184891 49.4707C-0.278926 54.7225 3.07874 60.6708 5.27023 65.3198C7.53775 70.2889 10.6196 74.8441 14.3884 78.7975C19.3192 83.8613 27.0598 76.1129 22.1368 71.049Z" fill="#FBB03B"/>
<path d="M79.6319 18.7431C77.2068 17.5591 74.6651 16.6306 72.0478 15.9724C69.2407 15.1636 66.41 14.4592 63.5558 13.8592C57.8896 12.6644 52.1505 11.846 46.3762 11.4094C46.1424 11.3791 45.9048 11.4125 45.6885 11.5062C45.4722 11.5999 45.2852 11.7504 45.1474 11.9416C41.3315 12.5057 37.6866 13.9032 34.4718 16.035C31.0828 18.3126 27.4277 21.6311 26.645 25.8184C26.4082 26.8342 26.4019 27.8902 26.6268 28.9087C26.8516 29.9272 27.3018 30.8824 27.9443 31.7041C29.1952 33.1324 30.8909 34.0974 32.7577 34.4435C34.6632 34.8072 36.6024 34.9647 38.5416 34.9131H46.7284L62.7027 34.9679C67.7979 34.9679 72.9401 35.2183 78.0196 34.9679C81.8078 34.7957 86.0812 33.4025 86.5351 29.0665C86.9969 24.5975 83.334 20.6998 79.6319 18.7431ZM82.8722 30.2249C82.0895 31.2658 80.5242 31.6102 79.3032 31.7902C77.4034 31.9546 75.4947 31.9939 73.5897 31.9076H66.3735L52.1523 31.8685L37.9233 31.8215C35.3014 31.8215 31.0515 31.8215 29.8149 28.9413C29.1104 27.2664 29.9009 25.3488 30.7932 23.9087C31.9584 22.1516 33.4392 20.6258 35.1605 19.4083C38.556 16.8745 42.5815 15.3206 46.7989 14.9158C47.0593 14.8904 47.3121 14.8133 47.5424 14.6888C56.1645 15.4169 64.687 17.0432 72.9714 19.5414C76.6186 20.6528 80.6416 22.1242 82.5983 25.6541C83.334 26.9298 83.8662 28.9021 82.8722 30.2249Z" fill="#1E1E1E"/>
<path d="M78.6301 61.6648L37.9703 60.7334C35.9588 60.6864 35.9588 63.8171 37.9703 63.8641L78.6301 64.7954C80.6494 64.8424 80.6494 61.7117 78.6301 61.6648Z" fill="#1E1E1E"/>
<path d="M54.6333 93.003C42.5802 93.003 31.5367 89.5123 22.7473 82.8282C3.39178 68.0201 2.84391 48.2733 5.79458 34.3025C5.81229 34.209 5.83849 34.1174 5.87285 34.0286C12.3456 17.3186 24.7979 6.22026 40.9366 2.72172C44.4181 1.35423 48.0615 0.441406 51.7766 0.00584407C51.8782 -0.00194802 51.9802 -0.00194802 52.0818 0.00584407C54.4941 0.132354 56.8948 0.425244 59.2668 0.882433C63.4178 0.944296 67.5524 1.41884 71.6095 2.29907C74.617 2.85029 77.5672 3.67822 80.4224 4.77232C80.5855 4.80595 80.7435 4.86122 80.892 4.93667L81.1816 5.09321C82.2493 5.58116 83.2731 6.15985 84.2418 6.82291C96.2324 14.1252 104.764 26.1706 107.065 39.0455V39.0925L107.112 39.3977C108.663 49.7885 106.243 60.3825 100.334 69.0688C94.2835 77.9757 84.5001 85.8807 74.795 89.7001C72.0707 90.738 69.2495 91.501 66.3734 91.9777C62.4978 92.6641 58.5692 93.0072 54.6333 93.003ZM8.56524 34.9913C5.81806 48.1245 6.37376 66.6269 24.4535 80.4567C35.4109 88.8157 50.1017 91.8603 65.9351 89.0661C68.608 88.6208 71.2298 87.9102 73.7618 86.9451C82.833 83.3761 92.3425 75.6824 98.0247 67.3783C103.502 59.3089 105.737 49.4722 104.286 39.8282L104.247 39.5543C102.079 27.4855 94.0722 16.1759 82.7313 9.304C82.6998 9.29044 82.6708 9.27194 82.6452 9.2492C81.8084 8.67734 80.9232 8.17975 79.9997 7.76213L79.8432 7.6995C77.0315 6.58795 74.116 5.75943 71.1399 5.22625C67.2059 4.37651 63.1972 3.92032 59.1728 3.86441C59.0662 3.87637 58.9586 3.87637 58.8519 3.86441C56.6064 3.43025 54.3341 3.14786 52.0505 3.01914C48.5806 3.43935 45.1793 4.30479 41.9306 5.59411C41.8352 5.63456 41.7354 5.66348 41.6332 5.68022C21.1819 9.91448 12.1499 25.8027 8.56524 34.9913Z" fill="#1E1E1E"/>
</svg>
