<svg width="122" height="70" viewBox="0 0 122 70" fill="none" xmlns="http://www.w3.org/2000/svg">
<path d="M36.3738 38.3445C36.3277 36.8213 35.72 35.3689 34.6676 34.2668C34.1665 33.7704 33.5807 33.3675 32.9379 33.0771C35.2859 30.4473 34.1432 25.1095 29.5802 25.1095C24.6885 25.1095 23.7493 31.2691 26.7861 33.6093C25.9703 34.1693 25.2624 34.8719 24.6964 35.6834C23.862 36.8138 23.4437 38.1978 23.5122 39.6011C23.5806 41.0044 24.1316 42.341 25.072 43.3849C25.9816 44.2592 27.1248 44.8516 28.3637 45.0905C29.6025 45.3294 30.884 45.2045 32.0535 44.7311C33.2188 44.3752 34.2148 43.6073 34.8554 42.5709C35.0969 42.1547 35.2712 41.703 35.372 41.2326C35.7304 40.8472 36.0047 40.3913 36.1772 39.8941C36.3496 39.3968 36.4166 38.8691 36.3738 38.3445Z" fill="#FBB03B"/>
<path d="M84.97 19.7873L68.6513 20.0221L69.1679 19.6386C71.2028 18.0733 72.2203 15.6079 70.8506 13.2129C70.5897 12.7692 70.2502 12.3767 69.8488 12.0545C69.4199 11.5855 68.882 11.2294 68.2827 11.0178C67.6834 10.8062 67.0412 10.7456 66.4128 10.8414C60.848 11.3815 55.3145 10.1996 49.7576 10.8414C47.2139 11.1232 45.0615 12.7981 45.0615 15.5374C45.0615 17.8855 47.2374 20.5074 49.7576 20.2335C50.2663 20.1787 50.775 20.1474 51.3229 20.1239C50.5402 20.5387 49.8202 20.9692 49.0532 21.3762C44.9128 23.5598 46.8226 28.9133 50.3837 29.9073C50.9315 30.3313 51.5789 30.6079 52.2639 30.7107C52.949 30.8134 53.649 30.7389 54.2971 30.4943C58.8444 29.0229 63.9318 29.5081 68.6591 29.4455L84.9778 29.2107C91.0044 29.0933 91.0279 19.7013 84.97 19.7873Z" fill="#FBB03B"/>
<path d="M118.781 54.2406C90.7618 51.9865 61.8029 51.2039 33.3606 53.184C31.2996 53.3405 29.2411 53.4893 27.1853 53.6301C25.1295 53.771 23.0711 53.9067 21.01 54.0371L14.5451 54.1624L8.08025 54.2876C4.33125 54.358 3.02419 58.3496 4.16689 61.0812C3.94974 62.782 4.0212 64.5072 4.37823 66.1842C4.62614 67.1451 5.18207 67.9982 5.96091 68.6131C6.73976 69.2279 7.69862 69.5707 8.69076 69.5888H13.3868H18.7325C51.049 68.3835 84.3673 66.8182 117.193 69.8784C118.39 69.8578 119.53 69.3651 120.366 68.5076C121.201 67.65 121.664 66.4971 121.654 65.2998C121.568 63.4214 121.693 61.2143 121.419 59.1715C121.145 57.1287 120.464 55.3442 118.781 54.2406Z" fill="#FBB03B"/>
<path d="M117.678 58.8975C117.255 56.5026 116.778 54.118 116.246 51.7439C114.14 42.4301 111.025 33.265 105.946 25.133C102.628 19.7021 98.3904 14.89 93.4229 10.9119C88.2385 6.9031 82.2919 3.99237 75.9458 2.35726C69.4357 0.759296 62.7534 -0.0293337 56.0503 0.00924733C49.241 -0.0611932 42.3691 0.275377 35.5912 0.862381C32.016 1.06076 28.5081 1.9178 25.2442 3.3904C22.399 4.82321 19.8121 6.71973 17.5897 9.00217C13.0501 13.6303 9.31968 18.9878 6.55407 24.8513C0.889753 36.4763 -1.17076 49.5289 0.637068 62.3334C0.861434 63.8988 1.14839 65.4328 1.49799 66.9356C1.43057 67.1103 1.39606 67.2961 1.39624 67.4834C1.39624 67.8986 1.56118 68.2968 1.85474 68.5903C2.1483 68.8839 2.54643 69.0488 2.96158 69.0488C5.43483 68.767 7.9159 68.5087 10.397 68.2661C10.6126 68.3412 10.842 68.3681 11.0691 68.3452C11.2963 68.3222 11.5156 68.2498 11.7119 68.133C22.7423 67.0321 33.7936 66.2207 44.8658 65.699C45.0255 65.8814 45.2243 66.0255 45.4473 66.1206C45.6704 66.2156 45.9121 66.2591 46.1543 66.2478C46.3965 66.2365 46.633 66.1707 46.8463 66.0554C47.0595 65.94 47.2441 65.7781 47.3861 65.5815C61.902 64.9554 76.4337 64.8224 90.9809 65.1824C95.7291 65.3076 100.48 65.4824 105.233 65.7068C107.018 65.7929 112.324 66.9904 115.784 66.779C117.146 66.7008 118.226 66.3955 118.695 65.7224C119.376 64.705 117.897 60.1107 117.678 58.8975ZM94.2916 62.1221C95.6432 59.1561 97.4435 56.4159 99.6294 53.998C99.5692 56.7734 99.2892 59.5397 98.792 62.2708L94.2916 62.1221ZM60.355 57.6766C59.5858 55.4816 58.6164 53.3621 57.4591 51.3447L61.0672 51.2586C60.9834 53.4122 60.7454 55.557 60.355 57.6766ZM44.5215 59.5784C42.6848 56.933 40.7594 54.3502 38.7453 51.83C40.6864 51.7674 42.6196 51.7048 44.5528 51.6578C44.545 54.2954 44.5293 56.933 44.5215 59.5784ZM34.8242 56.6904L32.4762 52.0883L35.0746 51.9787L34.8242 56.6904ZM27.0992 59.101C26.1045 56.8151 24.9075 54.6228 23.5224 52.55C25.2756 52.4405 27.0366 52.3466 28.7898 52.2605L27.0992 59.101ZM9.88043 61.1282C8.56554 58.6706 7.16451 56.2651 5.67743 53.9119C7.43844 53.7397 9.19167 53.5832 10.9527 53.4345C10.53 55.9703 10.2013 58.5375 9.91172 61.1125L9.88043 61.1282ZM13.4964 57.2148C14.5508 59.5435 15.174 62.0442 15.3356 64.5954L12.6902 64.8537C12.8833 62.3074 13.1624 59.7663 13.5277 57.2304L13.4964 57.2148ZM14.8425 53.0979C16.0635 53.004 17.2845 52.9101 18.5133 52.8318L17.2453 57.9975C16.6519 56.2851 15.8641 54.6464 14.8973 53.1136L14.8425 53.0979ZM21.2448 54.7728C23.042 57.5687 24.4804 60.5795 25.526 63.7344C23.2876 63.9066 21.0413 64.0945 18.8029 64.298C19.6273 61.1255 20.4517 57.9557 21.2761 54.7885L21.2448 54.7728ZM31.0204 56.1269L34.5424 63.0848L29.2124 63.4449L31.0204 56.1269ZM37.587 62.5526L37.9627 55.8842C39.6428 58.0757 41.2551 60.3194 42.7996 62.6152L37.5166 62.9048C37.553 62.7953 37.5792 62.6826 37.5948 62.5683L37.587 62.5526ZM47.6365 55.626C49.0422 57.7217 50.26 59.9374 51.2759 62.2474L47.6052 62.3961L47.6365 55.626ZM48.5366 51.5404L52.2778 51.4543C52.1995 53.2701 52.1264 55.0963 52.0586 56.933C51.0129 55.0633 49.8415 53.2669 48.5522 51.5561L48.5366 51.5404ZM55.3067 53.8884C56.6256 56.4931 57.6973 59.2156 58.5078 62.0204L54.978 62.1143L55.3067 53.8884ZM63.9161 54.9763C65.0492 57.1417 65.8562 59.4626 66.3111 61.8638L62.6091 61.9265C63.2161 59.6506 63.653 57.3327 63.9161 54.992V54.9763ZM67.939 56.2756C67.2167 54.4774 66.3091 52.7593 65.231 51.1491L69.927 51.0395C69.2435 52.7822 68.5808 54.5328 67.939 56.2912V56.2756ZM93.9003 56.3147C93.6509 54.3593 93.2426 52.4276 92.6793 50.5386L98.7059 50.4055C96.8877 52.1947 95.2757 54.1821 93.9003 56.3304V56.3147ZM102.721 50.3116L110.501 50.1394C107.673 52.5229 105.018 55.1044 102.557 57.8644C102.78 55.3585 102.835 52.8405 102.721 50.3273V50.3116ZM114.031 56.3695C113.936 56.4102 113.845 56.4573 113.757 56.5104L111.62 57.9661C112.262 56.4008 112.841 54.7337 113.334 53.0744C113.584 54.1858 113.811 55.2816 114.031 56.3851V56.3695ZM7.58715 30.2126C9.83903 24.5212 12.9569 19.212 16.8305 14.473C20.8065 9.63612 25.6278 5.64449 31.9126 4.43918C35.2469 3.9175 38.6118 3.61422 41.9856 3.53127C45.2728 3.34343 48.5679 3.18691 51.8708 3.12429C58.272 2.89874 64.6795 3.33412 70.9914 4.42353C77.0607 5.40279 82.8674 7.60632 88.0584 10.9001C93.2493 14.1939 97.716 18.5091 101.187 23.5834C106.243 30.6274 109.546 38.6654 111.855 46.9774H111.816L90.7774 47.4549C90.6915 47.4471 90.605 47.4471 90.5191 47.4549C90.4201 47.4475 90.3207 47.4475 90.2217 47.4549L80.454 47.674C80.1679 47.4483 79.8119 47.3295 79.4476 47.338C79.0833 47.3466 78.7334 47.482 78.4582 47.721L69.4261 47.9244C64.7301 48.034 60.034 48.1201 55.338 48.2219C55.2597 48.1279 55.1971 48.0262 55.1189 47.9323C54.953 47.7598 54.7486 47.6291 54.5223 47.5511C54.2961 47.4731 54.0545 47.4499 53.8176 47.4835C53.5807 47.5172 53.3551 47.6066 53.1595 47.7445C52.9639 47.8824 52.8039 48.0648 52.6926 48.2767C44.1693 48.4645 35.6381 48.6993 27.1227 49.1454C19.202 49.5628 11.2944 50.1681 3.39988 50.9612L3.18075 51.0004C3.44851 43.8781 4.92804 36.8535 7.55586 30.2282L7.58715 30.2126ZM88.4685 50.6482C87.7326 53.5117 86.71 56.2938 85.4161 58.9523C84.5951 56.1399 83.521 53.4077 82.2072 50.789L87.858 50.6638L88.4685 50.6482ZM77.0885 50.8986C76.525 52.5892 75.964 54.2797 75.4057 55.9703C74.9803 54.2661 74.4256 52.5968 73.7465 50.9769L77.0885 50.8986ZM3.15725 55.7277C5.09828 58.8584 6.90626 61.9891 8.54987 65.2919L4.42518 65.7302C3.70677 62.4403 3.28246 59.0929 3.15725 55.7277ZM69.3948 61.8482C70.1227 59.4454 70.9601 57.0661 71.8289 54.7102C72.5669 57.0184 73.0242 59.4071 73.1908 61.8247H71.6254L69.3948 61.8482ZM76.7676 61.8482L79.7495 52.8866C81.1389 55.7609 82.2248 58.7722 82.9898 61.8717C80.9157 61.8482 78.8417 61.8325 76.7754 61.8247L76.7676 61.8482ZM87.4119 61.9734C88.6314 59.714 89.6628 57.358 90.4957 54.9294C90.887 57.0974 91.1062 59.3045 91.2783 61.5117C91.2951 61.7156 91.3565 61.9133 91.4583 62.0908L87.4119 61.9734ZM102.698 62.4587C104.729 60.0084 106.907 57.6823 109.217 55.4929C108.444 57.6068 107.531 59.6671 106.486 61.6604C106.337 61.9609 106.285 62.2998 106.337 62.6309L102.698 62.4587ZM110.078 62.8187L114.641 59.688C114.719 60.1028 114.798 60.5098 114.868 60.9246C114.985 61.6447 115.095 62.3648 115.212 63.0926C113.514 62.9909 111.8 62.8891 110.086 62.7952L110.078 62.8187Z" fill="#1E1E1E"/>
<path d="M30.1594 30.1734C30.1257 30.2027 30.0967 30.237 30.0734 30.2752L30.1594 30.1734Z" fill="#1E1E1E"/>
<path d="M29.5255 30.643L29.6429 30.6039C29.5568 30.6039 29.5099 30.6352 29.5255 30.643Z" fill="#1E1E1E"/>
<path d="M30.4725 29.469C30.4687 29.43 30.4687 29.3907 30.4725 29.3516C30.4629 29.3902 30.4629 29.4305 30.4725 29.469Z" fill="#1E1E1E"/>
<path d="M27.287 27.3245L27.2479 27.3871C27.2788 27.3559 27.3028 27.3186 27.3183 27.2775L27.287 27.3245Z" fill="#1E1E1E"/>
<path d="M27.4983 27.121C27.474 27.1561 27.4451 27.1877 27.4122 27.2149C27.4502 27.1937 27.4804 27.1607 27.4983 27.121Z" fill="#1E1E1E"/>
<path d="M27.7263 27.0115H27.6628C27.6628 27.0115 27.6153 27.0828 27.7263 27.0115Z" fill="#1E1E1E"/>
<path d="M42.0874 28.5846C40.8586 22.0024 34.4094 17.7603 28.2263 16.508C27.9583 16.4504 27.6799 16.4642 27.4189 16.548C27.1579 16.6318 26.9235 16.7826 26.7392 16.9854C26.3938 16.8385 26.0139 16.7924 25.6434 16.8524C20.4465 17.6351 16.5488 22.1667 15.0852 27.0271C14.5851 28.5023 14.4068 30.0673 14.562 31.6172C14.7173 33.167 15.2026 34.6656 15.9853 36.0122C17.4873 38.5714 19.5407 40.7639 21.9962 42.4301C24.2038 43.8034 26.7588 44.5148 29.3585 44.4802C31.9581 44.4455 34.4933 43.6661 36.6634 42.2344C38.7998 40.7358 40.4515 38.6452 41.4152 36.2201C42.3789 33.7949 42.6125 31.1409 42.0874 28.5846ZM25.2521 40.6221C24.9096 40.4842 24.5775 40.322 24.2581 40.1369C24.5046 38.7394 24.989 37.3945 25.6904 36.1609C26.0289 35.64 26.5097 35.2272 27.0757 34.9712C27.7282 34.5965 28.4286 34.3122 29.1576 34.126C32.1083 33.5311 33.5797 37.2566 34.2137 39.4716C34.2645 39.6376 34.3383 39.7957 34.4328 39.9412C33.0513 40.7351 31.509 41.2085 29.9199 41.3264C28.3309 41.4442 26.7356 41.2036 25.2521 40.6221ZM27.2244 30.2048L27.154 29.9465C27.0992 29.7117 27.06 29.4769 27.0209 29.2499C27.0209 29.2108 27.0209 29.1795 27.0209 29.1482C27.0209 28.9916 27.0209 28.8351 27.0209 28.6786C27.0209 28.522 27.0209 28.3968 27.0209 28.2637C27.0209 28.1307 27.0209 28.1776 27.0209 28.1385C27.0209 28.0994 27.0209 27.9272 27.0835 27.8254C27.0971 27.7667 27.1154 27.7091 27.1383 27.6533C27.1383 27.5906 27.2088 27.5124 27.2479 27.4419C27.2871 27.3715 27.2479 27.4419 27.2479 27.3637C27.2713 27.3369 27.2922 27.3081 27.3105 27.2776L27.2635 27.348L27.3731 27.2541C27.3183 27.2541 27.287 27.2541 27.3731 27.1915H27.4201L27.5218 27.1367C27.5755 27.1138 27.6278 27.0876 27.6784 27.0584L27.6158 27.1054L27.8584 27.0428H27.921C27.9914 27.0428 28.0228 27.0428 28.0306 27.0428H28.3358H28.2654C28.3018 27.0472 28.3385 27.0472 28.3749 27.0428H28.4219C28.4767 27.0428 28.5002 27.0428 28.5002 27.0428L28.7898 27.121L28.9385 27.168L29.2359 27.3245L29.4785 27.4811C29.5423 27.5344 29.6024 27.5919 29.6585 27.6533C29.7368 27.7237 29.815 27.8567 29.9011 27.9194L30.0342 28.1229C30.0968 28.2324 30.1516 28.342 30.2142 28.4438C30.2273 28.4864 30.243 28.5283 30.2612 28.569C30.2989 28.6899 30.3302 28.8127 30.3551 28.9368V29.1325C30.3551 29.2108 30.3551 29.3125 30.3551 29.4065C30.3551 29.3673 30.3551 29.4065 30.3551 29.4769C30.3585 29.4924 30.3585 29.5084 30.3551 29.5239L30.3081 29.7117L30.2612 29.8604C30.1907 29.9856 30.1281 30.103 30.0499 30.2204L30.1203 30.1421L30.042 30.2283C30.042 30.2752 29.9638 30.3144 29.9638 30.3065C29.926 30.3521 29.8841 30.394 29.8386 30.4318L29.5803 30.5961H29.6429H29.5646C29.4942 30.6352 29.4707 30.6352 29.4628 30.5961H29.4003C29.1737 30.668 28.9654 30.7881 28.7898 30.9483L28.3828 31.0344C28.2643 30.8181 28.0987 30.6312 27.8982 30.4876C27.6977 30.3439 27.4674 30.2473 27.2244 30.2048ZM36.9765 37.781C36.4979 36.0651 35.6392 34.4788 34.4641 33.1398C33.9695 32.6248 33.4027 32.1845 32.7814 31.8327C33.2263 31.144 33.4951 30.3565 33.564 29.5395C33.6191 28.6053 33.4319 27.6727 33.0206 26.8321C32.6092 25.9915 31.9876 25.2714 31.216 24.7417C30.5006 24.2342 29.6654 23.9218 28.7925 23.8353C27.9197 23.7488 27.0393 23.8913 26.2382 24.2486C24.579 25.0313 23.8354 26.8549 23.8433 28.5846C23.8414 29.4873 23.9786 30.3849 24.2503 31.2457C24.4044 31.7394 24.6725 32.1898 25.0329 32.5606C24.394 32.9515 23.8339 33.4585 23.3815 34.0555C22.5315 35.2558 21.9131 36.6042 21.5579 38.0315C20.9517 37.4157 20.382 36.7649 19.8517 36.0827C18.3489 34.1651 17.3471 32.0988 17.7149 29.6099C18.3959 25.0156 21.7535 20.6249 26.4965 19.8735C26.7753 19.8232 27.0275 19.6763 27.2087 19.4587C27.2775 19.4868 27.3482 19.5103 27.4201 19.5291C31.8265 20.4214 36.8122 22.9807 38.5262 27.4028C39.1934 29.118 39.4013 30.9775 39.1295 32.7977C38.8578 34.6179 38.1157 36.3356 36.9765 37.781Z" fill="#1E1E1E"/>
<path d="M102.729 37.695C101.568 36.3713 100.591 34.897 99.8251 33.312C99.2773 32.1928 97.7197 32.4041 97.1249 33.312C96.3109 34.5624 95.589 35.8703 94.9647 37.2254C93.7673 35.8222 92.7034 34.3103 91.7871 32.7093C91.6666 32.5025 91.5003 32.326 91.3009 32.1935C91.1016 32.061 90.8745 31.976 90.6371 31.945C90.3998 31.914 90.1585 31.9379 89.9318 32.0148C89.7051 32.0916 89.499 32.2195 89.3295 32.3884C88.1423 33.7154 87.0614 35.1338 86.097 36.6305C84.4087 35.1099 82.9414 33.3606 81.7376 31.4336C81.6 31.1964 81.4025 30.9995 81.1648 30.8626C80.9272 30.7257 80.6578 30.6537 80.3835 30.6537C80.1093 30.6537 79.8399 30.7257 79.6022 30.8626C79.3646 30.9995 79.1671 31.1964 79.0295 31.4336C77.9338 33.2181 76.9163 35.0495 75.8988 36.9123L71.0306 32.0441C70.8616 31.8732 70.6555 31.7436 70.4283 31.6652C70.2012 31.5869 69.959 31.5618 69.7206 31.5921C69.4822 31.6224 69.254 31.7071 69.0537 31.8398C68.8533 31.9725 68.6861 32.1495 68.5652 32.3571C67.4851 34.0746 66.3038 35.7264 65.0275 37.3036C63.7911 35.9382 62.6534 34.4866 61.6229 32.9598C61.4853 32.7226 61.2878 32.5257 61.0501 32.3888C60.8125 32.2519 60.5431 32.1799 60.2688 32.1799C59.9946 32.1799 59.7252 32.2519 59.4876 32.3888C59.25 32.5257 59.0524 32.7226 58.9148 32.9598C58.0462 34.1995 57.0944 35.3789 56.0659 36.4896C54.7646 35.3375 53.5964 34.0432 52.583 32.6311C52.043 31.8484 50.8299 31.4727 50.1254 32.3102L44.4824 39.002C43.191 40.5674 45.3903 42.7589 46.6973 41.217L51.182 35.8948C52.3483 37.3093 53.66 38.5973 55.0954 39.7377C55.3887 40.0293 55.7854 40.1929 56.199 40.1929C56.6125 40.1929 57.0092 40.0293 57.3025 39.7377C58.3543 38.6808 59.3422 37.5622 60.2611 36.3879C61.4103 37.9294 62.6629 39.3911 64.01 40.763C64.1554 40.9086 64.3281 41.024 64.5181 41.1028C64.7081 41.1816 64.9118 41.2221 65.1175 41.2221C65.3232 41.2221 65.527 41.1816 65.717 41.1028C65.907 41.024 66.0796 40.9086 66.225 40.763C67.644 39.1227 68.9689 37.4033 70.1932 35.6131L75.2101 40.6222C75.3796 40.7911 75.5857 40.919 75.8124 40.9958C76.0391 41.0727 76.2803 41.0966 76.5177 41.0656C76.7551 41.0346 76.9822 40.9496 77.1815 40.8171C77.3809 40.6846 77.5472 40.5081 77.6677 40.3013C78.5521 38.5481 79.4991 36.834 80.4775 35.1434C81.8843 37.0135 83.5317 38.6899 85.377 40.1291C85.546 40.2984 85.7516 40.4267 85.9779 40.5042C86.2043 40.5817 86.4453 40.6062 86.6827 40.576C86.92 40.5458 87.1472 40.4615 87.3469 40.3298C87.5466 40.1981 87.7134 40.0223 87.8346 39.816C88.5432 38.5486 89.3437 37.3348 90.2296 36.1844C91.4254 37.9848 92.7994 39.6604 94.3308 41.1857C94.5243 41.3789 94.765 41.518 95.029 41.5892C95.293 41.6604 95.5711 41.6612 95.8355 41.5916C96.0999 41.5219 96.3415 41.3842 96.5361 41.1921C96.7308 41.0001 96.8717 40.7604 96.9449 40.4969C97.3696 39.3717 97.869 38.2761 98.4398 37.2175C99.0603 38.1658 99.7483 39.0682 100.498 39.9178C101.852 41.4205 104.059 39.1977 102.729 37.695Z" fill="#1E1E1E"/>
<path d="M84.6804 24.6008L48.4348 23.685C46.4233 23.6381 46.4233 26.7688 48.4348 26.8157L84.6804 27.7315C86.6997 27.7315 86.6918 24.6008 84.6804 24.6008Z" fill="#1E1E1E"/>
<path d="M66.4285 15.8896C60.2376 15.4748 54.0309 15.107 47.8165 15.2087C45.8051 15.2478 45.7972 18.3785 47.8165 18.3394C54.0309 18.2142 60.2376 18.6055 66.4285 19.0203C68.44 19.1221 68.4321 15.9914 66.4285 15.8896Z" fill="#1E1E1E"/>
</svg>
