<svg width="122" height="77" viewBox="0 0 122 77" fill="none" xmlns="http://www.w3.org/2000/svg">
<path d="M76.2245 58.6146H44.7375C34.6176 58.6146 24.2707 57.9885 14.2133 59.0686C8.26501 59.7104 8.2024 69.1103 14.2133 68.4607C24.2785 67.3806 34.6332 68.0067 44.7375 68.0067H76.2245C82.2354 68.0067 82.251 58.6146 76.2245 58.6146Z" fill="#FBB03B"/>
<path d="M31.2442 22.7604C31.2442 20.5376 31.4947 17.8061 30.3363 15.8181C28.904 13.3683 26.0786 13.3761 23.5897 13.2118C21.2417 13.0553 18.8937 12.9692 16.5457 12.9222C15.5687 12.8732 14.6029 13.1483 13.7985 13.7049C13.0417 14.0613 12.4083 14.6351 11.979 15.353C11.5496 16.0708 11.3439 16.9003 11.3878 17.7357C11.3878 20.0837 11.4583 22.4317 11.56 24.7406C11.6853 27.5425 12.3975 30.2193 15.4734 31.0411C17.7353 31.6516 20.4512 31.2759 22.7836 31.2759C25.382 31.2759 28.4345 31.6672 30.1955 29.3035C31.6121 27.4486 31.2834 24.9832 31.2442 22.7604Z" fill="#FBB03B"/>
<path d="M121.972 4.74331C122.069 3.7268 121.781 2.71089 121.165 1.89643C120.549 1.08197 119.65 0.528236 118.645 0.344698C118.053 0.110015 117.42 -0.00695806 116.783 0.000319893C111.366 0.000319893 105.958 0.164675 100.542 0.336863C99.7185 0.114317 98.8462 0.152587 98.0453 0.446425C97.3343 0.520181 96.6519 0.766151 96.0573 1.16301C95.4627 1.55986 94.9738 2.09565 94.6329 2.724C92.7232 5.11898 92.958 8.57057 93.1223 12.1161C93.4198 18.5183 93.4432 24.9362 93.4119 31.3463C93.3415 43.4464 92.4336 55.9457 94.4998 67.9206C94.6064 68.9215 95.1052 69.8393 95.8872 70.473C96.6691 71.1067 97.6703 71.4047 98.6715 71.3018C98.8911 71.3503 99.1132 71.3869 99.3368 71.4113C104.936 71.9577 110.568 72.0937 116.188 71.8183C118.653 71.7009 120.985 69.7599 120.884 67.1223C120.117 46.2954 121.025 25.5076 121.972 4.74331Z" fill="#FBB03B"/>
<path d="M116.563 73.3445H116.477C116.374 73.2323 116.255 73.1348 116.125 73.055C111.627 70.369 106.656 68.5679 101.481 67.7484C102.72 67.261 103.991 66.8583 105.285 66.5431C108.51 65.7996 111.789 65.4552 114.888 64.3908C114.888 65.5569 114.928 66.7388 114.943 67.8971C114.943 69.9086 118.074 69.9164 118.074 67.8971C117.839 51.6958 117.61 35.4919 117.385 19.2854L117.19 5.42424C117.197 5.16826 117.134 4.91516 117.009 4.69189C116.883 4.46863 116.7 4.28355 116.477 4.15631C116.343 3.96653 116.162 3.81387 115.953 3.7126C115.744 3.61132 115.512 3.56471 115.28 3.57712C100.487 3.67626 85.7 3.69976 70.9179 3.64758C56.1359 3.5954 41.3486 3.46755 26.5561 3.26406C18.2076 3.14926 9.85908 3.01099 1.51058 2.84924C-0.500892 2.81011 -0.500892 5.9408 1.51058 5.97993C16.2979 6.27213 31.0851 6.48606 45.8724 6.62173C60.1588 6.75739 74.4478 6.8174 88.7394 6.80175C88.2385 24.0753 88.6533 41.3098 89.4125 58.5677C89.7101 63.3474 89.6081 68.1436 89.1073 72.9062C83.4642 72.8358 77.8133 72.7575 72.1702 72.7027C57.3882 72.5723 42.6009 72.5123 27.8084 72.5227C19.8721 72.5227 11.9358 72.554 3.99947 72.6167C3.7751 56.838 3.55072 41.0619 3.32636 25.2885C3.26374 20.6707 3.19852 16.0529 3.13069 11.4352C3.13069 9.41586 0 9.41586 0 11.4352C0.229584 27.6365 0.459172 43.8378 0.688755 60.0391L0.884423 73.9002C0.878345 74.1551 0.940424 74.4071 1.06426 74.63C1.18809 74.8528 1.3692 75.0386 1.58885 75.1682C1.72556 75.3575 1.90742 75.5097 2.11793 75.6108C2.32844 75.712 2.56089 75.7589 2.79415 75.7474C17.5762 75.6534 32.3635 75.63 47.156 75.6769C61.9485 75.7239 76.7358 75.8517 91.5179 76.0604C99.8664 76.1752 108.215 76.3135 116.563 76.4752C118.575 76.5144 118.575 73.3837 116.563 73.3445ZM104.127 63.6081C100.213 64.5473 96.7227 66.6449 92.7702 67.3414H92.6919C92.7936 64.6412 92.7545 61.9332 92.6449 59.2251C99.0803 59.215 105.479 60.1944 111.617 62.1288C109.144 62.7315 106.577 63.0133 104.127 63.6081ZM91.7135 33.7022C91.8264 33.7299 91.9418 33.7456 92.0579 33.7492C95.8284 33.9306 99.6069 33.8574 103.368 33.53C104.15 33.4439 104.933 33.3265 105.716 33.2013C101.16 35.2519 96.5192 37.099 91.7918 38.7426C91.7657 37.0573 91.7396 35.3745 91.7135 33.6944V33.7022ZM91.8857 41.8733H92.0345C96.7544 41.8919 101.465 42.2871 106.123 43.0551C101.354 43.9507 96.6665 45.2306 92.1049 46.8824L92.0188 46.9215C91.9875 45.2388 91.9327 43.556 91.8779 41.8655L91.8857 41.8733ZM114.583 45.004L114.677 51.3749C111.284 50.1676 107.774 49.3177 104.205 48.8391L99.0941 47.9546C104.168 46.5044 109.363 45.5142 114.615 44.9961L114.583 45.004ZM103.391 51.868C105.003 52.1498 106.616 52.4237 108.204 52.7681C102.937 53.6995 97.5444 53.9969 92.4962 55.8988C92.3945 53.9108 92.2771 51.9228 92.1832 49.9426L103.391 51.868ZM114.693 54.4039C114.693 54.4039 114.693 54.4039 114.748 54.4039C114.779 56.2614 114.805 58.1189 114.826 59.9765C110.638 58.4689 106.305 57.3988 101.896 56.7832C106.193 56.0866 110.568 55.7814 114.693 54.3726V54.4039ZM114.575 41.6463C109.697 40.3935 104.723 39.5453 99.7046 39.1105C104.714 37.1225 109.618 34.9049 114.419 32.4577C114.481 35.518 114.528 38.5626 114.575 41.6463ZM114.395 28.8809C110.779 28.5287 107.351 29.9219 103.735 30.3524C101.514 30.6002 99.279 30.7152 97.0435 30.6967C102.919 26.6581 108.658 22.4213 114.262 17.9861C114.294 21.6177 114.335 25.2493 114.388 28.8809H114.395ZM109.465 6.73129C111.03 6.73129 112.548 6.73129 114.082 6.73129L114.2 15.1215C114.013 15.0421 113.812 15.0012 113.609 15.0012C113.406 15.0012 113.205 15.0421 113.018 15.1215C107.367 16.0555 101.771 17.2504 96.2296 18.7062C97.4198 17.4208 98.7509 16.2735 100.198 15.2859C103.342 12.8521 106.315 10.2057 109.097 7.36528C109.273 7.19109 109.397 6.9717 109.457 6.73129H109.465ZM91.9092 6.79392C95.5173 6.79392 99.1333 6.7939 102.741 6.75477C99.0889 8.32011 95.4365 9.93764 91.784 11.6073C91.8231 10.0029 91.8779 8.39839 91.8779 6.79392H91.9092ZM91.737 14.4484C91.9699 14.5422 92.2199 14.5858 92.4707 14.5764C92.7216 14.5669 92.9676 14.5047 93.1928 14.3937C95.5878 13.277 97.9984 12.1891 100.425 11.1299C99.642 11.7639 98.8593 12.3822 98.0767 12.9692C96.587 13.9741 95.221 15.151 94.0068 16.4756C93.2241 17.3991 92.4884 18.3618 91.6587 19.254C91.6822 17.6496 91.6979 16.0529 91.7292 14.4484H91.737ZM91.9327 23.1283C97.067 21.6256 102.256 20.3498 107.5 19.301C102.355 23.2196 97.0827 26.9686 91.6822 30.548C91.6822 28.0904 91.6822 25.6328 91.6822 23.1752C91.7645 23.1681 91.8459 23.1524 91.9249 23.1283H91.9327ZM92.5354 70.2765C92.7408 70.3719 92.9667 70.4149 93.1928 70.4017C98.7708 70.1421 104.338 71.1065 109.504 73.2271C103.764 73.128 98.0245 73.0341 92.2849 72.9454C92.371 72.0531 92.4571 71.1687 92.5275 70.2765H92.5354Z" fill="#1E1E1E"/>
<path d="M29.3893 29.4992L29.3424 27.0651L29.2485 22.0325C29.2093 20.0211 26.0786 20.0132 26.1178 22.0325C26.1647 24.3805 26.3134 26.7286 26.29 29.0766C24.3098 29.1314 22.2983 29.014 20.3416 29.0061H16.7648H14.0803C14.0803 28.74 14.1272 28.4504 14.1272 28.3174C14.1272 27.6365 14.1272 26.9477 14.1272 26.259C14.1272 24.9441 14.0568 23.6214 13.955 22.3065C13.8002 20.2723 13.539 18.2476 13.1724 16.2408L18.7215 16.3347C20.7408 16.3738 20.7408 13.2431 18.7215 13.204L11.2548 13.0709C11.0138 13.0707 10.7759 13.1262 10.5598 13.2331C10.3438 13.3399 10.1553 13.4952 10.0091 13.6869C9.86287 13.8785 9.76291 14.1014 9.71698 14.338C9.67104 14.5746 9.68038 14.8187 9.74426 15.0511C10.3504 17.8027 10.7404 20.5976 10.9104 23.41C10.9965 24.8345 11.02 26.259 10.9965 27.6834C10.9965 28.9122 10.6365 30.5167 11.607 31.4872C12.5775 32.4577 14.3542 32.1368 15.6065 32.1446H19.9973H24.388H26.5013C27.2599 32.2558 28.0334 32.095 28.6849 31.6907C29.405 31.1741 29.405 30.3367 29.3893 29.4992Z" fill="#1E1E1E"/>
<path d="M30.1328 12.3587C29.9875 12.2132 29.8148 12.0977 29.6248 12.019C29.4348 11.9402 29.2311 11.8997 29.0254 11.8997C28.8197 11.8997 28.616 11.9402 28.4259 12.019C28.2359 12.0977 28.0633 12.2132 27.9179 12.3587L24.7872 15.1998C24.3098 15.6303 23.8402 16.0608 23.3471 16.4756L23.0027 16.7574C22.9433 16.7927 22.8882 16.8347 22.8383 16.8826C22.5664 17.0847 22.2843 17.2728 21.993 17.4461C21.6686 17.6697 21.4405 18.0074 21.3542 18.3919C21.2678 18.7763 21.3296 19.1791 21.5272 19.52C21.7248 19.8609 22.0437 20.1147 22.4202 20.2308C22.7967 20.3469 23.2031 20.3167 23.5584 20.1463C24.7564 19.3703 25.8757 18.479 26.9004 17.4853L30.0937 14.5659C30.3905 14.2778 30.5612 13.8839 30.5686 13.4704C30.5759 13.0568 30.4192 12.6572 30.1328 12.3587Z" fill="#1E1E1E"/>
<path d="M47.023 52.3376L14.4638 52.0637C12.4523 52.0637 12.4523 55.1943 14.4638 55.1943L47.023 55.4683C49.0423 55.4918 49.0423 52.3611 47.023 52.3376Z" fill="#1E1E1E"/>
<path d="M34.0541 62.0427C27.3857 61.6514 20.7095 61.5601 14.0255 61.7688C12.014 61.8314 12.0062 64.9621 14.0255 64.8995C20.7043 64.696 27.3805 64.7873 34.0541 65.1734C36.0656 65.2752 36.0577 62.1445 34.0541 62.0427Z" fill="#1E1E1E"/>
<path d="M72.0294 61.941C67.5134 62.5358 62.9191 62.2775 58.3796 62.2149L44.5184 62.0427C42.507 62.0427 42.507 65.1734 44.5184 65.1734L58.3796 65.3612C62.9191 65.4239 67.5134 65.6822 72.0294 65.0873C72.4402 65.0737 72.8304 64.9043 73.1211 64.6137C73.4117 64.323 73.5811 63.9328 73.5947 63.522C73.5947 62.7471 72.8668 61.8314 72.0294 61.941Z" fill="#1E1E1E"/>
</svg>
