<svg width="105" height="86" viewBox="0 0 105 86" fill="none" xmlns="http://www.w3.org/2000/svg">
<path d="M41.8471 23.3311C40.0241 21.296 38.3771 19.1097 36.9241 16.7958C35.617 14.573 34.9518 12.045 33.5352 9.88478C33.1932 9.30637 32.6892 8.8409 32.0854 8.54599C31.4817 8.25107 30.8048 8.13966 30.1384 8.22552C29.4697 8.09947 28.7784 8.18205 28.1582 8.46205C27.538 8.74205 27.0188 9.20594 26.6711 9.79086C24.01 14.0799 23.0082 20.0126 21.4977 24.8025C21.3611 25.3252 21.3452 25.8722 21.4512 26.4019C21.5573 26.9317 21.7825 27.4304 22.1098 27.8602C22.4371 28.2901 22.8579 28.6398 23.3404 28.883C23.8228 29.1262 24.3542 29.2564 24.8944 29.2638L39.3582 29.3029C42.6063 29.3577 43.749 25.5774 41.8471 23.3311Z" fill="#FBB03B"/>
<path d="M52.969 56.8765L27.1408 56.2425C22.6013 56.133 22.6092 63.177 27.1408 63.2866L52.969 63.9206C57.5007 64.038 57.5007 56.9939 52.969 56.8765Z" fill="#FBB03B"/>
<path d="M43.6942 66.292C38.9982 66.018 34.13 65.2902 29.4966 66.1902C25.051 67.0512 26.9294 73.8448 31.3672 72.9838C35.2805 72.2011 39.7652 73.1091 43.6942 73.336C48.2259 73.5943 48.2103 66.5503 43.6942 66.292Z" fill="#FBB03B"/>
<path d="M104.484 39.1177C103.162 36.4253 98.7553 34.0772 96.6108 32.0266C95.9416 31.3838 95.0498 31.0248 94.1219 31.0248C93.194 31.0248 92.3021 31.3838 91.633 32.0266C77.2598 45.0337 65.7162 60.8586 57.7198 78.5174C57.4147 79.1604 57.3061 79.8793 57.4078 80.5838C57.5094 81.2883 57.8167 81.9471 58.2912 82.4777C58.5387 83.0903 58.9623 83.6158 59.5083 83.9877C60.0544 84.3597 60.6986 84.5614 61.3593 84.5674C65.2726 84.7161 69.186 85.131 73.0993 85.0214C74.1664 85.052 75.2258 84.833 76.1933 84.3819C77.1607 83.9307 78.0095 83.2599 78.672 82.4229C80.8635 79.8714 82.507 76.5529 84.3228 73.7118L90.5372 64.0066C94.5367 57.7452 98.6536 51.5621 102.551 45.2225C103.757 43.2736 105.635 41.3952 104.484 39.1177Z" fill="#FBB03B"/>
<path d="M103.866 42.8744L89.8484 22.9632L82.9375 13.0938C80.8496 9.93047 78.4929 6.95312 75.8934 4.19477C74.4611 2.77031 72.2462 4.97744 73.6785 6.40973C76.2111 9.12123 78.5051 12.0462 80.5347 15.1522L87.3753 24.8652L90.7329 29.6316C90.2388 30.0149 89.7851 30.4476 89.3789 30.923C89.3469 30.9564 89.3129 30.9878 89.2771 31.0169C78.8226 42.6353 69.5054 55.2287 61.4532 68.6244C59.1625 72.4438 56.9737 76.3258 54.8865 80.2705C54.7646 80.4923 54.7006 80.7414 54.7006 80.9945C54.7006 81.2476 54.7646 81.4966 54.8865 81.7185L51.0749 81.5776L39.0374 81.1314C35.5828 80.897 32.1128 81.044 28.6904 81.5697L18.9148 65.3293C15.7215 60.0149 12.7709 54.3719 8.79495 49.5819C7.08872 47.5392 4.96765 45.8016 3.52753 43.5553C6.5643 36.5426 9.59585 29.5299 12.6222 22.5171C14.1875 18.9377 15.732 15.3635 17.2556 11.7945C18.4844 8.94559 19.6036 5.9323 21.5524 3.45123L69.4834 3.15381C71.4949 3.15381 71.5027 0.0231171 69.4834 0.0231171L21.8265 0.312702C21.6893 0.197714 21.5304 0.111412 21.3593 0.0588972C21.1882 0.00638234 21.0083 -0.0112731 20.8303 0.00697068C20.6522 0.0252144 20.4796 0.0789911 20.3226 0.165115C20.1657 0.251239 20.0277 0.367955 19.9167 0.50837C17.5217 3.25555 16.1364 6.55061 14.7041 9.86131C13.1387 13.4303 11.5943 17.0019 10.0707 20.5761C7.03394 27.6254 3.99193 34.6694 0.944722 41.7083C0.748284 41.8005 0.572091 41.9308 0.426268 42.0916C0.280445 42.2523 0.167889 42.4403 0.0951231 42.6448C0.0223567 42.8493 -0.00918386 43.0662 0.00230493 43.2829C0.0137937 43.4996 0.0680737 43.7119 0.16205 43.9076C1.37519 46.4512 3.46494 48.3453 5.359 50.3724C7.3369 52.5777 9.09087 54.974 10.5951 57.5261C13.9997 63.0048 17.2948 68.64 20.6368 74.197L26.4286 83.8238C26.502 83.9428 26.5886 84.0531 26.6868 84.1526C26.8554 84.4311 27.1099 84.6472 27.412 84.7686C27.714 84.89 28.0473 84.91 28.3618 84.8257C32.056 83.9569 35.8676 84.1369 39.6401 84.27L51.4897 84.7161L75.3925 85.6083C75.6676 85.629 75.9425 85.5651 76.1802 85.4252C76.418 85.2853 76.6075 85.0761 76.7231 84.8257C76.8527 84.7172 76.966 84.5907 77.0596 84.45C85.6847 71.3167 94.3124 58.1809 102.943 45.0424C103.173 45.0012 103.389 44.9033 103.572 44.7576C103.755 44.6119 103.898 44.423 103.99 44.2079C104.082 43.9928 104.118 43.7583 104.097 43.5255C104.075 43.2927 103.996 43.069 103.866 42.8744ZM91.3982 33.3336C91.4225 33.3197 91.4438 33.3011 91.4608 33.2789C91.782 32.8846 92.1412 32.5229 92.5331 32.1988C93.4566 33.5137 94.3828 34.8181 95.3116 36.1121C94.0396 35.0534 92.5715 34.2555 90.9912 33.7641L91.3982 33.3336ZM88.8467 36.2452C89.186 39.6042 89.8278 42.9258 90.7642 46.1695L85.0272 41.7709C84.8474 41.6306 84.6344 41.539 84.4089 41.5047C85.8542 39.7307 87.3335 37.9723 88.8467 36.2295V36.2452ZM82.7183 43.5475C83.4853 47.6592 84.3332 51.7551 85.262 55.8355C82.9784 53.6102 80.477 51.62 77.7954 49.895C79.4025 47.7505 81.0434 45.6347 82.7183 43.5475ZM75.3221 53.2761C75.4082 58.5514 77.5919 63.5839 78.2728 68.7809C75.8221 65.4735 73.7236 61.9191 72.0114 58.1757L71.9644 58.1052C73.0367 56.4773 74.1716 54.8728 75.3221 53.2761ZM57.6024 81.8202C59.1051 78.9791 60.6783 76.1693 62.2984 73.383C62.1593 76.2833 62.4709 79.1876 63.222 81.9924L57.6024 81.8202ZM64.7403 69.2505C66.3057 66.7381 67.8241 64.2492 69.4364 61.7916C70.3756 66.639 71.3122 71.4863 72.2461 76.3337L65.2021 69.5479C65.0693 69.4193 64.9124 69.3182 64.7403 69.2505ZM66.4935 82.1567C65.6823 79.5379 65.3017 76.8047 65.3665 74.0639L73.6158 82.0394C73.8566 82.2814 74.17 82.4381 74.5081 82.4855L66.4935 82.1567ZM76.1595 80.1061L73.8115 67.8104C75.3482 70.1367 77.04 72.3566 78.8755 74.4553C79.0643 74.6794 79.319 74.8382 79.6033 74.9092C78.4371 76.6389 77.2944 78.3686 76.1595 80.1061ZM81.6382 71.8255C81.7008 65.8067 78.8754 60.0854 78.5075 54.1684C81.7371 56.5555 84.6326 59.3641 87.1169 62.5195C87.228 62.6597 87.3631 62.779 87.5161 62.8717C85.5333 65.8563 83.561 68.8409 81.5991 71.8255H81.6382ZM89.4649 59.8897C88.4214 55.5694 87.4561 51.2255 86.5691 46.8582L93.1122 51.883C93.3633 52.0512 93.6621 52.1338 93.964 52.1183C94.2658 52.1027 94.5546 51.99 94.7871 51.7969C92.9922 54.4893 91.2078 57.1869 89.4337 59.8897H89.4649ZM95.4759 50.7325C95.5094 50.5218 95.4877 50.3062 95.4132 50.1063C93.8365 46.1177 92.7511 41.9519 92.1809 37.701C92.7423 38.0274 93.2671 38.4131 93.7462 38.8515C93.9779 39.0562 94.2633 39.1903 94.5687 39.238C94.8742 39.2857 95.1869 39.245 95.47 39.1208C95.7531 38.9965 95.9947 38.7938 96.1663 38.5367C96.3379 38.2796 96.4324 37.9787 96.4386 37.6697L100.352 43.2814L95.4759 50.7325Z" fill="#1E1E1E"/>
<path d="M41.1349 28.2071C41.0681 27.9774 40.944 27.7686 40.7742 27.6001C40.6044 27.4317 40.3945 27.3093 40.1643 27.2444C38.9781 25.7461 37.9105 24.1577 36.9711 22.4936C35.5623 20.3178 34.1274 18.1602 32.6664 16.0209C31.2054 13.8816 29.7548 11.8101 28.3147 9.80646C27.5868 8.78899 26.7494 7.66977 25.3406 8.10024C24.7974 8.27298 24.3356 8.63741 24.0413 9.12554C23.9597 9.25719 23.8965 9.3994 23.8535 9.54819C23.7086 9.65849 23.5908 9.80035 23.5091 9.963C22.1371 12.6455 21.0158 15.4489 20.1593 18.3376C18.4199 21.307 17.0405 24.473 16.0503 27.7688C15.9968 27.9676 15.9831 28.1751 16.0099 28.3792C16.0368 28.5834 16.1037 28.7802 16.2068 28.9585C16.2887 29.1675 16.4208 29.3533 16.5914 29.4993C16.762 29.6454 16.9659 29.7472 17.1851 29.7959C20.9028 30.4455 24.5579 29.1385 28.2834 29.6472C30.0708 29.9432 31.874 30.134 33.6838 30.2186C35.39 30.2577 37.1041 30.2577 38.8182 30.2655C40.2818 31.5335 42.3715 29.5142 41.1349 28.2071ZM28.753 26.6417C26.9527 26.4069 25.1294 26.4069 23.3291 26.6417C22.102 26.8166 20.866 26.9211 19.627 26.9548C19.7053 26.7278 19.7679 26.493 19.8462 26.2739C19.9871 25.906 20.1202 25.546 20.2689 25.1782C20.4176 24.8103 20.488 24.6303 20.6602 24.2468C21.3195 22.7442 22.0697 21.2831 22.9065 19.8716C22.9755 19.7494 23.0256 19.6175 23.0551 19.4803C23.1048 19.3874 23.1467 19.2905 23.1804 19.1907C23.5796 17.8289 24.0335 16.4905 24.5579 15.1834C24.6205 15.0191 24.6831 14.8547 24.7536 14.6982C24.824 14.5416 24.8162 14.5338 24.8553 14.4477C24.9884 14.1347 25.1292 13.8137 25.2701 13.5007C25.4109 13.1876 25.5128 13.0076 25.6302 12.7571C25.8612 12.6242 26.0529 12.4325 26.1858 12.2014L26.9685 13.258L28.706 15.7391C29.8957 17.4532 31.054 19.175 32.2202 20.9126C33.3864 22.6501 34.4431 24.2937 35.531 26L36.2667 27.1661H34.0674C32.2861 27.0918 30.5112 26.9062 28.753 26.6104V26.6417Z" fill="#1E1E1E"/>
<path d="M68.6538 10.5344H43.2404C41.2289 10.5344 41.2289 13.6651 43.2404 13.6651H68.6538C70.6731 13.6651 70.6731 10.5344 68.6538 10.5344Z" fill="#1E1E1E"/>
<path d="M61.8053 18.3925C56.7979 18.0545 51.7725 18.0886 46.7702 18.4942C46.355 18.4942 45.9568 18.6591 45.6632 18.9527C45.3697 19.2462 45.2048 19.6444 45.2048 20.0595C45.2048 20.4747 45.3697 20.8729 45.6632 21.1664C45.9568 21.46 46.355 21.6249 46.7702 21.6249C51.7725 21.2192 56.7979 21.1852 61.8053 21.5231C62.2204 21.5231 62.6186 21.3582 62.9121 21.0647C63.2057 20.7711 63.3706 20.373 63.3706 19.9578C63.3706 19.5426 63.2057 19.1445 62.9121 18.8509C62.6186 18.5574 62.2204 18.3925 61.8053 18.3925Z" fill="#1E1E1E"/>
<path d="M63.2924 44.6355C62.9342 44.4276 62.5081 44.3702 62.1076 44.4758C61.7071 44.5815 61.3649 44.8415 61.1557 45.199L57.7276 49.6446C56.4189 48.1342 55.3065 46.4642 54.4169 44.6746C54.2793 44.4374 54.0818 44.2405 53.8442 44.1036C53.6065 43.9667 53.3371 43.8947 53.0628 43.8947C52.7886 43.8947 52.5192 43.9667 52.2816 44.1036C52.044 44.2405 51.8464 44.4374 51.7088 44.6746C51.1492 45.7149 50.5326 46.7234 49.8617 47.6957C49.5643 48.1262 49.2591 48.541 48.9382 48.948C48.8287 49.0811 48.6016 49.2689 48.4686 49.4567C48.1584 49.1545 47.8318 48.8697 47.4902 48.6036C47.0989 48.2045 46.7076 47.821 46.3475 47.367C45.6238 46.532 44.9619 45.6452 44.3674 44.7137C43.6708 43.6493 41.8237 43.7119 41.5028 45.0894C41.0973 46.8795 40.4048 48.5922 39.4522 50.1611C37.5205 48.5829 35.746 46.8215 34.1535 44.9016C34.0082 44.756 33.8355 44.6406 33.6455 44.5618C33.4554 44.483 33.2517 44.4425 33.046 44.4425C32.8403 44.4425 32.6366 44.483 32.4466 44.5618C32.2566 44.6406 32.0839 44.756 31.9385 44.9016C30.7463 46.1885 29.7424 47.6378 28.9566 49.2063L27.0703 47.4061C26.0763 46.4669 24.9336 44.9172 23.4465 44.8546C21.9595 44.792 20.7542 46.0521 19.9245 47.1479C19.1112 48.2229 18.5569 49.4709 18.3044 50.7951C17.9366 52.7674 20.9577 53.6127 21.3255 51.6326C21.4687 50.7691 21.7913 49.9452 22.2725 49.2141C22.5152 48.8619 22.8439 48.6036 23.1022 48.2749L23.2744 48.1184L23.4935 48.3297L28.3853 52.9788C28.5788 53.1719 28.8195 53.3111 29.0835 53.3823C29.3475 53.4535 29.6255 53.4543 29.8899 53.3846C30.1543 53.315 30.3959 53.1773 30.5905 52.9852C30.7852 52.7932 30.9261 52.5535 30.9994 52.29C31.4919 50.888 32.1939 49.5686 33.0813 48.3766C34.8824 50.355 36.8719 52.1532 39.0217 53.7458C39.38 53.9536 39.806 54.011 40.2064 53.9054C40.6069 53.7998 40.9493 53.5398 41.1584 53.1823C42.1544 51.8584 42.9703 50.4083 43.5847 48.8697C43.9134 49.2689 44.2343 49.6524 44.5787 50.0516C45.5179 51.0769 46.7076 52.5483 48.1321 52.8222C49.8226 53.151 50.8401 51.5543 51.7245 50.3959C52.1863 49.7855 52.6168 49.1671 53.0316 48.5254C54.0856 50.1938 55.3248 51.7376 56.7258 53.1275C56.8953 53.2964 57.1014 53.4243 57.3281 53.5012C57.5548 53.578 57.7961 53.6019 58.0335 53.5709C58.2708 53.5399 58.4978 53.4549 58.6972 53.3224C58.8965 53.1899 59.0629 53.0134 59.1834 52.8066L63.8794 46.7487C64.0779 46.3898 64.1276 45.9673 64.0179 45.5721C63.9081 45.1769 63.6476 44.8406 63.2924 44.6355Z" fill="#1E1E1E"/>
<path d="M52.0767 58.9897C42.9507 58.5357 33.8196 58.3714 24.6832 58.4966C22.6717 58.4966 22.6639 61.6273 24.6832 61.6273C33.8196 61.5021 42.9507 61.6664 52.0767 62.1204C54.096 62.2221 54.0882 59.0914 52.0767 58.9897Z" fill="#1E1E1E"/>
<path d="M42.3402 67.6773C38.0203 67.1413 33.6532 67.1019 29.3244 67.5599C28.9123 67.5698 28.52 67.7379 28.2285 68.0294C27.9371 68.3208 27.769 68.7132 27.759 69.1252C27.759 69.5404 27.924 69.9385 28.2175 70.2321C28.5111 70.5257 28.9092 70.6906 29.3244 70.6906C33.6532 70.2326 38.0203 70.272 42.3402 70.808C42.7554 70.808 43.1535 70.6431 43.4471 70.3495C43.7406 70.0559 43.9056 69.6578 43.9056 69.2426C43.9056 68.8275 43.7406 68.4293 43.4471 68.1358C43.1535 67.8422 42.7554 67.6773 42.3402 67.6773Z" fill="#1E1E1E"/>
</svg>
