<svg width="76" height="121" viewBox="0 0 76 121" fill="none" xmlns="http://www.w3.org/2000/svg">
<path d="M49.6057 21.5039C49.0418 19.849 48.1245 18.3365 46.9176 17.0715C45.7107 15.8065 44.2431 14.8192 42.6165 14.1781C39.5996 12.8656 36.3335 12.2247 33.0444 12.2997C32.8664 12.1658 32.662 12.0714 32.4447 12.0228C32.2274 11.9743 32.0023 11.9726 31.7843 12.0179C26.0238 13.1215 20.1068 16.2991 18.9328 22.5605C17.7275 28.9706 21.4217 35.3572 26.6578 38.8792C31.8939 42.4013 39.2666 42.6282 44.4244 38.6053C46.9812 36.6489 48.9278 34.0047 50.0362 30.9821C51.0458 27.9923 50.631 24.3998 49.6057 21.5039ZM43.2974 25.9651C42.5773 28.2427 40.1041 29.4637 37.8187 29.3541C36.6071 29.319 35.4429 28.8748 34.5158 28.094C33.9844 27.6348 33.5548 27.0697 33.2543 26.4349C32.9537 25.8002 32.7889 25.1097 32.7704 24.4076C32.7259 23.7439 32.8144 23.078 33.0308 22.449C33.2472 21.82 33.5871 21.2406 34.0305 20.7447C34.4219 20.3687 34.8927 20.0852 35.408 19.9151C36.044 19.5046 36.7662 19.2465 37.5183 19.161C38.2704 19.0754 39.0321 19.1648 39.744 19.422C42.3816 20.3612 44.1818 23.1554 43.2974 25.9651Z" fill="#FBB03B"/>
<path d="M75.5044 100.389C75.2373 99.8326 74.8354 99.3513 74.3352 98.9891C73.8349 98.6269 73.2522 98.3953 72.6398 98.3153C71.3591 98.139 70.0652 98.0762 68.7734 98.1275L64.0774 98.0727L45.7707 97.8692C39.0553 97.7988 32.34 97.7049 25.6247 97.6579C18.9094 97.6109 12.3662 97.7362 5.87789 98.9884C5.62991 99.0163 5.39543 99.1158 5.20313 99.2748C5.01083 99.4339 4.86903 99.6455 4.79512 99.8838C4.72121 100.122 4.71842 100.377 4.787 100.617C4.85558 100.857 4.99259 101.071 5.1813 101.235L5.39264 116.732C5.39264 117.78 5.19695 119.15 6.11268 119.972C7.21625 120.958 9.17291 120.676 10.5974 120.7L19.4651 120.833C31.5417 120.974 43.634 120.95 55.6871 120.175C58.63 119.982 61.5676 119.745 64.5 119.463C65.9088 119.322 67.3098 119.174 68.7108 119.017C70.1426 118.949 71.5639 118.737 72.9529 118.383C73.5433 118.187 74.0617 117.819 74.4423 117.327C74.8229 116.835 75.0482 116.241 75.0896 115.62C75.2618 114.313 75.2931 112.983 75.3713 111.668C75.5357 109.014 75.6453 106.361 75.7236 103.708C75.8827 102.599 75.808 101.468 75.5044 100.389Z" fill="#FBB03B"/>
<path d="M73.172 26.56C73.292 18.2115 73.4329 9.86298 73.5947 1.51447C73.5947 -0.504824 70.464 -0.504824 70.464 1.51447C70.177 16.2965 69.9631 31.0812 69.8222 45.8685C69.6813 60.6558 69.6083 75.4535 69.603 90.2617C69.603 91.0052 69.603 91.7409 69.603 92.4845L18.8781 92.6097H4.00728C3.80324 92.6097 3.60117 92.6496 3.41244 92.7271C3.50636 85.8709 3.58723 79.0199 3.65507 72.1741C3.78551 57.3816 3.8455 42.5943 3.83507 27.8123C3.83507 19.876 3.80638 11.937 3.74898 3.99553L51.0694 3.33028L64.9305 3.13461C66.942 3.13461 66.9498 0.00391905 64.9305 0.00391905L16.3265 0.68484L2.46539 0.880508C2.20884 0.876265 1.95577 0.939898 1.73173 1.06497C1.50769 1.19005 1.32069 1.37213 1.18968 1.59274C1.02211 1.74392 0.892814 1.93274 0.812529 2.14366C0.732244 2.35457 0.703246 2.58154 0.727879 2.80588C0.827018 17.5932 0.850519 32.3804 0.798341 47.1677C0.746163 61.955 0.618286 76.7397 0.414791 91.5218C0.305217 99.8703 0.16697 108.219 0 116.567C0 118.587 3.13069 118.587 3.13069 116.567L3.2011 112.576C3.40355 112.543 3.59771 112.472 3.77249 112.364C7.17711 110.337 9.80689 107.371 12.4758 104.498C13.5481 103.348 14.6516 102.15 15.8413 101.117C13.3875 105.476 11.4591 110.111 10.0964 114.924H8.58589C6.57442 114.924 6.5666 118.054 8.58589 118.054L57.1899 117.373L71.051 117.178C71.3075 117.182 71.5606 117.118 71.7847 116.993C72.0087 116.868 72.1957 116.686 72.3267 116.466C72.5145 116.327 72.6656 116.145 72.7665 115.935C72.8675 115.725 72.9154 115.493 72.9059 115.26C72.8015 100.478 72.7755 85.6909 72.8276 70.8984C72.8798 56.1059 72.9946 41.3264 73.172 26.56ZM69.6578 95.6151C69.6578 97.4075 69.6578 99.2076 69.6578 101.008C69.6284 101.05 69.6022 101.095 69.5795 101.141C68.4368 103.606 67.1689 106.009 65.7993 108.349L65.9793 96.1552C65.9813 95.9735 65.9494 95.793 65.8853 95.623L69.6578 95.6151ZM14.3072 111.903C16.2132 106.594 18.8473 101.576 22.1339 96.9927C22.2578 96.8097 22.3348 96.599 22.358 96.3792C22.3812 96.1595 22.35 95.9374 22.267 95.7326H29.3737L29.1858 95.8656C23.4254 100.397 19.5903 106.901 14.3072 111.903ZM31.6199 97.744C31.8079 97.4152 31.8702 97.0293 31.7954 96.658C31.7206 96.2867 31.5136 95.9551 31.213 95.7247H38.1787C34.9089 101.332 31.117 106.617 26.8535 111.511C27.4067 106.627 29.0345 101.925 31.6199 97.744ZM48.5491 96.0535C48.5647 95.9235 48.5647 95.7921 48.5491 95.6621H53.1669C51.6591 98.2945 50.351 101.036 49.2536 103.865L47.7587 107.434C47.7515 103.626 48.0156 99.8232 48.5491 96.0535ZM36.1751 111.253C36.3117 109.223 36.8128 107.235 37.6544 105.383C38.8831 102.471 40.4172 99.6929 41.1999 96.6092C41.2776 96.3036 41.2612 95.9817 41.1529 95.6856H45.0663C43.2295 98.4426 41.6422 101.358 40.3233 104.397C39.2544 106.858 37.8591 109.164 36.1751 111.253ZM33.4514 108.318C32.9133 110.368 32.8944 112.52 33.3966 114.579L28.2153 114.658C30.0416 112.617 31.7869 110.504 33.4514 108.318ZM42.6478 106.753C43.3757 105.266 44.0566 103.739 44.8002 102.244C44.5302 106.311 44.5616 110.392 44.8941 114.454L37.2709 114.556C39.5163 112.289 41.3374 109.638 42.6478 106.729V106.753ZM52.1103 105.046C52.5565 103.958 53.0182 102.878 53.5035 101.806L53.1982 114.329L48.2048 114.399C49.504 111.269 50.8059 108.143 52.1103 105.023V105.046ZM56.8064 95.6543H62.9582L56.5011 108.177L56.8064 95.6543ZM3.36548 102.002C3.57792 101.983 3.78498 101.924 3.97599 101.83L5.10304 101.258C4.43088 102.286 3.83445 103.361 3.31852 104.475L3.36548 102.002ZM4.10903 95.7404H9.0164L3.42027 98.5736C3.42027 97.5875 3.45941 96.6091 3.47507 95.623C3.66642 95.7133 3.87407 95.7639 4.08553 95.7717L4.10903 95.7404ZM5.67437 107.042C7.20916 102.938 9.97578 99.4083 13.595 96.9379C13.8041 96.8062 13.979 96.627 14.1055 96.4148C14.232 96.2026 14.3065 95.9634 14.3229 95.7169H18.1032C13.0472 98.4484 9.82252 103.34 5.61175 107.073L5.67437 107.042ZM15.7161 114.806C19.2538 111.574 22.1574 107.7 25.3116 104.076C24.1748 107.516 23.5575 111.106 23.4802 114.728H22.4079L15.7161 114.806ZM56.8846 114.227L62.8251 102.737C62.7782 106.463 62.726 110.186 62.6686 113.906C62.6567 113.987 62.6567 114.068 62.6686 114.149L56.8846 114.227ZM65.9714 114.102C67.3281 112.056 68.5934 109.956 69.7674 107.801C69.7674 109.883 69.7674 111.965 69.7674 114.063L65.9714 114.102Z" fill="#1E1E1E"/>
<path d="M54.2705 18.8115C52.6347 15.3521 50.4197 12.2762 46.5455 11.2822C42.2575 10.317 37.8695 9.8677 33.4749 9.94382C31.4556 9.94382 31.4556 13.0745 33.4749 13.0745C36.8003 13.0927 40.1198 13.3543 43.407 13.8572C44.8084 13.9841 46.1773 14.3522 47.4534 14.9451C48.6057 15.6649 49.5521 16.6706 50.2006 17.8645C51.6799 20.2829 52.9399 23.0379 53.0104 25.9103C53.0342 28.3829 52.3054 30.8042 50.9207 32.8527C50.552 33.4053 50.1411 33.9286 49.6919 34.418C46.4986 27.2174 34.0384 28.4305 31.2912 35.5607C29.0973 33.99 27.4695 31.7527 26.65 29.1819C25.1316 24.3528 27.4327 18.3732 32.3948 16.6592C34.2811 16.0017 33.4671 12.9806 31.5573 13.638C28.8413 14.6544 26.5375 16.5402 25.0045 19.0019C23.4714 21.4635 22.7952 24.3629 23.081 27.2487C23.7541 33.3927 28.2545 38.4644 33.9602 40.5541C40.0102 42.7769 47.3438 41.462 51.8285 36.7112C53.9561 34.4799 55.3774 31.67 55.9141 28.634C56.3906 25.2687 55.8166 21.8384 54.2705 18.8115ZM34.0697 37.1574C34.5248 35.9173 35.3372 34.8399 36.4043 34.0612C37.4713 33.2825 38.7452 32.8374 40.065 32.7822C43.0157 32.5317 46.2716 33.3301 47.109 36.5156C45.1381 37.6373 42.931 38.2798 40.6659 38.3913C38.4008 38.5028 36.1413 38.0801 34.0697 37.1574Z" fill="#1E1E1E"/>
<path d="M39.3058 25.8243H39.4467C39.3998 25.8201 39.3527 25.8201 39.3058 25.8243Z" fill="#1E1E1E"/>
<path d="M41.92 19.3672C40.7523 18.6437 39.3627 18.3658 38.0066 18.5845C37.4709 18.6966 36.9686 18.9317 36.5393 19.2713C36.1101 19.6109 35.7657 20.0456 35.5333 20.5412C35.3792 20.7143 35.2477 20.9063 35.142 21.1125C34.865 21.6448 34.6999 22.2281 34.6567 22.8266C34.6711 23.9136 34.9339 24.983 35.425 25.9529C35.916 26.9228 36.6224 27.7676 37.49 28.4227C38.4718 28.9338 39.6012 29.086 40.6833 28.8532C41.7093 28.6509 42.6582 28.1656 43.4227 27.4522C44.2578 26.6542 44.7586 25.5687 44.8237 24.4154C44.8632 23.3861 44.6117 22.3664 44.0981 21.4735C43.5845 20.5806 42.8296 19.8506 41.92 19.3672ZM41.6304 24.7441C41.6037 24.8064 41.5723 24.8666 41.5365 24.9242L41.4895 25.0102C41.3956 25.1433 41.4112 25.1276 41.5443 24.9476C41.5443 25.0572 41.3251 25.1981 41.239 25.2685L41.1373 25.3703H41.0747C40.933 25.4613 40.7867 25.5449 40.6364 25.6207L40.5268 25.6677H40.4642L40.0024 25.7851C39.9476 25.7851 39.8928 25.7851 39.8928 25.7851C39.7676 25.7851 39.6424 25.7851 39.5172 25.7851H39.5798H39.4937H39.4467C39.3762 25.7851 39.3371 25.7851 39.3528 25.7851H39.2902C39.2902 25.7851 39.2902 25.7851 39.1884 25.7851H39.1336L39.0397 25.7303H38.9928C38.9145 25.6833 38.9145 25.6599 38.9458 25.6677L38.8127 25.4877V25.4485L38.6327 25.1511C38.4291 24.855 38.2536 24.5406 38.1083 24.2119C38.1137 24.1887 38.1137 24.1647 38.1083 24.1415C38.0692 24.0319 38.0301 23.9145 37.9988 23.8049L37.9284 23.5153C37.9368 23.3563 37.9368 23.1969 37.9284 23.0379C37.9451 22.9841 37.9581 22.9292 37.9675 22.8736C38.156 22.7314 38.3044 22.5425 38.3979 22.3257C38.53 22.1835 38.6312 22.0157 38.6954 21.8326H38.7345C38.7971 21.7856 38.8128 21.7935 38.8049 21.8326H38.8519H39.3528H39.4859C39.6422 21.8713 39.7963 21.9183 39.9476 21.9735H40.0102H40.0572L40.1981 22.0439C40.3404 22.1118 40.4789 22.1876 40.6129 22.2709L40.7851 22.3805L40.8868 22.4509L40.9651 22.5213C41.0185 22.5641 41.0682 22.6112 41.1138 22.6622C41.1607 22.7014 41.286 22.8109 41.3799 22.9048C41.387 22.946 41.406 22.9841 41.4347 23.0144C41.4836 23.0846 41.528 23.1578 41.5677 23.2336C41.6069 23.2962 41.6304 23.3588 41.6695 23.4136V23.4919C41.6695 23.6249 41.7478 23.7893 41.7556 23.8206V23.9771C41.7556 23.9771 41.7556 23.9771 41.7556 24.0241C41.7556 24.1728 41.7556 24.3215 41.7556 24.4702C41.7556 24.6189 41.7556 24.5798 41.7556 24.6346C41.7556 24.6894 41.646 24.6737 41.6304 24.7207V24.7441Z" fill="#1E1E1E"/>
<path d="M39.0789 25.7539L39.1963 25.8009C39.1631 25.7731 39.122 25.7567 39.0789 25.7539Z" fill="#1E1E1E"/>
<path d="M38.711 21.676L38.6014 21.7152C38.6641 21.7152 38.7032 21.6917 38.711 21.676Z" fill="#1E1E1E"/>
<path d="M38.891 25.5973L38.9849 25.6912C38.9645 25.6506 38.9316 25.6177 38.891 25.5973Z" fill="#1E1E1E"/>
<path d="M55.7419 68.1121C55.618 67.725 55.3635 67.393 55.0219 67.1729C54.9535 67.1304 54.8882 67.0833 54.8262 67.032C53.837 66.2786 53.0537 65.288 52.5487 64.1518C52.3382 63.7956 51.9953 63.5372 51.595 63.4331C51.1946 63.329 50.7692 63.3876 50.4119 63.5961C50.0599 63.801 49.8016 64.1351 49.6919 64.5274C49.6919 64.6683 49.6919 64.8092 49.6293 64.9423C49.6371 65.1849 49.6986 65.4228 49.8093 65.6388C49.6293 66.0537 49.2771 66.6485 48.7135 66.5233C48.15 66.398 48.1892 65.9363 48.244 65.5449C48.2442 65.2019 48.1317 64.8682 47.9238 64.5953C47.716 64.3224 47.4242 64.1253 47.0934 64.0344C45.4889 63.7839 44.4088 64.4648 43.274 65.5371C43.1214 65.7042 42.9508 65.8538 42.7653 65.9832H42.7105C42.6244 65.7171 42.4835 65.3884 42.4443 65.2866C42.3335 64.9514 42.15 64.6448 41.9069 64.3888C41.6637 64.1328 41.367 63.9337 41.0379 63.8058C40.7088 63.6779 40.3555 63.6244 40.0033 63.649C39.6511 63.6736 39.3087 63.7758 39.0006 63.9483C38.4036 64.3244 37.852 64.7682 37.357 65.271L36.5743 65.9597L36.4647 66.0537L36.269 65.6858C36.03 65.1757 35.8184 64.6532 35.6351 64.1205C35.5619 63.857 35.4209 63.6173 35.2263 63.4253C35.0317 63.2332 34.7901 63.0955 34.5257 63.0258C34.2613 62.9562 33.9832 62.957 33.7192 63.0282C33.4552 63.0994 33.2145 63.2385 33.021 63.4317L30.2347 65.6154C29.2485 64.3161 28.0275 62.876 26.4231 63.4552C25.5658 63.8912 24.7752 64.4473 24.075 65.1066L21.4452 67.1103C21.0976 67.3304 20.8468 67.6744 20.7436 68.0727C20.6404 68.471 20.6926 68.8936 20.8896 69.2548C21.0987 69.6123 21.441 69.8723 21.8415 69.978C22.242 70.0836 22.668 70.0262 23.0262 69.8183L25.5073 67.9243C26.016 67.5408 26.5248 67.079 27.0726 66.7033C27.7144 67.392 28.2858 68.2217 28.865 68.9182C29.1634 69.2029 29.56 69.3618 29.9725 69.3618C30.3849 69.3618 30.7815 69.2029 31.08 68.9182L33.428 67.079C33.9289 68.206 34.6176 69.2783 35.6586 69.56C36.1045 69.6575 36.5681 69.6366 37.0034 69.4993C37.4386 69.3619 37.8304 69.1131 38.1396 68.7774L39.2041 67.8538L39.8537 67.3529C39.9267 67.5729 40.0211 67.7852 40.1354 67.9869C40.3594 68.3661 40.6756 68.6827 41.0546 68.9071C41.4337 69.1315 41.8632 69.2565 42.3035 69.2705C43.1117 69.2724 43.9001 69.0206 44.5576 68.5504C44.9101 68.2889 45.2424 68.0011 45.5516 67.6894C45.8097 68.1603 46.1639 68.5716 46.5914 68.8966C47.0188 69.2215 47.5099 69.4529 48.0326 69.5757C48.6932 69.7023 49.3749 69.662 50.016 69.4584C50.657 69.2547 51.237 68.8942 51.7034 68.4095C52.2308 68.958 52.813 69.451 53.4409 69.8809C53.6212 69.9861 53.8207 70.0541 54.0277 70.081C54.2347 70.1078 54.445 70.093 54.6462 70.0375C54.8447 69.9831 55.0304 69.8902 55.1929 69.764C55.3554 69.6378 55.4914 69.4808 55.5932 69.3019C55.695 69.1231 55.7605 68.926 55.786 68.7218C55.8115 68.5176 55.7966 68.3105 55.7419 68.1121Z" fill="#1E1E1E"/>
<path d="M51.1476 78.772C42.9887 78.1095 34.7961 77.9632 26.6187 78.3337C24.6151 78.4277 24.5994 81.5583 26.6187 81.4644C34.7961 81.0938 42.9887 81.2402 51.1476 81.9027C53.1669 82.0671 53.1669 78.9286 51.1476 78.772Z" fill="#1E1E1E"/>
<path d="M45.1837 84.556L34.5785 84.7517C34.1634 84.7517 33.7652 84.9166 33.4717 85.2102C33.1781 85.5037 33.0132 85.9019 33.0132 86.317C33.0132 86.7322 33.1781 87.1304 33.4717 87.4239C33.7652 87.7175 34.1634 87.8824 34.5785 87.8824L45.1837 87.6867C45.5989 87.6867 45.9971 87.5218 46.2906 87.2282C46.5842 86.9347 46.7491 86.5365 46.7491 86.1214C46.7491 85.7062 46.5842 85.3081 46.2906 85.0145C45.9971 84.7209 45.5989 84.556 45.1837 84.556Z" fill="#1E1E1E"/>
<path d="M45.4107 55.2996L44.3619 56.3249L43.7905 55.4875C43.2661 54.7048 42.0217 54.337 41.3329 55.1744C40.9807 55.5971 40.6129 56.004 40.2372 56.411C40.1354 56.1841 40.0337 55.9493 39.9554 55.7145C39.883 55.4495 39.742 55.2082 39.5468 55.015C39.3516 54.8217 39.1089 54.6832 38.8432 54.6134C38.5775 54.5436 38.2981 54.5449 38.0331 54.6173C37.7681 54.6897 37.5268 54.8305 37.3335 55.0257C36.7648 55.6244 36.2267 56.2513 35.7212 56.9041C35.3142 56.4893 34.9385 56.0588 34.5393 55.6205C34.2946 55.3768 33.9762 55.2209 33.6336 55.177C33.291 55.1331 32.9435 55.2037 32.6453 55.3779C31.7266 56.062 30.8485 56.7989 30.0155 57.585C28.5519 58.9782 30.7982 61.1853 32.2305 59.8C32.567 59.4791 32.9114 59.166 33.2714 58.8608C33.7723 59.3852 34.2811 59.9096 34.8368 60.4261C35.0063 60.5951 35.2124 60.723 35.4391 60.7998C35.6657 60.8767 35.907 60.9005 36.1444 60.8695C36.3817 60.8386 36.6089 60.7535 36.8082 60.621C37.0076 60.4885 37.1738 60.3121 37.2943 60.1052C37.5448 59.7217 37.8187 59.3617 38.077 59.0017C38.2335 59.2521 38.4057 59.5026 38.5857 59.7843C38.7062 59.9912 38.8726 60.1676 39.0719 60.3001C39.2713 60.4326 39.4983 60.5177 39.7357 60.5487C39.973 60.5797 40.2144 60.5558 40.4411 60.4789C40.6678 60.4021 40.8738 60.2742 41.0434 60.1052C41.4738 59.7061 41.8808 59.3226 42.28 58.8686L42.7809 59.5887C42.9013 59.7955 43.0677 59.972 43.267 60.1045C43.4664 60.237 43.6935 60.322 43.9308 60.353C44.1682 60.384 44.4095 60.3601 44.6362 60.2833C44.8629 60.2064 45.0689 60.0785 45.2385 59.9096L47.5865 57.5616C49.0736 56.1058 46.8586 53.8908 45.4107 55.2996Z" fill="#FBB03B"/>
</svg>
