<svg width="80" height="80" viewBox="0 0 80 80" fill="none" xmlns="http://www.w3.org/2000/svg">
<g clip-path="url(#clip0_140_2832)">
<path d="M70.42 40.9561C64.7162 40.9561 64.7162 49.5814 70.42 49.5814C76.1237 49.5814 76.1679 40.9561 70.42 40.9561Z" fill="#00A99D"/>
<path d="M57.0081 23.7773C51.3191 23.7773 51.3044 32.4027 57.0081 32.4027C62.7119 32.4027 62.6529 23.7773 57.0081 23.7773Z" fill="#00A99D"/>
<path d="M32.6898 5.8076C25.1896 8.18492 18.3613 12.2361 12.7479 17.639C7.13445 23.0419 2.89063 29.6474 0.353743 36.9307C-2.13705 43.9316 9.19683 46.9935 11.7318 39.9926C13.6712 34.6154 16.8514 29.7451 21.027 25.757C25.2026 21.769 30.2619 18.77 35.8143 16.9918C42.9919 14.5911 39.9263 3.47876 32.6898 5.8076Z" fill="#00A99D"/>
<path d="M70.2726 17.3369C69.2738 16.4007 68.2154 15.5269 67.1038 14.7206C56.9786 7.31718 41.5328 5.47702 28.6809 10.1347C13.0435 15.8849 3.05079 31.1373 4.92256 46.5623C5.05521 47.7267 6.39643 48.1149 7.25125 47.9999C7.66896 47.9686 8.05883 47.7838 8.34188 47.4826C8.43748 47.3585 8.50638 47.2167 8.54437 47.066C8.58236 46.9153 8.58871 46.7586 8.56299 46.6055C7.85773 40.4249 9.01577 34.1778 11.8953 28.6294C14.7749 23.081 19.2509 18.4722 24.7752 15.3674C31.151 11.8514 38.4387 10.2229 45.7479 10.681C52.0335 10.9035 58.1421 12.7704 63.434 16.0862C75.8437 24.1509 77.6566 38.6416 75.4606 48.6039C73.7509 56.2373 70.361 62.0594 65.35 65.8546C60.02 69.6762 53.5562 71.6953 46.9417 71.6048H46.8533C31.2896 71.6048 18.1724 59.9318 17.5976 45.7288C17.5352 45.2948 17.3015 44.9016 16.9464 44.6331C16.5913 44.3646 16.1428 44.242 15.6963 44.2912H15.7406C15.3483 44.3024 14.9665 44.4166 14.6352 44.6218C14.4562 44.7501 14.3127 44.9196 14.2175 45.1153C14.1224 45.311 14.0785 45.5265 14.0899 45.7428C14.6352 59.5865 26.1459 71.8346 40.8548 74.2353C42.929 74.5794 45.0293 74.7526 47.1333 74.753C52.5368 74.7732 57.876 73.6087 62.7561 71.3458C69.4757 68.0734 74.6548 62.4146 77.2291 55.5327C82.6971 41.6746 80 26.7241 70.2726 17.3369Z" fill="#1E1E1E"/>
<path d="M37.3471 3.06182C45.1215 2.96779 52.8783 3.80806 60.4422 5.56332C60.6185 5.58292 60.7965 5.58292 60.9728 5.56332C61.3611 5.57388 61.7414 5.45389 62.05 5.22359C62.3585 4.99329 62.5766 4.66667 62.6677 4.29827C62.7125 4.10405 62.7153 3.90279 62.6762 3.70742C62.637 3.51205 62.5568 3.32677 62.4404 3.16324C62.324 2.99972 62.174 2.86158 62.0001 2.75753C61.8261 2.65348 61.6319 2.58571 61.4296 2.55871C53.5416 0.732993 45.4535 -0.140782 37.3471 -0.0431793C37.1036 -0.0536604 36.8604 -0.0157707 36.6324 0.0682523C36.4043 0.152275 36.1963 0.280628 36.0207 0.445541C35.7412 0.737871 35.5881 1.12405 35.5932 1.52371C35.5918 1.74108 35.6377 1.95627 35.7278 2.1551C35.8178 2.35392 35.9501 2.53182 36.1158 2.67716C36.2816 2.8225 36.477 2.93198 36.6892 2.99829C36.9015 3.0646 37.1256 3.0862 37.3471 3.06182Z" fill="#1E1E1E"/>
<path d="M71.6434 71.432C71.2995 71.2789 70.9211 71.2143 70.5444 71.2446C70.1677 71.2748 69.8052 71.3989 69.4915 71.6046C65.2746 74.3169 60.5274 76.1475 55.5491 76.9811C55.3397 76.9796 55.1324 77.0215 54.941 77.1043C54.7496 77.1871 54.5785 77.3085 54.439 77.4609C54.2996 77.6132 54.195 77.7928 54.1323 77.9877C54.0695 78.1825 54.0501 78.3882 54.0752 78.591C54.0969 78.8081 54.1643 79.0185 54.2734 79.209C54.3825 79.3995 54.5308 79.566 54.709 79.6979C55.0123 79.9134 55.3803 80.0246 55.7554 80.0141H56.1533C61.7684 79.0635 67.1191 76.9828 71.8645 73.9045C72.0306 73.7974 72.1698 73.6554 72.2718 73.4886C72.3739 73.3219 72.4361 73.1349 72.454 72.9415C72.4761 72.7286 72.4492 72.5136 72.3753 72.3122C72.3013 72.1107 72.1822 71.9278 72.0266 71.777C71.9194 71.642 71.7899 71.5254 71.6434 71.432Z" fill="#1E1E1E"/>
<path d="M28.3272 34.0557C28.1303 33.8829 27.893 33.76 27.6361 33.6974C27.3792 33.6347 27.1104 33.6342 26.8533 33.6963C26.665 33.7579 26.4972 33.8679 26.3676 34.0146C26.2379 34.1614 26.1511 34.3395 26.1164 34.5302C25.9556 35.2977 25.8571 36.0762 25.8217 36.8589V36.974C25.2899 40.4965 24.1328 43.9018 22.4024 47.0369C22.3136 47.1794 22.2552 47.3379 22.2308 47.503C22.2065 47.6681 22.2167 47.8363 22.2608 47.9975C22.3049 48.1586 22.3818 48.3094 22.4872 48.4407C22.5926 48.5721 22.7242 48.6814 22.874 48.7619C23.213 48.9395 23.6097 48.9809 23.9794 48.877C24.2937 48.798 24.5635 48.6017 24.731 48.3305C25.2026 47.4968 25.6448 46.6057 26.0722 45.6569C26.0722 45.5706 26.1901 45.513 26.3375 45.513C26.3903 45.5241 26.4384 45.551 26.4752 45.5895C26.5121 45.628 26.5361 45.6767 26.5439 45.7288C26.8534 48.6039 27.2218 51.4789 27.6787 54.5409C27.6863 54.5975 27.6746 54.655 27.6453 54.7044C27.616 54.7538 27.5707 54.7922 27.5166 54.8139C26.8239 55.0871 26.0427 55.4036 25.2174 55.7773C25.0773 55.8466 24.9538 55.9438 24.8548 56.0627C24.7557 56.1815 24.6834 56.3194 24.6426 56.4673C24.5848 56.6349 24.5642 56.8122 24.582 56.9882C24.5998 57.1641 24.6556 57.3346 24.7457 57.4879C24.8679 57.6799 25.0399 57.8367 25.2445 57.9428C25.449 58.0488 25.6787 58.1002 25.9101 58.0916C26.1598 58.0905 26.4061 58.0367 26.6323 57.9337C29.6014 56.5469 32.7575 55.5789 36.0059 55.0586C36.0977 55.0545 36.1876 55.0851 36.2564 55.1445C36.6014 55.6101 37.0414 56.0013 37.5486 56.2933C38.0559 56.5852 38.6195 56.7717 39.2041 56.8411C43.0508 57.1717 45.2763 52.6433 45.9101 50.185C46.1222 49.3364 46.2505 48.4699 46.2933 47.5974C46.295 47.5439 46.3147 47.4926 46.3493 47.451C46.3839 47.4095 46.4315 47.3801 46.4849 47.3675C46.5401 47.3531 46.5987 47.3566 46.6518 47.3773C46.705 47.398 46.7498 47.435 46.7797 47.4826C48.504 50.4583 50.6854 51.6369 53.073 50.8607C54.2784 50.4589 55.3144 49.6808 56.0207 48.6468V48.5464C57.057 46.9432 57.6228 45.0936 57.6566 43.1987C57.695 41.6979 57.4224 40.2048 56.8551 38.8092C56.2878 37.4135 55.4375 36.1438 54.3552 35.0763C53.7206 34.4015 52.9329 33.8812 52.055 33.5566C51.1772 33.2321 50.2337 33.1124 49.3 33.2074C48.5991 33.3171 47.9426 33.6126 47.402 34.0613C46.8614 34.51 46.4575 35.0947 46.2343 35.7519C46.2227 35.787 46.2036 35.8194 46.1782 35.8467C46.1528 35.874 46.1217 35.8956 46.087 35.9102C45.9132 35.9721 45.757 36.0736 45.6315 36.2061C45.5059 36.3386 45.4144 36.4983 45.3647 36.6722C45.1358 37.8769 45.0125 39.0985 44.9963 40.3236C44.9934 40.378 44.9731 40.4299 44.9381 40.4724C44.903 40.5149 44.8551 40.5455 44.8012 40.5598C44.7472 40.5741 44.6901 40.5717 44.6378 40.5524C44.5855 40.5332 44.5408 40.4983 44.51 40.4528C44.1048 39.6764 43.5437 38.9876 42.8601 38.427C42.1765 37.8664 41.3843 37.4455 40.5306 37.1895C39.9619 37.0562 39.3702 37.0464 38.7971 37.1607C38.2241 37.275 37.6838 37.5104 37.2145 37.8507C37.1692 37.8882 37.1117 37.909 37.0524 37.909C36.993 37.909 36.9354 37.8882 36.8902 37.8507C36.688 37.6875 36.4488 37.5737 36.1925 37.5187C35.9361 37.4637 35.6701 37.4691 35.4163 37.5345C35.2123 37.5884 35.0256 37.692 34.8735 37.8353C34.7215 37.9785 34.6091 38.1569 34.5468 38.354C33.3618 41.8728 33.1183 45.6288 33.8394 49.2652C34.0471 50.3534 34.3377 51.4249 34.7089 52.4709C34.7236 52.5025 34.7311 52.5366 34.7311 52.5713C34.7311 52.606 34.7236 52.6404 34.7089 52.672C34.6907 52.7047 34.6655 52.7332 34.635 52.7555C34.6044 52.7778 34.5693 52.7936 34.5321 52.8015C33.1796 53.0488 31.8415 53.3654 30.5233 53.7502C30.4892 53.7678 30.4512 53.7772 30.4127 53.7772C30.3742 53.7772 30.3362 53.7678 30.3021 53.7502C30.272 53.7316 30.2468 53.7065 30.2288 53.6765C30.2109 53.6464 30.2006 53.6126 30.199 53.5778C29.7421 50.4871 29.3884 47.6838 29.1083 44.9525C28.9462 43.3568 28.7989 41.761 28.681 40.1653V39.4753C28.4674 38.079 28.4674 36.6597 28.681 35.2634C28.7412 35.0498 28.74 34.8239 28.6776 34.6109C28.6152 34.398 28.494 34.206 28.3272 34.0557ZM38.644 39.9498C38.682 39.8537 38.7435 39.7679 38.8231 39.7003C38.9028 39.6326 38.9981 39.5852 39.1009 39.5617C39.6946 39.5159 40.2854 39.6788 40.7664 40.0214C41.6833 40.7872 42.3709 41.7807 42.7561 42.8965C43.6882 45.0792 43.8438 47.5035 43.1982 49.7825C42.895 50.8841 42.3962 51.9255 41.7244 52.8591C40.8696 54.0378 39.9411 54.5697 39.1747 54.2966C38.9314 54.2026 38.7106 54.0607 38.5262 53.8797C38.4938 53.8357 38.4764 53.7829 38.4764 53.7287C38.4764 53.6746 38.4938 53.6218 38.5262 53.5778V53.4771C38.4838 53.2716 38.3959 53.0778 38.2686 52.9089C38.1413 52.74 37.9777 52.6004 37.7893 52.4997C37.7398 52.4704 37.703 52.4242 37.6861 52.3702L37.4945 51.9244C36.9975 50.6402 36.6322 49.3112 36.4039 47.9568C36.0468 45.6711 36.1317 43.3404 36.6544 41.0852C36.6746 41.0212 36.7161 40.9658 36.7723 40.9273H36.9049L36.9933 40.6542V40.9704C37.3494 41.0354 37.7176 40.9702 38.0276 40.7872C38.3375 40.6043 38.5674 40.3165 38.6735 39.9786L38.644 39.9498ZM47.9145 37.7359C47.9225 37.6976 47.9383 37.6614 47.9611 37.6292C47.9839 37.5971 48.0132 37.5696 48.0471 37.5489C48.2599 37.465 48.443 37.3224 48.5739 37.1386C48.7048 36.9547 48.7778 36.7376 48.7841 36.5139C48.7863 36.4067 48.8142 36.3016 48.8654 36.2068C48.9165 36.112 48.9896 36.0302 49.0788 35.9678C49.4237 35.6983 49.8621 35.5695 50.3022 35.6084C51.4204 35.8469 52.3958 36.5088 53.014 37.4485C54.2965 39.045 54.9688 41.0273 54.9153 43.0548C54.9153 44.9955 54.2078 47.5543 52.4245 48.3449C52.2043 48.4413 51.9657 48.4913 51.7244 48.4913C51.483 48.4913 51.2445 48.4413 51.0243 48.3449C49.5505 47.7412 48.6367 45.3551 48.3862 44.6363C47.6523 42.4178 47.5002 40.0553 47.944 37.7647L47.9145 37.7359Z" fill="#1E1E1E"/>
<path d="M54.6942 27.9751C54.4486 28.3107 54.275 28.6913 54.1838 29.0939C54.0926 29.4966 54.0858 29.9128 54.1636 30.3181C54.3947 31.0435 54.8315 31.6903 55.4235 32.1838C56.0155 32.6773 56.7387 32.9977 57.5093 33.1072C57.8522 33.1861 58.2034 33.2245 58.5557 33.222C59.158 33.233 59.7527 33.0891 60.28 32.8051C61.0107 32.3882 61.5648 31.7309 61.8424 30.9509C62.0304 30.1554 62.0092 29.3262 61.7808 28.5408C61.5525 27.7554 61.1244 27.039 60.5362 26.4582C59.9481 25.8774 59.219 25.451 58.4167 25.2186C57.6144 24.9861 56.7649 24.9553 55.947 25.1287C55.6139 25.2137 55.3276 25.4215 55.1488 25.7085C54.9701 25.9956 54.9128 26.3395 54.989 26.667C55.0423 26.8109 55.1168 26.9462 55.2101 27.0692C55.2569 27.115 55.2832 27.1772 55.2832 27.2419C55.2832 27.3066 55.2569 27.3684 55.2101 27.4142C55.0275 27.5915 54.8552 27.7789 54.6942 27.9751ZM58.084 28.2769L58.1724 28.1762C58.2194 28.1305 58.283 28.1049 58.3493 28.1049C58.4156 28.1049 58.4793 28.1305 58.5262 28.1762L58.6883 28.3345L58.9536 28.6795C59.0415 28.8007 59.1155 28.9308 59.1746 29.0676C59.1804 29.1009 59.1804 29.135 59.1746 29.1683C59.2226 29.2902 59.262 29.4151 59.2926 29.5421V29.8152V29.9875C59.2975 30.016 59.2975 30.0453 59.2926 30.0738V30.1746C59.295 30.2081 59.295 30.2418 59.2926 30.2753V30.4044C59.2926 30.4044 59.2926 30.4045 59.2926 30.4764L59.1746 30.5771H59.0568C58.965 30.6003 58.8686 30.6003 58.7768 30.5771H58.482H58.2756L57.8482 30.4476H57.6861L57.4209 30.3037H57.3323C57.2846 30.288 57.2433 30.258 57.2145 30.2177H57.1408C57.121 30.2098 57.1028 30.1978 57.0877 30.183C57.0725 30.1682 57.0606 30.1508 57.0524 30.1314L56.9492 29.9443V29.7432V29.5993V29.5133L57.1261 29.2399L57.2439 29.1252L57.4209 28.9525L58.084 28.2769Z" fill="#1E1E1E"/>
<path d="M66.9123 23.5183C66.6656 23.4152 66.3928 23.3877 66.1297 23.439C65.8665 23.4903 65.6255 23.6184 65.4384 23.8061L65.3206 23.9496C65.2533 24.0513 65.2034 24.1629 65.1732 24.2803C63.0066 33.0206 60.7517 41.8328 58.2904 50.4581C58.2256 50.6542 58.2174 50.8642 58.2668 51.0646C58.3162 51.2649 58.4212 51.4479 58.5704 51.5938C58.8732 51.8725 59.2742 52.027 59.6905 52.0252C59.8179 52.0393 59.9464 52.0393 60.0737 52.0252C60.2792 51.9709 60.4658 51.8635 60.6137 51.7142C60.7617 51.5649 60.8654 51.3791 60.9138 51.1769C63.1541 43.1409 65.3353 34.7314 67.4871 26.1923L67.7966 25.0134C67.8411 24.8586 67.8533 24.6967 67.8327 24.5372C67.8121 24.3777 67.7592 24.2237 67.6768 24.0844C67.5945 23.9452 67.4843 23.8237 67.3531 23.7264C67.2218 23.6292 67.0719 23.5583 66.9123 23.5183Z" fill="#1E1E1E"/>
<path d="M65.7038 48.9773C66.0347 49.333 66.437 49.6187 66.8857 49.8165C67.3344 50.0143 67.82 50.1202 68.3124 50.1274C68.8455 50.0785 69.3605 49.9139 69.8196 49.6452C70.2787 49.3765 70.6702 49.0109 70.9653 48.5751C71.4868 47.834 71.8385 46.9917 71.9962 46.1061C72.1539 45.2204 72.114 44.3122 71.8792 43.4429C71.6201 42.633 71.1541 41.9006 70.5251 41.3147C69.896 40.7287 69.1244 40.3084 68.283 40.0933C67.7228 39.9301 67.13 39.904 66.5568 40.0168C65.9837 40.1296 65.4478 40.3778 64.9963 40.7402C64.6333 41.1272 64.3527 41.5807 64.1706 42.0742C63.9884 42.5677 63.9084 43.0914 63.9351 43.6153C63.9386 43.8395 64.0068 44.0585 64.132 44.2467C64.2571 44.4348 64.4341 44.5845 64.6426 44.679C64.6926 44.7106 64.731 44.7571 64.7522 44.8114C64.7734 44.8657 64.7763 44.9252 64.7605 44.9812C64.5653 45.6714 64.5492 46.3981 64.7139 47.0958C64.8786 47.7935 65.2188 48.4399 65.7038 48.9773ZM67.3397 46.2317V46.1022V45.9443C67.3336 45.911 67.3336 45.8768 67.3397 45.8436V45.6425L67.4134 45.4698L67.5461 45.2399C67.6337 45.0964 67.6907 44.9369 67.7135 44.7714C67.7363 44.6058 67.7244 44.4378 67.6787 44.2768C67.6325 44.1062 67.5476 43.9476 67.4302 43.8132C67.3129 43.6789 67.1661 43.5721 67.0008 43.5005H66.8386C66.7812 43.4868 66.7313 43.4526 66.6985 43.4047C66.6658 43.3568 66.6526 43.2984 66.6617 43.2415V43.1267C66.6962 42.9756 66.7405 42.8267 66.7944 42.681L67.0008 42.5947H67.3986L67.6787 42.6666H67.8703L68.1798 42.8249L68.3567 42.9541C68.4654 43.0336 68.5644 43.1252 68.6515 43.2271L69.0493 43.7736V43.9031C69.0493 43.9031 69.0493 44.0178 69.0493 44.0322C69.0935 44.154 69.128 44.279 69.1525 44.406V44.5931C69.1525 44.5931 69.1525 44.7222 69.1525 44.7366C69.1673 44.9328 69.1673 45.13 69.1525 45.3262V45.5273C69.1525 45.743 69.1525 45.8437 69.0493 45.9587C68.9462 46.0737 68.9757 46.2175 68.9315 46.3468L68.8283 46.5911V46.6918L68.6367 47.0368L68.4746 47.3099L68.3124 47.4538H68.1356H67.9735H67.8555H67.7818L67.6787 47.3531L67.5902 47.2667L67.4871 47.1232L67.3839 46.9505C67.3456 46.8824 67.3159 46.8101 67.2955 46.735V46.6631C67.2729 46.6027 67.2729 46.5364 67.2955 46.476C67.2894 46.4235 67.2894 46.3706 67.2955 46.3181V46.2317H67.3397Z" fill="#1E1E1E"/>
</g>
<defs>
<clipPath id="clip0_140_2832">
<rect width="80" height="80" fill="white"/>
</clipPath>
</defs>
</svg>
