<svg width="80" height="80" viewBox="0 0 80 80" fill="none" xmlns="http://www.w3.org/2000/svg">
<path d="M1.29752 79.1803L61.5385 79.8203L78.6987 80.0003C80.4287 80.0203 80.4388 77.2403 78.6987 77.2203C58.6184 77.0003 38.5381 76.7903 18.4578 76.5803C12.7377 76.5203 7.01761 76.4603 1.29752 76.4003C-0.432507 76.3803 -0.432507 79.1603 1.29752 79.1803Z" fill="#1E1E1E"/>
<path d="M70.0285 27.9458C69.2885 28.5057 69.0185 29.5756 69.1985 30.5155C69.5585 32.3353 71.5785 33.5552 73.3285 33.1252C75.0785 32.6853 76.3185 30.7955 76.2085 28.9357C76.1985 28.7257 76.1685 28.5157 76.1185 28.3057C75.7785 26.7059 74.5485 25.3461 73.0285 24.8261C71.3185 24.2362 69.3585 24.6862 67.9385 25.826C68.0385 25.746 65.3085 22.6464 65.0485 22.3764C64.5185 21.8265 63.9685 21.2965 63.3985 20.7866C63.0685 20.4866 62.7785 20.1367 62.3885 19.9167C62.0985 19.7567 61.7585 19.6767 61.4285 19.7267C61.0985 19.7867 60.7985 19.9967 60.6585 20.3166C60.2885 21.1566 61.3185 21.6265 61.7885 22.0764C62.3285 22.5964 62.8485 23.1563 63.3385 23.7363C64.3285 24.8961 65.2385 26.126 66.1485 27.3559C66.4385 27.7358 66.7485 28.1458 67.1885 28.3057C68.0585 28.6157 68.9085 27.8758 69.7085 27.4158C70.6385 26.8759 71.8185 26.6759 72.7785 27.1459C73.7385 27.6158 74.3585 28.8757 73.9485 29.8956C73.5285 30.9155 71.9785 31.2554 71.3385 30.3655C72.2585 30.4555 72.9085 29.1657 72.4385 28.3457C71.9785 27.5158 70.7685 27.3859 70.0285 27.9458Z" fill="#1E1E1E"/>
<path d="M30.8978 61.1523C30.9578 61.1523 31.0078 61.1323 31.0478 61.1223C31.1678 61.1323 31.2878 61.1423 31.4078 61.1523C31.4378 61.1523 31.4578 61.1723 31.4878 61.1723C31.5678 61.1723 31.6478 61.1823 31.7278 61.1823C31.8878 60.7423 31.8778 60.2324 31.9278 59.7724C32.7278 59.8424 33.6878 60.4423 34.5478 60.6223C36.3878 60.9923 38.2678 61.1623 40.1378 61.0823C42.0078 61.0123 43.8778 60.7223 45.6878 60.2124C46.5878 59.9624 47.4778 59.6524 48.3478 59.2825C48.7778 59.1025 49.2078 58.9125 49.6378 58.7025C49.8678 58.5926 50.0878 58.4826 50.3078 58.3626C50.3678 58.4226 50.4378 58.4926 50.5278 58.5426C50.6078 59.5924 51.2378 60.4823 52.0778 61.0523C52.3278 61.0423 52.5878 61.0423 52.8678 61.0423C53.1378 61.0523 53.4078 61.0523 53.6478 61.0423C53.9578 61.0323 54.2778 61.0223 54.5878 61.0023C54.6178 61.0023 54.6378 60.9823 54.6678 60.9823C54.7878 60.9723 54.9078 60.9623 55.0278 60.9523C55.0778 60.9623 55.1278 60.9823 55.1778 60.9823C56.8378 60.9723 58.4878 60.8423 60.1478 60.7823C60.7278 60.4123 61.1578 59.8524 61.4278 59.2125C62.1378 57.5327 61.7978 55.3929 61.9578 53.6031C61.9778 53.4231 61.9978 53.2432 62.0678 53.0832C62.1778 52.8232 62.4078 52.6332 62.6278 52.4532C63.6178 51.6633 64.5778 50.9234 65.4178 49.9635C66.3978 48.8336 67.2478 47.5838 67.9378 46.2439C68.9778 44.2042 69.7478 41.8544 70.1578 39.5847C70.5278 37.5649 70.3178 35.6751 69.9278 33.6853C69.8178 33.0954 69.1378 32.7555 68.5978 32.9054C68.0078 33.0754 67.7278 33.6853 67.8478 34.2753C68.0578 35.3752 68.2778 36.485 68.2578 37.6149C68.2378 38.6548 67.9678 39.6647 67.6778 40.6546C67.1578 42.4744 66.5878 44.2442 65.6478 45.874C64.7878 47.3638 63.7078 48.6937 62.4478 49.8435C61.8478 50.3935 61.1878 50.8334 60.5478 51.3234C59.6578 52.0033 59.7178 53.4031 59.6978 54.443C59.6578 56.2928 60.1978 58.8425 57.8878 59.2425C56.6278 59.4525 55.2878 59.7524 54.0078 59.4925C53.7078 59.4325 53.3978 59.3325 53.1578 59.1225C52.1878 58.2726 52.5778 56.3928 51.0778 55.9628C49.9878 55.6429 48.7278 56.7128 47.7578 57.1227C45.9778 57.8826 44.0878 58.4026 42.1778 58.6625C40.2678 58.9225 38.3078 58.9225 36.3978 58.6725C35.3278 58.5326 34.1778 58.4326 33.2078 57.9126C32.2778 57.4227 31.7478 55.7829 30.5278 56.6728C30.0778 57.0027 29.8278 57.5627 29.7578 58.1326C29.6878 58.7025 29.7578 59.2725 29.8378 59.8324C28.0378 59.9224 26.2178 59.7724 24.4578 59.3725C24.3678 59.3525 24.2578 59.3225 24.1978 59.2525C24.1378 59.1725 24.1378 59.0625 24.1378 58.9625L24.1478 55.9029C24.1478 55.2829 24.1378 54.543 23.7978 54.0131C23.4278 53.4231 22.6078 53.0532 22.0578 52.6432C20.6678 51.6333 19.2778 50.5934 18.0978 49.3236C17.2478 48.4137 16.5178 47.3838 15.9178 46.2839C15.6178 45.724 15.3478 45.1441 15.1178 44.5441C14.8678 43.8942 14.6478 43.3343 13.9378 43.1443C13.5778 43.0443 13.1878 43.0543 12.8178 43.0643L11.3678 43.0943C11.2978 43.0943 11.2278 43.0943 11.1778 43.0543C11.1378 43.0243 11.1178 42.9743 11.0978 42.9243C10.9078 42.4444 10.7678 41.9544 10.6678 41.4445C10.6378 41.2845 10.4278 39.5147 10.5178 39.5047C10.9778 39.4847 11.4378 39.1947 11.5278 38.7048C11.7778 37.3749 12.0678 36.0551 12.3878 34.7452C12.5178 34.2253 12.2578 33.6254 11.7778 33.4254C11.8678 33.1454 11.9578 32.8654 12.0478 32.5855C12.2178 32.0555 12.3178 31.4256 12.6878 30.9956C13.4278 30.1457 14.6878 31.3156 15.5878 30.9956C15.9478 30.8657 16.2178 30.5457 16.3978 30.1957C16.6578 29.6958 16.7778 29.1259 17.0778 28.6459C17.5278 27.926 17.9478 27.1861 18.4078 26.4762C19.5778 24.6564 20.8778 22.9266 22.2778 21.2967C22.3478 21.2167 22.4178 21.1368 22.4878 21.0568C23.0578 20.3968 23.6778 19.7169 23.8478 18.847C23.9578 18.2871 23.8678 17.7171 23.7678 17.1572C23.3778 15.0474 22.7678 12.9877 21.9478 11.0179C23.5478 10.6979 25.2878 11.4178 26.2478 12.7777C26.9278 13.7476 27.2178 14.9774 27.9478 15.9173C28.6778 16.8572 30.1878 17.3572 30.9578 16.4573C31.0078 16.3973 31.2578 18.3371 31.2578 18.5071C31.2578 19.237 31.3378 19.9269 31.8678 20.4668C32.1278 20.7368 32.5378 20.8868 32.8778 20.7668C33.1978 20.6468 33.4178 20.3168 33.4878 19.9669C33.7778 18.617 33.2678 16.7772 32.9578 15.4574C32.7778 14.6775 32.5578 13.9076 32.2978 13.1477C32.1978 12.8577 31.6678 10.9679 31.4078 10.9179C33.2978 11.2279 35.0078 12.5577 35.8278 14.3475C36.1678 15.0874 36.4178 15.9673 37.0978 16.3873C37.7878 16.7972 38.9478 16.0873 38.5578 15.3674C39.8478 15.2374 41.1378 15.1474 42.4378 15.1774C42.6278 15.1774 42.8178 15.1874 42.9978 15.1074C43.1878 15.0174 43.3278 14.8475 43.4678 14.6775C43.8078 14.2475 44.0478 13.5176 43.4878 13.1577C43.2978 13.0377 43.0778 12.9877 42.8578 12.9577C41.9178 12.8277 40.9378 12.8977 39.9978 13.0177C39.5778 13.0677 39.1578 13.1477 38.7378 13.2376C38.5978 13.2676 37.9478 13.4876 37.8478 13.3376C36.2878 10.6679 33.5178 8.46818 30.5178 8.74815C29.7578 8.81814 28.8678 9.22809 28.8078 10.008C28.7878 10.328 28.9078 10.6379 29.0278 10.9279C29.4978 12.0478 29.9578 13.1677 30.4278 14.2875C30.1778 14.3875 29.9378 14.4775 29.6878 14.5775C28.9478 12.7977 27.8678 11.1079 26.3378 9.97801C24.8078 8.84814 22.7978 8.32819 21.0078 8.91813C20.5178 9.07811 20.0078 9.36808 19.8278 9.86802C19.6778 10.278 19.7878 10.7379 19.8978 11.1679C20.5478 13.6276 21.1878 16.0873 21.8378 18.547C18.9978 21.5767 16.5478 25.0063 14.6178 28.7259C14.6778 28.6059 13.0778 28.5759 12.9278 28.6059C12.3378 28.7359 11.7778 29.0259 11.3278 29.4458C10.2878 30.4057 9.93783 32.0455 9.52783 33.3654C9.19783 34.4253 8.89783 35.4851 8.69783 36.565C8.29783 38.6048 8.19783 40.7546 8.75783 42.7843C9.02783 43.7442 9.39783 44.9641 10.4378 45.264C10.9378 45.414 11.5078 45.344 12.0178 45.344C12.3778 45.344 12.7378 45.344 13.1078 45.334C13.8878 47.3538 15.0078 49.2036 16.4478 50.7934C17.9978 52.5032 19.8978 53.7931 21.7178 55.1629C21.7978 55.2229 21.8878 55.2929 21.9278 55.3829C21.9778 55.4829 21.9778 55.6029 21.9778 55.7229C21.9678 56.8028 21.9578 57.8826 21.9578 58.9725C21.9478 59.9824 22.1478 60.5923 22.6278 60.9923C22.9678 60.9823 23.3078 60.9723 23.6478 60.9623C26.0878 60.8523 28.4778 61.1323 30.8978 61.1523Z" fill="#1E1E1E"/>
<path d="M71.7988 26.926C71.9088 26.946 71.8488 26.936 71.7988 26.926V26.926Z" fill="#1E1E1E"/>
<path d="M20.7577 31.4555C20.2777 31.4755 19.7577 31.5755 19.3477 31.8555C18.9077 32.1555 18.5277 32.6155 18.4077 33.1655C18.3877 33.2655 18.3777 33.3655 18.3677 33.4555C18.1677 33.8855 18.1277 34.3855 18.2277 34.8555C18.4677 35.9655 19.6377 36.4855 20.6377 36.5455C21.5877 36.5955 22.4877 36.1055 23.0377 35.3055C23.5577 34.5455 23.5577 33.5155 23.1577 32.7055C22.6977 31.8155 21.6877 31.4255 20.7577 31.4555Z" fill="#1E1E1E"/>
<path d="M53.2083 17.0176C53.3883 16.8976 53.5883 16.6176 53.4483 16.3676C53.2783 16.0676 52.8783 15.9176 52.5583 15.7976L52.4783 15.7676C52.3183 16.2076 52.1683 16.6476 52.0083 17.0876C52.2883 17.1876 52.8083 17.2976 53.2083 17.0176Z" fill="#00A99D"/>
<path d="M52.1184 12.8277C52.1784 12.6777 52.2384 12.5277 52.2884 12.3777C52.2684 12.3777 52.2484 12.3777 52.2284 12.3777C51.9784 12.3777 51.6184 12.4377 51.5584 12.7977C51.5084 13.0677 51.5984 13.4377 51.7784 13.7377C51.8884 13.4277 52.0084 13.1277 52.1184 12.8277Z" fill="#00A99D"/>
<path d="M48.9983 19.0273C49.3583 19.3073 49.7483 19.5473 50.1483 19.7472C50.7083 19.8872 51.2783 20.0472 51.8283 20.2172C52.0483 20.2872 52.2783 20.3572 52.5083 20.4272C52.8183 20.4572 53.1083 20.4872 53.3883 20.5072C53.3983 20.5072 53.4183 20.5072 53.4283 20.5072C54.5783 20.5771 55.3183 20.4172 55.9683 19.9472C56.7483 19.3973 57.7983 18.5274 58.0483 17.3375C58.1283 16.9376 58.1683 16.4976 58.1683 16.0377C58.1683 15.2977 58.0583 14.5278 57.8483 13.7279C57.6183 12.868 57.2483 12.0681 56.7483 11.3682C56.3183 10.7682 55.8083 10.2683 55.2483 9.86835C55.1883 9.83835 55.1283 9.80836 55.0583 9.77836C53.6283 9.10843 51.9783 8.46851 50.4883 9.22842C49.1683 9.90834 48.2283 11.2582 47.6283 12.588C47.0583 13.8879 46.9083 15.3877 47.2083 16.7576C47.4883 17.3775 47.8783 17.9674 48.3883 18.4874C48.5983 18.6874 48.7983 18.8673 48.9983 19.0273ZM49.4583 15.9077C49.5583 15.5777 49.8483 15.4077 50.1783 15.4777C50.4783 15.5377 50.7583 15.7877 50.7583 16.1476L50.8183 16.2076C50.8383 16.2276 50.8583 16.2576 50.8783 16.2776L50.9483 16.0877C51.0583 15.7777 51.1683 15.4577 51.2783 15.1478C51.2083 15.0978 51.1383 15.0378 51.0683 14.9778C50.6983 14.6178 50.4183 14.0879 50.2883 13.4779C50.1583 12.868 50.2583 12.2581 50.5883 11.7981C50.8983 11.3582 51.3783 11.0782 51.9383 11.0282C52.2083 10.9982 52.4883 11.0182 52.8083 11.0882C52.8483 10.9782 52.8883 10.8682 52.9283 10.7582C52.9883 10.5883 53.0583 10.4183 53.1183 10.2583C53.2083 10.0283 53.3983 9.87835 53.6383 9.83835C53.8983 9.79836 54.1783 9.90834 54.3283 10.1183C54.4583 10.2883 54.4783 10.5083 54.3983 10.7183C54.3283 10.8882 54.2683 11.0582 54.2083 11.2182C54.1683 11.3282 54.1283 11.4282 54.0883 11.5382C54.5183 11.7581 54.8183 11.9981 55.0483 12.2981C55.2783 12.618 55.2583 13.018 54.9783 13.258C54.8383 13.378 54.6483 13.4379 54.4583 13.408C54.2783 13.388 54.1283 13.308 54.0283 13.168C53.9283 13.038 53.7983 12.918 53.6083 12.798C53.5383 12.978 53.4783 13.148 53.4083 13.328C53.2583 13.7179 53.1083 14.1079 52.9683 14.4978C53.0983 14.5478 53.2283 14.5978 53.3483 14.6478C54.0483 14.9578 54.5783 15.4777 54.7883 16.0377C54.9383 16.4476 54.9183 16.8676 54.7283 17.2875C54.1883 18.4874 52.8183 18.7174 51.7783 18.4274C51.7183 18.4074 51.6683 18.3874 51.6083 18.3674L51.5883 18.4174C51.5683 18.4674 51.5483 18.5274 51.5283 18.5774C51.4483 18.8073 51.2883 18.9573 51.0583 19.0073C51.0183 19.0173 50.9683 19.0173 50.9283 19.0173C50.7183 19.0173 50.4983 18.9173 50.3583 18.7574C50.2083 18.5774 50.1783 18.3574 50.2483 18.1274C50.2783 18.0274 50.3183 17.9374 50.3483 17.8375C50.3683 17.7775 50.3883 17.7175 50.4083 17.6575C50.3783 17.6275 50.3383 17.5975 50.3083 17.5675C49.8583 17.1975 49.2283 16.6276 49.4583 15.9077Z" fill="#00A99D"/>
<path d="M48.7483 19.367C48.5283 19.1971 48.3183 19.0071 48.1183 18.7971C47.6883 18.1872 47.3883 17.4972 47.2283 16.7673C46.7683 15.7174 46.6483 14.5876 46.9183 13.5377C47.1183 12.7878 47.4583 12.0978 47.9183 11.2879C48.2183 10.748 48.5583 10.1381 48.9983 9.67812C49.8683 8.77822 51.1783 8.69823 52.4483 8.61824C52.4583 8.61824 52.4783 8.61824 52.4883 8.61824C52.5183 8.61824 52.5583 8.60824 52.5883 8.59824C52.7483 8.80822 52.9583 8.9482 53.2183 8.9982C53.9383 9.13818 54.6283 9.44815 55.2483 9.8881C55.9183 10.2181 56.5483 10.628 57.0783 11.128C57.5983 11.8579 57.9983 12.6978 58.2483 13.6277C58.4683 14.4576 58.5783 15.2775 58.5783 16.0474C58.5383 16.2674 58.4783 16.4974 58.4183 16.7173C58.5683 17.6172 57.9583 18.1972 57.5983 18.9771C57.5083 19.1871 57.3283 19.277 57.1383 19.297C57.0883 19.357 57.0483 19.427 56.9883 19.487C56.4783 20.027 55.7783 20.3769 55.0783 20.6169C54.6783 20.7569 54.2683 20.8469 53.8483 20.8969C54.7083 21.2168 55.5883 21.5768 56.4483 22.0167C57.7683 21.3268 58.9883 20.1469 59.5783 18.9371C60.1483 17.7872 60.2783 16.2174 59.9783 14.2876C59.4583 10.988 57.3483 8.30827 54.4683 7.27839C54.1183 7.1584 53.7883 7.05841 53.4683 6.99842C53.3383 6.96842 53.1983 6.96842 53.0683 6.99842C52.9183 6.79844 52.7383 6.70845 52.6083 6.65846C52.4683 6.60846 52.3283 6.59847 52.1983 6.60846C50.6383 6.69845 49.1483 6.86844 47.9383 7.90832C46.9383 8.75822 46.0583 10.1681 45.3083 12.0779C45.2183 12.3178 45.1383 12.5578 45.0683 12.8278C45.0583 12.8678 45.0483 12.9178 45.0583 12.9678C45.0283 13.0677 44.9983 13.1777 44.9683 13.2777L45.0183 13.2877C45.0083 13.2977 44.9983 13.3077 44.9883 13.3177L44.9583 13.3077C44.9483 13.3277 44.9483 13.3477 44.9383 13.3777C44.9383 13.3877 44.9383 13.3977 44.9283 13.4077C44.9183 13.4277 44.9083 13.4577 44.9083 13.4777C44.8283 13.8077 44.7783 14.1476 44.7583 14.4876C44.7583 14.4976 44.7583 14.5376 44.7583 14.5476C44.7583 14.5776 44.7583 14.6176 44.7583 14.6276L44.7683 14.9175C44.7683 15.0075 44.7983 15.0775 44.8483 15.1475C44.8483 15.1875 44.8583 15.2175 44.8583 15.2475C44.8683 15.3675 44.8883 15.4875 44.9083 15.5975C45.0783 16.7873 45.5383 17.9372 46.2583 18.9371C47.1283 19.0671 47.9983 19.217 48.8483 19.407C48.8183 19.417 48.7883 19.397 48.7483 19.367Z" fill="#1E1E1E"/>
<path d="M56.9983 19.4866C57.0583 19.4266 57.0983 19.3566 57.1483 19.2966C57.3383 19.2766 57.5083 19.1767 57.6083 18.9767C57.9683 18.2068 58.5783 17.6268 58.4283 16.7169C58.4983 16.487 58.5483 16.267 58.5883 16.047C58.5883 15.2771 58.4783 14.4472 58.2583 13.6273C58.0183 12.7074 57.6083 11.8575 57.0883 11.1276C56.5683 10.6276 55.9283 10.2177 55.2583 9.8877C55.8183 10.2877 56.3283 10.7876 56.7583 11.3875C57.2583 12.0874 57.6283 12.8774 57.8583 13.7473C58.0683 14.5372 58.1783 15.3171 58.1783 16.057C58.1783 16.517 58.1383 16.9569 58.0583 17.3569C57.8083 18.5467 56.7583 19.4166 55.9783 19.9666C55.3283 20.4365 54.5883 20.6065 53.4383 20.5265C53.4283 20.5265 53.4083 20.5265 53.3983 20.5265C53.1183 20.5065 52.8183 20.4765 52.5183 20.4465C52.9583 20.5865 53.4083 20.7465 53.8683 20.9165C54.2883 20.8665 54.6983 20.7765 55.0983 20.6365C55.7883 20.3765 56.4883 20.0266 56.9983 19.4866Z" fill="#1E1E1E"/>
<path d="M48.9983 19.0273C48.7983 18.8673 48.5983 18.6873 48.4183 18.4973C47.9083 17.9773 47.5183 17.3873 47.2383 16.7673C47.3983 17.4973 47.6983 18.1973 48.1283 18.7973C48.3183 18.9973 48.5283 19.1873 48.7583 19.3673C48.7883 19.3973 48.8283 19.4173 48.8583 19.4373C49.2883 19.5273 49.7283 19.6373 50.1583 19.7473C49.7483 19.5473 49.3583 19.3073 48.9983 19.0273Z" fill="#1E1E1E"/>
<path d="M50.2783 17.577C50.3083 17.607 50.3483 17.637 50.3783 17.667C50.3583 17.727 50.3383 17.787 50.3183 17.847C50.2883 17.947 50.2483 18.037 50.2183 18.137C50.1383 18.3669 50.1783 18.5869 50.3283 18.7669C50.4683 18.9369 50.6883 19.0269 50.8983 19.0269C50.9383 19.0269 50.9883 19.0269 51.0283 19.0169C51.2483 18.9769 51.4183 18.8269 51.4983 18.5869C51.5183 18.5369 51.5383 18.4769 51.5583 18.4269L51.5783 18.3769C51.6383 18.3969 51.6883 18.4169 51.7483 18.4369C52.7883 18.7269 54.1583 18.4969 54.6983 17.2971C54.8883 16.8771 54.9083 16.4572 54.7583 16.0472C54.5583 15.4873 54.0183 14.9673 53.3183 14.6574C53.1983 14.6074 53.0683 14.5574 52.9383 14.5074C53.0783 14.1174 53.2283 13.7275 53.3783 13.3375C53.4483 13.1575 53.5083 12.9875 53.5783 12.8076C53.7683 12.9276 53.8983 13.0375 53.9983 13.1775C54.0983 13.3075 54.2483 13.3975 54.4283 13.4175C54.6183 13.4375 54.8183 13.3875 54.9483 13.2675C55.2183 13.0275 55.2483 12.6276 55.0183 12.3076C54.7983 12.0077 54.4883 11.7577 54.0583 11.5477C54.0983 11.4377 54.1383 11.3377 54.1783 11.2277C54.2383 11.0578 54.3083 10.8878 54.3683 10.7278C54.4583 10.5078 54.4283 10.2979 54.2983 10.1279C54.1483 9.92789 53.8683 9.81791 53.6083 9.8479C53.3683 9.8779 53.1883 10.0379 53.0883 10.2679C53.0183 10.4378 52.9583 10.5978 52.8983 10.7678C52.8583 10.8778 52.8183 10.9878 52.7783 11.0978C52.4683 11.0378 52.1783 11.0178 51.9083 11.0378C51.3483 11.0978 50.8683 11.3677 50.5583 11.8077C50.2383 12.2676 50.1283 12.8776 50.2583 13.4875C50.3883 14.0974 50.6683 14.6374 51.0383 14.9873C51.1083 15.0473 51.1683 15.1073 51.2483 15.1573C51.1383 15.4673 51.0283 15.7772 50.9183 16.0972L50.8483 16.2872C50.8283 16.2672 50.8083 16.2372 50.7883 16.2172L50.7283 16.1572C50.7283 15.7872 50.4483 15.5473 50.1483 15.4873C49.8183 15.4173 49.5283 15.5873 49.4283 15.9172C49.2283 16.6271 49.8583 17.1971 50.2783 17.577ZM52.4783 15.7672L52.5583 15.7972C52.8783 15.9172 53.2783 16.0672 53.4483 16.3672C53.5883 16.6171 53.3883 16.8871 53.2083 17.0171C52.8083 17.2971 52.2883 17.1871 52.0083 17.0871C52.1683 16.6471 52.3183 16.2072 52.4783 15.7672ZM51.5583 12.7876C51.6183 12.4276 51.9783 12.3676 52.2283 12.3676C52.2483 12.3676 52.2683 12.3676 52.2883 12.3676C52.2283 12.5176 52.1683 12.6676 52.1183 12.8176C51.9983 13.1175 51.8883 13.4175 51.7783 13.7175C51.5983 13.4275 51.5083 13.0675 51.5583 12.7876Z" fill="#1E1E1E"/>
<path d="M71.6186 72.5615C71.6686 71.5715 71.6586 70.5215 71.5886 69.3815L71.5686 69.0315L69.1486 69.0415V69.4115C69.1386 70.4715 69.0386 71.5115 68.8486 72.5315L68.7686 72.9815L71.5986 72.8915L71.6186 72.5615Z" fill="#00A99D"/>
<path d="M67.2586 72.6115C67.2986 72.4415 67.3386 72.2715 67.3686 72.1015C67.3986 71.9115 67.4386 71.7315 67.4586 71.5415C67.4786 71.3915 67.4886 71.3315 67.4986 71.2615C67.5686 70.6815 67.5886 70.1015 67.5986 69.4415V69.0715L67.2386 69.0815C66.8386 69.0815 66.4586 69.1015 66.0586 69.1215L65.0386 69.1515L65.0686 69.5315C65.1186 70.5515 65.0686 71.6015 64.9186 72.6615L64.8586 73.0915L67.1386 73.0315L67.2586 72.6115Z" fill="#00A99D"/>
<path d="M59.4086 73.1513H59.7286L59.7686 72.8313C59.8786 71.8113 59.9286 70.7613 59.8986 69.7213L59.8886 69.3513L58.1886 69.4213L58.1486 69.7313C58.0186 70.7413 57.9286 71.7613 57.8786 72.7513L57.8586 73.1313L58.4786 73.1413C58.7786 73.1513 59.0986 73.1513 59.4086 73.1513Z" fill="#00A99D"/>
<path d="M63.0186 73.1212L63.3086 73.1112L63.3886 72.7212L63.4186 72.7312L63.4786 72.1512C63.4986 71.9612 63.5186 71.7612 63.5386 71.5712C63.5886 70.9612 63.5986 70.3012 63.5586 69.5712L63.5386 69.2112L61.4286 69.3012L61.4486 69.6612C61.4786 70.6512 61.4386 71.6912 61.3186 72.7312L61.2686 73.1512L62.2486 73.1412C62.4986 73.1312 62.7586 73.1212 63.0186 73.1212Z" fill="#00A99D"/>
<path d="M55.4784 69.6015C55.1784 69.7715 55.1184 70.1215 55.0884 70.2815L54.6284 73.0415L56.3084 73.1115L56.3284 72.7515C56.3784 71.8115 56.4584 70.8515 56.5684 69.9115L56.6284 69.4915L55.8784 69.5115C55.7884 69.5115 55.6284 69.5115 55.4784 69.6015Z" fill="#00A99D"/>
<path d="M73.1589 72.4513L73.1389 72.8513L74.6289 72.8013C75.3989 72.7813 75.5089 72.2813 75.5189 71.8113C75.5189 71.6113 75.4989 71.4013 75.4789 71.2013C75.4689 71.0713 75.4589 70.9613 75.4489 70.8413L75.4389 70.6013C75.4289 70.2713 75.4189 69.9213 75.3589 69.5813L75.3489 69.4713L75.2689 69.3413C75.1889 69.2513 75.0989 69.2113 74.9789 69.2013C74.4889 69.1413 73.9989 69.1013 73.4989 69.0813L73.0989 69.0613L73.1289 69.4713C73.1989 70.5413 73.2089 71.5213 73.1589 72.4513Z" fill="#00A99D"/>
<path d="M69.1386 65.5721L69.1186 65.9721L70.6086 65.9221C71.3786 65.9021 71.4886 65.4021 71.4986 64.9321C71.5086 64.7321 71.4886 64.5221 71.4686 64.3221C71.4486 64.2021 71.4386 64.0821 71.4386 63.9621L71.4286 63.7121C71.4086 63.3721 71.3986 63.0321 71.3486 62.7021L71.3286 62.5921L71.2486 62.4621C71.1386 62.3421 71.0086 62.3221 70.9686 62.3221C70.4786 62.2621 69.9786 62.2221 69.4786 62.2021L69.0786 62.1821L69.1086 62.5921C69.1686 63.6621 69.1786 64.6421 69.1386 65.5721Z" fill="#00A99D"/>
<path d="M55.8584 62.4824L54.1584 62.5524L54.1184 62.8624C53.9984 63.8724 53.8984 64.8924 53.8584 65.8924L53.8384 66.2724H54.4984C54.7984 66.2824 55.0884 66.2824 55.3884 66.2824H55.6984L55.7384 65.9624C55.8584 64.9424 55.9084 63.8924 55.8684 62.8524L55.8584 62.4824Z" fill="#00A99D"/>
<path d="M52.3084 65.8723C52.3584 64.9323 52.4384 63.9723 52.5484 63.0423L52.6084 62.6123L51.8684 62.6323C51.7684 62.6423 51.6084 62.6423 51.4684 62.7323C51.1584 62.9023 51.0984 63.2623 51.0684 63.4123L50.6284 66.1023C50.6484 66.1223 50.6784 66.1423 50.6984 66.1723L52.2984 66.2423L52.3084 65.8723Z" fill="#00A99D"/>
<path d="M67.5885 65.6821C67.6385 64.6921 67.6385 63.6421 67.5685 62.5021L67.5485 62.1621H65.9585C65.8985 62.1921 65.8385 62.2021 65.7585 62.2021C65.5385 62.1921 65.3385 62.1921 65.1185 62.1821V62.5321C65.1085 63.5921 65.0185 64.6421 64.8185 65.6521L64.7385 66.1021L67.5685 66.0121L67.5885 65.6821Z" fill="#00A99D"/>
<path d="M57.4085 62.782C57.4385 63.772 57.3985 64.812 57.2885 65.862L57.2385 66.272L58.1985 66.262C58.4585 66.262 58.7285 66.262 58.9985 66.252H59.2785L59.3585 65.842C59.3685 65.782 59.3885 65.722 59.3985 65.652C59.3985 65.622 59.4085 65.582 59.4085 65.552C59.4185 65.532 59.4285 65.512 59.4285 65.482L59.4485 65.272C59.4785 65.082 59.4885 64.892 59.5085 64.692C59.5585 64.082 59.5685 63.422 59.5285 62.692L59.5085 62.332L57.4085 62.422V62.782Z" fill="#00A99D"/>
<path d="M63.2386 65.7424C63.2786 65.5624 63.3186 65.4024 63.3486 65.2224C63.3886 65.0424 63.4186 64.8524 63.4386 64.6624C63.4686 64.5124 63.4686 64.4524 63.4786 64.3824C63.5486 63.8024 63.5786 63.2424 63.5786 62.5724L63.5886 62.1924L63.2186 62.2024C62.8286 62.2124 62.4486 62.2224 62.0586 62.2424L61.0286 62.2824L61.0486 62.6524C61.0986 63.6824 61.0486 64.7324 60.8986 65.7824L60.8386 66.2124L63.1286 66.1524L63.2386 65.7424Z" fill="#00A99D"/>
<path d="M55.0083 60.9525C54.8883 60.9625 54.7683 60.9725 54.6483 60.9825C54.6183 60.9825 54.5983 61.0025 54.5683 61.0025C54.2583 61.0225 53.9383 61.0325 53.6283 61.0425C53.3883 61.0525 53.1183 61.0525 52.8483 61.0425C52.5683 61.0425 52.3083 61.0425 52.0583 61.0525C52.1883 61.1425 52.3283 61.2225 52.4683 61.2925C54.0283 60.8525 56.1083 61.1125 57.9683 61.4425C58.6883 61.3225 59.4483 61.2025 60.0883 60.8125C60.0983 60.8025 60.1083 60.7925 60.1283 60.7825C58.4683 60.8325 56.8283 60.9725 55.1583 60.9825C55.1083 60.9925 55.0583 60.9725 55.0083 60.9525Z" fill="#1E1E1E"/>
<path d="M76.9983 73.4309C76.9983 73.4209 76.9983 73.4009 76.9983 73.4009C77.0283 73.2409 77.0483 73.0909 77.0583 72.9909L77.0383 72.801C77.0083 72.531 76.9683 72.251 76.9883 71.981C76.9983 71.7011 77.0283 71.4211 77.0583 71.1411C77.0683 70.9912 77.0783 70.8612 77.0883 70.7112C77.0683 70.6412 77.0383 70.5712 77.0183 70.5112C77.0183 70.3212 77.0283 70.1512 77.0283 69.9713C77.0083 69.2014 76.9183 68.3114 76.1983 67.9515C76.1183 67.9015 76.0683 67.8515 75.9783 67.8115C75.5683 67.6615 75.0983 67.6115 74.6083 67.5815C73.9683 67.4216 73.3183 67.2916 72.6683 67.1716C72.6783 67.1616 72.6883 67.1516 72.6883 67.1416C72.7283 67.0916 72.7683 67.0416 72.7983 66.9616C72.8383 66.9016 72.8483 66.8316 72.8783 66.7816C72.9183 66.6916 72.9583 66.6116 72.9683 66.5216C73.0083 66.3617 73.0183 66.2117 73.0283 66.1117L73.0083 65.9217C72.9783 65.6617 72.9483 65.3718 72.9583 65.1018C72.9783 64.8318 72.9983 64.5519 73.0283 64.2719C73.0583 63.9619 73.0883 63.642 73.0983 63.332C73.1583 62.0122 72.7883 61.2622 71.9583 60.9523C71.3083 60.7123 70.5083 60.6923 69.7283 60.6723C69.5283 60.6723 69.3283 60.6623 69.1583 60.6523C68.6383 60.6323 68.1083 60.6223 67.5183 60.6223C65.8283 60.8823 64.1083 60.8623 62.4083 60.7923C61.6483 60.7623 60.8883 60.7723 60.1383 60.7923C60.1283 60.8023 60.1183 60.8123 60.0983 60.8223C59.4583 61.2122 58.6983 61.3322 57.9783 61.4522C59.2883 61.6822 60.4883 61.9322 61.3083 61.9822C63.7383 62.1321 66.2583 62.1121 68.6683 61.7622C70.1483 61.5422 71.7483 61.4722 72.2383 63.182C72.8683 64.1919 72.3983 66.0017 70.8383 66.1217C68.3283 66.3117 65.8583 66.7816 63.3583 67.0416C60.9483 67.2916 58.5183 66.8916 56.1383 67.1916C54.3183 67.4316 52.5283 67.7515 50.9883 66.4617C50.8783 66.3717 50.7883 66.2717 50.6983 66.1717H50.6183L50.6283 66.1117C49.8983 65.2518 49.8983 64.1619 50.3883 63.032C50.7883 62.1021 51.5383 61.5822 52.4883 61.3122C52.3483 61.2422 52.2083 61.1623 52.0783 61.0723C50.8583 61.1223 50.0283 61.3522 49.7483 62.4121C49.5583 63.142 49.4383 63.9219 49.3183 64.6819L49.2383 65.2018C49.1283 65.9217 49.0583 66.5716 49.4983 67.0816C50.1683 67.8815 51.6083 67.7615 52.5383 67.8015C52.9383 67.8215 53.3383 67.8315 53.7383 67.8315C53.8583 67.8215 54.5383 67.9115 54.6183 67.8415C54.5083 67.9515 54.3583 67.9915 54.2083 68.0415C54.0483 68.1215 53.8883 68.2315 53.8383 68.4014C53.8183 68.4714 53.8283 68.5514 53.8183 68.6214C53.8183 68.7514 53.7883 68.8714 53.7683 68.9914C53.6283 69.8413 53.4783 70.6912 53.3483 71.5411L53.2683 72.071C53.1983 72.491 53.1583 72.8809 53.2283 73.2409C53.0983 73.5909 53.1383 74.0108 53.3583 74.3108C53.4383 74.6207 53.6283 74.8907 53.9583 74.9907C54.1083 75.1407 54.2983 75.2607 54.5583 75.2807C61.7783 75.8406 69.0183 75.8006 76.2283 75.1607C77.1083 75.0707 77.3683 74.0108 76.9983 73.4309ZM56.5783 69.9013C56.4683 70.8412 56.3783 71.8011 56.3383 72.741L56.3183 73.1009L54.8983 73.0409C54.8383 72.9509 54.7683 72.8709 54.6783 72.801L55.0983 70.2712C55.1283 70.1012 55.1783 69.7513 55.4883 69.5913C55.6383 69.5013 55.7983 69.5013 55.8883 69.4913L56.6383 69.4713L56.5783 69.9013ZM59.7583 72.8309L59.7183 73.1509H59.3983C59.0883 73.1509 58.7783 73.1509 58.4683 73.1409L57.8483 73.1309L57.8683 72.751C57.9283 71.7611 58.0083 70.7412 58.1383 69.7313L58.1783 69.4213L59.8783 69.3513L59.8883 69.7213C59.9183 70.7712 59.8783 71.8111 59.7583 72.8309ZM63.5283 71.5611C63.5083 71.7511 63.4883 71.961 63.4683 72.141L63.4083 72.721L63.3783 72.711L63.2983 73.1009L63.0083 73.1109C62.7483 73.1109 62.4883 73.1209 62.2283 73.1209L61.2483 73.1309L61.2983 72.711C61.4183 71.6711 61.4583 70.6412 61.4283 69.6413L61.4083 69.2813L63.5183 69.1914L63.5383 69.5513C63.5783 70.3012 63.5683 70.9512 63.5283 71.5611ZM67.6083 69.4413C67.5983 70.1013 67.5683 70.6812 67.5083 71.2611C67.4983 71.3311 67.4883 71.4011 67.4683 71.5411C67.4383 71.7311 67.3983 71.911 67.3783 72.101C67.3383 72.271 67.2983 72.441 67.2683 72.611L67.1683 73.0309L64.8883 73.0909L64.9483 72.661C65.0983 71.6111 65.1483 70.5612 65.0983 69.5313L65.0683 69.1514L66.0883 69.1214C66.4883 69.1014 66.8683 69.0814 67.2683 69.0814L67.6283 69.0714V69.4413H67.6083ZM71.6183 72.561L71.5983 72.8909L68.7683 72.9809L68.8483 72.531C69.0383 71.5211 69.1383 70.4712 69.1483 69.4113V69.0414L71.5683 69.0314L71.5883 69.3813C71.6583 70.5212 71.6683 71.5611 71.6183 72.561ZM74.6283 72.801L73.1383 72.8509L73.1583 72.451C73.2083 71.5111 73.1983 70.5412 73.1383 69.4713L73.1083 69.0614L73.5083 69.0814C74.0083 69.1014 74.4983 69.1414 74.9883 69.2013C75.1083 69.2113 75.2083 69.2513 75.2783 69.3413L75.3583 69.4713L75.3683 69.5813C75.4283 69.9213 75.4383 70.2712 75.4483 70.6012L75.4583 70.8412C75.4683 70.9612 75.4783 71.0711 75.4883 71.2011C75.5083 71.4011 75.5283 71.6111 75.5283 71.8111C75.5183 72.281 75.3983 72.781 74.6283 72.801Z" fill="#1E1E1E"/>
<path d="M53.0584 61.552C52.8584 61.482 52.6684 61.402 52.4784 61.302C51.5384 61.572 50.7784 62.092 50.3784 63.022C49.8984 64.152 49.8884 65.242 50.6184 66.102L51.0584 63.412C51.0884 63.252 51.1384 62.892 51.4584 62.732C51.5984 62.642 51.7584 62.642 51.8584 62.632L52.5984 62.612L52.5384 63.042C52.4284 63.982 52.3384 64.932 52.2984 65.872L52.2784 66.232L50.6784 66.162C50.7684 66.262 50.8584 66.362 50.9684 66.452C52.5084 67.742 54.2984 67.422 56.1184 67.182C58.5084 66.872 60.9384 67.272 63.3384 67.032C65.8384 66.782 68.3084 66.302 70.8184 66.112C72.3784 65.992 72.8484 64.192 72.2184 63.172C71.7384 61.462 70.1384 61.532 68.6484 61.752C66.2384 62.112 63.7184 62.122 61.2884 61.972C60.4584 61.922 59.2684 61.672 57.9584 61.442C57.9284 61.442 57.9084 61.452 57.8784 61.452C56.3584 61.712 54.5884 62.042 53.0584 61.552ZM55.7384 65.952L55.6984 66.272H55.3884C55.0884 66.272 54.7984 66.272 54.4984 66.262H53.8384L53.8584 65.882C53.9084 64.882 53.9984 63.862 54.1184 62.852L54.1584 62.542L55.8584 62.472L55.8684 62.842C55.9084 63.892 55.8584 64.932 55.7384 65.952ZM69.4784 62.202C69.9784 62.222 70.4784 62.262 70.9684 62.322C71.0184 62.322 71.1384 62.342 71.2484 62.462L71.3284 62.592L71.3484 62.702C71.3984 63.032 71.4084 63.372 71.4284 63.712L71.4384 63.962C71.4384 64.082 71.4484 64.202 71.4684 64.322C71.4884 64.522 71.5084 64.732 71.4984 64.932C71.4884 65.412 71.3784 65.902 70.6084 65.922L69.1184 65.972L69.1384 65.572C69.1884 64.632 69.1784 63.662 69.1184 62.592L69.0884 62.182L69.4784 62.202ZM64.8284 65.652C65.0284 64.652 65.1184 63.592 65.1284 62.532V62.182C65.3484 62.192 65.5484 62.192 65.7684 62.202C65.8484 62.202 65.9084 62.192 65.9684 62.162H67.5584L67.5784 62.502C67.6484 63.642 67.6484 64.682 67.5984 65.682L67.5784 66.012L64.7484 66.102L64.8284 65.652ZM60.9084 65.782C61.0584 64.742 61.1084 63.692 61.0584 62.652L61.0384 62.282L62.0684 62.242C62.4584 62.222 62.8384 62.212 63.2284 62.202L63.5984 62.192L63.5884 62.572C63.5884 63.242 63.5484 63.802 63.4884 64.382C63.4784 64.452 63.4784 64.522 63.4484 64.662C63.4184 64.852 63.3884 65.032 63.3584 65.222C63.3284 65.402 63.2784 65.562 63.2484 65.742L63.1584 66.152L60.8684 66.212L60.9084 65.782ZM59.5184 62.692C59.5584 63.422 59.5484 64.072 59.4984 64.692C59.4784 64.892 59.4684 65.092 59.4384 65.272L59.4184 65.482C59.4184 65.512 59.4084 65.532 59.3984 65.552C59.3984 65.582 59.3884 65.622 59.3884 65.652C59.3784 65.722 59.3584 65.782 59.3484 65.842L59.2684 66.252H58.9984C58.7284 66.262 58.4584 66.262 58.1984 66.262L57.2384 66.272L57.2884 65.862C57.3984 64.812 57.4384 63.782 57.4084 62.782L57.3984 62.422L59.4984 62.332L59.5184 62.692Z" fill="#1E1E1E"/>
<path d="M52.4783 61.302C52.6683 61.402 52.8583 61.482 53.0583 61.552C54.5883 62.052 56.3583 61.712 57.8983 61.462C57.9283 61.462 57.9483 61.452 57.9783 61.452C56.1183 61.122 54.0383 60.852 52.4783 61.302Z" fill="#1E1E1E"/>
<path d="M27.918 69.8915L27.878 69.5815L26.178 69.5115L26.168 69.8815C26.138 70.9215 26.188 71.9615 26.298 72.9915L26.338 73.3115H26.658C26.968 73.3115 27.278 73.3115 27.588 73.3015L28.208 73.2915L28.188 72.9115C28.138 71.9215 28.048 70.9115 27.918 69.8915Z" fill="#00A99D"/>
<path d="M20.9778 69.6917L21.0078 69.3117L19.9878 69.2817C19.5878 69.2617 19.2078 69.2417 18.8078 69.2417L18.4478 69.2317V69.6017C18.4578 70.2617 18.4878 70.8417 18.5478 71.4217C18.5578 71.4917 18.5678 71.5617 18.5878 71.7017C18.6178 71.8917 18.6578 72.0717 18.6778 72.2617C18.7178 72.4317 18.7578 72.6017 18.7878 72.7717L18.8878 73.1917L21.1678 73.2517L21.1078 72.8217C20.9778 71.7617 20.9278 70.7117 20.9778 69.6917Z" fill="#00A99D"/>
<path d="M11.0778 69.3614C10.9578 69.3714 10.8578 69.4114 10.7878 69.5014L10.7078 69.6314L10.6978 69.7414C10.6378 70.0814 10.6278 70.4314 10.6178 70.7614L10.6078 71.0014C10.5978 71.1214 10.5878 71.2314 10.5778 71.3614C10.5578 71.5614 10.5378 71.7714 10.5378 71.9714C10.5478 72.4514 10.6578 72.9414 11.4278 72.9614L12.9178 73.0114L12.8978 72.6114C12.8478 71.6714 12.8578 70.7014 12.9178 69.6314L12.9478 69.2214L12.5478 69.2414C12.0578 69.2614 11.5678 69.3014 11.0778 69.3614Z" fill="#00A99D"/>
<path d="M30.588 69.7614C30.438 69.6714 30.278 69.6714 30.188 69.6614L29.438 69.6414L29.498 70.0614C29.608 71.0014 29.698 71.9614 29.738 72.9014L29.758 73.2614L31.438 73.1914L30.978 70.4314C30.938 70.2714 30.888 69.9214 30.588 69.7614Z" fill="#00A99D"/>
<path d="M16.9077 69.5716V69.2016L14.4877 69.1917L14.4677 69.5416C14.3977 70.6816 14.3877 71.7216 14.4377 72.7216L14.4577 73.0517L17.2877 73.1416L17.2077 72.6917C17.0277 71.6817 16.9177 70.6316 16.9077 69.5716Z" fill="#00A99D"/>
<path d="M24.6278 69.8213L24.6478 69.4613L22.5378 69.3713L22.5178 69.7313C22.4778 70.4613 22.4878 71.1113 22.5378 71.7313C22.5578 71.9213 22.5778 72.1313 22.5978 72.3113L22.6578 72.8913L22.6878 72.8813L22.7678 73.2713L23.0578 73.2813C23.3178 73.2813 23.5778 73.2913 23.8378 73.2913L24.8178 73.3013L24.7678 72.8813C24.6378 71.8413 24.5978 70.8113 24.6278 69.8213Z" fill="#00A99D"/>
<path d="M20.9379 62.6923V62.3423C20.7179 62.3523 20.5179 62.3523 20.2979 62.3623C20.2179 62.3623 20.1579 62.3523 20.0979 62.3223H18.5079L18.4879 62.6623C18.4179 63.8023 18.4179 64.8423 18.4679 65.8423L18.4879 66.1723L21.3179 66.2623L21.2379 65.8123C21.0379 64.8123 20.9479 63.7623 20.9379 62.6923Z" fill="#00A99D"/>
<path d="M34.598 62.8822C34.458 62.7922 34.298 62.7922 34.198 62.7822L33.458 62.7622L33.518 63.1922C33.628 64.1322 33.718 65.0822 33.758 66.0222L33.778 66.3822L35.378 66.3122C35.398 66.2922 35.428 66.2722 35.448 66.2422L34.998 63.5622C34.968 63.4122 34.908 63.0522 34.598 62.8822Z" fill="#00A99D"/>
<path d="M30.1981 63.0121C30.1581 64.0521 30.2081 65.0921 30.3281 66.1221L30.3681 66.4421H30.6781C30.9781 66.4421 31.2681 66.4421 31.5681 66.4321H32.2281L32.2081 66.0521C32.1581 65.0521 32.0681 64.0321 31.9481 63.0221L31.9081 62.7121L30.2081 62.6421L30.1981 63.0121Z" fill="#00A99D"/>
<path d="M28.6581 62.9422L28.6681 62.5822L26.5681 62.4922L26.5481 62.8522C26.5081 63.5822 26.5181 64.2322 26.5681 64.8522C26.5881 65.0522 26.5981 65.2522 26.6281 65.4322L26.6481 65.6422C26.6481 65.6722 26.6581 65.6922 26.6681 65.7122C26.6681 65.7422 26.6781 65.7822 26.6781 65.8122C26.6881 65.8822 26.7081 65.9422 26.7181 66.0022L26.7981 66.4122H27.0781C27.3481 66.4222 27.6181 66.4222 27.8781 66.4222L28.8381 66.4322L28.7881 66.0222C28.6681 64.9622 28.6281 63.9322 28.6581 62.9422Z" fill="#00A99D"/>
<path d="M25.0078 62.8121L25.0278 62.4421L23.9978 62.4021C23.6078 62.3821 23.2278 62.3721 22.8378 62.3621L22.4678 62.3521L22.4778 62.7321C22.4778 63.4021 22.5178 63.9621 22.5778 64.5421C22.5878 64.6121 22.5878 64.6821 22.6178 64.8221C22.6478 65.0121 22.6778 65.192 22.7078 65.382C22.7378 65.562 22.7878 65.7221 22.8178 65.9021L22.9078 66.312L25.1978 66.3721L25.1378 65.9421C25.0078 64.9021 24.9578 63.8421 25.0078 62.8121Z" fill="#00A99D"/>
<path d="M15.0978 62.4818C15.0478 62.4818 14.9278 62.5018 14.8178 62.6218L14.7378 62.7518L14.7178 62.8618C14.6678 63.1918 14.6578 63.5318 14.6378 63.8718L14.6278 64.1218C14.6278 64.2418 14.6178 64.3618 14.5978 64.4818C14.5778 64.6818 14.5578 64.8918 14.5678 65.0918C14.5778 65.5718 14.6878 66.0618 15.4578 66.0818L16.9478 66.1318L16.9278 65.7318C16.8778 64.7918 16.8878 63.8218 16.9478 62.7518L16.9778 62.3418L16.5778 62.3618C16.0878 62.3818 15.5878 62.4218 15.0978 62.4818Z" fill="#00A99D"/>
<path d="M5.60762 65.1016L5.29762 64.9216L4.05762 67.0216L4.34762 67.2116C5.28762 67.8716 6.17762 68.4116 7.04762 68.8816L7.33762 69.0316L8.84762 66.6216L8.41762 66.4616C7.47762 66.1116 6.52762 65.6516 5.60762 65.1016Z" fill="#00A99D"/>
<path d="M13.2778 58.8329L13.5578 58.9629L13.7278 58.6829C13.8878 58.4029 14.0478 58.1129 14.2078 57.8429L14.4978 57.3329L14.1678 57.1629C13.2878 56.6829 12.3678 56.2229 11.4378 55.8129L11.1678 55.6829L10.2378 57.1329L10.5478 57.3329C11.4178 57.9029 12.3378 58.4029 13.2778 58.8329Z" fill="#00A99D"/>
<path d="M10.2878 61.4128C10.4678 61.5028 10.6378 61.5928 10.8278 61.6728L11.3378 61.9128L11.3578 61.8828L11.7178 62.0228L11.8678 61.7728C12.0078 61.5528 12.1378 61.3228 12.2778 61.1028L12.7778 60.2528L12.4178 60.0828C11.4478 59.6428 10.5478 59.1428 9.70782 58.5928L9.42782 58.4028L8.26782 60.1928L8.56782 60.3828C9.17782 60.8028 9.74782 61.1428 10.2878 61.4128Z" fill="#00A99D"/>
<path d="M10.5177 63.1724C9.53766 62.7524 8.60766 62.2424 7.74766 61.6624L7.44766 61.4724L6.90766 62.3224C6.69766 62.6524 6.49766 62.9824 6.28766 63.3024L6.09766 63.6324L6.41766 63.8224C6.97766 64.1624 7.48766 64.4224 8.00766 64.6724C8.06766 64.7024 8.13766 64.7324 8.19766 64.7524C8.21766 64.7724 8.24766 64.7824 8.27766 64.7924C8.28766 64.7924 8.30766 64.7924 8.31766 64.8024C8.47766 64.8624 8.64766 64.9324 8.81766 65.0024C8.96766 65.0624 9.12766 65.1124 9.28766 65.1624L9.69766 65.3024L10.9177 63.3524L10.5177 63.1724Z" fill="#00A99D"/>
<path d="M6.53754 70.3113L6.19754 70.1313C5.36754 69.6913 4.52754 69.1713 3.64754 68.5613L3.32754 68.3413L3.13754 68.6913C2.91754 69.1313 2.69754 69.5813 2.49754 70.0313C2.43754 70.1413 2.42754 70.2613 2.45754 70.3613L2.51754 70.5013L2.60754 70.5713C2.86754 70.7813 3.15754 70.9713 3.43754 71.1613L3.64754 71.3013C3.74754 71.3713 3.84754 71.4413 3.94754 71.5113C4.11754 71.6313 4.28754 71.7513 4.45754 71.8613C4.54754 71.9213 4.68754 71.9913 4.82754 72.0313C4.92754 72.0613 5.03754 72.0713 5.15754 72.0513C5.29754 71.9713 5.43754 71.8913 5.57754 71.8013C5.63754 71.7413 5.68754 71.6713 5.74754 71.5813L6.53754 70.3113Z" fill="#00A99D"/>
<path d="M14.9278 55.8431L15.2278 56.0031L16.0378 54.5131L13.4478 53.4631C13.2878 53.4031 12.9678 53.2831 12.6678 53.4531C12.5178 53.5431 12.4378 53.6731 12.3878 53.7531L11.9878 54.3931L12.3578 54.5631C13.2378 54.9831 14.0978 55.4031 14.9278 55.8431Z" fill="#00A99D"/>
<path d="M9.7076 68.1416C9.8576 67.8916 10.0176 67.6416 10.1876 67.4016C10.9976 66.1218 11.8176 64.8519 12.6176 63.5721C12.7476 63.4221 12.7976 63.3421 12.8276 63.2521L12.8576 63.1621C12.8976 63.1021 12.9376 63.0421 12.9776 62.9721C13.0376 61.9923 13.3976 61.3923 14.1076 61.1324C14.6976 60.1625 15.2076 59.2726 15.6876 58.4227L15.9376 57.9927C16.1676 57.5828 16.3976 57.1628 16.6376 56.7428C16.6376 56.7228 16.6576 56.7128 16.6676 56.7028C16.8076 56.4229 16.9376 56.1429 17.0676 55.8629C17.0776 55.783 17.1076 55.703 17.1576 55.653C17.1776 55.603 17.2076 55.553 17.2276 55.503C17.2276 55.513 17.2276 55.523 17.2276 55.523C17.2276 55.513 17.2376 55.493 17.2376 55.483C17.2776 55.353 17.3276 55.223 17.3876 55.103C17.3876 55.103 17.3876 55.113 17.3776 55.113C17.3876 55.093 17.3876 55.073 17.3976 55.053C17.4076 55.013 17.4276 54.973 17.4376 54.943C17.4576 54.8731 17.4776 54.8131 17.4976 54.7431C17.5176 54.6631 17.5376 54.5831 17.5576 54.5031C17.5676 54.4631 17.5676 54.4231 17.5676 54.3831C17.5676 54.3131 17.5676 54.2531 17.5676 54.1831C17.5676 54.1631 17.5676 54.1431 17.5676 54.1331C17.5576 54.0931 17.5476 54.0531 17.5376 54.0131C17.5376 53.9932 17.5176 53.9532 17.5076 53.9332C17.4676 53.8432 17.4276 53.7632 17.3676 53.6832L17.3076 53.6032C17.2776 53.5732 17.2576 53.5332 17.2276 53.5032C17.2076 53.4732 17.1776 53.4532 17.1476 53.4232C16.7976 53.2332 16.4176 53.0733 16.0476 52.9333C16.0376 52.9333 16.0276 52.9333 16.0176 52.9333C15.9676 52.9133 15.9276 52.8933 15.8776 52.8633L15.3976 52.6633C14.6876 52.3733 13.9476 52.0834 13.2276 51.8534L13.1776 51.8434C11.9376 51.4934 11.3076 52.4033 10.4876 53.8132C10.3476 54.0431 10.2176 54.2731 10.0876 54.4931C9.4176 55.543 8.7376 56.6129 8.0676 57.6627C6.5976 59.9825 5.0476 62.4022 3.5676 64.8019C2.8876 65.9018 2.3976 66.7617 1.9576 67.5916C1.8676 67.7616 1.7676 67.9316 1.6776 68.1116C1.3076 68.7815 0.917603 69.4814 0.797603 70.1513C0.647603 71.0212 1.1176 71.7212 2.2776 72.3711C2.5476 72.5311 2.8376 72.6611 3.1176 72.801C3.3676 72.931 3.6176 73.051 3.8676 73.181C4.1076 73.311 4.3276 73.481 4.5376 73.6409L4.6976 73.7709C4.7976 73.8109 4.9376 73.8909 5.0876 73.9409C5.2276 73.9909 5.3876 74.0209 5.5576 74.0309C5.6876 74.0309 5.7876 74.0209 5.8776 74.0109C5.9176 74.0009 5.9676 73.9809 6.0076 73.9709H6.0276C6.1176 73.8909 6.2276 73.7509 6.3376 73.561C6.8576 72.6911 7.3976 71.8211 7.9376 70.9512C8.1376 70.6213 8.3376 70.3013 8.5476 69.9714C8.7676 69.6214 8.9976 69.2814 9.2176 68.9315C9.2976 68.6915 9.4276 68.4715 9.6176 68.3015C9.6376 68.2416 9.6776 68.1916 9.7076 68.1416ZM5.5776 71.8012C5.4376 71.9511 5.2976 72.0211 5.1576 72.0511C4.9276 72.1711 4.6876 72.2811 4.4276 72.3711C3.1976 72.781 1.8876 71.4412 2.2876 70.1713C2.5376 69.3614 2.1676 68.5415 2.5176 67.6816C2.8876 66.7717 3.5876 65.9518 4.1176 65.1319C5.2976 63.3121 6.3876 61.4423 7.5276 59.6025C8.6876 57.7327 10.0976 56.1829 11.3976 54.4431C12.4976 52.9733 13.0476 52.6133 14.9276 52.6633C17.0676 52.7233 17.1876 55.9929 15.2376 56.2329C14.1776 57.4828 13.6876 59.3526 12.9476 60.8024C12.0976 62.4822 11.1576 64.112 10.1476 65.6918C8.8376 67.7116 7.6276 70.4613 5.5776 71.8012Z" fill="#1E1E1E"/>
<path d="M12.9375 60.8027C13.6775 59.3529 14.1675 57.4731 15.2275 56.2333C17.1675 55.9933 17.0575 52.7337 14.9175 52.6637C13.0375 52.6037 12.4975 52.9636 11.3875 54.4435C10.0875 56.1833 8.67752 57.7331 7.51752 59.6029C6.37752 61.4427 5.28752 63.3125 4.10752 65.1323C3.57752 65.9522 2.86752 66.7721 2.50752 67.682C2.16752 68.5319 2.53752 69.3618 2.27752 70.1717C1.87752 71.4416 3.19752 72.7814 4.41752 72.3715C4.66752 72.2915 4.90752 72.1715 5.14752 72.0515C5.03752 72.0715 4.92752 72.0615 4.81752 72.0315C4.66752 71.9915 4.53752 71.9115 4.44752 71.8615C4.26752 71.7615 4.10752 71.6315 3.93752 71.5115C3.83752 71.4316 3.73752 71.3616 3.63752 71.3016L3.42752 71.1616C3.14752 70.9816 2.84752 70.7916 2.59752 70.5717L2.50752 70.5017L2.44752 70.3617C2.41752 70.2617 2.42752 70.1417 2.48752 70.0317C2.68752 69.5818 2.90752 69.1418 3.12752 68.6919L3.31752 68.3419L3.63752 68.5619C4.51752 69.1718 5.35752 69.6917 6.18752 70.1317L6.52752 70.3217L5.72752 71.5915C5.67752 71.6815 5.61752 71.7515 5.55752 71.8115C7.60752 70.4717 8.81752 67.722 10.1275 65.7022C11.1575 64.1124 12.0975 62.4826 12.9375 60.8027ZM12.3875 53.7635C12.4375 53.6735 12.5175 53.5536 12.6675 53.4636C12.9675 53.2936 13.2875 53.4136 13.4475 53.4736L16.0375 54.5235L15.2275 56.0133L14.9275 55.8533C14.0975 55.4134 13.2375 54.9834 12.3475 54.5934L11.9775 54.4235L12.3875 53.7635ZM11.1675 55.6833L11.4375 55.8133C12.3675 56.2233 13.2875 56.6832 14.1675 57.1632L14.4975 57.3331L14.2075 57.8431C14.0475 58.1231 13.8875 58.413 13.7275 58.683L13.5575 58.963L13.2775 58.833C12.3375 58.403 11.4175 57.9031 10.5375 57.3331L10.2275 57.1332L11.1675 55.6833ZM9.42752 58.403L9.70752 58.593C10.5475 59.1429 11.4475 59.6429 12.4175 60.0828L12.7775 60.2528L12.2775 61.1027C12.1375 61.3227 12.0075 61.5527 11.8675 61.7726L11.7175 62.0226L11.3575 61.8826L11.3375 61.9126L10.8275 61.6727C10.6475 61.5927 10.4675 61.5027 10.2875 61.4127C9.74752 61.1427 9.17752 60.8027 8.56752 60.3928L8.26752 60.2028L9.42752 58.403ZM7.34752 69.0418L7.05752 68.8918C6.18752 68.4219 5.29752 67.872 4.35752 67.222L4.06752 67.032L5.30752 64.9323L5.61752 65.1123C6.53752 65.6622 7.48752 66.1322 8.44752 66.4721L8.87752 66.6321L7.34752 69.0418ZM9.28752 65.1623C9.12752 65.1123 8.96752 65.0623 8.81752 65.0023C8.64752 64.9323 8.48752 64.8723 8.31752 64.8023C8.30752 64.8023 8.28752 64.8023 8.27752 64.7923C8.24752 64.7823 8.22752 64.7623 8.19752 64.7523C8.13752 64.7223 8.06752 64.6923 8.00752 64.6723C7.48752 64.4223 6.96752 64.1624 6.41752 63.8224L6.09752 63.6324L6.28752 63.3025C6.49752 62.9825 6.69752 62.6525 6.91752 62.3126L7.45752 61.4627L7.75752 61.6527C8.60752 62.2326 9.53752 62.7425 10.5275 63.1625L10.9175 63.3325L9.69752 65.2922L9.28752 65.1623Z" fill="#1E1E1E"/>
<path d="M26.2679 61.9324C27.8479 61.6624 29.8979 61.2224 31.7079 61.2324C31.7179 61.2124 31.7179 61.2024 31.7279 61.1824C31.6479 61.1824 31.5679 61.1824 31.4879 61.1724C31.4579 61.1724 31.4379 61.1524 31.4079 61.1524C31.2879 61.1424 31.1679 61.1324 31.0479 61.1224C30.9979 61.1324 30.9479 61.1524 30.8979 61.1524C28.4779 61.1324 26.0879 60.8524 23.6579 60.9524C23.3179 60.9624 22.9779 60.9724 22.6379 60.9824C22.9779 61.2624 23.4479 61.4424 24.0979 61.5824C24.8179 61.7324 25.5379 61.8424 26.2679 61.9324Z" fill="#1E1E1E"/>
<path d="M36.8378 65.3422L36.7578 64.8222C36.6378 64.0623 36.5178 63.2824 36.3278 62.5525C35.9978 61.2726 34.8578 61.1927 33.2178 61.2027C32.9478 61.2127 32.6778 61.2127 32.4378 61.2027C32.2078 61.1927 31.9678 61.1827 31.7378 61.1727C31.7278 61.1927 31.7278 61.2027 31.7178 61.2227C33.5078 61.2327 35.0578 61.6826 35.6978 63.1724C36.1778 64.3023 36.1878 65.3922 35.4578 66.2521L35.4678 66.3121H35.3878C35.2978 66.4121 35.2078 66.5121 35.0978 66.602C33.5578 67.8919 31.7678 67.5719 29.9478 67.332C27.5578 67.022 25.1278 67.422 22.7278 67.182C20.2278 66.932 17.7578 66.4521 15.2478 66.2621C13.6878 66.1421 13.2178 64.3423 13.8478 63.3224C14.3278 61.6126 15.9278 61.6826 17.4178 61.9026C19.8278 62.2625 22.3478 62.2725 24.7778 62.1226C25.1978 62.0926 25.7078 62.0226 26.2878 61.9226C25.5578 61.8326 24.8378 61.7226 24.1178 61.5726C23.4678 61.4326 22.9978 61.2527 22.6578 60.9727C21.2878 61.0027 19.9178 60.9827 18.5678 60.7727C17.9778 60.7727 17.4478 60.7827 16.9278 60.8027C16.7478 60.8127 16.5478 60.8227 16.3578 60.8227C15.5778 60.8427 14.7778 60.8627 14.1278 61.1027H14.1178C13.7678 61.6826 13.3978 62.2925 12.9878 62.9425C12.9778 63.1124 12.9778 63.2824 12.9878 63.4724C12.9978 63.7824 13.0278 64.1023 13.0578 64.4123C13.0878 64.6923 13.1078 64.9722 13.1278 65.2422C13.1378 65.5122 13.1078 65.8021 13.0778 66.0621L13.0578 66.2521C13.0678 66.3521 13.0778 66.5021 13.1178 66.662C13.1378 66.762 13.1778 66.842 13.2078 66.922C13.2378 66.982 13.2478 67.052 13.2878 67.102C13.3278 67.182 13.3678 67.232 13.3978 67.282C13.3978 67.292 13.4078 67.302 13.4178 67.312C12.7678 67.432 12.1178 67.5619 11.4778 67.7219C10.9878 67.7519 10.5178 67.8119 10.1078 67.9519C10.0278 67.9919 9.96778 68.0419 9.88778 68.0919C9.78778 68.1419 9.70778 68.2019 9.62778 68.2619C9.49778 68.4618 9.39778 68.6318 9.29778 68.7918C9.26778 68.8318 9.23778 68.8818 9.20778 68.9218C9.07778 69.3017 9.04778 69.7317 9.03778 70.1317C9.03778 70.3116 9.04778 70.4816 9.04778 70.6716C9.02778 70.7416 8.99778 70.8116 8.97778 70.8716C8.98778 71.0216 8.99778 71.1515 9.00778 71.3015C9.03778 71.5815 9.06778 71.8615 9.07778 72.1414C9.09778 72.4114 9.05778 72.6914 9.02778 72.9613L9.00778 73.1513C9.01778 73.2513 9.03778 73.4013 9.06778 73.5613C9.08778 73.6913 9.14778 73.8212 9.21778 73.9412C9.22778 74.2012 9.38778 74.4612 9.69778 74.4912C13.8978 74.8611 18.1078 75.0611 22.3278 75.0611C24.4178 75.0611 26.4978 75.0211 28.5878 74.9311C29.5478 74.8911 30.5378 74.9011 31.4878 74.7611C32.1878 74.6511 32.8178 74.2712 32.9878 73.5113C33.0278 73.3413 32.9878 73.2013 32.9078 73.0913C32.9178 72.8113 32.8778 72.5214 32.8278 72.2114L32.7478 71.6815C32.6178 70.8316 32.4678 69.9817 32.3278 69.1318C32.3078 69.0118 32.2778 68.8918 32.2778 68.7618C32.2678 68.6818 32.2778 68.6018 32.2578 68.5418C32.2078 68.3619 32.0478 68.2619 31.8878 68.1819C31.7378 68.1219 31.5878 68.0819 31.4778 67.9819C31.5578 68.0519 32.2278 67.9619 32.3578 67.9719C32.7578 67.9719 33.1678 67.9619 33.5578 67.9419C34.4878 67.9019 35.9278 68.0219 36.5978 67.222C37.0178 66.722 36.9578 66.0721 36.8378 65.3422ZM10.6078 70.9916L10.6178 70.7516C10.6278 70.4216 10.6378 70.0717 10.6978 69.7317L10.7078 69.6217L10.7878 69.4917C10.8678 69.4017 10.9578 69.3617 11.0778 69.3517C11.5678 69.2917 12.0578 69.2518 12.5578 69.2318L12.9578 69.2118L12.9278 69.6217C12.8678 70.6916 12.8578 71.6715 12.9078 72.6014L12.9278 73.0013L11.4378 72.9513C10.6678 72.9313 10.5578 72.4314 10.5478 71.9614C10.5478 71.7615 10.5678 71.5515 10.5878 71.3515C10.5878 71.2315 10.5978 71.1115 10.6078 70.9916ZM26.1778 69.5117L27.8778 69.5817L27.9178 69.8917C28.0478 70.9016 28.1378 71.9215 28.1878 72.9113L28.2078 73.2913L27.5878 73.3013C27.2778 73.3113 26.9678 73.3113 26.6578 73.3113H26.3378L26.2978 72.9913C26.1878 71.9714 26.1378 70.9216 26.1678 69.8817L26.1778 69.5117ZM17.2078 72.6914L17.2878 73.1413L14.4578 73.0513L14.4378 72.7214C14.3878 71.7315 14.3978 70.6816 14.4678 69.5417L14.4878 69.1918L16.9078 69.2018V69.5717C16.9178 70.6316 17.0278 71.6815 17.2078 72.6914ZM21.1278 72.8214L21.1878 73.2513L18.9078 73.1913L18.8078 72.7714C18.7678 72.6014 18.7278 72.4314 18.6978 72.2614C18.6678 72.0714 18.6278 71.8915 18.6078 71.7015C18.5878 71.5515 18.5778 71.4915 18.5678 71.4215C18.4978 70.8416 18.4778 70.2616 18.4678 69.6017V69.2318L18.8278 69.2418C19.2278 69.2418 19.6078 69.2618 20.0078 69.2817L21.0278 69.3117L20.9978 69.6917C20.9278 70.7116 20.9778 71.7615 21.1278 72.8214ZM23.0478 73.2813L22.7578 73.2713L22.6778 72.8813L22.6478 72.8913L22.5878 72.3114C22.5678 72.1214 22.5478 71.9215 22.5278 71.7315C22.4778 71.1215 22.4678 70.4616 22.5078 69.7317L22.5278 69.3717L24.6378 69.4617L24.6178 69.8217C24.5878 70.8116 24.6278 71.8515 24.7478 72.8913L24.7978 73.3113L23.8178 73.3013C23.5678 73.2913 23.3078 73.2813 23.0478 73.2813ZM29.7478 73.2613L29.7278 72.9013C29.6778 71.9615 29.5978 71.0016 29.4878 70.0617L29.4278 69.6417L30.1778 69.6617C30.2678 69.6717 30.4278 69.6717 30.5778 69.7617C30.8778 69.9317 30.9378 70.2816 30.9678 70.4416L31.4278 73.2013L29.7478 73.2613Z" fill="#1E1E1E"/>
<path d="M31.3177 61.7627C30.9377 62.0727 30.4277 62.1027 29.9577 62.1227C28.7277 62.1527 27.4877 62.0827 26.2677 61.9327C25.6877 62.0327 25.1777 62.1127 24.7577 62.1327C22.3277 62.2827 19.8077 62.2627 17.3977 61.9127C15.9177 61.6927 14.3177 61.6227 13.8277 63.3327C13.1977 64.3427 13.6677 66.1527 15.2277 66.2727C17.7377 66.4627 20.2077 66.9327 22.7077 67.1927C25.1177 67.4427 27.5477 67.0427 29.9277 67.3427C31.7477 67.5827 33.5377 67.9027 35.0777 66.6127C35.1877 66.5227 35.2777 66.4227 35.3677 66.3227L33.7677 66.3927L33.7477 66.0327C33.6977 65.0927 33.6177 64.1327 33.5077 63.2027L33.4477 62.7727L34.1877 62.7927C34.2877 62.8027 34.4477 62.8027 34.5877 62.8927C34.8977 63.0627 34.9577 63.4227 34.9877 63.5727L35.4277 66.2627C36.1577 65.4027 36.1577 64.3127 35.6677 63.1827C35.0277 61.6927 33.4777 61.2427 31.6877 61.2327C31.6277 61.4327 31.5077 61.6127 31.3177 61.7627ZM16.9477 62.7527C16.8877 63.8227 16.8777 64.8027 16.9277 65.7327L16.9477 66.1327L15.4577 66.0827C14.6877 66.0627 14.5777 65.5627 14.5677 65.0927C14.5577 64.8927 14.5777 64.6827 14.5977 64.4827C14.6177 64.3627 14.6277 64.2427 14.6277 64.1227L14.6377 63.8727C14.6577 63.5327 14.6677 63.1927 14.7177 62.8627L14.7377 62.7527L14.8177 62.6227C14.9277 62.5027 15.0577 62.4827 15.0977 62.4827C15.5877 62.4227 16.0877 62.3827 16.5877 62.3627L16.9877 62.3427L16.9477 62.7527ZM18.4877 66.1727L18.4677 65.8427C18.4177 64.8527 18.4177 63.8027 18.4877 62.6627L18.5077 62.3227H20.0977C20.1577 62.3527 20.2177 62.3627 20.2977 62.3627C20.5177 62.3527 20.7177 62.3527 20.9377 62.3427V62.6927C20.9477 63.7527 21.0377 64.8027 21.2377 65.8127L21.3177 66.2627L18.4877 66.1727ZM22.9277 66.3127L22.8377 65.9027C22.7977 65.7227 22.7577 65.5627 22.7277 65.3827C22.6877 65.2027 22.6577 65.0127 22.6377 64.8227C22.6077 64.6727 22.6077 64.6127 22.5977 64.5427C22.5277 63.9627 22.4977 63.4027 22.4977 62.7327L22.4877 62.3527L22.8577 62.3627C23.2477 62.3727 23.6277 62.3827 24.0177 62.4027L25.0477 62.4427L25.0277 62.8127C24.9777 63.8427 25.0277 64.8927 25.1777 65.9427L25.2377 66.3727L22.9277 66.3127ZM27.8677 66.4227C27.6077 66.4227 27.3377 66.4227 27.0677 66.4127H26.7877L26.7077 66.0027C26.6977 65.9427 26.6777 65.8827 26.6677 65.8127C26.6677 65.7827 26.6577 65.7427 26.6577 65.7127C26.6477 65.6927 26.6377 65.6727 26.6377 65.6427L26.6177 65.4327C26.5877 65.2427 26.5777 65.0527 26.5577 64.8527C26.5077 64.2427 26.4977 63.5827 26.5377 62.8527L26.5577 62.4927L28.6577 62.5827L28.6477 62.9427C28.6177 63.9327 28.6577 64.9727 28.7677 66.0227L28.8177 66.4327L27.8677 66.4227ZM31.9477 63.0227C32.0677 64.0327 32.1677 65.0527 32.2077 66.0527L32.2277 66.4327H31.5677C31.2677 66.4427 30.9777 66.4427 30.6777 66.4427H30.3677L30.3277 66.1227C30.2077 65.1027 30.1577 64.0527 30.1977 63.0127L30.2077 62.6427L31.9077 62.7127L31.9477 63.0227Z" fill="#1E1E1E"/>
<path d="M26.2681 61.9321C27.4981 62.0821 28.7281 62.1521 29.9581 62.1221C30.4381 62.1121 30.9481 62.0721 31.3181 61.7621C31.5081 61.6121 31.6181 61.4221 31.7081 61.2221C29.8981 61.2121 27.8481 61.6521 26.2681 61.9321Z" fill="#1E1E1E"/>
<path d="M9.60776 68.3013C9.41776 68.4713 9.29776 68.6813 9.20776 68.9313C9.23776 68.8913 9.26776 68.8413 9.29776 68.8013C9.39776 68.6313 9.49776 68.4613 9.60776 68.3013Z" fill="#1E1E1E"/>
<path d="M12.9778 62.9623C13.3778 62.3123 13.7578 61.7023 14.1078 61.1223C13.3978 61.3823 13.0278 61.9823 12.9778 62.9623Z" fill="#1E1E1E"/>
<path d="M39.4485 19.717C39.4485 19.897 39.5085 20.797 40.4385 20.797H40.4485C40.5485 20.797 40.6585 20.797 40.7585 20.797C44.2585 20.797 47.6885 21.287 50.9685 22.267C53.9885 23.167 57.0885 24.347 59.2485 26.867C59.4885 27.147 59.7485 27.257 60.0385 27.197C60.4185 27.117 60.7885 26.757 60.9285 26.327C61.0185 26.057 61.0485 25.647 60.6985 25.237C59.5185 23.857 58.0285 22.827 56.4685 22.027C56.3985 22.067 56.3285 22.107 56.2585 22.137C55.5685 22.457 54.8685 22.537 54.1985 22.537C54.0685 22.537 53.9385 22.537 53.8185 22.527C53.7285 22.527 53.6485 22.517 53.5585 22.517L53.2085 22.497C53.0985 22.487 52.9985 22.487 52.8885 22.477C52.8285 22.477 52.7785 22.457 52.7285 22.427C51.5985 22.277 50.3985 22.057 49.3685 21.457L49.2585 21.397C48.5585 20.997 47.8385 20.577 47.1885 20.037C46.8485 19.707 46.5485 19.357 46.2885 18.977C44.3885 18.707 42.4485 18.577 40.4785 18.587C39.4685 18.587 39.4385 19.597 39.4485 19.717Z" fill="#1E1E1E"/>
<path d="M50.1484 19.7471C50.3884 19.8671 50.6284 19.9771 50.8784 20.0571C51.3784 20.2371 51.8984 20.3571 52.4684 20.4171H52.5084C52.5084 20.4171 52.5084 20.4171 52.5184 20.4171C52.2884 20.3471 52.0584 20.2671 51.8384 20.2071C51.2784 20.0471 50.7184 19.8971 50.1484 19.7471Z" fill="#1E1E1E"/>
<path d="M49.2383 21.3868L49.3483 21.4468C50.3783 22.0468 51.5783 22.2668 52.7083 22.4168C52.7583 22.4468 52.8183 22.4668 52.8683 22.4668C52.9783 22.4768 53.0783 22.4868 53.1883 22.4868L53.5383 22.5068C53.6183 22.5068 53.7083 22.5068 53.7983 22.5168C53.9283 22.5168 54.0483 22.5268 54.1783 22.5268C54.8483 22.5268 55.5483 22.4568 56.2383 22.1268C56.3083 22.0968 56.3783 22.0468 56.4483 22.0168C55.5883 21.5768 54.7083 21.2068 53.8483 20.8968C53.6883 20.9168 53.5383 20.9368 53.3783 20.9368C53.3683 20.9368 53.3683 20.9368 53.3583 20.9368C53.0483 20.9168 52.7383 20.8868 52.4083 20.8468C51.8183 20.7768 51.2683 20.6568 50.7283 20.4668C50.0483 20.2268 49.4183 19.8768 48.8383 19.4368C47.9783 19.2468 47.1183 19.0968 46.2483 18.9668C46.5183 19.3368 46.8183 19.6968 47.1483 20.0268C47.8083 20.5668 48.5383 20.9868 49.2383 21.3868Z" fill="#1E1E1E"/>
<path d="M52.5084 20.4273H52.4684C51.8984 20.3573 51.3784 20.2473 50.8784 20.0673C50.6284 19.9773 50.3884 19.8673 50.1484 19.7573C49.7184 19.6473 49.2884 19.5473 48.8484 19.4473C49.4284 19.8873 50.0584 20.2273 50.7384 20.4773C51.2784 20.6673 51.8284 20.7973 52.4184 20.8573C52.7484 20.8973 53.0584 20.9273 53.3684 20.9473C53.3784 20.9473 53.3784 20.9573 53.3884 20.9473C53.5484 20.9373 53.6984 20.9273 53.8584 20.9073C53.4084 20.7273 52.9484 20.5773 52.5084 20.4273Z" fill="#1E1E1E"/>
<path d="M65.4882 11.5276C63.3582 5.59825 58.1482 1.02876 52.0782 0.0188725C51.5382 -0.0711174 50.9882 0.158857 50.8382 0.748791C50.7082 1.24873 50.9982 1.93866 51.5382 2.02865C56.8882 2.90855 61.6382 6.78811 63.5382 12.0775C63.9882 13.3374 65.9382 12.7974 65.4882 11.5276Z" fill="#1E1E1E"/>
</svg>
