<svg width="80" height="80" viewBox="0 0 80 80" fill="none" xmlns="http://www.w3.org/2000/svg">
<path d="M74.1302 40.4764C72.9887 30.8284 67.5952 20.1322 59.039 14.892C55.028 12.4363 51.3417 18.6527 55.3423 21.1084C57.7728 22.6908 59.8559 24.7345 61.4688 27.1191C60.2821 26.5048 59.0323 26.0156 57.7404 25.66C53.1953 24.4065 51.2474 31.342 55.7925 32.5956C61.1964 34.0752 64.4744 38.9763 67.8676 43.0143C69.8364 45.3159 74.4863 43.5178 74.1302 40.4764Z" fill="#00A99D"/>
<path d="M13.1159 61.4061C12.142 59.1457 12.6446 56.6899 12.32 54.3062C12.0582 52.3848 10.8224 50.71 8.65454 50.71C6.87418 50.71 4.72728 52.3642 4.9891 54.3062C5.39753 57.3167 4.81106 60.4711 6.03637 63.3172C6.80087 65.1051 8.45561 66.3996 10.5397 65.8345C12.2363 65.3722 13.8804 63.2145 13.1159 61.4061Z" fill="#00A99D"/>
<path d="M51.2053 55.7242C50.5455 53.3301 47.7075 51.2547 45.1416 52.313C44.2379 52.5974 43.4637 53.1825 42.9528 53.9672C42.673 54.4666 42.5119 55.0215 42.4815 55.5906C42.021 56.3955 41.7791 57.3031 41.7791 58.2262C41.7791 59.1492 42.021 60.0567 42.4815 60.8616C42.8465 61.4429 43.3397 61.9364 43.925 62.3058C44.5102 62.6751 45.1726 62.9109 45.863 62.9957C46.5535 63.0805 47.2545 63.0122 47.9145 62.7958C48.5745 62.5794 49.1765 62.2203 49.6763 61.7452C50.4264 60.9486 50.9596 59.9793 51.2269 58.9269C51.4941 57.8745 51.4867 56.773 51.2053 55.7242Z" fill="#00A99D"/>
<path d="M31.3492 20.4923C24.2836 20.2868 17.218 20.2662 10.1525 20.4306C5.45022 20.5436 5.42927 27.736 10.1525 27.623C17.225 27.4586 24.2906 27.4792 31.3492 27.6847C36.0724 27.8286 36.0619 20.6362 31.3492 20.4923Z" fill="#00A99D"/>
<path d="M79.9636 50.5358C80.0893 49.475 79.8887 48.4015 79.3876 47.4534C78.3927 46.0663 76.3296 46.0251 74.434 46.1587L73.083 46.2717C72.486 46.3334 71.931 46.3848 71.4493 46.4053L39.1828 47.5664C38.1331 47.4556 37.0778 47.7181 36.2086 48.3061C35.5315 49.0679 35.1334 50.03 35.0776 51.0393V51.2859C33.7833 58.3705 33.5749 65.6049 34.4596 72.7499V73.2225C34.4596 73.5411 34.5329 73.8495 34.5748 74.1577C34.5774 74.3111 34.6115 74.4623 34.675 74.6025C34.7386 74.7426 34.8304 74.8687 34.9448 74.9732C35.0592 75.0778 35.1939 75.1588 35.3408 75.211C35.4878 75.2633 35.6441 75.2858 35.8002 75.2775C36.2537 75.271 36.6904 75.1078 37.0333 74.8165C37.3762 74.5251 37.6034 74.1246 37.6748 73.6851C37.6902 73.5245 37.6902 73.3629 37.6748 73.2022C37.1518 69.3857 36.959 65.5325 37.0988 61.684C37.1616 59.7729 37.3083 57.8824 37.5282 56.0637C37.6329 55.2109 37.7586 54.3169 37.9157 53.4024C37.9157 53.2483 37.9156 53.0531 37.9785 52.8271C37.991 52.2145 38.1152 51.609 38.3451 51.0393C38.3745 50.987 38.4166 50.9426 38.4678 50.9103C38.519 50.8781 38.5776 50.8588 38.6382 50.8543L40.7328 50.7516L73.9626 49.5596H74.8424C75.2371 49.5661 75.6311 49.5247 76.0154 49.4363C76.0473 49.3984 76.0873 49.3677 76.1325 49.3464C76.1777 49.3251 76.2271 49.3137 76.2772 49.313C76.3544 49.3106 76.4303 49.3322 76.4943 49.3746C76.5582 49.4171 76.6068 49.4782 76.6332 49.5494C76.742 50.2302 76.742 50.9235 76.6332 51.6043C76.6332 51.779 76.6332 51.9125 76.6332 51.9639C76.6332 52.9195 76.6332 53.8648 76.6332 54.8101C76.6332 61.2319 76.5076 67.8797 76.1411 75.1338C76.1413 75.181 76.1313 75.2277 76.112 75.271C76.0927 75.3143 76.0644 75.3532 76.0289 75.3851C75.9934 75.4171 75.9516 75.4413 75.906 75.4564C75.8603 75.4715 75.812 75.4772 75.764 75.4729C74.6225 75.4729 73.4705 75.4112 72.3185 75.4112C68.8939 75.4112 65.4484 75.5757 62.0866 75.7401C60.5995 75.8223 59.1019 75.8942 57.6148 75.9455L37.4653 76.747C37.1865 76.7506 36.9139 76.8279 36.6761 76.9708C36.4384 77.1136 36.2444 77.3168 36.1144 77.5588C35.9595 77.8378 35.8783 78.1504 35.8783 78.4681C35.8783 78.7858 35.9595 79.0984 36.1144 79.3774C36.2503 79.5867 36.4425 79.755 36.6699 79.8638C36.8972 79.9726 37.1508 80.0175 37.4025 79.9938L57.5415 79.1923C59.1438 79.1307 60.7566 79.0485 62.3589 78.9663C67.4544 78.6065 72.5671 78.5448 77.67 78.7814C77.8457 78.7925 78.0219 78.768 78.1877 78.7097C78.3534 78.6513 78.5051 78.5604 78.6336 78.4423C79.0091 78.1037 79.2378 77.6365 79.2724 77.1373C79.6703 70.0066 79.8694 62.9067 79.8484 56.0328C79.8484 54.4094 79.8484 52.786 79.8484 51.1626L79.9636 50.5358Z" fill="#1E1E1E"/>
<path d="M40.8584 32.4519C41.9094 32.5597 42.965 32.2935 43.8327 31.7019C44.5077 30.9428 44.9057 29.9847 44.9637 28.979V28.7324C46.3419 21.176 46.4939 13.4534 45.4141 5.8504C45.4076 5.67845 45.3625 5.50992 45.2822 5.35697C45.2018 5.20402 45.0883 5.07035 44.9493 4.9654C44.8103 4.86044 44.6495 4.78686 44.4782 4.74979C44.3069 4.71272 44.1295 4.71307 43.9584 4.75092C43.7115 4.77764 43.4725 4.85218 43.2553 4.97029C43.038 5.08839 42.847 5.24768 42.693 5.43888C42.5391 5.63007 42.4253 5.8494 42.3585 6.08407C42.2916 6.31874 42.273 6.56409 42.3036 6.80589C42.8232 10.6227 43.0124 14.4758 42.8692 18.324C42.8064 20.2248 42.6597 22.1155 42.4398 23.9444C42.335 24.7972 42.2094 25.6706 42.0523 26.6056C42.0523 26.7597 42.0524 26.9549 41.9895 27.1809C41.9773 27.7902 41.8532 28.3925 41.623 28.9586C41.5957 29.0134 41.5543 29.0601 41.5028 29.0944C41.4514 29.1286 41.3917 29.1491 41.3297 29.1537H40.8689L5.93194 30.4072C5.25423 30.372 4.57481 30.4239 3.91078 30.5614C3.83881 30.6329 3.7409 30.6735 3.63848 30.6744C3.5631 30.6746 3.48939 30.6521 3.42754 30.6098C3.3657 30.5675 3.31864 30.5076 3.2928 30.4381C3.18956 29.7568 3.18956 29.0644 3.2928 28.3831C3.2928 28.2084 3.2928 28.0852 3.2928 28.0235V27.6228C3.2928 26.8111 3.2928 25.9993 3.2928 25.1774C3.2928 18.7453 3.41857 12.0974 3.78511 4.86393C3.79285 4.77028 3.83566 4.68273 3.90528 4.61822C3.9749 4.55371 4.06638 4.51685 4.16212 4.51462C8.6968 4.69956 13.3362 4.51461 17.7766 4.24746L22.2693 4.04201L42.4188 3.25083C42.6984 3.24516 42.9713 3.16591 43.209 3.0213C43.4467 2.87669 43.6404 2.672 43.7698 2.42879C43.9247 2.1498 44.0059 1.83715 44.0059 1.51945C44.0059 1.20175 43.9247 0.889108 43.7698 0.610118C43.6302 0.407547 43.4385 0.244853 43.2141 0.138392C42.9897 0.0319319 42.7407 -0.0144757 42.4922 0.00393617L22.3427 0.795121L17.5043 1.03142C12.4159 1.39131 7.31014 1.45313 2.21421 1.21643H2.13034C1.80248 1.21879 1.48791 1.34369 1.25067 1.56574C0.874911 1.89985 0.645918 2.36396 0.611853 2.86038C0.21389 10.0014 0.0253304 17.1013 0.0358031 23.9649C0.0358031 24.7458 0.0358031 25.5267 0.0358031 26.3076V27.6742C0.0358031 28.0646 0.0358031 28.4551 0.0358031 28.8353V29.4723C-0.0893003 30.5343 0.115159 31.6086 0.622336 32.5548C1.81622 34.2398 4.65433 33.9623 6.90596 33.726C7.5029 33.726 8.04741 33.613 8.52915 33.6027L29.6317 32.8424L40.8584 32.4519Z" fill="#1E1E1E"/>
<path d="M61.1753 32.5957L61.9398 33.243C62.9399 34.1027 63.8778 35.0297 64.7465 36.0173L65.4063 36.7879L65.7938 37.2708C66.2127 37.8256 66.6002 38.3599 66.9458 38.8839L67.239 39.3361C67.7734 40.3931 68.6058 41.2775 69.6373 41.8842C70.0136 42.0923 70.457 42.1507 70.876 42.0475C71.2949 41.9443 71.6574 41.6872 71.8889 41.3293C71.8806 41.2921 71.8806 41.2536 71.8889 41.2163C72.0902 40.8117 72.1563 40.355 72.0774 39.9114C69.9829 26.924 62.7149 17.2143 52.7448 13.9263C52.5163 13.835 52.2666 13.8068 52.0229 13.8448C51.7792 13.8829 51.5507 13.9857 51.3624 14.1421C51.1327 14.3629 50.9627 14.6363 50.8676 14.9377C50.7726 15.239 50.7554 15.5588 50.8178 15.8683C50.8715 16.147 51.0027 16.4057 51.1967 16.616C51.3907 16.8263 51.6401 16.98 51.9175 17.0601C60.2118 19.8035 64.4846 26.9034 66.642 32.3697C66.6741 32.4469 66.6771 32.533 66.6502 32.6121C66.6233 32.6913 66.5685 32.7584 66.4955 32.8013C66.4303 32.853 66.3489 32.8812 66.265 32.8812C66.1812 32.8812 66.0999 32.853 66.0346 32.8013C64.3862 31.0858 62.5453 29.5588 60.547 28.2494C60.3678 28.1438 60.1684 28.0757 59.9612 28.0491C59.754 28.0226 59.5433 28.0383 59.3426 28.0953C59.1238 28.1369 58.9169 28.2247 58.7361 28.3524C58.5553 28.4801 58.4049 28.6449 58.2953 28.8352C58.0834 29.2115 58.0261 29.653 58.1351 30.0694C58.2441 30.4858 58.5113 30.8455 58.8818 31.075C59.4474 31.4449 60.0024 31.8251 60.547 32.2258H60.6202L60.4945 32.5957L60.725 32.3081L61.1753 32.5957Z" fill="#1E1E1E"/>
<path d="M70.098 23.3377C70.252 24.5474 70.2871 25.769 70.2027 26.9853C70.1965 27.19 70.2344 27.3937 70.3138 27.5831C70.3932 27.7725 70.5124 27.9434 70.6636 28.0847C70.8081 28.2433 70.9858 28.3696 71.1846 28.4547C71.3834 28.5398 71.5987 28.5819 71.8155 28.578C72.2536 28.5673 72.6702 28.3897 72.9771 28.0828C73.284 27.7759 73.4571 27.3638 73.4597 26.9339C73.6126 24.715 73.3932 22.4867 72.8104 20.3375C72.7498 20.1191 72.6442 19.9152 72.5001 19.7385C72.356 19.5618 72.1765 19.416 71.9726 19.31C71.7464 19.1825 71.49 19.1151 71.229 19.1147C71.0905 19.1151 70.9528 19.1359 70.8205 19.1765C70.391 19.3005 70.0288 19.5861 69.813 19.971C69.5972 20.356 69.5453 20.8091 69.6686 21.2314C69.8525 21.9249 69.9959 22.6281 70.098 23.3377Z" fill="#1E1E1E"/>
<path d="M28.4901 64.1397C20.1852 61.3963 15.9228 54.2963 13.7549 48.8301C13.723 48.7523 13.72 48.666 13.7461 48.5861C13.7722 48.5063 13.8259 48.4378 13.898 48.3927C13.97 48.3476 14.0558 48.3287 14.1406 48.3392C14.2254 48.3496 14.3039 48.3888 14.3624 48.4499C16.012 50.1651 17.8568 51.6888 19.8606 52.9913C20.0361 53.1008 20.2334 53.1722 20.4393 53.2005C20.6452 53.2289 20.855 53.2136 21.0545 53.1558C21.2725 53.1122 21.4785 53.0238 21.659 52.8963C21.8396 52.7687 21.9905 52.605 22.1017 52.416C22.3127 52.0385 22.3685 51.5961 22.2575 51.1796C22.1464 50.763 21.8771 50.4039 21.5047 50.176C20.9392 49.8061 20.3947 49.426 19.8501 49.0252H19.7767L19.6615 48.9328L19.3055 48.6554L18.5305 48.008C17.5414 47.1404 16.6075 46.2139 15.7343 45.2339C15.5039 44.9804 15.2839 44.7236 15.0745 44.4633L14.6765 43.9804C14.2576 43.4153 13.8806 42.8809 13.535 42.3672L13.2417 41.9151C12.7011 40.859 11.8659 39.9753 10.8331 39.367C10.5538 39.2407 10.2504 39.1741 9.94295 39.1717C9.66816 39.1564 9.39461 39.2191 9.15507 39.352C8.91553 39.485 8.72007 39.6827 8.59193 39.9217C8.59381 39.956 8.59381 39.9902 8.59193 40.0245C8.39108 40.4329 8.32513 40.8927 8.40336 41.3397C10.4979 54.3168 17.766 64.0369 27.7361 67.3248C27.9204 67.3947 28.1176 67.4252 28.3149 67.4145C28.5122 67.4038 28.7049 67.352 28.8802 67.2626C29.0556 67.1732 29.2096 67.0483 29.3319 66.896C29.4542 66.7438 29.542 66.5676 29.5896 66.3795C29.6833 66.1629 29.7289 65.9292 29.7232 65.6939C29.7175 65.4587 29.6607 65.2274 29.5566 65.0154C29.4526 64.8034 29.3036 64.6155 29.1197 64.4645C28.9357 64.3135 28.7211 64.2028 28.4901 64.1397Z" fill="#1E1E1E"/>
<path d="M10.3304 57.8515C10.1851 56.6411 10.1535 55.42 10.2361 54.2039C10.2397 53.9995 10.2007 53.7965 10.1214 53.6075C10.0422 53.4184 9.92446 53.2473 9.77535 53.1045C9.49094 52.8008 9.09559 52.6199 8.67567 52.6011C8.23579 52.6118 7.8176 52.7907 7.5104 53.0998C7.2032 53.4088 7.03138 53.8236 7.03151 54.2553C6.8792 56.4742 7.09854 58.7024 7.68081 60.8517C7.74075 61.0689 7.84492 61.272 7.98712 61.4486C8.12932 61.6252 8.30653 61.7717 8.50807 61.8792C8.6816 61.9749 8.87285 62.0361 9.07057 62.059C9.26829 62.082 9.46867 62.0662 9.66017 62.0128C10.0897 61.8887 10.4519 61.6031 10.6677 61.2182C10.8835 60.8332 10.9354 60.3801 10.8121 59.9578C10.6139 59.2645 10.4532 58.5614 10.3304 57.8515Z" fill="#1E1E1E"/>
<path d="M8.66529 8.50133C8.46604 8.51096 8.27074 8.5595 8.0909 8.64419C7.91106 8.72889 7.7503 8.84801 7.61802 8.99451C7.46213 9.14998 7.34004 9.33488 7.25904 9.53798C7.17804 9.74107 7.13986 9.95816 7.1468 10.1761C7.18417 10.6003 7.38686 10.994 7.71262 11.2754C8.03838 11.5567 8.46217 11.704 8.89578 11.6865L23.725 11.4605C23.9243 11.4509 24.1196 11.4022 24.2994 11.3175C24.4793 11.2328 24.64 11.1138 24.7723 10.9673C24.9282 10.8119 25.0504 10.6269 25.1314 10.4239C25.2124 10.2208 25.2506 10.0037 25.2437 9.78569C25.2063 9.36149 25.0036 8.96779 24.6778 8.68646C24.3521 8.40513 23.9283 8.25787 23.4947 8.27532L8.66529 8.50133Z" fill="#1E1E1E"/>
<path d="M21.9134 17.7488C22.1143 17.7371 22.3107 17.6855 22.4907 17.5972C22.6707 17.5089 22.8306 17.3857 22.9606 17.235C23.1037 17.091 23.2162 16.9206 23.2917 16.7337C23.3672 16.5467 23.4043 16.3469 23.4005 16.1458C23.3657 15.717 23.163 15.3182 22.835 15.0328C22.507 14.7474 22.0791 14.5976 21.6411 14.6149C20.5542 14.6285 19.4696 14.7144 18.3946 14.8717C17.2953 15.0338 16.1861 15.1231 15.0747 15.1389C14.3416 15.1389 13.598 15.1389 12.8859 15.0362C11.4945 14.8731 10.0882 14.8731 8.69682 15.0362C8.26154 15.0573 7.85126 15.2419 7.55099 15.5518C7.25072 15.8617 7.08345 16.2731 7.08399 16.7007C7.11454 16.9486 7.19514 17.188 7.321 17.405C7.44687 17.6219 7.61556 17.8121 7.81715 17.9645C7.95114 18.0704 8.10555 18.1486 8.27111 18.1945C8.43668 18.2404 8.6099 18.2531 8.78056 18.2316C10.2347 18.0624 11.7041 18.0624 13.1582 18.2316C13.8703 18.2316 14.593 18.3241 15.2527 18.3241C16.3327 18.3108 17.4103 18.225 18.4783 18.0672C19.6145 17.884 20.7623 17.7776 21.9134 17.7488Z" fill="#1E1E1E"/>
<path d="M31.4015 23.7901C31.359 23.3623 31.1504 22.9669 30.819 22.6857C30.4876 22.4046 30.0587 22.2593 29.621 22.2797C27.1495 22.1256 18.4676 21.9407 16.0065 22.0126C14.9593 22.0126 13.8177 22.1667 12.739 22.29C11.3891 22.4742 10.0281 22.5702 8.66515 22.5776C8.46811 22.5772 8.27316 22.6173 8.09281 22.6952C7.91246 22.773 7.7507 22.887 7.61788 23.0298C7.45511 23.1903 7.32683 23.3812 7.24049 23.5912C7.15416 23.8012 7.11153 24.026 7.11521 24.2524C7.15263 24.6785 7.35671 25.0738 7.68474 25.3554C8.01277 25.637 8.4393 25.783 8.87468 25.7628C10.2059 25.7533 11.535 25.6608 12.8542 25.4855C13.9015 25.3519 15.0745 25.2286 16.1951 25.1978C18.719 25.1361 27.4218 25.3108 29.8829 25.4752C30.0648 25.4797 30.2458 25.4463 30.4137 25.3773C30.5815 25.3082 30.7326 25.205 30.8569 25.0745C31.0305 24.907 31.1681 24.707 31.2616 24.4864C31.3552 24.2658 31.4028 24.029 31.4015 23.7901Z" fill="#1E1E1E"/>
<path d="M39.2562 8.56286C38.9037 8.01177 38.361 7.60335 37.7271 7.41208C37.4625 7.34596 37.1928 7.30128 36.9207 7.2785H36.6799C36.4985 7.26752 36.3166 7.26752 36.1353 7.2785H35.9783C35.3082 7.2791 34.6529 7.47201 34.0931 7.83338C33.7221 8.0811 33.4052 8.39902 33.1611 8.76843C32.9224 9.16151 32.7857 9.60608 32.7631 10.0631C32.7463 10.4434 32.8113 10.8229 32.9538 11.177C33.0964 11.531 33.3133 11.8516 33.5905 12.118C33.7694 12.2913 33.9659 12.4462 34.1769 12.5804C34.242 12.6209 34.2902 12.6828 34.313 12.7551C34.4228 13.1376 34.6727 13.4669 35.0147 13.6798C35.2976 13.8331 35.6006 13.9472 35.9154 14.0189C36.4026 14.1166 36.9049 14.1166 37.3921 14.0189C38.029 13.8843 38.6052 13.553 39.0362 13.0735L39.1724 12.9092C39.3323 12.7294 39.4662 12.5288 39.5703 12.3132C39.7809 11.885 39.9053 11.4211 39.9369 10.9467C39.9547 10.2304 39.7815 9.52202 39.4342 8.89172C39.3926 8.77372 39.3326 8.66272 39.2562 8.56286Z" fill="#1E1E1E"/>
<path d="M73.7322 70.1814C73.6617 69.9602 73.5467 69.7555 73.3937 69.5789C73.2408 69.4024 73.0532 69.2579 72.8421 69.154C72.6724 69.0625 72.4854 69.0061 72.2926 68.9884C72.0999 68.9708 71.9056 68.9921 71.7216 69.0511C70.8867 69.2603 70.0168 69.2989 69.1662 69.1643L68.4226 69.1026C67.2392 69.0409 66.0453 68.9998 64.8619 68.969C62.5055 68.969 60.0654 68.969 57.6147 69.082C57.2828 69.07 56.9552 69.1587 56.6766 69.3362C56.3981 69.5137 56.1823 69.7713 56.0585 70.0737C55.9348 70.3762 55.9092 70.7088 55.9853 71.026C56.0614 71.3432 56.2355 71.6295 56.4837 71.846C56.6203 71.9827 56.7832 72.0912 56.963 72.1653C57.1428 72.2394 57.336 72.2775 57.531 72.2775C60.0863 72.1542 62.6417 72.1132 65.1132 72.1749C66.3385 72.1749 67.5953 72.2467 68.8311 72.3186H69.3547C70.405 72.469 71.4759 72.3991 72.4965 72.1132C72.9172 72.0105 73.2809 71.7519 73.5113 71.3917C73.7418 71.0315 73.8209 70.5976 73.7322 70.1814Z" fill="#1E1E1E"/>
<path d="M57.2691 61.3551C57.0016 61.3382 56.7346 61.3946 56.4978 61.5179C56.2611 61.6413 56.064 61.8269 55.9286 62.0539C55.7763 62.3226 55.6965 62.6249 55.6965 62.9324C55.6965 63.2398 55.7763 63.5421 55.9286 63.8108C56.0637 64.0455 56.2625 64.2389 56.5028 64.3695C56.7431 64.5001 57.0156 64.5627 57.2901 64.5506C62.2332 64.5506 67.2496 64.4787 72.1927 64.2116C72.6264 64.2091 73.0422 64.0419 73.3527 63.7449C73.6633 63.4479 73.8443 63.0443 73.8578 62.6191C73.8523 62.3964 73.8013 62.177 73.7077 61.974C73.6142 61.771 73.48 61.5886 73.3132 61.4374C73.0344 61.1671 72.658 61.0156 72.266 61.0161C67.3019 61.2833 62.2646 61.3962 57.2691 61.3551Z" fill="#1E1E1E"/>
<path d="M72.2347 56.9058C72.4601 56.9024 72.6826 56.8552 72.8893 56.7671C73.096 56.6789 73.2827 56.5515 73.439 56.392C73.7174 56.1195 73.8755 55.7504 73.8789 55.3646C73.8681 54.9383 73.69 54.5325 73.3817 54.232C73.0734 53.9314 72.6588 53.7593 72.2242 53.7515C69.3442 53.7515 66.4223 53.7515 63.5423 53.7515C63.0606 53.769 62.6054 53.972 62.2752 54.3165C62.024 54.5741 61.8817 54.9157 61.8772 55.2721V55.3337C61.8878 55.7583 62.0645 56.1626 62.3705 56.4629C62.6766 56.7632 63.0886 56.9365 63.5214 56.9469C66.4118 56.875 69.3443 56.8647 72.2347 56.9058Z" fill="#1E1E1E"/>
<path d="M41.1411 58.8688C41.0825 59.0877 41.0825 59.3178 41.1411 59.5367C41.2533 59.9622 41.5267 60.3297 41.9056 60.5642C42.0643 60.6626 42.2328 60.7452 42.4084 60.8108C42.5969 60.8996 42.7931 60.9718 42.9948 61.0265C43.3971 61.1332 43.8146 61.1749 44.2306 61.1498C44.6385 61.1308 45.0409 61.0511 45.4244 60.9135C45.9413 60.7297 46.4177 60.4507 46.8278 60.0914C46.9135 60.0108 46.9939 59.925 47.0687 59.8346L47.1419 59.7421C47.2957 59.5653 47.4292 59.3722 47.5399 59.1667C47.7295 58.8235 47.8604 58.4521 47.9274 58.0673V57.9337C47.9678 57.7131 47.9924 57.4899 48.0007 57.2659C47.9826 56.9798 47.9477 56.6951 47.896 56.4131C47.8743 56.3054 47.8463 56.199 47.8122 56.0945C47.7215 55.8326 47.6095 55.5784 47.4771 55.3342C47.0233 54.5441 46.271 53.961 45.3826 53.7108C45.0649 53.6083 44.7325 53.5563 44.3981 53.5566H44.2411C43.8562 53.565 43.4747 53.6309 43.11 53.7519C42.6127 53.9296 42.1543 54.1979 41.7589 54.543C41.4647 54.808 41.2294 55.1299 41.0678 55.4883C40.7793 56.0536 40.6017 56.6671 40.5442 57.2967C40.5454 57.7747 40.7115 58.2383 41.0154 58.6119C41.0872 58.6801 41.1317 58.7712 41.1411 58.8688Z" fill="#1E1E1E"/>
</svg>
