<svg width="80" height="80" viewBox="0 0 80 80" fill="none" xmlns="http://www.w3.org/2000/svg">
<path d="M53.6863 17.3966C52.709 15.3572 51.7285 13.3178 50.745 11.2784C49.918 9.53889 49.2039 7.27948 47.8038 5.95987C45.3041 3.57056 39.8067 5.53999 36.8372 5.95987C36.2112 6.05193 35.6151 6.30216 35.0987 6.68963C32.9656 6.52968 30.7854 8.21923 31.7909 10.8585C32.9843 14.0175 34.2153 19.1061 37.3728 20.6357C39.1582 21.5054 41.4888 21.4654 43.4152 21.7253L50.8484 22.725C53.5079 23.0149 54.6918 19.466 53.6863 17.3966Z" fill="#00A99D"/>
<path d="M76.4463 39.2599C76.2143 38.3329 75.7688 37.4818 75.1503 36.7837C74.5318 36.0856 73.7597 35.5624 72.9036 35.2611C70.0844 34.2014 67.3216 35.8509 65.9214 38.3902C65.6451 38.6699 65.3993 38.9817 65.1885 39.3198C64.6615 40.1833 64.3617 41.1813 64.3204 42.2099C64.279 43.2384 64.4977 44.26 64.9536 45.1681C67.0492 49.2569 72.133 48.3972 74.5669 45.2382C75.8449 43.5487 76.9632 41.4593 76.4463 39.2599Z" fill="#00A99D"/>
<path d="M6.11747 54.5358C1.68199 60.0242 0.676499 66.6723 0.0186949 73.6703C-0.394782 78.149 6.18326 78.119 6.59674 73.6703C7.0666 68.7217 7.6023 63.4033 10.7692 59.4845C13.5225 56.0855 8.88965 51.1168 6.11747 54.5358Z" fill="#00A99D"/>
<path d="M70.9301 66.972L56.9565 66.7021C52.7277 66.6221 52.7277 73.6201 56.9565 73.7001L70.9301 73.97C75.1682 74.05 75.1682 67.052 70.9301 66.972Z" fill="#00A99D"/>
<path d="M36.339 33.642C36.8181 36.0186 36.5677 38.4959 35.6248 40.7099C34.6776 42.8764 33.1906 44.7253 31.3252 46.056C29.4597 47.3866 27.2872 48.1482 25.0436 48.2577C20.9182 48.4677 15.308 46.5781 12.8272 42.0395C10.4591 37.7607 12.5265 31.4426 15.6463 27.6836C17.8354 25.0819 20.7441 23.2862 23.9536 22.5551C23.4346 21.7674 23.0026 20.9188 22.6661 20.026C22.6621 19.9828 22.6621 19.9392 22.6661 19.896C18.332 21.0454 14.5561 23.8718 12.0755 27.8236C8.82405 32.9921 7.46139 40.8199 12.1318 45.8684C14.234 48.0698 16.8239 49.6717 19.6622 50.5261C22.5005 51.3806 25.4955 51.4601 28.3702 50.757C31.0247 50.0046 33.4362 48.4965 35.3453 46.3951C37.2543 44.2937 38.5888 41.6784 39.2052 38.8304C39.4963 37.1518 39.4963 35.4306 39.2052 33.752C38.2504 33.8771 37.2829 33.84 36.339 33.642Z" fill="#1E1E1E"/>
<path d="M12.4137 52.9363H12.16C11.9477 52.9429 11.7367 52.973 11.5303 53.0262C9.88909 53.4287 8.39557 54.3362 7.23583 55.6356C6.8265 56.0971 6.45544 56.5955 6.12691 57.1251C3.19498 61.8537 1.60694 68.1819 1.63513 74.9399C1.63513 76.3295 1.69144 77.4692 1.79481 78.5289C1.81491 78.8085 1.90594 79.0769 2.05819 79.3058C2.21044 79.5347 2.41825 79.7152 2.6594 79.8284C2.90362 79.9536 3.17345 80.012 3.44426 79.998C3.71507 79.984 3.97828 79.8984 4.20996 79.7486C4.36445 79.6239 4.48323 79.4558 4.55295 79.2633C4.62267 79.0709 4.64049 78.8615 4.60457 78.6588C4.51999 77.749 4.46368 76.7395 4.44489 75.5698C4.2501 69.9631 5.49429 64.4057 8.04398 59.4944C8.56525 58.5565 9.19682 57.6931 9.92342 56.9251L10.0456 56.7751C10.4989 56.3329 10.9862 55.9316 11.5022 55.5755C11.8583 55.3308 12.2003 55.0637 12.5265 54.7757C12.6017 54.7166 12.6682 54.6458 12.7238 54.5658C12.8715 54.3972 12.9753 54.1905 13.0245 53.966C13.0542 53.7452 13.009 53.5203 12.8971 53.3317C12.7852 53.143 12.6138 53.0029 12.4137 52.9363Z" fill="#1E1E1E"/>
<path d="M37.3259 52.9965C37.1165 52.9427 36.9023 52.9124 36.6869 52.9064C36.6026 52.8961 36.5174 52.8961 36.4331 52.9064C36.2478 52.9554 36.0848 53.0728 35.973 53.2375C35.8612 53.4022 35.8079 53.6036 35.8224 53.8062C35.8679 54.0103 35.9654 54.1972 36.1043 54.3461C36.1657 54.4143 36.2316 54.4777 36.3016 54.536C36.6276 54.8042 36.9664 55.0544 37.3165 55.2857C37.8345 55.6211 38.3248 56.0023 38.7824 56.4254C39.5654 57.181 40.2455 58.0492 40.8029 59.0048C43.7822 64.4908 44.9934 70.8628 44.2517 77.1494C44.2164 77.3265 44.2305 77.5108 44.2923 77.6795C44.354 77.8482 44.4608 77.994 44.5994 78.0991C44.8426 78.2549 45.1181 78.3448 45.4017 78.3605C45.6852 78.3761 45.968 78.3173 46.2251 78.1891C46.4542 78.0923 46.6535 77.93 46.8011 77.72C46.9488 77.51 47.0389 77.2606 47.0614 76.9995C47.8038 69.5117 46.2251 62.1638 42.7387 56.8253C41.4582 54.8628 39.5225 53.4936 37.3259 52.9965Z" fill="#1E1E1E"/>
<path d="M6.77529 25.4644C7.15883 25.6727 7.60309 25.7157 8.01567 25.5843C8.16154 25.5374 8.29725 25.4603 8.41498 25.3573C8.53271 25.2544 8.63012 25.1277 8.70165 24.9845C9.09027 24.1605 9.54629 23.3743 10.0643 22.6352C10.7604 21.7114 11.548 20.8701 12.4136 20.1259C13.1794 19.5157 13.9974 18.9835 14.8569 18.5363C15.1513 18.3352 15.3655 18.0255 15.4583 17.6666C15.5507 17.2859 15.5037 16.8821 15.3267 16.5369C15.2034 16.3136 15.0277 16.1281 14.8169 15.9985C14.6061 15.8688 14.3673 15.7994 14.1238 15.7971C13.8565 15.8047 13.5939 15.8729 13.3533 15.9971C10.3174 17.5844 7.84755 20.1769 6.31483 23.385C6.13068 23.7294 6.07571 24.1352 6.16112 24.5209C6.24653 24.9066 6.46598 25.2436 6.77529 25.4644Z" fill="#1E1E1E"/>
<path d="M78.6641 76.4493H74.9052C67.7633 76.4493 60.565 76.5192 53.4513 76.6692C53.2186 76.6581 52.9877 76.7169 52.785 76.8389C52.5822 76.9609 52.4158 77.1412 52.3049 77.3592C52.1708 77.6216 52.1006 77.9155 52.1006 78.2142C52.1006 78.5128 52.1708 78.807 52.3049 79.0694C52.4192 79.269 52.5835 79.4307 52.7793 79.5367C52.9752 79.6426 53.1949 79.6885 53.4138 79.6692C61.7679 79.4892 70.263 79.4193 78.6735 79.4493C78.897 79.4688 79.1209 79.4198 79.3191 79.3081C79.5172 79.1965 79.6812 79.027 79.7917 78.8194C79.9283 78.5579 80 78.2634 80 77.9642C80 77.6649 79.9283 77.3707 79.7917 77.1092C79.6801 76.8984 79.5154 76.725 79.3162 76.6084C79.117 76.4918 78.8911 76.4367 78.6641 76.4493Z" fill="#1E1E1E"/>
<path d="M53.6204 68.4517C53.2428 68.454 52.8806 68.6112 52.6092 68.8905C52.3379 69.1699 52.1783 69.5498 52.1638 69.9513C52.1738 70.1713 52.2247 70.3871 52.3134 70.5861C52.4021 70.7851 52.5269 70.9634 52.6807 71.1108C52.7898 71.224 52.9193 71.3126 53.0614 71.371C53.2036 71.4294 53.3554 71.4565 53.5077 71.4508C55.8476 71.2309 58.2063 71.1108 60.5462 71.1108C63.4695 71.1124 66.3904 71.2893 69.295 71.6407C69.4402 71.6477 69.5851 71.623 69.7208 71.568C69.8566 71.5129 69.9803 71.4289 70.0843 71.321C70.2428 71.1699 70.3718 70.9869 70.4637 70.7828C70.5556 70.5786 70.6087 70.3572 70.6199 70.1311C70.6077 69.7272 70.4476 69.3445 70.1737 69.0643C69.8998 68.7842 69.534 68.6288 69.154 68.6316C63.9953 68.0119 58.7906 67.9517 53.6204 68.4517Z" fill="#1E1E1E"/>
<path d="M59.2586 60.7343C58.5726 60.8043 57.8772 60.8443 57.1819 60.8643C55.7636 60.9 54.3447 60.8365 52.9343 60.6742H52.8498C52.5608 60.6891 52.2883 60.8216 52.0885 61.0442C51.9385 61.1802 51.8173 61.3487 51.733 61.5383C51.6488 61.728 51.6034 61.9345 51.5999 62.1442C51.6118 62.552 51.7707 62.9394 52.0436 63.2261C52.3164 63.5127 52.6825 63.6767 53.0659 63.6842C56.0137 63.998 58.9876 63.8904 61.9086 63.3643C62.0627 63.3228 62.2074 63.2481 62.3335 63.1449C62.4595 63.0417 62.5643 62.9122 62.6416 62.7643C62.8042 62.5052 62.8871 62.1985 62.8784 61.887C62.8698 61.5755 62.7702 61.2745 62.5935 61.026C62.4168 60.7775 62.1717 60.5938 61.8924 60.5003C61.613 60.4068 61.3133 60.4082 61.0347 60.5043L60.0479 60.6542L59.2586 60.7343Z" fill="#1E1E1E"/>
<path d="M79.4063 39.1501C79.1787 38.8586 78.8744 38.6462 78.5325 38.5403L74.4165 37.2307C74.0071 36.2266 73.6924 35.1818 73.4768 34.1116C73.4204 33.8917 73.3639 33.6718 73.2982 33.3919L73.1479 32.9119C73.044 32.565 72.8509 32.2561 72.5905 32.0199C72.33 31.7838 72.0126 31.63 71.6742 31.5759C71.3358 31.5218 70.9899 31.5695 70.6757 31.7138C70.3615 31.858 70.0915 32.0931 69.8964 32.3921L67.5565 35.9811C67.2652 36.4309 66.0811 36.311 65.1226 36.211H65.0099C64.5636 36.1571 64.1151 36.1271 63.666 36.121H63.1869C62.8504 36.1358 62.5238 36.2463 62.2413 36.4413C61.9588 36.6362 61.7306 36.9083 61.5808 37.2291C61.431 37.5499 61.3649 37.9077 61.3896 38.265C61.4142 38.6222 61.5286 38.966 61.7208 39.2601L64.3145 42.8591C64.1547 43.3989 64.0138 43.9188 63.8917 44.3887C63.6936 45.2931 63.4102 46.174 63.0459 47.0179C63.0167 47.0711 62.9945 47.1282 62.98 47.1878C62.8928 47.4579 62.8631 47.7453 62.893 48.0291C62.9228 48.3129 63.0115 48.5861 63.1527 48.829C63.2938 49.0719 63.4839 49.2785 63.7091 49.4338C63.9344 49.5891 64.1894 49.6893 64.4555 49.7271C64.7492 49.7762 65.0499 49.7453 65.3293 49.6371L69.3608 48.1376L70.1595 48.7574C70.2282 48.815 70.3041 48.862 70.385 48.8972C70.7215 49.1008 71.0366 49.3422 71.3248 49.6171C71.9852 50.3336 72.8518 50.7945 73.7868 50.9267C73.9274 50.9414 74.0691 50.9414 74.2098 50.9267C74.4389 50.8715 74.6559 50.7697 74.8487 50.6268C75.9106 50.117 75.7885 48.7773 75.7133 47.6876C75.7133 47.5077 75.7133 47.3177 75.7133 47.1778V44.7085L75.8449 44.6086L76.2677 44.2786L76.3993 44.1686C76.7549 43.8024 77.1383 43.468 77.5457 43.1689C78.4055 42.6143 79.1505 41.8797 79.7353 41.0096C79.8959 40.7429 79.9594 40.4229 79.9138 40.1099C79.8297 39.7469 79.6542 39.415 79.4063 39.1501ZM76.061 41.0395C75.5775 41.3743 75.1217 41.7522 74.6984 42.1692L74.3225 42.4592L73.9372 42.7491C73.6982 42.9373 73.5046 43.1832 73.3723 43.4664C73.2399 43.7497 73.1728 44.0623 73.1761 44.3787L73.2418 47.2078C73.2418 47.3877 73.2418 47.5877 73.2418 47.8476C73.2472 47.8941 73.2472 47.9411 73.2418 47.9876L72.7908 47.5977C72.3813 47.2095 71.9302 46.8739 71.4469 46.598L70.5072 45.8482C70.298 45.68 70.0564 45.5632 69.7997 45.5061C69.543 45.4491 69.2775 45.4533 69.0225 45.5183C68.9545 45.529 68.8882 45.5491 68.8252 45.5783L65.7335 46.7279C65.9214 46.1481 66.0718 45.5783 66.2127 44.9985C66.3537 44.4186 66.5041 43.8987 66.692 43.3289C66.7762 43.0309 66.7954 42.7163 66.7483 42.4091C66.698 42.0973 66.5788 41.8027 66.4006 41.5494L64.3708 38.7203H64.8783C66.457 38.8802 68.4305 39.0802 69.5206 37.3907L71.1463 34.9013C71.4175 36.2641 71.8666 37.5798 72.4806 38.8102C72.5381 38.9067 72.6042 38.9971 72.678 39.0801C72.8924 39.2947 73.1492 39.4553 73.4297 39.55L76.606 40.5497L76.061 41.0395Z" fill="#1E1E1E"/>
<path d="M50.0027 37.0611C49.8313 36.7036 49.7752 36.2961 49.8429 35.9014C49.8797 35.7297 49.9399 35.5647 50.0215 35.4116C50.0939 35.2669 50.1317 35.1056 50.1317 34.9417C50.1317 34.7779 50.0939 34.6165 50.0215 34.4719C49.8813 34.254 49.8062 33.9962 49.8062 33.7321C49.8062 33.4681 49.8813 33.2102 50.0215 32.9923C50.1857 32.7877 50.3647 32.5971 50.5571 32.4224C50.5571 32.4224 50.5571 32.3625 50.5571 32.3425C50.5571 32.3225 50.5571 32.3424 50.5571 32.2825C50.4913 29.9331 50.2564 25.6244 50.0872 23.2851C50.5383 23.1651 51.0833 24.9546 51.4968 24.7047C51.9339 24.4475 52.3382 24.1318 52.6997 23.765C52.9252 26.4243 53.038 29.1035 53.0568 31.7627C53.2347 32.0618 53.3292 32.4085 53.3292 32.7624C53.3292 32.7624 53.3292 32.8923 53.3292 32.9623V33.0723C53.3016 33.1991 53.2998 33.3309 53.3242 33.4585C53.3485 33.5861 53.3983 33.7067 53.4702 33.812C53.6508 34.1086 53.7365 34.4592 53.7145 34.8118C53.7133 35.0201 53.6509 35.2229 53.536 35.3917L53.3199 35.6116C53.1986 35.762 53.1251 35.9493 53.1099 36.1468C53.0947 36.3443 53.1386 36.5419 53.2353 36.7112C53.3507 36.9091 53.4263 37.1304 53.457 37.3611C53.4877 37.5917 53.4731 37.8265 53.4139 38.0508C53.357 38.251 53.2645 38.4377 53.1413 38.6007C53.0647 38.7171 53.014 38.8503 52.9929 38.9906C52.9717 39.1308 52.9807 39.2744 53.0191 39.4104C53.0678 39.6036 53.0678 39.8071 53.0191 40.0003C52.9728 40.2983 52.8216 40.5663 52.5963 40.7501C52.5103 40.8231 52.409 40.8729 52.301 40.8956C52.1931 40.9182 52.0817 40.9129 51.9761 40.8801L50.2 40.2002C50.0212 40.131 49.864 40.0101 49.7462 39.8512C49.6283 39.6923 49.5545 39.5015 49.5328 39.3004C49.4974 39.0886 49.5106 38.8707 49.5711 38.6654C49.6317 38.46 49.7378 38.2733 49.8805 38.1209C49.9929 37.9746 50.0641 37.7973 50.0857 37.6098C50.1074 37.4222 50.0785 37.232 50.0027 37.0611Z" fill="#1E1E1E"/>
<path d="M24.2165 5.73003C24.2534 5.79006 24.2849 5.8536 24.3106 5.91991L31.3866 16.6568L31.7719 17.2167C32.4053 18.0178 32.8813 18.9458 33.1721 19.9459C33.2004 20.0255 33.235 20.1023 33.2754 20.1758C33.2998 20.2196 33.3188 20.2667 33.3319 20.3158C33.35 20.3643 33.3719 20.4112 33.3976 20.4557C33.4465 20.5767 33.5213 20.684 33.6159 20.769C33.7105 20.854 33.8224 20.9145 33.9427 20.9456C37.8459 21.554 41.7071 22.4357 45.5012 23.5848C46.7416 23.9547 47.8788 24.3246 48.9782 24.7045C50.2623 24.882 51.5551 24.9789 52.8499 24.9944C52.8683 24.8652 52.8683 24.7338 52.8499 24.6045C52.8582 24.5282 52.8582 24.451 52.8499 24.3746C52.8622 24.1549 52.806 23.9371 52.6901 23.7548C52.6901 23.7548 52.6901 23.7548 52.6055 23.7548L52.5209 23.6648L45.4543 12.9179L45.069 12.3581C44.4327 11.5575 43.9534 10.6296 43.6594 9.62892C43.6405 9.5503 43.6087 9.47575 43.5654 9.40889L43.4996 9.25903L43.4433 9.11906C43.3922 8.99777 43.3156 8.89047 43.2195 8.80555C43.1233 8.72063 43.0102 8.66037 42.8887 8.62921C37.0387 7.72315 31.2856 6.21312 25.7107 4.12051H25.6073C25.4078 3.99033 25.17 3.94399 24.9401 3.99054H24.8179C24.6927 4.02659 24.5726 4.08043 24.4608 4.15053C24.4186 4.16883 24.3802 4.19599 24.3481 4.23046C24.3198 4.27615 24.2884 4.31959 24.2541 4.36043L24.132 4.54031L24.0568 4.69029L23.9722 4.85028C23.9516 5.00697 23.9628 5.16655 24.005 5.31828C24.0471 5.47001 24.1192 5.61039 24.2165 5.73003ZM30.992 9.52897L32.1384 9.76889L38.1432 11.0384C39.0867 11.1181 40.0142 11.3438 40.8965 11.7083C42.3719 12.598 43.4526 14.7074 44.195 16.3469C44.6178 17.3466 45.022 18.2864 45.4449 19.2561L45.9805 20.5058C45.9805 20.6057 46.0651 20.7056 46.112 20.8056C45.6234 20.7156 45.1159 20.4957 44.7776 20.4057L41.6578 19.556L36.1416 18.0564C36.1155 17.9158 36.0679 17.7807 36.0006 17.6565C35.0547 16.0969 34.1149 14.5308 33.1815 12.9579L31.8189 10.7186C31.6968 10.5286 31.3115 10.0388 30.992 9.52897Z" fill="#1E1E1E"/>
<path d="M20.5986 22.1154C20.9308 22.5444 21.177 23.041 21.3222 23.5749C21.3222 23.7049 21.4162 23.8249 21.4726 23.9548L21.6605 24.2348C21.7827 24.4247 21.9237 24.6046 22.0647 24.7845C24.8758 27.1701 27.7989 29.4024 30.8228 31.4727C32.3766 32.6461 34.0829 33.5722 35.8879 34.2219C35.9502 34.2119 36.0135 34.2119 36.0758 34.2219C37.2692 34.4618 38.5003 34.5918 39.7219 34.7317C40.1263 34.6497 40.5162 34.5012 40.8778 34.2918C41.9964 33.5608 42.9571 32.5864 43.6969 31.4326C44.5854 30.2744 45.3104 28.9846 45.8489 27.6038C45.9963 27.2725 46.0616 26.9066 46.0385 26.5409C46.0155 26.1752 45.9049 25.8219 45.7173 25.5144C45.4966 25.2499 45.1876 25.0872 44.856 25.0611C44.5244 25.0349 44.1962 25.1474 43.9413 25.3745C43.7328 25.5434 43.5659 25.7634 43.4546 26.0158C43.3434 26.2682 43.2911 26.5455 43.3023 26.824L41.0093 30.8228V30.8729C40.9021 31.0713 40.7271 31.218 40.5208 31.2827C39.2044 31.594 37.8273 31.4141 36.6209 30.7729C35.3805 30.2131 34.2058 29.5732 32.9654 28.8734C29.7979 26.9743 26.8599 24.6713 24.2165 22.0155C24.0098 21.6855 23.8031 21.3556 23.587 21.0157C24.0663 20.3959 24.5267 19.7761 24.9778 19.1263C25.6667 18.305 26.2082 17.3562 26.5752 16.327C27.0075 14.4376 25.3254 13.9677 24.1226 15.0774C22.7318 16.347 21.6417 18.7464 20.9275 20.5159C20.7153 21.0192 20.6034 21.5638 20.5986 22.1154Z" fill="#1E1E1E"/>
<path d="M40.2293 2.66094C40.1171 2.56361 39.9852 2.49523 39.844 2.46105C36.9854 1.81167 34.162 0.997428 31.3865 0.0218177C31.2549 -0.00789445 31.1189 -0.00727428 30.9876 0.0237702C30.8562 0.0548147 30.7328 0.115492 30.6254 0.201697C30.4517 0.260334 30.2914 0.356685 30.1545 0.484696C30.0177 0.612706 29.9074 0.769624 29.8306 0.945377C29.7537 1.12113 29.712 1.31196 29.7081 1.50576C29.7042 1.69956 29.7382 1.89205 29.8079 2.07115C29.8382 2.25127 29.9122 2.41985 30.0226 2.56014C30.133 2.70043 30.276 2.8076 30.4374 2.87096L30.5878 2.93088C31.072 3.18669 31.5788 3.39095 32.1007 3.54069L32.3639 3.62075C33.3694 3.99064 34.3843 4.34054 35.418 4.62046C36.2543 4.86039 37.1 5.07034 37.9552 5.26028C38.3696 5.42256 38.8192 5.45511 39.2505 5.35413C39.6818 5.25314 40.077 5.02278 40.3891 4.69038C40.906 4.06056 40.9341 2.86088 40.2293 2.66094Z" fill="#1E1E1E"/>
</svg>
