<svg width="80" height="80" viewBox="0 0 80 80" fill="none" xmlns="http://www.w3.org/2000/svg">
<path d="M13.629 60.4895C13.699 59.6895 13.779 58.8995 13.849 58.0995C13.869 57.8795 13.829 57.4795 13.889 57.2595C13.639 57.3795 13.049 57.2595 12.779 57.2595C12.499 57.2595 12.219 57.2595 11.939 57.2595C11.299 57.2595 10.659 57.2595 10.019 57.2595L6.06904 57.2695C5.84904 57.2695 5.47904 57.2395 5.10904 57.2395C4.53904 57.5795 4.02904 58.0395 3.58904 58.5895C3.55904 58.9195 3.55904 59.2495 3.53904 59.4895C3.47904 60.1695 3.43904 60.8495 3.42904 61.5395C3.39904 62.9495 3.45904 64.3595 3.62904 65.7595C3.64904 65.8795 3.70904 66.0895 3.70904 66.2295C3.86904 66.2295 4.18904 66.3295 4.30904 66.3495C4.89904 66.4195 5.49904 66.4295 6.08904 66.4195C8.31904 66.3795 10.529 66.0495 12.739 66.3695C12.899 66.2395 13.059 66.0895 13.209 65.9395C13.159 65.8095 13.139 65.6695 13.149 65.5195C13.319 63.8495 13.479 62.1695 13.629 60.4895Z" fill="#00A99D"/>
<path d="M13.2789 43.4188C13.2189 41.8788 12.7489 40.5088 11.4989 39.6988C11.3689 39.6188 11.2289 39.5588 11.0889 39.4788C10.4189 39.4588 9.7489 39.4288 9.0789 39.4088C7.2189 39.3488 5.3589 39.2988 3.4889 39.2688C3.0989 39.6388 2.8089 40.1288 2.6189 40.6788C2.6189 40.7588 2.6289 40.8388 2.6289 40.9088C2.6589 41.9688 2.6989 43.0388 2.7389 44.0988C2.7789 45.1588 2.8089 46.2288 2.8489 47.2888C2.8589 47.6688 2.8789 48.0488 2.8889 48.4288C2.9989 48.7188 3.1089 48.9988 3.2589 49.2688C3.2889 49.3288 3.3289 49.3788 3.3689 49.4288C3.5289 49.4188 3.6989 49.4188 3.8589 49.4088C4.2989 49.3888 4.7289 49.3788 5.1689 49.3588C6.1289 49.3188 7.0889 49.2788 8.0489 49.2288C9.5389 49.1588 11.0289 49.0588 12.5089 48.9688C13.3789 47.4588 13.3489 45.2488 13.2789 43.4188Z" fill="#00A99D"/>
<path d="M2.2891 30.4586C5.4591 30.5286 8.6091 31.0386 11.7291 31.6286C11.7991 31.5786 11.8691 31.5186 11.9391 31.4586C11.9991 29.8686 12.0591 28.2786 12.1191 26.6886L12.2391 23.5386C12.2591 23.0086 12.2791 22.4886 12.2991 21.9586C12.2991 21.8386 12.3091 21.7286 12.3091 21.6086C12.0291 21.2486 11.6791 20.9586 11.2691 20.7786C11.0991 20.7586 10.9291 20.7386 10.7691 20.7086C10.5191 20.6686 10.2691 20.6186 10.0091 20.5786C9.8291 20.5986 9.6391 20.6286 9.4491 20.6786C8.9191 20.8286 8.4391 21.0686 7.9491 21.3386C7.9391 21.3386 7.9391 21.3486 7.9291 21.3486C7.7791 21.2686 7.6191 21.1986 7.4391 21.1486C5.8291 20.6486 3.7291 20.3886 2.2991 21.1586C1.9691 24.2386 1.9491 27.3686 2.2891 30.4586Z" fill="#00A99D"/>
<path d="M61.6759 23.6985C47.3267 23.3385 32.9674 23.4085 18.6282 23.8885C16.8783 23.9485 16.8683 26.0685 18.6282 26.0185C32.9674 25.5285 47.3267 25.4685 61.6759 25.8285C63.4258 25.8685 63.4258 23.7485 61.6759 23.6985Z" fill="#1E1E1E"/>
<path d="M18.3483 43.5088C23.9583 43.5788 29.5583 43.6488 35.1683 43.7188C36.5483 43.7388 36.5483 41.3788 35.1683 41.3588C29.5583 41.2888 23.9583 41.2188 18.3483 41.1488C16.9783 41.1288 16.9783 43.4888 18.3483 43.5088Z" fill="#1E1E1E"/>
<path d="M55.1463 43.5088C60.7563 43.5788 66.3563 43.6488 71.9663 43.7188C73.3463 43.7388 73.3463 41.3788 71.9663 41.3588C66.3563 41.2888 60.7563 41.2188 55.1463 41.1488C53.7663 41.1288 53.7663 43.4888 55.1463 43.5088Z" fill="#1E1E1E"/>
<path d="M50.7874 43.3489C52.1674 43.3989 52.1574 41.039 50.7874 40.989C47.0074 40.849 43.2374 40.959 39.4774 41.309C38.1174 41.439 38.1074 43.7989 39.4774 43.6689C43.2374 43.3189 47.0074 43.2089 50.7874 43.3489Z" fill="#1E1E1E"/>
<path d="M18.2083 60.8698C20.4683 60.7098 22.7083 60.7998 24.9383 61.1998C26.2883 61.4398 26.8683 59.1698 25.5083 58.9198C23.0783 58.4798 20.6683 58.3298 18.2083 58.5098C16.8383 58.6098 16.8283 60.9698 18.2083 60.8698Z" fill="#1E1E1E"/>
<path d="M78.5251 58.8299C62.256 59.2699 45.9668 59.2199 29.6977 58.7099C27.7378 58.6499 27.7378 61.0099 29.6977 61.0699C45.9668 61.5899 62.256 61.6299 78.5251 61.1899C80.485 61.1399 80.485 58.7799 78.5251 58.8299Z" fill="#1E1E1E"/>
<path d="M70.3359 26.1386C72.2959 26.1386 72.2959 23.7786 70.3359 23.7786H67.0459C65.0859 23.7786 65.0859 26.1386 67.0459 26.1386H70.3359Z" fill="#1E1E1E"/>
<path d="M48.0571 65.6598C50.0171 65.6598 50.0171 63.2998 48.0571 63.2998H44.7671C42.8071 63.2998 42.8071 65.6598 44.7671 65.6598H48.0571Z" fill="#1E1E1E"/>
<path d="M18.5881 27.2186C17.2181 27.2486 17.2081 29.6086 18.5881 29.5786C21.4581 29.5286 24.3281 29.4786 27.1981 29.4186C28.5681 29.3886 28.5781 27.0286 27.1981 27.0586C24.3281 27.1086 21.4581 27.1586 18.5881 27.2186Z" fill="#1E1E1E"/>
<path d="M45.2168 45.0892C43.8468 45.1192 43.8368 47.4792 45.2168 47.4492C48.0868 47.3992 50.9568 47.3492 53.8268 47.2892C55.1968 47.2592 55.2068 44.8992 53.8268 44.9292C50.9568 44.9892 48.0868 45.0392 45.2168 45.0892Z" fill="#1E1E1E"/>
<path d="M29.5177 45.2491C25.7979 45.2391 21.8781 44.5491 18.1983 45.1291C16.8383 45.3391 17.4183 47.6191 18.7682 47.4091C20.5981 47.1191 22.528 47.4391 24.3779 47.5091C26.2978 47.5791 28.2177 47.6191 30.1376 47.6191C33.9774 47.6191 37.8072 47.4491 41.637 47.1491C42.9969 47.0391 43.0169 44.6791 41.637 44.7891C37.5972 45.0991 33.5574 45.2591 29.5177 45.2491Z" fill="#1E1E1E"/>
<path d="M39.7271 63.1994C32.5975 63.2494 25.4779 63.0094 18.3683 62.4894C16.9983 62.3894 16.9983 64.7494 18.3683 64.8494C25.4779 65.3694 32.6075 65.5994 39.7271 65.5594C41.1071 65.5494 41.1071 63.1894 39.7271 63.1994Z" fill="#1E1E1E"/>
<path d="M12.9892 68.6894C14.2792 68.9794 14.8292 66.7894 13.5392 66.5094C13.2792 66.4494 13.0292 66.4094 12.7692 66.3694C11.5292 67.3994 9.9692 68.0094 8.3692 68.2694C6.5792 68.5594 4.6192 68.3394 3.2792 66.8294C2.0492 65.4494 1.9892 63.3994 2.2792 61.5994C2.4592 60.4694 2.9392 59.4294 3.6092 58.5794C3.6392 58.2294 3.6892 57.8894 3.8292 57.6594C4.0492 57.2994 4.5992 57.2194 5.1292 57.2194C6.2292 56.5694 7.5092 56.3794 8.7692 56.9294C8.9692 56.6594 9.2292 56.4094 9.5492 56.1994C11.1992 55.0994 13.3392 55.5394 14.4492 57.2994C15.3792 58.7694 15.4992 60.6394 15.1392 62.3594C14.8292 63.8494 14.1492 65.0194 13.2392 65.9194C13.3992 66.3294 13.8192 66.6394 14.2092 66.6394C14.8092 66.6394 15.1792 66.1194 15.2392 65.5094L15.7292 60.2094C15.8492 58.8794 16.3492 57.0094 15.5692 55.8194C14.7192 54.5794 12.7992 54.9994 11.5892 54.9994C9.9892 54.9994 8.3892 55.0094 6.7992 55.0094C5.5692 55.0094 4.1592 54.8494 3.0292 55.5094C1.7192 56.2794 1.6492 57.9194 1.5092 59.3694C1.3492 61.0694 1.3392 62.7894 1.4692 64.4894C1.5792 65.9594 1.5092 67.9994 3.0992 68.4194C6.3392 69.2794 9.7192 67.9694 12.9892 68.6894Z" fill="#1E1E1E"/>
<path d="M15.1289 62.3796C15.4889 60.6596 15.3689 58.7896 14.4389 57.3196C13.3189 55.5596 11.1889 55.1196 9.5389 56.2196C9.2189 56.4296 8.9589 56.6796 8.7589 56.9496C7.5089 56.3996 6.2189 56.5796 5.1189 57.2396C5.4889 57.2396 5.8489 57.2696 6.0789 57.2696L10.0289 57.2596C10.6689 57.2596 11.3089 57.2596 11.9489 57.2596C12.2289 57.2596 12.5089 57.2596 12.7889 57.2596C13.0589 57.2596 13.6489 57.3896 13.8989 57.2596C13.8389 57.4796 13.8789 57.8696 13.8589 58.0996C13.7889 58.8996 13.7089 59.6896 13.6389 60.4896C13.4789 62.1696 13.3289 63.8496 13.1689 65.5296C13.1589 65.6796 13.1789 65.8196 13.2289 65.9496C14.1289 65.0396 14.8189 63.8596 15.1289 62.3796Z" fill="#1E1E1E"/>
<path d="M6.10917 66.4196C5.51917 66.4296 4.91917 66.4196 4.32917 66.3496C4.20917 66.3396 3.88917 66.2396 3.72917 66.2296C3.72917 66.0896 3.65917 65.8896 3.64917 65.7596C3.47917 64.3596 3.41917 62.9496 3.44917 61.5396C3.45917 60.8596 3.49917 60.1696 3.55917 59.4896C3.57917 59.2396 3.58917 58.9096 3.60917 58.5896C2.93917 59.4296 2.45917 60.4796 2.27917 61.6096C1.98917 63.3996 2.04917 65.4596 3.27917 66.8396C4.61917 68.3496 6.56917 68.5696 8.36917 68.2796C9.97917 68.0196 11.5392 67.4096 12.7692 66.3796C10.5492 66.0496 8.33917 66.3796 6.10917 66.4196Z" fill="#1E1E1E"/>
<path d="M12.2493 37.2487C10.4893 37.1787 8.72927 37.1187 6.97927 37.0787C6.18927 37.0587 5.39927 37.0387 4.60927 37.0187C3.78927 36.9987 2.82927 36.8287 2.03927 37.0587C0.339269 37.5487 0.559269 39.9987 0.609269 41.4887C0.679269 43.4187 0.749269 45.3587 0.809269 47.2887C0.839269 48.2087 0.829269 49.1487 0.909269 50.0687C0.979269 50.8787 1.36927 51.5187 2.11927 51.6887C2.98927 51.8787 4.01927 51.6787 4.89927 51.6487C5.85927 51.6087 6.81927 51.5687 7.77927 51.5187C9.64927 51.4287 11.5193 51.3187 13.3893 51.1887C13.8793 51.8587 15.1793 51.6187 15.2593 50.4787C15.3893 48.5587 15.5193 46.6287 15.6493 44.7087C15.7793 42.8087 16.0493 40.8387 16.0393 38.9387C16.0293 36.8487 13.5293 37.2987 12.2493 37.2487ZM13.9793 39.5587C13.9493 39.7487 13.9193 39.9487 13.9093 40.0887C13.8793 40.5687 13.8393 41.0487 13.8093 41.5287C13.7393 42.5387 13.6693 43.5487 13.5993 44.5587C13.4993 46.0187 13.3993 47.4687 13.2993 48.9287C13.0293 48.9487 12.7693 48.9587 12.4993 48.9787C12.0793 49.7087 11.4493 50.2887 10.4993 50.5687C9.35927 50.9087 7.98927 50.8687 6.80927 50.9787C5.47927 51.0987 4.13927 50.6887 3.35927 49.4387C3.25927 49.4387 3.16927 49.4487 3.06927 49.4487C3.01927 49.4487 2.96927 49.4487 2.90927 49.4587C2.90927 49.2687 2.91927 49.0687 2.90927 48.8887C2.89927 48.7387 2.89927 48.5887 2.88927 48.4387C2.56927 47.4687 2.49927 46.3787 2.39927 45.3887C2.28927 44.1787 2.28927 42.9687 2.38927 41.7587C2.41927 41.3887 2.49927 41.0287 2.60927 40.6887C2.58927 40.2587 2.57927 39.8187 2.64927 39.3987C2.65927 39.3487 2.66927 39.3087 2.66927 39.2687C2.85927 39.2787 3.07927 39.2687 3.25927 39.2687C3.32927 39.2687 3.39927 39.2687 3.47927 39.2787C3.95927 38.8187 4.57927 38.5187 5.31927 38.5187C5.82927 38.5187 6.34927 38.6987 6.79927 38.9987C7.08927 38.8887 7.38927 38.8187 7.70927 38.7887C8.82927 38.6987 10.0393 38.9387 11.0693 39.4887C11.3193 39.4987 11.5793 39.5087 11.8293 39.5187C12.3093 39.5387 12.7993 39.5587 13.2793 39.5787C13.5093 39.5687 13.7493 39.5587 13.9793 39.5587Z" fill="#1E1E1E"/>
<path d="M11.089 39.479C10.059 38.929 8.84902 38.689 7.72902 38.779C7.41902 38.799 7.10902 38.879 6.81902 38.989C6.35902 38.689 5.83902 38.509 5.33902 38.509C4.59902 38.509 3.97902 38.799 3.49902 39.269C5.35902 39.309 7.22902 39.349 9.08902 39.409C9.74902 39.429 10.419 39.449 11.089 39.479Z" fill="#1E1E1E"/>
<path d="M5.1689 49.369C4.7289 49.389 4.2989 49.399 3.8589 49.419C3.6989 49.429 3.5289 49.429 3.3689 49.439C4.1589 50.689 5.4989 51.099 6.8189 50.979C7.9989 50.869 9.3589 50.909 10.5089 50.569C11.4589 50.289 12.0889 49.719 12.5089 48.979C11.0189 49.079 9.5289 49.169 8.0489 49.239C7.0889 49.289 6.1289 49.329 5.1689 49.369Z" fill="#1E1E1E"/>
<path d="M1.31922 19.6683C0.70922 19.6683 0.36922 20.1883 0.28922 20.7983C-0.14078 24.4983 -0.0807797 28.1983 0.39922 31.8783C0.45922 32.3583 0.97922 32.7083 1.38922 32.7083C5.17922 32.6883 8.90922 33.3783 12.6292 34.0883C13.2992 34.2183 13.8992 33.7883 13.9292 32.9983C14.0092 30.9483 14.0892 28.8883 14.1592 26.8383C14.2392 24.7983 14.4192 22.7183 14.3892 20.6783C14.3792 19.7683 13.9992 19.0783 13.1692 18.8483C12.3192 18.6183 11.4192 18.5383 10.5492 18.3883C8.68922 18.0683 6.83922 17.7383 4.97922 17.4183C4.42922 17.3183 3.87922 17.5683 3.71922 18.2083C3.58922 18.7483 3.88922 19.5083 4.43922 19.5983C5.87922 19.8483 7.30922 20.0983 8.74922 20.3483C9.16922 20.4183 9.59922 20.4983 10.0192 20.5683C10.4792 20.5283 10.9092 20.5983 11.2792 20.7683C11.6292 20.8183 11.9892 20.8583 12.3392 20.9383C12.3392 21.0383 12.3292 21.1383 12.3292 21.2383C12.3292 21.3583 12.3192 21.4783 12.3192 21.6083C12.9792 22.4683 13.2592 23.7083 13.0192 24.7883C13.7792 26.9683 13.9592 29.4183 12.2692 31.1683C12.1692 31.2783 12.0592 31.3683 11.9492 31.4583C11.9492 31.5283 11.9392 31.5983 11.9392 31.6683C11.8692 31.6583 11.8092 31.6483 11.7392 31.6283C9.57922 33.2683 6.73922 32.1983 4.37922 31.5383C2.84922 31.1083 1.56922 30.3083 1.09922 28.5283C0.78922 27.3483 0.66922 25.6283 0.66922 24.4183C0.66922 22.6783 1.34922 21.6783 2.32922 21.1583C2.33922 21.0383 2.34922 20.9283 2.35922 20.8083C2.41922 20.1983 1.81922 19.6683 1.31922 19.6683Z" fill="#1E1E1E"/>
<path d="M11.2788 20.7679C10.9088 20.5979 10.4888 20.5179 10.0188 20.5679C10.2688 20.6079 10.5188 20.6579 10.7788 20.6979C10.9388 20.7279 11.1088 20.7479 11.2788 20.7679Z" fill="#1E1E1E"/>
<path d="M12.2385 23.5386L12.1185 26.6886C12.0585 28.2786 11.9985 29.8686 11.9385 31.4586C12.0485 31.3686 12.1585 31.2686 12.2585 31.1686C13.9485 29.4186 13.7685 26.9686 13.0085 24.7886C13.2585 23.7086 12.9785 22.4686 12.3085 21.6086C12.3085 21.7286 12.2985 21.8386 12.2985 21.9586C12.2785 22.4786 12.2585 23.0086 12.2385 23.5386Z" fill="#1E1E1E"/>
<path d="M0.65918 24.4184C0.65918 25.6384 0.77918 27.3584 1.08918 28.5284C1.55918 30.3084 2.84918 31.1084 4.36918 31.5384C6.72918 32.1984 9.56918 33.2684 11.7292 31.6284C8.59918 31.0384 5.45918 30.5284 2.28918 30.4584C1.94918 27.3684 1.96918 24.2384 2.31918 21.1584C1.32918 21.6784 0.65918 22.6684 0.65918 24.4184Z" fill="#1E1E1E"/>
<path d="M3.00906 79.1097L61.936 79.7997L78.7251 79.9997C80.425 80.0197 80.425 77.0197 78.7251 76.9997C59.0861 76.7697 39.4371 76.5397 19.7982 76.3097C14.1985 76.2397 8.60877 76.1797 3.00906 76.1097C1.30915 76.0897 1.30915 79.0897 3.00906 79.1097Z" fill="#1E1E1E"/>
<path d="M18.2081 5.93751C20.4581 5.77751 22.6981 5.86751 24.9381 6.26751C26.2781 6.50751 26.8581 4.23751 25.4981 3.99751C23.0781 3.55751 20.6581 3.39751 18.2081 3.57751C17.7281 3.60751 17.4181 3.92751 17.2681 4.31751C17.2681 4.32751 17.2681 4.33751 17.2681 4.33751C17.2581 4.39751 17.2481 4.45751 17.2181 4.50751C17.0581 5.18751 17.3881 5.99751 18.2081 5.93751Z" fill="#1E1E1E"/>
<path d="M29.6977 6.13789C45.9668 6.65789 62.256 6.69789 78.5251 6.25789C80.485 6.20789 80.485 3.84789 78.5251 3.89789C62.256 4.33789 45.9668 4.28789 29.6977 3.77789C27.7378 3.70789 27.7378 6.06789 29.6977 6.13789Z" fill="#1E1E1E"/>
<path d="M18.3681 9.92792C25.4777 10.4479 32.6074 10.6779 39.727 10.6379C41.1069 10.6279 41.1069 8.26792 39.727 8.27792C32.5974 8.31792 25.4777 8.07792 18.3681 7.56792C16.9882 7.45792 16.9982 9.82792 18.3681 9.92792Z" fill="#1E1E1E"/>
<path d="M15.4584 7.00793C15.3584 6.84793 15.1084 6.72793 14.9384 6.80793C14.7884 6.87793 14.6684 7.00793 14.5484 7.12793C14.4184 7.24793 14.2984 7.37793 14.1684 7.49793C14.0184 7.64793 13.8584 7.79793 13.6984 7.94793C13.5584 8.07793 13.4084 8.21793 13.3484 8.41793C13.2684 8.67793 13.2984 8.95793 13.2684 9.22793C13.2384 9.58793 13.2184 9.94794 13.1684 10.2979C13.1484 10.4479 13.1784 10.5879 13.2284 10.7179C13.3784 11.1279 13.7984 11.4279 14.1884 11.4279C14.7884 11.4279 15.1584 10.9079 15.2184 10.2979C15.3284 9.32793 15.4084 8.35793 15.4984 7.38793C15.5084 7.29793 15.5184 7.20793 15.4984 7.11793C15.4884 7.06793 15.4784 7.03793 15.4584 7.00793Z" fill="#1E1E1E"/>
<path d="M3.0992 13.4876C6.3392 14.3476 9.7192 13.0376 12.9892 13.7576C14.2792 14.0476 14.8292 11.8676 13.5292 11.5776C13.2692 11.5176 13.0192 11.4776 12.7592 11.4376C10.5492 11.1176 8.3392 11.4476 6.1092 11.4876C5.5192 11.4976 4.9192 11.4876 4.3292 11.4176C4.1992 11.4076 3.8892 11.3076 3.7192 11.2976C3.7192 11.1576 3.6492 10.9576 3.6392 10.8276C3.4692 9.43756 3.4092 8.01756 3.4392 6.60756C3.4492 5.92756 3.4892 5.24756 3.5492 4.56756C3.5692 4.31756 3.5792 3.98756 3.5992 3.65756C3.6292 3.31756 3.6892 2.96756 3.8192 2.74756C4.0392 2.37756 4.5892 2.30756 5.1192 2.30756C5.4892 2.30756 5.8492 2.34756 6.0792 2.34756L10.0292 2.33756C10.7292 2.33756 11.4292 2.33756 12.1192 2.34756C12.7592 2.35756 13.4092 2.43756 14.0392 2.28756C14.3792 2.20756 14.7192 2.03756 14.9892 1.80756C15.1192 1.69756 15.2292 1.54756 15.2692 1.38756C15.3492 1.04756 15.0792 0.767559 14.8592 0.547559C14.6192 0.287559 14.3392 0.107559 13.9992 0.0475593C13.6892 -0.0124407 13.3692 -0.00244071 13.0592 0.00755929C12.0292 0.0375593 11.0092 0.0675593 9.9792 0.0675593C8.9692 0.0675593 7.9592 0.0775593 6.9492 0.0775593C6.8992 0.0775593 6.8492 0.0775593 6.7992 0.0775593C5.5592 0.0775593 4.1592 -0.0924407 3.0292 0.577559C1.7192 1.34756 1.6392 2.98756 1.5092 4.43756C1.3492 6.13756 1.3392 7.85756 1.4692 9.55756C1.5792 11.0276 1.4992 13.0676 3.0992 13.4876Z" fill="#1E1E1E"/>
<path d="M16.0084 4.62748C15.9284 4.70748 15.8384 4.78748 15.7584 4.86748C15.6084 5.01748 15.4484 5.16748 15.2984 5.31748C14.6984 5.90748 14.0884 6.48748 13.4884 7.07748C13.5384 6.56748 13.5784 6.06748 13.6284 5.55748C13.6784 5.04748 13.7284 4.52748 13.7784 4.00748C14.0484 3.73748 14.3284 3.47748 14.5984 3.20748C14.6584 3.14748 14.7284 3.09748 14.7884 3.05748C14.9484 2.96748 15.1084 2.91748 15.2684 2.91748C15.5284 2.91748 15.7684 3.03748 15.9584 3.20748C16.3384 3.56748 16.4884 4.16748 16.0084 4.62748Z" fill="#1E1E1E"/>
<path d="M13.7788 4.00781C13.7288 4.52781 13.6788 5.04781 13.6288 5.55781C13.5788 6.06781 13.5388 6.56781 13.4888 7.07781L13.4788 7.08781C13.0488 7.49781 12.6288 7.90781 12.2088 8.31781C11.8388 8.67781 11.4588 9.06781 11.0088 9.32781C10.6588 9.52781 10.2688 9.64781 9.87881 9.64781C9.69881 9.64781 9.51881 9.62781 9.33881 9.56781C8.78881 9.39781 8.40881 8.97781 8.11881 8.49781C7.51881 7.53781 6.96881 6.54781 6.38881 5.56781C5.92881 4.79781 6.61881 4.07781 7.30881 4.07781C7.60881 4.07781 7.91881 4.21781 8.11881 4.55781C8.60881 5.38781 9.09881 6.21781 9.58881 7.05781C9.68881 7.23781 9.79881 7.41781 9.90881 7.59781C9.91881 7.61781 9.92881 7.62781 9.93881 7.63781C9.94881 7.63781 9.94881 7.62781 9.95881 7.62781C9.98881 7.60781 10.0488 7.56781 10.0488 7.56781C10.1788 7.48781 10.2888 7.38781 10.3988 7.28781C11.5388 6.20781 12.6588 5.10781 13.7788 4.00781Z" fill="#1E1E1E"/>
<path d="M11.6092 11.3276C12.0392 11.1976 12.6092 10.9176 12.8592 10.7176C12.7292 10.8176 12.9292 10.5976 12.8992 10.6676C12.8692 10.7476 12.9692 10.4376 12.9892 10.3976C13.0692 10.1076 13.1092 9.81762 13.1492 9.52762C13.2292 9.00762 13.3392 8.50762 13.3992 7.98762C13.4092 7.93762 13.4092 7.88762 13.4092 7.84762C13.4192 7.71762 13.4292 7.57762 13.4492 7.44762C13.4592 7.32762 13.4692 7.20762 13.4792 7.08762C13.0492 7.49762 12.6292 7.90762 12.2092 8.31762C11.8392 8.67762 11.4592 9.06762 11.0092 9.32762C10.6592 9.52762 10.2692 9.64762 9.87917 9.64762C9.69917 9.64762 9.51917 9.62762 9.33917 9.56762C8.78917 9.39762 8.40917 8.97762 8.11917 8.49762C7.51917 7.53762 6.96917 6.54762 6.38917 5.56762C5.92917 4.79762 6.61917 4.07762 7.30917 4.07762C7.60917 4.07762 7.91917 4.21762 8.11917 4.55762C8.60917 5.38762 9.09917 6.21762 9.58917 7.05762C9.68917 7.23762 9.79917 7.41762 9.90917 7.59762C9.91917 7.61762 9.92917 7.62762 9.93917 7.63762C9.94917 7.63762 9.94917 7.62762 9.95917 7.62762C9.98917 7.60762 10.0492 7.56762 10.0492 7.56762C10.1792 7.48762 10.2892 7.38762 10.3992 7.28762C11.4792 6.26762 12.5392 5.21762 13.6092 4.17762C13.5992 4.06762 13.6092 3.95762 13.5892 3.84762C13.5492 3.55762 13.4692 3.27762 13.3192 3.02762C13.2992 2.99762 13.2192 2.88762 13.1892 2.84762C13.1592 2.81762 13.1292 2.78762 13.0992 2.75762C13.0692 2.72762 12.9992 2.69762 12.9692 2.67762C12.8692 2.63762 12.7492 2.61762 12.6392 2.59762C12.6092 2.59762 12.5492 2.58762 12.5192 2.58762C12.3492 2.57762 12.1792 2.57762 12.0192 2.57762C11.6892 2.57762 11.4192 2.48762 11.2092 2.33762H10.0292L6.07917 2.34762C5.84917 2.34762 5.48917 2.30762 5.11917 2.30762C4.54917 2.64762 4.03917 3.10762 3.59917 3.65762C3.57917 3.98762 3.56917 4.31762 3.54917 4.56762C3.48917 5.24762 3.44917 5.92762 3.43917 6.60762C3.40917 8.01762 3.46917 9.43762 3.63917 10.8276C3.64917 10.9576 3.71917 11.1576 3.71917 11.2976C3.88917 11.3076 4.19917 11.4076 4.32917 11.4176C4.91917 11.4876 5.51917 11.4976 6.10917 11.4876C7.94917 11.4476 9.78917 11.2276 11.6092 11.3276Z" fill="#00A99D"/>
</svg>
