<svg width="81" height="110" viewBox="0 0 81 110" fill="none" xmlns="http://www.w3.org/2000/svg">
<path d="M59.7694 95.8531C44.3395 95.0482 28.9096 95.1057 13.5404 95.9681C9.77407 96.1981 6.55444 98.843 6.55444 102.58C6.55444 105.973 9.77407 109.422 13.5404 109.192C28.9703 108.272 44.4002 108.272 59.7694 109.077C63.5357 109.25 66.7554 105.915 66.7554 102.465C66.7554 98.728 63.5357 96.0831 59.7694 95.8531Z" fill="#00A99D"/>
<path d="M75.3817 48.0163C77.8724 42.1517 80.2415 35.4821 80.1808 29.0425C80.1808 21.9704 76.9004 15.5308 73.5593 9.37873C69.4285 1.7892 57.4004 8.51628 61.4705 16.0483C63.8397 20.3605 66.5126 25.0177 66.2088 30.0199C65.9051 34.9646 63.7789 40.3118 61.7743 44.7965C59.4659 49.9712 56.307 54.8009 53.1481 59.5156C50.1715 63.8853 47.4378 68.5425 43.1855 71.9923C42.7602 72.3373 42.4565 72.6823 42.1528 73.0847C39.7836 74.9246 37.7789 76.9945 36.078 79.5243C34.0126 82.5141 35.4098 86.8839 38.5687 88.5513C42.2135 90.5061 46.1621 91.7135 50.293 92.346C52.1761 92.6335 54.1201 92.806 56.0032 92.9785C55.8817 93.6109 55.7602 94.2434 55.6387 94.8759C54.9705 98.3831 56.6715 102.005 60.4986 102.983C63.9004 103.845 68.3958 101.89 69.064 98.3831C69.7322 95.0483 70.9472 91.3111 70.8864 87.9188C70.8257 83.3766 67.363 80.7317 62.8677 80.2718C60.2556 79.9843 57.5827 79.9268 54.9098 79.6393C58.9799 75.7296 62.078 70.7849 65.1761 66.1852C69.1247 60.378 72.6481 54.3984 75.3817 48.0163Z" fill="#00A99D"/>
<path d="M47.9843 82.6293C49.26 82.7443 49.8068 82.8593 50.232 82.8018C56.9142 81.5369 62.26 83.7217 66.3909 88.6664C67.3021 89.7014 68.3348 91.0813 68.274 92.2887C68.031 97.5209 67.4843 102.753 66.7553 107.985C66.6338 108.675 65.1759 109.768 64.3254 109.825C46.7086 109.998 29.0918 110.055 11.5357 109.94C10.3208 109.94 9.1058 108.56 7.89085 107.813C3.69926 104.995 2.42356 101.086 2.90954 96.3134C3.33477 92.2312 3.09178 88.0915 3.33477 83.9517C3.45627 82.5718 3.94226 81.0769 4.79272 79.9845C10.6852 72.9699 16.5778 65.8979 22.774 59.0558C27.1479 54.1686 32.0077 49.6839 36.5638 44.9117C38.2039 43.1868 39.6011 41.3469 40.8768 39.392C44.7039 33.5849 43.6105 27.8352 38.3254 24.5004C32.3114 20.7632 24.1105 21.9131 20.6479 27.4903C18.9469 30.1926 18.3395 33.5274 17.732 36.6897C17.3675 38.5871 16.76 39.3345 14.6946 39.2195C10.746 39.047 6.7974 38.9895 2.8488 38.9895C0.904873 38.9895 -0.067091 38.2996 0.236647 36.4597C1.08711 31.285 1.26936 25.8804 2.97029 20.9932C8.0731 6.21659 22.0451 -1.66041 38.8722 0.294464C44.0357 0.926924 49.26 2.01936 54.1806 3.68675C70.1572 9.09141 77.2647 21.1657 74.1058 36.9772C72.1619 46.7515 67.2413 55.376 61.7133 63.6555C58.0684 69.1751 53.9983 74.4073 50.0497 79.7545C49.503 80.5594 48.8955 81.4219 47.9843 82.6293ZM58.3114 84.4117C48.5918 84.4117 39.5404 84.4117 29.6385 84.4117C30.9142 82.8593 31.6432 81.9393 32.3722 81.0769C37.9609 74.6373 43.7927 68.3702 49.1385 61.7581C55.1525 54.3411 60.0124 46.2916 62.5638 37.1496C65.6011 26.3978 63.9002 16.7384 54.7273 9.09141C44.9469 0.869428 29.3955 -0.452989 18.0965 5.87161C8.07309 11.5063 3.94226 20.4757 2.66655 30.94C2.42356 32.8949 2.42356 34.8498 2.30206 37.1496C6.06842 37.1496 9.3488 37.0347 12.5684 37.2071C14.6946 37.3221 15.3628 36.7472 15.8488 34.6198C16.517 31.5725 17.489 28.4102 19.3114 25.8804C23.6245 19.7857 32.8582 18.6358 39.6011 22.8905C45.6759 26.8003 47.0123 33.5274 42.8208 40.1395C41.4236 42.3243 39.7834 44.4517 37.9609 46.3491C33.1619 51.4088 27.9983 56.181 23.3208 61.3556C17.6105 67.6802 12.1432 74.1773 6.73665 80.7319C5.94693 81.6519 5.46095 82.9743 5.4002 84.1242C5.15721 89.0689 5.21796 94.0711 4.97497 99.0733C4.85347 101.373 5.76468 102.063 8.07309 102.063C24.3535 102.006 40.6339 102.006 56.9142 102.006C57.4002 102.006 57.8254 101.833 58.1899 101.776C58.3114 96.0835 58.3114 90.5638 58.3114 84.4117ZM60.6806 48.3039C58.2507 51.5812 58.7974 52.6737 64.1432 55.2035C66.5731 52.3287 66.5731 52.3287 60.6806 48.3039ZM66.9983 50.0288C69.1245 46.924 68.3955 45.6591 63.0497 42.9568C61.0451 46.3491 61.2881 46.8665 66.9983 50.0288ZM57.6432 53.4786C55.3955 56.2959 55.76 56.9284 61.288 59.8607C63.475 57.5034 63.475 57.5034 57.6432 53.4786ZM71.7367 35.3673C73.1946 32.4349 71.1899 30.1926 66.2086 28.8702C65.9656 31.515 66.2086 31.8025 71.7367 35.3673ZM52.9656 72.3949C53.5731 71.59 54.0591 70.9 54.6666 70.1526C52.6619 68.6002 50.7787 67.1628 48.774 65.6104C48.0451 66.6453 47.4983 67.3928 46.8909 68.2552C49.017 69.6926 50.9002 70.9575 52.9656 72.3949ZM58.5544 64.7479C59.2226 63.598 59.6479 62.908 60.1946 61.9881C58.3114 60.6082 56.5497 59.2858 54.6058 57.8484C54.0591 58.7108 53.5731 59.3433 52.9656 60.2057C54.8488 61.7006 56.5497 63.138 58.5544 64.7479ZM66.0264 22.6031C65.8441 25.7654 68.3348 28.0652 72.6479 29.2152C73.0124 24.5579 68.274 25.0179 66.0264 22.6031ZM55.8815 68.1977C57.4002 66.0128 57.1572 65.6679 51.8114 62.2181C49.8675 64.173 50.1712 64.6904 55.8815 68.1977ZM49.8067 75.8447C50.1712 75.7297 50.5965 75.6722 50.9609 75.5572C50.7787 74.7523 50.9002 73.7174 50.3535 73.1999C49.26 72.1649 47.8628 71.3025 46.5264 70.4976C46.1011 70.2101 45.3722 70.4401 44.7647 70.3826C44.8862 71.015 44.7647 71.8775 45.1899 72.2225C46.6479 73.6024 48.2881 74.6948 49.8067 75.8447ZM69.246 44.7967C70.7647 42.1518 69.3675 40.5994 63.961 38.6446C64.3254 42.0943 67.3628 42.8993 69.246 44.7967ZM70.8254 40.197C71.6152 37.7246 69.489 35.5398 65.4189 34.1023C65.0544 38.0696 68.9423 38.0696 70.8254 40.197ZM71.5544 23.1205C70.461 19.6133 66.9376 19.1533 64.2647 17.6009C65.2974 21.0507 68.76 21.6256 71.5544 23.1205ZM60.7413 87.0565C61.0451 90.3338 63.8395 91.6562 66.3301 94.0136C66.4516 89.5864 62.8067 89.0114 60.7413 87.0565ZM65.9049 98.6133C66.1479 95.221 62.746 94.4736 60.9843 92.5187C60.9843 95.681 63.9002 96.7734 65.9049 98.6133ZM45.3114 82.2268C45.6759 81.8818 46.0404 81.4794 46.4049 81.1344C44.5217 79.5245 42.6993 77.9146 40.7553 76.3622C40.5124 76.1897 39.7226 76.3622 39.5404 76.5922C39.3581 76.8797 39.4189 77.6271 39.6619 77.7996C41.4843 79.2945 43.3675 80.7319 45.3114 82.2268ZM42.6385 73.0849C42.274 73.4299 41.9703 73.7748 41.6058 74.1198C43.4282 75.7297 45.2507 77.3396 47.1339 78.8345C47.3161 79.007 48.1666 78.7195 48.3488 78.4896C48.531 78.2021 48.4703 77.5121 48.1666 77.2821C46.3441 75.8447 44.461 74.4648 42.6385 73.0849ZM54.8488 104.593C57.0357 106.145 58.3114 108.618 61.7133 107.41C59.8909 105.455 58.6152 103.041 54.8488 104.593ZM8.43758 103.673C8.25534 103.96 8.07309 104.248 7.89085 104.535C10.5637 107.985 11.232 108.33 14.3909 107.295C12.2039 105.915 10.3208 104.765 8.43758 103.673ZM32.3114 103.903C32.1899 104.133 32.0077 104.363 31.8862 104.593C33.5871 107.583 34.7413 108.215 38.0217 107.18C35.8348 105.915 34.0731 104.88 32.3114 103.903ZM61.0451 11.5638C60.8628 11.8512 60.6806 12.1387 60.4376 12.4262C63.1712 14.0936 65.9049 15.7035 68.6993 17.3709C68.9423 16.9684 69.1853 16.6234 69.4283 16.221C66.6339 14.6686 63.8395 13.1162 61.0451 11.5638ZM41.4843 82.9168C41.5451 82.7443 41.6058 82.5718 41.6666 82.3993C40.9983 81.8243 40.4516 81.2494 39.7226 80.7319C38.8722 80.157 37.9609 79.697 37.0497 79.237C36.989 79.237 36.3815 79.9845 36.4423 80.042C37.1712 80.9044 37.8394 81.8818 38.8114 82.5143C39.5404 82.9168 40.6339 82.8018 41.4843 82.9168ZM30.4282 108.215C30.6712 107.928 30.8535 107.64 31.0965 107.353C29.4563 106.548 29.031 103.845 25.4469 104.823C27.3909 106.145 28.9095 107.18 30.4282 108.215ZM53.9983 108.1C52.1759 104.305 51.7507 104.075 49.017 104.88C50.8395 106.088 52.4189 107.123 53.9983 108.1ZM15.1198 103.788C14.8768 104.19 14.5731 104.65 14.3301 105.053C15.9095 106.088 17.5497 107.123 19.1292 108.158C19.3722 107.813 19.5544 107.468 19.7974 107.18C18.218 106.088 16.6993 104.938 15.1198 103.788ZM38.8722 103.96C38.6292 104.363 38.3254 104.823 38.0825 105.225C39.6011 106.145 41.1198 107.123 42.5778 108.043C42.8208 107.698 43.0638 107.41 43.3068 107.065C41.7881 106.03 40.3301 104.995 38.8722 103.96ZM21.0124 104.018C20.7694 104.42 20.5264 104.823 20.2226 105.225C21.7413 106.203 23.26 107.18 24.7787 108.158C25.0217 107.813 25.2039 107.525 25.4469 107.18C23.989 106.145 22.531 105.11 21.0124 104.018Z" fill="#1E1E1E"/>
<path d="M58.3113 84.4118C58.3113 90.5639 58.3113 96.0835 58.3113 101.833C58.0076 101.891 57.5216 102.063 57.0356 102.063C40.7552 102.063 24.4749 102.063 8.19449 102.121C5.88608 102.121 4.97487 101.431 5.09636 99.1308C5.33936 94.1861 5.27861 89.184 5.5216 84.1818C5.58234 83.0319 6.06832 81.6519 6.85804 80.7895C12.3253 74.2924 17.7319 67.7378 23.4422 61.4132C28.1197 56.2385 33.2225 51.4663 38.0823 46.4067C39.9048 44.5093 41.545 42.3819 42.9422 40.197C47.1338 33.585 45.7973 26.8579 39.7225 22.9481C32.9795 18.6359 23.7459 19.7858 19.4328 25.9379C17.6711 28.4678 16.6992 31.6876 15.9702 34.6774C15.4842 36.7473 14.816 37.3797 12.6898 37.2647C9.4702 37.0922 6.25057 37.2072 2.42346 37.2072C2.54496 34.9074 2.54496 32.9525 2.78795 30.9976C4.06365 20.5333 8.19449 11.5638 18.2179 5.92919C29.4562 -0.395415 45.0076 0.984499 54.8487 9.14899C64.0216 16.796 65.7225 26.4554 62.6852 37.2072C60.1338 46.3492 55.2132 54.3986 49.2599 61.8157C43.9141 68.4278 38.0823 74.6949 32.4936 81.1345C31.7646 81.9969 31.0356 82.8594 29.7599 84.4693C39.4795 84.4118 48.5917 84.4118 58.3113 84.4118Z" fill="white"/>
</svg>
