<svg width="80" height="110" viewBox="0 0 80 110" fill="none" xmlns="http://www.w3.org/2000/svg">
<path d="M72.3898 53.7717C70.8199 47.682 75.4714 42.1458 76.111 35.9454C76.3436 34.8382 76.5761 33.731 76.7506 32.6237C77.2739 29.3021 77.3902 25.9804 76.6343 22.8248C76.4017 21.773 75.9947 20.7211 75.5295 19.7246C71.4013 11.199 64.4241 2.89483 53.9583 5.10928C52.7954 5.38608 51.7488 6.49331 51.2836 7.60053C50.8185 8.70775 50.7604 9.81497 51.6325 10.0918C63.8427 15.6279 59.7726 29.4682 55.47 38.1045C55.3537 39.3224 55.2956 40.5404 55.2956 41.7583C55.2956 43.087 49.423 44.471 49.5393 45.7997C49.8882 49.841 56.6329 53.827 57.6213 57.8684C57.912 58.9203 58.1446 60.0275 58.4935 61.0793C59.1912 66.5047 63.2612 72.0408 61.4006 78.0752C60.8192 79.3485 60.1796 80.5664 60.0052 81.8951C58.9005 83.8327 57.505 85.6043 55.877 87.2098C47.8532 95.1264 34.422 98.3374 22.27 95.9568C20.2349 95.7354 18.1999 95.3479 16.2812 94.8496C14.3043 94.3514 12.3855 93.6317 10.5249 92.8012C7.79219 91.5833 4.65243 91.694 2.44297 93.7977C0.407946 95.7354 -0.173501 99.1124 1.39638 101.493C2.96626 103.818 5.35016 105.424 7.96662 106.531C10.6412 107.638 13.5484 108.302 16.2812 108.801C31.2241 111.569 48.6672 109.631 61.3425 102.102C62.5054 101.438 63.6101 100.663 64.6567 99.8875C81.8672 91.9708 84.193 70.38 73.669 56.2629C73.2038 55.4325 72.7968 54.6021 72.3898 53.7717Z" fill="#00A99D"/>
<path d="M63.5521 49.1768C65.6453 51.8895 67.971 54.4914 69.8898 57.3148C79.5416 71.5426 76.6926 86.7116 61.9241 96.289C45.8183 106.697 28.3171 107.472 10.1762 101.77C9.65294 101.604 9.01336 101.382 8.72264 100.939C5.93174 97.0641 3.14086 93.1888 0.46625 89.2028C0.175532 88.7599 0.408103 87.7634 0.698821 87.1545C2.73385 82.7809 4.88516 78.4074 6.80391 74.0339C7.61792 72.207 8.49007 71.9302 10.2925 72.8159C15.351 75.2518 20.6421 75.7501 26.1076 74.3661C29.7125 73.4803 32.6778 71.6534 34.8291 68.7192C37.9689 64.4564 37.3293 60.3043 33.0267 57.038C29.8869 54.6575 26.2239 53.4949 22.2701 53.4396C20.2351 53.3842 19.5374 52.6092 19.5955 50.7822C19.5955 47.3498 19.6536 43.9728 19.4211 40.5404C19.1885 37.8277 20.0607 36.7205 23.1423 36.8866C27.6775 37.1634 31.1661 35.1704 33.3755 31.3505C36.0502 26.7002 34.364 21.5516 29.3636 19.2264C25.9913 17.6763 22.4445 17.3995 18.9559 18.8389C17.0953 19.6139 15.351 20.6104 13.723 21.773C9.24594 24.9286 9.12965 25.0947 5.93175 20.5551C3.72229 17.4549 2.09427 13.9671 0.349956 10.5901C-0.464056 8.92925 0.175532 7.76667 1.91984 6.77017C23.2004 -5.85216 51.0512 0.735813 65.2964 13.7457C73.5528 21.2748 74.5994 36.942 67.5059 45.5783C66.4593 47.0177 64.8894 48.0142 63.5521 49.1768ZM45.8183 46.0212C47.6789 44.6372 49.1906 43.5853 50.7024 42.4227C63.2033 32.6792 63.1451 19.1157 50.5279 9.59359C38.1433 0.237564 20.0025 -1.14646 3.37343 8.37564C2.792 8.70781 2.2687 9.92575 2.44313 10.5347C3.83858 15.019 6.62948 18.6728 9.76924 22.1052C12.1531 20.5551 14.13 19.1157 16.3395 17.8978C20.7584 15.5172 25.4099 15.4065 30.0032 17.3995C36.2246 20.0568 38.434 26.4787 35.178 32.2363C32.8523 36.2776 29.3055 38.4367 24.4796 38.8796C23.5493 38.935 22.619 39.0457 21.6305 39.101C21.6305 42.6442 21.6887 45.9658 21.5724 49.2321C21.5142 51.059 22.4445 51.2805 24.0726 51.7787C27.6193 52.8306 31.3987 53.8271 34.364 55.7647C39.5388 59.1418 40.1784 64.6779 36.5734 69.605C32.2127 75.5286 25.875 77.3002 18.7234 76.8019C15.4092 76.5805 12.1531 75.5286 8.72264 74.7536C6.74575 78.961 4.71072 83.2792 2.55941 87.8742C15.4673 93.6317 28.4334 96.898 42.3297 92.7459C49.3069 90.6976 54.9468 86.7669 58.7262 80.6772C65.6453 69.605 61.8078 56.4291 49.4813 48.4571C48.4348 47.7927 47.2719 47.0177 45.8183 46.0212ZM63.6684 71.598C63.9591 73.5356 63.6684 75.3626 64.4243 76.0269C66.6337 77.9645 69.3083 79.4593 72.0992 81.2862C72.5062 79.1825 74.3668 77.4663 71.9829 76.0269C69.5409 74.6429 66.9826 73.3696 63.6684 71.598ZM71.4015 83.1685C68.378 81.2308 65.5871 79.4039 62.8544 77.6324C62.5637 77.7984 62.2148 78.0199 61.9241 78.186C62.0404 79.2932 61.6915 80.8433 62.3311 81.3969C64.4243 83.2238 66.8663 84.7186 69.3665 86.4901C70.0642 85.3276 70.6456 84.4418 71.4015 83.1685ZM64.4824 66.228C64.0173 69.605 67.9129 72.9267 73.9598 74.1446C73.3203 72.4838 73.1458 70.6015 72.1574 69.9372C69.8316 68.3871 67.0989 67.4459 64.4824 66.228ZM68.2036 88.0956C65.3546 86.1026 62.7962 84.3864 60.1216 82.5041C59.4239 83.5006 58.9006 84.2203 58.2029 85.2168C60.7612 87.0991 63.1451 88.8707 65.7034 90.7529C66.5756 89.8672 67.2152 89.1475 68.2036 88.0956ZM58.3192 37.3295C60.0054 38.4921 61.4008 39.5439 62.9125 40.5958C64.1336 41.4262 65.4127 42.2013 67.5059 43.5299C67.3896 41.7584 67.7384 40.3744 67.157 39.8761C65.0057 37.9385 62.5637 36.333 60.1798 34.5061C59.5402 35.5026 59.0169 36.2223 58.3192 37.3295ZM72.2737 67.4459C71.6341 63.7367 67.971 61.0794 62.7381 60.3597C63.4358 63.5706 65.7034 65.2868 72.2737 67.4459ZM55.2376 97.7284C53.6677 96.4551 52.1559 95.514 51.1094 94.2407C49.3651 92.1923 47.7952 92.137 45.9346 93.9639C50.2954 99.5554 51.1675 99.9429 55.2376 97.7284ZM68.378 38.2706C68.6688 38.2153 68.9013 38.1045 69.192 38.0492C69.1339 36.8866 69.5409 35.2258 68.9013 34.6722C66.8082 32.9006 64.308 31.5166 61.9241 30.0218C61.4008 35.0597 66.2267 35.5579 68.378 38.2706ZM62.2148 24.4857C61.8659 27.8074 65.4127 31.1291 70.5875 32.347C69.9479 30.7415 69.8316 29.0807 68.9013 28.361C66.9826 26.8662 64.6568 25.8697 62.2148 24.4857ZM59.9472 95.1265C55.1213 90.144 53.4933 89.4243 50.7024 91.7494C52.156 92.8567 53.7258 93.7978 54.8887 95.1265C56.6912 97.1748 58.2029 97.0641 59.9472 95.1265ZM49.8884 45.7444C53.8421 49.8411 60.4705 53.2181 64.5406 53.4396C60.5868 48.9 54.4817 48.6785 49.8884 45.7444ZM69.7153 26.1466C69.5409 23.2678 66.343 20.6658 60.8775 18.8389C61.2845 21.8837 63.2614 23.5446 69.7153 26.1466ZM29.9451 96.7873C33.3174 102.545 35.0036 103.652 38.3178 102.157C35.3524 100.496 35.1199 95.6801 29.9451 96.7873ZM64.9476 45.689C65.122 45.3568 65.2383 44.9693 65.4127 44.6372C62.68 42.8102 59.9472 40.9833 57.0982 39.0457C56.4586 39.8207 55.9353 40.4297 55.2376 41.2601C58.668 42.7549 61.4008 45.1354 64.9476 45.689ZM19.4211 102.268C17.0372 96.4551 14.7114 94.0746 10.9321 94.0192C14.0719 96.6766 14.537 101.161 19.4211 102.268ZM4.47816 91.0851C8.31564 98.282 10.1181 100.164 13.2579 99.9982C10.06 97.1748 9.82738 92.2477 4.47816 91.0851ZM55.005 88.2063C60.3542 93.521 62.0404 94.2407 63.7265 91.9155C61.4589 90.1993 59.1913 88.5385 56.8075 86.7116C56.2842 87.1545 55.7027 87.6527 55.005 88.2063ZM36.2246 96.4551C38.9574 101.438 41.0505 102.822 43.667 101.327C38.4341 95.0711 39.0155 95.2925 36.2246 96.4551ZM24.0144 96.3444C26.8053 101.991 28.7241 103.541 32.0382 102.656C29.1311 100.718 28.8404 96.3444 24.0144 96.3444ZM25.3517 102.656C23.0841 100.275 22.7353 96.0676 18.3163 95.7354C20.5258 98.1713 20.5839 102.6 25.3517 102.656ZM59.7728 54.3253C59.5402 54.7129 59.3076 55.045 59.1332 55.4326C62.3892 57.2041 65.5871 58.9203 69.4828 61.024C67.7384 55.5987 62.9707 56.1523 59.7728 54.3253ZM61.5752 47.1838C56.4004 43.1978 53.6677 42.3673 52.156 44.5264C55.2376 45.4122 57.5633 48.291 61.5752 47.1838ZM41.3994 95.0157C44.4229 100.109 46.516 101.438 49.0743 99.8875C46.2834 98.6142 45.702 94.5728 41.3994 95.0157ZM67.0407 19.78C65.4127 15.2958 60.9938 14.8529 57.6215 12.9153C57.447 13.1921 57.2145 13.4689 57.04 13.7457C60.4124 15.7387 63.7266 17.787 67.0407 19.78Z" fill="#1E1E1E"/>
<path d="M45.8184 46.0211C47.272 47.0176 48.4348 47.7926 49.5977 48.5677C61.9823 56.5397 65.7616 69.7156 58.8425 80.7878C55.0632 86.8222 49.4233 90.7528 42.446 92.8565C28.4915 97.0086 15.5837 93.7423 2.67576 87.9848C4.82708 83.4452 6.86211 79.0716 8.83899 74.8642C12.3276 75.5839 15.5255 76.6357 18.8397 76.9126C25.9914 77.4108 32.329 75.6946 36.6898 69.7156C40.2947 64.7885 39.6551 59.2524 34.4804 55.8753C31.4569 53.9377 27.7357 52.8858 24.1889 51.8893C22.5609 51.4465 21.6306 51.1697 21.6887 49.3427C21.805 46.0211 21.7469 42.7548 21.7469 39.2117C22.7353 39.1563 23.6656 39.1009 24.5959 38.9902C29.3637 38.5473 32.9686 36.3882 35.2944 32.3469C38.5504 26.5893 36.341 20.2228 30.1196 17.5101C25.5262 15.5171 20.8747 15.6832 16.4558 18.0084C14.3045 19.1709 12.2695 20.6657 9.88557 22.2158C6.74581 18.7834 3.95492 15.1296 2.55947 10.6453C2.38504 10.0364 2.90833 8.81842 3.48977 8.48625C20.1189 -1.03586 38.2597 0.348172 50.6443 9.7042C63.3196 19.2263 63.3196 32.7898 50.8187 42.5333C49.1907 43.5852 47.6208 44.637 45.8184 46.0211Z" fill="white"/>
</svg>
