<svg width="80" height="110" viewBox="0 0 80 110" fill="none" xmlns="http://www.w3.org/2000/svg">
<path d="M73.4083 3.38281C69.6346 3.38281 67.1187 6.38846 66.8328 9.9045C64.3742 39.8475 63.8596 69.9607 65.4034 99.9604C65.5749 103.476 68.3195 106.482 71.9789 106.482C75.4095 106.482 78.7259 103.476 78.5543 99.9604C77.0677 69.9607 77.5251 39.8475 79.9838 9.9045C80.2697 6.38846 76.7246 3.38281 73.4083 3.38281Z" fill="#00A99D"/>
<path d="M38.0152 49.0911C34.2414 55.1024 30.7536 60.5466 27.2085 66.1609C18.8033 61.6241 10.6841 57.3141 2.62196 52.834C-0.580011 51.0193 -0.637189 50.6223 1.30686 47.5599C11.7133 31.3975 23.4348 16.1424 36.2427 1.73802C37.5577 0.263552 38.93 -0.13342 40.9884 0.0367109C48.5931 0.660524 56.1978 1.11421 63.8025 1.39776C68.3767 1.56789 73.1797 5.42419 73.6943 9.84759C74.0945 13.3069 74.3232 16.823 74.2661 20.2823C74.0945 40.2443 73.8658 60.1496 73.4656 80.1116C73.294 87.8242 72.5507 95.5936 72.0361 103.306C71.9217 104.61 71.8074 106.085 71.1213 107.106C70.4351 108.127 69.12 109.317 68.0336 109.374C61.1723 109.714 54.3109 109.771 47.4495 109.998C45.1624 110.055 43.6758 108.977 41.9033 107.673C36.7573 103.987 35.6709 99.2797 36.1283 93.2117C37.1003 80.3952 37.4434 67.522 38.0152 54.7054C38.1295 53.1175 38.0152 51.4162 38.0152 49.0911ZM38.7013 37.182C39.2159 37.5222 39.6733 37.8058 40.1879 38.146C40.2451 39.5638 40.4738 40.9815 40.4166 42.3993C39.6733 60.7734 38.9872 79.2043 38.1295 97.5784C38.0152 100.414 38.7013 101.718 41.7317 101.775C48.0213 101.945 54.2537 102.342 60.5433 102.739C62.7161 102.852 63.4594 102.229 63.5166 99.9035C63.6881 87.6541 64.1455 75.348 64.3171 63.0986C64.603 44.3275 64.7745 25.4996 65.0604 6.72853C65.1176 4.23327 64.3742 3.38262 61.6869 3.32591C55.1686 3.15578 48.7075 2.81552 42.2463 2.13499C39.7877 1.85144 38.0723 2.24841 36.5857 4.17656C26.1221 17.9005 15.6014 31.5109 5.13779 45.1781C3.99423 46.6526 3.13656 48.3539 1.87865 50.3955C7.31056 53.3444 12.5138 56.0665 17.6026 58.9587C19.8326 60.263 21.3192 59.9228 22.9202 57.8812C27.6088 51.9266 32.4117 46.0288 37.1003 40.1309C37.7865 39.2802 38.1867 38.146 38.7013 37.182ZM71.0641 75.9718C72.0361 72.1155 70.3779 69.4501 66.2611 67.6921C65.2319 71.9454 68.777 73.4198 71.0641 75.9718ZM67.3475 26.0667C66.547 29.1858 67.519 30.8871 71.4072 33.0988C72.2648 29.6962 71.6359 28.6754 67.3475 26.0667ZM71.1784 40.8114C72.6079 36.4447 69.9205 34.6867 67.176 32.7018C65.7465 36.8417 68.6054 38.543 71.1784 40.8114ZM71.0641 82.2099C71.6359 78.9774 69.8062 76.4822 66.0324 74.6107C65.6893 78.4103 69.0057 79.4878 71.0641 82.2099ZM67.1188 14.271C66.6042 18.4108 69.9205 19.2048 71.8646 21.4165C72.3792 18.4676 72.2648 18.2974 67.1188 14.271ZM71.693 15.1784C72.6651 11.3221 69.1772 10.4714 67.176 7.6926C66.547 12.1727 69.8633 13.1935 71.693 15.1784ZM66.9473 39.7339C66.2039 43.9872 69.2344 45.0647 71.2356 47.3898C72.3792 43.1365 69.0057 42.1725 66.9473 39.7339ZM65.9181 90.8866C65.5178 94.4026 68.4911 95.4801 70.6638 97.9754C71.0641 93.552 67.6334 92.8715 65.9181 90.8866ZM69.8633 102.342C70.4923 100.13 70.0349 99.5066 65.8609 96.4442C65.2891 98.7693 66.2611 100.187 69.8633 102.342ZM65.4606 85.329C66.1468 88.845 68.7198 90.1494 70.7782 92.4745C71.2356 89.2987 70.2636 88.0511 65.4606 85.329ZM70.7782 68.7129C71.4643 66.1609 69.3487 63.5522 66.4327 62.3613C66.2039 62.5315 66.0324 62.7016 65.8037 62.8717C67.4619 64.7999 69.12 66.7847 70.7782 68.7129ZM66.8901 20.339C67.2331 23.6849 69.749 24.8758 71.6359 26.7473C72.2648 23.9685 71.4071 22.8342 66.8901 20.339ZM67.0044 45.7452C66.6614 49.0911 68.2052 51.0193 71.35 52.2102C71.5787 52.04 71.8074 51.8699 72.0361 51.6998C70.5495 49.8851 69.0057 48.0703 67.0044 45.7452ZM65.9752 79.8281C66.1468 82.9472 68.3767 85.329 71.6359 85.6693C69.9205 83.8545 68.2052 82.0965 65.9752 79.8281ZM70.8354 63.212C71.0641 62.9851 71.35 62.815 71.5787 62.5882C71.2928 59.6959 68.4911 58.8453 66.9473 56.9738C66.6042 57.2574 66.3183 57.4842 65.9752 57.7678C67.6334 59.5825 69.2344 61.3972 70.8354 63.212ZM66.4327 51.7565C66.8901 54.989 69.3487 56.1232 71.1784 57.9946C71.693 55.386 71.1784 54.7054 66.4327 51.7565Z" fill="#1E1E1E"/>
<path d="M38.7013 37.1819C38.1867 38.146 37.7865 39.2802 37.1003 40.1309C32.4117 46.0855 27.6088 51.9266 22.9202 57.8812C21.3764 59.8661 19.8326 60.2063 17.6026 58.9587C12.5138 56.0665 7.31058 53.3444 1.87866 50.3954C3.13658 48.3539 3.99425 46.6526 5.13781 45.1781C15.6014 31.5109 26.1222 17.9004 36.5857 4.17655C38.0724 2.2484 39.7305 1.85143 42.2464 2.07827C48.7075 2.8155 55.1686 3.15577 61.6297 3.3259C64.3171 3.38261 65.0604 4.23326 65.0032 6.72851C64.7173 25.4996 64.5458 44.3274 64.2599 63.0985C64.0884 75.348 63.6309 87.6541 63.4594 99.9035C63.4022 102.229 62.7161 102.852 60.4862 102.739C54.1966 102.342 47.9642 101.945 41.6746 101.775C38.6441 101.718 37.958 100.357 38.0724 97.5784C38.93 79.2043 39.6733 60.7734 40.3595 42.3993C40.4167 40.9815 40.2451 39.5638 40.1308 38.146C39.6733 37.8058 39.1587 37.5222 38.7013 37.1819Z" fill="white"/>
</svg>
