<svg width="331" height="298" viewBox="0 0 331 298" fill="none" xmlns="http://www.w3.org/2000/svg">
<path d="M322.932 250.705C345.72 222.079 311.086 195.788 294.586 176.725C275.521 155.438 256.444 133.336 237.798 111.573L184.793 50.5943C167.444 30.7334 151.832 4.66675 123.767 0.517317C112.359 -1.62122 96.8375 5.19586 92.4203 16.9558C63.0129 92.9496 34.408 168.889 5.38232 244.44C3.61733 249.027 2.85336 253.938 3.14144 258.845C2.27159 259.992 1.63117 261.296 1.25539 262.686C-1.83329 277.228 7.74776 294.137 22.8228 295.477C72.9924 299.667 123.485 297.727 173.183 289.701C198.517 286.016 224.235 281.047 249.518 275.717C260.804 273.799 272.008 271.062 282.865 268.805C297.606 265.381 312.568 264.323 322.932 250.705Z" fill="#F9F9F9"/>
</svg>
