<svg width="24" height="24" viewBox="0 0 24 24" fill="none" xmlns="http://www.w3.org/2000/svg">
<path d="M19.57 4.51703C21.064 6.33223 22.0383 8.51418 22.3901 10.8335C22.742 13.1528 22.4584 15.5236 21.5693 17.6962C21.155 18.7681 20.5095 19.7367 19.6784 20.534C18.8472 21.3313 17.8505 21.9381 16.7583 22.3114C14.3336 23.2059 11.7225 23.4835 9.16243 23.1189C8.74714 23.0533 8.33589 22.9643 7.93066 22.8526C10.1484 24.0318 12.7383 24.3149 15.1607 23.6426C19.8556 22.338 23.658 18.3176 23.9794 13.3831C24.2472 9.38938 21.8728 5.32461 18.5435 3.14137C18.3203 2.9905 18.0794 2.84852 17.8473 2.71539L17.4903 2.52905C18.2535 3.1153 18.9508 3.78183 19.57 4.51703Z" fill="#00A99D"/>
<path d="M7.81465 5.35121C7.90071 5.68634 7.85672 6.04147 7.69131 6.34574C7.5259 6.65002 7.2512 6.88119 6.92207 6.99317C6.07824 7.33619 5.31126 7.84229 4.66555 8.48215C4.01984 9.122 3.50826 9.88276 3.16041 10.7206C2.81256 11.5585 2.63542 12.4567 2.63916 13.3632C2.64289 14.2696 2.82745 15.1662 3.1822 16.0012C4.58356 19.1695 8.15392 20.696 11.4743 20.6427C13.4323 20.6512 15.3615 20.1754 17.0886 19.2582C18.6506 18.3707 19.3469 16.4361 19.686 14.7588C20.0142 13.0628 19.9093 11.312 19.3806 9.66692C18.852 8.0218 17.9166 6.53485 16.6602 5.34233C14.7411 3.50521 11.7778 2.20052 9.10896 2.82176C8.21638 3.29213 7.40416 3.8337 6.57406 4.34845C6.85788 4.37347 7.12765 4.48217 7.34875 4.66089C7.56984 4.83961 7.73206 5.08006 7.81465 5.35121ZM8.70723 11.6436C9.14494 12.3488 9.65991 13.0036 10.2426 13.5961C10.5644 13.9249 10.9041 14.236 11.2601 14.528L11.3583 14.6077L11.4565 14.5013L12.1794 13.6138C12.6435 13.0636 13.072 12.5133 13.554 11.9541C14.4466 10.8536 15.3214 9.7413 16.1782 8.61714C16.362 8.31777 16.655 8.10065 16.9961 8.01132C17.3372 7.92198 17.6998 7.96733 18.008 8.13785C18.3008 8.31682 18.5138 8.60029 18.6034 8.93023C18.693 9.26017 18.6524 9.61166 18.49 9.91284C16.7048 12.2913 14.8214 14.6255 12.8667 16.8798C12.6021 17.2276 12.2111 17.4586 11.7773 17.5233C11.3436 17.588 10.9016 17.4811 10.546 17.2258C9.97681 16.8461 9.43674 16.4249 8.93038 15.9656C7.94617 15.0707 7.09293 14.0431 6.39548 12.9127C6.23182 12.6088 6.19313 12.2535 6.2875 11.9218C6.38187 11.5901 6.60196 11.3079 6.90147 11.1342C7.20099 10.9606 7.55651 10.9093 7.89332 10.991C8.23012 11.0728 8.52188 11.2812 8.70723 11.5726V11.6436Z" fill="#00A99D"/>
<path d="M3.53926 18.3975C1.7541 14.7943 2.15576 10.9604 3.53926 7.39265C4.27055 6.14583 5.30873 5.10426 6.55619 4.36615H6.61863C6.47946 4.35166 6.33885 4.36995 6.20807 4.41945C4.13896 5.20022 2.40379 6.66634 1.29495 8.57071C0.186107 10.4751 -0.228684 12.7013 0.120604 14.8742C0.79004 18.9123 4.11048 21.8765 7.96643 22.8616C6.0573 21.8708 4.5089 20.3095 3.53926 18.3975Z" fill="#1E1E1E"/>
<path d="M17.4636 2.52898C14.2949 0.106113 9.94804 -0.941288 6.3063 1.03783C4.79784 1.8632 6.14566 4.16189 7.66304 3.33652C8.11269 3.09565 8.59309 2.91644 9.09115 2.80394C10.2542 2.11311 11.555 1.68309 12.9025 1.54376C14.4847 1.45352 16.0616 1.79421 17.4636 2.52898Z" fill="#1E1E1E"/>
<path d="M16.6691 5.35119C17.9255 6.54371 18.8609 8.03066 19.3895 9.67578C19.9182 11.3209 20.0232 13.0717 19.6949 14.7676C19.3558 16.445 18.6595 18.3174 17.0975 19.2671C15.3704 20.1842 13.4412 20.66 11.4832 20.6516C8.16283 20.7049 4.59247 19.1784 3.19112 16.01C2.83231 15.1768 2.64329 14.2812 2.63511 13.3748C2.62692 12.4685 2.7997 11.5694 3.14339 10.7299C3.48709 9.89041 3.99493 9.12705 4.63742 8.48407C5.27992 7.8411 6.04436 7.33141 6.88642 6.98426C7.21555 6.87228 7.49014 6.64111 7.65555 6.33684C7.82097 6.03256 7.86507 5.67743 7.779 5.3423C7.69404 5.07576 7.53179 4.84001 7.31266 4.66477C7.09354 4.48952 6.82729 4.38247 6.54723 4.35709H6.48469C5.23724 5.0952 4.19905 6.13677 3.46776 7.38359C2.11996 10.9336 1.6826 14.7852 3.46776 18.3884C4.43255 20.2852 5.96748 21.8362 7.8593 22.8259C8.26453 22.9376 8.67578 23.0266 9.09107 23.0922C11.6512 23.4568 14.2623 23.1792 16.687 22.2847C17.7791 21.9114 18.7759 21.3048 19.607 20.5075C20.4382 19.7102 21.0836 18.7414 21.498 17.6695C22.387 15.4969 22.6705 13.1264 22.3187 10.807C21.9668 8.48771 20.9926 6.30554 19.4986 4.49034C18.8794 3.75514 18.182 3.08861 17.4188 2.50236C16.0169 1.7676 14.4399 1.4269 12.8577 1.51715C11.5102 1.65648 10.2095 2.08672 9.0464 2.77754C11.7866 2.18292 14.7857 3.48745 16.6691 5.35119Z" fill="#1E1E1E"/>
<path d="M6.91329 11.1287C6.62212 11.3091 6.41043 11.5926 6.321 11.9219C6.23157 12.2513 6.271 12.6021 6.43127 12.9037C7.12872 14.0341 7.98196 15.0617 8.96617 15.9566C9.47253 16.4159 10.0126 16.8373 10.5818 17.217C10.9374 17.4723 11.3794 17.579 11.8131 17.5143C12.2469 17.4496 12.6379 17.2186 12.9025 16.8708C14.8572 14.6165 16.7227 12.2823 18.5257 9.90384C18.6881 9.60266 18.7287 9.25117 18.6391 8.92123C18.5495 8.59129 18.3366 8.30782 18.0438 8.12885C17.7356 7.95832 17.373 7.91298 17.0319 8.00231C16.6908 8.09165 16.3977 8.30876 16.2139 8.60813C15.357 9.7323 14.4824 10.8446 13.5898 11.9451C13.1346 12.5042 12.6972 13.0546 12.2152 13.6048L11.4922 14.4923L11.394 14.5987L11.2958 14.519C10.9398 14.227 10.6001 13.9159 10.2782 13.5871C9.69559 12.9946 9.18073 12.3398 8.74302 11.6346C8.56527 11.329 8.27415 11.1048 7.93205 11.0102C7.58995 10.9156 7.2242 10.9582 6.91329 11.1287Z" fill="#1E1E1E"/>
</svg>
