<svg width="263" height="175" viewBox="0 0 263 175" fill="none" xmlns="http://www.w3.org/2000/svg">
<path d="M161.851 108.64L116.074 119.43C101.369 122.937 86.102 125.532 71.8406 130.558C63.4123 133.527 66.5451 147.204 75.0669 144.211C89.3284 139.185 104.583 136.543 119.289 133.083L165.066 122.294C173.857 120.225 170.712 106.571 161.851 108.64Z" fill="#00A99D"/>
<path d="M84.2084 71.9471C83.3901 68.7325 82.8758 64.6528 80.5028 62.163C77.5803 59.1003 73.4889 60.0705 69.8067 60.6901C66.2998 61.2628 62.8747 61.9408 59.4379 62.689C57.999 62.964 56.6918 63.7081 55.7206 64.8048C54.7438 65.5832 54.0209 66.6348 53.6441 67.8257C53.2673 69.0165 53.2536 70.2925 53.6048 71.4912C54.4347 74.8811 55.3115 78.2477 56.2583 81.6026C57.4273 85.6472 59.3444 89.2709 64.0904 89.4346C67.5973 89.5398 71.4082 88.0669 74.7982 87.2603C78.574 86.3719 83.1446 85.8926 84.8981 81.8598C86.3009 78.6451 85.0384 75.1617 84.2084 71.9471Z" fill="#00A99D"/>
<path d="M209.919 14.6448C209.711 13.1341 208.943 11.7567 207.767 10.7848C206.592 9.81299 205.095 9.31745 203.572 9.3962C202.633 9.2477 201.674 9.29546 200.755 9.53647C192.899 11.438 185.071 13.4563 177.27 15.5916C175.994 15.5515 174.736 15.9067 173.67 16.6086C172.661 16.9575 171.754 17.5479 171.026 18.3284C170.299 19.1088 169.774 20.0555 169.496 21.0857C167.544 25.2238 169.064 30.1568 170.502 35.2067C173.132 44.418 175.365 53.7345 177.516 63.0628C181.56 80.6672 184.529 99.16 191.637 115.853C192.135 117.274 193.176 118.441 194.532 119.098C195.887 119.755 197.448 119.849 198.873 119.359C199.2 119.359 199.527 119.359 199.878 119.289C208.195 118.152 216.419 116.414 224.485 114.087C227.992 113.07 230.75 109.412 229.698 105.648C221.481 75.6874 215.659 45.1544 209.919 14.6448Z" fill="#00A99D"/>
<path d="M225.584 116.285H225.467C225.279 116.16 225.074 116.062 224.859 115.993C217.397 113.631 209.554 112.714 201.748 113.293C203.379 112.16 205.086 111.141 206.857 110.242C211.287 108.056 215.94 106.431 220.078 103.813C220.51 105.508 220.931 107.191 221.352 108.886C222.089 111.808 226.636 110.745 225.911 107.822C220.019 84.3341 214.132 60.8577 208.248 37.3929L203.21 17.2753C203.129 16.9015 202.95 16.5561 202.691 16.2746C202.432 15.9931 202.102 15.7857 201.737 15.6738C201.476 15.4446 201.161 15.2848 200.822 15.2092C200.483 15.1336 200.13 15.1447 199.796 15.2413C178.334 20.4548 156.844 25.5592 135.328 30.5546C113.811 35.5499 92.2744 40.4361 70.7185 45.2132C58.5535 47.9018 46.3845 50.5592 34.2116 53.1855C31.2658 53.8167 32.3412 58.3639 35.287 57.7327C56.8818 53.0569 78.4493 48.2993 99.9896 43.4598C120.813 38.784 141.605 33.9718 162.366 29.0232C167.556 54.3077 174.056 79.2063 181.069 104.047C183.143 110.892 184.641 117.899 185.547 124.994C177.309 126.818 169.08 128.653 160.858 130.5C139.31 135.371 117.793 140.354 96.3073 145.451C84.7657 148.171 73.2357 150.937 61.7175 153.75C55.9895 130.901 50.2577 108.044 44.5219 85.1797C42.8464 78.4933 41.167 71.803 39.4837 65.1088C38.7589 62.1864 34.1999 63.2501 34.9364 66.1725C40.828 89.6607 46.7157 113.137 52.5995 136.602L57.6378 156.684C57.7177 157.057 57.8951 157.401 58.1518 157.683C58.4086 157.964 58.7354 158.172 59.099 158.286C59.3624 158.515 59.6791 158.675 60.02 158.75C60.361 158.826 60.7155 158.815 61.0512 158.718C82.5135 153.505 103.999 148.397 125.508 143.393C147.017 138.39 168.557 133.508 190.129 128.746C202.286 126.058 214.455 123.4 226.636 120.774C229.593 120.143 228.518 115.596 225.584 116.285ZM204.157 106.384C198.826 109.073 194.442 113.34 188.96 115.736H188.855C188.071 111.773 187.078 107.857 186.002 103.953C195.349 101.712 204.985 100.924 214.572 101.615C211.159 103.345 207.523 104.596 204.157 106.326V106.384ZM175.867 67.1661C176.041 67.1692 176.214 67.1495 176.382 67.1077C181.925 66.0838 187.393 64.6857 192.747 62.9228C193.916 62.5254 194.968 62.0812 196.067 61.6253C190.152 66.1686 184.042 70.4548 177.738 74.4837C177.107 71.9705 176.475 69.5274 175.867 67.1077V67.1661ZM178.895 78.879H179.117C186 77.2926 192.996 76.249 200.042 75.7579C193.419 78.6987 187.044 82.1661 180.976 86.1265L180.871 86.2083C180.224 83.7847 179.565 81.3416 178.895 78.879ZM213.017 75.641L215.355 84.864C210.012 84.2718 204.62 84.2405 199.27 84.7705L191.52 85.2498C198.39 81.4192 205.593 78.2187 213.041 75.6878L213.017 75.641ZM198.99 89.4346C201.433 89.2827 203.864 89.1307 206.296 89.084C198.966 92.2401 191.216 94.5313 184.541 99.0317C183.711 96.1678 182.858 93.3273 182.04 90.475L198.99 89.4346ZM216.29 89.2476L216.361 89.1775C217.039 91.8816 217.713 94.5741 218.383 97.2549C211.783 96.5086 205.124 96.4381 198.51 97.0445C204.612 94.6949 210.831 92.696 216.361 89.2944L216.29 89.2476ZM211.743 70.7782C204.24 70.6311 196.737 71.1003 189.311 72.1809C195.904 67.5869 202.274 62.6657 208.412 57.4755L211.743 70.7782ZM207.067 52.2854C201.678 53.0101 197.131 56.2247 192.069 58.1301C188.92 59.2503 185.708 60.1832 182.449 60.9239C189.611 53.0452 196.496 44.921 203.104 36.5513L207.067 52.2854ZM192.291 21.7757C194.536 21.238 196.769 20.712 199.001 20.1626L202.052 32.3197C201.448 32.2261 200.831 32.373 200.334 32.7288C192.447 36.0252 184.72 39.6841 177.153 43.7053C178.449 41.4293 179.994 39.3044 181.759 37.3695C185.496 32.764 188.91 27.9051 191.976 22.8278C192.209 22.5382 192.358 22.1907 192.408 21.8225L192.291 21.7757ZM166.796 27.8894C172.045 26.6503 177.317 25.3761 182.531 24.1136C177.769 27.6672 173.05 31.2871 168.374 34.9732C167.895 32.6236 167.392 30.2857 166.913 27.9361L166.796 27.8894ZM169.134 39.0762C169.506 39.1329 169.886 39.1101 170.249 39.0094C170.612 38.9086 170.949 38.7322 171.238 38.4918C174.356 36.0448 177.473 33.6406 180.59 31.2793C179.702 32.4483 178.766 33.6172 177.796 34.7862C175.986 36.7603 174.417 38.942 173.12 41.2855C172.29 42.887 171.566 44.5469 170.701 46.125C170.264 43.8027 169.793 41.4726 169.286 39.1347L169.134 39.0762ZM172.396 51.6308C179.339 47.6797 186.447 44.0442 193.718 40.7244C187.686 48.2369 181.358 55.5 174.734 62.5137C173.857 59.0068 172.992 55.3831 172.162 51.8061C172.293 51.7729 172.422 51.7299 172.548 51.6775L172.396 51.6308ZM189.439 119.956C189.77 120.031 190.114 120.031 190.445 119.956C198.462 117.657 206.886 117.15 215.121 118.471C206.744 120.287 198.362 122.119 189.977 123.965C189.977 122.645 189.802 121.324 189.591 120.003L189.439 119.956Z" fill="#1E1E1E"/>
<path d="M83.8343 82.3855L82.9342 78.8787L81.0639 71.5961C80.3157 68.6854 75.7684 69.7492 76.5166 72.6716C77.3816 76.0615 78.422 79.4632 79.1818 82.8999C76.3295 83.6597 73.337 84.174 70.5197 84.8403L65.3061 86.0093L62.711 86.6054L61.4018 86.9094C61.3433 86.5119 61.2849 86.0911 61.2381 85.8924C61.0394 84.8871 60.8173 83.8935 60.5718 82.8882C60.1042 80.9828 59.5665 79.0774 58.9703 77.2071C58.0352 74.2964 56.948 71.4442 55.7323 68.6504L63.8333 66.8969C66.7791 66.254 65.7036 61.7068 62.7578 62.338L51.863 64.6759C51.5115 64.7577 51.1838 64.9198 50.9054 65.1494C50.627 65.379 50.4056 65.6699 50.2584 65.9993C50.1112 66.3288 50.0423 66.6879 50.057 67.0484C50.0717 67.409 50.1697 67.7612 50.3433 68.0776C52.1712 71.8669 53.6957 75.7952 54.9023 79.8255C55.5102 81.8595 56.0713 83.9286 56.4921 86.0093C56.8896 87.7978 56.9363 90.2409 58.6898 91.3163C60.4432 92.3918 62.8981 91.3163 64.7217 90.9072L71.1159 89.4226L77.5102 87.9498L80.5846 87.2367C81.7264 87.1399 82.7961 86.6383 83.6005 85.8223C84.4188 84.8053 84.1383 83.5545 83.8343 82.3855Z" fill="#1E1E1E"/>
<path d="M79.0298 57.2063C78.5026 56.8814 77.868 56.7789 77.2653 56.9213C76.6626 57.0638 76.1411 57.4395 75.8151 57.9661L72.3082 63.1563C71.7705 63.9395 71.2328 64.7343 70.66 65.4942L70.1807 66.0202C70.1111 66.0962 70.0485 66.1784 69.9936 66.2657C69.6663 66.6514 69.3157 67.0138 68.965 67.3762C68.7275 67.584 68.5345 67.8378 68.3977 68.1222C68.2609 68.4066 68.1831 68.7157 68.169 69.031C68.1548 69.3462 68.2047 69.6611 68.3155 69.9566C68.4263 70.2521 68.5958 70.522 68.8138 70.7503C69.0318 70.9785 69.2937 71.1602 69.5838 71.2845C69.8738 71.4088 70.1861 71.4731 70.5017 71.4735C70.8173 71.4739 71.1297 71.4104 71.42 71.2868C71.7104 71.1632 71.9728 70.9821 72.1913 70.7544C73.6644 69.2107 74.9837 67.5273 76.1307 65.728L79.7662 60.3976C80.086 59.8752 80.1879 59.2482 80.0502 58.6514C79.9125 58.0547 79.5461 57.5358 79.0298 57.2063Z" fill="#1E1E1E"/>
<path d="M117.302 109.529L69.8768 120.295C66.931 120.961 68.0065 125.508 70.9406 124.842L118.366 114.088C121.3 113.421 120.236 108.862 117.302 109.529Z" fill="#1E1E1E"/>
<path d="M101.743 128.068C91.9157 129.791 82.1743 131.945 72.5186 134.533C69.6195 135.316 70.6716 139.863 73.594 139.08C83.2264 136.5 92.9678 134.346 102.818 132.616C105.799 132.101 104.724 127.542 101.743 128.068Z" fill="#1E1E1E"/>
<path d="M156.93 114.918C150.571 117.326 143.802 118.53 137.186 119.991L116.939 124.468C114.005 125.123 115.069 129.67 118.015 129.015L138.226 124.538C144.843 123.077 151.611 121.873 157.97 119.465C158.564 119.307 159.074 118.929 159.398 118.408C159.722 117.886 159.834 117.261 159.712 116.659C159.57 116.062 159.199 115.544 158.678 115.218C158.157 114.892 157.53 114.784 156.93 114.918Z" fill="#1E1E1E"/>
<path d="M82.2211 159.981C77.5452 161.539 72.8304 162.962 68.0766 164.247C65.7386 164.902 63.3578 165.529 60.9342 166.129L57.3454 167.018C56.7025 167.17 56.0596 167.357 55.4166 167.474L55.1127 167.532C54.8253 166.603 54.4698 165.697 54.0489 164.82C53.6047 163.651 53.1722 162.4 52.7514 161.173C51.9682 158.917 51.2434 156.637 50.5537 154.335C49.1977 149.752 48.0287 145.1 47.0468 140.412C46.4273 137.478 41.9267 138.717 42.5346 141.663C43.6217 146.888 44.9426 152.067 46.5208 157.163C47.3001 159.805 48.1768 162.424 49.1509 165.019C49.8991 167.088 50.4953 170.151 52.4241 171.483C54.3529 172.816 57.1701 171.869 59.4379 171.32C62.2083 170.653 64.9554 169.952 67.7025 169.204C72.9941 167.762 78.2544 166.203 83.4836 164.528C86.3125 163.569 85.0851 159.046 82.2211 159.981Z" fill="#1E1E1E"/>
<path d="M167.077 1.97343C166.118 5.38677 165.019 8.74168 163.839 12.0732C160.037 10.5744 156.727 8.04907 154.276 4.77891C154.07 4.42734 153.776 4.13583 153.422 3.93327C153.068 3.7307 152.668 3.62412 152.26 3.62412C151.852 3.62412 151.452 3.7307 151.098 3.93327C150.744 4.13583 150.45 4.42734 150.244 4.77891C148.1 8.48059 145.965 12.194 143.838 15.919L133.083 9.73529C132.818 9.57974 132.524 9.47811 132.219 9.43623C131.914 9.39435 131.604 9.41305 131.307 9.49124C131.009 9.56943 130.73 9.70559 130.485 9.89189C130.24 10.0782 130.035 10.311 129.88 10.5769L125.344 20.1974C121.744 18.0309 118.237 15.732 114.824 13.3006C114.559 13.1445 114.266 13.0422 113.962 12.9995C113.657 12.9568 113.348 12.9745 113.05 13.0515C112.753 13.1286 112.473 13.2636 112.228 13.4487C111.983 13.6339 111.776 13.8655 111.621 14.1305C109.271 18.2689 106.606 22.22 103.648 25.9486L95.828 20.3026C95.3813 20.0396 94.8599 19.9324 94.3457 19.998C93.8315 20.0636 93.3537 20.2982 92.9874 20.665C90.0532 23.8913 87.1425 27.141 84.1616 30.3556L83.9162 30.6244L83.2732 30.2036L80.7015 28.3684L75.032 24.3588C74.5841 24.0973 74.0619 23.9921 73.5477 24.0598C73.0334 24.1275 72.5563 24.3643 72.1914 24.7329L59.999 36.5393C57.8364 38.6434 61.168 41.9399 63.3072 39.8475L74.0851 29.3971L79.287 33.0675C81.1691 34.4002 83.3317 36.4692 85.7631 35.1833C86.7289 34.5541 87.579 33.7632 88.2764 32.8454L90.9534 29.8997L95.0097 25.446L102.947 31.1855C103.394 31.4486 103.915 31.5557 104.429 31.4901C104.943 31.4245 105.421 31.1899 105.788 30.8232C108.949 26.9911 111.825 22.9317 114.391 18.6778C117.914 21.117 121.518 23.412 125.204 25.5629C125.47 25.7184 125.763 25.8201 126.068 25.8619C126.373 25.9038 126.683 25.8851 126.98 25.8069C127.278 25.7288 127.557 25.5926 127.802 25.4063C128.047 25.22 128.252 24.9872 128.407 24.7213L132.966 15.0657L143.487 21.1559C143.752 21.3115 144.046 21.4131 144.351 21.455C144.655 21.4969 144.966 21.4782 145.263 21.4C145.561 21.3218 145.84 21.1856 146.085 20.9993C146.33 20.813 146.535 20.5802 146.69 20.3143C148.662 16.8776 150.641 13.437 152.628 9.99246C155.911 13.4514 160.048 15.9835 164.622 17.3335C164.918 17.4151 165.228 17.4374 165.533 17.3993C165.837 17.3612 166.132 17.2634 166.399 17.1114C166.666 16.9594 166.901 16.7562 167.089 16.5135C167.278 16.2708 167.416 15.9933 167.498 15.6969C169.056 11.6056 170.408 7.45194 171.554 3.23592C172.396 0.31354 167.883 -0.925569 167.077 1.97343Z" fill="#1E1E1E"/>
<path d="M262.476 67.575C260.524 64.8642 258.256 62.3958 255.72 60.2223C254.436 59.1363 253.093 58.1217 251.698 57.1831C249.968 56.0141 248.32 55.0789 246.169 55.4296C245.675 55.5654 245.239 55.8597 244.929 56.2674C244.618 56.675 244.45 57.1733 244.451 57.6857L244.252 59.6262C242.895 63.5699 242.142 67.6962 242.019 71.8651C242.019 72.4851 242.266 73.0798 242.704 73.5182C243.143 73.9567 243.737 74.203 244.357 74.203C247.222 74.0378 250.064 73.5955 252.844 72.8821L261.027 71.0468C261.382 70.9597 261.712 70.7904 261.99 70.5524C262.269 70.3145 262.487 70.0145 262.628 69.6768C262.769 69.3391 262.829 68.9729 262.802 68.6079C262.776 68.2428 262.664 67.889 262.476 67.575ZM251.956 68.2764C250.261 68.6505 248.601 69.0245 246.929 69.2583C247.226 66.394 247.854 63.5736 248.799 60.8535C249.255 61.1458 249.711 61.438 250.144 61.7537C251.163 62.4693 252.136 63.2502 253.054 64.0916C254.202 65.1084 255.291 66.1895 256.316 67.3295L251.956 68.2764Z" fill="#00A99D"/>
<path d="M133.89 168.105C131.938 165.394 129.67 162.926 127.133 160.752C125.849 159.666 124.507 158.652 123.112 157.713C121.382 156.544 119.733 155.609 117.582 155.96C117.088 156.095 116.653 156.39 116.342 156.797C116.032 157.205 115.864 157.703 115.864 158.216L115.665 160.156C114.308 164.1 113.555 168.226 113.433 172.395C113.433 173.015 113.679 173.61 114.117 174.048C114.556 174.487 115.15 174.733 115.771 174.733C118.635 174.568 121.478 174.125 124.257 173.412L132.44 171.577C132.796 171.49 133.126 171.32 133.404 171.082C133.682 170.845 133.9 170.545 134.041 170.207C134.182 169.869 134.242 169.503 134.216 169.138C134.189 168.773 134.078 168.419 133.89 168.105ZM123.369 168.806C121.674 169.18 120.014 169.555 118.342 169.788C118.639 166.924 119.267 164.104 120.213 161.384C120.669 161.676 121.124 161.968 121.557 162.284C122.577 162.999 123.549 163.78 124.468 164.622C125.615 165.638 126.704 166.719 127.729 167.86L123.369 168.806Z" fill="#00A99D"/>
<path d="M257.029 92.0645C256.733 90.9359 256.189 89.8875 255.437 88.9957C254.685 88.1039 253.743 87.3912 252.68 86.9094C250.314 86.02 247.744 85.8214 245.269 86.3366C244.909 86.4034 244.579 86.5789 244.322 86.8393C241.143 87.8329 238.138 89.4811 237.016 92.8828C236.482 94.7681 236.572 96.7754 237.271 98.6058C237.97 100.436 239.242 101.992 240.897 103.041C242.65 104.044 244.644 104.549 246.663 104.502C248.682 104.455 250.649 103.857 252.353 102.772C255.93 100.516 258.198 96.2961 257.029 92.0645ZM252.645 94.8583C252.645 94.9752 252.645 95.2207 252.645 95.2207C252.645 95.4311 252.528 95.6415 252.47 95.8636C252.47 95.8636 252.47 95.9922 252.4 96.0389C252.36 96.1396 252.313 96.2372 252.26 96.3311C252.095 96.6483 251.907 96.9531 251.698 97.2429C251.673 97.2726 251.65 97.3039 251.628 97.3365L251.243 97.7573C251.114 97.8859 250.974 98.0261 250.833 98.143C250.693 98.2599 250.565 98.3651 250.518 98.4236C250.035 98.7748 249.518 99.0764 248.975 99.3237L248.694 99.4172L248.156 99.5808C247.839 99.6744 247.514 99.7448 247.186 99.7913H246.906H246.345C246.087 99.7913 245.83 99.7913 245.573 99.7913H245.316L244.778 99.6744L244.357 99.5458L244.007 99.4055C243.703 99.2535 243.422 99.0899 243.13 98.9146L243.013 98.8327L242.721 98.5639C242.627 98.4703 242.288 98.0495 242.3 98.0963C242.125 97.8274 241.949 97.5586 241.797 97.2663L241.692 96.9975L241.622 96.7987C241.528 96.5182 241.482 96.2259 241.411 95.9337V95.8753C241.411 95.7467 241.411 95.6181 241.411 95.4778C241.411 95.3376 241.411 95.1505 241.411 94.9869C241.406 94.9481 241.406 94.9087 241.411 94.87C241.468 94.7191 241.507 94.5622 241.528 94.4024C241.528 94.4024 241.622 94.1686 241.645 94.0751C241.75 93.8597 241.871 93.6526 242.008 93.4555L242.171 93.2568C242.339 93.0736 242.519 92.9018 242.709 92.7425C242.639 92.7425 242.358 92.9763 242.709 92.7425L243.247 92.3918L243.633 92.1814L244.018 91.9944H244.112L244.474 91.8541L245.105 91.632C245.877 91.3748 246.66 91.1761 247.443 90.989L247.642 90.9072H248.425C248.76 90.89 249.096 90.89 249.431 90.9072H249.571C249.828 90.9657 250.097 91.0124 250.354 91.0943L250.67 91.1995L250.974 91.3514L251.371 91.5852L251.488 91.6553C251.51 91.6945 251.537 91.73 251.57 91.7605C251.688 91.9097 251.817 92.0503 251.956 92.1814L252.178 92.5204C252.178 92.5204 252.306 92.7659 252.365 92.8828C252.423 92.9997 252.482 93.2218 252.482 93.2101C252.482 93.1984 252.563 93.4789 252.599 93.6192L252.657 93.9231V94.2621V94.6829C252.657 94.6829 252.657 94.7414 252.645 94.8583Z" fill="#1E1E1E"/>
<path d="M32.5865 96.7405C32.2907 95.6119 31.7469 94.5636 30.9946 93.6718C30.2423 92.78 29.3006 92.0672 28.238 91.5854C25.8717 90.6961 23.3015 90.4974 20.8267 91.0127C20.4671 91.0795 20.1366 91.2549 19.8798 91.5153C16.7002 92.5089 13.696 94.1571 12.5738 97.5588C12.04 99.4441 12.1295 101.451 12.8288 103.282C13.5281 105.112 14.7999 106.668 16.4548 107.717C18.2075 108.72 20.2011 109.226 22.2202 109.178C24.2392 109.131 26.2069 108.533 27.9107 107.448C31.4877 105.192 33.7555 100.972 32.5865 96.7405ZM28.2029 99.5343C28.2029 99.6512 28.1445 99.8967 28.1445 99.8967C28.1445 100.107 28.0276 100.318 27.9691 100.54L27.899 100.715C27.8593 100.816 27.8125 100.913 27.7587 101.007C27.5941 101.324 27.4066 101.629 27.1976 101.919L27.1275 102.012L26.7417 102.433C26.6131 102.562 26.4728 102.702 26.3326 102.819C26.1923 102.936 26.0637 103.041 26.0169 103.1C25.5342 103.451 25.0173 103.752 24.4739 104L24.1933 104.093L23.6556 104.257C23.3377 104.35 23.0135 104.421 22.6854 104.467H22.4048H21.8437C21.5865 104.467 21.3294 104.467 21.0722 104.467H20.815L20.2773 104.35L19.8565 104.222L19.5058 104.082C19.2018 103.93 18.9213 103.766 18.629 103.591L18.5121 103.509L18.2199 103.24C18.1264 103.146 17.7874 102.726 17.7991 102.772C17.6237 102.503 17.4484 102.235 17.2964 101.942L17.1912 101.673L17.1211 101.475C17.0276 101.194 16.9808 100.902 16.9107 100.61V100.551C16.9107 100.423 16.9107 100.294 16.9107 100.154C16.9107 100.014 16.9107 99.8265 16.9107 99.6629C16.9049 99.6241 16.9049 99.5847 16.9107 99.546C16.9674 99.3951 17.0066 99.2382 17.0276 99.0784C17.0276 99.0784 17.1211 98.8446 17.1444 98.7511C17.2495 98.5358 17.3706 98.3287 17.5068 98.1316L17.6705 97.9328C17.8381 97.7496 18.0177 97.5778 18.2082 97.4185C18.1381 97.4185 17.8575 97.6523 18.2082 97.4185L18.7459 97.0678L19.1317 96.8574L19.5175 96.6704H19.611L19.9734 96.5301L20.6046 96.308C21.3761 96.0508 22.1593 95.8521 22.9425 95.6651L23.1413 95.5833H23.9245C24.2594 95.5661 24.5949 95.5661 24.9298 95.5833H25.0701C25.3272 95.6417 25.5961 95.6885 25.8533 95.7703L26.1689 95.8755L26.4728 96.0275L26.8703 96.2612L26.9872 96.3314C27.0087 96.3706 27.0363 96.4061 27.069 96.4366C27.1876 96.5857 27.3165 96.7263 27.4548 96.8574L27.6769 97.1964C27.6769 97.1964 27.8055 97.4419 27.8639 97.5588C27.9224 97.6757 27.9808 97.8978 27.9808 97.8861C27.9808 97.8744 28.0626 98.1549 28.0977 98.2952L28.1562 98.5991V98.9381V99.359C28.1562 99.359 28.2146 99.4174 28.2029 99.5343Z" fill="#00A99D"/>
<path d="M47.3156 50.415C46.6694 48.348 45.6338 46.4236 44.2646 44.7456C42.9433 42.9242 41.3957 41.2784 39.6589 39.8477C35.7311 36.8084 30.424 36.5045 25.6312 36.6097C21.8204 36.6916 17.6355 37.7787 15.1105 40.6309C9.44097 45.9263 6.49516 54.296 9.04352 61.8357C10.2715 65.5178 12.6221 68.7228 15.7651 71.0003C19.3889 73.5954 24.0765 74.3201 28.4367 74.4487C32.6646 74.7477 36.8688 73.6019 40.3602 71.199C43.3074 68.9346 45.523 65.8531 46.7311 62.3384C48.1434 58.5178 48.3474 54.3555 47.3156 50.415Z" fill="#00A99D"/>
<path d="M43.5749 38.585C42.2072 39.8709 40.8629 41.1801 39.5186 42.4776C38.8054 41.3904 37.9913 40.3728 37.0871 39.4384C33.4216 35.9507 29.076 33.2566 24.322 31.5246C19.2837 29.4789 13.8012 28.1229 8.59933 30.5777C5.88732 31.8869 8.24864 35.9198 10.9373 34.6223C14.4442 32.9156 18.7694 34.3651 22.2178 35.6977C25.565 36.9307 28.7152 38.6436 31.5696 40.7827C33.355 42.1714 34.8621 43.8847 36.0117 45.8326C31.5696 50.1655 27.1938 54.5724 22.8842 59.0534L16.5717 51.4201C16.1337 50.9847 15.5411 50.7403 14.9235 50.7403C14.3058 50.7403 13.7133 50.9847 13.2752 51.4201C12.85 51.8659 12.6128 52.4582 12.6128 53.0742C12.6128 53.6902 12.85 54.2825 13.2752 54.7283L20.967 64.0799C21.266 64.4307 21.6807 64.663 22.136 64.7345C22.5353 64.8979 22.9759 64.9317 23.3955 64.831C23.815 64.7303 24.1923 64.5003 24.474 64.1734C28.8693 59.5911 33.3309 55.0712 37.8587 50.6136C38.459 53.3989 38.3179 56.2929 37.4495 59.0066C36.3896 62.1123 34.4365 64.8361 31.835 66.8366C29.2336 68.837 26.0995 70.0251 22.8257 70.2519C19.4695 70.5429 16.1018 69.8402 13.1419 68.2314C10.1821 66.6227 7.7608 64.1789 6.17956 61.2043C4.52759 57.955 4.18249 54.1966 5.21514 50.7009C6.24778 47.2052 8.57978 44.2375 11.7322 42.4075C14.3624 40.958 12.0127 36.9134 9.39423 38.3746C5.76365 40.4979 2.94155 43.7674 1.37149 47.6692C-0.198571 51.571 -0.427571 55.884 0.720471 59.9301C2.02179 64.0081 4.49916 67.6106 7.84139 70.2852C11.1836 72.9598 15.2417 74.5871 19.5058 74.9628C28.0276 75.7343 37.0404 71.2222 40.7928 63.4253C42.0511 60.8665 42.7851 58.0819 42.9518 55.2354C43.1184 52.3888 42.7142 49.5376 41.763 46.8495L46.9299 41.8932C49.0691 39.8241 45.7609 36.5277 43.5749 38.585Z" fill="#1E1E1E"/>
</svg>
