<svg width="266" height="208" viewBox="0 0 266 208" fill="none" xmlns="http://www.w3.org/2000/svg">
<path d="M141.947 93.6575C141.529 86.134 135.558 80.7601 129.349 77.4761C126.005 75.7445 122.482 74.3115 118.661 74.0726C115.317 73.8935 112.033 74.5503 108.808 75.3862C107.913 75.5057 107.077 75.6251 106.241 75.7445C105.584 75.8639 105.106 76.1625 104.808 76.5804C103.673 76.6401 102.479 77.3567 102.479 78.9091C102.3 89.5375 101.763 100.345 102.539 110.973C102.778 114.437 102.778 119.572 107.435 119.213C108.868 119.094 110.361 118.915 111.854 118.676C118.959 119.691 127.318 116.706 132.991 112.586C138.305 108.704 142.246 100.226 141.947 93.6575ZM124.93 100.345C122.601 105.062 118.123 108.466 112.988 109.301C112.63 102.017 112.152 94.7323 111.674 87.4476C111.854 87.3879 112.092 87.3282 112.272 87.2685C114.481 86.2535 116.81 86.0743 118.959 86.4326C124.452 88.5821 127.916 94.2546 124.93 100.345Z" fill="#FBB03B"/>
<path d="M172.818 95.0906C172.818 94.3741 172.46 93.7173 171.624 93.2396C166.31 90.2541 160.936 87.2686 155.622 84.3428C155.084 84.0442 154.607 83.9845 154.129 84.0442C153.293 83.8651 152.457 84.2234 151.98 85.2384C148.218 93.4187 145.292 101.898 142.486 110.436C141.053 114.675 139.56 118.915 138.246 123.214C137.052 127.155 139.44 128.11 142.963 128.827C144.038 129.006 145.113 129.245 146.188 129.484C150.666 131.215 155.204 132.768 159.861 134.141C161.891 134.738 163.026 132.947 162.727 131.335C162.847 131.155 162.906 130.976 163.026 130.737C164.101 127.991 161.832 126.08 159.443 125.543C157.413 125.065 155.204 125.005 153.174 124.707L149.651 124.289C149.591 124.289 149.531 124.289 149.472 124.289C149.531 123.513 149.233 122.736 148.337 122.139C148.278 122.079 148.158 122.02 148.098 121.96C149.113 119.99 149.77 117.9 150.785 115.929C151.144 115.989 151.442 116.108 151.8 116.168C152.875 116.467 153.95 116.765 155.025 117.064C157.174 117.721 159.324 118.437 161.414 119.213C162.966 119.811 164.28 118.437 164.399 117.004C164.638 116.706 164.817 116.407 164.937 115.929C165.175 114.675 165.534 113.541 166.011 112.406C166.549 111.153 165.414 109.839 164.34 109.481C160.399 108.107 156.398 106.734 152.457 105.361L154.667 99.8674C159.204 100.226 163.683 102.495 167.922 104.107C168.639 104.346 169.236 104.286 169.713 104.047C170.311 103.808 170.848 103.331 171.027 102.495C171.564 100.405 172.162 98.3149 172.818 96.2848C172.878 95.8071 172.878 95.4488 172.818 95.0906Z" fill="#FBB03B"/>
<path d="M134.962 139.455C133.708 133.842 131.618 128.051 126.364 125.005C122.184 122.557 115.079 121.423 111.197 125.005C107.376 128.528 105.525 134.798 107.018 139.813C107.436 141.306 108.63 142.799 108.69 144.351C108.69 145.605 107.495 149.068 105.704 148.173C104.331 147.516 103.614 144.769 103.256 143.515C102.599 141.545 102.301 139.634 102.181 137.544C102.062 135.873 100.748 134.977 99.136 135.216C97.285 135.574 95.5534 136.052 93.8218 136.828H93.7621C92.6277 136.888 91.4932 137.604 91.4932 139.097C91.6126 145.665 93.2845 151.934 97.703 156.95C98.4792 157.846 99.4346 157.905 100.211 157.488C104.092 160.115 109.048 161.548 113.287 158.741C118.422 155.338 118.243 147.755 118.243 142.381C118.243 139.992 117.646 133.245 121.109 133.126C124.334 133.006 126.423 139.395 127.259 141.724C127.259 141.784 127.319 141.844 127.319 141.844C127.379 141.903 127.379 142.023 127.439 142.082C127.439 142.142 127.498 142.202 127.498 142.202C127.857 142.799 128.454 143.217 129.17 143.277C129.827 143.396 130.484 143.277 131.021 142.918C131.797 142.679 132.514 142.5 133.29 142.261C134.544 142.082 135.201 140.769 134.962 139.455Z" fill="#FBB03B"/>
<path d="M164.04 150.203C163.085 147.456 162.01 144.769 160.697 142.202C160.338 141.485 159.443 140.948 158.607 141.007C147.023 141.724 136.215 147.217 124.751 148.71C122.661 148.949 122.005 151.397 122.84 152.711C122.542 153.606 122.84 154.621 123.139 155.696C123.557 157.308 123.856 159.458 124.871 160.831C125.826 162.204 127.199 162.085 128.752 161.906C131.08 161.607 133.469 161.189 135.798 160.771C140.515 159.876 145.232 158.861 149.829 157.607C154.128 156.472 158.129 154.024 162.428 153.248C163.622 152.949 164.458 151.337 164.04 150.203Z" fill="#FBB03B"/>
<path d="M191.447 184.835C187.327 176.535 183.685 167.996 179.983 159.458C179.087 157.368 178.192 155.278 177.296 153.188C176.699 151.755 176.221 149.845 174.669 149.128C173.475 148.591 172.34 149.068 171.206 149.546C169.116 150.442 167.086 151.397 165.055 152.352C164.518 152.591 164.16 152.949 163.981 153.367C163.085 153.785 162.548 154.741 162.966 155.935C164.757 160.831 166.608 165.727 168.877 170.385C169.952 172.594 171.385 174.564 172.698 176.654C172.997 177.072 173.236 177.55 173.475 178.028C172.997 177.669 172.519 177.371 172.041 177.072C171.683 176.833 171.385 176.774 171.026 176.714C168.817 174.744 166.668 172.773 164.399 170.922C160.279 167.638 156.696 163.697 152.457 160.592C151.86 160.115 151.262 160.055 150.725 160.234C149.411 160.174 148.158 160.891 146.963 161.428C145.769 161.966 144.575 162.563 143.381 163.22C141.649 164.235 142.067 166.324 143.321 167.22C144.933 169.191 144.933 173.191 145.53 175.58C146.366 178.804 147.381 181.968 148.575 185.073C150.844 190.985 153.651 196.657 156.935 202.091C158.069 203.942 160.458 203.285 161.174 201.792C163.145 201.016 165.055 200.18 166.906 199.284C168.101 198.687 168.339 197.075 167.742 196C165.653 192.119 164.339 187.88 162.488 183.819C162.01 182.685 161.473 181.551 160.876 180.476C161.712 181.192 162.488 181.909 163.264 182.745C165.235 184.775 167.384 186.268 169.653 187.76C169.773 188.238 170.071 188.656 170.549 189.014C173.176 190.985 176.341 194.746 179.923 193.493C183.625 192.179 187.208 189.97 190.552 187.999C191.746 187.462 191.985 186.029 191.447 184.835Z" fill="#FBB03B"/>
<path d="M137.47 165.13C128.215 163.757 118.661 159.637 109.346 162.324C107.256 162.503 105.226 163.04 103.435 164.115C99.5538 166.444 97.046 171.4 95.7324 175.58C94.2396 180.297 94.4188 185.133 96.3295 189.671C100.27 199.046 107.734 206.808 118.243 207.703C121.945 208.002 128.931 208.957 130.484 204.539C132.454 198.807 133.469 192.537 134.902 186.626C135.26 185.253 134.484 184.178 133.23 183.7C129.827 182.327 124.99 180.177 121.288 180.595C117.586 181.073 117.467 185.73 116.81 188.596C116.452 190.029 117.527 191.701 119.139 191.642C120.811 191.582 123.199 192.776 120.99 194.328C120.154 194.866 118.9 194.926 117.944 194.866C116.034 194.687 114.302 193.791 112.989 192.358C109.705 188.835 109.824 183.461 111.138 179.102C111.794 176.953 112.63 174.624 113.884 172.773C115.437 170.504 117.885 170.265 120.512 170.146C122.721 170.027 124.931 170.206 127.02 170.683C127.259 171.28 127.737 171.758 128.573 171.937C130.484 172.355 132.096 173.072 133.708 174.206C134.783 174.923 136.335 174.385 136.992 173.37C137.291 173.191 137.529 172.952 137.768 172.594C138.843 170.982 139.321 169.37 139.38 167.459C139.261 166.504 138.425 165.309 137.47 165.13Z" fill="#FBB03B"/>
<path d="M137.351 140.112C137.291 139.993 137.291 139.873 137.171 139.813C136.156 137.007 135.201 134.081 134.066 131.335C133.051 128.887 131.618 126.797 129.529 125.185C127.558 123.692 125.289 122.617 122.96 121.781C120.333 120.766 117.646 119.811 114.78 120.467C113.467 120.766 112.153 121.423 110.959 122.02C109.765 122.617 108.57 123.214 107.615 124.169C105.645 126.08 104.868 129.125 104.57 131.753C104.211 134.559 104.57 137.425 105.346 140.112C105.764 141.485 106.361 142.68 106.839 144.053C107.137 145.008 107.436 146.262 106.839 147.218C106.182 148.233 104.809 148.113 103.853 147.635C102.659 146.979 101.763 145.784 100.987 144.65C99.3153 142.142 98.1808 139.276 97.7628 136.231C97.7031 135.574 97.2851 135.037 96.5686 135.037C96.3298 135.037 96.0909 135.096 95.9118 135.216H95.8521C93.2249 135.813 91.0156 137.246 88.4481 137.903C88.1495 137.843 87.7913 137.962 87.5524 138.142C86.9553 138.321 86.6568 139.037 86.7762 139.575C86.8359 139.754 86.9553 139.933 87.0747 140.052C87.1942 144.829 88.866 149.546 91.8515 153.308C94.9565 157.189 99.5541 159.816 104.51 160.533C107.018 160.891 109.645 160.772 112.093 160.055C114.84 159.279 116.87 157.667 118.243 155.159C119.617 152.591 120.154 149.666 120.035 146.8C119.975 145.247 119.736 143.695 119.438 142.202C119.139 140.709 118.721 139.276 118.602 137.783C118.542 137.067 118.602 136.41 118.781 135.753C118.84 135.455 119.139 134.38 119.557 134.32C119.975 134.201 120.811 135.037 121.109 135.335C121.647 135.813 122.124 136.291 122.542 136.828C124.274 138.858 125.349 141.485 125.528 144.113C125.588 144.531 125.767 144.769 126.006 145.008C126.244 145.367 126.662 145.546 127.2 145.367C130.424 144.471 133.29 142.739 136.395 141.605C137.112 141.366 137.53 140.769 137.351 140.112ZM127.797 142.68C127.439 140.709 126.782 138.739 125.647 137.007C124.991 135.932 124.214 134.977 123.319 134.081C122.423 133.245 121.348 132.23 120.154 131.991C117.109 131.394 116.153 135.634 116.273 137.843C116.452 140.829 117.527 143.695 117.706 146.74C117.825 149.606 117.288 152.472 115.736 154.92C114.302 157.129 111.795 158.025 109.287 158.324C104.45 158.921 99.375 157.309 95.7924 154.024C91.8515 150.502 89.702 145.367 89.5826 140.172C91.6724 139.575 93.6428 138.44 95.7327 137.783C96.1507 139.993 96.8672 142.082 97.942 144.113C99.1362 146.322 100.748 148.83 103.137 149.904C105.585 150.979 108.511 150.143 109.406 147.516C110.302 144.889 108.63 142.381 107.854 139.933C107.018 137.306 106.66 134.44 107.018 131.693C107.376 129.066 108.272 126.319 110.66 124.946C112.929 123.632 115.556 122.259 118.243 122.796C120.691 123.334 123.259 124.349 125.468 125.483C127.976 126.797 130.066 128.528 131.38 131.096C132.036 132.469 132.514 133.962 133.051 135.395C133.589 136.888 134.126 138.321 134.664 139.813C132.335 140.709 130.126 141.844 127.797 142.68Z" fill="#1E1E1E"/>
<path d="M138.545 165.31C138.485 165.25 138.366 165.19 138.306 165.19C134.604 163.817 130.902 162.384 127.081 161.19C123.498 160.055 119.915 159.219 116.094 159.637C114.124 159.876 112.213 160.294 110.302 160.712C108.571 161.07 106.899 161.548 105.346 162.264C102.42 163.578 100.211 166.086 98.8378 168.952C97.2257 172.236 96.6883 175.819 96.4494 179.461C96.2703 182.805 96.2106 186.208 96.8077 189.492C97.3451 192.657 98.6587 195.762 100.928 198.09C103.376 200.598 106.66 202.33 109.824 203.643C113.347 205.136 117.109 206.032 120.931 206.33C122.841 206.51 124.812 206.51 126.782 206.33C128.275 206.211 130.962 206.211 131.26 204.3C131.32 203.942 131.26 203.584 131.081 203.285C131.38 198.449 133.47 193.97 135.201 189.492C135.619 188.298 136.037 187.164 136.455 185.969C136.813 184.895 137.351 183.521 136.754 182.446C136.216 181.431 134.783 181.073 133.768 180.715C132.455 180.237 131.201 179.819 129.887 179.401C126.901 178.446 123.856 177.729 120.811 177.132C120.751 177.132 120.692 177.132 120.632 177.132C120.154 177.013 119.497 177.192 119.318 177.67C118.064 180.357 117.109 183.163 116.631 186.089C116.393 187.462 116.572 188.716 117.766 189.552C118.542 190.089 119.438 190.209 120.274 190.627C121.169 191.045 121.11 191.701 120.632 192.418C120.035 193.373 118.96 194.09 117.826 194.209C116.572 194.329 115.198 193.911 114.004 193.433C112.87 192.955 111.914 192.239 111.317 191.164C110.123 189.015 110.242 186.029 110.362 183.641C110.541 180.954 111.198 178.267 112.631 175.938C113.885 173.908 116.034 171.758 118.602 171.639C121.408 171.52 124.334 172.296 126.901 173.191C128.394 173.729 129.827 174.386 131.141 175.102C132.335 175.759 134.007 177.013 135.261 175.699C135.798 175.162 136.097 174.386 136.455 173.788C136.813 173.072 137.231 172.355 137.53 171.579C138.246 170.027 138.843 168.474 139.381 166.862C139.5 165.966 139.082 165.489 138.545 165.31ZM135.261 170.325C134.962 171.042 134.604 171.699 134.246 172.415C134.067 172.773 133.828 173.132 133.649 173.49C133.649 173.49 133.589 173.609 133.529 173.669H133.47C132.335 172.833 130.842 172.176 129.588 171.639C128.155 171.042 126.722 170.504 125.23 170.086C123.797 169.669 122.304 169.43 120.811 169.251C119.318 169.071 117.766 168.952 116.333 169.489C113.646 170.445 111.496 172.654 110.123 175.102C108.63 177.729 107.973 180.775 107.794 183.82C107.675 186.566 107.675 189.612 108.989 192.06C110.242 194.568 113.049 195.881 115.736 196.359C117.228 196.598 118.781 196.538 120.095 195.821C121.229 195.165 122.304 194.15 122.841 192.896C123.438 191.522 123.319 189.97 122.125 188.955C121.229 188.238 120.095 188.119 119.139 187.581C118.602 187.283 118.721 186.925 118.841 186.328C119.02 185.492 119.199 184.715 119.378 183.939C119.796 182.446 120.274 180.954 120.931 179.521C123.14 179.998 125.349 180.536 127.558 181.133C128.812 181.491 130.006 181.849 131.201 182.267C131.798 182.446 132.395 182.685 132.932 182.864C133.35 183.044 134.186 183.163 134.485 183.462C134.485 183.462 134.485 183.462 134.485 183.521C134.485 183.76 134.365 184.059 134.306 184.238C134.126 184.835 133.947 185.372 133.768 185.969C133.41 187.104 132.992 188.179 132.574 189.253C131.738 191.403 130.842 193.552 130.126 195.762C129.29 198.27 128.693 200.897 128.573 203.524C128.573 203.584 128.573 203.584 128.573 203.584C128.275 203.643 127.976 203.643 127.678 203.703C126.842 203.823 126.006 203.882 125.17 203.882C123.677 203.942 122.125 203.882 120.632 203.763C117.527 203.464 114.482 202.748 111.556 201.613C108.69 200.539 105.824 199.046 103.435 197.075C101.107 195.105 99.7932 192.537 99.1364 189.612C98.5393 186.746 98.5393 183.76 98.6587 180.834C98.7781 177.491 99.0767 174.087 100.331 170.982C101.346 168.474 103.018 166.086 105.406 164.713C106.779 163.936 108.272 163.459 109.824 163.1C111.437 162.682 113.108 162.384 114.78 162.085C116.691 161.787 118.602 161.667 120.513 161.906C122.423 162.145 124.274 162.682 126.125 163.28C129.648 164.414 133.111 165.728 136.575 166.982C136.216 168.176 135.798 169.251 135.261 170.325Z" fill="#1E1E1E"/>
<path d="M191.866 188.298C191.268 185.73 189.776 183.581 188.402 181.431C186.91 179.103 185.596 176.655 184.402 174.147C181.894 168.833 179.506 163.518 176.878 158.264C175.386 155.219 173.833 152.173 172.221 149.128C171.863 148.471 171.206 148.412 170.728 148.651C168.161 149.546 165.593 150.621 163.085 151.755C161.951 152.233 160.398 152.711 160.339 154.204C160.339 154.801 160.578 155.338 160.816 155.875C161.115 156.592 161.414 157.249 161.772 157.965C164.041 163.041 166.489 168.056 169.056 172.953C169.474 173.729 169.892 174.445 170.251 175.221C167.265 172.594 164.339 169.907 161.294 167.399C159.025 165.548 156.756 163.697 154.308 162.026C153.114 161.19 151.92 160.354 150.666 159.637C150.128 159.339 149.531 159.1 148.934 159.1C148.158 159.16 147.441 159.518 146.785 159.816C143.918 161.13 141.232 162.742 138.664 164.533C137.53 164.474 136.813 166.146 138.007 166.743C138.067 166.743 138.067 166.802 138.127 166.802C138.903 167.34 139.201 168.653 139.56 169.489C140.037 170.743 140.575 171.997 141.052 173.251C142.067 175.819 143.023 178.386 143.918 181.013C144.874 183.641 145.769 186.328 146.605 188.955C147.441 191.463 148.218 194.03 149.352 196.419C150.606 199.046 152.039 201.494 153.472 204.061C153.472 204.241 153.472 204.36 153.472 204.539C153.651 205.076 154.368 205.614 154.965 205.375C157.234 204.42 159.503 203.464 161.772 202.449C162.847 201.972 163.981 201.494 165.056 200.956C166.19 200.419 167.623 200.001 167.325 198.449C167.265 198.09 167.026 197.852 166.728 197.732C163.145 191.463 159.921 184.954 156.995 178.326C159.801 180.715 162.608 183.103 165.414 185.492C167.504 187.223 169.534 189.014 171.624 190.746C173.296 192.179 175.027 193.97 177.177 194.687C177.296 194.747 177.356 194.747 177.475 194.806C177.535 194.806 177.535 194.866 177.595 194.866C177.953 194.985 178.252 194.926 178.491 194.747C178.909 194.627 179.326 194.448 179.685 194.329L183.506 192.776C186.074 191.761 188.641 190.686 191.209 189.671C191.686 189.492 192.045 188.955 191.866 188.298ZM183.805 190.149C182.73 190.567 181.595 191.045 180.521 191.463C180.043 191.642 179.506 191.881 179.028 192.06C178.789 192.179 178.371 192.358 178.013 192.478C177.834 192.358 177.595 192.358 177.416 192.358C176.64 192 175.983 191.522 175.326 190.985C174.371 190.209 173.415 189.373 172.46 188.597C170.489 186.925 168.459 185.193 166.489 183.521C162.548 180.177 158.667 176.834 154.726 173.55C154.487 173.012 153.95 172.594 153.293 172.773C152.815 172.893 152.397 173.37 152.397 173.908C152.278 174.266 152.338 174.684 152.756 174.983C156.099 183.103 159.98 191.045 164.28 198.688C164.16 198.747 164.041 198.747 163.981 198.807C163.503 199.046 163.026 199.225 162.548 199.464C161.593 199.882 160.697 200.3 159.742 200.718C158.249 201.374 156.696 202.031 155.204 202.688C153.95 200.479 152.696 198.329 151.621 196.06C150.427 193.612 149.591 190.985 148.755 188.417C147.023 183.043 145.113 177.729 143.083 172.415C142.485 170.922 141.948 169.43 141.351 167.997C141.112 167.399 140.873 166.743 140.515 166.146C142.366 164.892 144.336 163.697 146.307 162.742C146.904 162.444 147.561 162.145 148.158 161.846C148.815 161.548 148.994 161.488 149.591 161.846C150.785 162.563 151.92 163.28 153.054 164.056C157.592 167.22 161.712 170.863 165.832 174.505C168.34 176.714 170.848 178.924 173.296 181.133C173.355 181.192 173.475 181.252 173.535 181.312C174.311 182.566 176.281 181.372 175.565 180.058C173.057 175.639 170.669 171.161 168.4 166.564C167.265 164.295 166.19 162.026 165.116 159.757C164.578 158.622 164.041 157.428 163.503 156.234C163.265 155.696 163.026 155.219 162.787 154.681C162.727 154.622 162.727 154.502 162.667 154.442C162.906 154.383 163.205 154.144 163.324 154.084C165.653 153.009 168.041 152.054 170.43 151.158C172.997 156.055 175.445 161.07 177.834 166.086C180.222 171.161 182.312 176.535 185.297 181.312C186.611 183.461 188.223 185.432 188.999 187.82C187.447 188.656 185.656 189.373 183.805 190.149Z" fill="#1E1E1E"/>
<path d="M165.952 147.874L164.936 145.068C164.28 143.277 163.683 141.545 163.026 139.754C162.787 138.977 162.608 138.082 161.951 137.544C161.175 136.947 160.279 137.186 159.383 137.306C157.473 137.544 155.622 137.843 153.711 138.082C150.069 138.619 146.546 139.216 143.023 140.231C138.963 141.366 134.962 142.62 130.902 143.814C128.812 144.411 126.722 145.068 124.632 145.665C123.677 145.963 122.662 146.202 121.706 146.561C120.93 146.859 120.214 147.397 120.035 148.232C119.915 148.83 120.214 149.248 120.572 149.486V149.546C121.348 151.099 121.945 152.711 122.423 154.383C122.662 155.219 122.841 156.054 123.02 156.831C123.199 157.607 123.199 158.503 123.438 159.279C123.677 160.115 124.453 160.473 125.289 160.354C126.244 160.174 127.14 159.936 128.095 159.756C129.946 159.338 131.738 158.921 133.589 158.503C140.933 156.89 148.277 155.338 155.502 153.487C157.353 153.009 159.145 152.532 160.936 151.994C161.832 151.755 162.727 151.457 163.563 151.218C164.339 150.979 165.295 150.86 165.832 150.263C166.668 149.606 166.25 148.71 165.952 147.874ZM162.906 149.068C162.19 149.307 161.533 149.486 160.816 149.665C159.563 150.024 158.309 150.382 157.055 150.681C154.487 151.337 151.92 151.994 149.292 152.591C144.038 153.785 138.783 154.98 133.589 156.114C130.961 156.711 128.334 157.428 125.707 157.905C125.707 157.786 125.707 157.667 125.707 157.547C125.647 157.129 125.588 156.652 125.468 156.234C125.289 155.338 125.05 154.383 124.811 153.487C124.334 151.815 123.677 150.203 122.901 148.65C123.199 148.531 123.498 148.471 123.796 148.412C124.632 148.173 125.528 147.934 126.364 147.635C127.976 147.158 129.588 146.68 131.2 146.202C134.484 145.247 137.709 144.292 140.993 143.336C144.157 142.381 147.322 141.545 150.606 141.008C152.278 140.709 153.95 140.53 155.622 140.291C156.398 140.172 157.174 140.052 157.95 139.992C158.309 139.933 158.727 139.873 159.085 139.813C159.443 139.754 160.16 139.813 160.518 139.634C160.578 139.873 160.697 140.172 160.697 140.172C160.876 140.59 160.996 141.008 161.175 141.426C161.473 142.321 161.832 143.217 162.13 144.053L163.145 146.859C163.324 147.337 163.503 147.814 163.623 148.232C163.683 148.412 163.742 148.591 163.862 148.77C163.862 148.77 163.862 148.77 163.802 148.77C163.444 148.889 163.205 149.009 162.906 149.068Z" fill="#1E1E1E"/>
<path d="M123.08 87.3882C119.916 85.5371 116.094 85.4177 112.452 85.4177C112.034 85.4177 111.735 85.5969 111.556 85.8357C111.078 85.9551 110.661 86.3134 110.661 86.9702C110.422 95.2102 110.78 103.51 111.676 111.75C111.676 111.81 111.676 111.869 111.735 111.929C111.735 112.048 111.676 112.108 111.676 112.227C111.676 112.825 112.213 113.481 112.87 113.422C119.259 112.705 125.17 108.824 127.618 102.793C129.827 97.3597 128.335 90.4931 123.08 87.3882ZM121.289 107.391C119.199 109.123 116.632 110.317 113.945 110.854C113.168 103.211 112.87 95.5087 113.049 87.8061C115.616 87.8061 118.303 87.8658 120.751 88.8809C123.02 89.7766 124.752 91.6873 125.588 93.8965C127.439 98.8525 125.17 104.107 121.289 107.391Z" fill="#1E1E1E"/>
<path d="M139.799 90.2542C139.679 89.8959 139.56 89.5377 139.381 89.1794C138.366 86.9104 136.933 84.8206 135.201 83.0293C129.409 76.9986 121.05 75.3267 112.989 75.5655C108.63 75.7447 104.331 76.0432 99.9722 76.3418C99.0765 76.4015 98.6586 77.2971 98.8974 78.0136C98.6586 88.5823 98.7183 99.2107 98.9571 109.779C99.0168 112.825 99.1362 115.81 99.2557 118.855C99.3154 119.691 99.9722 120.049 100.629 119.99C100.629 119.99 100.689 119.99 100.689 120.049C103.973 121.184 107.615 120.945 111.078 120.885C114.422 120.766 117.825 120.527 121.11 119.93C124.334 119.333 127.498 118.437 130.424 117.004C133.41 115.571 136.216 113.66 137.709 110.556C139.739 106.376 140.635 101.659 140.515 97.0014C140.515 94.7324 140.456 92.344 139.799 90.2542ZM136.574 107.152C136.037 108.585 135.44 110.138 134.425 111.332C133.41 112.466 132.096 113.302 130.783 114.078C128.155 115.571 125.289 116.586 122.363 117.243C119.02 118.019 115.556 118.318 112.153 118.437C108.75 118.557 104.988 118.915 101.644 117.84C101.226 107.51 101.047 97.1805 101.166 86.8507C101.166 84.104 101.226 81.4171 101.286 78.6704C104.51 78.4316 107.734 78.1928 110.959 78.0733C117.587 77.7748 124.752 78.4913 130.424 82.253C137.231 86.7313 139.381 93.8965 138.007 101.718C137.709 103.569 137.231 105.42 136.574 107.152Z" fill="#1E1E1E"/>
<path d="M173.594 95.6876C164.996 93.4187 157.055 89.1195 149.054 85.2981C148.038 84.8204 147.143 85.7758 147.262 86.552C146.964 86.6714 146.725 86.9103 146.605 87.2685C142.844 97.7178 138.783 108.107 134.365 118.318C133.171 121.124 131.857 123.93 131.917 127.095C131.917 127.573 132.156 127.871 132.454 128.05C132.574 128.17 132.633 128.289 132.812 128.349C141.411 132.35 150.367 135.395 159.682 137.246C160.279 137.365 160.757 137.067 160.996 136.649C161.354 136.589 161.652 136.41 161.831 136.111C162.787 134.021 163.742 131.932 164.638 129.782C165.115 128.588 164.638 127.871 163.742 127.155C162.906 126.498 162.011 125.901 161.115 125.423C159.145 124.408 157.114 123.93 154.965 123.572C153.054 123.214 151.203 122.677 149.471 121.9C150.009 120.169 150.606 118.497 151.143 116.765C152.935 117.303 154.607 118.139 156.338 118.915C158.547 119.93 160.816 120.766 163.145 121.423C164.16 121.721 164.757 120.766 164.578 119.99V119.93C164.817 117.243 165.653 114.556 166.907 112.168C167.026 111.929 167.086 111.63 167.026 111.391C167.146 110.914 166.907 110.376 166.489 110.078C162.966 107.63 158.846 106.197 154.786 104.883C155.144 103.748 155.562 102.554 155.92 101.42C160.458 103.092 165.056 104.704 169.713 106.137H169.773L169.833 106.197C170.37 106.495 171.206 106.376 171.445 105.779C172.639 103.151 173.594 100.405 174.371 97.5984C174.43 97.4192 174.43 97.2998 174.371 97.1207C174.49 96.5236 174.251 95.8668 173.594 95.6876ZM169.773 103.569C164.936 102.017 160.1 100.405 155.383 98.6134C154.547 98.3149 153.95 98.9717 153.95 99.6882C153.95 99.7479 153.89 99.7479 153.89 99.8076C153.293 101.599 152.696 103.45 152.099 105.241C151.92 105.838 152.338 106.555 152.935 106.734H152.994C153.114 106.794 153.174 106.853 153.293 106.913C157.114 108.167 160.996 109.481 164.459 111.63C163.384 113.839 162.667 116.228 162.309 118.676C160.518 118.079 158.786 117.422 157.055 116.646C154.965 115.69 152.875 114.616 150.546 114.138C149.889 114.019 149.233 114.317 149.054 114.974C148.994 115.093 148.994 115.213 149.054 115.332C149.054 115.332 149.054 115.332 149.054 115.392C148.277 117.661 147.561 119.99 146.785 122.259C146.605 122.856 147.023 123.572 147.62 123.751C147.68 123.751 147.8 123.751 147.859 123.811C148.994 124.408 150.188 124.886 151.442 125.244C152.875 125.662 154.308 125.901 155.741 126.14C157.055 126.379 158.368 126.737 159.562 127.334C160.16 127.632 160.757 127.931 161.294 128.349C161.593 128.528 162.13 128.827 162.429 129.125C162.309 129.483 162.011 129.901 161.891 130.2C161.652 130.737 161.413 131.275 161.175 131.752C160.697 132.768 160.279 133.842 159.801 134.857C151.024 133.066 142.485 130.26 134.365 126.438C134.484 124.05 135.499 121.841 136.395 119.691C137.47 117.124 138.545 114.616 139.619 112.048C141.709 106.973 143.739 101.897 145.65 96.7624C146.785 93.8366 147.859 90.8511 148.874 87.9253C156.338 91.5677 163.802 95.4488 171.803 97.7178C171.266 99.6882 170.549 101.659 169.773 103.569Z" fill="#1E1E1E"/>
<path d="M261.547 203.225C227.751 204.061 193.895 204.658 160.04 204.957C126.364 205.255 92.6871 205.255 59.0704 205.017C40.0827 204.897 21.0949 204.658 2.10715 204.36C-0.102122 204.3 -0.102122 206.688 2.10715 206.748C35.9627 207.286 69.7585 207.584 103.614 207.584C137.29 207.584 170.967 207.345 204.584 206.808C223.571 206.509 242.559 206.151 261.547 205.673C263.696 205.554 263.696 203.166 261.547 203.225Z" fill="#1E1E1E"/>
<path d="M138.305 45.4121C138.246 45.6509 138.126 45.8897 137.947 46.0689C137.469 46.5466 136.634 46.5466 136.156 46.0689C134.424 44.2776 133.111 42.7251 132.036 41.2324C131.618 40.6353 131.2 39.9785 130.782 39.3217C130.424 38.7246 130.603 37.9483 131.2 37.5901C131.797 37.2318 132.573 37.4109 132.932 38.008C133.29 38.6051 133.708 39.2022 134.066 39.7993C135.081 41.2324 136.216 42.6654 137.887 44.3373C138.246 44.6358 138.365 45.0538 138.305 45.4121Z" fill="#1E1E1E"/>
<path d="M149.889 74.6101C149.65 75.2669 148.934 75.6252 148.277 75.3863C147.62 75.1475 147.262 74.431 147.501 73.7742C148.336 71.4455 148.695 68.8182 148.516 66.0716C148.456 65.3551 148.993 64.758 149.65 64.758C150.367 64.6982 150.964 65.2356 150.964 65.8924C151.083 67.9823 150.964 70.0721 150.546 72.0426C150.426 72.8785 150.187 73.7742 149.889 74.6101Z" fill="#1E1E1E"/>
<path d="M142.127 50.1291C142.605 49.6514 143.441 49.7111 143.918 50.1888C146.187 52.6369 147.8 54.9059 148.874 57.354C148.994 57.5929 148.994 57.8914 148.934 58.1303C148.874 58.4885 148.636 58.8468 148.218 59.0259C147.561 59.3245 146.844 59.0259 146.546 58.4288C145.531 56.2792 144.157 54.2491 142.008 51.9204C141.59 51.4427 141.59 50.6068 142.127 50.1291Z" fill="#1E1E1E"/>
<path d="M136.693 6.0034C136.813 5.34659 137.41 4.86891 138.126 4.92862C138.723 4.98833 139.32 5.10775 139.977 5.28688C140.933 5.46601 141.828 5.70485 142.545 5.88398C143.202 6.06311 143.62 6.71992 143.44 7.37673V7.43644C143.261 8.09325 142.604 8.51122 141.888 8.33209C141.171 8.15296 140.335 7.91412 139.44 7.73499C138.843 7.61557 138.305 7.49615 137.768 7.43644C137.111 7.31702 136.633 6.71992 136.693 6.0034Z" fill="#1E1E1E"/>
<path d="M127.498 22.8417C127.856 25.4689 128.513 28.0961 129.468 30.6637C129.528 30.9025 129.588 31.1413 129.528 31.3205C129.468 31.7384 129.17 32.0967 128.752 32.2161C128.095 32.455 127.378 32.0967 127.14 31.4399C126.125 28.7529 125.468 25.9466 125.05 23.0805C124.93 22.4237 125.408 21.7669 126.125 21.6475C126.781 21.7072 127.378 22.1849 127.498 22.8417Z" fill="#1E1E1E"/>
<path d="M125.05 13.4671C125.706 10.3622 127.08 8.03349 129.17 6.54074C129.707 6.12277 130.543 6.3019 130.901 6.83929C131.08 7.13784 131.2 7.4961 131.08 7.79465C131.021 8.0932 130.842 8.39175 130.603 8.57088C129.05 9.64566 127.975 11.4967 127.438 13.9448C127.378 14.2433 127.319 14.5419 127.259 14.8404C127.14 15.5569 126.542 15.9749 125.826 15.9152C125.169 15.7958 124.691 15.1987 124.751 14.4822C124.93 14.1836 124.99 13.8254 125.05 13.4671Z" fill="#1E1E1E"/>
<path d="M149.889 1.34616L150.307 1.52529C150.546 1.64471 150.725 1.76413 150.964 1.82384C152.039 2.36123 153.173 2.95833 154.188 3.13746L155.203 2.54036C155.024 2.60007 154.905 2.65978 154.725 2.71949C154.009 2.95833 153.352 2.48065 152.695 2.12239C151.859 1.70442 151.083 1.16703 150.367 0.629639C150.128 0.450509 149.71 0.450509 149.471 0.689349C149.292 0.808769 149.232 1.04761 149.232 1.22674C149.411 1.22674 149.65 1.22674 149.889 1.34616Z" fill="#00A99D"/>
<path d="M160.756 0.808616C160.876 0.0920966 159.98 -0.206453 159.502 0.151807C159.323 0.271227 159.144 0.390646 158.905 0.569776C159.144 0.569776 159.323 0.629486 159.502 0.748906C159.682 0.868326 159.741 0.987746 159.801 1.16688C160.099 2.18194 159.98 3.1373 159.861 4.03295C159.801 4.57034 159.741 5.10773 159.741 5.58541C159.741 5.58541 159.741 5.64512 159.741 5.70483C159.741 5.88396 159.682 6.06309 159.682 6.24222L159.622 6.66019L161.652 8.39178C161.771 8.5112 161.891 8.57091 162.07 8.69033C162.548 9.04859 163.025 9.40685 163.324 9.82482C163.742 9.52627 163.861 8.92917 163.384 8.57091C162.727 8.09323 162.07 7.61555 161.473 7.07816C161.174 6.77961 160.876 6.54077 160.577 6.24222C160.338 5.94367 160.338 5.64512 160.338 5.28686C160.338 3.85382 160.458 2.30136 160.756 0.808616Z" fill="#00A99D"/>
<path d="M150.546 6.30198C150.546 6.48111 150.486 6.60053 150.427 6.71995C150.725 8.2724 149.471 9.4666 148.337 10.5414C148.158 10.7205 147.919 10.8996 147.74 11.0788C147.859 11.1385 148.038 11.1982 148.217 11.1982C148.934 11.1385 149.71 11.1385 150.427 11.0788C150.785 11.0788 151.203 11.0788 151.561 11.0788C151.74 11.0788 151.919 11.0788 152.158 11.0788C152.278 11.0788 152.337 11.0788 152.457 11.0788C152.457 11.0788 152.517 11.0788 152.576 11.0788V11.1385C152.636 11.1982 152.696 11.3176 152.696 11.3773C152.815 11.5565 152.875 11.7356 152.994 11.9147C153.173 12.273 153.352 12.6312 153.532 12.9895C153.89 13.706 154.248 14.4822 154.606 15.1988C154.786 15.4973 155.084 15.6764 155.442 15.6167L156.756 12.4521C156.756 12.3924 156.816 12.3327 156.816 12.3327C156.875 12.2133 156.935 12.1536 156.995 12.0938C157.055 11.9147 157.114 11.7356 157.234 11.5565C157.413 11.2579 157.472 11.2579 157.831 11.1982C159.144 10.8996 160.458 10.6011 161.712 10.3025C161.533 10.1234 161.294 10.004 161.174 9.88457C160.995 9.76515 160.876 9.64573 160.697 9.52631L158.607 7.79472C158.249 7.49617 158.07 7.07821 158.129 6.60053L158.189 6.12285C158.189 6.00343 158.249 5.8243 158.249 5.64517C158.249 5.04807 158.308 4.45097 158.368 3.91358C158.428 3.31648 158.488 2.77909 158.488 2.2417L154.786 4.51068C154.606 4.6301 154.368 4.68981 154.188 4.68981C154.129 4.68981 154.069 4.68981 154.009 4.68981C152.755 4.45097 151.501 3.79416 150.248 3.19706C150.068 3.07764 149.83 3.01793 149.65 2.89851L149.591 2.8388C149.77 3.31648 149.889 3.79416 150.068 4.21213C150.307 4.86894 150.606 5.58546 150.546 6.30198ZM151.74 6.06314C151.681 5.88401 151.681 5.70488 151.8 5.52575C151.979 5.16749 152.457 5.04807 152.815 5.2272C153.293 5.46604 153.83 5.58546 154.368 5.52575C154.965 5.46604 155.562 5.10778 156.159 4.74952C156.517 4.51068 156.935 4.6301 157.114 4.98836C157.293 5.2272 157.293 5.52575 157.114 5.76459C157.054 5.8243 156.995 5.88401 156.935 5.94372L156.875 6.00343C156.159 6.48111 155.323 6.89908 154.427 7.0185C153.591 7.07821 152.815 6.95879 152.099 6.54082C151.919 6.4214 151.8 6.24227 151.74 6.06314Z" fill="#00A99D"/>
<path d="M163.145 10.0039C162.727 10.1233 162.249 10.1831 161.831 10.3025C161.95 10.3622 162.01 10.4816 162.07 10.5413C162.01 10.7802 161.532 10.8996 160.577 11.019C160.04 11.0787 159.443 11.1981 159.025 11.3773L157.771 11.6758C157.472 11.7355 157.233 11.8549 157.054 12.0938C156.995 12.2729 156.935 12.5117 156.815 12.6909C156.517 13.5268 156.278 14.3628 156.039 15.1987C155.979 15.4972 155.741 15.6167 155.442 15.6764L155.024 16.6317C154.666 15.7361 154.128 14.9599 153.651 14.2433C153.352 13.7657 153.054 13.288 152.755 12.7506C152.636 12.5715 152.457 12.3923 152.277 12.2729C152.098 12.1535 151.859 12.0938 151.68 12.0938L147.142 11.7355L147.381 11.4967C147.501 11.3773 147.62 11.2578 147.739 11.1384C147.68 11.0787 147.62 11.0787 147.56 11.019C146.963 10.8399 146.784 10.1831 147.202 9.70538C147.859 9.04857 148.695 8.6306 149.411 8.0335C149.829 7.67524 150.247 7.31698 150.426 6.77959C150.426 6.71988 150.426 6.71988 150.426 6.66017L149.471 2.71931L149.65 2.77902C149.531 2.36105 149.411 1.94308 149.232 1.58482C149.173 1.4654 149.173 1.34598 149.173 1.22656C148.934 1.22656 148.635 1.34598 148.456 1.52511C148.038 1.88337 147.859 2.36105 147.978 2.89844L148.993 7.01843C149.173 7.79466 148.277 8.69031 147.381 9.52625C147.023 9.8845 146.665 10.1831 146.366 10.5413L146.068 10.8996C145.709 11.3175 145.65 11.8549 145.829 12.3326C146.008 12.8103 146.486 13.1686 147.023 13.1686L151.68 13.5268C151.979 14.0642 152.277 14.5419 152.636 15.0196C153.173 15.7958 153.651 16.572 154.009 17.4677C154.009 17.5274 154.009 17.5274 154.069 17.5871C154.188 17.8259 154.427 18.0051 154.606 18.1245C154.964 18.3036 155.323 18.3036 155.681 18.1842C155.8 18.1245 155.979 18.0648 156.099 17.9453C156.278 17.8259 156.397 17.6468 156.457 17.408L158.248 13.1088L159.502 12.8103C159.562 12.8103 159.622 12.8103 159.622 12.7506C159.92 12.6312 160.458 12.5117 160.935 12.452C161.831 12.3326 162.966 12.1535 163.443 11.3175C163.563 11.1384 163.622 10.9593 163.622 10.7204C163.742 10.4219 163.682 10.1233 163.503 9.88451C163.324 9.94421 163.204 9.94422 163.145 10.0039Z" fill="#1E1E1E"/>
<path d="M158.965 0.569824H158.905C158.667 0.569824 158.368 0.629534 158.129 0.748954L155.203 2.54025C155.92 2.30141 156.577 1.94315 157.174 1.58489C157.771 1.34605 158.368 0.928084 158.965 0.569824Z" fill="#1E1E1E"/>
<path d="M156.816 12.4521L155.502 15.6168C155.741 15.5571 155.98 15.4376 156.099 15.1391C156.338 14.3032 156.577 13.4672 156.876 12.6313C156.935 12.4521 156.995 12.2133 157.114 12.0342C157.055 12.0939 156.995 12.2133 156.935 12.273C156.876 12.3924 156.816 12.3924 156.816 12.4521Z" fill="#1E1E1E"/>
<path d="M162.189 8.74995C162.01 8.63053 161.89 8.51111 161.771 8.4514L159.741 6.71981L159.8 6.30184C159.8 6.12271 159.86 5.94358 159.86 5.76445C159.86 5.70474 159.86 5.70474 159.86 5.64503C159.86 5.16735 159.92 4.62996 159.98 4.09257C160.099 3.19692 160.218 2.24156 159.92 1.22649C159.86 1.04736 159.741 0.927944 159.621 0.808524C159.442 0.689104 159.203 0.629395 159.024 0.629395C158.427 0.987654 157.89 1.40562 157.233 1.70417C156.576 2.06243 155.919 2.36098 155.263 2.65953L154.247 3.25663C153.232 3.01779 152.098 2.4804 151.023 1.94301C150.844 1.82359 150.605 1.76388 150.366 1.64446L149.948 1.46533C149.65 1.22649 149.411 1.22649 149.172 1.22649C149.172 1.34591 149.172 1.46533 149.232 1.58475C149.351 2.00272 149.471 2.42069 149.65 2.77895L149.71 2.83866C149.889 2.95808 150.127 3.01779 150.307 3.13721C151.501 3.73431 152.814 4.39112 154.068 4.62996C154.128 4.62996 154.188 4.62996 154.247 4.62996C154.486 4.62996 154.665 4.57025 154.845 4.45083L158.547 2.18185C158.606 2.71924 158.547 3.25663 158.427 3.85373C158.367 4.45083 158.308 5.04793 158.308 5.58532C158.308 5.76445 158.248 5.94358 158.248 6.063L158.188 6.54068C158.129 6.95865 158.308 7.43633 158.666 7.73488L160.756 9.46647C160.875 9.58589 161.054 9.70531 161.234 9.82473C161.353 9.88444 161.592 10.0636 161.771 10.2427C162.189 10.1233 162.667 10.0636 163.085 9.94415C163.204 9.94415 163.264 9.88444 163.323 9.82473C163.144 9.46647 162.667 9.10821 162.189 8.74995Z" fill="#1E1E1E"/>
<path d="M150.427 6.77954C150.248 7.25722 149.83 7.67519 149.412 8.03345C148.695 8.63055 147.859 9.04852 147.202 9.70533C146.725 10.183 146.964 10.8398 147.561 11.0189C147.62 11.0787 147.68 11.1384 147.74 11.1384C147.919 10.9592 148.098 10.7801 148.337 10.601C149.531 9.5262 150.785 8.332 150.427 6.77954Z" fill="#1E1E1E"/>
<path d="M154.427 6.95883C155.382 6.83941 156.158 6.42144 156.875 5.94376L156.935 5.88405C156.994 5.82434 157.054 5.76463 157.114 5.70492C157.233 5.46608 157.233 5.16753 157.114 4.9287C156.875 4.57044 156.457 4.51073 156.158 4.68986C155.561 5.10783 154.964 5.40637 154.367 5.46608C153.83 5.52579 153.292 5.40637 152.815 5.16754C152.456 4.98841 152.038 5.10783 151.8 5.46608C151.68 5.64521 151.68 5.82434 151.74 6.00347C151.8 6.1826 151.919 6.30202 152.098 6.42144C152.815 6.89912 153.591 7.01854 154.427 6.95883Z" fill="#1E1E1E"/>
<path d="M34.8879 53.7116C34.3506 53.4131 33.6937 53.6519 33.3952 54.1893C33.0966 54.7267 33.3355 55.3835 33.8729 55.682C34.7685 56.1 35.6642 56.5777 36.5598 56.9956C37.0972 57.2345 37.754 56.9956 37.9929 56.4583C38.2317 55.9209 38.0526 55.2641 37.4555 54.9655C36.6195 54.5475 35.7239 54.1296 34.8879 53.7116Z" fill="#1E1E1E"/>
<path d="M47.6061 62.1904C48.1435 62.4292 48.8003 62.1904 49.0391 61.653C49.3377 61.1156 49.0988 60.4588 48.5614 60.1602C46.7104 59.2049 44.7997 58.3092 43.0084 57.4733C42.471 57.1747 41.8142 57.4733 41.5157 58.0107C41.2768 58.5481 41.5157 59.2049 42.0531 59.4437C43.8444 60.3991 45.7551 61.235 47.6061 62.1904Z" fill="#1E1E1E"/>
<path d="M57.9958 68.6392C58.4735 68.8183 59.0109 68.6989 59.3094 68.3406C59.6677 67.863 59.608 67.1464 59.1303 66.7882C57.5778 65.5343 55.9059 64.3998 53.9952 63.2056C53.4578 62.907 52.801 63.0265 52.5025 63.5639C52.2039 64.1012 52.3233 64.758 52.8607 65.0566C54.7117 66.1911 56.3239 67.2659 57.7569 68.4601C57.8764 68.5198 57.9361 68.5795 57.9958 68.6392Z" fill="#1E1E1E"/>
<path d="M58.8912 96.2251C59.0107 95.628 58.6524 95.0309 58.115 94.9115C56.3834 94.4935 54.5324 94.1353 52.6217 93.8367C52.3829 93.8367 52.144 93.777 51.9052 93.777C51.3081 93.7173 50.7707 94.195 50.711 94.7921C50.6513 95.2698 50.9498 95.6877 51.3678 95.9266C51.4872 95.9863 51.6066 95.9863 51.726 96.046C51.9649 96.046 52.2037 96.1057 52.3829 96.1057C54.1742 96.3445 55.9057 96.7028 57.5776 97.1208C58.1747 97.1208 58.7718 96.7625 58.8912 96.2251Z" fill="#1E1E1E"/>
<path d="M52.8602 117.303C52.9199 117.303 52.9199 117.362 52.9796 117.362C53.2184 117.422 53.4573 117.542 53.7558 117.601C53.8155 117.601 53.8752 117.601 53.9349 117.661C56.0248 117.9 57.9952 117.482 59.7865 116.586C60.3239 116.288 60.503 115.631 60.2642 115.093C59.9656 114.556 59.3088 114.377 58.7714 114.616C57.3981 115.332 55.9054 115.631 54.2932 115.452C54.1141 115.392 53.9349 115.332 53.7558 115.273C53.1587 115.093 52.5616 115.392 52.3825 115.989C52.0839 116.526 52.3825 117.064 52.8602 117.303Z" fill="#1E1E1E"/>
<path d="M63.2499 112.406C63.7276 112.645 64.265 112.466 64.6233 112.048C65.8175 110.376 66.952 108.525 67.8476 106.614C68.0865 106.077 67.9073 105.42 67.3102 105.122C66.7131 104.823 66.116 105.062 65.8175 105.659C64.9815 107.45 63.9665 109.182 62.7723 110.734C62.414 111.212 62.5334 111.929 63.0111 112.287C63.1305 112.347 63.1902 112.406 63.2499 112.406Z" fill="#1E1E1E"/>
<path d="M65.5787 77.2971C65.6982 77.4762 65.8773 77.6554 66.0564 77.7748C66.355 77.8942 66.7132 77.8942 67.0715 77.7151C67.6089 77.4165 67.788 76.7597 67.4895 76.2223C66.8327 75.1476 66.1161 74.0728 65.3996 73.0577C64.8622 72.4009 64.3248 71.7441 63.7875 71.0873C63.3695 70.6096 62.7127 70.6096 62.235 71.0276C61.7573 71.4455 61.7573 72.1024 62.1753 72.58C62.7127 73.1771 63.1904 73.7742 63.668 74.431C64.3248 75.267 64.9817 76.282 65.5787 77.2971Z" fill="#1E1E1E"/>
<path d="M86.537 119.751C85.9996 120.109 85.8802 120.766 86.2385 121.303C87.5521 123.333 88.8657 124.946 90.239 126.259C90.657 126.677 91.3735 126.677 91.7915 126.199C92.2095 125.781 92.2095 125.065 91.7318 124.647C90.4779 123.453 89.2837 122.02 88.0298 120.109C87.7909 119.751 87.4327 119.631 87.0744 119.631C86.8953 119.572 86.7162 119.631 86.537 119.751Z" fill="#1E1E1E"/>
<path d="M71.2512 88.2241C71.0721 86.0745 70.6541 83.9847 70.057 82.0142C69.8779 81.4171 69.2808 81.1186 68.6837 81.2977C68.0866 81.4769 67.788 82.0739 67.9672 82.671C68.5045 84.5221 68.9225 86.4328 69.1016 88.4629C69.1614 88.8809 69.4002 89.1794 69.7585 89.3586C69.9376 89.4183 70.1167 89.478 70.2958 89.478C70.8332 89.3586 71.3109 88.8212 71.2512 88.2241Z" fill="#1E1E1E"/>
<path d="M73.3407 103.211C72.9824 103.689 73.0421 104.405 73.5198 104.764C75.0723 106.018 76.5053 107.391 77.7592 108.884C77.8786 109.003 77.998 109.122 78.1175 109.182C78.4757 109.361 78.9534 109.302 79.3117 109.003C79.7893 108.585 79.849 107.928 79.4311 107.451C78.0577 105.838 76.565 104.405 74.9528 103.032C74.4154 102.674 73.7586 102.734 73.3407 103.211Z" fill="#1E1E1E"/>
<path d="M43.8439 103.211C44.441 103.271 44.9784 102.853 45.0978 102.256C45.2173 101.121 45.5158 100.047 45.9935 99.0315C46.2323 98.4941 46.5309 97.9567 46.8891 97.4193C46.9489 97.3596 47.0086 97.2999 47.0683 97.2402C47.4862 96.7625 47.4265 96.1057 46.9489 95.6877C46.4712 95.2697 45.8144 95.3295 45.3964 95.8071C45.3367 95.9266 45.2173 95.9863 45.1576 96.1057L45.0978 96.1654C44.6799 96.8222 44.3216 97.479 44.0231 98.1358C43.4857 99.3897 43.1274 100.644 42.9483 102.017C42.8886 102.495 43.1871 102.972 43.6051 103.151C43.6648 103.211 43.7842 103.211 43.8439 103.211Z" fill="#1E1E1E"/>
<path d="M70.2362 93.3589C69.6391 93.2992 69.1017 93.7172 69.042 94.374C68.9226 95.807 68.6838 97.2998 68.3255 98.7328C66.9522 98.0163 65.5191 97.3595 64.0861 96.8221C63.5487 96.5833 62.8919 96.8818 62.6531 97.4192C62.4142 97.9566 62.7128 98.6134 63.2502 98.8522C64.922 99.5091 66.5342 100.285 68.0867 101.121C68.2061 101.3 68.3255 101.42 68.5643 101.479C68.6241 101.479 68.6838 101.539 68.7435 101.539C68.9226 101.599 69.042 101.599 69.2212 101.539C69.5794 101.539 69.9974 101.36 70.1765 101.002C70.3556 100.703 70.3556 100.405 70.2362 100.106C70.7139 98.2551 71.0722 96.4041 71.2513 94.5531C71.2513 93.956 70.8333 93.4186 70.2362 93.3589Z" fill="#1E1E1E"/>
<path d="M47.3671 114.019C47.4865 114.078 47.5463 114.198 47.6657 114.198C48.0836 114.377 48.5613 114.317 48.9196 113.959C49.3376 113.541 49.3376 112.825 48.8599 112.407C47.4865 111.093 46.4118 109.481 45.755 107.749C45.5161 107.152 44.919 106.913 44.3219 107.092C43.7248 107.331 43.486 107.928 43.6651 108.525C44.5011 110.615 45.755 112.466 47.3671 114.019Z" fill="#1E1E1E"/>
<path d="M82.3572 111.75C82.1781 111.75 81.9393 111.809 81.7601 111.929C81.2227 112.287 81.1033 112.944 81.4019 113.481C81.8796 114.198 82.3572 114.974 82.8946 115.929C83.1932 116.467 83.9097 116.646 84.3874 116.287C84.9248 115.989 85.1039 115.272 84.7456 114.795C84.1485 113.78 83.6709 113.003 83.1932 112.287C83.1335 111.929 82.7752 111.75 82.3572 111.75Z" fill="#1E1E1E"/>
<path d="M189.477 152.412C188.939 152.711 188.283 152.472 187.984 151.935C187.686 151.397 187.924 150.74 188.462 150.442C189.357 150.024 190.253 149.546 191.149 149.128C191.686 148.889 192.343 149.128 192.582 149.666C192.821 150.203 192.641 150.86 192.044 151.158C191.208 151.517 190.313 151.935 189.477 152.412Z" fill="#1E1E1E"/>
<path d="M202.195 143.874C202.732 143.635 203.389 143.874 203.628 144.411C203.926 144.948 203.687 145.605 203.15 145.904C201.299 146.859 199.388 147.755 197.597 148.591C197.06 148.889 196.403 148.591 196.104 148.053C195.865 147.516 196.104 146.859 196.642 146.62C198.433 145.725 200.344 144.829 202.195 143.874Z" fill="#1E1E1E"/>
<path d="M212.585 137.425C213.063 137.246 213.6 137.365 213.899 137.723C214.257 138.201 214.197 138.918 213.72 139.276C212.167 140.53 210.495 141.664 208.584 142.858C208.047 143.157 207.39 143.038 207.092 142.5C206.793 141.963 206.913 141.306 207.45 141.007C209.301 139.873 210.913 138.798 212.346 137.604C212.466 137.544 212.525 137.485 212.585 137.425Z" fill="#1E1E1E"/>
<path d="M213.481 109.898C213.6 110.496 213.242 111.093 212.704 111.212C210.973 111.63 209.122 111.988 207.211 112.287C206.972 112.287 206.733 112.347 206.495 112.347C205.897 112.406 205.36 111.929 205.3 111.331C205.241 110.854 205.539 110.436 205.957 110.197C206.077 110.137 206.196 110.137 206.315 110.078C206.554 110.078 206.793 110.018 206.972 110.018C208.764 109.779 210.495 109.421 212.167 109.003C212.764 108.943 213.361 109.301 213.481 109.898Z" fill="#1E1E1E"/>
<path d="M207.449 88.7612C207.509 88.7612 207.509 88.7015 207.569 88.7015C207.808 88.6418 208.046 88.5224 208.345 88.4626C208.405 88.4626 208.464 88.4626 208.524 88.4029C210.614 88.1641 212.584 88.5821 214.376 89.4777C214.913 89.7763 215.092 90.4331 214.853 90.9705C214.555 91.5078 213.898 91.687 213.361 91.4481C211.987 90.7316 210.495 90.4331 208.882 90.6122C208.703 90.6719 208.524 90.7316 208.345 90.7913C207.748 90.9705 207.151 90.6719 206.972 90.0748C206.673 89.5971 206.972 89 207.449 88.7612Z" fill="#1E1E1E"/>
<path d="M217.839 93.6575C218.317 93.4187 218.854 93.5978 219.212 94.0158C220.406 95.6876 221.541 97.5387 222.437 99.4494C222.675 99.9868 222.496 100.644 221.899 100.942C221.302 101.241 220.705 101.002 220.406 100.405C219.571 98.6134 218.555 96.8819 217.361 95.3294C217.003 94.8517 217.122 94.1352 217.6 93.7769C217.72 93.7172 217.779 93.6575 217.839 93.6575Z" fill="#1E1E1E"/>
<path d="M220.167 128.827C220.287 128.647 220.466 128.468 220.645 128.349C220.944 128.229 221.302 128.229 221.66 128.409C222.198 128.707 222.377 129.364 222.078 129.901C221.421 130.976 220.705 132.051 219.988 133.066C219.451 133.723 218.913 134.38 218.376 135.036C217.958 135.514 217.301 135.514 216.824 135.096C216.346 134.678 216.346 134.021 216.764 133.544C217.301 132.947 217.779 132.349 218.257 131.693C218.913 130.797 219.57 129.782 220.167 128.827Z" fill="#1E1E1E"/>
<path d="M241.126 86.3729C240.588 86.0146 240.469 85.3578 240.827 84.8204C242.141 82.7903 243.454 81.1781 244.828 79.8645C245.246 79.4465 245.962 79.4465 246.38 79.9242C246.798 80.3422 246.798 81.0587 246.321 81.4767C245.067 82.6709 243.872 84.1039 242.619 86.0146C242.38 86.3729 242.021 86.4923 241.663 86.4923C241.544 86.552 241.305 86.4923 241.126 86.3729Z" fill="#1E1E1E"/>
<path d="M225.84 117.84C225.661 119.989 225.243 122.079 224.646 124.05C224.467 124.647 223.87 124.945 223.273 124.766C222.676 124.587 222.377 123.99 222.556 123.393C223.094 121.542 223.511 119.631 223.691 117.601C223.75 117.183 223.989 116.884 224.347 116.705C224.527 116.646 224.706 116.586 224.885 116.586C225.422 116.705 225.9 117.243 225.84 117.84Z" fill="#1E1E1E"/>
<path d="M227.93 102.853C227.571 102.375 227.631 101.659 228.109 101.3C229.661 100.046 231.094 98.6731 232.348 97.1803C232.468 97.0609 232.587 96.9415 232.706 96.8818C233.065 96.7026 233.542 96.7623 233.901 97.0609C234.378 97.4789 234.438 98.1357 234.02 98.6134C232.647 100.226 231.154 101.659 229.542 103.032C229.004 103.39 228.348 103.33 227.93 102.853Z" fill="#1E1E1E"/>
<path d="M198.493 102.853C199.09 102.793 199.628 103.211 199.747 103.808C199.867 104.943 200.165 106.017 200.643 107.033C200.882 107.57 201.18 108.107 201.539 108.645C201.598 108.704 201.658 108.764 201.718 108.824C202.136 109.302 202.076 109.958 201.598 110.376C201.121 110.794 200.464 110.735 200.046 110.257C199.986 110.137 199.867 110.078 199.807 109.958L199.747 109.899C199.329 109.242 198.971 108.585 198.672 107.928C198.135 106.674 197.777 105.42 197.598 104.047C197.538 103.569 197.837 103.092 198.254 102.913C198.254 102.913 198.374 102.853 198.493 102.853Z" fill="#1E1E1E"/>
<path d="M224.825 112.765C224.228 112.824 223.691 112.406 223.631 111.75C223.512 110.316 223.273 108.824 222.914 107.391C221.541 108.107 220.108 108.764 218.675 109.301C218.138 109.54 217.481 109.242 217.242 108.704C217.003 108.167 217.302 107.51 217.839 107.271C219.511 106.614 221.123 105.838 222.676 105.002C222.795 104.823 222.914 104.704 223.153 104.644C223.213 104.644 223.273 104.584 223.332 104.584C223.512 104.525 223.631 104.525 223.81 104.584C224.168 104.584 224.586 104.763 224.766 105.122C224.945 105.42 224.945 105.719 224.825 106.017C225.303 107.868 225.661 109.719 225.84 111.57C225.84 112.108 225.422 112.705 224.825 112.765Z" fill="#1E1E1E"/>
<path d="M201.956 92.1051C202.076 92.0454 202.136 91.9259 202.255 91.9259C202.673 91.7468 203.151 91.8065 203.509 92.1648C203.927 92.5828 203.927 93.2993 203.449 93.7172C202.076 95.0309 201.001 96.643 200.344 98.3746C200.105 98.9717 199.508 99.2106 198.911 99.0314C198.314 98.7926 198.075 98.1955 198.254 97.5984C199.09 95.5085 200.344 93.5978 201.956 92.1051Z" fill="#1E1E1E"/>
<path d="M236.947 94.3142C236.767 94.3142 236.529 94.2545 236.349 94.1351C235.812 93.7768 235.693 93.12 235.991 92.5826C236.469 91.8661 236.947 91.0898 237.484 90.1345C237.783 89.5971 238.499 89.418 238.977 89.7762C239.514 90.0748 239.693 90.7913 239.335 91.269C238.738 92.2841 238.26 93.0603 237.783 93.7768C237.723 94.1948 237.365 94.3142 236.947 94.3142Z" fill="#1E1E1E"/>
<path d="M27.9014 31.6188C27.782 32.813 27.4835 34.0072 27.0058 35.082C26.767 35.6194 26.2893 36.1568 26.1101 36.6942C25.931 37.2315 26.2893 37.8286 26.4684 38.3063C26.5878 38.6646 26.7072 39.0826 26.7072 39.4408C27.0655 38.9631 27.3641 38.4257 27.4835 37.7689C27.5432 37.2315 27.4835 36.6942 27.4835 36.2165C27.4835 36.2165 27.4835 36.1568 27.4835 36.0373C27.4835 35.9776 27.4835 35.9776 27.5432 35.9179C27.6029 35.7388 27.7223 35.5597 27.782 35.3805C28.0209 34.7237 28.0209 34.0669 27.9612 33.4698C28.2 32.1562 28.2 30.8426 28.2 29.4693C28.1403 26.842 27.1849 24.3342 25.0354 22.6623C24.6771 22.3638 24.2591 22.1249 23.9009 21.9458C26.5878 24.3342 28.2597 27.7974 27.9014 31.6188Z" fill="#00A99D"/>
<path d="M25.2145 39.9783C25.5131 39.5006 25.2742 39.023 25.0951 38.5453C24.7966 37.8288 24.5577 37.1122 24.7966 36.336C25.1548 35.3209 25.8116 34.485 26.1699 33.4699C26.4684 32.5146 26.5879 31.4995 26.5879 30.4844C26.4684 25.8868 23.1844 22.125 18.945 20.7517C18.5867 20.7517 18.1688 20.7517 17.8105 20.7517C16.4969 20.8114 15.1833 21.11 13.9294 21.4085C12.556 21.7668 11.1827 22.2445 9.92879 23.0207C9.21227 22.6624 8.31662 22.9013 7.77923 23.5581C4.67432 27.2004 3.53983 33.2311 6.16707 37.4108C7.48068 39.5006 9.80937 40.3963 12.1978 40.7545C13.392 40.9337 14.7056 40.9934 15.9595 41.0531C16.0192 41.1128 16.0789 41.1725 16.0789 41.2322C16.1983 41.4114 16.3775 41.5905 16.4969 41.7696C17.4522 42.8444 18.527 42.9638 19.8406 42.725H19.9004C21.0348 42.1876 22.229 41.5905 23.3635 41.0531C24.0203 40.7545 24.916 40.456 25.2145 39.9783ZM18.7659 40.7545C19.0047 41.5905 17.6911 41.889 17.4522 41.0531C16.8551 39.023 15.4221 37.2317 13.8696 35.7986C12.3769 34.3656 10.5856 33.2908 8.61517 32.5743C7.77923 32.2757 8.1972 30.9621 9.03314 31.2607C11.1827 32.0369 13.2128 33.2908 14.8847 34.903C16.5566 36.4554 18.1091 38.4856 18.7659 40.7545ZM11.8992 30.6039C10.8842 31.0815 9.63024 30.4247 9.03314 29.5888C8.7943 29.2902 8.7943 28.8723 9.09285 28.5737C9.33169 28.3349 9.86908 28.3349 10.0482 28.6334C10.2871 28.932 10.705 29.2902 11.0633 29.3499C11.2424 29.4097 11.4813 29.2902 11.6007 29.1111C11.4813 28.9917 11.3618 28.8723 11.2424 28.7528C10.6453 28.0363 10.4065 26.663 11.4813 26.1853C12.6157 25.7076 13.4517 27.2004 13.4517 28.096C13.4517 28.1557 13.4517 28.2155 13.4517 28.3349C13.5711 28.3349 13.7502 28.2752 13.8696 28.2155C13.9891 28.1557 14.0488 28.0363 14.1682 27.9766C14.0488 27.9169 13.9891 27.8572 13.9294 27.7975C13.5114 27.4392 13.1531 26.8421 13.2128 26.3047C13.2725 25.7673 13.6905 25.4091 14.2279 25.4091C15.1236 25.4688 15.6609 26.3047 15.7804 27.081C15.8998 27.081 16.0192 27.081 16.1386 27.081C16.4372 27.0213 16.6163 26.9018 16.676 26.6033C16.7357 26.245 16.7357 25.7673 16.4969 25.4688C16.0192 24.6926 17.2731 24.0955 17.6911 24.8717C18.2882 25.8271 18.1688 27.5586 17.1537 28.1557C16.676 28.4543 16.0192 28.5737 15.4818 28.4543C15.0041 29.3499 13.9891 29.7679 12.974 29.6485C12.6754 30.0665 12.3172 30.4247 11.8992 30.6039ZM21.4528 38.7841C19.363 34.1864 18.8256 29.1111 19.7809 24.2149C19.9601 23.3789 21.2737 23.7969 21.0946 24.6329C20.1392 29.1708 20.7363 33.9476 22.647 38.1273C23.0053 38.9632 21.8111 39.5603 21.4528 38.7841Z" fill="#00A99D"/>
<path d="M23.7814 21.9459C22.826 21.11 21.7512 20.4531 20.557 19.9158C15.0637 17.4676 7.59999 18.9604 5.15188 24.9314C4.79362 25.7673 6.10724 26.1853 6.4655 25.3494C8.43593 20.5129 14.3472 19.2589 18.9449 20.7517C20.6168 20.8114 22.2886 21.1697 23.7814 21.9459Z" fill="#1E1E1E"/>
<path d="M26.7073 39.441C26.4685 39.7395 26.1102 40.0381 25.752 40.2769C24.0801 41.4114 21.9903 42.2473 20.0198 42.6056C19.9601 42.6056 19.9601 42.6653 19.9004 42.6653C18.8853 43.143 17.1537 44.3372 16.0193 43.4415C15.243 42.8444 15.3027 41.6502 14.228 41.292C13.2129 40.9337 12.0784 41.1726 11.0036 40.9337C8.55552 40.3366 6.40596 38.7842 5.09234 36.6346C4.43553 35.5001 4.01756 34.1865 3.83843 32.8729C3.71901 31.619 3.6593 29.9471 4.43553 28.932C5.09234 28.2155 3.95785 27.499 3.42046 28.2155C1.92771 30.2456 2.40539 33.5894 3.24133 35.7987C4.13698 38.1871 5.92828 40.2172 8.25697 41.3517C9.33175 41.8891 10.5259 42.307 11.7201 42.4862C12.3172 42.5459 12.8546 42.5459 13.4517 42.6056C14.2877 42.6653 14.3474 43.5012 14.7654 44.0386C16.5567 46.5464 20.1392 44.0983 22.05 43.2027C23.3039 42.6056 24.8563 42.1279 25.9311 41.1726C26.4685 40.6949 26.7073 40.0978 26.7073 39.441Z" fill="#1E1E1E"/>
<path d="M26.7074 39.4409C26.7074 39.0827 26.5879 38.7244 26.4685 38.3064C26.2894 37.8288 25.9311 37.2317 26.1103 36.6943C26.2894 36.1569 26.7074 35.6195 27.0059 35.0821C27.5433 34.0073 27.8419 32.8131 27.9016 31.6189C28.2598 27.7975 26.5879 24.2746 23.7816 21.9459C22.2888 21.1697 20.6169 20.8114 18.9451 20.7517C23.1845 22.125 26.4685 25.8868 26.5282 30.4247C26.5282 31.4398 26.4088 32.4549 26.1103 33.4102C25.8117 34.4253 25.0952 35.2612 24.7369 36.2763C24.4981 37.0525 24.7369 37.769 25.0355 38.4856C25.2146 38.9632 25.4535 39.4409 25.1549 39.9186C24.8564 40.456 23.9607 40.6948 23.483 40.9337C22.3485 41.4711 21.1543 42.0682 20.0198 42.6056C21.9903 42.2473 24.0801 41.4114 25.752 40.2769C26.1103 40.0977 26.4088 39.7992 26.7074 39.4409Z" fill="#1E1E1E"/>
<path d="M26.4689 45.7104C27.1854 45.2327 28.0213 44.6953 28.4393 43.9191C28.7975 43.2623 28.6781 42.4264 27.9616 42.1278C27.2451 41.8293 26.5286 42.3069 25.8718 42.6652C24.9761 43.2026 24.0805 43.6206 23.1251 44.0385C22.11 44.5162 21.0352 44.9342 20.0202 45.3521C19.1245 45.7104 18.1692 46.1284 17.2138 46.009C16.3182 45.8895 16.2585 47.2629 17.1541 47.3823C18.9454 47.6211 20.7367 46.6061 22.2892 45.9492C23.2445 45.5313 24.1402 45.1133 25.0955 44.6953C25.5135 44.4565 25.9315 44.2774 26.3494 44.0385C26.5286 43.9191 26.7674 43.7997 26.9465 43.6803C26.8868 43.74 26.7674 43.7997 26.7077 43.8594C26.3494 44.1579 25.9315 44.4565 25.5135 44.755C24.6776 45.2924 23.8416 45.7701 23.0057 46.2478C22.2892 46.6658 21.2741 47.0837 20.7367 47.7405C20.259 48.3974 20.4979 49.1736 21.3338 49.293C22.2294 49.4721 23.2445 49.1736 24.1402 48.9347C25.2747 48.6362 26.3494 48.2779 27.4839 47.9794C28.3199 47.7405 28.081 46.3672 27.1854 46.6658C26.1703 46.9643 25.2149 47.2629 24.1999 47.5017C23.7819 47.6211 23.4236 47.7405 23.0057 47.8003C22.946 47.8003 22.946 47.8003 22.8863 47.8003C23.2445 47.5614 23.6625 47.3226 24.0805 47.1434C24.9164 46.6658 25.6926 46.2478 26.4689 45.7104Z" fill="#1E1E1E"/>
<path d="M25.931 49.4124C25.4534 49.8304 25.0951 50.4275 25.2742 51.0843C25.3936 51.4425 25.6922 51.7411 26.1102 51.6217C26.4684 51.562 26.767 51.2037 26.6476 50.7857V50.726C26.6476 50.726 26.6476 50.726 26.6476 50.6663C26.6476 50.6066 26.7073 50.6066 26.7073 50.5469C26.7073 50.5469 26.7073 50.5469 26.7073 50.4872C26.767 50.4275 26.767 50.4275 26.8267 50.3678C26.8864 50.308 27.0058 50.1886 27.1252 50.1289C27.3044 50.0095 27.4835 49.9498 27.6626 49.8304C27.7223 49.8304 27.8418 49.7707 27.9015 49.7707C28.2597 49.7109 28.4986 49.3527 28.4389 48.9347C28.3791 48.5765 28.0209 48.3376 27.6029 48.3973C27.0058 48.6959 26.4087 48.9944 25.931 49.4124Z" fill="#1E1E1E"/>
<path d="M9.03305 31.2606C8.19711 30.9621 7.77914 32.2757 8.61508 32.5742C10.5855 33.2908 12.3768 34.3655 13.8696 35.7986C15.3623 37.2316 16.8551 39.0229 17.4522 41.0531C17.691 41.889 19.0643 41.6502 18.7658 40.7545C18.109 38.4855 16.5565 36.4554 14.8846 34.8432C13.153 33.2908 11.1826 32.0369 9.03305 31.2606Z" fill="#1E1E1E"/>
<path d="M22.6473 38.1271C20.7366 33.9474 20.1395 29.1707 21.0351 24.6327C21.2143 23.7968 19.9007 23.3191 19.7215 24.2147C18.7662 29.1109 19.3036 34.246 21.3934 38.784C21.8114 39.5602 23.0056 38.9631 22.6473 38.1271Z" fill="#1E1E1E"/>
<path d="M15.4223 28.5141C16.0194 28.5738 16.6165 28.5141 17.0942 28.2155C18.1093 27.5587 18.2287 25.8869 17.6316 24.9315C17.1539 24.1553 15.9597 24.8121 16.4374 25.5286C16.6165 25.8869 16.6763 26.3048 16.6165 26.6631C16.5568 27.0213 16.3777 27.0811 16.0792 27.1408C15.9597 27.1408 15.8403 27.1408 15.7209 27.1408C15.6015 26.3048 15.0641 25.4689 14.1684 25.4689C13.631 25.4689 13.2131 25.8271 13.1534 26.3645C13.0937 26.9019 13.4519 27.499 13.8699 27.8573C13.9296 27.917 14.049 27.9767 14.1087 28.0364C14.049 28.1558 13.9296 28.2155 13.8102 28.2753C13.6908 28.335 13.5713 28.3947 13.3922 28.3947C13.3922 28.335 13.3922 28.2753 13.3922 28.1558C13.3922 27.2005 12.5563 25.7077 11.4218 26.2451C10.4067 26.6631 10.6455 28.0961 11.1829 28.8126C11.3024 28.9321 11.4218 29.0515 11.5412 29.1709C11.3621 29.2903 11.1829 29.4097 11.0038 29.4097C10.6455 29.35 10.1679 28.9321 9.98874 28.6932C9.7499 28.3947 9.27222 28.3947 9.03338 28.6335C8.79454 28.8724 8.79454 29.2903 9.03338 29.5889C9.63048 30.4248 10.8844 31.0816 11.8995 30.6039C12.3174 30.4248 12.6757 30.1263 12.9145 29.768C13.9296 29.8277 14.9447 29.4097 15.4223 28.5141Z" fill="#1E1E1E"/>
<path d="M253.307 67.3255C253.068 67.4449 252.829 67.5644 252.65 67.6838C252.352 68.1017 252.053 68.5197 251.754 68.9377C251.575 69.1765 251.396 69.4751 251.277 69.7736C250.859 70.4901 250.56 71.2664 250.5 72.0426C250.56 72.5203 250.68 72.998 250.859 73.4159C251.814 75.5655 254.203 76.5806 256.412 76.5209C257.666 76.5209 259.099 76.2223 260.174 75.5655C261.189 74.9684 261.666 73.6548 261.905 72.5203C262.383 70.1916 261.547 67.8032 259.875 66.191C259.099 65.4745 258.084 64.8177 257.009 64.5789C255.934 64.9371 254.919 65.5342 253.964 66.3104C254.023 66.7881 253.725 67.1464 253.307 67.3255ZM254.561 70.4304C254.859 70.9081 255.158 71.3261 255.576 71.7441C255.815 71.9829 255.994 72.162 256.233 72.3412L256.292 72.4009L256.352 72.3412C256.531 72.162 256.651 71.9829 256.83 71.7441C257.128 71.3858 257.427 71.0275 257.725 70.6096C258.322 69.893 258.92 69.1168 259.457 68.3406C259.756 67.9823 260.233 67.7435 260.711 68.042C261.069 68.2809 261.308 68.878 261.009 69.2959C259.815 70.9081 258.561 72.4606 257.248 73.9533C256.83 74.431 256.233 74.5504 255.695 74.1922C255.337 73.9533 254.979 73.6548 254.62 73.3562C253.964 72.7591 253.367 72.0426 252.949 71.3261C252.71 70.9081 252.889 70.311 253.247 70.0722C253.725 69.893 254.262 70.0722 254.561 70.4304Z" fill="#00A99D"/>
<path d="M261.786 65.7134C263.816 68.1615 264.354 71.6247 263.1 74.5505C262.443 76.1029 261.428 77.0583 259.875 77.6554C258.263 78.2525 256.472 78.4316 254.8 78.1928C254.263 78.133 253.725 77.9539 253.188 77.7748C254.263 78.4913 255.696 78.8496 257.308 78.7302C257.666 78.7302 258.084 78.7301 258.442 78.6704C260.174 78.4316 261.846 77.7151 263.04 76.4612C264.234 75.2073 264.771 73.4757 265.07 71.8038C265.249 70.6693 265.309 69.5348 265.07 68.46C265.01 68.3406 265.01 68.1615 264.951 68.0421C264.473 66.6687 263.458 65.4745 262.025 65.0566C261.726 64.8774 261.428 64.758 261.189 64.6386C261.01 64.5789 260.771 64.5192 260.592 64.4595C260.95 64.8177 261.428 65.2357 261.786 65.7134Z" fill="#00A99D"/>
<path d="M260.233 64.3401C260.353 64.3401 260.412 64.3998 260.532 64.4595C258.382 62.7876 255.457 62.0114 252.949 63.3847C251.934 63.9221 252.829 65.4746 253.844 64.9372C254.8 64.3998 255.934 64.3401 256.949 64.6386C257.666 64.3998 258.442 64.2804 259.159 64.2804C259.517 64.2207 259.875 64.2804 260.233 64.3401Z" fill="#1E1E1E"/>
<path d="M250.441 72.0427C250.262 70.3111 251.098 68.5795 252.59 67.6839C253.008 67.2062 253.426 66.7285 253.904 66.3702C253.904 66.3105 253.904 66.3105 253.904 66.2508C253.785 65.8329 253.247 65.4746 252.829 65.6537C249.963 66.7882 248.232 69.5946 248.769 72.6995C249.187 75.1476 250.978 76.9986 253.188 77.8346C251.217 76.5209 250.202 74.252 250.441 72.0427Z" fill="#1E1E1E"/>
<path d="M261.845 72.58C261.606 73.7144 261.129 74.9684 260.114 75.6252C259.039 76.282 257.606 76.5208 256.352 76.5805C254.143 76.6402 251.754 75.5655 250.799 73.4756C250.62 72.9979 250.5 72.58 250.441 72.1023C250.142 74.3713 251.217 76.5805 253.187 77.8344C253.725 78.0136 254.262 78.1927 254.799 78.2524C256.471 78.4912 258.263 78.3121 259.875 77.715C261.427 77.1179 262.442 76.1626 263.099 74.6101C264.353 71.6246 263.756 68.2211 261.786 65.773C261.427 65.2953 260.95 64.8774 260.532 64.5191C260.412 64.5191 260.353 64.4594 260.233 64.3997C259.875 64.34 259.517 64.2803 259.158 64.2803C258.442 64.2803 257.666 64.3997 256.949 64.6385C258.024 64.9371 259.039 65.5342 259.815 66.2507C261.547 67.8629 262.323 70.2513 261.845 72.58Z" fill="#1E1E1E"/>
<path d="M252.65 67.6839C252.829 67.5645 253.068 67.445 253.307 67.3256C253.725 67.1465 254.023 66.7882 253.964 66.3105C253.486 66.7285 253.008 67.2062 252.65 67.6839Z" fill="#1E1E1E"/>
<path d="M253.307 70.1318C252.889 70.3707 252.71 70.9677 253.008 71.3857C253.486 72.1619 254.023 72.8188 254.68 73.4159C255.038 73.7144 255.397 74.013 255.755 74.2518C256.292 74.6101 256.889 74.4906 257.307 74.013C258.621 72.5202 259.875 70.908 261.069 69.3556C261.368 68.9973 261.129 68.3405 260.771 68.1017C260.293 67.8628 259.815 68.042 259.517 68.4002C258.92 69.1765 258.382 69.893 257.785 70.6692C257.486 71.0275 257.188 71.4454 256.889 71.8037C256.71 71.9828 256.591 72.1619 256.412 72.4008L256.352 72.4605L256.292 72.4008C256.053 72.2217 255.815 71.9828 255.635 71.8037C255.218 71.3857 254.919 70.9677 254.62 70.4901C254.262 70.0721 253.725 69.893 253.307 70.1318Z" fill="#1E1E1E"/>
</svg>
