<svg width="176" height="156" viewBox="0 0 176 156" fill="none" xmlns="http://www.w3.org/2000/svg">
<path d="M46.6349 60.5698L139.389 38.1852L159.448 113.047L67.8457 135.123L46.6349 60.5698Z" fill="white"/>
<path d="M106.721 37.4708C103.814 38.3238 100.907 39.1767 97.9825 40.0097C77.9185 45.7809 57.7211 51.0693 37.3903 55.875C38.9083 60.6651 40.001 65.6186 41.1474 70.4959C42.4838 76.0053 43.8181 81.5071 45.1504 87.0012C47.3139 95.9511 49.6612 105.679 52.2851 114.826C52.3414 114.946 52.3759 115.075 52.387 115.206C52.498 115.621 52.6122 116.047 52.7233 116.462C55.1568 116.007 57.5956 115.526 60.0198 115.037C58.7704 110.052 57.5677 105.103 56.4145 100.339C54.879 93.994 53.3435 87.6491 51.808 81.3042C50.2859 75.071 48.9612 68.6985 46.8863 62.6133C46.6922 62.1293 46.6841 61.5906 46.8636 61.1011C46.8772 60.7473 47.007 60.4078 47.233 60.1352C47.459 59.8627 47.7685 59.6722 48.1137 59.5934C55.0258 57.9635 61.9257 56.2875 68.8131 54.5655C80.8849 51.5531 92.9193 48.3861 104.916 45.0644C108.533 44.0954 112.121 43.0228 115.726 42.0077C115.254 40.0026 114.789 37.9917 114.331 35.9748C111.702 35.7905 109.22 36.8012 106.721 37.4708Z" fill="#00A99D"/>
<path d="M33.7404 53.8164C33.7581 53.5092 33.8735 53.2157 34.0699 52.9787C34.2662 52.7418 34.5331 52.5739 34.8317 52.4994C40.8239 51.0913 46.8048 49.641 52.7744 48.1484C63.2583 45.5368 73.7014 42.7879 84.1036 39.9019C89.3554 38.4947 94.5915 37.0135 99.8119 35.4584L102.661 34.6208C102.115 32.5823 101.699 30.5213 101.244 28.4581C98.6005 28.2654 96.1032 29.2185 93.6225 29.9573C90.7041 30.8133 87.7973 31.6662 84.8843 32.4962C64.8203 38.2673 44.6229 43.5557 24.2921 48.3615C25.7986 53.1546 26.9028 58.105 28.0377 62.9854C29.3741 68.4948 30.7084 73.9966 32.0406 79.4907C34.2042 88.4406 36.5515 98.1683 39.1754 107.316C39.2445 107.43 39.2981 107.552 39.3349 107.68C39.4239 108.105 39.5362 108.524 39.6712 108.936C42.0701 108.49 44.4677 108.025 46.864 107.539L46.9336 107.385C45.1715 100.809 43.5929 94.1337 42.0669 87.8398C40.727 82.3477 39.3927 76.8459 38.064 71.3344C37.3523 68.4021 36.6774 65.4228 35.925 62.4767L33.8168 55.4377L33.8858 55.4192C33.8646 55.318 33.8379 55.218 33.8056 55.1197C33.6352 54.7056 33.6123 54.2455 33.7404 53.8164Z" fill="white"/>
<path d="M124.829 87.6855C123.526 88.4421 122.606 89.4294 121.038 89.7508C120.41 89.8661 119.768 89.8798 119.135 89.7914C118.528 89.5967 117.904 89.4581 117.271 89.3774C116.768 89.3887 116.88 89.2972 116.366 89.731C115.964 90.1059 115.538 90.455 115.091 90.7763C114.243 91.3724 113.223 91.6759 112.187 91.6408C111.512 91.6003 110.852 91.4246 110.247 91.1239L109.844 90.9109C109.857 90.9242 109.867 90.9408 109.872 90.959C109.876 90.9772 109.877 90.9963 109.872 91.0145C109.241 91.8714 108.451 92.5986 107.545 93.1563C106.469 93.7269 105.255 93.9839 104.04 93.8979C102.997 93.6933 101.937 93.593 100.874 93.5983C100.475 93.6731 100.097 93.8333 99.7654 94.0681C99.8795 94.309 100.052 94.5177 100.266 94.6757C100.481 94.8336 100.731 94.9357 100.995 94.973C103.877 95.5463 106.799 95.7632 109.174 93.7074C109.564 93.2454 110.06 92.884 110.619 92.6534C111.243 92.5554 111.876 92.5225 112.506 92.5552C113.907 92.566 115.277 92.1429 116.428 91.3438C116.805 90.9886 117.243 90.704 117.721 90.5036C118.332 90.4676 118.944 90.5285 119.535 90.6842C120.863 90.9097 122.228 90.6787 123.408 90.029C123.978 89.7158 124.44 89.2713 125.036 88.9633C125.573 88.7252 126.16 88.6229 126.746 88.6656C127.416 88.6723 128.076 88.508 128.664 88.1884C129.252 87.8688 129.749 87.4043 130.108 86.839C130.339 86.4944 130.438 86.0776 130.386 85.6658C129.827 86.0361 129.22 86.3275 128.582 86.532C127.298 86.799 126.042 87.1852 124.829 87.6855Z" fill="#FBB03B"/>
<path d="M153.01 112.513C152.139 111.991 151.152 111.692 150.138 111.643C149.123 111.594 148.112 111.796 147.195 112.232C140.844 115.02 133.593 115.876 126.97 117.972C120.347 120.067 113.497 120.854 106.777 122.63C105.856 122.808 104.999 123.23 104.297 123.853C103.596 124.475 103.074 125.275 102.787 126.168C119.694 122.189 136.435 117.637 153.01 112.513Z" fill="#00A99D"/>
<path d="M103.272 129.914C103.868 130.924 104.798 131.695 105.9 132.096C107.003 132.496 108.211 132.501 109.316 132.108C123.54 128.297 138.984 126.554 152.547 120.599C155.131 119.462 155.876 117.497 155.429 115.691C150.578 117.213 145.707 118.687 140.814 120.114C128.378 123.701 115.864 126.968 103.272 129.914Z" fill="#00A99D"/>
<path d="M88.7656 121.383C88.9458 121.791 89.2661 122.122 89.6687 122.315C90.0713 122.508 90.5298 122.551 90.9613 122.436C104.447 119.325 117.792 115.658 130.996 111.437C131.466 111.308 131.868 111.002 132.117 110.583C132.366 110.164 132.443 109.665 132.332 109.19C132.113 109.287 131.888 109.372 131.66 109.445C117.502 113.855 103.204 117.835 88.7656 121.383Z" fill="#FBB03B"/>
<path d="M75.9719 116.664C86.9362 113.726 97.9919 111.175 109.139 109.011C112.186 108.404 111.116 104.457 108.077 105.049C96.9601 107.263 85.9044 109.813 74.9103 112.702C74.6242 112.746 74.3507 112.85 74.1075 113.008C73.8643 113.165 73.6568 113.371 73.4988 113.614C73.3407 113.857 73.2356 114.13 73.1901 114.416C73.1446 114.702 73.1597 114.994 73.2347 115.274C73.3096 115.554 73.4427 115.814 73.6251 116.039C73.8075 116.264 74.0351 116.448 74.2933 116.579C74.5515 116.71 74.8345 116.786 75.1237 116.8C75.4129 116.815 75.7019 116.768 75.9719 116.664Z" fill="#1E1E1E"/>
<path d="M130.601 105.494C113.28 110.876 95.7351 115.651 78.0632 119.769C73.4162 120.854 74.4778 124.816 79.1248 123.731C82.3428 122.98 85.5599 122.18 88.7656 121.383C88.6309 121.138 88.5561 120.865 88.5474 120.586C88.5387 120.307 88.5962 120.03 88.7154 119.778C88.8345 119.525 89.0117 119.305 89.2326 119.134C89.4535 118.964 89.7118 118.848 89.9861 118.797C103.476 115.701 116.821 112.038 130.024 107.809C130.266 107.718 130.525 107.683 130.783 107.706C131.041 107.729 131.29 107.81 131.512 107.942C131.734 108.075 131.923 108.256 132.065 108.473C132.207 108.689 132.298 108.934 132.332 109.191C136.025 107.633 134.885 104.161 130.601 105.494Z" fill="#1E1E1E"/>
<path d="M130.012 107.763C116.825 111.988 103.479 115.65 89.9738 118.751C89.6995 118.802 89.4412 118.918 89.2203 119.088C88.9994 119.259 88.8222 119.479 88.7031 119.732C88.584 119.984 88.5264 120.261 88.5351 120.54C88.5439 120.819 88.6186 121.092 88.7533 121.337C103.162 117.772 117.46 113.793 131.647 109.399C131.876 109.326 132.1 109.241 132.32 109.144C132.286 108.888 132.195 108.643 132.052 108.427C131.91 108.21 131.721 108.029 131.499 107.896C131.277 107.764 131.028 107.683 130.771 107.66C130.513 107.636 130.254 107.672 130.012 107.763Z" fill="#1E1E1E"/>
<path d="M141.35 36.6107C141.082 36.3871 140.757 36.2432 140.412 36.1955C137.638 35.9334 134.842 36.2907 132.224 37.2415C129.159 38.1492 126.105 39.0537 123.069 39.9291L118.872 41.1277C118.986 41.5538 119.1 41.9799 119.214 42.4061L116.105 43.2393C116.068 43.1011 116.031 42.9629 115.994 42.8247C115.133 43.7382 113.968 44.3051 112.717 44.4185C100.713 45.6848 89.4171 50.9334 77.7629 53.7845C71.8123 55.2556 65.806 56.5193 59.9779 58.4019C55.8297 59.7356 51.7812 62.1782 47.433 62.6274C52.1069 78.274 57.0435 93.8873 60.4444 109.85C60.52 110.221 60.5631 110.598 60.5732 110.976C60.6102 111.114 60.6503 111.264 60.7449 111.387C60.9502 112.035 60.9778 112.727 60.8249 113.39C60.7925 113.94 60.6364 114.475 60.3683 114.956L61.3313 114.772L62.1768 117.928L60.8507 118.185C62.1838 123.16 63.4541 128.177 64.8316 133.042C65.0461 134.096 65.3478 135.13 65.7339 136.133C65.7884 136.38 65.9092 136.608 66.0834 136.792C66.2167 136.995 66.3971 137.163 66.6093 137.281C67.0452 137.524 67.5579 137.59 68.0411 137.465C68.2702 137.391 68.487 137.283 68.6837 137.145C80.2727 135.002 91.8001 132.584 103.266 129.891C102.938 129.332 102.727 128.713 102.646 128.07C102.565 127.428 102.616 126.775 102.795 126.153C97.8689 127.3 92.9476 128.421 87.9965 129.477C81.6063 130.843 75.1965 132.12 68.7667 133.308C68.6371 132.825 68.5106 132.352 68.381 131.869C68.3635 131.714 68.3229 131.562 68.2606 131.42C65.2403 120.885 62.5294 109.662 60.0278 99.3584C58.4999 93.0115 56.9644 86.6666 55.4212 80.3238C54.0512 74.704 52.8385 68.9804 51.1 63.4594C74.5267 57.9228 97.8091 51.8325 120.947 45.1882C124.303 44.2149 127.671 43.2385 131.021 42.2422C133.882 41.4016 136.758 40.2975 139.804 40.5181C143.171 55.6632 147.219 70.5395 151.394 85.4309C152.434 89.3122 153.937 94.5509 155.034 98.4167C155.828 101.377 156.582 104.421 157.582 107.325C157.598 107.477 157.637 107.624 157.699 107.763C157.931 108.526 158.103 109.305 158.213 110.094C158.278 110.336 158.273 110.597 158.289 110.839L153.084 112.468C154.277 113.168 155.147 114.31 155.504 115.647C157.374 115.072 159.244 114.496 161.097 113.901C161.389 113.804 161.654 113.639 161.87 113.419C162.086 113.2 162.247 112.933 162.341 112.64C162.434 112.347 162.457 112.035 162.408 111.732C162.358 111.428 162.237 111.14 162.056 110.892C162.045 110.87 162.038 110.847 162.037 110.822C161.967 109.896 161.832 108.975 161.632 108.067L161.862 108.005C161.683 107.337 161.376 106.741 161.2 106.27C160.618 104.697 160.255 103.066 159.797 101.449C158.8 97.7287 157.338 92.6397 156.292 88.9205C154.2 81.4821 152.107 73.9945 150.123 66.589C147.605 57.191 145.236 47.7529 143.147 38.2522C143.09 37.8102 142.878 37.4027 142.549 37.1021C142.22 36.8016 141.795 36.6275 141.35 36.6107Z" fill="#1E1E1E"/>
<path d="M104.931 45.0729C92.9319 48.3869 80.8973 51.5539 68.8276 54.574C61.9325 56.2981 55.0328 57.9741 48.1284 59.6019C47.7832 59.6807 47.4737 59.8711 47.2477 60.1437C47.0217 60.4162 46.8919 60.7557 46.8783 61.1095C46.6987 61.5991 46.7068 62.1378 46.9009 62.6218C48.9758 68.7069 50.243 75.0949 51.8227 81.3127C53.4023 87.5306 54.9063 94.0649 56.4292 100.347C57.5823 105.112 58.7849 110.06 60.0343 115.046L60.3453 114.963C60.6135 114.481 60.7697 113.946 60.8021 113.396C60.955 112.733 60.9274 112.041 60.7221 111.393C60.6851 111.255 60.6449 111.105 60.5503 110.982C60.5402 110.604 60.4971 110.227 60.4214 109.856C56.986 93.9027 52.084 78.2801 47.4101 62.6335C51.7583 62.1844 55.8069 59.7417 59.9551 58.408C65.7832 56.5254 71.7831 55.2387 77.74 53.7907C89.388 50.9165 100.684 45.6678 112.695 44.4246C113.945 44.3112 115.11 43.7443 115.971 42.8308C115.897 42.5544 115.823 42.278 115.752 42.0131C112.136 43.0312 108.538 44.0694 104.931 45.0729Z" fill="#1E1E1E"/>
<path d="M102.799 126.165C102.619 126.787 102.568 127.439 102.649 128.082C102.73 128.724 102.941 129.344 103.269 129.902C115.863 126.964 128.377 123.697 140.811 120.102C145.696 118.678 150.568 117.204 155.426 115.68C155.069 114.343 154.2 113.201 153.007 112.501C136.432 117.626 119.696 122.18 102.799 126.165Z" fill="#1E1E1E"/>
<path d="M58.9425 116.684C58.4531 117.145 57.8478 117.465 57.1909 117.61L57.0067 117.659C56.1478 117.89 55.2426 117.886 54.3861 117.646L53.2003 117.136C52.4433 116.701 51.8151 116.073 51.3794 115.316L50.8579 114.061C50.6873 113.515 50.6381 112.938 50.7138 112.371C46.9988 95.0974 41.5607 78.2112 36.5442 61.2862C36.3328 60.6009 36.2656 59.8792 36.3466 59.1666L36.3219 59.0745C36.0903 58.3282 36.0514 57.5355 36.209 56.7701C36.3666 56.0048 36.7153 55.2919 37.2229 54.6978C36.1258 55.0516 34.9966 55.2963 33.8514 55.4284C34.6337 57.7493 35.2894 60.1041 35.8906 62.4859C39.8973 75.7808 43.8726 89.0964 46.7905 102.658C46.8671 103.029 46.9102 103.406 46.9193 103.784L47.0335 104.21C47.2365 104.858 47.268 105.547 47.125 106.21C47.0959 106.623 47.0002 107.028 46.8415 107.409L46.8786 107.548L47.8875 107.351L48.7331 110.507C48.3991 110.597 48.0612 110.625 47.7241 110.703C48.2241 112.569 48.7208 114.423 49.2722 116.251C49.4318 117.169 49.6735 118.071 49.9943 118.946C50.1057 119.376 50.3821 119.746 50.7636 119.974C50.9551 120.084 51.1667 120.153 51.3857 120.18C51.6048 120.206 51.8269 120.188 52.0388 120.126C52.2362 120.062 52.4236 119.97 52.5953 119.854C55.3228 119.345 58.0606 118.813 60.8085 118.258C60.5585 117.325 60.3086 116.392 60.0617 115.471C59.7829 115.953 59.4007 116.367 58.9425 116.684Z" fill="#1E1E1E"/>
<path d="M102.914 35.7012C102.855 35.4824 102.8 35.275 102.744 35.0677C102.346 35.6288 101.84 36.1044 101.255 36.4666C105.016 35.4687 108.846 34.7479 112.712 34.31C117.153 33.8362 118.467 38.5574 116.736 41.7246L118.832 41.163C118.284 38.841 117.711 36.427 117.197 34.0466C117.153 33.6638 116.976 33.3085 116.698 33.0426C116.419 32.7767 116.056 32.617 115.671 32.5914C115.439 32.3972 115.158 32.2717 114.858 32.2291C112.433 32.0029 109.988 32.3207 107.701 33.1593L105.674 33.7025L105.983 34.8542L102.914 35.7012Z" fill="#1E1E1E"/>
<path d="M64.1091 46.5927C58.1699 48.0606 52.1667 49.3359 46.3241 51.21C44.8569 51.6772 43.4153 52.2857 41.9621 52.8972C42.1942 52.9202 42.4241 52.9618 42.6495 53.0216C43.4182 52.6504 44.2743 52.4979 45.1238 52.5808C48.1241 52.8138 50.9413 50.9356 53.7004 49.9001C56.4596 48.8645 59.1791 48.0494 61.9601 47.2796C67.5804 45.7736 73.258 44.5732 78.8699 43.0819C85.3426 41.3475 91.6311 39.1564 98.0069 37.3369C86.3987 38.7933 75.423 43.808 64.1091 46.5927Z" fill="#1E1E1E"/>
<path d="M52.7379 116.47C52.6268 116.056 52.5126 115.629 52.4015 115.215C52.3905 115.083 52.356 114.954 52.2997 114.835C49.6697 105.664 47.3285 95.9596 45.165 87.0097C43.8327 81.5156 42.4984 76.0138 41.162 70.5044C39.9696 65.6394 38.9229 60.6736 37.4049 55.8835C57.7316 51.0624 77.929 45.774 97.9971 40.0182C100.934 39.2313 103.828 38.3323 106.735 37.4793C109.216 36.7405 111.713 35.7875 114.357 35.9802C114.808 37.9991 115.273 40.0101 115.752 42.0131L116.777 41.7385C118.508 38.5712 117.136 33.8654 112.753 34.3238C108.865 34.7562 105.014 35.4745 101.232 36.4728C100.548 36.9025 99.7704 37.1616 98.9653 37.2282L97.9148 37.3616C91.539 39.1811 85.2536 41.3837 78.7779 43.1065C73.169 44.6094 67.4822 45.7752 61.868 47.3042C59.0809 48.051 56.313 48.9161 53.6084 49.9247C50.9037 50.9334 48.0319 52.8385 45.0316 52.6055C44.1821 52.5226 43.3261 52.6751 42.5575 53.0463C42.332 52.9865 42.102 52.9449 41.8699 52.9219C40.3046 53.5759 38.7278 54.2329 37.1309 54.7225C36.6233 55.3166 36.2745 56.0296 36.1169 56.7949C35.9593 57.5602 35.9982 58.353 36.2299 59.0992L36.2546 59.1914C36.1735 59.904 36.2407 60.6256 36.4521 61.311C41.4571 78.2391 46.9067 95.1221 50.6217 112.396C50.546 112.963 50.5952 113.539 50.7658 114.085L51.2873 115.341C51.723 116.097 52.3512 116.725 53.1082 117.161L54.2939 117.67C55.1503 117.91 56.0556 117.915 56.9145 117.684L57.0988 117.635C57.7557 117.49 58.361 117.17 58.8504 116.709C59.3409 116.384 59.7486 115.949 60.0409 115.439L59.9422 115.071C57.6101 115.535 55.1713 116.016 52.7379 116.47Z" fill="#1E1E1E"/>
<path d="M42.0323 87.849C43.5583 94.1429 45.1715 100.809 46.899 107.394C47.0577 107.012 47.1534 106.607 47.1825 106.195C47.3255 105.531 47.294 104.842 47.091 104.195L46.9769 103.769C46.9677 103.39 46.9246 103.014 46.848 102.643C43.9301 89.081 39.9548 75.7654 35.9481 62.4705C36.735 65.4074 37.3754 68.3959 38.087 71.3282C39.385 76.848 40.7001 82.3549 42.0323 87.849Z" fill="#1E1E1E"/>
<path d="M41.9621 52.8971C43.4153 52.2855 44.8569 51.6771 46.3241 51.2099C52.1668 49.3357 58.1638 48.0374 64.1091 46.5925C75.4231 43.8078 86.3987 38.7931 98.0069 37.3368L101.232 36.4727C101.817 36.1105 102.323 35.6349 102.721 35.0739C102.681 34.9241 102.644 34.7859 102.604 34.6362L99.7544 35.4737C94.5293 36.9807 89.2931 38.462 84.046 39.9173C73.6361 42.8054 63.1932 45.5542 52.7169 48.1638C46.7494 49.664 40.7685 51.1144 34.7742 52.5148C34.4756 52.5892 34.2086 52.7572 34.0123 52.9941C33.8159 53.2311 33.7005 53.5246 33.6828 53.8318C33.537 54.2594 33.5438 54.7243 33.702 55.1474C33.7343 55.2457 33.7611 55.3457 33.7823 55.4469C34.9274 55.3148 36.0568 55.0701 37.1539 54.7163C37.7515 54.0506 38.4999 53.538 39.3366 53.2214C40.1732 52.9049 41.0736 52.7937 41.9621 52.8971Z" fill="#1E1E1E"/>
<path d="M37.223 54.6978C38.82 54.2082 40.3969 53.5511 41.9622 52.8972C41.0862 52.8028 40.2003 52.9167 39.3768 53.2296C38.5532 53.5426 37.8152 54.0456 37.223 54.6978Z" fill="#1E1E1E"/>
<path d="M98.0068 37.3369L99.0574 37.2035C99.8624 37.1369 100.64 36.8778 101.324 36.4481L98.0068 37.3369Z" fill="#1E1E1E"/>
<path d="M61.3144 114.802L60.3514 114.986C60.3242 115.078 60.2859 115.167 60.2372 115.251C60.1991 115.303 60.1643 115.358 60.133 115.415C60.3799 116.336 60.6298 117.269 60.8798 118.202L62.2059 117.945L61.3144 114.802Z" fill="#1E1E1E"/>
<path d="M115.936 42.8401C115.973 42.9783 116.01 43.1165 116.047 43.2547L119.157 42.4215C119.043 41.9954 118.928 41.5692 118.814 41.1431L116.718 41.7047C116.503 42.1125 116.24 42.4936 115.936 42.8401Z" fill="#1E1E1E"/>
<path d="M115.74 42.0161C115.811 42.281 115.885 42.5574 115.959 42.8338C116.277 42.4938 116.553 42.1173 116.782 41.7122L115.74 42.0161Z" fill="#1E1E1E"/>
<path d="M60.1238 115.38C60.1552 115.323 60.19 115.269 60.2281 115.216C60.2767 115.133 60.3151 115.044 60.3422 114.951L60.0312 115.034L60.1238 115.38Z" fill="#1E1E1E"/>
<path d="M46.9361 107.532L46.8325 107.56C46.7544 107.729 46.6992 107.892 46.6065 108.053C45.8929 109.176 44.8043 110.01 43.534 110.407L43.3383 110.459C42.48 110.694 41.5735 110.689 40.7177 110.445L39.535 109.947C38.7798 109.504 38.1517 108.873 37.711 108.116L37.1895 106.86C37.0179 106.313 36.9726 105.735 37.0569 105.168C33.3303 87.8971 27.9038 71.0079 22.8758 54.0859C22.6678 53.3988 22.6045 52.6761 22.6897 51.9632C22.6897 51.9632 22.6743 51.9057 22.6681 51.8826C21.5078 47.5522 25.7535 44.9703 28.9927 45.8182C29.7652 45.4561 30.6207 45.3079 31.47 45.3889C34.4672 45.6104 37.2844 43.7322 40.0436 42.6966C42.8027 41.6611 45.5222 40.846 48.3178 40.0845C53.9267 38.5817 59.6126 37.3667 65.2246 35.8753C76.5575 32.8387 87.3165 28.3511 99.0901 27.0974C103.522 26.6381 104.827 31.3248 103.122 34.4974L105.741 33.7216C105.174 31.3305 104.621 28.9277 104.081 26.5131C104.037 26.1303 103.861 25.775 103.582 25.509C103.303 25.2431 102.94 25.0834 102.555 25.0579C102.324 24.8698 102.048 24.7441 101.754 24.6925C99.3286 24.4691 96.8841 24.7868 94.5966 25.6227L86.5871 27.9787C81.362 29.4858 76.126 30.9669 70.8788 32.4223C60.4766 35.3083 50.0374 38.0561 39.5612 40.6657C33.5783 42.17 27.5935 43.6214 21.6069 45.0198C21.3091 45.0927 21.043 45.2601 20.8483 45.497C20.6536 45.7339 20.5409 46.0274 20.527 46.3337C20.3751 46.7603 20.3819 47.2274 20.5462 47.6493C22.3444 52.9322 23.4441 58.4639 24.8046 63.8641C26.1652 69.2642 27.483 74.8732 28.8076 80.3694C31.0205 89.5035 33.4234 99.4385 36.105 108.756C36.2705 109.673 36.512 110.574 36.8272 111.451C36.8729 111.666 36.9773 111.864 37.1289 112.024C37.2418 112.202 37.3998 112.347 37.5871 112.444C37.7783 112.555 37.99 112.625 38.2092 112.651C38.4283 112.677 38.6504 112.659 38.8622 112.597C39.0601 112.533 39.2476 112.442 39.4188 112.324C42.1578 111.812 44.9022 111.274 47.6351 110.74L46.9361 107.532Z" fill="#1E1E1E"/>
<path d="M39.3349 107.68C39.2982 107.552 39.2445 107.43 39.1755 107.316C36.5454 98.1453 34.2043 88.4406 32.0407 79.4907C30.7085 73.9966 29.3741 68.4949 28.0378 62.9854C26.8568 58.1173 25.7987 53.1546 24.2921 48.3615C44.6035 43.5445 64.8009 38.2561 84.8843 32.4962C87.8097 31.7123 90.7042 30.8133 93.6226 29.9573C96.1033 29.2185 98.6006 28.2654 101.244 28.4581C101.699 30.5213 102.173 32.5669 102.661 34.6208L103.145 34.4912C104.85 31.3187 103.51 26.6413 99.113 27.0912C87.3394 28.345 76.5867 32.8556 65.2476 35.8692C59.6388 37.3721 53.9405 38.541 48.3409 40.0784C45.5422 40.8283 42.7713 41.6818 40.0666 42.6905C37.362 43.6991 34.4901 45.6043 31.4929 45.3828C30.6437 45.3017 29.7882 45.45 29.0157 45.812C25.7305 44.9765 21.5308 47.546 22.6912 51.8765C22.6912 51.8765 22.6912 51.8765 22.7128 51.9571C22.6276 52.6699 22.6909 53.3927 22.8988 54.0798C27.9038 71.0079 33.3534 87.8909 37.08 105.162C36.9956 105.729 37.041 106.307 37.2125 106.854L37.734 108.109C38.1747 108.866 38.8029 109.497 39.558 109.941L40.7406 110.439C41.5965 110.683 42.503 110.688 43.3614 110.453L43.5571 110.4C44.8273 110.004 45.9159 109.17 46.6296 108.047C46.7223 107.886 46.7775 107.723 46.8556 107.554C44.4573 108.032 42.0597 108.497 39.6629 108.95C39.5302 108.533 39.4207 108.109 39.3349 107.68Z" fill="#1E1E1E"/>
<path d="M47.945 107.336L46.936 107.532L47.7816 110.688C48.1156 110.599 48.4381 110.512 48.7906 110.492L47.945 107.336Z" fill="#1E1E1E"/>
<path d="M102.767 35.0615C102.823 35.2688 102.878 35.4761 102.937 35.6949L106.058 34.8586L105.749 33.7069L103.13 34.4827C103.023 34.6841 102.902 34.8775 102.767 35.0615Z" fill="#1E1E1E"/>
<path d="M102.767 35.0616C102.906 34.877 103.031 34.6825 103.142 34.4797L102.658 34.6093C102.701 34.7706 102.727 34.9119 102.767 35.0616Z" fill="#1E1E1E"/>
<path d="M125.223 83.3954C124.043 83.6924 122.924 84.1927 121.916 84.874C121.466 85.3077 120.939 85.6539 120.363 85.8951C119.919 85.9078 119.477 85.8285 119.066 85.6624C117.908 85.306 116.669 85.3107 115.514 85.6759C114.583 86.0013 113.742 86.5438 113.062 87.2587C112.926 87.407 112.776 87.5422 112.615 87.6625L112.411 87.5444C111.906 87.2703 111.36 87.0829 110.793 86.9903C109.759 86.8227 108.699 87.0195 107.795 87.5469C106.717 88.1319 106.33 89.1738 105.383 89.7856C104.623 90.2235 103.628 89.8729 102.788 89.7772C101.662 89.6111 100.516 89.6628 99.4095 89.9294C98.3392 90.4008 97.3197 90.98 96.3669 91.6581C95.4227 92.0963 94.3736 91.4516 93.3299 91.472C92.0884 91.5277 90.8835 91.9102 89.8372 92.5807C88.884 93.1694 87.644 94.7608 86.4791 94.9742C85.7035 95.1202 84.7879 94.3287 84.0473 94.1445C83.4837 94.0019 82.8968 93.977 82.3231 94.0712C81.7495 94.1655 81.2013 94.3769 80.713 94.6923C79.6739 95.5298 78.8013 96.555 78.1406 97.7146L77.9143 98.0221C77.2412 97.5861 76.5389 97.1968 75.8124 96.8571C72.8362 94.9636 71.0852 97.6423 69.5101 99.7802C67.9351 101.918 71.7123 103.807 73.341 101.593C73.5504 101.315 73.8058 101.024 74.0382 100.739C75.0146 101.421 76.1169 101.902 77.281 102.154C80.0388 102.588 81.3833 100.327 82.6608 98.5525C82.7145 98.4764 82.8794 98.3088 83.0013 98.165C83.4309 98.4107 83.8951 98.5901 84.3783 98.6971C85.6239 99.039 86.9486 98.9494 88.1368 98.443C89.2637 97.9546 90.3067 97.2919 91.2275 96.4792C91.6715 96.0257 92.2096 95.675 92.8039 95.452C93.4548 95.4295 94.1048 95.5184 94.7259 95.7147C95.9039 95.8907 97.1074 95.6892 98.1638 95.1391C98.7049 94.8084 99.2261 94.4462 99.7247 94.0543C99.5907 93.7141 99.5506 93.3442 99.6086 92.9832C99.6667 92.6222 99.8207 92.2834 100.055 92.0024C100.289 91.7214 100.594 91.5085 100.938 91.3859C101.283 91.2633 101.654 91.2357 102.013 91.3058C103.221 91.702 104.517 91.7444 105.748 91.428C106.863 90.9812 107.484 89.8891 108.554 89.3678C109.678 88.9178 110.886 88.7121 112.096 88.7645C113.054 88.8007 113.993 88.4833 114.733 87.8727C115.597 87.1853 116.651 86.778 117.753 86.7055C118.779 86.6651 119.942 87.1806 120.948 86.9728C121.954 86.7649 122.853 85.7462 123.815 85.328C124.407 85.0849 125.035 84.9377 125.673 84.8918L126.558 84.8769L126.8 84.8121C127.03 84.5049 127.343 84.2706 127.703 84.1374C128.063 84.0042 128.453 83.9778 128.828 84.0613C129.202 84.1448 129.545 84.3348 129.814 84.6082C130.083 84.8817 130.267 85.227 130.345 85.6028C130.926 85.2222 131.437 84.7428 131.854 84.1863C133.509 81.9777 129.666 80.1681 128.008 82.3652C127.511 83.0908 125.995 83.1886 125.223 83.3954Z" fill="#1E1E1E"/>
<path d="M126.792 84.8759L126.55 84.9407L125.666 84.9556C125.027 85.0015 124.4 85.1487 123.808 85.3918C122.846 85.81 121.969 86.8226 120.94 87.0366C119.911 87.2506 118.771 86.7289 117.745 86.7693C116.643 86.8419 115.59 87.2491 114.725 87.9365C113.985 88.5471 113.047 88.8645 112.088 88.8283C110.878 88.7759 109.671 88.9816 108.546 89.4316C107.453 89.959 106.809 91.0574 105.741 91.4918C104.509 91.8083 103.213 91.7658 102.005 91.3696C101.646 91.2995 101.275 91.3272 100.931 91.4497C100.586 91.5723 100.281 91.7852 100.047 92.0663C99.8131 92.3473 99.659 92.686 99.601 93.047C99.5429 93.408 99.5831 93.7779 99.7171 94.1181C100.048 93.8833 100.427 93.7231 100.826 93.6483C101.888 93.643 102.949 93.7433 103.992 93.9479C105.206 94.0339 106.421 93.777 107.496 93.2063C108.403 92.6486 109.193 91.9214 109.823 91.0645C109.828 91.0463 109.828 91.0271 109.823 91.0089C109.818 90.9907 109.809 90.9742 109.796 90.9608L110.198 91.1739C110.804 91.4745 111.464 91.6503 112.139 91.6908C113.175 91.7259 114.195 91.4224 115.043 90.8263C115.489 90.5049 115.915 90.1558 116.318 89.781C116.831 89.3472 116.72 89.4387 117.223 89.4274C117.856 89.5081 118.48 89.6467 119.087 89.8414C119.719 89.9298 120.362 89.9161 120.989 89.8007C122.557 89.4793 123.478 88.4921 124.781 87.7355C125.981 87.2367 127.224 86.8498 128.496 86.5797C129.134 86.3753 129.741 86.0838 130.3 85.7135C130.224 85.3428 130.043 85.0017 129.78 84.73C129.516 84.4582 129.181 84.2672 128.813 84.1793C128.445 84.0914 128.059 84.1103 127.701 84.2336C127.343 84.357 127.028 84.5798 126.792 84.8759Z" fill="#1E1E1E"/>
<path d="M30.0523 125.832C29.6028 125.87 29.1502 125.842 28.7089 125.748C28.6274 125.631 28.5675 125.501 28.5319 125.363C27.5839 122.869 26.8497 120.299 26.3374 117.681C25.6278 114.526 20.8974 115.806 21.6039 118.949C22.1065 121.147 22.6898 123.324 23.3537 125.479C24.0027 127.441 24.6557 129.463 26.6806 130.34C28.5697 130.946 30.5767 131.09 32.5329 130.759C33.5976 130.665 34.6555 130.505 35.7006 130.281C36.1844 130.151 36.7716 129.994 37.3059 129.777C37.4232 130.214 37.6411 130.613 37.8128 131.024C38.1387 131.825 38.4561 132.641 38.7966 133.451C38.9933 134.171 39.3563 134.835 39.8564 135.389C40.3565 135.943 40.9798 136.372 41.676 136.642C43.0253 136.904 44.4234 136.716 45.6554 136.106L48.2196 135.172C48.5536 135.083 48.9803 134.833 49.4256 134.652C49.5583 135.147 49.6911 135.642 49.9097 136.09C50.3728 137.311 50.8327 138.521 51.2843 139.746C52.1703 142.1 53.0544 144.448 53.9363 146.787C54.1141 147.417 54.527 147.954 55.0897 148.288C55.6525 148.622 56.3221 148.727 56.9601 148.581C57.5905 148.396 58.1235 147.972 58.4452 147.399C58.7668 146.826 58.8516 146.15 58.6814 145.516C57.7583 143.084 56.8437 140.638 55.9176 138.195C55.0815 135.951 54.3644 133.551 53.3387 131.381C52.0759 128.695 49.7119 129.316 47.4839 130.123L44.109 131.349C44.109 131.349 43.6828 131.463 43.3143 131.562C43.2994 131.483 43.2787 131.406 43.2525 131.331C42.7557 130.168 42.3051 128.993 41.8314 127.824C41.5457 126.728 40.9122 125.754 40.0261 125.048C38.03 123.818 35.6584 125.194 33.6135 125.532C32.4398 125.753 31.2464 125.854 30.0523 125.832Z" fill="#1E1E1E"/>
<path d="M126.259 19.8176C125.75 17.9173 125.299 15.8656 123.335 14.9847C121.632 14.2064 119.608 14.897 117.954 15.2661C116.802 15.5747 115.593 15.8987 114.407 16.2166C113.931 14.4429 113.376 12.6909 112.774 10.9512C112.599 10.3217 112.189 9.78364 111.628 9.44889C111.067 9.11414 110.398 9.00844 109.761 9.15372C109.129 9.33608 108.594 9.75995 108.272 10.3337C107.95 10.9074 107.867 11.5848 108.04 12.2195C108.919 14.7615 109.679 17.3229 110.33 19.9381C110.5 20.5717 110.912 21.1134 111.476 21.4468C112.041 21.7802 112.714 21.8786 113.351 21.7209C114.687 21.363 116.023 21.005 117.359 20.647C118.695 20.289 119.899 20.1762 121.117 19.8376C121.259 20.3674 121.447 21.0699 121.478 21.1851C121.83 22.4981 122.182 23.811 122.622 25.0878C123.063 26.3645 123.369 27.8749 124.707 28.6276C126.044 29.3802 127.521 28.8116 128.857 28.4536L136.999 26.2718C140.052 25.454 138.749 20.5938 135.7 21.4231L127.293 23.6759C127.213 23.3764 127.129 23.0655 127.058 22.8006C126.812 21.7432 126.541 20.7789 126.259 19.8176Z" fill="#1E1E1E"/>
<path d="M67.6442 83.6034C64.7912 81.2942 64.424 76.8376 64.4135 73.8038C66.018 68.0906 73.6808 65.4078 79.0772 68.6403C81.0478 70.4206 83.1868 72.9211 81.5947 75.5943C80.0932 78.281 77.6035 80.2765 74.6544 81.1572C70.9034 81.3475 68.0368 75.993 71.0747 72.9571C72.3176 71.8834 74.4575 71.347 74.9938 73.487C74.9926 73.7994 74.9244 74.108 74.7936 74.3918C74.6628 74.6756 74.4725 74.9279 74.2357 75.1318C73.9989 75.3357 73.721 75.4864 73.4209 75.5737C73.1209 75.6609 72.8056 75.6826 72.4964 75.6375C74.2978 79.7344 79.2812 75.4365 78.7334 73.2997C76.7668 68.494 71.7813 69.7434 68.7234 72.7971C65.6656 75.8507 68.2041 79.7501 70.3515 82.2361C71.4283 83.4905 73.7449 83.6598 75.1677 83.3033C78.7149 82.3528 82.1217 80.7857 83.3289 77.4133C83.384 77.1599 83.507 76.9262 83.6847 76.7373C83.8623 76.5483 84.0881 76.4112 84.3377 76.3406C84.335 76.0081 84.3322 75.6755 84.3065 75.3491C84.2439 72.9756 83.3672 70.6958 81.8233 68.892C81.0101 67.8792 79.9456 67.0973 78.7359 66.6244C77.5262 66.1514 76.2136 66.004 74.9291 66.1966C74.015 65.766 73.0327 65.4986 72.0265 65.4067C66.7424 64.8969 62.2816 69.4868 62.5773 75.1969C62.6056 77.3669 63.148 79.4992 64.1602 81.4189C65.1724 83.3385 66.6254 84.9908 68.4 86.24C70.3036 87.489 72.5795 88.0434 74.8442 87.8099C77.109 87.5763 79.2239 86.569 80.8325 84.9578C81.1744 84.6158 81.4884 84.2468 81.7713 83.8545C77.7065 86.8817 71.7178 87.289 67.6442 83.6034Z" fill="#FBB03B"/>
<path d="M84.317 76.3091C84.3073 79.0047 83.4408 81.6274 81.8428 83.7983C83.7964 82.3758 85.2873 80.4092 86.1294 78.1441C86.2107 77.8909 86.221 77.6204 86.1592 77.3618C86.0975 77.1032 85.9662 76.8664 85.7793 76.6773C85.5925 76.4881 85.3575 76.3538 85.0996 76.2888C84.8418 76.2239 84.5711 76.2309 84.317 76.3091Z" fill="#1E1E1E"/>
<path d="M84.317 76.3092C84.0674 76.3797 83.8417 76.5169 83.664 76.7058C83.4863 76.8947 83.3634 77.1284 83.3082 77.3818C82.0918 80.7197 78.6943 82.3213 75.147 83.2718C73.7304 83.6514 71.4076 83.4591 70.3309 82.2046C68.1835 79.7187 65.6764 75.7984 68.7028 72.7656C71.7291 69.7328 76.7231 68.4687 78.7127 73.2682C79.2836 75.3989 74.2656 79.706 72.4757 75.606C72.7849 75.6512 73.1002 75.6294 73.4003 75.5422C73.7003 75.455 73.9783 75.3043 74.2151 75.1004C74.4519 74.8965 74.6421 74.6441 74.7729 74.3603C74.9037 74.0765 74.9719 73.768 74.9732 73.4555C74.4023 71.3248 72.297 71.8519 71.054 72.9256C68.0161 75.9615 70.8367 81.3284 74.6337 81.1257C77.5828 80.245 80.0725 78.2495 81.5741 75.5628C83.1661 72.8896 81.0273 70.3891 79.0566 68.6088C73.7071 65.4131 66.0444 68.0959 64.3929 73.7723C64.4035 76.8061 64.7706 81.2627 67.6236 83.5719C71.6971 87.2575 77.6283 86.8657 81.8221 83.7669C83.4212 81.6072 84.2946 78.9963 84.317 76.3092Z" fill="#1E1E1E"/>
<path d="M152.403 52.3871C152.898 53.2667 152.568 53.4169 152.38 54.282C152.136 55.2262 152.163 56.22 152.458 57.1498C152.959 58.4254 153.833 59.5205 154.966 60.292C154.524 61.503 154.458 62.8189 154.775 64.0682C155.092 65.3176 155.778 66.4424 156.744 67.2961C156.294 68.2598 156.08 69.3164 156.118 70.3791C156.156 71.4418 156.445 72.4804 156.962 73.4095C157.814 74.8847 159.881 75.6887 159.695 77.4793C159.508 79.2698 158.757 80.3844 159.125 82.1252C159.63 83.9441 160.668 85.5704 162.104 86.7952C162.646 87.3414 162.986 87.4601 162.944 88.2243C162.872 89.2436 162.157 89.8919 162.635 90.9859L162.576 90.767C162.664 90.9684 162.805 91.1417 162.985 91.2677C163.164 91.3938 163.376 91.4679 163.595 91.4817C164.027 91.507 164.46 91.4536 164.873 91.3242C165.275 91.2427 165.651 91.0658 165.97 90.8083C166.121 90.6438 166.25 90.4597 166.354 90.261C166.837 89.6383 167.175 88.9151 167.342 88.1446C167.579 84.8839 163.444 84.0539 163.082 81.1388C162.922 79.8487 163.617 78.5268 163.792 77.2455C163.921 76.1165 163.642 74.9785 163.006 74.0367C162.295 72.993 160.858 72.378 160.344 71.195C160.121 70.648 160.07 70.0461 160.198 69.4695C160.326 68.8928 160.626 68.3687 161.059 67.9668C161.287 67.7041 161.445 67.3873 161.516 67.0465C161.588 66.7058 161.571 66.3524 161.467 66.0201C161.363 65.6878 161.176 65.3876 160.923 65.1482C160.67 64.9087 160.36 64.738 160.023 64.6523C159.675 64.5246 159.364 64.3122 159.118 64.0342C158.873 63.7562 158.701 63.4214 158.618 63.0601C158.535 62.6989 158.543 62.3225 158.641 61.9652C158.74 61.6078 158.926 61.2808 159.183 61.0135C159.385 60.785 159.533 60.514 159.615 60.2205C159.698 59.9271 159.713 59.6189 159.66 59.3187C159.607 59.0186 159.486 58.7343 159.308 58.4871C159.13 58.2398 158.898 58.0359 158.63 57.8905C157.155 56.9898 156.17 56.4019 156.507 54.5712C156.796 53.5699 156.806 52.5086 156.536 51.502C156.117 50.5037 155.457 49.6246 154.616 48.9428C154.251 48.5961 153.859 48.2817 153.474 47.9527C153.017 47.8261 152.535 47.8192 152.074 47.9328L151.164 48.1766C150.823 48.2949 150.533 48.5251 150.339 48.8297C150.198 49.2641 150.166 49.7262 150.243 50.1762C150.51 50.5373 150.815 50.8695 151.151 51.1674C151.626 51.5102 152.048 51.9212 152.403 52.3871Z" fill="#00A99D"/>
</svg>
