<svg width="455" height="332" viewBox="0 0 455 332" fill="none" xmlns="http://www.w3.org/2000/svg">
<path d="M329.05 96.2592L290.47 84.8293C278.08 81.1493 265.63 76.6292 252.91 74.2992C245.39 72.9292 241.91 84.4192 249.5 85.8092C262.22 88.1392 274.68 92.6593 287.07 96.3293L325.64 107.769C333.04 109.959 336.46 98.4592 329.05 96.2592Z" fill="#FBB03B"/>
<path d="M286.99 36.0392C287.75 33.2992 289.1 30.0391 288.4 27.1991C287.53 23.6791 284.07 22.6592 281.08 21.5592C278.26 20.5092 275.4 19.5593 272.53 18.6393C271.343 18.2377 270.057 18.2377 268.87 18.6393C267.814 18.8042 266.831 19.2792 266.046 20.0038C265.261 20.7285 264.709 21.67 264.46 22.7092C263.64 25.5792 262.85 28.4493 262.13 31.3493C261.27 34.8293 261.13 38.3492 264.63 40.4792C267.17 42.0492 270.63 42.5791 273.5 43.4291C276.68 44.3691 280.28 45.9491 283.3 43.6991C285.7 41.8991 286.23 38.7692 286.99 36.0392Z" fill="#00A99D"/>
<path d="M404.67 46.8795C405.157 45.6685 405.172 44.3192 404.713 43.0975C404.254 41.8758 403.354 40.8703 402.19 40.2794C401.551 39.7791 400.821 39.4087 400.04 39.1893C393.39 37.2693 386.72 35.4593 380.04 33.7093C379.112 33.1363 378.028 32.8671 376.94 32.9393C376.043 32.7682 375.119 32.8201 374.247 33.0904C373.375 33.3607 372.583 33.8411 371.94 34.4893C368.73 36.7293 367.76 41.0495 366.69 45.4095C364.69 53.3595 362.43 61.2294 360.06 69.0694C355.59 83.8594 349.95 98.8494 348.13 114.269C347.896 115.534 348.173 116.84 348.901 117.901C349.628 118.962 350.746 119.691 352.01 119.929C352.261 120.071 352.522 120.194 352.79 120.299C359.449 123.003 366.298 125.215 373.28 126.92C376.35 127.66 379.9 126.14 380.74 122.92C387.33 97.1195 395.98 71.9795 404.67 46.8795Z" fill="#00A99D"/>
<path d="M373.15 128.959H373.06C372.967 128.788 372.857 128.627 372.73 128.479C368.195 123.56 362.765 119.549 356.73 116.659C358.426 116.514 360.13 116.484 361.83 116.569C366.04 116.829 370.19 117.569 374.38 117.409C373.97 118.849 373.57 120.289 373.17 121.719C372.47 124.199 376.3 125.339 377 122.859L393.8 63.0593L398.59 46.0092C398.689 45.6984 398.704 45.3668 398.631 45.0485C398.559 44.7303 398.404 44.4369 398.18 44.1992C398.081 43.9187 397.914 43.6671 397.694 43.4665C397.474 43.2659 397.208 43.1226 396.92 43.0493C378.767 37.8093 360.643 32.4759 342.55 27.0493C324.457 21.6226 306.387 16.1025 288.34 10.4892C278.173 7.31588 268.01 4.11937 257.85 0.899368C255.4 0.119368 254.26 3.95921 256.72 4.73921C274.72 10.4592 292.753 16.086 310.82 21.6193C328.28 26.9527 345.767 32.2127 363.28 37.3994C356.39 58.3994 350.65 79.6293 345.28 101.059C343.905 107.02 342.039 112.857 339.7 118.509C332.807 116.369 325.913 114.239 319.02 112.119C300.96 106.586 282.867 101.146 264.74 95.7993C255.02 92.9326 245.287 90.0892 235.54 87.2692L251.89 29.0593C253.49 23.3726 255.087 17.7059 256.68 12.0593C257.38 9.57928 253.54 8.43939 252.85 10.9194L236.05 70.7092L231.26 87.7092C231.16 88.0216 231.145 88.355 231.217 88.675C231.289 88.995 231.446 89.29 231.67 89.5293C231.769 89.8097 231.936 90.0613 232.156 90.2619C232.376 90.4625 232.642 90.6058 232.93 90.6792C251.077 95.9192 269.2 101.252 287.3 106.679C305.4 112.106 323.47 117.629 341.51 123.249C351.683 126.423 361.847 129.619 372 132.839C374.47 133.549 375.61 129.739 373.15 128.959ZM361.45 112.509C356.35 112.249 351.28 113.509 346.19 112.959H346.09C347.19 109.679 348.09 106.349 348.98 102.959C356.867 105.281 364.348 108.806 371.16 113.409C367.92 113.269 364.67 112.679 361.45 112.549V112.509ZM357.1 71.3693C357.231 71.4413 357.368 71.5015 357.51 71.5493C362.061 73.1423 366.715 74.4254 371.44 75.3894C372.44 75.5694 373.44 75.7093 374.44 75.8393C368.12 76.6993 361.767 77.2793 355.38 77.5793C355.947 75.5126 356.52 73.4427 357.1 71.3693ZM354.39 81.4492C354.445 81.4736 354.502 81.4937 354.56 81.5092C360.35 83.2485 365.991 85.4489 371.43 88.0893C365.264 87.4577 359.058 87.3204 352.87 87.6792H352.75C353.25 85.6092 353.79 83.5492 354.39 81.4492ZM381.1 93.5293C380.36 96.1426 379.627 98.7527 378.9 101.359C375.184 98.6524 371.196 96.3398 367 94.4592L361 91.5192C367.734 91.5914 374.448 92.2709 381.06 93.5493L381.1 93.5293ZM364.86 97.8293C366.74 98.7593 368.61 99.6792 370.44 100.679C363.65 99.9092 356.93 98.3193 350.05 98.8193C350.65 96.3493 351.23 93.8694 351.83 91.4094L364.86 97.8293ZM377.79 105.039H377.87L375.94 111.889C371.352 108.526 366.429 105.644 361.25 103.289C366.71 104.059 372.2 105.229 377.75 105.039H377.79ZM382.26 89.3994C376.749 86.1039 370.976 83.2676 365 80.9194C371.853 80.2994 378.663 79.3593 385.43 78.0993L382.26 89.3994ZM386.67 73.6992C382.36 71.9492 377.67 72.4094 373.08 71.6394C370.266 71.1382 367.485 70.4703 364.75 69.6394C373.417 66.8394 381.977 63.7326 390.43 60.3193C389.157 64.766 387.89 69.2258 386.63 73.6992H386.67ZM388.67 44.7692L394.34 46.4292L391.44 56.7392C391.03 56.4152 390.51 56.2645 389.99 56.3193C382.73 55.4193 375.437 54.8527 368.11 54.6193C370.041 53.4831 372.089 52.561 374.22 51.8693C378.952 50.0359 383.553 47.8809 387.99 45.4194C388.257 45.2661 388.475 45.0407 388.62 44.7692H388.67ZM367.14 38.4892L380.43 42.3693C375.363 42.9293 370.307 43.596 365.26 44.3693C365.83 42.3793 366.45 40.4292 367.09 38.4892H367.14ZM364.14 47.7893C364.391 47.9911 364.683 48.1367 364.995 48.216C365.307 48.2954 365.633 48.3066 365.95 48.2492C369.29 47.7592 372.64 47.2994 375.95 46.8894C374.78 47.3894 373.6 47.8893 372.4 48.2793C370.209 48.9692 368.108 49.9158 366.14 51.0993C364.84 51.9493 363.6 52.8594 362.28 53.6594C362.88 51.7094 363.48 49.7493 364.1 47.7893H364.14ZM361.19 58.5493C368.03 58.5493 374.853 58.8826 381.66 59.5493C373.933 62.4893 366.113 65.1559 358.2 67.5493C359.06 64.5493 359.93 61.5493 360.83 58.5493C360.949 58.564 361.07 58.564 361.19 58.5493ZM344.83 116.549C345.043 116.741 345.301 116.875 345.58 116.939C352.524 118.642 359.01 121.847 364.58 126.329C357.58 124.116 350.58 121.913 343.58 119.719C343.99 118.599 344.39 117.549 344.83 116.479V116.549Z" fill="#1E1E1E"/>
<path d="M282.27 43.6194L283.1 40.6194L284.81 34.4194C285.49 31.9394 281.66 30.7993 280.97 33.2793C280.18 36.1693 279.5 39.1392 278.61 42.0092C276.17 41.3592 273.75 40.4893 271.35 39.7693L266.98 38.4492L264.79 37.7893L263.69 37.4592C263.81 37.1392 263.95 36.7994 264 36.6394C264.28 35.8094 264.53 34.9694 264.78 34.1294C265.24 32.5094 265.647 30.8725 266 29.2192C266.54 26.6682 266.95 24.0916 267.23 21.4992L274 23.6394C276.45 24.4094 277.59 20.5793 275.13 19.7993L266.04 16.9292C265.744 16.8413 265.433 16.8229 265.129 16.8755C264.825 16.928 264.538 17.0501 264.289 17.2321C264.04 17.4142 263.837 17.6512 263.695 17.9248C263.553 18.1984 263.476 18.5011 263.47 18.8093C263.209 22.3988 262.671 25.9627 261.86 29.4692C261.44 31.2359 260.96 32.9926 260.42 34.7392C259.94 36.2292 258.95 38.0693 259.78 39.6093C260.61 41.1493 262.91 41.4094 264.45 41.8694L269.82 43.4892L275.19 45.0993L277.78 45.8794C278.669 46.2904 279.674 46.3754 280.62 46.1194C281.075 45.8649 281.462 45.505 281.749 45.07C282.036 44.635 282.215 44.1376 282.27 43.6194Z" fill="#1E1E1E"/>
<path d="M289.39 22.8893C289.265 22.6582 289.096 22.4538 288.893 22.288C288.689 22.1222 288.455 21.9982 288.203 21.923C287.951 21.8478 287.687 21.8227 287.426 21.8495C287.165 21.8763 286.911 21.9545 286.68 22.0793L281.85 24.4291C281.11 24.7891 280.38 25.1491 279.63 25.4291L279.1 25.6493C279.013 25.6671 278.929 25.6972 278.85 25.7392C278.44 25.8892 278.03 26.0093 277.61 26.1293C277.096 26.257 276.653 26.5835 276.379 27.0373C276.106 27.491 276.023 28.0347 276.15 28.5492C276.278 29.0635 276.604 29.5062 277.058 29.78C277.512 30.0537 278.056 30.1361 278.57 30.0092C280.318 29.4875 282.012 28.801 283.63 27.9592L288.63 25.5392C289.073 25.2793 289.398 24.8594 289.54 24.3661C289.681 23.8729 289.628 23.3442 289.39 22.8893Z" fill="#1E1E1E"/>
<path d="M295.59 77.9992L255.8 65.8393C253.34 65.0893 252.2 68.9291 254.67 69.6791L294.45 81.8293C296.92 82.5493 298.05 78.7492 295.59 77.9992Z" fill="#1E1E1E"/>
<path d="M276.18 85.1594C268.18 82.2594 260.034 79.7226 251.74 77.5493C249.26 76.8993 248.11 80.7294 250.61 81.3894C258.863 83.5627 267.01 86.0993 275.05 88.9993C277.47 89.8693 278.6 86.0294 276.18 85.1594Z" fill="#1E1E1E"/>
<path d="M322.73 98.8295C316.99 97.9195 311.45 95.9293 305.91 94.2093L289.01 88.9493C286.55 88.1893 285.41 92.0194 287.87 92.7894L304.78 98.0494C310.32 99.7694 315.85 101.75 321.6 102.67C322.108 102.803 322.647 102.737 323.108 102.486C323.569 102.235 323.916 101.818 324.08 101.319C324.155 101.067 324.18 100.803 324.153 100.541C324.126 100.279 324.047 100.026 323.922 99.7943C323.796 99.563 323.627 99.3588 323.422 99.1932C323.218 99.0277 322.983 98.904 322.73 98.8295Z" fill="#1E1E1E"/>
<path d="M131.15 38.2593C130.432 36.1432 129.261 34.2092 127.719 32.5926C126.177 30.9759 124.3 29.7156 122.22 28.8994C118.362 27.2204 114.186 26.398 109.98 26.4893C109.753 26.3213 109.493 26.2034 109.217 26.1431C108.942 26.0828 108.656 26.0816 108.38 26.1394C101.02 27.5494 93.45 31.6094 91.96 39.6094C90.42 47.7994 95.1399 55.9593 101.83 60.4593C108.52 64.9593 117.94 65.2394 124.53 60.1094C127.815 57.6004 130.314 54.2032 131.73 50.3194C132.98 46.5494 132.46 41.9493 131.15 38.2593ZM123.09 43.9493C122.17 46.8693 119.01 48.4193 116.09 48.2793C114.542 48.2428 113.053 47.6781 111.87 46.6792C111.192 46.0921 110.643 45.37 110.259 44.5591C109.875 43.7482 109.664 42.8662 109.64 41.9693C109.583 41.1213 109.696 40.2705 109.973 39.4668C110.249 38.6632 110.684 37.9229 111.25 37.2893C111.748 36.8056 112.35 36.4428 113.01 36.2293C113.821 35.7019 114.744 35.3706 115.706 35.2613C116.667 35.1519 117.641 35.2677 118.55 35.5994C121.92 36.7894 124.22 40.3893 123.09 43.9493Z" fill="#00A99D"/>
<path d="M164.24 139.049C163.897 138.338 163.383 137.723 162.745 137.259C162.106 136.795 161.362 136.496 160.58 136.389C158.943 136.169 157.29 136.089 155.64 136.149L149.64 136.089L126.25 135.829C117.67 135.739 109.09 135.619 100.51 135.549C91.93 135.479 83.5698 135.659 75.2798 137.259C74.9628 137.292 74.6626 137.418 74.416 137.62C74.1695 137.822 73.9875 138.092 73.8928 138.396C73.7981 138.701 73.7947 139.026 73.8831 139.332C73.9714 139.639 74.1476 139.912 74.3899 140.119L74.6599 159.929C74.6599 161.269 74.4098 163.009 75.5798 164.059C76.9898 165.319 79.4898 164.959 81.2998 164.989C85.0798 165.063 88.8599 165.119 92.6399 165.159C108.07 165.349 123.52 165.309 138.92 164.319C142.68 164.079 146.433 163.776 150.18 163.409C151.98 163.239 153.77 163.049 155.56 162.839C157.39 162.763 159.207 162.491 160.98 162.029C161.733 161.779 162.394 161.311 162.88 160.685C163.366 160.058 163.655 159.301 163.71 158.509C163.93 156.839 163.97 155.129 164.07 153.449C164.28 150.069 164.42 146.669 164.52 143.279C164.718 141.865 164.623 140.425 164.24 139.049Z" fill="#FBB03B"/>
<path d="M161.26 44.7092C161.413 34.0426 161.59 23.3926 161.79 12.7593C161.79 10.1793 157.79 10.1793 157.79 12.7593C157.43 31.6526 157.16 50.5425 156.98 69.4292C156.8 88.3159 156.72 107.209 156.74 126.109C156.74 127.049 156.74 127.999 156.74 128.949L91.9301 129.099H72.9301C72.6694 129.099 72.4112 129.15 72.17 129.249C72.29 120.489 72.3934 111.733 72.4801 102.979C72.6534 84.0926 72.7301 65.1993 72.7101 46.2993C72.7101 36.1593 72.6733 26.0194 72.6 15.8794L133.06 15.0193L150.77 14.7693C153.34 14.7693 153.35 10.7693 150.77 10.7693L88.66 11.6494L70.9601 11.8994C70.6319 11.8919 70.3077 11.9723 70.0211 12.1323C69.7345 12.2923 69.4958 12.526 69.33 12.8093C69.0888 12.9824 68.8947 13.213 68.7655 13.4802C68.6363 13.7474 68.576 14.0429 68.59 14.3394C68.7166 33.2394 68.7467 52.1326 68.6801 71.0193C68.6134 89.906 68.4501 108.799 68.1901 127.699C68.0501 138.366 67.8734 149.033 67.66 159.699C67.66 162.269 71.66 162.269 71.66 159.699L71.7501 154.599C72.0088 154.558 72.2568 154.466 72.4801 154.329C76.8301 151.729 80.19 147.949 83.6 144.279C84.97 142.809 86.38 141.279 87.9 139.959C84.7649 145.529 82.301 151.45 80.5599 157.599H78.63C76.06 157.599 76.05 161.599 78.63 161.599L140.73 160.719L158.44 160.469C158.767 160.476 159.09 160.396 159.376 160.238C159.662 160.08 159.901 159.849 160.07 159.569C160.309 159.392 160.501 159.159 160.63 158.89C160.758 158.622 160.82 158.327 160.81 158.029C160.677 139.143 160.643 120.249 160.71 101.349C160.777 82.4494 160.96 63.5692 161.26 44.7092ZM156.77 132.949C156.77 135.239 156.77 137.539 156.77 139.829L156.67 139.999C155.21 143.159 153.59 146.229 151.84 149.219L152.07 133.629C152.073 133.4 152.032 133.173 151.95 132.959L156.77 132.949ZM86.0499 153.749C88.4894 146.984 91.8547 140.59 96.0499 134.749C96.2082 134.515 96.3067 134.246 96.3363 133.966C96.366 133.685 96.3261 133.401 96.2201 133.139H105.3L105.06 133.309C97.6899 139.049 92.7999 147.379 86.0499 153.749ZM108.17 135.659C108.41 135.239 108.49 134.746 108.394 134.272C108.299 133.797 108.034 133.374 107.65 133.079H116.55C112.375 140.245 107.53 146.998 102.08 153.249C102.79 147.009 104.87 141.003 108.17 135.659ZM129.8 133.509C129.815 133.343 129.815 133.176 129.8 133.009H135.65C133.728 136.375 132.057 139.878 130.65 143.489C130.017 145.009 129.383 146.529 128.75 148.049C128.756 143.197 129.107 138.352 129.8 133.549V133.509ZM113.99 152.929C114.165 150.336 114.805 147.795 115.88 145.429C117.45 141.709 119.41 138.149 120.41 134.219C120.511 133.826 120.49 133.411 120.35 133.029H125.35C123.007 136.554 120.979 140.279 119.29 144.159C117.924 147.307 116.142 150.257 113.99 152.929ZM110.51 149.179C109.823 151.799 109.798 154.548 110.44 157.179L103.82 157.269C106.15 154.669 108.39 151.959 110.51 149.179ZM122.26 147.179C123.19 145.289 124.06 143.339 125.01 141.429C124.665 146.622 124.705 151.833 125.13 157.019L115.39 157.159C118.26 154.257 120.587 150.863 122.26 147.139V147.179ZM134.35 144.999C134.92 143.619 135.51 142.239 136.13 140.869L135.74 156.869L129.36 156.959C131.02 152.953 132.697 148.953 134.39 144.959L134.35 144.999ZM140.35 132.999H148.21L139.96 148.999L140.35 132.999ZM72.0699 141.109C72.3419 141.081 72.6064 141.003 72.85 140.879C73.33 140.639 73.8499 140.399 74.2799 140.149C73.428 141.468 72.6697 142.845 72.0101 144.269L72.0699 141.109ZM73.0199 133.109H79.2899L72.14 136.729C72.14 135.479 72.1901 134.219 72.2001 132.969C72.4492 133.08 72.7176 133.141 72.9901 133.149L73.0199 133.109ZM75.0199 147.549C76.9808 142.302 80.5155 137.79 85.14 134.629C85.4058 134.462 85.6286 134.235 85.7902 133.965C85.9517 133.696 86.0475 133.393 86.0699 133.079H90.9C84.44 136.549 80.3201 142.819 74.9401 147.549H75.0199ZM87.85 157.469C92.37 153.339 96.08 148.389 100.11 143.749C98.6895 148.139 97.9279 152.716 97.85 157.329H96.4801L87.85 157.469ZM140.45 156.729L148.04 142.049C147.967 146.803 147.9 151.559 147.84 156.319C147.825 156.419 147.825 156.52 147.84 156.619L140.45 156.729ZM152.05 156.559C153.79 153.953 155.41 151.286 156.91 148.559C156.91 151.219 156.91 153.879 156.91 156.559H152.05Z" fill="#1E1E1E"/>
<path d="M137.11 34.8094C135.02 30.3894 132.19 26.4692 127.23 25.1892C121.755 23.9539 116.151 23.3832 110.54 23.4893C107.96 23.4893 107.96 27.4893 110.54 27.4893C114.789 27.5075 119.031 27.8418 123.23 28.4893C125.021 28.6562 126.77 29.1299 128.4 29.8894C129.872 30.8091 131.081 32.0941 131.91 33.6194C133.8 36.6994 135.41 40.2194 135.5 43.8994C135.53 47.0554 134.599 50.1456 132.83 52.7593C132.361 53.4669 131.836 54.1357 131.26 54.7593C127.18 45.5593 111.26 47.0993 107.75 56.2193C104.945 54.2098 102.865 51.3476 101.82 48.0594C99.8799 41.8894 102.82 34.2594 109.16 32.0594C111.57 31.2194 110.53 27.3492 108.09 28.1992C104.62 29.499 101.676 31.9084 99.7161 35.053C97.756 38.1976 96.8891 41.9015 97.2501 45.5894C98.1201 53.4394 103.87 59.9094 111.16 62.5894C118.89 65.4294 128.26 63.7392 133.99 57.6792C136.703 54.8365 138.519 51.2578 139.21 47.3894C139.824 43.0799 139.09 38.6859 137.11 34.8094ZM111.3 58.2493C111.883 56.6656 112.921 55.2899 114.284 54.2952C115.647 53.3005 117.274 52.7313 118.96 52.6595C122.73 52.3495 126.89 53.3592 127.96 57.4292C125.443 58.8647 122.622 59.6872 119.728 59.8296C116.833 59.9721 113.946 59.4306 111.3 58.2493Z" fill="#1E1E1E"/>
<path d="M117.99 43.7794H118.17C118.111 43.7672 118.049 43.7672 117.99 43.7794Z" fill="#1E1E1E"/>
<path d="M121.33 35.5492C119.832 34.6422 118.057 34.305 116.33 34.5993C115.646 34.7425 115.004 35.0428 114.455 35.4767C113.907 35.9106 113.467 36.4661 113.17 37.0993C112.975 37.3185 112.808 37.5602 112.67 37.8192C112.316 38.5029 112.105 39.2514 112.05 40.0192C111.994 41.4207 112.341 42.809 113.05 44.0192C113.605 45.287 114.515 46.3672 115.67 47.1293C116.923 47.7857 118.366 47.9836 119.75 47.6891C121.061 47.4307 122.273 46.8108 123.25 45.8993C124.317 44.8755 124.956 43.4855 125.04 42.0092C125.092 40.6923 124.772 39.3876 124.116 38.2448C123.46 37.102 122.494 36.1676 121.33 35.5492ZM120.96 42.4093C120.93 42.4909 120.89 42.5682 120.84 42.6393L120.78 42.7492C120.66 42.9292 120.68 42.8991 120.85 42.6791C120.85 42.8191 120.57 42.9893 120.46 43.0893L120.33 43.2091H120.24C120.07 43.3191 119.88 43.4292 119.69 43.5292L119.55 43.5792H119.46C119.27 43.6431 119.076 43.6964 118.88 43.7392H119H118.83H118.21H118.29H118.18H118.12C118.03 43.7392 117.98 43.7392 118 43.7392H117.93C117.93 43.7392 117.93 43.7392 117.8 43.7392H117.73L117.61 43.6693H117.54C117.45 43.6093 117.45 43.5893 117.54 43.5993C117.54 43.5993 117.38 43.3793 117.37 43.3793V43.3192L117.14 42.9491C116.88 42.5673 116.656 42.1623 116.47 41.7392C116.47 41.7392 116.47 41.6793 116.47 41.6593C116.47 41.6393 116.37 41.3691 116.33 41.2191L116.24 40.8593C116.251 40.6594 116.251 40.459 116.24 40.2592C116.262 40.1904 116.278 40.1203 116.29 40.0492C116.535 39.8688 116.728 39.6275 116.85 39.3493C117.017 39.1662 117.146 38.952 117.23 38.7191H117.28C117.36 38.6691 117.38 38.7191 117.37 38.7191H117.43H118.07H118.24L118.83 38.8893H118.91H118.97L119.15 38.9691L119.68 39.2592L119.9 39.4093L120.03 39.4992L120.13 39.5792L120.32 39.7592L120.66 40.0792C120.66 40.0792 120.66 40.0791 120.73 40.2191C120.793 40.3088 120.849 40.4024 120.9 40.4992C120.95 40.5692 120.98 40.6491 121.03 40.7291L121.08 40.8292C121.08 40.9992 121.18 41.2092 121.19 41.2492V41.4391C121.19 41.4391 121.19 41.4892 121.19 41.5092C121.19 41.6992 121.19 41.8892 121.19 42.0792C121.19 42.2692 121.19 42.2192 121.14 42.2892C121.09 42.3592 120.98 42.3093 120.96 42.3893V42.4093Z" fill="#1E1E1E"/>
<path d="M117.72 43.6792L117.87 43.7292C117.825 43.6999 117.774 43.6826 117.72 43.6792Z" fill="#1E1E1E"/>
<path d="M117.23 38.4692L117.09 38.5293C117.17 38.5493 117.22 38.5492 117.23 38.4692Z" fill="#1E1E1E"/>
<path d="M117.46 43.4893L117.58 43.5994C117.55 43.5494 117.5 43.4893 117.46 43.4893Z" fill="#1E1E1E"/>
<path d="M138.99 97.8092C138.832 97.3147 138.506 96.8905 138.07 96.6093L137.82 96.4291C137.173 95.9101 136.583 95.3234 136.06 94.6791C135.618 94.0727 135.233 93.4266 134.91 92.7491C134.648 92.2993 134.221 91.9694 133.72 91.8292C133.197 91.694 132.642 91.7656 132.17 92.0292C131.722 92.2953 131.396 92.7258 131.26 93.2291C131.26 93.4091 131.26 93.5792 131.18 93.7592C131.19 94.0692 131.269 94.3733 131.41 94.6493C131.18 95.1893 130.73 95.9492 130.01 95.7892C129.29 95.6292 129.34 95.0392 129.41 94.5392C129.41 94.1009 129.267 93.6745 129.001 93.3258C128.736 92.9771 128.363 92.7254 127.94 92.6093C125.89 92.2893 124.51 93.1592 123.06 94.5292C122.865 94.7426 122.647 94.9339 122.41 95.0992H122.33C122.23 94.7692 122.05 94.3491 122 94.2091C121.859 93.7805 121.624 93.3887 121.314 93.0616C121.003 92.7346 120.623 92.4806 120.202 92.318C119.781 92.1554 119.33 92.0882 118.88 92.1212C118.43 92.1543 117.993 92.2868 117.6 92.5092C116.838 92.9868 116.133 93.5504 115.5 94.1891L114.5 95.0792L114.37 95.1891L114.12 94.7291C113.815 94.0774 113.544 93.4097 113.31 92.7291C113.216 92.3925 113.036 92.0863 112.788 91.8409C112.539 91.5956 112.23 91.4197 111.892 91.3307C111.555 91.2417 111.2 91.2426 110.862 91.3336C110.525 91.4246 110.217 91.6024 109.97 91.8492L106.41 94.6393C105.15 92.9793 103.59 91.1393 101.54 91.8693C100.445 92.4304 99.4345 93.144 98.5399 93.9891L95.1801 96.5492C94.7359 96.8304 94.4154 97.2701 94.2836 97.7789C94.1517 98.2878 94.2184 98.8277 94.4701 99.2892C94.7373 99.746 95.1745 100.078 95.6862 100.213C96.1979 100.348 96.7424 100.275 97.2001 100.009L100.37 97.5892C101.02 97.0992 101.67 96.5092 102.37 96.0192C103.19 96.9092 103.92 97.9692 104.66 98.8492C104.846 99.0352 105.066 99.1827 105.309 99.2833C105.552 99.384 105.812 99.4357 106.075 99.4357C106.338 99.4357 106.598 99.384 106.841 99.2833C107.084 99.1827 107.304 99.0352 107.49 98.8492L110.49 96.5092C111.13 97.9492 112.01 99.3191 113.34 99.6791C113.91 99.8006 114.501 99.7726 115.057 99.5973C115.612 99.422 116.113 99.1055 116.51 98.6791C116.97 98.2891 117.42 97.8891 117.87 97.4891C117.96 97.4191 118.34 97.1392 118.7 96.8492C118.795 97.1328 118.916 97.4073 119.06 97.6693C119.348 98.1527 119.752 98.5559 120.236 98.8424C120.72 99.1289 121.268 99.2895 121.83 99.3092C122.893 99.3042 123.925 98.9531 124.77 98.3092C125.22 97.9785 125.645 97.614 126.04 97.2191C126.371 97.8196 126.824 98.3441 127.37 98.7592C127.916 99.1742 128.543 99.4707 129.21 99.6293C130.055 99.7871 130.926 99.7326 131.744 99.4708C132.563 99.209 133.304 98.7481 133.9 98.1293C134.574 98.83 135.318 99.4599 136.12 100.009C136.35 100.145 136.604 100.234 136.869 100.27C137.133 100.306 137.402 100.289 137.66 100.219C138.161 100.073 138.589 99.7449 138.86 99.2992C139.087 98.8358 139.133 98.3048 138.99 97.8092Z" fill="#1E1E1E"/>
<path d="M133.12 111.419C122.695 110.576 112.228 110.392 101.78 110.869C99.2199 110.989 99.1999 114.989 101.78 114.869C112.228 114.392 122.695 114.576 133.12 115.419C135.68 115.629 135.67 111.629 133.12 111.419Z" fill="#1E1E1E"/>
<path d="M125.5 118.819L111.95 119.069C111.42 119.069 110.911 119.28 110.536 119.655C110.161 120.03 109.95 120.539 109.95 121.069C109.95 121.6 110.161 122.109 110.536 122.484C110.911 122.859 111.42 123.069 111.95 123.069L125.5 122.819C126.031 122.819 126.539 122.609 126.914 122.234C127.289 121.859 127.5 121.35 127.5 120.819C127.5 120.289 127.289 119.78 126.914 119.405C126.539 119.03 126.031 118.819 125.5 118.819Z" fill="#00A99D"/>
<path d="M125.79 81.4391L124.45 82.7492L123.72 81.6791C123.05 80.6791 121.46 80.2092 120.58 81.2692C120.13 81.8192 119.66 82.3393 119.18 82.8493C119.044 82.5594 118.923 82.2622 118.82 81.9591C118.727 81.6206 118.547 81.3125 118.298 81.0656C118.049 80.8186 117.739 80.6416 117.399 80.5524C117.06 80.4632 116.702 80.4651 116.364 80.5575C116.025 80.65 115.717 80.8299 115.47 81.0793C114.741 81.8454 114.053 82.6498 113.41 83.4892C112.89 82.9592 112.41 82.4093 111.9 81.8493C111.587 81.5379 111.18 81.3384 110.743 81.2824C110.305 81.2263 109.861 81.3167 109.48 81.5392C108.306 82.4098 107.184 83.3481 106.12 84.3493C104.25 86.1293 107.12 88.9591 108.95 87.1791C109.377 86.7658 109.817 86.3658 110.27 85.9792C110.92 86.6592 111.57 87.3192 112.27 87.9792C112.486 88.1955 112.749 88.3594 113.038 88.4584C113.327 88.5574 113.635 88.5888 113.938 88.5502C114.242 88.5116 114.532 88.4041 114.787 88.2357C115.042 88.0674 115.255 87.8428 115.41 87.5793C115.73 87.0893 116.08 86.6293 116.41 86.1593C116.61 86.4893 116.83 86.8093 117.06 87.1593C117.215 87.4229 117.428 87.6473 117.683 87.8156C117.938 87.9839 118.229 88.0917 118.532 88.1303C118.835 88.1689 119.143 88.1375 119.432 88.0385C119.721 87.9395 119.984 87.7756 120.2 87.5592C120.75 87.0492 121.27 86.5592 121.78 85.9892C122 86.2892 122.21 86.5993 122.42 86.9093C122.575 87.1729 122.788 87.3973 123.043 87.5656C123.298 87.7339 123.588 87.8417 123.892 87.8803C124.195 87.9189 124.503 87.8875 124.792 87.7885C125.081 87.6895 125.344 87.5256 125.56 87.3092L128.61 84.3092C130.46 82.4692 127.64 79.6391 125.79 81.4391Z" fill="#FBB03B"/>
<path d="M211.2 147.549C211.186 148.335 211.368 149.113 211.73 149.811C212.091 150.509 212.62 151.107 213.27 151.549C214.635 152.481 216.077 153.294 217.58 153.979L222.88 156.719L243.67 167.439C251.29 171.379 258.91 175.339 266.54 179.249C274.17 183.159 281.73 186.759 289.86 189.049C290.158 189.158 290.482 189.178 290.791 189.106C291.1 189.035 291.382 188.875 291.603 188.646C291.823 188.417 291.972 188.129 292.032 187.818C292.092 187.506 292.06 187.183 291.94 186.889L300.59 169.069C301.18 167.859 302.2 166.419 301.59 164.959C300.89 163.199 298.5 162.399 296.89 161.559C293.557 159.813 290.207 158.066 286.84 156.319C273.14 149.229 259.31 142.319 245.11 136.319C241.643 134.846 238.153 133.429 234.64 132.069C232.95 131.429 231.27 130.789 229.58 130.169C227.905 129.427 226.16 128.853 224.37 128.459C223.587 128.35 222.789 128.475 222.078 128.818C221.366 129.162 220.771 129.708 220.37 130.389C219.43 131.779 218.63 133.279 217.78 134.739C216.08 137.679 214.413 140.643 212.78 143.629C211.983 144.81 211.445 146.146 211.2 147.549Z" fill="#00A99D"/>
<path d="M171.51 233.179C166.603 242.626 161.663 252.066 156.69 261.499C155.49 263.769 159.07 265.569 160.27 263.289C169.07 246.583 177.793 229.823 186.44 213.009C195.087 196.196 203.637 179.349 212.09 162.469L213.35 159.929L271.35 188.879L288.35 197.349C288.584 197.468 288.839 197.539 289.1 197.559C285.06 205.319 281.036 213.096 277.03 220.889C268.396 237.689 259.847 254.536 251.38 271.429C246.84 280.496 242.323 289.576 237.83 298.669L183.39 272.289L167.39 264.549C165.08 263.429 163.27 266.999 165.59 268.119L221.48 295.219L237.42 302.939C237.709 303.093 238.034 303.168 238.361 303.154C238.688 303.139 239.005 303.038 239.28 302.859C239.57 302.817 239.845 302.703 240.08 302.529C240.316 302.354 240.505 302.124 240.63 301.859C248.997 284.919 257.45 268.023 265.99 251.169C274.53 234.316 283.157 217.506 291.87 200.739C296.777 191.286 301.717 181.846 306.69 172.419C307.89 170.149 304.31 168.349 303.11 170.629C302.32 172.129 301.54 173.629 300.74 175.149C300.492 175.067 300.23 175.036 299.97 175.059C294.92 175.429 290.21 177.289 285.52 179.059C283.64 179.759 281.71 180.459 279.74 180.989C285.04 177.417 289.901 173.231 294.22 168.519L295.96 169.359C298.27 170.479 300.07 166.909 297.75 165.789L241.86 138.689L225.93 130.969C225.641 130.814 225.316 130.739 224.989 130.753C224.661 130.767 224.344 130.87 224.07 131.049C223.78 131.092 223.505 131.206 223.27 131.38C223.034 131.555 222.845 131.784 222.72 132.049C214.347 148.989 205.893 165.886 197.36 182.739C188.827 199.593 180.21 216.406 171.51 233.179ZM215.13 156.349C216.13 154.299 217.13 152.239 218.2 150.179C218.26 150.152 218.317 150.118 218.37 150.079C221.09 147.909 223.91 145.899 226.82 144.009L219.62 157.839C219.511 158.041 219.443 158.262 219.42 158.489L215.13 156.349ZM287.67 169.499C282.455 174.466 276.58 178.69 270.21 182.049C269.961 182.183 269.749 182.378 269.595 182.616C269.441 182.854 269.35 183.127 269.33 183.409L261.21 179.349H261.5C270.66 177.409 278.77 172.159 287.67 169.549V169.499ZM259.78 175.739C259.378 176.006 259.085 176.408 258.957 176.873C258.828 177.338 258.872 177.834 259.08 178.269L251.08 174.269C258.036 169.746 265.402 165.886 273.08 162.739C269.658 167.999 265.117 172.439 259.78 175.739ZM239.48 167.949C239.383 168.084 239.3 168.229 239.23 168.379L234 165.769C237.231 163.625 240.299 161.245 243.18 158.649L246.93 155.429C244.752 159.777 242.262 163.961 239.48 167.949ZM262.33 157.689C261.006 159.929 259.293 161.914 257.27 163.549C254.2 166.169 250.86 168.459 248.19 171.549C247.927 171.857 247.763 172.237 247.72 172.639L243.25 170.409C246.926 168.31 250.409 165.89 253.66 163.179C256.292 160.971 259.208 159.125 262.33 157.689ZM263.75 162.609C265.543 160.573 266.801 158.123 267.41 155.479L273.41 158.369C270.11 159.649 266.91 161.079 263.75 162.609ZM252.39 159.149C250.71 160.429 249.05 161.779 247.39 163.059C250.029 158.569 252.332 153.89 254.28 149.059L263.05 153.309C259.175 154.602 255.565 156.58 252.39 159.149ZM240.61 155.669C239.47 156.669 238.33 157.669 237.16 158.569C239.68 153.856 242.193 149.146 244.7 144.439L250.43 147.219C247.13 150.039 243.84 152.856 240.56 155.669H240.61ZM229.9 163.669L222.9 160.149L237.44 149.599L229.9 163.669ZM294.56 187.069C294.306 186.965 294.034 186.914 293.76 186.919H292.15C293.505 186.136 294.799 185.25 296.02 184.269C295.48 185.229 294.99 186.159 294.51 187.099L294.56 187.069ZM290.14 193.739L284.53 190.939H292.53C291.95 192.059 291.36 193.169 290.78 194.279C290.592 194.059 290.356 193.884 290.09 193.769L290.14 193.739ZM294.88 179.959C290.774 183.767 285.59 186.212 280.04 186.959C279.724 186.992 279.42 187.1 279.154 187.274C278.888 187.448 278.667 187.683 278.51 187.959L274.19 185.799C281.39 185.549 287.88 181.839 294.83 179.989L294.88 179.959ZM287.88 165.339C281.99 166.999 276.46 169.759 270.77 172.099C274.009 168.811 276.743 165.06 278.88 160.969L280.12 161.579L287.88 165.339ZM240.55 142.339L227.17 152.049L233.76 139.399C233.807 139.306 233.847 139.209 233.88 139.109L240.55 142.339ZM230.1 137.279C227.38 138.829 224.73 140.509 222.16 142.279L225.71 135.139L230.1 137.279Z" fill="#1E1E1E"/>
<path d="M233.73 260.609C233.815 260.098 233.715 259.574 233.45 259.129L233.31 258.849C232.962 258.097 232.697 257.309 232.52 256.499C232.397 255.759 232.343 255.009 232.36 254.259C232.329 253.739 232.096 253.251 231.71 252.899C231.304 252.546 230.778 252.363 230.24 252.389C229.718 252.423 229.229 252.66 228.88 253.049L228.58 253.489C228.446 253.767 228.377 254.071 228.38 254.379C227.94 254.759 227.19 255.239 226.62 254.769C226.05 254.299 226.36 253.769 226.62 253.379C226.816 252.988 226.877 252.543 226.796 252.114C226.715 251.684 226.495 251.292 226.17 250.999C224.49 249.789 222.86 249.999 220.96 250.529C220.688 250.629 220.407 250.699 220.12 250.739H220.03C220.09 250.399 220.12 249.939 220.14 249.799C220.206 249.352 220.171 248.895 220.039 248.463C219.907 248.03 219.681 247.633 219.377 247.298C219.073 246.963 218.699 246.7 218.281 246.527C217.863 246.355 217.412 246.277 216.96 246.299C216.064 246.382 215.181 246.57 214.33 246.859L213.02 247.189H212.85C212.85 247.009 212.85 246.829 212.85 246.659C212.861 245.943 212.918 245.228 213.02 244.519C213.089 244.175 213.067 243.819 212.955 243.486C212.843 243.153 212.645 242.856 212.381 242.624C212.118 242.391 211.798 242.233 211.453 242.164C211.109 242.094 210.753 242.117 210.42 242.229L205.99 243.139C205.61 241.079 205.04 238.739 202.88 238.479C201.65 238.485 200.428 238.667 199.25 239.019L195.1 239.799C194.576 239.85 194.091 240.098 193.743 240.494C193.396 240.89 193.212 241.403 193.23 241.929C193.266 242.456 193.509 242.948 193.906 243.297C194.304 243.645 194.823 243.822 195.35 243.789L199.27 243.059C200.07 242.909 200.91 242.679 201.75 242.549C202.09 243.709 202.26 244.989 202.53 246.109C202.612 246.359 202.743 246.59 202.915 246.789C203.087 246.988 203.297 247.151 203.532 247.269C203.767 247.387 204.022 247.457 204.285 247.476C204.547 247.495 204.81 247.462 205.06 247.379L208.77 246.619C208.7 248.199 208.87 249.809 209.89 250.729C210.351 251.092 210.899 251.328 211.48 251.414C212.06 251.5 212.653 251.433 213.2 251.219L214.94 250.779L215.94 250.579C215.91 250.872 215.91 251.167 215.94 251.459C215.983 252.022 216.165 252.566 216.471 253.041C216.776 253.516 217.195 253.907 217.69 254.179C218.616 254.647 219.665 254.812 220.69 254.649C221.244 254.558 221.789 254.42 222.32 254.239C222.342 254.925 222.509 255.598 222.808 256.215C223.108 256.832 223.535 257.378 224.06 257.819C224.744 258.341 225.548 258.685 226.398 258.82C227.248 258.954 228.118 258.875 228.93 258.589C229.215 259.519 229.593 260.417 230.06 261.269C230.361 261.715 230.824 262.027 231.35 262.139C231.862 262.24 232.393 262.135 232.83 261.849C233.054 261.712 233.249 261.532 233.403 261.319C233.558 261.106 233.669 260.865 233.73 260.609Z" fill="#1E1E1E"/>
<path d="M222.39 270.139C213.457 264.705 204.188 259.842 194.64 255.579C192.3 254.579 190.49 258.1 192.85 259.16C202.398 263.418 211.667 268.278 220.6 273.709C222.78 275.049 224.56 271.469 222.39 270.139Z" fill="#1E1E1E"/>
<path d="M212.25 273.329L200.03 267.469C199.556 267.233 199.009 267.194 198.506 267.361C198.004 267.527 197.588 267.887 197.35 268.359C197.231 268.594 197.159 268.849 197.139 269.111C197.119 269.373 197.151 269.637 197.232 269.887C197.314 270.136 197.444 270.368 197.615 270.567C197.787 270.767 197.996 270.931 198.23 271.049L210.46 276.909C210.934 277.146 211.482 277.185 211.984 277.018C212.486 276.851 212.902 276.492 213.14 276.019C213.259 275.784 213.33 275.528 213.349 275.266C213.369 275.003 213.336 274.739 213.254 274.489C213.171 274.24 213.04 274.008 212.867 273.809C212.695 273.61 212.486 273.447 212.25 273.329Z" fill="#1E1E1E"/>
<path d="M229.29 240.059L227.51 240.63L227.33 239.339C227.17 238.179 225.97 237.009 224.7 237.569C224.06 237.849 223.41 238.109 222.75 238.359C222.75 238.039 222.75 237.719 222.82 237.359C222.889 237.016 222.866 236.661 222.754 236.33C222.642 235.998 222.446 235.702 222.184 235.47C221.921 235.238 221.603 235.079 221.26 235.009C220.917 234.938 220.562 234.959 220.23 235.069C219.233 235.426 218.255 235.833 217.3 236.289C217.08 235.589 216.88 234.87 216.69 234.15C216.553 233.734 216.283 233.374 215.921 233.127C215.56 232.879 215.128 232.757 214.69 232.779C213.25 233.038 211.825 233.372 210.42 233.779C207.95 234.529 209.22 238.329 211.68 237.579C212.25 237.409 212.82 237.249 213.4 237.099C213.67 237.999 213.96 238.879 214.3 239.759C214.401 240.047 214.567 240.309 214.784 240.523C215.002 240.737 215.265 240.898 215.555 240.995C215.844 241.092 216.152 241.12 216.455 241.079C216.757 241.039 217.046 240.929 217.3 240.759C217.81 240.459 218.3 240.199 218.85 239.949C218.88 240.332 218.931 240.712 219 241.089C219.02 241.394 219.109 241.69 219.261 241.955C219.413 242.219 219.623 242.446 219.876 242.617C220.129 242.787 220.418 242.898 220.72 242.94C221.022 242.982 221.33 242.955 221.62 242.859C222.34 242.646 223.05 242.416 223.75 242.17L223.9 243.269C223.918 243.576 224.006 243.874 224.158 244.141C224.31 244.408 224.521 244.637 224.776 244.809C225.03 244.981 225.32 245.092 225.625 245.134C225.929 245.176 226.239 245.147 226.53 245.049L230.59 243.759C233 243.069 231.74 239.279 229.29 240.059Z" fill="#00A99D"/>
<path d="M272.19 209.609C271.41 204.479 266.71 199.929 263.32 196.279C259.384 192.123 254.959 188.46 250.14 185.369C243.69 181.169 236.14 177.899 228.72 179.639C225.085 179.93 221.592 181.183 218.6 183.269C217.818 183.797 217.165 184.494 216.689 185.309C216.213 186.124 215.927 187.036 215.852 187.977C215.777 188.917 215.915 189.862 216.256 190.742C216.597 191.622 217.131 192.414 217.82 193.059C221.82 197.059 227.24 199.619 232.02 202.479L248.3 212.209C252.74 214.869 258.03 219.459 263.46 219.489C264.715 219.517 265.961 219.271 267.111 218.768C268.261 218.264 269.287 217.516 270.119 216.576C270.95 215.635 271.566 214.524 271.924 213.321C272.281 212.118 272.372 210.851 272.19 209.609Z" fill="#FBB03B"/>
<path d="M254.39 204.419L251.39 205.179C250.86 205.309 250.28 205.509 249.71 205.629C249.678 205.576 249.651 205.519 249.63 205.459C249.54 205.209 249.46 204.949 249.37 204.689C249.17 204.049 248.97 203.409 248.78 202.759C248.43 201.519 248.12 200.279 247.84 199.029C247.719 198.657 247.477 198.337 247.153 198.117C246.828 197.898 246.44 197.793 246.05 197.819L242.55 198.349L240.81 198.619L239.96 198.749C239.862 198.429 239.745 198.116 239.61 197.809C239.42 197.279 239.24 196.749 239.06 196.209C238.69 195.149 238.32 194.089 237.96 193.019C237.801 192.581 237.48 192.221 237.063 192.013C236.647 191.804 236.166 191.764 235.72 191.899L230.03 193.399L229.22 193.609C229.22 193.349 229.11 192.999 229.1 192.909C228.95 191.909 228.82 190.909 228.66 189.909C228.638 189.446 228.512 188.994 228.292 188.585C228.073 188.177 227.764 187.823 227.39 187.549C226.484 187.109 225.445 187.027 224.48 187.319L218.2 188.229C215.96 188.549 216.2 192.079 218.42 191.759L222.32 191.199L224.06 190.949C224.38 190.949 224.78 190.799 225.18 190.739C225.59 193.099 225.18 196.509 227.9 197.189C229.28 197.529 230.96 196.769 232.29 196.429L235.06 195.689C235.34 196.499 235.61 197.309 235.89 198.109C236.32 199.369 236.62 201.019 237.76 201.829C238.9 202.639 240.33 202.239 241.61 202.049L244.74 201.559C244.98 202.559 245.23 203.489 245.51 204.439C245.89 205.719 246.19 207.509 247.16 208.439C248.13 209.369 249.67 209.169 251.01 208.829L255.46 207.719C257.68 207.219 256.55 203.869 254.39 204.419Z" fill="#1E1E1E"/>
<path d="M264.24 203.079C262.389 200.653 260.291 198.424 257.98 196.429C255.547 194.189 253.044 192.043 250.47 189.989C245.354 185.904 239.972 182.162 234.36 178.789C234.139 178.642 233.882 178.556 233.616 178.542C233.35 178.528 233.086 178.586 232.85 178.709C228.711 177.337 224.319 176.9 219.99 177.429C215.4 178.009 210.06 179.519 207.08 183.329C206.325 184.234 205.782 185.297 205.493 186.439C205.204 187.582 205.176 188.774 205.41 189.929C205.95 192.006 207.172 193.841 208.88 195.139C210.621 196.476 212.502 197.62 214.49 198.549L222.74 202.729L238.86 210.889C244 213.489 249.07 216.329 254.33 218.679C258.24 220.429 263.24 221.219 265.92 217.029C268.6 212.839 266.98 206.939 264.24 203.079ZM261.68 216.319C260.35 216.969 258.62 216.539 257.3 216.079C255.296 215.279 253.345 214.35 251.46 213.299L244.18 209.609L229.84 202.349L215.49 195.089C212.84 193.739 208.49 191.629 208.76 188.089C208.89 186.039 210.66 184.499 212.29 183.499C214.361 182.317 216.633 181.527 218.99 181.169C223.695 180.345 228.535 180.819 232.99 182.539C233.267 182.648 233.563 182.699 233.86 182.689C242.2 187.8 249.982 193.769 257.08 200.499C260.21 203.499 263.53 206.999 263.71 211.559C263.82 213.229 263.39 215.549 261.68 216.319Z" fill="#1E1E1E"/>
<path d="M429.75 212.059C426.36 207.269 419.31 205.059 414.03 203.059C407.951 200.848 401.624 199.39 395.19 198.719C386.55 197.719 377.19 198.309 370.65 203.799C367.126 205.938 364.234 208.975 362.27 212.599C361.749 213.53 361.444 214.566 361.378 215.63C361.313 216.695 361.488 217.76 361.89 218.748C362.293 219.736 362.913 220.62 363.704 221.335C364.495 222.05 365.437 222.578 366.46 222.879C372.46 224.879 379.29 224.729 385.57 225.189L406.95 226.759C412.79 227.189 420.45 229.139 425.95 226.419C427.225 225.81 428.351 224.931 429.253 223.843C430.154 222.754 430.808 221.483 431.169 220.118C431.531 218.752 431.591 217.324 431.346 215.932C431.101 214.541 430.556 213.219 429.75 212.059Z" fill="#00A99D"/>
<path d="M374.08 281.939C373.284 281.517 372.412 281.262 371.514 281.188C370.617 281.114 369.714 281.223 368.86 281.509C367.734 281.836 366.774 282.575 366.17 283.579C365.871 284.098 365.677 284.671 365.6 285.264C365.523 285.858 365.564 286.461 365.72 287.039C366.033 288.169 366.771 289.133 367.78 289.729L367.83 289.799C368.301 290.307 368.888 290.694 369.54 290.929C370.419 291.47 371.453 291.703 372.479 291.593C373.505 291.483 374.466 291.035 375.21 290.319C376.157 289.372 376.708 288.099 376.75 286.759C376.768 285.792 376.531 284.837 376.062 283.991C375.593 283.144 374.91 282.437 374.08 281.939Z" fill="#00A99D"/>
<path d="M394.59 285.479C394.582 284.529 394.316 283.599 393.82 282.789C393.403 282.14 392.842 281.596 392.18 281.199C391.514 280.625 390.718 280.22 389.862 280.02C389.005 279.82 388.112 279.83 387.26 280.049C386.464 280.266 385.728 280.662 385.108 281.206C384.487 281.75 383.999 282.428 383.68 283.189C383.229 284.221 383.14 285.375 383.427 286.464C383.714 287.553 384.36 288.513 385.26 289.189C386.39 290.024 387.738 290.514 389.14 290.599C389.934 290.668 390.732 290.533 391.46 290.209C392.171 289.971 392.813 289.562 393.33 289.019C394.003 288.31 394.437 287.408 394.57 286.439C394.61 286.121 394.617 285.799 394.59 285.479Z" fill="#00A99D"/>
<path d="M410 285.609C409.979 285.047 409.874 284.491 409.69 283.959C409.69 283.859 409.69 283.76 409.62 283.66L409.17 282.589C408.779 281.918 408.221 281.36 407.55 280.969L406.48 280.519C405.697 280.309 404.873 280.309 404.09 280.519C404.017 280.534 403.947 280.557 403.88 280.589C403.708 280.607 403.538 280.637 403.37 280.679C402.911 280.774 402.475 280.962 402.09 281.229C401.581 281.506 401.148 281.905 400.83 282.39C400.434 282.822 400.155 283.349 400.02 283.92C399.839 284.503 399.812 285.122 399.94 285.719C399.969 286.314 400.156 286.89 400.48 287.39C400.796 287.887 401.191 288.329 401.65 288.699C401.678 288.741 401.712 288.778 401.75 288.809C401.778 288.848 401.812 288.881 401.85 288.91L402.76 289.609C402.779 289.632 402.803 289.649 402.83 289.66C403.011 289.752 403.198 289.832 403.39 289.9L403.98 290.15C404.211 290.198 404.445 290.231 404.68 290.249C404.915 290.293 405.152 290.32 405.39 290.329L406.59 290.17C406.626 290.178 406.664 290.178 406.7 290.17C407.457 289.97 408.147 289.573 408.7 289.019C409.256 288.466 409.656 287.776 409.86 287.019L409.95 286.369C409.992 286.155 410.019 285.938 410.03 285.719C410.03 285.719 410 285.639 410 285.609Z" fill="#00A99D"/>
<path d="M409.11 215.859L406.43 218.159C405.96 218.569 405.48 219.069 404.96 219.479C404.899 219.442 404.842 219.398 404.79 219.349L404.15 218.699C403.61 218.159 403.09 217.599 402.57 217.039C401.57 215.979 400.64 214.879 399.72 213.759C399.409 213.446 399.002 213.245 398.564 213.187C398.127 213.129 397.682 213.218 397.3 213.439L394.04 215.759L392.42 216.919C392.15 217.099 391.89 217.289 391.63 217.479C391.365 217.203 391.085 216.943 390.79 216.699L389.43 215.369L386.7 212.699C386.319 212.335 385.812 212.133 385.285 212.133C384.758 212.133 384.251 212.335 383.87 212.699L378.87 217.099L378.15 217.729C377.97 217.489 377.73 217.169 377.68 217.089C377.02 216.149 376.38 215.199 375.68 214.269C375.44 213.838 375.112 213.462 374.718 213.166C374.323 212.869 373.871 212.66 373.39 212.549C372.19 212.389 371.26 213.149 370.39 213.789L364.5 217.889C362.4 219.349 364.4 222.819 366.5 221.349L370.15 218.799L371.78 217.669C372.07 217.459 372.43 217.149 372.78 216.889C374.4 219.059 375.68 222.729 378.78 222.019C380.35 221.669 381.66 220.019 382.78 219.019L385.21 216.869L387.28 218.869C388.35 219.919 389.49 221.439 391.06 221.679C392.63 221.919 393.86 220.789 395.06 219.949L397.98 217.869C398.71 218.719 399.45 219.569 400.22 220.379C401.22 221.479 402.46 223.139 403.93 223.629C405.61 224.199 406.84 223.099 408.02 222.079L411.95 218.699C413.89 217.009 411.05 214.189 409.11 215.859Z" fill="#1E1E1E"/>
<path d="M428.15 254.369H349.65C347.08 254.369 347.08 258.369 349.65 258.369H428.15C430.72 258.369 430.73 254.369 428.15 254.369Z" fill="#1E1E1E"/>
<path d="M375.77 288.599L375.88 288.519C375.86 288.479 375.79 288.549 375.77 288.599Z" fill="#1E1E1E"/>
<path d="M379.69 285.549C379.232 284.359 378.517 283.285 377.595 282.403C376.674 281.522 375.569 280.854 374.36 280.449C373.595 280.131 372.769 279.985 371.942 280.021C371.114 280.057 370.304 280.275 369.57 280.659C368.802 281.142 368.218 281.867 367.91 282.719C367.66 283.428 367.66 284.201 367.91 284.909C367.831 285.71 367.861 286.517 368 287.309C368.131 288.685 368.621 290.002 369.42 291.129C371.01 293.069 374.25 293.289 376.47 292.459C377.73 292.048 378.797 291.191 379.47 290.049C379.819 289.356 380.018 288.598 380.056 287.823C380.094 287.048 379.969 286.273 379.69 285.549ZM376.2 288.069V288.179L376.15 288.249C376.15 288.249 376.21 288.249 376.15 288.309L376.09 288.369C376.088 288.386 376.088 288.403 376.09 288.419L376 288.509H375.94C375.83 288.629 375.81 288.619 375.83 288.589L375.62 288.709H375.54C375.23 288.789 374.93 288.899 374.61 288.979H374.41C374.2 288.979 373.99 288.979 373.79 288.979H373.45C373.405 288.996 373.355 288.996 373.31 288.979L373.03 288.919L372.8 288.839H372.74C372.65 288.839 372.64 288.839 372.66 288.839L372.59 288.789L372.47 288.679V288.619L372.4 288.469C372.368 288.395 372.341 288.318 372.32 288.239C372.179 287.756 372.062 287.265 371.97 286.769C371.949 286.674 371.932 286.577 371.92 286.479C371.92 286.409 371.92 286.339 371.92 286.269C371.92 286.199 371.92 285.719 371.92 285.679C371.92 285.639 371.92 285.489 371.92 285.389C371.956 285.281 371.986 285.171 372.01 285.059C372.03 285.014 372.053 284.97 372.08 284.929C372.246 284.623 372.329 284.278 372.32 283.929H372.54H372.72H372.85L373.11 283.999L373.73 284.199L373.98 284.319C374.14 284.399 374.29 284.489 374.44 284.579C374.59 284.669 374.75 284.779 374.91 284.889L375.19 285.129L375.55 285.499L375.72 285.689C375.82 285.829 375.92 285.969 376.01 286.119C376.1 286.269 376.16 286.359 376.24 286.499C376.233 286.549 376.233 286.6 376.24 286.649C376.271 286.728 376.298 286.808 376.32 286.889C376.388 287.078 376.438 287.272 376.47 287.469C376.466 287.486 376.466 287.503 376.47 287.519C376.47 287.649 376.47 287.789 376.47 287.909L376.2 288.069Z" fill="#1E1E1E"/>
<path d="M376.01 288.389C376.034 288.345 376.064 288.304 376.1 288.269C376.057 288.298 376.026 288.34 376.01 288.389Z" fill="#1E1E1E"/>
<path d="M372.52 288.829L372.66 288.899C372.624 288.86 372.574 288.835 372.52 288.829Z" fill="#1E1E1E"/>
<path d="M386.39 288.309L386.46 288.429C386.449 288.383 386.425 288.342 386.39 288.309Z" fill="#1E1E1E"/>
<path d="M389.39 292.289C390.589 291.856 391.678 291.162 392.577 290.258C393.476 289.354 394.163 288.261 394.59 287.059C394.924 286.3 395.087 285.476 395.066 284.646C395.046 283.816 394.842 283.001 394.47 282.259C394.009 281.49 393.306 280.896 392.47 280.569C391.768 280.299 390.994 280.281 390.28 280.519C389.482 280.421 388.674 280.438 387.88 280.569C386.5 280.664 385.171 281.127 384.03 281.909C382.03 283.469 381.79 286.709 382.58 288.909C382.961 290.186 383.797 291.278 384.93 291.979C385.61 292.34 386.359 292.555 387.127 292.608C387.895 292.661 388.666 292.553 389.39 292.289ZM386.94 288.759H386.83L386.76 288.699C386.76 288.699 386.76 288.759 386.7 288.699L386.65 288.639H386.59L386.5 288.549C386.504 288.529 386.504 288.509 386.5 288.489C386.39 288.379 386.39 288.359 386.43 288.379L386.32 288.169C386.318 288.143 386.318 288.116 386.32 288.089C386.24 287.779 386.14 287.479 386.07 287.159C386.07 287.079 386.07 286.999 386.07 286.949C386.07 286.899 386.07 286.539 386.07 286.329C386.07 286.119 386.07 286.109 386.07 285.999C386.053 285.954 386.053 285.905 386.07 285.859C386.075 285.826 386.075 285.792 386.07 285.759C386.07 285.759 386.07 285.759 386.07 285.829C386.099 285.738 386.123 285.644 386.14 285.549L386.22 285.319V285.269C386.22 285.169 386.22 285.159 386.28 285.179C386.34 285.199 386.28 285.179 386.28 285.179V285.109L386.39 284.989H386.45L386.6 284.919L386.83 284.839C387.32 284.709 387.83 284.609 388.31 284.519L388.6 284.469H388.81C389.01 284.469 389.36 284.469 389.4 284.469H389.69L390.02 284.559L390.15 284.629C390.453 284.807 390.799 284.897 391.15 284.889C391.155 284.963 391.155 285.036 391.15 285.109C391.154 285.169 391.154 285.229 391.15 285.289V285.419C391.15 285.509 391.1 285.599 391.08 285.689C391.06 285.779 390.94 286.089 390.87 286.299L390.75 286.549C390.67 286.699 390.58 286.849 390.49 286.999C390.4 287.149 390.28 287.309 390.17 287.459C390.06 287.609 390.01 287.649 389.92 287.739C389.83 287.829 389.68 287.979 389.55 288.089L389.35 288.259L388.9 288.539C388.9 288.539 388.67 288.689 388.52 288.769C388.37 288.849 388.46 288.769 388.37 288.769L388.13 288.849C387.942 288.915 387.748 288.958 387.55 288.979H387.49C387.36 288.969 387.23 288.969 387.1 288.979L386.94 288.759Z" fill="#1E1E1E"/>
<path d="M386.58 288.549L386.69 288.639C386.664 288.599 386.625 288.567 386.58 288.549Z" fill="#1E1E1E"/>
<path d="M386.21 285.059L386.14 285.199C386.2 285.149 386.22 285.089 386.21 285.059Z" fill="#1E1E1E"/>
<path d="M385.98 285.729C385.975 285.779 385.975 285.83 385.98 285.879C385.984 285.829 385.984 285.779 385.98 285.729Z" fill="#1E1E1E"/>
<path d="M406.67 283.549C406.648 283.51 406.628 283.47 406.61 283.429C406.618 283.474 406.639 283.516 406.67 283.549Z" fill="#1E1E1E"/>
<path d="M404.14 279.259C402.9 279.566 401.744 280.144 400.755 280.952C399.766 281.759 398.969 282.776 398.42 283.929C398.01 284.649 397.764 285.452 397.7 286.278C397.636 287.104 397.755 287.935 398.05 288.709C398.435 289.529 399.083 290.198 399.89 290.609C400.561 290.945 401.327 291.04 402.06 290.879C402.843 291.057 403.648 291.124 404.45 291.079C405.844 291.135 407.227 290.81 408.45 290.139C410.57 288.799 411.18 285.609 410.63 283.309C410.383 282.004 409.673 280.832 408.63 280.009C407.977 279.575 407.239 279.283 406.465 279.154C405.691 279.025 404.899 279.061 404.14 279.259ZM406.21 283.029L406.32 283.079L406.38 283.139C406.38 283.139 406.38 283.079 406.43 283.139L406.48 283.199C406.499 283.206 406.52 283.206 406.54 283.199H406.49C406.52 283.234 406.547 283.27 406.57 283.309C406.565 283.332 406.565 283.356 406.57 283.379C406.67 283.499 406.66 283.519 406.63 283.489C406.669 283.56 406.703 283.633 406.73 283.709V283.789C406.73 284.109 406.84 284.419 406.88 284.739C406.875 284.809 406.875 284.879 406.88 284.949C406.88 285.159 406.88 285.359 406.82 285.569C406.76 285.779 406.82 285.79 406.75 285.9C406.767 285.941 406.767 285.988 406.75 286.029C406.745 286.063 406.745 286.096 406.75 286.129C406.744 286.103 406.744 286.076 406.75 286.049C406.75 286.139 406.68 286.229 406.65 286.319C406.62 286.409 406.58 286.469 406.55 286.549V286.599C406.55 286.689 406.49 286.69 406.48 286.67C406.47 286.65 406.48 286.67 406.48 286.67L406.42 286.739L406.3 286.839H406.24L406.08 286.9L405.84 286.949C405.34 287.029 404.84 287.079 404.34 287.109H404.04H403.83L403.24 287.059L402.96 287.009H402.91C402.808 286.956 402.701 286.912 402.59 286.879L402.47 286.799C402.175 286.591 401.83 286.467 401.47 286.439V286.219C401.47 286.219 401.47 286.099 401.47 286.039V285.92L401.58 285.66C401.66 285.46 401.76 285.269 401.85 285.079L402 284.849C402.095 284.704 402.199 284.563 402.31 284.429C402.42 284.279 402.55 284.139 402.67 283.999L402.95 283.749L403.35 283.439L403.57 283.289C403.722 283.202 403.879 283.121 404.04 283.049C404.172 282.979 404.309 282.919 404.45 282.869H404.6H404.85C405.043 282.825 405.241 282.801 405.44 282.799H405.49H405.88L406.21 283.029Z" fill="#1E1E1E"/>
<path d="M406.49 283.249C406.452 283.221 406.418 283.188 406.39 283.149C406.412 283.192 406.447 283.227 406.49 283.249Z" fill="#1E1E1E"/>
<path d="M406.5 286.769L406.59 286.649C406.547 286.678 406.515 286.72 406.5 286.769Z" fill="#1E1E1E"/>
<path d="M406.8 286.129C406.795 286.08 406.795 286.029 406.8 285.979C406.8 285.979 406.81 285.999 406.8 286.129Z" fill="#1E1E1E"/>
<path d="M344.95 276.319C341.359 272.502 338.398 268.138 336.18 263.389C334.25 259.459 330.44 253.169 330.69 248.749C331.21 239.749 317.21 239.749 316.69 248.749C316.31 255.469 320.6 263.059 323.4 269.009C326.3 275.354 330.237 281.17 335.05 286.219C341.39 292.689 351.24 282.789 344.95 276.319Z" fill="#FBB03B"/>
<path d="M418.39 209.549C415.294 208.029 412.046 206.839 408.7 205.999C405.107 204.979 401.49 204.079 397.85 203.299C390.61 201.777 383.277 200.732 375.9 200.169C375.6 200.132 375.296 200.176 375.02 200.297C374.743 200.419 374.505 200.613 374.33 200.859C369.453 201.575 364.795 203.361 360.69 206.089C356.36 208.989 351.69 213.239 350.69 218.589C350.388 219.887 350.381 221.236 350.668 222.537C350.955 223.838 351.53 225.059 352.35 226.109C353.949 227.932 356.116 229.161 358.5 229.599C360.933 230.074 363.412 230.275 365.89 230.199H376.35L396.76 230.259C403.27 230.259 409.84 230.579 416.33 230.259C421.17 230.049 426.63 228.259 427.21 222.719C427.79 216.969 423.14 211.999 418.39 209.549ZM422.53 224.209C421.53 225.549 419.53 225.989 417.97 226.209C415.543 226.419 413.104 226.469 410.67 226.359H401.45L383.28 226.299C377.22 226.299 371.16 226.279 365.1 226.239C361.75 226.239 356.32 226.239 354.74 222.559C353.84 220.419 354.85 217.969 355.99 216.129C357.482 213.887 359.374 211.938 361.57 210.379C365.911 207.146 371.053 205.161 376.44 204.639C376.774 204.612 377.098 204.513 377.39 204.349C388.407 205.283 399.296 207.364 409.88 210.559C414.54 211.969 419.68 213.849 422.18 218.359C423.14 219.959 423.85 222.469 422.55 224.159L422.53 224.209Z" fill="#1E1E1E"/>
<path d="M417.13 264.329L365.18 263.139C362.61 263.079 362.61 267.079 365.18 267.139L417.13 268.329C419.71 268.389 419.71 264.389 417.13 264.329Z" fill="#1E1E1E"/>
<path d="M386.47 304.369C371.07 304.369 356.96 299.909 345.73 291.369C321 272.449 320.3 247.219 324.07 229.369C324.094 229.25 324.128 229.133 324.17 229.019C332.44 207.679 348.35 193.489 368.97 189.019C373.435 187.269 378.107 186.099 382.87 185.539C382.996 185.524 383.124 185.524 383.25 185.539C386.332 185.698 389.399 186.069 392.43 186.65C397.733 186.734 403.016 187.34 408.2 188.459C412.016 189.15 415.761 190.184 419.39 191.549C419.599 191.592 419.8 191.663 419.99 191.759L420.36 191.959C421.724 192.583 423.032 193.322 424.27 194.17C439.59 203.5 450.49 218.889 453.43 235.339V235.4L453.49 235.799C455.472 249.075 452.38 262.611 444.83 273.709C437.1 285.079 424.6 295.179 412.2 300.059C408.719 301.385 405.115 302.36 401.44 302.969C396.501 303.875 391.492 304.343 386.47 304.369ZM327.61 230.249C324.1 247.039 324.81 270.669 347.91 288.339C361.91 299.019 380.68 302.919 400.91 299.339C404.324 298.769 407.673 297.864 410.91 296.639C422.5 292.069 434.65 282.239 441.91 271.589C448.908 261.279 451.764 248.711 449.91 236.389L449.86 236.039C447.09 220.619 436.86 206.18 422.37 197.4L422.26 197.329C421.194 196.592 420.062 195.953 418.88 195.42L418.68 195.339C415.086 193.924 411.361 192.865 407.56 192.179C402.534 191.092 397.412 190.512 392.27 190.449C392.133 190.46 391.997 190.46 391.86 190.449C388.992 189.886 386.088 189.522 383.17 189.359C378.738 189.901 374.393 191.007 370.24 192.65C370.117 192.7 369.99 192.74 369.86 192.769C343.73 198.209 332.19 218.549 327.61 230.249Z" fill="#1E1E1E"/>
<path d="M60.2051 238.821C57.1646 237.106 54.2752 235.135 51.5682 232.931C49.0752 230.777 47.2337 227.991 44.6338 225.957C43.9828 225.398 43.182 225.041 42.3305 224.932C41.479 224.822 40.6142 224.965 39.843 225.342C38.9821 225.464 38.1795 225.847 37.5438 226.44C36.9081 227.033 36.47 227.808 36.289 228.658C34.8274 234.939 36.0475 242.529 36.1834 248.945C36.2324 249.633 36.4375 250.302 36.783 250.899C37.1285 251.497 37.6055 252.008 38.1778 252.394C38.7501 252.78 39.4028 253.031 40.0863 253.127C40.7698 253.223 41.4662 253.163 42.123 252.951L59.6417 247.068C63.5947 245.802 63.4276 240.759 60.2051 238.821Z" fill="#FBB03B"/>
<path d="M87.4172 274.854L55.9026 284.677C50.3644 286.405 53.2619 294.926 58.7906 293.201L90.3053 283.378C95.8372 281.662 92.9492 273.138 87.4172 274.854Z" fill="#FBB03B"/>
<path d="M80.0544 290.051C74.2594 291.645 68.0699 292.76 62.832 295.749C57.8054 298.613 62.8639 306.064 67.881 303.203C72.2957 300.651 78.0949 299.911 82.9425 298.575C88.5322 297.029 85.6252 288.512 80.0544 290.051Z" fill="#FBB03B"/>
<path d="M142.475 232.243C139.771 229.527 133.476 228.492 130.04 226.89C128.967 226.387 127.74 226.318 126.617 226.698C125.495 227.079 124.562 227.879 124.016 228.931C111.956 250.564 104.475 274.447 102.039 299.094C101.934 299.997 102.097 300.912 102.509 301.723C102.921 302.533 103.563 303.205 104.354 303.652C104.905 304.292 105.633 304.754 106.446 304.98C107.26 305.207 108.122 305.187 108.924 304.923C113.72 303.499 118.626 302.396 123.317 300.659C124.62 300.259 125.813 299.559 126.798 298.617C127.784 297.674 128.536 296.514 128.995 295.23C130.6 291.244 131.229 286.554 132.261 282.372L135.802 268.079C138.075 258.863 140.522 249.693 142.639 240.423C143.298 237.57 144.801 234.527 142.475 232.243Z" fill="#00A99D"/>
<path d="M143.267 237.043L118.141 218.695L105.731 209.586C101.908 206.614 97.8352 203.977 93.5587 201.705C91.2415 200.569 89.4661 204.147 91.7866 205.293C95.963 207.536 99.9382 210.135 103.668 213.062L115.928 222.011L121.945 226.402C121.504 227.068 121.133 227.778 120.836 228.52C120.811 228.573 120.783 228.625 120.751 228.675C112.864 247.021 106.753 266.08 102.501 285.592C101.295 291.153 100.238 296.748 99.3294 302.377C99.2728 302.696 99.2975 303.023 99.4013 303.33C99.505 303.636 99.6846 303.911 99.9231 304.13L95.2529 305.522L80.5033 309.917C76.2268 311.05 72.088 312.651 68.1621 314.69L49.674 299.045C43.6309 293.924 37.7467 288.305 30.9715 284.139C28.0692 282.366 24.7901 281.133 22.1265 279.006C22.926 269.274 23.7193 259.545 24.5062 249.818C24.9329 244.845 25.3364 239.887 25.7168 234.943C26.0357 230.992 26.1546 226.887 27.4957 223.085L85.3751 203.073C87.8092 202.249 86.5351 198.457 84.0915 199.285L26.5405 219.175C26.3273 219.092 26.0997 219.053 25.8711 219.059C25.6425 219.066 25.4176 219.118 25.2096 219.213C25.0016 219.308 24.8148 219.444 24.6602 219.613C24.5056 219.781 24.3864 219.979 24.3097 220.195C22.5379 224.501 22.2124 229.056 21.8366 233.65C21.4057 238.611 21.0011 243.566 20.6228 248.516C19.8382 258.291 19.0452 268.062 18.2437 277.829C18.0438 278.022 17.884 278.251 17.7734 278.506C17.6629 278.76 17.6038 279.034 17.5996 279.311C17.5953 279.588 17.6461 279.864 17.7489 280.121C17.8516 280.379 18.0043 280.613 18.1983 280.812C20.7092 283.392 24.0146 284.828 27.1377 286.504C30.4354 288.362 33.5404 290.542 36.4069 293.014C42.7732 298.248 49.071 303.716 55.3935 309.07L66.3492 318.345C66.4868 318.459 66.6369 318.557 66.7965 318.637C67.1147 318.905 67.5113 319.062 67.9266 319.085C68.3419 319.108 68.7534 318.996 69.0993 318.765C73.2135 316.199 77.8998 314.854 82.5194 313.468L97.0416 309.15L126.332 300.429C126.674 300.341 126.98 300.151 127.21 299.885C127.441 299.618 127.584 299.287 127.622 298.937C127.734 298.752 127.819 298.553 127.875 298.344C132.927 278.915 137.982 259.482 143.039 240.045C143.3 239.9 143.522 239.693 143.683 239.442C143.845 239.191 143.941 238.903 143.964 238.605C143.987 238.308 143.935 238.009 143.813 237.736C143.692 237.463 143.504 237.225 143.267 237.043ZM124.268 230.609C124.292 230.582 124.31 230.551 124.321 230.517C124.548 229.908 124.835 229.323 125.176 228.77C126.833 229.983 128.488 231.182 130.143 232.367C128.17 231.607 126.066 231.244 123.952 231.297L124.268 230.609ZM122.374 235.178C124.162 239.104 126.301 242.86 128.764 246.402L120.018 243.431C119.743 243.335 119.447 243.312 119.16 243.363C120.182 240.623 121.251 237.889 122.368 235.16L122.374 235.178ZM117.952 246.528C120.566 251.189 123.272 255.798 126.068 260.354C122.393 258.598 118.55 257.215 114.597 256.227C115.663 252.973 116.781 249.74 117.952 246.528ZM112.991 261.333C115.258 267.681 119.964 272.876 122.918 278.885C118.597 275.888 114.6 272.447 110.993 268.619L110.908 268.553C111.538 266.144 112.253 263.737 112.991 261.333ZM103.251 303.139C103.905 299.085 104.657 295.04 105.475 291.004C106.495 294.571 108.063 297.957 110.122 301.043L103.251 303.139ZM106.735 285.002C107.599 281.32 108.416 277.686 109.36 274.051C112.484 279.531 115.605 285.013 118.722 290.496L107.416 285.173C107.203 285.071 106.971 285.013 106.735 285.002ZM114.148 299.901C112.093 297.065 110.512 293.913 109.467 290.57L122.719 296.839C123.11 297.033 123.553 297.094 123.982 297.013L114.148 299.901ZM125.005 293.457L117.122 279.54C119.935 281.725 122.893 283.718 125.974 285.505C126.295 285.699 126.668 285.786 127.041 285.756C126.339 288.327 125.665 290.889 125.005 293.457ZM128.239 281.19C125.847 273.881 120.082 268.116 117.211 261.106C122.098 262.671 126.754 264.883 131.054 267.682C131.245 267.806 131.458 267.895 131.681 267.945C130.505 272.369 129.342 276.79 128.192 281.206L128.239 281.19ZM132.817 263.537C129.783 258.737 126.833 253.876 123.969 248.955L133.947 252.353C134.32 252.454 134.716 252.431 135.075 252.288C135.434 252.146 135.737 251.891 135.939 251.562C134.871 255.556 133.818 259.552 132.779 263.55L132.817 263.537ZM136.336 249.992C136.29 249.723 136.176 249.471 136.004 249.26C132.46 245.079 129.439 240.483 127.006 235.573C127.819 235.738 128.612 235.989 129.372 236.324C129.736 236.476 130.136 236.521 130.526 236.454C130.915 236.386 131.276 236.209 131.568 235.943C131.86 235.676 132.069 235.332 132.171 234.95C132.274 234.569 132.264 234.166 132.145 233.79L139.182 238.976L136.336 249.992Z" fill="#1E1E1E"/>
<path d="M61.3425 245.013C61.1675 244.763 60.9317 244.561 60.6572 244.427C60.3826 244.293 60.0785 244.231 59.7733 244.246C57.7236 242.92 55.7804 241.435 53.9613 239.807C51.3644 237.751 48.7434 235.729 46.0984 233.739C43.4533 231.749 40.8486 229.837 38.2844 228.003C36.9864 227.07 35.5142 226.059 33.9859 227.158C33.3994 227.59 32.99 228.22 32.834 228.931C32.7893 229.124 32.7711 229.322 32.78 229.52C32.65 229.713 32.5656 229.933 32.5333 230.163C31.9729 233.971 31.7654 237.824 31.9134 241.67C31.026 245.977 30.6549 250.374 30.8078 254.768C30.8247 255.03 30.8931 255.287 31.0093 255.523C31.1255 255.759 31.2872 255.97 31.485 256.143C31.6698 256.363 31.9059 256.533 32.1722 256.64C32.4385 256.747 32.727 256.787 33.0122 256.756C37.7773 256.017 41.6645 252.937 46.3814 252.025C48.6657 251.651 50.9259 251.142 53.1506 250.503C55.2314 249.85 57.3056 249.148 59.383 248.454C61.674 249.388 63.3748 246.088 61.3425 245.013ZM45.7174 248.196C43.4425 248.65 41.2361 249.397 39.1538 250.42C37.7407 251.134 36.2878 251.768 34.8023 252.316C34.804 252.01 34.7835 251.7 34.7884 251.403C34.808 250.9 34.8215 250.409 34.8506 249.903C34.8797 249.397 34.8912 249.15 34.9423 248.616C35.1241 246.527 35.4328 244.452 35.8667 242.4C35.9001 242.224 35.9066 242.044 35.8861 241.866C35.9082 241.733 35.9192 241.599 35.919 241.464C35.8436 239.652 35.8442 237.847 35.9429 236.05C35.9513 235.826 35.9597 235.601 35.9807 235.383C36.0018 235.164 35.9891 235.158 36.0012 235.038C36.0338 234.604 36.0727 234.158 36.1148 233.722C36.1569 233.285 36.2063 233.026 36.2457 232.674C36.4707 232.419 36.6241 232.108 36.6902 231.774L38.0706 232.732L41.1904 235.022C43.3328 236.608 45.4405 238.217 47.564 239.841C49.6876 241.466 51.6402 243.022 53.6563 244.64L55.0246 245.75L52.3633 246.652C50.1773 247.292 47.9533 247.795 45.7045 248.158L45.7174 248.196Z" fill="#1E1E1E"/>
<path d="M87.3972 212.345L56.6444 222.764C54.2103 223.589 55.4939 227.378 57.928 226.553L88.6808 216.133C91.1243 215.305 89.8407 211.517 87.3972 212.345Z" fill="#1E1E1E"/>
<path d="M82.3317 224.662C76.1338 226.306 70.0664 228.408 64.1794 230.949C63.677 231.12 63.2628 231.482 63.0279 231.958C62.793 232.434 62.7568 232.983 62.927 233.485C63.0972 233.988 63.4599 234.402 63.9355 234.637C64.4111 234.872 64.9606 234.908 65.463 234.738C71.35 232.196 77.4174 230.094 83.6153 228.45C84.1177 228.28 84.5318 227.917 84.7667 227.442C85.0016 226.966 85.038 226.417 84.8677 225.914C84.6975 225.412 84.3347 224.998 83.8591 224.763C83.3835 224.528 82.8341 224.492 82.3317 224.662Z" fill="#1E1E1E"/>
<path d="M94.8909 255.809C94.3722 255.704 93.8331 255.809 93.3917 256.101C92.9504 256.393 92.6429 256.848 92.5364 257.367L90.2107 264.152C88.0078 262.861 85.977 261.296 84.1667 259.495C83.903 259.264 83.5832 259.107 83.2395 259.039C82.8958 258.971 82.5402 258.994 82.2084 259.106C81.8765 259.219 81.5801 259.417 81.3486 259.68C81.1172 259.943 80.9589 260.262 80.8896 260.605C80.6389 262.094 80.3063 263.567 79.8931 265.019C79.7097 265.661 79.5105 266.289 79.289 266.913C79.211 267.119 79.0132 267.439 78.9293 267.721C78.4301 267.482 77.9181 267.272 77.3956 267.09C76.7584 266.767 76.1276 266.463 75.5058 266.062C74.2876 265.348 73.1232 264.546 72.0218 263.663C70.7424 262.66 68.533 263.493 68.7094 265.292C68.9527 267.624 68.8168 269.981 68.3073 272.27C65.3227 271.152 62.4533 269.748 59.739 268.078C59.5034 267.961 59.2471 267.892 58.9849 267.875C58.7226 267.857 58.4595 267.892 58.2106 267.976C57.9616 268.061 57.7318 268.193 57.5341 268.366C57.3365 268.54 57.1748 268.75 57.0586 268.986C56.1435 271.032 55.5229 273.197 55.2151 275.418L52.1944 274.013C50.6065 273.284 48.5884 271.877 46.7632 272.411C44.938 272.945 43.9961 274.964 43.4414 276.63C42.898 278.264 42.7389 280.002 42.9763 281.708C43.3398 284.245 47.3422 284.029 46.9755 281.482C46.7947 280.379 46.8473 279.25 47.1299 278.168C47.2791 277.642 47.5711 277.195 47.7488 276.691L47.893 276.431L48.2448 276.597L56.0704 280.217C56.3838 280.371 56.7321 280.441 57.0808 280.419C57.4295 280.397 57.7662 280.284 58.0577 280.091C58.3491 279.898 58.5849 279.633 58.7417 279.321C58.8985 279.008 58.9708 278.661 58.9514 278.312C58.9726 276.413 59.2811 274.529 59.8662 272.723C62.8569 274.378 66.0017 275.738 69.2562 276.784C69.7749 276.889 70.3139 276.784 70.7552 276.492C71.1966 276.2 71.5042 275.745 71.6107 275.226C72.2732 273.216 72.6659 271.127 72.7786 269.013C73.34 269.361 73.8856 269.694 74.466 270.035C76.0229 270.891 78.0659 272.184 79.9019 271.931C82.0825 271.636 82.6591 269.287 83.2544 267.522C83.5629 266.594 83.8303 265.67 84.0691 264.723C86.0286 266.31 88.1612 267.67 90.4264 268.777C90.7008 268.912 91.0026 268.982 91.3084 268.983C91.6143 268.983 91.9161 268.912 92.1906 268.778C92.4651 268.643 92.7049 268.447 92.8919 268.205C93.0788 267.963 93.2078 267.681 93.2687 267.381L96.4677 258.125C96.5608 257.61 96.4477 257.078 96.1528 256.645C95.8579 256.211 95.4048 255.911 94.8909 255.809Z" fill="#1E1E1E"/>
<path d="M87.204 277.777C75.9745 280.97 64.8575 284.515 53.8528 288.412C51.4188 289.237 52.6929 293.028 55.1364 292.201C66.1411 288.303 77.2581 284.758 88.4876 281.566C90.9729 280.861 89.6798 277.076 87.204 277.777Z" fill="#1E1E1E"/>
<path d="M78.9838 292.282C73.5366 293.405 68.2358 295.148 63.1852 297.477C62.6907 297.658 62.2848 298.022 62.0516 298.494C61.8184 298.966 61.7758 299.51 61.9328 300.013C62.103 300.515 62.4658 300.929 62.9414 301.164C63.417 301.399 63.9664 301.435 64.4688 301.265C69.5194 298.936 74.8201 297.193 80.2674 296.071C80.7698 295.9 81.184 295.538 81.4188 295.062C81.6537 294.586 81.6901 294.037 81.5199 293.535C81.3496 293.032 80.9868 292.618 80.5112 292.383C80.0356 292.148 79.4862 292.112 78.9838 292.282Z" fill="#1E1E1E"/>
</svg>
