<svg width="272" height="276" viewBox="0 0 272 276" fill="none" xmlns="http://www.w3.org/2000/svg">
<path d="M47.8665 182.785L54.8665 179.285L55.8665 182.285L55.3665 185.785V188.285L48.3665 188.785L42.3665 190.285L36.3665 193.285L33.3665 195.285V191.785L36.3665 186.785L39.3665 184.785L47.8665 182.785Z" fill="white"/>
<path d="M131.675 142.253C131.784 142.952 131.941 143.634 132.145 144.287L132.146 144.298C132.146 144.298 132.146 144.298 132.151 144.303C132.766 146.284 133.775 148.067 134.924 149.856C136.927 152.98 141.801 149.696 139.803 146.578C138.87 145.128 137.771 143.585 137.505 141.836C137.34 140.749 136.743 139.812 135.809 139.389L135.804 139.384C135.403 139.198 134.946 139.116 134.439 139.155C132.97 139.259 131.437 140.708 131.675 142.253Z" fill="#FBB03B"/>
<path d="M208.844 101.833C210.375 100.309 212.285 99.1177 214.839 99.1167C217.538 99.116 219.604 100.809 222.333 100.342C224.625 99.9494 226.764 102.224 226.891 104.368C227.047 106.895 225.157 108.545 222.854 108.938C221.32 109.201 219.713 109.164 218.187 108.827C217.277 108.626 215.924 107.758 214.954 107.71C214.649 108.137 213.309 109.568 213.24 109.619C212.419 110.172 211.373 110.441 210.379 110.329C209.03 112.15 205.971 112.055 204.38 110.692C202.445 109.027 202.626 106.553 203.933 104.62C205.195 102.77 206.93 102.045 208.844 101.833Z" fill="#FBB03B"/>
<path d="M171.233 119.383L171.228 119.388C171.054 119.708 170.891 120.027 170.728 120.358C170.924 120.394 171.121 120.442 171.317 120.478C172.182 120.659 173.054 120.835 173.92 121.027C174.846 121.234 175.768 121.467 176.665 121.783C177.447 122.053 178.226 122.384 178.896 122.875C179.428 123.268 179.889 123.804 180.029 124.47C180.194 125.243 179.91 126.016 179.503 126.663C179.22 127.122 178.862 127.583 178.355 127.801C177.906 128 177.411 127.914 176.998 127.685C176.437 127.379 176.071 126.921 175.656 126.459C175.459 126.233 175.225 126.014 174.91 125.971C174.562 125.929 174.175 125.985 173.83 126.03C173.054 126.121 172.291 126.288 171.533 126.46C170.921 126.6 170.302 126.713 169.702 126.886C169.085 127.064 168.449 127.296 167.793 127.427C167.778 127.466 167.752 127.504 167.737 127.543C166.837 129.364 165.828 131.136 166.18 132.671C166.198 132.741 166.211 132.805 166.235 132.87C166.271 132.998 166.318 133.126 166.382 133.249C166.619 133.744 167.04 134.211 167.686 134.638C168.001 134.838 168.332 135.021 168.672 135.172C173.117 137.173 177.998 138.407 182.821 138.988C185.134 139.265 187.405 138.013 187.885 135.589C188.021 134.908 187.96 134.18 187.749 133.5C187.813 133.308 187.866 133.117 187.909 132.926C187.938 132.817 187.956 132.698 187.979 132.583C188.002 132.436 188.013 132.29 188.019 132.138C188.033 132.067 188.031 131.992 188.034 131.91C188.036 131.807 188.033 131.71 188.03 131.613C188.028 131.559 188.026 131.505 188.019 131.456C188.009 131.3 187.993 131.149 187.967 130.998C187.947 130.875 187.921 130.746 187.885 130.628C187.847 130.445 187.792 130.268 187.722 130.098C187.716 130.092 187.722 130.087 187.716 130.082C187.669 129.964 187.611 129.847 187.553 129.73C187.536 129.682 187.518 129.634 187.495 129.592C187.489 129.575 187.483 129.559 187.472 129.549C186.157 127.143 184.836 124.743 183.515 122.332C182.39 120.282 181.398 117.665 179.527 116.166C179.183 115.885 178.813 115.654 178.429 115.473C178.292 115.418 178.15 115.369 178.008 115.33C177.888 115.291 177.762 115.258 177.642 115.229C177.479 115.192 177.321 115.159 177.163 115.138C177.038 115.126 176.93 115.118 176.821 115.111C176.691 115.105 176.567 115.104 176.443 115.103C176.324 115.107 176.199 115.116 176.081 115.131C175.827 115.156 175.591 115.208 175.355 115.281C175.259 115.317 175.157 115.347 175.056 115.388C174.943 115.43 174.837 115.477 174.736 115.529C174.48 115.646 174.23 115.801 173.992 115.966L173.987 115.972C172.897 116.756 171.99 117.993 171.233 119.383Z" fill="#00A99D"/>
<path d="M61.0011 105.159C61.2241 106.05 61.6838 106.9 62.2779 107.55C65.625 111.25 67.3096 115.921 68.059 120.786C68.5614 124.004 69.0475 127.218 69.598 130.418C69.5987 130.44 69.6046 130.456 69.6053 130.478C69.9768 132.64 70.3808 134.801 70.8332 136.955C71.7944 141.505 72.9331 146.021 74.2486 150.483C74.8061 152.369 75.3949 154.388 76.1121 156.36L76.1176 156.365C77.0548 158.963 78.2224 161.492 79.8139 163.57C80.3386 164.25 80.9185 164.792 81.5434 165.22L81.549 165.225C83.8436 166.786 86.7155 166.758 89.4678 166.03C89.473 166.025 89.4786 166.03 89.4838 166.024C89.4894 166.029 89.4946 166.024 89.4946 166.024C90.7126 165.706 91.9154 165.248 93.0244 164.734C97.0767 162.864 100.971 160.29 104.414 157.45C105.184 156.818 105.926 156.159 106.613 155.481L106.618 155.475C106.624 155.47 106.624 155.47 106.629 155.464C107.064 155.022 107.493 154.574 107.89 154.117C108.506 153.414 109.072 152.675 109.589 151.9C108.744 151.875 107.866 152.165 107.079 152.435C106.068 152.778 105.058 153.197 103.993 153.374C102.405 153.629 100.799 153.814 99.2041 154.031C97.6148 154.242 96.0381 154.507 94.4398 154.606C91.3622 154.798 88.255 154.742 85.1786 154.631C83.7164 154.584 82.2531 154.504 80.8022 154.3C79.5903 154.13 78.2817 153.807 77.2996 153.035C76.4838 152.387 76.1162 151.371 75.9602 150.376C75.8233 149.471 75.9183 148.543 76.1663 147.663C76.692 145.817 77.7765 144.189 78.8243 142.6C79.3404 141.814 79.8617 141.022 80.3168 140.19C80.5164 139.831 80.6941 139.463 80.8498 139.084C81.0907 138.491 81.4421 137.971 81.8098 137.455C82.7062 136.207 83.5203 134.924 84.3281 133.614C84.9297 132.624 85.547 131.618 86.3034 130.732L86.3086 130.727C86.5274 130.459 86.7681 130.202 87.0203 129.966C87.9234 129.102 88.9889 128.411 90.0777 127.773L90.083 127.767C90.3058 127.63 90.5343 127.498 90.7627 127.365C92.0535 126.612 93.3843 125.928 94.6409 125.122C95.7228 124.436 96.9369 123.653 97.5821 122.505C97.6132 122.461 97.6334 122.417 97.6589 122.367C98.1632 121.382 98.2357 120.254 98.3095 119.169C98.3791 118.122 98.4424 117.049 98.8059 116.057C99.0095 115.482 99.31 114.893 99.7279 114.424L99.7332 114.419C99.9627 114.151 100.226 113.925 100.524 113.753C101.432 113.24 102.344 113.507 103.162 114.052C104.251 114.777 105.085 115.831 105.933 116.814C106.652 117.644 107.495 118.454 108.05 119.403C108.296 119.822 108.484 120.292 108.412 120.781C108.341 121.27 108.047 121.708 107.74 122.081C107.38 122.51 106.959 122.892 106.549 123.274C106.087 123.712 105.647 124.171 105.168 124.593C103.943 125.69 102.638 126.682 101.384 127.742C100.188 128.762 99.1153 129.908 98.1203 131.117C97.6361 131.712 97.163 132.318 96.7063 132.929C96.3427 133.407 96.0126 133.916 95.6156 134.362C95.0312 135.042 94.4023 135.681 93.8956 136.423C93.7303 136.667 93.4658 137.028 93.5026 137.335C93.5463 137.69 93.9413 137.693 94.2164 137.667C94.6533 137.625 95.0815 137.481 95.4993 137.348C95.9599 137.202 96.4213 137.078 96.8934 136.953C98.3907 136.572 99.8873 136.169 101.354 135.675C102.874 135.168 104.331 134.539 105.781 133.862C107.248 133.179 108.719 132.49 110.168 131.769C111.584 131.06 112.989 130.32 114.36 129.526C114.902 129.215 115.427 128.889 115.946 128.557C115.952 128.551 115.957 128.557 115.962 128.551C115.962 128.551 115.962 128.551 115.968 128.546C116.774 128.042 117.569 127.517 118.381 127.007C119.388 126.378 120.453 125.822 121.599 125.468C122.612 125.158 123.669 125.035 124.723 125.026C125.887 124.888 127.094 124.907 128.289 124.882C129.689 124.85 131.093 124.748 132.441 124.258C133.735 123.791 134.696 122.698 135.132 121.449C135.504 120.381 135.494 119.197 134.975 118.187C134.79 117.825 134.541 117.487 134.218 117.185C134.459 116.949 134.813 116.683 134.871 116.632C136.313 115.517 138.067 114.715 139.641 113.828C143.398 111.692 147.155 109.566 150.907 107.436C151.216 107.263 151.484 107.043 151.715 106.797C151.693 106.797 151.666 106.804 151.645 106.804C151.396 106.813 151.367 106.419 151.616 106.41C151.762 106.4 151.902 106.395 152.048 106.385C152.136 106.247 152.218 106.114 152.295 105.976C152.3 105.97 152.3 105.96 152.305 105.954C152.326 105.953 152.353 105.947 152.375 105.946L152.38 105.941C154.879 105.573 157.377 105.039 159.885 104.282C160.845 103.994 161.803 103.664 162.76 103.323C163.681 102.864 164.597 102.378 165.506 101.887C166.666 101.263 167.815 100.639 168.969 100.009C169.958 99.4669 170.953 98.9404 172 98.5257C172.011 98.5253 172.027 98.5194 172.043 98.5134C172.272 98.4135 172.497 98.3301 172.738 98.2515C173.113 98.1304 173.488 98.0201 173.869 97.9259C173.88 97.9255 173.885 97.9199 173.896 97.9196C175.769 97.4495 177.739 97.3007 179.644 97.3219C181.49 97.3505 183.401 97.5555 185.187 98.0948C185.152 98.031 185.118 97.9781 185.084 97.9251L185.078 97.9199C185.067 97.8879 185.049 97.8614 185.032 97.8349C184.981 97.7555 184.93 97.6761 184.874 97.6023C182.205 93.6252 177.506 91.8279 172.823 91.8912C172.623 91.8927 172.417 91.8997 172.223 91.9172C172.212 91.9176 172.212 91.9176 172.201 91.9179C167.588 92.1412 163.211 94.1797 158.879 95.5782C157.037 96.1716 155.198 96.6946 153.328 97.0943C153.322 97.0999 153.322 97.0999 153.312 97.1002C151.27 97.549 149.192 97.8584 147.064 97.9855C143.198 98.2156 139.339 97.991 135.493 97.6847C130.91 97.3172 126.409 96.9955 121.904 97.0365C118.226 97.0653 114.545 97.3323 110.823 98.0228C102.47 99.5701 94.2205 101.801 85.6523 100.818C77.8277 99.9126 70.1846 96.5445 62.6941 100.713C60.929 101.694 60.5644 103.503 61.0011 105.159Z" fill="#00A99D"/>
<path d="M60.7747 105.21C60.8019 105.214 60.8287 105.208 60.8559 105.213C60.8667 105.212 60.8776 105.212 60.8884 105.211C60.9201 105.189 60.9574 105.171 60.9947 105.154C62.2102 104.414 63.696 104.011 65.0368 103.641C66.8605 103.145 68.7437 102.821 70.6261 102.643C74.3747 102.281 78.1407 102.471 81.8878 102.749C85.917 103.049 89.9447 103.473 93.9891 103.399C97.909 103.324 101.819 102.779 105.644 101.922C109.883 100.971 114.024 99.6763 118.135 98.2908C118.214 98.2393 118.304 98.1875 118.411 98.1406C119.554 97.6685 120.711 97.3042 121.898 97.0308C126.344 95.9693 131.019 96.1821 135.572 96.6264C141.526 97.2174 147.347 97.8834 153.321 97.0886C153.548 97.07 153.774 97.0406 153.984 97.0063C156.908 96.5651 159.767 95.8123 162.561 94.8399C165.172 93.9279 167.746 92.8657 170.447 92.2373C171.033 92.1036 171.613 91.9863 172.217 91.9115C176.945 91.2298 181.482 92.3402 185.554 95.0409C191.296 98.8531 194.917 104.854 198.326 110.677C200.025 110.181 201.627 109.531 203.088 108.674C204.878 107.634 206.475 106.286 207.82 104.535C208.948 103.073 209.958 101.491 211.639 100.6C213.145 99.7967 214.655 99.826 216.228 100.448C217.872 101.106 219.452 101.977 221.284 101.92C223.041 101.865 224.405 101.547 225.918 102.691C226.162 102.878 226.423 103.08 226.662 103.304C227.609 104.148 228.439 105.24 228.457 106.505C228.48 108.09 227.234 109.388 225.92 110.087C224.244 110.973 222.284 111.089 220.44 110.779C219.417 110.608 218.428 110.29 217.449 109.961C216.733 109.721 215.659 109.114 214.794 108.976C214.011 110.215 213.914 112.274 212.201 112.517C211.431 112.624 210.811 112.18 210.308 111.657C210.274 111.625 210.24 111.583 210.201 111.547C210.037 112.851 209.303 114.104 207.788 114.102C206.847 114.102 205.988 113.466 205.211 113C204.455 112.555 203.71 112.089 202.975 111.611C201.632 112.252 200.209 112.744 198.756 113.146C198.74 113.174 198.725 113.19 198.704 113.213C197.458 114.7 197.321 116.701 196.919 118.528C196.564 120.125 195.918 121.597 195.218 123.06C197.52 122.635 199.843 122.366 202.183 122.269C202.263 122.24 202.348 122.204 202.451 122.185C202.553 122.165 202.655 122.145 202.762 122.12C202.82 121.712 203.062 121.33 203.564 121.14C204.88 120.662 205.52 119.006 206.508 118.096C207.733 116.966 209.082 116.855 210.671 116.968C212.308 117.085 213.831 116.822 215.224 115.892C216.835 114.809 217.538 113.107 218.449 111.464C219.232 110.068 221.479 111.143 220.696 112.55C219.754 114.238 218.987 115.963 217.507 117.253C216.186 118.407 214.56 119.161 212.831 119.421C211.055 119.687 209.127 118.796 207.807 120.329C207.552 120.635 207.307 120.941 207.068 121.242C213.314 119.967 219.56 118.692 225.811 117.411C229.703 116.618 233.595 115.824 237.492 115.025C239.292 114.655 241.172 114.558 242.909 113.898C243.134 113.814 243.342 113.715 243.567 113.642C244.107 113.467 244.666 113.329 245.201 113.148C246.192 112.849 247.183 112.539 248.175 112.24C250.157 111.631 252.14 111.022 254.127 110.407C256.072 109.805 258.022 109.197 259.978 108.605C261.414 108.166 263.064 107.655 264.311 108.77C265.692 110.01 266.575 112.084 266.163 113.944C265.708 115.972 263.463 117.51 261.447 116.535C260.963 116.302 260.53 115.939 259.997 115.86C259.459 115.775 258.92 116.005 258.43 116.26C255.582 117.715 253.533 120.172 250.783 121.803C249.121 122.785 247.394 123.623 245.617 124.382C245.462 124.447 245.312 124.506 245.163 124.576C244.699 124.771 244.24 124.971 243.775 125.176C242.852 125.581 241.935 125.991 241.006 126.38C240.605 126.551 240.205 126.721 239.799 126.887C235.548 128.613 231.054 129.367 226.687 130.702C218.259 133.291 210.375 137.322 202.578 141.382L202.658 141.509C191.183 146.47 179.422 150.731 167.582 154.751C160.838 157.039 154.091 159.408 147.135 160.972C146.662 161.086 146.257 160.937 145.973 160.671C144.31 161.307 142.629 161.862 140.924 162.332C140.855 162.394 140.776 162.445 140.686 162.497C129.976 168.373 118.816 173.344 107.29 177.375C101.726 179.319 96.1312 181.351 90.4163 182.829C84.9857 184.228 79.4612 184.542 73.9287 185.289C70.858 185.697 67.9446 186.463 65.0105 187.429C62.1298 188.372 59.2101 189.278 56.1416 189.248C55.7898 189.244 55.5099 189.118 55.2984 188.931C54.5145 189.12 53.6122 189.157 52.8469 189.248C50.4975 189.545 48.0792 189.714 45.7524 190.211C43.3342 190.727 41.3281 191.953 39.3278 193.364C38.3913 194.029 37.4611 194.721 36.4964 195.349C35.6217 195.915 34.5802 196.681 33.5369 196.879C31.1973 197.311 30.9406 194.847 31.4456 193.201C32.6579 189.291 34.7188 185.357 38.7828 183.855C41.1569 182.972 43.7231 182.689 46.1258 181.855C48.2554 181.111 50.2917 180.154 52.236 179.027C52.363 178.768 52.5887 178.549 52.9476 178.434C53.1404 178.373 53.3385 178.307 53.5365 178.241C53.5895 178.206 53.6426 178.172 53.6956 178.138C53.9502 177.978 54.2079 177.915 54.4519 177.933C63.1467 175.06 71.8411 172.175 80.5412 169.296C81.0283 169.133 81.5263 168.97 82.0135 168.807C79.1641 167.157 77.5465 163.744 75.9013 160.998C73.6392 157.223 71.5292 153.297 70.1146 149.12C68.6112 144.703 68.1936 140.064 67.6577 135.451C67.1278 130.854 66.5763 126.258 66.2295 121.633C65.8512 116.528 64.5606 111.827 61.2227 107.905C60.9482 107.953 60.6498 107.925 60.4348 107.797C59.9172 107.512 59.6294 107.138 59.6102 106.532C59.5798 105.916 60.0865 105.174 60.7747 105.21ZM206.892 111.103C207.471 111.435 207.718 111.551 207.75 110.857C207.777 110.326 207.633 109.887 207.767 109.352C207.98 108.544 208.672 107.85 209.536 107.787C210.448 107.718 211.079 108.362 211.534 109.061C211.625 109.198 211.745 109.384 211.831 109.548L212.012 109.12C212.359 108.27 212.687 107.182 213.525 106.666C214.289 106.196 215.161 106.561 215.932 106.81C217.047 107.173 218.137 107.606 219.262 107.935C221.163 108.498 223.942 108.97 225.514 107.347C226.357 106.469 225.654 105.801 224.924 105.128C223.943 104.22 223.246 104.238 221.978 104.363C219.929 104.563 218.021 103.952 216.167 103.15C215.356 102.799 214.507 102.298 213.587 102.487C212.48 102.709 211.644 103.636 210.972 104.476C209.348 106.49 207.906 108.422 205.785 109.961C205.663 110.047 205.542 110.132 205.42 110.217C205.905 110.515 206.396 110.817 206.892 111.103ZM246.155 121.383C249.447 119.787 252.567 117.84 255.382 115.504C256.489 114.589 257.626 113.587 259.076 113.267C259.78 113.108 260.539 113.157 261.203 113.454C261.845 113.74 262.373 114.539 263.092 114.163C263.827 113.791 263.809 112.904 263.593 112.23C263.479 111.872 263.278 111.505 263.047 111.205C262.539 110.54 262.4 110.599 261.639 110.82C260.298 111.202 244.719 116.389 244.368 116.06C244.571 116.47 244.81 116.862 244.963 117.247C245.249 117.913 245.503 118.591 245.704 119.293C245.894 119.985 246.04 120.678 246.155 121.383ZM164.266 153.231C170.326 151.195 176.373 149.104 182.373 146.896C188.432 144.67 194.426 142.279 200.362 139.748C208.489 135.504 216.679 131.224 225.454 128.477C229.809 127.111 234.335 126.376 238.593 124.688C240.549 123.918 242.452 123.035 244.385 122.212C243.36 120.781 242.733 118.925 242.139 117.414C242.045 117.179 241.961 116.922 241.899 116.665C241.173 116.814 240.447 116.952 239.738 117.096C235.679 117.922 231.626 118.754 227.568 119.58C219.597 121.212 211.614 122.844 203.638 124.47C203.459 124.628 203.213 124.734 202.905 124.739C199.992 124.823 197.097 125.155 194.249 125.772C193.798 125.874 193.41 125.741 193.126 125.497C192.365 125.393 191.676 124.632 192.113 123.74C193.194 121.512 194.21 119.432 194.685 116.992C195.016 115.309 195.396 113.651 196.341 112.228C192.777 107.508 188.842 102.335 183.322 99.895C180.359 98.5791 177.201 99.629 174.246 100.472C171.04 101.382 167.929 102.56 164.824 103.765C158.394 106.253 151.885 108.614 145.643 111.538C142.615 112.952 139.493 114.476 136.774 116.442C136.129 116.908 135.422 117.484 134.968 118.181C134.757 118.497 134.6 118.843 134.525 119.213C134.357 120.042 134.64 120.8 135.126 121.444C135.56 122.008 136.138 122.475 136.701 122.823C141.762 125.999 148.109 124.65 153.717 124.414C155.17 124.348 157.331 124.934 157.975 123.229C158.17 122.72 158.206 122.156 158.238 121.608L158.346 119.895C158.393 119.006 156.059 118.079 155.407 117.815C154.13 117.291 152.773 116.986 151.405 116.838C150.786 116.762 150.162 116.724 149.567 116.533C148.851 116.314 148.011 115.769 147.98 114.943C147.959 114.462 148.242 113.992 148.673 113.788C149.249 113.519 149.655 113.868 150.17 114.056C151.09 114.403 151.965 114.384 152.915 114.487C153.86 114.584 154.773 114.883 155.634 115.259C156.835 115.775 157.96 116.429 159.161 116.934C162.949 118.53 167.197 118.541 171.221 119.382L171.227 119.377C171.744 119.483 172.256 119.607 172.764 119.746C172.764 119.746 173.279 117.396 173.394 117.106C173.549 116.705 173.743 116.32 173.98 115.966L173.986 115.96C174.244 115.562 174.568 115.204 174.937 114.899C176.197 113.877 177.863 113.706 179.268 114.507C180.63 115.288 181.465 116.721 182.13 118.088C183.097 120.095 184.011 122.125 184.952 124.149C185.782 125.943 186.651 127.732 187.465 129.543C187.477 129.554 187.483 129.57 187.488 129.586C187.511 129.628 187.529 129.676 187.547 129.724C187.605 129.841 187.663 129.958 187.71 130.076C187.715 130.081 187.71 130.087 187.715 130.092C187.768 130.204 187.815 130.321 187.867 130.433C188.596 132.101 189.126 133.961 188.713 135.787C187.806 139.763 183.836 140.148 180.496 139.235C175.835 137.955 171 136.639 166.674 134.466C166.119 134.188 165.725 133.379 166.091 132.798C166.122 132.754 166.142 132.71 166.173 132.665C167.255 130.951 168.215 129.165 169.06 127.323C168.619 127.404 168.178 127.473 167.731 127.537C166.433 127.727 165.123 127.864 163.811 127.947C162.24 128.05 160.51 128.266 158.972 127.864C158.148 127.649 157.388 127.243 156.569 127.011C155.745 126.785 154.836 126.784 153.982 126.781C152.028 126.777 150.102 127.092 148.157 127.191C144.949 127.356 141.67 127.36 138.577 126.384C137.927 126.174 137.281 125.925 136.655 125.633C135.952 125.3 135.257 124.88 134.618 124.377C134.539 124.439 134.454 124.486 134.353 124.527C134.043 124.657 133.733 124.786 133.429 124.91L133.226 124.993C133.221 125.01 133.216 125.026 133.206 125.037C133.415 125.652 133.687 126.557 133.74 126.712C134.289 128.306 134.847 129.888 135.427 131.459C136.558 134.542 137.748 137.596 139.002 140.626C141.493 146.66 144.234 152.593 147.2 158.411C152.994 157.048 158.63 155.129 164.266 153.231ZM178.02 129.218C176.53 129.312 175.569 128.539 174.876 127.313C174.274 126.257 173.074 126.444 171.984 126.704C171.972 126.829 171.938 126.954 171.888 127.086C171.052 129.062 170.09 130.962 168.996 132.801C172.383 134.335 175.989 135.299 179.545 136.362C181.129 136.838 183.36 137.751 184.991 136.992C186.739 136.163 186.478 133.884 185.96 132.392C185.287 130.44 184.281 128.587 183.41 126.723C182.481 124.72 181.547 122.723 180.618 120.721C180.02 119.438 179.383 117.436 178.055 116.686C176.089 115.569 175.442 118.729 175.227 120.132L177.338 120.503C178.927 120.784 180.627 120.845 181.298 122.564C182.329 125.207 181.259 129.009 178.02 129.218ZM174.776 124.168C175.458 124.345 176.092 124.718 176.537 125.271C176.97 125.802 177.075 126.729 177.865 126.724C178.666 126.718 179.047 125.942 179.155 125.256C179.208 124.898 179.195 124.487 179.13 124.121C178.98 123.32 178.833 123.309 178.077 123.167C175.961 122.791 173.844 122.425 171.728 122.049L160.771 120.12C160.763 120.564 160.799 121.017 160.769 121.418C160.721 122.129 160.64 122.83 160.506 123.532C160.371 124.213 160.192 124.885 159.98 125.547C163.542 125.608 167.108 125.286 170.583 124.49C171.947 124.184 173.374 123.81 174.776 124.168ZM134.618 144.147C134.584 144.63 135.037 145.431 135.225 145.88C135.452 146.407 135.712 146.923 135.988 147.433C136.246 147.906 136.515 148.367 136.79 148.834C137.03 149.237 137.107 149.624 137.455 149.666C138.122 149.735 139.067 149.162 139.776 148.672C138.846 146.626 137.947 144.558 137.075 142.483C136.853 142.621 136.585 142.706 136.265 142.679C135.533 142.623 134.667 143.491 134.618 144.147ZM144.505 158.563C143.235 156.042 142.002 153.503 140.817 150.947C139.517 151.743 137.805 152.532 136.488 152.118C135.586 151.829 135.165 150.995 134.713 150.225C134.187 149.335 133.677 148.438 133.236 147.501C132.767 146.516 132.218 145.404 132.145 144.297C132.139 144.292 132.139 144.292 132.139 144.292L132.139 144.281C132.098 143.666 132.209 143.067 132.548 142.503C133.349 141.166 134.648 140.316 136.144 140.226C136.062 140.034 135.985 139.837 135.903 139.645C135.868 139.56 135.838 139.469 135.803 139.383L135.798 139.378C134.459 136.059 133.195 132.704 132 129.32C131.684 128.417 131.374 127.508 131.064 126.599C131.041 126.534 131.011 126.465 130.987 126.39C128.904 127.398 126.743 128.175 124.482 128.691C124.626 131.711 123.367 134.832 122.657 137.692C121.831 140.999 121.065 144.477 121.757 147.873C121.763 147.878 121.763 147.878 121.763 147.889C122.025 147.945 122.272 148.082 122.48 148.319C125.705 152.082 129.161 155.643 132.832 158.974C133.595 159.667 134.601 161.007 135.708 160.953C136.842 160.892 138.036 160.5 139.137 160.229C140.956 159.772 142.745 159.213 144.505 158.563ZM99.8883 123.941C99.0781 124.493 98.2734 125.051 97.4632 125.604C96.5261 126.247 95.5941 126.885 94.6625 127.534C95.3018 127.902 95.9361 128.286 96.5603 128.692C96.8918 128.908 97.2288 129.129 97.5606 129.355C98.2018 129.788 98.1704 129.989 98.7773 129.508C100.398 128.235 101.844 126.59 103.28 125.112C104.002 124.362 104.719 123.596 105.425 122.82C105.812 122.406 106.183 121.988 106.559 121.564C106.633 121.496 107.287 120.787 107.359 120.855C107.328 120.396 105.636 118.728 105.378 118.423C104.686 117.608 103.974 116.805 103.24 116.024C102.966 115.725 102.691 115.415 102.406 115.127C102.507 115.935 102.595 117.014 102.622 117.154C102.877 118.714 103.579 120.725 102.404 122.08C101.736 122.849 100.709 123.377 99.8883 123.941ZM83.7231 142.707C88.6531 139.854 92.9328 136.11 96.42 131.602C96.2537 131.478 96.0875 131.354 95.9272 131.246C95.0151 130.633 94.0827 130.064 93.1295 129.518C88.3876 131.309 84.8938 135.098 82.1191 139.213C80.7966 141.184 79.5533 143.262 78.5337 145.401C77.6007 147.37 76.8783 149.841 78.1854 151.819C79.4524 153.729 82.6162 153.523 84.6547 153.659C86.9375 153.824 89.2327 153.864 91.5192 153.802C96.195 153.679 100.879 153.134 105.457 152.133C109.561 151.235 113.59 149.982 117.49 148.409L119.165 147.323C118.814 144.468 119.184 141.625 119.825 138.795C120.233 137.007 120.713 135.232 121.165 133.453C121.497 132.159 122.003 130.713 122.045 129.316C116.98 130.29 112.712 133.218 107.86 134.937C102.537 136.824 96.9081 137.953 91.8798 140.609C91.566 140.777 91.2529 140.799 90.975 140.738C89.1288 142.23 87.1701 143.584 85.1089 144.781C83.7222 145.58 82.3259 143.518 83.7231 142.707ZM44.4826 184.974C42.7286 185.451 40.8469 185.65 39.1712 186.379C37.506 187.096 36.2693 188.529 35.3989 190.085C34.9896 190.824 34.6408 191.599 34.3413 192.388C34.1817 192.815 34.0277 193.248 33.8901 193.686C33.866 193.778 33.8478 193.887 33.8188 193.997C35.134 193.161 37.8151 191.381 38.1328 191.165C39.6514 190.09 41.2369 189.078 42.985 188.418C44.7388 187.762 46.6247 187.524 48.4731 187.293C49.6422 187.139 50.8224 186.996 51.9971 186.848C52.5414 186.78 53.0857 186.713 53.6352 186.64C53.8454 186.616 54.1296 186.536 54.3412 186.556C54.7809 186.601 54.6713 186.729 54.7925 186.454C54.9429 186.081 54.7032 185.175 54.6741 184.77C54.6399 184.203 54.6005 183.642 54.561 183.08C54.5029 182.271 54.45 181.456 54.3971 180.64C51.3084 182.532 47.9742 184.015 44.4826 184.974ZM69.5305 175.571L56.842 179.772C57.0119 182.06 57.2965 184.382 57.304 186.665C57.3047 186.687 57.305 186.698 57.3001 186.714C62.034 186.373 66.5157 184.055 71.163 183.203C76.6119 182.21 82.1882 182.165 87.5922 180.951C93.2487 179.68 98.7466 177.674 104.221 175.792C109.868 173.862 115.444 171.761 120.925 169.403C125.393 167.48 129.785 165.403 134.107 163.177C133.432 162.871 132.853 162.349 132.274 161.839C128.082 158.114 124.167 154.093 120.511 149.842C119.908 150.106 119.288 150.365 118.674 150.619C111.242 155.451 103.829 160.332 96.3457 165.085C92.257 167.687 88.028 169.444 83.4452 170.965C78.8088 172.498 74.1723 174.032 69.5305 175.571ZM68.1251 116.579C68.9821 120.916 69.0124 125.455 69.525 129.847C69.5472 130.035 69.5694 130.224 69.5916 130.413C69.5923 130.434 69.5982 130.45 69.5989 130.472C70.0781 134.832 70.4236 139.246 71.2204 143.558C72.031 147.967 73.8132 152.132 75.9392 156.052C75.9911 156.153 76.0538 156.253 76.1057 156.354L76.1113 156.359C77.2196 158.383 78.4074 160.355 79.6273 162.315C80.1976 163.237 80.7942 164.309 81.537 165.214L81.5426 165.219C82.2067 166.03 82.9964 166.706 83.9853 167.013C84.4441 167.149 84.7197 167.48 84.8394 167.844C86.4017 167.293 87.9518 166.698 89.4614 166.024C89.4667 166.019 89.4722 166.024 89.4775 166.018C89.483 166.024 89.4883 166.018 89.4883 166.018C90.8539 165.409 92.1903 164.73 93.4905 163.933C97.6572 161.404 101.698 158.652 105.79 156.001C106.061 155.824 106.336 155.652 106.607 155.475L106.612 155.47C106.617 155.464 106.617 155.464 106.622 155.458C107.492 154.898 108.356 154.333 109.225 153.773C108.78 153.891 108.329 154.004 107.884 154.111C102.166 155.514 96.2877 156.262 90.4032 156.313C87.7639 156.338 85.1145 156.218 82.4883 155.973C80.1009 155.752 77.7058 155.461 76.2112 153.369C73.0238 148.907 76.6379 143.28 79.0627 139.394C81.0654 136.181 83.4082 133.12 86.297 130.727L86.3023 130.721C87.409 129.796 88.6001 128.97 89.8874 128.277C89.9087 128.098 89.9629 127.928 90.0714 127.767L90.0766 127.762C90.1645 127.634 90.2744 127.517 90.4174 127.42C92.17 126.218 93.9227 125.016 95.6697 123.809C96.3104 123.371 96.9403 122.933 97.5758 122.5C97.814 122.335 98.063 122.169 98.3013 122.004C98.9524 121.554 100.421 120.936 100.564 120.157C100.706 119.357 100.255 118.106 100.127 117.315C99.9848 116.406 99.7384 115.462 99.7145 114.538C99.7132 114.494 99.7174 114.456 99.7216 114.418L99.7268 114.413C99.7422 113.022 100.684 111.68 102.243 112.027C103.784 112.369 105.007 114.248 105.994 115.35C106.64 116.08 107.285 116.821 107.91 117.573C108.506 118.299 109.298 119.051 109.656 119.932C110.343 121.623 108.67 122.963 107.646 124.091C106.182 125.699 104.674 127.277 103.121 128.802C102.26 129.643 101.383 130.479 100.495 131.294C99.9956 131.761 99.4881 132.303 98.8335 132.477C98.7882 132.581 98.7372 132.68 98.659 132.775C97.7505 133.98 96.7862 135.133 95.7665 136.245C99.4835 134.889 103.331 133.897 107.076 132.567C109.869 131.584 112.422 130.209 115.087 128.938C115.369 128.804 115.652 128.669 115.94 128.551C115.945 128.546 115.951 128.551 115.956 128.545C115.956 128.545 115.956 128.545 115.961 128.54C118.011 127.658 120.156 127.054 122.364 126.729C122.49 126.628 122.661 126.546 122.876 126.506C124.731 126.134 126.542 125.596 128.283 124.876C129.106 124.545 129.916 124.171 130.703 123.754C131.104 123.08 132.013 122.725 132.826 122.437C132.08 121.278 131.75 119.909 132.157 118.413C132.962 115.485 136.069 113.831 138.503 112.438C142.919 109.911 147.571 107.869 152.288 105.97C152.31 105.959 152.336 105.952 152.368 105.94L152.374 105.935C154.97 104.893 157.584 103.9 160.187 102.886C163.698 101.526 167.196 100.091 170.778 98.9242C171.174 98.7916 171.581 98.6586 171.993 98.52C172.004 98.5196 172.02 98.5136 172.036 98.5077C172.631 98.3087 173.241 98.1147 173.863 97.9202C173.873 97.9198 173.879 97.9142 173.889 97.9139C176.354 97.1476 178.958 96.5334 181.401 96.7958C182.666 96.9309 183.89 97.3326 185.072 97.9142L185.078 97.9194C185.292 98.0257 185.506 98.132 185.721 98.249C185.654 98.1864 185.588 98.1346 185.515 98.0776C185.305 97.9117 185.088 97.7513 184.867 97.5966C180.731 94.6167 175.879 93.4414 170.834 94.7075C168.279 95.347 165.833 96.34 163.35 97.2043C160.701 98.1338 157.992 98.8382 155.221 99.3175C149.55 100.302 143.931 100.024 138.241 99.4078C132.091 98.7478 125.717 98.036 119.804 100.262C119.688 100.364 119.545 100.45 119.379 100.504C112.067 102.984 104.564 105.211 96.8342 105.769C88.9858 106.33 81.2024 104.677 73.3562 104.968C71.2486 105.04 69.1343 105.242 67.0658 105.697C65.9218 105.959 64.6159 106.236 63.4463 106.714C65.7664 109.589 67.3977 112.92 68.1251 116.579Z" fill="#1E1E1E"/>
<path d="M244.369 116.06C244.571 116.47 244.811 116.862 244.963 117.247C245.25 117.913 245.504 118.591 245.705 119.293C245.894 119.985 246.041 120.678 246.155 121.383C249.448 119.787 252.567 117.84 255.382 115.504C256.489 114.589 257.626 113.587 259.076 113.267C259.78 113.108 260.539 113.157 261.203 113.454C261.845 113.74 262.374 114.539 263.092 114.163C263.827 113.791 263.81 112.904 263.593 112.23C263.479 111.872 263.278 111.505 263.047 111.205C262.539 110.54 262.4 110.599 261.639 110.82C260.299 111.202 244.72 116.389 244.369 116.06Z" fill="white"/>
<path d="M81.5427 165.219C82.2067 166.029 82.9964 166.706 83.9854 167.013C84.4441 167.148 84.7197 167.48 84.8395 167.844C86.4017 167.292 87.9518 166.698 89.4614 166.024C86.7092 166.751 83.8373 166.78 81.5427 165.219Z" fill="white"/>
<path d="M69.5989 130.472C70.078 134.832 70.4236 139.246 71.2204 143.558C72.031 147.967 73.8132 152.132 75.9392 156.052C75.9911 156.153 76.0538 156.253 76.1057 156.354C75.3886 154.382 74.7997 152.363 74.2422 150.477C72.9267 146.016 71.788 141.499 70.8268 136.949C70.3744 134.795 69.9704 132.634 69.5989 130.472Z" fill="white"/>
<path d="M160.771 120.12C160.764 120.564 160.8 121.017 160.769 121.418C160.721 122.129 160.641 122.829 160.506 123.532C160.371 124.213 160.192 124.885 159.98 125.546C163.542 125.608 167.108 125.286 170.583 124.49C171.947 124.184 173.375 123.81 174.776 124.168C175.458 124.344 176.092 124.718 176.537 125.271C176.971 125.802 177.076 126.729 177.865 126.724C178.666 126.718 179.047 125.942 179.155 125.256C179.209 124.897 179.196 124.487 179.13 124.121C178.98 123.32 178.834 123.309 178.077 123.167C175.961 122.791 173.845 122.425 171.728 122.049L160.771 120.12Z" fill="white"/>
<path d="M56.8422 179.772C57.0122 182.061 57.2968 184.383 57.3043 186.666C57.305 186.687 57.3053 186.698 57.3004 186.715C62.0342 186.374 66.516 184.056 71.1633 183.204C76.6121 182.21 82.1885 182.165 87.5925 180.952C93.249 179.681 98.7469 177.674 104.222 175.793C109.868 173.862 115.444 171.761 120.926 169.403C125.393 167.481 129.785 165.404 134.107 163.178C133.432 162.871 132.853 162.35 132.274 161.839C128.082 158.115 124.168 154.094 120.511 149.842C119.908 150.106 119.288 150.366 118.674 150.619C111.243 155.452 103.829 160.332 96.3459 165.085C92.2573 167.687 88.0283 169.445 83.4455 170.965C78.809 172.499 74.1725 174.032 69.5308 175.571L56.8422 179.772Z" fill="white"/>
<path d="M82.1192 139.213C80.7967 141.185 79.5534 143.262 78.5338 145.401C77.6008 147.37 76.8784 149.841 78.1855 151.819C79.4525 153.729 82.6163 153.523 84.6547 153.659C86.9376 153.824 89.2328 153.864 91.5192 153.802C96.195 153.679 100.879 153.134 105.457 152.133C109.562 151.235 113.59 149.982 117.49 148.409L119.165 147.323C118.815 144.468 119.184 141.626 119.825 138.795C120.233 137.007 120.713 135.232 121.165 133.453C121.497 132.159 122.003 130.713 122.045 129.316C116.98 130.29 112.712 133.218 107.86 134.937C102.537 136.824 96.9082 137.953 91.8799 140.609C91.566 140.777 91.2529 140.799 90.9751 140.738C89.1289 142.23 87.1701 143.584 85.109 144.781C83.7223 145.58 82.326 143.518 83.7232 142.707C88.6532 139.854 92.9328 136.11 96.42 131.602C96.2538 131.478 96.0876 131.354 95.9272 131.246C95.0152 130.633 94.0828 130.064 93.1296 129.518C88.3877 131.31 84.8939 135.098 82.1192 139.213Z" fill="white"/>
<path d="M124.482 128.692C124.627 131.711 123.368 134.833 122.658 137.693C121.832 141 121.066 144.478 121.758 147.874C121.764 147.879 121.764 147.879 121.764 147.89C122.026 147.946 122.273 148.083 122.481 148.32C125.706 152.083 129.162 155.643 132.833 158.975C133.596 159.668 134.602 161.008 135.709 160.954C136.843 160.893 138.037 160.5 139.138 160.23C140.957 159.773 142.746 159.213 144.506 158.563C143.235 156.042 142.003 153.504 140.818 150.947C139.518 151.744 137.806 152.533 136.489 152.119C135.587 151.83 135.166 150.995 134.714 150.226C134.188 149.335 133.678 148.439 133.237 147.501C132.768 146.517 132.219 145.405 132.146 144.298C132.14 144.293 132.14 144.293 132.14 144.293L132.14 144.282C131.935 143.629 131.778 142.947 131.669 142.248C131.431 140.703 132.965 139.254 134.433 139.15C134.94 139.111 135.397 139.192 135.798 139.379C134.46 136.059 133.195 132.705 132.001 129.321C131.685 128.418 131.375 127.509 131.065 126.599C131.041 126.535 131.012 126.466 130.988 126.391C128.905 127.399 126.744 128.176 124.482 128.692Z" fill="white"/>
<path d="M134.969 118.182C135.488 119.192 135.499 120.376 135.127 121.444C135.561 122.008 136.139 122.475 136.702 122.824C141.763 125.999 148.11 124.651 153.718 124.415C155.171 124.349 157.332 124.935 157.976 123.23C158.171 122.72 158.207 122.156 158.238 121.609L158.346 119.895C158.394 119.006 156.06 118.08 155.408 117.816C154.13 117.291 152.774 116.986 151.406 116.838C150.786 116.762 150.163 116.724 149.567 116.534C148.852 116.315 148.012 115.77 147.98 114.943C147.96 114.462 148.242 113.993 148.674 113.789C149.25 113.52 149.656 113.869 150.17 114.057C151.09 114.404 151.966 114.384 152.916 114.487C153.861 114.585 154.774 114.883 155.635 115.26C156.836 115.776 157.96 116.43 159.161 116.935C162.95 118.531 167.197 118.542 171.222 119.383L171.227 119.377C171.984 117.988 172.892 116.75 173.981 115.966L173.986 115.961C174.244 115.562 174.568 115.205 174.937 114.9C176.198 113.877 177.864 113.707 179.269 114.508C180.63 115.289 181.466 116.721 182.131 118.089C183.098 120.095 184.012 122.125 184.953 124.149C185.783 125.944 186.651 127.732 187.466 129.544C187.477 129.554 187.483 129.57 187.489 129.586C187.512 129.629 187.53 129.677 187.548 129.725C187.611 129.836 187.669 129.953 187.71 130.076C187.716 130.082 187.711 130.087 187.716 130.092C187.768 130.204 187.815 130.322 187.868 130.434C188.597 132.102 189.126 133.961 188.714 135.788C187.806 139.763 183.837 140.149 180.497 139.235C175.836 137.956 171.001 136.639 166.675 134.467C166.119 134.188 165.726 133.379 166.091 132.799C166.123 132.754 166.143 132.71 166.174 132.666C165.822 131.131 166.832 129.359 167.732 127.537C166.434 127.728 165.124 127.865 163.812 127.948C162.24 128.051 160.511 128.267 158.972 127.865C158.149 127.65 157.389 127.243 156.57 127.012C155.746 126.786 154.837 126.784 153.982 126.781C152.029 126.778 150.102 127.093 148.158 127.192C144.95 127.356 141.671 127.361 138.578 126.385C137.928 126.174 137.281 125.926 136.655 125.634C135.952 125.301 135.257 124.881 134.619 124.378C134.54 124.44 134.455 124.486 134.354 124.528C134.044 124.657 133.734 124.787 133.43 124.911L133.227 124.994C133.222 125.01 133.217 125.027 133.207 125.038C133.415 125.653 133.688 126.558 133.741 126.713C134.289 128.306 134.848 129.889 135.428 131.46C136.559 134.543 137.749 137.597 139.003 140.627C141.493 146.661 144.235 152.594 147.2 158.411C152.995 157.049 158.63 155.13 164.267 153.232C170.327 151.195 176.374 149.105 182.374 146.897C188.433 144.671 194.427 142.279 200.363 139.749C208.489 135.504 216.68 131.225 225.454 128.478C229.809 127.111 234.336 126.377 238.594 124.689C240.55 123.918 242.453 123.036 244.385 122.212C243.361 120.781 242.734 118.925 242.14 117.414C242.046 117.18 241.962 116.923 241.899 116.665C241.174 116.815 240.448 116.953 239.738 117.096C235.68 117.923 231.627 118.755 227.569 119.581C219.597 121.213 211.615 122.845 203.638 124.471C203.459 124.629 203.214 124.734 202.906 124.74C199.992 124.823 197.098 125.155 194.25 125.772C193.799 125.875 193.41 125.742 193.127 125.497C192.366 125.393 191.676 124.633 192.113 123.741C193.195 121.513 194.211 119.433 194.686 116.992C195.016 115.309 195.396 113.651 196.341 112.229C192.778 107.508 188.843 102.336 183.323 99.8957C180.36 98.5798 177.201 99.6296 174.247 100.472C171.041 101.383 167.93 102.561 164.825 103.766C158.395 106.254 151.886 108.614 145.644 111.539C142.615 112.952 139.494 114.477 136.775 116.442C136.13 116.908 135.423 117.484 134.969 118.182Z" fill="white"/>
<path d="M142.341 92.3583C146.187 92.697 150.063 92.5911 153.886 92.027C154.409 91.9496 154.88 92.4853 154.895 92.9717C154.914 93.5446 154.471 93.9061 153.948 93.9835C150.125 94.5476 146.255 94.6587 142.403 94.3148C141.882 94.2678 141.412 93.943 141.394 93.3701C141.379 92.8945 141.809 92.3116 142.341 92.3583Z" fill="#00A99D"/>
<path d="M157.518 161.346C161.37 159.991 165.222 158.625 169.075 157.27C170.262 156.851 170.82 158.726 169.632 159.145C165.78 160.5 161.928 161.866 158.075 163.221C156.888 163.64 156.33 161.766 157.518 161.346Z" fill="white"/>
<path d="M254.143 106.31C255.619 105.594 257.141 104.974 258.7 104.482C260.163 104.026 261.717 103.583 263.266 103.638C266.17 103.755 268.636 105.434 270.751 107.288C271.702 108.115 270.362 109.547 269.411 108.719C267.68 107.204 265.575 105.631 263.166 105.6C261.802 105.582 260.463 105.985 259.172 106.392C257.801 106.829 256.459 107.356 255.159 107.985C254.685 108.212 254.109 108.146 253.818 107.663C253.562 107.245 253.664 106.543 254.143 106.31Z" fill="white"/>
<path d="M58.686 110.806C59.1743 110.508 59.7107 110.706 60.0271 111.128C61.4496 112.995 62.5185 115.138 63.1689 117.394C63.4859 118.519 63.7123 119.686 63.8141 120.851C63.9226 122.054 63.7804 123.2 63.0272 124.184C62.7051 124.606 62.0005 124.565 61.6437 124.231C61.2255 123.84 61.2778 123.27 61.5998 122.848C62.0775 122.214 61.8925 121.16 61.8047 120.438C61.6811 119.442 61.4495 118.449 61.1484 117.485C60.5407 115.553 59.5804 113.762 58.3555 112.154C58.0391 111.732 58.2668 111.064 58.686 110.806Z" fill="#1E1E1E"/>
<path d="M83.6238 186.655C84.2524 186.687 84.8803 186.698 85.5068 186.666C85.8255 186.65 86.1546 186.622 86.4726 186.584C86.6236 186.568 86.7746 186.552 86.9308 186.53C87.0169 186.517 87.0978 186.509 87.1839 186.495C87.2055 186.494 87.2216 186.488 87.2484 186.482C87.2537 186.476 87.2645 186.476 87.2861 186.475C88.5452 186.259 89.7726 185.897 90.9472 185.403C91.4225 185.208 92.0457 185.581 92.1636 186.059C92.3003 186.617 92.0117 187.07 91.5043 187.277C89.0482 188.303 86.3414 188.758 83.6802 188.606C83.1709 188.58 82.6673 188.224 82.671 187.661C82.6828 187.179 83.0764 186.625 83.6238 186.655Z" fill="#1E1E1E"/>
</svg>
