<svg width="16" height="17" viewBox="0 0 16 17" fill="none" xmlns="http://www.w3.org/2000/svg">
<path d="M13.0466 3.80674C14.0427 5.01686 14.6922 6.4715 14.9267 8.01772C15.1613 9.56394 14.9723 11.1445 14.3796 12.5929C14.1033 13.3074 13.673 13.9532 13.1189 14.4847C12.5648 15.0162 11.9003 15.4208 11.1722 15.6696C9.55576 16.266 7.81501 16.451 6.10829 16.208C5.83142 16.1642 5.55726 16.1049 5.28711 16.0305C6.76561 16.8166 8.49221 17.0053 10.1071 16.5571C13.2371 15.6874 15.772 13.0071 15.9863 9.71745C16.1648 7.05496 14.5819 4.34512 12.3623 2.88963C12.2136 2.78905 12.0529 2.69439 11.8982 2.60564L11.6602 2.48141C12.169 2.87225 12.6338 3.3166 13.0466 3.80674Z" fill="#FBB03B"/>
<path d="M5.20977 4.3628C5.26714 4.58622 5.23782 4.82298 5.12754 5.02583C5.01726 5.22867 4.83413 5.38279 4.61471 5.45744C4.05216 5.68612 3.54084 6.02352 3.11037 6.45009C2.6799 6.87666 2.33884 7.38383 2.10694 7.9424C1.87504 8.50096 1.75695 9.09982 1.75944 9.7041C1.76193 10.3084 1.88497 10.9061 2.12147 11.4628C3.0557 13.575 5.43595 14.5927 7.64955 14.5572C8.95484 14.5628 10.241 14.2456 11.3924 13.6341C12.4337 13.0425 12.8979 11.7527 13.124 10.6345C13.3428 9.50387 13.2728 8.33669 12.9204 7.23994C12.568 6.1432 11.9444 5.1519 11.1068 4.35688C9.82741 3.13214 7.85185 2.26234 6.07264 2.6765C5.47758 2.99009 4.93611 3.35113 4.3827 3.69429C4.57192 3.71097 4.75177 3.78344 4.89916 3.90259C5.04656 4.02173 5.15471 4.18203 5.20977 4.3628ZM5.80482 8.55775C6.09663 9.02787 6.43994 9.46438 6.82837 9.85938C7.04293 10.0786 7.2694 10.286 7.50674 10.4807L7.57219 10.5338L7.63764 10.4629L8.11959 9.87123C8.42902 9.5044 8.71467 9.1375 9.036 8.76475C9.63105 8.03108 10.2142 7.28953 10.7855 6.54009C10.908 6.34051 11.1033 6.19576 11.3307 6.13621C11.5581 6.07665 11.7998 6.10688 12.0053 6.22056C12.2005 6.33988 12.3426 6.52885 12.4023 6.74882C12.462 6.96878 12.435 7.2031 12.3267 7.40389C11.1366 8.98955 9.88097 10.5457 8.5778 12.0485C8.4014 12.2804 8.14072 12.4344 7.85156 12.4775C7.56239 12.5207 7.26772 12.4494 7.03067 12.2792C6.6512 12.0261 6.29116 11.7453 5.95358 11.4391C5.29745 10.8424 4.72862 10.1574 4.26365 9.40379C4.15454 9.20119 4.12875 8.96436 4.19167 8.74323C4.25458 8.52209 4.40131 8.3339 4.60098 8.21815C4.80066 8.1024 5.03767 8.06817 5.26221 8.12267C5.48675 8.17718 5.68125 8.31616 5.80482 8.51037V8.55775Z" fill="#FBB03B"/>
<path d="M2.35951 13.0603C1.1694 10.6582 1.43717 8.10225 2.35951 5.72376C2.84703 4.89255 3.53916 4.19817 4.3708 3.7061H4.41242C4.31964 3.69643 4.2259 3.70863 4.13872 3.74163C2.75931 4.26214 1.60253 5.23956 0.8633 6.50913C0.124071 7.77871 -0.152456 9.26284 0.0804024 10.7114C0.526693 13.4035 2.74032 15.3797 5.31096 16.0364C4.0382 15.3759 3.00593 14.335 2.35951 13.0603Z" fill="#1E1E1E"/>
<path d="M11.6424 2.48139C9.52996 0.866152 6.63204 0.167885 4.20422 1.4873C3.19858 2.03754 4.09712 3.57 5.10872 3.01976C5.40848 2.85918 5.72875 2.7397 6.06079 2.6647C6.83618 2.20415 7.70333 1.91747 8.60168 1.82458C9.65647 1.76442 10.7078 1.99155 11.6424 2.48139Z" fill="#1E1E1E"/>
<path d="M11.1127 4.36281C11.9503 5.15782 12.574 6.14913 12.9264 7.24587C13.2788 8.34261 13.3488 9.5098 13.13 10.6404C12.9039 11.7587 12.4397 13.007 11.3984 13.6401C10.247 14.2515 8.96081 14.5687 7.65551 14.5631C5.44191 14.5986 3.06167 13.5809 2.12743 11.4687C1.88823 10.9132 1.76222 10.3161 1.75676 9.71191C1.7513 9.10768 1.86648 8.50828 2.09562 7.94862C2.32475 7.38896 2.6633 6.88005 3.09164 6.4514C3.51997 6.02275 4.02959 5.68296 4.59097 5.45152C4.81039 5.37687 4.99345 5.22276 5.10372 5.01991C5.214 4.81706 5.2434 4.5803 5.18602 4.35689C5.12938 4.17919 5.02121 4.02203 4.87513 3.90519C4.72905 3.78836 4.55155 3.717 4.36484 3.70008H4.32315C3.49151 4.19215 2.79939 4.88653 2.31186 5.71774C1.41333 8.0844 1.12175 10.6522 2.31186 13.0543C2.95506 14.3188 3.97834 15.3528 5.23956 16.0126C5.50971 16.0871 5.78387 16.1464 6.06073 16.1902C7.76745 16.4332 9.50821 16.2482 11.1247 15.6518C11.8528 15.4029 12.5173 14.9986 13.0714 14.467C13.6255 13.9355 14.0558 13.2896 14.332 12.575C14.9247 11.1266 15.1137 9.54626 14.8791 8.00004C14.6445 6.45382 13.9951 4.99904 12.9991 3.78891C12.5863 3.29877 12.1214 2.85442 11.6126 2.46359C10.6779 1.97375 9.62663 1.74662 8.57185 1.80678C7.67349 1.89967 6.80634 2.18649 6.03095 2.64704C7.85777 2.25063 9.85718 3.12031 11.1127 4.36281Z" fill="#1E1E1E"/>
<path d="M4.60886 8.21446C4.41475 8.33475 4.27362 8.52373 4.214 8.74329C4.15438 8.96285 4.18067 9.1967 4.28751 9.39779C4.75248 10.1514 5.32131 10.8364 5.97745 11.4331C6.31502 11.7393 6.67506 12.0202 7.05453 12.2733C7.29158 12.4435 7.58625 12.5147 7.87542 12.4715C8.16458 12.4284 8.42526 12.2744 8.60166 12.0425C9.90483 10.5397 11.1484 8.98355 12.3505 7.39789C12.4587 7.1971 12.4858 6.96278 12.4261 6.74281C12.3663 6.52285 12.2244 6.33388 12.0292 6.21456C11.8237 6.10088 11.582 6.07065 11.3546 6.1302C11.1272 6.18976 10.9318 6.3345 10.8093 6.53408C10.238 7.28353 9.65491 8.02508 9.05986 8.75875C8.75638 9.13149 8.46478 9.4984 8.14345 9.86523L7.6615 10.4569L7.59598 10.5278L7.53053 10.4747C7.29319 10.28 7.06672 10.0726 6.85216 9.85338C6.46373 9.45838 6.12049 9.02187 5.82868 8.55175C5.71018 8.348 5.5161 8.1985 5.28803 8.13545C5.05997 8.0724 4.81614 8.10078 4.60886 8.21446Z" fill="#1E1E1E"/>
</svg>
