<svg width="116" height="58" viewBox="0 0 116 58" fill="none" xmlns="http://www.w3.org/2000/svg">
<path d="M10.6799 29.5501C10.9621 30.1289 11.2437 30.7477 11.5165 31.4093C11.7906 32.075 12.0564 32.7432 12.3096 33.4288C12.5656 34.1091 12.7984 34.7746 13.0026 35.4228C13.2109 36.0696 13.387 36.6602 13.5324 37.1854C14.3995 37.4393 14.965 37.7234 15.2274 38.047C15.4897 38.3707 15.6119 38.6861 15.5882 39.0039C15.5781 39.4327 15.4037 39.7102 15.0581 39.8298C14.7167 39.9481 14.2805 39.9594 13.7578 39.8611C13.5128 40.1745 13.2328 40.5213 12.9058 40.8921C12.5842 41.2656 12.2351 41.639 11.8601 42.003C11.4863 42.371 11.1033 42.711 10.7111 43.0229C10.3188 43.3347 9.94259 43.5839 9.5865 43.769C8.90786 44.1017 8.22051 44.1714 7.53537 43.9833C6.85022 43.7951 6.28676 43.3641 5.84911 42.6889C5.55697 42.2329 5.35903 41.7291 5.25662 41.1813C5.15288 40.6295 5.15655 40.0699 5.27175 39.5011C5.38282 38.9336 5.60788 38.3783 5.94129 37.846C6.2747 37.3136 6.72005 36.8428 7.27601 36.4297C7.4124 36.3151 7.61079 36.1939 7.87946 36.0634C8.14398 35.9343 8.42886 35.8252 8.73541 35.7403C9.04195 35.6553 9.36566 35.6224 9.71632 35.6297C10.0641 35.6423 10.415 35.7337 10.7661 35.9093C10.6501 35.5431 10.5127 35.1395 10.3579 34.6971C10.2045 34.2588 10.0442 33.8138 9.87436 33.3674C9.70451 32.921 9.54389 32.5026 9.37876 32.1124C9.21777 31.7207 9.06961 31.3959 8.93578 31.1286C8.78744 30.8171 8.59295 30.6579 8.35648 30.6495C8.12001 30.6411 7.86283 30.7368 7.58343 30.946C7.10415 31.2858 6.58231 31.8166 6.02754 32.5396C5.47277 33.2626 4.9604 34.003 4.49306 34.7689C4.3533 35.0264 4.15303 35.1837 3.88812 35.242C3.62321 35.3004 3.37599 35.2732 3.13969 35.154C2.9047 35.0387 2.73924 34.8702 2.64743 34.647C2.55148 34.4251 2.56349 34.1553 2.68214 33.8336C2.93679 33.3265 3.23308 32.7927 3.57233 32.2363C3.91158 31.6799 4.28343 31.1529 4.68788 30.6554C5.09365 30.1619 5.53033 29.7205 5.99925 29.3353C6.46816 28.9501 6.9646 28.6624 7.49404 28.4749C8.26803 28.2091 8.92581 28.1888 9.46606 28.4101C10.0076 28.6354 10.4123 29.0154 10.6799 29.5501ZM9.02538 37.7349C8.75634 37.892 8.49316 38.1227 8.23169 38.4281C7.97568 38.7362 7.76188 39.0751 7.5999 39.4462C7.43793 39.8172 7.34869 40.2004 7.34179 40.5971C7.33489 40.9937 7.44142 41.3452 7.66268 41.6554C7.74636 41.7704 7.87469 41.8401 8.04089 41.8577C8.20708 41.8754 8.37402 41.8396 8.54188 41.737C9.04228 41.4614 9.5843 41.0616 10.1666 40.5336C10.7489 40.0057 11.1824 39.4988 11.4644 39.0051C11.4222 38.8768 11.3004 38.7297 11.1046 38.5664C10.9047 38.4045 10.6827 38.2452 10.4371 38.0978C10.1916 37.9505 9.94152 37.8312 9.67997 37.7466C9.41428 37.6634 9.19702 37.6577 9.02538 37.7349Z" fill="#00A99D"/>
<path d="M16.8976 29.0328C17.0708 29.3363 17.2559 29.6758 17.4625 30.0528C17.6691 30.4298 17.8824 30.8135 18.1081 31.2066C18.3337 31.5996 18.5482 32.0007 18.7529 32.4137C18.9576 32.8268 19.1461 33.2185 19.3155 33.5941C19.4057 32.9491 19.5047 32.2614 19.6151 31.539C19.7256 30.8166 19.8837 30.1276 20.0798 29.4842C20.28 28.8394 20.5312 28.2802 20.8322 27.8025C21.1345 27.3288 21.5296 27.0116 22.0242 26.8575C22.7592 26.6263 23.4639 26.6929 24.1329 27.0547C24.8018 27.4164 25.433 27.9277 26.0249 28.5845C26.6182 29.2453 27.1474 29.962 27.6194 30.7415C28.0914 31.521 28.4985 32.2149 28.8408 32.8231C29.1606 33.3633 29.0337 33.8826 28.452 34.3705C28.1858 34.6198 27.9602 34.7143 27.7671 34.6566C27.574 34.5988 27.4513 34.5185 27.3949 34.4169C27.1972 34.1921 26.9154 33.7816 26.54 33.184C26.1645 32.5863 25.7616 31.9886 25.3381 31.3842C24.9104 30.7811 24.4815 30.2715 24.0567 29.8581C23.6278 29.446 23.2541 29.3131 22.9316 29.4609C22.5361 29.6098 22.2746 30.0127 22.1389 30.6723C22.0173 31.2077 21.9045 31.7979 21.8035 32.4375C21.7024 33.0771 21.6081 33.7234 21.5219 34.3804C21.4358 35.0374 21.3579 35.6917 21.2841 36.3448C21.2104 36.9978 21.1374 37.5974 21.0693 38.1422C20.9606 38.341 20.8001 38.5077 20.581 38.6356C20.3619 38.7634 20.1203 38.8231 19.8467 38.8133C19.6005 38.8169 19.3866 38.7658 19.2038 38.656C19.021 38.5462 18.9045 38.4151 18.8557 38.2667C18.1149 36.6427 17.416 35.1737 16.7576 33.8556C16.0992 32.5376 15.3735 31.2101 14.5737 29.8664C14.2567 29.4184 14.1025 29.0335 14.1098 28.7076C14.1184 28.3857 14.4089 28.1685 14.991 28.0573C15.8192 27.9424 16.453 28.2667 16.8976 29.0328Z" fill="#00A99D"/>
<path d="M32.7878 17.7515C32.5977 17.3826 32.5092 17.0165 32.528 16.6559C32.5468 16.2953 32.7389 16.0298 33.1071 15.8674C33.4296 15.7197 33.7529 15.7136 34.0771 15.849C34.4012 15.9845 34.6565 16.2173 34.8322 16.5421C36.076 18.8869 37.2869 21.229 38.4663 23.559C39.6416 25.8903 40.7678 28.1842 41.8368 30.4432C42.1256 31.0421 42.2199 31.4816 42.1114 31.7646C42.0029 32.0476 41.8469 32.2838 41.6367 32.4664C41.4016 32.657 41.1529 32.7367 40.881 32.7042C40.6132 32.6704 40.3993 32.5218 40.2406 32.2624L40.1428 32.0766L40.0207 32.1512C39.366 32.6403 38.6412 33.0277 37.8505 33.3123C37.0556 33.5981 36.2557 33.7437 35.4495 33.7584C34.6432 33.7731 33.875 33.6249 33.1502 33.3165C32.4255 33.0081 31.8189 32.5156 31.3291 31.8349C30.2591 30.3385 30.1111 28.7195 30.8767 26.9804C31.2114 26.257 31.6848 25.5512 32.2996 24.8577C32.9145 24.1642 33.7158 23.5217 34.7075 22.929L35.2676 22.6121L32.7878 17.7515ZM33.1154 30.3847C33.4142 30.8607 33.7907 31.1832 34.2367 31.3549C34.6827 31.5266 35.1676 31.5795 35.6938 31.5216C36.2159 31.465 36.7448 31.3176 37.2846 31.0781C37.8244 30.8386 38.3333 30.5469 38.8125 30.2071L39.0835 30.0139L36.3156 24.5986L35.6956 24.9702C35.2681 25.2446 34.8354 25.6005 34.3974 26.0379C33.9581 26.4713 33.5981 26.9368 33.312 27.4319C33.0258 27.9269 32.8524 28.4302 32.786 28.9523C32.7154 29.4758 32.8257 29.9501 33.1154 30.3847Z" fill="#00A99D"/>
<path d="M52.401 18.1834C52.5352 18.5215 52.7082 18.9359 52.9297 19.4277C53.1458 19.917 53.378 20.4276 53.6223 20.9609C53.8653 21.4902 54.1111 22.0142 54.3638 22.5315C54.6166 23.0488 54.8453 23.5207 55.0607 23.9525C55.1537 23.3997 55.2704 22.724 55.404 21.9188C55.539 21.1177 55.7025 20.3339 55.8878 19.5742C56.0731 18.8146 56.3025 18.1471 56.5731 17.5772C56.8438 17.0074 57.1484 16.6659 57.4813 16.5636C57.8391 16.4534 58.222 16.5168 58.6313 16.7579C59.0406 16.999 59.4309 17.3215 59.8076 17.7282C60.1844 18.1348 60.5426 18.5829 60.8811 19.0683C61.2209 19.5577 61.5148 19.9909 61.7572 20.3653C61.756 20.0554 61.7719 19.7002 61.8009 19.3009C61.834 18.9002 61.8714 18.4849 61.9173 18.0536C61.9632 17.6222 62.0324 17.1923 62.1279 16.7583C62.2233 16.3244 62.3457 15.9306 62.5021 15.5702C62.6932 15.1765 62.937 14.859 63.2265 14.6111C63.5174 14.3671 63.7396 14.2206 63.8971 14.1701C64.096 14.1063 64.3576 14.0934 64.6749 14.1246C64.9922 14.1559 65.3268 14.2259 65.6817 14.3293C66.0323 14.4341 66.3824 14.5789 66.725 14.7705C67.0676 14.9621 67.3659 15.1722 67.6117 15.4037C68.1111 15.8907 68.5655 16.4498 68.979 17.0796C69.3884 17.7107 69.7429 18.3283 70.0317 18.9272C70.3205 19.526 70.5619 20.0647 70.7506 20.5405C70.9393 21.0163 71.0764 21.3491 71.1605 21.5349C71.2487 21.8169 71.2842 22.036 71.264 22.1976C71.2439 22.3592 71.1565 22.5113 71.006 22.6526C70.7957 22.8352 70.5921 22.9404 70.4033 22.9655C70.2145 22.9905 70.0456 22.9649 69.9022 22.8912C69.7547 22.8188 69.6267 22.7224 69.5142 22.6034C69.4017 22.4843 69.3193 22.3733 69.2588 22.2731C69.033 21.7958 68.7963 21.3133 68.5501 20.816C68.3052 20.3228 68.0615 19.8469 67.8135 19.3856C67.5667 18.9284 67.3181 18.5073 67.0594 18.1249C66.8006 17.7424 66.5535 17.4095 66.314 17.1272C66.2406 17.0577 66.1319 16.964 65.9862 16.8556C65.8406 16.7471 65.6838 16.6467 65.5213 16.5569C65.3576 16.4632 65.2059 16.3921 65.0663 16.3438C64.9253 16.2915 64.8294 16.2646 64.78 16.2538C64.5562 16.3256 64.3846 16.5978 64.2665 17.0744C64.1485 17.5511 64.0693 18.1039 64.026 18.7382C63.9828 19.3726 63.9641 20.0257 63.9712 20.7016C63.9783 21.3774 64.0089 21.9438 64.0561 22.4073C64.2367 22.9699 64.2566 23.4201 64.1212 23.7605C63.9858 24.1008 63.7931 24.3089 63.5485 24.3873C63.3039 24.4657 63.0111 24.4532 62.6727 24.3578C62.3343 24.2624 62.0819 24.1084 61.917 23.8997C61.6709 23.5975 61.402 23.2537 61.1061 22.8699C60.8102 22.4861 60.5075 22.0956 60.1954 21.6904C59.8805 21.2905 59.5723 20.8973 59.264 20.5175C58.9556 20.1376 58.6701 19.7992 58.4033 19.5036C58.2228 20.0135 58.0598 20.5622 57.9195 21.1523C57.7792 21.7425 57.6512 22.342 57.5355 22.9508C57.4238 23.5584 57.3179 24.1552 57.2272 24.7428C57.1323 25.3316 57.0342 25.855 56.9384 26.3157C56.8588 26.6027 56.7574 26.8657 56.6386 27.1032C56.5197 27.3408 56.3345 27.5021 56.0887 27.5765C55.9104 27.6336 55.692 27.6105 55.439 27.5099C55.1859 27.4093 54.9292 27.27 54.6773 27.0893C54.4212 26.9099 54.1739 26.6877 53.9327 26.4282C53.6873 26.17 53.4889 25.9012 53.3222 25.6178C52.8474 24.7462 52.3658 23.7704 51.8884 22.6957C51.4067 21.6224 50.9413 20.5704 50.4893 19.5452C50.3485 19.1871 50.2902 18.829 50.3116 18.4764C50.333 18.1238 50.5048 17.8383 50.8311 17.6185C51.1927 17.4361 51.4971 17.4005 51.7529 17.5091C52.0253 17.5991 52.2353 17.8332 52.401 18.1834Z" fill="#00A99D"/>
<path d="M79.095 8.1635C79.3771 8.7423 79.6588 9.36118 79.9315 10.0228C80.2056 10.6884 80.4714 11.3567 80.7246 12.0423C80.9806 12.7225 81.2134 13.3881 81.4176 14.0362C81.626 14.683 81.8021 15.2737 81.9474 15.7988C82.8146 16.0527 83.3801 16.3368 83.6424 16.6605C83.9048 16.9841 84.027 17.2995 84.0033 17.6174C83.9945 18.0501 83.8187 18.3236 83.4732 18.4433C83.1318 18.5616 82.6956 18.5729 82.1729 18.4745C81.9278 18.788 81.6479 19.1348 81.3208 19.5056C80.9993 19.879 80.6502 20.2524 80.2751 20.6164C79.9014 20.9844 79.5184 21.3244 79.1261 21.6363C78.7339 21.9482 78.3576 22.1973 78.0016 22.3824C77.3229 22.7152 76.6356 22.7848 75.9504 22.5967C75.2653 22.4086 74.7018 21.9776 74.2655 21.3063C73.9733 20.8504 73.7754 20.3465 73.673 19.7987C73.5693 19.2469 73.5729 18.6873 73.6881 18.1185C73.7992 17.551 74.0243 16.9958 74.3577 16.4634C74.6911 15.931 75.1364 15.4603 75.6924 15.0472C75.8288 14.9325 76.0272 14.8113 76.2958 14.6809C76.5603 14.5517 76.8452 14.4427 77.1518 14.3577C77.4583 14.2727 77.782 14.2399 78.1327 14.2471C78.4792 14.2557 78.8314 14.3511 79.1824 14.5267C79.0665 14.1605 78.9291 13.7569 78.7743 13.3146C78.6208 12.8762 78.4606 12.4312 78.2907 11.9848C78.1209 11.5384 77.9603 11.1201 77.7951 10.7298C77.6341 10.3382 77.486 10.0134 77.3522 9.74603C77.2038 9.43458 77.0093 9.27531 76.7729 9.2669C76.5364 9.2585 76.2792 9.35424 75.9998 9.56347C75.5205 9.90327 74.9987 10.434 74.4439 11.157C73.8891 11.88 73.3768 12.6204 72.9094 13.3863C72.7697 13.6439 72.5694 13.8012 72.3045 13.8595C72.0396 13.9178 71.7924 13.8907 71.5561 13.7714C71.3211 13.6562 71.1556 13.4876 71.0638 13.2644C70.9692 13.0465 70.9799 12.7727 71.0985 12.451C71.3532 11.9439 71.6495 11.4101 71.9887 10.8537C72.3279 10.2973 72.6998 9.77037 73.1043 9.27284C73.51 8.77932 73.9467 8.33795 74.4156 7.95272C74.8845 7.56749 75.3823 7.28383 75.9104 7.09237C76.6844 6.82652 77.3422 6.80624 77.8824 7.02752C78.4227 7.2488 78.8273 7.62879 79.095 8.1635ZM77.4418 16.3523C77.1727 16.5095 76.9095 16.7401 76.6481 17.0455C76.392 17.3537 76.1782 17.6926 76.0163 18.0636C75.8543 18.4346 75.7651 18.8178 75.7582 19.2145C75.7513 19.6112 75.8578 19.9626 76.0791 20.2729C76.1627 20.3879 76.2911 20.4575 76.4573 20.4752C76.6234 20.4928 76.7891 20.453 76.9541 20.3558C77.4545 20.0801 77.9965 19.6804 78.5788 19.1524C79.1612 18.6244 79.5946 18.1176 79.8766 17.6239C79.8344 17.4956 79.7126 17.3485 79.5168 17.1852C79.3169 17.0233 79.0949 16.8639 78.8493 16.7166C78.6038 16.5693 78.3537 16.45 78.0922 16.3654C77.8293 16.2768 77.6134 16.2751 77.4418 16.3523Z" fill="#00A99D"/>
<path d="M85.3084 7.64759C85.4816 7.95107 85.6667 8.29063 85.8733 8.66763C86.0799 9.04462 86.2932 9.42831 86.5189 9.82137C86.7445 10.2144 86.9603 10.6195 87.1637 11.0285C87.3684 11.4416 87.5569 11.8332 87.7263 12.2088C87.8165 11.5639 87.9155 10.8762 88.0259 10.1538C88.1364 9.43136 88.2946 8.74243 88.4906 8.09897C88.6908 7.45418 88.942 6.89496 89.243 6.4173C89.5453 5.94364 89.9404 5.62641 90.435 5.47229C91.17 5.24111 91.8747 5.30772 92.5437 5.66946C93.2127 6.03119 93.8438 6.54246 94.4357 7.19925C95.029 7.86004 95.5582 8.57683 96.0302 9.3563C96.5022 10.1358 96.9093 10.8296 97.2516 11.4379C97.5727 11.9821 97.4445 12.4974 96.8628 12.9853C96.5966 13.2346 96.371 13.3291 96.1779 13.2713C95.9848 13.2136 95.8621 13.1332 95.8057 13.0316C95.608 12.8069 95.3263 12.3964 94.9508 11.7988C94.5753 11.2011 94.1724 10.6034 93.7489 9.99897C93.3212 9.39589 92.8923 8.88629 92.4675 8.47287C92.0386 8.06078 91.6649 7.92793 91.3424 8.07565C90.9469 8.22459 90.6854 8.62752 90.5497 9.28711C90.4281 9.8225 90.3153 10.4127 90.2143 11.0523C90.1132 11.6919 90.0189 12.3382 89.9327 12.9952C89.8466 13.6522 89.7687 14.3065 89.6949 14.9595C89.6212 15.6126 89.5482 16.2121 89.4801 16.757C89.3714 16.9558 89.2109 17.1225 88.9918 17.2504C88.7727 17.3782 88.5298 17.4339 88.2575 17.4281C88.0113 17.4317 87.7974 17.3806 87.6146 17.2708C87.4318 17.161 87.3153 17.0299 87.2665 16.8815C86.5257 15.2575 85.8268 13.7884 85.1684 12.4704C84.51 11.1523 83.7843 9.82484 82.9845 8.48119C82.6675 8.03322 82.5133 7.64829 82.5206 7.32241C82.5292 7.00053 82.8197 6.7833 83.4018 6.67207C84.2342 6.55591 84.8692 6.8842 85.3084 7.64759Z" fill="#00A99D"/>
<path d="M107.926 1.11501C108.368 2.26307 108.817 3.41782 109.278 4.58193C109.739 5.74605 110.129 6.91539 110.458 8.08196C110.784 9.25387 111.029 10.4163 111.192 11.5786C111.355 12.7409 111.377 13.8949 111.25 15.0394C111.122 16.1838 110.827 17.3066 110.355 18.4064C109.883 19.5062 109.192 20.5789 108.272 21.6272C108.129 21.7926 107.954 21.9152 107.745 22.0043C107.541 22.0921 107.331 22.1506 107.121 22.1823C106.912 22.214 106.715 22.215 106.532 22.1893C106.35 22.1636 106.216 22.0913 106.132 21.9763C106.003 21.8051 105.969 21.5766 106.024 21.2976C106.082 21.0172 106.226 20.7009 106.456 20.3433C107.211 19.3214 107.793 18.306 108.209 17.2996C108.623 16.2892 108.883 15.2572 108.985 14.2008C109.092 13.1472 109.03 12.0545 108.799 10.9228C108.574 9.79382 108.181 8.59909 107.635 7.34267C107.471 7.74978 107.265 8.18352 107.017 8.6399C106.77 9.1003 106.489 9.52724 106.174 9.92073C105.86 10.3182 105.518 10.6716 105.151 10.9889C104.783 11.3062 104.41 11.5233 104.031 11.6402C103.719 11.7358 103.383 11.7727 103.029 11.74C102.674 11.7074 102.282 11.5585 101.853 11.288C101.351 10.9439 100.867 10.5317 100.404 10.0461C99.9421 9.56046 99.5224 9.07893 99.1494 8.60015C98.7764 8.12137 98.4551 7.68808 98.1965 7.2923C97.9337 6.89784 97.7643 6.61975 97.6868 6.454C97.5741 6.25079 97.5068 6.04633 97.489 5.83927C97.4713 5.63221 97.5768 5.46543 97.8123 5.34561C98.1269 5.17384 98.4457 5.09823 98.7728 5.11747C99.0986 5.13271 99.3556 5.24533 99.5413 5.44732C99.7062 5.65596 99.9478 5.98626 100.265 6.43423C100.582 6.8822 100.931 7.31553 101.306 7.73154C101.685 8.14622 102.063 8.49946 102.437 8.78725C102.811 9.07503 103.146 9.17176 103.437 9.08275C103.774 8.97913 104.115 8.69253 104.47 8.2243C104.824 7.75607 105.13 7.19694 105.388 6.54691C105.646 5.89687 105.827 5.2053 105.919 4.47085C106.018 3.73907 105.968 3.0725 105.773 2.46579C105.73 2.3375 105.705 2.17718 105.694 1.99017C105.683 1.80316 105.695 1.61752 105.732 1.42391C105.771 1.23431 105.832 1.05944 105.914 0.904643C106 0.748515 106.105 0.635159 106.231 0.572593C106.574 0.418226 106.924 0.408121 107.273 0.548943C107.635 0.689788 107.848 0.878468 107.926 1.11501Z" fill="#00A99D"/>
<path d="M46.3069 39.6507C46.4411 39.9888 46.6142 40.4032 46.8357 40.8951C47.0517 41.3843 47.2839 41.8949 47.5282 42.4282C47.7712 42.9575 48.017 43.4815 48.2698 43.9988C48.5226 44.5161 48.7512 44.988 48.9666 45.4198C49.0596 44.867 49.1763 44.1913 49.3099 43.3862C49.4449 42.585 49.6085 41.8012 49.7938 41.0416C49.979 40.2819 50.2084 39.6144 50.4791 39.0445C50.7497 38.4747 51.0543 38.1333 51.3873 38.031C51.7451 37.9207 52.1279 37.9841 52.5372 38.2252C52.9465 38.4663 53.3368 38.7888 53.7136 39.1955C54.0903 39.6022 54.4486 40.0502 54.7871 40.5356C55.1269 41.025 55.4207 41.4583 55.6631 41.8326C55.6619 41.5228 55.6779 41.1675 55.7068 40.7682C55.7399 40.3676 55.7773 39.9522 55.8232 39.5209C55.8691 39.0895 55.9384 38.6596 56.0338 38.2257C56.1293 37.7917 56.2517 37.3979 56.408 37.0375C56.5992 36.6438 56.8429 36.3264 57.1325 36.0784C57.4234 35.8345 57.6455 35.6879 57.803 35.6374C58.002 35.5736 58.2635 35.5607 58.5808 35.592C58.8981 35.6232 59.2328 35.6932 59.5876 35.7967C59.9383 35.9014 60.2884 36.0462 60.631 36.2378C60.9736 36.4294 61.2719 36.6396 61.5176 36.871C62.017 37.358 62.4714 37.9171 62.885 38.5469C63.2943 39.178 63.6489 39.7957 63.9376 40.3945C64.2264 40.9934 64.4679 41.532 64.6566 42.0078C64.8453 42.4836 64.9823 42.8164 65.0664 43.0022C65.1546 43.2842 65.1901 43.5033 65.17 43.6649C65.1498 43.8265 65.0624 43.9786 64.9119 44.1199C64.7017 44.3026 64.498 44.4077 64.3092 44.4328C64.1204 44.4579 63.9516 44.4322 63.8082 44.3585C63.6606 44.2861 63.5327 44.1898 63.4202 44.0707C63.3076 43.9516 63.2253 43.8406 63.1648 43.7404C62.939 43.2632 62.7022 42.7806 62.456 42.2833C62.2112 41.7901 61.9675 41.3142 61.7194 40.853C61.4727 40.3958 61.2241 39.9746 60.9653 39.5922C60.7065 39.2098 60.4594 38.8768 60.2199 38.5946C60.1466 38.525 60.0379 38.4313 59.8922 38.3229C59.7465 38.2144 59.5897 38.114 59.4273 38.0243C59.2635 37.9305 59.1118 37.8594 58.9722 37.8111C58.8312 37.7588 58.7353 37.7319 58.686 37.7212C58.4621 37.7929 58.2905 38.0651 58.1725 38.5417C58.0544 39.0184 57.9752 39.5712 57.932 40.2056C57.8888 40.8399 57.87 41.493 57.8771 42.1689C57.8842 42.8447 57.9149 43.4111 57.9621 43.8747C58.1427 44.4373 58.1625 44.8874 58.0271 45.2278C57.8917 45.5681 57.699 45.7762 57.4544 45.8546C57.2099 45.933 56.9171 45.9205 56.5786 45.8251C56.2402 45.7297 55.9879 45.5757 55.823 45.367C55.5768 45.0648 55.3079 44.7211 55.012 44.3372C54.7161 43.9534 54.4134 43.5629 54.1013 43.1577C53.7905 42.7565 53.4782 42.3646 53.1699 41.9848C52.8616 41.6049 52.5761 41.2665 52.3092 40.9709C52.1288 41.4808 51.9657 42.0295 51.8254 42.6197C51.681 43.2111 51.5572 43.8093 51.4414 44.4181C51.3298 45.0257 51.2238 45.6225 51.1331 46.2101C51.0382 46.7989 50.9402 47.3224 50.8443 47.783C50.7647 48.07 50.6634 48.333 50.5445 48.5705C50.4257 48.8081 50.2405 48.9694 49.9946 49.0438C49.8164 49.1009 49.598 49.0778 49.3449 48.9773C49.0918 48.8767 48.8352 48.7373 48.5832 48.5566C48.3271 48.3772 48.0799 48.1551 47.8386 47.8956C47.5933 47.6374 47.3948 47.3686 47.2282 47.0851C46.7534 46.2135 46.2718 45.2377 45.7943 44.163C45.3127 43.0897 44.8473 42.0378 44.3952 41.0126C44.2544 40.6544 44.1961 40.2963 44.2175 39.9437C44.2389 39.5912 44.4107 39.3056 44.737 39.0858C45.0945 38.9047 45.4031 38.8678 45.6588 38.9765C45.9313 39.0664 46.1399 39.2965 46.3069 39.6507Z" fill="#1E1E1E"/>
<path d="M72.5515 30.5195C73.2994 30.5501 73.9764 30.7275 74.5853 31.0598C75.1941 31.392 75.7191 31.8176 76.1549 32.3339C76.5919 32.8542 76.9293 33.4198 77.1601 34.0372C77.3949 34.6533 77.5075 35.2599 77.502 35.8556C77.4513 36.5367 77.3261 37.2284 77.1361 37.9319C76.942 38.6368 76.6757 39.2895 76.3261 39.898C75.9806 40.5052 75.5411 41.0494 75.0049 41.5227C74.4701 41.9999 73.8227 42.3582 73.0616 42.5933C72.1429 42.8789 71.3074 42.9163 70.5539 42.7013C69.7962 42.4877 69.1357 42.11 68.5695 41.5734C68.0034 41.0369 67.5381 40.375 67.1763 39.5823C66.8118 38.795 66.5661 37.9652 66.4378 37.1021C66.3352 36.4702 66.2946 35.8317 66.3227 35.1933C66.3509 34.5549 66.4623 33.9607 66.657 33.4107C66.8476 32.8621 67.1198 32.3804 67.464 31.9642C67.8081 31.5481 68.2607 31.2523 68.8216 31.0769C69.1325 30.9773 69.5432 30.9165 70.0512 30.8866C70.5605 30.8608 71.047 30.891 71.5204 30.9786C71.7274 30.633 72.0706 30.4786 72.5515 30.5195ZM72.0357 33.2821C71.741 33.2081 71.3932 33.098 70.9867 32.9491C70.5816 32.8042 70.2575 32.7663 70.0129 32.8447C69.7435 32.931 69.5206 33.131 69.3402 33.4459C69.1611 33.7648 69.0228 34.1105 68.9338 34.4804C68.846 34.8542 68.7845 35.2241 68.7533 35.5887C68.7234 35.9573 68.7167 36.2431 68.7344 36.4501C68.7708 36.7975 68.8519 37.197 68.9762 37.658C69.1004 38.119 69.2773 38.5587 69.5095 38.9718C69.7417 39.3849 70.0436 39.7313 70.4139 40.0071C70.7842 40.2828 71.25 40.4172 71.8155 40.4088C72.1554 40.3973 72.523 40.275 72.9154 40.0473C73.3079 39.8196 73.6685 39.5089 74.0027 39.1182C74.3327 38.7287 74.6143 38.2617 74.842 37.7144C75.0739 37.1659 75.1975 36.5811 75.2172 35.9587C75.2393 35.2602 75.0338 34.608 74.6064 33.9916C74.1747 33.3765 73.5896 33.0189 72.8427 32.9215C72.7208 33.0802 72.5805 33.1828 72.4271 33.232C72.2696 33.2825 72.1373 33.2983 72.0357 33.2821Z" fill="#1E1E1E"/>
<path d="M88.4452 25.695C88.113 26.0364 87.7683 26.3951 87.4055 26.7685C87.0468 27.1405 86.6971 27.554 86.3635 28.0022C86.0299 28.4504 85.7314 28.9495 85.4748 29.4927C85.2183 30.0359 85.0268 30.6513 84.9018 31.3296C84.7192 32.2923 84.687 33.2245 84.8009 34.1276C84.9191 35.0294 85.0858 35.8978 85.3066 36.7356C85.4305 37.1259 85.4645 37.5493 85.4003 38.0087C85.3361 38.468 85.1396 38.7482 84.8039 38.8558C84.3798 38.9873 83.9699 38.8838 83.5785 38.5439C83.1871 38.204 82.8839 37.8536 82.6688 37.4926C81.7944 36.0753 80.9971 34.6556 80.2715 33.2306C79.5458 31.8055 78.8504 30.3752 78.195 28.941C78.1002 28.639 78.1308 28.412 78.2938 28.2667C78.4567 28.1213 78.6617 28.0202 78.9184 27.9645C79.1957 27.9022 79.4697 27.8853 79.7512 27.9191C80.0327 27.953 80.2345 28.0789 80.3538 28.3021C80.6993 29.0734 81.0788 29.8781 81.495 30.7109C81.9112 31.5437 82.2865 32.2522 82.6208 32.8364C82.4747 32.0722 82.4898 31.2828 82.6703 30.4671C82.8509 29.6513 83.1479 28.8691 83.5613 28.1205C83.9748 27.3718 84.4919 26.6875 85.1167 26.0661C85.7416 25.4448 86.424 24.9423 87.1637 24.5723C87.4862 24.4245 87.764 24.3355 88.0023 24.3078C88.2407 24.2802 88.4191 24.3072 88.5459 24.3862C88.6686 24.4666 88.7419 24.6336 88.7618 24.8888C88.779 25.1359 88.6761 25.4082 88.4452 25.695Z" fill="#1E1E1E"/>
<path d="M99.712 26.0942C98.9984 26.8636 98.1857 27.5408 97.2642 28.1243C96.3482 28.7105 95.3031 29.1829 94.144 29.5456C94.4294 30.2874 94.847 30.8183 95.3915 31.1358C95.9359 31.4532 96.5259 31.561 97.1559 31.4566C97.5269 31.3864 97.8849 31.2628 98.234 31.0844C98.5818 30.902 98.8942 30.6955 99.1754 30.4502C99.4539 30.2102 99.7009 29.9582 99.9149 29.7034C100.129 29.4487 100.308 29.2005 100.451 28.9644C100.597 28.7269 100.773 28.5508 100.979 28.427C101.186 28.3031 101.351 28.2459 101.477 28.2542C101.825 28.2668 102.038 28.5529 102.125 29.1234C101.99 29.9246 101.665 30.676 101.152 31.3724C100.638 32.0687 99.9872 32.6099 99.2032 32.9986C98.5312 33.3515 97.7815 33.5519 96.9611 33.5933C96.1366 33.636 95.3356 33.4717 94.5526 33.0978C93.8778 32.7601 93.2996 32.2983 92.8181 31.7125C92.3366 31.1267 91.9466 30.4849 91.6508 29.7952C91.3683 29.1456 91.2261 28.4909 91.2216 27.8231C91.2185 27.1593 91.3414 26.5304 91.5958 25.9391C91.8503 25.3478 92.2278 24.8102 92.734 24.3155C93.2415 23.8248 93.8907 23.4306 94.6789 23.138C95.6179 22.7749 96.5464 22.6723 97.4588 22.8408C98.3712 23.0092 99.1029 23.4085 99.6525 24.0478C99.9625 24.405 100.13 24.7458 100.146 25.0731C100.156 25.3977 100.017 25.7394 99.712 26.0942ZM95.1495 25.0969C94.9389 25.2087 94.7236 25.362 94.5009 25.5486C94.2782 25.7352 94.0868 25.9473 93.9282 26.1754C93.7696 26.4035 93.6383 26.6451 93.5357 26.904C93.433 27.163 93.4129 27.422 93.4738 27.6906C93.8523 27.5737 94.2604 27.4074 94.7007 27.1998C95.1369 26.9935 95.5582 26.7698 95.963 26.5381C96.3679 26.3063 96.733 26.0652 97.0597 25.8186C97.3864 25.5721 97.6483 25.3374 97.8481 25.1094C97.5394 24.7562 97.1275 24.6046 96.6137 24.6585C96.1027 24.7071 95.6151 24.8546 95.1495 25.0969Z" fill="#1E1E1E"/>
</svg>
