<svg width="324" height="379" viewBox="0 0 324 379" fill="none" xmlns="http://www.w3.org/2000/svg">
<path d="M141.07 94.7978C141.436 93.593 141.917 92.4262 142.505 91.3132C143.268 89.9089 144.399 88.7389 145.775 87.9279C147.688 86.8824 149.932 86.622 152.033 87.2017C153.4 87.6026 154.689 88.2333 155.845 89.0668C156.739 89.6101 157.492 90.3586 158.041 91.2505C158.552 92.1618 158.846 93.1791 158.901 94.2231C158.92 95.1771 158.703 96.121 158.27 96.9711C158.226 97.1066 158.19 97.2444 158.161 97.3838C158.161 97.6084 158.161 97.8383 158.161 98.0681C158.338 98.9406 158.552 99.8078 158.792 100.68C158.981 101.394 159.067 102.131 159.047 102.869C159.699 105.92 158.088 109.541 154.056 109.541C153.26 109.549 152.471 109.383 151.746 109.055H151.589C150.573 109.076 149.56 108.93 148.591 108.621C146.502 107.962 144.76 106.5 143.746 104.557C143.683 104.431 143.668 104.316 143.615 104.196C143.563 104.076 143.506 104.133 143.454 104.092C142.258 103.039 141.372 101.679 140.893 100.158C140.835 99.9701 140.794 99.7779 140.768 99.5832C140.628 98.9448 140.558 98.2932 140.559 97.6398C140.612 96.675 140.784 95.7204 141.07 94.7978Z" fill="#FBB03B"/>
<path d="M110.791 51.7985C111.568 46.214 114.609 38.9003 121.394 37.5264C127.25 36.3614 134.515 36.0846 138.833 40.5668C140.815 42.6251 141.853 45.1535 143.386 47.473C144.919 49.7924 146.604 51.8298 148.116 54.0657C149.725 56.3154 150.942 58.8218 151.715 61.4786C152.052 62.6693 152.095 63.9244 151.84 65.1354C153.404 66.6765 153.926 69.0848 151.84 71.002C149.232 73.3894 145.66 74.0738 142.114 73.5618C139.042 73.1178 136.377 71.6446 133.482 70.8296C130.809 70.1228 128.059 69.7508 125.295 69.7221C121.696 69.5706 118.275 68.9908 115.464 66.8019C110.895 63.2182 110.071 56.9232 110.791 51.7985Z" fill="#FBB03B"/>
<path d="M91.7141 75.0091C91.7141 74.9412 91.7454 74.8785 91.7663 74.8106C91.8593 74.5528 91.9655 74.3 92.0844 74.0531C92.1143 73.9922 92.1474 73.9329 92.1835 73.8755C92.2721 73.7344 92.3817 73.6038 92.4807 73.4732C92.5853 73.3258 92.7003 73.1861 92.8249 73.0553L92.9762 72.9194C93.1848 72.7523 93.4038 72.5746 93.6281 72.397C93.9384 72.2135 94.267 72.0629 94.6085 71.9477C94.7225 71.905 94.8393 71.8701 94.9579 71.8433C95.3111 71.7659 95.6709 71.7222 96.0323 71.7126H96.2357C96.5298 71.7387 96.8222 71.7805 97.1118 71.838C97.1741 71.8499 97.2352 71.8673 97.2943 71.8903C97.5729 71.985 97.8447 72.0984 98.1079 72.2298C98.7222 72.5609 99.2289 73.0612 99.5682 73.6717C99.7344 73.9611 99.8541 74.2749 99.9228 74.6016C99.9797 74.8823 100.015 75.1671 100.027 75.4532C100.016 75.7412 99.9809 76.0277 99.9228 76.31C99.7721 76.9731 99.4398 77.581 98.9632 78.0653C98.8938 78.1289 98.8207 78.1882 98.7442 78.2429C98.6242 78.4101 98.499 78.5721 98.3739 78.7288C98.3431 78.7753 98.3062 78.8174 98.2644 78.8542C97.5429 79.5768 96.5675 79.9875 95.5473 79.9983C94.8723 80.0118 94.206 79.8441 93.6176 79.5124C93.0368 79.1787 92.5504 78.7022 92.2043 78.128C91.8508 77.5435 91.6433 76.8822 91.5994 76.2003C91.5889 76.0891 91.5889 75.9771 91.5994 75.8659C91.6219 75.5784 91.6602 75.2924 91.7141 75.0091Z" fill="#1E1E1E"/>
<path d="M109.055 62.6228C112.468 62.1495 115.945 62.5429 119.167 63.767C122.313 65.0333 125.326 66.6082 128.163 68.4688C128.767 68.8273 129.206 69.4107 129.382 70.0918C129.559 70.7729 129.459 71.4963 129.105 72.1041C128.751 72.7119 128.172 73.1547 127.493 73.3359C126.814 73.5171 126.091 73.422 125.482 73.0713C123.13 71.6085 120.465 69.9368 118.035 69.0121C116.701 68.4965 115.322 68.1065 113.915 67.8471L113.66 67.7948H113.409C113.002 67.753 112.601 67.7269 112.194 67.7165C111.886 67.7165 111.584 67.7165 111.281 67.7165C111.078 67.7165 110.875 67.7165 110.671 67.753C110.332 67.7896 110.264 67.7948 110.468 67.753C109.096 67.9411 107.547 67.4187 107.198 65.888C106.911 64.6446 107.584 62.8266 109.055 62.6228Z" fill="#1E1E1E"/>
<path d="M110.244 75.7877V75.8556C110.24 76.2299 110.289 76.6027 110.39 76.9632C110.479 77.2466 110.591 77.5226 110.723 77.7886C110.757 77.8576 110.795 77.924 110.838 77.9871C111.146 78.4824 111.559 78.9035 112.048 79.22C112.326 79.4088 112.635 79.5484 112.961 79.6327C113.298 79.7362 113.652 79.7769 114.004 79.7529C114.335 79.7393 114.662 79.6831 114.979 79.5857C115.249 79.4877 115.512 79.3707 115.766 79.2357C115.997 79.0763 116.216 78.9018 116.424 78.7133C116.658 78.4888 116.866 78.2382 117.044 77.9662C117.231 77.6762 117.377 77.3615 117.477 77.0311C117.477 76.9893 117.477 76.9423 117.477 76.9005C117.56 76.7176 117.722 76.5818 117.769 76.378C117.947 75.7372 117.947 75.0598 117.769 74.419C117.692 74.1103 117.563 73.8171 117.388 73.5517C117.103 73.0929 116.716 72.7066 116.257 72.4233C115.851 72.1841 115.387 72.0595 114.916 72.0628L114.207 72.1569C114.013 72.085 113.814 72.0257 113.613 71.9792H113.44C113.154 72.0002 112.87 72.0421 112.59 72.1046C112.272 72.1864 111.967 72.3168 111.688 72.4912C111.22 72.7731 110.833 73.173 110.567 73.651C110.322 74.0946 110.187 74.5911 110.176 75.0981C110.165 75.33 110.188 75.5623 110.244 75.7877Z" fill="#1E1E1E"/>
<path d="M98.3269 86.899C104.345 83.5137 110.218 90.2529 114.885 93.2464C117.811 95.1222 120.86 96.7978 124.012 98.2617C126.932 99.62 131.042 101.945 134.338 100.9C138.958 99.4371 144.726 92.5777 140.846 87.8393C138.896 85.4727 134.875 86.5228 132.419 87.4789C131.375 87.8916 130.098 88.5237 129.811 89.7357C129.618 90.5455 130.181 91.6269 130.854 90.5246C132.627 87.599 137.227 90.2738 135.443 93.2151C133.879 95.8272 130.505 97.0706 127.667 95.6861C124.585 94.1815 123.782 90.4619 125.013 87.4266C126.312 84.2607 129.451 82.6621 132.606 81.8732C136.179 80.9747 140.147 80.5515 143.271 82.8763C148.815 87.0034 148.179 94.7719 144.283 99.7506C142.108 102.535 138.864 105.231 135.386 106.119C131.386 107.164 127.48 105.508 123.85 103.961C119.678 102.193 115.665 100.07 111.855 97.6139C109.941 96.3757 108.121 95.0331 106.306 93.6644C105.044 92.7135 102.656 90.5298 101.002 91.4858C98.0296 93.1837 95.3438 88.5864 98.3269 86.899Z" fill="#1E1E1E"/>
<path d="M62.2743 244.205C61.8884 242.638 60.5168 241.755 59.333 240.825C56.774 238.812 54.1751 236.855 51.5363 234.953C50.3681 234.112 48.5741 234.749 47.8856 235.909C47.8315 236.03 47.7896 236.156 47.7605 236.285C45.4606 236.912 44.2715 239.785 43.0668 241.786C41.5901 244.16 39.6549 246.215 37.3749 247.829C35.0948 249.444 32.5157 250.586 29.789 251.189C26.4513 251.942 27.8646 257.066 31.2023 256.325C33.1546 255.911 35.1837 256.055 37.0583 256.74C38.9329 257.425 40.5776 258.624 41.8048 260.201C42.8791 261.653 44.574 261.935 45.9769 260.723C50.8896 256.544 56.0422 252.548 60.7671 248.185C61.8728 247.167 62.6446 245.772 62.2743 244.205Z" fill="#00A99D"/>
<path d="M118.932 223.398C119.925 223.168 120.842 222.684 121.592 221.992C121.645 221.945 121.695 221.894 121.743 221.841C123.01 221.465 124.234 220.955 125.394 220.321C134.781 215.583 142.218 219.276 142.333 228.82C142.406 234.844 143.819 240.501 144.612 246.321C145.775 254.831 142.526 258.587 133.806 258.336C130.976 258.338 128.152 258.086 125.368 257.584C121.326 256.722 119.766 258.874 118.828 262.17C118.353 259.402 117.529 256.649 117.456 253.869C117.195 243.855 116.971 233.841 116.721 223.826C117.479 223.828 118.23 223.682 118.932 223.398Z" fill="#FBB03B"/>
<path d="M154.26 227.196C157.018 223.758 161.097 223.168 165.212 223.016C168.122 222.917 170.343 226.203 170.114 228.857C170.016 230.144 169.414 231.34 168.44 232.185C168.674 233.2 168.674 234.256 168.44 235.272C168.148 236.432 168.758 238.135 168.961 239.253C169.311 241.044 169.671 242.842 170.056 244.628C170.7 247.749 171.508 250.834 172.476 253.87C173.629 257.359 175.762 260.614 176.648 264.14C176.959 265.232 177.027 266.379 176.847 267.5C176.666 268.621 176.243 269.689 175.605 270.628C174.223 272.566 171.955 273.24 169.801 273.872C166.15 274.917 162.239 276.453 158.771 274.003C155.433 271.642 155.506 266.444 154.917 262.792C153.676 255.102 152.194 247.418 151.934 239.613C151.819 235.659 151.652 230.461 154.26 227.196Z" fill="#FBB03B"/>
<path d="M121.425 273.214C121.344 273.045 121.274 272.87 121.216 272.692C120.836 269.97 122.536 266.741 125.535 266.423C129.289 266 133.086 265.378 136.867 265.263C138.048 265.214 139.225 265.434 140.309 265.907C141.393 266.379 142.356 267.091 143.125 267.99C144.346 269.515 144.726 271.229 144.758 273.125C144.758 273.601 144.726 274.076 144.695 274.557C144.826 275.46 145.024 276.353 145.29 277.226C145.724 278.689 145.964 280.203 146.004 281.729C146.108 285.537 143.605 288.865 140.33 290.547C137.404 292.047 133.853 292.031 130.682 291.524C127.871 291.075 124.877 290.265 122.703 288.317C121.31 287.184 120.232 285.71 119.574 284.038C118.925 282.366 118.704 280.557 118.932 278.778C119.26 276.736 120.12 274.817 121.425 273.214Z" fill="#FBB03B"/>
<path d="M152.215 300.625C153.227 299.261 155.344 297.976 155.918 296.445C155.949 296.372 155.949 296.409 155.955 296.445C155.96 296.482 155.955 296.404 155.955 296.336C156.038 295.761 155.459 294.998 155.313 294.387C155.108 293.623 155.022 292.832 155.058 292.041C155.271 288.703 157.519 286.817 160.273 285.313C164.925 282.8 169.613 280.34 174.281 277.853C176.852 276.49 180.247 277.853 181.457 280.418C181.765 281.061 181.937 281.761 181.963 282.474C181.989 283.186 181.868 283.897 181.608 284.561C182.491 285.048 183.214 285.781 183.69 286.671C184.165 287.561 184.373 288.57 184.289 289.576C184.064 293.17 185.744 296.534 187.131 299.784C188.831 303.775 190.234 307.792 190.317 312.17C190.379 314.328 189.999 316.477 189.201 318.483C188.403 320.489 187.203 322.311 185.676 323.835C182.682 326.724 178.515 327.68 174.583 328.5C170.328 329.388 165.17 330.783 160.852 329.827C156.121 328.782 154.442 324.007 152.836 319.974C151.183 315.827 149.326 311.271 149.822 306.711C150.066 304.505 150.892 302.404 152.215 300.625Z" fill="#FBB03B"/>
<path d="M126.061 306.026C126.602 304.74 127.569 303.681 128.799 303.027C131.975 301.194 136.294 301.983 138.912 304.391C140.376 305.746 141.361 307.541 141.717 309.505C141.916 310.742 142 311.994 141.968 313.246C142.138 315.829 142.611 318.384 143.376 320.857C143.417 320.977 143.459 321.097 143.506 321.218C143.971 322.315 144.089 323.53 143.845 324.697C143.61 325.742 143.042 327.027 142.103 327.659C140.819 328.654 139.258 329.225 137.636 329.291C136.013 329.357 134.411 328.917 133.05 328.03C131.944 327.398 131.078 325.809 130.859 324.603C130.604 323.162 130.926 321.679 131.756 320.476C131.855 320.35 131.996 320.267 132.106 320.147C131.991 319.624 131.84 319.133 131.746 318.611C131.475 316.843 131.318 315.06 131.276 313.272C130.583 313.287 129.893 313.179 129.237 312.953C127.925 312.455 126.853 311.472 126.244 310.205C125.938 309.556 125.765 308.852 125.733 308.134C125.702 307.417 125.813 306.7 126.061 306.026Z" fill="#FBB03B"/>
<path d="M135.741 348.132C137.102 357.143 139.554 365.955 143.042 374.372C143.763 376.191 144.957 377.784 146.5 378.985H170.296C173.832 378.322 177.149 376.995 178.583 373.192C180.148 369.013 178.223 364.63 176.972 360.654C175.72 356.679 174.479 352.63 173.196 348.639C171.913 344.648 169.942 340.651 165.603 339.283C163.386 338.572 160.909 338.614 158.614 338.483C156.414 338.361 154.211 338.26 152.007 338.18C147.605 338.03 143.198 337.968 138.786 337.992C135.866 337.992 133.227 339.774 132.961 342.903C132.911 343.944 133.143 344.98 133.632 345.901C134.122 346.821 134.85 347.592 135.741 348.132Z" fill="#FBB03B"/>
<path d="M203.585 371.609C207.587 374.596 211.943 377.074 216.555 378.985H221.77C222.53 378.613 223.2 378.078 223.731 377.418C225.092 375.652 225.066 372.44 223.449 370.831C221.253 368.635 219.265 366.241 217.509 363.679C217.384 363.491 217.269 363.308 217.144 363.125C217.019 362.942 216.863 362.66 216.805 362.566C216.425 361.934 216.06 361.297 215.71 360.649C215.011 359.353 214.365 358.037 213.786 356.679C213.462 355.926 213.158 355.167 212.873 354.401L212.545 353.476L212.456 353.246C212.458 353.224 212.458 353.201 212.456 353.179C211.997 351.564 211.668 349.736 210.891 348.263C210.289 347.119 209.401 346.151 208.315 345.452C207.739 345.058 207.098 344.768 206.422 344.595L205.499 344.386C204.612 344.198 204.555 344.177 205.316 344.329C205.16 344.261 205.003 344.198 204.842 344.141L204.471 343.801C204.471 343.801 204.471 343.801 204.44 343.801C204.425 343.751 204.406 343.702 204.383 343.655C204.237 343.422 204.073 343.2 203.893 342.992C203.705 340.515 201.603 338.05 199.079 338.029C196.331 338.029 193.504 338.133 191.074 339.559C189.645 340.395 188.452 341.58 187.607 343.003C186.761 344.427 186.29 346.043 186.239 347.699C186.004 353.037 188.565 357.917 192.117 361.735C195.501 365.403 199.554 368.642 203.585 371.609Z" fill="#FBB03B"/>
<path d="M208.701 378.985C206.62 377.691 204.382 376.671 202.041 375.95C195.423 374.106 188.56 375.731 182.51 378.985H208.701Z" fill="#FBB03B"/>
<path d="M136.898 198.934C137.357 196.546 137.827 194.164 138.286 191.777C138.811 189.081 139.332 186.386 139.85 183.69C140.304 181.355 140.601 178.926 141.248 176.637C142.26 173.064 144.951 170.609 148.716 170.369C151.261 170.222 153.895 170.551 156.434 170.661C159.245 170.787 161.952 173.054 161.817 176.058C161.786 176.252 161.743 176.444 161.686 176.632C162.654 177.621 163.37 178.828 163.772 180.153C164.419 182.452 164.617 184.949 164.92 187.305C165.212 189.557 165.441 191.808 165.561 194.07C165.681 196.332 165.744 198.594 165.712 200.861C165.676 203.374 165.863 206.482 165.159 208.901C163.376 215.065 155.548 213.66 150.703 213.044C145.613 212.396 138.239 211.936 136.622 205.908C136.022 203.583 136.45 201.264 136.898 198.934Z" fill="#FBB03B"/>
<path d="M70.5666 110.381C70.8482 107.827 71.1611 105.157 72.5692 102.926C73.4999 101.453 74.7954 100.245 76.3297 99.4212C77.864 98.5973 79.585 98.1851 81.3255 98.2245C84.0233 98.2684 86.6675 98.9867 89.0178 100.314C91.5404 101.752 93.641 103.83 95.1092 106.338C96.5329 108.772 95.7454 112.361 93.1796 113.72C92.1356 114.244 90.9571 114.439 89.8001 114.279C89.2437 115.491 88.4169 116.559 87.3834 117.4C86.3499 118.242 85.1374 118.834 83.8392 119.132C82.7263 119.424 81.5837 119.587 80.4337 119.618C79.6104 120.553 78.4801 121.163 77.2472 121.337C75.2029 121.608 72.8821 120.663 71.8808 118.761C70.4883 116.138 70.2537 113.302 70.5666 110.381Z" fill="#00A99D"/>
<path d="M108.622 149.128C107.693 151.996 109.712 154.875 112.382 155.763C116.46 157.111 120.575 158.344 124.726 159.462C126.812 160.026 129.18 160.924 131.36 160.945C132.931 160.925 134.45 160.372 135.667 159.377C136.885 158.382 137.731 157.003 138.067 155.465C138.536 153.501 138.374 151.395 138.379 149.395C138.379 147.012 138.703 144.405 137.54 142.237C136.293 139.918 133.415 138.915 130.943 139.547C130.698 139.61 129.545 140.31 129.378 140.205C129.295 140.148 130.473 139.871 129.858 139.98C129.696 140.007 129.498 140.069 129.3 140.111C129.249 140.129 129.197 140.141 129.143 140.148C128.99 140.178 128.839 140.216 128.69 140.263L128.919 140.184H128.398C127.928 140.184 127.459 140.168 126.99 140.137C126.129 140.085 125.269 139.996 124.408 139.923L112.982 138.925C109.978 138.653 107.714 141.61 107.594 144.317C107.559 145.018 107.681 145.719 107.952 146.367C108.223 147.016 108.635 147.595 109.159 148.062C108.945 148.399 108.765 148.756 108.622 149.128Z" fill="#FBB03B"/>
<path d="M128.924 140.184C129.383 140.038 129.446 140.054 129.305 140.111L129.149 140.147C129.076 140.169 129 140.181 128.924 140.184Z" fill="#FBB03B"/>
<path d="M116.757 202.329C115.851 201.954 114.889 201.735 113.91 201.681C113.779 201.681 113.659 201.681 113.534 201.713C112.206 189.75 110.881 177.788 109.56 165.829C116.783 164.533 123.078 166.842 128.909 170.865C130.703 172.103 132.152 174.072 131.516 176.089C128.538 185.205 129.545 196.463 118.28 201.295C117.701 201.519 117.18 201.873 116.757 202.329Z" fill="#FBB03B"/>
<path d="M153.947 118.776C144.518 120.542 144.961 120.599 144.586 134.803C144.367 143.13 148.314 145.617 155.433 145.774C155.868 144.771 156.306 143.771 156.747 142.775C157.107 135.174 157.853 127.557 156.049 120.019L153.947 118.776Z" fill="#FBB03B"/>
<path d="M114.025 126.309C114.087 128.472 114.656 132.448 120.559 132.281C125.503 132.145 132.387 123.436 131.981 116.9C131.652 111.645 127.433 110.548 123.031 110.516C116.987 110.469 114.025 115.056 114.025 126.309Z" fill="#FBB03B"/>
<path d="M134.64 334.931C134.781 336.012 134.917 337.02 135.052 338.118C135.699 344.668 136.537 351.158 137.566 357.587C137.634 357.922 137.707 358.256 137.769 358.596C138.661 363.203 139.031 367.895 139.855 372.513C140.231 374.686 140.831 376.807 141.258 378.964H146.317C143.751 363.935 140.7 348.785 139.495 333.275C139.323 331.112 138.499 329.247 137.029 329.247C136.366 329.247 135.662 329.837 135.172 330.699L135.104 330.736L134.995 330.846L134.953 330.908L134.906 331.034V331.102C134.906 331.227 134.87 331.358 134.849 331.478C134.641 332.053 134.552 332.664 134.588 333.275C134.588 333.62 134.666 333.954 134.692 334.32C134.651 334.523 134.64 334.727 134.64 334.931Z" fill="#1E1E1E"/>
<path d="M43.9797 90.7856C48.7568 94.4007 55.1037 94.4842 61.0333 93.8312C59.8703 95.8425 58.7438 97.9321 57.6643 100.022L57.294 100.732C55.1506 104.911 52.9237 109.211 53.4922 113.448C53.9772 117.104 56.6213 120.531 60.3657 122.328C67.9956 125.985 78.5146 123.577 88.0948 120.442C88.1106 121.482 88.2365 122.517 88.4703 123.53C88.7624 124.972 89.1014 126.408 89.5134 127.829C89.9254 129.25 90.3426 130.661 90.8641 132.04C91.297 133.21 91.8237 134.129 93.0962 134.526C93.7127 134.693 94.3664 134.653 94.9583 134.413C95.5502 134.174 96.0481 133.748 96.3766 133.2C97.1067 132.05 97.3674 130.405 97.6908 129.093C98.0141 127.782 98.3009 126.346 98.6034 124.972C98.9059 123.598 99.198 122.328 99.5839 121.033C99.7873 120.369 100.006 119.706 100.257 119.058C100.304 118.928 100.356 118.797 100.408 118.672C100.408 118.64 100.408 118.672 100.408 118.63C100.408 118.588 100.408 118.63 100.455 118.536C100.59 118.243 100.731 117.951 100.877 117.658C101.075 117.276 101.18 116.854 101.186 116.424C101.191 115.994 101.096 115.569 100.909 115.182C102.306 114.498 103.704 113.876 105.081 113.092C105.806 112.674 107.036 111.969 108.575 112.429C110.113 112.889 110.911 114.242 111.292 114.957C111.927 116.181 112.39 117.488 112.669 118.839C113.227 121.202 113.393 123.641 113.159 126.058C109.143 168.974 110.494 210.938 117.164 250.793C120.596 271.302 123.944 290.187 127.245 307.912C127.443 307.385 127.81 306.939 128.288 306.643C128.782 306.363 129.307 306.142 129.853 305.985C130.288 305.854 130.752 305.854 131.188 305.985C124.93 273.658 118.395 233.997 116.335 193.725C115.188 173.037 115.486 152.294 117.227 131.648C117.3 130.791 117.399 129.929 117.493 129.036C117.665 127.469 117.847 125.938 117.868 124.402C117.857 122.929 117.753 121.458 117.555 119.998C117.197 119.449 117.016 118.802 117.038 118.145C117.059 117.489 117.282 116.855 117.676 116.33C118.069 115.805 118.615 115.414 119.238 115.211C119.861 115.007 120.532 115.001 121.159 115.192L121.342 115.25L123.021 115.772C123.298 115.877 123.598 115.904 123.89 115.851C124.181 115.798 124.452 115.666 124.674 115.469C124.985 115.176 125.22 114.811 125.357 114.405C125.495 114 125.531 113.567 125.462 113.145C125.394 112.695 125.295 112.011 123.704 111.41C121.493 110.569 119.219 109.9 116.956 109.232C115.871 108.913 114.786 108.589 113.701 108.25C110.254 107.173 108.184 106.609 105.905 107.638C103.975 108.521 102.098 109.482 100.231 110.449C96.7977 112.307 93.2392 113.921 89.5812 115.281C84.2617 117.12 66.4258 122.725 60.1363 117.271C59.0046 116.289 57.221 114.053 57.9824 110.13C58.4674 107.649 59.693 105.397 60.7725 103.417L61.5444 101.986C62.9351 99.3322 64.3797 96.7201 65.8782 94.1499C66.1181 93.7477 66.3528 93.4185 66.5927 93.0215C73.8939 91.7991 82.6398 87.7975 89.8106 90.864C92.9398 92.1961 95.636 87.6042 92.4965 86.2668C86.2382 83.6078 79.98 84.6526 73.5758 86.1519C72.5641 86.387 71.5262 86.6168 70.4936 86.8467C72.2511 84.2347 74.0139 81.7846 75.8288 79.5069C79.5072 74.874 83.561 70.553 87.9488 66.5879C94.9737 68.3536 102.15 69.1999 109.446 67.7163C112.804 67.0424 111.375 61.9072 108.032 62.5811C103.031 63.5841 98.0298 63.2758 93.1066 62.3355C95.7534 60.2325 98.5166 58.2808 101.383 56.4898C101.693 56.3302 101.947 56.0809 102.114 55.7744C102.28 55.4679 102.351 55.1183 102.317 54.7711C102.304 54.4174 102.352 54.0641 102.457 53.7263C102.535 53.5255 102.572 53.3115 102.567 53.0963C102.561 52.8811 102.513 52.6692 102.426 52.4725C98.6537 47.442 95.2945 42.1135 92.3817 36.5392C91.1301 34.1309 89.6855 31.0801 88.8145 29.0062L88.4234 28.092C87.8654 26.7912 87.2917 25.4434 86.8119 24.0799C86.645 23.5269 86.6301 22.939 86.7687 22.3782C86.9072 21.8174 87.1942 21.3044 87.5994 20.8932C88.0153 20.4699 88.5341 20.1624 89.1048 20.0011C89.6755 19.8399 90.2783 19.8305 90.8537 19.9738C94.3531 20.841 95.855 22.6328 97.3257 24.7172C99.975 28.4576 102.541 32.2503 105.148 36.0429L108.81 41.4394C109.211 42.0409 109.83 42.4625 110.536 42.6148C110.768 42.6618 110.993 42.7354 111.209 42.8342C111.441 42.9455 111.686 43.028 111.939 43.0797C112.078 43.0428 112.219 43.0132 112.361 42.9909C112.782 42.9312 113.211 42.956 113.623 43.0641C114.461 43.2866 115.322 43.4127 116.189 43.4402L127.073 43.7223C127.245 43.6909 127.423 43.6648 127.542 43.6544C127.875 43.6345 128.209 43.6645 128.533 43.7432C128.929 43.8635 129.346 43.8903 129.754 43.8215C130.036 43.6994 130.283 43.5092 130.473 43.2678C130.62 43.1104 130.783 42.9686 130.958 42.8446C131.139 42.7211 131.287 42.5564 131.391 42.364C134.275 36.6912 137.773 31.3532 141.822 26.4464C143.767 24.1426 145.853 21.8283 147.871 20.5432C147.965 20.4858 148.33 20.2925 148.424 20.2402C148.91 19.9974 149.45 19.883 149.993 19.9078C150.536 19.9327 151.064 20.0959 151.526 20.3821C151.988 20.6682 152.37 21.0679 152.635 21.5431C152.899 22.0184 153.039 22.5535 153.039 23.0978C153.039 28.0554 152.247 32.2451 150.244 37.5893L150.025 38.1117L149.597 39.0729C149.253 39.8147 148.883 40.5408 148.507 41.2409C147.838 42.4962 147.105 43.7167 146.312 44.8977C144.76 47.2061 142.941 49.3226 140.893 51.2031C140.703 51.4287 140.562 51.6916 140.48 51.975C140.397 52.2584 140.374 52.556 140.413 52.8487C140.455 53.3278 140.387 53.8102 140.215 54.2592C140.068 54.5688 140.035 54.9207 140.122 55.2525C140.209 55.5843 140.41 55.8745 140.69 56.0719C149.603 64.3363 154.625 73.8336 155.611 84.2086C156.059 88.7221 156.059 93.2514 156.059 97.6291C156.059 99.1963 156.059 100.821 156.059 102.409C156.215 113.348 156.789 124.569 157.817 136.705C161.144 175.739 164.909 219.976 174.234 262.876C180.862 293.369 193.113 325.815 210.646 359.312C211.877 361.657 213.071 364.013 214.266 366.416C216.352 370.596 218.547 374.884 220.894 378.954H226.939C209.146 351.4 195.203 321.535 185.499 290.192C182.424 279.982 180.033 269.577 178.343 259.047L178.234 258.404C172.435 223.309 165.274 177.014 161.837 130.441C161.316 123.389 160.935 116.31 160.69 109.404C160.575 106.306 160.565 103.177 160.555 100.043C160.528 93.4551 160.508 86.6377 159.47 80.2226C158.083 71.603 153.676 63.1766 146.724 55.8473C146.175 55.2679 145.863 54.5042 145.847 53.7059C145.832 52.9077 146.115 52.1324 146.64 51.5322C149.865 47.8479 152.454 43.6513 154.302 39.1147C156.273 34.2882 157.35 29.1419 157.478 23.9284C157.551 21.5253 157.644 18.2342 156.575 16.5364C154.917 13.8669 150.62 14.7289 149.796 14.9378C144.826 16.1132 140.883 20.6843 137.576 24.8374C136.674 25.9762 135.845 27.1569 135.021 28.3375L134.26 29.4241C133.883 29.9444 133.361 30.3412 132.76 30.5643C132.158 30.7875 131.504 30.827 130.88 30.6779C130.257 30.5205 129.695 30.1787 129.268 29.697C128.841 29.2153 128.569 28.6159 128.486 27.977L128.278 26.1277C128.163 25.0481 128.067 23.9667 127.991 22.8836C127.84 20.7313 127.761 18.5633 127.735 16.3953C127.714 15.7898 127.456 15.2169 127.017 14.7999C126.578 14.3828 125.993 14.1547 125.389 14.1647C124.902 14.2107 124.443 14.4121 124.08 14.7393C123.643 15.1483 123.38 15.7092 123.344 16.3065C123.416 22.7017 124.082 29.0763 125.331 35.3481C125.425 35.8188 125.412 36.3045 125.293 36.7694C125.174 37.2342 124.951 37.6662 124.643 38.0333C124.327 38.3906 123.94 38.6764 123.505 38.8719C123.071 39.0674 122.6 39.1679 122.124 39.1669L117.482 39.0363C116.639 39.0144 115.839 38.6584 115.257 38.0463C114.675 37.4343 114.36 36.6161 114.379 35.7713L114.786 15.4811C114.786 14.2326 113.592 13.3915 112.445 13.3445C112.212 13.3335 111.98 13.3748 111.765 13.4651C111.55 13.5555 111.358 13.6928 111.203 13.8669C110.704 14.3243 110.406 14.961 110.374 15.6379L110.176 25.4225C110.165 26.0979 109.94 26.7523 109.534 27.2916C109.128 27.8309 108.561 28.2271 107.916 28.4234C107.271 28.6197 106.58 28.6059 105.943 28.3839C105.306 28.162 104.756 27.7433 104.371 27.1882L103.412 25.8038C102.603 24.6232 101.795 23.4426 100.94 22.2881C99.3753 20.1358 97.5552 17.9887 95.2031 16.8707C92.5808 15.7184 89.7669 15.0665 86.9058 14.9483C84.6268 14.8438 82.379 16.27 81.8158 18.3387C81.3725 19.9999 81.555 21.9955 82.3373 24.2523C85.6976 33.7044 90.3033 42.6645 96.0323 50.8949C96.2738 51.2409 96.4443 51.6315 96.5338 52.044C96.6234 52.4565 96.6302 52.8828 96.5539 53.2979C96.3985 54.1327 95.9207 54.8724 95.224 55.3562C92.6164 57.1324 90.1757 59.0653 87.7663 61.0661C84.1522 60.0683 80.585 58.8406 77.1065 57.613C73.8626 56.4742 72.4858 61.6251 75.6932 62.7534C78.1339 63.6102 80.5954 64.4408 83.0779 65.1983C79.924 68.1498 76.9626 71.3011 74.2121 74.6329C70.7292 78.9017 67.5056 83.3763 64.5588 88.0326C60.8293 88.7312 57.0241 88.9332 53.2418 88.6333C50.1649 88.3251 46.9836 87.181 45.2261 84.4541C43.698 82.1033 44.1831 79.4129 46.1283 77.4748C47.9119 75.7038 51.9432 73.959 53.8572 76.4613C55.2392 78.2741 53.7321 81.4242 51.3174 80.2592C48.2457 78.7808 45.5494 83.3936 48.6368 84.8616C55.5261 88.1841 62.5613 80.7555 58.6343 74.0269C54.9837 67.7581 46.0397 69.5186 41.8832 74.2202C37.2782 79.4756 38.5976 86.7161 43.9797 90.7856Z" fill="#1E1E1E"/>
<path d="M98.671 308.497C98.4523 307.848 98.3448 307.166 98.3529 306.481C98.7545 292.261 103.876 278.454 107.845 264.835C109.289 259.867 110.066 251.91 113.336 247.005L111.912 246.571C109.437 246.182 107.102 245.162 105.133 243.609C100.637 240.047 103.13 234.002 107.626 231.876C104.23 228.992 102.499 224.902 104.241 219.673C105.111 217.085 106.73 214.815 108.893 213.153C106.39 211.79 104.262 210.087 103.12 207.24C101.691 203.651 101.946 199.231 101.586 195.449C101.362 193.088 103.041 190.721 105.3 189.358C102.869 182.692 106.144 175.624 111.772 171.215C112.069 170.98 112.397 170.818 112.705 170.609C111.266 169.664 110.067 168.395 109.205 166.904C108.342 165.413 107.838 163.741 107.735 162.02C107.479 158.364 109.482 154.863 112.517 152.58C111.583 151.697 110.845 150.626 110.351 149.438C109.857 148.25 109.617 146.971 109.649 145.685C109.665 143.973 110.125 142.294 110.984 140.813C111.842 139.332 113.07 138.1 114.546 137.237C118.098 135.148 121.847 136.12 125.722 136.647C136.919 138.155 148.284 137.884 159.397 135.843C168.002 134.275 172.142 144.509 166.828 148.636C167.73 149.951 168.27 151.481 168.393 153.072C168.673 157.286 168.155 161.515 166.865 165.536C166.772 165.784 166.665 166.026 166.547 166.262C166.651 166.361 166.792 166.429 166.891 166.529C168.835 168.471 170.207 170.913 170.857 173.585C171.506 176.258 171.408 179.058 170.573 181.678C170.899 181.898 171.211 182.139 171.506 182.399C175.193 185.868 176.32 192.492 176.341 197.162C176.326 198.818 176.006 200.456 175.397 201.995C177.933 203.519 179.864 205.877 180.862 208.666C181.721 210.972 181.921 213.472 181.441 215.885C182.638 216.987 183.413 218.472 183.632 220.085C183.851 221.699 183.501 223.338 182.641 224.719C181.405 226.809 182.349 230.586 181.89 233.005C181.41 235.52 180.38 237.898 178.875 239.968C175.548 244.518 170.228 247.313 164.794 249.209C158.458 251.419 151.678 252.427 144.977 253.049C141.772 253.425 138.543 253.565 135.318 253.467C135.847 255.759 136.175 258.092 136.299 260.441C136.82 267.833 137.237 275.241 137.707 282.643C137.967 286.776 139.448 294.732 138.89 301.544C141.284 305.023 141.43 310.143 136.533 312.039C133.619 313.283 130.439 313.772 127.287 313.46H127.115C126.426 313.387 125.748 313.324 124.992 313.183C124.634 313.087 124.286 312.961 123.949 312.807C123.674 313.856 123.315 314.882 122.875 315.873C122.948 317.059 123.078 318.245 123.198 319.421L124.059 327.878C124.521 332.406 124.983 336.951 125.446 341.513C125.503 341.576 125.587 341.607 125.644 341.664C131.84 348.106 123.793 356.814 115.735 353.084C115.25 352.86 114.796 352.614 114.348 352.363C113.613 352.337 112.877 352.301 112.152 352.238C109.195 351.966 106.551 351.313 104.11 349.725C98.718 346.22 97.2682 340.27 97.2682 334.518C97.2605 325.825 97.7288 317.139 98.671 308.497Z" fill="white"/>
<path d="M132.304 150.486C132.439 146.947 132.651 143.416 132.94 139.891C133.039 138.742 133.091 137.682 133.983 136.783C134.875 135.885 136.413 135.926 137.681 135.921H143.511H146.27C147.231 135.847 148.195 136.028 149.065 136.444C149.156 136.422 149.249 136.407 149.342 136.397C150.797 136.459 151.981 137.478 152.001 138.852C152.054 142.415 151.949 145.983 151.668 149.535C151.675 150.403 151.488 151.262 151.12 152.048L151.563 151.865C152.673 151.353 153.812 150.906 154.974 150.528C155.84 150.303 156.755 150.367 157.582 150.71C157.821 150.631 158.07 150.589 158.322 150.585C159.709 150.642 161.055 151.666 160.982 153.04L160.606 160.354L160.44 163.755C160.372 165.05 160.497 166.503 159.944 167.709C159.245 169.23 157.639 169.553 156.054 169.736C154.692 169.893 153.326 170.029 151.96 170.154C150.802 170.264 149.649 170.363 148.492 170.452C146.802 170.588 145.086 170.452 144.121 168.953C143.601 168.009 143.358 166.936 143.422 165.86L143.323 161.994L143.245 158.724C143.203 157.12 143.297 155.59 144.888 154.618C145.293 154.379 145.719 154.176 146.16 154.012C144.57 154.278 142.979 154.534 141.373 154.702C139.542 154.895 137.691 155.025 135.85 155.052C135.244 155.098 134.637 154.985 134.088 154.724C133.539 154.463 133.068 154.062 132.721 153.563C132.126 152.622 132.278 151.531 132.304 150.486Z" fill="#00A99D"/>
<path d="M111.5 159.383C112.648 156.875 113.978 153.176 117.315 152.591C117.725 152.521 118.146 152.54 118.548 152.646C118.95 152.753 119.325 152.944 119.647 153.208C119.832 153.153 120.022 153.119 120.215 153.109C121.561 153.166 122.989 154.195 122.875 155.569C122.635 158.406 122.499 161.253 122.484 164.106C122.562 165.563 122.541 167.024 122.421 168.478C122.269 169.371 121.824 170.188 121.156 170.798C120.488 171.409 119.635 171.778 118.734 171.848C117.282 171.949 115.823 171.809 114.416 171.435C113.563 171.287 112.766 170.914 112.105 170.354C111.518 169.725 111.087 168.966 110.849 168.139C110.278 166.796 110.01 165.344 110.061 163.886C110.277 162.313 110.764 160.789 111.5 159.383Z" fill="#00A99D"/>
<path d="M122.139 175.77C122.139 178.727 122.312 181.689 122.604 184.651C122.763 186.281 122.965 187.906 123.209 189.526C123.315 190.624 123.551 191.706 123.913 192.749C124.374 194.033 125.266 195.117 126.437 195.816C127.594 196.375 128.865 196.659 130.15 196.646C132.971 196.787 135.887 197.08 138.724 196.96C141.561 196.84 143.939 195.507 144.872 192.906C145.665 190.701 145.529 188.063 145.493 185.764C145.461 182.997 145.196 180.237 144.7 177.515C144.51 176.31 143.959 175.192 143.121 174.307C142.284 173.421 141.198 172.812 140.007 172.557C137.686 172.003 135.052 172.223 132.705 172.317C130.091 172.392 127.495 172.767 124.966 173.435C123.558 173.336 122.124 174.104 122.139 175.77Z" fill="#00A99D"/>
<path d="M139.083 203.938C139.083 205.976 139.12 208.018 139.141 210.056C139.141 211.983 139.031 214.052 140.043 215.802C142.395 219.892 147.595 218.351 151.48 217.495C155.635 216.55 159.708 215.279 163.663 213.692C164.058 213.496 164.391 213.194 164.624 212.819C164.857 212.445 164.981 212.012 164.982 211.571C164.82 204.659 164.137 197.779 163.418 190.899C163.377 190.225 163.078 189.592 162.582 189.134C162.086 188.677 161.432 188.429 160.758 188.444C160.085 188.459 159.439 188.706 158.927 189.144C158.48 189.12 158.035 189.212 157.634 189.41C153.509 191.636 149.451 194.258 144.935 195.731C143.073 196.337 141.326 197.173 140.267 198.777C139.209 200.381 139.089 202.183 139.083 203.938Z" fill="#00A99D"/>
<path d="M104.439 203.86C104.314 206.629 104.695 209.56 106.348 211.942C107.14 213.103 108.169 214.083 109.367 214.816C110.65 215.599 112.444 216.226 113.92 215.573C115.98 214.674 115.766 212.689 115.766 210.903C115.766 209.419 115.766 207.932 115.766 206.441C115.766 203.467 115.766 200.492 115.766 197.518C115.766 196.139 114.546 195.12 113.107 195.057C113.044 195.057 112.997 195.084 112.935 195.089C111.982 194.866 111.012 194.723 110.035 194.66C109.625 194.695 109.224 194.801 108.851 194.974C108.773 194.987 108.697 195.007 108.622 195.031C108.538 195.073 108.444 195.073 108.366 195.115C108.122 195.148 107.885 195.224 107.667 195.34C106.979 195.779 106.385 196.352 105.92 197.024C105.454 197.695 105.126 198.453 104.955 199.253C104.656 200.771 104.483 202.313 104.439 203.86Z" fill="#00A99D"/>
<path d="M114.661 219.13C115.047 223.309 115.62 227.471 116.382 231.616C116.716 233.434 117.456 234.896 119.433 235.586C121.154 236.127 122.923 236.501 124.716 236.704C128.668 237.224 132.652 237.449 136.638 237.378L139.631 237.331C140.581 237.392 141.536 237.303 142.458 237.064C144.742 236.234 144.278 234.014 144.132 232.222L143.23 221.183C143.191 220.508 142.892 219.874 142.395 219.415C141.899 218.956 141.245 218.708 140.57 218.722C140.318 218.64 140.057 218.593 139.793 218.581C132.497 218.608 125.213 217.992 118.025 216.742C116.476 216.471 114.504 217.4 114.661 219.13Z" fill="#00A99D"/>
<path d="M169.337 209.727C169.496 209.666 169.66 209.617 169.827 209.58C169.827 209.476 169.827 209.371 169.864 209.272C170.187 208.542 170.664 207.89 171.261 207.36C170.943 207.694 171.329 207.188 171.407 207.046C171.525 206.821 171.659 206.604 171.809 206.399C172.38 205.622 173.187 205.05 174.109 204.769C177.238 203.787 180.08 206.613 181.274 208.948C182.51 211.378 182.878 214.158 182.317 216.826C181.749 219.731 180.033 222.359 177.947 224.553C176.607 225.958 173.999 225.169 173.504 223.466C172.43 219.727 170.692 216.212 168.372 213.091C167.605 212.036 168.122 210.333 169.337 209.727Z" fill="#00A99D"/>
<path d="M145.415 252.799C145.316 254.889 147.6 255.563 149.206 254.889C149.376 254.939 149.551 254.967 149.728 254.973C155.148 254.58 160.477 253.369 165.535 251.378C169.665 249.743 174.401 247.721 175.579 243.323C176.137 241.233 176.033 238.986 175.887 236.839C175.751 234.828 175.981 231.699 173.968 230.408C171.731 228.982 168.93 230.732 166.823 231.641C164.716 232.55 162.614 233.527 160.492 234.426C156.627 236.071 152.539 237.503 148.252 237.748C146.838 237.832 145.571 238.819 145.597 240.204C145.663 244.401 145.602 248.599 145.415 252.799Z" fill="#00A99D"/>
<path d="M105.733 268.559C106.124 266.371 106.53 264.182 106.989 262.008C107.407 260.034 107.85 257.756 109.034 256.032C109.448 255.414 109.995 254.897 110.635 254.519C111.275 254.141 111.991 253.912 112.731 253.849C114.096 253.787 115.463 253.885 116.804 254.141C119.236 254.534 121.607 255.236 123.86 256.231C124.341 256.173 124.829 256.244 125.274 256.436C125.719 256.627 126.106 256.933 126.395 257.323C126.434 257.17 126.49 257.023 126.562 256.884C126.842 256.486 127.22 256.168 127.66 255.962C128.1 255.756 128.586 255.669 129.07 255.708C129.123 254.94 129.232 254.178 129.211 253.41C129.27 252.744 129.576 252.124 130.068 251.673C130.56 251.222 131.204 250.971 131.871 250.971C132.538 250.971 133.182 251.222 133.674 251.673C134.166 252.124 134.472 252.744 134.531 253.41C134.548 254.918 134.445 256.426 134.223 257.918C134.286 258.002 134.395 258.054 134.447 258.148C134.703 258.567 134.821 259.056 134.783 259.545C134.746 260.035 134.555 260.5 134.239 260.875C133.902 261.27 133.462 261.562 132.967 261.718C132.473 261.874 131.945 261.888 131.443 261.758L128.836 260.958C128.428 260.827 128.055 260.607 127.741 260.316C127.661 260.296 127.583 260.271 127.506 260.243C127.209 260.095 126.948 259.883 126.744 259.621C126.598 263.68 125.529 267.656 124.137 271.485C123.756 272.53 123.36 273.533 122.953 274.546C122.478 275.753 122.025 276.996 120.726 277.681C118.64 278.725 115.537 278.025 113.383 277.534C111.182 277.08 109.069 276.272 107.125 275.142C104.528 273.486 105.3 270.962 105.733 268.559Z" fill="#00A99D"/>
<path d="M120.611 281.776C120.611 280.381 121.832 279.394 123.271 279.321C126.369 279.157 129.453 278.785 132.502 278.208C134.322 277.863 135.683 278.929 135.866 280.575C136.445 285.688 137.492 290.736 138.995 295.657C139.376 296.906 140.064 298.269 139.725 299.612C139.203 301.524 137.415 301.853 135.621 302.067C132.839 302.407 130.036 302.548 127.235 302.49C125.727 302.454 123.933 302.579 122.781 301.513C121.55 300.38 121.816 298.452 121.738 296.979C121.634 294.304 121.527 291.629 121.42 288.954L121.263 285.135C121.239 284.566 121.256 283.995 121.315 283.427C120.881 282.986 120.63 282.396 120.611 281.776Z" fill="#00A99D"/>
<path d="M96.6685 316.396C96.6685 320.053 96.4651 323.798 97.1118 327.44C97.3257 328.652 99.1405 329.608 100.382 329.158C104.262 327.753 108.34 327.79 112.444 327.904C114.499 327.967 116.554 328.046 118.614 327.988C120.794 327.931 123.678 327.988 124.392 325.59C124.664 324.681 124.319 323.757 124.184 322.858C124.059 321.951 123.99 321.037 123.975 320.121C123.923 318.345 124.001 316.574 124.027 314.797C124.078 313.028 123.998 311.258 123.787 309.5C123.527 307.573 123.266 305.373 121.049 304.532C121.032 304.53 121.015 304.53 120.997 304.532C120.537 304.156 119.959 303.954 119.365 303.963C115.457 303.963 111.554 303.853 107.657 303.634C105.706 303.529 103.759 303.399 101.816 303.242C99.7298 303.075 97.4143 302.97 96.7624 305.331C96.5173 306.214 96.6529 307.243 96.6529 308.137C96.6529 309.03 96.6529 309.976 96.6529 310.895L96.6685 316.396Z" fill="#00A99D"/>
<path d="M97.1222 346.549C97.0505 346.74 97.0117 346.941 97.0074 347.145C97.3881 352.087 97.7845 357.154 99.8236 361.772C100.063 362.411 100.529 362.939 101.132 363.256C101.735 363.572 102.433 363.656 103.094 363.491C104.382 363.219 105.477 361.662 104.95 360.466C104.029 358.308 103.377 356.045 103.01 353.727L102.916 353.137C102.885 352.923 102.859 352.703 102.828 352.484C102.786 352.144 102.755 351.805 102.718 351.47C103.344 351.674 103.991 351.82 104.627 351.993C104.809 353.837 105.054 355.681 105.383 357.515C105.476 357.83 105.632 358.122 105.842 358.375C106.052 358.627 106.311 358.834 106.603 358.983C107.231 359.315 107.959 359.403 108.648 359.228C109.302 359.068 109.87 358.664 110.238 358.1C110.406 357.818 110.516 357.506 110.563 357.181C110.609 356.857 110.591 356.526 110.51 356.209C110.41 355.639 110.317 355.064 110.233 354.495C110.176 354.088 110.134 353.68 110.087 353.273C110.374 353.325 110.65 353.398 110.937 353.445C110.933 353.594 110.941 353.742 110.963 353.889C111.094 354.359 111.198 354.835 111.281 355.315C111.281 355.315 111.281 355.315 111.281 355.347C111.281 355.378 111.281 355.509 111.307 355.587C111.339 355.832 111.36 356.073 111.38 356.313C111.453 357.217 111.474 358.126 111.495 359.035C111.492 361.069 111.692 363.099 112.09 365.095C112.392 366.437 114.025 367.09 115.36 366.808C115.681 366.735 115.985 366.599 116.253 366.407C116.521 366.214 116.749 365.971 116.922 365.689C117.095 365.408 117.21 365.095 117.26 364.769C117.311 364.442 117.296 364.109 117.216 363.789C117.154 363.517 117.102 363.24 117.049 362.968C117.049 362.901 117.049 362.916 117.049 362.88C117.049 362.843 117.049 362.88 117.049 362.796C116.997 362.31 116.95 361.824 116.924 361.339C116.867 360.43 116.856 359.521 116.83 358.612C116.794 357.135 116.653 355.664 116.408 354.208C117.107 354.286 117.806 354.375 118.494 354.443C118.494 354.506 118.494 354.568 118.494 354.631C118.619 355.153 118.718 355.707 118.807 356.245C119.014 357.844 119.043 359.461 118.896 361.067C118.894 361.395 118.963 361.719 119.097 362.018C119.231 362.317 119.427 362.584 119.673 362.801C120.189 363.268 120.86 363.525 121.555 363.522C122.25 363.521 122.92 363.265 123.438 362.801C123.912 362.346 124.191 361.724 124.215 361.067C124.38 358.992 124.264 356.905 123.871 354.861C124.481 354.903 125.091 354.955 125.701 354.986C125.744 356.399 125.88 357.807 126.108 359.202C126.285 360.205 126.515 361.203 126.666 362.216C126.666 362.315 126.713 362.613 126.718 362.629C126.718 362.869 126.76 363.11 126.77 363.35C126.794 363.911 126.773 364.474 126.708 365.032C126.546 366.401 128.053 367.435 129.368 367.487C130.041 367.501 130.693 367.252 131.188 366.795C131.683 366.337 131.982 365.705 132.022 365.032C132.288 362.796 131.735 360.565 131.323 358.377L131.198 357.656C131.198 357.535 131.172 357.494 131.167 357.462C131.162 357.431 131.141 357.3 131.136 357.217C131.073 356.694 131.031 356.172 131.005 355.65C130.963 354.866 130.969 354.082 130.969 353.304C131.022 353.05 131.036 352.789 131.01 352.531C131.01 352.473 131.01 352.421 131.01 352.364C129.19 340.469 127.229 328.443 125.931 316.407C126.504 316.328 127.062 316.219 127.626 316.098C128.617 319.546 129.498 323.02 130.181 326.546C130.447 327.9 132.158 328.537 133.456 328.265C133.777 328.19 134.08 328.052 134.348 327.859C134.616 327.667 134.842 327.422 135.015 327.141C135.187 326.86 135.303 326.547 135.354 326.221C135.405 325.894 135.391 325.561 135.313 325.24C134.645 321.814 133.79 318.449 132.825 315.059C133.477 314.954 134.124 314.834 134.776 314.756C135.435 316.258 135.903 317.838 136.168 319.457C136.168 319.593 136.205 319.729 136.215 319.865C136.241 320.008 136.276 320.149 136.319 320.288C136.319 320.325 136.319 320.361 136.319 320.393L137.133 325.016C137.225 325.331 137.38 325.625 137.59 325.877C137.8 326.13 138.06 326.336 138.353 326.484C138.983 326.816 139.712 326.905 140.403 326.735C141.054 326.569 141.621 326.167 141.994 325.606C142.319 325.031 142.414 324.353 142.26 323.71C141.988 322.167 141.719 320.626 141.451 319.087C141.451 319.029 141.378 318.982 141.363 318.925C141.12 317.354 140.72 315.812 140.168 314.322C140.387 314.322 140.601 314.28 140.825 314.275C140.888 314.489 140.961 314.704 141.013 314.918C141.232 315.759 141.404 316.616 141.576 317.467C141.862 319.258 142.348 321.01 143.026 322.691C143.271 323.297 143.709 323.804 144.273 324.133C144.9 324.465 145.628 324.555 146.317 324.384C146.96 324.212 147.518 323.809 147.881 323.25C148.061 322.974 148.179 322.661 148.226 322.335C148.272 322.008 148.248 321.675 148.153 321.359C147.458 319.626 146.958 317.822 146.661 315.978C146.307 313.995 145.706 312.065 144.872 310.232C144.872 310.232 144.846 310.232 144.836 310.19C142.045 301.303 139.997 292.2 138.713 282.973C137.488 273.967 136.528 264.354 138.035 255.285C148.632 257.558 160.085 256.696 169.848 252.229C181.128 247.073 189.029 235.627 183.971 224.072C183.791 223.656 183.482 223.309 183.089 223.084C185.42 219.109 186.479 214.47 185.629 210.265C184.909 206.707 182.719 202.779 179.199 200.94C178.89 200.791 178.569 200.669 178.239 200.574C178.407 197.348 178.232 194.114 177.718 190.925C177.452 189.18 177.139 187.446 176.8 185.701C176.437 183.946 175.558 182.339 174.276 181.088C175.15 178.633 175.436 176.006 175.11 173.42C174.693 170.285 173.337 167.151 170.416 165.819C171.109 162.974 171.536 160.071 171.694 157.147C171.819 154.498 172.106 151.076 170.166 148.877C171.072 147.823 171.728 146.577 172.084 145.232C172.44 143.887 172.486 142.479 172.221 141.114C171.767 138.434 170.359 134.945 167.449 133.8C165.702 133.116 163.756 133.44 161.921 133.55C159.313 133.699 156.706 133.825 154.098 133.926C149.23 134.11 144.379 134.194 139.542 134.177C134.687 134.177 129.837 134.036 124.992 133.842C120.929 133.68 116.424 133.43 112.653 135.133C105.91 138.178 108.403 147.435 110.932 152.983C109.496 154.496 108.499 156.373 108.048 158.411C107.24 161.733 107.344 165.119 107.526 168.499C106.219 169.937 105.122 171.553 104.267 173.299C103.146 175.514 102.014 177.782 101.487 180.195C100.569 184.374 101.32 188.444 102.765 192.367C102.261 192.627 101.874 193.067 101.68 193.6C101.464 193.8 101.29 194.042 101.17 194.312C101.05 194.581 100.986 194.872 100.981 195.167C101.06 198.72 101.018 202.288 101.503 205.814C101.902 208.548 102.874 211.167 104.356 213.498C100.705 217.678 99.2447 223.555 101.273 228.685C101.498 229.223 101.755 229.746 102.045 230.252C100.59 234.092 99.8184 238.673 101.446 242.445C102.822 245.647 105.618 247.914 108.549 249.931C107.031 253.586 105.746 257.334 104.7 261.152C102.144 270.555 99.6932 280.026 97.9201 289.586C94.5311 308.401 94.2615 327.647 97.1222 346.549ZM106.317 234.483C106.984 234.854 107.678 235.194 108.377 235.528C110.394 236.505 112.487 237.315 114.635 237.952C113.18 240.355 111.902 242.821 110.702 245.318C110.124 244.895 109.56 244.466 108.997 243.965C107.891 243.077 106.999 241.95 106.39 240.669C105.639 238.845 105.811 236.625 106.317 234.483ZM165.624 146.354C165.319 146.614 165.084 146.946 164.94 147.32H164.69C162.974 147.446 161.258 147.639 159.563 147.911C157.253 148.304 154.973 148.863 152.742 149.582C152.309 149.566 151.879 149.657 151.49 149.849C151.188 150.016 150.859 150.141 150.546 150.293C150.234 150.444 149.764 150.528 149.383 150.669C149.248 150.742 149.122 150.831 149.008 150.935L148.857 150.988C148.596 151.071 148.335 151.144 148.069 151.217C146.723 151.568 145.356 151.828 143.975 151.996L143.412 152.064C143.657 152.064 143.61 152.064 143.282 152.064L142.432 152.142C141.681 152.21 140.924 152.262 140.168 152.32C138.755 152.419 137.342 152.508 135.934 152.638C135.624 152.671 135.32 152.74 135.026 152.842C131.641 153.124 128.215 152.278 124.935 151.656C122.066 151.108 118.823 150.491 115.808 150.831C114.71 148.514 114.052 146.013 113.868 143.454C113.806 142.279 113.555 140.56 114.65 139.725C115.746 138.889 117.946 138.8 119.167 138.711C125.477 138.257 132.017 139.061 138.353 139.098C145.077 139.136 151.795 138.988 158.505 138.654C160.184 138.57 161.858 138.46 163.532 138.366C165.206 138.272 165.926 138.711 166.531 140.189C167.391 142.305 167.491 144.74 165.624 146.354ZM125.394 311.507C124.987 306.967 124.679 302.432 124.57 297.898C124.236 282.76 126.331 267.668 130.776 253.196C131.495 253.441 132.21 253.718 132.94 253.927C131.375 263.158 132.137 272.666 133.289 281.902C134.47 291.238 136.426 300.459 139.136 309.469C135.803 309.638 132.489 310.074 129.227 310.775C129.107 310.775 128.992 310.775 128.872 310.775C128.848 310.782 128.825 310.793 128.804 310.806C128.678 310.796 128.55 310.796 128.424 310.806C127.433 311.117 126.42 311.351 125.394 311.507ZM103.307 289.863C105.013 280.878 107.328 271.981 109.706 263.132C111.925 254.537 115.454 246.337 120.168 238.819C126.798 239.802 133.492 240.283 140.194 240.256C143.845 240.225 147.496 240.057 151.12 239.681C154.187 239.363 156.998 238.673 159.397 236.787C162.004 234.729 158.296 231.203 155.704 233.245C153.795 234.745 150.932 234.812 148.554 235C145.307 235.241 142.049 235.357 138.781 235.35C132.248 235.345 125.726 234.835 119.271 233.825C119.182 233.825 119.099 233.825 119.015 233.825H118.979C116.251 233.663 113.738 232.55 111.334 231.427C109.967 230.876 108.707 230.091 107.61 229.108C107.443 228.604 107.126 228.163 106.702 227.844C106.573 227.637 106.456 227.422 106.353 227.201C105.757 225.489 105.619 223.65 105.952 221.868C106.285 220.085 107.078 218.421 108.251 217.04C110.619 217.803 113.028 218.466 115.448 219.062V218.895C115.48 218.895 115.5 218.895 115.532 218.895C115.862 218.915 116.194 218.868 116.506 218.757C116.818 218.645 117.104 218.472 117.348 218.247C117.591 218.022 117.786 217.75 117.922 217.447C118.058 217.145 118.131 216.818 118.138 216.486C118.144 216.154 118.083 215.825 117.959 215.517C117.835 215.209 117.65 214.93 117.415 214.696C117.181 214.462 116.901 214.277 116.594 214.154C116.286 214.031 115.957 213.971 115.626 213.979C115.593 213.977 115.56 213.977 115.527 213.979C113.618 213.483 111.74 212.898 109.863 212.307C108.175 210.064 107.094 207.423 106.723 204.638C106.458 202.166 106.341 199.68 106.374 197.194C112.434 197.633 118.369 198.793 124.45 199.32C131.352 199.909 138.293 199.881 145.19 199.237C148.565 198.934 148.69 194.013 145.284 194.326C138.387 194.963 131.446 194.99 124.544 194.405C119.141 193.94 113.816 192.952 108.429 192.425C106.895 188.909 105.821 184.954 106.744 181.198C107.301 179.216 108.082 177.304 109.07 175.499C109.486 174.658 109.95 173.842 110.457 173.054C110.822 173.258 111.202 173.433 111.594 173.576C113.253 174.099 114.958 174.537 116.663 174.898C120.281 175.668 123.96 176.108 127.657 176.214C128.333 176.242 128.992 176.006 129.497 175.556C130.002 175.105 130.313 174.476 130.364 173.801C130.452 172.464 129.138 171.34 127.756 171.304C126.374 171.267 124.883 171.173 123.454 171.022C122.025 170.87 121.133 170.75 119.735 170.499C118.338 170.249 116.929 169.93 115.563 169.564C114.948 169.402 114.337 169.23 113.727 169.042L113.336 168.927C113.247 168.728 113.044 168.603 112.903 168.436C112.747 165.594 112.543 162.637 113.221 159.848C113.493 158.724 113.858 157.136 114.755 156.264C115.36 155.674 116.434 155.679 117.263 155.679C120.46 155.679 123.563 156.452 126.682 157.027C130.003 157.735 133.412 157.937 136.794 157.627C136.921 157.594 137.043 157.547 137.159 157.486C142.578 157.053 148.174 156.922 153.091 154.639C155.321 153.883 157.603 153.291 159.918 152.868C161.258 152.623 162.667 152.419 163.955 152.309C164.622 152.257 165.305 152.194 165.978 152.184H166.27C166.328 152.361 166.369 152.539 166.416 152.706C166.416 152.769 166.416 152.764 166.416 152.8C166.416 152.837 166.416 152.988 166.416 153.082C166.416 153.391 166.442 153.699 166.453 154.012C166.484 155.365 166.453 156.724 166.364 158.077C166.185 160.546 165.782 162.994 165.159 165.39C163.553 165.61 161.926 165.991 160.393 166.257L152.351 167.663L136.935 170.353C133.571 170.943 134.906 175.697 138.259 175.117L163.391 170.729C164.627 170.51 167.282 169.58 168.445 170.332C169.488 171.006 169.754 173.002 169.91 174.036C170.317 177.086 169.563 180.178 167.798 182.697C167.654 182.927 167.552 183.18 167.496 183.444C167.345 183.554 167.209 183.685 167.052 183.794L166.651 184.082L166.604 184.113C166.291 184.322 165.978 184.531 165.665 184.73C165.107 185.09 164.534 185.44 163.96 185.774C162.734 186.485 161.477 187.148 160.179 187.749C159.537 188.047 158.88 188.334 158.218 188.606C157.869 188.752 157.514 188.888 157.175 189.029L157.008 189.092L156.627 189.227C155.235 189.724 154.385 190.795 154.713 192.216C154.926 192.869 155.38 193.416 155.982 193.745C156.584 194.074 157.289 194.16 157.952 193.987C162.884 192.243 167.516 189.744 171.684 186.579C171.751 186.96 171.798 187.342 171.866 187.697C172.169 189.306 172.461 190.92 172.701 192.54C173.168 195.555 173.261 198.617 172.977 201.655C171.9 202.591 170.96 203.674 170.187 204.873C168.852 206.838 167.777 208.98 165.618 210.306C163.459 211.633 160.627 212.427 158.223 213.31C153.185 215.16 148.252 216.763 142.781 217.009C142.599 217.009 142.411 217.009 142.228 217.009C142.204 217.006 142.179 217.006 142.155 217.009H142.077H141.894V217.04C141.282 217.067 140.703 217.326 140.275 217.765C139.847 218.205 139.602 218.791 139.59 219.404C139.578 220.018 139.8 220.613 140.211 221.069C140.621 221.525 141.19 221.806 141.801 221.857V221.956C143.895 221.908 145.985 221.734 148.059 221.434C152.523 220.749 156.747 219.125 160.93 217.573C164.471 216.257 168.377 215.133 171.042 212.474C172.244 211.171 173.31 209.748 174.223 208.227C174.594 207.663 175.24 206.31 175.819 205.908C177.17 204.968 177.832 206.018 178.661 207.088C183.788 213.728 178.719 224.134 171.292 227.238C168.163 228.544 170.771 232.822 173.9 231.527C176.085 230.566 178.066 229.196 179.736 227.488C183.032 236.986 173.999 245.511 165.133 248.86C154.646 252.814 142.708 252.355 132.319 248.494C132.632 247.585 132.914 246.671 133.242 245.767C134.338 242.758 129.227 241.389 128.137 244.378C121.886 261.48 118.879 279.601 119.271 297.809C119.693 315.257 122.65 332.81 125.347 350.096C117.55 349.684 109.618 348.958 102.4 346.111C99.5243 327.445 99.8311 308.426 103.307 289.863Z" fill="#1E1E1E"/>
<path d="M36.6418 293.797C36.0942 290.391 38.8582 287.303 41.857 286.123C43.5875 285.453 45.4731 285.294 47.2912 285.663C50.5089 291.932 52.2247 298.828 53.7476 305.729C53.4855 305.948 53.2005 306.137 52.8975 306.293C51.8507 306.719 50.6795 306.719 49.6328 306.293C49.0632 306.017 48.5516 305.634 48.1256 305.165C47.5527 305.117 46.9953 304.954 46.4871 304.684C45.9789 304.415 45.5304 304.045 45.1686 303.598C44.4072 302.652 43.604 301.753 42.7383 300.881C41.9613 300.139 41.1738 299.408 40.3393 298.729C38.6705 297.355 37.0068 296.075 36.6418 293.797Z" fill="#FBB03B"/>
<path d="M53.8988 354.955C55.1592 354.501 56.5019 354.322 57.8368 354.431C59.1717 354.541 60.4678 354.934 61.6381 355.587C64.5951 357.295 65.9511 360.289 66.7021 363.47C66.981 364.721 67.1848 365.988 67.3122 367.263C67.4052 368.223 67.4279 369.189 67.38 370.152C67.305 371.103 67.1141 372.042 66.8116 372.947C66.5352 373.929 65.3931 374.88 64.5013 375.246C64.3096 375.298 64.1144 375.336 63.9172 375.361C61.4139 368.229 58.4517 360.905 53.8988 354.955Z" fill="#FBB03B"/>
<path d="M46.1908 335.627C45.033 332.294 43.917 328.96 42.9991 325.586C42.0187 321.991 41.0226 318.162 39.3485 314.74C41.4033 313.387 44.2821 313.267 46.5663 314.05C47.9181 314.497 49.1522 315.242 50.1769 316.232C51.2016 317.221 51.9907 318.429 52.4855 319.766C53.6329 322.989 52.7463 326.129 51.2443 329.06C50.6478 330.195 49.9825 331.292 49.2521 332.346C48.7047 333.139 48.098 333.89 47.4373 334.592C47.0551 334.975 46.6377 335.322 46.1908 335.627Z" fill="#FBB03B"/>
<path d="M76.8508 372.56C76.929 373.777 76.9811 374.989 76.9498 376.217C76.9303 377.235 77.2869 378.225 77.9512 378.996H88.4076C88.8665 378.322 89.2629 377.612 89.6749 376.907C84.9134 372.727 81.1689 367.545 77.8573 362.127C77.4452 362.443 77.0815 362.818 76.7777 363.24C75.5835 365.21 76.0216 367.268 76.4179 369.373C76.6161 370.423 76.7412 371.489 76.8508 372.56Z" fill="#FBB03B"/>
<path d="M56.6212 342.762C56.2883 341.382 56.2682 339.945 56.5624 338.557C56.8566 337.168 57.4577 335.863 58.3214 334.738C59.2202 333.633 60.3651 332.754 61.6643 332.173C62.4518 334.027 63.2601 335.882 64.1415 337.715C65.5444 340.615 67.1141 343.431 68.663 346.257C67.1506 347.657 65.6643 349.021 63.4479 349.052C60.0006 349.099 57.3513 345.907 56.6212 342.762Z" fill="#FBB03B"/>
<path d="M67.4791 378.985C60.5951 364.812 54.2743 350.368 48.6523 335.625C42.2637 318.909 36.7096 301.847 31.9638 284.571C36.0929 282.831 40.3689 281.464 44.7409 280.486C45.5545 284.116 46.3681 287.752 47.2547 291.373C52.0996 311.114 58.1648 330.788 68.1154 348.618C74.1702 359.468 81.946 371.405 92.4129 378.969H102.77C93.701 375.229 86.8535 367.126 81.2002 359.358C74.0242 349.48 68.4283 338.567 63.9015 327.246C59.8508 316.908 56.4627 306.322 53.758 295.552C52.3655 290.15 51.0878 284.722 49.8727 279.279C48.7931 274.462 48.0421 269.4 46.1543 264.819C43.2703 257.829 35.2389 251.404 27.5256 255.619C19.7029 259.903 22.712 270.137 24.4487 276.918C33.4679 312.072 45.9011 346.257 61.5703 378.985H67.4791ZM28.9442 273.146C28.0993 269.761 26.3366 264.537 28.7825 261.428C31.1137 258.425 35.8439 259.783 38.2115 262.045C41.6849 265.378 42.6549 270.691 43.5988 275.345C39.167 276.348 34.824 277.711 30.613 279.42C30.0602 277.325 29.4657 275.246 28.9442 273.146Z" fill="#1E1E1E"/>
<path d="M296.509 208.75C295.906 209.69 295.207 210.566 294.423 211.362C291.017 214.93 287.857 218.466 285.604 222.907C284.698 224.534 284.295 226.394 284.446 228.251C284.722 230.476 286.23 232.143 287.601 233.794L296.556 244.519C297.328 245.448 298.084 246.608 299.215 247.131C299.758 247.374 300.355 247.472 300.947 247.413C301.539 247.354 302.105 247.142 302.59 246.796C304.524 245.431 306.373 243.95 308.128 242.361C309.891 240.867 311.629 239.333 313.343 237.759C314.908 236.291 316.864 234.791 317.985 232.926C320.259 229.144 317.985 225.122 315.899 221.867C314.731 220.065 313.385 217.782 311.205 217.202C309.119 216.648 307.325 217.892 305.875 219.266C304.264 220.801 302.684 222.4 301.041 223.884C300.796 224.108 300.321 224.296 300.67 224.369C300.585 224.342 300.505 224.297 300.436 224.239C299.947 223.739 299.65 223.082 299.596 222.384C299.445 220.728 300.394 219.182 301.594 218.116C302.923 216.941 304.201 215.995 305.197 214.647C305.514 214.473 305.79 214.232 306.006 213.942C306.918 212.673 306.444 211.205 305.395 210.228C303.732 208.661 301.641 205.746 299.049 206.425C297.724 206.77 297.145 207.72 296.509 208.75Z" fill="#00A99D"/>
<path d="M270.6 310.801C270.433 307.359 267.09 304.908 263.914 304.37C262.076 304.072 260.192 304.309 258.485 305.055C256.639 311.883 256.399 318.956 256.321 326.025C256.624 326.181 256.942 326.307 257.27 326.401C258.383 326.596 259.528 326.348 260.462 325.711C260.96 325.322 261.381 324.841 261.703 324.296C262.254 324.128 262.765 323.85 263.206 323.479C263.646 323.107 264.006 322.649 264.263 322.133C264.816 321.046 265.437 320.001 266.084 318.998C266.688 318.105 267.304 317.227 267.982 316.386C269.353 314.73 270.715 313.105 270.6 310.801Z" fill="#FBB03B"/>
<path d="M269.917 353.723C270.36 350.228 270.761 346.727 270.96 343.238C271.173 339.518 271.351 335.568 272.29 331.875C270 330.971 267.158 331.452 265.087 332.695C263.863 333.41 262.814 334.391 262.018 335.567C261.223 336.743 260.702 338.082 260.493 339.487C260.039 342.882 261.536 345.756 263.622 348.326C264.433 349.311 265.304 350.244 266.23 351.121C266.929 351.786 267.679 352.395 268.472 352.944C268.927 353.25 269.411 353.51 269.917 353.723Z" fill="#FBB03B"/>
<path d="M261.186 362.848C261.226 361.429 260.948 360.019 260.372 358.722C259.796 357.424 258.938 356.273 257.859 355.352C256.753 354.457 255.452 353.836 254.062 353.539C253.677 355.519 253.27 357.494 252.785 359.479C252.013 362.613 251.059 365.685 250.125 368.767C251.898 369.812 253.635 370.857 255.81 370.418C259.189 369.75 261.119 366.077 261.186 362.848Z" fill="#FBB03B"/>
<path d="M248.446 378.985C249.416 376.284 250.339 373.594 251.142 370.982C257.181 351.481 259.043 330.971 259.7 310.655C259.82 306.93 259.862 303.2 259.909 299.475C264.386 299.53 268.851 299.981 273.249 300.823C272.206 318.705 270.297 336.545 267.512 354.234C266.209 362.524 264.639 370.768 262.949 378.985H268.394C274.226 350.241 277.789 321.08 279.048 291.775C279.351 284.78 280.19 274.139 271.638 271.579C263.215 269.056 256.691 277.012 255.314 284.446C254.412 289.32 254.73 294.424 254.667 299.36C254.605 304.934 254.48 310.514 254.235 316.077C253.808 327.182 252.676 338.248 250.845 349.208C249.125 359.386 246.38 369.362 242.652 378.985H248.446ZM262.527 280.063C264.373 277.362 268.717 275.048 271.622 277.503C274.631 280.042 274.01 285.517 273.885 288.996C273.812 291.164 273.656 293.321 273.552 295.484C269.075 294.683 264.54 294.252 259.992 294.194C259.94 289.445 259.783 284.049 262.501 280.063H262.527Z" fill="#1E1E1E"/>
<path d="M233.197 317.937C233.594 318.104 234.034 318.144 234.455 318.05C234.877 317.957 235.259 317.735 235.549 317.415C243.132 309.866 250.253 301.866 256.873 293.457C256.758 293.17 256.694 292.864 256.686 292.554C256.618 289.751 256.843 286.95 257.358 284.195C249.744 294.053 241.822 303.67 232.967 312.457C228.373 310.968 234.772 303.644 236.237 301.607C239.366 297.25 242.563 292.944 245.828 288.688C252.044 280.585 258.537 272.702 265.233 264.991C265.481 264.913 265.712 264.791 265.917 264.631C266.695 263.93 267.274 263.034 267.594 262.036C267.914 261.037 267.963 259.971 267.737 258.947C267.403 257.197 266.475 255.63 265.76 254.021C265.76 253.943 265.724 253.87 265.713 253.791C265.686 253.659 265.668 253.524 265.661 253.389C265.661 253.316 265.661 253.237 265.661 253.169C265.667 252.993 265.693 252.818 265.739 252.647C265.76 252.622 265.776 252.594 265.786 252.563C265.838 252.402 265.896 252.245 265.964 252.088C266.017 251.892 266.103 251.706 266.219 251.54C266.068 251.816 266.042 251.874 266.141 251.702L266.297 251.446C266.501 251.132 266.735 250.85 266.96 250.557C266.994 250.518 267.026 250.476 267.053 250.432C267.089 250.405 267.122 250.376 267.153 250.343L267.674 249.821C268.05 249.487 268.456 249.189 268.853 248.875L282.636 262.547L282.516 262.724C282.295 263.055 282.054 263.372 281.797 263.675L281.546 263.952L281.291 264.208C281.03 264.459 280.769 264.73 280.488 264.944C279.904 265.467 279.299 265.932 278.694 266.407C278.412 266.632 278.12 266.841 277.833 267.055L277.682 267.118C277.604 267.081 277.572 267.065 277.682 267.118L277.473 266.987C276.795 266.471 276.042 266.06 275.241 265.77C273.494 265.284 271.539 265.697 270.449 267.112C270.223 267.255 270.021 267.431 269.849 267.635C268.284 269.761 266.683 271.882 265.098 274.003C267.266 273.037 269.719 272.925 271.966 273.69C272.608 272.828 273.265 271.966 273.906 271.077C273.931 271.061 273.956 271.044 273.979 271.025C274.11 271.125 274.25 271.203 274.381 271.286C274.782 271.546 275.198 271.781 275.627 271.992C277.526 272.901 279.476 272.295 281.129 271.203C283.883 269.38 286.47 266.914 287.909 263.921C287.935 263.874 287.909 263.827 287.94 263.774C287.986 263.705 288.028 263.634 288.065 263.56C289.238 262.9 290.234 261.966 290.97 260.839C291.706 259.711 292.161 258.423 292.295 257.082C293.398 257.245 294.521 256.969 295.424 256.314C295.885 256.004 296.254 255.574 296.491 255.072C296.729 254.569 296.827 254.011 296.775 253.457C297.957 253.078 299.043 252.445 299.956 251.602C300.155 251.531 300.342 251.432 300.514 251.31C305.382 247.305 310.249 243.3 315.117 239.294C318.861 236.212 323.221 232.66 323.946 227.525C324.384 224.39 322.042 222.567 320.066 220.577C317.98 218.456 315.852 215.927 313.458 214.146C311.513 212.699 309.714 213.624 308.05 214.83C308.989 213.42 309.776 211.905 309.521 210.437C309.114 208.081 306.199 206.524 304.436 205.255C302.548 203.896 300.227 201.77 297.719 202.361C295.064 202.987 293.891 206.059 292.639 208.18C291.323 210.474 289.854 212.677 288.243 214.773C286.538 216.799 284.97 218.937 283.549 221.172C282.324 223.262 281.28 225.419 280.264 227.603C278.767 228.125 277.656 229.583 276.9 230.983C276.61 231.506 276.38 232.06 276.211 232.634C274.971 232.819 273.834 233.43 272.994 234.363C272.314 235.176 271.885 236.168 271.758 237.221C270.682 237.83 269.733 238.64 268.962 239.608C267.88 240.83 267.072 242.272 266.595 243.834C266.555 243.848 266.517 243.866 266.48 243.886C263.533 246.133 260.378 249.022 260.336 253.039C260.336 255.155 261.192 256.826 262.057 258.681C262.188 258.93 262.302 259.189 262.396 259.454C262.396 259.454 262.396 259.454 262.396 259.496C262.423 259.59 262.444 259.686 262.459 259.783C262.459 259.783 262.459 259.914 262.495 260.023C262.402 260.087 262.311 260.155 262.224 260.227C253.094 270.675 244.402 281.472 236.148 292.616C234.062 295.437 232.002 298.283 229.968 301.152C228.346 303.446 226.406 305.854 225.994 308.706C225.343 313.345 228.758 317.3 233.197 317.937ZM293.328 237.069C291.52 235.199 289.67 233.367 287.779 231.573C287.054 230.884 286.266 230.032 285.411 229.27C286.445 226.922 287.666 224.661 289.062 222.51C290.741 220.044 292.79 217.855 294.464 215.384C294.798 214.893 298.287 209.601 299.043 208.07L299.528 208.394C300.227 208.87 300.916 209.355 301.614 209.852C302.136 210.223 302.657 210.599 303.137 210.985L303.893 211.57C303.372 212.438 302.496 213.509 302.131 214.068L299.753 217.724C298.381 219.851 297.197 221.783 297.401 224.401C297.562 226.553 300.185 227.159 301.698 226.072L306.986 222.264L309.787 220.253C310.047 220.065 310.553 219.589 311.028 219.208C312.071 220.138 313.114 221.183 314.068 222.144C315.388 223.45 316.676 224.756 317.985 226.093C318.6 226.736 318.762 226.772 318.506 227.629C318.307 228.237 318.033 228.817 317.693 229.358C316.895 230.578 315.931 231.68 314.83 232.634C310.183 236.86 305.202 240.768 300.29 244.722C299.768 244.048 299.169 243.406 298.631 242.8C296.9 240.853 295.132 238.943 293.328 237.069ZM272.008 244.539L272.039 244.482C272.295 244.08 272.561 243.698 272.863 243.322C273.098 243.035 273.353 242.8 273.604 242.518C274.072 242.843 274.633 243.009 275.203 242.99C275.773 242.971 276.321 242.769 276.767 242.413C277.213 242.056 277.532 241.566 277.677 241.013C277.822 240.461 277.785 239.877 277.572 239.347C277.468 239.132 277.345 238.927 277.202 238.735C276.921 238.417 276.764 237.403 277.52 237.858C279.992 239.341 282.736 236.693 281.265 234.269C281.307 234.159 281.38 233.987 281.426 233.872C281.524 233.676 281.641 233.491 281.776 233.318C282.136 233.632 282.631 233.976 282.788 234.123C284.983 236.165 287.106 238.271 289.187 240.423C291.37 242.68 293.494 244.994 295.56 247.366C295.633 247.444 295.841 247.726 296.045 247.987C295.933 248.097 295.812 248.199 295.685 248.29C295.049 248.64 294.584 248.625 294.183 248.024C292.618 245.683 288.764 247.888 289.526 250.286C289.073 250.192 288.604 250.213 288.162 250.348C287.72 250.483 287.319 250.728 286.996 251.059C286.005 252.078 286.136 253.431 286.845 254.543C287.653 255.818 287.101 257.485 286.089 258.503L272.008 244.539Z" fill="#1E1E1E"/>
<path d="M308.551 228.157C309.11 227.735 309.803 227.529 310.501 227.577C311.201 227.66 311.842 228.01 312.29 228.554C313.062 229.599 313.156 231.506 311.894 232.3C309.006 234.126 306.273 236.186 303.721 238.459C303.171 238.899 302.47 239.104 301.77 239.03C301.07 238.955 300.428 238.608 299.982 238.062C299.552 237.507 299.353 236.808 299.427 236.109C299.501 235.411 299.842 234.768 300.378 234.316C302.928 232.041 305.662 229.981 308.551 228.157Z" fill="#1E1E1E"/>
<path d="M90.8015 260.3C90.2978 260.063 89.8069 259.8 89.3308 259.512L88.9866 259.292C88.7102 259.104 88.4338 258.906 88.1626 258.702C87.276 258.044 86.4259 257.328 85.5863 256.612C83.7525 254.984 81.7747 253.525 79.6775 252.255C79.5836 252.208 79.4741 252.219 79.3802 252.182C61.3879 238.913 42.874 225.581 23.364 214.663C23.3014 214.595 23.2754 214.517 23.2024 214.459C22.7338 214.093 22.1542 213.897 21.5596 213.906C21.1657 213.88 20.7713 213.948 20.4087 214.104C20.0461 214.26 19.7256 214.5 19.4735 214.804C18.5817 215.959 17.6378 217.066 16.7303 218.205L13.6377 215.739C13.8003 215.377 13.894 214.987 13.9141 214.59C13.9313 214.103 13.8209 213.621 13.594 213.19C13.3671 212.759 13.0316 212.395 12.6208 212.135C12.02 211.662 11.3352 211.307 10.6025 211.09C8.87626 210.735 7.72892 212.197 6.67024 213.289C5.25866 214.755 3.91141 216.277 2.62848 217.855C1.84257 218.758 1.11115 219.707 0.438103 220.697C0.128863 221.193 -0.0231835 221.772 0.00194837 222.357C0.0270802 222.941 0.228216 223.504 0.578915 223.972C1.02355 224.539 1.55099 225.036 2.14347 225.446C2.63521 225.819 3.23734 226.017 3.85429 226.009C4.47125 226 5.06769 225.785 5.54898 225.399C6.02877 225.649 6.49814 225.921 6.96229 226.208C7.61941 226.642 8.24522 227.112 8.86583 227.598C7.82279 228.784 6.82148 229.991 5.76801 231.155C5.58518 231.374 5.44539 231.626 5.35602 231.897C5.32994 231.965 5.28822 232.017 5.26736 232.08C5.01561 232.481 4.90175 232.953 4.94319 233.425C4.98462 233.897 5.17907 234.342 5.49682 234.692C12.4539 243.26 19.9689 251.467 27.7343 259.438C27.8126 259.329 27.8073 259.177 27.9064 259.078C28.6406 258.404 29.524 257.913 30.4841 257.647C31.4441 257.381 32.4535 257.347 33.4293 257.547C32.1464 256.236 30.8217 254.935 29.5649 253.624C37.3504 249.861 43.9921 244.085 48.8037 236.891C52.9097 239.678 56.981 242.52 61.0176 245.417C56.0827 252.684 49.2982 258.497 41.3668 262.254C42.0705 262.959 42.7257 263.712 43.3277 264.506C43.8052 265.171 44.2491 265.86 44.6576 266.569C52.9991 262.454 60.1314 256.24 65.3566 248.536C68.8091 251.038 72.2615 253.551 75.6827 256.074C69.4961 264.275 62.7136 272.006 55.3904 279.206C52.5221 276.474 49.6537 273.695 46.7906 270.921C47.5868 273.036 48.0649 275.258 48.2091 277.514C48.2257 278.101 48.0145 278.672 47.6198 279.107C49.346 280.758 51.0723 282.435 52.7933 284.075C52.8378 284.2 52.8901 284.322 52.9497 284.441C54.6585 286.86 56.6647 289.054 58.9211 290.971C59.9641 291.885 61.0385 292.768 62.118 293.645C63.3279 294.633 64.7256 295.578 66.3788 295.307C66.8814 295.231 67.356 295.026 67.7569 294.713C68.1579 294.401 68.4717 293.99 68.6683 293.52C69.7113 292.475 71.0464 291.274 71.3071 289.863C71.5314 289.743 71.7452 289.618 71.8287 289.581C72.6589 289.071 73.2562 288.255 73.4923 287.309C73.4923 287.309 73.4923 287.277 73.4923 287.251C73.6644 287.173 73.8365 287.074 73.8834 287.053C74.7981 286.633 75.5365 285.904 75.9695 284.994C76.0963 284.706 76.2043 284.409 76.2928 284.106C76.6348 283.975 76.9646 283.814 77.2785 283.626C78.0434 283.073 78.6335 282.311 78.9787 281.432C79.0625 281.112 79.167 280.798 79.2916 280.491C79.8131 279.655 79.3176 280.392 79.9643 279.906C80.7809 279.364 81.4452 278.621 81.894 277.749C82.2173 277.101 82.2642 276.181 82.6867 275.596C83.1091 275.011 84.0478 274.74 84.5537 274.207C84.8943 273.861 85.1762 273.463 85.3881 273.026C85.5706 272.629 85.5498 271.981 85.7688 271.626C86.1808 271.015 87.1613 270.545 87.6724 269.954C88.9762 268.45 90.0088 266.616 91.0987 264.939C91.5478 264.694 91.9048 264.309 92.1157 263.842C92.3984 263.197 92.4193 262.466 92.1741 261.805C91.9288 261.144 91.4366 260.604 90.8015 260.3ZM8.82411 221.272C9.17874 220.848 9.59596 220.483 9.93494 220.044L10.1488 219.767L13.3717 222.332C13.0223 222.745 12.699 223.173 12.3548 223.586C11.2373 222.727 10.0571 221.953 8.82411 221.272ZM25.7474 249.701C20.6834 244.32 15.7551 238.824 11.0823 233.156C14.8789 228.897 18.5296 224.526 22.0342 220.044C29.6587 224.349 37.1112 229.055 44.4594 233.95C39.8967 240.923 33.3901 246.4 25.7474 249.701ZM83.7766 266.298C83.1352 267.034 82.2382 267.468 81.5967 268.22C81.2567 268.614 80.9852 269.063 80.7935 269.547C80.6736 269.855 80.6945 270.466 80.5276 270.722C80.7205 270.419 80.006 270.957 79.907 271.02C79.487 271.299 79.1004 271.625 78.7544 271.992C78.1811 272.688 77.7537 273.493 77.4976 274.358C77.1742 275.299 77.1899 275.288 76.3815 275.826C75.5625 276.365 74.9246 277.139 74.551 278.046C74.4206 278.339 74.3789 278.694 74.2224 278.971C73.9982 279.384 74.551 278.971 73.8209 279.316C72.8428 279.708 72.039 280.441 71.5575 281.379C71.407 281.682 71.2982 282.004 71.2341 282.335C70.4713 282.603 69.7905 283.064 69.2576 283.673C68.9014 284.077 68.6553 284.566 68.5431 285.094C68.5306 285.157 68.515 285.22 68.4962 285.282C67.6778 285.594 66.9886 286.174 66.5405 286.927C66.3134 287.339 66.1765 287.795 66.1389 288.265V288.484C65.9772 288.646 65.6174 289.006 65.2836 289.356L64.7882 288.954C63.8181 288.16 62.8586 287.387 61.925 286.525C60.9915 285.663 60.1779 284.9 59.3592 284.028L59.0045 283.615C58.9263 283.526 58.8481 283.432 58.7751 283.338C66.5085 275.79 73.6468 267.652 80.126 259C80.95 259.658 81.7531 260.347 82.5615 261.032C83.5902 261.902 84.6625 262.72 85.774 263.482C85.1779 264.468 84.5103 265.409 83.7766 266.298Z" fill="#1E1E1E"/>
<path d="M130.713 13.7155C130.675 13.4522 130.675 13.1847 130.713 12.9214C130.973 11.8498 131.395 10.8245 131.965 9.88103V9.85491C131.965 9.81311 132.017 9.79222 132.038 9.75043C135.11 4.62565 142.041 1.94571 147.605 1.21957C151.145 0.745545 154.745 1.02591 158.169 2.0423C161.593 3.05869 164.764 4.78818 167.475 7.11751C173.29 12.1012 175.637 19.0753 176.127 26.5405C176.57 33.3317 176.268 41.5178 169.431 45.0806C164.643 47.5777 158.479 48.0792 152.878 46.9351C147.824 46.7627 142.333 46.0888 138.416 42.688C136.262 40.8178 134.765 38.1222 133.331 35.6982C131.808 33.2804 130.71 30.6196 130.082 27.8308C129.182 23.1414 129.398 18.3055 130.713 13.7155Z" fill="white"/>
<path d="M102.687 11.6675C107.38 7.48831 114.108 7.33681 119.667 9.78166C125.926 12.5295 131.021 18.067 135.01 23.4948C137.314 26.7103 139.283 30.1535 140.888 33.7704L141.832 32.0987C142.875 30.2651 143.793 28.3061 145.394 26.8747C146.252 26.1475 147.286 25.6593 148.392 25.459C150.911 24.3776 154.02 24.644 156.106 26.5351C156.608 26.9462 156.945 27.5263 157.052 28.1673C157.16 28.8083 157.031 29.4666 156.69 30.0196C155.954 31.2316 154.661 31.4771 153.378 31.0905L153.253 31.0539L152.992 30.9808C152.693 30.8972 152.396 30.8241 152.1 30.7614C151.761 30.6882 151.433 30.6256 151.094 30.5838C150.958 30.5838 150.828 30.5472 150.692 30.5368H150.557C150.515 30.5368 150.228 30.5368 150.197 30.5368H150.155L150.014 30.636C149.941 30.7353 149.837 30.8397 149.769 30.9286C149.356 31.428 148.773 31.7558 148.132 31.848C148.059 31.9472 147.986 32.0413 147.918 32.1405C147.824 32.3129 147.725 32.4853 147.626 32.6629L146.359 34.8309L145.409 36.5131C146.019 36.3343 146.674 36.3933 147.241 36.6782C147.809 36.9631 148.249 37.4529 148.471 38.0489L149.362 40.5356C149.545 40.9274 149.665 41.199 149.748 41.408C150.406 41.4916 151.532 41.1729 152.121 41.1833C154.3 41.2166 156.442 41.7529 158.38 42.7505C160.07 43.6105 161.561 44.8174 162.755 46.2925C163.949 47.7677 164.82 49.4782 165.311 51.3127C167.032 58.0309 162.703 68.6513 154.39 67.5073C153.798 67.3861 153.214 67.2255 152.643 67.0266C149.514 66.4311 146.28 64.2579 143.688 63.0146C138.875 60.7003 134.113 58.2764 129.456 55.6539C123.795 52.4715 118.345 48.9239 113.143 45.0335C109.315 43.0953 105.842 40.7132 103.505 36.9728C103.423 36.767 103.371 36.5507 103.349 36.3302C103.057 36.022 102.76 35.7242 102.473 35.4108C100.668 33.4152 98.6919 31.2629 97.9252 28.7867C97.5141 28.3802 97.264 27.8383 97.2212 27.2613C96.7153 21.6193 98.3007 15.5647 102.687 11.6675Z" fill="white"/>
<path d="M97.0075 27.4806C97.1692 28.4889 97.8576 29.3613 98.3843 30.2129L99.5421 32.1093L101.868 35.8864L102.202 36.4088C102.247 36.8395 102.388 37.2545 102.615 37.6233C102.841 37.9922 103.148 38.3055 103.511 38.5403C103.156 39.721 103.725 41.3719 104.961 41.7271C106.022 42.0703 107.145 42.1821 108.253 42.055C109.361 41.928 110.429 41.565 111.386 40.9905C111.722 40.7566 111.995 40.4439 112.182 40.0796C112.37 39.7153 112.465 39.3105 112.46 38.9008C112.46 38.5033 112.373 38.1106 112.207 37.7499C112.04 37.3891 111.797 37.0688 111.495 36.8111L111.365 36.6805L111.172 36.4559C111.047 36.2991 110.937 36.1372 110.817 35.9805C111.339 35.2828 111.696 34.4753 111.86 33.6191C111.95 32.9846 111.876 32.3377 111.646 31.7398C111.416 31.1418 111.038 30.6126 110.546 30.2024C110.155 29.8953 109.717 29.6552 109.248 29.4919L109.175 29.4606C109.175 29.3091 109.175 29.236 109.175 29.4606C109.227 27.5642 109.221 25.4902 107.375 24.3722C106.911 24.0706 106.382 23.884 105.831 23.8277C105.281 23.7713 104.725 23.847 104.21 24.0483C103.683 24.2895 103.197 24.6121 102.77 25.0043L102.739 24.973C102.417 24.6424 102.039 24.3718 101.623 24.1737C99.3074 23.0766 96.6059 24.9364 97.0075 27.4806Z" fill="#00A99D"/>
<path d="M144.419 32.6314C144.93 30.843 145.679 29.1315 146.646 27.5432C147.277 26.4984 147.991 25.5738 149.295 25.5842C150.812 25.5842 152.372 26.2268 153.759 26.7962C154.659 27.1806 155.531 27.6293 156.367 28.1388C152.017 28.4888 147.527 29.7216 144.419 32.6314ZM119.714 47.6923C117.628 46.5065 115.417 45.2475 113.253 43.884C113.931 43.6455 114.549 43.2643 115.068 42.7661C116.632 41.1727 117.154 38.6652 115.766 36.7845C115.242 36.1355 114.617 35.5747 113.915 35.1233L113.696 34.977C113.926 34.7002 114.499 33.7755 114.687 33.483C115.228 32.7343 115.515 31.8316 115.506 30.9075C115.459 30.3144 115.267 29.7419 114.947 29.2407C114.627 28.7396 114.188 28.3252 113.67 28.0343C112.954 27.6774 112.202 27.3972 111.427 27.1984C111.427 27.0574 111.427 26.9059 111.427 26.8641C111.464 26.2529 111.589 25.6469 111.61 25.0357C111.683 23.1394 110.796 21.3162 108.94 20.637C107.083 19.9579 105.289 20.6945 103.657 21.4833C103.026 21.7863 102.614 21.9744 102.171 21.7236C101.362 21.2796 100.606 20.8147 99.662 20.7885C99.2145 20.8129 98.7772 20.9322 98.3791 21.1386C98.6422 19.2689 99.2932 17.4751 100.29 15.8727C101.287 14.2703 102.608 12.8947 104.168 11.8345C108.559 8.82028 113.644 9.02924 118.468 10.8994C127.37 14.3525 133.66 22.6535 136.638 31.5083C136.664 31.5762 136.716 31.6127 136.742 31.6754C136.768 31.7381 136.804 31.921 136.851 32.0463C136.855 32.06 136.855 32.0744 136.851 32.0881C136.904 32.2135 136.951 32.3337 136.997 32.459C137.044 32.5844 137.149 32.8404 137.222 33.0337C137.389 33.483 137.55 33.9322 137.707 34.3867C138.009 35.2574 138.291 36.1281 138.552 36.9987C139.084 38.7993 139.527 40.6242 139.881 42.4735C140.121 43.7064 141.477 44.3228 142.604 44.0877C143.05 43.9753 143.449 43.7222 143.741 43.3657C144.033 43.0093 144.203 42.5684 144.226 42.1078C144.492 41.5854 144.747 41.063 145.029 40.5041C145.232 40.1645 145.342 39.7769 145.347 39.3809C145.347 39.2555 145.321 39.1301 145.305 38.9995C145.327 38.9782 145.348 38.9555 145.368 38.9316C145.798 39.3355 146.204 39.7646 146.583 40.2167C146.852 40.5977 147.084 41.0036 147.277 41.4287C147.313 41.5489 147.36 41.6586 147.391 41.7787C147.544 42.3407 147.901 42.8252 148.393 43.137C148.91 43.4464 149.529 43.5384 150.114 43.3929C150.171 43.3929 150.218 43.3303 150.275 43.3146C150.437 43.3305 150.599 43.3305 150.76 43.3146C154.124 42.7556 157.874 44.537 160.513 46.5587C163.152 48.5804 163.433 51.9081 163.12 54.9903C162.557 60.4547 158.228 66.4832 152.059 65.3861C148.93 64.8637 146.025 62.6122 143.329 61.0815L135.772 56.7926L119.714 47.6923ZM98.6398 26.3626C99.0172 26.3779 99.3922 26.297 99.7298 26.1275C99.8963 26.0199 100.047 25.8898 100.178 25.7409L100.314 25.8141C101.115 26.2364 102.02 26.4178 102.921 26.3365C103.885 26.2082 104.819 25.9111 105.68 25.4588C106.135 25.2103 106.618 25.0191 107.12 24.8894C107.12 25.067 107.12 25.2394 107.094 25.4118C106.989 26.5036 106.812 27.5641 107.12 28.6455C107.568 30.2441 108.898 31.1792 110.437 31.6023H110.499C110.421 31.7068 110.343 31.8113 110.27 31.921C109.42 33.1068 108.846 34.4755 109.18 35.9539C109.493 37.3383 110.551 38.2212 111.652 38.9995C111.777 39.1155 111.909 39.2237 112.048 39.3234C112.001 39.4381 111.926 39.5388 111.829 39.616C111.224 40.1384 109.743 39.9137 108.836 39.7936C108.472 39.7509 108.105 39.8318 107.792 40.0234C103.37 36.4711 99.7872 32.109 98.6398 26.3626ZM95.3282 31.0956C100.59 44.5318 116.126 50.8006 127.777 57.4195L139.104 63.8503C142.286 65.6578 145.446 67.8258 148.878 69.1213C154.374 71.211 160.466 69.1213 164.033 64.5346C167.684 59.88 169.144 51.9969 166.302 46.5692C163.668 41.5593 156.622 38.5659 151.011 38.8898C150.253 37.5621 149.29 36.3631 148.158 35.3375C149.94 34.0392 152.005 33.1834 154.181 32.8404C156.101 32.5113 158.062 32.6785 159.97 32.365C162.124 32.015 163.908 29.9358 162.813 27.7365C161.957 26.023 159.767 24.8737 158.15 23.9857C156.397 23.0085 154.541 22.2289 152.617 21.661C150.5 21.0445 148.21 20.8094 146.171 21.8281C144.481 22.6744 143.318 24.3043 142.416 25.9186C141.748 27.1454 141.179 28.4242 140.716 29.7425C136.387 17.5131 125.592 4.99628 111.657 4.93359C105.795 4.93359 100.246 8.06802 96.8876 12.8167C93.0961 18.1713 92.9866 25.1297 95.3282 31.0956Z" fill="#1E1E1E"/>
<path d="M139.626 52.624C139.946 52.131 140.443 51.7787 141.013 51.639C141.584 51.4992 142.186 51.5825 142.698 51.8718C146.72 53.6774 151.135 54.4288 155.527 54.0555C156.695 53.9667 157.796 55.2048 157.723 56.3333C157.696 56.9215 157.445 57.4772 157.023 57.8863C156.6 58.2953 156.037 58.5266 155.449 58.5327C150.266 58.8875 145.078 57.9111 140.377 55.6959C139.308 55.21 139.011 53.5278 139.626 52.624Z" fill="#1E1E1E"/>
</svg>
