<svg width="331" height="299" viewBox="0 0 331 299" fill="none" xmlns="http://www.w3.org/2000/svg">
<path d="M8.35333 251.317C-14.4352 222.691 20.1989 196.4 36.6993 177.336C55.7641 156.05 74.8404 133.947 93.487 112.184L146.492 51.2057C163.84 31.3448 179.453 5.27808 207.518 1.12865C218.925 -1.00989 234.447 5.80719 238.865 17.5671C268.272 93.5609 296.877 169.5 325.903 245.052C327.668 249.639 328.431 254.55 328.143 259.456C329.013 260.603 329.654 261.908 330.029 263.297C333.118 277.839 323.537 294.748 308.462 296.089C258.292 300.279 207.8 298.339 158.101 290.312C132.768 286.628 107.05 281.658 81.767 276.328C70.4806 274.41 59.2765 271.674 48.4196 269.417C33.6786 265.992 18.7168 264.934 8.35333 251.317Z" fill="white"/>
</svg>
