<svg width="80" height="80" viewBox="0 0 80 80" fill="none" xmlns="http://www.w3.org/2000/svg">
<g filter="url(#filter0_d_553_4127)">
<path d="M54.8509 11.7024C50.6451 8.50383 45.6132 6.56261 40.342 6.10498C35.0708 5.64735 29.7776 6.69214 25.0798 9.11771C22.8269 9.65895 20.6857 10.5869 18.7523 11.86C13.6825 15.3676 9.91339 20.441 8.02714 26.2963C3.85096 38.4315 5.90743 54.2861 16.253 62.1031L17.0122 62.6705C19.9335 65.5711 23.6375 67.5641 27.6741 68.4072C28.212 68.4072 28.7815 68.5964 29.3509 68.6909C37.2423 70.9867 45.7115 70.2441 53.0792 66.6105C59.6901 63.2604 64.7948 57.5561 67.3795 50.6299C73.7704 36.3513 68.0439 21.1269 54.8509 11.7024Z" fill="#FBA43B"/>
<path d="M55.1108 37.79C54.9448 37.3033 54.6498 36.8754 54.2599 36.5563C53.8701 36.2372 53.4014 36.0397 52.9082 35.9869C52.7949 35.9742 52.6806 35.9742 52.5673 35.9869H51.9642H51.4923L50.0501 35.6591C49.0554 35.385 48.0751 35.0568 47.1134 34.6757L46.4054 34.3752L46.117 34.2385L44.7272 33.6102L41.9216 32.1896C41.3878 31.932 40.7809 31.8914 40.2199 32.0757C39.6589 32.2601 39.1842 32.6561 38.8888 33.186C38.5934 33.716 38.4987 34.3418 38.6232 34.9408C38.7477 35.5398 39.0823 36.0688 39.5617 36.4241L41.5807 37.4348L38.9586 37.6533C36.8609 37.6533 34.7369 37.8172 32.6393 37.8445C29.5642 37.7395 26.4988 37.4293 23.4619 36.9158C22.8575 36.7617 22.2196 36.8541 21.6785 37.1741C21.1374 37.494 20.7342 38.0173 20.5514 38.6368C20.3976 39.2632 20.4841 39.9273 20.7925 40.4883C21.1009 41.0493 21.6069 41.463 22.2033 41.6418C27.7468 42.5112 33.3578 42.8223 38.9586 42.5707L41.1087 42.4068C40.663 42.8165 40.2434 43.2262 39.8501 43.6633C39.416 44.1275 39.1731 44.75 39.1731 45.398C39.1731 46.0461 39.416 46.6686 39.8501 47.1328C40.2988 47.5786 40.8951 47.8274 41.5151 47.8274C42.1352 47.8274 42.7315 47.5786 43.1802 47.1328C43.5451 46.7294 43.9303 46.3465 44.3339 45.9854L44.8846 45.4937L45.173 45.2751C46.0064 44.6288 46.8826 44.0445 47.7951 43.5267L49.1324 42.8164L49.8928 42.4613L50.2337 42.2974H50.391H50.627L51.099 41.833L51.8069 41.5599L53.3802 40.9588C53.7 40.8807 54.001 40.7346 54.2641 40.5296C54.5272 40.3247 54.7469 40.0655 54.9094 39.768C55.0718 39.4705 55.1736 39.1411 55.2083 38.8007C55.2429 38.4604 55.2097 38.1164 55.1108 37.79Z" fill="white"/>
</g>
<defs>
<filter id="filter0_d_553_4127" x="0" y="0" width="80" height="80" filterUnits="userSpaceOnUse" color-interpolation-filters="sRGB">
<feFlood flood-opacity="0" result="BackgroundImageFix"/>
<feColorMatrix in="SourceAlpha" type="matrix" values="0 0 0 0 0 0 0 0 0 0 0 0 0 0 0 0 0 0 127 0" result="hardAlpha"/>
<feOffset dx="2" dy="2"/>
<feGaussianBlur stdDeviation="4"/>
<feComposite in2="hardAlpha" operator="out"/>
<feColorMatrix type="matrix" values="0 0 0 0 0 0 0 0 0 0 0 0 0 0 0 0 0 0 0.25 0"/>
<feBlend mode="normal" in2="BackgroundImageFix" result="effect1_dropShadow_553_4127"/>
<feBlend mode="normal" in="SourceGraphic" in2="effect1_dropShadow_553_4127" result="shape"/>
</filter>
</defs>
</svg>
