<svg width="500" height="519" viewBox="0 0 500 519" fill="none" xmlns="http://www.w3.org/2000/svg">
<path d="M398.053 70.7634C449.503 94.8433 497.919 136.572 499.934 183.715C501.948 230.859 457.562 283.444 435.707 341.11C413.52 398.428 413.52 460.506 384.601 491.378C355.35 522.249 296.835 521.568 242.707 515.457C188.911 509.013 139.143 497.14 96.1087 471.028C52.7298 444.916 15.7518 404.551 4.31412 358.411C-7.45507 311.936 6.67306 259.698 24.8305 210.857C43.3195 162.015 65.8506 116.556 102.165 87.3827C138.48 58.2089 188.248 45.32 240.361 42.6058C292.475 39.5573 346.615 46.3362 398.053 70.7634Z" fill="#F8F8F8"/>
<path d="M212.16 285.191C212.735 281.309 211.85 277.521 210.625 273.831C210.593 272.731 209.692 271.993 208.653 271.936C206.395 271.821 204.14 272.001 201.915 272.3C200.685 272.477 199.465 272.671 198.229 272.875C197.078 273.071 195.804 273.139 194.947 274.066C193.975 275.132 194.227 276.483 194.449 277.784C194.653 278.983 194.856 280.181 195.085 281.386C195.549 283.839 196.087 286.268 196.709 288.689C196.863 289.301 197.481 289.942 198.113 290.026C200.372 290.323 202.464 289.445 204.528 288.63C206.592 287.816 208.646 286.984 210.853 286.583C211.468 286.494 212.076 285.815 212.16 285.191ZM198.411 278.454C198.328 277.957 198.245 277.461 198.162 276.964C198.157 276.921 198.153 276.878 198.149 276.835C198.849 276.739 199.582 276.553 200.229 276.444C201.136 276.287 202.037 276.156 202.949 276.041C204.384 275.872 205.839 275.806 207.297 275.782C208.053 278.166 208.689 280.647 208.576 283.142C207.008 283.531 205.51 284.105 204.006 284.706C203.094 285.072 202.171 285.422 201.239 285.756C200.892 285.882 200.481 286.048 200.056 286.155C199.688 284.58 199.293 282.999 198.983 281.41C198.759 280.43 198.577 279.447 198.411 278.454Z" fill="#DCDCDC"/>
<path d="M427.74 18.4996C428.315 14.618 427.43 10.8294 426.205 7.14007C426.173 6.03946 425.272 5.30168 424.233 5.24495C421.975 5.12983 419.72 5.30979 417.494 5.60886C416.265 5.786 415.045 5.97963 413.809 6.18336C412.658 6.37967 411.384 6.4478 410.526 7.37422C409.555 8.44098 409.807 9.79156 410.029 11.0927C410.232 12.2912 410.436 13.4897 410.665 14.6946C411.129 17.1474 411.666 19.5764 412.289 21.9979C412.443 22.6099 413.061 23.2508 413.693 23.3345C415.952 23.632 418.044 22.7539 420.108 21.939C422.172 21.1242 424.226 20.2928 426.433 19.8911C427.048 19.8025 427.656 19.1238 427.74 18.4996ZM413.99 11.7624C413.907 11.2658 413.824 10.7692 413.741 10.2726C413.737 10.2295 413.733 10.1864 413.729 10.1434C414.428 10.0474 415.162 9.86154 415.809 9.75277C416.716 9.59519 417.617 9.46418 418.529 9.34967C419.964 9.18057 421.418 9.1141 422.877 9.0907C423.632 11.4745 424.269 13.9556 424.156 16.4503C422.588 16.8394 421.09 17.4137 419.586 18.0145C418.673 18.381 417.751 18.731 416.819 19.0646C416.472 19.1905 416.061 19.3568 415.636 19.4635C415.268 17.8885 414.873 16.3071 414.563 14.7183C414.339 13.7389 414.156 12.7557 413.99 11.7624Z" fill="#DCDCDC"/>
<path d="M366.934 400.483C363.916 397.997 360.192 396.783 356.37 395.904C355.41 395.362 354.292 395.736 353.685 396.577C352.372 398.409 351.313 400.39 350.373 402.408C349.863 403.53 349.373 404.651 348.883 405.792C348.432 406.857 347.805 407.96 348.138 409.156C348.53 410.52 349.824 411.006 351.059 411.492C352.195 411.941 353.332 412.389 354.488 412.819C356.84 413.698 359.212 414.501 361.623 415.23C362.23 415.417 363.112 415.23 363.524 414.744C364.994 413.006 365.366 410.801 365.778 408.651C366.189 406.502 366.581 404.352 367.424 402.296C367.679 401.736 367.424 400.876 366.934 400.483ZM353.763 408.52C353.293 408.333 352.823 408.147 352.352 407.96C352.313 407.941 352.274 407.922 352.235 407.904C352.529 407.268 352.764 406.558 353.019 405.96C353.371 405.119 353.744 404.296 354.136 403.474C354.763 402.184 355.488 400.932 356.252 399.698C358.702 400.296 361.172 401.044 363.249 402.427C362.74 403.941 362.426 405.492 362.132 407.063C361.956 408.016 361.76 408.969 361.544 409.922C361.466 410.277 361.388 410.707 361.25 411.118C359.702 410.614 358.134 410.128 356.605 409.567C355.645 409.249 354.704 408.894 353.763 408.52Z" fill="#FBB03B"/>
<path d="M335.534 374.847C336.109 370.965 335.224 367.177 333.999 363.487C333.967 362.387 333.066 361.649 332.027 361.592C329.769 361.477 327.514 361.657 325.289 361.956C324.059 362.133 322.839 362.327 321.603 362.531C320.452 362.727 319.178 362.795 318.321 363.721C317.349 364.788 317.601 366.139 317.823 367.44C318.027 368.638 318.23 369.837 318.459 371.042C318.923 373.495 319.461 375.923 320.083 378.345C320.237 378.957 320.856 379.598 321.487 379.682C323.746 379.979 325.838 379.101 327.902 378.286C329.966 377.471 332.02 376.64 334.227 376.238C334.842 376.15 335.451 375.471 335.534 374.847ZM321.785 368.11C321.702 367.613 321.619 367.116 321.536 366.62C321.531 366.577 321.527 366.534 321.523 366.49C322.223 366.395 322.956 366.209 323.603 366.1C324.51 365.942 325.411 365.811 326.323 365.697C327.758 365.528 329.213 365.461 330.671 365.438C331.427 367.822 332.063 370.303 331.95 372.797C330.382 373.187 328.884 373.761 327.38 374.362C326.468 374.728 325.545 375.078 324.613 375.412C324.266 375.538 323.855 375.704 323.43 375.811C323.062 374.236 322.667 372.654 322.357 371.065C322.133 370.086 321.951 369.103 321.785 368.11Z" fill="#DCDCDC"/>
<path d="M184.888 469.174C185.463 465.293 184.578 461.504 183.353 457.815C183.321 456.714 182.42 455.976 181.381 455.92C179.123 455.805 176.868 455.985 174.642 456.284C173.413 456.461 172.193 456.654 170.957 456.858C169.806 457.054 168.532 457.123 167.674 458.049C166.703 459.116 166.955 460.466 167.177 461.768C167.38 462.966 167.584 464.165 167.813 465.369C168.277 467.822 168.814 470.251 169.437 472.673C169.591 473.285 170.209 473.926 170.841 474.009C173.1 474.307 175.192 473.429 177.256 472.614C179.32 471.799 181.374 470.968 183.581 470.566C184.196 470.477 184.804 469.799 184.888 469.174ZM171.138 462.437C171.055 461.941 170.972 461.444 170.889 460.947C170.885 460.904 170.881 460.861 170.877 460.818C171.576 460.722 172.31 460.536 172.957 460.428C173.864 460.27 174.765 460.139 175.677 460.024C177.112 459.855 178.566 459.789 180.025 459.766C180.78 462.149 181.417 464.63 181.304 467.125C179.736 467.514 178.238 468.088 176.734 468.689C175.821 469.056 174.899 469.406 173.967 469.739C173.62 469.865 173.209 470.032 172.784 470.138C172.416 468.563 172.021 466.982 171.711 465.393C171.487 464.414 171.304 463.431 171.138 462.437Z" fill="#00A99D"/>
<path d="M461.506 70.9039C462.081 67.0223 461.196 63.2337 459.97 59.5444C459.939 58.4438 459.038 57.706 457.998 57.6492C455.74 57.5341 453.486 57.7141 451.26 58.0132C450.03 58.1903 448.81 58.3839 447.575 58.5876C446.424 58.784 445.149 58.8521 444.292 59.7785C443.32 60.8453 443.573 62.1958 443.795 63.497C443.998 64.6955 444.201 65.894 444.431 67.0989C444.894 69.5517 445.432 71.9807 446.054 74.4022C446.209 75.0142 446.827 75.6551 447.459 75.7388C449.718 76.0363 451.81 75.1582 453.874 74.3433C455.938 73.5284 457.992 72.6971 460.199 72.2954C460.814 72.2068 461.422 71.5281 461.506 70.9039ZM447.756 64.1667C447.673 63.6701 447.59 63.1735 447.507 62.6768C447.503 62.6338 447.499 62.5907 447.494 62.5476C448.194 62.4517 448.927 62.2658 449.574 62.1571C450.482 61.9995 451.383 61.8685 452.294 61.754C453.73 61.5849 455.184 61.5184 456.642 61.495C457.398 63.8788 458.035 66.3599 457.921 68.8546C456.354 69.2437 454.855 69.8179 453.351 70.4187C452.439 70.7853 451.517 71.1353 450.584 71.4689C450.238 71.5948 449.827 71.761 449.402 71.8678C449.033 70.2928 448.639 68.7114 448.329 67.1226C448.104 66.1431 447.922 65.16 447.756 64.1667Z" fill="#00A99D"/>
</svg>
