<svg width="693" height="700" viewBox="0 0 693 700" fill="none" xmlns="http://www.w3.org/2000/svg">
<path d="M312.307 587.037C255.71 591.908 192.916 579.979 167.6 540.158C142.283 500.338 154.43 432.605 144.525 371.737C135.08 311.005 104.041 257.244 113.65 216.048C123.546 174.687 174.562 146.02 224.493 124.248C274.305 102.931 323.341 88.3291 373.666 89.4257C424.289 90.3501 476.496 106.818 509.471 141.058C542.901 175.422 556.784 227.725 565.48 279.102C573.889 330.644 577.106 381.278 560.243 424.701C543.381 468.123 506.725 504.169 462.951 532.576C419.344 561.273 369.067 582.473 312.307 587.037Z" fill="#F8F8F8"/>
<path d="M366.081 308.391C367.524 312.04 370.184 314.878 373.09 317.461C373.668 318.398 374.817 318.587 375.746 318.116C377.759 317.087 379.621 315.804 381.399 314.432C382.376 313.663 383.335 312.886 384.303 312.092C385.202 311.346 386.272 310.65 386.551 309.419C386.859 308.009 385.965 306.966 385.122 305.95C384.347 305.014 383.572 304.077 382.771 303.149C381.143 301.256 379.463 299.421 377.713 297.636C377.273 297.183 376.417 296.937 375.828 297.18C373.723 298.052 372.351 299.858 370.971 301.596C369.591 303.334 368.227 305.081 366.517 306.532C366.029 306.916 365.841 307.808 366.081 308.391ZM381.357 307.351C381.677 307.739 381.997 308.128 382.318 308.516C382.343 308.551 382.368 308.587 382.393 308.622C381.835 309.055 381.293 309.582 380.787 310C380.08 310.59 379.365 311.154 378.633 311.709C377.475 312.573 376.248 313.358 374.997 314.108C373.151 312.421 371.359 310.591 370.21 308.373C371.373 307.253 372.383 306.006 373.385 304.734C373.992 303.96 374.616 303.196 375.257 302.441C375.494 302.158 375.766 301.809 376.081 301.504C377.188 302.684 378.32 303.856 379.383 305.077C380.067 305.813 380.717 306.573 381.357 307.351Z" fill="#DCDCDC"/>
<path d="M312.729 647.142C314.172 650.791 316.833 653.63 319.739 656.212C320.316 657.15 321.465 657.338 322.394 656.868C324.407 655.838 326.269 654.555 328.047 653.183C329.024 652.415 329.983 651.637 330.952 650.843C331.85 650.097 332.92 649.401 333.199 648.17C333.507 646.761 332.613 645.717 331.771 644.701C330.995 643.765 330.22 642.829 329.419 641.9C327.791 640.008 326.111 638.173 324.361 636.387C323.922 635.934 323.066 635.688 322.477 635.932C320.372 636.803 318.999 638.61 317.619 640.348C316.239 642.085 314.876 643.832 313.165 645.284C312.677 645.668 312.49 646.56 312.729 647.142ZM328.005 646.102C328.325 646.491 328.646 646.879 328.966 647.268C328.991 647.303 329.016 647.338 329.041 647.373C328.483 647.806 327.941 648.334 327.435 648.752C326.728 649.342 326.013 649.906 325.281 650.461C324.123 651.325 322.897 652.109 321.645 652.859C319.799 651.172 318.007 649.342 316.858 647.125C318.021 646.004 319.031 644.758 320.034 643.485C320.64 642.712 321.264 641.947 321.905 641.192C322.142 640.91 322.415 640.561 322.729 640.256C323.836 641.435 324.969 642.607 326.031 643.828C326.716 644.564 327.365 645.325 328.005 646.102Z" fill="#DCDCDC"/>
<path d="M174.397 285.932C178.254 286.575 182.086 285.766 185.835 284.615C186.938 284.605 187.718 283.722 187.824 282.69C188.045 280.447 187.971 278.202 187.777 275.984C187.657 274.758 187.521 273.542 187.375 272.309C187.233 271.161 187.225 269.893 186.338 269.023C185.316 268.038 183.953 268.263 182.641 268.46C181.432 268.64 180.223 268.82 179.007 269.026C176.531 269.441 174.075 269.931 171.623 270.505C171.003 270.647 170.333 271.25 170.219 271.876C169.816 274.117 170.596 276.213 171.314 278.28C172.032 280.347 172.768 282.405 173.066 284.607C173.125 285.22 173.776 285.837 174.397 285.932ZM181.784 272.386C182.285 272.313 182.786 272.239 183.287 272.166C183.33 272.163 183.373 272.159 183.417 272.156C183.48 272.853 183.631 273.586 183.71 274.231C183.825 275.136 183.913 276.034 183.985 276.943C184.087 278.373 184.085 279.82 184.04 281.271C181.619 281.978 179.107 282.565 176.616 282.406C176.3 280.84 175.796 279.34 175.266 277.833C174.942 276.919 174.635 275.996 174.345 275.063C174.235 274.716 174.088 274.304 174.001 273.88C175.595 273.542 177.196 273.179 178.8 272.901C179.79 272.696 180.783 272.533 181.784 272.386Z" fill="#FBB03B"/>
<path d="M452.654 417.246C456.511 417.889 460.343 417.08 464.092 415.929C465.195 415.919 465.975 415.036 466.081 414.004C466.302 411.761 466.228 409.516 466.034 407.298C465.914 406.072 465.778 404.855 465.632 403.623C465.49 402.475 465.482 401.206 464.595 400.337C463.573 399.351 462.21 399.577 460.898 399.774C459.689 399.954 458.48 400.134 457.264 400.34C454.788 400.755 452.332 401.244 449.88 401.819C449.26 401.96 448.59 402.563 448.476 403.19C448.073 405.43 448.853 407.527 449.571 409.594C450.289 411.661 451.025 413.719 451.323 415.921C451.383 416.534 452.033 417.151 452.654 417.246ZM460.041 403.7C460.542 403.627 461.043 403.553 461.544 403.48C461.587 403.477 461.631 403.473 461.674 403.47C461.737 404.167 461.888 404.9 461.967 405.545C462.082 406.45 462.171 407.348 462.242 408.257C462.344 409.687 462.342 411.134 462.297 412.585C459.876 413.292 457.364 413.879 454.873 413.72C454.557 412.154 454.053 410.654 453.523 409.147C453.199 408.233 452.892 407.31 452.602 406.376C452.492 406.03 452.345 405.618 452.258 405.193C453.852 404.856 455.453 404.493 457.057 404.214C458.048 404.009 459.04 403.847 460.041 403.7Z" fill="#FBB03B"/>
<path d="M214.408 292.434C215.851 296.083 218.512 298.921 221.418 301.504C221.995 302.441 223.144 302.63 224.073 302.159C226.086 301.13 227.948 299.847 229.727 298.475C230.703 297.706 231.662 296.929 232.631 296.135C233.529 295.389 234.599 294.693 234.878 293.462C235.186 292.052 234.292 291.009 233.45 289.993C232.674 289.057 231.899 288.12 231.098 287.192C229.47 285.299 227.79 283.464 226.04 281.679C225.601 281.226 224.745 280.98 224.156 281.223C222.051 282.095 220.678 283.901 219.298 285.639C217.918 287.377 216.555 289.124 214.844 290.575C214.356 290.959 214.169 291.851 214.408 292.434ZM229.684 291.394C230.004 291.782 230.325 292.171 230.645 292.559C230.67 292.594 230.695 292.63 230.72 292.665C230.163 293.098 229.62 293.625 229.114 294.043C228.407 294.633 227.693 295.197 226.961 295.752C225.802 296.616 224.576 297.401 223.324 298.151C221.478 296.464 219.686 294.634 218.537 292.416C219.7 291.296 220.71 290.049 221.713 288.777C222.32 288.003 222.943 287.239 223.584 286.484C223.821 286.201 224.094 285.852 224.409 285.547C225.515 286.727 226.648 287.899 227.711 289.12C228.395 289.856 229.044 290.616 229.684 291.394Z" fill="#DCDCDC"/>
<path d="M297.708 135.421C299.15 139.07 301.811 141.908 304.717 144.49C305.295 145.428 306.444 145.616 307.372 145.146C309.385 144.117 311.248 142.833 313.026 141.461C314.003 140.693 314.962 139.916 315.93 139.121C316.829 138.376 317.899 137.679 318.178 136.449C318.486 135.039 317.592 133.996 316.749 132.98C315.974 132.043 315.199 131.107 314.397 130.178C312.77 128.286 311.09 126.451 309.34 124.665C308.9 124.212 308.044 123.966 307.455 124.21C305.35 125.082 303.978 126.888 302.597 128.626C301.217 130.364 299.854 132.111 298.144 133.562C297.655 133.946 297.468 134.838 297.708 135.421ZM312.984 134.38C313.304 134.769 313.624 135.157 313.944 135.546C313.97 135.581 313.995 135.616 314.02 135.652C313.462 136.085 312.92 136.612 312.414 137.03C311.707 137.62 310.992 138.184 310.26 138.739C309.101 139.603 307.875 140.388 306.624 141.137C304.778 139.451 302.985 137.62 301.836 135.403C303 134.282 304.01 133.036 305.012 131.763C305.619 130.99 306.243 130.226 306.884 129.47C307.121 129.188 307.393 128.839 307.708 128.534C308.815 129.714 309.947 130.886 311.01 132.107C311.694 132.843 312.343 133.603 312.984 134.38Z" fill="#00A99D"/>
<path d="M257.285 618.642C258.728 622.291 261.389 625.129 264.295 627.712C264.872 628.649 266.022 628.838 266.95 628.367C268.963 627.338 270.826 626.055 272.604 624.683C273.58 623.914 274.54 623.137 275.508 622.343C276.407 621.597 277.476 620.901 277.755 619.67C278.063 618.26 277.17 617.217 276.327 616.201C275.551 615.265 274.776 614.328 273.975 613.4C272.347 611.507 270.667 609.672 268.917 607.887C268.478 607.434 267.622 607.188 267.033 607.431C264.928 608.303 263.555 610.109 262.175 611.847C260.795 613.585 259.432 615.332 257.721 616.783C257.233 617.167 257.046 618.059 257.285 618.642ZM272.561 617.602C272.882 617.99 273.202 618.379 273.522 618.767C273.547 618.802 273.572 618.838 273.598 618.873C273.04 619.306 272.497 619.833 271.991 620.251C271.285 620.841 270.57 621.405 269.838 621.96C268.679 622.824 267.453 623.609 266.201 624.359C264.355 622.672 262.563 620.842 261.414 618.624C262.577 617.504 263.588 616.257 264.59 614.985C265.197 614.211 265.82 613.447 266.461 612.692C266.698 612.409 266.971 612.06 267.286 611.755C268.392 612.935 269.525 614.107 270.588 615.328C271.272 616.064 271.921 616.824 272.561 617.602Z" fill="#00A99D"/>
</svg>
