<svg width="427" height="193" viewBox="0 0 427 193" fill="none" xmlns="http://www.w3.org/2000/svg">
<path d="M166.764 2.96741C166.239 2.46884 165.704 1.93357 165.028 1.57862C164.031 1.07753 162.926 1.20311 161.937 1.6979C160.422 2.46146 159.092 3.42002 157.808 4.45426C156.409 5.58704 155.01 6.71982 153.595 7.86329C152.846 8.47361 151.868 9.08916 151.417 9.90368C150.901 10.8687 151.143 11.8357 152.106 12.4659L152.118 12.4789C154.393 15.1466 156.654 17.8014 158.9 20.4668C159.301 20.9431 160.086 21.1392 160.757 21.0501C162.417 20.8498 163.912 20.1207 165.336 19.3975C166.883 18.6126 168.396 17.7649 169.848 16.8523C170.48 16.4483 171.112 16.0443 171.732 15.6273C172.432 15.1568 173.3 14.7002 173.848 14.0974C175.231 12.5916 173.979 11.0265 172.954 9.75579C171.017 7.41535 169.08 5.07492 166.764 2.96741ZM168.436 13.5835C167.549 14.1586 166.634 14.7314 165.695 15.2782C164.819 15.7822 163.946 16.2625 163.037 16.7038C162.498 16.9596 161.928 17.2368 161.352 17.4536C159.454 15.2362 157.572 13.0081 155.689 10.7801C156.046 10.4975 156.39 10.2018 156.747 9.91923C157.595 9.22107 158.455 8.53591 159.303 7.83775C160.099 7.19536 160.88 6.56366 161.701 5.94726C162.118 5.64557 162.531 5.36756 162.973 5.09186C163.084 5.01701 163.224 4.94447 163.347 4.88262C163.421 4.96062 163.511 5.02792 163.585 5.10591C163.988 5.4745 164.374 5.85377 164.773 6.24605C165.542 7.02829 166.283 7.80823 167.005 8.62255C167.726 9.43687 168.404 10.2596 169.094 11.0953C169.395 11.4676 169.709 11.853 170.027 12.2147C170.076 12.2666 170.122 12.3423 170.184 12.4073C170.073 12.4822 169.961 12.557 169.834 12.6426C169.386 12.9656 168.912 13.2627 168.436 13.5835Z" fill="#FBB03B"/>
<path d="M17.6605 59.9152C17.1347 59.4166 16.6 58.8813 15.9241 58.5264C14.9269 58.0253 13.8217 58.1509 12.8328 58.6456C11.3176 59.4092 9.98769 60.3678 8.70364 61.402C7.30478 62.5348 5.90592 63.6676 4.49116 64.811C3.74228 65.4214 2.76388 66.0369 2.31324 66.8514C1.79719 67.8165 2.0385 68.7834 3.00206 69.4137L3.01441 69.4267C5.28852 72.0944 7.55028 74.7491 9.79615 77.4145C10.1966 77.8909 10.9821 78.0869 11.653 77.9978C13.3126 77.7976 14.8084 77.0684 16.2317 76.3453C17.7787 75.5603 19.2921 74.7127 20.7438 73.8001C21.3761 73.3961 22.0083 72.992 22.6282 72.575C23.3276 72.1046 24.1964 71.6479 24.7441 71.0452C26.1272 69.5394 24.8747 67.9743 23.8497 66.7035C21.9126 64.3631 19.9755 62.0227 17.6605 59.9152ZM19.3316 70.5313C18.445 71.1064 17.5302 71.6791 16.5907 72.2259C15.7147 72.7299 14.8423 73.2103 13.9329 73.6516C13.3943 73.9074 12.8239 74.1845 12.2483 74.4013C10.3499 72.184 8.4675 69.9559 6.58506 67.7278C6.94184 67.4452 7.28626 67.1496 7.64304 66.867C8.49084 66.1688 9.35099 65.4837 10.1988 64.7855C10.9954 64.1431 11.776 63.5114 12.5973 62.895C13.0141 62.5933 13.4274 62.3153 13.8689 62.0396C13.9802 61.9648 14.1197 61.8922 14.2433 61.8304C14.3174 61.9084 14.4074 61.9757 14.4815 62.0537C14.8838 62.4223 15.2702 62.8015 15.669 63.1938C16.4382 63.976 17.1793 64.756 17.9009 65.5703C18.6225 66.3846 19.2999 67.2073 19.9897 68.043C20.2914 68.4154 20.6054 68.8007 20.923 69.1624C20.9724 69.2144 21.0183 69.2901 21.08 69.3551C20.9687 69.4299 20.8575 69.5048 20.7303 69.5903C20.2817 69.9134 19.8084 70.2105 19.3316 70.5313Z" fill="#FBB03B"/>
<path d="M42.7144 172.417C42.1886 171.918 41.654 171.383 40.978 171.028C39.9809 170.527 38.8756 170.652 37.8867 171.147C36.3716 171.911 35.0416 172.869 33.7576 173.903C32.3587 175.036 30.9599 176.169 29.5451 177.312C28.7962 177.923 27.8178 178.538 27.3672 179.353C26.8511 180.318 27.0925 181.285 28.056 181.915L28.0684 181.928C30.3425 184.596 32.6042 187.251 34.8501 189.916C35.2506 190.392 36.0361 190.588 36.707 190.499C38.3666 190.299 39.8623 189.57 41.2857 188.847C42.8326 188.062 44.3461 187.214 45.7978 186.302C46.43 185.898 47.0623 185.494 47.6822 185.077C48.3816 184.606 49.2504 184.149 49.798 183.547C51.1812 182.041 49.9287 180.476 48.9037 179.205C46.9666 176.865 45.0295 174.524 42.7144 172.417ZM44.3855 183.033C43.499 183.608 42.5842 184.181 41.6446 184.727C40.7687 185.231 39.8963 185.712 38.9869 186.153C38.4483 186.409 37.8779 186.686 37.3022 186.903C35.4039 184.685 33.5215 182.457 31.639 180.229C31.9958 179.947 32.3402 179.651 32.697 179.368C33.5448 178.67 34.405 177.985 35.2528 177.287C36.0493 176.645 36.83 176.013 37.6513 175.396C38.0681 175.095 38.4814 174.817 38.9229 174.541C39.0341 174.466 39.1736 174.394 39.2973 174.332C39.3714 174.41 39.4614 174.477 39.5355 174.555C39.9378 174.924 40.3242 175.303 40.7229 175.695C41.4922 176.477 42.2333 177.257 42.9548 178.072C43.6764 178.886 44.3539 179.709 45.0437 180.545C45.3454 180.917 45.6594 181.302 45.977 181.664C46.0264 181.716 46.0722 181.792 46.134 181.857C46.0227 181.931 45.9115 182.006 45.7843 182.092C45.3357 182.415 44.8624 182.712 44.3855 183.033Z" fill="#FBB03B"/>
<path d="M161.407 138.589C158.411 136.36 154.715 135.271 150.922 134.483C149.969 133.997 148.861 134.332 148.258 135.086C146.954 136.729 145.904 138.506 144.97 140.316C144.465 141.321 143.978 142.327 143.492 143.35C143.045 144.305 142.422 145.294 142.753 146.367C143.142 147.59 144.426 148.026 145.651 148.462C146.779 148.864 147.908 149.266 149.055 149.652C151.389 150.44 153.743 151.16 156.135 151.814C156.738 151.982 157.614 151.814 158.022 151.378C159.481 149.819 159.85 147.842 160.259 145.914C160.667 143.987 161.056 142.059 161.893 140.215C162.146 139.712 161.893 138.941 161.407 138.589ZM148.335 145.797C147.869 145.629 147.402 145.462 146.935 145.294C146.896 145.277 146.857 145.26 146.818 145.244C147.11 144.674 147.343 144.037 147.596 143.5C147.946 142.746 148.316 142.009 148.705 141.271C149.327 140.115 150.047 138.992 150.806 137.885C153.237 138.422 155.688 139.092 157.75 140.333C157.244 141.69 156.933 143.081 156.641 144.489C156.466 145.344 156.271 146.199 156.057 147.054C155.98 147.372 155.902 147.758 155.766 148.127C154.229 147.674 152.673 147.238 151.156 146.735C150.203 146.45 149.269 146.132 148.335 145.797Z" fill="#FBB03B"/>
<path d="M417.622 2.96739C417.096 2.46882 416.561 1.93355 415.885 1.5786C414.888 1.0775 413.783 1.20308 412.794 1.69787C411.279 2.46145 409.949 3.42 408.665 4.45424C407.266 5.58703 405.867 6.71981 404.452 7.86329C403.704 8.4736 402.725 9.08916 402.275 9.90368C401.758 10.8687 402 11.8357 402.963 12.4659L402.976 12.4789C405.25 15.1467 407.512 17.8014 409.757 20.4668C410.158 20.9431 410.943 21.1392 411.614 21.0501C413.274 20.8499 414.77 20.1207 416.193 19.3976C417.74 18.6126 419.253 17.765 420.705 16.8523C421.337 16.4483 421.97 16.0443 422.589 15.6273C423.289 15.1568 424.158 14.7002 424.705 14.0974C426.088 12.5917 424.836 11.0265 423.811 9.75579C421.874 7.41535 419.937 5.07491 417.622 2.96739ZM419.293 13.5835C418.406 14.1586 417.491 14.7314 416.552 15.2782C415.676 15.7822 414.804 16.2625 413.894 16.7039C413.356 16.9596 412.785 17.2368 412.21 17.4536C410.311 15.2362 408.429 13.0081 406.546 10.7801C406.903 10.4975 407.248 10.2018 407.604 9.91923C408.452 9.22107 409.312 8.5359 410.16 7.83774C410.957 7.19535 411.737 6.56365 412.559 5.94726C412.975 5.64556 413.389 5.36755 413.83 5.09185C413.941 5.017 414.081 4.94446 414.205 4.88261C414.279 4.96061 414.369 5.02791 414.443 5.1059C414.845 5.47449 415.231 5.85376 415.63 6.24604C416.4 7.02828 417.141 7.80822 417.862 8.62255C418.584 9.43687 419.261 10.2596 419.951 11.0953C420.253 11.4676 420.567 11.853 420.884 12.2147C420.934 12.2667 420.98 12.3423 421.041 12.4073C420.93 12.4822 420.819 12.557 420.692 12.6426C420.243 12.9657 419.77 13.2627 419.293 13.5835Z" fill="#FBB03B"/>
<path d="M293.572 172.417C293.046 171.918 292.511 171.383 291.835 171.028C290.838 170.527 289.733 170.652 288.744 171.147C287.229 171.911 285.899 172.869 284.615 173.903C283.216 175.036 281.817 176.169 280.402 177.312C279.654 177.923 278.675 178.538 278.224 179.353C277.708 180.318 277.95 181.285 278.913 181.915L278.926 181.928C281.2 184.596 283.462 187.251 285.707 189.916C286.108 190.392 286.893 190.589 287.564 190.499C289.224 190.299 290.72 189.57 292.143 188.847C293.69 188.062 295.203 187.214 296.655 186.302C297.287 185.898 297.92 185.494 298.539 185.077C299.239 184.606 300.108 184.149 300.655 183.547C302.039 182.041 300.786 180.476 299.761 179.205C297.824 176.865 295.887 174.524 293.572 172.417ZM295.243 183.033C294.356 183.608 293.441 184.181 292.502 184.727C291.626 185.231 290.754 185.712 289.844 186.153C289.306 186.409 288.735 186.686 288.16 186.903C286.261 184.685 284.379 182.457 282.496 180.229C282.853 179.947 283.198 179.651 283.554 179.368C284.402 178.67 285.262 177.985 286.11 177.287C286.907 176.645 287.687 176.013 288.509 175.396C288.925 175.095 289.339 174.817 289.78 174.541C289.891 174.466 290.031 174.394 290.155 174.332C290.229 174.41 290.319 174.477 290.393 174.555C290.795 174.924 291.181 175.303 291.58 175.695C292.349 176.477 293.091 177.257 293.812 178.072C294.534 178.886 295.211 179.709 295.901 180.545C296.203 180.917 296.517 181.302 296.834 181.664C296.884 181.716 296.93 181.792 296.991 181.857C296.88 181.931 296.769 182.006 296.642 182.092C296.193 182.415 295.72 182.712 295.243 183.033Z" fill="#FBB03B"/>
<path d="M256.518 46.3458C255.992 45.8473 255.457 45.312 254.781 44.957C253.784 44.4559 252.679 44.5815 251.69 45.0763C250.175 45.8399 248.845 46.7984 247.561 47.8327C246.162 48.9655 244.763 50.0982 243.348 51.2417C242.6 51.852 241.621 52.4676 241.171 53.2821C240.654 54.2472 240.896 55.2141 241.859 55.8443L241.872 55.8573C244.146 58.5251 246.408 61.1798 248.653 63.8452C249.054 64.3215 249.839 64.5176 250.51 64.4285C252.17 64.2283 253.666 63.4991 255.089 62.776C256.636 61.991 258.149 61.1434 259.601 60.2307C260.233 59.8267 260.866 59.4227 261.486 59.0057C262.185 58.5352 263.054 58.0786 263.601 57.4758C264.985 55.9701 263.732 54.405 262.707 53.1342C260.77 50.7938 258.833 48.4533 256.518 46.3458ZM258.189 56.9619C257.302 57.537 256.388 58.1098 255.448 58.6566C254.572 59.1606 253.7 59.6409 252.79 60.0823C252.252 60.338 251.681 60.6152 251.106 60.832C249.207 58.6146 247.325 56.3866 245.442 54.1585C245.799 53.8759 246.144 53.5803 246.5 53.2976C247.348 52.5995 248.208 51.9143 249.056 51.2162C249.853 50.5738 250.633 49.9421 251.455 49.3257C251.871 49.024 252.285 48.746 252.726 48.4703C252.837 48.3954 252.977 48.3229 253.101 48.261C253.175 48.339 253.265 48.4063 253.339 48.4843C253.741 48.8529 254.128 49.2322 254.526 49.6245C255.296 50.4067 256.037 51.1866 256.758 52.001C257.48 52.8153 258.157 53.638 258.847 54.4737C259.149 54.8461 259.463 55.2314 259.78 55.5931C259.83 55.6451 259.876 55.7208 259.937 55.7858C259.826 55.8606 259.715 55.9354 259.588 56.021C259.139 56.3441 258.666 56.6412 258.189 56.9619Z" fill="#FBB03B"/>
<path d="M412.264 138.589C409.268 136.36 405.573 135.271 401.78 134.483C400.827 133.997 399.718 134.332 399.115 135.086C397.812 136.729 396.761 138.506 395.828 140.316C395.322 141.321 394.836 142.327 394.35 143.35C393.902 144.305 393.28 145.294 393.61 146.367C393.999 147.59 395.283 148.026 396.509 148.462C397.637 148.864 398.765 149.266 399.913 149.652C402.247 150.44 404.6 151.16 406.993 151.814C407.596 151.982 408.471 151.814 408.879 151.378C410.338 149.819 410.708 147.842 411.116 145.914C411.525 143.987 411.914 142.059 412.75 140.215C413.003 139.712 412.75 138.941 412.264 138.589ZM399.193 145.797C398.726 145.629 398.259 145.462 397.792 145.294C397.753 145.277 397.715 145.26 397.676 145.244C397.967 144.674 398.201 144.037 398.454 143.5C398.804 142.746 399.173 142.009 399.562 141.271C400.185 140.115 400.905 138.992 401.663 137.885C404.095 138.422 406.545 139.092 408.607 140.333C408.101 141.69 407.79 143.081 407.498 144.489C407.323 145.344 407.129 146.199 406.915 147.054C406.837 147.372 406.759 147.758 406.623 148.127C405.087 147.674 403.53 147.238 402.013 146.735C401.06 146.45 400.127 146.132 399.193 145.797Z" fill="#FBB03B"/>
</svg>
