<svg width="107" height="81" viewBox="0 0 107 81" fill="none" xmlns="http://www.w3.org/2000/svg">
<path d="M60.5 68L63 54L101.5 53.5L68.5 61L72 68H60.5Z" fill="white"/>
<path d="M106.683 55.0899C105.898 57.0687 104.421 58.5734 103.035 60.1509C101.54 61.838 100.017 63.4976 98.4026 65.0661C96.9801 66.4339 95.521 67.7653 94.2535 69.279C93.0407 70.729 91.9555 72.2609 90.615 73.5923C89.2837 74.9054 87.8064 76.0636 86.2835 77.1396C84.7698 78.2065 83.1739 79.3829 81.5143 80.2127C79.4534 81.2523 78.7877 78.9907 78.2223 77.4952C77.4928 75.5438 76.7907 73.5832 75.9517 71.6682C74.4927 68.3033 72.6415 65.1208 69.8785 62.6678C69.0943 61.9656 69.4681 61.0081 70.1794 60.5887C70.3344 60.3789 70.5715 60.2148 70.8998 60.1236C73.9091 59.3576 76.9548 58.6646 79.9185 57.7253C82.8274 56.8043 85.5905 55.6462 88.5997 55.0717C89.9585 54.8163 91.3263 54.5793 92.6942 54.3695C91.1713 53.8771 89.6575 53.3391 88.1164 52.9834C86.0647 52.5092 83.7758 52.7372 81.6876 52.8375C79.3805 52.9378 77.0825 53.1476 74.7936 53.3482C72.4956 53.5579 70.1976 53.7677 67.8905 53.8953C66.0394 53.9956 63.7596 54.4242 62.2003 53.1932C59.0269 50.6763 56.355 47.202 54.0388 43.9101C53.1908 42.6972 54.7227 41.5482 55.8261 42.0498C56.0176 42.0133 56.2091 41.9951 56.4098 42.0407C66.8783 44.3386 77.3104 46.7278 87.6878 49.3723C93.4328 50.4028 99.1595 51.57 104.804 53.0473C104.85 53.0564 104.895 53.0655 104.941 53.0837C105.324 53.184 105.689 53.33 106.053 53.5488C106.537 53.8315 106.902 54.5337 106.683 55.0899Z" fill="#FBB03B"/>
<path d="M106.828 53.7677C107.385 52.8284 106.491 51.7615 105.543 51.7706C96.9525 49.117 88.3442 46.5546 79.4441 45.132C75.1764 44.4481 70.9178 43.828 66.6958 42.8887C64.872 42.4328 63.0482 41.986 61.2244 41.53C58.4613 40.7914 55.7074 39.9889 52.9535 39.1864C52.0872 38.9311 51.54 39.5238 51.4397 40.226C51.3121 40.4996 51.2756 40.8187 51.3759 41.1744C52.1328 43.8006 54.2666 45.971 55.9627 48.0318C57.7956 50.2569 59.7015 52.4363 61.6439 54.561C60.3946 59.1205 59.4644 63.7347 58.0054 68.2304C57.896 68.5587 57.7865 68.8961 57.8139 69.2426C57.8504 69.8353 58.3154 70.3733 58.8899 70.4828C59.2091 70.5466 59.5374 70.4828 59.8565 70.4189C61.8809 70.0359 63.8598 69.808 65.9024 69.5709C66.9876 69.4432 68.0636 69.3246 69.1488 69.197C69.6868 69.1331 70.2339 69.0693 70.7719 69.0055C70.9543 68.9872 71.1823 68.9325 71.392 68.9325C71.4468 68.9599 71.5015 69.0055 71.5562 69.042C71.62 69.1149 71.6838 69.1787 71.7659 69.2335C71.8571 69.3429 71.9483 69.4523 72.0395 69.5982C72.4134 70.2274 72.7872 70.8475 73.1611 71.4767C74.1824 74.0756 75.1035 76.7293 76.2616 79.2734C76.2798 80.8328 78.1127 80.8875 79.0793 80.158C80.5201 79.0728 81.8697 77.8053 83.2467 76.6289C86.0462 74.258 88.8822 71.9144 91.6453 69.4979C96.8887 64.9202 101.466 59.6585 106.144 54.5246C106.491 54.4334 106.728 54.1324 106.828 53.7677ZM63.8598 52.9743C63.8324 52.9378 63.8142 52.9105 63.7868 52.874C62.8111 51.8162 61.8536 50.7402 60.9052 49.655C59.282 47.4482 57.6224 45.2141 55.8807 42.8614C59.0997 43.7915 62.3278 44.6852 65.5924 45.4421C70.0151 46.4725 74.4834 47.1017 78.9608 47.8221C79.2161 47.8586 79.4623 47.9133 79.7177 47.9589C84.8334 49.2355 89.9309 50.5031 95.0284 51.7706C94.3901 51.7889 93.7518 51.8162 93.1043 51.88C89.8853 52.1992 86.7302 52.4728 83.4929 52.5457C76.9546 52.6916 70.4072 52.8375 63.8598 52.9743ZM68.173 59.4579C68.0636 59.4762 67.9633 59.5218 67.8539 59.5491C67.7353 59.5309 67.6077 59.5217 67.4709 59.5309C65.0361 59.768 64.0513 61.993 62.4281 63.4703C62.2913 63.5979 62.1454 63.7256 61.9995 63.8441C62.6925 61.1176 63.4221 58.4092 64.1698 55.7009C70.5349 55.5641 76.8999 55.4273 83.2649 55.2814C86.4384 55.2085 89.5479 55.0261 92.7031 54.6705L92.7122 54.8072C89.1649 55.4729 85.6176 56.1386 82.0704 56.8043C77.447 57.6797 72.8055 58.5278 68.173 59.4579ZM66.6228 66.7531C65.2459 66.9081 63.878 67.0723 62.501 67.2273C62.8111 66.8899 63.112 66.5616 63.4221 66.2242C63.5041 66.1512 63.5862 66.0692 63.6774 65.9962C64.489 65.2849 65.2185 64.5737 65.8933 63.7256C66.1669 63.3791 66.5225 62.9322 66.7961 62.6952C66.9329 62.5857 67.0605 62.5037 67.1882 62.4307C67.708 63.0508 68.2369 63.6618 68.7567 64.2819C69.167 64.9658 69.5865 65.6588 70.0151 66.361C68.8843 66.4886 67.7536 66.6254 66.6228 66.7531ZM101.175 55.9927C95.8309 61.1723 90.5875 66.2516 85.3532 71.3308C85.0705 71.5679 84.7878 71.805 84.496 72.0512L80.8484 75.1334C80.2739 75.6259 79.6903 76.1092 79.1158 76.6016C78.979 76.7201 78.8058 76.8934 78.6325 77.0758C78.2769 76.5013 77.9303 75.9268 77.5838 75.3523C76.7631 73.2276 75.9971 71.0755 75.1035 68.9781C74.4378 67.437 73.6535 65.9871 72.6049 64.674C71.6656 63.4976 70.6625 62.8411 69.9421 61.537C72.076 60.8349 74.7205 60.5978 76.9364 60.1783C79.3438 59.7224 82.116 59.3302 84.5234 58.8743C90.7151 57.7071 96.0406 55.9927 102.232 54.8255C101.868 55.2176 101.521 55.6006 101.175 55.9927Z" fill="#1E1E1E"/>
<path d="M46.9902 68.732C42.9414 69.7989 38.8561 70.3552 34.6705 70.3734C32.9105 70.3825 32.8011 73.1182 34.5702 73.1091C39.002 73.0908 43.3426 72.5255 47.6286 71.3947C49.3247 70.9479 48.6955 68.2851 46.9902 68.732Z" fill="#1E1E1E"/>
<path d="M26.9561 68.7319C24.4301 68.5131 22.1413 67.4188 20.3722 65.6041C19.1411 64.3457 17.1532 66.2242 18.3934 67.4918C20.664 69.8171 23.6186 71.1941 26.8558 71.4676C28.6158 71.6135 28.7069 68.887 26.9561 68.7319Z" fill="#1E1E1E"/>
<path d="M16.7057 50.8405C14.891 53.5214 14.3348 56.786 15.1373 59.923C15.575 61.6282 18.2377 61.0081 17.8 59.2938C17.1617 56.8134 17.5903 54.3969 19.0311 52.2813C20.025 50.8222 17.6997 49.3906 16.7057 50.8405Z" fill="#1E1E1E"/>
<path d="M30.4938 39.7245C27.2565 40.8461 24.375 42.5149 21.8216 44.8037C20.5085 45.9801 22.3961 47.9589 23.7093 46.7826C25.8887 44.8311 28.3599 43.3447 31.123 42.3872C32.7735 41.8218 32.1626 39.15 30.4938 39.7245Z" fill="#1E1E1E"/>
<path d="M47.3096 29.7942C44.6013 32.9402 41.0267 34.7184 37.224 36.1866C35.5917 36.8158 36.914 39.2141 38.5372 38.5849C42.5404 37.0438 46.3613 35.0741 49.1973 31.7821C50.3371 30.4507 48.4586 28.4537 47.3096 29.7942Z" fill="#1E1E1E"/>
<path d="M53.802 14.0274C54.1668 16.143 54.0938 18.2586 53.5741 20.3468C53.1546 22.0521 55.7626 22.8637 56.1912 21.1493C56.8295 18.5869 56.9207 16.0062 56.4648 13.4073C56.1638 11.6656 53.5011 12.3039 53.802 14.0274Z" fill="#1E1E1E"/>
<path d="M53.4831 6.039C51.714 3.18477 48.3309 -0.0980656 44.7107 0.00224316C42.9598 0.056957 42.8504 2.79265 44.6103 2.73794C47.2366 2.66498 49.799 5.29125 51.0757 7.35214C52.0058 8.83853 54.4132 7.54364 53.4831 6.039Z" fill="#1E1E1E"/>
<path d="M37.4788 0.376243C34.962 0.531266 32.591 1.10576 30.293 2.15444C28.6881 2.88396 30.0104 5.28225 31.6062 4.55273C33.43 3.72291 35.3723 3.23048 37.3785 3.11194C39.1202 3.00251 39.2388 0.266816 37.4788 0.376243Z" fill="#1E1E1E"/>
<path d="M21.8395 5.62861C20.1069 6.95086 18.2557 8.09985 16.3134 9.09382C14.754 9.89629 16.058 12.3037 17.6265 11.4921C19.7877 10.3796 21.803 9.07558 23.7271 7.60742C25.1223 6.5405 23.2347 4.56169 21.8395 5.62861Z" fill="#1E1E1E"/>
<path d="M10.5142 13.544C10.1129 12.8783 9.34695 12.6686 8.65391 12.9969C8.37122 13.1337 8.07941 13.2613 7.77849 13.3799C7.72377 13.3981 7.50492 13.4802 7.47756 13.4893C7.32254 13.544 7.1584 13.5896 7.00337 13.6443C6.38328 13.8267 5.75407 13.9635 5.11575 14.0547C4.96984 14.0729 4.82394 14.0912 4.67803 14.1094C4.63244 14.1094 4.41358 14.1276 4.41358 14.1276C4.07618 14.1459 3.7479 14.155 3.4105 14.155C2.74481 14.1459 2.07913 14.082 1.42256 13.9726C0.71128 13.8541 0 14.6109 0 15.2857C0.00911897 16.1065 0.556257 16.5806 1.31313 16.7083C4.24944 17.1825 7.28606 16.681 9.95792 15.4043C10.6145 15.0942 10.8789 14.155 10.5142 13.544Z" fill="#1E1E1E"/>
</svg>
