<svg width="199" height="232" viewBox="0 0 199 232" fill="none" xmlns="http://www.w3.org/2000/svg">
<path d="M86.6457 57.5716C86.8704 56.8322 87.1654 56.1161 87.5266 55.433C87.9957 54.5712 88.6899 53.853 89.5349 53.3553C90.7101 52.7137 92.0882 52.5539 93.3787 52.9097C94.2184 53.1557 95.0101 53.5428 95.7202 54.0543C96.2695 54.3877 96.7317 54.8471 97.0687 55.3945C97.3828 55.9538 97.5637 56.5782 97.5973 57.2189C97.6087 57.8044 97.4755 58.3837 97.2097 58.9054C97.1828 58.9886 97.1603 59.0731 97.1424 59.1587C97.1424 59.2966 97.1424 59.4377 97.1424 59.5787C97.2513 60.1142 97.3827 60.6464 97.53 61.1819C97.6465 61.6198 97.6993 62.0723 97.6869 62.5253C98.0873 64.3978 97.0976 66.6197 94.6215 66.6197C94.1325 66.625 93.6482 66.5232 93.2025 66.3215H93.1064C92.4821 66.3346 91.8598 66.2447 91.2646 66.0554C89.982 65.651 88.9119 64.7539 88.2889 63.5609C88.2505 63.484 88.2409 63.4135 88.2088 63.3397C88.1768 63.266 88.1416 63.3012 88.1095 63.2756C87.3749 62.6296 86.831 61.7946 86.5368 60.8612C86.5014 60.746 86.4757 60.6281 86.4599 60.5086C86.3742 60.1168 86.3313 59.7169 86.3318 59.3158C86.3644 58.7237 86.4698 58.1379 86.6457 57.5716Z" fill="#FBB03B"/>
<path d="M68.0481 31.1808C68.5254 27.7533 70.3929 23.2645 74.5602 22.4212C78.1573 21.7062 82.6193 21.5363 85.2715 24.2873C86.4887 25.5506 87.1261 27.1024 88.0678 28.526C89.0095 29.9496 90.0442 31.2 90.9731 32.5723C91.9612 33.9531 92.7084 35.4914 93.1833 37.122C93.3906 37.8528 93.4169 38.6232 93.2601 39.3664C94.2211 40.3123 94.5414 41.7904 93.2601 42.9671C91.6586 44.4324 89.4644 44.8524 87.2863 44.5382C85.3996 44.2656 83.7628 43.3615 81.985 42.8613C80.3432 42.4275 78.654 42.1992 76.9561 42.1816C74.7459 42.0886 72.6447 41.7327 70.9182 40.3892C68.1122 38.1897 67.6061 34.3262 68.0481 31.1808Z" fill="#FBB03B"/>
<path d="M56.331 45.426C56.331 45.3843 56.3502 45.3458 56.363 45.3042C56.4202 45.1459 56.4854 44.9908 56.5584 44.8392C56.5768 44.8019 56.5971 44.7655 56.6193 44.7302C56.6737 44.6437 56.741 44.5635 56.8019 44.4833C56.8661 44.3929 56.9367 44.3071 57.0133 44.2269L57.1062 44.1435C57.2343 44.0409 57.3688 43.9319 57.5066 43.8229C57.6972 43.7102 57.899 43.6178 58.1088 43.5471C58.1788 43.5209 58.2505 43.4995 58.3234 43.483C58.5403 43.4355 58.7612 43.4087 58.9832 43.4028H59.1081C59.2888 43.4188 59.4684 43.4445 59.6463 43.4798C59.6845 43.487 59.7221 43.4978 59.7584 43.5118C59.9294 43.57 60.0964 43.6396 60.2581 43.7203C60.6353 43.9234 60.9466 44.2305 61.1549 44.6052C61.2571 44.7828 61.3306 44.9754 61.3728 45.1759C61.4077 45.3482 61.4291 45.5229 61.4368 45.6985C61.4299 45.8753 61.4085 46.0511 61.3728 46.2244C61.2802 46.6313 61.0761 47.0044 60.7834 47.3017C60.7408 47.3407 60.6959 47.3771 60.6489 47.4107C60.5752 47.5133 60.4983 47.6127 60.4214 47.7089C60.4025 47.7374 60.3799 47.7633 60.3542 47.7858C59.911 48.2293 59.3119 48.4814 58.6853 48.488C58.2708 48.4963 57.8615 48.3933 57.5002 48.1898C57.1434 47.985 56.8447 47.6926 56.6321 47.3402C56.415 46.9814 56.2875 46.5756 56.2605 46.157C56.2541 46.0888 56.2541 46.0201 56.2605 45.9518C56.2743 45.7754 56.2979 45.5998 56.331 45.426Z" fill="black"/>
<path d="M66.9815 37.824C69.0779 37.5335 71.2136 37.775 73.1924 38.5262C75.1248 39.3034 76.9756 40.27 78.7179 41.4119C79.0891 41.6319 79.3583 41.99 79.4668 42.408C79.5752 42.826 79.514 43.27 79.2966 43.643C79.0792 44.016 78.7232 44.2878 78.3063 44.399C77.8894 44.5102 77.4455 44.4518 77.0715 44.2366C75.6268 43.3388 73.99 42.3128 72.4974 41.7453C71.6779 41.4289 70.8307 41.1895 69.9669 41.0303L69.8099 40.9983H69.6562C69.4063 40.9726 69.1597 40.9566 68.9098 40.9502C68.7209 40.9502 68.5351 40.9502 68.3493 40.9502C68.2244 40.9502 68.0994 40.9502 67.9745 40.9726C67.7663 40.995 67.7247 40.9983 67.8496 40.9726C67.0072 41.088 66.0558 40.7674 65.8412 39.828C65.6651 39.0649 66.0783 37.9491 66.9815 37.824Z" fill="black"/>
<path d="M67.7119 45.9038V45.9455C67.7096 46.1751 67.7398 46.404 67.8016 46.6252C67.8566 46.7992 67.9251 46.9686 68.0066 47.1318C68.027 47.1741 68.0505 47.2149 68.0771 47.2536C68.266 47.5576 68.5198 47.816 68.8202 48.0103C68.9912 48.1262 69.1808 48.2119 69.3807 48.2636C69.588 48.3271 69.8051 48.3521 70.0214 48.3374C70.2246 48.329 70.4259 48.2945 70.6203 48.2348C70.7864 48.1746 70.948 48.1028 71.104 48.0199C71.2455 47.9221 71.3803 47.815 71.5076 47.6993C71.6518 47.5616 71.7797 47.4077 71.8888 47.2408C72.0037 47.0628 72.0931 46.8696 72.1547 46.6669C72.1547 46.6412 72.1547 46.6124 72.1547 46.5867C72.2059 46.4745 72.3052 46.3911 72.334 46.2661C72.4433 45.8728 72.4433 45.4571 72.334 45.0637C72.2868 44.8743 72.2078 44.6943 72.1002 44.5315C71.9252 44.2499 71.6873 44.0128 71.4051 43.8389C71.1557 43.6921 70.8712 43.6157 70.5819 43.6177L70.1463 43.6754C70.027 43.6313 69.905 43.5949 69.7811 43.5664H69.6754C69.4997 43.5792 69.3252 43.605 69.1533 43.6434C68.9575 43.6935 68.7706 43.7735 68.5992 43.8806C68.3115 44.0536 68.074 44.299 67.9105 44.5924C67.7598 44.8647 67.6774 45.1694 67.6703 45.4806C67.6637 45.6229 67.6778 45.7654 67.7119 45.9038Z" fill="black"/>
<path d="M60.3926 52.7239C64.0891 50.6462 67.6958 54.7823 70.5626 56.6195C72.3597 57.7707 74.2325 58.7991 76.1681 59.6975C77.9619 60.5312 80.486 61.958 82.5104 61.3167C85.3484 60.4189 88.891 56.2091 86.5079 53.301C85.3099 51.8485 82.8403 52.493 81.3316 53.0798C80.691 53.333 79.9062 53.721 79.73 54.4649C79.6115 54.9618 79.9575 55.6255 80.3707 54.949C81.4597 53.1535 84.2849 54.7951 83.1894 56.6003C82.2285 58.2034 80.1561 58.9665 78.4135 58.1168C76.5205 57.1934 76.0272 54.9105 76.7831 53.0477C77.5807 51.1047 79.509 50.1236 81.4469 49.6394C83.6411 49.0879 86.0787 48.8282 87.9974 50.255C91.4023 52.788 91.0115 57.5557 88.6188 60.6113C87.2831 62.3203 85.2907 63.9747 83.1542 64.5198C80.6974 65.161 78.2982 64.1446 76.0688 63.1956C73.5062 62.1105 71.0414 60.8072 68.7016 59.2999C67.526 58.5401 66.4082 57.716 65.2935 56.876C64.5183 56.2924 63.0512 54.9522 62.0359 55.539C60.2101 56.581 58.5604 53.7595 60.3926 52.7239Z" fill="black"/>
<path d="M38.2492 149.271C38.0122 148.309 37.1698 147.767 36.4426 147.196C34.871 145.961 33.2747 144.76 31.6539 143.593C30.9364 143.076 29.8345 143.467 29.4117 144.179C29.3785 144.253 29.3527 144.331 29.3349 144.41C27.9223 144.795 27.192 146.558 26.452 147.786C25.545 149.243 24.3565 150.504 22.956 151.495C21.5556 152.486 19.9716 153.188 18.2968 153.558C16.2468 154.019 17.1149 157.165 19.1649 156.709C20.364 156.455 21.6103 156.544 22.7616 156.964C23.913 157.385 24.9231 158.121 25.6769 159.088C26.3367 159.98 27.3777 160.153 28.2394 159.409C31.2567 156.844 34.4215 154.391 37.3235 151.714C38.0026 151.089 38.4766 150.233 38.2492 149.271Z" fill="#00A99D"/>
<path d="M73.0483 136.5C73.6584 136.36 74.2214 136.062 74.6819 135.638C74.7145 135.609 74.7455 135.578 74.7748 135.545C75.553 135.314 76.3046 135.001 77.017 134.612C82.7827 131.704 87.3504 133.971 87.4208 139.829C87.4657 143.525 88.3337 146.998 88.8206 150.57C89.5349 155.793 87.5394 158.098 82.1837 157.944C80.4458 157.945 78.7113 157.791 77.001 157.482C74.5186 156.953 73.5608 158.274 72.9843 160.297C72.6928 158.598 72.1867 156.908 72.1418 155.203C71.9817 149.056 71.8439 142.91 71.6902 136.763C72.1556 136.764 72.6168 136.675 73.0483 136.5Z" fill="#FBB03B"/>
<path d="M94.7464 138.832C96.4409 136.722 98.9458 136.36 101.473 136.267C103.26 136.206 104.625 138.223 104.484 139.852C104.424 140.642 104.054 141.376 103.456 141.894C103.6 142.517 103.6 143.166 103.456 143.789C103.276 144.501 103.651 145.546 103.776 146.232C103.991 147.332 104.212 148.435 104.449 149.531C104.844 151.447 105.34 153.34 105.935 155.203C106.643 157.345 107.953 159.343 108.498 161.507C108.688 162.177 108.73 162.881 108.619 163.569C108.509 164.257 108.248 164.913 107.857 165.489C107.008 166.679 105.615 167.092 104.292 167.48C102.05 168.121 99.6472 169.064 97.5172 167.56C95.4671 166.111 95.512 162.921 95.15 160.68C94.3877 155.96 93.478 151.244 93.3178 146.453C93.2474 144.026 93.1449 140.836 94.7464 138.832Z" fill="#FBB03B"/>
<path d="M74.5794 167.076C74.5294 166.972 74.4866 166.865 74.4512 166.755C74.2174 165.085 75.2616 163.103 77.1034 162.908C79.4097 162.648 81.7416 162.266 84.0639 162.196C84.7893 162.166 85.512 162.301 86.1777 162.591C86.8435 162.881 87.4349 163.318 87.9077 163.87C88.6572 164.806 88.891 165.858 88.9102 167.021C88.9102 167.313 88.891 167.605 88.8718 167.9C88.952 168.455 89.0741 169.002 89.237 169.538C89.5035 170.436 89.651 171.366 89.6758 172.302C89.7399 174.64 88.2023 176.682 86.1908 177.714C84.3938 178.635 82.2125 178.625 80.2649 178.314C78.5385 178.038 76.6998 177.541 75.3641 176.345C74.5085 175.65 73.8466 174.746 73.4422 173.719C73.0438 172.693 72.9084 171.583 73.0483 170.491C73.2499 169.237 73.778 168.06 74.5794 167.076Z" fill="#FBB03B"/>
<path d="M93.4908 183.899C94.1122 183.062 95.4127 182.274 95.765 181.334C95.7842 181.289 95.7842 181.312 95.7874 181.334C95.7906 181.357 95.7874 181.309 95.7874 181.267C95.8387 180.914 95.4831 180.446 95.3935 180.071C95.2676 179.602 95.2147 179.116 95.2365 178.631C95.3678 176.582 96.7484 175.425 98.4396 174.502C101.297 172.959 104.176 171.449 107.043 169.923C108.622 169.086 110.708 169.923 111.451 171.497C111.64 171.892 111.746 172.321 111.762 172.759C111.778 173.196 111.704 173.632 111.544 174.04C112.086 174.339 112.53 174.789 112.822 175.335C113.114 175.881 113.242 176.5 113.19 177.118C113.052 179.324 114.084 181.389 114.936 183.383C115.98 185.833 116.842 188.298 116.893 190.985C116.931 192.31 116.697 193.629 116.207 194.86C115.717 196.091 114.98 197.209 114.042 198.145C112.204 199.918 109.644 200.505 107.229 201.008C104.615 201.553 101.447 202.409 98.7952 201.822C95.8899 201.181 94.8585 198.251 93.872 195.775C92.8566 193.229 91.7162 190.434 92.0205 187.635C92.1707 186.281 92.6782 184.992 93.4908 183.899Z" fill="#FBB03B"/>
<path d="M77.4269 187.215C77.7589 186.426 78.3529 185.776 79.1085 185.374C81.0592 184.249 83.7115 184.733 85.3194 186.211C86.219 187.043 86.8238 188.144 87.0427 189.35C87.1647 190.109 87.2161 190.878 87.1965 191.646C87.3012 193.232 87.5915 194.799 88.0613 196.317C88.0869 196.391 88.1126 196.465 88.1414 196.539C88.427 197.213 88.4996 197.958 88.3496 198.674C88.2055 199.315 87.8563 200.104 87.2798 200.492C86.4911 201.103 85.5321 201.453 84.5357 201.494C83.5393 201.535 82.555 201.264 81.7191 200.72C81.04 200.332 80.5083 199.357 80.3738 198.616C80.217 197.732 80.4149 196.822 80.9247 196.083C80.9856 196.006 81.0721 195.955 81.1393 195.881C81.0689 195.561 80.976 195.259 80.9183 194.939C80.752 193.854 80.6557 192.759 80.63 191.662C80.2043 191.671 79.7803 191.605 79.3776 191.466C78.5715 191.161 77.9133 190.557 77.539 189.78C77.3512 189.381 77.2446 188.949 77.2253 188.509C77.2061 188.068 77.2746 187.628 77.4269 187.215Z" fill="#FBB03B"/>
<path d="M83.372 213.057C84.2083 218.588 85.7142 223.996 87.8564 229.162C88.2993 230.279 89.0326 231.256 89.9801 231.993H104.596C106.768 231.586 108.805 230.772 109.686 228.438C110.647 225.873 109.465 223.183 108.696 220.743C107.927 218.303 107.165 215.818 106.377 213.368C105.589 210.918 104.378 208.466 101.713 207.626C100.352 207.19 98.8304 207.215 97.421 207.135C96.0693 207.06 94.7165 206.998 93.3626 206.949C90.6592 206.857 87.9525 206.819 85.2426 206.834C83.4489 206.834 81.8281 207.927 81.6647 209.848C81.6341 210.487 81.7765 211.123 82.0771 211.688C82.3776 212.253 82.825 212.726 83.372 213.057Z" fill="#FBB03B"/>
<path d="M125.042 227.466C127.5 229.3 130.175 230.82 133.008 231.993H136.211C136.678 231.765 137.089 231.436 137.416 231.031C138.252 229.948 138.236 227.976 137.243 226.988C135.894 225.641 134.672 224.172 133.594 222.599C133.517 222.483 133.447 222.371 133.37 222.259C133.293 222.147 133.197 221.974 133.162 221.916C132.928 221.528 132.704 221.137 132.489 220.739C132.06 219.944 131.663 219.136 131.307 218.302C131.109 217.841 130.922 217.375 130.747 216.904L130.545 216.337L130.49 216.196C130.492 216.182 130.492 216.168 130.49 216.154C130.208 215.163 130.007 214.041 129.529 213.137C129.159 212.435 128.614 211.841 127.947 211.412C127.593 211.17 127.2 210.992 126.784 210.886L126.217 210.758C125.673 210.643 125.638 210.63 126.105 210.723C126.009 210.681 125.913 210.643 125.814 210.607L125.586 210.399C125.586 210.399 125.586 210.399 125.567 210.399C125.558 210.368 125.546 210.338 125.532 210.309C125.442 210.166 125.341 210.03 125.231 209.902C125.115 208.382 123.825 206.869 122.274 206.856C120.586 206.856 118.85 206.92 117.357 207.795C116.48 208.308 115.747 209.035 115.228 209.909C114.709 210.783 114.42 211.774 114.388 212.791C114.244 216.068 115.817 219.062 117.998 221.406C120.077 223.657 122.566 225.645 125.042 227.466Z" fill="#FBB03B"/>
<path d="M128.184 231.993C126.906 231.199 125.531 230.573 124.094 230.131C120.029 228.999 115.814 229.996 112.098 231.993H128.184Z" fill="#FBB03B"/>
<path d="M84.0831 121.486C84.365 120.02 84.6533 118.558 84.9351 117.093C85.2576 115.439 85.5779 113.784 85.8961 112.13C86.1748 110.697 86.3573 109.206 86.7545 107.801C87.3759 105.608 89.0288 104.101 91.3414 103.954C92.9046 103.864 94.5222 104.066 96.0821 104.133C97.8086 104.21 99.471 105.602 99.3877 107.445C99.369 107.565 99.3423 107.682 99.3077 107.798C99.9024 108.405 100.342 109.146 100.589 109.959C100.986 111.37 101.108 112.903 101.294 114.349C101.473 115.73 101.614 117.112 101.688 118.501C101.761 119.889 101.8 121.277 101.78 122.669C101.758 124.211 101.873 126.119 101.441 127.603C100.345 131.387 95.5376 130.524 92.5618 130.146C89.4356 129.748 84.9063 129.466 83.9133 125.766C83.545 124.339 83.8076 122.916 84.0831 121.486Z" fill="#FBB03B"/>
<path d="M43.3423 67.136C43.5153 65.5681 43.7075 63.9297 44.5723 62.5606C45.144 61.6561 45.9396 60.915 46.882 60.4094C47.8244 59.9037 48.8814 59.6507 49.9504 59.6749C51.6074 59.7019 53.2315 60.1427 54.675 60.9574C56.2244 61.8401 57.5146 63.115 58.4163 64.6543C59.2908 66.1484 58.8071 68.3511 57.2312 69.1848C56.5899 69.5069 55.8661 69.6265 55.1555 69.5278C54.8138 70.2717 54.3059 70.9272 53.6712 71.4436C53.0364 71.96 52.2917 72.3237 51.4943 72.5065C50.8108 72.6857 50.109 72.7857 49.4027 72.8047C48.897 73.3788 48.2028 73.753 47.4455 73.8595C46.1899 74.0263 44.7645 73.4459 44.1495 72.2788C43.2943 70.6693 43.1501 68.9283 43.3423 67.136Z" fill="#00A99D"/>
<path d="M66.7157 90.9166C66.1455 92.6769 67.3852 94.4435 69.0252 94.9886C71.53 95.8158 74.0573 96.5725 76.607 97.2586C77.8883 97.6049 79.3425 98.1564 80.6814 98.1692C81.6466 98.1567 82.5792 97.8175 83.3272 97.2068C84.0752 96.596 84.5945 95.7498 84.8007 94.8058C85.089 93.6003 84.9897 92.3081 84.9929 91.0801C84.9929 89.6181 85.1915 88.0181 84.4772 86.6875C83.7116 85.2639 81.9435 84.6483 80.4252 85.0363C80.2746 85.0748 79.5667 85.5044 79.4642 85.4403C79.413 85.405 80.1369 85.2351 79.7589 85.3024C79.6596 85.3184 79.5379 85.3569 79.4162 85.3826C79.385 85.3934 79.3528 85.4009 79.3201 85.405C79.226 85.4236 79.133 85.4471 79.0414 85.4755L79.1824 85.4274H78.862C78.5738 85.4274 78.2855 85.4178 77.9972 85.3986C77.4687 85.3665 76.9402 85.312 76.4116 85.2671L69.3935 84.6547C67.5485 84.488 66.1584 86.3028 66.0847 87.9636C66.0631 88.3943 66.1382 88.8244 66.3045 89.2223C66.4708 89.6201 66.724 89.9756 67.0456 90.2625C66.9143 90.4691 66.8038 90.6882 66.7157 90.9166Z" fill="#FBB03B"/>
<path d="M79.1855 85.4277C79.4674 85.3379 79.5059 85.3476 79.4194 85.3828L79.3233 85.4053C79.2785 85.4184 79.2322 85.426 79.1855 85.4277Z" fill="#FBB03B"/>
<path d="M71.7126 123.57C71.1561 123.34 70.5648 123.206 69.9637 123.173C69.8836 123.173 69.8099 123.173 69.733 123.192C68.9173 115.849 68.1037 108.508 67.2922 101.168C71.7286 100.373 75.5948 101.79 79.1759 104.259C80.2778 105.019 81.1683 106.227 80.7775 107.465C78.9485 113.06 79.5667 119.97 72.6479 122.935C72.292 123.073 71.9721 123.29 71.7126 123.57Z" fill="#FBB03B"/>
<path d="M94.5542 72.2886C88.7629 73.3723 89.0351 73.4076 88.8045 82.1255C88.67 87.2363 91.0948 88.7625 95.4671 88.8587C95.734 88.243 96.0031 87.6296 96.2743 87.0183C96.4953 82.3531 96.9533 77.6783 95.845 73.0517L94.5542 72.2886Z" fill="#FBB03B"/>
<path d="M70.0341 76.9116C70.0725 78.239 70.4216 80.679 74.0476 80.5764C77.0842 80.493 81.3123 75.1481 81.0625 71.1371C80.8607 67.9115 78.2693 67.2382 75.5659 67.219C71.8534 67.1901 70.0341 70.0052 70.0341 76.9116Z" fill="#FBB03B"/>
<path d="M82.6962 204.955C82.7827 205.618 82.8659 206.237 82.9492 206.911C83.3464 210.931 83.8611 214.915 84.4931 218.86C84.5348 219.066 84.5796 219.271 84.6181 219.479C85.1658 222.307 85.3932 225.186 85.8993 228.021C86.13 229.355 86.4983 230.656 86.761 231.981H89.868C88.2921 222.756 86.4182 213.458 85.6783 203.938C85.5726 202.611 85.0665 201.466 84.1632 201.466C83.7564 201.466 83.324 201.829 83.0229 202.358L82.9813 202.38L82.914 202.447L82.8884 202.486L82.8595 202.563V202.605C82.8595 202.682 82.8371 202.762 82.8243 202.835C82.6967 203.188 82.6422 203.564 82.6641 203.938C82.6641 204.15 82.7122 204.355 82.7282 204.58C82.7026 204.705 82.6962 204.83 82.6962 204.955Z" fill="black"/>
<path d="M27.0126 55.1092C29.9467 57.3279 33.8449 57.3792 37.4869 56.9784C36.7726 58.2128 36.0807 59.4954 35.4177 60.7779L35.1903 61.2139C33.8738 63.7789 32.506 66.4177 32.8552 69.018C33.1531 71.2624 34.777 73.3657 37.0769 74.4687C41.7631 76.7131 48.2239 75.235 54.108 73.3112C54.1177 73.9493 54.195 74.5845 54.3387 75.2061C54.518 76.0911 54.7262 76.9728 54.9793 77.8449C55.2323 78.717 55.4886 79.5827 55.8089 80.4292C56.0748 81.1474 56.3983 81.7117 57.1799 81.9554C57.5585 82.0573 57.96 82.033 58.3235 81.886C58.6871 81.7391 58.9929 81.4775 59.1946 81.141C59.6431 80.4356 59.8032 79.4256 60.0018 78.6208C60.2004 77.8161 60.3766 76.9343 60.5624 76.0911C60.7482 75.2478 60.9275 74.4687 61.1646 73.6735C61.2895 73.2663 61.424 72.8591 61.5778 72.4616C61.6066 72.3814 61.6386 72.3013 61.6707 72.2243C61.6707 72.2051 61.6707 72.2243 61.6707 72.1987C61.6707 72.173 61.6707 72.1987 61.6995 72.1409C61.7828 71.9614 61.8693 71.7818 61.959 71.6023C62.0803 71.368 62.1452 71.1085 62.1485 70.8447C62.1519 70.5808 62.0935 70.3198 61.9782 70.0825C62.8366 69.6625 63.6951 69.2809 64.5407 68.8C64.9859 68.5435 65.7419 68.1106 66.6868 68.3928C67.6317 68.6749 68.1218 69.5054 68.3556 69.9446C68.7456 70.696 69.0302 71.4977 69.2013 72.3269C69.5441 73.7774 69.6458 75.2744 69.5024 76.758C67.0359 103.098 67.8656 128.854 71.9624 153.314C74.07 165.902 76.1265 177.493 78.1541 188.372C78.2758 188.049 78.5011 187.775 78.7947 187.593C79.0982 187.421 79.4207 187.286 79.7556 187.189C80.0231 187.109 80.3082 187.109 80.5756 187.189C76.7319 167.348 72.7183 143.006 71.4531 118.289C70.7484 105.592 70.9315 92.8605 72.0008 80.1887C72.0457 79.6629 72.1065 79.1339 72.1642 78.5856C72.2699 77.6237 72.382 76.6842 72.3948 75.7416C72.3881 74.8375 72.3239 73.9347 72.2026 73.0387C71.9825 72.7013 71.8714 72.3041 71.8847 71.9013C71.8979 71.4985 72.0347 71.1096 72.2765 70.7873C72.5183 70.4651 72.8534 70.2252 73.2361 70.1002C73.6189 69.9752 74.0309 69.9713 74.416 70.0889L74.5281 70.1242L75.5595 70.4448C75.7296 70.5093 75.9141 70.526 76.0931 70.4932C76.272 70.4604 76.4386 70.3794 76.5749 70.2589C76.7662 70.0789 76.9103 69.8547 76.9946 69.6059C77.079 69.3571 77.1009 69.0913 77.0586 68.8321C77.0169 68.5563 76.9561 68.1363 75.9791 67.7676C74.621 67.2514 73.2244 66.841 71.8343 66.4305C71.168 66.235 70.5018 66.0362 69.8355 65.8278C67.7182 65.1673 66.4466 64.821 65.0468 65.4526C63.8616 65.9945 62.7085 66.5844 61.5618 67.1776C59.4533 68.3178 57.2677 69.3089 55.0209 70.1434C51.7537 71.272 40.799 74.7124 36.936 71.365C36.2409 70.7622 35.1454 69.3899 35.6131 66.982C35.911 65.459 36.6637 64.0771 37.3268 62.8619L37.8008 61.9834C38.655 60.3546 39.5423 58.7515 40.4626 57.174C40.61 56.9271 40.7541 56.7251 40.9015 56.4814C45.3859 55.7312 50.7576 53.2752 55.1619 55.1572C57.0838 55.9748 58.7398 53.1565 56.8115 52.3357C52.9677 50.7037 49.1239 51.345 45.1905 52.2652C44.5691 52.4095 43.9316 52.5505 43.2974 52.6916C44.3769 51.0885 45.4595 49.5847 46.5742 48.1868C48.8335 45.3433 51.3233 42.6913 54.0184 40.2576C58.333 41.3414 62.7405 41.8608 67.2217 40.9502C69.2846 40.5366 68.4069 37.3848 66.3537 37.7984C63.2819 38.414 60.21 38.2249 57.1863 37.6477C58.8119 36.357 60.5091 35.1591 62.2697 34.0599C62.4599 33.9619 62.6163 33.8089 62.7185 33.6208C62.8208 33.4327 62.8642 33.2181 62.843 33.005C62.8355 32.7879 62.8647 32.5711 62.9295 32.3638C62.9771 32.2405 62.9998 32.1091 62.9965 31.9771C62.9932 31.845 62.9639 31.7149 62.9103 31.5943C60.5933 28.5068 58.5301 25.2363 56.741 21.8151C55.9723 20.337 55.085 18.4645 54.5501 17.1916L54.3098 16.6305C53.9671 15.8322 53.6148 15.0049 53.3201 14.1681C53.2176 13.8287 53.2084 13.4679 53.2935 13.1237C53.3786 12.7795 53.5549 12.4646 53.8037 12.2123C54.0592 11.9524 54.3778 11.7637 54.7283 11.6647C55.0789 11.5658 55.4491 11.56 55.8025 11.648C57.9518 12.1802 58.8743 13.28 59.7776 14.5593C61.4048 16.855 62.9808 19.1827 64.5823 21.5105L66.8309 24.8226C67.0773 25.1918 67.4576 25.4505 67.8912 25.544C68.0336 25.5728 68.1723 25.618 68.3044 25.6787C68.4472 25.747 68.5978 25.7976 68.7528 25.8294C68.8383 25.8067 68.9249 25.7885 69.0123 25.7749C69.2711 25.7382 69.5346 25.7535 69.7874 25.8197C70.3023 25.9563 70.831 26.0338 71.3634 26.0506L78.0484 26.2237C78.1541 26.2045 78.263 26.1885 78.3367 26.1821C78.5411 26.1699 78.7462 26.1882 78.9452 26.2366C79.188 26.3104 79.4446 26.3269 79.6948 26.2847C79.8679 26.2097 80.0198 26.0929 80.1368 25.9448C80.2269 25.8482 80.3268 25.7612 80.4347 25.6851C80.5455 25.6093 80.6366 25.5081 80.7006 25.3901C82.4718 21.9084 84.6201 18.6322 87.1069 15.6206C88.3016 14.2066 89.5829 12.7862 90.8225 11.9974C90.8802 11.9622 91.1044 11.8435 91.162 11.8115C91.4607 11.6625 91.7925 11.5922 92.1259 11.6075C92.4593 11.6227 92.7833 11.7229 93.0672 11.8985C93.3511 12.0742 93.5854 12.3194 93.7481 12.6111C93.9108 12.9028 93.9964 13.2313 93.9968 13.5653C93.9968 16.6081 93.51 19.1795 92.2799 22.4596L92.1454 22.7802L91.8828 23.3701C91.6713 23.8254 91.4439 24.2711 91.2133 24.7008C90.802 25.4712 90.3519 26.2203 89.8648 26.9451C88.9117 28.362 87.7946 29.661 86.5367 30.8151C86.4199 30.9536 86.3333 31.115 86.2826 31.2889C86.2318 31.4629 86.218 31.6455 86.242 31.8251C86.2677 32.1192 86.226 32.4152 86.1203 32.6908C86.0298 32.8808 86.0094 33.0968 86.0628 33.3005C86.1161 33.5041 86.2398 33.6823 86.4118 33.8034C91.886 38.8757 94.9706 44.7048 95.576 51.0724C95.8514 53.8427 95.8515 56.6225 95.8515 59.3094C95.8515 60.2713 95.8515 61.2684 95.8515 62.2431C95.9475 68.9571 96.2999 75.8442 96.9309 83.2924C98.9745 107.25 101.287 134.401 107.014 160.731C111.086 179.446 118.61 199.36 129.379 219.919C130.135 221.358 130.868 222.804 131.602 224.279C132.883 226.844 134.232 229.477 135.673 231.974H139.385C128.457 215.063 119.894 196.733 113.933 177.496C112.045 171.229 110.576 164.843 109.539 158.38L109.471 157.986C105.909 136.446 101.511 108.032 99.4005 79.4481C99.0802 75.1196 98.8464 70.7751 98.6959 66.5364C98.6254 64.635 98.619 62.7145 98.6126 60.7907C98.5965 56.7476 98.5837 52.5634 97.9463 48.626C97.0943 43.3357 94.3876 38.1639 90.1178 33.6655C89.781 33.3099 89.589 32.8412 89.5795 32.3513C89.5701 31.8613 89.7438 31.3855 90.0666 31.0171C92.047 28.7559 93.6372 26.1802 94.772 23.3958C95.9831 20.4335 96.6442 17.2749 96.7227 14.0751C96.7676 12.6002 96.8252 10.5803 96.1686 9.53823C95.15 7.89982 92.5106 8.42885 92.0045 8.5571C88.9519 9.27852 86.5303 12.084 84.4995 14.633C83.9454 15.332 83.4361 16.0566 82.93 16.7812L82.4623 17.4481C82.2311 17.7674 81.9105 18.011 81.5411 18.148C81.1716 18.2849 80.7699 18.3092 80.3867 18.2176C80.0036 18.1211 79.6586 17.9113 79.3963 17.6156C79.1341 17.32 78.9669 16.9521 78.9164 16.56L78.7883 15.425C78.7178 14.7623 78.6591 14.0986 78.6121 13.4339C78.5192 12.1129 78.4712 10.7823 78.4552 9.45166C78.4418 9.07999 78.2833 8.72841 78.0138 8.47242C77.7443 8.21643 77.3852 8.07646 77.0137 8.08257C76.7149 8.11081 76.433 8.23445 76.2098 8.43527C75.9419 8.6863 75.7803 9.03051 75.7581 9.39715C75.8025 13.3222 76.211 17.2347 76.9785 21.0841C77.0361 21.3729 77.028 21.671 76.9548 21.9563C76.8816 22.2416 76.7452 22.5068 76.5557 22.7321C76.3619 22.9514 76.1238 23.1268 75.857 23.2468C75.5902 23.3667 75.301 23.4285 75.0086 23.4279L72.1578 23.3477C71.6398 23.3343 71.1483 23.1157 70.791 22.7401C70.4337 22.3644 70.2399 21.8623 70.2519 21.3438L70.5017 8.89056C70.5017 8.12425 69.7682 7.60804 69.0635 7.57919C68.9206 7.57246 68.778 7.59775 68.6461 7.65322C68.5143 7.70869 68.3964 7.79294 68.3012 7.89982C67.9947 8.18056 67.8116 8.57132 67.7919 8.98675L67.6702 14.9921C67.6633 15.4067 67.5252 15.8083 67.2757 16.1393C67.0263 16.4703 66.6783 16.7135 66.282 16.834C65.8857 16.9544 65.4614 16.946 65.0702 16.8097C64.679 16.6735 64.3411 16.4165 64.1051 16.0758L63.5157 15.2262C63.0192 14.5016 62.5227 13.7769 61.9974 13.0683C61.0364 11.7474 59.9186 10.4296 58.4739 9.74343C56.8633 9.0362 55.135 8.63605 53.3777 8.56352C51.9779 8.49939 50.5974 9.37471 50.2514 10.6444C49.9792 11.664 50.0913 12.8888 50.5718 14.2739C52.6356 20.0752 55.4645 25.5745 58.9832 30.626C59.1316 30.8383 59.2363 31.078 59.2912 31.3312C59.3462 31.5844 59.3504 31.846 59.3035 32.1009C59.2081 32.6132 58.9146 33.0672 58.4867 33.3641C56.8852 34.4543 55.3861 35.6406 53.9062 36.8686C51.6865 36.2562 49.4955 35.5027 47.359 34.7492C45.3666 34.0503 44.521 37.2117 46.491 37.9042C47.99 38.4301 49.5019 38.9399 51.0266 39.4048C49.0895 41.2162 47.2706 43.1504 45.5813 45.1953C43.4421 47.8153 41.4622 50.5617 39.6522 53.4194C37.3616 53.8483 35.0245 53.9722 32.7014 53.7882C30.8116 53.599 28.8576 52.8968 27.7782 51.2231C26.8396 49.7803 27.1375 48.1291 28.3323 46.9395C29.4278 45.8526 31.9038 44.7817 33.0794 46.3175C33.9282 47.4301 33.0025 49.3635 31.5195 48.6485C29.6328 47.7411 27.9768 50.5723 29.873 51.4732C34.1044 53.5124 38.4254 48.9531 36.0135 44.8234C33.7713 40.9759 28.2779 42.0564 25.725 44.942C22.8966 48.1675 23.707 52.6115 27.0126 55.1092Z" fill="black"/>
<path d="M60.604 188.731C60.4697 188.333 60.4036 187.914 60.4086 187.493C60.6553 178.766 63.8008 170.292 66.2383 161.933C67.1256 158.884 67.6029 154.001 69.6113 150.99L68.7368 150.724C67.2162 150.485 65.7824 149.859 64.5727 148.906C61.8116 146.719 63.3427 143.009 66.1038 141.704C64.0186 139.935 62.9551 137.424 64.025 134.215C64.5593 132.626 65.554 131.233 66.8822 130.213C65.3447 129.376 64.0378 128.331 63.3363 126.584C62.4586 124.381 62.6156 121.668 62.3946 119.347C62.2568 117.898 63.2882 116.445 64.6752 115.609C63.1825 111.517 65.1941 107.179 68.6503 104.473C68.8329 104.329 69.0347 104.229 69.2237 104.101C68.3399 103.521 67.6037 102.743 67.0737 101.828C66.5437 100.912 66.2346 99.8859 66.1711 98.83C66.0141 96.5856 67.2441 94.4374 69.1084 93.0363C68.5345 92.494 68.0811 91.8369 67.7776 91.1078C67.4741 90.3786 67.3272 89.5937 67.3466 88.804C67.3567 87.7531 67.6391 86.7228 68.1664 85.814C68.6936 84.9052 69.4475 84.149 70.3544 83.6194C72.5357 82.3369 74.8388 82.9333 77.2187 83.2571C84.096 84.1827 91.0761 84.016 97.9015 82.7634C103.187 81.8015 105.73 88.0826 102.466 90.6155C103.02 91.4225 103.351 92.3615 103.427 93.3377C103.599 95.9242 103.281 98.5199 102.488 100.988C102.431 101.14 102.366 101.289 102.293 101.434C102.357 101.494 102.444 101.536 102.504 101.597C103.699 102.789 104.541 104.288 104.94 105.928C105.339 107.568 105.279 109.287 104.766 110.895C104.966 111.03 105.158 111.178 105.339 111.338C107.604 113.467 108.296 117.532 108.308 120.399C108.299 121.415 108.103 122.42 107.729 123.365C109.286 124.3 110.473 125.747 111.086 127.459C111.613 128.874 111.736 130.409 111.441 131.89C112.176 132.566 112.653 133.478 112.787 134.468C112.922 135.458 112.706 136.464 112.178 137.312C111.419 138.594 111.999 140.913 111.717 142.397C111.422 143.941 110.79 145.401 109.865 146.671C107.822 149.464 104.554 151.179 101.217 152.343C97.3249 153.699 93.1608 154.318 89.0448 154.7C87.0763 154.93 85.0935 155.016 83.1125 154.956C83.4371 156.363 83.6386 157.795 83.7147 159.236C84.035 163.773 84.2913 168.32 84.5796 172.863C84.7397 175.399 85.6494 180.283 85.3067 184.464C86.7769 186.599 86.8666 189.741 83.8589 190.905C82.0691 191.669 80.1159 191.969 78.1797 191.777H78.074C77.6512 191.732 77.2348 191.694 76.7703 191.607C76.5507 191.548 76.3364 191.471 76.1297 191.376C75.9608 192.02 75.7401 192.65 75.4698 193.258C75.5147 193.986 75.5947 194.714 75.6684 195.435L76.1969 200.626C76.4809 203.405 76.765 206.195 77.049 208.995C77.0842 209.033 77.1355 209.053 77.1707 209.088C80.976 213.041 76.0336 218.386 71.0847 216.097C70.7868 215.959 70.5081 215.808 70.2327 215.654C69.781 215.638 69.3294 215.616 68.8842 215.577C67.068 215.411 65.444 215.01 63.9449 214.035C60.6328 211.884 59.7424 208.232 59.7424 204.702C59.7377 199.366 60.0253 194.035 60.604 188.731Z" fill="white"/>
<path d="M81.2611 91.7503C81.3444 89.5786 81.4747 87.4111 81.6519 85.2479C81.7128 84.5426 81.7448 83.8917 82.2926 83.3402C82.8403 82.7887 83.7852 82.8144 84.5636 82.8112H88.1447H89.8392C90.4296 82.7659 91.0216 82.8765 91.5561 83.1318C91.612 83.1188 91.6687 83.1092 91.7258 83.1029C92.6195 83.1414 93.3466 83.7666 93.3594 84.6099C93.3915 86.7966 93.3274 88.9865 93.1544 91.1667C93.1589 91.6995 93.044 92.2265 92.8181 92.709L93.0904 92.5967C93.772 92.2823 94.4715 92.0083 95.1852 91.7759C95.717 91.6379 96.2794 91.6773 96.7868 91.8882C96.9336 91.8395 97.087 91.8136 97.2416 91.8112C98.0937 91.8465 98.9201 92.4749 98.8752 93.3182L98.6446 97.807L98.5421 99.8943C98.5005 100.689 98.5773 101.581 98.2378 102.321C97.8086 103.254 96.822 103.453 95.8483 103.565C95.0122 103.662 94.173 103.745 93.3338 103.822C92.6227 103.889 91.9148 103.95 91.2037 104.005C90.1659 104.088 89.1121 104.005 88.5195 103.085C88.1997 102.505 88.0509 101.847 88.0903 101.186L88.0294 98.8137L87.9813 96.8066C87.9557 95.8223 88.0134 94.8828 88.9903 94.2865C89.2393 94.1396 89.5009 94.0151 89.7719 93.9145C88.7949 94.0781 87.818 94.2352 86.8314 94.3378C85.7071 94.4564 84.57 94.5365 83.4393 94.5526C83.0672 94.581 82.6941 94.5116 82.357 94.3513C82.02 94.191 81.7305 93.9454 81.5174 93.6388C81.1522 93.0617 81.2451 92.3915 81.2611 91.7503Z" fill="#00A99D"/>
<path d="M68.4838 97.2112C69.1885 95.6722 70.0053 93.4022 72.0554 93.0431C72.3072 93.0001 72.5653 93.0116 72.8122 93.0768C73.0592 93.1421 73.2894 93.2596 73.4872 93.4214C73.6008 93.3877 73.718 93.3672 73.8363 93.3605C74.6627 93.3958 75.5404 94.0274 75.4699 94.8707C75.3226 96.6117 75.2393 98.3591 75.2297 100.11C75.2778 101.004 75.2649 101.901 75.1912 102.793C75.098 103.341 74.8245 103.843 74.4142 104.217C74.0039 104.592 73.4803 104.819 72.9266 104.861C72.0346 104.923 71.1386 104.838 70.2744 104.608C69.7508 104.517 69.261 104.288 68.8554 103.944C68.4946 103.559 68.23 103.093 68.0835 102.585C67.7332 101.761 67.5681 100.87 67.5998 99.9751C67.7322 99.0095 68.0313 98.0743 68.4838 97.2112Z" fill="#00A99D"/>
<path d="M75.0181 107.269C75.0181 109.084 75.1239 110.902 75.3032 112.72C75.4015 113.72 75.5253 114.717 75.6748 115.711C75.7402 116.385 75.8854 117.049 76.1072 117.689C76.3909 118.477 76.9388 119.143 77.6575 119.571C78.3684 119.915 79.1489 120.089 79.9382 120.081C81.6711 120.168 83.4616 120.347 85.2041 120.274C86.9467 120.2 88.4073 119.382 88.9807 117.786C89.4675 116.433 89.3843 114.813 89.3618 113.403C89.3421 111.704 89.1793 110.011 88.875 108.34C88.758 107.6 88.4199 106.914 87.9053 106.371C87.3906 105.827 86.7236 105.453 85.9921 105.297C84.5667 104.957 82.9491 105.092 81.5077 105.15C79.9022 105.196 78.3073 105.426 76.7543 105.836C75.8894 105.775 75.0085 106.246 75.0181 107.269Z" fill="#00A99D"/>
<path d="M85.4253 124.558C85.4253 125.808 85.4477 127.062 85.4605 128.312C85.4605 129.495 85.3933 130.765 86.0147 131.839C87.4593 134.35 90.6528 133.404 93.0392 132.878C95.5909 132.298 98.0929 131.518 100.522 130.544C100.764 130.424 100.969 130.238 101.112 130.008C101.255 129.778 101.331 129.513 101.332 129.242C101.233 125 100.813 120.777 100.371 116.555C100.346 116.141 100.162 115.753 99.8578 115.472C99.5532 115.191 99.1517 115.039 98.7376 115.048C98.3246 115.057 97.9274 115.209 97.6133 115.477C97.3389 115.463 97.0653 115.519 96.8189 115.641C94.2852 117.007 91.7931 118.616 89.0192 119.521C87.8757 119.892 86.8027 120.405 86.1524 121.39C85.5022 122.374 85.4285 123.48 85.4253 124.558Z" fill="#00A99D"/>
<path d="M64.1468 124.509C64.0699 126.208 64.3037 128.007 65.3191 129.469C65.8056 130.182 66.4377 130.783 67.1738 131.233C67.9617 131.714 69.0636 132.098 69.9701 131.698C71.2353 131.146 71.104 129.928 71.104 128.831C71.104 127.921 71.104 127.008 71.104 126.093C71.104 124.268 71.104 122.442 71.104 120.617C71.104 119.77 70.3545 119.145 69.4704 119.106C69.432 119.106 69.4031 119.123 69.3647 119.126C68.7794 118.989 68.1837 118.901 67.5838 118.863C67.332 118.884 67.0859 118.949 66.8566 119.055C66.8089 119.064 66.7618 119.075 66.7157 119.09C66.6645 119.116 66.6068 119.116 66.5588 119.142C66.4087 119.162 66.2633 119.209 66.1295 119.28C65.7069 119.55 65.342 119.901 65.0561 120.313C64.7701 120.725 64.5688 121.19 64.4639 121.681C64.2801 122.613 64.174 123.559 64.1468 124.509Z" fill="#00A99D"/>
<path d="M70.4248 133.882C70.6618 136.447 71.0142 139.001 71.4818 141.545C71.6869 142.66 72.1417 143.558 73.3557 143.981C74.4129 144.313 75.4995 144.543 76.6005 144.668C79.0277 144.987 81.4752 145.125 83.9229 145.081L85.7615 145.052C86.3452 145.09 86.9312 145.035 87.4976 144.889C88.9006 144.379 88.6155 143.016 88.5258 141.917L87.9717 135.142C87.9477 134.727 87.764 134.338 87.4594 134.057C87.1547 133.775 86.7527 133.623 86.3381 133.632C86.1836 133.581 86.023 133.552 85.8608 133.545C81.3797 133.561 76.9059 133.183 72.4908 132.416C71.5395 132.25 70.3287 132.82 70.4248 133.882Z" fill="#00A99D"/>
<path d="M104.007 128.11C104.105 128.073 104.205 128.043 104.308 128.02C104.308 127.956 104.308 127.892 104.33 127.831C104.529 127.383 104.822 126.983 105.189 126.658C104.993 126.863 105.23 126.552 105.278 126.465C105.351 126.327 105.433 126.194 105.525 126.068C105.876 125.591 106.371 125.24 106.938 125.067C108.859 124.465 110.605 126.199 111.339 127.632C112.097 129.124 112.323 130.83 111.979 132.467C111.63 134.25 110.576 135.863 109.295 137.21C108.472 138.072 106.87 137.588 106.566 136.543C105.907 134.248 104.839 132.09 103.414 130.175C102.943 129.527 103.26 128.482 104.007 128.11Z" fill="#00A99D"/>
<path d="M89.3138 154.546C89.2529 155.829 90.6559 156.242 91.6425 155.829C91.7467 155.859 91.8543 155.876 91.9628 155.88C95.2917 155.639 98.565 154.895 101.672 153.674C104.208 152.67 107.117 151.429 107.841 148.73C108.184 147.447 108.119 146.069 108.03 144.751C107.947 143.516 108.087 141.596 106.851 140.804C105.477 139.929 103.757 141.003 102.463 141.561C101.169 142.118 99.8778 142.718 98.5741 143.269C96.2006 144.279 93.6893 145.158 91.0563 145.309C90.1883 145.36 89.4099 145.966 89.4259 146.816C89.4665 149.391 89.4291 151.968 89.3138 154.546Z" fill="#00A99D"/>
<path d="M64.941 164.219C65.1812 162.876 65.4311 161.532 65.713 160.199C65.9692 158.987 66.2415 157.589 66.9686 156.531C67.2229 156.151 67.5589 155.834 67.9519 155.602C68.345 155.37 68.785 155.229 69.2396 155.19C70.0777 155.152 70.9173 155.213 71.7413 155.37C73.2346 155.611 74.691 156.042 76.0751 156.652C76.3706 156.617 76.6701 156.661 76.9434 156.778C77.2167 156.896 77.4542 157.084 77.6319 157.322C77.6558 157.229 77.6902 157.139 77.7344 157.053C77.9063 156.809 78.1388 156.614 78.409 156.488C78.6792 156.361 78.9778 156.307 79.2751 156.332C79.3071 155.86 79.3744 155.392 79.3616 154.921C79.3978 154.512 79.5856 154.132 79.8879 153.855C80.1903 153.578 80.5853 153.424 80.9952 153.424C81.4051 153.424 81.8001 153.578 82.1025 153.855C82.4048 154.132 82.5926 154.512 82.6288 154.921C82.6395 155.847 82.5763 156.772 82.4398 157.688C82.4783 157.739 82.5455 157.771 82.5775 157.829C82.7347 158.086 82.8069 158.386 82.7839 158.687C82.7609 158.987 82.6438 159.273 82.4494 159.503C82.2428 159.745 81.9722 159.924 81.6686 160.02C81.3651 160.116 81.0407 160.124 80.7325 160.045L79.131 159.554C78.8807 159.473 78.6512 159.339 78.4583 159.16C78.4095 159.147 78.3614 159.132 78.3142 159.115C78.1316 159.024 77.9718 158.894 77.8465 158.733C77.7568 161.225 77.1002 163.665 76.2449 166.015C76.0111 166.656 75.7677 167.272 75.5178 167.894C75.2263 168.634 74.9476 169.397 74.1501 169.817C72.8688 170.459 70.9629 170.029 69.64 169.728C68.2881 169.449 66.9901 168.953 65.7962 168.259C64.2011 167.243 64.6752 165.694 64.941 164.219Z" fill="#00A99D"/>
<path d="M74.0796 172.331C74.0796 171.475 74.8291 170.869 75.7132 170.824C77.6162 170.723 79.5103 170.495 81.3828 170.141C82.5007 169.929 83.3367 170.583 83.4488 171.593C83.8044 174.731 84.4477 177.83 85.3707 180.85C85.6045 181.616 86.0273 182.453 85.8191 183.277C85.4988 184.45 84.4001 184.653 83.2983 184.784C81.5897 184.992 79.8684 185.079 78.1476 185.044C77.2219 185.021 76.12 185.098 75.4121 184.444C74.6562 183.748 74.8195 182.565 74.7715 181.661C74.7074 180.019 74.6423 178.378 74.5761 176.736L74.48 174.392C74.4649 174.043 74.4756 173.692 74.512 173.344C74.2453 173.073 74.0908 172.711 74.0796 172.331Z" fill="#00A99D"/>
<path d="M59.374 193.579C59.374 195.824 59.2491 198.123 59.6463 200.357C59.7776 201.101 60.8923 201.688 61.6547 201.412C64.0378 200.55 66.5427 200.572 69.0635 200.643C70.3256 200.681 71.5876 200.729 72.8529 200.694C74.1918 200.659 75.9631 200.694 76.4019 199.222C76.5685 198.664 76.3571 198.097 76.2738 197.545C76.1975 196.988 76.1547 196.427 76.1457 195.865C76.1137 194.775 76.1617 193.688 76.1777 192.598C76.2087 191.512 76.1595 190.426 76.0304 189.347C75.8702 188.164 75.7101 186.814 74.3487 186.298C74.3381 186.296 74.3273 186.296 74.3167 186.298C74.034 186.067 73.679 185.943 73.3141 185.948C70.9139 185.948 68.5169 185.881 66.1231 185.746C64.9251 185.682 63.7292 185.602 62.5355 185.506C61.2543 185.403 59.8321 185.339 59.4317 186.788C59.2811 187.33 59.3644 187.962 59.3644 188.51C59.3644 189.058 59.3644 189.639 59.3644 190.203L59.374 193.579Z" fill="#00A99D"/>
<path d="M59.6527 212.086C59.6087 212.202 59.5848 212.326 59.5822 212.451C59.816 215.484 60.0595 218.594 61.3119 221.429C61.459 221.821 61.745 222.145 62.1153 222.339C62.4856 222.534 62.9145 222.585 63.3203 222.484C64.1115 222.317 64.7841 221.361 64.4606 220.627C63.8948 219.303 63.4946 217.914 63.269 216.491L63.2114 216.129C63.1921 215.997 63.1761 215.863 63.1569 215.728C63.1313 215.519 63.1121 215.311 63.0896 215.106C63.474 215.231 63.8712 215.321 64.262 215.426C64.3741 216.558 64.5247 217.69 64.7265 218.816C64.7836 219.009 64.8795 219.188 65.0084 219.343C65.1373 219.498 65.2964 219.625 65.476 219.717C65.8614 219.921 66.3089 219.975 66.7316 219.867C67.1332 219.769 67.4824 219.521 67.7086 219.175C67.8116 219.002 67.8793 218.81 67.9079 218.611C67.9365 218.412 67.9254 218.209 67.8751 218.014C67.8143 217.664 67.7566 217.312 67.7054 216.962C67.6701 216.712 67.6445 216.462 67.6157 216.212C67.7919 216.244 67.9616 216.289 68.1378 216.318C68.135 216.409 68.1404 216.5 68.1538 216.59C68.2339 216.879 68.298 217.171 68.3492 217.466C68.3492 217.466 68.3492 217.466 68.3492 217.485C68.3492 217.504 68.3492 217.584 68.3652 217.632C68.3844 217.783 68.3973 217.931 68.4101 218.078C68.4549 218.633 68.4677 219.191 68.4805 219.749C68.4789 220.997 68.6012 222.243 68.8457 223.468C69.0315 224.292 70.0341 224.693 70.8541 224.52C71.0516 224.475 71.2382 224.391 71.4029 224.273C71.5677 224.155 71.7072 224.005 71.8134 223.833C71.9197 223.66 71.9904 223.468 72.0214 223.268C72.0525 223.068 72.0433 222.863 71.9944 222.666C71.956 222.5 71.9239 222.33 71.8919 222.163C71.8919 222.121 71.8919 222.131 71.8919 222.108C71.8919 222.086 71.8919 222.108 71.8919 222.057C71.8599 221.759 71.831 221.461 71.815 221.163C71.7798 220.605 71.7734 220.047 71.7574 219.489C71.7349 218.583 71.6482 217.68 71.4979 216.786C71.9271 216.834 72.3564 216.889 72.7792 216.93C72.7792 216.969 72.7792 217.007 72.7792 217.046C72.856 217.366 72.9169 217.706 72.9714 218.036C73.0983 219.018 73.1166 220.01 73.0258 220.996C73.0249 221.197 73.067 221.396 73.1494 221.58C73.2317 221.763 73.3523 221.927 73.5031 222.06C73.8201 222.347 74.2324 222.504 74.6594 222.503C75.086 222.502 75.4976 222.345 75.8157 222.06C76.1071 221.781 76.2783 221.399 76.293 220.996C76.3941 219.722 76.323 218.441 76.0816 217.187C76.4564 217.212 76.8312 217.244 77.2059 217.264C77.232 218.131 77.3154 218.995 77.4558 219.851C77.5647 220.467 77.7056 221.079 77.7985 221.701C77.7985 221.762 77.8273 221.945 77.8305 221.954C77.8305 222.102 77.8562 222.249 77.8626 222.397C77.877 222.742 77.8642 223.087 77.8241 223.429C77.7248 224.269 78.6505 224.904 79.4577 224.936C79.8713 224.945 80.272 224.792 80.5759 224.511C80.8798 224.23 81.0634 223.843 81.0881 223.429C81.2515 222.057 80.912 220.688 80.6589 219.345L80.582 218.902C80.582 218.828 80.566 218.803 80.5628 218.783C80.5596 218.764 80.5468 218.684 80.5436 218.633C80.5052 218.312 80.4795 217.992 80.4635 217.671C80.4379 217.19 80.4411 216.709 80.4411 216.231C80.4736 216.075 80.4823 215.915 80.4667 215.757C80.4667 215.721 80.4667 215.689 80.4667 215.654C79.3488 208.353 78.1444 200.973 77.3468 193.585C77.6992 193.537 78.0419 193.47 78.3879 193.396C78.9965 195.512 79.5378 197.644 79.9574 199.809C80.1208 200.639 81.1714 201.03 81.969 200.864C82.1662 200.818 82.3524 200.733 82.5167 200.615C82.681 200.496 82.8202 200.346 82.9262 200.174C83.0323 200.001 83.1031 199.809 83.1345 199.609C83.1659 199.408 83.1574 199.204 83.1093 199.007C82.6993 196.904 82.174 194.839 81.5814 192.758C81.9818 192.694 82.379 192.62 82.7794 192.572C83.1844 193.494 83.4718 194.464 83.6346 195.458C83.6346 195.541 83.657 195.624 83.6635 195.708C83.6795 195.796 83.7009 195.882 83.7275 195.968C83.7275 195.99 83.7275 196.012 83.7275 196.032L84.2272 198.869C84.2835 199.063 84.3791 199.243 84.508 199.398C84.637 199.553 84.7966 199.68 84.9767 199.77C85.3634 199.974 85.8113 200.029 86.2356 199.924C86.6357 199.822 86.9839 199.576 87.2125 199.232C87.4122 198.878 87.4706 198.462 87.3759 198.068C87.2093 197.121 87.0438 196.175 86.8794 195.23C86.8794 195.195 86.8346 195.166 86.825 195.131C86.6758 194.167 86.4301 193.221 86.0914 192.306C86.226 192.306 86.3573 192.28 86.495 192.277C86.5335 192.409 86.5783 192.54 86.6104 192.671C86.7449 193.188 86.8506 193.714 86.9563 194.236C87.1317 195.335 87.4304 196.411 87.8468 197.442C87.9971 197.814 88.2663 198.125 88.6123 198.327C88.9978 198.531 89.4447 198.586 89.868 198.481C90.2631 198.376 90.6054 198.128 90.8289 197.786C90.9394 197.616 91.0115 197.424 91.0403 197.224C91.0691 197.023 91.0538 196.819 90.9955 196.625C90.5687 195.561 90.2615 194.454 90.0794 193.322C89.8617 192.105 89.4926 190.921 88.9807 189.795C88.9807 189.795 88.9647 189.795 88.9583 189.77C87.2442 184.316 85.9863 178.728 85.1978 173.065C84.445 167.537 83.8557 161.638 84.7814 156.072C91.2902 157.466 98.3243 156.937 104.321 154.196C111.249 151.031 116.102 144.006 112.995 136.914C112.885 136.659 112.695 136.446 112.453 136.308C113.885 133.868 114.535 131.021 114.013 128.44C113.571 126.257 112.226 123.845 110.064 122.717C109.874 122.625 109.677 122.55 109.474 122.492C109.578 120.513 109.47 118.527 109.154 116.57C108.991 115.499 108.799 114.435 108.59 113.364C108.367 112.287 107.828 111.301 107.04 110.533C107.577 109.026 107.753 107.414 107.553 105.826C107.296 103.902 106.463 101.979 104.67 101.161C105.095 99.4149 105.358 97.6331 105.454 95.8385C105.531 94.2129 105.708 92.1128 104.516 90.7629C105.073 90.116 105.475 89.3511 105.694 88.5258C105.912 87.7005 105.941 86.8364 105.778 85.9984C105.499 84.3536 104.634 82.2118 102.847 81.5096C101.774 81.0896 100.579 81.2884 99.4518 81.3557C97.8502 81.4476 96.2486 81.5246 94.647 81.5865C91.6574 81.6998 88.6775 81.7511 85.7071 81.7405C82.7249 81.7405 79.746 81.6539 76.7703 81.5352C74.275 81.4359 71.5075 81.282 69.1916 82.3272C65.05 84.1965 66.5811 89.878 68.1346 93.2831C67.2529 94.2119 66.6405 95.3635 66.3633 96.6144C65.8668 98.6536 65.9308 100.731 66.0429 102.806C65.2402 103.689 64.5662 104.681 64.041 105.752C63.3523 107.112 62.6572 108.503 62.3337 109.985C61.7699 112.55 62.2312 115.047 63.1185 117.455C62.8091 117.614 62.5711 117.885 62.4522 118.212C62.3192 118.335 62.2125 118.483 62.1387 118.649C62.0649 118.814 62.0255 118.993 62.023 119.174C62.071 121.354 62.0454 123.544 62.3433 125.708C62.5884 127.387 63.1855 128.994 64.0954 130.425C61.8532 132.99 60.9563 136.597 62.2024 139.745C62.3401 140.076 62.4984 140.397 62.6764 140.707C61.7828 143.064 61.3087 145.876 62.3081 148.191C63.1537 150.156 64.8706 151.548 66.6708 152.785C65.7389 155.029 64.9493 157.329 64.3068 159.672C62.7373 165.444 61.2318 171.257 60.1427 177.124C58.0612 188.672 57.8956 200.484 59.6527 212.086ZM65.2998 143.304C65.7098 143.532 66.1358 143.74 66.5651 143.946C67.8039 144.545 69.0894 145.042 70.4088 145.433C69.5152 146.908 68.7304 148.422 67.9937 149.954C67.6381 149.694 67.2922 149.432 66.9462 149.124C66.2666 148.579 65.7191 147.887 65.3447 147.101C64.8834 145.982 64.9891 144.619 65.2998 143.304ZM101.726 89.2143C101.539 89.3738 101.395 89.5777 101.306 89.8075H101.153C100.099 89.8844 99.045 90.0031 98.004 90.1698C96.5847 90.4113 95.1846 90.7542 93.8142 91.1958C93.5484 91.1855 93.2842 91.2417 93.0455 91.3593C92.8597 91.4619 92.6579 91.5389 92.4657 91.6318C92.2735 91.7248 91.9852 91.7761 91.7514 91.8627C91.6681 91.9076 91.5907 91.9625 91.5208 92.0262L91.4279 92.0583C91.2677 92.1096 91.1076 92.1545 90.9442 92.1994C90.1177 92.4146 89.2776 92.5742 88.4297 92.6771L88.0838 92.7188C88.2344 92.7188 88.2055 92.7188 88.0037 92.7188L87.4816 92.7669C87.0204 92.8085 86.5559 92.8406 86.0914 92.8759C85.2234 92.9368 84.3553 92.9913 83.4905 93.0715C83.3005 93.0916 83.1135 93.1335 82.9331 93.1965C80.8543 93.3696 78.7498 92.8502 76.7351 92.4687C74.9733 92.132 72.981 91.7537 71.1295 91.9621C70.4553 90.54 70.0512 89.0048 69.938 87.4348C69.8995 86.7134 69.7458 85.6585 70.4184 85.1455C71.0911 84.6325 72.4428 84.578 73.1924 84.5235C77.0682 84.2446 81.0849 84.7383 84.9767 84.7608C89.1067 84.7843 93.2323 84.6934 97.3537 84.4882C98.3851 84.4369 99.4133 84.3696 100.442 84.3119C101.47 84.2542 101.912 84.5235 102.283 85.4309C102.812 86.7294 102.873 88.2236 101.726 89.2143ZM77.0169 190.578C76.7671 187.792 76.5781 185.008 76.5108 182.225C76.3058 172.935 77.5927 163.671 80.3226 154.789C80.7646 154.94 81.2034 155.11 81.6519 155.238C80.6909 160.904 81.1586 166.739 81.8665 172.408C82.5917 178.138 83.7927 183.797 85.4572 189.327C83.4104 189.431 81.3751 189.699 79.3712 190.129C79.2976 190.129 79.2271 190.129 79.1534 190.129C79.1387 190.133 79.1247 190.14 79.1118 190.148C79.034 190.142 78.9558 190.142 78.878 190.148C78.2694 190.338 77.6473 190.482 77.0169 190.578ZM63.4516 177.294C64.499 171.779 65.9212 166.319 67.3819 160.888C68.7446 155.612 70.9119 150.579 73.8074 145.966C77.8794 146.569 81.9911 146.864 86.1075 146.847C88.3497 146.828 90.5919 146.725 92.8181 146.495C94.7015 146.299 96.428 145.876 97.9015 144.718C99.503 143.455 97.2256 141.291 95.6336 142.544C94.4613 143.465 92.7027 143.506 91.2421 143.622C89.2476 143.769 87.2467 143.841 85.2394 143.837C81.227 143.833 77.2208 143.52 73.2564 142.9C73.202 142.9 73.1507 142.9 73.0995 142.9H73.0771C71.4018 142.801 69.8579 142.118 68.3812 141.429C67.5422 141.091 66.7683 140.609 66.0942 140.005C65.9915 139.696 65.7971 139.425 65.5368 139.229C65.4571 139.102 65.3854 138.971 65.3222 138.835C64.9563 137.784 64.8714 136.655 65.076 135.561C65.2805 134.467 65.7673 133.446 66.4882 132.599C67.9424 133.067 69.4223 133.474 70.9085 133.839V133.737C70.9277 133.737 70.9406 133.737 70.9598 133.737C71.1628 133.749 71.3663 133.72 71.558 133.652C71.7496 133.584 71.9255 133.477 72.075 133.339C72.2245 133.201 72.3446 133.034 72.428 132.848C72.5114 132.663 72.5564 132.462 72.5602 132.258C72.5641 132.055 72.5268 131.852 72.4506 131.664C72.3744 131.475 72.2608 131.303 72.1167 131.16C71.9725 131.016 71.8009 130.903 71.612 130.827C71.4231 130.752 71.2208 130.715 71.0174 130.72C70.9972 130.718 70.9768 130.718 70.9566 130.72C69.7842 130.415 68.6311 130.056 67.478 129.694C66.4415 128.317 65.7773 126.696 65.5497 124.987C65.3866 123.47 65.315 121.944 65.335 120.418C69.0571 120.687 72.7023 121.399 76.4372 121.723C80.6766 122.084 84.9397 122.067 89.1761 121.672C91.2485 121.486 91.3254 118.465 89.2337 118.658C84.9971 119.049 80.7343 119.065 76.4948 118.706C73.1764 118.42 69.9059 117.814 66.5971 117.491C65.6554 115.333 64.9955 112.906 65.5625 110.6C65.9047 109.384 66.384 108.21 66.9911 107.102C67.2467 106.586 67.5312 106.085 67.8431 105.602C68.067 105.727 68.3005 105.834 68.5414 105.922C69.56 106.243 70.6074 106.512 71.6549 106.733C73.8767 107.206 76.1366 107.476 78.4071 107.541C78.822 107.558 79.2272 107.413 79.5374 107.137C79.8475 106.861 80.0383 106.475 80.0695 106.06C80.124 105.239 79.3168 104.55 78.468 104.528C77.6191 104.505 76.703 104.447 75.8254 104.354C74.9477 104.261 74.4 104.188 73.5415 104.034C72.6831 103.88 71.8182 103.684 70.979 103.46C70.601 103.36 70.2263 103.255 69.8515 103.139L69.6112 103.069C69.5568 102.947 69.4319 102.87 69.3454 102.767C69.2493 101.023 69.1244 99.2083 69.5408 97.4961C69.7073 96.8068 69.9316 95.8321 70.4825 95.2966C70.8541 94.9343 71.5139 94.9375 72.0232 94.9375C73.9867 94.9375 75.8926 95.412 77.8081 95.7647C79.8481 96.1995 81.942 96.3238 84.019 96.1335C84.0968 96.1133 84.172 96.0842 84.2432 96.0469C87.5713 95.7808 91.0083 95.7006 94.0288 94.2995C95.3982 93.8356 96.7996 93.4723 98.2218 93.2125C99.045 93.0618 99.9098 92.9368 100.701 92.8695C101.111 92.8374 101.531 92.7989 101.944 92.7925H102.123C102.158 92.9015 102.184 93.0105 102.213 93.1131C102.213 93.1516 102.213 93.1484 102.213 93.1709C102.213 93.1933 102.213 93.2863 102.213 93.344C102.213 93.5332 102.229 93.7223 102.235 93.9147C102.255 94.7451 102.235 95.5788 102.181 96.4092C102.071 97.9248 101.823 99.4273 101.441 100.898C100.454 101.033 99.455 101.267 98.5133 101.43L93.574 102.293L84.1055 103.944C82.0395 104.306 82.8595 107.224 84.9191 106.868L100.355 104.175C101.114 104.04 102.745 103.469 103.459 103.931C104.1 104.345 104.263 105.57 104.359 106.204C104.609 108.077 104.146 109.974 103.062 111.52C102.973 111.661 102.91 111.816 102.876 111.979C102.783 112.046 102.7 112.126 102.604 112.194L102.357 112.37L102.328 112.389C102.136 112.518 101.944 112.646 101.752 112.768C101.409 112.989 101.057 113.204 100.704 113.409C99.9515 113.845 99.1795 114.252 98.3819 114.621C97.9879 114.804 97.5843 114.98 97.1775 115.147C96.9629 115.237 96.7451 115.32 96.5369 115.406L96.4344 115.445L96.2006 115.528C95.3453 115.833 94.8232 116.49 95.025 117.362C95.1558 117.763 95.4345 118.099 95.8042 118.301C96.1739 118.503 96.6067 118.556 97.0142 118.449C100.043 117.379 102.888 115.845 105.448 113.903C105.49 114.137 105.519 114.371 105.56 114.589C105.746 115.576 105.925 116.567 106.073 117.561C106.36 119.412 106.417 121.291 106.242 123.156C105.581 123.73 105.004 124.395 104.529 125.131C103.709 126.337 103.049 127.651 101.723 128.466C100.397 129.28 98.6574 129.767 97.1807 130.309C94.0865 131.444 91.0563 132.429 87.6962 132.579C87.5841 132.579 87.4688 132.579 87.3567 132.579C87.3418 132.578 87.3268 132.578 87.3118 132.579H87.2638H87.1517V132.599C86.7757 132.615 86.42 132.774 86.157 133.044C85.894 133.313 85.7436 133.673 85.7362 134.05C85.7289 134.426 85.8652 134.792 86.1174 135.071C86.3697 135.351 86.7189 135.524 87.094 135.555V135.616C88.3806 135.586 89.6642 135.479 90.9378 135.295C93.6797 134.875 96.2743 133.878 98.8432 132.926C101.018 132.118 103.417 131.428 105.054 129.796C105.792 128.996 106.447 128.123 107.008 127.19C107.235 126.843 107.633 126.013 107.988 125.766C108.818 125.189 109.225 125.833 109.734 126.491C112.883 130.566 109.769 136.953 105.208 138.857C103.286 139.659 104.888 142.285 106.809 141.49C108.151 140.9 109.368 140.059 110.394 139.011C112.418 144.84 106.87 150.073 101.425 152.128C94.9834 154.555 87.6514 154.273 81.2707 151.904C81.4629 151.346 81.6359 150.785 81.8377 150.23C82.5103 148.383 79.3712 147.543 78.7018 149.377C74.8624 159.874 73.0156 170.996 73.2564 182.171C73.5159 192.88 75.3321 203.653 76.9881 214.263C72.1994 214.009 67.3274 213.564 62.8942 211.816C61.128 200.36 61.3165 188.687 63.4516 177.294Z" fill="black"/>
<path d="M22.5057 179.708C22.1694 177.618 23.8671 175.723 25.7089 174.998C26.7718 174.588 27.9299 174.49 29.0466 174.716C31.0229 178.564 32.0767 182.796 33.0121 187.032C32.8511 187.166 32.676 187.282 32.49 187.378C31.847 187.639 31.1277 187.639 30.4848 187.378C30.1349 187.208 29.8207 186.973 29.5591 186.685C29.2072 186.656 28.8648 186.556 28.5527 186.39C28.2406 186.225 27.9651 185.998 27.7429 185.723C27.2752 185.143 26.7819 184.592 26.2502 184.056C25.7729 183.601 25.2893 183.152 24.7768 182.735C23.7518 181.892 22.73 181.106 22.5057 179.708Z" fill="#FBB03B"/>
<path d="M33.105 217.244C33.8791 216.966 34.7038 216.856 35.5237 216.923C36.3436 216.99 37.1396 217.232 37.8585 217.632C39.6746 218.681 40.5075 220.518 40.9687 222.471C41.1401 223.238 41.2652 224.016 41.3435 224.798C41.4006 225.388 41.4145 225.98 41.3851 226.572C41.339 227.155 41.2218 227.731 41.036 228.287C40.8662 228.89 40.1647 229.473 39.617 229.698C39.4993 229.73 39.3794 229.753 39.2582 229.768C37.7207 225.392 35.9013 220.896 33.105 217.244Z" fill="#FBB03B"/>
<path d="M28.3707 205.381C27.6596 203.336 26.9742 201.29 26.4104 199.219C25.8082 197.013 25.1964 194.663 24.1682 192.563C25.4303 191.732 27.1984 191.658 28.6014 192.139C29.4316 192.413 30.1896 192.871 30.819 193.478C31.4484 194.085 31.933 194.827 32.2369 195.647C32.9416 197.625 32.3971 199.552 31.4746 201.351C31.1082 202.048 30.6996 202.721 30.251 203.368C29.9148 203.855 29.5421 204.316 29.1363 204.746C28.9016 204.982 28.6452 205.194 28.3707 205.381Z" fill="#FBB03B"/>
<path d="M47.2021 228.05C47.2502 228.797 47.2822 229.541 47.263 230.294C47.2509 230.919 47.47 231.527 47.878 232H54.3003C54.5822 231.586 54.8256 231.15 55.0786 230.718C52.1542 228.153 49.8543 224.972 47.8203 221.647C47.5672 221.841 47.3438 222.071 47.1573 222.33C46.4237 223.539 46.6928 224.802 46.9363 226.094C47.058 226.739 47.1348 227.393 47.2021 228.05Z" fill="#FBB03B"/>
<path d="M34.7771 209.761C34.5726 208.914 34.5603 208.032 34.741 207.18C34.9217 206.328 35.2908 205.527 35.8213 204.836C36.3733 204.158 37.0766 203.619 37.8745 203.262C38.3582 204.4 38.8547 205.538 39.396 206.664C40.2577 208.443 41.2218 210.171 42.1731 211.906C41.2442 212.765 40.3313 213.602 38.97 213.621C36.8527 213.65 35.2255 211.691 34.7771 209.761Z" fill="#FBB03B"/>
<path d="M41.446 231.993C37.2179 223.295 33.3357 214.429 29.8827 205.381C25.9588 195.121 22.5475 184.649 19.6326 174.046C22.1687 172.978 24.795 172.139 27.4803 171.539C27.98 173.767 28.4797 175.999 29.0242 178.221C32 190.337 35.7252 202.412 41.8368 213.355C45.5557 220.015 50.3316 227.341 56.7603 231.984H63.1217C57.5515 229.688 53.3457 224.715 49.8735 219.947C45.466 213.884 42.029 207.186 39.2487 200.238C36.7608 193.893 34.6798 187.396 33.0186 180.786C32.1633 177.47 31.3785 174.139 30.6322 170.798C29.9692 167.842 29.5079 164.735 28.3484 161.923C26.577 157.633 21.6442 153.689 16.9067 156.277C12.102 158.906 13.9502 165.187 15.0169 169.349C20.5565 190.925 28.1929 211.907 37.8169 231.993H41.446ZM17.778 167.034C17.2591 164.956 16.1764 161.75 17.6787 159.842C19.1105 157.999 22.0158 158.832 23.47 160.221C25.6033 162.266 26.1991 165.527 26.7788 168.384C24.0568 168.999 21.3894 169.836 18.803 170.885C18.4635 169.599 18.0983 168.323 17.778 167.034Z" fill="black"/>
<path d="M182.115 127.51C181.745 128.088 181.316 128.625 180.834 129.113C178.743 131.303 176.801 133.474 175.418 136.199C174.861 137.198 174.614 138.34 174.707 139.479C174.876 140.845 175.802 141.868 176.644 142.881L182.144 149.464C182.618 150.034 183.083 150.746 183.778 151.067C184.111 151.216 184.478 151.276 184.841 151.24C185.205 151.204 185.553 151.074 185.85 150.862C187.038 150.024 188.174 149.115 189.252 148.139C190.335 147.222 191.402 146.281 192.455 145.315C193.416 144.414 194.617 143.494 195.306 142.349C196.703 140.028 195.306 137.559 194.025 135.561C193.307 134.455 192.481 133.054 191.142 132.698C189.861 132.358 188.759 133.121 187.868 133.964C186.879 134.907 185.908 135.888 184.899 136.799C184.748 136.937 184.457 137.052 184.672 137.097C184.619 137.08 184.57 137.053 184.527 137.017C184.227 136.71 184.045 136.307 184.012 135.879C183.919 134.862 184.502 133.913 185.238 133.259C186.055 132.538 186.84 131.957 187.452 131.13C187.646 131.023 187.816 130.875 187.948 130.697C188.509 129.918 188.217 129.017 187.574 128.418C186.552 127.456 185.267 125.667 183.675 126.083C182.862 126.295 182.506 126.879 182.115 127.51Z" fill="#00A99D"/>
<path d="M166.202 190.145C166.1 188.032 164.046 186.528 162.096 186.198C160.967 186.015 159.809 186.161 158.761 186.618C157.627 190.809 157.48 195.15 157.432 199.488C157.618 199.584 157.814 199.661 158.015 199.719C158.699 199.838 159.402 199.687 159.975 199.296C160.282 199.057 160.54 198.762 160.738 198.427C161.076 198.324 161.39 198.154 161.661 197.925C161.931 197.697 162.152 197.416 162.31 197.099C162.65 196.433 163.031 195.791 163.428 195.176C163.8 194.627 164.178 194.089 164.594 193.573C165.437 192.556 166.273 191.559 166.202 190.145Z" fill="#FBB03B"/>
<path d="M165.783 216.488C166.055 214.343 166.301 212.195 166.423 210.053C166.555 207.77 166.663 205.346 167.24 203.08C165.834 202.525 164.088 202.82 162.816 203.583C162.064 204.022 161.42 204.624 160.932 205.345C160.443 206.067 160.123 206.889 159.994 207.751C159.716 209.835 160.635 211.599 161.916 213.176C162.414 213.78 162.949 214.353 163.518 214.891C163.948 215.299 164.408 215.673 164.895 216.01C165.175 216.198 165.472 216.358 165.783 216.488Z" fill="#FBB03B"/>
<path d="M160.421 222.09C160.445 221.219 160.274 220.353 159.92 219.557C159.567 218.761 159.039 218.054 158.377 217.489C157.698 216.94 156.899 216.559 156.045 216.376C155.808 217.591 155.558 218.803 155.26 220.022C154.786 221.945 154.2 223.831 153.627 225.722C154.716 226.364 155.782 227.005 157.118 226.735C159.194 226.325 160.379 224.071 160.421 222.09Z" fill="#FBB03B"/>
<path d="M152.595 231.994C153.191 230.336 153.758 228.685 154.251 227.082C157.96 215.113 159.104 202.525 159.508 190.056C159.581 187.769 159.607 185.48 159.636 183.194C162.386 183.228 165.128 183.505 167.829 184.021C167.189 194.996 166.016 205.946 164.306 216.802C163.505 221.891 162.541 226.95 161.503 231.994H164.847C168.43 214.352 170.618 196.454 171.391 178.468C171.577 174.175 172.093 167.644 166.84 166.073C161.667 164.524 157.659 169.407 156.814 173.97C156.26 176.961 156.455 180.094 156.417 183.124C156.378 186.545 156.301 189.969 156.151 193.384C155.889 200.199 155.193 206.991 154.069 213.718C153.013 219.964 151.327 226.088 149.036 231.994H152.595ZM161.244 171.28C162.378 169.622 165.046 168.201 166.83 169.708C168.678 171.267 168.297 174.627 168.22 176.762C168.175 178.093 168.079 179.417 168.015 180.744C165.265 180.253 162.48 179.988 159.687 179.953C159.655 177.038 159.559 173.726 161.228 171.28H161.244Z" fill="black"/>
<path d="M143.229 194.525C143.474 194.628 143.744 194.652 144.002 194.594C144.261 194.537 144.496 194.401 144.674 194.204C149.332 189.571 153.705 184.661 157.772 179.5C157.701 179.324 157.661 179.136 157.656 178.945C157.614 177.226 157.753 175.506 158.069 173.815C153.393 179.866 148.527 185.768 143.088 191.161C140.266 190.248 144.197 185.752 145.097 184.502C147.019 181.828 148.982 179.185 150.987 176.573C154.805 171.6 158.793 166.762 162.906 162.029C163.058 161.981 163.2 161.906 163.326 161.808C163.804 161.378 164.16 160.828 164.356 160.215C164.553 159.602 164.583 158.948 164.444 158.319C164.239 157.245 163.669 156.283 163.23 155.296C163.23 155.248 163.207 155.203 163.201 155.155C163.184 155.073 163.173 154.991 163.169 154.908C163.169 154.863 163.169 154.815 163.169 154.773C163.173 154.665 163.189 154.557 163.217 154.453C163.229 154.437 163.239 154.42 163.246 154.401C163.278 154.302 163.313 154.206 163.355 154.11C163.387 153.989 163.44 153.875 163.512 153.773C163.419 153.943 163.403 153.978 163.464 153.872L163.56 153.715C163.685 153.523 163.829 153.35 163.966 153.17C163.988 153.146 164.007 153.12 164.024 153.093C164.046 153.077 164.066 153.059 164.085 153.039L164.405 152.718C164.636 152.513 164.886 152.33 165.129 152.138L173.595 160.529L173.521 160.638C173.385 160.84 173.238 161.035 173.079 161.221L172.926 161.391L172.769 161.548C172.609 161.702 172.448 161.869 172.275 162C171.917 162.321 171.545 162.606 171.174 162.898C171.001 163.036 170.821 163.164 170.645 163.296L170.552 163.334C170.504 163.312 170.485 163.302 170.552 163.334L170.424 163.254C170.007 162.937 169.545 162.685 169.053 162.507C167.98 162.209 166.779 162.462 166.109 163.331C165.971 163.418 165.847 163.526 165.741 163.652C164.78 164.956 163.797 166.258 162.823 167.56C164.155 166.967 165.661 166.898 167.041 167.368C167.435 166.839 167.839 166.31 168.233 165.764C168.249 165.755 168.263 165.744 168.278 165.732C168.358 165.793 168.444 165.841 168.525 165.893C168.771 166.052 169.027 166.196 169.29 166.326C170.456 166.883 171.654 166.512 172.669 165.841C174.361 164.722 175.949 163.209 176.833 161.372C176.849 161.343 176.833 161.314 176.853 161.282C176.881 161.24 176.907 161.196 176.93 161.151C177.649 160.745 178.261 160.172 178.714 159.48C179.166 158.788 179.445 157.998 179.527 157.175C180.205 157.275 180.894 157.105 181.449 156.703C181.732 156.513 181.959 156.249 182.105 155.941C182.251 155.632 182.311 155.29 182.279 154.95C183.005 154.717 183.672 154.329 184.233 153.811C184.355 153.768 184.47 153.707 184.575 153.632C187.565 151.174 190.555 148.716 193.544 146.257C195.844 144.366 198.522 142.185 198.967 139.034C199.236 137.11 197.798 135.991 196.584 134.769C195.303 133.468 193.996 131.916 192.526 130.822C191.331 129.934 190.226 130.502 189.204 131.242C189.781 130.377 190.264 129.447 190.107 128.546C189.857 127.1 188.067 126.144 186.984 125.365C185.825 124.532 184.399 123.227 182.859 123.589C181.228 123.974 180.507 125.859 179.739 127.161C178.931 128.569 178.028 129.921 177.038 131.207C175.991 132.451 175.028 133.763 174.156 135.135C173.403 136.417 172.762 137.742 172.138 139.082C171.218 139.402 170.536 140.297 170.072 141.156C169.894 141.477 169.752 141.817 169.649 142.169C168.887 142.283 168.188 142.658 167.672 143.231C167.255 143.729 166.991 144.339 166.913 144.985C166.253 145.359 165.67 145.856 165.196 146.45C164.531 147.2 164.036 148.085 163.742 149.044C163.718 149.052 163.694 149.063 163.672 149.076C161.862 150.454 159.924 152.228 159.898 154.693C159.898 155.992 160.424 157.018 160.955 158.156C161.036 158.309 161.105 158.468 161.164 158.63C161.164 158.63 161.164 158.63 161.164 158.656C161.18 158.714 161.193 158.773 161.202 158.832C161.202 158.832 161.202 158.913 161.225 158.98C161.167 159.019 161.111 159.061 161.058 159.105C155.45 165.518 150.112 172.144 145.042 178.984C143.761 180.715 142.496 182.462 141.247 184.223C140.25 185.631 139.059 187.109 138.806 188.859C138.405 191.706 140.503 194.134 143.229 194.525ZM180.162 144.892C179.051 143.744 177.915 142.619 176.753 141.519C176.308 141.095 175.824 140.573 175.299 140.105C175.934 138.664 176.684 137.276 177.541 135.956C178.573 134.442 179.832 133.099 180.86 131.582C181.065 131.281 183.208 128.033 183.672 127.093L183.97 127.292C184.399 127.584 184.822 127.882 185.251 128.187C185.572 128.414 185.892 128.645 186.187 128.883L186.651 129.242C186.331 129.774 185.793 130.431 185.568 130.774L184.108 133.019C183.265 134.324 182.538 135.51 182.663 137.116C182.762 138.437 184.374 138.809 185.303 138.142L188.551 135.805L190.271 134.571C190.431 134.455 190.742 134.163 191.033 133.929C191.674 134.5 192.314 135.141 192.9 135.731C193.711 136.533 194.502 137.334 195.306 138.155C195.684 138.55 195.783 138.572 195.626 139.098C195.504 139.471 195.336 139.827 195.127 140.159C194.636 140.908 194.045 141.584 193.368 142.169C190.514 144.763 187.455 147.162 184.438 149.589C184.117 149.175 183.749 148.781 183.419 148.409C182.356 147.214 181.27 146.042 180.162 144.892ZM167.067 149.477L167.086 149.441C167.243 149.194 167.407 148.96 167.592 148.729C167.737 148.553 167.893 148.409 168.047 148.236C168.335 148.436 168.679 148.537 169.029 148.526C169.379 148.514 169.716 148.39 169.99 148.171C170.264 147.953 170.46 147.651 170.549 147.312C170.638 146.973 170.616 146.615 170.485 146.289C170.421 146.158 170.345 146.032 170.257 145.914C170.084 145.719 169.988 145.097 170.453 145.376C171.971 146.286 173.656 144.661 172.753 143.173C172.778 143.106 172.823 143 172.852 142.929C172.912 142.809 172.984 142.695 173.067 142.589C173.288 142.782 173.592 142.993 173.688 143.083C175.037 144.337 176.34 145.629 177.618 146.95C178.959 148.335 180.264 149.755 181.532 151.211C181.577 151.259 181.705 151.432 181.83 151.593C181.762 151.66 181.688 151.722 181.609 151.779C181.219 151.993 180.934 151.984 180.687 151.615C179.726 150.179 177.359 151.532 177.826 153.003C177.549 152.946 177.261 152.959 176.989 153.042C176.718 153.125 176.471 153.275 176.273 153.478C175.664 154.103 175.744 154.934 176.18 155.617C176.677 156.399 176.337 157.422 175.716 158.047L167.067 149.477Z" fill="black"/>
<path d="M189.511 139.422C189.855 139.163 190.28 139.036 190.709 139.066C191.139 139.116 191.533 139.331 191.808 139.665C192.282 140.306 192.34 141.477 191.565 141.964C189.791 143.085 188.113 144.349 186.545 145.744C186.207 146.014 185.777 146.14 185.347 146.095C184.917 146.049 184.523 145.836 184.249 145.501C183.985 145.16 183.862 144.731 183.908 144.302C183.953 143.874 184.163 143.479 184.492 143.202C186.058 141.805 187.737 140.541 189.511 139.422Z" fill="black"/>
<path d="M55.7705 159.15C55.4611 159.004 55.1596 158.843 54.8672 158.665L54.6558 158.531C54.486 158.415 54.3162 158.294 54.1497 158.168C53.6051 157.765 53.083 157.325 52.5673 156.886C51.441 155.886 50.2263 154.991 48.9382 154.212C48.8805 154.183 48.8132 154.189 48.7556 154.167C37.7047 146.023 26.3335 137.841 14.3506 131.14C14.3121 131.098 14.2961 131.05 14.2513 131.014C13.9635 130.789 13.6075 130.669 13.2423 130.675C13.0004 130.659 12.7581 130.7 12.5354 130.796C12.3127 130.892 12.1159 131.039 11.961 131.226C11.4133 131.935 10.8335 132.614 10.2762 133.313L8.3767 131.8C8.47653 131.577 8.5341 131.338 8.54646 131.095C8.557 130.796 8.48921 130.5 8.34984 130.235C8.21048 129.971 8.00439 129.748 7.75208 129.588C7.38313 129.297 6.96248 129.08 6.51247 128.946C5.45223 128.728 4.74753 129.626 4.09729 130.296C3.23031 131.196 2.40283 132.13 1.61485 133.099C1.13215 133.653 0.682915 134.235 0.269532 134.843C0.0795969 135.147 -0.0137894 135.503 0.00164654 135.861C0.0170824 136.22 0.140619 136.566 0.356018 136.853C0.629109 137.201 0.953066 137.506 1.31696 137.757C1.61899 137.986 1.98881 138.108 2.36775 138.103C2.74668 138.098 3.11301 137.966 3.40862 137.728C3.70331 137.882 3.99159 138.049 4.27667 138.225C4.68027 138.492 5.06464 138.78 5.44582 139.078C4.80519 139.806 4.19019 140.547 3.54315 141.262C3.43085 141.396 3.34499 141.551 3.2901 141.717C3.27409 141.759 3.24846 141.791 3.23565 141.829C3.08103 142.075 3.01109 142.365 3.03654 142.655C3.06199 142.944 3.18142 143.217 3.37658 143.432C7.64958 148.691 12.2653 153.728 17.0348 158.621C17.0829 158.553 17.0797 158.46 17.1405 158.399C17.5915 157.985 18.134 157.685 18.7237 157.521C19.3134 157.358 19.9333 157.337 20.5326 157.46C19.7447 156.655 18.9311 155.857 18.1591 155.052C22.941 152.743 27.0203 149.197 29.9755 144.782C32.4975 146.492 34.9981 148.236 37.4773 150.015C34.4463 154.475 30.2793 158.043 25.4078 160.349C25.8401 160.782 26.2425 161.243 26.6122 161.731C26.9055 162.139 27.1781 162.562 27.429 162.997C32.5524 160.471 36.933 156.658 40.1423 151.929C42.2628 153.465 44.3833 155.007 46.4846 156.556C42.6848 161.589 38.519 166.334 34.0211 170.753C32.2594 169.076 30.4976 167.371 28.7391 165.668C29.2281 166.966 29.5218 168.33 29.6104 169.714C29.6206 170.075 29.4909 170.425 29.2484 170.692C30.3087 171.705 31.3689 172.735 32.4259 173.741C32.4533 173.818 32.4854 173.893 32.522 173.966C33.5715 175.451 34.8038 176.797 36.1896 177.974C36.8303 178.535 37.4901 179.077 38.1532 179.615C38.8963 180.221 39.7547 180.802 40.7701 180.635C41.0788 180.588 41.3703 180.463 41.6166 180.271C41.8628 180.079 42.0556 179.827 42.1763 179.538C42.8169 178.897 43.6369 178.16 43.7971 177.294C43.9348 177.22 44.0662 177.143 44.1174 177.121C44.6274 176.808 44.9942 176.307 45.1392 175.726C45.1392 175.726 45.1392 175.707 45.1392 175.691C45.2449 175.643 45.3506 175.582 45.3795 175.569C45.9413 175.311 46.3948 174.864 46.6607 174.306C46.7386 174.129 46.8049 173.946 46.8593 173.761C47.0693 173.68 47.2719 173.582 47.4647 173.466C47.9345 173.126 48.2969 172.659 48.5089 172.119C48.5604 171.923 48.6246 171.73 48.7011 171.542C49.0214 171.029 48.7171 171.481 49.1143 171.183C49.6159 170.85 50.0239 170.394 50.2995 169.859C50.4981 169.461 50.5269 168.897 50.7864 168.538C51.0458 168.179 51.6224 168.012 51.9331 167.685C52.1423 167.473 52.3154 167.228 52.4456 166.96C52.5577 166.716 52.5449 166.319 52.6794 166.101C52.9325 165.726 53.5347 165.437 53.8486 165.075C54.6494 164.151 55.2836 163.026 55.9531 161.997C56.2289 161.846 56.4481 161.61 56.5777 161.323C56.7513 160.927 56.7642 160.479 56.6135 160.073C56.4629 159.667 56.1606 159.336 55.7705 159.15ZM5.42019 135.195C5.63801 134.936 5.89426 134.711 6.10247 134.442L6.2338 134.272L8.21334 135.846C7.99873 136.1 7.80013 136.363 7.58873 136.616C6.90238 136.089 6.1775 135.614 5.42019 135.195ZM15.8144 152.644C12.7042 149.342 9.67718 145.969 6.80716 142.49C9.13905 139.876 11.3813 137.193 13.5338 134.442C18.2168 137.084 22.7941 139.973 27.3073 142.977C24.5049 147.257 20.5086 150.618 15.8144 152.644ZM51.4558 162.83C51.0618 163.283 50.5109 163.549 50.1169 164.01C49.9081 164.252 49.7413 164.528 49.6236 164.825C49.55 165.014 49.5628 165.389 49.4603 165.546C49.5788 165.36 49.14 165.69 49.0791 165.729C48.8212 165.9 48.5837 166.1 48.3712 166.325C48.0191 166.753 47.7566 167.247 47.5992 167.778C47.4006 168.355 47.4103 168.348 46.9138 168.679C46.4107 169.01 46.0189 169.484 45.7895 170.041C45.7094 170.221 45.6838 170.439 45.5877 170.609C45.4499 170.862 45.7895 170.609 45.341 170.821C44.7403 171.061 44.2466 171.511 43.9509 172.087C43.8584 172.273 43.7916 172.47 43.7523 172.674C43.2837 172.838 42.8656 173.121 42.5383 173.495C42.3195 173.743 42.1684 174.043 42.0994 174.367C42.0918 174.406 42.0822 174.444 42.0706 174.482C41.568 174.674 41.1447 175.03 40.8694 175.492C40.73 175.745 40.6459 176.025 40.6228 176.313V176.448C40.5235 176.547 40.3025 176.768 40.0975 176.983L39.7932 176.736C39.1974 176.249 38.608 175.774 38.0346 175.245C37.4613 174.716 36.9616 174.248 36.4587 173.713L36.2409 173.459C36.1928 173.405 36.1448 173.347 36.0999 173.289C40.8498 168.656 45.2341 163.662 49.2136 158.351C49.7197 158.755 50.213 159.178 50.7095 159.599C51.3414 160.133 51.9999 160.635 52.6826 161.102C52.3165 161.708 51.9065 162.285 51.4558 162.83Z" fill="black"/>
<path d="M80.2841 7.8069C80.2604 7.64531 80.2604 7.48112 80.2841 7.31954C80.4436 6.66185 80.7029 6.03252 81.0529 5.45348V5.43745C81.0529 5.4118 81.0849 5.39898 81.0977 5.37333C82.9844 2.22796 87.2414 0.583136 90.6591 0.137462C92.8333 -0.153476 95.0443 0.0185975 97.1474 0.642414C99.2506 1.26623 101.198 2.32772 102.863 3.75736C106.435 6.81615 107.876 11.0965 108.177 15.6783C108.449 19.8465 108.264 24.8707 104.064 27.0574C101.124 28.59 97.3377 28.8978 93.8975 28.1957C90.7936 28.0899 87.4207 27.6762 85.0152 25.589C83.6923 24.4411 82.773 22.7867 81.8921 21.2989C80.9568 19.815 80.2819 18.1819 79.8965 16.4703C79.3436 13.5921 79.4763 10.624 80.2841 7.8069Z" fill="white"/>
<path d="M63.0705 6.54995C65.9533 3.98492 70.0854 3.89194 73.4999 5.39248C77.3437 7.07898 80.4732 10.4776 82.9236 13.809C84.3385 15.7826 85.5481 17.8958 86.5335 20.1157L87.1133 19.0897C87.7539 17.9643 88.3177 16.762 89.301 15.8834C89.8282 15.4371 90.4634 15.1375 91.1429 15.0145C92.69 14.3508 94.5991 14.5144 95.8803 15.675C96.189 15.9273 96.3956 16.2833 96.4616 16.6768C96.5276 17.0702 96.4485 17.4742 96.2391 17.8136C95.7874 18.5575 94.993 18.7082 94.2051 18.4709L94.1282 18.4485L93.968 18.4036C93.7844 18.3523 93.6018 18.3074 93.4203 18.2689C93.2121 18.224 93.0103 18.1856 92.8021 18.1599C92.7188 18.1599 92.6387 18.1375 92.5554 18.131H92.4722C92.4465 18.131 92.2704 18.131 92.2511 18.131H92.2255L92.139 18.192C92.0942 18.2529 92.0301 18.317 91.9885 18.3715C91.7348 18.6781 91.3763 18.8792 90.9827 18.9358C90.9379 18.9967 90.893 19.0545 90.8514 19.1154C90.7937 19.2212 90.7329 19.327 90.672 19.436L89.8936 20.7666L89.3107 21.799C89.6851 21.6893 90.0871 21.7255 90.4359 21.9004C90.7847 22.0753 91.0545 22.3758 91.1909 22.7417L91.7386 24.2679C91.8508 24.5083 91.9244 24.6751 91.9757 24.8033C92.3793 24.8546 93.0712 24.659 93.4331 24.6655C94.7712 24.6859 96.0866 25.0151 97.2769 25.6273C98.3152 26.1552 99.2308 26.8959 99.9643 27.8013C100.698 28.7067 101.233 29.7565 101.534 30.8824C102.591 35.0057 99.9323 41.5241 94.8265 40.8219C94.4626 40.7476 94.1042 40.649 93.7534 40.527C91.8315 40.1614 89.8456 38.8276 88.2536 38.0645C85.2971 36.6441 82.3726 35.1564 79.5122 33.5469C76.0349 31.5937 72.688 29.4163 69.4928 27.0285C67.1417 25.839 65.0084 24.3769 63.5734 22.0812C63.523 21.9549 63.4906 21.8221 63.4773 21.6868C63.2979 21.4976 63.1153 21.3149 62.9392 21.1225C61.8309 19.8977 60.6169 18.5767 60.146 17.0569C59.8935 16.8075 59.7399 16.4749 59.7136 16.1207C59.4029 12.6579 60.3766 8.94183 63.0705 6.54995Z" fill="white"/>
<path d="M59.5822 16.2555C59.6815 16.8743 60.1043 17.4097 60.4278 17.9324L61.1389 19.0962L62.5675 21.4144L62.7725 21.735C62.8004 21.9993 62.8871 22.254 63.0263 22.4804C63.1654 22.7068 63.3534 22.8991 63.5765 23.0432C63.3587 23.7678 63.7078 24.781 64.467 24.999C65.1189 25.2096 65.8083 25.2782 66.489 25.2003C67.1696 25.1223 67.8257 24.8995 68.4133 24.5469C68.6196 24.4034 68.7876 24.2114 68.9026 23.9879C69.0176 23.7643 69.0762 23.5159 69.0731 23.2644C69.0729 23.0205 69.0198 22.7795 68.9175 22.558C68.8152 22.3366 68.6661 22.1401 68.4805 21.9819L68.4004 21.9017L68.2819 21.7639C68.2051 21.6677 68.1378 21.5683 68.0641 21.4721C68.3847 21.0439 68.6038 20.5483 68.7047 20.0229C68.7598 19.6335 68.7145 19.2364 68.5733 18.8695C68.432 18.5025 68.1994 18.1777 67.8975 17.9259C67.6576 17.7374 67.3881 17.5901 67.1 17.4899L67.0551 17.4707C67.0551 17.3777 67.0551 17.3328 67.0551 17.4707C67.0872 16.3068 67.084 15.0339 65.95 14.3477C65.6649 14.1627 65.3399 14.0481 65.0018 14.0135C64.6638 13.979 64.3223 14.0254 64.0057 14.1489C63.6822 14.297 63.3839 14.495 63.1217 14.7357L63.1024 14.7165C62.9048 14.5136 62.6727 14.3475 62.417 14.2259C60.9948 13.5526 59.3355 14.694 59.5822 16.2555Z" fill="#00A99D"/>
<path d="M88.702 19.4167C89.0159 18.319 89.4759 17.2686 90.0698 16.2938C90.4574 15.6525 90.8962 15.085 91.697 15.0914C92.6291 15.0914 93.5868 15.4858 94.4389 15.8353C94.9917 16.0712 95.527 16.3466 96.0404 16.6593C93.369 16.8741 90.6111 17.6308 88.702 19.4167ZM73.5287 28.6604C72.2475 27.9326 70.8893 27.1599 69.56 26.3231C69.9763 26.1767 70.3564 25.9427 70.6747 25.6369C71.6357 24.659 71.956 23.12 71.1039 21.9657C70.7816 21.5674 70.3977 21.2231 69.9668 20.9461L69.8323 20.8563C69.9732 20.6864 70.3256 20.1189 70.4409 19.9393C70.7731 19.4798 70.9494 18.9258 70.9438 18.3586C70.9151 17.9946 70.7972 17.6432 70.6005 17.3356C70.4039 17.0281 70.1345 16.7737 69.8163 16.5952C69.3765 16.3761 68.9148 16.2042 68.4389 16.0822C68.4389 15.9956 68.4389 15.9026 68.4389 15.877C68.4613 15.5018 68.5382 15.1299 68.551 14.7548C68.5959 13.5909 68.0513 12.4719 66.911 12.0551C65.7707 11.6383 64.6688 12.0904 63.6662 12.5745C63.2786 12.7605 63.0256 12.8759 62.7533 12.722C62.2568 12.4495 61.7924 12.1641 61.2126 12.1481C60.9377 12.163 60.6691 12.2362 60.4246 12.3629C60.5862 11.2154 60.9861 10.1144 61.5985 9.13092C62.2108 8.14743 63.0221 7.30317 63.9801 6.65249C66.6772 4.80247 69.8003 4.93072 72.7632 6.07857C78.2309 8.19792 82.0939 13.2927 83.9229 18.7274C83.9389 18.769 83.971 18.7915 83.987 18.83C84.003 18.8684 84.0254 18.9807 84.0543 19.0576C84.0564 19.066 84.0564 19.0748 84.0543 19.0833C84.0863 19.1602 84.1151 19.234 84.1439 19.3109C84.1728 19.3879 84.2368 19.545 84.2817 19.6636C84.3842 19.9393 84.4835 20.2151 84.5796 20.494C84.7654 21.0284 84.9383 21.5628 85.0985 22.0972C85.4252 23.2023 85.6975 24.3223 85.9153 25.4574C86.0626 26.214 86.8955 26.5924 87.5873 26.4481C87.8615 26.3791 88.1063 26.2237 88.2857 26.005C88.465 25.7862 88.5694 25.5156 88.5835 25.2329C88.7469 24.9123 88.9038 24.5917 89.0768 24.2486C89.2018 24.0402 89.2692 23.8023 89.2722 23.5592C89.2722 23.4823 89.2562 23.4053 89.2466 23.3252C89.2602 23.3121 89.2731 23.2982 89.285 23.2835C89.5492 23.5314 89.7984 23.7947 90.0313 24.0722C90.1966 24.3061 90.3393 24.5552 90.4574 24.8161C90.4798 24.8898 90.5086 24.9572 90.5278 25.0309C90.6218 25.3759 90.8411 25.6732 91.1428 25.8646C91.4607 26.0545 91.8406 26.1109 92.1999 26.0217C92.2351 26.0217 92.2639 25.9832 92.2992 25.9736C92.3982 25.9833 92.498 25.9833 92.5971 25.9736C94.6631 25.6305 96.9662 26.7238 98.5869 27.9647C100.208 29.2055 100.381 31.2479 100.189 33.1396C99.8426 36.4934 97.184 40.1934 93.3946 39.5201C91.4727 39.1995 89.6886 37.8176 88.0326 36.8781L83.3912 34.2458L73.5287 28.6604ZM60.5848 15.5692C60.8166 15.5785 61.0469 15.5289 61.2543 15.4249C61.3565 15.3588 61.4492 15.279 61.5297 15.1876L61.613 15.2325C62.1048 15.4917 62.661 15.603 63.2146 15.5531C63.8066 15.4744 64.3802 15.2921 64.9091 15.0145C65.1882 14.862 65.4852 14.7446 65.7931 14.665C65.7931 14.774 65.7931 14.8798 65.7771 14.9856C65.713 15.6557 65.6041 16.3066 65.7931 16.9703C66.0686 17.9514 66.8854 18.5254 67.8303 18.7851H67.8688C67.8207 18.8492 67.7727 18.9133 67.7278 18.9807C67.2057 19.7085 66.8534 20.5485 67.0584 21.4559C67.2506 22.3056 67.9008 22.8474 68.5767 23.3252C68.6537 23.3964 68.735 23.4627 68.8201 23.524C68.7913 23.5943 68.745 23.6561 68.6856 23.7035C68.314 24.0241 67.4043 23.8863 66.847 23.8125C66.6236 23.7863 66.398 23.836 66.2063 23.9536C63.4901 21.7733 61.2895 19.0961 60.5848 15.5692ZM58.5508 18.4741C61.7828 26.7206 71.325 30.5682 78.4808 34.6305L85.438 38.5775C87.3919 39.6868 89.333 41.0175 91.4407 41.8126C94.8168 43.0951 98.5581 41.8126 100.749 38.9975C102.991 36.1407 103.888 31.3024 102.142 27.9711C100.525 24.8963 96.1974 23.0591 92.7508 23.2578C92.2856 22.4429 91.6942 21.707 90.9987 21.0776C92.0933 20.2808 93.3613 19.7555 94.6983 19.545C95.8771 19.343 97.0815 19.4456 98.2538 19.2532C99.5767 19.0384 100.672 17.7623 99.9995 16.4124C99.4742 15.3608 98.1289 14.6554 97.1359 14.1103C96.0592 13.5106 94.9194 13.0321 93.7374 12.6835C92.4369 12.3052 91.0307 12.1609 89.7783 12.7861C88.7405 13.3055 88.0262 14.3059 87.472 15.2966C87.0615 16.0496 86.7123 16.8345 86.4278 17.6436C83.7692 10.1377 77.1387 2.45547 68.5799 2.41699C64.9795 2.41699 61.5714 4.34076 59.5086 7.25528C57.1799 10.5417 57.1126 14.8125 58.5508 18.4741Z" fill="black"/>
<path d="M85.7583 31.6877C85.9552 31.3851 86.2599 31.1689 86.6104 31.0831C86.9608 30.9974 87.3308 31.0484 87.645 31.226C90.1156 32.3342 92.8271 32.7954 95.5247 32.5662C96.2422 32.5117 96.9181 33.2716 96.8732 33.9642C96.8569 34.3252 96.703 34.6662 96.4433 34.9173C96.1836 35.1683 95.8377 35.3103 95.4767 35.314C92.2932 35.5318 89.1069 34.9325 86.2196 33.573C85.5629 33.2748 85.3803 32.2424 85.7583 31.6877Z" fill="black"/>
</svg>
