<svg width="178" height="43" viewBox="0 0 178 43" fill="none" xmlns="http://www.w3.org/2000/svg">
<mask id="path-1-outside-1_522_6642" maskUnits="userSpaceOnUse" x="0" y="10" width="126" height="21" fill="black">
<rect fill="white" y="10" width="126" height="21"/>
<path d="M9.89011 14.1833C9.80166 14.296 9.6358 14.3861 9.39253 14.4537C9.17139 14.4987 8.93918 14.4311 8.69592 14.2509C8.519 14.1157 8.30891 13.9805 8.06565 13.8453C7.82239 13.6876 7.55701 13.5412 7.26952 13.406C6.98203 13.2708 6.69454 13.1581 6.40705 13.068C6.11956 12.9779 5.84312 12.9328 5.57775 12.9328C5.24603 12.9328 4.89219 13.0117 4.51624 13.1694C4.1624 13.3271 3.8528 13.5524 3.58742 13.8453C3.07878 14.4086 2.89081 14.9606 3.0235 15.5014C3.1783 16.0196 3.56531 16.504 4.18452 16.9546C4.58258 17.2475 5.01382 17.5517 5.47823 17.8671C5.94264 18.16 6.39599 18.4529 6.83828 18.7458C7.30269 19.0387 7.73393 19.3203 8.132 19.5907C8.55218 19.8611 8.91707 20.0977 9.22667 20.3004C9.62474 20.5708 10.0007 20.8637 10.3545 21.1791C10.7084 21.4946 11.018 21.8551 11.2833 22.2606C11.5487 22.6437 11.7588 23.083 11.9136 23.5787C12.0684 24.0744 12.1458 24.6376 12.1458 25.2685C11.991 26.5077 11.5045 27.4991 10.6862 28.2426C9.89012 28.9636 8.9613 29.4255 7.89979 29.6282C6.97097 29.8085 6.05321 29.7747 5.14651 29.5268C4.26192 29.279 3.51002 28.8059 2.89081 28.1074C2.73601 27.9272 2.60332 27.6793 2.49274 27.3639C2.38217 27.0484 2.37111 26.8231 2.45957 26.688C2.59226 26.4852 2.82446 26.35 3.15618 26.2824C3.48791 26.1923 3.74222 26.2035 3.91914 26.3162C4.42778 26.7893 5.02488 27.1386 5.71043 27.3639C6.39599 27.5667 7.11472 27.5779 7.86662 27.3977C8.4416 27.2625 8.90601 27.0147 9.25985 26.6542C9.61368 26.2711 9.83483 25.843 9.92329 25.3699C10.0339 24.8742 9.96752 24.3673 9.72425 23.8491C9.50311 23.3083 9.09399 22.8239 8.49689 22.3958C7.59019 21.6974 6.61714 21.044 5.57775 20.4356C4.56047 19.8273 3.52108 19.1288 2.45957 18.3403C1.95093 17.8896 1.57498 17.394 1.33172 16.8532C1.11057 16.3125 1 15.783 1 15.2648C1 14.724 1.11057 14.2171 1.33172 13.7439C1.55287 13.2483 1.86247 12.8089 2.26054 12.4259C2.6586 12.0203 3.12301 11.6936 3.65377 11.4458C4.18452 11.198 4.77056 11.0515 5.41189 11.0064C6.29647 10.9614 7.14789 11.1529 7.96614 11.581C8.78438 11.9865 9.44782 12.4935 9.95646 13.1018C10.067 13.237 10.1113 13.406 10.0891 13.6088C10.0891 13.8115 10.0228 14.003 9.89011 14.1833Z"/>
<path d="M16.7705 13.6088C16.7705 14.1495 16.7594 14.7578 16.7373 15.4338C16.7373 16.1097 16.7373 16.8081 16.7373 17.5291C16.7594 18.2501 16.7705 18.9936 16.7705 19.7597C16.7926 20.5257 16.8147 21.258 16.8368 21.9565C17.058 21.5058 17.3233 21.0665 17.6329 20.6384C17.9425 20.1878 18.2853 19.7935 18.6613 19.4555C19.0593 19.1176 19.4685 18.8472 19.8886 18.6444C20.3309 18.4416 20.8064 18.3403 21.315 18.3403C21.8679 18.3403 22.3544 18.5205 22.7746 18.881C23.2169 19.2415 23.5929 19.7259 23.9025 20.3342C24.2342 20.92 24.5106 21.5847 24.7318 22.3282C24.9529 23.0492 25.1298 23.7927 25.2625 24.5588C25.4173 25.3023 25.5279 26.0233 25.5942 26.7218C25.6606 27.3977 25.7159 27.9835 25.7601 28.4792C25.7601 28.8397 25.6716 29.1326 25.4947 29.3579C25.3178 29.5832 25.1077 29.6958 24.8645 29.6958C24.6875 29.6958 24.4664 29.5832 24.201 29.3579C23.9578 29.11 23.7808 28.8171 23.6703 28.4792C23.6039 28.2088 23.5376 27.8145 23.4712 27.2963C23.4049 26.7781 23.3275 26.2261 23.239 25.6403C23.1506 25.0319 23.04 24.4236 22.9073 23.8153C22.7746 23.2069 22.6088 22.6662 22.4097 22.193C22.2328 21.6974 22.0117 21.3143 21.7463 21.044C21.4809 20.7736 21.1713 20.6722 20.8175 20.7398C20.2646 20.8524 19.7781 21.2467 19.3579 21.9227C18.9598 22.5986 18.606 23.3646 18.2964 24.2208C18.0089 25.077 17.7656 25.9444 17.5666 26.8231C17.3897 27.7018 17.257 28.4116 17.1685 28.9523C17.0801 29.3579 16.9584 29.6395 16.8036 29.7972C16.671 29.9324 16.5162 30 16.3392 30C16.1623 30 15.9965 29.9099 15.8417 29.7296C15.709 29.5494 15.5763 29.3353 15.4436 29.0875C15.333 28.8171 15.2335 28.5468 15.145 28.2764C15.0566 27.9835 15.0013 27.7356 14.9792 27.5329C14.8686 26.3162 14.7801 25.1559 14.7138 24.0518C14.6475 22.9253 14.5922 21.7987 14.5479 20.6722C14.5258 19.5457 14.5148 18.3966 14.5148 17.225C14.5148 16.0308 14.5369 14.7578 14.5811 13.406C14.5811 12.2794 14.9792 11.7725 15.7753 11.8851C16.0407 11.9302 16.2729 12.133 16.4719 12.4935C16.671 12.8314 16.7705 13.2032 16.7705 13.6088Z"/>
<path d="M35.7809 16.7856C36.4444 17.0335 36.9972 17.4052 37.4395 17.9009C37.9039 18.3966 38.2578 18.9599 38.501 19.5907C38.7443 20.1991 38.877 20.8299 38.8991 21.4833C38.9433 22.1367 38.877 22.745 38.7001 23.3083C38.4568 23.9392 38.1472 24.5588 37.7712 25.1671C37.3953 25.7755 36.9641 26.3162 36.4775 26.7893C35.991 27.2625 35.4381 27.6455 34.8189 27.9384C34.1997 28.2313 33.5142 28.3778 32.7623 28.3778C31.8556 28.3778 31.0926 28.1637 30.4734 27.7356C29.8542 27.3076 29.3676 26.7555 29.0138 26.0796C28.66 25.4037 28.4278 24.6376 28.3172 23.7815C28.2287 22.9253 28.2509 22.0691 28.3835 21.2129C28.472 20.5821 28.6157 19.9737 28.8148 19.3879C29.0359 18.7796 29.3124 18.2501 29.6441 17.7995C29.9758 17.3264 30.3518 16.9433 30.7719 16.6504C31.2142 16.3575 31.7118 16.2111 32.2647 16.2111C32.5743 16.2111 32.9613 16.2787 33.4257 16.4139C33.8901 16.5265 34.3213 16.6955 34.7194 16.9208C35.0069 16.6504 35.3607 16.6054 35.7809 16.7856ZM34.5204 19.2528C34.2771 19.095 33.9896 18.8923 33.6579 18.6444C33.3483 18.374 33.0719 18.2389 32.8286 18.2389C32.5632 18.2389 32.2978 18.3628 32.0325 18.6106C31.7892 18.8585 31.5681 19.1514 31.369 19.4893C31.1921 19.8048 31.0373 20.1315 30.9046 20.4694C30.7719 20.8074 30.6835 21.0778 30.6392 21.2805C30.5729 21.6185 30.5287 22.0241 30.5066 22.4972C30.4844 22.9704 30.5176 23.4435 30.6061 23.9167C30.6945 24.3673 30.8604 24.7841 31.1037 25.1671C31.369 25.5276 31.756 25.7867 32.2647 25.9444C32.5743 26.0346 32.9392 26.0346 33.3594 25.9444C33.7795 25.8318 34.1887 25.6403 34.5867 25.3699C35.0069 25.0995 35.3939 24.739 35.7477 24.2884C36.1237 23.8378 36.4112 23.3196 36.6102 22.7338C36.8314 22.0804 36.8314 21.4045 36.6102 20.706C36.4112 19.985 35.991 19.4668 35.3497 19.1514C35.1949 19.264 35.0401 19.3203 34.8853 19.3203C34.7305 19.3203 34.6088 19.2978 34.5204 19.2528Z"/>
<path d="M53.372 27.8032C53.195 28.0511 52.996 28.2201 52.7749 28.3102C52.5537 28.3778 52.3547 28.4116 52.1778 28.4116C51.8682 28.389 51.5807 28.2876 51.3153 28.1074C51.0499 27.9046 50.8841 27.7018 50.8177 27.4991C50.685 27.116 50.5413 26.688 50.3865 26.2148C50.2317 25.7417 50.0769 25.2685 49.9221 24.7954C49.7894 24.2997 49.6456 23.8265 49.4908 23.3759C49.336 22.9028 49.1923 22.4747 49.0596 22.0916C48.6173 22.8802 48.1971 23.6801 47.7991 24.4912C47.401 25.2798 46.9587 26.1021 46.4722 26.9583C46.251 27.2963 45.9967 27.5329 45.7092 27.668C45.4217 27.7807 45.1785 27.8258 44.9794 27.8032C44.6919 27.7807 44.4266 27.6681 44.1833 27.4653C43.9622 27.2625 43.7852 27.071 43.6525 26.8907C43.4093 26.4852 43.166 25.967 42.9228 25.3361C42.6795 24.6827 42.4473 24.0068 42.2261 23.3083C42.0271 22.5873 41.8391 21.8776 41.6622 21.1791C41.4853 20.4582 41.3416 19.816 41.231 19.2528C41.1646 18.8697 41.1646 18.5092 41.231 18.1713C41.3194 17.8333 41.5185 17.6418 41.8281 17.5967C42.204 17.5742 42.5468 17.7094 42.8564 18.0023C43.166 18.2727 43.3429 18.543 43.3872 18.8134C43.4756 19.264 43.5751 19.7597 43.6857 20.3004C43.8184 20.8187 43.9511 21.3481 44.0838 21.8889C44.2386 22.4296 44.3823 22.9591 44.515 23.4773C44.6698 23.9955 44.8246 24.4574 44.9794 24.8629C45.3111 24.3222 45.676 23.7026 46.0741 23.0041C46.4943 22.2832 46.8923 21.596 47.2683 20.9426C47.6442 20.2666 47.987 19.6808 48.2966 19.1852C48.6062 18.6895 48.8495 18.3853 49.0264 18.2727C49.1591 18.1825 49.3471 18.1938 49.5903 18.3065C49.8336 18.3966 50.0105 18.5318 50.1211 18.712C50.6076 19.7034 51.0057 20.7961 51.3153 21.9903C51.647 23.1619 51.9677 24.2546 52.2773 25.2685C52.5869 24.8629 52.9186 24.3335 53.2724 23.6801C53.6263 23.0042 53.9691 22.2944 54.3008 21.5509C54.6325 20.8074 54.9421 20.0639 55.2296 19.3203C55.5171 18.5768 55.7493 17.9122 55.9262 17.3264C56.1031 16.718 56.3464 16.4251 56.656 16.4477C57.0541 16.4927 57.3968 16.6279 57.6843 16.8532C57.9718 17.0785 58.0824 17.3151 58.0161 17.5629C57.5295 19.5457 56.8993 21.3707 56.1252 23.0379C55.3512 24.6827 54.4335 26.2711 53.372 27.8032Z"/>
<path d="M71.7039 17.6643C71.7261 18.0248 71.7592 18.4754 71.8035 19.0162C71.8698 19.5344 71.9361 20.0864 72.0025 20.6722C72.0688 21.2355 72.1352 21.7987 72.2015 22.362C72.29 22.9253 72.3674 23.4435 72.4337 23.9167C72.677 23.421 72.9755 22.8126 73.3294 22.0916C73.6832 21.3707 74.0481 20.6835 74.424 20.0301C74.8221 19.3541 75.2202 18.7909 75.6182 18.3403C76.0384 17.8671 76.4144 17.6305 76.7461 17.6305C77.0999 17.6305 77.4206 17.8108 77.7081 18.1713C78.0177 18.5092 78.2831 18.9261 78.5042 19.4217C78.7254 19.9174 78.9133 20.4469 79.0681 21.0102C79.245 21.5734 79.3888 22.0691 79.4994 22.4972C79.5878 22.2043 79.6984 21.8776 79.8311 21.5171C79.9859 21.1341 80.1407 20.7511 80.2955 20.368C80.4724 19.9625 80.6604 19.5682 80.8594 19.1852C81.0806 18.8021 81.3128 18.4642 81.556 18.1713C81.8435 17.8558 82.1531 17.6305 82.4849 17.4953C82.8166 17.3376 83.0598 17.2588 83.2146 17.2588C83.4137 17.2588 83.6459 17.3264 83.9113 17.4615C84.1988 17.5742 84.4862 17.7319 84.7737 17.9347C85.0612 18.1375 85.3266 18.3853 85.5699 18.6782C85.8352 18.9486 86.0453 19.2302 86.2001 19.5231C86.5097 20.1315 86.753 20.7961 86.9299 21.5171C87.129 22.2381 87.2727 22.9253 87.3612 23.5787C87.4496 24.2321 87.5049 24.8179 87.527 25.3361C87.5712 25.8318 87.6044 26.181 87.6265 26.3838C87.6265 26.6767 87.5934 26.902 87.527 27.0597C87.4607 27.1949 87.339 27.3076 87.1621 27.3977C86.9189 27.5103 86.7088 27.5554 86.5319 27.5329C86.3549 27.4878 86.2112 27.4089 86.1006 27.2963C85.99 27.1836 85.9016 27.0597 85.8352 26.9245C85.7689 26.7668 85.7247 26.6316 85.7025 26.519C85.6362 26.0008 85.5588 25.4713 85.4703 24.9305C85.404 24.3898 85.3266 23.8716 85.2381 23.3759C85.1497 22.8577 85.0391 22.3846 84.9064 21.9565C84.7958 21.5058 84.6742 21.1116 84.5415 20.7736C84.4973 20.6835 84.4199 20.5708 84.3093 20.4356C84.2209 20.2779 84.1103 20.1315 83.9776 19.9963C83.867 19.8611 83.7565 19.7484 83.6459 19.6583C83.5353 19.5682 83.4579 19.5119 83.4137 19.4893C83.1925 19.4893 82.9603 19.7034 82.7171 20.1315C82.4738 20.537 82.2416 21.0327 82.0205 21.6185C81.7993 22.2043 81.5892 22.8239 81.3902 23.4773C81.2133 24.1082 81.0806 24.6489 80.9921 25.0995C80.9921 25.6853 80.8815 26.1247 80.6604 26.4176C80.4393 26.688 80.207 26.8231 79.9638 26.8231C79.7205 26.8231 79.4551 26.733 79.1677 26.5528C78.9023 26.35 78.7254 26.1247 78.6369 25.8768C78.5042 25.5163 78.3605 25.1108 78.2057 24.6602C78.0509 24.2096 77.885 23.7477 77.7081 23.2745C77.5533 22.8014 77.3874 22.3395 77.2105 21.8889C77.0557 21.4383 76.9009 21.0327 76.7461 20.6722C76.4365 21.1003 76.1269 21.5734 75.8173 22.0916C75.5298 22.6099 75.2423 23.1393 74.9548 23.6801C74.6894 24.2208 74.424 24.7616 74.1587 25.3023C73.9154 25.8205 73.6832 26.2824 73.4621 26.688C73.3073 26.9358 73.1414 27.1611 72.9645 27.3639C72.7876 27.5441 72.5775 27.6343 72.3342 27.6343C72.1573 27.6343 71.9693 27.5554 71.7703 27.3977C71.5713 27.2174 71.3833 27.0034 71.2064 26.7555C71.0294 26.5077 70.8636 26.2261 70.7088 25.9106C70.5761 25.5952 70.4766 25.2798 70.4102 24.9643C70.2333 23.9955 70.0785 22.9366 69.9458 21.7875C69.8352 20.6159 69.7247 19.4781 69.6141 18.374C69.592 17.991 69.6362 17.6418 69.7468 17.3264C69.8795 16.9884 70.1227 16.7631 70.4766 16.6504C70.8525 16.5828 71.14 16.6392 71.339 16.8194C71.5381 16.9997 71.6597 17.2813 71.7039 17.6643Z"/>
<path d="M97.9462 16.7856C98.6096 17.0335 99.1625 17.4052 99.6048 17.9009C100.069 18.3966 100.423 18.9599 100.666 19.5907C100.91 20.1991 101.042 20.8299 101.064 21.4833C101.109 22.1367 101.042 22.745 100.865 23.3083C100.622 23.9392 100.312 24.5588 99.9365 25.1671C99.5605 25.7755 99.1293 26.3162 98.6428 26.7893C98.1562 27.2625 97.6034 27.6455 96.9842 27.9384C96.365 28.2313 95.6794 28.3778 94.9275 28.3778C94.0208 28.3778 93.2578 28.1637 92.6386 27.7356C92.0194 27.3076 91.5329 26.7555 91.1791 26.0796C90.8252 25.4037 90.593 24.6376 90.4824 23.7815C90.394 22.9253 90.4161 22.0691 90.5488 21.2129C90.6372 20.5821 90.781 19.9737 90.98 19.3879C91.2012 18.7796 91.4776 18.2501 91.8093 17.7995C92.141 17.3264 92.517 16.9433 92.9372 16.6504C93.3795 16.3575 93.877 16.2111 94.4299 16.2111C94.7395 16.2111 95.1265 16.2787 95.5909 16.4139C96.0553 16.5265 96.4866 16.6955 96.8846 16.9208C97.1721 16.6504 97.526 16.6054 97.9462 16.7856ZM96.6856 19.2528C96.4424 19.095 96.1549 18.8923 95.8231 18.6444C95.5135 18.374 95.2371 18.2389 94.9938 18.2389C94.7285 18.2389 94.4631 18.3628 94.1977 18.6106C93.9544 18.8585 93.7333 19.1514 93.5343 19.4893C93.3574 19.8048 93.2025 20.1315 93.0699 20.4694C92.9372 20.8074 92.8487 21.0778 92.8045 21.2805C92.7381 21.6185 92.6939 22.0241 92.6718 22.4972C92.6497 22.9704 92.6829 23.4435 92.7713 23.9167C92.8598 24.3673 93.0256 24.7841 93.2689 25.1671C93.5343 25.5276 93.9213 25.7867 94.4299 25.9444C94.7395 26.0346 95.1044 26.0346 95.5246 25.9444C95.9448 25.8318 96.3539 25.6403 96.752 25.3699C97.1721 25.0995 97.5592 24.739 97.913 24.2884C98.2889 23.8378 98.5764 23.3196 98.7755 22.7338C98.9966 22.0804 98.9966 21.4045 98.7755 20.706C98.5764 19.985 98.1562 19.4668 97.5149 19.1514C97.3601 19.264 97.2053 19.3203 97.0505 19.3203C96.8957 19.3203 96.7741 19.2978 96.6856 19.2528Z"/>
<path d="M113.646 16.9208C113.248 17.1461 112.828 17.3827 112.386 17.6305C111.966 17.8784 111.534 18.1713 111.092 18.5092C110.672 18.8247 110.263 19.2077 109.865 19.6583C109.489 20.0864 109.146 20.6046 108.836 21.2129C108.394 22.0691 108.096 22.9478 107.941 23.8491C107.786 24.7278 107.686 25.5952 107.642 26.4514C107.642 26.8569 107.543 27.2738 107.344 27.7018C107.167 28.1074 106.912 28.3102 106.581 28.3102C106.161 28.3102 105.818 28.0961 105.552 27.668C105.309 27.2174 105.143 26.7893 105.055 26.3838C104.679 24.7841 104.369 23.2069 104.126 21.6523C103.883 20.0751 103.673 18.5092 103.496 16.9546C103.496 16.6392 103.584 16.4364 103.761 16.3463C103.96 16.2561 104.181 16.2223 104.425 16.2449C104.69 16.2674 104.944 16.335 105.188 16.4477C105.431 16.5603 105.575 16.7406 105.619 16.9884C105.707 17.822 105.818 18.7007 105.95 19.6245C106.083 20.5258 106.216 21.3031 106.349 21.9565C106.437 21.1904 106.68 20.4469 107.078 19.7259C107.476 19.0049 107.963 18.3515 108.538 17.7657C109.135 17.1799 109.798 16.6842 110.528 16.2787C111.28 15.8731 112.043 15.6027 112.817 15.4676C113.149 15.4225 113.425 15.4225 113.646 15.4676C113.868 15.5126 114.022 15.5915 114.111 15.7041C114.199 15.8168 114.21 15.997 114.144 16.2449C114.1 16.4927 113.934 16.718 113.646 16.9208Z"/>
<path d="M123.677 20.6384C122.814 21.1566 121.886 21.5622 120.89 21.8551C119.895 22.1254 118.823 22.2606 117.673 22.2606C117.717 23.0492 117.938 23.6801 118.336 24.1532C118.734 24.6038 119.232 24.8742 119.829 24.9643C120.183 25.0094 120.537 24.9981 120.89 24.9305C121.266 24.863 121.609 24.7616 121.919 24.6264C122.25 24.4687 122.549 24.2997 122.814 24.1194C123.08 23.9392 123.312 23.7589 123.511 23.5787C123.71 23.3984 123.92 23.2858 124.141 23.2407C124.362 23.1731 124.528 23.1619 124.639 23.2069C124.948 23.3196 125.059 23.6575 124.971 24.2208C124.617 24.9418 124.108 25.5614 123.445 26.0796C122.781 26.5753 122.04 26.8907 121.222 27.0259C120.514 27.1611 119.785 27.1273 119.033 26.9245C118.281 26.7218 117.606 26.3275 117.009 25.7417C116.501 25.2234 116.114 24.6151 115.848 23.9167C115.583 23.2182 115.417 22.4972 115.351 21.7537C115.284 21.0552 115.34 20.3906 115.516 19.7597C115.715 19.1288 116.014 18.5768 116.412 18.1037C116.81 17.608 117.308 17.2024 117.905 16.887C118.502 16.5716 119.199 16.3913 119.995 16.3463C120.946 16.2787 121.808 16.4589 122.582 16.887C123.356 17.3151 123.898 17.9122 124.208 18.6782C124.384 19.1063 124.429 19.4781 124.34 19.7935C124.274 20.1089 124.053 20.3906 123.677 20.6384ZM119.862 18.3403C119.641 18.3853 119.398 18.4642 119.132 18.5768C118.889 18.6895 118.657 18.8359 118.436 19.0162C118.237 19.1739 118.049 19.3654 117.872 19.5907C117.717 19.7935 117.628 20.0301 117.606 20.3004C117.982 20.3004 118.391 20.2666 118.834 20.1991C119.298 20.1315 119.74 20.0526 120.161 19.9625C120.603 19.8498 121.001 19.7259 121.355 19.5907C121.731 19.4555 122.04 19.3091 122.284 19.1514C122.107 18.7233 121.775 18.4642 121.288 18.374C120.824 18.2614 120.349 18.2501 119.862 18.3403Z"/>
</mask>
<path d="M9.89011 14.1833C9.80166 14.296 9.6358 14.3861 9.39253 14.4537C9.17139 14.4987 8.93918 14.4311 8.69592 14.2509C8.519 14.1157 8.30891 13.9805 8.06565 13.8453C7.82239 13.6876 7.55701 13.5412 7.26952 13.406C6.98203 13.2708 6.69454 13.1581 6.40705 13.068C6.11956 12.9779 5.84312 12.9328 5.57775 12.9328C5.24603 12.9328 4.89219 13.0117 4.51624 13.1694C4.1624 13.3271 3.8528 13.5524 3.58742 13.8453C3.07878 14.4086 2.89081 14.9606 3.0235 15.5014C3.1783 16.0196 3.56531 16.504 4.18452 16.9546C4.58258 17.2475 5.01382 17.5517 5.47823 17.8671C5.94264 18.16 6.39599 18.4529 6.83828 18.7458C7.30269 19.0387 7.73393 19.3203 8.132 19.5907C8.55218 19.8611 8.91707 20.0977 9.22667 20.3004C9.62474 20.5708 10.0007 20.8637 10.3545 21.1791C10.7084 21.4946 11.018 21.8551 11.2833 22.2606C11.5487 22.6437 11.7588 23.083 11.9136 23.5787C12.0684 24.0744 12.1458 24.6376 12.1458 25.2685C11.991 26.5077 11.5045 27.4991 10.6862 28.2426C9.89012 28.9636 8.9613 29.4255 7.89979 29.6282C6.97097 29.8085 6.05321 29.7747 5.14651 29.5268C4.26192 29.279 3.51002 28.8059 2.89081 28.1074C2.73601 27.9272 2.60332 27.6793 2.49274 27.3639C2.38217 27.0484 2.37111 26.8231 2.45957 26.688C2.59226 26.4852 2.82446 26.35 3.15618 26.2824C3.48791 26.1923 3.74222 26.2035 3.91914 26.3162C4.42778 26.7893 5.02488 27.1386 5.71043 27.3639C6.39599 27.5667 7.11472 27.5779 7.86662 27.3977C8.4416 27.2625 8.90601 27.0147 9.25985 26.6542C9.61368 26.2711 9.83483 25.843 9.92329 25.3699C10.0339 24.8742 9.96752 24.3673 9.72425 23.8491C9.50311 23.3083 9.09399 22.8239 8.49689 22.3958C7.59019 21.6974 6.61714 21.044 5.57775 20.4356C4.56047 19.8273 3.52108 19.1288 2.45957 18.3403C1.95093 17.8896 1.57498 17.394 1.33172 16.8532C1.11057 16.3125 1 15.783 1 15.2648C1 14.724 1.11057 14.2171 1.33172 13.7439C1.55287 13.2483 1.86247 12.8089 2.26054 12.4259C2.6586 12.0203 3.12301 11.6936 3.65377 11.4458C4.18452 11.198 4.77056 11.0515 5.41189 11.0064C6.29647 10.9614 7.14789 11.1529 7.96614 11.581C8.78438 11.9865 9.44782 12.4935 9.95646 13.1018C10.067 13.237 10.1113 13.406 10.0891 13.6088C10.0891 13.8115 10.0228 14.003 9.89011 14.1833Z" fill="black"/>
<path d="M16.7705 13.6088C16.7705 14.1495 16.7594 14.7578 16.7373 15.4338C16.7373 16.1097 16.7373 16.8081 16.7373 17.5291C16.7594 18.2501 16.7705 18.9936 16.7705 19.7597C16.7926 20.5257 16.8147 21.258 16.8368 21.9565C17.058 21.5058 17.3233 21.0665 17.6329 20.6384C17.9425 20.1878 18.2853 19.7935 18.6613 19.4555C19.0593 19.1176 19.4685 18.8472 19.8886 18.6444C20.3309 18.4416 20.8064 18.3403 21.315 18.3403C21.8679 18.3403 22.3544 18.5205 22.7746 18.881C23.2169 19.2415 23.5929 19.7259 23.9025 20.3342C24.2342 20.92 24.5106 21.5847 24.7318 22.3282C24.9529 23.0492 25.1298 23.7927 25.2625 24.5588C25.4173 25.3023 25.5279 26.0233 25.5942 26.7218C25.6606 27.3977 25.7159 27.9835 25.7601 28.4792C25.7601 28.8397 25.6716 29.1326 25.4947 29.3579C25.3178 29.5832 25.1077 29.6958 24.8645 29.6958C24.6875 29.6958 24.4664 29.5832 24.201 29.3579C23.9578 29.11 23.7808 28.8171 23.6703 28.4792C23.6039 28.2088 23.5376 27.8145 23.4712 27.2963C23.4049 26.7781 23.3275 26.2261 23.239 25.6403C23.1506 25.0319 23.04 24.4236 22.9073 23.8153C22.7746 23.2069 22.6088 22.6662 22.4097 22.193C22.2328 21.6974 22.0117 21.3143 21.7463 21.044C21.4809 20.7736 21.1713 20.6722 20.8175 20.7398C20.2646 20.8524 19.7781 21.2467 19.3579 21.9227C18.9598 22.5986 18.606 23.3646 18.2964 24.2208C18.0089 25.077 17.7656 25.9444 17.5666 26.8231C17.3897 27.7018 17.257 28.4116 17.1685 28.9523C17.0801 29.3579 16.9584 29.6395 16.8036 29.7972C16.671 29.9324 16.5162 30 16.3392 30C16.1623 30 15.9965 29.9099 15.8417 29.7296C15.709 29.5494 15.5763 29.3353 15.4436 29.0875C15.333 28.8171 15.2335 28.5468 15.145 28.2764C15.0566 27.9835 15.0013 27.7356 14.9792 27.5329C14.8686 26.3162 14.7801 25.1559 14.7138 24.0518C14.6475 22.9253 14.5922 21.7987 14.5479 20.6722C14.5258 19.5457 14.5148 18.3966 14.5148 17.225C14.5148 16.0308 14.5369 14.7578 14.5811 13.406C14.5811 12.2794 14.9792 11.7725 15.7753 11.8851C16.0407 11.9302 16.2729 12.133 16.4719 12.4935C16.671 12.8314 16.7705 13.2032 16.7705 13.6088Z" fill="black"/>
<path d="M35.7809 16.7856C36.4444 17.0335 36.9972 17.4052 37.4395 17.9009C37.9039 18.3966 38.2578 18.9599 38.501 19.5907C38.7443 20.1991 38.877 20.8299 38.8991 21.4833C38.9433 22.1367 38.877 22.745 38.7001 23.3083C38.4568 23.9392 38.1472 24.5588 37.7712 25.1671C37.3953 25.7755 36.9641 26.3162 36.4775 26.7893C35.991 27.2625 35.4381 27.6455 34.8189 27.9384C34.1997 28.2313 33.5142 28.3778 32.7623 28.3778C31.8556 28.3778 31.0926 28.1637 30.4734 27.7356C29.8542 27.3076 29.3676 26.7555 29.0138 26.0796C28.66 25.4037 28.4278 24.6376 28.3172 23.7815C28.2287 22.9253 28.2509 22.0691 28.3835 21.2129C28.472 20.5821 28.6157 19.9737 28.8148 19.3879C29.0359 18.7796 29.3124 18.2501 29.6441 17.7995C29.9758 17.3264 30.3518 16.9433 30.7719 16.6504C31.2142 16.3575 31.7118 16.2111 32.2647 16.2111C32.5743 16.2111 32.9613 16.2787 33.4257 16.4139C33.8901 16.5265 34.3213 16.6955 34.7194 16.9208C35.0069 16.6504 35.3607 16.6054 35.7809 16.7856ZM34.5204 19.2528C34.2771 19.095 33.9896 18.8923 33.6579 18.6444C33.3483 18.374 33.0719 18.2389 32.8286 18.2389C32.5632 18.2389 32.2978 18.3628 32.0325 18.6106C31.7892 18.8585 31.5681 19.1514 31.369 19.4893C31.1921 19.8048 31.0373 20.1315 30.9046 20.4694C30.7719 20.8074 30.6835 21.0778 30.6392 21.2805C30.5729 21.6185 30.5287 22.0241 30.5066 22.4972C30.4844 22.9704 30.5176 23.4435 30.6061 23.9167C30.6945 24.3673 30.8604 24.7841 31.1037 25.1671C31.369 25.5276 31.756 25.7867 32.2647 25.9444C32.5743 26.0346 32.9392 26.0346 33.3594 25.9444C33.7795 25.8318 34.1887 25.6403 34.5867 25.3699C35.0069 25.0995 35.3939 24.739 35.7477 24.2884C36.1237 23.8378 36.4112 23.3196 36.6102 22.7338C36.8314 22.0804 36.8314 21.4045 36.6102 20.706C36.4112 19.985 35.991 19.4668 35.3497 19.1514C35.1949 19.264 35.0401 19.3203 34.8853 19.3203C34.7305 19.3203 34.6088 19.2978 34.5204 19.2528Z" fill="black"/>
<path d="M53.372 27.8032C53.195 28.0511 52.996 28.2201 52.7749 28.3102C52.5537 28.3778 52.3547 28.4116 52.1778 28.4116C51.8682 28.389 51.5807 28.2876 51.3153 28.1074C51.0499 27.9046 50.8841 27.7018 50.8177 27.4991C50.685 27.116 50.5413 26.688 50.3865 26.2148C50.2317 25.7417 50.0769 25.2685 49.9221 24.7954C49.7894 24.2997 49.6456 23.8265 49.4908 23.3759C49.336 22.9028 49.1923 22.4747 49.0596 22.0916C48.6173 22.8802 48.1971 23.6801 47.7991 24.4912C47.401 25.2798 46.9587 26.1021 46.4722 26.9583C46.251 27.2963 45.9967 27.5329 45.7092 27.668C45.4217 27.7807 45.1785 27.8258 44.9794 27.8032C44.6919 27.7807 44.4266 27.6681 44.1833 27.4653C43.9622 27.2625 43.7852 27.071 43.6525 26.8907C43.4093 26.4852 43.166 25.967 42.9228 25.3361C42.6795 24.6827 42.4473 24.0068 42.2261 23.3083C42.0271 22.5873 41.8391 21.8776 41.6622 21.1791C41.4853 20.4582 41.3416 19.816 41.231 19.2528C41.1646 18.8697 41.1646 18.5092 41.231 18.1713C41.3194 17.8333 41.5185 17.6418 41.8281 17.5967C42.204 17.5742 42.5468 17.7094 42.8564 18.0023C43.166 18.2727 43.3429 18.543 43.3872 18.8134C43.4756 19.264 43.5751 19.7597 43.6857 20.3004C43.8184 20.8187 43.9511 21.3481 44.0838 21.8889C44.2386 22.4296 44.3823 22.9591 44.515 23.4773C44.6698 23.9955 44.8246 24.4574 44.9794 24.8629C45.3111 24.3222 45.676 23.7026 46.0741 23.0041C46.4943 22.2832 46.8923 21.596 47.2683 20.9426C47.6442 20.2666 47.987 19.6808 48.2966 19.1852C48.6062 18.6895 48.8495 18.3853 49.0264 18.2727C49.1591 18.1825 49.3471 18.1938 49.5903 18.3065C49.8336 18.3966 50.0105 18.5318 50.1211 18.712C50.6076 19.7034 51.0057 20.7961 51.3153 21.9903C51.647 23.1619 51.9677 24.2546 52.2773 25.2685C52.5869 24.8629 52.9186 24.3335 53.2724 23.6801C53.6263 23.0042 53.9691 22.2944 54.3008 21.5509C54.6325 20.8074 54.9421 20.0639 55.2296 19.3203C55.5171 18.5768 55.7493 17.9122 55.9262 17.3264C56.1031 16.718 56.3464 16.4251 56.656 16.4477C57.0541 16.4927 57.3968 16.6279 57.6843 16.8532C57.9718 17.0785 58.0824 17.3151 58.0161 17.5629C57.5295 19.5457 56.8993 21.3707 56.1252 23.0379C55.3512 24.6827 54.4335 26.2711 53.372 27.8032Z" fill="black"/>
<path d="M71.7039 17.6643C71.7261 18.0248 71.7592 18.4754 71.8035 19.0162C71.8698 19.5344 71.9361 20.0864 72.0025 20.6722C72.0688 21.2355 72.1352 21.7987 72.2015 22.362C72.29 22.9253 72.3674 23.4435 72.4337 23.9167C72.677 23.421 72.9755 22.8126 73.3294 22.0916C73.6832 21.3707 74.0481 20.6835 74.424 20.0301C74.8221 19.3541 75.2202 18.7909 75.6182 18.3403C76.0384 17.8671 76.4144 17.6305 76.7461 17.6305C77.0999 17.6305 77.4206 17.8108 77.7081 18.1713C78.0177 18.5092 78.2831 18.9261 78.5042 19.4217C78.7254 19.9174 78.9133 20.4469 79.0681 21.0102C79.245 21.5734 79.3888 22.0691 79.4994 22.4972C79.5878 22.2043 79.6984 21.8776 79.8311 21.5171C79.9859 21.1341 80.1407 20.7511 80.2955 20.368C80.4724 19.9625 80.6604 19.5682 80.8594 19.1852C81.0806 18.8021 81.3128 18.4642 81.556 18.1713C81.8435 17.8558 82.1531 17.6305 82.4849 17.4953C82.8166 17.3376 83.0598 17.2588 83.2146 17.2588C83.4137 17.2588 83.6459 17.3264 83.9113 17.4615C84.1988 17.5742 84.4862 17.7319 84.7737 17.9347C85.0612 18.1375 85.3266 18.3853 85.5699 18.6782C85.8352 18.9486 86.0453 19.2302 86.2001 19.5231C86.5097 20.1315 86.753 20.7961 86.9299 21.5171C87.129 22.2381 87.2727 22.9253 87.3612 23.5787C87.4496 24.2321 87.5049 24.8179 87.527 25.3361C87.5712 25.8318 87.6044 26.181 87.6265 26.3838C87.6265 26.6767 87.5934 26.902 87.527 27.0597C87.4607 27.1949 87.339 27.3076 87.1621 27.3977C86.9189 27.5103 86.7088 27.5554 86.5319 27.5329C86.3549 27.4878 86.2112 27.4089 86.1006 27.2963C85.99 27.1836 85.9016 27.0597 85.8352 26.9245C85.7689 26.7668 85.7247 26.6316 85.7025 26.519C85.6362 26.0008 85.5588 25.4713 85.4703 24.9305C85.404 24.3898 85.3266 23.8716 85.2381 23.3759C85.1497 22.8577 85.0391 22.3846 84.9064 21.9565C84.7958 21.5058 84.6742 21.1116 84.5415 20.7736C84.4973 20.6835 84.4199 20.5708 84.3093 20.4356C84.2209 20.2779 84.1103 20.1315 83.9776 19.9963C83.867 19.8611 83.7565 19.7484 83.6459 19.6583C83.5353 19.5682 83.4579 19.5119 83.4137 19.4893C83.1925 19.4893 82.9603 19.7034 82.7171 20.1315C82.4738 20.537 82.2416 21.0327 82.0205 21.6185C81.7993 22.2043 81.5892 22.8239 81.3902 23.4773C81.2133 24.1082 81.0806 24.6489 80.9921 25.0995C80.9921 25.6853 80.8815 26.1247 80.6604 26.4176C80.4393 26.688 80.207 26.8231 79.9638 26.8231C79.7205 26.8231 79.4551 26.733 79.1677 26.5528C78.9023 26.35 78.7254 26.1247 78.6369 25.8768C78.5042 25.5163 78.3605 25.1108 78.2057 24.6602C78.0509 24.2096 77.885 23.7477 77.7081 23.2745C77.5533 22.8014 77.3874 22.3395 77.2105 21.8889C77.0557 21.4383 76.9009 21.0327 76.7461 20.6722C76.4365 21.1003 76.1269 21.5734 75.8173 22.0916C75.5298 22.6099 75.2423 23.1393 74.9548 23.6801C74.6894 24.2208 74.424 24.7616 74.1587 25.3023C73.9154 25.8205 73.6832 26.2824 73.4621 26.688C73.3073 26.9358 73.1414 27.1611 72.9645 27.3639C72.7876 27.5441 72.5775 27.6343 72.3342 27.6343C72.1573 27.6343 71.9693 27.5554 71.7703 27.3977C71.5713 27.2174 71.3833 27.0034 71.2064 26.7555C71.0294 26.5077 70.8636 26.2261 70.7088 25.9106C70.5761 25.5952 70.4766 25.2798 70.4102 24.9643C70.2333 23.9955 70.0785 22.9366 69.9458 21.7875C69.8352 20.6159 69.7247 19.4781 69.6141 18.374C69.592 17.991 69.6362 17.6418 69.7468 17.3264C69.8795 16.9884 70.1227 16.7631 70.4766 16.6504C70.8525 16.5828 71.14 16.6392 71.339 16.8194C71.5381 16.9997 71.6597 17.2813 71.7039 17.6643Z" fill="black"/>
<path d="M97.9462 16.7856C98.6096 17.0335 99.1625 17.4052 99.6048 17.9009C100.069 18.3966 100.423 18.9599 100.666 19.5907C100.91 20.1991 101.042 20.8299 101.064 21.4833C101.109 22.1367 101.042 22.745 100.865 23.3083C100.622 23.9392 100.312 24.5588 99.9365 25.1671C99.5605 25.7755 99.1293 26.3162 98.6428 26.7893C98.1562 27.2625 97.6034 27.6455 96.9842 27.9384C96.365 28.2313 95.6794 28.3778 94.9275 28.3778C94.0208 28.3778 93.2578 28.1637 92.6386 27.7356C92.0194 27.3076 91.5329 26.7555 91.1791 26.0796C90.8252 25.4037 90.593 24.6376 90.4824 23.7815C90.394 22.9253 90.4161 22.0691 90.5488 21.2129C90.6372 20.5821 90.781 19.9737 90.98 19.3879C91.2012 18.7796 91.4776 18.2501 91.8093 17.7995C92.141 17.3264 92.517 16.9433 92.9372 16.6504C93.3795 16.3575 93.877 16.2111 94.4299 16.2111C94.7395 16.2111 95.1265 16.2787 95.5909 16.4139C96.0553 16.5265 96.4866 16.6955 96.8846 16.9208C97.1721 16.6504 97.526 16.6054 97.9462 16.7856ZM96.6856 19.2528C96.4424 19.095 96.1549 18.8923 95.8231 18.6444C95.5135 18.374 95.2371 18.2389 94.9938 18.2389C94.7285 18.2389 94.4631 18.3628 94.1977 18.6106C93.9544 18.8585 93.7333 19.1514 93.5343 19.4893C93.3574 19.8048 93.2025 20.1315 93.0699 20.4694C92.9372 20.8074 92.8487 21.0778 92.8045 21.2805C92.7381 21.6185 92.6939 22.0241 92.6718 22.4972C92.6497 22.9704 92.6829 23.4435 92.7713 23.9167C92.8598 24.3673 93.0256 24.7841 93.2689 25.1671C93.5343 25.5276 93.9213 25.7867 94.4299 25.9444C94.7395 26.0346 95.1044 26.0346 95.5246 25.9444C95.9448 25.8318 96.3539 25.6403 96.752 25.3699C97.1721 25.0995 97.5592 24.739 97.913 24.2884C98.2889 23.8378 98.5764 23.3196 98.7755 22.7338C98.9966 22.0804 98.9966 21.4045 98.7755 20.706C98.5764 19.985 98.1562 19.4668 97.5149 19.1514C97.3601 19.264 97.2053 19.3203 97.0505 19.3203C96.8957 19.3203 96.7741 19.2978 96.6856 19.2528Z" fill="black"/>
<path d="M113.646 16.9208C113.248 17.1461 112.828 17.3827 112.386 17.6305C111.966 17.8784 111.534 18.1713 111.092 18.5092C110.672 18.8247 110.263 19.2077 109.865 19.6583C109.489 20.0864 109.146 20.6046 108.836 21.2129C108.394 22.0691 108.096 22.9478 107.941 23.8491C107.786 24.7278 107.686 25.5952 107.642 26.4514C107.642 26.8569 107.543 27.2738 107.344 27.7018C107.167 28.1074 106.912 28.3102 106.581 28.3102C106.161 28.3102 105.818 28.0961 105.552 27.668C105.309 27.2174 105.143 26.7893 105.055 26.3838C104.679 24.7841 104.369 23.2069 104.126 21.6523C103.883 20.0751 103.673 18.5092 103.496 16.9546C103.496 16.6392 103.584 16.4364 103.761 16.3463C103.96 16.2561 104.181 16.2223 104.425 16.2449C104.69 16.2674 104.944 16.335 105.188 16.4477C105.431 16.5603 105.575 16.7406 105.619 16.9884C105.707 17.822 105.818 18.7007 105.95 19.6245C106.083 20.5258 106.216 21.3031 106.349 21.9565C106.437 21.1904 106.68 20.4469 107.078 19.7259C107.476 19.0049 107.963 18.3515 108.538 17.7657C109.135 17.1799 109.798 16.6842 110.528 16.2787C111.28 15.8731 112.043 15.6027 112.817 15.4676C113.149 15.4225 113.425 15.4225 113.646 15.4676C113.868 15.5126 114.022 15.5915 114.111 15.7041C114.199 15.8168 114.21 15.997 114.144 16.2449C114.1 16.4927 113.934 16.718 113.646 16.9208Z" fill="black"/>
<path d="M123.677 20.6384C122.814 21.1566 121.886 21.5622 120.89 21.8551C119.895 22.1254 118.823 22.2606 117.673 22.2606C117.717 23.0492 117.938 23.6801 118.336 24.1532C118.734 24.6038 119.232 24.8742 119.829 24.9643C120.183 25.0094 120.537 24.9981 120.89 24.9305C121.266 24.863 121.609 24.7616 121.919 24.6264C122.25 24.4687 122.549 24.2997 122.814 24.1194C123.08 23.9392 123.312 23.7589 123.511 23.5787C123.71 23.3984 123.92 23.2858 124.141 23.2407C124.362 23.1731 124.528 23.1619 124.639 23.2069C124.948 23.3196 125.059 23.6575 124.971 24.2208C124.617 24.9418 124.108 25.5614 123.445 26.0796C122.781 26.5753 122.04 26.8907 121.222 27.0259C120.514 27.1611 119.785 27.1273 119.033 26.9245C118.281 26.7218 117.606 26.3275 117.009 25.7417C116.501 25.2234 116.114 24.6151 115.848 23.9167C115.583 23.2182 115.417 22.4972 115.351 21.7537C115.284 21.0552 115.34 20.3906 115.516 19.7597C115.715 19.1288 116.014 18.5768 116.412 18.1037C116.81 17.608 117.308 17.2024 117.905 16.887C118.502 16.5716 119.199 16.3913 119.995 16.3463C120.946 16.2787 121.808 16.4589 122.582 16.887C123.356 17.3151 123.898 17.9122 124.208 18.6782C124.384 19.1063 124.429 19.4781 124.34 19.7935C124.274 20.1089 124.053 20.3906 123.677 20.6384ZM119.862 18.3403C119.641 18.3853 119.398 18.4642 119.132 18.5768C118.889 18.6895 118.657 18.8359 118.436 19.0162C118.237 19.1739 118.049 19.3654 117.872 19.5907C117.717 19.7935 117.628 20.0301 117.606 20.3004C117.982 20.3004 118.391 20.2666 118.834 20.1991C119.298 20.1315 119.74 20.0526 120.161 19.9625C120.603 19.8498 121.001 19.7259 121.355 19.5907C121.731 19.4555 122.04 19.3091 122.284 19.1514C122.107 18.7233 121.775 18.4642 121.288 18.374C120.824 18.2614 120.349 18.2501 119.862 18.3403Z" fill="black"/>
<path d="M9.89011 14.1833C9.80166 14.296 9.6358 14.3861 9.39253 14.4537C9.17139 14.4987 8.93918 14.4311 8.69592 14.2509C8.519 14.1157 8.30891 13.9805 8.06565 13.8453C7.82239 13.6876 7.55701 13.5412 7.26952 13.406C6.98203 13.2708 6.69454 13.1581 6.40705 13.068C6.11956 12.9779 5.84312 12.9328 5.57775 12.9328C5.24603 12.9328 4.89219 13.0117 4.51624 13.1694C4.1624 13.3271 3.8528 13.5524 3.58742 13.8453C3.07878 14.4086 2.89081 14.9606 3.0235 15.5014C3.1783 16.0196 3.56531 16.504 4.18452 16.9546C4.58258 17.2475 5.01382 17.5517 5.47823 17.8671C5.94264 18.16 6.39599 18.4529 6.83828 18.7458C7.30269 19.0387 7.73393 19.3203 8.132 19.5907C8.55218 19.8611 8.91707 20.0977 9.22667 20.3004C9.62474 20.5708 10.0007 20.8637 10.3545 21.1791C10.7084 21.4946 11.018 21.8551 11.2833 22.2606C11.5487 22.6437 11.7588 23.083 11.9136 23.5787C12.0684 24.0744 12.1458 24.6376 12.1458 25.2685C11.991 26.5077 11.5045 27.4991 10.6862 28.2426C9.89012 28.9636 8.9613 29.4255 7.89979 29.6282C6.97097 29.8085 6.05321 29.7747 5.14651 29.5268C4.26192 29.279 3.51002 28.8059 2.89081 28.1074C2.73601 27.9272 2.60332 27.6793 2.49274 27.3639C2.38217 27.0484 2.37111 26.8231 2.45957 26.688C2.59226 26.4852 2.82446 26.35 3.15618 26.2824C3.48791 26.1923 3.74222 26.2035 3.91914 26.3162C4.42778 26.7893 5.02488 27.1386 5.71043 27.3639C6.39599 27.5667 7.11472 27.5779 7.86662 27.3977C8.4416 27.2625 8.90601 27.0147 9.25985 26.6542C9.61368 26.2711 9.83483 25.843 9.92329 25.3699C10.0339 24.8742 9.96752 24.3673 9.72425 23.8491C9.50311 23.3083 9.09399 22.8239 8.49689 22.3958C7.59019 21.6974 6.61714 21.044 5.57775 20.4356C4.56047 19.8273 3.52108 19.1288 2.45957 18.3403C1.95093 17.8896 1.57498 17.394 1.33172 16.8532C1.11057 16.3125 1 15.783 1 15.2648C1 14.724 1.11057 14.2171 1.33172 13.7439C1.55287 13.2483 1.86247 12.8089 2.26054 12.4259C2.6586 12.0203 3.12301 11.6936 3.65377 11.4458C4.18452 11.198 4.77056 11.0515 5.41189 11.0064C6.29647 10.9614 7.14789 11.1529 7.96614 11.581C8.78438 11.9865 9.44782 12.4935 9.95646 13.1018C10.067 13.237 10.1113 13.406 10.0891 13.6088C10.0891 13.8115 10.0228 14.003 9.89011 14.1833Z" stroke="black" stroke-width="0.4" mask="url(#path-1-outside-1_522_6642)"/>
<path d="M16.7705 13.6088C16.7705 14.1495 16.7594 14.7578 16.7373 15.4338C16.7373 16.1097 16.7373 16.8081 16.7373 17.5291C16.7594 18.2501 16.7705 18.9936 16.7705 19.7597C16.7926 20.5257 16.8147 21.258 16.8368 21.9565C17.058 21.5058 17.3233 21.0665 17.6329 20.6384C17.9425 20.1878 18.2853 19.7935 18.6613 19.4555C19.0593 19.1176 19.4685 18.8472 19.8886 18.6444C20.3309 18.4416 20.8064 18.3403 21.315 18.3403C21.8679 18.3403 22.3544 18.5205 22.7746 18.881C23.2169 19.2415 23.5929 19.7259 23.9025 20.3342C24.2342 20.92 24.5106 21.5847 24.7318 22.3282C24.9529 23.0492 25.1298 23.7927 25.2625 24.5588C25.4173 25.3023 25.5279 26.0233 25.5942 26.7218C25.6606 27.3977 25.7159 27.9835 25.7601 28.4792C25.7601 28.8397 25.6716 29.1326 25.4947 29.3579C25.3178 29.5832 25.1077 29.6958 24.8645 29.6958C24.6875 29.6958 24.4664 29.5832 24.201 29.3579C23.9578 29.11 23.7808 28.8171 23.6703 28.4792C23.6039 28.2088 23.5376 27.8145 23.4712 27.2963C23.4049 26.7781 23.3275 26.2261 23.239 25.6403C23.1506 25.0319 23.04 24.4236 22.9073 23.8153C22.7746 23.2069 22.6088 22.6662 22.4097 22.193C22.2328 21.6974 22.0117 21.3143 21.7463 21.044C21.4809 20.7736 21.1713 20.6722 20.8175 20.7398C20.2646 20.8524 19.7781 21.2467 19.3579 21.9227C18.9598 22.5986 18.606 23.3646 18.2964 24.2208C18.0089 25.077 17.7656 25.9444 17.5666 26.8231C17.3897 27.7018 17.257 28.4116 17.1685 28.9523C17.0801 29.3579 16.9584 29.6395 16.8036 29.7972C16.671 29.9324 16.5162 30 16.3392 30C16.1623 30 15.9965 29.9099 15.8417 29.7296C15.709 29.5494 15.5763 29.3353 15.4436 29.0875C15.333 28.8171 15.2335 28.5468 15.145 28.2764C15.0566 27.9835 15.0013 27.7356 14.9792 27.5329C14.8686 26.3162 14.7801 25.1559 14.7138 24.0518C14.6475 22.9253 14.5922 21.7987 14.5479 20.6722C14.5258 19.5457 14.5148 18.3966 14.5148 17.225C14.5148 16.0308 14.5369 14.7578 14.5811 13.406C14.5811 12.2794 14.9792 11.7725 15.7753 11.8851C16.0407 11.9302 16.2729 12.133 16.4719 12.4935C16.671 12.8314 16.7705 13.2032 16.7705 13.6088Z" stroke="black" stroke-width="0.4" mask="url(#path-1-outside-1_522_6642)"/>
<path d="M35.7809 16.7856C36.4444 17.0335 36.9972 17.4052 37.4395 17.9009C37.9039 18.3966 38.2578 18.9599 38.501 19.5907C38.7443 20.1991 38.877 20.8299 38.8991 21.4833C38.9433 22.1367 38.877 22.745 38.7001 23.3083C38.4568 23.9392 38.1472 24.5588 37.7712 25.1671C37.3953 25.7755 36.9641 26.3162 36.4775 26.7893C35.991 27.2625 35.4381 27.6455 34.8189 27.9384C34.1997 28.2313 33.5142 28.3778 32.7623 28.3778C31.8556 28.3778 31.0926 28.1637 30.4734 27.7356C29.8542 27.3076 29.3676 26.7555 29.0138 26.0796C28.66 25.4037 28.4278 24.6376 28.3172 23.7815C28.2287 22.9253 28.2509 22.0691 28.3835 21.2129C28.472 20.5821 28.6157 19.9737 28.8148 19.3879C29.0359 18.7796 29.3124 18.2501 29.6441 17.7995C29.9758 17.3264 30.3518 16.9433 30.7719 16.6504C31.2142 16.3575 31.7118 16.2111 32.2647 16.2111C32.5743 16.2111 32.9613 16.2787 33.4257 16.4139C33.8901 16.5265 34.3213 16.6955 34.7194 16.9208C35.0069 16.6504 35.3607 16.6054 35.7809 16.7856ZM34.5204 19.2528C34.2771 19.095 33.9896 18.8923 33.6579 18.6444C33.3483 18.374 33.0719 18.2389 32.8286 18.2389C32.5632 18.2389 32.2978 18.3628 32.0325 18.6106C31.7892 18.8585 31.5681 19.1514 31.369 19.4893C31.1921 19.8048 31.0373 20.1315 30.9046 20.4694C30.7719 20.8074 30.6835 21.0778 30.6392 21.2805C30.5729 21.6185 30.5287 22.0241 30.5066 22.4972C30.4844 22.9704 30.5176 23.4435 30.6061 23.9167C30.6945 24.3673 30.8604 24.7841 31.1037 25.1671C31.369 25.5276 31.756 25.7867 32.2647 25.9444C32.5743 26.0346 32.9392 26.0346 33.3594 25.9444C33.7795 25.8318 34.1887 25.6403 34.5867 25.3699C35.0069 25.0995 35.3939 24.739 35.7477 24.2884C36.1237 23.8378 36.4112 23.3196 36.6102 22.7338C36.8314 22.0804 36.8314 21.4045 36.6102 20.706C36.4112 19.985 35.991 19.4668 35.3497 19.1514C35.1949 19.264 35.0401 19.3203 34.8853 19.3203C34.7305 19.3203 34.6088 19.2978 34.5204 19.2528Z" stroke="black" stroke-width="0.4" mask="url(#path-1-outside-1_522_6642)"/>
<path d="M53.372 27.8032C53.195 28.0511 52.996 28.2201 52.7749 28.3102C52.5537 28.3778 52.3547 28.4116 52.1778 28.4116C51.8682 28.389 51.5807 28.2876 51.3153 28.1074C51.0499 27.9046 50.8841 27.7018 50.8177 27.4991C50.685 27.116 50.5413 26.688 50.3865 26.2148C50.2317 25.7417 50.0769 25.2685 49.9221 24.7954C49.7894 24.2997 49.6456 23.8265 49.4908 23.3759C49.336 22.9028 49.1923 22.4747 49.0596 22.0916C48.6173 22.8802 48.1971 23.6801 47.7991 24.4912C47.401 25.2798 46.9587 26.1021 46.4722 26.9583C46.251 27.2963 45.9967 27.5329 45.7092 27.668C45.4217 27.7807 45.1785 27.8258 44.9794 27.8032C44.6919 27.7807 44.4266 27.6681 44.1833 27.4653C43.9622 27.2625 43.7852 27.071 43.6525 26.8907C43.4093 26.4852 43.166 25.967 42.9228 25.3361C42.6795 24.6827 42.4473 24.0068 42.2261 23.3083C42.0271 22.5873 41.8391 21.8776 41.6622 21.1791C41.4853 20.4582 41.3416 19.816 41.231 19.2528C41.1646 18.8697 41.1646 18.5092 41.231 18.1713C41.3194 17.8333 41.5185 17.6418 41.8281 17.5967C42.204 17.5742 42.5468 17.7094 42.8564 18.0023C43.166 18.2727 43.3429 18.543 43.3872 18.8134C43.4756 19.264 43.5751 19.7597 43.6857 20.3004C43.8184 20.8187 43.9511 21.3481 44.0838 21.8889C44.2386 22.4296 44.3823 22.9591 44.515 23.4773C44.6698 23.9955 44.8246 24.4574 44.9794 24.8629C45.3111 24.3222 45.676 23.7026 46.0741 23.0041C46.4943 22.2832 46.8923 21.596 47.2683 20.9426C47.6442 20.2666 47.987 19.6808 48.2966 19.1852C48.6062 18.6895 48.8495 18.3853 49.0264 18.2727C49.1591 18.1825 49.3471 18.1938 49.5903 18.3065C49.8336 18.3966 50.0105 18.5318 50.1211 18.712C50.6076 19.7034 51.0057 20.7961 51.3153 21.9903C51.647 23.1619 51.9677 24.2546 52.2773 25.2685C52.5869 24.8629 52.9186 24.3335 53.2724 23.6801C53.6263 23.0042 53.9691 22.2944 54.3008 21.5509C54.6325 20.8074 54.9421 20.0639 55.2296 19.3203C55.5171 18.5768 55.7493 17.9122 55.9262 17.3264C56.1031 16.718 56.3464 16.4251 56.656 16.4477C57.0541 16.4927 57.3968 16.6279 57.6843 16.8532C57.9718 17.0785 58.0824 17.3151 58.0161 17.5629C57.5295 19.5457 56.8993 21.3707 56.1252 23.0379C55.3512 24.6827 54.4335 26.2711 53.372 27.8032Z" stroke="black" stroke-width="0.4" mask="url(#path-1-outside-1_522_6642)"/>
<path d="M71.7039 17.6643C71.7261 18.0248 71.7592 18.4754 71.8035 19.0162C71.8698 19.5344 71.9361 20.0864 72.0025 20.6722C72.0688 21.2355 72.1352 21.7987 72.2015 22.362C72.29 22.9253 72.3674 23.4435 72.4337 23.9167C72.677 23.421 72.9755 22.8126 73.3294 22.0916C73.6832 21.3707 74.0481 20.6835 74.424 20.0301C74.8221 19.3541 75.2202 18.7909 75.6182 18.3403C76.0384 17.8671 76.4144 17.6305 76.7461 17.6305C77.0999 17.6305 77.4206 17.8108 77.7081 18.1713C78.0177 18.5092 78.2831 18.9261 78.5042 19.4217C78.7254 19.9174 78.9133 20.4469 79.0681 21.0102C79.245 21.5734 79.3888 22.0691 79.4994 22.4972C79.5878 22.2043 79.6984 21.8776 79.8311 21.5171C79.9859 21.1341 80.1407 20.7511 80.2955 20.368C80.4724 19.9625 80.6604 19.5682 80.8594 19.1852C81.0806 18.8021 81.3128 18.4642 81.556 18.1713C81.8435 17.8558 82.1531 17.6305 82.4849 17.4953C82.8166 17.3376 83.0598 17.2588 83.2146 17.2588C83.4137 17.2588 83.6459 17.3264 83.9113 17.4615C84.1988 17.5742 84.4862 17.7319 84.7737 17.9347C85.0612 18.1375 85.3266 18.3853 85.5699 18.6782C85.8352 18.9486 86.0453 19.2302 86.2001 19.5231C86.5097 20.1315 86.753 20.7961 86.9299 21.5171C87.129 22.2381 87.2727 22.9253 87.3612 23.5787C87.4496 24.2321 87.5049 24.8179 87.527 25.3361C87.5712 25.8318 87.6044 26.181 87.6265 26.3838C87.6265 26.6767 87.5934 26.902 87.527 27.0597C87.4607 27.1949 87.339 27.3076 87.1621 27.3977C86.9189 27.5103 86.7088 27.5554 86.5319 27.5329C86.3549 27.4878 86.2112 27.4089 86.1006 27.2963C85.99 27.1836 85.9016 27.0597 85.8352 26.9245C85.7689 26.7668 85.7247 26.6316 85.7025 26.519C85.6362 26.0008 85.5588 25.4713 85.4703 24.9305C85.404 24.3898 85.3266 23.8716 85.2381 23.3759C85.1497 22.8577 85.0391 22.3846 84.9064 21.9565C84.7958 21.5058 84.6742 21.1116 84.5415 20.7736C84.4973 20.6835 84.4199 20.5708 84.3093 20.4356C84.2209 20.2779 84.1103 20.1315 83.9776 19.9963C83.867 19.8611 83.7565 19.7484 83.6459 19.6583C83.5353 19.5682 83.4579 19.5119 83.4137 19.4893C83.1925 19.4893 82.9603 19.7034 82.7171 20.1315C82.4738 20.537 82.2416 21.0327 82.0205 21.6185C81.7993 22.2043 81.5892 22.8239 81.3902 23.4773C81.2133 24.1082 81.0806 24.6489 80.9921 25.0995C80.9921 25.6853 80.8815 26.1247 80.6604 26.4176C80.4393 26.688 80.207 26.8231 79.9638 26.8231C79.7205 26.8231 79.4551 26.733 79.1677 26.5528C78.9023 26.35 78.7254 26.1247 78.6369 25.8768C78.5042 25.5163 78.3605 25.1108 78.2057 24.6602C78.0509 24.2096 77.885 23.7477 77.7081 23.2745C77.5533 22.8014 77.3874 22.3395 77.2105 21.8889C77.0557 21.4383 76.9009 21.0327 76.7461 20.6722C76.4365 21.1003 76.1269 21.5734 75.8173 22.0916C75.5298 22.6099 75.2423 23.1393 74.9548 23.6801C74.6894 24.2208 74.424 24.7616 74.1587 25.3023C73.9154 25.8205 73.6832 26.2824 73.4621 26.688C73.3073 26.9358 73.1414 27.1611 72.9645 27.3639C72.7876 27.5441 72.5775 27.6343 72.3342 27.6343C72.1573 27.6343 71.9693 27.5554 71.7703 27.3977C71.5713 27.2174 71.3833 27.0034 71.2064 26.7555C71.0294 26.5077 70.8636 26.2261 70.7088 25.9106C70.5761 25.5952 70.4766 25.2798 70.4102 24.9643C70.2333 23.9955 70.0785 22.9366 69.9458 21.7875C69.8352 20.6159 69.7247 19.4781 69.6141 18.374C69.592 17.991 69.6362 17.6418 69.7468 17.3264C69.8795 16.9884 70.1227 16.7631 70.4766 16.6504C70.8525 16.5828 71.14 16.6392 71.339 16.8194C71.5381 16.9997 71.6597 17.2813 71.7039 17.6643Z" stroke="black" stroke-width="0.4" mask="url(#path-1-outside-1_522_6642)"/>
<path d="M97.9462 16.7856C98.6096 17.0335 99.1625 17.4052 99.6048 17.9009C100.069 18.3966 100.423 18.9599 100.666 19.5907C100.91 20.1991 101.042 20.8299 101.064 21.4833C101.109 22.1367 101.042 22.745 100.865 23.3083C100.622 23.9392 100.312 24.5588 99.9365 25.1671C99.5605 25.7755 99.1293 26.3162 98.6428 26.7893C98.1562 27.2625 97.6034 27.6455 96.9842 27.9384C96.365 28.2313 95.6794 28.3778 94.9275 28.3778C94.0208 28.3778 93.2578 28.1637 92.6386 27.7356C92.0194 27.3076 91.5329 26.7555 91.1791 26.0796C90.8252 25.4037 90.593 24.6376 90.4824 23.7815C90.394 22.9253 90.4161 22.0691 90.5488 21.2129C90.6372 20.5821 90.781 19.9737 90.98 19.3879C91.2012 18.7796 91.4776 18.2501 91.8093 17.7995C92.141 17.3264 92.517 16.9433 92.9372 16.6504C93.3795 16.3575 93.877 16.2111 94.4299 16.2111C94.7395 16.2111 95.1265 16.2787 95.5909 16.4139C96.0553 16.5265 96.4866 16.6955 96.8846 16.9208C97.1721 16.6504 97.526 16.6054 97.9462 16.7856ZM96.6856 19.2528C96.4424 19.095 96.1549 18.8923 95.8231 18.6444C95.5135 18.374 95.2371 18.2389 94.9938 18.2389C94.7285 18.2389 94.4631 18.3628 94.1977 18.6106C93.9544 18.8585 93.7333 19.1514 93.5343 19.4893C93.3574 19.8048 93.2025 20.1315 93.0699 20.4694C92.9372 20.8074 92.8487 21.0778 92.8045 21.2805C92.7381 21.6185 92.6939 22.0241 92.6718 22.4972C92.6497 22.9704 92.6829 23.4435 92.7713 23.9167C92.8598 24.3673 93.0256 24.7841 93.2689 25.1671C93.5343 25.5276 93.9213 25.7867 94.4299 25.9444C94.7395 26.0346 95.1044 26.0346 95.5246 25.9444C95.9448 25.8318 96.3539 25.6403 96.752 25.3699C97.1721 25.0995 97.5592 24.739 97.913 24.2884C98.2889 23.8378 98.5764 23.3196 98.7755 22.7338C98.9966 22.0804 98.9966 21.4045 98.7755 20.706C98.5764 19.985 98.1562 19.4668 97.5149 19.1514C97.3601 19.264 97.2053 19.3203 97.0505 19.3203C96.8957 19.3203 96.7741 19.2978 96.6856 19.2528Z" stroke="black" stroke-width="0.4" mask="url(#path-1-outside-1_522_6642)"/>
<path d="M113.646 16.9208C113.248 17.1461 112.828 17.3827 112.386 17.6305C111.966 17.8784 111.534 18.1713 111.092 18.5092C110.672 18.8247 110.263 19.2077 109.865 19.6583C109.489 20.0864 109.146 20.6046 108.836 21.2129C108.394 22.0691 108.096 22.9478 107.941 23.8491C107.786 24.7278 107.686 25.5952 107.642 26.4514C107.642 26.8569 107.543 27.2738 107.344 27.7018C107.167 28.1074 106.912 28.3102 106.581 28.3102C106.161 28.3102 105.818 28.0961 105.552 27.668C105.309 27.2174 105.143 26.7893 105.055 26.3838C104.679 24.7841 104.369 23.2069 104.126 21.6523C103.883 20.0751 103.673 18.5092 103.496 16.9546C103.496 16.6392 103.584 16.4364 103.761 16.3463C103.96 16.2561 104.181 16.2223 104.425 16.2449C104.69 16.2674 104.944 16.335 105.188 16.4477C105.431 16.5603 105.575 16.7406 105.619 16.9884C105.707 17.822 105.818 18.7007 105.95 19.6245C106.083 20.5258 106.216 21.3031 106.349 21.9565C106.437 21.1904 106.68 20.4469 107.078 19.7259C107.476 19.0049 107.963 18.3515 108.538 17.7657C109.135 17.1799 109.798 16.6842 110.528 16.2787C111.28 15.8731 112.043 15.6027 112.817 15.4676C113.149 15.4225 113.425 15.4225 113.646 15.4676C113.868 15.5126 114.022 15.5915 114.111 15.7041C114.199 15.8168 114.21 15.997 114.144 16.2449C114.1 16.4927 113.934 16.718 113.646 16.9208Z" stroke="black" stroke-width="0.4" mask="url(#path-1-outside-1_522_6642)"/>
<path d="M123.677 20.6384C122.814 21.1566 121.886 21.5622 120.89 21.8551C119.895 22.1254 118.823 22.2606 117.673 22.2606C117.717 23.0492 117.938 23.6801 118.336 24.1532C118.734 24.6038 119.232 24.8742 119.829 24.9643C120.183 25.0094 120.537 24.9981 120.89 24.9305C121.266 24.863 121.609 24.7616 121.919 24.6264C122.25 24.4687 122.549 24.2997 122.814 24.1194C123.08 23.9392 123.312 23.7589 123.511 23.5787C123.71 23.3984 123.92 23.2858 124.141 23.2407C124.362 23.1731 124.528 23.1619 124.639 23.2069C124.948 23.3196 125.059 23.6575 124.971 24.2208C124.617 24.9418 124.108 25.5614 123.445 26.0796C122.781 26.5753 122.04 26.8907 121.222 27.0259C120.514 27.1611 119.785 27.1273 119.033 26.9245C118.281 26.7218 117.606 26.3275 117.009 25.7417C116.501 25.2234 116.114 24.6151 115.848 23.9167C115.583 23.2182 115.417 22.4972 115.351 21.7537C115.284 21.0552 115.34 20.3906 115.516 19.7597C115.715 19.1288 116.014 18.5768 116.412 18.1037C116.81 17.608 117.308 17.2024 117.905 16.887C118.502 16.5716 119.199 16.3913 119.995 16.3463C120.946 16.2787 121.808 16.4589 122.582 16.887C123.356 17.3151 123.898 17.9122 124.208 18.6782C124.384 19.1063 124.429 19.4781 124.34 19.7935C124.274 20.1089 124.053 20.3906 123.677 20.6384ZM119.862 18.3403C119.641 18.3853 119.398 18.4642 119.132 18.5768C118.889 18.6895 118.657 18.8359 118.436 19.0162C118.237 19.1739 118.049 19.3654 117.872 19.5907C117.717 19.7935 117.628 20.0301 117.606 20.3004C117.982 20.3004 118.391 20.2666 118.834 20.1991C119.298 20.1315 119.74 20.0526 120.161 19.9625C120.603 19.8498 121.001 19.7259 121.355 19.5907C121.731 19.4555 122.04 19.3091 122.284 19.1514C122.107 18.7233 121.775 18.4642 121.288 18.374C120.824 18.2614 120.349 18.2501 119.862 18.3403Z" stroke="black" stroke-width="0.4" mask="url(#path-1-outside-1_522_6642)"/>
<path d="M149.318 19.6812C149.244 19.5642 149.177 19.4424 149.119 19.3165L148.98 19.318C149.097 19.4467 149.205 19.5663 149.318 19.6812Z" fill="#00A99D"/>
<path d="M149.909 2.21577C147.267 2.68097 144.749 3.68503 142.512 5.16548C142.325 5.29454 142.108 5.37306 141.882 5.39341C141.656 5.41376 141.429 5.37523 141.222 5.28159C135.559 9.30371 132.272 15.3618 133.444 22.4163C134.488 27.8934 138.444 33.0418 143.943 35.7683C143.339 35.3408 142.764 34.8723 142.224 34.366C136.467 28.8889 135.648 20.5583 138.286 13.7411C139.673 10.1553 142.132 6.95728 146.016 5.06251C149.688 3.32689 153.798 2.73555 157.81 3.3653C166.183 4.66763 172.071 11.5689 172.431 18.6833C172.491 19.9177 170.262 19.9372 170.203 18.7074C169.837 11.5142 163.168 4.96497 154.522 5.03539C150.985 5.07371 147.374 6.12968 144.736 8.19669C141.702 10.5791 140.184 14.0827 139.474 17.4847C138.184 23.6418 139.939 30.8897 146.041 34.7797C148.883 36.5204 152.133 37.4844 155.465 37.5751C156.95 37.3864 158.404 37.0022 159.789 36.4324C167.001 34.8267 171.403 29.6667 173.583 23.8899C174.993 16.8446 173.431 9.8361 166.69 4.79678C164.413 3.15393 161.828 1.98699 159.089 1.36564C156.351 0.744289 153.515 0.681307 150.752 1.18044C150.767 1.30414 150.757 1.42955 150.722 1.5492C150.687 1.66885 150.629 1.78029 150.55 1.87689C150.471 1.9735 150.374 2.05329 150.264 2.11151C150.154 2.16972 150.033 2.20518 149.909 2.21577Z" fill="#00A99D"/>
<path d="M143.957 35.7769C149.601 39.8298 157.972 40.5796 164.696 38.0412C173.441 34.7425 178.348 26.127 177.296 18.1472C177.134 16.9324 174.906 16.9426 175.068 18.1713C175.902 24.4958 172.837 31.2944 166.608 34.9512C163.225 36.8598 159.372 37.7725 155.492 37.5836C154.821 37.6712 154.146 37.7219 153.47 37.7356C150.183 37.9161 146.906 37.2412 143.957 35.7769Z" fill="black"/>
<path d="M139.492 17.4934C140.203 14.0914 141.739 10.5876 144.754 8.20539C147.393 6.13838 151.003 5.07309 154.541 5.04405C163.186 4.95042 169.855 11.5228 170.221 18.7161C170.281 19.9459 172.509 19.9264 172.45 18.6919C172.089 11.5729 166.224 4.66214 157.829 3.374C153.816 2.74425 149.707 3.33558 146.035 5.0712C142.15 6.97062 139.691 10.164 138.305 13.7498C135.662 20.567 136.481 28.8976 142.243 34.3747C142.783 34.881 143.357 35.3495 143.962 35.7769C146.907 37.2397 150.181 37.9145 153.465 37.7357C154.141 37.722 154.817 37.6713 155.488 37.5838C152.156 37.493 148.906 36.5291 146.064 34.7884C139.958 30.8984 138.203 23.6505 139.492 17.4934Z" fill="black"/>
<path d="M136.334 35.1757C139.673 37.9659 143.339 40.3395 147.251 42.2442C148.528 42.8883 149.404 41.1618 148.115 40.5321C144.382 38.7109 140.885 36.4417 137.701 33.7749C136.604 32.8781 135.245 34.2623 136.334 35.1757Z" fill="black"/>
<path d="M149.471 0.334681C146.458 0.87575 143.59 2.03399 141.047 3.73663C140.941 3.81106 140.852 3.90834 140.788 4.02132C140.724 4.1343 140.686 4.26014 140.677 4.38971C140.667 4.51927 140.687 4.64928 140.735 4.77024C140.782 4.8912 140.856 5.00008 140.95 5.08891C141.034 5.16795 141.131 5.23277 141.236 5.28084C143.344 3.80302 145.654 2.63496 148.094 1.81227C148.968 1.55006 149.857 1.34195 150.757 1.18908C150.738 1.04383 150.688 0.904275 150.611 0.77989C150.534 0.655505 150.431 0.549188 150.309 0.468157C150.187 0.387127 150.049 0.333287 149.904 0.31026C149.76 0.287232 149.612 0.295544 149.471 0.334681Z" fill="black"/>
<path d="M141.236 5.28103C141.443 5.37467 141.67 5.4132 141.896 5.39285C142.122 5.3725 142.339 5.29398 142.526 5.16492C144.763 3.68448 147.281 2.68041 149.923 2.2152C150.047 2.20515 150.167 2.1704 150.277 2.11303C150.387 2.05566 150.485 1.97681 150.564 1.88116C150.643 1.78551 150.702 1.675 150.737 1.55613C150.773 1.43727 150.784 1.31248 150.771 1.18912C149.871 1.34199 148.982 1.5501 148.108 1.81231C145.663 2.63382 143.349 3.80197 141.236 5.28103Z" fill="black"/>
<path d="M163.331 27.9964C164.8 26.2985 165.511 23.9763 165.946 21.8004C166.435 19.4048 166.417 17.0176 165.265 14.8128C164.602 13.5446 162.671 14.6722 163.339 15.9451C164.353 17.8859 164.097 20.0804 163.578 22.1371C163.126 23.9039 162.54 25.8858 161.053 27.071C159.473 28.3188 156.648 28.8298 154.666 28.872C153.749 28.8698 152.843 28.669 152.011 28.2833C151.179 27.8977 150.44 27.3365 149.845 26.6381C147.504 24.0115 145.831 18.1317 149.448 15.9362C151.747 14.5422 155.064 13.9253 157.449 15.1429C156.299 15.2533 155.171 15.5311 154.101 15.9677C152.766 16.47 153.332 18.6351 154.68 18.1265C156.2 17.5514 158.273 16.6863 159.649 18.0212C159.764 18.1361 159.904 18.2238 160.057 18.2777C160.211 18.3317 160.374 18.3506 160.536 18.333C160.698 18.3155 160.854 18.262 160.992 18.1764C161.13 18.0908 161.248 17.9753 161.336 17.8384C161.453 17.7934 161.56 17.7254 161.65 17.6386C161.741 17.5517 161.813 17.4476 161.863 17.3325C161.913 17.2173 161.94 17.0933 161.941 16.9678C161.943 16.8423 161.919 16.7177 161.872 16.6014C161.165 14.562 160.6 12.4761 160.182 10.3586C159.904 8.94626 157.747 9.53012 158.023 10.9371C158.173 11.6922 158.348 12.4408 158.533 13.1865C156.523 12.1604 154.022 12.0236 151.766 12.6078C149.913 13.0869 147.882 13.9376 146.592 15.4055C145.197 16.9883 145.045 19.0218 145.281 21.0353C145.749 24.939 147.67 28.8724 151.46 30.4717C153.542 31.3454 155.609 31.0952 157.765 30.6564C159.814 30.2519 161.905 29.6454 163.331 27.9964Z" fill="white"/>
</svg>
