<svg width="96" height="72" viewBox="0 0 96 72" fill="none" xmlns="http://www.w3.org/2000/svg">
<g filter="url(#filter0_d_701_2523)">
<path d="M12 16C12 13.7909 13.7909 12 16 12H72C74.2091 12 76 13.7909 76 16V47.0808C76 49.618 73.6681 51.5142 71.1842 50.9967L44.8158 45.5033C44.2777 45.3912 43.7223 45.3912 43.1842 45.5033L16.8158 50.9967C14.3319 51.5142 12 49.618 12 47.0808V16Z" fill="#FF3666"/>
</g>
<path d="M35.6187 36H31.4387L27.4387 25.26C27.572 26.3133 27.672 27.2467 27.7387 28.06C27.8187 28.86 27.8587 29.8133 27.8587 30.92V36H24.9387V22.14H29.0187L33.1187 32.9C32.8253 31.0733 32.6787 29.3533 32.6787 27.74V22.14H35.6187V36ZM46.7004 22.14L46.3604 24.48H41.4804V27.8H45.7404V30.1H41.4804V33.64H46.7004V36H38.2004V22.14H46.7004ZM64.1677 22.14L61.8477 36H57.5877L55.8677 25.42L54.0477 36H49.8877L47.6077 22.14H50.8877L52.2677 33.52L54.1877 22.14H57.6277L59.4277 33.52L61.0477 22.14H64.1677Z" fill="white"/>
<defs>
<filter id="filter0_d_701_2523" x="0" y="0" width="96" height="71.082" filterUnits="userSpaceOnUse" color-interpolation-filters="sRGB">
<feFlood flood-opacity="0" result="BackgroundImageFix"/>
<feColorMatrix in="SourceAlpha" type="matrix" values="0 0 0 0 0 0 0 0 0 0 0 0 0 0 0 0 0 0 127 0" result="hardAlpha"/>
<feOffset dx="4" dy="4"/>
<feGaussianBlur stdDeviation="8"/>
<feComposite in2="hardAlpha" operator="out"/>
<feColorMatrix type="matrix" values="0 0 0 0 0.808333 0 0 0 0 0 0 0 0 0 0.194 0 0 0 0.3 0"/>
<feBlend mode="normal" in2="BackgroundImageFix" result="effect1_dropShadow_701_2523"/>
<feBlend mode="normal" in="SourceGraphic" in2="effect1_dropShadow_701_2523" result="shape"/>
</filter>
</defs>
</svg>
