<svg width="293" height="180" viewBox="0 0 293 180" fill="none" xmlns="http://www.w3.org/2000/svg">
<path d="M288.895 149.288C288.735 149.793 288.57 150.299 288.399 150.804C284.44 162.461 278.377 171.226 274.956 175.584C274.821 175.756 274.69 175.923 274.562 176.081C273.633 177.244 272.94 178.031 272.606 178.403C272.455 178.569 272.376 178.653 272.376 178.653L9.74519 178.716C6.2476 173.356 4.57126 168.904 4.13217 165.043C4.13217 165.043 4.13217 165.037 4.13217 165.034C4.05536 164.35 4.01601 163.663 4.01428 162.976C4.01428 162.811 4.01428 162.651 4.02077 162.486C4.02077 162.424 4.02077 162.363 4.02077 162.301C4.08661 160.584 4.40549 158.887 4.96709 157.263C5.55362 155.598 6.32181 154.002 7.25773 152.506C7.33884 152.372 7.41995 152.24 7.50323 152.109C7.51621 152.09 7.5281 152.07 7.54 152.051C8.38033 150.723 9.31908 149.431 10.3 148.142C10.8245 147.453 11.362 146.763 11.9006 146.07C14.1372 143.2 16.4203 140.264 18.115 136.916C18.7455 135.68 19.2761 134.395 19.7016 133.074C20.1675 131.619 20.4878 130.121 20.6576 128.603C20.6976 128.233 20.7312 127.859 20.7549 127.479C20.7744 127.167 20.7874 126.85 20.795 126.532C20.8043 126.109 20.8043 125.679 20.795 125.241C20.7329 123.369 20.4898 121.507 20.0693 119.682C20.0466 119.585 20.0249 119.487 20.0011 119.39C19.9179 119.033 19.8281 118.676 19.7297 118.307C19.6432 117.984 19.5509 117.659 19.4528 117.332C19.3858 117.104 19.3137 116.874 19.2365 116.642C18.7087 114.976 18.27 113.336 17.9203 111.723C17.7292 110.834 17.5638 109.957 17.4239 109.09V109.071C17.3266 108.475 17.2418 107.882 17.1697 107.294C17.1578 107.195 17.1449 107.097 17.1341 106.998C12.9237 71.074 50.4802 48.9571 87.9155 46.7618C93.1719 46.4441 98.4449 46.5354 103.687 47.0348C118.746 48.5044 132.78 53.5002 142.858 62.4501C166.096 83.0844 226.019 44.232 265.549 73.9299C266.27 74.4714 266.984 75.0363 267.692 75.6247C267.89 75.7879 268.087 75.954 268.283 76.1229C273.601 80.6715 278.504 86.5782 282.845 94.184C285.049 98.0226 286.907 102.049 288.399 106.217C288.571 106.701 288.738 107.184 288.895 107.667C294.066 123.299 292.586 137.646 288.895 149.288Z" fill="#F2FDFF"/>
<path d="M122.728 44.7616C122.73 45.089 122.635 45.4095 122.455 45.6826C122.275 45.9558 122.019 46.1692 121.718 46.2959C121.418 46.4226 121.086 46.4569 120.766 46.3944C120.446 46.332 120.152 46.1756 119.92 45.945C119.689 45.7145 119.53 45.4201 119.466 45.0993C119.401 44.7784 119.432 44.4455 119.556 44.1426C119.68 43.8397 119.89 43.5805 120.161 43.3978C120.431 43.2151 120.75 43.1171 121.076 43.1162C121.512 43.115 121.931 43.2876 122.241 43.596C122.551 43.9045 122.726 44.3236 122.728 44.7616Z" fill="#A4E0EA"/>
<path opacity="0.6" d="M87.4901 40.5112C87.4901 40.8384 87.3935 41.1583 87.2124 41.4303C87.0314 41.7024 86.774 41.9144 86.4729 42.0396C86.1718 42.1648 85.8405 42.1976 85.5209 42.1338C85.2013 42.0699 84.9077 41.9124 84.6772 41.681C84.4468 41.4497 84.2898 41.1549 84.2262 40.834C84.1627 40.5131 84.1953 40.1805 84.32 39.8782C84.4447 39.5759 84.6559 39.3175 84.9269 39.1357C85.1979 38.954 85.5165 38.8569 85.8424 38.8569C86.0588 38.8569 86.273 38.8997 86.4729 38.9829C86.6729 39.066 86.8545 39.1879 87.0075 39.3415C87.1605 39.4951 87.2819 39.6775 87.3647 39.8782C87.4475 40.0789 87.4901 40.294 87.4901 40.5112Z" fill="white"/>
<path opacity="0.6" d="M160.485 100.41C160.485 100.737 160.388 101.057 160.207 101.329C160.026 101.601 159.769 101.813 159.468 101.939C159.167 102.064 158.835 102.097 158.516 102.033C158.196 101.969 157.903 101.811 157.672 101.58C157.442 101.349 157.285 101.054 157.221 100.733C157.158 100.412 157.19 100.079 157.315 99.7771C157.44 99.4748 157.651 99.2164 157.922 99.0347C158.193 98.8529 158.511 98.7559 158.837 98.7559C159.274 98.7559 159.693 98.9302 160.002 99.2404C160.311 99.5506 160.485 99.9714 160.485 100.41Z" fill="white"/>
<path opacity="0.6" d="M232.468 73.4065C232.468 73.5828 232.416 73.7553 232.318 73.9019C232.221 74.0486 232.082 74.1629 231.92 74.2304C231.757 74.2979 231.579 74.3155 231.406 74.2811C231.234 74.2467 231.076 74.1618 230.951 74.0371C230.827 73.9123 230.742 73.7534 230.708 73.5804C230.674 73.4074 230.691 73.2281 230.759 73.0652C230.826 72.9022 230.94 72.7629 231.086 72.6649C231.232 72.567 231.404 72.5146 231.58 72.5146C231.815 72.5146 232.041 72.6086 232.208 72.7759C232.375 72.9431 232.468 73.1699 232.468 73.4065Z" fill="white"/>
<path opacity="0.6" d="M264.535 123.2C264.535 123.376 264.483 123.549 264.386 123.695C264.288 123.842 264.149 123.956 263.987 124.024C263.824 124.091 263.646 124.109 263.473 124.075C263.301 124.04 263.143 123.955 263.018 123.831C262.894 123.706 262.81 123.547 262.775 123.374C262.741 123.201 262.759 123.022 262.826 122.859C262.893 122.696 263.007 122.556 263.153 122.458C263.299 122.36 263.471 122.308 263.647 122.308C263.882 122.308 264.108 122.402 264.275 122.569C264.442 122.737 264.535 122.963 264.535 123.2Z" fill="white"/>
<path opacity="0.6" d="M64.1065 123.2C64.1065 123.376 64.0544 123.549 63.9567 123.695C63.8591 123.842 63.7203 123.956 63.5579 124.024C63.3956 124.091 63.2169 124.109 63.0445 124.075C62.8722 124.04 62.7138 123.955 62.5895 123.831C62.4653 123.706 62.3806 123.547 62.3464 123.374C62.3121 123.201 62.3297 123.022 62.3969 122.859C62.4642 122.696 62.5781 122.556 62.7242 122.458C62.8703 122.36 63.0421 122.308 63.2179 122.308C63.4536 122.308 63.6796 122.402 63.8462 122.569C64.0129 122.737 64.1065 122.963 64.1065 123.2Z" fill="white"/>
<path opacity="0.6" d="M27.1583 158.979C27.1583 159.156 27.1062 159.328 27.0085 159.475C26.9109 159.621 26.7721 159.736 26.6097 159.803C26.4474 159.871 26.2687 159.888 26.0963 159.854C25.924 159.819 25.7656 159.735 25.6414 159.61C25.5171 159.485 25.4325 159.326 25.3982 159.153C25.3639 158.98 25.3815 158.801 25.4487 158.638C25.516 158.475 25.6299 158.336 25.776 158.238C25.9221 158.14 26.094 158.087 26.2697 158.087C26.5054 158.087 26.7314 158.181 26.898 158.349C27.0647 158.516 27.1583 158.743 27.1583 158.979Z" fill="white"/>
<path opacity="0.6" d="M19.0526 104.026C19.0526 104.202 19.0005 104.375 18.9028 104.522C18.8052 104.668 18.6664 104.782 18.504 104.85C18.3417 104.917 18.163 104.935 17.9906 104.901C17.8183 104.866 17.6599 104.781 17.5357 104.657C17.4114 104.532 17.3268 104.373 17.2925 104.2C17.2582 104.027 17.2758 103.848 17.343 103.685C17.4103 103.522 17.5242 103.383 17.6703 103.285C17.8164 103.187 17.9882 103.134 18.164 103.134C18.3997 103.134 18.6257 103.228 18.7923 103.395C18.959 103.563 19.0526 103.79 19.0526 104.026Z" fill="white"/>
<path opacity="0.6" d="M66.2075 70.6902C66.2075 70.8665 66.1554 71.039 66.0577 71.1856C65.9601 71.3323 65.8213 71.4466 65.659 71.5141C65.4966 71.5816 65.3179 71.5992 65.1455 71.5648C64.9732 71.5304 64.8148 71.4455 64.6906 71.3208C64.5663 71.196 64.4817 71.0371 64.4474 70.8641C64.4131 70.6911 64.4307 70.5118 64.4979 70.3489C64.5652 70.1859 64.6791 70.0466 64.8252 69.9486C64.9714 69.8506 65.1432 69.7983 65.3189 69.7983C65.5546 69.7983 65.7806 69.8923 65.9472 70.0595C66.1139 70.2268 66.2075 70.4536 66.2075 70.6902Z" fill="white"/>
<path opacity="0.6" d="M45.0705 26.6179C45.0705 26.7943 45.0184 26.9667 44.9208 27.1133C44.8231 27.26 44.6844 27.3743 44.522 27.4418C44.3596 27.5093 44.181 27.527 44.0086 27.4925C43.8362 27.4581 43.6779 27.3732 43.5536 27.2485C43.4293 27.1238 43.3447 26.9649 43.3104 26.7919C43.2761 26.6189 43.2937 26.4396 43.361 26.2766C43.4282 26.1136 43.5421 25.9744 43.6883 25.8764C43.8344 25.7784 44.0062 25.7261 44.1819 25.7261C44.4176 25.7261 44.6436 25.82 44.8103 25.9873C44.9769 26.1545 45.0705 26.3814 45.0705 26.6179Z" fill="white"/>
<path opacity="0.6" d="M81.548 15.2199C81.548 15.3963 81.4958 15.5687 81.3982 15.7154C81.3006 15.8621 81.1618 15.9764 80.9994 16.0439C80.837 16.1114 80.6584 16.129 80.486 16.0946C80.3136 16.0602 80.1553 15.9753 80.031 15.8505C79.9067 15.7258 79.8221 15.5669 79.7878 15.3939C79.7535 15.2209 79.7711 15.0416 79.8384 14.8787C79.9056 14.7157 80.0195 14.5764 80.1657 14.4784C80.3118 14.3804 80.4836 14.3281 80.6594 14.3281C80.895 14.3281 81.121 14.4221 81.2877 14.5893C81.4543 14.7566 81.548 14.9834 81.548 15.2199Z" fill="white"/>
<path opacity="0.6" d="M103.418 56.2976C103.418 56.474 103.365 56.6464 103.268 56.793C103.17 56.9397 103.031 57.054 102.869 57.1215C102.707 57.189 102.528 57.2067 102.356 57.1723C102.183 57.1378 102.025 57.0529 101.901 56.9282C101.776 56.8035 101.692 56.6446 101.657 56.4716C101.623 56.2986 101.641 56.1192 101.708 55.9563C101.775 55.7933 101.889 55.6541 102.035 55.5561C102.181 55.4581 102.353 55.4058 102.529 55.4058C102.765 55.4058 102.991 55.4997 103.157 55.667C103.324 55.8342 103.418 56.061 103.418 56.2976Z" fill="white"/>
<path opacity="0.6" d="M191.363 32.3381C191.363 32.5145 191.31 32.6869 191.213 32.8336C191.115 32.9802 190.976 33.0945 190.814 33.162C190.652 33.2295 190.473 33.2472 190.301 33.2128C190.128 33.1784 189.97 33.0934 189.846 32.9687C189.721 32.844 189.637 32.6851 189.602 32.5121C189.568 32.3391 189.586 32.1598 189.653 31.9968C189.72 31.8339 189.834 31.6946 189.98 31.5966C190.126 31.4986 190.298 31.4463 190.474 31.4463C190.71 31.4463 190.936 31.5402 191.102 31.7075C191.269 31.8747 191.363 32.1016 191.363 32.3381Z" fill="white"/>
<path opacity="0.6" d="M135.32 50.7761C135.32 50.9525 135.268 51.1249 135.171 51.2716C135.073 51.4182 134.934 51.5325 134.772 51.6C134.609 51.6675 134.431 51.6852 134.258 51.6508C134.086 51.6164 133.928 51.5314 133.803 51.4067C133.679 51.282 133.595 51.1231 133.56 50.9501C133.526 50.7771 133.544 50.5978 133.611 50.4348C133.678 50.2719 133.792 50.1326 133.938 50.0346C134.084 49.9366 134.256 49.8843 134.432 49.8843C134.667 49.8843 134.894 49.9782 135.06 50.1455C135.227 50.3127 135.32 50.5396 135.32 50.7761Z" fill="white"/>
<path opacity="0.6" d="M258.646 81.4636C258.646 81.64 258.594 81.8124 258.496 81.959C258.399 82.1057 258.26 82.22 258.098 82.2875C257.935 82.355 257.757 82.3727 257.584 82.3382C257.412 82.3038 257.253 82.2189 257.129 82.0942C257.005 81.9695 256.92 81.8106 256.886 81.6376C256.852 81.4646 256.869 81.2853 256.937 81.1223C257.004 80.9593 257.118 80.8201 257.264 80.7221C257.41 80.6241 257.582 80.5718 257.757 80.5718C257.993 80.5718 258.219 80.6657 258.386 80.833C258.552 81.0002 258.646 81.2271 258.646 81.4636Z" fill="white"/>
<path d="M169.204 100.41C169.204 100.737 169.107 101.057 168.926 101.329C168.745 101.601 168.488 101.813 168.186 101.939C167.885 102.064 167.554 102.097 167.234 102.033C166.915 101.969 166.621 101.811 166.391 101.58C166.16 101.349 166.003 101.054 165.94 100.733C165.876 100.412 165.909 100.079 166.034 99.7771C166.158 99.4748 166.369 99.2164 166.64 99.0347C166.911 98.8529 167.23 98.7559 167.556 98.7559C167.993 98.7559 168.412 98.9302 168.721 99.2404C169.03 99.5506 169.204 99.9714 169.204 100.41Z" fill="#A4E0EA"/>
<path d="M105.678 74.9173C105.678 75.0681 105.634 75.2155 105.55 75.3409C105.467 75.4663 105.348 75.564 105.209 75.6217C105.071 75.6795 104.918 75.6946 104.77 75.6651C104.623 75.6357 104.488 75.5631 104.381 75.4565C104.275 75.3498 104.203 75.214 104.174 75.066C104.144 74.9181 104.159 74.7648 104.217 74.6255C104.274 74.4862 104.372 74.3671 104.497 74.2833C104.622 74.1995 104.768 74.1548 104.919 74.1548C105.12 74.1548 105.313 74.2351 105.456 74.3781C105.598 74.5211 105.678 74.7151 105.678 74.9173Z" fill="#A4E0EA"/>
<path d="M162.578 83.5145C162.579 83.6663 162.535 83.8151 162.451 83.9418C162.368 84.0685 162.249 84.1675 162.109 84.2262C161.969 84.2849 161.816 84.3008 161.667 84.2717C161.519 84.2426 161.382 84.1699 161.275 84.0628C161.167 83.9557 161.094 83.8191 161.064 83.6702C161.034 83.5213 161.049 83.3669 161.107 83.2265C161.165 83.0861 161.263 82.966 161.388 82.8815C161.514 82.7971 161.662 82.752 161.813 82.752C161.914 82.7514 162.013 82.7707 162.106 82.8087C162.198 82.8468 162.283 82.9029 162.354 82.9737C162.425 83.0446 162.481 83.1288 162.519 83.2216C162.558 83.3144 162.578 83.414 162.578 83.5145Z" fill="#A4E0EA"/>
<path d="M66.9623 124.426C66.9623 124.577 66.9177 124.724 66.8342 124.85C66.7508 124.975 66.6321 125.073 66.4933 125.131C66.3545 125.188 66.2017 125.203 66.0543 125.174C65.907 125.144 65.7716 125.072 65.6653 124.965C65.5591 124.859 65.4867 124.723 65.4574 124.575C65.4281 124.427 65.4431 124.274 65.5006 124.134C65.5581 123.995 65.6555 123.876 65.7805 123.792C65.9054 123.708 66.0523 123.664 66.2025 123.664C66.404 123.664 66.5973 123.744 66.7398 123.887C66.8822 124.03 66.9623 124.224 66.9623 124.426Z" fill="#A4E0EA"/>
<path d="M104.03 41.5379C104.03 41.6887 103.986 41.8361 103.902 41.9615C103.819 42.0869 103.7 42.1846 103.561 42.2423C103.422 42.3001 103.27 42.3152 103.122 42.2857C102.975 42.2563 102.84 42.1837 102.733 42.0771C102.627 41.9704 102.555 41.8346 102.525 41.6866C102.496 41.5387 102.511 41.3854 102.569 41.2461C102.626 41.1068 102.724 40.9877 102.848 40.9039C102.973 40.8201 103.12 40.7754 103.271 40.7754C103.472 40.7754 103.665 40.8557 103.808 40.9987C103.95 41.1417 104.03 41.3357 104.03 41.5379Z" fill="#A4E0EA"/>
<path d="M237.127 93.8862C237.127 94.2134 237.03 94.5333 236.849 94.8053C236.668 95.0774 236.411 95.2894 236.109 95.4146C235.808 95.5398 235.477 95.5726 235.157 95.5088C234.838 95.4449 234.544 95.2874 234.314 95.056C234.083 94.8247 233.926 94.5299 233.863 94.209C233.799 93.8881 233.832 93.5555 233.957 93.2532C234.081 92.9509 234.292 92.6925 234.563 92.5107C234.834 92.329 235.153 92.2319 235.479 92.2319C235.916 92.2331 236.334 92.4078 236.643 92.7178C236.951 93.0278 237.125 93.4479 237.127 93.8862Z" fill="#A4E0EA"/>
<path d="M42.5382 2.51172C42.5382 2.8389 42.4415 3.15875 42.2605 3.43079C42.0794 3.70284 41.8221 3.91487 41.521 4.04008C41.2199 4.16529 40.8886 4.19805 40.5689 4.13422C40.2493 4.07039 39.9557 3.91284 39.7252 3.68148C39.4948 3.45012 39.3379 3.15535 39.2743 2.83445C39.2107 2.51355 39.2433 2.18093 39.368 1.87865C39.4928 1.57636 39.704 1.318 39.9749 1.13622C40.2459 0.954445 40.5645 0.857422 40.8904 0.857422C41.3274 0.857422 41.7465 1.03171 42.0556 1.34195C42.3646 1.65219 42.5382 2.07297 42.5382 2.51172Z" fill="#A4E0EA"/>
<path d="M3.97767 43.1157C3.97767 43.4429 3.88104 43.7628 3.69998 44.0348C3.51892 44.3069 3.26157 44.5189 2.96048 44.6441C2.65939 44.7693 2.32807 44.8021 2.00844 44.7382C1.6888 44.6744 1.3952 44.5169 1.16475 44.2855C0.934306 44.0541 0.777371 43.7594 0.713791 43.4385C0.650211 43.1176 0.682843 42.7849 0.807559 42.4827C0.932275 42.1804 1.14347 41.922 1.41445 41.7402C1.68542 41.5585 2.004 41.4614 2.3299 41.4614C2.76692 41.4614 3.18604 41.6357 3.49505 41.946C3.80407 42.2562 3.97767 42.677 3.97767 43.1157Z" fill="#A4E0EA"/>
<path d="M31.1904 145.254C31.1904 145.582 31.0937 145.901 30.9127 146.173C30.7316 146.446 30.4743 146.658 30.1732 146.783C29.8721 146.908 29.5408 146.941 29.2211 146.877C28.9015 146.813 28.6079 146.656 28.3775 146.424C28.147 146.193 27.9901 145.898 27.9265 145.577C27.8629 145.256 27.8956 144.924 28.0203 144.621C28.145 144.319 28.3562 144.061 28.6272 143.879C28.8981 143.697 29.2167 143.6 29.5426 143.6C29.9796 143.6 30.3987 143.774 30.7078 144.085C31.0168 144.395 31.1904 144.816 31.1904 145.254Z" fill="#A4E0EA"/>
<path d="M263.016 165.74C263.016 166.067 262.919 166.387 262.738 166.659C262.557 166.931 262.3 167.143 261.999 167.268C261.698 167.393 261.366 167.426 261.047 167.362C260.727 167.298 260.434 167.141 260.203 166.909C259.973 166.678 259.816 166.383 259.752 166.062C259.689 165.742 259.721 165.409 259.846 165.107C259.971 164.804 260.182 164.546 260.453 164.364C260.724 164.182 261.042 164.085 261.368 164.085C261.805 164.085 262.224 164.26 262.533 164.57C262.842 164.88 263.016 165.301 263.016 165.74Z" fill="#A4E0EA"/>
<path d="M95.6711 113.207V71.8766C95.6705 71.5582 95.7324 71.2429 95.8534 70.9486C95.9743 70.6543 96.1519 70.3869 96.3759 70.1616C96.5999 69.9363 96.866 69.7575 97.1588 69.6356C97.4517 69.5136 97.7657 69.4508 98.0828 69.4508C98.7236 69.4508 99.3381 69.1953 99.7913 68.7404C100.244 68.2854 100.499 67.6685 100.499 67.0251V65.9594C100.499 65.3161 100.244 64.6991 99.7913 64.2442C99.3381 63.7893 98.7236 63.5337 98.0828 63.5337H75.0362C74.3957 63.5349 73.7818 63.7908 73.329 64.2455C72.8761 64.7001 72.6212 65.3164 72.62 65.9594V67.0251C72.6212 67.6681 72.8761 68.2844 73.329 68.7391C73.7818 69.1937 74.3957 69.4497 75.0362 69.4508C75.677 69.4508 76.2915 69.7064 76.7446 70.1613C77.1977 70.6162 77.4523 71.2332 77.4523 71.8766V113.207C77.4532 113.667 77.3221 114.118 77.0748 114.505L38.754 175.148C38.5226 175.515 38.3936 175.937 38.3804 176.372C38.3672 176.806 38.4704 177.235 38.6792 177.616C38.8879 177.996 39.1946 178.313 39.5671 178.534C39.9397 178.755 40.3645 178.871 40.7971 178.871H132.326C132.759 178.872 133.184 178.756 133.557 178.535C133.93 178.314 134.237 177.997 134.445 177.616C134.654 177.235 134.756 176.805 134.742 176.371C134.728 175.937 134.598 175.514 134.365 175.148L96.0442 114.505C95.8002 114.116 95.6708 113.667 95.6711 113.207Z" fill="#A4E0EA"/>
<path d="M143.332 82.1945V83.1086C143.333 83.6566 143.118 84.1827 142.733 84.5714C142.349 84.9601 141.826 85.1797 141.28 85.1821C140.73 85.1821 140.202 85.4006 139.812 85.7899C139.422 86.1792 139.201 86.7077 139.197 87.26V164.776C139.197 168.517 137.717 172.104 135.083 174.749C132.448 177.394 128.875 178.88 125.149 178.88C121.423 178.88 117.85 177.394 115.215 174.749C112.581 172.104 111.101 168.517 111.101 164.776V87.26C111.101 86.7158 110.888 86.1933 110.509 85.8047C110.129 85.4162 109.613 85.1926 109.071 85.1821C108.518 85.1869 107.985 84.9714 107.59 84.5828C107.194 84.1941 106.968 83.6641 106.961 83.1086V82.1945C106.962 81.6442 107.181 81.1168 107.569 80.7281C107.957 80.3394 108.483 80.1211 109.031 80.1211H141.263C141.811 80.1211 142.336 80.3394 142.724 80.7281C143.112 81.1168 143.331 81.6442 143.332 82.1945Z" fill="#A4E0EA"/>
<path d="M257.255 142.053C257.26 149.347 255.48 156.531 252.073 162.973C248.665 169.415 243.734 174.919 237.713 179H188.084C181.472 174.55 176.174 168.394 172.747 161.18C169.321 153.966 167.891 145.959 168.608 137.999C169.325 130.039 172.163 122.419 176.824 115.94C181.485 109.46 187.797 104.359 195.097 101.172C196.948 100.36 198.522 99.0231 199.626 97.3257C200.731 95.6283 201.318 93.6442 201.315 91.6167V51.4229C201.317 51.0197 201.238 50.6202 201.085 50.2475C200.932 49.8748 200.707 49.5361 200.423 49.251C200.139 48.9659 199.802 48.7399 199.43 48.5862C199.059 48.4324 198.661 48.3539 198.26 48.3551C197.858 48.3557 197.461 48.2769 197.09 48.1233C196.719 47.9696 196.382 47.7441 196.098 47.4597C195.813 47.1752 195.588 46.8374 195.434 46.4654C195.28 46.0934 195.2 45.6946 195.199 45.2917V43.954C195.199 43.551 195.279 43.1519 195.433 42.7796C195.586 42.4074 195.812 42.0693 196.096 41.7847C196.381 41.5001 196.718 41.2747 197.089 41.1213C197.46 40.9678 197.858 40.8895 198.26 40.8906H227.431C228.24 40.8906 229.016 41.2134 229.589 41.7879C230.161 42.3624 230.482 43.1415 230.482 43.954V45.2917C230.485 45.6941 230.408 46.0929 230.255 46.465C230.103 46.8371 229.878 47.175 229.594 47.4588C229.035 48.0172 228.282 48.3367 227.493 48.3506C226.678 48.3505 225.895 48.672 225.313 49.2458C224.732 49.8197 224.398 50.5999 224.384 51.4184V91.6122C224.382 93.6402 224.969 95.6248 226.074 97.3229C227.178 99.0209 228.752 100.359 230.602 101.172C238.526 104.643 245.268 110.36 250.002 117.621C254.737 124.883 257.257 133.374 257.255 142.053Z" fill="#A4E0EA"/>
<path d="M96.1418 127.615C96.0233 127.766 95.8722 127.888 95.6999 127.972C95.5276 128.056 95.3386 128.1 95.147 128.101C94.8682 128.1 94.5976 128.006 94.3786 127.833L80.2149 116.721C80.0833 116.619 79.9733 116.491 79.8912 116.346C79.8092 116.2 79.7567 116.04 79.7369 115.874C79.717 115.708 79.7302 115.54 79.7757 115.379C79.8211 115.218 79.898 115.068 80.0017 114.938C80.117 114.79 80.264 114.671 80.4316 114.588C80.5992 114.506 80.7832 114.462 80.9699 114.46C81.2493 114.46 81.5209 114.553 81.7427 114.724L95.9242 125.84C96.0548 125.942 96.1641 126.069 96.2458 126.213C96.3275 126.358 96.3799 126.517 96.4001 126.682C96.4204 126.847 96.408 127.014 96.3636 127.174C96.3193 127.334 96.2439 127.484 96.1418 127.615Z" fill="#5499DE"/>
<path d="M84.0348 118.255C83.8664 118.468 83.6524 118.641 83.4087 118.759C83.165 118.878 82.8978 118.941 82.6269 118.942C82.2323 118.94 81.8495 118.807 81.5387 118.563L61.4546 102.822C61.2705 102.678 61.1166 102.499 61.0017 102.295C60.8867 102.091 60.8128 101.866 60.7844 101.633C60.7559 101.401 60.7734 101.164 60.8358 100.939C60.8982 100.713 61.0043 100.501 61.1481 100.317C61.2919 100.132 61.4705 99.9773 61.6737 99.8618C61.877 99.7464 62.1009 99.6722 62.3327 99.6437C62.5645 99.6151 62.7996 99.6326 63.0246 99.6953C63.2496 99.758 63.4602 99.8645 63.6442 100.009L83.7284 115.745C83.9132 115.889 84.0678 116.069 84.1833 116.273C84.2989 116.477 84.373 116.703 84.4015 116.936C84.4299 117.169 84.4122 117.406 84.3493 117.632C84.2864 117.859 84.1795 118.07 84.0348 118.255Z" fill="white"/>
<path d="M84.0344 118.255L61.1432 100.316C61.2869 100.131 61.4657 99.9756 61.6693 99.8597C61.8729 99.7437 62.0974 99.6693 62.3297 99.6407C62.5621 99.6121 62.7978 99.6299 63.0233 99.6931C63.2488 99.7562 63.4597 99.8635 63.6437 100.009L83.7279 115.745C83.9128 115.889 84.0674 116.068 84.1829 116.273C84.2984 116.477 84.3725 116.703 84.401 116.936C84.4295 117.169 84.4118 117.406 84.3488 117.632C84.2859 117.859 84.1791 118.07 84.0344 118.255Z" fill="#EDEEEF"/>
<path d="M197.287 94.1403C197.301 105.813 193.589 117.184 186.696 126.584C179.802 135.984 170.09 142.919 158.983 146.372C147.877 149.825 135.96 149.615 124.982 145.771C114.003 141.927 104.54 134.653 97.9809 125.015C97.7588 124.707 97.5367 124.39 97.3413 124.074L100.135 122.237L109.355 116.159C109.458 116.32 109.564 116.467 109.666 116.605C114.461 123.745 121.412 129.152 129.497 132.028C137.582 134.903 146.373 135.097 154.576 132.58C162.779 130.063 169.96 124.968 175.061 118.045C180.163 111.123 182.916 102.738 182.915 94.1269C182.898 87.8029 181.402 81.5713 178.547 75.9337C175.693 70.2962 171.56 65.4104 166.481 61.6696C164.617 60.29 162.634 59.0798 160.556 58.0533C160.374 57.9508 160.192 57.8616 160.001 57.7769L166.161 44.7476C169.392 46.2831 172.46 48.1415 175.32 50.2946C182.117 55.3926 187.64 62.0078 191.452 69.6173C195.265 77.2269 197.262 85.6224 197.287 94.1403Z" fill="#5499DE"/>
<path d="M191.375 94.4482C191.38 104.821 188.048 114.917 181.876 123.236C175.704 131.554 167.021 137.649 157.121 140.615C147.22 143.58 136.631 143.257 126.928 139.693C117.225 136.13 108.928 129.516 103.271 120.837L109.675 116.618L113.859 113.863C116.706 118.238 120.482 121.927 124.915 124.666C129.349 127.405 134.331 129.125 139.504 129.704C144.678 130.283 149.915 129.706 154.841 128.015C159.766 126.324 164.258 123.56 167.995 119.921C171.732 116.283 174.621 111.86 176.456 106.969C178.29 102.078 179.025 96.8404 178.607 91.631C178.189 86.4217 176.629 81.3696 174.038 76.8366C171.447 72.3036 167.89 68.4019 163.621 65.4109C162.009 64.268 160.301 63.2669 158.518 62.4189L160.57 58.0803L163.941 50.9458C166.563 52.1989 169.065 53.6915 171.416 55.4048C177.569 59.8764 182.583 65.743 186.051 72.5274C189.52 79.3118 191.344 86.8224 191.375 94.4482Z" fill="#6AB4E5"/>
<g style="mix-blend-mode:multiply" opacity="0.5">
<path d="M119.242 120.306L118.642 121.068L116.239 124.167L111.429 130.356L107.388 135.565C103.806 132.476 100.643 128.929 97.9807 125.015L100.135 122.237L109.355 116.159C109.457 116.319 109.564 116.467 109.666 116.605L113.85 113.849C115.387 116.208 117.197 118.375 119.242 120.306Z" fill="#307AB7"/>
</g>
<g style="mix-blend-mode:multiply" opacity="0.5">
<path d="M175.333 50.3081L171.416 55.3602L166.495 61.6831L163.621 65.4109C162.009 64.2679 160.301 63.2668 158.518 62.4188L160.57 58.0802C160.388 57.9776 160.205 57.8885 160.014 57.8037L166.175 44.7744C169.405 46.3057 172.473 48.1596 175.333 50.3081Z" fill="#307AB7"/>
</g>
<path d="M121.436 113.81L120.233 115.37L117.199 119.254L102.507 138.169L91.5719 129.599L106.264 110.684L109.298 106.8L110.501 105.239L121.436 113.81Z" fill="#94CCF2"/>
<path d="M194.222 15.1665L193.747 15.8086L178.309 35.6825L174.547 40.5072L165.806 33.6403L166.681 32.521L169.55 28.8379L185.011 8.93719L185.486 8.31738L188.258 10.4845L194.222 15.1665Z" fill="#4A94D1"/>
<g style="mix-blend-mode:multiply" opacity="0.5">
<path d="M178.309 35.6825L174.547 40.5072L165.806 33.6403L166.681 32.5211L169.55 28.8379L171.442 30.3094L177.74 35.2322L178.309 35.6825Z" fill="#307AB7"/>
</g>
<path d="M196.643 15.2865C196.514 15.4546 196.347 15.5907 196.157 15.6842C195.967 15.7777 195.758 15.8263 195.546 15.8261C195.237 15.8276 194.936 15.7238 194.693 15.5318L185.033 7.96032C184.881 7.85122 184.753 7.71247 184.656 7.5524C184.559 7.39232 184.495 7.21421 184.469 7.02877C184.442 6.84332 184.453 6.65436 184.5 6.47322C184.548 6.29207 184.632 6.12248 184.747 5.97462C184.861 5.82676 185.004 5.70367 185.168 5.61275C185.331 5.52182 185.511 5.46493 185.696 5.44549C185.882 5.42606 186.07 5.44447 186.248 5.49962C186.426 5.55478 186.592 5.64554 186.734 5.76647L196.403 13.3468C196.687 13.5749 196.871 13.9054 196.916 14.2677C196.961 14.6301 196.863 14.9956 196.643 15.2865Z" fill="white"/>
<g style="mix-blend-mode:multiply" opacity="0.5">
<path d="M194.227 15.166L193.743 15.7992L185.006 8.94568L185.495 8.3125L188.244 10.4751L194.227 15.166Z" fill="#307AB7"/>
</g>
<path d="M178.304 43.4407L150.052 79.7818L133.792 67.0468L134.236 66.4983L162.057 30.7056C162.805 29.7465 163.901 29.1239 165.104 28.9743C166.308 28.8247 167.522 29.1603 168.48 29.9075L172.681 33.2027L177.527 37.0018C177.999 37.3732 178.394 37.8343 178.689 38.359C178.984 38.8837 179.173 39.4615 179.245 40.0595C179.317 40.6575 179.271 41.2639 179.11 41.8441C178.948 42.4242 178.675 42.9668 178.304 43.4407Z" fill="#5499DE"/>
<path d="M153.499 86.5692C153.259 86.8832 152.95 87.1375 152.597 87.3123C152.243 87.4871 151.854 87.5776 151.46 87.5769C150.877 87.5738 150.311 87.3762 149.852 87.0151L120.583 64.0733C120.068 63.6377 119.74 63.0183 119.67 62.3454C119.6 61.6725 119.793 60.9986 120.208 60.4654C120.623 59.9322 121.227 59.5814 121.895 59.4867C122.562 59.392 123.24 59.5608 123.785 59.9576L153.055 82.9128C153.323 83.1232 153.548 83.3848 153.716 83.6826C153.884 83.9805 153.992 84.3087 154.033 84.6484C154.074 84.9881 154.048 85.3326 153.957 85.6623C153.865 85.9919 153.709 86.3001 153.499 86.5692Z" fill="white"/>
<path d="M110.501 105.239L109.298 106.8L106.264 110.684L113.326 116.217L110.954 119.254L98.6293 135.124L102.507 138.169L117.199 119.254L120.232 115.37L121.436 113.81L110.501 105.239Z" fill="#75B8EF"/>
<path d="M125.105 115.405C124.738 115.871 124.271 116.248 123.739 116.507C123.206 116.766 122.623 116.902 122.031 116.903C121.168 116.902 120.331 116.612 119.651 116.078L75.7737 81.7037C74.9609 81.0669 74.4334 80.132 74.3072 79.1046C74.181 78.0773 74.4665 77.0418 75.1008 76.2258C75.7351 75.4098 76.6663 74.8802 77.6896 74.7535C78.7129 74.6268 79.7443 74.9134 80.5571 75.5502L124.425 109.925C124.829 110.24 125.166 110.631 125.419 111.077C125.671 111.523 125.834 112.015 125.897 112.524C125.96 113.033 125.923 113.549 125.787 114.044C125.651 114.538 125.419 115.001 125.105 115.405Z" fill="white"/>
<path d="M184.513 51.165C184.509 53.1882 183.907 55.1647 182.784 56.8448C181.661 58.5248 180.068 59.833 178.205 60.604C176.341 61.375 174.292 61.5742 172.316 61.1765C170.34 60.7787 168.526 59.8019 167.103 58.3694C165.68 56.9369 164.712 55.113 164.321 53.1282C163.93 51.1434 164.134 49.0868 164.906 47.2183C165.679 45.3497 166.986 43.7531 168.663 42.6301C170.339 41.5072 172.309 40.9083 174.325 40.9092C175.665 40.9092 176.992 41.1746 178.23 41.6904C179.468 42.2061 180.592 42.962 181.539 43.9146C182.485 44.8673 183.235 45.9981 183.745 47.2423C184.256 48.4864 184.517 49.8194 184.513 51.165Z" fill="white"/>
<path d="M181.094 51.1642C181.094 52.5083 180.697 53.8221 179.953 54.9397C179.209 56.0572 178.152 56.9282 176.915 57.4425C175.678 57.9569 174.317 58.0914 173.004 57.8292C171.691 57.567 170.485 56.9198 169.539 55.9694C168.592 55.0191 167.947 53.8082 167.686 52.49C167.425 51.1718 167.559 49.8054 168.071 48.5637C168.584 47.3219 169.451 46.2606 170.564 45.5139C171.678 44.7672 172.986 44.3687 174.325 44.3687C176.12 44.3698 177.841 45.0862 179.11 46.3603C180.379 47.6345 181.093 49.3623 181.094 51.1642Z" fill="#F9CB44"/>
<path d="M140.904 57.2331L157.01 69.8528C157.497 70.2348 157.814 70.7955 157.89 71.4118C157.965 72.028 157.794 72.6491 157.414 73.1386L151.049 81.3255L131.253 65.8142L137.622 57.6202C137.812 57.378 138.048 57.1758 138.316 57.0252C138.583 56.8745 138.878 56.7785 139.183 56.7425C139.488 56.7065 139.797 56.7314 140.092 56.8155C140.387 56.8997 140.663 57.0416 140.904 57.2331Z" fill="#4B85C4"/>
<path d="M125.104 115.406L75.1072 76.2243C75.7431 75.4097 76.6747 74.8815 77.6979 74.7553C78.721 74.6291 79.7523 74.9152 80.5657 75.551L124.434 109.926C124.837 110.241 125.173 110.633 125.425 111.079C125.677 111.526 125.838 112.017 125.901 112.526C125.963 113.035 125.925 113.551 125.788 114.046C125.651 114.54 125.419 115.002 125.104 115.406Z" fill="#EDEEEF"/>
<path d="M153.499 86.5691L120.121 60.4258C120.546 59.8813 121.169 59.5285 121.853 59.4449C122.536 59.3613 123.225 59.5537 123.768 59.9798L153.055 82.9127C153.324 83.1231 153.548 83.3847 153.716 83.6825C153.884 83.9804 153.992 84.3086 154.033 84.6483C154.074 84.988 154.048 85.3325 153.957 85.6622C153.865 85.9918 153.709 86.3 153.499 86.5691Z" fill="#DFE5EA"/>
<path d="M196.643 15.2865L185.033 6.20346L184.78 6.00281C184.91 5.83658 185.077 5.70242 185.267 5.61049C185.457 5.51855 185.666 5.47125 185.877 5.47218C186.184 5.4724 186.483 5.576 186.725 5.76648L196.394 13.3468C196.679 13.5736 196.865 13.9035 196.912 14.2659C196.958 14.6283 196.862 14.9946 196.643 15.2865Z" fill="#EFEFEF"/>
<path d="M93.6594 161.262H182.781C183.889 161.262 184.951 161.704 185.734 162.49C186.516 163.276 186.956 164.342 186.956 165.454V178.327C186.956 178.452 186.907 178.573 186.818 178.661C186.73 178.75 186.61 178.8 186.486 178.8H89.9553C89.8304 178.8 89.7107 178.75 89.6224 178.661C89.5341 178.573 89.4845 178.452 89.4845 178.327V165.454C89.4845 164.342 89.9244 163.276 90.7073 162.49C91.4903 161.704 92.5522 161.262 93.6594 161.262Z" fill="#4B85C4"/>
<path d="M186.939 174.751H89.4845V178.8H186.939V174.751Z" fill="#3F76A8"/>
<path d="M116.115 161.28C116.115 161.28 132.131 159.671 140.694 150.802C145.429 145.897 149.133 134.607 151.185 128.248C151.927 125.964 153.518 124.055 155.626 122.919C156.767 122.297 158.025 121.92 159.319 121.813C160.613 121.706 161.915 121.872 163.142 122.3C164.369 122.728 165.493 123.408 166.443 124.297C167.392 125.186 168.147 126.264 168.657 127.463L183.11 161.28" fill="#5499DE"/>
<path d="M126.968 71.7185L122.052 67.8667L115.191 76.6934L120.107 80.5451L126.968 71.7185Z" fill="white"/>
<path d="M126.97 71.715L125.349 70.4448L118.487 79.2715L120.108 80.5417L126.97 71.715Z" fill="#75B8EF"/>
<path d="M129.048 70.7104L122.522 65.5967L121.248 67.2348L127.775 72.3485L129.048 70.7104Z" fill="#5499DE"/>
<path d="M136.24 78.9748L131.325 75.123L124.463 83.9497L129.379 87.8015L136.24 78.9748Z" fill="white"/>
<path d="M136.238 78.9777L134.617 77.7075L127.755 86.5342L129.377 87.8044L136.238 78.9777Z" fill="#75B8EF"/>
<path d="M138.316 77.9717L131.789 72.8579L130.516 74.496L137.042 79.6098L138.316 77.9717Z" fill="#5499DE"/>
<path d="M145.512 86.239L140.596 82.3872L133.734 91.2139L138.65 95.0657L145.512 86.239Z" fill="white"/>
<path d="M145.51 86.239L143.889 84.9688L137.028 93.7954L138.649 95.0656L145.51 86.239Z" fill="#75B8EF"/>
<path d="M147.591 85.2309L141.065 80.1172L139.791 81.7553L146.318 86.869L147.591 85.2309Z" fill="#5499DE"/>
<path d="M169.074 137.043C169.889 132.236 166.668 127.676 161.88 126.858C157.092 126.04 152.55 129.273 151.735 134.08C150.92 138.887 154.141 143.447 158.929 144.265C163.717 145.083 168.259 141.85 169.074 137.043Z" fill="#5499DE"/>
<path d="M166.848 136.619C167.428 133.048 165.015 129.682 161.458 129.1C157.902 128.518 154.549 130.94 153.969 134.511C153.389 138.081 155.802 141.447 159.359 142.03C162.915 142.612 166.268 140.189 166.848 136.619Z" fill="#F9CB44"/>
<path d="M98.6291 127.592C98.6291 128.033 98.4988 128.464 98.2548 128.831C98.0108 129.198 97.664 129.483 97.2582 129.652C96.8524 129.821 96.4059 129.865 95.9751 129.779C95.5443 129.693 95.1486 129.481 94.8381 129.169C94.5275 128.857 94.316 128.46 94.2303 128.027C94.1446 127.595 94.1886 127.146 94.3567 126.739C94.5248 126.332 94.8094 125.984 95.1746 125.739C95.5398 125.494 95.9691 125.363 96.4083 125.363C96.9973 125.363 97.5622 125.598 97.9786 126.016C98.3951 126.434 98.6291 127.001 98.6291 127.592Z" fill="white"/>
<path d="M96.4085 128.819C97.0831 128.819 97.6299 128.27 97.6299 127.592C97.6299 126.915 97.0831 126.366 96.4085 126.366C95.734 126.366 95.1871 126.915 95.1871 127.592C95.1871 128.27 95.734 128.819 96.4085 128.819Z" fill="#F9CB44"/>
<path d="M71.1262 93.0871L40.1925 95.8861C39.6551 95.9347 39.2586 96.4115 39.3071 96.9511L40.104 105.829C40.1525 106.368 40.6274 106.766 41.1649 106.718L72.0985 103.919C72.636 103.87 73.0324 103.393 72.984 102.854L72.187 93.976C72.1386 93.4364 71.6636 93.0384 71.1262 93.0871Z" fill="#88D5FF"/>
<path d="M63.3374 107.277C63.3374 107.277 63.3685 106.831 63.3995 106.336C63.4016 106.046 63.3378 105.76 63.213 105.498C63.1866 105.242 63.1866 104.983 63.213 104.727L63.8304 104.669C64.0211 104.39 64.196 104.102 64.3545 103.804C64.4264 103.666 64.4645 103.513 64.4655 103.358C64.4637 103.137 64.4756 102.917 64.501 102.698C64.5277 102.386 64.7808 102.252 64.8785 102.64C64.9433 102.968 64.9701 103.304 64.9585 103.639C64.8775 103.969 64.7675 104.291 64.6298 104.602C64.6298 104.602 65.5759 105.15 65.6025 105.333C65.6292 105.516 65.1983 106.225 64.8608 107.563" fill="#FE9393"/>
<path d="M64.8346 102.777C64.8346 102.777 64.7413 102.331 64.9368 102.291C65.1323 102.251 65.1945 102.59 65.2434 102.777C65.2922 102.965 65.3855 103.567 65.4211 103.767C65.3171 104.24 65.1684 104.701 64.9768 105.145L64.4525 104.65L64.7191 103.286" fill="#FE9393"/>
<path d="M65.2032 103.045C65.2032 103.045 65.1765 102.724 65.3276 102.653C65.4786 102.581 65.563 102.858 65.6119 103.045C65.6608 103.232 65.7541 103.834 65.7852 104.035C65.6828 104.506 65.5339 104.966 65.3409 105.408L64.8077 104.936L65.0699 103.567" fill="#FE9393"/>
<path d="M65.7895 103.21C65.7861 103.403 65.8055 103.596 65.8473 103.785C65.8276 103.942 65.7762 104.094 65.6962 104.231L65.3452 105.243L65.5185 105.689L66.065 104.414L66.1583 104.155C66.2072 104.004 66.2148 103.842 66.1805 103.687C66.105 103.348 65.945 102.835 65.7895 103.21Z" fill="#FE9393"/>
<path d="M47.0061 108.811C47.2074 108.328 47.3794 107.834 47.5213 107.33C47.5213 107.161 47.1882 106.282 47.1393 106.113C47.105 105.63 47.1608 105.144 47.3037 104.682C47.4458 104.49 47.5835 104.628 47.6412 104.824C47.695 105.06 47.7248 105.301 47.7301 105.542C47.7301 105.667 48.0276 106.1 48.0276 106.1L49.5644 105.961L50.1063 105.912C50.0533 106.174 49.9836 106.431 49.8975 106.684C49.7866 106.928 49.6191 107.142 49.4089 107.308C49.1216 107.842 48.8923 108.406 48.725 108.989" fill="#FE9393"/>
<path d="M52.8557 172.62V174.849C53.3657 174.992 53.9052 174.992 54.4152 174.849L54.704 172.62" fill="#FE9393"/>
<path d="M38.6787 170.943L38.0924 173.11C38.5458 173.383 39.0652 173.524 39.5936 173.52L40.4819 171.429" fill="#FE9393"/>
<path d="M46.9885 108.507C47.6603 108.571 48.3231 108.708 48.9649 108.918C48.9649 108.918 48.0767 114.349 47.215 116.444C46.5133 118.125 47.8501 122.647 47.8501 122.647L45.3141 124.377C45.3141 124.377 44.1282 118.255 43.9816 116.73C43.8351 115.205 46.9885 108.507 46.9885 108.507Z" fill="white"/>
<path d="M50.3194 139.761C50.2489 142.033 49.9724 144.294 49.4933 146.516C49.0935 148.536 48.605 150.641 48.0542 152.616C47.5035 154.592 46.9794 156.46 46.4908 157.967C44.9186 162.917 40.5082 172.45 40.5082 172.45C39.4156 172.544 38.0077 171.705 38.0077 171.705C38.0077 171.705 40.3439 160.611 41.9339 157.24C42.0494 156.398 42.1071 151.675 42.5291 148.197C42.7253 146.418 42.6999 144.62 42.4536 142.847C42.2997 141.29 42.4691 139.719 42.951 138.231L50.3194 139.761Z" fill="#2034AA"/>
<path d="M49.4935 146.517C49.0938 148.537 48.6052 150.641 48.0545 152.617C47.0409 149.473 46.4043 146.218 46.158 142.923C46.158 142.923 48.5252 145.567 49.4935 146.517Z" fill="#102772"/>
<path d="M54.9922 138.794C54.9922 138.794 56.1647 152.617 56.2402 157.967C56.3157 163.318 54.8367 173.784 54.8367 173.784C54.8367 173.784 54.0151 174.1 52.4161 173.703C52.4161 173.703 51.0837 162.413 51.7055 158.097C51.7055 158.097 48.8319 151.448 47.384 146.949C47.1042 146.089 46.6245 144.434 46.4291 143.712C46.0729 142.429 46.0712 141.072 46.424 139.788C46.7769 138.504 47.471 137.34 48.4322 136.421" fill="#2034AA"/>
<path d="M62.9553 107.099C62.9553 107.099 61.4008 113.275 59.9928 116.547C56.5196 118.902 53.0642 121.551 53.0642 121.551L49.511 120.601C47.7345 121.653 46.4331 124.061 45.6559 128.132C44.8786 132.203 37.0706 154.021 37.0706 154.021C44.4167 157.923 57.7366 154.855 57.7366 154.855C57.7366 154.855 55.96 134.638 55.96 130.264C55.966 128.872 56.2582 127.496 56.8184 126.223C57.3786 124.95 58.1947 123.807 59.2156 122.866C60.7612 121.435 62.3024 119.794 62.9997 118.648C64.4431 114.982 65.1671 107.5 65.1671 107.5C64.5055 107.094 63.7166 106.951 62.9553 107.099Z" fill="white"/>
<path d="M53.2289 120.257C53.0943 120.68 53.0371 121.124 53.0601 121.568C52.7159 121.683 52.3501 121.717 51.9906 121.668C51.6311 121.62 51.2875 121.489 50.9859 121.287C49.9777 120.591 50.9859 119.28 50.9859 119.28H53.6242C53.457 119.59 53.3244 119.918 53.2289 120.257Z" fill="#FE9393"/>
<path d="M53.6382 119.267C53.4663 119.576 53.3293 119.904 53.2294 120.244C52.7761 120.292 52.3198 120.184 51.9365 119.936L52.3808 119.267H53.6382Z" fill="#E15F60"/>
<path d="M53.5663 114.104C54.0367 115.069 54.3786 116.091 54.5834 117.145C54.6529 117.555 54.6066 117.977 54.4496 118.363C54.2926 118.748 54.0312 119.082 53.6951 119.325C53.4486 119.495 53.1887 119.644 52.9179 119.771C52.5484 119.95 52.1324 120.009 51.728 119.94C51.3235 119.87 50.9508 119.676 50.6616 119.383C50.2432 118.953 49.8928 118.462 49.6223 117.925C48.09 115.072 51.3812 111.87 53.5663 114.104Z" fill="#FE9393"/>
<path d="M52.0875 111.103C52.5949 111.259 53.0348 111.583 53.3356 112.021C54.7613 114.492 52.6516 116.307 51.5146 116.521C51.3014 117.644 51.4391 119.067 51.3902 120.057C51.3103 121.64 52.7226 128.31 50 129.559C49.2628 129.902 48.3123 129.349 46.8288 130.25C45.3454 131.151 41.8811 130.366 42.5828 127.129C43.2846 123.891 46.6467 122.576 47.6194 119.446C47.9436 118.407 47.2064 117.609 46.9976 116.873C46.804 116.248 46.7574 115.587 46.8614 114.94C46.9654 114.294 47.2173 113.681 47.5972 113.15C48.4366 111.861 50.2976 110.653 52.0875 111.103Z" fill="#2437B0"/>
<path d="M51.6173 116.69C51.6173 116.69 51.3905 116.244 51.0659 116.485C50.6701 116.802 51.1059 118.215 51.475 117.974" fill="#FE9393"/>
<path d="M52.314 175.549C52.3333 175.365 52.3917 175.188 52.4852 175.028C52.5787 174.869 52.705 174.732 52.8558 174.626C52.8558 174.626 53.0868 174.421 53.7441 174.626C53.9484 174.688 54.2282 174.929 54.4103 174.876C54.4103 174.876 54.8234 175.522 55.2009 176.285C55.381 176.699 55.6123 177.088 55.8893 177.444C56.2313 177.823 56.7465 177.89 56.7776 178.175C56.8043 178.523 56.8309 178.621 55.8893 178.621C55.8893 178.621 54.6146 178.305 54.2593 177.943C53.904 177.582 52.314 175.549 52.314 175.549Z" fill="#2034AA"/>
<path d="M54.3791 178.595C54.1731 178.594 53.9708 178.54 53.7918 178.438C53.6128 178.336 53.4632 178.188 53.3575 178.011C52.9769 177.372 52.6372 176.709 52.3405 176.027C51.994 175.014 53.3309 175.068 53.6729 175.434C54.0794 176.018 54.4303 176.639 54.721 177.289C55.0897 178.011 55.3562 178.443 55.9113 178.595H54.3791Z" fill="#112977"/>
<path d="M39.5938 173.52C39.6894 173.742 39.7306 173.984 39.7137 174.225C39.6737 174.595 39.4028 178.238 38.9498 178.55C38.7419 178.658 38.507 178.701 38.2747 178.675C37.8305 178.675 37.6751 178.015 37.2665 176.998C36.8578 175.982 37.2931 174.274 37.4441 173.369C37.5881 173.127 37.7695 172.911 37.9815 172.727C38.059 172.657 38.1498 172.605 38.2483 172.572C38.3468 172.539 38.451 172.526 38.5545 172.535C38.8609 172.562 39.2784 172.691 39.2385 173.213C39.2296 173.32 39.2029 173.418 39.5938 173.52Z" fill="#2034AA"/>
<path d="M37.2796 173.699C37.3089 173.525 37.3968 173.366 37.5286 173.249C37.6604 173.132 37.8281 173.064 38.0038 173.057C38.4037 173.003 38.9901 173.4 38.9501 174.35C38.9101 175.299 38.8657 177.859 38.7857 178.184C38.5991 178.938 37.7683 178.737 37.5062 178.126C37.0179 176.701 36.9394 175.167 37.2796 173.699Z" fill="#112977"/>
<path d="M48.3389 112.28C48.0117 112.595 47.6677 112.893 47.3085 113.172C46.6411 113.686 46.1089 114.357 45.7584 115.125C44.8701 117.158 46.3136 118.875 45.9405 119.508C45.5675 120.141 44.0796 120.253 43.973 121.55C43.8664 122.848 44.4482 123.16 43.973 124.399C43.4977 125.639 45.8473 125.34 46.4691 124.6C47.0909 123.86 47.766 123.039 48.5565 121.96C49.2573 120.889 49.7403 119.688 49.9778 118.429C49.8831 117.458 49.6451 116.507 49.2716 115.606C48.9385 115.04 48.3389 112.28 48.3389 112.28Z" fill="#2437B0"/>
<path d="M149.994 154.975L150.23 157.361C149.947 157.573 149.616 157.711 149.267 157.761C148.918 157.812 148.562 157.774 148.231 157.651L147.627 154.667" fill="#FF9393"/>
<path d="M150.23 157.361C149.592 157.601 148.911 157.7 148.231 157.651C148.231 157.651 147.285 158.543 146.872 159.016C146.459 159.488 146.104 159.956 145.664 160.014C145.224 160.072 144.469 160.371 144.332 160.723C144.194 161.076 144.603 161.263 146.242 161.263C146.79 161.305 147.341 161.223 147.854 161.022C148.578 160.697 148.822 160.237 149.186 160.072C149.55 159.907 150.643 159.667 150.905 159.484C151.167 159.301 151.056 157.843 150.23 157.361Z" fill="#0B288A"/>
<path d="M158.216 156.585L158.105 158.98C157.795 159.149 157.449 159.238 157.096 159.238C156.744 159.238 156.398 159.149 156.088 158.98L155.915 155.938" fill="#FF9393"/>
<path d="M158.104 158.979C158.352 159.249 158.517 159.585 158.58 159.947C158.615 160.366 158.589 160.788 158.504 161.2C158.504 161.329 157.989 161.391 157.278 161.4C156.568 161.409 156.181 161.342 155.888 161.338C155.417 161.338 154.382 161.382 153.769 161.405C153.187 161.433 152.603 161.374 152.037 161.231C151.78 161.11 151.549 160.5 153.028 160.143C153.794 159.941 154.538 159.662 155.248 159.309C155.519 159.176 155.8 159.066 156.088 158.979C156.088 158.979 157.722 159.135 158.104 158.979Z" fill="#1D27A5"/>
<path d="M141.2 126.379C140.96 127.028 140.581 127.616 140.09 128.101C139.723 128.364 139.335 128.599 138.931 128.801C138.775 128.89 137.598 129.006 137.31 129.09C137.021 129.175 137.19 129.371 137.803 129.461C138.415 129.55 139.797 129.768 140.356 129.768C140.571 129.764 140.781 129.712 140.973 129.616C141.165 129.521 141.334 129.384 141.467 129.215C141.773 128.81 141.831 128.279 142.044 128.043" fill="#FF9393"/>
<path d="M159.819 124.551C159.819 124.551 160.787 125.653 160.845 128.168C160.903 130.682 159.619 137.028 159.237 138.2C158.855 139.373 158.553 140.301 157.638 141.125C156.723 141.95 154.498 141.188 154.147 139.757C153.486 137.05 152.047 125.43 152.047 125.43C152.047 125.43 157.576 124.003 159.819 124.551Z" fill="#1D27A5"/>
<path d="M156.457 130.067C155.97 131.416 155.376 132.724 154.68 133.978C153.961 135.356 153.17 136.747 152.566 137.75C152.197 138.366 151.9 138.834 151.731 139.057C150.989 140.047 150.399 140.84 149.284 141.322C148.169 141.804 146.29 140.377 146.41 138.905C146.641 136.127 148.973 124.636 148.973 124.636C148.973 124.636 154.667 125.055 156.617 126.291C156.634 126.299 157.203 127.655 156.457 130.067Z" fill="#1D27A5"/>
<path d="M154.698 133.969C153.978 135.347 153.188 136.738 152.584 137.741C152.397 133.996 152.339 127.722 152.339 127.722L154.698 133.969Z" fill="#04207A"/>
<path d="M158.313 157.107C157.467 157.208 156.614 157.234 155.764 157.183C155.764 157.183 155.2 153.446 154.92 151.168C154.667 149.099 152.331 128.257 152.339 127.191C152.348 126.126 156.701 133.523 160.13 134.121L158.868 142.999C158.868 142.999 158.717 146.035 158.828 148.3C158.939 150.566 158.309 156.104 158.313 157.107Z" fill="#1D27A5"/>
<path d="M146.734 112.507C146.734 112.507 145.793 115.308 145.291 117.243C145.118 117.907 144.58 119.891 144.58 119.891C144.047 120.658 143.553 121.451 143.101 122.268C142.36 123.74 140.357 128.274 140.357 128.274L141.542 128.6C141.542 128.6 146.037 123.664 146.992 122.429C147.947 121.194 149.337 117.546 149.337 117.546" fill="#FF9393"/>
<path d="M145.411 115.598C145.411 115.598 144.522 119.259 144.283 119.776C144.043 120.293 140.672 127.084 140.672 127.084C141.212 127.586 141.825 128.004 142.488 128.324C142.488 128.324 146.93 123.624 147.707 122.34C148.484 121.056 149.279 117.412 149.279 117.412" fill="#F2E9E9"/>
<path d="M133.57 118.919C133.019 118.984 132.46 118.939 131.927 118.786C131.216 118.598 130.821 118.964 130.057 119.232C129.293 119.499 128.573 119.722 128.564 119.843C128.556 119.963 128.493 120.097 128.853 120.106C129.421 120.01 129.983 119.882 130.536 119.722C130.679 119.722 130.767 120.012 130.958 120.168C131.149 120.324 131.06 120.444 131.229 120.578C131.398 120.712 131.354 120.899 131.567 120.997C131.78 121.096 131.842 121.274 132.331 121.171C132.819 121.069 133.135 120.574 133.903 120.449" fill="#FF9393"/>
<path d="M143.728 104.512C144.218 104.591 144.673 104.82 145.029 105.168C145.445 105.564 145.774 106.042 145.997 106.572C146.012 106.886 146.136 107.184 146.348 107.415C146.708 107.799 149.084 107.353 149.834 106.769C150.585 106.185 150.869 105.476 150.434 105.163C150.084 104.96 149.719 104.784 149.342 104.637C148.844 104.398 148.393 104.072 148.009 103.674C147.751 103.326 147.574 102.923 147.494 102.497C147.413 101.976 147.387 101.449 147.414 100.923H146.081C146.081 100.923 142.142 104.28 143.728 104.512Z" fill="#FF9393"/>
<path d="M143.728 104.512C144.218 104.591 144.673 104.82 145.029 105.168C146.601 103.589 146.499 102.18 146.499 102.18L143.932 103.995C143.932 103.995 143.83 104.205 143.728 104.512Z" fill="#FF5F60"/>
<path d="M140.618 99.0546C140.618 99.0546 141.24 104.227 142.2 105.467C142.2 105.467 144.332 105.69 146.588 103.045C148.844 100.401 146.344 97.7972 145.495 97.2487C144.647 96.7003 141.111 96.3658 140.618 99.0546Z" fill="#FF9393"/>
<path d="M159.957 126.281C155.448 128.827 148.982 125.077 148.982 125.077C148.982 125.077 148.711 125.077 148.595 124.569C148.222 122.932 147.596 119.004 147.227 117.688C147.178 117.519 147.13 117.345 147.072 117.162C146.841 116.368 146.566 115.477 146.321 114.54C146.008 113.41 145.807 112.25 145.722 111.08C145.658 109.683 145.77 108.284 146.055 106.915C146.741 106.819 147.395 106.563 147.965 106.167C148.535 105.771 149.005 105.247 149.337 104.637C151.909 105.261 154.196 108.708 155.151 111.325C155.941 113.483 158.704 120.961 160.196 123.895C160.538 124.493 159.957 126.281 159.957 126.281Z" fill="white"/>
<path d="M148.24 100.682C147.967 101.122 147.777 101.609 147.68 102.118C147.627 102.39 147.534 102.604 147.374 102.564C146.979 102.497 147.023 101.9 146.832 101.449C146.641 100.999 146.45 101.137 146.175 100.794C145.899 100.451 146.024 99.9333 145.695 99.6345C145.366 99.3358 144.878 99.5097 144.918 99.9645C144.958 100.419 145.113 101.048 144.918 100.972C144.722 100.896 144.429 99.9734 144.256 99.7683C144.083 99.5632 143.812 99.8575 143.368 100.014C142.923 100.17 142.923 99.7639 142.266 99.3402C141.609 98.9166 141.32 99.6122 140.729 99.7549C140.139 99.8976 138.788 98.5153 139.215 97.7617C139.641 97.0082 140.707 97.6101 141.076 97.191C141.444 96.7718 140.885 95.3182 142.55 94.7474C144.083 94.2257 144.975 95.9335 145.544 96.1966C146.112 96.4597 146.81 95.6972 147.702 96.2858C148.595 96.8744 147.778 98.4217 147.965 99.1886C148.132 99.5775 148.26 99.9824 148.346 100.397C148.335 100.5 148.299 100.598 148.24 100.682Z" fill="#1D27A5"/>
<path d="M151.278 111.526C151.278 111.526 150.794 113.622 147.077 117.163C146.846 116.369 146.57 115.477 146.326 114.541C147.282 113.543 148.306 112.613 149.391 111.758L151.278 111.526Z" fill="#E4F9F9"/>
<path d="M151.145 110.675C151.145 110.675 145.948 117.582 144.456 118.313C142.964 119.044 141.791 117.238 142.266 115.959C142.742 114.679 147.525 108.485 147.525 108.485" fill="#FF9393"/>
<path d="M142.702 115.308C142.702 115.308 140.725 116.115 138.869 116.998C137.141 117.74 135.372 118.38 133.57 118.915C133.57 118.915 133.455 119.995 133.903 120.449C133.903 120.449 134.658 120.333 136.759 119.977C138.86 119.62 143.563 119.201 144.705 118.157" fill="#FF9393"/>
<path d="M150.563 107.179C150.563 107.179 151.989 107.335 152.424 109.431C152.779 111.121 147.663 116.062 145.189 118.349C141.63 119.443 137.992 120.255 134.307 120.779C133.818 120.208 133.521 119.497 133.459 118.746C133.459 118.746 142.191 115.032 142.342 114.835C143.617 113.163 147.809 106.595 150.563 107.179Z" fill="white"/>
<path d="M148.64 126.709C148.64 126.709 145.557 139.56 145.455 140.247C145.207 141.91 147.676 156.228 147.676 156.228C148.565 156.24 149.451 156.12 150.305 155.872C150.305 155.872 150.492 149.749 150.492 147.72C150.492 145.045 150.683 141.897 150.545 139.418" fill="#1D27A5"/>
<path d="M148.342 122.767C148.342 122.767 148.707 131.092 148.889 135.029C148.983 136.527 148.997 138.029 148.929 139.529C153.167 140.296 157.512 140.261 161.738 139.426C161.861 136.47 161.836 133.51 161.662 130.557C161.497 127.953 160.876 125.4 159.828 123.012C159.304 121.817 158.806 120.832 158.464 119.962" fill="white"/>
<path d="M191.837 178.88L177.465 71.627H205.219L219.596 178.88" stroke="white" stroke-width="2" stroke-miterlimit="10"/>
<path d="M177.465 71.627H205.219" stroke="white" stroke-width="2" stroke-miterlimit="10"/>
<path d="M179.272 82.7563H207.027" stroke="white" stroke-width="2" stroke-miterlimit="10"/>
<path d="M180.574 93.8813H208.328" stroke="white" stroke-width="2" stroke-miterlimit="10"/>
<path d="M182.128 105.012H209.883" stroke="white" stroke-width="2" stroke-miterlimit="10"/>
<path d="M183.412 116.137H211.166" stroke="white" stroke-width="2" stroke-miterlimit="10"/>
<path d="M185.086 127.267H212.841" stroke="white" stroke-width="2" stroke-miterlimit="10"/>
<path d="M186.419 138.396H214.173" stroke="white" stroke-width="2" stroke-miterlimit="10"/>
<path d="M187.973 149.522H215.727" stroke="white" stroke-width="2" stroke-miterlimit="10"/>
<path d="M189.603 160.651H217.358" stroke="white" stroke-width="2" stroke-miterlimit="10"/>
<path d="M194.124 100.192L195.115 102.421C194.811 102.627 194.463 102.757 194.099 102.8C193.735 102.842 193.366 102.797 193.023 102.667L191.668 100.767" fill="#FE9393"/>
<path d="M194.911 101.975C195.22 102.38 195.463 102.831 195.63 103.313C195.69 103.692 195.69 104.079 195.63 104.459C195.63 104.579 195.16 104.731 194.484 104.789C194.045 104.816 193.604 104.783 193.174 104.691C192.894 104.668 191.722 104.976 191.145 105.038C190.592 105.109 190.032 105.095 189.483 104.998C189.23 104.9 189.119 104.084 190.349 103.888C191.083 103.695 191.777 103.375 192.401 102.943C192.587 102.817 192.793 102.723 193.01 102.666C193.01 102.666 194.649 102.564 194.911 101.975Z" fill="#252BA2"/>
<path d="M205.303 110.447L205.961 112.637C205.732 112.885 205.444 113.073 205.125 113.181C204.805 113.289 204.463 113.315 204.131 113.256L203.021 110.581" fill="#FE9393"/>
<path d="M206.694 113.342C206.525 113.033 206.27 112.781 205.961 112.615C205.663 112.882 204.144 113.257 204.144 113.257C203.913 113.429 203.695 113.618 203.492 113.823C203.229 114.091 202.923 114.416 202.603 114.715C202.436 114.769 202.263 114.805 202.088 114.822C200.849 114.933 200.902 115.758 201.151 115.87C201.69 116.006 202.248 116.057 202.803 116.021C202.967 116.028 203.131 116.015 203.292 115.981C203.75 115.733 204.223 115.512 204.708 115.321C205.148 115.296 205.583 115.212 206.001 115.072C206.636 114.835 207.062 114.568 207.018 114.452C206.97 114.067 206.861 113.692 206.694 113.342Z" fill="#252BA2"/>
<path d="M197.344 97.472C199.952 104.018 203.562 111.959 203.562 111.959C203.562 111.959 205.033 112.115 205.654 111.317C205.654 111.317 204.544 103.523 203.878 101.637C203.212 99.7505 201.524 96.2368 201.524 96.2368L197.344 97.472Z" fill="#252BA2"/>
<path d="M201.675 88.5661C201.617 89.8058 201.462 96.1242 201.462 96.1242L197.158 96.7351L196.27 92.8825C195.977 91.5983 195.728 90.5058 195.564 89.7299C195.541 89.6497 195.528 89.565 195.506 89.4847C194.493 84.6511 193.889 80.308 193.889 80.308L200.791 78.627C201.404 79.8889 201.68 80.6781 201.871 82.9255C202.062 85.1728 201.733 87.3265 201.675 88.5661Z" fill="#252BA2"/>
<path d="M191.722 54.5039C191.722 54.5039 191.722 60.1223 192.583 60.4033C192.583 60.4033 196.31 60.6128 197.606 56.9966C198.903 53.3803 196.332 52.1273 195.004 52.1897C193.676 52.2521 191.846 52.1273 191.722 54.5039Z" fill="#FE9393"/>
<path d="M198.131 81.6328C197.518 82.8858 197.069 83.5992 195.426 85.1376C194.036 86.4029 192.565 87.5765 191.024 88.6513C190.602 88.9545 189.452 89.7527 188.257 90.5732C186.587 91.7414 184.828 92.9588 184.828 92.9588L183.15 91.349C182.811 90.7302 182.667 90.0228 182.737 89.3202C182.84 88.4437 183.19 87.6149 183.745 86.9301L183.771 86.8944C184.762 85.8243 185.548 85.1108 186.188 84.3483C189.412 80.4734 192.548 77.2139 192.548 77.2139L198.131 81.6328Z" fill="#252BA2"/>
<path d="M194.284 100.236C194.027 101.128 192.126 101.89 192.126 101.89C192.126 101.89 187.969 96.9541 183.785 92.2632C183.536 91.9862 183.323 91.6792 183.15 91.3491C182.811 90.7303 182.667 90.0229 182.737 89.3203L185.242 87.501C185.242 87.501 186.912 89.1241 188.257 90.5733C188.648 91.0192 189.012 91.4115 189.301 91.7594C190.576 93.3022 194.284 100.236 194.284 100.236Z" fill="#252BA2"/>
<path d="M194.027 59.752C194.027 59.752 194.405 60.5056 194.302 62.1554C195.252 62.4254 196.258 62.4254 197.207 62.1554C197.01 60.5265 197.01 58.8795 197.207 57.2505" fill="#FE9393"/>
<path d="M190.461 52.7428C190.499 53.4943 190.818 54.2036 191.354 54.7298C191.89 55.2561 192.603 55.5607 193.352 55.5832C193.352 55.5832 193.627 55.6992 193.65 56.4394C193.65 56.4394 193.681 55.7393 194.094 55.8552C194.507 55.9712 194.502 57.0636 194.302 57.3044C194.103 57.5452 194.547 59.4938 194.693 59.5785C195.472 59.6726 196.26 59.6726 197.038 59.5785C197.398 59.4715 198.349 57.5675 198.642 55.8998C198.935 54.2321 198.806 53.8219 197.944 53.4429C197.944 53.4429 198.304 52.2613 196.452 51.5032C194.6 50.7452 191.14 52.4485 190.461 52.7428Z" fill="#21227F"/>
<path d="M202.657 72.3272C202.397 72.8281 201.991 73.2373 201.493 73.4999C201.378 73.5713 201.262 73.6337 201.142 73.6961C200.883 73.8264 200.616 73.9411 200.343 74.0395L200.05 74.1376L199.69 74.2446L199.401 74.3159L197.305 69.2326L201.187 62.3657C201.216 62.3995 201.243 62.4352 201.267 62.4727C201.518 62.844 201.7 63.258 201.804 63.6945C201.804 63.7792 201.844 63.8684 201.862 63.9576C202.328 66.196 203.083 71.3997 202.657 72.3272Z" fill="white"/>
<path d="M201.494 73.4998C201.378 73.5712 201.263 73.6336 201.143 73.696C200.883 73.8263 200.616 73.9409 200.343 74.0394L200.05 74.1375L200.494 66.2896L201.494 73.4998Z" fill="#DFE5EA"/>
<path d="M201.551 78.4272C201.613 79.0426 201.662 79.4751 201.249 79.7025C200.836 79.9299 193.339 80.7861 190.145 79.8898C190.145 79.8898 189.803 79.7427 189.99 79.212C190.119 78.8026 190.182 78.3751 190.176 77.9457C190.216 74.967 189.945 66.477 190.509 61.8931C192.656 61.3143 194.874 61.0426 197.096 61.086C198.002 61.0968 198.903 61.2105 199.783 61.4249L200.045 61.4918C200.538 61.6688 200.962 62.0002 201.253 62.4371C200.923 63.6168 200.665 64.8155 200.48 66.0267C200.276 67.6631 201.426 77.2144 201.551 78.4272Z" fill="white"/>
<path d="M197.158 96.7358C197.197 96.9863 197.26 97.2326 197.344 97.4715C197.455 97.7569 199.761 97.8015 199.761 97.8015L200.698 97.4314L201.511 96.2364C201.478 96.0781 201.464 95.9164 201.471 95.7548C201.471 95.4382 198.255 96.009 198.255 96.009" fill="#252BA2"/>
<path d="M183.625 65.3528L183.474 63.5692C183.287 63.4162 183.136 63.2245 183.03 63.0073C182.917 62.628 182.844 62.238 182.812 61.8435C182.929 61.6888 183.065 61.5495 183.216 61.4289C183.453 61.3107 183.702 61.218 183.958 61.1524C183.97 60.9248 183.935 60.6971 183.856 60.4835C183.685 60.162 183.592 59.8045 183.585 59.4401C183.585 59.4401 183.634 59.293 183.723 59.293C183.946 59.5861 184.14 59.9014 184.3 60.2338C184.349 60.323 184.491 61.1256 184.531 61.1881C184.771 61.428 184.966 61.7088 185.108 62.0174C185.237 62.4054 184.962 63.1456 184.922 63.5469C184.956 64.048 185.048 64.5434 185.197 65.0228" fill="#FE9393"/>
<path d="M183.119 62.2897C183.119 62.2897 183.164 62.7044 183.173 62.8917C183.182 63.0789 183.022 63.186 182.959 63.1057C182.828 62.9056 182.733 62.6836 182.679 62.4502C182.713 62.2458 182.757 62.0434 182.813 61.8438C182.847 61.7155 182.892 61.5903 182.946 61.4692C182.96 61.4462 182.979 61.427 183.003 61.4138C183.026 61.4005 183.053 61.3936 183.079 61.3936C183.106 61.3936 183.133 61.4005 183.156 61.4138C183.179 61.427 183.199 61.4462 183.213 61.4692" fill="#FE9393"/>
<path d="M183.67 61.3397C183.632 61.2933 183.582 61.2581 183.526 61.2377C183.47 61.2173 183.409 61.2124 183.35 61.2237C183.248 61.2237 183.11 61.4512 183.11 61.4512L183.217 61.576" fill="#FE9393"/>
<path d="M184.052 61.2239C184.014 61.1771 183.964 61.1416 183.908 61.1212C183.852 61.1007 183.791 61.0962 183.732 61.108C183.629 61.1302 183.492 61.3354 183.492 61.3354L183.603 61.4602" fill="#FE9393"/>
<path d="M186.454 70.4185C186.361 71.1007 184.176 74.8508 183.98 74.0883C183.372 71.6982 183.372 64.5549 183.372 64.5549C183.969 64.3166 184.617 64.2322 185.255 64.3096C185.255 64.3096 185.735 66.12 186.09 67.801C186.21 68.3852 186.321 68.9559 186.388 69.4286C186.45 69.7546 186.472 70.087 186.454 70.4185Z" fill="white"/>
<path d="M186.388 69.4244C185.664 70.7175 184.402 72.8712 184.655 71.6539C185.007 70.3256 185.488 69.0352 186.091 67.8013C186.211 68.3854 186.322 68.9785 186.388 69.4244Z" fill="#DFE5EA"/>
<path d="M190.514 61.915C190.514 61.915 192.646 62.5438 193.015 64.3095C193.383 66.0753 187.036 74.9265 185.215 74.9176C184.078 74.9176 183.519 73.8118 184.207 72.5498C185.411 70.3426 188.587 62.352 190.514 61.915Z" fill="white"/>
<path d="M190.176 75.5376C190.149 77.1321 189.993 78.7217 189.71 80.2909C189.017 84.1569 188.218 90.2926 187.933 92.9591C190.582 94.96 193.867 95.9209 197.172 95.6612C199.37 95.4965 201.546 95.105 203.665 94.493L201.444 77.2142L190.176 75.5376Z" fill="white"/>
<path d="M208.595 49.7959H201.875C201.47 49.7959 201.142 50.1253 201.142 50.5316V54.032C201.142 54.4383 201.47 54.7677 201.875 54.7677H208.595C208.999 54.7677 209.327 54.4383 209.327 54.032V50.5316C209.327 50.1253 208.999 49.7959 208.595 49.7959Z" fill="#5499DE"/>
<path d="M202.936 54.29C202.936 54.29 203.118 55.9979 202.079 56.1718C202.079 56.1718 204.153 56.6489 204.104 54.29" fill="#5499DE"/>
<path d="M203.301 52.3282C203.301 52.4164 203.275 52.5026 203.226 52.576C203.177 52.6493 203.108 52.7064 203.027 52.7402C202.946 52.7739 202.856 52.7828 202.77 52.7656C202.684 52.7484 202.605 52.7059 202.543 52.6435C202.481 52.5812 202.438 52.5017 202.421 52.4152C202.404 52.3287 202.413 52.2391 202.446 52.1576C202.48 52.0761 202.537 52.0065 202.61 51.9575C202.683 51.9085 202.769 51.8823 202.857 51.8823C202.975 51.8823 203.088 51.9293 203.171 52.0129C203.254 52.0966 203.301 52.21 203.301 52.3282Z" fill="white"/>
<path d="M205.704 52.3282C205.708 52.4226 205.684 52.5161 205.634 52.5964C205.585 52.6767 205.512 52.7401 205.426 52.7783C205.34 52.8165 205.245 52.8276 205.152 52.8103C205.059 52.7929 204.974 52.7479 204.908 52.6811C204.841 52.6143 204.796 52.5289 204.779 52.436C204.762 52.3432 204.773 52.2472 204.811 52.1608C204.849 52.0744 204.912 52.0016 204.992 51.9519C205.072 51.9022 205.165 51.8779 205.259 51.8823C205.377 51.8823 205.49 51.9293 205.574 52.0129C205.657 52.0966 205.704 52.21 205.704 52.3282Z" fill="white"/>
<path d="M208.102 52.3283C208.106 52.4217 208.083 52.5143 208.034 52.5942C207.986 52.6741 207.915 52.7375 207.83 52.7764C207.745 52.8153 207.651 52.8278 207.559 52.8123C207.467 52.7969 207.382 52.7541 207.314 52.6896C207.247 52.6251 207.2 52.5418 207.18 52.4504C207.16 52.3591 207.168 52.2638 207.203 52.1769C207.237 52.0901 207.297 52.0156 207.374 51.9631C207.451 51.9106 207.542 51.8825 207.635 51.8824C207.696 51.8794 207.756 51.8887 207.812 51.9097C207.869 51.9308 207.92 51.9631 207.964 52.0048C208.008 52.0466 208.042 52.0967 208.066 52.1523C208.09 52.2079 208.102 52.2678 208.102 52.3283Z" fill="white"/>
<path d="M261.266 101.85H251.335C250.739 101.85 250.256 102.335 250.256 102.934V108.111C250.256 108.709 250.739 109.194 251.335 109.194H261.266C261.862 109.194 262.345 108.709 262.345 108.111V102.934C262.345 102.335 261.862 101.85 261.266 101.85Z" fill="#5499DE"/>
<path d="M252.903 108.485C252.903 108.485 253.174 111.009 251.637 111.272C251.637 111.272 254.702 111.972 254.631 108.485" fill="#5499DE"/>
<path d="M253.432 105.592C253.432 105.728 253.392 105.862 253.316 105.976C253.24 106.089 253.133 106.178 253.007 106.23C252.881 106.282 252.743 106.296 252.609 106.269C252.475 106.243 252.353 106.177 252.256 106.08C252.16 105.984 252.094 105.86 252.068 105.726C252.041 105.592 252.055 105.453 252.107 105.327C252.159 105.201 252.247 105.093 252.361 105.017C252.474 104.941 252.607 104.9 252.743 104.9C252.926 104.9 253.101 104.973 253.23 105.103C253.359 105.232 253.432 105.408 253.432 105.592Z" fill="white"/>
<path d="M256.985 105.592C256.985 105.728 256.944 105.862 256.869 105.976C256.793 106.089 256.685 106.178 256.56 106.23C256.434 106.282 256.295 106.296 256.162 106.269C256.028 106.243 255.905 106.177 255.809 106.08C255.713 105.984 255.647 105.86 255.621 105.726C255.594 105.592 255.608 105.453 255.66 105.327C255.712 105.201 255.8 105.093 255.913 105.017C256.027 104.941 256.16 104.9 256.296 104.9C256.479 104.9 256.654 104.973 256.783 105.103C256.912 105.232 256.985 105.408 256.985 105.592Z" fill="white"/>
<path d="M260.538 105.592C260.538 105.728 260.498 105.862 260.422 105.976C260.346 106.089 260.239 106.178 260.113 106.23C259.987 106.282 259.849 106.296 259.715 106.269C259.582 106.243 259.459 106.177 259.363 106.08C259.266 105.984 259.201 105.86 259.174 105.726C259.147 105.592 259.161 105.453 259.213 105.327C259.265 105.201 259.354 105.093 259.467 105.017C259.58 104.941 259.713 104.9 259.849 104.9C259.94 104.9 260.03 104.917 260.114 104.952C260.198 104.986 260.274 105.037 260.338 105.102C260.402 105.166 260.453 105.242 260.487 105.326C260.521 105.41 260.539 105.501 260.538 105.592Z" fill="white"/>
<path d="M32.9937 114.527H41.1393C41.6275 114.527 42.0232 114.13 42.0232 113.639V109.394C42.0232 108.904 41.6275 108.507 41.1393 108.507H32.9937C32.5056 108.507 32.1099 108.904 32.1099 109.394V113.639C32.1099 114.13 32.5056 114.527 32.9937 114.527Z" fill="#5499DE"/>
<path d="M39.8511 113.948C39.8511 113.948 39.6291 116.017 40.8904 116.231C40.8904 116.231 38.381 116.806 38.4343 113.948" fill="#5499DE"/>
<path d="M39.4113 111.575C39.4113 111.687 39.4443 111.797 39.5064 111.89C39.5684 111.983 39.6565 112.055 39.7596 112.098C39.8627 112.141 39.9761 112.152 40.0856 112.131C40.195 112.109 40.2956 112.055 40.3745 111.976C40.4534 111.896 40.5072 111.795 40.5289 111.686C40.5507 111.576 40.5395 111.462 40.4968 111.358C40.4541 111.255 40.3818 111.166 40.289 111.104C40.1962 111.042 40.0871 111.009 39.9755 111.009C39.8259 111.009 39.6823 111.068 39.5765 111.175C39.4707 111.281 39.4113 111.425 39.4113 111.575Z" fill="white"/>
<path d="M36.5066 111.575C36.5066 111.687 36.5398 111.797 36.602 111.89C36.6642 111.983 36.7526 112.056 36.856 112.099C36.9593 112.141 37.073 112.152 37.1826 112.13C37.2922 112.108 37.3927 112.054 37.4714 111.974C37.5502 111.894 37.6036 111.793 37.6248 111.683C37.6461 111.573 37.6343 111.459 37.5909 111.355C37.5475 111.252 37.4745 111.164 37.3811 111.102C37.2877 111.04 37.1782 111.008 37.0664 111.009C36.9925 111.009 36.9194 111.023 36.8512 111.052C36.7829 111.081 36.721 111.122 36.669 111.175C36.617 111.228 36.5758 111.29 36.5479 111.359C36.5201 111.427 36.506 111.501 36.5066 111.575Z" fill="white"/>
<path d="M33.5801 111.575C33.5801 111.687 33.6132 111.797 33.6752 111.89C33.7372 111.983 33.8254 112.055 33.9285 112.098C34.0316 112.141 34.145 112.152 34.2545 112.131C34.3639 112.109 34.4645 112.055 34.5434 111.976C34.6223 111.896 34.676 111.795 34.6978 111.686C34.7196 111.576 34.7084 111.462 34.6657 111.358C34.623 111.255 34.5507 111.166 34.4579 111.104C34.3651 111.042 34.256 111.009 34.1444 111.009C34.0703 111.009 33.9969 111.023 33.9285 111.052C33.86 111.08 33.7978 111.122 33.7454 111.175C33.693 111.227 33.6515 111.29 33.6231 111.358C33.5947 111.427 33.5801 111.501 33.5801 111.575Z" fill="white"/>
<path d="M237.442 174.243V176.919C238.006 177.051 238.593 177.051 239.157 176.919L239.281 173.904" fill="#FE9393"/>
<path d="M239.152 176.571C239.152 176.571 238.921 176.816 238.082 176.785C237.936 176.672 237.765 176.597 237.584 176.565C237.403 176.533 237.217 176.546 237.042 176.602C236.622 176.979 236.133 177.273 235.603 177.467C235.004 177.587 234.307 177.659 234.142 177.913C234.095 177.976 234.061 178.048 234.044 178.125C234.026 178.202 234.025 178.281 234.04 178.359C234.04 178.359 234 178.47 234.733 178.502C235.466 178.533 237.802 178.43 238.206 178.452C238.608 178.49 239.013 178.472 239.41 178.399C239.663 178.319 239.663 177.039 239.152 176.571Z" fill="#2034AA"/>
<path d="M252.263 173.538L253.049 176.107C253.626 176.066 254.187 175.894 254.688 175.603L253.928 172.687" fill="#FE9393"/>
<path d="M255.652 176.668C255.337 176.923 254.989 177.133 254.617 177.293C254.413 177.386 253.702 177.801 253.001 178.184C252.729 178.336 252.423 178.417 252.112 178.421H250.962C250.749 178.421 250.669 178.274 250.678 178.184C250.678 177.939 250.895 177.738 251.229 177.676C251.469 177.625 251.696 177.523 251.895 177.378C252.094 177.233 252.261 177.047 252.383 176.833C252.596 176.49 252.743 176.196 252.743 176.196C252.871 176.063 253.028 175.964 253.202 175.906C253.376 175.848 253.561 175.832 253.742 175.861C254.497 175.487 254.586 175.161 254.586 175.161C255.23 175.366 255.852 176.481 255.652 176.668Z" fill="#2034AA"/>
<path d="M243.66 145.736C243.624 146.271 243.575 146.739 243.513 147.105C243.38 147.894 243.069 149.151 242.652 150.551C241.959 152.964 241.053 155.804 240.546 157.445C242.505 161.458 239.711 174.791 239.361 175.897C238.672 176.032 237.961 175.996 237.291 175.789C236.873 169.649 236.154 157.164 236.163 156.87C236.323 150.551 237.095 144.732 237.158 143.805C237.22 142.877 237.317 137.683 237.762 137.509C238.743 137.143 241.279 136.296 242.421 137.955C243.593 139.72 243.78 143.377 243.66 145.736Z" fill="#2034AA"/>
<path d="M243.66 145.736C243.625 146.271 243.576 146.739 243.514 147.105C243.38 147.894 243.069 149.152 242.652 150.552C242.527 148.563 242.301 143.043 242.301 143.043L243.66 145.736Z" fill="#102772"/>
<path d="M222.665 126.7L221.262 126.362C220.971 126.166 220.712 125.927 220.493 125.653C220.323 125.475 220.114 125.339 219.883 125.257C219.652 125.174 219.405 125.146 219.161 125.175C219.014 125.175 219.001 125.367 219.259 125.541C219.432 125.662 219.729 125.604 219.832 125.987C219.876 126.17 219.387 126.174 219.112 126.085C218.837 125.996 217.966 125.577 217.74 125.479C217.513 125.381 217.322 125.532 217.913 125.965C218.212 126.191 218.526 126.395 218.855 126.576C218.916 126.703 218.986 126.827 219.063 126.946C219.094 126.976 219.13 127 219.17 127.017C219.225 127.137 219.291 127.252 219.365 127.36C219.377 127.376 219.392 127.388 219.41 127.396L219.561 127.717C219.743 128.087 220.449 127.98 220.764 127.94C221.32 127.983 221.871 128.071 222.412 128.203L222.665 126.7Z" fill="#FE9393"/>
<path d="M219.254 126.579C218.951 126.555 218.653 126.493 218.366 126.392C217.837 126.214 217.171 125.839 217.033 125.826C216.896 125.813 216.882 125.986 217.033 126.125C217.293 126.32 217.571 126.491 217.864 126.633C218.375 126.819 218.895 126.979 219.423 127.11" fill="#FE9393"/>
<path d="M219.436 126.946C219.131 126.958 218.824 126.93 218.526 126.861C217.984 126.745 217.278 126.451 217.14 126.451C217.003 126.451 217.007 126.625 217.176 126.745C217.457 126.912 217.755 127.051 218.064 127.16C218.371 127.271 219.667 127.606 219.667 127.606" fill="#FE9393"/>
<path d="M219.876 127.494C219.578 127.505 219.279 127.476 218.988 127.409C218.446 127.293 217.74 126.999 217.602 126.999C217.465 126.999 217.469 127.173 217.633 127.293C217.916 127.46 218.213 127.599 218.522 127.708C219.049 127.834 219.583 127.932 220.121 128.002" fill="#FE9393"/>
<path d="M237.318 120.627C237.318 120.627 231.935 125.394 230.336 127.423C230.757 128.288 231.409 129.018 232.219 129.532C234.113 128.637 235.949 127.625 237.717 126.5" fill="white"/>
<path d="M230.482 127.231L222.194 126.5L221.888 128.225C221.888 128.225 228.159 130.637 230.5 130.637C232.418 130.637 237.109 126.901 237.109 126.901L230.482 127.231Z" fill="white"/>
<path d="M254.555 174.408C253.971 174.877 253.23 175.104 252.485 175.041C252.658 175.282 246.822 162.141 245.876 159.475C245.818 159.301 245.574 158.583 245.503 158.347C245.059 156.951 243.598 149.826 242.905 147.039L240.937 138.094C240.937 138.094 238.272 138.455 240.173 138.344C242.62 138.196 245.667 136.975 245.667 136.975C249.736 140.466 250.109 144.479 249.944 146.481C249.873 147.292 249.856 148.107 249.891 148.92C250.038 151.917 249.536 155.926 249.651 157.928C254.07 164.037 254.319 172.201 254.555 174.408Z" fill="#2034AA"/>
<path d="M237.318 120.627C238.046 120.017 239.259 119.49 241.848 119.41C242.674 119.272 242.603 118.964 244.069 119.348C245.788 119.794 247.778 120.173 248.066 120.824C248.355 121.475 248.648 127.802 248.239 129.991C247.929 131.641 248.115 137.541 249.203 141.433C249.47 142.383 243.101 139.311 241.329 139.311C239.756 139.311 237.482 139.253 237.433 138.731C237.327 137.634 237.322 136.769 237.309 135.975C237.314 134.714 236.701 121.341 237.318 120.627Z" fill="white"/>
<path d="M247.173 136.408C247.285 137.357 247.602 138.27 248.101 139.084C249.309 141.186 250.057 143.522 250.295 145.937C250.571 148.76 250.544 157.085 250.544 157.085C250.544 157.085 244.837 157.771 239.885 157.085L239.716 137.505L247.173 136.408Z" fill="white"/>
<path d="M251.695 132.622C251.695 130.424 251.437 124.547 249.141 121.519C248.253 120.346 246.201 119.887 246.201 119.887L246.245 125.345C246.298 127.383 247.666 132.903 247.666 132.903H251.664C251.68 132.81 251.69 132.716 251.695 132.622Z" fill="white"/>
<path d="M244.344 137.028L236.349 133.639C236.274 133.605 236.213 133.545 236.18 133.469C236.146 133.393 236.142 133.307 236.167 133.228L239.778 122.527C239.792 122.483 239.815 122.443 239.846 122.408C239.877 122.374 239.914 122.347 239.956 122.328C239.998 122.31 240.044 122.3 240.09 122.301C240.135 122.301 240.181 122.311 240.222 122.331L248.217 125.719C248.294 125.75 248.355 125.81 248.389 125.885C248.423 125.961 248.427 126.047 248.399 126.125L244.793 136.827C244.778 136.871 244.754 136.911 244.723 136.946C244.692 136.98 244.654 137.007 244.612 137.026C244.57 137.045 244.524 137.055 244.478 137.055C244.432 137.055 244.386 137.046 244.344 137.028Z" fill="#6AB4E5"/>
<path d="M241.382 130.464C241.02 130.321 240.67 130.151 240.334 129.956C240.214 129.835 239.787 128.618 239.29 128.404C239.055 128.424 238.835 128.523 238.664 128.685C238.314 129.142 238.106 129.693 238.064 130.268C238.064 130.758 238.863 131.16 238.952 131.235C239.504 131.44 240.044 131.677 240.569 131.944" fill="#FE9393"/>
<path d="M239.889 129.104C239.728 128.788 239.508 128.507 239.241 128.274C238.97 128.087 238.903 128.016 238.796 128.163C238.765 128.283 238.763 128.41 238.792 128.531C238.82 128.653 238.878 128.765 238.961 128.858" fill="#FE9393"/>
<path d="M240.551 130.959C240.389 131.32 240.292 131.706 240.262 132.1C240.262 132.1 247.328 136.198 249.762 136.72L250.1 132.707L241.07 130.25C240.849 130.447 240.672 130.688 240.551 130.959Z" fill="white"/>
<path d="M245.557 119.713C245.557 119.713 243.891 120.97 241.848 119.405L242.15 118.817C242.37 118.433 242.53 118.018 242.625 117.586C242.625 117.546 242.647 117.497 242.661 117.452C242.7 117.256 242.728 117.058 242.745 116.859C242.783 116.456 242.772 116.051 242.714 115.651L242.914 115.49L246.169 112.917L246.543 112.627C246.543 112.627 246.436 113.252 246.285 114.17C246.205 114.688 246.107 115.298 246.01 115.954C245.823 117.251 245.636 118.678 245.557 119.713Z" fill="#FE9393"/>
<path d="M245.05 116.021C244.299 117.153 243.311 118.107 242.154 118.817C242.374 118.433 242.534 118.018 242.63 117.586C242.434 117.644 242.233 117.682 242.03 117.702C242.03 117.55 242.03 117.394 242.03 117.256L242.248 117.122L242.736 116.881L245.312 115.624C245.312 115.624 245.228 115.767 245.05 116.021Z" fill="#E15F60"/>
<path d="M240.169 111.062C240.169 111.062 239.632 112.547 240.614 113.395L241.058 111.129L240.169 111.062Z" fill="#3F49A5"/>
<path d="M245.579 115.526C245.422 115.746 245.253 115.956 245.072 116.155C244.77 116.49 244.43 116.789 244.06 117.047C243.665 117.324 243.227 117.532 242.763 117.662C242.576 117.719 242.384 117.756 242.19 117.774C241.739 117.83 241.283 117.743 240.884 117.524C240.111 116.369 240.138 114.501 240.316 113.065C240.382 112.494 240.48 111.995 240.555 111.643C240.631 111.29 240.675 111.139 240.675 111.139C240.678 111.125 240.678 111.112 240.675 111.099C241.013 109.266 243.451 109.203 245.117 110.233C245.216 110.293 245.311 110.358 245.401 110.43C245.865 110.755 246.238 111.194 246.485 111.705C246.88 112.575 246.636 113.555 246.236 114.38L246.169 114.514C245.998 114.866 245.8 115.204 245.579 115.526Z" fill="#FE9393"/>
<path d="M245.738 110.683C245.738 110.683 243.686 113.184 240.355 111.574C239.165 110.99 238.952 108.266 240.022 108.453C241.55 108.703 243.153 107.218 244.841 108.096C245.383 108.342 245.969 109.617 245.738 110.683Z" fill="#3F49A5"/>
<path d="M245.019 110.488C245.019 110.488 243.864 116.53 245.086 113.756C245.086 113.756 245.396 112.98 245.974 113.052C246.551 113.123 246.085 115.201 246.005 116.084C246.005 116.084 247.288 115.161 247.782 112.418C248.275 109.676 246.414 108.552 245.401 109.743L245.019 110.488Z" fill="#3F49A5"/>
<path d="M245.846 113.484C245.846 113.484 245.53 113.525 245.463 114.104C245.397 114.684 245.77 114.8 245.841 114.497C245.913 114.193 245.637 114.006 245.575 114.131C245.56 114.009 245.577 113.885 245.625 113.772C245.672 113.658 245.749 113.559 245.846 113.484Z" fill="#E15F60"/>
<path d="M251.695 131.762C251.695 131.762 252.139 137.162 249.776 136.707C248 135.681 248.444 132.373 248.444 132.373C248.444 132.373 250.029 131.526 250.22 131.624C250.707 131.713 251.2 131.759 251.695 131.762Z" fill="white"/>
<path d="M239.188 128.939C238.952 128.703 238.738 128.446 238.548 128.172C238.446 127.958 238.175 127.115 238.033 127.057C237.962 127.03 237.806 127.03 237.886 127.503C237.937 127.833 238.005 128.161 238.091 128.484C238.29 128.798 238.513 129.096 238.757 129.376" fill="#FE9393"/>
<path d="M238.939 129.385C238.703 129.149 238.489 128.893 238.299 128.618C238.197 128.404 237.926 127.561 237.784 127.503C237.713 127.477 237.557 127.477 237.637 127.949C237.687 128.28 237.754 128.607 237.837 128.93C238.038 129.243 238.261 129.541 238.504 129.822" fill="#FE9393"/>
<path d="M238.775 129.857C238.539 129.621 238.325 129.365 238.135 129.09C238.033 128.876 237.762 128.034 237.62 127.976C237.548 127.949 237.393 127.949 237.473 128.422C237.524 128.752 237.592 129.079 237.677 129.402C237.877 129.716 238.1 130.014 238.344 130.294" fill="#FE9393"/>
<path d="M238.619 130.304C238.412 130.098 238.224 129.872 238.06 129.63C237.966 129.443 237.731 128.698 237.615 128.649C237.5 128.6 237.411 128.622 237.482 129.059C237.527 129.349 237.588 129.637 237.664 129.92C237.84 130.197 238.036 130.461 238.251 130.709" fill="#FE9393"/>
<path d="M237.344 136.706L235.479 156.468C236.311 156.707 237.171 156.833 238.037 156.843L239.911 137.892L237.344 136.706Z" fill="white"/>
<path d="M241.382 119.428L241.968 118.728C242.268 119.011 242.61 119.248 242.981 119.428V120.257C242.414 120.052 241.876 119.773 241.382 119.428Z" fill="white"/>
<path d="M242.98 120.029L243.242 119.477C243.242 119.477 245.086 119.477 245.761 119.106L246.005 119.833C245.543 120.079 245.035 120.224 244.514 120.257C243.992 120.291 243.47 120.214 242.98 120.029Z" fill="white"/>
<path d="M245.134 131.343C245.614 131.418 246.089 131.525 246.56 131.632C247.031 131.739 247.502 131.869 247.968 132.003L247.835 132.132C247.679 131.485 247.537 130.834 247.435 130.174C247.67 130.803 247.879 131.436 248.044 132.078L248.092 132.257L247.91 132.208C247.444 132.087 246.978 131.958 246.511 131.815C246.045 131.673 245.587 131.521 245.134 131.343Z" fill="#DFE5EA"/>
<path fill-rule="evenodd" clip-rule="evenodd" d="M272.161 179H10.853V177.619H272.161V179Z" fill="#2A5B87"/>
<path d="M24.9854 79.5505L20.4285 71.6268L24.9854 63.7031H34.0993L38.6562 71.6268L34.0993 79.5505H24.9854Z" stroke="#A4E0EA" stroke-width="1.09" stroke-miterlimit="10"/>
<path d="M47.7969 87.4745L52.3538 79.5508H61.4676L66.0246 87.4745" stroke="#A4E0EA" stroke-width="1.09" stroke-miterlimit="10"/>
<path d="M38.6831 71.6267L34.1262 63.703L38.6831 55.7793H47.797L52.3539 63.703L47.797 71.6267H38.6831Z" stroke="#A4E0EA" stroke-width="1.09" stroke-miterlimit="10"/>
<path d="M11.3151 55.7793H20.4289L24.9858 63.703L20.4289 71.6267H11.3151" stroke="#A4E0EA" stroke-width="1.09" stroke-miterlimit="10"/>
<path d="M38.6831 87.4744L34.1262 79.5507L38.6831 71.627H47.797L52.3539 79.5507L47.797 87.4744H38.6831Z" stroke="#A4E0EA" stroke-width="1.09" stroke-miterlimit="10"/>
<path d="M24.9858 64.9743C25.6849 64.9743 26.2516 64.4053 26.2516 63.7034C26.2516 63.0016 25.6849 62.4326 24.9858 62.4326C24.2867 62.4326 23.72 63.0016 23.72 63.7034C23.72 64.4053 24.2867 64.9743 24.9858 64.9743Z" fill="#A4E0EA"/>
<path d="M34.1263 64.9743C34.8254 64.9743 35.3921 64.4053 35.3921 63.7034C35.3921 63.0016 34.8254 62.4326 34.1263 62.4326C33.4272 62.4326 32.8605 63.0016 32.8605 63.7034C32.8605 64.4053 33.4272 64.9743 34.1263 64.9743Z" fill="#A4E0EA"/>
<path d="M38.7095 57.0504C39.4086 57.0504 39.9753 56.4815 39.9753 55.7796C39.9753 55.0778 39.4086 54.5088 38.7095 54.5088C38.0104 54.5088 37.4437 55.0778 37.4437 55.7796C37.4437 56.4815 38.0104 57.0504 38.7095 57.0504Z" fill="#A4E0EA"/>
<path d="M47.8234 57.0504C48.5225 57.0504 49.0892 56.4815 49.0892 55.7796C49.0892 55.0778 48.5225 54.5088 47.8234 54.5088C47.1243 54.5088 46.5576 55.0778 46.5576 55.7796C46.5576 56.4815 47.1243 57.0504 47.8234 57.0504Z" fill="#A4E0EA"/>
<path d="M39.9222 71.6268C39.9222 71.8781 39.8479 72.1238 39.7089 72.3328C39.5698 72.5418 39.3721 72.7047 39.1408 72.8009C38.9095 72.8971 38.655 72.9222 38.4094 72.8732C38.1639 72.8242 37.9383 72.7031 37.7613 72.5254C37.5843 72.3477 37.4637 72.1212 37.4149 71.8747C37.366 71.6282 37.3911 71.3727 37.4869 71.1405C37.5827 70.9082 37.745 70.7098 37.9531 70.5701C38.1613 70.4305 38.406 70.356 38.6564 70.356C38.9917 70.3571 39.313 70.4914 39.5501 70.7295C39.7873 70.9675 39.921 71.2901 39.9222 71.6268Z" fill="#A4E0EA"/>
<path d="M52.3536 64.9743C53.0527 64.9743 53.6194 64.4053 53.6194 63.7034C53.6194 63.0016 53.0527 62.4326 52.3536 62.4326C51.6545 62.4326 51.0878 63.0016 51.0878 63.7034C51.0878 64.4053 51.6545 64.9743 52.3536 64.9743Z" fill="#A4E0EA"/>
<path d="M49.0627 71.6268C49.0627 71.8781 48.9884 72.1238 48.8494 72.3328C48.7103 72.5418 48.5126 72.7047 48.2813 72.8009C48.05 72.8971 47.7955 72.9222 47.5499 72.8732C47.3044 72.8242 47.0788 72.7031 46.9018 72.5254C46.7248 72.3477 46.6042 72.1212 46.5554 71.8747C46.5065 71.6282 46.5316 71.3727 46.6274 71.1405C46.7232 70.9082 46.8855 70.7098 47.0936 70.5701C47.3018 70.4305 47.5465 70.356 47.7969 70.356C48.1322 70.3571 48.4535 70.4914 48.6906 70.7295C48.9278 70.9675 49.0615 71.2901 49.0627 71.6268Z" fill="#A4E0EA"/>
<path d="M35.3921 79.5546C35.3912 79.8057 35.3162 80.051 35.1766 80.2594C35.037 80.4678 34.839 80.63 34.6076 80.7255C34.3762 80.821 34.1219 80.8455 33.8766 80.796C33.6314 80.7465 33.4062 80.6251 33.2297 80.4472C33.0531 80.2693 32.933 80.0428 32.8845 79.7964C32.836 79.55 32.8613 79.2947 32.9573 79.0628C33.0532 78.8308 33.2154 78.6326 33.4235 78.4932C33.6316 78.3537 33.8761 78.2793 34.1263 78.2793C34.4624 78.2805 34.7844 78.4154 35.0216 78.6544C35.2589 78.8934 35.3921 79.2171 35.3921 79.5546Z" fill="#A4E0EA"/>
<path d="M53.6465 79.5546C53.6456 79.8057 53.5706 80.051 53.431 80.2594C53.2914 80.4678 53.0934 80.63 52.862 80.7255C52.6306 80.821 52.3763 80.8455 52.131 80.796C51.8858 80.7465 51.6606 80.6251 51.484 80.4472C51.3075 80.2693 51.1874 80.0428 51.1389 79.7964C51.0904 79.55 51.1157 79.2947 51.2116 79.0628C51.3076 78.8308 51.4698 78.6326 51.6779 78.4932C51.886 78.3537 52.1305 78.2793 52.3807 78.2793C52.7168 78.2805 53.0388 78.4154 53.276 78.6544C53.5133 78.8934 53.6465 79.2171 53.6465 79.5546Z" fill="#A4E0EA"/>
<path d="M47.7969 88.7453C48.496 88.7453 49.0627 88.1763 49.0627 87.4744C49.0627 86.7726 48.496 86.2036 47.7969 86.2036C47.0978 86.2036 46.5311 86.7726 46.5311 87.4744C46.5311 88.1763 47.0978 88.7453 47.7969 88.7453Z" fill="#A4E0EA"/>
<path d="M66.0247 88.7453C66.7238 88.7453 67.2905 88.1763 67.2905 87.4744C67.2905 86.7726 66.7238 86.2036 66.0247 86.2036C65.3256 86.2036 64.7589 86.7726 64.7589 87.4744C64.7589 88.1763 65.3256 88.7453 66.0247 88.7453Z" fill="#A4E0EA"/>
<path d="M38.7095 88.7453C39.4086 88.7453 39.9753 88.1763 39.9753 87.4744C39.9753 86.7726 39.4086 86.2036 38.7095 86.2036C38.0104 86.2036 37.4437 86.7726 37.4437 87.4744C37.4437 88.1763 38.0104 88.7453 38.7095 88.7453Z" fill="#A4E0EA"/>
<path d="M26.2516 79.5546C26.2507 79.8057 26.1757 80.051 26.0361 80.2594C25.8965 80.4678 25.6985 80.63 25.4671 80.7255C25.2357 80.821 24.9814 80.8455 24.7361 80.796C24.4909 80.7465 24.2657 80.6251 24.0892 80.4472C23.9126 80.2693 23.7925 80.0428 23.744 79.7964C23.6955 79.55 23.7208 79.2947 23.8167 79.0628C23.9127 78.8308 24.0749 78.6326 24.283 78.4932C24.4911 78.3537 24.7356 78.2793 24.9858 78.2793C25.1524 78.2793 25.3173 78.3123 25.4712 78.3765C25.6251 78.4406 25.7648 78.5346 25.8824 78.6531C26 78.7716 26.0932 78.9122 26.1565 79.0669C26.2199 79.2216 26.2522 79.3873 26.2516 79.5546Z" fill="#A4E0EA"/>
<path d="M21.6949 71.6268C21.6949 71.8781 21.6206 72.1238 21.4816 72.3328C21.3425 72.5418 21.1448 72.7047 20.9135 72.8009C20.6822 72.8971 20.4277 72.9222 20.1821 72.8732C19.9366 72.8242 19.711 72.7031 19.534 72.5254C19.357 72.3477 19.2364 72.1212 19.1876 71.8747C19.1388 71.6282 19.1638 71.3727 19.2596 71.1405C19.3554 70.9082 19.5177 70.7098 19.7258 70.5701C19.934 70.4305 20.1787 70.356 20.4291 70.356C20.7644 70.3571 21.0857 70.4914 21.3228 70.7295C21.56 70.9675 21.6937 71.2901 21.6949 71.6268Z" fill="#A4E0EA"/>
<path d="M217.318 32.3386L212.761 24.4149L217.318 16.4912H226.432L230.989 24.4149L226.432 32.3386H217.318Z" stroke="#A4E0EA" stroke-width="1.09" stroke-miterlimit="10"/>
<path d="M240.129 40.2626L244.686 32.3389H253.8L258.357 40.2626" stroke="#A4E0EA" stroke-width="1.09" stroke-miterlimit="10"/>
<path d="M231.015 24.4148L226.458 16.4911L231.015 8.56738H240.129L244.686 16.4911L240.129 24.4148H231.015Z" stroke="#A4E0EA" stroke-width="1.09" stroke-miterlimit="10"/>
<path d="M212.761 8.56738L217.318 16.4911L212.761 24.4148H203.652" stroke="#A4E0EA" stroke-width="1.09" stroke-miterlimit="10"/>
<path d="M226.458 32.3383L231.015 24.4146H240.129L244.686 32.3383L240.129 40.262" stroke="#A4E0EA" stroke-width="1.09" stroke-miterlimit="10"/>
<path d="M218.588 16.4906C218.589 16.7432 218.515 16.9903 218.376 17.2007C218.236 17.4111 218.038 17.5753 217.806 17.6724C217.574 17.7694 217.318 17.7951 217.071 17.746C216.824 17.6969 216.597 17.5754 216.419 17.3968C216.242 17.2182 216.12 16.9905 216.072 16.7427C216.023 16.4949 216.048 16.2381 216.145 16.0049C216.242 15.7717 216.405 15.5726 216.615 15.4328C216.824 15.293 217.071 15.2189 217.322 15.2197C217.657 15.2209 217.979 15.3552 218.216 15.5932C218.453 15.8313 218.587 16.1539 218.588 16.4906Z" fill="#A4E0EA"/>
<path d="M212.761 10.0788C213.46 10.0788 214.027 9.50978 214.027 8.80793C214.027 8.10608 213.46 7.53711 212.761 7.53711C212.062 7.53711 211.495 8.10608 211.495 8.80793C211.495 9.50978 212.062 10.0788 212.761 10.0788Z" fill="#A4E0EA"/>
<path d="M226.459 17.7614C227.158 17.7614 227.724 17.1924 227.724 16.4906C227.724 15.7887 227.158 15.2197 226.459 15.2197C225.76 15.2197 225.193 15.7887 225.193 16.4906C225.193 17.1924 225.76 17.7614 226.459 17.7614Z" fill="#A4E0EA"/>
<path d="M231.042 9.83853C231.741 9.83853 232.308 9.26956 232.308 8.5677C232.308 7.86585 231.741 7.29688 231.042 7.29688C230.343 7.29688 229.776 7.86585 229.776 8.5677C229.776 9.26956 230.343 9.83853 231.042 9.83853Z" fill="#A4E0EA"/>
<path d="M240.156 9.83853C240.855 9.83853 241.422 9.26956 241.422 8.5677C241.422 7.86585 240.855 7.29688 240.156 7.29688C239.457 7.29688 238.89 7.86585 238.89 8.5677C238.89 9.26956 239.457 9.83853 240.156 9.83853Z" fill="#A4E0EA"/>
<path d="M232.259 24.4149C232.26 24.6673 232.186 24.9143 232.047 25.1246C231.908 25.3349 231.71 25.4991 231.478 25.5963C231.246 25.6935 230.991 25.7194 230.744 25.6707C230.497 25.622 230.27 25.5009 230.092 25.3227C229.914 25.1445 229.793 24.9173 229.743 24.6698C229.694 24.4223 229.719 24.1656 229.815 23.9323C229.911 23.699 230.074 23.4996 230.283 23.3593C230.492 23.219 230.737 23.144 230.989 23.144C231.325 23.144 231.647 23.2778 231.886 23.516C232.124 23.7542 232.258 24.0774 232.259 24.4149Z" fill="#A4E0EA"/>
<path d="M244.686 17.7614C245.385 17.7614 245.952 17.1924 245.952 16.4906C245.952 15.7887 245.385 15.2197 244.686 15.2197C243.987 15.2197 243.42 15.7887 243.42 16.4906C243.42 17.1924 243.987 17.7614 244.686 17.7614Z" fill="#A4E0EA"/>
<path d="M241.399 24.4149C241.4 24.6673 241.326 24.9143 241.187 25.1246C241.048 25.3349 240.85 25.4991 240.618 25.5963C240.386 25.6935 240.13 25.7194 239.884 25.6707C239.637 25.622 239.41 25.5009 239.232 25.3227C239.054 25.1445 238.933 24.9173 238.883 24.6698C238.834 24.4223 238.859 24.1656 238.955 23.9323C239.051 23.699 239.214 23.4996 239.423 23.3593C239.632 23.219 239.877 23.144 240.129 23.144C240.465 23.144 240.787 23.2778 241.025 23.516C241.264 23.7542 241.398 24.0774 241.399 24.4149Z" fill="#A4E0EA"/>
<path d="M227.728 32.3382C227.729 32.5906 227.656 32.8376 227.517 33.0479C227.377 33.2582 227.179 33.4224 226.947 33.5196C226.715 33.6168 226.46 33.6427 226.213 33.594C225.966 33.5453 225.74 33.4242 225.562 33.246C225.383 33.0678 225.262 32.8406 225.213 32.5931C225.163 32.3456 225.188 32.089 225.284 31.8557C225.38 31.6224 225.543 31.4229 225.752 31.2826C225.961 31.1423 226.207 31.0674 226.458 31.0674C226.794 31.0674 227.117 31.2011 227.355 31.4393C227.593 31.6775 227.727 32.0007 227.728 32.3382Z" fill="#A4E0EA"/>
<path d="M245.983 32.3382C245.984 32.5906 245.91 32.8376 245.771 33.0479C245.632 33.2582 245.434 33.4224 245.202 33.5196C244.97 33.6168 244.714 33.6427 244.468 33.594C244.221 33.5453 243.994 33.4242 243.816 33.246C243.638 33.0678 243.516 32.8406 243.467 32.5931C243.418 32.3456 243.443 32.089 243.539 31.8557C243.635 31.6224 243.797 31.4229 244.006 31.2826C244.215 31.1423 244.461 31.0674 244.713 31.0674C245.049 31.0674 245.371 31.2011 245.609 31.4393C245.847 31.6775 245.982 32.0007 245.983 32.3382Z" fill="#A4E0EA"/>
<path d="M241.399 40.2665C241.399 40.5187 241.325 40.7653 241.185 40.975C241.045 41.1847 240.847 41.3482 240.615 41.4447C240.383 41.5412 240.127 41.5665 239.881 41.5173C239.635 41.4681 239.408 41.3466 239.231 41.1683C239.053 40.9899 238.932 40.7627 238.883 40.5153C238.834 40.2679 238.859 40.0115 238.955 39.7785C239.051 39.5454 239.214 39.3463 239.423 39.2061C239.632 39.066 239.878 38.9912 240.129 38.9912C240.296 38.9912 240.461 39.0242 240.615 39.0883C240.769 39.1524 240.909 39.2463 241.027 39.3647C241.145 39.4832 241.239 39.6237 241.302 39.7785C241.366 39.9332 241.399 40.099 241.399 40.2665Z" fill="#A4E0EA"/>
<path d="M258.357 41.5329C259.056 41.5329 259.622 40.9639 259.622 40.2621C259.622 39.5602 259.056 38.9912 258.357 38.9912C257.657 38.9912 257.091 39.5602 257.091 40.2621C257.091 40.9639 257.657 41.5329 258.357 41.5329Z" fill="#A4E0EA"/>
<path d="M218.588 32.3386C218.591 32.5915 218.519 32.8396 218.381 33.0511C218.242 33.2627 218.045 33.4282 217.813 33.5267C217.58 33.6251 217.324 33.652 217.077 33.604C216.83 33.556 216.602 33.4351 216.423 33.2569C216.244 33.0786 216.122 32.851 216.073 32.603C216.023 32.3549 216.048 32.0977 216.145 31.864C216.241 31.6302 216.405 31.4306 216.614 31.2904C216.824 31.1502 217.071 31.0758 217.323 31.0767C217.656 31.0778 217.976 31.2109 218.213 31.447C218.45 31.6832 218.585 32.0034 218.588 32.3386Z" fill="#A4E0EA"/>
<path d="M214.031 24.4149C214.032 24.6673 213.958 24.9143 213.819 25.1246C213.68 25.3349 213.482 25.4991 213.25 25.5963C213.018 25.6935 212.763 25.7194 212.516 25.6707C212.269 25.622 212.042 25.5009 211.864 25.3227C211.686 25.1445 211.565 24.9173 211.515 24.6698C211.466 24.4223 211.491 24.1656 211.587 23.9323C211.683 23.699 211.846 23.4996 212.055 23.3593C212.264 23.219 212.51 23.144 212.761 23.144C213.097 23.144 213.419 23.2778 213.658 23.516C213.896 23.7542 214.03 24.0774 214.031 24.4149Z" fill="#A4E0EA"/>
<path d="M116.079 17.7754C119.57 21.2757 113.286 27.5853 116.777 31.0856C120.268 34.586 126.548 28.2809 130.034 31.7812C133.521 35.2816 127.241 41.5911 130.732 45.0959" stroke="#A4E0EA" stroke-width="2" stroke-miterlimit="10" stroke-linecap="round"/>
<path d="M109.8 24.0799C113.286 27.5803 119.571 21.2752 123.058 24.7756C126.544 28.2759 120.264 34.5854 123.755 38.0902C127.246 41.595 133.526 35.2855 137.013 38.7858" stroke="#A4E0EA" stroke-width="2" stroke-miterlimit="10" stroke-linecap="round"/>
<path d="M116.777 31.0805L123.057 24.7754" stroke="#A4E0EA" stroke-width="2" stroke-miterlimit="10" stroke-linecap="round"/>
<path d="M115.751 29.0742L121.058 23.7456" stroke="#A4E0EA" stroke-width="2" stroke-miterlimit="10" stroke-linecap="round"/>
<path d="M118.775 32.1113L124.083 26.7827" stroke="#A4E0EA" stroke-width="2" stroke-miterlimit="10" stroke-linecap="round"/>
<path d="M111.798 25.1099L117.106 19.7769" stroke="#A4E0EA" stroke-width="2" stroke-miterlimit="10" stroke-linecap="round"/>
<path d="M123.755 38.0902L130.035 31.7852" stroke="#A4E0EA" stroke-width="2" stroke-miterlimit="10" stroke-linecap="round"/>
<path d="M122.728 36.084L128.04 30.751" stroke="#A4E0EA" stroke-width="2" stroke-miterlimit="10" stroke-linecap="round"/>
<path d="M125.753 39.1206L131.065 33.7876" stroke="#A4E0EA" stroke-width="2" stroke-miterlimit="10" stroke-linecap="round"/>
<path d="M129.777 43.1557L135.085 37.8271" stroke="#A4E0EA" stroke-width="2" stroke-miterlimit="10" stroke-linecap="round"/>
<path d="M8.60998 106.033C12.101 109.538 5.81632 115.843 9.30729 119.343C12.7983 122.843 19.0785 116.538 22.565 120.043C26.0515 123.548 19.7713 129.853 23.2623 133.353" stroke="#A4E0EA" stroke-width="2" stroke-miterlimit="10" stroke-linecap="round"/>
<path d="M2.32971 112.338C5.81624 115.843 12.1009 109.538 15.5874 113.038C19.0739 116.539 12.7937 122.848 16.2847 126.349C19.7757 129.849 26.0559 123.544 29.5424 127.049" stroke="#A4E0EA" stroke-width="2" stroke-miterlimit="10" stroke-linecap="round"/>
<path d="M9.30737 119.343L15.5876 113.038" stroke="#A4E0EA" stroke-width="2" stroke-miterlimit="10" stroke-linecap="round"/>
<path d="M8.28125 117.336L13.5888 112.003" stroke="#A4E0EA" stroke-width="2" stroke-miterlimit="10" stroke-linecap="round"/>
<path d="M11.3059 120.373L16.6134 115.04" stroke="#A4E0EA" stroke-width="2" stroke-miterlimit="10" stroke-linecap="round"/>
<path d="M4.3288 113.368L9.63632 108.039" stroke="#A4E0EA" stroke-width="2" stroke-miterlimit="10" stroke-linecap="round"/>
<path d="M16.285 126.348L22.5652 120.043" stroke="#A4E0EA" stroke-width="2" stroke-miterlimit="10" stroke-linecap="round"/>
<path d="M15.259 124.341L20.5709 119.013" stroke="#A4E0EA" stroke-width="2" stroke-miterlimit="10" stroke-linecap="round"/>
<path d="M18.2836 127.378L23.5911 122.049" stroke="#A4E0EA" stroke-width="2" stroke-miterlimit="10" stroke-linecap="round"/>
<path d="M22.3077 131.418L27.6153 126.085" stroke="#A4E0EA" stroke-width="2" stroke-miterlimit="10" stroke-linecap="round"/>
</svg>
