<svg width="344" height="216" viewBox="0 0 344 216" fill="none" xmlns="http://www.w3.org/2000/svg">
<rect width="344" height="216" fill="#D7E2F8"/>
<path d="M311.583 215.476C294.225 215.476 28.0649 215.496 28.0649 215.476C18.3149 205.744 15.4433 182.512 36.5589 160.076C44.2929 151.858 23.7725 136.101 37.0931 110.82C42.1551 101.213 62.3733 84.7019 115.73 97.5137C138.418 102.962 157.674 94.2631 161.931 91.1219C164.388 89.3264 167.016 87.7693 169.778 86.4725C199.142 72.4843 249.878 81.3937 272.024 98.2078C275.162 100.591 289.431 112.923 278.184 129.87C271.082 140.576 300.835 150.793 311.405 163.012C338.287 194.08 311.827 215.071 311.583 215.476Z" fill="#DCEAFF"/>
<path d="M227.272 143.787L228.098 143.991L229.199 139.677L228.372 139.473L227.272 143.787Z" fill="#ADC8FE"/>
<path d="M228.48 138.088C228.44 138.421 228.536 138.779 228.857 138.896C229.283 139.054 229.574 138.779 229.68 138.358C229.68 138.358 229.709 138.249 229.709 138.247C229.745 138.1 230.094 138.22 230.144 138.365C230.206 138.543 230.225 138.732 230.199 138.919C230.173 139.105 230.104 139.283 229.996 139.438C229.888 139.594 229.745 139.722 229.578 139.814C229.411 139.905 229.225 139.957 229.034 139.965C228.843 139.973 228.653 139.937 228.478 139.86C228.304 139.783 228.151 139.667 228.03 139.521C227.909 139.375 227.824 139.204 227.783 139.02C227.741 138.837 227.743 138.646 227.79 138.463C227.837 138.276 227.929 138.103 228.058 137.959C228.18 137.828 228.507 137.909 228.48 138.088Z" fill="#ADC8FE"/>
<path d="M228.061 145.496C228.102 145.162 228.004 144.805 227.685 144.687C227.258 144.529 226.968 144.805 226.86 145.226C226.86 145.226 226.833 145.334 226.833 145.336C226.796 145.483 226.448 145.363 226.398 145.219C226.336 145.041 226.317 144.851 226.343 144.665C226.369 144.478 226.438 144.3 226.546 144.145C226.654 143.99 226.797 143.861 226.964 143.77C227.131 143.679 227.317 143.627 227.508 143.619C227.699 143.611 227.889 143.647 228.063 143.724C228.238 143.801 228.391 143.917 228.512 144.062C228.633 144.208 228.717 144.38 228.759 144.563C228.801 144.747 228.798 144.937 228.752 145.12C228.705 145.307 228.613 145.48 228.483 145.625C228.36 145.756 228.038 145.675 228.061 145.496Z" fill="#ADC8FE"/>
<path d="M226.187 126.03C225.829 125.586 225.499 125.122 225.196 124.64C224.805 123.991 222.413 122.623 222.242 123.775C222.084 124.834 222.86 124.516 223.142 125.35C223.424 126.184 223.769 126.543 225.532 127.307L226.187 126.03Z" fill="#FFB27D"/>
<path d="M225.612 126.445C226.136 125.674 226.293 125.634 226.293 125.634C226.293 125.634 234.972 128.904 235.8 129.177C236.628 129.45 249.01 130.138 249.01 130.138L252.746 137.897C252.746 137.897 236.247 134.341 234.164 133.611C230.72 132.404 225.202 127.674 225.202 127.674C225.225 127.236 225.367 126.812 225.612 126.445Z" fill="#01A095"/>
<path d="M247.174 198.994C247.174 198.994 246.984 201.872 246.419 202.549H237.714C237.769 202.262 238.016 201.554 239.103 201.373C240.479 201.147 242.782 200.234 243.615 198.516C244.493 196.706 247.174 198.994 247.174 198.994Z" fill="#163560"/>
<path d="M262.647 197.807C262.647 197.807 263.196 202.171 262.45 202.235C262.352 202.245 258.865 202.235 257.916 202.372C256.369 202.592 253.786 202.4 253.786 202.4C253.715 202.406 253.643 202.392 253.579 202.36C253.515 202.328 253.461 202.28 253.422 202.22C253.384 202.16 253.363 202.091 253.362 202.02C253.361 201.95 253.38 201.88 253.416 201.819C253.596 201.531 253.941 201.221 254.598 201.102C255.97 200.853 258.253 199.901 259.055 198.171C259.898 196.351 262.647 197.807 262.647 197.807Z" fill="#163560"/>
<path d="M243.082 160.692C243.082 160.692 245.27 167.926 251.542 180.489C253.596 184.607 254.971 187.935 255.89 190.556C256.009 190.894 256.121 191.22 256.224 191.533C256.391 192.037 256.541 192.511 256.672 192.955C256.774 193.295 256.865 193.616 256.948 193.921C257.77 196.945 257.754 198.32 257.754 198.32C258.762 198.641 259.824 198.761 260.88 198.673C261.747 198.589 263.649 197.822 263.649 197.822C263.649 197.822 263.443 195.796 263.03 192.933C262.983 192.618 262.935 192.294 262.884 191.959C262.817 191.512 262.744 191.049 262.668 190.576C262.616 190.257 262.562 189.933 262.506 189.608C261.777 185.341 260.696 180.388 259.253 177.299C256.289 170.959 255.685 153.607 255.685 153.607L243.082 160.692Z" fill="#233862"/>
<path d="M239.58 157C239.726 164.506 240.349 171.995 241.444 179.424C242.153 184.175 242.535 187.982 242.73 190.93C242.753 191.278 242.773 191.612 242.79 191.934C242.82 192.453 242.842 192.942 242.861 193.4C242.873 193.753 242.885 194.076 242.893 194.389C242.975 197.566 242.802 199.02 242.802 199.02C242.925 199.085 243.053 199.14 243.185 199.184C243.626 199.341 244.456 199.551 245.706 199.551C246.188 199.553 246.669 199.499 247.14 199.391C247.507 199.314 247.864 199.19 248.2 199.023C248.2 199.023 248.531 197.191 248.905 194.534C248.951 194.215 248.997 193.886 249.042 193.544C249.104 193.094 249.161 192.626 249.225 192.142C249.264 191.817 249.305 191.49 249.344 191.156C249.84 186.933 250.224 181.917 249.81 178.528C249.743 177.933 249.71 177.335 249.711 176.736C249.711 173.686 250.368 169.577 251.161 165.748C251.162 165.737 251.165 165.727 251.168 165.716C251.984 161.775 252.939 158.135 253.455 156.249C253.688 155.396 253.832 154.903 253.832 154.903L253.398 154.889L249.968 154.786L240.611 154.499L240.035 154.481L239.569 154.467C239.569 154.467 239.553 155.377 239.58 157Z" fill="#2A4E96"/>
<path d="M249.265 128.248L246.946 129.869L243.6 129.203C243.646 128.914 243.867 127.718 244.069 126.635C244.081 126.571 244.093 126.507 244.105 126.444C244.277 125.523 244.426 124.731 244.426 124.731L247.554 123.257L248.721 122.709C248.721 122.728 248.631 123.731 248.619 123.878C248.396 126.48 249.265 128.248 249.265 128.248Z" fill="#FFB27D"/>
<path d="M243.831 127.429C243.904 127.4 248.387 126.151 248.875 126.302C249.363 126.454 249.651 127.345 249.651 127.345L242.728 129.207C242.728 129.207 242.894 127.802 243.831 127.429Z" fill="#01A095"/>
<path d="M255.904 155.847C255.145 159.123 239.299 148.846 239.511 146.847C239.534 146.629 239.557 146.407 239.58 146.187C239.873 143.405 240.154 140.682 240.178 138.905C240.211 137.375 240.391 135.852 240.718 134.356C240.993 133.033 241.331 131.833 241.625 130.899C241.833 130.247 242.216 129.662 242.733 129.206C243.103 128.878 243.531 128.62 243.997 128.445C244.125 128.395 244.257 128.352 244.39 128.316C246.302 127.793 248.938 127.139 249.654 127.343C251.593 127.883 253.033 131.107 254.054 135.217C255.958 142.911 256.4 153.713 255.904 155.847Z" fill="#01958B"/>
<path d="M248.38 123.924C247.693 125.165 245.133 126.24 244.065 126.63C244.077 126.567 244.089 126.502 244.101 126.44C244.273 125.518 244.422 124.727 244.422 124.727L247.551 123.253C248.243 123.248 248.663 123.413 248.38 123.924Z" fill="#DE8344"/>
<path d="M242.902 124.557C242.902 124.557 248.546 126.221 249.594 122.884C250.642 119.548 252.066 117.515 248.507 116.312C244.947 115.11 243.846 116.185 243.21 117.219C242.575 118.254 241.46 124.039 242.902 124.557Z" fill="#FFB27D"/>
<path d="M243.428 116.898C243.428 116.898 243.787 120.781 244.638 120.613C245.489 120.444 246.259 120.32 246.135 121.49C246.011 122.661 244.831 124.011 247.45 124.218C250.068 124.426 253.836 118.043 253.116 116.835C251.04 113.347 240.43 112.641 243.428 116.898Z" fill="#163560"/>
<path d="M239.989 154.466C241.558 155.001 239.962 152.992 239.989 152.573C240.109 150.732 239.346 148.405 239.58 146.188L249.164 140.776C249.164 140.776 251.438 154.38 239.989 154.466Z" fill="#01A095"/>
<path d="M255.904 155.847C251.812 163.011 251.161 165.746 251.161 165.746C247.6 165.363 241.498 158.75 239.563 156.984C239.563 156.984 239.299 148.846 239.511 146.847L242.468 146.767C242.468 146.767 247.815 148.047 249.201 146.31C250.587 144.572 249.99 136.052 249.99 136.052L254.053 135.223C255.958 142.911 257.002 153.925 255.904 155.847Z" fill="#2A4E96"/>
<path d="M231.627 142.121C231.627 142.121 229.675 140.876 229.316 140.769C228.958 140.661 227.737 140.543 227.68 140.632C227.624 140.721 227.458 140.999 227.67 141.092C227.881 141.185 228.148 141.153 228.065 141.218C227.983 141.283 227.19 140.925 227.006 141.309C226.822 141.692 226.661 143.006 227.596 143.405C228.53 143.804 230.835 143.443 231.001 143.489C232.405 143.876 231.627 142.121 231.627 142.121Z" fill="#FFB27D"/>
<path d="M231.609 141.786C231.609 141.786 241.115 143.315 241.957 142.925C243.301 142.307 241.436 133.197 241.436 133.197C241.436 133.197 241.356 131.132 243.908 130.645C246.126 130.221 248.268 131.792 248.268 131.792C248.268 131.792 250.214 133.439 249.965 135.262C249.414 139.307 248.556 147.535 245.688 148.798C241.998 150.424 231.307 144.288 231.307 144.288C231.307 144.288 230.949 143.877 231.001 143.112C231.045 142.435 231.609 141.786 231.609 141.786Z" fill="#01958B"/>
<path d="M250.774 135.887L249.99 136.053C249.99 136.053 248.325 129.246 242.731 129.213C243.101 128.885 243.53 128.627 243.996 128.452C246.046 128.966 249.601 130.62 250.774 135.887Z" fill="#2A4E96"/>
<g opacity="0.5">
<path opacity="0.5" d="M255.89 190.557C256.009 190.895 256.121 191.22 256.224 191.533C258.325 191.533 260.319 191.164 261.794 190.802C262.111 190.724 262.405 190.644 262.668 190.566C262.616 190.248 262.562 189.923 262.506 189.598C261.013 190.026 258.505 190.612 255.89 190.557Z" fill="white"/>
</g>
<g opacity="0.5">
<path opacity="0.5" d="M256.673 192.955C256.774 193.295 256.865 193.616 256.949 193.921C258.657 193.859 260.354 193.616 262.011 193.197C262.387 193.104 262.728 193.011 263.03 192.927C262.983 192.611 262.936 192.288 262.884 191.953C261.516 192.348 259.175 192.924 256.673 192.955Z" fill="white"/>
</g>
<path d="M225.951 125.729C225.884 125.294 225.77 124.867 225.612 124.455C225.381 123.919 225.088 123.239 225.025 123.589C224.962 123.94 225.192 124.538 225.025 124.826C224.858 125.114 225.951 125.729 225.951 125.729Z" fill="#FFB27D"/>
<path d="M242.73 190.93C242.753 191.278 242.773 191.612 242.79 191.934C244.529 192.222 246.295 192.318 248.055 192.221C248.491 192.2 248.884 192.171 249.225 192.142C249.264 191.817 249.305 191.49 249.345 191.156C247.92 191.288 245.339 191.434 242.73 190.93Z" fill="white"/>
<path d="M242.862 193.4C242.874 193.753 242.886 194.076 242.893 194.389C244.5 194.624 246.127 194.698 247.749 194.609C248.18 194.588 248.568 194.562 248.905 194.534C248.951 194.216 248.997 193.886 249.042 193.545C247.699 193.668 245.32 193.807 242.862 193.4Z" fill="white"/>
<path d="M78.8398 142.495V142.669C78.8398 146.008 75.9718 148.722 72.437 148.722H53.2477C51.1159 148.722 49.3819 150.361 49.3819 152.376V152.954C49.3819 154.969 51.1159 156.608 53.2477 156.608H74.4314C74.534 156.608 74.6356 156.628 74.7304 156.666C74.8252 156.705 74.9114 156.761 74.984 156.833C75.0566 156.904 75.1142 156.989 75.1535 157.082C75.1928 157.175 75.213 157.275 75.213 157.376C75.2123 157.809 75.0376 158.223 74.7272 158.529C74.4167 158.834 73.9958 159.006 73.5567 159.007H53.2418C49.7165 159.007 46.8402 156.288 46.8402 152.954V152.376C46.8402 149.04 49.7081 146.326 53.2441 146.326H72.437C74.5677 146.326 76.3028 144.679 76.3028 142.669V142.495C76.3028 140.48 74.5677 138.84 72.437 138.84H52.8904C49.3604 138.84 46.4864 136.125 46.4864 132.787V131.976C46.4864 128.639 49.3544 125.923 52.8904 125.923H72.437C74.5677 125.923 76.3028 124.285 76.3028 122.269C76.3028 120.254 74.5641 118.614 72.437 118.614H33.9019C34.1314 117.824 34.3935 117.025 34.6882 116.216H72.437C75.9658 116.216 78.8398 118.932 78.8398 122.269C78.8398 125.607 75.9718 128.322 72.437 128.322H52.8904C50.7586 128.322 49.0234 129.961 49.0234 131.976V132.787C49.0234 134.803 50.7586 136.442 52.8904 136.442H72.437C75.9658 136.442 78.8398 139.157 78.8398 142.495Z" fill="#BDD1F9"/>
<path d="M189.191 116.932H156.386V117.658H189.191V116.932Z" fill="#00A99D"/>
<path d="M156.007 117.191C156.007 117.039 156.052 116.891 156.138 116.765C156.223 116.639 156.345 116.541 156.487 116.483C156.629 116.425 156.786 116.41 156.937 116.44C157.087 116.469 157.226 116.542 157.335 116.649C157.444 116.756 157.518 116.893 157.548 117.041C157.578 117.19 157.562 117.344 157.504 117.484C157.445 117.624 157.345 117.743 157.217 117.827C157.089 117.912 156.939 117.957 156.785 117.957C156.683 117.957 156.581 117.937 156.487 117.899C156.392 117.86 156.307 117.804 156.234 117.733C156.162 117.661 156.105 117.577 156.066 117.484C156.027 117.391 156.007 117.291 156.007 117.191Z" fill="#00A99D"/>
<path d="M188.188 117.191C188.188 117.039 188.234 116.891 188.319 116.765C188.405 116.639 188.526 116.541 188.668 116.483C188.811 116.425 188.967 116.41 189.118 116.44C189.269 116.469 189.407 116.542 189.516 116.649C189.625 116.756 189.699 116.893 189.729 117.041C189.759 117.19 189.744 117.344 189.685 117.484C189.626 117.624 189.526 117.743 189.398 117.827C189.27 117.912 189.12 117.957 188.966 117.957C188.864 117.957 188.763 117.937 188.668 117.899C188.574 117.86 188.488 117.804 188.416 117.733C188.343 117.661 188.286 117.577 188.247 117.484C188.208 117.391 188.188 117.291 188.188 117.191Z" fill="#00A99D"/>
<path d="M186.004 116.953V141.925C183.485 142.347 176.912 141.985 173.166 142.408C169.42 142.832 160.916 142.263 160.916 142.263V117.069C160.916 116.871 160.996 116.68 161.139 116.54C161.281 116.399 161.474 116.32 161.676 116.32L185.324 116.285C185.413 116.285 185.502 116.302 185.584 116.335C185.667 116.369 185.742 116.418 185.805 116.48C185.868 116.542 185.918 116.616 185.952 116.697C185.986 116.778 186.004 116.865 186.004 116.953Z" fill="#01958B"/>
<path d="M186.004 132.2V141.924C183.485 142.347 176.912 141.984 173.166 142.408C169.42 142.831 160.916 142.263 160.916 142.263V132.903C160.975 132.569 161.008 132.376 161.008 132.376C161.008 132.376 166.47 132.793 171.323 132.494C176.151 132.189 181.952 132.966 186.004 132.2Z" fill="#00766E"/>
<path d="M165.517 137.914C163.464 137.914 161.063 137.818 160.929 137.812L160.954 137.207C160.998 137.207 165.384 137.387 167.372 137.268L167.841 137.24C170.249 137.093 175.258 136.787 177.352 137.131C179.503 137.484 186.141 137.051 186.208 137.047L186.25 137.651C185.974 137.668 179.472 138.092 177.251 137.727C175.227 137.395 170.081 137.709 167.879 137.845L167.409 137.873C166.892 137.902 166.22 137.914 165.517 137.914Z" fill="white"/>
<path d="M165.515 139.245C163.464 139.245 161.063 139.148 160.929 139.142L160.954 138.538C160.998 138.538 165.385 138.718 167.372 138.599L167.841 138.571C170.249 138.424 175.258 138.118 177.352 138.461C179.503 138.814 186.141 138.381 186.208 138.378L186.25 138.98C185.974 138.999 179.472 139.422 177.251 139.058C175.227 138.726 170.081 139.04 167.879 139.175L167.409 139.204C166.892 139.229 166.22 139.245 165.515 139.245Z" fill="white"/>
<path d="M236.312 115.528C236.312 115.528 228.477 121.749 227.684 121.357C226.89 120.965 226.744 119.982 226.744 119.982C225.105 120.294 223.746 122.376 223.136 123.467C222.913 123.865 222.791 124.132 222.791 124.132C222.584 124.183 222.367 124.176 222.163 124.112C221.96 124.048 221.779 123.929 221.641 123.769C222.499 120.577 226.011 116.736 229.616 115.429C233.221 114.122 235.926 115.216 236.312 115.528Z" fill="#00A99D"/>
<path d="M237.071 116.276C237.732 117.658 236.059 119.805 233.334 121.065C230.609 122.325 227.866 122.23 227.205 120.848C226.544 119.465 228.216 117.318 230.941 116.058C233.665 114.798 236.41 114.894 237.071 116.276Z" fill="#D4E4FF"/>
<path d="M232.662 118.57C232.698 118.647 232.591 118.774 232.423 118.853C232.256 118.932 232.085 118.933 232.049 118.853C232.014 118.773 232.121 118.65 232.288 118.572C232.456 118.493 232.629 118.494 232.662 118.57Z" fill="#00A99D"/>
<path d="M230.577 119.538C230.614 119.615 230.505 119.741 230.338 119.82C230.171 119.898 230 119.901 229.963 119.82C229.926 119.738 230.035 119.616 230.202 119.537C230.369 119.458 230.54 119.464 230.577 119.538Z" fill="#00A99D"/>
<path d="M233.711 118.087C233.746 118.164 233.639 118.289 233.472 118.368C233.304 118.447 233.133 118.449 233.098 118.368C233.062 118.287 233.169 118.166 233.337 118.086C233.504 118.006 233.674 118.011 233.711 118.087Z" fill="#00A99D"/>
<path d="M234.755 117.603C234.791 117.68 234.683 117.806 234.516 117.884C234.349 117.963 234.178 117.966 234.141 117.884C234.104 117.803 234.214 117.681 234.38 117.602C234.546 117.523 234.718 117.527 234.755 117.603Z" fill="#00A99D"/>
<path d="M236.107 116.976C236.144 117.053 236.035 117.179 235.868 117.259C235.7 117.339 235.53 117.339 235.492 117.259C235.455 117.179 235.564 117.056 235.731 116.976C235.899 116.896 236.071 116.9 236.107 116.976Z" fill="#00A99D"/>
<path d="M231.622 119.055C231.659 119.131 231.55 119.257 231.383 119.336C231.215 119.415 231.045 119.417 231.009 119.336C230.973 119.255 231.08 119.133 231.248 119.054C231.415 118.975 231.587 118.977 231.622 119.055Z" fill="#00A99D"/>
<path d="M229.294 120.133C229.331 120.209 229.222 120.336 229.055 120.415C228.887 120.494 228.717 120.495 228.679 120.415C228.642 120.335 228.751 120.213 228.918 120.134C229.086 120.055 229.258 120.053 229.294 120.133Z" fill="#00A99D"/>
<path d="M232.369 117.953C232.406 118.029 232.298 118.155 232.13 118.234C231.963 118.313 231.792 118.315 231.755 118.234C231.718 118.153 231.827 118.03 231.994 117.952C232.161 117.873 232.334 117.875 232.369 117.953Z" fill="#00A99D"/>
<path d="M230.282 118.92C230.318 118.996 230.21 119.122 230.043 119.202C229.876 119.282 229.705 119.282 229.669 119.202C229.633 119.122 229.739 119 229.908 118.921C230.076 118.842 230.245 118.843 230.282 118.92Z" fill="#00A99D"/>
<path d="M229.197 119.316C229.233 119.392 229.125 119.518 228.958 119.597C228.79 119.676 228.62 119.678 228.584 119.597C228.548 119.516 228.655 119.393 228.823 119.314C228.99 119.236 229.158 119.239 229.197 119.316Z" fill="#00A99D"/>
<path d="M235.275 116.5C235.312 116.576 235.203 116.702 235.036 116.781C234.869 116.86 234.698 116.862 234.662 116.781C234.626 116.7 234.734 116.578 234.901 116.5C235.068 116.421 235.238 116.422 235.275 116.5Z" fill="#00A99D"/>
<path d="M229.893 118.345C229.93 118.422 229.822 118.548 229.654 118.627C229.487 118.705 229.316 118.708 229.279 118.627C229.242 118.545 229.351 118.424 229.518 118.345C229.686 118.267 229.858 118.269 229.893 118.345Z" fill="#00A99D"/>
<path d="M233.414 117.465C233.451 117.541 233.342 117.669 233.175 117.747C233.008 117.826 232.837 117.827 232.8 117.747C232.763 117.667 232.872 117.545 233.039 117.466C233.206 117.387 233.379 117.392 233.414 117.465Z" fill="#00A99D"/>
<path d="M234.455 116.984C234.492 117.06 234.383 117.186 234.216 117.265C234.049 117.344 233.878 117.346 233.841 117.265C233.804 117.184 233.912 117.063 234.08 116.984C234.247 116.905 234.422 116.908 234.455 116.984Z" fill="#00A99D"/>
<path d="M231.325 118.436C231.362 118.513 231.253 118.639 231.086 118.717C230.919 118.796 230.748 118.799 230.711 118.717C230.674 118.636 230.783 118.514 230.95 118.435C231.117 118.356 231.289 118.36 231.325 118.436Z" fill="#00A99D"/>
<path d="M232.929 119.122C232.966 119.199 232.857 119.325 232.69 119.403C232.523 119.482 232.352 119.485 232.315 119.403C232.278 119.322 232.386 119.2 232.554 119.121C232.721 119.042 232.893 119.046 232.929 119.122Z" fill="#00A99D"/>
<path d="M230.841 120.089C230.877 120.166 230.769 120.293 230.602 120.372C230.435 120.451 230.264 120.452 230.227 120.372C230.19 120.292 230.3 120.169 230.466 120.091C230.632 120.012 230.804 120.013 230.841 120.089Z" fill="#00A99D"/>
<path d="M230.112 120.766C230.149 120.843 230.041 120.969 229.873 121.048C229.706 121.127 229.535 121.129 229.498 121.048C229.461 120.967 229.57 120.846 229.737 120.767C229.904 120.688 230.076 120.689 230.112 120.766Z" fill="#00A99D"/>
<path d="M233.977 118.641C234.014 118.719 233.905 118.845 233.738 118.924C233.571 119.003 233.4 119.005 233.363 118.924C233.326 118.843 233.434 118.721 233.602 118.643C233.769 118.564 233.938 118.561 233.977 118.641Z" fill="#00A99D"/>
<path d="M235.017 118.154C235.055 118.231 234.946 118.358 234.778 118.437C234.611 118.516 234.44 118.517 234.403 118.437C234.366 118.357 234.475 118.234 234.642 118.156C234.81 118.077 234.98 118.078 235.017 118.154Z" fill="#00A99D"/>
<path d="M235.876 117.756C235.913 117.834 235.804 117.96 235.637 118.039C235.47 118.118 235.3 118.12 235.263 118.039C235.226 117.958 235.335 117.836 235.502 117.758C235.669 117.679 235.839 117.68 235.876 117.756Z" fill="#00A99D"/>
<path d="M235.314 118.773C235.35 118.849 235.241 118.975 235.075 119.054C234.909 119.133 234.737 119.135 234.7 119.054C234.663 118.973 234.772 118.851 234.939 118.771C235.106 118.691 235.277 118.696 235.314 118.773Z" fill="#00A99D"/>
<path d="M231.885 119.606C231.922 119.682 231.813 119.808 231.646 119.887C231.478 119.966 231.307 119.968 231.27 119.887C231.233 119.806 231.342 119.684 231.509 119.606C231.677 119.527 231.849 119.529 231.885 119.606Z" fill="#00A99D"/>
<path d="M233.226 119.741C233.261 119.817 233.154 119.943 232.987 120.022C232.819 120.101 232.648 120.103 232.613 120.022C232.577 119.941 232.684 119.82 232.852 119.741C233.019 119.662 233.189 119.663 233.226 119.741Z" fill="#00A99D"/>
<path d="M231.764 116.684C231.801 116.761 231.692 116.887 231.525 116.966C231.357 117.044 231.187 117.047 231.149 116.966C231.112 116.884 231.221 116.762 231.388 116.683C231.556 116.604 231.727 116.608 231.764 116.684Z" fill="#00A99D"/>
<path d="M233.532 120.385C233.569 120.461 233.461 120.587 233.293 120.666C233.126 120.745 232.955 120.747 232.918 120.666C232.881 120.585 232.99 120.462 233.157 120.383C233.324 120.305 233.499 120.308 233.532 120.385Z" fill="#00A99D"/>
<path d="M234.27 119.256C234.306 119.332 234.198 119.459 234.031 119.538C233.864 119.617 233.693 119.618 233.657 119.538C233.621 119.458 233.728 119.336 233.896 119.257C234.063 119.178 234.233 119.179 234.27 119.256Z" fill="#00A99D"/>
<path d="M232.185 120.224C232.222 120.301 232.113 120.427 231.946 120.506C231.778 120.584 231.607 120.587 231.572 120.506C231.536 120.424 231.643 120.302 231.811 120.223C231.978 120.144 232.144 120.148 232.185 120.224Z" fill="#00A99D"/>
<path d="M231.234 120.664C231.271 120.74 231.163 120.866 230.995 120.945C230.828 121.024 230.658 121.026 230.621 120.945C230.584 120.864 230.693 120.742 230.86 120.664C231.028 120.585 231.197 120.586 231.234 120.664Z" fill="#00A99D"/>
<path d="M232.075 117.335C232.112 117.412 232.003 117.538 231.836 117.616C231.668 117.695 231.498 117.698 231.46 117.616C231.423 117.535 231.532 117.413 231.699 117.334C231.867 117.255 232.039 117.259 232.075 117.335Z" fill="#00A99D"/>
<path d="M233.119 116.851C233.156 116.928 233.047 117.054 232.88 117.132C232.713 117.211 232.542 117.214 232.505 117.132C232.468 117.051 232.576 116.929 232.744 116.85C232.911 116.771 233.083 116.774 233.119 116.851Z" fill="#00A99D"/>
<path d="M232.875 116.339C232.911 116.417 232.803 116.542 232.636 116.621C232.469 116.7 232.298 116.702 232.261 116.621C232.224 116.54 232.333 116.419 232.5 116.34C232.667 116.261 232.838 116.262 232.875 116.339Z" fill="#00A99D"/>
<path d="M234.511 119.762C234.547 119.838 234.439 119.964 234.272 120.043C234.105 120.122 233.934 120.124 233.898 120.043C233.862 119.962 233.97 119.84 234.137 119.761C234.304 119.682 234.474 119.685 234.511 119.762Z" fill="#00A99D"/>
<path d="M232.524 120.682C232.561 120.759 232.452 120.885 232.285 120.965C232.118 121.045 231.947 121.045 231.91 120.965C231.873 120.885 231.981 120.762 232.149 120.682C232.316 120.602 232.488 120.606 232.524 120.682Z" fill="#00A99D"/>
<path d="M230.786 117.307C230.822 117.383 230.714 117.509 230.547 117.588C230.38 117.667 230.209 117.669 230.173 117.588C230.137 117.507 230.245 117.386 230.412 117.307C230.579 117.228 230.75 117.229 230.786 117.307Z" fill="#00A99D"/>
<path d="M234.163 116.367C234.2 116.445 234.091 116.571 233.924 116.649C233.757 116.728 233.586 116.729 233.549 116.649C233.512 116.569 233.621 116.447 233.788 116.368C233.955 116.289 234.127 116.288 234.163 116.367Z" fill="#00A99D"/>
<path d="M231.031 117.817C231.067 117.893 230.96 118.021 230.792 118.099C230.625 118.178 230.454 118.179 230.418 118.099C230.382 118.019 230.49 117.897 230.657 117.818C230.825 117.739 230.989 117.742 231.031 117.817Z" fill="#00A99D"/>
<path d="M213.725 112.345H214.068C214.23 112.345 214.385 112.409 214.499 112.521C214.613 112.634 214.677 112.786 214.677 112.945V202.208H213.059V113C213.059 112.826 213.13 112.659 213.254 112.536C213.379 112.413 213.549 112.344 213.725 112.344V112.345Z" fill="#AEC3FF"/>
<path d="M214.724 147.699L214.631 146.611C215.573 146.592 216.488 146.298 217.26 145.766C219.81 144.031 221.336 139.766 221.674 133.423C221.822 130.325 221.722 127.22 221.378 124.137L223.193 124.055C223.285 124.779 225.388 141.884 218.626 146.486C217.511 147.245 216.198 147.653 214.724 147.699Z" fill="#00A99D"/>
<path d="M229.64 165.945H215.026C214.874 165.945 214.724 165.915 214.583 165.858C214.443 165.8 214.315 165.717 214.207 165.611C214.1 165.505 214.015 165.379 213.956 165.241C213.898 165.102 213.868 164.954 213.868 164.805C213.868 164.502 213.99 164.212 214.207 163.998C214.425 163.785 214.719 163.665 215.026 163.665H229.64C229.947 163.665 230.242 163.785 230.459 163.998C230.676 164.212 230.798 164.502 230.798 164.805C230.798 164.954 230.768 165.102 230.71 165.241C230.651 165.379 230.566 165.505 230.459 165.611C230.351 165.717 230.223 165.8 230.083 165.858C229.943 165.915 229.792 165.945 229.64 165.945Z" fill="#AEC3FF"/>
<path d="M224.258 125.187H214.035C213.776 125.187 213.528 125.085 213.346 124.905C213.163 124.725 213.06 124.481 213.059 124.226C213.06 123.972 213.163 123.728 213.346 123.548C213.528 123.368 213.776 123.266 214.035 123.265H224.258C224.517 123.266 224.764 123.367 224.947 123.547C225.13 123.727 225.233 123.972 225.234 124.226C225.233 124.481 225.13 124.725 224.947 124.905C224.764 125.085 224.517 125.187 224.258 125.187Z" fill="#AEC3FF"/>
<path d="M229.076 149.051L228.19 161.361H224.557L223.834 149.051H229.076Z" fill="#01958B"/>
<path d="M228.19 161.361H224.557V163.664H228.19V161.361Z" fill="white"/>
<path d="M229.077 148.285H223.834V149.053H229.077V148.285Z" fill="#01A095"/>
<path d="M227.906 153.261C227.906 153.112 227.861 152.966 227.777 152.842C227.693 152.718 227.573 152.622 227.433 152.565C227.293 152.508 227.139 152.493 226.99 152.522C226.842 152.552 226.705 152.624 226.598 152.729C226.491 152.835 226.419 152.969 226.389 153.115C226.36 153.261 226.375 153.413 226.433 153.551C226.491 153.689 226.589 153.806 226.715 153.889C226.841 153.972 226.989 154.016 227.141 154.016C227.241 154.016 227.341 153.997 227.434 153.959C227.527 153.921 227.611 153.865 227.683 153.795C227.754 153.725 227.81 153.641 227.849 153.55C227.887 153.458 227.907 153.36 227.906 153.261Z" fill="white"/>
<path d="M226.885 155.093C226.885 154.908 226.829 154.727 226.724 154.573C226.62 154.419 226.472 154.3 226.298 154.229C226.124 154.158 225.933 154.14 225.749 154.176C225.565 154.212 225.395 154.301 225.262 154.432C225.13 154.563 225.039 154.73 225.003 154.911C224.966 155.093 224.985 155.281 225.057 155.452C225.129 155.623 225.251 155.769 225.408 155.871C225.564 155.974 225.748 156.029 225.936 156.028C226.188 156.028 226.429 155.929 226.607 155.754C226.785 155.579 226.885 155.341 226.885 155.093Z" fill="white"/>
<path d="M226.007 153.545C226.007 153.452 225.979 153.361 225.926 153.283C225.874 153.206 225.799 153.146 225.712 153.11C225.624 153.074 225.528 153.065 225.436 153.083C225.343 153.101 225.258 153.146 225.191 153.212C225.124 153.278 225.078 153.362 225.06 153.453C225.042 153.544 225.051 153.639 225.087 153.725C225.123 153.811 225.185 153.884 225.263 153.936C225.342 153.988 225.434 154.015 225.529 154.015C225.656 154.015 225.777 153.966 225.867 153.878C225.956 153.789 226.007 153.67 226.007 153.545Z" fill="white"/>
<path d="M225.84 153.381C225.84 153.348 225.83 153.317 225.812 153.29C225.794 153.263 225.768 153.242 225.737 153.23C225.707 153.217 225.674 153.214 225.641 153.221C225.609 153.227 225.579 153.243 225.556 153.266C225.533 153.289 225.517 153.318 225.511 153.35C225.505 153.381 225.508 153.414 225.521 153.444C225.534 153.474 225.555 153.5 225.583 153.517C225.61 153.535 225.642 153.545 225.675 153.544C225.697 153.544 225.719 153.54 225.739 153.532C225.759 153.524 225.777 153.512 225.792 153.496C225.808 153.481 225.82 153.463 225.828 153.443C225.836 153.423 225.84 153.402 225.84 153.381Z" fill="#01958B"/>
<path d="M225.806 155.454C225.806 155.396 225.789 155.339 225.756 155.291C225.724 155.243 225.677 155.206 225.623 155.183C225.568 155.161 225.509 155.155 225.451 155.167C225.393 155.178 225.34 155.206 225.298 155.247C225.257 155.288 225.229 155.34 225.217 155.397C225.206 155.454 225.211 155.513 225.234 155.566C225.256 155.62 225.295 155.665 225.344 155.698C225.392 155.73 225.45 155.747 225.509 155.747C225.548 155.747 225.587 155.74 225.623 155.725C225.659 155.71 225.692 155.689 225.72 155.662C225.747 155.634 225.769 155.602 225.784 155.566C225.799 155.531 225.807 155.493 225.806 155.454Z" fill="#01958B"/>
<path d="M227.731 153.504C227.731 153.441 227.712 153.379 227.676 153.327C227.641 153.275 227.59 153.234 227.531 153.21C227.472 153.186 227.408 153.18 227.345 153.192C227.282 153.204 227.225 153.235 227.18 153.279C227.135 153.323 227.104 153.38 227.092 153.442C227.079 153.503 227.085 153.567 227.11 153.625C227.134 153.683 227.176 153.733 227.229 153.768C227.282 153.803 227.344 153.821 227.408 153.821C227.494 153.821 227.576 153.788 227.636 153.728C227.697 153.669 227.731 153.588 227.731 153.504Z" fill="#01958B"/>
<path d="M222.462 152.665L221.575 161.361H217.941L217.218 152.665H222.462Z" fill="#01958B"/>
<path d="M221.575 161.361H217.943V163.664H221.575V161.361Z" fill="white"/>
<path d="M222.462 152.122H217.218V152.664H222.462V152.122Z" fill="#01A095"/>
<path d="M221.292 155.022C221.293 154.873 221.248 154.726 221.164 154.602C221.079 154.478 220.959 154.381 220.819 154.323C220.679 154.266 220.525 154.251 220.376 154.28C220.227 154.309 220.09 154.381 219.983 154.487C219.875 154.593 219.802 154.727 219.773 154.874C219.743 155.02 219.758 155.172 219.817 155.311C219.875 155.449 219.973 155.567 220.1 155.649C220.226 155.732 220.374 155.776 220.526 155.776C220.729 155.776 220.924 155.696 221.068 155.555C221.211 155.414 221.292 155.222 221.292 155.022Z" fill="white"/>
<path d="M220.27 156.854C220.271 156.669 220.215 156.488 220.111 156.334C220.007 156.18 219.858 156.06 219.684 155.989C219.511 155.918 219.32 155.899 219.135 155.935C218.951 155.971 218.782 156.061 218.649 156.191C218.516 156.322 218.425 156.489 218.389 156.671C218.352 156.852 218.371 157.04 218.443 157.211C218.515 157.382 218.637 157.528 218.793 157.631C218.95 157.734 219.134 157.788 219.322 157.788C219.573 157.788 219.814 157.689 219.992 157.514C220.17 157.339 220.27 157.102 220.27 156.854Z" fill="white"/>
<path d="M219.39 155.305C219.39 155.212 219.362 155.121 219.31 155.043C219.257 154.966 219.183 154.905 219.095 154.87C219.008 154.834 218.912 154.825 218.819 154.843C218.726 154.861 218.641 154.906 218.574 154.972C218.508 155.038 218.462 155.121 218.444 155.213C218.425 155.304 218.435 155.399 218.471 155.485C218.507 155.571 218.568 155.644 218.647 155.696C218.725 155.748 218.818 155.775 218.912 155.775C219.039 155.775 219.161 155.726 219.25 155.637C219.34 155.549 219.39 155.429 219.39 155.305Z" fill="white"/>
<path d="M219.226 155.141C219.226 155.109 219.216 155.077 219.198 155.05C219.18 155.023 219.154 155.002 219.123 154.99C219.093 154.978 219.06 154.974 219.027 154.981C218.995 154.987 218.966 155.003 218.942 155.025C218.919 155.048 218.903 155.077 218.897 155.109C218.891 155.141 218.894 155.174 218.906 155.204C218.919 155.234 218.94 155.259 218.968 155.277C218.995 155.295 219.027 155.305 219.06 155.305C219.082 155.305 219.103 155.301 219.124 155.292C219.144 155.284 219.162 155.272 219.178 155.257C219.193 155.242 219.205 155.224 219.214 155.204C219.222 155.184 219.226 155.163 219.226 155.141Z" fill="#01958B"/>
<path d="M219.192 157.214C219.192 157.156 219.175 157.099 219.142 157.051C219.109 157.002 219.062 156.964 219.008 156.942C218.953 156.92 218.893 156.914 218.835 156.926C218.777 156.937 218.724 156.965 218.682 157.006C218.64 157.048 218.612 157.1 218.6 157.157C218.589 157.215 218.595 157.274 218.618 157.327C218.641 157.381 218.679 157.427 218.728 157.459C218.778 157.491 218.836 157.508 218.895 157.508C218.974 157.508 219.049 157.477 219.105 157.422C219.161 157.366 219.192 157.292 219.192 157.214Z" fill="#01958B"/>
<path d="M221.115 155.263C221.115 155.201 221.096 155.139 221.061 155.087C221.025 155.035 220.975 154.994 220.916 154.97C220.857 154.946 220.792 154.94 220.73 154.952C220.667 154.964 220.61 154.994 220.564 155.039C220.519 155.083 220.489 155.14 220.476 155.201C220.464 155.263 220.47 155.327 220.495 155.385C220.519 155.443 220.56 155.493 220.613 155.528C220.666 155.562 220.729 155.581 220.793 155.581C220.835 155.581 220.877 155.573 220.916 155.557C220.956 155.541 220.991 155.518 221.021 155.488C221.051 155.459 221.075 155.424 221.091 155.385C221.107 155.347 221.115 155.305 221.115 155.263Z" fill="#01958B"/>
<path d="M226.745 119.982C225.106 120.294 223.747 122.376 223.136 123.467C223.21 122.11 225.818 119.021 226.52 119.266C227.223 119.51 226.745 119.982 226.745 119.982Z" fill="#7FA5EA"/>
<path d="M224.222 210.386L221.671 215.112H220.355L221.375 210.386H224.222Z" fill="#95B1EF"/>
<path d="M278.628 210.385L281.18 215.111H282.495L281.476 210.385H278.628Z" fill="#95B1EF"/>
<path d="M306.224 177.235L299.867 194.364C297.961 199.498 294.499 203.932 289.949 207.064C285.398 210.197 279.98 211.877 274.428 211.877H228.631C223.871 211.877 219.255 210.273 215.549 207.331C211.844 204.39 209.273 200.289 208.264 195.709L205.736 184.231C211.874 185.194 218.387 185.721 225.031 185.919C263.437 187.067 306.224 177.235 306.224 177.235Z" fill="#BDD1F9"/>
<path d="M251.488 211.876H228.631C223.871 211.876 219.255 210.272 215.549 207.331C211.844 204.39 209.273 200.289 208.264 195.709L205.736 184.23C211.874 185.194 218.387 185.721 225.031 185.919C224.758 190.134 225.108 208.513 251.488 211.876Z" fill="#AEC3FF"/>
<path d="M235.969 186.719C230.666 186.719 225.9 186.564 221.94 186.366C210.826 185.797 203.466 184.741 203.394 184.73C203.118 184.687 202.871 184.539 202.706 184.318C202.541 184.097 202.472 183.821 202.512 183.55C202.553 183.278 202.701 183.034 202.923 182.869C203.146 182.704 203.426 182.633 203.702 182.67C203.775 182.681 211.051 183.729 222.079 184.289C232.247 184.808 247.771 185.014 264.01 183.042C280.262 181.068 291.403 179.111 297.887 177.817C304.912 176.416 308.134 175.464 308.164 175.464C308.43 175.393 308.714 175.426 308.955 175.557C309.196 175.689 309.375 175.908 309.455 176.168C309.535 176.428 309.508 176.708 309.381 176.949C309.254 177.189 309.036 177.372 308.774 177.457C308.642 177.496 305.462 178.432 298.361 179.851C291.835 181.155 280.621 183.126 264.267 185.112C254.2 186.326 244.405 186.719 235.969 186.719Z" fill="#95B1EF"/>
<path d="M146.997 110.368H116.601V148.479H146.997V110.368Z" fill="#00A99D"/>
<path d="M145.765 111.561H117.833V147.434H145.765V111.561Z" fill="#BDD1F9"/>
<path d="M77.0928 169.67H39.534V215.188H77.0928V169.67Z" fill="#BDD1F9"/>
<path d="M77.0928 176.458H39.534V177.075H77.0928V176.458Z" fill="#AEC3FF"/>
<path d="M50.6464 175.856H40.6634V170.602H50.6464V175.856ZM40.7901 175.731H50.5209V170.725H40.7901V175.731Z" fill="#AEC3FF"/>
<path d="M56.0789 173.229C56.0789 172.88 56.184 172.539 56.381 172.249C56.578 171.958 56.8579 171.732 57.1855 171.599C57.513 171.465 57.8734 171.43 58.2211 171.498C58.5688 171.566 58.8882 171.734 59.1389 171.981C59.3896 172.228 59.5603 172.542 59.6295 172.885C59.6986 173.227 59.6631 173.582 59.5275 173.904C59.3918 174.227 59.162 174.502 58.8673 174.696C58.5725 174.89 58.2259 174.994 57.8714 174.994C57.396 174.994 56.9401 174.808 56.6039 174.477C56.2678 174.146 56.0789 173.697 56.0789 173.229Z" fill="#AEC3FF"/>
<path d="M60.9131 173.229C60.9129 172.945 60.9982 172.667 61.1582 172.431C61.3182 172.195 61.5458 172.011 61.8122 171.902C62.0786 171.793 62.3718 171.764 62.6548 171.819C62.9379 171.874 63.198 172.01 63.4023 172.211C63.6066 172.411 63.746 172.667 63.8028 172.945C63.8596 173.224 63.8313 173.512 63.7214 173.775C63.6116 174.038 63.4251 174.262 63.1856 174.421C62.9461 174.579 62.6643 174.664 62.3758 174.664C62.184 174.665 61.994 174.628 61.8166 174.556C61.6393 174.484 61.478 174.379 61.3422 174.245C61.2063 174.112 61.0985 173.954 61.0249 173.779C60.9513 173.605 60.9133 173.418 60.9131 173.229Z" fill="#AEC3FF"/>
<path d="M74.1079 171.541H66.1134V174.917H74.1079V171.541Z" fill="#AEC3FF"/>
<path d="M57.8678 207.69C65.5532 207.69 71.7835 201.556 71.7835 193.99C71.7835 186.424 65.5532 180.29 57.8678 180.29C50.1823 180.29 43.952 186.424 43.952 193.99C43.952 201.556 50.1823 207.69 57.8678 207.69Z" fill="#AEC3FF"/>
<path d="M58.4246 204.992C64.5971 204.692 69.3536 199.522 69.0485 193.445C68.7433 187.369 63.4922 182.686 57.3197 182.986C51.1472 183.287 46.3907 188.456 46.6959 194.533C47.001 200.61 52.2521 205.293 58.4246 204.992Z" fill="#95B1EF"/>
<path d="M68.8689 192.14H68.1161C67.1815 192.14 66.424 192.886 66.424 193.806V195.288C66.424 196.208 67.1815 196.954 68.1161 196.954H68.8689C69.8034 196.954 70.561 196.208 70.561 195.288V193.806C70.561 192.886 69.8034 192.14 68.8689 192.14Z" fill="#AEC3FF"/>
<path d="M154.277 169.054H112.575V215.111H154.277V169.054Z" fill="#BDD1F9"/>
<path d="M154.277 183.183H112.575V183.728H154.277V183.183Z" fill="#AEC3FF"/>
<path d="M137.091 170.628H130.339C130.115 170.628 129.933 170.806 129.933 171.027V171.142C129.933 171.362 130.115 171.541 130.339 171.541H137.091C137.315 171.541 137.497 171.362 137.497 171.142V171.027C137.497 170.806 137.315 170.628 137.091 170.628Z" fill="#AEC3FF"/>
<path d="M154.277 199.897H112.575V200.442H154.277V199.897Z" fill="#AEC3FF"/>
<path d="M137.091 184.855H130.339C130.115 184.855 129.933 185.034 129.933 185.254V185.37C129.933 185.59 130.115 185.768 130.339 185.768H137.091C137.315 185.768 137.497 185.59 137.497 185.37V185.254C137.497 185.034 137.315 184.855 137.091 184.855Z" fill="#AEC3FF"/>
<path d="M137.091 202.313H130.339C130.115 202.313 129.933 202.492 129.933 202.712V202.826C129.933 203.047 130.115 203.225 130.339 203.225H137.091C137.315 203.225 137.497 203.047 137.497 202.826V202.712C137.497 202.492 137.315 202.313 137.091 202.313Z" fill="#AEC3FF"/>
<path d="M156.578 166.653H109.977V169.67H156.578V166.653Z" fill="#95B1EF"/>
<path d="M131.235 160.076C130.988 160.075 130.752 159.978 130.578 159.807C130.403 159.635 130.305 159.402 130.304 159.16V150.817C130.305 150.575 130.403 150.342 130.578 150.17C130.752 149.999 130.988 149.902 131.235 149.901C131.481 149.902 131.718 149.998 131.892 150.17C132.067 150.342 132.165 150.574 132.166 150.817V159.16C132.165 159.403 132.067 159.635 131.892 159.807C131.718 159.979 131.481 160.076 131.235 160.076Z" fill="#95B1EF"/>
<path d="M126.299 155.521C126.299 155.521 128.55 154.688 129.309 155.195C130.068 155.702 129.07 157.274 128.472 157.377C127.875 157.479 126.117 157.222 126.117 157.222L126.299 155.521Z" fill="#FFB27D"/>
<path d="M126.667 156.582C127.025 155.634 126.723 155.162 126.723 155.162C126.723 155.162 118.433 153.582 117.66 153.075C116.887 152.568 109.892 143.027 109.892 143.027L98.9091 144.034C98.9091 144.034 112.616 155.364 114.597 156.609C117.873 158.664 125.791 157.494 125.791 157.494C125.791 157.494 126.384 157.327 126.667 156.582Z" fill="#00A99D"/>
<path d="M126.39 158.016L127.158 158.64L130.516 154.631L129.748 154.008L126.39 158.016Z" fill="#35488B"/>
<path d="M130.592 152.593C130.379 152.925 130.299 153.351 130.576 153.632C130.947 154.01 131.391 153.867 131.72 153.471L131.806 153.368C131.926 153.23 132.225 153.53 132.205 153.706C132.177 153.952 132.083 154.187 131.933 154.386C131.783 154.585 131.582 154.742 131.351 154.841C131.12 154.939 130.867 154.976 130.616 154.948C130.366 154.92 130.128 154.827 129.926 154.679C129.724 154.531 129.564 154.334 129.464 154.106C129.364 153.879 129.327 153.629 129.356 153.383C129.385 153.137 129.479 152.902 129.63 152.703C129.78 152.504 129.981 152.348 130.212 152.25C130.407 152.171 130.709 152.417 130.592 152.593Z" fill="#35488B"/>
<path d="M126.379 160.198C126.591 159.867 126.67 159.441 126.394 159.159C126.024 158.783 125.579 158.924 125.251 159.322C125.251 159.322 125.166 159.422 125.165 159.423C125.045 159.562 124.745 159.262 124.765 159.085C124.794 158.839 124.888 158.604 125.038 158.405C125.188 158.206 125.388 158.049 125.62 157.951C125.851 157.852 126.104 157.815 126.354 157.843C126.604 157.872 126.843 157.964 127.045 158.112C127.247 158.26 127.406 158.457 127.506 158.685C127.606 158.913 127.644 159.162 127.615 159.408C127.586 159.655 127.491 159.889 127.341 160.088C127.191 160.287 126.99 160.444 126.759 160.542C126.564 160.622 126.262 160.375 126.379 160.198Z" fill="#35488B"/>
<path d="M129.308 155.195C129.308 155.195 127.994 155.155 127.957 155.794C127.92 156.432 127.814 157.414 128.471 157.376C129.128 157.338 130.974 155.872 129.308 155.195Z" fill="#FFB27D"/>
<path d="M133.89 156.462C133.89 156.462 142.155 149.05 145.353 153.204C146.189 154.287 144.375 155.571 143.073 155.77C140.742 156.126 136.887 154.939 133.89 156.462Z" fill="#758BEA"/>
<path d="M147.146 160.076C147.146 162.9 144.051 165.356 139.46 166.664H124.368C119.777 165.359 116.682 162.9 116.682 160.076H147.146Z" fill="#BDD1F9"/>
<path d="M147.898 160.076H115.931C115.753 160.076 115.583 160.006 115.457 159.882C115.332 159.759 115.261 159.591 115.26 159.416C115.26 159.241 115.331 159.074 115.457 158.95C115.582 158.826 115.753 158.757 115.931 158.756H147.898C148.076 158.757 148.246 158.826 148.372 158.95C148.497 159.074 148.568 159.241 148.568 159.416C148.568 159.591 148.497 159.759 148.371 159.882C148.246 160.006 148.076 160.076 147.898 160.076Z" fill="#A2C5FC"/>
<path d="M137.357 161.401C137.357 161.401 137.913 164.472 136.389 165.308C134.866 166.145 133.663 164.367 134.999 163.566C136.335 162.765 136.868 162.801 137.357 161.401Z" fill="#758BEA"/>
<path d="M137.47 158.759C137.47 158.759 141.673 159.309 143.326 162.406C144.978 165.502 146.29 169.852 142.913 170.523C139.536 171.195 137.972 169.494 139.02 165.593C140.502 160.076 137.47 158.759 137.47 158.759Z" fill="#758BEA"/>
<path d="M77.093 208.359C77.093 208.359 75.6124 209.708 75.898 210.668C76.1836 211.628 77.522 212.267 77.7025 213.439C77.8829 214.611 78.6047 215.251 79.256 215.251H82.3522C82.3522 215.251 82.8302 214.427 81.6758 214.178C80.5215 213.928 80.0853 212.551 80.157 211.272C80.2287 209.993 80.0495 208.287 80.0495 208.287L77.5949 207.719L77.093 208.359Z" fill="#2C3A64"/>
<path d="M95.2448 211.809C95.2448 211.809 94.8994 214.882 95.5495 215.201H103.926C103.926 215.201 103.942 214.224 102.606 214.011C101.27 213.798 98.9254 213.017 98.5286 211.276C98.1319 209.535 95.2448 211.809 95.2448 211.809Z" fill="#2C3A64"/>
<path d="M102.263 168.147C102.263 168.147 101.824 173.533 101.307 180.007C100.607 188.801 99.7642 199.603 99.6806 201.654C99.5372 205.207 98.9636 210.891 98.9636 210.891C98.9636 210.891 97.5929 212.242 94.8492 211.673C94.8492 211.673 92.4054 203.555 91.7063 194.967L91.6741 194.542C91.024 185.802 90.0142 167.398 90.0142 167.398L102.263 168.147Z" fill="#35488B"/>
<path d="M102.264 168.147C102.264 168.147 101.825 173.533 101.308 180.007L91.7021 194.97L91.6699 194.545C91.0198 185.805 90.01 167.401 90.01 167.401L102.264 168.147Z" fill="#2C3A64"/>
<path d="M100.257 168.785C100.257 168.785 99.8503 169.788 99.1632 171.444C97.5571 175.307 94.4167 182.725 91.3061 189.3C89.8649 192.347 88.4298 195.211 87.1571 197.457C81.96 206.625 80.336 209.182 80.336 209.182C80.336 209.182 80.2608 209.154 80.1353 209.101C79.5963 208.876 78.1038 208.227 77.4202 207.63C77.2759 207.519 77.1621 207.374 77.0892 207.209C77.0892 207.209 79.0753 189.515 82.5563 185.201C84.5221 182.762 86.832 175.448 86.9408 172.89C86.9886 171.763 87.132 170.149 87.2766 168.695C87.4056 167.382 87.5383 166.202 87.6028 165.636C87.6303 165.401 87.6446 165.272 87.6446 165.272L96.7732 167.817L100.257 168.785Z" fill="#35488B"/>
<path d="M98.4034 171.294C94.3165 171.084 92.5001 170.637 90.1579 170.073C88.7502 169.734 87.8217 169.021 87.278 168.695C87.407 167.382 87.5397 166.202 87.6042 165.636L91.2752 167.483L98.4034 171.294Z" fill="#2C3A64"/>
<path d="M103.743 138.079C103.743 138.079 106.969 143.665 110.119 144.394C110.119 144.394 110.024 143.022 109.522 141.821C109.443 141.632 109.419 141.426 109.45 141.224C109.481 141.022 109.567 140.832 109.698 140.674C109.826 140.52 109.945 140.373 110.057 140.234C110.476 139.717 110.867 139.178 111.228 138.62L110.153 135.789L109.427 133.868C109.108 134.443 108.728 134.982 108.293 135.478C106.225 137.818 103.743 138.079 103.743 138.079Z" fill="#FFB27D"/>
<path d="M108.291 135.477C108.291 135.477 107.905 138.276 110.056 140.234C110.475 139.717 110.866 139.178 111.227 138.62L110.151 135.789C109.004 135.444 108.291 135.477 108.291 135.477Z" fill="#DE8344"/>
<path d="M112.071 139.033C112.071 139.033 107.252 137.183 108.468 134.248C109.683 131.313 109.881 129.095 113.009 130.151C116.136 131.208 116.27 132.567 116.103 133.644C115.935 134.722 113.355 139.438 112.071 139.033Z" fill="#FFB27D"/>
<path d="M109.315 151.465C108.772 153.003 108.101 154.495 107.307 155.923C107.148 156.209 106.994 156.489 106.848 156.769C106.75 156.953 106.657 157.137 106.565 157.321C104.807 160.81 103.997 163.835 103.647 166.212C103.58 166.67 103.528 167.101 103.493 167.506C103.335 169.249 86.7746 163.573 87.3088 161.135C87.6601 159.529 88.1453 157.841 88.5922 156.405C89.2483 154.299 89.835 152.728 89.835 152.728C92.9324 145.47 97.33 141.565 100.754 139.501C101.374 139.126 101.962 138.812 102.506 138.552C104.58 137.55 105.993 137.3 105.993 137.3C105.993 137.3 106.71 140.787 109.741 142.17C109.741 142.181 110.219 144.063 110.219 144.072C110.727 145.861 110.323 148.603 109.315 151.465Z" fill="#01958B"/>
<path d="M107.777 128.793C107.742 128.728 107.644 128.657 107.405 128.586C107.563 128.541 107.73 128.535 107.89 128.568C108.026 128.243 108.354 127.689 108.966 127.686C108.858 127.719 108.759 127.776 108.677 127.852C108.594 127.928 108.529 128.021 108.488 128.124C109.333 127.597 110.9 127.443 114.81 128.727C119.964 130.416 117.388 133.362 116.608 133.598C115.828 133.835 114.389 132.318 113.095 132.111C111.801 131.904 111.101 133.678 110.609 133.826C110.117 133.973 110.396 133.569 109.88 133.164C109.364 132.76 109.066 133.711 109.078 134.38C109.09 135.048 108.083 135.681 108.083 135.681L107.485 134.614C106.895 133.548 107.056 129.673 107.62 128.98C107.677 128.918 107.726 128.856 107.777 128.793Z" fill="#2B478B"/>
<path d="M99.106 148.819C99.106 148.819 99.6605 152.951 101.535 156.078C103.41 159.205 104.24 154.338 104.24 154.338L99.106 148.819Z" fill="#00A99D"/>
<path d="M106.559 157.321C104.802 160.81 103.991 163.835 103.641 166.211C103.574 166.669 103.523 167.101 103.487 167.505C103.371 168.755 103.371 170.013 103.487 171.263C103.658 173.165 89.128 169.491 87.1849 166.74C86.1094 165.224 87.4574 160.023 88.589 156.404C88.7778 156.449 97.7905 158.56 104.019 153.071L106.559 157.321Z" fill="#35488B"/>
<path d="M107.666 147.499L106.77 145.734C106.77 145.703 106.868 142.623 104.991 140.816C103.979 139.841 102.554 139.404 100.752 139.502C101.372 139.127 101.96 138.813 102.504 138.553C103.791 138.748 104.868 139.259 105.73 140.089C107.926 142.22 107.666 147.356 107.666 147.499Z" fill="#2C3A64"/>
<path d="M120.055 159.634C120.055 159.634 122.881 159.134 123.35 159.188C123.82 159.242 125.432 159.996 125.448 160.129C125.463 160.262 125.38 160.364 125.095 160.37C124.811 160.376 123.879 160.214 123.932 160.328C123.986 160.442 126.658 161.09 126.662 161.622C126.665 162.154 125.142 163.082 123.889 163.09C122.637 163.098 120.253 161.561 120.044 161.528C118.267 161.295 120.055 159.634 120.055 159.634Z" fill="#FFB27D"/>
<path d="M120.583 160.767C120.64 160.217 120.054 159.634 120.054 159.634C120.054 159.634 111.666 157.361 110.972 156.671C110.278 155.982 107.068 145.001 107.068 145.001C107.068 145.001 105.96 140.556 103.364 140.067C101.111 139.641 99.5539 140.737 98.5358 142.023C97.9451 142.775 97.5981 143.684 97.5402 144.632C97.4822 145.581 97.7159 146.525 98.2107 147.341C100.472 151.092 105.033 158.538 106.365 159.811C109.331 162.641 120.042 162.052 120.042 162.052C120.042 162.052 120.472 161.87 120.583 160.767Z" fill="#01958B"/>
<path d="M277.308 134.254C277.308 134.254 281.168 133.1 283.444 135.272C285.721 137.444 285.272 139.939 288.519 139.742C291.766 139.546 292.509 140.724 292.089 142.566C291.668 144.408 295.688 143.887 296.903 146.131C298.119 148.374 298.293 152.506 292.024 152.293C285.755 152.08 282.976 148.764 280.29 150.138C277.605 151.512 273.181 149.298 274.343 147.365C275.505 145.432 273.251 145.953 272.853 142.005C272.455 138.056 274.596 134.551 277.308 134.254Z" fill="#163560"/>
<path d="M272.124 144.863C272.124 144.863 272.332 143.235 273.135 142.519C273.938 141.804 274.862 141.482 275.066 141.963C275.27 142.444 274.677 143.788 274.478 144.214C274.278 144.639 274.27 145.336 273.412 145.517C272.554 145.698 272.124 144.863 272.124 144.863Z" fill="#FFB27D"/>
<path d="M274.278 144.641L273.006 143.634C272.961 143.598 272.923 143.554 272.895 143.504C272.867 143.455 272.85 143.4 272.843 143.343C272.837 143.287 272.842 143.23 272.858 143.175C272.874 143.121 272.901 143.07 272.938 143.025L275.234 140.208C275.308 140.118 275.414 140.061 275.529 140.049C275.645 140.037 275.761 140.07 275.852 140.142L277.126 141.148C277.171 141.183 277.209 141.227 277.236 141.277C277.264 141.327 277.282 141.382 277.288 141.438C277.294 141.495 277.289 141.552 277.273 141.606C277.256 141.661 277.229 141.712 277.193 141.756L274.896 144.574C274.823 144.663 274.717 144.72 274.601 144.733C274.486 144.746 274.369 144.712 274.278 144.641Z" fill="#01958B"/>
<path d="M274.264 144.376L273.27 143.59C273.232 143.56 273.199 143.522 273.176 143.479C273.152 143.437 273.137 143.39 273.131 143.341C273.126 143.293 273.13 143.244 273.144 143.197C273.158 143.15 273.181 143.107 273.212 143.069L275.336 140.462C275.399 140.385 275.49 140.336 275.59 140.325C275.689 140.315 275.789 140.344 275.867 140.405L276.862 141.191C276.94 141.253 276.99 141.343 277 141.441C277.011 141.539 276.982 141.637 276.92 141.713L274.795 144.319C274.764 144.357 274.726 144.389 274.682 144.413C274.639 144.436 274.591 144.451 274.542 144.456C274.492 144.461 274.442 144.457 274.395 144.443C274.347 144.429 274.303 144.407 274.264 144.376Z" fill="#8C9DF4"/>
<path d="M285.382 146.81C281.993 146.105 282.016 146.448 279.798 146.505C279.798 146.505 277.158 146.643 275.395 147.14C272.445 147.97 270.092 151.093 270.092 151.093L273.789 145.518L271.895 144.523C271.895 144.523 263.324 152.299 265.417 155.361C267.161 157.913 274.057 152.621 273.892 153.38C273.892 153.389 273.892 153.398 273.892 153.405C273.385 156.885 276.178 162.012 276.178 162.012L281.381 166.033L286.345 162.555L286.749 162.412C286.749 162.412 287.567 162.012 287.811 160.107C287.841 159.872 288.014 157.86 288.186 155.833C288.371 153.645 288.554 151.44 288.554 151.44L285.382 146.81Z" fill="#8C9DF4"/>
<path d="M276.554 163.143C276.554 163.143 274.597 168.78 274.945 172.908C275.155 175.402 278.556 193.136 278.746 194.287C278.927 195.371 281.375 209.414 281.375 209.414C281.375 209.414 280.954 211.752 281.853 211.502C283.099 211.156 283.493 210.741 283.493 210.741C283.493 210.741 285.357 187.218 284.204 178.815C283.502 173.619 283.112 168.387 283.036 163.145L276.554 163.143Z" fill="#00766E"/>
<path d="M286.697 162.926C286.697 162.926 290.349 167.749 290.689 171.009C291.03 174.269 291.224 185.723 291.949 188.902C292.674 192.081 295.339 198.196 295.339 208.113C295.339 208.113 295.062 208.681 294.206 208.983C293.933 209.081 294.059 208.596 293.703 208.678C292.998 208.836 287.262 194.659 286.941 194.021C285.139 190.449 281.606 178.068 277.653 171.498C276.704 169.92 278.235 163.647 278.235 163.647L286.697 162.926Z" fill="#008F85"/>
<path d="M281.24 147.719C281.89 147.429 282.174 146.952 282.033 146.259C281.825 145.242 281.444 144.292 281.398 142.808L281.181 142.859L277.528 143.7C277.528 143.7 277.689 145.928 277.69 145.935C277.788 147.376 278.143 149.099 281.24 147.719Z" fill="#FFB27D"/>
<path d="M277.528 143.699C277.528 143.699 277.647 144.837 277.689 145.91C279.746 145.785 280.771 143.901 281.181 142.862L277.528 143.699Z" fill="#DE8344"/>
<path d="M276.878 144.736C276.878 144.736 281.75 144.654 281.652 141.668C281.554 138.682 282.115 136.66 279.001 136.585C275.887 136.511 275.319 137.67 275.105 138.674C274.891 139.677 275.605 144.68 276.878 144.736Z" fill="#FFB27D"/>
<path d="M276.567 136.727C276.567 136.727 278.203 140.626 280.529 141.133C282.856 141.64 283.835 141 283.835 141C282.661 140.054 281.859 138.737 281.564 137.273C281.564 137.273 277.636 134.81 276.567 136.727Z" fill="#163560"/>
<path d="M277.19 136.56C277.19 136.56 276.091 137.007 275.66 137.822C275.238 138.619 274.891 138.881 275.023 140.144C275.023 140.144 273.799 138.289 275.023 136.733C276.315 135.075 277.19 136.56 277.19 136.56Z" fill="#163560"/>
<path d="M286.339 162.555L286.743 162.411C286.743 162.411 287.562 162.011 287.806 160.106C287.835 159.871 288.009 157.859 288.181 155.832C288.181 155.832 286.345 154.035 285.791 155.109C285.236 156.183 286.526 158.208 286.05 159.404C285.574 160.601 284.744 162.206 286.339 162.555Z" fill="#6980E2"/>
<path d="M276.173 162.011C276.173 162.011 277.129 162.759 279.041 162.797C281.321 162.843 286.972 162.225 286.972 162.225C287.127 162.683 287.208 163.163 287.211 163.645C287.211 163.645 280.31 165.358 276.311 163.895C276.315 163.895 275.802 162.939 276.173 162.011Z" fill="#233862"/>
<path d="M278.496 164.733C277.922 164.733 277.455 164.213 277.455 163.573C277.455 162.933 277.922 162.414 278.496 162.414C279.069 162.414 279.536 162.934 279.536 163.573C279.536 164.212 279.069 164.733 278.496 164.733ZM278.496 162.753C278.112 162.753 277.8 163.121 277.8 163.576C277.8 164.032 278.112 164.4 278.496 164.4C278.879 164.4 279.191 164.032 279.191 163.576C279.191 163.121 278.879 162.759 278.496 162.759V162.753Z" fill="white"/>
<path d="M285.688 191.669C285.688 191.669 290.577 190.603 293.307 189.337C293.307 189.337 296.067 204.556 297.115 209.758C297.278 210.569 297.691 211.793 297.849 212.524C298.024 213.38 298.011 214.262 297.811 215.112H289.349C289.349 215.112 289.403 213.831 290.89 213.357C292.376 212.883 293.929 211.866 293.888 211.239C293.847 210.612 285.688 191.669 285.688 191.669Z" fill="#00A99D"/>
<path d="M277.676 192.07L284.906 192.017C284.906 192.017 284.3 209.361 284.576 211.207C284.754 212.502 284.864 213.805 284.906 215.111H275.585C275.585 215.111 275.465 214.033 276.949 213.16C278.434 212.287 280.122 213.042 280.685 211.813C281.248 210.584 277.676 192.07 277.676 192.07Z" fill="#00A99D"/>
<path d="M277.103 142.952C277.138 143.174 277.016 143.378 276.829 143.406C276.643 143.434 276.471 143.277 276.43 143.053C276.39 142.83 276.517 142.627 276.703 142.599C276.888 142.571 277.068 142.73 277.103 142.952Z" fill="white"/>
<path d="M301.233 156.466C301.233 156.466 302.11 154.852 302.926 154.75C303.742 154.647 305.22 154.093 305.127 154.402C305.034 154.712 304.095 154.826 304.021 155.013C303.946 155.2 305.455 155.337 305.885 155.328C306.315 155.32 307.312 155.201 307.3 155.414C307.288 155.627 305.594 156.65 304.331 156.641C303.068 156.633 301.565 157.25 301.565 157.25L301.233 156.466Z" fill="#FFB27D"/>
<path d="M285.582 153.568C285.582 153.568 290.448 161.089 293.221 161.789C295.406 162.341 301.853 158.17 301.853 158.17C302.231 156.781 301.541 155.973 301.541 155.973C301.541 155.973 295.014 157.426 294.428 157.247C292.071 156.529 289.95 150.717 288.555 148.776C287.385 147.148 285.386 146.809 285.386 146.809L285.582 153.568Z" fill="#8C9DF4"/>
<path d="M269.875 150.477L272.437 148.742L271.152 151.549L268.64 151.775L269.875 150.477Z" fill="#8C9DF4"/>
<path d="M164.373 189.854C164.373 189.854 156.148 191.706 156.148 197.022C156.148 197.022 156.232 199.698 159.183 198.959C161.485 198.382 158.911 195.229 164.373 189.854Z" fill="#8C9DF4"/>
<path d="M163.876 189.173C163.876 189.173 158.066 188.033 157.532 189.37C156.707 191.431 160.739 188.718 163.876 189.173Z" fill="#8C9DF4"/>
<path d="M321.616 215.112H20.7165C20.535 215.112 20.3879 215.257 20.3879 215.435V215.519C20.3879 215.698 20.535 215.842 20.7165 215.842H321.616C321.797 215.842 321.944 215.698 321.944 215.519V215.435C321.944 215.257 321.797 215.112 321.616 215.112Z" fill="#233862"/>
<path d="M170.421 189.438C170.421 189.438 173.947 193.437 172.547 195.963C172.351 196.316 171.938 196.93 170.808 196.528C169.677 196.126 171.047 194.666 170.997 192.82C170.955 191.355 170.421 189.438 170.421 189.438Z" fill="#8C9DF4"/>
<path d="M167.416 188.655C168.333 188.797 170.468 188.169 170.624 188.153C171.948 188.029 170.671 186.742 170.671 186.742C170.671 186.742 168.59 186.291 168.24 186.317C168.069 186.338 167.899 186.37 167.732 186.413L168.091 186.757C168.091 186.757 166.357 186.937 166.339 187.333C166.321 187.73 166.608 188.53 167.416 188.655Z" fill="#FFB27D"/>
<path d="M168.234 186.322L166.761 186.498C166.761 186.879 167.895 186.755 167.956 186.944C168.017 187.134 168.274 186.681 168.274 186.681L168.234 186.322Z" fill="#FFB27D"/>
<path d="M181.986 186.439C181.986 186.439 180.003 186.63 180.13 186.837C180.258 187.044 181.128 187.135 181.128 187.135L181.826 186.692L181.986 186.439Z" fill="#FFB27D"/>
<path d="M170.256 187.381C169.938 186.473 170.383 186.19 170.383 186.19C170.383 186.19 179.472 181.946 180.215 181.479C180.959 181.011 185.951 172.051 185.951 172.051C185.951 172.051 187.805 168.388 190.164 168.462C192.213 168.526 193.353 169.783 193.988 171.103C194.353 171.874 194.474 172.735 194.336 173.574C194.197 174.413 193.805 175.192 193.211 175.809C190.489 178.644 185.023 184.26 183.607 185.111C180.455 187.008 171.011 188.542 171.011 188.542C170.672 188.218 170.413 187.82 170.256 187.381Z" fill="#01A095"/>
<path d="M171.586 197.111C172.958 198.668 175.851 199.673 181.433 199.935C181.881 199.956 182.331 199.972 182.784 199.986C183.237 200 183.718 200.01 184.185 200.016C185.703 200.037 187.212 200.016 188.649 199.972C190.044 199.925 191.373 199.855 192.576 199.751C194.93 199.559 196.809 199.28 197.779 198.957C198.002 198.896 198.211 198.795 198.396 198.658C198.494 198.571 198.575 198.467 198.635 198.351C198.993 197.709 198.803 196.656 198.378 195.495C197.758 193.804 196.62 191.888 195.853 190.689C195.7 190.453 195.562 190.239 195.447 190.064C195.208 189.711 195.068 189.506 195.068 189.506C195.068 189.506 192.46 189.742 188.891 190.2C188.163 190.292 187.394 190.395 186.6 190.505C178.926 191.575 171.278 193.495 171.286 196.043C171.289 196.419 171.263 196.739 171.586 197.111Z" fill="#2B478B"/>
<path d="M181.089 199.892C181.556 199.906 183.718 199.998 184.185 200.004C185.703 200.025 187.212 200.004 188.649 199.961L190.002 194.595C187.911 197.464 181.762 199.706 181.089 199.892Z" fill="#2C3A64"/>
<path d="M185.609 215.476H178.171C178.29 215.198 178.571 214.834 179.262 214.715C180.433 214.513 182.468 213.892 182.206 212.224C181.942 210.536 184.796 210.319 184.796 210.319C184.796 210.319 185.983 214.834 185.609 215.476Z" fill="#2C3A64"/>
<path d="M171.466 196.83C171.466 196.83 180.696 211.124 181.463 212.823C181.463 212.823 184.603 213.111 185.359 210.902C185.359 210.902 179.872 195.817 177.461 194.574C175.049 193.33 171.466 196.83 171.466 196.83Z" fill="#2B478B"/>
<path d="M190.078 166.735C190.078 166.735 186.9 171.017 184.067 171.246C184.217 170.628 184.438 170.028 184.725 169.458C184.871 169.18 184.944 168.872 184.938 168.559C184.932 168.247 184.848 167.941 184.692 167.669L184.677 167.644C184.382 167.141 184.114 166.623 183.874 166.092L185.177 163.772L185.446 162.524C185.645 163.072 185.902 163.599 186.212 164.096C186.644 164.768 187.209 165.348 187.873 165.801C188.537 166.255 189.286 166.572 190.078 166.735Z" fill="#FFB27D"/>
<path d="M186.336 164.074C186.336 164.074 186.797 166.219 184.677 167.645C184.382 167.142 184.114 166.624 183.874 166.093L185.177 163.773C186.219 163.62 186.336 164.074 186.336 164.074Z" fill="#DE8344"/>
<path d="M183.478 167.387C183.478 167.387 187.464 165.249 186.073 162.825C184.682 160.4 184.26 158.493 181.652 159.756C179.043 161.02 179.088 162.216 179.352 163.136C179.617 164.056 182.404 167.881 183.478 167.387Z" fill="#FFB27D"/>
<path d="M186.058 157.999C186.081 157.938 186.158 157.866 186.358 157.777C186.215 157.755 186.07 157.769 185.934 157.816C185.779 157.548 185.431 157.102 184.893 157.165C184.991 157.182 185.085 157.22 185.166 157.277C185.248 157.334 185.315 157.409 185.364 157.495C184.568 157.128 183.186 157.166 179.926 158.711C175.624 160.748 178.204 163.031 178.912 163.151C179.619 163.271 180.704 161.794 181.802 161.471C182.901 161.149 183.714 162.618 184.161 162.691C184.608 162.764 184.317 162.445 184.721 162.037C185.125 161.629 185.49 162.424 185.557 163.006C185.624 163.589 186.336 164.074 186.336 164.074C186.336 164.074 186.575 164.03 186.965 163.037C187.354 162.044 186.782 158.69 186.212 158.145L186.058 157.999Z" fill="#2B478B"/>
<path d="M209.862 210.803C209.862 210.803 210.789 212.189 211.005 212.637C211.222 213.085 210.797 214.042 210.162 214.185C209.601 214.312 209.516 215.291 209.516 215.291H212.235C212.372 215.294 212.506 215.258 212.623 215.188C212.739 215.118 212.833 215.017 212.893 214.896C213.277 214.064 213.364 212.984 213.442 212.623C213.604 211.863 213.92 211.225 213.784 210.452C213.647 209.679 212.303 209.235 209.862 209.242C207.18 209.25 209.862 210.803 209.862 210.803Z" fill="#233862"/>
<path d="M201.87 194.098C199.819 196.235 184.766 191.812 186.027 190.686C186.348 190.4 186.238 190.055 186.368 189.594C186.993 187.407 185.75 183.664 185.216 182.212C185.097 181.875 185.007 181.664 184.99 181.624C184.486 180.282 184.098 178.901 183.83 177.495C183.334 174.881 183.344 172.45 184.022 170.959C184.025 170.952 184.028 170.945 184.032 170.939C186.852 170.127 188.404 166.042 188.404 166.042C188.404 166.042 197.338 168.541 200.581 181.091C200.581 181.091 200.749 181.891 200.955 183.091C201.018 183.459 201.084 183.866 201.151 184.299C201.498 186.534 201.699 189.395 201.904 191.528C201.911 191.601 201.919 191.677 201.927 191.754C202.031 192.668 202.21 193.741 201.87 194.098Z" fill="#01958B"/>
<path d="M190.015 191.975C190.015 191.975 191.516 192.169 194.543 192.389C197.679 192.617 201.003 193.105 201.543 194.141C201.723 194.485 201.598 195.354 201.248 196.555C200.475 199.21 198.6 203.486 196.46 207.276C201.957 207.59 209.439 208.785 209.439 208.785C209.794 209.183 210.044 209.66 210.168 210.176C210.292 210.691 210.286 211.229 210.15 211.741C209.757 211.741 208.577 211.908 206.967 212.165C201.132 213.088 194.028 214.988 189.622 214.988C188.659 214.988 187.937 214.315 187.644 213.434C185.834 208.009 190.015 191.975 190.015 191.975Z" fill="#2B478B"/>
<path d="M201.248 196.959C198.213 196.865 190.602 193.186 190.732 193.156C191.991 192.846 193.265 192.602 194.549 192.426C197.685 192.674 201.009 193.203 201.55 194.333C201.723 194.706 201.599 195.652 201.248 196.959Z" fill="#2C3A64"/>
<path d="M189.903 166.648C189.903 166.648 186.079 167.431 185.712 170.725C185.439 173.125 187.375 178.558 187.375 178.558L188.612 178.058C188.612 178.058 186.274 171.352 186.633 170.208C187.095 168.746 189.29 166.561 191.309 167.431L189.903 166.648Z" fill="#2B478B"/>
<path d="M201.87 194.097C199.819 196.235 184.441 191.862 185.703 190.73C186.03 190.421 186.261 190.026 186.368 189.591C186.993 187.404 185.75 183.661 185.216 182.209C185.097 181.873 183.916 177.887 183.902 177.844L188.23 176.921C188.23 176.921 189.456 178.997 191.047 180.063C193.966 182.03 197.42 183.083 200.957 183.086C201.019 183.454 201.086 183.861 201.153 184.294C201.499 186.529 201.7 189.39 201.906 191.523C201.913 191.596 201.92 191.671 201.928 191.749C202.031 192.668 202.21 193.741 201.87 194.097Z" fill="#2B478B"/>
<path d="M169.229 215.112H166.242V182.413C166.241 181.315 165.798 180.262 165.01 179.484C164.222 178.707 163.153 178.268 162.038 178.265H154.279V175.331H162.038C163.945 175.333 165.774 176.08 167.122 177.407C168.471 178.735 169.23 180.535 169.232 182.413L169.229 215.112Z" fill="#BDD1F9"/>
<path d="M160.941 174.99H160.403V178.74H160.941V174.99Z" fill="#91B5F8"/>
<path d="M169.759 185.112V184.583H165.95V185.112H169.759Z" fill="#91B5F8"/>
<path d="M169.76 191.407V190.877H165.952V191.407H169.76Z" fill="#91B5F8"/>
<path d="M169.47 210.731H165.868V215.11H169.47V210.731Z" fill="#91B5F8"/>
<path d="M169.686 183.952L183.687 189.363C183.821 189.415 183.971 189.413 184.104 189.356C184.236 189.299 184.34 189.193 184.393 189.061L184.485 188.826C184.507 188.77 184.518 188.711 184.517 188.652C184.516 188.592 184.503 188.533 184.479 188.479C184.455 188.424 184.421 188.375 184.377 188.333C184.333 188.292 184.282 188.259 184.226 188.238L170.145 182.791L169.686 183.952Z" fill="#2B478B"/>
<path d="M168.323 183.5L168.635 183.617L168.729 182.92C168.81 182.32 169.423 181.941 169.971 182.153L174.06 183.735L174.465 182.72L169.286 180.72C169.163 180.676 169.033 180.66 168.903 180.672C168.773 180.685 168.648 180.725 168.536 180.79C168.424 180.856 168.328 180.945 168.255 181.051C168.182 181.157 168.134 181.278 168.114 181.404L167.875 182.681C167.841 182.847 167.868 183.02 167.95 183.169C168.031 183.319 168.163 183.435 168.323 183.5Z" fill="#2B478B"/>
<path d="M171.15 183.618L173.707 184.607L174.282 183.169L171.725 182.18L171.15 183.618Z" fill="#2B478B"/>
<path d="M173.371 183.727C173.379 183.706 173.383 183.683 173.383 183.661C173.382 183.639 173.377 183.617 173.368 183.596C173.359 183.576 173.346 183.557 173.33 183.541C173.313 183.526 173.294 183.514 173.273 183.505C173.251 183.497 173.229 183.493 173.206 183.494C173.183 183.494 173.161 183.499 173.14 183.508C173.119 183.517 173.1 183.53 173.085 183.546C173.069 183.562 173.056 183.581 173.048 183.602C173.031 183.644 173.032 183.691 173.05 183.732C173.069 183.774 173.103 183.807 173.146 183.823C173.189 183.84 173.236 183.839 173.279 183.821C173.321 183.803 173.354 183.769 173.371 183.727Z" fill="#6C7AFF"/>
<path d="M172.338 183.328C172.351 183.297 172.353 183.262 172.346 183.229C172.339 183.196 172.322 183.166 172.297 183.142C172.272 183.119 172.241 183.103 172.207 183.097C172.173 183.091 172.139 183.096 172.107 183.109C172.076 183.123 172.049 183.145 172.031 183.174C172.012 183.202 172.003 183.235 172.004 183.269C172.004 183.303 172.015 183.336 172.035 183.363C172.055 183.391 172.082 183.412 172.114 183.424C172.157 183.441 172.205 183.44 172.246 183.422C172.288 183.403 172.321 183.37 172.338 183.328Z" fill="#6C7AFF"/>
<path d="M184.926 186.267C184.459 186.369 183.983 186.43 183.505 186.451C182.843 186.472 182.143 186.351 181.826 186.481C181.156 186.757 179.032 188.193 180.058 188.808C180.478 189.076 180.975 189.205 181.475 189.176C181.975 189.148 182.453 188.963 182.84 188.649C183.54 188.091 185.445 188.045 185.445 188.045L184.926 186.267Z" fill="#FFB27D"/>
<path d="M192.064 169.672C196.668 170.979 199.473 181.857 198.823 185.113C198.173 188.368 185.178 188.539 185.178 188.539C185.178 188.539 184.448 187.976 184.362 187.395C184.252 186.654 184.369 186.314 184.369 186.314C184.369 186.314 192.587 184.117 192.775 183.183C192.962 182.249 188.819 177.301 188.883 174.613C188.946 171.924 189.554 168.959 192.064 169.672Z" fill="#01958B"/>
<path d="M174.502 215.111C174.502 215.111 172.721 212.337 167.668 212.922C162.614 213.507 159.015 216.18 146.961 213.195C134.907 210.21 135.993 215.567 129.129 214.413C122.265 213.258 119.257 215.111 119.257 215.111H174.502Z" fill="#8C9DF4"/>
<path d="M161.753 174.994C161.753 174.994 163.133 171.955 165.792 172.509C165.792 172.509 166.474 172.676 166.303 173.365C166.132 174.053 164.054 173.112 161.753 174.994Z" fill="#8C9DF4"/>
</svg>
