<svg width="345" height="216" viewBox="0 0 345 216" fill="none" xmlns="http://www.w3.org/2000/svg">
<rect x="0.39624" width="344" height="215.785" fill="#FFE1C7"/>
<path d="M42.2014 215.421L293.116 215.039C312.963 201.618 307.829 158.954 291.253 150.772C273.409 141.96 290.092 109.723 262.604 99.8309C244.657 93.373 226.905 104.627 215.026 90.7218C201.065 74.3857 177.876 54.5013 134.688 69.953C101.378 81.8664 104.648 106.31 74.5508 110.917C37.2537 116.622 59.2445 148.018 41.3703 178.173C28.2546 200.297 41.4784 215.098 42.2014 215.421Z" fill="#FFF2E7"/>
<path d="M179.366 107.373C186.578 100.279 186.578 88.7783 179.366 81.6847C172.153 74.5911 160.46 74.5911 153.247 81.6847C146.035 88.7783 146.035 100.279 153.247 107.373C160.46 114.466 172.153 114.466 179.366 107.373Z" fill="#8C453A"/>
<path d="M177.772 107.373C184.984 100.279 184.984 88.7783 177.772 81.6847C170.559 74.5911 158.866 74.5911 151.653 81.6847C144.441 88.7783 144.441 100.279 151.653 107.373C158.866 114.466 170.559 114.466 177.772 107.373Z" fill="#B75742"/>
<path d="M105.906 127.271C105.906 127.271 107.863 174.338 105.906 184.598C105.906 184.598 124.944 171.516 126.509 155.999L123.771 140.609L114.383 123.812L105.906 127.271Z" fill="#A53728"/>
<path d="M124.162 212.259H116.86V102.479H114.251V212.259H106.95C106.166 212.259 105.414 212.566 104.86 213.111C104.306 213.656 103.995 214.395 103.995 215.166H127.117C127.117 214.395 126.806 213.656 126.252 213.111C125.697 212.566 124.946 212.259 124.162 212.259Z" fill="#0E293F"/>
<path d="M123.771 147.537C123.771 147.537 123.119 154.078 126.509 156.001C126.509 156.001 122.467 81.2326 117.772 71.7422L118.555 114.834L123.771 147.537Z" fill="#E56A55"/>
<path d="M113.73 71.7422C113.73 71.7422 105.123 116.757 104.733 128.3C104.733 128.3 113.73 130.224 123.771 147.537C123.771 147.537 119.598 77.8987 117.772 71.7422H113.73Z" fill="#F47458"/>
<g style="mix-blend-mode:screen" opacity="0.5">
<path d="M116.105 71.7422H115.121L110.276 131.269C112.467 132.892 115.171 135.373 118.134 139.14C118.259 118.753 116.568 81.4965 116.105 71.7422Z" fill="#F47458"/>
</g>
<path d="M117.724 70.7866H113.779C113.65 70.7866 113.526 70.837 113.435 70.9267C113.344 71.0164 113.292 71.1381 113.292 71.265C113.292 71.3919 113.344 71.5135 113.435 71.6032C113.526 71.693 113.65 71.7434 113.779 71.7434H117.724C117.853 71.7434 117.977 71.693 118.068 71.6032C118.159 71.5135 118.21 71.3919 118.21 71.265C118.21 71.1381 118.159 71.0164 118.068 70.9267C117.977 70.837 117.853 70.7866 117.724 70.7866Z" fill="#0E293F"/>
<path d="M117.257 69.3965C117.257 69.6894 117.169 69.9757 117.003 70.2192C116.838 70.4628 116.603 70.6526 116.327 70.7647C116.052 70.8767 115.75 70.9061 115.457 70.8489C115.165 70.7918 114.897 70.6507 114.687 70.4436C114.476 70.2365 114.333 69.9726 114.274 69.6854C114.216 69.3981 114.246 69.1003 114.36 68.8297C114.474 68.5591 114.667 68.3278 114.915 68.1651C115.162 68.0024 115.453 67.9155 115.751 67.9155C115.949 67.9154 116.145 67.9536 116.328 68.028C116.51 68.1024 116.676 68.2115 116.816 68.349C116.956 68.4866 117.067 68.6499 117.143 68.8296C117.218 69.0093 117.257 69.2019 117.257 69.3965Z" fill="#0E293F"/>
<path d="M200.34 127.271C200.34 127.271 202.297 174.338 200.34 184.598C200.34 184.598 219.378 171.516 220.944 155.999L218.205 140.609L208.816 123.812L200.34 127.271Z" fill="#13375B"/>
<path d="M218.596 212.259H211.294V102.479H208.685V212.259H201.382C200.598 212.259 199.847 212.566 199.292 213.111C198.738 213.656 198.427 214.395 198.427 215.166H221.549C221.549 214.396 221.238 213.657 220.684 213.112C220.13 212.567 219.379 212.26 218.596 212.259Z" fill="#0E293F"/>
<path d="M218.205 147.537C218.205 147.537 217.553 154.078 220.944 156.001C220.944 156.001 216.901 81.2326 212.206 71.7422L212.989 114.834L218.205 147.537Z" fill="#355389"/>
<path d="M208.164 71.7422C208.164 71.7422 199.559 116.757 199.167 128.3C199.167 128.3 208.164 130.224 218.205 147.537C218.205 147.537 214.032 77.8987 212.206 71.7422H208.164Z" fill="#466EB6"/>
<g style="mix-blend-mode:screen" opacity="0.6">
<path d="M210.539 71.7422H209.555L204.71 131.269C206.901 132.892 209.606 135.373 212.569 139.14C212.697 118.753 211.001 81.4965 210.539 71.7422Z" fill="#466EB6"/>
</g>
<path d="M212.158 70.7866H208.212C208.083 70.7866 207.96 70.837 207.869 70.9267C207.777 71.0164 207.726 71.1381 207.726 71.265C207.726 71.3919 207.777 71.5135 207.869 71.6032C207.96 71.693 208.083 71.7434 208.212 71.7434H212.158C212.287 71.7434 212.41 71.693 212.502 71.6032C212.593 71.5135 212.644 71.3919 212.644 71.265C212.644 71.1381 212.593 71.0164 212.502 70.9267C212.41 70.837 212.287 70.7866 212.158 70.7866Z" fill="#0E293F"/>
<path d="M211.692 69.3965C211.692 69.6894 211.604 69.9759 211.439 70.2196C211.273 70.4633 211.038 70.6534 210.763 70.7658C210.488 70.8782 210.185 70.9079 209.893 70.8511C209.601 70.7943 209.332 70.6537 209.121 70.4468C208.91 70.24 208.767 69.9763 208.708 69.6891C208.649 69.4018 208.679 69.1039 208.792 68.833C208.905 68.5622 209.098 68.3304 209.345 68.1671C209.593 68.0038 209.884 67.9163 210.181 67.9155C210.38 67.9149 210.576 67.9528 210.759 68.0269C210.942 68.1011 211.109 68.2101 211.249 68.3477C211.389 68.4852 211.501 68.6487 211.577 68.8287C211.653 69.0086 211.692 69.2016 211.692 69.3965Z" fill="#0E293F"/>
<path d="M95.4055 154.169C95.5462 153.874 94.0609 153.473 94.0134 153.155C93.9659 152.837 95.9571 153.017 96.0568 152.753C96.2431 152.265 93.8876 152.425 93.9575 152.196C94.0274 151.967 96.4463 151.684 96.2329 151.256C96.0195 150.829 93.7562 151.806 93.7171 151.531C93.678 151.256 95.9049 150.809 95.9291 150.208C95.9422 149.886 92.2262 151.44 91.8368 151.224C91.4473 151.009 92.4517 149.594 92.1508 149.338C91.8498 149.083 90.5453 152.041 90.3096 152.127C90.0738 152.213 84.9752 153.73 83.2411 153.982C83.0939 153.404 81.7904 150.225 81.6646 149.681C80.6471 150.248 79.3491 149.566 78.3102 150.071C78.8348 151.891 80.0125 157.883 80.4831 158.153C81.9162 158.978 89.457 155.057 90.7037 154.364C91.9504 153.671 92.5878 153.997 93.4003 153.824C94.2128 153.651 95.2648 154.464 95.4055 154.169Z" fill="#F38B80"/>
<path d="M83.938 214.92C83.3994 214.53 82.9652 214.272 81.2442 213.454C81.1324 213.4 80.7233 213.144 80.5761 213.056C80.1766 212.795 79.8159 212.481 79.5046 212.123C79.1962 211.785 79.0489 210.699 78.98 209.832C79.157 207.901 82.0017 176.932 82.6018 173.576C83.2214 170.115 82.2785 164.836 82.2785 164.836L80.0813 164.019L75.9126 178.234L76.2415 189.055C76.2415 189.055 75.2613 192.17 75.1373 194.036C75.0134 195.902 76.5536 211.031 76.5536 211.031C76.5646 211.478 76.5369 211.925 76.4707 212.367C76.358 212.933 75.7253 214.098 76.0169 214.63C76.3086 215.162 76.6366 215.296 76.6366 215.296L84.129 215.414C84.5371 215.418 84.2669 215.155 83.938 214.92Z" fill="#F48C7F"/>
<path d="M72.5665 163.726C72.5665 163.726 69.965 167.586 69.3453 170.783C68.7257 173.979 69.8 183.796 68.6083 187.982C67.9635 190.248 65.5185 193.748 65.1468 196.677C64.775 199.606 63.4817 208.058 63.4817 208.058C63.286 208.945 62.9794 210.043 62.5816 210.552C62.3384 210.865 61.8939 211.26 61.6014 211.824C61.1476 212.703 61.3982 214.011 61.7337 214.732C61.906 215.099 61.7215 215.099 62.1138 215.22C63.2739 215.573 64.5085 214.978 65.0023 213.883C65.345 213.105 65.5371 212.272 65.5688 211.426C65.6044 210.547 65.742 209.676 65.9788 208.828L74.2959 188.763L80.3161 171.442L81.8591 162.524L72.5665 163.726Z" fill="#F79C8D"/>
<path d="M65.2278 213.304C63.4276 213.628 62.2302 212.59 61.6069 211.813C61.1494 212.693 60.9258 214.006 61.2621 214.73C61.5584 215.366 62.425 215.349 63.107 215.372C63.8282 215.398 64.3864 215.005 64.7442 214.384C64.9414 214.041 65.1034 213.679 65.2278 213.304Z" fill="#13375B"/>
<path d="M80.5711 213.054C78.5893 213.554 77.1236 213.214 76.3055 212.888C76.094 213.478 75.8144 214.22 75.9626 214.647C76.1443 215.169 76.4033 215.288 76.6325 215.294C78.442 215.341 83.2621 215.404 84.6458 215.422C84.6892 215.423 84.7318 215.411 84.7685 215.388C84.8053 215.365 84.8346 215.333 84.8531 215.294C84.8715 215.256 84.8783 215.212 84.8726 215.17C84.8669 215.128 84.849 215.088 84.821 215.056C84.479 214.653 80.7221 213.14 80.5711 213.054Z" fill="#13375B"/>
<path d="M74.254 188.801C74.4096 188.812 74.5661 188.821 74.7199 188.832H74.7441C74.8978 188.841 75.0534 188.85 75.21 188.857H75.2379L75.7038 188.879H75.728C75.8874 188.886 76.0467 188.892 76.206 188.897C77.982 188.954 80.1754 188.931 81.5833 188.697C82.3008 181.631 82.5682 175.183 82.8338 173.759C83.4776 170.298 82.2747 164.835 82.2747 164.835L81.6988 164.733L82.0622 162.711L72.3997 163.909C72.3997 163.909 69.6976 167.77 69.0453 170.965C68.3931 174.161 69.5187 183.978 68.2794 188.164C68.2878 188.164 71.0459 188.587 74.254 188.801Z" fill="#13375B"/>
<path d="M81.9873 136.516C82.3665 134.819 82.7383 133.113 81.7385 131.25C80.9288 129.742 79.5302 128.875 77.9117 128.684C73.3246 128.149 74.3048 132.361 67.8932 133.273C65.9011 133.556 64.0497 133.828 62.3865 134.803C59.3833 136.562 58.2494 139.385 60.2434 143.984C65.1203 155.243 76.7908 145.459 78.5714 143.467C80.3362 141.493 81.7432 137.607 81.9873 136.516Z" fill="#B75742"/>
<path d="M69.4363 169.924L66.587 177.216L63.1674 186.368C63.1674 186.368 70.6439 190.753 83.4419 189.22C83.4419 189.22 84.0223 172.803 82.2054 161.979C80.3884 151.154 69.4363 169.924 69.4363 169.924Z" fill="#13375B"/>
<path d="M74.7683 141.868C74.7683 141.868 72.4519 142.126 71.0664 143.609C69.6808 145.092 73.3026 157.006 73.558 158.892C73.8133 160.778 71.1484 166 71.1484 166C71.1484 166 80.1941 167.768 82.5449 166.241C82.5449 166.241 82.7518 151.66 82.4993 150.312C82.2468 148.965 80.1484 143.485 79.6443 142.945C79.1402 142.406 74.7683 141.868 74.7683 141.868Z" fill="#13375B"/>
<path d="M75.9338 137.275C75.9338 137.275 75.9161 137.377 75.8835 137.55C75.727 138.375 75.126 141.118 74.7197 141.871C74.2287 142.782 76.3969 145.687 78.4897 145.332C79.1121 145.227 77.9642 142.664 78.0238 142.391C78.13 141.872 78.2726 141.162 78.4198 140.436C78.5018 140.025 78.5857 139.611 78.6649 139.219C78.8876 138.108 79.0702 137.203 79.0702 137.203L75.9338 137.275Z" fill="#F7A491"/>
<path d="M75.8838 137.549C75.9165 137.376 75.9342 137.274 75.9342 137.274L79.0659 137.198C79.0659 137.198 78.8795 138.106 78.6605 139.214C78.5823 139.602 78.4984 140.016 78.4164 140.424C77.9328 140.354 77.4278 140.124 76.9256 139.691C76.4087 139.248 76.0185 138.679 75.7935 138.042C75.827 137.844 75.8596 137.676 75.8838 137.549Z" fill="#F47458"/>
<path d="M77.8181 129.954C76.9422 130.127 76.1597 130.607 75.6153 131.303C74.6901 132.477 73.6931 136.11 75.9881 138.085C78.283 140.06 80.5538 137.825 80.8939 135.455C81.234 133.085 81.1669 129.868 77.8181 129.954Z" fill="#F7A491"/>
<path d="M81.567 134.869C81.4226 135.441 81.0415 135.826 80.7172 135.731C80.393 135.636 80.2467 135.095 80.3921 134.524C80.5374 133.953 80.9176 133.567 81.2418 133.662C81.5661 133.757 81.7124 134.297 81.567 134.869Z" fill="#F7A491"/>
<path d="M79.236 129.964C79.236 129.964 76.2347 133.355 74.824 133.513C73.4133 133.67 73.2279 135.509 73.2279 135.509C73.2279 135.509 73.732 131.279 75.1287 130.463C76.5255 129.647 79.236 129.964 79.236 129.964Z" fill="#B75742"/>
<path d="M75.2852 134.337C75.3998 134.95 75.1687 135.513 74.7699 135.593C74.3711 135.674 73.9537 135.241 73.8381 134.628C73.7226 134.015 73.9537 133.452 74.3534 133.372C74.7531 133.292 75.1668 133.723 75.2852 134.337Z" fill="#F7A491"/>
<path d="M76.4314 152.102L85.5488 153.737L83.3852 165.407L74.2668 163.771L76.4304 152.102H76.4314Z" fill="#BED9EA"/>
<path d="M75.8349 152.492L85.0064 153.809L83.2631 165.546L74.0925 164.229L75.8349 152.492Z" fill="#D3E5F4"/>
<path d="M75.0514 152.931L84.2471 154.074L82.7357 165.843L73.54 164.701L75.0514 152.931Z" fill="#F4F4F4"/>
<path d="M79.4832 136.69L77.3047 136.557C77.3047 136.557 77.3047 137.373 78.2588 137.46C79.4254 137.565 79.4832 136.69 79.4832 136.69Z" fill="white"/>
<path d="M68.4377 154.792L71.9524 155.145C71.9524 155.145 71.8946 158.077 71.9524 158.415C71.9524 158.415 77.9623 160.054 80.4734 160.499C80.4734 160.499 81.6167 159.857 82.0798 159.658C82.5429 159.459 83.7859 159.235 84.0608 159.2C84.3357 159.165 84.2425 159.461 84.0058 159.567C83.7691 159.672 83.1588 159.953 82.9855 160.3C82.9855 160.3 83.4812 160.353 83.744 160.238C84.0067 160.124 84.3683 159.879 84.3739 159.753C84.3794 159.628 84.4391 159.323 84.5257 159.339C84.5472 159.339 84.577 159.443 84.6059 159.547C84.6348 159.652 84.6636 159.749 84.6888 159.849C84.7326 160.032 84.782 160.291 84.8034 160.41C84.8481 160.679 84.6804 161.422 84.6571 161.686C84.6143 162.168 84.4708 162.382 84.2155 162.505C83.7262 162.664 83.219 162.765 82.705 162.805C81.5096 162.927 80.411 162.588 79.9312 162.536C79.4513 162.483 71.7995 161.736 71.7995 161.736C71.7995 161.736 68.7573 161.305 68.556 160.79C68.3548 160.275 68.4377 154.792 68.4377 154.792Z" fill="#F7A491"/>
<path d="M71.4912 143.178C71.4912 143.178 70.3815 143.695 69.4068 145.928C68.4797 148.051 68.4313 158.61 68.4313 158.61L71.8844 158.044L73.748 153.104C74.4072 151.652 74.6662 150.055 74.4991 148.473C74.3319 146.891 73.7444 145.381 72.7957 144.093C72.2786 143.4 71.8052 142.978 71.4912 143.178Z" fill="#13375B"/>
<path d="M275.902 170.722L278.68 150.17C278.949 148.177 277.479 146.561 275.396 146.561H251.42C249.337 146.561 247.43 148.177 247.16 150.17L244.384 170.722H275.902Z" fill="#F7CC7F"/>
<path d="M275.902 170.722L278.79 149.376C279.001 147.818 277.854 146.561 276.229 146.561C274.604 146.561 273.116 147.821 272.906 149.376L270.018 170.722H275.902Z" fill="#EAB054"/>
<path d="M246.581 178.107L252.143 177.734C252.143 177.734 253.174 162.264 253.174 159.887C253.174 157.005 254.13 152.648 253.787 152.725C252.826 152.949 251.195 153.458 250.424 154.534C247.755 158.258 246.581 178.107 246.581 178.107Z" fill="#0E293F"/>
<path d="M260.031 152.725C260.031 152.725 263.199 153.167 264.038 153.782C264.978 154.473 266.021 156.021 266.021 156.021C266.021 156.021 262.128 174.459 262.12 177.562C262.115 179.962 262.964 185.857 262.964 185.857C262.964 185.857 251.197 186.601 246.741 184.839C246.741 184.839 248.148 177.829 248.148 175.988C248.148 174.147 249.831 157.409 250.214 156.241C250.562 155.18 251.197 153.274 253.348 152.804C255.498 152.334 260.031 152.725 260.031 152.725Z" fill="#13375B"/>
<path d="M259.169 147.761L259.752 152.473C259.752 152.473 257.085 159.042 255.372 158.51C253.936 158.064 254.967 152.599 254.967 152.599C254.967 152.599 255.602 149.726 255.368 148.268C255.133 146.81 259.169 147.761 259.169 147.761Z" fill="#F7A491"/>
<path d="M255.372 148.268C255.137 146.81 259.17 147.761 259.17 147.761L259.235 148.188C259.134 148.451 258.986 148.694 258.798 148.906C257.897 149.871 256.535 150.501 255.318 150.545C255.439 149.758 255.465 148.866 255.372 148.268Z" fill="#F47458"/>
<path d="M259.734 141.292C259.836 141.256 260.547 146.504 259.197 147.947C257.848 149.391 255.222 149.865 254.28 148.727C253.238 147.469 253.29 141.829 255.386 140.343C257.483 138.858 259.734 141.292 259.734 141.292Z" fill="#F7A491"/>
<path d="M256.184 137.535C257.361 137.788 258.429 138.394 259.24 139.27C259.975 139.356 260.976 139.761 262.008 141.462C263.278 143.554 262.34 145.873 260.862 147.01C259.384 148.147 259.401 149.467 259.401 149.467L259.171 148.782C258.994 148.267 258.931 147.721 258.984 147.181C259.012 146.849 259.093 146.525 259.224 146.218C259.579 145.459 258.46 144.955 258.146 144.322C257.905 143.836 257.893 142.723 257.512 141.919L257.058 141.305C257.058 141.305 256.008 140.493 254.982 140.722C253.957 140.951 254.105 137.117 256.184 137.535Z" fill="#B75742"/>
<path d="M258.216 145.26C258.206 145.901 258.496 146.424 258.868 146.431C259.241 146.437 259.549 145.923 259.56 145.283C259.57 144.642 259.28 144.119 258.907 144.112C258.535 144.106 258.227 144.62 258.216 145.26Z" fill="#F7A491"/>
<path d="M255.105 151.421L256.384 152.835L259.586 150.494L259.955 152.91L254.555 165.799L254.116 152.682L255.105 151.421Z" fill="#F4F4F4"/>
<g style="mix-blend-mode:multiply">
<path d="M254.184 154.68L256.384 153.492L258.123 154.68L259.955 152.91L258.123 154.961L256.384 153.726L254.19 154.888L254.184 154.68Z" fill="#F4F4F4"/>
</g>
<path d="M255.67 153.877L256.132 155.068H256.584L257.184 154.038L256.384 153.492L255.67 153.877Z" fill="#F47458"/>
<path d="M256.584 155.067L256.892 160.222L254.555 165.8L254.389 160.854L256.132 155.067H256.584Z" fill="#E56A55"/>
<path d="M262.531 166.442C263.203 165.939 260.481 156.512 262.452 153.655C262.452 153.655 263.462 152.999 265.238 154.078C267.711 155.581 267.24 169.032 265.89 170.049C263.873 171.567 253.65 170.858 251.609 170.722V168.473C251.609 168.473 261.936 166.887 262.531 166.442Z" fill="#0E293F"/>
<path d="M181.683 156.396L184.464 135.842C184.733 133.849 183.263 132.233 181.181 132.233H157.2C155.117 132.233 153.211 133.849 152.941 135.842L150.164 156.396H181.683Z" fill="#F7CC7F"/>
<path d="M181.683 156.396L184.572 135.05C184.781 133.492 183.634 132.233 182.009 132.233C180.384 132.233 178.897 133.494 178.687 135.05L175.798 156.396H181.683Z" fill="#EAB054"/>
<path d="M141.478 145.094C141.435 144.771 142.975 144.83 143.117 144.544C143.26 144.258 141.307 143.833 141.293 143.552C141.268 143.033 143.461 143.884 143.465 143.644C143.469 143.404 141.25 142.417 141.585 142.072C141.919 141.728 143.777 143.332 143.896 143.08C144.016 142.828 142.033 141.741 142.194 141.161C142.281 140.851 145.346 143.436 145.783 143.347C146.22 143.258 145.698 141.61 146.063 141.456C146.427 141.302 146.763 144.509 146.96 144.664C147.158 144.819 151.553 147.78 153.129 148.533C153.446 148.026 155.666 145.384 155.953 144.902C156.749 145.745 158.195 145.48 159.034 146.277C157.975 147.855 155.011 153.218 154.479 153.333C152.86 153.69 146.876 147.714 145.901 146.683C144.925 145.651 144.216 145.776 143.496 145.367C142.776 144.957 141.522 145.416 141.478 145.094Z" fill="#F38B80"/>
<path d="M167.086 138.399C167.086 138.399 170.254 138.841 171.093 139.455C172.033 140.147 173.076 141.695 173.076 141.695C173.076 141.695 169.182 160.133 169.176 163.236C169.17 165.636 170.015 171.531 170.015 171.531C170.015 171.531 158.248 172.275 153.791 170.512C153.791 170.512 155.198 163.502 155.198 161.662C155.198 159.822 156.882 143.083 157.265 141.914C157.613 140.854 158.248 138.947 160.398 138.478C162.547 138.009 167.086 138.399 167.086 138.399Z" fill="#13375B"/>
<path d="M166.22 133.435L166.804 138.146C166.804 138.146 164.137 144.714 162.425 144.183C160.989 143.736 162.019 138.272 162.019 138.272C162.019 138.272 162.655 135.399 162.42 133.942C162.185 132.485 166.22 133.435 166.22 133.435Z" fill="#F7A491"/>
<path d="M162.422 133.942C162.187 132.484 166.22 133.435 166.22 133.435L166.285 133.862C166.184 134.125 166.036 134.368 165.847 134.579C164.947 135.544 163.585 136.174 162.367 136.218C162.489 135.432 162.518 134.539 162.422 133.942Z" fill="#F47458"/>
<path d="M162.155 137.094L163.435 138.508L166.637 136.167L167.005 138.584L161.605 151.472L161.166 138.355L162.155 137.094Z" fill="#F4F4F4"/>
<g style="mix-blend-mode:multiply">
<path d="M161.233 140.353L163.435 139.165L165.174 140.353L167.005 138.583L165.174 140.634L163.435 139.4L161.241 140.562L161.233 140.353Z" fill="#F4F4F4"/>
</g>
<path d="M162.721 139.55L163.182 140.741H163.635L164.233 139.711L163.435 139.165L162.721 139.55Z" fill="#F47458"/>
<path d="M163.635 140.741L163.942 145.895L161.605 151.472L161.44 146.527L163.182 140.741H163.635Z" fill="#E56A55"/>
<path d="M153.506 156.362C153.396 156.195 153.673 155.912 153.879 155.699C154.109 155.463 155.659 155.038 155.896 154.966C156.133 154.895 158.116 154.949 158.893 155.199C159.669 155.449 160.065 155.408 160.065 155.408C160.269 155.367 160.575 155.316 160.81 155.264L161.298 157.045C159.475 157.023 157.119 157.155 156.946 157.151C156.398 157.138 155.94 156.811 155.707 156.727C155.474 156.644 154.909 156.474 154.589 156.62C154.268 156.767 153.35 157.113 153.191 157.033C153.033 156.952 153.506 156.362 153.506 156.362Z" fill="#F7A491"/>
<path d="M169.581 152.116C170.253 151.613 167.531 142.186 169.503 139.329C169.503 139.329 170.513 138.672 172.288 139.751C174.761 141.255 174.291 154.705 172.94 155.723C170.922 157.241 160.7 156.531 158.658 156.396V154.146C158.658 154.146 168.987 152.565 169.581 152.116Z" fill="#0E293F"/>
<path d="M145.038 146.791L147.22 144.219L153.057 148.099C153.057 148.099 157.529 139.788 158.963 139.135L156.098 151.478C156.098 151.478 154.845 153.374 154.582 153.477C154.319 153.581 151.953 153.159 145.038 146.791Z" fill="#0E293F"/>
<path d="M145.12 146.7L144.814 146.414L146.826 144.077L147.132 144.329L145.12 146.7Z" fill="#F4F4F4"/>
<path d="M158.657 154.235H158.375V156.343H158.657V154.235Z" fill="#F4F4F4"/>
<path d="M164.225 124.009C164.225 124.009 166.05 122.674 167.064 124.687C167.322 124.651 167.582 124.637 167.842 124.644C168.252 124.736 168.673 125.082 169.047 125.259C170.381 125.894 171.097 127.276 171.291 128.576C171.524 130.157 170.909 131.374 169.864 132.608C169.557 132.975 169.225 133.329 168.8 133.58C168.289 133.882 167.845 133.708 167.351 133.854C166.935 133.981 166.824 134.398 166.31 134.291C165.589 134.139 164.776 133.401 163.917 133.586C163.058 133.771 160.985 133.219 160.979 133.219C158.314 132.508 159.629 127.855 159.972 126.212C160.294 124.669 162.578 123.587 164.225 124.009Z" fill="#F4F4F4"/>
<path d="M165.414 126.317C163.797 125.584 161.841 126.386 161.351 127.937C161.094 128.746 160.893 129.57 160.751 130.406C160.372 132.673 161.347 135.042 162.488 135.179C163.628 135.315 166.994 134.224 167.581 131.01C167.944 129.027 167.111 127.088 165.414 126.317Z" fill="#F7A491"/>
<path d="M166.704 131.164C166.63 131.665 166.938 132.116 167.39 132.172C167.843 132.228 168.27 131.864 168.344 131.363C168.417 130.862 168.11 130.411 167.657 130.355C167.204 130.299 166.777 130.662 166.704 131.164Z" fill="#F7A491"/>
<path d="M163.335 132.354C163.335 132.354 164.85 132.676 165.012 133.157C165.175 133.638 165.066 134.36 164.395 134.961C163.724 135.562 162.147 135.345 161.698 135.078C161.249 134.812 160.807 133.565 161.161 132.823C161.515 132.082 163.335 132.354 163.335 132.354Z" fill="#F4F4F4"/>
<path d="M163.983 133.32C163.983 133.32 164.028 133.907 163.822 134.03C163.606 134.159 163.369 134.249 163.121 134.296C162.939 134.33 162.751 134.319 162.575 134.262C162.4 134.205 162.241 134.106 162.115 133.972C162.092 133.947 162.071 133.92 162.052 133.892C161.866 133.612 161.782 133.098 161.782 133.098C161.782 133.098 162.434 132.9 162.828 132.929C163.222 132.957 163.983 133.32 163.983 133.32Z" fill="#F7A491"/>
<path d="M140.868 151.472H140.446V156.788H140.868V151.472Z" fill="#184655"/>
<path d="M138.44 154.861L137.952 154.529C137.916 154.505 137.886 154.474 137.862 154.439C137.839 154.403 137.823 154.363 137.815 154.321C137.807 154.28 137.808 154.237 137.817 154.195C137.826 154.154 137.843 154.115 137.868 154.08L142.013 148.167C142.063 148.096 142.139 148.048 142.225 148.033C142.31 148.017 142.399 148.036 142.471 148.085L142.959 148.416C142.995 148.44 143.025 148.471 143.049 148.507C143.072 148.542 143.088 148.582 143.096 148.624C143.104 148.665 143.103 148.708 143.094 148.75C143.085 148.791 143.068 148.831 143.043 148.865L138.9 154.778C138.876 154.813 138.844 154.843 138.808 154.867C138.771 154.89 138.73 154.906 138.688 154.913C138.645 154.921 138.601 154.92 138.558 154.911C138.516 154.902 138.476 154.885 138.44 154.861Z" fill="#13375B"/>
<path d="M141.478 150.809L140.723 150.297C140.612 150.221 140.536 150.106 140.512 149.976C140.487 149.845 140.517 149.711 140.593 149.602L141.631 148.122C141.669 148.068 141.717 148.022 141.773 147.986C141.829 147.951 141.892 147.926 141.957 147.914C142.023 147.903 142.09 147.904 142.155 147.917C142.22 147.931 142.282 147.957 142.337 147.995L143.093 148.508C143.204 148.583 143.279 148.698 143.304 148.828C143.328 148.958 143.299 149.092 143.223 149.201L142.185 150.681C142.108 150.79 141.991 150.865 141.858 150.889C141.726 150.913 141.589 150.884 141.478 150.809Z" fill="#6394DB"/>
<path d="M143.946 149.153C143.773 149.399 143.531 149.589 143.249 149.699C142.967 149.809 142.658 149.834 142.361 149.772C142.064 149.709 141.793 149.561 141.581 149.347C141.37 149.133 141.228 148.862 141.173 148.568C141.119 148.274 141.154 147.972 141.274 147.697C141.394 147.423 141.595 147.191 141.85 147.029C142.104 146.866 142.402 146.782 142.706 146.787C143.009 146.791 143.305 146.884 143.555 147.054C143.72 147.166 143.862 147.31 143.972 147.476C144.081 147.643 144.156 147.829 144.193 148.024C144.229 148.219 144.226 148.419 144.184 148.613C144.141 148.806 144.06 148.99 143.946 149.153Z" fill="#184655"/>
<path d="M121.3 215.766H205.855V159.878H121.3V215.766Z" fill="#B75742"/>
<g style="mix-blend-mode:multiply" opacity="0.5">
<g style="mix-blend-mode:multiply" opacity="0.5">
<path d="M134.3 166.021H180.818V209.625H134.3V166.021ZM179.044 167.767H136.075V207.879H179.044V167.767Z" fill="#B75742"/>
</g>
</g>
<g style="mix-blend-mode:multiply" opacity="0.5">
<path d="M140.236 204.577H174.883V171.069H140.236V204.577Z" fill="#B75742"/>
</g>
<g style="mix-blend-mode:multiply" opacity="0.5">
<path d="M167.826 182.623C169.069 185.447 170.311 188.269 171.553 191.092C171.615 191.214 171.649 191.348 171.655 191.484C171.66 191.62 171.636 191.756 171.585 191.883C171.521 192.052 171.437 192.214 171.336 192.365C170.913 192.961 170.303 193.31 169.627 193.556C168.608 193.918 167.512 194.021 166.441 193.858C165.631 193.746 164.866 193.504 164.191 193.033C163.769 192.74 163.426 192.38 163.259 191.887C163.178 191.65 163.129 191.412 163.259 191.173C163.314 191.075 163.352 190.969 163.396 190.866L167.088 182.61C167.104 182.574 167.115 182.535 167.129 182.495C167.113 182.488 167.096 182.484 167.078 182.481C166.365 182.434 165.661 182.293 164.986 182.062C164.175 181.799 163.369 181.512 162.555 181.259C161.71 180.991 160.848 180.801 159.946 180.853C159.454 180.88 158.971 180.988 158.516 181.174C158.48 181.184 158.449 181.206 158.428 181.236C158.408 181.267 158.4 181.304 158.406 181.34C158.414 181.489 158.413 181.638 158.406 181.788C158.403 181.826 158.411 181.865 158.427 181.9C158.443 181.935 158.468 181.966 158.499 181.989C159.089 182.515 159.151 183.381 158.614 183.949C158.536 184.02 158.476 184.108 158.44 184.206C158.405 184.304 158.394 184.41 158.409 184.513C158.411 184.527 158.411 184.541 158.409 184.554C158.402 184.602 158.409 184.65 158.428 184.694C158.447 184.738 158.478 184.776 158.518 184.804C158.751 185.013 158.906 185.292 158.959 185.598C159.012 185.903 158.959 186.217 158.81 186.49C158.775 186.555 158.755 186.626 158.75 186.7C158.697 187.679 158.649 188.661 158.598 189.64C158.495 191.62 158.391 193.599 158.287 195.579C158.287 195.628 158.287 195.677 158.287 195.738C158.344 195.738 158.386 195.738 158.428 195.738C159.201 195.793 159.975 195.838 160.747 195.91C161.03 195.951 161.311 196.012 161.585 196.094C161.613 196.098 161.64 196.109 161.664 196.124C161.688 196.14 161.708 196.16 161.724 196.183C161.739 196.207 161.75 196.233 161.755 196.261C161.759 196.288 161.758 196.317 161.751 196.344C161.718 196.646 161.675 196.945 161.512 197.169C161.719 197.32 161.951 197.444 162.115 197.627C162.308 197.84 162.488 198.041 162.783 198.115C162.834 198.129 162.878 198.162 162.905 198.207C162.932 198.253 162.939 198.307 162.925 198.357C162.906 198.505 162.901 198.653 162.882 198.801C162.803 199.421 162.472 199.809 161.84 199.968C161.196 200.124 160.536 200.204 159.874 200.208C158.619 200.225 157.365 200.234 156.112 200.227C155.503 200.227 154.892 200.191 154.284 200.147C153.796 200.121 153.317 200.009 152.869 199.818C152.755 199.773 152.651 199.705 152.565 199.617C152.48 199.529 152.414 199.425 152.373 199.31C152.292 199.092 152.235 198.867 152.203 198.637C152.154 198.174 152.097 198.179 152.606 198.001C152.659 197.988 152.707 197.96 152.744 197.919C152.943 197.591 153.252 197.341 153.619 197.213C153.432 196.949 153.385 196.652 153.352 196.349C153.346 196.321 153.345 196.292 153.35 196.263C153.356 196.235 153.367 196.208 153.384 196.184C153.401 196.16 153.422 196.14 153.447 196.124C153.472 196.109 153.5 196.099 153.529 196.095C153.649 196.052 153.771 196.017 153.895 195.989C154.634 195.856 155.381 195.779 156.132 195.759L156.797 195.73C156.797 195.649 156.797 195.58 156.797 195.51C156.73 194.145 156.664 192.778 156.598 191.412C156.52 189.831 156.442 188.251 156.365 186.671C156.359 186.607 156.339 186.544 156.308 186.488C156.035 185.972 156.083 185.345 156.488 184.93C156.571 184.851 156.634 184.755 156.673 184.649C156.711 184.543 156.725 184.429 156.713 184.317C156.714 184.267 156.705 184.218 156.684 184.173C156.664 184.128 156.634 184.087 156.597 184.055C156.051 183.565 155.963 182.719 156.454 182.181C156.553 182.08 156.627 181.958 156.671 181.825C156.716 181.691 156.729 181.55 156.709 181.411C156.707 181.388 156.707 181.364 156.709 181.341C156.729 181.238 156.675 181.196 156.584 181.158C155.845 180.885 155.047 180.805 154.267 180.923C153.527 181.021 152.821 181.24 152.124 181.481C150.811 181.932 149.53 182.49 148.099 182.591C148.122 182.648 148.141 182.695 148.16 182.74C149.408 185.581 150.656 188.422 151.902 191.262C151.936 191.339 151.951 191.421 151.946 191.504C151.913 191.897 151.747 192.268 151.474 192.556C151.071 193.015 150.556 193.314 149.988 193.527C148.933 193.915 147.792 194.025 146.68 193.849C145.879 193.733 145.125 193.489 144.46 193.024C144 192.699 143.638 192.298 143.497 191.741C143.44 191.548 143.459 191.341 143.548 191.16C143.717 190.818 143.865 190.465 144.02 190.117C145.114 187.673 146.208 185.227 147.301 182.779C147.328 182.718 147.354 182.655 147.383 182.588C147.205 182.557 147.046 182.536 146.889 182.503C146.455 182.412 146.024 182.3 145.742 181.927C145.582 181.72 145.448 181.496 145.341 181.259C145.27 181.082 145.237 180.892 145.243 180.702C145.249 180.512 145.294 180.325 145.376 180.152C145.458 179.98 145.574 179.825 145.719 179.699C145.863 179.572 146.032 179.476 146.216 179.415C146.399 179.355 146.594 179.332 146.786 179.347C146.979 179.363 147.167 179.417 147.338 179.507C147.509 179.596 147.659 179.719 147.781 179.867C147.902 180.015 147.991 180.186 148.043 180.37C148.072 180.477 148.109 180.508 148.221 180.499C148.969 180.423 149.704 180.256 150.41 180.001C151.312 179.695 152.208 179.373 153.117 179.085C153.877 178.831 154.683 178.737 155.482 178.81C155.669 178.83 155.844 178.863 156.034 178.892C155.918 178.736 155.802 178.59 155.699 178.433C155.356 177.922 155.382 177.672 155.828 177.248C156.1 176.988 156.387 176.744 156.656 176.484C156.9 176.258 157.105 175.994 157.263 175.703C156.966 175.381 156.947 175.2 157.158 174.87C157.099 174.756 157.048 174.638 157.006 174.517C156.888 174.104 157.169 173.453 157.608 173.142C157.765 173.379 157.934 173.608 158.074 173.852C158.232 174.127 158.203 174.417 158.069 174.697C158.042 174.755 158.004 174.808 157.976 174.86C158.198 175.175 158.174 175.388 157.882 175.703C157.909 175.747 157.936 175.795 157.965 175.843C158.228 176.265 158.596 176.593 158.963 176.924C159.15 177.096 159.336 177.276 159.517 177.463C159.604 177.55 159.661 177.663 159.678 177.784C159.694 177.906 159.671 178.029 159.61 178.137C159.559 178.246 159.5 178.352 159.433 178.454C159.34 178.597 159.23 178.729 159.114 178.887C160.215 178.612 161.273 178.784 162.315 179.093C162.951 179.282 163.577 179.504 164.207 179.716C164.901 179.948 165.595 180.174 166.319 180.299C166.598 180.346 166.878 180.371 167.157 180.407C167.176 180.336 167.188 180.292 167.199 180.247C167.248 180.061 167.335 179.886 167.455 179.735C167.576 179.583 167.726 179.457 167.898 179.365C168.069 179.272 168.258 179.216 168.453 179.198C168.648 179.18 168.844 179.202 169.03 179.262C169.216 179.322 169.387 179.419 169.533 179.547C169.68 179.674 169.798 179.83 169.88 180.004C169.963 180.179 170.008 180.368 170.014 180.56C170.019 180.752 169.984 180.944 169.912 181.122C169.659 181.757 169.236 182.2 168.531 182.336L167.785 182.483C167.791 182.532 167.808 182.578 167.826 182.623ZM147.71 182.715C146.434 185.612 145.17 188.48 143.9 191.365H151.578L147.71 182.715ZM171.303 191.371C170.013 188.485 168.729 185.615 167.433 182.715L163.619 191.371H171.303Z" fill="#B75742"/>
</g>
<path d="M196.804 215.766H223.176V159.878H196.804V215.766Z" fill="#8C453A"/>
<path d="M209.709 215.766H272.688V172.689H209.709V215.766Z" fill="#B75742"/>
<g style="mix-blend-mode:multiply" opacity="0.5">
<g style="mix-blend-mode:multiply" opacity="0.5">
<path d="M241.757 177.674H259.54V211.283H241.757V177.674ZM258.168 179.019H243.125V209.932H258.168V179.019Z" fill="#B75742"/>
</g>
</g>
<g style="mix-blend-mode:multiply" opacity="0.5">
<g style="mix-blend-mode:multiply" opacity="0.5">
<path d="M215.656 177.674H233.439V211.283H215.656V177.674ZM232.071 179.02H217.024V209.932H232.071V179.02Z" fill="#B75742"/>
</g>
</g>
<path d="M208.288 172.689H287.651V169.964H208.288V172.689Z" fill="#DB6552"/>
<path d="M265.188 215.766H285.516V172.689H265.188V215.766Z" fill="#8C453A"/>
<path d="M243.124 209.936H258.171V208.706H243.124V209.936Z" fill="#DB6552"/>
<path d="M217.023 209.936H232.07V208.706H217.023V209.936Z" fill="#DB6552"/>
<path d="M136.074 207.878H179.043V206.649H136.074V207.878Z" fill="#DB6552"/>
<path d="M234.281 158.908H247.559C247.731 158.908 247.899 158.958 248.041 159.052C248.184 159.146 248.295 159.279 248.361 159.436L252.449 169.241H259.769C259.868 169.241 259.963 169.28 260.033 169.349C260.103 169.417 260.142 169.511 260.142 169.608C260.142 169.705 260.103 169.798 260.033 169.867C259.963 169.936 259.868 169.974 259.769 169.974H238.936C238.655 169.974 238.381 169.895 238.145 169.745C237.91 169.595 237.724 169.381 237.609 169.129L233.491 160.11C233.432 159.98 233.406 159.838 233.417 159.696C233.427 159.554 233.474 159.417 233.553 159.297C233.632 159.177 233.739 159.079 233.867 159.011C233.994 158.943 234.137 158.907 234.281 158.908Z" fill="#466EB6"/>
<path d="M241.431 164.618C241.525 165.059 241.911 165.351 242.304 165.276C242.696 165.201 242.941 164.78 242.851 164.34C242.762 163.9 242.371 163.607 241.978 163.682C241.586 163.757 241.341 164.178 241.431 164.618Z" fill="white"/>
<path d="M119.392 159.879H225.944V156.344H119.392V159.879Z" fill="#DB6552"/>
<path d="M256.407 146.83L254.228 146.695C254.228 146.695 254.228 147.511 255.183 147.598C256.349 147.707 256.407 146.83 256.407 146.83Z" fill="white"/>
<path d="M293.776 215.236H39.1425V216.001H293.776V215.236Z" fill="#355389"/>
<path d="M176.669 106.288C183.272 99.7936 183.272 89.264 176.669 82.7695C170.065 76.275 159.359 76.275 152.756 82.7695C146.153 89.264 146.153 99.7936 152.756 106.288C159.359 112.783 170.065 112.783 176.669 106.288Z" fill="#E56A55"/>
<g style="mix-blend-mode:multiply" opacity="0.5">
<path d="M173.153 89.6586C174.173 91.9801 175.195 94.3017 176.218 96.6233C176.268 96.724 176.297 96.8339 176.301 96.9459C176.306 97.058 176.286 97.1697 176.244 97.274C176.191 97.4134 176.123 97.5466 176.039 97.6708C175.692 98.1611 175.19 98.447 174.634 98.6477C173.796 98.945 172.895 99.0304 172.015 98.896C171.352 98.8206 170.717 98.5878 170.165 98.2179C169.819 97.9769 169.537 97.6818 169.399 97.2767C169.332 97.0815 169.292 96.8854 169.399 96.6884C169.443 96.6087 169.473 96.5207 169.511 96.4373C170.523 94.1768 171.535 91.9142 172.546 89.6494C172.559 89.6201 172.568 89.588 172.581 89.5577C172.567 89.5528 172.552 89.5491 172.538 89.5468C171.952 89.5074 171.373 89.3912 170.819 89.2013C170.15 88.985 169.489 88.7531 168.82 88.5414C168.125 88.3215 167.417 88.1685 166.677 88.2079C166.272 88.2301 165.875 88.3196 165.501 88.4727C165.471 88.4797 165.444 88.4977 165.427 88.523C165.41 88.5483 165.403 88.5791 165.408 88.6093C165.413 88.7311 165.413 88.8539 165.408 88.9758C165.405 89.0075 165.411 89.0393 165.424 89.0683C165.438 89.0973 165.458 89.1225 165.484 89.1417C165.6 89.2401 165.695 89.3605 165.762 89.4956C165.83 89.6308 165.869 89.7779 165.878 89.9283C165.887 90.0786 165.865 90.2292 165.813 90.371C165.761 90.5128 165.681 90.6429 165.577 90.7537C165.513 90.8117 165.464 90.8841 165.435 90.9647C165.406 91.0453 165.397 91.1317 165.409 91.2165C165.41 91.2281 165.41 91.2397 165.409 91.2513C165.404 91.2906 165.41 91.3304 165.426 91.3666C165.443 91.4027 165.469 91.4338 165.502 91.4566C165.693 91.6279 165.821 91.8573 165.864 92.1082C165.908 92.3591 165.865 92.6172 165.742 92.8413C165.713 92.8949 165.697 92.9539 165.693 93.0145C165.649 93.82 165.61 94.6264 165.568 95.432C165.483 97.0595 165.397 98.6868 165.312 100.314C165.312 100.354 165.312 100.394 165.312 100.445C165.359 100.445 165.394 100.445 165.428 100.445C166.064 100.49 166.7 100.526 167.335 100.586C167.569 100.62 167.8 100.67 168.026 100.738C168.049 100.742 168.071 100.751 168.09 100.763C168.11 100.776 168.127 100.792 168.139 100.812C168.152 100.831 168.161 100.852 168.165 100.875C168.168 100.898 168.168 100.921 168.162 100.943C168.135 101.193 168.1 101.437 167.965 101.622C168.135 101.747 168.327 101.847 168.462 101.995C168.62 102.171 168.769 102.336 169.011 102.398C169.053 102.409 169.089 102.436 169.111 102.473C169.132 102.51 169.138 102.554 169.127 102.596C169.112 102.717 169.108 102.839 169.092 102.962C169.027 103.472 168.755 103.792 168.235 103.922C167.706 104.05 167.163 104.116 166.618 104.119C165.588 104.132 164.557 104.14 163.526 104.134C163.025 104.134 162.524 104.104 162.023 104.068C161.622 104.045 161.229 103.952 160.861 103.793C160.766 103.756 160.681 103.7 160.611 103.628C160.54 103.556 160.486 103.47 160.453 103.376C160.386 103.199 160.34 103.014 160.314 102.827C160.273 102.445 160.225 102.446 160.644 102.303C160.688 102.293 160.727 102.269 160.757 102.236C160.921 101.966 161.176 101.761 161.477 101.654C161.321 101.438 161.285 101.196 161.258 100.946C161.252 100.924 161.252 100.901 161.255 100.878C161.259 100.855 161.268 100.834 161.28 100.814C161.292 100.795 161.309 100.778 161.328 100.765C161.347 100.752 161.368 100.742 161.391 100.737C161.489 100.703 161.59 100.674 161.692 100.651C162.3 100.541 162.916 100.477 163.534 100.462L164.08 100.437C164.08 100.371 164.08 100.314 164.08 100.254C164.025 99.1319 163.971 98.0086 163.916 96.8845C163.854 95.5862 163.79 94.2874 163.724 92.9879C163.72 92.9354 163.704 92.8844 163.677 92.8385C163.562 92.6363 163.515 92.4036 163.542 92.1734C163.569 91.9432 163.668 91.7271 163.826 91.5555C163.894 91.4907 163.946 91.4118 163.978 91.3245C164.011 91.2372 164.022 91.1439 164.013 91.0515C164.014 91.0111 164.007 90.9708 163.991 90.9336C163.975 90.8964 163.95 90.8631 163.92 90.8361C163.471 90.4338 163.398 89.7364 163.802 89.2957C163.883 89.2124 163.944 89.1122 163.981 89.0026C164.017 88.8929 164.028 88.7767 164.012 88.6624C164.01 88.6432 164.01 88.6239 164.012 88.6047C164.029 88.5204 163.984 88.4855 163.908 88.4571C163.301 88.2325 162.645 88.1659 162.004 88.2638C161.401 88.3571 160.81 88.5107 160.239 88.722C159.16 89.0885 158.107 89.5541 156.93 89.6384C156.95 89.6851 156.965 89.7227 156.982 89.7603C158.007 92.0953 159.032 94.4309 160.057 96.7672C160.084 96.8296 160.096 96.8973 160.093 96.9651C160.066 97.2885 159.929 97.5934 159.704 97.8312C159.372 98.1935 158.952 98.4675 158.483 98.6275C157.615 98.9467 156.678 99.038 155.763 98.8924C155.108 98.8139 154.482 98.5805 153.938 98.2124C153.56 97.9457 153.263 97.6158 153.146 97.1558C153.1 96.9973 153.115 96.8275 153.188 96.6792C153.328 96.3979 153.449 96.1074 153.577 95.8205C154.476 93.8105 155.377 91.7999 156.279 89.7887C156.301 89.7383 156.322 89.6879 156.346 89.6311C156.2 89.6072 156.067 89.5898 155.941 89.5623C155.583 89.4872 155.229 89.3955 154.997 89.0885C154.866 88.9184 154.755 88.7339 154.667 88.5387C154.605 88.3925 154.575 88.2354 154.577 88.0771C154.58 87.9188 154.615 87.7627 154.682 87.6185C154.749 87.4743 154.845 87.3452 154.964 87.2391C155.084 87.133 155.224 87.0522 155.377 87.0018C155.529 86.9513 155.691 86.9323 155.851 86.946C156.011 86.9596 156.167 87.0055 156.309 87.0809C156.45 87.1563 156.575 87.2595 156.674 87.3842C156.773 87.5089 156.845 87.6523 156.886 87.8056C156.909 87.8972 156.94 87.9201 157.032 87.9119C157.647 87.8495 158.251 87.7122 158.831 87.5031C159.577 87.2511 160.309 86.9863 161.056 86.7526C161.681 86.5452 162.344 86.4693 163.001 86.5299C163.15 86.5464 163.298 86.5739 163.455 86.5968C163.362 86.4685 163.268 86.3485 163.175 86.222C162.896 85.8014 162.915 85.5961 163.281 85.2478C163.505 85.0343 163.74 84.8327 163.963 84.6201C164.163 84.4342 164.331 84.2175 164.461 83.9786C164.217 83.7156 164.201 83.5662 164.375 83.295C164.327 83.2009 164.285 83.1039 164.25 83.0045C164.156 82.6654 164.384 82.1293 164.745 81.8745C164.874 82.0697 165.013 82.2576 165.128 82.4592C165.187 82.5657 165.218 82.6851 165.218 82.8065C165.218 82.9279 165.187 83.0473 165.128 83.1538C165.106 83.2006 165.075 83.2455 165.05 83.2876C165.236 83.5461 165.214 83.7211 164.971 83.9804C164.993 84.0171 165.015 84.0565 165.04 84.095C165.256 84.4423 165.559 84.7127 165.86 84.9839C166.017 85.126 166.17 85.2735 166.314 85.4275C166.386 85.4987 166.432 85.5908 166.445 85.6899C166.459 85.789 166.44 85.8898 166.391 85.9773C166.348 86.0673 166.299 86.1546 166.245 86.2385C166.166 86.3558 166.078 86.4667 165.983 86.5941C166.888 86.3714 167.758 86.5097 168.614 86.7636C169.138 86.9194 169.653 87.1018 170.17 87.275C170.734 87.481 171.315 87.6416 171.906 87.7552C172.134 87.7936 172.365 87.8138 172.595 87.8468C172.611 87.7891 172.621 87.7552 172.63 87.7157C172.67 87.5624 172.741 87.4187 172.84 87.2936C172.939 87.1686 173.063 87.0647 173.204 86.9886C173.345 86.9125 173.5 86.8657 173.661 86.8511C173.821 86.8365 173.983 86.8545 174.136 86.9038C174.288 86.9532 174.43 87.0329 174.55 87.138C174.67 87.2431 174.767 87.3715 174.835 87.515C174.903 87.6586 174.94 87.8143 174.945 87.9726C174.949 88.1309 174.92 88.2883 174.86 88.4351C174.653 88.9575 174.301 89.3213 173.725 89.4331C173.523 89.4716 173.322 89.5119 173.111 89.5541C173.124 89.5889 173.137 89.6237 173.153 89.6586ZM156.616 89.7392L153.484 96.846H159.796L156.616 89.7392ZM176.01 96.8552L172.829 89.7383L169.695 96.8552H176.01Z" fill="#B75742"/>
</g>
<path d="M219.176 169.964H229.563V166.387H219.176V169.964Z" fill="#F4F4F4"/>
<path d="M219.176 166.443H229.563V162.865H219.176V166.443Z" fill="#F4F4F4"/>
<path d="M219.176 163.564H229.563V163.505H219.176V163.564Z" fill="#D3E5F4"/>
<path d="M219.176 164.154H229.563V164.094H219.176V164.154Z" fill="#D3E5F4"/>
<path d="M219.176 166.512H229.563V166.452H219.176V166.512Z" fill="#D3E5F4"/>
<path d="M219.176 167.102H229.563V167.042H219.176V167.102Z" fill="#D3E5F4"/>
<path d="M219.176 167.692H229.563V167.632H219.176V167.692Z" fill="#D3E5F4"/>
<path d="M219.176 168.283H229.563V168.223H219.176V168.283Z" fill="#D3E5F4"/>
<path d="M219.176 168.873H229.563V168.813H219.176V168.873Z" fill="#D3E5F4"/>
<path d="M219.176 164.745H229.563V164.685H219.176V164.745Z" fill="#D3E5F4"/>
<path d="M219.176 165.334H229.563V165.274H219.176V165.334Z" fill="#D3E5F4"/>
<path d="M219.176 165.924H229.563V165.864H219.176V165.924Z" fill="#D3E5F4"/>
<path d="M229.563 166.443L230.2 166.757L223.818 166.443H229.563Z" fill="#D3E5F4"/>
<g style="mix-blend-mode:multiply">
<path d="M227.091 162.865V166.387V166.443V169.965H229.563V166.443V166.387V162.865H227.091Z" fill="#D3E5F4"/>
</g>
<path d="M224.444 167.692C224.444 167.692 219.557 168.105 218.947 168.623C218.947 168.623 218.976 168.008 219.179 167.632L220.709 167.689L224.444 167.692Z" fill="#D3E5F4"/>
<path d="M226.735 164.154L226.202 164.985L225.606 164.154H226.735Z" fill="#F47458"/>
<path d="M221.81 166.512L221.277 167.342L220.68 166.512H221.81Z" fill="#50BFA5"/>
<path d="M225.573 168.283L225.04 169.114L224.444 168.283H225.573Z" fill="#466EB6"/>
<path d="M219.177 169.46H229.141V169.401H219.177V169.46Z" fill="#D3E5F4"/>
<path d="M228.406 167.264H227.94C228.019 167.205 228.115 167.172 228.214 167.172H239.815C239.958 167.17 240.1 167.197 240.233 167.249C240.365 167.302 240.486 167.379 240.588 167.478C240.69 167.576 240.772 167.693 240.828 167.823C240.884 167.952 240.913 168.091 240.915 168.231V168.905C240.913 169.045 240.884 169.184 240.828 169.314C240.772 169.443 240.69 169.56 240.588 169.659C240.486 169.757 240.365 169.835 240.233 169.887C240.1 169.939 239.958 169.966 239.815 169.964H228.343L228.406 167.264Z" fill="#13375B"/>
<path d="M234.993 167.177C235.129 167.175 235.265 167.201 235.392 167.251C235.519 167.301 235.634 167.375 235.732 167.469C235.829 167.564 235.907 167.676 235.961 167.799C236.014 167.923 236.042 168.056 236.044 168.19V168.951C236.04 169.222 235.927 169.479 235.73 169.668C235.533 169.857 235.268 169.962 234.993 169.959H227.771V169.793H227.8L229.636 169.625L230.009 168.222C230.009 168.222 229.292 167.446 229.246 167.426C229.199 167.406 227.801 167.345 227.801 167.345H227.771V167.177H234.993Z" fill="#0E293F"/>
<path d="M228.239 168.566C228.239 167.745 227.799 167.347 227.799 167.347H234.844C234.97 167.346 235.095 167.369 235.211 167.415C235.327 167.461 235.434 167.529 235.523 167.616C235.613 167.702 235.684 167.805 235.733 167.919C235.783 168.032 235.809 168.154 235.81 168.278V168.863C235.809 168.987 235.783 169.109 235.733 169.223C235.684 169.336 235.613 169.439 235.523 169.526C235.434 169.612 235.327 169.68 235.211 169.726C235.095 169.773 234.97 169.796 234.844 169.794H227.799C227.799 169.794 228.239 169.599 228.239 168.566Z" fill="#F4F4F4"/>
<g style="mix-blend-mode:multiply">
<path d="M235.81 168.278V168.863C235.81 168.939 235.801 169.014 235.782 169.087C235.655 168.761 235.445 168.472 235.172 168.248C234.899 168.025 234.572 167.875 234.222 167.812C232.198 167.407 227.799 167.347 227.799 167.347H234.844C234.97 167.346 235.095 167.369 235.211 167.415C235.327 167.461 235.434 167.529 235.523 167.616C235.613 167.702 235.684 167.805 235.733 167.919C235.783 168.032 235.809 168.154 235.81 168.278Z" fill="#DAEEF7"/>
</g>
<path d="M228.682 165.032H228.216C228.299 164.985 228.394 164.96 228.49 164.961H240.096C240.703 164.961 241.195 165.338 241.195 165.801V166.336C241.195 166.8 240.703 167.177 240.096 167.177H228.619L228.682 165.032Z" fill="#F7CC7F"/>
<path d="M235.271 164.962C235.852 164.962 236.322 165.322 236.322 165.766V166.37C236.322 166.814 235.852 167.174 235.271 167.174H228.046V167.043H228.076L229.912 166.91L230.285 165.797C230.285 165.797 229.569 165.181 229.521 165.165C229.474 165.15 228.077 165.101 228.077 165.101H228.047V164.967L235.271 164.962Z" fill="#EAB054"/>
<path d="M228.515 166.064C228.519 165.881 228.482 165.699 228.406 165.532C228.329 165.365 228.216 165.216 228.074 165.098H235.123C235.657 165.098 236.089 165.428 236.089 165.836V166.301C236.089 166.709 235.657 167.04 235.123 167.04H228.071C228.071 167.04 228.515 166.885 228.515 166.064Z" fill="#F4F4F4"/>
<g style="mix-blend-mode:multiply">
<path d="M236.089 165.836V166.3C236.089 166.361 236.079 166.421 236.06 166.478C235.822 166.033 235.367 165.605 234.5 165.47C232.475 165.149 228.071 165.104 228.071 165.104H235.12C235.657 165.097 236.089 165.428 236.089 165.836Z" fill="#DAEEF7"/>
</g>
<g style="mix-blend-mode:multiply">
<path d="M270.494 177.673H269.541C269.25 177.673 269.014 177.905 269.014 178.192V210.787C269.014 211.073 269.25 211.305 269.541 211.305H270.494C270.786 211.305 271.022 211.073 271.022 210.787V178.192C271.022 177.905 270.786 177.673 270.494 177.673Z" fill="#B75742"/>
</g>
<g style="mix-blend-mode:multiply">
<path d="M275.829 177.673H274.876C274.585 177.673 274.349 177.905 274.349 178.192V210.787C274.349 211.073 274.585 211.305 274.876 211.305H275.829C276.121 211.305 276.357 211.073 276.357 210.787V178.192C276.357 177.905 276.121 177.673 275.829 177.673Z" fill="#B75742"/>
</g>
<g style="mix-blend-mode:multiply">
<path d="M281.165 177.673H280.212C279.92 177.673 279.684 177.905 279.684 178.192V210.787C279.684 211.073 279.92 211.305 280.212 211.305H281.165C281.456 211.305 281.692 211.073 281.692 210.787V178.192C281.692 177.905 281.456 177.673 281.165 177.673Z" fill="#B75742"/>
</g>
</svg>
