<svg width="345" height="216" viewBox="0 0 345 216" fill="none" xmlns="http://www.w3.org/2000/svg">
<rect x="0.77832" width="344" height="216" fill="#EFF4FF"/>
<path opacity="0.4" d="M60.5918 215.369C60.5918 215.369 36.7901 171.541 67.2361 138.894C97.6821 106.246 123.876 124.327 137.158 123.419C150.44 122.512 154.712 93.9142 194.02 85.2918C233.329 76.6694 269.959 92.5191 266.001 120.968C260.094 163.437 333.81 141.584 295.941 215.348L60.5918 215.369Z" fill="#9ED9F0"/>
<path d="M147.69 214.108L230.878 130.492L227.698 127.361L144.509 210.976L147.69 214.108Z" fill="#AFCDFB"/>
<path d="M153.627 214.971H116.914C112.739 214.971 109.029 213.333 107.005 210.588C105.063 207.965 105.077 204.838 107.044 202.223L118.286 187.654L126.148 187.497L112.987 204.91C112.265 205.867 112.26 206.968 112.971 207.928C113.762 208.997 115.238 209.634 116.919 209.634H147.214C150.758 209.634 153.631 212.023 153.631 214.969L153.627 214.971Z" fill="#6488D3"/>
<path d="M120.299 203.301H143.174C143.52 203.301 143.852 203.436 144.097 203.677C144.342 203.919 144.48 204.246 144.48 204.587V208.35C144.48 208.692 144.342 209.019 144.097 209.261C143.852 209.502 143.519 209.638 143.173 209.638H120.299C119.952 209.638 119.62 209.502 119.375 209.261C119.129 209.019 118.992 208.692 118.992 208.35V204.587C118.992 204.246 119.13 203.919 119.375 203.677C119.62 203.436 119.952 203.301 120.299 203.301Z" fill="#7EA6ED"/>
<path d="M124.961 176.971L94.9053 140.028C94.1339 138.953 93.3 137.923 92.4079 136.942C91.2063 135.647 89.6997 134.662 88.0207 134.074C86.3417 133.486 84.5417 133.314 82.7791 133.572C78.3201 134.411 75.6 137.892 76.4555 142.278L105.618 180.628C105.886 181.99 106.503 183.262 107.411 184.323C108.319 185.384 109.488 186.199 110.805 186.69C111.085 186.794 111.369 186.884 111.658 186.96C112.841 187.265 114.079 187.305 115.28 187.077L118.411 186.486C120.558 186.073 122.451 184.841 123.678 183.058C124.906 181.276 125.367 179.088 124.961 176.971Z" fill="#AFCDFB"/>
<path d="M167.334 170.63L165.005 173.654C165.005 173.654 149.794 173.497 145.036 171.378C143.489 170.69 129.382 171.845 125.399 170.329C124.547 170.005 123.839 169.573 123.315 168.981C120.296 165.567 121.963 161.722 121.963 161.722C121.963 161.722 128.026 161.106 133.873 161.546C138.039 161.861 144.322 162.947 146.898 164.463C150.95 166.844 167.334 170.63 167.334 170.63Z" fill="#FFB07B"/>
<path d="M170.794 165.405C170.669 165.419 170.55 165.461 170.444 165.527C170.338 165.593 170.249 165.683 170.183 165.788C169.825 166.331 169.286 167.458 168.046 168.242C167.349 168.684 165.246 170.563 165.246 170.563L165.24 170.574C165.223 170.625 165.208 170.889 165.646 172.205C165.871 172.886 164.561 173.484 164.561 173.484C164.62 173.642 164.711 173.787 164.827 173.91C165.018 174.118 165.277 174.252 165.559 174.288C166.042 174.354 166.793 174.903 167.291 175.308C167.591 175.554 167.799 175.745 167.799 175.745C167.799 175.745 168.062 175.902 168.578 174.808L169.03 173.488C169.118 173.025 169.115 172.661 169.216 172.19C169.372 171.473 169.733 171.24 169.813 171.196L169.829 171.189L171.746 165.579C171.613 165.379 171.147 165.375 170.794 165.405Z" fill="#415DA5"/>
<path d="M105.417 135.001C106.198 136.199 106.913 137.439 107.558 138.714C107.973 139.525 108.322 140.367 108.602 141.232L102.456 144.814C102.456 144.814 102.524 141.343 101.321 139.294C101.25 139.173 101.174 139.056 101.094 138.945C100.864 138.617 100.565 138.341 100.219 138.134L100.782 137.288L103.087 136.151L105.417 135.001Z" fill="#FFB07B"/>
<path d="M105.417 135.001C106.198 136.199 106.913 137.439 107.558 138.714C105.225 139.893 102.36 139.495 101.321 139.291C101.25 139.17 101.174 139.053 101.094 138.942L102.007 137.559L103.087 136.147L105.417 135.001Z" fill="#EA8E50"/>
<path d="M107.983 136.464C107.983 136.464 102.627 141.778 99.3165 138.442C96.006 135.106 93.0866 133.548 96.3672 130.014C99.6478 126.48 101.588 127.104 102.964 127.952C104.339 128.801 109.291 134.996 107.983 136.464Z" fill="#FFB07B"/>
<path d="M133.999 161.971C134.02 162.314 133.986 165.19 132.108 166.452C130.891 167.276 127.932 169.284 125.083 170.318C124.249 169.951 123.564 169.485 123.07 168.868C120.231 165.302 122.095 161.55 122.095 161.55C122.095 161.55 128.181 161.244 133.999 161.971Z" fill="#AA3E39"/>
<path d="M114.074 160.157C114.074 160.157 120.823 161.924 125.721 159.954C128.734 160.738 131.803 161.297 134.902 161.624C134.902 161.624 133.144 169.531 132.012 170.871C131.644 171.305 125.524 171.314 121.488 171.377C120.294 171.399 119.111 171.16 118.021 170.679C116.932 170.198 115.964 169.486 115.187 168.594C114.46 167.759 113.787 166.881 113.17 165.965C110.661 162.232 114.074 160.157 114.074 160.157Z" fill="#B84C42"/>
<path d="M123.045 154.954L121.107 152.238L119.28 149.931C116.505 146.425 113.051 143.496 109.118 141.314L108.439 140.937C108.439 140.937 103.882 141.622 102.153 142.1C102.153 142.1 101.348 146.774 102.184 149.168C102.688 150.559 105.913 157.762 112.365 165.161C112.365 165.161 117.906 167.106 122.631 162.807C123.358 162.163 125.714 161.072 126.209 159.598C126.38 159.102 123.413 155.333 123.045 154.954Z" fill="#739CF3"/>
<path d="M93.8858 142.316L87.868 135.222C87.6509 134.966 87.4892 134.668 87.3927 134.348C87.2963 134.028 87.2671 133.692 87.307 133.36C87.3469 133.028 87.455 132.708 87.6247 132.419C87.7944 132.13 88.0222 131.878 88.2942 131.678L88.4604 131.555C88.9798 131.173 89.6299 131.005 90.273 131.086C90.9161 131.168 91.5018 131.493 91.9061 131.992L97.7556 139.208C98.1635 139.712 98.3545 140.352 98.2875 140.993C98.2206 141.633 97.901 142.222 97.3976 142.633C96.8888 143.049 96.2335 143.249 95.5752 143.189C94.9169 143.13 94.3094 142.816 93.8858 142.316Z" fill="#B84C42"/>
<path d="M91.8901 132.18C92.1139 132.091 92.3584 132.064 92.5965 132.104C92.597 132.102 92.597 132.1 92.5965 132.097C92.0137 131.283 92.2087 129.895 92.2087 129.895C92.1789 130.648 92.9609 131.438 92.9609 131.438C92.6679 128.694 99.3453 126.193 99.9611 125.94C100.577 125.687 100.37 124.657 100.37 124.657C101.715 124.762 103.308 126.253 103.46 127.866C103.613 129.479 103.013 133.944 102.282 133.457C100.701 132.408 100.503 134.852 102.03 135.524C103.079 135.987 102.345 138.13 101.381 139.17C100.605 140.009 100.076 139.445 99.536 139.234C99.4025 139.179 99.2619 139.144 99.1183 139.129C97.0577 138.919 94.7318 137.216 93.3914 134.847C92.9813 134.094 92.7203 133.272 92.6221 132.424C92.388 132.316 92.1425 132.235 91.8901 132.18Z" fill="#2C3A64"/>
<path d="M106.117 146.131C106.117 146.131 103.306 150.479 105.939 156.411C105.939 156.411 109.406 161.817 112.369 165.165C112.369 165.165 117.735 167.769 123.888 162.159L117.461 159.468L106.117 146.131Z" fill="#6488D3"/>
<path d="M133.446 161.246C133.233 161.007 132.463 160.131 129.953 160.105C127.206 159.87 119.192 159.103 118.489 158.101C118.012 157.423 111.434 144.414 110.857 144.327C108.964 144.053 105.68 147.415 106.168 149.061C106.168 149.061 112.944 162.641 114.442 162.907C116.862 163.327 125.51 163.019 128.729 162.338C129.118 162.548 130.629 163.344 130.991 163.502C131.406 163.682 133.025 163.678 133.675 163.219C134.325 162.759 133.901 161.77 133.446 161.246Z" fill="#FFB07B"/>
<path d="M114.57 150.287C113.443 152.354 111.255 154.047 108.353 154.61C107.782 153.94 106.168 149.06 106.168 149.06C105.683 147.415 105.513 141.775 110.695 143.816C113.931 145.093 114.151 149.185 114.57 150.287Z" fill="#739CF3"/>
<path d="M177.113 199.462L148.466 187.207L154.833 172.78L183.481 185.036C184.327 185.398 185.092 185.92 185.733 186.573C186.374 187.226 186.878 187.997 187.216 188.842C187.555 189.687 187.721 190.589 187.705 191.497C187.689 192.405 187.491 193.301 187.123 194.134L186.355 195.875C185.988 196.708 185.457 197.462 184.794 198.093C184.13 198.724 183.347 199.22 182.489 199.553C181.631 199.886 180.714 200.049 179.792 200.034C178.869 200.018 177.959 199.824 177.113 199.462Z" fill="#9FC1F4"/>
<path d="M159.167 184.93V174.634L154.834 172.78L148.467 187.207L154.315 189.708C154.952 189.708 155.583 189.585 156.172 189.345C156.76 189.104 157.295 188.753 157.746 188.309C158.196 187.865 158.554 187.338 158.798 186.759C159.041 186.179 159.167 185.558 159.167 184.93Z" fill="#7EA6ED"/>
<path d="M151.235 171.139H117.296L89.9764 139.047C87.8273 136.274 86.5115 135.032 84.8323 134.04C84.1176 133.623 83.2719 133.479 82.4563 133.635C82.3636 133.653 82.2709 133.672 82.1792 133.693C76.7325 134.915 74.5078 141.389 77.945 145.726L105.612 180.632C105.888 182.049 106.545 183.367 107.515 184.448C107.544 184.504 107.574 184.553 107.605 184.611L107.615 184.627C107.707 184.786 107.806 184.942 107.913 185.087C107.919 185.095 107.925 185.104 107.931 185.113C108.037 185.256 108.144 185.393 108.262 185.526C108.272 185.538 108.281 185.549 108.292 185.56C108.329 185.602 108.368 185.644 108.406 185.685C108.489 185.773 108.554 185.839 108.644 185.922L108.693 185.967L108.807 186.072C108.826 186.088 108.845 186.103 108.863 186.12C108.928 186.176 108.995 186.225 109.062 186.282L109.132 186.335L109.238 186.415L109.324 186.475L109.431 186.547L109.602 186.652L109.702 186.71C109.739 186.732 109.777 186.753 109.816 186.774L109.913 186.827C109.973 186.858 110.034 186.89 110.097 186.92L110.182 186.959C110.231 186.982 110.281 187.005 110.331 187.026L110.42 187.064L110.596 187.132L110.655 187.154C110.727 187.181 110.799 187.204 110.868 187.227L110.948 187.251C111.003 187.268 111.055 187.283 111.113 187.298L111.192 187.319C111.271 187.339 111.351 187.357 111.431 187.374L111.498 187.386C111.564 187.4 111.631 187.411 111.699 187.422L111.761 187.432C111.844 187.444 111.928 187.455 112.013 187.464H112.058C112.129 187.47 112.2 187.475 112.272 187.479H112.344C112.43 187.484 112.517 187.486 112.606 187.486H151.225C151.899 187.486 152.568 187.37 153.201 187.141C153.987 186.855 154.702 186.404 155.294 185.82C155.83 185.295 156.256 184.671 156.546 183.984C156.837 183.296 156.986 182.559 156.986 181.815V176.799C156.979 175.3 156.37 173.864 155.293 172.804C154.216 171.744 152.758 171.146 151.235 171.139Z" fill="#9FC1F4"/>
<path d="M156.83 180.044H105.767C105.418 180.044 103.764 180.076 103.764 179.415C103.764 179.248 103.831 179.088 103.951 178.969C104.071 178.851 104.234 178.785 104.403 178.785H156.833C157.003 178.785 157.165 178.851 157.285 178.969C157.405 179.088 157.472 179.248 157.472 179.415C157.472 179.497 157.456 179.58 157.424 179.656C157.391 179.733 157.344 179.802 157.284 179.861C157.224 179.919 157.154 179.965 157.076 179.997C156.998 180.028 156.914 180.044 156.83 180.044Z" fill="#6488D3"/>
<path d="M158.877 128.463L158.347 128.869L157.682 128.029L157.557 128.126L154.812 124.657L154.753 124.702L157.498 128.171L157.372 128.267L158.037 129.106L157.508 129.513L157.674 129.723L157.956 129.507L160.871 133.191L162.05 133.045L158.761 128.889L159.043 128.673L158.877 128.463Z" fill="#AFCDFB"/>
<path d="M231.23 130.585L168.905 69.2261L165.723 72.3584L228.048 133.717L231.23 130.585Z" fill="#AFCDFB"/>
<path d="M166.381 71.8871L150.002 88.0122L153.184 91.1445L169.563 75.0194L166.381 71.8871Z" fill="#AFCDFB"/>
<path d="M156.562 102.632C159.706 99.5366 158.173 93.0099 153.14 88.054C148.106 83.0981 141.476 81.5898 138.332 84.6851C135.188 87.7803 136.72 94.3071 141.754 99.2629C146.788 104.219 153.418 105.727 156.562 102.632Z" fill="#6488D3"/>
<path d="M157.079 116.006C162.654 110.517 159.937 98.9417 151.009 90.1524C142.082 81.3631 130.324 78.6879 124.749 84.1771C119.173 89.6663 121.89 101.241 130.818 110.031C139.746 118.82 151.503 121.495 157.079 116.006Z" fill="#9FC1F4"/>
<path d="M158.305 100.704C159.967 105.987 159.429 110.912 156.332 113.96C150.757 119.449 138.999 116.774 130.071 107.981C126.738 104.698 124.266 101.026 122.774 97.4326C124.105 101.662 126.845 106.122 130.815 110.031C139.743 118.82 151.5 121.495 157.076 116.01C160.572 112.565 160.812 106.739 158.305 100.704Z" fill="#739CF3"/>
<path d="M151.9 114.097C156.248 109.816 154.129 100.789 147.167 93.9353C140.205 87.0812 131.036 84.9951 126.688 89.2758C122.34 93.5566 124.459 102.583 131.421 109.437C138.383 116.292 147.552 118.378 151.9 114.097Z" fill="#C5DDF9"/>
<path d="M140.306 100.096C142.179 101.939 142.749 104.367 141.584 105.518C140.42 106.669 137.949 106.108 136.077 104.259C134.205 102.41 133.635 99.9888 134.798 98.837C135.962 97.6853 138.437 98.2517 140.306 100.096Z" fill="white"/>
<path d="M145.542 94.4956C147.414 96.3397 147.984 98.7669 146.821 99.9176C145.657 101.068 143.185 100.508 141.312 98.6652C139.439 96.8222 138.863 94.3938 140.035 93.2421C141.207 92.0903 143.67 92.6526 145.542 94.4956Z" fill="white"/>
<path d="M132.094 92.0108C133.966 93.8549 134.536 96.2822 133.373 97.4339C132.209 98.5857 129.737 98.0234 127.865 96.1752C125.993 94.3269 125.422 91.9038 126.586 90.7531C127.751 89.6024 130.222 90.1678 132.094 92.0108Z" fill="white"/>
<path d="M148.216 107.883C150.088 109.727 150.658 112.154 149.495 113.306C148.331 114.458 145.86 113.896 143.988 112.047C142.115 110.199 141.544 107.776 142.709 106.625C143.873 105.474 146.344 106.04 148.216 107.883Z" fill="white"/>
<path d="M135.107 105.213C136.547 106.629 136.985 108.494 136.085 109.38C135.186 110.265 133.293 109.833 131.854 108.417C130.416 107.001 129.977 105.135 130.876 104.25C131.775 103.366 133.669 103.797 135.107 105.213Z" fill="white"/>
<path opacity="0.2" d="M146.099 92.9368C136.404 83.6766 127.895 87.692 126.688 89.2748L41.5901 178.793C41.5901 178.793 29.9955 190.017 45.1306 215.369L163.561 215.721L154.099 109.226C154.099 109.226 155.793 102.196 146.099 92.9368Z" fill="white"/>
<path d="M168.475 78.3594C171.505 78.3594 173.962 75.9408 173.962 72.9573C173.962 69.9738 171.505 67.5552 168.475 67.5552C165.444 67.5552 162.987 69.9738 162.987 72.9573C162.987 75.9408 165.444 78.3594 168.475 78.3594Z" fill="#6488D3"/>
<path d="M170.748 72.9572C170.748 73.4 170.615 73.8327 170.365 74.2009C170.115 74.569 169.76 74.8559 169.345 75.0253C168.929 75.1947 168.472 75.2391 168.031 75.1527C167.59 75.0663 167.185 74.8531 166.867 74.5401C166.549 74.227 166.332 73.8282 166.245 73.3939C166.157 72.9597 166.202 72.5096 166.374 72.1006C166.546 71.6916 166.838 71.342 167.211 71.096C167.585 70.85 168.025 70.7188 168.475 70.7188C168.773 70.7186 169.069 70.7764 169.345 70.8889C169.621 71.0013 169.872 71.1662 170.083 71.3741C170.294 71.582 170.461 71.8288 170.576 72.1004C170.69 72.3721 170.749 72.6632 170.748 72.9572Z" fill="#AFCDFB"/>
<path d="M227.464 135.412C230.494 135.412 232.951 132.993 232.951 130.01C232.951 127.026 230.494 124.607 227.464 124.607C224.433 124.607 221.976 127.026 221.976 130.01C221.976 132.993 224.433 135.412 227.464 135.412Z" fill="#6488D3"/>
<path d="M229.736 130.009C229.737 130.452 229.605 130.885 229.355 131.254C229.106 131.623 228.751 131.91 228.336 132.08C227.92 132.25 227.463 132.295 227.021 132.209C226.58 132.123 226.174 131.91 225.856 131.597C225.538 131.284 225.321 130.885 225.233 130.451C225.145 130.017 225.19 129.566 225.362 129.157C225.534 128.748 225.826 128.398 226.2 128.152C226.574 127.906 227.014 127.775 227.464 127.775C228.066 127.775 228.644 128.01 229.07 128.429C229.496 128.848 229.736 129.416 229.736 130.009Z" fill="#AFCDFB"/>
<path d="M183.784 100.09C183.784 100.09 188.953 100.397 189.949 105.607C190.946 110.817 182.25 126.182 181.34 127.132C180.431 128.083 170.955 135.105 164.757 134.285C164.757 134.285 162.354 134.42 162.84 132.991C162.84 132.991 175.366 124.333 176.433 123.15C177.499 121.966 180.626 106.711 181.249 104.77C181.872 102.828 183.784 100.09 183.784 100.09Z" fill="#C5DDF9"/>
<path d="M185.871 100.988L182.295 109.226L175.343 108.825C175.343 108.825 178.994 102.491 179.059 101.84C179.111 101.337 179.051 100.076 178.975 98.9026C178.909 97.8893 178.831 96.9431 178.802 96.6211C178.802 96.6033 178.802 96.5865 178.802 96.5697C178.784 96.3714 178.766 96.213 178.751 96.105C178.736 95.997 178.727 95.9382 178.727 95.9382L178.802 95.9151L184.982 94.0637L185.135 94.0176C185.225 95.997 185.349 97.4624 185.466 98.5501C185.596 99.79 185.744 100.537 185.871 100.988Z" fill="#FFB07B"/>
<path d="M174.936 88.4278C174.936 88.4278 172.709 78.6914 186.387 78.5865C189.491 78.5624 191.706 87.1565 185.778 92.4327L174.936 88.4278Z" fill="#2B478B"/>
<path d="M193.448 145.328C192.564 151.386 186.629 167.133 186.806 172.574C186.943 176.864 186.871 186.771 186.296 193.353C186.138 195.144 185.951 196.68 185.713 197.798C185.203 200.225 184.548 203.021 184.197 204.783C183.413 208.739 183.823 211.046 183.182 213.169C182.478 215.491 174.391 215.067 176.828 213.658C177.698 213.156 178.959 212.085 179.589 210.707C181.86 205.696 178.675 184.089 177.727 175.759C177.605 174.719 177.514 173.891 177.482 173.325C177.163 168.185 173.578 133.903 173.578 133.903C182.291 129.138 194.325 139.269 193.448 145.328Z" fill="#FFB07B"/>
<path d="M193.448 145.328C192.564 151.386 186.629 167.133 186.806 172.575C186.942 176.864 186.871 186.771 186.296 193.354L177.727 175.759C177.605 174.719 177.514 173.891 177.482 173.325C177.162 168.185 173.489 133.89 173.489 133.89C182.201 129.121 194.325 139.269 193.448 145.328Z" fill="#EA8E50"/>
<path d="M174.547 135.013C174.547 135.013 182.029 168.875 182.88 173.959C183.73 179.044 190.544 202.983 189.059 208.981C188.184 212.52 186.656 213.567 186.656 213.567C186.297 214.215 192.215 215.505 192.693 213.022C193.3 209.868 193.428 205.444 194.317 197.942C195.848 185.025 192.811 177.675 192.079 172.277C191.347 166.879 194.551 149.724 192.771 143.856C189.65 133.599 182.712 129.391 174.547 135.013Z" fill="#FFB07B"/>
<path d="M195.636 180.787C195.636 180.787 193.687 181.084 190.819 181.282L189.26 175.125L188.714 181.396C184.106 181.579 178.09 181.354 173.654 179.548L172.681 135.006C172.681 135.006 183.055 135.805 190.782 132.882C190.781 132.882 198.811 155.014 195.636 180.787Z" fill="white"/>
<path d="M195.589 208.402C195.22 210.475 195.156 214.268 195.149 214.975H194.516L194.459 210.161C194.412 210.217 194.369 210.266 194.33 210.31C193.739 210.958 192.958 214.209 192.403 214.975H185.491C185.359 214.742 185.408 214.51 185.545 214.299C185.864 213.801 186.662 213.419 186.662 213.419C186.662 213.419 188.909 213.762 191.143 213.209C192.079 212.976 193.619 204.713 193.619 204.713C193.619 204.713 195.875 206.107 196.12 206.713C196.238 207.002 195.973 207.691 195.589 208.402Z" fill="#415DA5"/>
<path d="M185.912 208.785C185.66 210.497 185.572 213.026 185.545 214.299C185.538 214.614 185.534 214.844 185.533 214.975H184.902L184.845 210.336C184.257 211.035 183.486 214.217 182.938 214.975H176.027C175.579 214.193 177.199 213.419 177.199 213.419C177.199 213.419 179.446 213.762 181.674 213.209C182.611 212.975 184.196 204.781 184.196 204.781C184.196 204.781 186.407 206.105 186.646 206.711C186.793 207.055 186.395 207.952 185.912 208.785Z" fill="#415DA5"/>
<path d="M184.433 95.2573C183.743 96.3954 182.133 98.3087 178.975 98.9025C178.909 97.8892 178.831 96.943 178.802 96.621C178.802 96.6031 178.802 96.5864 178.802 96.5696C178.784 96.3713 178.766 96.2129 178.751 96.1049C178.736 95.9968 178.727 95.9381 178.727 95.9381L178.802 95.915L184.433 95.2573Z" fill="#EA8E50"/>
<path d="M178.522 97.9099C178.522 97.9099 186.3 97.1935 185.778 92.428C185.256 87.6626 185.9 84.3605 180.907 84.6164C175.914 84.8724 175.153 86.7951 174.94 88.4273C174.727 90.0595 176.484 97.9739 178.522 97.9099Z" fill="#FFB07B"/>
<path d="M176.923 85.7781C176.923 85.7781 174.009 87.0369 174.883 90.5268C174.883 90.5268 171.9 85.4687 176.725 84.1627C181.549 82.8568 176.923 85.7781 176.923 85.7781Z" fill="#2B478B"/>
<path d="M177.189 84.6228C177.189 84.6228 175.893 87.7959 180.394 89.019C184.894 90.242 185.875 93.1456 185.27 94.7599C185.27 94.7599 190.757 87.1539 185.949 83.8696C181.142 80.5853 177.189 84.6228 177.189 84.6228Z" fill="#2B478B"/>
<path d="M192.168 137.513C192.168 137.513 185.716 140.136 181.146 140.039C176.577 139.943 175.721 138.187 175.721 138.187C174.937 138.966 172.749 138.187 172.749 138.187C172.749 138.187 172.659 134.62 172.625 131.033C172.618 130.369 172.412 129.783 172.412 129.132C172.403 127.454 172.412 125.89 172.452 124.831C172.459 124.438 172.487 124.046 172.535 123.656C172.82 121.901 171.218 114.858 172.408 111.198C172.863 109.802 178.442 102.835 178.894 102.301C177.509 105.082 176.386 108.054 176.386 108.054C178.54 107.567 185.696 100.198 185.696 100.198L190.39 105.852L191.278 106.919C191.278 106.919 190.372 122.103 190.175 124.93C189.978 127.757 192.168 137.513 192.168 137.513Z" fill="white"/>
<path d="M188.471 124.936C189.707 122.376 191.278 106.914 191.278 106.914L190.39 105.851C187.354 112.942 181.334 126.631 179.64 127.689C178.158 128.617 175.066 129.721 172.625 131.038C172.659 134.62 172.625 135.662 172.625 135.662C172.625 135.662 185.203 131.708 188.471 124.936Z" fill="#C5DDF9"/>
<path d="M187.135 105.851C187.083 106.081 183.734 120.834 183.491 121.156C183.248 121.478 172.967 128.365 172.967 128.365L187.135 105.851Z" fill="#C5DDF9"/>
<path d="M165.074 132.882C165.074 132.882 160.141 132.97 159.776 133.573C159.41 134.175 161.507 136.206 163.436 136.255C165.364 136.303 167.39 134.561 167.39 134.561L165.074 132.882Z" fill="#FFB07B"/>
<path d="M185.695 100.2C185.695 100.2 190.276 101.704 191.277 106.914C192.277 112.123 183.578 127.489 182.668 128.439C181.758 129.39 172.283 136.411 166.085 135.592C166.085 135.592 163.782 134.034 164.265 132.606C164.265 132.606 176.69 125.64 177.757 124.456C178.824 123.273 181.95 108.018 182.573 106.076C183.196 104.135 185.695 100.2 185.695 100.2Z" fill="white"/>
<path d="M172.967 143.354C172.967 143.354 174.052 167.003 178.208 170.742C182.363 174.482 186.752 172.47 188.712 181.396C188.712 181.396 177.746 183.012 173.653 179.548C173.653 179.548 171.989 157.856 172.967 143.354Z" fill="#C5DDF9"/>
<path d="M175.622 92.8814L176.773 92.0076L183.352 91.6143C183.352 91.6143 183.34 94.3856 184.798 95.3737C184.798 95.3737 182.233 98.1178 178.131 98.0653C178.128 98.0653 176.119 96.9807 175.622 92.8814Z" fill="white"/>
<path d="M184.794 95.3734C184.794 95.3734 180.303 97.506 179.167 96.3867C178.03 95.2675 177.016 92.4248 177.016 92.4248C177.016 92.4248 177.888 96.9951 179.025 97.6948C180.162 98.3944 183.175 97.0035 184.794 95.3734Z" fill="#C5DDF9"/>
<path d="M249.196 142.593H248.33V147.414H249.196V142.593Z" fill="#B64C41"/>
<path d="M251.351 187.415C251.214 187.415 251.076 187.415 250.933 187.401L250.955 187.086C252.277 187.176 253.299 186.84 254.071 186.057C256.661 183.435 255.95 176.175 255.263 169.152C254.632 162.707 253.985 156.04 255.885 152.863C258.704 148.159 258.391 143.412 254.958 138.751C254.892 138.661 254.836 138.584 254.791 138.521C254.733 138.432 254.654 138.357 254.562 138.303C254.47 138.248 254.366 138.215 254.258 138.207C253.456 138.131 252.378 139.165 252.367 139.176L252.143 138.951C252.191 138.905 253.34 137.807 254.288 137.894C254.442 137.907 254.59 137.954 254.722 138.033C254.854 138.111 254.966 138.218 255.05 138.345C255.094 138.406 255.149 138.481 255.214 138.57C255.783 139.342 257.114 141.149 257.75 143.658C258.543 146.787 258.007 149.939 256.152 153.025C254.297 156.111 254.947 162.73 255.573 169.126C256.267 176.22 256.985 183.555 254.295 186.279C253.552 187.034 252.561 187.415 251.351 187.415Z" fill="#9FC1F4"/>
<path d="M251.45 161.998H215.628C214.779 161.998 214.09 162.676 214.09 163.513V209.086C214.09 209.922 214.779 210.6 215.628 210.6H251.45C252.299 210.6 252.988 209.922 252.988 209.086V163.513C252.988 162.676 252.299 161.998 251.45 161.998Z" fill="#6488D3"/>
<path d="M208.565 212.542C208.565 212.003 208.728 211.476 209.032 211.027C209.336 210.579 209.769 210.229 210.275 210.023C210.782 209.816 211.339 209.762 211.876 209.867C212.413 209.973 212.907 210.232 213.294 210.614C213.682 210.995 213.946 211.481 214.052 212.01C214.159 212.539 214.104 213.088 213.895 213.586C213.685 214.084 213.33 214.51 212.874 214.81C212.419 215.11 211.883 215.27 211.335 215.27C210.601 215.27 209.896 214.982 209.377 214.471C208.857 213.959 208.565 213.266 208.565 212.542Z" fill="#9FC1F4"/>
<path d="M209.411 212.542C209.411 212.168 209.524 211.803 209.735 211.493C209.945 211.182 210.245 210.94 210.595 210.798C210.946 210.655 211.331 210.617 211.703 210.69C212.075 210.763 212.417 210.943 212.685 211.207C212.954 211.471 213.136 211.807 213.21 212.174C213.284 212.54 213.246 212.919 213.101 213.264C212.956 213.609 212.71 213.904 212.395 214.112C212.079 214.319 211.709 214.43 211.329 214.43C210.821 214.43 210.333 214.231 209.973 213.877C209.613 213.523 209.411 213.043 209.411 212.542Z" fill="#88ADE5"/>
<path d="M243.696 212.542C243.696 212.003 243.859 211.476 244.163 211.027C244.468 210.579 244.9 210.229 245.407 210.023C245.913 209.816 246.47 209.762 247.007 209.867C247.544 209.973 248.038 210.232 248.426 210.614C248.813 210.995 249.077 211.481 249.184 212.01C249.291 212.539 249.236 213.088 249.026 213.586C248.816 214.084 248.461 214.51 248.006 214.81C247.55 215.11 247.015 215.27 246.467 215.27C245.732 215.27 245.027 214.982 244.508 214.471C243.988 213.959 243.696 213.266 243.696 212.542Z" fill="#9FC1F4"/>
<path d="M244.542 212.542C244.542 212.168 244.654 211.803 244.865 211.493C245.076 211.182 245.375 210.94 245.726 210.798C246.076 210.655 246.462 210.617 246.834 210.69C247.206 210.763 247.548 210.943 247.816 211.207C248.084 211.471 248.267 211.807 248.341 212.174C248.415 212.54 248.377 212.919 248.232 213.264C248.087 213.609 247.841 213.904 247.525 214.112C247.21 214.319 246.839 214.43 246.46 214.43C245.951 214.43 245.463 214.231 245.104 213.877C244.744 213.523 244.542 213.043 244.542 212.542Z" fill="#88ADE5"/>
<path d="M223.198 158.261H220.045C220.106 158.261 220.165 158.237 220.208 158.195C220.251 158.152 220.276 158.094 220.276 158.034C220.276 157.973 220.251 157.916 220.208 157.873C220.165 157.83 220.106 157.806 220.045 157.806H217.767C217.705 157.806 217.647 157.83 217.603 157.873C217.56 157.916 217.535 157.973 217.535 158.034C217.535 158.094 217.56 158.152 217.603 158.195C217.647 158.237 217.705 158.261 217.767 158.261H217.783C217.391 158.263 217.016 158.416 216.739 158.688C216.462 158.961 216.306 159.33 216.305 159.715V167.471C216.306 167.857 216.462 168.226 216.739 168.499C217.016 168.771 217.391 168.925 217.783 168.926H223.198C223.59 168.925 223.965 168.771 224.242 168.499C224.519 168.226 224.674 167.857 224.675 167.471V159.715C224.674 159.33 224.518 158.961 224.241 158.688C223.965 158.416 223.59 158.263 223.198 158.261Z" fill="#9FC1F4"/>
<path d="M230.387 156.516H228.416C228.472 156.516 228.527 156.494 228.567 156.455C228.607 156.416 228.629 156.362 228.629 156.307V156.184C228.629 156.128 228.607 156.075 228.567 156.036C228.527 155.996 228.472 155.974 228.416 155.974H226.905C226.849 155.974 226.794 155.996 226.754 156.036C226.714 156.075 226.692 156.128 226.692 156.184V156.307C226.692 156.362 226.714 156.416 226.754 156.455C226.794 156.494 226.849 156.516 226.905 156.516H227.176C226.818 156.518 226.474 156.658 226.221 156.908C225.968 157.157 225.826 157.495 225.825 157.848V167.837C225.826 168.189 225.969 168.527 226.222 168.776C226.475 169.025 226.818 169.166 227.176 169.167H230.387C230.745 169.166 231.088 169.025 231.341 168.776C231.594 168.527 231.737 168.189 231.738 167.837V157.848C231.737 157.495 231.595 157.157 231.342 156.908C231.088 156.658 230.745 156.518 230.387 156.516Z" fill="#9FC1F4"/>
<path d="M235.852 162.141H233.514L233.093 158.596H236.109L235.852 162.141Z" fill="#9FC1F4"/>
<path d="M236.129 158.443H233.099C233.071 158.443 233.049 158.465 233.049 158.493V158.547C233.049 158.574 233.071 158.597 233.099 158.597H236.129C236.157 158.597 236.179 158.574 236.179 158.547V158.493C236.179 158.465 236.157 158.443 236.129 158.443Z" fill="#AFCDFB"/>
<path d="M235.852 162.626H233.514L233.093 159.081H236.109L235.852 162.626Z" fill="#9FC1F4"/>
<path d="M236.129 158.929H233.099C233.071 158.929 233.049 158.951 233.049 158.978V159.033C233.049 159.06 233.071 159.082 233.099 159.082H236.129C236.157 159.082 236.179 159.06 236.179 159.033V158.978C236.179 158.951 236.157 158.929 236.129 158.929Z" fill="#AFCDFB"/>
<path d="M235.852 163.151H233.514L233.093 159.606H236.109L235.852 163.151Z" fill="#9FC1F4"/>
<path d="M236.129 159.454H233.099C233.071 159.454 233.049 159.476 233.049 159.503V159.558C233.049 159.585 233.071 159.607 233.099 159.607H236.129C236.157 159.607 236.179 159.585 236.179 159.558V159.503C236.179 159.476 236.157 159.454 236.129 159.454Z" fill="#AFCDFB"/>
<path d="M235.852 163.838H233.514L233.093 160.293H236.109L235.852 163.838Z" fill="#9FC1F4"/>
<path d="M236.129 160.14H233.099C233.071 160.14 233.049 160.162 233.049 160.189V160.244C233.049 160.271 233.071 160.293 233.099 160.293H236.129C236.157 160.293 236.179 160.271 236.179 160.244V160.189C236.179 160.162 236.157 160.14 236.129 160.14Z" fill="#AFCDFB"/>
<path d="M235.852 164.343H233.514L233.093 160.798H236.109L235.852 164.343Z" fill="#9FC1F4"/>
<path d="M236.129 160.645H233.099C233.071 160.645 233.049 160.667 233.049 160.694V160.749C233.049 160.776 233.071 160.798 233.099 160.798H236.129C236.157 160.798 236.179 160.776 236.179 160.749V160.694C236.179 160.667 236.157 160.645 236.129 160.645Z" fill="#AFCDFB"/>
<path d="M208.758 145.14H208.591C208.591 145.057 208.557 144.977 208.497 144.918C208.437 144.859 208.356 144.826 208.271 144.826H207.979C207.894 144.826 207.813 144.859 207.753 144.918C207.693 144.977 207.66 145.057 207.66 145.14H207.492C207.307 145.141 207.129 145.214 206.998 145.343C206.867 145.472 206.793 145.647 206.792 145.83V151.947C206.793 152.129 206.867 152.304 206.998 152.433C207.129 152.562 207.307 152.635 207.492 152.635H208.758C208.943 152.635 209.121 152.562 209.252 152.433C209.383 152.304 209.457 152.129 209.458 151.947V145.83C209.457 145.647 209.384 145.472 209.252 145.343C209.121 145.214 208.944 145.141 208.758 145.14Z" fill="#B64C41"/>
<path d="M212.023 145.14H211.855C211.855 145.057 211.822 144.977 211.762 144.918C211.702 144.859 211.621 144.826 211.536 144.826H211.243C211.158 144.826 211.077 144.859 211.017 144.918C210.957 144.977 210.923 145.057 210.923 145.14H210.755C210.57 145.141 210.392 145.214 210.261 145.343C210.13 145.472 210.056 145.647 210.056 145.83V151.947C210.056 152.129 210.13 152.304 210.261 152.433C210.392 152.562 210.57 152.635 210.755 152.635H212.033C212.219 152.635 212.396 152.562 212.527 152.433C212.659 152.304 212.733 152.129 212.733 151.947V145.83C212.733 145.738 212.715 145.648 212.679 145.564C212.643 145.48 212.59 145.403 212.524 145.339C212.458 145.275 212.38 145.224 212.294 145.19C212.208 145.156 212.116 145.139 212.023 145.14Z" fill="#B64C41"/>
<path d="M215.588 145.14H215.421C215.421 145.057 215.387 144.977 215.327 144.918C215.267 144.859 215.186 144.826 215.101 144.826H214.808C214.723 144.826 214.642 144.859 214.582 144.918C214.522 144.977 214.488 145.057 214.488 145.14H214.321C214.136 145.141 213.958 145.214 213.827 145.343C213.696 145.472 213.622 145.647 213.621 145.83V151.947C213.622 152.129 213.696 152.304 213.827 152.433C213.958 152.562 214.136 152.635 214.321 152.635H215.594C215.78 152.635 215.957 152.562 216.088 152.433C216.219 152.304 216.293 152.129 216.293 151.947V145.83C216.293 145.739 216.275 145.649 216.239 145.565C216.203 145.481 216.151 145.405 216.086 145.341C216.02 145.277 215.943 145.226 215.857 145.192C215.772 145.157 215.68 145.14 215.588 145.14Z" fill="#B64C41"/>
<path d="M222.857 141.006H220.892C220.948 141.006 221.002 140.984 221.042 140.945C221.082 140.906 221.105 140.852 221.105 140.797V140.677C221.105 140.621 221.082 140.568 221.042 140.529C221.002 140.489 220.948 140.467 220.892 140.467H219.38C219.323 140.467 219.269 140.489 219.229 140.529C219.189 140.568 219.167 140.621 219.167 140.677V140.801C219.167 140.856 219.189 140.91 219.229 140.949C219.269 140.989 219.323 141.011 219.38 141.011H219.651C219.293 141.012 218.95 141.152 218.697 141.401C218.444 141.651 218.302 141.988 218.3 142.341V152.33C218.301 152.683 218.444 153.02 218.697 153.27C218.95 153.519 219.293 153.66 219.651 153.661H222.857C223.216 153.66 223.559 153.519 223.812 153.27C224.065 153.02 224.208 152.683 224.208 152.33V142.341C224.208 141.988 224.066 141.649 223.813 141.399C223.56 141.149 223.216 141.008 222.857 141.006Z" fill="#EE9849"/>
<path d="M235.852 146.633H233.514L233.093 143.087H236.109L235.852 146.633Z" fill="#9FC1F4"/>
<path d="M236.129 142.936H233.099C233.071 142.936 233.049 142.958 233.049 142.985V143.039C233.049 143.067 233.071 143.089 233.099 143.089H236.129C236.157 143.089 236.179 143.067 236.179 143.039V142.985C236.179 142.958 236.157 142.936 236.129 142.936Z" fill="#AFCDFB"/>
<path d="M235.852 147.117H233.514L233.093 143.573H236.109L235.852 147.117Z" fill="#9FC1F4"/>
<path d="M236.129 143.42H233.099C233.071 143.42 233.049 143.442 233.049 143.469V143.524C233.049 143.551 233.071 143.573 233.099 143.573H236.129C236.157 143.573 236.179 143.551 236.179 143.524V143.469C236.179 143.442 236.157 143.42 236.129 143.42Z" fill="#AFCDFB"/>
<path d="M235.852 147.643H233.514L233.093 144.098H236.109L235.852 147.643Z" fill="#9FC1F4"/>
<path d="M236.129 143.946H233.099C233.071 143.946 233.049 143.968 233.049 143.995V144.049C233.049 144.076 233.071 144.098 233.099 144.098H236.129C236.157 144.098 236.179 144.076 236.179 144.049V143.995C236.179 143.968 236.157 143.946 236.129 143.946Z" fill="#AFCDFB"/>
<path d="M235.852 148.33H233.514L233.093 144.785H236.109L235.852 148.33Z" fill="#9FC1F4"/>
<path d="M236.129 144.632H233.099C233.071 144.632 233.049 144.654 233.049 144.682V144.736C233.049 144.763 233.071 144.785 233.099 144.785H236.129C236.157 144.785 236.179 144.763 236.179 144.736V144.682C236.179 144.654 236.157 144.632 236.129 144.632Z" fill="#AFCDFB"/>
<path d="M235.852 148.834H233.514L233.093 145.29H236.109L235.852 148.834Z" fill="#9FC1F4"/>
<path d="M236.129 145.137H233.099C233.071 145.137 233.049 145.159 233.049 145.187V145.241C233.049 145.268 233.071 145.29 233.099 145.29H236.129C236.157 145.29 236.179 145.268 236.179 145.241V145.187C236.179 145.159 236.157 145.137 236.129 145.137Z" fill="#AFCDFB"/>
<path d="M231.583 146.633H229.243L228.823 143.087H231.839L231.583 146.633Z" fill="#9FC1F4"/>
<path d="M231.86 142.936H228.83C228.802 142.936 228.78 142.958 228.78 142.985V143.039C228.78 143.067 228.802 143.089 228.83 143.089H231.86C231.887 143.089 231.91 143.067 231.91 143.039V142.985C231.91 142.958 231.887 142.936 231.86 142.936Z" fill="#AFCDFB"/>
<path d="M231.583 147.117H229.243L228.823 143.573H231.839L231.583 147.117Z" fill="#9FC1F4"/>
<path d="M231.86 143.42H228.83C228.802 143.42 228.78 143.442 228.78 143.469V143.524C228.78 143.551 228.802 143.573 228.83 143.573H231.86C231.887 143.573 231.91 143.551 231.91 143.524V143.469C231.91 143.442 231.887 143.42 231.86 143.42Z" fill="#AFCDFB"/>
<path d="M231.583 147.643H229.243L228.823 144.098H231.839L231.583 147.643Z" fill="#9FC1F4"/>
<path d="M231.86 143.946H228.83C228.802 143.946 228.78 143.968 228.78 143.995V144.049C228.78 144.076 228.802 144.098 228.83 144.098H231.86C231.887 144.098 231.91 144.076 231.91 144.049V143.995C231.91 143.968 231.887 143.946 231.86 143.946Z" fill="#AFCDFB"/>
<path d="M231.583 148.33H229.243L228.823 144.785H231.839L231.583 148.33Z" fill="#9FC1F4"/>
<path d="M231.86 144.632H228.83C228.802 144.632 228.78 144.654 228.78 144.682V144.736C228.78 144.763 228.802 144.785 228.83 144.785H231.86C231.887 144.785 231.91 144.763 231.91 144.736V144.682C231.91 144.654 231.887 144.632 231.86 144.632Z" fill="#AFCDFB"/>
<path d="M228.823 145.29L229.243 148.834H231.583L231.839 145.29H228.823Z" fill="#9FC1F4"/>
<path d="M231.86 145.137H228.83C228.802 145.137 228.78 145.159 228.78 145.187V145.241C228.78 145.268 228.802 145.29 228.83 145.29H231.86C231.887 145.29 231.91 145.268 231.91 145.241V145.187C231.91 145.159 231.887 145.137 231.86 145.137Z" fill="#AFCDFB"/>
<path d="M240.255 146.633H237.916L237.495 143.087H240.511L240.255 146.633Z" fill="#9FC1F4"/>
<path d="M240.532 142.936H237.502C237.474 142.936 237.451 142.958 237.451 142.985V143.039C237.451 143.067 237.474 143.089 237.502 143.089H240.532C240.559 143.089 240.582 143.067 240.582 143.039V142.985C240.582 142.958 240.559 142.936 240.532 142.936Z" fill="#AFCDFB"/>
<path d="M240.255 147.117H237.916L237.495 143.573H240.511L240.255 147.117Z" fill="#9FC1F4"/>
<path d="M240.532 143.42H237.502C237.474 143.42 237.451 143.442 237.451 143.469V143.524C237.451 143.551 237.474 143.573 237.502 143.573H240.532C240.559 143.573 240.582 143.551 240.582 143.524V143.469C240.582 143.442 240.559 143.42 240.532 143.42Z" fill="#AFCDFB"/>
<path d="M240.255 147.643H237.916L237.495 144.098H240.511L240.255 147.643Z" fill="#9FC1F4"/>
<path d="M240.532 143.946H237.502C237.474 143.946 237.451 143.968 237.451 143.995V144.049C237.451 144.076 237.474 144.098 237.502 144.098H240.532C240.559 144.098 240.582 144.076 240.582 144.049V143.995C240.582 143.968 240.559 143.946 240.532 143.946Z" fill="#AFCDFB"/>
<path d="M240.255 148.33H237.916L237.495 144.785H240.511L240.255 148.33Z" fill="#9FC1F4"/>
<path d="M240.532 144.632H237.502C237.474 144.632 237.451 144.654 237.451 144.682V144.736C237.451 144.763 237.474 144.785 237.502 144.785H240.532C240.559 144.785 240.582 144.763 240.582 144.736V144.682C240.582 144.654 240.559 144.632 240.532 144.632Z" fill="#AFCDFB"/>
<path d="M240.255 148.834H237.916L237.495 145.29H240.511L240.255 148.834Z" fill="#9FC1F4"/>
<path d="M240.532 145.137H237.502C237.474 145.137 237.451 145.159 237.451 145.187V145.241C237.451 145.268 237.474 145.29 237.502 145.29H240.532C240.559 145.29 240.582 145.268 240.582 145.241V145.187C240.582 145.159 240.559 145.137 240.532 145.137Z" fill="#AFCDFB"/>
<path d="M239.667 162.141H237.328L236.907 158.596H239.923L239.667 162.141Z" fill="#9FC1F4"/>
<path d="M239.944 158.443H236.913C236.886 158.443 236.863 158.465 236.863 158.493V158.547C236.863 158.574 236.886 158.597 236.913 158.597H239.944C239.971 158.597 239.994 158.574 239.994 158.547V158.493C239.994 158.465 239.971 158.443 239.944 158.443Z" fill="#AFCDFB"/>
<path d="M239.667 162.626H237.328L236.907 159.081H239.923L239.667 162.626Z" fill="#9FC1F4"/>
<path d="M239.944 158.929H236.913C236.886 158.929 236.863 158.951 236.863 158.978V159.033C236.863 159.06 236.886 159.082 236.913 159.082H239.944C239.971 159.082 239.994 159.06 239.994 159.033V158.978C239.994 158.951 239.971 158.929 239.944 158.929Z" fill="#AFCDFB"/>
<path d="M239.667 163.151H237.328L236.907 159.606H239.923L239.667 163.151Z" fill="#9FC1F4"/>
<path d="M239.944 159.454H236.913C236.886 159.454 236.863 159.476 236.863 159.503V159.558C236.863 159.585 236.886 159.607 236.913 159.607H239.944C239.971 159.607 239.994 159.585 239.994 159.558V159.503C239.994 159.476 239.971 159.454 239.944 159.454Z" fill="#AFCDFB"/>
<path d="M239.667 163.838H237.328L236.907 160.293H239.923L239.667 163.838Z" fill="#9FC1F4"/>
<path d="M239.944 160.14H236.913C236.886 160.14 236.863 160.162 236.863 160.189V160.244C236.863 160.271 236.886 160.293 236.913 160.293H239.944C239.971 160.293 239.994 160.271 239.994 160.244V160.189C239.994 160.162 239.971 160.14 239.944 160.14Z" fill="#AFCDFB"/>
<path d="M239.667 164.343H237.328L236.907 160.798H239.923L239.667 164.343Z" fill="#9FC1F4"/>
<path d="M239.944 160.645H236.913C236.886 160.645 236.863 160.667 236.863 160.694V160.749C236.863 160.776 236.886 160.798 236.913 160.798H239.944C239.971 160.798 239.994 160.776 239.994 160.749V160.694C239.994 160.667 239.971 160.645 239.944 160.645Z" fill="#AFCDFB"/>
<path d="M249.787 153.171C249.548 153.172 249.319 153.266 249.15 153.433C248.981 153.599 248.886 153.824 248.885 154.06V161.682C248.886 161.917 248.981 162.143 249.15 162.309C249.319 162.476 249.548 162.569 249.787 162.57C250.027 162.569 250.256 162.476 250.425 162.309C250.594 162.143 250.689 161.917 250.69 161.682V154.06C250.689 153.824 250.594 153.599 250.425 153.433C250.256 153.266 250.027 153.172 249.787 153.171Z" fill="#6488D3"/>
<path d="M243.94 153.171C243.701 153.172 243.472 153.266 243.303 153.433C243.134 153.599 243.039 153.824 243.038 154.06V161.682C243.046 161.912 243.145 162.13 243.313 162.291C243.481 162.451 243.707 162.541 243.941 162.541C244.175 162.541 244.4 162.451 244.569 162.291C244.737 162.13 244.836 161.912 244.844 161.682V154.06C244.843 153.824 244.747 153.599 244.578 153.432C244.409 153.266 244.179 153.172 243.94 153.171Z" fill="#6488D3"/>
<path d="M214.048 153.171C213.809 153.172 213.58 153.266 213.411 153.433C213.242 153.599 213.147 153.824 213.146 154.06V161.682C213.146 161.917 213.241 162.143 213.41 162.31C213.579 162.476 213.809 162.57 214.048 162.57C214.288 162.57 214.517 162.476 214.686 162.31C214.856 162.143 214.951 161.917 214.951 161.682V154.06C214.95 153.824 214.855 153.599 214.686 153.433C214.516 153.266 214.287 153.172 214.048 153.171Z" fill="#6488D3"/>
<path d="M208.201 153.171C207.962 153.172 207.733 153.266 207.564 153.433C207.395 153.599 207.299 153.824 207.298 154.06V161.682C207.299 161.917 207.394 162.143 207.563 162.309C207.733 162.476 207.962 162.569 208.201 162.57C208.44 162.569 208.67 162.476 208.839 162.309C209.008 162.143 209.104 161.917 209.104 161.682V154.06C209.103 153.824 209.008 153.599 208.838 153.432C208.669 153.266 208.44 153.172 208.201 153.171Z" fill="#6488D3"/>
<path d="M252.39 147.414H214.687C214.357 147.414 214.09 147.677 214.09 148.002V154.154C214.09 154.479 214.357 154.743 214.687 154.743H252.39C252.721 154.743 252.988 154.479 252.988 154.154V148.002C252.988 147.677 252.721 147.414 252.39 147.414Z" fill="#6488D3"/>
<path d="M241.786 147.414H204.083C203.753 147.414 203.485 147.677 203.485 148.002V154.154C203.485 154.479 203.753 154.743 204.083 154.743H241.786C242.116 154.743 242.384 154.479 242.384 154.154V148.002C242.384 147.677 242.116 147.414 241.786 147.414Z" fill="#9FC1F4"/>
<path d="M240.845 161.998H205.024C204.174 161.998 203.485 162.676 203.485 163.513V209.086C203.485 209.922 204.174 210.6 205.024 210.6H240.845C241.695 210.6 242.384 209.922 242.384 209.086V163.513C242.384 162.676 241.695 161.998 240.845 161.998Z" fill="#9FC1F4"/>
<path d="M308.064 214.973H40.4097C40.2361 214.973 40.0953 215.111 40.0953 215.282V215.412C40.0953 215.583 40.2361 215.722 40.4097 215.722H308.064C308.237 215.722 308.378 215.583 308.378 215.412V215.282C308.378 215.111 308.237 214.973 308.064 214.973Z" fill="#2E3552"/>
<path d="M244.223 144.518L244.402 144.752L243.828 145.178L244.021 145.43L244.595 145.003L244.758 145.213L252.599 139.392C252.693 139.322 252.755 139.219 252.771 139.104C252.788 138.989 252.757 138.873 252.687 138.781C252.651 138.735 252.607 138.696 252.557 138.667C252.507 138.638 252.451 138.619 252.393 138.611C252.336 138.603 252.277 138.606 252.22 138.62C252.164 138.635 252.111 138.66 252.064 138.695L244.223 144.518Z" fill="#EE9849"/>
<path d="M248.982 142.611H248.549L247.961 141.594C247.945 141.566 247.937 141.534 247.937 141.501C247.937 141.469 247.946 141.437 247.962 141.409C247.979 141.381 248.002 141.358 248.031 141.342C248.059 141.326 248.091 141.317 248.124 141.317C248.158 141.317 248.19 141.326 248.219 141.342C248.248 141.359 248.272 141.383 248.288 141.411L248.982 142.611Z" fill="#B64C41"/>
<path d="M182.47 140.467V146.486C182.47 147.194 182.755 147.873 183.264 148.373C183.772 148.874 184.461 149.155 185.18 149.155H189.496L185.493 149.812C184.968 149.899 184.429 149.861 183.921 149.703C183.413 149.544 182.95 149.27 182.571 148.901C182.192 148.533 181.907 148.081 181.739 147.583C181.571 147.085 181.526 146.555 181.607 146.036L182.47 140.467Z" fill="#C5DDF9"/>
<path d="M183.375 140.048C183.375 140.048 188.691 140.134 189.496 139.583C189.496 139.578 188.383 140.953 183.375 140.048Z" fill="#C5DDF9"/>
<path d="M175.619 112.279L181.578 107.244L180.959 105.847H182.149L185.871 100.988L182.149 106.352L181.404 106.142L181.951 107.427L175.619 112.279Z" fill="#C5DDF9"/>
<path d="M174.505 112.148L174.917 108.031L175.73 107.716L175.118 108.145L174.505 112.148Z" fill="#C5DDF9"/>
</svg>
