<svg width="344" height="216" viewBox="0 0 344 216" fill="none" xmlns="http://www.w3.org/2000/svg">
<rect width="344" height="215.885" rx="8" fill="#E0F5D0"/>
<path d="M68.2781 215.698C66.081 215.697 63.9893 214.808 62.6445 213.071C56.4457 205.063 40.4663 179.85 60.0127 152.943C81.0387 123.999 105.555 125.977 123.539 137.723C131.2 142.726 153.286 138.34 172.084 108.888C197.723 68.7229 286.581 93.0829 270.378 154.877C262.933 183.27 291.137 185.685 280.18 211.442C279.029 214.147 276.254 215.759 273.314 215.759L68.2781 215.698Z" fill="#F7FFF1"/>
<path d="M214.075 92.5029H126.613C122.195 92.5029 118.613 96.0847 118.613 100.503V157.38C118.613 161.798 122.195 165.38 126.613 165.38H214.075C218.494 165.38 222.075 161.798 222.075 157.38V100.503C222.075 96.0847 218.494 92.5029 214.075 92.5029Z" fill="#8EB2DD"/>
<path d="M211.654 94.3965H128.749C124.331 94.3965 120.749 97.9782 120.749 102.396V154.688C120.749 159.107 124.331 162.688 128.749 162.688H211.654C216.072 162.688 219.654 159.107 219.654 154.688V102.396C219.654 97.9782 216.072 94.3965 211.654 94.3965Z" fill="#AFCDFB"/>
<path d="M106.25 176.116C114.281 168.214 114.281 155.401 106.25 147.498C98.2184 139.595 85.1967 139.595 77.1652 147.498C69.1336 155.401 69.1336 168.214 77.1652 176.116C85.1967 184.019 98.2184 184.019 106.25 176.116Z" fill="white"/>
<path d="M91.7307 182.897C91.1199 182.897 90.5009 182.87 89.891 182.819C84.3862 182.358 79.2751 179.823 75.624 175.743C71.9729 171.663 70.0639 166.353 70.2955 160.922C70.527 155.491 72.8811 150.357 76.8665 146.592C80.852 142.828 86.161 140.723 91.6856 140.717C92.2964 140.717 92.9155 140.743 93.5253 140.794C99.0322 141.252 104.146 143.786 107.8 147.867C111.453 151.947 113.363 157.258 113.132 162.691C112.9 168.124 110.544 173.26 106.557 177.025C102.569 180.79 97.2573 182.893 91.7307 182.897ZMnan nanL91.6838 142.421C81.5507 142.421 72.9382 150.214 72.0781 160.161C71.6348 165.284 73.2777 170.37 76.6455 174.301C80.0134 178.232 84.8302 180.685 90.0364 181.122C90.5993 181.169 91.1687 181.192 91.7307 181.192C101.864 181.192 110.476 173.399 111.336 163.452C112.258 152.801 104.202 143.401 93.3782 142.496C92.8152 142.445 92.2458 142.421 91.6838 142.421Lnan nanZ" fill="#2A4E96"/>
<path d="M93.43 160.321C93.4272 158.512 90.8173 158.256 90.4625 160.029C90.2869 160.906 90.9147 161.741 91.8064 161.816C92.6812 161.889 93.4314 161.198 93.43 160.321Z" fill="#CFDCE5"/>
<path d="M90.1356 163.307C90.1384 165.115 92.7484 165.372 93.1031 163.599C93.2787 162.721 92.651 161.887 91.7592 161.812C90.8845 161.738 90.1342 162.429 90.1356 163.307Z" fill="#CFDCE5"/>
<path d="M93.2778 163.199C95.0687 163.197 95.3151 160.608 93.5569 160.268C92.6945 160.101 91.8774 160.717 91.8018 161.593C91.727 162.458 92.4097 163.201 93.2778 163.199Z" fill="#CFDCE5"/>
<path d="M90.3283 159.957C88.5375 159.96 88.2911 162.549 90.0492 162.889C90.9116 163.056 91.7287 162.439 91.8044 161.564C91.8791 160.699 91.1965 159.956 90.3283 159.957Z" fill="#CFDCE5"/>
<path d="M101.636 172.089L92.8554 161.637C92.5702 161.297 92.0592 161.265 91.7337 161.566C91.4041 161.871 91.4009 162.391 91.7268 162.7L101.636 172.089Z" fill="#CFDCE5"/>
<path d="M81.8193 151.054L90.6008 161.506C90.8859 161.845 91.3969 161.878 91.7224 161.577C92.052 161.272 92.0552 160.752 91.7292 160.443L81.8193 151.054Z" fill="#CFDCE5"/>
<path d="M81.4368 171.355L92.0419 162.728C92.3928 162.443 92.4259 161.919 92.1136 161.592C91.8108 161.274 91.3053 161.271 90.9986 161.585L81.4368 171.355Z" fill="#CFDCE5"/>
<path d="M102.816 151.856L92.2109 160.482C91.86 160.767 91.8269 161.291 92.1392 161.618C92.442 161.936 92.9474 161.939 93.2542 161.625L102.816 151.856Z" fill="#CFDCE5"/>
<path d="M93.7336 160.751C94.156 158.995 91.6813 158.133 90.921 159.771C90.5431 160.586 90.9625 161.547 91.8165 161.825C92.6462 162.094 93.5296 161.599 93.7336 160.751Z" fill="#699FF0"/>
<path d="M89.8319 162.876C89.4094 164.633 91.884 165.495 92.6444 163.856C93.0223 163.042 92.6029 162.08 91.7489 161.803C90.9192 161.533 90.0358 162.028 89.8319 162.876Z" fill="#C65447"/>
<path d="Mnan nanL90.5387 161.414C90.6201 161.172 90.7725 160.959 90.9768 160.803C91.1811 160.646 91.4279 160.552 91.6862 160.534C91.9445 160.515 92.2027 160.572 92.428 160.698C92.6533 160.823 92.8357 161.012 92.9522 161.24C93.0686 161.467 93.1139 161.724 93.0822 161.977C93.0505 162.23 92.9434 162.468 92.7743 162.661C92.6052 162.854 92.3817 162.993 92.1321 163.061C91.8825 163.129 91.618 163.123 91.3721 163.043C91.2085 162.99 91.0571 162.906 90.9267 162.796C90.7962 162.685 90.6892 162.55 90.6118 162.399C90.5344 162.247 90.4881 162.083 90.4755 161.914C90.463 161.745 90.4844 161.575 90.5387 161.414Lnan nanZ" fill="white"/>
<path d="M190.507 198.371C190.407 197.219 189.892 196.147 189.402 195.1C188.845 193.91 188.518 192.238 190.055 190.957C190.128 190.896 190.094 190.909 190.176 190.861C191.694 189.971 192.761 191.506 192.275 193.196C192.142 193.655 192.129 194.004 192.333 194.107C192.801 194.345 193.558 192.637 194.09 191.227C194.488 190.171 194.604 189.46 195.731 189.393C197.801 189.27 198.825 191.044 197.759 192.823C197.632 193.034 197.62 193.178 197.779 193.215C198.15 193.3 199.19 192.741 200.247 192.082C202.075 190.942 204.415 190.145 206.136 191.441C206.817 191.954 207.317 192.655 207.234 193.595C206.997 196.256 205.469 197.079 204.798 197.008C204.126 196.938 200.199 195.461 200.112 196.003C199.812 197.882 201.957 200.651 200.079 200.953C199.649 201.023 199.228 200.991 198.844 200.81C196.768 199.83 196.589 198.275 195.294 197.697C193.999 197.119 192.893 197.116 193.428 197.71C193.962 198.304 196.307 198.88 197.047 200.17C197.788 201.46 198.452 202.328 196.302 202.01C194.152 201.692 190.659 200.144 190.507 198.371Z" fill="#82B378"/>
<path d="M193.617 195.35C194.104 195.164 194.044 194.627 193.545 194.78C192.184 195.196 191.051 195.761 190.409 196.529C190.37 196.575 190.343 196.627 190.321 196.683C190.179 197.046 189.536 198.518 187.985 199.883C187.966 199.901 187.95 199.923 187.941 199.948C187.88 200.11 188.091 200.246 188.215 200.126C188.287 200.056 188.364 199.982 188.445 199.905C188.646 199.716 191.562 196.433 191.788 196.276C192.232 195.966 192.826 195.65 193.617 195.35Z" fill="#82B378"/>
<path d="M188.186 199.779C188.03 199.862 187.884 199.96 187.749 200.076C187.152 200.587 185.447 202.265 185.213 204.903C185.2 205.041 185.305 205.161 185.443 205.173C185.57 205.184 185.686 205.102 185.719 204.979C185.926 204.202 186.714 201.515 187.981 200.358C189.079 199.356 188.544 199.588 188.186 199.779Z" fill="#82B378"/>
<path d="M178.762 194.102C179.354 192.857 180.371 191.871 181.352 190.902C182.467 189.801 183.529 188.072 182.355 186.028C182.298 185.927 182.331 185.956 182.257 185.867C180.929 184.258 179.107 185.533 178.952 187.613C178.909 188.183 178.78 188.582 178.508 188.616C177.89 188.692 177.755 186.508 177.747 184.729C177.741 183.377 177.897 182.521 176.656 181.987C174.403 181.019 172.546 182.586 172.994 184.996C173.047 185.283 173.001 185.449 172.806 185.424C172.298 185.36 171.181 184.039 170.175 182.71C168.865 180.979 166.958 179.53 164.827 179.942C163.624 180.175 162.476 180.75 162.118 182.046C161.271 185.106 162.636 186.636 163.413 186.827C164.19 187.018 169.179 186.955 169.049 187.592C168.594 189.826 165.063 192.065 167.071 193.144C167.51 193.38 167.977 193.505 168.466 193.459C171.186 193.204 172.029 191.546 173.709 191.42C175.388 191.293 176.624 191.738 175.782 192.184C174.94 192.631 172.089 192.33 170.728 193.469C169.368 194.607 168.267 195.308 170.794 195.822C173.321 196.336 177.855 196.013 178.762 194.102Z" fill="#A8D29F"/>
<path d="M178.951 192.955C178.839 192.145 179.376 191.33 179.646 192.102C179.67 192.17 179.675 192.225 179.676 192.297C179.683 192.761 179.789 194.657 180.948 196.799C180.964 196.827 180.972 196.859 180.972 196.891C180.972 197.097 180.68 197.161 180.591 196.976C180.13 196.016 179.352 194.514 178.826 194.138C178.788 194.112 178.781 194.084 178.803 194.044C178.875 193.909 179.032 193.539 178.951 192.955Z" fill="#82B378"/>
<path d="M180.762 196.599C180.904 196.758 181.028 196.929 181.132 197.115C181.587 197.931 182.784 200.484 181.953 203.513C181.91 203.67 181.747 203.76 181.589 203.718C181.442 203.679 181.345 203.539 181.36 203.387C181.452 202.434 181.69 199.129 180.758 197.333C179.952 195.78 180.443 196.243 180.762 196.599Z" fill="#82B378"/>
<path d="M188.509 190.837C187.791 189.316 186.56 188.104 185.339 186.946C183.818 185.504 182.269 183.162 183.867 180.378C183.943 180.246 183.9 180.284 183.997 180.166C185.749 178.045 188.151 179.726 188.355 182.47C188.411 183.221 188.582 183.747 188.941 183.791C189.754 183.89 189.932 181.013 189.943 178.668C189.951 176.886 189.745 175.757 191.382 175.053C194.351 173.777 196.803 175.843 196.209 179.02C196.138 179.4 196.198 179.622 196.455 179.59C197.237 179.494 199.11 177.141 200.568 175.146C201.85 173.393 203.74 172.041 205.905 172.218C207.83 172.376 209.969 173.044 210.545 175.136C211.656 179.169 209.862 181.187 208.837 181.438C207.812 181.69 201.237 181.607 201.408 182.447C202.007 185.385 206.654 188.338 204.015 189.76C203.435 190.072 202.817 190.238 202.172 190.177C198.585 189.841 197.475 187.656 195.255 187.488C193.034 187.32 191.412 187.908 192.523 188.496C193.633 189.085 197.39 188.689 199.183 190.19C200.977 191.691 202.429 192.614 199.098 193.286C195.767 193.959 189.79 193.538 188.594 191.017L188.509 190.837Z" fill="#A8D29F"/>
<path d="M188.355 189.506C188.502 188.439 187.795 187.365 187.439 188.381C187.407 188.471 187.402 188.544 187.4 188.639C187.39 189.25 187.251 191.75 185.723 194.574C185.703 194.611 185.692 194.652 185.692 194.694C185.692 194.966 186.076 195.051 186.194 194.806C186.768 193.609 187.719 191.77 188.407 191.157C188.522 191.054 188.548 190.954 188.488 190.811C188.389 190.574 188.268 190.134 188.355 189.506Z" fill="#82B378"/>
<path d="M185.926 194.359C185.769 194.537 185.629 194.729 185.512 194.936C184.938 195.948 183.283 199.361 184.398 203.424C184.454 203.631 184.67 203.75 184.878 203.696C185.073 203.644 185.2 203.458 185.181 203.258C185.059 202.001 184.745 197.646 185.974 195.279C187.074 193.162 186.341 193.888 185.926 194.359Z" fill="#82B378"/>
<path d="Mnan nanL187.187 214.701C190.515 214.701 193.706 213.4 196.059 211.085C196.471 210.679 196.852 210.247 197.2 209.794C199.89 206.289 196.152 202.356 191.733 202.356H182.642C178.223 202.356 174.485 206.289 177.175 209.794C177.523 210.247 177.904 210.679 178.316 211.085C180.669 213.4 183.86 214.701 187.187 214.701Lnan nanZ" fill="#F99746"/>
<path d="Mnan nanL183.482 214.607C185.247 214.822 187.039 214.666 188.738 214.149C190.437 213.633 192.006 212.766 193.339 211.608C194.673 210.45 195.741 209.026 196.473 207.431C196.987 206.311 197.327 205.124 197.485 203.911C197.596 203.057 196.888 202.356 196.027 202.356C195.166 202.356 194.479 203.056 194.369 203.91C194.054 206.353 193.001 208.661 191.329 210.525C189.306 212.781 186.516 214.232 183.482 214.607Lnan nanZ" fill="#FFAC6E"/>
<path d="Mnan nanL199.906 215.329H175.067C174.736 215.329 174.458 215.05 174.586 214.746C174.664 214.561 174.778 214.393 174.922 214.252C175.066 214.11 175.236 213.998 175.424 213.922C175.612 213.845 175.813 213.806 176.017 213.806H198.358C198.561 213.806 198.762 213.845 198.95 213.922C199.138 213.998 199.309 214.11 199.453 214.252C199.596 214.393 199.71 214.561 199.788 214.746C199.866 214.931 199.906 215.129 199.906 215.329Lnan nanZ" fill="#ED7D2B"/>
<path d="M199.829 202.356H174.419C174.314 202.356 174.229 202.441 174.229 202.545C174.229 202.65 174.314 202.734 174.419 202.734H199.829C199.934 202.734 200.018 202.65 200.018 202.545C200.018 202.441 199.934 202.356 199.829 202.356Z" fill="#ED7D2B"/>
<path d="M139.382 176.074C139.165 176.492 139.422 176.999 139.887 177.071L142.912 177.539C144.331 177.759 145.069 175.908 143.888 175.091L143.097 174.544C142.704 174.271 142.159 174.476 142.042 174.94C141.976 175.205 141.758 175.405 141.488 175.449L139.881 175.712C139.667 175.747 139.482 175.881 139.382 176.074Z" fill="#CA5F00"/>
<path d="M140.134 175.895C141.155 176.197 141.736 174.766 140.793 174.27C140.684 174.213 140.563 174.179 140.44 174.171C139.392 174.104 139.127 175.597 140.134 175.895Z" fill="#F99746"/>
<path d="M142.868 173.037C142.541 173.566 142.685 174.259 143.197 174.613C144.276 175.359 145.576 174.036 144.812 172.971C144.326 172.292 143.307 172.327 142.868 173.037Z" fill="#F99746"/>
<path d="M145.843 94.5708H128.893C124.475 94.5708 120.893 98.1525 120.893 102.571V109.282C120.893 113.7 124.475 117.282 128.893 117.282H145.843C150.261 117.282 153.843 113.7 153.843 109.282V102.571C153.843 98.1525 150.261 94.5708 145.843 94.5708Z" fill="#BCD3F2"/>
<path d="M178.793 94.5708H161.843C157.424 94.5708 153.843 98.1525 153.843 102.571V109.282C153.843 113.7 157.424 117.282 161.843 117.282H178.793C183.211 117.282 186.793 113.7 186.793 109.282V102.571C186.793 98.1525 183.211 94.5708 178.793 94.5708Z" fill="#C0D7F5"/>
<path d="M211.797 94.5708H194.847C190.429 94.5708 186.847 98.1525 186.847 102.571V109.282C186.847 113.7 190.429 117.282 194.847 117.282H211.797C216.215 117.282 219.797 113.7 219.797 109.282V102.571C219.797 98.1525 216.215 94.5708 211.797 94.5708Z" fill="#C7DDFA"/>
<path d="M145.843 139.944H128.893C124.475 139.944 120.893 143.526 120.893 147.944V154.655C120.893 159.073 124.475 162.655 128.893 162.655H145.843C150.261 162.655 153.843 159.073 153.843 154.655V147.944C153.843 143.526 150.261 139.944 145.843 139.944Z" fill="#BCD3F2"/>
<path d="M178.793 139.944H161.843C157.424 139.944 153.843 143.526 153.843 147.944V154.655C153.843 159.073 157.424 162.655 161.843 162.655H178.793C183.211 162.655 186.793 159.073 186.793 154.655V147.944C186.793 143.526 183.211 139.944 178.793 139.944Z" fill="#C0D7F5"/>
<path d="M211.797 139.944H194.847C190.429 139.944 186.847 143.526 186.847 147.944V154.655C186.847 159.073 190.429 162.655 194.847 162.655H211.797C216.215 162.655 219.797 159.073 219.797 154.655V147.944C219.797 143.526 216.215 139.944 211.797 139.944Z" fill="#C7DDFA"/>
<path d="M194.847 139.781H211.797C216.215 139.781 219.797 136.199 219.797 131.781V125.07C219.797 120.652 216.215 117.07 211.797 117.07H194.847C190.429 117.07 186.847 120.652 186.847 125.07V131.781C186.847 136.199 190.429 139.781 194.847 139.781Z" fill="#BCD3F2"/>
<path d="M161.897 139.781H178.847C183.265 139.781 186.847 136.199 186.847 131.781V125.07C186.847 120.652 183.265 117.07 178.847 117.07H161.897C157.479 117.07 153.897 120.652 153.897 125.07V131.781C153.897 136.199 157.479 139.781 161.897 139.781Z" fill="#C0D7F5"/>
<path d="M128.893 139.781H145.843C150.261 139.781 153.843 136.199 153.843 131.781V125.07C153.843 120.652 150.261 117.07 145.843 117.07H128.893C124.475 117.07 120.893 120.652 120.893 125.07V131.781C120.893 136.199 124.475 139.781 128.893 139.781Z" fill="#C7DDFA"/>
<path d="M207.918 141.244C206.393 140.038 205.213 141.323 203.364 141.925C203.035 142.032 202.66 142.092 202.233 142.081C199.796 142.018 199.54 144.353 199.668 146.121C199.796 147.888 200.053 149.213 202.041 148.645C204.029 148.078 204.414 147.635 206.21 149.528C208.005 151.422 211.213 148.582 211.021 146.813C210.828 145.045 210.315 142.079 208.905 141.764C208.551 141.685 208.225 141.487 207.918 141.244Z" fill="#699FF0"/>
<path d="M207.404 138.486C206.931 138.442 206.524 139.04 206.43 139.888C206.336 140.736 205.662 141.24 205.917 141.813C206.173 142.386 206.866 141.928 207.404 142.054C209.412 142.525 208.698 140.95 208.488 140.263C208.279 139.576 208.725 138.612 207.404 138.486Z" fill="#A8D29F"/>
<path d="M207.404 140.217L207.203 143.049C207.195 143.162 207.284 143.258 207.398 143.258C207.511 143.258 207.601 143.163 207.593 143.05L207.404 140.217Z" fill="#AFCDFB"/>
<path d="M203.261 139.538C202.788 139.494 202.38 140.092 202.287 140.94C202.193 141.788 201.519 142.292 201.774 142.866C202.03 143.44 202.723 142.98 203.261 143.106C205.269 143.577 204.555 142.003 204.345 141.315C204.136 140.627 204.582 139.664 203.261 139.538Z" fill="#A8D29F"/>
<path d="M203.261 141.269L203.06 144.101C203.052 144.214 203.141 144.31 203.255 144.31C203.368 144.31 203.458 144.214 203.45 144.101L203.261 141.269Z" fill="#AFCDFB"/>
<path d="M140.084 106.548C139.916 106.547 139.746 106.563 139.578 106.574C138.691 106.631 135.706 106.689 134.89 104.976C133.928 102.957 130.336 104.007 129.887 105.785C129.438 107.564 126.103 109.52 127.128 110.971C128.152 112.423 133.285 110.214 133.734 111.981C134.183 113.747 133.734 115.199 135.337 117.282C136.941 119.365 134.183 121.195 135.081 124.35C135.978 127.505 140.853 129.525 142.072 128.2C143.29 126.875 141.879 124.67 143.804 123.908C145.728 123.146 150.151 121.826 150.538 119.428C150.925 117.029 151.243 112.802 148.549 113.369C145.855 113.937 142.264 114.758 142.648 112.991C143.024 111.263 143.772 106.577 140.084 106.548Z" fill="#699FF0"/>
<path d="M174.682 126.487C174.356 126.222 173.898 126.382 173.48 126.416C172.709 126.48 171.417 126.447 170.768 125.638C169.806 124.439 168.008 124.944 166.792 125.638C165.575 126.332 162.174 128.162 163.007 130.812C163.841 133.462 165.509 135.483 167.882 135.167C170.256 134.851 171.988 136.615 171.218 138.259C170.448 139.904 170.64 142.109 171.923 143.813C173.207 145.518 175.067 148.42 176.862 146.653C178.658 144.885 179.299 142.992 180.646 141.478C181.994 139.964 180.39 136.555 181.352 135.546C182.314 134.537 182.313 132.831 179.684 132.453C177.426 132.129 175.9 127.475 174.682 126.487Z" fill="#699FF0"/>
<path d="M157.108 137.151C156.824 136.927 156.414 137.015 156.053 137.021C155.158 137.036 153.427 136.945 153.007 136.059C152.434 134.85 150.698 132.011 148.197 132.58C145.696 133.148 142.676 134.351 142.808 135.799C142.941 137.247 146.079 142.044 145.182 144.319C144.284 146.593 148.769 155.741 150.569 154.1C152.369 152.459 150.697 149.368 152.236 148.168C153.775 146.969 153.583 141.605 154.481 141.226C155.281 140.889 158.025 137.875 157.108 137.151Z" fill="#699FF0"/>
<path d="Mnan nanL160.469 105.813C160.153 105.813 159.841 105.875 159.549 105.994C159.257 106.113 158.992 106.287 158.768 106.507C158.545 106.726 158.368 106.987 158.247 107.275C158.126 107.562 158.064 107.87 158.064 108.18C158.064 110.729 162.876 110.729 162.876 108.18C162.875 107.553 162.622 106.95 162.17 106.507C161.719 106.063 161.107 105.813 160.469 105.813Lnan nanZMnan nanL160.469 109.263C160.247 109.263 160.029 109.198 159.844 109.076C159.659 108.955 159.515 108.782 159.43 108.579C159.345 108.377 159.322 108.154 159.366 107.94C159.409 107.725 159.517 107.528 159.674 107.373C159.832 107.218 160.032 107.113 160.25 107.07C160.469 107.027 160.695 107.05 160.9 107.133C161.106 107.217 161.282 107.359 161.405 107.542C161.529 107.724 161.594 107.938 161.594 108.157C161.594 108.302 161.565 108.446 161.509 108.58C161.452 108.715 161.369 108.836 161.265 108.939C161.16 109.042 161.036 109.123 160.9 109.179C160.763 109.234 160.617 109.263 160.469 109.263Lnan nanZ" fill="#F1A34F"/>
<path d="M175.506 141.073C175.095 141.073 174.701 141.234 174.411 141.52C174.12 141.806 173.957 142.194 173.957 142.598C173.957 144.24 177.056 144.24 177.056 142.598C177.056 142.194 176.893 141.806 176.602 141.52C176.311 141.234 175.917 141.073 175.506 141.073ZMnan nanL175.506 143.295C175.363 143.295 175.222 143.253 175.103 143.175C174.984 143.097 174.891 142.985 174.836 142.855C174.781 142.724 174.767 142.581 174.795 142.443C174.823 142.304 174.892 142.177 174.994 142.077C175.095 141.978 175.225 141.91 175.365 141.882C175.506 141.855 175.652 141.869 175.784 141.923C175.917 141.978 176.03 142.069 176.109 142.186C176.189 142.304 176.231 142.442 176.231 142.583C176.231 142.772 176.154 142.953 176.018 143.087C175.882 143.22 175.698 143.295 175.506 143.295Lnan nanZ" fill="#F1A34F"/>
<path d="M149.451 99.4922C149.075 99.5429 148.852 99.9166 148.6 100.201C148.081 100.788 147.04 101.789 145.753 102.095C143.893 102.536 142.225 103.861 143.444 105.124C144.663 106.387 145.047 108.858 147.292 109.263C149.536 109.668 152.359 104.43 152.295 103.168C152.239 102.066 150.649 99.3306 149.451 99.4922Z" fill="#EBF3FA"/>
<path d="Mnan nanL139.98 114.465C139.342 114.465 138.73 114.715 138.278 115.159C137.827 115.603 137.573 116.205 137.573 116.833C137.573 119.381 142.385 119.381 142.385 116.833C142.385 116.205 142.132 115.603 141.681 115.159C141.23 114.715 140.618 114.466 139.98 114.465Lnan nanZMnan nanL139.98 117.915C139.757 117.915 139.54 117.85 139.354 117.729C139.169 117.607 139.025 117.434 138.94 117.232C138.854 117.029 138.832 116.807 138.875 116.592C138.919 116.377 139.026 116.18 139.183 116.025C139.341 115.87 139.541 115.765 139.76 115.722C139.978 115.679 140.204 115.701 140.41 115.785C140.615 115.869 140.791 116.011 140.915 116.193C141.038 116.375 141.104 116.59 141.104 116.809C141.104 117.102 140.985 117.383 140.775 117.591C140.564 117.798 140.278 117.915 139.98 117.915Lnan nanZ" fill="#F1A34F"/>
<path d="M197.362 103.613C196.322 103.697 195.366 104.212 194.423 104.658C193.268 105.205 191.547 105.755 189.923 105.26C187.133 104.408 183.959 109.614 182.13 109.993C180.302 110.371 176.455 114.631 174.723 112.738C172.991 110.844 167.026 114.542 168.181 116.243C169.335 117.944 162.309 122.675 164.522 123.434C166.734 124.194 174.334 120.595 175.1 123.434C175.865 126.274 177.215 131.007 180.681 129.777C184.146 128.547 188.088 128 188.569 129.977C189.05 131.954 189.916 134.412 191.359 133.374C192.802 132.336 194.341 128.83 195.784 129.871C197.228 130.912 203.962 126.937 203.673 123.908C203.398 121.02 207.322 102.801 197.362 103.613Z" fill="#699FF0"/>
<path d="M176.989 105.141C176.934 105.478 176.566 105.665 176.261 105.51L174.28 104.506C173.344 104.032 173.696 102.619 174.744 102.638L175.472 102.652C175.819 102.659 176.051 103.013 175.917 103.334C175.84 103.518 175.882 103.73 176.022 103.871L176.848 104.703C176.963 104.818 177.015 104.981 176.989 105.141Z" fill="#CA5F00"/>
<path d="M176.647 104.716C175.911 104.461 176.177 103.361 176.948 103.469C177.038 103.482 177.124 103.513 177.201 103.562C177.851 103.969 177.372 104.968 176.647 104.716Z" fill="#F99746"/>
<path d="M176.265 101.875C176.226 102.32 175.849 102.659 175.402 102.651C174.446 102.633 174.243 101.295 175.15 100.994C175.73 100.802 176.317 101.266 176.265 101.875Z" fill="#F99746"/>
<path d="M190.849 120.269C191.506 121.692 190.457 123.314 188.891 123.299C187.286 123.284 186.271 121.572 187.028 120.157L188.222 117.923C188.562 117.286 189.484 117.313 189.787 117.968L189.934 118.286L190.849 120.269Z" fill="#AFCDFB"/>
<path d="M189.666 117.706C189.783 117.959 189.6 118.096 189.323 118.124C189.006 118.156 188.795 118.424 188.601 118.124C188.481 117.938 188.324 117.73 188.429 117.535L188.548 117.311C188.754 116.925 189.312 116.941 189.496 117.338L189.666 117.706Z" fill="#E9F3FE"/>
<path d="M187.317 121.003C187.816 122.084 187.019 123.317 185.829 123.306C184.609 123.295 183.837 121.993 184.412 120.918L185.32 119.219C185.579 118.735 186.28 118.756 186.51 119.254L186.622 119.496L187.317 121.003Z" fill="#AFCDFB"/>
<path d="M186.42 119.058C186.508 119.249 186.371 119.351 186.162 119.372C185.921 119.396 185.761 119.6 185.61 119.372C185.504 119.251 185.403 119.067 185.479 118.925L185.586 118.725C185.736 118.445 186.142 118.457 186.276 118.746L186.42 119.058Z" fill="#E9F3FE"/>
<path d="M189.861 110.802C189.787 110.674 189.985 110.509 190.129 110.477C190.308 110.437 190.239 110.22 190.102 110.099C189.944 109.959 189.802 109.794 189.677 109.621C189.393 109.227 188.521 109.227 188.237 109.621C188.112 109.794 187.97 109.959 187.812 110.099C187.675 110.22 187.606 110.437 187.784 110.477C187.929 110.509 188.127 110.674 188.053 110.802C188.045 110.817 188.036 110.832 188.026 110.847C187.89 111.071 188.021 111.652 188.283 111.656C188.433 111.658 188.578 111.65 188.7 111.626C188.86 111.594 189.054 111.594 189.214 111.626C189.336 111.651 189.482 111.659 189.634 111.656C189.896 111.651 190.026 111.073 189.889 110.849C189.879 110.833 189.87 110.817 189.861 110.802Z" fill="#A8D29F"/>
<path d="M189.145 112.07C189.117 111.866 188.82 111.868 188.796 112.073C188.783 112.178 188.865 112.271 188.971 112.271C189.078 112.271 189.16 112.176 189.145 112.07Z" fill="#A9453D"/>
<path d="M192.566 112.88C192.491 112.752 192.69 112.587 192.835 112.555C193.013 112.515 192.944 112.298 192.807 112.177C192.649 112.037 192.508 111.872 192.383 111.699C192.098 111.305 191.226 111.305 190.942 111.699C190.817 111.872 190.675 112.037 190.517 112.177C190.38 112.298 190.311 112.515 190.489 112.555C190.634 112.587 190.832 112.752 190.758 112.88C190.75 112.895 190.741 112.91 190.731 112.925C190.595 113.149 190.726 113.73 190.988 113.734C191.139 113.737 191.285 113.728 191.408 113.703C191.566 113.671 191.758 113.671 191.917 113.703C192.039 113.728 192.184 113.736 192.335 113.734C192.597 113.73 192.728 113.148 192.592 112.924C192.583 112.909 192.574 112.895 192.566 112.88Z" fill="#A8D29F"/>
<path d="M191.85 114.149C191.822 113.944 191.525 113.947 191.501 114.152C191.488 114.257 191.57 114.349 191.676 114.349C191.783 114.349 191.865 114.255 191.85 114.149Z" fill="#A9453D"/>
<path d="M186.966 113.121C186.892 112.993 187.091 112.828 187.235 112.796C187.413 112.756 187.345 112.539 187.208 112.418C187.049 112.278 186.908 112.113 186.782 111.94C186.498 111.546 185.626 111.546 185.342 111.94C185.217 112.113 185.076 112.278 184.917 112.417C184.781 112.539 184.712 112.756 184.89 112.796C185.035 112.828 185.233 112.993 185.159 113.121C185.15 113.136 185.141 113.151 185.132 113.166C184.996 113.389 185.126 113.971 185.388 113.975C185.54 113.977 185.685 113.969 185.807 113.944C185.966 113.912 186.158 113.912 186.317 113.944C186.44 113.969 186.585 113.977 186.737 113.975C186.999 113.971 187.13 113.389 186.993 113.166C186.984 113.151 186.975 113.136 186.966 113.121Z" fill="#A8D29F"/>
<path d="M186.251 114.39C186.222 114.186 185.926 114.189 185.902 114.394C185.889 114.499 185.971 114.591 186.077 114.591C186.184 114.591 186.266 114.496 186.251 114.39Z" fill="#A9453D"/>
<path d="M156.028 128.127C156.462 128.161 156.953 128.055 157.233 127.721C157.347 127.584 157.481 127.433 157.631 127.276C158.132 126.755 158.705 127.01 158.276 127.592C157.894 128.111 156.527 128.889 155.962 128.579C155.876 128.531 155.791 128.487 155.707 128.447C155.28 128.243 155.257 128.142 155.73 128.122C155.826 128.119 155.926 128.119 156.028 128.127Z" fill="#699FF0"/>
<path d="M152.657 127.272C152.912 127.299 153.2 127.238 153.363 127.04C153.439 126.947 153.531 126.843 153.635 126.734C153.953 126.402 154.317 126.564 154.045 126.935C153.803 127.265 152.94 127.759 152.582 127.561C152.574 127.557 152.566 127.552 152.559 127.548C152.266 127.389 152.257 127.247 152.59 127.266C152.613 127.268 152.635 127.27 152.657 127.272Z" fill="#699FF0"/>
<path d="M169.126 152.885C169.024 152.642 168.899 152.286 168.671 152.418C168.532 152.498 168.416 152.566 168.341 152.611C168.28 152.647 168.207 152.659 168.138 152.644C167.238 152.45 166.328 152.314 165.411 152.235C165.113 152.209 165.158 151.639 164.859 151.639C164.146 151.639 163.523 152.147 162.811 152.196C162.295 152.231 161.781 152.296 161.272 152.389C160.671 152.505 159.815 153.214 161.29 153.453C162.569 153.66 164.703 153.689 168.123 153.076C168.202 153.062 168.286 153.071 168.36 153.103L168.754 153.274C168.986 153.374 169.224 153.117 169.126 152.885Z" fill="#699FF0"/>
<path d="M133.383 144.05C133.307 143.87 133.214 143.604 133.044 143.703C132.941 143.762 132.854 143.813 132.798 143.846C132.753 143.873 132.699 143.882 132.647 143.871C131.976 143.726 131.297 143.624 130.613 143.566C130.392 143.547 130.426 143.123 130.203 143.123C129.672 143.123 129.208 143.5 128.678 143.536C128.293 143.563 127.909 143.612 127.529 143.682C127.082 143.767 126.443 144.296 127.543 144.474C128.497 144.629 130.086 144.65 132.635 144.193C132.695 144.182 132.757 144.189 132.813 144.213L133.106 144.34C133.279 144.415 133.457 144.224 133.383 144.05Z" fill="#699FF0"/>
<path d="M136.588 146.978C136.511 146.797 136.418 146.531 136.248 146.63C136.145 146.689 136.059 146.74 136.003 146.773C135.958 146.8 135.904 146.809 135.852 146.798C135.182 146.654 134.503 146.552 133.82 146.493C133.598 146.474 133.631 146.049 133.408 146.049C132.877 146.049 132.414 146.428 131.884 146.464C131.499 146.491 131.115 146.539 130.735 146.609C130.287 146.699 129.649 147.223 130.749 147.402C131.703 147.556 133.292 147.578 135.84 147.12C135.9 147.11 135.962 147.117 136.018 147.141L136.312 147.268C136.485 147.342 136.662 147.151 136.588 146.978Z" fill="#699FF0"/>
<path d="M225.836 125.238C226.165 127.941 226.946 130.923 224.327 131.669C222.913 132.072 220.764 130.779 220.486 129.335C220.422 129.003 220.38 128.669 220.378 128.36C220.378 128.193 220.378 128.033 220.372 127.88C220.354 126.464 221.182 125.153 222.501 124.636C224.016 124.043 225.754 123.383 225.751 123.485C225.738 124.118 225.77 124.703 225.836 125.238Z" fill="#FFB27D"/>
<path d="M225.221 124.464C224.806 125.223 223.568 126.571 221.724 127.405C221.057 127.706 220.349 126.629 220.317 125.898C220.294 125.357 220.675 125.416 221.2 125.283C222.653 124.916 225.335 124.261 225.221 124.464Z" fill="#ED975D"/>
<path d="M218.976 125.246C219.104 125.345 219.267 125.375 219.426 125.405C220.539 125.614 225.239 126.297 225.957 123.073C226.772 119.412 228.088 117.125 224.322 116.091C220.555 115.058 219.504 116.295 218.93 117.449C218.385 118.545 217.732 124.284 218.976 125.246Z" fill="#FFB27D"/>
<path d="M225.753 124.071C225.835 124.122 227.115 124.51 229.541 119.754C229.922 119.008 230.185 117.394 229.294 115.967C228.402 114.541 225.259 113.418 222.644 112.931C220.029 112.443 219.402 113.89 218.788 115.344C218.115 116.94 218.293 118.728 219.972 118.302C220.94 118.057 221.751 117.753 222.186 117.887C223.13 118.178 223.459 119.637 223.53 120.105C223.601 120.573 223.709 120.962 224.892 120.544C225.372 120.375 225.55 120.614 225.58 120.985C225.667 122.052 224.848 123.499 225.753 124.071Z" fill="#A9453D"/>
<path d="M241.879 214.111C240.804 214.342 241.765 215.358 242.864 215.358H244.692C245.447 215.358 246.287 214.613 246.497 213.25C246.706 211.887 248.26 211.143 248.597 210.027C248.839 209.226 248.018 208.19 247.536 207.67C247.327 207.444 247.114 207.221 246.923 206.98C246.739 206.748 246.439 206.643 246.152 206.71L245.258 206.917C244.368 207.123 243.704 207.871 243.657 208.783C243.627 209.397 243.61 210.109 243.645 210.732C243.73 212.22 243.222 213.822 241.879 214.111Z" fill="#2C3A64"/>
<path d="M217.521 214.178C216.489 214.351 216.998 215.358 218.045 215.358H225.338C225.479 215.358 225.623 215.354 225.752 215.299C226.39 214.985 226.191 212.584 226.113 211.84C226.098 211.7 226.028 211.574 225.915 211.491C225.221 210.984 222.666 209.256 222.267 211.003C222.252 211.065 222.235 211.127 222.217 211.184C221.634 213.077 219.027 213.938 217.521 214.178Z" fill="#2C3A64"/>
<path d="M224.706 160.733C220.981 160.961 218.17 164.202 218.469 167.921C218.635 169.987 218.828 172.391 219.031 174.941C219.846 185.169 220.827 197.731 220.923 200.112C221.035 202.857 221.369 206.697 221.581 208.965C221.695 210.188 221.362 210.743 222.446 211.322C224.15 212.233 226.893 210.609 227.368 208.736C228.273 205.16 229.673 198.866 230.204 192.339C230.217 192.175 230.229 192.01 230.242 191.845C230.711 185.539 231.342 174.907 231.753 167.743C231.981 163.766 228.682 160.49 224.706 160.733Z" fill="#2B478B"/>
<path d="M224.709 160.735C220.983 160.962 218.17 164.204 218.469 167.925C218.6 169.55 218.747 171.385 218.903 173.335C218.987 174.389 219.33 175.407 219.901 176.296L229.94 191.926C230.027 192.06 230.233 192.008 230.246 191.849C230.715 185.543 231.345 174.91 231.757 167.747C231.985 163.769 228.686 160.493 224.709 160.735Z" fill="#233862"/>
<path d="M227.437 159.889C223.607 160.956 221.565 165.112 223.116 168.772C226.319 176.332 231.571 188.317 235.494 195.237C238.421 200.399 240.374 203.759 241.61 205.852C242.654 207.618 245.015 208.457 246.646 207.214C247.145 206.833 247.175 206.26 247.097 205.637C246.588 201.548 244.378 185.354 240.849 180.982C238.561 178.147 235.872 169.639 235.746 166.664C235.732 166.324 235.71 165.945 235.682 165.541C235.406 161.465 231.372 158.792 227.437 159.889Z" fill="#2B478B"/>
<path d="M241.75 157.518C241.432 157.67 241.239 158.001 241.263 158.353L241.298 158.875C241.313 159.109 241.276 159.342 241.228 159.571C241.077 160.287 240.963 161.963 242.819 163.012C242.992 163.11 243.174 163.192 243.368 163.233C243.718 163.308 244.271 163.328 244.303 162.718C244.351 161.82 244.201 162.156 244.296 160.892C244.383 159.728 243.962 158.622 243.232 158.139C243.108 158.057 242.985 157.971 242.887 157.859L242.769 157.725C242.514 157.436 242.098 157.351 241.75 157.518Z" fill="#FFB27D"/>
<path d="Mnan nanL242.294 158.832C241.866 158.968 241.589 159.033 241.412 159.064C241.22 159.097 241.064 158.993 240.969 158.822C240.149 157.354 236.107 150.123 235.657 149.396C235.286 148.798 229.709 143.638 226.83 140.992C225.791 140.036 225.371 138.583 225.743 137.221C226.557 134.235 230.42 133.454 232.316 135.901C235.63 140.177 239.636 145.408 240.337 146.595C242.07 149.527 243.188 155.771 243.48 157.55C243.531 157.857 243.44 158.173 243.193 158.362C242.924 158.568 242.62 158.727 242.294 158.832Lnan nanZ" fill="#ED7D2B"/>
<path d="M234.632 161.69C232.115 163.154 229.738 164.24 226.979 164.812C223.709 165.512 219.712 165.214 218.376 165.379C218.237 165.395 218.098 165.36 217.984 165.281C217.886 165.22 217.359 161.251 216.857 156.23C216.844 156.115 216.83 155.993 216.82 155.868C216.814 155.786 216.809 155.705 216.807 155.626L216.798 155.555C216.744 155.034 216.691 154.502 216.642 153.964C216.519 152.624 216.412 151.249 216.313 149.876C216.303 149.745 216.293 149.613 216.285 149.482C216.13 147.267 216.015 145.087 215.98 143.146C215.98 143.099 215.98 143.056 215.98 143.007C215.953 141.382 215.98 139.93 216.085 138.777C216.107 138.534 216.131 138.306 216.162 138.091C216.552 135.179 217.985 133.131 219.33 131.593C220.158 130.668 221.386 130.318 222.612 130.122C223.142 130.036 223.673 129.853 224.232 129.499C225.567 128.657 226.43 127.864 226.7 128.012C228.767 129.202 231.005 132.129 232.128 136.1C232.731 138.239 233.18 140.646 233.461 143.18C233.568 144.153 233.65 145.142 233.708 146.145C234 151.524 234.856 156.119 235.353 158.791C235.495 159.56 235.607 160.171 235.669 160.593C235.728 160.981 234.966 161.496 234.632 161.69Z" fill="#F99746"/>
<path d="M218.162 138.495C221.422 136.717 224.756 139.905 223.7 143.464C222.543 147.362 220.507 152.146 216.989 155.699C216.922 155.767 216.807 155.724 216.805 155.629L216.796 155.558C216.741 155.037 216.688 154.504 216.639 153.967C216.516 152.626 216.409 151.252 216.31 149.878C216.301 149.747 216.291 149.616 216.282 149.485C216.127 147.27 216.013 145.09 215.977 143.149C215.977 143.102 215.977 143.058 215.977 143.01C215.979 142.864 215.981 142.721 215.983 142.579C216.014 140.851 216.645 139.322 218.162 138.495Z" fill="#ED7D2B"/>
<path d="Mnan nanL201.16 160.999L187.778 122.297C187.716 122.116 187.634 121.953 187.813 121.889L187.975 121.83C188.159 121.765 188.211 121.881 188.277 122.06L202.541 160.206C202.607 160.382 202.602 160.575 202.527 160.747C202.453 160.919 202.315 161.057 202.141 161.133L201.811 161.278C201.75 161.304 201.684 161.318 201.617 161.319C201.55 161.319 201.484 161.306 201.423 161.279C201.362 161.253 201.307 161.215 201.261 161.166C201.216 161.118 201.181 161.061 201.16 160.999Lnan nanZ" fill="#2A4E96"/>
<path d="M198.306 144.664C197.989 144.542 197.537 144.141 197.341 143.864C196.913 143.259 196.017 142.53 195.94 142.649C195.766 142.921 195.684 143.106 195.541 142.817C195.248 142.225 194.943 141.486 194.269 141.074C193.974 140.893 192.923 143.731 193.92 144.76C194.867 145.737 195.343 145.683 196.812 146.492C196.971 146.58 197.148 146.634 197.329 146.646L197.393 146.65C197.9 146.684 198.365 146.369 198.522 145.885L198.598 145.648C198.739 145.213 198.732 144.828 198.306 144.664Z" fill="#FFB27D"/>
<path d="M196.944 145.856C196.937 145.748 196.944 145.644 196.963 145.545C197.221 144.202 199.071 144.167 200.433 144.298C203.766 144.619 210.02 145.181 210.735 144.959C211.604 144.69 217.442 136.556 218.77 134.693C218.951 134.439 219.142 134.199 219.364 133.98C220.246 133.111 222.754 130.902 224.881 131.539C227.166 132.222 228.06 133.977 228.364 135.648C228.538 136.623 228.409 137.626 227.995 138.528C227.58 139.429 226.899 140.187 226.041 140.702C222.106 143.076 215.224 149.621 213.369 150.156C210.181 151.076 202.425 148.965 199.055 147.955C198.014 147.643 197.043 146.938 196.944 145.856Z" fill="#F99746"/>
<path d="M213.762 105.513C216.044 104.583 217.128 102.008 216.183 99.763C215.237 97.5176 212.621 96.4513 210.339 97.3814C208.057 98.3115 206.974 100.886 207.919 103.131C208.864 105.376 211.48 106.443 213.762 105.513Z" fill="#E9F3FE"/>
<path d="M212.353 101.121C212.322 100.762 211.798 100.756 211.758 101.115C211.738 101.292 211.877 101.447 212.055 101.447C212.231 101.447 212.369 101.296 212.353 101.121Z" fill="#CFDCE5"/>
<path d="M211.749 101.772C211.781 102.132 212.305 102.138 212.345 101.779C212.365 101.602 212.226 101.447 212.048 101.447C211.872 101.447 211.734 101.597 211.749 101.772Z" fill="#CFDCE5"/>
<path d="M212.372 101.698C212.728 101.668 212.734 101.148 212.378 101.11C212.203 101.091 212.051 101.228 212.051 101.403C212.051 101.577 212.199 101.713 212.372 101.698Z" fill="#CFDCE5"/>
<path d="M211.73 101.102C211.374 101.132 211.368 101.651 211.724 101.69C211.898 101.709 212.051 101.572 212.051 101.396C212.051 101.223 211.903 101.087 211.73 101.102Z" fill="#CFDCE5"/>
<path d="M214.19 103.327L212.261 101.394C212.199 101.331 212.097 101.333 212.037 101.399C211.977 101.465 211.985 101.568 212.055 101.624L214.19 103.327Z" fill="#CFDCE5"/>
<path d="M209.883 99.4712L211.811 101.406C211.874 101.469 211.976 101.466 212.035 101.401C212.096 101.335 212.087 101.231 212.018 101.176L209.883 99.4712Z" fill="#CFDCE5"/>
<path d="M210.156 103.518L212.118 101.625C212.184 101.562 212.181 101.457 212.113 101.397C212.047 101.339 211.947 101.347 211.891 101.415L210.156 103.518Z" fill="#CFDCE5"/>
<path d="M214.075 99.2812L212.114 101.175C212.049 101.238 212.051 101.343 212.119 101.403C212.185 101.461 212.286 101.453 212.341 101.385L214.075 99.2812Z" fill="#CFDCE5"/>
<path d="M212.421 101.202C212.475 100.845 211.968 100.716 211.845 101.055C211.784 101.223 211.883 101.407 212.058 101.448C212.228 101.488 212.395 101.374 212.421 101.202Z" fill="#699FF0"/>
<path d="M211.682 101.691C211.628 102.048 212.135 102.177 212.258 101.838C212.319 101.669 212.219 101.485 212.045 101.445C211.875 101.405 211.708 101.519 211.682 101.691Z" fill="#C65447"/>
<path d="Mnan nanL211.797 101.388C211.809 101.338 211.836 101.293 211.874 101.259C211.912 101.225 211.959 101.202 212.01 101.194C212.061 101.186 212.114 101.193 212.161 101.215C212.207 101.236 212.247 101.27 212.274 101.314C212.301 101.357 212.314 101.407 212.312 101.458C212.31 101.509 212.293 101.558 212.262 101.599C212.232 101.64 212.19 101.672 212.142 101.689C212.093 101.707 212.041 101.71 211.99 101.698C211.957 101.69 211.925 101.676 211.898 101.656C211.87 101.636 211.846 101.611 211.828 101.582C211.81 101.554 211.798 101.521 211.793 101.488C211.788 101.455 211.789 101.421 211.797 101.388Lnan nanZ" fill="white"/>
<path d="M190.534 92.5077C190.525 92.5079 190.516 92.5062 190.507 92.5027L178.643 87.6862C176.632 86.8696 174.375 86.9054 172.391 87.7853L161.765 92.4973C161.757 92.5008 161.748 92.5025 161.74 92.5025C161.675 92.5025 161.655 92.4145 161.713 92.3862L174.164 86.3781C175.015 85.9678 176.002 85.9511 176.866 86.3323L190.56 92.377C190.627 92.4066 190.607 92.5065 190.534 92.5077Z" fill="#AFCDFB"/>
<path d="Mnan nanL174.991 86.5705C174.991 86.4769 175.019 86.3854 175.072 86.3075C175.125 86.2297 175.2 86.169 175.288 86.1332C175.376 86.0974 175.473 86.088 175.566 86.1063C175.659 86.1245 175.745 86.1696 175.812 86.2358C175.88 86.302 175.925 86.3864 175.944 86.4782C175.963 86.57 175.953 86.6652 175.917 86.7517C175.88 86.8382 175.819 86.9121 175.739 86.9641C175.66 87.0161 175.567 87.0439 175.472 87.0439C175.409 87.0439 175.346 87.0317 175.288 87.0079C175.23 86.9841 175.177 86.9492 175.132 86.9053C175.087 86.8613 175.052 86.8091 175.028 86.7517C175.004 86.6943 174.991 86.6327 174.991 86.5705Lnan nanZ" fill="#A9453D"/>
<path d="M161.183 205.564H111.788C109.082 205.564 106.889 207.757 106.889 210.462C106.889 213.168 109.082 215.361 111.788 215.361H161.183C163.888 215.361 166.082 213.168 166.082 210.462C166.082 207.757 163.888 205.564 161.183 205.564Z" fill="#EFDECE"/>
<path d="Mnan nanL167.337 214.316H82.4851C80.1201 214.316 78.183 212.437 78.1109 210.074C78.0357 207.606 80.016 205.564 82.4851 205.564H167.291C167.359 205.565 167.427 205.552 167.49 205.526C167.553 205.501 167.61 205.464 167.658 205.416C167.706 205.369 167.745 205.313 167.771 205.251C167.797 205.189 167.81 205.122 167.81 205.055C167.805 204.912 167.744 204.776 167.64 204.676C167.535 204.577 167.395 204.521 167.25 204.521H75.3289C75.0116 204.52 74.6999 204.602 74.4253 204.759C74.1507 204.915 73.9229 205.14 73.7652 205.411C73.0488 206.646 72.0137 209.044 72.65 211.842C73.201 214.265 75.8139 215.361 78.2988 215.361H167.205C167.364 215.361 167.516 215.3 167.628 215.19C167.741 215.081 167.805 214.932 167.807 214.776C167.806 214.654 167.757 214.537 167.669 214.451C167.58 214.365 167.461 214.316 167.337 214.316Lnan nanZ" fill="#2A4E96"/>
<path d="M133.549 209.942C133.549 212.359 131.591 214.318 129.175 214.321L76.1716 214.374C75.9333 214.374 75.6974 214.329 75.4772 214.239C75.257 214.149 75.0569 214.018 74.8884 213.852C74.7198 213.687 74.5861 213.49 74.4949 213.273C74.4036 213.057 74.3567 212.825 74.3567 212.59V206.642C74.3567 206.356 74.4721 206.082 74.6776 205.88C74.883 205.678 75.1617 205.564 75.4522 205.564H129.171C131.589 205.564 133.549 207.524 133.549 209.942Z" fill="#FCECDB"/>
<path d="M116.415 210.267L133.264 210.113C133.421 210.112 133.549 210.239 133.549 210.396C133.549 210.555 133.418 210.682 133.259 210.678L116.415 210.267Z" fill="#EFDECE"/>
<path d="M127.377 212.31L133.349 212.017C133.458 212.012 133.549 212.099 133.549 212.208C133.549 212.315 133.462 212.401 133.355 212.399L127.377 212.31Z" fill="#EFDECE"/>
<path d="M78.6527 193.684H113.561C116.266 193.684 118.459 191.49 118.459 188.785C118.459 186.08 116.266 183.887 113.561 183.887H78.6527C75.9474 183.887 73.7543 186.08 73.7543 188.785C73.7543 191.49 75.9474 193.684 78.6527 193.684Z" fill="#EFDECE"/>
<path d="M72.8078 192.64H135.821C138.199 192.64 140.142 190.741 140.196 188.363C140.253 185.907 138.277 183.886 135.821 183.886H72.8427C72.6275 183.886 72.4444 183.657 72.4508 183.379C72.4573 183.081 72.6449 182.843 72.874 182.843H142.295C142.783 182.843 143.235 183.181 143.477 183.734C143.963 184.845 144.644 186.896 144.427 189.332C144.174 192.172 141.274 193.683 138.423 193.683H72.9053C72.656 193.683 72.4536 193.423 72.4508 193.099C72.4481 192.847 72.6118 192.64 72.8078 192.64Z" fill="#2A4E96"/>
<path d="M98.3241 188.266C98.3241 190.682 100.281 192.642 102.698 192.645L141.658 192.697C142.415 192.697 143.029 191.899 143.029 190.913V184.964C143.029 184.37 142.661 183.886 142.201 183.886H102.704C100.285 183.886 98.3241 185.847 98.3241 188.266Z" fill="#FCECDB"/>
<path d="M111.265 188.591L98.6083 188.438C98.4519 188.436 98.3241 188.562 98.3241 188.719C98.3241 188.877 98.4554 189.004 98.6139 188.999L111.265 188.591Z" fill="#EFDECE"/>
<path d="M102.985 190.632L98.5255 190.344C98.4164 190.337 98.3241 190.423 98.3241 190.532C98.3241 190.638 98.4111 190.724 98.5171 190.722L102.985 190.632Z" fill="#EFDECE"/>
<path d="M145.401 194.726H102.898C100.193 194.726 97.9996 196.919 97.9996 199.625C97.9996 202.33 100.193 204.523 102.898 204.523H145.401C148.106 204.523 150.3 202.33 150.3 199.625C150.3 196.919 148.106 194.726 145.401 194.726Z" fill="#EFDECE"/>
<path d="Mnan nanL151.408 203.479H76.9467C74.5754 203.479 72.6354 201.591 72.5717 199.221C72.5054 196.758 74.4835 194.726 76.9467 194.726H151.363C151.427 194.723 151.49 194.707 151.548 194.679C151.606 194.652 151.658 194.613 151.7 194.566C151.743 194.519 151.776 194.464 151.797 194.404C151.818 194.344 151.827 194.281 151.823 194.218C151.815 193.921 151.596 193.683 151.328 193.683H70.1143C69.5431 193.683 69.0105 194.021 68.7346 194.573C68.1302 195.752 67.2696 197.991 67.6817 200.626C68.0914 203.245 70.8451 204.523 73.4959 204.523H151.296C151.586 204.523 151.823 204.262 151.826 203.938C151.833 203.823 151.792 203.71 151.714 203.624C151.635 203.538 151.525 203.486 151.408 203.479Lnan nanZ" fill="#A9453D"/>
<path d="M121.56 199.107C121.56 201.522 119.603 203.481 117.187 203.484L70.8632 203.536C69.9783 203.536 69.2599 202.739 69.2599 201.752V195.807C69.2599 195.212 69.6931 194.729 70.2276 194.729H117.183C119.6 194.729 121.56 196.689 121.56 199.107Z" fill="#FCECDB"/>
<path d="M106.416 199.431L121.271 199.277C121.427 199.275 121.555 199.402 121.555 199.559C121.555 199.717 121.424 199.844 121.266 199.84L106.416 199.431Z" fill="#EFDECE"/>
<path d="M116.102 201.472L121.355 201.181C121.464 201.175 121.555 201.262 121.555 201.371C121.555 201.477 121.468 201.563 121.362 201.561L116.102 201.472Z" fill="#EFDECE"/>
<path d="M116.348 210.257C116.609 210.257 116.717 210.814 116.493 210.95C115.855 211.353 115.282 211.955 115.303 212.809C115.311 213.08 115.046 213.245 114.775 213.245H111.439C110.997 213.245 110.7 212.744 110.699 212.302C110.703 211.809 110.879 211.332 111.198 210.95C111.378 210.725 111.591 210.527 111.83 210.364C111.938 210.29 112.067 210.257 112.197 210.257H116.348Z" fill="#C94C43"/>
<path d="M113.293 213.246C114.209 213.246 114.372 214.143 113.471 214.308C113.308 214.338 113.335 214.297 113.174 214.258L111.827 213.929C111.776 213.916 111.723 213.914 111.671 213.923L110.745 214.079C110.483 214.123 110.234 213.581 110.38 213.359C110.425 213.29 110.502 213.246 110.584 213.246H113.293Z" fill="#A9453D"/>
<path d="M116.407 210.257C116.661 210.257 116.762 210.79 116.545 210.92C116.511 210.94 116.472 210.951 116.433 210.951H112.139C111.759 210.951 111.574 210.528 111.892 210.322C111.96 210.278 112.04 210.257 112.121 210.257H116.407Z" fill="#A9453D"/>
<path d="M111.592 190.631C111.576 190.138 111.401 189.662 111.094 189.273C110.913 189.047 110.7 188.85 110.461 188.687C110.354 188.614 110.225 188.581 110.095 188.581H105.945C105.685 188.581 105.577 189.137 105.8 189.273C106.438 189.677 107.011 190.279 106.99 191.133C106.986 191.282 107.013 191.431 107.07 191.569C107.242 191.977 107.658 192.24 108.047 192.403C108.573 192.622 109.16 192.571 109.713 192.435L110.418 192.262C110.5 192.242 110.585 192.238 110.668 192.25C111.354 192.348 111.626 191.323 111.592 190.631Z" fill="#699FF0"/>
<path d="M294.49 215.36H49.9365C49.7831 215.36 49.6587 215.482 49.6587 215.633V215.727C49.6587 215.878 49.7831 216 49.9365 216H294.49C294.643 216 294.767 215.878 294.767 215.727V215.633C294.767 215.482 294.643 215.36 294.49 215.36Z" fill="#2E3552"/>
</svg>
