<svg width="344" height="216" viewBox="0 0 344 216" fill="none" xmlns="http://www.w3.org/2000/svg">
<rect width="344" height="215.849" rx="4" fill="#FFBBBB"/>
<path d="M288.169 148.531C288.113 149.173 288.053 149.815 287.989 150.458C287.734 153.016 287.403 155.594 286.998 158.193C286.901 158.819 286.799 159.448 286.691 160.078C286.179 163.094 285.562 166.132 284.841 169.193C284.375 171.17 283.864 173.154 283.307 175.147C282.446 178.233 281.474 181.332 280.394 184.444C280.253 184.848 280.11 185.252 279.966 185.656C278.622 189.421 277.111 193.198 275.433 196.987C273.977 200.264 272.392 203.544 270.678 206.827C269.924 208.267 269.145 209.708 268.341 211.149C267.585 212.501 266.806 213.853 266.004 215.205L265.646 215.804L265.636 215.82L260.731 215.809L99.1905 215.462H97.6314C97.6314 215.462 97.1982 215.181 96.4181 214.632C95.9965 214.332 95.462 213.954 94.8443 213.499C94.5787 213.304 94.2976 213.094 94.001 212.869C92.2806 211.575 90.049 209.814 87.5265 207.628L87.3283 207.455C86.7907 206.986 86.2384 206.498 85.6765 205.991L85.4235 205.762L85.297 205.647C85.1842 205.543 85.0725 205.44 84.9586 205.336L84.8838 205.269C84.6856 205.086 84.4864 204.903 84.2872 204.717C83.1382 203.65 81.9523 202.51 80.7495 201.294C80.3405 200.885 79.9308 200.467 79.5204 200.041L79.4772 199.997C78.6971 199.19 77.9139 198.356 77.1275 197.494C76.9673 197.318 76.8077 197.142 76.6489 196.967L76.4381 196.73C75.5653 195.758 74.696 194.751 73.8302 193.711C73.6341 193.477 73.4384 193.24 73.243 193.001C72.4313 192.01 71.6292 190.99 70.8364 189.943C70.7658 189.851 70.6973 189.759 70.6256 189.667C70.6227 189.665 70.6204 189.662 70.6193 189.659C70.3986 189.365 70.1787 189.069 69.9594 188.772C69.7254 188.454 69.4924 188.132 69.2605 187.807C67.9671 186.001 66.7169 184.119 65.5299 182.167C64.7815 180.937 64.0608 179.679 63.3679 178.393C63.0805 177.861 62.7994 177.324 62.5246 176.782C54.0642 160.144 51.0567 139.219 65.3444 116.202C69.6959 109.2 74.9549 103.701 80.7453 99.4246C82.2689 98.2983 83.8269 97.2547 85.4193 96.2937C88.1654 94.6351 91.0328 93.1792 93.9978 91.938C120.351 80.8725 150.882 87.2328 157.706 90.4405C157.706 90.4405 175.377 43.9281 228.544 49.8155C240.653 51.1575 251.601 56.4465 260.734 64.741C262.588 66.4286 264.347 68.2139 266.005 70.0891C266.802 70.9879 267.581 71.9126 268.342 72.8633C269.141 73.8609 269.92 74.8855 270.679 75.9371C280.93 90.1449 287.406 109.137 288.494 130.601C288.793 136.578 288.684 142.568 288.169 148.531Z" fill="#FFDADA"/>
<path d="M206.926 215.461C211.107 194.113 210.031 181.013 210.026 180.848C210.016 180.519 210.616 180.22 210.94 180.21C211.264 180.2 212.71 180.113 212.877 180.394C213.096 180.763 213.938 196.904 207.706 215.461H206.926Z" fill="#A0795F"/>
<path d="M187.895 146.96L189.096 146.783C189.557 146.656 189.911 146.452 189.924 146.015L189.994 143.709C190.002 143.526 189.95 143.347 189.847 143.195C189.743 143.044 189.592 142.93 189.418 142.869C188.272 142.488 187.247 141.561 187.495 140.156C187.495 140.156 188.157 136.783 188.172 136.684L192.599 136.814C192.608 136.918 193.144 140.322 193.144 140.322C193.408 141.613 192.216 142.618 191.036 142.923C190.868 142.964 190.719 143.058 190.61 143.19C190.502 143.322 190.439 143.485 190.433 143.655L190.361 145.992C190.347 146.449 190.677 146.666 191.176 146.844L192.32 147.103C192.409 147.103 192.415 147.213 192.32 147.207L187.892 147.075C187.802 147.077 187.806 146.999 187.895 146.96Z" fill="#A61717"/>
<path d="M187.698 140.862C187.909 142.048 189.011 142.817 190.248 142.854C191.486 142.89 192.714 142.05 192.959 140.968C193.006 140.757 193.014 140.538 192.982 140.323C192.953 140.141 192.914 139.961 192.863 139.784C192.844 139.717 192.379 136.809 192.379 136.809L188.363 136.689L187.736 139.817C187.725 139.866 187.714 139.921 187.707 139.966L187.695 140.019C187.688 140.069 187.679 140.117 187.673 140.167C187.649 140.398 187.657 140.632 187.698 140.862Z" fill="#EBF3FA"/>
<path d="M187.698 140.861C187.909 142.048 189.011 142.817 190.248 142.853C191.486 142.89 192.714 142.05 192.958 140.968C192.467 140.899 191.104 140.734 190.033 140.905C189.316 141.019 188.396 140.95 187.698 140.861Z" fill="#C94C43"/>
<path opacity="0.7" d="M191.981 140.939C192.029 140.728 192.037 140.51 192.005 140.295C191.976 140.113 191.937 139.933 191.886 139.755C191.866 139.688 191.402 136.78 191.402 136.78L191.909 136.794C191.909 136.794 192.373 139.698 192.392 139.771C192.443 139.948 192.483 140.128 192.511 140.31C192.543 140.525 192.535 140.743 192.488 140.955C192.244 142.037 191.013 142.877 189.778 142.84C189.691 142.84 189.603 142.83 189.517 142.821C190.661 142.748 191.754 141.95 191.981 140.939Z" fill="white"/>
<path d="M199.755 182.546L207.476 207.871C207.476 207.871 211.007 207.023 212.31 204.984C212.31 204.984 211.44 180.367 206.091 176.691C200.742 173.014 199.755 182.546 199.755 182.546Z" fill="#303030"/>
<path d="M183.305 215.187H195.861C195.952 215.173 196.042 215.147 196.127 215.111C196.965 214.696 196.9 212.339 196.205 210.71C195.933 210.071 196.753 208.707 196.459 208.187C195.892 207.183 192.4 205.387 191.792 208.046C191.773 208.129 191.505 209.629 191.482 209.705C190.715 212.194 187.289 213.323 185.311 213.639C183.798 213.887 183.406 214.754 183.305 215.187Z" fill="#303030"/>
<path d="M231.497 131.3C231.497 131.3 228.551 134.738 224.801 133.3C224.801 133.3 223.994 131.38 223.983 129.965C223.983 129.79 223.983 129.622 223.976 129.462C223.956 127.868 223.901 126.973 223.901 126.973C224.072 126.903 229.635 124.656 229.63 124.843C229.539 129.153 231.497 131.3 231.497 131.3Z" fill="#FFB27D"/>
<path d="M205.19 215.187H209.311C210.176 215.187 211.136 214.335 211.376 212.778C211.617 211.22 213.393 210.369 213.776 209.093C214.16 207.817 212.195 206.021 212.195 206.021L211.865 205.606L211.524 205.173L208.256 205.928C208.256 205.928 208.176 206.693 208.125 207.667C208.083 208.41 208.079 209.154 208.113 209.897C208.209 211.597 207.628 213.429 206.092 213.76C204.556 214.091 205.19 215.187 205.19 215.187Z" fill="#303030"/>
<path d="M204.63 166.079L202.741 166.771C202.741 166.771 198.939 166.528 198.249 170.547C198.249 170.547 198.09 172.227 199.295 171.939C200.5 171.65 199.995 171.59 201.703 171.22C203.41 170.85 204.792 169.739 204.993 168.495L205.767 167.296L204.63 166.079Z" fill="#FFB27D"/>
<path d="M203.643 167.86C202.823 166.684 202.856 166.447 202.856 166.447C202.856 166.447 212.649 156.666 213.527 155.708C214.405 154.751 222.579 138.389 222.579 138.389L225.431 138.308C229.78 138.185 232.377 143.029 229.817 146.491C225.502 152.328 220.313 159.26 219.04 160.595C215.285 164.536 205.192 169.161 205.192 169.161C204.571 168.865 204.038 168.417 203.643 167.86Z" fill="#404040"/>
<path d="M234.493 169.374C234.759 162.772 235.337 157.033 236.02 153.025C237.114 146.641 238.1 142.965 238.111 142.929C238.256 142.367 240.339 140.096 244.97 140.166C249.602 140.237 249.163 143.215 249.163 143.215C249.163 143.304 249.152 143.393 249.129 143.48C249.085 143.633 244.833 159.181 245.018 179.258C245.018 179.539 245.053 180.027 245.033 180.351C245.033 180.351 234.299 180.63 234.297 180.351C233.921 178.594 234.104 173.733 234.493 169.374Z" fill="#D1A586"/>
<path d="M233.144 179.156C233.144 179.436 233.293 179.66 233.472 179.66C233.65 179.66 233.788 179.432 233.795 179.156H242.995C242.995 179.436 243.145 179.66 243.323 179.66C243.504 179.66 243.649 179.424 243.646 179.141C243.604 173.849 243.859 168.558 244.41 163.294C245.632 151.483 247.888 143.59 247.925 143.48C247.948 143.393 247.959 143.304 247.958 143.215C247.958 143.215 248.397 140.237 243.767 140.166C239.136 140.096 237.052 142.368 236.907 142.929C236.899 142.959 236.34 145.038 235.599 148.777C235.353 150.016 235.088 151.437 234.815 153.029C234.13 157.034 233.55 162.777 233.29 169.378C232.906 173.733 232.77 177.402 233.144 179.156Z" fill="#E5BD9E"/>
<path d="M233.144 179.156C233.144 179.436 233.293 179.66 233.472 179.66C233.65 179.66 233.788 179.432 233.795 179.156H242.995C242.995 179.436 243.145 179.66 243.323 179.66C243.504 179.66 243.649 179.424 243.646 179.141C243.604 173.849 243.859 168.558 244.41 163.294C242.889 155.798 237.012 150.066 235.599 148.775C235.353 150.014 235.088 151.435 234.815 153.027C234.13 157.032 233.55 162.775 233.29 169.376C232.906 173.733 232.77 177.402 233.144 179.156Z" fill="#DFB697"/>
<path d="M242.418 179.052H242.396L242.381 179.036C242.375 179.031 242.371 179.025 242.368 179.018C242.366 179.01 242.365 179.003 242.366 178.996C242.365 178.988 242.365 178.98 242.366 178.972C242.353 178.596 241.589 178.521 240.363 178.521C240.089 178.521 239.794 178.521 239.481 178.528C239.127 178.528 238.752 178.536 238.361 178.536C237.191 178.536 235.651 178.501 234.114 178.225C233.126 178.05 233.798 170.383 234.494 163.21C234.614 161.991 234.704 161.026 234.75 160.46C235.208 154.341 237.848 143.524 237.873 143.439C237.988 142.99 239.573 141.293 243.024 141.346C244.304 141.366 245.218 141.682 245.742 142.287C245.908 142.476 246.033 142.697 246.11 142.935C246.188 143.173 246.215 143.424 246.192 143.673C246.194 143.743 246.185 143.813 246.166 143.881C246.152 143.939 243.773 157.938 243.383 161.314C242.729 166.955 242.478 178.796 242.474 178.97V178.995V179.045L242.418 179.052ZM240.361 178.414C241.437 178.414 242.124 178.47 242.371 178.725C242.41 176.991 242.671 166.509 243.274 161.302C243.672 157.862 246.049 143.895 246.062 143.851C246.077 143.792 246.085 143.73 246.084 143.669C246.105 143.434 246.078 143.196 246.006 142.971C245.934 142.746 245.817 142.537 245.662 142.356C245.16 141.776 244.273 141.474 243.027 141.455C239.64 141.403 238.091 143.035 237.981 143.469C237.954 143.573 235.312 154.45 234.86 160.47C234.818 161.039 234.724 162.003 234.604 163.224C234.345 165.881 233.989 169.521 233.819 172.585C233.57 177.073 233.855 178.075 234.135 178.124C235.664 178.395 237.192 178.429 238.363 178.429C238.754 178.429 239.129 178.429 239.482 178.421C239.791 178.418 240.087 178.414 240.36 178.414H240.361Z" fill="#D1A586"/>
<path d="M244.333 179.66H208.272C208.272 179.66 209.115 176.237 229.995 176.742C244.775 177.1 244.333 179.66 244.333 179.66Z" fill="#E5BD9E"/>
<path d="M247.269 215.461C243.087 194.113 244.162 181.013 244.167 180.848C244.178 180.519 243.577 180.22 243.254 180.21C242.932 180.2 241.485 180.113 241.317 180.394C241.098 180.763 240.256 196.904 246.487 215.461H247.269Z" fill="#D1A586"/>
<path d="M213.598 215.461C217.779 194.113 216.704 181.013 216.699 180.848C216.688 180.519 217.289 180.22 217.613 180.21C217.936 180.2 219.382 180.113 219.549 180.394C219.768 180.763 220.611 196.904 214.384 215.461H213.598Z" fill="#D1A586"/>
<path d="M240.55 215.461C236.37 194.113 237.445 181.013 237.45 180.848C237.461 180.519 236.86 180.22 236.536 180.21C236.213 180.2 234.766 180.113 234.6 180.394C234.381 180.763 233.538 196.904 239.77 215.461H240.55Z" fill="#A0795F"/>
<path d="M244.302 180.753H208.259C208.061 180.753 207.871 180.676 207.731 180.538C207.591 180.4 207.512 180.213 207.512 180.018V179.51C207.512 179.315 207.591 179.128 207.731 178.99C207.871 178.852 208.061 178.775 208.259 178.775H244.302C244.5 178.775 244.691 178.852 244.831 178.99C244.971 179.128 245.05 179.315 245.05 179.51V180.018C245.049 180.213 244.971 180.4 244.83 180.538C244.69 180.676 244.5 180.753 244.302 180.753Z" fill="#D1A586"/>
<path d="M239.102 162.944C239.102 162.944 242.508 175.609 236.592 177.446C236.592 177.446 231.498 179.84 207.236 178.172C207.236 178.172 208.272 188.75 196.619 209.473C196.619 209.473 193.199 210.375 191.061 207.867C191.061 207.867 195.608 177.975 197.118 171.326C198.264 166.283 230.597 164.626 239.102 162.944Z" fill="#3E3F41"/>
<path d="M192.894 143.722C192.738 143.684 192.595 143.604 192.481 143.491C192.367 143.379 192.286 143.238 192.248 143.083C191.869 141.625 190.78 140.928 190.658 141.083C190.564 141.205 190.955 141.987 191.024 142.282C188.705 142.237 189.432 140.773 187.459 140.504C187.065 140.451 186.679 142.152 188.245 144.202C189.24 145.504 189.51 145.049 192.531 145.705L193.965 146.06L194.33 143.868C193.847 143.873 193.366 143.824 192.894 143.722Z" fill="#FFB27D"/>
<path d="M229.081 126.077C228.544 127.055 226.703 128.969 223.981 129.668C223.961 128.074 223.906 127.179 223.906 127.179C224.06 127.137 229.236 125.787 229.081 126.077Z" fill="#ED975D"/>
<path d="M222.133 127.07C222.133 127.07 229.312 128.729 230.295 124.315C231.277 119.902 232.865 117.143 228.323 115.895C223.78 114.648 222.512 116.141 221.82 117.536C221.127 118.931 220.291 126.524 222.133 127.07Z" fill="#FFB27D"/>
<path d="M230.049 125.519C230.147 125.582 231.692 126.048 234.617 120.314C235.076 119.414 235.39 117.468 234.319 115.751C233.248 114.035 229.453 112.677 226.299 112.089C223.145 111.501 222.388 113.247 221.646 115.002C220.866 116.843 218.614 118.36 218.614 118.36C221.334 119.854 224.609 117.717 225.744 118.068C226.88 118.42 227.28 120.179 227.364 120.743C227.449 121.307 227.575 121.78 229.008 121.272C230.44 120.763 229.653 123.261 229.429 123.738C229.424 123.734 229.23 125.004 230.049 125.519Z" fill="#A9453D"/>
<path d="M218.539 148.115C218.931 149.339 218.456 157.728 219.437 162.865C220.015 165.894 221.521 166.746 221.556 166.773C222.716 167.66 227.594 169.72 231.247 171.242C239.392 174.635 241.227 170.243 241.156 169.244C241.123 168.796 237.717 144.316 235.381 137.206C234.027 133.084 232.472 129.835 230.299 128.585C230.015 128.428 229.034 129.04 227.632 129.925C226.337 130.742 225.126 130.773 223.799 130.659L221.932 132.469C220.518 134.086 219.013 136.239 218.602 139.298C218.571 139.524 218.544 139.764 218.522 140.024C218.407 141.265 217.792 145.786 218.539 148.115Z" fill="#383838"/>
<path d="M218.413 144.61C218.449 146.648 218.57 148.94 218.729 151.267C218.739 151.405 218.749 151.543 218.759 151.682C226.796 146.733 228.036 137.682 228.036 137.682C224.083 137.852 220.941 138.746 218.52 140.025C218.407 141.266 218.38 142.843 218.413 144.61Z" fill="#353535"/>
<path d="M192.424 144.731C192.846 143.448 193.637 143.432 193.637 143.432C193.637 143.432 207.083 145.476 208.296 145.143C209.509 144.81 219.786 135.091 219.786 135.091C219.786 135.091 223.721 131.047 227.002 131.994C229.848 132.813 230.991 134.84 231.394 136.764C231.876 139.056 230.749 141.342 228.588 142.529C223.739 145.195 213.532 150.837 211.236 151.423C206.125 152.728 192.734 146.587 192.734 146.587C192.734 146.587 192.11 145.693 192.424 144.731Z" fill="#383838"/>
<path d="M150.156 147.514L151.358 147.338C151.82 147.21 152.173 147.007 152.187 146.57L152.256 144.264C152.264 144.082 152.212 143.902 152.109 143.751C152.005 143.6 151.855 143.485 151.681 143.424C150.535 143.043 149.51 142.116 149.757 140.71C149.757 140.71 150.419 137.337 150.434 137.238L154.861 137.368C154.869 137.472 155.406 140.877 155.406 140.877C155.668 142.167 154.477 143.172 153.298 143.478C153.13 143.519 152.98 143.613 152.871 143.745C152.762 143.877 152.7 144.04 152.694 144.21L152.623 146.548C152.608 147.004 152.939 147.221 153.438 147.399L154.582 147.658C154.67 147.658 154.676 147.768 154.582 147.762L150.154 147.631C150.064 147.631 150.068 147.553 150.156 147.514Z" fill="#A61717"/>
<path d="M149.962 141.416C150.172 142.603 151.274 143.372 152.512 143.408C153.749 143.445 154.977 142.605 155.222 141.523C155.269 141.311 155.276 141.093 155.244 140.878C155.216 140.696 155.177 140.516 155.126 140.339C155.106 140.271 154.641 137.362 154.641 137.362L150.625 137.244L150 140.371C149.987 140.42 149.977 140.47 149.97 140.52L149.958 140.574C149.952 140.624 149.943 140.672 149.937 140.721C149.912 140.953 149.92 141.187 149.962 141.416Z" fill="#EBF3FA"/>
<path d="M149.962 141.417C150.172 142.603 151.274 143.373 152.511 143.409C153.749 143.445 154.977 142.605 155.222 141.523C154.729 141.453 153.366 141.289 152.295 141.46C151.58 141.574 150.658 141.506 149.962 141.417Z" fill="#C94C43"/>
<path opacity="0.7" d="M154.244 141.494C154.291 141.282 154.299 141.063 154.267 140.849C154.239 140.667 154.199 140.487 154.149 140.309C154.128 140.242 153.665 137.333 153.665 137.333L154.171 137.349C154.171 137.349 154.636 140.252 154.656 140.324C154.706 140.502 154.745 140.682 154.774 140.864C154.806 141.079 154.798 141.297 154.75 141.509C154.506 142.591 153.275 143.43 152.04 143.395C151.953 143.395 151.865 143.384 151.78 143.374C152.924 143.302 154.016 142.504 154.244 141.494Z" fill="white"/>
<path d="M120.333 169.011C120.067 162.409 119.49 156.67 118.807 152.662C117.712 146.278 116.727 142.602 116.715 142.566C116.571 142.004 114.488 139.733 109.856 139.803C105.224 139.874 105.664 142.852 105.664 142.852C105.663 142.942 105.674 143.031 105.697 143.117C105.742 143.27 109.993 158.818 109.809 178.896C109.809 179.177 109.774 179.664 109.794 179.989C109.794 179.989 120.527 180.268 120.53 179.989C120.904 178.231 120.722 173.367 120.333 169.011Z" fill="#D1A586"/>
<path d="M121.682 178.793C121.682 179.073 121.533 179.297 121.355 179.297C121.176 179.297 121.038 179.069 121.032 178.793H111.829C111.829 179.073 111.68 179.297 111.502 179.297C111.32 179.297 111.176 179.061 111.178 178.778C111.22 173.486 110.965 168.196 110.415 162.931C109.192 151.12 106.936 143.227 106.899 143.117C106.877 143.03 106.866 142.942 106.867 142.852C106.867 142.852 106.427 139.874 111.058 139.803C115.689 139.733 117.773 142.005 117.917 142.566C117.927 142.596 118.484 144.676 119.225 148.414C119.472 149.653 119.736 151.074 120.009 152.666C120.696 156.671 121.274 162.415 121.535 169.015C121.92 173.367 122.057 177.039 121.682 178.793Z" fill="#E5BD9E"/>
<path d="M121.682 178.793C121.682 179.073 121.533 179.297 121.355 179.297C121.176 179.297 121.038 179.069 121.032 178.793H111.829C111.829 179.073 111.68 179.297 111.502 179.297C111.32 179.297 111.176 179.062 111.178 178.779C111.22 173.487 110.965 168.196 110.415 162.932C111.935 155.436 117.813 149.704 119.225 148.413C119.472 149.652 119.737 151.073 120.01 152.665C120.696 156.67 121.274 162.413 121.535 169.014C121.92 173.368 122.057 177.04 121.682 178.793Z" fill="#DFB697"/>
<path d="M112.357 178.688V178.631V178.606C112.357 178.433 112.101 166.592 111.449 160.95C111.058 157.579 108.679 143.575 108.665 143.515C108.646 143.448 108.637 143.378 108.639 143.308C108.616 143.06 108.644 142.81 108.722 142.574C108.799 142.337 108.924 142.118 109.089 141.93C109.616 141.325 110.527 141.009 111.807 140.989C115.261 140.938 116.843 142.633 116.959 143.083C116.983 143.167 119.625 154.015 120.081 160.103C120.123 160.669 120.218 161.634 120.337 162.853C121.038 170.026 121.708 177.693 120.717 177.868C119.18 178.14 117.64 178.179 116.47 178.179C116.078 178.179 115.703 178.179 115.35 178.171C115.034 178.171 114.742 178.165 114.468 178.165C113.24 178.165 112.476 178.239 112.465 178.616C112.465 178.655 112.465 178.666 112.45 178.681L112.435 178.697L112.357 178.688ZM111.966 141.09H111.812C110.563 141.108 109.676 141.412 109.176 141.992C108.866 142.354 108.714 142.823 108.755 143.295C108.754 143.36 108.762 143.424 108.778 143.486C108.79 143.53 111.167 157.503 111.565 160.937C112.168 166.144 112.429 176.625 112.468 178.36C112.715 178.104 113.402 178.048 114.478 178.048C114.754 178.048 115.049 178.048 115.362 178.056C115.715 178.056 116.089 178.064 116.48 178.064C117.646 178.064 119.18 178.03 120.708 177.759C120.991 177.709 121.276 176.708 121.025 172.22C120.855 169.156 120.498 165.516 120.239 162.859C120.12 161.638 120.028 160.673 119.983 160.105C119.525 153.986 116.889 143.201 116.864 143.105C116.744 142.678 115.242 141.09 111.966 141.09Z" fill="#D1A586"/>
<path d="M110.491 179.297H146.552C146.552 179.297 145.708 175.874 124.828 176.379C110.051 176.741 110.491 179.297 110.491 179.297Z" fill="#E5BD9E"/>
<path d="M107.558 215.098C111.74 193.75 110.665 180.649 110.659 180.484C110.649 180.156 111.25 179.857 111.572 179.847C111.895 179.836 113.343 179.75 113.51 180.031C113.728 180.399 114.57 196.54 108.344 215.098H107.558Z" fill="#D1A586"/>
<path d="M141.228 215.098C137.047 193.75 138.123 180.649 138.128 180.484C138.138 180.156 137.538 179.857 137.214 179.847C136.89 179.836 135.444 179.75 135.277 180.031C135.058 180.399 134.216 196.54 140.448 215.098H141.228Z" fill="#D1A586"/>
<path d="M147.901 215.098C143.72 193.75 144.795 180.649 144.8 180.484C144.811 180.156 144.21 179.857 143.887 179.847C143.563 179.836 142.117 179.75 141.95 180.031C141.731 180.399 140.889 196.54 147.115 215.098H147.901Z" fill="#A0795F"/>
<path d="M114.276 215.098C118.457 193.75 117.381 180.649 117.376 180.484C117.366 180.156 117.966 179.857 118.29 179.847C118.614 179.836 120.06 179.75 120.228 180.031C120.446 180.399 121.288 196.54 115.056 215.098H114.276Z" fill="#A0795F"/>
<path d="M146.566 178.411H110.524C110.111 178.411 109.776 178.741 109.776 179.147V179.655C109.776 180.061 110.111 180.391 110.524 180.391H146.566C146.98 180.391 147.315 180.061 147.315 179.655V179.147C147.315 178.741 146.98 178.411 146.566 178.411Z" fill="#D1A586"/>
<path d="M127.932 113.306C127.932 113.306 123.042 111.781 119.462 116.671C115.882 121.561 113.157 121.875 114.118 124.034C115.079 126.194 112.537 127.457 113.495 129.45C114.453 131.443 115.498 131.223 114.492 133.197C113.274 135.582 114.901 138.545 115.703 139.515C117.769 142.012 116.872 146.848 120.025 147.426C120.025 147.426 135.498 141.23 136.859 139.256C138.22 137.283 137.685 134.076 135.654 131.5C133.622 128.924 137.257 129.134 136.456 126.821C135.655 124.508 135.119 124.242 135.868 121.722C136.616 119.202 135.013 119.514 134.318 117.568C133.624 115.623 133.947 115.183 132.056 114.064C130.047 112.868 127.932 113.306 127.932 113.306Z" fill="#303030"/>
<path d="M135.269 134.914C135.269 134.914 141.693 148.131 142.602 148.166C143.51 148.201 151.205 150.373 151.205 150.373V151.581H140.032C140.032 151.581 131.455 140.892 133.236 138.019C135.016 135.145 135.269 134.914 135.269 134.914Z" fill="#ED985F"/>
<path d="M158.143 175.943C158.143 175.943 167.326 207.871 169.843 210.572L165.863 209.638C165.863 209.638 165.958 208.821 165.863 208.572C163.921 203.47 154.302 196.53 152.904 181.34L158.143 175.943Z" fill="#ED985F"/>
<path d="M130.792 139.741C124.774 142.157 122.962 132.703 123.352 132.621C123.968 131.98 124.657 129.649 124.336 126.25L124.642 126.282L129.163 126.759C129.102 127.79 129.097 128.823 129.149 129.854C129.149 129.958 129.162 130.052 129.17 130.148C129.275 131.3 130.211 132.118 130.475 132.351C130.873 132.371 132.398 139.096 130.792 139.741Z" fill="#FFB27D"/>
<path d="M129.149 129.853C126.781 129.585 125.312 127.504 124.642 126.282L129.162 126.758C129.102 127.789 129.097 128.822 129.149 129.853Z" fill="#ED985F"/>
<path d="M130.86 128.138C130.86 128.138 124.174 128.833 123.797 124.732C123.42 120.63 122.304 117.956 126.557 117.339C130.809 116.722 131.782 118.214 132.249 119.552C132.716 120.891 132.588 127.851 130.86 128.138Z" fill="#FFB27D"/>
<path d="M121.118 131.601C121.118 131.601 125.175 129.423 131.042 131.737C131.587 131.952 132.081 132.277 132.493 132.69C132.904 133.103 133.223 133.595 133.431 134.136C134.393 136.656 133.34 139.334 133.477 141.101C133.477 141.101 131.294 151.316 131.058 155.96C130.822 160.604 133.904 165.256 132.733 165.581C130.478 166.211 116.385 173.431 116.534 168.14C116.624 164.954 122.802 158.599 122.828 155.347C122.855 152.096 116.447 133.493 121.118 131.601Z" fill="#FFB27D"/>
<path d="M119.729 161.122C119.729 161.122 111.98 170.455 114.957 175.476C118.578 181.586 149.276 177.257 151.4 178.156C151.4 178.156 148.581 183.453 150.794 197.781C151.286 200.957 153.535 206.871 152.041 209.478L155.476 207.731C155.476 207.731 155.32 195.795 159.007 176.457C159.007 176.457 158.953 172.504 157.103 171.533C153.203 169.484 119.729 161.122 119.729 161.122Z" fill="#FFB27D"/>
<path d="M159.484 213.534C159.484 213.534 158.687 213.302 158.366 212.881C158.046 212.46 156.574 210.081 155.923 209.036C155.271 207.992 155.266 205.494 155.266 205.494L152.407 204.68C152.407 204.68 153.547 208.102 152.041 209.477L154.01 211.646C154.01 211.646 156.459 213.906 156.637 213.958C156.816 214.01 158.746 214.379 158.746 214.379L159.484 213.534Z" fill="#FFB27D"/>
<path d="M157.103 171.533C157.103 171.533 156.514 175.769 153.483 180.115C151.617 182.818 149.113 185.038 146.186 186.583C144.015 187.731 141.421 188.616 138.326 189.065C138.326 189.065 139.705 180.155 137.124 179.401C137.012 179.369 136.896 179.353 136.78 179.351C133.734 179.311 115.33 180.02 113.43 174.062C111.554 168.193 120.864 156.256 120.831 155.737C119.987 142.567 118.529 134.933 119.384 133.656C120.504 131.981 124.128 130.771 124.128 130.771C124.128 130.771 128.371 136.464 131.91 138.073C133.167 138.644 131.038 131.747 131.038 131.747C131.038 131.747 134.02 132.036 136.264 136.103C136.264 136.103 134.961 137.425 134.403 138.003C134.403 138.003 135.603 141.13 135.721 142.315C135.844 143.536 135.629 144.789 134.942 147.653C134.889 147.877 134.824 148.107 134.748 148.345C134.067 150.49 132.547 153.338 131.507 157.737C131.467 157.972 131.467 158.211 131.507 158.446C131.765 160.466 133.809 164.703 135.269 164.886C136.937 165.092 155.608 170.076 157.103 171.533Z" fill="#F99746"/>
<path d="M131.511 157.731C131.471 157.965 131.471 158.205 131.511 158.44C122.011 146.856 121.422 135.137 121.422 135.137L134.757 148.339C134.072 150.484 132.552 153.331 131.511 157.731Z" fill="#ED7D2B"/>
<path d="M120.646 133.402C120.488 133.882 119.796 135.929 120.103 136.334C122.079 138.934 133.505 151.221 136.811 151.852C140.461 152.548 149.965 143.641 149.965 143.641L148.805 143.1C148.805 143.1 138.192 147.491 137.616 146.953C136.923 146.307 129.147 137.297 127.412 135.442C124.774 132.62 121.521 130.755 120.646 133.402Z" fill="#FFB27D"/>
<path d="M173.307 213.535C173.307 213.535 172.042 213.016 171.37 212.29C169.377 210.13 169.204 209.824 168.249 208.025C167.858 207.287 165.865 209.477 165.865 209.477L169.586 213.985L171.744 214.755L173.307 213.535Z" fill="#ED985F"/>
<path d="M124.133 130.766C124.133 130.766 119.359 130.593 119.172 134.197C118.984 137.8 121.652 139.365 121.652 139.365C121.652 139.365 125.151 140.547 128.617 136.164C128.617 136.164 126.944 134.44 126.107 133.651C124.844 132.463 124.133 130.766 124.133 130.766Z" fill="#F99746"/>
<path d="M151.813 211.726L152.534 215.098H153.289V212.014L151.813 211.726Z" fill="#C94C43"/>
<path d="M165.635 211.726L166.356 215.098H167.112V212.014L165.635 211.726Z" fill="#C94C43"/>
<path d="M174.559 215.097H169.19C169.19 215.097 168.591 212.469 167.195 212.382C165.798 212.295 165.136 211.391 165.464 210.658C165.64 210.28 165.775 209.884 165.865 209.478C165.865 209.478 168.235 210.34 169.108 212.46C169.981 214.58 173.307 213.535 173.307 213.535C174.02 213.849 174.582 214.02 174.559 215.097Z" fill="#C94C43"/>
<path d="M160.736 215.097H155.367C155.367 215.097 154.768 212.469 153.372 212.382C151.975 212.295 151.313 211.391 151.641 210.658C151.818 210.28 151.952 209.884 152.041 209.478C152.041 209.478 154.411 210.34 155.285 212.46C156.159 214.58 159.484 213.535 159.484 213.535C160.197 213.849 160.761 214.02 160.736 215.097Z" fill="#C94C43"/>
<path d="M148.677 143.152C148.677 143.152 149.705 142.599 150.534 142.549C151.363 142.499 152.353 142.12 152.278 142.41C152.202 142.701 151.15 143.114 151.386 143.256C151.832 143.476 152.326 143.586 152.826 143.576C153.366 143.547 154.434 142.867 154.225 143.334C154.015 143.801 152.897 144.795 151.944 144.709C151.101 144.633 149.349 144.202 149.349 144.202L148.677 143.152Z" fill="#FFB27D"/>
<path d="M151.205 150.37C151.205 150.37 153.791 149.67 154.467 149.705C155.143 149.74 157.672 150.962 157.706 151.578H150.794L151.205 150.37Z" fill="#ED985F"/>
<path d="M131.843 117.289C130.696 116.148 129.939 116.485 129.535 116.895C123.114 114.725 120.37 120.516 120.37 120.516C120.37 120.516 118.146 133.655 120.335 131.859C120.87 131.422 121.926 130.899 122.574 131.18C123.628 131.635 127.558 132.027 125.442 128.182C124.005 125.571 125.196 124.625 125.196 124.625C128.417 122.803 130.006 118.056 130.096 117.558C130.538 117.884 131.606 118.854 131.736 119.652C132.038 121.528 132.806 121.934 133.436 121.799C133.436 121.796 133.562 119.004 131.843 117.289Z" fill="#303030"/>
<path d="M153.483 180.114C153.667 178.273 152.008 175.478 150.794 173.818C149.262 171.716 135.269 164.88 135.269 164.88C136.937 165.088 155.614 170.075 157.103 171.532C157.103 171.532 156.514 175.769 153.483 180.114Z" fill="#ED7D2B"/>
<path d="M138.326 189.065C138.326 189.065 139.705 180.155 137.124 179.401C142.657 179.252 146.19 186.582 146.19 186.582C144.012 187.73 141.421 188.612 138.326 189.065Z" fill="#ED7D2B"/>
<path d="M179.611 113.135C176.519 112.483 176.468 109.995 176.468 109.995C180.109 111.127 179.611 113.135 179.611 113.135Z" fill="#FF9393"/>
<path d="M179.824 112.568C179.824 112.568 181.753 113.338 183.125 111.403C183.12 111.403 180.898 111.031 179.824 112.568Z" fill="#FF9393"/>
<path d="M175.592 150.078L175.192 150.531C175.178 150.544 175.16 150.553 175.141 150.556C175.122 150.56 175.102 150.558 175.084 150.552C175.066 150.545 175.05 150.533 175.038 150.518C175.026 150.503 175.018 150.485 175.016 150.466C175.039 137.658 176.692 126.279 178.081 119.561C179.595 112.234 181.138 107.902 181.147 107.86C181.132 107.902 179.746 112.304 178.235 119.61C176.845 126.335 175.254 135.123 175.657 149.901C175.659 149.966 175.636 150.029 175.592 150.078Z" fill="#FF9393"/>
<path d="M181.118 106.118C180.625 106.508 178.736 108.17 180.568 109.451C180.568 109.451 181.973 109.888 182.437 108.824C182.793 108.012 182.889 107.107 182.914 106.723C182.917 106.675 182.9 106.628 182.869 106.592C182.837 106.556 182.792 106.534 182.743 106.53C182.607 106.518 182.474 106.488 182.347 106.441C182.173 106.374 182.084 106.116 181.849 106.06C181.697 106.016 181.539 105.999 181.381 106.008C181.284 106.018 181.192 106.057 181.118 106.118Z" fill="#F99746"/>
<path d="M180.073 108.987C180.235 109.126 180.354 109.306 180.416 109.508C180.478 109.71 180.481 109.925 180.425 110.128V110.388C180.48 110.189 180.585 110.006 180.731 109.857C180.877 109.708 181.058 109.597 181.259 109.535C181.259 109.535 180.636 109.609 180.073 108.987Z" fill="#FF9393"/>
<path d="M179.611 113.135C176.519 112.483 176.468 109.995 176.468 109.995C176.468 109.995 178.916 111.318 179.611 113.135Z" fill="#FE9393"/>
<path d="M176.642 111.43C176.642 111.43 174.697 112.162 173.365 110.2C173.365 110.2 175.598 109.872 176.642 111.43Z" fill="#FF9393"/>
<path d="M180.109 149.017L180.499 149.477C180.513 149.49 180.53 149.499 180.549 149.503C180.569 149.507 180.588 149.506 180.607 149.499C180.625 149.493 180.641 149.482 180.653 149.467C180.666 149.452 180.673 149.434 180.676 149.415C180.914 136.61 179.493 125.2 178.242 118.461C176.871 111.106 175.428 106.743 175.414 106.701C175.428 106.745 176.725 111.172 178.086 118.506C179.338 125.257 180.75 134.076 180.047 148.842C180.045 148.906 180.067 148.968 180.109 149.017Z" fill="#FF9393"/>
<path d="M175.476 104.957C175.961 105.356 177.815 107.055 175.957 108.3C175.957 108.3 174.545 108.71 174.101 107.636C173.763 106.817 173.686 105.91 173.668 105.526C173.666 105.478 173.683 105.431 173.716 105.395C173.749 105.359 173.795 105.338 173.844 105.335C173.98 105.326 174.114 105.299 174.242 105.254C174.417 105.191 174.511 104.935 174.746 104.883C174.899 104.843 175.058 104.829 175.215 104.842C175.312 104.854 175.403 104.894 175.476 104.957Z" fill="#F99746"/>
<path d="M176.466 107.847C176.299 107.982 176.176 108.162 176.109 108.364C176.043 108.566 176.036 108.782 176.09 108.988V109.249C176.039 109.049 175.938 108.864 175.795 108.712C175.652 108.56 175.473 108.445 175.273 108.379C175.273 108.379 175.89 108.456 176.466 107.847Z" fill="#FF9393"/>
<path d="M177.465 109.187C177.465 109.187 179.518 109.525 180.428 107.342C180.428 107.342 178.173 107.457 177.465 109.187Z" fill="#FF9393"/>
<path d="M181.65 146.704L181.36 147.231C181.349 147.247 181.333 147.259 181.316 147.267C181.298 147.274 181.278 147.277 181.259 147.274C181.24 147.271 181.222 147.264 181.207 147.251C181.192 147.239 181.181 147.223 181.174 147.205C178.357 134.701 177.448 123.242 177.315 116.392C177.17 108.916 177.708 104.362 177.714 104.313C177.714 104.359 177.332 108.951 177.477 116.406C177.611 123.267 178.005 132.186 181.675 146.521C181.69 146.583 181.681 146.648 181.65 146.704Z" fill="#FF9393"/>
<path d="M177.302 102.616C176.906 103.102 175.433 105.128 177.504 105.986C177.504 105.986 178.971 106.112 179.191 104.974C179.357 104.105 179.25 103.201 179.191 102.821C179.183 102.773 179.157 102.731 179.117 102.702C179.078 102.673 179.028 102.661 178.98 102.669C178.845 102.687 178.708 102.687 178.573 102.669C178.388 102.641 178.245 102.408 178.004 102.403C177.846 102.393 177.688 102.41 177.536 102.453C177.443 102.483 177.362 102.54 177.302 102.616Z" fill="#F99746"/>
<path d="M176.915 105.641C177.104 105.74 177.26 105.891 177.366 106.074C177.472 106.258 177.522 106.467 177.512 106.678L177.564 106.933C177.574 106.726 177.636 106.525 177.746 106.348C177.855 106.172 178.008 106.025 178.19 105.922C178.19 105.922 177.601 106.125 176.915 105.641Z" fill="#FF9393"/>
<path d="M179.16 106.938C179.16 106.938 179.16 105.338 180.561 104.836C180.561 104.836 180.87 106.171 179.16 106.938Z" fill="#FF9393"/>
<path d="M175.869 104.369C175.869 104.369 175.91 103.148 174.763 102.795C174.763 102.795 174.487 103.932 175.869 104.369Z" fill="#ED9F4A"/>
<path d="M179.634 111.71C179.676 111.745 180.233 110.523 179.1 109.54C179.1 109.54 178.627 110.848 179.634 111.71Z" fill="#ED9F4A"/>
<path d="M180.428 111.615C180.396 111.624 180.42 111.007 181.008 110.918C181.012 110.918 181.108 111.432 180.428 111.615Z" fill="#FF9393"/>
<path d="M174.559 109.539C174.559 109.539 174.062 108.528 172.473 108.704C172.474 108.704 172.711 109.795 174.559 109.539Z" fill="#FF9393"/>
<path d="M184.429 150.344L179.572 118.175C179.549 118.02 179.47 117.879 179.349 117.777C179.229 117.675 179.075 117.619 178.916 117.619H177.402C177.253 117.619 177.109 117.671 176.997 117.766C176.884 117.861 176.81 117.993 176.787 118.138L172.044 150.308C172.02 150.465 172.032 150.625 172.077 150.778C172.122 150.93 172.2 151.071 172.306 151.191C172.411 151.311 172.542 151.407 172.689 151.473C172.835 151.539 172.994 151.573 173.156 151.573H183.349C183.506 151.572 183.66 151.539 183.802 151.475C183.945 151.41 184.071 151.317 184.174 151.2C184.276 151.084 184.352 150.947 184.396 150.799C184.44 150.652 184.451 150.496 184.429 150.344Z" fill="#FF5454"/>
<path d="M175.413 150.605L177.932 117.626C177.799 117.644 177.675 117.705 177.58 117.799C177.485 117.892 177.424 118.014 177.405 118.145L172.661 150.315C172.638 150.472 172.65 150.632 172.695 150.784C172.74 150.937 172.818 151.078 172.924 151.197C173.029 151.317 173.16 151.414 173.306 151.479C173.453 151.545 173.612 151.58 173.773 151.579H175.811C175.673 151.458 175.565 151.307 175.496 151.138C175.427 150.969 175.398 150.786 175.413 150.605Z" fill="#FF9393"/>
<path d="M181.138 151.577H183.964C184.2 151.578 184.43 151.502 184.619 151.363L181.138 151.577Z" fill="#FFB278"/>
<path d="M168.186 132.16V135.151C168.186 135.367 168.048 135.544 167.88 135.544H167.046C166.877 135.544 166.739 135.367 166.739 135.151V132.169C166.776 132.163 166.813 132.16 166.85 132.16H168.186Z" fill="#3E3F41"/>
<path d="M167.774 134.315H167.235C166.664 134.317 166.117 134.541 165.713 134.938C165.309 135.335 165.082 135.874 165.08 136.435V150.781C165.081 150.986 165.164 151.183 165.311 151.328C165.459 151.474 165.659 151.556 165.867 151.557H169.141C169.327 151.556 169.507 151.482 169.639 151.352C169.771 151.222 169.845 151.046 169.846 150.862V136.353C169.844 135.813 169.626 135.296 169.238 134.914C168.849 134.532 168.323 134.317 167.774 134.315Z" fill="#3E3F41"/>
<path d="M168.186 130.915V132.421C168.186 132.502 168.048 132.569 167.88 132.569H167.046C166.877 132.569 166.739 132.502 166.739 132.421V130.915C166.739 130.834 166.877 130.767 167.046 130.767H167.88C168.046 130.767 168.186 130.834 168.186 130.915Z" fill="#FE9393"/>
<path d="M169.846 137.381H165.08V146.396H169.846V137.381Z" fill="#FE9393"/>
<path d="M198.932 215.097C198.753 215.097 198.58 215.034 198.443 214.92C198.306 214.806 198.215 214.648 198.185 214.475L194.523 193.496L189.252 163.323L187.776 154.886L191.527 154.782L192.186 159.677L196.756 194.097L199.465 214.5C199.475 214.574 199.469 214.65 199.446 214.722C199.424 214.794 199.387 214.86 199.336 214.917C199.286 214.974 199.224 215.019 199.154 215.05C199.084 215.081 199.009 215.097 198.932 215.097Z" fill="#C69D7F"/>
<path d="M160.548 154.89L158.875 164.449L154.264 190.862L150.143 214.474C150.113 214.648 150.022 214.806 149.886 214.919C149.749 215.033 149.576 215.096 149.396 215.096C149.32 215.096 149.244 215.08 149.175 215.049C149.105 215.019 149.043 214.973 148.992 214.917C148.942 214.86 148.904 214.794 148.882 214.722C148.86 214.65 148.853 214.574 148.863 214.5L152.418 187.732L156.22 159.1L156.793 154.78L160.548 154.89Z" fill="#C69D7F"/>
<path d="M158.875 164.448C159.095 160.339 156.22 159.097 156.22 159.097L156.793 154.778L160.545 154.882L158.875 164.448Z" fill="#A0795F"/>
<path d="M192.186 159.678C189.755 160.762 189.256 163.326 189.256 163.326L187.781 154.888L191.531 154.785L192.186 159.678Z" fill="#A0795F"/>
<path d="M209.472 151.577H138.865C137.169 151.577 135.795 152.929 135.795 154.597V155.182C135.795 156.849 137.169 158.201 138.865 158.201H209.472C211.167 158.201 212.541 156.849 212.541 155.182V154.597C212.541 152.929 211.167 151.577 209.472 151.577Z" fill="#E0B594"/>
<path d="M85.4192 96.29V205.759C83.9202 204.401 82.3496 202.912 80.7452 201.299V99.424C82.2687 98.2957 83.8268 97.2511 85.4192 96.29Z" fill="#FF5454"/>
<path d="M270.677 75.9325V206.827C269.923 208.267 269.144 209.707 268.34 211.148C267.584 212.501 266.805 213.853 266.003 215.204V70.0845C266.799 70.9833 267.578 71.908 268.34 72.8586C269.139 73.8563 269.918 74.8809 270.677 75.9325Z" fill="#FF5454"/>
<path d="M283.307 175.147C282.446 178.232 281.474 181.331 280.394 184.444C280.253 184.848 280.11 185.251 279.966 185.655C278.622 189.42 277.111 193.197 275.433 196.986C274.417 197.322 273.376 197.574 272.318 197.741C268.074 198.37 269.386 196.653 270.848 194.111C272.311 191.569 276.938 190.428 277.993 189.257C279.049 188.086 276.867 188.082 274.309 189.23C271.752 190.378 271.404 193.442 267.301 195.376C263.199 197.309 257.028 190.612 257.028 190.612C260.296 190.447 264.965 186.956 264.796 185.887C264.626 184.819 256.872 187.73 255.547 187.87C254.222 188.01 251.206 186.388 250.739 181.135C250.272 175.881 259.024 174.415 259.024 174.415C259.024 174.415 267.71 180.768 269.402 180.384C271.094 179.999 263.056 173.526 263.056 173.526C266.082 172.094 275.487 172.993 275.487 172.993C275.487 172.993 278.62 182.931 280.165 182.148C281.71 181.365 276.934 173.486 276.934 173.486C279.215 173.348 281.846 174.433 283.307 175.147Z" fill="#FE9393"/>
<path d="M280.394 184.444C280.253 184.848 280.11 185.251 279.966 185.655C276.269 183.664 269.054 181.726 255.039 181.274C255.039 181.274 271.945 180.634 280.394 184.444Z" fill="#FF5454"/>
<path d="M69.9571 188.776C69.7231 188.458 69.4901 188.137 69.2582 187.812C67.9648 186.005 66.7146 184.123 65.5277 182.171C65.6257 178.534 65.4412 174.961 65.4412 174.961C65.4412 174.961 77.8241 169.1 82.6837 169.568C82.6837 169.568 75.0022 182.368 77.511 182.059C80.0199 181.75 88.6395 168.797 88.6395 168.797C88.6395 168.797 101.338 166.479 103.375 173.885C105.413 181.292 102.121 184.982 100.239 185.448C98.3575 185.913 86.2888 185.759 86.6029 187.299C86.917 188.839 95.0665 191.308 99.613 189.919C99.613 189.919 94.5964 202.103 88.0176 201.486C82.0628 200.928 79.827 197.594 76.4379 196.735C75.5651 195.762 74.6958 194.756 73.83 193.716C73.6339 193.482 73.4382 193.245 73.2429 193.006C72.4312 192.014 71.629 190.995 70.8363 189.947L69.9571 188.776Z" fill="#FF9393"/>
<path d="M70.8321 189.948C76.01 186.091 84.325 181.469 97.5691 176.197C97.2097 176.311 80.8084 181.579 69.9572 188.777L70.8321 189.948Z" fill="#FF5454"/>
<path d="M286.691 160.078C286.179 163.094 285.562 166.132 284.841 169.193C280.632 169.166 275.986 168.207 272.788 166.935C266.569 164.457 269.724 163.174 273.75 160.894C277.478 158.784 283.881 160.417 286.691 160.078Z" fill="#FE9393"/>
<path d="M288.169 148.53C288.113 149.173 288.053 149.815 287.989 150.457C287.733 153.015 287.403 155.594 286.998 158.193C285.963 157.688 284.302 157.238 282.36 157.034C277.987 156.579 275.036 160.428 267.952 159.816C260.867 159.204 257.976 145.357 257.976 145.357C262.509 147.698 271.619 146.652 272.258 145.081C272.897 143.51 260.097 141.356 258.201 140.507C256.305 139.657 253.554 135.114 257.178 127.671C260.803 120.228 273.776 125.117 273.776 125.117C273.776 125.117 280.326 140.472 282.917 141.281C285.508 142.09 279.923 127.073 279.923 127.073C282.079 127.257 285.371 128.819 288.499 130.599C288.796 136.577 288.686 142.567 288.169 148.53Z" fill="#FE9393"/>
<path d="M262.858 131.233C263.097 131.361 278.044 139.341 288.169 148.531C288.113 149.173 288.053 149.815 287.988 150.457C283.232 145.454 275.441 139.113 262.858 131.233Z" fill="#FF5454"/>
<path d="M285.441 215.047H76.5193C76.3463 215.047 76.2062 215.185 76.2062 215.355V215.692C76.2062 215.862 76.3463 216 76.5193 216H285.441C285.614 216 285.754 215.862 285.754 215.692V215.355C285.754 215.185 285.614 215.047 285.441 215.047Z" fill="#A0795F"/>
</svg>
