<svg width="104" height="112" viewBox="0 0 104 112" fill="none" xmlns="http://www.w3.org/2000/svg">
<path d="M46.8899 20.0259C47.7262 16.797 48.562 13.5707 49.3974 10.347C49.5318 9.62362 49.7295 8.91336 49.9883 8.22436C50.2824 7.60888 50.7297 7.55072 51.3825 7.52059C52.8455 7.65665 54.2952 7.91098 55.7172 8.28104C57.1464 8.53177 58.5687 8.82151 59.9938 9.09563C60.0654 9.07544 60.1408 9.07215 60.214 9.08604L61.3919 9.29268C61.277 8.9001 61.2689 8.48453 61.3682 8.0883C61.4676 7.69208 61.6709 7.32936 61.9576 7.03704L58.8275 6.42359C57.0135 6.10536 55.2074 5.7885 53.4017 5.42349C52.1495 5.06716 50.8212 5.07692 49.5762 5.45159C48.0659 6.07875 47.6503 7.52486 47.2699 9.00126C46.8327 10.7088 46.3877 12.415 45.9505 14.1226L44.5812 19.4361C44.5326 19.7293 44.5965 20.0302 44.7602 20.2795C44.924 20.5287 45.1757 20.7081 45.4657 20.7822C45.7558 20.8563 46.063 20.8197 46.3266 20.6797C46.5903 20.5397 46.7913 20.3064 46.8899 20.0259Z" fill="#1E1E1E"/>
<path d="M98.2386 17.2197C98.1903 16.5623 97.9461 15.9337 97.537 15.4139C97.128 14.8941 96.5727 14.5067 95.9419 14.3011C94.2397 13.7614 92.423 13.4587 90.679 13.0644C90.4009 13.8193 90.0678 14.5646 89.8289 15.3264C91.4551 15.7001 93.0826 16.066 94.706 16.4552C95.397 16.5765 95.7067 16.7031 95.8639 17.4219C96.0017 18.1465 96.0408 18.886 95.98 19.6204C95.842 21.1447 95.5771 22.6547 95.188 24.135L93.0387 33.7561C90.4245 45.4739 88.8337 57.7247 85.482 69.4015C84.955 71.2058 84.8361 71.6993 82.8394 71.4535C81.8387 71.3088 80.8473 71.1054 79.8705 70.8442C77.89 70.3682 75.8705 70.0219 73.8739 69.5913C71.8773 69.1606 69.8514 68.6204 67.8477 68.092C66.1304 67.6381 64.3796 67.2827 62.6463 66.8741C60.3626 66.3835 58.1234 65.7057 55.9516 64.8477C52.0104 63.8749 48.0798 62.888 44.1477 61.9088C43.74 61.849 43.3617 61.6615 43.0679 61.3738C42.9376 61.1511 42.8547 60.9044 42.8243 60.6488C42.7939 60.3932 42.8168 60.1343 42.8915 59.8881C44.9122 47.257 47.8304 34.786 51.6242 22.5684C51.9048 21.6612 51.9618 20.3209 51.0342 20.118C50.1066 19.9151 49.6457 20.9273 49.3908 21.7345C45.4659 34.239 42.5316 47.0314 40.6144 59.995C40.4202 61.1022 40.3454 62.3589 41.1031 63.2072C41.6638 63.6938 42.3518 64.0124 43.087 64.1258C56.3005 67.3655 69.5246 70.575 82.7595 73.7542C83.5628 74.025 84.4246 74.0734 85.2524 73.8942C87.4538 73.2034 87.389 70.2504 87.7631 68.3951C88.413 65.1979 89.1821 62.0134 89.8949 58.8272L94.6626 37.4649L97.03 26.8773C97.7267 23.7364 98.7614 20.4218 98.2386 17.2197Z" fill="#1E1E1E"/>
<path d="M95.7469 42.5415C94.3549 48.5074 93.263 54.5313 92.4712 60.6132C92.2779 62.1305 94.6672 62.2603 94.8749 60.7536C95.6325 54.8902 96.6861 49.069 98.0319 43.3121C98.3574 41.826 96.0973 41.0518 95.7469 42.5415Z" fill="#FBB03B"/>
<path d="M42.1766 65.6704C41.8285 65.6483 41.4818 65.6062 41.1384 65.5445L40.8871 65.5004L40.3849 65.3641C40.0551 65.3062 39.7495 65.1561 39.4385 65.0373L39.176 64.9189L39.1132 64.9079L38.9865 64.8455L38.9001 64.8303L38.9124 64.7601C38.9186 64.4478 38.9184 64.1263 38.9182 63.8047C38.9198 63.0575 38.9227 62.3025 38.9335 61.5489C38.946 61.2352 38.8347 60.9288 38.6231 60.695C38.4116 60.4612 38.1167 60.3185 37.8013 60.2974C37.4865 60.2824 37.1786 60.3907 36.9438 60.599C36.709 60.8073 36.566 61.0989 36.5456 61.4113L36.5257 63.9235C36.5203 64.8307 36.4897 65.7898 37.199 66.4528C37.8731 67.0054 38.6656 67.3975 39.5153 67.5986C40.3487 67.8453 41.2076 67.996 42.0752 68.0477C42.3906 68.0627 42.6992 67.9549 42.9352 67.7471C43.1713 67.5393 43.3161 67.248 43.3388 66.9352C43.3505 66.6154 43.2353 66.3037 43.0178 66.067C42.8004 65.8304 42.4983 65.6879 42.1766 65.6704Z" fill="#FBB03B"/>
<path d="M81.5003 27.8741C80.6811 24.5155 77.1466 21.8701 74.0853 20.6338C70.3054 19.1107 67.3753 21.2328 65.1207 24.1647C63.4536 26.3316 65.9172 29.175 67.8586 28.2135C69.2795 28.6959 70.8418 28.8333 72.2771 29.3262C74.3494 30.0231 76.4666 30.5798 78.614 30.9925C79.0345 31.0752 79.4691 31.0494 79.8761 30.9174C80.2832 30.7854 80.6491 30.5518 80.9387 30.2388C81.2284 29.9259 81.4321 29.5441 81.5304 29.1301C81.6288 28.716 81.6184 28.2835 81.5003 27.8741Z" fill="#FBB03B"/>
<path d="M72.6826 38.3188C72.4696 38.2412 72.2736 38.1586 72.079 38.0682C72.6146 37.9948 73.1447 37.8864 73.6658 37.7438C75.2379 37.2721 76.676 36.134 76.0291 34.4694C75.475 33.0139 73.8636 32.6026 72.3764 32.2211C70.4877 31.729 68.5867 31.3071 66.6775 30.932C63.6102 30.3295 62.6326 34.4258 65.7156 35.0309L66.5008 35.1687C66.2639 35.2994 66.0414 35.4543 65.8369 35.6309C65.5502 35.8829 65.3495 36.2173 65.2627 36.588C65.176 36.9586 65.2074 37.3472 65.3526 37.6999C65.7154 38.3641 66.1765 38.9707 66.7205 39.4991C66.6268 39.8588 66.6195 40.2355 66.6992 40.599C66.7788 40.9624 66.9432 41.3025 67.1791 41.5917C67.4149 41.8809 67.7157 42.1113 68.0572 42.2642C68.3987 42.4172 68.7714 42.4884 69.1452 42.4723C70.2327 42.5072 71.3202 42.412 72.3842 42.1885C72.8086 42.0914 73.1905 41.8624 73.4743 41.5346C73.7581 41.2068 73.9291 40.7973 73.9623 40.3658C73.9956 39.9343 73.8895 39.5031 73.6593 39.135C73.4292 38.7669 73.087 38.4809 72.6826 38.3188Z" fill="#FBB03B"/>
<path d="M83.5926 47.1369C83.9279 44.8569 84.2723 42.5705 84.6089 40.2827C86.1281 30.1008 89.9125 20.5254 91.4262 10.3747C91.5151 10.259 91.5778 10.1256 91.61 9.9836C91.6422 9.84155 91.6433 9.69417 91.613 9.55155C91.5827 9.40894 91.5218 9.27441 91.4345 9.15714C91.3472 9.03987 91.2355 8.94263 91.107 8.87202C90.9495 8.74496 90.7669 8.65223 90.5711 8.59987C90.3752 8.54752 90.1706 8.5367 89.9705 8.56814L75.6175 5.48748L68.0589 3.86405L64.2829 3.05694C63.316 2.84713 61.9846 2.31617 61.2438 3.07833C60.5983 3.71255 60.585 4.98814 60.4007 5.80776C60.1194 6.99613 59.8459 8.18587 59.5738 9.36782C59.0478 11.6278 58.524 13.8908 58.0023 16.1568C56.9494 20.6819 55.8992 25.2075 54.8515 29.7335C54.3308 31.9943 53.8069 34.2573 53.28 36.5224C53.0349 37.5966 52.782 38.6694 52.5369 39.7436C52.3681 40.177 52.3023 40.6433 52.3446 41.1066C52.3868 41.5698 52.536 42.0174 52.7806 42.4145C53.3639 43.0435 54.1578 43.44 55.0132 43.5296C56.411 43.7748 57.8166 44.0214 59.2034 44.329C61.7367 44.8377 64.2567 45.3763 66.7777 45.9552C71.8104 47.1194 74.5332 47.8864 79.4917 49.335C80.3234 49.5773 81.3708 50.0665 82.248 49.8185C83.4981 49.4752 83.4452 48.1157 83.5926 47.1369ZM62.4779 7.20896C62.5874 6.58518 62.761 5.96465 62.9097 5.34776C62.9288 5.2386 62.9507 5.11382 62.974 4.98127C63.4748 5.1254 64.0419 5.16863 64.5445 5.2568L66.4325 5.66038L74.3731 7.36687L89.031 10.5091C88.2945 14.715 87.2557 18.8625 85.9229 22.9197C85.8753 22.8298 85.813 22.7482 85.7386 22.6784C85.6386 22.5814 85.5195 22.5059 85.3888 22.4567C85.2582 22.4075 85.1188 22.3856 84.9793 22.3925L82.6629 22.6774C82.3843 22.6918 82.1229 22.8148 81.9355 23.0196C81.748 23.2244 81.6496 23.4946 81.6615 23.7715C81.6702 24.042 81.785 24.2986 81.9813 24.4867C82.0804 24.585 82.1993 24.6612 82.3302 24.7105C82.4611 24.7598 82.601 24.781 82.7405 24.7726L85.0555 24.4956C85.2117 24.4787 85.363 24.4315 85.5008 24.3567C84.9041 26.3738 84.3323 28.3873 83.8691 30.4278L80.75 29.7521C80.7497 29.7308 80.7534 29.7096 80.7609 29.6897C80.9888 27.3726 80.4082 25.0462 79.1163 23.1C77.6453 21.2481 75.5256 20.015 73.1818 19.6477C70.9874 19.1183 68.6777 19.3638 66.6493 20.3422C64.4669 21.4783 63.1586 23.676 62.3819 25.9349L58.2743 25.1258L62.4779 7.20896ZM78.7322 29.3498C73.9906 28.3251 69.2432 27.3341 64.4898 26.377C65.001 24.5911 66.1867 23.0717 67.7998 22.1354C69.4343 21.4142 71.2722 21.2819 72.9972 21.7612C73.9277 21.9062 74.8194 22.237 75.6185 22.7336C76.4176 23.2302 77.1074 23.8823 77.6464 24.6505C78.469 26.0765 78.8469 27.7122 78.7322 29.3498ZM79.9553 47.2463C78.7157 46.8841 79.7522 47.0659 78.5084 46.7272C76.2085 46.0879 73.8869 45.4797 71.5437 44.9025C66.8887 43.7537 62.2118 42.7295 57.513 41.8302L55.8011 41.5299C55.5184 41.4803 54.9366 41.4746 54.7257 41.293C54.5147 41.1113 54.6945 40.5481 54.7622 40.2545L55.156 38.5635L56.6058 32.2836L57.7967 27.1559C66.3515 28.8067 74.8862 30.5719 83.4008 32.4515C83.2968 33.0441 83.1942 33.6288 83.0902 34.2214L81.2054 46.903C81.1821 47.0355 81.0977 47.2859 81.1 47.5034C80.7641 47.3882 80.2271 47.3582 79.9553 47.2463Z" fill="#1E1E1E"/>
<path d="M78.7658 32.249C73.4239 31.5277 68.1308 30.481 62.9166 29.1148C61.6101 28.765 61.1363 30.8198 62.4364 31.1604C67.6506 32.5266 72.9436 33.5733 78.2855 34.2946C79.6065 34.4701 80.0946 32.4258 78.7658 32.249Z" fill="#1E1E1E"/>
<path d="M74.4552 34.8117L66.856 33.1892C66.5816 33.1261 66.2934 33.1739 66.0549 33.3219C65.8164 33.47 65.6472 33.7063 65.5843 33.9788C65.5215 34.2512 65.5703 34.5376 65.7199 34.7749C65.8695 35.0121 66.1078 35.1809 66.3823 35.244L73.9828 36.8587C74.2539 36.9152 74.5363 36.8649 74.7703 36.7186C75.0044 36.5722 75.1719 36.3412 75.2375 36.0741C75.3003 35.8042 75.2535 35.5202 75.107 35.2839C74.9606 35.0476 74.7264 34.8779 74.4552 34.8117Z" fill="#1E1E1E"/>
<path d="M71.8971 37.6748C70.782 37.4792 69.6769 37.1809 68.581 36.8761C68.3157 36.8339 68.0444 36.8932 67.822 37.0421C67.5995 37.191 67.4425 37.4184 67.3825 37.6782C67.3225 37.9381 67.3641 38.2111 67.4988 38.4422C67.6336 38.6732 67.8515 38.8451 68.1085 38.923C69.2031 39.2356 70.3058 39.5014 71.4154 39.7282C71.6897 39.7923 71.9781 39.7456 72.2172 39.5984C72.4563 39.4512 72.6265 39.2155 72.6904 38.9432C72.7542 38.6709 72.7066 38.3844 72.5578 38.1465C72.409 37.9086 72.1713 37.7389 71.8971 37.6748Z" fill="#1E1E1E"/>
<path d="M64.5652 18.9795C64.5492 18.7068 64.4332 18.4491 64.239 18.2552C63.6379 17.7037 63.0765 17.1111 62.5589 16.4816C62.4982 16.3745 62.4109 16.2844 62.3053 16.2201C62.1987 16.1292 62.0699 16.0677 61.9319 16.0421C61.7288 15.998 61.5173 16.0141 61.3236 16.0885C61.13 16.1629 60.9627 16.2921 60.8426 16.4603C60.7226 16.6285 60.655 16.8281 60.6483 17.0344C60.6417 17.2407 60.6961 17.4446 60.805 17.6206C61.409 18.3947 62.0751 19.119 62.7967 19.7864C62.8978 19.882 63.017 19.9565 63.1474 20.0056C63.2778 20.0547 63.4167 20.0774 63.556 20.0723C63.8304 20.0569 64.0885 19.9384 64.2778 19.7409C64.3742 19.6394 64.4493 19.5198 64.4986 19.3891C64.5479 19.2584 64.5706 19.1191 64.5652 18.9795Z" fill="#1E1E1E"/>
<path d="M71.5223 16.5113C71.4755 16.27 71.4302 16.0209 71.3913 15.781C71.3525 15.5411 71.3675 15.6402 71.3995 15.7342C71.4078 15.6875 71.3767 15.6338 71.3706 15.5765L71.313 15.2128C71.2418 14.7421 71.1705 14.2715 71.1085 13.7945C70.978 12.8312 70.8738 11.8565 70.8075 10.8965C70.7956 10.6216 70.6743 10.3623 70.4702 10.1758C70.2661 9.98924 69.9961 9.89074 69.7193 9.90187C69.4426 9.91301 69.1819 10.0329 68.9946 10.2352C68.8073 10.4374 68.7088 10.7055 68.7207 10.9805C68.9007 13.0455 69.191 15.0816 69.5585 17.1393C69.5972 17.2714 69.662 17.3945 69.7493 17.5014C69.8365 17.6083 69.9445 17.6968 70.0666 17.7617C70.1888 17.8265 70.3227 17.8665 70.4605 17.8791C70.5983 17.8918 70.7372 17.8769 70.869 17.8354C71.1239 17.7347 71.3318 17.5435 71.4525 17.2988C71.5732 17.0542 71.598 16.7735 71.5223 16.5113Z" fill="#1E1E1E"/>
<path d="M81.8447 13.4995C81.6424 13.312 81.3737 13.2117 81.0976 13.2205C80.8214 13.2293 80.5603 13.3465 80.3714 13.5464C79.1516 14.9935 77.9392 16.4445 76.7342 17.8995C76.5491 18.1051 76.4501 18.3732 76.4573 18.6492C76.4646 18.9253 76.5775 19.1885 76.7731 19.3852C76.9754 19.5726 77.2441 19.6729 77.5202 19.6641C77.7964 19.6553 78.0575 19.5381 78.2464 19.3382C79.4609 17.8903 80.6733 16.4392 81.8836 14.9852C82.0686 14.7796 82.1677 14.5115 82.1604 14.2354C82.1532 13.9594 82.0403 13.6961 81.8447 13.4995Z" fill="#1E1E1E"/>
<path d="M69.2641 57.6187C63.4874 56.2195 57.6641 55.0559 51.794 54.1278C50.2784 53.862 50.1586 56.2521 51.6584 56.5152C57.3148 57.4004 62.9266 58.5242 68.4938 59.8867C69.9879 60.2292 70.7619 57.9859 69.2641 57.6187Z" fill="#1E1E1E"/>
<path d="M78.7143 53.9965C70.4347 50.8505 61.7498 48.8885 52.9202 48.1692C51.3801 48.0437 51.2473 50.4156 52.7769 50.5553C61.3929 51.2635 69.8669 53.1832 77.9454 56.2568C79.3895 56.7915 80.1847 54.5197 78.7143 53.9965Z" fill="#1E1E1E"/>
<path d="M79.17 59.3811C79.0231 59.1026 78.772 58.8924 78.4709 58.7959C78.1697 58.6995 77.8427 58.7245 77.5606 58.8656C77.4571 58.924 77.3626 58.9967 77.2799 59.0816C77.0502 59.1781 76.8467 59.3268 76.6857 59.5159C75.8899 60.4532 75.0941 61.3906 74.3167 62.3151C73.9359 62.7788 73.5537 63.2502 73.1794 63.723C72.694 64.321 72.0826 64.9451 72.3163 65.7818C72.3575 65.9837 72.4519 66.1713 72.5898 66.3254C72.7277 66.4795 72.9042 66.5947 73.1013 66.659C75.3002 67.1333 77.5352 67.4205 79.7823 67.5176C80.0971 67.5326 80.405 67.4243 80.6398 67.216C80.8747 67.0077 81.0176 66.7161 81.0381 66.4037C80.9105 63.9609 80.2744 61.5697 79.17 59.3811ZM75.4404 64.7225L75.4499 64.6679C75.8017 64.2313 76.1614 63.7961 76.4896 63.3554C76.8179 62.9147 77.267 62.4309 77.6584 61.953L77.7458 62.1934L77.8368 62.4585C77.9266 62.7314 78.0084 63.003 78.077 63.3044C78.2221 63.8155 78.3364 64.3348 78.4193 64.8593L78.4517 65.0901C77.8689 65.0441 77.2875 64.9903 76.7088 64.9209C76.3226 64.8612 75.8736 64.7904 75.4404 64.7225Z" fill="#1E1E1E"/>
<path d="M8.18128 88.1889C5.99456 88.8366 3.89992 89.7633 1.95001 90.9459C1.65695 91.1778 1.46587 91.5136 1.41745 91.882C1.39104 92.0794 1.40587 92.2798 1.46097 92.4707C1.51607 92.6617 1.61027 92.839 1.7377 92.9917C1.96658 93.2759 2.29714 93.4612 2.66104 93.5092C3.05998 93.5369 3.45708 93.4257 3.78406 93.1944L3.9438 93.1266L4.29513 92.9775L5.00293 92.6023C5.48208 92.3989 5.95062 92.2 6.40737 91.9439C7.37817 91.5299 8.37281 91.1743 9.38589 90.879C9.73324 90.7316 10.0083 90.4533 10.1506 90.1056C10.2928 89.7579 10.2906 89.3691 10.1445 89.0248C10.0784 88.8364 9.97376 88.6638 9.837 88.5181C9.70023 88.3724 9.53437 88.2566 9.3499 88.1781C9.16543 88.0995 8.96636 88.0599 8.76522 88.0618C8.56407 88.0637 8.36525 88.107 8.18128 88.1889Z" fill="#1E1E1E"/>
<path d="M20.5083 87.6678C20.2644 87.4193 19.9353 87.257 19.5699 87.205C17.7515 86.8529 15.8446 86.8814 13.9816 87.2883C13.7915 87.3178 13.6069 87.3817 13.4383 87.4763C13.2697 87.5709 13.1204 87.6943 12.9989 87.8395C12.8775 87.9847 12.7861 88.1489 12.7303 88.3227C12.6744 88.4965 12.655 88.6764 12.6732 88.8523C12.6914 89.0281 12.7469 89.1964 12.8365 89.3476C12.926 89.4987 13.0479 89.6298 13.1952 89.7333C13.3424 89.8367 13.5122 89.9106 13.6948 89.9506C13.8773 89.9906 14.0691 89.996 14.2591 89.9664C14.9527 89.8227 15.6535 89.7304 16.3549 89.6903C17.2684 89.6817 18.1739 89.7599 19.0575 89.9235C19.3498 89.9631 19.6544 89.9164 19.9299 89.7899C20.2054 89.6634 20.4383 89.4631 20.5969 89.2165C20.7556 88.9699 20.8322 88.6888 20.8164 88.4117C20.8005 88.1345 20.6929 87.8748 20.5083 87.6678Z" fill="#1E1E1E"/>
<path d="M31.2033 91.1745C29.2692 89.88 27.1027 89.0512 24.8684 88.7508C24.5199 88.6941 24.1713 88.7842 23.8995 89.0014C23.6277 89.2187 23.455 89.5453 23.4191 89.9094C23.3832 90.2734 23.4873 90.645 23.7083 90.9426C23.9294 91.2402 24.2494 91.4392 24.5979 91.496C25.0932 91.5557 25.5866 91.6431 26.0758 91.7579L26.4035 91.8534L26.5319 91.8854L27.2289 92.1205C27.6833 92.2981 28.1466 92.4967 28.6463 92.7539L29.3055 93.1163C29.3086 93.1352 29.3162 93.1532 29.3277 93.1686L29.6563 93.3748C29.9395 93.5897 30.2815 93.6943 30.62 93.6697C30.9684 93.6235 31.2799 93.4383 31.4912 93.1517C31.6977 92.8618 31.7832 92.4921 31.7293 92.1223C31.6755 91.7524 31.4865 91.4121 31.2033 91.1745Z" fill="#1E1E1E"/>
<path d="M44.1206 93.8431C43.5407 93.9918 42.9534 94.1037 42.3629 94.1779L41.4451 94.2534L41.265 94.2541L40.7836 94.2529C40.1938 94.2415 39.609 94.1894 39.0341 94.097L38.6287 94.02L38.4291 93.9748C38.131 93.8957 37.8329 93.8166 37.527 93.7191C37.2021 93.6073 36.8328 93.6237 36.5003 93.7648C36.1679 93.9059 35.8995 94.1601 35.7543 94.4716C35.609 94.783 35.5988 95.1261 35.7258 95.4254C35.8529 95.7247 36.1068 95.9557 36.4317 96.0675C38.9366 96.8863 41.7059 96.9666 44.3811 96.2981C44.5565 96.2705 44.727 96.2114 44.8827 96.1242C45.0385 96.0369 45.1766 95.9232 45.289 95.7895C45.4014 95.6559 45.486 95.5049 45.5379 95.3452C45.5899 95.1855 45.6081 95.0201 45.5917 94.8586C45.5753 94.6972 45.5245 94.5427 45.4421 94.4041C45.3598 94.2654 45.2477 94.1453 45.112 94.0506C44.9764 93.9559 44.8199 93.8885 44.6515 93.8521C44.4832 93.8158 44.3062 93.8113 44.1308 93.8388L44.1206 93.8431Z" fill="#1E1E1E"/>
<path d="M56.0845 87.9475C55.7807 87.7061 55.4083 87.5955 55.0472 87.6394C54.6862 87.6834 54.3653 87.8784 54.1537 88.1824C53.9275 88.5676 53.6813 88.9382 53.4162 89.2926C53.4162 89.2926 53.1963 89.572 53.1813 89.5651L53.296 89.4366L53.171 89.5694C53.0201 89.7265 52.859 89.8879 52.6828 90.0424C52.3584 90.3325 52.0148 90.5981 51.6545 90.8376L51.5623 90.8767C51.4848 90.9025 51.4095 90.9345 51.337 90.9724L50.6815 91.2506C50.3474 91.3924 50.0889 91.6743 49.9629 92.0342C49.8369 92.3942 49.8537 92.8028 50.0096 93.17C50.1654 93.5373 50.4476 93.8332 50.7941 93.9926C51.1406 94.152 51.5229 94.1619 51.8571 94.0201C53.7464 93.1675 55.3388 91.7507 56.4545 89.9295C56.6275 89.6243 56.6854 89.2542 56.6173 88.889C56.5491 88.5239 56.3596 88.1891 56.0845 87.9475Z" fill="#1E1E1E"/>
<path d="M59.625 74.6834C59.2469 74.7425 58.9072 74.9464 58.6763 75.2526C58.4453 75.5589 58.3408 75.9442 58.3844 76.3286C58.4499 76.483 58.3957 76.6881 58.3959 76.8702C58.4043 76.9521 58.405 77.0346 58.3978 77.1165C58.392 77.4659 58.3769 77.8235 58.3524 78.1894C58.2946 78.9037 58.1974 79.6137 58.0611 80.3163C58.0256 80.4745 58.0008 80.6281 57.9605 80.7753L57.8956 81.0759L57.8615 81.2075L57.8166 81.3437L57.7609 81.5754L57.5936 82.0888C57.3656 82.7855 57.098 83.468 56.7921 84.133C56.6521 84.4942 56.659 84.8978 56.8113 85.2566C56.9636 85.6154 57.2491 85.9007 57.6062 86.0509C57.9661 86.1863 58.3623 86.1785 58.714 86.0292C59.0658 85.8799 59.3466 85.6003 59.4993 85.2474C60.8259 82.3357 61.4328 79.1372 61.2686 75.924C61.2087 75.5424 61.0029 75.1985 60.6954 74.9665C60.3879 74.7344 60.0034 74.6327 59.625 74.6834Z" fill="#1E1E1E"/>
</svg>
