<svg width="105" height="91" viewBox="0 0 105 91" fill="none" xmlns="http://www.w3.org/2000/svg">
<path d="M42.627 34.1005C46.0294 34.0001 49.4227 34.4988 52.6498 35.5736C53.5771 35.8805 53.9479 37.4589 53.5329 38.4322C53.4542 38.6755 53.3261 38.9001 53.1565 39.0923C52.9869 39.2844 52.7794 39.44 52.5468 39.5493C52.3142 39.6586 52.0615 39.7194 51.8043 39.7278C51.5471 39.7363 51.2909 39.6922 51.0515 39.5984H50.9279H50.8483L50.2568 39.423L49.2324 39.16C48.5083 38.9934 47.7842 38.8531 47.0601 38.7478C46.3359 38.6426 45.656 38.5725 44.9495 38.5286L43.8898 38.4848H43.0067C42.75 38.5041 42.492 38.4706 42.2489 38.3864C42.0058 38.3022 41.7829 38.1692 41.5939 37.9955C41.405 37.8219 41.2541 37.6114 41.1508 37.3772C41.0474 37.1431 40.9939 36.8903 40.9934 36.6346C40.8962 35.5035 41.585 34.1268 42.627 34.1005Z" fill="#FBB03B"/>
<path d="M37.0901 15.5727C43.095 16.4496 49.1969 17.0283 55.1576 18.2033C57.9393 18.7294 57.2858 23.061 54.4865 22.5349C48.5258 21.4125 42.4327 20.7812 36.419 19.9044C33.602 19.5098 34.2731 15.1782 37.0901 15.5727Z" fill="#FBB03B"/>
<path d="M14.9428 7.43564C15.0488 7.32165 15.19 7.21638 15.3048 7.11116L15.4549 6.98844L15.5697 6.84812C15.75 6.63934 15.9688 6.46676 16.2144 6.33959C16.7694 5.92806 17.4602 5.73923 18.1492 5.81072C18.8382 5.88222 19.4747 6.2088 19.9321 6.7254C20.9152 7.77176 21.8483 8.85902 22.7314 9.98722C24.4092 12.1179 25.9016 14.3714 27.3587 16.6599C28.074 17.7911 28.7628 18.9397 29.5134 20.0445C30.264 21.1493 31.0764 21.921 31.8094 22.8943C32.68 23.9579 33.0982 25.317 32.975 26.6822C32.931 27.0859 32.801 27.4756 32.5935 27.8255C32.386 28.1753 32.1058 28.4773 31.7717 28.7112C31.4375 28.9452 31.0569 29.1057 30.6553 29.1822C30.2537 29.2588 29.8404 29.2494 29.4427 29.1549C28.0033 28.7516 27.1026 27.1645 26.2195 26.0597L23.3408 22.4558C21.3627 19.9744 19.1727 17.5631 17.433 14.915C16.9915 14.2486 16.6471 13.5296 16.1967 12.872C15.7463 12.2144 15.2606 11.8023 14.8721 11.206C14.6073 10.8595 14.4161 10.4633 14.3098 10.0413C14.2036 9.61934 14.1846 9.18037 14.254 8.7509C14.3631 8.25996 14.6007 7.80628 14.9428 7.43564Z" fill="#FBB03B"/>
<path d="M29.6723 15.2396C29.7694 14.7661 29.9901 14.2575 30.0873 13.8015C30.2551 13.0299 30.4317 12.2496 30.5907 11.478C30.9254 9.95166 31.1291 8.39992 31.2 6.83945C31.1554 6.46351 31.1931 6.08248 31.3104 5.72232C31.4278 5.36217 31.622 5.03142 31.8799 4.75263C32.4373 4.23441 33.174 3.94871 33.9376 3.95468C34.8736 3.95468 35.8008 4.22649 36.7368 4.16511C36.8851 4.15328 37.0325 4.13278 37.1783 4.10373C38.6001 3.81437 38.8474 6.05035 37.4345 6.3397C36.9839 6.42733 36.5234 6.45385 36.0657 6.41859C35.4306 6.26437 34.7744 6.21403 34.123 6.26954C33.3282 6.46245 33.4783 7.28666 33.4783 7.95305C33.4441 8.92315 33.3079 9.88708 33.0721 10.8291L31.9153 16.1778C31.721 17.0985 30.6437 17.8438 29.9461 16.8004C29.8082 16.5532 29.7182 16.2825 29.6811 16.0024C29.6633 15.8568 29.6633 15.7096 29.6811 15.564C29.67 15.4562 29.667 15.3478 29.6723 15.2396Z" fill="#1E1E1E"/>
<path d="M25.6279 42.6321C25.9016 39.2124 27.0849 35.8892 27.3057 32.4519C27.3117 31.9734 27.3708 31.497 27.4823 31.0315C27.5986 30.5631 27.8971 30.1595 28.3124 29.9091C28.5233 29.7942 28.7671 29.7534 29.0043 29.7932C29.2414 29.8329 29.4581 29.951 29.6193 30.1283C29.8452 30.5353 29.8992 31.0146 29.7694 31.4611C29.1218 35.4128 28.4802 39.3703 27.8444 43.3336C27.693 43.9558 27.7299 44.6085 27.9503 45.21C28.1548 45.5133 28.4304 45.7627 28.7534 45.9368C29.0764 46.111 29.4372 46.2046 29.8048 46.2096C35.6242 47.2268 41.4347 48.2702 47.3071 48.9454C49.3029 49.1821 51.3075 49.4013 53.312 49.5592C54.2569 49.6293 54.8398 49.5592 55.2372 49.0769C55.4119 48.8331 55.5405 48.5597 55.6168 48.2702C55.9259 47.2794 56.1026 46.2184 56.3322 45.1925C58.2573 36.5118 59.7644 27.7433 60.8535 18.8872C61.1449 16.5109 61.4893 14.1083 61.6306 11.7146C61.7057 11.3471 61.7057 10.9685 61.6306 10.601C61.295 9.87323 60.2353 9.95211 59.5818 9.85566L55.7847 9.27697L41.1345 7.0673C40.955 7.03708 40.7857 6.96394 40.6411 6.85419C40.4965 6.74445 40.3808 6.6014 40.3043 6.43739C40.2278 6.27338 40.1927 6.09337 40.2019 5.91286C40.2112 5.73235 40.2645 5.55679 40.3574 5.40133C40.461 5.21848 40.6201 5.07266 40.8119 4.98453C41.0036 4.8964 41.2185 4.87043 41.426 4.9103L56.8973 7.25146L60.4296 7.77754C61.4388 7.81261 62.4014 8.20802 63.1406 8.89115C64.3945 10.3116 63.7853 12.6791 63.6086 14.3626C62.5293 24.775 60.8546 35.118 58.5928 45.3416C58.2484 46.8936 58.0717 49.0068 57.1357 50.436C57.0054 50.6484 56.8515 50.8455 56.6766 51.0235C55.193 52.5404 52.6144 51.839 50.76 51.6549C45.6558 51.158 40.5811 50.474 35.5359 49.603C33.7697 49.2961 32.0036 49.0506 30.2375 48.7262C28.7539 48.4105 27.1556 48.2 26.2902 46.7883C25.7885 45.8429 25.5651 44.7763 25.6455 43.7106C25.6043 43.3365 25.5984 42.977 25.6279 42.6321ZM35.5535 49.5241C33.9993 49.2611 32.3922 49.0243 30.8115 48.7174C32.3922 49.0243 33.9993 49.226 35.5535 49.5241Z" fill="#1E1E1E"/>
<path d="M43.6514 12.2668C48.2025 13.2157 52.8096 13.8776 57.4449 14.2485C57.6189 14.2744 57.786 14.3341 57.9367 14.4241C58.0874 14.5142 58.2188 14.6328 58.3233 14.7732C58.5345 15.0569 58.6234 15.4122 58.5707 15.7611C58.518 16.1099 58.328 16.4237 58.0423 16.6333C57.7566 16.843 57.3988 16.9314 57.0475 16.879C52.4116 16.5131 47.8042 15.8511 43.2539 14.8973C41.5938 14.5203 41.947 11.916 43.6514 12.2668Z" fill="#1E1E1E"/>
<path d="M34.4586 16.02L57.0739 19.0187C58.7606 19.2467 58.3632 21.8422 56.6677 21.6493L34.0524 18.6505C32.3658 18.3962 32.7631 15.8008 34.4586 16.02Z" fill="#1E1E1E"/>
<path d="M45.4793 22.1668C48.9827 22.905 52.5485 23.3131 56.1291 23.3856C56.3014 23.4113 56.4669 23.4705 56.6161 23.5598C56.7654 23.6491 56.8954 23.7668 56.9987 23.906C57.1021 24.0453 57.1767 24.2035 57.2184 24.3715C57.2601 24.5395 57.268 24.714 57.2417 24.885C57.179 25.2248 56.9875 25.5279 56.7066 25.7318C56.4257 25.9357 56.0768 26.0249 55.7317 25.9811C52.1504 25.9177 48.5838 25.5095 45.082 24.7622C44.7381 24.7019 44.4307 24.5127 44.2236 24.2335C44.0164 23.9544 43.9254 23.6068 43.9693 23.2629C44.0279 22.921 44.2183 22.6153 44.5003 22.4106C44.7822 22.206 45.1335 22.1185 45.4793 22.1668Z" fill="#1E1E1E"/>
<path d="M43.5806 35.0128C47.0717 35.5973 50.5657 36.1205 54.0626 36.5823C55.7493 36.8103 55.352 39.4144 53.6653 39.2127C50.133 38.7334 46.639 38.2102 43.1833 37.6432C42.832 37.5909 42.516 37.4022 42.3049 37.1185C42.0937 36.8349 42.0047 36.4795 42.0574 36.1307C42.1101 35.7819 42.3001 35.4682 42.5858 35.2585C42.8715 35.0489 43.2293 34.9604 43.5806 35.0128Z" fill="#1E1E1E"/>
<path d="M31.8359 37.5027C39.077 38.6718 46.3387 39.7006 53.6211 40.5892C55.3077 40.7908 54.9104 43.3951 53.2149 43.2197C45.9384 42.3428 38.6767 41.314 31.4296 40.1332C31.0783 40.0797 30.7628 39.8898 30.5525 39.6054C30.3422 39.3209 30.2542 38.9651 30.3081 38.6163C30.362 38.2675 30.5533 37.9541 30.8398 37.7453C31.1263 37.5364 31.4846 37.4492 31.8359 37.5027Z" fill="#1E1E1E"/>
<path d="M31.2531 41.5626L38.4236 42.6937C38.7749 42.7472 39.0904 42.937 39.3007 43.2215C39.5111 43.506 39.599 43.8618 39.5451 44.2106C39.4913 44.5595 39.3 44.8728 39.0135 45.0816C38.727 45.2904 38.3687 45.3777 38.0174 45.3242L30.8556 44.1843C30.5043 44.132 30.1884 43.9432 29.9772 43.6596C29.7661 43.3759 29.6771 43.0206 29.7298 42.6718C29.7825 42.323 29.9726 42.0091 30.2582 41.7995C30.5439 41.5898 30.9018 41.5015 31.2531 41.5538V41.5626Z" fill="#1E1E1E"/>
<path d="M11.5342 2.56029C11.5715 2.29298 11.6645 2.03631 11.8075 1.8068C11.9504 1.57729 12.14 1.37999 12.3642 1.22747C12.6465 1.04883 12.9677 0.939701 13.301 0.909198C13.6343 0.878694 13.9701 0.927691 14.2805 1.05209C14.652 1.19883 14.9976 1.40303 15.3048 1.65711C15.5697 1.86756 15.8346 2.09554 16.0819 2.32352C16.5941 2.80578 17.071 3.31432 17.539 3.82288C17.8872 3.73952 18.2505 3.73952 18.5987 3.82288C18.87 3.89638 19.1268 4.01499 19.3582 4.17364C19.6461 3.87961 20.0258 3.6911 20.4355 3.63878C21.0412 3.61412 21.6448 3.72499 22.2016 3.96321C22.7295 4.19108 23.2052 4.52309 23.5998 4.93911C23.9945 5.35513 24.3 5.84649 24.4976 6.3833C24.6035 6.60251 24.7007 6.8305 24.8155 7.04971L24.9214 7.23381L24.9745 7.33025L25.0804 7.50563C25.3542 7.94405 25.6544 8.38248 25.9635 8.77706C26.2726 9.17164 26.6081 9.65389 26.9437 10.0309L27.1203 10.2414L27.1998 10.3115C27.5224 10.2371 27.8613 10.2852 28.1498 10.4466C28.4384 10.608 28.6555 10.8708 28.7585 11.1833C28.8616 11.4958 28.8431 11.8353 28.7066 12.1348C28.5701 12.4344 28.3254 12.6724 28.021 12.8018C27.45 12.9829 26.8349 12.9728 26.2702 12.7733C25.7054 12.5737 25.2223 12.1955 24.8949 11.697C24.2811 10.9666 23.7092 10.2026 23.1818 9.40841C22.8857 8.96172 22.6144 8.49921 22.3693 8.02299C22.2722 7.83885 22.184 7.64593 22.0956 7.4618L21.9366 7.13737L21.8572 6.97954L21.7601 6.8305C21.7062 6.75083 21.6471 6.67467 21.5834 6.60251H21.5216L21.4599 6.54112H21.4068L21.1155 6.41835H21.0359L20.8858 6.54112C20.771 6.62004 25.2571 13.0911 25.6633 13.6961C28.4891 17.8787 32.2156 21.4124 34.7676 25.7878C35.9311 27.7419 36.7466 29.8806 37.1784 32.1098C37.202 32.3393 37.1648 32.571 37.0704 32.7819C36.976 32.9928 36.8278 33.1756 36.6404 33.312C36.453 33.4485 36.2329 33.5339 36.002 33.5599C35.7711 33.5859 35.5374 33.5515 35.324 33.4601C31.7917 31.5749 29.2397 28.5323 26.9525 25.323C23.1023 19.9305 19.1197 14.6256 15.084 9.3733L14.6955 8.88227C14.6189 8.78274 14.5619 8.66967 14.5277 8.54907C14.3883 8.36443 14.2989 8.1474 14.268 7.91868C14.2371 7.68996 14.2657 7.45719 14.3511 7.24259C14.4419 6.99803 14.5511 6.76061 14.6779 6.53235C14.6072 6.53235 14.5277 6.47097 14.4571 6.42713C13.212 5.42753 11.2869 4.37535 11.5342 2.56029ZM22.387 14.8361C24.5417 17.528 26.661 20.2286 28.6568 23.0433C29.5398 24.2796 30.4229 25.5159 31.4208 26.6821C31.5356 26.4629 31.6681 26.2437 31.7917 26.0333L31.9065 25.9105C32.2597 25.5685 27.7208 20.4741 27.3764 20.0532C26.0518 18.4048 24.7272 16.7388 23.5085 15.0377C22.2899 13.3366 21.2302 11.6356 19.9763 10.0047C19.2698 8.9086 18.6517 7.69855 17.8746 6.64634C17.6185 6.72526 17.3977 7.04093 17.2299 7.26014C17.1778 7.32623 17.1443 7.40493 17.1328 7.48813C17.1371 7.60319 17.1844 7.71253 17.2653 7.795C18.1484 8.94366 18.9608 10.0835 19.7997 11.2322L21.0889 12.9859C21.4609 13.6398 21.8956 14.2565 22.387 14.8273V14.8361Z" fill="#1E1E1E"/>
<path d="M12.2211 55.1454L13.5757 51.7591L45.7455 42.2778L52.8568 63.9501L18.9938 75.4632L12.2211 55.1454Z" fill="white"/>
<path d="M21.381 62.8825L44.5052 56.8473C45.9908 56.4626 45.1085 54.2563 43.6448 54.6313L20.5133 60.6697C19.0309 61.0616 19.9059 63.2712 21.381 62.8825Z" fill="#1E1E1E"/>
<path d="M32.218 65.9642C32.3642 65.9068 32.4979 65.8213 32.6113 65.7126C32.7246 65.6039 32.8154 65.4742 32.8786 65.3308C32.9417 65.1874 32.976 65.0332 32.9793 64.877C32.9826 64.7208 32.955 64.5656 32.8981 64.4203C32.8411 64.275 32.7559 64.1425 32.6473 64.0302C32.5387 63.918 32.4087 63.8282 32.265 63.7661C32.1213 63.704 31.9665 63.6707 31.8096 63.6682C31.6526 63.6657 31.4965 63.694 31.3502 63.7514C28.8081 64.7017 26.1896 65.4327 23.5237 65.9362C23.2081 65.9694 22.9179 66.126 22.7171 66.3715C22.5163 66.6171 22.4214 66.9314 22.4531 67.2454C22.4848 67.5594 22.6406 67.8473 22.8863 68.0459C23.1319 68.2445 23.4473 68.3374 23.7629 68.3042C26.6411 67.7615 29.4694 66.9788 32.218 65.9642Z" fill="#1E1E1E"/>
<path d="M36.2064 64.2206C36.4899 64.3303 36.802 64.345 37.0956 64.2623L40.6113 63.3056C40.8996 63.1908 41.1332 62.9706 41.264 62.6903C41.3957 62.3958 41.4056 62.0621 41.2914 61.7617C41.1805 61.4736 40.9595 61.2413 40.6765 61.1153C40.3942 61.0008 40.0804 60.9861 39.7874 61.0736L36.2717 62.0303C36.1259 62.0845 35.9925 62.1672 35.8791 62.2734C35.7657 62.3797 35.6748 62.5073 35.6117 62.6489C35.5456 62.7913 35.5086 62.9452 35.5028 63.1017C35.497 63.2582 35.5225 63.4141 35.5778 63.5604C35.6332 63.7066 35.7173 63.8403 35.8252 63.9536C35.9331 64.067 36.0627 64.1578 36.2064 64.2206Z" fill="#1E1E1E"/>
<path d="M53.2717 59.7753C52.7072 58.0345 52.1144 56.2889 51.5207 54.561C51.392 54.33 51.2854 54.0873 51.2022 53.8363C51.0685 53.5319 51.0297 53.1858 50.9543 52.8557C50.9129 52.7615 50.8715 52.6673 50.8844 52.5578C50.8973 52.4484 50.8844 52.5578 50.8844 52.5578C50.8437 52.4837 50.8096 52.4061 50.7825 52.326L50.7539 52.2607C50.5671 51.677 50.2603 51.1373 50.0662 50.5568C49.9373 50.2401 49.827 49.9161 49.7357 49.5866C48.8592 47.0894 47.9588 44.6172 47.0345 42.1699C46.9701 41.9832 46.858 41.8166 46.7093 41.6865C46.5605 41.5563 46.3801 41.4671 46.1858 41.4274C46.0409 41.2767 45.8569 41.169 45.6539 41.1162C45.4509 41.0635 45.2369 41.0677 45.0356 41.1285C34.2434 44.0485 23.5097 47.1878 12.8347 50.5464C12.5312 50.6442 12.2785 50.8577 12.1323 51.14C11.9861 51.4224 11.9583 51.7504 12.0549 52.0519C12.1516 52.3534 12.3649 52.6037 12.6478 52.7478C12.9308 52.8919 13.2602 52.9179 13.5637 52.8201C23.9827 49.5395 34.468 46.469 45.0194 43.6086C46.703 48.1146 48.3126 52.6502 49.8481 57.2155C50.2322 58.387 50.6236 59.5552 51.0003 60.7299C51.1744 61.2847 51.359 61.8435 51.533 62.3982C51.5932 62.6745 51.6694 62.9471 51.7611 63.2146L51.4837 63.3364C49.144 64.2347 46.8021 65.108 44.4433 65.9627C39.6187 67.7193 34.7558 69.3889 29.8548 70.9715C27.414 71.7585 24.9563 72.527 22.4996 73.2778L20.79 73.7868L19.9604 74.0389C19.7757 73.6185 19.5496 73.1039 19.5018 72.9952L18.8109 70.9469C16.9607 65.4938 15.1168 60.0351 13.2791 54.5707C13.1825 54.2692 12.9692 54.0188 12.6863 53.8748C12.4033 53.7307 12.0739 53.7047 11.7704 53.8025C11.4669 53.9003 11.2143 54.1139 11.0681 54.3962C10.9219 54.6786 10.894 55.0066 10.9907 55.3081L16.4029 71.3131C16.8188 72.5571 17.2274 73.8043 17.6739 75.0781C18.1203 76.3519 18.6998 76.8582 19.9778 76.5561C22.7185 75.8967 25.4257 74.9234 28.1087 74.0732C33.4552 72.3813 38.7621 70.5859 44.0291 68.6868C46.6943 67.7234 49.3513 66.7347 52.0001 65.7208C53.0443 65.3226 54.2758 64.9544 54.2799 63.6556C54.2458 63.1164 54.1167 62.5877 53.8985 62.0938C53.7498 61.2599 53.5107 60.5176 53.2717 59.7753Z" fill="#1E1E1E"/>
<path d="M30.1549 52.9841C26.636 54.266 23.0288 55.2902 19.3622 56.0484C19.0482 56.0931 18.7628 56.2562 18.5653 56.504C18.3678 56.7518 18.2732 57.0652 18.3012 57.3793C18.3387 57.6942 18.4995 57.981 18.7489 58.1775C18.9982 58.3739 19.3159 58.4641 19.6329 58.4284C23.5092 57.633 27.323 56.5556 31.0436 55.205C32.4404 54.6778 31.6019 52.4521 30.1549 52.9841Z" fill="#1E1E1E"/>
<path d="M15.1046 47.1103C14.9838 46.8231 14.7568 46.5935 14.4704 46.4685C14.1839 46.3435 13.8596 46.3327 13.5641 46.4382C12.2243 46.7649 10.9043 47.1688 9.61085 47.6477C8.42575 48.0819 7.14836 48.6431 6.71019 49.9251C6.27201 51.2071 6.56821 52.6939 6.74379 53.9656C6.95861 55.4229 7.28221 56.8617 7.7119 58.27C7.82789 58.5611 8.0543 58.7946 8.34242 58.9202C8.63054 59.0459 8.95732 59.0538 9.25241 58.9421C9.54253 58.8271 9.77792 58.606 9.91011 58.3243C10.0423 58.0427 10.0612 57.7219 9.96307 57.4279C9.62166 56.3113 9.36226 55.1711 9.18692 54.0163C9.09633 53.4335 9.02037 52.8443 8.97265 52.26C8.88128 51.7728 8.87375 51.2732 8.95046 50.7825C8.97183 50.7048 9.01234 50.6335 9.06832 50.5751C9.18621 50.4709 9.31668 50.3816 9.45665 50.3094C9.93615 50.0773 10.4327 49.8823 10.942 49.726C12.0955 49.3147 13.2695 48.9634 14.4591 48.6736C14.6048 48.613 14.7371 48.5244 14.8485 48.4129C14.9599 48.3014 15.0481 48.1692 15.1081 48.0239C15.1681 47.8786 15.1987 47.7231 15.1981 47.5663C15.1975 47.4095 15.1657 47.2545 15.1046 47.1103Z" fill="#FBB03B"/>
<path d="M58.1437 60.4189C58.1371 60.2571 58.0974 60.0985 58.0269 59.9528C57.9565 59.8071 57.8568 59.6774 57.7339 59.5718C57.6111 59.4661 57.4677 59.3867 57.3126 59.3383C57.1575 59.29 56.9939 59.2738 56.8319 59.2907C56.67 59.3075 56.513 59.3572 56.3707 59.4365C56.2283 59.5158 56.1036 59.6232 56.0042 59.752C55.9048 59.8808 55.8328 60.0283 55.7926 60.1855C55.7524 60.3427 55.7449 60.5062 55.7705 60.6661C55.9299 61.3803 56.011 62.11 56.0126 62.8424C56.0191 62.8883 56.0191 62.9349 56.0125 62.9808C56.0105 63.0766 56.0031 63.1723 55.9903 63.2673C55.9623 63.4612 55.9343 63.6551 55.8958 63.8449L55.8481 64.0734C55.8248 64.1372 55.807 64.2029 55.795 64.2697L55.725 64.4474L55.6272 64.6806L55.4207 65.0826L55.2746 65.2851C55.1864 65.4045 55.0911 65.5186 54.9892 65.6267L54.9061 65.715L54.772 65.8259C54.6572 65.9229 54.537 66.0132 54.4119 66.0965L54.2805 66.1542L54.1564 66.2087C54.0104 66.2729 53.8718 66.3338 53.7258 66.3979L53.4385 66.4377C53.1228 66.4709 52.8327 66.6275 52.6319 66.873C52.4311 67.1185 52.3361 67.4328 52.3678 67.7468C52.3995 68.0608 52.5553 68.3488 52.801 68.5473C53.0466 68.7459 53.362 68.8388 53.6777 68.8055C54.5496 68.6781 55.3772 68.3376 56.0866 67.8147C56.796 67.2918 57.365 66.6026 57.7427 65.809C58.4796 64.1047 58.6209 62.2064 58.1437 60.4189Z" fill="#FBB03B"/>
<path d="M95.2338 37.9259L94.9928 37.7897C94.3222 37.4405 93.5757 37.2184 92.7933 37.135C91.2484 37.0045 89.6606 37.2964 88.2225 37.9755C87.9866 38.0824 87.7273 38.1253 87.4767 38.0988C87.2883 38.0763 87.1108 38.0154 86.9565 37.9203C86.8023 37.8252 86.6751 37.6983 86.5839 37.5484C86.4927 37.3986 86.4396 37.2294 86.4285 37.0527C86.4173 36.8761 86.4484 36.6963 86.5194 36.526C86.6516 36.2221 86.9044 35.9696 87.2226 35.8235C89.1332 34.9349 91.2385 34.5607 93.2829 34.7464C94.4024 34.8601 95.4699 35.1778 96.4252 35.6817L96.7612 35.8783C97.0027 36.0565 97.1571 36.3167 97.1944 36.6087C97.2317 36.9007 97.1493 37.2037 96.9631 37.459C96.7769 37.7143 96.5002 37.9037 96.1866 37.9906C95.873 38.0774 95.5447 38.0556 95.2654 37.9292L95.2338 37.9259Z" fill="#1E1E1E"/>
<path d="M85.554 59.6916C85.713 59.706 85.8635 59.7553 85.9966 59.8365C86.1296 59.9177 86.2425 60.0293 86.3283 60.1643C87.4538 61.8384 88.6911 63.4171 90.0324 64.8902L90.785 65.7182C91.0023 65.9562 91.111 66.2892 91.0871 66.6441C91.0576 66.9969 90.9027 67.3408 90.6545 67.6046C90.504 67.7629 90.3243 67.8846 90.1306 67.9595C89.9369 68.0345 89.7349 68.0605 89.5415 68.0353C89.2765 68.0115 89.0377 67.892 88.863 67.6957L88.0948 66.8438C86.6831 65.2978 85.3835 63.6376 84.2048 61.8747C84.0261 61.6014 83.9655 61.2493 84.0365 60.8958C84.0677 60.7204 84.1322 60.5495 84.2258 60.3938C84.3195 60.2381 84.4404 60.1012 84.5806 59.9917C84.723 59.8747 84.8829 59.7877 85.0504 59.7361C85.2179 59.6844 85.3894 59.6693 85.554 59.6916Z" fill="#1E1E1E"/>
<path d="M95.5234 50.4087C96.6635 49.0742 97.4356 47.5064 97.7611 45.8647C97.8484 45.4472 97.9088 45.0272 97.9419 44.6071C97.9654 44.2724 98.1279 43.9489 98.3935 43.7077C98.659 43.4665 99.006 43.3275 99.358 43.3211C99.7101 43.3147 100.038 43.4416 100.271 43.6738C100.503 43.9059 100.62 44.2244 100.597 44.5591C100.554 45.0868 100.479 45.6144 100.372 46.1391C99.9607 48.2365 98.9705 50.2385 97.5044 51.9357C97.3631 52.0897 97.2217 52.2436 97.0696 52.3964C96.9177 52.5565 96.7295 52.6818 96.5218 52.7612C96.3141 52.8406 96.0932 52.8717 95.8788 52.8516C95.6446 52.8256 95.4277 52.739 95.251 52.6013C95.0743 52.4635 94.9444 52.2796 94.8751 52.069C94.8058 51.8584 94.7996 51.629 94.8572 51.4051C94.9149 51.1812 95.0341 50.9711 95.2024 50.797L95.5234 50.4087Z" fill="#1E1E1E"/>
<path d="M96.6928 70.2584C98.7574 72.085 100.931 73.7948 103.136 75.3562C103.373 75.5159 103.541 75.7654 103.612 76.0629C103.683 76.3604 103.652 76.6878 103.525 76.9902C103.398 77.2926 103.182 77.5517 102.913 77.724C102.645 77.8963 102.341 77.9713 102.051 77.9366C101.859 77.916 101.679 77.8492 101.524 77.7412C99.2427 76.1367 97.0047 74.3736 94.8762 72.4936C94.6584 72.2613 94.541 71.9383 94.5476 71.5888C94.5542 71.2393 94.6841 70.8889 94.9117 70.6072C95.1392 70.3255 95.4476 70.1331 95.7757 70.0683C96.1038 70.0035 96.4275 70.071 96.6825 70.2574L96.6928 70.2584Z" fill="#1E1E1E"/>
<path d="M79.1452 56.2588C79.652 56.2536 80.1525 56.2244 80.631 56.1929C83.0292 56.0562 85.4339 55.5812 87.7764 54.7813C88.04 54.6866 88.3167 54.6721 88.5711 54.7394C88.8255 54.8068 89.046 54.953 89.2042 55.1593C89.3624 55.3657 89.4511 55.6226 89.459 55.8974C89.4669 56.1721 89.3936 56.452 89.2484 56.7011C89.0571 57.0335 88.7546 57.2908 88.4045 57.419C85.8158 58.2753 83.164 58.7829 80.5199 58.9282L78.9326 58.9952L78.7677 58.9778C78.4406 58.9281 78.1563 58.7539 77.9693 58.4887C77.7823 58.2235 77.7056 57.8859 77.7541 57.5406C77.8027 57.1953 77.9729 56.8667 78.2322 56.6175C78.4914 56.3683 78.8215 56.2161 79.1593 56.1902L79.1452 56.2588Z" fill="#1E1E1E"/>
<path d="M62.4046 56.8918C63.1618 56.8031 63.9433 56.7466 64.7288 56.7202C66.798 56.6407 68.9258 56.7257 70.8648 56.8305C71.0269 56.8341 71.1837 56.8691 71.3258 56.9334C71.4678 56.9977 71.5922 57.0899 71.6914 57.2045C71.7936 57.3204 71.8679 57.4572 71.9097 57.6063C71.9515 57.7554 71.9598 57.9138 71.9344 58.0717C71.9137 58.2272 71.8608 58.3799 71.7788 58.5208C71.6969 58.6617 71.5876 58.788 71.4572 58.8923C71.3269 58.9966 71.1781 59.0769 71.0197 59.1283C70.8613 59.1797 70.6964 59.2014 70.5346 59.1919C68.6559 59.0935 66.6407 59.0104 64.6338 59.0866C63.9086 59.1193 63.1794 59.1714 62.4864 59.247L62.2151 59.2185C61.9053 59.1974 61.6258 59.0641 61.4328 58.8456C61.2397 58.6271 61.1476 58.3396 61.1749 58.041C61.2023 57.7424 61.3471 57.4551 61.5801 57.2368C61.8132 57.0185 62.1171 56.8856 62.4307 56.8649L62.4046 56.8918Z" fill="#1E1E1E"/>
<path d="M82.4798 42.2168C82.782 42.3106 83.0222 42.5383 83.1486 42.8507C83.2749 43.1631 83.2772 43.535 83.1552 43.8863C82.9325 44.513 82.754 45.1519 82.6212 45.7967C82.2019 47.9393 82.1827 50.0953 82.5649 52.1273C82.6004 52.3441 82.5856 52.5746 82.5218 52.7984C82.4581 53.0223 82.3473 53.2327 82.1992 53.4113C82.0511 53.5898 81.8701 53.7311 81.6723 53.8226C81.4745 53.9141 81.2659 53.9531 81.0646 53.9362C80.8301 53.9099 80.6168 53.8073 80.4504 53.6408C80.2841 53.4743 80.1719 53.2512 80.1274 52.9982C79.686 50.6033 79.7143 48.0651 80.2106 45.5434C80.3696 44.7553 80.5842 43.974 80.8524 43.2072C80.9132 43.0309 81.0038 42.8651 81.1189 42.7196C81.234 42.574 81.3714 42.4515 81.5229 42.3593C81.6744 42.2671 81.837 42.207 82.0013 42.1826C82.1656 42.1581 82.3283 42.1697 82.4798 42.2168Z" fill="#1E1E1E"/>
</svg>
