<svg width="232" height="114" viewBox="0 0 232 114" fill="none" xmlns="http://www.w3.org/2000/svg">
<path d="M184.697 -92.695C208.57 -81.5861 231.034 -62.3354 231.969 -40.5863C232.904 -18.8373 212.309 5.42196 202.168 32.0252C191.873 58.4683 191.873 87.107 178.455 101.349C164.882 115.591 137.732 115.277 112.616 112.458C87.6546 109.485 64.5626 104.008 44.5945 91.9612C24.4666 79.9147 7.30883 61.293 2.00175 40.0068C-3.45915 18.5663 3.0963 -5.53268 11.5214 -28.065C20.1003 -50.5974 30.5547 -71.5691 47.4048 -85.028C64.2549 -98.4869 87.3469 -104.433 111.528 -105.685C135.708 -107.092 160.83 -103.964 184.697 -92.695Z" fill="#FBA43B"/>
<path d="M174.151 -15.3871C180.681 -2.60301 183.874 13.2095 176.976 22.8747C170.079 32.5399 153.087 36.0628 139.8 44.1002C126.502 52.0172 116.89 64.3312 106.344 65.9542C95.7316 67.5256 84.1698 58.2836 74.3232 48.6474C64.5944 38.9964 56.5094 28.8958 51.9717 17.0184C47.3653 5.08734 46.2419 -8.67464 51.1054 -19.6073C55.9545 -30.658 66.8596 -38.8212 78.0423 -45.6837C89.2911 -52.4947 100.822 -58.0054 112.58 -58.1406C124.338 -58.2758 136.257 -53.087 147.068 -45.5148C157.931 -38.0089 167.677 -28.238 174.151 -15.3871Z" fill="#FBB03B"/>
</svg>
