<svg width="232" height="101" viewBox="0 0 232 101" fill="none" xmlns="http://www.w3.org/2000/svg">
<path d="M184.697 13.305C208.57 24.4139 231.034 43.6646 231.969 65.4137C232.904 87.1627 212.309 111.422 202.168 138.025C191.873 164.468 191.873 193.107 178.455 207.349C164.882 221.591 137.732 221.277 112.616 218.458C87.6546 215.485 64.5626 210.008 44.5945 197.961C24.4666 185.915 7.30883 167.293 2.00175 146.007C-3.45915 124.566 3.0963 100.467 11.5214 77.935C20.1003 55.4026 30.5547 34.4309 47.4048 20.972C64.2549 7.51312 87.3469 1.56699 111.528 0.314862C135.708 -1.09156 160.83 2.0358 184.697 13.305Z" fill="#01A095"/>
<path d="M174.151 90.6129C180.681 103.397 183.874 119.21 176.976 128.875C170.079 138.54 153.087 142.063 139.8 150.1C126.502 158.017 116.89 170.331 106.344 171.954C95.7316 173.526 84.1698 164.284 74.3232 154.647C64.5944 144.996 56.5094 134.896 51.9717 123.018C47.3653 111.087 46.2419 97.3254 51.1054 86.3927C55.9545 75.342 66.8596 67.1788 78.0423 60.3163C89.2911 53.5053 100.822 47.9946 112.58 47.8594C124.338 47.7242 136.257 52.913 147.068 60.4852C157.931 67.9911 167.677 77.762 174.151 90.6129Z" fill="#00A99D"/>
</svg>
