<svg width="232" height="132" viewBox="0 0 232 132" fill="none" xmlns="http://www.w3.org/2000/svg">
<path d="M184.697 -74.695C208.57 -63.5861 231.034 -44.3354 231.969 -22.5863C232.904 -0.83728 212.309 23.422 202.168 50.0252C191.873 76.4683 191.873 105.107 178.455 119.349C164.882 133.591 137.732 133.277 112.616 130.458C87.6546 127.485 64.5626 122.008 44.5945 109.961C24.4666 97.9147 7.30883 79.293 2.00175 58.0068C-3.45915 36.5663 3.0963 12.4673 11.5214 -10.065C20.1003 -32.5974 30.5547 -53.5691 47.4048 -67.028C64.2549 -80.4869 87.3469 -86.433 111.528 -87.6851C135.708 -89.0916 160.83 -85.9642 184.697 -74.695Z" fill="#01A095"/>
<path d="M174.151 2.61294C180.681 15.397 183.874 31.2095 176.976 40.8747C170.079 50.5399 153.087 54.0628 139.8 62.1002C126.502 70.0172 116.89 82.3312 106.344 83.9542C95.7316 85.5256 84.1698 76.2836 74.3232 66.6474C64.5944 56.9964 56.5094 46.8958 51.9717 35.0184C47.3653 23.0873 46.2419 9.32536 51.1054 -1.60733C55.9545 -12.658 66.8596 -20.8212 78.0423 -27.6837C89.2911 -34.4947 100.822 -40.0054 112.58 -40.1406C124.338 -40.2758 136.257 -35.087 147.068 -27.5148C157.931 -20.0089 167.677 -10.238 174.151 2.61294Z" fill="#00A99D"/>
</svg>
