<svg width="311" height="82" viewBox="0 0 311 82" fill="none" xmlns="http://www.w3.org/2000/svg">
<rect width="311" height="82" rx="8" fill="#FBB03B"/>
<path d="M210.119 19.9502L210.617 21.6907C210.793 22.3069 210.97 22.9362 211.134 23.555C211.286 24.0974 211.36 25.0717 212.129 24.9874C212.489 24.9558 212.678 24.6846 212.912 24.445C213.076 24.2686 213.252 24.0895 213.409 23.8999C213.792 23.4839 214.175 23.0573 214.531 22.6228C215.24 21.7785 215.851 20.8467 216.351 19.8475C216.38 19.7712 216.394 19.6895 216.392 19.6074C216.391 19.5252 216.374 19.4442 216.342 19.3692C216.31 19.2942 216.264 19.2268 216.207 19.1709C216.15 19.1151 216.083 19.0721 216.01 19.0444C215.98 19.0383 215.948 19.0383 215.918 19.0444C215.834 18.9794 215.737 18.9345 215.635 18.9127C213.954 18.5467 212.268 18.1702 210.574 17.8068C210.44 17.7902 210.304 17.8196 210.187 17.8906C210.07 17.9617 209.977 18.0708 209.923 18.2017C209.674 18.7731 209.963 19.384 210.119 19.9502ZM214.856 20.0081C214.497 20.629 214.089 21.2173 213.638 21.7671C213.337 22.1436 213.021 22.4964 212.703 22.8493C212.584 22.9809 212.454 23.1126 212.345 23.2601C212.293 23.0784 212.243 22.8967 212.191 22.715L211.785 21.2668C211.654 20.7954 211.537 20.3346 211.397 19.8633C211.34 19.6447 211.273 19.4288 211.216 19.2103C212.429 19.4736 213.64 19.7343 214.856 20.0081Z" fill="white" fill-opacity="0.4"/>
<path d="M29.3137 14.6772L29.811 16.4177C29.9875 17.0339 30.1641 17.6632 30.3282 18.282C30.4799 18.8245 30.5545 19.7987 31.3228 19.7145C31.6834 19.6829 31.8724 19.4117 32.1062 19.172C32.2703 18.9956 32.4468 18.8166 32.6035 18.627C32.9864 18.2109 33.3693 17.7844 33.7249 17.3499C34.4347 16.5055 35.0458 15.5737 35.5451 14.5745C35.574 14.4983 35.5882 14.4166 35.5867 14.3344C35.5851 14.2522 35.568 14.1712 35.5361 14.0962C35.5043 14.0212 35.4586 13.9538 35.4016 13.898C35.3446 13.8422 35.2775 13.7991 35.2044 13.7714C35.174 13.7654 35.1428 13.7654 35.1124 13.7714C35.028 13.7065 34.9313 13.6616 34.829 13.6398C33.148 13.2737 31.4621 12.8972 29.7687 12.5338C29.6345 12.5172 29.4988 12.5466 29.3815 12.6177C29.2643 12.6888 29.1717 12.7978 29.1173 12.9288C28.8686 13.5002 29.157 14.1111 29.3137 14.6772ZM34.0506 14.7352C33.6909 15.356 33.2834 15.9443 32.8322 16.4941C32.5313 16.8707 32.2155 17.2235 31.8973 17.5763C31.7779 17.708 31.6486 17.8397 31.5392 17.9871C31.487 17.8054 31.4372 17.6237 31.385 17.442L30.9797 15.9938C30.8479 15.5225 30.731 15.0617 30.5918 14.5903C30.5346 14.3718 30.4675 14.1559 30.4103 13.9373C31.6237 14.2006 32.8347 14.4613 34.0506 14.7352Z" fill="white" fill-opacity="0.4"/>
<path d="M251.887 67.9603L253.546 68.1286C254.133 68.1877 254.731 68.2519 255.316 68.3245C255.832 68.3803 256.681 68.6804 256.907 67.8716C257.019 67.4952 256.863 67.1997 256.751 66.8711C256.666 66.6373 256.583 66.39 256.484 66.1586C256.281 65.6114 256.069 65.0601 255.84 64.5334C255.402 63.4909 254.852 62.5143 254.202 61.6248C254.149 61.5661 254.086 61.5203 254.016 61.4902C253.946 61.4601 253.871 61.4462 253.796 61.4494C253.72 61.4527 253.646 61.4729 253.577 61.509C253.508 61.5451 253.446 61.5962 253.394 61.6594C253.377 61.6878 253.365 61.7193 253.359 61.7524C253.271 61.8127 253.196 61.893 253.138 61.988C252.182 63.5453 251.215 65.1036 250.256 66.6745C250.19 66.8037 250.163 66.9521 250.178 67.098C250.192 67.2439 250.249 67.3795 250.338 67.4849C250.724 67.9564 251.35 67.9004 251.887 67.9603ZM253.762 63.1966C254.146 63.7993 254.485 64.4377 254.774 65.1055C254.976 65.5546 255.151 66.0097 255.326 66.4672C255.391 66.6386 255.452 66.8199 255.534 66.9873C255.361 66.9701 255.189 66.9503 255.015 66.933L253.639 66.7844C253.191 66.7359 252.757 66.6764 252.307 66.6354C252.1 66.609 251.892 66.5936 251.686 66.5672C252.376 65.4426 253.062 64.3196 253.762 63.1966Z" fill="white" fill-opacity="0.4"/>
<path d="M62.0253 71.9447L63.6838 72.113C64.2711 72.1721 64.8695 72.2362 65.4542 72.3088C65.9698 72.3646 66.8196 72.6647 67.0447 71.856C67.157 71.4795 67.0013 71.184 66.8895 70.8556C66.804 70.6218 66.7212 70.3744 66.6218 70.143C66.4188 69.5958 66.2068 69.0446 65.9777 68.5179C65.5397 67.4754 64.99 66.4989 64.3404 65.6094C64.2872 65.5508 64.2239 65.505 64.154 65.4749C64.0842 65.4447 64.0093 65.4309 63.9338 65.4341C63.8584 65.4373 63.7839 65.4576 63.7149 65.4937C63.6459 65.5298 63.5838 65.5809 63.5323 65.6441C63.5154 65.6724 63.5034 65.704 63.4968 65.737C63.4095 65.7973 63.3344 65.8777 63.2766 65.9727C62.3203 67.5299 61.3533 69.0881 60.3944 70.6589C60.3287 70.7881 60.3011 70.9365 60.3159 71.0824C60.3306 71.2283 60.3868 71.3638 60.4762 71.4693C60.8619 71.9407 61.4879 71.8848 62.0253 71.9447ZM63.8998 67.1812C64.2844 67.7838 64.6231 68.4223 64.9125 69.09C65.1139 69.5391 65.2895 69.9941 65.4642 70.4517C65.5292 70.623 65.5903 70.8043 65.6724 70.9717C65.4992 70.9544 65.3269 70.9347 65.1536 70.9174L63.7769 70.7688C63.3289 70.7203 62.8956 70.6608 62.4447 70.6199C62.2385 70.5934 62.0306 70.578 61.8244 70.5516C62.514 69.4271 63.2004 68.3041 63.8998 67.1812Z" fill="white" fill-opacity="0.4"/>
<path d="M281.419 17.8145L282.864 18.7216C283.376 19.0423 283.896 19.3727 284.4 19.7046C284.848 19.9897 285.507 20.6491 286.019 20.0156C286.264 19.7241 286.234 19.3845 286.257 19.0348C286.268 18.7832 286.286 18.5205 286.284 18.2649C286.306 17.6747 286.323 17.0769 286.314 16.4935C286.311 15.3459 286.181 14.2075 285.927 13.103C285.901 13.0255 285.861 12.955 285.809 12.8958C285.757 12.8367 285.694 12.79 285.624 12.7587C285.554 12.7273 285.479 12.7119 285.402 12.7134C285.326 12.7148 285.25 12.7331 285.179 12.7671C285.153 12.7853 285.13 12.8086 285.111 12.8356C285.009 12.8508 284.91 12.8898 284.822 12.9499C283.361 13.932 281.891 14.9101 280.423 15.9033C280.314 15.991 280.233 16.1135 280.191 16.2529C280.149 16.3923 280.149 16.5412 280.19 16.6778C280.362 17.282 280.953 17.5157 281.419 17.8145ZM284.93 14.3327C285.052 15.0558 285.118 15.7907 285.128 16.5298C285.141 17.0299 285.128 17.5237 285.114 18.0194C285.108 18.2048 285.095 18.3976 285.106 18.5872C284.955 18.4928 284.805 18.3965 284.654 18.302L283.458 17.541C283.069 17.2932 282.697 17.0421 282.303 16.7998C282.125 16.682 281.942 16.5735 281.764 16.4557C282.818 15.7461 283.868 15.0364 284.93 14.3327Z" fill="white" fill-opacity="0.4"/>
<path d="M22.2505 63.3511L23.6954 64.2581C24.2073 64.5788 24.7274 64.9092 25.2318 65.2411C25.6797 65.5262 26.339 66.1855 26.8505 65.552C27.0954 65.2606 27.0658 64.921 27.0886 64.5713C27.0995 64.3198 27.1179 64.057 27.1152 63.8014C27.138 63.2113 27.1542 62.6135 27.1455 62.0301C27.1423 60.8826 27.0125 59.7443 26.7587 58.6397C26.7327 58.5622 26.6924 58.4918 26.6402 58.4326C26.5881 58.3735 26.5253 58.3268 26.4554 58.2955C26.3855 58.2641 26.3101 58.2487 26.2336 58.2502C26.1572 58.2516 26.0813 58.2699 26.0105 58.3039C25.9844 58.3221 25.9615 58.3453 25.9429 58.3724C25.8407 58.3876 25.7419 58.4265 25.6533 58.4867C24.1928 59.4687 22.7222 60.4467 21.2543 61.44C21.1455 61.5276 21.0642 61.6502 21.0222 61.7896C20.9803 61.929 20.9801 62.0778 21.0214 62.2144C21.1935 62.8186 21.7842 63.0523 22.2505 63.3511ZM25.7619 59.8694C25.8833 60.5925 25.9494 61.3273 25.9595 62.0664C25.9724 62.5665 25.9597 63.0603 25.9451 63.556C25.9392 63.7414 25.9261 63.9342 25.9373 64.1237C25.7863 64.0293 25.637 63.933 25.4859 63.8386L24.2899 63.0775C23.9007 62.8298 23.529 62.5786 23.1343 62.3364C22.9567 62.2186 22.7735 62.1102 22.5959 61.9924C23.6496 61.2828 24.6999 60.5731 25.7619 59.8694Z" fill="white" fill-opacity="0.4"/>
<path d="M180.727 70.0621L182.172 70.9691C182.684 71.2899 183.204 71.6202 183.708 71.9521C184.156 72.2373 184.816 72.8966 185.327 72.2631C185.572 71.9717 185.542 71.6321 185.565 71.2824C185.576 71.0308 185.595 70.7681 185.592 70.5124C185.615 69.9223 185.631 69.3244 185.622 68.7411C185.619 67.5935 185.489 66.4551 185.235 65.3505C185.209 65.273 185.169 65.2026 185.117 65.1434C185.065 65.0842 185.002 65.0376 184.932 65.0062C184.862 64.9749 184.787 64.9595 184.71 64.9609C184.634 64.9624 184.558 64.9807 184.487 65.0147C184.461 65.0329 184.438 65.0561 184.419 65.0832C184.317 65.0984 184.218 65.1373 184.13 65.1975C182.669 66.1795 181.199 67.1576 179.731 68.1509C179.622 68.2385 179.541 68.3611 179.499 68.5005C179.457 68.6399 179.457 68.7888 179.498 68.9254C179.67 69.5296 180.261 69.7633 180.727 70.0621ZM184.239 66.5803C184.36 67.3034 184.426 68.0382 184.436 68.7773C184.449 69.2775 184.436 69.7713 184.422 70.267C184.416 70.4524 184.403 70.6452 184.414 70.8348C184.263 70.7403 184.114 70.644 183.963 70.5496L182.766 69.7885C182.377 69.5407 182.006 69.2896 181.611 69.0474C181.433 68.9296 181.25 68.8211 181.072 68.7033C182.126 67.9937 183.176 67.284 184.239 66.5803Z" fill="white" fill-opacity="0.4"/>
<path d="M242.455 12.0621L243.9 12.9691C244.412 13.2899 244.932 13.6202 245.436 13.9521C245.884 14.2373 246.544 14.8966 247.055 14.2631C247.3 13.9717 247.27 13.6321 247.293 13.2824C247.304 13.0308 247.323 12.7681 247.32 12.5124C247.343 11.9223 247.359 11.3244 247.35 10.7411C247.347 9.59349 247.217 8.45508 246.963 7.35052C246.937 7.27301 246.897 7.20256 246.845 7.1434C246.793 7.08425 246.73 7.03757 246.66 7.00622C246.59 6.97486 246.515 6.95946 246.438 6.96092C246.362 6.96238 246.286 6.98067 246.215 7.0147C246.189 7.03287 246.166 7.05611 246.148 7.08318C246.045 7.09835 245.946 7.13732 245.858 7.19746C244.397 8.17954 242.927 9.15761 241.459 10.1509C241.35 10.2385 241.269 10.3611 241.227 10.5005C241.185 10.6399 241.185 10.7888 241.226 10.9254C241.398 11.5296 241.989 11.7633 242.455 12.0621ZM245.967 8.58025C246.088 9.3034 246.154 10.0382 246.164 10.7773C246.177 11.2775 246.164 11.7713 246.15 12.267C246.144 12.4524 246.131 12.6452 246.142 12.8348C245.991 12.7403 245.842 12.644 245.691 12.5496L244.494 11.7885C244.105 11.5407 243.734 11.2896 243.339 11.0474C243.161 10.9296 242.978 10.8211 242.801 10.7033C243.854 9.99368 244.904 9.284 245.967 8.58025Z" fill="white" fill-opacity="0.4"/>
<path d="M112.434 68.6241L113.879 69.5311C114.391 69.8519 114.911 70.1822 115.415 70.5142C115.863 70.7993 116.523 71.4586 117.034 70.8251C117.279 70.5337 117.249 70.1941 117.272 69.8444C117.283 69.5928 117.302 69.3301 117.299 69.0744C117.322 68.4843 117.338 67.8864 117.329 67.3031C117.326 66.1555 117.196 65.0171 116.942 63.9125C116.916 63.835 116.876 63.7646 116.824 63.7054C116.772 63.6463 116.709 63.5996 116.639 63.5682C116.569 63.5369 116.494 63.5215 116.417 63.5229C116.341 63.5244 116.265 63.5427 116.194 63.5767C116.168 63.5949 116.145 63.6181 116.127 63.6452C116.024 63.6604 115.925 63.6993 115.837 63.7595C114.376 64.7416 112.906 65.7196 111.438 66.7129C111.329 66.8005 111.248 66.9231 111.206 67.0625C111.164 67.2019 111.164 67.3508 111.205 67.4874C111.377 68.0916 111.968 68.3253 112.434 68.6241ZM115.946 65.1423C116.067 65.8654 116.133 66.6003 116.143 67.3393C116.156 67.8395 116.143 68.3333 116.129 68.829C116.123 69.0144 116.11 69.2072 116.121 69.3968C115.97 69.3023 115.821 69.206 115.67 69.1116L114.473 68.3505C114.084 68.1028 113.713 67.8516 113.318 67.6094C113.14 67.4916 112.957 67.3831 112.78 67.2653C113.833 66.5557 114.883 65.846 115.946 65.1423Z" fill="white" fill-opacity="0.4"/>
<path d="M159.714 13.9796L161.159 14.8866C161.671 15.2073 162.191 15.5377 162.696 15.8696C163.144 16.1548 163.803 16.8141 164.314 16.1806C164.559 15.8892 164.53 15.5495 164.552 15.1998C164.563 14.9483 164.582 14.6856 164.579 14.4299C164.602 13.8397 164.618 13.2419 164.609 12.6586C164.606 11.511 164.476 10.3726 164.223 9.268C164.197 9.19049 164.156 9.12004 164.104 9.06088C164.052 9.00173 163.989 8.95505 163.919 8.9237C163.849 8.89234 163.774 8.87694 163.698 8.8784C163.621 8.87986 163.545 8.89815 163.474 8.93218C163.448 8.95035 163.425 8.97359 163.407 9.00066C163.305 9.01583 163.206 9.0548 163.117 9.11494C161.657 10.097 160.186 11.0751 158.718 12.0684C158.609 12.156 158.528 12.2786 158.486 12.418C158.444 12.5574 158.444 12.7063 158.485 12.8428C158.657 13.4471 159.248 13.6807 159.714 13.9796ZM163.226 10.4977C163.347 11.2209 163.413 11.9557 163.423 12.6948C163.436 13.1949 163.424 13.6888 163.409 14.1845C163.403 14.3699 163.39 14.5627 163.401 14.7523C163.25 14.6578 163.101 14.5615 162.95 14.4671L161.754 13.706C161.365 13.4582 160.993 13.2071 160.598 12.9649C160.421 12.8471 160.237 12.7386 160.06 12.6208C161.114 11.9112 162.164 11.2015 163.226 10.4977Z" fill="white" fill-opacity="0.4"/>
<path d="M82.2261 24.0455L83.671 24.9525C84.1829 25.2733 84.703 25.6036 85.2074 25.9355C85.6553 26.2207 86.3146 26.88 86.8261 26.2465C87.071 25.9551 87.0414 25.6155 87.0642 25.2658C87.0751 25.0142 87.0935 24.7515 87.0908 24.4958C87.1136 23.9057 87.1298 23.3078 87.1211 22.7245C87.1179 21.5769 86.9881 20.4385 86.7343 19.3339C86.7083 19.2564 86.668 19.186 86.6158 19.1268C86.5637 19.0676 86.5008 19.021 86.431 18.9896C86.3611 18.9583 86.2857 18.9429 86.2092 18.9443C86.1328 18.9458 86.0569 18.9641 85.986 18.9981C85.96 19.0163 85.9371 19.0395 85.9185 19.0666C85.8163 19.0818 85.7175 19.1207 85.6289 19.1809C84.1684 20.1629 82.6978 21.141 81.2299 22.1343C81.1211 22.2219 81.0397 22.3445 80.9978 22.4839C80.9559 22.6233 80.9556 22.7722 80.997 22.9088C81.1691 23.513 81.7598 23.7467 82.2261 24.0455ZM85.7375 20.5637C85.8589 21.2868 85.925 22.0216 85.9351 22.7607C85.948 23.2609 85.9353 23.7547 85.9207 24.2504C85.9148 24.4358 85.9017 24.6286 85.9129 24.8182C85.7618 24.7237 85.6126 24.6274 85.4615 24.533L84.2655 23.7719C83.8763 23.5241 83.5046 23.273 83.1099 23.0308C82.9323 22.913 82.7491 22.8045 82.5715 22.6867C83.6252 21.9771 84.6755 21.2674 85.7375 20.5637Z" fill="white" fill-opacity="0.4"/>
<path d="M16.6304 52.8357L17.9427 34.9473H24.942L40.4717 38.525L39.378 54.8801L16.6304 52.8357Z" fill="white"/>
<path d="M21.2574 44.9775C26.2874 45.9212 31.3173 46.8648 36.3473 47.8084C37.3156 47.9924 37.3768 46.212 36.4136 46.028C31.3836 45.0843 26.3536 44.1407 21.3236 43.1971C20.3554 43.019 20.2942 44.7995 21.2574 44.9775Z" fill="#1E1E1E"/>
<path d="M26.8065 50.3602C27.2192 50.4076 27.5862 49.9685 27.6015 49.5055C27.6219 49.0011 27.2804 48.6272 26.8676 48.5797C25.1451 48.3839 23.3971 48.2592 21.7255 47.7192C21.328 47.5886 20.8948 47.82 20.7623 48.2948C20.64 48.7399 20.8541 49.286 21.2567 49.4165C23.0658 49.9922 24.9463 50.1465 26.8065 50.3602Z" fill="#1E1E1E"/>
<path d="M29.5877 50.366C29.7406 50.55 29.9088 50.6212 30.1228 50.6627C30.8923 50.7992 31.6568 50.9357 32.4263 51.0663C32.6047 51.096 32.8391 50.9713 32.9665 50.8408C33.1092 50.6924 33.2213 50.4431 33.2213 50.2176C33.2213 49.9921 33.1652 49.7547 33.0277 49.5885C32.8748 49.4045 32.7066 49.3333 32.4925 49.2918C31.723 49.1553 30.9586 49.0188 30.1891 48.8882C30.0107 48.8585 29.7763 48.9832 29.6489 49.1137C29.5062 49.2621 29.394 49.5173 29.394 49.7369C29.394 49.9565 29.445 50.1998 29.5877 50.366Z" fill="#1E1E1E"/>
<path d="M40.7186 52.4607C40.8358 51.0897 40.9377 49.7188 41.0396 48.3478C41.0295 48.1579 41.0295 47.9621 41.0447 47.7662C41.0702 47.517 41.111 47.2677 41.1518 47.0184C41.162 46.9413 41.1772 46.8641 41.1874 46.7929C41.1874 46.8048 41.1874 46.7929 41.1874 46.781C41.1874 46.7217 41.1925 46.6564 41.2027 46.5911C41.2078 46.5733 41.2078 46.5555 41.2129 46.5377C41.2588 46.0807 41.2333 45.6178 41.2486 45.1608C41.2588 44.9056 41.2741 44.6504 41.3097 44.3952C41.4321 42.4249 41.5442 40.4604 41.6308 38.4901C41.6461 38.1459 41.5136 37.8847 41.325 37.7245C41.2384 37.4515 41.0396 37.2319 40.7288 37.1726C33.6603 35.9203 26.5715 34.8342 19.4622 33.9262C18.4837 33.8016 18.3258 35.5702 19.3042 35.6948C26.2453 36.585 33.1711 37.6414 40.0816 38.858C39.9134 42.4724 39.6942 46.0689 39.4139 49.6654C39.3426 50.5853 39.2662 51.5052 39.1846 52.4251C39.1489 52.8583 39.1082 53.2975 39.0674 53.7307C39.0521 53.8731 38.9859 54.1699 38.991 54.3598C38.9247 54.3539 38.8585 54.3539 38.7973 54.3479C37.1971 54.2589 35.5969 54.1521 34.0018 54.0334C30.7198 53.7841 27.448 53.4636 24.1762 53.0719C22.5403 52.8761 20.9095 52.6624 19.2788 52.431C18.9016 52.3776 18.5245 52.3242 18.1474 52.2708C17.9639 52.2411 17.7805 52.2173 17.597 52.1877C17.6174 51.8434 17.6123 51.428 17.6225 51.339C17.6632 50.7989 17.704 50.2648 17.7448 49.7247C18.0709 45.422 18.392 41.1133 18.7182 36.8105C18.8048 35.671 17.2861 35.4871 17.1995 36.6266C16.8784 40.8343 16.5625 45.0362 16.2465 49.244C16.1752 50.2232 16.0885 51.2025 16.0274 52.1758C15.9713 53.0719 16.1701 53.707 16.9956 53.885C18.7691 54.2589 20.6038 54.4073 22.3925 54.6328C25.9548 55.0839 29.5222 55.4518 33.0946 55.7367C34.9038 55.8791 36.7129 56.0038 38.5221 56.1046C39.2356 56.1462 40.0306 56.2649 40.3924 55.3747C40.5351 55.0186 40.5351 54.5794 40.5708 54.1996C40.6167 53.6239 40.6676 53.0423 40.7186 52.4607Z" fill="#1E1E1E"/>
<path d="M28.9356 40.8288C26.5455 40.6448 24.1706 40.271 21.8315 39.6834C21.4289 39.5825 21.0059 39.7665 20.8683 40.2591C20.7511 40.6805 20.9549 41.2799 21.3626 41.3808C23.8394 42.0039 26.3467 42.4194 28.8694 42.6152C29.8529 42.6805 29.9192 40.9 28.9356 40.8288Z" fill="#1E1E1E"/>
<path d="M21.6374 32.2583C21.6577 31.7242 21.3163 31.4156 20.9035 31.3325C20.0371 31.1545 19.1606 31.0298 18.284 30.9705C17.4788 30.9111 16.587 30.9111 15.9958 31.6589C15.4251 32.383 15.2059 33.5165 14.9868 34.4424C14.7371 35.5047 14.5587 36.5967 14.4415 37.6887C14.3905 38.1635 14.7829 38.5967 15.1753 38.6145C15.6136 38.6383 15.9194 38.2406 15.9704 37.7599C16.0621 36.8875 16.1997 36.0329 16.3933 35.1842C16.4902 34.7569 16.6023 34.3355 16.7195 33.9142C16.8163 33.5699 16.8979 33.1545 17.0864 32.8934C17.117 32.8518 17.168 32.8043 17.2087 32.7865C17.2801 32.7509 17.4381 32.7272 17.5043 32.7213C17.8356 32.6975 18.177 32.7391 18.5083 32.7687C19.288 32.834 20.0677 32.9527 20.8373 33.107C21.2501 33.196 21.6221 32.6975 21.6374 32.2583Z" fill="#FBB03B"/>
<path d="M43.4105 54.3719C43.4869 53.9149 43.3493 53.3867 42.9161 53.2502C42.5543 53.1375 42.0396 53.3333 41.953 53.8259C41.8612 54.366 41.7236 54.8882 41.5402 55.3986C41.53 55.4283 41.5096 55.4758 41.5045 55.4876C41.4739 55.5529 41.4433 55.6182 41.4128 55.6776C41.3516 55.8022 41.2854 55.9268 41.2089 56.0455C41.1783 56.093 41.1529 56.1405 41.1223 56.1879C41.1223 56.1879 41.0611 56.277 41.0407 56.3066C41.0153 56.3363 40.9643 56.4016 40.9541 56.4075C40.9184 56.4491 40.8777 56.4966 40.8369 56.5381C40.7655 56.6153 40.6891 56.6805 40.6127 56.7518C40.6025 56.7636 40.6025 56.7636 40.5974 56.7696C40.5923 56.7696 40.5974 56.7696 40.5872 56.7755C40.5413 56.8052 40.4954 56.8408 40.4496 56.8705C40.3629 56.9239 40.2814 56.9773 40.1897 57.0188C40.1642 57.0307 40.1336 57.0426 40.1234 57.0544C40.0877 57.0663 40.0521 57.0841 40.0164 57.096C39.9247 57.1256 39.8329 57.1494 39.7361 57.1672C39.7361 57.1672 39.68 57.1731 39.6444 57.1791C39.6138 57.1791 39.5679 57.185 39.5577 57.185C39.4558 57.185 39.3539 57.1672 39.2571 57.1613C39.1959 57.1435 39.1398 57.1256 39.0787 57.1019C38.6965 56.9654 38.2276 57.2087 38.1155 57.6776C38.0085 58.1405 38.2021 58.6509 38.6098 58.7993C39.7106 59.2028 40.8878 58.8052 41.7593 57.9684C42.6817 57.0722 43.1761 55.7013 43.4105 54.3719Z" fill="#FBB03B"/>
<path d="M142.4 35.2026L139.556 36.9915L138.025 47.7246L139.556 51.3023L167.554 56.4132L169.303 54.6244L171.053 47.7246L172.147 40.5692L142.4 35.2026Z" fill="white"/>
<path d="M172.763 41.2081C172.758 41.1309 172.758 41.0478 172.748 40.9766C172.59 39.576 170.883 39.1783 168.834 38.8282C168.513 38.7748 168.202 38.7214 167.922 38.662C165.736 38.2169 146.248 34.9706 144.041 34.7569C141.946 34.5551 140.259 34.5254 139.25 36.027C138.751 36.7747 138.542 37.7184 138.328 38.8757C138.088 40.1457 137.885 41.4454 137.691 42.668C137.268 45.3862 137.242 45.4989 136.947 48.3714C136.881 49.0302 137.431 49.2082 137.676 49.2557L138.527 49.4219L138.72 48.7572C138.741 48.6859 138.751 48.6207 138.761 48.5672C139.036 45.9144 139.026 46.0153 139.403 43.5048C139.587 42.2763 139.785 41.0538 140 39.8312C140.015 39.7303 140.035 39.5997 140.05 39.4573C140.168 38.573 140.321 37.3564 141.029 36.7451C141.426 36.4008 141.926 36.3356 142.42 36.3593C142.685 36.3712 142.945 36.4068 143.185 36.4424C143.297 36.4602 143.399 36.4721 143.48 36.4839C144.673 36.5908 145.881 36.7332 147.068 36.9112C148.25 37.0834 166.714 40.211 167.896 40.4543C168.426 40.5612 168.961 40.6799 169.491 40.7986C169.563 40.8164 169.655 40.8282 169.756 40.846C169.863 40.8638 169.981 40.8816 170.098 40.9054L170.974 41.0775L170.888 42.763C170.847 43.4039 170.801 44.039 170.74 44.674C170.618 46.0034 170.45 47.3447 170.241 48.6622C169.802 51.4278 169.588 51.1192 168.895 53.3151L168.859 53.416C168.645 54.1044 168.324 55.149 167.514 55.422C166.969 55.6059 166.362 55.422 165.878 55.2736C165.776 55.2439 165.679 55.2142 165.598 55.1964L138.904 50.0984L138.7 50.0569L138.43 50.8165C138.394 50.9174 138.389 50.959 138.384 50.9708C138.359 51.2616 138.471 51.4694 138.624 51.6237C138.873 51.8729 139.235 51.962 139.296 51.9798L145.911 53.505C146.258 53.5822 163.88 56.5971 164.242 56.692C165.944 57.1431 167.703 57.606 168.977 56.6623C170.169 55.7721 170.623 54.0213 171.061 52.3299L171.132 52.045C171.739 49.7127 171.871 50.0806 172.203 47.7898C172.356 46.7096 172.483 45.6058 172.58 44.5138C172.6 44.2586 172.626 44.0034 172.656 43.7422C172.738 42.8817 172.824 41.9974 172.763 41.2081Z" fill="#1E1E1E"/>
<path d="M165.821 45.908C164.684 47.0178 163.461 47.9733 162.172 48.8101C161.463 47.1721 160.76 45.5282 160.052 43.8902C159.878 43.4866 159.318 43.3145 159.002 43.5816C157.616 44.7626 156.189 45.8665 154.716 46.8991C154.461 45.6884 154.237 44.4718 154.058 43.2433C153.956 42.5252 153.161 42.4777 152.779 42.8635C151.984 43.6587 151.189 44.4599 150.394 45.2552C149.915 44.2344 149.492 43.1899 149.13 42.1038C148.911 41.451 148.31 41.267 147.851 41.724C146.541 43.0237 145.145 44.181 143.672 45.2077C142.831 45.7953 143.611 47.3264 144.457 46.7389C145.726 45.8546 146.929 44.8635 148.086 43.7893C148.509 44.9228 148.988 46.0267 149.533 47.089C149.803 47.6113 150.369 47.6291 150.736 47.2552C151.434 46.5549 152.127 45.8546 152.825 45.1543C153.014 46.2819 153.228 47.4095 153.483 48.5193C153.61 49.0831 154.191 49.3265 154.609 49.0416C156.153 47.9971 157.651 46.8695 159.109 45.6647C159.802 47.273 160.495 48.8814 161.188 50.4838C161.382 50.9289 161.891 51.0001 162.238 50.7924C163.915 49.7835 165.469 48.5609 166.916 47.1484C167.665 46.4184 166.57 45.178 165.821 45.908Z" fill="#FBB03B"/>
<path d="M80.2795 37.2476H77.436L78.3109 26.77L85.3102 27.7922V23.959H104.121V27.7922H109.37V30.0922L108.058 70.7245H92.0908L79.1859 68.9357V58.7137L80.2795 37.2476Z" fill="white"/>
<path d="M77.9408 37.4044C78.109 34.9177 78.2771 32.4251 78.4402 29.9384C78.4759 29.4043 78.4555 28.8108 78.5778 28.2885C78.6899 27.7959 78.9702 27.6654 79.3728 27.5942C80.285 27.428 81.2737 27.5586 82.191 27.5704C83.1185 27.5823 84.0461 27.6001 84.9736 27.6179C85.0143 27.5942 85.0602 27.5764 85.1112 27.5823C85.366 27.5942 85.6208 27.5942 85.8807 27.6001C85.6565 26.971 85.6768 26.3479 85.9826 25.8612C85.3048 25.8493 84.627 25.8256 83.9543 25.8137C82.7771 25.7959 81.5999 25.784 80.4226 25.7781C79.6072 25.7722 78.7358 25.7662 78.0223 26.2944C77.1356 26.9532 77.0336 28.0986 76.9623 29.2144C76.8757 30.5319 76.7839 31.8494 76.6973 33.167C76.6056 34.532 76.5138 35.9029 76.4221 37.2679C76.3406 38.4074 77.8643 38.5498 77.9408 37.4044Z" fill="#1E1E1E"/>
<path d="M109.961 28.6804C109.661 27.6714 109.136 26.9711 108.193 26.8228C107.061 26.6447 105.884 26.6566 104.743 26.5913H104.738C104.641 27.1848 104.518 27.7664 104.452 28.3599C105.517 28.4252 106.582 28.4786 107.648 28.5557C108.096 28.5854 108.305 28.6091 108.478 29.1195C108.657 29.6299 108.738 30.1878 108.794 30.7279C108.911 31.8674 108.83 33.0247 108.784 34.1641C108.687 36.6271 108.59 39.0841 108.494 41.5471C108.142 50.5383 108.519 59.7907 107.673 68.8176C107.541 70.2241 107.52 70.598 106.236 70.6811C105.589 70.7227 104.947 70.6574 104.299 70.6099C102.995 70.5149 101.69 70.5209 100.385 70.4615C99.0604 70.3962 97.7456 70.2716 96.4256 70.1411C95.2892 70.0283 94.1527 69.9867 93.0163 69.9155C91.5282 69.8206 90.0248 69.6663 88.5724 69.2864C85.9886 69.0787 83.4048 68.8591 80.821 68.6455C80.5611 68.6217 80.2757 68.5921 80.082 68.3903C79.8323 68.1351 79.8119 67.7018 79.8068 67.3161C79.6845 57.7313 80.1432 48.1347 81.1828 38.6271C81.2593 37.9209 81.1471 36.9298 80.5407 36.9001C79.9954 36.8704 79.7559 37.6776 79.6845 38.3067C78.5939 48.0457 78.1608 57.8797 78.3799 67.7018C78.4003 68.5446 78.4716 69.5001 79.0475 70.0045C79.4246 70.3369 79.9241 70.3844 80.398 70.4259C89.0769 71.1144 97.7558 71.7731 106.44 72.4022C106.98 72.4438 107.546 72.4734 108.025 72.1826C109.334 71.3874 108.967 69.1915 108.998 67.7968C109.054 65.3457 109.192 62.9006 109.283 60.4554C109.497 54.9894 109.712 49.5294 109.926 44.0634C110.033 41.3572 110.14 38.6509 110.242 35.9387C110.338 33.5588 110.644 30.9771 109.961 28.6804Z" fill="#1E1E1E"/>
<path d="M111.188 47.7015C110.969 52.2831 110.949 56.8826 111.122 61.4703C111.168 62.6157 112.687 62.402 112.641 61.2625C112.473 56.8352 112.488 52.4018 112.702 47.9745C112.753 46.835 111.244 46.556 111.188 47.7015Z" fill="#FBB03B"/>
<path d="M80.0153 71.7198C79.7911 71.7435 79.5719 71.7554 79.3477 71.7613C79.3426 71.7613 79.3426 71.7613 79.3426 71.7613C79.2916 71.7554 79.2407 71.7554 79.1897 71.7554C79.0776 71.7495 78.9655 71.7376 78.8534 71.7198C78.6393 71.6901 78.4304 71.6545 78.2214 71.6011C78.1603 71.5833 78.1042 71.5714 78.0431 71.5536C78.038 71.5536 78.0176 71.5477 78.0023 71.5417C77.9819 71.5358 77.9309 71.518 77.9157 71.5121C77.9055 71.5061 77.88 71.4943 77.8596 71.4824C77.8545 71.4646 77.8443 71.4468 77.8392 71.4349C77.8035 71.1975 77.7679 70.9661 77.7322 70.7287C77.6507 70.1708 77.5742 69.6189 77.4927 69.061C77.4264 68.604 77.0646 68.2004 76.6467 68.2776C76.2543 68.3547 75.9077 68.7761 75.974 69.2628L76.239 71.1204C76.3358 71.791 76.4225 72.5032 76.9423 72.9245C77.3907 73.2866 77.9921 73.3934 78.5221 73.4765C79.0725 73.5596 79.6331 73.5655 80.1886 73.5002C80.5861 73.4527 80.9224 72.9839 80.8613 72.515C80.8001 72.0165 80.4434 71.6723 80.0153 71.7198Z" fill="#FBB03B"/>
<path d="M100.599 38.7102C99.7126 36.3304 97.195 34.8467 95.1259 34.3244C92.6033 33.6953 90.9725 35.6419 89.8768 38.093C89.0665 39.9091 90.9317 41.6954 92.0478 40.7281C92.9957 40.9002 93.9997 40.7993 94.9578 40.9773C96.3388 41.2325 97.7301 41.3572 99.1265 41.3868C100.344 41.4165 101.083 40.004 100.599 38.7102Z" fill="#FBB03B"/>
<path d="M96.2004 47.5712C96.0577 47.5415 95.9252 47.5059 95.7927 47.4644C96.1189 47.3279 96.4451 47.2033 96.7559 47.0193C97.6936 46.4673 98.4733 45.4406 97.8822 44.2952C97.3675 43.2922 96.3125 43.1972 95.3341 43.1082C94.0957 42.9895 92.8522 42.9242 91.6087 42.8946C89.611 42.8471 89.4479 45.9985 91.4558 46.046C91.624 46.0519 91.7871 46.0578 91.9553 46.0638C91.8177 46.1943 91.6954 46.3368 91.5883 46.4851C91.2979 46.9065 91.2214 47.6187 91.5119 48.0757C91.7769 48.4911 92.1489 48.8769 92.5668 49.227C92.4649 50.1825 93.1937 51.3042 94.4218 51.1084C95.1251 50.9956 95.7825 50.776 96.4298 50.4793C97.556 49.957 97.5407 47.8561 96.2004 47.5712Z" fill="#FBB03B"/>
<path d="M104.043 52.6688C104.008 50.9358 103.967 49.2088 103.931 47.4758C103.763 39.7902 105.088 32.1996 104.92 24.5081C105.078 24.1223 104.961 23.606 104.553 23.4398C104.329 23.2914 104.033 23.2618 103.804 23.3627C100.68 23.2262 97.5506 23.0837 94.4266 22.9472C92.7805 22.876 91.1344 22.7989 89.4883 22.7276C88.6628 22.692 87.8423 22.6564 87.0167 22.6208C86.3847 22.5911 85.5082 22.3715 85.1056 23.0362C84.7743 23.5882 84.9017 24.5318 84.8763 25.1609C84.8355 26.0749 84.7947 26.9888 84.7489 27.8969C84.6673 29.6358 84.5909 31.3747 84.5093 33.1136C84.3513 36.5914 84.1883 40.0692 84.0303 43.547C83.9487 45.2859 83.8723 47.0248 83.7908 48.7637C83.7551 49.5886 83.7143 50.4136 83.6786 51.2385C83.6481 51.927 83.6379 52.6451 84.1271 53.1733C84.5297 53.6124 85.0903 53.6896 85.6407 53.7074C86.5478 53.7371 87.4549 53.7311 88.3672 53.7549C90.0184 53.8024 91.6695 53.8736 93.3156 53.9745C96.6129 54.1763 98.4119 54.3958 101.694 54.8172C102.239 54.8884 102.958 55.114 103.483 54.835C104.237 54.4315 104.058 53.4107 104.043 52.6688ZM86.3389 25.9028C86.3593 25.422 86.3847 24.9473 86.4051 24.4665C86.4102 24.3834 86.4204 24.2885 86.4255 24.1935C86.7517 24.2291 87.1186 24.1995 87.4346 24.2113C87.8474 24.2291 88.2551 24.2469 88.6678 24.2648C90.3955 24.3419 92.1231 24.4191 93.8558 24.4962C97.0512 24.6386 100.241 24.7811 103.437 24.9176C103.508 28.1224 103.172 31.3035 102.851 34.4845C102.81 34.4252 102.764 34.3718 102.708 34.3302C102.56 34.2234 102.367 34.1581 102.198 34.2175C101.724 34.3896 101.245 34.5557 100.771 34.7278C100.603 34.7872 100.455 34.8821 100.354 35.0661C100.262 35.2323 100.216 35.4756 100.257 35.6715C100.297 35.8673 100.389 36.0572 100.542 36.1641C100.69 36.2709 100.884 36.3362 101.052 36.2768C101.526 36.1047 102.005 35.9385 102.479 35.7664C102.575 35.7308 102.662 35.6774 102.744 35.6062C102.591 37.1671 102.453 38.7339 102.387 40.3006C101.714 40.265 101.042 40.2354 100.369 40.1998C100.369 40.1819 100.369 40.1701 100.369 40.1523C100.231 38.4549 99.6553 36.7101 98.6055 35.5053C97.5047 34.2412 96.0013 33.7605 94.4878 33.7071C93.0608 33.6536 91.6084 34.0275 90.4515 35.0661C89.203 36.1878 88.622 37.9801 88.3825 39.7546C87.4906 39.7309 86.5988 39.7072 85.7069 39.6894C85.9159 35.0899 86.1248 30.4963 86.3389 25.9028ZM99.0183 40.1345C95.9198 39.9861 92.8213 39.8674 89.7228 39.7843C89.9164 38.4371 90.3802 37.078 91.3383 36.2412C92.2556 35.44 93.4583 35.2204 94.5693 35.2917C95.7822 35.3629 96.9849 35.7249 97.8156 36.8228C98.5138 37.7427 98.8756 38.9238 99.0183 40.1345ZM101.765 53.2445C100.945 53.1377 101.617 53.1377 100.797 53.0427C99.2782 52.8706 97.7544 52.7222 96.2307 52.6035C93.1831 52.3543 90.1305 52.2059 87.0727 52.1466C86.7007 52.1406 86.3287 52.1347 85.9567 52.1287C85.7783 52.1287 85.4063 52.2 85.2534 52.0931C85.0648 51.9626 85.1565 51.5471 85.1616 51.3275C85.182 50.8943 85.2024 50.4611 85.2228 50.0219L85.447 45.1969C85.5082 43.8853 85.5693 42.5677 85.6305 41.2561C91.2007 41.3689 96.7709 41.5766 102.336 41.8734C102.331 42.3185 102.331 42.7695 102.341 43.2146C102.412 46.4194 102.484 49.6183 102.55 52.8231C102.55 52.924 102.53 53.1258 102.535 53.286C102.29 53.2445 101.949 53.2682 101.765 53.2445Z" fill="#1E1E1E"/>
<path d="M99.3591 42.3009C95.9141 42.4612 92.469 42.3721 89.0342 42.0398C88.178 41.9567 88.1016 43.5294 88.9577 43.6125C92.3926 43.9449 95.8376 44.0339 99.2827 43.8737C100.134 43.8321 100.22 42.2594 99.3591 42.3009Z" fill="#1E1E1E"/>
<path d="M96.9342 44.7523C95.2779 44.6811 93.6267 44.6099 91.9704 44.5446C91.6086 44.5268 91.2875 44.8592 91.2671 45.2865C91.2468 45.7079 91.5321 46.0995 91.894 46.1174C93.5503 46.1886 95.2014 46.2598 96.8577 46.3251C97.2195 46.3429 97.5406 46.0105 97.561 45.5832C97.5814 45.1618 97.296 44.7642 96.9342 44.7523Z" fill="#1E1E1E"/>
<path d="M95.6348 47.1971C94.9061 47.1734 94.1824 47.1199 93.4587 47.0369C93.1122 46.9953 92.7605 47.3692 92.7554 47.7787C92.7503 48.2238 93.0103 48.568 93.3823 48.6096C94.1059 48.6927 94.8296 48.7461 95.5584 48.7698C95.9049 48.7817 96.2566 48.4612 96.2617 48.028C96.2719 47.6125 96.0119 47.209 95.6348 47.1971Z" fill="#1E1E1E"/>
<path d="M88.9432 34.3423C88.8974 34.1465 88.8057 33.9625 88.6579 33.8497C88.2196 33.5233 87.8017 33.1553 87.4042 32.7577C87.3481 32.6865 87.287 32.6331 87.2156 32.5975C87.1392 32.5441 87.0525 32.5144 86.9608 32.5144C86.7977 32.5025 86.599 32.5797 86.4767 32.7162C86.3544 32.8586 86.2575 33.0485 86.2524 33.2622C86.2524 33.458 86.2932 33.6954 86.4206 33.8319C86.8895 34.3245 87.3838 34.7755 87.9138 35.1732C88.0616 35.2859 88.2502 35.3275 88.4234 35.2859C88.5814 35.2444 88.7547 35.1138 88.8413 34.9477C88.9382 34.7637 88.9891 34.55 88.9432 34.3423Z" fill="#1E1E1E"/>
<path d="M93.0608 31.6177C93.0048 31.4456 92.9538 31.2676 92.8977 31.0955C92.8722 31.0065 92.8672 30.9946 92.8875 31.0599C92.8773 31.0243 92.8672 30.9827 92.8519 30.9471C92.8264 30.8581 92.8009 30.7691 92.7754 30.686C92.6786 30.3477 92.5818 30.0094 92.49 29.6652C92.3015 28.9708 92.1282 28.2705 91.9651 27.5643C91.8734 27.1666 91.5319 26.8461 91.1701 26.9589C90.8338 27.0657 90.5586 27.4693 90.6554 27.8966C90.9968 29.3981 91.4045 30.8818 91.8683 32.3359C91.9906 32.7216 92.4798 32.87 92.7652 32.6801C93.1118 32.4486 93.1933 32.0332 93.0608 31.6177Z" fill="#1E1E1E"/>
<path d="M99.2275 28.0572C98.9319 27.8495 98.4885 27.897 98.3 28.2828C97.6986 29.5113 97.0973 30.7398 96.4908 31.9683C96.3176 32.3244 96.3583 32.8348 96.6794 33.0603C96.975 33.268 97.4183 33.2205 97.6069 32.8348C98.2083 31.6063 98.8096 30.3778 99.4161 29.1493C99.5944 28.7932 99.5537 28.2887 99.2275 28.0572Z" fill="#1E1E1E"/>
<path d="M96.1799 62.2653C92.3934 61.9745 88.5916 61.8736 84.7949 61.9507C83.8113 61.9685 83.9948 63.7371 84.9733 63.7193C88.6323 63.6481 92.2914 63.749 95.9454 64.0279C96.9239 64.0991 97.1634 62.3424 96.1799 62.2653Z" fill="#1E1E1E"/>
<path d="M101.729 58.366C96.1745 57.1138 90.482 56.7992 84.8456 57.4046C83.8671 57.5114 84.0455 59.28 85.0239 59.1732C90.5279 58.5797 96.0675 58.9002 101.5 60.1227C102.463 60.3423 102.693 58.5797 101.729 58.366Z" fill="#1E1E1E"/>
<path d="M102.612 62.283C102.373 61.9091 101.858 61.8023 101.542 62.105C101.481 62.1643 101.435 62.2296 101.389 62.3008C101.262 62.3898 101.15 62.5263 101.063 62.6985C100.66 63.4937 100.268 64.289 99.8806 65.0902C99.6921 65.4819 99.5035 65.8795 99.315 66.2772C99.0805 66.7816 98.7646 67.3217 98.999 67.9092C99.1009 68.1704 99.3252 68.4434 99.5902 68.4552C101.027 68.5146 102.464 68.4493 103.891 68.2238C104.269 68.1644 104.656 67.7134 104.564 67.2386C104.207 65.4463 103.565 63.7667 102.612 62.283ZM100.854 66.7104C100.859 66.6985 100.869 66.6807 100.874 66.6689C101.048 66.3009 101.226 65.9329 101.404 65.565C101.598 65.1673 101.792 64.7756 101.99 64.3839C102.021 64.4433 102.072 64.5442 102.072 64.5442C102.103 64.6035 102.133 64.6688 102.159 64.7282C102.245 64.9181 102.327 65.108 102.403 65.2979C102.546 65.6599 102.673 66.0279 102.786 66.4018C102.801 66.4552 102.816 66.5145 102.831 66.568C102.459 66.6095 102.087 66.6451 101.715 66.6689C101.425 66.6985 101.134 66.7045 100.854 66.7104Z" fill="#1E1E1E"/>
<path d="M218.516 49.5105C216.529 49.4452 214.618 49.7775 212.732 50.5075C212.197 50.7152 211.983 51.7835 212.233 52.4423C212.538 53.2435 213.094 53.4571 213.665 53.2375C213.7 53.2257 213.721 53.2138 213.736 53.2079C213.746 53.2019 213.762 53.2019 213.782 53.1901C213.894 53.1485 214.011 53.1129 214.123 53.0714C214.322 53.0061 214.516 52.9467 214.715 52.8933C215.127 52.7806 215.545 52.6856 215.968 52.6144C216.371 52.5432 216.779 52.4957 217.186 52.466C217.39 52.4482 217.594 52.4423 217.798 52.4363C217.864 52.4363 217.935 52.4304 218.002 52.4304C218.063 52.4304 218.098 52.4304 218.104 52.4304C218.109 52.4304 218.114 52.4304 218.124 52.4304C218.19 52.4304 218.262 52.4363 218.328 52.4363C218.883 52.4542 219.464 52.0387 219.49 51.1782C219.515 50.4601 219.118 49.5283 218.516 49.5105Z" fill="#FBB03B"/>
<path d="M221.711 36.9698C218.241 37.5396 214.724 37.955 211.284 38.7206C209.679 39.0767 210.056 42.0085 211.672 41.6524C215.112 40.8927 218.633 40.4714 222.099 39.9016C223.724 39.6345 223.337 36.7027 221.711 36.9698Z" fill="#FBB03B"/>
<path d="M206.923 32.6458L224.421 30.0903L227.921 56.4119L226.827 58.4563L215.891 60.5007H211.079L209.329 51.812L206.923 32.6458Z" fill="white"/>
<path d="M219.388 31.2311C216.569 31.7296 213.751 32.2281 210.928 32.7326C210.199 32.8631 209.465 32.9937 208.737 33.1243C208.359 33.1895 207.753 33.1361 207.559 33.6287C207.478 33.8305 207.539 34.1688 207.549 34.3824C207.636 36.0027 207.835 37.6288 208.003 39.2431C208.624 45.2135 209.496 51.1543 210.612 57.0297C210.744 57.7182 210.841 58.4363 211.02 59.1129C211.081 59.3502 211.152 59.5224 211.239 59.6529C211.167 59.5283 211.101 59.3681 211.045 59.1544C210.867 58.4778 210.765 57.7597 210.637 57.0713C209.521 51.1958 208.65 45.261 208.028 39.2846C207.86 37.6703 207.661 36.0442 207.575 34.424C207.564 34.2103 207.503 33.878 207.585 33.6703C207.778 33.1777 208.385 33.2311 208.762 33.1658C209.491 33.0352 210.225 32.9047 210.953 32.78C213.772 32.2815 216.59 31.783 219.413 31.2785C219.948 31.1836 220.05 30.5248 219.831 30.1094C220.015 30.5189 219.897 31.1361 219.388 31.2311Z" fill="#1E1E1E"/>
<path d="M225.992 36.7446C225.936 36.4241 225.813 36.0739 225.757 35.7713C225.655 35.249 225.559 34.7208 225.467 34.1985C225.288 33.1659 225.146 32.1213 225.12 31.0649C225.105 30.5308 225.085 30.0204 224.728 29.6465C224.397 29.2964 223.989 29.1064 223.54 29.1064C223 29.1124 222.47 29.2964 221.925 29.2489C221.838 29.2429 221.757 29.2311 221.67 29.2073C220.85 29.0115 220.707 30.5249 221.522 30.7207C221.777 30.7801 222.058 30.8038 222.317 30.7801C222.689 30.7445 223.061 30.5664 223.433 30.6732C223.892 30.8038 223.806 31.3617 223.806 31.8127C223.806 32.4715 223.923 33.1184 224.04 33.7593C224.259 34.9641 224.483 36.1748 224.702 37.3796C224.815 38.0027 225.441 38.5013 225.839 37.801C225.931 37.6407 225.961 37.4508 225.992 37.2668C226.007 37.1659 226.027 37.065 226.022 36.9701C226.012 36.8929 226.002 36.8217 225.992 36.7446Z" fill="#1E1E1E"/>
<path d="M206.422 36.1444C206.32 35.0049 205.969 33.4025 206.692 32.4411C207.095 31.907 207.686 31.8179 208.252 31.7111C208.93 31.5865 209.607 31.4678 210.29 31.3491C213.266 30.8209 216.243 30.2927 219.219 29.7645C219.509 29.7111 219.718 29.8713 219.835 30.0968C219.723 29.8416 219.504 29.6636 219.188 29.717C216.212 30.2452 213.236 30.7734 210.26 31.3016C209.582 31.4203 208.904 31.539 208.221 31.6636C207.655 31.7645 207.064 31.8595 206.662 32.3936C205.938 33.3551 206.29 34.9575 206.392 36.097C207.013 43.1416 207.982 50.1447 209.291 57.0588C209.495 58.127 209.592 59.587 210.153 60.5544C209.617 59.587 209.516 58.1567 209.317 57.1062C208.012 50.1922 207.044 43.1891 206.422 36.1444Z" fill="#1E1E1E"/>
<path d="M228.33 55.285C228.177 52.9705 227.489 50.7152 227.361 48.3947C227.346 48.0742 227.336 47.7478 227.259 47.4333C227.183 47.1187 227.025 46.822 226.78 46.6736C226.536 46.5252 226.194 46.5668 226.026 46.822C225.863 47.0712 225.899 47.4155 225.939 47.7241C226.311 50.4007 226.678 53.0832 227.05 55.7598C227.106 56.1693 227.147 56.6441 226.989 57.0299C226.791 57.5047 226.327 57.6234 225.919 57.7064C222.561 58.3949 219.207 59.1011 215.823 59.5581C214.672 59.7124 213.515 59.8608 212.358 59.9676C211.813 60.0151 211.476 60.0032 211.247 59.6412C211.16 59.5106 211.089 59.3385 211.028 59.1011C210.85 58.4246 210.748 57.7064 210.62 57.018C209.504 51.1425 208.633 45.2077 208.011 39.2313C207.843 37.6171 207.644 35.9909 207.557 34.3707C207.547 34.1571 207.486 33.8247 207.568 33.617C207.761 33.1244 208.368 33.1778 208.745 33.1125C209.474 32.982 210.207 32.8514 210.936 32.7208C213.754 32.2223 216.573 31.7238 219.396 31.2193C219.911 31.1303 220.028 30.5131 219.844 30.0917C219.727 29.8662 219.518 29.7059 219.228 29.7593C216.252 30.2875 213.275 30.8157 210.299 31.3439C209.621 31.4626 208.944 31.5813 208.261 31.706C207.695 31.8069 207.104 31.9018 206.701 32.436C205.978 33.3974 206.329 34.9998 206.431 36.1393C207.053 43.1839 208.021 50.187 209.331 57.1011C209.53 58.1516 209.626 59.5818 210.167 60.5552C210.243 60.6976 210.335 60.8282 210.432 60.9469C211.288 61.9736 212.776 61.4988 213.851 61.3742C216.792 61.0359 219.727 60.573 222.637 59.9854C223.661 59.7777 224.696 59.6115 225.715 59.3623C226.576 59.1545 227.499 59.0062 227.998 58.0566C228.319 57.4394 228.381 56.6916 228.365 55.9675C228.355 55.7479 228.345 55.5165 228.33 55.285ZM222.601 59.9498C221.149 60.2406 219.697 60.5077 218.239 60.7332C219.697 60.5077 221.149 60.2465 222.601 59.9498C223.503 59.7658 224.426 59.6056 225.338 59.3979C224.426 59.6056 223.503 59.7718 222.601 59.9498Z" fill="#1E1E1E"/>
<path d="M217.925 34.7324C215.301 35.3733 212.641 35.8244 209.965 36.0737C209.552 36.1152 209.267 36.6375 209.323 37.0885C209.389 37.593 209.782 37.8719 210.194 37.8363C212.87 37.587 215.53 37.136 218.155 36.495C219.113 36.2576 218.889 34.495 217.925 34.7324Z" fill="#1E1E1E"/>
<path d="M223.234 37.2726C218.882 37.9491 214.535 38.6257 210.183 39.3023C209.21 39.4566 209.439 41.2133 210.412 41.0649C214.765 40.3883 219.112 39.7118 223.464 39.0352C224.437 38.8809 224.208 37.1242 223.234 37.2726Z" fill="#1E1E1E"/>
<path d="M216.855 41.433C214.832 41.9374 212.778 42.2104 210.709 42.2579C210.296 42.2698 210.011 42.8395 210.067 43.2728C210.138 43.801 210.526 44.0265 210.939 44.0206C213.008 43.9731 215.061 43.7001 217.085 43.1956C217.487 43.0947 217.788 42.6734 217.727 42.1808C217.666 41.7238 217.258 41.3321 216.855 41.433Z" fill="#1E1E1E"/>
<path d="M217.966 50.1273C215.953 50.513 213.94 50.8691 211.916 51.1896C210.943 51.3439 211.172 53.1065 212.146 52.9522C214.164 52.6317 216.182 52.2757 218.195 51.8899C219.168 51.7 218.939 49.9433 217.966 50.1273Z" fill="#1E1E1E"/>
<path d="M224.744 51.8128C220.565 52.614 216.376 53.3084 212.171 53.9019C211.193 54.0384 211.427 55.801 212.401 55.6645C216.605 55.071 220.794 54.3766 224.973 53.5754C225.947 53.3855 225.717 51.6288 224.744 51.8128Z" fill="#1E1E1E"/>
<path d="M225.08 54.561L220.942 55.3266C220.549 55.3978 220.223 55.8666 220.3 56.3414C220.381 56.8103 220.748 57.1664 221.171 57.0892L225.309 56.3236C225.702 56.2524 226.028 55.7836 225.951 55.3088C225.87 54.834 225.503 54.4838 225.08 54.561Z" fill="#1E1E1E"/>
<path d="M234.497 31.4626C234.436 31.3854 234.354 31.3142 234.288 31.243C234.247 31.2015 234.222 31.1777 234.201 31.1599C234.191 31.1421 234.176 31.1184 234.135 31.065C234.018 30.9106 233.895 30.8038 233.763 30.7207C233.126 30.1451 232.209 30.2459 231.617 30.9819C231.047 31.6881 230.511 32.424 230.002 33.1837C229.034 34.6258 228.172 36.157 227.337 37.7001C226.924 38.4657 226.526 39.2431 226.093 39.9909C225.696 40.6794 225.191 41.255 224.768 41.9197C224.299 42.6497 223.988 43.5637 224.095 44.4777C224.228 45.6171 225.155 46.4836 226.154 46.1572C226.985 45.8842 227.505 44.81 228.014 44.0622C228.57 43.2491 229.12 42.4361 229.676 41.623C230.817 39.9434 232.081 38.3114 233.085 36.5191C233.34 36.068 233.534 35.5814 233.799 35.1362C234.033 34.7445 234.339 34.4063 234.563 34.0086C234.848 33.5042 235.022 32.9463 234.915 32.3469C234.848 32.0264 234.69 31.7059 234.497 31.4626Z" fill="white"/>
<path d="M236.459 28.1626C236.418 27.8125 236.24 27.4504 235.985 27.2605C235.634 26.9994 235.267 26.9875 234.879 27.1418C234.665 27.2249 234.467 27.3911 234.288 27.5513C234.13 27.6938 233.982 27.8421 233.835 28.0024C233.539 28.3229 233.264 28.6671 232.994 29.0172C232.795 28.9579 232.586 28.946 232.387 29.0054C232.219 29.0528 232.076 29.1419 231.944 29.2428C231.781 29.041 231.557 28.9223 231.322 28.8807C230.991 28.8273 230.599 28.9698 230.288 29.1003C229.625 29.3793 229.253 30.0262 228.963 30.7383C228.902 30.8867 228.84 31.041 228.774 31.1894C228.769 31.2013 228.733 31.2784 228.713 31.314C228.708 31.3259 228.698 31.3437 228.677 31.3793C228.657 31.4208 228.637 31.4564 228.616 31.498C228.458 31.7947 228.29 32.0796 228.112 32.3585C227.928 32.6493 227.74 32.9283 227.546 33.2132C227.515 33.2606 227.48 33.3081 227.444 33.3556C227.439 33.3615 227.419 33.3793 227.393 33.4031C227.036 33.3081 226.618 33.5099 226.496 33.9313C226.364 34.3823 226.527 34.9105 226.924 35.0886C227.638 35.409 228.28 34.9758 228.728 34.3408C229.075 33.8482 229.416 33.3319 229.717 32.7977C229.89 32.495 230.043 32.1805 230.186 31.8541C230.242 31.7295 230.293 31.6048 230.344 31.4743C230.374 31.403 230.4 31.3259 230.43 31.2547C230.436 31.2428 230.461 31.1834 230.481 31.1478C230.502 31.1122 230.532 31.0529 230.537 31.0469C230.568 30.9935 230.604 30.9401 230.639 30.8926C230.644 30.8867 230.655 30.8808 230.67 30.863C230.69 30.8452 230.701 30.8333 230.711 30.8274C230.721 30.8214 230.726 30.8214 230.736 30.8155C230.787 30.7858 230.843 30.768 230.904 30.7324C230.915 30.7324 230.915 30.7324 230.95 30.7205C230.981 30.7502 231.011 30.7799 231.042 30.7977C231.103 30.8511 228.519 35.231 228.285 35.6464C226.654 38.4773 224.503 40.8631 223.031 43.8246C222.373 45.154 221.874 46.5903 221.634 48.1036C221.532 48.7446 222.21 49.3262 222.705 49.0176C224.748 47.7416 226.216 45.6822 227.536 43.5101C229.758 39.8602 232.056 36.2696 234.385 32.7146C234.456 32.6019 234.533 32.4891 234.604 32.3823C234.65 32.317 234.681 32.2398 234.706 32.1568C234.864 31.9075 234.91 31.593 234.808 31.2725C234.757 31.1063 234.691 30.9461 234.62 30.7917C234.66 30.768 234.706 30.7561 234.747 30.7205C235.491 30.1033 236.602 29.3911 236.459 28.1626ZM230.196 36.4654C228.958 38.2874 227.729 40.1154 226.583 42.0204C226.078 42.8572 225.553 43.6941 224.983 44.4834C224.916 44.335 224.845 44.1866 224.768 44.0442C224.748 44.0145 224.728 43.9908 224.702 43.9611C224.498 43.7297 227.118 40.2815 227.317 39.9907C228.086 38.8809 228.83 37.7474 229.554 36.596C230.252 35.4862 230.864 34.2933 231.567 33.1894C231.98 32.4476 232.331 31.6286 232.78 30.9164C232.928 30.9698 233.055 31.1834 233.147 31.3318C233.177 31.3793 233.203 31.4268 233.208 31.4861C233.213 31.5633 233.172 31.6286 233.131 31.6938C232.642 32.4713 232.148 33.2428 231.664 34.0203C231.414 34.4239 231.164 34.8274 230.92 35.231C230.843 35.3734 230.288 36.4773 230.196 36.4654Z" fill="#1E1E1E"/>
<path d="M296.015 39.2438C296.846 41.7898 296.423 44.7217 294.873 46.781C294.073 47.8493 293.12 48.3716 291.907 48.4131C290.649 48.4547 289.369 48.1401 288.248 47.4695C288.065 47.3626 287.892 47.238 287.718 47.1015C288.544 48.1164 289.68 48.7751 290.959 48.8464C293.344 48.9888 295.75 47.4813 296.672 44.8641C297.421 42.7394 296.958 40.0925 295.755 38.2942C295.673 38.1696 295.587 38.0509 295.495 37.9381C295.449 37.8847 295.403 37.8313 295.357 37.772C295.633 38.2408 295.852 38.7334 296.015 39.2438Z" fill="#FBB03B"/>
<path d="M290.428 37.5344C290.402 37.9795 290.091 38.2347 289.735 38.2585C287.88 38.3831 286.427 40.3475 286.595 42.5019C286.748 44.4841 288.17 45.9678 289.724 46.5435C290.596 46.8699 291.646 47.0361 292.553 46.8165C293.419 46.6028 294.046 45.6889 294.469 44.8343C295.33 43.0894 295.34 40.9291 294.545 39.1546C293.939 37.8015 292.767 36.5552 291.427 36.4009C290.947 36.5018 290.473 36.6442 290.005 36.7688C290.265 36.8875 290.443 37.2318 290.428 37.5344ZM289.872 41.1309C289.969 41.6176 290.091 42.0271 290.275 42.4781C290.372 42.7155 290.484 42.947 290.601 43.1666C290.611 43.1903 290.626 43.2081 290.637 43.2319C290.657 43.22 290.677 43.2022 290.698 43.1903C290.856 43.0776 291.014 42.9648 291.172 42.858C291.472 42.6443 291.773 42.4247 292.069 42.2051C292.655 41.7719 293.236 41.3208 293.812 40.8639C294.107 40.6324 294.484 40.5968 294.739 40.9351C294.953 41.22 294.968 41.7838 294.678 42.0152C293.465 42.9767 292.232 43.9144 290.968 44.7809C290.56 45.0598 290.127 44.9886 289.836 44.5494C289.633 44.2408 289.449 43.9084 289.286 43.5701C288.965 42.9054 288.736 42.1814 288.588 41.4455C288.506 41.0419 288.756 40.6265 289.098 40.5434C289.449 40.4484 289.791 40.7274 289.872 41.1309Z" fill="white"/>
<path d="M286.381 43.8787C286.106 41.5878 286.906 39.5759 288.094 37.8786C288.639 37.3326 289.21 36.9824 289.974 36.7806C289.984 36.7747 289.995 36.7747 290.005 36.7688C289.944 36.7391 289.877 36.7213 289.806 36.7272C287.569 36.8756 285.698 38.6976 285.332 41.3148C285.005 43.6353 286.086 45.855 287.717 47.1072C287.018 46.2467 286.534 45.125 286.381 43.8787Z" fill="#1E1E1E"/>
<path d="M295.361 37.7838C294.27 35.8846 292.41 34.5196 290.407 34.941C289.577 35.1131 289.842 36.6146 290.672 36.4366C290.927 36.3832 291.177 36.3772 291.422 36.4069C292.079 36.2704 292.736 36.217 293.394 36.4128C294.153 36.6384 294.821 37.1369 295.361 37.7838Z" fill="#1E1E1E"/>
<path d="M294.546 39.1542C295.341 40.9287 295.331 43.089 294.47 44.8338C294.047 45.6885 293.425 46.5965 292.554 46.8161C291.647 47.0416 290.597 46.8695 289.725 46.5431C288.171 45.9674 286.754 44.4896 286.596 42.5015C286.428 40.3471 287.881 38.3827 289.736 38.2581C290.092 38.2343 290.403 37.9791 290.429 37.534C290.444 37.2313 290.266 36.8871 290.011 36.7684C290.001 36.7744 289.99 36.7744 289.98 36.7803C289.216 36.988 288.645 37.3322 288.1 37.8782C286.912 39.5756 286.112 41.5875 286.387 43.8783C286.54 45.1247 287.019 46.2463 287.728 47.1069C287.901 47.2374 288.074 47.3621 288.258 47.4748C289.379 48.1455 290.658 48.46 291.917 48.4185C293.13 48.3769 294.083 47.8487 294.883 46.7864C296.427 44.727 296.85 41.7893 296.024 39.2492C295.861 38.7447 295.637 38.2521 295.372 37.7892C294.832 37.1482 294.164 36.6438 293.41 36.4183C292.753 36.2224 292.095 36.2758 291.438 36.4123C292.768 36.5548 293.94 37.8011 294.546 39.1542Z" fill="#1E1E1E"/>
<path d="M289.094 40.5376C288.752 40.6207 288.502 41.0361 288.584 41.4397C288.732 42.1816 288.961 42.9056 289.282 43.5644C289.445 43.9027 289.629 44.235 289.832 44.5436C290.128 44.9828 290.561 45.054 290.964 44.7751C292.228 43.9086 293.461 42.9709 294.674 42.0095C294.97 41.778 294.949 41.2142 294.735 40.9293C294.48 40.5851 294.103 40.6207 293.808 40.8581C293.232 41.3151 292.651 41.7602 292.065 42.1994C291.769 42.419 291.468 42.6385 291.168 42.8522C291.01 42.965 290.852 43.0777 290.694 43.1845C290.673 43.1964 290.653 43.2142 290.633 43.2261C290.622 43.2024 290.607 43.1845 290.597 43.1608C290.48 42.9353 290.368 42.7098 290.271 42.4724C290.087 42.0213 289.965 41.6178 289.868 41.1252C289.792 40.7275 289.45 40.4486 289.094 40.5376Z" fill="#1E1E1E"/>
<path d="M246.158 50.1219C245.143 49.9735 244.114 49.8014 243.095 49.6055C242.753 49.5402 242.432 49.8073 242.376 50.2049C242.325 50.5788 242.524 50.929 242.83 51.0239C242.85 51.0299 242.87 51.0358 242.891 51.0418C243.925 51.2435 244.975 51.4216 246.005 51.57C246.346 51.6174 246.657 51.3385 246.703 50.9409C246.738 50.5373 246.499 50.1753 246.158 50.1219Z" fill="#1E1E1E"/>
<path d="M234.054 47.1612C233.065 46.817 232.077 46.4431 231.108 46.0573C230.787 45.9267 230.426 46.1285 230.313 46.5084C230.201 46.8882 230.375 47.3036 230.701 47.4342C231.684 47.8318 232.693 48.2116 233.697 48.5618C233.702 48.5618 233.708 48.5677 233.713 48.5677C234.039 48.6686 234.375 48.455 234.472 48.0751C234.569 47.6775 234.38 47.2739 234.054 47.1612Z" fill="#1E1E1E"/>
<path d="M240.052 48.9349C239.049 48.6916 238.034 48.4127 237.035 48.1219C236.699 48.021 236.363 48.2584 236.276 48.6501C236.19 49.0358 236.388 49.4275 236.72 49.5284C236.725 49.5284 236.725 49.5284 236.73 49.5343C237.744 49.837 238.773 50.116 239.798 50.3652C240.134 50.4483 240.465 50.199 240.537 49.8014C240.603 49.4038 240.384 49.0299 240.052 48.9349Z" fill="#1E1E1E"/>
<path d="M249.5 33.1022C249.831 32.9895 250.02 32.5799 249.918 32.1942C249.821 31.8084 249.469 31.5888 249.138 31.7075C247.966 32.117 247.161 32.9479 246.819 34.1111C246.799 34.1883 246.779 34.2595 246.758 34.3367C246.723 34.491 246.697 34.6453 246.677 34.7996C246.636 35.1616 246.835 35.4999 247.13 35.5948C247.156 35.6008 247.186 35.6126 247.217 35.6126C247.558 35.6661 247.874 35.3812 247.915 34.9836C247.925 34.8945 247.941 34.8055 247.961 34.7165C247.971 34.6749 247.981 34.6275 247.997 34.5859C248.216 33.8619 248.705 33.3811 249.5 33.1022Z" fill="#1E1E1E"/>
<path d="M253.47 41.1372C253.317 41.4992 253.45 41.9325 253.755 42.1105C254.836 42.7277 255.554 43.339 256.013 44.0453C256.1 44.1818 256.217 44.2708 256.349 44.3064C256.528 44.3657 256.727 44.3242 256.89 44.1877C257.165 43.9444 257.221 43.4874 257.012 43.1669C256.431 42.2708 255.575 41.517 254.306 40.7989C253.995 40.6327 253.623 40.7811 253.47 41.1372Z" fill="#1E1E1E"/>
<path d="M255.64 32.211C255.635 32.211 255.63 32.2051 255.62 32.2051L254.494 31.8905C253.806 31.7006 253.133 31.5641 252.481 31.481C252.139 31.4395 251.828 31.7303 251.793 32.1279C251.762 32.4899 251.961 32.8163 252.251 32.9054C252.282 32.9172 252.318 32.9232 252.348 32.9291C252.944 33.0063 253.571 33.1309 254.203 33.3089L255.329 33.6235C255.666 33.7184 256.002 33.4751 256.084 33.0834C256.165 32.6976 255.966 32.3119 255.64 32.211Z" fill="#1E1E1E"/>
<path d="M251.727 40.3361C251.865 39.9682 251.717 39.5409 251.401 39.3806C250.463 38.9058 249.602 38.2589 248.975 37.5586C248.725 37.2797 248.333 37.2916 248.093 37.5764C247.854 37.8672 247.864 38.3242 248.109 38.6032C248.843 39.4222 249.831 40.17 250.902 40.71C250.932 40.7219 250.958 40.7338 250.988 40.7456C251.284 40.8406 251.605 40.6685 251.727 40.3361Z" fill="#1E1E1E"/>
<path d="M267.764 35.6002L264.727 34.7515C264.39 34.6565 264.054 34.8999 263.972 35.2916C263.891 35.6773 264.09 36.0631 264.416 36.164C264.421 36.164 264.426 36.1699 264.436 36.1699L267.473 37.0186C267.81 37.1136 268.146 36.8702 268.228 36.4785C268.309 36.0868 268.1 35.6892 267.764 35.6002Z" fill="#1E1E1E"/>
<path d="M273.839 37.297L270.802 36.4483C270.465 36.3533 270.129 36.5967 270.048 36.9884C269.966 37.3741 270.165 37.7599 270.491 37.8608C270.496 37.8608 270.501 37.8667 270.511 37.8667L273.549 38.7154C273.885 38.8103 274.221 38.567 274.303 38.1753C274.379 37.7836 274.181 37.3801 273.839 37.297Z" fill="#1E1E1E"/>
<path d="M261.695 33.9029L258.658 33.0542C258.321 32.9593 257.985 33.2026 257.904 33.5943C257.822 33.9801 258.021 34.3658 258.347 34.4667C258.352 34.4667 258.357 34.4727 258.367 34.4727L261.405 35.3213C261.741 35.4163 262.077 35.173 262.159 34.7872C262.235 34.3896 262.021 33.9919 261.695 33.9029Z" fill="#1E1E1E"/>
<path d="M257.247 46.3477C256.915 46.2171 256.569 46.4486 256.472 46.8343C256.233 47.7542 255.646 48.6504 254.857 49.2854C254.571 49.5109 254.5 49.9679 254.699 50.2943C254.785 50.4427 254.913 50.5377 255.05 50.5851C255.224 50.6386 255.412 50.6089 255.57 50.4842C256.589 49.6652 257.354 48.4901 257.67 47.2557C257.767 46.8699 257.578 46.4604 257.247 46.3477Z" fill="#1E1E1E"/>
<path d="M252.211 50.3894C251.36 50.5378 250.412 50.5616 249.225 50.4785C248.878 50.4547 248.582 50.7574 248.562 51.161C248.542 51.5111 248.74 51.8197 249.021 51.9088C249.061 51.9206 249.102 51.9325 249.148 51.9325C250.422 52.0275 251.452 51.9919 252.394 51.8316C252.736 51.7723 252.97 51.4043 252.919 51.0067C252.868 50.6031 252.547 50.3301 252.211 50.3894Z" fill="#1E1E1E"/>
<path d="M282.451 39.6657C280.703 38.2354 279.164 36.5024 277.89 34.5083C277.681 34.1878 277.294 34.1225 277.019 34.3599C276.744 34.5973 276.687 35.0543 276.891 35.3748C277.722 36.6686 278.66 37.8496 279.684 38.9297L276.876 38.1464C276.54 38.0514 276.203 38.2947 276.122 38.6864C276.04 39.0722 276.239 39.4579 276.565 39.5588C276.57 39.5588 276.575 39.5648 276.586 39.5648L279.022 40.2473C278.497 40.4313 277.977 40.639 277.472 40.8823C277.156 41.0366 277.003 41.4639 277.136 41.8319C277.238 42.1167 277.477 42.2889 277.727 42.277C277.804 42.277 277.88 42.2592 277.951 42.2236C279.241 41.6004 280.596 41.1968 281.983 41.0247C282.003 41.0247 282.023 41.0129 282.039 41.0129C282.074 41.0188 282.11 41.0247 282.151 41.0247H282.156C282.171 41.0247 282.181 41.0188 282.197 41.0188C282.232 41.0129 282.268 41.0069 282.304 40.9951C282.334 40.9832 282.36 40.9713 282.39 40.9535C282.411 40.9417 282.426 40.9357 282.446 40.9238C282.477 40.9001 282.507 40.8764 282.538 40.8526C282.543 40.8467 282.553 40.8408 282.558 40.8289C282.63 40.7517 282.691 40.6627 282.727 40.55C282.828 40.2057 282.711 39.8437 282.451 39.6657Z" fill="#1E1E1E"/>
<path d="M203.757 45.4397C203.732 45.3745 203.706 45.3092 203.686 45.2498C203.574 44.9175 203.472 44.5733 203.38 44.229C203.202 43.5525 203.059 42.8462 202.962 42.1281C202.937 41.9501 202.845 41.7958 202.708 41.6889C202.555 41.5762 202.361 41.5346 202.198 41.588C201.882 41.6889 201.704 42.0391 201.76 42.4426C201.857 43.1311 201.989 43.8077 202.152 44.4486C202.223 44.7335 202.305 45.0184 202.392 45.2973C202.167 45.2439 201.938 45.1964 201.714 45.1549C201.128 45.048 200.537 44.9709 199.951 44.9293C199.731 44.9115 199.543 45.0184 199.431 45.2201C199.308 45.4338 199.293 45.7305 199.4 45.9739C199.502 46.2113 199.691 46.3537 199.92 46.3715C200.562 46.419 201.194 46.508 201.79 46.6326C202.101 46.6979 202.417 46.7751 202.728 46.8641L202.784 46.8819C202.906 46.9175 203.069 46.965 203.243 46.965C203.472 46.965 203.706 46.8819 203.864 46.5674C204.053 46.1757 203.885 45.7483 203.757 45.4397Z" fill="#1E1E1E"/>
<path d="M181.716 27.2372C181.757 27.2134 181.803 27.1897 181.843 27.1719C182.19 27.0057 182.562 26.9226 182.949 26.9226C183.647 26.9226 184.386 27.1956 185.034 27.6942C185.135 27.7713 185.253 27.8129 185.375 27.8129C185.584 27.8129 185.778 27.6942 185.89 27.4924C185.981 27.3321 186.012 27.1422 185.981 26.9523C185.951 26.7624 185.854 26.6022 185.716 26.4953C184.87 25.8425 183.887 25.4805 182.949 25.4805C182.399 25.4805 181.869 25.5992 181.374 25.8366C181.313 25.8662 181.252 25.8959 181.191 25.9315C180.88 26.1036 180.748 26.5309 180.895 26.893C181.038 27.255 181.41 27.4093 181.716 27.2372Z" fill="#1E1E1E"/>
<path d="M184.284 39.2314C184.279 39.2314 184.279 39.2314 184.284 39.2314C184.116 39.2314 183.963 39.3027 183.846 39.4392C183.219 40.1632 182.48 40.8932 181.527 41.7419C181.374 41.8784 181.221 42.0089 181.068 42.1395C180.936 42.2523 180.849 42.4244 180.824 42.6143C180.798 42.8042 180.839 42.9941 180.936 43.1484C181.053 43.3324 181.237 43.4392 181.435 43.4392C181.568 43.4392 181.695 43.3918 181.802 43.2968C181.96 43.1603 182.118 43.0238 182.271 42.8873C183.275 42.003 184.05 41.2315 184.712 40.46C184.829 40.3235 184.896 40.1454 184.896 39.9496C184.896 39.7596 184.835 39.5757 184.717 39.4392C184.6 39.3086 184.447 39.2314 184.284 39.2314Z" fill="#1E1E1E"/>
<path d="M180.457 33.9257C180.065 33.1601 179.851 32.2046 179.851 31.2373C179.851 30.9999 179.866 30.7565 179.891 30.5191C179.937 30.1274 179.693 29.7654 179.356 29.712C179.02 29.6586 178.709 29.9435 178.663 30.3352C178.633 30.6319 178.612 30.9346 178.612 31.2373C178.612 32.4776 178.882 33.6646 179.392 34.6617C179.443 34.7625 179.494 34.8575 179.55 34.9525C179.667 35.1542 179.856 35.2789 180.065 35.2789C180.187 35.2789 180.304 35.2373 180.406 35.1602C180.544 35.0534 180.641 34.8931 180.671 34.7032C180.707 34.5133 180.671 34.3234 180.579 34.1631C180.539 34.086 180.498 34.0088 180.457 33.9257Z" fill="#1E1E1E"/>
<path d="M177.914 44.4241C176.752 45.2372 175.55 45.9968 174.337 46.6734C174.031 46.8455 173.899 47.2787 174.046 47.6348C174.148 47.8841 174.367 48.0443 174.602 48.0443C174.694 48.0443 174.785 48.0206 174.867 47.9731C176.115 47.2787 177.349 46.4953 178.546 45.6585C178.837 45.4508 178.934 45.0116 178.755 44.6674C178.587 44.3291 178.21 44.2223 177.914 44.4241Z" fill="#1E1E1E"/>
<path d="M187.429 37.9854C187.205 37.9498 186.98 37.9141 186.766 37.8726C185.62 37.6471 184.575 37.2791 183.658 36.7747C183.51 36.6916 183.342 36.6856 183.184 36.745C183.026 36.8103 182.903 36.9408 182.832 37.1129C182.761 37.285 182.75 37.4809 182.806 37.6649C182.863 37.8489 182.975 37.9913 183.122 38.0744C184.147 38.6382 185.299 39.0477 186.557 39.291C186.782 39.3326 187.021 39.3741 187.266 39.4157C187.291 39.4216 187.317 39.4216 187.342 39.4216C187.653 39.4216 187.913 39.1545 187.954 38.7925C188.005 38.4008 187.765 38.0388 187.429 37.9854Z" fill="#1E1E1E"/>
<path d="M195.501 39.059C195.129 38.9641 194.747 38.881 194.36 38.8098C193.32 38.6317 192.276 38.5486 191.312 38.4834C191.149 38.4655 190.991 38.5308 190.864 38.6614C190.742 38.786 190.665 38.97 190.655 39.1659C190.645 39.3558 190.701 39.5457 190.813 39.6881C190.925 39.8306 191.073 39.9136 191.241 39.9255C192.184 39.9849 193.188 40.062 194.182 40.2341C194.538 40.2935 194.895 40.3706 195.231 40.4596C195.277 40.4715 195.323 40.4774 195.369 40.4774C195.659 40.4774 195.909 40.246 195.97 39.9136C196.006 39.7237 195.981 39.5338 195.889 39.3676C195.797 39.2133 195.659 39.1006 195.501 39.059Z" fill="#1E1E1E"/>
<path d="M200.45 44.1099C200.567 44.3117 200.756 44.4303 200.965 44.4303C201.087 44.4303 201.204 44.3888 201.306 44.3057C201.444 44.1989 201.536 44.0386 201.571 43.8487C201.602 43.6588 201.571 43.4689 201.479 43.3087C200.975 42.4303 200.307 41.6528 199.502 41.006C199.364 40.8991 199.201 40.8576 199.038 40.8873C198.875 40.9229 198.733 41.0297 198.641 41.184C198.447 41.5104 198.518 41.9615 198.799 42.187C199.471 42.733 200.032 43.3799 200.45 44.1099Z" fill="#1E1E1E"/>
<path d="M187.409 30.3295C187.073 30.3948 186.843 30.7628 186.894 31.1545C186.94 31.4809 186.96 31.8251 186.96 32.1693C186.96 33.2376 186.746 34.3712 186.339 35.4394C186.272 35.6175 186.267 35.8133 186.329 35.9914C186.39 36.1694 186.507 36.3118 186.655 36.389C186.736 36.4305 186.818 36.4483 186.904 36.4483C187.149 36.4483 187.373 36.2822 187.47 36.021C187.944 34.7688 188.194 33.4394 188.194 32.1693C188.194 31.748 188.168 31.3325 188.112 30.929C188.061 30.5373 187.745 30.2702 187.409 30.3295Z" fill="#1E1E1E"/>
<path d="M74.2004 48.4139C73.2424 48.1053 72.2945 47.8263 71.1682 47.4999C70.8318 47.405 70.4955 47.6424 70.414 48.0281C70.3324 48.4198 70.5363 48.8115 70.8675 48.9065C71.9836 49.2329 72.9264 49.5118 73.8692 49.8145C74.2004 49.9213 74.547 49.6958 74.6387 49.31C74.6897 49.0964 74.654 48.8768 74.5521 48.7106C74.4705 48.5741 74.3533 48.4673 74.2004 48.4139Z" fill="#1E1E1E"/>
<path d="M52.8231 36.8402C53.1238 36.6503 53.2359 36.2051 53.0728 35.855C53.0168 35.7363 52.9658 35.6176 52.9098 35.4989C52.5276 34.6265 52.2116 33.665 51.967 32.6442C51.9466 32.5671 51.9211 32.4959 51.8854 32.4306C51.7376 32.1813 51.4675 32.0508 51.2025 32.1398C50.8713 32.2466 50.6776 32.6502 50.7694 33.0359C51.0344 34.1517 51.386 35.2022 51.8039 36.1577C51.8599 36.2882 51.9211 36.4188 51.9823 36.5494C52.1402 36.9054 52.5174 37.036 52.8231 36.8402Z" fill="#1E1E1E"/>
<path d="M53.9745 16.4426C54.1885 16.7572 54.5809 16.8047 54.851 16.5554C55.009 16.407 55.1772 16.2646 55.3505 16.1281C55.9824 15.6296 56.6704 15.2438 57.389 14.9827C57.7202 14.864 57.8986 14.4545 57.7967 14.0746C57.7763 14.0034 57.7508 13.9441 57.7202 13.8847C57.5724 13.6236 57.287 13.499 57.0169 13.5999C56.1812 13.9025 55.3861 14.3476 54.6523 14.9293C54.4535 15.0836 54.2599 15.2497 54.0764 15.4219C53.8012 15.6771 53.7553 16.1281 53.9745 16.4426Z" fill="#1E1E1E"/>
<path d="M64.6213 18.4364C65.0188 19.1902 65.4011 20.0745 65.8291 21.2139C65.875 21.3386 65.9209 21.4632 65.9667 21.5878C66.0992 21.9617 66.4662 22.1279 66.7821 21.9736C67.0981 21.8193 67.2459 21.392 67.1134 21.024C67.0675 20.8935 67.0217 20.7688 66.9707 20.6383C66.5222 19.4335 66.1094 18.4899 65.6814 17.6768C65.6763 17.6708 65.6712 17.659 65.6661 17.653C65.4775 17.3326 65.1106 17.2376 64.8201 17.4394C64.5296 17.6471 64.443 18.0922 64.6213 18.4364Z" fill="#1E1E1E"/>
<path d="M66.9641 24.9119C67.2342 26.1344 67.3514 27.2383 67.3208 28.2947C67.3106 28.6983 67.5757 29.0306 67.9222 29.0484C68.2687 29.0603 68.5541 28.7458 68.5694 28.3481C68.6051 27.1493 68.4777 25.9089 68.177 24.5498C68.1566 24.4668 68.1311 24.3896 68.0904 24.3243C67.9477 24.0751 67.6827 23.9504 67.4177 24.0276C67.0762 24.1285 66.8775 24.5202 66.9641 24.9119Z" fill="#1E1E1E"/>
<path d="M58.6926 43.2203C58.5244 43.5705 58.6366 44.0097 58.9372 44.2055C59.8291 44.7752 60.7974 45.3094 61.8166 45.796C62.1377 45.9503 62.4995 45.7723 62.632 45.3984C62.7135 45.1669 62.683 44.9117 62.5708 44.7159C62.5046 44.6031 62.4078 44.5082 62.2906 44.4488C61.3121 43.9859 60.3897 43.4755 59.5386 42.9295C59.2328 42.7396 58.8557 42.8702 58.6926 43.2203Z" fill="#1E1E1E"/>
<path d="M60.1966 14.6739C60.9101 14.7807 61.5726 15.0418 62.1638 15.4454C62.3625 15.5819 62.5562 15.7303 62.7396 15.9024C63.0148 16.1457 63.4021 16.0864 63.6162 15.7659C63.7844 15.5107 63.7844 15.1665 63.6366 14.9172C63.6009 14.8519 63.555 14.7985 63.499 14.7451C63.2696 14.5433 63.0352 14.3534 62.7906 14.1872C62.0516 13.6828 61.2311 13.3564 60.3546 13.2258C60.0131 13.1724 59.7023 13.4513 59.6564 13.8489C59.6105 14.2585 59.8552 14.6205 60.1966 14.6739Z" fill="#1E1E1E"/>
<path d="M64.3958 46.1231C64.2939 46.5089 64.4774 46.9125 64.8086 47.0312C65.7005 47.3516 66.6636 47.6662 67.8358 48.0223C68.167 48.1232 68.5085 47.8917 68.5951 47.5C68.641 47.2923 68.6053 47.0786 68.5085 46.9125C68.4269 46.77 68.2995 46.6632 68.1466 46.6157C66.9898 46.2656 66.047 45.9569 65.1704 45.6424C64.8443 45.5296 64.4977 45.7433 64.3958 46.1231Z" fill="#1E1E1E"/>
<path d="M52.9555 18.3242C52.9046 18.2411 52.8383 18.164 52.7568 18.1106C52.4612 17.9029 52.079 18.0156 51.9006 18.3598C51.3604 19.4103 50.9323 20.5913 50.6316 21.8792C50.5399 22.265 50.7336 22.6685 51.0699 22.7694C51.4012 22.8762 51.7426 22.6507 51.8343 22.259C52.1044 21.1017 52.4918 20.0394 52.9708 19.1017C53.1033 18.8524 53.088 18.5498 52.9555 18.3242Z" fill="#1E1E1E"/>
<path d="M50.7793 24.9232C50.4379 24.8994 50.1372 25.2021 50.1168 25.5998C50.0659 26.5375 50.071 27.5108 50.1219 28.5019C50.1372 28.7808 50.1576 29.0657 50.1831 29.3446C50.2187 29.7423 50.5194 30.0331 50.866 29.9975C51.2074 29.9559 51.4571 29.6058 51.4266 29.2022C51.4062 28.9351 51.3858 28.674 51.3705 28.4069C51.3195 27.4811 51.3144 26.5671 51.3654 25.6888C51.3756 25.5226 51.3348 25.3683 51.2584 25.2377C51.1514 25.0597 50.9781 24.9351 50.7793 24.9232Z" fill="#1E1E1E"/>
<path d="M66.705 31.5763C66.3533 32.5852 65.8437 33.5644 65.1965 34.4962C64.9773 34.8107 65.0232 35.2677 65.2882 35.517C65.5583 35.7722 65.9507 35.7188 66.1647 35.4102C66.8884 34.3716 67.4592 33.2677 67.8567 32.1282C67.9382 31.8967 67.9077 31.6415 67.7955 31.4457C67.7293 31.3329 67.6325 31.238 67.5152 31.1786C67.1993 31.0243 66.8375 31.2024 66.705 31.5763Z" fill="#1E1E1E"/>
<path d="M45.785 44.1524C45.413 44.3067 45.0511 44.4669 44.7046 44.6272C44.0727 44.9239 43.4458 45.2622 42.8394 45.6302C42.5336 45.8201 42.4164 46.2592 42.5795 46.6094C42.7425 46.9655 43.1146 47.102 43.4203 46.9121C43.986 46.5679 44.5721 46.2474 45.1632 45.9744C45.4945 45.8201 45.841 45.6717 46.1978 45.5233C46.5239 45.3868 46.6921 44.9773 46.58 44.5975C46.5596 44.5381 46.5392 44.4847 46.5086 44.4313C46.3558 44.1643 46.0602 44.0396 45.785 44.1524Z" fill="#1E1E1E"/>
<path d="M49.137 44.4785C50.1002 44.1758 51.0939 43.8969 52.0571 43.6239L52.1489 43.6002C52.4852 43.5052 52.6891 43.1135 52.6075 42.7218C52.5871 42.6328 52.5566 42.5556 52.5209 42.4844C52.3782 42.2411 52.1183 42.1105 51.8584 42.1877L51.7666 42.2114C50.7984 42.4844 49.7995 42.7693 48.821 43.072C48.4898 43.1729 48.291 43.5764 48.3827 43.9622C48.4592 44.3539 48.8006 44.5853 49.137 44.4785Z" fill="#1E1E1E"/>
<path d="M57.7914 40.2469C57.4245 40.4012 57.0422 40.5496 56.6396 40.698C55.9567 40.057 55.335 39.3745 54.7897 38.6683C54.5604 38.3715 54.168 38.3418 53.9081 38.6148C53.6532 38.8819 53.6278 39.3389 53.8622 39.6416C54.275 40.1757 54.7235 40.698 55.2127 41.1965C55.1006 41.2321 54.9834 41.2677 54.8661 41.3092C54.5349 41.4161 54.3361 41.8137 54.4279 42.1995C54.5196 42.5852 54.861 42.8167 55.1923 42.7099C55.6255 42.5734 56.0434 42.4369 56.4358 42.2944C56.6753 42.3834 56.9505 42.2944 57.1187 42.0511C57.5009 41.9087 57.8678 41.7662 58.2195 41.6179C58.5456 41.4814 58.7138 41.0659 58.5966 40.6861C58.5762 40.6267 58.5558 40.5733 58.5252 40.5259C58.3622 40.2588 58.0666 40.1342 57.7914 40.2469Z" fill="#1E1E1E"/>
<path d="M60.3034 39.8203C60.4665 40.1764 60.8436 40.307 61.1494 40.1171C61.71 39.7669 62.2604 39.3812 62.7751 38.9717C63.1471 38.6809 63.5038 38.3723 63.8453 38.0577C64.1052 37.8203 64.1562 37.393 63.9727 37.0844C63.9625 37.0666 63.9523 37.0547 63.9421 37.0369C63.7281 36.7224 63.3357 36.669 63.0656 36.9182C62.7496 37.209 62.4133 37.4939 62.0718 37.7669C61.5877 38.1467 61.078 38.5028 60.5531 38.8352C60.2525 39.0251 60.1403 39.4643 60.3034 39.8203Z" fill="#1E1E1E"/>
<path d="M117.209 51.0009C116.205 50.8584 115.206 50.894 114.207 51.0543C114.065 51.078 113.901 51.2501 113.83 51.3925C113.754 51.5469 113.718 51.7783 113.769 51.9564C113.82 52.1344 113.912 52.3065 114.059 52.3955C114.217 52.4964 114.365 52.4964 114.544 52.4667C114.396 52.4905 114.589 52.4608 114.62 52.4549C114.676 52.4489 114.727 52.443 114.783 52.4311C114.9 52.4193 115.018 52.4074 115.135 52.3955C115.364 52.3777 115.588 52.3659 115.818 52.3659C116.281 52.3599 116.745 52.3955 117.209 52.4608C117.535 52.5083 117.851 52.0929 117.836 51.7308C117.82 51.2976 117.561 51.0483 117.209 51.0009Z" fill="#1E1E1E"/>
<path d="M122.385 53.1966C122.334 53.0067 122.238 52.8821 122.095 52.7575C121.448 52.1996 120.683 51.8019 119.893 51.6061C119.572 51.5289 119.2 51.7129 119.119 52.1165C119.047 52.4845 119.216 52.9296 119.557 53.0186C119.853 53.0898 120.143 53.1966 120.423 53.3272C120.79 53.5171 121.137 53.7426 121.463 54.0216C121.585 54.1284 121.804 54.1403 121.947 54.0928C122.095 54.0453 122.253 53.9148 122.324 53.7545C122.396 53.5943 122.436 53.3865 122.385 53.1966Z" fill="#1E1E1E"/>
<path d="M126.418 57.0659C125.802 56.051 125.007 55.2023 124.064 54.6088C123.774 54.4249 123.366 54.5139 123.203 54.87C123.05 55.2083 123.121 55.6771 123.427 55.873C123.636 56.0035 123.835 56.146 124.028 56.3062C124.074 56.3418 124.115 56.3774 124.156 56.413C124.171 56.4249 124.186 56.4427 124.207 56.4546C124.298 56.5377 124.385 56.6207 124.472 56.7098C124.645 56.8878 124.808 57.0777 124.961 57.2736C125.037 57.3745 125.114 57.4754 125.185 57.5822C125.185 57.5822 125.185 57.5881 125.19 57.5881C125.195 57.6 125.206 57.6119 125.211 57.6178C125.211 57.6178 125.211 57.6237 125.216 57.6237C125.221 57.6356 125.226 57.6415 125.236 57.6534C125.231 57.6415 125.231 57.6415 125.226 57.6356C125.262 57.689 125.297 57.7484 125.333 57.8018C125.43 57.962 125.542 58.0867 125.71 58.1401C125.863 58.1875 126.062 58.1638 126.194 58.0689C126.459 57.8671 126.622 57.3982 126.418 57.0659Z" fill="#1E1E1E"/>
<path d="M125.195 57.5887L125.19 57.5827C125.17 57.5527 125.165 57.5527 125.226 57.6366C125.226 57.6306 125.221 57.6306 125.221 57.6246C125.211 57.6126 125.206 57.6007 125.195 57.5887Z" fill="#1E1E1E"/>
<path d="M131.249 61.0605C130.973 61.0071 130.708 60.9299 130.443 60.835C130.306 60.7815 130.173 60.7281 130.041 60.6688C130.041 60.6688 130.041 60.6688 130.036 60.6688C130.01 60.6569 129.98 60.6391 129.959 60.6272C129.893 60.5916 129.822 60.5501 129.755 60.5145C129.511 60.372 129.271 60.2059 129.042 60.0219C128.986 59.9803 128.935 59.9329 128.884 59.8854C128.858 59.8616 128.833 59.8379 128.813 59.8142C128.695 59.7014 128.583 59.5827 128.476 59.464C128.237 59.1969 127.819 59.1673 127.589 59.464C127.365 59.7489 127.335 60.2177 127.589 60.4967C128.502 61.5175 129.669 62.2296 130.917 62.473C131.238 62.5383 131.61 62.3721 131.692 61.9626C131.758 61.6065 131.595 61.1258 131.249 61.0605Z" fill="#1E1E1E"/>
<path d="M137.217 60.7162C137.038 60.3957 136.651 60.2295 136.356 60.455C136.182 60.5856 136.009 60.7043 135.82 60.8111C135.805 60.8171 135.678 60.9001 135.673 60.8883C135.698 60.8764 135.724 60.8645 135.749 60.8527C135.724 60.8645 135.698 60.8764 135.673 60.8883C135.576 60.9298 135.479 60.9714 135.382 61.007C135.194 61.0782 135 61.1316 134.806 61.1672C134.791 61.1731 134.776 61.1731 134.76 61.1731C134.73 61.1672 134.674 61.185 134.648 61.1909C134.541 61.2028 134.429 61.2088 134.322 61.2147C133.996 61.2206 133.68 61.547 133.695 61.9447C133.711 62.3364 133.971 62.6865 134.322 62.6747C135.265 62.6509 136.208 62.3245 136.993 61.7132C137.263 61.5055 137.405 61.0604 137.217 60.7162Z" fill="#1E1E1E"/>
<path d="M140.947 55.0718C140.591 54.9769 140.3 55.1965 140.178 55.5822C140.152 55.6653 140.122 55.7484 140.096 55.8315C140.096 55.8374 140.096 55.8374 140.096 55.8374C140.096 55.8434 140.096 55.8434 140.091 55.8493C140.076 55.8849 140.066 55.9205 140.05 55.9561C139.989 56.1164 139.918 56.2766 139.852 56.4368C139.709 56.7514 139.551 57.06 139.378 57.3508C139.337 57.4161 139.301 57.4814 139.261 57.5467C139.235 57.5882 139.21 57.6238 139.184 57.6654C139.179 57.6713 139.159 57.701 139.148 57.7188C139.133 57.7425 139.113 57.7663 139.108 57.7781C139.087 57.8078 139.067 57.8375 139.041 57.8671C138.99 57.9384 138.945 58.0036 138.894 58.0689C138.685 58.3419 138.46 58.6031 138.226 58.8464C137.981 59.1016 137.986 59.6238 138.226 59.879C138.486 60.158 138.853 60.152 139.113 59.879C140.137 58.8167 140.907 57.4636 141.386 55.968C141.503 55.6119 141.258 55.1549 140.947 55.0718Z" fill="#1E1E1E"/>
</svg>
