<svg width="646" height="156" viewBox="0 0 646 156" fill="none" xmlns="http://www.w3.org/2000/svg">
<rect width="646" height="155" rx="8" fill="#00A99D"/>
<path d="M370 137.442L367 153.942H357C359.5 146.442 364.5 131.242 364.5 130.442C364.5 129.642 367.5 130.108 369 130.442L370 137.442Z" fill="white"/>
<path d="M337.5 133L349.5 155.5H320L315.5 132.5L310 98.5V69V60.5L304.5 62.5L292 64.5L289.5 60.5L299.5 46L304.5 41.5L299.5 29L304.5 30.5L308.5 37H314.5L321.5 29L324 30.5V35L320 41.5L325.5 50.5L329 99.5L337.5 133Z" fill="white"/>
<path d="M47.7403 100.291L43.7219 93.8199C42.7515 92.2577 40.2217 93.549 41.1969 95.1305C41.8423 96.1655 42.4829 97.2053 43.1283 98.2451L40.3018 97.2392C40.2453 97.2392 40.1982 97.2392 40.1464 97.2005C39.879 97.0655 39.5745 97.0296 39.2843 97.0989C38.6012 97.2488 37.9511 98.0662 38.1961 98.8207C38.6884 100.335 39.2576 101.822 39.9014 103.275C40.6645 104.977 43.199 103.667 42.4264 101.969C42.2662 101.616 42.1249 101.258 41.9553 100.905L46.0208 102.356C47.1184 102.704 48.3951 101.379 47.7403 100.291Z" fill="white"/>
<path d="M73.8312 68.0947C70.0332 66.7264 65.9921 66.1511 61.9603 66.4049C62.5779 64.6048 62.9889 62.7412 63.1856 60.8494C63.3114 59.7152 62.0674 59.1967 61.1589 59.5439C59.5713 60.136 58.0504 60.8916 56.6212 61.7985C55.5263 62.4975 54.5433 63.5253 53.4717 64.2707C51.8504 63.0207 50.4574 60.9883 49.2321 59.4976C48.4075 58.4976 46.9027 59.2152 46.7862 60.3495C46.5626 62.229 46.4228 64.1086 46.3529 65.9975L41.2048 64.7799C40.9127 64.6832 40.5967 64.685 40.3058 64.785C40.0149 64.8851 39.7654 65.0778 39.596 65.3332C39.4265 65.5886 39.3467 65.8925 39.3689 66.1976C39.3911 66.5027 39.514 66.792 39.7186 67.0206C40.874 68.5484 42.0139 70.0915 43.1383 71.6501C44.1958 73.0992 46.2784 71.2427 45.2348 69.7983C44.8714 69.303 44.5033 68.8169 44.1399 68.3261L47.266 69.0669C47.4709 69.1343 47.6887 69.1536 47.9024 69.1234C48.116 69.0932 48.3197 69.0143 48.4975 68.8927C48.6753 68.7712 48.8224 68.6104 48.9273 68.4229C49.0321 68.2355 49.0918 68.0265 49.1017 67.8123C49.1017 66.4743 49.1762 65.141 49.2694 63.8077C49.7959 64.3864 50.3269 64.9605 50.8767 65.516C51.6128 66.2614 52.5166 67.4697 53.7233 67.2891C55.0324 67.0947 56.2019 65.4373 57.2082 64.7382C58.0948 64.1152 59.0295 63.5625 60.0035 63.0855C59.66 64.6281 59.1573 66.1314 58.5033 67.5715C58.0374 68.6132 59.1835 69.4974 60.1246 69.3631C62.4126 69.0471 64.7325 69.0315 67.0245 69.3169C65.0278 69.7294 63.0805 70.3501 61.2149 71.1687C61.0235 71.2641 60.8568 71.402 60.7275 71.5716C60.5983 71.7413 60.51 71.9382 60.4695 72.1471C60.429 72.356 60.4373 72.5714 60.4938 72.7766C60.5504 72.9818 60.6536 73.1714 60.7955 73.3307C61.3872 74.0251 61.9882 74.7195 62.5985 75.3908C61.7356 75.0661 60.8515 74.8 59.9522 74.5945C58.9739 74.3769 57.8744 75.0945 58.1493 76.2056C58.6317 78.1164 59.2117 80.0015 59.8871 81.8536L55.1862 79.599C54.3569 79.2009 53.3786 80.062 53.3553 80.849C53.3341 81.499 53.3481 82.1496 53.3972 82.7981L48.0534 80.7518C46.912 80.3166 45.8218 81.6777 46.3669 82.6962C47.6093 85.082 48.8144 87.4909 49.9822 89.9229C50.7509 91.5432 53.2435 90.284 52.4794 88.6683C51.8427 87.3258 51.1888 85.9924 50.518 84.6684L54.711 86.261C54.9447 86.3373 55.1946 86.351 55.4353 86.3007C55.676 86.2503 55.8991 86.1377 56.082 85.9743C56.265 85.8108 56.4012 85.6023 56.4771 85.3697C56.5529 85.1372 56.5656 84.8889 56.514 84.6499C56.4053 84.1592 56.3229 83.6631 56.2671 83.1638L62.0627 85.9415C63.2508 86.5109 64.1732 84.9693 63.7493 83.9971C62.8936 82.0373 62.1593 80.0275 61.5503 77.9787C63.8052 78.8074 65.939 79.9879 68.0728 81.0389C68.1433 81.0727 68.2165 81.1005 68.2917 81.1222C69.6055 82.1546 71.553 80.3907 70.2857 79.2055C68.1457 77.238 66.1101 75.1612 64.1872 72.9834C67.2295 71.9094 70.6072 71.4603 73.696 70.7752C73.9972 70.7112 74.2686 70.5501 74.4682 70.3171C74.6678 70.0841 74.7843 69.7921 74.7997 69.4865C74.8151 69.1809 74.7285 68.8788 74.5534 68.6271C74.3782 68.3754 74.1244 68.1882 73.8312 68.0947Z" fill="white"/>
<path d="M49.2737 94.6237L49.2064 94.5902L46.2969 93.5706C46.1961 93.5362 46.0926 93.5122 45.9876 93.4988C45.0147 93.0201 44.0374 92.5414 43.0421 92.1776C42.0468 91.8138 41.1368 91.6989 40.3029 92.4648C39.4063 93.2881 38.8728 94.7817 38.281 95.8636C37.48 97.3252 36.679 98.7884 35.878 100.253C35.7604 100.48 35.699 100.736 35.6995 100.995C35.6999 101.255 35.7624 101.51 35.8808 101.736C35.9993 101.963 36.1698 102.154 36.3764 102.29C36.583 102.427 36.8188 102.505 37.0616 102.518C37.2012 102.699 37.3796 102.842 37.5817 102.934C39.7076 103.928 41.7805 105.047 43.7908 106.285C44.3781 106.644 45.3061 106.601 45.6737 105.878C47.1681 102.865 48.6775 99.8559 50.2017 96.8497C50.3015 96.6417 50.3563 96.4125 50.3622 96.1789C50.3681 95.9453 50.3251 95.7133 50.2361 95.4998C50.1471 95.2864 50.0144 95.0969 49.8479 94.9453C49.6814 94.7937 49.4852 94.6838 49.2737 94.6237ZM44.0015 103.106C42.3427 102.149 40.6496 101.254 38.9221 100.421L41.343 96.0024C41.4461 95.8109 41.7913 94.8918 41.9841 94.8296C42.1769 94.7673 42.9211 95.2604 43.1139 95.3514L46.4852 96.8928C46.6659 96.9771 46.8619 97.018 47.0591 97.0124L44.0015 103.106Z" fill="#1E1E1E"/>
<path d="M74.5083 69.8723C73.0504 64.1954 67.1582 60.5045 62.0487 58.4858C56.8502 56.4483 50.8407 55.7832 45.5437 57.83C40.1296 59.919 35.8967 65.0151 35.6998 70.9168C35.6933 71.2238 35.7841 71.525 35.9592 71.7774C36.1343 72.0297 36.3848 72.2203 36.6748 72.322L43.0874 74.4625C43.3823 74.5554 43.6993 74.5508 43.9914 74.4496C44.2835 74.3484 44.5353 74.1558 44.7093 73.9004C46.4812 70.959 49.3078 67.966 52.9829 67.8114C55.8236 67.7037 59.2221 69.8114 59.0111 72.9637C58.7205 77.2963 53.7985 78.6359 50.2172 78.3595C48.6563 78.2377 46.9968 77.9989 45.6421 78.9825C45.0899 79.3453 44.6602 79.8663 44.4093 80.4772C44.1584 81.0881 44.0979 81.7606 44.2359 82.4064C44.1652 82.5197 44.1115 82.6428 44.0765 82.7717C43.739 83.9989 43.4062 85.2261 43.0687 86.4533C41.8874 87.4509 42.178 89.3245 43.3687 90.2004C44.1515 90.7952 45.1218 90.9404 46.0406 91.2215C47.3667 91.6362 48.6431 92.1954 49.8469 92.8889C50.0296 93.0048 50.2361 93.078 50.4511 93.1031C50.666 93.1282 50.8838 93.1045 51.0884 93.0338C51.2929 92.9632 51.4789 92.8473 51.6324 92.6949C51.7859 92.5425 51.903 92.3575 51.9751 92.1536L53.9391 87.3011C56.3429 87.9298 58.8584 88.0036 61.295 87.5166C63.7315 87.0297 66.0251 85.9949 68.0019 84.4907C72.1879 81.3759 75.8864 75.24 74.5083 69.8723ZM69.1973 79.3197C67.4547 81.7521 64.9613 83.5456 62.0998 84.4248C59.2383 85.304 56.1671 85.2202 53.3579 84.1863C52.2094 83.7553 51.4407 84.828 51.5719 85.7741C51.5133 85.8588 51.4645 85.95 51.4266 86.0458L49.9219 89.7694C49.3219 89.4744 48.7125 89.2027 48.0843 88.9638C47.4562 88.725 46.9406 88.5657 46.3547 88.4018L45.6187 88.205L45.5577 88.1629C45.964 86.6672 46.3734 85.1714 46.7859 83.6757C46.8197 83.5458 46.8355 83.4118 46.8328 83.2776C46.9921 83.1212 47.1012 82.921 47.1463 82.7025C47.1914 82.484 47.1704 82.257 47.0859 82.0504C46.6171 80.6452 49.4578 81.1605 50.0766 81.2073C51.1321 81.294 52.1936 81.2752 53.2454 81.1511C55.3188 80.9355 57.2847 80.1217 58.9033 78.8092C61.8143 76.3127 62.8503 72.0269 60.5909 68.7763C58.6361 65.9659 54.9658 64.603 51.6376 65.1697C47.9391 65.802 44.9812 68.425 42.9327 71.4555L38.6201 70.0175C39.3092 64.9214 43.6452 61.0104 48.5906 59.8722C54.4267 58.528 60.9283 60.3781 65.8503 63.5912C68.3816 65.24 71.1192 67.6943 71.7989 70.7716C72.4505 73.7225 70.9223 76.9684 69.1973 79.3197Z" fill="#1E1E1E"/>
<path d="M400.95 93.1973L396.501 86.032C395.426 84.3022 392.625 85.7321 393.705 87.4833C394.42 88.6293 395.129 89.7807 395.844 90.9321L392.714 89.8182C392.652 89.8182 392.599 89.8181 392.542 89.7753C392.246 89.6258 391.909 89.5861 391.588 89.6629C390.831 89.8289 390.111 90.7339 390.383 91.5694C390.928 93.2461 391.558 94.8924 392.271 96.5016C393.116 98.3866 395.922 96.9353 395.066 95.0556C394.889 94.6647 394.733 94.2684 394.545 93.8775L399.046 95.4841C400.262 95.8696 401.675 94.4023 400.95 93.1973Z" fill="white"/>
<path d="M429.838 57.5487C425.632 56.0336 421.158 55.3967 416.694 55.6776C417.378 53.6845 417.833 51.621 418.051 49.5264C418.19 48.2705 416.813 47.6964 415.807 48.0808C414.049 48.7364 412.365 49.5731 410.783 50.5772C409.57 51.3512 408.482 52.4892 407.296 53.3145C405.5 51.9305 403.958 49.6802 402.601 48.0296C401.688 46.9224 400.022 47.7169 399.893 48.9728C399.646 51.054 399.491 53.1351 399.414 55.2265L393.714 53.8784C393.39 53.7713 393.04 53.7733 392.718 53.8841C392.396 53.9949 392.12 54.2082 391.932 54.491C391.745 54.7739 391.656 55.1103 391.681 55.4481C391.705 55.786 391.841 56.1063 392.068 56.3594C393.347 58.051 394.609 59.7597 395.854 61.4855C397.025 63.0899 399.331 61.0344 398.176 59.435C397.773 58.8866 397.366 58.3483 396.963 57.805L400.425 58.6251C400.651 58.6998 400.893 58.7212 401.129 58.6877C401.366 58.6543 401.591 58.5669 401.788 58.4323C401.985 58.2978 402.148 58.1197 402.264 57.9121C402.38 57.7046 402.446 57.4732 402.457 57.236C402.457 55.7545 402.54 54.2782 402.643 52.8019C403.226 53.4427 403.814 54.0783 404.422 54.6934C405.237 55.5187 406.238 56.8566 407.574 56.6567C409.024 56.4414 410.318 54.6063 411.433 53.8323C412.414 53.1424 413.449 52.5305 414.528 52.0023C414.147 53.7103 413.591 55.3748 412.867 56.9694C412.351 58.1228 413.62 59.1018 414.662 58.9532C417.195 58.6032 419.763 58.586 422.301 58.9019C420.09 59.3588 417.934 60.046 415.869 60.9524C415.657 61.0581 415.472 61.2107 415.329 61.3985C415.186 61.5864 415.088 61.8044 415.043 62.0357C414.999 62.267 415.008 62.5055 415.07 62.7327C415.133 62.9599 415.247 63.1698 415.404 63.3462C416.06 64.1151 416.725 64.884 417.401 65.6273C416.445 65.2677 415.466 64.9731 414.471 64.7456C413.387 64.5047 412.17 65.2993 412.474 66.5295C413.009 68.6452 413.651 70.7325 414.399 72.7833L409.194 70.2869C408.276 69.846 407.192 70.7995 407.167 71.6709C407.143 72.3906 407.159 73.111 407.213 73.829L401.296 71.5633C400.033 71.0814 398.825 72.5885 399.429 73.7162C400.805 76.3578 402.139 79.0251 403.432 81.718C404.283 83.5121 407.043 82.1178 406.197 80.3288C405.492 78.8423 404.768 77.366 404.025 75.8999L408.668 77.6633C408.926 77.7478 409.203 77.763 409.47 77.7072C409.736 77.6515 409.983 77.5268 410.186 77.3459C410.388 77.1649 410.539 76.934 410.623 76.6765C410.707 76.419 410.721 76.144 410.664 75.8794C410.544 75.3361 410.452 74.7868 410.391 74.2339L416.808 77.3096C418.123 77.9401 419.144 76.2331 418.675 75.1566C417.727 72.9867 416.914 70.7612 416.24 68.4928C418.737 69.4103 421.099 70.7175 423.462 71.8811C423.54 71.9185 423.621 71.9494 423.704 71.9734C425.159 73.1165 427.315 71.1634 425.912 69.8512C423.543 67.6726 421.289 65.3731 419.16 62.9618C422.528 61.7725 426.268 61.2753 429.688 60.5166C430.021 60.4458 430.322 60.2675 430.543 60.0095C430.764 59.7514 430.893 59.4281 430.91 59.0898C430.927 58.7514 430.831 58.4168 430.637 58.1382C430.443 57.8595 430.162 57.6523 429.838 57.5487Z" fill="white"/>
<path d="M402.648 86.9222L402.573 86.8851L399.352 85.7561C399.24 85.7181 399.125 85.6915 399.009 85.6766C397.932 85.1466 396.85 84.6165 395.748 84.2137C394.646 83.8109 393.638 83.6837 392.715 84.5317C391.722 85.4434 391.132 87.0971 390.476 88.2949C389.59 89.9133 388.703 91.5334 387.816 93.1553C387.686 93.4068 387.618 93.6895 387.618 93.9768C387.619 94.2641 387.688 94.5466 387.819 94.7975C387.95 95.0484 388.139 95.2594 388.368 95.4108C388.596 95.5621 388.858 95.6487 389.126 95.6623C389.281 95.8631 389.478 96.0212 389.702 96.1234C392.056 97.2239 394.351 98.4625 396.577 99.8336C397.227 100.231 398.255 100.183 398.662 99.3831C400.316 96.0475 401.987 92.7154 403.675 89.3868C403.786 89.1565 403.846 88.9027 403.853 88.6441C403.859 88.3855 403.812 88.1286 403.713 87.8922C403.615 87.6559 403.468 87.4461 403.283 87.2782C403.099 87.1103 402.882 86.9887 402.648 86.9222ZM396.81 96.3143C394.974 95.2542 393.099 94.263 391.186 93.3408L393.867 88.4486C393.981 88.2366 394.363 87.219 394.577 87.1501C394.79 87.0812 395.614 87.6271 395.827 87.7278L399.56 89.4345C399.76 89.5279 399.977 89.5731 400.196 89.567L396.81 96.3143Z" fill="#1E1E1E"/>
<path d="M430.588 59.517C428.974 53.2314 422.45 49.1448 416.793 46.9096C411.037 44.6537 404.383 43.9172 398.518 46.1835C392.524 48.4965 387.837 54.139 387.619 60.6735C387.612 61.0134 387.712 61.3469 387.906 61.6263C388.1 61.9057 388.377 62.1167 388.699 62.2293L395.799 64.5993C396.125 64.7021 396.476 64.6971 396.8 64.585C397.123 64.4729 397.402 64.2597 397.594 63.977C399.556 60.7201 402.686 57.4062 406.755 57.2351C409.9 57.1158 413.663 59.4495 413.429 62.9398C413.108 67.7369 407.658 69.2201 403.693 68.9141C401.964 68.7793 400.127 68.5148 398.627 69.6039C398.016 70.0056 397.54 70.5825 397.262 71.2589C396.984 71.9353 396.917 72.6798 397.07 73.3949C396.992 73.5204 396.932 73.6567 396.894 73.7994C396.52 75.1582 396.152 76.517 395.778 77.8757C394.47 78.9804 394.792 81.0548 396.11 82.0246C396.977 82.6832 398.051 82.844 399.068 83.1551C400.537 83.6144 401.95 84.2335 403.283 85.0014C403.485 85.1297 403.714 85.2107 403.952 85.2385C404.19 85.2663 404.431 85.2401 404.657 85.1618C404.884 85.0836 405.09 84.9553 405.26 84.7866C405.43 84.6178 405.559 84.4129 405.639 84.1872L407.814 78.8144C410.475 79.5106 413.26 79.5922 415.958 79.0531C418.656 78.514 421.195 77.3682 423.384 75.7027C428.019 72.254 432.114 65.4602 430.588 59.517ZM424.708 69.9773C422.778 72.6705 420.017 74.6563 416.849 75.6298C413.681 76.6032 410.28 76.5104 407.17 75.3656C405.899 74.8885 405.047 76.0761 405.193 77.1237C405.128 77.2175 405.074 77.3184 405.032 77.4245L403.366 81.5474C402.701 81.2207 402.027 80.9199 401.331 80.6555C400.636 80.391 400.065 80.2146 399.416 80.0331L398.601 79.8153L398.534 79.7686C398.984 78.1125 399.437 76.4564 399.894 74.8003C399.931 74.6565 399.949 74.5082 399.946 74.3595C400.122 74.1864 400.243 73.9648 400.293 73.7228C400.343 73.4808 400.319 73.2295 400.226 73.0008C399.707 71.445 402.852 72.0154 403.537 72.0673C404.706 72.1633 405.881 72.1424 407.046 72.0051C409.341 71.7663 411.518 70.8653 413.31 69.412C416.533 66.6478 417.68 61.9026 415.178 58.3034C413.014 55.1918 408.95 53.6826 405.265 54.3101C401.17 55.0103 397.895 57.9145 395.627 61.2699L390.852 59.6777C391.615 54.0353 396.416 49.7049 401.892 48.4447C408.354 46.9563 415.552 49.0048 421.002 52.5624C423.804 54.3879 426.835 57.1054 427.588 60.5127C428.309 63.7799 426.617 67.3739 424.708 69.9773Z" fill="#1E1E1E"/>
<path d="M150.742 88.5623L143.06 88.3389C141.213 88.2831 140.854 91.1048 142.718 91.1713L146.401 91.2798L143.955 93.0945C143.912 93.1281 143.872 93.1648 143.835 93.2045C143.571 93.3531 143.368 93.5874 143.26 93.8679C142.995 94.5213 143.313 95.5186 144.074 95.7275C145.613 96.1551 147.173 96.5017 148.748 96.7657C150.592 97.0668 150.935 94.2343 149.09 93.9332C148.713 93.8701 148.332 93.7905 147.953 93.7169L151.467 91.115C152.401 90.4181 152.031 88.6042 150.742 88.5623Z" fill="#FBB03B"/>
<path d="M138.519 45.6643C135.039 48.2438 132.116 51.5174 129.934 55.2794C128.711 53.6509 127.311 52.1683 125.758 50.8594C124.833 50.073 123.63 50.8767 123.396 51.8939C122.972 53.6706 122.73 55.4844 122.672 57.3067C122.638 58.6993 122.959 60.1969 122.973 61.6006C120.901 62.3049 118.278 62.3341 116.225 62.5415C114.851 62.6834 114.598 64.4412 115.518 65.2418C117.048 66.5608 118.624 67.8161 120.247 69.0075L116.093 72.8927C115.834 73.0968 115.648 73.3808 115.563 73.7008C115.479 74.0207 115.5 74.3587 115.625 74.6625C115.749 74.9662 115.97 75.2186 116.252 75.3808C116.535 75.543 116.863 75.6057 117.187 75.5594C119.222 75.4464 121.26 75.3472 123.303 75.2617C125.214 75.1807 124.82 72.2065 122.931 72.2843C122.275 72.3102 121.619 72.3678 120.973 72.3811L123.497 70.0237C123.678 69.8807 123.825 69.6976 123.925 69.4888C124.026 69.28 124.078 69.0511 124.076 68.82C124.075 68.5889 124.022 68.3618 123.919 68.1563C123.817 67.9509 123.669 67.7727 123.487 67.6357C122.315 66.8236 121.172 65.9736 120.05 65.0936C120.876 64.9667 121.703 64.835 122.52 64.6732C123.635 64.4645 125.23 64.3767 125.79 63.1843C126.398 61.897 125.647 59.8718 125.612 58.5456C125.594 57.3782 125.664 56.2101 125.823 55.0516C126.982 56.2823 128.01 57.6319 128.892 59.0791C129.532 60.1183 130.998 59.6157 131.443 58.6969C132.528 56.4579 133.901 54.3717 135.526 52.4932C134.698 54.5311 134.087 56.6502 133.703 58.8143C133.674 59.042 133.697 59.2727 133.77 59.4889C133.843 59.705 133.964 59.9008 134.124 60.0611C134.285 60.2215 134.479 60.3422 134.694 60.414C134.908 60.4858 135.136 60.5067 135.361 60.4753C136.332 60.366 137.294 60.2377 138.259 60.0999C137.457 60.6693 136.695 61.2953 135.979 61.9733C135.203 62.7159 135.181 64.1339 136.327 64.5502C138.3 65.2626 140.31 65.8704 142.348 66.3714L137.549 69.2317C136.704 69.7336 136.861 71.117 137.56 71.6198C138.121 72.0273 138.705 72.4028 139.308 72.7445L134.309 76.3102C133.24 77.0698 133.778 78.8478 135.021 78.9795C137.873 79.2824 140.719 79.6433 143.559 80.0623C145.451 80.3405 145.831 77.3596 143.939 77.0814C142.377 76.8464 140.805 76.6398 139.238 76.4459L143.14 73.6618C143.347 73.4982 143.508 73.2826 143.607 73.0369C143.707 72.7912 143.74 72.5241 143.705 72.2626C143.67 72.0011 143.567 71.7545 143.407 71.5477C143.246 71.3409 143.034 71.1813 142.792 71.0849C142.293 70.8889 141.806 70.6663 141.331 70.418L147.236 66.8853C148.448 66.1639 147.633 64.4187 146.524 64.216C144.276 63.8072 142.056 63.2605 139.877 62.579C141.963 61.0582 144.279 59.8385 146.473 58.5504C146.543 58.5071 146.61 58.4591 146.674 58.4067C148.369 57.8443 147.987 55.0331 146.171 55.4751C143.155 56.2135 140.104 56.7936 137.032 57.213C137.902 53.853 139.522 50.5575 140.77 47.3579C140.872 47.0571 140.878 46.7325 140.787 46.4305C140.695 46.1286 140.512 45.8647 140.262 45.6767C140.012 45.4888 139.709 45.3864 139.396 45.3841C139.082 45.3819 138.775 45.48 138.519 45.6643Z" fill="#FBB03B"/>
<path d="M147.245 84.0868L147.173 84.129L144.532 86.1549C144.441 86.2247 144.357 86.3046 144.284 86.3931C143.288 86.9914 142.279 87.5957 141.358 88.2808C140.436 88.9659 139.822 89.7249 139.939 90.9019C140.088 92.182 141.052 93.4987 141.613 94.6421L143.901 99.2932C144.026 99.5254 144.208 99.7231 144.43 99.868C144.652 100.013 144.908 100.1 145.173 100.122C145.437 100.143 145.703 100.099 145.944 99.9915C146.186 99.8845 146.396 99.7188 146.554 99.5097C146.795 99.487 147.028 99.408 147.231 99.2792C149.375 97.9398 151.592 96.7177 153.873 95.6185C154.54 95.2974 155.072 94.4438 154.67 93.7027L149.708 84.51C149.59 84.3033 149.427 84.125 149.231 83.988C149.035 83.851 148.811 83.7588 148.574 83.7182C148.338 83.6776 148.096 83.6897 147.866 83.7535C147.636 83.8172 147.424 83.9312 147.245 84.0868ZM151.282 93.6561C149.441 94.5935 147.646 95.6009 145.895 96.6784C145.124 95.1219 144.355 93.5607 143.587 91.995C143.488 91.7974 142.905 90.9484 142.969 90.7603C143.034 90.5723 143.908 90.1629 144.101 90.0392L147.474 87.8986C147.657 87.7842 147.811 87.6301 147.925 87.4477L151.282 93.6561Z" fill="#1E1E1E"/>
<path d="M141.075 45.8778C135.271 43.8273 128.533 46.9586 123.739 50.391C118.864 53.8928 114.695 58.9313 113.303 64.9476C111.881 71.0826 113.77 77.9412 118.772 81.6184C119.037 81.8152 119.359 81.9168 119.69 81.9082C120.021 81.8995 120.343 81.781 120.607 81.5704L126.313 77.0545C126.571 76.8427 126.757 76.5526 126.844 76.2274C126.932 75.9022 126.915 75.5592 126.797 75.2495C125.305 71.9004 124.395 67.5655 126.473 64.156C128.082 61.5233 131.94 59.6989 134.542 61.752C138.132 64.5884 136.349 69.8364 133.963 72.9152C132.926 74.2574 131.726 75.6196 131.772 77.4271C131.76 78.1376 131.956 78.8303 132.335 79.4157C132.713 80.0011 133.256 80.4523 133.894 80.711C133.954 80.8412 134.029 80.9628 134.119 81.0725L136.698 84.1619C136.854 85.8294 138.653 86.6733 140.148 86.1327C141.129 85.7724 141.836 84.985 142.631 84.3191C143.783 83.3623 145.033 82.5386 146.357 81.8633C146.567 81.7661 146.754 81.6222 146.904 81.4421C147.054 81.2621 147.164 81.0506 147.225 80.8232C147.286 80.5959 147.296 80.3586 147.256 80.1289C147.216 79.8991 147.125 79.683 146.991 79.4963L143.952 74.8401C145.937 73.0348 147.507 70.7988 148.543 68.3014C149.58 65.804 150.055 63.1105 149.933 60.4247C149.667 54.8022 146.559 47.8142 141.075 45.8778ZM146.096 56.2886C147.167 59.3097 147.233 62.632 146.285 65.7443C145.336 68.8567 143.425 71.5866 140.846 73.5142C139.782 74.2984 140.255 75.6325 141.154 76.0729C141.197 76.1744 141.249 76.2714 141.31 76.3625L143.637 79.9422C143.023 80.309 142.422 80.6966 141.844 81.1241C141.267 81.5517 140.811 81.9242 140.321 82.3546C140.113 82.5367 139.91 82.7205 139.706 82.9042L139.634 82.9334L136.471 79.1664C136.38 79.0579 136.275 78.9624 136.158 78.8822C136.117 78.646 136.008 78.4294 135.845 78.2599C135.682 78.0904 135.472 77.9757 135.243 77.9302C133.722 77.5149 135.885 75.2536 136.298 74.7161C137.004 73.8143 137.623 72.8438 138.143 71.8192C139.201 69.8059 139.666 67.5314 139.481 65.2787C139.062 61.1647 135.959 57.6765 131.776 57.8133C129.98 57.9139 128.236 58.5252 126.738 59.5787C125.24 60.6321 124.046 62.0863 123.292 63.7784C121.626 67.5165 122.126 71.7281 123.543 75.3855L119.719 78.432C115.709 74.7858 114.904 68.5384 116.871 63.3907C119.195 57.3095 124.692 52.5235 130.426 49.9708C133.369 48.6636 137.135 47.6368 140.211 48.8506C143.187 50.0247 145.092 53.3367 146.096 56.2886Z" fill="#1E1E1E"/>
<path d="M498.841 107.567L490.879 107.335C488.966 107.278 488.594 110.201 490.525 110.27L494.342 110.383L491.807 112.263C491.762 112.298 491.721 112.336 491.683 112.377C491.409 112.531 491.199 112.774 491.087 113.064C490.813 113.741 491.142 114.774 491.931 114.991C493.526 115.434 495.142 115.793 496.774 116.067C498.686 116.379 499.04 113.444 497.129 113.132C496.738 113.066 496.343 112.984 495.95 112.908L499.592 110.212C500.56 109.49 500.177 107.61 498.841 107.567Z" fill="#FBB03B"/>
<path d="M486.173 63.1084C482.567 65.7816 479.538 69.1742 477.276 73.0728C476.009 71.3851 474.558 69.8487 472.949 68.4922C471.99 67.6773 470.743 68.5101 470.5 69.5643C470.062 71.4055 469.81 73.2852 469.75 75.1738C469.715 76.617 470.048 78.169 470.063 79.6237C467.915 80.3536 465.197 80.3838 463.069 80.5987C461.646 80.7458 461.383 82.5675 462.337 83.3972C463.922 84.7641 465.556 86.065 467.237 87.2998L462.932 91.3261C462.664 91.5376 462.471 91.832 462.383 92.1635C462.295 92.4951 462.318 92.8454 462.447 93.1601C462.576 93.4749 462.805 93.7365 463.097 93.9046C463.39 94.0726 463.731 94.1377 464.066 94.0897C466.175 93.9726 468.287 93.8698 470.404 93.7811C472.384 93.6972 471.976 90.6149 470.019 90.6956C469.339 90.7225 468.659 90.7821 467.99 90.7959L470.606 88.3529C470.793 88.2046 470.945 88.0149 471.049 87.7985C471.153 87.5821 471.207 87.3449 471.206 87.1054C471.205 86.8659 471.149 86.6305 471.043 86.4176C470.937 86.2047 470.783 86.0201 470.594 85.878C469.38 85.0365 468.196 84.1556 467.033 83.2436C467.888 83.1121 468.746 82.9756 469.593 82.808C470.748 82.5916 472.401 82.5006 472.981 81.2649C473.611 79.9309 472.834 77.8321 472.797 76.4576C472.778 75.2479 472.851 74.0373 473.016 72.8368C474.216 74.1121 475.282 75.5108 476.196 77.0106C476.86 78.0875 478.379 77.5666 478.84 76.6145C479.964 74.2942 481.387 72.1321 483.071 70.1854C482.213 72.2973 481.58 74.4934 481.182 76.7361C481.152 76.9721 481.176 77.2113 481.252 77.4352C481.328 77.6592 481.453 77.8621 481.619 78.0283C481.785 78.1945 481.987 78.3196 482.209 78.394C482.431 78.4684 482.667 78.4901 482.9 78.4575C483.907 78.3442 484.904 78.2112 485.904 78.0684C485.073 78.6585 484.283 79.3073 483.541 80.0099C482.737 80.7795 482.714 82.249 483.901 82.6805C485.946 83.4187 488.029 84.0487 490.141 84.5678L485.168 87.532C484.293 88.0522 484.455 89.4859 485.179 90.0069C485.761 90.4292 486.366 90.8184 486.991 91.1725L481.81 94.8678C480.703 95.655 481.26 97.4976 482.548 97.634C485.504 97.9479 488.453 98.322 491.396 98.7562C493.357 99.0445 493.751 95.9553 491.79 95.6669C490.171 95.4234 488.542 95.2093 486.919 95.0084L490.962 92.1232C491.177 91.9535 491.344 91.7301 491.447 91.4755C491.549 91.2209 491.584 90.9441 491.548 90.6731C491.511 90.4021 491.405 90.1465 491.238 89.9322C491.072 89.7179 490.853 89.5525 490.602 89.4526C490.085 89.2495 489.579 89.0188 489.087 88.7615L495.207 85.1004C496.463 84.3528 495.619 82.5442 494.469 82.3341C492.139 81.9104 489.839 81.3439 487.58 80.6377C489.742 79.0616 492.143 77.7975 494.417 76.4627C494.489 76.4178 494.559 76.368 494.625 76.3138C496.381 75.7309 495.985 72.8176 494.104 73.2756C490.978 74.0409 487.816 74.6421 484.632 75.0767C485.534 71.5946 487.213 68.1793 488.506 64.8635C488.612 64.5518 488.618 64.2154 488.523 63.9024C488.429 63.5895 488.238 63.316 487.979 63.1212C487.72 62.9264 487.406 62.8203 487.082 62.818C486.757 62.8157 486.439 62.9173 486.173 63.1084Z" fill="#FBB03B"/>
<path d="M495.217 102.927L495.143 102.97L492.406 105.07C492.311 105.142 492.225 105.225 492.149 105.317C491.116 105.937 490.071 106.563 489.116 107.273C488.16 107.983 487.524 108.77 487.645 109.99C487.8 111.316 488.799 112.681 489.38 113.866L491.751 118.686C491.881 118.927 492.069 119.132 492.3 119.282C492.53 119.432 492.795 119.522 493.069 119.545C493.344 119.567 493.619 119.521 493.869 119.41C494.119 119.299 494.337 119.127 494.501 118.911C494.751 118.887 494.992 118.805 495.203 118.672C497.424 117.284 499.722 116.017 502.086 114.878C502.777 114.545 503.328 113.66 502.912 112.892L497.769 103.365C497.647 103.151 497.478 102.966 497.275 102.824C497.072 102.682 496.839 102.587 496.595 102.545C496.35 102.502 496.099 102.515 495.861 102.581C495.622 102.647 495.403 102.765 495.217 102.927ZM499.401 112.844C497.493 113.815 495.632 114.86 493.818 115.976C493.019 114.363 492.222 112.745 491.426 111.122C491.324 110.918 490.719 110.038 490.786 109.843C490.853 109.648 491.759 109.224 491.959 109.096L495.454 106.877C495.644 106.758 495.804 106.599 495.922 106.41L499.401 112.844Z" fill="#1E1E1E"/>
<path d="M488.822 63.3296C482.807 61.2046 475.824 64.4496 470.856 68.0068C465.804 71.6358 461.483 76.8575 460.041 83.0923C458.567 89.4503 460.525 96.5581 465.709 100.369C465.984 100.573 466.317 100.678 466.66 100.669C467.003 100.66 467.337 100.537 467.611 100.319L473.524 95.6392C473.791 95.4197 473.984 95.1191 474.074 94.782C474.165 94.445 474.147 94.0896 474.025 93.7687C472.479 90.2978 471.536 85.8054 473.69 82.272C475.357 79.5436 479.355 77.6529 482.051 79.7806C485.773 82.7201 483.924 88.1588 481.452 91.3495C480.377 92.7405 479.134 94.1522 479.181 96.0254C479.169 96.7616 479.372 97.4795 479.764 98.0862C480.156 98.6929 480.719 99.1605 481.381 99.4285C481.442 99.5635 481.52 99.6895 481.613 99.8032L484.286 103.005C484.447 104.733 486.313 105.608 487.862 105.047C488.879 104.674 489.611 103.858 490.434 103.168C491.628 102.176 492.924 101.323 494.296 100.623C494.514 100.522 494.707 100.373 494.863 100.186C495.019 99.9997 495.132 99.7805 495.196 99.5449C495.259 99.3093 495.27 99.0633 495.228 98.8253C495.186 98.5872 495.092 98.3632 494.954 98.1697L491.804 93.3444C493.861 91.4734 495.488 89.1562 496.562 86.568C497.636 83.9798 498.128 81.1885 498.002 78.4051C497.727 72.5783 494.505 65.3363 488.822 63.3296ZM494.026 74.1187C495.136 77.2496 495.205 80.6926 494.222 83.918C493.238 87.1435 491.258 89.9726 488.585 91.9703C487.483 92.7829 487.973 94.1655 488.904 94.6219C488.949 94.7271 489.003 94.8276 489.065 94.9221L491.478 98.6319C490.841 99.012 490.219 99.4136 489.62 99.8567C489.021 100.3 488.549 100.686 488.041 101.132C487.825 101.321 487.615 101.511 487.404 101.701L487.329 101.732L484.051 97.8278C483.956 97.7154 483.847 97.6164 483.727 97.5334C483.684 97.2885 483.571 97.0641 483.402 96.8884C483.233 96.7128 483.016 96.5938 482.778 96.5467C481.202 96.1164 483.443 93.7728 483.871 93.2158C484.604 92.2813 485.245 91.2755 485.784 90.2137C486.88 88.1272 487.362 85.77 487.17 83.4355C486.736 79.1719 483.521 75.557 479.185 75.6988C477.325 75.8031 475.517 76.4366 473.964 77.5283C472.411 78.6201 471.175 80.1271 470.393 81.8807C468.666 85.7546 469.184 90.1192 470.654 93.9096L466.69 97.0667C462.535 93.288 461.7 86.8137 463.739 81.4789C466.147 75.1767 471.844 70.2167 477.786 67.5713C480.836 66.2166 484.739 65.1525 487.927 66.4104C491.011 67.6271 492.985 71.0596 494.026 74.1187Z" fill="#1E1E1E"/>
<path d="M212.963 108.961L210.343 101.604C209.711 99.8298 206.834 100.735 207.472 102.526L208.726 106.055L206.067 104.54C206.019 104.516 205.969 104.495 205.918 104.477C205.675 104.293 205.374 104.204 205.062 104.224C204.333 104.262 203.472 105.019 203.561 105.813C203.719 107.457 203.96 109.086 204.283 110.693C204.672 112.571 207.542 111.642 207.154 109.771C207.075 109.383 207.01 108.991 206.945 108.599L210.76 110.773C211.78 111.341 213.404 110.196 212.963 108.961Z" fill="white"/>
<path d="M247.412 80.7307C243.779 78.5602 239.736 77.1614 235.535 76.622C236.533 74.8868 237.332 73.0451 237.917 71.1316C238.272 69.9905 237.095 69.2049 236.091 69.3812C234.338 69.6789 232.62 70.1565 230.965 70.8065C229.701 71.3066 228.484 72.1728 227.228 72.7311C225.812 71.1153 224.791 68.7433 223.825 66.9601C223.18 65.7632 221.504 66.2097 221.139 67.3494C220.528 69.2481 220 71.1635 219.556 73.0955L214.503 70.8121C214.221 70.6585 213.896 70.6016 213.579 70.6499C213.261 70.6982 212.968 70.8491 212.745 71.0794C212.522 71.3097 212.382 71.6066 212.344 71.9245C212.307 72.2424 212.376 72.5636 212.54 72.8387C213.42 74.648 214.285 76.4625 215.134 78.2824C215.927 79.9904 218.446 78.4906 217.659 76.7989C217.388 76.2169 217.104 75.6443 216.829 75.0664L219.896 76.4542C220.092 76.5623 220.311 76.6242 220.534 76.6351C220.758 76.646 220.981 76.6057 221.187 76.5173C221.393 76.4288 221.575 76.2945 221.721 76.1247C221.866 75.9549 221.97 75.7542 222.026 75.538C222.313 74.1575 222.642 72.7935 223.025 71.4541C223.45 72.1571 223.884 72.848 224.349 73.5188C224.956 74.432 225.642 75.8627 226.919 75.9173C228.306 75.9753 229.837 74.5157 231.016 73.9759C232.055 73.5098 233.13 73.1252 234.229 72.8257C233.562 74.3497 232.741 75.8024 231.78 77.1616C231.108 78.1538 232.109 79.2853 233.093 79.3302C235.511 79.4585 237.902 79.904 240.203 80.6551C238.063 80.6894 235.932 80.9485 233.846 81.428C233.63 81.4884 233.43 81.5975 233.263 81.7469C233.096 81.8962 232.966 82.0819 232.882 82.2894C232.798 82.497 232.764 82.7209 232.781 82.9439C232.798 83.167 232.866 83.3831 232.98 83.5758C233.447 84.4108 233.926 85.2401 234.417 86.0635C233.597 85.5528 232.742 85.1008 231.857 84.7111C230.896 84.2939 229.619 84.8142 229.677 86.0158C229.789 88.083 230.008 90.1431 230.333 92.1878L225.948 88.927C225.166 88.3421 224.001 89.0264 223.815 89.8406C223.664 90.5068 223.55 91.1807 223.472 91.8591L218.38 88.686C217.295 88.0089 215.905 89.1819 216.257 90.3582C217.067 93.0641 217.824 95.7887 218.527 98.5318C218.995 100.355 221.806 99.5631 221.344 97.7316C220.958 96.2217 220.55 94.7198 220.131 93.2164L224.106 95.6906C224.33 95.8154 224.584 95.8789 224.842 95.8748C225.099 95.8707 225.351 95.7991 225.572 95.6672C225.792 95.5354 225.974 95.3479 226.099 95.1237C226.224 94.8995 226.288 94.6464 226.283 94.39C226.27 93.861 226.285 93.3318 226.326 92.8043L231.735 96.8242C232.842 97.6512 234.098 96.2413 233.858 95.152C233.372 92.954 233.022 90.7284 232.81 88.4878C234.961 89.7933 236.919 91.4338 238.921 92.9504C238.984 93.0018 239.052 93.0474 239.123 93.0865C240.255 94.4347 242.646 92.9841 241.56 91.508C239.755 89.0512 238.078 86.5028 236.538 83.8731C239.881 83.3743 243.446 83.5758 246.766 83.4844C247.091 83.4773 247.405 83.3627 247.657 83.1587C247.91 82.9546 248.087 82.6726 248.161 82.3571C248.235 82.0417 248.202 81.7107 248.066 81.4162C247.93 81.1218 247.701 80.8806 247.412 80.7307Z" fill="white"/>
<path d="M216.449 103.821L216.381 103.775L213.49 102.162C213.389 102.106 213.284 102.06 213.174 102.023C212.232 101.355 211.285 100.678 210.305 100.093C209.325 99.5077 208.377 99.2294 207.339 99.8095C206.231 100.416 205.423 101.772 204.587 102.687C203.479 103.942 202.366 105.198 201.249 106.455C201.083 106.651 200.972 106.887 200.926 107.14C200.879 107.393 200.899 107.655 200.983 107.901C201.067 108.147 201.213 108.37 201.407 108.547C201.6 108.724 201.835 108.851 202.09 108.915C202.205 109.121 202.368 109.299 202.565 109.434C204.635 110.854 206.628 112.385 208.533 114.019C209.089 114.496 210.077 114.653 210.592 114.024L217.023 106.192C217.167 106.011 217.268 105.8 217.318 105.573C217.368 105.346 217.365 105.11 217.31 104.883C217.255 104.655 217.149 104.441 217 104.258C216.851 104.074 216.663 103.925 216.449 103.821ZM209.33 110.967C207.751 109.665 206.122 108.431 204.445 107.264L207.805 103.472C207.951 103.308 208.479 102.476 208.696 102.468C208.912 102.459 209.609 103.082 209.799 103.21L213.09 105.424C213.266 105.547 213.467 105.629 213.677 105.665L209.33 110.967Z" fill="#1E1E1E"/>
<path d="M248.728 82.9145C248.303 76.6972 242.809 71.5933 237.808 68.4087C232.726 65.1925 226.518 63.2309 220.504 64.2272C214.387 65.2565 208.929 69.6644 207.566 75.7649C207.491 76.0857 207.523 76.4237 207.657 76.7289C207.791 77.034 208.02 77.29 208.311 77.4588L214.651 81.0435C214.944 81.2032 215.28 81.266 215.608 81.2226C215.937 81.1791 216.24 81.0317 216.474 80.8022C218.91 78.1083 222.485 75.5965 226.389 76.2294C229.407 76.72 232.575 79.6271 231.742 82.8559C230.57 87.2883 225.135 87.6542 221.411 86.6113C219.789 86.1588 218.081 85.5644 216.476 86.2753C215.825 86.5389 215.273 86.992 214.892 87.5755C214.511 88.159 214.318 88.8457 214.34 89.546C214.244 89.6501 214.165 89.7674 214.103 89.8944C213.519 91.0927 212.926 92.2987 212.323 93.5124C210.882 94.2973 210.824 96.3108 211.903 97.5018C212.599 98.2748 213.579 98.6297 214.517 99.1288C215.836 99.8393 217.074 100.692 218.207 101.671C218.378 101.83 218.582 101.95 218.804 102.021C219.026 102.093 219.261 102.114 219.491 102.084C219.721 102.053 219.94 101.972 220.132 101.845C220.324 101.719 220.484 101.551 220.601 101.354L223.622 96.7147C226.037 97.88 228.679 98.4895 231.347 98.4966C234.016 98.5038 236.64 97.9085 239.02 96.756C244.048 94.3975 249.147 88.7993 248.728 82.9145ZM241.284 91.6315C238.973 93.7929 235.995 95.1321 232.808 95.4435C229.621 95.7549 226.4 95.0214 223.64 93.3554C222.511 92.6618 221.491 93.617 221.446 94.6304C221.375 94.7117 221.314 94.8011 221.265 94.8968L218.945 98.4559C218.368 98.0199 217.778 97.6114 217.151 97.2491C216.524 96.8869 216.02 96.5954 215.439 96.3001L214.7 95.9403L214.633 95.8952C215.355 94.4239 216.081 92.9554 216.804 91.484C216.865 91.3569 216.909 91.2221 216.935 91.0831C217.133 90.9531 217.286 90.7671 217.376 90.5487C217.465 90.3304 217.486 90.0896 217.436 89.8569C217.217 88.2713 220.114 89.4264 220.759 89.6095C221.856 89.9233 222.981 90.1281 224.116 90.2209C226.347 90.4294 228.579 89.9897 230.538 88.9559C234.1 86.9778 236.03 82.7328 234.283 78.8722C232.768 75.5323 229.171 73.3392 225.543 73.2262C221.52 73.1033 217.886 75.206 215.131 77.9297L210.868 75.5214C212.587 70.3642 217.924 67.2059 223.365 67.0649C229.781 66.8995 236.281 70.2037 240.847 74.5878C243.191 76.8387 245.603 79.9708 245.716 83.3167C245.82 86.4956 243.567 89.5507 241.295 91.633L241.284 91.6315Z" fill="#1E1E1E"/>
<path d="M563.26 87.8029L560.63 80.4177C559.995 78.6366 557.107 79.5454 557.748 81.3431L559.007 84.8858L556.338 83.3646C556.289 83.3408 556.239 83.3198 556.188 83.3015C555.945 83.1174 555.642 83.028 555.329 83.0478C554.597 83.0863 553.733 83.8464 553.823 84.643C553.981 86.2933 554.223 87.9285 554.547 89.5422C554.937 91.4268 557.818 90.4943 557.429 88.6167C557.35 88.2264 557.284 87.8329 557.219 87.4394L561.048 89.6223C562.072 90.1925 563.702 89.0425 563.26 87.8029Z" fill="white"/>
<path d="M597.84 59.465C594.193 57.2864 590.134 55.8823 585.917 55.3408C586.919 53.599 587.721 51.7504 588.308 49.8298C588.664 48.6843 587.483 47.8957 586.476 48.0728C584.716 48.3716 582.991 48.851 581.33 49.5034C580.062 50.0054 578.84 50.8749 577.578 51.4352C576.157 49.8134 575.132 47.4325 574.163 45.6425C573.515 44.4411 571.834 44.8893 571.467 46.0333C570.854 47.9391 570.324 49.8617 569.877 51.801L564.805 49.509C564.522 49.3549 564.197 49.2977 563.878 49.3462C563.559 49.3947 563.265 49.5461 563.041 49.7773C562.818 50.0085 562.676 50.3066 562.639 50.6257C562.602 50.9447 562.671 51.2671 562.835 51.5433C563.719 53.3594 564.586 55.1808 565.439 57.0075C566.235 58.7219 568.764 57.2165 567.974 55.5184C567.701 54.9342 567.416 54.3595 567.141 53.7794L570.219 55.1724C570.416 55.2809 570.635 55.343 570.86 55.354C571.084 55.365 571.309 55.3245 571.515 55.2357C571.721 55.1469 571.905 55.0121 572.051 54.8417C572.197 54.6712 572.301 54.4698 572.357 54.2527C572.645 52.8671 572.975 51.4979 573.36 50.1535C573.787 50.8591 574.222 51.5526 574.688 52.2259C575.298 53.1426 575.987 54.5786 577.269 54.6335C578.661 54.6917 580.198 53.2266 581.381 52.6848C582.424 52.2169 583.503 51.8308 584.606 51.5303C583.937 53.0599 583.113 54.5181 582.149 55.8825C581.474 56.8784 582.479 58.0142 583.466 58.0592C585.893 58.188 588.293 58.6352 590.603 59.3891C588.455 59.4235 586.316 59.6836 584.222 60.1649C584.005 60.2255 583.805 60.3351 583.637 60.485C583.469 60.6349 583.338 60.8212 583.254 61.0296C583.17 61.2379 583.135 61.4627 583.152 61.6866C583.17 61.9104 583.238 62.1274 583.352 62.3208C583.822 63.159 584.303 63.9913 584.796 64.8179C583.972 64.3052 583.113 63.8516 582.225 63.4604C581.261 63.0416 579.978 63.5638 580.037 64.77C580.149 66.845 580.369 68.9128 580.695 70.9653L576.294 67.6922C575.509 67.1051 574.339 67.792 574.152 68.6092C574.002 69.2779 573.887 69.9543 573.809 70.6353L568.697 67.4503C567.608 66.7706 566.213 67.948 566.566 69.1287C567.38 71.8449 568.139 74.5797 568.845 77.3331C569.314 79.1635 572.136 78.3683 571.672 76.5299C571.286 75.0143 570.876 73.5068 570.455 71.9978L574.445 74.4813C574.67 74.6065 574.925 74.6702 575.184 74.6661C575.442 74.662 575.695 74.5901 575.916 74.4578C576.138 74.3254 576.32 74.1373 576.446 73.9122C576.571 73.6871 576.635 73.4331 576.631 73.1757C576.617 72.6448 576.632 72.1135 576.674 71.5841L582.103 75.6191C583.214 76.4492 584.475 75.034 584.234 73.9406C583.746 71.7344 583.395 69.5004 583.182 67.2513C585.341 68.5617 587.307 70.2084 589.316 71.7307C589.379 71.7823 589.447 71.828 589.519 71.8674C590.655 73.2206 593.055 71.7646 591.965 70.2829C590.153 67.8168 588.47 65.2589 586.924 62.6193C590.28 62.1185 593.858 62.3208 597.191 62.2291C597.517 62.222 597.832 62.107 598.086 61.9021C598.339 61.6973 598.517 61.4142 598.591 61.0976C598.665 60.7809 598.632 60.4487 598.496 60.1531C598.36 59.8576 598.129 59.6155 597.84 59.465Z" fill="white"/>
<path d="M566.76 82.6427L566.691 82.5965L563.789 80.9768C563.688 80.9207 563.582 80.8742 563.472 80.8377C562.527 80.1674 561.576 79.4877 560.592 78.9002C559.608 78.3128 558.656 78.0334 557.615 78.6156C556.503 79.2245 555.692 80.5861 554.852 81.5043C553.74 82.7642 552.623 84.0248 551.502 85.2862C551.336 85.4832 551.224 85.7198 551.177 85.9738C551.13 86.2278 551.15 86.4907 551.235 86.7378C551.319 86.9849 551.465 87.2079 551.66 87.386C551.854 87.564 552.09 87.6911 552.346 87.7553C552.462 87.9626 552.625 88.141 552.822 88.2761C554.901 89.702 556.901 91.2385 558.813 92.8787C559.371 93.3571 560.364 93.5152 560.88 92.8833L567.335 85.0225C567.48 84.8409 567.582 84.6285 567.632 84.401C567.682 84.1734 567.679 83.9366 567.624 83.708C567.569 83.4795 567.462 83.265 567.313 83.0806C567.163 82.8962 566.974 82.7465 566.76 82.6427ZM559.613 89.8148C558.028 88.5083 556.394 87.2694 554.709 86.0983L558.082 82.2915C558.229 82.1269 558.759 81.2924 558.977 81.284C559.194 81.2756 559.894 81.9008 560.084 82.0286L563.388 84.2514C563.564 84.3745 563.766 84.4571 563.977 84.493L559.613 89.8148Z" fill="#1E1E1E"/>
<path d="M599.16 61.6573C598.733 55.4164 593.219 50.2932 588.199 47.0965C583.097 43.8682 576.866 41.8991 570.829 42.8991C564.69 43.9324 559.211 48.357 557.843 54.4805C557.767 54.8026 557.799 55.1419 557.934 55.4482C558.068 55.7545 558.298 56.0114 558.59 56.1809L564.954 59.7791C565.248 59.9395 565.585 60.0025 565.915 59.9589C566.245 59.9152 566.55 59.7672 566.784 59.5369C569.229 56.8329 572.818 54.3115 576.736 54.9469C579.766 55.4392 582.946 58.3573 582.11 61.5983C580.933 66.0476 575.478 66.4149 571.74 65.368C570.112 64.9138 568.397 64.3172 566.786 65.0307C566.133 65.2953 565.579 65.7502 565.196 66.3358C564.813 66.9215 564.62 67.6108 564.642 68.3138C564.546 68.4184 564.466 68.5361 564.405 68.6635C563.818 69.8664 563.223 71.0769 562.618 72.2952C561.171 73.0831 561.113 75.1042 562.195 76.2997C562.895 77.0756 563.879 77.4319 564.819 77.9329C566.144 78.6461 567.386 79.502 568.524 80.4847C568.695 80.6445 568.9 80.7647 569.123 80.8364C569.346 80.9081 569.582 80.9295 569.813 80.8989C570.043 80.8683 570.263 80.7865 570.456 80.6597C570.649 80.5328 570.81 80.3641 570.926 80.1661L573.959 75.5096C576.383 76.6794 579.035 77.2911 581.714 77.2983C584.392 77.3055 587.026 76.7079 589.416 75.5511C594.462 73.1837 599.581 67.5643 599.16 61.6573ZM591.688 70.4072C589.368 72.5768 586.379 73.921 583.18 74.2336C579.981 74.5462 576.748 73.8099 573.977 72.1377C572.844 71.4414 571.821 72.4002 571.775 73.4174C571.704 73.4991 571.643 73.5888 571.593 73.6849L569.265 77.2575C568.685 76.8198 568.093 76.4097 567.464 76.0461C566.834 75.6825 566.328 75.3899 565.745 75.0934L565.003 74.7323L564.936 74.6871C565.661 73.2102 566.39 71.7361 567.115 70.2592C567.177 70.1316 567.221 69.9963 567.247 69.8567C567.446 69.7262 567.6 69.5395 567.689 69.3204C567.779 69.1012 567.8 68.8594 567.75 68.6259C567.53 67.0343 570.438 68.1938 571.085 68.3776C572.187 68.6926 573.316 68.8982 574.455 68.9912C576.694 69.2005 578.935 68.7592 580.902 67.7215C584.477 65.7359 586.414 61.4748 584.66 57.5996C583.14 54.2471 579.529 52.0457 575.888 51.9322C571.849 51.8089 568.201 53.9195 565.436 56.6535L561.157 54.2361C562.882 49.0594 568.24 45.8891 573.701 45.7477C580.142 45.5816 586.666 48.8983 591.249 53.299C593.602 55.5584 596.023 58.7024 596.137 62.061C596.241 65.2518 593.979 68.3186 591.7 70.4087L591.688 70.4072Z" fill="#1E1E1E"/>
<path d="M311.906 100.76C312.273 100.672 312.611 100.496 312.888 100.248C312.907 100.23 312.925 100.211 312.941 100.191C313.408 100.066 313.861 99.8944 314.291 99.6794C317.754 98.0055 320.486 99.3108 320.529 102.674C320.529 104.798 321.063 106.769 321.372 108.848C321.799 111.853 320.609 113.178 317.391 113.086C316.348 113.085 315.307 112.996 314.28 112.82C312.792 112.513 312.221 113.276 311.874 114.438C311.632 113.475 311.463 112.496 311.367 111.51C311.271 107.977 311.191 104.44 311.095 100.908C311.372 100.908 311.648 100.858 311.906 100.76Z" fill="#FBB03B"/>
<path d="M324.779 101.683C325.632 100.494 326.897 100.294 328.172 100.243C329.069 100.208 329.765 101.342 329.693 102.25C329.661 102.696 329.474 103.11 329.173 103.404C329.244 103.753 329.244 104.117 329.173 104.467C329.149 104.933 329.205 105.399 329.339 105.841C329.446 106.463 329.558 107.085 329.68 107.702C329.878 108.782 330.128 109.848 330.429 110.897C330.784 112.101 331.448 113.225 331.726 114.449C331.822 114.826 331.843 115.223 331.786 115.611C331.729 115.998 331.597 116.367 331.398 116.691C330.95 117.358 330.277 117.599 329.603 117.809C328.473 118.171 327.261 118.702 326.188 117.855C325.116 117.007 325.179 115.241 324.995 113.982C324.534 111.332 324.225 108.651 324.07 105.957C324.021 104.607 323.971 102.812 324.779 101.683Z" fill="#FBB03B"/>
<path d="M313.216 117.534C313.216 117.461 313.153 117.399 313.148 117.326C313.023 116.274 313.588 115.02 314.599 114.89C315.851 114.727 317.118 114.485 318.38 114.44C318.774 114.422 319.167 114.508 319.529 114.691C319.89 114.874 320.212 115.15 320.469 115.498C320.844 116.068 321.037 116.772 321.016 117.489C321.016 117.675 321.016 117.86 321.016 118.051C321.063 118.401 321.129 118.747 321.214 119.086C321.362 119.652 321.444 120.239 321.456 120.83C321.445 121.549 321.262 122.25 320.927 122.854C320.592 123.459 320.119 123.942 319.56 124.25C318.546 124.762 317.421 124.893 316.34 124.627C315.369 124.512 314.446 124.081 313.676 123.384C313.207 122.937 312.847 122.355 312.631 121.696C312.416 121.049 312.343 120.349 312.418 119.66C312.523 118.883 312.797 118.151 313.216 117.534Z" fill="#FBB03B"/>
<path d="M323.593 127.583C323.949 127.116 324.686 126.673 324.89 126.151C324.89 126.126 324.89 126.151 324.89 126.151C324.888 126.14 324.888 126.128 324.89 126.116C324.92 125.917 324.717 125.659 324.666 125.445C324.592 125.184 324.561 124.914 324.574 124.644C324.651 123.5 325.439 122.844 326.4 122.337C328.033 121.476 329.681 120.631 331.319 119.78C331.776 119.569 332.3 119.542 332.777 119.707C333.253 119.872 333.644 120.215 333.862 120.661C333.971 120.88 334.033 121.12 334.042 121.364C334.052 121.607 334.01 121.851 333.918 122.078C334.229 122.245 334.483 122.497 334.65 122.802C334.817 123.107 334.89 123.454 334.859 123.799C334.778 125.027 335.368 126.181 335.877 127.28C336.53 128.611 336.91 130.054 336.996 131.527C337.015 132.264 336.88 132.996 336.601 133.68C336.321 134.364 335.901 134.985 335.368 135.506C334.315 136.5 332.855 136.824 331.472 137.102C329.976 137.406 328.165 137.883 326.65 137.555C324.991 137.197 324.401 135.565 323.837 134.183C323.272 132.8 322.606 131.199 322.779 129.637C322.859 128.894 323.14 128.186 323.593 127.583Z" fill="#FBB03B"/>
<path d="M315.082 128.861C315.274 128.373 315.617 127.97 316.053 127.721C316.629 127.401 317.283 127.279 317.925 127.372C318.568 127.465 319.169 127.767 319.646 128.238C320.166 128.749 320.515 129.428 320.642 130.172C320.713 130.642 320.742 131.118 320.73 131.593C320.795 132.574 320.967 133.542 321.243 134.48L321.289 134.618C321.456 135.034 321.499 135.496 321.412 135.94C321.333 136.373 321.115 136.763 320.796 137.041C320.339 137.406 319.794 137.622 319.225 137.664C318.647 137.682 318.076 137.513 317.588 137.179C317.18 136.871 316.9 136.405 316.807 135.879C316.722 135.337 316.836 134.78 317.126 134.326C317.162 134.276 317.213 134.249 317.249 134.199C317.208 134.006 317.156 133.813 317.126 133.62C317.028 132.948 316.972 132.269 316.956 131.588C316.71 131.596 316.465 131.557 316.232 131.472C315.768 131.281 315.39 130.906 315.175 130.425C314.953 129.937 314.92 129.375 315.082 128.861Z" fill="#FBB03B"/>
<path d="M318.514 143.697C318.967 146.761 319.785 149.757 320.951 152.621C321.204 153.301 321.652 153.888 322.238 154.308C322.326 154.358 322.418 154.402 322.511 154.441H328.053C328.404 154.402 328.75 154.387 329.101 154.348C330.622 154.16 332.289 153.854 332.913 152.222C333.445 150.796 332.791 149.306 332.367 147.95C331.943 146.593 331.529 145.222 331.1 143.86C330.671 142.499 330.003 141.157 328.546 140.688C327.775 140.499 326.984 140.408 326.191 140.417C325.457 140.374 324.716 140.34 323.968 140.313C322.486 140.261 321.005 140.239 319.523 140.249C319.048 140.221 318.582 140.379 318.219 140.689C317.856 140.999 317.625 141.439 317.573 141.917C317.557 142.272 317.636 142.625 317.801 142.938C317.967 143.252 318.213 143.514 318.514 143.697Z" fill="#FBB03B"/>
<path d="M337.368 140.764C338.205 140.353 339.136 140.181 340.062 140.268C340.485 140.309 340.881 140.503 341.177 140.813C341.473 141.124 341.651 141.531 341.679 141.963C341.74 142.033 341.795 142.108 341.845 142.186C341.845 142.221 341.845 142.221 341.845 142.235L341.972 142.349L342.127 142.414C341.874 142.364 341.894 142.369 342.191 142.414L342.503 142.488C342.729 142.546 342.944 142.645 343.136 142.78C343.502 143.018 343.801 143.35 344.003 143.742C344.237 144.28 344.415 144.841 344.534 145.417C344.542 145.444 344.552 145.47 344.563 145.496C344.597 145.6 344.636 145.704 344.675 145.813C344.768 146.071 344.87 146.309 344.977 146.586C345.172 147.052 345.391 147.503 345.625 147.944C345.742 148.167 345.869 148.385 345.995 148.598C345.995 148.633 346.088 148.752 346.107 148.792C346.127 148.831 346.19 148.916 346.234 148.98C346.822 149.857 347.491 150.675 348.231 151.423C348.487 151.736 348.635 152.126 348.652 152.532C348.669 152.939 348.553 153.34 348.324 153.673C348.088 153.998 347.755 154.237 347.376 154.357C346.997 154.476 346.59 154.469 346.215 154.337C344.549 153.668 342.979 152.775 341.548 151.681C340.159 150.681 338.864 149.553 337.68 148.311C337.054 147.686 336.557 146.94 336.217 146.117C335.878 145.295 335.703 144.411 335.702 143.519C335.728 142.954 335.894 142.404 336.185 141.922C336.477 141.44 336.884 141.042 337.368 140.764Z" fill="#FBB03B"/>
<path d="M343.473 154.441C342.588 153.98 341.623 153.62 340.608 153.375C338.059 152.809 335.417 153.375 333.112 154.441H343.473Z" fill="#FBB03B"/>
<path d="M307.045 108.27C307.74 114.748 309.054 121.146 310.968 127.379C311.143 127.833 311.136 128.336 310.949 128.786C310.762 129.235 310.409 129.597 309.961 129.798C309.095 130.147 307.81 129.754 307.513 128.803C305.485 122.256 304.087 115.535 303.337 108.728C303.07 106.344 306.788 105.886 307.045 108.27Z" fill="#1E1E1E"/>
<path d="M319.015 92.3945L319.46 89.8339C319.621 88.8679 319.786 87.9018 319.946 86.9357C320.084 86.0995 320.178 85.2321 320.392 84.4115C320.516 83.7991 320.807 83.2502 321.222 82.8474C321.636 82.4446 322.152 82.2097 322.691 82.1781C323.484 82.166 324.277 82.2007 325.066 82.282C325.504 82.29 325.921 82.4964 326.23 82.8571C326.538 83.2179 326.714 83.7047 326.72 84.2141C326.711 84.2827 326.697 84.3504 326.68 84.4167C326.977 84.7708 327.196 85.204 327.317 85.6788C327.49 86.521 327.609 87.3768 327.674 88.2394C327.763 89.0445 327.83 89.8495 327.87 90.6597C327.91 91.47 327.923 92.2802 327.914 93.0905C327.963 94.0541 327.906 95.0211 327.745 95.9679C327.197 98.1753 324.79 97.6715 323.288 97.4534C321.724 97.2197 319.456 97.0535 318.966 94.898C318.817 94.0702 318.834 93.2136 319.015 92.3945Z" fill="#FBB03B"/>
<path d="M320.327 56.4892C320.458 56.0779 320.627 55.6791 320.831 55.2976C321.098 54.8173 321.491 54.4162 321.969 54.1359C322.636 53.7804 323.417 53.6915 324.15 53.8877C324.625 54.0258 325.073 54.2424 325.474 54.5281C325.785 54.7143 326.047 54.9693 326.24 55.2728C326.416 55.5855 326.517 55.9335 326.537 56.2906C326.542 56.6181 326.466 56.9419 326.315 57.2339C326.301 57.2796 326.29 57.326 326.28 57.3729C326.275 57.4506 326.275 57.5285 326.28 57.6062C326.346 57.9041 326.416 58.202 326.502 58.4998C326.565 58.743 326.594 58.9936 326.587 59.2445C326.814 60.2921 326.255 61.5283 324.855 61.5283C324.577 61.5318 324.302 61.4759 324.049 61.3645H323.994C323.642 61.37 323.292 61.3197 322.956 61.2155C322.229 60.9908 321.622 60.4908 321.269 59.8254C321.269 59.7807 321.269 59.741 321.223 59.7013C321.178 59.6616 321.183 59.7013 321.168 59.6666C320.751 59.307 320.443 58.8416 320.276 58.3211C320.276 58.2566 320.246 58.192 320.231 58.1225C320.185 57.9037 320.161 57.6808 320.161 57.4573C320.176 57.1291 320.232 56.804 320.327 56.4892Z" fill="#FBB03B"/>
<path d="M296.06 64.5236C296.253 64.8279 296.538 65.0718 296.879 65.2245C297.22 65.3772 297.602 65.4317 297.976 65.3813C298.419 65.3254 298.825 65.1225 299.121 64.8095C299.53 64.8001 299.937 64.7465 300.333 64.6496C300.971 64.4867 301.549 64.1612 302.001 63.7095C302.188 63.5019 302.344 63.2722 302.467 63.0262C302.88 63.0798 303.3 63.0156 303.674 62.8421C304.11 62.5969 304.427 62.2014 304.556 61.7403C304.685 61.2792 304.615 60.7893 304.362 60.3755C303.839 59.5378 303.089 58.8441 302.187 58.3645C301.348 57.9165 300.403 57.6732 299.437 57.657C298.818 57.6497 298.208 57.7905 297.664 58.0662C297.12 58.3419 296.661 58.7432 296.329 59.2319C295.891 59.9984 295.646 60.8489 295.615 61.7178C295.454 62.6737 295.61 63.6526 296.06 64.5236Z" fill="#FBB03B"/>
<path d="M308.857 75.4538C308.738 75.9385 308.803 76.4526 309.039 76.8878C309.275 77.323 309.663 77.6453 310.121 77.7866C311.492 78.2553 312.869 78.6933 314.264 79.0855C314.985 79.3476 315.732 79.5186 316.492 79.5949C317.019 79.5879 317.53 79.3937 317.938 79.044C318.347 78.6943 318.631 78.2098 318.743 77.6695C318.854 76.9662 318.89 76.252 318.85 75.5404C318.85 74.705 318.957 73.7882 318.563 73.0242C318.342 72.6367 318.007 72.3352 317.607 72.1652C317.208 71.9952 316.767 71.9659 316.351 72.0819C316.268 72.0819 315.864 72.3518 315.83 72.3111C315.796 72.2703 316.195 72.1939 315.991 72.2347L315.801 72.2805H315.748L315.597 72.3162L315.675 72.2907H315.495C315.334 72.2907 315.179 72.2907 315.008 72.2907C314.717 72.2907 314.43 72.2449 314.138 72.2143L310.316 71.8577C309.304 71.7661 308.545 72.8001 308.507 73.7526C308.496 73.9991 308.538 74.2451 308.629 74.4725C308.721 74.6999 308.86 74.9029 309.037 75.0667C308.965 75.1893 308.904 75.3189 308.857 75.4538Z" fill="#FBB03B"/>
<path d="M307.3 43.305C307.608 40.9671 308.816 37.8826 311.49 37.3164C313.804 36.8284 316.675 36.7112 318.378 38.5903C319.161 39.4542 319.576 40.5425 320.177 41.4894C320.778 42.4362 321.45 43.3196 322.047 44.2616C322.688 45.2186 323.167 46.268 323.467 47.3706C323.599 47.8701 323.617 48.3916 323.517 48.8982C323.685 49.0576 323.818 49.2476 323.909 49.457C323.999 49.6665 324.046 49.8913 324.046 50.1184C324.046 50.3455 323.999 50.5703 323.909 50.7797C323.818 50.9892 323.685 51.1792 323.517 51.3386C323.013 51.8032 322.4 52.1434 321.731 52.3303C321.061 52.5173 320.355 52.5454 319.672 52.4123C318.459 52.222 317.413 51.607 316.265 51.2653C315.213 50.9658 314.123 50.8098 313.026 50.8017C311.606 50.7334 310.256 50.4893 309.145 49.5718C307.335 48.1027 307.017 45.4574 307.3 43.305Z" fill="#FBB03B"/>
<path d="M311.052 93.7903C310.729 93.655 310.384 93.5777 310.033 93.5619H309.901C309.435 89.3803 308.97 85.1969 308.505 81.0119C311.052 80.5602 313.258 81.3671 315.311 82.7729C315.942 83.2093 316.452 83.8944 316.218 84.5998C315.199 87.7868 315.525 91.7046 311.561 93.4148C311.367 93.5023 311.193 93.6304 311.052 93.7903Z" fill="#FBB03B"/>
<path d="M324.338 64.1094C321.436 64.7817 321.575 64.804 321.459 70.2217C321.392 73.4113 322.608 74.3615 324.797 74.4337L325.198 73.2835C325.309 70.3718 325.541 67.4545 324.984 64.5706L324.338 64.1094Z" fill="#FBB03B"/>
<path d="M311.095 67.1473C311.095 67.9167 311.274 69.3316 312.979 69.2696C314.403 69.2232 316.387 66.1248 316.27 63.801C316.178 61.9265 314.959 61.5392 313.689 61.5289C311.947 61.5134 311.086 63.1401 311.095 67.1473Z" fill="#FBB03B"/>
<path d="M335.735 122.338C334.688 118.888 333.872 115.373 333.292 111.817C333.292 111.742 333.292 111.673 333.257 111.598C330.813 97.1136 328.671 82.5395 327.577 67.8859C327.399 65.5016 327.267 63.1139 327.18 60.723C327.06 57.37 327.286 53.9178 326.744 50.5996C326.125 47.2164 324.484 44.0987 322.037 41.6584C323.235 40.3083 324.198 38.7707 324.887 37.1084C325.616 35.3445 326.015 33.4647 326.066 31.5599C326.097 30.5664 326.142 29.2501 325.59 28.3758C324.832 27.1837 323.302 27.0496 322.037 27.3426C319.97 27.8394 318.46 29.5431 317.196 31.1178C316.774 31.6443 316.398 32.1957 316.011 32.7371C315.981 32.5086 315.961 32.3199 315.941 32.1262C315.901 31.7685 315.871 31.4108 315.846 31.0532C315.791 30.3329 315.766 29.6177 315.755 28.8974C315.769 28.647 315.73 28.3966 315.642 28.1614C315.555 27.9262 315.419 27.7111 315.245 27.5293C315.071 27.3475 314.861 27.2027 314.628 27.1038C314.395 27.0048 314.145 26.9538 313.891 26.9538C313.638 26.9538 313.388 27.0048 313.155 27.1038C312.922 27.2027 312.712 27.3475 312.538 27.5293C312.364 27.7111 312.228 27.9262 312.141 28.1614C312.053 28.3966 312.014 28.647 312.028 28.8974C312.054 31.1544 312.291 33.4042 312.735 35.6182H312.288L311.129 35.5834C311.18 33.2653 311.226 30.9472 311.27 28.6291C311.283 28.3788 311.244 28.1283 311.157 27.8931C311.069 27.658 310.934 27.4429 310.759 27.2611C310.585 27.0792 310.375 26.9344 310.142 26.8355C309.91 26.7366 309.659 26.6855 309.406 26.6855C309.153 26.6855 308.902 26.7366 308.669 26.8355C308.437 26.9344 308.227 27.0792 308.052 27.2611C307.878 27.4429 307.743 27.658 307.655 27.8931C307.567 28.1283 307.529 28.3788 307.542 28.6291L307.472 31.9771C307.075 31.4108 306.684 30.8346 306.267 30.2783C305.662 29.3559 304.829 28.6006 303.849 28.0828C302.815 27.6271 301.703 27.3692 300.573 27.3227C299.934 27.2778 299.299 27.4503 298.774 27.8117C298.248 28.1732 297.863 28.7017 297.682 29.3097C297.478 30.1994 297.551 31.1297 297.893 31.9771C299.09 35.3075 300.73 38.4648 302.77 41.3654C299.949 43.2706 297.416 45.5618 295.244 48.1706C292.979 50.914 291.014 53.8878 289.383 57.0422C288.541 58.6665 287.572 60.4001 287.823 62.2877C287.965 63.1299 288.313 63.9248 288.838 64.6022C289.363 65.2796 290.048 65.8187 290.834 66.1721C294.14 67.7468 298.581 66.4801 301.872 65.3823C303.718 64.7653 305.506 63.9891 307.216 63.0626C307.677 62.8142 307.717 62.7049 307.988 63.1917C308.161 63.5261 308.288 63.882 308.365 64.2498C308.529 64.9444 308.576 65.661 308.505 66.3708C307.091 80.6978 307.561 95.146 309.905 109.353C312.359 123.858 315.043 138.283 318.309 152.633C318.426 153.236 318.611 153.825 318.861 154.387H322.374C322.65 152.961 321.601 150.333 321.34 149.067C320.196 143.603 319.012 138.139 317.888 132.63C314.983 118.418 312.559 104.078 311.807 89.5781C311.417 82.5458 311.519 75.4953 312.113 68.477C312.188 67.6375 312.329 66.7732 312.339 65.9238C312.339 65.6555 312.288 63.8772 312.053 63.8027L312.69 64.0014C313.167 64.1272 313.675 64.0603 314.102 63.8153C314.529 63.5703 314.841 63.1673 314.968 62.695C315.095 62.2227 315.027 61.7198 314.78 61.2969C314.532 60.8739 314.125 60.5657 313.648 60.4399C312.494 60.0077 311.295 59.6997 310.136 59.3371C308.977 58.9745 307.853 58.6317 306.649 59.1781C304.772 60.0226 303.056 61.0806 301.089 61.7512C299.644 62.2479 290.849 64.9849 291.591 61.2545C291.852 60.3796 292.231 59.544 292.72 58.7708C293.185 57.8833 293.677 57.0058 294.195 56.1382C295.199 54.4345 296.321 52.8014 297.552 51.2503C299.923 48.2306 302.81 45.6451 306.082 43.6106C306.355 43.4561 306.58 43.2293 306.731 42.9556C306.881 42.6819 306.952 42.372 306.935 42.0608C307.019 41.8288 307.046 41.5801 307.014 41.3356C306.982 41.0912 306.891 40.8578 306.749 40.655C305.482 38.9781 304.354 37.2023 303.377 35.345C302.956 34.5452 302.469 33.5319 302.178 32.8613C301.957 32.3397 301.707 31.7933 301.511 31.237H301.601C301.939 31.3118 302.256 31.4568 302.533 31.6624C302.81 31.8679 303.04 32.1292 303.207 32.4292C304.556 34.3118 305.851 36.2391 307.171 38.1416C307.472 38.5791 307.932 38.8851 308.455 38.9959C308.693 39.1062 308.95 39.1703 309.213 39.1847C309.301 39.1753 309.388 39.1587 309.474 39.135C309.845 39.2337 310.228 39.2887 310.613 39.299L311.892 39.3337L314.501 39.3983C314.551 39.3983 314.596 39.3983 314.647 39.3685C314.952 39.4521 315.274 39.464 315.585 39.4033C315.902 39.3235 316.187 39.1503 316.403 38.9065C316.614 38.769 316.786 38.5811 316.905 38.3601C317.865 36.489 319.033 34.7296 320.387 33.1147C320.917 32.4356 321.536 31.8292 322.228 31.3115L322.323 31.2618C322.328 32.8265 322.025 34.3771 321.43 35.8268L321.37 35.9758L321.235 36.2739C321.124 36.5024 321.004 36.7358 320.883 36.9593C320.668 37.3567 320.432 37.7442 320.181 38.1167C319.689 38.8433 319.114 39.5101 318.465 40.1037C318.276 40.292 318.132 40.5205 318.045 40.7717C317.959 41.023 317.93 41.2905 317.963 41.5541C317.833 41.8641 317.807 42.2069 317.887 42.5329C317.967 42.8589 318.15 43.1511 318.41 43.3672C321.024 45.7614 322.885 48.7319 323.232 52.3083C323.432 54.3499 323.357 56.4014 323.382 58.448C323.437 62.397 323.658 66.3361 323.999 70.2652C325.249 84.8045 326.563 99.3091 329.704 113.595C332.263 125.229 336.894 136.445 342.419 146.876C343.673 149.246 344.832 151.709 346.202 154.019C346.277 154.148 346.347 154.302 346.423 154.441H351.244C344.528 144.542 339.304 133.727 335.735 122.338Z" fill="#1E1E1E"/>
<path d="M334.347 63.4144C334.154 70.1841 334.591 76.9572 335.651 83.6435C335.765 84.1364 335.688 84.6548 335.437 85.092C335.186 85.5292 334.779 85.8519 334.301 85.9936C333.384 86.2368 332.156 85.6519 331.987 84.6167C330.853 77.5936 330.376 70.4772 330.561 63.3627C330.627 60.8884 334.413 60.9298 334.347 63.4144Z" fill="#1E1E1E"/>
<path d="M361.325 154.441C361.775 153.941 362.147 153.379 362.43 152.775C363.159 151.527 363.697 150.183 364.03 148.785C364.186 148.04 364.232 147.278 364.166 146.52C364.145 146.019 363.996 145.53 363.732 145.099C363.526 144.795 363.245 144.546 362.914 144.375C362.584 144.204 362.215 144.116 361.84 144.119C359.928 144.119 358.919 146.246 358.414 147.741C358.213 148.359 358.044 148.988 357.91 149.623C357.829 149.966 357.748 150.304 357.647 150.643C357.647 150.716 357.602 150.785 357.582 150.858C357.561 150.932 357.481 150.966 357.582 150.912V150.961L357.551 151.03C357.521 151.098 357.491 151.167 357.456 151.236C357.354 151.456 357.29 151.691 357.269 151.932C356.87 152.185 356.584 152.576 356.467 153.025C356.412 153.265 356.41 153.514 356.461 153.756C356.511 153.997 356.613 154.225 356.759 154.426L361.325 154.441Z" fill="#FBB03B"/>
<path d="M298.5 125L314 154H302L289 126L290.5 122H294.5L298.5 125Z" fill="white"/>
<path d="M358.996 154.421L362.722 141.339L363.408 141.818L364.335 142.469L364.735 142.749L364.791 142.79C365.277 143.139 365.74 143.52 366.178 143.93C366.288 144.042 366.398 144.149 366.503 144.266L366.578 144.353C366.76 144.598 366.928 144.855 367.079 145.121C367.129 145.223 367.22 145.274 367.285 145.356C366.669 148.41 365.867 151.418 365.176 154.421H369.268C370.655 148.053 372.048 141.543 371.962 135.216C371.922 132.538 371.346 128.884 368.101 128.644C366.363 128.517 364.695 129.489 363.538 130.803C361.405 133.226 360.003 136.87 359.101 139.965C358.846 140.825 358.64 141.818 358.435 142.841L355.129 154.441L358.996 154.421ZM364.505 136.183C364.988 135.162 365.636 134.231 366.423 133.429C367.615 132.35 367.806 132.269 368.021 133.938C368.281 136.15 368.281 138.385 368.021 140.596C367.78 140.398 367.52 140.204 367.295 140.026C366.153 139.196 364.991 138.397 363.839 137.588C364.054 137.099 364.27 136.636 364.51 136.183H364.505Z" fill="#1E1E1E"/>
<path d="M293.026 135.826C293.379 134.494 295.062 133.781 296.518 133.795C297.159 133.797 297.791 133.926 298.367 134.172C298.944 134.417 299.45 134.773 299.849 135.212C300.792 136.285 300.854 137.576 300.616 138.848C300.521 139.349 300.389 139.844 300.222 140.329C300.1 140.696 299.944 141.053 299.756 141.397C299.563 141.733 299.324 142.047 299.046 142.334C298.685 142.65 298.195 142.828 297.684 142.828C297.173 142.828 296.683 142.65 296.321 142.334C296.131 142.147 295.982 141.931 295.881 141.697C295.649 141.592 295.445 141.447 295.279 141.27C295.113 141.094 294.99 140.89 294.917 140.67C294.762 140.216 294.57 139.761 294.363 139.307C294.156 138.853 293.964 138.53 293.731 138.157C293.265 137.435 292.788 136.712 293.026 135.826Z" fill="#FBB03B"/>
<path d="M309.832 144.912C309.951 145.046 310.065 145.189 310.184 145.328C310.436 145.632 310.592 145.995 310.634 146.376C310.954 146.723 311.118 147.171 311.092 147.626C311.066 148.082 310.852 148.511 310.495 148.825C310.125 149.127 309.646 149.289 309.153 149.28C308.661 149.27 308.19 149.089 307.835 148.773C307.835 148.773 307.659 148.667 307.576 148.619L307.338 148.548H307.022C306.805 148.548 306.592 148.581 306.375 148.548C304.776 148.447 303.948 147.223 303.27 146.041C303.014 145.588 302.782 145.123 302.576 144.649C302.333 144.146 302.159 143.617 302.059 143.075C301.954 142.327 302.126 141.568 302.545 140.922C302.649 140.759 302.773 140.606 302.892 140.443C303.011 140.281 303.016 140.285 303.068 140.204C303.12 140.123 303.285 139.778 303.068 140.204C303.163 139.946 303.319 139.711 303.525 139.517C303.731 139.322 303.981 139.173 304.258 139.08C304.529 138.978 304.823 138.938 305.115 138.965C305.406 138.991 305.686 139.083 305.93 139.233C307.047 140.076 307.914 141.168 308.45 142.405C308.699 142.917 308.937 143.429 309.222 143.917C309.382 144.185 309.548 144.448 309.739 144.701C309.755 144.802 309.796 144.854 309.832 144.912Z" fill="#FBB03B"/>
<path d="M292.378 136.87C295.008 142.669 297.686 148.451 300.41 154.217L300.496 154.342C300.514 154.372 300.526 154.406 300.531 154.441H304.593L297.694 139.432L294.381 132.222L295.847 131.658C296.336 131.486 296.84 131.359 297.353 131.278C297.615 131.267 297.877 131.28 298.136 131.318C298.509 131.385 298.894 131.34 299.241 131.188L302.032 136.117L309.854 149.948C310.386 151.206 310.943 152.444 311.566 153.677C311.702 153.932 311.847 154.177 311.983 154.441H316.275C316.275 154.441 316.275 154.441 316.24 154.401L316.195 154.342C316.014 154.062 315.853 153.767 315.693 153.478C315.341 152.849 315 152.209 314.689 151.565C314.377 150.921 314.031 150.227 313.725 149.543C313.594 149.254 313.464 148.959 313.338 148.664L313.228 148.395C313.157 148.22 313.082 148.04 313.012 147.86C312.91 147.602 312.762 147.363 312.575 147.156V147.106L308.478 139.846C305.844 135.186 303.21 130.513 300.576 125.826C299.602 124.093 298.568 122.33 297.062 121.042C292.925 117.617 287.272 120.708 287.819 125.965C288.161 129.88 290.776 133.375 292.378 136.87ZM291.59 123.813C292.247 122.6 293.899 123.314 294.672 123.958C295.802 124.907 296.479 126.305 297.182 127.573C296.547 127.608 295.918 127.727 295.315 127.928C294.441 128.207 293.578 128.542 292.724 128.881C291.871 127.229 290.902 125.092 291.59 123.828V123.813Z" fill="#1E1E1E"/>
<path d="M305.854 48.408C305.862 48.3713 305.871 48.3351 305.882 48.2994C305.933 48.1624 305.989 48.0196 306.051 47.8882C306.067 47.854 306.086 47.8215 306.108 47.7911C306.157 47.7132 306.212 47.6387 306.271 47.5683C306.326 47.4883 306.386 47.412 306.451 47.3398L306.535 47.2656C306.649 47.1697 306.767 47.0801 306.89 46.9971C307.054 46.8945 307.23 46.8121 307.413 46.7515C307.475 46.7265 307.539 46.7074 307.605 46.6944C307.79 46.6508 307.978 46.6259 308.168 46.6201H308.28C308.437 46.6317 308.594 46.6547 308.748 46.6887L308.849 46.7172C308.998 46.7698 309.145 46.8308 309.288 46.9C309.619 47.0813 309.893 47.3547 310.076 47.6883C310.165 47.8466 310.23 48.0182 310.267 48.1966C310.295 48.3515 310.314 48.5079 310.324 48.665C310.316 48.8205 310.297 48.9751 310.267 49.1277C310.189 49.493 310.009 49.828 309.749 50.093C309.716 50.1273 309.671 50.1558 309.631 50.1901L309.429 50.4529C309.413 50.4782 309.394 50.5012 309.372 50.5214C309.244 50.6477 309.103 50.7589 308.95 50.8527C308.63 51.037 308.271 51.139 307.903 51.1497C307.541 51.1559 307.183 51.0632 306.868 50.8813C306.551 50.7003 306.287 50.4383 306.102 50.1216C305.909 49.7962 305.798 49.4272 305.781 49.0477C305.775 48.9869 305.775 48.9257 305.781 48.8649C305.798 48.7114 305.822 48.5589 305.854 48.408Z" fill="#1E1E1E"/>
<path d="M313.1 48.8248C313.1 48.8248 313.1 48.8248 313.1 48.8615C313.095 49.0811 313.124 49.3001 313.186 49.5107C313.239 49.6768 313.305 49.8386 313.383 49.9945C313.399 50.0365 313.422 50.0758 313.45 50.1109C313.63 50.4018 313.874 50.6487 314.162 50.8335C314.325 50.9445 314.506 51.0273 314.696 51.0785C314.895 51.1373 315.103 51.1602 315.31 51.1459C315.504 51.1396 315.696 51.1066 315.881 51.0479C316.041 50.9916 316.197 50.924 316.347 50.8457C316.482 50.7548 316.611 50.6566 316.734 50.5518C316.873 50.4227 316.994 50.2767 317.096 50.117C317.207 49.9457 317.293 49.7603 317.354 49.5658C317.354 49.5658 317.354 49.5168 317.354 49.4923C317.354 49.4678 317.495 49.3025 317.52 49.1923C317.624 48.8176 317.624 48.4217 317.52 48.0471C317.476 47.8652 317.399 47.6928 317.293 47.5387C317.127 47.2693 316.9 47.0427 316.63 46.8773C316.39 46.7369 316.116 46.6629 315.838 46.663L315.427 46.7181C315.304 46.7181 315.2 46.6262 315.077 46.6201H314.972C314.805 46.6321 314.639 46.6567 314.475 46.6936C314.289 46.7411 314.11 46.8176 313.947 46.9202C313.671 47.085 313.442 47.3194 313.285 47.6C313.14 47.8613 313.06 48.1531 313.051 48.4512C313.053 48.5773 313.069 48.7026 313.1 48.8248Z" fill="#1E1E1E"/>
<path d="M447.336 40.712L448.369 44.002C448.736 45.1667 449.102 46.3562 449.443 47.5259C449.758 48.5512 449.913 50.3929 451.509 50.2336C452.258 50.1739 452.651 49.6612 453.136 49.2083C453.477 48.8748 453.844 48.5363 454.17 48.1779C454.965 47.3915 455.76 46.5852 456.499 45.7639C457.973 44.1679 459.243 42.4065 460.28 40.5178C460.34 40.3737 460.369 40.2193 460.366 40.064C460.363 39.9086 460.327 39.7555 460.261 39.6137C460.195 39.472 460.1 39.3445 459.982 39.239C459.863 39.1335 459.724 39.0522 459.572 38.9998C459.509 38.9883 459.444 38.9883 459.381 38.9998C459.206 38.877 459.005 38.7921 458.792 38.7509C455.301 38.059 451.799 37.3473 448.281 36.6604C448.002 36.629 447.721 36.6846 447.477 36.8189C447.233 36.9533 447.041 37.1594 446.928 37.407C446.412 38.4871 447.011 39.6418 447.336 40.712ZM457.176 40.8215C456.428 41.995 455.582 43.1071 454.645 44.1463C454.02 44.8581 453.364 45.525 452.703 46.192C452.455 46.4409 452.186 46.6897 451.959 46.9685C451.85 46.625 451.747 46.2816 451.639 45.9381L450.797 43.2006C450.523 42.3097 450.28 41.4387 449.991 40.5477C449.872 40.1346 449.733 39.7264 449.614 39.3133C452.134 39.8111 454.65 40.3038 457.176 40.8215Z" fill="white" fill-opacity="0.4"/>
<path d="M71.774 30.7456L72.807 34.0357C73.1737 35.2004 73.5405 36.3899 73.8814 37.5596C74.1964 38.5849 74.3514 40.4265 75.9474 40.2673C76.6963 40.2075 77.089 39.6949 77.5745 39.2419C77.9154 38.9085 78.2821 38.57 78.6075 38.2116C79.4029 37.4252 80.1982 36.6189 80.9368 35.7976C82.4112 34.2016 83.6807 32.4402 84.7177 30.5515C84.7779 30.4074 84.8073 30.253 84.8041 30.0976C84.8009 29.9423 84.7652 29.7891 84.6992 29.6474C84.6331 29.5057 84.538 29.3782 84.4196 29.2727C84.3012 29.1672 84.162 29.0859 84.0102 29.0335C83.947 29.022 83.8821 29.022 83.819 29.0335C83.6436 28.9107 83.4428 28.8258 83.2302 28.7846C79.7386 28.0927 76.2367 27.381 72.7192 26.6941C72.4405 26.6627 72.1585 26.7183 71.915 26.8526C71.6714 26.987 71.4791 27.1931 71.366 27.4407C70.8495 28.5208 71.4486 29.6755 71.774 30.7456ZM81.6135 30.8551C80.8663 32.0287 80.0199 33.1408 79.0826 34.18C78.4577 34.8918 77.8017 35.5587 77.1406 36.2257C76.8926 36.4746 76.6241 36.7234 76.3968 37.0021C76.2884 36.6587 76.185 36.3153 76.0765 35.9718L75.2347 33.2343C74.9609 32.3434 74.7182 31.4723 74.4289 30.5814C74.3101 30.1683 74.1707 29.7601 74.0519 29.347C76.5724 29.8448 79.0878 30.3375 81.6135 30.8551Z" fill="white" fill-opacity="0.4"/>
<path d="M534.099 131.462L537.543 131.781C538.763 131.892 540.006 132.014 541.221 132.151C542.292 132.256 544.057 132.824 544.525 131.295C544.758 130.583 544.434 130.025 544.202 129.404C544.025 128.962 543.853 128.494 543.646 128.057C543.224 127.022 542.784 125.98 542.308 124.985C541.399 123.014 540.257 121.168 538.907 119.487C538.797 119.376 538.665 119.289 538.52 119.232C538.375 119.175 538.219 119.149 538.063 119.155C537.906 119.161 537.751 119.2 537.608 119.268C537.465 119.336 537.336 119.433 537.229 119.552C537.194 119.606 537.169 119.665 537.155 119.728C536.974 119.842 536.818 119.994 536.698 120.173C534.711 123.117 532.702 126.063 530.711 129.032C530.574 129.276 530.517 129.557 530.548 129.832C530.578 130.108 530.695 130.364 530.881 130.564C531.682 131.455 532.982 131.349 534.099 131.462ZM537.992 122.458C538.791 123.597 539.495 124.804 540.096 126.066C540.514 126.915 540.879 127.775 541.242 128.64C541.377 128.964 541.504 129.307 541.674 129.623C541.314 129.591 540.956 129.553 540.596 129.521L537.737 129.24C536.806 129.148 535.906 129.036 534.97 128.958C534.541 128.908 534.11 128.879 533.681 128.829C535.114 126.703 536.539 124.581 537.992 122.458Z" fill="white" fill-opacity="0.4"/>
<path d="M139.723 138.994L143.168 139.312C144.388 139.423 145.631 139.545 146.845 139.682C147.916 139.787 149.681 140.355 150.149 138.826C150.382 138.114 150.059 137.556 149.827 136.935C149.649 136.493 149.477 136.025 149.271 135.588C148.849 134.554 148.409 133.512 147.933 132.516C147.023 130.546 145.881 128.7 144.532 127.018C144.421 126.908 144.29 126.821 144.145 126.764C144 126.707 143.844 126.681 143.687 126.687C143.531 126.693 143.376 126.732 143.233 126.8C143.089 126.868 142.96 126.965 142.853 127.084C142.818 127.138 142.793 127.197 142.779 127.26C142.598 127.374 142.442 127.526 142.322 127.705C140.336 130.649 138.327 133.594 136.335 136.563C136.199 136.807 136.142 137.088 136.172 137.364C136.203 137.639 136.319 137.896 136.505 138.095C137.306 138.986 138.607 138.88 139.723 138.994ZM143.617 129.989C144.415 131.129 145.119 132.335 145.72 133.598C146.138 134.447 146.503 135.307 146.866 136.171C147.001 136.495 147.128 136.838 147.299 137.155C146.939 137.122 146.581 137.085 146.221 137.052L143.361 136.771C142.431 136.679 141.531 136.567 140.594 136.489C140.166 136.439 139.734 136.41 139.306 136.36C140.738 134.235 142.164 132.112 143.617 129.989Z" fill="white" fill-opacity="0.4"/>
<path d="M595.438 36.6744L598.44 38.3889C599.503 38.9952 600.583 39.6197 601.631 40.2471C602.561 40.7861 603.931 42.0324 604.993 40.8349C605.502 40.284 605.441 39.642 605.488 38.981C605.511 38.5055 605.549 38.0089 605.543 37.5256C605.591 36.4101 605.624 35.28 605.606 34.1774C605.6 32.0081 605.33 29.8563 604.803 27.7684C604.749 27.6219 604.665 27.4887 604.557 27.3769C604.448 27.2651 604.318 27.1768 604.173 27.1176C604.027 27.0583 603.871 27.0292 603.712 27.032C603.553 27.0347 603.396 27.0693 603.248 27.1336C603.194 27.168 603.147 27.2119 603.108 27.263C602.896 27.2917 602.691 27.3654 602.506 27.4791C599.473 29.3354 596.418 31.1842 593.369 33.0617C593.143 33.2274 592.974 33.4591 592.887 33.7226C592.8 33.9861 592.799 34.2675 592.885 34.5257C593.243 35.6679 594.47 36.1095 595.438 36.6744ZM602.732 30.0929C602.984 31.4598 603.122 32.8488 603.143 34.2459C603.169 35.1912 603.143 36.1247 603.113 37.0617C603.101 37.4122 603.073 37.7766 603.097 38.135C602.783 37.9564 602.473 37.7744 602.159 37.5959L599.674 36.1573C598.866 35.6889 598.094 35.2142 597.274 34.7564C596.905 34.5337 596.525 34.3286 596.156 34.106C598.345 32.7646 600.526 31.4231 602.732 30.0929Z" fill="white" fill-opacity="0.4"/>
<path d="M57.1026 122.75L60.1041 124.465C61.1673 125.071 62.2476 125.696 63.2954 126.323C64.2257 126.862 65.5952 128.108 66.6576 126.911C67.1664 126.36 67.1048 125.718 67.1522 125.057C67.1749 124.581 67.2132 124.085 67.2075 123.602C67.2549 122.486 67.2885 121.356 67.2704 120.254C67.2638 118.084 66.9941 115.933 66.4671 113.845C66.4129 113.698 66.3292 113.565 66.2209 113.453C66.1126 113.342 65.9821 113.253 65.8369 113.194C65.6918 113.135 65.5351 113.106 65.3763 113.108C65.2175 113.111 65.0598 113.146 64.9127 113.21C64.8586 113.244 64.811 113.288 64.7725 113.34C64.56 113.368 64.3548 113.442 64.1708 113.556C61.1372 115.412 58.0825 117.261 55.0333 119.138C54.8074 119.304 54.6384 119.535 54.5514 119.799C54.4643 120.062 54.4637 120.344 54.5496 120.602C54.9072 121.744 56.1341 122.186 57.1026 122.75ZM64.3965 116.169C64.6486 117.536 64.7859 118.925 64.8069 120.322C64.8337 121.267 64.8073 122.201 64.777 123.138C64.7648 123.488 64.7375 123.853 64.7608 124.211C64.447 124.032 64.137 123.85 63.8232 123.672L61.3388 122.233C60.5304 121.765 59.7583 121.29 58.9385 120.833C58.5697 120.61 58.189 120.405 57.8202 120.182C60.0089 118.841 62.1904 117.499 64.3965 116.169Z" fill="white" fill-opacity="0.4"/>
<path d="M386.287 135.436L389.289 137.15C390.352 137.756 391.432 138.381 392.48 139.008C393.411 139.547 394.78 140.794 395.842 139.596C396.351 139.045 396.29 138.403 396.337 137.742C396.36 137.267 396.398 136.77 396.392 136.287C396.44 135.171 396.473 134.041 396.455 132.939C396.449 130.769 396.179 128.618 395.652 126.53C395.598 126.383 395.514 126.25 395.406 126.138C395.297 126.026 395.167 125.938 395.022 125.879C394.877 125.82 394.72 125.79 394.561 125.793C394.402 125.796 394.245 125.831 394.098 125.895C394.043 125.929 393.996 125.973 393.957 126.024C393.745 126.053 393.54 126.127 393.356 126.24C390.322 128.097 387.267 129.945 384.218 131.823C383.992 131.989 383.823 132.22 383.736 132.484C383.649 132.747 383.649 133.029 383.734 133.287C384.092 134.429 385.319 134.871 386.287 135.436ZM393.581 128.854C393.833 130.221 393.971 131.61 393.992 133.007C394.019 133.952 393.992 134.886 393.962 135.823C393.95 136.173 393.922 136.538 393.946 136.896C393.632 136.718 393.322 136.536 393.008 136.357L390.524 134.919C389.715 134.45 388.943 133.975 388.123 133.518C387.754 133.295 387.374 133.09 387.005 132.867C389.194 131.526 391.375 130.184 393.581 128.854Z" fill="white" fill-opacity="0.4"/>
<path d="M514.506 25.8014L517.508 27.5159C518.571 28.1221 519.651 28.7466 520.699 29.374C521.629 29.913 522.999 31.1593 524.061 29.9619C524.57 29.411 524.508 28.769 524.556 28.108C524.578 27.6325 524.617 27.1358 524.611 26.6526C524.658 25.537 524.692 24.407 524.674 23.3043C524.667 21.1351 524.398 18.9832 523.871 16.8953C523.816 16.7488 523.733 16.6157 523.625 16.5038C523.516 16.392 523.386 16.3038 523.241 16.2445C523.095 16.1853 522.939 16.1562 522.78 16.1589C522.621 16.1617 522.463 16.1962 522.316 16.2606C522.262 16.2949 522.215 16.3388 522.176 16.39C521.964 16.4187 521.758 16.4923 521.574 16.606C518.541 18.4624 515.486 20.3112 512.437 22.1887C512.211 22.3544 512.042 22.586 511.955 22.8496C511.868 23.1131 511.867 23.3945 511.953 23.6527C512.311 24.7948 513.538 25.2365 514.506 25.8014ZM521.8 19.2198C522.052 20.5868 522.19 21.9758 522.211 23.3728C522.237 24.3182 522.211 25.2517 522.181 26.1887C522.168 26.5391 522.141 26.9035 522.164 27.2619C521.851 27.0834 521.541 26.9014 521.227 26.7228L518.742 25.2842C517.934 24.8159 517.162 24.3412 516.342 23.8833C515.973 23.6606 515.593 23.4556 515.224 23.2329C517.412 21.8916 519.594 20.5501 521.8 19.2198Z" fill="white" fill-opacity="0.4"/>
<path d="M244.429 132.718L247.43 134.433C248.494 135.039 249.574 135.664 250.622 136.291C251.552 136.83 252.922 138.076 253.984 136.879C254.493 136.328 254.431 135.686 254.479 135.025C254.501 134.549 254.54 134.053 254.534 133.57C254.581 132.454 254.615 131.324 254.597 130.221C254.59 128.052 254.321 125.9 253.793 123.812C253.739 123.666 253.656 123.533 253.547 123.421C253.439 123.309 253.308 123.221 253.163 123.162C253.018 123.102 252.862 123.073 252.703 123.076C252.544 123.079 252.386 123.113 252.239 123.178C252.185 123.212 252.137 123.256 252.099 123.307C251.886 123.336 251.681 123.409 251.497 123.523C248.464 125.379 245.409 127.228 242.36 129.106C242.134 129.271 241.965 129.503 241.878 129.767C241.791 130.03 241.79 130.311 241.876 130.57C242.234 131.712 243.461 132.153 244.429 132.718ZM251.723 126.137C251.975 127.504 252.112 128.893 252.133 130.29C252.16 131.235 252.134 132.169 252.103 133.106C252.091 133.456 252.064 133.821 252.087 134.179C251.773 134 251.463 133.818 251.15 133.64L248.665 132.201C247.857 131.733 247.085 131.258 246.265 130.8C245.896 130.578 245.515 130.373 245.147 130.15C247.335 128.809 249.517 127.467 251.723 126.137Z" fill="white" fill-opacity="0.4"/>
<path d="M342.639 29.4254L345.64 31.1399C346.704 31.7462 347.784 32.3706 348.832 32.998C349.762 33.537 351.132 34.7833 352.194 33.5859C352.703 33.035 352.641 32.393 352.689 31.732C352.711 31.2565 352.75 30.7599 352.744 30.2766C352.791 29.1611 352.825 28.031 352.807 26.9284C352.8 24.7591 352.531 22.6073 352.003 20.5194C351.949 20.3729 351.866 20.2397 351.757 20.1279C351.649 20.016 351.518 19.9278 351.373 19.8686C351.228 19.8093 351.072 19.7802 350.913 19.7829C350.754 19.7857 350.596 19.8203 350.449 19.8846C350.395 19.9189 350.347 19.9629 350.309 20.014C350.096 20.0427 349.891 20.1164 349.707 20.23C346.674 22.0864 343.619 23.9352 340.57 25.8127C340.344 25.9784 340.175 26.2101 340.088 26.4736C340.001 26.7371 340 27.0185 340.086 27.2767C340.444 28.4189 341.671 28.8605 342.639 29.4254ZM349.933 22.8439C350.185 24.2108 350.322 25.5998 350.343 26.9969C350.37 27.9422 350.344 28.8757 350.313 29.8127C350.301 30.1631 350.274 30.5276 350.297 30.8859C349.983 30.7074 349.673 30.5254 349.36 30.3468L346.875 28.9083C346.067 28.4399 345.295 27.9652 344.475 27.5073C344.106 27.2847 343.725 27.0796 343.357 26.8569C345.545 25.5156 347.727 24.1741 349.933 22.8439Z" fill="white" fill-opacity="0.4"/>
<path d="M181.683 48.4522L184.685 50.1667C185.748 50.773 186.828 51.3975 187.876 52.0249C188.807 52.5639 190.176 53.8102 191.238 52.6127C191.747 52.0618 191.686 51.4199 191.733 50.7588C191.756 50.2833 191.794 49.7867 191.788 49.3035C191.836 48.1879 191.869 47.0579 191.851 45.9552C191.845 43.786 191.575 41.6341 191.048 39.5462C190.994 39.3997 190.91 39.2665 190.802 39.1547C190.693 39.0429 190.563 38.9547 190.418 38.8954C190.273 38.8361 190.116 38.807 189.957 38.8098C189.798 38.8125 189.641 38.8471 189.494 38.9114C189.439 38.9458 189.392 38.9897 189.353 39.0409C189.141 39.0696 188.936 39.1432 188.752 39.2569C185.718 41.1133 182.663 42.9621 179.614 44.8396C179.388 45.0053 179.219 45.2369 179.132 45.5004C179.045 45.7639 179.045 46.0454 179.13 46.3035C179.488 47.4457 180.715 47.8874 181.683 48.4522ZM188.977 41.8707C189.229 43.2376 189.367 44.6267 189.388 46.0237C189.415 46.9691 189.388 47.9026 189.358 48.8395C189.346 49.19 189.318 49.5544 189.342 49.9128C189.028 49.7343 188.718 49.5522 188.404 49.3737L185.92 47.9351C185.111 47.4668 184.339 46.9921 183.519 46.5342C183.15 46.3115 182.77 46.1065 182.401 45.8838C184.59 44.5424 186.771 43.201 188.977 41.8707Z" fill="white" fill-opacity="0.4"/>
<path d="M183.997 95.2724C183.753 95.5112 183.432 95.6549 183.091 95.6777C182.948 95.6967 182.804 95.6974 182.661 95.6798C181.283 95.3635 180.045 94.6098 179.134 93.5322C178.128 92.2616 177.551 90.7064 177.487 89.0891L177.454 88.6344C177.443 88.2564 177.584 87.8896 177.844 87.6148C178.105 87.3399 178.464 87.1795 178.844 87.1688C179.223 87.1581 179.591 87.2981 179.867 87.5579C180.142 87.8176 180.303 88.176 180.314 88.554L180.339 88.895C180.374 89.9032 180.721 90.876 181.332 91.6805C181.851 92.2816 182.551 92.6992 183.328 92.871C183.661 92.9504 183.954 93.1457 184.154 93.4219C184.354 93.698 184.448 94.0366 184.42 94.3761C184.391 94.7156 184.241 95.0336 183.997 95.2724Z" fill="#1E1E1E"/>
<path d="M190.452 93.1387C190.28 93.2246 190.094 93.275 189.902 93.287L189.884 93.2978C189.603 93.3203 189.323 93.2592 189.077 93.1222C188.831 92.9852 188.632 92.7785 188.505 92.5284C188.377 92.2784 188.327 91.9962 188.361 91.7177C188.394 91.4392 188.51 91.1769 188.694 90.9643C189.747 89.6474 190.435 88.0782 190.688 86.4135C190.783 85.8777 190.84 85.336 190.858 84.7923C190.865 84.6042 190.91 84.4193 190.988 84.2483C191.067 84.0773 191.179 83.9235 191.318 83.7956C191.456 83.6676 191.619 83.5682 191.796 83.5028C191.973 83.4375 192.161 83.4075 192.35 83.4147C192.538 83.4218 192.724 83.4659 192.895 83.5445C193.067 83.623 193.221 83.7345 193.35 83.8726C193.478 84.0106 193.578 84.1726 193.644 84.349C193.709 84.5255 193.739 84.7131 193.732 84.9012C193.708 85.5666 193.641 86.2298 193.531 86.8866C193.191 89.0506 192.283 91.0865 190.898 92.7875C190.775 92.9334 190.623 93.0529 190.452 93.1387Z" fill="#1E1E1E"/>
<path d="M181.652 82.556C181.454 82.6781 181.229 82.7495 180.996 82.7638L180.995 82.7448C180.709 82.7726 180.422 82.7134 180.171 82.5752C179.845 82.3812 179.61 82.0672 179.516 81.7013C179.422 81.3354 179.476 80.9473 179.667 80.6212C181.087 78.2647 182.997 76.2387 185.268 74.6797C185.45 74.5528 185.66 74.4707 185.881 74.4401C186.101 74.4095 186.325 74.4312 186.536 74.5035C185.979 73.9777 185.389 73.4887 184.768 73.0396C184.616 72.9291 184.488 72.79 184.39 72.6301C184.293 72.4702 184.228 72.2928 184.199 72.1079C184.17 71.9229 184.178 71.7342 184.222 71.5523C184.267 71.3705 184.347 71.1991 184.458 71.048C184.568 70.8969 184.708 70.7691 184.868 70.6718C185.029 70.5745 185.207 70.5096 185.392 70.4809C185.578 70.4521 185.767 70.4602 185.95 70.5044C186.132 70.5486 186.304 70.6283 186.456 70.7387C188.62 72.268 190.425 74.2476 191.745 76.5404L191.911 76.8428C192.088 77.1774 192.125 77.5685 192.013 77.9301C191.901 78.2916 191.649 78.5939 191.314 78.7707C190.978 78.9474 190.585 78.9841 190.223 78.8725C189.86 78.7609 189.557 78.5102 189.379 78.1756L189.247 77.9281C188.74 77.0361 188.139 76.2012 187.453 75.4378C187.539 75.7275 187.532 76.0369 187.433 76.3224C187.334 76.608 187.147 76.8552 186.899 77.0293C184.963 78.3441 183.336 80.0618 182.131 82.0639C182.014 82.2648 181.85 82.4339 181.652 82.556Z" fill="#1E1E1E"/>
<path d="M201.746 73.4159C201.477 73.6833 201.112 73.8332 200.732 73.8326L200.523 73.8475C198.126 73.6529 195.714 73.8059 193.361 74.3018C192.987 74.3841 192.596 74.3148 192.273 74.1093C191.95 73.9038 191.722 73.5789 191.639 73.206C191.557 72.8331 191.626 72.4428 191.832 72.1209C192.039 71.7991 192.365 71.5721 192.739 71.4898C195.366 70.9361 198.06 70.7629 200.736 70.9758C201.116 70.9764 201.481 71.1275 201.749 71.3958C202.017 71.6642 202.168 72.0278 202.167 72.4066C202.167 72.7854 202.015 73.1485 201.746 73.4159Z" fill="#1E1E1E"/>
<path d="M179.843 69.4192C179.605 69.64 179.299 69.7733 178.975 69.7971L178.973 69.7781C178.778 69.7958 178.582 69.7742 178.395 69.7146L177.415 69.3657C175.329 68.6578 173.217 68.1135 171.222 67.6084C171.04 67.5627 170.869 67.4816 170.718 67.3699C170.567 67.2582 170.44 67.1179 170.344 66.9573C170.248 66.7966 170.184 66.6187 170.157 66.4335C170.13 66.2484 170.139 66.0596 170.185 65.8781C170.231 65.6967 170.312 65.526 170.425 65.3759C170.537 65.2258 170.677 65.0991 170.839 65.0031C171 64.9072 171.178 64.8439 171.364 64.8167C171.55 64.7895 171.739 64.7991 171.921 64.8449C173.965 65.3655 176.155 65.9327 178.339 66.6718L179.379 67.0451C179.682 67.1605 179.938 67.3757 180.102 67.6552C180.267 67.9347 180.331 68.2618 180.284 68.5825C180.237 68.9032 180.082 69.1984 179.843 69.4192Z" fill="#1E1E1E"/>
<path d="M165.228 65.2713C164.989 65.4994 164.677 65.6375 164.347 65.6619L164.307 65.6457C164.148 65.656 163.989 65.6383 163.836 65.5936C163.239 65.4077 162.651 65.2022 162.063 64.9871C160.151 64.305 158.312 63.4348 156.574 62.3893C156.404 62.2966 156.256 62.1707 156.136 62.0191C156.017 61.8675 155.93 61.6933 155.88 61.5072C155.831 61.3212 155.819 61.1271 155.847 60.9365C155.875 60.7459 155.941 60.5629 156.042 60.3985C156.142 60.2342 156.275 60.0919 156.433 59.9802C156.59 59.8685 156.769 59.7898 156.957 59.7488C157.146 59.7078 157.341 59.7053 157.531 59.7416C157.721 59.7779 157.901 59.8521 158.061 59.9598C159.632 60.8999 161.288 61.6902 163.008 62.3202L164.682 62.8863C164.997 62.9882 165.267 63.1959 165.445 63.4742C165.624 63.7524 165.7 64.0838 165.66 64.4116C165.62 64.7394 165.468 65.0433 165.228 65.2713Z" fill="#1E1E1E"/>
<path d="M525.211 128.827C525.465 129.045 525.788 129.165 526.123 129.165C526.264 129.175 526.405 129.166 526.543 129.14C527.869 128.743 529.03 127.927 529.851 126.816C530.753 125.51 531.216 123.953 531.175 122.369L531.178 121.922C531.164 121.552 531.003 121.203 530.731 120.951C530.458 120.699 530.097 120.565 529.725 120.579C529.354 120.593 529.003 120.753 528.751 121.025C528.498 121.296 528.364 121.657 528.378 122.027L528.376 122.361C528.406 123.349 528.129 124.322 527.584 125.147C527.116 125.767 526.458 126.22 525.71 126.438C525.391 126.537 525.117 126.746 524.939 127.029C524.761 127.311 524.691 127.648 524.741 127.978C524.791 128.308 524.958 128.609 525.211 128.827Z" fill="#1E1E1E"/>
<path d="M518.767 127.155C518.94 127.228 519.125 127.265 519.313 127.265L519.332 127.274C519.607 127.278 519.878 127.2 520.109 127.051C520.34 126.901 520.522 126.686 520.63 126.434C520.739 126.181 520.769 125.902 520.719 125.632C520.668 125.363 520.537 125.114 520.344 124.918C519.231 123.698 518.458 122.209 518.103 120.598C517.976 120.081 517.885 119.555 517.832 119.025C517.813 118.842 517.758 118.664 517.67 118.502C517.582 118.34 517.463 118.196 517.319 118.08C517.175 117.964 517.01 117.877 516.833 117.825C516.656 117.772 516.47 117.755 516.286 117.774C516.102 117.793 515.924 117.848 515.761 117.936C515.598 118.024 515.455 118.142 515.338 118.286C515.222 118.429 515.134 118.593 515.082 118.77C515.029 118.947 515.012 119.132 515.031 119.315C515.097 119.964 515.206 120.608 515.355 121.242C515.827 123.335 516.845 125.266 518.308 126.84C518.438 126.975 518.594 127.082 518.767 127.155Z" fill="#1E1E1E"/>
<path d="M526.684 116.251C526.886 116.358 527.11 116.413 527.338 116.412L527.338 116.394C527.619 116.403 527.896 116.326 528.133 116.175C528.438 115.965 528.648 115.643 528.716 115.279C528.785 114.916 528.707 114.54 528.499 114.234C526.96 112.022 524.963 110.164 522.643 108.786C522.457 108.674 522.247 108.607 522.029 108.591C521.812 108.575 521.594 108.611 521.393 108.695C521.903 108.145 522.449 107.63 523.026 107.151C523.167 107.034 523.284 106.89 523.369 106.727C523.454 106.565 523.506 106.387 523.523 106.205C523.539 106.022 523.519 105.838 523.464 105.663C523.409 105.488 523.32 105.326 523.202 105.185C523.084 105.045 522.939 104.929 522.776 104.844C522.613 104.759 522.435 104.707 522.251 104.691C522.068 104.675 521.884 104.695 521.708 104.75C521.533 104.805 521.37 104.893 521.229 105.011C519.213 106.644 517.577 108.693 516.434 111.018L516.292 111.324C516.14 111.663 516.129 112.047 516.262 112.393C516.395 112.739 516.66 113.019 516.999 113.17C517.339 113.321 517.725 113.332 518.072 113.2C518.419 113.068 518.7 112.803 518.851 112.465L518.965 112.215C519.402 111.311 519.936 110.456 520.557 109.666C520.491 109.955 520.518 110.257 520.634 110.53C520.749 110.802 520.948 111.032 521.201 111.186C523.178 112.347 524.878 113.922 526.185 115.801C526.311 115.99 526.483 116.145 526.684 116.251Z" fill="#1E1E1E"/>
<path d="M506.461 108.604C506.741 108.849 507.107 108.972 507.478 108.947L507.684 108.948C510.013 108.605 512.38 108.6 514.711 108.934C515.081 108.991 515.46 108.898 515.762 108.676C516.064 108.455 516.266 108.123 516.323 107.753C516.379 107.384 516.286 107.007 516.064 106.705C515.842 106.404 515.509 106.203 515.138 106.147C512.535 105.773 509.892 105.776 507.29 106.156C506.918 106.18 506.572 106.351 506.327 106.631C506.082 106.91 505.959 107.275 505.984 107.645C506.009 108.015 506.18 108.36 506.461 108.604Z" fill="#1E1E1E"/>
<path d="M527.605 103.299C527.852 103.499 528.16 103.61 528.479 103.613L528.479 103.594C528.67 103.599 528.861 103.565 529.039 103.495L529.975 103.091C531.968 102.266 533.996 101.599 535.913 100.978C536.088 100.922 536.25 100.832 536.39 100.713C536.53 100.594 536.645 100.449 536.729 100.286C536.813 100.123 536.864 99.9448 536.878 99.7621C536.893 99.5794 536.871 99.3956 536.815 99.2212C536.758 99.0468 536.668 98.8853 536.549 98.7457C536.429 98.6062 536.284 98.4914 536.12 98.4079C535.956 98.3245 535.778 98.274 535.595 98.2594C535.411 98.2447 535.227 98.2662 535.052 98.3226C533.088 98.9619 530.985 99.6562 528.899 100.518L527.907 100.949C527.617 101.081 527.382 101.308 527.239 101.592C527.096 101.875 527.054 102.199 527.121 102.509C527.188 102.82 527.358 103.098 527.605 103.299Z" fill="#1E1E1E"/>
<path d="M541.62 98.3114C541.868 98.5189 542.182 98.6339 542.506 98.6367L542.544 98.6183C542.7 98.6182 542.855 98.5907 543.001 98.5372C543.572 98.3174 544.133 98.0791 544.695 97.8313C546.519 97.0426 548.259 96.0746 549.891 94.9419C550.05 94.8405 550.188 94.7079 550.294 94.5522C550.401 94.3964 550.475 94.2207 550.511 94.0357C550.548 93.8507 550.547 93.6603 550.507 93.4758C550.468 93.2914 550.392 93.1168 550.283 92.9626C550.174 92.8084 550.035 92.6779 549.874 92.5788C549.713 92.4797 549.533 92.4142 549.346 92.3862C549.159 92.3582 548.968 92.3683 548.785 92.4159C548.602 92.4635 548.43 92.5475 548.281 92.663C546.807 93.6821 545.239 94.5602 543.599 95.2857L542 95.9459C541.698 96.0656 541.448 96.2859 541.292 96.5691C541.135 96.8524 541.082 97.1811 541.142 97.4988C541.202 97.8166 541.371 98.1038 541.62 98.3114Z" fill="#1E1E1E"/>
<path d="M293.027 115.777C292.715 116.023 292.322 116.146 291.924 116.12L291.762 116.11C291.552 116.073 291.351 115.995 291.171 115.881C290.991 115.767 290.835 115.618 290.713 115.444C290.591 115.269 290.504 115.072 290.459 114.864C290.413 114.657 290.409 114.442 290.447 114.232L290.667 113.038C291.136 110.674 291.485 108.288 291.714 105.889C291.745 105.464 291.943 105.068 292.266 104.788C292.589 104.508 293.01 104.367 293.437 104.395C293.648 104.41 293.855 104.467 294.044 104.562C294.234 104.658 294.403 104.789 294.541 104.95C294.679 105.11 294.784 105.297 294.85 105.498C294.916 105.699 294.941 105.911 294.924 106.122C294.69 108.632 294.326 111.129 293.834 113.603L293.615 114.786C293.549 115.177 293.339 115.53 293.027 115.777Z" fill="#1E1E1E"/>
<path d="M292.918 98.988C292.711 99.0596 292.492 99.0892 292.273 99.0751L292.272 99.0859C291.96 99.0552 291.663 98.937 291.415 98.7451C291.167 98.5531 290.979 98.2953 290.872 98.0012C289.933 95.5803 288.4 93.4324 286.414 91.7528C286.255 91.6127 286.124 91.4425 286.03 91.252C285.936 91.0615 285.881 90.8545 285.867 90.6427C285.854 90.4309 285.882 90.2186 285.951 90.0177C286.019 89.8169 286.127 89.6314 286.268 89.472C286.408 89.3126 286.579 89.1825 286.77 89.0889C286.961 88.9953 287.169 88.9402 287.382 88.9266C287.594 88.913 287.807 88.9412 288.009 89.0097C288.21 89.0782 288.396 89.1857 288.556 89.3258C290.94 91.3512 292.778 93.9382 293.903 96.8518L293.897 96.9486C293.968 97.1466 293.999 97.3564 293.988 97.5663C293.977 97.7762 293.924 97.9819 293.833 98.1715C293.742 98.361 293.614 98.5308 293.457 98.6709C293.3 98.8111 293.117 98.9188 292.918 98.988Z" fill="#1E1E1E"/>
<path d="M275.815 88.3374C274.245 88.3528 272.651 88.3883 271.078 88.2849L271.034 88.2928C270.604 88.2717 270.201 88.0815 269.913 87.7641C269.624 87.4467 269.474 87.028 269.495 86.6002C269.516 86.1724 269.707 85.7705 270.025 85.4829C270.344 85.1953 270.764 85.0455 271.193 85.0666C272.716 85.1128 274.253 85.1274 275.769 85.1084C277.161 85.0568 278.554 85.0907 279.941 85.21C280.153 85.2308 280.358 85.2932 280.545 85.3935C280.732 85.4937 280.897 85.6299 281.031 85.7942C281.165 85.9585 281.266 86.1475 281.326 86.3505C281.386 86.5535 281.406 86.7664 281.383 86.977C281.365 87.1888 281.304 87.3948 281.205 87.5828C281.105 87.7707 280.968 87.9367 280.803 88.0708C280.637 88.2049 280.446 88.3044 280.241 88.3634C280.036 88.4224 279.822 88.4397 279.61 88.4141C278.347 88.3208 277.081 88.2952 275.815 88.3374Z" fill="#1E1E1E"/>
<path d="M263.646 87.2558C263.316 87.5295 262.889 87.6609 262.461 87.6214L262.373 87.648C259.474 87.2848 256.551 86.8014 253.712 86.194C253.287 86.1046 252.915 85.8506 252.679 85.488C252.442 85.1255 252.359 84.6841 252.449 84.2608C252.538 83.8374 252.793 83.4669 253.157 83.2308C253.521 82.9947 253.964 82.9124 254.389 83.0018C257.142 83.5928 259.959 84.0583 262.761 84.4044C263.189 84.4439 263.584 84.6514 263.858 84.981C264.133 85.3107 264.265 85.7355 264.225 86.1621C264.185 86.5887 263.977 86.9821 263.646 87.2558Z" fill="#1E1E1E"/>
<path d="M465.107 65.76C464.942 66.1214 464.649 66.4091 464.283 66.5673L464.135 66.6314C463.931 66.6945 463.716 66.7167 463.504 66.697C463.291 66.6772 463.084 66.6158 462.896 66.5162C462.707 66.4166 462.54 66.2809 462.404 66.1167C462.268 65.9526 462.166 65.7632 462.104 65.5597L461.752 64.3975C461.086 62.0809 460.303 59.7991 459.407 57.561C459.24 57.1685 459.235 56.726 459.394 56.3301C459.553 55.9342 459.862 55.617 460.255 55.4477C460.45 55.365 460.66 55.3216 460.872 55.3201C461.085 55.3186 461.295 55.3589 461.492 55.4388C461.688 55.5187 461.867 55.6366 462.018 55.7856C462.169 55.9346 462.288 56.1118 462.37 56.3071C463.312 58.6473 464.132 61.0342 464.828 63.4584L465.175 64.6107C465.296 64.9891 465.272 65.3986 465.107 65.76Z" fill="#1E1E1E"/>
<path d="M457.315 50.8735C457.164 51.0313 456.982 51.1574 456.782 51.2443L456.786 51.2541C456.494 51.3689 456.175 51.399 455.867 51.341C455.559 51.2831 455.273 51.1393 455.043 50.9264C453.098 49.2002 450.75 47.9865 448.214 47.3959C448.007 47.3439 447.813 47.2519 447.642 47.1252C447.471 46.9985 447.327 46.8395 447.218 46.6573C447.109 46.4751 447.037 46.2733 447.006 46.0633C446.975 45.8533 446.986 45.6393 447.038 45.4335C447.09 45.2277 447.182 45.0342 447.309 44.864C447.436 44.6938 447.596 44.5503 447.779 44.4415C447.961 44.3327 448.164 44.2608 448.375 44.2301C448.585 44.1993 448.8 44.2103 449.006 44.2622C452.056 44.9793 454.876 46.4444 457.213 48.5245L457.252 48.6135C457.405 48.7574 457.529 48.9301 457.615 49.1218C457.702 49.3135 457.749 49.5204 457.755 49.7305C457.761 49.9405 457.725 50.1497 457.65 50.3459C457.574 50.5421 457.46 50.7214 457.315 50.8735Z" fill="#1E1E1E"/>
<path d="M437.219 49.1801C435.829 49.9085 434.427 50.6652 432.98 51.2893L432.944 51.3163C432.553 51.4928 432.107 51.5071 431.705 51.356C431.303 51.2049 430.977 50.9008 430.8 50.5106C430.622 50.1204 430.608 49.6761 430.76 49.2753C430.911 48.8745 431.216 48.5501 431.608 48.3735C432.984 47.7215 434.357 47.0355 435.698 46.3285C436.912 45.6494 438.167 45.0457 439.456 44.5205C439.654 44.4429 439.865 44.405 440.077 44.4091C440.29 44.4132 440.499 44.4591 440.694 44.5442C440.888 44.6294 441.064 44.752 441.211 44.9051C441.357 45.0583 441.472 45.2389 441.549 45.4365C441.63 45.6331 441.67 45.8441 441.667 46.0566C441.665 46.2692 441.619 46.479 441.534 46.6736C441.448 46.8683 441.324 47.0437 441.168 47.1894C441.013 47.3351 440.83 47.4481 440.63 47.5218C439.464 48.0132 438.325 48.5668 437.219 49.1801Z" fill="#1E1E1E"/>
<path d="M80.0799 71.1007C79.6578 71.0184 79.2859 70.7724 79.0458 70.4168C78.8058 70.0612 78.7173 69.6251 78.8 69.2044C78.8826 68.7838 79.1294 68.413 79.4863 68.1737C79.8432 67.9345 80.2808 67.8462 80.7028 67.9285C83.4155 68.3303 86.1692 68.3794 88.8947 68.0747C89.3037 68.0605 89.703 68.2012 90.0123 68.4684C90.3216 68.7356 90.5179 69.1096 90.5618 69.5151C90.6057 69.9207 90.494 70.3279 90.2491 70.6548C90.0041 70.9817 89.6442 71.2041 89.2415 71.2773C86.233 71.6207 83.1923 71.5669 80.198 71.1175L80.0799 71.1007ZM97.1101 69.333C96.7626 69.2482 96.4531 69.0511 96.2298 68.7725C96.0065 68.494 95.882 68.1497 95.8757 67.7932C95.8694 67.4367 95.9817 67.0881 96.1951 66.8018C96.4084 66.5156 96.7108 66.3077 97.055 66.2107C99.8852 65.3816 102.765 64.7328 105.678 64.2681C106.104 64.2059 106.537 64.3148 106.882 64.5707C107.227 64.8267 107.455 65.2087 107.518 65.6329C107.58 66.057 107.471 66.4884 107.214 66.8323C106.957 67.1761 106.574 67.4042 106.148 67.4664C103.374 67.9105 100.631 68.529 97.9352 69.3181C97.666 69.3877 97.3832 69.3856 97.1151 69.312L97.1101 69.333Z" fill="#1E1E1E"/>
<path d="M370.838 122.589C370.695 122.994 370.719 123.438 370.905 123.824C371.091 124.211 371.423 124.508 371.829 124.65C372.235 124.793 372.681 124.769 373.069 124.583C373.457 124.398 373.755 124.067 373.898 123.663C374.926 121.129 376.279 118.74 377.925 116.553C378.145 116.209 378.225 115.795 378.151 115.394C378.077 114.993 377.853 114.635 377.524 114.391C377.196 114.148 376.787 114.037 376.38 114.082C375.973 114.126 375.598 114.323 375.331 114.632C373.508 117.041 372.013 119.68 370.883 122.479L370.838 122.589ZM381.002 108.86C380.899 109.201 380.913 109.567 381.041 109.9C381.168 110.233 381.403 110.514 381.708 110.7C382.013 110.887 382.372 110.967 382.728 110.929C383.084 110.891 383.417 110.737 383.675 110.49C385.827 108.48 387.849 106.335 389.728 104.069C389.997 103.735 390.123 103.308 390.076 102.882C390.03 102.456 389.815 102.066 389.48 101.797C389.145 101.529 388.716 101.404 388.289 101.45C387.861 101.496 387.469 101.71 387.2 102.044C385.409 104.201 383.483 106.243 381.433 108.159C381.237 108.354 381.095 108.598 381.023 108.866L381.002 108.86Z" fill="#1E1E1E"/>
</svg>
