<svg width="311" height="82" viewBox="0 0 311 82" fill="none" xmlns="http://www.w3.org/2000/svg">
<rect width="311" height="81.7365" rx="8" fill="#00A99D"/>
<path d="M178.127 72.477L176.682 81.178H171.868C173.072 77.223 175.479 69.2075 175.479 68.7857C175.479 68.3638 176.923 68.6099 177.645 68.7857L178.127 72.477Z" fill="white"/>
<path d="M162.481 70.1346L168.258 81.9995H154.056L151.89 69.8709L149.242 51.9416V36.3853V31.903L146.594 32.9576L140.576 34.0123L139.373 31.903L144.187 24.2566L146.594 21.8836L144.187 15.292L146.594 16.083L148.52 19.5107H151.408L154.778 15.292L155.982 16.083V18.456L154.056 21.8836L156.704 26.6296L158.389 52.4689L162.481 70.1346Z" fill="white"/>
<path d="M22.9835 52.8868L21.0489 49.4744C20.5818 48.6507 19.3639 49.3316 19.8333 50.1656C20.144 50.7114 20.4525 51.2597 20.7632 51.808L19.4024 51.2775C19.3752 51.2775 19.3525 51.2775 19.3276 51.2571C19.1989 51.1859 19.0523 51.167 18.9126 51.2036C18.5837 51.2826 18.2707 51.7136 18.3887 52.1115C18.6257 52.91 18.8997 53.6941 19.2097 54.4604C19.5771 55.3581 20.7972 54.667 20.4253 53.7718C20.3482 53.5856 20.2801 53.3969 20.1985 53.2107L22.1557 53.9758C22.6841 54.1594 23.2987 53.4606 22.9835 52.8868Z" fill="white"/>
<path d="M35.5444 35.9083C33.716 35.1868 31.7705 34.8834 29.8295 35.0173C30.1268 34.068 30.3247 33.0853 30.4193 32.0877C30.4799 31.4896 29.881 31.2162 29.4437 31.3993C28.6794 31.7115 27.9472 32.1099 27.2591 32.5882C26.732 32.9568 26.2587 33.4988 25.7429 33.8918C24.9623 33.2327 24.2917 32.1609 23.7018 31.3748C23.3048 30.8475 22.5804 31.2259 22.5243 31.824C22.4166 32.8152 22.3493 33.8064 22.3157 34.8024L19.8373 34.1604C19.6967 34.1094 19.5445 34.1103 19.4045 34.1631C19.2644 34.2158 19.1443 34.3175 19.0627 34.4521C18.9812 34.5868 18.9427 34.7471 18.9534 34.908C18.9641 35.0689 19.0233 35.2214 19.1218 35.342C19.678 36.1476 20.2268 36.9614 20.7681 37.7833C21.2772 38.5474 22.2798 37.5684 21.7774 36.8067C21.6024 36.5455 21.4253 36.2892 21.2503 36.0304L22.7553 36.421C22.8539 36.4566 22.9588 36.4668 23.0616 36.4508C23.1645 36.4349 23.2626 36.3933 23.3482 36.3292C23.4338 36.2651 23.5046 36.1803 23.555 36.0815C23.6055 35.9826 23.6342 35.8724 23.639 35.7594C23.639 35.0539 23.6749 34.3508 23.7198 33.6477C23.9732 33.9529 24.2289 34.2556 24.4936 34.5485C24.8479 34.9416 25.2831 35.5788 25.864 35.4836C26.4942 35.381 27.0572 34.507 27.5417 34.1384C27.9685 33.8098 28.4185 33.5184 28.8874 33.2669C28.7221 34.0803 28.48 34.8731 28.1652 35.6325C27.9409 36.1818 28.4927 36.6481 28.9457 36.5773C30.0472 36.4106 31.1641 36.4024 32.2675 36.5529C31.3062 36.7704 30.3688 37.0977 29.4706 37.5294C29.3785 37.5797 29.2982 37.6524 29.236 37.7419C29.1738 37.8313 29.1313 37.9352 29.1118 38.0453C29.0923 38.1555 29.0963 38.2691 29.1235 38.3773C29.1507 38.4855 29.2004 38.5855 29.2687 38.6695C29.5536 39.0357 29.8429 39.4019 30.1367 39.7558C29.7213 39.5846 29.2957 39.4443 28.8627 39.3359C28.3917 39.2212 27.8624 39.5996 27.9947 40.1855C28.227 41.1931 28.5062 42.1872 28.8314 43.1639L26.5683 41.975C26.169 41.765 25.698 42.2191 25.6868 42.6341C25.6766 42.9769 25.6833 43.32 25.707 43.6619L23.1344 42.5829C22.5849 42.3534 22.06 43.0711 22.3224 43.6082C22.9205 44.8663 23.5007 46.1366 24.0629 47.4191C24.433 48.2735 25.633 47.6095 25.2651 46.7575C24.9586 46.0495 24.6438 45.3464 24.3208 44.6482L26.3395 45.488C26.452 45.5283 26.5723 45.5355 26.6882 45.509C26.8041 45.4824 26.9115 45.4231 26.9995 45.3369C27.0876 45.2507 27.1532 45.1407 27.1897 45.0181C27.2262 44.8954 27.2323 44.7645 27.2075 44.6385C27.1551 44.3797 27.1155 44.1181 27.0886 43.8548L29.8788 45.3196C30.4507 45.6199 30.8948 44.8069 30.6907 44.2942C30.2788 43.2608 29.9253 42.2009 29.6321 41.1205C30.7176 41.5575 31.7449 42.1801 32.7722 42.7342C32.8061 42.7521 32.8414 42.7668 32.8776 42.7782C33.5101 43.3226 34.4476 42.3925 33.8375 41.7675C32.8073 40.7299 31.8273 39.6348 30.9016 38.4864C32.3662 37.92 33.9923 37.6832 35.4793 37.3219C35.6243 37.2881 35.755 37.2032 35.8511 37.0803C35.9471 36.9574 36.0033 36.8035 36.0107 36.6423C36.0181 36.4811 35.9764 36.3218 35.8921 36.1891C35.8078 36.0564 35.6855 35.9577 35.5444 35.9083V35.9083Z" fill="white"/>
<path d="M23.7215 49.8984L23.6891 49.8807L22.2884 49.343C22.2399 49.3249 22.19 49.3123 22.1395 49.3052C21.6711 49.0528 21.2006 48.8003 20.7215 48.6085C20.2423 48.4166 19.8042 48.356 19.4027 48.7599C18.9711 49.1941 18.7142 49.9817 18.4293 50.5522C18.0437 51.323 17.6581 52.0946 17.2725 52.867C17.2159 52.9868 17.1863 53.1215 17.1865 53.2583C17.1868 53.3951 17.2168 53.5297 17.2738 53.6492C17.3309 53.7687 17.413 53.8692 17.5124 53.9412C17.6119 54.0133 17.7254 54.0546 17.8423 54.0611C17.9095 54.1567 17.9954 54.232 18.0927 54.2807C19.1162 54.8048 20.1141 55.3947 21.0819 56.0477C21.3646 56.237 21.8114 56.2143 21.9884 55.8332C22.7078 54.2445 23.4345 52.6575 24.1683 51.0722C24.2163 50.9626 24.2427 50.8417 24.2455 50.7185C24.2484 50.5953 24.2276 50.473 24.1848 50.3604C24.1419 50.2478 24.0781 50.1479 23.9979 50.068C23.9178 49.988 23.8233 49.9301 23.7215 49.8984V49.8984ZM21.1833 54.3716C20.3848 53.8667 19.5697 53.3946 18.738 52.9554L19.9035 50.6254C19.9531 50.5244 20.1193 50.0398 20.2121 50.007C20.3049 49.9741 20.6632 50.2342 20.756 50.2821L22.379 51.0949C22.4661 51.1394 22.5604 51.161 22.6553 51.1581L21.1833 54.3716Z" fill="#1E1E1E"/>
<path d="M35.87 36.8457C35.1682 33.8521 32.3315 31.9057 29.8717 30.8412C27.369 29.7667 24.4759 29.416 21.9258 30.4954C19.3193 31.597 17.2815 34.2843 17.1867 37.3965C17.1836 37.5584 17.2273 37.7172 17.3116 37.8503C17.3959 37.9833 17.5165 38.0839 17.6561 38.1375L20.7433 39.2662C20.8852 39.3152 21.0378 39.3128 21.1785 39.2594C21.3191 39.206 21.4403 39.1045 21.5241 38.9698C22.3771 37.4187 23.7379 35.8404 25.5072 35.7589C26.8748 35.7021 28.5109 36.8135 28.4093 38.4758C28.2694 40.7606 25.8999 41.467 24.1757 41.3212C23.4242 41.257 22.6254 41.1311 21.9732 41.6497C21.7073 41.8411 21.5004 42.1158 21.3796 42.438C21.2588 42.7601 21.2297 43.1147 21.2962 43.4553C21.2621 43.5151 21.2363 43.58 21.2194 43.6479C21.0569 44.2951 20.8967 44.9422 20.7342 45.5893C20.1655 46.1154 20.3055 47.1034 20.8787 47.5653C21.2555 47.879 21.7227 47.9556 22.165 48.1038C22.8034 48.3225 23.4179 48.6174 23.9974 48.9831C24.0854 49.0442 24.1848 49.0828 24.2883 49.096C24.3918 49.1092 24.4967 49.0968 24.5951 49.0595C24.6936 49.0222 24.7831 48.9611 24.857 48.8808C24.9309 48.8004 24.9873 48.7028 25.022 48.5953L25.9675 46.0364C27.1248 46.368 28.3358 46.4069 29.5088 46.1501C30.6818 45.8933 31.786 45.3477 32.7377 44.5544C34.7529 42.9119 36.5335 39.6762 35.87 36.8457ZM33.3132 41.8276C32.4743 43.1103 31.2739 44.056 29.8963 44.5197C28.5187 44.9833 27.0401 44.9391 25.6877 44.3939C25.1348 44.1666 24.7647 44.7323 24.8279 45.2312C24.7997 45.2759 24.7762 45.3239 24.7579 45.3744L24.0336 47.3381C23.7447 47.1825 23.4513 47.0392 23.1489 46.9132C22.8465 46.7873 22.5983 46.7033 22.3162 46.6168L21.9619 46.5131L21.9325 46.4909C22.1281 45.7021 22.3252 44.9134 22.5238 44.1246C22.5401 44.0561 22.5477 43.9855 22.5464 43.9147C22.6231 43.8323 22.6756 43.7267 22.6973 43.6114C22.719 43.4962 22.7089 43.3765 22.6682 43.2676C22.4426 42.5266 23.8101 42.7983 24.108 42.823C24.6162 42.8687 25.1272 42.8588 25.6336 42.7933C26.6317 42.6796 27.5782 42.2505 28.3574 41.5584C29.7589 40.2419 30.2576 37.9818 29.1698 36.2677C28.2288 34.7857 26.4618 34.067 24.8595 34.3658C23.079 34.6993 21.655 36.0824 20.6688 37.6805L18.5926 36.9222C18.9243 34.2349 21.0118 32.1725 23.3927 31.5723C26.2023 30.8634 29.3323 31.8391 31.7019 33.5334C32.9205 34.4029 34.2384 35.6971 34.5657 37.3199C34.8793 38.876 34.1436 40.5877 33.3132 41.8276V41.8276Z" fill="#1E1E1E"/>
<path d="M193.027 49.1465L190.885 45.3679C190.368 44.4558 189.019 45.2098 189.539 46.1333C189.883 46.7376 190.225 47.3448 190.569 47.9519L189.062 47.3645C189.032 47.3645 189.007 47.3645 188.979 47.3419C188.837 47.2631 188.674 47.2422 188.52 47.2826C188.156 47.3702 187.809 47.8474 187.94 48.288C188.202 49.1722 188.506 50.0404 188.849 50.8889C189.256 51.883 190.606 51.1176 190.195 50.1264C190.109 49.9203 190.034 49.7113 189.944 49.5051L192.111 50.3523C192.696 50.5557 193.376 49.7819 193.027 49.1465Z" fill="white"/>
<path d="M206.934 30.3482C204.91 29.5493 202.756 29.2134 200.606 29.3616C200.936 28.3105 201.155 27.2224 201.26 26.1178C201.327 25.4555 200.664 25.1528 200.179 25.3555C199.333 25.7012 198.522 26.1424 197.761 26.6719C197.177 27.0801 196.653 27.6802 196.082 28.1154C195.218 27.3856 194.475 26.1989 193.822 25.3285C193.382 24.7446 192.58 25.1636 192.518 25.8259C192.399 26.9234 192.324 28.0208 192.287 29.1237L189.543 28.4128C189.387 28.3563 189.219 28.3574 189.064 28.4158C188.909 28.4742 188.776 28.5867 188.685 28.7358C188.595 28.885 188.553 29.0624 188.564 29.2406C188.576 29.4187 188.642 29.5876 188.751 29.7211C189.367 30.6131 189.974 31.5142 190.574 32.4242C191.137 33.2703 192.247 32.1863 191.691 31.343C191.497 31.0537 191.301 30.7699 191.108 30.4834L192.774 30.9159C192.883 30.9552 192.999 30.9665 193.113 30.9489C193.227 30.9313 193.336 30.8852 193.43 30.8142C193.525 30.7432 193.604 30.6494 193.659 30.5399C193.715 30.4304 193.747 30.3084 193.752 30.1833C193.752 29.4021 193.792 28.6236 193.842 27.8451C194.122 28.183 194.405 28.5182 194.699 28.8426C195.091 29.2778 195.573 29.9833 196.216 29.8779C196.914 29.7643 197.537 28.7966 198.073 28.3884C198.546 28.0246 199.044 27.702 199.563 27.4234C199.38 28.3241 199.112 29.2019 198.764 30.0428C198.515 30.651 199.126 31.1673 199.628 31.0889C200.848 30.9043 202.084 30.8952 203.306 31.0619C202.242 31.3027 201.204 31.6652 200.209 32.1431C200.107 32.1988 200.018 32.2793 199.949 32.3784C199.88 32.4774 199.833 32.5924 199.812 32.7144C199.79 32.8364 199.795 32.9621 199.825 33.0819C199.855 33.2018 199.91 33.3125 199.986 33.4055C200.301 33.8109 200.621 34.2164 200.947 34.6084C200.487 34.4187 200.015 34.2634 199.536 34.1434C199.015 34.0164 198.429 34.4354 198.575 35.0841C198.832 36.1998 199.141 37.3005 199.501 38.3819L196.996 37.0655C196.554 36.833 196.032 37.3358 196.02 37.7953C196.008 38.1748 196.016 38.5547 196.042 38.9334L193.194 37.7386C192.585 37.4845 192.004 38.2792 192.295 38.8739C192.957 40.2669 193.599 41.6734 194.222 43.0935C194.631 44.0396 195.96 43.3043 195.553 42.3609C195.213 41.577 194.865 40.7985 194.507 40.0254L196.742 40.9553C196.867 40.9999 197 41.0079 197.128 40.9785C197.257 40.9491 197.376 40.8834 197.473 40.7879C197.571 40.6925 197.643 40.5707 197.684 40.4349C197.724 40.2992 197.731 40.1542 197.703 40.0146C197.645 39.7281 197.601 39.4385 197.572 39.1469L200.661 40.7688C201.294 41.1013 201.786 40.2011 201.56 39.6335C201.104 38.4892 200.712 37.3156 200.388 36.1194C201.59 36.6033 202.727 37.2926 203.865 37.9062C203.902 37.9259 203.941 37.9422 203.981 37.9548C204.682 38.5576 205.72 37.5277 205.044 36.8357C203.903 35.6869 202.818 34.4743 201.793 33.2027C203.415 32.5756 205.216 32.3134 206.862 31.9133C207.023 31.876 207.167 31.7819 207.274 31.6459C207.38 31.5098 207.442 31.3393 207.45 31.1609C207.459 30.9824 207.412 30.806 207.319 30.6591C207.226 30.5121 207.09 30.4029 206.934 30.3482V30.3482Z" fill="white"/>
<path d="M193.844 45.8374L193.809 45.8178L192.258 45.2225C192.204 45.2024 192.149 45.1884 192.093 45.1805C191.574 44.901 191.053 44.6215 190.523 44.4091C189.992 44.1967 189.507 44.1296 189.063 44.5768C188.585 45.0575 188.3 45.9296 187.985 46.5613C187.558 47.4147 187.131 48.269 186.704 49.1243C186.641 49.2569 186.609 49.406 186.609 49.5575C186.609 49.709 186.642 49.858 186.706 49.9903C186.769 50.1226 186.86 50.2339 186.97 50.3137C187.08 50.3935 187.206 50.4391 187.335 50.4463C187.409 50.5522 187.504 50.6356 187.612 50.6895C188.745 51.2698 189.85 51.923 190.922 52.646C191.235 52.8556 191.73 52.8305 191.926 52.4084C192.722 50.6494 193.527 48.8923 194.339 47.137C194.392 47.0156 194.421 46.8818 194.425 46.7454C194.428 46.609 194.405 46.4735 194.357 46.3489C194.31 46.2243 194.239 46.1136 194.15 46.0251C194.062 45.9366 193.957 45.8724 193.844 45.8374V45.8374ZM191.034 50.7901C190.15 50.2311 189.247 49.7084 188.327 49.2221L189.617 46.6423C189.672 46.5305 189.856 45.9939 189.959 45.9575C190.062 45.9212 190.458 46.2091 190.561 46.2622L192.358 47.1622C192.454 47.2114 192.559 47.2353 192.664 47.2321L191.034 50.7901Z" fill="#1E1E1E"/>
<path d="M207.296 31.3854C206.519 28.0708 203.378 25.9158 200.654 24.7371C197.883 23.5475 194.68 23.1591 191.857 24.3542C188.971 25.574 186.714 28.5494 186.61 31.9952C186.606 32.1745 186.655 32.3504 186.748 32.4977C186.841 32.645 186.975 32.7563 187.129 32.8157L190.547 34.0655C190.705 34.1197 190.874 34.117 191.029 34.0579C191.185 33.9988 191.319 33.8864 191.412 33.7373C192.356 32.0199 193.863 30.2723 195.822 30.1821C197.336 30.1192 199.148 31.3498 199.035 33.1903C198.88 35.72 196.257 36.5022 194.348 36.3408C193.516 36.2697 192.631 36.1303 191.909 36.7046C191.615 36.9164 191.386 37.2206 191.252 37.5773C191.118 37.934 191.086 38.3266 191.16 38.7037C191.122 38.7699 191.093 38.8417 191.075 38.917C190.895 39.6335 190.717 40.35 190.537 41.0666C189.908 41.6491 190.063 42.743 190.697 43.2544C191.115 43.6017 191.632 43.6865 192.122 43.8506C192.828 44.0927 193.509 44.4192 194.15 44.8242C194.248 44.8918 194.358 44.9345 194.472 44.9492C194.587 44.9638 194.703 44.95 194.812 44.9088C194.921 44.8675 195.02 44.7999 195.102 44.7109C195.184 44.6219 195.246 44.5138 195.285 44.3948L196.332 41.5616C197.613 41.9287 198.954 41.9717 200.253 41.6874C201.551 41.4031 202.774 40.799 203.828 39.9207C206.059 38.102 208.03 34.5195 207.296 31.3854ZM204.465 36.9015C203.536 38.3217 202.207 39.3689 200.682 39.8822C199.156 40.3955 197.519 40.3466 196.022 39.7429C195.41 39.4913 195 40.1176 195.07 40.67C195.039 40.7195 195.013 40.7727 194.992 40.8286L194.19 43.0028C193.871 42.8305 193.546 42.6719 193.211 42.5324C192.876 42.3929 192.601 42.2999 192.289 42.2042L191.897 42.0894L191.864 42.0647C192.081 41.1914 192.299 40.3181 192.519 39.4448C192.537 39.3689 192.545 39.2907 192.544 39.2124C192.629 39.1211 192.687 39.0042 192.711 38.8766C192.735 38.749 192.724 38.6165 192.679 38.4958C192.429 37.6754 193.943 37.9762 194.273 38.0036C194.835 38.0542 195.401 38.0432 195.962 37.9708C197.067 37.8449 198.115 37.3698 198.978 36.6034C200.529 35.1457 201.082 32.6434 199.877 30.7454C198.835 29.1046 196.879 28.3088 195.105 28.6397C193.134 29.0089 191.557 30.5403 190.465 32.3098L188.166 31.4702C188.533 28.4947 190.845 26.2112 193.481 25.5466C196.592 24.7617 200.057 25.842 202.681 27.718C204.03 28.6807 205.489 30.1137 205.852 31.9105C206.199 33.6334 205.384 35.5286 204.465 36.9015V36.9015Z" fill="#1E1E1E"/>
<path d="M72.5702 46.7019L68.8717 46.584C67.9827 46.5546 67.8099 48.0426 68.707 48.0777L70.4805 48.1349L69.3025 49.0919C69.282 49.1095 69.2627 49.1289 69.245 49.1499C69.1179 49.2282 69.0201 49.3518 68.9682 49.4997C68.8407 49.8442 68.9936 50.3701 69.3602 50.4803C70.101 50.7058 70.8521 50.8886 71.6103 51.0278C72.4981 51.1866 72.6629 49.6929 71.775 49.5341C71.5935 49.5009 71.4098 49.4589 71.2275 49.4201L72.9192 48.048C73.3689 47.6805 73.1908 46.724 72.5702 46.7019Z" fill="#FBB03B"/>
<path d="M66.6855 24.0807C65.0104 25.441 63.6033 27.1673 62.5525 29.1511C61.9641 28.2923 61.2898 27.5105 60.5424 26.8202C60.0971 26.4056 59.5176 26.8294 59.4049 27.3658C59.2012 28.3027 59.0845 29.2592 59.0566 30.2201C59.0402 30.9545 59.1948 31.7442 59.2017 32.4845C58.2041 32.8558 56.9412 32.8712 55.9528 32.9806C55.2916 33.0554 55.1698 33.9824 55.6127 34.4046C56.3492 35.1001 57.108 35.762 57.889 36.3904L55.8893 38.4391C55.7647 38.5468 55.675 38.6965 55.6343 38.8653C55.5935 39.034 55.6039 39.2122 55.6639 39.3724C55.7239 39.5325 55.8301 39.6657 55.9661 39.7512C56.102 39.8367 56.2602 39.8698 56.416 39.8454C57.3955 39.7858 58.377 39.7335 59.3604 39.6884C60.2802 39.6457 60.0906 38.0773 59.1813 38.1183C58.8656 38.132 58.5498 38.1623 58.2387 38.1693L59.4539 36.9262C59.5411 36.8508 59.6116 36.7542 59.66 36.6441C59.7083 36.534 59.7332 36.4133 59.7327 36.2915C59.7322 36.1696 59.7064 36.0498 59.6571 35.9415C59.6078 35.8332 59.5365 35.7392 59.4487 35.6669C58.8847 35.2387 58.3344 34.7905 57.7941 34.3264C58.1917 34.2595 58.5901 34.19 58.9834 34.1047C59.5201 33.9946 60.2879 33.9483 60.5575 33.3196C60.8503 32.6407 60.4889 31.5728 60.4717 30.8734C60.4631 30.2578 60.4972 29.6419 60.5737 29.031C61.1313 29.6799 61.6263 30.3916 62.051 31.1548C62.3592 31.7028 63.0648 31.4377 63.2792 30.9532C63.8014 29.7725 64.4623 28.6724 65.2447 27.6818C64.8462 28.7565 64.552 29.8739 64.3673 31.0151C64.3533 31.1352 64.3644 31.2569 64.3995 31.3709C64.4347 31.4848 64.493 31.5881 64.5701 31.6726C64.6471 31.7572 64.7408 31.8208 64.844 31.8587C64.9472 31.8966 65.0571 31.9076 65.1654 31.891C65.6329 31.8334 66.096 31.7657 66.5607 31.6931C66.1744 31.9933 65.8076 32.3235 65.463 32.681C65.0894 33.0726 65.0788 33.8203 65.6304 34.0399C66.5803 34.4155 67.5478 34.7361 68.5289 35.0002L66.2188 36.5086C65.812 36.7733 65.8876 37.5028 66.2239 37.7679C66.4941 37.9828 66.775 38.1808 67.0654 38.361L64.6589 40.2413C64.1443 40.6418 64.4033 41.5795 65.0018 41.6489C66.3748 41.8086 67.7449 41.999 69.112 42.2199C70.0228 42.3666 70.2059 40.7947 69.2951 40.6479C68.5429 40.524 67.786 40.4151 67.032 40.3129L68.9102 38.8447C69.0099 38.7584 69.0876 38.6447 69.1354 38.5152C69.1832 38.3856 69.1994 38.2448 69.1824 38.1069C69.1655 37.969 69.1159 37.8389 69.0387 37.7299C68.9615 37.6208 68.8595 37.5366 68.7429 37.4858C68.5028 37.3825 68.268 37.2651 68.0394 37.1341L70.8823 35.2712C71.4659 34.8908 71.0734 33.9705 70.5394 33.8636C69.4572 33.648 68.3885 33.3597 67.3393 33.0004C68.3435 32.1984 69.4589 31.5552 70.5151 30.876C70.5488 30.8531 70.581 30.8278 70.6117 30.8002C71.4277 30.5036 71.2437 29.0212 70.3698 29.2542C68.9175 29.6437 67.4489 29.9496 65.9699 30.1707C66.3888 28.3989 67.1687 26.661 67.7695 24.9738C67.8187 24.8152 67.8214 24.644 67.7775 24.4848C67.7335 24.3255 67.645 24.1864 67.5247 24.0873C67.4044 23.9881 67.2584 23.9341 67.1077 23.933C66.9569 23.9318 66.8092 23.9835 66.6855 24.0807V24.0807Z" fill="#FBB03B"/>
<path d="M70.887 44.3416L70.8524 44.3639L69.581 45.4322C69.5369 45.469 69.4968 45.5112 69.4615 45.5578C68.9819 45.8733 68.4964 46.192 68.0526 46.5533C67.6088 46.9145 67.3131 47.3148 67.3695 47.9354C67.4413 48.6105 67.9056 49.3048 68.1754 49.9078L69.277 52.3604C69.3371 52.4829 69.4247 52.5872 69.5317 52.6635C69.6387 52.7399 69.7617 52.786 69.8892 52.7974C70.0166 52.8088 70.1444 52.7851 70.2607 52.7287C70.377 52.6723 70.478 52.5849 70.5542 52.4746C70.6705 52.4626 70.7823 52.421 70.8804 52.3531C71.9123 51.6468 72.9797 51.0023 74.0778 50.4227C74.3989 50.2533 74.655 49.8032 74.4616 49.4124L72.0724 44.5648C72.0158 44.4558 71.9374 44.3618 71.843 44.2895C71.7486 44.2173 71.6406 44.1687 71.5269 44.1473C71.4132 44.1259 71.2967 44.1322 71.186 44.1658C71.0753 44.1995 70.9731 44.2595 70.887 44.3416V44.3416ZM72.8306 49.3878C71.9443 49.8821 71.0798 50.4134 70.2372 50.9816C69.866 50.1608 69.4956 49.3375 69.1259 48.5119C69.0783 48.4077 68.7975 47.96 68.8285 47.8608C68.8595 47.7616 69.2804 47.5458 69.3735 47.4805L70.9971 46.3517C71.0853 46.2914 71.1596 46.2101 71.2143 46.114L72.8306 49.3878Z" fill="#1E1E1E"/>
<path d="M67.9164 24.1946C65.1224 23.1133 61.8785 24.7645 59.5707 26.5746C57.2239 28.4212 55.2165 31.0782 54.5464 34.2507C53.8617 37.4859 54.7715 41.1027 57.1795 43.0418C57.3072 43.1456 57.4623 43.1992 57.6216 43.1946C57.7809 43.19 57.9358 43.1275 58.0631 43.0165L60.8099 40.6351C60.934 40.5234 61.0238 40.3704 61.0657 40.1989C61.1077 40.0274 61.0996 39.8466 61.0427 39.6833C60.3244 37.9172 59.8864 35.6312 60.8869 33.8333C61.6616 32.445 63.5189 31.4829 64.7713 32.5656C66.5 34.0613 65.6414 36.8288 64.4928 38.4523C63.9936 39.1601 63.416 39.8784 63.438 40.8316C63.4323 41.2062 63.5267 41.5715 63.7088 41.8802C63.891 42.1889 64.1526 42.4269 64.4598 42.5633C64.4882 42.632 64.5245 42.6961 64.5677 42.7539L65.8093 44.3831C65.8844 45.2624 66.7509 45.7074 67.4706 45.4223C67.9428 45.2323 68.2829 44.8171 68.6655 44.466C69.2202 43.9614 69.8219 43.5271 70.4594 43.1709C70.5604 43.1197 70.6505 43.0438 70.7228 42.9488C70.7952 42.8539 70.848 42.7423 70.8773 42.6225C70.9067 42.5026 70.9118 42.3774 70.8923 42.2563C70.8729 42.1352 70.8294 42.0212 70.765 41.9227L69.3016 39.4674C70.2574 38.5154 71.0133 37.3363 71.5122 36.0193C72.011 34.7023 72.2397 33.282 72.181 31.8657C72.053 28.9008 70.5567 25.2157 67.9164 24.1946ZM70.3341 29.6846C70.8496 31.2777 70.8815 33.0296 70.4248 34.6709C69.9681 36.3121 69.0482 37.7517 67.8066 38.7682C67.2944 39.1817 67.5221 39.8852 67.9548 40.1175C67.9754 40.171 68.0005 40.2221 68.0296 40.2702L69.1502 42.1579C68.8545 42.3513 68.5653 42.5557 68.2871 42.7811C68.0089 43.0066 67.7898 43.203 67.5536 43.43C67.4535 43.526 67.3557 43.6229 67.2578 43.7198L67.2229 43.7352L65.7004 41.7488C65.6563 41.6915 65.6056 41.6412 65.5497 41.5989C65.5297 41.4743 65.4771 41.3601 65.3986 41.2707C65.3201 41.1814 65.2193 41.1209 65.1088 41.0969C64.3767 40.8779 65.4179 39.6854 65.6167 39.402C65.957 38.9264 66.2547 38.4146 66.5051 37.8744C67.0143 36.8127 67.2382 35.6133 67.1491 34.4253C66.9474 32.2559 65.4539 30.4165 63.4398 30.4886C62.5755 30.5417 61.7357 30.864 61.0144 31.4195C60.2931 31.9751 59.7187 32.7419 59.3555 33.6342C58.5534 35.6054 58.7941 37.8263 59.4765 39.755L57.6353 41.3615C55.705 39.4387 55.3174 36.1443 56.2645 33.4297C57.3831 30.2229 60.0294 27.6991 62.79 26.353C64.2067 25.6637 66.0199 25.1222 67.5009 25.7622C68.9334 26.3814 69.8505 28.128 70.3341 29.6846Z" fill="#1E1E1E"/>
<path d="M240.154 56.7238L236.321 56.6017C235.399 56.5712 235.22 58.1129 236.15 58.1493L237.988 58.2085L236.767 59.2001C236.746 59.2184 236.726 59.2385 236.707 59.2602C236.576 59.3413 236.474 59.4694 236.421 59.6226C236.288 59.9796 236.447 60.5245 236.827 60.6387C237.595 60.8723 238.373 61.0617 239.159 61.2059C240.079 61.3705 240.25 59.8228 239.329 59.6583C239.141 59.6239 238.951 59.5803 238.762 59.5401L240.515 58.1185C240.981 57.7377 240.797 56.7466 240.154 56.7238Z" fill="#FBB03B"/>
<path d="M234.055 33.2793C232.319 34.6889 230.86 36.478 229.771 38.5339C229.161 37.6439 228.463 36.8337 227.688 36.1183C227.227 35.6886 226.626 36.1278 226.509 36.6837C226.298 37.6546 226.177 38.6459 226.148 39.6418C226.131 40.4028 226.292 41.2212 226.299 41.9884C225.265 42.3732 223.956 42.3892 222.932 42.5025C222.246 42.5801 222.12 43.5407 222.579 43.9782C223.343 44.6991 224.129 45.385 224.938 46.0362L222.866 48.1594C222.737 48.2709 222.644 48.4262 222.602 48.601C222.559 48.7759 222.57 48.9606 222.632 49.1266C222.694 49.2925 222.805 49.4305 222.945 49.5191C223.086 49.6077 223.25 49.642 223.412 49.6167C224.427 49.555 225.444 49.5008 226.463 49.454C227.416 49.4098 227.22 47.7844 226.278 47.8269C225.95 47.8411 225.623 47.8725 225.301 47.8798L226.56 46.5915C226.65 46.5133 226.723 46.4133 226.774 46.2992C226.824 46.1851 226.85 46.06 226.849 45.9337C226.849 45.8074 226.822 45.6833 226.771 45.571C226.72 45.4587 226.646 45.3614 226.555 45.2865C225.97 44.8427 225.4 44.3782 224.84 43.8973C225.252 43.8279 225.665 43.7559 226.072 43.6675C226.629 43.5534 227.424 43.5054 227.704 42.8538C228.007 42.1503 227.633 41.0436 227.615 40.3188C227.606 39.6808 227.641 39.0425 227.721 38.4094C228.298 39.0819 228.811 39.8195 229.252 40.6104C229.571 41.1783 230.302 40.9036 230.524 40.4015C231.066 39.1779 231.751 38.0378 232.561 37.0112C232.148 38.1249 231.843 39.283 231.652 40.4656C231.638 40.5901 231.649 40.7162 231.685 40.8343C231.722 40.9524 231.782 41.0594 231.862 41.147C231.942 41.2347 232.039 41.3006 232.146 41.3399C232.253 41.3791 232.367 41.3906 232.479 41.3734C232.964 41.3136 233.444 41.2435 233.925 41.1682C233.525 41.4794 233.145 41.8215 232.788 42.192C232.4 42.5979 232.389 43.3728 232.961 43.6003C233.946 43.9896 234.948 44.3218 235.965 44.5956L233.571 46.1587C233.149 46.433 233.228 47.189 233.576 47.4637C233.856 47.6865 234.147 47.8917 234.448 48.0784L231.954 50.027C231.421 50.4422 231.689 51.4138 232.31 51.4858C233.733 51.6513 235.152 51.8486 236.569 52.0775C237.513 52.2296 237.703 50.6005 236.759 50.4485C235.979 50.32 235.195 50.2072 234.414 50.1012L236.36 48.5797C236.463 48.4903 236.544 48.3725 236.593 48.2382C236.643 48.1039 236.66 47.958 236.642 47.8151C236.625 47.6722 236.573 47.5374 236.493 47.4244C236.413 47.3114 236.308 47.2241 236.187 47.1715C235.938 47.0643 235.695 46.9427 235.458 46.807L238.404 44.8764C239.009 44.4822 238.602 43.5284 238.048 43.4177C236.927 43.1942 235.819 42.8955 234.732 42.5231C235.773 41.6919 236.929 41.0253 238.023 40.3214C238.058 40.2978 238.092 40.2715 238.123 40.2429C238.969 39.9356 238.778 38.3993 237.873 38.6408C236.368 39.0443 234.846 39.3614 233.313 39.5906C233.747 37.7544 234.555 35.9534 235.178 34.2048C235.229 34.0404 235.232 33.863 235.186 33.698C235.141 33.533 235.049 33.3888 234.924 33.2861C234.8 33.1833 234.648 33.1274 234.492 33.1262C234.336 33.1249 234.183 33.1785 234.055 33.2793V33.2793Z" fill="#FBB03B"/>
<path d="M238.409 54.2768L238.373 54.2998L237.056 55.407C237.01 55.4452 236.968 55.4888 236.932 55.5372C236.435 55.8642 235.932 56.1945 235.472 56.5689C235.012 56.9433 234.705 57.3581 234.764 58.0013C234.838 58.7009 235.319 59.4205 235.599 60.0455L236.741 62.5873C236.803 62.7142 236.894 62.8223 237.005 62.9015C237.115 62.9806 237.243 63.0283 237.375 63.0402C237.507 63.052 237.64 63.0275 237.76 62.969C237.881 62.9105 237.985 62.8199 238.064 62.7056C238.185 62.6932 238.301 62.6501 238.402 62.5797C239.472 61.8477 240.578 61.1798 241.716 60.579C242.049 60.4036 242.314 59.9371 242.114 59.532L239.638 54.508C239.579 54.3951 239.498 54.2976 239.4 54.2227C239.302 54.1479 239.19 54.0975 239.072 54.0753C238.954 54.0531 238.834 54.0597 238.719 54.0946C238.604 54.1294 238.498 54.1917 238.409 54.2768V54.2768ZM240.423 59.5066C239.505 60.0188 238.609 60.5694 237.736 61.1583C237.351 60.3076 236.967 59.4544 236.584 58.5987C236.535 58.4908 236.244 58.0268 236.276 57.924C236.308 57.8212 236.744 57.5975 236.841 57.5299L238.523 56.36C238.615 56.2975 238.692 56.2132 238.748 56.1136L240.423 59.5066Z" fill="#1E1E1E"/>
<path d="M235.331 33.3962C232.435 32.2756 229.074 33.9867 226.682 35.8624C224.25 37.7761 222.169 40.5295 221.475 43.8174C220.765 47.1701 221.708 50.9183 224.203 52.928C224.336 53.0355 224.496 53.0911 224.661 53.0863C224.826 53.0816 224.987 53.0169 225.119 52.9018L227.966 50.4339C228.094 50.3182 228.187 50.1597 228.231 49.9819C228.274 49.8042 228.266 49.6168 228.207 49.4475C227.463 47.6172 227.009 45.2482 228.046 43.385C228.849 41.9462 230.773 40.9493 232.071 42.0713C233.863 43.6215 232.973 46.4894 231.782 48.1719C231.265 48.9054 230.667 49.6498 230.689 50.6376C230.683 51.0259 230.781 51.4045 230.97 51.7244C231.159 52.0443 231.43 52.2909 231.748 52.4323C231.778 52.5035 231.815 52.5699 231.86 52.6299L233.147 54.3183C233.224 55.2295 234.122 55.6908 234.868 55.3954C235.358 55.1985 235.71 54.7681 236.107 54.4042C236.682 53.8814 237.305 53.4313 237.966 53.0622C238.071 53.0091 238.164 52.9305 238.239 52.8321C238.314 52.7337 238.369 52.6181 238.399 52.4938C238.429 52.3696 238.435 52.2399 238.415 52.1144C238.394 51.9888 238.349 51.8707 238.283 51.7687L236.766 49.2241C237.757 48.2375 238.54 47.0155 239.057 45.6507C239.574 44.2859 239.811 42.814 239.75 41.3462C239.618 38.2735 238.067 34.4545 235.331 33.3962ZM237.836 39.0858C238.371 40.7368 238.403 42.5524 237.93 44.2533C237.457 45.9541 236.504 47.446 235.217 48.4994C234.686 48.9279 234.922 49.657 235.37 49.8977C235.392 49.9532 235.418 50.0062 235.448 50.056L236.609 52.0123C236.303 52.2127 236.003 52.4245 235.715 52.6582C235.426 52.8918 235.199 53.0954 234.954 53.3306C234.851 53.4301 234.749 53.5306 234.648 53.631L234.612 53.6469L233.034 51.5882C232.988 51.5289 232.936 51.4767 232.878 51.4329C232.857 51.3038 232.802 51.1855 232.721 51.0928C232.64 51.0002 232.535 50.9375 232.421 50.9126C231.662 50.6857 232.741 49.4499 232.947 49.1561C233.3 48.6633 233.608 48.133 233.868 47.5731C234.396 46.4728 234.628 45.2298 234.535 43.9987C234.326 41.7504 232.779 39.8441 230.691 39.9188C229.796 39.9738 228.925 40.3078 228.178 40.8835C227.43 41.4592 226.835 42.2538 226.459 43.1786C225.627 45.2214 225.877 47.523 226.584 49.5218L224.676 51.1866C222.675 49.1939 222.274 45.7798 223.255 42.9666C224.415 39.6433 227.157 37.0278 230.018 35.6329C231.486 34.9186 233.365 34.3575 234.9 35.0208C236.385 35.6625 237.335 37.4726 237.836 39.0858Z" fill="#1E1E1E"/>
<path d="M102.526 57.4582L101.264 53.5787C100.96 52.6431 99.5748 53.1205 99.8822 54.0648L100.486 55.9258L99.2057 55.1267C99.1824 55.1142 99.1585 55.1032 99.134 55.0936C99.0172 54.9969 98.8719 54.9499 98.7218 54.9603C98.3711 54.9805 97.9565 55.3798 97.9995 55.7983C98.0754 56.6652 98.1914 57.5242 98.347 58.3718C98.5339 59.3618 99.9156 58.872 99.7292 57.8857C99.6912 57.6806 99.6598 57.4739 99.6283 57.2672L101.465 58.4139C101.956 58.7134 102.738 58.1093 102.526 57.4582Z" fill="white"/>
<path d="M119.11 42.5712C117.362 41.4267 115.415 40.689 113.392 40.4046C113.873 39.4895 114.258 38.5183 114.539 37.5093C114.71 36.9076 114.143 36.4933 113.66 36.5863C112.816 36.7433 111.989 36.9951 111.193 37.3379C110.584 37.6016 109.998 38.0584 109.393 38.3528C108.712 37.5007 108.22 36.2499 107.755 35.3096C107.444 34.6784 106.638 34.9138 106.462 35.5149C106.168 36.5161 105.914 37.5261 105.7 38.5449L103.267 37.3408C103.131 37.2599 102.975 37.2298 102.822 37.2553C102.669 37.2807 102.528 37.3603 102.421 37.4818C102.314 37.6032 102.246 37.7598 102.228 37.9275C102.21 38.0951 102.243 38.2645 102.322 38.4095C102.746 39.3636 103.162 40.3205 103.571 41.2802C103.953 42.1808 105.165 41.39 104.787 40.4979C104.656 40.191 104.519 39.889 104.387 39.5843L105.864 40.3161C105.958 40.3731 106.063 40.4057 106.171 40.4115C106.278 40.4173 106.386 40.396 106.485 40.3493C106.584 40.3027 106.672 40.2319 106.742 40.1423C106.812 40.0528 106.862 39.947 106.889 39.8329C107.027 39.105 107.185 38.3857 107.37 37.6794C107.575 38.0501 107.783 38.4144 108.007 38.7682C108.299 39.2497 108.63 40.0042 109.245 40.033C109.912 40.0636 110.649 39.2939 111.217 39.0092C111.717 38.7634 112.234 38.5606 112.764 38.4027C112.442 39.2063 112.048 39.9724 111.585 40.6892C111.261 41.2124 111.743 41.809 112.217 41.8327C113.381 41.9004 114.532 42.1353 115.64 42.5314C114.609 42.5495 113.583 42.6861 112.579 42.9389C112.475 42.9708 112.379 43.0283 112.299 43.1071C112.218 43.1858 112.155 43.2837 112.115 43.3932C112.075 43.5026 112.058 43.6207 112.066 43.7383C112.075 43.856 112.107 43.97 112.162 44.0715C112.387 44.5119 112.618 44.9492 112.854 45.3834C112.46 45.1141 112.048 44.8757 111.622 44.6702C111.159 44.4502 110.544 44.7246 110.572 45.3582C110.626 46.4483 110.732 47.5347 110.888 48.613L108.777 46.8934C108.4 46.585 107.84 46.9458 107.75 47.3752C107.678 47.7265 107.623 48.0818 107.585 48.4396L105.133 46.7663C104.611 46.4093 103.942 47.0278 104.111 47.6481C104.502 49.0751 104.866 50.5118 105.204 51.9583C105.429 52.9199 106.783 52.5022 106.56 51.5363C106.375 50.7401 106.178 49.9481 105.976 49.1554L107.89 50.4601C107.998 50.5259 108.121 50.5594 108.244 50.5572C108.368 50.555 108.49 50.5173 108.596 50.4477C108.702 50.3782 108.79 50.2794 108.85 50.1611C108.91 50.0429 108.941 49.9094 108.938 49.7742C108.932 49.4953 108.939 49.2162 108.959 48.938L111.563 51.0578C112.096 51.494 112.701 50.7505 112.585 50.1761C112.351 49.017 112.183 47.8434 112.081 46.6618C113.116 47.3502 114.059 48.2153 115.022 49.0151C115.053 49.0422 115.085 49.0662 115.12 49.0869C115.665 49.7978 116.816 49.0329 116.293 48.2544C115.424 46.9589 114.617 45.6151 113.875 44.2283C115.485 43.9653 117.201 44.0716 118.799 44.0234C118.956 44.0196 119.107 43.9592 119.228 43.8516C119.35 43.744 119.435 43.5953 119.471 43.4289C119.506 43.2626 119.49 43.088 119.425 42.9327C119.36 42.7775 119.249 42.6503 119.11 42.5712V42.5712Z" fill="white"/>
<path d="M104.204 54.7479L104.171 54.7236L102.78 53.8727C102.731 53.8432 102.68 53.8188 102.627 53.7996C102.174 53.4475 101.718 53.0904 101.246 52.7818C100.774 52.4731 100.318 52.3264 99.8183 52.6322C99.2848 52.9521 98.896 53.6674 98.4932 54.1498C97.9598 54.8117 97.4241 55.474 96.8864 56.1367C96.8067 56.2401 96.753 56.3644 96.7306 56.4979C96.7082 56.6313 96.7177 56.7694 96.7582 56.8992C96.7987 57.029 96.8689 57.1462 96.9622 57.2398C97.0554 57.3333 97.1687 57.4001 97.2912 57.4338C97.3468 57.5427 97.4251 57.6364 97.5197 57.7074C98.5167 58.4565 99.4759 59.2637 100.393 60.1254C100.661 60.3767 101.137 60.4597 101.384 60.1278L104.48 55.9981C104.55 55.9027 104.598 55.7911 104.622 55.6716C104.646 55.5521 104.645 55.4276 104.619 55.3075C104.592 55.1875 104.541 55.0748 104.469 54.9779C104.398 54.881 104.307 54.8024 104.204 54.7479V54.7479ZM100.777 58.5157C100.016 57.8294 99.2326 57.1785 98.4248 56.5633L100.043 54.5634C100.113 54.4769 100.367 54.0385 100.471 54.0341C100.576 54.0297 100.911 54.3581 101.002 54.4252L102.587 55.593C102.672 55.6577 102.768 55.7011 102.87 55.7199L100.777 58.5157Z" fill="#1E1E1E"/>
<path d="M119.744 43.7242C119.539 40.4456 116.894 37.754 114.487 36.0746C112.04 34.3786 109.051 33.3441 106.156 33.8694C103.211 34.4121 100.584 36.7365 99.9275 39.9535C99.8913 40.1227 99.9066 40.3009 99.9711 40.4618C100.036 40.6227 100.146 40.7577 100.286 40.8467L103.338 42.7371C103.479 42.8214 103.641 42.8545 103.799 42.8316C103.957 42.8086 104.103 42.7309 104.216 42.6099C105.388 41.1894 107.11 39.8648 108.989 40.1987C110.442 40.4574 111.967 41.9904 111.566 43.693C111.002 46.0304 108.385 46.2233 106.593 45.6733C105.812 45.4347 104.989 45.1212 104.217 45.496C103.903 45.635 103.637 45.874 103.454 46.1817C103.27 46.4894 103.178 46.8515 103.188 47.2208C103.142 47.2757 103.104 47.3376 103.074 47.4045C102.793 48.0364 102.508 48.6723 102.217 49.3124C101.524 49.7263 101.496 50.788 102.015 51.4161C102.35 51.8237 102.822 52.0109 103.273 52.2741C103.908 52.6488 104.504 53.0985 105.05 53.6147C105.132 53.6987 105.23 53.7618 105.337 53.7995C105.444 53.8372 105.557 53.8484 105.668 53.8323C105.779 53.8163 105.884 53.7733 105.977 53.7067C106.069 53.64 106.146 53.5514 106.202 53.4474L107.657 51.0012C108.819 51.6157 110.091 51.9371 111.376 51.9409C112.661 51.9447 113.924 51.6308 115.07 51.0231C117.49 49.7795 119.945 46.8274 119.744 43.7242ZM116.16 48.3208C115.047 49.4606 113.613 50.1667 112.079 50.3309C110.545 50.4951 108.994 50.1082 107.665 49.2297C107.122 48.8639 106.631 49.3676 106.609 49.902C106.575 49.9449 106.546 49.992 106.522 50.0425L105.405 51.9193C105.127 51.6894 104.843 51.4739 104.542 51.2829C104.24 51.0919 103.997 50.9382 103.717 50.7824L103.361 50.5927L103.329 50.5689C103.677 49.7931 104.027 49.0187 104.374 48.2428C104.404 48.1757 104.425 48.1047 104.438 48.0313C104.533 47.9628 104.607 47.8647 104.65 47.7496C104.693 47.6344 104.703 47.5075 104.679 47.3848C104.573 46.5486 105.968 47.1578 106.278 47.2544C106.807 47.4198 107.348 47.5279 107.895 47.5768C108.969 47.6867 110.043 47.4549 110.987 46.9098C112.701 45.8667 113.631 43.6282 112.789 41.5923C112.06 39.8311 110.328 38.6746 108.582 38.6149C106.645 38.5501 104.896 39.6589 103.569 41.0951L101.517 39.8251C102.344 37.1056 104.914 35.4401 107.533 35.3659C110.622 35.2787 113.751 37.0212 115.95 39.3331C117.078 40.5201 118.239 42.1718 118.293 43.9362C118.343 45.6125 117.259 47.2236 116.165 48.3216L116.16 48.3208Z" fill="#1E1E1E"/>
<path d="M271.167 46.3029L269.901 42.4084C269.595 41.4692 268.205 41.9484 268.513 42.8964L269.119 44.7646L267.834 43.9624C267.811 43.9499 267.787 43.9388 267.762 43.9291C267.645 43.8321 267.499 43.7849 267.349 43.7953C266.997 43.8157 266.58 44.2165 266.623 44.6365C266.7 45.5068 266.816 46.3691 266.972 47.2201C267.16 48.2139 268.547 47.7222 268.36 46.732C268.322 46.5262 268.29 46.3187 268.259 46.1112L270.102 47.2623C270.595 47.563 271.38 46.9566 271.167 46.3029Z" fill="white"/>
<path d="M287.815 31.3591C286.059 30.2102 284.105 29.4698 282.075 29.1843C282.557 28.2658 282.943 27.291 283.226 26.2781C283.397 25.6741 282.829 25.2583 282.344 25.3516C281.497 25.5092 280.666 25.762 279.867 26.106C279.256 26.3708 278.668 26.8293 278.06 27.1248C277.376 26.2695 276.883 25.014 276.416 24.0701C276.104 23.4365 275.295 23.6729 275.118 24.2762C274.823 25.2812 274.568 26.295 274.353 27.3176L271.911 26.109C271.775 26.0277 271.618 25.9976 271.465 26.0231C271.311 26.0487 271.17 26.1286 271.062 26.2505C270.954 26.3724 270.886 26.5296 270.868 26.6978C270.85 26.8661 270.884 27.0361 270.963 27.1817C271.388 28.1394 271.806 29.0999 272.216 30.0632C272.6 30.9672 273.817 30.1734 273.437 29.2779C273.305 28.9699 273.168 28.6668 273.036 28.3609L274.518 29.0955C274.612 29.1527 274.718 29.1855 274.826 29.1912C274.934 29.197 275.042 29.1757 275.141 29.1289C275.241 29.082 275.329 29.0109 275.399 28.9211C275.469 28.8312 275.52 28.725 275.547 28.6105C275.685 27.8798 275.844 27.1578 276.03 26.4488C276.235 26.8209 276.445 27.1866 276.669 27.5417C276.962 28.0251 277.294 28.7824 277.911 28.8113C278.582 28.842 279.321 28.0694 279.891 27.7837C280.393 27.5369 280.913 27.3334 281.444 27.1749C281.121 27.9815 280.725 28.7505 280.261 29.4699C279.936 29.9951 280.42 30.594 280.895 30.6178C282.063 30.6857 283.219 30.9215 284.331 31.3191C283.297 31.3372 282.267 31.4744 281.259 31.7282C281.154 31.7602 281.058 31.8179 280.977 31.897C280.896 31.976 280.833 32.0743 280.793 32.1842C280.752 32.294 280.736 32.4125 280.744 32.5306C280.752 32.6487 280.785 32.7631 280.84 32.8651C281.066 33.3071 281.298 33.746 281.535 34.1819C281.139 33.9115 280.725 33.6723 280.298 33.466C279.833 33.2452 279.216 33.5206 279.244 34.1566C279.298 35.2508 279.404 36.3413 279.561 37.4236L277.442 35.6976C277.064 35.388 276.501 35.7502 276.411 36.1811C276.338 36.5338 276.283 36.8905 276.246 37.2496L273.785 35.57C273.26 35.2116 272.589 35.8325 272.759 36.4551C273.151 37.8874 273.516 39.3296 273.856 40.7816C274.082 41.7468 275.44 41.3275 275.217 40.358C275.031 39.5588 274.833 38.7638 274.631 37.968L276.552 39.2777C276.66 39.3437 276.783 39.3773 276.907 39.3751C277.032 39.373 277.154 39.3351 277.26 39.2653C277.367 39.1955 277.455 39.0963 277.515 38.9776C277.576 38.8589 277.606 38.7249 277.604 38.5892C277.598 38.3092 277.605 38.0291 277.625 37.7499L280.239 39.8777C280.774 40.3155 281.381 39.5692 281.265 38.9926C281.03 37.8291 280.861 36.6511 280.758 35.4651C281.797 36.1561 282.744 37.0245 283.711 37.8272C283.742 37.8544 283.774 37.8785 283.809 37.8993C284.356 38.6129 285.511 37.8451 284.986 37.0637C284.114 35.7633 283.304 34.4144 282.56 33.0224C284.175 32.7584 285.898 32.8651 287.503 32.8167C287.66 32.813 287.811 32.7523 287.933 32.6443C288.055 32.5362 288.141 32.387 288.176 32.22C288.212 32.053 288.196 31.8778 288.131 31.722C288.065 31.5661 287.954 31.4385 287.815 31.3591V31.3591Z" fill="white"/>
<path d="M272.851 43.582L272.818 43.5576L271.421 42.7035C271.373 42.674 271.321 42.6494 271.269 42.6302C270.813 42.2767 270.356 41.9183 269.882 41.6085C269.408 41.2987 268.95 41.1514 268.449 41.4584C267.913 41.7795 267.523 42.4975 267.119 42.9817C266.583 43.6461 266.046 44.3108 265.506 44.976C265.426 45.0799 265.372 45.2047 265.349 45.3386C265.327 45.4725 265.337 45.6112 265.377 45.7415C265.418 45.8718 265.488 45.9894 265.582 46.0833C265.676 46.1772 265.789 46.2442 265.912 46.278C265.968 46.3874 266.047 46.4815 266.142 46.5527C267.142 47.3046 268.105 48.1149 269.026 48.9798C269.294 49.2321 269.772 49.3154 270.021 48.9822L273.128 44.8369C273.198 44.7412 273.247 44.6292 273.271 44.5092C273.295 44.3892 273.294 44.2643 273.267 44.1438C273.241 44.0233 273.19 43.9102 273.118 43.8129C273.046 43.7157 272.955 43.6368 272.851 43.582V43.582ZM269.411 47.3641C268.648 46.6751 267.861 46.0218 267.05 45.4043L268.674 43.3968C268.745 43.31 269 42.8699 269.104 42.8655C269.209 42.8611 269.546 43.1908 269.637 43.2582L271.228 44.4303C271.313 44.4953 271.41 44.5388 271.512 44.5577L269.411 47.3641Z" fill="#1E1E1E"/>
<path d="M288.45 32.5148C288.244 29.2238 285.589 26.5221 283.173 24.8363C280.717 23.1339 277.717 22.0954 274.811 22.6227C271.855 23.1675 269.217 25.5007 268.559 28.7298C268.522 28.8996 268.538 29.0786 268.602 29.2401C268.667 29.4016 268.778 29.5371 268.918 29.6265L271.982 31.524C272.124 31.6086 272.286 31.6418 272.445 31.6188C272.604 31.5958 272.75 31.5178 272.863 31.3963C274.04 29.9704 275.768 28.6408 277.655 28.9759C279.113 29.2356 280.644 30.7745 280.242 32.4835C279.675 34.8298 277.048 35.0234 275.249 34.4713C274.465 34.2318 273.64 33.9171 272.864 34.2934C272.55 34.4329 272.283 34.6728 272.099 34.9816C271.914 35.2904 271.821 35.6539 271.832 36.0246C271.786 36.0798 271.747 36.1419 271.718 36.209C271.435 36.8433 271.149 37.4817 270.857 38.1241C270.161 38.5396 270.133 39.6054 270.654 40.2358C270.991 40.645 271.464 40.8329 271.917 41.0971C272.555 41.4732 273.153 41.9246 273.7 42.4428C273.783 42.527 273.882 42.5905 273.989 42.6283C274.096 42.6661 274.21 42.6773 274.321 42.6612C274.432 42.6451 274.538 42.602 274.631 42.5351C274.724 42.4682 274.801 42.3792 274.857 42.2748L276.317 39.8193C277.484 40.4362 278.761 40.7588 280.051 40.7626C281.34 40.7665 282.608 40.4514 283.759 39.8413C286.188 38.593 288.652 35.6297 288.45 32.5148ZM284.853 37.1288C283.735 38.2729 282.297 38.9817 280.756 39.1465C279.216 39.3113 277.66 38.923 276.326 38.0412C275.78 37.674 275.288 38.1796 275.266 38.716C275.231 38.7591 275.202 38.8064 275.178 38.857L274.057 40.741C273.778 40.5102 273.493 40.2939 273.19 40.1021C272.887 39.9104 272.643 39.7561 272.363 39.5998L272.006 39.4093L271.973 39.3855C272.322 38.6067 272.673 37.8293 273.022 37.0505C273.052 36.9832 273.073 36.9119 273.086 36.8383C273.182 36.7695 273.256 36.671 273.299 36.5555C273.342 36.4399 273.352 36.3124 273.328 36.1892C273.222 35.3499 274.622 35.9614 274.934 36.0583C275.464 36.2245 276.008 36.3329 276.556 36.382C277.634 36.4924 278.713 36.2597 279.66 35.7125C281.381 34.6654 282.314 32.4185 281.469 30.3749C280.737 28.607 278.999 27.4461 277.246 27.3862C275.302 27.3211 273.546 28.4341 272.214 29.8758L270.154 28.601C270.985 25.8712 273.564 24.1994 276.194 24.1249C279.294 24.0374 282.435 25.7864 284.641 28.1071C285.774 29.2986 286.94 30.9566 286.994 32.7276C287.044 34.4103 285.956 36.0275 284.858 37.1296L284.853 37.1288Z" fill="#1E1E1E"/>
<path d="M150.159 53.1338C150.336 53.0877 150.499 52.9948 150.632 52.8638C150.641 52.8545 150.649 52.8446 150.657 52.8341C150.882 52.768 151.1 52.6775 151.307 52.5642C152.975 51.6815 154.29 52.3698 154.31 54.1434C154.31 55.2636 154.567 56.3029 154.716 57.3989C154.922 58.9835 154.349 59.6827 152.8 59.6341C152.298 59.6335 151.797 59.5865 151.302 59.4937C150.585 59.3317 150.311 59.7339 150.144 60.3467C150.027 59.8388 149.946 59.3228 149.9 58.8026C149.853 56.94 149.815 55.0747 149.769 53.2121C149.902 53.2122 150.035 53.1857 150.159 53.1338V53.1338Z" fill="#FBB03B"/>
<path d="M156.357 53.6214C156.767 52.9945 157.376 52.8887 157.99 52.8622C158.422 52.8437 158.757 53.4415 158.722 53.9203C158.707 54.1554 158.617 54.3738 158.472 54.5286C158.506 54.7132 158.506 54.9049 158.472 55.0894C158.46 55.335 158.488 55.581 158.552 55.8142C158.604 56.1421 158.658 56.4701 158.716 56.7955C158.811 57.3647 158.932 57.9271 159.077 58.4804C159.247 59.1152 159.567 59.7077 159.701 60.3531C159.747 60.5523 159.757 60.7615 159.73 60.9658C159.703 61.1702 159.639 61.3647 159.543 61.5355C159.327 61.8873 159.003 62.0142 158.679 62.1253C158.135 62.3158 157.551 62.5961 157.035 62.1491C156.519 61.7021 156.549 60.771 156.46 60.1071C156.239 58.7094 156.09 57.2958 156.015 55.875C155.992 55.1635 155.968 54.2165 156.357 53.6214Z" fill="#FBB03B"/>
<path d="M150.79 61.9803C150.79 61.9417 150.759 61.9091 150.757 61.8705C150.696 61.3159 150.969 60.6544 151.455 60.5862C152.058 60.5002 152.668 60.3726 153.276 60.3489C153.465 60.3394 153.654 60.3846 153.828 60.4812C154.003 60.5777 154.157 60.7231 154.281 60.9065C154.462 61.2072 154.555 61.5783 154.544 61.9565C154.544 62.0544 154.544 62.1523 154.544 62.2532C154.567 62.4375 154.599 62.6198 154.64 62.7989C154.711 63.0973 154.75 63.4066 154.756 63.7184C154.751 64.0975 154.663 64.4672 154.502 64.7859C154.34 65.1045 154.112 65.3594 153.844 65.5219C153.356 65.7917 152.814 65.8612 152.293 65.7206C151.826 65.66 151.381 65.4328 151.011 65.0651C150.785 64.8294 150.612 64.5226 150.508 64.1752C150.404 63.8337 150.369 63.4647 150.405 63.1015C150.456 62.6918 150.588 62.3057 150.79 61.9803V61.9803Z" fill="#FBB03B"/>
<path d="M155.785 67.2797C155.957 67.0331 156.312 66.7997 156.41 66.5244C156.41 66.5113 156.41 66.5244 156.41 66.5244C156.409 66.5183 156.409 66.5121 156.41 66.506C156.424 66.4011 156.326 66.2647 156.302 66.152C156.266 66.0146 156.251 65.8721 156.258 65.7297C156.294 65.1265 156.674 64.7804 157.137 64.5129C157.923 64.0591 158.716 63.6133 159.505 63.1649C159.725 63.0532 159.977 63.0394 160.206 63.1264C160.436 63.2133 160.624 63.3941 160.729 63.629C160.782 63.7449 160.811 63.8711 160.816 63.9997C160.82 64.1284 160.8 64.2567 160.756 64.3765C160.906 64.4646 161.028 64.5972 161.108 64.7583C161.189 64.9193 161.224 65.1019 161.209 65.2839C161.17 65.9317 161.454 66.5401 161.699 67.1197C162.013 67.8214 162.196 68.5823 162.238 69.3594C162.247 69.7477 162.182 70.134 162.047 70.4947C161.913 70.8554 161.711 71.183 161.454 71.4574C160.947 71.9819 160.244 72.1524 159.578 72.2993C158.858 72.4592 157.987 72.711 157.257 72.5379C156.459 72.3491 156.174 71.4889 155.903 70.7598C155.631 70.0307 155.31 69.1863 155.393 68.3628C155.432 67.971 155.567 67.5972 155.785 67.2797V67.2797Z" fill="#FBB03B"/>
<path d="M151.688 67.9534C151.78 67.6959 151.945 67.4836 152.155 67.3521C152.433 67.1836 152.747 67.1194 153.057 67.1683C153.366 67.2171 153.656 67.3766 153.885 67.6252C154.135 67.8946 154.304 68.2526 154.365 68.6448C154.399 68.8926 154.413 69.1435 154.407 69.3943C154.438 69.9113 154.521 70.4222 154.654 70.9165L154.676 70.9891C154.757 71.2088 154.777 71.4523 154.736 71.6863C154.698 71.9147 154.593 72.1203 154.439 72.2673C154.219 72.4594 153.956 72.5733 153.683 72.5956C153.404 72.6049 153.129 72.5159 152.894 72.3399C152.698 72.1774 152.563 71.9315 152.519 71.6544C152.478 71.3683 152.533 71.0746 152.672 70.8351C152.689 70.809 152.714 70.7945 152.731 70.7683C152.711 70.6667 152.687 70.565 152.672 70.4633C152.625 70.1084 152.598 69.7504 152.59 69.3914C152.472 69.3957 152.354 69.3751 152.242 69.3304C152.018 69.2294 151.836 69.0319 151.733 68.7784C151.626 68.5211 151.61 68.2246 151.688 67.9534V67.9534Z" fill="#FBB03B"/>
<path d="M153.34 75.7765C153.558 77.3919 153.952 78.9721 154.514 80.4823C154.635 80.8407 154.851 81.1505 155.133 81.3719C155.176 81.3979 155.22 81.4214 155.264 81.4422H157.933C158.102 81.4214 158.268 81.4136 158.437 81.3928C159.169 81.2939 159.972 81.1326 160.272 80.2716C160.528 79.5198 160.214 78.7343 160.01 78.0189C159.805 77.3035 159.606 76.5804 159.399 75.8624C159.193 75.1445 158.871 74.4369 158.17 74.1898C157.799 74.09 157.418 74.042 157.036 74.0467C156.683 74.0242 156.326 74.0059 155.966 73.9921C155.253 73.9643 154.539 73.953 153.826 73.9582C153.598 73.9434 153.373 74.0264 153.198 74.19C153.023 74.3537 152.912 74.5854 152.887 74.8375C152.879 75.0247 152.917 75.2108 152.997 75.3761C153.077 75.5414 153.195 75.6797 153.34 75.7765Z" fill="#FBB03B"/>
<path d="M162.417 74.2294C162.82 74.0128 163.269 73.9224 163.714 73.9681C163.918 73.9899 164.108 74.0918 164.251 74.2555C164.394 74.4192 164.479 74.6341 164.493 74.8618C164.522 74.8989 164.548 74.9382 164.573 74.9794C164.573 74.9977 164.573 74.9977 164.573 75.0056L164.633 75.0657L164.709 75.0996C164.587 75.0735 164.596 75.0761 164.739 75.0996L164.889 75.1388C164.998 75.1694 165.101 75.2217 165.194 75.293C165.37 75.4185 165.514 75.5933 165.611 75.8C165.724 76.0836 165.81 76.3797 165.867 76.6833V76.6833C165.871 76.6976 165.876 76.7115 165.881 76.7251C165.898 76.78 165.916 76.8348 165.935 76.8923C165.98 77.0282 166.029 77.1537 166.08 77.3C166.174 77.5457 166.28 77.7835 166.392 78.0161C166.449 78.1337 166.51 78.2486 166.571 78.361C166.571 78.3793 166.615 78.442 166.625 78.4629C166.634 78.4838 166.664 78.5282 166.686 78.5622C166.969 79.0246 167.291 79.456 167.647 79.8506C167.77 80.0155 167.842 80.2209 167.85 80.4354C167.858 80.6498 167.802 80.8612 167.692 81.037C167.578 81.2082 167.418 81.3344 167.235 81.3974C167.053 81.4604 166.857 81.4568 166.676 81.3872C165.874 81.0346 165.119 80.5635 164.429 79.9864C163.761 79.4594 163.138 78.8645 162.567 78.2094C162.266 77.8798 162.027 77.4865 161.863 77.0526C161.7 76.6188 161.615 76.1529 161.615 75.6824C161.628 75.3843 161.708 75.0946 161.848 74.8405C161.988 74.5863 162.184 74.3761 162.417 74.2294V74.2294Z" fill="#FBB03B"/>
<path d="M165.356 81.4427C164.93 81.1991 164.465 81.0098 163.977 80.8804C162.75 80.582 161.478 80.8804 160.368 81.4427H165.356Z" fill="#FBB03B"/>
<path d="M147.819 57.0952C148.154 60.511 148.786 63.8848 149.708 67.1717C149.792 67.4113 149.788 67.6765 149.698 67.9136C149.608 68.1506 149.438 68.3416 149.223 68.4476C148.806 68.6314 148.187 68.424 148.044 67.9226C147.068 64.4704 146.395 60.926 146.034 57.3368C145.905 56.0792 147.695 55.8376 147.819 57.0952Z" fill="#1E1E1E"/>
<path d="M153.581 48.7227L153.796 47.3724C153.873 46.8629 153.952 46.3535 154.03 45.8441C154.096 45.4031 154.141 44.9457 154.244 44.5129C154.304 44.19 154.444 43.9006 154.644 43.6881C154.843 43.4757 155.092 43.3519 155.351 43.3352C155.733 43.3288 156.115 43.3471 156.495 43.39C156.705 43.3942 156.906 43.503 157.055 43.6933C157.203 43.8835 157.288 44.1402 157.291 44.4089C157.286 44.445 157.28 44.4807 157.271 44.5157C157.414 44.7024 157.52 44.9309 157.578 45.1812C157.661 45.6254 157.719 46.0767 157.75 46.5315C157.793 46.9561 157.825 47.3806 157.844 47.8079C157.864 48.2351 157.87 48.6624 157.866 49.0897C157.889 49.5978 157.862 50.1077 157.784 50.607C157.52 51.7711 156.362 51.5054 155.639 51.3904C154.886 51.2671 153.794 51.1795 153.558 50.0428C153.486 49.6063 153.494 49.1546 153.581 48.7227V48.7227Z" fill="#FBB03B"/>
<path d="M154.213 29.7889C154.276 29.572 154.358 29.3617 154.456 29.1606C154.585 28.9073 154.774 28.6958 155.004 28.548C155.325 28.3605 155.701 28.3136 156.054 28.4171C156.282 28.4899 156.498 28.6041 156.691 28.7548C156.841 28.853 156.967 28.9875 157.06 29.1475C157.145 29.3124 157.194 29.4959 157.203 29.6842C157.205 29.8569 157.169 30.0277 157.096 30.1816C157.09 30.2058 157.084 30.2302 157.079 30.255C157.077 30.2959 157.077 30.337 157.079 30.378C157.111 30.5351 157.145 30.6921 157.186 30.8492C157.217 30.9775 157.23 31.1096 157.227 31.2419C157.336 31.7943 157.067 32.4462 156.393 32.4462C156.26 32.4481 156.127 32.4186 156.005 32.3598H155.979C155.809 32.3628 155.641 32.3362 155.479 32.2813C155.129 32.1628 154.837 31.8991 154.667 31.5483C154.667 31.5247 154.667 31.5037 154.645 31.4828C154.623 31.4619 154.626 31.4828 154.618 31.4645C154.418 31.2749 154.269 31.0295 154.189 30.755C154.189 30.721 154.175 30.6869 154.167 30.6503C154.145 30.5349 154.134 30.4173 154.133 30.2995C154.141 30.1264 154.168 29.955 154.213 29.7889V29.7889Z" fill="#FBB03B"/>
<path d="M142.531 34.0259C142.624 34.1864 142.761 34.315 142.925 34.3955C143.089 34.476 143.273 34.5048 143.453 34.4782C143.666 34.4487 143.862 34.3417 144.004 34.1766C144.201 34.1717 144.397 34.1434 144.588 34.0923C144.895 34.0064 145.173 33.8348 145.391 33.5966C145.481 33.4871 145.556 33.366 145.615 33.2363C145.814 33.2645 146.016 33.2307 146.196 33.1392C146.406 33.0099 146.559 32.8013 146.621 32.5582C146.683 32.315 146.649 32.0567 146.528 31.8385C146.276 31.3967 145.914 31.0309 145.48 30.778C145.077 30.5418 144.621 30.4134 144.156 30.4049C143.859 30.4011 143.565 30.4753 143.303 30.6207C143.041 30.7661 142.82 30.9777 142.66 31.2354C142.449 31.6396 142.332 32.0881 142.316 32.5463C142.239 33.0504 142.314 33.5666 142.531 34.0259V34.0259Z" fill="#FBB03B"/>
<path d="M148.691 39.7894C148.634 40.045 148.665 40.3162 148.779 40.5457C148.892 40.7752 149.079 40.9451 149.3 41.0196C149.96 41.2668 150.622 41.4977 151.294 41.7046C151.641 41.8428 152.001 41.933 152.366 41.9732C152.621 41.9695 152.866 41.8671 153.063 41.6827C153.26 41.4983 153.396 41.2428 153.45 40.9579C153.504 40.587 153.521 40.2104 153.502 39.8351C153.502 39.3946 153.553 38.9111 153.364 38.5082C153.257 38.3039 153.096 38.1449 152.904 38.0553C152.711 37.9656 152.499 37.9502 152.299 38.0113C152.259 38.0113 152.064 38.1537 152.048 38.1322C152.032 38.1107 152.224 38.0704 152.125 38.0919L152.034 38.1161H152.008L151.936 38.1349L151.973 38.1215H151.887C151.809 38.1215 151.734 38.1215 151.652 38.1215C151.512 38.1215 151.374 38.0973 151.233 38.0812L149.393 37.8931C148.906 37.8448 148.541 38.3901 148.522 38.8923C148.517 39.0224 148.537 39.1521 148.581 39.272C148.626 39.3919 148.693 39.4989 148.777 39.5853C148.743 39.65 148.714 39.7183 148.691 39.7894Z" fill="#FBB03B"/>
<path d="M147.942 22.836C148.09 21.6032 148.671 19.9766 149.958 19.6781C151.073 19.4207 152.455 19.3589 153.275 20.3498C153.652 20.8054 153.851 21.3793 154.141 21.8786C154.43 22.3779 154.754 22.8438 155.041 23.3405C155.35 23.8451 155.581 24.3986 155.725 24.98C155.788 25.2434 155.797 25.5184 155.749 25.7855C155.83 25.8696 155.894 25.9698 155.937 26.0802C155.981 26.1907 156.004 26.3092 156.004 26.429C156.004 26.5487 155.981 26.6673 155.937 26.7777C155.894 26.8882 155.83 26.9884 155.749 27.0724C155.506 27.3174 155.211 27.4968 154.889 27.5954C154.566 27.694 154.226 27.7088 153.898 27.6386C153.314 27.5383 152.81 27.214 152.258 27.0338C151.751 26.8759 151.226 26.7936 150.698 26.7893C150.014 26.7533 149.365 26.6246 148.83 26.1407C147.959 25.366 147.805 23.9711 147.942 22.836Z" fill="#FBB03B"/>
<path d="M149.748 49.459C149.592 49.3877 149.426 49.3469 149.257 49.3386H149.193C148.969 47.1335 148.745 44.9275 148.521 42.7206C149.748 42.4824 150.81 42.9079 151.798 43.6492C152.102 43.8793 152.347 44.2406 152.235 44.6126C151.744 46.2932 151.901 48.3592 149.993 49.261C149.899 49.3072 149.816 49.3747 149.748 49.459V49.459Z" fill="#FBB03B"/>
<path d="M156.144 33.8071C154.747 34.1617 154.814 34.1734 154.758 37.0304C154.726 38.7123 155.312 39.2134 156.365 39.2515L156.558 38.6449C156.612 37.1095 156.723 35.5711 156.455 34.0503L156.144 33.8071Z" fill="#FBB03B"/>
<path d="M149.769 35.4096C149.769 35.8153 149.855 36.5614 150.676 36.5288C151.361 36.5043 152.317 34.8704 152.26 33.645C152.216 32.6565 151.629 32.4523 151.017 32.4468C150.179 32.4387 149.765 33.2964 149.769 35.4096Z" fill="#FBB03B"/>
<path d="M161.631 64.5132C161.127 62.6939 160.734 60.8406 160.455 58.9652C160.455 58.9259 160.455 58.8893 160.438 58.85C159.262 51.2117 158.23 43.5263 157.704 35.799C157.618 34.5417 157.555 33.2826 157.513 32.0218C157.455 30.2537 157.564 28.4332 157.303 26.6834C157.005 24.8993 156.215 23.2553 155.037 21.9684C155.614 21.2564 156.077 20.4456 156.409 19.569C156.76 18.6389 156.952 17.6476 156.977 16.6431C156.991 16.1193 157.013 15.4251 156.747 14.9641C156.382 14.3354 155.646 14.2647 155.037 14.4193C154.042 14.6812 153.315 15.5797 152.706 16.41C152.503 16.6877 152.322 16.9784 152.136 17.2639C152.121 17.1435 152.112 17.0439 152.102 16.9418C152.083 16.7532 152.068 16.5646 152.056 16.376C152.03 15.9961 152.017 15.619 152.013 15.2391C152.019 15.1071 152 14.975 151.958 14.851C151.916 14.727 151.851 14.6136 151.767 14.5177C151.683 14.4218 151.582 14.3455 151.47 14.2933C151.358 14.2411 151.237 14.2142 151.115 14.2142C150.993 14.2142 150.873 14.2411 150.761 14.2933C150.649 14.3455 150.548 14.4218 150.464 14.5177C150.38 14.6136 150.315 14.727 150.272 14.851C150.23 14.975 150.212 15.1071 150.218 15.2391C150.231 16.4293 150.345 17.6157 150.559 18.7832H150.344L149.786 18.7649C149.81 17.5425 149.832 16.3201 149.853 15.0977C149.859 14.9656 149.841 14.8336 149.799 14.7096C149.756 14.5855 149.691 14.4721 149.607 14.3762C149.524 14.2804 149.422 14.204 149.31 14.1518C149.198 14.0997 149.078 14.0728 148.956 14.0728C148.834 14.0728 148.713 14.0997 148.601 14.1518C148.489 14.204 148.388 14.2804 148.304 14.3762C148.22 14.4721 148.155 14.5855 148.113 14.7096C148.071 14.8336 148.052 14.9656 148.058 15.0977L148.025 16.8632C147.834 16.5646 147.645 16.2607 147.445 15.9673C147.153 15.4809 146.753 15.0826 146.281 14.8095C145.783 14.5693 145.248 14.4333 144.703 14.4088C144.396 14.3851 144.09 14.476 143.837 14.6666C143.584 14.8572 143.399 15.136 143.312 15.4565C143.213 15.9257 143.249 16.4163 143.413 16.8632C143.989 18.6194 144.779 20.2843 145.761 21.8139C144.403 22.8186 143.183 24.0268 142.138 25.4025C141.047 26.8492 140.102 28.4174 139.317 30.0808C138.911 30.9374 138.445 31.8515 138.565 32.8469C138.633 33.2911 138.801 33.7102 139.054 34.0674C139.307 34.4246 139.637 34.7089 140.015 34.8953C141.606 35.7257 143.744 35.0577 145.329 34.4788C146.218 34.1534 147.079 33.7441 147.901 33.2555C148.124 33.1246 148.143 33.067 148.273 33.3237C148.357 33.5 148.418 33.6876 148.455 33.8816C148.534 34.2479 148.556 34.6258 148.522 35.0001C147.841 42.5552 148.068 50.1742 149.196 57.666C150.377 65.3147 151.67 72.9215 153.242 80.489C153.298 80.8071 153.388 81.1173 153.508 81.4137H155.199C155.332 80.6619 154.827 79.2763 154.701 78.6083C154.15 75.7269 153.58 72.8456 153.039 69.9406C151.641 62.4465 150.474 54.8842 150.112 47.2381C149.924 43.5297 149.973 39.8117 150.259 36.1107C150.295 35.668 150.363 35.2123 150.368 34.7643C150.368 34.6229 150.344 33.6851 150.23 33.6458L150.537 33.7506C150.766 33.817 151.011 33.7817 151.217 33.6525C151.422 33.5233 151.572 33.3108 151.633 33.0617C151.695 32.8127 151.662 32.5474 151.543 32.3244C151.424 32.1014 151.228 31.9388 150.998 31.8725C150.443 31.6446 149.865 31.4822 149.307 31.291C148.749 31.0998 148.208 30.919 147.628 31.2072C146.725 31.6525 145.899 32.2104 144.952 32.564C144.256 32.826 140.022 34.2693 140.379 32.3021C140.505 31.8407 140.688 31.4001 140.923 30.9924C141.147 30.5244 141.383 30.0616 141.633 29.6041C142.116 28.7057 142.656 27.8445 143.249 27.0266C144.391 25.4342 145.78 24.0707 147.356 22.9979C147.487 22.9164 147.595 22.7968 147.668 22.6525C147.74 22.5081 147.774 22.3448 147.766 22.1806C147.807 22.0583 147.82 21.9272 147.804 21.7982C147.789 21.6693 147.745 21.5463 147.677 21.4393C147.067 20.555 146.524 19.6186 146.054 18.6391C145.851 18.2174 145.616 17.6831 145.476 17.3294C145.37 17.0544 145.249 16.7663 145.155 16.4729H145.198C145.361 16.5123 145.514 16.5888 145.647 16.6972C145.78 16.8056 145.891 16.9434 145.971 17.1015C146.621 18.0943 147.244 19.1106 147.88 20.1139C148.025 20.3446 148.246 20.506 148.498 20.5644C148.613 20.6226 148.736 20.6564 148.863 20.664C148.905 20.659 148.947 20.6503 148.988 20.6378C149.167 20.6898 149.351 20.7188 149.537 20.7242L150.153 20.7425L151.409 20.7766C151.433 20.7766 151.455 20.7766 151.479 20.7609C151.626 20.805 151.781 20.8112 151.931 20.7792C152.083 20.7372 152.221 20.6458 152.324 20.5173C152.426 20.4447 152.509 20.3456 152.566 20.2291C153.028 19.2424 153.59 18.3147 154.242 17.463C154.498 17.1049 154.796 16.7852 155.129 16.5122L155.175 16.486C155.177 17.3111 155.031 18.1287 154.745 18.8932L154.716 18.9718L154.65 19.129C154.597 19.2495 154.539 19.3726 154.481 19.4905C154.378 19.7 154.264 19.9043 154.143 20.1008C153.907 20.4839 153.629 20.8356 153.317 21.1486C153.226 21.2479 153.157 21.3684 153.115 21.5009C153.073 21.6334 153.06 21.7744 153.076 21.9134C153.013 22.0769 153 22.2577 153.039 22.4296C153.078 22.6015 153.166 22.7556 153.291 22.8695C154.549 24.1321 155.445 25.6985 155.612 27.5845C155.708 28.6611 155.672 29.7429 155.684 30.8221C155.711 32.9046 155.817 34.9818 155.981 37.0537C156.583 44.7208 157.216 52.3695 158.728 59.903C159.96 66.0377 162.189 71.9523 164.849 77.4531C165.453 78.7026 166.011 80.0018 166.67 81.2199C166.706 81.288 166.74 81.3692 166.777 81.4425H169.098C165.865 76.2222 163.349 70.5193 161.631 64.5132V64.5132Z" fill="#1E1E1E"/>
<path d="M160.962 33.4411C160.87 37.011 161.08 40.5827 161.59 44.1086C161.645 44.3685 161.608 44.6419 161.487 44.8724C161.366 45.103 161.171 45.2731 160.94 45.3478C160.499 45.4761 159.908 45.1677 159.827 44.6218C159.281 40.9182 159.051 37.1656 159.14 33.4138C159.172 32.1091 160.994 32.1309 160.962 33.4411Z" fill="#1E1E1E"/>
<path d="M173.951 81.442C174.167 81.1781 174.347 80.8821 174.483 80.5631C174.833 79.9049 175.093 79.1963 175.253 78.4592C175.328 78.0665 175.35 77.6644 175.318 77.2651C175.308 77.0006 175.237 76.743 175.109 76.5155C175.01 76.3553 174.875 76.2241 174.716 76.1338C174.557 76.0435 174.379 75.9971 174.199 75.9986C173.278 75.9986 172.792 77.1203 172.549 77.9087C172.452 78.2349 172.371 78.5661 172.306 78.9012C172.268 79.0821 172.229 79.2605 172.18 79.4388C172.18 79.4776 172.158 79.5138 172.148 79.5525C172.139 79.5913 172.1 79.6094 172.148 79.581V79.6068L172.134 79.643C172.119 79.6792 172.105 79.7154 172.088 79.7516C172.039 79.8677 172.008 79.9917 171.998 80.1186C171.806 80.2524 171.668 80.4581 171.612 80.695C171.586 80.8218 171.585 80.9531 171.609 81.0804C171.633 81.2077 171.682 81.3282 171.753 81.4342L173.951 81.442Z" fill="#FBB03B"/>
<path d="M143.705 65.9165L151.167 81.2091H145.39L139.131 66.4438L139.853 64.3345H141.779L143.705 65.9165Z" fill="white"/>
<path d="M172.829 81.4312L174.623 74.5329L174.953 74.7852L175.399 75.1287L175.592 75.2764L175.619 75.2978C175.853 75.4817 176.076 75.6826 176.287 75.8991C176.34 75.9582 176.393 76.0145 176.443 76.0763L176.48 76.1219C176.567 76.2515 176.648 76.3868 176.721 76.5272C176.745 76.5809 176.788 76.6077 176.82 76.6507C176.523 78.2612 176.137 79.8476 175.805 81.4312H177.774C178.442 78.0733 179.113 74.6402 179.072 71.3037C179.052 69.8919 178.775 67.9646 177.213 67.8384C176.376 67.7713 175.573 68.284 175.016 68.9765C173.989 70.2542 173.314 72.1761 172.88 73.8081C172.757 74.2617 172.658 74.7852 172.559 75.3247L170.968 81.442L172.829 81.4312ZM175.481 71.8137C175.714 71.2754 176.026 70.7845 176.405 70.3616C176.979 69.7925 177.07 69.7496 177.174 70.63C177.299 71.7962 177.299 72.9748 177.174 74.141C177.058 74.0363 176.933 73.9343 176.824 73.8403C176.275 73.4028 175.715 72.9814 175.161 72.5546C175.264 72.2969 175.368 72.0526 175.484 71.8137H175.481Z" fill="#1E1E1E"/>
<path d="M141.07 71.626C141.239 70.9238 142.05 70.5476 142.751 70.5548C143.059 70.5563 143.363 70.6242 143.641 70.7536C143.918 70.883 144.162 71.0705 144.354 71.3025C144.808 71.868 144.838 72.5486 144.723 73.2196C144.678 73.4836 144.614 73.7446 144.534 74.0008C144.475 74.194 144.4 74.3824 144.309 74.5639C144.216 74.741 144.102 74.9067 143.968 75.0576C143.794 75.2247 143.558 75.3186 143.312 75.3186C143.066 75.3186 142.83 75.2247 142.656 75.0576C142.564 74.9593 142.492 74.8456 142.444 74.7221C142.332 74.6667 142.234 74.5901 142.154 74.497C142.074 74.4039 142.015 74.2963 141.98 74.1805C141.905 73.9409 141.813 73.7013 141.713 73.4616C141.613 73.222 141.521 73.0518 141.409 72.8553C141.184 72.4743 140.955 72.0933 141.07 71.626Z" fill="#FBB03B"/>
<path d="M149.161 76.4172C149.218 76.4879 149.273 76.5636 149.331 76.6367C149.452 76.7971 149.527 76.9883 149.547 77.1892C149.701 77.3724 149.78 77.6084 149.768 77.8486C149.755 78.0889 149.652 78.3151 149.48 78.4809C149.302 78.6401 149.072 78.7257 148.834 78.7205C148.597 78.7154 148.37 78.6199 148.199 78.4531C148.199 78.4531 148.199 78.4531 148.199 78.4531C148.199 78.4531 148.115 78.3977 148.075 78.3724L147.96 78.3346H147.808C147.704 78.3346 147.601 78.3522 147.497 78.3346C146.727 78.2816 146.328 77.6358 146.002 77.0126C145.878 76.7737 145.767 76.5287 145.668 76.2785C145.551 76.0136 145.467 75.7347 145.419 75.4485C145.368 75.0541 145.451 74.6541 145.653 74.3132C145.703 74.2274 145.763 74.1467 145.82 74.0609C145.877 73.9751 145.88 73.9777 145.905 73.9348C145.93 73.8919 146.009 73.7102 145.905 73.9348C145.95 73.7988 146.025 73.6749 146.124 73.5723C146.224 73.4697 146.344 73.391 146.478 73.3419C146.608 73.2879 146.75 73.267 146.89 73.2811C147.03 73.2952 147.165 73.3438 147.282 73.4227C147.82 73.8673 148.238 74.4428 148.496 75.0953C148.615 75.3652 148.73 75.6352 148.867 75.8925C148.944 76.0338 149.024 76.1725 149.116 76.3062C149.124 76.3592 149.144 76.387 149.161 76.4172Z" fill="#FBB03B"/>
<path d="M140.758 72.1771C142.024 75.2349 143.313 78.284 144.625 81.3243L144.666 81.3901C144.675 81.4062 144.681 81.4241 144.683 81.4428H146.638L143.317 73.5278L141.722 69.7257L142.428 69.4282C142.664 69.3376 142.906 69.2706 143.153 69.2281C143.279 69.2219 143.405 69.229 143.53 69.2491C143.71 69.2843 143.895 69.2605 144.062 69.1807L145.406 71.7795L149.171 79.073C149.427 79.7365 149.696 80.3896 149.995 81.0399C150.061 81.1742 150.131 81.3032 150.196 81.4428H152.263C152.263 81.4428 152.263 81.4428 152.246 81.4217L152.224 81.3901C152.137 81.2427 152.06 81.0873 151.982 80.9346C151.813 80.6028 151.649 80.2658 151.499 79.9262C151.349 79.5865 151.182 79.2205 151.035 78.8598C150.972 78.707 150.909 78.5517 150.849 78.3963L150.795 78.2541C150.762 78.162 150.725 78.0672 150.692 77.9724C150.642 77.836 150.571 77.7102 150.481 77.6011V77.5748L148.509 73.7464C147.241 71.2888 145.973 68.8243 144.705 66.3528C144.236 65.4391 143.738 64.5096 143.013 63.8303C141.021 62.024 138.3 63.6539 138.563 66.4265C138.728 68.4908 139.987 70.3339 140.758 72.1771ZM140.378 65.2916C140.695 64.6518 141.49 65.0283 141.862 65.368C142.406 65.8683 142.732 66.6055 143.071 67.2743C142.765 67.2924 142.462 67.3553 142.172 67.4613C141.751 67.6087 141.335 67.7851 140.925 67.9642C140.514 67.0926 140.047 65.9657 140.378 65.2995V65.2916Z" fill="#1E1E1E"/>
<path d="M147.246 25.5282C147.249 25.5089 147.254 25.4898 147.259 25.471C147.284 25.3987 147.311 25.3234 147.341 25.2541C147.348 25.2361 147.357 25.219 147.368 25.2029C147.392 25.1619 147.418 25.1226 147.446 25.0855C147.473 25.0433 147.502 25.003 147.533 24.965L147.574 24.9258C147.628 24.8753 147.685 24.828 147.744 24.7843C147.823 24.7302 147.908 24.6867 147.996 24.6547C148.026 24.6415 148.057 24.6315 148.089 24.6246C148.177 24.6016 148.268 24.5885 148.36 24.5854H148.414C148.489 24.5916 148.565 24.6037 148.639 24.6216L148.687 24.6367C148.759 24.6644 148.83 24.6966 148.899 24.7331C149.058 24.8286 149.19 24.9728 149.278 25.1487C149.321 25.2322 149.352 25.3227 149.37 25.4168C149.384 25.4984 149.393 25.5809 149.397 25.6638C149.394 25.7458 149.385 25.8273 149.37 25.9078C149.333 26.1004 149.246 26.2771 149.121 26.4168C149.105 26.4349 149.083 26.4499 149.064 26.468L148.967 26.6066C148.959 26.6199 148.95 26.6321 148.939 26.6427C148.878 26.7093 148.81 26.768 148.736 26.8174C148.582 26.9146 148.409 26.9684 148.232 26.974C148.058 26.9773 147.885 26.9284 147.734 26.8325C147.581 26.737 147.454 26.5989 147.365 26.4319C147.272 26.2603 147.219 26.0657 147.211 25.8656C147.208 25.8335 147.208 25.8013 147.211 25.7692C147.218 25.6882 147.23 25.6078 147.246 25.5282Z" fill="#1E1E1E"/>
<path d="M150.734 25.748C150.734 25.748 150.734 25.748 150.734 25.7674C150.731 25.8832 150.745 25.9987 150.775 26.1097C150.801 26.1974 150.832 26.2827 150.87 26.3649C150.878 26.387 150.889 26.4077 150.902 26.4262C150.989 26.5796 151.106 26.7099 151.245 26.8073C151.324 26.8659 151.411 26.9095 151.502 26.9365C151.598 26.9675 151.698 26.9796 151.798 26.972C151.891 26.9687 151.984 26.9513 152.073 26.9203C152.15 26.8907 152.225 26.8551 152.297 26.8138C152.362 26.7658 152.424 26.714 152.483 26.6588C152.55 26.5907 152.609 26.5137 152.658 26.4295C152.711 26.3391 152.753 26.2414 152.782 26.1388C152.782 26.1388 152.782 26.113 152.782 26.1001C152.782 26.0871 152.85 26 152.862 25.9418C152.912 25.7443 152.912 25.5355 152.862 25.3379C152.841 25.242 152.804 25.1511 152.752 25.0699C152.673 24.9278 152.563 24.8083 152.433 24.7211C152.318 24.647 152.186 24.608 152.052 24.6081L151.854 24.6371C151.795 24.6371 151.745 24.5887 151.686 24.5854H151.635C151.555 24.5918 151.475 24.6047 151.396 24.6242C151.306 24.6493 151.22 24.6896 151.142 24.7437C151.009 24.8306 150.899 24.9542 150.823 25.1022C150.753 25.24 150.715 25.3938 150.71 25.5511C150.711 25.6175 150.719 25.6836 150.734 25.748V25.748Z" fill="#1E1E1E"/>
<path d="M215.358 21.4691L215.855 23.2041C216.032 23.8183 216.209 24.4456 216.373 25.0624C216.524 25.6031 216.599 26.5742 217.367 26.4902C217.728 26.4587 217.917 26.1884 218.151 25.9495C218.315 25.7737 218.491 25.5952 218.648 25.4062C219.031 24.9915 219.414 24.5663 219.769 24.1332C220.479 23.2916 221.09 22.3628 221.59 21.3668C221.618 21.2908 221.633 21.2094 221.631 21.1274C221.63 21.0455 221.612 20.9648 221.581 20.89C221.549 20.8153 221.503 20.7481 221.446 20.6924C221.389 20.6368 221.322 20.5939 221.249 20.5663C221.218 20.5602 221.187 20.5602 221.157 20.5663C221.072 20.5015 220.976 20.4567 220.873 20.435C219.192 20.0702 217.507 19.6948 215.813 19.3326C215.679 19.3161 215.543 19.3454 215.426 19.4162C215.309 19.4871 215.216 19.5958 215.162 19.7263C214.913 20.2959 215.201 20.9048 215.358 21.4691ZM220.095 21.5269C219.735 22.1458 219.328 22.7322 218.877 23.2802C218.576 23.6555 218.26 24.0072 217.942 24.359C217.822 24.4902 217.693 24.6214 217.584 24.7684C217.531 24.5873 217.482 24.4062 217.429 24.2251L217.024 22.7815C216.892 22.3117 216.775 21.8524 216.636 21.3825C216.579 21.1647 216.512 20.9495 216.455 20.7316C217.668 20.9941 218.879 21.2539 220.095 21.5269Z" fill="white" fill-opacity="0.4"/>
<path d="M34.5539 16.2138L35.0512 17.9487C35.2278 18.5629 35.4043 19.1902 35.5684 19.807C35.7201 20.3477 35.7947 21.3188 36.5631 21.2348C36.9236 21.2033 37.1126 20.933 37.3464 20.6941C37.5105 20.5183 37.6871 20.3398 37.8437 20.1508C38.2266 19.7361 38.6095 19.3109 38.9651 18.8779C39.6749 18.0362 40.2861 17.1074 40.7853 16.1114C40.8143 16.0354 40.8284 15.954 40.8269 15.8721C40.8254 15.7901 40.8082 15.7094 40.7764 15.6346C40.7446 15.5599 40.6988 15.4927 40.6418 15.4371C40.5848 15.3814 40.5178 15.3385 40.4447 15.3109C40.4143 15.3048 40.383 15.3048 40.3526 15.3109C40.2682 15.2461 40.1715 15.2014 40.0692 15.1796C38.3883 14.8148 36.7023 14.4395 35.009 14.0773C34.8747 14.0607 34.739 14.09 34.6218 14.1609C34.5045 14.2317 34.4119 14.3404 34.3575 14.471C34.1088 15.0405 34.3972 15.6495 34.5539 16.2138ZM39.2909 16.2715C38.9312 16.8904 38.5237 17.4768 38.0725 18.0248C37.7716 18.4002 37.4558 18.7519 37.1375 19.1036C37.0181 19.2348 36.8888 19.366 36.7794 19.513C36.7272 19.3319 36.6775 19.1508 36.6252 18.9697L36.22 17.5261C36.0882 17.0563 35.9713 16.597 35.832 16.1272C35.7748 15.9093 35.7077 15.6941 35.6505 15.4762C36.864 15.7387 38.0749 15.9986 39.2909 16.2715Z" fill="white" fill-opacity="0.4"/>
<path d="M257.128 69.3243L258.786 69.4921C259.374 69.551 259.972 69.6149 260.557 69.6874C261.072 69.743 261.922 70.0421 262.147 69.2359C262.26 68.8607 262.104 68.5661 261.992 68.2387C261.907 68.0056 261.824 67.759 261.724 67.5284C261.521 66.9829 261.309 66.4335 261.08 65.9084C260.642 64.8692 260.093 63.8958 259.443 63.0091C259.39 62.9506 259.326 62.905 259.257 62.875C259.187 62.845 259.112 62.8311 259.036 62.8344C258.961 62.8376 258.886 62.8578 258.817 62.8938C258.748 62.9297 258.686 62.9807 258.635 63.0437C258.618 63.072 258.606 63.1034 258.599 63.1363C258.512 63.1965 258.437 63.2766 258.379 63.3712C257.423 64.9235 256.456 66.4768 255.497 68.0426C255.431 68.1714 255.404 68.3194 255.418 68.4648C255.433 68.6102 255.489 68.7453 255.579 68.8505C255.964 69.3204 256.59 69.2646 257.128 69.3243ZM259.002 64.5759C259.387 65.1767 259.726 65.8131 260.015 66.4787C260.216 66.9264 260.392 67.38 260.567 67.8361C260.632 68.0068 260.693 68.1876 260.775 68.3545C260.602 68.3372 260.429 68.3176 260.256 68.3004L258.879 68.1522C258.431 68.1038 257.998 68.0445 257.547 68.0037C257.341 67.9774 257.133 67.962 256.927 67.9357C257.617 66.8147 258.303 65.6953 259.002 64.5759Z" fill="white" fill-opacity="0.4"/>
<path d="M67.2656 73.296L68.924 73.4638C69.5113 73.5226 70.1097 73.5866 70.6944 73.659C71.21 73.7146 72.0598 74.0137 72.2849 73.2076C72.3973 72.8323 72.2415 72.5378 72.1297 72.2104C72.0443 71.9773 71.9614 71.7307 71.862 71.5002C71.659 70.9547 71.4471 70.4053 71.218 69.8803C70.78 68.8411 70.2302 67.8677 69.5806 66.9811C69.5275 66.9226 69.4641 66.877 69.3943 66.847C69.3244 66.817 69.2495 66.8031 69.1741 66.8063C69.0986 66.8096 69.0241 66.8298 68.9551 66.8657C68.8861 66.9017 68.824 66.9527 68.7725 67.0156C68.7557 67.0439 68.7436 67.0754 68.737 67.1083C68.6497 67.1684 68.5747 67.2485 68.5168 67.3432C67.5606 68.8954 66.5935 70.4486 65.6346 72.0144C65.5689 72.1431 65.5414 72.2911 65.5561 72.4365C65.5708 72.5819 65.627 72.717 65.7164 72.8221C66.1021 73.292 66.7281 73.2363 67.2656 73.296ZM69.14 68.5478C69.5246 69.1485 69.8633 69.7849 70.1528 70.4505C70.3541 70.8981 70.5298 71.3517 70.7044 71.8078C70.7694 71.9786 70.8305 72.1593 70.9126 72.3262C70.7394 72.309 70.5671 72.2893 70.3939 72.2721L69.0172 72.1239C68.5692 72.0756 68.1358 72.0163 67.6849 71.9754C67.4787 71.9491 67.2709 71.9337 67.0647 71.9074C67.7542 70.7865 68.4406 69.6671 69.14 68.5478Z" fill="white" fill-opacity="0.4"/>
<path d="M286.658 19.3404L288.103 20.2446C288.615 20.5643 289.135 20.8936 289.64 21.2244C290.087 21.5086 290.747 22.1659 291.258 21.5344C291.503 21.2439 291.474 20.9054 291.496 20.5568C291.507 20.306 291.526 20.0442 291.523 19.7893C291.546 19.2011 291.562 18.6051 291.553 18.0237C291.55 16.8798 291.42 15.745 291.166 14.644C291.14 14.5668 291.1 14.4965 291.048 14.4376C290.996 14.3786 290.933 14.3321 290.863 14.3008C290.793 14.2696 290.718 14.2542 290.641 14.2557C290.565 14.2571 290.489 14.2753 290.418 14.3093C290.392 14.3274 290.369 14.3505 290.351 14.3775C290.248 14.3927 290.15 14.4315 290.061 14.4914C288.601 15.4704 287.13 16.4453 285.662 17.4354C285.553 17.5227 285.472 17.6449 285.43 17.7839C285.388 17.9228 285.388 18.0712 285.429 18.2074C285.601 18.8097 286.192 19.0426 286.658 19.3404ZM290.17 15.8698C290.291 16.5906 290.357 17.3231 290.367 18.0598C290.38 18.5583 290.367 19.0506 290.353 19.5447C290.347 19.7295 290.334 19.9217 290.345 20.1106C290.194 20.0165 290.045 19.9205 289.894 19.8264L288.698 19.0677C288.308 18.8208 287.937 18.5704 287.542 18.329C287.364 18.2116 287.181 18.1034 287.004 17.986C288.057 17.2787 289.108 16.5713 290.17 15.8698Z" fill="white" fill-opacity="0.4"/>
<path d="M27.4902 64.73L28.9352 65.6341C29.4471 65.9538 29.9672 66.2831 30.4716 66.6139C30.9195 66.8981 31.5788 67.5553 32.0902 66.9239C32.3352 66.6334 32.3055 66.2949 32.3283 65.9463C32.3393 65.6956 32.3577 65.4337 32.355 65.1789C32.3778 64.5907 32.394 63.9948 32.3853 63.4133C32.3821 62.2695 32.2522 61.1348 31.9985 60.0338C31.9724 59.9566 31.9321 59.8863 31.88 59.8274C31.8279 59.7684 31.765 59.7219 31.6951 59.6906C31.6253 59.6594 31.5498 59.644 31.4734 59.6455C31.3969 59.6469 31.321 59.6652 31.2502 59.6991C31.2241 59.7172 31.2012 59.7404 31.1827 59.7673C31.0804 59.7825 30.9816 59.8213 30.893 59.8813C29.4326 60.8601 27.9619 61.835 26.494 62.825C26.3852 62.9124 26.3039 63.0346 26.262 63.1735C26.2201 63.3125 26.2198 63.4609 26.2612 63.597C26.4333 64.1993 27.024 64.4322 27.4902 64.73ZM31.0017 61.2595C31.1231 61.9803 31.1892 62.7128 31.1993 63.4494C31.2122 63.9479 31.1994 64.4402 31.1849 64.9343C31.179 65.1191 31.1658 65.3112 31.1771 65.5002C31.026 65.406 30.8767 65.3101 30.7257 65.2159L29.5296 64.4573C29.1404 64.2104 28.7687 63.9601 28.3741 63.7186C28.1965 63.6012 28.0132 63.4931 27.8357 63.3757C28.8894 62.6684 29.9396 61.961 31.0017 61.2595Z" fill="white" fill-opacity="0.4"/>
<path d="M185.968 71.42L187.413 72.3242C187.925 72.6439 188.445 72.9732 188.95 73.304C189.397 73.5882 190.057 74.2455 190.568 73.614C190.813 73.3235 190.784 72.985 190.806 72.6364C190.817 72.3856 190.836 72.1238 190.833 71.8689C190.856 71.2807 190.872 70.6847 190.863 70.1033C190.86 68.9594 190.73 67.8246 190.477 66.7236C190.45 66.6463 190.41 66.5761 190.358 66.5172C190.306 66.4582 190.243 66.4117 190.173 66.3804C190.103 66.3492 190.028 66.3338 189.951 66.3353C189.875 66.3367 189.799 66.3549 189.728 66.3889C189.702 66.407 189.679 66.4301 189.661 66.4571C189.558 66.4722 189.46 66.5111 189.371 66.571C187.911 67.55 186.44 68.5249 184.972 69.515C184.863 69.6023 184.782 69.7245 184.74 69.8634C184.698 70.0024 184.698 70.1508 184.739 70.287C184.911 70.8893 185.502 71.1222 185.968 71.42ZM189.48 67.9494C189.601 68.6702 189.667 69.4027 189.677 70.1394C189.69 70.6379 189.677 71.1302 189.663 71.6243C189.657 71.8091 189.644 72.0012 189.655 72.1902C189.504 72.0961 189.355 72.0001 189.204 71.906L188.008 71.1473C187.618 70.9004 187.247 70.65 186.852 70.4086C186.675 70.2912 186.491 70.183 186.314 70.0656C187.367 69.3583 188.418 68.6509 189.48 67.9494Z" fill="white" fill-opacity="0.4"/>
<path d="M247.696 13.6061L249.141 14.5102C249.653 14.8299 250.173 15.1592 250.677 15.4901C251.125 15.7743 251.784 16.4315 252.296 15.8C252.541 15.5095 252.511 15.171 252.534 14.8224C252.545 14.5717 252.563 14.3098 252.561 14.055C252.583 13.4667 252.6 12.8708 252.591 12.2893C252.588 11.1454 252.458 10.0107 252.204 8.90964C252.178 8.83238 252.138 8.76215 252.086 8.70319C252.033 8.64422 251.971 8.59769 251.901 8.56644C251.831 8.53519 251.755 8.51984 251.679 8.52129C251.603 8.52274 251.527 8.54097 251.456 8.5749C251.43 8.59301 251.407 8.61617 251.388 8.64315C251.286 8.65828 251.187 8.69712 251.099 8.75707C249.638 9.736 248.168 10.7109 246.7 11.701C246.591 11.7884 246.509 11.9105 246.468 12.0495C246.426 12.1884 246.425 12.3369 246.467 12.473C246.639 13.0753 247.23 13.3082 247.696 13.6061ZM251.207 10.1354C251.329 10.8562 251.395 11.5887 251.405 12.3254C251.418 12.824 251.405 13.3162 251.39 13.8103C251.385 13.9951 251.371 14.1873 251.383 14.3763C251.232 14.2821 251.082 14.1861 250.931 14.092L249.735 13.3334C249.346 13.0864 248.974 12.8361 248.58 12.5946C248.402 12.4772 248.219 12.3691 248.041 12.2516C249.095 11.5443 250.145 10.8369 251.207 10.1354Z" fill="white" fill-opacity="0.4"/>
<path d="M117.674 69.9874L119.119 70.8915C119.631 71.2112 120.151 71.5406 120.656 71.8714C121.104 72.1556 121.763 72.8128 122.274 72.1814C122.519 71.8909 122.49 71.5523 122.512 71.2038C122.523 70.953 122.542 70.6911 122.539 70.4363C122.562 69.848 122.578 69.2521 122.569 68.6707C122.566 67.5267 122.436 66.392 122.183 65.291C122.157 65.2137 122.116 65.1435 122.064 65.0845C122.012 65.0256 121.949 64.979 121.879 64.9478C121.809 64.9165 121.734 64.9012 121.657 64.9026C121.581 64.9041 121.505 64.9223 121.434 64.9562C121.408 64.9744 121.385 64.9975 121.367 65.0245C121.264 65.0396 121.166 65.0785 121.077 65.1384C119.617 66.1173 118.146 67.0923 116.678 68.0823C116.569 68.1697 116.488 68.2919 116.446 68.4308C116.404 68.5698 116.404 68.7182 116.445 68.8543C116.617 69.4566 117.208 69.6895 117.674 69.9874ZM121.186 66.5168C121.307 67.2376 121.373 67.9701 121.383 68.7068C121.396 69.2053 121.384 69.6976 121.369 70.1917C121.363 70.3765 121.35 70.5686 121.361 70.7576C121.21 70.6635 121.061 70.5675 120.91 70.4733L119.714 69.7147C119.325 69.4677 118.953 69.2174 118.558 68.976C118.381 68.8585 118.197 68.7504 118.02 68.633C119.073 67.9257 120.124 67.2182 121.186 66.5168Z" fill="white" fill-opacity="0.4"/>
<path d="M164.955 15.5167L166.4 16.4208C166.911 16.7405 167.432 17.0698 167.936 17.4007C168.384 17.6849 169.043 18.3421 169.555 17.7107C169.8 17.4202 169.77 17.0816 169.793 16.7331C169.804 16.4823 169.822 16.2204 169.819 15.9656C169.842 15.3773 169.858 14.7814 169.85 14.2C169.846 13.056 169.717 11.9213 169.463 10.8203C169.437 10.743 169.396 10.6728 169.344 10.6138C169.292 10.5549 169.229 10.5083 169.159 10.4771C169.09 10.4458 169.014 10.4305 168.938 10.4319C168.861 10.4334 168.785 10.4516 168.715 10.4855C168.688 10.5037 168.666 10.5268 168.647 10.5538C168.545 10.5689 168.446 10.6078 168.357 10.6677C166.897 11.6466 165.426 12.6216 163.958 13.6116C163.85 13.699 163.768 13.8212 163.726 13.9601C163.684 14.0991 163.684 14.2475 163.726 14.3836C163.898 14.9859 164.488 15.2188 164.955 15.5167ZM168.466 12.0461C168.587 12.7669 168.654 13.4994 168.664 14.2361C168.677 14.7346 168.664 15.2269 168.649 15.721C168.643 15.9058 168.63 16.0979 168.641 16.2869C168.49 16.1928 168.341 16.0968 168.19 16.0026L166.994 15.244C166.605 14.997 166.233 14.7467 165.838 14.5053C165.661 14.3878 165.478 14.2797 165.3 14.1623C166.354 13.4549 167.404 12.7475 168.466 12.0461Z" fill="white" fill-opacity="0.4"/>
<path d="M87.4668 25.5504L88.9118 26.4545C89.4236 26.7742 89.9437 27.1035 90.4481 27.4344C90.896 27.7186 91.5553 28.3758 92.0668 27.7444C92.3117 27.4539 92.2821 27.1153 92.3049 26.7667C92.3158 26.516 92.3343 26.2541 92.3315 25.9993C92.3543 25.411 92.3705 24.8151 92.3618 24.2336C92.3587 23.0897 92.2288 21.955 91.9751 20.854C91.949 20.7767 91.9087 20.7065 91.8566 20.6475C91.8044 20.5886 91.7416 20.542 91.6717 20.5108C91.6018 20.4795 91.5264 20.4642 91.4499 20.4656C91.3735 20.4671 91.2976 20.4853 91.2268 20.5192C91.2007 20.5373 91.1778 20.5605 91.1592 20.5875C91.057 20.6026 90.9582 20.6415 90.8696 20.7014C89.4091 21.6803 87.9385 22.6553 86.4706 23.6453C86.3618 23.7327 86.2805 23.8549 86.2385 23.9938C86.1966 24.1328 86.1964 24.2812 86.2377 24.4173C86.4099 25.0196 87.0005 25.2525 87.4668 25.5504ZM90.9783 22.0798C91.0996 22.8006 91.1657 23.5331 91.1758 24.2698C91.1887 24.7683 91.176 25.2605 91.1614 25.7546C91.1556 25.9394 91.1424 26.1316 91.1536 26.3206C91.0026 26.2265 90.8533 26.1305 90.7023 26.0363L89.5062 25.2777C89.117 25.0307 88.7453 24.7804 88.3506 24.539C88.1731 24.4215 87.9898 24.3134 87.8122 24.196C88.8659 23.4886 89.9162 22.7812 90.9783 22.0798Z" fill="white" fill-opacity="0.4"/>
<path d="M88.5807 50.24C88.4633 50.3659 88.3085 50.4417 88.1443 50.4537C88.0756 50.4637 88.0061 50.4641 87.9374 50.4548C87.274 50.288 86.6781 49.8906 86.2394 49.3223C85.7551 48.6523 85.4774 47.8321 85.4463 46.9793L85.4305 46.7395C85.4254 46.5402 85.493 46.3468 85.6185 46.2018C85.7439 46.0569 85.917 45.9723 86.0996 45.9667C86.2822 45.961 86.4594 46.0349 86.5921 46.1718C86.7249 46.3088 86.8024 46.4978 86.8076 46.6971L86.8194 46.8769C86.8365 47.4086 87.0035 47.9216 87.2976 48.3458C87.5475 48.6628 87.8846 48.883 88.2586 48.9736C88.4187 49.0155 88.5597 49.1185 88.6561 49.2641C88.7525 49.4097 88.7979 49.5883 88.784 49.7673C88.7702 49.9463 88.6981 50.114 88.5807 50.24Z" fill="#1E1E1E"/>
<path d="M91.688 49.1148C91.6056 49.1601 91.5156 49.1867 91.4236 49.193L91.4148 49.1987C91.2797 49.2105 91.1444 49.1783 91.0262 49.1061C90.908 49.0338 90.812 48.9248 90.7506 48.793C90.6892 48.6611 90.6651 48.5123 90.6814 48.3654C90.6976 48.2186 90.7534 48.0803 90.8418 47.9682C91.3487 47.2737 91.6798 46.4462 91.8019 45.5684C91.8475 45.2858 91.8748 45.0002 91.8837 44.7134C91.8872 44.6143 91.9085 44.5168 91.9464 44.4266C91.9844 44.3364 92.0383 44.2553 92.1049 44.1878C92.1716 44.1204 92.2498 44.0679 92.3351 44.0335C92.4203 43.999 92.511 43.9832 92.6018 43.987C92.6927 43.9908 92.7819 44.014 92.8645 44.0554C92.9471 44.0969 93.0215 44.1557 93.0833 44.2285C93.1451 44.3012 93.1931 44.3866 93.2247 44.4797C93.2563 44.5728 93.2707 44.6717 93.2673 44.7709C93.2557 45.1218 93.2233 45.4715 93.1705 45.8178C93.0069 46.959 92.5696 48.0326 91.903 48.9296C91.8435 49.0065 91.7704 49.0695 91.688 49.1148Z" fill="#1E1E1E"/>
<path d="M87.4515 43.5342C87.3563 43.5986 87.2478 43.6362 87.136 43.6438L87.1353 43.6338C86.9978 43.6484 86.8595 43.6172 86.7385 43.5443C86.5819 43.442 86.4686 43.2764 86.4233 43.0835C86.3779 42.8905 86.404 42.6859 86.4961 42.5139C87.1796 41.2712 88.099 40.2029 89.1925 39.3807C89.2803 39.3138 89.3813 39.2705 89.4874 39.2544C89.5935 39.2383 89.7015 39.2497 89.8027 39.2878C89.5348 39.0106 89.2505 38.7527 88.9517 38.5159C88.8788 38.4576 88.817 38.3842 88.77 38.2999C88.723 38.2156 88.6916 38.1221 88.6778 38.0245C88.6639 37.927 88.6678 37.8275 88.6891 37.7316C88.7105 37.6357 88.7489 37.5453 88.8023 37.4656C88.8556 37.386 88.9229 37.3186 89.0001 37.2673C89.0773 37.216 89.163 37.1817 89.2524 37.1666C89.3417 37.1514 89.4329 37.1557 89.5207 37.179C89.6086 37.2023 89.6914 37.2443 89.7643 37.3026C90.8061 38.109 91.675 39.1529 92.3109 40.362L92.3903 40.5214C92.4757 40.6979 92.4934 40.9041 92.4395 41.0948C92.3856 41.2854 92.2645 41.4449 92.1029 41.5381C91.9413 41.6313 91.7524 41.6506 91.5778 41.5918C91.4031 41.5329 91.2571 41.4007 91.1717 41.2243L91.1079 41.0938C90.8642 40.6234 90.5747 40.1831 90.2444 39.7805C90.286 39.9333 90.2826 40.0965 90.2348 40.247C90.1869 40.3976 90.0969 40.528 89.9776 40.6198C89.0455 41.3131 88.2624 42.2189 87.6821 43.2747C87.626 43.3806 87.5468 43.4698 87.4515 43.5342Z" fill="#1E1E1E"/>
<path d="M97.1253 38.7143C96.9957 38.8553 96.82 38.9344 96.6371 38.934L96.5364 38.9419C95.3826 38.8393 94.2213 38.92 93.0888 39.1815C92.9087 39.2249 92.7202 39.1883 92.5647 39.08C92.4092 38.9716 92.2996 38.8003 92.2598 38.6036C92.2201 38.407 92.2535 38.2011 92.3528 38.0314C92.452 37.8617 92.609 37.742 92.7891 37.6986C94.0539 37.4066 95.3506 37.3153 96.6393 37.4276C96.8223 37.4279 96.9977 37.5076 97.1269 37.6491C97.2561 37.7906 97.3285 37.9823 97.3282 38.1821C97.3279 38.3818 97.2549 38.5733 97.1253 38.7143Z" fill="#1E1E1E"/>
<path d="M86.581 36.6067C86.4664 36.7232 86.3188 36.7935 86.1627 36.806L86.162 36.796C86.0682 36.8053 85.9736 36.7939 85.8838 36.7625L85.4118 36.5785C84.4077 36.2052 83.3908 35.9182 82.4304 35.6519C82.3428 35.6277 82.2603 35.585 82.1878 35.5261C82.1153 35.4671 82.0541 35.3932 82.0077 35.3085C81.9614 35.2237 81.9308 35.1299 81.9177 35.0323C81.9046 34.9346 81.9092 34.8351 81.9313 34.7394C81.9534 34.6437 81.9925 34.5537 82.0465 34.4746C82.1005 34.3954 82.1682 34.3286 82.2458 34.278C82.3234 34.2274 82.4094 34.194 82.4988 34.1797C82.5883 34.1654 82.6794 34.1704 82.7671 34.1946C83.7509 34.4691 84.8054 34.7682 85.8567 35.158L86.3571 35.3548C86.5034 35.4156 86.6264 35.5291 86.7056 35.6765C86.7849 35.8239 86.8157 35.9964 86.7931 36.1655C86.7704 36.3346 86.6956 36.4903 86.581 36.6067Z" fill="#1E1E1E"/>
<path d="M79.5449 34.4194C79.4296 34.5397 79.2796 34.6125 79.1205 34.6254L79.1015 34.6168C79.0249 34.6223 78.9481 34.6129 78.8744 34.5894C78.5874 34.4913 78.3043 34.383 78.0209 34.2696C77.1006 33.9099 76.2153 33.451 75.3783 32.8996C75.2968 32.8508 75.2252 32.7843 75.1678 32.7044C75.1105 32.6245 75.0686 32.5326 75.0446 32.4345C75.0207 32.3364 75.0152 32.234 75.0285 32.1335C75.0419 32.033 75.0737 31.9365 75.1222 31.8498C75.1706 31.7632 75.2347 31.6881 75.3104 31.6292C75.3862 31.5703 75.4721 31.5288 75.563 31.5072C75.6539 31.4856 75.7478 31.4843 75.8392 31.5034C75.9305 31.5226 76.0174 31.5617 76.0945 31.6185C76.8507 32.1142 77.648 32.531 78.4759 32.8632L79.282 33.1617C79.4337 33.2154 79.5636 33.325 79.6494 33.4717C79.7353 33.6184 79.7718 33.7932 79.7528 33.966C79.7337 34.1389 79.6602 34.2992 79.5449 34.4194Z" fill="#1E1E1E"/>
<path d="M252.85 67.9351C252.972 68.0499 253.128 68.1131 253.289 68.1133C253.356 68.1183 253.424 68.1138 253.491 68.0999C254.129 67.8905 254.688 67.4604 255.084 66.8744C255.517 66.1858 255.741 65.3649 255.721 64.5294L255.722 64.294C255.715 64.0989 255.638 63.9146 255.507 63.7817C255.376 63.6489 255.202 63.5783 255.023 63.5856C254.844 63.5929 254.675 63.6775 254.554 63.8206C254.432 63.9638 254.367 64.1538 254.374 64.349L254.373 64.5255C254.388 65.0463 254.255 65.5592 253.992 65.9943C253.767 66.3216 253.45 66.5604 253.09 66.6751C252.936 66.7272 252.804 66.8377 252.719 66.9868C252.633 67.1358 252.599 67.3135 252.623 67.4874C252.647 67.6614 252.728 67.8202 252.85 67.9351Z" fill="#1E1E1E"/>
<path d="M249.747 67.0532C249.83 67.0917 249.92 67.1113 250.01 67.1111L250.019 67.116C250.152 67.1182 250.282 67.0772 250.393 66.9983C250.505 66.9195 250.592 66.8062 250.644 66.6731C250.697 66.5399 250.711 66.3928 250.687 66.2504C250.662 66.1081 250.6 65.9769 250.507 65.8735C249.971 65.2304 249.598 64.445 249.427 63.5957C249.366 63.3228 249.323 63.0456 249.297 62.7661C249.288 62.6694 249.261 62.5756 249.219 62.4902C249.177 62.4047 249.119 62.3292 249.05 62.268C248.981 62.2067 248.902 62.1609 248.816 62.1332C248.731 62.1055 248.641 62.0964 248.553 62.1065C248.464 62.1165 248.378 62.1455 248.3 62.1918C248.222 62.238 248.153 62.3007 248.097 62.3761C248.04 62.4516 247.999 62.5384 247.973 62.6316C247.948 62.7247 247.939 62.8224 247.949 62.9191C247.981 63.2611 248.033 63.6006 248.105 63.9353C248.332 65.039 248.822 66.0574 249.526 66.8872C249.589 66.9583 249.664 67.0147 249.747 67.0532Z" fill="#1E1E1E"/>
<path d="M253.559 61.3034C253.656 61.3596 253.764 61.3888 253.874 61.3884L253.874 61.3785C254.009 61.3832 254.142 61.3431 254.256 61.2633C254.403 61.1524 254.504 60.9827 254.537 60.7909C254.57 60.5992 254.533 60.4011 254.433 60.2395C253.692 59.0731 252.73 58.0935 251.613 57.3667C251.524 57.3075 251.422 57.2723 251.318 57.2639C251.213 57.2556 251.108 57.2743 251.012 57.3187C251.257 57.029 251.52 56.7571 251.798 56.5047C251.866 56.4427 251.922 56.3667 251.963 56.281C252.004 56.1953 252.029 56.1017 252.037 56.0054C252.045 55.9092 252.035 55.8122 252.008 55.72C251.982 55.6278 251.939 55.5421 251.882 55.468C251.825 55.3939 251.756 55.3328 251.677 55.288C251.599 55.2433 251.513 55.2158 251.425 55.2073C251.337 55.1988 251.248 55.2093 251.163 55.2382C251.079 55.2672 251 55.314 250.933 55.376C249.962 56.237 249.174 57.3179 248.624 58.5439L248.556 58.7053C248.483 58.8837 248.478 59.0864 248.541 59.269C248.605 59.4515 248.733 59.5988 248.896 59.6786C249.06 59.7583 249.245 59.764 249.413 59.6943C249.58 59.6245 249.715 59.4851 249.788 59.3067L249.843 59.1747C250.053 58.698 250.31 58.2475 250.609 57.831C250.577 57.9832 250.59 58.1424 250.646 58.2862C250.702 58.43 250.797 58.5511 250.919 58.6324C251.871 59.2446 252.689 60.0749 253.318 61.0659C253.379 61.1655 253.462 61.2471 253.559 61.3034Z" fill="#1E1E1E"/>
<path d="M243.823 57.271C243.958 57.3997 244.134 57.4647 244.313 57.4515L244.412 57.4522C245.533 57.2711 246.672 57.2686 247.794 57.4448C247.973 57.4746 248.155 57.4257 248.301 57.3089C248.446 57.1922 248.543 57.0171 248.571 56.8221C248.598 56.6272 248.553 56.4284 248.446 56.2695C248.339 56.1106 248.179 56.0046 248 55.9749C246.747 55.7781 245.475 55.7797 244.222 55.9796C244.043 55.9928 243.876 56.0829 243.759 56.2302C243.641 56.3775 243.581 56.5699 243.593 56.7651C243.605 56.9603 243.688 57.1423 243.823 57.271Z" fill="#1E1E1E"/>
<path d="M254.002 54.4732C254.121 54.5789 254.269 54.6373 254.423 54.6386L254.423 54.6288C254.515 54.6313 254.607 54.6136 254.693 54.5766L255.143 54.3638C256.102 53.9286 257.079 53.577 258.002 53.2495C258.086 53.2198 258.164 53.1722 258.232 53.1096C258.299 53.0469 258.354 52.9704 258.395 52.8843C258.435 52.7983 258.459 52.7045 258.467 52.6082C258.474 52.5118 258.463 52.4149 258.436 52.3229C258.409 52.231 258.365 52.1458 258.308 52.0722C258.25 51.9986 258.18 51.9381 258.102 51.8941C258.023 51.8501 257.937 51.8235 257.849 51.8157C257.76 51.808 257.672 51.8193 257.587 51.849C256.642 52.1862 255.629 52.5523 254.625 53.0068L254.147 53.2342C254.008 53.3039 253.895 53.4234 253.826 53.5729C253.757 53.7225 253.737 53.8932 253.769 54.0569C253.801 54.2206 253.883 54.3674 254.002 54.4732Z" fill="#1E1E1E"/>
<path d="M260.749 51.8431C260.869 51.9526 261.02 52.0132 261.176 52.0147L261.194 52.005C261.269 52.0049 261.344 51.9904 261.414 51.9622C261.689 51.8463 261.959 51.7206 262.229 51.59C263.108 51.1741 263.946 50.6636 264.731 50.0663C264.808 50.0128 264.874 49.9429 264.925 49.8608C264.977 49.7787 265.012 49.686 265.03 49.5884C265.047 49.4909 265.047 49.3905 265.028 49.2932C265.009 49.1959 264.972 49.1039 264.92 49.0225C264.867 48.9412 264.8 48.8724 264.723 48.8202C264.645 48.7679 264.559 48.7334 264.469 48.7186C264.379 48.7038 264.287 48.7092 264.199 48.7343C264.111 48.7593 264.028 48.8037 263.956 48.8646C263.246 49.4019 262.492 49.865 261.702 50.2476L260.932 50.5957C260.787 50.6589 260.667 50.775 260.591 50.9244C260.516 51.0738 260.491 51.2471 260.519 51.4147C260.548 51.5822 260.629 51.7337 260.749 51.8431Z" fill="#1E1E1E"/>
<path d="M141.07 61.0533C140.92 61.1833 140.731 61.2478 140.539 61.2344L140.461 61.2288C140.36 61.2094 140.263 61.1684 140.177 61.1081C140.09 61.0478 140.015 60.9694 139.956 60.8774C139.897 60.7854 139.856 60.6817 139.834 60.5721C139.812 60.4624 139.81 60.3491 139.828 60.2387L139.934 59.6091C140.16 58.3625 140.328 57.1043 140.438 55.8392C140.453 55.6149 140.548 55.4062 140.704 55.2586C140.859 55.1109 141.062 55.0364 141.267 55.0512C141.369 55.0593 141.469 55.0893 141.56 55.1395C141.651 55.1897 141.732 55.2592 141.799 55.3438C141.866 55.4284 141.916 55.5267 141.948 55.6327C141.98 55.7388 141.992 55.8506 141.984 55.9619C141.871 57.2857 141.695 58.6024 141.459 59.9066L141.353 60.5305C141.321 60.737 141.22 60.9233 141.07 61.0533Z" fill="#1E1E1E"/>
<path d="M141.018 52.1999C140.918 52.2377 140.812 52.2533 140.707 52.2458L140.707 52.2515C140.557 52.2353 140.413 52.173 140.294 52.0718C140.175 51.9706 140.084 51.8346 140.033 51.6795C139.58 50.4029 138.843 49.2702 137.887 48.3846C137.81 48.3107 137.747 48.2209 137.702 48.1205C137.656 48.02 137.63 47.9108 137.623 47.7992C137.617 47.6875 137.63 47.5755 137.663 47.4696C137.697 47.3637 137.748 47.2658 137.816 47.1818C137.884 47.0978 137.966 47.0291 138.058 46.9798C138.15 46.9304 138.25 46.9014 138.352 46.8942C138.455 46.887 138.557 46.9019 138.654 46.938C138.751 46.9741 138.841 47.0308 138.918 47.1047C140.065 48.1728 140.95 49.537 141.492 51.0734L141.489 51.1245C141.523 51.2288 141.538 51.3395 141.533 51.4502C141.527 51.5609 141.502 51.6694 141.458 51.7693C141.414 51.8693 141.353 51.9588 141.277 52.0327C141.202 52.1066 141.113 52.1634 141.018 52.1999Z" fill="#1E1E1E"/>
<path d="M132.784 46.5835C132.028 46.5916 131.261 46.6103 130.503 46.5558L130.482 46.56C130.275 46.5489 130.081 46.4485 129.942 46.2812C129.803 46.1138 129.731 45.893 129.741 45.6674C129.751 45.4418 129.843 45.2299 129.997 45.0782C130.15 44.9266 130.352 44.8476 130.559 44.8587C131.292 44.883 132.032 44.8908 132.762 44.8808C133.432 44.8535 134.103 44.8714 134.77 44.9343C134.872 44.9453 134.971 44.9782 135.061 45.0311C135.151 45.0839 135.231 45.1558 135.295 45.2424C135.36 45.329 135.408 45.4287 135.437 45.5357C135.466 45.6428 135.475 45.7551 135.464 45.8661C135.456 45.9778 135.427 46.0865 135.379 46.1856C135.331 46.2846 135.265 46.3722 135.185 46.4429C135.105 46.5136 135.014 46.5661 134.915 46.5972C134.816 46.6283 134.713 46.6374 134.611 46.6239C134.003 46.5747 133.393 46.5612 132.784 46.5835Z" fill="#1E1E1E"/>
<path d="M126.926 46.0131C126.766 46.1574 126.561 46.2268 126.355 46.2059L126.313 46.2199C124.917 46.0284 123.51 45.7735 122.143 45.4532C121.938 45.4061 121.759 45.2721 121.645 45.0809C121.531 44.8897 121.492 44.657 121.535 44.4337C121.578 44.2105 121.701 44.0151 121.876 43.8906C122.051 43.7661 122.264 43.7227 122.469 43.7699C123.794 44.0815 125.15 44.327 126.499 44.5095C126.705 44.5303 126.895 44.6397 127.028 44.8136C127.16 44.9874 127.223 45.2114 127.204 45.4364C127.185 45.6614 127.085 45.8688 126.926 46.0131Z" fill="#1E1E1E"/>
<path d="M223.914 34.6779C223.835 34.8684 223.693 35.0201 223.517 35.1036L223.446 35.1374C223.348 35.1707 223.244 35.1824 223.142 35.1719C223.04 35.1615 222.94 35.1291 222.849 35.0766C222.759 35.0241 222.678 34.9525 222.613 34.866C222.547 34.7794 222.498 34.6796 222.468 34.5722L222.299 33.9594C221.978 32.7378 221.601 31.5345 221.17 30.3543C221.089 30.1473 221.087 29.914 221.163 29.7052C221.24 29.4964 221.389 29.3291 221.578 29.2399C221.672 29.1962 221.773 29.1734 221.875 29.1726C221.977 29.1717 222.079 29.193 222.173 29.2352C222.268 29.2773 222.354 29.3394 222.427 29.418C222.499 29.4966 222.557 29.5901 222.596 29.693C223.05 30.9271 223.445 32.1858 223.78 33.4642L223.947 34.0718C224.005 34.2713 223.993 34.4873 223.914 34.6779Z" fill="#1E1E1E"/>
<path d="M220.163 26.8277C220.09 26.9109 220.003 26.9774 219.906 27.0232L219.908 27.0285C219.767 27.089 219.614 27.1049 219.466 27.0743C219.317 27.0437 219.18 26.9679 219.069 26.8556C218.132 25.9453 217.002 25.3053 215.781 24.9939C215.682 24.9665 215.588 24.918 215.506 24.8511C215.424 24.7843 215.354 24.7005 215.302 24.6044C215.249 24.5083 215.214 24.4019 215.2 24.2912C215.185 24.1804 215.19 24.0675 215.215 23.959C215.24 23.8505 215.284 23.7485 215.346 23.6587C215.407 23.569 215.484 23.4933 215.572 23.4359C215.66 23.3786 215.757 23.3406 215.859 23.3244C215.96 23.3082 216.063 23.314 216.163 23.3414C217.631 23.7195 218.989 24.4921 220.114 25.589L220.132 25.636C220.206 25.7118 220.266 25.8029 220.307 25.904C220.349 26.0051 220.372 26.1142 220.375 26.225C220.378 26.3358 220.36 26.446 220.324 26.5495C220.288 26.6529 220.233 26.7475 220.163 26.8277Z" fill="#1E1E1E"/>
<path d="M210.488 25.9347C209.819 26.3189 209.144 26.7179 208.447 27.047L208.43 27.0612C208.242 27.1543 208.027 27.1618 207.833 27.0822C207.64 27.0025 207.483 26.8421 207.398 26.6364C207.312 26.4306 207.305 26.1963 207.378 25.9849C207.451 25.7736 207.598 25.6025 207.787 25.5094C208.449 25.1656 209.11 24.8038 209.756 24.431C210.34 24.0729 210.945 23.7545 211.565 23.4776C211.66 23.4367 211.762 23.4167 211.864 23.4188C211.966 23.421 212.067 23.4452 212.161 23.4901C212.254 23.535 212.339 23.5997 212.41 23.6804C212.48 23.7612 212.536 23.8564 212.572 23.9606C212.611 24.0643 212.631 24.1756 212.63 24.2876C212.628 24.3997 212.606 24.5104 212.565 24.613C212.524 24.7156 212.464 24.8081 212.389 24.885C212.315 24.9618 212.226 25.0214 212.13 25.0602C211.569 25.3194 211.021 25.6113 210.488 25.9347Z" fill="#1E1E1E"/>
<path d="M38.552 37.4942C38.3488 37.4508 38.1698 37.3211 38.0542 37.1336C37.9387 36.946 37.8961 36.7161 37.9358 36.4942C37.9756 36.2724 38.0945 36.0769 38.2663 35.9507C38.4381 35.8246 38.6487 35.778 38.8519 35.8214C40.1579 36.0333 41.4836 36.0592 42.7957 35.8985C42.9926 35.891 43.1848 35.9652 43.3337 36.1061C43.4826 36.247 43.5771 36.4442 43.5983 36.6581C43.6194 36.872 43.5656 37.0867 43.4477 37.2591C43.3298 37.4314 43.1565 37.5487 42.9626 37.5873C41.5143 37.7684 40.0504 37.7401 38.6089 37.5031L38.552 37.4942ZM46.7508 36.562C46.5835 36.5173 46.4345 36.4134 46.327 36.2665C46.2195 36.1196 46.1596 35.938 46.1565 35.7501C46.1535 35.5621 46.2076 35.3782 46.3103 35.2273C46.413 35.0763 46.5585 34.9667 46.7243 34.9156C48.0868 34.4784 49.4734 34.1362 50.8757 33.8911C51.0805 33.8584 51.289 33.9158 51.455 34.0507C51.6211 34.1857 51.7313 34.3872 51.7613 34.6109C51.7913 34.8345 51.7387 35.062 51.615 35.2433C51.4913 35.4247 51.3068 35.545 51.1019 35.5777C49.7664 35.8119 48.4458 36.1381 47.148 36.5542C47.0184 36.5909 46.8823 36.5898 46.7532 36.551L46.7508 36.562Z" fill="#1E1E1E"/>
<path d="M178.53 64.6454C178.461 64.8586 178.473 65.0928 178.562 65.2966C178.652 65.5004 178.812 65.6571 179.007 65.7321C179.203 65.8072 179.417 65.7945 179.604 65.6969C179.791 65.5992 179.934 65.4247 180.003 65.2115C180.498 63.8755 181.15 62.6153 181.942 61.4624C182.048 61.2809 182.087 61.0625 182.051 60.8509C182.015 60.6394 181.907 60.4505 181.749 60.3222C181.591 60.1938 181.394 60.1356 181.198 60.1591C181.002 60.1826 180.822 60.2862 180.693 60.449C179.815 61.7197 179.096 63.1112 178.552 64.5874L178.53 64.6454ZM183.423 57.4052C183.374 57.5853 183.38 57.7781 183.442 57.9537C183.503 58.1294 183.616 58.2778 183.763 58.376C183.91 58.4741 184.083 58.5165 184.254 58.4964C184.425 58.4764 184.586 58.395 184.71 58.265C185.746 57.2049 186.72 56.074 187.624 54.8791C187.754 54.703 187.814 54.4778 187.792 54.2531C187.77 54.0285 187.666 53.8227 187.505 53.681C187.343 53.5394 187.137 53.4735 186.931 53.4979C186.725 53.5223 186.537 53.6349 186.407 53.8111C185.545 54.9487 184.618 56.0256 183.631 57.0355C183.536 57.1388 183.468 57.2675 183.433 57.4086L183.423 57.4052Z" fill="#1E1E1E"/>
</svg>
