<svg width="525" height="321" viewBox="0 0 525 321" fill="none" xmlns="http://www.w3.org/2000/svg">
<path d="M518.976 266.219C518.687 267.125 518.389 268.032 518.082 268.938C510.952 289.846 500.035 305.566 493.875 313.383C493.632 313.691 493.396 313.99 493.166 314.274C491.493 316.36 490.245 317.77 489.643 318.439C489.373 318.736 489.23 318.887 489.23 318.887L16.3195 319C10.0215 309.387 7.00293 301.402 6.21227 294.477C6.21227 294.477 6.21227 294.465 6.21227 294.46C6.07397 293.234 6.00311 292.002 6 290.769C6 290.474 6 290.186 6.01169 289.891C6.01169 289.778 6.01169 289.669 6.01169 289.559C6.13023 286.479 6.70444 283.435 7.71569 280.523C8.77183 277.536 10.1551 274.674 11.8404 271.99C11.9864 271.751 12.1325 271.514 12.2824 271.279C12.3058 271.244 12.3272 271.209 12.3486 271.174C13.8618 268.792 15.5522 266.475 17.3185 264.164C18.263 262.928 19.2309 261.691 20.2007 260.448C24.228 255.3 28.339 250.035 31.3906 244.029C32.526 241.812 33.4813 239.508 34.2475 237.139C35.0866 234.529 35.6632 231.842 35.9691 229.119C36.0411 228.456 36.1015 227.784 36.1443 227.102C36.1794 226.543 36.2028 225.976 36.2164 225.405C36.2333 224.646 36.2333 223.874 36.2164 223.089C36.1046 219.732 35.6669 216.393 34.9097 213.119C34.8688 212.944 34.8298 212.769 34.787 212.594C34.637 211.955 34.4754 211.314 34.2982 210.652C34.1424 210.073 33.9762 209.49 33.7996 208.904C33.6789 208.495 33.5491 208.082 33.4101 207.667C32.4598 204.678 31.6698 201.737 31.0401 198.844C30.6961 197.25 30.3981 195.676 30.1462 194.122V194.087C29.971 193.017 29.8184 191.955 29.6886 190.9C29.6672 190.723 29.6438 190.546 29.6243 190.369C22.043 125.937 89.6695 86.2694 157.078 82.3321C166.543 81.7623 176.038 81.9259 185.477 82.8216C212.594 85.4575 237.863 94.4178 256.012 110.47C297.854 147.479 405.756 77.7946 476.936 131.06C478.235 132.031 479.521 133.044 480.796 134.099C481.152 134.392 481.506 134.69 481.859 134.993C491.435 143.151 500.265 153.745 508.082 167.387C512.049 174.271 515.395 181.494 518.082 188.969C518.391 189.837 518.691 190.703 518.976 191.57C528.286 219.607 525.62 245.338 518.976 266.219Z" fill="#F2FDFF"/>
<path d="M219.765 78.7438C219.768 79.331 219.597 79.9059 219.273 80.3958C218.949 80.8856 218.487 81.2684 217.946 81.4957C217.405 81.7229 216.808 81.7844 216.232 81.6724C215.655 81.5604 215.125 81.2798 214.708 80.8663C214.291 80.4528 214.006 79.9249 213.89 79.3495C213.773 78.774 213.83 78.1769 214.053 77.6336C214.275 77.0904 214.655 76.6255 215.142 76.2978C215.629 75.9701 216.202 75.7943 216.79 75.7927C217.575 75.7906 218.329 76.1001 218.887 76.6533C219.445 77.2065 219.76 77.9583 219.765 78.7438Z" fill="#A4E0EA"/>
<path opacity="0.6" d="M156.312 71.1221C156.312 71.709 156.138 72.2826 155.812 72.7705C155.486 73.2585 155.023 73.6388 154.48 73.8633C153.938 74.0879 153.342 74.1467 152.766 74.0322C152.191 73.9177 151.662 73.6351 151.247 73.2202C150.832 72.8052 150.549 72.2765 150.435 71.701C150.32 71.1254 150.379 70.5288 150.604 69.9867C150.828 69.4445 151.209 68.9811 151.697 68.6551C152.185 68.329 152.758 68.155 153.345 68.155C153.735 68.155 154.12 68.2318 154.48 68.3809C154.84 68.53 155.168 68.7486 155.443 69.0241C155.719 69.2996 155.937 69.6267 156.086 69.9867C156.235 70.3467 156.312 70.7325 156.312 71.1221Z" fill="white"/>
<path opacity="0.6" d="M287.752 178.553C287.752 179.14 287.578 179.714 287.252 180.202C286.926 180.69 286.462 181.07 285.92 181.295C285.378 181.519 284.781 181.578 284.206 181.463C283.63 181.349 283.101 181.066 282.686 180.651C282.271 180.236 281.989 179.708 281.874 179.132C281.76 178.557 281.819 177.96 282.043 177.418C282.268 176.876 282.648 176.412 283.136 176.086C283.624 175.76 284.198 175.586 284.784 175.586C285.571 175.586 286.326 175.899 286.883 176.455C287.439 177.012 287.752 177.766 287.752 178.553Z" fill="white"/>
<path opacity="0.6" d="M417.368 130.12C417.368 130.436 417.274 130.746 417.098 131.009C416.923 131.272 416.673 131.477 416.381 131.598C416.088 131.719 415.767 131.751 415.456 131.689C415.146 131.627 414.861 131.475 414.637 131.251C414.414 131.027 414.261 130.742 414.2 130.432C414.138 130.122 414.17 129.8 414.291 129.508C414.412 129.216 414.617 128.966 414.88 128.79C415.143 128.614 415.452 128.521 415.768 128.521C416.193 128.521 416.6 128.689 416.899 128.989C417.199 129.289 417.368 129.696 417.368 130.12Z" fill="white"/>
<path opacity="0.6" d="M475.11 219.429C475.11 219.745 475.016 220.054 474.841 220.317C474.665 220.581 474.415 220.786 474.123 220.907C473.83 221.028 473.509 221.059 473.199 220.998C472.888 220.936 472.603 220.784 472.38 220.56C472.156 220.336 472.004 220.051 471.942 219.741C471.88 219.431 471.912 219.109 472.033 218.817C472.154 218.524 472.359 218.275 472.622 218.099C472.885 217.923 473.194 217.829 473.511 217.829C473.935 217.829 474.342 217.998 474.642 218.298C474.942 218.598 475.11 219.005 475.11 219.429Z" fill="white"/>
<path opacity="0.6" d="M114.205 219.429C114.205 219.745 114.111 220.054 113.935 220.317C113.76 220.581 113.51 220.786 113.217 220.907C112.925 221.028 112.604 221.059 112.293 220.998C111.983 220.936 111.698 220.784 111.474 220.56C111.251 220.336 111.098 220.051 111.037 219.741C110.975 219.431 111.007 219.109 111.128 218.817C111.249 218.524 111.454 218.275 111.717 218.099C111.98 217.923 112.289 217.829 112.605 217.829C113.03 217.829 113.436 217.998 113.736 218.298C114.036 218.598 114.205 219.005 114.205 219.429Z" fill="white"/>
<path opacity="0.6" d="M47.6734 283.601C47.6734 283.917 47.5796 284.227 47.4038 284.49C47.2281 284.753 46.9783 284.958 46.686 285.079C46.3937 285.2 46.0721 285.231 45.7618 285.17C45.4516 285.108 45.1665 284.956 44.9429 284.732C44.7192 284.508 44.5668 284.223 44.5051 283.913C44.4434 283.603 44.4751 283.281 44.5961 282.989C44.7172 282.697 44.9222 282.447 45.1852 282.271C45.4483 282.095 45.7575 282.001 46.0739 282.001C46.4981 282.001 46.9049 282.17 47.2049 282.47C47.5049 282.77 47.6734 283.177 47.6734 283.601Z" fill="white"/>
<path opacity="0.6" d="M33.0779 185.039C33.0779 185.356 32.9841 185.665 32.8084 185.928C32.6326 186.191 32.3828 186.396 32.0905 186.517C31.7983 186.638 31.4766 186.67 31.1664 186.608C30.8561 186.547 30.5711 186.394 30.3474 186.17C30.1237 185.947 29.9714 185.662 29.9096 185.351C29.8479 185.041 29.8796 184.72 30.0007 184.427C30.1217 184.135 30.3267 183.885 30.5898 183.71C30.8528 183.534 31.1621 183.44 31.4784 183.44C31.9026 183.44 32.3095 183.608 32.6094 183.908C32.9094 184.208 33.0779 184.615 33.0779 185.039Z" fill="white"/>
<path opacity="0.6" d="M117.988 125.25C117.988 125.566 117.894 125.875 117.719 126.138C117.543 126.401 117.293 126.606 117.001 126.727C116.708 126.848 116.387 126.88 116.077 126.818C115.766 126.757 115.481 126.604 115.258 126.381C115.034 126.157 114.882 125.872 114.82 125.562C114.758 125.251 114.79 124.93 114.911 124.638C115.032 124.345 115.237 124.095 115.5 123.92C115.763 123.744 116.072 123.65 116.389 123.65C116.813 123.65 117.22 123.819 117.52 124.119C117.82 124.419 117.988 124.825 117.988 125.25Z" fill="white"/>
<path opacity="0.6" d="M79.9275 46.2018C79.9275 46.5182 79.8337 46.8274 79.658 47.0904C79.4822 47.3535 79.2324 47.5585 78.9401 47.6796C78.6479 47.8006 78.3262 47.8323 78.016 47.7706C77.7057 47.7089 77.4207 47.5565 77.197 47.3328C76.9733 47.1091 76.821 46.8241 76.7592 46.5139C76.6975 46.2036 76.7292 45.882 76.8503 45.5897C76.9713 45.2974 77.1763 45.0476 77.4394 44.8719C77.7024 44.6961 78.0117 44.6023 78.328 44.6023C78.7522 44.6023 79.1591 44.7708 79.459 45.0708C79.759 45.3707 79.9275 45.7776 79.9275 46.2018Z" fill="white"/>
<path opacity="0.6" d="M145.611 25.7602C145.611 26.0765 145.517 26.3858 145.342 26.6488C145.166 26.9118 144.916 27.1168 144.624 27.2379C144.331 27.359 144.01 27.3906 143.7 27.3289C143.389 27.2672 143.104 27.1149 142.881 26.8912C142.657 26.6675 142.505 26.3825 142.443 26.0722C142.381 25.7619 142.413 25.4403 142.534 25.148C142.655 24.8558 142.86 24.606 143.123 24.4302C143.386 24.2545 143.695 24.1606 144.012 24.1606C144.436 24.1606 144.843 24.3292 145.143 24.6291C145.443 24.9291 145.611 25.3359 145.611 25.7602Z" fill="white"/>
<path opacity="0.6" d="M184.991 99.4335C184.991 99.7498 184.898 100.059 184.722 100.322C184.546 100.585 184.296 100.79 184.004 100.911C183.712 101.032 183.39 101.064 183.08 101.002C182.77 100.941 182.485 100.788 182.261 100.565C182.037 100.341 181.885 100.056 181.823 99.7455C181.762 99.4353 181.793 99.1137 181.914 98.8214C182.035 98.5291 182.24 98.2793 182.503 98.1036C182.766 97.9278 183.076 97.834 183.392 97.834C183.816 97.834 184.223 98.0025 184.523 98.3025C184.823 98.6024 184.991 99.0093 184.991 99.4335Z" fill="white"/>
<path opacity="0.6" d="M343.35 56.4628C343.35 56.7791 343.257 57.0884 343.081 57.3514C342.905 57.6145 342.655 57.8195 342.363 57.9405C342.071 58.0616 341.749 58.0933 341.439 58.0316C341.129 57.9698 340.844 57.8175 340.62 57.5938C340.396 57.3701 340.244 57.0851 340.182 56.7748C340.12 56.4646 340.152 56.143 340.273 55.8507C340.394 55.5584 340.599 55.3086 340.862 55.1328C341.125 54.9571 341.435 54.8633 341.751 54.8633C342.175 54.8633 342.582 55.0318 342.882 55.3318C343.182 55.6317 343.35 56.0386 343.35 56.4628Z" fill="white"/>
<path opacity="0.6" d="M242.438 89.5326C242.438 89.849 242.344 90.1582 242.168 90.4213C241.992 90.6843 241.743 90.8893 241.45 91.0104C241.158 91.1314 240.837 91.1631 240.526 91.1014C240.216 91.0397 239.931 90.8873 239.707 90.6636C239.484 90.4399 239.331 90.1549 239.27 89.8447C239.208 89.5344 239.239 89.2128 239.361 88.9205C239.482 88.6282 239.687 88.3784 239.95 88.2027C240.213 88.0269 240.522 87.9331 240.838 87.9331C241.263 87.9331 241.669 88.1016 241.969 88.4016C242.269 88.7016 242.438 89.1084 242.438 89.5326Z" fill="white"/>
<path opacity="0.6" d="M464.506 144.572C464.506 144.888 464.412 145.197 464.236 145.46C464.06 145.723 463.811 145.928 463.518 146.049C463.226 146.17 462.904 146.202 462.594 146.14C462.284 146.079 461.999 145.926 461.775 145.703C461.551 145.479 461.399 145.194 461.337 144.884C461.276 144.573 461.307 144.252 461.428 143.96C461.549 143.667 461.754 143.417 462.017 143.242C462.281 143.066 462.59 142.972 462.906 142.972C463.33 142.972 463.737 143.141 464.037 143.441C464.337 143.741 464.506 144.147 464.506 144.572Z" fill="white"/>
<path d="M303.451 178.553C303.451 179.14 303.277 179.714 302.951 180.202C302.625 180.69 302.161 181.07 301.619 181.295C301.077 181.519 300.48 181.578 299.905 181.463C299.329 181.349 298.801 181.066 298.386 180.651C297.971 180.236 297.688 179.708 297.574 179.132C297.459 178.557 297.518 177.96 297.742 177.418C297.967 176.876 298.347 176.412 298.835 176.086C299.323 175.76 299.897 175.586 300.484 175.586C301.271 175.586 302.025 175.899 302.582 176.455C303.138 177.012 303.451 177.766 303.451 178.553Z" fill="#A4E0EA"/>
<path d="M189.062 132.831C189.062 133.102 188.982 133.366 188.831 133.591C188.681 133.816 188.467 133.991 188.218 134.095C187.968 134.198 187.693 134.225 187.427 134.173C187.162 134.12 186.918 133.989 186.727 133.798C186.536 133.607 186.406 133.363 186.353 133.098C186.3 132.833 186.327 132.558 186.431 132.308C186.534 132.058 186.71 131.844 186.934 131.694C187.159 131.544 187.424 131.464 187.694 131.464C188.057 131.464 188.405 131.608 188.661 131.864C188.918 132.121 189.062 132.469 189.062 132.831Z" fill="#A4E0EA"/>
<path d="M291.518 148.25C291.52 148.523 291.44 148.79 291.29 149.017C291.14 149.244 290.926 149.422 290.675 149.527C290.423 149.632 290.147 149.661 289.879 149.609C289.612 149.556 289.366 149.426 289.173 149.234C288.98 149.042 288.848 148.797 288.794 148.53C288.74 148.263 288.767 147.986 288.871 147.734C288.975 147.482 289.151 147.267 289.378 147.115C289.604 146.964 289.87 146.883 290.143 146.883C290.323 146.882 290.502 146.916 290.668 146.985C290.835 147.053 290.987 147.153 291.115 147.281C291.243 147.408 291.344 147.559 291.413 147.725C291.483 147.892 291.518 148.07 291.518 148.25Z" fill="#A4E0EA"/>
<path d="M119.347 221.628C119.347 221.898 119.267 222.163 119.117 222.388C118.967 222.613 118.753 222.788 118.503 222.891C118.253 222.995 117.978 223.022 117.713 222.969C117.448 222.916 117.204 222.786 117.013 222.595C116.822 222.404 116.691 222.16 116.639 221.895C116.586 221.629 116.613 221.354 116.716 221.104C116.82 220.855 116.995 220.641 117.22 220.491C117.445 220.34 117.709 220.26 117.98 220.26C118.343 220.26 118.69 220.404 118.947 220.661C119.203 220.917 119.347 221.265 119.347 221.628Z" fill="#A4E0EA"/>
<path d="M186.095 72.9616C186.095 73.2321 186.015 73.4965 185.865 73.7214C185.714 73.9463 185.501 74.1216 185.251 74.2251C185.001 74.3286 184.726 74.3556 184.461 74.3029C184.195 74.2501 183.952 74.1199 183.76 73.9286C183.569 73.7373 183.439 73.4937 183.386 73.2284C183.333 72.9631 183.36 72.6881 183.464 72.4382C183.567 72.1883 183.743 71.9747 183.968 71.8245C184.193 71.6742 184.457 71.594 184.727 71.594C185.09 71.594 185.438 71.7381 185.694 71.9946C185.951 72.251 186.095 72.5989 186.095 72.9616Z" fill="#A4E0EA"/>
<path d="M425.757 166.853C425.757 167.44 425.583 168.013 425.257 168.501C424.931 168.989 424.468 169.37 423.926 169.594C423.384 169.819 422.787 169.877 422.211 169.763C421.636 169.648 421.107 169.366 420.692 168.951C420.277 168.536 419.995 168.007 419.88 167.432C419.766 166.856 419.825 166.26 420.049 165.717C420.274 165.175 420.654 164.712 421.142 164.386C421.63 164.06 422.204 163.886 422.79 163.886C423.577 163.888 424.33 164.201 424.886 164.757C425.442 165.313 425.755 166.067 425.757 166.853Z" fill="#A4E0EA"/>
<path d="M75.3687 2.96709C75.3687 3.55392 75.1947 4.12758 74.8687 4.61552C74.5427 5.10345 74.0793 5.48375 73.5371 5.70832C72.995 5.93289 72.3984 5.99165 71.8228 5.87717C71.2473 5.76268 70.7186 5.48009 70.3036 5.06514C69.8887 4.65018 69.6061 4.1215 69.4916 3.54594C69.3771 2.97038 69.4359 2.3738 69.6604 1.83163C69.885 1.28947 70.2653 0.826073 70.7532 0.500045C71.2412 0.174017 71.8148 0 72.4017 0C73.1886 0 73.9433 0.312605 74.4997 0.869042C75.0561 1.42548 75.3687 2.18017 75.3687 2.96709Z" fill="#A4E0EA"/>
<path d="M5.93418 75.7928C5.93418 76.3796 5.76017 76.9533 5.43414 77.4412C5.10811 77.9291 4.64471 78.3094 4.10255 78.534C3.56038 78.7586 2.9638 78.8173 2.38824 78.7029C1.81268 78.5884 1.284 78.3058 0.869041 77.8908C0.454086 77.4759 0.171499 76.9472 0.0570131 76.3716C-0.0574727 75.7961 0.00128575 75.1995 0.225858 74.6573C0.45043 74.1152 0.83073 73.6518 1.31867 73.3257C1.8066 72.9997 2.38026 72.8257 2.96709 72.8257C3.75401 72.8257 4.5087 73.1383 5.06514 73.6947C5.62158 74.2512 5.93418 75.0059 5.93418 75.7928Z" fill="#A4E0EA"/>
<path d="M54.9352 258.985C54.9352 259.571 54.7611 260.145 54.4351 260.633C54.1091 261.121 53.6457 261.501 53.1035 261.726C52.5614 261.95 51.9648 262.009 51.3892 261.895C50.8137 261.78 50.285 261.498 49.87 261.083C49.4551 260.668 49.1725 260.139 49.058 259.564C48.9435 258.988 49.0023 258.391 49.2268 257.849C49.4514 257.307 49.8317 256.844 50.3196 256.518C50.8076 256.192 51.3812 256.018 51.9681 256.018C52.755 256.018 53.5097 256.33 54.0661 256.887C54.6226 257.443 54.9352 258.198 54.9352 258.985Z" fill="#A4E0EA"/>
<path d="M472.375 295.725C472.375 296.312 472.201 296.886 471.875 297.374C471.549 297.862 471.086 298.242 470.543 298.467C470.001 298.691 469.405 298.75 468.829 298.635C468.254 298.521 467.725 298.238 467.31 297.823C466.895 297.408 466.612 296.88 466.498 296.304C466.383 295.729 466.442 295.132 466.667 294.59C466.891 294.048 467.272 293.584 467.76 293.258C468.248 292.932 468.821 292.758 469.408 292.758C470.195 292.758 470.95 293.071 471.506 293.627C472.062 294.184 472.375 294.938 472.375 295.725Z" fill="#A4E0EA"/>
<path d="M171.044 201.506V127.377C171.043 126.806 171.154 126.24 171.372 125.713C171.59 125.185 171.909 124.705 172.313 124.301C172.716 123.897 173.195 123.576 173.723 123.358C174.25 123.139 174.815 123.026 175.386 123.026C176.54 123.026 177.647 122.568 178.463 121.752C179.279 120.936 179.737 119.83 179.737 118.676V116.764C179.737 115.61 179.279 114.504 178.463 113.688C177.647 112.872 176.54 112.414 175.386 112.414H133.887C132.734 112.416 131.629 112.875 130.813 113.69C129.998 114.506 129.539 115.611 129.536 116.764V118.676C129.539 119.829 129.998 120.934 130.813 121.75C131.629 122.565 132.734 123.024 133.887 123.026C135.041 123.026 136.148 123.485 136.964 124.301C137.779 125.117 138.238 126.223 138.238 127.377V201.506C138.239 202.331 138.003 203.139 137.558 203.834L68.5552 312.6C68.1384 313.258 67.9061 314.016 67.8824 314.795C67.8587 315.574 68.0445 316.344 68.4204 317.027C68.7963 317.709 69.3485 318.278 70.0193 318.674C70.6901 319.07 71.455 319.279 72.234 319.278H237.047C237.827 319.28 238.592 319.072 239.264 318.676C239.935 318.28 240.487 317.71 240.863 317.027C241.238 316.344 241.423 315.573 241.397 314.794C241.372 314.015 241.137 313.257 240.718 312.6L171.716 203.834C171.276 203.137 171.043 202.33 171.044 201.506Z" fill="#A4E0EA"/>
<path d="M256.865 145.883V147.523C256.868 148.505 256.48 149.449 255.787 150.146C255.094 150.843 254.153 151.237 253.171 151.242C252.18 151.241 251.23 151.633 250.527 152.332C249.824 153.03 249.426 153.978 249.42 154.968V293.998C249.42 300.707 246.755 307.141 242.011 311.885C237.267 316.629 230.832 319.294 224.124 319.294C217.415 319.294 210.98 316.629 206.236 311.885C201.492 307.141 198.827 300.707 198.827 293.998V154.968C198.827 153.992 198.445 153.055 197.761 152.358C197.078 151.661 196.148 151.26 195.172 151.242C194.176 151.25 193.217 150.864 192.505 150.167C191.793 149.47 191.386 148.519 191.374 147.523V145.883C191.376 144.896 191.769 143.95 192.468 143.253C193.167 142.556 194.113 142.164 195.1 142.164H253.139C254.126 142.164 255.072 142.556 255.771 143.253C256.47 143.95 256.863 144.896 256.865 145.883Z" fill="#A4E0EA"/>
<path d="M462.002 253.242C462.01 266.325 458.806 279.209 452.67 290.764C446.535 302.318 437.655 312.19 426.813 319.51H337.448C325.541 311.528 316.002 300.488 309.832 287.549C303.661 274.61 301.087 260.248 302.378 245.972C303.67 231.695 308.78 218.029 317.172 206.407C325.565 194.786 336.93 185.637 350.076 179.921C353.408 178.464 356.242 176.066 358.231 173.022C360.22 169.977 361.277 166.419 361.273 162.782V90.6922C361.275 89.9691 361.134 89.2526 360.858 88.5841C360.582 87.9156 360.177 87.3082 359.666 86.7968C359.155 86.2854 358.547 85.8802 357.879 85.6045C357.21 85.3287 356.494 85.1878 355.77 85.1899C355.048 85.191 354.332 85.0497 353.664 84.7741C352.996 84.4986 352.389 84.0942 351.877 83.584C351.366 83.0738 350.96 82.4678 350.682 81.8006C350.405 81.1335 350.261 80.4182 350.26 79.6956V77.2963C350.26 76.5735 350.403 75.8577 350.68 75.1901C350.957 74.5224 351.363 73.916 351.875 73.4056C352.387 72.8952 352.995 72.4908 353.663 72.2157C354.331 71.9405 355.048 71.7999 355.77 71.802H408.298C409.756 71.802 411.153 72.3809 412.183 73.4113C413.214 74.4417 413.793 75.8392 413.793 77.2963V79.6956C413.798 80.4173 413.659 81.1327 413.384 81.8C413.11 82.4674 412.705 83.0733 412.193 83.5824C411.186 84.5839 409.83 85.157 408.41 85.1819C406.942 85.1817 405.532 85.7583 404.485 86.7876C403.438 87.8168 402.837 89.2162 402.812 90.6842V162.774C402.808 166.411 403.866 169.971 405.854 173.017C407.843 176.062 410.677 178.462 414.009 179.921C428.276 186.146 440.416 196.399 448.942 209.423C457.467 222.447 462.006 237.676 462.002 253.242Z" fill="#A4E0EA"/>
<path d="M171.891 227.346C171.678 227.617 171.406 227.836 171.096 227.987C170.785 228.138 170.445 228.217 170.1 228.218C169.598 228.218 169.111 228.049 168.716 227.738L143.212 207.808C142.975 207.625 142.777 207.396 142.63 207.135C142.482 206.874 142.387 206.587 142.352 206.289C142.316 205.991 142.34 205.69 142.421 205.401C142.503 205.113 142.642 204.844 142.828 204.609C143.036 204.345 143.301 204.131 143.603 203.982C143.904 203.834 144.236 203.756 144.572 203.753C145.075 203.753 145.564 203.919 145.963 204.225L171.5 224.163C171.735 224.346 171.932 224.574 172.079 224.833C172.226 225.092 172.32 225.378 172.357 225.673C172.393 225.969 172.371 226.269 172.291 226.556C172.211 226.843 172.075 227.112 171.891 227.346Z" fill="#5499DE"/>
<path d="M150.09 210.559C149.787 210.941 149.401 211.251 148.963 211.464C148.524 211.677 148.043 211.789 147.555 211.791C146.844 211.788 146.155 211.549 145.595 211.111L109.43 182.88C109.099 182.621 108.822 182.299 108.615 181.933C108.408 181.567 108.275 181.164 108.224 180.747C108.172 180.329 108.204 179.906 108.316 179.501C108.429 179.096 108.62 178.717 108.879 178.385C109.137 178.054 109.459 177.777 109.825 177.57C110.191 177.363 110.594 177.23 111.012 177.178C111.429 177.127 111.852 177.159 112.257 177.271C112.663 177.383 113.042 177.574 113.373 177.833L149.538 206.057C149.871 206.315 150.149 206.637 150.357 207.004C150.565 207.371 150.699 207.775 150.75 208.193C150.801 208.612 150.769 209.036 150.656 209.442C150.543 209.848 150.35 210.228 150.09 210.559Z" fill="white"/>
<path d="M150.09 210.56L108.871 178.385C109.129 178.053 109.451 177.774 109.818 177.566C110.185 177.358 110.589 177.225 111.007 177.173C111.426 177.122 111.85 177.154 112.256 177.267C112.662 177.381 113.042 177.573 113.373 177.834L149.538 206.057C149.871 206.316 150.149 206.638 150.357 207.004C150.565 207.371 150.699 207.775 150.75 208.194C150.801 208.612 150.769 209.036 150.656 209.442C150.543 209.848 150.35 210.228 150.09 210.56Z" fill="#EDEEEF"/>
<path d="M354.019 167.309C354.044 188.245 347.361 208.638 334.948 225.498C322.535 242.358 305.046 254.797 285.047 260.99C265.048 267.183 243.59 266.805 223.821 259.911C204.053 253.017 187.013 239.97 175.202 222.684C174.802 222.132 174.402 221.564 174.05 220.996L179.081 217.701L195.684 206.8C195.868 207.088 196.06 207.352 196.243 207.6C204.877 220.407 217.394 230.103 231.952 235.262C246.51 240.42 262.34 240.767 277.111 236.252C291.881 231.737 304.811 222.599 313.998 210.183C323.184 197.767 328.141 182.73 328.139 167.285C328.108 155.942 325.415 144.765 320.275 134.654C315.136 124.543 307.694 115.78 298.548 109.07C295.191 106.596 291.621 104.426 287.879 102.584C287.551 102.4 287.224 102.241 286.88 102.089L297.972 78.7197C303.789 81.4738 309.314 84.8069 314.463 88.6687C326.702 97.8123 336.647 109.677 343.512 123.325C350.377 136.973 353.974 152.031 354.019 167.309Z" fill="#5499DE"/>
<path d="M343.375 167.86C343.382 186.464 337.383 204.573 326.269 219.493C315.155 234.412 299.521 245.345 281.694 250.663C263.866 255.982 244.798 255.402 227.327 249.01C209.855 242.619 194.914 230.757 184.728 215.19L196.26 207.624L203.794 202.682C208.92 210.529 215.719 217.146 223.702 222.058C231.686 226.97 240.657 230.055 249.973 231.094C259.288 232.132 268.719 231.098 277.588 228.065C286.457 225.031 294.546 220.074 301.275 213.548C308.003 207.023 313.206 199.089 316.509 190.317C319.813 181.545 321.135 172.151 320.383 162.808C319.63 153.464 316.821 144.403 312.155 136.273C307.49 128.143 301.085 121.145 293.398 115.78C290.495 113.731 287.421 111.935 284.209 110.414L287.904 102.633L293.974 89.8364C298.696 92.0839 303.202 94.7611 307.434 97.834C318.513 105.854 327.543 116.376 333.788 128.544C340.033 140.713 343.318 154.183 343.375 167.86Z" fill="#6AB4E5"/>
<g style="mix-blend-mode:multiply" opacity="0.5">
<path d="M213.486 214.238L212.407 215.606L208.08 221.164L199.419 232.265L192.141 241.606C185.692 236.066 179.997 229.705 175.202 222.684L179.081 217.701L195.684 206.8C195.868 207.088 196.06 207.352 196.244 207.6L203.777 202.658C206.544 206.888 209.804 210.775 213.486 214.238Z" fill="#307AB7"/>
</g>
<g style="mix-blend-mode:multiply" opacity="0.5">
<path d="M314.488 88.6928L307.434 97.754L298.573 109.095L293.398 115.78C290.495 113.731 287.421 111.935 284.209 110.414L287.904 102.632C287.576 102.449 287.248 102.289 286.904 102.137L297.997 78.7678C303.813 81.5143 309.338 84.8394 314.488 88.6928Z" fill="#307AB7"/>
</g>
<path d="M217.438 202.586L215.27 205.385L209.808 212.351L183.352 246.276L163.662 230.905L190.118 196.98L195.58 190.014L197.748 187.215L217.438 202.586Z" fill="#94CCF2"/>
<path d="M348.501 25.6641L347.645 26.8158L319.846 62.4608L313.072 71.1142L297.333 58.7979L298.908 56.7906L304.074 50.1846L331.914 14.4915L332.77 13.3799L337.76 17.2667L348.501 25.6641Z" fill="#4A94D1"/>
<g style="mix-blend-mode:multiply" opacity="0.5">
<path d="M319.846 62.4608L313.072 71.1141L297.333 58.7979L298.908 56.7905L304.074 50.1846L307.481 52.8238L318.822 61.653L319.846 62.4608Z" fill="#307AB7"/>
</g>
<path d="M352.86 25.8802C352.626 26.1817 352.327 26.4257 351.984 26.5935C351.642 26.7612 351.266 26.8483 350.884 26.8479C350.327 26.8506 349.786 26.6645 349.349 26.3201L331.954 12.7403C331.681 12.5446 331.45 12.2957 331.275 12.0086C331.101 11.7215 330.986 11.4021 330.937 11.0695C330.889 10.7369 330.909 10.3979 330.995 10.0731C331.081 9.74816 331.231 9.44399 331.438 9.17879C331.644 8.91359 331.902 8.69283 332.196 8.52975C332.49 8.36667 332.814 8.26464 333.148 8.22977C333.482 8.19491 333.82 8.22793 334.141 8.32685C334.463 8.42578 334.76 8.58857 335.017 8.80546L352.428 22.4013C352.939 22.8104 353.271 23.403 353.351 24.0529C353.432 24.7028 353.256 25.3585 352.86 25.8802Z" fill="white"/>
<g style="mix-blend-mode:multiply" opacity="0.5">
<path d="M348.509 25.6641L347.637 26.7997L331.906 14.5075L332.786 13.3718L337.736 17.2506L348.509 25.6641Z" fill="#307AB7"/>
</g>
<path d="M319.838 76.3764L268.966 141.556L239.687 118.715L240.486 117.732L290.583 53.5354C291.929 51.8152 293.902 50.6986 296.069 50.4302C298.237 50.1619 300.423 50.7637 302.147 52.1039L309.713 58.0141L318.438 64.828C319.289 65.494 320 66.3212 320.531 67.2622C321.062 68.2032 321.402 69.2396 321.532 70.3121C321.662 71.3847 321.579 72.4723 321.288 73.5128C320.998 74.5534 320.505 75.5265 319.838 76.3764Z" fill="#5499DE"/>
<path d="M275.172 153.729C274.74 154.292 274.184 154.748 273.548 155.062C272.911 155.375 272.211 155.538 271.501 155.536C270.451 155.531 269.433 155.176 268.606 154.529L215.902 113.381C214.974 112.6 214.384 111.489 214.258 110.282C214.132 109.075 214.479 107.866 215.226 106.91C215.973 105.954 217.062 105.325 218.264 105.155C219.465 104.985 220.686 105.288 221.668 106L274.372 147.171C274.856 147.548 275.261 148.017 275.563 148.552C275.866 149.086 276.06 149.675 276.134 150.284C276.208 150.893 276.162 151.511 275.996 152.102C275.831 152.693 275.551 153.246 275.172 153.729Z" fill="white"/>
<path d="M197.747 187.215L195.58 190.014L190.117 196.98L202.834 206.905L198.563 212.351L176.37 240.814L183.351 246.276L209.807 212.351L215.27 205.385L217.437 202.586L197.747 187.215Z" fill="#75B8EF"/>
<path d="M224.043 205.449C223.382 206.284 222.541 206.96 221.583 207.425C220.625 207.89 219.574 208.133 218.509 208.136C216.955 208.134 215.446 207.613 214.222 206.656L135.214 145.003C133.751 143.861 132.801 142.184 132.574 140.342C132.346 138.499 132.86 136.642 134.003 135.178C135.145 133.715 136.822 132.765 138.664 132.538C140.507 132.311 142.364 132.825 143.828 133.967L222.819 195.62C223.546 196.184 224.154 196.887 224.608 197.686C225.063 198.486 225.356 199.368 225.469 200.281C225.583 201.194 225.516 202.12 225.271 203.007C225.026 203.894 224.609 204.723 224.043 205.449Z" fill="white"/>
<path d="M331.018 90.2283C331.01 93.8571 329.927 97.4021 327.905 100.415C325.883 103.429 323.013 105.775 319.658 107.158C316.303 108.541 312.614 108.898 309.056 108.185C305.498 107.471 302.231 105.719 299.669 103.15C297.106 100.581 295.362 97.3094 294.658 93.7495C293.954 90.1897 294.321 86.501 295.713 83.1497C297.104 79.7983 299.458 76.9347 302.477 74.9206C305.495 72.9065 309.043 71.8324 312.672 71.834C315.085 71.834 317.475 72.3101 319.704 73.2351C321.933 74.1601 323.958 75.5158 325.662 77.2245C327.366 78.9332 328.716 80.9613 329.636 83.1928C330.555 85.4242 331.025 87.815 331.018 90.2283Z" fill="white"/>
<path d="M324.86 90.2283C324.86 92.6389 324.146 94.9954 322.806 96.9997C321.467 99.0041 319.564 100.566 317.336 101.489C315.109 102.411 312.659 102.653 310.294 102.182C307.93 101.712 305.758 100.551 304.054 98.8467C302.349 97.1421 301.188 94.9704 300.718 92.6061C300.248 90.2418 300.489 87.7912 301.412 85.5641C302.334 83.3369 303.896 81.4334 305.901 80.0941C307.905 78.7549 310.262 78.04 312.672 78.04C315.904 78.0422 319.003 79.327 321.288 81.6122C323.573 83.8975 324.858 86.9964 324.86 90.2283Z" fill="#F9CB44"/>
<path d="M252.492 101.113L281.494 123.747C282.371 124.432 282.941 125.438 283.078 126.543C283.214 127.648 282.905 128.762 282.22 129.64L270.761 144.324L235.114 116.504L246.583 101.807C246.925 101.373 247.349 101.01 247.831 100.74C248.314 100.47 248.844 100.297 249.393 100.233C249.942 100.168 250.499 100.213 251.03 100.364C251.562 100.515 252.059 100.769 252.492 101.113Z" fill="#4B85C4"/>
<path d="M224.043 205.449L134.015 135.175C135.16 133.714 136.837 132.766 138.68 132.54C140.522 132.314 142.379 132.827 143.844 133.967L222.835 195.62C223.561 196.186 224.167 196.889 224.62 197.689C225.074 198.49 225.365 199.371 225.477 200.284C225.589 201.197 225.52 202.123 225.274 203.009C225.028 203.896 224.61 204.725 224.043 205.449Z" fill="#EDEEEF"/>
<path d="M275.171 153.729L215.07 106.839C215.835 105.863 216.956 105.23 218.187 105.08C219.419 104.93 220.659 105.275 221.636 106.039L274.372 147.171C274.856 147.548 275.261 148.017 275.563 148.552C275.865 149.086 276.059 149.674 276.133 150.284C276.208 150.893 276.161 151.511 275.996 152.102C275.831 152.693 275.551 153.246 275.171 153.729Z" fill="#DFE5EA"/>
<path d="M352.86 25.88L331.954 9.58896L331.499 9.22907C331.734 8.93094 332.034 8.69031 332.376 8.52542C332.719 8.36053 333.094 8.27571 333.474 8.27737C334.028 8.27776 334.566 8.46358 335.001 8.80521L352.412 22.401C352.926 22.8078 353.26 23.3993 353.344 24.0493C353.428 24.6994 353.254 25.3563 352.86 25.88Z" fill="#EFEFEF"/>
<path d="M167.421 287.696H327.899C329.893 287.696 331.805 288.488 333.215 289.898C334.625 291.308 335.417 293.22 335.417 295.213V318.302C335.417 318.527 335.328 318.743 335.169 318.902C335.01 319.061 334.794 319.15 334.569 319.15H160.751C160.526 319.15 160.31 319.061 160.151 318.902C159.992 318.743 159.903 318.527 159.903 318.302V295.213C159.903 293.22 160.695 291.308 162.105 289.898C163.515 288.488 165.427 287.696 167.421 287.696Z" fill="#4B85C4"/>
<path d="M335.385 311.888H159.903V319.15H335.385V311.888Z" fill="#3F76A8"/>
<path d="M207.856 287.728C207.856 287.728 236.695 284.841 252.114 268.934C260.64 260.136 267.31 239.886 271.005 228.482C272.341 224.386 275.206 220.963 279.002 218.925C281.056 217.808 283.321 217.132 285.652 216.941C287.982 216.75 290.327 217.047 292.536 217.814C294.744 218.581 296.769 219.801 298.479 221.396C300.189 222.99 301.547 224.925 302.467 227.074L328.491 287.728" fill="#5499DE"/>
<path d="M227.399 127.092L218.547 120.184L206.192 136.015L215.043 142.924L227.399 127.092Z" fill="white"/>
<path d="M227.402 127.087L224.483 124.809L212.128 140.64L215.047 142.918L227.402 127.087Z" fill="#75B8EF"/>
<path d="M231.145 125.285L219.393 116.114L217.1 119.052L228.852 128.223L231.145 125.285Z" fill="#5499DE"/>
<path d="M244.095 140.108L235.243 133.199L222.888 149.031L231.74 155.939L244.095 140.108Z" fill="white"/>
<path d="M244.091 140.114L241.172 137.835L228.817 153.667L231.736 155.945L244.091 140.114Z" fill="#75B8EF"/>
<path d="M247.832 138.309L236.08 129.137L233.787 132.075L245.539 141.247L247.832 138.309Z" fill="#5499DE"/>
<path d="M260.789 153.136L251.937 146.228L239.582 162.059L248.434 168.968L260.789 153.136Z" fill="white"/>
<path d="M260.787 153.137L257.868 150.859L245.512 166.69L248.431 168.968L260.787 153.137Z" fill="#75B8EF"/>
<path d="M264.535 151.329L252.783 142.157L250.49 145.095L262.242 154.267L264.535 151.329Z" fill="#5499DE"/>
<path d="M303.218 244.256C304.685 235.635 298.886 227.456 290.264 225.989C281.643 224.521 273.464 230.321 271.997 238.942C270.529 247.564 276.328 255.742 284.95 257.21C293.571 258.677 301.75 252.878 303.218 244.256Z" fill="#5499DE"/>
<path d="M299.209 243.495C300.253 237.091 295.908 231.053 289.504 230.009C283.1 228.965 277.063 233.31 276.018 239.714C274.974 246.118 279.319 252.156 285.723 253.2C292.127 254.244 298.165 249.899 299.209 243.495Z" fill="#F9CB44"/>
<path d="M176.37 227.306C176.37 228.097 176.135 228.87 175.696 229.528C175.256 230.185 174.632 230.698 173.901 231.001C173.17 231.303 172.366 231.382 171.591 231.228C170.815 231.074 170.103 230.693 169.543 230.134C168.984 229.574 168.603 228.862 168.449 228.086C168.295 227.311 168.374 226.507 168.676 225.776C168.979 225.045 169.492 224.421 170.149 223.981C170.807 223.542 171.58 223.307 172.371 223.307C173.431 223.307 174.449 223.729 175.198 224.479C175.948 225.228 176.37 226.246 176.37 227.306Z" fill="white"/>
<path d="M172.371 229.506C173.586 229.506 174.571 228.521 174.571 227.306C174.571 226.092 173.586 225.107 172.371 225.107C171.157 225.107 170.172 226.092 170.172 227.306C170.172 228.521 171.157 229.506 172.371 229.506Z" fill="#F9CB44"/>
<path d="M126.846 165.42L71.1449 170.44C70.1771 170.527 69.4633 171.383 69.5505 172.35L70.9856 188.273C71.0728 189.241 71.9281 189.955 72.8959 189.867L128.597 184.847C129.565 184.76 130.279 183.905 130.191 182.937L128.756 167.014C128.669 166.047 127.814 165.333 126.846 165.42Z" fill="#88D5FF"/>
<path d="M112.821 190.869C112.821 190.869 112.877 190.07 112.933 189.182C112.937 188.662 112.822 188.148 112.597 187.678C112.55 187.218 112.55 186.755 112.597 186.295L113.709 186.191C114.052 185.692 114.367 185.174 114.653 184.639C114.782 184.393 114.851 184.118 114.853 183.84C114.849 183.444 114.871 183.049 114.917 182.656C114.965 182.096 115.42 181.856 115.596 182.552C115.713 183.142 115.761 183.743 115.74 184.343C115.594 184.936 115.396 185.514 115.148 186.071C115.148 186.071 116.852 187.055 116.9 187.383C116.948 187.71 116.172 188.982 115.564 191.381" fill="#FE9393"/>
<path d="M115.516 182.8C115.516 182.8 115.348 182 115.7 181.928C116.052 181.856 116.164 182.464 116.252 182.8C116.34 183.136 116.508 184.216 116.572 184.575C116.385 185.423 116.117 186.25 115.772 187.047L114.829 186.159L115.308 183.712" fill="#FE9393"/>
<path d="M116.18 183.28C116.18 183.28 116.132 182.704 116.404 182.576C116.676 182.448 116.828 182.944 116.916 183.28C117.004 183.616 117.172 184.695 117.228 185.055C117.043 185.901 116.776 186.726 116.428 187.519L115.468 186.671L115.94 184.216" fill="#FE9393"/>
<path d="M117.236 183.576C117.23 183.922 117.265 184.269 117.34 184.607C117.305 184.889 117.212 185.162 117.068 185.407L116.437 187.222L116.748 188.022L117.732 185.735L117.9 185.271C117.988 185 118.002 184.71 117.94 184.431C117.804 183.823 117.516 182.904 117.236 183.576Z" fill="#FE9393"/>
<path d="M83.4146 193.62C83.777 192.755 84.0868 191.868 84.3423 190.965C84.3423 190.661 83.7425 189.086 83.6545 188.782C83.5927 187.915 83.693 187.045 83.9504 186.215C84.2063 185.871 84.4542 186.119 84.5582 186.471C84.655 186.893 84.7086 187.325 84.7182 187.758C84.7182 187.982 85.254 188.758 85.254 188.758L88.0211 188.51L88.9968 188.422C88.9015 188.891 88.776 189.353 88.621 189.806C88.4213 190.244 88.1197 190.628 87.7412 190.925C87.2239 191.883 86.8109 192.894 86.5096 193.94" fill="#FE9393"/>
<path d="M93.9473 308.065V312.064C94.8653 312.321 95.8363 312.321 96.7544 312.064L97.2742 308.065" fill="#FE9393"/>
<path d="M68.419 305.058L67.3633 308.945C68.1797 309.434 69.1149 309.688 70.0664 309.681L71.666 305.93" fill="#FE9393"/>
<path d="M83.3822 193.077C84.592 193.191 85.7854 193.437 86.9412 193.812C86.9412 193.812 85.3416 203.553 83.7901 207.312C82.5265 210.327 84.9338 218.437 84.9338 218.437L80.3672 221.54C80.3672 221.54 78.2318 210.559 77.9679 207.824C77.704 205.089 83.3822 193.077 83.3822 193.077Z" fill="white"/>
<path d="M89.3806 249.132C89.2538 253.207 88.7559 257.263 87.8931 261.248C87.1733 264.871 86.2936 268.646 85.3019 272.189C84.3102 275.731 83.3665 279.082 82.4867 281.786C79.6556 290.663 71.714 307.762 71.714 307.762C69.7467 307.93 67.2114 306.426 67.2114 306.426C67.2114 306.426 71.4181 286.528 74.2813 280.482C74.4892 278.97 74.5932 270.501 75.3529 264.263C75.7063 261.071 75.6606 257.847 75.217 254.666C74.9399 251.874 75.2449 249.056 76.1127 246.388L89.3806 249.132Z" fill="#2034AA"/>
<path d="M87.8929 261.248C87.1731 264.871 86.2934 268.646 85.3017 272.189C83.4766 266.549 82.3302 260.713 81.8867 254.802C81.8867 254.802 86.1494 259.545 87.8929 261.248Z" fill="#102772"/>
<path d="M97.7942 247.396C97.7942 247.396 99.9056 272.188 100.042 281.786C100.177 291.383 97.5143 310.153 97.5143 310.153C97.5143 310.153 96.0347 310.721 93.1556 310.009C93.1556 310.009 90.7564 289.759 91.876 282.017C91.876 282.017 86.7016 270.093 84.0944 262.024C83.5906 260.48 82.7268 257.513 82.3749 256.217C81.7336 253.916 81.7305 251.483 82.3658 249.179C83.0012 246.876 84.2512 244.789 85.9818 243.141" fill="#2034AA"/>
<path d="M112.134 190.55C112.134 190.55 109.334 201.626 106.799 207.496C100.545 211.719 94.3231 216.47 94.3231 216.47L87.9251 214.766C84.726 216.654 82.3828 220.972 80.9832 228.274C79.5836 235.576 65.5239 274.708 65.5239 274.708C78.7519 281.706 102.737 276.203 102.737 276.203C102.737 276.203 99.5375 239.942 99.5375 232.097C99.5482 229.601 100.074 227.134 101.083 224.851C102.092 222.568 103.562 220.518 105.4 218.829C108.183 216.262 110.958 213.319 112.214 211.263C114.813 204.689 116.116 191.269 116.116 191.269C114.925 190.541 113.505 190.284 112.134 190.55Z" fill="white"/>
<path d="M94.6191 214.15C94.3768 214.909 94.2738 215.706 94.3152 216.502C93.6954 216.708 93.0367 216.77 92.3894 216.682C91.7421 216.595 91.1233 216.361 90.5803 215.998C88.7649 214.75 90.5803 212.399 90.5803 212.399H95.3308C95.0298 212.955 94.7911 213.542 94.6191 214.15Z" fill="#FE9393"/>
<path d="M95.3546 212.375C95.0452 212.93 94.7985 213.517 94.6188 214.126C93.8028 214.214 92.9814 214.019 92.2915 213.575L93.0913 212.375H95.3546Z" fill="#E15F60"/>
<path d="M95.2269 203.114C96.0737 204.844 96.6895 206.678 97.0583 208.568C97.1834 209.304 97.0999 210.061 96.8173 210.752C96.5346 211.443 96.064 212.041 95.4588 212.479C95.0149 212.783 94.5468 213.051 94.0592 213.279C93.3938 213.6 92.6448 213.705 91.9166 213.581C91.1883 213.456 90.5171 213.107 89.9965 212.583C89.2431 211.812 88.612 210.93 88.125 209.968C85.3659 204.849 91.2921 199.107 95.2269 203.114Z" fill="#FE9393"/>
<path d="M92.5639 197.731C93.4776 198.011 94.2697 198.592 94.8112 199.379C97.3784 203.809 93.5796 207.064 91.5322 207.448C91.1484 209.464 91.3963 212.015 91.3083 213.79C91.1644 216.629 93.7076 228.594 88.8051 230.833C87.4775 231.449 85.766 230.457 83.0948 232.073C80.4237 233.688 74.1856 232.281 75.4492 226.474C76.7128 220.668 82.7669 218.309 84.5184 212.695C85.1022 210.831 83.7746 209.4 83.3987 208.08C83.0501 206.959 82.9661 205.773 83.1534 204.614C83.3408 203.455 83.7943 202.356 84.4784 201.402C85.9899 199.091 89.3409 196.923 92.5639 197.731Z" fill="#2437B0"/>
<path d="M91.7157 207.752C91.7157 207.752 91.3078 206.952 90.724 207.384C90.0122 207.952 90.796 210.487 91.4598 210.055" fill="#FE9393"/>
<path d="M92.9717 313.32C93.0066 312.99 93.1117 312.672 93.28 312.386C93.4483 312.101 93.6759 311.855 93.9474 311.664C93.9474 311.664 94.3633 311.297 95.5469 311.664C95.9148 311.776 96.4186 312.208 96.7465 312.112C96.7465 312.112 97.4903 313.272 98.1701 314.64C98.4943 315.382 98.9108 316.081 99.4097 316.719C100.026 317.399 100.953 317.519 101.009 318.031C101.057 318.654 101.105 318.83 99.4097 318.83C99.4097 318.83 97.1144 318.262 96.4746 317.615C95.8348 316.967 92.9717 313.32 92.9717 313.32Z" fill="#2034AA"/>
<path d="M96.6902 318.782C96.3193 318.781 95.955 318.684 95.6327 318.5C95.3104 318.317 95.041 318.053 94.8507 317.735C94.1654 316.588 93.5537 315.4 93.0193 314.176C92.3955 312.36 94.8028 312.456 95.4186 313.112C96.1506 314.159 96.7825 315.273 97.306 316.439C97.9698 317.735 98.4496 318.51 99.4493 318.782H96.6902Z" fill="#112977"/>
<path d="M70.0664 309.681C70.2386 310.079 70.3127 310.512 70.2823 310.945C70.2103 311.608 69.7225 318.142 68.9067 318.702C68.5325 318.895 68.1095 318.973 67.6911 318.926C66.8913 318.926 66.6114 317.743 65.8757 315.919C65.1399 314.096 65.9236 311.033 66.1956 309.409C66.4548 308.976 66.7815 308.587 67.1633 308.258C67.3028 308.133 67.4663 308.038 67.6437 307.979C67.8211 307.92 68.0086 307.898 68.1949 307.914C68.7468 307.962 69.4985 308.194 69.4266 309.129C69.4106 309.321 69.3626 309.497 70.0664 309.681Z" fill="#2034AA"/>
<path d="M65.8996 310.001C65.9524 309.689 66.1106 309.404 66.3478 309.195C66.5851 308.985 66.887 308.863 67.2032 308.849C67.923 308.753 68.9787 309.465 68.9067 311.169C68.8347 312.872 68.7548 317.463 68.6108 318.047C68.2749 319.398 66.7794 319.038 66.3075 317.943C65.4286 315.386 65.2873 312.634 65.8996 310.001Z" fill="#112977"/>
<path d="M85.8139 199.843C85.2247 200.409 84.6053 200.943 83.9585 201.442C82.7566 202.365 81.7985 203.567 81.1673 204.945C79.5678 208.592 82.167 211.671 81.4952 212.807C80.8234 213.942 78.1442 214.142 77.9523 216.469C77.7604 218.797 78.808 219.357 77.9523 221.58C77.0966 223.803 81.3273 223.267 82.4469 221.94C83.5666 220.612 84.7822 219.141 86.2058 217.205C87.4676 215.283 88.3374 213.13 88.765 210.871C88.5944 209.13 88.1658 207.424 87.4934 205.809C86.8936 204.793 85.8139 199.843 85.8139 199.843Z" fill="#2437B0"/>
<path d="M268.862 276.419L269.286 280.698C268.777 281.079 268.181 281.326 267.552 281.416C266.924 281.507 266.282 281.439 265.687 281.218L264.599 275.867" fill="#FF9393"/>
<path d="M269.286 280.698C268.137 281.128 266.91 281.306 265.687 281.218C265.687 281.218 263.983 282.817 263.239 283.665C262.496 284.513 261.856 285.352 261.064 285.456C260.272 285.56 258.913 286.096 258.665 286.728C258.417 287.36 259.153 287.696 262.104 287.696C263.092 287.771 264.084 287.623 265.007 287.264C266.31 286.68 266.75 285.856 267.406 285.56C268.062 285.264 270.029 284.832 270.501 284.505C270.973 284.177 270.773 281.561 269.286 280.698Z" fill="#0B288A"/>
<path d="M283.665 279.306L283.465 283.601C282.908 283.905 282.284 284.064 281.649 284.064C281.015 284.064 280.391 283.905 279.834 283.601L279.522 278.147" fill="#FF9393"/>
<path d="M283.465 283.601C283.911 284.085 284.208 284.688 284.321 285.336C284.384 286.088 284.338 286.845 284.185 287.584C284.185 287.816 283.257 287.927 281.978 287.943C280.698 287.959 280.002 287.84 279.474 287.832C278.627 287.832 276.763 287.912 275.66 287.951C274.61 288.002 273.559 287.897 272.54 287.64C272.077 287.424 271.661 286.328 274.324 285.688C275.704 285.326 277.044 284.825 278.323 284.193C278.81 283.955 279.315 283.757 279.834 283.601C279.834 283.601 282.777 283.881 283.465 283.601Z" fill="#1D27A5"/>
<path d="M253.027 225.131C252.595 226.294 251.912 227.348 251.027 228.218C250.366 228.691 249.668 229.111 248.94 229.474C248.66 229.633 246.541 229.841 246.021 229.993C245.501 230.145 245.805 230.497 246.908 230.657C248.012 230.817 250.499 231.209 251.507 231.209C251.893 231.201 252.272 231.108 252.617 230.936C252.963 230.765 253.267 230.519 253.506 230.217C254.058 229.49 254.162 228.538 254.546 228.114" fill="#FF9393"/>
<path d="M286.552 221.852C286.552 221.852 288.295 223.827 288.399 228.338C288.503 232.849 286.192 244.229 285.504 246.333C284.816 248.436 284.273 250.099 282.625 251.579C280.978 253.058 276.971 251.691 276.339 249.124C275.147 244.269 272.556 223.428 272.556 223.428C272.556 223.428 282.513 220.868 286.552 221.852Z" fill="#1D27A5"/>
<path d="M280.498 231.745C279.621 234.165 278.551 236.51 277.299 238.759C276.003 241.23 274.58 243.725 273.492 245.525C272.828 246.628 272.292 247.468 271.988 247.868C270.653 249.643 269.589 251.067 267.582 251.931C265.574 252.794 262.191 250.235 262.407 247.596C262.823 242.614 267.022 222.004 267.022 222.004C267.022 222.004 277.275 222.756 280.786 224.971C280.818 224.987 281.841 227.418 280.498 231.745Z" fill="#1D27A5"/>
<path d="M277.331 238.743C276.035 241.214 274.612 243.709 273.524 245.509C273.188 238.791 273.084 227.538 273.084 227.538L277.331 238.743Z" fill="#04207A"/>
<path d="M283.841 280.242C282.318 280.424 280.781 280.469 279.25 280.378C279.25 280.378 278.234 273.676 277.731 269.589C277.275 265.878 273.068 228.498 273.084 226.586C273.1 224.675 280.938 237.943 287.112 239.015L284.84 254.938C284.84 254.938 284.568 260.384 284.768 264.447C284.968 268.51 283.833 278.443 283.841 280.242Z" fill="#1D27A5"/>
<path d="M262.991 200.25C262.991 200.25 261.296 205.273 260.392 208.744C260.08 209.936 259.113 213.494 259.113 213.494C258.152 214.869 257.263 216.292 256.449 217.757C255.114 220.396 251.507 228.53 251.507 228.53L253.642 229.114C253.642 229.114 261.736 220.26 263.455 218.045C265.175 215.83 267.678 209.288 267.678 209.288" fill="#FF9393"/>
<path d="M260.608 205.793C260.608 205.793 259.009 212.359 258.577 213.287C258.145 214.214 252.075 226.395 252.075 226.395C253.048 227.294 254.151 228.044 255.346 228.618C255.346 228.618 263.343 220.189 264.743 217.885C266.142 215.582 267.574 209.048 267.574 209.048" fill="#F2E9E9"/>
<path d="M239.286 211.751C238.294 211.867 237.288 211.786 236.327 211.511C235.048 211.175 234.336 211.831 232.96 212.311C231.585 212.791 230.289 213.191 230.273 213.407C230.257 213.623 230.145 213.863 230.793 213.879C231.815 213.707 232.827 213.477 233.824 213.191C234.08 213.191 234.24 213.711 234.584 213.99C234.928 214.27 234.768 214.486 235.072 214.726C235.376 214.966 235.296 215.302 235.679 215.478C236.063 215.654 236.175 215.974 237.055 215.79C237.935 215.606 238.503 214.718 239.886 214.494" fill="#FF9393"/>
<path d="M257.577 185.911C258.461 186.052 259.28 186.462 259.921 187.087C260.669 187.797 261.263 188.655 261.664 189.606C261.691 190.168 261.914 190.703 262.296 191.117C262.944 191.805 267.222 191.005 268.574 189.958C269.926 188.91 270.437 187.638 269.654 187.079C269.023 186.713 268.365 186.398 267.686 186.135C266.791 185.705 265.978 185.12 265.287 184.407C264.822 183.783 264.504 183.061 264.359 182.296C264.214 181.362 264.166 180.416 264.215 179.473H261.816C261.816 179.473 254.722 185.495 257.577 185.911Z" fill="#FF9393"/>
<path d="M257.577 185.911C258.46 186.052 259.279 186.462 259.92 187.087C262.751 184.256 262.567 181.728 262.567 181.728L257.945 184.983C257.945 184.983 257.761 185.359 257.577 185.911Z" fill="#FF5F60"/>
<path d="M251.979 176.122C251.979 176.122 253.098 185.399 254.826 187.622C254.826 187.622 258.664 188.022 262.727 183.28C266.79 178.537 262.287 173.867 260.76 172.883C259.232 171.899 252.866 171.299 251.979 176.122Z" fill="#FF9393"/>
<path d="M286.8 224.955C278.683 229.522 267.038 222.796 267.038 222.796C267.038 222.796 266.551 222.796 266.343 221.884C265.671 218.949 264.543 211.903 263.879 209.544C263.791 209.24 263.703 208.928 263.599 208.6C263.184 207.177 262.688 205.577 262.248 203.898C261.684 201.87 261.322 199.791 261.168 197.691C261.054 195.186 261.256 192.677 261.768 190.222C263.004 190.049 264.182 189.589 265.208 188.88C266.234 188.17 267.08 187.23 267.678 186.135C272.309 187.255 276.428 193.437 278.147 198.131C279.571 202.002 284.545 215.414 287.232 220.676C287.848 221.748 286.8 224.955 286.8 224.955Z" fill="white"/>
<path d="M265.703 179.041C265.21 179.83 264.869 180.703 264.695 181.616C264.599 182.104 264.431 182.488 264.143 182.416C263.431 182.296 263.511 181.224 263.167 180.417C262.823 179.609 262.48 179.857 261.984 179.241C261.488 178.625 261.712 177.698 261.12 177.162C260.528 176.626 259.648 176.938 259.72 177.754C259.792 178.569 260.072 179.697 259.72 179.561C259.368 179.425 258.841 177.77 258.529 177.402C258.217 177.034 257.729 177.562 256.929 177.842C256.129 178.121 256.129 177.394 254.946 176.634C253.762 175.874 253.242 177.122 252.179 177.378C251.115 177.634 248.684 175.154 249.452 173.803C250.219 172.451 252.139 173.531 252.802 172.779C253.466 172.027 252.459 169.42 255.458 168.396C258.217 167.461 259.824 170.524 260.848 170.996C261.872 171.467 263.127 170.1 264.735 171.156C266.342 172.211 264.871 174.986 265.207 176.362C265.508 177.059 265.739 177.786 265.894 178.529C265.874 178.713 265.808 178.889 265.703 179.041Z" fill="#1D27A5"/>
<path d="M271.173 198.491C271.173 198.491 270.301 202.25 263.607 208.6C263.191 207.176 262.695 205.577 262.255 203.897C263.977 202.108 265.821 200.44 267.774 198.907L271.173 198.491Z" fill="#E4F9F9"/>
<path d="M270.933 196.964C270.933 196.964 261.576 209.352 258.889 210.663C256.202 211.975 254.09 208.736 254.946 206.441C255.802 204.145 264.415 193.037 264.415 193.037" fill="#FF9393"/>
<path d="M255.73 205.273C255.73 205.273 252.171 206.721 248.828 208.304C245.717 209.634 242.531 210.782 239.287 211.743C239.287 211.743 239.079 213.678 239.887 214.494C239.887 214.494 241.246 214.286 245.029 213.646C248.812 213.007 257.281 212.255 259.337 210.383" fill="#FF9393"/>
<path d="M269.885 190.694C269.885 190.694 272.453 190.974 273.236 194.732C273.876 197.763 264.663 206.625 260.208 210.728C253.801 212.689 247.249 214.146 240.614 215.086C239.733 214.062 239.198 212.786 239.087 211.439C239.087 211.439 254.81 204.777 255.082 204.425C257.377 201.426 264.927 189.646 269.885 190.694Z" fill="white"/>
<path d="M266.422 225.723C266.422 225.723 260.872 248.772 260.688 250.003C260.24 252.986 264.687 278.666 264.687 278.666C266.288 278.687 267.883 278.471 269.421 278.027C269.421 278.027 269.757 267.046 269.757 263.407C269.757 258.609 270.101 252.962 269.853 248.516" fill="#1D27A5"/>
<path d="M265.886 218.653C265.886 218.653 266.542 233.584 266.87 240.646C267.041 243.333 267.065 246.026 266.942 248.716C274.574 250.092 282.397 250.03 290.007 248.532C290.229 243.23 290.183 237.921 289.871 232.624C289.574 227.955 288.456 223.374 286.568 219.093C285.624 216.949 284.728 215.182 284.113 213.622" fill="white"/>
<path d="M344.206 319.294L318.326 126.929H368.303L394.191 319.294" stroke="white" stroke-width="2" stroke-miterlimit="10"/>
<path d="M318.326 126.929H368.303" stroke="white" stroke-width="2" stroke-miterlimit="10"/>
<path d="M321.582 146.891H371.558" stroke="white" stroke-width="2" stroke-miterlimit="10"/>
<path d="M323.924 166.845H373.901" stroke="white" stroke-width="2" stroke-miterlimit="10"/>
<path d="M326.724 186.807H376.7" stroke="white" stroke-width="2" stroke-miterlimit="10"/>
<path d="M329.035 206.76H379.012" stroke="white" stroke-width="2" stroke-miterlimit="10"/>
<path d="M332.05 226.722H382.027" stroke="white" stroke-width="2" stroke-miterlimit="10"/>
<path d="M334.449 246.684H384.426" stroke="white" stroke-width="2" stroke-miterlimit="10"/>
<path d="M337.249 266.638H387.225" stroke="white" stroke-width="2" stroke-miterlimit="10"/>
<path d="M340.184 286.6H390.16" stroke="white" stroke-width="2" stroke-miterlimit="10"/>
<path d="M348.325 178.161L350.108 182.16C349.561 182.529 348.934 182.762 348.279 182.838C347.623 182.915 346.959 182.833 346.342 182.6L343.902 179.193" fill="#FE9393"/>
<path d="M349.74 181.36C350.297 182.086 350.734 182.896 351.036 183.76C351.144 184.441 351.144 185.134 351.036 185.815C351.036 186.031 350.188 186.303 348.973 186.407C348.182 186.456 347.388 186.397 346.613 186.231C346.11 186.191 343.998 186.743 342.959 186.855C341.964 186.981 340.955 186.957 339.967 186.783C339.512 186.607 339.312 185.143 341.527 184.791C342.847 184.444 344.098 183.871 345.222 183.096C345.557 182.87 345.927 182.703 346.317 182.6C346.317 182.6 349.269 182.416 349.74 181.36Z" fill="#252BA2"/>
<path d="M368.455 196.556L369.639 200.482C369.226 200.929 368.709 201.264 368.133 201.458C367.557 201.653 366.942 201.699 366.344 201.594L364.344 196.796" fill="#FE9393"/>
<path d="M370.958 201.746C370.654 201.193 370.195 200.74 369.638 200.442C369.103 200.922 366.368 201.594 366.368 201.594C365.951 201.902 365.558 202.242 365.192 202.61C364.72 203.09 364.168 203.673 363.592 204.209C363.291 204.307 362.98 204.371 362.665 204.401C360.433 204.601 360.529 206.081 360.977 206.281C361.949 206.525 362.952 206.617 363.952 206.553C364.247 206.564 364.543 206.54 364.832 206.481C365.657 206.034 366.509 205.639 367.383 205.297C368.175 205.251 368.958 205.101 369.71 204.849C370.854 204.425 371.622 203.945 371.542 203.737C371.456 203.046 371.259 202.374 370.958 201.746Z" fill="#252BA2"/>
<path d="M354.124 173.283C358.818 185.023 365.32 199.267 365.32 199.267C365.32 199.267 367.967 199.547 369.087 198.115C369.087 198.115 367.088 184.135 365.888 180.752C364.688 177.369 361.649 171.067 361.649 171.067L354.124 173.283Z" fill="#252BA2"/>
<path d="M361.921 157.312C361.817 159.535 361.537 170.867 361.537 170.867L353.787 171.963L352.188 165.053C351.66 162.75 351.212 160.791 350.916 159.399C350.876 159.255 350.852 159.103 350.812 158.959C348.989 150.29 347.901 142.5 347.901 142.5L360.329 139.485C361.433 141.748 361.929 143.164 362.272 147.195C362.616 151.226 362.025 155.088 361.921 157.312Z" fill="#252BA2"/>
<path d="M343.999 96.2184C343.999 96.2184 343.999 106.295 345.55 106.799C345.55 106.799 352.26 107.175 354.595 100.689C356.931 94.203 352.3 91.9557 349.909 92.0677C347.517 92.1796 344.222 91.9557 343.999 96.2184Z" fill="#FE9393"/>
<path d="M355.539 144.876C354.435 147.123 353.628 148.402 350.669 151.162C348.165 153.431 345.518 155.536 342.743 157.464C341.983 158.007 339.912 159.439 337.76 160.911C334.753 163.006 331.586 165.189 331.586 165.189L328.563 162.302C327.953 161.192 327.694 159.924 327.82 158.663C328.006 157.091 328.636 155.605 329.635 154.377L329.683 154.313C331.466 152.393 332.882 151.114 334.034 149.746C339.84 142.796 345.486 136.95 345.486 136.95L355.539 144.876Z" fill="#252BA2"/>
<path d="M348.613 178.241C348.149 179.841 344.726 181.208 344.726 181.208C344.726 181.208 337.241 172.355 329.707 163.942C329.259 163.445 328.875 162.894 328.563 162.302C327.953 161.192 327.694 159.924 327.82 158.663L332.33 155.4C332.33 155.4 335.337 158.311 337.76 160.911C338.464 161.71 339.12 162.414 339.64 163.038C341.935 165.805 348.613 178.241 348.613 178.241Z" fill="#252BA2"/>
<path d="M348.149 105.632C348.149 105.632 348.829 106.983 348.645 109.942C350.355 110.427 352.165 110.427 353.875 109.942C353.52 107.021 353.52 104.067 353.875 101.145" fill="#FE9393"/>
<path d="M341.727 93.0596C341.797 94.4074 342.371 95.6796 343.336 96.6234C344.3 97.5673 345.585 98.1137 346.933 98.154C346.933 98.154 347.429 98.362 347.469 99.6896C347.469 99.6896 347.525 98.434 348.269 98.6419C349.013 98.8498 349.005 100.809 348.645 101.241C348.285 101.673 349.085 105.168 349.349 105.32C350.751 105.489 352.169 105.489 353.571 105.32C354.219 105.128 355.931 101.713 356.459 98.7219C356.986 95.7308 356.754 94.995 355.203 94.3152C355.203 94.3152 355.851 92.1959 352.516 90.8363C349.181 89.4767 342.951 92.5318 341.727 93.0596Z" fill="#21227F"/>
<path d="M363.689 128.185C363.221 129.083 362.49 129.817 361.593 130.288C361.386 130.416 361.178 130.528 360.962 130.64C360.494 130.874 360.014 131.079 359.522 131.256L358.994 131.432L358.346 131.624L357.827 131.752L354.052 122.634L361.042 110.318C361.094 110.379 361.142 110.443 361.186 110.51C361.638 111.176 361.966 111.918 362.153 112.701C362.153 112.853 362.225 113.013 362.257 113.173C363.097 117.188 364.457 126.521 363.689 128.185Z" fill="white"/>
<path d="M361.593 130.288C361.385 130.416 361.177 130.528 360.961 130.64C360.494 130.874 360.013 131.079 359.521 131.256L358.994 131.432L359.793 117.356L361.593 130.288Z" fill="#DFE5EA"/>
<path d="M361.697 139.125C361.809 140.229 361.897 141.005 361.153 141.412C360.41 141.82 346.91 143.356 341.159 141.748C341.159 141.748 340.544 141.484 340.88 140.533C341.112 139.798 341.226 139.032 341.215 138.261C341.287 132.919 340.8 117.692 341.815 109.47C345.681 108.432 349.674 107.945 353.676 108.023C355.306 108.042 356.929 108.246 358.514 108.631L358.986 108.751C359.874 109.068 360.637 109.662 361.161 110.446C360.567 112.562 360.102 114.712 359.77 116.884C359.402 119.819 361.473 136.95 361.697 139.125Z" fill="white"/>
<path d="M353.788 171.963C353.858 172.413 353.971 172.854 354.124 173.283C354.323 173.795 358.474 173.875 358.474 173.875L360.162 173.211L361.625 171.068C361.566 170.784 361.542 170.494 361.553 170.204C361.553 169.636 355.763 170.66 355.763 170.66" fill="#252BA2"/>
<path d="M329.419 115.677L329.147 112.478C328.811 112.203 328.538 111.859 328.347 111.47C328.145 110.789 328.013 110.09 327.955 109.382C328.166 109.105 328.41 108.855 328.683 108.639C329.109 108.427 329.557 108.26 330.018 108.143C330.04 107.735 329.977 107.326 329.835 106.943C329.527 106.367 329.36 105.725 329.347 105.072C329.347 105.072 329.435 104.808 329.595 104.808C329.997 105.334 330.346 105.899 330.634 106.495C330.722 106.655 330.978 108.095 331.05 108.207C331.482 108.637 331.834 109.141 332.09 109.694C332.322 110.39 331.826 111.718 331.754 112.438C331.815 113.336 331.981 114.225 332.25 115.085" fill="#FE9393"/>
<path d="M328.507 110.182C328.507 110.182 328.587 110.926 328.603 111.262C328.619 111.598 328.331 111.79 328.219 111.646C327.983 111.287 327.812 110.889 327.715 110.47C327.775 110.103 327.856 109.74 327.955 109.382C328.017 109.152 328.097 108.928 328.195 108.711C328.22 108.669 328.255 108.635 328.297 108.611C328.339 108.587 328.387 108.575 328.435 108.575C328.483 108.575 328.531 108.587 328.573 108.611C328.615 108.635 328.65 108.669 328.675 108.711" fill="#FE9393"/>
<path d="M329.499 108.479C329.43 108.396 329.341 108.332 329.24 108.296C329.138 108.259 329.029 108.251 328.923 108.271C328.739 108.271 328.491 108.679 328.491 108.679L328.683 108.903" fill="#FE9393"/>
<path d="M330.187 108.271C330.119 108.187 330.029 108.123 329.928 108.087C329.826 108.05 329.717 108.042 329.611 108.063C329.427 108.103 329.179 108.471 329.179 108.471L329.379 108.695" fill="#FE9393"/>
<path d="M334.514 124.762C334.346 125.985 330.411 132.711 330.059 131.344C328.963 127.057 328.963 114.245 328.963 114.245C330.039 113.818 331.205 113.666 332.354 113.805C332.354 113.805 333.218 117.052 333.858 120.067C334.074 121.115 334.274 122.139 334.394 122.986C334.505 123.571 334.546 124.167 334.514 124.762Z" fill="white"/>
<path d="M334.393 122.978C333.09 125.298 330.818 129.16 331.274 126.977C331.907 124.595 332.772 122.28 333.858 120.067C334.074 121.115 334.273 122.178 334.393 122.978Z" fill="#DFE5EA"/>
<path d="M341.823 109.51C341.823 109.51 345.662 110.638 346.326 113.805C346.99 116.972 335.561 132.847 332.282 132.831C330.235 132.831 329.227 130.848 330.467 128.584C332.634 124.626 338.352 110.294 341.823 109.51Z" fill="white"/>
<path d="M341.216 133.943C341.166 136.803 340.885 139.654 340.376 142.468C339.128 149.402 337.689 160.407 337.177 165.189C341.946 168.778 347.861 170.501 353.812 170.036C357.771 169.74 361.689 169.038 365.504 167.94L361.505 136.95L341.216 133.943Z" fill="white"/>
<path d="M374.381 87.7732H362.281C361.552 87.7732 360.961 88.364 360.961 89.0928V95.3709C360.961 96.0997 361.552 96.6905 362.281 96.6905H374.381C375.11 96.6905 375.7 96.0997 375.7 95.3709V89.0928C375.7 88.364 375.11 87.7732 374.381 87.7732Z" fill="#5499DE"/>
<path d="M364.192 95.8347C364.192 95.8347 364.52 98.8978 362.649 99.2097C362.649 99.2097 366.384 100.065 366.296 95.8347" fill="#5499DE"/>
<path d="M364.848 92.3156C364.848 92.4738 364.801 92.6284 364.713 92.7599C364.625 92.8915 364.5 92.994 364.354 93.0545C364.208 93.115 364.047 93.1309 363.892 93.1C363.737 93.0692 363.595 92.993 363.483 92.8811C363.371 92.7693 363.295 92.6268 363.264 92.4716C363.233 92.3165 363.249 92.1557 363.309 92.0096C363.37 91.8634 363.472 91.7385 363.604 91.6507C363.735 91.5628 363.89 91.5159 364.048 91.5159C364.26 91.5159 364.464 91.6001 364.614 91.7501C364.764 91.9001 364.848 92.1035 364.848 92.3156Z" fill="white"/>
<path d="M369.175 92.3158C369.183 92.485 369.139 92.6527 369.05 92.7968C368.961 92.9408 368.83 93.0546 368.675 93.123C368.52 93.1915 368.348 93.2114 368.182 93.1803C368.015 93.1492 367.862 93.0685 367.742 92.9487C367.622 92.8289 367.541 92.6756 367.51 92.5091C367.479 92.3426 367.499 92.1705 367.568 92.0156C367.636 91.8606 367.75 91.7299 367.894 91.6408C368.038 91.5517 368.206 91.5082 368.375 91.516C368.587 91.516 368.79 91.6003 368.94 91.7503C369.09 91.9003 369.175 92.1037 369.175 92.3158Z" fill="white"/>
<path d="M373.493 92.3156C373.501 92.4832 373.459 92.6493 373.372 92.7926C373.284 92.9358 373.156 93.0496 373.004 93.1194C372.851 93.1891 372.681 93.2116 372.516 93.1838C372.35 93.1561 372.197 93.0794 372.076 92.9637C371.954 92.848 371.87 92.6986 371.834 92.5347C371.798 92.3708 371.813 92.2 371.875 92.0442C371.937 91.8884 372.044 91.7548 372.183 91.6607C372.322 91.5665 372.486 91.5161 372.654 91.5159C372.762 91.5105 372.87 91.5271 372.972 91.5649C373.074 91.6026 373.167 91.6607 373.245 91.7355C373.324 91.8103 373.386 91.9003 373.429 92.0001C373.472 92.0998 373.494 92.2072 373.493 92.3156Z" fill="white"/>
<path d="M469.224 181.136H451.341C450.268 181.136 449.398 182.007 449.398 183.08V192.365C449.398 193.438 450.268 194.308 451.341 194.308H469.224C470.297 194.308 471.167 193.438 471.167 192.365V183.08C471.167 182.007 470.297 181.136 469.224 181.136Z" fill="#5499DE"/>
<path d="M454.165 193.037C454.165 193.037 454.653 197.563 451.886 198.035C451.886 198.035 457.404 199.291 457.276 193.037" fill="#5499DE"/>
<path d="M455.116 187.847C455.116 188.092 455.044 188.331 454.908 188.535C454.771 188.739 454.578 188.898 454.351 188.992C454.125 189.086 453.875 189.11 453.635 189.062C453.394 189.015 453.174 188.896 453 188.723C452.827 188.55 452.709 188.329 452.661 188.088C452.613 187.848 452.638 187.599 452.732 187.372C452.825 187.146 452.984 186.952 453.188 186.816C453.392 186.68 453.632 186.607 453.877 186.607C454.206 186.607 454.521 186.738 454.753 186.97C454.986 187.202 455.116 187.518 455.116 187.847Z" fill="white"/>
<path d="M461.514 187.847C461.514 188.092 461.442 188.331 461.305 188.535C461.169 188.739 460.976 188.898 460.749 188.992C460.523 189.086 460.273 189.11 460.033 189.062C459.792 189.015 459.572 188.896 459.398 188.723C459.225 188.55 459.107 188.329 459.059 188.088C459.011 187.848 459.036 187.599 459.13 187.372C459.223 187.146 459.382 186.952 459.586 186.816C459.79 186.68 460.03 186.607 460.275 186.607C460.604 186.607 460.919 186.738 461.151 186.97C461.384 187.202 461.514 187.518 461.514 187.847Z" fill="white"/>
<path d="M467.913 187.847C467.913 188.092 467.84 188.331 467.704 188.535C467.568 188.739 467.374 188.898 467.148 188.992C466.921 189.086 466.672 189.11 466.431 189.062C466.191 189.015 465.97 188.896 465.797 188.723C465.623 188.55 465.505 188.329 465.457 188.088C465.41 187.848 465.434 187.599 465.528 187.372C465.622 187.146 465.781 186.952 465.984 186.816C466.188 186.68 466.428 186.607 466.673 186.607C466.836 186.606 466.998 186.637 467.149 186.699C467.3 186.761 467.437 186.852 467.552 186.968C467.667 187.083 467.759 187.22 467.821 187.371C467.883 187.522 467.914 187.683 467.913 187.847Z" fill="white"/>
<path d="M58.1824 203.873H72.8499C73.7289 203.873 74.4414 203.161 74.4414 202.282V194.668C74.4414 193.789 73.7289 193.077 72.8499 193.077H58.1824C57.3034 193.077 56.5909 193.789 56.5909 194.668V202.282C56.5909 203.161 57.3034 203.873 58.1824 203.873Z" fill="#5499DE"/>
<path d="M70.5303 202.834C70.5303 202.834 70.1304 206.545 72.4017 206.929C72.4017 206.929 67.8831 207.96 67.979 202.834" fill="#5499DE"/>
<path d="M69.7388 198.579C69.7388 198.78 69.7983 198.976 69.9099 199.143C70.0216 199.31 70.1802 199.441 70.3658 199.518C70.5514 199.594 70.7556 199.615 70.9526 199.575C71.1496 199.536 71.3306 199.439 71.4726 199.297C71.6147 199.155 71.7114 198.974 71.7506 198.777C71.7898 198.58 71.7697 198.376 71.6928 198.19C71.616 198.005 71.4858 197.846 71.3187 197.735C71.1517 197.623 70.9553 197.563 70.7544 197.563C70.4851 197.563 70.2267 197.67 70.0362 197.861C69.8458 198.051 69.7388 198.31 69.7388 198.579Z" fill="white"/>
<path d="M64.5083 198.579C64.5083 198.78 64.5681 198.977 64.6801 199.144C64.792 199.311 64.9511 199.442 65.1372 199.518C65.3233 199.595 65.5279 199.615 65.7251 199.575C65.9224 199.535 66.1033 199.437 66.2451 199.295C66.3868 199.152 66.4829 198.97 66.5212 198.772C66.5594 198.575 66.5382 198.37 66.4601 198.185C66.382 197.999 66.2505 197.841 66.0825 197.731C65.9144 197.62 65.7172 197.562 65.516 197.564C65.383 197.564 65.2513 197.59 65.1285 197.641C65.0058 197.692 64.8943 197.767 64.8006 197.861C64.707 197.956 64.6329 198.068 64.5827 198.191C64.5326 198.314 64.5073 198.446 64.5083 198.579Z" fill="white"/>
<path d="M59.2378 198.579C59.2378 198.78 59.2974 198.976 59.409 199.143C59.5206 199.31 59.6792 199.441 59.8648 199.518C60.0504 199.594 60.2546 199.615 60.4516 199.575C60.6487 199.536 60.8296 199.439 60.9717 199.297C61.1137 199.155 61.2105 198.974 61.2497 198.777C61.2888 198.58 61.2687 198.376 61.1919 198.19C61.115 198.005 60.9848 197.846 60.8178 197.735C60.6507 197.623 60.4544 197.563 60.2535 197.563C60.1201 197.563 59.988 197.59 59.8648 197.641C59.7416 197.692 59.6296 197.767 59.5353 197.861C59.441 197.955 59.3662 198.067 59.3151 198.19C59.2641 198.314 59.2378 198.446 59.2378 198.579Z" fill="white"/>
<path d="M426.325 310.977V315.775C427.341 316.012 428.397 316.012 429.412 315.775L429.636 310.369" fill="#FE9393"/>
<path d="M429.405 315.151C429.405 315.151 428.989 315.591 427.477 315.535C427.215 315.333 426.908 315.198 426.582 315.141C426.256 315.084 425.921 315.107 425.606 315.207C424.848 315.884 423.969 316.411 423.015 316.759C421.935 316.975 420.679 317.103 420.383 317.559C420.298 317.672 420.238 317.801 420.206 317.939C420.175 318.077 420.172 318.22 420.199 318.358C420.199 318.358 420.127 318.558 421.447 318.614C422.767 318.67 426.973 318.486 427.701 318.526C428.425 318.593 429.154 318.561 429.868 318.43C430.324 318.286 430.324 315.991 429.405 315.151Z" fill="#2034AA"/>
<path d="M453.013 309.713L454.429 314.32C455.468 314.247 456.478 313.938 457.38 313.416L456.012 308.186" fill="#FE9393"/>
<path d="M459.115 315.327C458.548 315.784 457.921 316.161 457.252 316.447C456.884 316.615 455.604 317.359 454.341 318.046C453.851 318.318 453.301 318.464 452.741 318.47H450.67C450.286 318.47 450.142 318.206 450.158 318.046C450.158 317.606 450.55 317.247 451.15 317.135C451.583 317.043 451.992 316.861 452.35 316.601C452.709 316.34 453.008 316.007 453.229 315.623C453.613 315.007 453.877 314.479 453.877 314.479C454.107 314.242 454.39 314.064 454.703 313.96C455.016 313.855 455.35 313.828 455.676 313.88C457.036 313.208 457.196 312.624 457.196 312.624C458.355 312.992 459.475 314.991 459.115 315.327Z" fill="#2034AA"/>
<path d="M437.522 259.848C437.458 260.808 437.37 261.648 437.258 262.303C437.018 263.719 436.458 265.974 435.707 268.485C434.459 272.812 432.827 277.907 431.916 280.85C435.443 288.047 430.412 311.96 429.78 313.944C428.541 314.187 427.261 314.121 426.053 313.752C425.302 302.739 424.006 280.346 424.022 279.818C424.31 268.485 425.702 258.049 425.814 256.385C425.926 254.722 426.101 245.405 426.901 245.093C428.669 244.437 433.235 242.917 435.291 245.892C437.402 249.059 437.738 255.617 437.522 259.848Z" fill="#2034AA"/>
<path d="M437.521 259.848C437.457 260.808 437.369 261.648 437.258 262.304C437.018 263.719 436.458 265.974 435.706 268.486C435.482 264.919 435.074 255.018 435.074 255.018L437.521 259.848Z" fill="#102772"/>
<path d="M399.717 225.707L397.19 225.099C396.667 224.748 396.2 224.319 395.807 223.827C395.5 223.509 395.124 223.266 394.708 223.117C394.291 222.969 393.846 222.919 393.407 222.972C393.143 222.972 393.119 223.316 393.583 223.627C393.895 223.843 394.431 223.739 394.615 224.427C394.695 224.755 393.815 224.763 393.319 224.603C392.823 224.443 391.256 223.691 390.848 223.515C390.44 223.34 390.096 223.611 391.16 224.387C391.698 224.793 392.265 225.159 392.855 225.483C392.966 225.712 393.092 225.934 393.231 226.147C393.287 226.201 393.352 226.244 393.423 226.275C393.523 226.489 393.641 226.695 393.775 226.89C393.796 226.918 393.824 226.94 393.855 226.954L394.127 227.53C394.455 228.194 395.727 228.002 396.294 227.93C397.295 228.007 398.287 228.165 399.261 228.402L399.717 225.707Z" fill="#FE9393"/>
<path d="M393.575 225.491C393.03 225.448 392.492 225.335 391.976 225.155C391.024 224.835 389.824 224.163 389.576 224.139C389.328 224.115 389.304 224.427 389.576 224.675C390.044 225.026 390.545 225.332 391.072 225.587C391.992 225.921 392.929 226.207 393.879 226.443" fill="#FE9393"/>
<path d="M393.903 226.147C393.353 226.169 392.801 226.118 392.264 225.995C391.288 225.787 390.017 225.259 389.769 225.259C389.521 225.259 389.529 225.571 389.833 225.787C390.34 226.087 390.876 226.336 391.432 226.53C391.984 226.73 394.319 227.33 394.319 227.33" fill="#FE9393"/>
<path d="M394.695 227.13C394.158 227.15 393.62 227.099 393.096 226.978C392.12 226.77 390.848 226.242 390.6 226.242C390.353 226.242 390.361 226.554 390.656 226.77C391.165 227.069 391.7 227.318 392.256 227.514C393.206 227.739 394.167 227.916 395.135 228.042" fill="#FE9393"/>
<path d="M426.101 214.814C426.101 214.814 416.408 223.364 413.529 227.002C414.287 228.553 415.461 229.863 416.92 230.785C420.33 229.181 423.637 227.364 426.821 225.347" fill="white"/>
<path d="M413.793 226.659L398.87 225.347L398.318 228.442C398.318 228.442 409.61 232.769 413.825 232.769C417.28 232.769 425.725 226.067 425.725 226.067L413.793 226.659Z" fill="white"/>
<path d="M457.14 311.272C456.088 312.113 454.755 312.519 453.413 312.408C453.725 312.84 443.216 289.271 441.513 284.489C441.409 284.177 440.969 282.889 440.841 282.465C440.041 279.962 437.41 267.182 436.162 262.184L432.619 246.14C432.619 246.14 427.821 246.788 431.244 246.588C435.65 246.324 441.137 244.133 441.137 244.133C448.462 250.395 449.134 257.593 448.838 261.184C448.71 262.638 448.678 264.1 448.742 265.558C449.006 270.933 448.103 278.123 448.31 281.714C456.268 292.67 456.716 307.314 457.14 311.272Z" fill="#2034AA"/>
<path d="M426.101 214.814C427.413 213.718 429.596 212.775 434.259 212.631C435.746 212.383 435.619 211.831 438.258 212.519C441.353 213.318 444.936 213.998 445.455 215.166C445.975 216.334 446.503 227.682 445.767 231.609C445.208 234.568 445.543 245.149 447.503 252.131C447.983 253.834 436.514 248.324 433.323 248.324C430.492 248.324 426.397 248.22 426.309 247.284C426.117 245.317 426.109 243.765 426.085 242.342C426.093 240.078 424.99 216.094 426.101 214.814Z" fill="white"/>
<path d="M443.848 243.117C444.05 244.819 444.62 246.457 445.519 247.916C447.695 251.686 449.042 255.877 449.47 260.208C449.966 265.271 449.918 280.202 449.918 280.202C449.918 280.202 439.641 281.434 430.724 280.202L430.42 245.085L443.848 243.117Z" fill="white"/>
<path d="M451.99 236.328C451.99 232.385 451.526 221.844 447.391 216.414C445.792 214.31 442.097 213.487 442.097 213.487L442.177 223.276C442.273 226.93 444.736 236.831 444.736 236.831H451.934C451.963 236.665 451.981 236.497 451.99 236.328Z" fill="white"/>
<path d="M438.753 244.229L424.358 238.151C424.222 238.091 424.113 237.982 424.052 237.846C423.991 237.71 423.983 237.557 424.03 237.415L430.532 218.221C430.557 218.143 430.599 218.07 430.654 218.009C430.709 217.948 430.777 217.899 430.853 217.865C430.928 217.832 431.01 217.815 431.093 217.816C431.175 217.817 431.257 217.835 431.332 217.869L445.727 223.947C445.865 224.003 445.977 224.11 446.038 224.245C446.099 224.381 446.105 224.535 446.055 224.675L439.561 243.869C439.535 243.948 439.492 244.021 439.436 244.082C439.38 244.144 439.312 244.193 439.236 244.227C439.16 244.261 439.078 244.278 438.995 244.279C438.912 244.279 438.83 244.262 438.753 244.229Z" fill="#6AB4E5"/>
<path d="M433.419 232.457C432.768 232.201 432.137 231.896 431.532 231.545C431.316 231.329 430.548 229.146 429.653 228.762C429.231 228.797 428.833 228.975 428.525 229.266C427.895 230.086 427.52 231.073 427.445 232.105C427.445 232.985 428.885 233.704 429.045 233.84C430.039 234.208 431.011 234.632 431.956 235.112" fill="#FE9393"/>
<path d="M430.732 230.017C430.441 229.451 430.045 228.946 429.564 228.53C429.076 228.194 428.956 228.066 428.764 228.33C428.707 228.546 428.704 228.773 428.756 228.991C428.808 229.208 428.912 229.41 429.06 229.577" fill="#FE9393"/>
<path d="M431.924 233.344C431.633 233.992 431.457 234.684 431.404 235.392C431.404 235.392 444.128 242.741 448.511 243.677L449.118 236.479L432.859 232.073C432.461 232.426 432.142 232.859 431.924 233.344Z" fill="white"/>
<path d="M440.937 213.175C440.937 213.175 437.938 215.43 434.259 212.623L434.803 211.567C435.198 210.879 435.487 210.135 435.658 209.36C435.658 209.288 435.698 209.2 435.722 209.12C435.793 208.768 435.843 208.413 435.874 208.056C435.942 207.334 435.923 206.607 435.818 205.889L436.178 205.601L442.04 200.986L442.712 200.467C442.712 200.467 442.52 201.586 442.248 203.234C442.104 204.161 441.928 205.257 441.752 206.433C441.417 208.76 441.081 211.319 440.937 213.175Z" fill="#FE9393"/>
<path d="M440.025 206.553C438.672 208.583 436.892 210.294 434.81 211.567C435.206 210.879 435.495 210.135 435.666 209.36C435.314 209.463 434.952 209.533 434.586 209.568C434.586 209.296 434.586 209.016 434.586 208.768L434.978 208.528L435.858 208.096L440.497 205.841C440.497 205.841 440.345 206.097 440.025 206.553Z" fill="#E15F60"/>
<path d="M431.236 197.659C431.236 197.659 430.268 200.322 432.035 201.842L432.835 197.779L431.236 197.659Z" fill="#3F49A5"/>
<path d="M440.977 205.665C440.695 206.058 440.391 206.435 440.065 206.793C439.52 207.393 438.908 207.93 438.242 208.392C437.531 208.889 436.741 209.262 435.906 209.496C435.57 209.597 435.224 209.664 434.875 209.696C434.063 209.796 433.241 209.64 432.523 209.248C431.132 207.176 431.18 203.825 431.5 201.25C431.62 200.227 431.796 199.331 431.931 198.699C432.067 198.067 432.147 197.795 432.147 197.795C432.151 197.771 432.151 197.747 432.147 197.723C432.755 194.436 437.146 194.324 440.145 196.172C440.323 196.278 440.494 196.395 440.657 196.524C441.492 197.106 442.164 197.894 442.608 198.811C443.32 200.371 442.88 202.13 442.16 203.61L442.04 203.849C441.731 204.48 441.376 205.087 440.977 205.665Z" fill="#FE9393"/>
<path d="M441.264 196.98C441.264 196.98 437.569 201.466 431.571 198.579C429.428 197.531 429.044 192.645 430.971 192.981C433.723 193.429 436.61 190.766 439.649 192.341C440.624 192.781 441.68 195.068 441.264 196.98Z" fill="#3F49A5"/>
<path d="M439.969 196.628C439.969 196.628 437.89 207.464 440.089 202.49C440.089 202.49 440.649 201.098 441.689 201.226C442.728 201.354 441.889 205.081 441.745 206.665C441.745 206.665 444.056 205.009 444.944 200.091C445.831 195.172 442.48 193.157 440.657 195.292L439.969 196.628Z" fill="#3F49A5"/>
<path d="M441.457 202.002C441.457 202.002 440.889 202.074 440.769 203.114C440.649 204.154 441.321 204.361 441.449 203.818C441.577 203.274 441.081 202.938 440.969 203.162C440.943 202.943 440.974 202.721 441.06 202.517C441.145 202.314 441.282 202.137 441.457 202.002Z" fill="#E15F60"/>
<path d="M451.989 234.784C451.989 234.784 452.789 244.469 448.535 243.653C445.335 241.814 446.135 235.88 446.135 235.88C446.135 235.88 448.99 234.36 449.334 234.536C450.21 234.696 451.099 234.779 451.989 234.784Z" fill="white"/>
<path d="M429.468 229.721C429.044 229.298 428.658 228.838 428.317 228.346C428.133 227.962 427.645 226.45 427.389 226.347C427.261 226.299 426.981 226.299 427.125 227.146C427.217 227.739 427.34 228.326 427.493 228.906C427.852 229.468 428.253 230.003 428.693 230.505" fill="#FE9393"/>
<path d="M429.021 230.521C428.596 230.098 428.211 229.638 427.869 229.146C427.685 228.762 427.197 227.25 426.941 227.146C426.813 227.098 426.533 227.098 426.677 227.946C426.768 228.538 426.888 229.126 427.037 229.706C427.399 230.266 427.8 230.801 428.237 231.305" fill="#FE9393"/>
<path d="M428.725 231.369C428.3 230.946 427.915 230.486 427.573 229.993C427.389 229.609 426.901 228.098 426.645 227.994C426.517 227.946 426.237 227.946 426.381 228.794C426.473 229.386 426.596 229.974 426.749 230.553C427.108 231.116 427.509 231.65 427.949 232.153" fill="#FE9393"/>
<path d="M428.445 232.169C428.071 231.799 427.733 231.395 427.437 230.961C427.269 230.625 426.845 229.29 426.637 229.202C426.429 229.114 426.269 229.154 426.397 229.937C426.478 230.457 426.588 230.973 426.725 231.481C427.041 231.978 427.394 232.452 427.781 232.897" fill="#FE9393"/>
<path d="M426.149 243.653L422.79 279.098C424.289 279.526 425.838 279.752 427.397 279.77L430.772 245.781L426.149 243.653Z" fill="white"/>
<path d="M433.419 212.663L434.475 211.407C435.015 211.917 435.63 212.34 436.298 212.663V214.15C435.278 213.782 434.31 213.282 433.419 212.663Z" fill="white"/>
<path d="M436.298 213.742L436.77 212.751C436.77 212.751 440.089 212.751 441.305 212.087L441.745 213.39C440.914 213.831 439.998 214.091 439.059 214.151C438.12 214.212 437.179 214.073 436.298 213.742Z" fill="white"/>
<path d="M440.177 234.032C441.041 234.168 441.897 234.36 442.744 234.552C443.592 234.744 444.44 234.976 445.28 235.216L445.04 235.448C444.76 234.288 444.504 233.12 444.32 231.937C444.744 233.064 445.12 234.2 445.416 235.352L445.504 235.672L445.176 235.584C444.336 235.368 443.496 235.136 442.656 234.88C441.817 234.624 440.993 234.352 440.177 234.032Z" fill="#DFE5EA"/>
<path d="M18.3142 319.158H488.842" stroke="#2A5B87" stroke-width="2" stroke-miterlimit="10"/>
<path d="M43.7626 141.141L35.5571 126.929L43.7626 112.717H60.1736L68.3791 126.929L60.1736 141.141H43.7626Z" stroke="#A4E0EA" stroke-width="1.09" stroke-miterlimit="10"/>
<path d="M84.8379 155.352L93.0434 141.141H109.454L117.66 155.352" stroke="#A4E0EA" stroke-width="1.09" stroke-miterlimit="10"/>
<path d="M68.4272 126.929L60.2217 112.717L68.4272 98.5056H84.8381L93.0436 112.717L84.8381 126.929H68.4272Z" stroke="#A4E0EA" stroke-width="1.09" stroke-miterlimit="10"/>
<path d="M19.146 98.5056H35.557L43.7624 112.717L35.557 126.929H19.146" stroke="#A4E0EA" stroke-width="1.09" stroke-miterlimit="10"/>
<path d="M68.4272 155.352L60.2217 141.141L68.4272 126.929H84.8381L93.0436 141.141L84.8381 155.352H68.4272Z" stroke="#A4E0EA" stroke-width="1.09" stroke-miterlimit="10"/>
<path d="M43.7627 114.997C45.0215 114.997 46.042 113.976 46.042 112.718C46.042 111.459 45.0215 110.438 43.7627 110.438C42.5039 110.438 41.4834 111.459 41.4834 112.718C41.4834 113.976 42.5039 114.997 43.7627 114.997Z" fill="#A4E0EA"/>
<path d="M60.2217 114.997C61.4805 114.997 62.501 113.976 62.501 112.718C62.501 111.459 61.4805 110.438 60.2217 110.438C58.9629 110.438 57.9424 111.459 57.9424 112.718C57.9424 113.976 58.9629 114.997 60.2217 114.997Z" fill="#A4E0EA"/>
<path d="M68.4751 100.785C69.7339 100.785 70.7544 99.7647 70.7544 98.5059C70.7544 97.247 69.7339 96.2266 68.4751 96.2266C67.2163 96.2266 66.1958 97.247 66.1958 98.5059C66.1958 99.7647 67.2163 100.785 68.4751 100.785Z" fill="#A4E0EA"/>
<path d="M84.8857 100.785C86.1446 100.785 87.165 99.7647 87.165 98.5059C87.165 97.247 86.1446 96.2266 84.8857 96.2266C83.6269 96.2266 82.6064 97.247 82.6064 98.5059C82.6064 99.7647 83.6269 100.785 84.8857 100.785Z" fill="#A4E0EA"/>
<path d="M70.6582 126.929C70.6582 127.38 70.5245 127.821 70.2741 128.196C70.0236 128.57 69.6676 128.862 69.2512 129.035C68.8347 129.208 68.3764 129.253 67.9342 129.165C67.4921 129.077 67.086 128.86 66.7672 128.541C66.4484 128.222 66.2314 127.816 66.1434 127.374C66.0555 126.932 66.1006 126.473 66.2731 126.057C66.4456 125.64 66.7378 125.284 67.1126 125.034C67.4874 124.784 67.9281 124.65 68.3789 124.65C68.9828 124.652 69.5613 124.893 69.9883 125.32C70.4153 125.747 70.6561 126.325 70.6582 126.929Z" fill="#A4E0EA"/>
<path d="M93.0435 114.997C94.3023 114.997 95.3228 113.976 95.3228 112.718C95.3228 111.459 94.3023 110.438 93.0435 110.438C91.7846 110.438 90.7642 111.459 90.7642 112.718C90.7642 113.976 91.7846 114.997 93.0435 114.997Z" fill="#A4E0EA"/>
<path d="M87.1172 126.929C87.1172 127.38 86.9835 127.821 86.7331 128.196C86.4826 128.57 86.1266 128.862 85.7101 129.035C85.2937 129.208 84.8354 129.253 84.3932 129.165C83.9511 129.077 83.545 128.86 83.2262 128.541C82.9074 128.222 82.6903 127.816 82.6024 127.374C82.5144 126.932 82.5596 126.473 82.7321 126.057C82.9046 125.64 83.1967 125.284 83.5716 125.034C83.9464 124.784 84.3871 124.65 84.8379 124.65C85.4417 124.652 86.0203 124.893 86.4473 125.32C86.8743 125.747 87.1151 126.325 87.1172 126.929Z" fill="#A4E0EA"/>
<path d="M62.501 141.149C62.4994 141.599 62.3644 142.039 62.113 142.413C61.8615 142.787 61.505 143.077 61.0884 143.249C60.6718 143.42 60.2137 143.464 59.7721 143.375C59.3305 143.286 58.9251 143.069 58.6072 142.75C58.2892 142.43 58.0729 142.024 57.9856 141.582C57.8983 141.14 57.9439 140.683 58.1166 140.267C58.2894 139.851 58.5815 139.495 58.9562 139.245C59.3309 138.995 59.7712 138.861 60.2217 138.861C60.8269 138.863 61.4066 139.105 61.8339 139.534C62.2611 139.963 62.501 140.543 62.501 141.149Z" fill="#A4E0EA"/>
<path d="M95.3706 141.149C95.369 141.599 95.234 142.039 94.9826 142.413C94.7312 142.787 94.3747 143.077 93.958 143.249C93.5414 143.42 93.0834 143.464 92.6417 143.375C92.2001 143.286 91.7947 143.069 91.4768 142.75C91.1588 142.43 90.9425 142.024 90.8552 141.582C90.7679 141.14 90.8135 140.683 90.9863 140.267C91.159 139.851 91.4512 139.495 91.8258 139.245C92.2005 138.995 92.6408 138.861 93.0913 138.861C93.6965 138.863 94.2763 139.105 94.7035 139.534C95.1307 139.963 95.3706 140.543 95.3706 141.149Z" fill="#A4E0EA"/>
<path d="M84.8379 157.632C86.0967 157.632 87.1172 156.611 87.1172 155.352C87.1172 154.093 86.0967 153.073 84.8379 153.073C83.5791 153.073 82.5586 154.093 82.5586 155.352C82.5586 156.611 83.5791 157.632 84.8379 157.632Z" fill="#A4E0EA"/>
<path d="M117.66 157.632C118.919 157.632 119.939 156.611 119.939 155.352C119.939 154.093 118.919 153.073 117.66 153.073C116.401 153.073 115.381 154.093 115.381 155.352C115.381 156.611 116.401 157.632 117.66 157.632Z" fill="#A4E0EA"/>
<path d="M68.4751 157.632C69.7339 157.632 70.7544 156.611 70.7544 155.352C70.7544 154.093 69.7339 153.073 68.4751 153.073C67.2163 153.073 66.1958 154.093 66.1958 155.352C66.1958 156.611 67.2163 157.632 68.4751 157.632Z" fill="#A4E0EA"/>
<path d="M46.042 141.149C46.0404 141.599 45.9054 142.039 45.654 142.413C45.4026 142.787 45.046 143.077 44.6294 143.249C44.2128 143.42 43.7548 143.464 43.3131 143.375C42.8715 143.286 42.4661 143.069 42.1482 142.75C41.8302 142.43 41.6139 142.024 41.5266 141.582C41.4393 141.14 41.4849 140.683 41.6577 140.267C41.8304 139.851 42.1226 139.495 42.4972 139.245C42.8719 138.995 43.3122 138.861 43.7627 138.861C44.0627 138.861 44.3597 138.921 44.6368 139.036C44.9139 139.151 45.1655 139.319 45.3772 139.532C45.589 139.744 45.7567 139.996 45.8708 140.274C45.9849 140.551 46.043 140.849 46.042 141.149Z" fill="#A4E0EA"/>
<path d="M37.8364 126.929C37.8364 127.38 37.7028 127.821 37.4523 128.196C37.2018 128.57 36.8459 128.862 36.4294 129.035C36.0129 129.208 35.5546 129.253 35.1125 129.165C34.6703 129.077 34.2642 128.86 33.9454 128.541C33.6267 128.222 33.4096 127.816 33.3216 127.374C33.2337 126.932 33.2788 126.473 33.4513 126.057C33.6238 125.64 33.916 125.284 34.2908 125.034C34.6657 124.784 35.1063 124.65 35.5571 124.65C36.161 124.652 36.7395 124.893 37.1665 125.32C37.5935 125.747 37.8343 126.325 37.8364 126.929Z" fill="#A4E0EA"/>
<path d="M390.088 56.4628L381.883 42.2512L390.088 28.0396H406.499L414.705 42.2512L406.499 56.4628H390.088Z" stroke="#A4E0EA" stroke-width="1.09" stroke-miterlimit="10"/>
<path d="M431.164 70.6743L439.37 56.4626H455.781L463.986 70.6743" stroke="#A4E0EA" stroke-width="1.09" stroke-miterlimit="10"/>
<path d="M414.753 42.2512L406.547 28.0395L414.753 13.8279H431.164L439.369 28.0395L431.164 42.2512H414.753Z" stroke="#A4E0EA" stroke-width="1.09" stroke-miterlimit="10"/>
<path d="M381.883 13.8279L390.088 28.0395L381.883 42.2512H365.48" stroke="#A4E0EA" stroke-width="1.09" stroke-miterlimit="10"/>
<path d="M406.547 56.4629L414.753 42.2512H431.164L439.369 56.4629L431.164 70.6745" stroke="#A4E0EA" stroke-width="1.09" stroke-miterlimit="10"/>
<path d="M392.375 28.0393C392.377 28.4924 392.244 28.9357 391.993 29.3131C391.742 29.6904 391.385 29.9849 390.967 30.159C390.549 30.3331 390.088 30.379 389.644 30.291C389.199 30.203 388.791 29.985 388.471 29.6647C388.15 29.3443 387.932 28.936 387.844 28.4916C387.756 28.0471 387.802 27.5866 387.976 27.1683C388.151 26.75 388.445 26.3929 388.822 26.1422C389.2 25.8914 389.643 25.7584 390.096 25.76C390.7 25.7621 391.278 26.0029 391.705 26.4299C392.132 26.8569 392.373 27.4355 392.375 28.0393Z" fill="#A4E0EA"/>
<path d="M381.883 16.5388C383.142 16.5388 384.162 15.5183 384.162 14.2595C384.162 13.0007 383.142 11.9802 381.883 11.9802C380.624 11.9802 379.604 13.0007 379.604 14.2595C379.604 15.5183 380.624 16.5388 381.883 16.5388Z" fill="#A4E0EA"/>
<path d="M406.547 30.3186C407.806 30.3186 408.827 29.2981 408.827 28.0393C408.827 26.7805 407.806 25.76 406.547 25.76C405.289 25.76 404.268 26.7805 404.268 28.0393C404.268 29.2981 405.289 30.3186 406.547 30.3186Z" fill="#A4E0EA"/>
<path d="M414.801 16.1069C416.06 16.1069 417.08 15.0865 417.08 13.8276C417.08 12.5688 416.06 11.5483 414.801 11.5483C413.542 11.5483 412.521 12.5688 412.521 13.8276C412.521 15.0865 413.542 16.1069 414.801 16.1069Z" fill="#A4E0EA"/>
<path d="M431.212 16.1069C432.471 16.1069 433.491 15.0865 433.491 13.8276C433.491 12.5688 432.471 11.5483 431.212 11.5483C429.953 11.5483 428.933 12.5688 428.933 13.8276C428.933 15.0865 429.953 16.1069 431.212 16.1069Z" fill="#A4E0EA"/>
<path d="M416.992 42.251C416.994 42.7037 416.861 43.1467 416.61 43.5239C416.36 43.9011 416.003 44.1955 415.586 44.3699C415.168 44.5442 414.708 44.5906 414.263 44.5033C413.819 44.4159 413.411 44.1987 413.09 43.8792C412.77 43.5596 412.551 43.1521 412.462 42.7082C412.373 42.2642 412.418 41.8039 412.591 41.3855C412.764 40.9671 413.057 40.6094 413.433 40.3577C413.809 40.106 414.252 39.9717 414.705 39.9717C415.31 39.9717 415.891 40.2116 416.319 40.6388C416.748 41.066 416.99 41.6457 416.992 42.251Z" fill="#A4E0EA"/>
<path d="M439.37 30.3186C440.628 30.3186 441.649 29.2981 441.649 28.0393C441.649 26.7805 440.628 25.76 439.37 25.76C438.111 25.76 437.09 26.7805 437.09 28.0393C437.09 29.2981 438.111 30.3186 439.37 30.3186Z" fill="#A4E0EA"/>
<path d="M433.451 42.251C433.453 42.7037 433.32 43.1467 433.069 43.5239C432.819 43.9011 432.462 44.1955 432.045 44.3699C431.627 44.5442 431.167 44.5906 430.722 44.5033C430.278 44.4159 429.87 44.1987 429.549 43.8792C429.229 43.5596 429.01 43.1521 428.921 42.7082C428.832 42.2642 428.877 41.8039 429.05 41.3855C429.223 40.9671 429.516 40.6094 429.892 40.3577C430.268 40.106 430.711 39.9717 431.164 39.9717C431.769 39.9717 432.35 40.2116 432.778 40.6388C433.207 41.066 433.449 41.6457 433.451 42.251Z" fill="#A4E0EA"/>
<path d="M408.834 56.4626C408.836 56.9154 408.703 57.3584 408.453 57.7356C408.202 58.1128 407.846 58.4072 407.428 58.5815C407.01 58.7559 406.55 58.8023 406.106 58.715C405.662 58.6276 405.253 58.4104 404.933 58.0908C404.612 57.7713 404.393 57.3637 404.304 56.9198C404.215 56.4759 404.26 56.0156 404.433 55.5972C404.606 55.1788 404.899 54.8211 405.275 54.5694C405.652 54.3177 406.094 54.1834 406.547 54.1833C407.152 54.1833 407.733 54.4232 408.162 54.8504C408.59 55.2777 408.832 55.8574 408.834 56.4626Z" fill="#A4E0EA"/>
<path d="M441.704 56.4626C441.706 56.9154 441.573 57.3584 441.323 57.7356C441.072 58.1128 440.716 58.4072 440.298 58.5815C439.88 58.7559 439.42 58.8023 438.976 58.715C438.532 58.6276 438.123 58.4104 437.803 58.0908C437.482 57.7713 437.263 57.3637 437.174 56.9198C437.086 56.4759 437.13 56.0156 437.303 55.5972C437.476 55.1788 437.769 54.8211 438.146 54.5694C438.522 54.3177 438.964 54.1834 439.417 54.1833C440.022 54.1833 440.603 54.4232 441.032 54.8504C441.46 55.2777 441.702 55.8574 441.704 56.4626Z" fill="#A4E0EA"/>
<path d="M433.451 70.6823C433.451 71.1347 433.317 71.5769 433.066 71.9531C432.814 72.3292 432.457 72.6224 432.039 72.7955C431.621 72.9686 431.161 73.0139 430.718 72.9257C430.274 72.8374 429.866 72.6196 429.546 72.2997C429.227 71.9798 429.009 71.5722 428.92 71.1285C428.832 70.6849 428.877 70.225 429.051 69.807C429.224 69.3891 429.517 69.0318 429.893 68.7805C430.269 68.5292 430.711 68.395 431.164 68.395C431.464 68.395 431.762 68.4542 432.039 68.5691C432.317 68.6841 432.569 68.8526 432.781 69.065C432.994 69.2774 433.162 69.5295 433.277 69.807C433.392 70.0845 433.451 70.3819 433.451 70.6823Z" fill="#A4E0EA"/>
<path d="M463.986 72.9536C465.245 72.9536 466.265 71.9331 466.265 70.6743C466.265 69.4155 465.245 68.395 463.986 68.395C462.727 68.395 461.707 69.4155 461.707 70.6743C461.707 71.9331 462.727 72.9536 463.986 72.9536Z" fill="#A4E0EA"/>
<path d="M392.376 56.4628C392.38 56.9165 392.25 57.3614 392.001 57.7408C391.753 58.1203 391.397 58.4172 390.979 58.5938C390.561 58.7703 390.1 58.8186 389.654 58.7324C389.209 58.6462 388.799 58.4295 388.477 58.1098C388.155 57.7901 387.935 57.3818 387.846 56.937C387.757 56.4921 387.802 56.0307 387.975 55.6115C388.149 55.1923 388.443 54.8342 388.821 54.5828C389.199 54.3313 389.643 54.1979 390.096 54.1995C390.698 54.2015 391.274 54.4402 391.7 54.8637C392.127 55.2873 392.369 55.8617 392.376 56.4628Z" fill="#A4E0EA"/>
<path d="M384.17 42.251C384.172 42.7037 384.039 43.1467 383.789 43.5239C383.538 43.9011 383.182 44.1955 382.764 44.3699C382.346 44.5442 381.886 44.5906 381.442 44.5033C380.997 44.4159 380.589 44.1987 380.268 43.8792C379.948 43.5596 379.729 43.1521 379.64 42.7082C379.551 42.2642 379.596 41.8039 379.769 41.3855C379.942 40.9671 380.235 40.6094 380.611 40.3577C380.988 40.106 381.43 39.9717 381.883 39.9717C382.488 39.9717 383.069 40.2116 383.498 40.6388C383.926 41.066 384.168 41.6457 384.17 42.251Z" fill="#A4E0EA"/>
<path d="M207.792 30.3425C214.079 36.6206 202.762 47.9371 209.048 54.2152C215.334 60.4933 226.643 49.1848 232.921 55.4628C239.199 61.7409 227.89 73.0574 234.176 79.3435" stroke="#A4E0EA" stroke-width="2" stroke-miterlimit="10" stroke-linecap="round"/>
<path d="M196.484 41.6513C202.762 47.9294 214.078 36.6209 220.357 42.899C226.635 49.177 215.326 60.4936 221.612 66.7796C227.898 73.0657 239.207 61.7492 245.485 68.0272" stroke="#A4E0EA" stroke-width="2" stroke-miterlimit="10" stroke-linecap="round"/>
<path d="M209.048 54.2072L220.356 42.8987" stroke="#A4E0EA" stroke-width="2" stroke-miterlimit="10" stroke-linecap="round"/>
<path d="M207.201 50.6086L216.758 41.0515" stroke="#A4E0EA" stroke-width="2" stroke-miterlimit="10" stroke-linecap="round"/>
<path d="M212.647 56.0546L222.204 46.4976" stroke="#A4E0EA" stroke-width="2" stroke-miterlimit="10" stroke-linecap="round"/>
<path d="M200.083 43.4987L209.64 33.9336" stroke="#A4E0EA" stroke-width="2" stroke-miterlimit="10" stroke-linecap="round"/>
<path d="M221.612 66.7797L232.921 55.4712" stroke="#A4E0EA" stroke-width="2" stroke-miterlimit="10" stroke-linecap="round"/>
<path d="M219.765 63.1805L229.33 53.6155" stroke="#A4E0EA" stroke-width="2" stroke-miterlimit="10" stroke-linecap="round"/>
<path d="M225.211 68.6271L234.776 59.062" stroke="#A4E0EA" stroke-width="2" stroke-miterlimit="10" stroke-linecap="round"/>
<path d="M232.457 75.8647L242.014 66.3076" stroke="#A4E0EA" stroke-width="2" stroke-miterlimit="10" stroke-linecap="round"/>
<path d="M14.2756 188.638C20.5617 194.924 9.24517 206.233 15.5312 212.511C21.8173 218.789 33.1258 207.48 39.4039 213.766C45.682 220.053 34.3735 231.361 40.6595 237.639" stroke="#A4E0EA" stroke-width="2" stroke-miterlimit="10" stroke-linecap="round"/>
<path d="M2.96704 199.947C9.24512 206.233 20.5616 194.924 26.8397 201.202C33.1178 207.48 21.8093 218.797 28.0953 225.075C34.3814 231.353 45.6899 220.045 51.968 226.331" stroke="#A4E0EA" stroke-width="2" stroke-miterlimit="10" stroke-linecap="round"/>
<path d="M15.5312 212.511L26.8398 201.202" stroke="#A4E0EA" stroke-width="2" stroke-miterlimit="10" stroke-linecap="round"/>
<path d="M13.6838 208.912L23.2409 199.347" stroke="#A4E0EA" stroke-width="2" stroke-miterlimit="10" stroke-linecap="round"/>
<path d="M19.1301 214.358L28.6872 204.793" stroke="#A4E0EA" stroke-width="2" stroke-miterlimit="10" stroke-linecap="round"/>
<path d="M6.56592 201.794L16.123 192.237" stroke="#A4E0EA" stroke-width="2" stroke-miterlimit="10" stroke-linecap="round"/>
<path d="M28.0952 225.075L39.4037 213.766" stroke="#A4E0EA" stroke-width="2" stroke-miterlimit="10" stroke-linecap="round"/>
<path d="M26.248 221.476L35.8131 211.919" stroke="#A4E0EA" stroke-width="2" stroke-miterlimit="10" stroke-linecap="round"/>
<path d="M31.6941 226.922L41.2512 217.365" stroke="#A4E0EA" stroke-width="2" stroke-miterlimit="10" stroke-linecap="round"/>
<path d="M38.9399 234.168L48.497 224.603" stroke="#A4E0EA" stroke-width="2" stroke-miterlimit="10" stroke-linecap="round"/>
</svg>
