<svg width="646" height="155" viewBox="0 0 646 155" fill="none" xmlns="http://www.w3.org/2000/svg">
<rect width="646" height="155" rx="8" fill="#FBB03B"/>
<path d="M436.45 37.712L437.483 41.002C437.85 42.1667 438.216 43.3562 438.557 44.5259C438.872 45.5512 439.027 47.3929 440.623 47.2336C441.372 47.1739 441.765 46.6612 442.25 46.2083C442.591 45.8748 442.958 45.5363 443.283 45.1779C444.079 44.3915 444.874 43.5852 445.613 42.7639C447.087 41.1679 448.356 39.4065 449.393 37.5178C449.454 37.3737 449.483 37.2193 449.48 37.064C449.477 36.9086 449.441 36.7555 449.375 36.6137C449.309 36.472 449.214 36.3445 449.095 36.239C448.977 36.1335 448.838 36.0522 448.686 35.9998C448.623 35.9883 448.558 35.9883 448.495 35.9998C448.319 35.877 448.119 35.7921 447.906 35.7509C444.414 35.059 440.912 34.3473 437.395 33.6604C437.116 33.629 436.834 33.6846 436.591 33.8189C436.347 33.9533 436.155 34.1594 436.042 34.407C435.525 35.4871 436.124 36.6418 436.45 37.712ZM446.289 37.8215C445.542 38.995 444.696 40.1071 443.758 41.1463C443.133 41.8581 442.477 42.525 441.816 43.192C441.568 43.4409 441.3 43.6897 441.073 43.9685C440.964 43.625 440.861 43.2816 440.752 42.9381L439.91 40.2006C439.637 39.3097 439.394 38.4387 439.105 37.5477C438.986 37.1346 438.846 36.7264 438.728 36.3133C441.248 36.8111 443.764 37.3038 446.289 37.8215Z" fill="white" fill-opacity="0.4"/>
<path d="M60.8875 27.7456L61.9205 31.0357C62.2872 32.2004 62.654 33.3899 62.9949 34.5596C63.31 35.5849 63.4649 37.4265 65.0609 37.2673C65.8099 37.2075 66.2025 36.6949 66.688 36.2419C67.0289 35.9085 67.3956 35.57 67.721 35.2116C68.5164 34.4252 69.3118 33.6189 70.0504 32.7976C71.5247 31.2016 72.7942 29.4402 73.8312 27.5515C73.8914 27.4074 73.9208 27.253 73.9176 27.0976C73.9144 26.9423 73.8788 26.7891 73.8127 26.6474C73.7466 26.5057 73.6515 26.3782 73.5331 26.2727C73.4147 26.1672 73.2755 26.0859 73.1237 26.0335C73.0605 26.022 72.9957 26.022 72.9325 26.0335C72.7571 25.9107 72.5563 25.8258 72.3438 25.7846C68.8522 25.0927 65.3502 24.381 61.8328 23.6941C61.554 23.6627 61.2721 23.7183 61.0285 23.8526C60.7849 23.987 60.5926 24.1931 60.4796 24.4407C59.9631 25.5208 60.5621 26.6755 60.8875 27.7456ZM70.727 27.8551C69.9799 29.0287 69.1334 30.1408 68.1962 31.18C67.5712 31.8918 66.9152 32.5587 66.2541 33.2257C66.0062 33.4746 65.7376 33.7234 65.5104 34.0021C65.4019 33.6587 65.2985 33.3153 65.1901 32.9718L64.3482 30.2343C64.0745 29.3434 63.8317 28.4723 63.5424 27.5814C63.4236 27.1683 63.2842 26.7601 63.1654 26.347C65.686 26.8448 68.2013 27.3375 70.727 27.8551Z" fill="white" fill-opacity="0.4"/>
<path d="M523.212 128.462L526.657 128.781C527.877 128.892 529.12 129.014 530.334 129.151C531.405 129.256 533.17 129.824 533.638 128.295C533.871 127.583 533.548 127.025 533.315 126.404C533.138 125.962 532.966 125.494 532.759 125.057C532.338 124.022 531.897 122.98 531.422 121.985C530.512 120.014 529.37 118.168 528.02 116.487C527.91 116.376 527.779 116.289 527.633 116.232C527.488 116.175 527.333 116.149 527.176 116.155C527.019 116.161 526.865 116.2 526.721 116.268C526.578 116.336 526.449 116.433 526.342 116.552C526.307 116.606 526.282 116.665 526.268 116.728C526.087 116.842 525.931 116.994 525.811 117.173C523.825 120.117 521.816 123.063 519.824 126.032C519.688 126.276 519.63 126.557 519.661 126.832C519.692 127.108 519.808 127.364 519.994 127.564C520.795 128.455 522.095 128.349 523.212 128.462ZM527.105 119.458C527.904 120.597 528.608 121.804 529.209 123.066C529.627 123.915 529.992 124.775 530.355 125.64C530.49 125.964 530.617 126.307 530.787 126.623C530.427 126.591 530.07 126.553 529.71 126.521L526.85 126.24C525.92 126.148 525.019 126.036 524.083 125.958C523.655 125.908 523.223 125.879 522.794 125.829C524.227 123.703 525.653 121.581 527.105 119.458Z" fill="white" fill-opacity="0.4"/>
<path d="M128.837 135.994L132.282 136.312C133.502 136.423 134.745 136.545 135.959 136.682C137.03 136.787 138.795 137.355 139.263 135.826C139.496 135.114 139.173 134.556 138.94 133.935C138.763 133.493 138.591 133.025 138.384 132.588C137.963 131.554 137.522 130.512 137.047 129.516C136.137 127.546 134.995 125.7 133.645 124.018C133.535 123.908 133.404 123.821 133.258 123.764C133.113 123.707 132.958 123.681 132.801 123.687C132.644 123.693 132.49 123.732 132.346 123.8C132.203 123.868 132.074 123.965 131.967 124.084C131.932 124.138 131.907 124.197 131.893 124.26C131.712 124.374 131.556 124.526 131.436 124.705C129.45 127.649 127.441 130.594 125.449 133.563C125.313 133.807 125.255 134.088 125.286 134.364C125.317 134.639 125.433 134.896 125.619 135.095C126.42 135.986 127.72 135.88 128.837 135.994ZM132.73 126.989C133.529 128.129 134.233 129.335 134.834 130.598C135.252 131.447 135.617 132.307 135.98 133.171C136.115 133.495 136.242 133.838 136.412 134.155C136.052 134.122 135.695 134.085 135.335 134.052L132.475 133.771C131.545 133.679 130.644 133.567 129.708 133.489C129.28 133.439 128.848 133.41 128.419 133.36C129.852 131.235 131.278 129.112 132.73 126.989Z" fill="white" fill-opacity="0.4"/>
<path d="M584.552 33.6744L587.554 35.3889C588.617 35.9952 589.697 36.6197 590.745 37.2471C591.675 37.7861 593.045 39.0324 594.107 37.8349C594.616 37.284 594.554 36.642 594.602 35.981C594.624 35.5055 594.663 35.0089 594.657 34.5256C594.704 33.4101 594.738 32.28 594.72 31.1774C594.713 29.0081 594.444 26.8563 593.917 24.7684C593.862 24.6219 593.779 24.4887 593.67 24.3769C593.562 24.2651 593.432 24.1768 593.286 24.1176C593.141 24.0583 592.985 24.0292 592.826 24.032C592.667 24.0347 592.509 24.0693 592.362 24.1336C592.308 24.168 592.26 24.2119 592.222 24.263C592.01 24.2917 591.804 24.3654 591.62 24.4791C588.587 26.3354 585.532 28.1842 582.483 30.0617C582.257 30.2274 582.088 30.4591 582.001 30.7226C581.914 30.9861 581.913 31.2675 581.999 31.5257C582.357 32.6679 583.584 33.1095 584.552 33.6744ZM591.846 27.0929C592.098 28.4598 592.235 29.8488 592.256 31.2459C592.283 32.1912 592.257 33.1247 592.226 34.0617C592.214 34.4122 592.187 34.7766 592.21 35.135C591.897 34.9564 591.586 34.7744 591.273 34.5959L588.788 33.1573C587.98 32.6889 587.208 32.2142 586.388 31.7564C586.019 31.5337 585.638 31.3286 585.27 31.106C587.458 29.7646 589.64 28.4231 591.846 27.0929Z" fill="white" fill-opacity="0.4"/>
<path d="M46.2161 119.75L49.2176 121.465C50.2809 122.071 51.3611 122.696 52.4089 123.323C53.3392 123.862 54.7087 125.108 55.7711 123.911C56.2799 123.36 56.2184 122.718 56.2657 122.057C56.2884 121.581 56.3267 121.085 56.3211 120.602C56.3684 119.486 56.4021 118.356 56.384 117.254C56.3774 115.084 56.1076 112.933 55.5806 110.845C55.5264 110.698 55.4427 110.565 55.3344 110.453C55.2262 110.342 55.0956 110.253 54.9504 110.194C54.8053 110.135 54.6486 110.106 54.4898 110.108C54.331 110.111 54.1734 110.146 54.0263 110.21C53.9721 110.244 53.9245 110.288 53.886 110.34C53.6736 110.368 53.4684 110.442 53.2843 110.556C50.2507 112.412 47.196 114.261 44.1469 116.138C43.9209 116.304 43.752 116.535 43.6649 116.799C43.5778 117.062 43.5773 117.344 43.6631 117.602C44.0207 118.744 45.2477 119.186 46.2161 119.75ZM53.5101 113.169C53.7622 114.536 53.8994 115.925 53.9205 117.322C53.9473 118.267 53.9208 119.201 53.8905 120.138C53.8783 120.488 53.851 120.853 53.8743 121.211C53.5606 121.032 53.2505 120.85 52.9367 120.672L50.4523 119.233C49.6439 118.765 48.8718 118.29 48.0521 117.833C47.6832 117.61 47.3026 117.405 46.9337 117.182C49.1224 115.841 51.3039 114.499 53.5101 113.169Z" fill="white" fill-opacity="0.4"/>
<path d="M375.401 132.436L378.402 134.15C379.465 134.756 380.546 135.381 381.593 136.008C382.524 136.547 383.893 137.794 384.956 136.596C385.464 136.045 385.403 135.403 385.45 134.742C385.473 134.267 385.511 133.77 385.506 133.287C385.553 132.171 385.587 131.041 385.569 129.939C385.562 127.769 385.292 125.618 384.765 123.53C384.711 123.383 384.627 123.25 384.519 123.138C384.411 123.026 384.28 122.938 384.135 122.879C383.99 122.82 383.833 122.79 383.674 122.793C383.516 122.796 383.358 122.831 383.211 122.895C383.157 122.929 383.109 122.973 383.071 123.024C382.858 123.053 382.653 123.127 382.469 123.24C379.435 125.097 376.381 126.945 373.331 128.823C373.105 128.989 372.937 129.22 372.849 129.484C372.762 129.747 372.762 130.029 372.848 130.287C373.205 131.429 374.432 131.871 375.401 132.436ZM382.695 125.854C382.947 127.221 383.084 128.61 383.105 130.007C383.132 130.952 383.105 131.886 383.075 132.823C383.063 133.173 383.036 133.538 383.059 133.896C382.745 133.718 382.435 133.536 382.121 133.357L379.637 131.919C378.829 131.45 378.056 130.975 377.237 130.518C376.868 130.295 376.487 130.09 376.118 129.867C378.307 128.526 380.489 127.184 382.695 125.854Z" fill="white" fill-opacity="0.4"/>
<path d="M503.619 22.8014L506.621 24.5159C507.684 25.1221 508.764 25.7466 509.812 26.374C510.743 26.913 512.112 28.1593 513.174 26.9619C513.683 26.411 513.622 25.769 513.669 25.108C513.692 24.6325 513.73 24.1358 513.724 23.6526C513.772 22.537 513.805 21.407 513.787 20.3043C513.781 18.1351 513.511 15.9832 512.984 13.8953C512.93 13.7488 512.846 13.6157 512.738 13.5038C512.63 13.392 512.499 13.3038 512.354 13.2445C512.209 13.1853 512.052 13.1562 511.893 13.1589C511.734 13.1617 511.577 13.1962 511.43 13.2606C511.375 13.2949 511.328 13.3388 511.289 13.39C511.077 13.4187 510.872 13.4923 510.688 13.606C507.654 15.4624 504.599 17.3112 501.55 19.1887C501.324 19.3544 501.155 19.586 501.068 19.8496C500.981 20.1131 500.981 20.3945 501.066 20.6527C501.424 21.7948 502.651 22.2365 503.619 22.8014ZM510.913 16.2198C511.165 17.5868 511.303 18.9758 511.324 20.3728C511.351 21.3182 511.324 22.2517 511.294 23.1887C511.282 23.5391 511.254 23.9035 511.278 24.2619C510.964 24.0834 510.654 23.9014 510.34 23.7228L507.856 22.2842C507.047 21.8159 506.275 21.3412 505.455 20.8833C505.087 20.6606 504.706 20.4556 504.337 20.2329C506.526 18.8916 508.707 17.5501 510.913 16.2198Z" fill="white" fill-opacity="0.4"/>
<path d="M233.542 129.718L236.544 131.433C237.607 132.039 238.687 132.664 239.735 133.291C240.665 133.83 242.035 135.076 243.097 133.879C243.606 133.328 243.545 132.686 243.592 132.025C243.615 131.549 243.653 131.053 243.647 130.57C243.695 129.454 243.728 128.324 243.71 127.221C243.704 125.052 243.434 122.9 242.907 120.812C242.853 120.666 242.769 120.533 242.661 120.421C242.552 120.309 242.422 120.221 242.277 120.162C242.132 120.102 241.975 120.073 241.816 120.076C241.657 120.079 241.5 120.113 241.352 120.178C241.298 120.212 241.251 120.256 241.212 120.307C241 120.336 240.795 120.409 240.611 120.523C237.577 122.379 234.522 124.228 231.473 126.106C231.247 126.271 231.078 126.503 230.991 126.767C230.904 127.03 230.903 127.311 230.989 127.57C231.347 128.712 232.574 129.153 233.542 129.718ZM240.836 123.137C241.088 124.504 241.226 125.893 241.247 127.29C241.273 128.235 241.247 129.169 241.217 130.106C241.205 130.456 241.177 130.821 241.201 131.179C240.887 131 240.577 130.818 240.263 130.64L237.779 129.201C236.97 128.733 236.198 128.258 235.378 127.8C235.009 127.578 234.629 127.373 234.26 127.15C236.449 125.809 238.63 124.467 240.836 123.137Z" fill="white" fill-opacity="0.4"/>
<path d="M331.752 26.4254L334.754 28.1399C335.817 28.7462 336.897 29.3706 337.945 29.998C338.875 30.537 340.245 31.7833 341.307 30.5859C341.816 30.035 341.755 29.393 341.802 28.732C341.825 28.2565 341.863 27.7599 341.857 27.2766C341.905 26.1611 341.938 25.031 341.92 23.9284C341.914 21.7591 341.644 19.6073 341.117 17.5194C341.063 17.3729 340.979 17.2397 340.871 17.1279C340.762 17.016 340.632 16.9278 340.487 16.8686C340.341 16.8093 340.185 16.7802 340.026 16.7829C339.867 16.7857 339.71 16.8203 339.562 16.8846C339.508 16.9189 339.461 16.9629 339.422 17.014C339.21 17.0427 339.005 17.1164 338.82 17.23C335.787 19.0864 332.732 20.9352 329.683 22.8127C329.457 22.9784 329.288 23.2101 329.201 23.4736C329.114 23.7371 329.113 24.0185 329.199 24.2767C329.557 25.4189 330.784 25.8605 331.752 26.4254ZM339.046 19.8439C339.298 21.2108 339.436 22.5998 339.457 23.9969C339.483 24.9422 339.457 25.8757 339.427 26.8127C339.414 27.1631 339.387 27.5276 339.41 27.8859C339.097 27.7074 338.787 27.5254 338.473 27.3468L335.988 25.9083C335.18 25.4399 334.408 24.9652 333.588 24.5073C333.219 24.2847 332.839 24.0796 332.47 23.8569C334.659 22.5156 336.84 21.1741 339.046 19.8439Z" fill="white" fill-opacity="0.4"/>
<path d="M170.797 45.4522L173.799 47.1667C174.862 47.773 175.942 48.3975 176.99 49.0249C177.92 49.5639 179.29 50.8102 180.352 49.6127C180.861 49.0618 180.799 48.4199 180.847 47.7588C180.87 47.2833 180.908 46.7867 180.902 46.3035C180.949 45.1879 180.983 44.0579 180.965 42.9552C180.958 40.786 180.689 38.6341 180.162 36.5462C180.108 36.3997 180.024 36.2665 179.916 36.1547C179.807 36.0429 179.677 35.9547 179.532 35.8954C179.386 35.8361 179.23 35.807 179.071 35.8098C178.912 35.8125 178.754 35.8471 178.607 35.9114C178.553 35.9458 178.506 35.9897 178.467 36.0409C178.255 36.0696 178.049 36.1432 177.865 36.2569C174.832 38.1133 171.777 39.9621 168.728 41.8396C168.502 42.0053 168.333 42.2369 168.246 42.5004C168.159 42.7639 168.158 43.0454 168.244 43.3035C168.602 44.4457 169.829 44.8874 170.797 45.4522ZM178.091 38.8707C178.343 40.2376 178.481 41.6267 178.502 43.0237C178.528 43.9691 178.502 44.9026 178.472 45.8395C178.459 46.19 178.432 46.5544 178.455 46.9128C178.142 46.7343 177.832 46.5522 177.518 46.3737L175.033 44.9351C174.225 44.4668 173.453 43.9921 172.633 43.5342C172.264 43.3115 171.884 43.1065 171.515 42.8838C173.703 41.5424 175.885 40.201 178.091 38.8707Z" fill="white" fill-opacity="0.4"/>
<path d="M34.5432 99.8726L37.2692 66.0591H51.8079L84.0657 72.8218L81.794 103.737L34.5432 99.8726Z" fill="white"/>
<path d="M44.1531 85.0175C54.6013 86.8012 65.0494 88.5849 75.4975 90.3686C77.5088 90.7164 77.6358 87.3509 75.6351 87.0032C65.187 85.2195 54.7389 83.4357 44.2908 81.652C42.2795 81.3155 42.1524 84.681 44.1531 85.0175Z" fill="#1E1E1E"/>
<path d="M55.6809 95.1926C56.5383 95.2824 57.3005 94.4522 57.3322 93.5772C57.3746 92.6236 56.6653 91.9169 55.8079 91.8271C52.2299 91.4569 48.599 91.2213 45.1269 90.2005C44.3012 89.9537 43.4014 90.3912 43.1262 91.2886C42.8721 92.13 43.3167 93.1621 44.153 93.4089C47.9109 94.4971 51.8171 94.7887 55.6809 95.1926Z" fill="#1E1E1E"/>
<path d="M61.4606 95.2041C61.7782 95.5518 62.1275 95.6865 62.5721 95.765C64.1706 96.023 65.7584 96.281 67.3569 96.5278C67.7274 96.5839 68.2143 96.3483 68.4789 96.1015C68.7753 95.8211 69.0082 95.3499 69.0082 94.9236C69.0082 94.4973 68.8918 94.0486 68.606 93.7345C68.2884 93.3867 67.9391 93.2521 67.4945 93.1735C65.896 92.9155 64.3082 92.6575 62.7097 92.4107C62.3392 92.3546 61.8523 92.5902 61.5876 92.837C61.2912 93.1175 61.0583 93.5998 61.0583 94.0149C61.0583 94.43 61.1642 94.89 61.4606 95.2041Z" fill="#1E1E1E"/>
<path d="M84.5798 99.1637C84.8233 96.5723 85.035 93.9809 85.2467 91.3895C85.2256 91.0305 85.2256 90.6603 85.2573 90.2901C85.3103 89.8189 85.3949 89.3477 85.4796 88.8766C85.5008 88.7307 85.5326 88.5849 85.5537 88.4503C85.5537 88.4727 85.5537 88.4503 85.5537 88.4278C85.5537 88.3157 85.5643 88.1923 85.5855 88.0688C85.5961 88.0352 85.5961 88.0015 85.6067 87.9679C85.7019 87.1041 85.649 86.2291 85.6808 85.3652C85.7019 84.8829 85.7337 84.4005 85.8078 83.9181C86.0618 80.1936 86.2947 76.4804 86.4747 72.7559C86.5064 72.1053 86.2312 71.6117 85.8395 71.3088C85.6596 70.7927 85.2467 70.3776 84.601 70.2655C69.9186 67.8984 55.1939 65.8455 40.4268 64.1291C38.3943 63.8935 38.0661 67.2365 40.0986 67.4721C54.5164 69.1549 68.9024 71.1517 83.2566 73.4514C82.9073 80.2834 82.4521 87.0816 81.8699 93.8799C81.7217 95.6187 81.5629 97.3576 81.3935 99.0964C81.3194 99.9153 81.2347 100.745 81.1501 101.564C81.1183 101.834 80.9807 102.395 80.9913 102.754C80.8537 102.742 80.716 102.742 80.589 102.731C77.2651 102.563 73.9412 102.361 70.6278 102.137C63.8106 101.665 57.0146 101.06 50.2186 100.319C46.8205 99.949 43.4331 99.5451 40.0457 99.1076C39.2623 99.0067 38.479 98.9057 37.6956 98.8047C37.3146 98.7486 36.9335 98.7038 36.5524 98.6477C36.5947 97.997 36.5841 97.2117 36.6053 97.0435C36.69 96.0226 36.7747 95.013 36.8594 93.9921C37.5369 85.8589 38.2038 77.7144 38.8812 69.5811C39.0612 67.4272 35.9066 67.0795 35.7267 69.2334C35.0598 77.1871 34.4035 85.1297 33.7472 93.0834C33.599 94.9344 33.419 96.7854 33.292 98.6252C33.1755 100.319 33.5884 101.52 35.3033 101.856C38.9871 102.563 42.798 102.843 46.5136 103.27C53.913 104.122 61.323 104.818 68.7436 105.356C72.5015 105.625 76.2595 105.861 80.0174 106.052C81.4994 106.13 83.1508 106.355 83.9024 104.672C84.1988 103.999 84.1988 103.169 84.2729 102.451C84.3681 101.362 84.474 100.263 84.5798 99.1637Z" fill="#1E1E1E"/>
<path d="M60.1057 77.176C55.141 76.8282 50.2081 76.1215 45.3492 75.0109C44.5129 74.8201 43.6343 75.1679 43.3485 76.099C43.105 76.8955 43.5285 78.0286 44.3753 78.2193C49.52 79.3972 54.7282 80.1825 59.9681 80.5527C62.0111 80.6761 62.1488 77.3106 60.1057 77.176Z" fill="#1E1E1E"/>
<path d="M44.9466 60.9768C44.9889 59.9672 44.2797 59.3838 43.4222 59.2267C41.6227 58.8902 39.8019 58.6546 37.9812 58.5424C36.3086 58.4302 34.4561 58.4302 33.2282 59.8437C32.0426 61.2124 31.5874 63.3551 31.1322 65.1051C30.6135 67.1132 30.243 69.1774 29.9995 71.2415C29.8937 72.139 30.7088 72.9579 31.5239 72.9916C32.4343 73.0364 33.0694 72.2848 33.1753 71.3761C33.3658 69.727 33.6516 68.1116 34.0539 66.5074C34.255 65.6997 34.4879 64.9032 34.7314 64.1067C34.9325 63.456 35.1019 62.6708 35.4935 62.1771C35.5571 62.0986 35.6629 62.0089 35.7476 61.9752C35.8958 61.9079 36.224 61.863 36.3616 61.8518C37.0496 61.8069 37.7589 61.8855 38.447 61.9416C40.0666 62.065 41.6862 62.2893 43.2846 62.581C44.1421 62.7493 44.9148 61.8069 44.9466 60.9768Z" fill="#FBB03B"/>
<path d="M90.1693 102.776C90.3281 101.912 90.0423 100.914 89.1425 100.656C88.3909 100.443 87.3218 100.813 87.1418 101.744C86.9513 102.765 86.6654 103.752 86.2844 104.717C86.2632 104.773 86.2208 104.863 86.2103 104.885C86.1467 105.008 86.0832 105.132 86.0197 105.244C85.8927 105.48 85.7551 105.715 85.5963 105.94C85.5328 106.029 85.4798 106.119 85.4163 106.209C85.4163 106.209 85.2893 106.377 85.247 106.433C85.194 106.489 85.0882 106.613 85.067 106.624C84.9929 106.702 84.9082 106.792 84.8235 106.871C84.6753 107.016 84.5165 107.14 84.3578 107.274C84.3366 107.297 84.3366 107.297 84.326 107.308C84.3154 107.308 84.326 107.308 84.3048 107.319C84.2096 107.375 84.1143 107.443 84.019 107.499C83.8391 107.6 83.6697 107.701 83.4791 107.779C83.4262 107.802 83.3627 107.824 83.3415 107.847C83.2674 107.869 83.1933 107.903 83.1192 107.925C82.9287 107.981 82.7381 108.026 82.537 108.06C82.537 108.06 82.4206 108.071 82.3465 108.082C82.283 108.082 82.1877 108.093 82.1665 108.093C81.9548 108.093 81.7431 108.06 81.5419 108.049C81.4149 108.015 81.2985 107.981 81.1715 107.936C80.3775 107.678 79.4036 108.138 79.1708 109.025C78.9484 109.9 79.3507 110.864 80.1976 111.145C82.4841 111.908 84.9294 111.156 86.7395 109.574C88.6556 107.88 89.6824 105.289 90.1693 102.776Z" fill="#FBB03B"/>
<path d="M295.785 66.5425L289.879 69.9238L286.699 90.212L289.879 96.9747L348.034 106.636L351.669 103.254L355.303 90.212L357.575 76.6865L295.785 66.5425Z" fill="white"/>
<path d="M358.856 77.8944C358.846 77.7486 358.846 77.5915 358.824 77.4569C358.496 74.8094 354.95 74.0578 350.695 73.3959C350.028 73.2949 349.382 73.194 348.8 73.0818C344.258 72.2404 303.779 66.104 299.195 65.7002C294.844 65.3188 291.34 65.2627 289.244 68.1009C288.207 69.5144 287.773 71.2981 287.328 73.4857C286.831 75.8864 286.407 78.3432 286.005 80.6541C285.127 85.7921 285.074 86.0052 284.46 91.4349C284.322 92.6801 285.465 93.0167 285.973 93.1064L287.741 93.4205L288.143 92.1641C288.186 92.0294 288.207 91.906 288.228 91.8051C288.8 86.7905 288.779 86.9812 289.562 82.2359C289.943 79.9137 290.356 77.6028 290.8 75.2918C290.832 75.1011 290.875 74.8543 290.906 74.585C291.15 72.9135 291.467 70.6138 292.939 69.4583C293.765 68.8076 294.802 68.6842 295.829 68.7291C296.379 68.7515 296.919 68.8189 297.417 68.8862C297.649 68.9198 297.861 68.9423 298.031 68.9647C300.508 69.1666 303.016 69.4359 305.483 69.7724C307.939 70.0977 346.291 76.0098 348.747 76.4697C349.848 76.6716 350.959 76.896 352.06 77.1204C352.208 77.154 352.399 77.1765 352.611 77.2101C352.833 77.2438 353.076 77.2774 353.32 77.3223L355.141 77.6476L354.961 80.8336C354.876 82.0452 354.781 83.2456 354.654 84.4459C354.4 86.9588 354.05 89.4941 353.616 91.9846C352.706 97.2123 352.261 96.6289 350.822 100.78L350.748 100.97C350.303 102.272 349.636 104.246 347.953 104.762C346.82 105.11 345.561 104.762 344.555 104.482C344.343 104.426 344.142 104.37 343.973 104.336L288.525 94.6994L288.101 94.6209L287.54 96.0568C287.466 96.2475 287.455 96.326 287.445 96.3485C287.392 96.8982 287.625 97.2908 287.942 97.5825C288.461 98.0537 289.213 98.2219 289.34 98.2556L303.08 101.139C303.8 101.285 340.405 106.983 341.157 107.163C344.692 108.015 348.345 108.891 350.991 107.107C353.468 105.424 354.41 102.115 355.321 98.9175L355.469 98.379C356.728 93.9702 357.004 94.6657 357.692 90.3355C358.009 88.2938 358.274 86.2072 358.475 84.143C358.517 83.6606 358.57 83.1782 358.634 82.6846C358.803 81.058 358.983 79.3865 358.856 77.8944Z" fill="#1E1E1E"/>
<path d="M344.439 86.7788C342.078 88.8766 339.537 90.6827 336.859 92.2645C335.388 89.1683 333.927 86.0608 332.456 82.9646C332.096 82.2017 330.931 81.8764 330.275 82.3812C327.396 84.6136 324.432 86.7002 321.372 88.6522C320.843 86.3637 320.377 84.064 320.007 81.7418C319.795 80.3844 318.144 80.2946 317.35 81.0238C315.698 82.527 314.047 84.0415 312.396 85.5448C311.4 83.6152 310.522 81.6408 309.77 79.5879C309.315 78.3539 308.066 78.0061 307.113 78.8699C304.393 81.3267 301.492 83.5143 298.433 85.455C296.686 86.5656 298.306 89.4599 300.063 88.3493C302.699 86.6778 305.197 84.8044 307.6 82.7739C308.479 84.9165 309.474 87.0031 310.607 89.0112C311.168 89.9984 312.343 90.0321 313.105 89.3253C314.555 88.0016 315.995 86.6778 317.445 85.3541C317.837 87.4855 318.281 89.617 318.811 91.7148C319.075 92.7805 320.282 93.2405 321.15 92.702C324.357 90.7276 327.47 88.5961 330.497 86.3188C331.937 89.359 333.377 92.3991 334.816 95.4281C335.218 96.2694 336.277 96.404 336.997 96.0114C340.48 94.1043 343.708 91.7933 346.715 89.1234C348.271 87.7435 345.995 85.3989 344.439 86.7788Z" fill="#FBB03B"/>
<path d="M166.754 70.4062H160.848L162.665 50.6012L177.204 52.5334V45.2876H216.277V52.5334H227.181V56.8808L224.455 133.686H191.289L164.483 130.305V110.983L166.754 70.4062Z" fill="white"/>
<path d="M161.898 70.7026C162.247 66.0021 162.597 61.2905 162.935 56.59C163.009 55.5804 162.967 54.4585 163.221 53.4713C163.454 52.5402 164.036 52.2934 164.873 52.1588C166.767 51.8447 168.821 52.0915 170.726 52.1139C172.653 52.1364 174.58 52.17 176.506 52.2037C176.591 52.1588 176.686 52.1251 176.792 52.1364C177.321 52.1588 177.851 52.1588 178.39 52.17C177.925 50.9809 177.967 49.803 178.602 48.8831C177.194 48.8606 175.786 48.8157 174.389 48.7933C171.944 48.7597 169.498 48.7372 167.053 48.726C165.359 48.7148 163.549 48.7036 162.067 49.702C160.225 50.9472 160.014 53.1123 159.865 55.2214C159.686 57.7118 159.495 60.2023 159.315 62.6927C159.124 65.2729 158.934 67.8644 158.743 70.4446C158.574 72.5985 161.739 72.8677 161.898 70.7026Z" fill="#1E1E1E"/>
<path d="M228.408 54.212C227.784 52.3049 226.693 50.9812 224.735 50.7007C222.385 50.3641 219.94 50.3866 217.568 50.2632H217.558C217.357 51.385 217.103 52.4844 216.965 53.6062C219.178 53.7296 221.39 53.8306 223.602 53.9764C224.534 54.0325 224.968 54.0774 225.328 55.0422C225.698 56.0069 225.868 57.0615 225.984 58.0823C226.228 60.2362 226.058 62.4238 225.963 64.5777C225.762 69.2333 225.561 73.8776 225.36 78.5332C224.629 95.5289 225.413 113.018 223.655 130.081C223.38 132.74 223.338 133.447 220.67 133.604C219.326 133.682 217.992 133.559 216.648 133.469C213.938 133.29 211.228 133.301 208.518 133.189C205.765 133.065 203.034 132.83 200.293 132.583C197.932 132.37 195.571 132.291 193.211 132.157C190.12 131.977 186.997 131.685 183.98 130.967C178.613 130.575 173.246 130.16 167.879 129.756C167.339 129.711 166.746 129.655 166.344 129.273C165.825 128.791 165.783 127.972 165.772 127.243C165.518 109.125 166.471 90.9855 168.631 73.0138C168.789 71.6789 168.557 69.8054 167.297 69.7493C166.164 69.6932 165.667 71.2189 165.518 72.408C163.253 90.8172 162.353 109.406 162.808 127.972C162.851 129.565 162.999 131.371 164.195 132.325C164.979 132.953 166.016 133.043 167 133.121C185.028 134.423 203.055 135.668 221.094 136.857C222.216 136.936 223.391 136.992 224.386 136.442C227.106 134.939 226.344 130.788 226.408 128.152C226.524 123.518 226.81 118.897 227 114.275C227.445 103.943 227.89 93.6218 228.334 83.2898C228.556 78.1742 228.779 73.0587 228.99 67.932C229.192 63.4334 229.827 58.5535 228.408 54.212Z" fill="#1E1E1E"/>
<path d="M230.959 90.1668C230.504 98.8272 230.462 107.521 230.822 116.193C230.917 118.358 234.071 117.954 233.976 115.8C233.627 107.432 233.659 99.0516 234.103 90.6828C234.209 88.5289 231.076 88.0016 230.959 90.1668Z" fill="#FBB03B"/>
<path d="M166.206 135.567C165.741 135.612 165.285 135.634 164.82 135.646C164.809 135.646 164.809 135.646 164.809 135.646C164.703 135.634 164.597 135.634 164.491 135.634C164.259 135.623 164.026 135.601 163.793 135.567C163.348 135.511 162.914 135.444 162.48 135.343C162.353 135.309 162.237 135.287 162.11 135.253C162.099 135.253 162.057 135.242 162.025 135.231C161.983 135.219 161.877 135.186 161.845 135.174C161.824 135.163 161.771 135.141 161.729 135.118C161.718 135.085 161.697 135.051 161.686 135.029C161.612 134.58 161.538 134.142 161.464 133.694C161.295 132.639 161.136 131.596 160.966 130.541C160.829 129.677 160.077 128.915 159.209 129.06C158.394 129.206 157.674 130.003 157.812 130.923L158.362 134.434C158.563 135.702 158.743 137.048 159.823 137.844C160.755 138.529 162.004 138.731 163.105 138.888C164.248 139.045 165.412 139.056 166.566 138.933C167.392 138.843 168.091 137.957 167.964 137.07C167.837 136.128 167.096 135.477 166.206 135.567Z" fill="#FBB03B"/>
<path d="M208.962 73.1706C207.12 68.6721 201.89 65.8675 197.593 64.8803C192.353 63.6912 188.965 67.3708 186.689 72.0039C185.006 75.4367 188.881 78.8134 191.199 76.9848C193.168 77.3102 195.253 77.1194 197.243 77.456C200.112 77.9384 203.002 78.174 205.902 78.2301C208.432 78.2862 209.967 75.6162 208.962 73.1706Z" fill="#FBB03B"/>
<path d="M199.826 89.9196C199.53 89.8635 199.255 89.7962 198.98 89.7177C199.657 89.4597 200.335 89.2241 200.98 88.8763C202.928 87.833 204.548 85.8922 203.32 83.7271C202.251 81.8312 200.059 81.6517 198.027 81.4835C195.455 81.2591 192.872 81.1357 190.289 81.0796C186.139 80.9899 185.8 86.9468 189.971 87.0365C190.32 87.0477 190.659 87.0589 191.009 87.0702C190.723 87.317 190.469 87.5862 190.246 87.8667C189.643 88.6632 189.484 90.0093 190.088 90.8732C190.638 91.6584 191.411 92.3876 192.279 93.0495C192.067 94.8556 193.581 96.9759 196.132 96.6057C197.593 96.3925 198.958 95.9775 200.303 95.4165C202.642 94.4293 202.61 90.4581 199.826 89.9196Z" fill="#FBB03B"/>
<path d="M216.118 99.5562C216.044 96.2805 215.959 93.016 215.885 89.7402C215.536 75.2126 218.288 60.8644 217.939 46.3256C218.267 45.5964 218.023 44.6204 217.176 44.3063C216.711 44.0258 216.097 43.9697 215.62 44.1604C209.131 43.9024 202.632 43.6332 196.143 43.3752C192.723 43.2405 189.304 43.0947 185.885 42.9601C184.17 42.8928 182.466 42.8255 180.751 42.7582C179.438 42.7021 177.617 42.287 176.781 43.5434C176.093 44.5867 176.358 46.3704 176.305 47.5596C176.22 49.2872 176.135 51.0148 176.04 52.7312C175.871 56.0181 175.712 59.3051 175.543 62.592C175.215 69.1659 174.876 75.7398 174.548 82.3138C174.378 85.6007 174.219 88.8877 174.05 92.1746C173.976 93.7339 173.891 95.2933 173.817 96.8526C173.754 98.1539 173.733 99.5113 174.749 100.51C175.585 101.34 176.749 101.486 177.893 101.519C179.777 101.576 181.661 101.564 183.556 101.609C186.986 101.699 190.416 101.834 193.835 102.024C200.684 102.406 204.421 102.821 211.238 103.617C212.37 103.752 213.863 104.178 214.953 103.651C216.52 102.888 216.15 100.958 216.118 99.5562ZM179.343 48.9619C179.385 48.0532 179.438 47.1557 179.481 46.247C179.491 46.09 179.512 45.9105 179.523 45.731C180.2 45.7983 180.963 45.7422 181.619 45.7647C182.476 45.7983 183.323 45.832 184.181 45.8656C187.769 46.0115 191.358 46.1573 194.957 46.3031C201.594 46.5724 208.221 46.8416 214.858 47.0996C215.006 53.1575 214.308 59.1705 213.641 65.1835C213.556 65.0713 213.461 64.9703 213.344 64.8918C213.037 64.6899 212.635 64.5665 212.286 64.6786C211.301 65.004 210.306 65.3181 209.322 65.6434C208.972 65.7556 208.665 65.9351 208.454 66.2829C208.263 66.597 208.168 67.0569 208.253 67.4271C208.337 67.7973 208.528 68.1563 208.845 68.3582C209.152 68.5602 209.555 68.6836 209.904 68.5714C210.888 68.2461 211.884 67.9319 212.868 67.6066C213.069 67.5393 213.249 67.4383 213.418 67.3037C213.101 70.2541 212.815 73.2157 212.677 76.1774C211.28 76.1101 209.883 76.054 208.486 75.9867C208.486 75.953 208.486 75.9306 208.486 75.8969C208.2 72.6885 207.003 69.3903 204.823 67.113C202.536 64.7235 199.414 63.8148 196.27 63.7139C193.306 63.6129 190.289 64.3197 187.886 66.2829C185.292 68.4031 184.085 71.791 183.588 75.1453C181.735 75.1004 179.883 75.0555 178.03 75.0219C178.464 66.3277 178.898 57.6448 179.343 48.9619ZM205.68 75.8633C199.244 75.5828 192.808 75.3584 186.372 75.2014C186.774 72.6548 187.737 70.0858 189.728 68.5041C191.633 66.9896 194.131 66.5745 196.439 66.7092C198.958 66.8438 201.457 67.5281 203.182 69.6035C204.632 71.3423 205.384 73.5747 205.68 75.8633ZM211.386 100.644C209.682 100.442 211.079 100.442 209.375 100.263C206.22 99.9376 203.055 99.6572 199.89 99.4328C193.56 98.9616 187.219 98.6812 180.867 98.569C180.095 98.5578 179.322 98.5466 178.549 98.5354C178.179 98.5354 177.406 98.67 177.088 98.468C176.697 98.2212 176.887 97.436 176.898 97.0209C176.94 96.202 176.982 95.383 177.025 94.5529L177.49 85.4324C177.617 82.9532 177.745 80.4627 177.872 77.9835C189.442 78.1966 201.012 78.5893 212.572 79.1502C212.561 79.9916 212.561 80.8442 212.582 81.6855C212.73 87.7434 212.879 93.79 213.016 99.8479C213.016 100.039 212.974 100.42 212.984 100.723C212.476 100.644 211.767 100.689 211.386 100.644Z" fill="#1E1E1E"/>
<path d="M206.389 79.9581C199.233 80.261 192.077 80.0927 184.943 79.4645C183.164 79.3074 183.006 82.2803 184.784 82.4373C191.919 83.0656 199.075 83.2338 206.231 82.9309C207.998 82.8524 208.178 79.8796 206.389 79.9581Z" fill="#1E1E1E"/>
<path d="M201.351 84.5912C197.91 84.4566 194.48 84.322 191.04 84.1986C190.289 84.1649 189.622 84.7931 189.579 85.6008C189.537 86.3973 190.13 87.1377 190.881 87.1714C194.322 87.306 197.751 87.4406 201.192 87.564C201.943 87.5977 202.61 86.9695 202.653 86.1618C202.695 85.3653 202.102 84.6136 201.351 84.5912Z" fill="#1E1E1E"/>
<path d="M198.652 89.2132C197.138 89.1683 195.635 89.0673 194.131 88.9103C193.412 88.8318 192.681 89.5385 192.671 90.3126C192.66 91.1539 193.2 91.8046 193.973 91.8831C195.476 92.0402 196.979 92.1412 198.493 92.186C199.213 92.2085 199.943 91.6027 199.954 90.7837C199.975 89.9985 199.435 89.2356 198.652 89.2132Z" fill="#1E1E1E"/>
<path d="M184.752 64.9145C184.657 64.5443 184.467 64.1965 184.16 63.9834C183.249 63.3664 182.381 62.6709 181.555 61.9192C181.439 61.7846 181.312 61.6837 181.164 61.6163C181.005 61.5154 180.825 61.4593 180.635 61.4593C180.296 61.4369 179.883 61.5827 179.629 61.8407C179.375 62.11 179.174 62.4689 179.163 62.8728C179.163 63.243 179.248 63.6917 179.512 63.9497C180.486 64.8809 181.513 65.7334 182.614 66.4851C182.921 66.6982 183.313 66.7767 183.673 66.6982C184.001 66.6197 184.361 66.3729 184.541 66.0588C184.742 65.711 184.848 65.3072 184.752 64.9145Z" fill="#1E1E1E"/>
<path d="M193.305 59.7651C193.189 59.4398 193.083 59.1032 192.967 58.7779C192.914 58.6096 192.903 58.5872 192.945 58.7106C192.924 58.6433 192.903 58.5647 192.871 58.4974C192.818 58.3292 192.765 58.1609 192.713 58.0038C192.511 57.3644 192.31 56.7249 192.12 56.0743C191.728 54.7617 191.368 53.438 191.029 52.103C190.839 51.3514 190.13 50.7456 189.378 50.9588C188.679 51.1607 188.108 51.9235 188.309 52.7312C189.018 55.5695 189.865 58.374 190.828 61.1225C191.082 61.8517 192.099 62.1321 192.691 61.7732C193.411 61.3356 193.581 60.5504 193.305 59.7651Z" fill="#1E1E1E"/>
<path d="M206.114 53.0342C205.5 52.6416 204.58 52.7313 204.188 53.4605C202.939 55.7827 201.69 58.1049 200.43 60.4271C200.07 61.1002 200.155 62.0649 200.822 62.4912C201.436 62.8839 202.356 62.7941 202.748 62.0649C203.997 59.7428 205.246 57.4206 206.506 55.0984C206.877 54.4253 206.792 53.4717 206.114 53.0342Z" fill="#1E1E1E"/>
<path d="M199.785 117.696C191.92 117.146 184.023 116.956 176.136 117.101C174.093 117.135 174.474 120.478 176.507 120.444C184.107 120.31 191.708 120.501 199.298 121.028C201.33 121.162 201.828 117.842 199.785 117.696Z" fill="#1E1E1E"/>
<path d="M211.312 110.326C199.773 107.959 187.949 107.364 176.241 108.508C174.209 108.71 174.579 112.053 176.612 111.851C188.044 110.73 199.551 111.335 210.835 113.646C212.836 114.061 213.313 110.73 211.312 110.326Z" fill="#1E1E1E"/>
<path d="M213.143 117.73C212.646 117.023 211.577 116.821 210.92 117.393C210.793 117.505 210.698 117.629 210.603 117.763C210.338 117.932 210.105 118.19 209.925 118.515C209.089 120.018 208.274 121.522 207.469 123.036C207.078 123.776 206.686 124.528 206.294 125.28C205.808 126.233 205.151 127.254 205.638 128.365C205.85 128.858 206.316 129.374 206.866 129.397C209.851 129.509 212.836 129.386 215.8 128.959C216.584 128.847 217.388 127.995 217.198 127.097C216.457 123.709 215.123 120.534 213.143 117.73ZM209.491 126.099C209.502 126.076 209.523 126.043 209.534 126.02C209.894 125.325 210.264 124.629 210.635 123.934C211.037 123.182 211.439 122.442 211.852 121.701C211.916 121.813 212.021 122.004 212.021 122.004C212.085 122.116 212.148 122.24 212.201 122.352C212.381 122.711 212.551 123.07 212.709 123.429C213.006 124.113 213.27 124.809 213.503 125.515C213.535 125.616 213.567 125.728 213.599 125.829C212.826 125.908 212.053 125.975 211.28 126.02C210.677 126.076 210.074 126.087 209.491 126.099Z" fill="#1E1E1E"/>
<path d="M453.895 93.5884C449.767 93.465 445.797 94.0933 441.881 95.4731C440.769 95.8657 440.324 97.885 440.843 99.1303C441.478 100.645 442.632 101.049 443.818 100.634C443.892 100.611 443.934 100.589 443.966 100.577C443.987 100.566 444.019 100.566 444.061 100.544C444.294 100.465 444.538 100.398 444.77 100.319C445.183 100.196 445.586 100.084 445.998 99.9828C446.856 99.7697 447.724 99.5902 448.602 99.4556C449.439 99.321 450.286 99.2312 451.132 99.1751C451.556 99.1415 451.979 99.1303 452.403 99.119C452.54 99.119 452.689 99.1078 452.826 99.1078C452.953 99.1078 453.027 99.1078 453.038 99.1078C453.048 99.1078 453.059 99.1078 453.08 99.1078C453.218 99.1078 453.366 99.119 453.504 99.119C454.657 99.1527 455.864 98.3674 455.917 96.7408C455.97 95.3834 455.144 93.6221 453.895 93.5884Z" fill="#FBB03B"/>
<path d="M460.532 69.8845C453.324 70.9615 446.019 71.7467 438.874 73.1939C435.539 73.867 436.323 79.4088 439.679 78.7357C446.824 77.2998 454.139 76.5033 461.337 75.4263C464.714 74.9215 463.909 69.3797 460.532 69.8845Z" fill="#FBB03B"/>
<path d="M429.814 61.7119L466.161 56.8813L473.431 106.636L471.159 110.5L448.442 114.364H438.447L434.812 97.9407L429.814 61.7119Z" fill="white"/>
<path d="M455.706 59.0368C449.852 59.9791 443.998 60.9214 438.133 61.875C436.619 62.1218 435.095 62.3686 433.581 62.6154C432.798 62.7388 431.538 62.6378 431.136 63.5689C430.967 63.9504 431.094 64.5898 431.115 64.9937C431.295 68.0562 431.708 71.13 432.057 74.1814C433.349 85.467 435.159 96.6965 437.477 107.803C437.752 109.104 437.953 110.461 438.324 111.74C438.451 112.189 438.599 112.514 438.779 112.761C438.631 112.525 438.493 112.223 438.377 111.819C438.006 110.54 437.795 109.182 437.53 107.881C435.212 96.775 433.401 85.5567 432.11 74.2599C431.761 71.2086 431.348 68.1348 431.168 65.0722C431.147 64.6683 431.02 64.0401 431.189 63.6475C431.591 62.7163 432.851 62.8173 433.634 62.6939C435.148 62.4471 436.672 62.2003 438.186 61.9647C444.04 61.0224 449.894 60.0801 455.759 59.1265C456.87 58.947 457.082 57.7018 456.627 56.9165C457.008 57.6906 456.764 58.8573 455.706 59.0368Z" fill="#1E1E1E"/>
<path d="M469.424 69.4584C469.308 68.8526 469.054 68.1908 468.937 67.6186C468.726 66.6314 468.524 65.633 468.334 64.6458C467.963 62.6938 467.667 60.7194 467.614 58.7225C467.582 57.7129 467.54 56.7481 466.799 56.0414C466.111 55.3795 465.264 55.0205 464.332 55.0205C463.21 55.0317 462.109 55.3795 460.977 55.2897C460.797 55.2785 460.627 55.2561 460.448 55.2112C458.743 54.841 458.447 57.7017 460.141 58.0719C460.67 58.1841 461.252 58.2289 461.792 58.1841C462.565 58.1167 463.337 57.7802 464.11 57.9821C465.063 58.2289 464.883 59.2834 464.883 60.136C464.883 61.3813 465.126 62.6041 465.37 63.8156C465.825 66.0929 466.291 68.3815 466.746 70.6588C466.979 71.8367 468.281 72.779 469.107 71.4553C469.297 71.1524 469.361 70.7934 469.424 70.4456C469.456 70.2549 469.498 70.0642 469.488 69.8847C469.467 69.7389 469.445 69.6043 469.424 69.4584Z" fill="#1E1E1E"/>
<path d="M428.775 68.325C428.564 66.1711 427.833 63.1422 429.336 61.3248C430.173 60.3152 431.401 60.1469 432.576 59.945C433.983 59.7094 435.391 59.4851 436.81 59.2607C442.992 58.2623 449.174 57.2638 455.356 56.2654C455.959 56.1644 456.393 56.4673 456.637 56.8936C456.404 56.4112 455.949 56.0747 455.292 56.1757C449.11 57.1741 442.928 58.1725 436.746 59.1709C435.338 59.3953 433.931 59.6197 432.512 59.8553C431.337 60.046 430.109 60.2255 429.273 61.2351C427.77 63.0525 428.5 66.0814 428.712 68.2353C430.003 81.5514 432.014 94.7889 434.735 107.858C435.158 109.878 435.36 112.637 436.524 114.466C435.413 112.637 435.201 109.934 434.788 107.948C432.078 94.8787 430.067 81.6411 428.775 68.325Z" fill="#1E1E1E"/>
<path d="M474.273 104.504C473.955 100.129 472.526 95.8661 472.261 91.4797C472.23 90.874 472.209 90.2569 472.05 89.6624C471.891 89.0678 471.563 88.5069 471.055 88.2264C470.547 87.946 469.837 88.0245 469.488 88.5069C469.149 88.9781 469.223 89.6287 469.308 90.2121C470.081 95.2715 470.843 100.342 471.616 105.402C471.732 106.176 471.817 107.073 471.489 107.802C471.076 108.7 470.113 108.924 469.266 109.081C462.29 110.383 455.324 111.717 448.295 112.581C445.903 112.873 443.5 113.153 441.097 113.355C439.964 113.445 439.266 113.423 438.789 112.738C438.61 112.492 438.461 112.166 438.334 111.717C437.964 110.439 437.752 109.081 437.487 107.78C435.169 96.6738 433.359 85.4555 432.068 74.1587C431.718 71.1074 431.305 68.0336 431.125 64.971C431.104 64.5671 430.977 63.9389 431.147 63.5463C431.549 62.6151 432.809 62.7161 433.592 62.5927C435.106 62.3459 436.63 62.0991 438.144 61.8523C443.998 60.91 449.852 59.9676 455.716 59.0141C456.785 58.8458 457.029 57.6791 456.648 56.8826C456.404 56.4563 455.97 56.1534 455.367 56.2544C449.185 57.2528 443.003 58.2512 436.821 59.2497C435.413 59.474 434.005 59.6984 432.586 59.934C431.411 60.1247 430.183 60.3042 429.347 61.3138C427.844 63.1312 428.574 66.1601 428.786 68.314C430.077 81.6301 432.089 94.8677 434.809 107.937C435.222 109.923 435.423 112.626 436.545 114.466C436.704 114.735 436.895 114.982 437.096 115.206C438.874 117.147 441.965 116.25 444.199 116.014C450.307 115.375 456.404 114.5 462.449 113.389C464.576 112.996 466.725 112.682 468.842 112.211C470.631 111.818 472.547 111.538 473.585 109.743C474.252 108.576 474.379 107.163 474.347 105.794C474.326 105.379 474.305 104.942 474.273 104.504ZM462.374 113.322C459.358 113.871 456.341 114.376 453.313 114.803C456.341 114.376 459.358 113.883 462.374 113.322C464.248 112.974 466.164 112.671 468.059 112.278C466.164 112.671 464.248 112.985 462.374 113.322Z" fill="#1E1E1E"/>
<path d="M452.668 65.6552C447.216 66.8668 441.69 67.7194 436.133 68.1906C435.275 68.2691 434.682 69.2563 434.799 70.1089C434.936 71.0624 435.751 71.5897 436.609 71.5224C442.166 71.0512 447.692 70.1986 453.144 68.9871C455.134 68.5383 454.668 65.2065 452.668 65.6552Z" fill="#1E1E1E"/>
<path d="M463.698 70.4567C454.658 71.7356 445.628 73.0145 436.588 74.2934C434.566 74.5851 435.042 77.9057 437.064 77.6252C446.104 76.3463 455.134 75.0674 464.174 73.7886C466.196 73.4969 465.72 70.1763 463.698 70.4567Z" fill="#1E1E1E"/>
<path d="M450.444 78.3208C446.242 79.2743 441.976 79.7903 437.678 79.8801C436.821 79.9025 436.228 80.9795 436.344 81.7984C436.492 82.7968 437.297 83.2231 438.154 83.2119C442.452 83.1222 446.718 82.6061 450.921 81.6526C451.757 81.4619 452.382 80.6654 452.255 79.7343C452.128 78.8705 451.281 78.13 450.444 78.3208Z" fill="#1E1E1E"/>
<path d="M452.752 94.7555C448.571 95.4846 444.389 96.1577 440.187 96.7635C438.165 97.0552 438.641 100.387 440.663 100.095C444.855 99.4896 449.047 98.8165 453.228 98.0873C455.25 97.7283 454.774 94.4077 452.752 94.7555Z" fill="#1E1E1E"/>
<path d="M466.831 97.9415C458.151 99.456 449.449 100.769 440.716 101.89C438.684 102.148 439.171 105.48 441.192 105.222C449.926 104.1 458.627 102.788 467.307 101.273C469.329 100.914 468.853 97.5937 466.831 97.9415Z" fill="#1E1E1E"/>
<path d="M467.53 103.135L458.934 104.583C458.119 104.717 457.442 105.603 457.6 106.501C457.77 107.387 458.532 108.06 459.411 107.914L468.006 106.467C468.821 106.333 469.499 105.446 469.34 104.549C469.171 103.651 468.408 102.99 467.53 103.135Z" fill="#1E1E1E"/>
<path d="M487.092 59.474C486.965 59.3281 486.796 59.1935 486.658 59.0589C486.573 58.9804 486.521 58.9355 486.478 58.9018C486.457 58.8682 486.425 58.8233 486.341 58.7223C486.097 58.4307 485.843 58.2287 485.568 58.0717C484.245 56.9835 482.339 57.1742 481.111 58.5653C479.926 59.9003 478.814 61.2913 477.756 62.7273C475.744 65.4533 473.955 68.3476 472.219 71.2644C471.362 72.7115 470.536 74.1811 469.636 75.5946C468.811 76.8959 467.763 77.9841 466.884 79.2405C465.91 80.6204 465.264 82.348 465.487 84.0756C465.762 86.2295 467.689 87.8674 469.763 87.2504C471.489 86.7344 472.569 84.7038 473.627 83.2903C474.781 81.7534 475.924 80.2165 477.078 78.6796C479.449 75.5049 482.075 72.4198 484.16 69.0319C484.689 68.1793 485.091 67.2594 485.642 66.4181C486.129 65.6777 486.764 65.0382 487.23 64.2866C487.823 63.3331 488.182 62.2785 487.96 61.1455C487.823 60.5397 487.494 59.9339 487.092 59.474Z" fill="white"/>
<path d="M491.168 53.2364C491.083 52.5745 490.713 51.8902 490.183 51.5312C489.453 51.0376 488.691 51.0152 487.886 51.3068C487.442 51.4639 487.029 51.778 486.658 52.0809C486.33 52.3501 486.023 52.6306 485.716 52.9335C485.102 53.5393 484.531 54.1899 483.97 54.8518C483.557 54.7396 483.123 54.7172 482.71 54.8294C482.36 54.9191 482.064 55.0874 481.789 55.2781C481.45 54.8967 480.984 54.6723 480.497 54.5938C479.809 54.4928 478.994 54.7621 478.349 55.0089C476.972 55.5361 476.2 56.7589 475.596 58.1051C475.469 58.3856 475.342 58.6772 475.205 58.9577C475.194 58.9801 475.12 59.126 475.078 59.1933C475.067 59.2157 475.046 59.2494 475.003 59.3167C474.961 59.3952 474.919 59.4625 474.876 59.541C474.548 60.102 474.199 60.6404 473.828 61.1677C473.447 61.7174 473.056 62.2446 472.653 62.7831C472.59 62.8729 472.516 62.9626 472.442 63.0524C472.431 63.0636 472.389 63.0972 472.336 63.1421C471.595 62.9626 470.727 63.344 470.473 64.1405C470.197 64.9931 470.536 65.9915 471.362 66.3281C472.844 66.9339 474.178 66.1149 475.109 64.9146C475.829 63.9835 476.538 63.0075 477.163 61.9978C477.523 61.4257 477.84 60.8311 478.137 60.2141C478.253 59.9785 478.359 59.743 478.465 59.4962C478.528 59.3615 478.581 59.2157 478.645 59.0811C478.655 59.0587 478.708 58.9465 478.751 58.8792C478.793 58.8119 478.857 58.6997 478.867 58.6885C478.931 58.5875 479.005 58.4865 479.079 58.3968C479.09 58.3856 479.111 58.3743 479.142 58.3407C479.185 58.307 479.206 58.2846 479.227 58.2734C479.248 58.2622 479.259 58.2622 479.28 58.2509C479.386 58.1948 479.502 58.1612 479.629 58.0939C479.651 58.0939 479.651 58.0939 479.725 58.0714C479.788 58.1275 479.852 58.1836 479.915 58.2173C480.042 58.3182 474.675 66.5973 474.188 67.3826C470.801 72.7337 466.334 77.2435 463.274 82.8414C461.909 85.3543 460.871 88.0691 460.374 90.9297C460.162 92.1413 461.57 93.2407 462.597 92.6574C466.842 90.2454 469.89 86.3527 472.632 82.2468C477.248 75.3476 482.022 68.5605 486.859 61.8408C487.008 61.6276 487.166 61.4145 487.315 61.2126C487.41 61.0892 487.473 60.9433 487.526 60.7863C487.854 60.3151 487.95 59.7205 487.738 59.1147C487.632 58.8006 487.495 58.4977 487.346 58.2061C487.431 58.1612 487.526 58.1388 487.611 58.0714C489.157 56.9047 491.464 55.5586 491.168 53.2364ZM478.158 68.9307C475.586 72.3747 473.034 75.83 470.653 79.431C469.605 81.0128 468.514 82.5946 467.329 84.0866C467.191 83.8061 467.043 83.5257 466.884 83.2564C466.842 83.2004 466.799 83.1555 466.746 83.0994C466.323 82.6619 471.764 76.1441 472.177 75.5944C473.775 73.4966 475.321 71.3539 476.824 69.1775C478.274 67.0797 479.545 64.8248 481.006 62.7382C481.863 61.336 482.593 59.7878 483.525 58.4416C483.832 58.5426 484.097 58.9465 484.287 59.2269C484.351 59.3167 484.404 59.4064 484.414 59.5186C484.425 59.6644 484.34 59.7878 484.255 59.9112C483.239 61.3808 482.212 62.8392 481.207 64.3088C480.688 65.0716 480.169 65.8345 479.661 66.5973C479.502 66.8666 478.348 68.9532 478.158 68.9307Z" fill="#1E1E1E"/>
<path d="M614.872 74.1806C616.598 78.9932 615.719 84.535 612.501 88.4278C610.839 90.4471 608.859 91.4343 606.34 91.5128C603.725 91.5913 601.068 90.9967 598.74 89.7291C598.359 89.5272 597.999 89.2916 597.639 89.0336C599.354 90.9519 601.714 92.1971 604.371 92.3317C609.325 92.601 614.322 89.7515 616.238 84.8043C617.794 80.7881 616.83 75.7848 614.332 72.3856C614.163 72.1501 613.983 71.9257 613.792 71.7125C613.697 71.6116 613.602 71.5106 613.507 71.3984C614.078 72.2847 614.533 73.2158 614.872 74.1806Z" fill="#FBB03B"/>
<path d="M603.27 70.9498C603.217 71.7912 602.572 72.2736 601.831 72.3184C597.977 72.554 594.96 76.2673 595.31 80.3395C595.627 84.0864 598.581 86.891 601.809 87.9791C603.62 88.5961 605.8 88.9103 607.684 88.4952C609.484 88.0913 610.786 86.3637 611.665 84.7483C613.454 81.4501 613.475 77.3667 611.823 74.0124C610.564 71.4546 608.129 69.0988 605.345 68.8071C604.35 68.9978 603.365 69.2671 602.392 69.5027C602.931 69.727 603.302 70.3777 603.27 70.9498ZM602.116 77.7481C602.318 78.668 602.572 79.442 602.953 80.2946C603.154 80.7434 603.387 81.1809 603.63 81.596C603.651 81.6408 603.683 81.6745 603.704 81.7194C603.747 81.6969 603.789 81.6633 603.831 81.6408C604.159 81.4277 604.488 81.2145 604.816 81.0126C605.44 80.6087 606.065 80.1937 606.679 79.7786C607.896 78.9597 609.103 78.1071 610.299 77.2433C610.913 76.8058 611.696 76.7384 612.226 77.3779C612.67 77.9164 612.702 78.9821 612.099 79.4196C609.579 81.237 607.018 83.0094 604.392 84.6473C603.545 85.1746 602.646 85.04 602.042 84.2098C601.619 83.6265 601.238 82.9982 600.899 82.3588C600.232 81.1023 599.756 79.7337 599.449 78.3427C599.279 77.5798 599.798 76.7945 600.507 76.6375C601.238 76.458 601.947 76.9852 602.116 77.7481Z" fill="white"/>
<path d="M594.865 82.942C594.293 78.6118 595.955 74.8088 598.422 71.6004C599.554 70.5683 600.74 69.9064 602.328 69.525C602.349 69.5138 602.37 69.5138 602.391 69.5026C602.264 69.4465 602.127 69.4128 601.979 69.424C597.331 69.7045 593.446 73.1485 592.684 78.0957C592.007 82.4821 594.251 86.6777 597.638 89.0448C596.188 87.4181 595.182 85.2979 594.865 82.942Z" fill="#1E1E1E"/>
<path d="M613.517 71.421C611.251 67.8311 607.388 65.2509 603.228 66.0474C601.502 66.3727 602.053 69.211 603.778 68.8744C604.307 68.7734 604.826 68.7622 605.334 68.8183C606.7 68.5603 608.065 68.4593 609.431 68.8295C611.008 69.2558 612.395 70.1982 613.517 71.421Z" fill="#1E1E1E"/>
<path d="M611.823 74.0126C613.475 77.3669 613.453 81.4503 611.664 84.7485C610.786 86.3639 609.494 88.0803 607.684 88.4954C605.8 88.9217 603.619 88.5964 601.809 87.9794C598.581 86.8912 595.638 84.0979 595.31 80.3397C594.96 76.2675 597.977 72.5543 601.83 72.3187C602.571 72.2738 603.217 71.7914 603.27 70.95C603.302 70.3779 602.931 69.7273 602.402 69.5029C602.381 69.5141 602.36 69.5141 602.339 69.5253C600.751 69.918 599.565 70.5686 598.432 71.6007C595.966 74.8091 594.304 78.6121 594.876 82.9424C595.193 85.2982 596.188 87.4185 597.66 89.0451C598.02 89.2919 598.379 89.5275 598.761 89.7406C601.089 91.0083 603.746 91.6029 606.361 91.5243C608.88 91.4458 610.86 90.4474 612.522 88.4393C615.729 84.5466 616.608 78.9935 614.893 74.1921C614.554 73.2386 614.089 72.3075 613.538 71.4324C612.416 70.2209 611.029 69.2673 609.463 68.841C608.097 68.4708 606.732 68.5718 605.366 68.8298C608.129 69.099 610.564 71.4549 611.823 74.0126Z" fill="#1E1E1E"/>
<path d="M600.497 76.6262C599.787 76.7832 599.269 77.5685 599.438 78.3313C599.745 79.7336 600.221 81.1022 600.888 82.3475C601.227 82.9869 601.608 83.6151 602.032 84.1985C602.646 85.0286 603.545 85.1632 604.382 84.636C607.007 82.9981 609.569 81.2256 612.088 79.4083C612.702 78.9708 612.66 77.905 612.215 77.3666C611.686 76.7159 610.903 76.7832 610.289 77.2319C609.092 78.0957 607.886 78.9371 606.668 79.7673C606.054 80.1823 605.43 80.5974 604.805 81.0013C604.477 81.2144 604.149 81.4276 603.821 81.6295C603.778 81.6519 603.736 81.6856 603.694 81.708C603.672 81.6631 603.641 81.6295 603.619 81.5846C603.376 81.1583 603.143 80.732 602.942 80.2833C602.561 79.4307 602.307 78.6679 602.106 77.7368C601.947 76.9851 601.238 76.4579 600.497 76.6262Z" fill="#1E1E1E"/>
<path d="M511.312 94.7441C509.205 94.4636 507.067 94.1383 504.95 93.7681C504.241 93.6447 503.574 94.1495 503.457 94.9011C503.352 95.6079 503.764 96.2697 504.4 96.4492C504.442 96.4605 504.484 96.4717 504.527 96.4829C506.675 96.8643 508.856 97.2009 510.994 97.4813C511.704 97.5711 512.349 97.0438 512.445 96.2922C512.519 95.5293 512.021 94.845 511.312 94.7441Z" fill="#1E1E1E"/>
<path d="M486.171 89.1461C484.117 88.4954 482.064 87.7887 480.052 87.0595C479.385 86.8127 478.634 87.1941 478.401 87.9121C478.168 88.63 478.528 89.4153 479.205 89.6621C481.249 90.4137 483.345 91.1317 485.43 91.7936C485.44 91.7936 485.451 91.8048 485.462 91.8048C486.139 91.9955 486.838 91.5916 487.039 90.8737C487.24 90.1221 486.848 89.3592 486.171 89.1461Z" fill="#1E1E1E"/>
<path d="M498.63 92.5002C496.545 92.0403 494.438 91.513 492.364 90.9633C491.665 90.7726 490.966 91.2213 490.786 91.9617C490.606 92.6909 491.019 93.4313 491.707 93.6221C491.718 93.6221 491.718 93.6221 491.728 93.6333C493.835 94.2054 495.973 94.7327 498.101 95.2038C498.8 95.3609 499.488 94.8897 499.636 94.1381C499.774 93.3865 499.318 92.6797 498.63 92.5002Z" fill="#1E1E1E"/>
<path d="M518.256 62.5703C518.944 62.3571 519.336 61.5831 519.124 60.8539C518.923 60.1247 518.193 59.7096 517.505 59.934C515.07 60.708 513.397 62.2786 512.688 64.4774C512.646 64.6232 512.604 64.7578 512.561 64.9037C512.487 65.1953 512.434 65.487 512.392 65.7787C512.307 66.463 512.72 67.1024 513.334 67.2819C513.387 67.2932 513.45 67.3156 513.514 67.3156C514.223 67.4166 514.879 66.8781 514.964 66.1265C514.985 65.9582 515.017 65.7899 515.059 65.6216C515.081 65.5431 515.102 65.4534 515.134 65.3748C515.589 64.0062 516.605 63.0975 518.256 62.5703Z" fill="#1E1E1E"/>
<path d="M526.502 77.7596C526.185 78.4439 526.46 79.2628 527.095 79.5994C529.339 80.7661 530.832 81.9216 531.784 83.2565C531.964 83.5146 532.208 83.6828 532.483 83.7501C532.854 83.8623 533.266 83.7838 533.605 83.5258C534.177 83.0658 534.293 82.202 533.859 81.5962C532.652 79.9023 530.874 78.4776 528.238 77.1202C527.592 76.806 526.82 77.0865 526.502 77.7596Z" fill="#1E1E1E"/>
<path d="M531.012 60.8873C531.002 60.8873 530.991 60.8761 530.97 60.8761L528.631 60.2815C527.201 59.9225 525.804 59.6645 524.449 59.5075C523.74 59.4289 523.094 59.9786 523.02 60.7303C522.957 61.4146 523.369 62.0316 523.973 62.1999C524.036 62.2223 524.11 62.2335 524.174 62.2447C525.412 62.3906 526.715 62.6262 528.027 62.9627L530.367 63.5573C531.065 63.7368 531.764 63.2768 531.933 62.5364C532.103 61.8072 531.69 61.078 531.012 60.8873Z" fill="#1E1E1E"/>
<path d="M522.882 76.2451C523.168 75.5495 522.861 74.7418 522.205 74.4389C520.257 73.5415 518.468 72.3187 517.166 70.9949C516.647 70.4677 515.832 70.4901 515.335 71.0286C514.837 71.5783 514.858 72.4421 515.366 72.9693C516.891 74.5175 518.944 75.931 521.167 76.9518C521.231 76.9743 521.284 76.9967 521.347 77.0191C521.961 77.1986 522.628 76.8733 522.882 76.2451Z" fill="#1E1E1E"/>
<path d="M556.195 67.293L549.886 65.6887C549.188 65.5093 548.489 65.9692 548.32 66.7096C548.15 67.4388 548.563 68.168 549.241 68.3587C549.251 68.3587 549.262 68.3699 549.283 68.3699L555.592 69.9741C556.291 70.1536 556.989 69.6937 557.159 68.9533C557.328 68.2129 556.894 67.4612 556.195 67.293Z" fill="#1E1E1E"/>
<path d="M568.814 70.5015L562.505 68.8972C561.806 68.7178 561.107 69.1777 560.938 69.9181C560.769 70.6473 561.181 71.3765 561.859 71.5672C561.869 71.5672 561.88 71.5784 561.901 71.5784L568.21 73.1826C568.909 73.3621 569.608 72.9022 569.777 72.1618C569.936 71.4214 569.523 70.6585 568.814 70.5015Z" fill="#1E1E1E"/>
<path d="M543.588 64.0845L537.279 62.4803C536.58 62.3008 535.882 62.7607 535.712 63.5011C535.543 64.2303 535.956 64.9595 536.633 65.1502C536.644 65.1502 536.654 65.1614 536.676 65.1614L542.985 66.7656C543.683 66.9451 544.382 66.4852 544.551 65.756C544.71 65.0044 544.266 64.2527 543.588 64.0845Z" fill="#1E1E1E"/>
<path d="M534.347 87.6093C533.659 87.3625 532.939 87.8 532.738 88.5292C532.24 90.268 531.023 91.962 529.382 93.1623C528.789 93.5886 528.641 94.4524 529.054 95.0694C529.234 95.3499 529.498 95.5294 529.784 95.6191C530.144 95.7201 530.536 95.664 530.864 95.4284C532.981 93.8803 534.569 91.6591 535.225 89.3257C535.426 88.5965 535.035 87.8224 534.347 87.6093Z" fill="#1E1E1E"/>
<path d="M523.888 95.2487C522.12 95.5292 520.151 95.574 517.685 95.417C516.965 95.3721 516.351 95.9442 516.309 96.7071C516.266 97.369 516.679 97.9523 517.261 98.1206C517.346 98.143 517.431 98.1655 517.526 98.1655C520.172 98.345 522.311 98.2776 524.269 97.9748C524.978 97.8626 525.465 97.167 525.359 96.4154C525.254 95.6526 524.587 95.1365 523.888 95.2487Z" fill="#1E1E1E"/>
<path d="M586.704 74.9775C583.073 72.2739 579.876 68.9981 577.229 65.2288C576.795 64.623 575.991 64.4996 575.419 64.9483C574.848 65.3971 574.731 66.2609 575.155 66.8667C576.88 69.3123 578.828 71.5447 580.956 73.5864L575.123 72.1056C574.424 71.9261 573.725 72.3861 573.556 73.1265C573.387 73.8557 573.8 74.5848 574.477 74.7755C574.488 74.7755 574.498 74.7868 574.519 74.7868L579.579 76.0769C578.489 76.4246 577.409 76.8173 576.361 77.2772C575.705 77.5689 575.387 78.3766 575.663 79.0721C575.874 79.6106 576.372 79.936 576.891 79.9135C577.049 79.9135 577.208 79.8799 577.356 79.8125C580.035 78.6346 582.85 77.8718 585.73 77.5465C585.772 77.5465 585.814 77.524 585.846 77.524C585.92 77.5352 585.994 77.5465 586.079 77.5465H586.09C586.121 77.5465 586.143 77.5352 586.174 77.5352C586.248 77.524 586.323 77.5128 586.397 77.4904C586.46 77.4679 586.513 77.4455 586.577 77.4118C586.619 77.3894 586.651 77.3782 586.693 77.3557C586.757 77.3109 586.82 77.266 586.884 77.2211C586.894 77.2099 586.915 77.1987 586.926 77.1763C587.074 77.0304 587.201 76.8621 587.275 76.649C587.487 75.9983 587.244 75.314 586.704 74.9775Z" fill="#1E1E1E"/>
<path d="M423.238 85.8927C423.186 85.7693 423.133 85.6459 423.09 85.5337C422.857 84.9055 422.646 84.2548 422.455 83.6041C422.085 82.3253 421.788 80.9903 421.587 79.6329C421.534 79.2963 421.344 79.0046 421.058 78.8027C420.74 78.5896 420.338 78.511 419.999 78.612C419.343 78.8027 418.972 79.4646 419.089 80.2274C419.29 81.5288 419.565 82.8076 419.904 84.0192C420.052 84.5577 420.222 85.0962 420.401 85.6234C419.936 85.5225 419.459 85.4327 418.994 85.3542C417.776 85.1523 416.548 85.0064 415.331 84.9279C414.876 84.8942 414.484 85.0962 414.251 85.4776C413.997 85.8814 413.965 86.4424 414.188 86.9023C414.399 87.351 414.791 87.6203 415.267 87.6539C416.601 87.7437 417.914 87.912 419.152 88.1475C419.798 88.2709 420.454 88.4168 421.1 88.5851L421.217 88.6187C421.471 88.686 421.809 88.7758 422.169 88.7758C422.646 88.7758 423.133 88.6187 423.461 88.0241C423.852 87.2837 423.503 86.476 423.238 85.8927Z" fill="#1E1E1E"/>
<path d="M377.455 51.4861C377.54 51.4413 377.635 51.3964 377.72 51.3627C378.44 51.0486 379.213 50.8916 380.017 50.8916C381.467 50.8916 383.002 51.4076 384.347 52.3499C384.558 52.4958 384.802 52.5743 385.056 52.5743C385.49 52.5743 385.892 52.3499 386.125 51.9685C386.316 51.6656 386.379 51.3066 386.316 50.9477C386.252 50.5887 386.051 50.2858 385.765 50.0839C384.008 48.8498 381.965 48.1655 380.017 48.1655C378.874 48.1655 377.773 48.3899 376.746 48.8386C376.619 48.8947 376.492 48.9508 376.365 49.0181C375.719 49.3434 375.444 50.1512 375.751 50.8355C376.047 51.5198 376.82 51.8115 377.455 51.4861Z" fill="#1E1E1E"/>
<path d="M382.79 74.1582C382.78 74.1582 382.78 74.1582 382.79 74.1582C382.441 74.1582 382.124 74.2928 381.88 74.5508C380.578 75.9195 379.043 77.2993 377.064 78.9035C376.746 79.1615 376.428 79.4084 376.111 79.6552C375.836 79.8683 375.656 80.1936 375.603 80.5526C375.55 80.9116 375.635 81.2706 375.836 81.5623C376.079 81.91 376.46 82.1119 376.873 82.1119C377.148 82.1119 377.413 82.0222 377.635 81.8427C377.963 81.5847 378.292 81.3267 378.609 81.0687C380.695 79.3971 382.303 77.9388 383.68 76.4804C383.923 76.2224 384.061 75.8858 384.061 75.5156C384.061 75.1566 383.934 74.8089 383.69 74.5508C383.447 74.304 383.129 74.1582 382.79 74.1582Z" fill="#1E1E1E"/>
<path d="M374.84 64.129C374.025 62.6818 373.581 60.8757 373.581 59.0471C373.581 58.5984 373.612 58.1384 373.665 57.6897C373.761 56.9493 373.252 56.265 372.554 56.164C371.855 56.0631 371.209 56.6015 371.114 57.342C371.051 57.9029 371.008 58.475 371.008 59.0471C371.008 61.3917 371.569 63.6354 372.628 65.5201C372.734 65.7108 372.84 65.8903 372.956 66.0698C373.2 66.4512 373.591 66.6868 374.025 66.6868C374.279 66.6868 374.523 66.6082 374.734 66.4624C375.02 66.2605 375.221 65.9576 375.285 65.5986C375.359 65.2396 375.285 64.8806 375.094 64.5777C375.01 64.4319 374.925 64.2861 374.84 64.129Z" fill="#1E1E1E"/>
<path d="M369.558 83.9742C367.145 85.5111 364.647 86.9471 362.127 88.2259C361.492 88.5513 361.217 89.3702 361.524 90.0433C361.735 90.5145 362.191 90.8174 362.678 90.8174C362.868 90.8174 363.059 90.7725 363.228 90.6827C365.822 89.3702 368.383 87.8894 370.871 86.3076C371.474 85.915 371.675 85.0848 371.305 84.4342C370.956 83.7947 370.172 83.5928 369.558 83.9742Z" fill="#1E1E1E"/>
<path d="M389.322 71.8024C388.856 71.7351 388.39 71.6678 387.946 71.5893C385.564 71.163 383.394 70.4674 381.489 69.5139C381.182 69.3568 380.832 69.3456 380.504 69.4578C380.176 69.5812 379.922 69.828 379.774 70.1533C379.625 70.4787 379.604 70.8489 379.721 71.1966C379.837 71.5444 380.07 71.8136 380.377 71.9707C382.505 73.0364 384.897 73.8105 387.512 74.2704C387.978 74.349 388.475 74.4275 388.983 74.506C389.036 74.5172 389.089 74.5172 389.142 74.5172C389.788 74.5172 390.328 74.0124 390.412 73.3281C390.518 72.5877 390.021 71.9034 389.322 71.8024Z" fill="#1E1E1E"/>
<path d="M406.089 73.8329C405.317 73.6534 404.523 73.4963 403.718 73.3617C401.559 73.0252 399.389 72.8681 397.388 72.7447C397.049 72.7111 396.721 72.8345 396.456 73.0813C396.202 73.3168 396.044 73.6646 396.022 74.0348C396.001 74.3938 396.118 74.7528 396.351 75.022C396.584 75.2913 396.891 75.4483 397.24 75.4707C399.198 75.5829 401.284 75.7288 403.348 76.0541C404.089 76.1663 404.83 76.3121 405.528 76.4804C405.624 76.5028 405.719 76.514 405.814 76.514C406.418 76.514 406.936 76.0765 407.063 75.4483C407.137 75.0893 407.084 74.7303 406.894 74.4162C406.703 74.1246 406.418 73.9114 406.089 73.8329Z" fill="#1E1E1E"/>
<path d="M416.368 83.3797C416.612 83.7611 417.003 83.9854 417.437 83.9854C417.692 83.9854 417.935 83.9069 418.147 83.7499C418.433 83.5479 418.623 83.245 418.697 82.886C418.761 82.5271 418.697 82.1681 418.507 81.8652C417.459 80.2049 416.072 78.7353 414.399 77.5125C414.114 77.3106 413.775 77.232 413.436 77.2881C413.097 77.3554 412.801 77.5574 412.61 77.8491C412.208 78.4661 412.356 79.3186 412.938 79.7449C414.336 80.777 415.5 81.9998 416.368 83.3797Z" fill="#1E1E1E"/>
<path d="M389.28 57.331C388.581 57.4544 388.105 58.15 388.21 58.8904C388.306 59.5074 388.348 60.158 388.348 60.8087C388.348 62.828 387.903 64.9707 387.056 66.99C386.919 67.3265 386.908 67.6967 387.035 68.0332C387.162 68.3698 387.406 68.639 387.713 68.7849C387.882 68.8634 388.052 68.8971 388.232 68.8971C388.74 68.8971 389.205 68.5829 389.407 68.0893C390.391 65.7223 390.91 63.2094 390.91 60.8087C390.91 60.0122 390.857 59.2269 390.74 58.4641C390.635 57.7237 389.978 57.2188 389.28 57.331Z" fill="#1E1E1E"/>
<path d="M154.129 91.5132C152.138 90.9299 150.17 90.4026 147.83 89.7856C147.131 89.6061 146.433 90.0549 146.263 90.7841C146.094 91.5245 146.517 92.2649 147.206 92.4444C149.524 93.0614 151.482 93.5886 153.44 94.1608C154.129 94.3627 154.848 93.9364 155.039 93.2072C155.145 92.8033 155.071 92.3883 154.859 92.0742C154.69 91.8161 154.446 91.6142 154.129 91.5132Z" fill="#1E1E1E"/>
<path d="M109.721 69.6374C110.346 69.2785 110.579 68.4371 110.24 67.7752C110.123 67.5508 110.017 67.3265 109.901 67.1021C109.107 65.453 108.451 63.6357 107.943 61.7061C107.9 61.5603 107.847 61.4257 107.773 61.3023C107.466 60.8311 106.905 60.5843 106.355 60.7526C105.667 60.9545 105.264 61.7174 105.455 62.4465C106.005 64.5556 106.736 66.5412 107.604 68.3473C107.72 68.5941 107.847 68.8409 107.974 69.0877C108.303 69.7608 109.086 70.0076 109.721 69.6374Z" fill="#1E1E1E"/>
<path d="M112.114 31.0802C112.558 31.6748 113.373 31.7645 113.934 31.2933C114.263 31.0129 114.612 30.7436 114.972 30.4856C116.284 29.5433 117.714 28.8141 119.206 28.3205C119.894 28.0961 120.265 27.3221 120.053 26.6041C120.011 26.4695 119.958 26.3573 119.894 26.2451C119.587 25.7515 118.994 25.5159 118.433 25.7066C116.697 26.2788 115.046 27.1201 113.522 28.2195C113.109 28.5112 112.707 28.8253 112.325 29.1506C111.754 29.633 111.659 30.4856 112.114 31.0802Z" fill="#1E1E1E"/>
<path d="M134.227 34.8495C135.053 36.2742 135.847 37.9457 136.736 40.0996C136.831 40.3352 136.927 40.5708 137.022 40.8064C137.297 41.5131 138.059 41.8272 138.716 41.5356C139.372 41.2439 139.679 40.4362 139.404 39.7406C139.309 39.4938 139.213 39.2583 139.107 39.0115C138.176 36.7342 137.318 34.9504 136.429 33.4135C136.419 33.4023 136.408 33.3799 136.397 33.3687C136.006 32.7629 135.244 32.5834 134.64 32.9648C134.037 33.3575 133.857 34.1988 134.227 34.8495Z" fill="#1E1E1E"/>
<path d="M139.097 47.0889C139.658 49.3999 139.901 51.4865 139.838 53.4833C139.817 54.2462 140.367 54.8744 141.087 54.9081C141.807 54.9305 142.4 54.3359 142.431 53.5843C142.505 51.3182 142.241 48.9736 141.616 46.4046C141.574 46.2476 141.521 46.1017 141.436 45.9783C141.14 45.5072 140.589 45.2716 140.039 45.4174C139.33 45.6081 138.917 46.3485 139.097 47.0889Z" fill="#1E1E1E"/>
<path d="M121.916 81.697C121.567 82.3589 121.799 83.189 122.424 83.5592C124.277 84.6362 126.288 85.6458 128.405 86.5657C129.072 86.8574 129.823 86.5209 130.099 85.8141C130.268 85.3766 130.205 84.8942 129.972 84.524C129.834 84.3109 129.633 84.1314 129.389 84.0192C127.357 83.1442 125.441 82.1794 123.673 81.1473C123.038 80.7883 122.255 81.0351 121.916 81.697Z" fill="#1E1E1E"/>
<path d="M125.039 27.7374C126.521 27.9394 127.897 28.433 129.125 29.1958C129.538 29.4538 129.94 29.7343 130.321 30.0596C130.893 30.5196 131.697 30.4074 132.142 29.8016C132.491 29.3192 132.491 28.6686 132.184 28.1974C132.11 28.074 132.015 27.973 131.898 27.8721C131.422 27.4906 130.935 27.1317 130.427 26.8175C128.892 25.864 127.188 25.247 125.367 25.0002C124.658 24.8992 124.012 25.4265 123.917 26.1781C123.821 26.9522 124.33 27.6365 125.039 27.7374Z" fill="#1E1E1E"/>
<path d="M133.761 87.1829C133.549 87.9121 133.93 88.6749 134.619 88.8993C136.471 89.505 138.472 90.0996 140.906 90.7727C141.595 90.9634 142.304 90.5259 142.484 89.7855C142.579 89.3929 142.505 88.989 142.304 88.6749C142.134 88.4057 141.87 88.2037 141.552 88.114C139.149 87.4521 137.191 86.8687 135.37 86.2742C134.693 86.061 133.973 86.4649 133.761 87.1829Z" fill="#1E1E1E"/>
<path d="M109.996 34.6365C109.891 34.4795 109.753 34.3336 109.584 34.2327C108.97 33.84 108.176 34.0532 107.805 34.7038C106.683 36.6895 105.794 38.9219 105.169 41.3563C104.979 42.0854 105.381 42.8483 106.08 43.039C106.768 43.2409 107.477 42.8146 107.668 42.0742C108.229 39.8867 109.033 37.8786 110.028 36.1061C110.303 35.6349 110.272 35.0628 109.996 34.6365Z" fill="#1E1E1E"/>
<path d="M105.476 47.1109C104.767 47.066 104.143 47.6381 104.1 48.3898C103.994 50.1622 104.005 52.002 104.111 53.8755C104.143 54.4027 104.185 54.9412 104.238 55.4685C104.312 56.2201 104.936 56.7698 105.656 56.7025C106.366 56.624 106.884 55.9621 106.821 55.1992C106.778 54.6944 106.736 54.2008 106.704 53.696C106.598 51.9459 106.588 50.2183 106.694 48.558C106.715 48.2439 106.63 47.9522 106.471 47.7054C106.249 47.3689 105.889 47.1333 105.476 47.1109Z" fill="#1E1E1E"/>
<path d="M138.557 59.6868C137.826 61.5939 136.768 63.4449 135.423 65.2061C134.968 65.8007 135.063 66.6645 135.614 67.1357C136.175 67.6181 136.99 67.5171 137.435 66.9338C138.938 64.9706 140.123 62.884 140.949 60.7301C141.118 60.2925 141.055 59.8102 140.822 59.4399C140.684 59.2268 140.483 59.0473 140.24 58.9351C139.583 58.6435 138.832 58.98 138.557 59.6868Z" fill="#1E1E1E"/>
<path d="M95.1023 83.4584C94.3296 83.7501 93.578 84.053 92.8581 84.3559C91.5455 84.9168 90.2435 85.5562 88.9838 86.2518C88.3486 86.6107 88.1051 87.4409 88.4439 88.1028C88.7826 88.7759 89.5554 89.0339 90.1905 88.6749C91.3656 88.0242 92.5829 87.4185 93.8109 86.9024C94.4989 86.6107 95.2188 86.3303 95.9598 86.0498C96.6372 85.7918 96.9866 85.0177 96.7537 84.2998C96.7113 84.1876 96.669 84.0866 96.6055 83.9857C96.2879 83.4808 95.6739 83.2453 95.1023 83.4584Z" fill="#1E1E1E"/>
<path d="M102.068 84.0752C104.068 83.5031 106.133 82.9758 108.133 82.4598L108.324 82.4149C109.023 82.2354 109.446 81.495 109.277 80.7546C109.234 80.5864 109.171 80.4405 109.097 80.3059C108.8 79.8459 108.26 79.5991 107.721 79.745L107.53 79.7899C105.519 80.3059 103.444 80.8444 101.411 81.4165C100.723 81.6072 100.311 82.3701 100.501 83.0992C100.66 83.8397 101.369 84.2772 102.068 84.0752Z" fill="#1E1E1E"/>
<path d="M120.042 76.0768C119.28 76.3684 118.486 76.6489 117.65 76.9294C116.231 75.7178 114.94 74.4277 113.807 73.0927C113.331 72.5318 112.516 72.4757 111.976 72.9917C111.447 73.4966 111.394 74.3604 111.881 74.9325C112.738 75.9422 113.67 76.9294 114.686 77.8717C114.453 77.939 114.21 78.0063 113.966 78.0848C113.278 78.2868 112.865 79.0384 113.056 79.7676C113.246 80.4968 113.955 80.9343 114.644 80.7323C115.543 80.4743 116.411 80.2163 117.226 79.9471C117.724 80.1153 118.296 79.9471 118.645 79.4871C119.439 79.2179 120.201 78.9486 120.931 78.6682C121.609 78.4102 121.958 77.6249 121.715 76.9069C121.672 76.7947 121.63 76.6938 121.567 76.604C121.228 76.0992 120.614 75.8636 120.042 76.0768Z" fill="#1E1E1E"/>
<path d="M125.261 75.2693C125.6 75.9424 126.383 76.1892 127.018 75.8302C128.183 75.1683 129.326 74.4391 130.395 73.6651C131.168 73.1154 131.909 72.532 132.618 71.9375C133.158 71.4887 133.264 70.681 132.883 70.0977C132.862 70.064 132.84 70.0416 132.819 70.0079C132.375 69.4134 131.56 69.3124 130.999 69.7836C130.342 70.3333 129.644 70.8717 128.934 71.3878C127.929 72.1057 126.87 72.7788 125.78 73.4071C125.155 73.766 124.922 74.5962 125.261 75.2693Z" fill="#1E1E1E"/>
<path d="M243.462 96.4045C241.377 96.1353 239.302 96.2026 237.227 96.5055C236.931 96.5503 236.592 96.8757 236.444 97.1449C236.285 97.4366 236.211 97.8741 236.317 98.2106C236.422 98.5472 236.613 98.8725 236.92 99.0408C237.248 99.2315 237.555 99.2315 237.926 99.1754C237.619 99.2203 238.021 99.1642 238.084 99.153C238.201 99.1417 238.307 99.1305 238.423 99.1081C238.667 99.0857 238.91 99.0632 239.154 99.0408C239.63 99.0071 240.096 98.9847 240.572 98.9847C241.535 98.9735 242.499 99.0408 243.462 99.1642C244.139 99.2539 244.796 98.4687 244.764 97.7843C244.732 96.9654 244.192 96.4943 243.462 96.4045Z" fill="#1E1E1E"/>
<path d="M254.217 100.555C254.111 100.196 253.91 99.9606 253.614 99.725C252.269 98.6705 250.681 97.9189 249.041 97.5487C248.374 97.4028 247.601 97.7506 247.432 98.5135C247.283 99.209 247.633 100.05 248.342 100.219C248.956 100.353 249.559 100.555 250.141 100.802C250.904 101.161 251.623 101.587 252.301 102.115C252.555 102.316 253.01 102.339 253.307 102.249C253.614 102.159 253.942 101.913 254.09 101.61C254.238 101.307 254.323 100.914 254.217 100.555Z" fill="#1E1E1E"/>
<path d="M262.591 107.869C261.31 105.951 259.658 104.347 257.7 103.225C257.097 102.877 256.25 103.046 255.911 103.719C255.594 104.358 255.742 105.244 256.377 105.615C256.811 105.861 257.224 106.131 257.626 106.433C257.721 106.501 257.806 106.568 257.891 106.635C257.922 106.658 257.954 106.691 257.996 106.714C258.187 106.871 258.367 107.028 258.547 107.196C258.907 107.533 259.246 107.892 259.563 108.262C259.722 108.453 259.881 108.643 260.029 108.845C260.029 108.845 260.029 108.857 260.039 108.857C260.05 108.879 260.071 108.901 260.082 108.913C260.082 108.913 260.082 108.924 260.092 108.924C260.103 108.946 260.114 108.958 260.135 108.98C260.124 108.958 260.124 108.958 260.114 108.946C260.188 109.047 260.262 109.16 260.336 109.26C260.537 109.563 260.77 109.799 261.119 109.9C261.437 109.99 261.85 109.945 262.125 109.765C262.675 109.384 263.014 108.498 262.591 107.869Z" fill="#1E1E1E"/>
<path d="M260.05 108.857L260.04 108.846C259.997 108.79 259.987 108.79 260.114 108.947C260.114 108.935 260.103 108.935 260.103 108.924C260.082 108.902 260.071 108.879 260.05 108.857Z" fill="#1E1E1E"/>
<path d="M272.625 115.42C272.054 115.319 271.503 115.173 270.953 114.993C270.667 114.892 270.392 114.791 270.117 114.679C270.117 114.679 270.117 114.679 270.106 114.679C270.053 114.657 269.99 114.623 269.947 114.601C269.81 114.533 269.661 114.455 269.524 114.388C269.016 114.118 268.518 113.804 268.042 113.456C267.925 113.378 267.82 113.288 267.714 113.198C267.661 113.154 267.608 113.109 267.565 113.064C267.322 112.851 267.089 112.626 266.867 112.402C266.369 111.897 265.501 111.841 265.025 112.402C264.559 112.94 264.496 113.827 265.025 114.354C266.92 116.283 269.344 117.63 271.937 118.09C272.604 118.213 273.377 117.899 273.546 117.125C273.684 116.452 273.345 115.543 272.625 115.42Z" fill="#1E1E1E"/>
<path d="M285.021 114.769C284.651 114.163 283.846 113.849 283.232 114.275C282.873 114.522 282.513 114.746 282.121 114.948C282.089 114.959 281.825 115.116 281.814 115.094C281.867 115.072 281.92 115.049 281.973 115.027C281.92 115.049 281.867 115.072 281.814 115.094C281.613 115.173 281.412 115.251 281.211 115.318C280.819 115.453 280.417 115.554 280.014 115.621C279.983 115.633 279.951 115.633 279.919 115.633C279.856 115.621 279.739 115.655 279.686 115.666C279.464 115.689 279.231 115.7 279.009 115.711C278.331 115.722 277.675 116.339 277.707 117.091C277.738 117.831 278.278 118.493 279.009 118.471C280.967 118.426 282.925 117.809 284.556 116.653C285.117 116.261 285.413 115.419 285.021 114.769Z" fill="#1E1E1E"/>
<path d="M292.77 104.1C292.029 103.921 291.426 104.336 291.172 105.065C291.119 105.222 291.055 105.379 291.002 105.536C291.002 105.547 291.002 105.547 291.002 105.547C291.002 105.559 291.002 105.559 290.992 105.57C290.96 105.637 290.939 105.704 290.907 105.772C290.78 106.075 290.632 106.378 290.494 106.68C290.198 107.275 289.87 107.858 289.51 108.408C289.425 108.531 289.351 108.655 289.266 108.778C289.213 108.857 289.16 108.924 289.107 109.003C289.097 109.014 289.055 109.07 289.033 109.104C289.002 109.148 288.959 109.193 288.949 109.216C288.906 109.272 288.864 109.328 288.811 109.384C288.705 109.519 288.61 109.642 288.504 109.765C288.07 110.282 287.604 110.775 287.117 111.235C286.609 111.717 286.62 112.705 287.117 113.187C287.657 113.714 288.419 113.703 288.959 113.187C291.087 111.179 292.685 108.621 293.681 105.794C293.924 105.121 293.416 104.257 292.77 104.1Z" fill="#1E1E1E"/>
</svg>
