<svg width="710" height="168" viewBox="0 0 710 168" fill="none" xmlns="http://www.w3.org/2000/svg">
<path d="M710 0H0V168H710V0Z" fill="#F9F9F9"/>
<path d="M44.3559 87.1614L79.2002 92.7572C81.4369 93.1208 81.5546 89.6015 79.3533 89.2379L44.4972 83.6421C42.2606 83.2902 42.131 86.8095 44.3559 87.1614Z" fill="black"/>
<path d="M57.1754 97.8017C57.4072 97.8109 57.6387 97.7746 57.8565 97.6947C58.0743 97.6148 58.2741 97.4929 58.4446 97.3361C58.6152 97.1792 58.753 96.9904 58.8503 96.7804C58.9476 96.5705 59.0025 96.3435 59.0117 96.1124C59.021 95.8813 58.9846 95.6507 58.9044 95.4337C58.8242 95.2167 58.7019 95.0175 58.5445 94.8475C58.3871 94.6776 58.1976 94.5402 57.987 94.4433C57.7763 94.3463 57.5485 94.2916 57.3166 94.2824C53.3157 94.0563 49.3418 93.4872 45.439 92.5814C44.9925 92.4382 44.5073 92.4777 44.09 92.6911C43.6728 92.9045 43.3577 93.2744 43.2141 93.7193C43.0705 94.1642 43.1101 94.6477 43.3242 95.0635C43.5384 95.4793 43.9095 95.7934 44.3559 95.9365C48.5689 96.9158 52.8572 97.5398 57.1754 97.8017Z" fill="black"/>
<path d="M63.6025 97.8133C63.9205 98.1312 64.3338 98.3371 64.7797 98.3999L70.1006 99.1976C70.5584 99.2137 71.005 99.0541 71.3484 98.7518C71.7013 98.4308 71.9129 97.9839 71.9369 97.5083C71.9581 97.0513 71.7973 96.6044 71.4896 96.2648C71.1759 95.9411 70.7605 95.7341 70.3124 95.6783L64.9916 94.8806C64.7624 94.8673 64.5328 94.8999 64.3165 94.9765C64.1002 95.053 63.9014 95.172 63.732 95.3264C63.5581 95.4802 63.4166 95.667 63.3159 95.8758C63.2151 96.0847 63.157 96.3114 63.1449 96.5429C63.1329 96.7743 63.1672 97.0057 63.2457 97.2238C63.3243 97.442 63.4456 97.6424 63.6025 97.8133Z" fill="black"/>
<path d="M89.3121 101.954C89.5829 99.2561 89.8183 96.5346 90.042 93.8364C90.0052 93.4463 90.0052 93.0535 90.042 92.6633C90.042 92.1706 90.195 91.6779 90.2892 91.1852C90.2892 91.0327 90.2892 90.8802 90.3716 90.7394C90.454 90.5986 90.3716 90.7394 90.3716 90.7394C90.3606 90.6145 90.3606 90.489 90.3716 90.3641V90.2585C90.4658 89.3552 90.3716 88.4402 90.454 87.5369C90.4679 87.0304 90.5112 86.5251 90.5835 86.0236C90.8817 82.1133 91.1329 78.2225 91.3369 74.3512C91.3608 74.0596 91.3082 73.7668 91.1844 73.5015C91.0606 73.2363 90.8697 73.0076 90.6306 72.8379C90.5243 72.5472 90.3395 72.2913 90.0964 72.0988C89.8533 71.9063 89.5615 71.7845 89.2533 71.7469C72.9298 69.2756 56.5554 67.1366 40.1299 65.3301C39.6616 65.2818 39.1932 65.4209 38.8279 65.7168C38.4625 66.0127 38.23 66.4412 38.1817 66.9078C38.1333 67.3745 38.2729 67.8413 38.5699 68.2054C38.8668 68.5695 39.2967 68.8011 39.765 68.8494C55.7981 70.609 71.7959 72.6932 87.7583 75.102C87.3581 82.2188 86.8401 89.3318 86.2045 96.4408C86.0279 98.2591 85.8631 100.077 85.6747 101.896C85.5806 102.752 85.4982 103.62 85.404 104.476C85.3213 104.887 85.2623 105.302 85.2274 105.72H84.7801C81.0837 105.544 77.3992 105.333 73.7029 105.087C66.1376 104.594 58.5723 103.96 51.007 103.186C47.24 102.799 43.4613 102.377 39.6944 101.931L37.081 101.602L35.8097 101.45C35.8097 100.769 35.8097 99.9365 35.8097 99.7606L36.0922 96.5698C36.8299 88.0687 37.5793 79.5637 38.3406 71.0548C38.389 70.5881 38.2494 70.1214 37.9525 69.7573C37.6555 69.3932 37.2256 69.1615 36.7573 69.1133C36.289 69.0651 35.8206 69.2042 35.4553 69.5001C35.0899 69.796 34.8575 70.2245 34.8091 70.6911L32.6195 95.6313C32.443 97.5669 32.2546 99.5025 32.1016 101.497C31.9486 103.491 32.4312 104.523 34.3382 104.875C38.4348 105.614 42.6726 105.908 46.8045 106.353C55.0368 107.245 63.277 107.972 71.5251 108.535C75.7001 108.817 79.8791 109.059 84.062 109.263C85.71 109.345 87.5935 109.579 88.3704 107.82C88.6446 107.068 88.7842 106.274 88.7825 105.474C89.0768 104.254 89.1944 103.104 89.3121 101.954Z" fill="black"/>
<path d="M62.0959 78.9616C56.5775 78.6033 51.0929 77.8426 45.6861 76.6857C45.235 76.5592 44.7524 76.6104 44.3382 76.8288C43.924 77.0472 43.61 77.416 43.4613 77.8588C43.3249 78.3084 43.3721 78.7935 43.5925 79.2086C43.8129 79.6237 44.1888 79.9354 44.6385 80.076C50.3509 81.3074 56.1464 82.1191 61.9782 82.5044C64.1795 82.6217 64.3678 79.1023 62.0959 78.9616Z" fill="black"/>
<path d="M45.2387 62.0219C45.2459 61.5603 45.0755 61.1135 44.7625 60.7732C44.4494 60.4328 44.0175 60.2248 43.5554 60.1919C41.5502 59.8365 39.526 59.5976 37.493 59.4763C35.633 59.359 33.5729 59.359 32.2192 60.8371C30.8654 62.3152 30.3828 64.5089 29.8648 66.3389C29.2897 68.4441 28.8726 70.589 28.617 72.7559C28.601 73.2199 28.7684 73.6716 29.0832 74.0139C29.398 74.3561 29.8351 74.5616 30.3004 74.5859C30.7609 74.6028 31.2104 74.4431 31.5564 74.1398C31.9023 73.8365 32.1185 73.4126 32.1603 72.9553C32.362 71.2369 32.6885 69.5353 33.1374 67.864C33.3611 67.0193 33.6083 66.1748 33.8908 65.3536C34.0567 64.638 34.3432 63.9557 34.7383 63.3358C34.8134 63.2431 34.9105 63.1705 35.0208 63.1247C35.2421 63.0535 35.4715 63.0101 35.7036 62.9956C36.4897 62.9666 37.2768 62.998 38.058 63.0895C39.8616 63.2191 41.6573 63.4422 43.4377 63.7581C43.6705 63.7628 43.902 63.7215 44.1188 63.6366C44.3356 63.5517 44.5334 63.4249 44.7008 63.2636C44.8682 63.1022 45.0019 62.9094 45.0942 62.6963C45.1865 62.4832 45.2356 62.254 45.2387 62.0219Z" fill="#FBB03B"/>
<path d="M95.5157 105.732C95.6029 105.508 95.6434 105.269 95.6347 105.03C95.6259 104.79 95.5682 104.555 95.4649 104.338C95.3616 104.122 95.2149 103.928 95.0339 103.77C94.853 103.612 94.6415 103.493 94.4125 103.419C94.1835 103.346 93.9419 103.319 93.7024 103.342C93.4628 103.365 93.2304 103.436 93.0196 103.552C92.8087 103.667 92.6237 103.824 92.476 104.014C92.3283 104.203 92.2211 104.42 92.1608 104.653C91.952 105.717 91.6283 106.755 91.1955 107.75C91.177 107.816 91.1493 107.879 91.1131 107.937C91.0534 108.066 90.9866 108.191 90.913 108.313C90.7599 108.559 90.6069 108.805 90.4421 109.04L90.242 109.321C90.1726 109.394 90.1095 109.473 90.0536 109.556L89.8535 109.756L89.5828 110.014L89.0648 110.436L88.7469 110.624C88.5568 110.733 88.3603 110.831 88.1583 110.917L87.9935 110.987L87.7464 111.058C87.5337 111.121 87.3174 111.172 87.0989 111.21H86.887H86.6869C86.4514 111.21 86.2278 111.21 85.9924 111.21L85.5803 111.093C85.1339 110.95 84.6487 110.989 84.2314 111.203C83.8142 111.416 83.4991 111.786 83.3555 112.231C83.2118 112.676 83.2515 113.159 83.4656 113.575C83.6797 113.991 84.0509 114.305 84.4974 114.448C85.7517 114.795 87.0727 114.826 88.3423 114.54C89.6118 114.253 90.7903 113.657 91.7723 112.806C93.7807 110.933 95.0991 108.441 95.5157 105.732Z" fill="#FBB03B"/>
<path d="M394.317 79.7123C394.317 79.5598 394.317 79.3956 394.317 79.2548C393.953 76.4863 389.997 75.7355 385.277 75.0082C384.523 74.9026 383.817 74.797 383.17 74.6797C378.12 73.7999 333.105 67.383 328.007 66.9607C323.169 66.5736 319.273 66.5032 316.942 69.4829C315.816 71.1766 315.088 73.1012 314.811 75.1138C314.258 77.6125 313.775 80.1933 313.34 82.5981C312.363 87.9709 312.304 88.2056 311.621 93.8717C311.468 95.1738 312.798 95.5258 313.304 95.6196L315.27 95.9364L315.718 94.6224C315.758 94.5005 315.786 94.3748 315.8 94.2471C316.436 89.0033 316.424 89.2027 317.295 84.2405C317.719 81.8083 318.174 79.3878 318.661 76.979C318.661 76.7796 318.743 76.5215 318.79 76.2399C319.049 74.492 319.414 72.0871 321.05 70.8788C322.002 70.2641 323.137 69.9949 324.264 70.1164C324.876 70.1164 325.441 70.2219 326.03 70.2923L326.713 70.3627C329.467 70.5738 332.245 70.8672 334.953 71.2074C337.66 71.5476 380.344 77.7298 383.076 78.246C384.253 78.4571 385.524 78.68 386.748 78.9264L387.372 79.0202L388.161 79.1375L390.174 79.4777L389.974 82.8094C389.88 84.0646 389.762 85.3198 389.632 86.5867C389.338 89.2027 388.95 91.854 388.455 94.47C387.443 99.9366 386.948 99.3266 385.359 103.655L385.277 103.878C384.782 105.239 384.1 107.304 382.169 107.843C380.902 108.079 379.594 107.978 378.379 107.55L377.743 107.398L316.094 97.2854L315.623 97.215L315 98.7166C314.959 98.8164 314.924 98.9181 314.894 99.0216C314.868 99.2641 314.905 99.5092 315.002 99.7332C315.099 99.9572 315.252 100.152 315.447 100.3C315.903 100.652 316.435 100.894 317.001 101.004L332.304 104.019C333.105 104.171 373.811 110.119 374.682 110.319C378.614 111.21 382.687 112.125 385.618 110.26C388.373 108.5 389.421 105.04 390.433 101.696L390.598 101.133C391.999 96.5229 392.305 97.2502 393.07 92.722C393.423 90.587 393.717 88.405 393.941 86.2348C393.941 85.7421 394.047 85.2259 394.106 84.7098C394.342 83.055 394.413 81.381 394.317 79.7123Z" fill="black"/>
<path d="M378.284 89.0034C375.659 91.1773 372.833 93.0981 369.844 94.7398L364.947 85.0148C364.71 84.6295 364.332 84.3507 363.893 84.237C363.454 84.1232 362.988 84.1834 362.593 84.4048C359.391 86.751 356.091 88.9369 352.693 90.9624C352.104 88.6162 351.586 86.1644 351.174 83.7244C350.939 82.3049 349.114 82.2111 348.22 82.9736L342.71 87.666C341.604 85.654 340.629 83.5733 339.791 81.4368C339.7 81.1458 339.536 80.8828 339.314 80.6729C339.093 80.463 338.821 80.3133 338.524 80.238C338.228 80.1627 337.917 80.1644 337.622 80.2428C337.326 80.3213 337.056 80.4739 336.836 80.6861C333.816 83.2398 330.592 85.5428 327.195 87.5722C326.832 87.8277 326.579 88.2103 326.486 88.6437C326.394 89.0771 326.469 89.5292 326.696 89.9099C326.924 90.2906 327.287 90.5717 327.713 90.6973C328.14 90.8228 328.598 90.7835 328.996 90.5871C331.918 88.8203 334.718 86.8607 337.378 84.7216C338.353 86.9639 339.469 89.1424 340.721 91.244C340.864 91.4699 341.056 91.661 341.283 91.8035C341.509 91.946 341.765 92.0363 342.032 92.0678C342.298 92.0993 342.568 92.0711 342.821 91.9854C343.075 91.8997 343.307 91.7586 343.499 91.5724L348.325 87.4314C348.761 89.6603 349.255 91.8775 349.844 94.0829C349.92 94.341 350.054 94.5785 350.235 94.7774C350.417 94.9763 350.642 95.1314 350.892 95.2309C351.143 95.3304 351.413 95.3716 351.682 95.3516C351.952 95.3316 352.212 95.2507 352.446 95.1152C355.977 93.0506 359.509 90.81 362.84 88.4403C364.41 91.6077 366.007 94.7829 367.631 97.9659C367.877 98.3607 368.268 98.6449 368.72 98.7587C369.172 98.8725 369.651 98.807 370.056 98.5759C373.914 96.58 377.538 94.1643 380.863 91.373C382.546 90.0122 380.015 87.5604 378.284 89.0034Z" fill="#FBB03B"/>
<path d="M175.293 72.1926C175.685 67.2656 176.077 62.3425 176.47 57.4233C176.481 56.333 176.587 55.2457 176.788 54.1738C177.058 53.2001 177.694 53.0007 178.636 52.7895C180.798 52.6135 182.971 52.6135 185.134 52.7895C187.276 52.7895 189.419 52.8482 191.561 52.8834C191.66 52.8356 191.769 52.8115 191.879 52.813H193.645C193.378 52.2694 193.26 51.6649 193.303 51.0612C193.347 50.4574 193.55 49.8759 193.892 49.3758L189.183 49.282C186.464 49.282 183.757 49.282 181.037 49.2116C179.125 49.0122 177.196 49.3665 175.481 50.2322C173.444 51.5343 173.209 53.7515 173.032 56.0038C172.832 58.6081 172.621 61.2124 172.42 63.8167L171.785 71.9228C171.789 72.3633 171.958 72.7862 172.26 73.108C172.562 73.4299 172.974 73.6273 173.414 73.6612C173.855 73.695 174.293 73.563 174.64 73.2911C174.988 73.0192 175.221 72.6272 175.293 72.1926Z" fill="black"/>
<path d="M249.254 54.9482C249.016 54.0011 248.501 53.146 247.773 52.4921C247.046 51.8381 246.139 51.4149 245.17 51.2764C242.556 50.9244 239.837 50.9479 237.2 50.8188C236.988 51.992 236.694 53.1651 236.541 54.3382C239.001 54.4672 241.462 54.5845 243.922 54.737C244.958 54.737 245.44 54.8426 245.852 55.8514C246.238 56.8737 246.483 57.943 246.582 59.0306C246.77 61.2908 246.77 63.5626 246.582 65.8228L245.911 80.4162C245.099 98.1887 245.911 116.477 244.016 134.379C243.71 137.147 243.663 137.898 240.696 138.051C239.204 138.096 237.71 138.053 236.223 137.922C233.221 137.734 230.196 137.746 227.182 137.628C224.169 137.511 221.085 137.241 218.036 136.983C215.422 136.76 212.786 136.69 210.16 136.537C206.714 136.406 203.285 135.99 199.907 135.294C193.927 134.883 187.959 134.449 181.991 134.027C181.382 134.044 180.784 133.867 180.284 133.523C180.037 133.231 179.854 132.892 179.745 132.527C179.635 132.161 179.602 131.778 179.648 131.399C179.364 112.446 180.426 93.4957 182.827 74.6915C183.003 73.2955 182.744 71.3247 181.343 71.266C179.942 71.2074 179.53 72.8028 179.366 74.0463C176.848 93.3028 175.844 112.726 176.364 132.138C176.364 133.804 176.576 135.658 177.894 136.702C178.834 137.268 179.916 137.557 181.014 137.535C201.057 138.88 221.108 140.178 241.167 141.429C242.404 141.619 243.67 141.469 244.828 140.995C247.854 139.423 247.006 135.13 247.077 132.326C247.206 127.493 247.512 122.648 247.736 117.815L249.219 85.4136L249.961 69.3539C250.173 64.5911 250.832 59.4881 249.254 54.9482Z" fill="black"/>
<path d="M252.092 92.5461C251.589 101.61 251.538 110.682 251.939 119.762C252.045 122.026 255.553 121.604 255.47 119.351C255.076 110.599 255.123 101.833 255.611 93.0857C255.706 90.8333 252.221 90.282 252.092 92.5461Z" fill="#FBB03B"/>
<path d="M180.084 140.021C179.572 140.078 179.057 140.106 178.542 140.104H178.165L177.4 140.033C176.905 140.033 176.423 139.892 175.94 139.799L175.528 139.693H175.434L175.234 139.634H175.104V139.529C175.034 139.071 174.951 138.602 174.869 138.133C174.681 137.042 174.492 135.939 174.316 134.836C174.254 134.375 174.014 133.957 173.646 133.669C173.279 133.382 172.814 133.25 172.35 133.3C171.888 133.358 171.468 133.595 171.18 133.959C170.891 134.323 170.758 134.786 170.808 135.247L171.42 138.919C171.643 140.244 171.844 141.652 173.044 142.438C174.166 143.072 175.418 143.441 176.705 143.517C177.98 143.664 179.268 143.664 180.543 143.517C181.005 143.459 181.427 143.222 181.717 142.858C182.007 142.495 182.143 142.032 182.097 141.57C182.032 141.1 181.785 140.675 181.408 140.385C181.032 140.095 180.556 139.965 180.084 140.021Z" fill="#FBB03B"/>
<path d="M227.63 74.7853C225.582 70.0929 219.767 67.1366 214.999 66.116C209.113 64.8608 205.393 68.7086 202.862 73.5653C200.991 77.155 205.299 80.6743 207.877 78.7738C210.067 79.114 212.374 78.9146 214.587 79.2665C217.779 79.753 221 80.0234 224.228 80.076C224.861 80.089 225.486 79.94 226.045 79.6432C226.603 79.3463 227.075 78.9116 227.417 78.3806C227.758 77.8497 227.957 77.2402 227.994 76.6107C228.032 75.9812 227.906 75.3526 227.63 74.7853Z" fill="#FBB03B"/>
<path d="M217.471 92.288C217.141 92.2293 216.835 92.1589 216.529 92.0768C217.289 91.8324 218.033 91.5385 218.754 91.197C220.92 90.106 222.721 88.0766 221.356 85.8125C220.178 83.8299 217.73 83.6422 215.47 83.4663C212.597 83.2316 209.725 83.1026 206.853 83.0439C202.238 82.95 201.862 89.1792 206.5 89.2731H207.677C207.366 89.5245 207.082 89.8076 206.829 90.1177C206.477 90.5589 206.27 91.0984 206.238 91.6617C206.207 92.2249 206.352 92.784 206.653 93.2616C207.35 94.1383 208.175 94.9055 209.101 95.5375C209.057 96.0865 209.142 96.6382 209.351 97.1483C209.559 97.6584 209.885 98.1126 210.302 98.4744C210.719 98.8361 211.215 99.0953 211.751 99.2311C212.286 99.3669 212.847 99.3755 213.386 99.2562C214.977 99.0287 216.534 98.6112 218.024 98.0127C218.617 97.7623 219.114 97.3301 219.443 96.779C219.772 96.2279 219.916 95.5865 219.854 94.9481C219.793 94.3097 219.528 93.7076 219.1 93.2292C218.671 92.7508 218.1 92.4211 217.471 92.288Z" fill="#FBB03B"/>
<path d="M235.588 102.365C235.493 98.9512 235.411 95.5257 235.317 92.1003C234.928 76.8499 237.989 61.9046 237.601 46.7012C237.7 46.5096 237.757 46.2989 237.768 46.0833C237.779 45.8677 237.743 45.6523 237.662 45.4519C237.582 45.2515 237.459 45.0707 237.302 44.9219C237.145 44.7731 236.958 44.6598 236.753 44.5896C236.492 44.4445 236.202 44.3559 235.904 44.3296C235.606 44.3034 235.306 44.34 235.023 44.4371L213.363 43.6159L201.956 43.1819L196.258 42.9707C194.799 42.9121 192.727 42.478 191.844 43.7802C191.067 44.8712 191.373 46.7364 191.314 47.9799C191.208 49.7865 191.114 51.593 191.02 53.3879C190.832 56.8212 190.647 60.2583 190.467 63.6994C190.09 70.5738 189.717 77.4482 189.348 84.3226C189.168 87.7559 188.983 91.193 188.795 94.6341C188.713 96.2648 188.618 97.8954 188.536 99.526C188.401 100.202 188.425 100.899 188.604 101.565C188.784 102.23 189.115 102.845 189.572 103.362C190.581 104.131 191.837 104.506 193.104 104.418C195.199 104.418 197.306 104.418 199.401 104.512C203.215 104.606 207.018 104.746 210.832 104.946C218.448 105.356 222.603 105.779 230.184 106.623C231.456 106.764 233.104 107.21 234.316 106.623C236.047 105.802 235.623 103.831 235.588 102.365ZM194.693 49.4932C194.693 48.5547 194.787 47.6045 194.846 46.666C194.846 46.5018 194.846 46.3141 194.846 46.1146C195.611 46.1968 196.447 46.1146 197.2 46.1146L200.049 46.2203L212.032 46.6777L234.152 47.5106C234.153 53.8382 233.701 60.1578 232.798 66.421C232.706 66.3019 232.594 66.1988 232.468 66.116C232.298 66 232.106 65.9203 231.903 65.882C231.7 65.8436 231.492 65.8474 231.291 65.8931L227.995 66.9021C227.593 66.9945 227.245 67.2409 227.024 67.5878C226.804 67.9348 226.73 68.3544 226.818 68.7555C226.899 69.148 227.132 69.4932 227.465 69.7175C227.634 69.8355 227.827 69.9164 228.03 69.9548C228.233 69.9932 228.442 69.9883 228.642 69.9404L231.938 68.9432C232.161 68.8785 232.369 68.7709 232.551 68.6265C232.197 71.7235 231.88 74.8087 231.727 77.9057L227.018 77.718C227.012 77.687 227.012 77.6552 227.018 77.6242C226.758 74.1839 225.32 70.937 222.945 68.4271C220.333 66.1008 216.936 64.8437 213.433 64.9078C210.107 64.697 206.81 65.6468 204.11 67.5941C201.226 69.8113 199.884 73.3541 199.331 76.8499L193.151 76.7209L194.693 49.4932ZM223.981 77.6476C216.824 77.3661 209.666 77.1354 202.509 76.9555C202.797 74.2179 204.134 71.6966 206.241 69.9169C208.434 68.4457 211.073 67.782 213.704 68.0399C215.094 68.0133 216.476 68.2677 217.764 68.7879C219.053 69.3081 220.223 70.0833 221.203 71.0666C222.763 72.9374 223.73 75.228 223.981 77.6476ZM230.326 103.456C228.43 103.245 229.984 103.245 228.089 103.069C224.581 102.725 221.05 102.431 217.495 102.189C210.431 101.704 203.368 101.407 196.305 101.297H193.739C193.315 101.297 192.468 101.438 192.115 101.227C191.762 101.016 191.879 100.148 191.903 99.702L192.044 97.1329L192.55 87.5955L192.974 79.8062C205.837 80.0252 218.699 80.4162 231.562 80.9793C231.562 81.8708 231.562 82.7506 231.562 83.6422L232.056 102.635C232.056 102.834 231.997 103.221 232.056 103.538C231.538 103.456 230.75 103.55 230.326 103.456Z" fill="#1E1E1E"/>
<path d="M224.77 81.8709C216.817 82.1859 208.852 82.0136 200.92 81.3547C198.931 81.1787 198.766 84.2992 200.743 84.4635C208.675 85.1223 216.64 85.2947 224.593 84.9796C226.559 84.8975 226.747 81.7888 224.77 81.8709Z" fill="#1E1E1E"/>
<path d="M219.154 86.7156L207.689 86.2933C207.274 86.2715 206.867 86.415 206.558 86.6922C206.248 86.9694 206.063 87.3576 206.041 87.7714C206.019 88.1852 206.163 88.5907 206.441 88.8987C206.719 89.2067 207.109 89.392 207.524 89.4138L218.99 89.8243C219.398 89.8374 219.796 89.6918 220.099 89.4182C220.402 89.1447 220.587 88.7646 220.614 88.358C220.637 87.9479 220.496 87.5454 220.223 87.2379C219.95 86.9305 219.566 86.7428 219.154 86.7156Z" fill="#1E1E1E"/>
<path d="M216.164 91.5489C214.493 91.5489 212.809 91.3964 211.138 91.2322C210.741 91.2385 210.362 91.3946 210.076 91.6689C209.791 91.9432 209.62 92.3152 209.599 92.7099C209.578 93.1045 209.709 93.4924 209.963 93.7951C210.218 94.0979 210.579 94.2929 210.973 94.3409C212.644 94.5168 214.316 94.6224 215.988 94.6694C216.403 94.6927 216.81 94.5507 217.12 94.2746C217.431 93.9985 217.618 93.6109 217.641 93.1971C217.665 92.7833 217.522 92.3772 217.245 92.0681C216.968 91.759 216.579 91.5722 216.164 91.5489Z" fill="#1E1E1E"/>
<path d="M200.731 66.1395C200.639 65.7455 200.404 65.399 200.072 65.1658C199.057 64.5148 198.09 63.7936 197.176 63.0073C197.061 62.8664 196.911 62.7574 196.741 62.6905C196.563 62.5851 196.36 62.5284 196.152 62.5263C195.846 62.5139 195.542 62.5917 195.28 62.7498C195.017 62.908 194.807 63.1395 194.675 63.4157C194.543 63.6919 194.496 64.0006 194.539 64.3034C194.582 64.6062 194.713 64.8898 194.916 65.1189C195.992 66.094 197.146 66.9807 198.365 67.7701C198.537 67.8836 198.729 67.9619 198.931 68.0002C199.133 68.0384 199.341 68.036 199.543 67.993C199.938 67.9002 200.283 67.6611 200.508 67.3243C200.622 67.1515 200.701 66.9577 200.739 66.7543C200.777 66.5509 200.775 66.3419 200.731 66.1395Z" fill="#1E1E1E"/>
<path d="M210.219 60.7549C210.09 60.4147 209.96 60.0628 209.843 59.7226C209.725 59.3824 209.772 59.5232 209.843 59.6522C209.843 59.5818 209.784 59.5114 209.76 59.4293L209.584 58.9132C209.36 58.2445 209.137 57.5758 208.925 56.8954C208.489 55.5229 208.089 54.1269 207.747 52.7427C207.66 52.3444 207.417 51.9971 207.073 51.7771C206.729 51.5571 206.311 51.4825 205.911 51.5696C205.511 51.6567 205.163 51.8984 204.942 52.2416C204.721 52.5848 204.646 53.0014 204.734 53.3996C205.523 56.3676 206.464 59.2651 207.524 62.1744C207.614 62.3573 207.739 62.5204 207.894 62.654C208.048 62.7877 208.227 62.8893 208.422 62.9527C208.616 63.0161 208.821 63.0401 209.024 63.0233C209.228 63.0065 209.426 62.9492 209.607 62.8548C209.952 62.6426 210.206 62.3102 210.319 61.9223C210.432 61.5343 210.397 61.1183 210.219 60.7549Z" fill="#1E1E1E"/>
<path d="M224.463 53.7162C224.121 53.4945 223.705 53.4169 223.306 53.5004C222.906 53.584 222.556 53.8219 222.333 54.162C220.928 56.5864 219.535 59.0148 218.154 61.447C217.937 61.7945 217.861 62.2112 217.942 62.6123C218.023 63.0133 218.255 63.3686 218.589 63.6056C218.931 63.8273 219.348 63.9049 219.747 63.8214C220.146 63.7378 220.496 63.4999 220.72 63.1598C222.117 60.7354 223.51 58.307 224.899 55.8748C225.116 55.5273 225.191 55.1106 225.11 54.7096C225.029 54.3085 224.798 53.9532 224.463 53.7162Z" fill="#1E1E1E"/>
<path d="M217.424 121.334C208.666 120.771 199.9 120.564 191.126 120.712C188.854 120.712 189.29 124.231 191.538 124.231C199.99 124.075 208.438 124.278 216.882 124.841C219.143 124.959 219.696 121.486 217.424 121.334Z" fill="black"/>
<path d="M230.243 113.627C217.399 111.155 204.268 110.515 191.243 111.726C188.972 111.937 189.384 115.433 191.644 115.246C204.355 114.073 217.169 114.705 229.702 117.123C231.938 117.533 232.515 114.014 230.243 113.627Z" fill="black"/>
<path d="M232.28 121.369C231.995 121 231.576 120.758 231.114 120.694C230.651 120.63 230.182 120.751 229.808 121.029C229.672 121.141 229.553 121.271 229.454 121.416C229.145 121.616 228.887 121.885 228.701 122.202C227.783 123.774 226.865 125.346 225.97 126.895C225.534 127.669 225.099 128.455 224.675 129.241C224.122 130.238 223.392 131.305 223.945 132.467C224.057 132.751 224.242 133.001 224.482 133.19C224.722 133.38 225.008 133.503 225.311 133.546C228.63 133.675 231.953 133.522 235.246 133.089C235.708 133.03 236.128 132.793 236.416 132.429C236.705 132.065 236.838 131.602 236.788 131.141C235.979 127.608 234.444 124.281 232.28 121.369ZM228.218 130.121V130.038C228.619 129.311 229.031 128.584 229.396 127.856C229.76 127.129 230.29 126.308 230.738 125.51L230.926 125.839L231.126 126.202C231.326 126.578 231.514 126.953 231.691 127.376C232.033 128.084 232.331 128.813 232.586 129.558L232.692 129.886C231.832 129.968 230.973 130.038 230.114 130.085C229.537 130.097 228.866 130.109 228.218 130.121Z" fill="black"/>
<path d="M500.004 96.124C495.468 95.9896 490.945 96.6568 486.643 98.0948C485.407 98.5054 484.913 100.617 485.466 101.919C485.571 102.245 485.742 102.545 485.968 102.802C486.194 103.059 486.47 103.267 486.78 103.414C487.09 103.56 487.427 103.641 487.77 103.652C488.113 103.664 488.455 103.605 488.774 103.479H488.938H489.044L489.833 103.245L491.199 102.893C492.164 102.67 493.129 102.482 494.094 102.341C495.06 102.201 495.966 102.107 496.908 102.048L498.321 101.989H499.498C499.84 102.015 500.184 101.971 500.508 101.858C500.832 101.745 501.129 101.567 501.381 101.335C501.633 101.103 501.834 100.821 501.972 100.508C502.11 100.194 502.181 99.8563 502.182 99.5143C502.311 98.001 501.393 96.1592 500.004 96.124Z" fill="#F7C300"/>
<path d="M507.385 71.3363C499.38 72.5094 491.246 73.2837 483.3 74.8556C479.592 75.5595 480.463 81.3546 484.195 80.6508C492.141 79.1492 500.263 78.3045 508.28 77.1314C512.035 76.6036 511.14 70.8084 507.385 71.3363Z" fill="#F7C300"/>
<path d="M536.908 60.4499C536.767 60.2974 536.579 60.1565 536.426 60.0158L536.226 59.8516L536.073 59.6638C535.832 59.3845 535.541 59.1536 535.213 58.9835C534.473 58.4329 533.552 58.1803 532.634 58.2759C531.716 58.3716 530.867 58.8085 530.257 59.4997C528.947 60.8996 527.703 62.3542 526.526 63.8636C524.289 66.7142 522.3 69.7291 520.357 72.7909C519.404 74.3042 518.486 75.8409 517.485 77.319C516.484 78.7971 515.401 79.8295 514.424 81.1316C513.264 82.5547 512.706 84.3729 512.871 86.1994C512.929 86.7395 513.102 87.2609 513.379 87.7289C513.656 88.197 514.029 88.601 514.475 88.914C514.92 89.227 515.427 89.4418 515.963 89.5442C516.498 89.6465 517.049 89.634 517.579 89.5076C519.498 88.9679 520.699 86.8447 521.876 85.3666L525.713 80.5451C528.35 77.2252 531.27 73.9992 533.589 70.4564C534.177 69.5648 534.636 68.6029 535.237 67.7231C535.837 66.8432 536.485 66.2919 537.003 65.4942C537.356 65.0306 537.61 64.5005 537.752 63.936C537.894 63.3714 537.919 62.7841 537.827 62.2095C537.681 61.5527 537.364 60.9458 536.908 60.4499Z" fill="#F7C300"/>
<path d="M502.005 60.051L482.476 63.0073L477.414 63.7815C476.543 63.9105 475.13 63.7815 474.683 64.7787C474.583 65.2703 474.583 65.7769 474.683 66.2685C474.871 69.471 475.331 72.6853 475.719 75.8644C477.171 87.6815 479.18 99.4125 481.746 111.058C482.052 112.43 482.288 113.85 482.7 115.175C482.801 115.562 482.973 115.928 483.206 116.254C483.009 115.949 482.858 115.617 482.758 115.269C482.346 113.932 482.123 112.512 481.817 111.151C479.235 99.5377 477.226 87.8066 475.79 75.9583C475.401 72.7792 474.942 69.5532 474.742 66.3506C474.637 65.8634 474.637 65.3596 474.742 64.8725C475.189 63.8988 476.59 64.0044 477.461 63.8754L482.535 63.1011L502.088 60.051C502.341 60.0127 502.58 59.9096 502.782 59.7517C502.983 59.5939 503.14 59.3867 503.237 59.1504C503.334 58.9142 503.369 58.6568 503.336 58.4034C503.304 58.1501 503.206 57.9094 503.053 57.7048C503.204 57.9159 503.298 58.1627 503.324 58.4208C503.35 58.6789 503.308 58.9394 503.202 59.1764C503.096 59.4135 502.93 59.6188 502.72 59.7722C502.51 59.9256 502.264 60.0217 502.005 60.051Z" fill="black"/>
<path d="M517.273 70.8904C517.144 70.257 516.85 69.5765 516.72 68.9665C516.496 67.9342 516.261 66.8902 516.049 65.8578C515.603 63.8158 515.331 61.7398 515.237 59.6521C515.296 59.1491 515.246 58.6393 515.09 58.1575C514.933 57.6756 514.674 57.2331 514.33 56.8602C513.587 56.1668 512.605 55.7846 511.587 55.7926C510.34 55.7926 509.104 56.1563 507.856 56.0741C507.658 56.0583 507.462 56.0309 507.267 55.992C505.372 55.6049 505.042 58.5964 506.926 58.9835C507.527 59.1007 508.14 59.1362 508.751 59.089C509.597 58.8827 510.472 58.8153 511.34 58.8896C512.4 59.1477 512.2 60.2504 512.2 61.1419C512.245 62.4398 512.427 63.7294 512.741 64.9898L514.283 72.1457C514.542 73.3774 515.978 74.3746 516.908 72.9786C517.092 72.6479 517.212 72.2858 517.261 71.911C517.285 71.7162 517.285 71.5193 517.261 71.3245C517.276 71.1803 517.28 71.0352 517.273 70.8904Z" fill="black"/>
<path d="M472.07 69.7057C471.834 67.4533 471.022 64.286 472.694 62.3855C473.683 61.4913 474.961 60.9795 476.296 60.9427L481.005 60.2387L501.629 57.1066C501.905 57.0532 502.192 57.088 502.447 57.2059C502.703 57.3238 502.915 57.5189 503.053 57.7635C502.923 57.493 502.708 57.2728 502.439 57.1371C502.171 57.0013 501.866 56.9576 501.57 57.0127L480.899 60.145L476.19 60.8605C474.856 60.8931 473.578 61.4008 472.588 62.2917C470.916 64.1921 471.729 67.3713 471.964 69.6119C473.401 83.5432 475.637 97.3811 478.662 111.058C479.121 113.169 479.357 116.043 480.652 117.967C479.474 116.055 479.18 113.275 478.721 111.151C475.718 97.4729 473.497 83.6354 472.07 69.7057Z" fill="black"/>
<path d="M522.665 107.538C522.3 102.963 520.723 98.5172 520.428 93.9186C520.42 93.2784 520.341 92.6411 520.193 92.0182C520.038 91.3915 519.64 90.8516 519.086 90.5166C518.805 90.3629 518.48 90.3083 518.164 90.3615C517.848 90.4147 517.559 90.5727 517.344 90.8098C517.043 91.3543 516.971 91.9957 517.144 92.593C518.007 97.8798 518.863 103.174 519.71 108.477C519.912 109.309 519.863 110.182 519.569 110.987C519.296 111.393 518.929 111.727 518.498 111.96C518.068 112.193 517.587 112.318 517.097 112.325C509.339 113.685 501.594 115.081 493.765 115.985C491.105 116.301 488.433 116.595 485.761 116.806C484.501 116.9 483.724 116.806 483.194 116.161C482.961 115.834 482.79 115.469 482.688 115.081C482.276 113.756 482.041 112.336 481.735 110.964C479.168 99.3501 477.159 87.6191 475.708 75.7707C475.319 72.5916 474.86 69.3773 474.672 66.1747C474.571 65.6831 474.571 65.1765 474.672 64.6849C475.119 63.7112 476.532 63.8168 477.403 63.6877L482.464 62.9135L501.994 59.9573C502.233 59.9168 502.459 59.819 502.652 59.6722C502.844 59.5253 502.999 59.334 503.1 59.1145C503.202 58.8951 503.249 58.6543 503.237 58.4128C503.225 58.1713 503.154 57.9364 503.03 57.7284C502.892 57.4838 502.68 57.2887 502.424 57.1708C502.168 57.0529 501.882 57.0181 501.605 57.0715L480.981 60.2036L476.273 60.9075C474.927 60.9544 473.644 61.4834 472.659 62.3973C470.987 64.2978 471.799 67.4651 472.035 69.7175C473.474 83.6478 475.706 97.4854 478.721 111.163C479.18 113.24 479.416 116.067 480.664 117.979C480.837 118.263 481.042 118.527 481.276 118.765C483.253 120.794 486.691 119.856 489.163 119.61C495.967 118.945 502.732 118.03 509.457 116.864C511.811 116.454 514.166 116.125 516.52 115.691C518.498 115.269 520.628 114.987 521.782 113.099C522.451 111.834 522.749 110.407 522.641 108.981C522.696 108.481 522.704 108 522.665 107.538ZM509.434 116.759C506.079 117.345 502.724 117.862 499.345 118.319C502.724 117.862 506.079 117.345 509.434 116.759C511.505 116.407 513.648 116.09 515.755 115.68C513.648 116.09 511.505 116.36 509.434 116.759Z" fill="black"/>
<path d="M498.638 66.9137C492.572 68.1832 486.43 69.0687 480.251 69.5649C480.019 69.5996 479.796 69.6795 479.595 69.7999C479.395 69.9204 479.219 70.0791 479.08 70.267C478.799 70.6465 478.68 71.1219 478.75 71.5886C478.82 72.0553 479.074 72.475 479.455 72.7555C479.835 73.036 480.313 73.1542 480.781 73.0842C486.961 72.5947 493.103 71.7091 499.168 70.433C501.381 69.9286 500.91 66.4445 498.638 66.9137Z" fill="black"/>
<path d="M510.893 71.9347L480.745 75.9467C478.497 76.2517 479.027 79.7241 481.287 79.466L511.434 75.454C513.683 75.1138 513.153 71.6414 510.893 71.9347Z" fill="black"/>
<path d="M496.202 80.1581C491.532 81.1457 486.779 81.6917 482.005 81.7887C481.776 81.8231 481.555 81.9023 481.356 82.0218C481.157 82.1413 480.984 82.2986 480.846 82.485C480.708 82.6713 480.609 82.883 480.553 83.1077C480.498 83.3324 480.487 83.5659 480.522 83.7947C480.606 84.2493 480.861 84.6548 481.236 84.9276C481.61 85.2003 482.075 85.3197 482.535 85.2611C487.309 85.1764 492.064 84.6302 496.732 83.6305C497.19 83.5498 497.6 83.2966 497.876 82.9231C498.152 82.5497 498.274 82.0847 498.215 81.6245C498.137 81.1671 497.883 80.7581 497.507 80.4843C497.131 80.2105 496.663 80.0935 496.202 80.1581Z" fill="black"/>
<path d="M498.733 97.344C494.079 98.1261 489.422 98.8261 484.76 99.4439C482.512 99.7489 483.041 103.233 485.29 102.963C489.998 102.322 494.656 101.622 499.263 100.863C499.731 100.793 500.152 100.541 500.434 100.161C500.715 99.7819 500.834 99.3065 500.764 98.8398C500.693 98.3731 500.44 97.9533 500.059 97.6728C499.678 97.3923 499.201 97.274 498.733 97.344Z" fill="black"/>
<path d="M514.389 100.676C504.736 102.24 495.056 103.616 485.348 104.805C483.1 105.075 483.63 108.559 485.89 108.324C495.59 107.151 505.27 105.775 514.931 104.195C515.399 104.123 515.82 103.869 516.1 103.489C516.38 103.108 516.498 102.632 516.426 102.166C516.354 101.699 516.099 101.28 515.717 101C515.335 100.721 514.857 100.604 514.389 100.676Z" fill="black"/>
<path d="M515.166 106.107L505.607 107.62C505.139 107.692 504.719 107.946 504.438 108.327C504.158 108.707 504.041 109.183 504.112 109.65C504.184 110.117 504.439 110.536 504.821 110.815C505.203 111.095 505.681 111.211 506.149 111.14L515.696 109.615C516.164 109.545 516.585 109.292 516.867 108.913C517.148 108.533 517.267 108.058 517.197 107.591C517.126 107.124 516.873 106.705 516.492 106.424C516.111 106.144 515.634 106.025 515.166 106.095V106.107Z" fill="black"/>
<path d="M541.452 53.9274C541.403 53.5698 541.279 53.2264 541.088 52.9193C540.898 52.6123 540.645 52.3483 540.346 52.1443C539.97 51.9053 539.542 51.7593 539.097 51.7184C538.653 51.6776 538.205 51.7432 537.792 51.9096C537.296 52.1059 536.836 52.3791 536.426 52.7191C536.073 53.0006 535.72 53.3056 535.39 53.6106C534.707 54.2558 534.072 54.9362 533.448 55.6166C532.984 55.5051 532.499 55.5051 532.035 55.6166C531.673 55.7149 531.331 55.8736 531.023 56.0859C530.639 55.6925 530.133 55.4403 529.587 55.3703C528.779 55.3373 527.975 55.4856 527.232 55.8043C526.529 56.1092 525.895 56.5534 525.368 57.11C524.842 57.6665 524.435 58.3239 524.172 59.0421C524.03 59.3354 523.901 59.6404 523.748 59.9337L523.607 60.18L523.536 60.309L523.395 60.5436C523.03 61.1302 522.63 61.7168 522.218 62.2446C521.806 62.7725 521.358 63.4177 520.911 63.9222L520.676 64.2037L520.569 64.2976C520.139 64.1979 519.688 64.2624 519.303 64.4783C518.918 64.6942 518.629 65.0458 518.492 65.4639C518.354 65.882 518.379 66.3361 518.561 66.7369C518.743 67.1377 519.069 67.4561 519.475 67.6292C520.236 67.8715 521.056 67.8581 521.809 67.5911C522.562 67.324 523.206 66.8182 523.642 66.1511C524.46 65.174 525.223 64.1518 525.926 63.0893C526.32 62.4917 526.682 61.8729 527.009 61.2358C527.138 60.9894 527.256 60.7313 527.374 60.485L527.586 60.051L527.691 59.8398L527.821 59.6404C527.893 59.5338 527.971 59.4319 528.056 59.3354H528.139L528.221 59.2533H528.292L528.68 59.089H528.786L528.986 59.2533C529.139 59.3588 523.159 68.0163 522.618 68.8257C518.851 74.4214 513.883 79.1491 510.481 85.0029C508.93 87.6173 507.843 90.4785 507.267 93.4609C507.236 93.768 507.286 94.078 507.411 94.3601C507.537 94.6422 507.735 94.8868 507.985 95.0693C508.235 95.2519 508.528 95.3662 508.836 95.401C509.143 95.4357 509.455 95.3897 509.74 95.2675C514.448 92.7453 517.85 88.6746 520.899 84.3811C526.032 77.1665 531.341 70.0692 536.72 63.0424L537.238 62.3854C537.34 62.2523 537.416 62.101 537.462 61.9396C537.648 61.6926 537.767 61.4022 537.808 61.0962C537.849 60.7903 537.811 60.4788 537.697 60.1917C537.576 59.8645 537.431 59.5469 537.262 59.2415C537.356 59.2415 537.462 59.1594 537.556 59.1007C539.216 57.7634 541.782 56.3557 541.452 53.9274ZM526.985 70.3508C524.113 73.9523 521.288 77.5654 518.627 81.331C517.45 82.9851 516.273 84.6392 514.943 86.1994C514.79 85.9061 514.613 85.6128 514.448 85.3313L514.295 85.167C513.824 84.7095 519.875 77.8938 520.334 77.3307C522.1 75.1253 523.866 72.8964 525.49 70.6206C527.115 68.3448 528.527 66.069 530.199 63.887C531.141 62.4206 531.965 60.8017 533 59.394C533.342 59.4996 533.636 59.9219 533.86 60.2152C533.929 60.3036 533.974 60.4089 533.989 60.5202C533.983 60.6742 533.921 60.8204 533.813 60.9308C532.635 62.4675 531.552 63.9926 530.434 65.5293L528.716 67.8755C528.22 68.7503 527.64 69.5754 526.985 70.3391V70.3508Z" fill="black"/>
<path d="M679.017 75.8292C679.966 78.3179 680.223 81.016 679.761 83.6384C679.299 86.2608 678.135 88.7101 676.392 90.7276C675.557 91.7343 674.511 92.5461 673.327 93.1055C672.143 93.665 670.851 93.9585 669.54 93.9653C666.611 94.0576 663.705 93.4163 661.088 92.1001C660.665 91.8772 660.264 91.6309 659.911 91.3728C661.864 93.446 664.548 94.6826 667.398 94.8217C669.933 95.0967 672.492 94.6071 674.745 93.4165C676.997 92.2258 678.839 90.3889 680.033 88.1433C681.226 85.8978 681.715 83.347 681.438 80.8211C681.16 78.2952 680.128 75.9105 678.475 73.9757C678.287 73.7293 678.087 73.4947 677.875 73.2601L677.486 72.9551C678.109 73.8495 678.622 74.8143 679.017 75.8292Z" fill="#F7C300"/>
<path d="M666.115 72.4507C666.08 72.8469 665.895 73.2148 665.597 73.4804C665.3 73.7459 664.913 73.8894 664.514 73.8819C663.484 73.9531 662.477 74.2272 661.554 74.6883C660.63 75.1495 659.807 75.7885 659.133 76.5685C658.459 77.3485 657.946 78.2539 657.625 79.2325C657.304 80.211 657.181 81.2433 657.263 82.2696C657.628 86.1878 660.9 89.1205 664.491 90.2584C666.591 90.9713 668.836 91.1527 671.024 90.7863C673.025 90.364 674.473 88.5574 675.45 86.8799C676.419 85.1725 676.943 83.2503 676.974 81.289C677.005 79.3278 676.542 77.3901 675.627 75.6533C674.214 72.9786 671.507 70.5151 668.423 70.2101C667.316 70.4095 666.221 70.6911 665.138 70.9491C665.432 71.0747 665.682 71.2845 665.856 71.5519C666.03 71.8192 666.12 72.1321 666.115 72.4507ZM664.832 79.5597C665.034 80.4776 665.346 81.3678 665.762 82.211C665.985 82.6831 666.237 83.1414 666.516 83.5835L666.598 83.7125L666.739 83.6187L667.834 82.9618L669.906 81.6596C671.263 80.8071 672.605 79.9273 673.932 79.0201C674.238 78.7643 674.632 78.6362 675.031 78.6624C675.43 78.6887 675.804 78.8672 676.074 79.1609C676.337 79.464 676.469 79.8578 676.442 80.2572C676.416 80.6566 676.233 81.0297 675.933 81.2959C673.131 83.1963 670.282 85.0499 667.363 86.7626C666.952 87.043 666.448 87.1521 665.957 87.0666C665.466 86.9811 665.029 86.7078 664.738 86.3051C664.268 85.691 663.843 85.0441 663.467 84.3694C662.73 83.0539 662.187 81.6395 661.854 80.1698C661.777 79.7782 661.857 79.3721 662.077 79.0388C662.297 78.7054 662.64 78.4713 663.031 78.3866C663.425 78.3128 663.833 78.3936 664.168 78.6123C664.504 78.8309 664.742 79.1704 664.832 79.5597Z" fill="#F7C300"/>
<path d="M656.768 84.9913C656.133 80.4748 657.946 76.4863 660.724 73.1312C661.963 72.051 663.458 71.3039 665.067 70.9609H665.138C664.993 70.8993 664.837 70.8674 664.679 70.8671C662.174 70.9631 659.778 71.9177 657.897 73.5698C656.016 75.2219 654.765 77.4703 654.355 79.9352C654.074 82.1693 654.444 84.4367 655.421 86.467C656.398 88.4972 657.94 90.2044 659.864 91.3847C658.19 89.6265 657.108 87.3915 656.768 84.9913Z" fill="black"/>
<path d="M677.486 72.9553C674.967 69.2013 670.682 66.5032 666.056 67.3244C665.661 67.4053 665.315 67.6392 665.093 67.9747C664.871 68.3102 664.792 68.7198 664.873 69.1133C664.954 69.5069 665.189 69.8523 665.525 70.0733C665.862 70.2944 666.273 70.3732 666.668 70.2923C667.239 70.1932 667.821 70.1696 668.399 70.2219C669.899 69.8878 671.454 69.8878 672.954 70.2219C674.689 70.6997 676.257 71.6456 677.486 72.9553Z" fill="black"/>
<path d="M675.626 75.6534C676.541 77.3902 677.004 79.3278 676.973 81.2891C676.943 83.2504 676.419 85.1726 675.45 86.8799C674.473 88.5575 673.025 90.3993 671.024 90.7864C668.836 91.1528 666.591 90.9714 664.49 90.2585C660.959 89.0854 657.627 86.1878 657.262 82.2697C657.181 81.2434 657.304 80.2111 657.625 79.2325C657.946 78.2539 658.458 77.3485 659.133 76.5685C659.807 75.7886 660.63 75.1495 661.553 74.6884C662.477 74.2273 663.483 73.9531 664.514 73.882C664.913 73.8895 665.3 73.746 665.597 73.4804C665.894 73.2148 666.079 72.8469 666.115 72.4508C666.12 72.1322 666.029 71.8193 665.855 71.5519C665.681 71.2846 665.432 71.0748 665.138 70.9492H665.067C663.457 71.2922 661.962 72.0392 660.723 73.1195C657.981 76.4746 656.132 80.4631 656.768 84.9795C657.11 87.3756 658.192 89.6061 659.864 91.3612C660.264 91.6193 660.665 91.8656 661.041 92.0885C663.658 93.4047 666.564 94.0461 669.493 93.9538C670.804 93.947 672.096 93.6534 673.28 93.0939C674.464 92.5345 675.51 91.7227 676.345 90.716C678.088 88.6985 679.252 86.2492 679.714 83.6268C680.176 81.0044 679.919 78.3063 678.97 75.8176C678.589 74.809 678.091 73.8483 677.486 72.9552C676.254 71.6542 674.686 70.7166 672.954 70.2454C671.454 69.9112 669.899 69.9112 668.399 70.2454C671.506 70.5152 674.214 72.9552 675.626 75.6534Z" fill="black"/>
<path d="M663.031 78.3867C662.64 78.4713 662.297 78.7054 662.077 79.0388C661.857 79.3721 661.777 79.7782 661.854 80.1698C662.186 81.6395 662.729 83.0539 663.466 84.3695C663.843 85.0441 664.268 85.691 664.738 86.3051C665.029 86.7078 665.466 86.9811 665.957 87.0666C666.447 87.1521 666.952 87.043 667.363 86.7626C670.282 85.0499 673.131 83.2433 675.933 81.2959C676.233 81.0297 676.416 80.6567 676.442 80.2572C676.469 79.8578 676.336 79.464 676.074 79.1609C675.804 78.8672 675.43 78.6887 675.031 78.6625C674.632 78.6362 674.238 78.7643 673.931 79.0201C672.597 79.9273 671.255 80.8071 669.906 81.6596L667.834 82.9618L666.739 83.6187L666.598 83.7125L666.515 83.5835C666.237 83.1414 665.985 82.6831 665.762 82.211C665.346 81.3679 665.034 80.4776 664.832 79.5598C664.742 79.1704 664.504 78.8309 664.168 78.6123C663.832 78.3936 663.425 78.3128 663.031 78.3867Z" fill="black"/>
<path d="M563.842 97.3323C561.488 97.0507 559.133 96.6987 556.779 96.3116C556.406 96.2307 556.016 96.3009 555.695 96.5066C555.373 96.7123 555.147 97.0367 555.066 97.4085C554.985 97.7802 555.055 98.169 555.262 98.4891C555.468 98.8092 555.794 99.0344 556.167 99.1153H556.308C558.662 99.5142 561.123 99.8661 563.501 100.159C563.874 100.191 564.245 100.078 564.537 99.8427C564.828 99.6074 565.016 99.2687 565.062 98.8979C565.108 98.5271 565.007 98.153 564.782 97.8544C564.557 97.5559 564.224 97.3561 563.854 97.297L563.842 97.3323Z" fill="black"/>
<path d="M535.884 91.4785C533.612 90.7981 531.317 90.0591 529.08 89.2848C528.72 89.1649 528.326 89.1913 527.985 89.3581C527.643 89.5249 527.381 89.8188 527.256 90.1764C527.191 90.3542 527.162 90.5431 527.172 90.732C527.181 90.921 527.228 91.1061 527.311 91.2766C527.393 91.4471 527.508 91.5995 527.651 91.7248C527.793 91.8502 527.959 91.9459 528.139 92.0064C530.422 92.7924 532.741 93.5432 535.06 94.2236C535.427 94.3278 535.821 94.2825 536.154 94.0977C536.487 93.9129 536.733 93.6037 536.838 93.2382C536.943 92.8726 536.897 92.4806 536.712 92.1484C536.526 91.8162 536.216 91.5711 535.849 91.4669L535.884 91.4785Z" fill="black"/>
<path d="M549.751 94.986C547.397 94.505 545.043 93.9654 542.782 93.3788C542.412 93.2824 542.019 93.3364 541.689 93.5289C541.359 93.7214 541.119 94.0366 541.023 94.4053C540.926 94.7739 540.98 95.1659 541.173 95.4948C541.366 95.8237 541.683 96.0627 542.053 96.1591C544.407 96.7574 546.761 97.3322 549.116 97.8014C549.301 97.8409 549.493 97.8433 549.679 97.8085C549.866 97.7737 550.044 97.7025 550.202 97.5989C550.361 97.4952 550.498 97.3613 550.604 97.2048C550.71 97.0483 550.785 96.8722 550.823 96.687C550.898 96.3206 550.828 95.9394 550.629 95.6227C550.429 95.3059 550.115 95.078 549.751 94.986Z" fill="black"/>
<path d="M571.541 63.6878C571.736 63.6464 571.921 63.5652 572.084 63.4491C572.246 63.333 572.383 63.1847 572.485 63.0134C572.587 62.8421 572.653 62.6515 572.677 62.4538C572.702 62.2561 572.685 62.0554 572.628 61.8644C572.571 61.6734 572.475 61.4963 572.346 61.3442C572.217 61.1921 572.057 61.0683 571.878 60.9806C571.698 60.8929 571.502 60.8432 571.302 60.8347C571.103 60.8262 570.903 60.859 570.717 60.931C569.508 61.2191 568.388 61.7972 567.455 62.615C566.521 63.4329 565.802 64.4656 565.361 65.6234C565.361 65.7759 565.267 65.9167 565.231 66.0692C565.146 66.3692 565.083 66.675 565.043 66.9842C564.999 67.3279 565.081 67.6759 565.273 67.9645C565.465 68.2532 565.756 68.4632 566.091 68.5562H566.291C566.67 68.6028 567.052 68.4982 567.354 68.2653C567.656 68.0324 567.853 67.69 567.903 67.3127C567.927 67.1346 567.963 66.9583 568.009 66.7848C568.009 66.7027 568.009 66.6206 568.092 66.5267C568.385 65.8056 568.854 65.1686 569.456 64.673C570.058 64.1774 570.775 63.8388 571.541 63.6878Z" fill="black"/>
<path d="M580.746 79.5832C580.662 79.7516 580.613 79.9351 580.6 80.1228C580.588 80.3105 580.613 80.4988 580.674 80.6767C580.736 80.8546 580.832 81.0186 580.957 81.1591C581.083 81.2997 581.235 81.414 581.406 81.4954C583.422 82.3487 585.208 83.6627 586.62 85.3314C586.735 85.4854 586.878 85.6155 587.043 85.7142C587.208 85.8129 587.391 85.8783 587.581 85.9066C587.771 85.9349 587.965 85.9257 588.152 85.8793C588.338 85.833 588.514 85.7504 588.669 85.6364C588.823 85.5224 588.954 85.3791 589.053 85.2149C589.152 85.0506 589.218 84.8685 589.246 84.6789C589.274 84.4894 589.265 84.2962 589.218 84.1102C589.172 83.9243 589.089 83.7493 588.975 83.5952C587.295 81.5579 585.152 79.9493 582.724 78.9028C582.55 78.8137 582.36 78.7606 582.165 78.7467C581.97 78.7328 581.774 78.7585 581.589 78.8221C581.404 78.8857 581.235 78.9858 581.09 79.1167C580.945 79.2475 580.828 79.4062 580.746 79.5832Z" fill="black"/>
<path d="M585.761 61.928L583.159 61.3063C581.609 60.9335 580.036 60.6631 578.451 60.4968C578.098 60.4744 577.749 60.5814 577.47 60.7977C577.191 61.014 577.001 61.3246 576.935 61.6709C576.87 62.0173 576.935 62.3753 577.116 62.6777C577.298 62.9801 577.584 63.2058 577.921 63.3123C577.995 63.3236 578.071 63.3236 578.145 63.3123C579.588 63.4715 581.019 63.7222 582.43 64.063L585.031 64.6848C585.214 64.7318 585.405 64.7423 585.592 64.7159C585.78 64.6894 585.96 64.6265 586.123 64.5307C586.286 64.4348 586.428 64.3079 586.542 64.1572C586.655 64.0065 586.738 63.835 586.785 63.6525C586.832 63.4699 586.843 63.2799 586.816 63.0933C586.79 62.9066 586.727 62.727 586.63 62.5647C586.534 62.4024 586.407 62.2606 586.256 62.1473C586.104 62.034 585.932 61.9515 585.749 61.9046L585.761 61.928Z" fill="black"/>
<path d="M576.721 77.9878C576.797 77.8137 576.837 77.6265 576.841 77.4367C576.844 77.2469 576.809 77.0583 576.739 76.8818C576.67 76.7052 576.565 76.5442 576.433 76.4079C576.3 76.2716 576.142 76.1627 575.967 76.0874C573.902 75.2226 572.006 74.0037 570.364 72.4859C570.087 72.223 569.718 72.0803 569.336 72.0891C568.954 72.0979 568.591 72.2576 568.327 72.5329C568.063 72.8083 567.92 73.1768 567.929 73.5574C567.938 73.938 568.098 74.2995 568.374 74.5624C570.265 76.3139 572.448 77.7232 574.825 78.7269C574.887 78.7624 574.955 78.7863 575.025 78.7972C575.358 78.8854 575.712 78.8523 576.023 78.7039C576.333 78.5556 576.581 78.3016 576.721 77.9878Z" fill="black"/>
<path d="M613.766 68.6264L606.762 66.9488C606.398 66.875 606.019 66.9433 605.704 67.1398C605.39 67.3363 605.162 67.6458 605.07 68.0044C604.978 68.3631 605.028 68.7433 605.209 69.0665C605.39 69.3897 605.689 69.6311 606.044 69.7408L613.107 71.4184C613.291 71.4623 613.482 71.4696 613.668 71.44C613.855 71.4105 614.034 71.3445 614.196 71.2459C614.357 71.1473 614.497 71.018 614.608 70.8655C614.719 70.7129 614.799 70.54 614.843 70.3567C614.887 70.1733 614.895 69.9832 614.865 69.797C614.835 69.6109 614.769 69.4323 614.67 69.2716C614.571 69.111 614.441 68.9713 614.288 68.8606C614.135 68.7499 613.962 68.6703 613.778 68.6264H613.766Z" fill="black"/>
<path d="M627.798 71.9815L620.735 70.3039C620.371 70.2301 619.992 70.2984 619.678 70.4949C619.363 70.6914 619.136 71.001 619.043 71.3596C618.951 71.7182 619.001 72.0984 619.182 72.4216C619.363 72.7448 619.662 72.9862 620.017 73.0959L627.08 74.7735C627.264 74.8189 627.455 74.8276 627.642 74.7991C627.83 74.7705 628.01 74.7053 628.172 74.6072C628.334 74.5091 628.474 74.3799 628.586 74.2272C628.698 74.0746 628.778 73.9014 628.822 73.7177C628.872 73.5367 628.884 73.3476 628.859 73.1616C628.834 72.9756 628.772 72.7964 628.677 72.6347C628.581 72.4729 628.455 72.3319 628.304 72.2197C628.153 72.1075 627.981 72.0265 627.798 71.9815Z" fill="black"/>
<path d="M599.793 65.2714L592.73 63.5939C592.36 63.499 591.968 63.5545 591.639 63.7481C591.31 63.9417 591.071 64.2575 590.976 64.6262C590.881 64.9949 590.936 65.3862 591.131 65.714C591.325 66.0418 591.642 66.2792 592.012 66.3741L599.075 68.0517C599.258 68.097 599.449 68.1056 599.635 68.0769C599.822 68.0482 600.001 67.9829 600.162 67.8846C600.323 67.7864 600.463 67.6572 600.573 67.5046C600.684 67.3521 600.763 67.1791 600.806 66.9959C600.893 66.6338 600.836 66.2522 600.647 65.9308C600.459 65.6094 600.153 65.3732 599.793 65.2714Z" fill="black"/>
<path d="M589.469 89.8713C589.288 89.8154 589.097 89.796 588.908 89.8142C588.718 89.8324 588.535 89.8879 588.367 89.9774C588.2 90.0668 588.052 90.1886 587.932 90.3355C587.812 90.4824 587.722 90.6516 587.668 90.8333C587.004 92.816 585.695 94.5211 583.948 95.6782C583.791 95.7851 583.657 95.9221 583.553 96.0812C583.45 96.2403 583.379 96.4185 583.345 96.6051C583.311 96.7918 583.314 96.9833 583.355 97.1685C583.396 97.3538 583.474 97.5291 583.583 97.6842C583.775 97.9603 584.059 98.1598 584.384 98.2473C584.583 98.2986 584.791 98.3074 584.994 98.273C585.197 98.2386 585.39 98.1619 585.561 98.0479C587.845 96.5174 589.552 94.2718 590.411 91.6662C590.468 91.4867 590.488 91.2979 590.472 91.1105C590.455 90.9231 590.401 90.7409 590.314 90.5742C590.226 90.4075 590.107 90.2596 589.962 90.139C589.817 90.0184 589.65 89.9274 589.469 89.8713Z" fill="black"/>
<path d="M577.827 97.8601C575.544 98.1645 573.236 98.2235 570.94 98.0361C570.586 98.0196 570.238 98.1332 569.963 98.3553C569.687 98.5774 569.502 98.8927 569.444 99.2412C569.386 99.5898 569.459 99.9475 569.648 100.246C569.836 100.545 570.129 100.765 570.469 100.863H570.752C573.252 101.058 575.766 100.987 578.251 100.652C578.438 100.624 578.617 100.56 578.78 100.463C578.942 100.366 579.083 100.238 579.196 100.087C579.308 99.9356 579.39 99.7637 579.436 99.5808C579.482 99.398 579.491 99.2079 579.463 99.0215C579.435 98.8351 579.371 98.656 579.274 98.4944C579.176 98.3328 579.048 98.1919 578.896 98.0797C578.744 97.9675 578.572 97.8862 578.388 97.8404C578.205 97.7947 578.014 97.7855 577.827 97.8132V97.8601Z" fill="black"/>
<path d="M465.913 88.0766L465.748 87.7129C465.489 87.0443 465.254 86.3756 465.042 85.6952C464.628 84.3339 464.305 82.9465 464.077 81.5424C464.045 81.3645 463.977 81.1951 463.876 81.0455C463.774 80.8959 463.642 80.7694 463.488 80.6743C463.316 80.5616 463.123 80.4857 462.92 80.4513C462.718 80.417 462.51 80.425 462.311 80.4748C461.959 80.5765 461.659 80.8074 461.471 81.1209C461.283 81.4344 461.221 81.8071 461.298 82.1641C461.519 83.5031 461.821 84.8273 462.205 86.1292C462.37 86.6923 462.558 87.3023 462.758 87.8185L461.181 87.5252C459.827 87.314 458.462 87.1615 457.108 87.0794C456.878 87.0596 456.646 87.1027 456.439 87.204C456.232 87.3053 456.056 87.461 455.931 87.6543C455.792 87.8758 455.712 88.1291 455.7 88.39C455.688 88.6509 455.743 88.9105 455.86 89.1441C455.971 89.3653 456.138 89.5541 456.344 89.6918C456.551 89.8296 456.789 89.9116 457.037 89.93C458.487 90.0096 459.93 90.182 461.357 90.4462C462.087 90.5752 462.805 90.7278 463.523 90.9037H463.653C463.998 91.0017 464.354 91.0569 464.712 91.068C465.001 91.0833 465.289 91.0178 465.543 90.879C465.796 90.7401 466.006 90.5333 466.148 90.282C466.295 89.9236 466.35 89.5346 466.309 89.1498C466.268 88.765 466.132 88.3963 465.913 88.0766Z" fill="black"/>
<path d="M414.977 52.0975L415.271 51.9685C416.084 51.6443 416.951 51.4771 417.826 51.4758C419.546 51.5128 421.219 52.0466 422.64 53.0126C422.875 53.1658 423.149 53.2473 423.429 53.2472C423.64 53.2441 423.848 53.1949 424.038 53.1031C424.229 53.0114 424.396 52.8793 424.53 52.7161C424.663 52.5528 424.759 52.3625 424.811 52.1584C424.863 51.9542 424.869 51.7413 424.83 51.5344C424.753 51.1647 424.533 50.84 424.218 50.6311C422.326 49.3636 420.105 48.6708 417.826 48.6369C416.575 48.6322 415.335 48.8713 414.176 49.3407L413.764 49.5285C413.46 49.7062 413.233 49.9901 413.126 50.3252C413.02 50.6604 413.042 51.023 413.189 51.3428C413.335 51.6625 413.596 51.9168 413.919 52.0562C414.243 52.1956 414.607 52.2103 414.942 52.0975H414.977Z" fill="black"/>
<path d="M420.933 75.8059C420.747 75.8035 420.563 75.8386 420.391 75.9092C420.219 75.9798 420.063 76.0844 419.933 76.2166C418.246 77.8496 416.452 79.37 414.565 80.7681L413.505 81.5542C413.2 81.78 412.996 82.1176 412.94 82.4926C412.891 82.8662 412.988 83.2443 413.211 83.5485C413.347 83.7312 413.524 83.8787 413.729 83.9788C413.934 84.0788 414.16 84.1284 414.388 84.1233C414.698 84.1276 415.001 84.0285 415.247 83.8417L416.331 83.0323C418.316 81.5654 420.2 79.9663 421.969 78.246C422.239 77.9789 422.391 77.6161 422.393 77.2372C422.398 77.0497 422.365 76.8631 422.294 76.6894C422.223 76.5157 422.116 76.3586 421.981 76.2282C421.845 76.0898 421.682 75.9808 421.501 75.9081C421.321 75.8354 421.128 75.8007 420.933 75.8059Z" fill="black"/>
<path d="M412.093 65.3183C411.164 63.7012 410.68 61.8677 410.692 60.0042C410.69 59.5298 410.718 59.0557 410.774 58.5847C410.823 58.2098 410.72 57.8311 410.488 57.5319C410.256 57.2327 409.915 57.0375 409.538 56.9893C409.162 56.9411 408.782 57.0438 408.482 57.2748C408.182 57.5058 407.986 57.8461 407.937 58.2211C407.867 58.8128 407.832 59.4083 407.832 60.0042C407.811 62.3844 408.433 64.7262 409.633 66.7847C409.75 66.9724 409.868 67.1601 409.997 67.3478C410.125 67.5435 410.3 67.7048 410.505 67.8174C410.71 67.9299 410.94 67.9903 411.175 67.993C411.432 67.9914 411.683 67.9206 411.903 67.788C412.123 67.6555 412.303 67.4662 412.423 67.2401C412.544 67.0141 412.601 66.7597 412.588 66.504C412.576 66.2483 412.494 66.0008 412.352 65.7876L412.093 65.3183Z" fill="black"/>
<path d="M406.219 86.0706C403.535 87.6895 400.757 89.1793 397.979 90.5166C397.682 90.6522 397.44 90.8854 397.295 91.1771C397.15 91.4688 397.11 91.8013 397.182 92.1189C397.254 92.4365 397.433 92.7199 397.689 92.9215C397.946 93.1232 398.264 93.2309 398.591 93.2266C398.807 93.2262 399.02 93.178 399.215 93.0857C402.087 91.7132 404.947 90.1765 407.714 88.5107C408.006 88.3 408.208 87.9876 408.28 87.6353C408.351 87.2831 408.287 86.917 408.1 86.6096C407.914 86.3022 407.618 86.0761 407.271 85.9763C406.925 85.8764 406.553 85.9101 406.231 86.0706H406.219Z" fill="black"/>
<path d="M428.197 73.3422C427.667 73.2836 427.149 73.2014 426.655 73.1193C424.172 72.7292 421.755 71.9988 419.474 70.949C419.218 70.8262 418.931 70.7824 418.65 70.8232C418.369 70.8639 418.107 70.9874 417.897 71.1778C417.687 71.3682 417.539 71.6167 417.472 71.8916C417.404 72.1664 417.421 72.4551 417.52 72.7204C417.649 73.0742 417.91 73.3643 418.25 73.5299C420.777 74.6623 423.445 75.4514 426.184 75.8761L427.832 76.1107H428.008C428.361 76.0953 428.697 75.9504 428.949 75.704C429.202 75.4576 429.355 75.1269 429.378 74.7753C429.402 74.4237 429.294 74.0759 429.076 73.7984C428.858 73.521 428.545 73.3335 428.197 73.2718V73.3422Z" fill="black"/>
<path d="M446.831 75.4657C445.983 75.2663 445.1 75.102 444.206 74.9729C441.851 74.621 439.391 74.4568 437.143 74.3395C436.956 74.3236 436.768 74.3455 436.59 74.404C436.412 74.4625 436.248 74.5562 436.107 74.6797C435.962 74.8043 435.845 74.957 435.762 75.1285C435.679 75.3 435.632 75.4866 435.624 75.6768C435.612 75.8637 435.636 76.0512 435.697 76.2283C435.758 76.4055 435.854 76.5687 435.979 76.7085C436.104 76.8484 436.255 76.9619 436.425 77.0426C436.595 77.1233 436.779 77.1694 436.966 77.1784C439.144 77.2957 441.475 77.4482 443.759 77.7884C444.583 77.9175 445.407 78.07 446.184 78.2459H446.501C446.862 78.2595 447.214 78.1364 447.486 77.9015C447.759 77.6667 447.932 77.3375 447.971 76.9803C448.01 76.6232 447.912 76.2647 447.696 75.9771C447.48 75.6894 447.162 75.4941 446.807 75.4305L446.831 75.4657Z" fill="black"/>
<path d="M458.273 85.4489C458.402 85.6432 458.576 85.8027 458.782 85.9133C458.987 86.0238 459.217 86.0819 459.45 86.0823C459.732 86.0834 460.008 85.9973 460.239 85.8359C460.397 85.7342 460.533 85.6017 460.638 85.4466C460.744 85.2914 460.817 85.1166 460.853 84.9327C460.889 84.7488 460.888 84.5595 460.849 84.3761C460.81 84.1926 460.735 84.0189 460.627 83.8651C459.412 82.0744 457.866 80.5299 456.072 79.3135C455.919 79.204 455.745 79.1267 455.56 79.0864C455.376 79.046 455.186 79.0434 455.001 79.0788C454.721 79.1267 454.463 79.2565 454.258 79.4515C454.053 79.6466 453.911 79.8981 453.85 80.1739C453.79 80.4497 453.813 80.7373 453.917 80.9999C454.021 81.2625 454.202 81.4881 454.436 81.6479C455.942 82.6646 457.244 83.9539 458.273 85.4489Z" fill="black"/>
<path d="M428.138 58.2093C427.766 58.2726 427.434 58.4791 427.214 58.7842C426.993 59.0893 426.903 59.4685 426.961 59.8399C427.069 60.5031 427.124 61.1739 427.125 61.8459C427.102 64.0765 426.613 66.2778 425.689 68.3097C425.597 68.527 425.559 68.7637 425.58 68.9989C425.6 69.2341 425.679 69.4606 425.808 69.6586C425.937 69.8566 426.112 70.0201 426.32 70.1347C426.527 70.2492 426.759 70.3114 426.996 70.3157C427.273 70.314 427.544 70.2322 427.776 70.0803C428.008 69.9283 428.191 69.7126 428.302 69.4593C429.381 67.0638 429.95 64.4715 429.974 61.8459C429.977 61.025 429.914 60.205 429.786 59.3941C429.757 59.2077 429.692 59.0289 429.593 58.8681C429.494 58.7072 429.364 58.5676 429.211 58.4573C429.058 58.347 428.884 58.2682 428.699 58.2257C428.515 58.1831 428.324 58.1775 428.138 58.2093Z" fill="black"/>
<path d="M166.652 93.9537C164.439 93.3554 162.25 92.7805 159.648 92.1471C159.289 92.0884 158.921 92.1666 158.617 92.3661C158.313 92.5656 158.096 92.8718 158.008 93.2238C157.921 93.5758 157.969 93.9477 158.145 94.2655C158.32 94.5834 158.609 94.8238 158.954 94.9391C161.532 95.5725 163.662 96.1122 165.887 96.7222C166.255 96.8233 166.649 96.7753 166.982 96.5885C167.315 96.4017 167.56 96.0913 167.665 95.725C167.714 95.5263 167.722 95.3195 167.687 95.1177C167.653 94.9159 167.577 94.7233 167.464 94.5519C167.269 94.2673 166.983 94.0566 166.652 93.9537Z" fill="black"/>
<path d="M117.27 71.0782C117.436 70.9875 117.582 70.8652 117.7 70.7181C117.818 70.5711 117.906 70.4023 117.958 70.2214C118.011 70.0405 118.027 69.851 118.006 69.6639C117.984 69.4768 117.927 69.2956 117.835 69.1308C117.706 68.8962 117.588 68.6734 117.47 68.427C116.554 66.6231 115.821 64.7329 115.281 62.7844C115.245 62.6367 115.181 62.4972 115.092 62.3738C114.898 62.0994 114.614 61.9012 114.288 61.8133C113.963 61.7255 113.617 61.7534 113.31 61.8924C113.003 62.0314 112.755 62.2726 112.607 62.5747C112.46 62.8767 112.423 63.2205 112.502 63.5469C113.079 65.6768 113.867 67.744 114.857 69.7174C114.986 69.9872 115.128 70.2453 115.257 70.5033C115.348 70.676 115.473 70.8286 115.625 70.9517C115.777 71.0748 115.952 71.166 116.14 71.2198C116.328 71.2735 116.525 71.2886 116.72 71.2643C116.914 71.24 117.101 71.1767 117.27 71.0782Z" fill="black"/>
<path d="M119.919 30.7235C120.157 31.0207 120.503 31.212 120.882 31.256C121.262 31.2999 121.643 31.1929 121.943 30.9581C122.32 30.6648 122.709 30.3833 123.121 30.1134C124.571 29.1335 126.157 28.3707 127.829 27.8494C128.191 27.7334 128.493 27.4802 128.669 27.1443C128.845 26.8085 128.882 26.417 128.771 26.0546C128.729 25.9223 128.669 25.796 128.594 25.6792C128.422 25.4217 128.17 25.2273 127.877 25.1257C127.584 25.024 127.265 25.0206 126.97 25.116C125.031 25.7184 123.191 26.5998 121.508 27.7321C121.049 28.0371 120.601 28.3656 120.178 28.7058C119.876 28.9398 119.679 29.2834 119.631 29.6614C119.582 30.0395 119.686 30.4213 119.919 30.7235Z" fill="black"/>
<path d="M144.522 34.7004C145.577 36.4642 146.509 38.2986 147.311 40.1905L147.629 40.9295C147.707 41.1028 147.817 41.2593 147.955 41.3899C148.093 41.5206 148.256 41.6228 148.433 41.6909C148.611 41.759 148.8 41.7916 148.991 41.7867C149.181 41.7819 149.368 41.7397 149.542 41.6627C149.716 41.5857 149.873 41.4753 150.004 41.3378C150.135 41.2003 150.238 41.0385 150.306 40.8614C150.375 40.6844 150.407 40.4957 150.402 40.3061C150.398 40.1165 150.355 39.9297 150.278 39.7564C150.172 39.4983 150.066 39.2402 149.948 38.9939C149.103 36.9676 148.108 35.0069 146.97 33.1284V33.0697C146.737 32.8272 146.426 32.6741 146.091 32.6372C145.756 32.6003 145.418 32.6821 145.138 32.868C144.857 33.054 144.651 33.3324 144.556 33.6545C144.46 33.9766 144.481 34.3219 144.616 34.63L144.522 34.7004Z" fill="black"/>
<path d="M149.936 47.4989C150.528 49.6772 150.802 51.9293 150.749 54.1856C150.725 54.3836 150.743 54.5845 150.801 54.7754C150.859 54.9663 150.956 55.1432 151.086 55.2948C151.216 55.4464 151.376 55.5695 151.556 55.6563C151.737 55.7431 151.933 55.7917 152.133 55.799C152.333 55.8063 152.533 55.7722 152.719 55.6988C152.905 55.6255 153.074 55.5145 153.215 55.3728C153.356 55.2311 153.466 55.0617 153.538 54.8756C153.609 54.6894 153.642 54.4905 153.633 54.2912C153.697 51.758 153.392 49.229 152.726 46.7833C152.681 46.6259 152.614 46.4758 152.526 46.3375C152.341 46.0459 152.055 45.831 151.723 45.7324C151.391 45.6338 151.035 45.6582 150.719 45.8011C150.404 45.944 150.151 46.1957 150.007 46.5099C149.863 46.8241 149.838 47.1795 149.936 47.5106V47.4989Z" fill="black"/>
<path d="M130.819 83.6892C130.638 84.024 130.598 84.4163 130.706 84.781C130.814 85.1456 131.062 85.4531 131.396 85.6365C133.552 86.8075 135.773 87.8571 138.047 88.7804C138.334 88.9026 138.653 88.9284 138.956 88.8538C139.259 88.7793 139.529 88.6086 139.726 88.3674C139.923 88.1262 140.035 87.8276 140.047 87.5169C140.058 87.2062 139.968 86.9003 139.789 86.6453C139.63 86.4126 139.405 86.2328 139.142 86.1292C136.969 85.2454 134.847 84.2429 132.785 83.126C132.449 82.9413 132.054 82.8969 131.685 83.0024C131.317 83.108 131.005 83.355 130.819 83.6892Z" fill="black"/>
<path d="M134.304 27.2628C135.906 27.46 137.452 27.9788 138.847 28.7878C139.31 29.0604 139.754 29.3622 140.178 29.6912C140.451 29.8906 140.785 29.9884 141.123 29.9676C141.461 29.9468 141.781 29.8086 142.027 29.5771C142.273 29.3456 142.431 29.0355 142.471 28.7006C142.512 28.3656 142.433 28.0271 142.25 27.7438C142.162 27.6177 142.055 27.5067 141.932 27.4153C141.416 27.0119 140.873 26.6435 140.307 26.3126C138.574 25.3092 136.657 24.6629 134.669 24.4122C134.289 24.364 133.906 24.4679 133.604 24.7011C133.301 24.9343 133.104 25.2777 133.056 25.6557C133.007 26.0337 133.112 26.4154 133.346 26.7168C133.58 27.0182 133.924 27.2146 134.304 27.2628Z" fill="black"/>
<path d="M144.003 89.4373C143.947 89.6175 143.927 89.8071 143.945 89.995C143.962 90.183 144.017 90.3656 144.105 90.5325C144.194 90.6993 144.315 90.847 144.461 90.9671C144.607 91.0872 144.776 91.1772 144.957 91.2321C147.017 91.8656 149.242 92.4873 151.949 93.1795C152.132 93.2272 152.322 93.2387 152.509 93.2133C152.696 93.1878 152.876 93.126 153.038 93.0312C153.201 92.9364 153.344 92.8106 153.458 92.6609C153.572 92.5113 153.655 92.3407 153.703 92.1589C153.8 91.7902 153.747 91.3983 153.555 91.0686C153.363 90.7389 153.048 90.4983 152.679 90.3992C150.007 89.7188 147.817 89.1088 145.805 88.4871C145.624 88.4309 145.433 88.4111 145.245 88.4285C145.056 88.4459 144.873 88.5003 144.706 88.5887C144.538 88.677 144.39 88.7974 144.269 88.9431C144.149 89.0887 144.058 89.2567 144.003 89.4373Z" fill="black"/>
<path d="M117.576 34.4775C117.456 34.3051 117.299 34.161 117.117 34.0552C116.956 33.9577 116.777 33.893 116.59 33.8651C116.404 33.8371 116.214 33.8463 116.031 33.8921C115.848 33.938 115.676 34.0195 115.525 34.1321C115.374 34.2446 115.247 34.386 115.151 34.5478C113.86 36.7241 112.87 39.064 112.208 41.5043C112.111 41.8714 112.162 42.2619 112.352 42.5913C112.541 42.9207 112.853 43.1624 113.221 43.264C113.403 43.3153 113.594 43.3299 113.782 43.3068C113.97 43.2837 114.152 43.2233 114.316 43.1294C114.481 43.0354 114.625 42.9097 114.74 42.7596C114.855 42.6094 114.939 42.438 114.986 42.2551C115.576 40.0686 116.463 37.9728 117.623 36.026C117.764 35.7901 117.834 35.5191 117.826 35.2449C117.817 34.9706 117.731 34.7044 117.576 34.4775Z" fill="black"/>
<path d="M112.55 47.5223C112.361 47.5096 112.172 47.5341 111.992 47.5945C111.813 47.6549 111.648 47.7499 111.506 47.8742C111.363 47.9984 111.247 48.1495 111.164 48.3186C111.08 48.4877 111.031 48.6716 111.019 48.8597C110.896 50.7698 110.896 52.6859 111.019 54.5961C111.019 55.1474 111.102 55.7106 111.16 56.2619C111.179 56.4491 111.234 56.6308 111.323 56.7967C111.412 56.9625 111.533 57.1093 111.679 57.2285C111.825 57.3478 111.993 57.4373 112.174 57.4918C112.355 57.5464 112.544 57.5649 112.732 57.5465C112.92 57.528 113.102 57.4728 113.269 57.3841C113.435 57.2954 113.582 57.1749 113.702 57.0294C113.822 56.884 113.911 56.7165 113.966 56.5365C114.021 56.3565 114.04 56.1676 114.021 55.9804C114.021 55.4642 113.927 54.9363 113.892 54.4084C113.78 52.6231 113.78 50.8326 113.892 49.0473C113.914 48.727 113.827 48.4086 113.644 48.144C113.523 47.963 113.36 47.8127 113.17 47.7048C112.98 47.5969 112.768 47.5344 112.55 47.5223Z" fill="black"/>
<path d="M149.336 60.6729C148.444 62.7561 147.254 64.7 145.805 66.4445C145.686 66.5909 145.597 66.7592 145.543 66.9398C145.489 67.1204 145.472 67.3097 145.491 67.4971C145.511 67.6845 145.567 67.8661 145.658 68.0317C145.748 68.1973 145.87 68.3436 146.017 68.4622C146.163 68.5808 146.332 68.6695 146.513 68.723C146.695 68.7766 146.885 68.7941 147.073 68.7745C147.261 68.7549 147.443 68.6986 147.609 68.6088C147.775 68.519 147.922 68.3974 148.041 68.2511C149.656 66.2867 150.972 64.0972 151.949 61.7521C152.042 61.5336 152.077 61.2953 152.053 61.0595C152.028 60.8237 151.944 60.5978 151.808 60.403C151.652 60.1677 151.425 59.9872 151.161 59.8868C150.814 59.755 150.429 59.7634 150.088 59.9102C149.747 60.0571 149.477 60.3307 149.336 60.6729Z" fill="black"/>
<path d="M101.013 85.5309C100.154 85.8359 99.318 86.1527 98.5175 86.4694C97.0578 87.056 95.6099 87.7246 94.2091 88.452C93.9032 88.6466 93.6818 88.9485 93.5887 89.298C93.4956 89.6475 93.5377 90.0191 93.7064 90.3392C93.8752 90.6593 94.1584 90.9046 94.5 91.0265C94.8416 91.1484 95.2167 91.1381 95.5511 90.9976C96.8639 90.3071 98.2116 89.6845 99.5888 89.1323C100.354 88.839 101.154 88.5341 101.943 88.2408C102.121 88.1778 102.285 88.0804 102.425 87.9543C102.565 87.8281 102.678 87.6757 102.759 87.5058C102.84 87.3358 102.887 87.1516 102.896 86.9637C102.906 86.7758 102.878 86.5879 102.814 86.4107C102.777 86.2933 102.721 86.1825 102.649 86.0823C102.474 85.8259 102.219 85.6335 101.924 85.534C101.629 85.4346 101.309 85.4335 101.013 85.5309Z" fill="black"/>
<path d="M108.759 86.176C110.984 85.5777 113.279 85.0029 115.493 84.4985L115.704 84.4398C116.074 84.3508 116.393 84.1192 116.592 83.7959C116.791 83.4726 116.852 83.084 116.764 82.7153C116.729 82.5472 116.661 82.3877 116.564 82.2461C116.4 82.0035 116.165 81.8164 115.892 81.7096C115.619 81.6027 115.319 81.5811 115.033 81.6478L114.822 81.7065C112.585 82.2461 110.278 82.7974 108.006 83.4074C107.637 83.507 107.324 83.7483 107.134 84.0783C106.944 84.4083 106.893 84.8 106.993 85.1671C107.093 85.5342 107.335 85.8468 107.667 86.036C107.998 86.2252 108.391 86.2756 108.759 86.176Z" fill="black"/>
<path d="M128.747 77.8119C127.9 78.1169 127.017 78.4219 126.087 78.7151C124.555 77.4963 123.126 76.1545 121.814 74.7031C121.55 74.4555 121.203 74.3153 120.841 74.3102C120.479 74.3051 120.128 74.4354 119.857 74.6755C119.587 74.9156 119.417 75.2479 119.38 75.607C119.343 75.9661 119.443 76.3259 119.66 76.6153C120.64 77.6979 121.682 78.724 122.779 79.6888L121.979 79.9117C121.61 80.0113 121.297 80.2526 121.107 80.5826C120.917 80.9126 120.866 81.3043 120.966 81.6714C121.066 82.0385 121.308 82.3511 121.639 82.5403C121.971 82.7295 122.364 82.7798 122.732 82.6802C123.733 82.4104 124.686 82.1407 125.604 81.8591C125.883 81.9476 126.183 81.9489 126.463 81.8629C126.743 81.7769 126.989 81.6078 127.17 81.3781C128.065 81.0966 128.9 80.815 129.713 80.5218C129.892 80.4588 130.057 80.361 130.198 80.234C130.339 80.107 130.453 79.9535 130.534 79.7822C130.615 79.6109 130.661 79.4252 130.67 79.236C130.678 79.0468 130.649 78.8578 130.584 78.68C130.548 78.5656 130.492 78.4583 130.419 78.3632C130.241 78.0995 129.981 77.9021 129.678 77.8023C129.375 77.7025 129.048 77.7059 128.747 77.8119Z" fill="black"/>
<path d="M134.551 76.9672C134.731 77.3014 135.036 77.551 135.4 77.6609C135.764 77.7709 136.158 77.7324 136.493 77.5537C137.8 76.8499 139.06 76.0874 140.26 75.2897C141.108 74.7148 141.944 74.1166 142.732 73.4831C143.016 73.2585 143.203 72.9354 143.258 72.5787C143.313 72.2219 143.23 71.8578 143.027 71.5592C143.011 71.5254 142.991 71.4938 142.968 71.4653C142.851 71.3169 142.705 71.193 142.54 71.1007C142.375 71.0085 142.193 70.9499 142.004 70.928C141.816 70.9062 141.625 70.9217 141.443 70.9737C141.261 71.0256 141.091 71.113 140.943 71.2308C140.213 71.8056 139.436 72.4039 138.589 72.9083C137.448 73.6718 136.27 74.3766 135.057 75.0199C134.733 75.2128 134.498 75.5254 134.403 75.89C134.308 76.2545 134.361 76.6415 134.551 76.9672Z" fill="black"/>
<path d="M265.994 99.0684C263.688 98.8043 261.357 98.8397 259.06 99.1739C258.694 99.2752 258.381 99.5151 258.189 99.8426C258.086 100.018 258.02 100.213 257.996 100.414C257.972 100.616 257.989 100.821 258.048 101.016C258.149 101.375 258.385 101.681 258.707 101.872C259.07 102.058 259.486 102.112 259.884 102.025H260.061H260.449L261.262 101.954C261.791 101.954 262.309 101.954 262.839 101.896C263.913 101.894 264.986 101.956 266.053 102.083C266.437 102.083 266.805 101.931 267.077 101.661C267.348 101.39 267.501 101.023 267.501 100.64C267.514 100.436 267.484 100.232 267.414 100.04C267.344 99.8483 267.235 99.673 267.093 99.5253C266.951 99.3776 266.781 99.2607 266.591 99.1821C266.402 99.1035 266.199 99.0647 265.994 99.0684Z" fill="black"/>
<path d="M277.954 103.456C277.829 103.106 277.594 102.805 277.283 102.599C275.774 101.482 274.039 100.705 272.198 100.324C272.015 100.273 271.823 100.258 271.634 100.281C271.446 100.304 271.263 100.364 271.098 100.457C270.932 100.55 270.786 100.675 270.669 100.824C270.552 100.973 270.465 101.144 270.414 101.327C270.363 101.509 270.349 101.7 270.372 101.888C270.395 102.076 270.455 102.258 270.548 102.423C270.642 102.588 270.767 102.733 270.917 102.85C271.066 102.967 271.238 103.053 271.421 103.104C272.103 103.254 272.772 103.458 273.422 103.714C274.251 104.091 275.04 104.551 275.776 105.086C276.026 105.249 276.319 105.331 276.617 105.322C276.914 105.312 277.202 105.211 277.44 105.033C277.678 104.855 277.855 104.608 277.947 104.325C278.039 104.043 278.042 103.74 277.954 103.456Z" fill="black"/>
<path d="M287.266 111.058C285.846 109.048 283.987 107.387 281.827 106.201C281.495 106.007 281.098 105.952 280.725 106.048C280.352 106.145 280.033 106.386 279.838 106.717C279.643 107.049 279.587 107.444 279.685 107.815C279.782 108.187 280.023 108.505 280.356 108.7C280.837 108.956 281.305 109.238 281.756 109.544L282.051 109.767L282.168 109.849L282.781 110.354C283.169 110.706 283.558 111.081 283.958 111.527L284.476 112.137C284.471 112.156 284.471 112.176 284.476 112.196L284.723 112.524C284.92 112.842 285.225 113.08 285.582 113.193C285.959 113.289 286.359 113.239 286.701 113.052C287.038 112.86 287.287 112.543 287.392 112.17C287.498 111.797 287.453 111.397 287.266 111.058Z" fill="black"/>
<path d="M284.44 112.09C284.44 112.09 284.382 112.031 284.523 112.196L284.44 112.09Z" fill="black"/>
<path d="M298.437 118.953C297.807 118.847 297.186 118.698 296.577 118.507L295.647 118.167L295.47 118.084L295 117.862C294.427 117.578 293.876 117.253 293.351 116.888L292.987 116.618L292.81 116.477C292.551 116.254 292.292 116.032 292.033 115.785C291.761 115.514 291.393 115.362 291.009 115.362C290.625 115.362 290.256 115.514 289.985 115.785C289.713 116.056 289.561 116.423 289.561 116.806C289.561 117.189 289.713 117.556 289.985 117.826C292.097 119.866 294.775 121.227 297.672 121.733C297.855 121.784 298.046 121.798 298.235 121.775C298.424 121.752 298.606 121.692 298.772 121.599C298.937 121.506 299.083 121.382 299.2 121.232C299.317 121.083 299.404 120.912 299.455 120.73C299.506 120.547 299.521 120.356 299.498 120.168C299.475 119.98 299.415 119.798 299.321 119.633C299.228 119.468 299.103 119.323 298.953 119.207C298.803 119.09 298.632 119.003 298.449 118.953H298.437Z" fill="black"/>
<path d="M312.198 118.272C312.002 117.945 311.685 117.708 311.315 117.611C310.945 117.515 310.552 117.567 310.22 117.756C309.841 118.011 309.448 118.246 309.043 118.46C309.043 118.46 308.713 118.624 308.702 118.612L308.867 118.542L308.69 118.612C308.478 118.694 308.254 118.777 308.019 118.847C307.583 118.981 307.139 119.087 306.689 119.164H306.583C306.497 119.157 306.41 119.157 306.324 119.164H305.57C305.186 119.164 304.818 119.316 304.547 119.586C304.275 119.857 304.123 120.224 304.123 120.607C304.123 120.989 304.275 121.356 304.547 121.627C304.818 121.898 305.186 122.05 305.57 122.05C307.763 122.005 309.899 121.351 311.739 120.161C312.034 119.956 312.243 119.651 312.327 119.303C312.412 118.955 312.366 118.589 312.198 118.272Z" fill="black"/>
<path d="M320.803 107.116C320.434 107.025 320.043 107.079 319.712 107.266C319.381 107.454 319.135 107.762 319.026 108.125C319.026 108.289 318.896 108.453 318.826 108.618C318.801 108.695 318.77 108.769 318.731 108.841C318.59 109.153 318.437 109.47 318.272 109.791C317.941 110.413 317.576 111.016 317.178 111.597C317.083 111.726 317.001 111.855 316.907 111.973L316.73 112.219L316.648 112.325L316.554 112.43L316.412 112.618L316.059 113.017C315.579 113.558 315.068 114.071 314.529 114.554C314.26 114.826 314.109 115.192 314.109 115.574C314.109 115.956 314.26 116.323 314.529 116.595C314.806 116.855 315.173 116.999 315.553 116.999C315.934 116.999 316.3 116.855 316.577 116.595C318.926 114.477 320.728 111.825 321.827 108.864C321.921 108.497 321.866 108.108 321.674 107.781C321.483 107.454 321.17 107.215 320.803 107.116Z" fill="black"/>
</svg>
