<svg width="372" height="382" viewBox="0 0 372 382" fill="none" xmlns="http://www.w3.org/2000/svg">
<path d="M353.338 6.28278C352.3 5.29505 351.245 4.23462 349.91 3.53141C347.941 2.53868 345.758 2.78747 343.806 3.76771C340.814 5.28044 338.188 7.17945 335.652 9.22841C332.89 11.4726 330.128 13.7168 327.334 15.9821C325.855 17.1912 323.923 18.4107 323.034 20.0244C322.015 21.9363 322.491 23.8519 324.394 25.1005L324.418 25.1263C328.909 30.4114 333.375 35.6707 337.809 40.9512C338.6 41.8949 340.151 42.2833 341.476 42.1068C344.753 41.7101 347.707 40.2655 350.517 38.8329C353.572 37.2779 356.56 35.5986 359.427 33.7905C360.675 32.9901 361.924 32.1897 363.148 31.3636C364.529 30.4315 366.245 29.5269 367.326 28.3327C370.057 25.3496 367.584 22.2489 365.56 19.7314C361.735 15.0947 357.91 10.458 353.338 6.28278ZM356.638 27.3146C354.888 28.4539 353.081 29.5887 351.226 30.6719C349.496 31.6705 347.774 32.622 345.978 33.4964C344.914 34.0031 343.788 34.5522 342.651 34.9817C338.903 30.5888 335.186 26.1747 331.469 21.7607C332.173 21.2008 332.853 20.6151 333.558 20.0552C335.232 18.6721 336.93 17.3147 338.605 15.9315C340.177 14.6589 341.719 13.4074 343.341 12.1862C344.164 11.5885 344.98 11.0378 345.852 10.4916C346.071 10.3433 346.347 10.1996 346.591 10.0771C346.737 10.2316 346.915 10.3649 347.061 10.5194C347.856 11.2496 348.619 12.001 349.406 12.7782C350.925 14.3279 352.388 15.873 353.813 17.4863C355.238 19.0996 356.576 20.7295 357.938 22.3851C358.534 23.1228 359.154 23.8862 359.781 24.6027C359.878 24.7057 359.969 24.8557 360.091 24.9844C359.871 25.1327 359.651 25.281 359.4 25.4505C358.514 26.0905 357.58 26.6791 356.638 27.3146Z" fill="#F8F8F8"/>
<path d="M108.387 341.982C107.349 340.995 106.293 339.934 104.959 339.231C102.99 338.238 100.807 338.487 98.8544 339.467C95.8625 340.98 93.2365 342.879 90.701 344.928C87.9388 347.172 85.1766 349.416 82.383 351.682C80.9042 352.891 78.9723 354.11 78.0824 355.724C77.0634 357.636 77.5399 359.552 79.4426 360.8L79.467 360.826C83.9575 366.111 88.4236 371.371 92.8583 376.651C93.6491 377.595 95.2001 377.983 96.5249 377.807C99.802 377.41 102.756 375.965 105.566 374.533C108.621 372.978 111.609 371.298 114.476 369.49C115.724 368.69 116.973 367.89 118.197 367.063C119.578 366.131 121.293 365.227 122.375 364.032C125.106 361.049 122.633 357.949 120.609 355.431C116.784 350.794 112.959 346.158 108.387 341.982ZM111.687 363.014C109.936 364.154 108.13 365.288 106.275 366.372C104.545 367.37 102.823 368.322 101.027 369.196C99.9633 369.703 98.837 370.252 97.7003 370.682C93.9518 366.289 90.2347 361.874 86.5176 357.46C87.2221 356.9 87.9022 356.315 88.6067 355.755C90.2808 354.372 91.9793 353.014 93.6533 351.631C95.2263 350.358 96.7678 349.107 98.3895 347.886C99.2125 347.288 100.029 346.737 100.9 346.191C101.12 346.043 101.396 345.899 101.64 345.777C101.786 345.931 101.964 346.064 102.11 346.219C102.904 346.949 103.667 347.701 104.455 348.478C105.974 350.027 107.437 351.573 108.862 353.186C110.287 354.799 111.625 356.429 112.987 358.085C113.582 358.822 114.202 359.586 114.83 360.302C114.927 360.405 115.018 360.555 115.14 360.684C114.92 360.832 114.7 360.981 114.449 361.15C113.563 361.79 112.629 362.379 111.687 363.014Z" fill="#F8F8F8"/>
<path d="M35.2198 92.2219C34.1815 91.2342 33.1259 90.1738 31.7911 89.4706C29.8221 88.4778 27.6397 88.7266 25.687 89.7069C22.6951 91.2196 20.069 93.1186 17.5335 95.1676C14.7713 97.4118 12.0091 99.6559 9.2155 101.921C7.73674 103.13 5.80478 104.35 4.91493 105.964C3.89592 107.875 4.37243 109.791 6.27509 111.04L6.29948 111.065C10.79 116.351 15.2561 121.61 19.6908 126.89C20.4816 127.834 22.0327 128.222 23.3575 128.046C26.6346 127.649 29.5881 126.205 32.3986 124.772C35.4533 123.217 38.4417 121.538 41.3083 119.73C42.5567 118.929 43.8052 118.129 45.0293 117.303C46.4103 116.371 48.1259 115.466 49.2072 114.272C51.9385 111.289 49.4652 108.188 47.4412 105.671C43.6162 101.034 39.7911 96.3972 35.2198 92.2219ZM38.5196 113.254C36.769 114.393 34.9626 115.528 33.1074 116.611C31.3778 117.61 29.6551 118.561 27.8593 119.436C26.7958 119.942 25.6695 120.491 24.5328 120.921C20.7843 116.528 17.0672 112.114 13.3501 107.7C14.0546 107.14 14.7347 106.554 15.4392 105.994C17.1133 104.611 18.8118 103.254 20.4859 101.871C22.0588 100.598 23.6003 99.3466 25.222 98.1254C26.0451 97.5277 26.8611 96.9769 27.7329 96.4307C27.9526 96.2825 28.2281 96.1388 28.4722 96.0162C28.6185 96.1707 28.7962 96.3041 28.9426 96.4586C29.737 97.1888 30.5 97.9402 31.2874 98.7173C32.8064 100.267 34.2697 101.812 35.6946 103.425C37.1194 105.039 38.4571 106.669 39.8192 108.324C40.4149 109.062 41.035 109.825 41.6621 110.542C41.7596 110.645 41.8502 110.795 41.9721 110.924C41.7524 111.072 41.5327 111.22 41.2816 111.39C40.3958 112.03 39.4612 112.618 38.5196 113.254Z" fill="#F8F8F8"/>
<path d="M342.759 274.967C336.844 270.55 329.546 268.392 322.057 266.831C320.175 265.868 317.985 266.532 316.795 268.027C314.221 271.281 312.147 274.801 310.304 278.387C309.305 280.379 308.345 282.372 307.385 284.397C306.501 286.29 305.272 288.249 305.925 290.374C306.693 292.799 309.228 293.662 311.648 294.525C313.876 295.322 316.103 296.119 318.369 296.883C322.978 298.444 327.626 299.871 332.35 301.167C333.541 301.499 335.269 301.167 336.076 300.303C338.956 297.215 339.686 293.297 340.493 289.478C341.299 285.659 342.067 281.84 343.719 278.188C344.218 277.192 343.719 275.664 342.759 274.967ZM316.948 289.245C316.026 288.913 315.105 288.581 314.183 288.249C314.106 288.216 314.029 288.183 313.952 288.15C314.528 287.021 314.989 285.759 315.489 284.696C316.18 283.202 316.91 281.741 317.678 280.28C318.907 277.989 320.328 275.764 321.826 273.572C326.627 274.635 331.467 275.963 335.538 278.42C334.539 281.11 333.925 283.866 333.349 286.655C333.003 288.349 332.619 290.042 332.196 291.736C332.043 292.367 331.889 293.131 331.62 293.861C328.586 292.965 325.513 292.101 322.517 291.105C320.635 290.541 318.792 289.91 316.948 289.245Z" fill="#F8F8F8"/>
</svg>
