<svg width="124" height="88" viewBox="0 0 124 88" fill="none" xmlns="http://www.w3.org/2000/svg">
<path d="M123.642 18.0553C122.758 20.2934 121.093 21.9952 119.53 23.7794C117.844 25.6875 116.128 27.5645 114.308 29.3385C112.705 30.8855 111.06 32.3913 109.631 34.1034C108.264 35.7433 107.041 37.476 105.529 38.9818C104.029 40.4669 102.363 41.7768 100.647 42.9938C98.9402 44.2005 97.1413 45.531 95.2704 46.4695C92.9472 47.6453 92.1968 45.0875 91.5595 43.396C90.7371 41.1889 89.9456 38.9715 88.9999 36.8056C87.3551 32.9998 85.2684 29.4004 82.1537 26.626C81.2696 25.8318 81.6911 24.7489 82.4929 24.2745C82.6676 24.0373 82.9349 23.8516 83.305 23.7485C86.6972 22.8821 90.1306 22.0983 93.4715 21.036C96.7507 19.9943 99.8654 18.6845 103.258 18.0347C104.789 17.7459 106.331 17.4778 107.873 17.2406C106.156 16.6836 104.45 16.0751 102.713 15.6729C100.4 15.1366 97.8197 15.3944 95.4657 15.5079C92.865 15.6213 90.2745 15.8585 87.6944 16.0854C85.1039 16.3226 82.5134 16.5599 79.9127 16.7042C77.8259 16.8177 75.256 17.3024 73.4982 15.9101C69.9209 13.0635 66.909 9.13402 64.298 5.41078C63.342 4.03906 65.069 2.73954 66.3128 3.30679C66.5287 3.26554 66.7445 3.24491 66.9707 3.29648C78.7717 5.89552 90.5315 8.5977 102.23 11.5887C108.706 12.7541 115.161 14.0743 121.524 15.7451C121.576 15.7554 121.627 15.7657 121.679 15.7863C122.11 15.8998 122.522 16.0648 122.933 16.3123C123.478 16.6321 123.889 17.4262 123.642 18.0553Z" fill="#00A99D"/>
<path d="M123.807 16.5599C124.434 15.4976 123.426 14.2909 122.357 14.3012C112.674 11.3 102.97 8.40183 92.937 6.7929C88.1262 6.01937 83.3256 5.31804 78.5661 4.25573C76.5102 3.74005 74.4543 3.23468 72.3984 2.719C69.2837 1.88359 66.1792 0.975986 63.0748 0.0683827C62.0982 -0.2204 61.4815 0.449988 61.3684 1.24414C61.2245 1.55355 61.1834 1.91453 61.2964 2.31676C62.1496 5.2871 64.5551 7.74175 66.4671 10.0726C68.5333 12.5892 70.6817 15.0541 72.8713 17.4572C71.4629 22.6141 70.4144 27.8328 68.7697 32.9174C68.6463 33.2887 68.523 33.6703 68.5538 34.0622C68.5949 34.7326 69.1192 35.3411 69.7668 35.4649C70.1266 35.5371 70.4967 35.4649 70.8565 35.3927C73.1385 34.9595 75.3692 34.7017 77.6718 34.4335C78.8951 34.2891 80.1081 34.1551 81.3314 34.0107C81.9379 33.9385 82.5546 33.8663 83.1611 33.7941C83.3667 33.7735 83.6237 33.7116 83.8601 33.7116C83.9218 33.7425 83.9835 33.7941 84.0452 33.8353C84.1171 33.9178 84.1891 33.99 84.2816 34.0519C84.3844 34.1757 84.4872 34.2994 84.59 34.4645C85.0115 35.1761 85.4329 35.8774 85.8544 36.5891C87.0057 39.5285 88.0439 42.5298 89.3494 45.4073C89.37 47.1709 91.4362 47.2328 92.5258 46.4077C94.15 45.1804 95.6714 43.7468 97.2236 42.4163C100.379 39.7348 103.576 37.0841 106.691 34.351C112.602 29.1736 117.762 23.2226 123.036 17.416C123.426 17.3128 123.694 16.9725 123.807 16.5599ZM75.3692 15.6627C75.3384 15.6214 75.3178 15.5905 75.287 15.5492C74.187 14.3528 73.1077 13.1358 72.0386 11.9085C70.2088 9.41257 68.338 6.88572 66.3746 4.22479C70.0032 5.27678 73.6422 6.28753 77.3223 7.14356C82.3079 8.30901 87.3449 9.02065 92.3922 9.83543C92.68 9.87668 92.9576 9.93856 93.2454 9.99013C99.0123 11.434 104.759 12.8676 110.505 14.3012C109.785 14.3219 109.066 14.3528 108.336 14.425C104.707 14.786 101.15 15.0954 97.5012 15.1779C90.1307 15.3429 82.7499 15.5079 75.3692 15.6627ZM80.2314 22.9957C80.1081 23.0163 79.995 23.0679 79.8717 23.0988C79.738 23.0782 79.5941 23.0679 79.4399 23.0782C76.6953 23.3463 75.5851 25.8629 73.7553 27.5337C73.6011 27.6781 73.4366 27.8225 73.2722 27.9565C74.0534 24.8728 74.8758 21.8096 75.7187 18.7464C82.8939 18.5917 90.069 18.437 97.2442 18.272C100.821 18.1895 104.327 17.9832 107.884 17.581L107.894 17.7357C103.895 18.4886 99.8963 19.2415 95.8975 19.9944C90.6858 20.9845 85.4535 21.9437 80.2314 22.9957ZM78.4839 31.2466C76.9317 31.4219 75.3898 31.6076 73.8375 31.7829C74.187 31.4013 74.5263 31.03 74.8758 30.6484C74.9683 30.5659 75.0608 30.4731 75.1636 30.3906C76.0785 29.5861 76.9009 28.7816 77.6615 27.8225C77.9699 27.4305 78.3708 26.9252 78.6792 26.657C78.8334 26.5333 78.9773 26.4404 79.1212 26.3579C79.7072 27.0593 80.3034 27.7503 80.8893 28.4516C81.3519 29.2251 81.8248 30.009 82.3079 30.8031C81.0332 30.9475 79.7586 31.1022 78.4839 31.2466ZM117.433 19.0765C111.409 24.9346 105.499 30.6794 99.5982 36.4241C99.2795 36.6922 98.9609 36.9604 98.6319 37.2388L94.5201 40.7249C93.8725 41.2818 93.2146 41.8284 92.567 42.3854C92.4128 42.5194 92.2174 42.7154 92.0221 42.9217C91.6212 42.2719 91.2306 41.6222 90.84 40.9724C89.9148 38.5693 89.0513 36.1353 88.0439 33.7631C87.2935 32.0201 86.4095 30.3803 85.2273 28.8951C84.1685 27.5646 83.0378 26.822 82.2257 25.3472C84.6311 24.553 87.6122 24.2849 90.1101 23.8104C92.8239 23.2948 95.9489 22.8513 98.6628 22.3356C105.643 21.0154 111.646 19.0765 118.626 17.7563C118.215 18.1998 117.824 18.633 117.433 19.0765Z" fill="#1E1E1E"/>
<path d="M45.1408 76.5856C47.1864 79.6179 47.8134 83.3101 46.9088 86.858C46.4154 88.7867 43.4138 88.0854 43.9072 86.1464C44.6268 83.3411 44.1436 80.608 42.5195 78.2152C41.399 76.565 44.0203 74.9458 45.1408 76.5856Z" fill="#1E1E1E"/>
<path d="M29.598 64.0133C33.2472 65.2819 36.4956 67.1693 39.3739 69.7581C40.8541 71.0885 38.7262 73.3266 37.246 71.9961C34.7892 69.789 32.0034 68.1079 28.8887 67.0249C27.0281 66.3855 27.7168 63.3636 29.598 64.0133Z" fill="#1E1E1E"/>
<path d="M10.6419 52.782C13.695 56.3402 17.7246 58.3514 22.0112 60.0119C23.8512 60.7236 22.3607 63.4361 20.5309 62.7244C16.0182 60.9814 11.711 58.7536 8.51406 55.0304C7.22911 53.5246 9.34671 51.2659 10.6419 52.782Z" fill="#1E1E1E"/>
<path d="M3.32307 34.9498C2.91189 37.3426 2.99412 39.7354 3.58006 42.0972C4.05292 44.0258 1.11296 44.9438 0.629818 43.0048C-0.0897532 40.1066 -0.192548 37.1879 0.321431 34.2485C0.660658 32.2786 3.6623 33.0005 3.32307 34.9498Z" fill="#1E1E1E"/>
<path d="M3.68234 25.9147C5.67658 22.6865 9.49031 18.9736 13.5713 19.087C15.545 19.1489 15.6683 22.243 13.6844 22.1811C10.7239 22.0986 7.83529 25.0689 6.39615 27.3998C5.34763 29.081 2.63382 27.6164 3.68234 25.9147Z" fill="#1E1E1E"/>
<path d="M21.7235 19.509C24.5607 19.6843 27.2334 20.3341 29.8238 21.5202C31.633 22.3452 30.1425 25.0577 28.3436 24.2326C26.2877 23.2941 24.0981 22.7372 21.8366 22.6031C19.8732 22.4793 19.7396 19.3852 21.7235 19.509Z" fill="#1E1E1E"/>
<path d="M39.3536 25.4505C41.3067 26.946 43.3935 28.2455 45.5831 29.3697C47.3409 30.2773 45.8709 33.0001 44.1028 32.0822C41.6665 30.8239 39.3947 29.349 37.2258 27.6885C35.653 26.4818 37.7808 24.2438 39.3536 25.4505Z" fill="#1E1E1E"/>
<path d="M52.1203 34.4028C52.5726 33.6499 53.4361 33.4127 54.2173 33.784C54.536 33.9387 54.8649 34.0831 55.2042 34.2171C55.2658 34.2378 55.5126 34.3306 55.5434 34.3409C55.7181 34.4028 55.9032 34.4544 56.0779 34.5162C56.7769 34.7225 57.4862 34.8772 58.2058 34.9804C58.3703 35.001 58.5348 35.0216 58.6992 35.0422C58.7506 35.0422 58.9973 35.0629 58.9973 35.0629C59.3777 35.0835 59.7477 35.0938 60.1281 35.0938C60.8785 35.0835 61.6289 35.0113 62.369 34.8875C63.1708 34.7535 63.9727 35.6095 63.9727 36.3727C63.9624 37.3009 63.3456 37.8372 62.4924 37.9816C59.1824 38.5179 55.7593 37.9507 52.7473 36.5068C52.0072 36.1561 51.7091 35.0938 52.1203 34.4028Z" fill="#1E1E1E"/>
</svg>
