<svg width="710" height="504" viewBox="0 0 710 504" fill="none" xmlns="http://www.w3.org/2000/svg">
<path d="M702.883 480.062C702.34 480.069 701.822 480.289 701.438 480.675C701.054 481.061 700.835 481.583 700.828 482.128C700.65 484.36 700.39 486.578 700.13 488.796C700.02 489.747 699.883 491.001 699.774 491.772C699.724 492.121 699.65 492.466 699.554 492.806L699.431 493.178L699.349 493.301L699.185 493.398C699.335 493.398 698.815 493.398 698.979 493.398C698.513 493.398 698.02 493.481 697.609 493.508L694.226 493.77L687.46 494.28C686.919 494.294 686.405 494.516 686.022 494.9C685.64 495.285 685.419 495.802 685.405 496.346C685.405 496.894 685.622 497.42 686.007 497.807C686.392 498.195 686.915 498.413 687.46 498.413L695.158 497.834C696.363 497.738 697.582 497.669 698.801 497.558C700.115 497.551 701.382 497.061 702.362 496.181C703.992 494.472 703.979 491.855 704.239 489.664C704.54 487.143 704.855 484.622 705.047 482.087C705.038 481.811 704.975 481.539 704.861 481.287C704.748 481.036 704.585 480.809 704.384 480.621C704.183 480.433 703.947 480.287 703.689 480.191C703.431 480.095 703.157 480.051 702.883 480.062Z" fill="#FBA43B"/>
<path d="M17.447 7.5589L17.7894 7.3523L18.1456 7.15941H18.3236C18.6905 7.03558 19.0658 6.93886 19.4467 6.87006H19.844H20.2549C21.8849 6.71852 23.5148 6.60833 25.1448 6.47057C25.6897 6.47057 26.2123 6.25286 26.5976 5.86531C26.9829 5.47776 27.1994 4.95212 27.1994 4.40405C27.1994 3.85597 26.9829 3.33033 26.5976 2.94278C26.2123 2.55523 25.6897 2.33752 25.1448 2.33752C23.3368 2.48907 21.5288 2.58545 19.6659 2.7921C17.7114 2.88438 15.8425 3.62569 14.3514 4.89999C13.0779 6.36165 12.3895 8.24706 12.4201 10.1903C12.2328 12.1084 12.1551 14.0358 12.1872 15.9628C12.1872 16.5109 12.4037 17.0364 12.789 17.424C13.1743 17.8115 13.6969 18.0293 14.2418 18.0293C14.7867 18.0293 15.3093 17.8115 15.6946 17.424C16.0799 17.0364 16.2964 16.5109 16.2964 15.9628C16.262 14.3032 16.3168 12.6429 16.4607 10.9893C16.4607 10.5347 16.543 10.08 16.5841 9.61163C16.5841 9.61163 16.5841 9.34986 16.5841 9.25342C16.5841 9.15699 16.5841 9.00551 16.5841 8.97795C16.5841 8.9504 16.6799 8.60593 16.7347 8.41306C16.733 8.38094 16.733 8.34873 16.7347 8.31661V8.23395L16.8716 8.02735L17.0771 7.79309L17.447 7.5589Z" fill="#FBA43B"/>
<path d="M696.472 29.3812C696.363 24.4767 696.208 19.5813 696.007 14.6951C695.924 12.7664 696.007 10.5621 693.87 9.81816C692.976 9.5846 692.051 9.50082 691.13 9.57018H687.021C683.844 9.57018 680.666 9.57018 677.433 9.57018C676.982 9.65827 676.523 9.69518 676.063 9.68034C675.474 9.68034 674.899 9.59771 674.31 9.5426H673.776C673.63 9.55614 673.484 9.55614 673.338 9.5426H673.201C672.146 9.5426 38.9104 9.68039 37.8557 9.7355C37.2626 9.7699 36.6681 9.7699 36.0751 9.7355C31.5093 9.81816 26.9436 9.94218 22.3779 10.1075C22.0384 10.1085 21.7052 10.1993 21.4119 10.371C21.1185 10.5428 20.8754 10.7892 20.7069 11.0856C20.3799 11.2405 20.1019 11.4834 19.9037 11.7873C19.7055 12.0912 19.5947 12.4444 19.5837 12.8077C18.4057 32.0952 17.6386 465.128 17.2551 484.457C17.2551 485.005 17.4716 485.53 17.8569 485.918C18.2422 486.305 18.7648 486.523 19.3097 486.523C19.8546 486.523 20.3772 486.305 20.7625 485.918C21.1478 485.53 21.3643 485.005 21.3643 484.457C21.7341 465.569 22.4875 32.9908 23.6107 14.1441C31.9386 13.8548 672.448 13.6894 680.775 13.7032C682.912 13.7032 685.049 13.7032 687.172 13.7032H690.213C690.695 13.756 691.18 13.779 691.665 13.7721C691.665 13.9512 691.665 14.1165 691.665 14.2956C691.843 18.6215 691.993 22.9474 692.089 27.2733C692.308 36.164 692.363 45.0501 692.254 53.9315C692.254 58.3676 692.103 476.521 691.966 481.012C691.966 482.046 691.966 483.065 691.87 484.085C691.87 484.594 691.87 485.09 691.87 485.6C691.076 485.6 690.117 485.71 689.911 485.71H686.172C676.2 485.71 34.0479 485.71 24.0763 485.71C23.5314 485.71 23.0088 485.928 22.6235 486.316C22.2382 486.703 22.0217 487.229 22.0217 487.777C22.0217 488.325 22.2382 488.851 22.6235 489.238C23.0088 489.626 23.5314 489.843 24.0763 489.843C33.815 489.843 675.748 489.843 685.501 489.843C687.761 489.843 690.035 489.843 692.349 489.843C694.664 489.843 695.842 489.154 696.048 486.881C696.486 482.046 696.376 63.3548 696.459 58.4916C696.678 48.7652 696.682 39.0617 696.472 29.3812Z" fill="black"/>
<path d="M677.323 24.3938H39.2527C36.4159 24.3938 34.1162 26.7068 34.1162 29.5601V469.784C34.1162 472.637 36.4159 474.95 39.2527 474.95H677.323C680.16 474.95 682.46 472.637 682.46 469.784V29.5601C682.46 26.7068 680.16 24.3938 677.323 24.3938Z" fill="#F9F9F9"/>
<path d="M708.485 81.4574C706.776 80.8359 705.156 79.9931 703.664 78.9501C704.979 78.0954 706.397 77.4104 707.882 76.9111C708.305 76.7775 708.674 76.5116 708.936 76.1523C709.198 75.7931 709.34 75.359 709.34 74.9134C709.34 74.4678 709.198 74.0339 708.936 73.6746C708.674 73.3154 708.305 73.0495 707.882 72.9158C706.442 72.5015 705.074 71.8648 703.828 71.0284C705.078 69.9977 706.509 69.2126 708.047 68.7139C708.428 68.5958 708.767 68.3701 709.024 68.0637C709.281 67.7573 709.446 67.3831 709.497 66.9856C709.549 66.5881 709.487 66.1839 709.317 65.8211C709.147 65.4583 708.877 65.1522 708.54 64.9391C706.881 63.7266 705.162 62.6 703.39 61.5638C704.985 60.0488 706.788 58.7728 708.745 57.7751C710.485 56.8934 709.745 54.6065 708.252 54.0003C706.427 53.1079 704.84 51.7901 703.623 50.1565L703.458 49.9912L704.088 49.3162C704.978 48.4345 705.896 47.5803 706.828 46.7399C708.8 44.9489 705.883 42.042 703.924 43.8192C701.965 45.5964 697.24 48.6962 699.691 51.8511C700.875 53.4043 702.256 54.7939 703.801 55.9842C701.909 57.2759 700.196 58.8139 698.705 60.5581C698.49 60.7846 698.328 61.0568 698.231 61.3546C698.134 61.6525 698.105 61.9685 698.146 62.2792C698.187 62.5899 698.296 62.8875 698.466 63.1499C698.637 63.4123 698.863 63.633 699.13 63.7956C700.595 64.5947 702.02 65.4488 703.417 66.3581C701.884 67.2492 700.498 68.3739 699.308 69.6921C698.933 70.0847 698.723 70.6079 698.723 71.1524C698.723 71.6968 698.933 72.2202 699.308 72.6128C700.274 73.4912 701.325 74.2711 702.445 74.941C701.187 75.6658 699.996 76.5003 698.883 77.4347C698.505 77.8256 698.293 78.3495 698.293 78.8949C698.293 79.4404 698.505 79.9644 698.883 80.3553C700.376 81.6771 702.017 82.8191 703.773 83.7582C702.395 84.7747 701.09 85.8889 699.869 87.0922C697.993 88.9659 700.897 91.8865 702.787 90.0129C704.648 88.1414 706.754 86.5332 709.047 85.2324C709.383 85.014 709.65 84.7025 709.815 84.3354C709.98 83.9682 710.037 83.561 709.977 83.1625C709.918 82.764 709.746 82.3913 709.481 82.0889C709.216 81.7864 708.871 81.5671 708.485 81.4574Z" fill="#FBA43B"/>
<path d="M10.338 331.135C8.62447 330.525 7.00218 329.681 5.5166 328.627C6.8384 327.784 8.25442 327.099 9.73536 326.588C10.16 326.459 10.5319 326.195 10.7963 325.837C11.0606 325.479 11.2033 325.044 11.2033 324.598C11.2033 324.151 11.0606 323.717 10.7963 323.358C10.5319 323 10.16 322.736 9.73536 322.607C8.30302 322.181 6.94468 321.535 5.70838 320.692C6.96134 319.666 8.39149 318.882 9.92715 318.378C10.3081 318.259 10.6473 318.034 10.9044 317.727C11.1616 317.421 11.3259 317.047 11.3778 316.649C11.4297 316.252 11.3671 315.847 11.1974 315.485C11.0276 315.122 10.7579 314.816 10.4202 314.603C8.76171 313.39 7.04274 312.264 5.27006 311.227C6.86213 309.712 8.66651 308.441 10.6256 307.452C12.3652 306.557 11.6255 304.27 10.1326 303.664C8.30722 302.771 6.72001 301.454 5.50289 299.82L5.33853 299.668L5.96863 298.993C6.85895 298.112 7.77666 297.244 8.70807 296.403C10.6805 294.626 7.76297 291.706 5.80427 293.483C3.84557 295.26 -0.880003 298.374 1.5718 301.528C2.75829 303.079 4.13951 304.468 5.68096 305.662C3.78642 306.95 2.07266 308.488 0.585639 310.235C0.367712 310.462 0.20343 310.735 0.105099 311.034C0.00676858 311.334 -0.0230836 311.651 0.0177362 311.964C0.0585561 312.277 0.169002 312.576 0.340855 312.84C0.512707 313.103 0.741539 313.324 1.01025 313.487C2.47585 314.272 3.90037 315.14 5.29748 316.035C3.76475 316.926 2.37858 318.051 1.18832 319.369C0.813312 319.762 0.603864 320.285 0.603864 320.83C0.603864 321.374 0.813312 321.897 1.18832 322.29C2.1513 323.173 3.20241 323.953 4.32495 324.618C3.06764 325.343 1.87602 326.178 0.763709 327.112C0.385518 327.503 0.173903 328.027 0.173903 328.572C0.173903 329.118 0.385518 329.642 0.763709 330.033C2.25969 331.354 3.9002 332.5 5.65362 333.449C4.27214 334.457 2.96724 335.567 1.74987 336.77C-0.12665 338.643 2.77717 341.564 4.66738 339.69C6.52888 337.819 8.63472 336.21 10.927 334.91C11.2634 334.689 11.5292 334.376 11.6925 334.007C11.8557 333.638 11.9095 333.229 11.8472 332.831C11.785 332.432 11.6094 332.059 11.3417 331.758C11.0739 331.458 10.7254 331.241 10.338 331.135Z" fill="#00A99D"/>
<path d="M541.242 492.943C530.284 492.759 519.372 492.681 508.506 492.709C507.961 492.709 507.438 492.926 507.053 493.314C506.668 493.702 506.451 494.227 506.451 494.775C506.451 495.323 506.668 495.849 507.053 496.237C507.438 496.624 507.961 496.842 508.506 496.842C519.464 496.842 530.376 496.92 541.242 497.076C543.886 497.117 543.886 492.984 541.242 492.943Z" fill="#00A99D"/>
<path d="M270.462 0.229579C259.559 0.0458884 248.647 -0.0275509 237.725 0.00918728C237.181 0.00918728 236.658 0.226897 236.273 0.614445C235.887 1.00199 235.671 1.52763 235.671 2.07571C235.671 2.62378 235.887 3.14942 236.273 3.53697C236.658 3.92452 237.181 4.14223 237.725 4.14223C248.683 4.14223 259.595 4.21567 270.462 4.36262C271.007 4.36262 271.529 4.14491 271.915 3.75736C272.3 3.36981 272.516 2.84418 272.516 2.2961C272.516 1.74802 272.3 1.22238 271.915 0.834837C271.529 0.447289 271.007 0.229579 270.462 0.229579Z" fill="#00A99D"/>
<path d="M197.579 496.553C193.675 493.536 189.141 496.098 185.361 497.93C180.923 500.038 176.773 498.04 172.417 496.663C168.244 495.185 163.674 495.323 159.596 497.049C155.953 498.564 152.118 501.058 148.173 499.046C146.283 498.082 144.653 496.704 142.694 495.822C140.753 494.95 138.613 494.626 136.503 494.886C132.394 495.34 128.737 497.448 124.71 498.316C122.857 498.782 120.903 498.622 119.149 497.861C117.275 496.817 115.251 496.073 113.149 495.657C109.04 495.189 105.301 497.035 101.548 498.261C99.6057 499.06 97.4821 499.303 95.4113 498.964C92.9458 498.344 90.9597 496.498 88.4394 495.891C86.0762 495.321 83.615 495.299 81.242 495.826C78.869 496.354 76.6463 497.417 74.7422 498.936C72.6465 500.562 75.523 503.524 77.5912 501.912C79.2291 500.683 81.1593 499.909 83.1882 499.668C85.2172 499.426 87.2737 499.725 89.1517 500.534C91.1652 501.43 92.8225 502.766 95.0552 503.152C96.9247 503.426 98.8301 503.318 100.657 502.835C104.301 501.939 107.835 499.804 111.615 499.749C113.492 499.877 115.31 500.459 116.916 501.443C118.719 502.379 120.723 502.852 122.751 502.821C126.751 502.642 130.312 500.768 134.079 499.68C135.742 499.091 137.521 498.907 139.27 499.143C141.42 499.57 143.16 501.058 144.995 502.16C146.736 503.233 148.713 503.858 150.751 503.979C152.789 504.099 154.826 503.71 156.679 502.849C160.391 501.374 163.87 499.212 168.007 499.928C172.746 500.741 177.06 503.496 181.991 503.166C184.407 502.888 186.739 502.109 188.84 500.879C190.881 499.845 193.333 498.674 195.374 500.259C197.414 501.843 199.661 498.109 197.579 496.553Z" fill="#FBA43B"/>
</svg>
